<svg xmlns="http://www.w3.org/2000/svg" width="48" height="48" viewBox="0 96 960 960"><path d="M120 936V216h720v389q-14-8-29.5-13t-30.5-8V276H180v600h309q4 16 9.023 31.172Q503.045 922.345 510 936H120Zm60-107v47-600 308-4 249Zm100-53h211q4-16 9-31t13-29H280v60Zm0-170h344q14-7 27-11.5t29-8.5v-40H280v60Zm0-170h400v-60H280v60Zm452.5 579q-77.5 0-132.5-55.5T545 828q0-78.435 54.99-133.718Q654.98 639 733 639q77 0 132.5 55.282Q921 749.565 921 828q0 76-55.5 131.5t-133 55.5ZM718 955h33V845h110v-33H751V702h-33v110H608v33h110v110Z"/></svg>