<svg xmlns="http://www.w3.org/2000/svg" width="48" height="48" viewBox="0 96 960 960"><path d="M198 796V595h226v201-201H198v201Zm443-365ZM40 856V466l271-194 270 194v87q-18 14-33 31t-27 37V497L311 346 100 497.422V796h98V595h226v201h66q2.6 15.836 7.8 30.918Q503 842 510 856H364V655H258v201H40Zm880-720v451q-12.825-15.319-27.912-27.66Q877 547 860 536V196H465v112l-60-42V136h515ZM697 353h60v-60h-60v60Zm35.5 583Q655 936 600 880.5T545 749q0-78.435 54.99-133.718Q654.98 560 733 560q77 0 132.5 55.282Q921 670.565 921 749q0 76-55.5 131.5t-133 55.5ZM718 876h33V766h110v-33H751V623h-33v110H608v33h110v110Z"/></svg>