<svg xmlns="http://www.w3.org/2000/svg" width="48" height="48" viewBox="0 -960 960 960"><path d="M450-810v-150h60v150h-60Zm-187 53L152-869l42-43 112 112-43 43Zm-13 503h150v-60H250v60Zm460 0v-60H560v60h150Zm-12-256 141-142-28-28-113 114-59-60-28 29 87 87Zm27 109q-80.51 0-137.255-56.745Q531-514.49 531-595q0-80.51 56.745-137.255Q644.49-789 725-789q80.51 0 137.255 56.745Q919-675.51 919-595q0 80.51-56.745 137.255Q805.51-401 725-401ZM120-40v-354l98-286h157v-75h153q-23 29-37.5 63T472-620H258l-60 176h323q35.633 48.925 89.083 75.962Q663.533-341 725-341q30 0 59-7t56-21v329h-81v-84H200v84h-80Z"/></svg>