<svg xmlns="http://www.w3.org/2000/svg" width="48" height="48" viewBox="0 0 48 48"><path d="M6.05 28.95q-.45 0-.75-.3T5 27.9q0-.45.3-.75t.75-.3q.45 0 .75.3t.3.75q0 .45-.3.75t-.75.3Zm0-7.8q-.45 0-.75-.3T5 20.1q0-.45.3-.75t.75-.3q.45 0 .75.3t.3.75q0 .45-.3.75t-.75.3ZM12 37.4q-.55 0-.975-.425Q10.6 36.55 10.6 36t.425-.975q.425-.425.975-.425t.975.425q.425.425.425.975t-.425.975q-.425.425-.975.425Zm0-8.1q-.55 0-.975-.425-.425-.425-.425-.975t.425-.975q.425-.425.975-.425t.975.425q.425.425.425.975t-.425.975q-.425.425-.975.425Zm0-7.8q-.55 0-.975-.425-.425-.425-.425-.975t.425-.975q.425-.425.975-.425t.975.425q.425.425.425.975t-.425.975q-.425.425-.975.425Zm0-8.1q-.55 0-.975-.425Q10.6 12.55 10.6 12t.425-.975q.425-.425.975-.425t.975.425q.425.425.425.975t-.425.975q-.425.425-.975.425Zm8.1 24q-.55 0-.975-.425Q18.7 36.55 18.7 36t.425-.975q.425-.425.975-.425t.975.425q.425.425.425.975t-.425.975q-.425.425-.975.425Zm0-24q-.55 0-.975-.425Q18.7 12.55 18.7 12t.425-.975q.425-.425.975-.425t.975.425q.425.425.425.975t-.425.975q-.425.425-.975.425Zm0 29.6q-.45 0-.75-.3t-.3-.75q0-.45.3-.75t.75-.3q.45 0 .75.3t.3.75q0 .45-.3.75t-.75.3Zm0-35.9q-.45 0-.75-.3t-.3-.75q0-.45.3-.75t.75-.3q.45 0 .75.3t.3.75q0 .45-.3.75t-.75.3Zm7.8 30.3q-.55 0-.975-.425Q26.5 36.55 26.5 36t.425-.975q.425-.425.975-.425t.975.425q.425.425.425.975t-.425.975q-.425.425-.975.425Zm0-24q-.55 0-.975-.425Q26.5 12.55 26.5 12t.425-.975q.425-.425.975-.425t.975.425q.425.425.425.975t-.425.975q-.425.425-.975.425Zm0-6.3q-.45 0-.75-.3t-.3-.75q0-.45.3-.75t.75-.3q.45 0 .75.3t.3.75q0 .45-.3.75t-.75.3Zm.3 35.9q-.45 0-.75-.3t-.3-.75q0-.45.3-.75t.75-.3q.45 0 .75.3t.3.75q0 .45-.3.75t-.75.3Zm7.8-5.6q-.55 0-.975-.425Q34.6 36.55 34.6 36t.425-.975q.425-.425.975-.425t.975.425q.425.425.425.975t-.425.975q-.425.425-.975.425Zm0-8.1q-.55 0-.975-.425-.425-.425-.425-.975t.425-.975q.425-.425.975-.425t.975.425q.425.425.425.975t-.425.975q-.425.425-.975.425Zm0-7.8q-.55 0-.975-.425-.425-.425-.425-.975t.425-.975q.425-.425.975-.425t.975.425q.425.425.425.975t-.425.975q-.425.425-.975.425Zm0-8.1q-.55 0-.975-.425Q34.6 12.55 34.6 12t.425-.975q.425-.425.975-.425t.975.425q.425.425.425.975t-.425.975q-.425.425-.975.425Zm5.95 15.55q-.45 0-.75-.3t-.3-.75q0-.45.3-.75t.75-.3q.45 0 .75.3t.3.75q0 .45-.3.75t-.75.3Zm0-7.8q-.45 0-.75-.3t-.3-.75q0-.45.3-.75t.75-.3q.45 0 .75.3t.3.75q0 .45-.3.75t-.75.3ZM16 32v-.95q0-2.55 2.525-3.475Q21.05 26.65 24 26.65q2.95 0 5.475.925Q32 28.5 32 31.05V32Zm8-8.7q-1.5 0-2.575-1.075-1.075-1.075-1.075-2.575 0-1.5 1.075-2.575Q22.5 16 24 16q1.5 0 2.575 1.075 1.075 1.075 1.075 2.575 0 1.5-1.075 2.575Q25.5 23.3 24 23.3Z"/></svg>