<svg xmlns="http://www.w3.org/2000/svg" width="48" height="48" viewBox="0 96 960 960"><path d="M880 412q-14-11-29-20t-31-17V236H160v-60h720v236ZM80 816V396h260v420H80Zm590 80V691q-9-6-14.5-15t-5.5-20q0-17 11.5-28.5T690 616q17 0 28.5 11.5T730 656q0 11-5 20t-15 15v205h-40Zm-77-129q-25-21-39-50t-14-61q0-63 44-106.5T690 506q63 0 106.5 43.5T840 656q0 32-13 61.5T789 768l-29-28q19-16 29.5-38t10.5-46q0-46-32-78t-78-32q-45 0-77.5 32T580 656q0 24 11 45.5t29 37.5l-27 28Zm-71 72q-39-35-60.5-83T440 656q0-105 73-177.5T690 406q105 0 177.5 72.5T940 656q0 52-21 99.5T859 838l-28-28q34-29 51.5-69t17.5-85q0-88-61-149t-149-61q-87 0-148.5 61T480 656q0 45 18 85t52 69l-28 29Z"/></svg>