<svg xmlns="http://www.w3.org/2000/svg" width="48" height="48" viewBox="0 -960 960 960"><path d="M140-724h299-299Zm82 293h-82 520-438Zm0 269v82h-86v-111q-26-15-41-44.5T80-301v-397q0-77 85.5-107.5T469-836q-10 14-17.5 29T439-776q-152 2-218.5 14T140-724h286q-2 15-2.5 30t1.5 30H140v173h373q24 22 54 37t62 23H140v120q0 36 24.5 62.5T222-222h356q33 0 57.5-26.5T660-311v-115q15 2 30 2t30-2v125q0 36-15 65.5T664-191v111h-86v-82H222Zm467-336q-79 0-135-56t-56-135q0-79 56-135t135-56q80 0 135.5 55.5T880-689q0 80-56 135.5T689-498Zm-15-161h35v-143h-35v143Zm18 85q9 0 15.5-6t6.5-16q0-10-6.5-16t-15.5-6q-11 1-16.5 7t-5.5 15q0 10 6 16t16 6ZM285-288q16-16 16-39t-16-39q-16-16-39-16t-39 16q-16 16-16 39t16 39q16 16 39 16t39-16Zm308 0q16-16 16-39t-16-39q-16-16-39-16t-39 16q-16 16-16 39t16 39q16 16 39 16t39-16Z"/></svg>