<svg xmlns="http://www.w3.org/2000/svg" width="48" height="48" viewBox="0 -960 960 960"><path d="M479-227v67h-66v-249l63-185h341l63 185v249h-66v-67H479Zm-13-212h361l-38-115H504l-38 115Zm54 146q17 0 28-11t11-28q0-17-11-28t-28-11q-17 0-28 11t-11 28q0 17 11 28t28 11Zm253 0q17 0 28-11t11-28q0-17-11-28t-28-11q-17 0-28 11t-11 28q0 17 11 28t28 11ZM164-160v-21l57-57q-57 0-99-34.5T80-361v-328q0-66 52-88.5T338-800q143 0 200.5 24.5T596-689v65h-60v-77H140v269h243v272H164Zm55-173q11-11 11-28t-11-28q-11-11-28-11t-28 11q-11 11-11 28t11 28q11 11 28 11t28-11Z"/></svg>