<svg xmlns="http://www.w3.org/2000/svg" width="48" height="48" viewBox="0 -960 960 960"><path d="M120-160v-60h480v60H120Zm385.5-345.61q-55.5-55.6-55.5-134.5 0-78.89 55.61-134.39 55.6-55.5 134.5-55.5 78.89 0 134.39 55.61 55.5 55.6 55.5 134.5 0 78.89-55.61 134.39-55.6 55.5-134.5 55.5-78.89 0-134.39-55.61ZM120-500v-60h262q5.32 16.32 12.16 31.16T409-500H120Zm0 170v-60h419q13.8 6.36 29.4 10.68Q584-375 600-373v43H120Zm500-190h40v-160h-40v160Zm34-206q6-6 6-14t-6-14q-6-6-14-6t-14 6q-6 6-6 14t6 14q6 6 14 6t14-6Z"/></svg>