<svg xmlns="http://www.w3.org/2000/svg" width="48" height="48" viewBox="0 96 960 960"><path d="M733 827q28 0 47.5-19.5T800 760q0-28-19.5-47T733 694q-27 0-46.5 19.5T667 760q0 28 19 47.5t47 19.5Zm0 133q33 0 62-15.5t47-42.5q-26-14-53-22.5t-56-8.5q-29 0-56 8.5T624 902q18 27 47 42.5t62 15.5Zm0 55q-78 0-133-55.5T545 828q0-78 55-133.5T733 639q77 0 132.5 55.5T921 828q0 76-55.5 131.5T733 1015ZM280 436h400v-60H280v60Zm230 500H120V216h720v389q-25-13-52-19t-55-6q-14 0-27 1.5t-26 4.5v-40H280v60h344q-36 18-64.5 46.5T513 716H280v60h211q-3 13-4.5 26t-1.5 27q0 29 6 55t19 52Z"/></svg>