<svg xmlns="http://www.w3.org/2000/svg" width="48" height="48" viewBox="0 -960 960 960"><path d="M279.982-407q14.018 0 23.518-9.482 9.5-9.483 9.5-23.5 0-14.018-9.482-23.518-9.483-9.5-23.5-9.5-14.018 0-23.518 9.482-9.5 9.483-9.5 23.5 0 14.018 9.482 23.518 9.483 9.5 23.5 9.5Zm0-160q14.018 0 23.518-9.482 9.5-9.483 9.5-23.5 0-14.018-9.482-23.518-9.483-9.5-23.5-9.5-14.018 0-23.518 9.482-9.5 9.483-9.5 23.5 0 14.018 9.482 23.518 9.483 9.5 23.5 9.5ZM360-410h360v-60H360v60Zm0-160h360v-60H360v60Zm-30 450v-80H80v-640h800v640H630v80H330ZM140-260h680v-520H140v520Zm0 0v-520 520Z"/></svg>