<svg xmlns="http://www.w3.org/2000/svg" width="48" height="48" viewBox="0 -960 960 960"><path d="M410-450ZM50-90v-720h430v60H110v600h600v-290h60v350H50Zm164-157h60v-275h-60v275Zm166 0h60v-406h-60v406Zm166 0h60v-148h-60v148Zm184-253q-31 0-59.5-10.5T616-538l-43 40-41-41 43-43.353Q559-606 549.5-633.325 540-660.651 540-690q0-78.85 55.575-134.425Q651.15-880 730-880h190v190q0 78.85-55.575 134.425Q808.85-500 730-500Zm0-60q54.167 0 92.083-37.917Q860-635.833 860-690v-130H730q-54.167 0-92.083 37.917Q600-744.167 600-690q0 17 4.5 33.5T616-623l136-136 43 42-136 136q17 8 34.5 14.5T730-560Zm-14-120Z"/></svg>