<svg xmlns="http://www.w3.org/2000/svg" width="48" height="48" viewBox="0 96 960 960"><path d="M480 976q-84 0-157-31t-127-85q-54-54-85-127T80 576q0-84 31-157t85-127q54-54 127-85t157-31q42 0 77.5 7t85.5 26l-111 48 189 80 63 146q-133 17-231.5-25T383 334q-34 81-97.5 141.5T140 569q0 145 99 246t241 101q143 0 241.5-99.5T820 576q0-22-2.5-39.5L813 505l36-85q16 43 23.5 77t7.5 79q0 83-31 156t-85 127q-54 54-127 85.5T480 976ZM354 673q-23 0-38.5-15.5T300 619q0-23 15.5-38.5T354 565q23 0 38.5 15.5T408 619q0 23-15.5 38.5T354 673Zm253 0q-23 0-38.5-15.5T553 619q0-23 15.5-38.5T607 565q23 0 38.5 15.5T661 619q0 23-15.5 38.5T607 673Zm197-273-45-102-99-42 99-41 45-102 44 102 99 41-99 42-44 102Z"/></svg>