<svg xmlns="http://www.w3.org/2000/svg" width="48" height="48" viewBox="0 96 960 960"><path d="M280 936h-80V472l-81-196H40v-60h119l67 160h677L756 666q51 6 85 43.968 34 37.969 34 89.566Q875 856 835.932 895.5 796.864 935 740.914 935 684 935 645 895.464 606 855.929 606 800q0-20 5.5-39t16.5-35l-153-13-195 223Zm406-264 120-236-556 1 85 203 351 32Zm-426-69v272l147-168-107-10-40-94Zm479.651 268Q772 871 793.5 849.227q21.5-21.774 21.5-52.878Q815 764 793.75 742.5T740 721q-31.25 0-53.125 21.25T665 796q0 31.25 21.773 53.125Q708.547 871 739.651 871ZM686 672l-351-32 351 32Z"/></svg>