<svg xmlns="http://www.w3.org/2000/svg" width="48" height="48" viewBox="0 96 960 960"><path d="M833 1015 678 860v36H38v-94q0-35 18-63.5t50-42.5q73-32 131.5-46T358 636q28 0 54.5 3t52.5 8l-75-75q-8 2-16 2.5t-16 .5q-66 0-108-42t-42-108q0-8 .5-16t2.5-16L26 208l43-43 807 807-43 43ZM624 634q69 8 129 23t98 35q34 18 52.5 46.5T922 802v94h-36L727 737q-14-35-40.5-60.5T624 634Zm-88-88q16-23 24-54t8-67q0-45-12.5-79.5T519 282q11-3 24.5-5t24.5-2q66 0 108 42t42 108q0 66-43.5 108T565 575l-29-29Zm-46-46L283 293q16-9 35-13.5t40-4.5q66 0 108 42t42 108q0 21-4.5 40T490 500Z"/></svg>