<svg xmlns="http://www.w3.org/2000/svg" width="48" height="48" viewBox="0 96 960 960"><path d="M440 559Zm0 376-99-91q-94-86-152.5-145.5T97 594q-33-45-45-83t-12-80q0-91 61-153t149-62q57 0 105.5 26.5T440 320q41-53 88-78.5T630 216q88 0 148.5 62T839 431q0 29-5.5 54.5T820 526h-64q8-17 15.5-44.5T779 431q0-64-43.5-109.5T630 276q-51 0-95 31t-71 88h-49q-26-56-70-87.5T250 276q-65 0-107.5 44T100 431q0 36 12.5 70t49 80Q198 627 265 692t175 164q32-29 60.5-54t56.5-49l6.5 6.5q6.5 6.5 14.5 14t14.5 14l6.5 6.5q-27 24-56 49t-62 55l-41 37Zm160-289v-60h320v60H600Z"/></svg>