<svg xmlns="http://www.w3.org/2000/svg" width="48" height="48" viewBox="0 -960 960 960"><path d="M160-160v-400l-84 64-36-48 440-337 440 337-34 46q-41-28-89.5-32.5T700-512q-57-26-113.5-16T486-474q-44 44-54 100.5T448-260q-11 25-15.5 50t-2.5 50H160Zm540 83q-44 30-90.5 27T528-88q-35-35-38-82t27-90q-30-44-27-90.5t38-81.5q35-35 82-38t90 27q44-30 90.5-27t81.5 38q35 35 38 82t-27 90q30 44 27 90.5T872-88q-35 35-82 38t-90-27Zm28.5-154.5Q740-243 740-260t-11.5-28.5Q717-300 700-300t-28.5 11.5Q660-277 660-260t11.5 28.5Q683-220 700-220t28.5-11.5Z"/></svg>