<svg xmlns="http://www.w3.org/2000/svg" width="48" height="48"><path d="M24 44q0-3.5 1.5-6.75t4-5.75q2.5-2.5 5.75-4T42 26q0 3.5-1.5 6.75t-4 5.75q-2.5 2.5-5.75 4T24 44zm0 0q0-3.5-1.5-6.75t-4-5.75q-2.5-2.5-5.75-4T6 26q0 3.5 1.5 6.75t4 5.75q2.5 2.5 5.75 4T24 44zm0-16.2q-2 0-3.3-1.3-1.3-1.3-1.3-3.3v-.45q-.5.4-1.1.675-.6.275-1.4.275-2 0-3.3-1.3-1.3-1.3-1.3-3.3 0-1.35.75-2.525Q13.8 15.4 15 14.9q-1.2-.5-1.95-1.675T12.3 10.7q0-2 1.3-3.3 1.3-1.3 3.3-1.3.8 0 1.4.25.6.25 1.1.7V6.6q0-2 1.3-3.3Q22 2 24 2q2 0 3.3 1.3 1.3 1.3 1.3 3.3v.45q.5-.45 1.1-.7.6-.25 1.4-.25 2 0 3.3 1.3 1.3 1.3 1.3 3.3 0 1.35-.725 2.525Q34.25 14.4 33 14.9q1.25.5 1.975 1.675.725 1.175.725 2.525 0 2-1.3 3.3-1.3 1.3-3.3 1.3-.8 0-1.4-.275-.6-.275-1.1-.675v.45q0 2-1.3 3.3-1.3 1.3-3.3 1.3zm0-7.3q2.4 0 4-1.6t1.6-4q0-2.4-1.6-4t-4-1.6q-2.4 0-4 1.6t-1.6 4q0 2.4 1.6 4t4 1.6z"/></svg>