<svg xmlns="http://www.w3.org/2000/svg" width="48" height="48" viewBox="0 96 960 960"><path d="M224.118 895Q175 895 140.5 861 106 827 106 776.912H40V256h639v167h105l136 181v173h-71q0 50-34.382 84-34.383 34-83.5 34Q682 895 647.5 861 613 827 613 777H342q0 50-34.382 84-34.383 34-83.5 34ZM224 835q24 0 41-17t17-41q0-24-17-41t-41-17q-24 0-41 17t-17 41q0 24 17 41t41 17ZM100 717h22q17-27 43.041-43 26.041-16 58-16t58.459 16.5Q308 691 325 717h294V316H100v401Zm631 118q24 0 41-17t17-41q0-24-17-41t-41-17q-24 0-41 17t-17 41q0 24 17 41t41 17Zm-52-204h186L754 483h-75v148ZM360 516Z"/></svg>