<svg xmlns="http://www.w3.org/2000/svg" width="48" height="48" viewBox="0 -960 960 960"><path d="M80-80v-620h202l89-100h79q-3 15-5 32t-2 33q0 21 4.5 46.5T463-640H140v500h680v-285q14-14 30-31t30-34v410H80Zm390-125q66 0 127.5-46.5T653-395q-18-17-40-36.5T571-471q13 17 18.5 37t5.5 44q0 52-36.5 88.5T470-265q-52 0-88.5-36.5T345-390q0-52 36.5-88.5T470-515q29 0 54 11t47 33q-20-25-38.5-50.5T497-573q-97-4-154.5 47.5T285-390q0 79 53 132t132 53Zm250-213q109-93 163-172t54-147q0-103-65.5-163T720-960q-86 0-151.5 60T503-737q0 68 54 147t163 172Zm0-78q-102-96-129.5-154.5T563-737q0-80 50-121.5T720-900q57 0 107 41.5T877-737q0 28-27.5 86.5T720-496Zm-59-153 59-45 60 45-23-73 60-49h-73l-24-72-24 72h-73l60 49-22 73ZM480-390Zm240-332Z"/></svg>