<svg xmlns="http://www.w3.org/2000/svg" width="48" height="48" viewBox="0 -960 960 960"><path d="M753-249q27.917 0 47.458-19.559Q820-288.118 820-316.059T800.458-363Q780.917-382 753-382q-27.5 0-46.75 19.353t-19.25 47Q687-288 706.25-268.5T753-249Zm-.214 133Q786-116 815-131.5t47-42.5q-26-14-53-22.5t-56-8.5q-29 0-56 8.5T644-174q18 27 46.786 42.5 28.785 15.5 62 15.5ZM753-46q-79 0-136-57t-57-136q0-79 57-136t136-57q79 0 136 57t57 136q0 79-57 136T753-46ZM350-634h260v-93q0-55.417-37.882-94.208-37.883-38.792-92-38.792Q426-860 388-821.208 350-782.417 350-727v93ZM557-80H160v-554h130v-93q0-80.095 55.606-136.547Q401.212-920 480.106-920T614.5-863.547Q670-807.095 670-727v93h130v147q-15-3.5-30-4.75t-30-.25q-102 4-171 77t-69 176q0 44 15 84.5T557-80Z"/></svg>