<svg xmlns="http://www.w3.org/2000/svg" width="48" height="48" viewBox="0 96 960 960"><path d="M314 853V689l132 82-132 82Zm206-382q-45.833 0-77.917-32.118-32.083-32.117-32.083-78Q410 315 442.083 283q32.084-32 77.917-32h40v40h-40q-29.167 0-49.583 20.382Q450 331.765 450 360.882 450 390 470.417 410.5 490.833 431 520 431h40v40h-40Zm120 0v-40h40q29.167 0 49.583-20.382Q750 390.235 750 361.118 750 332 729.583 311.5 709.167 291 680 291h-40v-40h40q45.833 0 77.917 32.118 32.083 32.117 32.083 78Q790 407 757.917 439 725.833 471 680 471h-40Zm-110-90v-40h140v40H530Zm123 265v-80h207V196H340v370h-60V136h640v510H653ZM40 1016V526h640v490H40Zm60-60h520V586H100v370Zm500-575ZM360 771Z"/></svg>