<svg xmlns="http://www.w3.org/2000/svg" width="48" height="48" viewBox="0 -960 960 960"><path d="M328-454q-29-31-29-75v-251q0-42 29.5-71t71.5-29q42 0 71.5 29t29.5 71v251q0 44-29 75t-72 31q-43 0-72-31Zm101.5-42.5Q441-510 441-529v-251q0-17-12-28.5T400-820q-17 0-29 11.5T359-780v251q0 19 11.5 32.5T400-483q18 0 29.5-13.5ZM430-120h-60v-136q-106-11-178-89t-72-184h60q0 91 64.5 153T400-314q8 0 15-.5t15-1.5v196Zm-30-532ZM660-63l-5-48q-21-6-40-17t-35-26l-42 20-35-54 38-30q-6-20-6-41.5t6-41.5l-38-30 35-55 42 20q17-14 35.5-25t39.5-17l5-49h60l6 49q21 6 39.5 17t35.5 25l42-20 35 55-38 30q6 20 6 41.5t-6 41.5l38 30-35 54-42-20q-16 15-35 26t-40 17l-6 48h-60Zm102-125q30-30 30-72t-30-72q-30-30-72-30t-72 30q-30 30-30 72t30 72q30 30 72 30t72-30Z"/></svg>