<svg xmlns="http://www.w3.org/2000/svg" width="48" height="48" viewBox="0 -960 960 960"><path d="M618-433v-237h60l162 162v297l-60-60v-211L678-584v211l-60-60Zm29 393q-23 0-44.5-9T566-76L369-311l62-64 271 111 128 128q-17 42-54.5 69T690-40h-43Zm-29-630v-150H231l-61-60h508v210h-60Zm30 570h42q19 0 35-7t29-19l-73-73-224-102 152 183q7 9 17.5 13.5T648-100ZM424-646Zm68 257ZM881-86l-43 43-618-618v521h292l50 60H160v-641L31-850l43-43L881-86ZM440.5-688.5Q449-697 449-710t-8.5-21.5Q432-740 419-740t-21.5 8.5Q389-723 389-710t8.5 21.5Q406-680 419-680t21.5-8.5Z"/></svg>