<svg xmlns="http://www.w3.org/2000/svg" width="48" height="48" viewBox="0 96 960 960"><path d="M480.235 676Q522 676 551 646.765q29-29.236 29-71Q580 534 550.765 505q-29.236-29-71-29Q438 476 409 505.235q-29 29.236-29 71Q380 618 409.235 647q29.236 29 71 29Zm.031 300q-82.734 0-155.5-31.5t-127.266-86q-54.5-54.5-86-127.341Q80 658.319 80 575.5q0-82.819 31.5-155.659Q143 347 197.5 293t127.341-85.5Q397.681 176 480.5 176q82.819 0 155.659 31.5Q709 239 763 293t85.5 127Q880 493 880 575.734q0 82.734-31.5 155.5T763 858.316q-54 54.316-127 86Q563 976 480.266 976Z"/></svg>