<svg xmlns="http://www.w3.org/2000/svg" width="48" height="48" viewBox="0 0 48 48"><path d="M24 24.1q-.65 0-1.075-.425-.425-.425-.425-1.075V5.3q0-.65.425-1.075Q23.35 3.8 24 3.8q.65 0 1.075.425.425.425.425 1.075v17.3q0 .65-.425 1.075-.425.425-1.075.425Zm0 18q-3.75 0-7.025-1.425-3.275-1.425-5.7-3.85-2.425-2.425-3.85-5.7Q6 27.85 6 24.1q0-3.2 1.125-6.175Q8.25 14.95 10.35 12.55q.45-.5 1.1-.525.65-.025 1.15.475.4.4.325 1.025-.075.625-.475 1.125-1.7 1.95-2.575 4.4Q9 21.5 9 24.1q0 6.25 4.375 10.625T24 39.1q6.25 0 10.625-4.375T39 24.1q0-2.65-.875-5.075Q37.25 16.6 35.55 14.6q-.4-.5-.45-1.1-.05-.6.35-1 .5-.5 1.2-.45.7.05 1.15.6 2.1 2.4 3.15 5.35Q42 20.95 42 24.1q0 3.75-1.425 7.025-1.425 3.275-3.85 5.7-2.425 2.425-5.7 3.85Q27.75 42.1 24 42.1Z"/></svg>