<svg xmlns="http://www.w3.org/2000/svg" width="48" height="48" viewBox="0 0 48 48"><path d="M18 14.6q-2.5 1.45-4.05 3.9-1.55 2.45-1.75 5.45L10.95 39H37.1l-1.3-15.1q-.2-3-1.75-5.425T30 14.6V20q0 2.5-1.75 4.25T24 26q-2.5 0-4.25-1.75T18 20Zm6 8.4q1.25 0 2.125-.875T27 20v-8q0-1.25-.875-2.125T24 9q-1.25 0-2.125.875T21 12v8q0 1.25.875 2.125T24 23Zm0-17q2.3 0 3.975 1.5Q29.65 9 29.95 11.25q3.7 1.6 6.125 4.85 2.425 3.25 2.725 7.5L40.4 42H7.6l1.6-18.4q.3-4.25 2.725-7.5 2.425-3.25 6.125-4.85.3-2.25 1.975-3.75T24 6Z"/></svg>