<svg xmlns="http://www.w3.org/2000/svg" width="48" height="48" viewBox="0 96 960 960"><path d="M480 976q-83 0-156-31.5T197 859q-54-54-85.5-127T80 576q0-83 31.5-156T197 293q54-54 127-85.5T480 176q83 0 156 31.5T763 293q54 54 85.5 127T880 576q0 83-31.5 156T763 859q-54 54-127 85.5T480 976Zm-.221-60Q621 916 720.5 816.721t99.5-240.5Q820 435 720.721 335.5t-240.5-99.5Q339 236 239.5 335.279t-99.5 240.5Q140 717 239.279 816.5q99.28 99.5 240.5 99.5Zm.044-200Q422 716 381 674.823q-41-41.177-41-99T381.177 477q41.177-41 99-41T579 477.177q41 41.177 41 99T578.823 675q-41.177 41-99 41Z"/></svg>