<svg xmlns="http://www.w3.org/2000/svg" width="48" height="48" viewBox="0 -960 960 960"><path d="m704-139 139-138-42-42-97 95-39-39-42 43 81 81ZM240-620h480v-60H240v60ZM732.5-41Q655-41 600-96.5T545-228q0-78.435 54.99-133.717Q654.98-417 733-417q77 0 132.5 55.283Q921-306.435 921-228q0 76-55.5 131.5T732.5-41ZM120-81v-759h720v387q-25-11-51.522-17-26.521-6-53.478-6v-34H240v60h384q-36 18-64.5 46.5T513-340H240v60h252q-3 13-4.5 26t-1.5 27q0 29 6.5 58t20.5 55l-33 33-60-59.921L360-81l-60-59.921L240-81l-60-59.921L120-81Z"/></svg>