<svg xmlns="http://www.w3.org/2000/svg" width="48" height="48"><path d="M8 42V21.95l-4.2 3.2-1.8-2.4L24 6l22 16.8-1.8 2.35-4.2-3.2V42zm3-3h26V19.65l-13-9.9-13 9.9zm0 0h26-26zm5-9q-.85 0-1.425-.575Q14 28.85 14 28q0-.85.575-1.425Q15.15 26 16 26q.85 0 1.425.575Q18 27.15 18 28q0 .85-.575 1.425Q16.85 30 16 30zm8 0q-.85 0-1.425-.575Q22 28.85 22 28q0-.85.575-1.425Q23.15 26 24 26q.85 0 1.425.575Q26 27.15 26 28q0 .85-.575 1.425Q24.85 30 24 30zm8 0q-.85 0-1.425-.575Q30 28.85 30 28q0-.85.575-1.425Q31.15 26 32 26q.85 0 1.425.575Q34 27.15 34 28q0 .85-.575 1.425Q32.85 30 32 30z"/></svg>