<svg xmlns="http://www.w3.org/2000/svg" width="48" height="48" viewBox="0 96 960 960"><path d="m197 1027-51-32 198-301q-75-29-121.5-90.5T168 461h546q-8 81-56 142t-120 90l58 90q-14 7-27 16t-21 20l-71-110q-8 2-37 2h-18q-10 0-17-2L294 879h253q10-36 38.5-59t65.5-23q46 0 78 32t32 78q0 46-32 78t-78 32q-36 0-65-21.5T547 939H254l-57 88Zm454-70q21 0 35.5-14.5T701 907q0-21-14.5-35.5T651 857q-21 0-35.5 14.5T601 907q0 21 14.5 35.5T651 957ZM365 423q5-28-1.5-49T334 322q-22-29-28-51.5t-1-54.5h30q-3 33 3 52.5t27 47.5q20 28 27 51.5t3 55.5h-30Zm77 0q3-36-3-55.5T412 322q-22-28-28.5-51t-1.5-55h30q-5 26 1 47t29 53q20 27 26.5 51t3.5 56h-30Zm76 0q4-35-2-55t-27-46q-23-29-29.5-52t-1.5-54h30q-5 26 1.5 47t29.5 53q20 26 26.5 50t2.5 57h-30Z"/></svg>