<svg xmlns="http://www.w3.org/2000/svg" width="48" height="48" viewBox="0 -960 960 960"><path d="M480-80q-82 0-155-31.5t-127.5-86Q143-252 111.5-325T80-480q0-83 31.5-156t86-127Q252-817 325-848.5T480-880q83 0 156 31.5T763-763q54 54 85.5 127T880-480q0 29-4 58t-12 56q-11-11-24.5-19T810-397q5-20 7.5-40.5T820-480q0-142-99-241t-241-99q-141 0-240.5 99T140-480q0 141 99.5 240.5T480-140q58 0 110-18.5t95-50.5q10 12 22 22t26 16q-52 43-116.5 67T480-80Zm271.5-172.5Q740-264 740-281t11.5-28.5Q763-321 780-321t28.5 11.5Q820-298 820-281t-11.5 28.5Q797-241 780-241t-28.5-11.5ZM627-287 453-468v-225h60v201l159 160-45 45Z"/></svg>