<svg xmlns="http://www.w3.org/2000/svg" width="48" height="48" viewBox="0 96 960 960"><path d="M450 286V136h60v150h-60Zm256 106-42-43 106-106 42 43-106 106Zm64 214v-60h150v60H770Zm1 302L665 802l43-43 106 106-43 43ZM254 392 148 286l42-42 106 106-42 42Zm-14 484h180q33.333 0 56.667-23.265Q500 829.471 500 796.235 500 763 477.237 739 454.475 715 421 715h-44l-18-41q-15.145-35.75-47.6-56.875T240 596q-58.333 0-99.167 40.765-40.833 40.764-40.833 99Q100 794 140.833 835q40.834 41 99.167 41Zm0 60q-83 0-141.5-58.5T40 736q0-83 58.5-141.5T240 536q57.736 0 105.368 32.5T416 655q60.117 0 101.058 43.589Q558 742.178 558 803q-5 56-44.033 94.5Q474.935 936 420 936H240Zm318-133q-3-15.385-6-30t-6-30q52-20 83-65.538 31-45.539 31-101.324Q660 501 607.5 448.5T480 396q-67.215 0-117.627 42.674Q311.962 481.348 303 547q-16-3-31.5-5.5T240 536q14-88 82.5-144T480 336q100 0 170 70t70 170.342Q720 654 675.5 716 631 778 558 803Zm-77-227Z"/></svg>