<svg xmlns="http://www.w3.org/2000/svg" width="48" height="48" viewBox="0 96 960 960"><path d="M226 896q-27.225 0-46.613-19.341Q160 857.319 160 830.159 160 803 179.387 783.5 198.775 764 226 764q5 0 9.5.5t9.5 2.5l172-172q-6-17-1.305-34.901 4.695-17.902 17.5-31Q446 516 464 511.5t35 1.5l171-171q-1-5-1.5-10t-.5-10q0-27.225 19.341-46.612Q706.681 256 733.841 256 761 256 780.5 275.341q19.5 19.34 19.5 46.5Q800 349 780.612 368.5 761.225 388 734 388q-7 0-21-2L543 556q5 18 1 36t-17.065 31.065Q513 637 495 640.5q-18 3.5-37-1.5L297 800h124q8-17 23.949-26.5 15.95-9.5 34.557-9.5Q499 764 515 773.5t24 26.5h136q9.271-17.1 24.864-26.55T734 764q27.225 0 46.612 19.341Q800 802.681 800 829.841 800 857 780.612 876.5 761.225 896 734 896q-19.017 0-35.008-9.5Q683 877 675 860H539q-8 17-23.992 26.5Q499.017 896 480 896q-18.789 0-34.895-9.5Q429 877 421 860H285q-8 17-24.105 26.5Q244.789 896 226 896Zm.159-254Q199 642 179.5 622.659q-19.5-19.34-19.5-46.5Q160 549 179.341 529.5q19.34-19.5 46.5-19.5Q253 510 272.5 529.341q19.5 19.34 19.5 46.5Q292 603 272.659 622.5q-19.34 19.5-46.5 19.5Zm0-254Q199 388 179.5 368.659q-19.5-19.34-19.5-46.5Q160 295 179.341 275.5q19.34-19.5 46.5-19.5Q253 256 272.5 275.341q19.5 19.34 19.5 46.5Q292 349 272.659 368.5q-19.34 19.5-46.5 19.5Zm254 0Q453 388 433.5 368.659q-19.5-19.34-19.5-46.5Q414 295 433.341 275.5q19.34-19.5 46.5-19.5Q507 256 526.5 275.341q19.5 19.34 19.5 46.5Q546 349 526.659 368.5q-19.34 19.5-46.5 19.5Zm254 254Q707 642 687.5 622.659q-19.5-19.34-19.5-46.5Q668 549 687.341 529.5q19.34-19.5 46.5-19.5Q761 510 780.5 529.341q19.5 19.34 19.5 46.5Q800 603 780.659 622.5q-19.34 19.5-46.5 19.5Z"/></svg>