<svg xmlns="http://www.w3.org/2000/svg" width="48" height="48" viewBox="0 -960 960 960"><path d="M403-763q13-1 22.5-1.5t22.5-.5q13 0 22.5.5T493-763v-2q0-20-12.5-35T448-815q-20 0-32.5 15T403-765v2ZM168-75v-410q0-88 49-158.5T343-746v-19q0-44 30.5-77t74.5-33q44 0 74.5 33t30.5 77v19q72 29 122.5 96.5T728-487q-14-1-30.5-1.5T668-489q-5-99-71.5-157.5T448.44-705q-91.48 0-155.96 64.35T228-485v350h229q3 14 13 31t23 29H168Zm90-340h250q17-18 37.5-33.5T594-475H258v60Zm574.5 42.5Q889-316 889-235T832.5-97.5Q776-41 695-41T557.5-97.5Q501-154 501-235t56.5-137.5Q614-429 695-429t137.5 56.5ZM716-119.11q8-8.11 8-20T715.89-159q-8.11-8-20-8T676-158.89q-8 8.11-8 20t8.11 19.89q8.11 8 20 8t19.89-8.11ZM676-193h40v-10.95q0-12.05 6.5-22.05t15.23-18.4Q753-257 762.5-269.5 772-282 772-302q0-31.72-21.3-50.86Q729.41-372 695.78-372 670-372 649-357.5t-29 39.99L656-302q2-14 13.5-23.5t26.95-9.5q16.55 0 26.05 8.25T732-302q0 11-7 19.5T710-266q-8 7-15.5 14T682-237q-4 7-5 13.3-1 6.3-1 14.7v16ZM508-415Z"/></svg>