<svg xmlns="http://www.w3.org/2000/svg" width="48" height="48" viewBox="0 0 48 48"><path d="M42.5 46.6 1.4 4.8l2.1-2.1 41.15 41.8ZM10 11.4l3 3.05V38.5h21.65l3.3 3.35L38 46H10Zm3 30.1V43h22v-1.5Zm0-33.4V6.5h22V5H13v3.1l-3-3V2h28v10.3h-3V9.5H14.4Zm0 33.4V43v-1.5Zm24.35-11.35-2.1-2.1q.85-.85 1.3-1.925Q37 25.05 37 23.9q0-1.15-.425-2.25T35.3 19.7l2.05-2.1q1.25 1.25 1.95 2.875t.7 3.375q0 1.75-.7 3.4t-1.95 2.9Zm4.2 4.2-2.05-2.1q1.65-1.65 2.575-3.8.925-2.15.925-4.5 0-2.4-.975-4.55t-2.875-3.6l2.3-2.3q2.2 2.05 3.375 4.75Q46 20.95 46 23.95t-1.15 5.675q-1.15 2.675-3.3 4.725ZM35 5v1.5Z"/></svg>