<svg xmlns="http://www.w3.org/2000/svg" width="48" height="48" viewBox="0 96 960 960"><path d="M400.059 781Q423 781 439 764.941q16-16.059 16-39T438.941 687q-16.059-16-39-16T361 687.059q-16 16.059-16 39T361.059 765q16.059 16 39 16ZM160 976v-40l60-40q-59 0-99.5-40.5T80 756V376q0-85 78.5-122.5T400 216q17 0 49 1t50 3q-10 18-13.5 28.5T477 278q-11 0-37.5-1t-37.5-1q-95 0-161.5 13T151 336h319q0 17 1.5 30.5T476 396H140v155h448q14 10 30.5 17t41.5 13v30H140v145q0 35 23 60.5t57 25.5h360q34 0 57-25.5t23-60.5V581q12 3 28.258 5T720 588v168q0 59-40.5 99.5T580 896l60 40v40H160Zm560-440q-83 0-141.5-58.5T520 336q0-83 58.5-141.5T720 136q83 0 141.5 58.5T920 336q0 83-58.5 141.5T720 536Zm-140 75H140h520-80ZM151 336h319-319Zm563 23h34V210h-34v149Zm17 89q9.6 0 16.8-7.2 7.2-7.2 7.2-16.8 0-9.6-7.2-16.8-7.2-7.2-16.8-7.2-9.6 0-16.8 7.2-7.2 7.2-7.2 16.8 0 9.6 7.2 16.8 7.2 7.2 16.8 7.2Z"/></svg>