<svg xmlns="http://www.w3.org/2000/svg" width="48" height="48" viewBox="0 -960 960 960"><path d="M140-724h299-299Zm520 293H140h520ZM160-80v-40l60-40q-58 0-99-41t-41-99v-398q0-77 85.5-107.5T469-836q-9 14-17 29t-13 31q-152 2-218.5 14T140-724h286q-2 15-2.5 30t1.5 30H140v173h373q24 22 54 37t62 23H140v131q0 33 23.5 56.5T220-220h360q33 0 56.5-23.5T660-300v-126q15 2 30 2t30-2v126q0 58-41 99t-99 41l60 40v40H160Zm529-418q-79 0-135-56t-56-135q0-79 56-135t135-56q80 0 135.5 55.5T880-689q0 80-56 135.5T689-498Zm-15-161h35v-143h-35v143Zm18 85q9 0 15.5-6t6.5-16q0-10-6.5-16t-15.5-6q-11 1-16.5 7t-5.5 15q0 10 6 16t16 6ZM439-288q16-16 16-39t-16-39q-16-16-39-16t-39 16q-16 16-16 39t16 39q16 16 39 16t39-16Z"/></svg>