<svg xmlns="http://www.w3.org/2000/svg" width="48" height="48" viewBox="0 96 960 960"><path d="M40 856V296h560v560H40Zm284-60Zm-224-52q49-32 105.5-48T320 680q58 0 114.5 16T540 744V356H100v388Zm600 112V296h60v560h-60Zm160 0V296h60v560h-60ZM320 627q-46 0-78.5-32.5T209 516q0-46 32.5-78.5T320 405q46 0 78.5 32.5T431 516q0 46-32.5 78.5T320 627Zm0-111ZM130 796h380q-43-29-92-42.5T320 740q-53 0-101 13.5T130 796Zm189.5-222q24.5 0 41.5-16.5t17-41q0-24.5-16.917-41.5-16.916-17-41.083-17-25 0-41.5 16.917Q262 491.833 262 516q0 25 16.5 41.5t41 16.5Z"/></svg>