<svg xmlns="http://www.w3.org/2000/svg" width="48" height="48" viewBox="0 -960 960 960"><path d="M160-330v-590h360v180q0 30.423 13.5 55.211Q547-660 576-652l224 56v266H160Zm60-60h520v-158l-181-47q-38-11-57.5-34.5T471-685H361v-30h101q-2-13-2-24.5V-765h-99v-30h99v-65H220v470Zm0 0ZM190-40q-45 0-77.5-32.5t-32.5-78q0-45.5 32.5-77.5t78-32q45.5 0 77.5 32.083 32 32.084 32 77.917 0 45-32.083 77.5Q235.833-40 190-40Zm.5-60q20.5 0 35-15t14.5-35.5q0-20.5-14.375-35T190-200q-20 0-35 14.375T140-150q0 20 15 35t35.5 15ZM770-40q-45 0-77.5-32.5t-32.5-78q0-45.5 32.5-77.5t78-32q45.5 0 77.5 32.083 32 32.084 32 77.917 0 45-32.083 77.5Q815.833-40 770-40Zm.5-60q20.5 0 35-15t14.5-35.5q0-20.5-14.375-35T770-200q-20 0-35 14.375T720-150q0 20 15 35t35.5 15ZM480-40q-45 0-77.5-32.5t-32.5-78q0-45.5 32.5-77.5t78-32q45.5 0 77.5 32.083 32 32.084 32 77.917 0 45-32.083 77.5Q525.833-40 480-40Zm.5-60q20.5 0 35-15t14.5-35.5q0-20.5-14.375-35T480-200q-20 0-35 14.375T430-150q0 20 15 35t35.5 15ZM190-150Zm290 0Zm290 0Z"/></svg>