<svg xmlns="http://www.w3.org/2000/svg" width="48" height="48" viewBox="0 -960 960 960"><path d="M194.956-120Q164-120 142-142.044q-22-22.045-22-53Q120-226 142.044-248q22.045-22 53-22Q226-270 248-247.956q22 22.045 22 53Q270-164 247.956-142q-22.045 22-53 22ZM710-120q0-123-46-229.5T537-537q-81-81-187.575-127Q242.85-710 120-710v-90q142 0 265 53t216 146q93 93 146 216t53 265h-90Zm-258 0q0-70-25.798-131.478Q400.404-312.956 355-360q-45-47-105.027-73.5Q189.945-460 120-460v-90q89 0 165.5 33.5t133.643 92.425q57.143 58.924 90 137Q542-209 542-120h-90Z"/></svg>