<svg xmlns="http://www.w3.org/2000/svg" width="48" height="48" viewBox="0 96 960 960"><path d="M480 639q-67 0-121.5 37.5T278 776h404q-25-63-80-100t-122-37Zm-183-72 50-45 45 45 31-36-45-45 45-45-31-36-45 45-50-45-31 36 45 45-45 45 31 36Zm272 0 44-45 51 45 31-36-45-45 45-45-31-36-51 45-44-45-31 36 44 45-44 45 31 36Zm-89 409q-83 0-156-31.5T197 859q-54-54-85.5-127T80 576q0-83 31.5-156T197 293q54-54 127-85.5T480 176q83 0 156 31.5T763 293q54 54 85.5 127T880 576q0 83-31.5 156T763 859q-54 54-127 85.5T480 976Z"/></svg>