<svg xmlns="http://www.w3.org/2000/svg" width="48" height="48" viewBox="0 96 960 960"><path d="M534 604q-11 0-19.5-8.5T506 576q0-11 8.5-19.5T534 548q11 0 19.5 8.5T562 576q0 11-8.5 19.5T534 604Zm-216 0q-11 0-19.5-8.5T290 576q0-11 8.5-19.5T318 548q11 0 19.5 8.5T346 576q0 11-8.5 19.5T318 604Zm324 0q-11 0-19.5-8.5T614 576q0-11 8.5-19.5T642 548q11 0 19.5 8.5T670 576q0 11-8.5 19.5T642 604Zm-216 0q-11 0-19.5-8.5T398 576q0-11 8.5-19.5T426 548q11 0 19.5 8.5T454 576q0 11-8.5 19.5T426 604ZM40 856V296h880v560H40Zm150-60h580V356H190v440Z"/></svg>