<svg xmlns="http://www.w3.org/2000/svg" width="48" height="48" viewBox="0 -960 960 960"><path d="M760-80H80v-427l374-241 54 54-84 134h376v60H480v80h400v60H480v80h360v60H480v80h280v60ZM587.5-677.6Q570-695.2 570-720.1t17.6-42.4q17.6-17.5 42.5-17.5t42.4 17.6q17.5 17.6 17.5 42.5t-17.6 42.4Q654.8-660 629.9-660t-42.4-17.6Zm77-157.02q-14.5-14.62-14.5-35.5 0-20.88 14.62-35.38 14.62-14.5 35.5-14.5 20.88 0 35.38 14.62 14.5 14.62 14.5 35.5 0 20.88-14.62 35.38-14.62 14.5-35.5 14.5-20.88 0-35.38-14.62Zm126 154.03q-20.5-20.59-20.5-49.5t20.59-49.41q20.59-20.5 49.5-20.5t49.41 20.59q20.5 20.59 20.5 49.5t-20.59 49.41q-20.59 20.5-49.5 20.5t-49.41-20.59Z"/></svg>