<svg xmlns="http://www.w3.org/2000/svg" width="48" height="48" viewBox="0 0 48 48"><path d="m38.2 28.55 2.15-2.15q-2.25-2.45-3.55-5.5-1.3-3.05-1.3-6.35t1.325-6.325Q38.15 5.2 40.4 2.75L38.25.6q-2.7 2.85-4.225 6.45-1.525 3.6-1.525 7.5t1.5 7.525q1.5 3.625 4.2 6.475Zm7.05-7.1 2.1-2.1q-.85-1-1.35-2.225-.5-1.225-.5-2.525 0-1.3.475-2.55.475-1.25 1.375-2.25l-2.1-2.15q-1.35 1.4-2.05 3.2-.7 1.8-.7 3.7 0 1.9.725 3.675t2.025 3.225ZM20 25.95q-3.3 0-5.4-2.1-2.1-2.1-2.1-5.4 0-3.3 2.1-5.4 2.1-2.1 5.4-2.1 3.3 0 5.4 2.1 2.1 2.1 2.1 5.4 0 3.3-2.1 5.4-2.1 2.1-5.4 2.1ZM4 42v-4.7q0-1.9.95-3.225Q5.9 32.75 7.4 32q2.55-1.3 6.025-2.15Q16.9 29 20 29t6.55.85q3.45.85 6 2.15 1.5.75 2.475 2.075Q36 35.4 36 37.3V42Zm3-3h26v-1.7q0-.8-.425-1.475T31.35 34.7q-2.4-1.35-5.45-2.025Q22.85 32 20 32q-2.85 0-5.925.725Q11 33.45 8.6 34.7q-.7.35-1.15 1.075Q7 36.5 7 37.3Zm13-16.05q1.95 0 3.225-1.275Q24.5 20.4 24.5 18.45q0-1.95-1.275-3.225Q21.95 13.95 20 13.95q-1.95 0-3.225 1.275Q15.5 16.5 15.5 18.45q0 1.95 1.275 3.225Q18.05 22.95 20 22.95Zm0-4.5ZM20 39Z"/></svg>