<svg xmlns="http://www.w3.org/2000/svg" width="48" height="48" viewBox="0 -960 960 960"><path d="M480-449q65 0 110-45.24 45-45.23 45-108.76 0-65-45-110.5T480.5-759q-64.5 0-110 45.5t-45.5 110q0 64.5 45.53 109.5T480-449Zm.13-60Q441-509 413-536.61q-28-27.61-28-66.39 0-39.6 27.87-67.8 27.86-28.2 67-28.2Q519-699 547-670.92q28 28.07 28 67.5 0 39.42-27.87 66.92-27.86 27.5-67 27.5Zm.37 182q12.5 0 21-8.63 8.5-8.62 8.5-21.37 0-12-8.62-21-8.63-9-21.38-9-12 0-21 9t-9 21.5q0 12.5 9 21t21.5 8.5ZM647-80H314v-60h41q31.72 0 55.86-18T445-203H200v-677h560v677H515q10 27 34.14 45T605-140h42v60Z"/></svg>