<svg xmlns="http://www.w3.org/2000/svg" width="48" height="48" viewBox="0 -960 960 960"><path d="m744-846 30-52q40 23 63 62.5t23 85.5q0 23-6 44.5T837-665l-52-30q7-12 11-26t4-29q0-30-15-56t-41-40Zm-170 0 30-52q40 23 63 62.5t23 85.5q0 23-6 44.5T667-665l-52-30q7-12 11-26t4-29q0-30-15-56t-41-40ZM800-80H381L127-403l52-57 141 75v-395h60v260h420v440ZM203-665q-11-19-17-40.5t-6-44.5q0-71 49.5-120.5T350-920q71 0 120.5 49.5T520-750q0 23-6 44.5T497-665l-52-30q7-12 11-26t4-29q0-46-32-78t-78-32q-46 0-78 32t-32 78q0 15 4 29t11 26l-52 30Z"/></svg>