<svg xmlns="http://www.w3.org/2000/svg" width="48" height="48" viewBox="0 -960 960 960"><path d="M349.88-939q79.12 0 134.62 55.38Q540-828.23 540-749.11q0 26.11-7 50.11t-19 45l-35-20q10.08-16.67 15.54-35.83Q500-729 500-749q0-62.5-43.75-106.25T350-899q-62.5 0-106.25 43.75T200-749q0 20.42 5 39.21T220-674l-35 20q-12-21-18.5-45.05-6.5-24.06-6.5-50.08 0-78.87 55.38-134.37t134.5-55.5Zm.3 80q44.82 0 77.32 32 32.5 32 32.5 77.68 0 15.75-4 29.54Q452-706 445-694l-36-20q5-8 7.5-16.5t2.5-18.17q0-29.01-20.56-49.67T349-819q-29 0-49.5 20.66T279-748.67q0 9.67 2 18.17 2 8.5 7 16.5l-31 19q-8-12-12-26t-5-28q2-45 33.3-77.5 31.29-32.5 76.88-32.5ZM800-80H381L127-403l52-57 141 75v-364h60v464l-144-77 175 222h329v-320H460v-60h340v440ZM575-300Z"/></svg>