<svg xmlns="http://www.w3.org/2000/svg" width="48" height="48" viewBox="0 96 960 960"><path d="M680 1016q100 0 170-70t70-170h-60q0 75-52.5 127.5T680 956v60ZM40 376h60q0-75 52.5-127.5T280 196v-60q-100 0-170 70T40 376Zm101 539q-97-97-97-233.5T141 448l212-212 85 85 176-176 84 84 57-57 126 126-43 43 87 87-83 83 85 85-319 319q-98 98-234 97.5T141 915Zm42-42q40 40 89.5 59.5t101 19.5q51.5 0 101-19.5T564 873l276-276-42-42-163 163-43-43 248-248-42-42-218 218-43-43 261-261-42-42-262 262-42-42 205-205-42-42-286 286q21 52 13 105.5T296 717l-42-42q32-37 32-85t-32-85l141-141-42-42-170 170q-40 40-59.5 89.5t-19.5 101q0 51.5 19.5 101T183 873Z"/></svg>