<svg xmlns="http://www.w3.org/2000/svg" width="48" height="48" viewBox="0 0 48 48"><path d="M35.7 48v-9.9h2.05v-1.95q0-1.7 1.2-2.9t2.9-1.2q1.7 0 2.9 1.2t1.2 2.9v1.95H48V48Zm4.05-9.9h4.2v-1.95q0-.85-.625-1.475-.625-.625-1.475-.625-.85 0-1.475.625-.625.625-.625 1.475ZM11.6 30.15 8.45 27q3.15-3.15 7.125-5.075Q19.55 20 24 20q4.45 0 8.425 1.925Q36.4 23.85 39.55 27l-3.15 3.15q-2.55-2.55-5.7-4.1-3.15-1.55-6.7-1.55-3.55 0-6.7 1.55-3.15 1.55-5.7 4.1ZM3.15 21.7 0 18.55q4.8-4.9 10.975-7.725Q17.15 8 24 8q6.85 0 13.025 2.825Q43.2 13.65 48 18.55l-3.15 3.15q-4.3-4.1-9.625-6.65Q29.9 12.5 24 12.5q-5.9 0-11.225 2.55Q7.45 17.6 3.15 21.7ZM24 42.55l-7.4-7.45q1.45-1.45 3.375-2.275T24 32q2.1 0 4.025.825 1.925.825 3.375 2.275Z"/></svg>