<svg xmlns="http://www.w3.org/2000/svg" width="48" height="48"><path d="M24 44q-.65 0-1.175-.375t-.775-1.075q-.95-2.75-2.375-5.2t-3.975-5.8q-2.55-3.3-4.125-6.3Q10 22.25 10 18q0-5.85 4.075-9.925Q18.15 4 24 4q1.15 0 2.275.2t1.925.45v3.2q-.85-.4-2.025-.625Q25 7 24 7q-4.55 0-7.775 3.225Q13 13.45 13 18q0 3.75 1.45 6.3t3.65 5.4q2 2.65 3.3 4.7 1.3 2.05 2.6 4.8 1.3-2.75 2.6-4.8t3.3-4.7q2.2-2.85 3.65-5.425Q35 21.7 35 17.8h3q0 4.7-1.725 7.75t-3.975 6q-2.7 3.6-4.075 5.975Q26.85 39.9 25.95 42.55q-.25.7-.775 1.075T24 44zm0-26zm0 4.5q1.9 0 3.2-1.325Q28.5 19.85 28.5 18q0-1.9-1.3-3.2-1.3-1.3-3.2-1.3-1.85 0-3.175 1.3Q19.5 16.1 19.5 18q0 1.85 1.325 3.175Q22.15 22.5 24 22.5zm9.75-7.1-2.1-2.1 4.2-4.2-4.2-4.2 2.1-2.1 4.2 4.2 4.2-4.2 2.1 2.1-4.2 4.2 4.2 4.2-2.1 2.1-4.2-4.2z"/></svg>