<svg xmlns="http://www.w3.org/2000/svg" width="48" height="48" viewBox="0 96 960 960"><path d="M480 876q0-97-69.5-166.5T244 640q0 97 69.5 166.5T480 876Zm0-220q27 0 43.5-16.5T540 596v-8q8 7 18 9t19 2q27 0 43.5-16.5T637 539q0-20-9-33t-24-24q15-6 24-21.5t9-35.5q0-27-16.5-43.5T577 365q-9 0-19 2t-18 9v-8q0-27-16.5-43.5T480 308q-27 0-43.5 16.5T420 368v8q-8-7-18-9t-19-2q-27 0-43.5 16.5T323 425q0 20 8.5 33.5T356 482q-16 7-24.5 22t-8.5 35q0 27 16.5 43.5T383 599q9 0 19.5-2t17.5-9v8q0 27 16.5 43.5T480 656Zm0-96q-33 0-55.5-22.5T402 482q0-33 22.5-55.5T480 404q33 0 55.5 22.5T558 482q0 33-22.5 55.5T480 560Zm0 316q97 0 166.5-69.5T716 640q-97 0-166.5 69.5T480 876ZM80 976V176h800v800H80Z"/></svg>