<svg xmlns="http://www.w3.org/2000/svg" width="48" height="48" viewBox="0 -960 960 960"><path d="M845.231-65.23 82.154-827.309l22-22.23L866.461-87.231l-21.23 22ZM670-644.693q-40.231 0-68.192-28.577-27.962-28.577-27.962-69.577t28.077-69.077Q630-840 670-840t68.077 28.077q28.077 28.077 28.077 69.077t-27.961 69.577Q710.231-644.692 670-644.692Zm-303.385-42.231L227.923-825.615q10.077-11.847 21.538-19.654 11.462-7.808 23.616-11.654 53.077 13.077 83.077 43.077t30 71q0 16-5.5 30.154t-14.039 25.769ZM480-314.538q-22.846 0-37.962-15.5-15.115-15.5-15.115-38.347V-485q0-8.385 2.462-16.808 2.461-8.423 7.384-15.115l96.308 96.308v52.23q0 22.847-15.115 38.347-15.116 15.5-37.962 15.5ZM466.923-120v-78.154q-65.077-4.923-109.462-53.538-44.384-48.616-44.384-116.693h25.384q0 60.693 40.808 102.885Q420.077-223.308 480-223.308q50.923 0 88.731-32.076 37.808-32.077 48.808-80.77L639-314.692Q623.308-266 583.769-234.307q-39.538 31.692-90.692 36.153V-120h-26.154Zm225.462-320.154Q678-485 645.039-522.654q-32.962-37.654-77.424-56.731 24.539-6.769 50.193-10.923 25.654-4.154 52.192-4.154 41.077 0 81.462 9.462 40.384 9.462 77.769 28.385 25.692 14 38.231 33.461Q880-503.692 880-474v33.846H692.385Zm-612.385 0V-474q0-29.692 12.538-49.154 12.539-19.461 39-33.461 36.616-18.923 77-28.385 40.385-9.462 81.462-9.462 20 0 39.885 2.385 19.884 2.385 38.884 6.385l11.308 12.077q-39.693 20.077-69.385 56.115-29.692 36.039-43.077 77.346H80Z"/></svg>