<svg xmlns="http://www.w3.org/2000/svg" width="48" height="48" viewBox="0 -960 960 960"><path d="M67.077-117.077v-556.846H251l73-83.154h206.154l55.385 58.538v55.385h100.769v100h100.769v426.077h-720Zm359.885-133.692q61.346 0 103.038-41.692 41.693-41.693 41.693-103.039 0-61.346-41.693-102.923Q488.308-540 426.962-540q-61.347 0-102.924 41.577-41.577 41.577-41.577 102.923 0 61.346 41.577 103.039 41.577 41.692 102.924 41.692ZM757.077-631v-82.923h-82.923v-30.769h82.923v-83.154h30.769v83.154H871v30.769h-83.154V-631h-30.769Z"/></svg>