<svg xmlns="http://www.w3.org/2000/svg" width="48" height="48" viewBox="0 -960 960 960"><path d="M464.615-373.923h30.77v-81.692h81.692v-30.77h-81.692v-82.461h-30.77v82.461h-81.692v30.77h81.692v81.692ZM180-210.769v-30.77h81.692v-312.153q0-76.616 49.885-139.654 49.884-63.039 130.115-77.019v-65.02h76.616v65.077q80.231 13.923 130.231 76.962 50 63.038 50 139.654v312.153H780v30.77H180ZM480-95.384q-25.846 0-45.231-18.501-19.384-18.5-19.384-46.115h129.23q0 27.615-18.5 46.115-18.5 18.5-46.115 18.5Z"/></svg>