<svg xmlns="http://www.w3.org/2000/svg" width="48" height="48"><path d="M23.25 23h1.5v-4.25H29v-1.5h-4.25V13h-1.5v4.25H19v1.5h4.25zM24 39.9q-.4 0-.725-.25-.325-.25-.575-.75-.85-1.95-2.075-3.875T17.3 30.3q-2.3-2.95-3.8-5.75T12 18q0-5 3.5-8.5T24 6q5 0 8.5 3.5T36 18q0 4.05-1.6 6.825-1.6 2.775-3.7 5.475-2.2 2.9-3.375 4.775Q26.15 36.95 25.3 38.9q-.25.45-.575.725-.325.275-.725.275zm0-1.95q1.05-2.2 2.25-4.025 1.2-1.825 3.25-4.525 2.15-2.85 3.55-5.325T34.45 18q0-4.35-3.05-7.4-3.05-3.05-7.4-3.05-4.3 0-7.375 3.05T13.55 18q0 3.6 1.4 6.075T18.5 29.4q2.05 2.7 3.25 4.525 1.2 1.825 2.25 4.025zM24 18z"/></svg>