<svg xmlns="http://www.w3.org/2000/svg" width="48" height="48" viewBox="0 -960 960 960"><path d="M296.923-706.154q-25.923 0-44.385-18.462-18.461-18.461-18.461-44.384 0-25.923 18.461-44.616 18.462-18.692 44.385-18.692t44.616 18.692q18.692 18.693 18.692 44.616t-18.692 44.384q-18.693 18.462-44.616 18.462Zm-40.769 496.923-96.539-482.692h31.462L278.846-240h279.692v30.769H256.154Zm514.692 104.616L668.231-282.692H316.077l-57-283q-8-40.616 18.5-68.808 26.5-28.193 62.962-28.193 28.076 0 50 17.5 21.923 17.5 28.153 46.116l49.847 245.384h194.307L797.693-120l-26.847 15.385Z"/></svg>