<svg xmlns="http://www.w3.org/2000/svg" width="48" height="48" viewBox="0 96 960 960"><path d="M733 443.461q-23.557 23.371-52.933 34.878-29.375 11.507-60.682 11.507-31.308 0-60.948-11.528Q528.798 466.79 505 443.461l-75-75q-18.315-18.538-41.674-28.076-23.358-9.539-48.367-9.539-25.009 0-48.338 9.539-23.329 9.538-41.621 28.076l-58 57.231-22.231-22.231 57.231-58q23.761-23.692 52.941-35.038 29.18-11.346 59.966-11.346 30.785 0 59.544 11.346Q428.21 321.769 452 345.461l75 75q19.507 19.382 42.984 28.999 23.478 9.617 48.785 9.617 25.308 0 48.455-9.667 23.147-9.666 42.776-28.949l58-57.231 22.231 22.231-57.231 58ZM733 625q-24.053 23.692-53.565 35.039-29.512 11.346-60.435 11.346-30.923 0-60.435-11.346Q529.053 648.692 505 625l-75-75q-18.315-18.538-41.674-28.077-23.358-9.538-48.367-9.538-25.009 0-48.338 9.538Q268.292 531.462 250 550l-58 57.231L169.769 586 227 527q23.761-23.692 52.941-35.039 29.18-11.346 59.966-11.346 30.785 0 59.544 11.346Q428.21 503.308 452 527l75 75q19.051 19.382 42.487 28.999 23.436 9.616 49.128 9.616 25.693 0 48.724-9.666Q690.371 621.283 710 602l58-57.231L790.231 567 733 625Zm-1 181.539q-24.032 23.692-53.055 35.038-29.022 11.346-59.945 11.346-30.923 0-60.459-11.73-29.536-11.731-53.541-35.424l-76-74.23Q410.685 713 387.326 703.462q-23.358-9.539-48.367-9.539-25.009 0-48.338 9.539Q267.292 713 249 731.539l-58 57.231-21.231-21.231 57.231-59q22.964-23.693 52.165-35.039 29.202-11.346 59.835-11.346 30.287 0 59.69 11.346T452 708.539l75 75q19.629 19.282 42.776 28.949 23.147 9.666 48.455 9.666 25.307 0 48.785-9.617 23.477-9.616 42.984-28.998l58-57.231 21.231 22.231-57.231 58Z"/></svg>