<svg xmlns="http://www.w3.org/2000/svg" width="48" height="48" viewBox="0 96 960 960"><path d="M464.385 754.308h30.769V631.154h122.923v-31.769H495.154V477.231h-30.769v122.154H341.461v31.769h122.924v123.154Zm15.428 180.461q-66.352 0-124.544-24.923-58.192-24.923-101.692-68.153-43.5-43.231-68.539-101.649Q160 681.626 160 615.813q0-66.352 25.038-124.544 25.039-58.192 68.539-101.808 43.5-43.615 101.648-68.538Q413.374 296 479.725 296q65.583 0 123.775 24.923 58.192 24.923 101.808 68.538 43.615 43.616 68.538 101.764 24.923 58.149 24.923 124.5 0 65.814-24.923 124.275-24.923 58.462-68.538 101.693-43.616 43.23-101.764 68.153-58.149 24.923-123.731 24.923ZM231.692 232.846l22 21.231-136.308 134.154-22-22 136.308-133.385Zm495.385 0 137.077 133.385-22 22-136.308-134.154 21.231-21.231Z"/></svg>