<svg xmlns="http://www.w3.org/2000/svg" width="48" height="48" viewBox="0 96 960 960"><path d="M272.308 763.693h516.923V608.385H650.616q-11.077 39.231-44.501 61.192-33.423 21.962-75.346 21.962t-75.351-22.082q-33.428-22.082-44.495-61.072H272.308v155.308Zm258.843-102.924q37.53 0 66.516-23.657 28.987-23.657 28.987-59.497h162.577V246.769H272.308v330.846h162.615q0 35.888 28.948 59.521 28.948 23.633 67.28 23.633ZM241.538 794.462V216H820v578.462H241.538ZM140 896V342.154h30.769v523.077h523.078V896H140Zm132.308-132.307h516.923-516.923Z"/></svg>