<svg xmlns="http://www.w3.org/2000/svg" width="48" height="48" viewBox="0 -960 960 960"><path d="M744.62-192.46v-80h-80v-30.77h80v-80h30.76v80h80v30.77h-80v80h-30.76ZM130.15-547.31l-53.38-53.61Q159.31-678.23 262.92-719 366.54-759.77 480-759.77q113.46 0 217.08 40.77 103.61 40.77 186.15 118.08l-52.61 53.61q-71.93-65.92-162.2-101-90.27-35.07-188.42-35.07-98.15 0-188.42 35.07-90.27 35.08-161.43 101Zm160.77 160.46-50.23-51.23Q289-484 350.96-508.46q61.96-24.46 129.04-24.46 53.08 0 103.31 16.19 50.23 16.19 93.46 45.81-17.54 8.77-33.23 20.3Q627.85-439.08 615-426q-30.85-16.85-65.04-25.88-34.19-9.04-69.96-9.04-53.23 0-101.69 19.15t-87.39 54.92ZM480-194l-84-85.23q16.92-14.77 38.23-23.27Q455.54-311 480-311q20.62 0 38.85 6.19t33.61 16.35q0 4.61 1.16 8.84 1.15 4.24 1.92 8.85L480-194Z"/></svg>