<svg xmlns="http://www.w3.org/2000/svg" width="48" height="48" viewBox="0 96 960 960"><path d="M140 902.154V384.077h162.692V222.154h355.385v324.615H820v355.385H546.077V739.462H413.923v162.692H140Zm30.769-30.769h131.923V739.462H170.769v131.923Zm0-162.693h131.923V577.539H170.769v131.153Zm0-161.923h131.923V414.846H170.769v131.923Zm162.693 161.923h131.153V577.539H333.462v131.153Zm0-161.923h131.153V414.846H333.462v131.923Zm0-162.692h131.153V252.923H333.462v131.154Zm161.923 324.615h131.923V577.539H495.385v131.153Zm0-161.923h131.923V414.846H495.385v131.923Zm0-162.692h131.923V252.923H495.385v131.154Zm162.692 487.308h131.154V739.462H658.077v131.923Zm0-162.693h131.154V577.539H658.077v131.153Z"/></svg>