<svg xmlns="http://www.w3.org/2000/svg" width="48" height="48" viewBox="0 96 960 960"><path d="m840 512.846-17.332-39.514L783.154 456l39.514-17.332L840 399.154l17.332 39.514L896.846 456l-39.514 17.332L840 512.846ZM640 705.308l-40.697-88.611L510.692 576l88.611-40.697L640 446.692l40.697 88.611L769.308 576l-88.611 40.697L640 705.308Zm200 47.538-17.332-39.514L783.154 696l39.514-17.332L840 639.154l17.332 39.514L896.846 696l-39.514 17.332L840 752.846ZM240 976V176h480v181.385h-30.769v-64.462H270.769v566.154h418.462v-64.462H720V976H240Z"/></svg>