<svg xmlns="http://www.w3.org/2000/svg" width="48" height="48" viewBox="0 -960 960 960"><path d="M440-181.538V-215l249.154-249.154 33.462 33.462-249.154 249.154H440Zm303.231-269L709-484.769l26.769-26 33.462 33.461-26 26.77ZM233.692-683.385q-17.615 0-30.269-12.653-12.654-12.654-12.654-30.27 0-17.615 12.654-30.269t30.269-12.654q17.616 0 30.27 12.654 12.653 12.654 12.653 30.269 0 17.616-12.653 30.27-12.654 12.653-30.27 12.653Zm0 492.616q-17.615 0-30.269-12.654t-12.654-30.269q0-17.616 12.654-30.27 12.654-12.653 30.269-12.653 17.616 0 30.27 12.653 12.653 12.654 12.653 30.27 0 17.615-12.653 30.269-12.654 12.654-30.27 12.654Zm0-246.308q-17.615 0-30.269-12.654T190.769-480q0-17.615 12.654-30.269t30.269-12.654q17.616 0 30.27 12.654 12.653 12.654 12.653 30.269t-12.653 30.269q-12.654 12.654-30.27 12.654Zm246.036 0q-17.728 0-30.19-12.654-12.461-12.654-12.461-30.269t12.654-30.269q12.654-12.654 30.269-12.654t30.269 12.654q12.654 12.654 12.654 30.269l-43.195 42.923Zm246.58-246.308q-17.616 0-30.27-12.653-12.653-12.654-12.653-30.27 0-17.615 12.653-30.269 12.654-12.654 30.27-12.654 17.615 0 30.269 12.654t12.654 30.269q0 17.616-12.654 30.27-12.654 12.653-30.269 12.653Zm-246.308 0q-17.615 0-30.269-12.653-12.654-12.654-12.654-30.27 0-17.615 12.654-30.269T480-769.231q17.615 0 30.269 12.654t12.654 30.269q0 17.616-12.654 30.27-12.654 12.653-30.269 12.653Z"/></svg>