<svg xmlns="http://www.w3.org/2000/svg" width="48" height="48" viewBox="0 -960 960 960"><path d="M160-160v-640h261.62q-12-31.62 6.76-59.58 18.77-27.96 51.62-27.96 32.85 0 51.62 27.96 18.76 27.96 6.76 59.58H800v640H160Zm341.5-645.88q8.5-8.5 8.5-21.12 0-12.62-8.5-21.5t-21.5-8.88q-13 0-21.5 8.88T450-827q0 12.62 8.5 21.12 8.5 8.5 21.5 8.5t21.5-8.5Zm63.88 352.57Q600-487.92 600-537.85q0-49.92-34.62-84.53Q530.77-657 480.85-657q-49.93 0-84.54 34.62-34.62 34.61-34.62 84.53 0 49.93 34.62 84.54 34.61 34.62 84.54 34.62 49.92 0 84.53-34.62ZM190.77-190.77h578.46V-217Q712.31-271.46 639-304.04q-73.31-32.58-159-32.58t-159 32.58Q247.69-271.46 190.77-217v26.23Z"/></svg>