<svg xmlns="http://www.w3.org/2000/svg" width="48" height="48" viewBox="0 -960 960 960"><path d="m240-589.385-28.462-62.153L149.384-680l62.154-28.462L240-770.615l28.461 62.153L330.615-680l-62.154 28.462L240-589.385Zm460-120-15.461-35.153L650.154-760l34.385-15.462L700-810.615l16.231 35.153L750.616-760l-34.385 15.462L700-709.385Zm61.539 160-15.462-35.153L710.923-600l35.154-15.462 15.462-35.153L777-615.462 811.385-600 777-584.538l-15.461 35.153ZM480-410.692q-30.692 0-50.846-21.385Q409-453.461 409-484.385v-244.846q0-29.692 20.654-50.231Q450.308-800 480-800q29.692 0 50.346 20.538Q551-758.923 551-729.231v244.846q0 30.924-20.154 52.308-20.154 21.385-50.846 21.385ZM464.615-100v-146.769q-94.461-7.154-159.538-75.154Q240-389.923 240-484.385h30.769q0 87.154 61.423 147.231T480-277.077q86.385 0 147.808-60.077 61.423-60.077 61.423-147.231H720q0 94.462-65.077 162.462-65.077 68-159.538 75.154v146.77h-30.77Z"/></svg>