<svg xmlns="http://www.w3.org/2000/svg" width="48" height="48" viewBox="0 -960 960 960"><path d="M375.385-869.231V-900h209.23v30.769h-209.23Zm25.384 558.385-71.23-144.539H160.231q5.615-128.461 98.23-216.654Q351.077-760.231 480-760.231q60.846 0 115.885 21.615 55.038 21.616 97.961 60.077l41.77-41 22.23 22.231-41.769 41.769q35.077 38.308 58.039 88.693 22.961 50.384 25.653 111.461h-149.23L560-639.308 400.769-310.846ZM480-120.231q-128.923 0-221.423-88.461-92.5-88.462-98.346-215.923h150L400-241.461l159.231-327.693 72 144.539h168.538q-5.846 127.461-98.346 215.923-92.5 88.461-221.423 88.461Z"/></svg>