<svg xmlns="http://www.w3.org/2000/svg" width="48" height="48" viewBox="0 -960 960 960"><path d="M363.24-330.769q13.529 0 22.837-9.471 9.308-9.47 9.308-23 0-13.529-9.471-22.837t-23-9.308q-13.53 0-22.837 9.471-9.308 9.471-9.308 23 0 13.53 9.471 22.837 9.47 9.308 23 9.308Zm0-233.846q13.529 0 22.837-9.471t9.308-23q0-13.53-9.471-22.837-9.471-9.308-23-9.308-13.53 0-22.837 9.471-9.308 9.47-9.308 23 0 13.529 9.471 22.837 9.47 9.308 23 9.308Zm233.846 233.846q13.53 0 22.837-9.471 9.308-9.47 9.308-23 0-13.529-9.471-22.837-9.47-9.308-23-9.308-13.529 0-22.837 9.471t-9.308 23q0 13.53 9.471 22.837 9.471 9.308 23 9.308Zm0-233.846q13.53 0 22.837-9.471 9.308-9.471 9.308-23 0-13.53-9.471-22.837-9.47-9.308-23-9.308-13.529 0-22.837 9.471-9.308 9.47-9.308 23 0 13.529 9.471 22.837t23 9.308ZM160-160v-640h640v640H160Zm30.769-30.769h578.462v-578.462H190.769v578.462Zm0-578.462v578.462-578.462Z"/></svg>