<svg xmlns="http://www.w3.org/2000/svg" width="48" height="48" viewBox="0 -960 960 960"><path d="M500.846-80q-83 0-153.423-41.731Q277-163.461 235.154-235.769L103.077-464.538l31.615-31.616L320-369.769V-780h30.769v469.539l-206.692-142 117.231 198.615q36.461 65.923 100.262 104.5t139.276 38.577q111.466 0 189.926-77.231 78.459-77.231 78.459-188.461V-760H800v383.539q0 123.827-87.387 210.144Q625.225-80 500.846-80Zm-30.769-424.615V-860h30.769v355.385h-30.769Zm150.077 0V-820h30.769v315.385h-30.769Zm-163 196.538Z"/></svg>