<svg xmlns="http://www.w3.org/2000/svg" width="48" height="48" viewBox="0 -960 960 960"><path d="M659.077-191.231q0-11.636.885-22.856.884-11.221 6.617-21.629 8.19-14.746 21.306-24.857 13.115-10.112 22.423-23.595 2.538-3.371 6.538-19.599 0-14.52-11.264-23.915T680-337.077q-14.692 0-25 9.462-10.308 9.461-15.308 24.153l-37.077-15.923q8.412-25.454 29.44-40.727 21.029-15.273 47.945-15.273 31.122 0 54.253 20.264 23.132 20.264 23.132 50.659 0 8.693-2.231 17.039-2.231 8.346-7.416 15.32-9.507 13.949-21.815 24.141-12.308 10.193-20.384 24.858-5.385 9.489-5.385 31.873h-41.077ZM680-104.615q-11.783 0-20.199-8.172-8.416-8.171-8.416-20.213 0-11.466 8.397-19.656t20.154-8.19q11.756 0 20.102 8.237 8.347 8.237 8.347 19.769 0 11.532-8.172 19.879-8.171 8.346-20.213 8.346ZM343.077-120q-12.039 0-19.866-7.827t-7.827-19.865v-612.924q0-11.269 7.827-19.48 7.827-8.212 19.866-8.212h69.231V-840h135.384v51.692h69.39q12.072 0 19.803 8.212 7.731 8.211 7.731 19.48v300.693q-80.308 10.769-134.731 72.5-54.423 61.731-54.423 145.346 0 34.923 10.654 65.923 10.653 31 29.807 56.154H343.077Z"/></svg>