<svg xmlns="http://www.w3.org/2000/svg" width="48" height="48" viewBox="0 -960 960 960"><path d="M315.384-120v-668.308h96.924V-840h135.384v51.692h96.924V-120H315.384Zm30.77-30.769h267.692v-607.539H346.154v607.539Zm0 0h267.692-267.692ZM470-303.692l22.231-20.462-20.231-21q-8.308-8.308-12.461-18.115-4.154-9.808-4.154-20.885 0-11.077 4.154-21.769 4.153-10.692 12.461-19l38-38q12.462-11.692 18.923-27.5 6.462-15.808 6.462-32.731 0-17.692-6.462-34.5-6.461-16.808-18.923-28.5l-21-20.231-21.231 22.231L487-564.923q7.538 8.308 12.577 18.615 5.038 10.308 5.038 22.154 0 11.077-4.654 21.269-4.653 10.193-12.192 17.731l-37 38q-12.461 11.692-19.308 28-6.846 16.308-6.846 34 0 16.923 6.462 33.731 6.461 16.808 18.923 28.5l20 19.231Z"/></svg>