<svg xmlns="http://www.w3.org/2000/svg" width="48" height="48" viewBox="0 -960 960 960"><path d="M235.384-140v-30.769h203.385v-130.923h-26.538q-74.297 0-125.572-51.275-51.275-51.275-51.275-125.571 0-55.463 32.308-100.924 32.308-45.461 85.462-64.692.154-43.846 35-68.461 34.846-24.616 75.077-10.077L436.846-794l39.462-14.129-14-37.871 42.154-15.539 14 37.77 36.33-12.462 100.516 268.077-37.616 14.231 14 37.769-40.923 15.308L576-538.615l-39.923 16.769-25.769-74.923q-12.693 18.538-31.654 28.731-18.962 10.192-42.295 9.961-26.436.539-48.051-15.231-21.616-15.769-31.539-41.077-41.154 17-65.884 53.749-24.731 36.749-24.731 82.098 0 61.442 42.317 103.759t103.78 42.317h312.364v30.77H478.769v130.923h245.847V-140H235.384Zm321.385-422.769 59.154-22.846-79.231-212.923L476-778l80.769 215.231Zm-118.704-26.077q22.781 0 38.435-15.04 15.654-15.04 15.654-38.192 0-23.153-15.411-38.807-15.411-15.653-38.192-15.653-22.782 0-38.436 15.414-15.654 15.415-15.654 38.202 0 23.537 15.411 38.807 15.411 15.269 38.193 15.269Zm118.704 26.077Zm-118.461-80.385Zm.461 0Z"/></svg>