<svg xmlns="http://www.w3.org/2000/svg" width="48" height="48" viewBox="0 96 960 960"><path d="M175.384 896q-39.743 0-67.564-27.82Q80 840.359 80 800.616V351.384q0-39.743 27.82-67.564Q135.641 256 175.384 256H460q39.744 0 67.564 27.82 27.821 27.821 27.821 67.564v265.847h75.384q23.404 0 39.395 15.99 15.99 15.991 15.99 39.394v121.847q0 19.923 13.885 33.807 13.884 13.885 33.807 13.885 19.923 0 33.808-13.885 13.884-13.884 13.884-33.807V506.769q-28.923 0-49.846-18.73-20.923-18.731-20.923-47.424V356h30.769v-64.616h26.154V356h58.462v-64.616h26.154V356h30.769v84.615q0 28.693-20.923 47.424-20.923 18.73-49.846 18.73v286.77q0 32.369-23.097 55.415Q766.115 872 733.673 872q-32.442 0-55.365-23.046-22.923-23.046-22.923-55.415V668.615q0-10.769-6.923-17.692T630.769 644h-75.384v141.231q0 46.134-32.318 78.452Q490.75 896 444.615 896H175.384Zm0-30.769h269.477q33.139 0 56.447-23.491 23.307-23.49 23.307-56.509 0-33.019-23.49-56.51-23.49-23.49-56.51-23.49H238.462q-13.77 0-23.039 9.269-9.269 9.269-9.269 23.038 0 13.77 9.269 23.039 9.269 9.269 23.039 9.269h206.153q6.539 0 10.962 4.485T460 785.447q0 6.63-4.423 10.899-4.423 4.269-10.962 4.269H238.462q-26.493 0-44.785-18.342-18.292-18.343-18.292-44.908t18.292-44.734q18.292-18.17 44.785-18.17h206.153q21.886 0 43.251 6.077t36.749 21.616v-350.77q0-27.403-18.605-46.009-18.606-18.606-46.01-18.606H175.384q-27.403 0-46.009 18.606t-18.606 46.009v449.232q0 27.403 18.606 46.009t46.009 18.606Zm0 0h269.231-333.846 64.615Z"/></svg>