<svg xmlns="http://www.w3.org/2000/svg" width="48" height="48" viewBox="0 -960 960 960"><path d="M234.72-329.385q18.152 0 30.254-12.469 12.103-12.469 12.103-29.789 0-18.152-12.215-30.254Q252.647-414 234.593-414T204.5-401.785q-12.038 12.215-12.038 30.269 0 18.055 12.469 30.093t29.789 12.038Zm380.751 0q17.903 0 30.255-12.469 12.351-12.469 12.351-29.789 0-18.152-12.464-30.254Q633.149-414 615.344-414T585.5-401.785q-12.038 12.215-12.038 30.269 0 18.055 12.469 30.093 12.47 12.038 29.54 12.038ZM104.769-160v-313.846l86-246.154h394v30.769h-372l-64.23 187.538h436.23v30.77H744.77V-160H714v-81.692H135.539V-160h-30.77Zm633.308-364.615v-164l-99.308 99.307L620.077-608l112-112-112-112 18.692-18.692 99.308 99.307v-164h8l109.385 109.847-86 85.538 86 86-109.385 109.385h-8Zm28.077-232.616 48.769-48.307-48.769-48.77v97.077Zm0 172L814.923-634l-48.769-48.769v97.538Z"/></svg>