<svg xmlns="http://www.w3.org/2000/svg" width="48" height="48" viewBox="0 -960 960 960"><path d="M840.15-91.77 97.08-834.08l23-22.23L862.38-114l-22.23 22.23Zm-453.92-14.11q-6-5.89-6-14.74 0-8.84 6-14.73 6-5.88 14.62-5.88 8.61 0 14.61 5.88 6 5.89 6 14.73 0 8.85-6 14.74-6 5.88-14.61 5.88-8.62 0-14.62-5.88Zm161.23 0q-6-5.89-6-14.74 0-8.84 6-14.73 6-5.88 14.62-5.88 8.61 0 14.61 5.88 6 5.89 6 14.73 0 8.85-6 14.74-6 5.88-14.61 5.88-8.62 0-14.62-5.88ZM216.85-216.85q-9.47-9.46-9.47-23.15 0-13.69 9.47-23.15 9.46-9.47 23.15-9.47 13.69 0 23.15 9.47 9.47 9.46 9.47 23.15 0 13.69-9.47 23.15-9.46 9.47-23.15 9.47-13.69 0-23.15-9.47Zm160.46 0q-9.46-9.46-9.46-23.15 0-13.69 9.38-23.15 9.39-9.47 23.54-9.47 14.15 0 23.61 9.47 9.47 9.46 9.47 23.15 0 13.69-9.39 23.15-9.39 9.47-23.54 9.47-14.15 0-23.61-9.47Zm158.31 0q-9.47-9.46-9.47-23.15 0-13.69 9.39-23.15 9.39-9.47 23.54-9.47 14.15 0 23.61 9.47 9.46 9.46 9.46 23.15 0 13.69-9.38 23.15-9.39 9.47-23.54 9.47-14.15 0-23.61-9.47ZM368.88-368.88q-13.19-13.2-13.19-31.97t13.19-31.96Q382.08-446 400.85-446t31.96 13.19Q446-419.62 446-400.85q0 18.77-13.19 31.97-13.19 13.19-31.96 13.19-18.77 0-31.97-13.19Zm-152.03-8.35q-9.47-9.39-9.47-23.54 0-14.15 9.47-23.61 9.46-9.47 23.15-9.47 13.69 0 23.15 9.39 9.47 9.39 9.47 23.54 0 14.15-9.47 23.61-9.46 9.46-23.15 9.46-13.69 0-23.15-9.38Zm504.69 9.38-34.92-34.92q.76-12.92 10.23-22 9.46-9.08 22.86-9.08 14.14 0 23.52 9.39 9.39 9.38 9.39 23.52 0 13.4-8.7 22.86-8.69 9.46-22.38 10.23ZM106-386.12q-6-5.88-6-14.73 0-8.84 6-14.73 6-5.88 14.62-5.88 8.61 0 14.61 5.88 6 5.89 6 14.73 0 8.85-6 14.73-6 5.89-14.61 5.89-8.62 0-14.62-5.89Zm718.77 0q-6-5.88-6-14.73 0-8.84 6-14.73 6-5.88 14.61-5.88 8.62 0 14.62 5.88 6 5.89 6 14.73 0 8.85-6 14.73-6 5.89-14.62 5.89-8.61 0-14.61-5.89ZM573.92-516.23l-57.69-57.69q4.46-12.93 16.54-21.66 12.08-8.73 26-8.73 19.15 0 32.35 13.19 13.19 13.2 13.19 32.35 0 13.92-8.35 26-8.34 12.08-22.04 16.54Zm-357.07-19.31q-9.47-9.39-9.47-23.54 0-14.15 9.47-23.61 9.46-9.46 23.15-9.46 13.69 0 23.15 9.38 9.47 9.39 9.47 23.54 0 14.15-9.47 23.61-9.46 9.47-23.15 9.47-13.69 0-23.15-9.39Zm480 0q-9.47-9.39-9.47-23.54 0-14.15 9.47-23.61 9.46-9.46 23.15-9.46 13.69 0 23.15 9.38 9.47 9.39 9.47 23.54 0 14.15-9.47 23.61-9.46 9.47-23.15 9.47-13.69 0-23.15-9.39ZM106-544.42q-6-5.89-6-14.73 0-8.85 6-14.73 6-5.89 14.62-5.89 8.61 0 14.61 5.89 6 5.88 6 14.73 0 8.84-6 14.73-6 5.88-14.61 5.88-8.62 0-14.62-5.88Zm718.77 0q-6-5.89-6-14.73 0-8.85 6-14.73 6-5.89 14.61-5.89 8.62 0 14.62 5.89 6 5.88 6 14.73 0 8.84-6 14.73-6 5.88-14.62 5.88-8.61 0-14.61-5.88ZM535.62-696.85q-9.47-9.46-9.47-23.15 0-13.69 9.39-23.15 9.39-9.47 23.54-9.47 14.15 0 23.61 9.47 9.46 9.46 9.46 23.15 0 13.69-9.38 23.15-9.39 9.47-23.54 9.47-14.15 0-23.61-9.47Zm-132.85 10.23-34.92-34.92q.77-13.69 10.12-22.38 9.35-8.7 23.26-8.7 14.02 0 23.32 9.39 9.3 9.38 9.3 23.52 0 13.4-9.08 22.86-9.08 9.47-22 10.23Zm294.08-10.23q-9.47-9.46-9.47-23.15 0-13.69 9.47-23.15 9.46-9.47 23.15-9.47 13.69 0 23.15 9.47 9.47 9.46 9.47 23.15 0 13.69-9.47 23.15-9.46 9.47-23.15 9.47-13.69 0-23.15-9.47Zm-310.62-127.8q-6-5.89-6-14.73 0-8.85 6-14.74 6-5.88 14.62-5.88 8.61 0 14.61 5.88 6 5.89 6 14.74 0 8.84-6 14.73-6 5.88-14.61 5.88-8.62 0-14.62-5.88Zm158.31 0q-6-5.89-6-14.73 0-8.85 6-14.74 6-5.88 14.61-5.88 8.62 0 14.62 5.88 6 5.89 6 14.74 0 8.84-6 14.73-6 5.88-14.62 5.88-8.61 0-14.61-5.88Z"/></svg>