<svg xmlns="http://www.w3.org/2000/svg" width="48" height="48" viewBox="0 -960 960 960"><path d="M160-160v-40h40v40h-40Zm0-150.384v-40.001h40v40.001h-40Zm0-300.001v-40h40v40h-40ZM160-760v-40h40v40h-40Zm150.384 600v-40h40.001v40h-40.001Zm0-600v-40h40.001v40h-40.001Zm300.001 600v-40h40v40h-40ZM760-160v-40h40v40h-40Zm0-150.384v-40.001h40v40.001h-40Zm0-300.001v-40h40v40h-40ZM760-760v-40h40v40h-40Zm-149.615 0v-40h40v40h-40Zm-145.77 600v-304.615H160v-30.77h304.615V-800h30.77v304.615H800v30.77H495.385V-160h-30.77Z"/></svg>