<svg xmlns="http://www.w3.org/2000/svg" width="48" height="48" viewBox="0 -960 960 960"><path d="M160-760v-40h40v40h-40Zm150.384 0v-40h40.001v40h-40.001ZM460-760v-40h40v40h-40Zm150.385 0v-40h40v40h-40ZM760-760v-40h40v40h-40ZM160-610.385v-40h40v40h-40Zm300 0v-40h40v40h-40Zm300 0v-40h40v40h-40ZM160-460v-40h640v40H160Zm0 149.616v-40.001h40v40.001h-40Zm300 0v-40.001h40v40.001h-40Zm300 0v-40.001h40v40.001h-40ZM160-160v-40h40v40h-40Zm150.384 0v-40h40.001v40h-40.001ZM460-160v-40h40v40h-40Zm150.385 0v-40h40v40h-40ZM760-160v-40h40v40h-40Z"/></svg>