<svg xmlns="http://www.w3.org/2000/svg" width="48" height="48"><path d="M14.65 34.55q-2.65 0-4.5-1.875T8.3 28.2q0-2.65 1.85-4.5t4.5-1.85q2.65 0 4.5 1.85T21 28.2q0 2.6-1.85 4.475-1.85 1.875-4.5 1.875zm17.7-8q-3.75 0-6.325-2.575T23.45 17.65q0-3.75 2.575-6.325T32.35 8.75q3.75 0 6.325 2.575t2.575 6.325q0 3.75-2.575 6.325T32.35 26.55zm-3.6 12.75q-1.8 0-3.025-1.225Q24.5 36.85 24.5 35.1q0-1.8 1.225-3.025 1.225-1.225 3.025-1.225 1.75 0 3 1.225T33 35.1q0 1.75-1.25 2.975t-3 1.225zm3.6-14.3q3.1 0 5.225-2.125Q39.7 20.75 39.7 17.65q0-3.1-2.125-5.225Q35.45 10.3 32.35 10.3q-3.1 0-5.225 2.125Q25 14.55 25 17.65q0 3.1 2.125 5.225Q29.25 25 32.35 25zM28.7 37.75q1.15 0 1.95-.775t.8-1.875q0-1.1-.8-1.9-.8-.8-1.9-.8-1.15 0-1.925.775-.775.775-.775 1.875t.775 1.9q.775.8 1.875.8zm3.65-20.1zm-3.6 17.45z"/></svg>