<svg xmlns="http://www.w3.org/2000/svg" width="48" height="48" viewBox="0 -960 960 960"><path d="M312.69-169.23V-200H160v-30.77h40v-498.46h-40V-760h121.15l24.44-49.23h347.79L679.85-760H800v30.77h-40v498.46h40V-200H648.08v30.77H312.69Zm199.04-148.65q12.89-12.5 12.89-31.17 0-18.66-13.07-31.73t-31.73-13.07q-18.67 0-31.55 13.07-12.89 13.07-12.89 31.73 0 18.67 13.07 31.17t31.73 12.5q18.67 0 31.55-12.5ZM230.77-501.54h142v-156.65q0-29.86-20.45-50.45-20.45-20.59-50.46-20.59t-50.55 20.34q-20.54 20.34-20.54 50.27v157.08Zm177.61 0h142.47v-157.5q0-30.01-20.63-50.1-20.62-20.09-50.19-20.09-29.57 0-50.61 20.34t-21.04 50.27v157.08Zm178.62 0h142.23v-157.5q0-30.01-21.1-50.1-21.09-20.09-50.66-20.09-29.57 0-50.02 20.34Q587-688.55 587-658.62v157.08Z"/></svg>