<svg xmlns="http://www.w3.org/2000/svg" width="48" height="48" viewBox="0 -960 960 960"><path d="M720-120q-100.308 0-206.538-50.731-106.231-50.73-199.001-143.5Q222.231-407 171.115-513.615 120-620.231 120-720v-40h168.077l35.385 157.461-109.308 102.847q29.538 49.615 60.192 90.807Q305-367.692 337-335.692q36 36.769 78.923 68.269 42.923 31.5 97.615 61.346L619-316.308l141 29V-120h-40ZM489.231-809.231V-840H840v30.769H489.231Zm0 126.154v-30.769H840v30.769H489.231Zm0 126.154v-30.769H840v30.769H489.231Z"/></svg>