<svg xmlns="http://www.w3.org/2000/svg" width="48" height="48" viewBox="0 96 960 960"><path d="M445.769 454.769 575 229.231q80.769 20.692 147.116 82.076 66.346 61.385 97.269 143.462H445.769Zm-88.846 93.539-130-227.847q52.385-51.384 117.346-77.923Q409.231 216 478.538 216q17 0 38.039 1.884 21.038 1.885 29.731 3.885L356.923 548.308ZM131.461 665.462q-6.23-24.77-8.846-46.693Q120 596.846 120 577.231q0-64.308 21.577-123.539Q163.154 394.461 205.846 342l184.539 323.462H131.461Zm256.154 258.615Q303 901.385 235.461 838.962q-67.538-62.423-95.615-144.27h378.769l-131 229.385ZM483.385 936q-16.923 0-36.654-2-19.731-2-30.423-4l189.615-321.461L733.846 831Q682.231 882.385 617 909.193 551.769 936 483.385 936Zm271-127L569.154 484h259.385q6.23 24.461 8.846 47.769Q840 555.077 840 576q0 64.385-20.807 122.462Q798.385 756.539 754.385 809Z"/></svg>