<svg xmlns="http://www.w3.org/2000/svg" width="48" height="48" viewBox="0 -960 960 960"><path d="M240-180v-30.769h226.23l-71.307-71.308 22.231-22.231 107.923 108.693L417.154-87.692l-22.231-22.231L465-180H240Zm0-96.615V-840h480v563.385h-30.769v-95.846q-39.385-21.385-96.731-35.27-57.346-13.884-112.115-13.884-54.77 0-112.385 13.884-57.615 13.885-97.231 35.27v95.846h.769H240Zm30.769-130q46.616-21.462 102.707-33.731 56.091-12.269 106.346-12.269t106.654 12.269q56.399 12.269 102.755 33.731v-402.616H270.769v402.616ZM560-180v-30.769h160V-180H560Zm-80.145-344.462q-40.317 0-68.394-27.997-28.076-27.997-28.076-67.994 0-40.316 28.221-68.393 28.222-28.077 68.539-28.077t68.394 28.142q28.076 28.143 28.076 68.346 0 40.204-28.221 68.089-28.222 27.884-68.539 27.884Zm.075-30.769q27.147 0 46.531-19.093 19.385-19.093 19.385-45.914 0-27.147-19.314-46.531-19.315-19.385-46.462-19.385-27.147 0-46.531 19.221-19.385 19.222-19.385 46.231 0 27.01 19.314 46.24 19.315 19.231 46.462 19.231Zm.07 133.616Zm0-198.693Z"/></svg>