<svg xmlns="http://www.w3.org/2000/svg" width="48" height="48" viewBox="0 -960 960 960"><path d="M256.92-150.77h450.77q28.08 0 47.12-19.04t19.04-47.11v-26.93H190.77v26.7q0 27.73 19.04 47.05 19.04 19.33 47.11 19.33Zm163.04-529.81q-25.34-25.96-23.81-62.73.77-42.46 27.58-75.15 26.81-32.69 58.58-61.54 30.07 30.31 57.73 62 27.65 31.69 28.42 73.91.77 36.82-24.69 63.15-25.46 26.32-61.96 26.32t-61.85-25.96Zm-2.5 405.96h129.46v-274.61H417.46v274.61Zm104.08-426.86q16.15-16.1 16.15-39.39 0-29.28-17.75-51.44-17.76-22.16-37.63-43.31-19.87 21.15-37.63 43.31-17.76 22.16-17.76 51.44 0 23.29 16.1 39.39t39.23 16.1q23.13 0 39.29-16.1Zm312.5 411.67Q849.23-305 849.23-327q0-21.23-15.19-36.31-15.19-15.07-36.42-15.07-21.24 0-36.43 15.07Q746-348.23 746-327q0 22 15.19 37.19 15.19 15.19 36.43 15.19 21.23 0 36.42-15.19ZM707.69-120H256.92q-40.38 0-68.65-28.27Q160-176.54 160-217.15v-57.47h226.69V-580h191v305.38h155q-8.07-10.76-12.77-23.99-4.69-13.23-4.69-28.77 0-34.58 23.83-58.18 23.82-23.59 58.15-23.59t58.56 23.59Q880-361.96 880-327.38q0 33.15-21.73 56.8-21.73 23.66-53.65 27.04v26.62q0 40.38-28.27 68.65Q748.08-120 707.69-120Zm-225.38-30.77Zm-64.85-123.85h129.46-129.46Zm64.85-486.76Z"/></svg>