<svg xmlns="http://www.w3.org/2000/svg" width="48" height="48" viewBox="0 -960 960 960"><path d="M630.656-289.385q17.806 0 29.844-12.469 12.039-12.469 12.039-29.789 0-18.152-12.47-30.254Q647.6-374 630.529-374q-17.903 0-30.254 12.215-12.352 12.215-12.352 30.269 0 18.055 12.464 30.093t30.269 12.038Zm-380.231 0q17.806 0 29.844-12.469 12.039-12.469 12.039-29.789 0-18.152-12.47-30.254Q267.369-374 250.299-374q-17.904 0-30.255 12.215-12.352 12.215-12.352 30.269 0 18.055 12.464 30.093t30.269 12.038ZM668.924-528q-64.975 0-110.642-45.662-45.667-45.663-45.667-111.501 0-64.729 45.646-109.783Q603.906-840 669.315-840q65.447 0 110.374 44.927 44.927 44.927 44.927 110.688 0 65.385-45.359 110.885T668.924-528Zm-13.385-136.385h28.846v-112.231h-28.846v112.231Zm14.423 76.539q7.961 0 13.307-5.615 5.347-5.616 6.116-13.693 0-8.538-5.831-13.923-5.831-5.384-13.092-5.384-9.462.23-14.577 5.461-5.116 5.231-5.116 13.577t5.616 13.962q5.615 5.615 13.577 5.615ZM120-120v-310.923L205-680h220.231q-.462 7.307.692 15.384t1.616 15.385H228l-65 187.538h394.307q26.77 15.385 56.039 23.039Q642.615-431 673.462-431q22.678 0 44.8-4.346 22.123-4.346 41.738-14.808V-120h-30.769v-81.692H150.769V-120H120Z"/></svg>