<svg xmlns="http://www.w3.org/2000/svg" width="48" height="48" viewBox="0 -960 960 960"><path d="M160-160v-196.615h30.769v165.846h165.846V-160H160Zm443.385 0v-30.769h165.846v-165.846H800V-160H603.385ZM160-603.385V-800h196.615v30.769H190.769v165.846H160Zm609.231 0v-165.846H603.385V-800H800v196.615h-30.769ZM480-326.077q-63.759 0-108.841-45.082Q326.077-416.241 326.077-480q0-63.759 45.082-108.841Q416.241-633.923 480-633.923q63.759 0 108.841 45.082Q633.923-543.759 633.923-480q0 63.759-45.082 108.841Q543.759-326.077 480-326.077Zm0-30.769q51.692 0 87.423-35.731T603.154-480q0-51.692-35.731-87.423T480-603.154q-51.692 0-87.423 35.731T356.846-480q0 51.692 35.731 87.423T480-356.846ZM480-480Z"/></svg>