<svg xmlns="http://www.w3.org/2000/svg" width="48" height="48" viewBox="0 -960 960 960"><path d="M581.38-180q-6.8 0-11.09-4.3-4.29-4.29-4.29-11.11 0-6.82 4.29-11.09t11.09-4.27h191.16L616.85-319.92q-4.74-4.25-6.41-10.32t2.3-10.75q3.2-5.46 9.38-6.73 6.19-1.28 11.57 1.87l156.69 109.7L724.23-416q-2.69-5.62.62-11.23 3.3-5.62 9.92-8.31 5.85-2.69 11.85.5t8.69 9.04l64.15 178.31 49.77-182.85q1.46-5.84 6.46-9.15 5-3.31 11.62-1.85 5.84 1.46 9.65 6.46 3.81 5 2.35 10.85L832.85-180H581.38ZM140-208.46V-820h600v260.69q-5-.46-10-.57-5-.12-10-.12h-5.38q-3.08 0-5.39-.54v-228.69H170.77v458.46h308.69q.54 2.31.54 5.39v5.38q0 5 .12 10 .11 5 .57 10H231.54L140-208.46Zm144.62-420.77h310.76V-660H284.62v30.77Zm0 164.61h190.76v-30.76H284.62v30.76ZM170.77-330.77v-458.46 458.46Z"/></svg>