<svg xmlns="http://www.w3.org/2000/svg" width="48" height="48" viewBox="0 -960 960 960"><path d="m322.615-772.231-29.384-87.154 24.154-8.384 29.384 87.154-24.154 8.384Zm144.308-44.692v-86.154h26.154v86.154h-26.154Zm170.462 44.692-24.154-8.384 29.384-87.154 24.154 8.384-29.384 87.154ZM857.539-59l3.384-30.77-250.461-38.538L566-272.615l39.077-77.847 37.231 115.616 29.308-9.539-107.923-336.692L596.462-600 782-245.385h89.539v-30.769h-71.231L608.923-641.769l-82.077 46.307L592.154-393l-59.616 119.231 54.231 172.308L857.539-59ZM642.308-234.846 592.154-393l50.154 158.154Zm29.308-9.539ZM102.461-59l-3.384-30.77 251.23-38.538L394-272.615l-39.077-77.847-37.231 115.616-29.308-9.539 107.923-336.692L363.538-600 178-245.385H88.461v-30.769h71.231l191.385-365.615 82.077 46.307L367.846-393l59.616 119.231-55.001 172.308-270 42.461Zm215.231-175.846L367.846-393l-50.154 158.154Zm-29.308-9.539Z"/></svg>