<svg xmlns="http://www.w3.org/2000/svg" width="48" height="48" viewBox="0 96 960 960"><path d="m175.384 256 57.077 116.615h124.616L300 256h84.384l57.077 116.615h124.616L509 256h83.615l57.847 116.615h124.615L717.231 256H840v640H120V256h55.384Zm-24.615 147.385v461.846h658.462V403.385H150.769Zm0 0v461.846-461.846Zm196.923 377.231h264.616v-11.231q0-30.462-36.731-49.616T480 700.615q-58.846 0-95.577 19.154t-36.731 49.616v11.231ZM480 626.769q24.077 0 40.577-16.5 16.5-16.5 16.5-40.577 0-24.077-16.5-40.577-16.5-16.5-40.577-16.5-24.077 0-40.577 16.5-16.5 16.5-16.5 40.577 0 24.077 16.5 40.577 16.5 16.5 40.577 16.5Z"/></svg>