<svg xmlns="http://www.w3.org/2000/svg" width="48" height="48" viewBox="0 96 960 960"><path d="M120 576V256h720v320H688.462V400.615H272.308V576H120Zm64.615 242.846v-31.538q49.231 0 83.846-34.26 34.616-34.259 34.616-83.202h31.538q0 62.693-43.875 105.847-43.875 43.153-106.125 43.153ZM303.077 576V431.384h354.615V576H303.077Zm161.538 284.616v-190.77h30.77v190.77h-30.77Zm310.77-41.77q-62.693 0-105.847-43.225-43.153-43.225-43.153-105.775h31.538q0 49.231 34.26 83.346 34.259 34.116 83.202 34.116v31.538Z"/></svg>