<svg xmlns="http://www.w3.org/2000/svg" width="48" height="48" viewBox="0 96 960 960"><path d="M480 756q-69.923 0-119.423-45.5T300.154 596H120v-40h180.154q10.923-69 60.423-114.5T480 396q69.923 0 119.808 45.5Q649.692 487 659.846 556H840v40H659.846q-10.154 69-60.038 114.5Q549.923 756 480 756Zm-.235-30.769q62.081 0 105.773-43.457 43.693-43.457 43.693-105.539 0-62.081-43.457-105.773-43.457-43.693-105.539-43.693-62.081 0-105.773 43.457-43.693 43.457-43.693 105.539 0 62.081 43.457 105.773 43.457 43.693 105.539 43.693Z"/></svg>