<svg xmlns="http://www.w3.org/2000/svg" width="48" height="48" viewBox="0 96 960 960"><path d="M480 911.616q-65.154 0-110.885-45.731-45.731-45.731-45.731-110.116 0-65.154 45.731-110.884Q414.846 599.154 480 599.154t110.885 45.731q45.731 45.73 45.731 110.884 0 64.385-45.731 110.116Q545.154 911.616 480 911.616ZM273.769 545 138.461 408.154q72.539-58.616 159.77-93.077 87.23-34.462 181.769-34.462t181.769 34.462q87.231 34.461 159.77 93.077L686.231 545Q642 510.154 589.808 490.769 537.615 471.385 480 471.385q-57.615 0-110.192 19.384-52.577 19.385-96.039 54.231Z"/></svg>