<svg xmlns="http://www.w3.org/2000/svg" width="48" height="48" viewBox="0 96 960 960"><path d="M120 856V700.692q37-17.231 59.961-50.192 22.962-32.962 22.962-74.5t-22.962-75Q157 467.539 120 451.308V296h720v155.308Q803 467.539 780.039 501q-22.962 33.462-22.962 75t22.962 74.5Q803 683.461 840 700.692V856H120Zm30.769-30.769h658.462V720.077Q772 696.385 749.154 658.538 726.308 620.692 726.308 576t22.846-82.538q22.846-37.847 60.077-61.539V326.769H150.769v105.154q38.231 23.692 60.577 61.539 22.346 37.846 22.346 82.538t-22.346 82.538Q189 696.385 150.769 720.077v105.154Zm313.846-78.385h30.77v-30.769h-30.77v30.769Zm0-155.461h30.77v-30.77h-30.77v30.77Zm0-155.462h30.77v-30.769h-30.77v30.769ZM480 576Z"/></svg>