<svg xmlns="http://www.w3.org/2000/svg" width="48" height="48" viewBox="0 -960 960 960"><path d="M649.231-120v-82.564q-49.385-12.205-85.346-46.282-35.962-34.077-47.808-81.923h31.769q13.847 44 50.399 72t86.371 28h120q14.615 0 25 10.384Q840-210 840-195.384V-120H649.231Zm95.211-198.077q-24.162 0-40.648-16.53-16.486-16.53-16.486-40.692t16.53-41.162q16.53-17 40.692-17 24.163 0 41.163 17.044 17 17.044 17 41.206 0 24.162-17.045 40.648-17.044 16.486-41.206 16.486ZM404.615-429.231q0-104.461 73.154-177.231 73.154-72.769 177.616-72.769v30.769q-92.308 0-156.154 63.462-63.846 63.462-63.846 155.769h-30.77Zm101.539 0q0-62.692 43.492-105.961 43.493-43.27 105.739-43.27v30.77q-49.231 0-83.846 34.615-34.616 34.616-34.616 83.846h-30.769ZM120-527.308v-75.384q0-14.616 10.384-25.001 10.385-10.384 25-10.384h120q49.819 0 86.371-28 36.552-28 50.399-72h32.538Q434.385-691 397.596-656.979q-36.79 34.021-86.827 46.851v82.82H120Zm95.211-197.307q-24.162 0-40.648-17.045-16.486-17.044-16.486-40.692T174.607-823q16.53-17 40.692-17t41.162 17.044q17 17.044 17 40.692 0 23.649-17.044 40.649t-41.206 17Z"/></svg>