<svg xmlns="http://www.w3.org/2000/svg" width="48" height="48" viewBox="0 96 960 960"><path d="M480.135 296q13.788 0 22.98-9.327 9.193-9.328 9.193-23.116t-9.328-22.98q-9.327-9.193-23.115-9.193-13.788 0-22.98 9.328-9.193 9.327-9.193 23.115 0 13.788 9.328 22.981Q466.347 296 480.135 296ZM160 896V256h257.384q3.154-23.462 20.654-39.423 17.5-15.962 41.962-15.962 24.842 0 42.152 15.962 17.31 15.961 20.464 39.423H800v640H160Zm30.769-30.769h578.462V286.769H658.462v75.385H301.538v-75.385H190.769v578.462Z"/></svg>