<svg xmlns="http://www.w3.org/2000/svg" width="48" height="48" viewBox="0 -960 960 960"><path d="m779.154-280.692-22.462-23.231q23.808-36.333 36.289-81.667 12.481-45.333 15.711-93.025-50.153-18.462-80.961-54.116-30.808-35.654-34.962-87.423-77.923-6.384-129.192-57.692-51.269-51.308-53.885-130.077-56.692-4.308-109.461 9-52.77 13.308-96.539 42l-23-22.231q54-38 121.962-53 67.961-15 137.038-3.385-1.384 41.923 10.693 76.154 12.077 34.231 36.346 58.385Q611-676.846 646-663.077q35 13.769 78.231 14.461-7.692 54.077 28.538 95.654 36.231 41.577 87 50.423 1.616 58.847-13.521 117.575t-47.094 104.272Zm-439.471-85.769q-21.701 0-37.461-15.761-15.761-15.76-15.761-37.461 0-22.471 15.761-38.163 15.76-15.693 37.461-15.693 22.471 0 38.163 15.693 15.693 15.692 15.693 38.163 0 21.701-15.693 37.461-15.692 15.761-38.163 15.761ZM850.692-64.846 711.846-203.692q-47.692 39.846-106.131 61.769Q547.275-120 480-120q-75 0-140.692-27.807-65.693-27.808-114.693-76.808-49-49-76.808-114.693Q120-405 120-480q0-67.275 21.923-125.715 21.923-58.439 61.769-106.131L75.23-840.308l22.231-22.231L872.923-87.077l-22.231 22.231ZM480-150.769q60.549 0 113.698-19.731 53.148-19.731 96.687-54.654L225.154-690.385q-34.923 43.539-54.654 96.687Q150.769-540.549 150.769-480q0 138.077 95.577 233.654T480-150.769Zm-22.231-307Zm99.308-101.308Z"/></svg>