<svg xmlns="http://www.w3.org/2000/svg" width="48" height="48" viewBox="0 -960 960 960"><path d="M604.46-134.77 479.23-260l125.23-125.23 22 21.23-87.61 88.62h289.61v30.76H538.85L626.46-156l-22 21.23ZM170-446.92v-58.46h58.46v58.46H170Zm155.23-32.22q-32.15-32.21-32.15-77.78v-160q0-45.57 32.24-77.79 32.24-32.21 77.84-32.21 45.61 0 77.76 32.21 32.16 32.22 32.16 77.79v160q0 45.57-32.24 77.78-32.24 32.22-77.85 32.22-45.61 0-77.76-32.22Zm133.96-21.34q23.12-22.79 23.12-56.44v-160q0-33.66-22.88-56.45-22.88-22.78-56.12-22.78-33.23 0-56.35 22.78-23.11 22.79-23.11 56.45v160q0 33.65 22.88 56.44t56.11 22.79q33.24 0 56.35-22.79Z"/></svg>