<svg xmlns="http://www.w3.org/2000/svg" width="48" height="48" viewBox="0 96 960 960"><path d="M292.308 856H120V296h680v30.769H150.769v498.462h141.539V856Zm119.999 0v-55.231Q392 786.077 382.154 766.525q-9.847-19.553-9.847-41.294 0-21.741 9.847-41.294 9.846-19.552 30.153-34.245v-55.23h101.539v55.23q20.308 14.693 30.154 34.245 9.846 19.553 9.846 41.294 0 21.741-9.846 41.294-9.846 19.552-30.154 34.244V856H412.307Zm50.555-66.154q27.907 0 46.369-18.247 18.461-18.246 18.461-46.153t-18.247-46.369q-18.246-18.462-46.153-18.462t-46.369 18.247q-18.462 18.247-18.462 46.154 0 27.907 18.247 46.369 18.247 18.461 46.154 18.461ZM633.846 856V489.846H840V856H633.846Zm30.769-30.769h144.616V520.615H664.615v304.616Z"/></svg>