<svg xmlns="http://www.w3.org/2000/svg" width="48" height="48" viewBox="0 -960 960 960"><path d="M850.692-64.846 645.077-270.461 480-106.154 106.154-480l164.307-165.077-195.23-195.231 22.23-22.231L872.923-87.077l-22.231 22.231ZM623.615-291.923l-79.923-80.923L480-309.154l-22.231-22.231 63.692-63.692-70.538-69.538H309.154v-30.77h111l-128.231-128.23L149.077-480 480-149.077l143.615-142.846Zm92.847-50.692L695-364.077 810.923-480 480-810.923 364.077-695l-21.462-21.462L480-853.846 853.846-480 716.462-342.615ZM605.154-453.923l26.077-25.308-170.846-170.846-26.077 25.308 170.846 170.846Zm-84.923-85.154Zm-62.462 81.308Z"/></svg>