<svg xmlns="http://www.w3.org/2000/svg" width="48" height="48" viewBox="0 -960 960 960"><path d="M190.77-563.08v372.31h578.46v-372.31H190.77Zm0-30.77h578.46v-175.38H190.77v175.38Zm289.08 321.47q-23.47 0-39.35-16.38-15.88-16.37-15.88-40.55 0-23.92 15.57-54.5 15.58-30.57 39.81-57.81 24.23 28.77 39.81 58.58 15.57 29.81 15.57 53.73 0 24.18-16.03 40.55-16.03 16.38-39.5 16.38Zm228.07-398.16q7.46-7.46 7.46-18.69t-7.46-18.69q-7.46-7.46-18.69-7.46t-18.69 7.46q-7.46 7.46-7.46 18.69t7.46 18.69q7.46 7.46 18.69 7.46t18.69-7.46ZM160-160v-640h640v640H160Zm30.77-433.85v-175.38 175.38Z"/></svg>