<svg xmlns="http://www.w3.org/2000/svg" width="48" height="48" viewBox="0 96 960 960"><path d="M109.231 902.154v-680h355.384v161.923h386.154v341.538H820V414.846H464.615v131.923H560v30.77h-95.385v131.153H560v30.77h-95.385v131.923h207.308v30.769H109.231ZM140 871.385h131.923V739.462H140v131.923Zm0-162.693h131.923V577.539H140v131.153Zm0-161.923h131.923V414.846H140v131.923Zm0-162.692h131.923V252.923H140v131.154Zm162.692 487.308h131.154V739.462H302.692v131.923Zm0-162.693h131.154V577.539H302.692v131.153Zm0-161.923h131.154V414.846H302.692v131.923Zm0-162.692h131.154V252.923H302.692v131.154Zm514.154 598.077V899h-83.385v-30.769h83.385v-84.154h30.77v84.154h83.153V899h-83.153v83.154h-30.77ZM667.308 577.539v-30.77h30.769v30.77h-30.769Zm0 161.923v-30.77h30.769v30.77h-30.769Z"/></svg>