<svg xmlns="http://www.w3.org/2000/svg" width="48" height="48" viewBox="0 -960 960 960"><path d="M109.231-153.846v-680h355.384v161.923h386.154v341.538H820v-310.769H464.615v131.923H560v30.77h-95.385v131.153H560v30.77h-95.385v131.923h207.308v30.769H109.231ZM140-184.615h131.923v-131.923H140v131.923Zm0-162.693h131.923v-131.153H140v131.153Zm0-161.923h131.923v-131.923H140v131.923Zm0-162.692h131.923v-131.154H140v131.154Zm162.692 487.308h131.154v-131.923H302.692v131.923Zm0-162.693h131.154v-131.153H302.692v131.153Zm0-161.923h131.154v-131.923H302.692v131.923Zm0-162.692h131.154v-131.154H302.692v131.154ZM816.846-73.846V-157h-83.385v-30.769h83.385v-84.154h30.77v84.154h83.153V-157h-83.153v83.154h-30.77ZM667.308-478.46v-30.77h30.769v30.77h-30.769Zm0 161.923v-30.77h30.769v30.77h-30.769Z"/></svg>