<svg xmlns="http://www.w3.org/2000/svg" width="48" height="48" viewBox="0 -960 960 960"><path d="M676-94.77 654.77-116l147.61-148.62H664.62v-30.76h190.76v190.76h-30.76v-138L676-94.77ZM278.62-160q-41.08 0-76.2-20.04-35.11-20.04-56.04-54.11-19.92-34.85-20.42-74.31t20.42-74.31l48.47-81.85h153.07L525.85-160H278.62Zm-65.7-335.38 135.85-229.93q20.92-34.84 55.54-54.77Q438.92-800 480-800q40.85 0 75.08 19.92 34.23 19.93 55.15 54.77l59.69 101.08L594-495.38H212.92Zm360.77 95.84L688-594.46l75.38 127.54q-53.3-2.62-102.07 14.61-48.77 17.23-87.62 52.77Z"/></svg>