<svg xmlns="http://www.w3.org/2000/svg" width="48" height="48" viewBox="0 -960 960 960"><path d="M268.41-120q-61.79 0-105.1-43.87Q120-207.75 120-269.39q0-61.64 43.35-105.01 43.35-43.37 105.03-43.37 26 0 49.5 8.15 23.5 8.16 42.74 21.93 37.53-44.39 39.15-93.81 1.61-49.42-34.92-92.81-19.47 15.54-43.76 24.69-24.3 9.16-51.71 9.16-61.74 0-105.56-44.05Q120-628.55 120-690.62q0-61.42 43.87-105.4Q207.75-840 269.57-840q61.81 0 105.51 43.56 43.69 43.57 43.69 105.82 0 27.63-8.98 51.63-8.99 24-24.64 43.61 44.16 36.3 92.85 34.92 48.69-1.39 93.85-38.16-15.31-19.23-22.97-42.26-7.65-23.04-7.65-49.74 0-61.16 43.13-104.77Q627.48-839 690.05-839t106.26 43.62Q840-751.76 840-690.57q0 62.72-43.79 106.03t-105.59 43.31q-27.73 0-52.98-9.65-25.26-9.66-45.49-26.2-37.53 44.62-35.77 95.7 1.77 51.07 39.54 96.46 20.23-15.54 43.9-24.2 23.67-8.65 50.8-8.65 61.8 0 105.59 43.36Q840-331.04 840-269.34q0 62.72-43.84 106.03Q752.31-120 690.44-120q-62.59 0-105.9-43.79t-43.31-105.59q0-26.41 8.65-50.71 8.66-24.29 24.2-43.53-45.94-38.49-96.09-39.86-50.14-1.37-96.07 36.17 17.54 20.23 27.2 44.96 9.65 24.73 9.65 52.97 0 62.51-43.78 105.95Q331.2-120 268.41-120Zm422.21-452q49.91 0 84.26-34.27 34.35-34.27 34.35-84.08 0-48.8-34.27-83.34-34.27-34.54-84.08-34.54-49.8 0-84.34 34.63Q572-738.97 572-690.62q0 20.16 5.42 37.77 5.43 17.62 16.04 31.93l90.92-89.16 20.47 19.7-90.62 92.15q15.54 12.61 35.01 19.42Q668.7-572 690.62-572Zm-421.24.77q20.67 0 38.88-6.58 18.2-6.57 34.28-18.42l-95.16-94.15 22-20.47 94.39 93.39q11.85-15.31 18.04-33.85 6.19-18.53 6.19-39.31 0-49.38-34.65-84-34.64-34.61-84.07-34.61-49.43 0-83.97 34.61-34.54 34.62-34.54 84 0 50.31 34.61 84.85 34.62 34.54 84 34.54Zm421.5 420.46q49.81 0 84.08-34.27 34.27-34.27 34.27-84.08 0-49.8-34.35-83.84Q740.53-387 690.62-387q-20.67 0-38.38 6.31-17.7 6.31-33.78 17.92l94.16 94.15-21.77 21.24L596-341.31q-11.62 15.85-17.81 33.69-6.19 17.85-6.19 38.24 0 49.91 34.54 84.26 34.54 34.35 84.34 34.35Zm-422.01 0q49.76 0 84.45-34.35Q388-219.47 388-269.38q0-21.79-6.92-40.55-6.93-18.76-19.54-35.07l-99.39 97.85-22-21.23 98.16-97.39q-15.08-10.61-32.43-15.92-17.34-5.31-37.5-5.31-48.35 0-82.98 34.17t-34.63 83.71q0 49.53 34.67 83.94t83.43 34.41Zm211.1-303.61q9.95 0 17.3-6.8 7.35-6.79 7.35-17.27 0-10.47-7.32-17.82t-17.27-7.35q-9.95 0-17.3 7.32-7.35 7.32-7.35 17.8t7.32 17.3q7.32 6.82 17.27 6.82Z"/></svg>