<svg xmlns="http://www.w3.org/2000/svg" width="48" height="48" viewBox="0 0 48 48"><path d="M24 24ZM6 18.9V10h36v14h-1.55V11.55H7.55v7.35ZM6 38v-8.9h1.55v7.35h14.4V38Zm30 5.3-2.65-2.25q-3.85-3.3-4.95-4.65-1.1-1.35-1.1-2.8 0-1.75 1.225-3.025T31.5 29.3q.9 0 1.725.4.825.4 1.625 1.25l1.15 1 1.1-1q.8-.8 1.625-1.225.825-.425 1.775-.425 1.7 0 2.95 1.275Q44.7 31.85 44.7 33.6q0 1.45-1.15 2.825-1.15 1.375-5.1 4.775Zm0-2.05 1.65-1.4q3.45-2.95 4.475-4.1 1.025-1.15 1.025-2.15 0-1.1-.8-1.925t-1.85-.825q-.65 0-1.175.25t-1.075.85L36 34.05l-2.3-2.1q-.55-.6-1.075-.85-.525-.25-1.125-.25-1.1 0-1.875.825-.775.825-.775 1.925 0 .95 1.275 2.375T34.4 39.9ZM6 24.75v-1.5h4.45L14 30.3l8.25-16.55h-.55l4.75 9.5h6.3v1.5H25.5l-3.55-7-8.3 16.55h.55l-4.7-9.55Zm30 11.3Z"/></svg>