<svg xmlns="http://www.w3.org/2000/svg" width="48" height="48" viewBox="0 -960 960 960"><path d="M480-119.231Q339-243.923 267.577-351.808q-71.423-107.884-71.423-196.346 0-126.923 82.654-209.385Q361.461-840 480-840q30.539 0 59.077 5.923 28.539 5.923 54.846 17.538L572-793.846q-21.461-7.693-44.385-11.923Q504.692-810 480-810q-109 0-181.038 73.846-72.039 73.846-72.039 188 0 76.539 68.462 180.808Q363.846-263.077 480-160.538q117.615-102.539 185.346-206.808 67.731-104.269 67.731-180.808 0-28.231-4.615-53.461-4.616-25.231-12.847-48.462L738.539-673q12.154 28.384 18.73 59.461 6.577 31.077 6.577 65.385 0 88.462-71.423 196.346Q621-243.923 480-119.231Zm0-428.923Zm229.923-237.385-12.538-12.538-211.539 212.308v21.385h21.385l212.308-211.539-9.616-9.616Zm39.308-20.846L783.616-840l-22.154-22.154-34.385 34.384 22.154 21.385Z"/></svg>