<svg xmlns="http://www.w3.org/2000/svg" width="48" height="48" viewBox="0 96 960 960"><path d="M285.095 760.385q-41.403 0-69.993-29.116-28.589-29.115-28.589-69.423h-78.821V423.538h275.385v207.539h178.692l153.923-191.923V298.846H595v-30.769h151.462v180.538l-168 213.231H383.077q0 40.308-28.29 69.423-28.289 29.116-69.692 29.116Zm-.326-30.77q27.616 0 47.577-20.077 19.962-20.077 19.962-47.692H217.231q0 27.615 19.961 47.692 19.962 20.077 47.577 20.077ZM227.692 342v-30.77h155.385V342H227.692Zm526.634 418.385q-41.403 0-70.018-28.29-28.616-28.29-28.616-69.692 0-41.403 28.29-70.018 28.29-28.616 69.692-28.616 41.403 0 70.018 28.29 28.616 28.289 28.616 69.692 0 41.403-28.29 70.018-28.289 28.616-69.692 28.616Zm-.326-30.77q27.615 0 47.577-19.961 19.961-19.962 19.961-47.577T801.577 614.5Q781.615 594.539 754 594.539T706.423 614.5q-19.961 19.962-19.961 47.577t19.961 47.577q19.962 19.961 47.577 19.961ZM521.538 1001.92 321.769 900.538H454v-67.769l199.769 100.385H521.538v68.766Z"/></svg>