<svg xmlns="http://www.w3.org/2000/svg" width="48" height="48"><path d="M24.1 43.2q-.6 0-.95-.425t-.65-1.025q-.7-1.3-1.7-2.625T18 35.45q-1.6-2-2.25-3.65-.65-1.65-.65-3.65 0-3.7 2.6-6.3 2.6-2.6 6.3-2.6 3.7 0 6.275 2.6t2.575 6.3q0 2-.65 3.65T30 35.45q-1.85 2.3-2.85 3.675t-1.7 2.625q-.3.6-.55 1.025-.25.425-.8.425zm-.05-12.45q1 0 1.725-.75.725-.75.725-1.8t-.725-1.75q-.725-.7-1.775-.7-1 0-1.75.725t-.75 1.775q0 1.05.75 1.775.75.725 1.8.725zm-7.25-16.6-1.05-1.1q1.75-1.45 3.85-2.25T24 10q2.3 0 4.45.8 2.15.8 3.85 2.25l-1.05 1.1q-1.5-1.3-3.35-1.95-1.85-.65-3.85-.65t-3.875.65q-1.875.65-3.375 1.95zM11.15 8.5 10.1 7.4q2.9-2.6 6.45-4Q20.1 2 24 2q3.95 0 7.55 1.425 3.6 1.425 6.5 4.025l-1.15 1.1q-2.65-2.45-5.975-3.725Q27.6 3.55 24 3.55q-3.6 0-6.9 1.225Q13.8 6 11.15 8.5z"/></svg>