<svg xmlns="http://www.w3.org/2000/svg" width="48" height="48"><path d="M20.55 41.25V29.4l2.85-8.25h15.5l2.85 8.25v11.85H40.1V37.7H22.2v3.55zm1.85-13.1h17.55L38 22.45H24.3zm-.55 1.3v6.95zm3.3 5.1q.75 0 1.25-.5t.5-1.25q0-.7-.5-1.225-.5-.525-1.25-.525t-1.25.525q-.5.525-.5 1.225 0 .7.5 1.225.5.525 1.25.525zm12 0q.7 0 1.225-.5.525-.5.525-1.25 0-.7-.525-1.225-.525-.525-1.225-.525-.75 0-1.25.525t-.5 1.225q0 .7.5 1.225.5.525 1.25.525zM12.7 25.5v-2.9h2.9v2.9zm8.15-10.45v-2.9h2.9v2.9zM12.7 33.4v-2.95h2.9v2.95zm0 7.85V38.3h2.9v2.95zm-6.45 0v-25.1h8.15V5.7h15.85v10.4H28.7V7.25H15.95V17.7h-8.2v23.55zm15.6-4.85h18.6v-6.95h-18.6z"/></svg>