<svg xmlns="http://www.w3.org/2000/svg" width="48" height="48" viewBox="0 -960 960 960"><path d="M419.385-235.923q13.23 11 28.346 15.615 15.115 4.615 29.346 4.615 30.461 0 54.692-19.23Q556-254.154 560-289.154q5-47.462-30.231-70.808-35.231-23.346-52.923-60.577-5 14.231-4.884 26 .115 11.77 2.884 26.462 3 18.461 7.231 33.346 4.231 14.885 1 33.115-4.231 19.923-22.231 38.808t-41.461 26.885ZM120-120v-720h720v720H120Zm30.769-30.769h116.923v-30.77h122.154q-29.692-21.384-46.731-55.307-17.038-33.923-17.038-69.846 0-41.616 12.23-77.462 12.231-35.846 32.962-66.039 20.731-30.192 47.692-54.5 26.962-24.307 56.424-42.846 15.692 47.077 41.73 81 26.039 33.923 68.731 67.308 25.539 21.077 36.693 44.692 11.154 23.616 11.154 50.077 0 34.154-14.539 67.039-14.538 32.884-47 55.884h120.154v30.77h116.923v-658.462H150.769v658.462Z"/></svg>