<svg xmlns="http://www.w3.org/2000/svg" width="48" height="48" viewBox="0 96 960 960"><path d="M480.134 936Q405 936 339.263 908.276q-65.738-27.724-114.75-76.691-49.012-48.966-76.763-114.642Q120 651.268 120 576.134q0-74.903 27.724-140.641 27.724-65.737 76.691-114.749 48.966-49.012 114.642-76.878Q404.732 216 479.866 216q74.903 0 140.641 27.839 65.737 27.84 114.749 76.806 49.012 48.967 76.878 114.642Q840 500.963 840 575.866q0 75.134-27.839 140.871-27.84 65.738-76.806 114.75-48.967 49.012-114.642 76.763Q555.037 936 480.134 936ZM294 524.154l56-57 56 57L428.154 502l-57-56 57-56L406 367.846l-56 57-56-57L271.846 390l57 56-57 56L294 524.154Zm186 381.077q138.077 0 233.654-95.577T809.231 576q0-68.923-25.616-128.615Q758 387.692 713.539 342.461L246.461 809.539Q291.692 854 351.385 879.615 411.077 905.231 480 905.231Zm82-126.077L486.077 704 508 681.846l53.231 53.231 100-99L683.154 658 562 779.154Z"/></svg>