<svg xmlns="http://www.w3.org/2000/svg" width="48" height="48" viewBox="0 96 960 960"><path d="M89.23 591.385v-30.77h196.616v30.77H89.231Zm241.001-143.154-69.231-70 21.231-22 70 70-22 22Zm134.384-66.385V185.23h30.77v196.616h-30.77Zm165.154 66.385-22-22 70-70 22 22-70 70Zm44.385 143.154v-30.77H870.77v30.77H674.154ZM480 648q-30.513 0-51.257-20.743Q408 606.513 408 576q0-30.513 20.743-51.257Q449.487 504 480 504q30.513 0 51.257 20.743Q552 545.487 552 576q0 30.513-20.743 51.257Q510.513 648 480 648Zm199.692 149.693-71.923-71.924 22-22 71.924 71.923-22.001 22.001Zm-399.384 0-22.001-22.001 71.924-71.923 22 22-71.923 71.924ZM464.615 966.77V770.154h30.77V966.77h-30.77Z"/></svg>