<svg xmlns="http://www.w3.org/2000/svg" width="48" height="48" viewBox="0 -960 960 960"><path d="M724.616-100.769H464.615v-140.462q-94.461-5.615-159.538-74.23Q240-384.077 240-480v-400h480v400q0 95.923-65.077 164.539-65.077 68.615-159.538 74.23v109.693h229.231v30.769ZM554.615-415.385h124q5.308-15.846 7.962-31.807 2.654-15.962 2.654-32.808v-64.615H540v-30.77h149.231v-129.23H500v-30.77h189.231v-113.846H270.769v353.846h110q28.154 0 52.193 10.385 24.038 10.385 41.73 30.154 17.385 19.461 37.885 29.461 20.5 10 42.038 10Z"/></svg>