<svg xmlns="http://www.w3.org/2000/svg" width="48" height="48" viewBox="0 -960 960 960"><path d="M193.85-144.62q-39.68 0-67.54-27.85Q98.46-200.32 98.46-240q0-23.04 10.5-43.33t29.5-34.75V-500H230v-220h238l173.69 404.46q5.46 12.69 9.58 26.72 4.11 14.03 4.11 28.82 0 47.7-33.84 81.54T540-144.62q-37.23 0-67.54-22-30.31-22-42.46-58H288.31q-5.39 34.24-32.19 57.12-26.81 22.88-62.27 22.88Zm515.38-40V-780H740v564.62h121.54v30.76H709.23Zm-469.5-9.32q18.73-18.56 18.73-45.88 0-27.33-18.55-46.06-18.56-18.74-45.89-18.74-27.33 0-46.06 18.56-18.73 18.56-18.73 45.88 0 27.33 18.56 46.06 18.55 18.74 45.88 18.74 27.33 0 46.06-18.56ZM599.88-200q24.74-24.61 24.74-59.88t-24.62-60q-24.61-24.74-59.88-24.74t-60 24.62q-24.74 24.61-24.74 59.88t24.62 60q24.61 24.74 59.88 24.74t60-24.62Zm-311.57-55.38h135.91q-.68-25.24 8.93-48.7 9.62-23.46 27.62-40.54h-94L246.85-469.23h-77.62v136.92q5.85-1.54 12.31-2.31 6.46-.76 12.31-.76 35.46 0 62.27 22.88 26.8 22.88 32.19 57.12Zm92.38-120.24h167q10 0 19.62 2.31 9.61 2.31 18.84 6.93L449-689.23H260.77V-500l119.92 124.38Zm-13.92 31-18.62-19.34q-18.61-19.35-41.34-42.96-22.73-23.62-41.35-42.96l-18.61-19.35h-77.62 77.62l119.92 124.61h94-94Z"/></svg>