<svg xmlns="http://www.w3.org/2000/svg" width="48" height="48" viewBox="0 -960 960 960"><path d="m267.308-863.154 21.461-23L663-512.923 421.692-269.308 181.384-513.693l218.847-216.538-132.923-132.923ZM422.461-708 226.538-513.616h391.077L422.461-708Zm317.231 455.461q-23.846 0-40.23-16.384-16.385-16.385-16.385-40.231 0-16.231 7.231-31.616 7.23-15.384 17.384-31 7.231-10.692 15.654-21.846t16.346-21.846q7.923 10.692 16.347 21.846 8.423 11.154 14.884 21.846 10.154 15.616 17.385 31 7.231 15.385 7.231 31.616 0 23.846-16.385 40.231-16.385 16.384-39.462 16.384ZM80 .231v-61.77h800V.231H80Z"/></svg>