<svg xmlns="http://www.w3.org/2000/svg" width="48" height="48" viewBox="0 -960 960 960"><path d="M421.692-269.308 181.384-513.693l218.847-216.538-132.923-132.923 21.461-23L663-512.923 421.692-269.308ZM422.461-708l-179 177.461q-3.846 3.846-5 8.077-1.153 4.231-1.153 8.846h369.538q0-4.615-1.538-8.846-1.539-4.231-4.616-8.077L422.461-708ZM739.48-252.539q-23.634 0-40.018-16.534-16.385-16.535-16.385-40.081 0-16.579 7.231-31.789 7.23-15.211 17.384-30.827 7.231-10.692 15.654-21.846t16.346-21.846q7.923 10.692 16.347 21.846 8.423 11.154 14.884 21.846 10.154 15.616 17.385 30.827 7.231 15.21 7.231 31.789 0 23.546-16.597 40.081-16.597 16.534-39.462 16.534ZM80 .231v-61.77h800V.231H80Z"/></svg>