<svg xmlns="http://www.w3.org/2000/svg" width="48" height="48" viewBox="0 -960 960 960"><path d="M227.69-789.23V-820h504.62v30.77H227.69Zm73.43 568.09q-73.43-73.44-73.43-178.88t73.45-178.86q73.44-73.43 178.88-73.43t178.86 73.45q73.43 73.44 73.43 178.88t-73.45 178.86q-73.44 73.43-178.88 73.43t-178.86-73.45Zm332.3-25.11q63.5-63.18 63.5-153.42 0-90.25-63.17-153.75-63.18-63.5-153.42-63.5-90.25 0-153.75 63.17-63.5 63.18-63.5 153.42 0 90.25 63.17 153.75 63.18 63.5 153.42 63.5 90.25 0 153.75-63.17Z"/></svg>