<svg xmlns="http://www.w3.org/2000/svg" width="48" height="48" viewBox="0 -960 960 960"><path d="M712.62-130.92h27.61v-104.62h104.62v-27.61H740.23v-104.62h-27.61v104.62H608v27.61h104.62v104.62Zm13.33 35.38q-64.06 0-109.04-45.11-44.99-45.12-44.99-108.43 0-65.74 44.98-110.64 44.97-44.9 109.55-44.9 63.55 0 108.67 44.9 45.11 44.9 45.11 110.64 0 63.31-45.11 108.43Q790-95.54 725.95-95.54ZM392.38-710.69v-30.77H800v30.77H392.38ZM208.3-187.15q-20.09 0-34.08-13.79-13.99-13.78-13.99-33.48 0-19.71 13.9-33.6 13.9-13.9 33.6-13.9 19.7 0 33.49 14.37Q255-253.18 255-233.54q0 18.81-13.72 32.6-13.72 13.79-32.98 13.79Zm0-245.85q-20.09 0-34.08-13.73-13.99-13.73-13.99-33.27 0-19.54 14.15-33.27Q188.52-527 208.39-527q19.04 0 32.82 13.73Q255-499.54 255-480q0 19.54-13.72 33.27Q227.56-433 208.3-433Zm-34.34-259.81q-13.73-13.73-13.73-33.27 0-19.54 13.73-33.27 13.73-13.73 33.66-13.73 19.92 0 33.65 13.73Q255-745.62 255-726.08q0 19.54-13.73 33.27-13.73 13.73-33.65 13.73-19.93 0-33.66-13.73Zm218.42 474.04v-30.77h88q0 7.54.85 15.23t2.54 15.54h-91.39Zm0-245.85v-30.76h333.7q-32.86 0-62.41 7.74-29.54 7.74-56.05 23.02H392.38Z"/></svg>