<svg xmlns="http://www.w3.org/2000/svg" width="48" height="48" viewBox="0 96 960 960"><path d="M392.308 728.308v-30.77h123.153v-64.461H392.308V503.461H546v29.77H423.077v64.692H546v130.385H392.308ZM480 936q-66.539 0-124.731-24.923-58.192-24.923-101.808-68.538-43.615-43.616-68.538-101.808Q160 682.539 160 616q0-66.539 24.923-124.731 24.923-58.192 68.538-101.808 43.616-43.615 101.808-68.538Q413.461 296 480 296h22.538l-74.153-74.154 21-21 109.308 108.538-107.77 108.539-21-20.231 70.154-70.923H480q-120.385 0-204.808 84.423Q190.769 495.615 190.769 616q0 120.385 84.423 204.808Q359.615 905.231 480 905.231q120.385 0 204.808-84.423Q769.231 736.385 769.231 616H800q0 66.539-24.923 124.731-24.923 58.192-68.538 101.808-43.616 43.615-101.808 68.538Q546.539 936 480 936Z"/></svg>