<svg xmlns="http://www.w3.org/2000/svg" width="48" height="48" viewBox="0 -960 960 960"><path d="M480-292.308q-63.769 0-113.269-38.577-49.5-38.577-66.577-96.807h37.385q16.076 44.769 54.201 72.384 38.124 27.616 88.26 27.616 63.099 0 107.703-44.605Q632.308-416.901 632.308-480q0-63.099-44.605-107.703Q543.099-632.308 480-632.308q-36.692 0-70.154 17.808-33.461 17.808-57.846 46.808h75.692v35.384H292.308v-135.384h35.384v73.923q28.539-32.923 68.385-53.423 39.846-20.5 83.923-20.5 77.892 0 132.792 54.9 54.9 54.9 54.9 132.792t-54.9 132.792q-54.9 54.9-132.792 54.9ZM160-160v-196.615h30.769v165.846h165.846V-160H160Zm443.385 0v-30.769h165.846v-165.846H800V-160H603.385ZM160-603.385V-800h196.615v30.769H190.769v165.846H160Zm609.231 0v-165.846H603.385V-800H800v196.615h-30.769Z"/></svg>