<svg xmlns="http://www.w3.org/2000/svg" width="48" height="48" viewBox="0 -960 960 960"><path d="M646.615-98.461 533.077-212l21.231-21.231 91.307 91.308 176.308-176.308L843.154-296 646.615-98.461ZM292.846-311.615l-21.231-21.231L338.769-400l-67.154-67.154 21.231-21.231L360-421.231l67.154-67.154 21.231 21.231L381.231-400l67.154 67.154-21.231 21.231L360-378.769l-67.154 67.154ZM160-120v-649.231h138.077v-80h35.769v80h295.385v-80h33.462v80H800v328.924l-30.769 31.538V-540H190.769v389.231h258.539L481.616-120H160Z"/></svg>