<svg xmlns="http://www.w3.org/2000/svg" width="48" height="48" viewBox="0 -960 960 960"><path d="M390.62-624.46q-36.77-36.77-36.77-89.39 0-52.61 36.77-89.38Q427.38-840 480-840t89.38 36.77q36.77 36.77 36.77 89.38 0 52.62-36.77 89.39-36.76 36.77-89.38 36.77t-89.38-36.77Zm0 467.69q-36.77-36.77-36.77-89.38 0-52.62 36.77-89.39 36.76-36.77 89.38-36.77t89.38 36.77q36.77 36.77 36.77 89.39 0 52.61-36.77 89.38Q532.62-120 480-120t-89.38-36.77Zm157.03-21.4q27.73-27.41 27.73-67.66t-27.4-67.98q-27.41-27.73-67.65-27.73-40.25 0-67.98 27.41-27.73 27.4-27.73 67.65 0 40.25 27.4 67.98 27.41 27.73 67.65 27.73 40.25 0 67.98-27.4Zm166.2-175.68q-52.27 0-89.21-36.77-36.95-36.76-36.95-89.38t36.95-89.38q36.94-36.77 89.21-36.77 52.26 0 89.21 36.77Q840-532.62 840-480t-36.94 89.38q-36.95 36.77-89.21 36.77Zm-.33-30.77q40.25 0 67.98-27.4 27.73-27.41 27.73-67.65 0-40.25-27.4-67.98-27.41-27.73-67.66-27.73t-67.98 27.4q-27.73 27.41-27.73 67.65 0 40.25 27.41 67.98 27.4 27.73 67.65 27.73Zm-466.57 30.77q-52.6 0-89.77-36.77Q120-427.38 120-480t37.18-89.38q37.17-36.77 89.77-36.77 52.59 0 88.97 36.77 36.39 36.76 36.39 89.38t-36.39 89.38q-36.38 36.77-88.97 36.77Zm-.4-30.77q40.02 0 67.51-27.4 27.48-27.41 27.48-67.65 0-40.25-27.25-67.98-27.24-27.73-67.27-27.73-40.02 0-68.14 27.4-28.11 27.41-28.11 67.65 0 40.25 27.88 67.98 27.88 27.73 67.9 27.73Z"/></svg>