<svg xmlns="http://www.w3.org/2000/svg" width="48" height="48" viewBox="0 -960 960 960"><path d="M120.231-120v-720h720v720h-720Zm208.657-286.077q-10.503 0-18.234-7.92-7.731-7.919-7.731-18.423 0-10.503 7.92-18.234 7.919-7.731 18.423-7.731 10.503 0 18.234 7.92 7.731 7.92 7.731 18.423 0 10.504-7.92 18.234-7.92 7.731-18.423 7.731Zm303.077 0q-10.503 0-18.234-7.92Q606-421.916 606-432.42q0-10.503 7.92-18.234 7.919-7.731 18.423-7.731 10.503 0 18.234 7.92 7.731 7.92 7.731 18.423 0 10.504-7.92 18.234-7.92 7.731-18.423 7.731ZM240.231-255.384H271v-83.385h418.462v83.385h30.769v-249.847l-65.963-190.154H306.461l-66.23 190.154v249.847Zm39.307-269.539 46.923-139.692H634l47.923 139.692H279.538Z"/></svg>