<svg xmlns="http://www.w3.org/2000/svg" width="48" height="48" viewBox="0 -960 960 960"><path d="M479.681-151q18.55 0 35.781-2.385 17.23-2.384 34.23-5.878l-49.428-74.264H356.846v-40.96l81.423-82.359h82.962V-480h-82.462l-40.692-41.128v-82.257h-90.692v-71.461L390.077-796q-103.986 29.055-171.532 115.758Q151-593.539 151-480h41.631v-82.692h164.215v82.359l-41.009 41.179v123.539H195.231q43.453 74.577 118.093 119.596Q387.964-151 479.681-151ZM792-379.077q8-24.263 12.5-49.419 4.5-25.156 4.5-51.852 0-114.998-69.906-202.94Q669.188-771.229 562.692-799v112.672l81.923 83.203v81.663h48.231L792-379.077ZM480.4-120q-75.176 0-140.458-28.339-65.282-28.34-114.246-77.422-48.964-49.082-77.33-114.213Q120-405.106 120-479.982q0-74.875 28.339-140.453 28.34-65.578 77.422-114.206 49.082-48.627 114.213-76.993Q405.106-840 479.982-840q74.875 0 140.453 28.339 65.578 28.34 114.206 76.922 48.627 48.582 76.993 114.257Q840-554.806 840-480.4q0 75.176-28.339 140.458-28.34 65.282-76.922 114.062-48.582 48.78-114.257 77.33Q554.806-120 480.4-120Z"/></svg>