<svg xmlns="http://www.w3.org/2000/svg" width="48" height="48"><path d="M35.15 10.05q-1.3 0-2.25-.95t-.95-2.25q0-1.35.95-2.3.95-.95 2.25-.95 1.35 0 2.3.95.95.95.95 2.3 0 1.3-.95 2.25t-2.3.95zM23.45 45l5.7-29.5-6.6 2.9v7.25h.3L9.2 41.75q-.35-.4-.825-.525T7.45 41.1q-.75 0-1.35.425-.6.425-.9 1.075l-2.2-2q-.3-.25-.475-.6t-.225-.75q-.05-.4.075-.775t.375-.675l5.45-6.4q.25-.3.6-.475t.75-.175q.4-.05.775.075T11 31.2l3.15 2.7L21 25.8v-8.5l8.9-3.65q1.45-.6 2.65-.375 1.2.225 1.85 1.275l2 3.2q1.4 2.15 3.625 3.65T45 23.15v1.55q-3.35-.15-6.025-2.15-2.675-2-4.425-5.05l-2.15 9.9 4.45 4.2V45H35.3V33.65l-6.35-5.95-4 17.3zm-17.3-1.3q0-.55.4-.925t.9-.375q.55 0 .925.375t.375.925q0 .5-.375.9t-.925.4q-.5 0-.9-.4t-.4-.9z"/></svg>