<svg xmlns="http://www.w3.org/2000/svg" width="48" height="48" viewBox="0 96 960 960"><path d="M800 801.77 769.231 771v-79.615h-79.615l-30.77-30.77h110.385V487H599.769v113.769L569 570v-83h-83l-30.769-30.769H569V286.769H395.154v109.385l-30.77-30.77v-78.615H285L254.23 256H800v545.77ZM599.769 456.231h169.462V286.769H599.769v169.462Zm286.077 564.459L760.154 896H160V295.615L34.077 169.923l22.23-21 850.77 850.539-21.231 21.228ZM599.769 865.231h129.616L599.769 735.616v129.615ZM395.154 660.615H526L395.154 531v129.615Zm0 204.616H569V704.616l-13.462-13.231H395.154v173.846Zm-204.385-409h130.384L190.769 324.615v131.616Zm0 204.384h173.615V500.231L351.923 487H190.769v173.615Zm0 204.616h173.615V691.385H190.769v173.846Z"/></svg>