<svg xmlns="http://www.w3.org/2000/svg" width="48" height="48" viewBox="0 -960 960 960"><path d="M658.231-568.461 635-591.692q5.462-13.154 7.423-26.057 1.962-12.904 1.962-27.097 0-68.231-48.645-116.308-48.644-48.077-115.74-48.077-14.923 0-28.962 2.462-14.038 2.461-24.192 6.154l-22.692-22.693q14.538-6.615 33.961-11.654Q457.538-840 480-840q81.827 0 138.491 56.663 56.663 56.664 56.663 138.491 0 19.487-4.038 39.513-4.039 20.025-12.885 36.872Zm4.231 148.615-67.231-68Q573-470.538 543.515-460.5 514.03-450.461 480-450.461q-81.827 0-138.491-56.279-56.663-56.279-56.663-138.011 0-30.634 9.038-60.249 9.039-29.615 29.116-55.077l-65.385-63.846 21.231-23.539 405.616 405.616-22 22Zm-88.693-89.923L344.923-739.385q-15.154 22.616-22.231 46.616-7.077 24-7.077 47.923 0 67.461 48.645 115.538 48.644 48.077 115.74 48.077 26.767 0 49.576-6.807 22.809-6.808 44.193-21.731Zm263.385 409.692v-80h-80v-30.538h80v-80h30.538v80h80v30.538h-80v80h-30.538Zm-297.539 7.77v-219.77h172.462v132.462h-46.308l38.462 87.307h-33.769l-36-83.384h-65.308v83.384h-29.539Zm29.539-114.155h112.384v-75.307H569.154v75.307ZM12.308-92.308v-219.769h29.538v81.692h111.692v-81.692h29.539v219.77h-29.539v-107.77H41.846v107.77H12.308Zm263.384 0v-219.769h116.616q22.769 0 38.461 15.692 15.693 15.693 15.693 39.231v110.693q0 22.769-15.693 38.461-15.692 15.692-38.461 15.692H275.692ZM306-121.846h86.308q9.231 0 16.923-7.692 7.692-7.693 7.692-16.923v-110.693q0-9.231-7.692-16.923-7.692-7.692-16.923-7.692H306v159.923Z"/></svg>