<svg xmlns="http://www.w3.org/2000/svg" width="48" height="48" viewBox="0 -960 960 960"><path d="M267.231-106.538 106.077-268.461 693-855.385l161.923 161.154-587.692 587.693Zm427.308 0L499.692-301.384l160.385-160.385 194.846 194.846-160.384 160.385ZM481.135-387.692q13.363 0 22.653-9.261 9.289-9.261 9.289-22.951 0-13.363-9.424-22.268-9.425-8.905-22.788-8.905t-22.268 9.04q-8.905 9.04-8.905 22.403 0 13.69 9.04 22.816t22.403 9.126Zm-61.692-61.693q13.69 0 22.816-9.261 9.126-9.26 9.126-22.95 0-13.691-9.261-22.817t-22.951-9.126q-13.69 0-22.816 9.261t-9.126 22.951q0 13.69 9.261 22.816 9.26 9.126 22.951 9.126Zm123.154 0q13.363 0 22.652-9.261 9.29-9.26 9.29-22.95 0-13.691-9.261-22.817t-22.951-9.126q-13.363 0-22.268 9.261-8.905 9.261-8.905 22.951 0 13.69 9.04 22.816 9.039 9.126 22.403 9.126Zm-240.674-51.077L107.615-695.769l159.616-159.616 195.307 194.308-160.615 160.615Zm179.212-10.384q13.363 0 22.653-9.261 9.289-9.261 9.289-22.951 0-13.69-9.261-22.816T480.865-575q-13.363 0-22.268 9.261-8.905 9.261-8.905 22.951 0 13.69 9.04 22.816t22.403 9.126Z"/></svg>