<svg xmlns="http://www.w3.org/2000/svg" width="48" height="48" viewBox="0 0 48 48"><path d="M5 36V12h24v24Zm28-14V12h10v10Zm1.55-1.55h6.9v-6.9h-6.9Zm-28 14h20.9v-20.9H6.55ZM33 36V26h10v10Zm1.55-1.55h6.9v-6.9h-6.9Zm-28 0v-20.9 20.9Zm28-14v-6.9 6.9Zm0 14v-6.9 6.9ZM22 30.75q.75 0 1.25-.5t.5-1.25q0-.75-.5-1.25t-1.25-.5q-.75 0-1.25.5t-.5 1.25q0 .75.5 1.25t1.25.5Zm-10.1-.6L23.15 18.9l-1.05-1.05L10.85 29.1Zm.1-9.4q.75 0 1.25-.5t.5-1.25q0-.75-.5-1.25t-1.25-.5q-.75 0-1.25.5t-.5 1.25q0 .75.5 1.25t1.25.5Z"/></svg>