<svg xmlns="http://www.w3.org/2000/svg" width="48" height="48" viewBox="0 -960 960 960"><path d="M210.769-266.154h538.462q41.461 0 70.731-29.269 29.269-29.269 29.269-70.731v-223.077q0-41.461-29.269-70.731-29.27-29.269-70.731-29.269H210.769q-41.461 0-70.731 29.269-29.269 29.27-29.269 70.731v223.077q0 41.462 29.269 70.731 29.27 29.269 70.731 29.269ZM320-209.23v-26.154H210.769q-55.154 0-92.962-37.808Q80-311 80-366.154v-223.077q0-55.154 37.807-92.962Q155.615-720 210.769-720h538.462q55.154 0 92.962 37.807Q880-644.385 880-589.231v223.077q0 55.154-37.807 92.962-37.808 37.808-92.962 37.808H640v26.154H320Zm160-268.847Z"/></svg>