<svg xmlns="http://www.w3.org/2000/svg" width="48" height="48" viewBox="0 -960 960 960"><path d="M190.769-230.769h296.308q6 8.308 11.577 15.615 5.577 7.308 12.5 15.154H160v-640h640v273.923q-7.077-3.692-14.769-7.538-7.692-3.847-16-7.616v-228H190.769v404.769H360q13.615 29 36.577 49.616 22.961 20.615 53.731 27.846 1.077 9.077 3.23 16.769 2.154 7.693 4.154 15.77-35.461-5.231-65.384-25.731-29.923-20.5-46.308-53.5H190.769v142.923Zm0 0h296.308-296.308Zm488.539 40-1.154-28.769q-26.846-6.231-45.846-16.962-19-10.73-34.539-29.115l-25.846 13.846-18.846-25.538L578-295.769q-9.615-24.385-9.615-48.039 0-23.653 9.615-48.807l-24.923-19.231 18.846-26.539 25.846 14.616q14.77-16.616 34.539-28.116 19.769-11.5 45.846-17.73l1.154-29h30.769l1.385 29q25.308 5.461 45.077 16.961 19.769 11.5 35.307 28.885l25.847-14.616 18.846 26.539-24.923 19.231q9.615 25.154 9.231 49.192-.385 24.039-10 47.654l25.692 18.462-18.846 25.538-25.847-13.846Q776.308-248 757.308-236.884q-19 11.115-45.846 17.346l-1.385 28.769h-30.769Zm15.385-58.077q40.153 0 68-27.846 27.846-27.846 27.846-68 0-40.154-27.846-68.385-27.847-28.231-68-28.231-40.924 0-68.77 28.231-27.846 28.231-27.846 68.385t27.846 68q27.846 27.846 68.77 27.846Z"/></svg>