<svg xmlns="http://www.w3.org/2000/svg" width="48" height="48" viewBox="0 96 960 960"><path d="M480 426.769Zm-360 220v-440h720v440H652.539q.846-7.077 1.846-15.154t1-15.615h153.846V237.538H150.769V616h153.846q0 7.538 1 15.615t1.846 15.154H120Zm180-184.308 23.434-52.258 52.258-23.434-52.258-23.434L300 311.077l-23.434 52.258-52.258 23.434 52.258 23.434L300 462.461Zm359.787-78.384q15.928 0 27.109-10.584 11.181-10.584 11.181-26.511 0-15.928-11.149-27.109-11.15-11.181-27.077-11.181-15.928 0-26.543 11.149-10.616 11.15-10.616 27.077 0 15.928 10.584 26.543 10.584 10.616 26.511 10.616ZM240 945.231v-56.308q0-23.461 12.961-43.846 12.962-20.385 34.962-30 45.923-20.692 93.923-31.423 48-10.731 98.154-10.731 50.154 0 98.154 10.731 48 10.731 93.923 31.423 22 9.615 34.962 29.817Q720 865.096 720 888.666v56.565H240Zm30.769-30.769h418.462v-25.539q0-14.452-8.462-26.495-8.461-12.043-22.384-18.505-42.231-20-86.9-30.115-44.669-10.115-91.308-10.115-46.639 0-91.485 10.115t-87.077 30.115q-13.923 6.462-22.384 18.505-8.462 12.043-8.462 26.495v25.539ZM480 717.539q-41.846 0-70.923-29.077Q380 659.385 380 617.538q0-41.846 29.077-70.923 29.077-29.077 70.923-29.077 41.846 0 70.923 29.077Q580 575.692 580 617.538q0 41.847-29.077 70.924-29.077 29.077-70.923 29.077Zm-.326-30.77q28.711 0 49.134-20.097 20.423-20.097 20.423-48.808 0-28.71-20.097-49.133-20.098-20.424-48.808-20.424-28.711 0-49.134 20.098-20.423 20.097-20.423 48.808 0 28.71 20.097 49.133 20.098 20.423 48.808 20.423Zm.326-69.231Zm0 296.924Z"/></svg>