<svg xmlns="http://www.w3.org/2000/svg" width="48" height="48" viewBox="0 -960 960 960"><path d="M822.78-313.46q-16.16 0-27.16-10.55t-11-26.76v-100q0-16.2 10.9-27.14 10.91-10.94 27.08-10.94 15.4 0 26.4 10.94 11 10.94 11 27.14v100q0 16.21-10.91 26.76t-26.31 10.55Zm-13.55 148.84v-62.92q-49.46-8-78.85-40.42-29.38-32.42-31.92-80.89h26.16q1.23 40.47 29.23 67.93 28.01 27.46 68.84 27.46 40.06 0 68.07-27.28 28.01-27.28 29.24-68.11h26.15q-2.53 48.47-31.53 80.89t-79.24 40.33v63.01h-26.15ZM364.38-515.38q-45.46-1.54-75.03-33.04-29.58-31.5-29.58-80.81t29.58-80.81q29.57-31.5 75.03-33.04-.95 0 1.57-.04 2.51-.03 4.82.43-19.08 21-28.12 48.42-9.03 27.42-9.03 65.04 0 37.61 8.65 64.27 8.65 26.65 28.5 49.19-2.54.69-4.81.54-2.27-.15-1.58-.15Zm-287.46 300v-57.85q0-22.39 11.35-40.69 11.35-18.31 36.88-35 18.23-12 47.62-20.96 29.38-8.97 63.38-13.89-35.76 17.92-50.5 46.15-14.73 28.24-14.73 64.39v57.85h-94Zm360.96-332.35q-33.5-33.89-33.5-81.5 0-47.62 33.5-81.5 33.51-33.89 81.51-33.89 48 0 81.88 33.89 33.88 33.88 33.88 81.5 0 47.61-33.88 81.5-33.88 33.88-81.88 33.88-48 0-81.51-33.88Zm81.89 3.11q34.92 0 59.77-24.96t24.85-59.65q0-35.69-24.85-60.15-24.85-24.47-59.77-24.47-35.46 0-60.04 24.47-24.58 24.46-24.58 60.15 0 34.69 24.58 59.65t60.04 24.96ZM241.69-215.38v-57.85q0-25 15.04-46.58 15.04-21.57 40.89-33.27 45.46-21.77 103.88-37.42 58.42-15.65 118.27-15.65 22.69 0 49.65 3.96 26.96 3.96 49.89 10.11-1.39 6.54-2.69 14.89-1.31 8.34-2.54 14.88-22.77-6.92-47.93-10-25.15-3.07-46.38-3.07-64.31 0-115.54 14.57Q353-346.23 310.85-326q-18.31 8.77-28.35 23.04-10.04 14.27-10.04 29.73v27.08h367.85q4.84 7.53 10.23 14.96 5.38 7.42 11.54 15.81H241.69Zm278.08-413.85Zm0 383.08Z"/></svg>