<svg xmlns="http://www.w3.org/2000/svg" width="48" height="48" viewBox="0 -960 960 960"><path d="M80-160v-280h80v-183.769h-40v-134.693h280v134.693h-40V-440h240v-183.769h-40v-134.693h280v134.693h-40V-440h80v280H80Zm510.769-495.385h218.462v-72.308H590.769v72.308Zm-440 0h218.462v-72.308H150.769v72.308Zm480 215.385h138.462v-184.615H630.769V-440Zm-440 0h138.462v-184.615H190.769V-440Zm-55.385 249.231h689.232q10.769 0 17.692-6.923t6.923-17.692v-169.232q0-10.769-6.923-17.692t-17.692-6.923H135.384q-10.769 0-17.692 6.923t-6.923 17.692v169.232q0 10.769 6.923 17.692t17.692 6.923Zm15.385-464.616v-72.308 72.308Zm440 0v-72.308 72.308Zm-480 464.616v-218.462 218.462Z"/></svg>