<svg xmlns="http://www.w3.org/2000/svg" width="48" height="48" viewBox="0 96 960 960"><path d="M480 913.693q-69.592 0-118.642-49.05-49.051-49.05-49.051-118.643V391.385h-56.923V208.307h449.232v183.078h-56.923l-.77 365.384q-3.846 66.077-51.546 111.501-47.7 45.423-115.377 45.423ZM286.154 360.615h387.692V239.077H286.154v121.538ZM480 882.923q53.308 0 91.577-34.846t44.654-86.692H500v-30.77h116.923v-89.23H500v-30.77h116.923v-89.23H500v-30.77h116.923v-99.23H343.077V746q0 57.693 39.615 97.308 39.616 39.615 97.308 39.615ZM286.154 360.615V239.077v121.538Z"/></svg>