<svg xmlns="http://www.w3.org/2000/svg" width="48" height="48" viewBox="0 -960 960 960"><path d="M415.31-120v-220.54l56.84-165.77h311L840-340.54V-120h-33.69v-63.15H449V-120h-33.69Zm38.38-249h347.93l-37.24-111.15H490.92L453.69-369Zm74 128.31q14.69 0 24.93-10.23 10.23-10.23 10.23-24.54 0-14.31-10.23-24.54-10.24-10.23-24.93-10.23T502.77-300q-10.23 10.23-10.23 24.54 0 14.31 10.23 24.54 10.23 10.23 24.92 10.23Zm199.93 0q13.92 0 24.53-10.23 10.62-10.23 10.62-24.54 0-14.31-10.62-24.54-10.61-10.23-24.92-10.23-14.31 0-24.54 10.23-10.23 10.23-10.23 24.54 0 14.31 10.23 24.54 10.23 10.23 24.93 10.23ZM80-200v-46.15h80V-760h600v167.54H410.69l-81.54 238.84V-200H80Z"/></svg>