<svg xmlns="http://www.w3.org/2000/svg" width="48" height="48" viewBox="0 96 960 960"><path d="M163.077 936v-30.769H228V761.923q-31.154-6.154-48.039-28.3-16.884-22.146-16.884-51.315V402.153h161.385v280.155q0 26.339-16.933 50.079-16.933 23.739-48.76 29.536v143.308h65.693V936H163.077Zm30.769-349h99.846V432.923h-99.846V587Zm49.923 145.615q20.462 0 35.192-15.163 14.731-15.164 14.731-35.144v-64.539h-99.846v64.539q0 19.98 14.731 35.144 14.731 15.163 35.192 15.163ZM486.154 936V494.769l122.923-51.615V225.23h103.231v216.693L836.923 493v443H486.154Zm153.692-635.231h41.693V256h-41.693v44.769ZM516.923 610.231h289.231v-99.154l-124.615-50.539V331.539h-41.693v128.999L516.923 511.18v99.051Zm0 295h289.231V788.385H516.923v116.846Zm0-147.616h289.231V641H516.923v116.615Zm-273.538-25Zm273.538 25V641v116.615Z"/></svg>