<svg xmlns="http://www.w3.org/2000/svg" width="48" height="48" viewBox="0 -960 960 960"><path d="M481.643-761.308q-19.566 0-33.605-13.91Q434-789.128 434-808q0-15.254 10.038-31.473 10.039-16.22 37.424-46.681 27.384 30.461 37.423 46.681 10.038 16.219 10.038 31.473 0 18.872-13.857 32.782-13.858 13.91-33.423 13.91Zm-196.001 0q-18.956 0-33.107-13.91T238.384-808q0-15.154 9.654-31.423 9.654-16.27 37.808-46.731 27.385 30.461 37.039 46.681 9.653 16.219 9.653 31.473 0 18.872-13.969 32.782-13.97 13.91-32.927 13.91Zm390.77 0q-18.957 0-33.107-13.91-14.151-13.91-14.151-32.782 0-15.154 9.654-31.423 9.654-16.27 37.807-46.731 27.385 30.461 37.039 46.681 9.654 16.219 9.654 31.473 0 18.872-13.97 32.782-13.969 13.91-32.926 13.91ZM160-80v-310.923L245-640h470l85 249.077V-80h-31v-81.692H190.769V-80H160Zm43-341.693h554l-65-187.538H268l-65 187.538Zm-12.231 30.77v198.462-198.462Zm99.892 141.538q17.57 0 29.608-12.219 12.039-12.219 12.039-30.039 0-17.819-12.22-30.088Q307.869-334 290.299-334q-17.571 0-30.089 12.45-12.518 12.45-12.518 30.269 0 17.82 12.699 29.858t30.27 12.038Zm379.814 0q17.344 0 29.704-12.219t12.36-30.039q0-17.819-12.541-30.088Q687.457-334 670.113-334t-29.767 12.45q-12.423 12.45-12.423 30.269 0 17.82 12.604 29.858t29.948 12.038Zm-479.706 56.924h578.462v-198.462H190.769v198.462Z"/></svg>