<svg xmlns="http://www.w3.org/2000/svg" width="48" height="48" viewBox="0 -960 960 960"><path d="M400.154-383.769 480-444.846l77.616 59.539-31.462-96.001 82.923-61.384h-98.769L480-639.231l-30.308 96.539h-98.769l80.923 61.384-31.692 97.539Zm79.846 262q-120.769-36.538-200.385-147.885Q200-381 200-519.154v-213.385l280-104.615 280 104.615v213.385q0 138.154-79.615 249.5Q600.769-158.307 480-121.769Zm0-32.769Q588.846-189.461 659.039-291.5q70.192-102.038 70.192-227.654v-192.154L480-804.692l-249.231 93.384v192.154q0 125.616 70.192 227.654Q371.154-189.461 480-154.538Zm0-324.693Z"/></svg>