<svg xmlns="http://www.w3.org/2000/svg" width="48" height="48" viewBox="0 -960 960 960"><path d="M710.69-247.23q27.93-28.31 27.93-68.62 0-41.07-27.93-69-27.92-27.92-69-27.92-41.07 0-69 27.92-27.92 27.93-27.92 69.39t27.92 69q27.93 27.54 69 27.54 41.08 0 69-28.31Zm-69 59.08q-52.77 0-90.23-37.47Q514-263.08 514-315.85q0-53 37.46-90.34 37.46-37.35 90.23-37.35 53 0 90.35 37.35 37.34 37.34 37.34 90.34 0 23-6.88 42.85t-20.42 36.31L840-140.31 820.46-120l-97.15-96.92q-16.69 14-37.04 21.38-20.35 7.39-44.58 7.39ZM160-174.31V-730l195.15-66.92 250.7 87.38L800-785.92v330.54q-29.54-36.31-70.81-55.31t-87.5-19q-12.84 0-26.46 1.84-13.61 1.85-27.23 5.23v-163.53l-216-74.47v503.08l-212 83.23Z"/></svg>