<svg xmlns="http://www.w3.org/2000/svg" width="48" height="48" viewBox="0 -960 960 960"><path d="M759.928-701.308q-39.774 0-67.543-27.841-27.77-27.842-27.77-67.616t27.842-67.543q27.842-27.769 67.615-27.769 39.774 0 67.543 27.841 27.77 27.842 27.77 67.616t-27.842 67.543q-27.842 27.769-67.615 27.769ZM120-156.923V-840h470.077q-2.462 7.077-4.077 14.884-1.615 7.808-2.154 15.885-.308 31.846 7.423 59.269T615-699.769H260V-669h377.308q24.615 23.077 56 35.385 31.384 12.307 66.692 12.307 21.462 0 41.577-5.231 20.116-5.23 38.423-16.23v362.981H243.077L120-156.923Zm140-387.462h440v-30.769H260v30.769Zm0 124.616h276.846v-30.77H260v30.77Z"/></svg>