<svg xmlns="http://www.w3.org/2000/svg" width="48" height="48" viewBox="0 96 960 960"><path d="M759.955 422.154q-39.801 0-67.57-27.815-27.77-27.814-27.77-67.615 0-39.801 27.815-67.57 27.814-27.77 67.615-27.77 39.801 0 67.57 27.815 27.77 27.814 27.77 67.615 0 39.801-27.815 67.571-27.814 27.769-67.615 27.769ZM120 856V296h467.077q-1.462 7.307-2.077 15-.615 7.692-.923 15.769.154 31.923 11.038 60.5 10.885 28.577 30.5 50.808L480 534.769 163.077 325.308l-12.308 24.923L480 570.154l165-110.308q22.821 20 52.41 31.154Q727 502.154 760 502.154q21.462 0 41.577-5.616 20.116-5.615 38.423-15.846V856H120Z"/></svg>