<svg xmlns="http://www.w3.org/2000/svg" width="48" height="48" viewBox="0 96 960 960"><path d="M807.462 946.231 636.923 776.692l-64.385 65.616-21.769-21.769 64.385-65.616L410.769 549.77v223.153q0 49.923-33.884 82.654-33.885 32.731-81.501 32.731-47.615 0-81.5-32.346Q180 823.616 180 772.923q0-48.385 33.5-81.885 33.5-33.5 81.884-33.5 29.077 0 51.154 11.077T380 693.692V519L126.692 265.923l22.231-22.231 680.539 680.539-22 22Zm8.076-136.077L551.154 546.308 571 526.461l122.077 122.077V448.692h11.769L835.615 581 729.923 685.154l105.692 104.923-20.077 20.077Zm-94-158L795 581l-73.462-74.231v145.385ZM410.769 405.385 380 374.615V263.692h192.462v89.616H410.769v52.077Z"/></svg>