<svg xmlns="http://www.w3.org/2000/svg" width="48" height="48" viewBox="0 -960 960 960"><path d="M480-241.077q-71 0-140.5-6.461Q270-254 200-261.923v-81.846q-46.846-12.923-76.116-50.539Q94.615-431.923 94.615-480q0-47.846 29.769-84.846 29.77-37 75.616-50.154v-107.846q70 7.923 139.5 14.384Q409-702 480-702t140.5-6.846q69.5-6.847 139.5-14V-615q45.846 13.154 75.616 50.154 29.769 37 29.769 84.846 0 47.846-29.769 84.962Q805.846-357.923 760-344v82.077q-70 7.154-139.5 14T480-241.077Zm0-125.538q43.923 0 86.231-5.731 42.308-5.731 84.231-16.731v-31.231q-41.923 11-84.231 16.962-42.308 5.961-86 5.961-42.923 0-85.731-5.961-42.808-5.962-84.731-16.962v32q41.923 11 84.231 16.347 42.308 5.346 86 5.346Zm-280-8.154v-210q-33.385 12-54 40.577-20.616 28.577-20.616 64.192 0 35.615 20.616 64.308 20.615 28.692 54 40.923ZM760-375q33.385-12.231 54-40.808 20.616-28.577 20.616-64.192 0-35.385-20.731-63.961Q793.154-572.538 760-585v210ZM480-524.615q43.923 0 86.231-5.731 42.308-5.731 84.231-16.731v-31.231q-41.923 11-84.231 16.962-42.308 5.961-86 5.961-42.923 0-85.731-5.961-42.808-5.962-84.731-16.962v32q41.923 11 84.231 16.347 42.308 5.346 86 5.346Z"/></svg>