<svg xmlns="http://www.w3.org/2000/svg" width="48" height="48" viewBox="0 96 960 960"><path d="M480.147 976q-100.224 0-170.186-69.857Q240 836.286 240 736V416q0-100.286 69.814-170.143T479.853 176q100.224 0 170.186 69.857Q720 315.714 720 416v320q0 100.286-69.814 170.143T480.147 976Zm.152-580q16.086 0 27.893-12.106Q520 371.787 520 355.701q0-16.086-12.106-27.893Q495.787 316 479.701 316q-16.086 0-27.893 12.106Q440 340.213 440 356.299q0 16.086 12.106 27.893Q464.213 396 480.299 396ZM368.016 571.385q11.907 0 19.638-8.055 7.731-8.055 7.731-19.962t-8.055-19.637Q379.275 516 367.368 516t-19.637 8.055Q340 532.109 340 544.016q0 11.907 8.055 19.638 8.054 7.731 19.961 7.731Zm112.308 0q11.907 0 19.638-8.055 7.73-8.055 7.73-19.962t-8.054-19.637Q491.583 516 479.676 516t-19.638 8.055q-7.73 8.054-7.73 19.961 0 11.907 8.054 19.638 8.055 7.731 19.962 7.731Zm112.308 0q11.907 0 19.637-8.055Q620 555.275 620 543.368t-8.055-19.637Q603.891 516 591.984 516q-11.907 0-19.638 8.055-7.731 8.054-7.731 19.961 0 11.907 8.055 19.638 8.055 7.731 19.962 7.731ZM368.016 683.692q11.907 0 19.638-8.054 7.731-8.055 7.731-19.962t-8.055-19.638q-8.055-7.73-19.962-7.73t-19.637 8.054Q340 644.417 340 656.324t8.055 19.638q8.054 7.73 19.961 7.73Zm224.616 0q11.907 0 19.637-8.054Q620 667.583 620 655.676t-8.055-19.638q-8.054-7.73-19.961-7.73-11.907 0-19.638 8.054-7.731 8.055-7.731 19.962t8.055 19.638q8.055 7.73 19.962 7.73Zm-112.308 0q11.907 0 19.638-8.054 7.73-8.055 7.73-19.962t-8.054-19.638q-8.055-7.73-19.962-7.73t-19.638 8.054q-7.73 8.055-7.73 19.962t8.054 19.638q8.055 7.73 19.962 7.73ZM368.016 796q11.907 0 19.638-8.055 7.731-8.054 7.731-19.961 0-11.907-8.055-19.638-8.055-7.731-19.962-7.731t-19.637 8.055Q340 756.725 340 768.632t8.055 19.637Q356.109 796 368.016 796Zm224.616 0q11.907 0 19.637-8.055Q620 779.891 620 767.984q0-11.907-8.055-19.638-8.054-7.731-19.961-7.731-11.907 0-19.638 8.055-7.731 8.055-7.731 19.962t8.055 19.637Q580.725 796 592.632 796Zm-112.308 0q11.907 0 19.638-8.055 7.73-8.054 7.73-19.961 0-11.907-8.054-19.638-8.055-7.731-19.962-7.731t-19.638 8.055q-7.73 8.055-7.73 19.962t8.054 19.637Q468.417 796 480.324 796Z"/></svg>