<svg xmlns="http://www.w3.org/2000/svg" width="48" height="48" viewBox="0 96 960 960"><path d="m320 335.692-85.231-85.231L256 229.23l85.231 85.231L320 335.692Zm320 0-21.231-21.231L704 229.23l21.231 21.231L640 335.692Zm-175.385-45.846V139.077h30.77v150.769h-30.77ZM160 1016V705.077L245 456h470l85 249.077V1016h-30.769v-81.692H190.769V1016H160Zm43-341.693h554l-65-187.538H268l-65 187.538Zm-12.231 229.232V705.077v198.462Zm99.656-56.924q17.806 0 29.844-12.469 12.039-12.469 12.039-29.789 0-18.152-12.47-30.254Q307.369 762 290.299 762q-17.904 0-30.255 12.215-12.352 12.215-12.352 30.269 0 18.055 12.464 30.093t30.269 12.038Zm380.05 0q17.677 0 29.87-12.469 12.194-12.469 12.194-29.789 0-18.152-12.306-30.254Q687.928 762 670.348 762q-17.579 0-30.002 12.215-12.423 12.215-12.423 30.269 0 18.055 12.854 30.093t29.698 12.038Zm-479.706 56.924h578.462V705.077H190.769v198.462Z"/></svg>