<svg xmlns="http://www.w3.org/2000/svg" width="48" height="48"><path d="M14.35 33.2q-3.1-1.15-4.975-3.825Q7.5 26.7 7.5 23.4q0-2.75 1.075-4.975 1.075-2.225 2.5-3.975t2.975-2.975Q15.6 10.25 16.5 9.55v2.25q0 1.9 1.325 3.225 1.325 1.325 3.225 1.325.75 0 1.425-.275T23.7 15.4l.6-.5q1.4 1 2.325 2.375Q27.55 18.65 28 20.25l-6 6q-.05-.15-.15-.275-.1-.125-.2-.225L18 22.1l-3.7 3.7q-.75.75-1.15 1.7-.4.95-.4 1.95 0 1.15.4 2.075.4.925 1.2 1.675zm1.55-.8q-.75-.45-1.2-1.225-.45-.775-.45-1.725 0-.7.3-1.375t.85-1.175l2.6-2.65 2.6 2.6q.1.1.2.225t.1.275zm-5.4 12.55-1.1-1.1L41.85 11.4l1.1 1.1L32.45 23h10.5v1.5H30.9l-3.65 3.65 4.15 4.1h11.55v1.55H32.9l7.55 7.55-1.05 1.1-7.6-7.6v10.1h-1.5V33.3l-4.15-4.1-3.65 3.65v12.1h-1.55V34.4z"/></svg>