<svg xmlns="http://www.w3.org/2000/svg" width="48" height="48" viewBox="0 -960 960 960"><path d="M480.235-409.231q29.457 0 49.996-20.773 20.538-20.774 20.538-50.231t-20.773-49.996q-20.774-20.538-50.231-20.538t-49.996 20.773q-20.538 20.774-20.538 50.231t20.773 49.996q20.774 20.538 50.231 20.538ZM480.4-120q-75.176 0-140.294-28.339-65.119-28.34-114.247-77.422-49.127-49.082-77.493-114.213Q120-405.106 120-480.366q0-74.491 28.339-140.069 28.34-65.578 77.422-114.206 49.082-48.627 114.213-76.993Q405.106-840 480.366-840q74.491 0 140.069 28.339 65.578 28.34 114.206 76.922 48.627 48.582 76.993 114.257Q840-554.806 840-480.4q0 75.176-28.339 140.294-28.34 65.119-76.922 114.062-48.582 48.944-114.257 77.494Q554.806-120 480.4-120Z"/></svg>