<svg xmlns="http://www.w3.org/2000/svg" width="48" height="48" viewBox="0 96 960 960"><path d="M60 916V425.242q-18-8.473-29-22.457t-11-32.756q0-15.51 13.962-37.077 13.961-21.568 41.423-47.26 27.461 25.692 41.423 47.26 13.961 21.567 13.961 37.077 0 18.772-11 32.572-11 13.8-29 22.861V636h133.846V473.538h85.231q-22.231-21.23-33.731-46.077-11.5-24.846-11.5-52.955 0-33.684 15.83-62.629 15.83-28.946 44.016-46.646L480 159.846l155.539 105.385q28.186 17.787 44.016 46.867 15.83 29.079 15.83 62.433 0 28.084-11.5 52.93-11.5 24.847-33.731 46.077h85.231V636h133.846V425.462q-18-9.061-29-22.861t-11-32.572q0-15.51 13.961-37.077 13.962-21.568 41.423-47.26 27.462 25.692 41.424 47.26Q940 354.519 940 370.029q0 18.772-11 32.572-11 13.8-29 23.255V916H544.615V711.385h-129.23V916H60Zm336-441.231h168q42.364 0 71.49-28.981 29.125-28.98 29.125-71.134 0-26.346-12.038-48.423-12.039-22.077-32.673-35.964L480 197.231l-139.904 93.036q-20.634 13.887-32.673 35.964-12.038 22.077-12.038 48.423 0 42.154 29.125 71.134 29.126 28.981 71.49 28.981ZM90.77 885.231h293.845V680.615h190.77v204.616h293.846V666.769H704.615v-161.23h-449.23v161.23H90.769v218.462ZM480 505.539Zm0-30.77Zm0-1.231Z"/></svg>