<svg xmlns="http://www.w3.org/2000/svg" width="48" height="48" viewBox="0 -960 960 960"><path d="m521.846-123.077 188.385-327.385 187.385 327.385h-375.77Zm187.275-24.615q5.341 0 9.456-3.786 4.115-3.786 4.115-9.346 0-5.56-4.115-9.291-4.115-3.731-9.456-3.731-5.341 0-8.962 3.654-3.62 3.654-3.62 9.038 0 5.693 3.62 9.577 3.621 3.885 8.962 3.885Zm-12.582-73.462h26.153v-152.692h-26.153v152.692ZM225.308-476.923h29.702q13.144 70.154 62.952 119.461 49.807 49.308 118.961 62.452v29.702q-81.846-13.307-140.077-71.538-58.231-58.231-71.538-140.077Zm211.615-297.769v29.702q-70.154 13.144-119.461 62.452-49.308 49.307-62.452 119.461h-29.702q13.307-81.846 71.538-140.077 58.231-58.231 140.077-71.538Zm43.433 199.307q22.49 0 38.759 16.279 16.27 16.279 16.27 39.106 0 22.846-16.279 39.115-16.279 16.27-39.106 16.27-22.846 0-39.115-16.27-16.27-16.269-16.27-39.471 0-22.49 16.27-38.759 16.269-16.27 39.471-16.27Zm42.721-199.307q81.846 13.307 140.077 71.538 58.231 58.231 71.538 140.077H704.99q-13.144-70.154-62.452-119.461-49.307-49.308-119.461-62.452v-29.702ZM120-683.385V-880h196.615v30.769H150.769v165.846H120ZM316.615-160H120v-196.615h30.769v165.846h165.846V-160Zm492.616-523.385v-165.846H643.385V-880H840v196.615h-30.769Z"/></svg>