<svg xmlns="http://www.w3.org/2000/svg" width="48" height="48" viewBox="0 96 960 960"><path d="M295.385 756q-6.539 0-10.962-4.485T280 740.4q0-6.631 4.423-10.9t10.962-4.269h282.384q-37.154-26.385-56.384-62.539-19.231-36.153-21.693-71.307H366.154q-6.539 0-10.962-4.485-4.423-4.486-4.423-11.116t4.423-10.899q4.423-4.27 10.962-4.27h133.538q4-36.461 23.24-72.641 19.239-36.18 54.837-61.205H155.385q-6.539 0-10.962-4.485T140 411.169q0-6.631 4.423-10.9T155.385 396H680q74.7 0 127.35 52.617Q860 501.233 860 575.886t-52.65 127.383Q754.7 756 680 756H295.385Zm384.38-30.769q62.081 0 105.773-43.457 43.693-43.457 43.693-105.539 0-62.081-43.457-105.773-43.457-43.693-105.539-43.693-62.081 0-105.773 43.457-43.693 43.457-43.693 105.539 0 62.081 43.457 105.773 43.457 43.693 105.539 43.693Zm-564.38-133.846q-6.539 0-10.962-4.485Q100 582.414 100 575.784t4.423-10.899q4.423-4.27 10.962-4.27H300q6.538 0 10.962 4.485 4.423 4.486 4.423 11.116t-4.423 10.899q-4.424 4.27-10.962 4.27H115.385Zm40 164.615q-6.539 0-10.962-4.485T140 740.4q0-6.631 4.423-10.9t10.962-4.269h73.846q6.538 0 10.961 4.485t4.423 11.115q0 6.631-4.423 10.9T229.231 756h-73.846Z"/></svg>