<svg xmlns="http://www.w3.org/2000/svg" width="48" height="48" viewBox="0 -960 960 960"><path d="m294.615-168.461-22.231-22.231 92.923-92.154q-109.846 2.923-192.961-63.5Q89.231-412.769 89.231-520q0-101.615 73.038-170.808Q235.307-760 337.692-760H420v30.769h-81.539q-89.692 0-154.077 60.154Q120-608.923 120-520q0 93.308 75.461 151.346 75.462 58.039 173.616 56.039l-96.693-96.693 22.231-22.231L426.154-300 294.615-168.461ZM540-200v-232.308h300V-200H540Zm0-327.692V-760h300v232.308H540Zm30.769-30.77h238.462v-170.769H570.769v170.769Z"/></svg>