<svg xmlns="http://www.w3.org/2000/svg" width="48" height="48" viewBox="0 -960 960 960"><path d="m249.31-100.77-199-198.46 35.07-36.31L200-309.23V-660h30.77v292.31h83.15v-170.77h30.77v170.77h82.93v-110.77h30.76v110.77h83.16v-15.39h30.77v146.93q0 56.84-39.27 96.11-39.27 39.27-96.12 39.27H249.31Zm400.65-471.54q-70.81 0-131.5-36.54-60.69-36.53-97.23-97.3 36.54-60.77 97.25-97.31T650.25-840q71.83 0 132.13 36.54 60.31 36.54 97.62 97.81-36.08 61.27-97.27 97.3-61.19 36.04-132.77 36.04Zm47.35-86.89q19.07-19.19 19.07-47.07t-19.19-46.96q-19.2-19.08-46.69-19.08-27.5 0-46.96 19.2-19.46 19.19-19.46 47.08 0 27.88 19.58 46.95Q623.24-640 650.73-640q27.5 0 46.58-19.2Zm-72.19-21.87q-10.27-10.29-10.27-25.11t10.29-25.09q10.3-10.27 25.5-10.27 15.21 0 25.09 10.3 9.89 10.29 9.89 25.11t-9.92 25.09q-9.91 10.27-25.11 10.27-15.21 0-25.47-10.3Z"/></svg>