<svg xmlns="http://www.w3.org/2000/svg" width="48" height="48" viewBox="0 -960 960 960"><path d="M480-100q-74.539 0-127.269-52.65Q300-205.3 300-280v-400q0-74.7 52.617-127.35Q405.233-860 479.886-860t127.383 52.65Q660-754.7 660-680v200H480v84.615q-31.462 0-53.423 22.145-21.962 22.144-21.962 53.24 0 30.154 22.145 51.827Q448.904-246.5 480-244.615V-100Zm109.231 0v-18.384q0-42.616 42.731-58.001 42.732-15.384 92.472-15.384 49.739 0 92.653 15.384Q860-161 860-118.384V-100H589.231Zm135.235-180q-23.466 0-39.351-16.034-15.884-16.035-15.884-39.5 0-23.466 16.034-39.351 16.035-15.884 39.5-15.884 23.466 0 39.35 16.034Q780-358.7 780-335.235q0 23.466-16.034 39.351Q747.931-280 724.466-280Zm-244.527 6.538q-19.708 0-33.093-13.296-13.384-13.297-13.384-33.006 0-19.708 13.296-33.626 13.297-13.918 33.006-13.918 19.708 0 33.626 13.83t13.918 33.539q0 19.708-13.83 33.093-13.83 13.384-33.539 13.384ZM480-564.615q31.096 0 53.24-22.145 22.145-22.144 22.145-53.24 0-31.096-22.145-53.24-22.144-22.145-53.24-22.145-31.096 0-53.24 22.145-22.145 22.144-22.145 53.24 0 31.096 22.145 53.24 22.144 22.145 53.24 22.145Z"/></svg>