<svg xmlns="http://www.w3.org/2000/svg" width="48" height="48"><path d="M27.4 37.95q-.25.25-.525.45t-.625.2q-.3 0-.65-.1-.35-.1-.6-.35l-6.5-5.4q-2.1-1.75-3.025-4.325Q14.55 25.85 15 23.2l-2.4-2.05q-.25-.2-.375-.475-.125-.275-.175-.625-.05-.3.025-.625.075-.325.275-.575l.75-.95H8.45v6.2q0 .65-.45 1.1-.45.45-1.1.45v-17q.65 0 1.1.475.45.475.45 1.075v6.2h6l3.35-4.15q.25-.25.55-.4.3-.15.6-.2.4-.05.725.05.325.1.575.35l2.3 1.95q2.6-.95 5.3-.475 2.7.475 4.8 2.225l6.5 5.4q.25.25.45.55.2.3.2.65 0 .3-.1.625t-.35.575z"/></svg>