<svg xmlns="http://www.w3.org/2000/svg" width="48" height="48" viewBox="0 -960 960 960"><path d="m590.769-559.308-99.23-100q-29.385-28.615-65.174-45.038Q390.575-720.77 350-720.77q-59.308 0-106.346 30.27-47.039 30.269-72.885 82.192 25.615-51.923 72.769-82.192Q290.692-720.77 350-720.77q40.575 0 76.365 16.424 35.789 16.423 65.174 45.038l99.23 100ZM59.999-265.385v-670.769h55.447q23.554 0 39.438 15.928 15.885 15.928 15.885 39.457v116.23q22.846-51.615 69.769-83.923T347-880.77h243.769v321.462l66.539 65.769L376-212.23 210.231-377q-12-12-22.116-25.5Q178-416 170.769-431v110.231q0 22.846-15.928 39.115-15.928 16.269-39.457 16.269H60ZM347-850q-69.923 0-116.962 50.192-47.038 50.193-45.5 121.116 0 10 1.539 19.23 1.538 9.231 3.846 18.462 27.615-36.77 69.269-58.27 41.654-21.5 90.808-21.5 40.575 0 76.365 16.424 35.789 16.423 65.174 45.038L560-590.077V-850H347ZM181.538-517.769q0 34.287 13.199 64.413 13.199 30.125 37.724 54.894L376-254.923l237.846-238.616-146.307-145.538q-23.693-24.462-53.885-37.692Q383.462-690 350-690q-71.385 0-119.923 50.796-48.539 50.795-48.539 121.435Zm586.155 177h-90.77v-30.77h90.77v30.77Zm-88.847 169.308-63.923-63.924 21.231-21.23 63.923 63.923-21.231 21.231ZM500-103.846v-90.769h30.769v90.769H500Zm-102.308-369Z"/></svg>