<svg xmlns="http://www.w3.org/2000/svg" width="48" height="48"><path d="M24 22.2q-1.4 0-2.35-.95-.95-.95-.95-2.35 0-1.4.95-2.35.95-.95 2.35-.95 1.4 0 2.35.95.95.95.95 2.35 0 1.4-.95 2.35-.95.95-2.35.95zm-8.55 18.85q0-.65.475-1.1.475-.45 1.075-.45h6.25q0-3.2-1.55-6t-4.25-4.55q-2.55-1.7-4-4.35Q12 21.95 12 18.9q0-5 3.5-8.5T24 6.9q5 0 8.5 3.5t3.5 8.5q0 3.1-1.45 5.775Q33.1 27.35 30.5 29q-2.7 1.65-4.225 4.475Q24.75 36.3 24.75 39.5H31q.6 0 1.05.475.45.475.45 1.075zM24 29.35q4.35 0 7.4-3.05 3.05-3.05 3.05-7.4 0-4.4-3.025-7.45T24 8.4q-4.35 0-7.4 3.05-3.05 3.05-3.05 7.45 0 4.35 3.025 7.4Q19.6 29.35 24 29.35z"/></svg>