<svg xmlns="http://www.w3.org/2000/svg" width="48" height="48" viewBox="0 -960 960 960"><path d="M766.923-459.846v-278.231h61.539v278.231h-61.539ZM281.308-155 89.768-345l43.155-43.846 143.461 29.076V-735q0-25.2 17.375-42.6 17.375-17.4 42.539-17.4t42.625 17.4q17.462 17.4 17.462 42.6v202.769h44.308l196.615 96.077L588.529-155H281.308ZM295-185.769h266.934l40.912-231.308-173.769-87.154h-63.462V-735q0-13.154-8.082-21.192-8.082-8.039-21.308-8.039-13.225 0-21.148 8.039-7.923 8.038-7.923 21.192v412.077l-162.462-33L134-345.231l161 159.462Zm0 0h267.154H295Z"/></svg>