<svg xmlns="http://www.w3.org/2000/svg" width="48" height="48" viewBox="0 -960 960 960"><path d="M373.846-176.923q-52.154 0-89.154-37-37-37-37-89.154v-318.462q0-67.615 47.346-114.577 47.346-46.961 114.193-46.961h141.538q67.616 0 114.577 46.961 46.962 46.962 46.962 114.577v318.462q0 52.154-37 89.154-37 37-89.154 37H373.846Zm.115-276.923q10.577 0 18.308-7.846T400-480.115q0-10.577-7.865-18.308-7.866-7.731-18.289-7.731-10.461 0-18.308 7.866-7.846 7.865-7.846 18.288 0 10.462 7.846 18.308 7.847 7.846 18.423 7.846Zm106.154 0q10.577 0 18.308-7.846t7.731-18.423q0-10.577-7.866-18.308-7.865-7.731-18.288-7.731-10.462 0-18.308 7.866-7.846 7.865-7.846 18.288 0 10.462 7.846 18.308t18.423 7.846Zm106.154 0q10.577 0 18.308-7.846t7.731-18.423q0-10.577-7.866-18.308-7.865-7.731-18.288-7.731-10.462 0-18.308 7.866Q560-490.423 560-480q0 10.462 7.846 18.308t18.423 7.846Z"/></svg>