<svg xmlns="http://www.w3.org/2000/svg" width="48" height="48" viewBox="0 -960 960 960"><path d="M480-100q-74.54 0-127.27-52.65Q300-205.3 300-280v-400q0-74.7 52.62-127.35Q405.23-860 479.89-860q74.65 0 127.38 52.65Q660-754.7 660-680v200H480v84.62q-31.46 0-53.42 22.14T404.62-320q0 30.15 22.14 51.83Q448.9-246.5 480-244.62V-100Zm109.23 0v-18.38q0-42.62 42.59-58 42.59-15.39 92.61-15.39 50.03 0 92.8 15.39Q860-161 860-118.38V-100H589.23Zm95.89-196.03q-15.89-16.04-15.89-39.5 0-23.47 16.04-39.35 16.03-15.89 39.5-15.89 23.46 0 39.35 16.04Q780-358.7 780-335.23q0 23.46-16.03 39.35Q747.93-280 724.47-280q-23.47 0-39.35-16.03Zm-238.27 9.27q-13.39-13.3-13.39-33 0-19.71 13.3-33.63 13.3-13.92 33-13.92 19.71 0 33.63 13.83 13.92 13.83 13.92 33.54t-13.83 33.09q-13.83 13.39-33.54 13.39t-33.09-13.3Zm86.57-300q21.96-22.14 21.96-53.24t-21.96-53.24q-21.96-22.14-53.42-22.14t-53.42 22.14Q404.62-671.1 404.62-640t21.96 53.24q21.96 22.14 53.42 22.14t53.42-22.14Z"/></svg>