<svg xmlns="http://www.w3.org/2000/svg" width="48" height="48" viewBox="0 96 960 960"><path d="M301.538 754.462h356.924V397.538H495.385q-13.693 0-22.231 8.539-8.539 8.538-8.539 22.23v118.001q-7.307 3.171-12.884 10.61-5.577 7.44-5.577 19.082 0 14.462 8.923 24.154T480 609.846q13.692 0 23.769-9.692 10.077-9.692 10.077-24.154 0-11.993-5.692-19.035t-12.769-10.657V428.307h132.308v295.386H332.307V428.307h73.77v-30.769H301.538v356.924ZM160 896V256h640v640H160Zm30.769-30.769h578.462V286.769H190.769v578.462Zm0 0V286.769v578.462Z"/></svg>