<svg xmlns="http://www.w3.org/2000/svg" width="48" height="48" viewBox="0 -960 960 960"><path d="m376.615-594.692-95.154-94.693q30.539-19.307 64.385-30.73 33.846-11.424 70.308-13.731h-4.615q-19.077 28.154-27.231 60.884-8.154 32.731-8.923 66.808 0 2.616.115 5.731.115 3.115 1.115 5.731Zm311.154 313.846-55.231-55.769q22.462 1.692 44.308-1 21.846-2.693 43.616-10.539-6 18-14.039 34.885-8.038 16.884-18.654 32.423ZM583.384-531.692 696.308-870h50.307l112.924 338.308h-38.154l-27.231-80H648.769l-26.461 80h-38.924ZM658.615-644h125.693l-62.846-192.692L658.615-644Zm107.77 539.385-22.231 22.23-123.308-123.538q-38.769 30.154-85 45.731-46.231 15.577-95.846 15.577-122.846 0-209.115-86.27-86.27-86.269-86.27-209.115 0-49.615 15.577-95.846t45.731-85L73.615-753.923l21.462-22.231 671.308 671.539Z"/></svg>