<svg xmlns="http://www.w3.org/2000/svg" width="48" height="48" viewBox="0 -960 960 960"><path d="M809.923-64.846 34.461-840.308l22.231-22.231L832.154-87.077l-22.231 22.231Zm1.308-142.231-27.077-27.846 43.769-429.692h-368L456-695.385h186.539v-169.231h30.769v169.231h189l-51.077 488.308ZM629.846-389ZM97.692-201.384v-30.77h532.616v30.77H97.692Zm0 121.384v-30.769h532.616v30.77H97.692Zm341.539-399.23v30.769q-17.693-3.23-36.116-4.346-18.423-1.115-39.115-1.115-104.077 0-160.462 31-56.384 31-70 73.538h436.308l30.77 30.77H97.692q0-58.539 61.615-112.308 61.616-53.77 204.693-53.77 19.923 0 38.731 1.231 18.807 1.231 36.5 4.231ZM364-349.385Z"/></svg>