<svg xmlns="http://www.w3.org/2000/svg" width="48" height="48" viewBox="0 -960 960 960"><path d="m720-339.077-30.769-30.769v-279.385H403.692L372.923-680h14.769v-136.923H580V-680h140v340.923ZM623.077-436l-26.154-26.154V-580h26.154v144Zm-130-126.923-10-10.769V-580h10v17.077ZM413.846-680h140v-110.77h-140V-680ZM326.1-129.23q-13.1 0-21.908-8.847-8.808-8.846-8.808-21.923H240v-518.846h41.154l29.615 29.615h-40v458.462h418.462v-80L720-240v80.04h-55.384q0 13.037-8.862 21.883-8.862 8.847-21.962 8.847t-21.907-8.847q-8.808-8.846-8.808-21.923H356.923q0 13.154-8.862 21.962-8.861 8.808-21.961 8.808Zm524.592 64.384L75.23-840.308l22.231-22.231L872.923-87.077l-22.231 22.231ZM336.923-260v-363.077l26.154 26.154V-260h-26.154Zm130-233.077 26.154 26.154V-260h-26.154v-233.077Zm130 130 26.154 26.154V-260h-26.154v-103.077Zm-47-146.846Zm-63.692 80.616Z"/></svg>