<svg xmlns="http://www.w3.org/2000/svg" width="48" height="48" viewBox="0 -960 960 960"><path d="M140.154-563.154q0-76.385 32.461-144.654 32.462-68.269 90.077-118.5l21.77 23.462q-53.77 45.308-83.654 107.346-29.885 62.038-29.885 132.346h-30.769Zm649.154 0q0-70.308-29.154-132.346T678-802.846l21-23.462q57.385 50.462 89.231 118.529 31.846 68.068 31.846 144.625h-30.769ZM180-210.769v-30.77h81.692v-312.153q0-76.616 49.885-139.654 49.884-63.039 130.115-77.019v-65.02h76.616v65.077q80.231 13.923 130.231 76.962 50 63.038 50 139.654v312.153H780v30.77H180Zm300-278.077Zm0 393.462q-25.846 0-45.231-18.501-19.384-18.5-19.384-46.115h129.23q0 27.615-18.5 46.115-18.5 18.5-46.115 18.5ZM292.462-241.54h375.307v-312.153q0-77.866-54.611-132.933-54.611-55.067-133.077-55.067-77.927 0-132.773 55.067-54.846 55.067-54.846 132.933v312.153Z"/></svg>