<svg xmlns="http://www.w3.org/2000/svg" width="48" height="48" viewBox="0 -960 960 960"><path d="M159.231-100v-220q0-39.846 27.852-67.615 27.853-27.77 67.532-27.77h80q70.385 0 107.5-39.923 37.116-39.923 37.116-95.461 0-32-19.943-52.923-19.942-20.923-49.288-20.923-20.904 0-35.837-14.933-14.932-14.933-14.932-35.837V-860h31.538v184.615q0 8.462 5.154 14.231T410-655.385q41.538 0 70.769 29.577Q510-596.231 510-550.769q0 68.231-46.154 117.192-46.154 48.962-129.231 48.962h-80q-27.404 0-46.009 18.605Q190-347.404 190-320v220h-30.769Zm231.538-575.385V-860v184.615q0 8.462 5.154 14.231T410-655.385q41.538 0 70.769 29.577Q510-596.231 510-550.769q0 68.231-46.154 117.192-46.154 48.962-129.231 48.962h-80q-27.404 0-46.009 18.605Q190-347.404 190-320v220-220q0-27.404 18.606-46.01 18.605-18.605 46.009-18.605h80q83.077 0 129.231-48.962Q510-482.538 510-550.769q0-45.462-29.231-75.039-29.231-29.577-70.769-29.577-8.923 0-14.077-5.769t-5.154-14.231ZM800-464.231q-7.846-5.615-15.141-11.016-7.296-5.401-15.628-10.061V-520q0-91.846-61-158.231-61-66.384-150.539-66.384-27.827 0-48.144-20.702-20.317-20.702-20.317-47.76V-860H520v46.923l37.692 37.692q101.231 0 171.77 75.923Q800-623.539 800-520v55.769ZM289.231-100v-60q0-39.846 27.852-67.615 27.853-27.77 67.533-27.77h69.999q1.539 8.308 3.154 15.916 1.616 7.607 4.077 14.854h-77.23q-27.404 0-46.01 18.605Q320-187.404 320-160v60h-30.769Zm375.385-107.154q37.23 0 63.23-26t26-63.23q0-37.231-26-63.231t-63.23-26q-37.231 0-63.231 26t-26 63.231q0 37.23 26 63.23t63.231 26ZM830-103.461l-95.523-95.154q-15.092 10.231-32.333 16.231-17.24 6-37.528 6-49.924 0-84.962-35.039-35.039-35.038-35.039-84.961 0-50.693 35.039-85.347 35.038-34.654 84.962-34.654 49.923 0 84.961 34.654 35.039 34.654 35.039 85.347 0 21.77-7.77 41.692-7.769 19.923-20.769 35.615l95.154 95.154L830-103.461Z"/></svg>