<svg xmlns="http://www.w3.org/2000/svg" width="48" height="48" viewBox="0 96 960 960"><path d="M344.615 566.769h30.77V416h-30.77v150.769Zm240 0h30.77V416h-30.77v150.769ZM424.615 776h110.77v-55.534q0-23.466-16.035-39.351-16.034-15.884-39.5-15.884-23.465 0-39.35 15.99-15.885 15.991-15.885 39.394V776Zm55.403 160Q405 936 339.263 908.276q-65.738-27.724-114.75-76.691-49.012-48.966-76.763-114.642Q120 651.268 120 576.249q0-75.018 27.724-140.756 27.724-65.737 76.691-114.749 48.966-49.012 114.642-76.878Q404.732 216 479.751 216q75.018 0 140.756 27.839 65.737 27.84 114.749 76.806 49.012 48.967 76.878 114.642Q840 500.963 840 575.982q0 75.018-27.839 140.755-27.84 65.738-76.806 114.75-48.967 49.012-114.642 76.763Q555.037 936 480.018 936Z"/></svg>