<svg xmlns="http://www.w3.org/2000/svg" width="48" height="48" viewBox="0 -960 960 960"><path d="M80-195.38V-840h347.69v224.62h-76.92q-56.41 0-95.9 39.46-39.49 39.47-39.49 95.85 0 56.38 39.72 96.3 39.71 39.92 96.44 39.92h76.15v148.47H80Zm173.94-502.39q9.06 0 15.44-6.46 6.39-6.45 6.39-15.15t-6.46-15.08q-6.46-6.39-15.17-6.39-9.45 0-15.45 6.46t-6 15.15q0 8.7 6.09 15.09 6.09 6.38 15.16 6.38Zm72.07 242.39q-9.78 0-17.13-7.5-7.34-7.49-7.34-17.27 0-9.77 7.49-17.12 7.5-7.35 17.27-7.35 9.78 0 17.12 7.5 7.35 7.49 7.35 17.27 0 9.77-7.5 17.12-7.49 7.35-17.26 7.35Zm153.84 0q-9.77 0-17.12-7.5-7.35-7.49-7.35-17.27 0-9.77 7.5-17.12 7.49-7.35 17.27-7.35 9.77 0 17.12 7.5 7.35 7.49 7.35 17.27 0 9.77-7.5 17.12-7.49 7.35-17.27 7.35ZM532.31-120v-223.85h76.15q56.41 0 95.9-39.46 39.49-39.47 39.49-95.85 0-56.38-39.49-96.3-39.49-39.92-95.9-39.92h-76.15v-149.24H880V-120H532.31Zm100.62-335.38q-9.78 0-17.12-7.5-7.35-7.49-7.35-17.27 0-9.77 7.5-17.12 7.49-7.35 17.27-7.35 9.77 0 17.12 7.5 7.34 7.49 7.34 17.27 0 9.77-7.49 17.12-7.5 7.35-17.27 7.35Zm73.31-166.54q9.07 0 15.45-6.09 6.39-6.09 6.39-15.16 0-9.06-6.46-15.45-6.47-6.38-15.17-6.38-9.45 0-15.45 6.46t-6 15.17q0 9.45 6.09 15.45t15.15 6Z"/></svg>