<svg xmlns="http://www.w3.org/2000/svg" width="48" height="48" viewBox="0 -960 960 960"><path d="M242.615-150.769h475q-25.153-80.462-37.132-162.885Q668.505-396.077 668.505-480t11.978-166.731q11.979-82.808 37.132-162.5h-475q24.923 79.692 36.154 162.5Q290-563.923 290-480q0 83.923-11.231 166.346t-36.154 162.885ZM200.769-120q19.923-67 39.961-154.615Q260.769-362.231 260.769-480q0-117.769-20.039-205.385Q220.692-773 200.769-840h558.462q-19.923 67-39.192 154.615-19.27 87.616-19.27 205.385 0 117.769 19.27 205.385Q739.308-187 759.231-120H200.769Zm279.462-360Z"/></svg>