<svg xmlns="http://www.w3.org/2000/svg" width="48" height="48" viewBox="0 96 960 960"><path d="M480 760.539q-26.923 0-45.731-18.808-18.808-18.808-18.808-45.731 0-26.923 18.808-45.731 18.808-18.808 45.731-18.808 26.923 0 45.731 18.808 18.808 18.808 18.808 45.731 0 26.923-18.808 45.731-18.808 18.808-45.731 18.808ZM384.615 1036V901.769q-80.461-23.384-117.192-83.692-36.731-60.308-42.038-137.462h30.769q5.077 103 61.923 151.5 56.846 48.5 161.923 48.5t161.923-48.5q56.846-48.5 61.923-151.5h30.769q-4.307 77.154-41.153 137.462-36.847 60.308-118.077 83.692V1036h-190.77ZM216.154 606.769l-92.231-208.077q-17.154 6.539-29.154 11.923Q82.77 416 75.385 416q-5.847 0-10.616-4.154Q60 407.692 60 400.615v-139.23q0-58.308 120.616-101.847Q301.231 116 480 116t299.385 43.538Q900 203.077 900 261.385v139.23q0 7.077-4.769 11.231T884.615 416q-7.384 0-19.384-5.385-12-5.384-29.154-11.923l-92.231 208.077h-42.308l-62-263.846q-42.384-5.769-82.076-8.654-39.693-2.884-77.462-2.884-37.769 0-77.462 2.884-39.692 2.885-82.076 8.654l-62 263.846h-42.308Zm20.308-26.846 49.999-231.308q-40.384 8-68.576 16-28.193 8-64.885 23.077l83.462 192.231Zm487.076 0L807 387.692Q769.538 373.385 741.731 365q-27.808-8.385-68.192-16.385l49.999 231.308ZM90.769 379.461q85.462-38.153 186.231-58.5 100.769-20.346 203-20.346t203 20.346q100.769 20.347 186.231 58.5V257.538q-6-17.153-34.77-36.846-28.769-19.692-78.423-36.077-49.653-16.384-119.192-27.115Q567.308 146.769 480 146.769T323.154 157.5q-69.539 10.731-119.192 27.115-49.654 16.385-78.423 36.077-28.77 19.693-34.77 36.846v121.923ZM480 146.769Z"/></svg>