<svg xmlns="http://www.w3.org/2000/svg" width="48" height="48" viewBox="0 -960 960 960"><path d="M464.615-747.692v-130.77h30.77v130.77h-30.77Zm215.231 89.846-22-23 92.923-92.923 22 23-92.923 92.923Zm67.846 193.231v-30.77h130.77v30.77h-130.77ZM751-187.231l-92.154-92.923 23-23L774-210.231l-23 23ZM280.923-657.077l-94.462-94.462 22.77-21.23 93.692 93.692-22 22Zm-17.846 470.923h164.615q37.18 0 63.205-25.957 26.026-25.957 26.026-63.038 0-37.082-25.07-63.005-25.071-25.923-62.392-25.923h-35.538l-13.385-31.769q-16.684-37.289-50.292-59.183-33.608-21.894-74.861-21.894-59.103 0-100.321 41.149-41.218 41.15-41.218 100.154 0 62.851 43.141 106.159 43.141 43.307 106.09 43.307Zm0 30.77q-74.539 0-127.27-52.731-52.73-52.731-52.73-127.27 0-72.23 50.038-122.269 50.039-50.038 122.27-50.038 53.12 0 96.906 30.961 43.786 30.962 62.171 81.885 51.655 0 91.827 30.512 40.173 30.512 40.173 89.796-1.923 49.077-35.571 84.115-33.649 35.039-83.199 35.039H263.077Zm281.846-134.539q-1.461-7.692-3.308-15-1.846-7.308-3.307-15 49.692-20 80.307-63.231 30.616-43.231 30.616-96.708 0-70.523-49.423-119.946T480-649.231q-65.677 0-114.165 43.443t-53.604 108.326q-7.539-2.23-15.731-3.577-8.193-1.346-15.731-3.576 9.385-75.693 66.346-125.539Q404.077-680 480-680q83.077 0 141.539 58.461Q680-563.077 680-479.658q0 64.581-37.192 116.197-37.192 51.615-97.885 73.538ZM481-480Z"/></svg>