<svg xmlns="http://www.w3.org/2000/svg" width="48" height="48" viewBox="0 -960 960 960"><path d="M700.615-120q-64.973 0-109.871-44.898-44.898-44.898-44.898-109.871 0-64.974 44.934-109.872 44.935-44.898 109.451-44.898 65.358 0 110.256 44.935 44.898 44.934 44.898 109.45 0 65.358-44.898 110.256Q765.589-120 700.615-120Zm62.287-64.154L784.692-206 712-278.84v-108.775h-30.539V-267l81.441 82.846ZM160-160v-640h257.384q3.154-23.462 20.654-39.423 17.5-15.962 41.962-15.962 24.842 0 42.152 15.962 17.31 15.961 20.464 39.423H800v322.615q-8.846-2.846-15.67-5.48-6.824-2.634-15.099-5.366v-281H658.462v75.385H301.538v-75.385H190.769v578.462h300.769q2.693 8.077 6.231 15.269 3.539 7.193 8.923 15.5H160Zm320.135-600q13.788 0 22.98-9.327 9.193-9.328 9.193-23.116t-9.328-22.98q-9.327-9.193-23.115-9.193-13.788 0-22.98 9.328-9.193 9.327-9.193 23.115 0 13.788 9.328 22.981Q466.347-760 480.135-760Z"/></svg>