<svg xmlns="http://www.w3.org/2000/svg" width="48" height="48" viewBox="0 96 960 960"><path d="M700.615 936q-64.527 0-109.648-45.121-45.121-45.121-45.121-109.648 0-64.528 45.157-109.649 45.158-45.121 109.228-45.121 64.912 0 110.033 45.158 45.121 45.157 45.121 109.227 0 64.912-45.121 110.033Q765.143 936 700.615 936Zm62.287-64.154L784.692 850 712 777.16V668.385h-30.539V789l81.441 82.846ZM160 889.693V257.692h248.615q3.923-23.462 21.039-39.423 17.115-15.962 42.306-15.962 23.732 0 41.232 15.962 17.5 15.961 21.424 39.423H792V575q-9.615-3.615-16.439-6.249-6.824-2.634-14.33-5.366V288.461H629.077v93.847H322.923v-93.847H190.769v570.462h297.615q2.693 8.077 6.231 15.269 3.539 7.193 8.923 15.501H160ZM480.135 296q13.788 0 22.98-9.327 9.193-9.328 9.193-23.116t-9.328-22.98q-9.327-9.193-23.115-9.193-13.788 0-22.98 9.328-9.193 9.327-9.193 23.115 0 13.788 9.328 22.981Q466.347 296 480.135 296Z"/></svg>