<svg xmlns="http://www.w3.org/2000/svg" width="48" height="48" viewBox="0 -960 960 960"><path d="M464.615-320.308v-216.769h30.77v216.769h-30.77Zm15.47-272.307q-9.085 0-15.316-6.166-6.231-6.165-6.231-15.279 0-9.786 6.019-15.632 6.018-5.847 14.915-5.847 9.747 0 15.868 5.829 6.122 5.829 6.122 15.231 0 9.402-6.146 15.633t-15.231 6.231ZM240-80v-800h480v800H240Zm30.769-86.154v55.385h418.462v-55.385H270.769Zm0-30.769h418.462v-566.154H270.769v566.154Zm0-596.923h418.462v-55.385H270.769v55.385Zm0 0v-55.385 55.385Zm0 627.692v55.385-55.385Z"/></svg>