<svg xmlns="http://www.w3.org/2000/svg" width="48" height="48" viewBox="0 -960 960 960"><path d="M702-514.77 595.77-622 617-643.23l85 85 170-170L894-706 702-514.77Zm-424.62-22.85q-32.76-32.76-32.76-83 0-50.23 32.76-82.61 32.77-32.39 82.62-32.39t82.62 32.39q32.76 32.38 32.76 82.61 0 50.24-32.76 83-32.77 32.77-82.62 32.77t-82.62-32.77ZM80-215.38v-57.85q0-25 14.42-46.58 14.43-21.57 40.5-33.27 62.7-27.61 116.96-40.34 54.27-12.73 108.12-12.73t108 12.73q54.15 12.73 116.85 40.34 26.07 12.7 40.61 33.77Q640-298.23 640-273.23v57.85H80Zm30.77-30.77h498.46v-27.08q0-15.23-10.15-29.35-10.16-14.11-28.23-23.42-57.16-26.85-106.54-38.12-49.39-11.26-104.31-11.26t-104.81 11.26Q205.31-352.85 148.92-326q-18.84 9.31-28.5 23.42-9.65 14.12-9.65 29.35v27.08Zm309.5-313.81q24.35-24.35 24.35-60.27t-24.35-60.27q-24.35-24.35-60.27-24.35t-60.27 24.35q-24.35 24.35-24.35 60.27t24.35 60.27q24.35 24.34 60.27 24.34t60.27-24.34ZM360-310.77Zm0-309.46Z"/></svg>