<svg xmlns="http://www.w3.org/2000/svg" width="48" height="48" viewBox="0 96 960 960"><path d="M480 551.154q-49.5 0-82.442-32.942-32.943-32.943-32.943-82.827 0-49.885 32.943-82.443Q430.5 320.384 480 320.384q49.5 0 82.443 32.558 32.942 32.558 32.942 82.443 0 49.884-32.942 82.827Q529.5 551.154 480 551.154ZM200 840.616v-57.847q0-26.461 15.154-47.307 15.153-20.847 39.769-32.539 59.308-26.154 115.015-39.615 55.707-13.462 110.038-13.462 54.332 0 109.947 13.577Q645.539 677 704.425 703.274q25.447 11.497 40.511 32.266Q760 756.308 760 782.769v57.847H200Zm30.769-30.77h498.462v-27.077q0-15.23-10.269-29.346-10.27-14.115-28.116-23.423-54-26.385-105.605-37.885-51.605-11.5-105.241-11.5t-105.856 11.5q-52.221 11.5-105.221 37.885-17.846 9.308-28 23.423-10.154 14.116-10.154 29.346v27.077ZM480 520.385q35.923 0 60.269-24.347 24.346-24.346 24.346-60.269T540.269 375.5Q515.923 351.154 480 351.154T419.731 375.5q-24.346 24.346-24.346 60.269t24.346 60.269q24.346 24.347 60.269 24.347Zm0-84.616Zm0 374.077Z"/></svg>