<svg xmlns="http://www.w3.org/2000/svg" width="48" height="48" viewBox="0 -960 960 960"><path d="M760-160q-100.308 0-206.538-50.731-106.231-50.73-199.001-143.5Q262.231-447 211.115-553.615 160-660.231 160-760v-40h168.077l35.385 157.461-109.308 102.847q29.538 49.615 60.192 90.807Q345-407.692 377-375.692q36 36.769 78.923 68.269 42.923 31.5 97.615 61.346L659-356.308l141 29V-160h-40ZM239-568l91-84.308-26.077-116.923H190.769q-1.538 42.616 10.731 92.692Q213.769-626.462 239-568Zm343.615 335.308q37.154 19.769 87.077 31 49.923 11.231 99.539 11.692v-113.154l-99.923-20.231-86.693 90.693ZM239-568Zm343.615 335.308ZM515-515.462V-714h30.769v145.769l235.462-235.462 22.231 22.231-235.231 235.231h145.308v30.769H515Z"/></svg>