<svg xmlns="http://www.w3.org/2000/svg" width="48" height="48" viewBox="0 0 48 48"><path d="M42.4 45.5 2 4.85l1.1-1.1L43.5 44.4ZM12 13.75l1.55 1.6v22.8h21L36 39.6V44H12Zm1.55 25.95v2.75h20.9V39.7Zm0-30.5v-.9h20.9V5.55h-20.9V9.2L11.9 7.65V4H36v9.05h-1.55v-3.2h-20.3Zm0 30.5v2.75-2.75ZM35.7 29.15l-1.05-1.1q.9-.75 1.45-1.825.55-1.075.55-2.275t-.55-2.25q-.55-1.05-1.45-1.9l1.05-1.05q1.15 1 1.825 2.325.675 1.325.675 2.875 0 1.5-.675 2.85T35.7 29.15Zm3.95 3.95L38.6 32q1.6-1.6 2.45-3.7.85-2.1.85-4.3 0-2.3-.875-4.4-.875-2.1-2.625-3.55l1.2-1.2q1.9 1.8 2.875 4.15.975 2.35.975 5 0 2.55-.975 4.9-.975 2.35-2.825 4.2Zm-5.2-27.55V8.3Z"/></svg>