<svg xmlns="http://www.w3.org/2000/svg" width="48" height="48" viewBox="0 0 48 48"><path d="M42.4 45.5 2 4.85l1.1-1.1L43.5 44.4ZM12 13.75l1.55 1.6v22.8h21L36 39.6V44H12Zm2.15-3.9-2.25-2.2V4H36v9.05h-1.55v-3.2Zm21.55 19.3-1.05-1.1q.9-.75 1.45-1.825.55-1.075.55-2.275t-.55-2.25q-.55-1.05-1.45-1.9l1.05-1.05q1.15 1 1.825 2.325.675 1.325.675 2.875 0 1.5-.675 2.85T35.7 29.15Zm3.95 3.95L38.6 32q1.6-1.6 2.45-3.7.85-2.1.85-4.3 0-2.3-.875-4.4-.875-2.1-2.625-3.55l1.2-1.2q1.9 1.8 2.875 4.15.975 2.35.975 5 0 2.55-.975 4.9-.975 2.35-2.825 4.2Z"/></svg>