<svg xmlns="http://www.w3.org/2000/svg" width="48" height="48" viewBox="0 -960 960 960"><path d="M847.692-49.538 40.308-863.231l22-22L869.923-71.539l-22.231 22ZM240-685.077l30.769 31.769v456.385h419.923L720-167.615V-80H240v-605.077Zm42.615-78-44.154-44.154V-880H720v181.385h-30.769v-64.462H282.615ZM713.923-377l-21.231-22q18.539-15.462 29.462-36.577 10.923-21.115 10.923-45.654 0-23.769-10.808-45-10.807-21.231-29.346-37.461l21-21.231q22.693 19.615 36.308 46.346 13.615 26.731 13.615 57.115 0 30.385-13.615 57.231T713.923-377Zm79.385 78.616-21.769-21.231q32.23-32.231 49.576-74.077 17.347-41.846 17.347-86.539 0-45.692-17.962-87.538-17.961-41.846-52.115-71.616l23.692-23.692q37.846 36.385 57.5 83.462 19.654 47.076 19.654 99.384 0 51.539-19.538 98.5-19.539 46.962-56.385 83.347Z"/></svg>