<svg xmlns="http://www.w3.org/2000/svg" width="48" height="48" viewBox="0 -960 960 960"><path d="M584.615-572.385v-183h42.693v-39.769q0-28.923 19.692-49.346t48.616-20.423q29.692 0 49.384 20.423 19.693 20.423 19.693 49.346v39.769h42.692v183h-222.77Zm70.539-183h81.923v-39.769q0-17.231-11.615-29.577-11.616-12.346-28.846-12.346-17.231 0-29.347 12.346-12.115 12.346-12.115 29.577v39.769Zm92.923 590.77q-101.231.769-206.731-53.731t-191.5-140.115q-86-85.616-141-191.231-55-105.616-55-206.847 0-10.23 1-21.846 1-11.615 3-21.615h165.077l35.385 156.692L249-540.692q59.077 98.384 129.731 168.154 70.654 69.769 165.577 121.615l106.231-111.769 140.231 30.769v164.308q-9.231 1-21.231 2-12 1-21.462 1Z"/></svg>