<svg xmlns="http://www.w3.org/2000/svg" width="48" height="48" viewBox="0 -960 960 960"><path d="M240-80v-800h480v800H240Zm30.769-155.384v124.615h418.462v-124.615H270.769Zm209.42 88.077q10.503 0 18.234-7.522 7.731-7.522 7.731-18.423 0-10.902-7.92-18.632-7.92-7.731-18.423-7.731-10.503 0-18.234 7.916-7.731 7.915-7.731 18.413 0 11.286 7.92 18.632 7.92 7.347 18.423 7.347Zm-209.42-118.847h418.462v-496.923H270.769v496.923Zm0-527.692h418.462v-55.385H270.769v55.385Zm0 558.462v124.615-124.615Zm0-558.462v-55.385 55.385Z"/></svg>