<svg xmlns="http://www.w3.org/2000/svg" width="48" height="48" viewBox="0 96 960 960"><path d="M161.846 895 47.384 780.539q85.539-98.231 199.347-148.347 113.807-50.115 234.038-50.115 120.231 0 234.039 50.115 113.808 50.116 199.346 148.347L799.692 895 665.615 794.308V646.462q-47.384-17.539-94.346-25.577-46.961-8.039-90.5-8.039-43.538 0-90.5 8.039-46.961 8.038-94.346 25.577v147.846L161.846 895ZM479 501.154 254.923 275.616v139.692h-30.769V222.615h192.692v30.77H275.462l203.769 203.307 228.692-228.923L730.154 250 479 501.154Z"/></svg>