<svg xmlns="http://www.w3.org/2000/svg" width="48" height="48" viewBox="0 -960 960 960"><path d="M721-568q23.846-52.923 36.539-103.346 12.692-50.423 11.692-97.885H656.077L630-652.308 721-568ZM190.769-190q45.769.308 96.077-11.308 50.308-11.615 90.539-31.384l-86.693-90.693-99.923 20.231V-190Zm459.154-215.461-22.231-22.231q16.923-20.923 33.423-44.193 16.5-23.269 44.5-68.807L596.538-642.539 631.923-800H800v40q.231 89.692-41.346 184.692-41.577 95-108.731 169.847ZM200-160h-40v-167.308l141-29 106.231 109.231q37.692-19.769 75.077-45.692 37.384-25.923 76.538-59.692l-441-440.462 23-23 679.77 681.539-22.231 21.23-218.077-217.077q-91.616 82.385-189.347 126.308Q293.231-160 200-160Zm521-408ZM377.385-232.692Z"/></svg>