<svg xmlns="http://www.w3.org/2000/svg" width="48" height="48" viewBox="0 -960 960 960"><path d="M479.885-293.923q61.346 0 103.038-41.692 41.693-41.693 41.693-103.039 0-61.346-41.693-102.923-41.692-41.577-103.038-41.577-61.347 0-102.924 41.577Q335.384-500 335.384-438.654q0 61.346 41.577 103.039 41.577 41.692 102.924 41.692Zm0-30.769q-48.654 0-81.193-32.654-32.538-32.654-32.538-81.308t32.538-81.192q32.539-32.539 81.193-32.539 48.653 0 81.307 32.539 32.654 32.538 32.654 81.192 0 48.654-32.654 81.308t-81.307 32.654ZM120-160v-556.846h183.154L376.923-800h206.154l73.769 83.154H840V-160H120Zm30.769-30.769h658.462v-495.308H642.692l-73.769-83.154H391.077l-73.769 83.154H150.769v495.308ZM480-438.538Z"/></svg>