<svg xmlns="http://www.w3.org/2000/svg" width="48" height="48" viewBox="0 96 960 960"><path d="M455.231 781h314.231V545.538H455.231V781Zm-279.847 75q-23.057 0-39.221-16.163Q120 823.673 120 800.616V351.384q0-23.057 16.163-39.221Q152.327 296 175.384 296h609.232q23.211 0 39.298 16.163Q840 328.327 840 351.384v449.232q0 23.057-16.086 39.221Q807.827 856 784.616 856H175.384Zm0-30.769q-10.769 0-17.692-6.923t-6.923-17.692V351.384q0-10.769 6.923-17.692t17.692-6.923q-10.769 0-17.692 6.923t-6.923 17.692v449.232q0 10.769 6.923 17.692t17.692 6.923Zm0 0h609.232q10.769 0 17.692-6.923t6.923-17.692V351.384q0-10.769-6.923-17.692t-17.692-6.923H175.384q-10.769 0-17.692 6.923t-6.923 17.692v449.232q0 10.769 6.923 17.692t17.692 6.923Zm310.616-75V576.308h252.692v173.923H486Z"/></svg>