<svg xmlns="http://www.w3.org/2000/svg" width="48" height="48" viewBox="0 -960 960 960"><path d="M480-235.077q-129.308-97.615-192.346-187.969-63.039-90.353-63.039-175.657 0-64.431 22.962-113.056 22.961-48.626 59.524-81.703 36.563-33.077 82.555-49.807Q435.647-860 479.98-860t90.344 16.731q46.012 16.73 82.575 49.807t59.524 81.736q22.962 48.658 22.962 113.233 0 85.493-63.039 175.647Q609.308-332.692 480-235.077Zm.473-314.154q23.142 0 39.027-16.358 15.885-16.357 15.885-39.5 0-23.142-16.017-39.026Q503.352-660 479.911-660q-22.757 0-39.026 16.016-16.27 16.017-16.27 39.457 0 22.758 16.358 39.027 16.358 16.269 39.5 16.269ZM224.615-100v-30.769h510.77v30.77h-510.77Z"/></svg>