<svg xmlns="http://www.w3.org/2000/svg" width="48" height="48" viewBox="0 -960 960 960"><path d="M160-119.77V-840h560v365.15q-6.73-.46-15.46-.46t-15.31.46v-334.38H452v246.46l-78.31-46.86-78.31 46.86v-246.46H190.77v658.69h307.61q2.24 7.85 6.36 16.45 4.13 8.6 9.57 14.32H160Zm432.65-17.65q-45.11-45.12-45.11-111.12t45.11-111.11q45.12-45.12 111.12-45.12t111.11 45.12Q860-314.54 860-248.54t-45.12 111.12q-45.11 45.11-111.11 45.11t-111.12-45.11Zm77.12-39.5 101.46-73.54-101.46-72.77v146.31ZM295.38-809.23H452 295.38Zm-104.61 0h498.46H477h21.38-307.61Z"/></svg>