<svg xmlns="http://www.w3.org/2000/svg" width="48" height="48"><path d="M24 41.9q-6.05-1.75-10.025-7.325Q10 29 10 22.05V11.4l14-5.25 14 5.25v10.65q0 3.05-.875 5.825Q36.25 30.65 34.8 33.3l-6.15-6q.5-.7.8-1.575.3-.875.3-1.775 0-2.45-1.675-4.125Q26.4 18.15 24 18.15q-2.4 0-4.075 1.675Q18.25 21.5 18.25 23.95q0 2.4 1.675 4.075Q21.6 29.7 24 29.7q1 0 1.9-.35.9-.35 1.7-.9l6.25 6.15q-2.1 2.55-4.45 4.475Q27.05 41 24 41.9zm0-13.75q-1.75 0-2.975-1.225T19.8 23.95q0-1.75 1.225-3T24 19.7q1.75 0 2.975 1.25t1.225 3q0 1.75-1.225 2.975T24 28.15z"/></svg>