<svg xmlns="http://www.w3.org/2000/svg" width="48" height="48"><path d="M24 41.9q-6.05-1.75-10.025-7.325Q10 29 10 22.05V11.4l14-5.25 14 5.25v10.65q0 3.2-.875 6.4t-3.075 6.3l-6.45-6.3q-.8.55-1.7.9-.9.35-1.9.35-2.4 0-4.075-1.675-1.675-1.675-1.675-4.075 0-2.4 1.675-4.1 1.675-1.7 4.075-1.7 2.4 0 4.075 1.7 1.675 1.7 1.675 4.1 0 .95-.3 1.8-.3.85-.8 1.55l5.1 5.05q1.3-2.2 2-4.775t.7-5.525v-9.7L24 7.85l-12.45 4.5v9.7q0 6.3 3.5 11.4 3.5 5.1 8.95 6.85 1.35-.4 2.95-1.3t2.75-1.9l.95 1.15q-1.5 1.25-3.15 2.175-1.65.925-3.5 1.475zm0-13.75q1.75 0 2.975-1.225T28.2 23.9q0-1.7-1.25-2.95Q25.7 19.7 24 19.7q-1.75 0-2.975 1.25T19.8 23.9q0 1.8 1.25 3.025Q22.3 28.15 24 28.15zm-.15-4.25z"/></svg>