<svg xmlns="http://www.w3.org/2000/svg" width="48" height="48" viewBox="0 -960 960 960"><path d="M296.711-115.384q-24 0-40.201-16.415-16.202-16.414-16.202-40.413 0-22.865 16.414-39.249 16.414-16.385 40.413-16.385 24 0 40.202 16.597 16.202 16.597 16.202 39.846 0 23.249-16.415 39.634-16.414 16.385-40.413 16.385Zm377.077 0q-23.682 0-39.658-16.415-15.976-16.414-15.976-40.413 0-22.865 16.178-39.249 16.179-16.385 39.846-16.385 23.668 0 40.053 16.597 16.385 16.597 16.385 39.846 0 23.249-16.415 39.634-16.414 16.385-40.413 16.385ZM480-581.692q-10.219 0-15.956-6.237-5.736-6.236-5.736-15.456 0-10.219 5.736-16.34 5.737-6.121 15.956-6.121t15.956 6.121q5.736 6.121 5.736 15.956 0 9.834-5.736 15.956-5.737 6.121-15.956 6.121ZM464.615-700v-200h30.77v200h-30.77ZM202-318.538l109.538-195.539-150-315.154H90.461V-860h90.616l163.846 346.308H630l147.539-264.616h35.154L648.308-482.923H328.615l-73.538 133.615h475.539v30.77H202Z"/></svg>