<svg xmlns="http://www.w3.org/2000/svg" width="48" height="48" viewBox="0 96 960 960"><path d="M320 936q-49.5 0-84.75-35.25T200 816V465.231q0-47.769 32.077-81.692 32.077-33.924 78.692-37.154V216h338.462v130.385q46.615 3.23 78.692 37.154Q760 417.462 760 465.231V816q0 49.5-35.25 84.75T640 936H320Zm21.538-590.769h276.924v-98.462H341.538v98.462Zm107.693 0q0-12.385 9.192-21.577 9.192-9.193 21.577-9.193 12.385 0 21.577 9.193 9.192 9.192 9.192 21.577h-61.538ZM230.769 629.846h498.462V465.231q0-37.558-25.837-63.394Q677.558 376 640 376H320q-37.558 0-63.394 25.837-25.837 25.836-25.837 63.394v164.615ZM320 905.231h320q37.558 0 63.394-25.837 25.837-25.836 25.837-63.394V660.616H230.769V816q0 37.385 25.837 63.308 25.836 25.923 63.394 25.923Zm160-275.385Zm0 30.77Zm0-15.385Z"/></svg>