<svg xmlns="http://www.w3.org/2000/svg" width="48" height="48" viewBox="0 -960 960 960"><path d="M120-120v-550.923l471.385-190.77L601.923-834 219.847-680H840v560H120Zm30.769-30.769h658.462v-312.308H150.769v312.308Zm0-343.077h518.462v-64.616H700v64.616h109.231v-155.385H150.769v155.385Zm163.116 267.769q34.577 0 58.73-24.423 24.154-24.424 24.154-59 0-34.577-24.423-58.731-24.424-24.154-59-24.154-34.577 0-58.731 24.424-24.154 24.424-24.154 59t24.424 58.73q24.424 24.154 59 24.154Zm-163.116-237v312.308-312.308Z"/></svg>