<svg xmlns="http://www.w3.org/2000/svg" width="48" height="48" viewBox="0 -960 960 960"><path d="M668.924-528q-64.975 0-110.642-45.662-45.667-45.663-45.667-111.501 0-64.729 45.646-109.783Q603.906-840 669.315-840q65.447 0 110.374 44.927 44.927 44.927 44.927 110.688 0 65.385-45.359 110.885T668.924-528Zm-13.385-136.385h28.846v-112.231h-28.846v112.231Zm14.423 76.539q7.961 0 13.307-5.615 5.347-5.616 6.116-13.693 0-8.538-5.831-13.923-5.831-5.384-13.092-5.384-9.462.23-14.577 5.461-5.116 5.231-5.116 13.577t5.616 13.962q5.615 5.615 13.577 5.615ZM400.104-292q17.511 0 30.05-12.258 12.538-12.258 12.538-29.769t-12.778-30.05q-12.778-12.538-30.29-12.538-17.511 0-29.529 12.778t-12.018 30.29q0 17.511 12.258 29.529T400.104-292ZM175.385-141.538V-160l60-40q-47.803 0-81.594-33.791T120-315.385V-688q0-58.993 75.5-84.651 75.5-25.657 251.962-25.657-12.539 25.846-19.923 54.404-7.385 28.558-7.385 59.519 0 4 .384 7.654.385 3.654.616 7.346H150.769v203h390.692q28.847 15.077 61.154 22.962 32.308 7.885 66.371 7.885 2.783 0 5.241.051 2.458.051 5.773-.513v122.154q0 48-33.791 80.923T564.615-200l60 40v18.462h-449.23Z"/></svg>