<svg xmlns="http://www.w3.org/2000/svg" width="48" height="48" viewBox="0 -960 960 960"><path d="m430-595-22-21.231 98.384-97.615H309.846q-4.923 23.538-22.538 41.154-17.616 17.615-41.154 22.619v340.227q28.231 5.384 46.423 27.215t18.192 51.862q0 33.333-23.28 56.667-23.281 23.333-56.539 23.333t-56.72-23.333q-23.461-23.334-23.461-56.667 0-29.692 18.192-51.692 18.193-22.001 46.423-27.385v-340.308q-28.23-5.384-46.423-27.215-18.192-21.831-18.192-51.862 0-33.333 23.333-56.667 23.334-23.333 56.667-23.333 30.031 0 51.862 18.192 21.831 18.193 27.215 46.423h196.538L408-842.231l22-22 135.231 135L430-595Zm299.05-214.231q33.258 0 56.72 23.28 23.461 23.281 23.461 56.539t-23.28 56.72q-23.281 23.461-56.539 23.461t-56.72-23.28q-23.461-23.281-23.461-56.539t23.28-56.72q23.281-23.461 56.539-23.461ZM230.742-181.538q20.912 0 35.085-14.146Q280-209.83 280-230.742t-14.146-35.085Q251.708-280 230.796-280t-35.085 14.146q-14.173 14.146-14.173 35.058t14.146 35.085q14.146 14.173 35.058 14.173Zm0-498.462q20.912 0 35.085-14.146Q280-708.292 280-729.204t-14.146-35.085q-14.146-14.173-35.058-14.173t-35.085 14.146q-14.173 14.146-14.173 35.058t14.146 35.085Q209.83-680 230.742-680Zm498.462 0q20.912 0 35.085-14.146 14.173-14.146 14.173-35.058t-14.146-35.085q-14.146-14.173-35.058-14.173t-35.085 14.146Q680-750.17 680-729.258t14.146 35.085Q708.292-680 729.204-680ZM230.769-230.769Zm0-498.462Zm498.462 0Zm-97.154 271.769 23 22-184.308 183.308v70.616h69.616l186.077-185.308 20.461 21.231-193.077 194.846H440v-113.846l192.077-192.847Zm114.846 111.847L632.077-457.462l84.692-84.692 116.462 109-86.308 87.539Z"/></svg>