<svg xmlns="http://www.w3.org/2000/svg" width="48" height="48" viewBox="0 -960 960 960"><path d="m791-352.69-23.85-23.85q42.62-45.61 66.97-98.66 24.34-53.05 24.34-120.35 0-68.07-24.34-121.18-24.35-53.12-66.97-98.73L791-839.31q46.82 48.45 73.68 109.03 26.86 60.59 26.86 134.8 0 74.21-26.89 134.5-26.88 60.29-73.65 108.29ZM653.54-491.62l-23.85-23.84q15.69-16.92 24.16-36.73 8.46-19.81 8.46-43.43 0-25.15-8.46-44.57-8.47-19.43-24.16-36.35l23.85-23.84q18.31 20.3 30.08 47.03 11.76 26.73 11.76 57.73 0 29.47-11.76 56.58-11.77 27.12-30.08 47.42Zm-305.08 11.39q-49.5 0-82.44-32.77t-32.94-83q0-50.23 32.77-82.62Q298.62-711 348.46-711q49.85 0 82.62 32.38 32.77 32.39 32.77 82.62 0 50.23-32.95 83-32.94 32.77-82.44 32.77Zm-280 289.46v-57.85q0-29.53 14.77-48.34 14.77-18.81 40.15-31.5 48.7-23.69 110.89-38.39 62.19-14.69 114.19-14.69t113.69 14.69q61.7 14.7 111.16 38.39 25.38 12.69 40.27 31.5 14.88 18.81 14.88 48.34v57.85h-560Zm30.77-30.77h498.46v-27.08q0-18.3-10.81-31.03-10.8-12.73-27.57-21.73-42.62-23.16-101.31-36.27-58.69-13.12-109.54-13.12-50.84 0-109.65 13.35-58.81 13.34-101.43 36.04-16.3 7.76-27.23 21.11-10.92 13.35-10.92 31.65v27.08Zm309.5-313.81q24.35-24.34 24.35-60.27 0-35.92-24.35-60.26-24.35-24.35-60.27-24.35t-60.27 24.35q-24.34 24.34-24.34 60.26 0 35.93 24.34 60.27Q312.54-511 348.46-511t60.27-24.35Zm-60.27-60.27Zm0 374.08Z"/></svg>