<svg xmlns="http://www.w3.org/2000/svg" width="48" height="48" viewBox="0 -960 960 960"><path d="M160-274.154v-81.461h30.769v81.461H160Zm0-165.615v-81.462h30.769v81.462H160Zm0-164.616v-81.461h30.769v81.461H160ZM274.154-160v-30.769h81.461V-160h-81.461Zm0-609.231V-800h81.461v30.769h-81.461Zm165.615 0V-800h81.462v30.769h-81.462ZM484.539-160l-22.231-22.231 146.615-146.615-146.615-146.615 22.231-22.231 146.615 146.615 146.615-146.615L800-475.461 653.385-328.846 800-182.231 777.769-160 631.154-306.615 484.539-160Zm119.846-609.231V-800h81.461v30.769h-81.461Zm164.846 164.846v-81.461H800v81.461h-30.769ZM160-769.231V-800h30.769v30.769H160Zm640 0h-30.769V-800H800v30.769ZM160-160v-30.769h30.769V-160H160Z"/></svg>