<svg xmlns="http://www.w3.org/2000/svg" width="48" height="48" viewBox="0 -960 960 960"><path d="M480.044-120q-66.583 0-124.775-24.923-58.192-24.923-101.808-68.538-43.615-43.616-68.538-101.778Q160-373.402 160-440h30.769q0 120.385 84.163 204.808 84.163 84.423 204.987 84.423 120.823 0 205.067-84.163 84.245-84.163 84.245-204.987 0-120.823-83.077-205.067-83.077-84.245-203.462-84.245h-22.769l69.923 69.923-22 21.231-107.769-108.539 109.308-108.538 21.769 21L457-760h23q66.598 0 124.761 24.923 58.162 24.923 101.778 68.538 43.615 43.616 68.538 101.764Q800-506.626 800-440.044q0 66.583-24.923 124.775-24.923 58.192-68.538 101.808-43.616 43.615-101.764 68.538Q546.626-120 480.044-120ZM292.538-327.692v-30.77h125.616v-64.461h-93.539v-35.154h93.539v-64.692H292.538v-29.77h156.385v224.847H292.538Zm219.539 0v-224.847h155.615v224.847H512.077Zm30.769-30.77h94.077v-164.307h-94.077v164.307Z"/></svg>