<svg xmlns="http://www.w3.org/2000/svg" width="48" height="48" viewBox="0 96 960 960"><path d="M200 936V216h343.308L760 432.692V936H200Zm30.769-30.769h498.462V446.615L529.385 246.769H230.769v658.462Zm250.462-124.077q68.769 0 115.846-47.462 47.077-47.461 47.077-116.615t-47.077-116.231Q550 453.769 481.231 453.769q-45.769 0-79.308 20.923-33.538 20.923-53.692 46.154v-71.308h-28.847v121.231h122.462v-28.077h-71.154q14.462-23.769 45.085-40.961 30.623-17.193 65.454-17.193 56.923 0 94.538 38 37.616 38 37.616 94.924 0 56.923-37.616 95.038-37.615 38.115-94.829 38.115-45.73 0-80.527-25.615-34.798-25.615-48.798-65.846h-31.769q18 58.077 61.383 90.038 43.384 31.962 100.002 31.962ZM230.769 905.231V246.769v658.462Z"/></svg>