<svg xmlns="http://www.w3.org/2000/svg" width="48" height="48" viewBox="0 -960 960 960"><path d="M320-110.769v-179.385l-94.539-95.538q-5.769-6.769-10.654-14.462-4.884-7.692-6.884-16.846 16.077 13.692 35.769 21.116 19.693 7.423 41.308 7.423 24.846 0 45.039-8.308 20.192-8.308 44.577-28.462 9.692-8.153 18.846-12.461Q402.615-442 410-442.231q8.154.231 17.423 4.539 9.269 4.308 18.961 12.461 24.385 19.385 44.577 28.077 20.193 8.693 44.039 8.693 22.615 0 42.693-8.193 20.076-8.192 36.153-21.115-2 9.923-6.384 17.231-4.385 7.307-11.923 14.846L500-290.154v179.385H320Zm-35-317.692q-35.077 0-60.039-24.962Q200-478.385 200-513.462q0-17.538 6.923-32.731 6.923-15.192 18.538-26.807L320-668.539v-180.692h180v179.692L595.539-574q12.384 11.615 18.423 27.307Q620-531 620-513.462q0 35.077-24.461 60.039-24.462 24.962-60.539 24.962-23 0-36.577-8.27-13.577-8.269-26.039-19.5-18.846-15.077-33.884-20.653-15.039-5.577-28.5-5.577-13.615 0-28.885 6.384-15.269 6.385-32.499 19.846-12.693 11.231-26.539 19.5-13.846 8.27-37.077 8.27ZM895.154-299l-157.308-53.461L746.615-381l157.308 52.692L895.154-299ZM900-464.615H746.846v-30.77H900v30.77Zm3.154-167.846-156.308 53.23-9.538-29.308 157.077-51.692 8.769 27.77Z"/></svg>