<svg xmlns="http://www.w3.org/2000/svg" width="48" height="48" viewBox="0 -960 960 960"><path d="M161.846-161 47.384-275.461q85.539-98.231 199.347-148.347 113.807-50.115 234.038-50.115 120.231 0 234.039 50.115 113.808 50.116 199.346 148.347L799.692-161 665.615-261.692v-147.846q-47.384-17.539-94.346-25.577-46.961-8.039-90.5-8.039-43.538 0-90.5 8.039-46.961 8.038-94.346 25.577v147.846L161.846-161Zm2.231-41.769 98.384-74.077v-120.769q-49.769 22.077-95.038 53.961-45.269 31.885-77.27 65.731l73.924 75.154Zm633.154-1 75.692-73.385Q834.769-314 791.346-344.115q-43.423-30.116-94.961-55.962v118.769l100.846 77.539ZM465.385-688.462v-154.154h30.769v154.154h-30.769Zm242.307 104.308-22.231-22.461 109.924-107.924 20.538 22.462-108.231 107.923Zm-452.154 0L143.846-690.539l23.769-24 108.462 107.924-20.539 22.461Zm440.847 184.077Zm-433.924 2.462Z"/></svg>