<svg xmlns="http://www.w3.org/2000/svg" width="48" height="48" viewBox="0 -960 960 960"><path d="M325.384-160v-217.385Q239-379.923 179.5-441.769 120-503.615 120-589.231q0-88.461 61.538-149.615Q243.077-800 331.538-800q85.616 0 147 59.231 61.385 59.23 65.385 145.384h237.462l-96.154-96.154 21.231-22L840-580 706.462-446.461l-21.231-22.001 96.154-96.153H512.077v-32.077q0-72.847-53.116-122.693-53.115-49.846-127.423-49.846-75.769 0-128.269 52.5t-52.5 127.5q0 74.308 50.116 127.308 50.115 53 122.961 53h32.308V-160h-30.77Z"/></svg>