<svg xmlns="http://www.w3.org/2000/svg" width="48" height="48" viewBox="0 -960 960 960"><path d="m775.539-147.923-22.231-22.231 73-73H449.231q-4.616 36.693-32.963 59.808-28.347 23.115-64.192 23.115-35.845 0-64.114-23.115-28.27-23.115-33.654-59.808H113.846v-298.308h218.692v-127.769H113.846V-700h510.77v426.077h201.692l-73-73 22.231-22.231 110.615 110.616-110.615 110.615ZM366.385-541.462h227.461V-669H366.385v127.538ZM352.399-191q28.197 0 47.976-20.246 19.779-20.245 19.779-48.769 0-28.196-20.106-47.975t-48.423-19.779q-28.317 0-48.279 20.106-19.961 20.106-19.961 48.423t20.245 48.279Q323.876-191 352.399-191Z"/></svg>