<svg xmlns="http://www.w3.org/2000/svg" width="48" height="48" viewBox="0 -960 960 960"><path d="M190.77-190.77v-587.69 264.69-1.92 324.92ZM160-160v-649.23h504.54L800-673.77v166.92q-7.25-2.67-15.24-4.06-7.99-1.4-15.53-2.86v-146.08L650.62-778.46H190.77v587.69h323.61q2.93 8.54 7.08 16.12 4.16 7.57 8.23 14.65H160Zm470.96-5.12q-45.11-45.11-45.11-109.65t45.11-109.65q45.12-45.12 109.66-45.12 64.53 0 109.65 45.12 45.11 45.11 45.11 109.65t-45.11 109.65Q805.15-120 740.62-120q-64.54 0-109.66-45.12ZM752-278.69v-108.93h-30.54V-267l81.44 82.85L824.69-206 752-278.69ZM267.62-580.15h295.69v-112.23H267.62v112.23Zm233.3 281.3q-.23-.61-.23-1.21v-1.25q3.08-30.77 13.58-59.77 10.5-29 28.73-53.77-12.46-14.61-29.28-22.92-16.82-8.31-36.03-8.31-29.16 0-49.66 20.88-20.49 20.88-20.49 50.05 0 35.53 28.04 56.69 28.04 21.15 65.34 19.61Z"/></svg>