<svg xmlns="http://www.w3.org/2000/svg" width="48" height="48" viewBox="0 -960 960 960"><path d="M480-272.31q34.38 0 65.77-14.42 31.38-14.42 58.54-42.5l-25.54-23.85Q556-331.38 531-320.04q-25 11.35-51 11.35t-51-11.35q-25-11.34-47.77-33.04l-25.54 23.85q28.16 28.85 59.43 42.88 31.26 14.04 64.88 14.04ZM339.77-148.42q-65.69-28.43-114.31-77.04-48.61-48.62-77.04-114.31Q120-405.46 120-480q0-74.54 28.42-140.23 28.43-65.69 77.04-114.31 48.62-48.61 114.31-77.04Q405.46-840 480-840q74.54 0 140.23 28.42 65.69 28.43 114.31 77.04 48.61 48.62 77.04 114.31Q840-554.54 840-480q0 74.54-28.42 140.23-28.43 65.69-77.04 114.31-48.62 48.61-114.31 77.04Q554.54-120 480-120q-74.54 0-140.23-28.42Zm62.54-367.85q24.15-23.96 35.15-57.5l-34.15-8.61q-7.31 22-22.12 38.34-14.81 16.35-37.34 16.35-22.54 0-37.35-16.35-14.81-16.34-22.12-38.34l-34.15 8.61q11 33.54 35.15 57.5 24.16 23.96 58.47 23.96 34.3 0 58.46-23.96Zm272.31 0q24.15-23.96 35.15-57.5l-34.15-8.61q-7.31 22-22.12 38.34-14.81 16.35-37.35 16.35-22.53 0-37.34-16.35-14.81-16.34-22.12-38.34l-34.15 8.61q11 33.54 35.15 57.5 24.16 23.96 58.46 23.96 34.31 0 58.47-23.96Z"/></svg>