<svg xmlns="http://www.w3.org/2000/svg" width="48" height="48" viewBox="0 -960 960 960"><path d="M480-355.692q77.462-71 99.115-98.5 21.654-27.5 21.654-55.75 0-27.44-19.65-46.903-19.65-19.463-47.35-19.463-16.692 0-30.613 6.635-13.921 6.634-23.156 17.519-9.462-10.885-23.846-17.519-14.385-6.635-29.923-6.635-27.385 0-47.193 19.423-19.807 19.423-19.807 46.915 0 14.71 4.01 26.565 4.011 11.855 16.808 28.322 12.797 16.468 36.547 39.538 23.75 23.07 63.404 59.853Zm0 233.923q-120.769-36.538-200.385-147.885Q200-381 200-519.154v-213.385l280-104.615 280 104.615v213.385q0 138.154-79.615 249.5Q600.769-158.307 480-121.769Zm0-32.769Q588.846-189.461 659.039-291.5q70.192-102.038 70.192-227.654v-192.154L480-804.692l-249.231 93.384v192.154q0 125.616 70.192 227.654Q371.154-189.461 480-154.538Zm0-324.693Z"/></svg>