<svg xmlns="http://www.w3.org/2000/svg" width="48" height="48" viewBox="0 -960 960 960"><path d="M480-594.77 458.77-616l89.38-88.62H344.62v-30.76h203.53L459.54-824 480-845.23 605.23-720 480-594.77Zm-223.31 463q-16.38-16.38-16.38-39.85 0-23.46 16.38-39.84 16.39-16.39 40.23-16.39 23.85 0 40.23 16.39 16.39 16.38 16.39 39.84 0 23.47-16.39 39.85-16.38 16.39-40.23 16.39-23.84 0-40.23-16.39Zm377.46 0q-16-16.38-16-39.85 0-23.46 16-39.84 16-16.39 39.85-16.39t40.23 16.39q16.39 16.38 16.39 39.84 0 23.47-16.39 39.85-16.38 16.39-40.23 16.39-23.85 0-39.85-16.39ZM90.46-829.23V-860h90.62l163.84 346.31h284.16l148.46-264.62h34.69L649.77-480.23H327.15l-70.61 130.92h474.08v30.77H203.46l106.85-192.84-148.77-317.85H90.46Z"/></svg>