<svg xmlns="http://www.w3.org/2000/svg" width="48" height="48" viewBox="0 96 960 960"><path d="M193.077 896 79.307 496H309.77l158.077-236.154q2.692-3.693 6-5.27 3.308-1.576 6.692-1.576 3.385 0 6.693 1.576 3.308 1.577 6 5.27L649.539 496h231.384L765.154 896H193.077Zm154.308-400h264.538L479.769 296 347.385 496ZM480 726.769q12.692 0 21.731-9.038 9.038-9.039 9.038-21.731 0-12.692-9.038-21.731-9.039-9.038-21.731-9.038-12.692 0-21.731 9.038-9.038 9.039-9.038 21.731 0 12.692 9.038 21.731 9.039 9.038 21.731 9.038Z"/></svg>