<svg xmlns="http://www.w3.org/2000/svg" width="48" height="48" viewBox="0 -960 960 960"><path d="m644.462-126.307-21.231-21.231 84-84-84-84 21.231-21.231 84 84 84-84 21.231 21.231-83 84 83 84-21.231 21.231-84-83-84 83ZM480-176.923 56.923-600q89-77.077 196.769-118.539Q361.461-760 480-760q118.539 0 226.308 41.461Q814.077-677.077 903.077-600L753.693-450.615q-6.385-.462-12.501-.808-6.115-.346-12.73-.346-91.847 0-156.039 63.692t-64.192 156.539q0 6.615.346 12.73.346 6.116.808 12.501L480-176.923Z"/></svg>