<svg xmlns="http://www.w3.org/2000/svg" width="48" height="48" viewBox="0 -960 960 960"><path d="M313.692-530.692q12.385 0 21.577-9.193 9.193-9.192 9.193-21.577 0-12.384-9.193-21.577-9.192-9.192-21.577-9.192-13.154 0-21.961 9.192-8.808 9.193-8.808 21.577 0 12.385 8.808 21.577 8.807 9.193 21.961 9.193Zm167.77 0q12.384 0 21.577-9.193 9.192-9.192 9.192-21.577 0-12.384-9.192-21.577-9.193-9.192-21.577-9.192-12.385 0-21.577 9.192-9.193 9.193-9.193 21.577 0 12.385 9.193 21.577 9.192 9.193 21.577 9.193Zm164.615 0q12.385 0 21.577-9.193 9.192-9.192 9.192-21.577 0-12.384-9.192-21.577-9.192-9.192-21.577-9.192-12.385 0-21.577 9.192-9.192 9.193-9.192 21.577 0 12.385 9.192 21.577 9.192 9.193 21.577 9.193ZM120-156.923V-840h720v560H243.077L120-156.923Zm109.385-153.846h555.231q9.23 0 16.923-7.692 7.692-7.693 7.692-16.923v-449.232q0-9.23-7.692-16.923-7.693-7.692-16.923-7.692H175.384q-9.23 0-16.923 7.692-7.692 7.693-7.692 16.923v555.385l78.616-81.538Zm-78.616 0v-498.462 498.462Z"/></svg>