<svg xmlns="http://www.w3.org/2000/svg" width="48" height="48" viewBox="0 0 48 48"><path d="M9.55 38.45V9.55v28.9ZM15 17h18v-1.55H15Zm0 7.75h11.15q.5-.45 1.05-.825.55-.375 1.15-.675H15Zm0 7.8h6.5q.15-.45.25-.825.1-.375.2-.725H15ZM8 40V8h32v13.7q-.35-.1-.75-.225t-.8-.175V9.55H9.55v28.9H21.3q.05.4.175.8.125.4.225.75Zm28 5.4q-3.2 0-5.675-1.925Q27.85 41.55 27 38.6h1.9q.8 2.25 2.7 3.625Q33.5 43.6 36 43.6q3.15 0 5.375-2.225T43.6 36q0-3.15-2.225-5.375T36 28.4q-1.85 0-3.525.875Q30.8 30.15 29.6 31.6h3.8v1.8h-6.8v-6.8h1.8v3.7q1.4-1.65 3.4-2.675T36 26.6q3.9 0 6.65 2.75Q45.4 32.1 45.4 36q0 3.9-2.75 6.65Q39.9 45.4 36 45.4Z"/></svg>