<svg xmlns="http://www.w3.org/2000/svg" width="48" height="48" viewBox="0 -960 960 960"><path d="M480-480.23q-49.5 0-82.44-32.77t-32.94-83q0-50.23 32.76-82.62Q430.15-711 480-711t82.62 32.38q32.76 32.39 32.76 82.62 0 50.23-32.94 83T480-480.23ZM200-190.77v-57.85q0-29.53 14.77-48.34 14.77-18.81 40.15-31.5 48.7-23.69 110.89-38.39Q428-381.54 480-381.54t113.69 14.69q61.69 14.7 111.16 38.39 25.38 12.69 40.27 31.5Q760-278.15 760-248.62v57.85H200Zm30.77-30.77h498.46v-27.08q0-18.77-10.81-31.27-10.8-12.49-27.57-21.49-42.62-23.16-101.31-36.27-58.69-13.12-109.54-13.12-50.85 0-109.65 13.35-58.81 13.34-101.43 36.04-16.3 7.76-27.23 21.18-10.92 13.41-10.92 31.58v27.08ZM480-511q35.92 0 60.27-24.35 24.35-24.34 24.35-60.27 0-35.92-24.35-60.26-24.35-24.35-60.27-24.35t-60.27 24.35q-24.35 24.34-24.35 60.26 0 35.93 24.35 60.27Q444.08-511 480-511ZM39-743.62v-30.77q30.85 0 56.77-11.5t46.15-31.73q20.23-20.24 31.23-46.55t11-56.6h30.23q0 36.89-13.67 69.04-13.68 32.15-37.45 55.9-24.64 24.78-56.38 38.5Q75.13-743.62 39-743.62Zm0 125.39V-649q56.77 0 105.24-21.42 48.48-21.42 85.77-58.27 37.3-36.85 58.53-86.14 21.23-49.29 21.23-105.94h31.77q0 62.62-23.54 117.58t-65 96.42q-41.46 41.46-95.95 65T39-618.23Zm881 0q-62.46 0-117.28-23.54t-96.18-65q-41.35-41.46-64.83-96.39-23.48-54.93-23.48-117.61h31q0 56.74 21.12 105.9 21.12 49.16 58.28 86.11t86.3 58.24q49.15 21.29 105.07 21.29v31Zm0-125.62q-36.89 0-68.67-14.01-31.79-14.02-56.02-38.27-24.23-24.25-37.85-56.24-13.61-31.99-13.61-68.4h30.77q0 30.08 11.11 56.39 11.12 26.3 31.35 46.53 20.23 20.23 46.54 31.73 26.3 11.5 56.38 11.5v30.77ZM480-595.62Zm0 374.08Z"/></svg>