<svg xmlns="http://www.w3.org/2000/svg" width="48" height="48" viewBox="0 -960 960 960"><path d="M720-120H240v-720h480v720ZM480.752-617.077q26.094 0 44.248-18.674 18.154-18.675 18.154-44.385 0-25.71-18.199-44.249-18.198-18.538-44.86-18.538-25.71 0-43.864 18.674-18.154 18.675-18.154 44.385 0 25.71 18.29 44.249 18.29 18.538 44.385 18.538ZM480-219.846q59 0 99.577-40.577T620.154-360q0-59-40.577-99.577T480-500.154q-59 0-99.577 40.577T339.846-360q0 59 40.577 99.577T480-219.846Zm-.132-30.769q-45.176 0-77.214-32.171-32.039-32.17-32.039-77.346t32.171-77.214q32.17-32.039 77.346-32.039t77.214 32.171q32.039 32.17 32.039 77.346t-32.171 77.214q-32.17 32.039-77.346 32.039Z"/></svg>