<svg xmlns="http://www.w3.org/2000/svg" width="48" height="48" viewBox="0 -960 960 960"><path d="M301.538-181.538V-880H800v698.462H301.538Zm249.005-473.77q26.284 0 44.14-17.705 17.856-17.706 17.856-44.154 0-25.583-18.043-43.4-18.042-17.818-43.817-17.818-25.583 0-43.4 17.908-17.818 17.908-17.818 43.491 0 26.448 17.816 44.063 17.815 17.615 43.266 17.615ZM551-301.615q50.117 0 84.828-34.731 34.711-34.731 34.711-85.269 0-50.539-34.711-85.27-34.711-34.731-84.828-34.731-49.598 0-85.03 34.731t-35.432 85.27q0 50.538 35.432 85.269 35.432 34.731 85.03 34.731Zm-.547-30.77q-36.991 0-63.068-25.957-26.077-25.957-26.077-63.038 0-37.082 26.013-63.274 26.012-26.192 62.747-26.192 37.375 0 63.538 25.957 26.163 25.957 26.163 63.038 0 37.082-26.163 63.274t-63.153 26.192ZM544.384-80H200v-658.462h30.769v627.693h313.615v30.77Z"/></svg>