<svg xmlns="http://www.w3.org/2000/svg" width="48" height="48" viewBox="0 -960 960 960"><path d="M784.385-99.077 649.154-234.308q-15.385 10.693-30.539 18.808-15.154 8.116-32.307 15.116v-32.231q11.307-4.539 21.461-10.577 10.154-6.039 20.692-11.808L256.769-627.461q-23.615 34.076-34.807 72.807-11.193 38.731-11.193 78.423 0 54.923 20.731 103.193 20.731 48.269 63.192 87.576l50 46.385v-133.231h30.77v186.154H189.308v-30.769h133.076l-41.922-40.461Q226.308-306 203.038-360.846 179.769-415.692 180-476.231q.231-50.154 14.615-93.154 14.385-43 39.923-79.538L99.308-784.154l21.769-21 684.308 685.077-21 21Zm-63.539-205.231-21.231-21.231q23.308-34.538 36.462-74.23 13.154-39.693 13.154-84 0-49.846-20.962-98.962-20.961-49.115-61.731-89.884l-49.769-48.308v133.231H586v-186.154h186.154v30.769H638.846L680-701.385q52.462 50.77 76.231 107.462Q780-537.231 780-483.769q0 50.154-15.115 94.846-15.116 44.692-44.039 84.615ZM324.769-700.385l-20.231-20.23q16.616-12.385 33.577-21.962 16.962-9.577 35.808-16.808v32q-13 5-25.346 12t-23.808 15Z"/></svg>