<svg xmlns="http://www.w3.org/2000/svg" width="48" height="48" viewBox="0 -960 960 960"><path d="M170.461-186.154v-30.769h129.923l-41.692-41.692q-49.231-52.308-73.038-106.885-23.808-54.577-23.808-109.731 0-95.923 53.269-173.461 53.27-77.539 141.423-113.616v32q-75.23 33.077-119.576 102.462-44.347 69.384-44.347 152.615 0 52 19.039 99.654 19.038 47.654 61.038 87.962l50 48.538v-130.077h30.77v183H170.461ZM480-290.461q-10.462 0-18.308-7.847-7.846-7.846-7.846-18.307 0-10.462 7.846-18.308T480-342.769q10.462 0 18.308 7.846t7.846 18.308q0 10.461-7.846 18.307-7.846 7.847-18.308 7.847Zm-14.154-135.693v-233.615h30.769v233.615h-30.769Zm138.385 228.693v-32.231q74.461-32.846 118.807-102.231 44.347-69.385 44.347-151.846 0-53.231-19.154-100.885t-60.154-87.731l-50-48.538v130.077h-30.769v-183h182.231v30.769H659.385l41.923 41.692Q752.539-652.077 775.346-596q22.808 56.077 22.808 112.231 0 94.923-53.385 172.577-53.384 77.654-140.538 113.731Z"/></svg>