<svg xmlns="http://www.w3.org/2000/svg" width="48" height="48" viewBox="0 96 960 960"><path d="M606.308 965.231V784.923h41.769v-39.769q0-30.385 20.423-51.193 20.423-20.807 50.808-20.807 30.384 0 51.192 20.807 20.808 20.808 20.808 51.193v39.769h39.461v180.308H606.308Zm72.538-180.308h81.692v-39.769q0-17.462-11.884-29.346-11.885-11.885-29.346-11.885-17.462 0-28.962 11.885-11.5 11.884-11.5 29.346v39.769Zm-489.538 84.923v-30.769h133.076q-77.076-64.154-109.73-123.885Q180 655.462 180 580.538q0-92.307 52.077-171.115t141.846-112.808v32q-71.769 30.616-117.461 99.539-45.693 68.923-45.693 152.384 0 65.491 28.654 120.553 28.654 55.063 105.269 115.832V683.692h30.77v186.154H189.308ZM749 587q1.923-64-25.654-123.577-27.577-59.577-106.577-127.577v132.462H586V282.154h186.154v30.769H638.077q86.846 74.231 116.115 144.692 29.27 70.462 25.577 129.385H749Z"/></svg>