<svg xmlns="http://www.w3.org/2000/svg" width="48" height="48" viewBox="0 -960 960 960"><path d="M160-373.85h273.23q-30 26.08-58.04 61.27-28.04 35.2-56.65 80.27 11.69 20.46 23.96 38.35 12.27 17.88 26.12 33.96H160v-213.85Zm0-30.77v-213.84h304.62v220q2.04-1.54 4.1-3.08 2.06-1.54 4.13-3.08H160Zm335.38-213.84H800V-418q-34.08-17.54-70.65-25.92-36.58-8.39-79.12-8.39-43.3 0-81.53 8.43-38.24 8.42-73.32 27.03v-201.61ZM160-649.23V-800h640v150.77H160ZM649.96-98.46q-70.81 0-131.5-36.54t-97.23-97.31q36.54-60.77 97.25-97.31 60.71-36.53 131.77-36.53 71.83 0 132.13 36.53 60.31 36.54 97.62 97.81-36.08 61.27-97.27 97.31T649.96-98.46Zm47.35-86.89q19.07-19.2 19.07-47.08t-19.19-46.95q-19.2-19.08-46.69-19.08-27.5 0-46.96 19.19-19.46 19.2-19.46 47.08t19.58 46.96q19.58 19.08 47.07 19.08 27.5 0 46.58-19.2Zm-72.19-21.87q-10.27-10.3-10.27-25.11 0-14.82 10.29-25.09 10.3-10.27 25.5-10.27 15.21 0 25.09 10.29 9.89 10.3 9.89 25.12t-9.92 25.09q-9.91 10.27-25.11 10.27-15.21 0-25.47-10.3Z"/></svg>