<svg xmlns="http://www.w3.org/2000/svg" width="48" height="48" viewBox="0 -960 960 960"><path d="M82.69-169.62q-29.61-29.61-29.61-71.92t29.61-71.92q29.62-29.62 71.93-29.62 11.76 0 22.76 2.39 11 2.38 21.24 7.15l179.23-245.92q-18.47-18.92-28.93-44.12-10.46-25.19-10.46-54.11 0-59.08 41.23-100.31 41.23-41.23 100.31-41.23 59.08 0 100.31 41.23 41.23 41.23 41.23 100.31 0 28.92-10.85 54.11-10.84 25.2-29.31 44.12l179.24 246.92q10.23-5 21.5-7.77 11.26-2.77 23.26-2.77 42.31 0 71.93 29.62 29.61 29.61 29.61 71.92t-29.61 71.92Q847.69-140 805.38-140q-42.3 0-71.92-29.62-29.61-29.61-29.61-71.92 0-22 8.65-40.61 8.65-18.62 23.19-33.08L558-559.62q-14.38 9.62-29.65 15.2-15.27 5.57-32.97 7.57v193.93q36.7 6.15 61.43 34.3 24.73 28.16 24.73 66.31 0 42.31-29.62 71.93-29.61 29.61-71.92 29.61t-71.92-29.61q-29.62-29.62-29.62-71.93 0-38.15 24.73-66.69t61.43-33.92v-193.93q-17.7-2-33.35-7.57-15.65-5.58-29.27-15.2L223.54-315.23q14.54 14.46 23.58 33.08 9.03 18.61 9.03 40.61 0 42.31-29.61 71.92Q196.92-140 154.62-140q-42.31 0-71.93-29.62Z"/></svg>