<svg xmlns="http://www.w3.org/2000/svg" width="48" height="48" viewBox="0 -960 960 960"><path d="M439.769-160v-30.769h81.462V-160h-81.462Zm0-609.231V-800h81.462v30.769h-81.462ZM604.385-160v-30.769h81.461V-160h-81.461Zm0-609.231V-800h81.461v30.769h-81.461ZM769.231-160v-30.769H800V-160h-30.769Zm0-106.462v-81.461H800v81.461h-30.769Zm0-173.307v-81.462H800v81.462h-30.769Zm0-172.308v-81.461H800v81.461h-30.769Zm0-157.154V-800H800v30.769h-30.769ZM160-160v-30.769h82.923v-578.462H160V-800h195.615v30.769h-81.923v578.462h81.923V-160H160Z"/></svg>