<svg xmlns="http://www.w3.org/2000/svg" width="48" height="48" viewBox="0 96 960 960"><path d="M484.539 488.308v-30.77h207.692v30.77H484.539Zm0-132.308v-30.769h313.846V356H484.539ZM315.231 895.769q-63.223 0-107.612-44.388-44.389-44.389-44.389-107.612 0-41.846 22.462-78.577t62.154-59.654V323.385q0-29.103 19.457-48.244T314.995 256q28.236 0 47.543 19.141 19.308 19.141 19.308 48.244v282.153q39.693 22.923 62.154 59.654 22.462 36.731 22.462 78.577 0 63.223-44.005 107.612-44.004 44.388-107.226 44.388ZM194 743.769h241.692q0-34.615-19-65.346t-52.538-50.884l-13.077-6.693V323.385q0-15.139-10.739-25.877-10.738-10.739-25.107-10.739-15.139 0-25.877 10.739-10.739 10.738-10.739 25.877v297.461l-12.307 6.693Q232 647.692 213 678.538q-19 30.847-19 65.231Z"/></svg>