<svg xmlns="http://www.w3.org/2000/svg" width="48" height="48" viewBox="0 -960 960 960"><path d="M352.33-889.77q78.21 0 132.55 54.71 54.35 54.71 54.35 132.1 0 25.76-6.58 49.73-6.58 23.97-18.65 43.85l-21.92-13.08q9.31-17.44 15.15-38.14 5.85-20.71 5.85-42.25 0-67.18-46.78-113.97-46.79-46.8-113.95-46.8-66.39 0-113.6 46.8-47.21 46.79-47.21 113.97 0 21.96 5.38 42.29 5.39 20.33 16.16 37.33l-22.7 13.85q-11.23-20.24-18.11-44.27-6.89-24.03-6.89-49.71 0-76.95 54.75-131.68 54.75-54.73 132.2-54.73Zm.3 85.39q42.37 0 71.79 29.7 29.43 29.71 29.43 71.23 0 15.27-3.62 27.9-3.61 12.63-9.85 23.09l-23.69-13.08q5-7.83 7.5-17.67 2.5-9.84 2.5-19.31 0-31.32-22.1-53.51-22.1-22.2-53.28-22.2-31.31 0-53.35 22.2-22.04 22.19-22.04 53.51 0 10.44 2.77 19.83 2.77 9.38 7.77 17.15l-21 12.85q-6.46-11.23-10.08-24.08-3.61-12.85-4.61-26.08 1.23-41.72 30.06-71.63 28.83-29.9 71.8-29.9ZM760-120H384.85L155.46-423.77l26.62-30.85 154.84 73.47v-321.7h30.77v369.39L202.92-412l198.85 261.23h327.46v-316.92H478.46v-30.77H760V-120ZM565.77-309.23Z"/></svg>