<svg xmlns="http://www.w3.org/2000/svg" width="48" height="48" viewBox="0 -960 960 960"><path d="m145-60 112.461-588.308-130.307 56.077v127.846h-30.77v-149.384l176.462-73.308q25.462-11.231 49.654-8.423 24.192 2.808 38.654 26.5l40.461 64.461q25.693 41.924 69.962 72.577 44.269 30.654 99.731 35.27v30.769Q518.231-469 462.846-500.846q-55.384-31.846-98.154-106.385l-42.077 195.308 87.462 84.538V-60h-30.769v-226.692L253.769-406.461 175.462-60H145Zm229.231-698.615q-27.693 0-46.116-18.808t-18.423-45.731q0-26.923 18.423-45.731 18.423-18.807 46.116-18.807 26.923 0 45.346 18.807Q438-850.077 438-823.154q0 26.923-18.423 45.731-18.423 18.808-45.346 18.808ZM778.846-57.154l-21.923-21.923 43.462-43.461H568.461v-30.77h231.924l-43.462-43.461 21.923-21.923 80.385 80.384-80.385 81.154ZM654.231-230.077l-81.154-81.154 81.154-80.384 21.154 21.923-43.462 43.461h231.923v30.77H631.923L675.385-252l-21.154 21.923Z"/></svg>