<svg xmlns="http://www.w3.org/2000/svg" width="48" height="48" viewBox="0 -960 960 960"><path d="m475.769-120 175.77-440h38.231l175.769 440h-34.231l-48.846-120.077H557.846L509.769-120h-34ZM162-235.615l-22-22L335.615-454q-41.769-43-78.577-98.654-36.807-55.654-50.192-96.577h34.231q12.923 35.308 45.808 85 32.884 49.692 70.961 88 58.308-59.538 100.385-127.884 42.077-68.347 54.461-125.116H95.384V-760h249.231v-49.231h30.77V-760h249.231v30.769h-78.385Q530-663.538 485.5-589.731 441-515.923 379.077-453.769l104.308 107.077-12.462 32.231-114.077-117.308L162-235.615Zm407.616-33.308h201.076L670.539-521.538 569.616-268.923Z"/></svg>