<svg xmlns="http://www.w3.org/2000/svg" width="48" height="48" viewBox="0 -960 960 960"><path d="M120-160v-268.846h204.846q13.077 54.769 56.346 89.346 43.27 34.577 98.808 34.577 57.077 0 100.346-34.577 43.269-34.577 54.808-89.346H840V-160H120Zm30.769-30.769h658.462v-207.308H660.615Q638-341.846 589.731-308 541.462-274.154 480-274.154q-61.462 0-110.577-33.846-49.115-33.846-70.038-90.077H150.769v207.308Zm549.923-345L678.461-558l111.154-111.154 22.231 22.231-111.154 111.154Zm-441.384 0L148.154-646.923l23-22.231L281.539-558l-22.231 22.231Zm205.307-108.77v-153.923h30.77v153.923h-30.77Zm-313.846 453.77h658.462-658.462Z"/></svg>