<svg xmlns="http://www.w3.org/2000/svg" width="48" height="48"><path d="M39.95 43.15 27.5 30.7h-2.75v5.9q.95.3 1.525 1.075.575.775.575 1.725 0 1.2-.85 2.025t-2 .825q-1.2 0-2.025-.825T21.15 39.4q0-.95.55-1.75t1.55-1.05v-5.9H16.6q-1.15 0-1.95-.8t-.8-1.95v-4.6q-1-.25-1.55-1.025-.55-.775-.55-1.725 0-1.15.775-2 .775-.85 1.925-.95L5.4 8.6l1.1-1.1 34.55 34.55zM33.6 29.6l-.95-.95V23.4H30.6v-5.65h5.65v5.65h-2.1v4.55q0 .5-.15.925-.15.425-.4.725zm-17-.45h6.65v-2.7L17.5 20.7q-.1.95-.65 1.675-.55.725-1.5.975v4.6q0 .55.35.875.35.325.9.325zm8.15-8.35-1.5-1.55v-7h-3L24 7.2l3.75 5.05h-3z"/></svg>