<svg xmlns="http://www.w3.org/2000/svg" width="48" height="48" viewBox="0 96 960 960"><path d="m645.616 777.539 75.692-290.924-405.154-112.154-76.462 289.385 405.924 113.693Zm-22.231-38.616-346.078-96.308 61.077-230.307 346.078 95.538-61.077 231.077ZM175.384 856q-23.057 0-39.221-16.163Q120 823.673 120 800.616V351.384q0-23.057 16.163-39.221Q152.327 296 175.384 296h609.232q23.057 0 39.221 16.163Q840 328.327 840 351.384v449.232q0 23.057-16.163 39.221Q807.673 856 784.616 856H175.384Zm-24.615-30.769V326.769v498.462Zm24.615 0h609.232q9.23 0 16.923-7.692 7.692-7.693 7.692-16.923V351.384q0-9.23-7.692-16.923-7.693-7.692-16.923-7.692H175.384q-9.23 0-16.923 7.692-7.692 7.693-7.692 16.923v449.232q0 9.23 7.692 16.923 7.693 7.692 16.923 7.692Z"/></svg>