<svg xmlns="http://www.w3.org/2000/svg" width="48" height="48" viewBox="0 -960 960 960"><path d="M769.231-295.384v-169.231H190.769v169.231q0 9.23 7.692 16.923 7.693 7.692 16.923 7.692h529.232q9.23 0 16.923-7.692 7.692-7.693 7.692-16.923Zm0-200.001v-169.231q0-9.23-7.692-16.923-7.693-7.692-16.923-7.692H215.384q-9.23 0-16.923 7.692-7.692 7.693-7.692 16.923v169.231h578.462ZM215.384-240q-23.057 0-39.221-16.163Q160-272.327 160-295.384v-369.232q0-23.057 16.163-39.221Q192.327-720 215.384-720h529.232q23.057 0 39.221 16.163Q800-687.673 800-664.616v369.232q0 23.057-16.163 39.221Q767.673-240 744.616-240H215.384Z"/></svg>