<svg xmlns="http://www.w3.org/2000/svg" width="48" height="48" viewBox="0 -960 960 960"><path d="m194.69-79.23-25.38-16.39q54.23-92.46 59-186.61 4.77-94.15 4.77-197.77 0-102.62-4.77-197.15-4.77-94.54-59-186.23L194.69-880q17 29.77 29.12 59.38Q235.92-791 244.15-760h81.93q54.77 0 92.84 40.85Q457-678.31 457-619.77v279.31q0 58.77-38.08 99.61Q380.85-200 326.08-200h-81.93q-8.23 30.23-19.96 60.62-11.73 30.38-29.5 60.15Zm514.85-270.92L587.23-480l122.31-128.85 22 22-84.69 91.47h194.38v30.76H646.85l84.69 92.24-22 22.23ZM250.69-231h75.39q41.3 0 70.73-32.19 29.42-32.19 29.42-78.04v-279.31q0-44.31-29.42-76.5-29.43-32.19-70.73-32.19h-75.39q10.46 59.15 11.81 120.19Q263.85-548 263.85-480t-1.47 129.42q-1.46 61.43-11.69 119.58Zm13.16-249Z"/></svg>