<svg xmlns="http://www.w3.org/2000/svg" width="48" height="48" viewBox="0 -960 960 960"><path d="M442.462-624.615q-59.231 0-115.539 16.807Q270.615-591 222.615-559.077l46.308 408.308h422.923l48.539-433.846h-39.539q-36.231 0-67.231-5.5-31-5.5-83.461-20.5-26.539-7-53.346-10.5-26.808-3.5-54.346-3.5Zm-223.001 32.384q50.231-30.461 107.27-46.692 57.038-16.231 116.5-16.462 29.231 0 58.346 4 29.115 4 56.115 11.231 53.308 14.769 81.462 19.769 28.154 5 60.692 5h44.462l21-193.846H193.923l25.538 217ZM241.077-120 160-840h640l-80.307 720H241.077Zm201.385-30.769h249.384-422.923 173.539Z"/></svg>