<svg xmlns="http://www.w3.org/2000/svg" width="48" height="48" viewBox="0 -960 960 960"><path d="M385-150.769h230l30.462-329.616Q631.154-493 621.404-509.002q-9.75-16.002-12.25-35.613H390.846q-2.692 19.384-12.361 35.413-9.67 16.028-23.947 28.817L385-150.769Zm-10.539-538.462-13.923 55.154q11.308 12.615 19.462 27.346t10.262 31.346h219.353q3.231-16.384 10.5-31.115 7.27-14.731 19.347-26.577l-13.923-56.154H374.461ZM356.154-120l-34.616-376.923 4.385-2.308q14.923-10.385 24-26.231Q359-541.308 359-559.879q0-16.714-7.077-31.571-7.077-14.858-19.692-25.011l-5.308-2.77L351.538-720h133.077v-67.693h-60v-30.769h150.77v30.769h-60V-720h133.077l23.615 98.769-5.308 2.77q-12.615 10.153-19.692 25.011Q640-578.593 640-561.879q0 18.571 8.693 34.533 8.692 15.961 23.615 26.346l4.385 2.077L643.846-120H356.154ZM500-544.615Zm0-30.77Z"/></svg>