<svg xmlns="http://www.w3.org/2000/svg" width="48" height="48" viewBox="0 -960 960 960"><path d="m720-139.077 98.385-98.385-18.693-18.692-66.23 67v-151.769h-26.154v151.769l-67-67-18.693 18.692L720-139.077ZM390.769-680h178.462v-89.231H390.769V-680ZM720-83.154q-65.154 0-111-45.846-45.846-45.846-45.846-111T609-351q45.846-45.846 111-45.846T831-351q45.846 45.846 45.846 111T831-129q-45.846 45.846-111 45.846ZM120-160v-520h240v-120h240v120h240v248.077q-26.307-17.231-57.308-26.462-31-9.231-62.692-9.231-94 0-160.808 66.808Q492.384-334 492.384-240q0 21.923 3.654 40.462Q499.692-181 508-160H120Z"/></svg>