<svg xmlns="http://www.w3.org/2000/svg" width="48" height="48" viewBox="0 -960 960 960"><path d="M850.692-114.846 519.308-446.23l-28.539 131.538H379.308L423-541.769l-130.769 57.538v127.846h-30.77V-506l140.616-57.462L75.231-890.308l22.23-22.231 775.462 775.462-22.231 22.231ZM120-172v-156.615h30.769v125.846h125.846V-172H120Zm689.231-563.385v-125.846H683.385V-892H840v156.615h-30.769Zm-689.231 0v-140.923h13.692l22 22.769h-6.154v118.154H120ZM683.385-172v-30.769h123.077V-172H683.385ZM540.114-650.615q-27.037 0-45.845-18.694t-18.808-45.731q0-27.037 18.695-45.845 18.694-18.807 45.73-18.807 27.037 0 45.845 18.694t18.808 45.73q0 27.037-18.695 45.845-18.694 18.808-45.73 18.808ZM247.846-861.231 217.077-892h59.538v30.769h-28.769ZM840-269.077l-30.769-30.769v-28.769H840v59.538Z"/></svg>