<svg xmlns="http://www.w3.org/2000/svg" width="48" height="48" viewBox="0 -960 960 960"><path d="M120-723.385V-880h156.615v30.769H150.769v125.846H120ZM276.615-160H120v-156.615h30.769v125.846h125.846V-160Zm532.616-563.385v-125.846H683.385V-880H840v156.615h-30.769Zm-269.117 84.77q-27.037 0-45.845-18.694t-18.808-45.731q0-27.037 18.695-45.845 18.694-18.807 45.73-18.807 27.037 0 45.845 18.694t18.808 45.73q0 27.037-18.695 45.845-18.694 18.808-45.73 18.808ZM379.308-302.692 423-530l-130.769 57.769v127.846h-30.77V-494l162.462-66.692q23.538-10.154 34.669-13.27 11.13-3.115 21.087-3.115 14.936 0 27.36 7.346 12.423 7.346 20.949 20.162l41.397 65.8q12.384 19.077 28.487 36.145 16.103 17.069 36.821 29.624l-16.154 24.846q-23.616-16.769-45.654-40.653-22.039-23.885-41.423-56.116l-40.693 187.231H379.308ZM561.846-120l188.385-327.385L937.616-120h-375.77Zm187.275-24.615q5.033 0 9.302-3.94 4.269-3.939 4.269-9.192t-4.269-9.137q-4.269-3.885-9.302-3.885-5.033 0-8.808 3.808-3.774 3.807-3.774 8.884 0 5.385 3.774 9.423 3.775 4.039 8.808 4.039Zm-12.582-73.462h26.153v-152.692h-26.153v152.692Z"/></svg>