<svg xmlns="http://www.w3.org/2000/svg" width="48" height="48" viewBox="0 -960 960 960"><path d="M514-376h25v-96l102 96h40L565-482l116-102h-38l-104 94v-94h-25v208Zm-239 0h118.919q11.081 0 18.581-7.425T420-402v-156q0-11.15-7.425-18.575Q405.15-584 394-584H275v25h120v66h-78v26h78v66H275v25Zm-49 204q-22.775 0-38.387-15.613Q172-203.225 172-226v-508q0-22.775 15.613-38.388Q203.225-788 226-788h508q22.775 0 38.388 15.612Q788-756.775 788-734v508q0 22.775-15.612 38.387Q756.775-172 734-172H226Zm0-22h508q12 0 22-10t10-22v-508q0-12-10-22t-22-10H226q-12 0-22 10t-10 22v508q0 12 10 22t22 10Zm-32-572v572-572Z"/></svg>