<svg xmlns="http://www.w3.org/2000/svg" width="48" height="48" viewBox="0 -960 960 960"><path d="M363-452h-89q-22.775 0-38.387-15.612Q220-483.225 220-506v-188q0-22.775 15.613-38.388Q251.225-748 274-748h143v22H274q-13 0-22.5 9t-9.5 23v83h121q22.775 0 38.388 15.612Q417-579.775 417-557v51q0 22.775-15.612 38.388Q385.775-452 363-452ZM242-589v83q0 14 9.5 23t22.5 9h89q14 0 23-9t9-23v-51q0-14-9-23t-23-9H242Zm444 137h-89q-22.775 0-38.388-15.612Q543-483.225 543-506v-188q0-22.775 15.612-38.388Q574.225-748 597-748h89q22.775 0 38.388 15.612Q740-716.775 740-694v188q0 22.775-15.612 38.388Q708.775-452 686-452Zm0-22q14 0 23-9t9-23v-188q0-14-9-23t-23-9h-89q-13 0-22.5 9t-9.5 23v188q0 14 9.5 23t22.5 9h89ZM164-106v-144h22v144h-22Zm116 0v-144h22v144h-22Zm116 0v-144h22v144h-22Zm116 0v-144h284v144H512Z"/></svg>