<svg xmlns="http://www.w3.org/2000/svg" width="48" height="48" viewBox="0 -960 960 960"><path d="M302-86q-6.2 0-10.1-4.2-3.9-4.2-3.9-10.8v-116q0-6.2 3.9-10.1 3.9-3.9 10.1-3.9h91v25h-80v35h65q6 0 10.5 3.9T393-157v56q0 6.6-4.5 10.8Q384-86 378-86h-76Zm166 0v-145h85v25h-60v35h40v25h-40v60h-25Zm160 0v-120h-40v-25h105v25h-40v120h-25Zm-315-25h55v-35h-55v35Zm-87-203-97-97 97-97 18 18-68 68h609l-69-68 18-18 97 97-97 97-18-18 68-68H176l68 68-18 18Zm-94-277v3q0-15.081 8.469-26.149Q148.939-625.216 163-632q23.078-8.522 48.32-14.761Q236.562-653 263.281-653q26.719 0 51.7 6.239Q339.963-640.522 363-632q14.061 6.784 22.531 17.851Q394-603.081 394-588v-3H132Zm434 0v3q0-15.081 8.469-26.149Q582.939-625.216 597-632q23.078-8.522 48.32-14.761Q670.562-653 697.281-653q26.719 0 51.7 6.239Q773.963-640.522 797-632q14.061 6.784 22.531 17.851Q828-603.081 828-588v-3H566ZM262.788-729q-22.124 0-36.956-15.544-14.832-15.545-14.832-37Q211-803 225.876-818.5q14.876-15.5 37-15.5Q285-834 300.5-818.456q15.5 15.545 15.5 37Q316-760 300.456-744.5 284.911-729 262.788-729Zm434 0q-22.124 0-36.956-15.544-14.832-15.545-14.832-37Q645-803 659.876-818.5q14.876-15.5 37-15.5Q719-834 734.5-818.456q15.5 15.545 15.5 37Q750-760 734.456-744.5 718.911-729 696.788-729Z"/></svg>