<svg xmlns="http://www.w3.org/2000/svg" width="48" height="48" viewBox="0 96 960 960"><path d="M396.187 951Q325 951 274.5 900T224 777q0-71 51-122t122-51v22q-63 0-107 44t-44 107q0 64 44.5 108T398 929q63 0 107-43.5T549 774h22q0 76-51.813 126.5-51.812 50.5-123 50.5ZM722 938V763q0-12-7-19t-19-7H517q-45 0-69.5-37.5T442 620l97-215H422l-34 91-21-9 30-82q4-16 13.5-23t27.638-7H584q33 0 50.5 22.5T636 454L521 703h169q21.938 0 37.969 16.168Q744 735.337 744 758.467V938h-22Zm-55.92-603q-27.08 0-44.58-17.42-17.5-17.421-17.5-44.5Q604 247 621.42 229q17.421-18 44.5-18Q692 211 710 228.92q18 17.921 18 44 0 27.08-17.92 44.58-17.921 17.5-44 17.5Z"/></svg>