<svg xmlns="http://www.w3.org/2000/svg" width="48" height="48" viewBox="0 96 960 960"><path d="M131 924q-22.775 0-38.388-15.612Q77 892.775 77 870V444q0-23 15.612-38.5Q108.225 390 131 390h123l73-82h256v96h94v94h96v372q0 22.775-15.5 38.388Q742 924 719 924H131Zm294.5-130q57.5 0 97-39.5t39.5-97q0-58.5-39.5-98t-97-39.5q-58.5 0-98 39.5t-39.5 98q0 57.5 39.5 97t98 39.5Zm0-22q-49.5 0-82.5-33t-33-81.5q0-49.5 33-82.5t82.5-33q48.5 0 81.5 33t33 82.5q0 48.5-33 81.5t-81.5 33ZM751 412v-82h-82v-22h82v-82h22v82h82v22h-82v82h-22Z"/></svg>