<svg xmlns="http://www.w3.org/2000/svg" width="48" height="48" viewBox="0 96 960 960"><path d="M480 576Zm.44 348q-72.908 0-135.945-27.391-63.037-27.392-110.34-74.848-47.303-47.457-74.729-110.201Q132 648.816 132 576.408q0-72.408 27.504-135.966 27.505-63.559 74.655-110.574 47.15-47.016 110.391-74.442Q407.79 228 480 228q39.699 0 77.35 8.5Q595 245 629 261v25q-34-18-70.883-27-36.883-9-77.56-9-135.725 0-231.141 95.186T154 575.7q0 135.329 95.358 230.814Q344.715 902 480.358 902 616 902 711 806.747T806 576q0-28.87-4.5-55.935T787 467h24q9 26.417 13 53.188 4 26.772 4 55.812 0 72.21-27.391 135.663-27.392 63.453-74.348 110.391-46.957 46.937-110.435 74.442Q552.348 924 480.44 924ZM829 350v-83h-83v-22h83v-83h22v83h83v22h-83v83h-22ZM612.235 512q15.265 0 26.515-11.485Q650 489.029 650 473.765q0-15.265-11.485-26.515Q627.029 436 611.765 436q-15.265 0-26.515 11.485Q574 458.971 574 474.235q0 15.265 11.485 26.515Q596.971 512 612.235 512Zm-264 0q15.265 0 26.515-11.485Q386 489.029 386 473.765q0-15.265-11.485-26.515Q363.029 436 347.765 436q-15.265 0-26.515 11.485Q310 458.971 310 474.235q0 15.265 11.485 26.515Q332.971 512 348.235 512ZM480 764q54 0 99.5-29t69.5-77H311q24 48 69.5 77t99.5 29Z"/></svg>