<svg xmlns="http://www.w3.org/2000/svg" width="48" height="48" viewBox="0 96 960 960"><path d="M457 719q-26 25-60.5 24.5T337 719q-24-25-24.5-59.5T337 600l166-167q25-25 60.5-25t60.5 25q25 25 24.5 59.5T624 552L457 719Zm-105-16q23 23 49.5 19t39.5-18l75-76-88-88-76 75q-19 17.937-19 43.968Q333 685 352 703Zm256-254q-23-23-49.5-19T519 448l-75 76 88 88 76-75q19-18 18.5-44T608 449ZM226 884q-21.75 0-37.875-16.125T172 830V322q0-21.75 16.125-37.875T226 268h205q-13-28 3-54t46-26q31 0 47 26t2 54h205q21.75 0 37.875 16.125T788 322v508q0 21.75-16.125 37.875T734 884H226Zm0-22h508q12 0 22-10t10-22V322q0-12-10-22t-22-10H226q-12 0-22 10t-10 22v508q0 12 10 22t22 10Zm253.791-588q12.79 0 22.5-9Q512 256 512 242.5t-9.709-22.5q-9.71-9-22.5-9Q467 211 458 220t-9 22.5q0 13.5 9 22.5t21.791 9ZM194 862V290v572Z"/></svg>