<svg xmlns="http://www.w3.org/2000/svg" width="48" height="48" viewBox="0 96 960 960"><path d="M172 884V359q0-37.833 26.5-64.417Q225 268 263 268h137q37.833 0 64.417 26.583Q491 321.167 491 359v525H172Zm263-156h34V464h-34q-14 0-23 9t-9 23v200q0 14 9 23t23 9ZM194 862h275V750h-34q-21.75 0-37.875-16.125T381 696V496q0-21.75 16.125-37.875T435 442h34v-83q0-29.25-19.875-49.125T400 290H263q-28 0-48.5 19.875T194 359v503Zm472.347-252q-17.347 0-32.806-3.38-15.46-3.38-32.541-9.62l7-20q16 6 30 8.5t29 2.5q15.667 0 31.833-5Q715 578 731 567q20-13 40.443-18.5Q791.886 543 809 543q16.115 0 33.058 3Q859 549 875 555l-8 22q-21.403-5.8-31.702-8.9Q825 565 810 565q-17 0-34.967 5.45Q757.067 575.9 737 590q-17 11-35 15.5t-35.653 4.5ZM667 471q-17 0-33-3.5t-33-9.5l7-21q18 5 32 8.5t27 3.5q15.667 0 31.333-4.5Q714 440 731 428q21-13 40.5-18.5T810 404q15 0 31.368 2.917Q857.737 409.833 875 416l-8 22q-17-5-31-8.5t-26-3.5q-17 0-35 5t-39 21q-14 9-32.346 14-18.345 5-36.654 5Zm0 278q-16.911 0-32.881-3.38Q618.148 742.24 601 736l7-21q16 5 31.093 8.5Q654.185 727 667 727q15.667 0 31.333-5Q714 717 731 706q19.547-12.897 41.405-18.448Q794.263 682 811 682q14 0 31 3t33 9l-7 22q-17-6-31.89-9T810 704q-18.302 0-37.151 6.5Q754 717 736 730q-13 9-31.196 14-18.195 5-37.804 5ZM469 862V344.5 359v-14.5V862Z"/></svg>