<svg xmlns="http://www.w3.org/2000/svg" width="48" height="48" viewBox="0 -960 960 960"><path d="M469-759v-105h22v105h-22Zm-136 45-80-81 15-16 81 81-16 16Zm-60 440h104q9 0 16-7.18 7-7.17 7-16.5 0-9.32-7.12-15.82-7.13-6.5-15.88-6.5H273v46Zm310 0h104v-46H583q-9 0-16 6.68-7 6.67-7 16 0 9.32 7.13 16.32 7.12 7 15.87 7Zm75-249 123-123-16-16-107 108-52-53-16 16 68 68Zm-76.5 27.5Q539-538 539-599.5t42.5-104Q624-746 685.5-746t104 42.5Q832-661 832-599.5t-42.5 104Q747-453 685.5-453t-104-42.5ZM183-92q-4.75 0-7.87-3.13Q172-98.25 172-103v-287l78-223.65q2-6.35 8.5-10.35t13.5-4h141v-55h48q-6 19-10 37.5t-5 38.5v1H271l-66 185h318q33.63 29.92 75.08 45.96Q639.53-359 686-359q26 0 52-6t50-18v280q0 4.75-3.12 7.87Q781.75-92 777-92h6q-4.75 0-7.87-3.13Q772-98.25 772-103v-70H188v70q0 4.75-3.12 7.87Q181.75-92 177-92h6Z"/></svg>