<svg xmlns="http://www.w3.org/2000/svg" width="48" height="48"><path d="M19.6 34q1.55 0 2.575-1.05Q23.2 31.9 23.2 30.4V19.35H28v-2.7h-6.15V27.6q-.4-.35-1-.575-.6-.225-1.25-.225-1.5 0-2.55 1.025Q16 28.85 16 30.4q0 1.5 1.05 2.55Q18.1 34 19.6 34zm4.4 7.4q-3.6 0-6.75-1.375t-5.525-3.75Q9.35 33.9 7.975 30.75 6.6 27.6 6.6 24t1.375-6.775q1.375-3.175 3.75-5.525Q14.1 9.35 17.25 7.975 20.4 6.6 24 6.6t6.775 1.375Q33.95 9.35 36.3 11.7q2.35 2.35 3.725 5.525Q41.4 20.4 41.4 24q0 3.6-1.375 6.75T36.3 36.275q-2.35 2.375-5.525 3.75Q27.6 41.4 24 41.4z"/></svg>