<svg xmlns="http://www.w3.org/2000/svg" width="48" height="48" viewBox="0 -960 960 960"><path d="m82-563-31-29q90.56-77.05 200.96-116.53Q362.35-748 480-748q117.65 0 228.04 39.47Q818.44-669.05 909-592l-31 29q-84-71-186-107.5T480-707q-110 0-212 36.5T82-563Zm360 338.5q-16-15.51-16-38 0-22.5 16.16-37.5 16.17-15 38-15T518-299.62q16 15.37 16 37.5 0 22.12-16.21 37.62-16.21 15.5-38 15.5T442-224.5ZM302-357l-30-30q44-35 97.94-53T480-458q32 0 63 6.5t61 17.5q-8 9-13.5 18T579-398q-24-9-48.69-13-24.69-4-50.31-4-49 0-94.27 14.49Q340.45-386.01 302-357ZM193-460l-30-29q67-57 148.75-85.5Q393.49-603 481.22-603q86.78 0 168.28 28.5T798-490l-2 2q-11.33-3.5-23.17-5.25Q761-495 748-495h-14.14q-6.86 0-13.86 1-54-33-114.5-50T481-561q-79 0-153.22 25.5Q253.57-510 193-460Zm544 253v-80h-80v-22h80v-80h22v80h80v22h-80v80h-22Z"/></svg>