<svg xmlns="http://www.w3.org/2000/svg" width="48" height="48" viewBox="0 96 960 960"><path d="M721 924 602 804l15-16 93 94V674h22v208l93-93 15 15-119 120Zm-535 0q-23 0-38.5-15.5T132 870V282q0-23 15.5-38.5T186 228h320l162 162v223H550v311H186Zm306-520h154L492 250v154ZM250 816h300q-2.929-36.656-21.964-67.328Q509 718 477 700l28.5-51q1.5-3 0-6.5t-4.833-5.5Q498 635 495 636t-4.512 3.973L461 692q-14-6-29.366-9t-31.5-3Q384 680 369 683.176q-15 3.177-30 8.824l-29-52q-2-3-5.5-4t-6.5 1q-1 0-3 12l29 51q-31.714 17.961-51.347 48.645Q253.02 779.329 250 816Zm83-45q-6 0-10.5-4.5T318 756q0-6 4.5-10.5T333 741q6 0 10 4.5t4 10.5q0 6-4.2 10.5T333 771Zm135 0q-6 0-10.5-4.5T453 756q0-6 4.5-10.5T468 741q6 0 10.5 4.5T483 756q0 6-4.5 10.5T468 771Z"/></svg>