<svg xmlns="http://www.w3.org/2000/svg" width="48" height="48"><path d="M22 38.6v-1.2l12.55-12.55 1.2 1.2L23.2 38.6zm14.7-13.45-1.25-1.25.8-.75q.1-.1.275-.1.175 0 .275.1l.65.65q.1.1.075.275-.025.175-.075.275zM11.8 13.6q-.7 0-1.25-.55T10 11.8q0-.75.55-1.275Q11.1 10 11.8 10q.75 0 1.275.525.525.525.525 1.275 0 .7-.525 1.25t-1.275.55zm0 24.4q-.7 0-1.25-.55T10 36.2q0-.75.55-1.275.55-.525 1.25-.525.75 0 1.275.525.525.525.525 1.275 0 .7-.525 1.25T11.8 38zm0-12.2q-.7 0-1.25-.55T10 24q0-.75.55-1.275.55-.525 1.25-.525.75 0 1.275.525.525.525.525 1.275 0 .7-.525 1.25t-1.275.55zm12.2 0q-.75 0-1.275-.55Q22.2 24.7 22.2 24q0-.75.55-1.275.55-.525 1.25-.525.75 0 1.275.525.525.525.525 1.275zm12.2-12.2q-.7 0-1.25-.55t-.55-1.25q0-.75.55-1.275Q35.5 10 36.2 10q.75 0 1.275.525Q38 11.05 38 11.8q0 .7-.525 1.25t-1.275.55zm-12.2 0q-.7 0-1.25-.55t-.55-1.25q0-.75.55-1.275Q23.3 10 24 10q.75 0 1.275.525.525.525.525 1.275 0 .7-.525 1.25T24 13.6z"/></svg>