<svg xmlns="http://www.w3.org/2000/svg" width="48" height="48" viewBox="0 96 960 960"><path d="M236 856q-14.5 0-25.25-10.75T200 820q0-14.5 10.75-25.25T236 784q14.5 0 25.25 10.75T272 820q0 14.5-10.75 25.25T236 856Zm0-244q-14.5 0-25.25-10.75T200 576q0-14.5 10.75-25.25T236 540q14.5 0 25.25 10.75T272 576q0 14.5-10.75 25.25T236 612Zm0-244q-14.5 0-25.25-10.75T200 332q0-14.5 10.75-25.25T236 296q14.5 0 25.25 10.75T272 332q0 14.5-10.75 25.25T236 368Zm243.646 244Q465 612 454.5 601.25T444 576q0-14.5 10.75-25.25T480 540q14.5 0 25.25 10.75T516 576l-36.354 36ZM480 368q-14.5 0-25.25-10.75T444 332q0-14.5 10.75-25.25T480 296q14.5 0 25.25 10.75T516 332q0 14.5-10.75 25.25T480 368Zm-40 500v-24l251-251 24 24-251 251h-24Zm284-500q-14.5 0-25.25-10.75T688 332q0-14.5 10.75-25.25T724 296q14.5 0 25.25 10.75T760 332q0 14.5-10.75 25.25T724 368Zm10 231-25-25 16-15q2-2 5.5-2t5.5 2l13 13q2 2 1.5 5.5T749 583l-15 16Z"/></svg>