<svg xmlns="http://www.w3.org/2000/svg" width="48" height="48" viewBox="0 -960 960 960"><path d="M493.5-311.5q5.5-5.5 5.5-13t-5.5-13Q488-343 480-343t-13 5.5q-5 5.5-5 13t5 13q5 5.5 13 5.5t13.5-5.5ZM469-404h22v-252h-22v252ZM226-172q-21.75 0-37.87-16.13Q172-204.25 172-226v-508q0-21.75 16.13-37.88Q204.25-788 226-788h205q-13-28 3-54t46.5-26q30.5 0 46.5 26t2 54h205q21.75 0 37.88 16.12Q788-755.75 788-734v508q0 21.75-16.12 37.87Q755.75-172 734-172H226Zm276.5-619q9.5-9 9.5-22.5t-9.5-22.5q-9.5-9-22.5-9t-22 9q-9 9-9 22.5t9 22.5q9 9 22 9t22.5-9Z"/></svg>