<svg xmlns="http://www.w3.org/2000/svg" width="48" height="48" viewBox="0 96 960 960"><path d="M480 750q8.5 0 13.75-5.25T499 731q0-7.5-5.25-12.75T480 713q-8.5 0-13.25 5.25T462 731q0 8.5 4.75 13.75T480 750Zm-11-98h22V400h-22v252ZM226 884q-21.75 0-37.875-16.125T172 830V322q0-21.75 16.125-37.875T226 268h205q-13-28 3-54t46.5-26q30.5 0 46.5 26t2 54h205q21.75 0 37.875 16.125T788 322v508q0 21.75-16.125 37.875T734 884H226Zm254-610q13 0 22.5-9t9.5-23q0-13-9.5-22t-22.5-9q-13 0-22 9t-9 22q0 14 9 23t22 9Z"/></svg>