<svg xmlns="http://www.w3.org/2000/svg" width="48" height="48" viewBox="0 -960 960 960"><path d="M472-562h188v-22H472v22Zm0 185h188v-22H472v22ZM356.115-541q13.335 0 22.61-9.15Q388-559.3 388-573q0-12.45-9.098-21.725Q369.804-604 356.177-604t-22.402 9.275Q325-585.45 325-572.5q0 12.95 8.89 22.225Q342.78-541 356.115-541Zm0 185q13.335 0 22.61-9.15Q388-374.3 388-388q0-12.45-9.098-21.725Q369.804-419 356.177-419t-22.402 9.275Q325-400.45 325-387.5q0 12.95 8.89 22.225Q342.78-356 356.115-356ZM226-172q-22.775 0-38.387-15.613Q172-203.225 172-226v-508q0-22.775 15.613-38.388Q203.225-788 226-788h508q22.775 0 38.388 15.612Q788-756.775 788-734v508q0 22.775-15.612 38.387Q756.775-172 734-172H226Zm0-22h508q12 0 22-10t10-22v-508q0-12-10-22t-22-10H226q-12 0-22 10t-10 22v508q0 12 10 22t22 10Zm-32-572v572-572Z"/></svg>