<svg xmlns="http://www.w3.org/2000/svg" width="48" height="48" viewBox="0 -960 960 960"><path d="M240.091-200Q206-200 186-226.5T174-285l77-289q-32-8-55.5-37.5T172-680q0-44.55 31.725-76.275Q235.45-788 280-788h278q30.165 0 45.582 25.5Q619-737 606-710l-54 108q-7.437 13.636-19.944 21.818Q519.549-572 504-572H390.598L374-508h1q10.725 1 18.362 8.475Q401-492.05 401-481v48q0 11.475-7.763 19.237Q385.475-406 374-406h-27l-41 157q-6.25 21.716-24.432 35.358Q263.386-200 240.091-200ZM240-222q16 0 27.5-9.5T284-256l85-316h-96l-78 292q-6 22 7.909 40 13.909 18 37.091 18Zm40-372h224q9 0 17-5t12-13l54-108q8-16-1.5-31T558-766H280q-36.225 0-61.113 24.841-24.887 24.84-24.887 61Q194-644 218.887-619q24.888 25 61.113 25Zm429-188-11-24 114-51 10 23-113 52Zm103 279-114-51 11-23 113 51-10 23Zm-95-164v-26h126v26H717Zm-321-13Zm-76 108Z"/></svg>