<svg xmlns="http://www.w3.org/2000/svg" width="48" height="48" viewBox="0 -960 960 960"><path d="M378-261.07q8-8.07 8-20T377.93-301q-8.07-8-20-8T338-300.93q-8 8.07-8 20t8.07 19.93q8.07 8 20 8t19.93-8.07Zm122 0q8-8.07 8-20T499.93-301q-8.07-8-20-8T460-300.93q-8 8.07-8 20t8.07 19.93q8.07 8 20 8t19.93-8.07Zm122 0q8-8.07 8-20T621.93-301q-8.07-8-20-8T582-300.93q-8 8.07-8 20t8.07 19.93q8.07 8 20 8t19.93-8.07Zm-244-122q8-8.07 8-20t-8.07-19.43q-8.07-7.5-20-7.5T338-422.43q-8 7.57-8 19.5t8.07 19.93q8.07 8 20 8t19.93-8.07Zm122 0q8-8.07 8-20t-8.07-19.43q-8.07-7.5-20-7.5T460-422.43q-8 7.57-8 19.5t8.07 19.93q8.07 8 20 8t19.93-8.07Zm122 0q8-8.07 8-20t-8.07-19.43q-8.07-7.5-20-7.5T582-422.43q-8 7.57-8 19.5t8.07 19.93q8.07 8 20 8t19.93-8.07ZM312-517h336v-4q0-69-49-118.5T480-689q-70 0-119 49.5T312-521v4Zm168-147ZM186-132q-23 0-38.5-15.5T132-186v-588q0-23 15.5-38.5T186-828h588q23 0 38.5 15.5T828-774v588q0 23-15.5 38.5T774-132H186Z"/></svg>