<svg xmlns="http://www.w3.org/2000/svg" width="48" height="48" viewBox="0 96 960 960"><path d="M183 884q-38 0-64.5-26.5T92 793V359q0-38 26.5-64.5T183 268h271q38 0 64.5 26.5T545 359v261h80q21.875 0 36.438 14.562Q676 649.125 676 671v120q0 22 15.5 37.5T729 844q22 0 37.5-15.5T782 791V504q-28 0-48-18.5T714 439v-77h28v-60h22v60h58v-60h22v60h28v77q0 28-20 46.5T804 504v287q0 30.8-22.141 52.9-22.141 22.1-53 22.1T676 843.9q-22-22.1-22-52.9V638H545v147q0 41.075-28.963 70.037Q487.075 884 446 884H183Zm0-22h263.319Q478 862 500.5 839.263 523 816.525 523 785t-22.737-54.263Q477.525 708 446 708H235q-14 0-23.5 9.5T202 741q0 14 9.5 23.5T235 774h211q4.7 0 7.85 3.211 3.15 3.21 3.15 8 0 4.789-3.15 7.789t-7.85 3H235q-23.16 0-39.08-15.961Q180 764.078 180 740.859t15.92-39.039Q211.84 686 235 686h211q21.032 0 42.016 5.5Q509 697 523 713V359q0-29.25-19.875-49.125T454 290H183q-29.25 0-49.125 19.875T114 359v434q0 29.25 19.875 49.125T183 862Z"/></svg>