<svg xmlns="http://www.w3.org/2000/svg" width="48" height="48" viewBox="0 -960 960 960"><path d="M292-300q7-7 7-17.28 0-10.28-7-18-7-7.72-17.28-7.72-10.28 0-18 7.72-7.72 7.72-7.72 18 0 10.28 7.72 17.28 7.72 7 18 7 10.28 0 17.28-7Zm-29-104h22v-251h-22v251Zm206 99h228v-22H469v22Zm0-165h228v-22H469v22Zm0-163h228v-22H469v22ZM184-172q-22.77 0-38.39-15.61Q130-203.23 130-226v-508q0-22.78 15.61-38.39Q161.23-788 184-788h592q22.78 0 38.39 15.61T830-734v508q0 22.77-15.61 38.39Q798.78-172 776-172H184Zm0-22h592q12 0 22-10t10-22v-508q0-12-10-22t-22-10H184q-12 0-22 10t-10 22v508q0 12 10 22t22 10Zm-32 0v-572 572Z"/></svg>