<svg xmlns="http://www.w3.org/2000/svg" width="48" height="48" viewBox="0 96 960 960"><path d="m480 639 36.289-86.711L603 516l-86.711-36.289L480 393l-36.289 86.711L357 516l86.711 36.289L480 639ZM186 788q-22.775 0-38.387-15.612Q132 756.775 132 734V346q0-22.775 15.613-38.388Q163.225 292 186 292h588q22.775 0 38.388 15.612Q828 323.225 828 346v388q0 22.775-15.612 38.388Q796.775 788 774 788H186Zm0-22h588q12 0 22-10t10-22V346q0-12-10-22t-22-10H186q-12 0-22 10t-10 22v388q0 12 10 22t22 10Zm-32 0V314v452Zm-63 90q-4.725 0-7.862-3.193-3.138-3.193-3.138-8T83.138 837q3.137-3 7.862-3h778q4.725 0 7.862 3.193 3.138 3.193 3.138 8T876.862 853q-3.137 3-7.862 3H91Z"/></svg>