<svg xmlns="http://www.w3.org/2000/svg" width="48" height="48"><path d="M31.35 34.2q.25.25.575.275.325.025.575-.225l1.4-1.35q.25-.25.25-.6t-.25-.6l-8.05-8.1q.35-.65.525-1.4.175-.75.175-1.6 0-2.6-1.85-4.425-1.85-1.825-4.45-1.825-.7 0-1.3.15-.6.15-1.15.4l3.9 3.95L18.55 22l-4-3.95q-.3.6-.425 1.225Q14 19.9 14 20.6q0 2.6 1.825 4.425 1.825 1.825 4.425 1.825.85 0 1.6-.2.75-.2 1.45-.55zM24 41.4q-3.6 0-6.775-1.35-3.175-1.35-5.55-3.725t-3.725-5.55Q6.6 27.6 6.6 24q0-3.6 1.35-6.775 1.35-3.175 3.725-5.55t5.55-3.725Q20.4 6.6 24 6.6q3.6 0 6.775 1.35 3.175 1.35 5.55 3.725t3.725 5.55Q41.4 20.4 41.4 24q0 3.6-1.35 6.775-1.35 3.175-3.725 5.55t-5.55 3.725Q27.6 41.4 24 41.4z"/></svg>