<svg xmlns="http://www.w3.org/2000/svg" width="48" height="48" viewBox="0 96 960 960"><path d="M158 924q-11.05 0-18.525-8.5Q132 907 132 896V710q0-21.5 16.25-37.75T186 656h508q21.5 0 37.75 16.25T748 710v186q0 11-8.5 19.5T720 924H158Zm56-290V474q0-22.275 16.25-38.138Q246.5 420 268 420h161v-62q-17-11-28.5-24.5T389 302.154q0-11.154 4-20.764 4-9.609 11-16.39l36-37 36 37.353q7 6.647 11.5 16.147 4.5 9.5 4.5 20.654Q492 320 480 333.5T451 358v62h161q21.5 0 37.75 15.862Q666 451.725 666 474v160H214Zm552-220v-83h-83v-22h83v-83h22v83h83v22h-83v83h-22Z"/></svg>