<svg xmlns="http://www.w3.org/2000/svg" width="48" height="48" viewBox="0 -960 960 960"><path d="M252-186v-22h229l-75-75 16-16 101 102L422-96l-16-16 74-74H252Zm308 0v-22h148v22H560Zm-308-92v-496q0-22.775 15.612-38.388Q283.225-828 306-828h348q22.775 0 38.388 15.612Q708-796.775 708-774v496H496l-74-73-74 73h-96Zm22-124q45-21 101.268-33.5 56.269-12.5 104.5-12.5 48.232 0 104.977 12.5Q641.49-423 686-402v-372q0-12-10-22t-22-10H306q-12 0-22 10t-10 22v372Zm205.765-122q-38.265 0-65.015-26.694Q388-577.387 388-615.235q0-38.265 26.985-65.015Q441.971-707 480.235-707q38.265 0 65.015 26.882 26.75 26.883 26.75 65Q572-577 545.015-550.5q-26.986 26.5-65.25 26.5Z"/></svg>