<svg xmlns="http://www.w3.org/2000/svg" width="48" height="48" viewBox="0 96 960 960"><path d="M449 467h340q-26-72-86-129.5T568 261L449 467Zm-80 81 172-295q-11-1-30.5-2t-30.5-1q-68 0-126 25t-103 69l118 204ZM164 658h236L233 364q-38 45-58.5 98.5T154 576q0 21 2.5 41.5T164 658Zm231 232 119-205H171q26 72 87 129.5T395 890Zm85 12q68 0 126-25t103-69L591 604 421 897q11 2 29 3.5t30 1.5Zm248-114q32-41 55-98t23-114q0-21-2.5-41.5T796 494H561l167 294ZM480 576Zm0 348q-72 0-135.5-27.5T234 822q-47-47-74.5-110.5T132 576q0-72 27.5-135.5T234 330q47-47 110.5-74.5T480 228q72 0 135.5 27.5T726 330q47 47 74.5 110.5T828 576q0 72-27.5 135.5T726 822q-47 47-110.5 74.5T480 924Z"/></svg>