<svg xmlns="http://www.w3.org/2000/svg" width="48" height="48" viewBox="0 -960 960 960"><path d="M480-470ZM272-212q-34 0-60.5-21T169-285H52v-188q0-23 15.5-38.5T106-527h52l63-170q6-14 19-22.5t28-8.5h283q13 0 24 6.5t19 17.5l37 62-15 17-50-81H249l-75 201h-68q-14 0-23 9.5T74-473v166h114v-2q0 30 24.5 52.5T272-234q35 0 59-22.5t24-52.5v2h250v-2q0 30 24.5 52.5T689-234q35 0 59-22.5t24-52.5v2h114v-171q0-13-8.5-22.5T856-510l-115-10 19-21 92 7q23 2 39.5 20t16.5 41v188H790q-15 31-41.5 52t-60 21q-33.5 0-60-21T586-285H373q-15 31-41.5 52T272-212Zm128-195 16-15-47-47h236l231-270-17-14-224 262H369l47-47-16-15-73 73 73 73Z"/></svg>