<svg xmlns="http://www.w3.org/2000/svg" width="48" height="48"><path d="M16.5 32.85q.6 0 .975-.4t.375-.95q0-.6-.4-.975t-.95-.375q-.55 0-.95.4-.4.4-.4.95 0 .55.4.95.4.4.95.4zm0-15q.6 0 .975-.4t.375-.95q0-.6-.4-.975t-.95-.375q-.55 0-.95.4-.4.4-.4.95 0 .55.4.95.4.4.95.4zm7.5 7.5q.6 0 .975-.4t.375-.95q0-.6-.4-.975T24 22.65q-.55 0-.95.4-.4.4-.4.95 0 .55.4.95.4.4.95.4zm7.5 7.5q.6 0 .975-.4t.375-.95q0-.6-.4-.975t-.95-.375q-.55 0-.95.4-.4.4-.4.95 0 .55.4.95.4.4.95.4zm0-15q.6 0 .975-.4t.375-.95q0-.6-.4-.975t-.95-.375q-.55 0-.95.4-.4.4-.4.95 0 .55.4.95.4.4.95.4zM11.3 39.4q-1.15 0-1.925-.775Q8.6 37.85 8.6 36.7V11.3q0-1.15.775-1.925Q10.15 8.6 11.3 8.6h25.4q1.15 0 1.925.775.775.775.775 1.925v25.4q0 1.15-.775 1.925-.775.775-1.925.775zm0-1.1h25.4q.7 0 1.15-.45.45-.45.45-1.15V11.3q0-.7-.45-1.15-.45-.45-1.15-.45H11.3q-.7 0-1.15.45-.45.45-.45 1.15v25.4q0 .7.45 1.15.45.45 1.15.45zm-1.6 0V9.7v28.6z"/></svg>