<svg xmlns="http://www.w3.org/2000/svg" width="48" height="48" viewBox="0 0 48 48"><path d="M11.3 39.4q-1.15 0-1.925-.775Q8.6 37.85 8.6 36.7v-6.6h1.1v6.6q0 .6.5 1.1.5.5 1.1.5h6.6v1.1Zm18.8 0v-1.1h6.6q.6 0 1.1-.5.5-.5.5-1.1v-6.6h1.1v6.6q0 1.15-.775 1.925-.775.775-1.925.775ZM24 29.15q-2.2 0-3.675-1.475Q18.85 26.2 18.85 24q0-2.2 1.475-3.675Q21.8 18.85 24 18.85q2.2 0 3.675 1.475Q29.15 21.8 29.15 24q0 2.2-1.475 3.675Q26.2 29.15 24 29.15Zm0-1.1q1.7 0 2.875-1.175T28.05 24q0-1.7-1.175-2.875T24 19.95q-1.7 0-2.875 1.175T19.95 24q0 1.7 1.175 2.875T24 28.05ZM8.6 17.9v-6.6q0-1.15.775-1.925Q10.15 8.6 11.3 8.6h6.6v1.1h-6.6q-.6 0-1.1.5-.5.5-.5 1.1v6.6Zm29.7 0v-6.6q0-.6-.5-1.1-.5-.5-1.1-.5h-6.6V8.6h6.6q1.15 0 1.925.775.775.775.775 1.925v6.6ZM24 24Z"/></svg>