<svg xmlns="http://www.w3.org/2000/svg" width="48" height="48"><path d="M32.25 28.2q.5-1 .75-2.05.25-1.05.25-2.15 0-1.75-.675-3.45-.675-1.7-2.025-3.05-1.3-1.35-3.625-2-2.325-.65-4.775-.65l2.75-2.75-1-1-4.55 4.55 4.55 4.55 1-1-2.95-2.95q2.6 0 4.55.575 1.95.575 3.05 1.675 1.15 1.15 1.725 2.6.575 1.45.575 2.9 0 .85-.175 1.7t-.525 1.6zm-8.1 8.7 4.55-4.55-4.55-4.55-1 1 2.95 2.95q-2.6 0-4.55-.575Q19.6 30.6 18.5 29.5q-1.15-1.15-1.725-2.6-.575-1.45-.575-2.9 0-.85.175-1.7t.525-1.6l-1.1-.9q-.5 1-.75 2.05-.25 1.05-.25 2.15 0 1.75.675 3.45.675 1.7 2.025 3.05 1.3 1.35 3.625 2 2.325.65 4.775.65l-2.75 2.75zM24 41.4q-3.6 0-6.775-1.35-3.175-1.35-5.55-3.725t-3.725-5.55Q6.6 27.6 6.6 24q0-3.6 1.35-6.775 1.35-3.175 3.725-5.55t5.55-3.725Q20.4 6.6 24 6.6q3.6 0 6.775 1.35 3.175 1.35 5.55 3.725t3.725 5.55Q41.4 20.4 41.4 24q0 3.6-1.35 6.775-1.35 3.175-3.725 5.55t-5.55 3.725Q27.6 41.4 24 41.4zM24 24zm0 16.3q6.8 0 11.55-4.75Q40.3 30.8 40.3 24q0-6.8-4.75-11.55Q30.8 7.7 24 7.7q-6.8 0-11.55 4.75Q7.7 17.2 7.7 24q0 6.8 4.75 11.55Q17.2 40.3 24 40.3z"/></svg>