<svg xmlns="http://www.w3.org/2000/svg" width="48" height="48" viewBox="0 -960 960 960"><path d="m186-788 52 106h123l-52-106h83l52 106h123l-52-106h82l53 106h123l-53-106h54q22.78 0 38.39 15.61T828-734v508q0 22.77-15.61 38.39Q796.78-172 774-172H186q-22.77 0-38.39-15.61Q132-203.23 132-226v-508q0-22.78 15.61-38.39Q163.23-788 186-788Zm-32 128v434q0 14 9 23t23 9h588q14 0 23-9t9-23v-434H154Zm0 0v466-466Zm202 374h248v-5q0-27-35-45t-89-18q-54 0-89 18t-35 45v5Zm161-161q15-15 15-37t-15-37q-15-15-37-15t-37 15q-15 15-15 37t15 37q15 15 37 15t37-15Z"/></svg>