<svg xmlns="http://www.w3.org/2000/svg" width="48" height="48"><path d="M34.1 17.65 33 15.2l-2.4-1.05 2.4-1.1 1.1-2.4 1.1 2.4 2.35 1.1-2.35 1.05zm5.8 8.8q-1.1 0-1.825-.75-.725-.75-.725-1.85 0-1.55.85-2.85l1.7-2.6q.85 1.3 1.725 2.6.875 1.3.875 2.85 0 1.1-.75 1.85t-1.85.75zM28.55 25.3l-11-4.2H11.4q.45-3.1 2.7-5.175 2.25-2.075 5.35-2.525V6.55h-3v-1.1H26q.95 0 1.875.2t1.825.6l-.9.85q-.65-.25-1.35-.4-.7-.15-1.45-.15h-5.45v6.85q3.35.35 5.675 2.8 2.325 2.45 2.325 5.8zM27.2 41.25 11.15 36.5V25.1h5.2l12.1 4.45q1.1.4 1.625 1.425Q30.6 32 30.6 33.15h-1.15q-1.6 0-3.15-.075-1.55-.075-3-.625l-3.6-1.3-.55 1.25 4.15 1.35q1.25.4 2.525.525t2.575.125h9.35q1.1 0 1.925.85t.825 2v-.1zM4.7 39V25.1H10V39z"/></svg>