<svg xmlns="http://www.w3.org/2000/svg" width="48" height="48" viewBox="0 -960 960 960"><path d="M444-378q-11.45 0-18.725-7.275Q418-392.55 418-404v-152q0-11.45 7.275-18.725Q432.55-582 444-582h112q11.45 0 18.725 7.275Q582-567.45 582-556v152q0 11.45-7.275 18.725Q567.45-378 556-378H444Zm-2-24h116v-156H442v156Zm-278 24q-11.45 0-18.725-7.275Q138-392.55 138-404v-152q0-11.45 7.275-18.725Q152.55-582 164-582h112q11.45 0 18.725 7.275Q302-567.45 302-556v18h-24v-20H162v156h116v-20h24v17.684q0 11.316-7.275 18.816Q287.45-378 276-378H164Zm534 120v-88q0-11.45 7.275-18.725Q712.55-372 724-372h94v-66H698v-24h118q11.45 0 18.725 7.275Q842-447.45 842-436v62q0 11.45-7.275 18.725Q827.45-348 816-348h-94v66h120v24H698Z"/></svg>