<svg xmlns="http://www.w3.org/2000/svg" width="48" height="48" viewBox="0 -960 960 960"><path d="M846-197v-563q0-14-9-23t-23-9H146q-14 0-23 9t-9 23v288H92v-288q0-22 16.13-38 16.12-16 37.87-16h668q21.75 0 37.88 16.12Q868-781.75 868-760v519q0 12.54-5.5 24.27T846-197ZM285-462q-30-30-30-75.5t30-75q30-29.5 75-29.5t75 29.5q30 29.5 30 75T435-462q-30 30-75 30t-75-30Zm134-16q24-24 24-59t-24-59q-24-24-59-24t-59 24q-24 24-24 59t24 59q24 24 59 24t59-24ZM92-152v-47q0-23 14-42t37-30q57-25 110.97-38t106-13Q412-322 466-309t110.48 38.4q23.69 10.71 37.6 29.65Q628-222 628-199v47H92Zm22-22h492v-25q0-15-10.5-29T566-252q-51-25-102-36.5T360-300q-53 0-104.5 11.5T154-252q-19 10-29.5 24T114-199v25Zm246-363Zm0 363Z"/></svg>