<svg xmlns="http://www.w3.org/2000/svg" width="48" height="48" viewBox="0 -960 960 960"><path d="M316-404q-12 0-20-8.5t-8-19.5q0-12 8-20t19.5-8q11.5 0 20 8t8.5 19.5q0 11.5-8.5 20T316-404Zm165 0q-11 0-19.5-8.5T453-432q0-12 8.5-20t19.5-8q11 0 19.5 8t8.5 20q0 11-8.5 19.5T481-404Zm163 0q-11 0-19.5-8.5T616-432q0-12 8.5-20t19.5-8q11 0 19.5 8t8.5 20q0 11-8.5 19.5T644-404ZM226-132q-22.775 0-38.387-15.613Q172-163.225 172-186v-514q0-22.775 15.613-38.388Q203.225-754 226-754h88v-86h27v86h282v-86h24v86h87q22.775 0 38.388 15.612Q788-722.775 788-700v514q0 22.775-15.612 38.387Q756.775-132 734-132H226Zm0-22h508q12 0 22-10t10-22v-345H194v345q0 12 10 22t22 10Zm-32-399h572v-147q0-12-10-22t-22-10H226q-12 0-22 10t-10 22v147Zm0 0v-179 179Z"/></svg>