<svg xmlns="http://www.w3.org/2000/svg" width="48" height="48" viewBox="0 -960 960 960"><path d="M296-412.7q-8-8.7-8-20t8-19.3q8-8 19.3-8t20 8q8.7 8 8.7 19.3t-8.7 20q-8.7 8.7-20 8.7t-19.3-8.7Zm165.5.2q-8.5-8.5-8.5-20t8.5-19.5q8.5-8 19.5-8t19.5 8q8.5 8 8.5 19.5t-8.5 20Q492-404 481-404t-19.5-8.5Zm163 0q-8.5-8.5-8.5-20t8.5-19.5q8.5-8 19.5-8t19.5 8q8.5 8 8.5 19.5t-8.5 20Q655-404 644-404t-19.5-8.5ZM226-132q-22.77 0-38.39-15.61Q172-163.23 172-186v-514q0-22.78 15.61-38.39Q203.23-754 226-754h88v-86h27v86h282v-86h24v86h87q22.78 0 38.39 15.61T788-700v514q0 22.77-15.61 38.39Q756.78-132 734-132H226Zm0-22h508q12 0 22-10t10-22v-345H194v345q0 12 10 22t22 10Z"/></svg>