<svg xmlns="http://www.w3.org/2000/svg" width="48" height="48" viewBox="0 96 960 960"><path d="M354 810h335V678H354v132Zm-75 22q-11 0-19-8t-8-19V683q0-10.75 8-18.875T279 656h405q10.75 0 18.875 8.125T711 683v30h37v62h-37v30q0 11.725-7.638 19.362Q695.725 832 684 832H279Zm-53-434h508q14 0 23-9t9-23v-54H194v54q0 14 9 23t23 9Zm115 108h278q10 0 18-5.5t12-15.5l24-65H287l24 65q4 10 12 15.5t18 5.5Zm0 22q-16.5 0-30.75-9.625T290 493l-27-73h-37q-21.75 0-37.875-16.125T172 366v-76h616v76q0 22-16.125 38T734 420h-37l-28 73q-6.392 15.231-20.041 25.115Q635.311 528 618 528H341ZM194 398v-86 86Z"/></svg>