<svg xmlns="http://www.w3.org/2000/svg" width="48" height="48" viewBox="0 -960 960 960"><path d="M469-172v-148h22v148h-22Zm298-127L663-403l15-16 104 105-15 15Zm-574 0-15-15 104-105 16 16-105 104Zm1-467v54q0 14 9 23t23 9h508q14 0 23-9t9-23v-54H194Zm93 108 24 65q4 10 12 15.5t18 5.5h278q10 0 18-5.5t12-15.5l24-65H287Zm54 108q-16.5 0-30.75-9.625T290-585l-27-73h-37q-21.75 0-37.875-16.125T172-712v-76h616v76q0 22-16.125 38T734-658h-37l-28 73q-5.932 15.25-19.838 25.125Q635.257-550 618-550H341ZM194-766v86-86Z"/></svg>