<svg xmlns="http://www.w3.org/2000/svg" width="48" height="48"><path d="m42.8 44.4-5.6-5.65q-.4.35-.875.5-.475.15-1.025.15H9.9q-1.15 0-1.925-.775Q7.2 37.85 7.2 36.7V11.3q0-.55.15-1.025.15-.475.5-.875L4.5 6.1l.8-.8 38.3 38.3zm-29-35.8h21.5q1.15 0 1.925.775Q38 10.15 38 11.3v4.1h2.5v1.1H38v6.95h2.5v1.1H38v6.95h2.5v1.1h-2.7l-.9-.9V11.3q0-.6-.5-1.1-.5-.5-1.1-.5H14.9zm8.5 8.5-1.7-1.7h1.7zm2.35 2.15.5.5V15.4h6.05v3.85zM31.2 26l-3.9-3.9h3.9zm-7.5-.7zm2.2-4.6zM14 32.6v-6.1h8.3v6.1zm-4.1 5.7h25.8q.2 0 .4-.075t.35-.175L31 32.6h-5.85v-5.85l-3.1-3.1H14V15.6l-5.45-5.45q-.1.15-.175.35-.075.2-.075.4v25.8q0 .6.5 1.1.5.5 1.1.5z"/></svg>