<svg xmlns="http://www.w3.org/2000/svg" width="48" height="48" viewBox="0 0 48 48"><path d="M24 32.9q-.4 0-.7-.3-.3-.3-.3-.75 0-.4.3-.7.3-.3.7-.3.4 0 .7.3.3.3.3.7 0 .45-.3.75t-.7.3Zm-.6-5.35q0-1.25.525-2.3.525-1.05 1.625-2.05 1.15-.9 1.65-1.575.5-.675.5-1.925 0-1.3-.925-2.3-.925-1-2.775-1-1.5 0-2.325.725-.825.725-1.275 1.675l-1.2-.45q.65-1.45 1.85-2.325 1.2-.875 2.95-.875 2.15 0 3.55 1.275t1.4 3.275q0 1.3-.5 2.15-.5.85-1.6 1.8-1.3 1.2-1.725 1.975-.425.775-.475 1.925ZM15.3 43.4q-1.15 0-1.925-.775-.775-.775-.775-1.925V7.3q0-1.15.775-1.925Q14.15 4.6 15.3 4.6h17.4q1.15 0 1.925.775.775.775.775 1.925v33.4q0 1.15-.775 1.925-.775.775-1.925.775Zm-1.6-4.25v1.55q0 .6.5 1.1.5.5 1.1.5h17.4q.6 0 1.1-.5.5-.5.5-1.1v-1.55Zm0-1.1h20.6V9.95H13.7Zm0-29.2h20.6V7.3q0-.6-.5-1.1-.5-.5-1.1-.5H15.3q-.6 0-1.1.5-.5.5-.5 1.1Zm0 0V5.7v3.15Zm0 30.3v3.15-1.6Z"/></svg>