<svg xmlns="http://www.w3.org/2000/svg" width="48" height="48" viewBox="0 0 48 48"><path d="M24 17.35V16.1h3.6v-1.9H24V9.8h4.9v1.3h-3.6v1.8h3.6v4.45Zm6.55 0V9.8h1.3v7.55Zm3 0V9.8h5v4.4h-3.7v3.15Zm1.3-4.45h2.4v-1.8h-2.4Zm2.3 26.2q-4.75 0-9.8-2.65-5.05-2.65-9.2-6.775-4.15-4.125-6.8-9.15Q8.7 15.5 8.7 10.75q0-.9.625-1.525Q9.95 8.6 10.85 8.6h3.65q.9 0 1.525.525.625.525.825 1.425l.95 3.9q.15.8-.05 1.45-.2.65-.7 1.05l-4.25 3.9q3 5 6.55 8.5t8.4 6.15l4.15-4.35q.5-.55 1.075-.75.575-.2 1.275-.05l3.1.7q.9.15 1.425.8t.525 1.6v3.5q0 .9-.625 1.525-.625.625-1.525.625Z"/></svg>