<svg xmlns="http://www.w3.org/2000/svg" width="48" height="48" viewBox="0 -960 960 960"><path d="M297-172q-4.95 0-8.475-2.613Q285-177.225 285-182v-75q-23-3-48-33.545T212-360v-365q0-53.769 64.48-78.384Q340.959-828 479.967-828 623-828 685.5-804.025T748-725v365q0 38.91-25 69.455T675-257v75q0 4.775-3.525 7.387Q667.95-172 663-172h7q-5.95 0-9.475-2.613Q657-177.225 657-182v-71H303v71q0 4.775-3.525 7.387Q295.95-172 290-172h7Zm183-561h250-501 251Zm165 256H234h492-81Zm-411-22h492v-212H234v212Zm102.412 161q15.941 0 26.764-11.059 10.824-11.059 10.824-27T362.941-403.5q-11.059-11.5-27-11.5T308.5-403.265Q297-391.529 297-375.588q0 15.941 11.735 26.764Q320.471-338 336.412-338Zm287.647 0Q640-338 651.5-349.059q11.5-11.059 11.5-27T651.265-403.5Q639.529-415 623.588-415q-15.941 0-26.765 11.735Q586-391.529 586-375.588q0 15.941 11.059 26.764 11.059 10.824 27 10.824ZM229-733h501q-12-38-72.5-55.5T480-806q-124 0-183.5 17T229-733Zm86 458h330q34 0 57.5-24.5T726-357v-120H234v120q0 33 23.5 57.5T315-275Z"/></svg>