<svg xmlns="http://www.w3.org/2000/svg" width="48" height="48" viewBox="0 96 960 960"><path d="M297 884q-4.95 0-8.475-2.612Q285 878.775 285 874v-75q-23-3-48-33.545T212 696V331q0-53.769 64.48-78.384Q340.959 228 479.967 228 623 228 685.5 251.975T748 331v365q0 38.91-25 69.455T675 799v75q0 4.775-3.525 7.388Q667.95 884 663 884h7q-5.95 0-9.475-2.612Q657 878.775 657 874v-71H303v71q0 4.775-3.525 7.388Q295.95 884 290 884h7Zm183-561h250-501 251Zm165 256H234h492-81Zm-411-22h492V345H234v212Zm102.412 161q15.941 0 26.764-11.059 10.824-11.059 10.824-27T362.941 652.5q-11.059-11.5-27-11.5T308.5 652.735Q297 664.471 297 680.412q0 15.941 11.735 26.764Q320.471 718 336.412 718Zm287.647 0Q640 718 651.5 706.941q11.5-11.059 11.5-27T651.265 652.5Q639.529 641 623.588 641q-15.941 0-26.765 11.735Q586 664.471 586 680.412q0 15.941 11.059 26.764 11.059 10.824 27 10.824ZM229 323h501q-12-38-72.5-55.5T480 250q-124 0-183.5 17T229 323Zm86 458h330q34 0 57.5-24.5T726 699V579H234v120q0 33 23.5 57.5T315 781Z"/></svg>