<svg xmlns="http://www.w3.org/2000/svg" width="48" height="48" viewBox="0 96 960 960"><path d="M104 642q-27-40-39.5-81T52 480q0-88 62-150t150-62q60 0 115 33t101 95q46-62 101-95t115-33q88 0 150 62t62 150q0 37-12.5 77.5T856 641q-4.829-3.041-10.415-5.02Q840 634 836 632q25-41 37.5-78.5T886 480q0-79-55.5-134.5T696 290q-48 0-103.5 31.5T480 430q-57-77-112.5-108.5T264 290q-79 0-134.5 55.5T74 480q0 37 12.5 75.5T123 633q-4 3-9 5l-10 4ZM52 926v-23q0-33 36.555-56t95.474-23Q195 824 205 825t18 3q-5 12-8 26.109-3 14.11-3 29.19V926H52Zm240 0v-39q0-45 52.168-71t136.108-26Q565 790 616.5 816q51.5 26 51.5 71v39H292Zm456 0v-42.701q0-15.08-2.5-29.19Q743 840 737 828q9-2 19.186-3 10.185-1 20.814-1 59.3 0 95.15 23Q908 870 908 903v23H748ZM479.878 812Q402 812 356 833.5T313 891v13h334v-13q3-36-42.5-57.5T479.878 812ZM184 790q-19.625 0-33.312-13.688Q137 762.625 137 743q0-19 13.688-32.5Q164.375 697 184 697q19 0 33 13.5t14 32.5q0 19.625-14 33.312Q203 790 184 790Zm593 0q-19 0-33-13.688-14-13.687-14-33.312 0-19 14-32.5t33.194-13.5Q797 697 810.5 710.5 824 724 824 743q0 19.625-13.375 33.312Q797.25 790 777 790Zm-296.647-30Q448 760 425 737.25T402 682q0-33.15 22.75-55.575Q447.5 604 480 604q33.15 0 55.575 22.324Q558 648.647 558 681.647 558 714 535.677 737q-22.324 23-55.324 23ZM480 626q-23 0-39.5 15.875T424 682q0 23 16.5 39.5t40 16.5q23.5 0 39.5-16.5t16-40q0-23.5-15.875-39.5T480 626Zm0 56Zm0 222Z"/></svg>