<svg xmlns="http://www.w3.org/2000/svg" width="48" height="48" viewBox="0 0 48 48"><path d="m43.25 32.4-.8-.8q1.55-1.55 2.35-3.525.8-1.975.8-4.075 0-2.15-.8-4.1-.8-1.95-2.3-3.5l.75-.8q1.65 1.7 2.55 3.85.9 2.15.9 4.55t-.9 4.55q-.9 2.15-2.55 3.85Zm-5.35-4-.85-.8q.75-.75 1.15-1.65.4-.9.4-1.95 0-1-.4-1.925T37.05 20.4l.85-.8q.9.9 1.35 2.025.45 1.125.45 2.375t-.45 2.375Q38.8 27.5 37.9 28.4ZM24 42.7q-3.6 0-6.15-2.55Q15.3 37.6 15.3 34V14q0-3.6 2.55-6.15Q20.4 5.3 24 5.3q3.6 0 6.15 2.55Q32.7 10.4 32.7 14v20q0 3.6-2.55 6.15Q27.6 42.7 24 42.7Zm0-7q1.55 0 2.625-1.075T27.7 32q0-1.55-1.075-2.625T24 28.3q-1.55 0-2.625 1.075T20.3 32q0 1.55 1.075 2.625T24 35.7Zm0-1.35q-1 0-1.675-.675T21.65 32q0-1 .675-1.7T24 29.6q1 0 1.7.7t.7 1.7q0 1-.7 1.675t-1.7.675Zm0-14.65q1.55 0 2.625-1.075T27.7 16q0-1.55-1.075-2.625T24 12.3q-1.55 0-2.625 1.075T20.3 16q0 1.55 1.075 2.625T24 19.7Z"/></svg>