<svg xmlns="http://www.w3.org/2000/svg" width="48" height="48" viewBox="0 -960 960 960"><path d="M560-146q-5 0-8-3t-3-8q0-5 3-8t8-3q64 0 108-26t44-66q0-31-33-57.5T587-357l19-19q65 16 96.5 47.5T734-260q0 55-54.5 84.5T560-146ZM258-427q-59-16-85.5-41.5T146-520q0-29 25.5-52.5T274-628q68-28 91.5-47t23.5-45q0-30-29-51t-80-21q-29 0-54 9.5T184-756q-3 3-7.5 3.5T169-754q-4-3-4-7.5t2-8.5q14-19 46-31.5t67-12.5q58 0 94.5 27t36.5 67q0 32-27 57t-101 55q-66 27-90.5 46.5T168-520q0 21 26.5 40t82.5 35l-19 18Zm458-191-71-71 34-34q11-11 23.5-11.5T726-724l25 25q11 11 10.5 23.5T750-652l-34 34ZM203-176v-70l375-376 71 71-376 375h-70Z"/></svg>