<svg xmlns="http://www.w3.org/2000/svg" width="48" height="48" viewBox="0 -960 960 960"><path d="m619-578 145-147-39-39-146 147 40 39Zm0 0-40-39 40 39ZM172-172v-111l355-355-81-81 15-15 102 101 149-149q3-3 6.5-4.5t6.5-1.5q4 0 7.5 1.5t7.5 4.5l42 43q3 3 4.5 6.5t1.5 7.5q0 3-1.5 6.5T782-712L632-561l82 83-15 15-158-160-347 346v83h99q5 6 8.5 11.5T310-172H172Zm438 80q-66 0-123-34t-94-89q37-55 94-89t123-34q67 0 123.5 34t94.5 89q-37 56-94 89.5T610-92Zm106.5-50q49.5-28 84.5-73-35-45-84.5-73t-106-28Q554-316 504-288t-84 73q34 45 84 73t106.5 28q56.5 0 106-28ZM588-193q-9-9-9-22t9-22q9-9 22.5-9t22 9q8.5 9 8.5 22t-8.5 22q-8.5 9-22 9t-22.5-9Z"/></svg>