<svg xmlns="http://www.w3.org/2000/svg" width="48" height="48" viewBox="0 96 960 960"><path d="M279.895 634q7.605 0 12.855-5.145 5.25-5.144 5.25-12.75 0-7.605-5.145-12.855-5.144-5.25-12.75-5.25-7.605 0-12.855 5.145-5.25 5.144-5.25 12.75 0 7.605 5.145 12.855 5.144 5.25 12.75 5.25Zm0-160q7.605 0 12.855-5.145 5.25-5.144 5.25-12.75 0-7.605-5.145-12.855-5.144-5.25-12.75-5.25-7.605 0-12.855 5.145-5.25 5.144-5.25 12.75 0 7.605 5.145 12.855 5.144 5.25 12.75 5.25ZM366 627h328v-22H366v22Zm0-160h328v-22H366v22Zm9 417v-80H186q-22.775 0-38.387-15.612Q132 772.775 132 750V322q0-22.775 15.613-38.388Q163.225 268 186 268h588q22.775 0 38.388 15.612Q828 299.225 828 322v428q0 22.775-15.612 38.388Q796.775 804 774 804H585v80H375Z"/></svg>