<svg xmlns="http://www.w3.org/2000/svg" width="48" height="48" viewBox="0 -960 960 960"><path d="M683.412-136q-42.471 0-71.941-29.529-29.471-29.53-29.471-72Q582-279 611.529-308.5q29.53-29.5 72-29.5Q726-338 755-308.441q29 29.559 29 71.029 0 42.471-29.059 71.941Q725.882-136 683.412-136ZM672-393v-65h22v65h-22Zm0 377v-65h22v65h-22Zm129-324-15-16 46-46 16 16-47 46ZM535-73l-16-15 46-47 16 16-46 46Zm304-153v-22h65v22h-65Zm-377 0v-22h65v22h-65ZM832-73l-46-46 16-16 46 46-16 16ZM565-340l-46-46 16-16 46 46-16 16ZM226-132q-22.775 0-38.387-15.613Q172-163.225 172-186v-514q0-22.775 15.613-38.388Q203.225-754 226-754h88v-86h27v86h282v-86h24v86h87q22.775 0 38.388 15.612Q788-722.775 788-700v169H194v345q0 12 10 22t22 10h163v22H226Z"/></svg>