<svg xmlns="http://www.w3.org/2000/svg" width="48" height="48" viewBox="0 0 48 48"><path d="M24 24ZM6.6 18.75V13.3q0-1.15.775-1.925Q8.15 10.6 9.3 10.6h29.4q1.15 0 1.925.775.775.775.775 1.925V24h-1.1V13.3q0-.6-.5-1.1-.5-.5-1.1-.5H9.3q-.6 0-1.1.5-.5.5-.5 1.1v5.45ZM9.3 37.4q-1.15 0-1.925-.775Q6.6 35.85 6.6 34.7v-5.45h1.1v5.45q0 .6.5 1.1.5.5 1.1.5h12.65v1.1ZM36 42.8l-2.25-1.9q-3.9-3.35-4.975-4.65-1.075-1.3-1.075-2.6 0-1.6 1.1-2.775 1.1-1.175 2.7-1.175.8 0 1.5.35t1.5 1.05l1.5 1.35 1.4-1.3q.8-.7 1.55-1.075t1.55-.375q1.55 0 2.675 1.175Q44.3 32.05 44.3 33.65q0 1.3-1.125 2.6T38.1 41Zm0-1.5 1.65-1.4q3.5-3 4.525-4.125Q43.2 34.65 43.2 33.65q0-1.15-.8-2-.8-.85-1.9-.85-.65 0-1.175.25t-1.125.85L36 34l-2.25-2.1q-.6-.6-1.125-.85T31.5 30.8q-1.1 0-1.9.85-.8.85-.8 2 0 .9 1.25 2.3t4.4 4.05Zm-22-8.75q-.2 0-.325-.05t-.225-.2l-3.8-7.75H6.6v-1.1H10q.15 0 .3.1t.15.2L14 30.8l7.5-15.05q.05-.1.2-.15.15-.05.3-.05t.275.05q.125.05.175.15l3.85 7.7h6.25v1.1H26q-.2 0-.325-.05t-.175-.2l-3.55-7.05-7.5 15.05q-.1.15-.2.2-.1.05-.25.05Zm22 3.5Z"/></svg>