<svg xmlns="http://www.w3.org/2000/svg" width="48" height="48" viewBox="0 -960 960 960"><path d="M479.823-112Q455-112 437.5-129.625T420-172h120q0 25-17.677 42.5t-42.5 17.5ZM212-212v-22h60v-335q0-77 49-136t125-71v-18q0-14.167 9.882-24.083 9.883-9.917 24-9.917Q494-828 504-818.083q10 9.916 10 24.083v18q19 3 35.5 9.5T582-752L398-570v212h211l79-79v203h60v22H212Zm280-240v-78l211-210q5-4 9.889-6 4.889-2 9.778-2 5.333 0 10.656 2 5.322 2 9.677 6l37 38q4 5 6 10t2 10q0 5-2 10t-6 10L570-452h-78Zm231-192 37-38-37-38-38 38 38 38Z"/></svg>