<svg xmlns="http://www.w3.org/2000/svg" width="48" height="48" viewBox="0 -960 960 960"><path d="M203-266q-38.25 0-64.62-26.32Q112-318.65 112-356.82 112-395 138.38-422q26.37-27 64.62-27 30 0 58.5 19.5T296-369h261q5-74 57-127t122-57l-65-295q-3-11-12-17.5t-18-6.5H517v-22h121q18 0 35 12t22 33l67 315h-5q-74.78 0-126.39 51.91Q579-430.19 579-355v8H296q-6 41-34.5 61T203-266Zm489-24.32q-27-26.33-27-64.5Q665-393 691.82-420q26.83-27 65-27 38.18 0 64.68 26.82 26.5 26.83 26.5 65 0 38.18-26.32 64.68-26.33 26.5-64.5 26.5Q719-264 692-290.32ZM519-58l-191-97h125v-66l191 98H519v65Z"/></svg>