<svg xmlns="http://www.w3.org/2000/svg" width="48" height="48" viewBox="0 -960 960 960"><path d="M480-69q-93-85-140.5-156.5T292-354q0-80 54.5-137T480-548q79 0 133.5 57T668-354q0 63-50 131.5T480-69Zm26-265q11-11 11-26t-11-26q-11-11-26-11t-26 11q-11 11-11 26t11 26q11 11 26 11t26-11ZM337-680l-15-15q34-27 74.5-41.5T480-751q44 0 84.5 14.5T638-695l-15 15q-30-24-67-36.5T480-729q-39 0-75.5 12.5T337-680ZM224-793l-15-16q57-49 127-75.5T480-911q76 0 146 27t127 76l-17 16q-53-47-118.5-72T480-889q-71 0-137 24t-119 72Z"/></svg>