<svg xmlns="http://www.w3.org/2000/svg" width="48" height="48" viewBox="0 -960 960 960"><path d="M480-99q78-74 122-141.361Q646-307.722 646-354q0-71.494-47.903-121.747t-118-50.253Q410-526 362-475.747T314-354q0 46.278 44 113.639Q402-173 480-99Zm0 30q-93-85-140.5-156.5T292-354q0-80 54.5-137T480-548q79 0 133.5 57T668-354q0 63-50 131.5T480-69Zm.118-254Q495-323 506-334.118q11-11.117 11-26Q517-375 505.882-386q-11.117-11-26-11Q465-397 454-385.882q-11 11.117-11 26Q443-345 454.118-334q11.117 11 26 11ZM337-680l-15-15q34-27 74.462-41.5 40.461-14.5 83.87-14.5 43.408 0 84.038 14.5Q605-722 638-695l-15 15q-30-24-66.761-36.5Q519.478-729 480-729t-75.739 12.5Q368-704 337-680ZM224-793l-15-16q57-49 126.801-75.5T479.833-911Q556-911 626-884t127 76l-17 16q-53-47-118.717-72-65.718-25-137.5-25Q409-889 342.94-865.014 276.879-841.029 224-793Zm256 433Z"/></svg>