<svg xmlns="http://www.w3.org/2000/svg" width="48" height="48" viewBox="0 0 48 48"><path d="M9.7 28q0 3.85 2.175 7.025Q14.05 38.2 17.7 39.6q-.55-.8-.825-1.7-.275-.9-.275-1.8 0-1.05.425-2t1.175-1.7l3.8-3.75 3.85 3.75q.75.75 1.15 1.7.4.95.4 2 0 .9-.275 1.8t-.825 1.7q3.65-1.4 5.825-4.575Q34.3 31.85 34.3 28q0-2.55-1-4.9-1-2.35-2.85-4.2-1 .7-2.125 1.05-1.125.35-2.275.35-3.1 0-5.3-2.05-2.2-2.05-2.4-5.2v-.3q-2.05 1.6-3.675 3.45t-2.725 3.825q-1.1 1.975-1.675 4T9.7 28ZM22 30.2l-3.05 3q-.6.6-.925 1.35-.325.75-.325 1.55 0 1.75 1.25 2.975T22 40.3q1.8 0 3.05-1.225Q26.3 37.85 26.3 36.1q0-.85-.325-1.6-.325-.75-.925-1.3Zm-2.6-19.55v1.95q0 2.8 1.925 4.7 1.925 1.9 4.725 1.9.95 0 1.875-.3t1.775-.85l.85-.55q2.3 1.9 3.575 4.675Q35.4 24.95 35.4 28q0 5.6-3.9 9.5-3.9 3.9-9.5 3.9t-9.5-3.9Q8.6 33.6 8.6 28q0-4.75 2.875-9.45 2.875-4.7 7.925-7.9Zm22.75 9.9q-.25 0-.4-.15-.15-.15-.15-.4t.15-.4q.15-.15.4-.15t.4.15q.15.15.15.4t-.15.4q-.15.15-.4.15Zm-.55-5.4V7.3h1.1v7.85Z"/></svg>