<svg xmlns="http://www.w3.org/2000/svg" width="48" height="48" viewBox="0 96 960 960"><path d="M146 244v-22h266v22H146Zm122 261V307H146v-22h266v22H290v198h-22Zm280 419-16-16 276-276 16 16-276 276Zm33.233-210Q566 714 554.5 703.233q-11.5-10.768-11.5-27Q543 661 554.267 649.5q11.268-11.5 26.5-11.5Q597 638 608 649.267q11 11.268 11 26.5Q619 692 608.233 703q-10.768 11-27 11Zm201 203Q766 917 755 905.733q-11-11.268-11-27.5Q744 863 754.767 851.5q10.768-11.5 27-11.5Q797 840 808.5 851.267q11.5 11.268 11.5 26.5Q820 894 808.733 905.5q-11.268 11.5-26.5 11.5ZM626 510q-29 0-48-19.5T559 443q0-29 19-47.5t48-18.5q13 0 23.5 3.5T669 392V213q0-4.95 3.025-7.975Q675.05 202 680 202h134v22H693v219q0 29-18.5 48T626 510ZM214.246 951Q185 951 163.5 930.074 142 909.147 142 879q0-14.073 7-28.036Q156 837 167 826l63-61-33-35q-11-11-16.5-25t-5.5-27.754Q175 647 195.83 627q20.83-20 50.17-20 31 0 51.5 19.5t20.5 50.09q0 14.41-5 28.41t-16 25l-34 35 70 71 57-57 16 15-57 57 54 54-15 15-56-55-63 62q-11.827 12-25.913 18-14.087 6-28.841 6ZM246 750l36-36q8-8 11-15.9t3-19.4q0-22.7-14.8-36.2Q266.4 629 246 629q-18 0-33.5 13.65T197 679q0 12 3.5 20t11.382 15.059L246 750Zm-31 179q9 0 19.5-4t18.5-12l63-63-70-69-63 62q-8 8-13.5 17t-5.5 18q0 20 15.5 35.5T215 929Z"/></svg>