<svg xmlns="http://www.w3.org/2000/svg" width="48" height="48" viewBox="0 0 48 48"><path d="M31.8 18q.2.15.4.175.2.025.4-.175l5.05-5.05q.2-.2.2-.425 0-.225-.2-.425-.2-.2-.4-.2t-.4.2l-5.05 5.05q-.2.2-.2.45t.2.4ZM7.45 41.25q-1.05 0-1.875-.825T4.75 38.55v-25.4q0-1.1.825-1.9.825-.8 1.875-.8H23.9V23.4q0 1.05.825 1.875t1.875.825h8.95v12.45q0 1.05-.8 1.875t-1.9.825Zm28.7-18.85q-1.6 0-3.05-.575-1.45-.575-2.7-1.575l-1.65 1.5q-.2.15-.425.175-.225.025-.375-.125-.2-.2-.2-.4t.2-.4l1.65-1.6q-.85-1.25-1.425-2.65-.575-1.4-.575-2.9 0-3.55 2.5-6.05t6.05-2.5h8.55v8.55q0 3.55-2.5 6.05t-6.05 2.5ZM12.1 34.6h1.1V23.25h-1.1Zm7.5 0h1.1V17.1h-1.1Zm7.5 0h1.1v-5.25h-1.1Z"/></svg>