<svg xmlns="http://www.w3.org/2000/svg" width="48" height="48" viewBox="0 -960 960 960"><path d="M312.08-732q-26.48 0-44.28-17.72-17.8-17.721-17.8-44.2 0-26.48 17.72-44.28 17.721-17.8 44.2-17.8 26.48 0 44.28 17.72 17.8 17.721 17.8 44.2 0 26.48-17.72 44.28-17.721 17.8-44.2 17.8ZM667-498q-21 0-35.5-14.583Q617-527.167 617-548q0-22 14.5-36t35.5-14q21 0 35.5 14t14.5 35.5q0 21.5-14.5 36T667-498ZM247-106v-261h-71v-237q0-21.5 16.25-37.75T230-658h126q18.448 0 32.724 11Q403-636 408-618l85 278 117-106q6-4 12.071-6 6.072-2 12.929-2h72q17.5 0 29.25 11.75T748-413v146h-43v161h-86v-322l-99 92h-56l-93-287v517H247Z"/></svg>