<svg xmlns="http://www.w3.org/2000/svg" width="48" height="48" viewBox="0 -960 960 960"><path d="M217-188h492q10 0 16.5-7t6.5-17v-166l23-6q23-5 37.5-27.5T807-462q0-30.6-14.64-52.47Q777.71-536.33 755-542l-23-6v-166q0-11-6.5-17.5T709-738H549l-2-19q-5-34-28.67-58-23.68-24-54.91-24Q430-839 407-815t-28 58l-3 19H216q-9 0-15.5 6.5T194-714v107q45 11 78.5 52.28t33.5 93Q306-410 273-368t-79 49v107q0 10 6.5 17t16.5 7Zm3 22q-18.55 0-33.27-15.23Q172-196.45 172-216v-117q49-4 80.5-40.5t31.5-88.46Q284-509 252-548q-32-39-80-44.9V-711q0-21.47 13.56-35.24Q199.11-760 220-760h137q5.63-41.88 35.07-71.44Q421.5-861 462.74-861q40.26 0 70.45 29.56Q563.37-801.88 569-760h137q20.47 0 34.24 13.76Q754-732.47 754-711v145q34.1 8.84 54.55 36.92Q829-501 829-462q0 37-20.45 64.3Q788.1-370.4 754-359v143q0 19.55-13.76 34.77Q726.47-166 706-166H220Zm281-296Z"/></svg>