<svg xmlns="http://www.w3.org/2000/svg" width="48" height="48" viewBox="0 -960 960 960"><path d="M611-501q-12 0-20.5-8.5T582-531q0-13 8.5-21.5T611-561q13 0 22 8.5t9 21.5q0 13-9 21.5t-22 8.5Zm-182 0q-13 0-21.5-8.5T399-531q0-13 8.5-21.5T429-561q13 0 21.5 8.5T459-531q0 13-8.5 21.5T429-501Zm-74 176q-64-34-103-96.5T213-561q0-110.84 78.11-188.92 78.12-78.08 189-78.08Q591-828 669-749.92q78 78.08 78 188.92 0 77-39 139.5T606-325l-18-16q61-30 99-88.5T725-561q0-18.1-2.5-35.55Q720-614 714-631q-18 3-35.5 5t-35.5 2q-69 0-130-30t-104-84q-22 61-67.5 105.5T235-565v4q-1 73 37 131.5T372-341l-17 16ZM486-75l-15-15 92-93H355v-22h208l-92-92 15-16 119 119L486-75Z"/></svg>