<svg xmlns="http://www.w3.org/2000/svg" width="48" height="48" viewBox="0 -960 960 960"><path d="M396-68q-41 0-75-24.5T274-157q-9-32-27.387-57T198-239q-19 0-37 9t-32 24l-15-15q16-19 37.755-29.5Q173.511-261 198-261q37 0 61 29.5t37 68.5q10 32 38.049 52.5T396-90q29 0 51-16.5t38-38.5l2-3-266-391q-5.4-8.206-7.2-15.659-1.8-7.452-1.8-16.404 0-9.937 4-19.4 4-9.464 11-17.537l238-246q8.049-7.13 16.524-11.065Q490-869 500-869q10 0 18.476 3.935Q526.951-861.13 535-854l238 246q7 8.053 11 17.491 4 9.439 4 19.509 0 9-2 17t-7 15L515-150q-25 39-54.5 60.5T396-68Zm104-99 260-385q7-9 6-20.5t-9-20.5L523-835q-10-10-23-10t-23 10L243-593q-9 9-9.5 20t6.5 21l260 385Zm0-341Z"/></svg>