<svg xmlns="http://www.w3.org/2000/svg" width="48" height="48" viewBox="0 -960 960 960"><path d="M266-132q-22.775 0-38.387-15.613Q212-163.225 212-186v-588q0-22.775 15.613-38.388Q243.225-828 266-828h314l168 168v474q0 22.775-15.612 38.387Q716.775-132 694-132H266Zm0-22h428q12 0 22-10t10-22v-464H570v-156H266q-12 0-22 10t-10 22v588q0 12 10 22t22 10Zm214.361-93Q529-247 561.5-283.625 594-320.25 594-370v-184h-16v184q0 43-27.75 75T480-263q-42.225 0-70.112-32Q382-327 382-370v-218q0-20.7 12.362-35.85Q406.724-639 427.207-639 447-639 459.5-623.85T472-588v212h16v-212q0-26.48-17.577-46.74-17.578-20.26-43.5-20.26Q401-655 383.5-634.74 366-614.48 366-588v218q0 49.75 32.844 86.375Q431.687-247 480.361-247ZM234-806v156-156 652-652Z"/></svg>