<svg xmlns="http://www.w3.org/2000/svg" width="48" height="48" viewBox="0 96 960 960"><path d="M477 677h90q22 0 38-15.612 16-15.613 16-38.388V381q0-22.775-16-38.388Q589 327 567 327h-77q-22.775 0-38.388 15.612Q436 358.225 436 381v78q0 22.775 15.612 38.388Q467.225 513 490 513h109v110q0 13-9.5 22.5T567 655h-90v22Zm122-186H490q-14 0-23-9t-9-23v-78q0-13 9-22.5t23-9.5h77q13 0 22.5 9.5T599 381v110ZM308 776q-22.775 0-38.388-15.612Q254 744.775 254 722V282q0-22.775 15.612-38.388Q285.225 228 308 228h440q22.775 0 38.388 15.612Q802 259.225 802 282v440q0 22.775-15.612 38.388Q770.775 776 748 776H308Zm-96 96q-22.775 0-38.387-15.612Q158 840.775 158 818V356h22v462q0 12 10 22t22 10h462v22H212Z"/></svg>