<svg xmlns="http://www.w3.org/2000/svg" width="48" height="48" viewBox="0 96 960 960"><path d="M436 677h185v-22H458V545q0-14 9.5-23t22.5-9h77q22.775 0 38.388-15.612Q621 481.775 621 459v-78q0-22.775-15.612-38.388Q589.775 327 567 327H436v22h131q14 0 23 9.5t9 22.5v78q0 14-9 23t-23 9h-77q-22.75 0-38.375 15.612Q436 522.225 436 545v132Zm-128 99q-22.775 0-38.388-15.612Q254 744.775 254 722V282q0-22.775 15.612-38.388Q285.225 228 308 228h440q22.775 0 38.388 15.612Q802 259.225 802 282v440q0 22.775-15.612 38.388Q770.775 776 748 776H308Zm-96 96q-22.775 0-38.387-15.612Q158 840.775 158 818V356h22v462q0 12 10 22t22 10h462v22H212Z"/></svg>