<svg xmlns="http://www.w3.org/2000/svg" width="48" height="48" viewBox="0 -960 960 960"><path d="M154-234v-492 262-31 261Zm32 22q-22.77 0-38.39-15.5Q132-243 132-266v-428q0-23 15.61-38.5Q163.23-748 186-748h199l74 74h315q23 0 38.5 15.5T828-620v172q-5-4-10.5-8t-11.5-8v-156q0-14-9-23t-23-9H451l-74-74H186q-14 0-23 9t-9 23v428q0 14 9 23t23 9h260q1 5 1.5 10.92.5 5.91 1.5 11.08H186Zm472 34 133-133-16-16-117 118-62-63-16 16 78 78Zm131.5-180.5Q832-316 832-254.5t-42.5 104Q747-108 685.5-108t-104-42.5Q539-193 539-254.5t42.5-104Q624-401 685.5-401t104 42.5Z"/></svg>