<svg xmlns="http://www.w3.org/2000/svg" width="48" height="48" viewBox="0 96 960 960"><path d="M560 907q-4.925 0-7.963-3.053-3.037-3.052-3.037-8 0-4.947 3.037-7.947 3.038-3 7.963-3h205L598 768q-4.158-3.415-5.079-7.618-.921-4.204 1.139-7.473 3.06-4.091 7.283-5Q605.565 747 609 749l169 118-71-193q-2-4 .5-8t6.5-6q4-2 8.5.667 4.5 2.666 6.5 6.333l69 191 54-196q.938-3.909 4.469-6.455Q860 653 863.88 653.946q3.88.946 7 4.5Q874 662 873 666l-63 232q-1 3-4.1 6-3.1 3-6.9 3H560ZM146 790v-22h22v22h-22Zm96 0v-22h226q1 6.475 1.5 11.237Q470 784 470 790H242Zm-96-162v-22h22v22h-22Zm96 0v-22h311q-6.217 4.857-12.608 10.929Q534 623 528 628H242Zm-96-162v-22h22v22h-22Zm96 0v-22h492v22H242Zm-96-162v-22h22v22h-22Zm96 0v-22h492v22H242Z"/></svg>