<svg xmlns="http://www.w3.org/2000/svg" width="48" height="48" viewBox="0 -960 960 960"><path d="m480-745-62-83h124l-62 83Zm231 392q95-50 95-122.5T711-599q-95-51-231-51t-231 51q-95 51-95 123.5T249-353q95 50 231 50t231-50Zm-71 48v120q0 22-15.5 38T586-131H373q-23 0-38.5-16T319-185v-120q-84-25-135.5-69.5T132-476q0-80 101.5-136.5T480-669q145 0 246.5 56.5T828-476q0 57-51.5 102T640-305ZM480-476Zm-60 107h25v-86h41l49 86h27l-54-96q20-8 30.5-20.5T549-518q0-29-18.5-44T472-577h-52v208Zm25-111v-72h27q27 0 39 8.5t12 26.5q0 19-11.5 28t-38.5 9h-28Z"/></svg>