<svg xmlns="http://www.w3.org/2000/svg" width="48" height="48" viewBox="0 96 960 960"><path d="M320 924q-44.55 0-76.275-31.725Q212 860.55 212 816V416q0-44.55 31.725-76.275Q275.45 308 320 308h69v-80h22v80h138v-80h22v80h69q44.55 0 76.275 31.725Q748 371.45 748 416v400q0 44.55-31.725 76.275Q684.55 924 640 924H320Zm0-22h320q36.225 0 61.112-24.888Q726 852.225 726 816V416q0-36.225-24.888-61.112Q676.225 330 640 330H320q-36.225 0-61.112 24.888Q234 379.775 234 416v400q0 36.225 24.888 61.112Q283.775 902 320 902Zm26-438h268v-22H346v22Zm133.831 309Q508 773 527 754q19-19 19-45.459 0-21.541-12.68-37.024T480 608q-41 48-53.5 63.558T414 707.859Q414 735 432.831 754t47 19ZM234 330v572-572Z"/></svg>