<svg xmlns="http://www.w3.org/2000/svg" width="48" height="48"><path d="M12.8 30.4v-3.2H16v3.2zm4.8 4.8V32h12.8v3.2zM32 30.4v-3.2h3.2v3.2zM11.2 40q-1.3 0-2.25-.95T8 36.8v-16q0-1.3.95-2.25t2.25-.95h3.2v-8q0-.7.45-1.15Q15.3 8 16 8h16q.7 0 1.15.45.45.45.45 1.15v8h3.2q1.3 0 2.25.95T40 20.8v16q0 1.3-.95 2.25T36.8 40zM24 27.3l7.2-6V10.4H16.8v10.9zm-12.8 9.5h25.6v-16h-3.2v.85q0 .35-.2.75h1.8v3.2H32v-1.9l-4.15 3.5h2.55v3.2h-3.2v-2.65l-1.6 1.35v1.3h-3.2v-1.35l-1.6-1.35v2.7h-3.2v-3.2h2.55L16 23.7v1.9h-3.2v-3.2h1.8q-.1-.2-.15-.35-.05-.15-.05-.4v-.85h-3.2zm12.95-14.4q-2.05 0-3.45-1.35-1.4-1.35-1.4-3.45t1.4-3.45q1.4-1.35 3.45-1.35 1.65 0 2.525.65t.975.8l-1.2 1.15q-.5-.55-1.075-.75-.575-.2-1.275-.2-1.3 0-2.175.875-.875.875-.875 2.275t.9 2.25q.9.85 2.2.85.7 0 1.625-.4t1.175-1.7H24.1v-1.5h4.5q.1.2.1.4v.45q0 2.15-1.325 3.3T24.15 22.4z"/></svg>