<svg xmlns="http://www.w3.org/2000/svg" width="48" height="48" viewBox="0 -960 960 960"><path d="M456-690q-10-10-10-24t10-24q10-10 24-10t24 10q10 10 10 24t-10 24q-10 10-24 10t-24-10Zm-85 533q-45-45-45-109v-448q0-64 45-109t109-45q64 0 109 45t45 109v448q0 64-45 109t-109 45q-64 0-109-45Zm202.5-463.42q38.5-38.41 38.5-93.5 0-55.08-38.42-93.58-38.41-38.5-93.5-38.5-55.08 0-93.58 38.42-38.5 38.41-38.5 93.5 0 55.08 38.42 93.58 38.41 38.5 93.5 38.5 55.08 0 93.58-38.42Zm-130 265.73q7.5-7.7 7.5-17.5 0-9.81-7.69-17.31-7.7-7.5-17.5-7.5-9.81 0-17.31 7.69-7.5 7.7-7.5 17.5 0 9.81 7.69 17.31 7.7 7.5 17.5 7.5 9.81 0 17.31-7.69Zm0-106q7.5-7.7 7.5-17.5 0-9.81-7.69-17.31-7.7-7.5-17.5-7.5-9.81 0-17.31 7.69-7.5 7.7-7.5 17.5 0 9.81 7.69 17.31 7.7 7.5 17.5 7.5 9.81 0 17.31-7.69Zm108 0q7.5-7.7 7.5-17.5 0-9.81-7.69-17.31-7.7-7.5-17.5-7.5-9.81 0-17.31 7.69-7.5 7.7-7.5 17.5 0 9.81 7.69 17.31 7.7 7.5 17.5 7.5 9.81 0 17.31-7.69Zm0 106q7.5-7.7 7.5-17.5 0-9.81-7.69-17.31-7.7-7.5-17.5-7.5-9.81 0-17.31 7.69-7.5 7.7-7.5 17.5 0 9.81 7.69 17.31 7.7 7.5 17.5 7.5 9.81 0 17.31-7.69Zm-108 106q7.5-7.7 7.5-17.5 0-9.81-7.69-17.31-7.7-7.5-17.5-7.5-9.81 0-17.31 7.69-7.5 7.7-7.5 17.5 0 9.81 7.69 17.31 7.7 7.5 17.5 7.5 9.81 0 17.31-7.69Zm108 0q7.5-7.7 7.5-17.5 0-9.81-7.69-17.31-7.7-7.5-17.5-7.5-9.81 0-17.31 7.69-7.5 7.7-7.5 17.5 0 9.81 7.69 17.31 7.7 7.5 17.5 7.5 9.81 0 17.31-7.69Z"/></svg>