<svg xmlns="http://www.w3.org/2000/svg" width="48" height="48" viewBox="0 0 48 48"><path d="M36.85 41.35q-.3 0-.525-.1-.225-.1-.425-.3L25.45 30.5q-.2-.2-.325-.425Q25 29.85 25 29.6q0-.3.125-.525.125-.225.325-.425l3.05-3.05q.2-.2.425-.325.225-.125.525-.125.25 0 .475.125.225.125.475.325l10.45 10.45q.2.2.3.425.1.225.1.525 0 .3-.1.525-.1.225-.3.425l-3.05 3q-.2.2-.425.3-.225.1-.525.1Zm-25.75 0q-.3 0-.525-.1-.225-.1-.425-.3l-3.05-3q-.2-.2-.3-.425-.1-.225-.1-.525 0-.3.1-.55.1-.25.3-.45l10.4-10.4h4.15l1.55-1.55-8.7-8.7h-2.85l-4.8-4.8L10.5 6.9l4.8 4.8v2.85l8.7 8.7 6.3-6.3-4.5-4.5 2.1-2.1h-4.2l-.5-.45 5.05-5.05.45.45v4.25l2.1-2.1 8.6 8.5q.65.6.975 1.45.325.85.325 1.75 0 .5-.125 1.05t-.325 1.05L36.2 17.2l-2.85 2.85-2.3-2.3-8.65 8.65v4.25l-10.35 10.3q-.2.2-.425.3-.225.1-.525.1Z"/></svg>