<svg xmlns="http://www.w3.org/2000/svg" width="48" height="48" viewBox="0 -960 960 960"><path d="m354-708-22-22v-18q0-5 3-8t8-3q5 0 8 3t3 8v40Zm145 144-22-21v-243q0-5 3-8t8-3q5 0 8 3t3 8v264Zm-42 446q-23 0-42-11.5T381-158L162-417l-4-1q14-15 33.5-17.5T227-429l105 62v-229L90-838l16-16L872-88l-16 16-96-96q-18 23-44.5 36.5T657-118H457Zm395-609q0-43-30.5-73.5T748-831v-25q54 0 91.5 37.5T877-727h-25ZM243-104q-58 0-98.5-40.5T104-243h25q0 47 33.5 80.5T243-129v25Zm545-171L555-508h67v-280q0-5 3-8t8-3q5 0 8 3t3 8v280h122v-229q0-5 3-8t8-3q5 0 8 3t3 8v462Z"/></svg>