<svg xmlns="http://www.w3.org/2000/svg" width="48" height="48" viewBox="0 -960 960 960"><path d="M656-132q-3.92 0-7.46-3.04-3.54-3.03-3.54-8 0-4.96 3.54-7.96t7.46-3h154v-127H656q-3.92 0-7.46-3.75-3.54-3.76-3.54-8 0-4.25 3.54-7.25t7.46-3h154v-127H656q-3.92 0-7.46-3.75-3.54-3.76-3.54-8 0-4.25 3.54-7.25t7.46-3h154v-128H656q-3.92 0-7.46-3.04-3.54-3.03-3.54-7.28 0-4.24 3.54-7.96Q652.08-602 656-602h154v-127H656q-3.92 0-7.46-3.04-3.54-3.03-3.54-7.28 0-4.24 3.54-7.96Q652.08-751 656-751h144q25 0 41.5 16.5T858-693v503q0 25-16.5 41.5T800-132H656Zm-423 0L102-496l190-112v-220h45v220l190 112-131 364H233Z"/></svg>