<svg xmlns="http://www.w3.org/2000/svg" width="48" height="48" viewBox="0 -960 960 960"><path d="M440-500Zm0 310-14-13q-101-94-166-158.5t-102.5-113Q120-523 106-559.823 92-596.646 92-635q0-70 47.5-118.5T257-802q54 0 100.5 30t82.5 88q38-59 83.379-88.5Q568.758-802 623.07-802q64.506 0 111.718 45T787-646h-20q-4-56-44-95t-100-39q-49 0-91 28.5T454-660h-29q-36-63-77.679-91.5Q305.643-780 257-780q-61 0-102 41.5T114-635q0 36 14.5 71.5t50.888 82.067q36.388 46.568 100 109Q343-310 440-220q33-31 59.5-55t52.5-49l2.632 2.474q2.631 2.473 5.368 5.526 2.737 3.053 5.368 5.526L568-308q-26 24-52 47.5T457-206l-17 16Zm269-116v-123H586v-22h123v-123h22v123h123v22H731v123h-22Z"/></svg>