<svg xmlns="http://www.w3.org/2000/svg" width="48" height="48" viewBox="0 -960 960 960"><path d="M484.056-282q8.944 0 15.444-7.056 6.5-7.057 6.5-16Q506-313 499.444-320q-6.557-7-15.5-7Q475-327 468-319.944q-7 7.057-7 15Q461-296 468.056-289q7.057 7 16 7ZM468-406h24q1-22 9.5-38.5T533-482q28-27 40-48t12-46.326Q585-620 556.101-648 527.203-676 485-676q-37 0-66 20t-44 47l24 10q12-25 31.5-39t51.5-14q41 0 61 22.5t20 52.5q0 21-11 38t-31 35q-28 26-40.5 51T468-406Zm12.174 274Q408-132 344.942-159.391q-63.059-27.392-110.575-74.848-47.515-47.457-74.941-110.435Q132-407.652 132-479.826q0-72.174 27.391-135.732 27.392-63.559 74.848-110.574 47.457-47.016 110.435-74.442Q407.652-828 479.826-828q72.174 0 135.732 27.391 63.559 27.392 110.574 74.348 47.016 46.957 74.442 110.435Q828-552.348 828-480.174q0 72.174-27.391 135.232-27.392 63.059-74.348 110.575-46.957 47.515-110.435 74.941Q552.348-132 480.174-132ZM480-154q136 0 231-95t95-231q0-136-95-231t-231-95q-136 0-231 95t-95 231q0 136 95 231t231 95Zm0-326Z"/></svg>