<svg xmlns="http://www.w3.org/2000/svg" width="48" height="48" viewBox="0 96 960 960"><path d="M269 822q44 0 75.5-30.87T376 716q0-29.686-16.5-57.343Q343 631 315 619l-7-4V369q0-15.5-11.15-27.25T268.5 330q-15 0-26.75 11.75T230 369v246l-7 4q-29 12.525-45 39.52-16 26.995-16 57.529 0 44.643 31.37 75.297Q224.74 822 269 822Zm-.5 22q-53.5 0-91-37.588-37.5-37.587-37.5-91.254 0-37.481 18.5-67.559Q177 617.52 208 600V369q0-25.62 18.183-43.31t43-17.69Q296 308 313 325.69T330 369v231q30 17.52 49 48.26t19 67.898q0 52.684-38.125 90.263Q321.75 844 268.5 844ZM518 686q-40-25-71-69t-31-107q0-84.167 58.882-143.083Q533.765 308 617.882 308 702 308 761 366.917 820 425.833 820 510q0 63-31 107t-71 69H518Zm6-22h190q36-25 60-65t24-89q0-75-52.659-127.5-52.66-52.5-127.5-52.5-75.091 0-127.466 52.487Q438 434.975 438 510q0 50 25 90t61 64Zm94 180q-19 0-32.5-13T571 800h94q-1 18-14.5 31T618 844Zm-87-90v-22h174v22H531Zm-262-38Zm349-219Z"/></svg>