<svg xmlns="http://www.w3.org/2000/svg" width="48" height="48" viewBox="0 96 960 960"><path d="m244 852-63-376h598l-63 376H244Zm18-22h436l53-332H209l53 332Zm138-198h160q4.95 0 7.975-3.035 3.025-3.035 3.025-8T567.975 613q-3.025-3-7.975-3H400q-4.95 0-7.975 3.035-3.025 3.035-3.025 8t3.025 7.965q3.025 3 7.975 3ZM240 410q-4.95 0-7.975-3.035-3.025-3.035-3.025-8t3.025-7.965q3.025-3 7.975-3h480q4.95 0 7.975 3.035 3.025 3.035 3.025 8T727.975 407q-3.025 3-7.975 3H240Zm80-88q-4.95 0-7.975-3.035-3.025-3.035-3.025-8t3.025-7.965q3.025-3 7.975-3h320q4.95 0 7.975 3.035 3.025 3.035 3.025 8T647.975 319q-3.025 3-7.975 3H320Zm-58 508h436-436Z"/></svg>