<svg xmlns="http://www.w3.org/2000/svg" width="48" height="48" viewBox="0 96 960 960"><path d="m522 858-15-15q50.553-50.966 80.277-119.676Q617 654.613 617 576.307q0-78.307-29.723-147.263Q557.553 360.088 507 309l15-15q55 54 86 126.319T639 576q0 83.362-31 155.681Q577 804 522 858Zm-82-82-16-16q36.17-35.46 56.585-82.538Q501 630.384 501 575.847q0-54.537-20.415-101.462Q460.17 427.46 424 392l16-16q38.308 38.07 60.654 89.535Q523 517 523 576t-22.346 110.465Q478.308 737.93 440 776Zm-82-82-15-15q19.66-20.098 30.83-46.592Q385 605.915 385 575.767q0-30.147-11.17-56.472Q362.66 492.97 343 473l15-15q23 23 36 53.334 13 30.334 13 64.804 0 34.471-13 64.666Q381 671 358 694ZM219 870V282h22v243q21 1 35.5 15.766 14.5 14.765 14.5 35.5Q291 597 276.381 611.5 261.763 626 241 627v243h-22Z"/></svg>