<svg xmlns="http://www.w3.org/2000/svg" width="48" height="48" viewBox="0 96 960 960"><path d="M289 996V807h-52q-30.08 0-50.54-20.444-20.46-20.443-20.46-50.5Q166 706 186.46 685.5 206.92 665 237 665h52v-78H166V445h123v-78h-52q-30.08 0-50.54-20.444-20.46-20.443-20.46-50.5Q166 266 186.46 245.5 206.92 225 237 225h52v-69h22v69h52q29.82 0 50.41 20.574Q434 266.147 434 295.944 434 326 413.41 346.5 392.82 367 363 367h-52v78h123v142H311v78h52q29.82 0 50.41 20.574Q434 706.147 434 735.944 434 766 413.41 786.5 392.82 807 363 807h-52v189h-22Zm360 0V807h-52q-30.08 0-50.54-20.444-20.46-20.443-20.46-50.5Q526 706 546.46 685.5 566.92 665 597 665h52v-78H526V445h123v-78h-52q-30.08 0-50.54-20.444-20.46-20.443-20.46-50.5Q526 266 546.46 245.5 566.92 225 597 225h52v-69h22v69h52q29.82 0 50.41 20.574Q794 266.147 794 295.944 794 326 773.41 346.5 752.82 367 723 367h-52v78h123v142H671v78h52q29.82 0 50.41 20.574Q794 706.147 794 735.944 794 766 773.41 786.5 752.82 807 723 807h-52v189h-22Z"/></svg>