<svg xmlns="http://www.w3.org/2000/svg" width="48" height="48" viewBox="0 0 48 48"><path d="M7.7 34.3V13.7v20.6Zm1.6 1.1q-1.15 0-1.925-.775Q6.6 33.85 6.6 32.7V15.3q0-1.15.775-1.925Q8.15 12.6 9.3 12.6h29.4q1.15 0 1.925.775.775.775.775 1.925v9.9q-.3-.15-.55-.3-.25-.15-.55-.3v-9.3q0-.6-.5-1.1-.5-.5-1.1-.5H9.3q-.6 0-1.1.5-.5.5-.5 1.1v17.4q0 .6.5 1.1.5.5 1.1.5h14.8v1.1Zm7-6.6v2.5h8.4q.2-.65.475-1.275.275-.625.625-1.225Zm-5.65-6.05v2.5h2.5v-2.5Zm6.05 0v2.5h2.5v-2.5Zm6.05 0v2.5h2.5v-2.5Zm6.05 0v2.5h.6q.45-.3.925-.525.475-.225.975-.425v-1.55Zm6.05 0v.8q.15 0 .275-.025.125-.025.275-.025.5 0 1 .05t.95.15v-.95Zm-24.2-6.1v2.5h2.5v-2.5Zm6.05 0v2.5h2.5v-2.5Zm6.05 0v2.5h2.5v-2.5Zm6.05 0v2.5h2.5v-2.5Zm6.05 0v2.5h2.5v-2.5Zm.55 24.15-.75-.75 4.55-4.65H28.85v-1.1H39.2l-4.55-4.65.75-.75 5.95 5.95Z"/></svg>