<svg xmlns="http://www.w3.org/2000/svg" width="48" height="48" viewBox="0 -960 960 960"><path d="M186-132q-22.775 0-38.387-15.5Q132-163 132-186v-348q0-22.775 15.613-38.388Q163.225-588 186-588h588q22.775 0 38.388 15.612Q828-556.775 828-534v348q0 23-15.612 38.5Q796.775-132 774-132H186Zm0-22h588q12 0 22-10t10-22v-348q0-12-10-22t-22-10H186q-12 0-22 10t-10 22v348q0 12 10 22t22 10Zm140-60h308v-50H326v50ZM213-335h50v-50h-50v50Zm121 0h50v-50h-50v50Zm121 0h50v-50h-50v50Zm121 0h50v-50h-50v50Zm121 0h50v-50h-50v50ZM213-457h50v-50h-50v50Zm121 0h50v-50h-50v50Zm121 0h50v-50h-50v50Zm121 0h50v-50h-50v50Zm121 0h50v-50h-50v50ZM154-154v-412 412Zm115-532v-142h22v96q30-44 78-70t105-26q70 0 126 39t79 103h-24q-22-55-71.304-87.5Q534.393-806 474-806q-54.5 0-100.75 26.5T302-708h109v22H269Z"/></svg>