<svg xmlns="http://www.w3.org/2000/svg" width="48" height="48" viewBox="0 -960 960 960"><path d="M545-328h184q14 0 23-9t9-23v-77q0-14-9-23t-23-9H545v141Zm0-163h184q14 0 23-9t9-23v-77q0-14-9-23t-23-9H545v141ZM231-306q-21.75 0-37.875-16.125T177-360v-240q0-21.75 16.125-37.875T231-654h155q12.538 0 24.269 5.5Q422-643 430-632H231q-14 0-23 9t-9 23v240q0 14 9 23t23 9h152q14 0 23-9t9-23v-109h-90v-22h112v131q0 21.75-16.125 37.875T383-306H231Zm292 0v-348h206q21.75 0 37.875 16.125T783-600v77q0 11.917-5.5 23.458Q772-488 761-480q11 8 16.5 19t5.5 24v77q0 21.75-16.125 37.875T729-306H523Z"/></svg>