<svg xmlns="http://www.w3.org/2000/svg" width="48" height="48" viewBox="0 -960 960 960"><path d="M167-172q-23 0-38.5-15.5T113-226v-426q0-23 15.5-38.5T167-706h122l74-82h232v48q36 0 61 25t25 61h128v428q0 23-15.5 38.5T755-172H167Zm294-130q58 0 97.5-39.5T598-439q0-58-39.5-97.5T461-576q-58 0-97.5 39.5T324-439q0 58 39.5 97.5T461-302Zm0-22q-49 0-82-33t-33-82q0-49 33-82t82-33q49 0 82 33t33 82q0 49-33 82t-82 33Zm360-370q0-78-54-132t-132-54v-26q88 0 150 62t62 150h-26Zm-100 0q0-36-25-61t-61-25v-26q47 0 79.5 32.5T747-694h-26Z"/></svg>