<svg xmlns="http://www.w3.org/2000/svg" width="48" height="48" viewBox="0 96 960 960"><path d="M176 924v-22h61V758q-30-5-45.5-25.24T176 686V422h145v264q0 24-15.5 45.5T259 758v144h62v22H176Zm22-328h101V444H198v152Zm318 328q-8.55 0-15.275-6.725T494 902V512q0-6.925 4.5-11.463Q503 496 510 493l37-15q34-13 51.5-32t17.5-62V266.19q0-10.98 7.05-18.585T642 240h33q10.9 0 18.45 7.605Q701 255.21 701 266.19V384q0 43 19 62t52 32l38 15q7 3.079 10.5 7.592T824 512v390q0 8.55-6.725 15.275T802 924H516Zm122-617h41v-45h-41v45ZM516 616h286V512l-39-14q-39-14-61.5-39T679 382v-53h-41v53q0 52-22.5 76T556 496l-40 16v104Zm0 286h286V781H516v121Z"/></svg>