<svg xmlns="http://www.w3.org/2000/svg" width="48" height="48" viewBox="0 96 960 960"><path d="M218.882 850Q178 850 149 820.833 120 791.667 120 750H76V362q0-22.775 15.612-38.388Q107.225 308 130 308h526v142h79l149 200v100h-57q0 41.667-29.201 70.833Q768.598 850 726.882 850q-41.299 0-70.09-29.167Q628 791.667 628 750H319q0 42-29.618 71-29.617 29-70.5 29Zm.618-22q32.5 0 55-22.5t22.5-55q0-32.5-22.5-55t-55-22.5q-32.5 0-55 22.5t-22.5 55q0 32.5 22.5 55t55 22.5ZM98 728h21q6-31 35.041-54 29.041-23 65.143-23 34.102 0 63.959 22.5Q313 696 319 728h315V330H130q-12 0-22 10t-10 22v366Zm629.5 100q32.5 0 55-22.5t22.5-55q0-32.5-22.5-55t-55-22.5q-32.5 0-55 22.5t-22.5 55q0 32.5 22.5 55t55 22.5ZM656 646h199L722 472h-66v174ZM366 532Z"/></svg>