<svg xmlns="http://www.w3.org/2000/svg" width="48" height="48" viewBox="0 -960 960 960"><path d="M357-586h246v-84q0-51.667-35.823-87.833Q531.353-794 480.176-794 429-794 393-757.833 357-721.667 357-670v84Zm353 472q-61 0-103.5-42.5T564-260q0-61 42.5-103.5T710-406q61 0 103.5 42.5T856-260q0 61-42.5 103.5T710-114Zm-178-18H266q-21.5 0-37.75-16.25T212-186v-346q0-22.275 16.25-38.138Q244.5-586 266-586h69v-84q0-61.17 42.173-103.585Q419.346-816 480.173-816T583-773.585Q625-731.17 625-670v84h69q21.5 0 37.75 15.862Q748-554.275 748-532v56q-11-2.5-21.5-2.75T705-479q-90 2-152.5 66T490-259.669Q490-224 498-190t34 58Zm177.765-131q26.152 0 44.193-18.118 18.042-18.117 18.042-44Q772-351 753.917-369 735.833-387 710-387q-26.5 0-44.25 18.118-17.75 18.117-17.75 44Q648-299 666.015-281q18.014 18 43.75 18Zm.114 124Q741-139 767.5-153.5 794-168 812-193q-24-14-49.284-21.5-25.285-7.5-52.5-7.5Q683-222 657-214.5T608-193q16.814 25.113 43.786 39.557Q678.757-139 709.879-139Z"/></svg>