<svg xmlns="http://www.w3.org/2000/svg" width="48" height="48" viewBox="0 -960 960 960"><path d="M357-586h246v-84q0-51.417-35.882-87.708-35.883-36.292-87-36.292Q429-794 393-757.708 357-721.417 357-670v84Zm353 472q-61 0-103.5-42.5T564-260q0-61 42.5-103.5T710-406q61 0 103.5 42.5T856-260q0 61-42.5 103.5T710-114Zm68-58 20-19-75-72.613V-376h-29v122.776L778-172Zm-246 40H266q-21.5 0-37.75-16.25T212-186v-346q0-22.5 16.25-38.25T266-586h69v-84q0-61.095 42.106-103.547Q419.212-816 480.106-816T583-773.547Q625-731.095 625-670v84h69q21.5 0 37.75 15.75T748-532v56q-11-2.5-21.5-2.75T705-479q-90 2-152.5 66T490-259.669Q490-225 500-191.5t32 59.5Z"/></svg>