<svg xmlns="http://www.w3.org/2000/svg" width="48" height="48" viewBox="0 -960 960 960"><path d="M132-254v-22h377v22H132Zm0-192v-22h172v22H132Zm0-192v-22h172v22H132Zm680 386L654-407q-21 17-46 26.5t-52 9.5q-62.665 0-106.833-43Q405-457 405-519.5T449.237-625q44.237-43 107-43T663-625q44 43 44 105 0 27-9.5 52T670-423l158 155-16 16ZM555.765-393q54.485 0 91.86-36.765Q685-466.529 685-519.265 685-572 647.86-609q-37.139-37-91.625-37-54.485 0-91.86 36.765Q427-572.471 427-519.735 427-467 464.14-430q37.139 37 91.625 37Z"/></svg>