<svg xmlns="http://www.w3.org/2000/svg" width="48" height="48" viewBox="0 -960 960 960"><path d="M154-300q-9-9-15.5-19.444Q132-329.888 132-342v-312q0-8.727 3.5-14.364Q139-674 148-679l299-149 292 149q6 3 11 11.5t6 16.5h-11L447-803 154-657v357Zm131 128q-22.775 0-38.387-15.5Q231-203 231-226v-294q0-23 15.613-38.5Q262.225-574 285-574h489q23 0 38.5 15.5T828-520v294q0 23-15.5 38.5T774-172H285Zm245-216L253-525v299q0 14 9 23t23 9h489q14 0 23-9t9-23v-299L530-388Zm0-28 262-130q-4-3-9-4.5t-11-1.5H287q-5 0-10.5 1.5T267-546l263 130Zm276-136H253h553Z"/></svg>