<svg xmlns="http://www.w3.org/2000/svg" width="48" height="48" viewBox="0 -960 960 960"><path d="M317-223v-167l135 83-135 84Zm203-365q-42.083 0-71.542-29.424Q419-646.848 419-688.882 419-730 448.458-760q29.459-30 71.542-30h31v22h-31q-32.917 0-55.958 23.076Q441-721.848 441-688.882 441-655 464.042-632.5 487.083-610 520-610h31v22h-31Zm129 0v-22h31q32.917 0 55.958-22.618 23.042-22.617 23.042-56Q759-722 735.958-745 712.917-768 680-768h-31v-22h31q42.083 0 71.542 29.882Q781-730.235 781-688.618 781-647 751.542-617.5 722.083-588 680-588h-31Zm-110-90v-22h122v22H539Zm79 228v-28h196q14 0 23-9t9-23v-299q0-14-9-23t-23-9H386q-14 0-23 9t-9 23v301h-22v-301q0-21.5 16.25-37.75T386-863h428q21.5 0 37.75 16.25T868-809v305q0 21.5-16.25 37.75T814-450H618ZM146-97q-21.5 0-37.75-16.25T92-151v-311q0-21.5 16.25-37.75T146-516h428q21.5 0 37.75 16.25T628-462v311q0 21.5-16.25 37.75T574-97H146Zm0-22h428q14 0 23-9t9-23v-311q0-14-9-23t-23-9H146q-14 0-23 9t-9 23v311q0 14 9 23t23 9Zm454-541ZM360-307Z"/></svg>