<svg xmlns="http://www.w3.org/2000/svg" width="48" height="48"><path d="M23.45 34.75h1.1v-6h6v-1.1h-6v-6h-1.1v6h-6v1.1h6zM9.3 41.4q-1.15 0-1.925-.775Q6.6 39.85 6.6 38.7V17.3q0-1.15.775-1.925Q8.15 14.6 9.3 14.6h9.3v-2.7q0-1.15.775-1.925Q20.15 9.2 21.3 9.2h5.4q1.15 0 1.925.775.775.775.775 1.925v2.7h9.3q1.15 0 1.925.775.775.775.775 1.925v21.4q0 1.15-.775 1.925-.775.775-1.925.775zm0-1.1h29.4q.6 0 1.1-.5.5-.5.5-1.1V17.3q0-.6-.5-1.1-.5-.5-1.1-.5H9.3q-.6 0-1.1.5-.5.5-.5 1.1v21.4q0 .6.5 1.1.5.5 1.1.5zm10.4-25.7h8.6v-2.7q0-.6-.5-1.1-.5-.5-1.1-.5h-5.4q-.6 0-1.1.5-.5.5-.5 1.1zm-12 25.7V15.7v24.6z"/></svg>