<svg xmlns="http://www.w3.org/2000/svg" width="48" height="48" viewBox="0 -960 960 960"><path d="M172-754v-22h376v22H172Zm151 471h74v-100h100v-74H397v-100h-74v100H223v74h100v100ZM186-172q-22.775 0-38.387-15.613Q132-203.225 132-226v-388q0-22.775 15.613-38.388Q163.225-668 186-668h348q22.775 0 38.388 15.612Q588-636.775 588-614v388q0 22.775-15.612 38.387Q556.775-172 534-172H186Zm568-234.21q-35-15.79-57.5-50.908T674-537.037q0-55.195 26.5-93.079Q727-668 765-668t64.5 37.909q26.5 37.909 26.5 92.644 0 45.211-22.5 80.329Q811-422 776-406.21V-183q0 4.95-3.048 7.975-3.047 3.025-7.987 3.025-4.965 0-7.965-3.025T754-183v-223.21Z"/></svg>