<svg xmlns="http://www.w3.org/2000/svg" width="48" height="48" viewBox="0 -960 960 960"><path d="M355.5-477.33Q338-495.67 338-523v-243q0-25.67 17.94-43.83 17.94-18.17 44-18.17T444-809.83q18 18.16 18 43.83v243q0 27.33-17.5 45.67Q427-459 400-459t-44.5-18.33Zm73-15.67q11.5-12 11.5-30.4V-766q0-17-11.5-28.5T400-806q-17 0-28.5 11.5T360-766v242.6q0 18.4 11.5 30.4t28.5 12q17 0 28.5-12ZM411-146h-22v-150q-91-6-154-71t-63-156h22q0 86 60.26 145.5Q314.51-318 400-318h11v172Zm232-30q8 0 13-5t5-13q0-8-5-13t-13-5q-8 0-13 5t-5 13q0 8 5 13t13 5Zm-14-76h28v-126h-28v126Zm-88.5 78.1Q498-215.8 498-277.4q0-60.09 42.57-102.34Q583.13-422 643.07-422q59.93 0 102.43 42.12Q788-337.76 788-277q0 61.43-42.57 103.22Q702.87-132 642.93-132 583-132 540.5-173.9ZM400-644Z"/></svg>