<svg xmlns="http://www.w3.org/2000/svg" width="48" height="48" viewBox="0 -960 960 960"><path d="M336-172q-21.75 0-37.87-16.13Q282-204.25 282-226v-508q0-21.75 16.13-37.88Q314.25-788 336-788h288q21.75 0 37.88 16.12Q678-755.75 678-734v508q0 21.75-16.12 37.87Q645.75-172 624-172H336Zm320-54v-508q0-14-9-23t-23-9H336q-13 0-22.5 9t-9.5 23v508q0 14 9.5 23t22.5 9h288q14 0 23-9t9-23ZM499.28-631q7.72-7 7.72-18t-7.72-18q-7.72-7-18-7-10.28 0-17.28 7-7 7-7 18t7 18q7 7 17.28 7 10.28 0 18-7ZM184-426v-229h22v229h-22Zm570 121v-229h22v229h-22Zm-450 79v32-572 540Z"/></svg>