<svg xmlns="http://www.w3.org/2000/svg" width="48" height="48" viewBox="0 -960 960 960"><path d="M306-92q-21.75 0-37.87-16.13Q252-124.25 252-146v-668q0-21.75 16.13-37.88Q284.25-868 306-868h348q21.75 0 37.88 16.12Q708-835.75 708-814v176H553q-52 0-86.5 34.5T432-517v403h78l108-108h90v76q0 21.75-16.12 37.87Q675.75-92 654-92H306Zm220-171v-253.68q0-12.32 7.63-19.82 7.62-7.5 19.37-7.5h236q11.75 0 19.38 7.62Q816-528.75 816-517v174q0 11.75-7.62 19.37Q800.75-316 789-316H579l-53 53Zm-26.5-448.07q7.5-7.07 7.5-18T499.43-747q-7.57-7-18-7T464-746.93q-7 7.07-7 18t7.07 17.93q7.07 7 17.5 7t17.93-7.07Z"/></svg>