<svg xmlns="http://www.w3.org/2000/svg" width="48" height="48" viewBox="0 -960 960 960"><path d="M389-370v-49q0-39.5 27.208-65.75Q443.417-511 482-511h51v-40l51 51-51 51v-40h-51q-29 0-50 20.65T411-419v49h-22ZM306-92q-22.775 0-38.388-15.613Q252-123.225 252-146v-668q0-22.775 15.612-38.388Q283.225-868 306-868h348q22.775 0 38.388 15.612Q708-836.775 708-814v668q0 22.775-15.612 38.387Q676.775-92 654-92H306Zm-32-85v31q0 12 10 22t22 10h348q12 0 22-10t10-22v-31H274Zm0-22h412v-562H274v562Zm0-584h412v-31q0-12-10-22t-22-10H306q-12 0-22 10t-10 22v31Zm0 0v-63 63Zm0 606v63-63Z"/></svg>