<svg xmlns="http://www.w3.org/2000/svg" width="48" height="48" viewBox="0 -960 960 960"><path d="m327-177-16-33q-13.548-28.16-23.774-63.637Q277-309.115 277-340q0-34.898 10.638-68.378Q298.275-441.857 314-474q17-35 30-70.941 13-35.94 13-75.059 0-28.082-6-55.541Q345-703 332-729l-22-44q-2-4-1-8t5-6q4-2 8.064-1.096 4.064.904 6.936 5.096l22 45q13.548 28.16 20.774 57.637Q379-650.885 379-620q0 35.838-10.638 69.338Q357.725-517.162 342-486q-17 36-30 71.425T299-340q0 28.082 6 55.541Q311-257 324-232l23 45q2 5 .5 8.5T342-172q-4 2-8.064.596T327-177Zm-142 0-22-45q-13.548-28.16-20.774-57.637Q135-309.115 135-340q0-34.898 10.637-67.878Q156.275-440.857 172-474q17-35 30-70.941 13-35.94 13-75.059 0-28.082-6-55.541Q203-703 190-729l-22-44q-2-4-1-8t5-6q4-2 8.064-1.096 4.064.904 6.936 5.096l22 45q13.548 28.16 20.774 57.637Q237-650.885 237-620q0 35.838-10.637 69.338Q215.725-517.162 200-486q-17 36-30 71.425T157-340q0 28.082 6 55.541Q169-257 182-232l23 45q2 5 .5 8.5T200-172q-4 2-8.064.596T185-177Zm318 60v-726q0-4.95 3.035-7.975 3.035-3.025 8-3.025t7.965 3.025q3 3.025 3 7.975v199l154-152q3-3 7.5-3.5t8.717 3.717Q699-792 699-788t-4 8L525-610v119h119l169-169q3-3 7.5-3.5t8.196 3.196Q832-657 832-652.5t-3 8.5L678-491h199q4.95 0 7.975 3.035 3.025 3.035 3.025 8T884.975-472q-3.025 3-7.975 3H678l152 154q3 3 3 7.5t-3.217 8.717Q826-296 822-296t-8-3L644-469H525v119l170 170q3 3 3.5 7.5t-3.196 8.196Q692-161 687.5-161t-8.5-3L525-317v200q0 4.95-3.035 7.975-3.035 3.025-8 3.025T506-109.025q-3-3.025-3-7.975Z"/></svg>