<svg xmlns="http://www.w3.org/2000/svg" width="48" height="48" viewBox="0 -960 960 960"><path d="M626-189v-22h268v22H626Zm-76-343.12q29-29.12 29-70 0-40.88-29.12-70.38-29.12-29.5-70-29.5Q439-702 410-672.38q-29 29.62-29 70.5Q381-561 410.12-532q29.12 29 70 29Q521-503 550-532.12ZM405-588q-6-6-6-14t6-14q6-6 14-6t14 6q6 6 6 14t-6 14q-6 6-14 6t-14-6Zm61 0q-6-6-6-14t6-14q6-6 14-6t14 6q6 6 6 14t-6 14q-6 6-14 6t-14-6Zm61 0q-6-6-6-14t6-14q6-6 14-6t14 6q6 6 6 14t-6 14q-6 6-14 6t-14-6ZM226-172q-21.5 0-37.75-16.25T172-226v-508q0-21.5 16.25-37.75T226-788h508q21.5 0 37.75 16.25T788-734v308q-7-1-14-1.5t-14-.5q-95 0-161.5 66.5T532-200q0 7 .5 14t1.5 14H226Z"/></svg>