<svg xmlns="http://www.w3.org/2000/svg" width="48" height="48" viewBox="0 96 960 960"><path d="M186 924q-22.775 0-38.387-15.612Q132 892.775 132 870V738h22v132q0 12 10 22t22 10h132v22H186Zm-54-510V282q0-22.775 15.613-38.388Q163.225 228 186 228h132v22H186q-12 0-22 10t-10 22v132h-22Zm301 410q-77-14-132-69t-69-132h20.913Q267 692 316 740.5t117 62.587V824ZM232 529q14-77 69-132t132-69v20.913Q364 363 315.5 411.5T252.913 529H232Zm248 98q-21 0-36-15t-15-36.463Q429 555 444 540t36.463-15Q501 525 516 540.013q15 15.012 15 35.987 0 21-15.013 36-15.012 15-35.987 15Zm47 197v-20.913Q596 789 644.5 740t62.587-117H728q-14 77-69 132t-132 69Zm180.087-295Q693 460 644.5 411.5T527 348.913V328q77 14 132 69t69 132h-20.913ZM642 924v-22h132q12 0 22-10t10-22V738h22v132q0 22.775-15.612 38.388Q796.775 924 774 924H642Zm164-510V282q0-12-10-22t-22-10H642v-22h132q22.775 0 38.388 15.612Q828 259.225 828 282v132h-22Z"/></svg>