<svg xmlns="http://www.w3.org/2000/svg" width="48" height="48" viewBox="0 -960 960 960"><path d="M283-306v-22h307q-42-28-62.5-66T505-469H351v-22h154q4-39 24.5-77t60.5-64H146v-22h534q72.21 0 123.105 50.852Q854-552.297 854-480.148 854-408 803.105-357T680-306H283Zm396.765-22Q743-328 787.5-372.265q44.5-44.264 44.5-107.5Q832-543 787.735-587.5q-44.264-44.5-107.5-44.5Q617-632 572.5-587.735q-44.5 44.264-44.5 107.5Q528-417 572.265-372.5q44.264 44.5 107.5 44.5ZM106-469v-22h208v22H106Zm40 163v-22h100v22H146Z"/></svg>