<svg xmlns="http://www.w3.org/2000/svg" width="48" height="48" viewBox="0 -960 960 960"><path d="M440-291q-5 0-7.5-3t-4.25-7.125Q416-330 400.667-351.854 385.333-373.707 370-394q-21-28-37.5-56T316-520q0-51.371 36.314-87.686Q388.629-644 440-644q51.371 0 87.686 36.314Q564-571.371 564-520q0 42-16.5 70T510-394q-15.333 20.293-30.667 42.146Q464-330 452-301q-2 5-4.5 7.5T440-291Zm0-51q17-27 28.5-42.5T488-411q25-32 36.5-54t11.5-55q0-39.6-28.2-67.8Q479.6-616 440-616q-39.6 0-67.8 28.2Q344-559.6 344-520q0 33 11.5 55t36.5 54q13 17 25 34t23 35Zm.141-138Q457-480 468.5-491.641t11.5-28.5Q480-537 468.359-548.5t-28.5-11.5Q423-560 411.5-548.359t-11.5 28.5Q400-503 411.641-491.5t28.5 11.5ZM441-171q-129.333 0-219.167-89.793Q132-350.586 132-479.862 132-544 156-600.5t66-98.5q42-42 98.443-66t120.5-24Q505-789 561.5-765t98.5 66q42 42 66 98.461T750-480v74l95-96 16 15-122 122-121-122 15-15 95 95v-73q0-119-84-203t-203-84q-119 0-203 84t-84 203q-1 119 83 203t204 84q56 0 103.5-19.5T633-267l16 16q-43 38-97.5 59T441-171Zm-1-349Z"/></svg>