<svg xmlns="http://www.w3.org/2000/svg" width="48" height="48" viewBox="0 -960 960 960"><path d="M254-376h25v-183h77v122h25v-122h77v183h25v-182q0-10.6-7.487-18.3Q468.025-584 457-584H280q-11.9 0-18.95 7.7Q254-568.6 254-558v182Zm305 0h25v-61h96q11.025 0 18.513-7.05Q706-451.1 706-463v-95q0-10.6-7.487-18.3Q691.025-584 680-584H559v208Zm25-86v-97h97v97h-97ZM226-172q-22.775 0-38.387-15.613Q172-203.225 172-226v-508q0-22.775 15.613-38.388Q203.225-788 226-788h508q22.775 0 38.388 15.612Q788-756.775 788-734v508q0 22.775-15.612 38.387Q756.775-172 734-172H226Z"/></svg>