<svg xmlns="http://www.w3.org/2000/svg" width="48" height="48" viewBox="0 -960 960 960"><path d="M292.85-119q-17.73 0-34.29-7t-29.33-19.63L66-308l18-19q7-7 16.5-8.5T120-334l89 19v-328q0-4.7 3.04-7.85 3.03-3.15 8.5-3.15 4.46 0 7.46 3.15t3 7.85v273h88v-163q0-4.7 3.04-7.85 3.03-3.15 8.5-3.15 4.46 0 7.46 3.15t3 7.85v163h88v-100q0-4.7 3.04-7.85 3.03-3.15 8.5-3.15 4.46 0 7.46 3.15t3 7.85v100h88q0-4.7 3.04-7.85 3.03-3.15 8.5-3.15 4.46 0 7.46 3.15t3 7.85v120q0 55-38 93t-93 38H292.85Zm356.88-463Q584-582 527-616t-94-89q37-55 94.02-89 57.02-34 123-34 66.98 0 123.48 34t94.5 89.5q-37 55.5-94.27 89-57.27 33.5-124 33.5ZM692-663.11q17-17.12 17-42Q709-730 691.89-747q-17.12-17-41.5-17-24.39 0-41.89 17.11-17.5 17.12-17.5 42Q591-680 608.61-663q17.62 17 42 17Q675-646 692-663.11ZM628-683q-9-9-9-22t9-22q9-9 22.5-9t22 9q8.5 9 8.5 22t-8.5 22q-8.5 9-22 9t-22.5-9Z"/></svg>