<svg xmlns="http://www.w3.org/2000/svg" width="48" height="48" viewBox="0 96 960 960"><path d="M480 902q34 0 67-7t64-20q-34-27-50.5-65.5T544 727q0-9 .5-18.5T547 690q-31-10-47.5-41T483 576q0-51 24-84.5t67-33.5q36 0 59 25t29 64q18-8 37.5-12t40.5-4q16 0 32.5 3.5T805 543q-5-63-33-116.5t-72-93Q656 294 599.5 272T480 250q-68 0-127 25.5t-103.5 70Q205 390 179.5 449T154 576q0 68 25.5 127t70 103.5Q294 851 353 876.5T480 902Zm73-237q12-34 34-61t52-45q-3-39-21.5-57.5T574 483q-28 0-47.5 23T507 576q0 38 12.5 60t33.5 29Zm187 258q-29 0-57-8t-52-25q-35 17-73.5 25.5T480 924q-72 0-135.5-27.5T234 822q-47-47-74.5-110.5T132 576q0-72 27.5-135.5T234 330q47-47 110.5-74.5T480 228q68 0 129 25t107.5 68.5Q763 365 792 424t35 127q50 26 79.5 73T936 727q0 81-57.5 138.5T740 923Zm0-22q73 0 123.5-50.5T914 727q0-73-50.5-123.5T740 553q-73 0-123.5 50.5T566 727q0 73 50.5 123.5T740 901ZM292 688v-30q27-24 48-43t36-33q20-18 27-31t7-28q0-19-14.5-29.5T362 483q-16 0-28.5 7T315 513l-24-9q9-21 29-33.5t43-12.5q31 0 50.5 20.5T433 521q0 20-8.5 38T396 596q-15 15-36.5 34T323 663h114v25H292Z"/></svg>