<svg xmlns="http://www.w3.org/2000/svg" width="48" height="48" viewBox="0 -960 960 960"><path d="M480.175-575q9.825 0 17.325-7.675 7.5-7.676 7.5-17.5 0-9.825-7.675-17.325-7.676-7.5-17.5-7.5-9.825 0-17.325 7.675-7.5 7.676-7.5 17.5 0 9.825 7.675 17.325 7.676 7.5 17.5 7.5ZM480-226q-97 0-155.5-11T266-266v-40H166q-23.145 0-39.572-17.5Q110-341 112-364l28-320q2-22 16.808-36 14.807-14 36.192-14h574q21.385 0 36.192 14Q818-706 820-684l28 320q2 23-14.428 40.5Q817.145-306 794-306H694v40q0 18-58.5 29T480-226Z"/></svg>