<svg xmlns="http://www.w3.org/2000/svg" width="48" height="48"><path d="M39.4 24.4q-.5 0-.875-.375t-.375-.875v-10.2q0-.5.375-.875t.875-.375q.5 0 .875.375t.375.875v10.2q0 .5-.375.875t-.875.375zm-24.3 15q-.3 0-.6-.125T14 38.9l-8.7-8.6 1.1-1.1q.2-.2.425-.325.225-.125.475-.025l7.3 1.65V11q0-1 .7-1.7t1.7-.7q1 0 1.7.7t.7 1.7v10.6h2.1q.2 0 .375.05t.325.15l6.1 2.7q1.5.65 2.1 2.25.6 1.6.3 3.25l-1.45 8.3q-.05.5-.475.8-.425.3-.925.3zm-.1-1.1h13.1l1.5-8.75q.2-1.05-.1-2.225-.3-1.175-1.5-1.675l-6.4-2.95h-3.3V11q0-.6-.35-.95T17 9.7q-.6 0-.95.35t-.35.95v20.8l-8.45-1.85-.35.35zm0 0h12.95z"/></svg>