<svg xmlns="http://www.w3.org/2000/svg" width="48" height="48" viewBox="0 0 48 48"><path d="M10.8 31.9q-1.25 0-2.1-.875-.85-.875-.85-2.075V17.2q0-1.25.875-2.1.875-.85 2.075-.85 1.2 0 2.05.85.85.85.85 2.05 1.3-2.55 3.775-4.1Q19.95 11.5 23 11.5q2.1 0 4 .8t3.35 2.25l7.75 7.7q.35.4.55.9.2.5.2 1t-.2 1q-.2.5-.55.85L27.2 36.95q-.4.4-.875.6-.475.2-1.025.2-.55 0-1.05-.2t-.9-.6l-7.7-7.7q-.6-.55-1.1-1.225-.5-.675-.85-1.375v2.3q0 1.2-.85 2.075-.85.875-2.05.875Zm3.05-10.05q0 1.85.7 3.525.7 1.675 2 2.975l7.6 7.6q.5.5 1.175.5t1.125-.5l10.6-10.65q.45-.5.45-1.175T37.05 23l-7.6-7.6q-1.3-1.3-2.95-2-1.65-.7-3.5-.7-3.8 0-6.475 2.675T13.85 21.85ZM25.8 24.7Z"/></svg>