<svg xmlns="http://www.w3.org/2000/svg" width="48" height="48" viewBox="0 96 960 960"><path d="M480.148 950Q408 950 357 899.105T306 776V376q0-72.21 50.852-123.105Q407.703 202 479.852 202 552 202 603 252.895T654 376v400q0 72.21-50.852 123.105Q552.297 950 480.148 950ZM480 490q30.525 0 52.263-21.737Q554 446.525 554 416t-21.737-52.263Q510.525 342 480 342t-52.263 21.737Q406 385.475 406 416t21.737 52.263Q449.475 490 480 490Zm0 320q30.525 0 52.263-21.737Q554 766.525 554 736t-21.737-52.263Q510.525 662 480 662t-52.263 21.737Q406 705.475 406 736t21.737 52.263Q449.475 810 480 810Zm-.105-27Q460 783 446.5 769.588 433 756.175 433 736.281q0-19.895 13.412-34.088Q459.825 688 479.719 688q19.895 0 34.088 14.105 14.193 14.106 14.193 34Q528 756 513.895 769.5q-14.106 13.5-34 13.5Z"/></svg>