<svg xmlns="http://www.w3.org/2000/svg" width="48" height="48"><path d="m37.4 35.7-17-17h9.75v-4.25q0-2.6-1.9-4.375T23.75 8.3q-2.65 0-4.55 1.775t-1.9 4.375v.85l-1.05-1.05q.05-3 2.25-5.025Q20.7 7.2 23.75 7.2t5.275 2.1q2.225 2.1 2.225 5.15v4.25h3.45q1.1 0 1.9.775.8.775.8 1.925zm4.3 11.6-6-6.05q-.5.2-1 .175-.5-.025-1-.025H13.3q-1.1 0-1.9-.8-.8-.8-.8-1.9V21.4q0-1.05.725-1.825.725-.775 1.825-.825L.75 6.35l.85-.8L42.5 46.5zM22.25 27.85q-.35.35-.55.85-.2.5-.2 1.05 0 1.1.75 1.85t1.85.75q.55 0 1.05-.2t.85-.6z"/></svg>