<svg xmlns="http://www.w3.org/2000/svg" width="48" height="48" viewBox="0 96 960 960"><path d="M856 984 704 832v23q1 18-11 31.5T663 900H197q-17 0-29-12t-12-29V529q0-17 12-29t29-12h82l39-43L90 218l16-16 766 766-16 16ZM452 580q-4-1-7.5-1H437q-50-3-85.5 31.5T316 694q0 48 33 81t81 33q49 0 83-35.5t32-85.5v-7.5q0-3.5-1-7.5l-92-92Zm-22 206q-38 0-65-27t-27-65q0-39 27-65.5t65-26.5q39 0 65.5 26.5T522 694q0 38-26.5 65T430 786Zm274-89L439 432h92l51 56h81q17 0 29 12t12 29v168Zm36-239V341h-17V232h80l-37 83h45l-71 143Z"/></svg>