<svg xmlns="http://www.w3.org/2000/svg" width="48" height="48" viewBox="0 -960 960 960"><path d="M420-698h132v-108H420v108Zm-86.07 566Q322-132 314-140.05T306-160v-12q-21.5 0-37.75-16.25T252-226v-417q0-14.4 5.5-25.7Q263-680 272-688l436 442v20q0 21.5-16.25 37.75T654-172v12q0 11.9-8.07 19.95-8.07 8.05-20 8.05T606-140.05q-8-8.05-8-19.95v-12H362v12q0 11.9-8.07 19.95-8.07 8.05-20 8.05ZM341-280h22v-313h-22v313Zm128 0h22v-189l-22-22v211Zm128 0h22v-61l-22-22v83ZM856-72 90-838l16-16L872-88l-16 16ZM708-385l-89-89v-130h-22v108L495-598v-6h-1v4L387-706h11v-101q0-8 6-14.5t15-6.5h134q8 0 14.5 6.5T574-807v109h80q21.5 0 37.75 16.265Q708-665.471 708-643.951V-385Z"/></svg>