<svg xmlns="http://www.w3.org/2000/svg" width="48" height="48" viewBox="0 -960 960 960"><path d="M185-172q-4.95 0-7.975-3.035-3.025-3.035-3.025-8t3.025-7.965q3.025-3 7.975-3h51v-275h-54q-4.95 0-7.975-3.035-3.025-3.035-3.025-8t3.025-7.965q3.025-3 7.975-3h54v-275h-51q-4.95 0-7.975-3.035-3.025-3.035-3.025-8t3.025-7.965q3.025-3 7.975-3h589q4.675 0 7.838 3.173 3.162 3.172 3.162 7.862 0 4.965-3.162 7.965-3.163 3-7.838 3h-50v275h53q4.675 0 7.838 3.173 3.162 3.172 3.162 7.862 0 4.965-3.162 7.965-3.163 3-7.838 3h-53v275h50q4.675 0 7.838 3.173 3.162 3.172 3.162 7.862 0 4.965-3.162 7.965-3.163 3-7.838 3H185Zm295.059-185Q518-357 544.5-383.219q26.5-26.218 26.5-63.456 0-29.682-16.938-50.305Q537.125-517.602 480-584q-56.375 66.212-73.688 87.15Q389-475.913 389-446.385q0 37.098 26.559 63.242Q442.118-357 480.059-357Z"/></svg>