<svg xmlns="http://www.w3.org/2000/svg" width="48" height="48" viewBox="0 0 48 48"><path d="M7.35 20.55v-1.1h4.15q1.45-3.75 4.7-6.1 3.25-2.35 7.3-2.7L20.4 7.6l.8-.8 3.25 3.4q.25.25.3.55.05.3-.05.55-.1.25-.3.425-.2.175-.5.175-4.3 0-7.3 2.45t-4.1 5.7l-.15.5ZM30.6 24q0-2.1 1.025-3.925Q32.65 18.25 34.3 17.6q-1.35-2-3-3.275T27.55 12.4l.3-1.05q2.55.75 4.35 2.2 1.8 1.45 3.25 3.9 1.75.3 3 2.175Q39.7 21.5 39.7 24q0 2.25-1.125 4.125T35.45 30.6q-1.3 2.3-3.225 3.825Q30.3 35.95 27.75 36.7l-.3-1.05q2.2-.7 3.875-2Q33 32.35 34.3 30.4q-1.45-.7-2.575-2.4-1.125-1.7-1.125-4Zm4.55 5.45q1.3 0 2.375-1.7T38.6 24q0-2.15-1.05-3.8t-2.4-1.65q-1.35 0-2.4 1.65-1.05 1.65-1.05 3.8 0 2.05 1.075 3.75 1.075 1.7 2.375 1.7ZM21.3 41.2l-.8-.8 3.1-3.1q-4.05-.3-7.3-2.65t-4.7-6.1H7.45v-1.1h5l.15.5q1.1 3.25 4.075 5.7t7.275 2.45q.35 0 .55.175.2.175.3.425.1.25.05.55-.05.3-.3.55ZM35.15 24Z"/></svg>