<svg xmlns="http://www.w3.org/2000/svg" width="48" height="48" viewBox="0 96 960 960"><path d="M272 904V616h60V464L207 339l120-119 15 15-103 104 115 115v162h60v288H272Zm274 0V616h60V493q-42-5-71-37.17t-29-75.44Q506 334 538 301t79-33q47 0 79 33.031T728 380q0 43.66-29 75.83T628 493v123h60v288H546Zm71.292-433Q655 471 680.5 444.761t25.5-64.5Q706 342 680.416 316q-25.584-26-63-26T554 316.031q-26 26.031-26 64t25.792 64.469q25.792 26.5 63.5 26.5ZM294 882h98V638h-98v244Zm274 0h98V638h-98v244Zm-274 0h98-98Zm274 0h98-98Z"/></svg>