<svg xmlns="http://www.w3.org/2000/svg" width="48" height="48" viewBox="0 -960 960 960"><path d="M146-206q-21.5 0-37.75-16.25T92-260v-514q0-21.5 16.25-37.75T146-828h227q21.5 0 37.75 16.25T427-774v157h-79q-57 0-97 40t-40 97q0 57 40.29 97.5T349-342h78v82q0 21.5-16.25 37.75T373-206H146Zm114.12-486q8.88 0 15.38-6.62 6.5-6.61 6.5-15.5 0-8.88-6.62-15.38-6.61-6.5-15.5-6.5-9.88 0-15.88 6.62-6 6.61-6 15.5 0 8.88 6.12 15.38 6.11 6.5 16 6.5Zm67.74 235q-8.86 0-15.86-7.14t-7-16q0-8.86 7.14-15.86t16-7q8.86 0 15.86 7.14t7 16q0 8.86-7.14 15.86t-16 7Zm152 0q-8.86 0-15.86-7.14t-7-16q0-8.86 7.14-15.86t16-7q8.86 0 15.86 7.14t7 16q0 8.86-7.14 15.86t-16 7ZM587-132q-21.5 0-37.75-16.25T533-186v-156h78q57 0 97-40t40-97q0-57-40-97.5T611-617h-78v-83q0-21.5 16.25-37.75T587-754h227q21.5 0 37.75 16.25T868-700v514q0 21.5-16.25 37.75T814-132H587Zm43.86-325q-8.86 0-15.86-7.14t-7-16q0-8.86 7.14-15.86t16-7q8.86 0 15.86 7.14t7 16q0 8.86-7.14 15.86t-16 7Zm70.26-161q8.88 0 15.38-6.12 6.5-6.11 6.5-16 0-8.88-6.62-15.38-6.61-6.5-15.5-6.5-9.88 0-15.88 6.62-6 6.61-6 15.5 0 9.88 6.12 15.88 6.11 6 16 6Z"/></svg>