<svg xmlns="http://www.w3.org/2000/svg" width="48" height="48" viewBox="0 -960 960 960"><path d="m394-533 86-43 86 43v-233H394v233ZM280-306v-28h200v28H280Zm-54 134q-22.775 0-38.387-15.613Q172-203.225 172-226v-508q0-22.775 15.613-38.388Q203.225-788 226-788h508q22.775 0 38.388 15.612Q788-756.775 788-734v508q0 22.775-15.612 38.387Q756.775-172 734-172H226Zm-32-594v572-572Zm32 572h508q12 0 22-10t10-22v-508q0-12-10-22t-22-10H588v269l-108-54-108 54v-269H226q-12 0-22 10t-10 22v508q0 12 10 22t22 10Z"/></svg>