<svg xmlns="http://www.w3.org/2000/svg" width="48" height="48" viewBox="0 96 960 960"><path d="M182 824q-21.5 0-37.75-16.25T128 770V438h22v332q0 12 10 22t22 10h532v22H182Zm96-96q-21.5 0-37.75-16.25T224 674V374q0-21.5 16.25-37.75T278 320h500q21.5 0 37.75 16.25T832 374v300q0 21.5-16.25 37.75T778 728H278Zm34-22q0-27-19.625-46.5T246 640v34q0 13 9.5 22.5T278 706h34Zm432 0h34q13 0 22.5-9.5T810 674v-34q-27 0-46.5 19.625T744 706ZM528 592q29 0 48.5-19.5T596 524q0-29-19.5-48.5T528 456q-29 0-48.5 19.5T460 524q0 29 19.5 48.5T528 592ZM246 408q27 0 46.5-19.625T312 342h-34q-13 0-22.5 9.5T246 374v34Zm564 0v-34q0-13-9.5-22.5T778 342h-34q0 27 19.625 46.5T810 408Z"/></svg>