<svg xmlns="http://www.w3.org/2000/svg" width="48" height="48" viewBox="0 96 960 960"><path d="M440 538q-42.55 0-73.775-31.225Q335 475.55 335 433q0-42.55 31.225-73.775Q397.45 328 440 328q42.55 0 73.775 31.225Q545 390.45 545 433q0 42.55-31.225 73.775Q482.55 538 440 538Zm402 416L739 850q-20 15-40.5 21t-38.294 6Q609 877 574 841.765q-35-35.236-35-86Q539 705 574.235 670q35.236-35 86-35Q711 635 746 670.167q35 35.166 35 85.833 0 18-5.5 38.5T754 835l104 103-16 16Zm-182-99q42 0 70.5-28.5T759 756q0-42-28.5-70.5T660 657q-42 0-70.5 28.5T561 756q0 42 28.5 70.5T660 855ZM492 656q-20 43-24.5 84t10.5 84H172v-47q0-24 13.5-41.5T223 705q40-19 113.5-38.5T492 656Z"/></svg>