<svg xmlns="http://www.w3.org/2000/svg" width="48" height="48" viewBox="0 -960 960 960"><path d="M480-389q40.397 0 74.699-17.5Q589-424 613-453q-30-19-63.215-28.5t-70-9.5Q443-491 410-481.5T347-453q24 29 58.301 46.5Q439.603-389 480-389Zm.089-200Q502-589 516.5-604.089q14.5-15.088 14.5-36Q531-662 516.411-676.5q-14.588-14.5-36.5-14.5Q459-691 444-676.411q-15 14.588-15 36.5Q429-619 444.089-604q15.088 15 36 15ZM480-131q129-111 200.5-227T752-552q0-122.79-78.292-201.395Q595.417-832 480-832t-193.708 78.605Q208-674.79 208-552q0 78 72 194t200 227Zm0 31Q331-234 258.5-348.5T186-552q0-138 89-220t205-82q116 0 205 82t89 220q0 89-72.5 203.5T480-100Zm0-452Z"/></svg>