<svg xmlns="http://www.w3.org/2000/svg" width="48" height="48" viewBox="0 96 960 960"><path d="M406 884V702.098q-60.26-4.446-117.956-12.286Q230.348 681.971 172 669l5-22q74 17 149.731 25t153.243 8q76.622 0 152.261-8T784 647l4 22q-57.75 12.85-116.324 20.909-58.575 8.058-117.676 12.53V884H406Zm74.185-282Q454 602 436 584.181q-18-17.818-18-44.39Q418 514 435.819 496q17.818-18 44.39-18Q506 478 524 495.703q18 17.702 18 44.112Q542 566 524.297 584q-17.702 18-44.112 18ZM202.902 493Q190 493 181 484q-9-9-9-21.745 0-12.255 9-21.755 9-9.5 21.745-9.5 12.255 0 21.755 9.458 9.5 9.459 9.5 21.64Q234 475 224.542 484q-9.459 9-21.64 9Zm554 0Q744 493 735 484q-9-9-9-21.745 0-12.255 9-21.755 9-9.5 21.745-9.5 12.255 0 21.755 9.458 9.5 9.459 9.5 21.64Q788 475 778.542 484q-9.459 9-21.64 9Zm-457-145Q287 348 278 339q-9-9-9-21.745 0-12.255 9-21.755 9-9.5 21.745-9.5 12.255 0 21.755 9.458 9.5 9.459 9.5 21.64Q331 330 321.542 339q-9.459 9-21.64 9Zm360 0Q647 348 638 339q-9-9-9-21.745 0-12.255 9-21.755 9-9.5 21.745-9.5 12.255 0 21.755 9.458 9.5 9.459 9.5 21.64Q691 330 681.542 339q-9.459 9-21.64 9Zm-180-58Q467 290 458 281q-9-9-9-21.745 0-12.255 9-21.755 9-9.5 21.745-9.5 12.255 0 21.755 9.458 9.5 9.459 9.5 21.64Q511 272 501.542 281q-9.459 9-21.64 9Z"/></svg>