<svg xmlns="http://www.w3.org/2000/svg" width="48" height="48" viewBox="0 -960 960 960"><path d="m704-383-15-16q19-15 30.5-35.767Q731-455.533 731-481q0-24-11.5-45T689-563l15-15q22 18 35.5 42.878t13.5 54Q753-452 739.5-427T704-383Zm78 77-16-15q32.385-32.234 49.192-73.617Q832-436 832-480.5q0-44.5-17.5-86T764-638l17-17q35.753 35.068 54.376 80.181Q854-529.706 854-479.853q0 48.853-18.607 93.998Q816.786-340.711 782-306ZM306-92q-21.5 0-37.75-16.25T252-146v-668q0-21.5 16.25-37.75T306-868h348q21.5 0 37.75 16.25T708-814v120h-22v-67H274v562h412v-67h22v119.523q0 22.227-16.25 38.352Q675.5-92 654-92H306Z"/></svg>