<svg xmlns="http://www.w3.org/2000/svg" width="48" height="48" viewBox="0 -960 960 960"><path d="M72-483v-159h22v121l138-137 15 15-137 138h121v22H72Zm245-230-15-15 137-138H318v-22h159v159h-22v-121L317-713Zm235 609q-18.294 0-34.147-7Q502-118 488-131L292-326l12-12q5-6 12.5-8t15.5 0l134 32v-338q0-4.675 3.228-7.838 3.228-3.162 8-3.162t7.772 3.162q3 3.163 3 7.838v368l-168-45 184.439 183.439Q514-136 526.696-131q12.695 5 25.304 5h142q47 0 79.5-32.5T806-238v-166q0-4.675 3.228-7.838 3.228-3.162 8-3.162t7.772 3.162q3 3.163 3 7.838v166q0 56-39 95t-94.803 39H552Zm27-257v-163q0-4.725 3.228-7.862 3.228-3.138 8-3.138t7.772 3.162q3 3.163 3 7.838v163h-22Zm114 0v-123q0-4.725 3.228-7.862 3.228-3.138 8-3.138t7.772 3.162q3 3.163 3 7.838v123h-22Zm-62 120Z"/></svg>