<svg xmlns="http://www.w3.org/2000/svg" width="48" height="48" viewBox="0 96 960 960"><path d="M320 924q-44.55 0-76.275-31.725Q212 860.55 212 816V456q0-45 31.5-76.5T320 348v-66q0-21.5 16.25-37.75T374 228h212q21.5 0 37.75 16.25T640 282v66q45 0 76.5 31.5T748 456v360q0 44.55-31.725 76.275Q684.55 924 640 924H320Zm-86-296h492V456q0-36.225-24.888-61.112Q676.225 370 640 370H320q-36.225 0-61.112 24.888Q234 419.775 234 456v172Zm86 274h320q36.225 0 61.112-24.888Q726 852.225 726 816V650H234v166q0 36 24.888 61 24.887 25 61.112 25Zm160-274Zm0 22Zm0-11Zm28-291h110v-66q0-14-9-23t-23-9H374q-14 0-23 9t-9 23v66h110q0-11 8.5-19.5T480 320q11 0 19.5 8.5T508 348Z"/></svg>