<svg xmlns="http://www.w3.org/2000/svg" width="48" height="48" viewBox="0 -960 960 960"><path d="M222-132q-20.1 0-35.05-15.244Q172-162.488 172-183v-454q0-20.513 14.95-35.756Q201.9-688 222-688h64v-140h389v140h63q21 0 35.5 15.244Q788-657.513 788-637v454q0 20.512-14.5 35.756T738-132H222Zm86-556h345v-118H308v118Zm-86 534h516q11 0 19.5-9t8.5-20v-454q0-11-8.5-20t-19.5-9H222q-11 0-19.5 9t-8.5 20v454q0 11 8.5 20t19.5 9Zm256.88-88q70.085 0 120.103-49.431Q649-340.861 649-409.553q0-69.107-50.07-119.277Q548.859-579 478.774-579q-69.255 0-118.015 50.087Q312-478.827 312-409.913 312-341 360.812-291.5 409.625-242 478.88-242Zm.463-23Q419-265 377.5-306.707t-41.5-102Q336-469 377.535-511.5 419.07-554 478.778-554q60.536 0 103.379 42.449Q625-469.101 625-408.808q0 60.293-42.657 102.05Q539.687-265 479.343-265ZM522-348l19-19-48-49v-82h-26v94l55 56Zm-42-62Z"/></svg>