<svg xmlns="http://www.w3.org/2000/svg" width="48" height="48" viewBox="0 96 960 960"><path d="m430 464-16-15 103-102H308q-4 21-20 37t-37 20.105V748q25 4 41 22.78T308 816q0 28.333-19.765 48.167-19.764 19.833-48 19.833Q212 884 192 864.167 172 844.333 172 816q0-26 16-45t41-23V404q-25-4-41-22.78T172 336q0-28.333 19.833-48.167Q211.667 268 240 268q26.44 0 45.22 16Q304 300 308 325h209L414 223l16-16 129 129-129 128Zm289.765-196Q748 268 768 287.765q20 19.764 20 48Q788 364 768.235 384q-19.764 20-48 20Q692 404 672 384.235q-20-19.764-20-48Q652 308 671.765 288q19.764-20 48-20Zm-479.8 594q19.535 0 32.785-13.215Q286 835.57 286 816.035t-13.215-32.785Q259.57 770 240.035 770t-32.785 13.215Q194 796.43 194 815.965t13.215 32.785Q220.43 862 239.965 862Zm0-480q19.535 0 32.785-13.215Q286 355.57 286 336.035t-13.215-32.785Q259.57 290 240.035 290t-32.785 13.215Q194 316.43 194 335.965t13.215 32.785Q220.43 382 239.965 382Zm480 0q19.535 0 32.785-13.215Q766 355.57 766 336.035t-13.215-32.785Q739.57 290 720.035 290t-32.785 13.215Q674 316.43 674 335.965t13.215 32.785Q700.43 382 719.965 382ZM240 816Zm0-480Zm480 0Zm-87 269 17 16-176 175v66h65l178-177 14 15-182 184h-97v-97l181-182Zm98 95-98-95 43-43q15-15 37.706-15 22.705 0 38.294 16l21 20q15 16 15 37.904 0 21.905-16 38.096l-41 41Z"/></svg>