<svg xmlns="http://www.w3.org/2000/svg" width="48" height="48" viewBox="0 96 960 960"><path d="m430 944-15-15 102-102H308q-4 25-22.78 41T240 884q-28.333 0-48.167-19.833Q172 844.333 172 816q0-26.44 16-45.22Q204 752 229 748V404q-25-4-41-22.78T172 336q0-28.333 19.833-48.167Q211.667 268 240 268q26.44 0 45.22 16Q304 300 308 325h209L414 223l16-16 129 129-129 128-16-15 103-102H308q-4 21-20 37t-37 20.105V748q21 4 37 20t20 37h208L415 703l15-16 129 129-129 128Zm290.235-60Q692 884 672 864.167 652 844.333 652 816q0-25.535 16-44.767Q684 752 709 748V404q-25-4-41-23.327-16-19.326-16-44.673 0-28.333 19.765-48.167 19.764-19.833 48-19.833Q748 268 768 287.833q20 19.834 20 48.167 0 25.554-16 44.777Q756 400 731 404v344q25 4 41 22.78T788 816q0 28.333-19.765 48.167-19.764 19.833-48 19.833Zm-480.27-22q19.535 0 32.785-13.215Q286 835.57 286 816.035t-13.215-32.785Q259.57 770 240.035 770t-32.785 13.215Q194 796.43 194 815.965t13.215 32.785Q220.43 862 239.965 862Zm480 0q19.535 0 32.785-13.215Q766 835.57 766 816.035t-13.215-32.785Q739.57 770 720.035 770t-32.785 13.215Q674 796.43 674 815.965t13.215 32.785Q700.43 862 719.965 862Zm-480-480q19.535 0 32.785-13.215Q286 355.57 286 336.035t-13.215-32.785Q259.57 290 240.035 290t-32.785 13.215Q194 316.43 194 335.965t13.215 32.785Q220.43 382 239.965 382Zm480 0q19.535 0 32.785-13.215Q766 355.57 766 336.035t-13.215-32.785Q739.57 290 720.035 290t-32.785 13.215Q674 316.43 674 335.965t13.215 32.785Q700.43 382 719.965 382ZM240 816Zm480 0ZM240 336Zm480 0Z"/></svg>