<svg xmlns="http://www.w3.org/2000/svg" width="48" height="48" viewBox="0 -960 960 960"><path d="M164-252q-37.78 0-60.89-23.11Q80-298.23 80-336v-288q0-37.78 23.11-60.89T164-708h288q37.78 0 60.89 23.11T536-624v288q0 37.77-23.11 60.89Q489.78-252 452-252H164Zm-62-80q45-30 97-47.5T308-397q57 0 109 17.5t97 47.5v-292q0-26-18-44t-44-18H164q-26 0-44 18t-18 44v292Zm206-43q-52 0-103.5 17T106-307q3 16 19.5 24.5T159-274h298q18 0 33.5-8.5T515-307q-46-32-99.5-50T308-375Zm-66.5-98.5Q214-501 214-540t27.5-66.5Q269-634 308-634t66.5 27.5Q402-579 402-540t-27.5 66.5Q347-446 308-446t-66.5-27.5Zm67 6.5q29.5 0 51-21.5t21.5-52q0-29.5-21.62-51Q337.75-613 308-613q-30 0-51.5 21.62Q235-569.75 235-540q0 30 21.5 51.5t52 21.5ZM686-252v-456h22v456h-22Zm172 0v-456h22v456h-22ZM308-540Zm3 266Z"/></svg>