<svg xmlns="http://www.w3.org/2000/svg" width="48" height="48" viewBox="0 -960 960 960"><path d="M164-252q-37.775 0-60.887-23.112Q80-298.225 80-336v-288q0-37.775 23.113-60.888Q126.225-708 164-708h288q37.775 0 60.888 23.112Q536-661.775 536-624v288q0 37.775-23.112 60.888Q489.775-252 452-252H164Zm-62-80q45-30 97-47.5T308-397q57 0 109 17.5t97 47.5v-292q0-26-18-44t-44-18H164q-26 0-44 18t-18 44v292Zm206-114q-39 0-66.5-27.5T214-540q0-39 27.5-66.5T308-634q39 0 66.5 27.5T402-540q0 39-27.5 66.5T308-446Zm378 194v-456h22v456h-22Zm172 0v-456h22v456h-22Z"/></svg>