<svg xmlns="http://www.w3.org/2000/svg" width="48" height="48" viewBox="0 0 48 48"><path d="M9.3 37.4q-1.15 0-1.925-.775Q6.6 35.85 6.6 34.7V13.3q0-1.15.775-1.925Q8.15 10.6 9.3 10.6h29.4q1.15 0 1.925.775.775.775.775 1.925v9.1h-1.1v-6.65H7.7V34.7q0 .6.5 1.1.5.5 1.1.5h12.5v1.1ZM36 43.8q-3.05 0-5.45-1.825-2.4-1.825-3.3-4.575h1.5q.85 2.25 2.775 3.625Q33.45 42.4 36 42.4q3.25 0 5.525-2.275Q43.8 37.85 43.8 34.6q0-3.25-2.275-5.525Q39.25 26.8 36 26.8q-1.95 0-3.75 1t-3.1 2.6h4.05v1.4h-6.4v-6.4h1.4v3.95q1.45-1.75 3.5-2.85t4.3-1.1q3.8 0 6.5 2.7t2.7 6.5q0 3.8-2.7 6.5T36 43.8Z"/></svg>