<svg xmlns="http://www.w3.org/2000/svg" width="48" height="48" viewBox="0 -960 960 960"><path d="M186-349v-545h284v101h-91q-5.2 0-9.1 4.2-3.9 4.2-3.9 8.94 0 4.75 3.9 8.3 3.9 3.56 9.1 3.56h91.1v29.29q0 6.32.45 12.97.45 6.66 2.45 12.74h-94q-5.2 0-9.1 4.2-3.9 4.2-3.9 8.94 0 4.75 3.9 8.3 3.9 3.56 9.1 3.56h102.62q12.38 24 32.88 40.4T561-623l108 30q43.24 11.42 69.12 46.01Q764-512.39 764-468.43V-349H186ZM132.5-92.56q-26.5-26.56-26.5-64.5t26.56-64.44q26.56-26.5 64.5-26.5t64.44 26.56q26.5 26.56 26.5 64.5T261.44-92.5Q234.88-66 196.94-66T132.5-92.56ZM762.94-66Q725-66 698.5-92.56t-26.5-64.5q0-37.94 26.56-64.44t64.5-26.5q37.94 0 64.44 26.56t26.5 64.5q0 37.94-26.56 64.44T762.94-66Zm-283 0Q442-66 415.5-92.56t-26.5-64.5q0-37.94 26.56-64.44t64.5-26.5q37.94 0 64.44 26.56t26.5 64.5q0 37.94-26.56 64.44T479.94-66Z"/></svg>