<svg xmlns="http://www.w3.org/2000/svg" width="48" height="48" viewBox="0 -960 960 960"><path d="M207-172q-22.775 0-38.387-15.613Q153-203.225 153-226v-110q0-22.775 15.613-38.388Q184.225-390 207-390h413v-165h22v165h81q22.775 0 38.388 15.612Q777-358.775 777-336v110q0 22.775-15.612 38.387Q745.775-172 723-172H207Zm81-108.772q0-12.228-8.244-20.728-8.244-8.5-20.431-8.5-12.188 0-20.256 8.675-8.069 8.676-8.069 21Q231-268 239.272-260t20.5 8Q272-252 280-260.272q8-8.272 8-20.5Zm143 0q0-12.228-8.244-20.728-8.244-8.5-20.431-8.5-12.187 0-20.256 8.675-8.069 8.676-8.069 21Q374-268 382.1-260q8.101 8 20.075 8 12.4 0 20.613-8.272 8.212-8.272 8.212-20.5ZM544.772-252Q557-252 565-260.272q8-8.272 8-20.5t-8.244-20.728q-8.244-8.5-20.431-8.5-12.187 0-20.256 8.675-8.069 8.676-8.069 21Q516-268 524.272-260t20.5 8ZM540-633l-15-15q24.914-24 50.47-35 25.557-11 55.03-11 29.473 0 55.03 11 25.556 11 50.47 35l-14 15q-19-18-41-28.5T631-672q-28 0-50.5 10.5T540-633Zm-96-96-16-16q37-38 89-60.5T630.5-828q61.5 0 113.5 22.5t89 60.5l-16 16q-31-31-78-54t-108.5-23Q569-806 522-783t-78 54Z"/></svg>