<svg xmlns="http://www.w3.org/2000/svg" width="48" height="48" viewBox="0 96 960 960"><path d="M675 663q-5-1-6-6t1-10q6-16 10-36.5t4-40.5q0-82-57.5-140.5T485 371q-20 0-40 3.5T406 386q-5 2-8.857-.087-3.857-2.087-6-7t.323-9.33q2.465-4.416 6.534-6.583 21-8 42.827-11.5Q462.654 348 486 348q91.643 0 155.822 65.5Q706 479 706 569.794q0 26.227-2.5 46.216Q701 636 693 656q-2 6-7.5 8t-10.5-1ZM480 804q-94 0-161-66.782t-67-161.371Q252 542 262 508.5q10-33.5 31-63.5 1-2 4.269-3.5T303 440q3 0 6 2t4 4q52 94 128.5 169T611 741q3 2 4.375 4.339 1.375 2.34 1.625 5.661 0 3-1.167 5.375Q614.667 758.75 612 761q-30 21-63.254 32T480 804Zm-.035-603Q475 201 472 197.975T469 190v-57q0-4.95 3.035-7.975 3.035-3.025 8-3.025t7.965 3.025q3 3.025 3 7.975v57q0 4.95-3.035 7.975-3.035 3.025-8 3.025Zm0 829q-4.965 0-7.965-3.03-3-3.02-3-7.97v-57q0-4.95 3.035-7.975 3.035-3.025 8-3.025t7.965 3.025q3 3.025 3 7.975v57q0 4.95-3.035 7.97-3.035 3.03-8 3.03ZM743 312q-3-4-3-8.5t3-8.5l40-40q4-3 9-3.5t9 3.5q4 4 3.5 8.5T800 272l-40 40q-4 3-8.5 3t-8.5-3ZM160 896q-4-4-4-8.5t4-8.5l40-40q4-3 8.5-2.5t7.654 3.429q3.154 2.928 3.5 8Q220 853 217 856l-40 40q-4 4-8.5 4t-8.5-4Zm706-309q-4.95 0-7.975-3.035-3.025-3.035-3.025-8t3.025-7.965q3.025-3 7.975-3h57q4.95 0 7.975 3.035 3.025 3.035 3.025 8T930.975 584q-3.025 3-7.975 3h-57Zm-826 0q-4.95 0-7.975-3.035-3.025-3.035-3.025-8T32.025 568q3.025-3 7.975-3h57q4.95 0 7.975 3.035 3.025 3.035 3.025 8T104.975 584q-3.025 3-7.975 3H40Zm743 309-40-40q-4-4-2.5-8t3.5-8q4-2 8-3t8 2l40 40q3 3.364 2.5 8.182Q802 892 799 895t-7.913 3.5q-4.913.5-8.087-2.5ZM200 312l-40-40q-4-4-3-7.5t4-7.5q3-4 7.5-4.5t8.5 2.5l40 40q3 4 3 8.5t-3 8.5q-4 3-8.5 3t-8.5-3Z"/></svg>