<svg xmlns="http://www.w3.org/2000/svg" width="48" height="48" viewBox="0 0 48 48"><path d="M15.8 32.7h16.75l-5.05-6.75-5.15 6.35-3.25-3.8ZM13 21.35q3.2-.55 5.5-2.85t2.85-5.5h-1.2q-.55 2.75-2.475 4.675Q15.75 19.6 13 20.15Zm0-5.45q1.1-.3 1.9-1.075.8-.775 1.1-1.825h-3Zm-1.7 23.5q-1.15 0-1.925-.775Q8.6 37.85 8.6 36.7V11.3q0-1.15.775-1.925Q10.15 8.6 11.3 8.6h25.4q1.15 0 1.925.775.775.775.775 1.925v25.4q0 1.15-.775 1.925-.775.775-1.925.775Zm0-1.1h25.4q.6 0 1.1-.5.5-.5.5-1.1V11.3q0-.6-.5-1.1-.5-.5-1.1-.5H11.3q-.6 0-1.1.5-.5.5-.5 1.1v25.4q0 .6.5 1.1.5.5 1.1.5Zm-1.6 0V9.7v28.6Z"/></svg>