<svg xmlns="http://www.w3.org/2000/svg" width="48" height="48" viewBox="0 -960 960 960"><path d="m632-359 16-17-103-103q10-17 15.5-30.983T566-544.5q0-44.5-31-75.5t-76-31q-45 0-75.5 30.868T353-545q0 44.686 30.5 75.843Q414-438 459-438q22 0 36.5-6t33.14-17L632-359ZM459-463q-33.35 0-57.175-24.119Q378-511.237 378-545q0-33.35 23.951-57.175Q425.902-626 459.429-626 494-626 517.5-602.04t23.5 57.5Q541-511 516.881-487 492.763-463 459-463ZM186-268q-22.775 0-38.387-15.612Q132-299.225 132-322v-388q0-22.775 15.613-38.388Q163.225-764 186-764h588q22.775 0 38.388 15.612Q828-732.775 828-710v388q0 22.775-15.612 38.388Q796.775-268 774-268H186ZM80-200v-22h800v22H80Z"/></svg>