<svg xmlns="http://www.w3.org/2000/svg" width="48" height="48" viewBox="0 -960 960 960"><path d="M524-247 245-526q-17-17.435-17-40.718Q228-590 245-607l109-110q17-17 40.488-17T436-717l279 280q17 17 17 40.5T715-356L605-247q-17 18-40.541 18-23.541 0-40.459-18Zm18-14q9 9 23 9t23-9l112-113q9-9 9-23t-9-23L418-702q-9-9-23-9t-23 9L259-590q-9 9-9 23t9 23l283 283ZM479-52q-87.756 0-165.539-33.318-77.784-33.318-136.123-91.5Q119-235 85.5-313 52-391 52-479h22q0 85 33 160t89.5 130q56.5 55 132 86T490-74L334-229l16-16L538-58q-15.167 3-29.44 4.5Q494.287-52 479-52Zm407-427q0-86-32.5-161t-89-130q-56.5-55-132-86.5T471-886l155 155-16 16-187-187q13-3 27.5-4.5T479-908q89 0 167 33.5t136.5 92Q841-724 874.5-646T908-479h-22Zm-406-3Z"/></svg>