<svg xmlns="http://www.w3.org/2000/svg" width="48" height="48" viewBox="0 96 960 960"><path d="M524 809 245 530q-17-17.435-17-40.718Q228 466 245 449l109-110q17-17 40.488-17T436 339l279 280q17 17 17 40.5T715 700L605 809q-17 18-40.541 18-23.541 0-40.459-18Zm18-14q9 9 23 9t23-9l112-113q9-9 9-23t-9-23L418 354q-9-9-23-9t-23 9L259 466q-9 9-9 23t9 23l283 283Zm-63 209q-87.756 0-165.539-33.318-77.784-33.318-136.123-91.5Q119 821 85.5 743 52 665 52 577h22q0 85 33 160t89.5 130q56.5 55 132 86T490 982L334 827l16-16 188 187q-15.167 3-29.44 4.5-14.273 1.5-29.56 1.5Zm407-427q0-86-32.5-161t-89-130q-56.5-55-132-86.5T471 170l155 155-16 16-187-187q13-3 27.5-4.5T479 148q89 0 167 33.5t136.5 92Q841 332 874.5 410T908 577h-22Zm-406-3Z"/></svg>