<svg xmlns="http://www.w3.org/2000/svg" width="48" height="48" viewBox="0 -960 960 960"><path d="M364-390h22v-83q0-30 20.5-50.5T457-544h80v41l52-52-52-52v41h-80q-39.167 0-66.083 26.917Q364-512.167 364-473v83ZM91-200q-4.925 0-7.963-3.053-3.037-3.052-3.037-8Q80-216 83.037-219q3.038-3 7.963-3h778q4.925 0 7.963 3.053 3.037 3.052 3.037 8 0 4.947-3.037 7.947-3.038 3-7.963 3H91Zm95-68q-22.775 0-38.387-15.612Q132-299.225 132-322v-388q0-22.775 15.613-38.388Q163.225-764 186-764h588q22.775 0 38.388 15.612Q828-732.775 828-710v388q0 22.775-15.612 38.388Q796.775-268 774-268H186Z"/></svg>