<svg xmlns="http://www.w3.org/2000/svg" width="48" height="48"><path d="M7.35 44.7v-8.05q-1.75-.4-2.9-1.625T3.3 32.05v-18.7h4.05v-9.5q0-.25.15-.4.15-.15.4-.15t.4.15q.15.15.15.4v9.5h4.05v18.7q0 1.75-1.15 2.975t-2.9 1.625v8.05zm16.1 0v-8.05q-1.7-.4-2.875-1.625T19.4 32.05v-18.7h4.05v-9.5q0-.25.15-.4.15-.15.4-.15t.4.15q.15.15.15.4v9.5h4.05v18.7q0 1.75-1.15 2.975t-2.9 1.625v8.05zm16.1 0v-8.05q-1.7-.4-2.875-1.625T35.5 32.05v-18.7h4.05v-9.5q0-.25.15-.4.15-.15.4-.15t.4.15q.15.15.15.4v9.5h4.05v18.7q0 1.75-1.15 2.975t-2.9 1.625v8.05zM4.4 14.45v11h7v-11zm16.1 0v11h7v-11zm16.1 0v11h7v-11zM7.9 35.5q1.45 0 2.475-1.025Q11.4 33.45 11.4 32v-5.45h-7V32q0 1.45 1.025 2.475Q6.45 35.5 7.9 35.5zm16.1 0q1.45 0 2.475-1.025Q27.5 33.45 27.5 32v-5.45h-7V32q0 1.45 1.025 2.475Q22.55 35.5 24 35.5zm16.1 0q1.45 0 2.475-1.025Q43.6 33.45 43.6 32v-5.45h-7V32q0 1.45 1.025 2.475Q38.65 35.5 40.1 35.5zM7.9 26zM24 26zm16.1 0zm-35.7-.55h7-7zm16.1 0h7-7zm16.1 0h7-7zm-28.7 1.1H4.4h7-3.5zm16.1 0h-3.5 7H24zm16.1 0h-3.5 7-3.5z"/></svg>