<svg xmlns="http://www.w3.org/2000/svg" width="48" height="48" viewBox="0 96 960 960"><path d="M477.708 602Q467 602 459.5 594.456q-7.5-7.545-7.5-18.252 0-10.708 7.544-18.956Q467.089 549 477.796 549q10.708 0 18.956 8.292t8.248 19q0 10.708-8.292 18.208-8.292 7.5-19 7.5ZM478 884q-120 0-208-80.5T172 604h22q12 109 92.901 183.5T478 862q119.507 0 202.754-83.216Q764 695.569 764 576.106t-83.246-202.785Q597.507 290 478 290q-60.365 0-113.683 24Q311 338 269 380h94v22H229V267h22v100q45-46 104.216-72.5Q414.432 268 478 268q64.078 0 120.039 24T696 358q42 42 66 97.943t24 120Q786 640 762 696t-66 98q-42 42-97.961 66T478 884Z"/></svg>