<svg xmlns="http://www.w3.org/2000/svg" width="48" height="48" viewBox="0 96 960 960"><path d="M215.532 609q-15.865 0-27.699-11.833Q176 585.333 176 569V201q0-16.917 11.833-28.458Q199.667 161 215.532 161H744q16.917 0 28.458 11.542Q784 184.083 784 201v368q0 16.333-11.542 28.167Q760.917 609 744 609H215.532ZM234 356h217V219H258q-10 0-17 7t-7 17v113Zm275 0h217V243q0-10-7-17t-17-7H509v137Zm-58 195V414H234v113q0 10 7 17t17 7h193Zm58 0h193q10 0 17-7t7-17V414H509v137ZM277 956 132 811l145-145 41 41-74 75h548v58H244l74 75-41 41Z"/></svg>