<svg xmlns="http://www.w3.org/2000/svg" width="48" height="48" viewBox="0 -960 960 960"><path d="M480-494Zm-53 337q-95-48-155-145.5T212-518v-206l268-100 268 100v170q-4.65-.9-10.65-2.1-6-1.19-11.35-1.9v-151l-246-92-246 92v191q0 103 48.5 191.5T411-188q4 8 8 15.5t8 15.5Zm253 65q-79.33 0-133.67-54.26Q492-200.53 492-279.76q0-79.24 54.26-133.74 54.27-54.5 133.5-54.5Q758-468 813-413.67q55 54.34 55 133.67 0 14.45-2 27.22-2 12.78-6 24.78l.5.5.5.5-18-19q1-8 2-17t1-17q0-69-48.5-117.5T680-446q-69 0-117.5 48.5T514-280q0 69 48.5 117.5T680-114q8 0 17-1t17-3l19 20q-1 0-1.5-.5l-.5-.5q-12.29 3.2-24.65 5.1Q693.99-92 680-92Zm135-53q-4 4-8 3.5t-7-3.5l-96-95q-4.29 3-24 7-19.21 0-33.11-13.85-13.89-13.85-13.89-33T646.85-313q13.85-14 33-14T713-313.11q14 13.9 14 33.11 0 4.29-7 24l95 95q4 4 4 8.5t-4 7.5Z"/></svg>