<svg xmlns="http://www.w3.org/2000/svg" width="48" height="48" viewBox="0 -960 960 960"><path d="M520-132q-22.77 0-38.39-15.61Q466-163.23 466-186v-174q0-22.77 15.61-38.39Q497.23-414 520-414h294q22.78 0 38.39 15.61Q868-382.77 868-360v174q0 22.77-15.61 38.39Q836.78-132 814-132H520Zm0-22h294q14 0 23-9t9-23v-96H488v96q0 14 9 23t23 9Zm-32-150h358v-56q0-14-9-23t-23-9H520q-14 0-23 9t-9 23v56Zm-8-206Zm0-314 268 100v216h-22v-201l-246-92-246 92v191q0 89 37.5 167.5T372-220v26l1 1q-73-54-117-139.5T212-518v-206l268-100Z"/></svg>