<svg xmlns="http://www.w3.org/2000/svg" width="48" height="48" viewBox="0 96 960 960"><path d="M225 884q-9.578 0-18.289-6.5Q198 871 196 861l-94-329q-3-9 3.786-16.5Q112.571 508 124 508h198l150-226q1.667-2.667 4.167-3.833Q478.667 277 481 277t4.833 1.167q2.5 1.166 4.167 3.833l148 226h198q11.429 0 18.214 7.5Q861 523 858 532l-96 329q-3.6 10.737-13.18 16.868Q739.24 884 727 884H225Zm-9-22h528l92-332H124l92 332Zm264-144q9 0 15.5-6.5T502 696q0-9-6.5-15.5T480 674q-9 0-15.5 6.5T458 696q0 9 6.5 15.5T480 718ZM349 508h262L480 308 349 508ZM216 862h528-528Z"/></svg>