<svg xmlns="http://www.w3.org/2000/svg" width="48" height="48" viewBox="0 96 960 960"><path d="m480 455-15-15 94-93H349v-22h210l-93-93 14-15 119 119-119 119ZM298.788 930q-22.263 0-37.025-14.975Q247 900.05 247 877.788 247 857 261.975 842q14.975-15 37.237-15 22.263 0 37.025 15.212Q351 857.425 351 878.712 351 900 336.025 915q-14.975 15-37.237 15Zm369 0q-21.85 0-36.319-14.975Q617 900.05 617 877.788 617 857 631.668 842q14.668-15 36.5-15T705 842.212q15 15.213 15 36.5Q720 900 705.025 915q-14.975 15-37.237 15ZM99 224v-22h83l162 341h263.569q9 0 16-4.5t12-12.5L772 283h25L657 539q-8.458 12-20.788 20-12.331 8-26.006 8H326l-53 99q-8 12-1 26t23 14h425v22H297q-28.663 0-43.332-24Q239 680 252 656l65-116-149-316H99Z"/></svg>