<svg xmlns="http://www.w3.org/2000/svg" width="48" height="48" viewBox="0 -960 960 960"><path d="M391.411-603Q370-603 355.5-617.645 341-632.289 341-654.089 341-675 355.645-690q14.644-15 36.444-15Q413-705 428-689.911q15 15.088 15 36.5Q443-632 427.911-617.5q-15.088 14.5-36.5 14.5Zm288.564 494Q609-109 559-159.025q-50-50.024-50-121Q509-351 559.025-401q50.024-50 121-50Q751-451 801-400.975q50 50.024 50 121Q851-209 800.975-159q-50.024 50-121 50ZM747-193l20-20-73-72.594V-394h-28v120l81 81Zm-509 61q-22.75 0-38.375-15.625T184-186v-588q0-21.5 15.625-37.75T238-828h308q21.5 0 37.75 16.25T600-774v241q-5.903 1.75-11.469 4.018Q582.966-526.714 578-525v-249q0-14-9.5-23t-22.5-9H238q-14 0-23 9t-9 23v305q16-18 37.806-28.5Q265.613-508 292-508h238v11q-47 31-75.5 75.5T417-324h-14v-87h-22v80h-80v22h80v80h24v-78l6 3q-3 47 11 91.5t42 80.5H238Z"/></svg>