<svg xmlns="http://www.w3.org/2000/svg" width="48" height="48" viewBox="0 -960 960 960"><path d="M317.43-303q-10.43 0-17.93-7.07t-7.5-18q0-10.93 7.583-17.93 7.582-7 17.487-7 10.93 0 17.93 7.07t7 18q0 10.93-7.07 17.93t-17.5 7Zm162.5 0Q469-303 462-310.07t-7-18q0-10.93 7.07-17.93t18-7q10.93 0 17.93 7.07t7 18q0 10.93-7.07 17.93t-18 7Zm163 0Q632-303 625-310.07t-7-18q0-10.93 7.07-17.93t17.5-7q10.43 0 17.93 7.07t7.5 18q0 10.93-7.583 17.93-7.582 7-17.487 7ZM252-456v-22q0-91 64-157t153-72v-81h22v81q89 6 153 72t64 157v22H252Zm22-22h412q0-85-60.154-145.5-60.153-60.5-145.5-60.5Q395-684 334.5-623.745T274-478Zm43.43 298q-10.43 0-17.93-7.07t-7.5-18q0-10.93 7.583-17.93 7.582-7 17.487-7 10.93 0 17.93 7.07t7 18q0 10.93-7.07 17.93t-17.5 7Zm162.5 0Q469-180 462-187.07t-7-18q0-10.93 7.07-17.93t18-7q10.93 0 17.93 7.07t7 18q0 10.93-7.07 17.93t-18 7Zm163 0Q632-180 625-187.07t-7-18q0-10.93 7.07-17.93t17.5-7q10.43 0 17.93 7.07t7.5 18q0 10.93-7.583 17.93-7.582 7-17.487 7ZM480-478Z"/></svg>