<svg xmlns="http://www.w3.org/2000/svg" width="48" height="48" viewBox="0 -960 960 960"><path d="m458-92-326-30q-4 0-7-3.5t-3-8.5q1-4 4.5-7t7.5-3l128 11 33-116-196-39q-4 0-7-4t-2-8q1-5 5-7.5t8-2.5l199 39 31-109-230-63q-5-1-7-5t0-9q1-4 4.5-6t7.5-1l231 62 30-107-151-78q-4-1-5.5-5.5t1.5-9.5q2-3 6-4.5t9 .5l258 134 4-108q1-6 4-13t8-11q5-4 11-4t12 2h5l104 193q7 13 7.5 28t-3.5 29l-49 173q-12 43-49.5 69.5T458-92Zm257-279q0-6 .5-13t.5-13L587-637l81-38-74-177q-2-4 0-8t6-6q4-2 8-.5t6 5.5l112 269 74-81q5-6 11.5-9t13.5-3q8 1 15.5 4.5T852-671l2 4-52 214q-4 15-12.5 26.5T769-407l-54 36ZM507-682l-94-135q-2-3-1-7t5-7q3-3 7.5-2.5t6.5 4.5l104 149q-7-1-14-1.5t-14-.5Zm-87 92-34-18-77-91q-3-4-2-8t5-7q3-3 7-2.5t7 3.5l93 111v6q0 3 1 6Z"/></svg>