<svg xmlns="http://www.w3.org/2000/svg" width="48" height="48" viewBox="0 -960 960 960"><path d="M577.5-142.7Q531-189.39 531-256.23q0-67.66 46.47-114.21 46.46-46.56 114-46.56 67.53 0 114.03 46.56Q852-323.89 852-256.23q0 66.84-46.47 113.53-46.46 46.7-114 46.7Q624-96 577.5-142.7Zm129.89-2.08q6.61-5.78 6.61-15 0-9.22-6.39-15.22t-15-6q-8.61 0-14.61 5.78t-6 15q0 9.22 5.78 15.22t14.39 6q8.61 0 15.22-5.78ZM678-211h29v-5.95q0-13.05 6.5-20.05t14.5-15.4q14-12.6 22.5-25.6 8.5-13 8.5-30.59 0-29.13-18.13-46.77Q722.75-373 692.76-373q-21.76 0-41.26 13.5Q632-346 624-323.76L652-313q3.73-13.2 15.36-22.1Q679-344 693.23-344q17.25 0 27.01 9.25Q730-325.5 730-309q0 12-7.5 20T707-273q-6 6-12.14 13.7-6.14 7.7-10.86 13.3-3 5-4.5 11.3-1.5 6.3-1.5 13.7v10Zm-492 39q-21.75 0-37.87-16.13Q132-204.25 132-226v-63q0-21.75 16.13-37.88Q164.25-343 186-343h58v-211q0-97 69.08-165.5T480-788q97.84 0 166.92 68.5Q716-651 716-554v43q-6.24 1.33-12.52.67Q697.2-511 692-511q-107.27 0-181.64 74.48Q436-362.05 436-256q0 20.65 3.5 41.83Q443-193 450-172H186Zm171-271h22v-111q0-40.78 29.36-70.39Q437.71-654 480-654v-22q-51 0-87 35.74-36 35.73-36 86.26v111Z"/></svg>