<svg xmlns="http://www.w3.org/2000/svg" width="48" height="48" viewBox="0 -960 960 960"><path d="M208-417q-27 0-45.5-18.708Q144-454.417 144-481q0-26.583 18.708-45.292Q181.417-545 208-545v-113q0-21.525 16.238-37.763Q240.475-712 262-712h154q0-27 18.708-45.5Q453.417-776 480-776q26.583 0 45.292 18.708Q544-738.583 544-712h154q21.525 0 37.763 16.237Q752-679.525 752-658v113q27 0 45.5 18.708Q816-507.583 816-481q0 26.583-18.708 45.292Q778.583-417 752-417v191q0 21.525-16.237 37.762Q719.525-172 698-172H262q-21.525 0-37.762-16.238Q208-204.475 208-226v-191Zm147.235-60Q367-477 375-485.235q8-8.236 8-20Q383-517 374.765-525q-8.236-8-20-8Q343-533 335-524.765q-8 8.236-8 20Q327-493 335.235-485q8.236 8 20 8Zm250 0Q617-477 625-485.235q8-8.236 8-20Q633-517 624.765-525q-8.236-8-20-8Q593-533 585-524.765q-8 8.236-8 20Q577-493 585.235-485q8.236 8 20 8ZM344-308h272v-22H344v22Zm-82 114h436q13 0 22.5-9t9.5-23v-432q0-13-9.5-22.5T698-690H262q-13 0-22.5 9.5T230-658v432q0 14 9.5 23t22.5 9Zm218-248Z"/></svg>