<svg xmlns="http://www.w3.org/2000/svg" width="48" height="48" viewBox="0 -960 960 960"><path d="M441-453h190q17 0 28.5-11.5T671-493q0-17-11.5-29T631-534h-31l-5-28q-2.045-24.427-21.759-41.713Q553.527-621 528.232-621 507-621 490.5-610.5T466-581l-8 18-22 1q-21 1-36 16.209-15 15.208-15 37.5Q385-486 401.5-469.5 418-453 441-453ZM146-184q-22.775 0-38.387-15.613Q92-215.225 92-238v-383h22v383q0 12 10 22t22 10h613v22H146Zm96-96q-22.775 0-38.387-15.612Q188-311.225 188-334v-440q0-22.775 15.613-38.388Q219.225-828 242-828h238l34 34h300q22.775 0 38.388 15.612Q868-762.775 868-740v406q0 22.775-15.612 38.388Q836.775-280 814-280H242Z"/></svg>