<svg xmlns="http://www.w3.org/2000/svg" width="48" height="48" viewBox="0 0 48 48"><path d="M41.35 43.4 28.1 30.15H6.85v-2.5H25.6L5.8 7.85 6.6 7l35.55 35.6ZM35.8 30.15l.45.45v-2.95h1.25v2.5Zm3.8 0v-2.5h1.25v2.5Zm-5.4-.8-1.7-1.7h1.7Zm2.05-4.8V21.9q0-1.75-1.175-3t-2.825-1.25h-3.2q-2.1 0-3.55-1.575-1.45-1.575-1.45-3.775 0-2 1.45-3.4t3.55-1.4v1.25q-1.6 0-2.675 1-1.075 1-1.075 2.55 0 1.55 1.075 2.825Q27.45 16.4 29.05 16.4h3.2q2.2 0 3.725 1.65t1.525 3.9v2.6Zm3.35 0V19.9q0-3.4-2.375-5.4-2.375-2-5.875-2v-1.25q1.6 0 2.625-1.075T35 7.5h1.25q0 1.5-.625 2.525T34.05 11.55q2.6.6 4.7 2.725t2.1 5.625v4.65Z"/></svg>