<svg xmlns="http://www.w3.org/2000/svg" width="48" height="48" viewBox="0 -960 960 960"><path d="M335.5-541.5Q344-550 344-561t-8.5-19.5q-8.5-8.5-20-8.5t-19.5 8.5q-8 8.5-8 19.5t8 19.5q8 8.5 19.5 8.5t20-8.5Zm165 0Q509-550 509-561t-8.5-19.5Q492-589 481-589t-19.5 8.5Q453-572 453-561t8.5 19.5Q470-533 481-533t19.5-8.5Zm163 0Q672-550 672-561t-8.5-19.5Q655-589 644-589t-19.5 8.5Q616-572 616-561t8.5 19.5Q633-533 644-533t19.5-8.5ZM132-180v-594q0-22.78 15.61-38.39Q163.23-828 186-828h588q22.78 0 38.39 15.61T828-774v428q0 22.77-15.61 38.39Q796.78-292 774-292H244L132-180Zm102-134h540q12 0 22-10t10-22v-428q0-12-10-22t-22-10H186q-12 0-22 10t-10 22v542l80-82Zm-80 0v-492 492Z"/></svg>