<svg xmlns="http://www.w3.org/2000/svg" width="48" height="48" viewBox="0 96 960 960"><path d="m143 922 59-295h555l59 295H143Zm13-672v-22h105v22H156Zm15 650h298V787H194l-23 113Zm65-440-16-15 74-74 16 15-74 74Zm-38 305h271V649H221l-23 116Zm282-394q-60 0-101.5-42T336 227h22q1 50.833 36.618 86.417Q430.235 349 480.118 349 530 349 565.5 313.417 601 277.833 602 227h22q-1 60-42.5 102T480 371Zm0-144Zm-11 319V441h22v105h-22Zm22 354h297l-23-113H491v113Zm0-135h270l-23-116H491v116Zm235-304-75-75 15-15 76 74-16 16Zm-27-211v-22h105v22H699Z"/></svg>