<svg xmlns="http://www.w3.org/2000/svg" width="48" height="48" viewBox="0 -960 960 960"><path d="m143-134 59-295h555l59 295H143Zm13-672v-22h105v22H156Zm15 650h298v-113H194l-23 113Zm65-440-16-15 74-74 16 15-74 74Zm-38 305h271v-116H221l-23 116Zm282-394q-60 0-101.5-42T336-829h22q1 50.833 36.618 86.417Q430.235-707 480.118-707 530-707 565.5-742.583 601-778.167 602-829h22q-1 60-42.5 102T480-685Zm0-144Zm-11 319v-105h22v105h-22Zm22 354h297l-23-113H491v113Zm0-135h270l-23-116H491v116Zm235-304-75-75 15-15 76 74-16 16Zm-27-211v-22h105v22H699Z"/></svg>