<svg xmlns="http://www.w3.org/2000/svg" width="48" height="48" viewBox="0 -960 960 960"><path d="M891-579q-65 0-124-24.5t-104.5-70Q617-719 592.5-778T568-902h23q0 60 23 115t65 97q42 42 97 65t115 23v23Zm0-193q-26 0-50-10t-41.5-28q-17.5-18-28-42T761-902h24q0 21 7.5 41t22.5 35q15 15 35 23t41 8v23ZM405-492q-45 0-75-30t-30-75.5q0-45.5 30-75t75-29.5q45 0 75 29.5t30 75q0 45.5-30 75.5t-75 30ZM137-212v-47q0-27 13.5-43.5T188-331q48-23 108-37t109-14q49 0 108.5 14T622-331q24 12 37.5 28.5T673-259v47H137Z"/></svg>