<svg xmlns="http://www.w3.org/2000/svg" width="48" height="48" viewBox="0 -960 960 960"><path d="M654-132H306q-21.5 0-37.75-16.25T252-186v-588q0-21.5 16.25-37.75T306-828h348q21.5 0 37.75 16.25T708-774v588q0 21.5-16.25 37.75T654-132Zm0-22q14 0 23-9t9-23v-588q0-14-9-23t-23-9H306q-14 0-23 9t-9 23v588q0 14 9 23t23 9h348ZM480.677-621Q505-621 522-638.677t17-41.5Q539-704 521.942-721.5T479.823-739Q456-739 439-721.323t-17 41.5Q422-656 439.177-638.5t41.5 17.5ZM480-227q56 0 94.5-38.5T613-360q0-56-38.5-94.5T480-493q-56 0-94.5 38.5T347-360q0 56 38.5 94.5T480-227Zm-.15-22q-45.85 0-78.35-32.65-32.5-32.651-32.5-78.5 0-45.85 32.65-78.35 32.651-32.5 78.5-32.5 45.85 0 78.35 32.65 32.5 32.651 32.5 78.5 0 45.85-32.65 78.35-32.651 32.5-78.5 32.5ZM274-806v652-652Z"/></svg>