<svg xmlns="http://www.w3.org/2000/svg" width="48" height="48" viewBox="0 -960 960 960"><path d="M362-188q-23 0-38.5-15.5T308-242v-572q0-23 15.5-38.5T362-868h372q23 0 38.5 15.5T788-814v572q0 23-15.5 38.5T734-188H362Zm186-474q23.75 0 39.875-16T604-718q0-23.917-16.125-39.958Q571.75-774 548-774q-23.917 0-39.958 16.042Q492-741.917 492-718q0 24 16.042 40 16.041 16 39.958 16Zm0 356q48.171 0 81.086-33Q662-372 662-420t-32.914-81Q596.171-534 548-534q-46.829 0-80.414 33Q434-468 434-420t33.586 81q33.585 33 80.414 33Zm-.471-22Q510-328 483-354.765q-27-26.764-27-65Q456-458 483-485t64.529-27q38.53 0 65.5 26.765 26.971 26.764 26.971 65Q640-382 613.029-355q-26.97 27-65.5 27ZM552-92H266q-23 0-38.5-15.5T212-146v-574h22v574q0 14 9 23t23 9h286v22Z"/></svg>