<svg xmlns="http://www.w3.org/2000/svg" width="48" height="48" viewBox="0 -960 960 960"><path d="M200-212q-7.2 0-13.1-4.5Q181-221 178-227q-23-39-34.5-83T132-400q0-72.21 27.4-135.72 27.41-63.51 74.55-110.67 47.14-47.17 110.23-74.39T479-748q14.92 0 28.83 1.41 13.92 1.41 28.17 4.59l-13 20q-12.21-2.33-22.17-3.17-9.97-.83-21.83-.83-135 0-230 95.14T154-400q0 44 11.5 86t33.5 80h562q23-38 34-80t11-86q0-68.23-26.5-129.61Q753-591 702-637l8-24q57 49 87.5 117T828-400q0 47-12 92t-33 85q-4 6-10.28 8.5-6.28 2.5-12.72 2.5H200Zm250-131q23 12 46.97 2.95 23.96-9.05 30.06-34.19Q552-460 577-544.5 602-629 629-715q-49 75-98.5 148.5T429.03-419.48Q416-400 422.5-377q6.5 23 27.5 34Zm25-48Z"/></svg>