<svg xmlns="http://www.w3.org/2000/svg" width="48" height="48" viewBox="0 -960 960 960"><path d="M480-578q-42.55 0-73.775-31.225Q375-640.45 375-683q0-42.55 31.225-73.775Q437.45-788 480-788q42.55 0 73.775 31.225Q585-725.55 585-683q0 42.55-31.225 73.775Q522.55-578 480-578ZM277-172q-42.55 0-73.775-31.225Q172-234.45 172-277q0-42.55 31.225-73.775Q234.45-382 277-382q42.55 0 73.775 31.225Q382-319.55 382-277q0 42.55-31.225 73.775Q319.55-172 277-172Zm406 0q-42.55 0-73.775-31.225Q578-234.45 578-277q0-42.55 31.225-73.775Q640.45-382 683-382q42.55 0 73.775 31.225Q788-319.55 788-277q0 42.55-31.225 73.775Q725.55-172 683-172Z"/></svg>