<svg xmlns="http://www.w3.org/2000/svg" width="48" height="48" viewBox="0 -960 960 960"><path d="M480.174-132Q408-132 344.442-159.391q-63.559-27.392-110.575-74.348-47.015-46.957-74.441-110.435Q132-407.652 132-479.826q0-72.174 27.391-135.732 27.392-63.559 74.348-110.574 46.957-47.016 110.435-74.442Q407.652-828 479.826-828q72.174 0 135.732 27.391 63.559 27.392 110.574 74.348 47.016 46.957 74.442 110.435Q828-552.348 828-480.174q0 72.174-27.391 135.732-27.392 63.559-74.348 110.575-46.957 47.015-110.435 74.441Q552.348-132 480.174-132ZM363-175l80-184q-29.175-10.385-50.587-31.192Q371-411 361-441l-188 76q27 67 76 116t114 74Zm-2-344q7-30 29-50t51-30l-76-188q-69 27-118 76.5T173-595l188 76Zm118.765 143Q523-376 553.5-406.265q30.5-30.264 30.5-73.5Q584-523 553.735-553.5q-30.264-30.5-73.5-30.5Q437-584 406.5-553.735q-30.5 30.264-30.5 73.5Q376-437 406.265-406.5q30.264 30.5 73.5 30.5ZM598-175q64-26 112.5-74.5T785-363l-184-80q-9 30-30.5 51T520-361l78 186Zm1-346 186-77q-26-64-74.5-112.5T598-785l-77 186q26 11 46.5 30.5T599-521Z"/></svg>