<svg xmlns="http://www.w3.org/2000/svg" width="48" height="48" viewBox="0 0 48 48"><path d="m22.85 28.7-3.8-3.8 13.4-13.4q.4-.4.95-.4.55 0 .95.4l1.9 1.9q.4.4.4.95 0 .55-.4.95Zm0-1.55 12.8-12.8-2.25-2.25-12.8 12.8Zm3.95 10.2 1.1-1.1h16.45v1.1Zm-15 .05q-1.1 0-2.15-.25-1.05-.25-2.05-.8l9.3-9.3 3.35 3.35q.35.35.575.775.225.425.225.925t-.2.95q-.2.45-.55.8l-.95 1q-1.25 1.3-2.925 1.925Q14.75 37.4 13 37.4Zm0-1.1H13q1.55 0 3-.6t2.55-1.7l1-.95q.35-.4.3-.95-.05-.55-.45-1l-2.5-2.45-7.3 7.25q.4.2 1.025.3.625.1 1.175.1Zm23.85-21.95L33.4 12.1l2.25 2.25ZM16.9 28.65Z"/></svg>