<svg xmlns="http://www.w3.org/2000/svg" width="48" height="48" viewBox="0 96 960 960"><path d="M480.647 658Q514 658 538 633.958q24-24.041 24-57.958 0-33.5-23.853-57.25t-57.5-23.75Q447 495 423.5 518.853t-23.5 57.5Q400 610 423.647 634t57 24ZM681 735q25.317-32.273 39.159-72.637Q734 622 734 575.731q0-45.27-14-86.5Q706 448 681 416l-16 16q22 30 34.5 66.754Q712 535.509 712 575.5q0 40.991-12.5 77.246Q687 689 665 719l16 16Zm-400 0 16-16q-22-30-35-66.254-13-36.255-13-77.246 0-39.991 13-76.746Q275 462 297 432l-16-16q-25 32-39.5 73.231-14.5 41.23-14.5 86.5 0 46.269 14.341 86.632Q255.683 702.727 281 735Zm-95 109q-22.775 0-38.387-15.612Q132 812.775 132 790V362q0-22.775 15.613-38.388Q163.225 308 186 308h588q22.775 0 38.388 15.612Q828 339.225 828 362v428q0 22.775-15.612 38.388Q796.775 844 774 844H186Z"/></svg>