<svg xmlns="http://www.w3.org/2000/svg" width="48" height="48"><path d="m8.9 28.6-5.85-5.8.85-.85 4.35 4.35q-.25-1.45-.375-3.375T7.75 18.9q0-3.9 1.2-7.275 1.2-3.375 3.3-6.425l.9.95q-1.9 2.65-3.025 5.925T9 18.9q0 2.05.1 4 .1 1.95.4 3.45l4.4-4.4.85.85zm21.55 12.65L19.3 37l.55-1.45q.1-.25.275-.4.175-.15.425-.25l7.05-1.6-7.95-17.8q-.4-.95-.05-1.85.35-.9 1.3-1.3.95-.4 1.85-.075.9.325 1.3 1.275l4.3 9.7 1.95-.9q.2-.1.375-.1H31l6.8.3q1.65.1 2.825 1.275Q41.8 25 42.2 26.6l2 7.85q.1.5-.125.925-.225.425-.725.675l-11.7 5.2q-.25.1-.575.1-.325 0-.625-.1zm.65-1 12.05-5.35-2.1-8.3q-.25-1.05-1.025-1.975Q39.25 23.7 38 23.65l-7.2-.3-3 1.35L23 14q-.25-.55-.7-.75-.45-.2-.95.05-.55.25-.725.75-.175.5.075 1l8.4 19.05-8.2 1.8-.15.5zm0 0z"/></svg>