<svg xmlns="http://www.w3.org/2000/svg" width="48" height="48" viewBox="0 96 960 960"><path d="M96 357q29-78 128.5-141.5T474 152q103 0 195 43.5T833 311V193h25v165H693v-25h125q-65-72-157.5-114T474 177q-143 0-232 59T124 357H96Zm325.939 607q-5.939 0-11.721-2.5t-10.269-7.45L226 782l22-22q4-4 8.5-6.5t9.5-.5l146 33V396q0-20 14-34t34-14q20 0 34 14t14 34v212h42q4 0 7.5 1t6.5 3l122 54q30 13 42 44.824 12 31.825 6 65.176l-29.119 165.882Q704 952 695.696 958q-8.304 6-18.696 6H421.939ZM420 942h262l30-175q4-21-2-44.5T680 689l-128-59h-66V396q0-11.7-7.207-18.85-7.207-7.15-19-7.15T441 377.15q-7 7.15-7 18.85v416l-169-37-7 7 162 160Zm0 0h259-259Z"/></svg>