<svg xmlns="http://www.w3.org/2000/svg" width="48" height="48" viewBox="0 96 960 960"><path d="M66 910V376q0-37.917 26.559-64.458Q119.118 285 157.059 285t64.441 26.542Q248 338.083 248 376v75l232-201 232 201v-75q0-37.917 26.559-64.458Q765.118 285 803.059 285t64.441 26.542Q894 338.083 894 376v534H549V736q0-29.25-19.825-49.125-19.824-19.875-49-19.875Q451 667 431 686.875 411 706.75 411 736v174H66Zm668-465h138v-68.825Q872 347 852.175 327q-19.824-20-49-20Q774 307 754 326.875 734 346.75 734 376v69Zm-646 0h138v-68.825Q226 347 206.175 327q-19.824-20-49-20Q128 307 108 326.875 88 346.75 88 376v69Zm0 443h138V467H88v421Zm160 0h141V736q0-37.917 26.559-64.458Q442.118 645 480.059 645t64.441 26.542Q571 698.083 571 736v152h141V480L480 279 248 480v408Zm486 0h138V467H734v421ZM479.529 534q-15.882 0-26.705-11.118-10.824-11.117-10.824-27Q442 480 453.118 468.5q11.117-11.5 27-11.5Q496 457 507.5 468.794q11.5 11.794 11.5 27.677 0 15.882-11.794 26.706Q495.412 534 479.529 534Z"/></svg>