<svg xmlns="http://www.w3.org/2000/svg" width="48" height="48" viewBox="0 -960 960 960"><path d="M186-212q-22.775 0-38.387-15.613Q132-243.225 132-266v-2h22v2q0 12 10 22t22 10h10v22h-10Zm-54-118v-67h22v67h-22Zm0-129v-67h22v67h-22Zm0-129v-106q0-22.775 15.613-38.388Q163.225-748 186-748h106v22H186q-15 0-23.5 8.5T154-694v106h-22Zm126 376v-22h75v22h-75Zm103-514v-22h75v22h-75Zm34 514v-22h75v22h-75Zm103-354v-182h276q22.775 0 38.388 15.612Q828-716.775 828-694v128H498Zm34 354v-22h75v22h-75Zm137 0v-22h105q15 0 23.5-8.5T806-266v-106h22v106q0 22.775-15.612 38.387Q796.775-212 774-212H669Zm137-225v-67h22v67h-22Z"/></svg>