<svg xmlns="http://www.w3.org/2000/svg" width="48" height="48" viewBox="0 -960 960 960"><path d="M480.174-132Q408-132 344.442-159.391q-63.559-27.392-110.575-74.348-47.015-46.957-74.441-110.435Q132-407.652 132-479.826q0-72.174 27.391-135.732 27.392-63.559 74.348-110.574 46.957-47.016 110.435-74.442Q407.652-828 479.826-828q72.174 0 135.732 27.391 63.559 27.392 110.574 74.348 47.016 46.957 74.442 110.435Q828-552.348 828-480.174q0 72.174-27.391 135.732-27.392 63.559-74.348 110.575-46.957 47.015-110.435 74.441Q552.348-132 480.174-132ZM469-154v-652q-131 16-223 106.5T154-480q0 129 92 219.5T469-154Zm22 0q52-1 101-17.5t88-50.5H491v68Zm0-90h215q23-22 41.5-47.5T778-346H491v102Zm0-124h295q10-24 14-49.5t6-51.5H491v101Zm0-123h315q-2-26-6-51.5T786-592H491v101Zm0-123h287q-12-29-30.5-54.5T706-716H491v102Zm0-124h189q-39-34-88-50.5T491-806v68Z"/></svg>