<svg xmlns="http://www.w3.org/2000/svg" width="48" height="48" viewBox="0 96 960 960"><path d="m775 882 18-18q9-9 9-22.5t-9-22.5L519 544q13.475-22.148 20.237-45.863Q546 474.422 546 448q0-76.715-53.25-130.858Q439.5 263 362 263q-15 0-30.5 2t-28.5 6l122 121-122 121-120-120q-4 12-6 26.5t-2 28.5q0 77.514 54.042 131.757Q283.083 634 360 634q25.571 0 50.299-6.263Q435.027 621.475 456 608l274 274q9 10 22 10t23-10Zm-60 17L451 634q-21.236 11.368-43.658 16.684Q384.92 656 361.111 656 274 656 213.5 595.5 153 535 153 448q0-21 6.5-49.5T176 355l127 126 91-89-128-128q14-8 40.5-15.5T360 241q87 0 147.5 60T568 448q0 24.574-5.5 48.137T547 541l263 263q16.25 16.122 16.625 37.644Q827 863.167 811 880l-18 19q-16.378 16.24-39.211 16.12Q730.956 915 715 899ZM364 452Z"/></svg>