<svg xmlns="http://www.w3.org/2000/svg" width="48" height="48" viewBox="0 -960 960 960"><path d="M212-280v-364q0-65 66.5-84.5T467-749l30-62H284v-25h392v25H523l-30 62.19q113 .81 184 20.727T748-644v364q0 45-31.5 76.5T640-172l60 60v20h-17l-80-80H357l-80 80h-17v-20l60-60q-45 0-76.5-31.5T212-280Zm269.412 19q15.941 0 26.764-11.735Q519-284.471 519-300.412q0-15.941-11.059-26.764-11.059-10.824-27-10.824T453.5-326.941q-11.5 11.059-11.5 27t11.735 27.441q11.736 11.5 27.677 11.5ZM234-426h492v-207H234v207Z"/></svg>