<svg xmlns="http://www.w3.org/2000/svg" width="48" height="48" viewBox="0 -960 960 960"><path d="M194-806v275-4 381-652 144-144Zm112 374h133.11q4.89-6 9.89-11.5 5-5.5 10-10.5H306v22Zm0 163h92q-1-5-1.5-11t-.5-11h-90v22Zm-80 137q-22.77 0-38.39-15.61Q172-163.23 172-186v-588q0-22.78 15.61-38.39Q203.23-828 226-828h326l156 156v149q-5-2-10.5-4t-11.5-4v-131H541v-144H226q-12 0-22 10t-10 22v588q0 12 10 22t22 10h214q4 6 9.5 11.5L460-132H226Zm514.5-266.5Q783-356 783-294.5t-42.5 104Q698-148 636.5-148t-104-42.5Q490-233 490-294.5t42.5-104Q575-441 636.5-441t104 42.5Zm-89 211.39q5.5-6.11 5.5-15T651.39-217q-5.61-6-14.5-6T622-216.89q-6 6.11-6 15t6.11 14.89q6.11 6 15 6t14.39-6.11ZM622-253h29v-5.95q0-13.05 6.5-20.55T672-295q14-12 22.5-25t8.5-32q0-27.91-18.13-45.95Q666.75-416 636.76-416q-21.76 0-41.26 14-19.5 14-27.5 36.49l28 9.51q3.73-13.2 15.36-22.1Q623-387 637.23-387q17.25 0 27.01 9.25Q674-368.5 674-352q0 11.68-7.7 20.46-7.7 8.78-15.3 16.54-6 6-12 13t-11 14q-3 4-4.5 10.8-1.5 6.8-1.5 13.2v11Z"/></svg>