<svg xmlns="http://www.w3.org/2000/svg" width="48" height="48" viewBox="0 96 960 960"><path d="M856 984 710 838q-47 41-105 63.5T480 924q-72.21 0-135.72-26.905-63.51-26.905-110.99-74.385-47.48-47.48-74.385-110.99Q132 648.21 132 576q0-67 22.5-125T218 346L90 218l16-16 766 766-16 16Zm-376-82q62 0 116.5-21t98.5-58L508 636l-87 87-132-132 16-17 116 116 71-71-259-258q-37 44-58 98.5T154 576q0 136 95 231t231 95Zm293-137-16-16q23-38 36-81.321 13-43.322 13-91.679 0-136-95-231t-231-95q-48 0-91.5 13T307 299l-16-16q40.145-25.8 88.064-40.4Q426.982 228 480 228q72.21 0 135.72 26.905 63.51 26.905 110.99 74.385 47.48 47.48 74.385 110.99Q828 503.79 828 576q0 53.018-14.6 100.936Q798.8 724.855 773 765ZM576 569l-17-17 93-94 17 17-93 94Zm-44-45Zm-68 68Z"/></svg>