<svg xmlns="http://www.w3.org/2000/svg" width="48" height="48"><path d="m7.2 7.2 33.6 33.6-.75.8-8.25-8.2H9.3q-1.15 0-1.925-.775Q6.6 31.85 6.6 30.7V17.3q0-1.25.925-2.075.925-.825 2.225-.725h3.2L6.4 7.95zm12.6 7.4h18.9q1.15 0 1.925.775.775.775.775 1.925v13.4q0 1.1-.75 1.875-.75.775-1.85.825h-.2zm-3.75 4.45v4.4H11.7v1.1h4.35v4.35h1.1v-4.35h4.4v-1.4l.05.05h-4.2V19l.05.05zm18.7.3q-.6 0-1.05.425-.45.425-.45 1.025 0 .65.45 1.075.45.425 1.05.425.6 0 1.025-.425.425-.425.425-1.075 0-.6-.425-1.025-.425-.425-1.025-.425z"/></svg>