<svg xmlns="http://www.w3.org/2000/svg" width="48" height="48" viewBox="0 -960 960 960"><path d="M186-292q-23 0-38.5-15.5T132-346.363V-614q0-23 15.5-38.5T185-668h107l287 287h-31L128-801l16-15 672 672-15 16-165-164H186Zm210-376h378q23 0 38.5 15.5t15.5 38.863V-346q0 25-16.5 39T772-292L396-668Zm299.118 95Q683-573 674-564.618q-9 8.383-9 20.5 0 13.118 8.882 21.618 8.883 8.5 21 8.5 12.118 0 20.618-8.382 8.5-8.383 8.5-21.5 0-12.118-8.382-20.618-8.383-8.5-20.5-8.5ZM308-381h22v-87h87v-22h-87v-87h-22v87h-87v22h87v87Z"/></svg>