<svg xmlns="http://www.w3.org/2000/svg" width="48" height="48" viewBox="0 0 48 48"><path d="M14.95 30.25h12.6v-.1q0-1.45-1.775-2.375t-4.525-.925q-2.75 0-4.525.925-1.775.925-1.775 2.375Zm6.3-7.25q1.15 0 1.925-.775.775-.775.775-1.925t-.775-1.925Q22.4 17.6 21.25 17.6t-1.925.775q-.775.775-.775 1.925t.775 1.925Q20.1 23 21.25 23Zm-10.7 14.4q-1.15 0-1.925-.775-.775-.775-.775-1.925V13.3q0-1.15.775-1.925.775-.775 1.925-.775h21.4q1.15 0 1.925.775.775.775.775 1.925v9.9l5.5-5.5v12.55l-5.5-5.5v9.95q0 1.15-.775 1.925-.775.775-1.925.775Z"/></svg>