<svg xmlns="http://www.w3.org/2000/svg" width="48" height="48"><path d="m40.3 30.25-5.5-5.5v5.2l-1.1-1.1V13.3q0-.7-.45-1.15-.45-.45-1.15-.45H16.55l-1.1-1.1H32.1q1.15 0 1.925.775.775.775.775 1.925v9.9l5.5-5.5zM38.5 40.5 6.1 8.1l.8-.8 32.4 32.4zM25.25 20.35zM21.7 23.6zM10.3 10.7l1 1h-.6q-.7 0-1.15.45-.45.45-.45 1.15v21.4q0 .7.45 1.15.45.45 1.15.45h21.4q.7 0 1.15-.45.45-.45.45-1.15v-.6l1 1v.3q-.25.85-.95 1.425-.7.575-1.65.575H10.7q-1.15 0-1.925-.775Q8 35.85 8 34.7V13.3q0-.95.55-1.65T10 10.7z"/></svg>