<svg xmlns="http://www.w3.org/2000/svg" width="48" height="48" viewBox="0 -960 960 960"><path d="M186-292q-23 0-38.5-15.5T132-346.33v-267.34q0-23.33 15.5-38.83T186-668h588q23 0 38.5 15.5t15.5 38.83v267.34q0 23.33-15.5 38.83T774-292H186Zm123-90h22v-87h87v-22h-87v-87h-22v87h-87v22h87v87Zm295.5-13.38q8.5-8.38 8.5-21t-8.38-21.12q-8.38-8.5-20.5-8.5T563-437.62q-9 8.38-9 21t8.88 21.12q8.88 8.5 21 8.5t20.62-8.38Zm111-127q8.5-8.38 8.5-21t-8.38-21.12q-8.38-8.5-20.5-8.5T674-564.62q-9 8.38-9 21t8.88 21.12q8.88 8.5 21 8.5t20.62-8.38Z"/></svg>