<svg xmlns="http://www.w3.org/2000/svg" width="48" height="48"><path d="m22.6 38.2-10-5.85q-.6-.4-.95-.975T11.3 30V18.3q0-.7.35-1.325t.95-1.025l10.05-5.85q.65-.4 1.35-.4.7 0 1.35.4l10.05 5.85q.6.4.95 1.025.35.625.35 1.325V30q0 .8-.325 1.375t-1.025.975L25.3 38.2q-.7.4-1.375.4t-1.325-.4zm.85-.8v-13L12.4 18.15V30q0 .4.2.75t.6.6zm1.1 0 10.25-6.05q.4-.25.6-.6.2-.35.2-.75V18.15L24.55 24.4zM4.6 11.85V8.9q0-1.8 1.25-3.05Q7.1 4.6 8.9 4.6h2.95v1.1H8.9q-1.35 0-2.275.925Q5.7 7.55 5.7 8.9v2.95zM8.9 43.4q-1.8 0-3.05-1.25Q4.6 40.9 4.6 39.1v-2.95h1.1v2.95q0 1.35.925 2.275.925.925 2.275.925h2.95v1.1zm27.25-.55v-1.1h2.95q1.35 0 2.275-.925.925-.925.925-2.275V35.6h1.1v2.95q0 1.8-1.25 3.05-1.25 1.25-3.05 1.25zm6.15-31V8.9q0-1.35-.925-2.275Q40.45 5.7 39.1 5.7h-2.95V4.6h2.95q1.8 0 3.05 1.25Q43.4 7.1 43.4 8.9v2.95zM24 23.45l11.05-6.35-10.25-5.95q-.4-.2-.8-.2t-.8.2L12.95 17.1zm0 .45zm0-.45zm.55.95zm-1.1 0z"/></svg>