<svg xmlns="http://www.w3.org/2000/svg" width="48" height="48" viewBox="0 0 48 48"><path d="M31.2 23.35q-2.25-1.8-4.1-3.55-1.85-1.75-3.175-3.375Q22.6 14.8 21.85 13.3q-.75-1.5-.75-2.8 0-1.95 1.375-3.35 1.375-1.4 3.375-1.4 1.3 0 2.7.825 1.4.825 2.65 2.575 1.25-1.75 2.625-2.575Q35.2 5.75 36.55 5.75q2 0 3.375 1.4T41.3 10.5q0 1.3-.75 2.8-.75 1.5-2.1 3.125t-3.2 3.375q-1.85 1.75-4.05 3.55Zm-4 17.9L11.15 36.5V25.1h5.2l12.1 4.45q.85.3 1.5 1.1t.65 2.5h-1.15q-2 0-3.5-.15t-2.65-.55l-3.6-1.3-.55 1.25 4.15 1.35q.95.3 2.4.475t2.7.175h9.35q1.35 0 2.05.9.7.9.7 1.95v-.1ZM4.7 39V25.1H10V39Z"/></svg>