<svg xmlns="http://www.w3.org/2000/svg" width="48" height="48" viewBox="0 96 960 960"><path d="M624 563q-45-36-82-71t-63.435-67.446q-26.434-32.446-41.5-62.579Q422 331.842 422 305.718q0-38.476 27.735-66.597Q477.469 211 517.341 211 543 211 571 227.5t53 51.5q25-35 52.5-51.5t53.915-16.5q39.975 0 67.78 28.121T826 305.718q0 26.124-15.065 56.257-15.066 30.133-42 62.579Q742 457 704.823 492.171 667.647 527.341 624 563Zm0-31q73-60 126.5-119T804 305.659q0-31.176-20.356-51.918Q763.288 233 731.244 233 713 233 690.5 245T639 294l-15 21-16-21q-29-37-51.615-49-22.616-12-39.143-12-32.53 0-52.886 20.741Q444 274.483 444 305.659 444 354 497.5 413 551 472 624 532Zm-80 389-321-95v50H94V598h233l242 89q17 6 30 22t13 50h143q29 0 42 22.025T810 841v-2l-266 82Zm-428-67h84V620h-84v234Zm425 44 246-75q-1-19-9-30.5T755 781H564q-25 0-52.5-3.5T466 768l-84-26 12-23 72 26q23 8 48.5 11t74.5 3q0-21-6.5-33.5T562 708l-237-88H223v182l318 96ZM200 737Zm389 22Zm-389-22Zm23 0Zm401-354Z"/></svg>