<svg xmlns="http://www.w3.org/2000/svg" width="48" height="48" viewBox="0 96 960 960"><path d="M764 952 641 829q-14.531 10.128-31.265 18.064Q593 855 576 861v-24q13-4 25.5-9.5T626 813L456 643v127L330 644H200V508h120L116 304l16-17 648 649-16 16Zm-46-191-15-15q29-36 44-79.423t15-91.987q0-88.56-51-160.575Q660 342 576 313v-24q93 33 150.5 111T784 575q0 52-17.5 99T718 761ZM614 657l-38-38V450q30 22 45 55.5t15 70.5q0 22-5.5 42.5T614 657ZM456 499l-58-59 58-58v117Zm-22 217v-94l-92-92H222v92h118l94 94Zm-46-140Z"/></svg>