<svg xmlns="http://www.w3.org/2000/svg" width="48" height="48"><path d="M23.5 31.35q-.75 0-1.3-.575t-.55-1.275q0-.75.575-1.3t1.275-.55q.75 0 1.3.575t.55 1.275q0 .75-.575 1.3t-1.275.55zM9.75 27.7q.4-4.3 3.75-7.95 3.35-3.65 8.2-4v1.15q-4.05.45-7.225 3.625T10.9 27.7zm-6.4 0v-.25q.25-3.55 1.875-6.75t4.125-5.675q2.5-2.475 5.7-3.975t6.65-1.7v1.15q-3.35.2-6.35 1.65-3 1.45-5.325 3.725-2.325 2.275-3.8 5.275-1.475 3-1.775 6.35v.2zm20.15 9.05q-2.95 0-5.1-2.15-2.15-2.15-2.15-5.1 0-3 2.125-5.125T23.5 22.25q2 0 3.75 1.075T30 26.25h16.1v6.5h-3.5v4h-6.5v-4H30q-1 2-2.8 3-1.8 1-3.7 1zm13.7-1.1h4.3v-4H45v-4.3H29.25q-.7-1.75-2.225-2.875Q25.5 23.35 23.5 23.35q-2.55 0-4.35 1.8-1.8 1.8-1.8 4.35t1.8 4.35q1.8 1.8 4.35 1.8 1.8 0 3.425-1.05 1.625-1.05 2.325-2.95h7.95z"/></svg>