<svg xmlns="http://www.w3.org/2000/svg" width="48" height="48" viewBox="0 96 960 960"><path d="M149 228h63.505q12.22 0 19.858 7.763Q240 243.525 240 255v669q-15-14-18.5-25t-3.5-29V250h-69q-4.95 0-7.975-3.035-3.025-3.035-3.025-8t3.025-7.965q3.025-3 7.975-3Zm231 696q-21.5 0-37.75-16.25T326 870V282q0-21.5 16.25-37.75T380 228h308q21.5 0 37.75 16.25T742 282v588q0 21.5-16.25 37.75T688 924H380Zm-32-337q16-18 37.806-28.5Q407.613 548 434 548h200q26.387 0 48.194 10.5Q704 569 720 587V282q0-14-9-23t-23-9H380q-14 0-23 9t-9 23v305Zm185.832-134Q512 453 497.5 438.332t-14.5-36.5Q483 380 497.668 365.5t36.5-14.5Q556 351 570.5 365.668t14.5 36.5Q585 424 570.332 438.5t-36.5 14.5ZM523 827h22v-80h80v-22h-80v-80h-22v80h-80v22h80v80Z"/></svg>