<svg xmlns="http://www.w3.org/2000/svg" width="48" height="48" viewBox="0 96 960 960"><path d="M240 950q-22 0-38-16t-16-38V336q0-56 39-95t95-39h320q56 0 95 39t39 95v560q0 22-16 38t-38 16H240Zm-32-163v109q0 14 9 23t23 9h480q14 0 23-9t9-23V787q-60 0-82 20t-67 20q-46 0-64-20t-59-20q-41 0-59 20t-64 20q-45 0-65.5-20T208 787Zm149 18q41 0 59-20t64-20q47 0 66 20t57 20q37 0 59-20t90-20V336q0-46-33-79t-79-33H320q-46 0-79 33t-33 79v429q67 0 88 20t61 20Zm128-137q-55 0-96.5-36T347 539q0-20 6-39t21-37l-1.5 13.5Q371 490 371 500q0 29 12.5 46t29.5 17q15 0 26-10t11-29q0-9-1.5-18t-3.5-17q-4-11-6-23t-2-27q0-38 21-71t57-50q-5 13-7 24t-2 22q0 33 11 55.5t46 46.5q25 17 34.5 41.5T607 558q0 42-31 76t-91 34Zm4-26q38 0 67-22t29-60q0-25-8.5-45T547 481q-27-18-46-44t-23-57q-13 22-15.5 45.5T468 480q4 14 5.5 24t1.5 19q0 43-32.5 59.5T381 587q15 25 43 40t65 15Zm-9-66Z"/></svg>