<svg xmlns="http://www.w3.org/2000/svg" width="48" height="48" viewBox="0 96 960 960"><path d="M106 834v-21q25-4 43-14.5t36.5-20.5q18.5-10 40-18t53.5-8q31 0 55 10t46.5 22q22.5 12 46 21.5T480 815q30 0 53.5-9.5t46-21.5q22.5-12 46.5-22t56-10q31 0 52.5 8t40 18q18.5 10 36.5 20.5t43 14.5v21q-24-4-43-14t-38-20.5Q754 789 732 781t-50-8q-29 0-52.5 10T583 804.5Q560 816 535.5 826T480 836q-31 0-55.5-10T377 804.5Q354 793 330.5 783T279 773q-29 0-51 8t-41 18.5Q168 810 149 820t-43 14Zm0-145v-21q25-5 43-15t36.5-20.5q18.5-10.5 40-18T279 607q31 0 55 10t46.5 21.5q22.5 11.5 46 21.5t53.5 10q30 0 53.5-10t46-21.5Q602 627 626 617t56-10q31 0 52.5 7.5t40 18Q793 643 811 653t43 15v21q-24-5-43-15t-38-20.5Q754 643 732 635t-50-8q-29 0-52.5 10t-46 22Q561 671 536 681t-56 10q-31 0-55.5-10T377 659q-23-12-46.5-22T279 627q-29 0-51 8.5t-41 19Q168 665 149 675t-43 14Zm0-146v-20q25-5 43-15t36.5-20.5q18.5-10.5 40-18.5t53.5-8q31 0 55 10t46.5 22q22.5 12 46 22t53.5 10q30 0 53.5-10t46-22q22.5-12 46.5-22t56-10q31 0 52.5 8t40 18.5Q793 498 811 508t43 15v20q-24-3-43-13t-38-21q-19-11-41-19t-50-8q-29 0-52.5 10T583 513.5Q560 525 535.5 535T480 545q-31 0-55.5-10T377 513.5Q354 502 330.5 492T279 482q-29 0-51 8t-41 19q-19 11-38 21t-43 13Zm0-145v-21q25-5 43-15t36.5-20q18.5-10 40-18t53.5-8q31 0 55 10t46.5 21.5q22.5 11.5 46 21.5t53.5 10q30 0 53.5-10t46-21.5Q602 336 626 326t56-10q31 0 52.5 8t40 18q18.5 10 36.5 20t43 15v21q-24-4-43-14t-38-20.5Q754 353 732 345t-50-8q-29 0-52.5 9.5T583 368q-23 12-47.5 22T480 400q-31 0-55.5-10T377 368q-23-12-46.5-21.5T279 337q-29 0-51 8t-41 18.5Q168 374 149 384t-43 14Z"/></svg>