<svg xmlns="http://www.w3.org/2000/svg" width="48" height="48" viewBox="0 -960 960 960"><path d="m454-487 243-244q4-4 8-4t8 4q4 4 4 8t-4 8L470-472l-16-15Zm93 91 215-215q3-3 7.5-3t8 3.5q3.5 3.5 3.5 7.5t-4 8L561-380l-14-16ZM228-231q-77-77-76.5-184T230-600l114-113 28 29q14 14 21 31.5t6 35.5l149-149q3-3 7.5-3t8 3.5q3.5 3.5 3.5 8t-3 7.5L381-567l-50 51 22 23q34 34 34.5 83.5T353-325l-12 12-14-16 11-13q28-28 27.5-67.5T337-478l-19-19q-8-8-8-19.5t8-19.5l41-39q18-19 18-46t-18-46l-15-15-98 97q-71 70-72 168.5T243-248q71 72 170.5 72.5T584-246l206-206q3-3 7.5-3t8 3.5q3.5 3.5 3.5 7.5t-3 8L599-231q-77 78-185 77.5T228-231Zm185-186Zm232 313-1-22q79 0 134.5-55.5T834-316l22 1q0 87-62 149t-149 62ZM104-645q0-87 62-149t149-62l1 22q-79 0-134.5 55.5T126-644l-22-1Z"/></svg>