<svg xmlns="http://www.w3.org/2000/svg" width="48" height="48" viewBox="0 96 960 960"><path d="M252 950V676h-57V454q0-22 14.969-37t35.773-15h99.496Q367 402 382 417t15 37v222h-57v274h-88Zm44.124-594Q270 356 252 338.124q-18-17.876-18-44T251.876 250q17.876-18 44-18T340 249.876q18 17.876 18 44T340.124 338q-17.876 18-44 18ZM635 950V736h-85l69-300q4.216-15.593 17.608-24.796Q650 402 667.5 402t30.392 9.204Q710.784 420.407 715 436l70 300h-86v214h-64Zm32.124-594Q641 356 623 338.124q-18-17.876-18-44T622.876 250q17.876-18 44-18T711 249.876q18 17.876 18 44T711.124 338q-17.876 18-44 18Z"/></svg>