<svg xmlns="http://www.w3.org/2000/svg" width="48" height="48" viewBox="0 96 960 960"><path d="M149 910q16-107 36.5-193.5T228 569q22-61 45.5-94t46.5-33q41 0 80 100.5T472 811q12-135 29.5-241t39-179q21.5-73 47-111t52.5-38q31 0 58.5 45t50 130.5q22.5 85.5 39 210T813 910h-27q-23-94-68-167.5T640 667q-32 2-75 74t-68 169h-31q-14-91-32.5-172.5t-39-142.5q-20.5-61-40-96.5T320 462q-17 3-37.5 39t-41 96.5q-20.5 60.5-39 141T171 910h-22Zm344-68q33-93 71.5-145t75.5-52q37 0 77.5 52.5T789 842q-18-245-59.5-410T640 264q-46 2-87.5 166.5T493 842Z"/></svg>