<svg xmlns="http://www.w3.org/2000/svg" width="48" height="48" viewBox="0 -960 960 960"><path d="M660-502q-11 0-19.5-8.5T632-530q0-11 8.5-19.5T660-558q11 0 19.5 8.5T688-530q0 11-8.5 19.5T660-502Zm-98-107-16-20q25-19 53.637-30.5 28.638-11.5 60.5-11.5Q692-671 720.5-659.5T774-629l-16 20q-22.24-17.429-47.09-26.714Q686.059-645 659.798-645q-26.261 0-50.966 9.286Q584.127-626.429 562-609Zm-81-84-19-19q41-37 92-56.5T660-788q55 0 106 19.5t92 56.5l-18 19q-38.021-33.079-84.323-51.039Q709.376-762 659.688-762t-95.764 17.737Q517.848-726.526 481-693Zm262 515q-95 0-196-53T363-366.5q-83-82.5-136-183T174-745q0-18.429 12.286-30.714Q198.571-788 217-788h73q18 0 30.5 10.5T337-749l19 78q3 16-1 29t-13.83 20.832L256-543q60 100 131 170t168 123l83-87q10-11 21.5-15t25.5-1l62 14q18.312 3.375 28.656 16.288Q786-309.8 786-291v70q0 18.429-12.286 30.714Q761.429-178 743-178ZM244-562l85-77q4-4 5.5-11t.5-13l-20-87q-1-8-6.5-12t-13.5-4h-85q-6 0-10 4t-4 10q-2 40 11.5 88.5T244-562Zm332 321q41 22 91 32t83 10q6 0 10-4t4-10v-84q0-8-4-13.5t-12-6.5l-71-15q-6-1-10.5.5T657-326l-81 85ZM244-562Zm332 321Z"/></svg>