<svg xmlns="http://www.w3.org/2000/svg" width="48" height="48" viewBox="0 -960 960 960"><path d="M241-187q-51-48-80-112.895-29-64.894-29-139.806 0-72.299 27.391-135.857 27.392-63.559 74.348-110.574 46.957-47.016 110.435-74.442Q407.652-788 479.826-788q72.174 0 135.732 27.417 63.559 27.416 110.574 74.416 47.016 47 74.442 110.537Q828-512.093 828-439.852 828-365 799-300.5T719-187l-15-16q47-44.812 74.5-105.324Q806-368.837 806-440q0-136.138-94.903-231.069Q616.194-766 480.097-766 344-766 249-671.064q-95 94.935-95 231.079Q154-369 181.5-308 209-247 257-203l-16 16Zm113-113q-29-26-45.5-62.021T292-440q0-78.333 54.765-133.167Q401.529-628 479.765-628 558-628 613-573.051q55 54.949 55 133.447Q668-398 651.5-362.5T606-300l-16-16q26.148-23.376 41.074-55.188Q646-403 646-440q0-69.225-48.341-117.612Q549.319-606 480.159-606 411-606 362.5-557.577 314-509.153 314-439.878q0 37.878 14.926 69.336Q343.852-339.083 370-316l-16 16Zm126-112q-11 0-19.5-8.5T452-440q0-11 8.5-19.5T480-468q11 0 19.5 8.5T508-440q0 11-8.5 19.5T480-412Z"/></svg>