<svg xmlns="http://www.w3.org/2000/svg" width="48" height="48" viewBox="0 96 960 960"><path d="m399 622 31-100.394L350 466h98.72L480 362l30.28 104H610l-79 55.606L561 622l-81.005-62L399 622ZM293 936V687q-40-37-60.5-87T212 496q0-112 78-190t190-78q112 0 190 78t78 190q0 54-20.5 104T667 687v249l-187-54-187 54Zm186.882-194Q583 742 654.5 670.618q71.5-71.383 71.5-174.5Q726 393 654.618 321.5q-71.383-71.5-174.5-71.5Q377 250 305.5 321.382q-71.5 71.383-71.5 174.5Q234 599 305.382 670.5q71.383 71.5 174.5 71.5Z"/></svg>