<svg xmlns="http://www.w3.org/2000/svg" width="48" height="48" viewBox="0 96 960 960"><path d="M363.594 542.538q8.791 0 14.444-5.775 5.654-5.776 5.654-14.609V350.546q0-15.007-10.346-25.353-10.346-10.346-25.038-10.346h-48.396q-7.604 0-13.219 5.747-5.615 5.748-5.615 14.539 0 8.79 5.666 14.444 5.667 5.654 14.333 5.654h42.231v167.923q0 8.021 5.748 13.703 5.748 5.681 14.538 5.681Zm236.923 0q8.79 0 14.444-5.775 5.654-5.776 5.654-14.609v-41.847h30.308q8.021 0 13.703-5.747 5.681-5.748 5.681-14.538 0-8.791-5.775-14.445-5.776-5.653-14.609-5.653h-29.308V333.846q0-7.861-5.803-13.43-5.804-5.569-14.68-5.569-8.709 0-14.305 5.666-5.596 5.667-5.596 14.333v105.078h-64.847V333.846q0-7.861-5.747-13.43-5.748-5.569-14.539-5.569-8.79 0-14.444 5.666Q475 326.18 475 334.846v109.912q0 14.916 10.346 25.233 10.347 10.316 25.039 10.316h69.846v42.847q0 8.021 5.748 13.703 5.747 5.681 14.538 5.681ZM197.694 915.999q-23.529 0-40.611-17.082-17.082-17.082-17.082-40.611V293.694q0-23 17.082-40.346 17.082-17.347 40.611-17.347h564.612q23 0 40.346 17.347 17.347 17.346 17.347 40.346v564.612q0 23.529-17.347 40.611-17.346 17.082-40.346 17.082H197.694Zm0-45.384h564.612q5.385 0 8.847-3.462 3.462-3.462 3.462-8.847V293.694q0-5.385-3.462-8.847-3.462-3.462-8.847-3.462H197.694q-5.385 0-8.847 3.462-3.462 3.462-3.462 8.847v564.612q0 5.385 3.462 8.847 3.462 3.462 8.847 3.462Zm63.669-33.462q8.791 0 14.445-5.775 5.653-5.776 5.653-14.609V649.846h61.847v106.077q0 7.862 5.748 13.431 5.748 5.568 14.538 5.568 8.791 0 14.444-5.666 5.654-5.667 5.654-14.333V649.846h66.924v167.923q0 8.021 5.747 13.703 5.748 5.681 14.539 5.681 8.79 0 14.444-5.775Q491 825.602 491 816.769V643.307q0-12.461-10.693-23.153-10.692-10.692-23.153-10.692H274.923q-12.461 0-23.153 10.692-10.692 10.692-10.692 23.153v174.462q0 8.021 5.747 13.703 5.748 5.681 14.538 5.681Zm316.846 0q8.791 0 14.444-5.775 5.654-5.776 5.654-14.609v-41.847h86.154q12.462 0 23.154-10.692t10.692-23.153v-97.77q0-12.461-10.692-23.153-10.692-10.692-23.154-10.692h-92.692q-14.384 0-24.115 9.73-9.731 9.731-9.731 24.115v174.462q0 8.021 5.748 13.703 5.748 5.681 14.538 5.681Zm20.098-187.307h79.616v84.693h-79.616v-84.693ZM185.385 293.694v-12.309 589.23-576.921Z"/></svg>