<svg xmlns="http://www.w3.org/2000/svg" width="48" height="48" viewBox="0 -960 960 960"><path d="M343.308-700.769v166.923q0 8.833 5.748 14.609 5.748 5.775 14.538 5.775 8.791 0 14.444-5.775 5.654-5.776 5.654-14.609v-187.308q0-8.666-5.775-14.333-5.776-5.666-14.609-5.666h-62.231q-8.666 0-14.333 5.747-5.666 5.748-5.666 14.539 0 8.79 5.666 14.444 5.667 5.654 14.333 5.654h42.231ZM526-513.462h89.615q12.808 0 24.096-11.288Q651-536.038 651-548.846v-57.923q0-12.808-11.289-24.096-11.288-11.289-24.096-11.289H531v-58.615h99.615q8.833 0 14.609-5.804Q651-712.376 651-721.252q0-8.709-5.776-14.305t-14.609-5.596H526q-13.192 0-24.288 11.288t-11.096 24.096v156.923q0 12.808 11.096 24.096T526-513.462Zm5-30.307v-68.077h79.616v68.077H531ZM197.694-140.001q-23.529 0-40.611-17.082-17.082-17.082-17.082-40.611v-564.612q0-23.529 17.082-40.611 17.082-17.082 40.611-17.082h564.612q23.529 0 40.611 17.082 17.082 17.082 17.082 40.611v564.612q0 23.529-17.082 40.611-17.082 17.082-40.611 17.082H197.694Zm0-45.384h564.612q4.616 0 8.463-3.846 3.846-3.847 3.846-8.463v-564.612q0-4.616-3.846-8.463-3.847-3.846-8.463-3.846H197.694q-4.616 0-8.463 3.846-3.846 3.847-3.846 8.463v564.612q0 4.616 3.846 8.463 3.847 3.846 8.463 3.846Zm-12.309-589.23v589.23-589.23Zm96.076 368.461h61.847v105.077q0 8.666 5.748 14.333 5.748 5.666 14.538 5.666 8.791 0 14.444-5.666 5.654-5.667 5.654-14.333v-105.077h66.924v166.923q0 8.833 5.747 14.609 5.748 5.775 14.539 5.775 8.79 0 14.444-5.775Q491-230.398 491-239.231v-173.462q0-12.461-10.693-23.153-10.692-10.692-23.153-10.692H274.923q-12.461 0-23.153 10.692-10.692 10.692-10.692 23.153v173.462q0 8.833 5.747 14.609 5.748 5.775 14.538 5.775 8.791 0 14.445-5.775 5.653-5.776 5.653-14.609v-166.923Zm316.846 125.076h86.154q12.462 0 23.154-10.692t10.692-23.153v-97.77q0-12.461-10.692-23.153-10.692-10.692-23.154-10.692h-106.72q-8.369 0-14.094 5.666-5.724 5.667-5.724 14.333v187.308q0 8.833 5.748 14.609 5.748 5.775 14.538 5.775 8.791 0 14.444-5.775 5.654-5.776 5.654-14.609v-41.847Zm0-40.383v-84.693h79.616v84.693h-79.616Z"/></svg>