<svg xmlns="http://www.w3.org/2000/svg" width="48" height="48" viewBox="0 -960 960 960"><path d="M343.308-553.462v166.923q0 8.808 5.766 14.596 5.765 5.789 14.538 5.789t14.426-5.789q5.654-5.788 5.654-14.596v-187.307q0-8.641-5.788-14.32-5.789-5.68-14.596-5.68h-62.231q-8.641 0-14.32 5.766-5.679 5.765-5.679 14.538t5.679 14.426q5.679 5.654 14.32 5.654h42.231ZM506-366.154h89.615q12.846 0 24.116-11.269Q631-388.693 631-401.539v-156.922q0-12.846-11.269-24.116-11.27-11.269-24.116-11.269H506q-13.231 0-24.307 11.269-11.077 11.27-11.077 24.116v156.922q0 12.846 11.077 24.116 11.076 11.269 24.307 11.269Zm5-33.769v-64h79.616v64H511Zm0-96.154v-64h79.616v64H511ZM197.694-140.001q-23.529 0-40.611-17.082-17.082-17.082-17.082-40.611v-564.612q0-23.529 17.082-40.611 17.082-17.082 40.611-17.082h564.612q23.529 0 40.611 17.082 17.082 17.082 17.082 40.611v564.612q0 23.529-17.082 40.611-17.082 17.082-40.611 17.082H197.694Zm0-45.384h564.612q4.616 0 8.463-3.846 3.846-3.847 3.846-8.463v-564.612q0-4.616-3.846-8.463-3.847-3.846-8.463-3.846H197.694q-4.616 0-8.463 3.846-3.846 3.847-3.846 8.463v564.612q0 4.616 3.846 8.463 3.847 3.846 8.463 3.846Zm-12.309-589.23v589.23-589.23Z"/></svg>