<svg xmlns="http://www.w3.org/2000/svg" width="48" height="48" viewBox="0 -960 960 960"><path d="M274.308-290.001q-9.923 0-16.307-6.384-6.385-6.385-6.385-16.308v-311.923h-58.923q-9.923 0-16.308-6.384-6.384-6.385-6.384-16.307 0-9.923 6.384-16.308 6.385-6.384 16.308-6.384h75.461q12.23 0 20.538 8.115T297-641.153v328.46q0 9.923-6.385 16.308-6.384 6.384-16.307 6.384Zm212.307 0q-13.153 0-19.038-10.846-5.884-10.846.808-21.768l100.615-170-87-144q-7.076-11.923-1-22.654 6.077-10.73 20.615-10.73 5.692 0 11.885 3.346 6.192 3.346 9.422 8.423l74.001 122.077 71.385-122.077q2.846-5.077 9.038-8.423t11.884-3.346q13.539 0 19.115 10.538 5.577 10.538-.884 22.076l-83.385 144.77 99 169.23q7.077 11.923.808 22.654-6.269 10.73-20.423 10.73-5.692 0-12.077-3.346-6.384-3.346-9.23-8.423l-86-147.693-87.232 147.693q-2.846 5.077-9.538 8.423t-12.769 3.346Z"/></svg>