<svg xmlns="http://www.w3.org/2000/svg" width="48" height="48" viewBox="0 -960 960 960"><path d="M299.231-553.846v-58h84.615q12.808 0 24.096-11.288 11.289-11.289 11.289-24.096v-58.539q0-12.808-11.289-24.096-11.288-11.288-24.096-11.288H279.231q-8.833 0-14.609 5.747-5.775 5.748-5.775 14.539 0 8.79 5.775 14.444 5.776 5.654 14.609 5.654h99.616v58.615h-84.616q-12.808 0-24.096 11.289-11.288 11.288-11.288 24.096v72.923q0 8.833 5.775 14.609 5.776 5.775 14.609 5.775h120q8.667 0 14.333-5.803 5.667-5.804 5.667-14.679 0-8.71-5.667-14.306-5.666-5.596-14.333-5.596h-100ZM620-575.693v41.847q0 8.833 5.803 14.609 5.804 5.775 14.68 5.775 8.709 0 14.305-5.775 5.596-5.776 5.596-14.609v-41.847h28.693q8.833 0 14.608-5.747 5.776-5.748 5.776-14.538 0-8.791-5.776-14.445-5.775-5.653-14.608-5.653h-28.693v-105.078q0-8.666-5.748-14.333-5.747-5.666-14.538-5.666t-14.444 5.666Q620-729.82 620-721.154v105.078h-65.462v-105.078q0-8.666-5.804-14.333-5.803-5.666-14.679-5.666-8.709 0-14.305 5.666-5.596 5.667-5.596 14.333v125.462q0 8.666 5.666 14.333 5.667 5.666 14.334 5.666H620ZM197.694-140.001q-23.529 0-40.611-17.082-17.082-17.082-17.082-40.611v-564.612q0-23.529 17.082-40.611 17.082-17.082 40.611-17.082h564.612q23.529 0 40.611 17.082 17.082 17.082 17.082 40.611v564.612q0 23.529-17.082 40.611-17.082 17.082-40.611 17.082H197.694Zm83.767-266.153h61.847v105.077q0 8.666 5.748 14.333 5.748 5.666 14.538 5.666 8.791 0 14.444-5.666 5.654-5.667 5.654-14.333v-105.077h66.924v166.923q0 8.833 5.747 14.609 5.748 5.775 14.539 5.775 8.79 0 14.444-5.775Q491-230.398 491-239.231v-173.462q0-12.461-10.693-23.153-10.692-10.692-23.153-10.692H274.923q-12.461 0-23.153 10.692-10.692 10.692-10.692 23.153v173.462q0 8.833 5.747 14.609 5.748 5.775 14.538 5.775 8.791 0 14.445-5.775 5.653-5.776 5.653-14.609v-166.923Zm316.846 125.076h86.154q12.462 0 23.154-10.692t10.692-23.153v-97.77q0-12.461-10.692-23.153-10.692-10.692-23.154-10.692h-106.72q-8.369 0-14.094 5.666-5.724 5.667-5.724 14.333v187.308q0 8.833 5.748 14.609 5.748 5.775 14.538 5.775 8.791 0 14.444-5.775 5.654-5.776 5.654-14.609v-41.847Zm0-40.383v-84.693h79.616v84.693h-79.616Z"/></svg>