<svg xmlns="http://www.w3.org/2000/svg" width="48" height="48" viewBox="0 -960 960 960"><path d="M390.08-297.39H213.93q-8.7 0-14.16-5.46-5.46-5.46-5.46-14.15v-22.85q0-3.84 1.42-7.69 1.43-3.84 5.27-7.08 41.62-32.38 71-56.8 29.39-24.43 50.54-48.43 19.77-23.15 30.35-43.73 10.57-20.57 10.57-43.19 0-35.31-19-56.58-19-21.27-46-21.27-21.92 0-37.77 14.04-15.84 14.04-21.69 33.73-3.08 8.31-10.77 11.73-7.69 3.43-16.38.2-9.69-2.85-13.92-12.23-4.24-9.39-2-20.46 7.07-35.31 38.15-53.93 31.08-18.61 65.38-18.61 53.08 0 81.62 27.38 28.54 27.39 28.54 78.23 0 36.46-14.62 68.5-14.61 32.04-37.23 60.5-22.23 28.08-50.04 50.23-27.81 22.16-55.5 41.62h-.38 138.61q9.69 0 16.58 6.88 6.88 6.89 6.88 16.58 0 9.69-7.07 16.27-7.08 6.57-16.77 6.57Zm121.15 0q-12.23 0-20.54-8.11-8.31-8.12-8.31-20.73v-307.85q0-12.23 8.31-20.53 8.31-8.31 20.54-8.31h92.92q81.77 0 125.27 49t43.5 133.77q0 85.15-44.11 133.96-44.12 48.8-124.66 48.8h-92.92Zm16.92-46.15h75.77q62.16 0 93-35.23 30.85-35.23 30.85-101.38 0-66.16-30.85-101.2-30.84-35.03-93-35.03h-75.77v272.84Z"/></svg>