<svg xmlns="http://www.w3.org/2000/svg" width="48" height="48" viewBox="0 -960 960 960"><path d="M333.847-417.694h292.306v-12.076q0-36.23-39.615-57.307Q546.922-508.154 480-508.154t-106.538 21.077Q333.847-466 333.847-429.77v12.076ZM480-579.539q27.538 0 46.538-19 19-19 19-46.538 0-27.538-19-46.538-19-19-46.538-19-27.538 0-46.538 19-19 19-19 46.538 0 27.538 19 46.538 19 19 46.538 19ZM241.539-260.001l-92.461 92.46q-13.615 13.615-31.346 6.5t-17.731-26.731v-614.534q0-23.616 17.039-40.654 17.038-17.039 40.654-17.039h644.612q23.616 0 40.654 17.039 17.039 17.038 17.039 40.654v484.612q0 23.616-17.039 40.654-17.038 17.039-40.654 17.039H241.539Z"/></svg>