<svg xmlns="http://www.w3.org/2000/svg" width="48" height="48" viewBox="0 -960 960 960"><path d="M815-457.308h-61.154q-9.644 0-16.168-6.58-6.524-6.581-6.524-16.308t6.524-16.111q6.524-6.385 16.168-6.385H815v-61.154q0-9.269 6.578-15.98 6.578-6.712 16.303-6.712 9.349 0 15.926 6.712 6.577 6.711 6.577 15.98v61.154h60.769q9.644 0 16.168 6.58 6.524 6.581 6.524 16.308t-6.524 16.111q-6.524 6.385-16.168 6.385h-60.769v60.769q0 9.644-6.766 16.168-6.766 6.524-16.307 6.524-9.542 0-15.927-6.524Q815-386.895 815-396.539v-60.769ZM434.308-290.001q-23.5 0-40.596-17.096-17.096-17.096-17.096-40.596v-264.614q0-23.5 17.096-40.596 17.096-17.096 40.596-17.096H646q9.644 0 16.168 6.58 6.524 6.58 6.524 16.307 0 9.727-6.524 16.112-6.524 6.384-16.168 6.384H434.308q-5 0-8.654 3.462T422-612.307v264.614q0 5.385 3.654 8.847 3.654 3.462 8.654 3.462H611q5 0 8.654-3.462t3.654-8.847v-109.615H566q-9.644 0-16.168-6.58-6.524-6.581-6.524-16.308t6.524-16.111q6.524-6.385 16.168-6.385h80q9.644 0 16.168 6.524 6.524 6.524 6.524 16.168v132.307q0 23.5-17.096 40.596Q634.5-290.001 611-290.001H434.308ZM101.539-647.307v188.077h114.616v-188.077q0-9.644 6.58-16.168 6.58-6.524 16.307-6.524 9.728 0 16.112 6.524 6.385 6.524 6.385 16.168v188.077h23q9.644 0 16.168 6.765 6.524 6.766 6.524 16.308 0 9.541-6.524 15.926-6.524 6.384-16.168 6.384h-23v101.154q0 9.645-6.581 16.168-6.58 6.524-16.307 6.524-9.727 0-16.112-6.524-6.384-6.523-6.384-16.168v-101.154H78.847q-9.644 0-16.168-6.524-6.524-6.524-6.524-16.168v-210.768q0-9.644 6.58-16.168 6.58-6.524 16.308-6.524 9.727 0 16.111 6.524 6.385 6.524 6.385 16.168Z"/></svg>