<svg xmlns="http://www.w3.org/2000/svg" width="48" height="48" viewBox="0 -960 960 960"><path d="m558.08-458.46 85.46 86.23q1.61 2 13.54 6.08 13.3 0 18.65-12.7 5.35-12.69-4.12-21.77l-80.15-80.15 80.54-80q9.08-9.08 3.73-21.08-5.35-12-18.27-12-3.85 0-6.91 1.65t-6.24 4.43l-86.23 85.46v-71.54q0-8.83-5.64-14.41-5.63-5.59-14.53-5.59-8.91 0-14.56 5.59-5.66 5.58-5.66 14.41v187.31q0 9 5.63 14.69 5.63 5.7 14.54 5.7t14.56-5.7q5.66-5.69 5.66-14.69v-71.92Zm-182.31 30.07v41.85q0 9 5.63 14.69 5.63 5.7 14.54 5.7t14.56-5.7q5.65-5.69 5.65-14.69v-41.85h24.62q8.83 0 14.42-5.63 5.58-5.63 5.58-14.53 0-8.91-5.58-14.57-5.59-5.65-14.42-5.65h-24.62v-105.08q0-8.83-5.63-14.41-5.63-5.59-14.54-5.59-8.9 0-14.56 5.59-5.65 5.58-5.65 14.41v105.08h-70.54v-105.08q0-8.83-5.63-14.41-5.63-5.59-14.54-5.59t-14.56 5.59q-5.65 5.58-5.65 14.41v125.47q0 8.83 5.58 14.41t14.42 5.58h90.92ZM197.69-140q-23.53 0-40.61-17.08T140-197.69v-564.62q0-23.53 17.08-40.61T197.69-820h564.62q23.53 0 40.61 17.08T820-762.31v564.62q0 23.53-17.08 40.61T762.31-140H197.69Z"/></svg>