<svg xmlns="http://www.w3.org/2000/svg" width="48" height="48" viewBox="0 -960 960 960"><path d="m558.076-458.462 85.462 86.231q2 2 13.538 6.077 13.308 0 18.462-12.5 5.153-12.5-3.923-21.577l-80.155-80.538 80.539-80.385q9.077-8.692 3.731-20.692t-18.269-12q-3.635 0-6.779 1.616-3.144 1.615-6.375 4.461l-86.231 85.462v-71.539q0-8.641-5.765-14.32-5.766-5.68-14.539-5.68-8.772 0-14.426 5.68-5.654 5.679-5.654 14.32v187.307q0 8.808 5.821 14.596 5.822 5.789 14.68 5.789 8.691 0 14.287-5.789 5.596-5.788 5.596-14.596v-71.923Zm-173.229 51.924H284.846q-8.64 0-14.32 5.765-5.679 5.766-5.679 14.539 0 8.772 5.679 14.426 5.68 5.654 14.32 5.654h110.077q12.919 0 21.614-8.694 8.694-8.695 8.694-21.614v-68.077q0-12.919-8.694-21.613-8.695-8.694-21.614-8.694h-89.692v-58.616h99.615q8.808 0 14.596-5.821 5.789-5.821 5.789-14.679 0-8.692-5.789-14.288-5.788-5.596-14.596-5.596h-120q-8.64 0-14.32 5.68-5.679 5.679-5.679 14.32v89.308q0 8.641 5.679 14.32 5.68 5.679 14.32 5.679h100.001v58.001ZM197.694-140.001q-23.529 0-40.611-17.082-17.082-17.082-17.082-40.611v-564.612q0-23.529 17.082-40.611 17.082-17.082 40.611-17.082h564.612q23.529 0 40.611 17.082 17.082 17.082 17.082 40.611v564.612q0 23.529-17.082 40.611-17.082 17.082-40.611 17.082H197.694Zm0-45.384h564.612q4.616 0 8.463-3.846 3.846-3.847 3.846-8.463v-564.612q0-4.616-3.846-8.463-3.847-3.846-8.463-3.846H197.694q-4.616 0-8.463 3.846-3.846 3.847-3.846 8.463v564.612q0 4.616 3.846 8.463 3.847 3.846 8.463 3.846Zm-12.309-589.23v589.23-589.23Z"/></svg>