<svg xmlns="http://www.w3.org/2000/svg" width="48" height="48" viewBox="0 96 960 960"><path d="M480.097 321.231q-28.328 0-48.597-20.173-20.269-20.172-20.269-48.5 0-28.327 20.173-48.596 20.172-20.269 48.499-20.269 28.328 0 48.597 20.172 20.269 20.173 20.269 48.5t-20.173 48.597q-20.172 20.269-48.499 20.269Zm-72.523 644.768q-9.727 0-16.112-6.524-6.384-6.524-6.384-16.168V434.922H161.924q-9.644 0-16.168-6.58-6.524-6.58-6.524-16.307 0-9.727 6.524-16.112 6.524-6.384 16.168-6.384h636.152q9.644 0 16.168 6.58 6.524 6.58 6.524 16.307 0 9.728-6.524 16.112-6.524 6.384-16.168 6.384H574.922v508.385q0 9.644-6.58 16.168-6.58 6.524-16.307 6.524-9.728 0-16.112-6.524-6.384-6.524-6.384-16.168V721.385h-99.078v221.922q0 9.664-6.58 16.178-6.58 6.514-16.307 6.514Z"/></svg>