<svg xmlns="http://www.w3.org/2000/svg" width="48" height="48" viewBox="0 -960 960 960"><path d="M658.23-130.001q-18.509 0-31.946-13.437-13.437-13.437-13.437-31.946v-78.463H502.692q-18.509 0-31.947-13.437-13.437-13.437-13.437-31.946v-361.924H347.769v81.924q0 18.509-13.438 31.946-13.437 13.437-31.946 13.437H135.384q-18.509 0-31.946-13.437-13.437-13.437-13.437-31.946v-205.386q0-18.509 13.437-31.946 13.437-13.437 31.946-13.437h167.001q18.509 0 31.946 13.437 13.438 13.437 13.438 31.946v78.078h265.078v-78.078q0-18.509 13.437-31.946 13.437-13.437 31.946-13.437h166.386q18.509 0 31.946 13.437 13.437 13.437 13.437 31.946v205.386q0 18.509-13.437 31.946-13.437 13.437-31.946 13.437H658.23q-18.509 0-31.946-13.437-13.437-13.437-13.437-31.946v-81.924H502.692v361.924h110.155v-81.924q0-18.211 13.437-31.798 13.437-13.586 31.946-13.586h166.386q18.509 0 31.946 13.586 13.437 13.587 13.437 31.798v205.77q0 18.509-13.437 31.946-13.437 13.437-31.946 13.437H658.23Z"/></svg>