<svg xmlns="http://www.w3.org/2000/svg" width="48" height="48" viewBox="0 -960 960 960"><path d="M190.001-140.001q-23.5 0-40.596-17.097-17.096-17.096-17.096-40.596v-564.612q0-23.5 17.096-40.596 17.096-17.097 40.596-17.097h360.921q9.644 0 16.168 6.581 6.524 6.58 6.524 16.307 0 9.727-6.524 16.112-6.524 6.384-16.168 6.384H190.001q-5.385 0-8.847 3.462-3.462 3.462-3.462 8.847v564.612q0 5.385 3.462 8.847 3.462 3.462 8.847 3.462h564.613q5.385 0 8.846-3.462 3.462-3.462 3.462-8.847v-359.921q0-9.644 6.58-16.168 6.58-6.524 16.308-6.524 9.727 0 16.111 6.524 6.385 6.524 6.385 16.168v359.921q0 23.5-17.096 40.596-17.097 17.097-40.596 17.097H190.001Zm512.307-569.384h-57.924q-9.644 0-16.168-6.581-6.523-6.58-6.523-16.307 0-9.727 6.523-16.111 6.524-6.385 16.168-6.385h57.924v-57.924q0-9.643 6.58-16.167 6.58-6.524 16.307-6.524 9.727 0 16.112 6.524 6.384 6.524 6.384 16.167v57.924h57.924q9.644 0 16.168 6.58 6.524 6.58 6.524 16.308 0 9.727-6.524 16.111-6.524 6.385-16.168 6.385h-57.924v58.308q0 9.644-6.58 16.168-6.58 6.524-16.307 6.524-9.727 0-16.112-6.524-6.384-6.524-6.384-16.168v-58.308ZM440.922-309.693l-71.614-90.691q-4.615-5.23-11.231-5.23-6.615 0-11.231 5.615l-65.921 85.537q-6 7.615-1.789 15.231 4.212 7.615 12.635 7.615h364.765q8.115 0 12.173-7.615 4.058-7.616-.558-15.231l-98.229-131.614q-4.616-5.615-11.616-5.615t-11.643 5.714L440.922-309.693ZM472.307-480Z"/></svg>