<svg xmlns="http://www.w3.org/2000/svg" width="48" height="48" viewBox="0 -960 960 960"><path d="M213.001-265.385V-456h200.614v190.615V-456H213.001v190.615ZM631.384-619.23ZM60.001-248.848v-303.998q0-13.615 6.116-26.538 6.115-12.923 17.73-20.538l195.999-139.846q15.192-10.615 33.635-10.615 18.442 0 33.673 10.615l194.999 139.846q12 8 18.115 21.307 6.116 13.308 5.731 27.308v47.538q-13.384 11.307-24.538 24.653-11.154 13.346-20.846 28.73v-108.999L313.308-706.923 105.385-558.859v293.474h107.616V-456h200.614v190.615h68.307q1.831 11.99 5.685 23.417 3.854 11.428 8.546 21.967H368.231v-190.615H258.385v190.615H88.848q-12.26 0-20.553-8.294Q60-236.588 60-248.848ZM900-854.615v362.152q-9.748-11.088-21.181-19.775-11.434-8.686-24.203-16.993v-325.384H456.922v112.769l-45.383-31.614v-80.77q0-18.777 13.437-32.273 13.437-13.496 31.946-13.496h397.693q18.509 0 31.946 13.438 13.438 13.437 13.438 31.946ZM697-701.461h56.154v-56.154H697v56.154Zm32.223 561.46q-70.776 0-120.768-50.308-49.992-50.307-49.992-120.153 0-71.634 49.982-121.855 49.982-50.22 121.278-50.22 70.276 0 120.584 50.22 50.307 50.221 50.307 121.855 0 69.846-50.307 120.153-50.308 50.308-121.084 50.308ZM715.307-295v92.461q0 6.538 4.797 10.692t11.192 4.154q5.934 0 10.127-4.792 4.192-4.792 4.192-10.669V-295h92.846q6.077 0 10.269-4.836 4.192-4.835 4.192-10.961t-4.192-10.319q-4.192-4.192-10.269-4.192h-92.846v-92.461q0-6.539-4.192-10.693-4.193-4.153-10.319-4.153-6.126 0-10.961 4.153-4.836 4.154-4.836 10.693v92.461h-92.461q-6.077 0-10.461 4.154Q608-317 608-310.605q0 5.934 4.754 10.769Q617.508-295 623.846-295h91.461Z"/></svg>