<svg xmlns="http://www.w3.org/2000/svg" width="48" height="48" viewBox="0 -960 960 960"><path d="M899.999-854.615v362.152q-33.847-33.692-78.198-52.269-44.351-18.576-92.263-18.576-25.795 0-50.205 4.884-24.411 4.885-47.949 14.27v-16.615q0-27.62-11.538-51.156-11.539-23.536-31.231-37.613L411.539-773.46v-80.77q0-18.777 13.437-32.273 13.437-13.496 31.946-13.496h397.693q18.509 0 31.946 13.438 13.438 13.437 13.438 31.946ZM697-701.461h56.154v-56.154H697v56.154Zm32.223 561.46q-70.776 0-120.768-50.308-49.992-50.307-49.992-120.153 0-71.634 49.982-121.855 49.982-50.22 121.278-50.22 70.276 0 120.584 50.22 50.307 50.221 50.307 121.855 0 69.846-50.307 120.153-50.308 50.308-121.084 50.308ZM715.307-295v92.461q0 6.538 4.385 10.692t10.511 4.154q6.126 0 10.769-4.792t4.643-10.669V-295h92.846q6.077 0 10.269-4.154t4.192-10.55q0-5.934-4.192-10.769t-10.269-4.835h-92.846v-92.461q0-6.539-4.192-10.693-4.193-4.153-10.319-4.153-6.126 0-10.961 4.153-4.836 4.154-4.836 10.693v92.461h-92.461q-6.077 0-10.461 4.154Q608-317 608-310.605q0 5.934 4.754 10.769Q617.508-295 623.846-295h91.461ZM60.001-248.848v-303.998q0-13.615 6.116-26.538 6.115-12.923 17.73-20.538l195.999-139.846q15.077-10.615 33.385-10.615t33.923 10.615l194.999 139.846q12 8 18.115 21.307 6.116 13.308 5.731 27.308v47.538q-41.923 36.538-65.115 86.884-23.192 50.346-23.192 106.423 0 23.211 4.861 46.047 4.862 22.837 13.6 44.414H390.231v-207.538H236.077v207.538H88.982q-12.49 0-20.735-8.294-8.245-8.293-8.245-20.553Z"/></svg>