<svg xmlns="http://www.w3.org/2000/svg" width="48" height="48" viewBox="0 -960 960 960"><path d="M715.307-295v92.461q0 6.538 4.797 10.692t11.192 4.154q5.934 0 10.127-4.792 4.192-4.792 4.192-10.669V-295h92.846q6.077 0 10.269-4.836 4.192-4.835 4.192-10.961t-4.192-10.319q-4.192-4.192-10.269-4.192h-92.846v-92.461q0-6.539-4.192-10.693-4.193-4.153-10.319-4.153-6.126 0-10.961 4.153-4.836 4.154-4.836 10.693v92.461h-92.461q-6.077 0-10.461 4.154Q608-317 608-310.605q0 5.934 4.754 10.769Q617.508-295 623.846-295h91.461Zm13.916 154.999q-70.776 0-120.768-50.308-49.992-50.307-49.992-120.153 0-71.634 49.982-121.855 49.982-50.22 121.278-50.22 70.276 0 120.584 50.22 50.307 50.221 50.307 121.855 0 69.846-50.307 120.153-50.308 50.308-121.084 50.308ZM180.001-277.694v-363.459q0-13.962 5.943-26.039 5.942-12.076 17.288-20.038l242.307-182.691q8.023-5.616 16.676-8.616 8.653-3 18.027-3 9.373 0 17.87 3 8.497 3 16.349 8.616L756.768-687.23q11.346 7.962 17.288 20.038 5.943 12.077 5.943 26.039v84.383q-10.539-3.461-22.033-4.692-11.494-1.231-23.351-1.846v-77.845q0-3.077-1.346-5.578-1.347-2.5-3.654-4.423L487.308-833.461q-3.077-2.308-7.308-2.308t-7.308 2.308L230.385-651.282q-2.307 1.923-3.654 4.423-1.346 2.5-1.346 5.578v363.587q0 5.385 3.462 8.847 3.462 3.462 8.847 3.462h244.228q1.735 11.74 5.589 23.36t8.642 22.024H237.694q-23.5 0-40.596-17.097-17.097-17.096-17.097-40.596ZM480-551.461Z"/></svg>