<svg xmlns="http://www.w3.org/2000/svg" width="48" height="48" viewBox="0 -960 960 960"><path d="M535.58-393.77q9.727 0 16.112-6.524 6.384-6.524 6.384-16.168v-106.231h106.231q9.644 0 16.168-6.58 6.524-6.581 6.524-16.308t-6.524-16.111q-6.524-6.385-16.168-6.385H558.076v-106.231q0-9.644-6.58-16.168-6.58-6.524-16.307-6.524-9.728 0-16.112 6.524-6.384 6.524-6.384 16.168v106.231H406.461q-9.644 0-16.167 6.58-6.524 6.58-6.524 16.308 0 9.727 6.524 16.111 6.523 6.385 16.167 6.385h106.232v106.231q0 9.644 6.58 16.168 6.58 6.524 16.307 6.524ZM278.463-230.771q-23.529 0-40.611-17.082-17.081-17.082-17.081-40.611v-513.842q0-23.529 17.081-40.611 17.082-17.082 40.611-17.082h513.843q23.528 0 40.61 17.082t17.082 40.611v513.842q0 23.529-17.082 40.611-17.082 17.082-40.61 17.082H278.463ZM167.694-120.003q-23.528 0-40.61-17.082-17.082-17.081-17.082-40.61V-714.23q0-9.644 6.58-16.167 6.58-6.524 16.308-6.524 9.727 0 16.111 6.524 6.385 6.523 6.385 16.167v536.535q0 5.385 3.462 8.847 3.461 3.462 8.846 3.462h536.535q9.644 0 16.168 6.58 6.524 6.58 6.524 16.307 0 9.727-6.524 16.112-6.524 6.384-16.168 6.384H167.694Z"/></svg>