<svg xmlns="http://www.w3.org/2000/svg" width="48" height="48" viewBox="0 -960 960 960"><path d="M229.54-132.31q-10.846 0-23.192-6.731-12.346-6.73-17.577-16.577l-98-171.075q-5.615-9.462-5.615-23.308t5.616-23.692l251.46-430.689q5.615-9.847 17.769-16.577 12.154-6.731 23-6.731h194.614q10.846 0 22.999 6.731 12.154 6.73 17.77 16.577L800.151-491.54q-13.923-3.692-28.461-5.846-14.539-2.154-30.308-1.384.539 0 1.193-.193.654-.192.808-.192L578.384-782.306H382.231L131.386-351.385l98.384 173.691h338.459q7.923 12.769 17.269 24.423 9.346 11.653 21.346 20.961H229.54Zm71.845-166.537-18.999-33.538 171.999-298.922H506l106.999 186.229q-8.539 8.692-16.731 17.615-8.192 8.923-15.269 19.461L480-585.078 342-344.231h208.46q-3.461 10.923-5.808 22.269-2.346 11.346-3.346 23.115H301.385ZM735.23-140.001v-120h-120v-45.384h120v-120h45.384v120h120v45.384h-120v120H735.23Z"/></svg>