<svg xmlns="http://www.w3.org/2000/svg" width="48" height="48" viewBox="0 96 960 960"><path d="M535.566 662.23q9.741 0 16.126-6.515 6.384-6.514 6.384-16.177V533.307h106.231q9.663 0 16.178-6.567 6.514-6.567 6.514-16.307 0-9.741-6.514-16.125-6.515-6.385-16.178-6.385H558.076V381.692q0-9.663-6.567-16.177Q544.943 359 535.202 359t-16.125 6.515q-6.384 6.514-6.384 16.177v106.231H406.461q-9.663 0-16.177 6.567-6.514 6.567-6.514 16.307 0 9.741 6.514 16.125 6.514 6.385 16.177 6.385h106.232v106.231q0 9.663 6.566 16.177 6.567 6.515 16.307 6.515ZM278.463 825.229q-23.529 0-40.611-17.082-17.081-17.082-17.081-40.611V253.694q0-23.529 17.081-40.611 17.082-17.082 40.611-17.082h513.843q23.528 0 40.61 17.082t17.082 40.611v513.842q0 23.529-17.082 40.611-17.082 17.082-40.61 17.082H278.463Zm0-45.384h513.843q5.385 0 8.846-3.462 3.462-3.462 3.462-8.847V253.694q0-5.385-3.462-8.847-3.461-3.462-8.846-3.462H278.463q-5.385 0-8.847 3.462-3.462 3.462-3.462 8.847v513.842q0 5.385 3.462 8.847 3.462 3.462 8.847 3.462ZM167.694 935.997q-23.528 0-40.61-17.082-17.082-17.081-17.082-40.61V341.77q0-9.663 6.567-16.177 6.566-6.514 16.307-6.514t16.125 6.514q6.385 6.514 6.385 16.177v536.535q0 5.385 3.462 8.847 3.461 3.462 8.846 3.462h536.535q9.663 0 16.177 6.566 6.515 6.567 6.515 16.307 0 9.741-6.515 16.126-6.514 6.384-16.177 6.384H167.694Zm98.46-694.612v538.46-538.46Z"/></svg>