<svg xmlns="http://www.w3.org/2000/svg" width="48" height="48" viewBox="0 -960 960 960"><path d="M480.196-370.462q9.727 0 16.111-6.524 6.385-6.524 6.385-16.168v-60.154h60.154q9.644 0 16.168-6.58 6.524-6.58 6.524-16.307 0-9.727-6.524-16.112-6.524-6.384-16.168-6.384h-60.154v-60.539q0-9.269-6.58-15.981-6.581-6.711-16.308-6.711t-16.111 6.711q-6.385 6.712-6.385 15.981v60.539h-60.154q-9.644 0-16.168 6.58-6.524 6.58-6.524 16.307 0 9.727 6.524 16.112 6.524 6.384 16.168 6.384h60.154v60.154q0 9.644 6.58 16.168 6.581 6.524 16.308 6.524ZM192.693-205.385q-9.645 0-16.168-6.58-6.524-6.58-6.524-16.307 0-9.728 6.524-16.112 6.523-6.385 16.168-6.385h60.154v-309.077q0-79.307 49.692-144.076 49.692-64.769 130.308-80.231v-28.615q0-19.955 13.38-32.439 13.38-12.484 33.538-12.484 20.158 0 33.773 12.484 13.615 12.484 13.615 32.439v28.615q80.616 15.462 130.616 80.231 50 64.769 50 144.076v309.077h59.538q9.644 0 16.168 6.581 6.524 6.58 6.524 16.307 0 9.727-6.524 16.112-6.524 6.384-16.168 6.384H192.693ZM480-87.693q-28.923 0-50.615-21-21.692-21-21.692-51.307h144.614q0 30.307-21 51.307-21 21-51.307 21Z"/></svg>