<svg xmlns="http://www.w3.org/2000/svg" width="48" height="48" viewBox="0 -960 960 960"><path d="M715.307-295v92.461q0 6.462 4.836 10.654 4.835 4.192 11.153 4.192 5.934 0 10.127-4.792 4.192-4.792 4.192-10.669V-295h92.846q6.077 0 10.269-4.836 4.192-4.835 4.192-10.769 0-6.318-4.192-10.511-4.192-4.192-10.269-4.192h-92.846v-92.461q0-6.462-4.192-10.654-4.193-4.192-10.127-4.192-6.318 0-11.153 4.192-4.836 4.192-4.836 10.654v92.461h-92.461q-6.077 0-10.461 4.192Q608-316.923 608-310.605q0 5.934 4.792 10.769Q617.585-295 623.846-295h91.461Zm14.245 154.999q-71.475 0-121.282-49.89-49.807-49.889-49.807-120.571 0-71.896 49.793-121.986 49.793-50.089 121.268-50.089 71.091 0 121.09 50.089 50 50.09 50 121.986 0 70.682-49.986 120.571-49.985 49.89-121.076 49.89ZM180.001-277.694v-363.459q0-13.962 5.943-26.039 5.942-12.076 17.288-20.038l242.307-182.691q14.787-11.616 34.239-11.616 19.453 0 34.683 11.616L756.768-687.23q11.346 7.974 17.288 20.07 5.943 12.096 5.943 26.079v62.85q0 8.1-6.28 13.55-6.279 5.45-15.182 3.834-54.692-7.153-109.115 11.116-54.423 18.269-96.73 59.577-47.923 46.692-65.692 110.23-17.77 63.538-1.385 126.846 3.23 13.23-4.53 23.154-7.759 9.923-19.855 9.923H237.694q-23.5 0-40.596-17.097-17.097-17.096-17.097-40.596Z"/></svg>