<svg xmlns="http://www.w3.org/2000/svg" width="48" height="48" viewBox="0 -960 960 960"><path d="m388.155-490.539 56.538-155.537q6.461-18 23.884-25.5 17.422-7.499 35.422-1.423l280.768 101.923q52.077 18.692 75.192 68.461 23.115 49.769 4.423 102.845l-27.076 72.999q-4.616 11.231-14.831 16.538-10.216 5.308-21.631.693L405.77-454.078q-11.615-4.615-16.923-14.639-5.308-10.023-.692-21.822ZM488.23-631.23q-7.853 22.16-14.85 42.311-6.996 20.15-14.996 40.996l-21.308 57.077L488.23-631.23Zm278.922 431.997-650.766-237.46q-8.307-3.846-12.768-12.041-4.462-8.194-.616-16.923 3.846-8.728 11.961-12.881 8.116-4.154 16.423-.693l651.766 237.23q8.923 3.846 12.769 11.846t.308 16.922q-3.539 8.923-11.846 13.385-8.308 4.461-17.231.615ZM265.693-511.847q-42.852 0-72.387-29.727-29.535-29.728-29.535-72.195 0-42.467 29.535-72.195 29.535-29.727 72.387-29.727 42.467 0 72.194 29.727 29.728 29.728 29.728 72.195 0 42.467-29.728 72.195-29.727 29.727-72.194 29.727Zm-.226-45.384q24.187 0 40.476-16.241 16.288-16.241 16.288-40.25 0-24.008-16.245-40.297-16.245-16.288-40.259-16.288-24.38 0-40.476 16.241t-16.096 40.25q0 24.009 16.062 40.297 16.062 16.288 40.25 16.288Zm171.609 66.385 363.846 132.384 21.092-57.692q12.061-33.846-3.669-67-15.731-33.153-49.688-45.834L488.23-631.23l-51.154 140.384ZM266.078-613.384Z"/></svg>