<svg xmlns="http://www.w3.org/2000/svg" width="48" height="48" viewBox="0 -960 960 960"><path d="m378.924-464.693 66.153-183.152q5.692-17.615 23.115-24.923 17.423-7.307 35.038-1.231l281.537 101.923q52.077 18.308 75.384 68.269 23.308 49.961 4.231 102.653l-36.307 100.229-449.151-163.768Zm388.613 264.46L116.386-438.078q-8.307-3.846-12.768-12.153-4.462-8.308-.616-16.615 3.846-8.923 12.154-13.077 8.307-4.154 16.615-.308l651.381 236.845q9.308 3.846 12.961 11.846 3.654 8 .808 16.923-3.846 9.307-12.154 13.769-8.307 4.461-17.23.615ZM265.693-512.232q-42.692 0-72.307-29.807-29.615-29.807-29.615-72.115 0-42.307 29.615-72.114 29.615-29.807 72.307-29.807 42.307 0 72.114 29.807 29.808 29.807 29.808 72.114 0 42.308-29.808 72.115-29.807 29.807-72.114 29.807Z"/></svg>