<svg xmlns="http://www.w3.org/2000/svg" width="48" height="48" viewBox="0 -960 960 960"><path d="M100.001-277.694v-484.612q0-23.529 17.082-40.611 17.082-17.082 40.611-17.082h644.612q23.529 0 40.611 17.082 17.082 17.082 17.082 40.611v484.612q0 23.5-17.097 40.596-17.096 17.097-40.596 17.097h-84.999q-9.644 0-16.168-6.581-6.524-6.58-6.524-16.307 0-9.727 6.524-16.112 6.524-6.384 16.168-6.384h84.999q4.616 0 8.463-3.846 3.846-3.847 3.846-8.463v-484.612q0-4.616-3.846-8.463-3.847-3.846-8.463-3.846H157.694q-4.616 0-8.463 3.846-3.846 3.847-3.846 8.463v484.612q0 4.616 3.846 8.463 3.847 3.846 8.463 3.846h84.384q9.644 0 16.168 6.58 6.524 6.58 6.524 16.307 0 9.728-6.524 16.112-6.524 6.385-16.168 6.385h-84.384q-23.5 0-40.596-17.097-17.097-17.096-17.097-40.596Zm245.308 138.308q-10.374 0-16.303-6.756-5.928-6.757-5.928-15.475 0-4.066 1.522-7.731 1.521-3.664 5.205-7.227l129.83-129.829q4.75-4.75 10.057-6.75 5.308-2 10.808-2t10.308 2q4.807 2 9.557 6.75l129.83 129.829q3.573 3.477 5.15 7.756 1.577 4.279 1.577 7.644 0 8.25-5.859 14.712t-16.372 7.077H345.309ZM480-497.308Z"/></svg>