<svg xmlns="http://www.w3.org/2000/svg" width="48" height="48" viewBox="0 96 960 960"><path d="m362.693 721.076 349.461-95.307q15.461-4.615 23.653-14.846 8.193-10.231 3.577-25.692-4.23-15.462-16.653-21-12.424-5.538-26.885-1.923l-103 27.385-155-150.077q-4.231-4.231-10.269-6.039-6.038-1.807-12.269-.192-13.462 3.231-18.385 14.077-4.923 10.846 1.923 23.307l84.385 148-113.692 30.616-45.77-36.616q-2.615-2-6.346-2.923-3.73-.923-6.961.693-6.846 2.23-9.269 8.461t.807 12.692l43.462 81.384q3 5 7.615 7.5 4.616 2.5 9.616.5ZM145.385 875.999q-19.461 0-32.422-12.962-12.962-12.961-12.962-32.422V691.847q37-12.616 60.731-43.847t23.731-72q0-40.769-23.731-72.5t-60.731-43.347V321.385q0-19.461 12.962-32.422 12.961-12.962 32.422-12.962h669.23q19.461 0 32.422 12.962 12.962 12.961 12.962 32.422v509.23q0 19.461-12.962 32.422-12.961 12.962-32.422 12.962h-669.23Z"/></svg>