<svg xmlns="http://www.w3.org/2000/svg" width="48" height="48" viewBox="0 96 960 960"><path d="M738 434.231q-24.779 24.686-55.466 36.689-30.688 12.004-63.342 12.004-32.653 0-63.473-12.014T500 434.231l-75-75q-17.657-17.769-39.59-26.538-21.932-8.769-45.441-8.769-23.508 0-45.354 8.577T255 358.847l-46 46q-7.128 7.077-16.526 7.077-9.397 0-16.474-7.118-6.692-6.835-6.692-16.358 0-9.524 6.692-16.216l46-46q24.881-24.846 55.471-36.769 30.59-11.923 62.482-11.923 31.893 0 62.022 11.923 30.129 11.923 55.025 36.769l75 75q18.253 18.191 40.242 27.25 21.989 9.058 46.143 9.058t46.419-9.083q22.266-9.083 40.581-27.225L752 354.617q7.128-7.077 16.526-7.077 9.397 0 16.474 7.117 6.692 6.836 6.692 16.359 0 9.523-6.692 16.215l-47 47ZM738 630q-25.027 24.846-55.783 36.769-30.756 11.923-63.217 11.923t-63.217-11.923Q525.027 654.846 500 630l-75-75q-17.657-17.77-39.59-26.539-21.932-8.769-45.441-8.769-23.508 0-45.354 8.577T255 554.615l-47 47q-6.026 6.077-15.974 6.077-9.949 0-16.674-6.05-6.428-7.117-6.428-16.841t6.461-16.185L222 522q24.881-24.846 55.471-36.769 30.59-11.923 62.482-11.923 31.893 0 62.022 11.923Q432.104 497.154 457 522l75 75q18.025 18.192 40.243 27.25 22.218 9.058 46.565 9.058 24.346 0 46.234-9.052T705.385 597L752 550.385q7.128-7.077 16.526-7.077 9.397 0 16.474 7.118 6.692 6.835 6.692 16.358T785 583l-47 47Zm-1 195.768q-25.016 24.846-55.278 36.769Q651.461 874.46 619 874.46t-63.229-12.115Q525.003 850.229 500 825.383l-76-74.615q-17.657-17.769-39.587-26.539-21.929-8.769-45.434-8.769-23.504 0-45.357 8.577-21.853 8.577-39.622 26.346l-46.385 46.385q-6.743 6.692-16.141 6.692-9.397 0-16.507-6.733-6.043-6.434-6.043-16.222T175 764.769l47-47q24.482-24.847 54.833-36.77 30.35-11.923 62.167-11.923 31.643 0 62.345 11.923 30.701 11.923 55.655 36.77l75 75q18.314 18.141 40.388 27.224 22.073 9.083 46.227 9.083 24.154 0 46.164-9.052t40.606-27.255L752 746.153q7.077-7.077 16-7.077t15.916 6.994q7.16 7.211 7.16 16.416T784 778.768l-47 47Z"/></svg>