<svg xmlns="http://www.w3.org/2000/svg" width="48" height="48" viewBox="0 -960 960 960"><path d="m437.385-382.769-76.078-76.077q-6.762-6.692-16.342-6.384-9.58.308-16.272 7.052-7.077 7.284-7.077 16.577 0 9.293 7.077 15.985l88.461 87.846q8.58 8.615 20.021 8.615 11.44 0 20.44-8.615l173.692-174.076q6.692-6.375 6.885-15.956.192-9.582-6.937-16.467-7.13-6.884-16.282-6.884-9.152 0-16.28 7.077L437.385-382.769Zm41.897 281.152q-69.872 0-131.807-26.461-61.936-26.462-107.936-72.269-45.999-45.808-72.768-107.715-26.77-61.907-26.77-132.479 0-70.572 26.77-132.246 26.769-61.674 72.768-107.981 46-46.308 107.936-72.769 61.935-26.462 131.807-26.462 69.872 0 131.717 26.462 61.846 26.461 108.154 72.769 46.307 46.307 72.769 108.01 26.461 61.702 26.461 132.307 0 70.605-26.461 132.45-26.462 61.846-72.769 107.654-46.308 45.807-108.154 72.269-61.845 26.461-131.717 26.461Zm.103-337.768ZM88.694-683.192q-7.077-7.269-6.77-16.192.308-8.923 7.385-16l117.538-114.692q6.692-6.076 16.077-5.769 9.384.308 15.922 6.769 7.077 6.692 6.577 15.808-.5 9.115-7.023 15.739l-117.707 114.76q-7.077 6.077-16.5 5.962-9.423-.116-15.5-6.385Zm781.382-.192q-6.462 6.461-15.692 6.769-9.231.308-16.308-6.154L720.538-797.461q-6.692-5.692-7.192-15.307-.5-9.616 6.577-16.308 6.077-6.461 15.307-6.769 9.231-.307 16.307 5.769l117.539 114.692q6.692 6.154 7.384 15.539.692 9.384-6.384 16.461ZM479.273-147q122.419 0 208.073-85.668Q773-318.336 773-440.658q0-122.483-85.668-208.22t-207.99-85.737q-122.483 0-208.22 85.735t-85.737 208.153q0 122.419 85.735 208.073Q356.855-147 479.273-147Z"/></svg>