<svg xmlns="http://www.w3.org/2000/svg" width="48" height="48" viewBox="0 -960 960 960"><path d="M137.897-100.001q-9.741 0-16.125-6.515-6.385-6.514-6.385-16.177v-714.614q0-9.663 6.567-16.177 6.566-6.515 16.307-6.515t16.125 6.515q6.385 6.514 6.385 16.177v714.614q0 9.663-6.567 16.177-6.567 6.515-16.307 6.515Zm172.104-201.154q-17.724 0-30.4-12.717-12.676-12.717-12.676-30.499 0-17.783 12.676-30.36 12.676-12.576 30.4-12.576h251.535q17.724 0 30.401 12.717 12.676 12.717 12.676 30.499 0 17.783-12.676 30.36-12.677 12.576-30.401 12.576H310.001Zm0-271.538q-17.724 0-30.4-12.717-12.676-12.717-12.676-30.499 0-17.783 12.676-30.36 12.676-12.576 30.4-12.576h491.535q17.724 0 30.401 12.717 12.676 12.717 12.676 30.499 0 17.783-12.676 30.36-12.677 12.576-30.401 12.576H310.001Z"/></svg>