<svg xmlns="http://www.w3.org/2000/svg" width="48" height="48" viewBox="0 0 48 48"><path d="M41.85 43q-.5 0-.8-.325-.3-.325-.3-.825v-8.7H37.9q-.6 0-1.025-.425-.425-.425-.425-1.025V16.3q0-.6.425-1.025.425-.425 1.025-.425h2.85v-8.7q0-.5.325-.825Q41.4 5 41.9 5q.45 0 .775.325T43 6.15v35.7q0 .5-.325.825-.325.325-.825.325ZM6.1 43q-.45 0-.775-.325T5 41.85V6.15q0-.5.325-.825Q5.65 5 6.15 5q.5 0 .8.325.3.325.3.825v8.7h2.85q.6 0 1.025.425.425.425.425 1.025v15.4q0 .6-.425 1.025-.425.425-1.025.425H7.25v8.7q0 .5-.325.825Q6.6 43 6.1 43Z"/></svg>