<svg xmlns="http://www.w3.org/2000/svg" width="48" height="48" viewBox="0 -960 960 960"><path d="M463.69-796.77q-6.38-6.38-6.38-16.3v-87.31q0-9.93 6.38-16.31 6.39-6.38 16.31-6.38 9.92 0 16.31 6.38 6.38 6.38 6.38 16.31v87.31q0 9.92-6.38 16.3-6.39 6.39-16.31 6.39-9.92 0-16.31-6.39Zm-189.38 39.69-67.85-67.46q-6.69-6.69-6.69-16 0-9.3 6.69-15.8 6.7-6.5 16-6.5 9.31 0 16 6.69l68.08 67.08q6.69 6.69 6.88 16 .2 9.3-6.88 15.99-6.69 6.7-16.11 6.7-9.43 0-16.12-6.7Zm11.84 495.39h86.54q11.46 0 19.39-7.93 7.92-7.92 7.92-19.57 0-11.66-7.92-19.39-7.93-7.73-19.39-7.73h-86.54q-11.46 0-19.38 7.73-7.92 7.73-7.92 19.39 0 11.65 7.92 19.57 7.92 7.93 19.38 7.93Zm301.16 0h86.54q11.46 0 19.38-7.93 7.92-7.92 7.92-19.57 0-11.66-7.92-19.39t-19.38-7.73h-86.54q-11.46 0-19.39 7.73-7.92 7.73-7.92 19.39 0 11.65 7.92 19.57 7.93 7.93 19.39 7.93Zm75.07-273.54q8.62 8.61 20.23 8.61 11.62 0 20.23-8.61L805-638q4.84-4.85 4.84-11.5t-5.03-11.88q-5.04-5.23-11.5-5.23-6.47 0-11.7 5.23l-99 100L638-606q-4.85-4.85-11.5-5.04-6.65-.19-11.69 4.85-5.04 5.04-5.04 11.5t4.84 11.69l47.77 47.77Zm-77.19 63.11q-51.11-51.11-51.11-124.61t51.11-124.62q51.12-51.11 124.62-51.11t124.61 51.11q51.12 51.12 51.12 124.62t-51.12 124.61Q783.31-421 709.81-421t-124.62-51.12ZM147.85-67.85Q140-75.69 140-87.69v-295.16q0-5 .5-9.5t2.5-9.11l78.69-227.92q4.47-13.39 16.5-22 12.04-8.62 27.04-8.62h124.39v-40.38q0-11.08 7.15-19 7.15-7.93 18.23-7.93h66.31q8.3 0 11.84 7 3.54 7-.92 13.7-9.54 16.92-15.73 35.88-6.19 18.96-9.04 39.35-1 7.38-6 11.88-5 4.5-12 4.5H263l-62.31 179.85h299q10.23 0 19.85 4.04 9.61 4.03 17.23 11.88 34.08 34.23 79.34 52.77 45.27 18.54 93.89 18.54 20.38 0 39.08-3.2 18.69-3.19 36.69-9.19 13.07-4.23 23.65 2.92Q820-350.23 820-337.54v249.85q0 12-7.85 19.84Q804.31-60 792.31-60t-20.16-8.35Q764-76.69 764-88.31v-54.54H195.38v55.16q0 12-7.84 19.84Q179.69-60 167.69-60q-12 0-19.84-7.85Z"/></svg>