<svg xmlns="http://www.w3.org/2000/svg" width="48" height="48" viewBox="0 -960 960 960"><path d="M87.31-219.62V-423q0-16.54 11.78-28.08 11.78-11.53 28-11.53t27.83 11.53q11.62 11.54 11.62 28.08v203.38q0 16.16-11.78 27.89t-28 11.73q-16.22 0-27.84-11.73-11.61-11.73-11.61-27.89Zm235.46 0v-301.76q0-16.54 11.78-28.08T362.74-561q16.41 0 27.84 11.54Q402-537.92 402-521.38v301.76q0 16.16-11.59 27.89-11.58 11.73-28 11.73-16.41 0-28.02-11.73-11.62-11.73-11.62-27.89Zm234.85 0v-401.53q0-16.16 11.58-27.89 11.59-11.73 28-11.73t28.03 11.73q11.61 11.73 11.61 27.89v401.53q0 16.16-11.77 27.89Q613.29-180 596.88-180q-16.42 0-27.84-11.73-11.42-11.73-11.42-27.89Zm235.46 0v-520.15q0-16.15 11.77-27.88 11.78-11.73 28-11.73 16.23 0 27.84 11.73 11.62 11.73 11.62 27.88v520.15q0 16.16-11.78 27.89t-28 11.73q-16.22 0-27.84-11.73-11.61-11.73-11.61-27.89Z"/></svg>