<svg xmlns="http://www.w3.org/2000/svg" width="48" height="48" viewBox="0 -960 960 960"><path d="M87.31-219.62V-423q0-16.54 11.78-28.08 11.78-11.53 28-11.53t27.83 11.53q11.62 11.54 11.62 28.08v203.38q0 16.16-11.78 27.89t-28 11.73q-16.22 0-27.84-11.73-11.61-11.73-11.61-27.89Zm235.46 0v-301.76q0-16.54 11.78-28.08T362.74-561q16.41 0 27.84 11.54Q402-537.92 402-521.38v301.76q0 16.16-11.59 27.89-11.58 11.73-28 11.73-16.41 0-28.02-11.73-11.62-11.73-11.62-27.89Zm470.31-253.46v-266.69q0-16.15 11.77-27.88 11.78-11.73 28-11.73 16.23 0 27.84 11.73 11.62 11.73 11.62 27.88V-470q-19.39-5.31-39.31-5.92-19.92-.62-39.92 2.84Zm4.23 224.85H740q-9.66 0-16.17-6.58-6.52-6.57-6.52-16.3 0-9.74 6.52-16.12 6.51-6.39 16.17-6.39h57.31v-57.3q0-9.66 6.57-16.18t16.31-6.52q9.73 0 16.12 6.52 6.38 6.52 6.38 16.18v57.3H900q9.65 0 16.17 6.58 6.52 6.57 6.52 16.3 0 9.74-6.52 16.12-6.52 6.39-16.17 6.39h-57.31v57.31q0 9.65-6.57 16.17-6.58 6.52-16.31 6.52-9.73 0-16.12-6.52-6.38-6.52-6.38-16.17v-57.31ZM557.62-219v-402.15q0-16.16 11.58-27.89 11.59-11.73 28-11.73t28.03 11.73q11.61 11.73 11.61 27.89v257.53q-10.61 21.62-16.23 44.63-5.61 23.02-5.61 48.23 0 19.94 3.69 38.08 3.69 18.14 10.08 35.52-5.46 8.58-13.54 12.87-8.08 4.29-18.16 4.29-15.96 0-27.71-11.49-11.74-11.49-11.74-27.51Z"/></svg>