<svg xmlns="http://www.w3.org/2000/svg" width="48" height="48" viewBox="0 -960 960 960"><path d="M265.385-148.078v30.384q0 4.616 3.846 8.463 3.847 3.846 8.463 3.846h404.612q4.616 0 8.463-3.846 3.846-3.847 3.846-8.463v-30.384h-429.23Zm0-663.844h429.23v-30.384q0-4.616-3.846-8.463-3.847-3.846-8.463-3.846H277.694q-4.616 0-8.463 3.846-3.846 3.847-3.846 8.463v30.384Zm0 0v-42.693 42.693Zm0 663.844v42.693-42.693Zm474.462-309.846H465.385q-5.385 0-8.847 3.462-3.462 3.462-3.462 8.847v119.846q0 9.663-6.566 16.178-6.567 6.514-16.308 6.514-9.74 0-16.125-6.514-6.384-6.515-6.384-16.178v-119.846q0-23.894 17.048-40.793t40.644-16.899h274.462l-71.385-70.77q-6.692-5.942-6.885-15.432-.192-9.491 6.718-16.199 7.244-7.061 16.166-7.061 8.923 0 16 7.077l104.846 104.846q8.615 8.58 8.615 20.021 0 11.44-8.615 20.44L700.461-355.539q-6.327 6.327-15.625 6.51-9.297.182-16.207-6.527-7.244-7.06-7.244-15.983 0-8.922 7.077-15.999l71.385-70.386ZM277.694-60.002q-23.596 0-40.645-17.047-17.048-17.048-17.048-40.645v-724.612q0-23.596 17.048-40.645 17.049-17.048 40.645-17.048h404.612q23.596 0 40.645 17.048 17.048 17.049 17.048 40.645v113.307q0 9.663-6.567 16.178-6.567 6.514-16.307 6.514-9.741 0-16.126-6.514-6.384-6.515-6.384-16.178v-37.539h-429.23v573.076h429.23v-37.539q0-9.663 6.567-16.178 6.566-6.514 16.307-6.514t16.125 6.514q6.385 6.515 6.385 16.178v113.307q0 23.597-17.048 40.645-17.049 17.048-40.645 17.048H277.694Z"/></svg>