<svg xmlns="http://www.w3.org/2000/svg" width="48" height="48" viewBox="0 -960 960 960"><path d="M549.909-279.231q18.054 0 35.168-6.987t30.461-19.652l18-17.694q6.077-6.345 5.769-14.237-.307-7.891-6.384-14.353-6.601-6.076-14.423-6.076t-14.5 6.538l-16.923 16.923q-7.244 7.441-17.031 10.797-9.787 3.357-19.993 3.357-10.207 0-20.032-3.357-9.825-3.356-17.098-10.797l-37.55-37.55q-13.066-13.065-30.248-19.488-17.182-6.423-35.269-6.423t-35.125 6.423q-17.038 6.423-30.269 19.347l-18 17.607q-6.077 6.301-5.769 14.192.307 7.892 6.384 14.353 6.601 6.077 14.423 6.077t14.5-6.538l16.923-16.924q7.244-7.65 17.031-11.094 9.787-3.444 19.993-3.444 10.207 0 20.032 3.444t17.098 11.094l37.594 37.485q13.031 12.912 30.107 19.945 17.076 7.032 35.131 7.032Zm0-115.769q18.054 0 35.168-6.987t30.461-19.652l18-17.694q6.077-6.345 5.769-14.237-.307-7.891-6.384-14.352-6.601-6.077-14.423-6.077t-14.5 6.538l-16.923 16.923q-7.244 7.441-17.031 10.797-9.787 3.357-19.993 3.357-10.207 0-20.032-3.357-9.825-3.356-17.098-10.797l-37.55-37.55q-13.066-13.065-30.248-19.488-17.182-6.423-35.269-6.423t-35.125 6.423q-17.038 6.423-30.269 19.347l-18 17.607q-6.077 6.301-5.769 14.192.307 7.892 6.384 14.353Q333.678-436 341.5-436t14.5-6.538l16.923-16.923q7.244-7.651 17.031-11.095Q399.741-474 409.947-474q10.207 0 20.032 3.444t17.098 11.095l37.594 37.484q13.031 12.912 30.107 19.945Q531.854-395 549.909-395Zm0-115.769q18.054 0 35.168-6.987t30.461-19.652l18-17.694q6.077-6.345 5.769-14.237-.307-7.891-6.384-14.352-6.601-6.077-14.423-6.077T604-583.23l-16.923 16.923q-7.244 7.441-17.031 10.797-9.787 3.357-19.993 3.357-10.207 0-20.032-3.357-9.825-3.356-17.098-10.797l-37.55-37.55q-13.066-13.065-30.248-18.988-17.182-5.923-35.269-5.923t-35.125 5.923q-17.038 5.923-30.269 18.847l-18 17.607q-6.077 6.301-5.769 14.192.307 7.892 6.384 14.353 6.601 6.077 14.423 6.077t14.5-6.538l16.923-16.923q7.384-6.77 17.154-10.654 9.769-3.885 19.923-3.885 10.154 0 19.979 3.444t17.098 11.095l37.594 37.484q13.031 12.912 30.107 19.945 17.076 7.032 35.131 7.032ZM237.694-180.001q-23.5 0-40.596-17.097-17.097-17.096-17.097-40.596v-363.459q0-13.962 5.943-26.039 5.942-12.076 17.288-20.038l242.307-182.307q14.787-11.615 34.239-11.615 19.453 0 34.683 11.615L756.768-647.23q11.346 7.962 17.288 20.038 5.943 12.077 5.943 26.039v363.459q0 23.5-17.097 40.596-17.096 17.097-40.596 17.097H237.694Z"/></svg>