<svg xmlns="http://www.w3.org/2000/svg" width="48" height="48" viewBox="0 -960 960 960"><path d="M479.939-774.306q122.565 0 208.466 85.84 85.901 85.84 85.901 208.405t-85.84 208.466q-85.84 85.901-208.405 85.901t-208.466-85.84q-85.901-85.84-85.901-208.405t85.84-208.466q85.84-85.901 208.405-85.901Zm.152 543.229q102.755 0 175.793-73.129 73.039-73.129 73.039-175.885 0-102.755-73.129-175.793-73.129-73.039-175.885-73.039-102.755 0-175.793 73.129-73.039 73.129-73.039 175.885 0 102.755 73.129 175.793 73.129 73.039 175.885 73.039ZM343.77-562.779q0 14.969 10.236 25.028 10.237 10.058 25.369 10.058 15.133 0 25.302-10.126t10.169-25.095q0-14.969-10.237-25.219-10.236-10.251-25.369-10.251-15.132 0-25.301 10.236-10.169 10.237-10.169 25.369Zm201.384 0q0 14.969 10.237 25.028 10.236 10.058 25.369 10.058 15.132 0 25.301-10.126 10.169-10.126 10.169-25.095t-10.236-25.219q-10.237-10.251-25.369-10.251-15.133 0-25.302 10.236-10.169 10.237-10.169 25.369ZM60.002-750.615v-91.691q0-23.5 17.096-40.596 17.096-17.097 40.596-17.097h91.691q9.644 0 16.168 6.581 6.524 6.58 6.524 16.307 0 9.727-6.524 16.112-6.524 6.384-16.168 6.384h-91.691q-5.385 0-8.847 3.462-3.462 3.462-3.462 8.847v91.691q0 9.644-6.58 16.168-6.58 6.524-16.307 6.524-9.728 0-16.112-6.524-6.384-6.524-6.384-16.168ZM209.385-60.001h-91.691q-23.5 0-40.596-17.097-17.096-17.096-17.096-40.596v-91.691q0-9.644 6.58-16.168 6.58-6.524 16.307-6.524 9.727 0 16.112 6.524 6.384 6.524 6.384 16.168v91.691q0 5.385 3.462 8.847 3.462 3.462 8.847 3.462h91.691q9.644 0 16.168 6.58 6.524 6.58 6.524 16.307 0 9.728-6.524 16.112-6.524 6.384-16.168 6.384Zm632.921-6.693h-91.691q-9.644 0-16.168-6.58-6.524-6.58-6.524-16.307 0-9.728 6.524-16.112 6.524-6.385 16.168-6.385h91.691q5.385 0 8.847-3.654 3.462-3.654 3.462-8.654v-92.307q0-9.644 6.58-16.168 6.58-6.524 16.307-6.524 9.728 0 16.112 6.524 6.385 6.524 6.385 16.168v92.307q0 23.5-17.097 40.596-17.096 17.096-40.596 17.096Zm12.309-683.921v-91.691q0-5.385-3.462-8.847-3.462-3.462-8.847-3.462h-91.691q-9.644 0-16.168-6.58-6.524-6.58-6.524-16.307 0-9.728 6.524-16.112 6.524-6.385 16.168-6.385h91.691q23.5 0 40.596 17.097 17.097 17.096 17.097 40.596v91.691q0 9.644-6.581 16.168-6.58 6.524-16.307 6.524-9.727 0-16.112-6.524-6.384-6.524-6.384-16.168ZM480-480Zm0 130.076q35.465 0 66.232-16.153Q577-382.231 598.23-409.308q6-9.897.385-19.987-5.615-10.09-17.686-10.09H379.071q-12.071 0-17.686 10.09t.385 19.987q21.23 27.077 51.998 43.231 30.767 16.153 66.232 16.153Z"/></svg>