<svg xmlns="http://www.w3.org/2000/svg" width="48" height="48" viewBox="0 96 960 960"><path d="M480.385 722.153q68.611 0 117.382-48.191 48.771-48.19 48.771-115.862 0-67.347-41.846-117.185-41.846-49.837-105.923-49.222-8.851 0-14.617 5.351-5.767 5.35-5.767 13.788-.193 8.322 4.942 14.476 5.134 6.153 13.057 6.153 48.693 0 79.231 38.036 30.539 38.035 30.539 88.551 0 51.376-36.514 87.549-36.515 36.172-88.693 36.172-27.947 0-52.447-11.192Q404 659.385 385.615 639q-5.813-6.176-14.099-7.934-8.285-1.758-15.365 1.97-8.073 5.118-7.689 14.81.385 9.692 7.231 17.154 23.537 27.124 56.211 42.139 32.674 15.014 68.481 15.014Zm-68.417-272.691q10.812 0 18.268-7.309 7.457-7.308 7.457-18.121 0-10.812-7.573-18.268-7.572-7.456-18.385-7.456-10.812 0-18.004 7.572-7.192 7.573-7.192 18.385 0 10.812 7.308 18.004 7.309 7.193 18.121 7.193Zm-57.231 55.769q10.812 0 18.269-7.116 7.456-7.116 7.456-18t-7.475-18.461q-7.476-7.577-18.491-7.577-11.016 0-18.102 7.693-7.086 7.694-7.086 18.577 0 10.884 7.308 17.884 7.309 7 18.121 7Zm-20.846 83.615q10.812 0 18.269-7.308 7.456-7.309 7.456-18.121 0-10.812-7.573-18.268-7.572-7.456-18.384-7.456-10.813 0-18.005 7.572-7.192 7.572-7.192 18.385 0 10.812 7.308 18.004 7.309 7.192 18.121 7.192ZM480 952.229q-3.667 0-7.361-.5t-6.232-1.518q-124.791-39.982-205.598-156.839-80.808-116.858-80.808-258.256V349.693q0-18.607 10.446-33.492 10.446-14.886 27.016-21.585l242.306-90.076q10.616-4 20.231-4 9.615 0 20.231 4l242.306 90.076q16.57 6.699 27.016 21.585 10.446 14.885 10.446 33.492v185.423q0 141.398-80.808 258.256-80.807 116.857-205.132 156.875-1.213.367-14.059 1.982Zm0-44.999Q591.923 870.769 663.269 767q71.346-103.769 71.346-232.077V347.001q0-3.077-1.539-5.385-1.538-2.308-4.231-3.077L485.77 247.462q-3.077-1.154-5.77-1.154-2.693 0-5.77 1.154l-243.075 91.077q-2.693.769-4.231 3.077-1.539 2.308-1.539 5.385v187.922q0 128.308 71.346 232.077T480 907.23Zm0-330.461Z"/></svg>