<svg xmlns="http://www.w3.org/2000/svg" width="48" height="48" viewBox="0 96 960 960"><path d="M480.013 714.769q9.91 0 16.487-6.394 6.576-6.395 6.576-16.298V522.383l65.309 65.693q6.564 6.693 15.743 6.693T600 588.076q6.692-6.692 6.692-15.679T600 556.462l-99.273-99.273q-4.727-4.727-9.676-6.727-4.948-2-11-2-6.051 0-10.859 2-4.807 2-9.556 6.727L360 556.462q-6.692 6.948-6.692 15.935T360 588.076q6.693 6.693 15.872 6.693t15.743-6.693l65.693-65.693v169.694q0 9.903 6.398 16.298 6.398 6.394 16.307 6.394Zm.054 241.23q-80.067 0-149.435-29.112-69.368-29.112-120.874-80.595-51.506-51.484-80.631-120.821-29.126-69.338-29.126-149.404 0-79.451 29.112-148.82 29.112-69.368 80.595-120.874 51.484-51.506 120.821-80.939 69.338-29.433 149.404-29.433 79.451 0 148.82 29.42 69.368 29.42 120.874 80.903 51.506 51.483 80.939 120.82 29.433 69.338 29.433 148.789 0 80.067-29.42 149.435-29.42 69.368-80.903 120.874-51.483 51.506-120.82 80.631-69.338 29.126-148.789 29.126ZM480 910.615q141.538 0 238.077-96.538Q814.615 717.538 814.615 576t-96.538-238.077Q621.538 241.385 480 241.385t-238.077 96.538Q145.385 434.462 145.385 576t96.538 238.077Q338.462 910.615 480 910.615ZM480 576Z"/></svg>