<svg xmlns="http://www.w3.org/2000/svg" width="48" height="48" viewBox="0 -960 960 960"><path d="m266.307-581.154 145.231 144.615q6.692 6.693 6.885 16.115.192 9.423-6.485 16.62-7.458 6.812-16.89 7-9.432.188-16.124-6.505L200.232-582q-4.615-4.615-6.615-9.556-2-4.941-2-10.808 0-5.482 2-10.482 2-5 6.615-9.615l179.692-180.923q6.758-7.076 16.148-7.076 9.389 0 16.082 7.076 7.076 7.077 6.884 16.192-.192 9.116-6.884 15.808L267.307-626.538h414.999q23.596 0 40.645 17.048 17.048 17.048 17.048 40.644v366.153q0 9.673-6.56 16.182-6.56 6.51-16.308 6.51-9.747 0-16.132-6.51-6.384-6.509-6.384-16.182v-366.153q0-5-3.462-8.654t-8.847-3.654H266.307Z"/></svg>