<svg xmlns="http://www.w3.org/2000/svg" width="48" height="48" viewBox="0 -960 960 960"><path d="M113.078-220.001q-23.615 0-40.654-17.039-17.038-17.038-17.038-40.654v-404.612q0-23.616 17.038-40.654 17.038-17.039 40.654-17.039h404.613q23.615 0 40.653 17.039 17.039 17.038 17.039 40.654v404.612q0 23.616-17.039 40.654-17.038 17.039-40.653 17.039H113.078Zm179.46-157.691-47.615-64.462q-4.616-5.615-11.423-5.807-6.808-.193-11.423 5.807l-43.461 56.538Q173-378 177.5-370.193q4.5 7.808 13.116 7.808h247.306q8.615 0 12.615-7.808 4-7.807-1-15.423l-63.076-84.153q-4.615-5.615-11.423-5.615t-11.423 5.615l-71.077 92.077Zm424.769 157.691q-9.923 0-16.308-6.385-6.384-6.384-6.384-16.307v-474.614q0-9.923 6.384-16.307 6.385-6.385 16.308-6.385t16.307 6.385q6.385 6.384 6.385 16.307v474.614q0 9.923-6.385 16.307-6.384 6.385-16.307 6.385Zm164.615 0q-9.922 0-16.307-6.385-6.384-6.384-6.384-16.307v-474.614q0-9.923 6.384-16.307 6.385-6.385 16.307-6.385 9.923 0 16.308 6.385 6.384 6.384 6.384 16.307v474.614q0 9.923-6.384 16.307-6.385 6.385-16.308 6.385Z"/></svg>