<svg xmlns="http://www.w3.org/2000/svg" width="48" height="48" viewBox="0 -960 960 960"><path d="m457.308-425.384-67.539-66.77q-7.077-6.692-16-6.884-8.923-.192-16.083 6.968-6.993 6.609-6.993 16.031 0 9.423 7.077 16.5L462-356.309q8.615 8.616 20.231 8.616 11.615 0 20.23-8.616l103.231-103.23q6.692-6.692 6.577-16.307-.116-9.615-7.076-16.19-6.809-6.81-15.924-6.81-9.115 0-16.192 6.077l-70.385 67.385v-172.385q0-9.904-6.398-16.298-6.398-6.394-16.307-6.394-9.91 0-16.294 6.394-6.385 6.394-6.385 16.298v172.385ZM197.694-140.001q-23.75 0-40.721-16.972-16.972-16.971-16.972-40.721v-564.612q0-23.75 16.972-40.721 16.971-16.972 40.721-16.972h205q-1.924-32.307 20.845-56.153 22.769-23.847 56.653-23.847 33.885 0 56.654 23.847 22.769 23.846 20.46 56.153h205q23.75 0 40.721 16.972 16.972 16.971 16.972 40.721v564.612q0 23.75-16.972 40.721-16.971 16.972-40.721 16.972H197.694ZM480-791.23q13.615 0 23.731-9.923 10.115-9.923 10.115-23.923 0-13.616-10.115-23.539-10.116-9.923-23.731-9.923-13.615 0-23.538 9.923t-9.923 23.539q0 14 9.923 23.923 9.923 9.923 23.538 9.923Z"/></svg>