<svg xmlns="http://www.w3.org/2000/svg" width="48" height="48" viewBox="0 -960 960 960"><path d="M480-290.001q11.884 0 20.365-8.48 8.481-8.481 8.481-20.365 0-11.5-8.481-19.981-8.481-8.48-20.365-8.48-11.884 0-20.173 8.48-8.288 8.481-8.288 19.981 0 11.884 8.288 20.365 8.289 8.48 20.173 8.48Zm-.426-118.922q9.733 0 16.118-6.519 6.384-6.519 6.384-16.173v-216.462q0-9.653-6.573-16.173-6.573-6.519-16.307-6.519-9.734 0-16.119 6.519-6.384 6.52-6.384 16.173v216.462q0 9.654 6.573 16.173 6.574 6.519 16.308 6.519Zm-281.88 268.922q-23.5 0-40.596-17.097-17.097-17.096-17.097-40.596v-564.612q0-23.5 17.097-40.596 17.096-17.097 40.596-17.097h205q-1.924-32.307 20.845-56.153 22.769-23.847 56.653-23.847 33.885 0 56.654 23.847 22.769 23.846 20.46 56.153h205q23.5 0 40.596 17.097 17.097 17.096 17.097 40.596v564.612q0 23.5-17.097 40.596-17.096 17.097-40.596 17.097H197.694ZM480-791.23q13.615 0 23.731-9.923 10.115-9.923 10.115-23.923 0-13.616-10.115-23.539-10.116-9.923-23.731-9.923-13.615 0-23.538 9.923t-9.923 23.539q0 14 9.923 23.923 9.923 9.923 23.538 9.923Z"/></svg>