<svg xmlns="http://www.w3.org/2000/svg" width="48" height="48" viewBox="0 -960 960 960"><path d="M422.615-404.615 319.538-507.692q-7.154-6.692-16.038-6.884-8.884-.193-15.961 6.884t-6.769 16q.308 8.923 6.769 15.999l114.846 116.462q8.58 8.615 20.021 8.615 11.44 0 20.44-8.615l228.846-229.231q6.692-6.692 6.884-16.115.193-9.423-6.884-16.499-7.077-7.077-16.308-7.077-9.23 0-16.307 7.077L422.615-404.615ZM197.694-140.001q-23.596 0-40.645-17.048-17.048-17.049-17.048-40.645v-564.612q0-23.596 17.048-40.645 17.049-17.048 40.645-17.048h205q-1.924-32.307 20.845-56.153 22.769-23.847 56.461-23.847 34.077 0 56.846 23.847 22.769 23.846 20.46 56.153h205q23.596 0 40.645 17.048 17.048 17.049 17.048 40.645v564.612q0 23.596-17.048 40.645-17.049 17.048-40.645 17.048H197.694Zm0-45.384h564.612q4.616 0 8.463-3.846 3.846-3.847 3.846-8.463v-564.612q0-4.616-3.846-8.463-3.847-3.846-8.463-3.846H197.694q-4.616 0-8.463 3.846-3.846 3.847-3.846 8.463v564.612q0 4.616 3.846 8.463 3.847 3.846 8.463 3.846ZM479.919-791.23q13.535 0 23.731-9.923 10.196-9.923 10.196-23.731 0-13.808-10.196-23.731-10.196-9.923-23.731-9.923-13.534 0-23.457 9.923t-9.923 23.731q0 13.808 9.923 23.731 9.923 9.923 23.457 9.923ZM185.385-185.385v-589.23 589.23Z"/></svg>