<svg xmlns="http://www.w3.org/2000/svg" width="48" height="48" viewBox="0 -960 960 960"><path d="M117.232-260.001q-24.212 0-42.067-17.347-17.856-17.346-17.856-40.346v-484.612q0-23 17.082-40.346 17.081-17.347 40.61-17.347h644.613q23 0 40.346 17.347 17.346 17.346 17.346 40.346v224.614h-45.384v-193.847l-318.615 207q-4 2-7.692 3t-8.308 1q-4.615 0-8.307-1-3.693-1-7.308-3l-318.999-207v453.845q0 5.385 3.461 8.847 3.462 3.462 8.847 3.462h475.383v45.384H117.232Zm320.075-345.076 328.461-209.538H108.847l328.46 209.538Zm343.538 504.306q-52.923 0-88.999-37.497-36.077-37.498-36.077-90.425v-212.076q0-30.262 21.338-51.669 21.339-21.408 52.5-21.408 30.161 0 51.238 21.408 21.077 21.407 21.077 51.669v193.845q0 9.914-6.391 16.303-6.392 6.389-16.308 6.389t-16.3-6.389q-6.385-6.389-6.385-16.303v-195.899q0-13.485-7.192-23.523-7.193-10.039-19.885-10.039-12.693 0-20.501 10.039-7.808 10.038-7.808 23.346v215.922q0 35.308 22.501 61.462 22.5 26.154 57.385 26.154 32.884 0 54.577-25.039 21.692-25.038 21.692-59.731v-164.307q0-9.914 6.392-16.303 6.391-6.389 16.307-6.389 9.916 0 16.301 6.389 6.384 6.389 6.384 16.303v164.307q0 51.308-35.461 87.384-35.462 36.077-86.385 36.077ZM102.693-771.539v7-33.961.577-16.692 16.692-.77 34.154-7 466.154-466.154Z"/></svg>