<svg xmlns="http://www.w3.org/2000/svg" width="48" height="48"><path d="M24.05 36.8q.85 0 1.4-.55.55-.55.55-1.45v-6.6h2q.3 0 .525-.225.225-.225.225-.525v-7.7q0-1.1-1.1-1.65-1.1-.55-3.65-.55-2.5 0-3.625.55t-1.125 1.65v7.7q0 .3.225.525.225.225.525.225h2.05v6.65q0 .85.55 1.4.55.55 1.45.55zM24 43q-3.95 0-7.425-1.475-3.475-1.475-6.05-4.05-2.575-2.575-4.05-6.05Q5 27.95 5 24q0-3.95 1.475-7.425 1.475-3.475 4.05-6.05 2.575-2.575 6.05-4.05Q20.05 5 24 5q3.95 0 7.425 1.475 3.475 1.475 6.05 4.05 2.575 2.575 4.05 6.05Q43 20.05 43 24q0 3.95-1.475 7.425-1.475 3.475-4.05 6.05-2.575 2.575-6.05 4.05Q27.95 43 24 43zm0-2.25q7.1 0 11.925-4.825Q40.75 31.1 40.75 24q0-7.1-4.825-11.925Q31.1 7.25 24 7.25q-7.1 0-11.925 4.825Q7.25 16.9 7.25 24q0 7.1 4.825 11.925Q16.9 40.75 24 40.75zm0-24.65q1.05 0 1.75-.725t.7-1.775q0-1.05-.7-1.75t-1.75-.7q-1.05 0-1.75.7t-.7 1.75q0 1.05.7 1.775.7.725 1.75.725zm0 24.5q-7 0-11.8-4.8Q7.4 31 7.4 24q0-7 4.8-11.8Q17 7.4 24 7.4q7 0 11.8 4.8Q40.6 17 40.6 24q0 7-4.8 11.8Q31 40.6 24 40.6z"/></svg>