<svg xmlns="http://www.w3.org/2000/svg" width="48" height="48" viewBox="0 -960 960 960"><path d="M427.769-200.462q37.538 0 64.038-25.811t26.5-63.727v-192.769h83.692q11.587 0 19.832-8.105 8.245-8.105 8.245-20.153 0-11.664-8.245-19.78-8.245-8.115-19.832-8.115H511q-11.587 0-19.832 8.245-8.245 8.245-8.245 19.832v154.692q-10.231-9.769-24.491-15.154t-30.663-5.385q-36.249 0-61.163 25.457-24.913 25.456-24.913 61.807t24.913 62.658q24.914 26.308 61.163 26.308ZM237.694-100.001q-23.529 0-40.611-17.082-17.082-17.082-17.082-40.611v-644.612q0-23.529 17.082-40.611 17.082-17.082 40.611-17.082h323.691q12.06 0 22.761 4.808 10.7 4.808 18.7 12.423l159.922 159.922q7.615 8 12.423 18.7 4.808 10.701 4.808 22.761v483.691q0 23.529-17.082 40.611-17.082 17.082-40.611 17.082H237.694Zm324.845-573.615v-140.999H237.694q-4.616 0-8.463 3.846-3.846 3.847-3.846 8.463v644.612q0 4.616 3.846 8.463 3.847 3.846 8.463 3.846h484.612q4.616 0 8.463-3.846 3.846-3.847 3.846-8.463V-644.77h-143.23q-11.98 0-20.413-8.433-8.433-8.432-8.433-20.413ZM225.385-814.615v169.845-169.845 669.23-669.23Z"/></svg>