<svg xmlns="http://www.w3.org/2000/svg" width="48" height="48" viewBox="0 -960 960 960"><path d="M422.46-416.39q6.39-6.39 6.39-16.3v-254.62q0-9.91-6.4-16.3-6.39-6.39-16.3-6.39-9.92 0-16.3 6.39-6.39 6.39-6.39 16.3v254.62q0 9.91 6.39 16.3 6.39 6.39 16.31 6.39 9.92 0 16.3-6.39Zm147.69 0q6.39-6.39 6.39-16.3v-254.62q0-9.91-6.39-16.3-6.39-6.39-16.31-6.39-9.92 0-16.3 6.39-6.39 6.39-6.39 16.3v254.62q0 9.91 6.4 16.3 6.39 6.39 16.3 6.39 9.92 0 16.3-6.39ZM241.54-260l-92.46 92.46q-13.62 13.61-31.35 6.43Q100-168.3 100-187.77v-614.54q0-23.53 17.08-40.61T157.69-860h644.62q23.53 0 40.61 17.08T860-802.31v484.62q0 23.53-17.08 40.61T802.31-260H241.54Z"/></svg>