<svg xmlns="http://www.w3.org/2000/svg" width="48" height="48" viewBox="0 96 960 960"><path d="M197.694 955.999q-23.529 0-40.611-17.082-17.082-17.082-17.082-40.611V319.079q0-23.529 17.082-40.611 17.082-17.082 40.611-17.082h73.846v-44.924q0-10.523 7.367-17.799 7.367-7.277 18.115-7.277 10.748 0 17.825 7.277 7.077 7.276 7.077 17.799v44.924h317.691v-45.585q0-10.631 7.14-17.523 7.141-6.892 17.731-6.892 10.589 0 17.474 6.978 6.884 6.979 6.884 17.329v45.693h73.462q23.529 0 40.611 17.082 17.082 17.082 17.082 40.611v579.227q0 23.529-17.082 40.611-17.082 17.082-40.611 17.082H197.694Zm0-45.384h564.612q4.616 0 8.463-3.846 3.846-3.847 3.846-8.463V501.001h-589.23v397.305q0 4.616 3.846 8.463 3.847 3.846 8.463 3.846Zm-12.309-454.997h589.23V319.079q0-4.616-3.846-8.463-3.847-3.846-8.463-3.846H197.694q-4.616 0-8.463 3.846-3.846 3.847-3.846 8.463v136.539Zm0 0V306.77v148.848Zm283.384 347.304-25.999-60.076L379.232 715q-7.615-3.615-7.308-11.23.308-7.616 8.308-11.616l62.538-27.23 25.999-56.845q3.616-8 11.191-8 7.576 0 11.655 8l25.615 56.845 62.922 27.23q7.616 4 7.924 11.616.307 7.615-7.308 11.23l-63.538 27.846-25.615 60.076q-3.384 7.615-11.642 7.615-8.257 0-11.204-7.615Z"/></svg>