<svg xmlns="http://www.w3.org/2000/svg" width="48" height="48" viewBox="0 -960 960 960"><path d="m438.923-449.232 137.614-92.537q9.615-6.421 9.615-18.133 0-11.713-9.615-18.329l-137.614-92.537q-11-7.616-22.423-1.251-11.423 6.365-11.423 19.482v185.69q0 13.231 11.423 19.231 11.423 6 22.423-1.616ZM241.539-260.001l-92.461 92.46q-13.615 13.615-31.346 6.271-17.731-7.343-17.731-26.502v-614.534q0-23.529 17.082-40.611 17.082-17.082 40.611-17.082h644.612q23.529 0 40.611 17.082 17.082 17.082 17.082 40.611v484.612q0 23.529-17.082 40.611-17.082 17.082-40.611 17.082H241.539Zm-19.846-45.384h580.613q4.616 0 8.463-3.846 3.846-3.847 3.846-8.463v-484.612q0-4.616-3.846-8.463-3.847-3.846-8.463-3.846H157.694q-4.616 0-8.463 3.846-3.846 3.847-3.846 8.463v577.69l76.308-80.769Zm-76.308 0v-509.23 509.23Z"/></svg>