<svg xmlns="http://www.w3.org/2000/svg" width="48" height="48" viewBox="0 -960 960 960"><path d="m435.154-596.384 42.231-113.538h4.461l44 113.538h-90.692Zm45.027 200.152q-89.873 0-151.065-61.101-61.192-61.102-61.192-150.692t61.011-150.782q61.011-61.192 150.884-61.192 89.873 0 151.065 61.038 61.192 61.037 61.192 150.948 0 89.397-61.011 150.589-61.011 61.192-150.884 61.192Zm-56.468-169.999h112.364l22 59.231q1.615 5.231 6.458 8.346 4.842 3.115 10.491 3.115 9.685 0 14.56-7.538t1.706-16.35l-92.446-235.188q-1.616-3.564-5.262-6.243-3.646-2.68-8.507-2.68h-10.385q-4.615 0-8.461 2.68-3.846 2.679-5.461 6.243l-91.529 235.957q-3.163 7.943 1.999 15.531 5.162 7.588 14.341 7.588 4.881 0 9.612-2.889 4.73-2.89 6.346-8.187l22.174-59.616ZM159.42-90.001q-9.727 0-16.111-6.524-6.385-6.524-6.385-16.168v-125.692q0-9.644 6.58-16.168 6.581-6.523 16.308-6.523t16.111 6.523q6.385 6.524 6.385 16.168v125.692q0 9.644-6.58 16.168Q169.148-90 159.42-90Zm118.462 0q-9.727 0-16.112-6.524-6.384-6.524-6.384-16.168v-125.692q0-9.644 6.58-16.168 6.58-6.523 16.307-6.523 9.727 0 16.112 6.523 6.384 6.524 6.384 16.168v125.692q0 9.644-6.58 16.168Q287.609-90 277.882-90Zm118.461 0q-9.727 0-16.111-6.524-6.385-6.524-6.385-16.168v-125.692q0-9.644 6.58-16.168 6.58-6.523 16.308-6.523 9.727 0 16.111 6.523 6.385 6.524 6.385 16.168v125.692q0 9.644-6.58 16.168Q406.07-90 396.343-90ZM515-90q-9.644 0-16.168-6.524-6.523-6.524-6.523-16.168v-125.692q0-9.644 6.523-16.168 6.524-6.523 16.168-6.523h285.384q9.644 0 16.168 6.523 6.524 6.524 6.524 16.168v125.692q0 9.644-6.524 16.168Q810.028-90 800.384-90H515Z"/></svg>