<svg xmlns="http://www.w3.org/2000/svg" width="48" height="48" viewBox="0 0 48 48"><path d="M20.5 30q-.5 0-.825-.325-.325-.325-.325-.825v-9.7q0-.5.325-.825Q20 18 20.5 18q.5 0 .825.325.325.325.325.825v9.7q0 .5-.325.825Q21 30 20.5 30Zm7 0q-.5 0-.825-.325-.325-.325-.325-.825v-9.7q0-.5.325-.825Q27 18 27.5 18q.5 0 .825.325.325.325.325.825v9.7q0 .5-.325.825Q28 30 27.5 30Zm-3.25 15q-6.1 0-11-3t-8-8.5v6.35q0 .5-.3.8-.3.3-.8.3t-.825-.3Q3 40.35 3 39.85v-8.8q0-.6.4-1.025.4-.425 1.05-.425h8.7q.5 0 .825.325.325.325.325.825 0 .5-.325.825-.325.325-.825.325h-6.2q2.65 5.1 7.225 7.975Q18.75 42.75 24.25 42.75q5.7 0 10.325-3.175Q39.2 36.4 41.3 31.2q.25-.6.65-.975T42.9 30q.55.1.7.625.15.525-.05 1.075-2.35 6.05-7.575 9.675Q30.75 45 24.25 45Zm-20-23q-.55 0-.8-.4t-.2-.9q.4-2.55 1.325-4.675Q5.5 13.9 6.95 11.75q.35-.45.825-.55.475-.1.875.25.4.4.35.9-.05.5-.35 1-1.2 1.75-1.925 3.525Q6 18.65 5.55 20.75q-.1.5-.45.875T4.25 22ZM13.3 8.75q-.5.3-.975.3t-.875-.4q-.3-.35-.225-.825.075-.475.475-.775Q13.85 5.5 16 4.6q2.15-.9 4.75-1.3.55-.1.95.175.4.275.4.775 0 .55-.4.9t-.9.45q-2.15.35-3.925 1.125T13.3 8.75Zm21.85-.05q-1.2-.65-2.375-1.1-1.175-.45-2.575-.8-1.1-.55-2.075-1.1-.975-.55-1.775-1.1-.2-.45 0-.725.2-.275.6-.375 1.6.15 3.05.65 1.45.5 2.9 1.5 1.25.4 2.125 1.075Q35.9 7.4 36.4 8.25q-.15.4-.5.5-.35.1-.75-.05Zm8.6 13.3q-.55 0-.875-.375-.325-.375-.475-.925-.4-2.15-1.175-3.95-.775-1.8-2.075-3.55-.3-.45-.35-.925-.05-.475.35-.875.35-.4.825-.3.475.1.775.5 1.6 2.1 2.55 4.275.95 2.175 1.4 4.775.1.55-.175.95-.275.4-.775.4Z"/></svg>