<svg xmlns="http://www.w3.org/2000/svg" width="48" height="48" viewBox="0 -960 960 960"><path d="M145.385-702v151.615q0 9.644-6.58 16.168-6.58 6.524-16.307 6.524-9.728 0-16.112-6.524-6.385-6.524-6.385-16.168v-200.767q0-12.26 8.294-20.553 8.293-8.294 20.553-8.294h200.767q9.644 0 16.168 6.581 6.524 6.58 6.524 16.307 0 9.727-6.524 16.112-6.524 6.384-16.168 6.384H177l201.694 201.309q6.745 6.797 7.026 15.86.281 9.063-6.464 16.14-7.283 6.692-16.576 6.692-9.294 0-15.986-6.692L145.385-702Zm12.309 521.999q-23.529 0-40.611-17.082-17.082-17.082-17.082-40.611v-186.922q0-9.644 6.581-16.168 6.58-6.523 16.307-6.523 9.727 0 16.112 6.523 6.384 6.524 6.384 16.168v186.922q0 5.385 3.462 8.847 3.462 3.462 8.847 3.462h294.999q9.644 0 16.167 6.58 6.524 6.58 6.524 16.307 0 9.728-6.524 16.112-6.523 6.385-16.167 6.385H157.694Zm679.417-264.615q-9.727 0-16.112-6.524-6.384-6.523-6.384-16.167v-254.999q0-5.385-3.462-8.847-3.462-3.462-8.847-3.462H455.384q-9.644 0-16.168-6.58-6.523-6.58-6.523-16.307 0-9.728 6.523-16.112 6.524-6.385 16.168-6.385h346.922q23.529 0 40.611 17.082 17.082 17.082 17.082 40.611v254.999q0 9.644-6.581 16.167-6.58 6.524-16.307 6.524ZM577.308-180.001q-12.259 0-20.553-8.294-8.293-8.293-8.293-20.553v-133.844q0-12.259 8.293-20.553 8.294-8.293 20.553-8.293h253.844q12.26 0 20.553 8.293 8.294 8.294 8.294 20.553v133.844q0 12.26-8.294 20.553-8.293 8.294-20.553 8.294H577.308Z"/></svg>