<svg xmlns="http://www.w3.org/2000/svg" width="48" height="48" viewBox="0 0 48 48"><path d="M7.25 12.9v7.6q0 .45-.325.775T6.1 21.6q-.45 0-.775-.325T5 20.5V10.45q0-.6.425-1.025Q5.85 9 6.45 9H16.5q.45 0 .775.325t.325.825q0 .5-.325.8-.325.3-.775.3H8.85l10.1 10.1q.3.3.325.775.025.475-.325.825-.35.3-.825.3t-.775-.3ZM7.9 39q-1.2 0-2.05-.85Q5 37.3 5 36.1v-9.35q0-.45.325-.775t.825-.325q.5 0 .8.325.3.325.3.775v9.35q0 .3.175.475t.475.175h14.75q.45 0 .775.325t.325.825q0 .45-.325.775T22.65 39Zm33.95-13.25q-.5 0-.8-.325-.3-.325-.3-.775V11.9q0-.3-.175-.475t-.475-.175H22.75q-.45 0-.775-.325t-.325-.825q0-.45.325-.775T22.75 9H40.1q1.2 0 2.05.85.85.85.85 2.05v12.75q0 .45-.325.775t-.825.325ZM28.85 39q-.6 0-1.025-.425-.425-.425-.425-1.025v-6.7q0-.6.425-1.025.425-.425 1.025-.425h12.7q.6 0 1.025.425.425.425.425 1.025v6.7q0 .6-.425 1.025Q42.15 39 41.55 39Z"/></svg>