<svg xmlns="http://www.w3.org/2000/svg" width="48" height="48" viewBox="0 -960 960 960"><path d="m813.999-250.846-103.307-42.693 79.923-194.999 83.846 166.922q20 39.231-1.577 63.039-21.577 23.808-58.885 7.731Zm-233.692-22.616 50.846-357.998q3.231-23.77 19.423-32.193 16.193-8.423 39.193.962l67.538 27.154q19.769 8 27.269 23.654t-2.654 40.731l-123.076 297.69h-78.539Zm-271.846 0L186.924-569.614q-9.154-22.307-3.808-39.731 5.346-17.423 26.884-26.192l67.154-27.154q21.924-8.385 38.347-1.192 16.423 7.192 20.269 30.884L387-273.462h-78.539Zm-153.998 22.616q-36.154 15.692-59.27-6.77-23.115-22.461-2.346-62.461l84.231-168.461 79.538 194.999-102.153 42.693Zm272.921-22.616L372.539-677.23q-4.231-29.922 13.577-45.961 17.807-16.038 46.576-16.038h101.923q31.077 0 47.731 16.615t12.423 46.923l-54.845 402.229h-112.54Z"/></svg>