<svg xmlns="http://www.w3.org/2000/svg" width="48" height="48" viewBox="0 96 960 960"><path d="M232.573 885.999q-26.188 0-44.38-18.276-18.192-18.276-18.192-44.416V528.693q0-26.14 18.311-44.416 18.311-18.276 44.5-18.276 26.188 0 44.38 18.276 18.192 18.276 18.192 44.416v294.614q0 26.14-18.311 44.416-18.311 18.276-44.5 18.276Zm247.308 0q-26.188 0-44.381-18.276-18.192-18.276-18.192-44.416V328.693q0-26.14 18.312-44.416 18.311-18.276 44.499-18.276 26.188 0 44.381 18.276 18.192 18.276 18.192 44.416v494.614q0 26.14-18.312 44.416-18.311 18.276-44.499 18.276Zm247.307 0q-26.188 0-44.38-18.276-18.192-18.276-18.192-44.416V688.693q0-26.14 18.311-44.416 18.311-18.276 44.5-18.276 26.188 0 44.38 18.276 18.192 18.276 18.192 44.416v134.614q0 26.14-18.311 44.416-18.311 18.276-44.5 18.276Z"/></svg>