<svg xmlns="http://www.w3.org/2000/svg" width="48" height="48" viewBox="0 -960 960 960"><path d="M277.69-100q-23.53 0-40.61-17.08T220-157.69v-406.08q0-23.53 17.08-40.61t40.61-17.08h404.62q23.53 0 40.61 17.08T740-563.77v406.08q0 23.53-17.08 40.61T682.31-100H277.69ZM471-205.46h18.62q7.23 0 12.46-5.54t5.23-12.77q0-7.23-5.23-12.46t-12.46-5.23h-19.24q-7.23 0-12.46 5.23t-5.23 12.46q0 7.23 5.42 12.77 5.41 5.54 12.89 5.54Zm-7.92-76.62h34.34q3.75 0 6.75-3.27t3.37-7.11q1.61-17.62 9.38-33.31 7.77-15.69 18-30.31 9.85-15.46 18.58-31.61 8.73-16.16 8.73-33.88 0-34.12-24.23-57.62t-58-23.5q-34.15 0-58.08 23.48Q398-455.73 398-421.92q0 17.65 8.42 34.02 8.43 16.36 18.27 31.82 9.63 14.87 17.9 30.63 8.26 15.76 9.87 33.37 1.47 3.85 4.21 6.93 2.74 3.07 6.41 3.07ZM279.69-700.23q-8.64 0-14.32-5.78-5.68-5.77-5.68-14.85 0-9.07 5.68-14.72t14.32-5.65h400.23q8.64 0 14.32 5.77 5.68 5.76 5.68 14.53 0 8.78-5.68 14.74-5.68 5.96-14.32 5.96H279.69ZM319.77-819q-8.81 0-14.6-5.77-5.78-5.78-5.78-14.86 0-9.07 5.78-14.72 5.79-5.65 14.6-5.65h321.08q8.64 0 14.32 5.77 5.67 5.76 5.67 14.54 0 8.77-5.67 14.73-5.68 5.96-14.32 5.96H319.77Z"/></svg>