<svg xmlns="http://www.w3.org/2000/svg" width="48" height="48" viewBox="0 0 48 48"><path d="M7.9 43q-1.2 0-2.05-.85Q5 41.3 5 40.1V15.9q0-1.2.85-2.05Q6.7 13 7.9 13H14v2.25H7.9q-.25 0-.45.2t-.2.45v24.2q0 .25.2.45t.45.2h32.2q.25 0 .45-.2t.2-.45V15.9q0-.25-.2-.45t-.45-.2H34V13h6.1q1.2 0 2.05.85.85.85.85 2.05v24.2q0 1.2-.85 2.05-.85.85-2.05.85ZM13 31.5q-1.05 0-1.775-.725Q10.5 30.05 10.5 29q0-1.05.725-1.775Q11.95 26.5 13 26.5q1.05 0 1.775.725.725.725.725 1.775 0 1.05-.725 1.775-.725.725-1.775.725Zm-2.5 6v-.75q0-1.35.925-2.3.925-.95 2.275-.95.65 0 1.3.275t1.05.725L18 36.8q.2.2.35.375.15.175.35.325Zm8-6v-.85q0-1.35 1.525-2.25 1.525-.9 3.975-.9t3.975.9q1.525.9 1.525 2.25v.85Zm19 6h-8.15l.3-.3q.15-.15.3-.35l2-2.35q.4-.35 1.1-.675.7-.325 1.25-.325 1.35 0 2.275.95.925.95.925 2.3ZM24 25.5q-1.05 0-1.775-.725Q21.5 24.05 21.5 23q0-1.05.725-1.775Q22.95 20.5 24 20.5q1.05 0 1.775.725.725.725.725 1.775 0 1.05-.725 1.775-.725.725-1.775.725Zm11 6q-1.05 0-1.775-.725Q32.5 30.05 32.5 29q0-1.05.725-1.775Q33.95 26.5 35 26.5q1.05 0 1.775.725.725.725.725 1.775 0 1.05-.725 1.775-.725.725-1.775.725ZM15.85 10q-1.05-1.15-1.6-2.55t-.55-2.8v-.5q0-.25.05-.55.05-.4.325-.7.275-.3.725-.3.45 0 .725.3.275.3.225.75 0 .3-.025.55-.025.25-.025.5 0 1 .4 1.975.4.975 1.3 2.025 1.1 1.4 1.625 2.55.525 1.15.525 2.25 0 .2-.025.375t-.025.325q-.05.45-.3.75t-.75.3q-.4 0-.725-.275-.325-.275-.225-.725.05-.25.05-.75 0-.8-.4-1.6t-1.3-1.9Zm5.85 0q-1.05-1.15-1.625-2.55t-.575-2.8q0-.2.025-.475.025-.275.025-.575.1-.4.375-.7.275-.3.675-.3.45 0 .75.3t.2.75V4.7q0 1 .4 1.975.4.975 1.25 2.025 1.15 1.4 1.65 2.55t.5 2.25v.375q0 .175-.05.375 0 .45-.3.725-.3.275-.65.275-.45 0-.775-.275t-.225-.725v-.75q0-.8-.4-1.625T21.7 10Zm6.05 0q-1.05-1.15-1.625-2.55t-.575-2.8q0-.2.025-.475.025-.275.075-.575.05-.4.325-.7.275-.3.675-.3.45 0 .75.3t.25.75q-.05.3-.05.55v.5q0 1 .4 1.975.4.975 1.25 2.025 1.15 1.4 1.675 2.55.525 1.15.525 2.25 0 .2-.025.375t-.025.325q-.05.45-.325.75t-.725.3q-.45 0-.75-.275t-.25-.725q.05-.25.05-.75 0-.8-.4-1.6T27.75 10Z"/></svg>