<svg xmlns="http://www.w3.org/2000/svg" width="48" height="48" viewBox="0 -960 960 960"><path d="M145.77-260q-36.08 0-60.92-24.85Q60-309.69 60-345.77v-268.46q0-36.08 24.85-60.92Q109.69-700 145.77-700h382.07q16.54 0 18.77 15.92 2.23 15.93-13.69 20.39-8.38 2.08-16.27 4.54-7.88 2.46-15.88 4.54.38 97.76 28.04 195.53 27.65 97.77 96.8 166.69 9.08 9.47 4.77 20.93Q626.08-260 614-260H145.77ZM740-300.39q-5.62 0-11.73-1.3-6.12-1.31-11.12-4.31-59.61-32.69-99.65-106.65-40.04-73.97-43.65-161.89 0-7.61 4.3-11.92 4.31-4.31 11.93-4.92 25.92-3.23 58.04-18.08 32.11-14.85 74.65-43.54 7.61-5 17.23-5 9.62 0 17.62 5 42.53 28.31 74.26 43.35 31.73 15.04 58.04 18.27 6.23.61 11.23 5.42t5 11.42q-3.61 87.92-43.84 161.89-40.23 73.96-99.46 106.65-5 3-11.12 4.31-6.11 1.3-11.73 1.3Zm0-44.46q46.15-23.84 78.31-80.69 32.15-56.84 40.61-126-26-7.23-54.88-21.54-28.89-14.3-64.04-36.84v265.07Z"/></svg>