<svg xmlns="http://www.w3.org/2000/svg" width="48" height="48" viewBox="0 -960 960 960"><path d="M145.77-260q-35.45 0-60.61-25.16Q60-310.32 60-345.77v-268.46q0-35.45 25.16-60.61Q110.32-700 145.77-700h541.15q11.16 0 16.93 6.94 5.76 6.94 5.76 15.5 0 8.56-5.76 15.75-5.77 7.2-16.93 7.2H145.77q-17.17 0-28.78 11.6-11.6 11.61-11.6 28.78v268.46q0 17.17 11.6 28.78 11.61 11.6 28.78 11.6h475.92q11.16 0 16.93 6.95 5.76 6.94 5.76 15.49 0 8.56-5.76 15.76-5.77 7.19-16.93 7.19H145.77Zm-40.38-45.39v-349.22 349.22Zm631.53-137.69h-94.77q-9.36 0-13.29-7.8-3.94-7.81 2.06-15.43l166.2-207.42q4.03-4.58 8.84-2.46 4.81 2.11 4.19 8.11l-27.07 151.16h94.77q9.36 0 13.29 7.8 3.94 7.81-2.06 15.43l-166.2 207.42q-4.03 4.58-8.84 2.46-4.81-2.11-4.19-8.11l27.07-151.16Z"/></svg>