<svg xmlns="http://www.w3.org/2000/svg" width="48" height="48" viewBox="0 -960 960 960"><path d="M326.604-100.001q-12.42 0-20.665-8.294-8.245-8.293-8.245-20.553v-644.459q0-11.884 8.293-20.365 8.293-8.481 20.553-8.481h79.614v-28.999q0-12.26 8.294-20.553 8.293-8.294 20.552-8.294h90q12.259 0 20.552 8.294 8.294 8.293 8.294 20.553v28.999h79.694q12.276 0 20.521 8.481 8.245 8.481 8.245 20.365v644.459q0 12.26-8.293 20.553-8.293 8.294-20.553 8.294H326.604Zm16.473-217.153h273.846v-440H343.077v440Z"/></svg>