<svg xmlns="http://www.w3.org/2000/svg" width="48" height="48" viewBox="0 -960 960 960"><path d="M145.77-260q-36.08 0-60.92-24.85Q60-309.69 60-345.77v-268.46q0-36.08 24.85-60.92Q109.69-700 145.77-700h539.77q15.77 0 21.54 14.66 5.76 14.65-5.54 25.57l-86.39 84h-21.3q-52.62 0-91.12 39.08-38.5 39.07-38.5 91.69v156.92q0 11.85-8.12 19.96Q448-260 436.15-260H145.77ZM560-337.31q-9.92 0-16.31-6.38-6.38-6.39-6.38-16.31v-85q0-23.61 17.04-40.65T595-502.69h213.69L744-568q-6.08-6.69-6.58-16-.5-9.31 6.58-16 6.69-6.69 15.81-6.69 9.11 0 15.8 6.69l99.77 99.77Q884-491.62 884-480q0 11.62-8.62 20.23L776.61-361q-7.07 7.08-16.3 7.08T744-361q-7.08-7.08-7.08-16.19 0-9.12 7.08-15.81l64.69-64.31H595q-5.38 0-8.85 3.46-3.46 3.47-3.46 8.85v85q0 9.92-6.38 16.31-6.39 6.38-16.31 6.38Z"/></svg>