<svg xmlns="http://www.w3.org/2000/svg" width="48" height="48" viewBox="0 -960 960 960"><path d="M100.001-242.693v-208.461q0-20.768 10-41.807 10-21.038 30-32.346v-104.845q0-38.077 25.885-63.961 25.884-25.884 63.96-25.884h184.616q20.846 0 37.538 9.615 16.693 9.616 28 25.846 11.307-16.23 27.692-25.846 16.384-9.615 37.23-9.615h184.616q38.077 0 64.269 25.884 26.192 25.884 26.192 63.961v104.845q20 11.308 30 32.346 10 21.039 10 41.807v208.461q0 9.903-6.398 16.297-6.398 6.395-16.308 6.395-9.909 0-16.294-6.395-6.384-6.394-6.384-16.297v-57.308h-669.23v57.308q0 9.903-6.398 16.297-6.398 6.395-16.307 6.395-9.91 0-16.294-6.395-6.385-6.394-6.385-16.297Zm402.691-293.844h271.923v-93.615q0-19.231-13.115-31.846-13.116-12.616-31.962-12.616H542.692q-17 0-28.5 13.424-11.5 13.423-11.5 31.038v93.615Zm-317.307 0h271.923v-93.615q0-17.615-11.5-31.038-11.5-13.424-28.5-13.424H229.846q-18.23 0-31.346 13.116-13.115 13.115-13.115 31.346v93.615Z"/></svg>