<svg xmlns="http://www.w3.org/2000/svg" width="48" height="48" viewBox="0 -960 960 960"><path d="M480-145.385q57.154 0 113.5-21.846t106.499-62.23q-99.538-34.385-169.961-92.462Q459.615-380 419.076-455.115q-40.538-75.116-51.654-162.5-11.115-87.385 7.962-179.769-103.307 39.462-166.461 124.192Q145.77-588.461 145.77-480q0 145.154 94.538 239.884Q334.846-145.385 480-145.385Zm0 45.384q-81.692 0-151.23-28.693-69.539-28.692-120.269-79.615-50.731-50.922-79.423-120.461-28.692-69.538-28.692-151.23 0-130.922 81.615-233.806Q263.615-816.69 386.537-846.69q22.153-5.385 33.384 7.846 11.231 13.23 4.154 37.153-22.769 85.769-12.038 171.846 10.731 86.077 51.346 158.961 40.616 72.885 109 126.808t159.923 74.769q24.153 5.385 29.922 20.846 5.769 15.462-10.077 31.615-51.999 52.23-123.96 84.537Q556.23-100.001 480-100.001Zm-56.923-371.691Z"/></svg>