<svg xmlns="http://www.w3.org/2000/svg" width="48" height="48" viewBox="0 -960 960 960"><path d="M480-79.233q-9.615 0-18.231-2.807-8.615-2.808-16.23-8.423L203.232-272.385q-11-7.616-17.115-20.039-6.116-12.423-6.116-26.038v-483.844q0-23.616 17.039-40.654 17.038-17.039 40.654-17.039h484.612q23.616 0 40.654 17.039 17.039 17.038 17.039 40.654v483.844q0 13.615-6.116 26.038-6.115 12.423-17.115 20.039L514.461-90.463q-7.615 5.615-16.23 8.423-8.616 2.808-18.231 2.808ZM437.385-437.46l-79.924-79.923q-6.692-6.308-15.807-6.5-9.115-.192-16.192 6.5-6.692 7.077-6.692 15.999 0 8.923 7.077 16l91.922 91.307q8.616 8.615 20.231 8.615 11.615 0 20.231-8.615L634.153-570q6.692-6.693 6.577-15.808-.115-9.115-7.192-16.192-7.077-7.076-16-6.884-8.923.192-15.999 6.884L437.385-437.461Z"/></svg>