<svg xmlns="http://www.w3.org/2000/svg" width="48" height="48" viewBox="0 -960 960 960"><path d="M735.845-140.001H197.694q-23.616 0-40.654-17.039-17.039-17.038-17.039-40.654v-538.151l-83.615-83.616q-6.692-6.308-6.885-15.423-.192-9.115 6.885-16.192 7.076-7.076 16-7.076 8.922 0 15.999 7.076L854.922-84.539q6.307 6.692 6.5 15.807.192 9.115-6.5 16.192-7.077 6.693-16 6.693t-16-6.693L735.845-140Zm84.154-622.305v480.843q0 19.616-17.731 26.731-17.731 7.116-31.346-6.5L629.23-402.924l138.308-142.924q8.308-8.692 7.192-17.307-1.115-8.615-6.807-14.692-6.077-6.077-15.077-7.5t-16.922 6.885L597.615-435.538 261.232-770.922q-13.616-13.615-6.193-31.346 7.424-17.731 27.039-17.731h480.228q23.616 0 40.654 17.039 17.039 17.038 17.039 40.654ZM368.462-485.385l161.307 161.692q3.846 3.846 10.5 3.846t10.5-4.231L347.155-528.692 192.077-373.615q-8.307 8.308-7.192 17.423Q186-347.077 192.077-341t14.692 7.192q8.615 1.115 17.307-7.192l144.386-144.385Z"/></svg>