<svg xmlns="http://www.w3.org/2000/svg" width="48" height="48" viewBox="0 -960 960 960"><path d="M4.616-207.155v-45.383h179.769q6.846-72.385 55.885-125.269 49.039-52.885 119.039-63.039L299.77-720.154q-1.539-3.846-4.808-6.539-3.269-2.692-6.731-2.692h-122q-9.663 0-16.177-6.567-6.515-6.567-6.515-16.307 0-9.741 6.515-16.125 6.514-6.385 16.177-6.385h113.692q21.635 0 40.625 13.038 18.99 13.039 23.99 34.885l69.692 327.922h-14.845q-69.482 0-118.857 48.813-49.374 48.813-49.374 118.803v24.153H4.616Zm394.769 77.924q-42.725 0-72.401-29.677-29.676-29.676-29.676-72.4 0-42.724 29.676-72.208T399.385-333q42.724 0 72.208 29.484 29.483 29.484 29.483 72.208t-29.483 72.4q-29.484 29.677-72.208 29.677Zm372.538-120.924q-71.244 0-123.737-44.115-52.493-44.115-61.57-114.115H480l-6.076-45.384h112.761q4.162-30.385 20.239-64.308 16.077-33.924 45.001-53.308H446l-10.538-45.384h241.001l-61.309-176.309q-1.154-3.462-3.846-5.193-2.693-1.73-6.154-1.73h-69.693q-9.663 0-16.177-6.567-6.514-6.567-6.514-16.307 0-9.741 6.514-16.126 6.514-6.384 16.177-6.384h63.385q19.328 0 36.092 10.902 16.765 10.903 23.984 29.867L724.077-619h47.846q76.506 0 129.599 53.388 53.093 53.387 53.093 130.311 0 75.762-53.48 130.454-53.479 54.692-129.212 54.692Zm-70.999-302.308 33.307 91.693q3.847 8.308 11.654 12.269 7.808 3.962 17.115.5 8.795-3.846 13.012-12.153 4.218-8.308.372-16.615l-34.077-92.309-41.383 16.615Z"/></svg>