<svg xmlns="http://www.w3.org/2000/svg" width="48" height="48" viewBox="0 -960 960 960"><path d="M162.693-140.001q-42.987 0-72.84-29.853-29.851-29.852-29.851-72.839v-474.614q0-42.987 29.852-72.839 29.852-29.853 72.839-29.853h307.306q42.987 0 72.84 29.853 29.852 29.852 29.852 72.839v273.923h67.693q26.307 0 44.5 18.192 18.192 18.192 18.192 44.499v124.923q0 16.462 11.192 27.655 11.193 11.192 27.654 11.192 16.462 0 27.655-11.192 11.192-11.193 11.192-27.655v-288.846q-30.461 0-52.923-19.115-22.461-19.115-22.461-48.962v-69.214q0-11.862 8.115-19.977 8.116-8.115 19.962-8.115h7.307v-55.769q0-6.872 4.828-11.705 4.829-4.833 11.693-4.833t11.71 4.833q4.846 4.833 4.846 11.705v55.769h59.23v-55.769q0-6.872 4.829-11.705 4.828-4.833 11.692-4.833t11.71 4.833q4.846 4.833 4.846 11.705v55.769h7.307q11.846 0 19.962 8.115 8.115 8.115 8.115 19.977v69.214q0 29.847-22.461 48.962-22.462 19.115-52.923 19.115v286.385q0 35.307-24.462 59.769-24.461 24.461-59.769 24.461-35.307 0-59.768-24.461-24.462-24.462-24.462-59.769v-131.461q0-5.385-3.462-8.847-3.461-3.462-8.846-3.462h-72.693v177q0-58-36.384-94.192-36.384-36.191-93.999-36.191H244.23q-32.368 0-54.453 22.084-22.084 22.084-22.084 54.453t22.084 54.453q22.085 22.085 54.453 22.085h198.078q9.903 0 16.298-6.398Q465-215.105 465-225.015q0-9.909-6.394-16.293-6.395-6.385-16.298-6.385H244.23q-13.384 0-22.269-8.885-8.885-8.884-8.885-22.269 0-13.384 8.885-22.269 8.885-8.885 22.269-8.885h198.078q35.509 0 60.254 24.745 24.745 24.745 24.745 60.255 0 35.509-24.745 60.254-24.745 24.746-60.254 24.746H162.693Z"/></svg>