<svg xmlns="http://www.w3.org/2000/svg" width="48" height="48" viewBox="0 -960 960 960"><path d="m700.999-667.691 130.077-130.461q6.646-7.077 15.784-7.077 9.139 0 16.215 7.129 6.692 6.745 6.692 16.115 0 9.37-6.692 16.063L721.23-623.692q-8.686 8.615-20.266 8.615-11.58 0-20.196-8.615l-57.846-58.23q-6.692-6.693-6.692-15.733 0-9.04 6.468-15.615 6.917-6.959 16.473-6.767 9.556.192 16.366 6.885l45.462 45.461ZM480-261.54l-179.076 77.076q-29.23 12.231-55.076-4.755-25.847-16.986-25.847-48.321v-528.612q0-23.231 17.082-40.462t40.611-17.231h241.537q9.663 0 16.177 6.753 6.514 6.752 6.514 16.307t-6.514 15.939q-6.514 6.385-16.177 6.385H277.694q-4.616 0-8.463 3.846-3.846 3.847-3.846 8.463v527.842q0 6.924 5.577 10.578 5.578 3.654 11.732.962L480-310.539l197.306 83.769q6.154 2.692 11.732-.962 5.577-3.654 5.577-10.578v-277.459q0-9.288 6.567-15.99 6.566-6.702 16.307-6.702t16.125 6.702q6.385 6.702 6.385 15.99v278.229q0 31.335-25.847 48.321-25.846 16.986-55.076 4.755L480-261.54Zm0-516.921H265.385h276.537H480Z"/></svg>