<svg xmlns="http://www.w3.org/2000/svg" width="48" height="48" viewBox="0 96 960 960"><path d="M237.694 955.999q-23.616 0-40.654-17.039-17.039-17.038-17.039-40.654V253.694q0-23.616 17.039-40.654 17.038-17.039 40.654-17.039h484.612q23.616 0 40.654 17.039 17.039 17.038 17.039 40.654v644.612q0 23.616-17.039 40.654-17.038 17.039-40.654 17.039H237.694Zm277.614-475.461 66.153-38 65.769 38q7.385 4.615 14.692.308 7.308-4.308 7.308-13.308V241.385H493.693v226.153q0 9 7.308 13.308 7.307 4.307 14.307-.308Z"/></svg>