<svg xmlns="http://www.w3.org/2000/svg" width="48" height="48" viewBox="0 -960 960 960"><path d="M479.818-612.692q-10.702 0-17.76-7.041Q455-626.774 455-637.675t7.24-17.959q7.24-7.057 17.942-7.057t17.76 7.237Q505-648.216 505-637.516q0 11.093-7.24 17.959-7.24 6.865-17.942 6.865ZM322.517-455q-11.093 0-17.958-7.24-6.866-7.24-6.866-17.942t7.041-17.76Q311.775-505 322.676-505t17.959 7.24q7.058 7.24 7.058 17.942t-7.238 17.76Q333.217-455 322.517-455Zm157.301 0q-10.702 0-17.76-7.24Q455-469.48 455-480.182t7.24-17.76Q469.48-505 480.182-505t17.76 7.24Q505-490.52 505-479.818t-7.24 17.76Q490.52-455 479.818-455Zm157.698 0q-11.093 0-17.959-7.24-6.865-7.24-6.865-17.942t7.041-17.76Q626.774-505 637.675-505t17.959 7.24q7.057 7.24 7.057 17.942t-7.237 17.76Q648.216-455 637.516-455ZM479.818-297.693q-10.702 0-17.76-7.041Q455-311.775 455-322.676t7.24-17.959q7.24-7.058 17.942-7.058t17.76 7.238Q505-333.217 505-322.517q0 11.093-7.24 17.958-7.24 6.866-17.942 6.866ZM164.819-612.692q-10.702 0-17.76-7.041-7.058-7.041-7.058-17.942t7.24-17.959q7.24-7.057 17.942-7.057 10.703 0 17.76 7.237 7.058 7.238 7.058 17.938 0 11.093-7.24 17.959-7.24 6.865-17.942 6.865Zm629.998 0q-10.703 0-17.76-7.041-7.058-7.041-7.058-17.942t7.24-17.959q7.24-7.057 17.942-7.057t17.76 7.237q7.058 7.238 7.058 17.938 0 11.093-7.24 17.959-7.24 6.865-17.942 6.865ZM164.819-455q-10.702 0-17.76-7.24-7.058-7.24-7.058-17.942t7.24-17.76q7.24-7.058 17.942-7.058 10.703 0 17.76 7.24 7.058 7.24 7.058 17.942t-7.24 17.76Q175.521-455 164.819-455Zm629.998 0q-10.703 0-17.76-7.24-7.058-7.24-7.058-17.942t7.24-17.76q7.24-7.058 17.942-7.058t17.76 7.24q7.058 7.24 7.058 17.942t-7.24 17.76Q805.519-455 794.817-455ZM164.819-297.693q-10.702 0-17.76-7.041-7.058-7.041-7.058-17.942t7.24-17.959q7.24-7.058 17.942-7.058 10.703 0 17.76 7.238 7.058 7.238 7.058 17.938 0 11.093-7.24 17.958-7.24 6.866-17.942 6.866Zm629.998 0q-10.703 0-17.76-7.041-7.058-7.041-7.058-17.942t7.24-17.959q7.24-7.058 17.942-7.058t17.76 7.238q7.058 7.238 7.058 17.938 0 11.093-7.24 17.958-7.24 6.866-17.942 6.866ZM164.819-140.001q-10.702 0-17.76-7.24-7.058-7.24-7.058-17.942 0-10.703 7.24-17.76 7.24-7.058 17.942-7.058 10.703 0 17.76 7.24 7.058 7.24 7.058 17.942t-7.24 17.76q-7.24 7.058-17.942 7.058Zm157.698 0q-11.093 0-17.958-7.24-6.866-7.24-6.866-17.942 0-10.703 7.041-17.76 7.041-7.058 17.942-7.058t17.959 7.24q7.058 7.24 7.058 17.942t-7.238 17.76q-7.238 7.058-17.938 7.058Zm157.301 0q-10.702 0-17.76-7.24-7.058-7.24-7.058-17.942 0-10.703 7.24-17.76 7.24-7.058 17.942-7.058t17.76 7.24q7.058 7.24 7.058 17.942t-7.24 17.76q-7.24 7.058-17.942 7.058Zm157.698 0q-11.093 0-17.959-7.24-6.865-7.24-6.865-17.942 0-10.703 7.041-17.76 7.041-7.058 17.942-7.058t17.959 7.24q7.057 7.24 7.057 17.942t-7.237 17.76q-7.238 7.058-17.938 7.058Zm157.301 0q-10.703 0-17.76-7.24-7.058-7.24-7.058-17.942 0-10.703 7.24-17.76 7.24-7.058 17.942-7.058t17.76 7.24q7.058 7.24 7.058 17.942t-7.24 17.76q-7.24 7.058-17.942 7.058ZM162.693-774.615q-9.644 0-16.168-6.58-6.524-6.58-6.524-16.307 0-9.728 6.524-16.112 6.524-6.385 16.168-6.385h634.614q9.644 0 16.168 6.581 6.524 6.58 6.524 16.307 0 9.727-6.524 16.112-6.524 6.384-16.168 6.384H162.693Z"/></svg>