<svg xmlns="http://www.w3.org/2000/svg" width="48" height="48" viewBox="0 -960 960 960"><path d="M442.693-285.539h282.922q11.98 0 20.413-8.433t8.433-20.413v-189.538q0-11.981-8.433-20.414-8.433-8.432-20.413-8.432H442.693q-12.356 0-20.601 8.432-8.245 8.433-8.245 20.414v189.538q0 11.98 8.245 20.413t20.601 8.433ZM157.694-180.001q-23.529 0-40.611-17.082-17.082-17.082-17.082-40.611v-484.612q0-23.529 17.082-40.611 17.082-17.082 40.611-17.082h644.612q23.529 0 40.611 17.082 17.082 17.082 17.082 40.611v484.612q0 23.529-17.082 40.611-17.082 17.082-40.611 17.082H157.694Zm0-45.384h644.612q4.616 0 8.463-3.846 3.846-3.847 3.846-8.463v-484.612q0-4.616-3.846-8.463-3.847-3.846-8.463-3.846H157.694q-4.616 0-8.463 3.846-3.846 3.847-3.846 8.463v484.612q0 4.616 3.846 8.463 3.847 3.846 8.463 3.846Zm-12.309 0v-509.23 509.23Z"/></svg>