<svg xmlns="http://www.w3.org/2000/svg" width="48" height="48" viewBox="0 -960 960 960"><path d="M495-299.85q75.02 0 128.09-52.82 53.06-52.82 53.06-127.91 0-75.08-53.06-128.13-53.07-53.06-128.09-53.06-9.46 0-17.74.5-8.27.5-17.26 3.12-10.61 2.61-11.69 14.84t8.99 19.8q34.37 25.52 52.19 63.25 17.82 37.72 17.82 79.23 0 42.09-18.77 79.63-18.77 37.55-51.08 63.25-10.84 7.61-9.65 19.53 1.19 11.93 11.81 15.54 8.84 2 17.38 2.62 8.54.61 18 .61ZM354.69-180h-117q-23.59 0-40.64-17.05T180-237.69v-116.43l-85.07-85.42q-9.16-8.63-12.89-19.05-3.73-10.42-3.73-21.15 0-10.72 3.81-21.41 3.81-10.7 12.81-19.31L180-605.88v-116.43q0-23.59 17.05-40.64T237.69-780h116.43l85.42-85.46q8.61-8.61 19.54-12.42 10.92-3.81 21.65-3.81 10.74 0 21.26 4.31 10.51 4.31 19.09 12.92L605.54-780h116.77q23.59 0 40.64 17.05T780-722.31v116.43l85.46 85.42q8.61 8.61 12.42 19.12 3.81 10.51 3.81 21.23 0 10.73-3.81 21.34-3.81 10.62-12.42 19.23L780-354.12v116.43q0 23.59-17.05 40.64T722.31-180H605.54l-84.46 83.84q-8.6 8.1-19.03 12.17-10.42 4.06-21.24 4.06-10.81 0-21.24-4.06-10.44-4.07-19.03-12.17L354.69-180Zm18-45.39 99.08 96.23q3.46 3.47 8.85 3.47 5.38 0 8.84-3.47l96.99-96.23h135.86q5.38 0 8.84-3.46t3.46-8.84v-135.55l97.85-97.91q3.46-3.46 3.46-8.85t-3.46-8.85l-97.91-97.91v-135.55q0-5.38-3.46-8.84t-8.85-3.46H586.69l-97.23-97.85q-3.46-3.46-8.84-3.46-5.39 0-8.85 3.46l-98.46 97.85H237.76q-5.39 0-8.85 3.46t-3.46 8.84v135.55l-97.91 97.91q-3.46 3.46-3.46 8.85t3.46 8.85l97.85 97.91v135.55q0 5.38 3.46 8.84t8.84 3.46h135Zm107.93-255.23Z"/></svg>