<svg xmlns="http://www.w3.org/2000/svg" width="48" height="48" viewBox="0 96 960 960"><path d="M242.511 835.999q-9.741 0-16.125-6.515-6.385-6.514-6.385-16.177V338.693q0-9.663 6.567-16.177 6.567-6.515 16.307-6.515 9.741 0 16.126 6.515 6.384 6.514 6.384 16.177v474.614q0 9.663-6.567 16.177-6.566 6.515-16.307 6.515Zm-164.616 0q-9.74 0-16.125-6.515-6.384-6.514-6.384-16.177V338.693q0-9.663 6.566-16.177 6.567-6.515 16.308-6.515 9.74 0 16.125 6.515 6.384 6.514 6.384 16.177v474.614q0 9.663-6.566 16.177-6.567 6.515-16.308 6.515Zm364.414 0q-23 0-40.346-17.347-17.346-17.346-17.346-40.346V373.694q0-23 17.346-40.346 17.346-17.347 40.346-17.347h404.613q23 0 40.346 17.347 17.346 17.346 17.346 40.346v404.612q0 23-17.346 40.346-17.346 17.347-40.346 17.347H442.309Zm0-45.384h404.613q5.385 0 8.847-3.462 3.462-3.462 3.462-8.847V373.694q0-5.385-3.462-8.847-3.462-3.462-8.847-3.462H442.309q-5.385 0-8.846 3.462-3.462 3.462-3.462 8.847v404.612q0 5.385 3.462 8.847 3.461 3.462 8.846 3.462Zm81.154-97h245.152q8.692 0 12.846-8t-.846-16l-62.307-82.999q-4.615-6-11.808-5.808-7.192.192-11.807 5.808l-70.077 91.692-47.846-64.077q-4.616-6-11.808-6t-11.808 6L511.847 670q-5.384 8-1.384 15.807 4 7.808 13 7.808Zm-93.462-332.23v429.23-429.23Z"/></svg>