<svg xmlns="http://www.w3.org/2000/svg" width="48" height="48" viewBox="0 -960 960 960"><path d="M250.064-282.001q20.226 0 34.235-14.158 14.008-14.158 14.008-34.384t-14.158-34.495q-14.158-14.269-34.384-14.269t-34.495 14.418q-14.269 14.418-14.269 34.644t14.418 34.235q14.419 14.009 34.645 14.009Zm300.171 0q20.226 0 34.495-14.158 14.269-14.158 14.269-34.384t-14.418-34.495q-14.419-14.269-34.645-14.269-20.226 0-34.235 14.418-14.008 14.418-14.008 34.644t14.158 34.235q14.158 14.009 34.384 14.009Zm-357.877 182q-12.51 0-21.164-8.728-8.654-8.727-8.654-21.195v-71.077q-26.692-11.615-44.615-41.807-17.924-30.192-17.924-65.5V-693q0-37.384 22.577-63.807 22.577-26.423 70.231-41.692 47.653-15.269 122.576-19.577 74.922-4.307 178.999.924-4.441 10.981-8.105 22.105-3.664 11.125-6.664 23.278-161.77-8.461-242.462 8.347-80.692 16.807-93.691 51.346h330.999q0 11.154 1.769 22.499 1.769 11.346 4.539 22.884H145.385v188.002h512.538q6.923.153 20.961 1.807 14.038 1.654 21.115 1.654v166.922q0 35.308-17.924 65.5-17.923 30.192-44.615 41.807v71.077q0 12.468-8.758 21.195-8.758 8.728-21.269 8.728t-21.164-8.728q-8.654-8.727-8.654-21.195v-51.693h-355.23v51.693q0 12.468-8.758 21.195-8.758 8.728-21.269 8.728ZM573-433.308H145.385h509.23H573Zm146.483-113.616q-71.945 0-122.252-50.439t-50.307-122.383q0-71.945 50.439-122.252 50.439-50.308 122.383-50.308 71.945 0 122.252 50.439 50.308 50.44 50.308 122.384 0 71.945-50.439 122.252-50.44 50.307-122.384 50.307Zm1.082-145.46q6.126 0 10.626-4.793 4.5-4.792 4.5-10.759v-100.972q0-5.967-4.681-10.76-4.681-4.792-10.923-4.792-5.934 0-10.626 4.792-4.692 4.793-4.692 10.76v100.972q0 5.967 4.835 10.759 4.835 4.793 10.961 4.793Zm-.335 83.615q8.831 0 15.646-6.816 6.815-6.815 6.815-15.646 0-8.83-6.815-15.453-6.815-6.623-15.646-6.623t-15.454 6.623q-6.623 6.623-6.623 15.453 0 8.831 6.623 15.646 6.623 6.816 15.454 6.816ZM227-227h346q34.615 0 58.115-26.039 23.5-26.038 23.5-60.269v-120h-509.23v120q0 34.231 23.5 60.269Q192.385-227 227-227Zm247.461-485.076H143.462h330.999Z"/></svg>