<svg xmlns="http://www.w3.org/2000/svg" width="48" height="48" viewBox="0 -960 960 960"><path d="M197.694-302.232q-23.596 0-40.645-16.899-17.048-16.899-17.048-40.793v-240.152q0-23.894 17.048-40.793 17.049-16.899 40.645-16.899h564.612q23.596 0 40.645 16.899 17.048 16.899 17.048 40.793v240.152q0 23.894-17.048 40.793-17.049 16.899-40.645 16.899H197.694Zm0-45.384h564.612q5.385 0 8.847-3.462 3.462-3.461 3.462-8.846v-240.152q0-5.385-3.462-8.846-3.462-3.462-8.847-3.462H197.694q-5.385 0-8.847 3.462-3.462 3.461-3.462 8.846v240.152q0 5.385 3.462 8.846 3.462 3.462 8.847 3.462Zm-36.001-414.69q-8.923 0-15.307-6.693-6.385-6.692-6.385-16.307 0-9.615 6.515-15.999 6.514-6.385 16.177-6.385h635.614q8.923 0 15.307 6.692 6.385 6.692 6.385 16.308 0 9.615-6.515 15.999-6.514 6.385-16.177 6.385H161.693Zm0 609.996q-8.923 0-15.307-6.692-6.385-6.692-6.385-16.308 0-9.615 6.515-15.999 6.514-6.385 16.177-6.385h635.614q8.923 0 15.307 6.693 6.385 6.692 6.385 16.307 0 9.615-6.515 15.999-6.514 6.385-16.177 6.385H161.693Zm23.692-460.074h12.309q-5.385 0-8.847 3.462-3.462 3.461-3.462 8.846v240.152q0 5.385 3.462 8.846 3.462 3.462 8.847 3.462h-12.309v-264.768Z"/></svg>