<svg xmlns="http://www.w3.org/2000/svg" width="48" height="48" viewBox="0 -960 960 960"><path d="M197.69-100q-23.53 0-40.61-17.08T140-157.69v-579.23q0-23.53 17.08-40.61t40.61-17.08h73.85v-44.93q0-10.52 6.85-17.8 6.85-7.27 17.83-7.27 10.97 0 18.34 7.27 7.36 7.28 7.36 17.8v44.93h317.69v-45.59q0-10.63 6.74-17.52 6.74-6.89 17.44-6.89 10.71 0 17.88 6.97 7.17 6.98 7.17 17.33v45.7h73.47q23.53 0 40.61 17.08T820-736.92v337.38q0 9.66-6.57 16.18-6.56 6.51-16.31 6.51-9.74 0-16.12-6.51-6.39-6.52-6.39-16.18V-555H185.39v397.31q0 4.61 3.84 8.46 3.85 3.84 8.46 3.84h300.85q10.02 0 16.55 6.57 6.52 6.57 6.52 16.31 0 9.74-6.51 16.12-6.51 6.39-16.18 6.39H197.69Zm-12.3-500.38h589.22v-136.54q0-4.62-3.84-8.46-3.85-3.85-8.46-3.85H197.69q-4.61 0-8.46 3.85-3.84 3.84-3.84 8.46v136.54Zm0 0v-148.85 148.85Zm482.38 456.15 154-153.62q6.76-6.69 15.84-6.88 9.08-.19 16.16 6.94 6.69 6.74 6.69 16.03 0 9.3-6.69 16.53L688-100.23q-8.47 8.61-19.96 8.61-11.5 0-20.5-8.61l-80.69-80.69q-7.08-6.65-7.08-15.79 0-9.14 6.94-16.02 6.93-6.89 16.3-6.89 9.37 0 16.07 7.08l68.69 68.31Z"/></svg>