<svg xmlns="http://www.w3.org/2000/svg" width="48" height="48" viewBox="0 -960 960 960"><path d="M157.694-180.001q-23.529 0-40.611-17.082-17.082-17.082-17.082-40.611v-484.612q0-23.529 17.082-40.611 17.082-17.082 40.611-17.082h644.612q23.529 0 40.611 17.082 17.082 17.082 17.082 40.611v484.612q0 23.529-17.082 40.611-17.082 17.082-40.611 17.082H157.694Zm0-45.384h644.612q4.616 0 8.463-3.846 3.846-3.847 3.846-8.463v-484.612q0-4.616-3.846-8.463-3.847-3.846-8.463-3.846H157.694q-4.616 0-8.463 3.846-3.846 3.847-3.846 8.463v484.612q0 4.616 3.846 8.463 3.847 3.846 8.463 3.846Zm-12.309 0v-509.23 509.23Zm146.692-60.154h376.846q18.237 0 31.08-13.118 12.842-13.117 12.842-31.746 0-18.789-12.842-31.578-12.843-12.788-31.08-12.788H291.077q-18.237 0-31.08 12.984-12.842 12.984-12.842 31.423 0 18.438 12.958 31.631 12.958 13.192 31.964 13.192Z"/></svg>