<svg xmlns="http://www.w3.org/2000/svg" width="48" height="48" viewBox="0 -960 960 960"><path d="M774.61-579.46 514.69-319.54q-8.61 8.62-19.04 12.23-10.42 3.62-21.23 3.62-10.8 0-21.23-3.62-10.42-3.61-19.04-12.23L155-599.08q-6.69-6.69-6.88-15.96-.2-9.28 6.49-16.19 7.08-6.54 16.47-6.54 9.39 0 16.15 6.69l278.54 278.16q3.46 3.84 8.65 3.84 5.2 0 9.04-3.84l261.39-261.39H549.38q-9.67 0-16.18-6.56t-6.51-16.3q0-9.75 6.51-16.14 6.51-6.38 16.18-6.38h241.77q12.37 0 20.61 8.24t8.24 20.61V-384q0 9.67-6.56 16.18t-16.31 6.51q-9.75 0-16.13-6.51-6.39-6.51-6.39-16.18v-195.46Z"/></svg>