<svg xmlns="http://www.w3.org/2000/svg" width="48" height="48" viewBox="0 -960 960 960"><path d="M478.077-597h317.077q-27.231-73.23-87.847-130.115Q646.692-784 569.846-804.23L465.077-618.615q-4.616 7.615.175 14.615 4.791 7 12.825 7Zm-127 60.616q4.088 7.615 12.736 7.615 8.649 0 13.264-7.615l160.231-275.79q-11.615-1.056-28.41-1.749-16.795-.692-28.898-.692-70.461 0-129.692 25.615-59.231 25.616-106.077 70.846l106.846 181.77ZM155.326-394.923H366q8.523 0 13.069-7 4.547-7-.069-15L223.154-694.461q-38 45-57.884 99.821-19.885 54.821-19.885 114.64 0 21 2.192 43.038 2.193 22.039 7.749 42.039ZM391.923-156.77l107-184q4.616-7.743.059-14.987Q494.426-363 485.923-363H165.462q27.231 73.23 87.923 130.115Q314.077-176 391.923-156.77Zm88.243 11.385q70.295 0 129.824-25.582 59.529-25.582 105.779-70.879l-106.231-181.77q-4.088-7.615-12.736-7.615t-13.264 7.615L423.461-148.539q12.231 1.385 28.077 2.269 15.847.885 28.628.885Zm257.68-120.154q33.23-41.615 55-98.615 21.769-57 21.769-115.517 0-21.944-2.192-43.675-2.193-21.731-7.193-42.346H594.615q-7.888 0-13.059 7-5.172 7-.556 14.615l156.846 278.538ZM480-480Zm-.122 379.999q-78.032 0-147.323-29.9-69.291-29.9-121.023-81.631-51.731-51.732-81.631-121.023t-29.9-147.323q0-78.984 29.962-147.976 29.961-68.991 81.576-120.607 51.616-51.615 121.004-81.576 69.389-29.962 147.332-29.962 78.894 0 147.932 29.962 69.038 29.961 120.654 81.576 51.615 51.616 81.576 120.607 29.962 68.992 29.962 147.976 0 78.032-29.962 147.377-29.961 69.346-81.576 120.962-51.616 51.615-120.607 81.576-68.992 29.962-147.976 29.962Z"/></svg>