<svg xmlns="http://www.w3.org/2000/svg" width="48" height="48" viewBox="0 -960 960 960"><path d="M248.848-274.308q-12.26 0-20.553-8.293-8.294-8.293-8.294-20.553v-499.152q0-23.5 17.097-40.596 17.096-17.097 40.596-17.097h404.612q23.5 0 40.596 17.097 17.097 17.096 17.097 40.596v499.152q0 12.26-8.294 20.553-8.293 8.293-20.553 8.293H512.385q-8.673 0-16.984-3.461-8.311-3.462-13.724-8.693l-32.138-32.461q-16.524-16.846-40.407-16.846-23.884 0-41.131 16.846l-32 32.384q-5.936 5.308-14.12 8.77-8.185 3.461-16.726 3.461h-56.307ZM479.741-689.23q-23.587 0-40.125 16.797-16.539 16.797-16.539 40.385 0 23.587 16.797 40.125 16.797 16.539 40.385 16.539 23.587 0 40.125-16.797 16.539-16.797 16.539-40.385 0-23.587-16.797-40.126-16.797-16.538-40.385-16.538Zm-39.739 519.229H242.693q-9.644 0-16.168-6.58-6.524-6.58-6.524-16.307 0-9.727 6.524-16.112 6.524-6.384 16.168-6.384h198.924l-49.154-49.155q-7.077-6.692-7.077-15.807t7.077-16q7.076-6.884 16.307-6.884 9.23 0 16.307 7.076l83.615 82.615q8.615 8.616 8.615 20 0 11.385-8.615 20.462l-83.615 83.23q-7.077 7.077-15.999 6.77-8.923-.308-16-7.385t-7.077-16.307q0-9.231 7.077-16.308l46.924-46.924Zm142.69 0q-9.644 0-16.168-6.58-6.524-6.58-6.524-16.307 0-9.727 6.524-16.112 6.524-6.384 16.168-6.384h134.615q9.644 0 16.168 6.58 6.524 6.58 6.524 16.307 0 9.727-6.524 16.112-6.524 6.384-16.168 6.384H582.692Z"/></svg>