<svg xmlns="http://www.w3.org/2000/svg" width="48" height="48" viewBox="0 -960 960 960"><path d="M327.232-310.155q-24.846 0-41.269-16.615-16.423-16.616-16.423-41.077v-224.306q0-24.461 16.423-41.077 16.423-16.615 41.269-16.615h38.846l24.077-24.077q4.615-4.615 9.615-6.615t10.615-2h141.46q5.616 0 10.616 2t9.615 6.615l24.077 24.077h38.846q24.846 0 41.269 16.615 16.423 16.616 16.423 41.077v224.306q0 24.461-16.423 41.077-16.423 16.615-41.269 16.615H327.232Zm153.383-115.384q23.308 0 38.577-15.269 15.269-15.269 15.269-38.577 0-23.307-15.269-38.576-15.269-15.269-38.577-15.269-23.307 0-38.576 15.269-15.269 15.269-15.269 38.576 0 23.308 15.269 38.577 15.269 15.269 38.576 15.269Zm.77 405.537q-171.231 0-299.923-108.922Q52.77-237.847 23.848-404.231 22.231-415.154 27-425.039q4.77-9.884 15.692-11.5Q53-437.769 60-431.116q7 6.654 8.23 16.962Q90.461-268.693 206-168.808 321.539-68.923 469.77-64.385l-64.231-63.847q-6.693-6.692-6.385-16.307.308-9.615 7.385-16.692 6.692-6.692 16.115-6.692 9.422 0 16.499 6.692L557.691-41.693q4.231 4.23 2.731 9.692-1.5 5.461-6.962 6.692-18.153 3.462-36.538 4.385-18.384.922-35.537.922Zm-1.539-919.997q171.23 0 299.615 109.423 128.384 109.423 156.691 275.807 1.616 11.308-2.846 20.5-4.461 9.192-15.384 10.808-9.307 1.23-16.807-5.731-7.5-6.962-8.731-16.654-22.23-145.461-137.769-245.346-115.539-99.885-263.385-104.423l63.847 63.847q6.692 6.692 6.884 16.307.193 9.615-6.884 16.307-7.077 7.077-16.308 7.077-9.23 0-16.307-7.077L402.924-918.307q-3.846-4.23-2.038-9.692 1.808-5.461 7.269-7.077 17.769-3.076 36.038-4 18.269-.923 35.653-.923Z"/></svg>