<svg xmlns="http://www.w3.org/2000/svg" width="48" height="48" viewBox="0 -960 960 960"><path d="M220.001-802.306q0-23.529 17.082-40.611 17.082-17.082 40.611-17.082h404.612q23.529 0 40.611 17.082 17.082 17.082 17.082 40.611v499.921q0 11.981-8.246 20.029-8.245 8.048-19.831 8.048h-17.307v-527.998q0-4.616-3.846-8.463-3.847-3.846-8.463-3.846H277.694q-4.616 0-8.463 3.846-3.846 3.847-3.846 8.463v528.383l.385-.385h-17.877q-11.411 0-19.651-8.048-8.241-8.048-8.241-20.029v-499.921Zm260.258 226.922q23.587 0 40.125-16.797 16.539-16.797 16.539-40.385 0-23.587-16.797-40.126-16.797-16.538-40.385-16.538-23.587 0-40.125 16.797-16.539 16.797-16.539 40.385 0 23.587 16.797 40.125 16.797 16.539 40.385 16.539Zm-40.257 405.383H242.693q-9.644 0-16.168-6.58-6.524-6.58-6.524-16.307 0-9.727 6.524-16.112 6.524-6.384 16.168-6.384h198.924l-49.154-49.155q-6.693-6.692-6.885-15.807-.192-9.115 6.885-16 7.076-6.884 16.307-6.884 9.23 0 16.307 7.076l83.615 82.615q8.615 8.581 8.615 20.021 0 11.441-8.615 20.441l-83.615 83.23q-6.692 6.692-15.807 6.577-9.115-.115-16.192-7.192t-7.077-16.307q0-9.231 7.077-16.308l46.924-46.924Zm142.69 0q-9.644 0-16.168-6.58-6.524-6.58-6.524-16.307 0-9.727 6.524-16.112 6.524-6.384 16.168-6.384h134.615q9.644 0 16.168 6.58 6.524 6.58 6.524 16.307 0 9.727-6.524 16.112-6.524 6.384-16.168 6.384H582.692ZM480-632.307Z"/></svg>