<svg xmlns="http://www.w3.org/2000/svg" width="48" height="48" viewBox="0 -960 960 960"><path d="M157.694-180.001q-23.529 0-40.611-17.082-17.082-17.082-17.082-40.611v-484.612q0-23.529 17.082-40.611 17.082-17.082 40.611-17.082h644.612q23.529 0 40.611 17.082 17.082 17.082 17.082 40.611v484.612q0 23.529-17.082 40.611-17.082 17.082-40.611 17.082H157.694Zm107.691-136.538h429.23q12.606 0 20.726-8.12t8.12-20.726v-269.23q0-12.606-8.12-20.726t-20.726-8.12h-429.23q-12.606 0-20.726 8.12t-8.12 20.726v269.23q0 12.606 8.12 20.726t20.726 8.12Z"/></svg>