<svg xmlns="http://www.w3.org/2000/svg" width="48" height="48" viewBox="0 -960 960 960"><path d="M566.61-543.48q0-41.6-29.63-71.17-29.63-29.58-71.6-29.58H320.62q-6.7 0-11.12 4.33-4.42 4.32-4.42 11.19 0 6.48 4.42 11.52 4.42 5.04 11.12 5.04h144.76q28.27 0 48.22 20.1 19.94 20.11 19.94 48.51 0 28.44-19.94 48.03-19.95 19.59-48.22 19.59H353.15l29.23-29.85q4.85-4.92 4.85-11.53 0-6.62-4.85-11.28-4.84-4.65-11.5-4.65-6.65 0-11.11 4.46L311.23-480q-8.61 8.8-8.61 20.49 0 11.69 8.61 20.36l48.54 48.76q3.81 3.85 10.79 4.16 6.98.31 11.82-4.23 4.85-4.93 4.85-11.58T382-413.77l-28.85-29.46h112.23q41.78 0 71.51-29.31 29.72-29.32 29.72-70.94ZM261.35-180q-37.67 0-67.78-22.54t-46.72-56.62h-98q-12.36 0-20.6-8.24Q20-275.65 20-288v-196.69q0-23.53 17.08-40.61t40.61-17.08h56.93l63.61-176.77q7.1-18.52 23.21-29.68 16.1-11.17 36.1-11.17h297.15q16.69 0 30.74 7.97 14.05 7.96 23.34 22.8l100.46 166.62 172.31 13.84q23.61 2 41.04 20.92Q940-508.92 940-485.31V-288q0 12.35-8.25 20.6-8.24 8.24-20.6 8.24h-98.38q-16.23 34.7-46.34 56.93Q736.32-180 698.65-180t-67.77-22.54q-30.11-22.54-46.73-56.62H375.46q-16.23 34.7-46.34 56.93Q299.02-180 261.35-180Zm.51-45.39q32.22 0 54.37-22 22.16-22 22.16-52.38 0-1.75.84-3.26.85-1.51 2.92-1.51h275.31q1.75 0 3.26 1.51 1.51 1.51 1.51 3.26 0 30.38 22.45 52.38 22.44 22 54.59 22 32.11 0 54.27-22 22.15-22 22.15-52.38 0-1.75.85-3.26.84-1.51 2.92-1.51h115.77v-185.15q0-5-3.27-8.66-3.27-3.65-8.27-3.65l-187.38-16.46q-7.62-1-13.1-4.36-5.49-3.35-9.13-8.87L564.15-714.61H245.67l-72.44 198.76q-3 8.62-10.39 13.73-7.39 5.12-16.45 5.12h-68.7q-5.38 0-8.84 3.65-3.46 3.66-3.46 8.66v180.15h114.76q1.76 0 3.27 1.51 1.5 1.51 1.5 3.26 0 30.38 22.51 52.38 22.5 22 54.43 22ZM480-470Z"/></svg>