<svg xmlns="http://www.w3.org/2000/svg" width="48" height="48" viewBox="0 -960 960 960"><path d="M463.69-111.13q-6.38-6.52-6.38-16.18v-97.31H192.69q-9.66 0-16.18-6.56-6.51-6.57-6.51-16.31 0-9.74 6.51-16.13 6.52-6.38 16.18-6.38h574.62q9.66 0 16.17 6.57 6.52 6.56 6.52 16.3 0 9.74-6.52 16.13-6.51 6.38-16.17 6.38H502.69v97.31q0 9.66-6.56 16.18-6.57 6.51-16.31 6.51-9.74 0-16.13-6.51ZM346.8-499.76q8.2-8.3 8.2-19.96t-8.38-19.78q-8.37-8.11-20.15-8.11t-19.7 8.29q-7.92 8.3-7.92 19.96 0 11.67 8.09 19.78 8.1 8.12 19.88 8.12t19.98-8.3Zm306.54 0q8.2-8.3 8.2-19.96t-8.38-19.78q-8.37-8.11-20.15-8.11t-19.7 8.29q-7.93 8.3-7.93 19.96 0 11.67 8.1 19.78 8.1 8.12 19.88 8.12t19.98-8.3ZM226.39-331.13q-6.39-6.51-6.39-16.18v-240.61q0-4.81.5-9.4.5-4.6 2.45-9.03l55.44-159.8q5.61-17.01 20.59-27.74 14.98-10.72 33.71-10.72h294.62q18.73 0 33.71 10.72Q676-783.16 682-766.15l55 159.61q2 4.62 2.5 9.22.5 4.59.5 9.4v240.61q0 9.67-6.57 16.18-6.56 6.51-16.31 6.51-9.74 0-16.12-6.51-6.39-6.51-6.39-16.18v-63H265.39v63q0 9.67-6.57 16.18t-16.31 6.51q-9.74 0-16.12-6.51Zm51.38-297.25h405.08l-41.77-122.77q-1.16-3.85-4.23-5.96-3.08-2.12-7.31-2.12H330.46q-4.23 0-7.31 2.12-3.07 2.11-4.23 5.96l-41.15 122.77Z"/></svg>