<svg xmlns="http://www.w3.org/2000/svg" width="48" height="48" viewBox="0 96 960 960"><path d="M145.385 605.307v92.999q0 5.385 3.462 8.847 3.462 3.462 8.847 3.462h644.612q5.385 0 8.847-3.462 3.462-3.462 3.462-8.847v-92.999h-669.23ZM393.77 920.151q-14.615 7.616-28.346-.846-13.73-8.461-13.73-25V755.999h-194q-23.596 0-40.645-17.048-17.048-17.049-17.048-40.645V253.694q0-23.596 17.048-40.645 17.049-17.048 40.645-17.048h644.612q23.596 0 40.645 17.048 17.048 17.049 17.048 40.645v444.612q0 23.596-17.048 40.645-17.049 17.048-40.645 17.048h-194v138.306q0 16.539-13.73 25-13.731 8.462-28.346.846L480 876.614l-86.23 43.537ZM145.385 511.154h669.23v-257.46q0-5.385-3.462-8.847-3.462-3.462-8.847-3.462H157.694q-5.385 0-8.847 3.462-3.462 3.462-3.462 8.847v257.46Zm0 187.152V241.385h12.309q-5.385 0-8.847 3.462-3.462 3.462-3.462 8.847v444.612q0 5.385 3.462 8.847 3.462 3.462 8.847 3.462h-12.309v-12.309Z"/></svg>