<svg xmlns="http://www.w3.org/2000/svg" width="48" height="48" viewBox="0 -960 960 960"><path d="M480-352.386q-55.519 0-91.566-36.048-36.048-36.047-36.048-91.566 0-55.519 36.048-91.566 36.047-36.048 91.566-36.048 55.519 0 91.566 36.048 36.048 36.047 36.048 91.566 0 55.519-36.048 91.566-36.047 36.048-91.566 36.048ZM480-480Zm-.048 82.231q34.663 0 58.471-23.76t23.808-58.423q0-34.663-23.76-58.471t-58.423-23.808q-34.663 0-58.471 23.76t-23.808 58.423q0 34.663 23.76 58.471t58.423 23.808ZM162.498-605.692q-9.728 0-16.112-6.524-6.385-6.524-6.385-16.168v-133.922q0-23.529 17.082-40.611 17.082-17.082 40.611-17.082h133.922q9.644 0 16.168 6.581 6.524 6.58 6.524 16.307 0 9.727-6.524 16.112-6.524 6.384-16.168 6.384H197.694q-5.385 0-8.847 3.462-3.462 3.462-3.462 8.847v133.922q0 9.644-6.58 16.168-6.58 6.524-16.307 6.524Zm35.196 465.691q-23.529 0-40.611-17.082-17.082-17.082-17.082-40.611v-133.922q0-9.644 6.581-16.168 6.58-6.524 16.307-6.524 9.727 0 16.112 6.524 6.384 6.524 6.384 16.168v133.922q0 5.385 3.462 8.847 3.462 3.462 8.847 3.462h133.922q9.644 0 16.168 6.58 6.524 6.58 6.524 16.307 0 9.728-6.524 16.112-6.524 6.385-16.168 6.385H197.694Zm430.69 0q-9.644 0-16.168-6.581-6.524-6.58-6.524-16.307 0-9.727 6.524-16.112 6.524-6.384 16.168-6.384h133.922q5.385 0 8.847-3.462 3.462-3.462 3.462-8.847v-133.922q0-9.644 6.58-16.168 6.58-6.524 16.307-6.524 9.728 0 16.112 6.524 6.385 6.524 6.385 16.168v133.922q0 23.529-17.082 40.611-17.082 17.082-40.611 17.082H628.384Zm168.727-465.691q-9.727 0-16.112-6.524-6.384-6.524-6.384-16.168v-133.922q0-5.385-3.462-8.847-3.462-3.462-8.847-3.462H628.384q-9.644 0-16.168-6.58-6.524-6.58-6.524-16.307 0-9.728 6.524-16.112 6.524-6.385 16.168-6.385h133.922q23.529 0 40.611 17.082 17.082 17.082 17.082 40.611v133.922q0 9.644-6.581 16.168-6.58 6.524-16.307 6.524Z"/></svg>