<svg xmlns="http://www.w3.org/2000/svg" width="48" height="48" viewBox="0 -960 960 960"><path d="m235.769-290.001-80.666 80.666q-6.487 6.487-15.795 3.186-9.307-3.301-9.307-12.545v-553.613q0-23.5 17.096-40.596 17.096-17.096 40.596-17.096h504.614q23.5 0 40.596 17.096 17.096 17.096 17.096 40.596v190.615q0 8.923-6.884 15.308Q736.23-560 726.807-560q-9.422 0-15.807-6.524-6.384-6.524-6.384-16.168v-189.615q0-5.385-3.462-8.847-3.462-3.462-8.847-3.462H187.693q-5.385 0-8.847 3.462-3.462 3.462-3.462 8.847v436.923h280.77q8.923 0 15.808 6.884 6.884 6.885 6.884 16.307 0 9.423-6.884 15.808-6.885 6.384-15.808 6.384H235.769ZM305-624.616h270q9.644 0 16.168-6.58 6.524-6.58 6.524-16.307 0-9.727-6.524-16.112-6.524-6.384-16.168-6.384H305q-9.644 0-16.168 6.58-6.524 6.58-6.524 16.307 0 9.727 6.524 16.112 6.524 6.384 16.168 6.384Zm0 167.308h150q9.644 0 16.168-6.58 6.524-6.581 6.524-16.308t-6.524-16.111q-6.524-6.385-16.168-6.385H305q-9.644 0-16.168 6.58-6.524 6.581-6.524 16.308t6.524 16.111q6.524 6.385 16.168 6.385Zm392.308 160H600q-9.644 0-16.168-6.58-6.524-6.581-6.524-16.308t6.524-16.111q6.524-6.385 16.168-6.385h97.308V-440q0-9.644 6.58-16.168 6.581-6.524 16.308-6.524t16.111 6.524q6.385 6.524 6.385 16.168v97.308H840q9.644 0 16.168 6.58 6.524 6.581 6.524 16.308t-6.524 16.111q-6.524 6.385-16.168 6.385h-97.308V-200q0 9.644-6.58 16.168-6.581 6.524-16.308 6.524t-16.111-6.524q-6.385-6.524-6.385-16.168v-97.308Zm-521.924-38.076v-449.232 449.232Z"/></svg>