<svg xmlns="http://www.w3.org/2000/svg" width="48" height="48" viewBox="0 96 960 960"><path d="M272.693 646.615h250.538q8.923 0 15.307-6.567t6.384-16.307q0-9.741-6.514-16.125-6.514-6.385-16.177-6.385H271.693q-8.923 0-15.308 6.752-6.384 6.753-6.384 16.308t6.514 15.939q6.514 6.385 16.178 6.385Zm0-127.308h415.614q8.923 0 15.308-6.567 6.384-6.566 6.384-16.307 0-9.74-6.514-16.125-6.514-6.384-16.178-6.384H271.693q-8.923 0-15.308 6.752-6.384 6.752-6.384 16.307t6.514 15.94q6.514 6.384 16.178 6.384Zm0-127.307h415.614q8.923 0 15.308-6.567 6.384-6.567 6.384-16.307 0-9.741-6.514-16.125-6.514-6.385-16.178-6.385H271.693q-8.923 0-15.308 6.752-6.384 6.753-6.384 16.308t6.514 15.939Q263.029 392 272.693 392ZM100.001 868.228V253.694q0-23 17.082-40.346 17.082-17.347 40.611-17.347h644.612q23 0 40.346 17.347 17.347 17.346 17.347 40.346v484.612q0 23-17.347 40.346-17.346 17.347-40.346 17.347H241.539l-92.461 92.46q-13.615 13.615-31.346 6.271-17.731-7.343-17.731-26.502Zm45.384-40.69 76.923-76.923h579.998q5.385 0 8.847-3.462 3.462-3.462 3.462-8.847V253.694q0-5.385-3.462-8.847-3.462-3.462-8.847-3.462H157.694q-5.385 0-8.847 3.462-3.462 3.462-3.462 8.847v573.844Zm0-573.844v-12.309 586.153-573.844Z"/></svg>