<svg xmlns="http://www.w3.org/2000/svg" width="48" height="48" viewBox="0 -960 960 960"><path d="M191.538-225.385h577.309L480-449.539 191.538-225.385Zm212.923-460.076q-2.23 5.692-7.499 9.846t-12.831 4.154q-9.959 0-16.391-6.419-6.431-6.419-6.431-16.359 0-2.145.192-4.376.192-2.23 1.808-4.461 15.428-34.389 47.193-55.656 31.765-21.267 69.883-21.267 52.999 0 89.961 36.654 36.961 36.654 36.961 89.653 0 45.923-29.654 80.538-29.654 34.615-74.961 45.154v38.77l348.384 268.306q4.846 3.744 7.076 8.379 2.231 4.634 2.231 9.891 0 9.884-6.394 16.268-6.394 6.385-16.298 6.385H122.693q-9.903 0-16.297-6.35-6.395-6.35-6.395-16.188 0-5.231 2.231-9.92 2.231-4.688 7.077-8.465L457.308-489.23v-59.616q0-9.288 6.422-15.99t15.27-6.702q34.769 0 58.846-23.893 24.077-23.894 24.077-58.27 0-33.76-23.788-57.337-23.789-23.577-57.75-23.577-24.385 0-44.962 13.192-20.577 13.193-30.962 35.962Z"/></svg>