<svg xmlns="http://www.w3.org/2000/svg" width="48" height="48" viewBox="0 -960 960 960"><path d="M721.1-369.08q-20.41 0-37.59 9.85-17.18 9.85-27.9 26.77-4.23 6.23-1.19 12.75 3.04 6.53 10.19 9.16 6.47 3.01 12.58.59 6.12-2.43 10.35-7.87 5.38-8.56 14.19-12.94 8.81-4.38 19.46-4.38 16.99 0 26.75 8.4 9.75 8.41 9.75 24.85 0 11.9-7 20.21-7 8.3-15 16.3-7.61 6.62-14.54 13.81-6.92 7.19-11.54 14.54-4 6.12-5 12.42t-1 14.37q0 7.29 5.18 12.46 5.17 5.17 12.46 5.17 7.29 0 12.71-5.18 5.42-5.19 5.42-12.51 0-8.77 6.31-17.31 6.31-8.53 14.65-16.55 14.89-12.6 24.2-25.29 9.3-12.69 9.3-32.45 0-30.04-20.34-48.6-20.35-18.57-52.4-18.57ZM400.85-700h145.38q0-30.08-21.21-50.61-21.21-20.54-51.79-20.54-30.16 0-51.27 20.54-21.11 20.53-21.11 50.61Zm269.69 217.38V-700h45.61q23.5 0 40.6 17.1 17.09 17.09 17.09 40.59v159.46q-25.53-6.84-51.46-6.03-25.92.8-51.84 6.26ZM229.92-263.08q-23.5 0-40.59-17.09-17.1-17.1-17.1-40.6v-321.54q0-23.5 17.1-40.59 17.09-17.1 40.59-17.1h45.62v436.92h-45.62Zm82.54 0V-700h51.46q0-45.61 31.87-76.65 31.86-31.04 77.46-31.04 45.6 0 77.75 31.1T583.15-700H634v228.92q-66.08 25-107.54 81.12-41.46 56.11-44.54 126.88H312.46ZM739.08-126q7.53-7.54 7.53-17.58t-7.45-17.57q-7.44-7.54-17.85-7.54-10.03 0-17.48 7.45-7.45 7.45-7.45 17.47 0 10.41 7.54 17.86 7.54 7.45 17.58 7.45t17.58-7.54Zm-141.89 4.52q-51.42-51.47-51.42-124.92t51.48-124.87q51.47-51.42 124.92-51.42 73.44 0 124.87 51.47 51.42 51.48 51.42 124.93 0 73.44-51.48 124.87Q795.51-70 722.06-70t-124.87-51.48Zm-472.96-30.83q-9.65 0-16.17-6.57-6.52-6.58-6.52-16.31 0-9.73 6.52-16.12 6.52-6.38 16.17-6.38h361.39q1.23 12.15 5.19 23.56 3.96 11.41 8.65 21.82H124.23Z"/></svg>