<svg xmlns="http://www.w3.org/2000/svg" width="48" height="48" viewBox="0 -960 960 960"><path d="M557.769-111.154q1.923.769 3.654.769 1.731 0 3.27-.769l242.614-75.692q.77-21.923-13.384-34.577t-32.846-12.038H560.155q-17.924 1-35.924-1.808t-35.692-8.962l-69.462-21.154q-9.308-3.23-13.961-12.538-4.654-9.307-1.423-18.615 3.23-8.923 11.815-13.192 8.586-4.269 18.338-.423l68.231 23.308q13.692 4.769 28.846 6.577 15.155 1.808 31.924 1.423h43.692q0-22.154-12.462-36.885-12.461-14.73-30.923-21.961l-220.308-83-2.307-.577q-.77-.192-1.924-.192H250v219.152l307.769 91.154Zm-9.538 43.537L250-154.308q-2.385 25.846-21.346 40.077Q209.692-100 192.307-100h-66.536q-23.596 0-40.644-17.048-17.048-17.049-17.048-40.645v-251.458q0-23.98 17.048-40.836 17.048-16.856 40.644-16.856h211.46q5.333 0 10.282 1 4.948 1 9.948 2.615l220.693 82.385q33.922 12.923 54.768 38.5 20.846 25.576 20.846 63.499h107.309q43.91 0 71.416 30.846 27.506 30.845 27.506 72.999 0 9.076-4.539 16.73-4.538 7.654-12.615 10.269L581.077-67.616q-7.787 2-16.317 2.192-8.529.192-16.529-2.192Zm-434.768-90.077q0 5.385 3.461 8.847 3.462 3.462 8.847 3.462h65.536q5.386 0 8.847-2.885 3.462-2.885 3.462-9.424V-421.46h-77.845q-5.385 0-8.847 3.461-3.461 3.462-3.461 8.847v251.458ZM590-456.768l-45.384-16.846v-44.077q0-57.462-39.931-97.578-39.932-40.115-97.377-40.115-51.385 0-88.5 32.154-37.116 32.154-48.182 81h-45.779q9.231-60.23 52.077-102.923 42.846-42.692 107.692-54.769v-114.693h-37.308q-9.673 0-16.182-6.56-6.51-6.56-6.51-16.307 0-9.748 6.51-16.132 6.509-6.385 16.182-6.385h180q23.308 0 41.961 5.347 18.654 5.346 38.115 13.268 7.596 3.847 13.337 9.808 5.74 5.961 5.74 14.038 0 9.777-6.749 16.734-6.749 6.958-16.776 6.958-4.628 0-8.974-2.231-4.346-2.23-8.192-4.461-12.616-7.231-27.231-10.654-14.615-3.423-31.231-3.423H430v114.693q71.308 11.237 115.654 63.388Q590-584.384 590-518.076v61.308Zm-182.692-60.308Zm348.171-68.078q-26.326 0-45.018-18.842t-18.692-45.465q0-31.461 16.923-60.461t38.384-58.461q1-1.616 8.615-4 .385 0 9 4 21.462 29.461 38.385 58.269 16.923 28.807 16.923 60.653 0 26.623-18.905 45.465-18.905 18.842-45.615 18.842Z"/></svg>