<svg xmlns="http://www.w3.org/2000/svg" width="48" height="48" viewBox="0 96 960 960"><path d="m684.461 454.538-22.615-49.615-48.615-21.616 48.615-22.615 22.615-48.615 22.616 48.615 48.23 22.615-48.23 21.616-22.616 49.615ZM795.326 633q-26.71 0-45.21-18.843-18.5-18.842-18.5-45.464 0-15.252 8.846-38.164 8.846-22.913 34-61.682 8.615-12.846 21.461-12.846 12.846 0 21.077 12.846 25.538 38.384 34.192 61.489 8.654 23.105 8.654 38.357 0 26.622-18.905 45.464Q822.037 633 795.326 633Zm-212.634-35.307-45.384-17.231v-44.077q0-57.462-39.931-97.578-39.932-40.115-97.377-40.115-55.231 0-90.731 33.077-35.5 33.077-45.5 80.077h-46.23Q226.77 452.231 269 409.231q42.231-43 108.308-55.077V238.692H340q-9.673 0-16.182-6.56-6.51-6.56-6.51-16.307 0-9.748 6.51-16.132 6.509-6.385 16.182-6.385h180q17.231 0 33.654 3.5 16.423 3.5 31.269 9.116 10.384 4.076 12.307 14.73 1.923 10.653-7.23 20.192-3.846 4.615-11.539 6.23-7.692 1.616-13.768-1-10.77-4-21.632-5.692-10.863-1.692-23.061-1.692h-97.308v115.462Q494 365.391 538.346 417.542 582.692 469.693 582.692 536v61.693Zm-32.231 327.768q1.923.769 3.654.769 1.731 0 3.269-.769l242.615-75.692q-3.692-13-13.27-24.731-9.578-11.731-21.191-11.731h-222.23q-7.769 0-26.077-1.692-18.308-1.693-36.001-9.077l-69.461-21.154q-9.308-3.231-13.962-12.538-4.653-9.308-1.423-18.615 3.231-8.923 11.816-13.192 8.586-4.269 18.337-.423l89.154 30.615q4.154 1.923 23.155 1.5 19-.423 50.218-.807h9.166q0-15.882-5.269-27.557-5.269-11.674-17.423-16.674l-240-90.308-2.308-.577q-.769-.192-1.923-.192h-88.616v201.691l307.77 91.154Zm-9.539 43.538-298.231-86.693q-2.384 25.846-21.346 40.077-18.961 14.231-36.346 14.231h-66.536q-23.596 0-40.644-17.049-17.048-17.048-17.048-40.644V644.924q0-23.98 17.048-40.836 17.048-16.856 40.644-16.856h211.459q5.334 0 10.283 1 4.948 1 9.948 2.616l240.384 89.692q23.154 8.461 39.539 28.461 16.384 20 16.384 58.923h125.155q36.999 0 59.037 25.769 22.038 25.768 22.038 67.922 0 9.076-4.23 16.422-4.231 7.347-12.923 10.577l-261.768 80.385q-7.787 2-16.317 2-8.53 0-16.53-2Zm-434.768-90.078q0 5.001 3.462 8.655 3.462 3.654 8.847 3.654h65.536q5.385 0 8.847-3.077 3.462-3.077 3.462-9.232V632.616h-77.845q-5.385 0-8.847 3.462-3.462 3.461-3.462 8.846v233.997Zm252.23-367.075Z"/></svg>