<svg xmlns="http://www.w3.org/2000/svg" width="48" height="48" viewBox="0 -960 960 960"><path d="M253.308-180.001q-80.692 0-136.999-56.5T60.002-373.693q0-73.384 49.23-129.114 49.231-55.731 122.769-62.73 15.384-93.154 85.73-153.5 70.346-60.346 163.884-60.346 104.692 0 177.076 75.73 72.385 75.731 72.385 182.038v37.847h12.308q65.461-2.385 111.038 41.307t45.577 110.384q0 62.461-44.808 107.268-44.807 44.808-107.268 44.808H253.308Zm0-45.384h494.615q44.231 0 75.461-31.231 31.231-31.23 31.231-75.461 0-43.846-31.231-75.077-31.23-31.231-75.461-31.231h-62.231v-83.23q0-88.692-60.231-150.539Q565.231-734 478.385-734q-86.462 0-147.192 61.846-60.731 61.847-60.731 150.539h-19.385q-60.846 0-103.269 42.923-42.423 42.923-42.423 105.384 0 61.462 43.231 104.692 43.23 43.231 104.692 43.231ZM480-480Z"/></svg>