<svg xmlns="http://www.w3.org/2000/svg" width="48" height="48" viewBox="0 -960 960 960"><path d="M441.539-370.616q-13.297 0-22.11-8.813-8.813-8.813-8.813-22.11v-156.922q0-13.297 8.813-22.11 8.813-8.813 22.11-8.813h116.922q13.297 0 22.11 8.813 8.813 8.813 8.813 22.11v156.922q0 13.297-8.813 22.11-8.813 8.813-22.11 8.813H441.539Zm7.845-38.768h101.232v-141.232H449.384v141.232Zm-287.845 38.768q-13.296 0-22.11-8.813-8.813-8.813-8.813-22.11v-156.922q0-13.297 8.813-22.11 8.814-8.813 22.11-8.813h116.922q13.297 0 22.11 8.813 8.813 8.813 8.813 22.11V-550q0 8.477-5.453 13.931-5.454 5.453-13.931 5.453-7.846 0-13.192-4.923t-6.192-12.769v-2.308H169.384v141.232h101.232v-2.308q.846-7.846 6.192-12.769T290-429.384q8.477 0 13.931 5.453 5.453 5.454 5.453 13.931v8.461q0 13.297-8.813 22.11-8.813 8.813-22.11 8.813H161.539Zm557.923 120q-12.366 0-20.606-8.24-8.24-8.24-8.24-20.606v-62.846q0-13.296 8.813-22.109 8.813-8.814 22.11-8.814h89.077v-57.385H710q-8.477 0-13.931-5.453-5.453-5.454-5.453-13.931t5.453-13.931q5.454-5.453 13.931-5.453h108.461q13.297 0 22.11 8.813 8.813 8.813 8.813 22.11v60.769q0 13.296-8.813 22.109-8.813 8.814-22.11 8.814h-89.077v57.385H830q8.477 0 13.931 5.453 5.453 5.454 5.453 13.931t-5.453 13.931q-5.454 5.453-13.931 5.453H719.462Z"/></svg>