<svg xmlns="http://www.w3.org/2000/svg" width="48" height="48" viewBox="0 -960 960 960"><path d="M626.231-440 481.385-584.846q-4.615-4.615-6.615-9.749-2-5.133-2-10.615 0-5.867 2-10.674 2-4.808 6.615-9.423l145.461-145.462q6.462-6.461 15.385-6.461t15.999 6.919q6.692 6.919 6.692 16 0 9.08-6.692 15.772l-110.77 110.77h299.847q9.673 0 16.183 6.56 6.509 6.56 6.509 16.308 0 9.747-6.509 16.132-6.51 6.384-16.183 6.384H547.46L658.846-471q6.076 6.077 6.076 15.192T658.23-440q-7.076 7.076-16.192 6.884-9.115-.192-15.807-6.884ZM301.77-189.847q7.076 7.077 15.999 7.077 8.923 0 16-7.077l144.846-144.846q4.615-4.615 6.807-9.556 2.193-4.941 2.193-10.808 0-5.482-2.193-10.482-2.192-5-6.807-9.615L333.154-520.615q-6.462-6.461-15.385-6.461t-15.999 6.918q-6.692 6.919-6.692 16T301.77-488l110.77 110.385H112.693q-9.673 0-16.183 6.56T90-354.748q0 9.748 6.51 16.132 6.51 6.385 16.183 6.385H412.54L301.154-220.846q-6.076 6.077-6.076 15.192t6.692 15.807Z"/></svg>