<svg xmlns="http://www.w3.org/2000/svg" width="48" height="48" viewBox="0 -960 960 960"><path d="M197.69-140q-24.84 0-41.27-16.42Q140-172.85 140-197.69v-564.62q0-24.84 16.42-41.27Q172.85-820 197.69-820h202q5.08-29.23 27.58-48.46T480-887.69q30.42 0 52.83 19.23 22.4 19.23 27.48 48.46h202q24.84 0 41.27 16.42Q820-787.15 820-762.31v215.39q0 9.66-6.57 16.18-6.56 6.51-16.31 6.51-9.74 0-16.12-6.51-6.39-6.52-6.39-16.18v-215.39q0-4.61-3.84-8.46-3.85-3.84-8.46-3.84h-73.08v53.84q0 12.36-8.25 20.6-8.24 8.25-20.6 8.25H299.62q-12.36 0-20.6-8.25-8.25-8.24-8.25-20.6v-53.84h-73.08q-4.61 0-8.46 3.84-3.84 3.85-3.84 8.46v564.62q0 4.61 3.84 8.46 3.85 3.84 8.46 3.84h211.54q9.66 0 16.18 6.57 6.51 6.57 6.51 16.31 0 9.74-6.51 16.12-6.52 6.39-16.18 6.39H197.69Zm308.12-640.35q10.34-10.34 10.34-25.8t-10.34-25.81q-10.35-10.35-25.81-10.35-15.46 0-25.81 10.35-10.34 10.35-10.34 25.81 0 15.46 10.34 25.8Q464.54-770 480-770q15.46 0 25.81-10.35ZM628.85-180q-62.73 0-106.94-44.26-44.22-44.25-44.22-107.03 0-62.79 44.26-106.9 44.25-44.12 107.04-44.12 62.78 0 106.89 44.22Q780-393.88 780-331.15q0 24.07-6.12 48.15-6.11 24.08-22.73 42.54L844-148q6.69 6.69 6.88 15.81.2 9.11-6.88 16.19-7.08 7.08-16 6.88-8.92-.19-16-6.88l-92.46-92.46Q699.69-193 676.31-186.5q-23.39 6.5-47.46 6.5Zm74.92-76.07q30.84-30.69 30.84-74.93 0-44.23-30.68-75.08-30.69-30.84-74.93-30.84-44.23 0-75.08 30.69-30.84 30.69-30.84 74.92 0 44.23 30.69 75.08 30.69 30.84 74.92 30.84 44.23 0 75.08-30.68Z"/></svg>