<svg xmlns="http://www.w3.org/2000/svg" width="48" height="48" viewBox="0 -960 960 960"><path d="M566.77-291.847q-9.308-3.846-12.962-12.038-3.653-8.192-.192-17.115 6.846-17.077 10.962-33.846 4.115-16.769 7.73-33.846l38.461 38.461q-3 11-6.308 22.308-3.307 11.307-8.307 22.923-3.462 8.692-12.462 12.846-8.999 4.153-16.922.307Zm-131-54.615q-8.923-2.846-12.769-11.154-3.846-8.307-1-17.23 8-25 12-51.885 4-26.884 4-53.269 0-11.307-.808-22.73t-2.423-23.115l48.614 48.614q0 30-4.115 59t-13.731 57.615q-2.846 8.692-11.653 13.346-8.808 4.654-18.115.808Zm-134-56.385q-9.539-3.461-13.5-11.269-3.961-7.807-.115-16.961 3.23-11.384 5.423-23.961 2.192-12.577 2.192-24.962t-1.385-24.462q-1.384-12.077-5-23.846-3.461-9.769 0-17.884 3.462-8.115 11.385-10.961 8.692-3.231 17.576.307 8.885 3.539 11.731 12.616 5.23 15.846 8.154 31.807 2.923 15.962 2.923 32.423 0 16.461-2.923 32.115-2.924 15.654-8.154 31.5-2.846 9.077-11.231 12.923-8.384 3.846-17.076.615Zm321.614-27.308-43.153-42.152q0-42.77-6-84.539T553.616-638q-3.461-9.307.5-17.5 3.962-8.192 12.654-12.038 8.923-3.846 17.422.308 8.5 4.154 11.962 12.846 15.23 41.461 22.346 85.5 7.115 44.038 7.115 88.884 0 12.307-.5 24.923-.5 12.615-1.731 24.922ZM480-100.001q-80 0-149.346-29.154-69.345-29.154-120.845-80.654t-80.654-120.845Q100.001-400 100.001-480q0-67.615 20.962-126.846 20.962-59.231 58.885-108.077l-112.616-114q-6.692-6.308-6.692-15.731 0-9.422 6.692-16.115 6.692-7.076 16.308-7.076 9.615 0 15.922 7.076l759.384 758.615q6.693 6.693 6.693 16.308t-7.077 16.307q-6.692 6.692-16.115 6.692-9.423 0-16.5-6.692L714.923-179.848q-48.846 37.923-108.077 58.885Q547.615-100.001 480-100.001Zm0-45.384q57.693 0 108.808-17.616 51.116-17.615 93.885-49.077L212.078-682.693q-31.462 42.769-49.077 93.885Q145.385-537.693 145.385-480q0 141.538 96.538 238.077Q338.462-145.385 480-145.385Zm-32.615-302Zm107.154-107.154ZM284.616-806.691q44.692-27.231 94.192-40.269 49.5-13.039 101.192-13.039 75.769 0 145.307 28.654 69.538 28.654 123.461 82.577t82.577 123.461Q859.999-555.769 859.999-480q0 51.307-12.731 99.615-12.731 48.307-37.577 93-4.846 8.307-13.961 10.23t-17.423-3.538q-8.692-5.462-10.115-14.885-1.423-9.422 3.423-17.73 21-38.615 32-80.538 11-41.923 11-86.154 0-139.692-97.461-237.154Q619.692-814.615 480-814.615q-44.231 0-86.654 11-42.423 11-80.653 32.615-8.308 4.846-17.115 3.616-8.808-1.231-15.269-8.923-6.462-7.308-5.231-16.423 1.231-9.115 9.538-13.961Z"/></svg>