<svg xmlns="http://www.w3.org/2000/svg" width="48" height="48" viewBox="0 96 960 960"><path d="M566.77 764.153q7.923 3.846 16.933-.4 9.011-4.247 12.451-12.753 15.23-42.077 22.346-86.116 7.115-44.038 7.115-88.884 0-44.846-7.115-88.884-7.116-44.039-22.346-85.5-3.368-8.641-11.915-12.821-8.546-4.179-17.482-.388-8.679 3.901-12.641 12.093-3.961 8.193-.5 17.5 13.799 37.958 20.207 77.458 6.408 39.5 6.408 80.521t-6.408 81.035q-6.408 40.014-20.207 77.986-3.461 8.923.192 17.038 3.654 8.115 12.962 12.115Zm-130.93-54.634q9.237 3.865 18.072-.809 8.835-4.675 11.626-13.326 9.616-28.846 13.731-58.71 4.115-29.865 4.115-60.692 0-30.828-4.115-60.366-4.115-29.539-13.731-58.385-2.791-8.573-11.934-13.094-9.142-4.521-18.38-.931-8.727 3.23-12.398 11.282-3.671 8.051-.825 16.973 8 25.385 12 51.77 4 26.384 4 52.769 0 26.385-4 53.269-4 26.885-12 51.885-2.846 8.923.947 17.211 3.794 8.289 12.892 11.154Zm-134.07-56.366q8.692 3.231 17.076-.615 8.385-3.846 11.231-12.923 5.23-15.846 8.154-31.577 2.923-15.73 2.923-32.038 0-16.308-2.923-32.346-2.924-16.038-8.154-31.884-2.846-9.077-11.731-12.616-8.884-3.538-17.576-.307-7.923 2.846-11.385 10.961-3.461 8.115 0 17.884 3.616 11.769 5 23.846 1.385 12.077 1.385 24.462t-2.192 24.962q-2.193 12.577-5.423 23.961-3.846 9.154.115 17.007 3.961 7.852 13.5 11.223Zm178.297 302.846q-80.067 0-149.435-29.112-69.368-29.112-120.874-80.595-51.506-51.484-80.631-120.821-29.126-69.338-29.126-149.404 0-79.451 29.112-148.82 29.112-69.368 80.595-120.874 51.484-51.506 120.821-80.939 69.338-29.433 149.404-29.433 79.451 0 148.82 29.42 69.368 29.42 120.874 80.903 51.506 51.483 80.939 120.82 29.433 69.338 29.433 148.789 0 80.067-29.42 149.435-29.42 69.368-80.903 120.874-51.483 51.506-120.82 80.631-69.338 29.126-148.789 29.126ZM467 576Zm13 334.615q141.538 0 238.077-96.538Q814.615 717.538 814.615 576t-96.538-238.077Q621.538 241.385 480 241.385t-238.077 96.538Q145.385 434.462 145.385 576t96.538 238.077Q338.462 910.615 480 910.615Z"/></svg>