<svg xmlns="http://www.w3.org/2000/svg" width="48" height="48" viewBox="0 -960 960 960"><path d="M479.955-422.845q45.974 0 77.202-31.294 31.227-31.294 31.227-77.429 0-45.974-31.182-77.202-31.182-31.227-77.157-31.227-45.974 0-77.202 31.228-31.227 31.229-31.227 77.269 0 46.04 31.182 77.348 31.182 31.307 77.157 31.307ZM152.001-180.001q-23.528 0-40.61-17.082t-17.082-40.611v-484.612q0-25.231 17.082-41.462t40.61-16.231h655.998q23.528 0 40.61 17.082t17.082 40.611v484.612q0 23.529-17.082 40.611-17.082 17.082-40.61 17.082H152.001Zm96.847-45.384h462.304q-47.846-53.384-110.115-78.922-62.268-25.538-120.845-25.538-59.576 0-120.729 25.538t-110.615 78.922ZM180.924-72.31q-9.894 0-16.293-6.405-6.399-6.404-6.399-16.307 0-9.903 6.399-16.287 6.399-6.385 16.293-6.385h598.152q9.894 0 16.293 6.405 6.399 6.405 6.399 16.307 0 9.903-6.399 16.287-6.399 6.385-16.293 6.385H180.924Zm0-769.996q-9.894 0-16.293-6.405-6.399-6.405-6.399-16.307 0-9.903 6.399-16.287 6.399-6.385 16.293-6.385h598.152q9.894 0 16.293 6.405 6.399 6.404 6.399 16.307 0 9.903-6.399 16.287-6.399 6.385-16.293 6.385H180.924Z"/></svg>