<svg xmlns="http://www.w3.org/2000/svg" width="48" height="48" viewBox="0 -960 960 960"><path d="M737.461-627q-1.231 39.693 26.346 71.462 27.577 31.769 66.617 43.418 13.113 4.505 21.536 14.368 8.423 9.863 8.039 23.906-.77 52.384-13.885 98.307t-40.192 88.846q-5.462 8.307-14.211 9.423-8.749 1.115-16.789-4.962-8.692-6.077-10.115-15.807-1.423-9.731 4.039-18.038 19.769-34.385 32.154-72.654 12.384-38.269 15-81.423-52.846-19.616-84.616-57.962-31.769-38.346-37.845-90.115-80.231-8.692-135.154-63.076-54.923-54.385-60.231-133.154-51.709-3.154-97.623 8.538-45.915 11.693-86.069 35.462-8.813 5.461-18.06 3.846-9.247-1.615-15.709-9.807-6.077-7.808-3.863-17.48 2.213-9.673 10.325-14.174 47.538-28.076 101.691-40.5Q443-860.999 499.154-860.999q17.076 0 30.115 9.77 13.038 9.769 13.653 25.845 2.231 68.77 49.577 113.923 47.347 45.154 115.193 49.077 13.077 1 21.73 11.22 8.654 10.219 8.039 24.164ZM339.724-362.231q-23.733 0-40.613-16.998-16.88-16.997-16.88-40.73 0-24.118 16.998-40.964 16.997-16.846 40.73-16.846 24.118 0 40.964 16.964t16.846 41.081q0 23.733-16.964 40.613t-41.081 16.88ZM480-100.001q-80 0-149.346-29.154-69.345-29.154-120.845-80.654t-80.654-120.845Q100.001-400 100.001-480q0-67.638 20.962-126.857 20.962-59.22 58.885-108.066L66.617-828.539q-6.692-6.374-6.885-15.956-.192-9.581 6.937-16.274 6.745-7.076 16.115-7.076 9.37 0 16.063 7.076l759.615 759.231q6.692 6.867 6.884 16.087.193 9.22-6.937 16.104-7.129 6.885-16.282 6.885-9.152 0-16.28-7.077L714.923-179.848q-48.846 37.923-108.066 58.885Q547.638-100.001 480-100.001Zm0-45.384q57.418 0 108.671-17.616 51.253-17.615 94.022-49.077L212.078-682.693q-31.462 42.769-49.077 94.022Q145.385-537.418 145.385-480q0 141.538 96.538 238.077Q338.462-145.385 480-145.385Zm-32.615-302Zm108.538-110.538Z"/></svg>