<svg xmlns="http://www.w3.org/2000/svg" width="48" height="48" viewBox="0 -960 960 960"><path d="M447.307-161.771Q335.154-173.54 257.578-256.28 180.001-339.019 180.001-455q0-62.538 23.847-114.999 23.846-52.462 63.999-94.154L449.539-842.46q6.615-6.615 14.48-9.615 7.866-3 15.731-3t15.981 3q8.115 3 14.73 9.615l181.847 178.442q33.998 34.788 56.268 77.557 22.269 42.769 28.653 92.768h-44.828q-5.94-39.926-23.795-73.445-17.854-33.518-46.837-62.4L480-808.307 298.231-629.538Q262.616-594.307 244-550.955 225.385-507.602 225.385-455q0 96.395 64 165.939 64 69.545 157.922 81.04v46.25Zm31.308-346.46ZM698.923-349.23q-18.769-7.616-38.556-14-19.787-6.385-40.537-6.385-16.599 0-32.484 4.192-15.885 4.193-31.269 10.577-7.692 3.231-15.882.656-8.189-2.575-11.579-10.732-3.846-7.487-.29-15.12 3.555-7.633 11.213-11.957 19.384-8 39.737-13 20.354-5 40.707-5 22.292 0 43.306 5.308 21.015 5.307 41.715 13.307 18.842 8 38.629 14.193 19.787 6.192 40.547 6.192 16.609 0 32.758-4.015t31.37-10.37q7.692-3.23 16.153-.615 8.462 2.615 11.693 10.793 3.846 7.771.115 15.404t-11.808 11.572q-19.42 7.829-39.812 12.722-20.391 4.893-40.783 4.893-22.215 0-43.271-5.115-21.056-5.116-41.672-13.5Zm0 119.614q-18.769-7.615-38.556-14Q640.58-250 619.83-250q-16.599 0-32.484 4.192-15.885 4.192-31.269 10.577-7.692 3.231-15.882.656-8.189-2.575-11.579-10.733-3.846-7.487-.29-15.12 3.555-7.633 11.213-11.956 19.384-8 39.737-13 20.354-5 40.707-5 22.292 0 43.306 5.307 21.015 5.308 41.715 13.308 18.842 8 38.629 14.192 19.787 6.193 40.547 6.193 16.609 0 32.758-4.015t31.37-10.37q7.692-3.231 16.153-.615 8.462 2.615 11.693 10.792 3.846 7.772.115 15.404-3.731 7.633-11.808 11.572-19.42 7.829-39.812 12.722Q804.258-211 783.866-211q-22.215 0-43.271-5.116-21.056-5.115-41.672-13.5Zm0 119.615q-18.769-7.615-38.556-14t-40.537-6.385q-16.599 0-32.484 4.193-15.885 4.192-31.269 10.577-7.692 3.23-15.873.429-8.18-2.802-11.588-10.506-3.846-7.487-.29-15.12 3.555-7.633 11.213-11.957 19.384-8 39.737-13 20.354-5 40.707-5 22.292 0 43.306 5.308 21.015 5.308 41.715 13.308 18.842 8 38.629 14.192t40.547 6.192q16.609 0 32.758-4.014 16.149-4.015 31.37-10.37 7.692-3.231 16.153-.616 8.462 2.616 11.693 10.793 3.846 7.771.115 15.404t-11.808 11.572q-19.42 7.829-39.812 12.722-20.391 4.893-40.783 4.893-22.215 0-43.271-5.115t-41.672-13.5Z"/></svg>