<svg xmlns="http://www.w3.org/2000/svg" width="48" height="48" viewBox="0 0 48 48"><path d="M27 16.65 22.95 32.2q-.15.55.2.975.35.425.85.425.4 0 .7-.225.3-.225.4-.625l4.1-15.55q.05-.15.1-.325.05-.175.05-.375 0-.9-.725-1.5T27 14.4h-7.15q-.5 0-.825.325-.325.325-.325.775 0 .5.325.825.325.325.825.325ZM24 43q-3.9 0-7.375-1.5t-6.05-4.075Q8 34.85 6.5 31.375 5 27.9 5 24q0-3.95 1.5-7.425Q8 13.1 10.575 10.55 13.15 8 16.625 6.5 20.1 5 24 5q3.95 0 7.425 1.5Q34.9 8 37.45 10.55 40 13.1 41.5 16.575 43 20.05 43 24q0 3.9-1.5 7.375t-4.05 6.05Q34.9 40 31.425 41.5 27.95 43 24 43Z"/></svg>