<svg xmlns="http://www.w3.org/2000/svg" width="48" height="48" viewBox="0 -960 960 960"><path d="M157.694-180.001q-23.616 0-40.654-17.039-17.039-17.038-17.039-40.654v-484.612q0-23.616 17.039-40.654 17.038-17.039 40.654-17.039h644.612q23.616 0 40.654 17.039 17.039 17.038 17.039 40.654v254.535q-25.231-9.769-51.923-4.423t-47.154 26.193L591.846-277.54l-55.307-55.692Q508.615-361.54 468.5-361.54q-40.116 0-68.424 27.923-27.538 27.923-27.73 67.654-.193 39.731 26.961 67.654l18.307 18.308h-259.92Zm-12.309-443.844v112.46h669.23v-112.46h-669.23Zm446.461 449.383L812.154-394.77q6.692-6.692 16.115-6.577 9.422.116 16.499 7.192 6.462 7.077 6.769 16 .308 8.923-6.769 16L612.076-129.464q-8.615 8.616-20.23 8.616-11.616 0-20.231-8.616L451.693-249.386q-6.693-6.692-6.385-16.307.308-9.616 7-16.308 7.077-7.077 16.499-7.077 9.423 0 16.115 7.077l106.924 107.539Z"/></svg>