<svg xmlns="http://www.w3.org/2000/svg" width="48" height="48" viewBox="0 -960 960 960"><path d="M145.385-623.845h669.23v-98.461q0-4.616-3.846-8.463-3.847-3.846-8.463-3.846H157.694q-4.616 0-8.463 3.846-3.846 3.847-3.846 8.463v98.461Zm-45.384-98.461q0-23.529 17.082-40.611 17.082-17.082 40.611-17.082h644.612q23.529 0 40.611 17.082 17.082 17.082 17.082 40.611v210.921H145.385v273.691q0 4.616 3.846 8.463 3.847 3.846 8.463 3.846h203q9.663 0 16.177 6.567 6.514 6.566 6.514 16.307t-6.514 16.125q-6.514 6.385-16.177 6.385h-203q-23.529 0-40.611-17.082-17.082-17.082-17.082-40.611v-484.612Zm45.384 0v496.921-136.155 84-457.075 12.309Zm446.461 547.844L812.154-394.77q6.81-6.692 16.174-6.577 9.363.116 16.44 7.247 6.648 7.132 6.862 16 .215 8.868-6.862 15.945L612.076-129.464q-8.685 8.616-20.265 8.616-11.581 0-20.196-8.616L451.693-249.386q-6.693-6.692-6.385-16.307.308-9.616 7.231-16.716 6.506-6.669 16.099-6.669 9.592 0 16.284 7.077l106.924 107.539Z"/></svg>