<svg xmlns="http://www.w3.org/2000/svg" width="48" height="48" viewBox="0 -960 960 960"><path d="M724.46-267.31v-108.38q0-7.23-4.73-12.16-4.73-4.92-11.96-4.92t-12.46 5.23q-5.23 5.23-5.23 12.46v109.39q0 6 2 10.8 2 4.81 5.61 9.43l79.39 80.61q5.23 5.23 12.46 5.43 7.23.19 12.46-5.43 5.61-5.23 5.61-12.27 0-7.03-5.61-12.65l-77.54-77.54Zm-11 205.77q-84.92 0-144.46-59.04-59.54-59.04-59.54-143.57 0-84.93 59.54-144.66 59.54-59.73 144.46-59.73 84.54 0 143.77 59.73 59.23 59.73 59.23 144.66 0 84.53-59.23 143.57Q798-61.54 713.46-61.54ZM157.69-180q-23.61 0-40.65-17.04T100-237.69v-484.62q0-23.61 17.04-40.65T157.69-780h644.62q23.61 0 40.65 17.04T860-722.31V-528q0 9.92-6.39 16-6.38 6.08-16.3 6.08-9.93 0-16.31-6.39-6.39-6.38-6.39-16.3v-88.54H145.39v104.76h390.3q10.85 0 14.08 10.93 3.23 10.92-6.77 17.38-49.23 38.23-77.92 94.66-28.7 56.42-28.7 122.5 0 13.92 1.12 27.53 1.12 13.62 3.96 26.93 2.23 12.61-5.08 22.54-7.3 9.92-19.53 9.92H157.69Z"/></svg>