<svg xmlns="http://www.w3.org/2000/svg" width="48" height="48" viewBox="0 -960 960 960"><path d="M180-185.39v-576.92q0-23.84 16.92-40.77Q213.85-820 237.69-820h484.62q23.84 0 40.77 16.92Q780-786.15 780-762.31v576.92h57.31q9.92 0 16.3 6.39 6.39 6.38 6.39 16.31 0 9.92-6.39 16.3-6.38 6.39-16.3 6.39H122.69q-9.92 0-16.3-6.39-6.39-6.38-6.39-16.3 0-9.93 6.39-16.31 6.38-6.39 16.3-6.39H180ZM243.15-480q92.85 27.85 144.2 115.19 51.34 87.35 59.34 179.42h66.62q8-92.07 59.04-179.42Q623.38-452.15 716.23-480 623-507.85 571.77-595.19q-51.23-87.35-58.85-179.42h-66.84q-8 92.07-59.04 179.42Q336-507.85 243.15-480Z"/></svg>