<svg xmlns="http://www.w3.org/2000/svg" width="48" height="48" viewBox="0 -960 960 960"><path d="M551.493-578.078q-12.309 0-20.555-8.245-8.245-8.245-8.245-20.791v-183.848q0-12.546 8.327-20.791 8.327-8.246 20.636-8.246h239.543q12.309 0 20.554 8.246 8.246 8.245 8.246 20.791v183.848q0 12.546-8.327 20.791-8.327 8.245-20.636 8.245H551.493ZM168.801-467.309q-12.309 0-20.554-8.249-8.246-8.249-8.246-20.444v-295.312q0-12.194 8.327-20.439 8.327-8.246 20.636-8.246h239.543q12.309 0 20.555 8.25 8.245 8.249 8.245 20.444v295.311q0 12.195-8.327 20.44-8.327 8.245-20.636 8.245H168.801Zm382.692 327.308q-12.309 0-20.555-8.25-8.245-8.249-8.245-20.443v-295.312q0-12.195 8.327-20.44 8.327-8.245 20.636-8.245h239.543q12.309 0 20.554 8.249 8.246 8.249 8.246 20.444v295.312q0 12.194-8.327 20.439-8.327 8.246-20.636 8.246H551.493Zm-382.692 0q-12.309 0-20.554-8.246-8.246-8.245-8.246-20.791v-183.848q0-12.546 8.327-20.791 8.327-8.245 20.636-8.245h239.543q12.309 0 20.555 8.245 8.245 8.245 8.245 20.791v183.848q0 12.546-8.327 20.791-8.327 8.246-20.636 8.246H168.801Z"/></svg>