<svg xmlns="http://www.w3.org/2000/svg" width="48" height="48" viewBox="0 -960 960 960"><path d="M480.919-100.001q-78.597 0-147.725-29.938t-120.928-81.235q-51.799-51.298-81.724-120.677-29.925-69.38-29.925-147.398 0-147.969 98.807-256.282 98.807-108.314 249.499-121.852v71.779q-120.385 12.757-198.539 100.963-78.154 88.206-78.154 205.256 0 128.067 90.16 217.918 90.159 89.852 218.327 89.852 75.513 0 141.745-34.038 66.231-34.039 110.462-93.039l61.459 36.768q-55.692 77.231-137.65 119.577-81.959 42.346-175.814 42.346Zm-22.995-358.923H360q-9.644 0-16.168-6.58-6.524-6.58-6.524-16.307 0-9.727 6.524-16.112 6.524-6.384 16.168-6.384h97.924v-97.924q0-9.644 6.58-16.168 6.58-6.523 16.307-6.523 9.727 0 16.112 6.523 6.384 6.524 6.384 16.168v97.924h97.308q9.644 0 16.168 6.58 6.524 6.58 6.524 16.307 0 9.727-6.524 16.112-6.524 6.384-16.168 6.384h-97.308v98.309q0 9.644-6.58 16.168-6.58 6.523-16.307 6.523-9.727 0-16.112-6.523-6.384-6.524-6.384-16.168v-98.309Zm368.152 137.615-61.46-34.383q11.615-28.692 18.192-60.346 6.577-31.654 6.577-64.034 0-118.537-78.615-206.656-78.616-88.119-196.462-99.657v-71.614q146.999 11 246.653 119.5 99.653 108.5 99.653 255.653 0 42.155-8.731 82.654-8.731 40.499-25.807 78.883Z"/></svg>