<svg xmlns="http://www.w3.org/2000/svg" width="48" height="48" viewBox="0 -960 960 960"><path d="M477.154-100.001q-78.041 0-146.68-29.612-68.639-29.612-119.938-80.903-51.3-51.291-80.917-119.917-29.618-68.627-29.618-146.654 0-79.009 29.92-148.529 29.92-69.521 81.21-121.658 51.291-52.138 120.629-82.431 69.337-30.294 148.173-30.294t148.204 30.363q69.369 30.363 120.682 82.414 51.314 52.05 81.247 121.453t29.933 148.615v303.086q0 30.796-21.715 52.431-21.715 21.636-52.208 21.636H477.154Zm-.066-49.23q138.143 0 236.412-95.428 98.269-95.427 98.269-232.495 0-140.262-96.42-238.861-96.421-98.6-235.349-98.6-140.307 0-237.461 98.6-97.154 98.599-97.154 238.861 0 30.236 5.385 59.156 5.384 28.921 15.154 56.075l136.23-136.23q4.494-4.091 9.17-6.161 4.676-2.07 9.676-2.07 6.128-.385 10.968 1.308 4.84 1.692 9.158 5.203l112.259 94.489 171.309-171.924H560q-9.644 0-16.168-6.58-6.524-6.581-6.524-16.308t6.524-16.111q6.524-6.385 16.168-6.385h113.846q12.259 0 20.552 8.294 8.294 8.293 8.294 20.552V-480q0 9.644-6.58 16.168-6.581 6.524-16.308 6.524t-16.111-6.524q-6.385-6.524-6.385-16.168v-64.309L474.846-362.231q-4.615 4-9.496 5.945-4.881 1.945-9.761 1.945-4.974.725-10.381-1.083-5.408-1.807-9.696-5.34L324-455.616 186.769-318.385q42.077 76.307 119.136 122.731 77.058 46.423 171.183 46.423Zm311.796 5.076q11.731 0 19.654-8.423t7.923-19.961q0-11.539-8.423-19.654t-19.654-8.115q-11.231 0-19.654 8.245t-8.423 19.832q0 11.23 8.423 19.653 8.423 8.423 20.154 8.423Zm-316.96-338.076Z"/></svg>