<svg xmlns="http://www.w3.org/2000/svg" width="48" height="48" viewBox="0 0 48 48"><path d="M23 40.65q-1.2-3.4-2.9-5.275-1.7-1.875-5.05-3.175-.1 1.5.125 2.65t.675 1.8q.65 1 1.375 1.7t1.575 1.2q.9.5 1.95.75 1.05.25 2.25.35Zm2 0q3.95-.35 5.975-2.2Q33 36.6 33.6 32.8q-1.3.3-2.3.6-1 .3-1.75.65-.9.65-1.575 1.375-.675.725-1.225 1.525-.55.8-.95 1.7-.4.9-.8 2ZM24 23.3q3.55 0 6.05-2.475t2.5-6.075V10.2l-4.15 3.55-4.4-5.6-4.4 5.6-4.15-3.55v4.55q0 3.6 2.5 6.075T24 23.3Zm-1.4 19.5q-4.55 0-7.775-3.2-3.225-3.2-3.225-7.8v-2.9q3.35.25 6.25 1.9T22.5 35v-9.5q-3.95-.5-6.625-3.55t-2.675-7.2V8.4q0-.95.85-1.325t1.55.225l3.7 3.2 3.55-4.45Q23.3 5.5 24 5.5t1.15.55l3.55 4.45 3.7-3.2q.7-.6 1.55-.225.85.375.85 1.325v6.35q0 4.15-2.675 7.2T25.5 25.5V35q1.75-2.55 4.625-4.2Q33 29.15 36.35 28.9v2.9q0 4.6-3.2 7.8t-7.8 3.2ZM24 15.7Zm5.6 20.35Zm-11.15 0Z"/></svg>