<svg xmlns="http://www.w3.org/2000/svg" width="48" height="48" viewBox="0 -960 960 960"><path d="M766.92-227.31H502.31q-9.66 0-16.18-6.57-6.51-6.58-6.51-16.31 0-9.73 6.51-16.12 6.52-6.38 16.18-6.38h264.61L702.61-338q-6.69-6.69-6.69-15.92t6.63-16q6.76-6.77 15.87-6.58 9.12.19 15.81 6.88L834-270.23q8.61 8.61 8.61 20.23 0 11.61-8.61 20.23L734.23-130q-6.62 6.69-15.58 6.69t-15.92-6.77q-6.81-6.78-6.81-16.31 0-9.53 6.69-16.23l64.31-64.69ZM176.93-443.46h-24.62q-11.23 0-19.27-8.04T125-470.77v-24.61q0-11.23 8.04-19.27t19.27-8.04h24.62q11.23 0 19.26 8.04 8.04 8.04 8.04 19.27v24.61q0 11.23-8.04 19.27-8.03 8.04-19.26 8.04Zm126.19-36.61q-36.58-36.61-36.58-88.39v-160q0-51.79 36.62-88.39 36.62-36.61 88.42-36.61 51.81 0 88.38 36.61 36.58 36.6 36.58 88.39v160q0 51.78-36.62 88.39t-88.42 36.61q-51.81 0-88.38-36.61Zm337.69 0q-36.58-36.61-36.58-88.39v-160q0-51.79 36.62-88.39 36.62-36.61 88.42-36.61 51.81 0 88.38 36.61 36.58 36.6 36.58 88.39v160q0 51.78-36.62 88.39t-88.42 36.61q-51.81 0-88.38-36.61Zm-192.96-31.84q23.3-23.06 23.3-56.55v-160q0-33.49-23.07-56.56-23.07-23.06-56.31-23.06-33.23 0-56.54 23.06-23.31 23.07-23.31 56.56v160q0 33.49 23.08 56.55 23.07 23.06 56.3 23.06 33.24 0 56.55-23.06Zm337.69 0q23.31-23.06 23.31-56.55v-160q0-33.49-23.08-56.56-23.07-23.06-56.3-23.06-33.24 0-56.55 23.06-23.31 23.07-23.31 56.56v160q0 33.49 23.08 56.55 23.07 23.06 56.3 23.06 33.24 0 56.55-23.06Z"/></svg>