<svg xmlns="http://www.w3.org/2000/svg" width="48" height="48" viewBox="0 -960 960 960"><path d="M620.384-242.693q-9.644 0-16.168-6.58-6.524-6.581-6.524-16.308t6.524-16.111q6.524-6.385 16.168-6.385h83.846q9.269 0 15.98 6.58 6.712 6.58 6.712 16.308 0 9.727-6.712 16.111-6.711 6.385-15.98 6.385h-83.846Zm0-354.922q-9.644 0-16.168-6.58-6.524-6.581-6.524-16.308t6.524-16.111q6.524-6.385 16.168-6.385h214.615q9.644 0 16.168 6.58 6.524 6.58 6.524 16.308 0 9.727-6.524 16.111-6.524 6.385-16.168 6.385H620.384Zm0 177.461q-9.644 0-16.168-6.58-6.524-6.581-6.524-16.308t6.524-16.111q6.524-6.385 16.168-6.385h171.153q9.269 0 15.981 6.58 6.711 6.58 6.711 16.308 0 9.727-6.711 16.111-6.712 6.385-15.981 6.385H620.384ZM203.848-220.001q-23.529 0-40.611-17.082-17.082-17.082-17.082-40.611v-388.075h-21.154q-9.644 0-16.168-6.578-6.524-6.578-6.524-16.302 0-9.35 6.524-15.926 6.524-6.577 16.168-6.577h139.231v-14.075q0-9.675 6.524-16.069 6.524-6.394 16.168-6.394h67.307q9.269 0 15.98 6.487t6.711 16.077v13.974h139.231q9.269 0 15.981 6.766 6.711 6.765 6.711 16.307 0 9.542-6.711 15.926-6.712 6.384-15.981 6.384h-21.154v388.075q0 23.529-17.082 40.611-17.081 17.082-40.61 17.082H203.848Z"/></svg>