<svg xmlns="http://www.w3.org/2000/svg" width="48" height="48" viewBox="0 -960 960 960"><path d="M100.001-236.693v-29.555q0-31.752 15.77-55.521 15.769-23.769 45.692-37.615 59.23-27 115.761-41.769Q333.756-415.922 400-415.922h1.923q9.562 0 16.435 6.444 6.872 6.444 6.872 16.048 0 9.369-6.908 16.13-6.909 6.761-16.521 6.761h-1.923q-59.801 0-112.032 11.731-52.23 11.73-107.384 39.944-19.077 9.556-27.077 23.286-8 13.731-8 29.116v30.538h257.154q9.644 0 16.167 6.58 6.524 6.58 6.524 16.308 0 9.727-6.524 16.111-6.523 6.385-16.167 6.385H146.154q-18.98 0-32.566-13.587-13.587-13.586-13.587-32.566Zm571.022 97.768q-5.613 0-11.237-1.269-5.623-1.269-10.864-4.731l-117.691-68.614q-10.09-6.163-15.66-16.11t-5.57-21.736v-136.23q0-11.789 5.57-21.736 5.57-9.947 15.66-16.11l117.691-68.999q5.101-3.12 10.929-4.367 5.829-1.248 11.373-1.248 5.545 0 10.789 1.73 5.245 1.731 10.371 3.885l117.691 68.999q10.246 6.163 16.238 16.11 5.993 9.947 5.993 21.736v136.23q0 11.789-5.993 21.736-5.992 9.947-16.238 16.11L692.39-144.873q-5.164 2.615-10.447 4.282-5.284 1.666-10.92 1.666ZM400-496.155q-57.749 0-95.22-37.278-37.471-37.279-37.471-95.22 0-57.942 37.471-95.413T400-761.537q57.749 0 95.22 37.471t37.471 95.413q0 57.941-37.471 95.22-37.471 37.278-95.22 37.278Zm0-45.383q37.461 0 62.384-24.709 24.923-24.709 24.923-62.599 0-37.461-24.923-62.384-24.923-24.923-62.384-24.923t-62.384 24.923q-24.923 24.923-24.923 62.577 0 37.653 24.923 62.384T400-541.538Zm0-87.308Zm2.539 392.922Zm171.615-168.383 96.999 56.923 97-56.923-97-55.923-96.999 55.923Zm117.383 212.614 100.385-57.149v-121.543l-100.385 60.246v118.446ZM550.385-249l100.769 58.922v-119.378l-100.769-58.929V-249Z"/></svg>