<svg xmlns="http://www.w3.org/2000/svg" width="48" height="48" viewBox="0 -960 960 960"><path d="M157.69-180q-23.61 0-40.65-17.04T100-237.69v-484.62q0-23.61 17.04-40.65T157.69-780h644.62q23.61 0 40.65 17.04T860-722.31v269.08q0 13.23-10.92 19.73-10.93 6.5-23.16 1.88-16.23-6.23-33.38-8.84-17.16-2.62-35.31-2.62-11.77 0-22.86 1.31t-22.06 3.92v-137.53q0-23.82-16.56-40.37-16.55-16.56-40.37-16.56H376.54q-6.87 0-11.71 4.83-4.83 4.83-4.83 11.69 0 6.87 4.83 11.71 4.84 4.85 11.71 4.85h278.84q9.93 0 16.89 6.96 6.96 6.96 6.96 16.89v147.69q-24.38 9.84-44.96 26-20.58 16.15-37.35 36v-122.39q0-12.52-8.16-20.68t-20.68-8.16H276.54q-12.52 0-20.68 8.16-8.17 8.16-8.17 20.68v131.54q0 12.52 8.17 20.68 8.16 8.17 20.68 8.17h294.23q-14.62 28.69-19.19 59.8-4.58 31.12.11 61.81 1.62 10.62-4.48 18.35-6.1 7.73-16.13 7.73H157.69Zm576.92-32.31H645q-9.9 0-16.3-6.4-6.39-6.39-6.39-16.3t6.39-16.3q6.4-6.38 16.3-6.38h89.61v-89.62q0-9.9 6.4-16.3 6.4-6.39 16.31-6.39 9.91 0 16.29 6.39 6.39 6.4 6.39 16.3v89.62h89.61q9.91 0 16.3 6.4 6.4 6.39 6.4 16.3t-6.4 16.3q-6.39 6.38-16.3 6.38H780v89.62q0 9.9-6.4 16.29-6.4 6.4-16.31 6.4-9.91 0-16.29-6.4-6.39-6.39-6.39-16.29v-89.62Z"/></svg>