<svg xmlns="http://www.w3.org/2000/svg" width="48" height="48" viewBox="0 0 48 48"><path d="M33.4 38.85h4.45q.25 0 .425-.175t.175-.425V10q0-.25-.175-.425T37.85 9.4H33.4q-.25 0-.425.175T32.8 10v28.25q0 .25.175.425t.425.175Zm-19-11.5q.6 0 .975-.4t.375-.95q0-.55-.4-.95-.4-.4-.95-.4-.55 0-.95.4-.4.4-.4.95 0 .55.4.95.4.4.95.4Zm0 6q.6 0 .975-.4t.375-.95q0-.55-.4-.95-.4-.4-.95-.4-.55 0-.95.4-.4.4-.4.95 0 .55.4.95.4.4.95.4Zm.1-12.2h11.85q.6 0 1-.425t.4-1.025v-3.4q0-.6-.4-1.025-.4-.425-1-.425H14.5q-.65 0-1.05.425t-.4 1.025v3.4q0 .6.4 1.025.4.425 1.05.425Zm5.9 6.2q.6 0 .975-.4t.375-.95q0-.55-.4-.95-.4-.4-.95-.4-.55 0-.95.4-.4.4-.4.95 0 .55.4.95.4.4.95.4Zm0 6q.6 0 .975-.4t.375-.95q0-.55-.4-.95-.4-.4-.95-.4-.55 0-.95.4-.4.4-.4.95 0 .55.4.95.4.4.95.4Zm6-6q.6 0 .975-.4t.375-.95q0-.55-.4-.95-.4-.4-.95-.4-.55 0-.95.4-.4.4-.4.95 0 .55.4.95.4.4.95.4Zm0 6q.6 0 .975-.4t.375-.95q0-.55-.4-.95-.4-.4-.95-.4-.55 0-.95.4-.4.4-.4.95 0 .55.4.95.4.4.95.4Zm4.1 3.5V11.4H10.15q-.25 0-.425.175T9.55 12v24.25q0 .25.175.425t.425.175Zm2.9 4.25q-1 0-1.75-.575t-1-1.425h-20.5q-1.15 0-2-.85-.85-.85-.85-2V12q0-1.15.85-2.025t2-.875h20.5q.25-.85 1-1.425.75-.575 1.75-.575h4.45q1.15 0 2 .875.85.875.85 2.025v28.25q0 1.15-.85 2-.85.85-2 .85ZM9.55 36.85V11.4Z"/></svg>