<svg xmlns="http://www.w3.org/2000/svg" width="48" height="48" viewBox="0 96 960 960"><path d="M480 911.383q-82.615 0-158.307-30.115-75.692-30.116-135.769-87.346l32.615-32.615q53.215 50.81 120.849 77.751 67.634 26.941 140.997 26.941 73.559 0 141.004-26.427t121.072-76.88l31.999 31.615q-60.692 56.23-136.268 86.653Q562.615 911.383 480 911.383Zm0-155.384q-51.739 0-99.023-18.693-47.284-18.692-84.361-54.307l32-31.384q31 29.308 69.97 44.154 38.971 14.846 81.616 14.846 42.644 0 81.605-14.846 38.962-14.846 69.962-44.154l31.999 32q-37.077 35.384-84.361 53.884-47.284 18.5-99.407 18.5ZM327.462 475.232h305.076q3.846 0 6.923-2.115 3.078-2.116 4.616-5.962l20.308-61.924h-368.77l20.308 61.924q1.538 3.846 4.616 5.962 3.077 2.115 6.923 2.115Zm0 45.384q-18.346 0-33.519-10.856-15.173-10.856-21.173-28.452l-25.769-76.077h-49.307q-23.596 0-40.645-17.048-17.048-17.048-17.048-40.644V244.464h679.998v103.075q0 23.846-17.048 40.769-17.049 16.923-40.645 16.923h-49.307l-29.23 77.923q-6.548 16.481-21.377 26.971-14.828 10.491-33.316 10.491H327.462Z"/></svg>