<svg xmlns="http://www.w3.org/2000/svg" width="48" height="48" viewBox="0 -960 960 960"><path d="M487.308-97.386q-9.308-2.846-13.461-11.346-4.154-8.5-.923-17.807 10.769-31.154 9.077-60.385-1.693-29.231-19.847-58.77-27.23-43.076-29.346-79.73-2.115-36.654 12.116-83.731 2.846-8.307 10.845-12.769 8-4.461 16.923-1.615 9.308 2.846 13.461 11.154 4.154 8.307.923 17.615-11.384 33.538-10.384 61.269t21.154 57.885q26.23 42.846 29.038 80.115t-11.808 83.731q-2.846 8.307-10.845 12.769-8 4.461-16.923 1.615Zm-165.999 0q-9.308-2.846-13.462-11.346-4.153-8.5-.923-17.807 10.77-30.539 9.077-61.077-1.692-30.539-20.231-59.078-28.23-40.461-29.346-78.922-1.115-38.462 12.5-83.539 2.846-8.307 10.846-12.769 8-4.461 16.923-1.615 9.307 2.846 13.461 11.154 4.154 8.307.923 17.615-10.769 31.923-10.384 61.769.384 29.846 21.538 58.77 25.846 39.461 28.154 79.23 2.308 39.769-11.308 83.231-2.846 8.307-10.846 12.769-8 4.461-16.922 1.615Zm327.998 0q-9.307-2.846-13.461-11.346t-.923-17.807q10.384-30.154 8.692-60.885-1.692-30.731-19.846-59.27-28.231-39.461-29.346-78.922-1.116-39.462 12.5-83.539 2.846-8.307 10.846-12.769 8-4.461 16.922-1.615 9.308 2.846 13.462 11.154 4.153 8.307.923 17.615-11.385 32.538-10.693 60.961.693 28.424 21.462 58.193 26.846 41.615 28.846 79.807 2 38.193-11.615 84.039-2.846 8.307-10.846 12.769-8 4.461-16.923 1.615ZM185.385-774.615v57.692q0 5.385 3.462 8.847 3.462 3.462 8.847 3.462h564.612q5.385 0 8.847-3.462 3.462-3.462 3.462-8.847v-57.692h-589.23Zm110.23 115.384 20.308 61.924q1.538 3.846 4.616 5.961 3.077 2.116 6.923 2.116h305.076q3.846 0 6.923-2.116 3.078-2.115 4.616-5.961l20.308-61.924h-368.77Zm31.847 115.385q-18.846 0-33.769-10.731-14.923-10.731-20.923-28.577l-25.769-76.077h-49.307q-23.846 0-40.77-16.923-16.923-16.923-16.923-40.769v-56.923q0-19.23 13.462-32.691 13.461-13.462 32.691-13.462h587.692q19.23 0 32.691 13.462 13.462 13.461 13.462 32.691v56.923q0 23.846-16.923 40.769-16.924 16.923-40.77 16.923h-49.307l-29.23 77.923q-6.616 16.231-21.539 26.846-14.923 10.616-33.154 10.616H327.462ZM185.385-774.615v70.001-70.001Z"/></svg>