<svg xmlns="http://www.w3.org/2000/svg" width="48" height="48" viewBox="0 -960 960 960"><path d="M169.617-140.001q-23.529 0-40.611-17.082-17.081-17.082-17.081-40.611v-564.612q0-23.529 17.081-40.611 17.082-17.082 40.611-17.082H734.23q23.528 0 40.61 17.081 17.082 17.08 17.082 40.607v68.604h33.462q9.644 0 16.167 6.548 6.524 6.549 6.524 16.232 0 9.684-6.524 16.075-6.523 6.391-16.167 6.391h-33.462v145.769h33.644q9.721 0 16.115 6.58 6.394 6.581 6.394 16.308t-6.524 16.111q-6.523 6.385-16.167 6.385h-33.462v145.769h33.644q9.721 0 16.115 6.58 6.394 6.58 6.394 16.307 0 9.727-6.524 16.213-6.523 6.486-16.167 6.486h-33.462v68.264q0 23.527-17.082 40.607-17.082 17.081-40.61 17.081H169.617Zm0-45.384H734.23q4.615 0 8.462-3.846 3.846-3.847 3.846-8.463v-564.612q0-4.616-3.846-8.463-3.847-3.846-8.462-3.846H169.617q-4.616 0-8.462 3.846-3.847 3.847-3.847 8.463v564.612q0 4.616 3.847 8.463 3.846 3.846 8.462 3.846Zm97.33-80.771h161.909q12.269 0 20.514-8.293t8.245-20.553v-112.305q0-12.26-8.3-20.553-8.299-8.294-20.568-8.294H266.838q-12.269 0-20.514 8.294-8.245 8.293-8.245 20.553v112.305q0 12.26 8.299 20.553 8.3 8.293 20.569 8.293Zm259.899-309.459h110.075q12.26 0 20.553-8.294 8.293-8.293 8.293-20.552v-60.537q0-12.26-8.293-20.553-8.293-8.293-20.553-8.293H526.846q-12.259 0-20.552 8.293Q498-677.258 498-664.998v60.537q0 12.259 8.294 20.552 8.293 8.294 20.552 8.294Zm-259.899 99.076h161.909q12.269 0 20.514-8.299 8.245-8.3 8.245-20.569v-159.678q0-12.269-8.3-20.514-8.299-8.245-20.568-8.245H266.838q-12.269 0-20.514 8.299-8.245 8.3-8.245 20.569v159.678q0 12.269 8.299 20.514 8.3 8.245 20.569 8.245Zm259.899 210.383h110.075q12.26 0 20.553-8.293 8.293-8.293 8.293-20.553v-211.382q0-11.884-8.293-20.365-8.293-8.481-20.553-8.481H526.846q-12.259 0-20.552 8.481Q498-518.268 498-506.384v211.382q0 12.26 8.294 20.553 8.293 8.293 20.552 8.293ZM157.308-774.615v589.23-589.23Z"/></svg>