<svg xmlns="http://www.w3.org/2000/svg" width="48" height="48" viewBox="0 -960 960 960"><path d="M480-287.231q-11.879 0-20.862-8.984-8.984-8.983-8.984-21.142 0-12.16 8.984-21.055 8.983-8.895 20.862-8.895 11.879 0 20.862 8.895 8.984 8.895 8.984 21.055 0 12.159-8.984 21.142-8.983 8.984-20.862 8.984Zm-95.615-305.461q-6.317-3.643-8.735-10.591-2.419-6.947 1.812-13.409 15.462-28.307 42.756-45.384T480-679.153q47.538 0 78.807 28.385 31.269 28.384 31.269 74.307 0 28.883-15.384 52.595-15.385 23.712-38.307 41.173-13.154 10.924-23.001 24.962-9.846 14.039-11.615 30.962-1 8.692-6.78 13.846-5.781 5.154-14.923 5.154-8.758 0-13.912-5.747-5.154-5.747-5.154-14.27 0-22.598 11.577-42.214 11.577-19.615 30.423-33.384 18.846-14 32.769-31.923 13.924-17.923 13.924-41.154 0-26.636-20.674-44.779-20.673-18.144-49.019-18.144-20.385 0-37.577 10.615-17.192 10.615-28.192 28-4.231 8.077-12.985 10.192-8.755 2.116-16.861-2.115ZM277.694-60.002q-23.529 0-40.611-17.081-17.082-17.082-17.082-40.611v-724.612q0-23.529 17.082-40.611 17.082-17.082 40.611-17.082h404.612q23.529 0 40.611 17.082 17.082 17.082 17.082 40.611v724.612q0 23.53-17.082 40.61Q705.835-60 682.306-60H277.694Zm-12.309-88.076v30.384q0 4.616 3.846 8.463 3.847 3.846 8.463 3.846h404.612q4.616 0 8.463-3.846 3.846-3.847 3.846-8.463v-30.384h-429.23Zm0-45.384h429.23v-573.076h-429.23v573.076Zm0-618.46h429.23v-30.384q0-4.616-3.846-8.463-3.847-3.846-8.463-3.846H277.694q-4.616 0-8.463 3.846-3.846 3.847-3.846 8.463v30.384Zm0 0v-42.693 42.693Zm0 663.844v42.693-42.693Z"/></svg>