<svg xmlns="http://www.w3.org/2000/svg" width="48" height="48" viewBox="0 96 960 960"><path d="M352.693 823.306h254.614q9.664 0 16.178-6.567 6.514-6.566 6.514-16.307t-6.514-16.125q-6.514-6.385-16.178-6.385H352.693q-9.664 0-16.178 6.567-6.514 6.567-6.514 16.307 0 9.741 6.514 16.126 6.514 6.384 16.178 6.384Zm0-112.307h254.614q9.664 0 16.178-6.567 6.514-6.566 6.514-16.307T623.485 672q-6.514-6.385-16.178-6.385H352.693q-9.664 0-16.178 6.567-6.514 6.567-6.514 16.307 0 9.741 6.514 16.125 6.514 6.385 16.178 6.385ZM480 371.31q-16.154-20.154-30.615-31.385-14.462-11.231-41.385-11.231-29.164 0-49.928 20.764-20.764 20.764-20.764 49.928 0 50.461 44.808 90.115 44.807 39.653 78.653 69.499 7.82 7.616 19.333 7.616 11.513 0 19.129-7.616 33.846-29.846 78.653-69.999 44.808-40.154 44.808-89.615 0-29.164-20.764-49.928-20.764-20.764-49.928-20.764-26.923 0-41.385 11.231Q496.154 351.156 480 371.31Zm242.306 584.689H237.694q-23.529 0-40.611-17.082-17.082-17.082-17.082-40.611V253.694q0-23.529 17.082-40.611 17.082-17.082 40.611-17.082h484.612q23.529 0 40.611 17.082 17.082 17.082 17.082 40.611v644.612q0 23.529-17.082 40.611-17.082 17.082-40.611 17.082Zm-484.612-45.384h484.612q5.385 0 8.847-3.462 3.462-3.462 3.462-8.847V253.694q0-5.385-3.462-8.847-3.462-3.462-8.847-3.462H237.694q-5.385 0-8.847 3.462-3.462 3.462-3.462 8.847v644.612q0 5.385 3.462 8.847 3.462 3.462 8.847 3.462Zm-12.309 0v-669.23 669.23Z"/></svg>