<svg xmlns="http://www.w3.org/2000/svg" width="48" height="48" viewBox="0 -960 960 960"><path d="M493.77-635.77q-6.54 0-10.69-4.54-4.16-4.54-4.16-10.84 0-6.31 4.8-10.43 4.79-4.11 10.67-4.11h65.15v-47.23h-65.15q-5.88 0-10.67-4.79-4.8-4.8-4.8-10.53v-76.91q0-6.69 4.8-10.77 4.79-4.08 10.53-4.08H575q6.54 0 10.69 4.12 4.16 4.11 4.16 10.39t-4.16 11.04q-4.15 4.76-10.69 4.76h-65.77v46.46H575q6.54 0 10.69 4.15 4.16 4.16 4.16 10.7v77.08q0 6.41-4.8 10.97-4.79 4.56-10.53 4.56h-80.75Zm145.53-4.19q-4.76-4.19-4.76-10.11v-155.05q0-6.72 4.76-10.8 4.75-4.08 11.03-4.08 6.28 0 10.4 4.16 4.12 4.15 4.12 10.69v155.05q0 6.1-4.12 10.22-4.12 4.11-10.4 4.11t-11.03-4.19Zm75.19-.45q-4.57-4.64-4.57-10.82v-153.89q0-6.72 4.64-10.8 4.64-4.08 10.82-4.08h81.53q5.93 0 10.32 4.16 4.38 4.15 4.38 10.69v76.91q0 5.89-4.38 10.6-4.39 4.72-10.46 4.72h-66.54v62.55q0 6.37-4.06 10.49-4.06 4.11-10.59 4.11t-11.09-4.64Zm25.74-102.82h51.08v-46.46h-51.08v46.46ZM775.38-140Q669-140 556-193.69q-113-53.7-210.81-151.7-97.8-98-151.5-210.8Q140-669 140-775.38q0-19.12 12.64-31.87T184.23-820h114.13q15.64 0 26.41 10.19 10.77 10.2 15.15 26.35l23.85 107.18q2.08 15.13-1 27.2-3.08 12.08-11.69 20.31l-94.39 91.92q26.77 45.93 56.54 85.08t64.39 73.54q37.38 38.38 79.53 70.08 42.16 31.69 90.24 57.61l90.76-93.38q10-11 22.39-14.81 12.39-3.81 25.84-1.81l97.08 21.39q16.15 3.61 26.35 16.26Q820-310.24 820-294.23v110q0 18.95-12.75 31.59T775.38-140ZM234-578l82.54-80.08q1.54-1.53 2.11-4.23.58-2.69.2-5L297-768.46q-.38-3.08-2.5-4.62-2.11-1.53-5.19-1.53h-98.54q-2.31 0-3.85 1.53-1.53 1.54-1.53 3.85.84 41.62 12.92 88.69Q210.39-633.46 234-578Zm356.31 349.15q41 20.16 89.77 31.39 48.77 11.23 89.15 12.46 2.31 0 3.85-1.54 1.53-1.54 1.53-3.85v-98.15q0-3.08-1.53-5.19-1.54-2.12-4.62-2.5l-90.69-18.69q-2.31-.39-4.04.19-1.73.58-3.65 2.11l-79.77 83.77ZM234-578Zm356.31 349.15Z"/></svg>