<svg xmlns="http://www.w3.org/2000/svg" width="48" height="48" viewBox="0 -960 960 960"><path d="M171.77-220.771 106.637-452.5q-3.251-10.73 1.48-21.076t14.808-13.577l57.076-19.616v-207.845q0-24.23 16.731-40.653t40.962-17.039h149.615v-91.154q0-12.259 8.293-20.552 8.293-8.294 20.553-8.294h127.69q12.259 0 20.553 8.294 8.293 8.293 8.293 20.552v91.154h149.615q23.981 0 40.837 16.856t16.856 40.836v208.461l57.692 19q9.846 3.231 15.346 13.077T854.921-453L788.23-220.771q-34-7.462-63.307-24.462-29.308-17-57.538-42.538-6-5.385-12.765-7.769-6.764-2.385-13.884-2.385-7.121 0-13.497 3.169-6.376 3.168-12.008 8.985-28.955 28.779-62.37 47.274-33.416 18.496-72.908 18.496-39.492 0-72.86-18.496-33.369-18.495-62.324-47.274-5.746-5.817-12.27-8.985-6.524-3.169-13.424-3.169-6.901 0-13.488 2.577T293-287.386q-27.846 25.538-57.538 42.346-29.692 16.807-63.692 24.269Zm-59.077 160.77q-9.644 0-16.168-6.58Q90-73.162 90-82.89q0-9.726 6.525-16.11 6.524-6.384 16.168-6.384H160q35.25 0 69.279-9.115 34.028-9.116 65.644-26.346 5.384-2.77 11.785-4.27 6.4-1.5 13.292-1.5 6.892 0 13.292 1.5 6.401 1.5 11.785 4.27 31.616 16.615 66.154 25.038 34.538 8.423 68.769 8.423 34.231 0 68.769-8.423 34.538-8.423 66.154-25.038 5.384-2.77 11.785-4.27 6.4-1.5 13.292-1.5 6.892 0 13.292 1.5 6.401 1.5 11.785 4.27 31.616 17.23 65.644 26.346 34.029 9.115 69.279 9.115h47.307q9.644 0 16.168 6.58 6.524 6.58 6.524 16.307 0 9.728-6.524 16.112-6.524 6.384-16.168 6.384H800q-41.385 0-81.385-10.307-40-10.308-78.615-30.308-38.615 20-79.615 30.308-41 10.307-80.385 10.307-39.385 0-80.385-10.307-41-10.308-79.615-30.308-38.615 20-78.615 30.308-40 10.307-81.385 10.307h-47.307Zm112.692-461.536 236.384-76.462q8.794-3 18.32-3t18.142 3l236.384 77.077v-193.692q0-5.385-3.462-8.846-3.462-3.462-8.847-3.462H237.694q-5.385 0-8.847 3.462-3.462 3.461-3.462 8.846v193.077ZM479.5-265.385q30.577 0 55.539-14.616 24.961-14.615 49.039-39.231 12.307-13.231 26.942-19.654t29.935-6.423q15.174 0 30.075 5.616 14.902 5.615 27.508 17.846 15.308 15.231 29.192 26 13.885 10.769 30.039 19.154l49.077-172.846-323-105.307q-1.923-.769-3.846-.769t-3.846.769L152.539-449.539l49.692 171.615q15.923-8.769 29.923-19.038 14-10.269 29.693-25.501 12.307-12.23 27.282-17.846 14.975-5.615 29.871-5 15.053.616 30.142 6.731 15.088 6.115 27.165 19.346Q400-294.616 424.72-280.001q24.72 14.616 54.78 14.616Zm.5-144.923Z"/></svg>