<svg xmlns="http://www.w3.org/2000/svg" width="48" height="48" viewBox="0 -960 960 960"><path d="M195.384-222.848v56.155q0 11.114-7.746 18.903-7.745 7.789-20.082 7.789-11.863 0-19.709-8.077t-7.846-19.615v-304.768l82.308-244.846q3.846-10.538 12.923-16.615 9.077-6.077 20.461-6.077h450.153q11.215 0 19.628 5.991 8.412 5.99 12.217 16.701l82.308 244.846v305.153q0 11.179-7.939 19.243-7.938 8.064-20.079 8.064-11.674 0-19.827-8.257-8.154-8.256-8.154-20.05v-54.54H195.384ZM203-517.845h554l-60-176.77H263l-60 176.77Zm85.095 196.152q20.52 0 34.289-14.109 13.77-14.11 13.77-34.019 0-20.743-14.11-34.961T288.149-419q-20.618 0-34.96 14.24-14.342 14.24-14.342 34.884 0 20.645 14.364 34.414 14.364 13.769 34.884 13.769Zm384.642 0q20.505 0 34.768-14.109 14.264-14.11 14.264-34.019 0-20.743-14.285-34.961T672.792-419q-20.407 0-34.369 14.24-13.961 14.24-13.961 34.884 0 20.645 14.302 34.414 14.302 13.769 33.973 13.769Z"/></svg>