<svg xmlns="http://www.w3.org/2000/svg" width="48" height="48" viewBox="0 -960 960 960"><path d="M540.017-756.308q-28.478 0-48.632-20.137-20.154-20.136-20.154-48.615 0-28.478 20.137-48.632 20.137-20.154 48.615-20.154t48.632 20.137q20.154 20.137 20.154 48.615 0 28.479-20.137 48.632-20.137 20.154-48.615 20.154ZM318.231-50.001q-10.769 0-17.346-7.615-6.576-7.615-3.961-18.153l110.385-563.616L298-590.693q-3.461 1.539-5.577 4.424-2.116 2.884-2.116 6.731V-480q0 9.307-6.692 16-6.692 6.692-15.807 6.692-10.115 0-16.807-6.779-6.692-6.779-6.692-16.528v-98.923q0-17.439 9.662-31.971 9.663-14.532 25.799-21.106l149.676-62.983q26.4-11.555 55.054-6.901 28.654 4.653 44.884 28.499l40.846 65.231q23.385 38.385 63.731 66.962 40.346 28.577 91.731 36.346 8.308 1.8 13.769 7.669t5.461 14.177q0 10.538-7.499 17.845-7.5 7.308-18.038 5.692-53.462-7-100.77-38.538-47.308-31.539-86.461-92.232L490-414.077l72 66.539q9.4 8.562 13.93 19.581 4.531 11.019 4.531 23.111v232.154q0 9.913-6.391 16.302Q567.679-50 557.763-50q-9.917 0-16.301-6.39-6.384-6.39-6.384-16.302v-210.77l-117.617-108.77-74.923 323q-1.615 8.693-8.884 13.962Q326.385-50 318.231-50Z"/></svg>