<svg xmlns="http://www.w3.org/2000/svg" width="48" height="48" viewBox="0 -960 960 960"><path d="M130.001-480q0-147.307 105.769-248.653t254.231-101.346v-41.153q0-8.616 7.807-12.924 7.808-4.307 15.423 1.308l107.999 82.23q11.231 9 11.231 23.231 0 14.23-11.231 23.23l-107.999 82.23q-7.615 5.615-15.423 1.308-7.807-4.308-7.807-12.924v-41.153q-105.001 0-179.809 70.577Q235.384-583.462 235.384-480q0 45.307 15.577 86.5 15.577 41.192 43.884 75.422 8.846 11 7.962 24.539-.885 13.538-11.116 21.154l-26.768 20.076q-13.231 10.231-28.846 9.038-15.616-1.192-25.846-13.807-40-46.923-60.115-104.307Q130.001-418.77 130.001-480Zm339.998 349.999v41.154q0 8.615-7.807 12.922-7.808 4.308-15.423-1.307l-107.614-82.23q-11.616-9-11.616-23.231 0-14.23 11.616-23.23l107.614-82.23q7.615-5.615 15.423-1.308 7.807 4.308 7.807 12.924v41.153q105.001 0 179.809-70.577Q724.616-376.538 724.616-480q0-45.307-15.885-86.692-15.884-41.384-45.192-75.615-8.846-10.615-7.653-24.346 1.192-13.731 11.807-21.346l25.769-20.077q12.615-9.615 28.538-8.423 15.923 1.193 26.539 13.193 39.615 46.692 60.537 104.191 20.923 57.5 20.923 119.115 0 147.307-105.769 248.653T469.999-130.001Z"/></svg>