<svg xmlns="http://www.w3.org/2000/svg" width="48" height="48" viewBox="0 -960 960 960"><path d="M480.038-103.156q-11.269 0-22.178-4t-18.937-12L119.156-438.923q-8-7.984-12-18.877-4-10.893-4-22.162 0-11.269 4-22.178t12-18.937l319.767-319.767q7.984-8 18.877-12 10.893-4 22.162-4 11.269 0 22.178 4t18.937 12l319.767 319.767q8 7.984 12 18.877 4 10.893 4 22.162 0 11.269-4 22.178t-12 18.937L521.077-119.156q-7.984 8-18.877 12-10.893 4-22.162 4ZM311.077-311.077l160.461 160.076q3.462 3.462 8.462 3.462t8.462-3.462l320.537-320.537q3.462-3.462 3.462-8.462t-3.462-8.462L488.462-808.999Q485-812.461 480-812.461t-8.462 3.462L151.001-488.462Q147.539-485 147.539-480t3.462 8.462l160.076 160.461ZM480-480Zm96.386 22.692L463.385-344.692q-6.692 6.692-6.577 15.807.116 9.115 7.276 16.276 6.993 6.993 16.224 6.993 9.23 0 16.307-7.077l147.076-147.076q8.616-8.686 8.616-20.266 0-11.58-8.616-20.196L496-647.922q-6.693-6.693-15.808-6.885-9.115-.192-16.275 6.968-6.993 6.993-6.801 16.198.192 9.205 6.884 16.333l112.386 112.616H318.77q-9.644 0-16.168 6.58-6.524 6.581-6.524 16.308t6.524 16.111q6.524 6.385 16.168 6.385h257.616Z"/></svg>