<svg xmlns="http://www.w3.org/2000/svg" width="48" height="48" viewBox="0 -960 960 960"><path d="M247.69-150.77V-180l60-40q-53.61 0-90.65-37.04Q180-294.08 180-347.69V-720q0-73.38 71.23-106.69T480-860q161.23 0 230.61 32.39Q780-795.23 780-720v372.31q0 53.61-37.04 90.65Q705.92-220 652.31-220l60 40v29.23H247.69Zm-22.3-378.46h509.22v-174.62H225.39v174.62Zm426.92 45.38H225.39h509.22-82.3ZM479.99-324.23q20.32 0 34.59-14.07 14.27-14.07 14.27-34.38 0-20.32-14.33-34.59-14.33-14.27-34.65-14.27-20.31 0-34.32 14.33-14.01 14.33-14.01 34.64 0 20.32 14.07 34.33 14.06 14.01 34.38 14.01Zm-172.3 62.31h344.62q34.77 0 58.54-25.2 23.76-25.19 23.76-60.57v-136.16H225.39v136.16q0 35.38 23.76 60.57 23.77 25.2 58.54 25.2ZM480-814.61q-122.69 0-176.85 16.46-54.15 16.46-71.77 48.92h499.08q-14.54-31.23-72.65-48.31-58.12-17.07-177.81-17.07Zm0 65.38h250.46-499.08H480Z"/></svg>