<svg xmlns="http://www.w3.org/2000/svg" width="48" height="48" viewBox="0 -960 960 960"><path d="M215.46-100q-9.61 0-13.23-9.31-3.61-9.31 3-15.92l45.54-45.54h458.46l45.54 45.54q6.61 6.61 3.37 15.92-3.24 9.31-12.6 9.31H215.46Zm70.08-106.15 37.61-38.23h-21.69q-50.79 0-86.13-35.53Q180-315.43 180-366.38v-272q0-120.31 87.04-190.66 87.04-70.34 212.96-70.34t212.96 70.34Q780-758.69 780-638.38v272q0 50.95-35.33 86.47-35.34 35.53-86.13 35.53h-22.31l38.23 38.23H285.54Zm234.88-166.12q16.35-16.34 16.35-39.81 0-23.46-16.35-39.8-16.34-16.35-39.8-16.35-23.47 0-39.81 16.35-16.35 16.34-16.35 39.8 0 23.47 16.35 39.81 16.34 16.35 39.81 16.35 23.46 0 39.8-16.35Zm-295.03-207.5h509.22v-58.61q0-26.56-5.78-50.68Q723.04-713.18 712-734H248q-11.04 20.82-16.83 44.94-5.78 24.12-5.78 50.68v58.61Z"/></svg>