<svg xmlns="http://www.w3.org/2000/svg" width="48" height="48" viewBox="0 0 48 48"><path d="M38.35 37.65H29.1q-.5 0-.825-.325-.325-.325-.325-.825 0-.5.325-.825.325-.325.825-.325h9.3l-3.75-3.75q-.3-.35-.325-.8-.025-.45.325-.8.35-.35.8-.325.45.025.8.325l5.45 5.5q.45.4.45 1t-.45 1L36.25 43q-.35.3-.8.325-.45.025-.8-.325-.35-.35-.35-.825t.35-.825ZM9.9 41q-1.2 0-2.05-.85Q7 39.3 7 38.1v-6.7q0-.45.325-.775t.825-.325q.5 0 .8.325.3.325.3.775v6.7q0 .3.175.475t.475.175h6.7q.45 0 .775.325t.325.825q0 .45-.325.775T16.6 41ZM8.1 17.7q-.45 0-.775-.325T7 16.6V9.9q0-1.2.85-2.05Q8.7 7 9.9 7h6.7q.45 0 .775.325t.325.825q0 .5-.325.8-.325.3-.775.3H9.9q-.3 0-.475.175T9.25 9.9v6.7q0 .45-.325.775T8.1 17.7Zm31.75 0q-.5 0-.8-.325-.3-.325-.3-.775V9.9q0-.3-.175-.475T38.1 9.25h-6.7q-.45 0-.775-.325T30.3 8.1q0-.45.325-.775T31.4 7h6.7q1.2 0 2.05.85.85.85.85 2.05v6.7q0 .45-.325.775t-.825.325Z"/></svg>