<svg xmlns="http://www.w3.org/2000/svg" width="48" height="48" viewBox="0 -960 960 960"><path d="M767.308-207.307h-185.77q-9.663 0-16.178-6.567-6.514-6.567-6.514-16.307 0-9.741 6.514-16.126 6.515-6.384 16.178-6.384h186.155l-74.847-75.462q-6.077-6.577-6.077-16.25t6.077-15.749q6.692-6.693 15.807-6.693t16.192 7.077L834.383-250.23q8.615 8.615 8.615 20.231 0 11.615-8.615 20.23L724.845-100.231q-7.077 7.077-16 7.077t-15.999-7.077q-7.077-7.194-7.077-16.366t7.077-16.248l74.462-74.462Zm-569.614 67.306q-23.529 0-40.611-17.082-17.082-17.082-17.082-40.611v-133.922q0-9.663 6.567-16.178 6.567-6.514 16.307-6.514 9.741 0 16.126 6.514 6.384 6.515 6.384 16.178v133.922q0 4.616 3.846 8.463 3.847 3.846 8.463 3.846h133.922q9.663 0 16.178 6.567 6.514 6.566 6.514 16.307t-6.514 16.125q-6.515 6.385-16.178 6.385H197.694Zm-57.693-488.383v-133.922q0-23.529 17.082-40.611 17.082-17.082 40.611-17.082h133.922q9.663 0 16.178 6.567 6.514 6.567 6.514 16.307 0 9.741-6.514 16.126-6.515 6.384-16.178 6.384H197.694q-4.616 0-8.463 3.846-3.846 3.847-3.846 8.463v133.922q0 9.663-6.567 16.178-6.566 6.514-16.307 6.514t-16.125-6.514q-6.385-6.515-6.385-16.178Zm634.614 0v-133.922q0-4.616-3.846-8.463-3.847-3.846-8.463-3.846H628.384q-9.663 0-16.178-6.567-6.514-6.566-6.514-16.307t6.514-16.125q6.515-6.385 16.178-6.385h133.922q23.529 0 40.611 17.082 17.082 17.082 17.082 40.611v133.922q0 9.663-6.567 16.178-6.567 6.514-16.307 6.514-9.741 0-16.126-6.514-6.384-6.515-6.384-16.178Z"/></svg>