<svg xmlns="http://www.w3.org/2000/svg" width="48" height="48" viewBox="0 -960 960 960"><path d="M330.001-95.022q0-9.903 6.399-16.287 6.398-6.385 16.293-6.385h254.614q9.894 0 16.293 6.405 6.399 6.405 6.399 16.307 0 9.903-6.399 16.287-6.399 6.385-16.293 6.385H352.693q-9.895 0-16.293-6.405-6.399-6.404-6.399-16.307Zm-26.795-88.057q-23.656 0-40.738-17.081-17.082-17.082-17.082-40.611v-593.843q0-23.528 17.082-40.61t40.738-17.082h353.588q23.656 0 40.738 17.082t17.082 40.61v593.843q0 23.529-17.082 40.611-17.082 17.081-40.738 17.081H303.206ZM290.77-338.461h378.46v-398.462H290.77v398.462Z"/></svg>