<svg xmlns="http://www.w3.org/2000/svg" width="48" height="48" viewBox="0 -960 960 960"><path d="M865.384-182.541 820-227.924v-400.154H420.231l1.693 2.693v-166.154H256.231l-45.383-45.384h210.307q18.98 0 32.566 13.586 13.586 13.587 13.586 32.567v117.309h351.924q18.98 0 32.566 13.586 13.587 13.586 13.587 32.566v444.768ZM839.54-57.078l-79.462-79.846H140.769q-18.98 0-32.566-13.587-13.587-13.586-13.587-32.566v-618.309l-41.385-41.385q-6.692-6.693-6.884-15.808-.193-9.115 6.884-16.192t16.307-7.077q9.23 0 16.308 7.077L871.54-89.077q6.692 6.692 6.884 15.808.192 9.115-6.884 16.192-7.077 7.076-16 7.076t-16-7.077ZM140-182.308h118.463V-300.77H140v118.462Zm0-163.846h118.463v-118.078H140v118.078Zm0-163.461h118.463v-118.463H140v118.463Zm163.846 327.307h118.078V-300.77H303.846v118.462Zm0-163.846h118.078v-118.078H303.846v118.078Zm163.461 163.846h246.772L595.617-300.77h-128.31v118.462Zm239.231-281.924h-45.384v-45.383h45.384v45.383Z"/></svg>