<svg xmlns="http://www.w3.org/2000/svg" width="48" height="48" viewBox="0 -960 960 960"><path d="m381-255.847 430.691-430.306-32.615-32.615L381-321.076 181.539-520.537l-32.614 32.615L381-255.847Zm-31.999 32.23L116.695-455.539q-6.947-7.034-10.05-15.166-3.104-8.131-3.104-17.02 0-8.89 3.104-17.269 3.103-8.378 10.05-15.312l32.107-32.108q7.43-7.43 15.738-10.468 8.307-3.039 16.999-3.039 8.308 0 16.808 3.039 8.499 3.038 15.192 10.115L381-385.306l366.077-366.076q7.077-7.077 15.384-10.116 8.308-3.038 17-3.038t16.999 3.038q8.308 3.039 15.57 9.748l32.09 32.411q6.877 7.494 10.108 15.802 3.231 8.307 3.231 16.999 0 8.692-3.296 16.963t-9.858 15.036L413.384-223.617q-7.077 7.077-15.384 10.115-8.308 3.038-17 3.038t-17-3.038q-8.307-3.038-14.999-10.115Z"/></svg>