<svg xmlns="http://www.w3.org/2000/svg" width="48" height="48" viewBox="0 -960 960 960"><path d="M358.92-460.85q-9.53-9.53-9.53-22.19 0-12.65 9.53-22.19 9.54-9.54 22.2-9.54 12.65 0 22.19 9.54 9.54 9.54 9.54 22.19 0 12.66-9.54 22.19-9.54 9.54-22.19 9.54-12.66 0-22.2-9.54Zm198.39 0q-9.54-9.53-9.54-22.19 0-12.65 9.54-22.19 9.54-9.54 22.19-9.54 12.65 0 22.19 9.54 9.54 9.54 9.54 22.19 0 12.66-9.54 22.19-9.54 9.54-22.19 9.54-12.65 0-22.19-9.54ZM172.69-140q-9.66 0-16.17-6.52-6.52-6.51-6.52-16.17 0-9.93 6-16.89 6-6.96 16.69-5.81h21.77v-576.92q0-23.53 17.09-40.61Q228.63-820 252.16-820h455.68q23.53 0 40.61 17.08 17.09 17.08 17.09 40.61v576.92h21.77q9.66 0 16.17 6.57 6.52 6.57 6.52 16.31 0 9.74-6.52 16.12-6.51 6.39-16.17 6.39H172.69Zm67.16-45.39h217.46v-589.22H252.16q-4.62 0-8.47 3.84-3.84 3.85-3.84 8.46v576.92Zm262.84 0h217.46v-576.92q0-4.61-3.84-8.46-3.85-3.84-8.47-3.84H502.69v589.22ZM480-504.31Z"/></svg>