<svg xmlns="http://www.w3.org/2000/svg" width="48" height="48" viewBox="0 -960 960 960"><path d="M381.309-451.308q12.461 0 21.999-9.538 9.539-9.539 9.539-22 0-12.846-9.539-22.385-9.538-9.538-21.999-9.538-12.846 0-22.385 9.538-9.538 9.539-9.538 22.385 0 12.461 9.538 22 9.539 9.538 22.385 9.538Zm198.382 0q12.462 0 22-9.538 9.539-9.539 9.539-22 0-12.846-9.539-22.385-9.538-9.538-22-9.538-12.846 0-22.384 9.538-9.538 9.539-9.538 22.385 0 12.461 9.538 22 9.538 9.538 22.384 9.538ZM172.694-140.001q-9.654 0-16.173-6.551-6.519-6.551-6.519-16.251 0-9.813 6-16.775 6-6.961 16.692-5.807h21.77v-576.921q0-23.5 16.903-40.596 16.904-17.097 40.789-17.097h213.998v634.614h28.077v-634.614h213.546q24.048 0 40.904 17.097 16.855 17.096 16.855 40.596v576.921h21.77q9.654 0 16.173 6.573 6.519 6.574 6.519 16.308t-6.519 16.118q-6.519 6.385-16.173 6.385H172.694Z"/></svg>