<svg xmlns="http://www.w3.org/2000/svg" width="48" height="48" viewBox="0 -960 960 960"><path d="M741.769-50q-23.615 0-46.846-3.808-23.23-3.808-45.846-11.193L106.308-262.462q-6.461-2.616-9.384-8.769-2.923-6.154-.693-12.615 2.616-6.462 8.77-9.385 6.153-2.923 12.615-.692l271.538 98.769 71.539-181.385L297.077-541q-21.461-22.538-17.038-52.269 4.423-29.73 31.115-45.192l162.308-95.385q12.462-7.23 26.731-7.923 14.269-.692 26.73 3.923 12.846 4.616 23 14.654t14.769 23.5l13 43q18.154 57.077 50.269 91.231 32.116 34.154 84.116 50.923l16.539-49.846q1.615-6.462 7.461-9.192 5.846-2.731 12.308-1.116 6.461 1.616 9.692 7.769 3.23 6.154 1.615 12.616l-30.307 91.614q-70.308-16.308-116.5-54.577-46.192-38.269-72.038-109.731l-148.54 86.386 112 132.923q5 6.385 6.615 14.5 1.616 8.115-1.384 15.346L431.692-179.77l153.001 55.462 93.23-284.307q8.077 3 15.346 5.308 7.269 2.307 15.115 3.923l-93.23 286.768 43.307 15.154q20.924 7.385 40.924 10.885t42.384 3.5q23.616 0 44.846-3.115 21.231-3.116 41.846-10.731 6.462-2.23 13.116-.308 6.653 1.923 8.269 8.77 2.615 7.46-1.116 14.307-3.73 6.846-11.192 9.076-23.231 7.616-46.884 11.347-23.654 3.73-48.885 3.73Zm-82.616-666.308q-28.077 0-48.23-20.346-20.154-20.346-20.154-48.423 0-28.461 20.154-48.615 20.153-20.154 48.23-20.154 28.462 0 48.615 20.154 20.154 20.154 20.154 48.615 0 28.077-20.154 48.423-20.153 20.346-48.615 20.346Z"/></svg>