<svg xmlns="http://www.w3.org/2000/svg" width="48" height="48" viewBox="0 -960 960 960"><path d="M157.694-140.001q-23.616 0-40.654-17.039-17.039-17.038-17.039-40.654v-442.998q0-11.154 5.154-23 5.154-11.845 16.923-18.922l328.076-196.307q6.615-4.616 14.231-6.116 7.615-1.5 15.615-1.5t15.615 1.5q7.616 1.5 14.231 6.116l328.076 196.307q12.384 7.077 17.23 18.922 4.847 11.846 4.847 23v442.998q0 23.616-17.039 40.654-17.038 17.039-40.654 17.039H157.694ZM480-458.615q3.615 0 7.115-1t7.5-3l314.846-185.308-314.846-189.153q-4-2-7.5-3t-7.115-1q-3.615 0-7.115 1t-7.116 3l-315.23 189.153 315.23 185.308q3.616 2 7.116 3 3.5 1 7.115 1Z"/></svg>