<svg xmlns="http://www.w3.org/2000/svg" width="48" height="48" viewBox="0 -960 960 960"><path d="M202.693-391.923q-9.644 0-16.168-6.58-6.524-6.58-6.524-16.308 0-9.727 6.524-16.111 6.524-6.385 16.168-6.385h554.614q9.644 0 16.168 6.58 6.524 6.581 6.524 16.308t-6.524 16.111q-6.524 6.385-16.168 6.385H202.693Zm0-130.77q-9.644 0-16.168-6.58-6.524-6.581-6.524-16.308t6.524-16.111q6.524-6.385 16.168-6.385h554.614q9.644 0 16.168 6.58 6.524 6.58 6.524 16.308 0 9.727-6.524 16.111-6.524 6.385-16.168 6.385H202.693Z"/></svg>