<svg xmlns="http://www.w3.org/2000/svg" width="48" height="48" viewBox="0 -960 960 960"><path d="M774.462-457.693H122.309q-9.904 0-16.298-6.398-6.394-6.398-6.394-16.307 0-9.909 6.394-16.294 6.394-6.384 16.298-6.384h652.153L577.461-699.693q-6.563-6.595-6.628-15.759-.064-9.163 6.628-15.922 6.564-6.625 15.744-6.625 9.179 0 15.871 6.692l230.692 230.692q4.615 4.615 6.808 9.474 2.192 4.859 2.192 10.808 0 5.948-2.21 10.987-2.21 5.038-6.79 9.577L609.076-229.078q-6.596 6.693-15.759 6.693t-15.856-6.693q-7.076-6.692-6.884-15.999.192-9.308 6.884-15.615l197.001-197.001Z"/></svg>