<svg xmlns="http://www.w3.org/2000/svg" width="48" height="48" viewBox="0 96 960 960"><path d="M473.924 504.307v-38.691l230.768-231.153 39.075 39.076-231.152 230.768h-38.691Zm300.69-261.999-39.076-38.691 26.538-26.538q7.692-7.692 14.577-8.461 6.884-.77 14.576 6.922l11.461 11.461q7.308 7.693 6.539 14.269-.77 6.577-8.077 14.885l-26.538 26.153ZM480 968.307Q323.616 832.461 246.808 716.115 170.001 599.769 170.001 504q0-145.384 93.615-231.692Q357.231 186.001 480 186.001q38.615 0 75.423 9t70.423 26L408.539 438.308v131.384h130.384L755.23 353.385q17.385 33 26.077 70.307Q789.999 461 789.999 504q0 95.769-76.807 212.115Q636.384 832.461 480 968.307Z"/></svg>