<svg xmlns="http://www.w3.org/2000/svg" width="48" height="48" viewBox="0 -960 960 960"><path d="M202.693-407.307q-9.644 0-16.168-6.581-6.524-6.58-6.524-16.307 0-9.727 6.524-16.112 6.524-6.384 16.168-6.384h249.232q9.644 0 16.168 6.58 6.523 6.58 6.523 16.307 0 9.728-6.523 16.112-6.524 6.385-16.168 6.385H202.693Zm0-163.847q-9.644 0-16.168-6.578-6.524-6.578-6.524-16.302 0-9.35 6.524-15.926 6.524-6.577 16.168-6.577h416.539q9.644 0 16.168 6.766 6.524 6.765 6.524 16.307 0 9.542-6.524 15.926t-16.168 6.384H202.693Zm0-163.461q-9.644 0-16.168-6.58-6.524-6.58-6.524-16.307 0-9.728 6.524-16.112 6.524-6.385 16.168-6.385h416.539q9.644 0 16.168 6.581 6.524 6.58 6.524 16.307 0 9.727-6.524 16.112-6.524 6.384-16.168 6.384H202.693Zm321.923 525.767v-65.614q0-5.013 2-10.122t6.598-9.704l208.322-207.388q7.548-7.551 16.304-10.63 8.755-3.078 17.373-3.078 9.402 0 18.218 3.538 8.816 3.539 16.029 10.615l37 37.385q7.077 7.461 10.308 16.153 3.231 8.693 3.231 17.385 0 8.692-3.731 17.692t-10.506 16.585L638.911-188.595q-4.604 4.594-9.713 6.594-5.109 2-10.122 2h-65.614q-12.26 0-20.553-8.294-8.293-8.293-8.293-20.553Zm287.691-221.46-37-37.385 37 37.385Zm-240 202.615h38l129.847-130.462-18.385-19-18.615-18.769-130.847 130.231v38Zm149.462-149.462-18.615-18.769 37 37.769-18.385-19Z"/></svg>