<svg xmlns="http://www.w3.org/2000/svg" width="48" height="48" viewBox="0 -960 960 960"><path d="M473.924-551.693h38.691l231.152-230.768-39.075-39.076-230.768 231.153v38.691Zm300.69-261.999 26.538-26.153q7.307-8.308 8.077-14.885.769-6.576-6.539-14.269l-11.461-11.461q-7.692-7.692-14.576-6.922-6.885.769-14.577 8.461l-26.538 26.538 39.076 38.691ZM480-99.308q-5.615 0-11.231-1.808-5.615-1.808-10.23-5.423-145.154-129.846-216.846-241.269Q170.001-459.231 170.001-552q0-145.384 93.615-231.692Q357.231-869.999 480-869.999q38.615 0 75.423 9t70.423 26l-33.461 33.46q-25.307-11.538-54-17.307-28.692-5.77-58.385-5.77-111.308 0-187.962 76.347Q215.384-671.923 215.384-552q0 76.154 67.693 181.385Q350.769-265.384 480-148.23q131.461-117.154 198.039-222.385Q744.616-475.846 744.616-552q0-32.077-5.77-61.462-5.769-29.385-16.692-55.693l33.076-33.46q17.385 33 26.077 70.307Q789.999-595 789.999-552q0 92.769-71.692 204.192T501.461-106.539q-4.23 3.615-9.538 5.423-5.308 1.808-11.923 1.808Zm0-387.615Z"/></svg>