<svg xmlns="http://www.w3.org/2000/svg" width="48" height="48" viewBox="0 -960 960 960"><path d="M195.384-382.848v55.155q0 11.538-8.171 19.615-8.172 8.077-19.846 8.077t-19.52-8.077q-7.846-8.077-7.846-19.615v-304.768l82.308-244.846q2.615-10.923 12.154-16.807 9.538-5.885 21.23-5.885h450.153q11.394 0 20.326 6.02 8.931 6.019 11.519 16.672l82.308 244.846v304.768q0 11.538-8.172 19.615-8.172 8.077-19.846 8.077t-19.827-8.257Q764-316.514 764-328.308v-54.54H195.384ZM203-677.845h554l-60-176.77H263l-60 176.77Zm85.095 196.152q20.52 0 34.289-14.109 13.77-14.11 13.77-34.019 0-20.743-14.11-34.961T288.149-579q-20.618 0-34.96 14.24-14.342 14.24-14.342 34.884 0 20.645 14.364 34.414 14.364 13.769 34.884 13.769Zm384.642 0q20.505 0 34.768-14.109 14.264-14.11 14.264-34.019 0-20.743-14.285-34.961T672.792-579q-20.407 0-34.369 14.24-13.961 14.24-13.961 34.884 0 20.645 14.302 34.414 14.302 13.769 33.973 13.769ZM514.461-46.923 303.924-156.847h138.769v-71.769L656.076-121.54H514.461v74.615Z"/></svg>