<svg xmlns="http://www.w3.org/2000/svg" width="48" height="48" viewBox="0 96 960 960"><path d="M140.001 656q0-103.691 61.692-203.075 61.692-99.384 169.767-171.384 15.846-11 32.577-1.846 16.731 9.154 16.731 28.23v48.537q0 36.693 29.846 64.116 29.847 27.423 70.386 27.423 18.385 0 35.039-6.923t30.577-20.384q8-7.461 17.23-9.615 9.231-2.154 17.077 3.846 55.999 42.308 87.538 105.807Q739.999 584.231 739.999 656q0 95-51.885 169.577T552.767 933.384q23.769-22.538 36.846-52.423Q602.69 851.077 602.69 818q0-32.23-12.076-60.922-12.077-28.692-34.846-51.846L440 592.08 325.232 705.232q-23.769 23.154-35.846 51.846Q277.31 785.77 277.31 818q0 33.077 13.077 62.961 13.077 29.885 36.846 52.423-83.077-33.23-135.154-107.807Q140.001 751 140.001 656ZM440 655.694l83.153 81.537Q539.23 753.308 548.268 774q9.039 20.693 9.039 44 0 47.615-34.154 81.461Q489 933.307 440 933.307q-49 0-83.153-33.846-34.154-33.846-34.154-81.461 0-23.307 8.539-43.807 8.538-20.5 25.615-36.962L440 655.694Zm407.307-137.002q-9.307 0-15.999-6.692-6.692-6.693-6.692-16 0-9.923 6.692-16.307 6.692-6.385 15.999-6.385 9.923 0 16.308 6.385 6.384 6.384 6.384 16.307 0 9.307-6.384 16-6.385 6.692-16.308 6.692Zm0-115.385q-9.922 0-16.307-6.384-6.384-6.384-6.384-16.307V248.693q0-9.923 6.384-16.308 6.385-6.384 16.307-6.384 9.923 0 16.308 6.384 6.384 6.385 6.384 16.308v131.923q0 9.923-6.384 16.307-6.385 6.384-16.308 6.384Z"/></svg>