<svg xmlns="http://www.w3.org/2000/svg" width="48" height="48" viewBox="0 -960 960 960"><path d="M431.77-190v-205.616l-178.463 103q-18.076 9.846-36.961 5.039-18.884-4.808-28.73-22.621-9.846-17.571-5.236-36.994 4.611-19.423 22.313-29.192L383.539-480 205.693-582.616q-18.087-9.721-23.005-28.976-4.918-19.254 4.928-37.331 9.846-17.692 28.923-22.5 19.076-4.807 37.153 5.039l178.078 103V-770q0-20.395 13.899-34.313 13.899-13.917 34.269-13.917 20.369 0 34.331 13.917Q528.23-790.395 528.23-770v206.616l178.463-103q18.076-9.846 36.961-5.039 18.884 4.808 28.73 22.5 9.846 18.077 4.851 37.331-4.995 19.255-22.543 28.976L576.461-480l178.846 103.616q17.703 9.769 22.313 29.192 4.61 19.423-5.236 37.236-9.846 17.571-28.923 22.379-19.076 4.807-37.153-5.039l-178.078-103V-190q0 20.395-13.899 34.313-13.899 13.917-34.269 13.917-20.369 0-34.331-13.917Q431.77-169.605 431.77-190Z"/></svg>