<svg xmlns="http://www.w3.org/2000/svg" width="48" height="48" viewBox="0 -960 960 960"><path d="M402.231-816.923H152.693q-9.654 0-16.173-6.573-6.519-6.574-6.519-16.308 0-9.733 6.519-16.118 6.519-6.384 16.173-6.384h249.538q9.653 0 16.172 6.573t6.519 16.307q0 9.734-6.519 16.119-6.519 6.384-16.172 6.384Zm-147.153 86.999H152.693q-9.654 0-16.173-6.573-6.519-6.574-6.519-16.308t6.519-16.118q6.519-6.384 16.173-6.384h249.538q9.653 0 16.172 6.573t6.519 16.307q0 9.734-6.519 16.119-6.519 6.384-16.172 6.384H299.846v167.078q0 9.229-6.17 15.46-6.17 6.232-15.692 6.232t-16.214-6.702q-6.692-6.702-6.692-15.99v-166.078Zm308.306 604.077q-6.692 6.692-16.307 6.577-9.615-.115-16.307-7.192-7.077-7.077-7.077-16.307 0-9.231 7.077-16.308l266.769-266.538q6.692-6.692 15.807-6.692t16.192 6.692q7.077 7.077 7.077 16.5 0 9.422-7.077 16.499L563.384-125.847Zm19.552-205.692q-20.413 0-34.174-13.48Q535-358.498 535-379.295q0-20.412 13.672-34.174 13.672-13.761 34.085-13.761 20.797 0 34.366 13.672 13.569 13.672 13.569 34.084 0 20.797-13.48 34.366-13.48 13.569-34.276 13.569Zm201.615 205.461q-20.797 0-34.366-13.671-13.569-13.672-13.569-34.469 0-20.413 13.479-34.174 13.48-13.762 34.277-13.762 20.412 0 34.174 13.672 13.761 13.672 13.761 34.085 0 20.797-13.672 34.558t-34.084 13.761Zm-157.32-403.923q-34.538 0-57.846-24.423-23.307-24.422-23.307-56.73 0-34.538 23.307-57.653 23.308-23.115 57.846-23.115 13.161 0 23.58 3.5 10.42 3.5 18.804 9.653v-169.154q0-9.613 6.232-15.845 6.231-6.231 15.845-6.231h116.231q9.613 0 15.845 6.17 6.231 6.17 6.231 15.692 0 9.137-6.231 16.021-6.232 6.885-15.845 6.885h-99.539v214.077q0 34.538-23.115 57.846-23.115 23.307-58.038 23.307ZM212.249-89.616q-34.633 0-59.21-24.356-24.577-24.356-24.577-59.336 0-17.72 7-33.466 7-15.745 19.846-28.149l56.231-55.462-25-25.769q-12.846-12.846-19.577-29-6.731-16.154-6.731-31.905 0-35.018 24.32-59.018 24.319-23.999 58.988-23.999 35.307 0 59.499 23.807 24.192 23.808 24.192 58.957 0 16.004-5.307 32.158-5.308 16.154-18.154 29l-25.385 25.769 57.693 58.078 43.231-43.231q6.692-6.692 15.807-6.885 9.115-.192 16.282 6.885 6.602 7.077 6.602 15.999 0 8.923-7.077 16l-44.692 44.693 38.385 38q5.692 5.899 5.884 15.103.193 9.204-5.938 15.665-6.515 6.077-15.692 6.077-9.176 0-15.638-6.077l-42.462-41.846-55.615 55.231q-13.165 13.231-29.044 20.154-15.879 6.923-33.861 6.923Zm31.29-231.153 28.059-28.059q6.095-6.095 8.172-12.01 2.077-5.916 2.077-15.262 0-17.746-10.923-28.17-10.924-10.423-27.385-10.423-15.539 0-26.732 10.506-11.192 10.506-11.192 27.802 0 9.539 2.269 15.693 2.27 6.154 8.319 11.887l27.336 28.036ZM212.357-135q6.72 0 15.066-3.384 8.347-3.385 14.501-9.539l56.231-56.231-53.386-53.001-56.846 56.462q-6.154 5.79-9.808 13.126-3.654 7.336-3.654 14.49 0 16.308 10.885 27.193Q196.231-135 212.357-135Z"/></svg>