<svg xmlns="http://www.w3.org/2000/svg" width="48" height="48" viewBox="0 -960 960 960"><path d="M480-122.311q-25.077 0-43.077-13.192-17.999-13.192-20.922-35.039h-21.693q-17.846 0-31.615-13.768-13.769-13.769-13.769-31.615V-347.77q-66-39.923-102.461-103.654-36.462-63.73-36.462-138.576 0-112.922 78.538-191.461Q367.078-859.999 480-859.999q112.922 0 191.461 78.538Q749.999-702.922 749.999-590q0 74.846-36.462 138.576-36.461 63.731-102.461 103.654v131.845q0 17.846-13.769 31.615-13.769 13.768-31.615 13.768h-21.693q-2.923 21.847-20.922 35.039-18 13.192-43.077 13.192Zm-85.692-93.614h171.384v-43.231H394.308v43.231Zm0-78.615h171.384v-40.385H394.308v40.385Zm66.923-85.768h37.538v-137.77L575-594.308q5.23-4.846 5.23-12.115 0-7.27-5.23-13.116-5.846-5.23-13.116-5.23-7.269 0-12.115 4.846L480-550.154l-68.769-69.385q-5.846-5.23-13.115-5.23-7.27 0-12.5 5.23-5.462 5.846-5.654 13.116-.192 7.269 4.654 12.115l76.615 76.23v137.77Z"/></svg>