<svg xmlns="http://www.w3.org/2000/svg" width="48" height="48" viewBox="0 -960 960 960"><path d="M202.69-140q-9.66 0-16.17-6.57-6.52-6.56-6.52-16.31 0-9.74 6.52-16.12 6.51-6.39 16.17-6.39h554.62q9.66 0 16.17 6.57 6.52 6.57 6.52 16.31 0 9.74-6.52 16.12-6.51 6.39-16.17 6.39H202.69ZM709-615.38h91.77q5.77 0 9.81-3.66 4.03-3.65 4.03-9.04v-133.84q0-5.39-4.03-9.04-4.04-3.65-9.81-3.65H709v159.23ZM316-280.77q-57.03 0-96.51-38.69Q180-358.15 180-414.23v-354.15q0-21.41 15.11-36.51Q210.21-820 231.62-820h128.46v89.16l-66.62 54.15q-2.61 2-8.61 17.61v130.77q0 8.83 6.54 15.84 6.53 7.01 16.92 7.01h138.3q10.39 0 16.93-7.01 6.54-7.01 6.54-15.84v-130.7q0-3.07-8.62-17.68l-66-54.15V-820h405.31q24.28 0 41.75 17.05Q860-785.9 860-761.92v133.84q0 23.98-17.48 41.03Q825.05-570 800.77-570H709v155.77q0 56.08-39.49 94.77-39.48 38.69-96.51 38.69H316Z"/></svg>