<svg xmlns="http://www.w3.org/2000/svg" width="48" height="48" viewBox="0 -960 960 960"><path d="M776.923-584.539q-5.385 0-9.192-3.577-3.808-3.577-5.424-8.577l-4.076-19.384q-10.77-3.231-23.193-11-12.423-7.769-19.423-16.923l-25.461 10.076q-5 2-10 .385t-7.615-6.615L668-647.385q-3-5-1.807-10 1.192-5 6.192-8.615l20-15.769q-2-5.385-3.5-11.962-1.5-6.576-1.5-12.961 0-6 1.5-12.769 1.5-6.77 3.5-12.154l-20-15.385q-5-4-5.885-9-.884-5 1.5-10l4.539-7.23q2.615-5 7.423-6.808 4.807-1.807 10.192.577l25.461 10.077q7-9.154 19.423-17.231 12.423-8.077 23.193-10.307l4.076-19.769q1.616-5 5.424-8.385 3.807-3.385 9.192-3.385h7.461q5.385 0 9.192 3.385 3.808 3.385 5.423 8.385l4.077 19.769q10.769 2.23 23.193 10.307 12.423 8.077 19.807 17.231l25.077-10.077q5-2 10.192-.192t8.192 7.192l4.154 7.231q2.615 5 1.423 9.615-1.192 4.615-6.192 8.615l-20 15.385q2 5.384 3.5 12.154 1.5 6.769 1.5 12.769 0 6.385-1.5 12.961-1.5 6.577-3.5 11.962l20 15.769q5 3.615 5.884 8.808.885 5.192-1.5 10.192l-4.153 7.23q-3 5-7.808 6.616-4.808 1.615-10.192-.77L846.076-644q-7.384 9.154-19.807 16.923-12.424 7.769-23.193 11l-4.077 19.384q-1.615 5-5.423 8.577-3.807 3.577-9.192 3.577h-7.461Zm3.923-63.768q25 0 41.5-16.5t16.5-41.885q0-25-16.5-41.5t-41.5-16.5q-25.385 0-41.885 16.5-16.5 16.5-16.5 41.5 0 25.385 16.5 41.885 16.5 16.5 41.885 16.5ZM666.461-363.693q-.615 0-8.615-8l-.615-20.615q-7.385-3.231-15.847-8.615-8.461-5.385-14.461-10.77l-19 10q-.616 0-11.616-3.384l-9.692-14.538 1.77-11.616 19.23-12.846q-2-4.384-2.192-8.461-.192-4.077-.192-8.077 0-4.385.192-8.077.192-3.693 2.192-8.462l-19.23-13.231q-1 0-1.77-11.615l9.692-14.538q1-.616 11.616-3l19 9.615q7-5.384 14.961-10.577 7.962-5.192 15.347-8.807l.615-20.231q0-2 8.615-8h19.385q1 0 9 8l.615 20.231q7.385 3.615 15.346 8.807 7.962 5.193 14.962 10.577l19-9.615q.615-.385 11.615 3L766.076-502l-1.769 11.615-19.231 13.231q2 4.769 2 8.462v16.154q0 4.077-2 8.461l19.231 12.846q1 .385 1.769 11.616l-9.692 14.538q-1 1-11.615 3.384l-19-10q-6 5.385-14.462 10.77-8.461 5.384-15.846 8.615l-.615 20.615q0 2-9 8h-19.385Zm9.693-58.153q16.384 0 27.769-11.192 11.384-11.193 11.384-27.577 0-16.385-11.384-27.77-11.385-11.384-27.769-11.384-16.385 0-27.577 11.384-11.193 11.385-11.193 27.77 0 16.384 11.193 27.577 11.192 11.192 27.577 11.192ZM356.461-430q-58.691 0-95.691-37.615t-37-97.384h-9.23q-7.231 0-12.462-5.231-5.23-5.231-5.23-12.461 0-6.846 5.23-12.27 5.231-5.423 12.462-5.423h9.23q.385-33.845 15.769-61.422 15.385-27.576 42.769-48.346v38.616q0 5.615 4.308 9.73 4.307 4.116 9.923 4.116 6.23 0 10.038-4.116 3.808-4.115 3.808-9.73v-51.616q8-2.384 21.23-4.269 13.231-1.885 25.462-1.885 12.23 0 25.461 1.885 13.231 1.885 21.231 4.269v51.616q0 5.615 3.808 9.73 3.807 4.116 10.038 4.116 5.615 0 9.923-4.116 4.308-4.115 4.308-9.73v-38.616q27.769 20.77 42.153 48.346 14.384 27.577 15.153 61.422h9.231q7.231 0 12.462 5.423 5.23 5.424 5.23 12.27 0 7.23-5.23 12.461-5.231 5.231-12.462 5.231h-9.231q0 59.769-37.191 97.384Q414.769-430 356.461-430Zm0-45.384q40.077 0 63.693-24.231 23.615-24.23 23.615-63.076H269.154q0 38.846 23.615 63.076 23.616 24.231 63.692 24.231ZM59.309-136.155v-74.306q0-30.154 14.654-50.154 14.654-20 41.73-33.23 52.077-25.231 112.038-41.077 59.962-15.846 128.73-15.846 68.769 0 128.538 15.846 59.769 15.846 112.231 41.077 26.692 13.23 41.538 33.23 14.846 20 14.846 50.154v74.306H59.309Z"/></svg>