<svg xmlns="http://www.w3.org/2000/svg" width="48" height="48" viewBox="0 -960 960 960"><path d="m369-492.309 62.385 85.385Q436-401.309 443-401.309t11.615-5.615L517-492.309l61.385 85.385q4.615 5.615 11.923 5.615 7.307 0 11.899-5.797l80.023-110.51q6.077-7.307 4.462-16.422-1.616-9.116-9.308-15-7.307-5.884-16.422-4.154-9.116 1.731-15.192 9.423L590-467.691l-61.385-85.385q-4.615-5.615-11.923-5.615-7.307 0-11.923 5.615L443-467.691l-62.385-85.385Q376-558.691 369-558.691t-11.567 5.797l-80.663 110.51q-6.077 7.307-3.962 16.422 2.116 9.116 9.808 15.192 7.307 5.692 16.422 3.962 9.116-1.731 15.192-9.423L369-492.309Zm111.067 392.308q-78.221 0-147.397-29.92-69.176-29.92-120.989-81.71-51.814-51.791-81.747-120.936-29.933-69.146-29.933-147.366 0-78.836 29.92-148.204 29.92-69.369 81.71-120.682 51.791-51.314 120.936-81.247 69.146-29.933 147.366-29.933 78.836 0 148.204 29.92 69.369 29.92 120.682 81.21 51.314 51.291 81.247 120.629 29.933 69.337 29.933 148.173 0 78.221-29.92 147.397-29.92 69.176-81.21 120.989-51.291 51.814-120.629 81.747-69.337 29.933-148.173 29.933Z"/></svg>