<svg xmlns="http://www.w3.org/2000/svg" width="48" height="48" viewBox="0 0 48 48"><path d="M9.6 41.3q-.45 0-.775-.325T8.5 40.15V33.9q0-1.15.85-2 .85-.85 2.05-.85h25.2q1.2 0 2.05.85.85.85.85 2v6.25q0 .5-.325.825-.325.325-.825.325-.5 0-.8-.325-.3-.325-.3-.825V33.9q0-.25-.175-.425T36.6 33.3H11.4q-.3 0-.475.175t-.175.425v6.25q0 .5-.325.825-.325.325-.825.325Zm-.45-14q-.9 0-1.525-.625Q7 26.05 7 25.15q0-.9.625-1.525Q8.25 23 9.15 23q.9 0 1.5.625t.6 1.525q0 .9-.625 1.525Q10 27.3 9.15 27.3Zm5.6.25V9.7q0-1.2.875-2.05.875-.85 2.025-.85h12.7q1.15 0 2.025.85t.875 2.05v17.85Zm24.1-.25q-.9 0-1.5-.625t-.6-1.525q0-.9.625-1.525Q38 23 38.85 23q.9 0 1.525.625.625.625.625 1.525 0 .9-.625 1.525-.625.625-1.525.625Zm-21.8-2.05h13.9V9.7q0-.3-.175-.45-.175-.15-.425-.15h-12.7q-.25 0-.425.15t-.175.45Zm0 0h13.9Z"/></svg>