<svg xmlns="http://www.w3.org/2000/svg" width="48" height="48" viewBox="0 96 960 960"><path d="m414.308 793.537-89.461-88.461q-6.692-6.692-6.692-15.615 0-8.922 6.692-15.999 7.077-6.692 15.999-6.692 8.923 0 16 6.692l77.693 76.462L599.077 585q6.211-6.076 15.374-6.076 9.164 0 16.241 6.884 7.077 6.885 7.077 15.807 0 8.923-7.077 16L454.385 793.537q-8.616 9-20.039 9-11.423 0-20.038-9ZM197.694 955.999q-23.529 0-40.611-17.082-17.082-17.082-17.082-40.611V319.079q0-23.529 17.082-40.611 17.082-17.082 40.611-17.082h73.846V216.57q0-10.415 7.193-17.8 7.192-7.384 17.307-7.384 11.115 0 18.499 7.471 7.385 7.471 7.385 17.605v44.924h317.691v-45.585q0-10.031 7.236-17.223 7.236-7.192 16.922-7.192 10.687 0 17.879 7.278 7.192 7.279 7.192 17.029v45.693h73.462q23.529 0 40.611 17.082 17.082 17.082 17.082 40.611v579.227q0 23.529-17.082 40.611-17.082 17.082-40.611 17.082H197.694Zm0-45.384h564.612q5.385 0 8.847-3.462 3.462-3.462 3.462-8.847V501.001h-589.23v397.305q0 5.385 3.462 8.847 3.462 3.462 8.847 3.462Z"/></svg>