<svg xmlns="http://www.w3.org/2000/svg" width="48" height="48" viewBox="0 0 48 48"><path d="M39.95 18.85 29.1 8l1.35-1.4q.9-.85 2.175-.85t2.175.9l6.55 6.55q.85.9.85 2.15t-.85 2.15ZM17.45 41.4q-.85.85-2.1.875-1.25.025-2.1-.875L6.1 34.3q-.65-.65-.65-1.625t.65-1.625l1.95-1.95L18.9 39.95Zm6.7-.05q-.4.45-1 .45t-1-.45l-15.5-15.5q-.45-.4-.45-1t.45-1l4.2-4.2q.45-.45 1.025-.45t.975.45l3.95 3.95 6.85-6.85-4-3.9q-.45-.45-.45-1.025t.45-1.025l4.2-4.2q.4-.45 1.025-.45.625 0 1.025.45l15.5 15.5q.45.4.45 1.025 0 .625-.45 1.025l-4.2 4.2q-.45.45-1.025.45t-1.025-.45l-3.9-4-6.85 6.85 3.95 3.95q.45.4.45.975t-.45 1.025Z"/></svg>