<svg xmlns="http://www.w3.org/2000/svg" width="48" height="48" viewBox="0 -960 960 960"><path d="M192.69-100q-9.92 0-16.3-6.39-6.39-6.38-6.39-16.3 0-9.93 6.39-16.31 6.38-6.39 16.3-6.39h574.62q9.92 0 16.3 6.39 6.39 6.38 6.39 16.31 0 9.92-6.39 16.3-6.38 6.39-16.3 6.39H192.69Zm278.12-106.69q-4.81-2-9.43-6.62L357.15-317.54q-6.69-6.69-6.38-16.11.31-9.43 7-16.5 7.08-7.08 16.5-6.89 9.42.19 16.11 6.89L458.92-281v-398l-69.15 68.77q-6.69 7.08-15.81 7.08-9.11 0-16.19-6.7-7.08-7.07-7.08-16.3t7.08-16.31l103.61-104.23q4.62-4.62 9.43-6.81 4.81-2.19 10.61-2.19 5.81 0 10.62 2.19t9.81 6.81l103.84 104.23q6.69 6.69 6.89 15.81.19 9.11-6.89 15.8-7.08 7.08-16.31 7.08-9.23 0-16.3-7.08L504.31-679v398l68.77-69.15q6.69-6.7 16.3-6.39 9.62.31 16.31 7 7.08 7.08 7.08 16.5t-7.08 16.5L501.85-213.31q-5 4.62-9.81 6.62-4.81 2-10.62 2-5.8 0-10.61-2ZM192.69-814.61q-9.92 0-16.3-6.39-6.39-6.38-6.39-16.31 0-9.92 6.39-16.3 6.38-6.39 16.3-6.39h574.62q9.92 0 16.3 6.39 6.39 6.38 6.39 16.3 0 9.93-6.39 16.31-6.38 6.39-16.3 6.39H192.69Z"/></svg>