<svg xmlns="http://www.w3.org/2000/svg" width="48" height="48" viewBox="0 -960 960 960"><path d="M490.65-261.24q5.03-2.78 7.77-8.34l3.66-8.34q23.69-44.16 59.76-75.47 36.07-31.3 63.82-72.74 13.88-21.18 21.8-46.45 7.92-25.27 7.92-51.98 0-72.79-50.57-124.38-50.58-51.6-122.81-52.6-70.85-1-122.81 48.77-51.96 49.77-54.5 121.06-1.69 29.63 6.04 56.33 7.73 26.69 23.19 49.15 27.75 41.44 64.74 72.28 36.99 30.85 59.18 75.97l3.7 8.29q2.78 5.61 7.87 8.42 5.09 2.81 10.65 2.81 5.56 0 10.59-2.78Zm-62.73-212.84q-21.77-21.77-21.77-52.07 0-30.31 21.77-52.08T480-600q30.31 0 52.08 21.77t21.77 52.08q0 30.3-21.77 52.07T480-452.31q-30.31 0-52.08-21.77ZM480.07-100q-78.22 0-147.4-29.92t-120.99-81.71q-51.81-51.79-81.75-120.94Q100-401.71 100-479.93q0-78.84 29.92-148.21t81.71-120.68q51.79-51.31 120.94-81.25Q401.71-860 479.93-860q78.84 0 148.21 29.92t120.68 81.21q51.31 51.29 81.25 120.63Q860-558.9 860-480.07q0 78.22-29.92 147.4t-81.21 120.99q-51.29 51.81-120.63 81.75Q558.9-100 480.07-100Z"/></svg>