<svg xmlns="http://www.w3.org/2000/svg" width="48" height="48" viewBox="0 -960 960 960"><path d="M480-100.001q-80 0-149.346-29.154-69.345-29.154-120.845-80.654t-80.654-120.845Q100.001-400 100.001-480q0-67.615 21.154-127.038t58.693-107.885l-77.077-77.462q-6.692-6.692-6.885-16.115-.192-9.422 6.885-16.499 6.692-6.692 16.115-6.692 9.423 0 16.499 6.692l689.614 689.614q6.308 6.692 6.5 15.999.192 9.308-6.5 16-7.077 7.077-16.499 7.077-9.423 0-16.115-7.077l-77.462-76.462q-48.462 37.539-107.885 58.693Q547.615-100.001 480-100.001Zm24.231-290.539L396.616-498.154 282.463-300.001q-5.385 10.385 2.307 18.077 7.693 7.692 18.077 2.308L504.231-390.54Zm253.999 95.846L576.615-476.309l101.538-180.228q5.384-10-2.308-17.693-7.692-7.692-18.077-2.692L475.693-577.23l-180.999-181q-13.231-13.231-11.039-31.654 2.193-18.423 18.808-27.653 40.153-20.539 84.345-31.5Q431-859.999 480-859.999q79.384 0 148.73 29.462 69.346 29.461 120.846 80.961t80.961 120.846q29.462 69.346 29.462 148.73 0 49-10.962 93.192-10.961 44.192-31.5 84.345-8.615 16.615-27.346 19-18.73 2.385-31.961-11.231Z"/></svg>