<svg xmlns="http://www.w3.org/2000/svg" width="48" height="48" viewBox="0 -960 960 960"><path d="M279.804-292.309q-9.727 0-16.111-6.523-6.385-6.524-6.385-16.168v-104.616H152.693q-9.645 0-16.168-6.58-6.524-6.58-6.524-16.308 0-9.727 6.524-16.111Q143.048-465 152.693-465h104.615v-104.615q0-9.644 6.58-16.168 6.581-6.524 16.308-6.524t16.111 6.524q6.385 6.524 6.385 16.168V-465h104.615q9.645 0 16.168 6.581 6.524 6.58 6.524 16.307 0 9.727-6.524 16.111-6.523 6.385-16.168 6.385H302.692V-315q0 9.644-6.58 16.168-6.581 6.523-16.308 6.523Zm402.095 71.538q-10.514 0-18.13-7.632-7.615-7.632-7.615-18.136v-424.307l-82.231 58.769q-8.308 5.692-17.73 3.654-9.423-2.038-15.5-10.725-5.692-7.544-3.962-16.967 1.731-9.422 10.039-15.115l103.384-74.615q8.308-6.077 19.846-6.5 11.538-.423 20.566 4.281 7.135 4.886 12.13 14.405 4.995 9.52 4.995 17.583v449.537q0 10.504-7.639 18.136t-18.153 7.632Z"/></svg>