<svg xmlns="http://www.w3.org/2000/svg" width="48" height="48" viewBox="0 -960 960 960"><path d="M117.694-60.002q-23.53 0-40.61-17.081Q60-94.165 60-117.694v-91.846q0-9.644 6.58-16.168 6.58-6.523 16.308-6.523 9.727 0 16.112 6.523 6.384 6.524 6.384 16.168v91.846q0 5.385 3.462 8.847 3.462 3.462 8.847 3.462h91.846q9.644 0 16.168 6.58 6.523 6.58 6.523 16.307 0 9.728-6.523 16.112-6.524 6.384-16.168 6.384h-91.846Zm724.612 0H750.46q-9.644 0-16.168-6.58-6.523-6.58-6.523-16.307 0-9.727 6.523-16.112 6.524-6.384 16.168-6.384h91.846q5.385 0 8.847-3.462 3.462-3.462 3.462-8.847v-91.846q0-9.644 6.58-16.168 6.58-6.523 16.307-6.523 9.728 0 16.112 6.523 6.385 6.524 6.385 16.168v91.846q0 23.53-17.082 40.61Q865.835-60 842.306-60Zm-363.114-179.23q-103.422 0-187.845-53.461T156.232-442.539q-4.423-8.615-6.519-17.858-2.096-9.244-2.096-19.106 0-10.068 2.25-19.706 2.25-9.637 6.365-18.252 50.692-97 135.115-150.654 84.423-53.653 187.845-53.653 103.423 0 188.346 53.653 84.922 53.654 135.614 150.654 4.616 8.615 6.616 18.23 2 9.616 2 19.231 0 9.615-2 19.231-2 9.615-6.616 18.23-50.692 96.385-135.614 149.846-84.923 53.461-188.346 53.461Zm1.03-119.153q50.574 0 86.291-35.552t35.717-86.285q0-50.574-35.64-86.291-35.641-35.717-86.5-35.717t-86.282 35.64q-35.423 35.641-35.423 86.5t35.552 86.282q35.552 35.423 86.285 35.423Zm-.154-45.384q-31.81 0-54.055-22.267-22.244-22.267-22.244-54.077t22.267-54.272q22.267-22.461 54.077-22.461t54.272 22.275q22.461 22.276 22.461 54.503 0 31.81-22.275 54.055-22.276 22.244-54.503 22.244ZM209.54-854.615h-91.846q-5.385 0-8.847 3.462-3.462 3.462-3.462 8.847v114.537H60.001v-114.537q0-23.529 17.082-40.611 17.082-17.082 40.611-17.082h91.846q9.644 0 16.168 6.581 6.523 6.58 6.523 16.307 0 9.727-6.523 16.112-6.524 6.384-16.168 6.384Zm690.459 12.309v91.846q0 9.644-6.581 16.168-6.58 6.523-16.307 6.523-9.727 0-16.112-6.523-6.384-6.524-6.384-16.168v-91.846q0-5.385-3.462-8.847-3.462-3.462-8.847-3.462H750.46q-9.644 0-16.168-6.58-6.523-6.58-6.523-16.307 0-9.728 6.523-16.112 6.524-6.385 16.168-6.385h91.846q23.529 0 40.611 17.082 17.082 17.082 17.082 40.611Z"/></svg>