<svg xmlns="http://www.w3.org/2000/svg" width="48" height="48" viewBox="0 -960 960 960"><path d="M835.23-97.92 733.92-198.85q-54.31 47.77-117.15 73.31Q553.92-100 478-100q-79.38 0-148.73-29.46t-120.65-80.96q-51.31-51.5-80.97-120.85Q98-400.62 98-480q0-76.38 27.04-141.31 27.04-64.92 72.19-114.23L95.31-837.85q-6.69-6.69-6.58-15.61.12-8.92 7.19-16 7.08-7.08 16-7.08 8.93 0 16 7.08l739.93 739.92q6.69 6.69 6.38 15.81-.31 9.11-7.38 16-7.08 6.88-16 6.88-8.93 0-15.62-7.07ZM858-480q0 53.85-12.58 100.27-12.58 46.42-23.96 64.19-2.62 3.85-6.46 6.39-3.85 2.53-7.69 3.65-3.85 1.11-8.12.5-4.27-.62-8.11-3.23-8.31-5.08-11.04-14.69-2.73-9.62 2.73-17.54 8.77-16.69 19.31-55.77 10.53-39.08 10.53-83.77 0-26.85-3.3-48.73-3.31-21.89-10.7-46.35-21.61 5-43.42 7.2-21.81 2.19-46.65 2.19-75.08 0-149.77-26.19-74.69-26.2-133.46-72.89L319.62-770.85q-13.23-13.23-10.43-31.46 2.81-18.23 19.43-25.84 33.38-15.31 70.5-23.58Q436.23-860 478-860q78.77 0 148.11 29.96 69.35 29.96 120.85 81.27 51.5 51.31 81.27 120.66Q858-558.77 858-480Zm-542 79.77q-15.31-15.31-15.31-37.73 0-22.42 15.31-37.54 15.31-15.12 37.73-15.12 22.42 0 37.73 15.12 15.31 15.12 15.31 37.54t-15.31 37.73q-15.31 15.31-37.73 15.31-22.42 0-37.73-15.31Zm162 254.84q64.85 0 123.96-24.19 59.12-24.19 99.35-61.88l-382-382q-32 40.46-80.08 74.54-48.08 34.07-95.85 52.3v6.62q0 138.08 98.27 236.35 98.27 98.26 236.35 98.26Z"/></svg>