<svg xmlns="http://www.w3.org/2000/svg" width="48" height="48" viewBox="0 -960 960 960"><path d="M480-60.002q22.231 0 45.423-3.192t51.193-9.346q79.845 64.692 180.96 48.039 101.115-16.654 151.73-102.961 41.308-70.154 27.116-148.961-14.193-78.807-77.423-132.961.384-4.846.384-10.731v-10.732q61.308-51.999 75.577-131.768 14.269-79.769-24.884-147.615-35.846-61.846-100.923-89.115t-134.769-12.884q-25.077-58.154-77.5-92.962T480-939.999q-64.461 0-116.884 34.808t-77.5 92.962q-69.692-14-134.576 13.076-64.885 27.077-101.116 88.923Q10.771-642 25.04-562.231q14.27 79.769 75.577 131.384v10.732q0 5.885.384 10.731-63.23 54.154-77.423 133.153-14.192 79 27.116 148.769 50.615 86.307 151.73 102.96Q303.539-7.847 383.384-72.54q28.001 6.154 51.193 9.346Q457.769-60 480-60Zm-152.999-32q-60.385 36.31-130.693 19.156Q126-90 90.616-149.154 62.077-197.231 66.73-252.462q4.654-55.231 43.578-98.231 10.846 43 30.769 81.807Q161-230.078 189-196.078q28 34 62.5 59.923Q286-110.232 327-92.001Zm305.998 0q41-18.23 75.5-44.153t62.5-59.923q28-34 48.423-72.808 20.423-38.807 30.269-81.807 38.924 43 43.578 98.231 4.654 55.231-23.885 103.308Q834-90 763.692-72.846q-70.308 17.153-130.693-19.155ZM480-105.384q-139.692 0-237.154-97.461Q145.385-300.308 145.385-440q0-123.615 77.769-215.346 77.77-91.731 194.77-113.808-.616 4.847-.616 9.577V-750q0 94.99 66.351 161.341Q550.01-522.308 645-522.308q43.077 0 78.948-13.337 35.87-13.337 63.744-36.817 12.769 30.769 19.846 64.039 7.077 33.269 7.077 68.423 0 139.692-97.461 237.154Q619.692-105.385 480-105.385ZM355.539-344.923q-22.231 0-37.539-15.308-15.307-15.308-15.307-37.538 0-22.616 15.307-37.731 15.308-15.115 37.539-15.115 22.615 0 37.73 15.115 15.116 15.115 15.116 37.731 0 22.23-15.116 37.538-15.115 15.308-37.73 15.308Zm249.538 0q-22.231 0-37.539-15.308-15.307-15.308-15.307-37.538 0-22.616 15.307-37.731 15.308-15.115 37.539-15.115 22.615 0 37.73 15.115 15.116 15.115 15.116 37.731 0 22.23-15.116 37.538-15.115 15.308-37.73 15.308ZM104.694-497.999Q72.539-539.076 67.5-590.538q-5.038-51.462 21.731-97Q119.154-739 173.347-760t110.885-5.461q-36.538 21.616-66.5 50.193-29.962 28.577-52.962 62.961-23 34.385-38.115 73.154-15.115 38.769-21.961 81.154Zm750.612 0q-6.461-42.385-21.576-81.154-15.116-38.769-38.5-73.154-23-34.384-52.962-62.961-29.962-28.577-66.116-50.193 56.308-15.923 110.501 5.269 54.193 21.192 84.116 72.654 26.769 45.538 21.923 97-4.847 51.462-37.386 92.539ZM645-567.692q-75.077 0-128.693-53.615Q462.692-674.923 462.692-750q0-6.846.307-12.692.308-5.846 1.923-12.692 3.924 0 7.539.192 3.616.192 7.539.577 46.352 0 88.253 11.385 41.901 11.384 78.901 32.769 37 21.769 67.308 51.539 30.307 29.769 52.538 66.923-22.385 20.846-52.385 32.577-30 11.73-69.615 11.73Zm-10.692-219.999q-35.385-15.538-74.048-23.923-38.663-8.385-80.26-8.385-40.557 0-78.971 8.193-38.414 8.192-73.029 22.961 21.307-44.539 61.038-75.154 39.731-30.616 90.962-30.616t91.347 30.808q40.115 30.808 62.961 76.116ZM164.77-652.307ZM480-819.999Zm167.154 89.538Zm148.076 78.154Zm-24.231 456.229Zm-581.998 0Z"/></svg>