<svg xmlns="http://www.w3.org/2000/svg" width="48" height="48" viewBox="0 -960 960 960"><path d="M122.693-423.461h175.77v-69.231q0-5-3.462-8.462-3.462-3.462-8.462-3.462h-83.846q-9.644 0-16.168-6.58-6.524-6.58-6.524-16.307 0-9.727 6.524-16.112 6.524-6.384 16.168-6.384h83.846q23.596 0 40.452 16.855 16.855 16.856 16.855 40.452v69.231h113.462v-290.615q0-60.602 43.05-103.262 43.05-42.661 103.528-42.661 41.652 0 75.95 21.372 34.299 21.372 53.086 58.397l27.616 56.231q4.461 8.692 1.308 17.73-3.154 9.039-11.462 13.269-8.692 3.846-17.947.845-9.255-3.001-13.437-11.383l-27-55.615q-12.816-24.898-36.898-40.18-24.083-15.282-51.778-15.282-42.17 0-71.401 29.148-29.231 29.147-29.231 71.468v290.538h113.462v-69.231q0-23.596 16.855-40.452 16.856-16.855 40.452-16.855h83.846q9.644 0 16.168 6.58 6.524 6.58 6.524 16.307 0 9.727-6.524 16.112-6.524 6.384-16.168 6.384h-83.846q-5 0-8.462 3.462-3.462 3.462-3.462 8.462v69.231h175.77q9.644 0 16.168 6.58 6.524 6.58 6.524 16.307 0 9.728-6.524 16.112-6.524 6.384-16.168 6.384H122.693q-9.644 0-16.168-6.58-6.524-6.58-6.524-16.307 0-9.727 6.524-16.112 6.524-6.384 16.168-6.384Zm114.616 283.46q-23.596 0-40.452-16.856-16.856-16.856-16.856-40.452v-145.769h599.998v140.385q0 26.139-18.303 44.415-18.303 18.277-44.005 18.277H237.309Z"/></svg>