<svg xmlns="http://www.w3.org/2000/svg" width="48" height="48" viewBox="0 -960 960 960"><path d="M200-130q-45.83 0-77.92-32.08Q90-194.17 90-240v-280q0-45.83 32.08-77.92Q154.17-630 200-630q25.85 0 47.38 11 21.54 11 37.39 29H330v-135.38q0-23.5 17.1-40.6 17.09-17.1 40.59-17.1h264.62q23.5 0 40.59 17.1 17.1 17.1 17.1 40.6V-590h64.61q39.75 0 67.57 27.82Q870-534.36 870-494.61v266.92q0 23.5-17.1 40.59-17.09 17.1-40.59 17.1H284.6q-15.68 18-37.22 29-21.53 11-47.38 11Zm0-45.38q27.42 0 46.02-18.6t18.6-46.02v-280q0-27.42-18.6-46.02T200-584.62q-27.42 0-46.02 18.6T135.38-520v280q0 27.42 18.6 46.02t46.02 18.6ZM375.38-590h289.24v-135.38q0-5.39-3.47-8.85-3.46-3.46-8.84-3.46H387.69q-5.38 0-8.84 3.46-3.47 3.46-3.47 8.85V-590ZM310-215.38h502.31q5.38 0 8.84-3.47 3.47-3.46 3.47-8.84v-266.92q0-20.85-14.58-35.43-14.58-14.58-35.43-14.58H310v329.24ZM628.5-411.5Q640-423 640-440t-11.5-28.5Q617-480 600-480t-28.5 11.5Q560-457 560-440t11.5 28.5Q583-400 600-400t28.5-11.5Zm120 0Q760-423 760-440t-11.5-28.5Q737-480 720-480t-28.5 11.5Q680-457 680-440t11.5 28.5Q703-400 720-400t28.5-11.5Zm-120 120Q640-303 640-320t-11.5-28.5Q617-360 600-360t-28.5 11.5Q560-337 560-320t11.5 28.5Q583-280 600-280t28.5-11.5Zm120 0Q760-303 760-320t-11.5-28.5Q737-360 720-360t-28.5 11.5Q680-337 680-320t11.5 28.5Q703-280 720-280t28.5-11.5ZM403.46-280h87.69q12.26 0 20.56-8.29 8.29-8.3 8.29-20.56v-142.3q0-12.26-8.29-20.56-8.3-8.29-20.56-8.29h-87.69q-12.26 0-20.55 8.29-8.3 8.3-8.3 20.56v142.3q0 12.26 8.3 20.56 8.29 8.29 20.55 8.29ZM310-215.38v-329.24 329.24Z"/></svg>