<svg xmlns="http://www.w3.org/2000/svg" width="48" height="48" viewBox="0 -960 960 960"><path d="M620.615-544.309q-66.23 0-113.191-46.769-46.961-46.768-46.961-113.383t46.961-113.384q46.961-46.769 113.191-46.769 66.615 0 113.577 46.769 46.961 46.769 46.961 113.384 0 27-8.692 51.846-8.693 24.846-23.077 43.922l117.154 117.539q6.692 6.693 6.884 15.808.193 9.115-6.884 15.807-7.077 7.077-16.307 7.077-9.231 0-16.308-7.077L715.769-576.693q-20.692 17.384-45.308 24.884-24.615 7.5-49.846 7.5Zm0-45.383q48.385 0 81.77-33.192 33.384-33.193 33.384-81.577 0-48-33.384-81.385-33.385-33.385-81.77-33.385-48 0-81.384 33.385-33.385 33.385-33.385 81.385 0 48.384 33.385 81.577 33.384 33.192 81.384 33.192ZM155.463-100.001q-23.615 0-40.654-17.039-17.038-17.038-17.038-40.654v-557.305q0-23.615 17.038-40.654 17.039-17.038 40.654-17.038h198q12.615 0 19.923 10.231 7.307 10.23 5.461 22.846-1.231 7.692-1.538 14.576-.308 6.885-.308 14.808 0 105.307 67.346 167.499 67.346 62.192 175.422 62.192 16.616 0 33.116-1.692 16.5-1.693 34.5-5.077l65.075 62.537q8.385 8 13.193 19.308 4.807 11.307 4.807 22.923v224.846q0 23.616-17.038 40.654-17.038 17.039-40.654 17.039H155.463Z"/></svg>