<svg xmlns="http://www.w3.org/2000/svg" width="48" height="48" viewBox="0 96 960 960"><path d="M630.036 692.076q8.656 0 14.502-5.788t5.846-14.596v-66.308h63.001l28.154 74.385q2.086 5.905 6.889 9.106 4.803 3.201 11.264 3.201 10.029 0 16.207-8.576 6.177-8.577 1.947-17.654l-24.539-64.308q18.923-2.077 30.539-14.961 11.615-12.885 11.615-27.731v-52.384q0-18.462-14.038-32.5-14.039-14.038-32.5-14.038H624.616q-6.077 0-10.346 4.384-4.27 4.385-4.27 10.616v196.768q0 8.808 5.69 14.596 5.689 5.788 14.346 5.788ZM650.384 565v-64.693h98.539q2.308 0 4.231 1.924 1.923 1.923 1.923 4.231v52.384q0 2.308-1.923 4.231T748.923 565h-98.539ZM478.693 692.076q9.461 0 17.192-6.072 7.73-6.073 10.576-14.85l59.616-186.769q3.23-8.505-2.684-16.483-5.915-7.978-15.033-7.978-6.129 0-11.283 4.038-5.153 4.038-6.769 10.115l-49.385 167.001-53.231-169.232q-1.615-5.461-6.354-8.692-4.738-3.23-10.511-3.23-8.596 0-13.634 6.461-5.039 6.461-2.423 15.154l55.769 189.615q2.757 8.644 10.725 14.783 7.967 6.139 17.429 6.139Zm-295.462 0h124.308q18.461 0 32.499-14.038 14.039-14.038 14.039-32.5V506.462q0-18.462-14.039-32.5-14.038-14.038-32.499-14.038H183.231q-6.076 0-10.346 4.384-4.269 4.385-4.269 10.616v202.152q0 6.231 4.269 10.616 4.27 4.384 10.346 4.384ZM209 651.693V500.307h98.539q2.307 0 4.231 1.924 1.923 1.923 1.923 4.231v139.076q0 2.308-1.923 4.231-1.924 1.924-4.231 1.924H209Zm-91.306 224.306q-23.53 0-40.61-17.082Q60 841.835 60 818.306V333.694q0-23.529 17.082-40.611 17.082-17.082 40.611-17.082h724.612q23.981 0 40.837 17.082t16.856 40.611v484.612q0 23.529-16.856 40.611-16.856 17.082-40.837 17.082H117.694Zm0-45.384q-5.385 0-8.847-3.462-3.462-3.462-3.462-8.847V333.694q0-5.385 3.462-8.847 3.462-3.462 8.847-3.462-5.385 0-8.847 3.462-3.462 3.462-3.462 8.847v484.612q0 5.385 3.462 8.847 3.462 3.462 8.847 3.462Zm0 0h724.612q5.385 0 8.847-3.462 3.462-3.462 3.462-8.847V333.694q0-5.385-3.462-8.847-3.462-3.462-8.847-3.462H117.694q-5.385 0-8.847 3.462-3.462 3.462-3.462 8.847v484.612q0 5.385 3.462 8.847 3.462 3.462 8.847 3.462Z"/></svg>