<svg xmlns="http://www.w3.org/2000/svg" width="48" height="48" viewBox="0 96 960 960"><path d="M762.306 865.229H288.464q-23.529 0-40.611-17.082-17.082-17.082-17.082-40.611V213.694q0-23.529 17.082-40.611 17.082-17.082 40.611-17.082h303.383q11.555 0 22.201 4.308 10.645 4.308 19.26 12.923l169.46 169.46q8.615 8.615 12.923 19.26 4.308 10.646 4.308 22.201v423.383q0 23.529-17.082 40.611-17.082 17.082-40.611 17.082Zm-604.612 130.77q-23.529 0-40.611-17.082-17.082-17.082-17.082-40.611V390.079q0-9.914 6.392-16.303 6.391-6.389 16.307-6.389 9.916 0 16.301 6.389 6.384 6.389 6.384 16.303v548.227q0 4.616 3.846 8.463 3.847 3.846 8.463 3.846h427.227q9.914 0 16.303 6.391 6.389 6.391 6.389 16.307 0 9.917-6.389 16.301-6.389 6.385-16.303 6.385H157.694Zm464.153-616.231h152.768L593.001 201.385v149.537q0 12.606 8.308 20.726 8.307 8.12 20.538 8.12Z"/></svg>