<svg xmlns="http://www.w3.org/2000/svg" width="48" height="48" viewBox="0 -960 960 960"><path d="M237.694-100.001q-23.529 0-40.611-17.082-17.082-17.082-17.082-40.611v-644.612q0-23.529 17.082-40.611 17.082-17.082 40.611-17.082H545.77q12.06 0 22.953 4.808 10.893 4.808 18.893 12.423l175.152 175.152q7.615 8 12.423 18.893t4.808 22.953v235.001q0 9.664-6.567 16.178-6.567 6.514-16.307 6.514-9.741 0-16.126-6.514-6.384-6.514-6.384-16.178v-229.232H568.848q-12.356 0-20.601-8.246-8.246-8.245-8.246-20.601v-165.767H237.694q-4.616 0-8.463 3.846-3.846 3.847-3.846 8.463v644.612q0 4.616 3.846 8.463 3.847 3.846 8.463 3.846h371.537q9.664 0 16.178 6.567 6.514 6.566 6.514 16.307t-6.514 16.125q-6.514 6.385-16.178 6.385H237.694Zm504.998-124.693v107.309q0 9.663-6.567 16.177-6.567 6.515-16.307 6.515-9.741 0-16.125-6.515-6.385-6.514-6.385-16.177v-156.461q0-12.355 8.245-20.601 8.246-8.245 20.601-8.245h156.461q9.663 0 16.177 6.567 6.515 6.567 6.515 16.307 0 9.741-6.515 16.125-6.514 6.385-16.177 6.385H774.306L894-137.615q6.692 6.692 6.692 15.888t-6.301 15.885q-7.135 6.918-16.691 6.726-9.556-.192-16.315-6.884L742.692-224.694Zm-517.307 79.309v-669.23 669.23Z"/></svg>