<svg xmlns="http://www.w3.org/2000/svg" width="48" height="48" viewBox="0 96 960 960"><path d="M762.306 865.229H288.464q-23.529 0-40.611-17.082-17.082-17.082-17.082-40.611V213.694q0-23.529 17.082-40.611 17.082-17.082 40.611-17.082h303.383q12.06 0 22.953 4.808 10.893 4.808 18.508 12.423l169.46 169.46q7.615 7.615 12.423 18.508 4.808 10.893 4.808 22.953v423.383q0 23.529-17.082 40.611-17.082 17.082-40.611 17.082ZM593.001 201.385H288.464q-4.616 0-8.463 3.846-3.846 3.847-3.846 8.463v593.842q0 4.616 3.846 8.463 3.847 3.846 8.463 3.846h473.842q4.616 0 8.463-3.846 3.846-3.847 3.846-8.463V379.768H621.847q-11.981 0-20.413-8.245-8.433-8.245-8.433-20.601V201.385ZM157.694 995.999q-23.529 0-40.611-17.082-17.082-17.082-17.082-40.611V390.079q0-9.664 6.567-16.178 6.567-6.514 16.307-6.514 9.741 0 16.126 6.514 6.384 6.514 6.384 16.178v548.227q0 4.616 3.846 8.463 3.847 3.846 8.463 3.846h427.227q9.664 0 16.178 6.567 6.514 6.566 6.514 16.307t-6.514 16.125q-6.514 6.385-16.178 6.385H157.694Zm118.461-794.614v178.383-178.383 618.46-618.46Z"/></svg>