<svg xmlns="http://www.w3.org/2000/svg" width="48" height="48" viewBox="0 -960 960 960"><path d="M197.694-140.001q-23.529 0-40.611-17.082-17.082-17.082-17.082-40.611v-133.922q0-9.663 6.567-16.178 6.567-6.514 16.307-6.514 9.741 0 16.126 6.514 6.384 6.515 6.384 16.178v133.922q0 4.616 3.846 8.463 3.847 3.846 8.463 3.846h133.922q9.663 0 16.178 6.567 6.514 6.566 6.514 16.307t-6.514 16.125q-6.515 6.385-16.178 6.385H197.694Zm564.612 0H628.384q-9.663 0-16.178-6.567-6.514-6.567-6.514-16.307 0-9.741 6.514-16.126 6.515-6.384 16.178-6.384h133.922q4.616 0 8.463-3.846 3.846-3.847 3.846-8.463v-133.922q0-9.663 6.567-16.178 6.566-6.514 16.307-6.514t16.125 6.514q6.385 6.515 6.385 16.178v133.922q0 23.529-17.082 40.611-17.082 17.082-40.611 17.082ZM140.001-628.384v-133.922q0-23.529 17.082-40.611 17.082-17.082 40.611-17.082h133.922q9.663 0 16.178 6.567 6.514 6.567 6.514 16.307 0 9.741-6.514 16.126-6.515 6.384-16.178 6.384H197.694q-4.616 0-8.463 3.846-3.846 3.847-3.846 8.463v133.922q0 9.663-6.567 16.178-6.566 6.514-16.307 6.514t-16.125-6.514q-6.385-6.515-6.385-16.178Zm634.614 0v-133.922q0-4.616-3.846-8.463-3.847-3.846-8.463-3.846H628.384q-9.663 0-16.178-6.567-6.514-6.566-6.514-16.307t6.514-16.125q6.515-6.385 16.178-6.385h133.922q23.529 0 40.611 17.082 17.082 17.082 17.082 40.611v133.922q0 9.663-6.567 16.178-6.567 6.514-16.307 6.514-9.741 0-16.126-6.514-6.384-6.515-6.384-16.178ZM480-391.77q-38.076 0-63.153-25.077Q391.77-441.924 391.77-480q0-38.076 25.077-63.153Q441.924-568.23 480-568.23q38.076 0 63.153 25.077Q568.23-518.076 568.23-480q0 38.076-25.077 63.153Q518.076-391.77 480-391.77Zm.074-45.384q17.541 0 30.157-12.69 12.615-12.689 12.615-30.23t-12.69-30.157q-12.689-12.615-30.23-12.615t-30.157 12.69q-12.615 12.689-12.615 30.23t12.69 30.157q12.689 12.615 30.23 12.615Z"/></svg>