<svg xmlns="http://www.w3.org/2000/svg" width="48" height="48" viewBox="0 96 960 960"><path d="M403.845 661.23h58.77q23.98 0 40.836-17.082 16.856-17.082 16.856-40.611V417.693q0-23.529-16.856-40.611Q486.595 360 462.615 360h-57.922q-23.529 0-40.611 17.082Q347 394.164 347 417.693v57.922q0 23.528 17.082 40.61t40.611 17.082h70.23v70.23q0 5.385-3.654 8.847-3.654 3.462-8.654 3.462h-58.77q-8.923 0-15.307 6.752-6.384 6.753-6.384 16.308t6.46 15.939q6.46 6.385 15.231 6.385Zm71.078-173.307h-70.23q-5.386 0-8.847-3.462-3.462-3.461-3.462-8.846v-57.922q0-5.386 3.462-8.847 3.461-3.462 8.847-3.462h57.922q5 0 8.654 3.462 3.654 3.461 3.654 8.847v70.23Zm189.768 41.538v63.769q0 8.923 6.567 15.308 6.567 6.384 16.307 6.384 9.741 0 16.125-6.46 6.385-6.461 6.385-15.232v-63.769h62.847q8.923 0 15.307-6.565 6.385-6.565 6.385-16.302 0-9.363-6.461-15.94-6.46-6.577-15.231-6.577h-62.847v-60.154q0-8.923-6.567-15.307-6.566-6.385-16.307-6.385t-16.125 6.243q-6.385 6.244-6.385 15.449v60.154h-60.539q-8.922 0-15.307 6.752-6.384 6.753-6.384 16.308t6.46 15.939q6.46 6.385 15.231 6.385h60.539ZM278.463 825.229q-23.529 0-40.611-17.082-17.081-17.082-17.081-40.611V253.694q0-23.529 17.081-40.611 17.082-17.082 40.611-17.082h513.843q23.528 0 40.61 17.082t17.082 40.611v513.842q0 23.529-17.082 40.611-17.082 17.082-40.61 17.082H278.463ZM167.694 935.997q-23.528 0-40.61-17.082-17.082-17.081-17.082-40.61V340.77q0-8.922 6.692-15.307 6.692-6.384 16.308-6.384 9.615 0 15.999 6.514 6.385 6.514 6.385 16.177v536.535q0 5.385 3.462 8.847 3.461 3.462 8.846 3.462h537.535q8.923 0 15.307 6.692 6.385 6.692 6.385 16.307 0 9.615-6.515 16-6.514 6.384-16.177 6.384H167.694Z"/></svg>