<svg xmlns="http://www.w3.org/2000/svg" width="48" height="48" viewBox="0 96 960 960"><path d="M437.308 702.23h132.307q23.231 0 40.461-17.082 17.231-17.082 17.231-40.611v-80.922q0-25.462-13.269-38.654-13.269-13.192-29.423-14.346 16.154-1.154 29.423-12.923 13.269-11.769 13.269-37.231v-84.384q0-23.529-17.231-40.61-17.23-17.082-40.461-17.082H436.308q-8.923 0-15.307 6.692-6.385 6.692-6.385 16.307 0 9.616 6.514 16 6.515 6.385 16.178 6.385h132.307q5 0 8.654 3.654 3.655 3.654 3.655 8.654v99.538q0 5.385-3.655 8.846-3.654 3.462-8.654 3.462h-55.923q-8.923 0-15.308 6.692Q492 501.307 492 510.923q0 9.615 6.514 15.999 6.515 6.385 16.178 6.385h54.923q5 0 8.654 3.462 3.655 3.461 3.655 8.846v98.922q0 5.001-3.655 8.655-3.654 3.654-8.654 3.654H436.308q-8.923 0-15.307 6.692-6.385 6.692-6.385 16.308 0 9.615 6.514 15.999 6.515 6.385 16.178 6.385ZM278.463 825.229q-23.529 0-40.611-17.082-17.081-17.082-17.081-40.611V253.694q0-23.529 17.081-40.611 17.082-17.082 40.611-17.082h513.843q23.528 0 40.61 17.082t17.082 40.611v513.842q0 23.529-17.082 40.611-17.082 17.082-40.61 17.082H278.463Zm0-45.384h513.843q5.385 0 8.846-3.462 3.462-3.462 3.462-8.847V253.694q0-5.385-3.462-8.847-3.461-3.462-8.846-3.462H278.463q-5.385 0-8.847 3.462-3.462 3.462-3.462 8.847v513.842q0 5.385 3.462 8.847 3.462 3.462 8.847 3.462ZM167.694 935.997q-23.528 0-40.61-17.082-17.082-17.081-17.082-40.61V340.77q0-8.922 6.692-15.307 6.692-6.384 16.308-6.384 9.615 0 15.999 6.514 6.385 6.514 6.385 16.177v536.535q0 5.385 3.462 8.847 3.461 3.462 8.846 3.462h537.535q8.923 0 15.307 6.692 6.385 6.692 6.385 16.307 0 9.615-6.515 16-6.514 6.384-16.177 6.384H167.694Zm98.46-694.612v538.46-538.46Z"/></svg>