<svg xmlns="http://www.w3.org/2000/svg" width="48" height="48" viewBox="0 96 960 960"><path d="M603.308 702.23q9.615 0 15.999-6.515 6.385-6.514 6.385-16.177V340.077q0-8.923-6.692-15.308-6.693-6.384-16.308-6.384t-15.999 6.514q-6.385 6.515-6.385 16.178v128.385H458.384V340.077q0-8.923-6.692-15.308-6.692-6.384-16.307-6.384-9.615 0-16 6.514-6.384 6.515-6.384 16.178v151.077q0 9.663 6.514 16.177 6.514 6.515 16.178 6.515h144.615v165.692q0 8.923 6.692 15.307 6.693 6.385 16.308 6.385ZM278.463 825.229q-23.529 0-40.611-17.082-17.081-17.082-17.081-40.611V253.694q0-23.529 17.081-40.611 17.082-17.082 40.611-17.082h513.843q23.528 0 40.61 17.082t17.082 40.611v513.842q0 23.529-17.082 40.611-17.082 17.082-40.61 17.082H278.463Zm0-45.384h513.843q5.385 0 8.846-3.462 3.462-3.462 3.462-8.847V253.694q0-5.385-3.462-8.847-3.461-3.462-8.846-3.462H278.463q-5.385 0-8.847 3.462-3.462 3.462-3.462 8.847v513.842q0 5.385 3.462 8.847 3.462 3.462 8.847 3.462ZM167.694 935.997q-23.528 0-40.61-17.082-17.082-17.081-17.082-40.61V340.77q0-8.922 6.692-15.307 6.692-6.384 16.308-6.384 9.615 0 15.999 6.514 6.385 6.514 6.385 16.177v536.535q0 5.385 3.462 8.847 3.461 3.462 8.846 3.462h537.535q8.923 0 15.307 6.692 6.385 6.692 6.385 16.307 0 9.615-6.515 16-6.514 6.384-16.177 6.384H167.694Zm98.46-694.612v538.46-538.46Z"/></svg>