<svg xmlns="http://www.w3.org/2000/svg" width="48" height="48" viewBox="0 -960 960 960"><path d="M237.694-100.001q-23.529 0-40.611-17.082-17.082-17.082-17.082-40.611v-644.612q0-23.529 17.082-40.611 17.082-17.082 40.611-17.082h321.152q12.569 0 24.015 5.308t19.446 15.308l163.461 189.076q7.615 8 10.923 17.596t3.308 20.25v390.999q0 14.615-13.116 20.231-13.115 5.615-23.346-4.616L585.614-363.77q12.231-15.615 18.539-34.762 6.307-19.147 6.307-40.853 0-55.076-37.692-92.768T480-569.845q-55.076 0-92.768 37.692t-37.692 92.768q0 55.077 37.692 92.769 37.692 37.692 92.768 37.692 21.217 0 39.108-4.808 17.892-4.808 37.055-17.192l181.529 181.846q13.615 13.615 6.34 31.346t-26.571 17.731H237.694Zm242.289-254.307q-35.214 0-60.137-24.94-24.923-24.94-24.923-60.154 0-35.213 24.94-60.136 24.94-24.923 60.154-24.923t60.137 24.94q24.923 24.94 24.923 60.153 0 35.214-24.94 60.137-24.94 24.923-60.154 24.923Z"/></svg>