<svg xmlns="http://www.w3.org/2000/svg" width="48" height="48" viewBox="0 -960 960 960"><path d="M416.693-252.46q13.615 10.615 28.73 15.615 15.116 5 30.116 5 31.138 0 55.8-19.615Q556-271.076 560-306.076q5-48.23-30.615-72.153-35.616-23.923-54.462-61.539-5 14.616-4.692 26 .308 11.385 2.692 27.231 3 19.231 7.616 33.923 4.615 14.692 1 33.308-5 21.461-22.616 40.153-17.615 18.693-42.23 26.693Zm-316.692 94.766v-644.612q0-23.596 17.048-40.645 17.049-17.048 40.645-17.048h644.612q23.596 0 40.645 17.048 17.048 17.049 17.048 40.645v644.612q0 23.596-17.048 40.645-17.049 17.048-40.645 17.048H157.694q-23.596 0-40.645-17.048-17.048-17.049-17.048-40.645Zm57.693 12.309h96.153v-17.482q0-11.671 8.241-19.786 8.24-8.116 19.836-8.116h81.001q-25.846-23.692-39.616-56.653-13.769-32.962-13.769-70.423 0-81.692 41.076-144.499 41.077-62.807 107.922-105.576 5.615-4 12.073-4.193 6.457-.192 12.23 1.423 5.774 1.616 10.774 5.654 5 4.039 7.384 10.269 16.693 46.308 35.693 73 19 26.692 57.23 57.153 29.769 24.539 42.846 50.846 13.077 26.308 13.077 58.538 0 36.428-13.769 68.945-13.77 32.516-42.001 55.516h84.001q11.596 0 19.836 8.241 8.241 8.24 8.241 19.836v17.307h96.153q5.385 0 8.847-3.462 3.462-3.462 3.462-8.847v-644.612q0-5.385-3.462-8.847-3.462-3.462-8.847-3.462H157.694q-5.385 0-8.847 3.462-3.462 3.462-3.462 8.847v644.612q0 5.385 3.462 8.847 3.462 3.462 8.847 3.462Z"/></svg>