<svg xmlns="http://www.w3.org/2000/svg" width="48" height="48" viewBox="0 -960 960 960"><path d="M371.539-110.002q-29.153 0-49.576-20.423-20.423-20.423-20.423-49.576v-30h356.92v30q0 29.153-20.423 49.576-20.423 20.423-49.576 20.423H371.539ZM301.54-242.693v-214.615h356.92v214.615H301.54Zm2.461-247.308q9.616-41.769 41.039-78.115 31.423-36.345 82.346-52.499v-4.231q-12.692-6.461-22.808-16.731-10.115-10.269-16.115-21.654l-114.46-27.845q-8.23-2-12.038-8t-3.808-13.231q0-7.231 3.808-13.231t12.038-8l114.075-27.846q13.077-25.153 37.307-40.345 24.231-15.192 54.615-15.192 18.692 0 35.384 6.038t30.154 17.269l77.691-18.231q13.616-3.384 24.423 5.731 10.808 9.115 10.808 22.731v140.613q0 14-11.385 23.116-11.384 9.115-25 4.961l-73.845-19q-3.077 3.077-6.731 5.193-3.654 2.115-8.27 4.039l-.615 3.846q47.769 14.769 80.654 50.576 32.884 35.808 42.731 80.038H304.001ZM480-657.692q22.307 0 38.461-16.154t16.154-38.461q0-23.692-16.154-39.154-16.154-15.461-38.461-15.461-22.692 0-38.654 15.961-15.961 15.962-15.961 38.654 0 22.692 15.961 38.653 15.962 15.962 38.654 15.962Z"/></svg>