<svg xmlns="http://www.w3.org/2000/svg" width="48" height="48" viewBox="0 -960 960 960"><path d="M152.51-127.693q-10.702 0-17.76-7.187-7.057-7.188-7.057-17.813v-654.614q0-10.625 7.24-17.813 7.239-7.187 17.942-7.187 10.702 0 17.76 7.187 7.057 7.188 7.057 17.813v654.614q0 10.625-7.24 17.813-7.239 7.187-17.942 7.187Zm302.49 0v-49.999h50v49.999h-50Zm0-163.846v-49.999h50v49.999h-50ZM291.539-455v-50h49.999v50h-49.999ZM455-455v-50h50v50h-50Zm163.846 0v-50h50v50h-50ZM455-618.846v-50h50v50h-50Zm0-163.462v-49.999h50v49.999h-50Zm352.125 654.615q-10.702 0-17.76-7.187-7.057-7.188-7.057-17.813v-654.614q0-10.625 7.24-17.813 7.239-7.187 17.942-7.187 10.702 0 17.76 7.187 7.057 7.188 7.057 17.813v654.614q0 10.625-7.24 17.813-7.239 7.187-17.942 7.187Z"/></svg>