<svg xmlns="http://www.w3.org/2000/svg" width="48" height="48" viewBox="0 -960 960 960"><path d="M87.309-457.308q-9.894 0-16.293-6.405-6.399-6.405-6.399-16.307 0-9.903 6.4-16.287 6.398-6.385 16.292-6.385h168.923q9.894 0 16.293 6.405 6.399 6.405 6.399 16.307 0 9.903-6.399 16.287-6.399 6.385-16.293 6.385H87.309Zm217.307-166.076-44-44.001q-5.692-5.933-5.692-14.928 0-8.994 6.776-16.155 6.993-6.608 15.916-6.608t15.999 6.692l44.001 44q6.077 6.032 6.077 15.17t-6.994 15.93q-7.16 6.977-16.083 6.977-8.923 0-16-7.077Zm175.371-57.692q-9.294 0-15.987-6.385-6.692-6.384-6.692-15.307v-170.923q0-8.923 6.706-15.307 6.705-6.385 15.999-6.385T496-888.998q6.692 6.384 6.692 15.307v170.923q0 8.923-6.706 15.307-6.705 6.385-15.999 6.385Zm143.297 57.775q-6.977-7.16-6.977-16.083 0-8.923 7.077-16l44.001-44q5.933-5.692 14.928-5.692 8.994 0 16.155 6.776 6.608 6.993 6.608 15.916t-6.692 15.999l-44 44.001q-6.032 6.077-15.17 6.077t-15.93-6.994Zm80.484 165.993q-9.894 0-16.293-6.405-6.399-6.405-6.399-16.307 0-9.903 6.399-16.287 6.399-6.385 16.293-6.385h168.923q9.894 0 16.293 6.405 6.399 6.405 6.399 16.307 0 9.903-6.399 16.287-6.399 6.385-16.293 6.385H703.768ZM480-393.001q-37.006 0-62.002-24.997-24.997-24.996-24.997-62.002t24.997-62.002q24.996-24.997 62.002-24.997t62.002 24.997q24.997 24.996 24.997 62.002t-24.997 62.002Q517.006-393.001 480-393.001Zm189.846 134.846-47.462-47.461q-6.077-6.033-6.077-15.17 0-9.138 6.994-15.93 7.16-6.977 16.083-6.977 8.923 0 16 7.077l47.461 47.462q6.077 5.934 6.077 14.928 0 8.995-7.16 16.155-6.993 6.993-15.916 6.993t-16-7.077Zm-411.775-.083q-6.993-6.993-6.993-15.916t7.077-16l47.461-47.462q6.033-6.077 15.17-6.077 9.138 0 15.93 6.994 6.977 7.16 6.977 16.083 0 8.923-7.077 16l-47.462 47.461q-5.934 6.077-14.928 6.077-8.995 0-16.155-7.16ZM479.98-64.618q-9.903 0-16.287-6.398-6.385-6.399-6.385-16.293v-168.923q0-9.894 6.405-16.293 6.405-6.399 16.307-6.399 9.903 0 16.287 6.399 6.385 6.399 6.385 16.293v168.923q0 9.894-6.405 16.293-6.405 6.399-16.307 6.399Z"/></svg>