<svg xmlns="http://www.w3.org/2000/svg" width="48" height="48" viewBox="0 96 960 960"><path d="M520 985.613q-26.139 0-44.415-18.276-18.277-18.276-18.277-44.416v-88.538q-100.23-8.307-168.768-82.115Q220.001 678.461 220.001 576V213.694q0-23.596 17.048-40.645 17.049-17.048 40.645-17.048h404.612q23.596 0 40.645 17.048 17.048 17.049 17.048 40.645V576q0 102.461-68.539 176.268-68.538 73.808-168.768 82.115v93.538q0 5.385 3.462 8.847 3.461 3.462 8.846 3.462h204.615q9.663 0 16.177 6.566 6.514 6.567 6.514 16.308 0 9.74-6.514 16.125-6.514 6.384-16.177 6.384H520Zm37.307-352.305h129.036q4.118-13.923 6.195-28.154T694.615 576v-57.308H552.693q-9.664 0-16.178-6.567-6.514-6.567-6.514-16.307 0-9.741 6.514-16.125 6.514-6.385 16.178-6.385h141.922V358.692H512.693q-9.664 0-16.178-6.567-6.514-6.567-6.514-16.307 0-9.741 6.514-16.125 6.514-6.385 16.178-6.385h181.922v-99.614q0-5.385-3.462-8.847-3.462-3.462-8.847-3.462H277.694q-5.385 0-8.847 3.462-3.462 3.462-3.462 8.847v339.614h110q30.106 0 55.861 10.193 25.754 10.192 44.6 29.577 19.692 20.23 40.192 30.23t41.269 10Z"/></svg>