<svg xmlns="http://www.w3.org/2000/svg" width="48" height="48" viewBox="0 -960 960 960"><path d="M480.196-496.537q9.727 0 16.111-6.524 6.385-6.524 6.385-16.168v-168.463q0-9.644-6.58-16.168-6.581-6.524-16.308-6.524t-16.111 6.524q-6.385 6.524-6.385 16.168v168.463q0 9.644 6.58 16.168 6.581 6.524 16.308 6.524ZM480-371.922q10.269 0 17.634-7.366Q505-386.653 505-396.922t-7.366-17.634q-7.365-7.366-17.634-7.366t-17.634 7.366Q455-407.191 455-396.922t7.366 17.634q7.365 7.366 17.634 7.366Zm.404 272.614q-6.019 0-11.635-1.808-5.615-1.808-10.2-5.394-145.184-129.875-216.876-241.117Q170.001-458.868 170.001-552q0-145.427 93.615-231.713T480-869.999q122.769 0 216.384 86.286Q789.999-697.427 789.999-552q0 92.769-71.692 204.192T501.431-106.51q-4.2 3.586-9.604 5.394-5.404 1.808-11.423 1.808Z"/></svg>