<svg xmlns="http://www.w3.org/2000/svg" width="48" height="48" viewBox="0 -960 960 960"><path d="M157.694-180.001q-23.529 0-40.611-17.347-17.082-17.346-17.082-40.346v-484.612q0-23 17.082-40.346 17.082-17.347 40.611-17.347h225.613q12.06 0 22.76 4.808 10.701 4.808 18.789 12.511l47.682 48.066h329.768q23 0 40.346 17.347 17.347 17.346 17.347 40.346v419.227q0 23-17.347 40.346-17.346 17.347-40.346 17.347H157.694Zm0-45.384h644.612q5.385 0 8.847-3.462 3.462-3.462 3.462-8.847v-419.227q0-5.385-3.462-8.847-3.462-3.462-8.847-3.462H454.077l-61.923-61.923q-1.924-1.923-4.039-2.693-2.116-.769-4.424-.769H157.694q-5.385 0-8.847 3.462-3.462 3.462-3.462 8.847v484.612q0 5.385 3.462 8.847 3.462 3.462 8.847 3.462Zm-12.309 0v-509.23 509.23ZM595.5-367.77l62.961 44.539q4.615 3 8.423.259t2.192-7.875l-23.307-77.307 64.871-55.063q3.59-2.778 1.782-7.473-1.807-4.694-6.807-4.694h-77.308l-25.692-75.307q-1.615-5-6.615-5t-6.615 5l-26.308 75.307h-77.692q-5 0-6.807 4.694-1.808 4.695 2.192 7.536l64.846 55-24.308 77.307q-1.615 5 2.5 8.116 4.116 3.115 8.731.115L595.5-367.77Z"/></svg>