<svg xmlns="http://www.w3.org/2000/svg" width="48" height="48" viewBox="0 -960 960 960"><path d="M155.386-180.001q-21.846 0-38.615-16.77-16.77-16.769-16.77-38.615v-486.92q0-21.846 17.923-39.77 17.924-17.923 39.77-17.923h225.613q11.615 0 22.538 4.808t18.923 12.423l47.77 48.154h361.307q9.923 0 16.307 6.385 6.385 6.384 6.385 16.307 0 9.923-6.385 16.308-6.384 6.384-16.307 6.384H287.846q-55.461 0-98.961 29.346-43.5 29.347-43.5 80.347v321.843q0 4.231 2.116 6.924 2.115 2.692 5.577 4.616l85.769-327.306q5.384-18.846 21.231-30.769 15.846-11.923 35.461-11.923H852.23q28.231 0 46.154 22.231 17.923 22.23 9.923 50.461l-80.692 301.69q-5.615 21.307-20.269 31.538-14.654 10.231-36.961 10.231H155.386Z"/></svg>