<svg xmlns="http://www.w3.org/2000/svg" width="48" height="48" viewBox="0 -960 960 960"><path d="M171.925-137.308q-42.789 0-72.74-29.904-29.952-29.904-29.952-72.625 0-23.969 10.5-45.22 10.5-21.25 29.5-36.481v-159.615q0-12.26 8.293-20.553 8.293-8.293 20.553-8.293h56.924v-201.153q0-12.26 8.293-20.553 8.293-8.294 20.553-8.294h205.69q18.134 0 32.875 9.073 14.74 9.072 21.201 25.389l164.231 385.768q6.038 13.846 10.442 28.914 4.404 15.068 4.404 30.855 0 50.78-35.956 86.736t-86.643 35.956q-38.087 0-69.552-22-31.464-22-45.541-58H272.155q-7.692 34.615-35.819 57.307-28.127 22.693-64.411 22.693Zm696.15-40H753.46q-12.259 0-20.552-8.293-8.294-8.294-8.294-20.553v-561.153q0-9.644 6.58-16.168 6.581-6.524 16.308-6.524t16.111 6.524q6.385 6.524 6.385 16.168v544.615h98.077q9.644 0 16.168 6.58 6.524 6.581 6.524 16.308t-6.524 16.111q-6.524 6.385-16.168 6.385Zm-696.326-5.384q24.253 0 40.868-16.44 16.616-16.44 16.616-40.693 0-24.252-16.44-40.868-16.44-16.615-40.693-16.615-24.252 0-40.868 16.44-16.616 16.44-16.616 40.693 0 24.252 16.441 40.868 16.44 16.615 40.692 16.615Zm368.133 0q32.195 0 54.811-22.498 22.615-22.498 22.615-54.692 0-32.195-22.498-54.811-22.498-22.615-54.692-22.615-32.195 0-54.811 22.498-22.615 22.498-22.615 54.692 0 32.195 22.498 54.811 22.498 22.615 54.692 22.615ZM361.848-383.307h191.998q5 0 9.808 1.154t9.424 3.462l-131-308.616q-1.539-3.462-4.616-5.385-3.077-1.923-6.539-1.923H240.386v184.616l121.462 126.692Z"/></svg>