<svg xmlns="http://www.w3.org/2000/svg" width="48" height="48" viewBox="0 96 960 960"><path d="M162.498 765.999q-9.728 0-16.112-6.524-6.385-6.523-6.385-16.168V408.693q0-9.644 6.581-16.168 6.58-6.524 16.307-6.524 9.727 0 16.112 6.524 6.384 6.524 6.384 16.168v144.615h194.616V408.693q0-9.644 6.581-16.168 6.58-6.524 16.307-6.524 9.727 0 16.112 6.524 6.384 6.524 6.384 16.168v334.614q0 9.645-6.58 16.168-6.58 6.524-16.307 6.524-9.728 0-16.112-6.524-6.385-6.523-6.385-16.168V598.692H185.385v144.615q0 9.645-6.58 16.168-6.58 6.524-16.307 6.524Zm400.963 0q-12.259 0-20.553-8.293-8.293-8.293-8.293-20.553V611q0-23.5 17.096-40.596 17.096-17.096 40.596-17.096h169.999q5.385 0 8.847-3.462 3.462-3.461 3.462-8.846v-97.307q0-5.385-3.462-8.847-3.462-3.462-8.847-3.462H557.307q-9.644 0-16.168-6.58-6.524-6.58-6.524-16.307 0-9.727 6.524-16.112 6.524-6.384 16.168-6.384h204.999q23.5 0 40.596 17.096 17.097 17.096 17.097 40.596V541q0 23.5-17.097 40.596-17.096 17.096-40.596 17.096H592.307q-5.385 0-8.847 3.462-3.461 3.461-3.461 8.846v109.616h217.308q9.644 0 16.168 6.58 6.524 6.58 6.524 16.307 0 9.727-6.524 16.112-6.524 6.384-16.168 6.384H563.461Z"/></svg>