<svg xmlns="http://www.w3.org/2000/svg" width="48" height="48" viewBox="0 -960 960 960"><path d="M128.848 0q-12.616 0-20.731-8.115-8.116-8.116-8.116-20.731v-91.538q0-12.615 8.116-20.731 8.115-8.115 20.731-8.115h702.304q12.616 0 20.731 8.115 8.116 8.116 8.116 20.731v91.538q0 12.615-8.116 20.73Q843.768 0 831.152 0H128.848Zm143.691-280q-14 0-21.5-11.461t-2.038-23.846L446.77-803.691q3.077-7.154 9.192-11.731 6.116-4.577 13.654-4.577h20.768q7.538 0 13.654 4.577 6.115 4.577 9.192 11.731l197.385 487.846q5.076 12.769-2.539 24.307Q700.461-280 686.692-280q-8.307 0-15.192-4.461-6.884-4.462-9.73-12.769l-52.231-132.001H348.538L296.076-296.23q-2.846 7.307-9.23 11.769Q280.461-280 272.539-280Zm94.23-196.691h224.924L482-757.307h-4.769L366.769-476.691Z"/></svg>