<svg xmlns="http://www.w3.org/2000/svg" width="48" height="48"><path d="M28 41.15q-.5 0-.825-.325-.325-.325-.325-.825 0-.5.325-.825.325-.325.825-.325h8.35l-6.8-4.8q-.4-.25-.475-.7-.075-.45.175-.85.25-.4.7-.475.45-.075.85.175l6.9 4.75-2.9-7.85q-.2-.4.05-.825.25-.425.65-.625.45-.2.875.025t.625.675l2.8 7.85 2.25-8.05q.1-.45.475-.675.375-.225.825-.125.45.1.7.475.25.375.15.825l-3.1 11.6q-.15.35-.425.625T40 41.15zm9.5-30.4H12.05V8.5H37.5zM12.05 19v-2.25H37.5V19zm0 8.3V25h15.3q-.65.5-1.2 1.075-.55.575-1 1.225zm0 5.95H22.9q0 .15-.025.35-.025.2-.025.35 0 .4.05.775t.1.775H12.05zm-3.3-22.5H6.5V8.5h2.25zM6.5 19v-2.25h2.25V19zm0 8.3V25h2.25v2.3zm0 5.95h2.25v2.25H6.5z"/></svg>