<svg xmlns="http://www.w3.org/2000/svg" width="48" height="48" viewBox="0 -960 960 960"><path d="M450-814.61v421.92q0 9.92-6.4 16.3-6.4 6.39-16.31 6.39-9.9 0-16.29-6.39-6.38-6.4-6.38-16.3v-156.46L395.77-580q-61 0-103.96-40.31-42.96-40.3-42.96-99.69 0-58.77 40.42-99.38Q329.69-860 388.46-860h232.69q9.91 0 16.3 6.4 6.39 6.4 6.39 16.31 0 9.91-6.39 16.29-6.39 6.39-16.3 6.39h-62.3v421.92q0 9.9-6.4 16.3-6.4 6.39-16.31 6.39-9.91 0-16.29-6.39-6.39-6.4-6.39-16.3v-421.92H450ZM226.31-210.62l63 63q6.69 6.57 6.69 15.75T289.34-116q-6.67 6.69-16 6.69-9.34 0-16.03-6.69l-97.08-97.08q-8.61-8.72-8.61-20.47 0-11.76 8.61-20.37L257.31-351q7.08-7.08 16-7.08t16 7.08q7.07 7.08 7.07 16.19 0 9.12-7.07 16.19L226.69-256h570.62q9.9 0 16.29 6.4 6.4 6.4 6.4 16.31 0 9.9-6.4 16.29-6.39 6.38-16.29 6.38h-571Z"/></svg>