<svg xmlns="http://www.w3.org/2000/svg" width="48" height="48" viewBox="0 96 960 960"><path d="M95.384 925.999q-18.759 0-32.071-13.312Q50 899.375 50 880.616v-78.309q0-8.758 3.896-17.668 3.896-8.911 9.873-14.946L130 703.104V441.615L63.77 375q-5.977-6.036-9.873-14.946-3.896-8.911-3.896-17.669v-93.692q0-9.894 6.404-16.293 6.405-6.399 16.308-6.399 9.902 0 16.287 6.399 6.384 6.399 6.384 16.293v57.308h114.617v-57.308q0-9.894 6.404-16.293 6.405-6.399 16.308-6.399 9.902 0 16.287 6.399 6.384 6.399 6.384 16.293v57.308h114.617v-57.308q0-9.894 6.404-16.293 6.405-6.399 16.308-6.399 9.902 0 16.287 6.399 6.384 6.399 6.384 16.293v93.692q0 8.758-3.796 17.669-3.796 8.91-9.588 14.946l-66.616 66.615v79.001h289.232v-79.001L558.385 375q-5.977-6.036-9.873-14.946-3.896-8.911-3.896-17.669v-93.692q0-9.894 6.404-16.293 6.405-6.399 16.308-6.399 9.902 0 16.287 6.399 6.384 6.399 6.384 16.293v57.308h114.617v-57.308q0-9.894 6.404-16.293 6.405-6.399 16.308-6.399 9.902 0 16.287 6.399 6.384 6.399 6.384 16.293v57.308h114.617v-57.308q0-9.894 6.404-16.293 6.405-6.399 16.308-6.399 9.902 0 16.287 6.399 6.384 6.399 6.384 16.293v93.692q0 8.758-3.796 17.669-3.796 8.91-9.588 14.946l-66.616 66.588v261.489l66.616 66.616q5.792 6.035 9.588 14.946 3.796 8.91 3.796 17.668v78.309q0 18.759-13.312 32.071-13.312 13.312-32.071 13.312H577.308V816q0-40.587-28.383-68.948-28.382-28.36-69-28.36-40.618 0-68.925 28.36-28.308 28.361-28.308 68.948v109.999H95.384Zm0-45.383h241.924V816q0-59.923 41.885-101.307Q421.077 673.308 480 673.308q59.923 0 101.307 41.385Q622.692 756.077 622.692 816v64.616h241.924v-78.693l-80-79.92V422.77l71.385-71.386H598.614l71.385 71.386v143.229H290.001V422.77l71.385-71.386H103.999l71.385 71.386v299.233l-80 79.92v78.693ZM480 616Z"/></svg>