<svg xmlns="http://www.w3.org/2000/svg" width="48" height="48" viewBox="0 -960 960 960"><path d="M50-175.384v-78.309q0-8.758 3.897-17.668 3.896-8.911 9.873-14.946L130-352.896v-261.419l-62.385-62.839q-8-7.615-12.808-18.645Q50-706.829 50-718.615v-88.692q0-9.894 6.404-16.293 6.405-6.399 16.308-6.399 9.902 0 16.287 6.399 6.384 6.399 6.384 16.293v57.308H210v-57.308q0-9.894 6.404-16.293 6.405-6.399 16.308-6.399 9.902 0 16.287 6.399 6.384 6.399 6.384 16.293v57.308H370v-57.308q0-9.894 6.404-16.293 6.405-6.399 16.308-6.399 9.902 0 16.287 6.399 6.384 6.399 6.384 16.293v88.692q0 11.786-4.807 22.816-4.808 11.03-12.423 18.645l-62.77 62.769v79.001h289.232v-79.001l-62.385-62.769q-8-7.615-12.808-18.645-4.807-11.03-4.807-22.816v-88.692q0-9.894 6.404-16.293 6.405-6.399 16.308-6.399 9.902 0 16.287 6.399 6.384 6.399 6.384 16.293v57.308h114.617v-57.308q0-9.894 6.404-16.293 6.405-6.399 16.308-6.399 9.902 0 16.287 6.399 6.384 6.399 6.384 16.293v57.308h114.617v-57.308q0-9.894 6.404-16.293 6.405-6.399 16.308-6.399 9.902 0 16.287 6.399 6.384 6.399 6.384 16.293v88.692q0 11.786-4.807 22.816-4.808 11.03-12.423 18.645l-62.77 62.812v261.419l66.616 66.616q5.792 6.035 9.588 14.946 3.796 8.91 3.796 17.668v78.309q0 18.759-13.312 32.071-13.312 13.312-32.071 13.312H606.154q-12.509 0-20.677-8.168-8.169-8.168-8.169-20.678V-240q0-40.587-28.383-68.947-28.382-28.361-69-28.361-40.618 0-68.925 28.361-28.308 28.36-28.308 68.947v80.963q0 12.796-8.168 20.916-8.169 8.12-20.678 8.12H95.384q-18.759 0-32.071-13.312Q50-156.625 50-175.384Zm45.384 0h241.924V-240q0-59.923 41.885-101.307Q421.077-382.692 480-382.692q59.923 0 101.307 41.385Q622.692-299.923 622.692-240v64.616h241.924v-78.693l-80-79.92V-633.23l71.385-71.386H598.614l71.385 71.386v143.229H290.001V-633.23l71.385-71.386H103.999l71.385 71.386v299.233l-80 79.92v78.693ZM480-440Z"/></svg>