<svg xmlns="http://www.w3.org/2000/svg" width="48" height="48" viewBox="0 -960 960 960"><path d="M496.677-60.002q-132.194 0-224.435-91.752-92.241-91.753-92.241-223.785v-381.768q0-9.644 6.581-16.168 6.58-6.524 16.307-6.524 9.727 0 16.112 6.524 6.384 6.524 6.384 16.168v251.538h112.154v-321.537q0-9.644 6.58-16.168 6.581-6.524 16.308-6.524t16.111 6.524q6.385 6.524 6.385 16.168v321.537h113.154v-361.537q0-9.644 6.58-16.168 6.58-6.524 16.308-6.524 9.727 0 16.111 6.524 6.385 6.524 6.385 16.168v361.537h113.154v-281.537q0-9.644 6.58-16.168 6.58-6.524 16.307-6.524 9.728 0 16.112 6.524 6.385 6.524 6.385 16.168v258.691q-14.308 18.461-23.692 39.77-9.385 21.308-9.385 44.614v50h-59.23q-55.954 0-92.592 42.831-36.639 42.83-36.639 101.015v21.806q0 6.603 4.829 11.436 4.828 4.834 11.692 4.834t11.71-4.834q4.846-4.833 4.846-11.436v-21.806q0-44.06 26.855-77.415 26.855-33.355 69.299-33.355h63.46q12.26 0 20.553-8.293 8.294-8.293 8.294-20.553v-54.23q0-38 26.384-64.385Q752.768-535 790.768-535q8.769 5.692 19 11.653 10.231 5.962 10.231 17.941v128.252q-5.693 133.031-98.57 225.092-92.878 92.06-224.752 92.06Z"/></svg>