<svg xmlns="http://www.w3.org/2000/svg" width="48" height="48" viewBox="0 -960 960 960"><path d="M198.847-170.001q-12.26 0-20.553-8.293-8.293-8.293-8.293-20.553v-63.845h125.383v63.845q0 12.519-8.293 20.683-8.293 8.163-20.553 8.163h-67.691Zm-28.846-167.307v-125.384h125.383v125.384H170.001Zm0-200v-223.845q0-12.519 8.293-20.683 8.293-8.163 20.553-8.163h67.691q12.26 0 20.553 8.293 8.293 8.293 8.293 20.553v223.845H170.001Zm276.153 367.307q-12.259 0-20.553-8.293-8.293-8.293-8.293-20.553v-223.845h125.384v223.845q0 12.519-8.294 20.683-8.293 8.163-20.552 8.163h-67.692Zm-28.846-327.307v-125.384h125.384v125.384H417.308Zm0-200v-63.845q0-12.519 8.293-20.683 8.294-8.163 20.553-8.163h67.692q12.259 0 20.552 8.293 8.294 8.293 8.294 20.553v63.845H417.308Zm275.398 527.307q-11.6 0-19.845-8.245t-8.245-19.832v-17.306h125.383v17.489q0 11.664-8.245 19.779t-19.845 8.115h-69.203Zm-28.09-127.307v-125.384h125.383v125.384H664.616Zm0-200v-263.845q0-12.519 8.293-20.683 8.293-8.163 20.553-8.163h67.691q12.26 0 20.553 8.293 8.293 8.293 8.293 20.553v263.845H664.616Z"/></svg>