<svg xmlns="http://www.w3.org/2000/svg" width="48" height="48" viewBox="0 -960 960 960"><path d="m780-183-68 67q-6.69 6.08-15.81 6.58-9.11.5-16.19-6.58-7.08-7.08-6.58-16t6.58-15.62L747.39-216 680-283q-7.08-6.69-7.08-15.81 0-9.11 7.08-15.81 7.08-7.07 16-6.76 8.92.3 16 6.76l68 67 67-67q6.69-7.07 15.81-7.07 9.11 0 16 6.88 6.88 6.89 6.88 15.81 0 8.92-6.69 16l-67 67 67 68.38q5.69 6.31 6.19 15.43.5 9.11-6.19 16.19-7.08 7.08-16 7.08T847-116l-67-67Zm-300 83q-78.77 0-148.11-29.96-69.35-29.96-120.66-81.27-51.31-51.31-81.27-120.35Q100-400.62 100-478.38q0-79.16 29.96-148.62 29.96-69.46 81.27-121.27 51.31-51.81 120.66-81.77Q401.23-860 480-860q81.77 0 152.81 31.96t122.54 86.46q51.49 54.5 79.46 126.43 27.96 71.92 25.19 152.07 0 9.54-7.69 16.62-7.7 7.07-17.23 7.07-9.31 0-15.2-7.19-5.88-7.19-5.27-16.5 1.39-27.54-2.19-55.27-3.57-27.73-11.34-55.27H634.92q3.77 27.54 5.66 55.58 1.88 28.04.88 55.96 0 9.93-6.88 16.31-6.89 6.38-16.81 6.38-9.31 0-15.19-6.88-5.89-6.88-5.89-15.81 1-27.92-.69-55.96t-6.46-55.58H371.08q-3.39 23.77-5.27 47.43-1.89 23.65-1.89 47.81 0 23.15 1.89 46.3 1.88 23.16 5.27 46.31h165.84q9.93 0 16.31 6.39 6.38 6.38 6.38 16.3 0 9.93-6.38 16.31-6.38 6.38-16.31 6.38H379.77q14.77 54.54 36.5 106.31T480-144.62q17.46 0 34.5-1.61 17.04-1.62 34.5-5 8.92-2.23 17.04 2.04 8.11 4.27 10.73 13.19 2.23 8.92-2.04 17.11-4.27 8.2-13.19 10.43-20.69 4.23-40.77 6.34Q500.69-100 480-100ZM158.92-385.77h166.16q-3.77-23.15-5.16-46.31-1.38-23.15-1.38-46.3 0-24.16 1.38-47.81 1.39-23.66 4.54-47.43H158.92q-6.77 23.77-10.15 47.43-3.38 23.65-3.38 47.81 0 23.76 3.38 46.61 3.38 22.85 10.15 46ZM173.54-619h159.23q11.77-51.46 31.77-99.65 20-48.2 52-90.58-79.08 19-142.96 68.15Q209.69-691.92 173.54-619Zm242 467.62q-29.85-42.54-50.23-90.24-20.39-47.69-31.92-98.77H173.54q34.54 73.54 98.31 123.62t143.69 65.39ZM379.77-619h201.08q-13.39-55.15-37.93-105.92T480-816.61q-38.77 41.15-63.12 91.8-24.34 50.66-37.11 105.81Zm248.08 0h158.61q-36.15-72.92-99.73-122.58-63.58-49.65-142.27-67.04 30.46 42.54 50.27 90.74 19.81 48.19 33.12 98.88Z"/></svg>