<svg xmlns="http://www.w3.org/2000/svg" width="48" height="48" viewBox="0 -960 960 960"><path d="M349.54-349.54H202.693q-9.644 0-16.168-6.58-6.524-6.58-6.524-16.307 0-9.727 6.524-16.112 6.524-6.384 16.168-6.384H349.54v-170.154H202.693q-9.644 0-16.168-6.58-6.524-6.58-6.524-16.307 0-9.727 6.524-16.112 6.524-6.384 16.168-6.384H349.54v-146.847q0-9.644 6.58-16.168 6.58-6.524 16.307-6.524 9.727 0 16.112 6.524 6.384 6.524 6.384 16.168v146.847h170.154v-146.847q0-9.644 6.58-16.168 6.58-6.524 16.307-6.524 9.727 0 16.112 6.524 6.384 6.524 6.384 16.168v146.847h146.847q9.644 0 16.168 6.58 6.524 6.58 6.524 16.307 0 9.727-6.524 16.112-6.524 6.384-16.168 6.384H610.46v170.154h146.847q9.644 0 16.168 6.58 6.524 6.58 6.524 16.307 0 9.727-6.524 16.112-6.524 6.384-16.168 6.384H610.46v146.847q0 9.644-6.58 16.168-6.58 6.524-16.307 6.524-9.727 0-16.112-6.524-6.384-6.524-6.384-16.168V-349.54H394.923v146.847q0 9.644-6.58 16.168-6.58 6.524-16.307 6.524-9.727 0-16.112-6.524-6.384-6.524-6.384-16.168V-349.54Zm45.383-45.383h170.154v-170.154H394.923v170.154Z"/></svg>