<svg xmlns="http://www.w3.org/2000/svg" width="48" height="48" viewBox="0 -960 960 960"><path d="m839.997-214.618-45.383-45.384v-87.307h-87.308l-45.383-45.384h132.691V-574H619.383v138.383L574-481v-93h-93l-45.383-45.383H574v-175.231H392.077v131.691l-45.383-45.383v-86.308h-86.692l-45.384-45.383h567.687q23 0 40.346 17.346 17.346 17.346 17.346 40.346v567.687ZM619.383-619.383h175.231v-162.922q0-4.616-3.847-8.462-3.846-3.847-8.462-3.847H619.383v175.231Zm258.54 594.228-95.848-94.848h-604.38q-23 0-40.346-17.346-17.346-17.346-17.346-40.346v-604.996l-95.848-95.847q-6.076-6.221-6.269-15.572-.192-9.351 6.077-16.427 6.27-7.077 15.961-6.577 9.692.5 16.23 6.577L909.923-56.77q6.692 6.692 6.692 16.003 0 9.31-6.709 15.628-7.06 7.06-16.175 6.753-9.115-.308-15.807-6.77Zm-258.54-140.231h117.309L619.383-282.695v117.309ZM392.077-392.693h118.924L392.077-510.001v117.308Zm0 227.307H574v-163.308l-19.231-18.615H392.077v181.923ZM165.386-619.383H283.08L165.386-738.692v119.309Zm0 226.69h181.308v-162.692L328.463-574H165.386v181.307Zm181.308 227.307v-181.923H165.386v169.614q0 4.616 3.847 8.462 3.846 3.847 8.462 3.847h168.999Z"/></svg>