<svg xmlns="http://www.w3.org/2000/svg" width="48" height="48" viewBox="0 96 960 960"><path d="M185.385 543.307q-18.509 0-31.946-13.437-13.438-13.437-13.438-31.946V281.385q0-18.509 13.438-31.946 13.437-13.438 31.946-13.438h216.539q18.509 0 31.946 13.438 13.437 13.437 13.437 31.946v216.539q0 18.509-13.437 31.946-13.437 13.437-31.946 13.437H185.385Zm0 372.692q-18.509 0-31.946-13.438-13.438-13.437-13.438-31.946V654.076q0-18.509 13.438-31.946 13.437-13.437 31.946-13.437h216.539q18.509 0 31.946 13.437 13.437 13.437 13.437 31.946v216.539q0 18.509-13.437 31.946-13.437 13.438-31.946 13.438H185.385Zm372.691-372.692q-18.509 0-31.946-13.437-13.437-13.437-13.437-31.946V281.385q0-18.509 13.437-31.946 13.437-13.438 31.946-13.438h216.539q18.509 0 31.946 13.438 13.438 13.437 13.438 31.946v216.539q0 18.509-13.438 31.946-13.437 13.437-31.946 13.437H558.076Zm0 372.692q-18.509 0-31.946-13.438-13.437-13.437-13.437-31.946V654.076q0-18.509 13.437-31.946 13.437-13.437 31.946-13.437h216.539q18.509 0 31.946 13.437 13.438 13.437 13.438 31.946v216.539q0 18.509-13.438 31.946-13.437 13.438-31.946 13.438H558.076ZM185.385 497.924h216.539V281.385H185.385v216.539Zm372.691 0h216.539V281.385H558.076v216.539Zm0 372.691h216.539V654.076H558.076v216.539Zm-372.691 0h216.539V654.076H185.385v216.539Zm372.691-372.691Zm0 156.152Zm-156.152 0Zm0-156.152Z"/></svg>