<svg xmlns="http://www.w3.org/2000/svg" width="48" height="48" viewBox="0 -960 960 960"><path d="M480-60.002q-177.538 0-298.768-64.232-121.23-64.233-121.23-157.305 0-33.307 15.038-62.307t44.923-54.077q29.653-24.461 70.788-42.815 41.135-18.353 93.096-28.877 8.307-1.615 15.709 4.117 7.401 5.731 8.983 15.113 1.23 8.923-5.346 15.923-6.577 7-15.885 8.615-41.384 8.154-74.769 22Q179.154-390 154.77-371q-24.385 20-36.885 42.115-12.5 22.115-12.5 47.346 0 70.154 112.077 123.154t262.538 53q150.461 0 262.538-53t112.077-123.154q0-25.231-12.5-47.654-12.5-22.423-36.5-41.807-25.385-19-58.462-33.154-33.077-14.154-74.461-22.308-9.308-1.616-15.885-8.615-6.576-7-5.346-15.432 1-9.183 8.385-14.952 7.384-5.769 16.692-4.154 43.077 8.615 81.576 23.731 38.5 15.115 66.962 35.192 37.461 25.938 56.192 58.276 18.731 32.339 18.731 70.877 0 94.072-121.038 157.805Q657.922-60.002 480-60.002Zm-73.859-164.384q-9.91 0-16.294-6.394t-6.384-16.298v-424h-180.77q-9.288 0-15.99-6.398t-6.702-16.307q0-9.294 6.702-15.986t15.99-6.692h554.614q9.288 0 15.99 6.705 6.702 6.706 6.702 16 0 9.909-6.702 16.294-6.702 6.384-15.99 6.384h-180.77v424q0 9.904-6.397 16.298-6.398 6.394-16.308 6.394-9.294 0-15.986-6.394t-6.692-16.298v-180H428.846v180q0 9.904-6.706 16.298-6.705 6.394-15.999 6.394Zm73.869-550.537q-25.548 0-43.856-18.492-18.307-18.493-18.307-44.046 0-25.485 18.297-44.204 18.297-18.718 43.846-18.718 25.548 0 43.856 18.718 18.307 18.719 18.307 44.204 0 25.553-18.297 44.046-18.297 18.492-43.846 18.492Z"/></svg>