<svg xmlns="http://www.w3.org/2000/svg" width="48" height="48" viewBox="0 -960 960 960"><path d="M753.615-100.386q-6 0-10.808-2t-9.423-6.615L504.077-338.308q-4.615-4.616-6.808-9.423-2.192-4.808-2.192-10.423 0-6 2.192-10.808 2.193-4.808 6.808-9.423l75.769-75.769q4.615-4.615 9.423-6.807 4.807-2.193 10.807-2.193 5.616 0 10.423 2.193 4.808 2.192 9.808 6.807l229.307 229.307q4.615 4.616 6.615 9.423 2 4.808 2 10.808t-2 10.808q-2 4.807-6.615 9.423l-75.769 75.384q-4.615 4.615-9.423 6.615-4.807 2-10.807 2Zm-548.23 0q-6 0-11.115-2t-9.731-6.615l-75.153-74.769q-4.615-4.615-6.615-9.731-2-5.115-2-11.115t2-11q2-5 6.615-9.615l218.461-218.462h84.231L447.385-479 272.77-653.615h-57L101.925-767.461l88.999-88.999 113.845 113.845v57l174.616 174.616 128.461-128.462-75.847-75.846 50.615-50.615H480.769l-14.923-14.539 117.615-117.614 14.538 14.538v102.23l50.615-50.615 170.154 169.385q14.231 13.846 21.961 32.384 7.731 18.538 7.731 39 0 16.153-4.961 31.769-4.962 15.615-13.885 28.691l-83.461-83.461-56.385 56.385-49.692-49.692-196.383 196.383v84.385L225.616-109.001q-4.615 4.615-9.423 6.615t-10.808 2Z"/></svg>