<svg xmlns="http://www.w3.org/2000/svg" width="48" height="48" viewBox="0 -960 960 960"><path d="M197.694-175.54q-23.529 0-40.611-17.082-17.082-17.081-17.082-40.61v-285.153q0-70.501 26.77-132.908 26.769-62.406 73.076-109.133 46.308-46.726 108.858-73.457 62.55-26.731 133.115-26.731 70.564 0 132.41 26.769 61.846 26.769 107.397 73.37 45.552 46.6 71.962 109.094 26.41 62.495 26.41 132.996v388.383q0 23.529-17.082 40.61-17.082 17.082-40.611 17.082H504.307q-9.663 0-16.177-6.567-6.515-6.566-6.515-16.307t6.515-16.125q6.514-6.385 16.177-6.385h257.999q5.385 0 8.847-3.461 3.462-3.462 3.462-8.847v-45.538h-74.922q-23.894 0-40.793-17.048t-16.899-40.644v-150.229q0-23.596 16.899-40.644t40.793-17.048h74.922v-77.232q0-122.076-85.566-209.461-85.567-87.384-207.539-87.384-121.971 0-209.048 87.384-87.077 87.385-87.077 209.461v77.232h74.922q23.894 0 40.793 17.048t16.899 40.644v150.229q0 23.596-16.899 40.644t-40.793 17.048h-62.613Zm0-45.384h62.613q5.385 0 8.847-3.654 3.462-3.654 3.462-8.654v-150.229q0-5.385-3.462-8.847-3.462-3.462-8.847-3.462h-74.922v162.538q0 5 3.462 8.654t8.847 3.654Zm501.999 0h74.922V-395.77h-74.922q-5.385 0-8.847 3.462-3.462 3.462-3.462 8.847v150.229q0 5 3.462 8.654t8.847 3.654ZM197.694-395.77h-12.309 87.231-74.922Zm501.999 0h-12.309 87.231-74.922Z"/></svg>