<svg xmlns="http://www.w3.org/2000/svg" width="48" height="48" viewBox="0 96 960 960"><path d="M809.384 824.152 634.386 649.539q6.154-15.846 20.5-27.192t34.192-11.346H764v-77.232q0-121.692-85.654-209.269Q592.693 236.924 471 236.924q-49.076 0-97.038 17.038-47.961 17.038-86.423 48.731l-32.845-33.615q39.23-33 95.192-55.269Q405.847 191.54 471 191.54q70.769 0 132.615 26.961 61.846 26.962 107.346 73.577 45.5 46.615 71.961 108.769Q809.384 463 809.384 533.769v290.383ZM493.692 979.844q-9.923 0-16.307-6.385Q471 967.075 471 957.152q0-9.538 6.385-16.115 6.384-6.577 16.307-6.577h256.923q2.308 0 4.616-.769t4.231-2.692l-54.769-54.385h-15.615q-24.231 0-40.962-16.731-16.73-16.731-16.73-40.961v-16l-416.385-416q-18.538 29.154-29.385 68.847-10.846 39.692-10.846 78v77.232h74.922q24.231 0 40.962 16.923 16.73 16.923 16.73 40.769v150.229q0 24.23-16.73 40.961-16.731 16.731-40.962 16.731h-62.613q-23.616 0-40.654-17.038-17.039-17.039-17.039-40.654V533.769q0-51.846 14.077-98.576 14.077-46.731 37.077-82.731L55 226.922q-6.691-6.692-6.576-15.807.115-9.115 7.192-16.192 6.692-7.077 16.115-7.077 9.423 0 16.5 7.077l775.615 775.616q6.693 6.692 6.693 15.807t-6.693 15.804q-7.076 7.08-16.499 6.89-9.423-.19-16.884-7.27l-38.464-38.234q-7.384 7.539-18.346 11.923-10.962 4.385-21.962 4.385H493.692Z"/></svg>