<svg xmlns="http://www.w3.org/2000/svg" width="48" height="48" viewBox="0 -960 960 960"><path d="M197.694-140.001q-23.5 0-40.596-17.097-17.097-17.096-17.097-40.596V-480q0-70.799 26.77-132.63 26.769-61.831 72.768-107.831 46-45.999 107.824-72.768 61.824-26.77 132.615-26.77 70.791 0 132.637 26.77 61.846 26.769 107.846 72.768 45.999 46 72.768 107.831 26.77 61.831 26.77 132.63v282.306q0 23.5-17.097 40.596-17.096 17.097-40.596 17.097h-62.613q-23.885 0-40.788-17.097-16.904-17.096-16.904-40.596v-150.228q0-23.5 16.904-40.596 16.903-17.097 40.788-17.097h74.922V-480q0-123.049-85.783-208.832Q603.049-774.615 480-774.615q-123.049 0-208.832 85.783Q185.385-603.049 185.385-480v74.385h74.922q23.885 0 40.788 17.097 16.904 17.096 16.904 40.596v150.228q0 23.5-16.904 40.596-16.903 17.097-40.788 17.097h-62.613Z"/></svg>