<svg xmlns="http://www.w3.org/2000/svg" width="48" height="48" viewBox="0 0 48 48"><path d="M17.9 42.85q-1.2 0-2.05-.85-.85-.85-.85-2.05V33H8.05q-1.2 0-2.05-.85-.85-.85-.85-2.05v-4.95H17.4l3.65 5.45q.15.25.375.4.225.15.525.15.4 0 .7-.225.3-.225.4-.575l3.3-9.85 2.7 4.1q.2.25.425.4.225.15.525.15h12.85v4.95q0 1.2-.85 2.05-.85.85-2.05.85H33v6.95q0 1.2-.85 2.05-.85.85-2.05.85Zm3.75-15.35-2.7-4.15q-.15-.2-.4-.35-.25-.15-.55-.15H5.15V17.9q0-1.2.85-2.05.85-.85 2.05-.85H15V8.05q0-1.2.85-2.05.85-.85 2.05-.85h12.2q1.2 0 2.05.85.85.85.85 2.05V15h6.95q1.2 0 2.05.85.85.85.85 2.05v4.95H30.6l-3.65-5.45q-.2-.25-.425-.4-.225-.15-.525-.15-.35 0-.65.225-.3.225-.45.575Z"/></svg>