<svg xmlns="http://www.w3.org/2000/svg" width="48" height="48" viewBox="0 96 960 960"><path d="M480.235 691.384q14.842 0 24.996-10.32 10.153-10.321 10.153-25.064v-64.616H580q14.743 0 25.064-10.389 10.32-10.389 10.32-25.23 0-14.842-10.32-24.996-10.321-10.153-25.064-10.153h-64.616V456q0-14.743-10.389-25.064-10.389-10.32-25.23-10.32-14.842 0-24.996 10.32-10.153 10.321-10.153 25.064v64.616H380q-14.743 0-25.064 10.389-10.32 10.389-10.32 25.23 0 14.842 10.32 24.996 10.321 10.153 25.064 10.153h64.616V656q0 14.743 10.389 25.064 10.389 10.32 25.23 10.32ZM480 952.229q-3.667 0-7.361-.5t-6.232-1.518q-124.791-39.982-205.598-156.839-80.808-116.858-80.808-258.256V349.693q0-18.607 10.446-33.492 10.446-14.886 27.016-21.585l242.306-90.076q10.616-4 20.231-4 9.615 0 20.231 4l242.306 90.076q16.57 6.699 27.016 21.585 10.446 14.885 10.446 33.492v185.423q0 141.398-80.808 258.256-80.807 116.857-205.132 156.875-1.213.367-14.059 1.982Zm0-44.999Q591.923 870.769 663.269 767q71.346-103.769 71.346-232.077V347.001q0-3.077-1.539-5.385-1.538-2.308-4.231-3.077L485.77 247.462q-3.077-1.154-5.77-1.154-2.693 0-5.77 1.154l-243.075 91.077q-2.693.769-4.231 3.077-1.539 2.308-1.539 5.385v187.922q0 128.308 71.346 232.077T480 907.23Zm0-330.461Z"/></svg>