<svg xmlns="http://www.w3.org/2000/svg" width="48" height="48" viewBox="0 -960 960 960"><path d="M579.955-237.308q17.968 0 30.352-12.647 12.385-12.647 12.385-30 0-17.968-12.339-30.352-12.34-12.385-30.308-12.385-17.352 0-30.045 12.339-12.692 12.34-12.692 30.308 0 17.352 12.647 30.045 12.647 12.692 30 12.692Zm-217.57-25.077q6.692 6.692 15.871 6.692 9.18 0 15.744-6.692l204-204q6.692-6.564 6.692-15.743T598-498q-6.693-6.692-15.872-6.692T566.385-498L362-293.615q-6.692 6.692-6.499 15.615.192 8.923 6.884 15.615Zm17.57-174.923q17.968 0 30.352-12.647 12.385-12.647 12.385-30 0-17.968-12.339-30.352-12.34-12.385-30.308-12.385-17.352 0-30.045 12.339-12.692 12.34-12.692 30.308 0 17.352 12.647 30.045 12.647 12.692 30 12.692ZM237.694-100.001q-23.616 0-40.654-17.039-17.039-17.038-17.039-40.654v-644.612q0-23.616 17.039-40.654 17.038-17.039 40.654-17.039h347.537l194.768 194.768v507.537q0 23.616-17.039 40.654-17.038 17.039-40.654 17.039H237.694ZM734.615-644.77 562.539-814.615v123.692q0 19.23 13.462 32.692 13.461 13.461 32.691 13.461h125.923Z"/></svg>