<svg xmlns="http://www.w3.org/2000/svg" width="48" height="48" viewBox="0 -960 960 960"><path d="M687.077-90.616q-54.308 0-93.615-30.615-39.308-30.616-58.923-82-18.461-47.539-38.923-75.846-20.462-28.308-74.077-71.308-64.461-51.461-93.654-110.884-29.192-59.424-29.192-141.577 0-115.769 74.269-190.346T563-867.769q105.154 0 177.961 61.885Q813.769-744 827.999-645.461q1.616 9.538-4.961 16.615-6.577 7.076-17.115 7.076-8.308 0-14.807-5.884-6.5-5.885-8.116-14.807-13.23-80.078-73.538-130.001Q649.154-822.385 563-822.385q-92.693 0-155.808 63.423-63.116 63.423-63.116 156.116 0 72.385 30.116 127.192 30.115 54.808 91.654 101.5Q506-344 529.307-311.346q23.308 32.654 44.308 82.269 17.769 43.154 45.654 68.116Q647.154-136 687.077-136q31.692 0 56.923-18.846t35.616-48.769q2.23-6.308 8.115-10.462 5.884-4.153 11.961-4.153 13.154 0 20.538 9.307 7.385 9.308 3.539 20.615-14.616 42.923-51.5 70.307-36.885 27.385-85.192 27.385Zm-456.846-239q-47.23-58.077-73.038-128.653-25.808-70.577-25.808-147.423t24.5-148.115q24.5-71.269 72.962-128.346 6.077-6.308 15.307-6.615 9.231-.308 16.923 5.384 6.692 6.077 7.192 15t-5.577 16.23q-42.385 51.769-64.154 114.846-21.769 63.077-21.769 131.616 0 67.154 21.769 129.731T262.692-361q6.077 7.308 5.269 17.038-.807 9.731-7.884 15.808-6.308 5.692-15.231 5.576-8.922-.115-14.615-7.038Zm332.769-186q-36.692 0-61.961-25.269t-25.269-61.961q0-36.692 25.269-62.769 25.269-26.077 61.961-26.077t62.577 26.077q25.884 26.077 25.884 62.769 0 36.692-25.884 61.961-25.885 25.269-62.577 25.269Z"/></svg>