<svg xmlns="http://www.w3.org/2000/svg" width="48" height="48" viewBox="0 -960 960 960"><path d="m860.23-667.54-49.08 47.31q-6.69 6.69-7.19 16.31-.5 9.61 6.19 16.31 6.7 7.07 16 6.88 9.31-.19 16-6.88L925.54-670q8.61-8.61 8.61-20.23 0-11.61-8.61-20.23l-82.77-82.77q-6.76-6.69-16.34-6.88-9.58-.2-16.67 6.72-6.3 6.54-6.3 15.81t6.69 15.97l48.7 48.69h-95q-43.14 0-72.92 29.97-29.78 29.96-29.78 72.72v260.46q0 24.69-17.04 42.12-17.05 17.42-41.81 17.42t-42.19-17.42q-17.42-17.43-17.42-42.12V-568q0-43.62-30.43-74.27-30.42-30.65-73.92-30.65-43.49 0-73.99 30.65-30.5 30.65-30.5 74.27v218.23q0 24.69-17.05 42.12-17.04 17.42-41.81 17.42-24.76 0-42.18-17.42-17.43-17.43-17.43-42.12v-300.46q0-9.67-6.56-16.18t-16.3-6.51q-9.75 0-16.13 6.51-6.39 6.51-6.39 16.18v300.46q0 43.62 30.63 74.27 30.64 30.65 74.23 30.65 43.6 0 73.99-30.65 30.38-30.65 30.38-74.27V-568q0-24.69 17.42-42.11 17.43-17.43 42-17.43t41.61 17.43q17.05 17.42 17.05 42.11v218.23q0 43.62 30.63 74.27t74.23 30.65q43.6 0 73.98-30.65 30.39-30.65 30.39-74.27v-260.46q0-24.33 16.49-40.82 16.49-16.49 40.82-16.49h96.38ZM117.69-116q-23.59 0-40.64-17.05T60-173.69v-279.23q0-11.98 8.24-20.42 8.24-8.43 20.61-8.43h782.3q12.37 0 20.61 8.43 8.24 8.44 8.24 20.42v279.23q0 23.59-17.05 40.64T842.31-116H117.69Z"/></svg>