<svg xmlns="http://www.w3.org/2000/svg" width="48" height="48" viewBox="0 -960 960 960"><path d="M457.308-227.692v-505.386l-75.462 74.463q-6.596 6.692-15.759 6.692t-15.922-6.692q-6.626-6.564-6.626-15.744 0-9.179 6.692-15.871l109.426-109.426q4.728-4.727 9.676-6.92 4.949-2.192 11-2.192 6.052 0 10.859 2.192 4.808 2.193 9.535 6.92L610.153-690.23q6.692 6.692 6.885 15.615.192 8.923-6.801 16-7.161 7.076-16.391 7.076-9.231 0-16.307-7.076l-74.847-74.463v505.386l75.462-74.077q6.596-5.692 15.759-6.192t15.922 6.192q6.626 6.564 6.626 15.743t-6.692 15.871L500.343-160.729q-4.728 4.728-9.587 6.728t-10.807 2q-5.949 0-10.987-2.018-5.039-2.017-9.577-6.598L349.847-270.155q-6.564-6.596-6.628-15.759-.064-9.163 6.628-15.922 6.564-6.625 15.743-6.318 9.179.308 15.871 6.385l75.847 74.077Z"/></svg>