<svg xmlns="http://www.w3.org/2000/svg" width="48" height="48" viewBox="0 -960 960 960"><path d="M819.999-253.386 253.386-819.999h508.92q23.616 0 40.654 17.039 17.039 17.038 17.039 40.654v508.92ZM197.694-140.001q-23.616 0-40.654-17.039-17.039-17.038-17.039-40.654v-548.152l-53.539-53.54q-6.692-6.692-6.884-16.115-.193-9.423 6.884-16.499 7.077-7.077 16.307-7.077 9.231 0 16.308 7.077l713.539 713.539q6.692 6.692 6.884 15.807.193 9.115-6.884 16.192-6.692 7.077-16.115 7.077-9.423 0-16.5-7.077l-54.155-53.539H197.694ZM599.078-287.77l-93.462-93.462-59.231 75.001-70.615-92.537q-4.615-5.616-11.423-5.616t-11.423 6l-67.537 87.383q-5.616 7.616-1.808 15.423 3.808 7.808 12.423 7.808h303.076Z"/></svg>