<svg xmlns="http://www.w3.org/2000/svg" width="48" height="48" viewBox="0 0 48 48"><path d="M13.55 41v-2.25h4.1V41Zm8.4 0v-2.25h4.15V41Zm8.4 0v-2.25h4.1V41Zm8.4-6.35v-4.1H41v4.1Zm0-8.6V21.9H41v4.15Zm0-8.6v-4.1H41v4.1Zm-28.85 17q-1.2 0-2.05-.85Q7 32.75 7 31.55V9.9q0-1.2.85-2.05Q8.7 7 9.9 7h21.65q1.2 0 2.05.85.85.85.85 2.05v21.65q0 1.2-.85 2.05-.85.85-2.05.85Zm28.85-25.2V7q.9 0 1.575.675Q41 8.35 41 9.25Zm0 31.75v-2.25H41q0 .9-.675 1.575Q39.65 41 38.75 41Zm-29.5 0q-.9 0-1.575-.675Q7 39.65 7 38.75h2.25Z"/></svg>