<svg xmlns="http://www.w3.org/2000/svg" width="48" height="48" viewBox="0 -960 960 960"><path d="M525-756.308q-28.616 0-48.692-20.269-20.077-20.269-20.077-48.5 0-28.615 20.077-48.692 20.076-20.077 48.692-20.077 28.615 0 48.692 20.077t20.077 48.692q0 28.231-20.077 48.5T525-756.308ZM315.596-50.001q-12.128 0-19.324-8.307-7.195-8.308-4.964-20.461l113.615-583.539q4.231-20.923 20.266-32.576 16.036-11.654 33.811-11.654 18.139 0 33.986 8.231 15.847 8.23 25.859 23.307l39 64q19.77 32.769 56.731 59.5 36.962 26.731 87.732 42.27V-570q0-6.872 4.828-11.705t11.692-4.833q6.864 0 11.71 4.833 4.846 4.833 4.846 11.705v503.461q0 6.872-4.828 11.705t-11.692 4.833q-6.864 0-11.71-4.833-4.846-4.833-4.846-11.705v-397.077q-52.539-11.385-100.424-41.5-47.884-30.116-87.115-76.885l-32.462 163.847L549.461-354q8.615 7.615 13.423 18.672 4.807 11.057 4.807 23.789v238.846q0 9.904-6.398 16.298Q554.896-50 544.986-50q-9.909 0-16.294-6.394-6.384-6.394-6.384-16.297V-284.77q0-3.077-1.346-5.77-1.347-2.692-3.655-4.231l-108.462-93.461-69.769 319.615q-1.738 7.77-8.446 13.192Q323.922-50 315.596-50Zm-20.827-402.615 46.923-239.768L313-698.615q-25.538-5-47.23 9.538-21.692 14.539-26.308 40.077l-30 157q-1.615 8.307 4.154 16.615 5.769 8.307 13.846 9.923l67.307 12.846Z"/></svg>