<svg xmlns="http://www.w3.org/2000/svg" width="48" height="48" viewBox="0 -960 960 960"><path d="M480-100q-139.61 0-244.5-87.31Q130.62-274.62 107.08-409q-1.62-9.31 3.54-16.81 5.15-7.5 15.07-8.73 9.31-1.61 16.85 4.2 7.53 5.82 9.31 15.65 23.3 117.77 115.23 193.54Q359-145.39 480-145.39q139.74 0 237.18-97.42 97.43-97.42 97.43-237.15 0-139.73-97.43-237.19-97.44-97.46-237.18-97.46-97.53 0-180.04 52.53-82.5 52.54-122.58 140.62h103.54q9.9 0 16.3 6.4 6.4 6.41 6.4 16.31 0 9.9-6.4 16.29-6.4 6.38-16.3 6.38H154.59q-16.13 0-25.09-12.8-8.96-12.81-3.58-28.04 41.64-109.77 138.35-176.43Q360.98-860 479.82-860q78.89 0 148.28 29.92t120.72 81.21q51.33 51.29 81.25 120.63Q860-558.9 860-480.07q0 78.84-29.93 148.21-29.92 69.37-81.22 120.68T628.2-129.93Q558.85-100 480-100Zm22.69-389.27 104.46 104.81q6.7 6.56 6.7 15.74t-6.7 16.07q-6.69 6.88-16 6.69-9.3-.19-16-6.89L466-462.01q-4.69-4.68-6.69-9.56-2-4.87-2-10.74v-155.92q0-9.89 6.4-16.29 6.41-6.4 16.31-6.4 9.9 0 16.29 6.4 6.38 6.4 6.38 16.29v148.96Z"/></svg>