<svg xmlns="http://www.w3.org/2000/svg" width="48" height="48" viewBox="0 -960 960 960"><path d="M381.154-140.001q-66.728 0-107.248-50.846-40.52-50.846-31.289-117.461l54.384-401.768q1.744-7.712 5.68-13.471 3.935-5.76 11.577-8.896l302.664-122.632q13.615-5 25.731 1.807 12.115 6.808 13.731 21.039l61.615 528.305q7.23 64.615-33.346 114.269-40.577 49.654-105.807 49.654H381.154Zm0-45.384h197.692q44.384 0 71.884-33.477t22.5-77.6l-14.17-121.154H302.616L286-297.847q-6 44.655 21.693 78.559 27.692 33.903 73.461 33.903Zm-41.615-508.307L308.308-463h345.23l-39.461-342.461-274.538 111.769Zm139.692 276.076ZM481.615-463ZM481-417.616V-463v45.384Z"/></svg>