<svg xmlns="http://www.w3.org/2000/svg" width="48" height="48" viewBox="0 -960 960 960"><path d="M240-700h480q9.92 0 16.31 6.39 6.38 6.38 6.38 16.3 0 9.31-6.38 16-6.39 6.7-16.31 6.7H240q-9.31 0-16-6.7-6.69-6.69-6.69-16 0-9.92 6.69-16.3 6.69-6.39 16-6.39Zm80-107.69h320q9.92 0 16.31 6.38 6.38 6.39 6.38 16.31 0 9.31-6.38 16-6.39 6.69-16.31 6.69H320q-9.31 0-16-6.69-6.69-6.69-6.69-16 0-9.92 6.69-16.31 6.69-6.38 16-6.38ZM199.15-546.92l14.12 89.19q14.12 89.19 41.35 260.04l-55.47-349.23Zm277.31 394.61H240.77q-10.61 0-18.23-6.81-7.62-6.81-9.23-17.42l-64.23-382.31q-2-13.23 6.11-23.34 8.12-10.12 21.73-10.12h608.85q12.46 0 20 9.16 7.54 9.15 5.54 21.61l-2.47 14.62H199.15l55.47 349.23h203q3.84 12.77 8.3 23.8 4.46 11.04 10.54 21.58Zm216.85 15.38q-22.16-5.61-41.93-16.61-19.76-11-35.38-27.54l-15.46 7.62q-8.31 3.84-16.62 1.5-8.3-2.35-13.77-10.04l-2.46-3.69q-5.46-8.31-4.23-17.12 1.23-8.81 9.31-14.88l12.69-10.46q-7.15-21.93-7.15-45.16 0-23.23 7.15-45.15l-12.69-10.08q-7.69-6.08-9.31-15.38-1.61-9.31 3.85-17.62l2.84-3.69q5.47-8.31 14.08-10.35 8.62-2.04 16.92 1.81l14.85 7.62q15.85-15.93 35.5-26.93t41.81-16.23l1.23-18.54q1.23-8.69 7.81-14.96 6.57-6.27 14.88-6.27h4.31q8.31 0 14.38 5.77 6.08 5.77 7.69 14.46l1.85 19.54q22.15 5.23 41.81 16.23 19.65 11 35.5 26.93l14.46-7.62q8.31-3.85 17.11-1.81 8.81 2.04 14.27 10.35l2.46 3.69q5.47 8.31 4.24 17.42-1.24 9.12-9.31 15.58l-13.08 10.08q7.16 21.92 7.16 45.15 0 23.23-7.16 45.16L866-217.69q7.69 5.69 9.31 14.69 1.61 9-3.85 17.31l-3.23 4.3q-5.46 7.7-13.77 9.73-8.31 2.04-16.23-1.8l-15.46-7.62q-15.62 16.54-35.39 27.54-19.77 11-41.92 16.61l-1.85 18.54q-1.61 8.31-7.69 14.27-6.07 5.96-14.38 5.96h-4.31q-8.31 0-14.88-6.27-6.58-6.26-7.81-14.57l-1.23-17.93Zm95.65-66.42Q818-232.39 818-273.62t-29.04-70.27q-29.04-29.03-70.08-29.03-41.03 0-70.07 29.03-29.04 29.04-29.04 70.27t29.04 70.27q29.04 29.04 70.07 29.04 41.04 0 70.08-29.04Z"/></svg>