<svg xmlns="http://www.w3.org/2000/svg" width="48" height="48" viewBox="0 -960 960 960"><path d="M100.001-237.694v-324.612q0-23.5 17.097-40.596 17.096-17.097 40.596-17.097h132.307v-90.768q0-23.5 17.096-40.596 17.096-17.096 40.596-17.096h264.614q23.5 0 40.596 17.096 17.096 17.096 17.096 40.596v90.768h132.307q23.5 0 40.596 17.097 17.097 17.096 17.097 40.596v324.612q0 23.5-17.097 40.596-17.096 17.097-40.596 17.097H157.694q-23.5 0-40.596-17.097-17.097-17.096-17.097-40.596Zm57.693 12.309h644.612q5.385 0 8.847-3.462 3.462-3.462 3.462-8.847v-139.614H702.692V-360q0 9.644-6.58 16.168-6.581 6.524-16.308 6.524t-16.111-6.524q-6.385-6.524-6.385-16.168v-17.308H302.692V-360q0 9.644-6.58 16.168-6.581 6.524-16.308 6.524t-16.111-6.524q-6.385-6.524-6.385-16.168v-17.308H145.385v139.614q0 5.385 3.462 8.847 3.462 3.462 8.847 3.462Zm-12.309-336.921v139.614h111.923V-440q0-9.644 6.58-16.168 6.581-6.524 16.308-6.524t16.111 6.524q6.385 6.524 6.385 16.168v17.308h354.616V-440q0-9.644 6.58-16.168 6.581-6.524 16.308-6.524t16.111 6.524q6.385 6.524 6.385 16.168v17.308h111.923v-139.614q0-5.385-3.462-8.847-3.462-3.462-8.847-3.462H157.694q-5.385 0-8.847 3.462-3.462 3.462-3.462 8.847Zm189.999-57.693h289.232v-90.768q0-5.385-3.462-8.847-3.462-3.462-8.847-3.462H347.693q-5.385 0-8.847 3.462-3.462 3.462-3.462 8.847v90.768Z"/></svg>