<svg xmlns="http://www.w3.org/2000/svg" width="48" height="48" viewBox="0 -960 960 960"><path d="M602.58-567.04q50.19-50.82 50.19-123.11v-124.46H307.23v124.46q0 72.38 50.19 123.15 50.2 50.77 122.58 50.77t122.58-50.81ZM202.69-100q-9.9 0-16.29-6.4-6.4-6.4-6.4-16.31 0-9.91 6.4-16.29 6.39-6.39 16.29-6.39h59.16v-125.07q0-75.23 45.38-133.81 45.39-58.58 117.54-75.73-72.15-18.15-117.54-76.92-45.38-58.77-45.38-133.23v-124.46h-59.16q-9.9 0-16.29-6.4-6.4-6.4-6.4-16.31 0-9.91 6.4-16.29 6.39-6.39 16.29-6.39h554.62q9.9 0 16.29 6.4 6.4 6.4 6.4 16.31 0 9.91-6.4 16.29-6.39 6.39-16.29 6.39h-59.16v124.46q0 74.46-45.38 133.23-45.39 58.77-117.54 76.92 72.15 17.15 117.54 75.73 45.38 58.58 45.38 133.81v125.07h59.16q9.9 0 16.29 6.4 6.4 6.4 6.4 16.31 0 9.91-6.4 16.29-6.39 6.39-16.29 6.39H202.69Z"/></svg>