<svg xmlns="http://www.w3.org/2000/svg" width="48" height="48" viewBox="0 -960 960 960"><path d="M112.693-90q-9.644 0-16.168-6.58Q90-103.162 90-112.889T96.525-129q6.524-6.384 16.168-6.384h137.308v-121.924h-62.308q-23.5 0-40.596-17.096Q130.001-291.5 130.001-315v-457.307q0-23.5 17.096-40.596 17.096-17.096 40.596-17.096h224.614q23.5 0 40.596 17.096 17.096 17.096 17.096 40.596V-660q0 32.763 16 59.459 16.001 26.695 48.078 35.465l112.307 29q45.633 11.366 74.624 49.497 28.991 38.131 28.991 86.579v85q0 23.5-17.096 40.596-17.096 17.096-40.596 17.096h-62.308v121.924h96.992q51.44 0 88.225-28.616Q852-192.615 862-241.231q2.231-9.307 9.096-15.384 6.864-6.077 16.121-6.077 10.047 0 15.915 7 5.867 7 4.637 15.923-11.231 65.615-61.846 107.692-50.616 42.076-118.616 42.076H112.693Zm210.23-529.945q0-5.516 4.269-9.901 4.27-4.385 9.962-4.385h89.462q-2-12.23-2-24.5v-27.423h-87.462q-5.692 0-9.962-4.137-4.269-4.138-4.269-9.654t4.269-9.901q4.27-4.385 9.962-4.385h87.462v-58.076q0-5.385-3.462-8.847-3.462-3.462-8.847-3.462H187.693q-5.385 0-8.847 3.462-3.462 3.462-3.462 8.847V-315q0 5.385 3.462 8.846 3.462 3.462 8.847 3.462h504.614q5.385 0 8.847-3.462 3.462-3.461 3.462-8.846v-85.284q0-33.075-19.847-58.165-19.846-25.09-51.201-33.859l-112.645-30q-35.307-10.231-55-31.808-19.692-21.577-30.307-52.038h-98.462q-5.692 0-9.962-4.137-4.269-4.138-4.269-9.654Zm-27.539 484.561h289.232v-121.924H295.384v121.924Zm-120-167.308Z"/></svg>