<svg xmlns="http://www.w3.org/2000/svg" width="48" height="48" viewBox="0 0 48 48"><path d="M7.9 39q-1.2 0-2.05-.85Q5 37.3 5 36.1V11.9q0-1.2.85-2.05Q6.7 9 7.9 9H9v3.25l-5.65-5.7Q3 6.25 3 5.775q0-.475.35-.825t.825-.35q.475 0 .825.35L42.9 42.9q.35.35.375.825.025.475-.375.775-.3.4-.775.4-.475 0-.825-.4L35.75 39Zm0-2.25h25.55L12.15 15.4h-4.9v20.7q0 .3.175.475t.475.175Zm34.5 1.05-1.65-1.7V15.4h-20.7L13.65 9H40.1q1.2 0 2.05.85.85.85.85 2.05v24.2q0 .45-.15.875t-.45.825Zm-6.7-6.75-2.4-2.4V22.7h-5.95l-2.4-2.4h9.3q.6 0 1.025.425.425.425.425 1.025Z"/></svg>