<svg xmlns="http://www.w3.org/2000/svg" width="48" height="48" viewBox="0 96 960 960"><path d="M296.771 768.23h370.535q9.615 0 13.615-8.192 4-8.193-2-15.808L578.845 611.309q-4.615-6-11.615-6t-11.615 6l-109.23 138.46-70.23-92.153q-5.148-6-12.074-5.807-6.926.192-11.542 6.192l-66.768 86.229q-5 8-1.5 16t12.5 8Zm-99.077 147.769q-23.529 0-40.611-17.082-17.082-17.082-17.082-40.611V293.694q0-23.529 17.082-40.611 17.082-17.082 40.611-17.082h564.612q23.529 0 40.611 17.082 17.082 17.082 17.082 40.611v564.612q0 23.529-17.082 40.611-17.082 17.082-40.611 17.082H197.694Zm0-45.384h564.612q4.616 0 8.463-3.846 3.846-3.847 3.846-8.463V293.694q0-4.616-3.846-8.463-3.847-3.846-8.463-3.846H197.694q-4.616 0-8.463 3.846-3.846 3.847-3.846 8.463v564.612q0 4.616 3.846 8.463 3.847 3.846 8.463 3.846Zm-12.309-589.23v589.23-589.23Z"/></svg>