<svg xmlns="http://www.w3.org/2000/svg" width="48" height="48" viewBox="0 -960 960 960"><path d="M732.54-798.77 825.31-706q16.61 16.62 16.3 43-.3 26.38-16.92 43L646.61-441.92q-8.23 8.23-19.96 8.23t-20.34-8.23L470.08-578.54q-8.23-8.23-8.23-19.96t8.23-19.96l180.3-180.31q16.62-16.61 41.08-16.61 24.46 0 41.08 16.61Zm92.77 699.31q-7.08 6.69-16 6.69-8.93 0-15.62-6.69L548.92-344.23 376.69-172.39q-17.84 18.23-47.88 18.23-30.04 0-47.89-18.23l-12.15-11.77L238-153.39q-7.62 8-18.92 13-11.31 5-22.93 5h-63.61q-9.61 0-12.73-9.3-3.12-9.31 3.5-15.93l84-84.38-5.92-5.92q-20.08-20.08-19.77-49.93.3-29.84 20.77-50.3l170-169.62L99.85-793.69q-6.69-6.31-6.89-15.42-.19-9.12 6.89-16.2 6.69-7.07 15.61-7.07 8.93 0 16 7.07l693.85 693.85q6.69 6.69 6.88 15.8.19 9.12-6.88 16.2Z"/></svg>