<svg xmlns="http://www.w3.org/2000/svg" width="48" height="48" viewBox="0 -960 960 960"><path d="M341.462-270.462 152.77-459.154q-4.615-4.615-6.615-9.923t-2-10.308q0-5.615 2-10.615t6.615-9.615l188.692-188.307q6.692-7.077 16.422-7.385 9.731-.308 16.808 6.385 7.077 7.076 7.077 16.499 0 9.423-7.077 16.5L219.845-501.076h562.848v-146.231q0-9.923 6.384-16.308 6.384-6.384 16.307-6.384 9.923 0 16.308 6.384 6.384 6.385 6.384 16.308v162.537q0 12.231-7.923 20.154t-20.154 7.923H220.845l153.847 154.232q7.077 7.076 7.077 15.999 0 8.923-7.077 16t-16.615 7.077q-9.538 0-16.615-7.077Z"/></svg>