<svg xmlns="http://www.w3.org/2000/svg" width="48" height="48" viewBox="0 -960 960 960"><path d="M272.69-250q-9.92 0-16.3-6.39-6.39-6.38-6.39-16.3 0-9.93 6.39-16.31 6.38-6.38 16.3-6.38h414.62q9.92 0 16.3 6.38 6.39 6.38 6.39 16.31 0 9.92-6.39 16.3-6.38 6.39-16.3 6.39H272.69ZM480-656.92 309.15-486.08q-6.69 7.08-15.8 6.77-9.12-.31-16.2-7.38-7.07-7.08-7.07-16.31 0-9.23 7.07-16.31l182.62-182.61q8.61-8.62 20.23-8.62 11.62 0 20.23 8.62l186.46 186.46q6.69 6.69 6.69 15.81 0 9.11-6.88 16-6.89 6.88-16.31 6.88-9.42 0-16.11-7.08L480-656.92Z"/></svg>