<svg xmlns="http://www.w3.org/2000/svg" width="48" height="48" viewBox="0 96 960 960"><path d="M117.694 915.999q-23.53 0-40.61-17.082Q60 881.835 60 858.306V333.694q0-23.529 17.082-40.611 17.082-17.082 40.611-17.082h724.612q23.529 0 40.611 17.082 17.082 17.082 17.082 40.611v524.612q0 23.529-17.082 40.611-17.082 17.082-40.611 17.082H117.694Zm241.23-434.768h75.845v-74.615h-75.845v74.615Zm-167.308 0h75.845v-74.615h-75.845v74.615Zm142.692 305.461h291.384q11.538 0 19.077-7.539 7.538-7.538 7.538-18.884t-7.538-18.884q-7.539-7.539-19.077-7.539H334.308q-11.538 0-19.077 7.539-7.538 7.538-7.538 18.884t7.538 18.884q7.539 7.539 19.077 7.539Zm190.923-305.461h75.845v-74.615h-75.845v74.615ZM358.924 646.307h75.845v-75.229h-75.845v75.229Zm-167.308 0h75.845v-75.229h-75.845v75.229Zm333.615 0h75.845v-75.229h-75.845v75.229Zm167.308-165.076h75.845v-74.615h-75.845v74.615Zm0 165.076h75.845v-75.229h-75.845v75.229Z"/></svg>