<svg xmlns="http://www.w3.org/2000/svg" width="48" height="48" viewBox="0 0 48 48"><path d="M16.9 15.65q-.45 0-.775-.325T15.8 14.5v-3.25q0-.5.325-.825.325-.325.825-.325.5 0 .8.325.3.325.3.825v3.25q0 .5-.325.825-.325.325-.825.325Zm0 17.15q-.45 0-.775-.325t-.325-.825V24.7q0-.45.325-.775t.825-.325q.5 0 .8.325.3.325.3.775v6.95q0 .5-.325.825-.325.325-.825.325ZM24 24ZM11.9 43h24.2q1.2 0 2.05-.85.85-.85.85-2.05V20.75H9V40.1q0 1.2.85 2.05.85.85 2.05.85ZM9 18.45h30V7.9q0-1.2-.85-2.05Q37.3 5 36.1 5H11.9q-1.2 0-2.05.85Q9 6.7 9 7.9Z"/></svg>