<svg xmlns="http://www.w3.org/2000/svg" width="48" height="48" viewBox="0 -960 960 960"><path d="M338.42-647.307q-9.727 0-16.112-6.524-6.384-6.524-6.384-16.168v-65.308q0-9.644 6.58-16.168 6.58-6.524 16.307-6.524 9.727 0 16.112 6.524 6.384 6.524 6.384 16.168v65.308q0 9.644-6.58 16.168-6.58 6.524-16.307 6.524Zm0 342.921q-9.727 0-16.112-6.524-6.384-6.524-6.384-16.168V-465.77q0-9.269 6.58-15.98 6.58-6.712 16.307-6.712 9.727 0 16.112 6.712 6.384 6.711 6.384 15.98v138.692q0 9.644-6.58 16.168-6.58 6.524-16.307 6.524ZM237.694-100.001q-23.5 0-40.596-17.097-17.097-17.096-17.097-40.596v-644.612q0-23.5 17.097-40.596 17.096-17.097 40.596-17.097h484.612q23.5 0 40.596 17.097 17.097 17.096 17.097 40.596v644.612q0 23.5-17.097 40.596-17.096 17.097-40.596 17.097H237.694Zm0-45.384h484.612q5.385 0 8.847-3.462 3.462-3.462 3.462-8.847v-387.614h-509.23v387.614q0 5.385 3.462 8.847 3.462 3.462 8.847 3.462Zm-12.309-445.307h509.23v-211.614q0-5.385-3.462-8.847-3.462-3.462-8.847-3.462H237.694q-5.385 0-8.847 3.462-3.462 3.462-3.462 8.847v211.614Z"/></svg>