<svg xmlns="http://www.w3.org/2000/svg" width="48" height="48" viewBox="0 -960 960 960"><path d="M224.615-220.001q-27.307 0-40.884-23.885-13.576-23.884 1.808-46.96l117.154-182.615q1.923-3.077 1.923-6.539 0-3.462-1.923-6.539L185.539-669.154q-15.384-23.076-1.808-46.96 13.577-23.885 40.884-23.885h366.162q22.299 0 41.069 11.116 18.769 11.115 31.769 28.884l132.153 186.153q11 15.414 11 33.745 0 18.332-11 33.947L662.076-259.232q-13 17-31.139 28.115-18.14 11.116-40.342 11.116h-365.98Zm394.232-55.385 140.229-197.306q2.308-3.077 2.308-7.308t-2.308-7.308L618.847-684.614q-3.462-4.616-8.078-7.308-4.615-2.693-11.154-2.693H222.692l118.692 182.769q9.615 14.434 9.615 31.755 0 17.322-9.615 31.937L222.692-265.385h376.923q5.769 0 10.77-2.693 5-2.692 8.462-7.308ZM492.615-480Z"/></svg>