<svg xmlns="http://www.w3.org/2000/svg" width="48" height="48" viewBox="0 -960 960 960"><path d="M821.385-74.386 74.771-820.385q-6.692-6.81-6.885-16.174-.192-9.363 6.937-16.44 6.745-6.692 16.039-6.692 9.293 0 16.523 6.692l746.614 746.614q6.308 6.867 6.5 16.087.192 9.22-6.552 15.912-7.284 7.077-16.577 7.077-9.293 0-15.985-7.077ZM234.77-572.077q-43.622 0-74.08-30.383-30.458-30.382-30.458-73.77 0-31.758 16.884-56.533 16.885-24.774 43.27-36.851l137.999 137.999q-12.077 26.384-37.417 42.961-25.34 16.577-56.198 16.577Zm124.538 273.461ZM595-457.539Zm133.307-192.23 145.615 410.538q3.846 10.538-1.115 18.038-4.962 7.5-13.077 10.346t-16.334-.506q-8.219-3.353-12.242-13.878L684.769-635q-10-27.154-33.071-43.346-23.072-16.192-51.16-16.192-28.538 0-51.46 16.172-22.921 16.172-32.156 43.366l-11.846 39.923q-3.015 8.909-11.453 13.377-8.438 4.469-17.507 1.623-9.101-3.231-13.57-11.192-4.468-7.962-1.622-17.346l12.23-39.154q13.347-42.291 48.096-67.222 34.75-24.931 79.513-24.931 42.973 0 78.143 24.5t49.401 65.653ZM197.539-437.845q7.488-14.231 21.458-22.846 13.971-8.616 30.154-8.616 17.222 0 31.613 9.567 14.392 9.568 21.544 25.895l31.23 73.768q7.539 16.077 27.299 14.593 19.76-1.483 25.241-17.362l49.461-161.615 36.691 36.691-42.384 138.077q-7.231 22.923-26.731 37-19.5 14.077-44.325 14.077-21.689 0-40.124-11.962-18.435-11.961-26.665-32.269l-33.615-78.922q-3.077-6.154-10.578-6.347-7.501-.192-10.962 5.962L121.154-192.77q-2.553 5.804-7.593 9.286-5.04 3.483-11.247 3.483-12.978 0-19.376-10.346-6.398-10.346-.322-21.884L197.54-437.845Z"/></svg>