<svg xmlns="http://www.w3.org/2000/svg" width="48" height="48" viewBox="0 -960 960 960"><path d="M237.694-290.001q-23.981 0-40.837-16.855-16.856-16.856-16.856-40.837v-299.614q0-9.664 6.567-16.178 6.567-6.514 16.307-6.514 9.741 0 16.126 6.514 6.384 6.514 6.384 16.178v299.614q0 5.385 3.462 8.847 3.462 3.462 8.847 3.462h143.46q5 0 8.654-3.462 3.655-3.462 3.655-8.847v-299.614q0-9.664 6.566-16.178 6.567-6.514 16.307-6.514 9.357 0 15.933 6.514 6.577 6.514 6.577 16.178v299.614q0 23.981-16.856 40.837-16.855 16.855-40.836 16.855h-143.46Zm339.998 0q-23.981 0-40.836-16.855Q520-323.712 520-347.693v-10.385q0-9.663 6.567-16.177 6.566-6.514 16.307-6.514 2.308 0 3.846 1.538 1.539 1.539 1.539 3.847 7.433.384 12.279 6.899 4.846 6.514 4.846 13.485 0 6.615 3.461 12.5 3.462 5.885 8.847 7.116h144.614q5.385 0 8.847-3.462 3.462-3.462 3.462-8.847V-445q0-5.385-3.462-8.846-3.462-3.462-8.847-3.462H577.692q-23.981 0-40.836-16.856Q520-491.02 520-515v-97.307q0-23.981 16.856-40.837 16.855-16.855 40.836-16.855h144.614q23.981 0 40.837 16.855 16.856 16.856 16.856 40.837v10.385q0 9.663-6.567 16.177-6.567 6.514-16.307 6.514-2.308 0-3.847-1.538-1.538-1.539-1.538-3.847-7.433-.384-12.279-6.514T734.615-605q0-6.615-3.462-12.5t-8.847-7.116H577.692q-5.385 0-8.847 3.462-3.461 3.462-3.461 8.847V-515q0 5.385 3.461 8.846 3.462 3.462 8.847 3.462h144.614q23.981 0 40.837 16.856T779.999-445v97.307q0 23.981-16.856 40.837-16.856 16.855-40.837 16.855H577.692Z"/></svg>