<svg xmlns="http://www.w3.org/2000/svg" width="48" height="48" viewBox="0 0 48 48"><path d="M11.8 33.05h9.1V24.2h-7.25q-.45 2.25-.875 4.45t-.975 4.4Zm14.3 1.65H4.85q-.35 0-.6-.225T4 33.85q0-.3.25-.55.25-.25.6-.25H9.9q.55-2.25 1-4.45l.9-4.4H7.5q-.35 0-.6-.25t-.25-.55q0-.35.25-.625t.6-.275h4.6q.25-1.55.525-3.075.275-1.525.575-3.125H6.55q-.35 0-.6-.25t-.25-.6q0-.35.25-.575.25-.225.6-.225h17.6q.35 0 .6.225t.25.575q0 .35-.25.6t-.6.25H15.1q-.25 1.55-.55 3.075-.3 1.525-.55 3.125h7.1q.6 0 1.025.425.425.425.425 1.025v9.1h3.55q.35 0 .6.25t.25.6q0 .35-.25.575-.25.225-.6.225Zm8.55-2.1q1.65 0 3.275-.8t3.025-2.3v-6.55q-1.5.2-2.65.475-1.15.275-2.25.625-2.65.85-3.925 2.125T30.85 29.1q0 1.6 1.025 2.55 1.025.95 2.775.95Zm-.4 2q-2.55 0-4.1-1.5-1.55-1.5-1.55-3.95 0-2.4 1.65-4.025Q31.9 23.5 35.3 22.4q1-.3 2.4-.575 1.4-.275 3.25-.575V21q0-2.9-.95-4.35-.95-1.45-3.45-1.45-1.15 0-2.3.375T31.7 16.7q-.35.2-.75.125-.4-.075-.6-.425-.2-.4-.1-.8t.5-.6q1.5-.85 3.05-1.325 1.55-.475 3.1-.475 3.3 0 4.8 2.05T43.2 21v12.2q0 .4-.275.675t-.625.275h-.15q-.35 0-.625-.25t-.325-.6l-.15-1.75q-1.55 1.5-3.35 2.275-1.8.775-3.45.775Z"/></svg>