<svg xmlns="http://www.w3.org/2000/svg" width="48" height="48" viewBox="0 -960 960 960"><path d="M397.385-688.769 204.846-572q-11.538 7.077-23.192.517-11.653-6.56-11.653-19.68 0-6.485 2.854-12.044t8.069-8.1L399.615-743.46 600-601.076 752.923-710.23q11.538-8.307 24.307-1.78 12.769 6.528 12.769 20.769 0 5.934-2.572 10.445-2.572 4.512-7.351 8.258L600-545.154 397.385-688.769ZM192.693-377.308q-9.645 0-16.168-6.58-6.524-6.581-6.524-16.308t6.524-16.111q6.523-6.385 16.168-6.385h574.614q9.644 0 16.168 6.58 6.524 6.581 6.524 16.308t-6.524 16.111q-6.524 6.385-16.168 6.385H192.693Zm0 162.692q-9.645 0-16.168-6.581-6.524-6.58-6.524-16.307 0-9.727 6.524-16.112Q183.048-260 192.693-260h574.614q9.644 0 16.168 6.58 6.524 6.58 6.524 16.307 0 9.728-6.524 16.112-6.524 6.385-16.168 6.385H192.693Z"/></svg>