<svg xmlns="http://www.w3.org/2000/svg" width="48" height="48" viewBox="0 0 48 48"><path d="M32.35 43q-.6 0-1.025-.425-.425-.425-.425-1.025V34.1q0-.5.35-.825.35-.325.8-.325.5 0 .825.325.325.325.325.825v5.3q2.65-3.2 4.1-7.15 1.45-3.95 1.45-8.25 0-4.35-1.45-8.3-1.45-3.95-4.1-7.15v5.35q0 .5-.325.825-.325.325-.825.325-.5 0-.825-.325-.325-.325-.325-.825V6.45q0-.6.425-1.025Q31.75 5 32.35 5h7.5q.5 0 .825.325.325.325.325.825 0 .5-.325.8-.325.3-.825.3h-4.8q2.85 3.5 4.4 7.775Q41 19.3 41 24q0 4.7-1.55 8.975-1.55 4.275-4.4 7.775h4.8q.5 0 .825.325.325.325.325.825 0 .45-.325.775T39.85 43Zm-19.8-7.2h3.5v-2.45h-3.5Zm5.55 0h3.6v-2.45h-3.6Zm-4.4-5.35q-.4 0-.675-.275t-.275-.675v-.7h-2.8q-.4 0-.675-.3T9 27.85q0-.4.275-.675t.675-.275h2.8v-.5q0-.4.275-.65t.675-.25q.4 0 .65.25t.25.65v.5h4.95v-.5q0-.4.275-.65t.675-.25q.4 0 .65.25t.25.65v.5h2.8q.4 0 .675.275t.275.675q0 .4-.275.675t-.675.275h-2.8v.7q0 .4-.25.675t-.65.275q-.4 0-.675-.275t-.275-.675v-.7H14.6v.7q0 .4-.25.675t-.65.275Zm3.45 8.15q-.95 1.55-2.525 2.425-1.575.875-3.675 1.525-.5.15-1 0t-.8-.6q-.25-.35-.075-.7t.625-.45q1.8-.35 3.275-1.05 1.475-.7 2.325-2.1H9.65q-.35 0-.625-.275T8.75 36.7q0-.35.275-.625T9.7 35.8h.95v-3.6q0-.3.225-.5t.525-.2H16v-.85q0-.4.3-.7.3-.3.75-.3.4 0 .7.3.3.3.3.7v.85h4.9q.3 0 .525.2.225.2.225.5v3.6h.75q.4 0 .65.275t.25.675q0 .35-.25.625t-.65.275h-5.7q1.2 1.25 2.65 2.05 1.45.8 3.1 1.15.4.1.625.425.225.325.025.675-.25.5-.75.7-.5.2-1 .05-1.85-.45-3.475-1.475Q18.3 40.2 17.15 38.6Zm-.6-17.7-1.5-.25q-.35-.05-.55-.275-.2-.225-.25-.625-.1-.45.175-.8.275-.35.725-.35h1q.5 0 .975-.175t.625-.725q.4-1 .525-2.3.125-1.3.075-2.45 0-.95-.55-1.45t-1.25-.5h-1.4q-.5 2.25-1.35 4.4-.85 2.15-1.95 4.3-.25.45-.7.65-.45.2-.9 0-.4-.25-.5-.7-.1-.45.15-.85 1.05-1.8 1.825-3.65.775-1.85 1.225-4h-2.7q-.45 0-.75-.3t-.3-.75q0-.45.3-.75t.75-.3h3.2q.15-.7.225-1.35.075-.65.175-1.35.05-.45.425-.7.375-.25.775-.1.55.15.825.6.275.45.175.95-.15.6-.275 1.125-.125.525-.225 1.025h1.65q1.35 0 2.275.975.925.975.925 2.625.05 1.45-.2 3.025t-.75 3.025q-.2.55-.5.925t-.7.625q-.35.25-.8.375-.45.125-.9.075Zm8.35-6.2q-.5.25-.925-.025-.425-.275-.575-.725-.4-1.15-.875-2.25T21.4 9.6q-.3-.4-.2-.85.1-.45.55-.7.45-.2.925-.05.475.15.725.65.6 1.05 1.125 2.15.525 1.1.975 2.25.2.5.025.975-.175.475-.625.675Z"/></svg>