<svg xmlns="http://www.w3.org/2000/svg" width="48" height="48" viewBox="0 -960 960 960"><path d="M191.945-194.618q-9.672 0-15.807-6.706-6.134-6.705-6.134-16.307 0-9.602 6.861-15.986t16.58-6.384q9.673 0 15.808 6.705 6.134 6.706 6.134 16.307 0 9.602-6.861 15.987-6.861 6.384-16.581 6.384Zm143.845 0q-9.673 0-15.807-6.706-6.135-6.705-6.135-16.307 0-9.602 6.869-15.986t16.6-6.384q9.261 0 15.588 6.705 6.327 6.706 6.327 16.307 0 9.602-7.035 15.987-7.034 6.384-16.407 6.384Zm143.46 0q-9.673 0-15.807-6.706-6.135-6.705-6.135-16.307 0-9.602 6.58-15.986 6.581-6.384 16.308-6.384t16.111 6.58q6.385 6.58 6.385 16.307 0 9.727-6.861 16.112-6.861 6.384-16.581 6.384Zm144.213 0q-9.541 0-15.926-6.58-6.384-6.58-6.384-16.307 0-9.728 6.869-16.112 6.868-6.384 16.599-6.384 9.262 0 15.589 6.705 6.326 6.706 6.326 16.307 0 9.602-6.765 15.987-6.766 6.384-16.308 6.384Zm143.646 0q-9.727 0-16.112-6.58-6.384-6.58-6.384-16.307 0-9.728 6.58-16.112 6.58-6.384 16.307-6.384 9.727 0 16.112 6.58 6.384 6.58 6.384 16.307 0 9.727-6.58 16.112-6.58 6.384-16.307 6.384ZM191.695-305.386q-8.922 0-15.307-6.706-6.384-6.706-6.384-16.307 0-9.602 6.524-15.987 6.523-6.384 16.167-6.384H321.54q8.923 0 15.307 6.706 6.385 6.705 6.385 16.307 0 9.602-6.524 15.986-6.524 6.385-16.168 6.385H191.695Zm223.075 0q-8.923 0-15.307-6.706-6.385-6.706-6.385-16.307 0-9.602 6.524-15.987 6.524-6.384 16.168-6.384h129.46q8.558 0 15.125 6.706 6.567 6.705 6.567 16.307 0 9.602-6.712 15.986-6.711 6.385-15.98 6.385H414.77Zm223.305 0q-8.923 0-15.307-6.706t-6.384-16.307q0-9.602 6.523-15.987 6.524-6.384 16.168-6.384h129.23q8.922 0 15.307 6.706 6.384 6.705 6.384 16.307 0 9.602-6.524 15.986-6.523 6.385-16.167 6.385h-129.23Zm-446.38-110.769q-8.922 0-15.307-6.706-6.384-6.705-6.384-16.307 0-9.602 6.524-15.986 6.523-6.385 16.167-6.385h232.921q8.923 0 15.307 6.706t6.384 16.307q0 9.602-6.523 15.987-6.524 6.384-16.168 6.384H191.695Zm342.689 0q-8.923 0-15.307-6.706-6.384-6.705-6.384-16.307 0-9.602 6.523-15.986 6.524-6.385 16.168-6.385h232.921q8.922 0 15.307 6.706 6.384 6.706 6.384 16.307 0 9.602-6.524 15.987-6.523 6.384-16.167 6.384H534.384ZM198.85-526.924q-11.51 0-20.178-8.668-8.668-8.668-8.668-20.178v-180.766q0-11.51 8.668-20.178 8.668-8.668 20.178-8.668h562.3q11.51 0 20.178 8.668 8.668 8.668 8.668 20.178v180.766q0 11.51-8.668 20.178-8.668 8.668-20.178 8.668h-562.3Z"/></svg>