<svg xmlns="http://www.w3.org/2000/svg" width="48" height="48" viewBox="0 -960 960 960"><path d="M281.539-298.463q-75.338 0-128.438-53.093-53.1-53.093-53.1-128.422t53.1-128.444q53.1-53.115 128.438-53.115h135.384q9.644 0 16.168 6.58 6.524 6.58 6.524 16.307 0 9.728-6.524 16.112-6.524 6.384-16.168 6.384h-135.43q-56.749 0-96.429 39.611-39.679 39.611-39.679 96.308 0 56.696 39.679 96.542 39.68 39.847 96.429 39.847h135.43q9.644 0 16.168 6.58 6.524 6.58 6.524 16.307 0 9.727-6.524 16.112-6.524 6.384-16.168 6.384H281.539Zm75-158.845q-9.644 0-16.168-6.58-6.524-6.581-6.524-16.308t6.524-16.111q6.524-6.385 16.168-6.385h247.307q9.269 0 15.98 6.58 6.712 6.581 6.712 16.308t-6.712 16.111q-6.711 6.385-15.98 6.385H356.539Zm186.538 158.845q-9.644 0-16.168-6.58-6.524-6.58-6.524-16.307 0-9.728 6.524-16.112 6.524-6.384 16.168-6.384h135.43q56.749 0 96.429-39.611 39.679-39.611 39.679-96.308 0-56.696-39.679-96.542-39.68-39.847-96.429-39.847h-135.43q-9.644 0-16.168-6.58-6.524-6.58-6.524-16.307 0-9.727 6.524-16.112 6.524-6.384 16.168-6.384h135.384q75.338 0 128.438 53.093 53.1 53.093 53.1 128.422t-53.1 128.444q-53.1 53.115-128.438 53.115H543.077Z"/></svg>