<svg xmlns="http://www.w3.org/2000/svg" width="48" height="48" viewBox="0 -960 960 960"><path d="M479.846-117.309q-9.307 0-18.461-2.923-9.154-2.923-16.385-9.769-36.999-33.769-83.307-80.769-46.307-47-87.153-102.269-40.846-55.269-68.654-115.923-27.808-60.653-27.808-121.115 0-138.46 89.577-224.191Q357.231-859.999 480-859.999t212.345 85.731q89.577 85.731 89.577 224.191 0 60.462-27.808 121.115-27.808 60.654-68.461 115.731-40.654 55.077-86.962 102.077-46.307 46.999-83.307 80.768-7.093 6.846-16.574 9.962-9.482 3.115-18.964 3.115Zm.341-375.384q26.89 0 45.851-19.148Q545-530.99 545-557.879q0-26.89-19.149-45.851-19.149-18.962-46.038-18.962-26.89 0-45.851 19.149Q415-584.394 415-557.505q0 26.89 19.149 45.851t46.038 18.961Z"/></svg>