<svg xmlns="http://www.w3.org/2000/svg" width="48" height="48" viewBox="0 -960 960 960"><path d="M140.001-263.77v-304.923q0-20.614 15.962-34.576 15.961-13.961 36.576-11.961 83.307 9.154 154.461 50.961 71.154 41.808 133 99.115 61.846-57.307 133-99.115 71.154-41.807 154.461-50.961 20.615-2 36.576 11.961 15.962 13.962 15.962 34.576v304.923q0 17.615-11.962 30.769-11.961 13.153-29.576 14.769-73.769 7.154-140.461 34.423-66.693 27.269-125.616 71.115-7.23 5.846-15.577 8.461-8.346 2.616-16.807 2.616-8.461 0-16.807-2.616-8.347-2.615-15.577-8.461-58.923-43.846-125.423-71.115t-140.654-34.423q-17.615-1.616-29.576-14.769-11.962-13.154-11.962-30.769Zm342.23-353.615q-58.846 0-99.5-40.461-40.653-40.461-40.653-99.692 0-58.846 40.653-99.499 40.654-40.654 99.5-40.654 58.845 0 99.499 40.654 40.654 40.653 40.654 99.499 0 59.231-40.654 99.692-40.654 40.461-99.499 40.461Z"/></svg>