<svg xmlns="http://www.w3.org/2000/svg" width="48" height="48" viewBox="0 -960 960 960"><path d="M289.303-100.001q-29.763 0-47.946-17.572-18.183-17.571-22.279-45.428l-72.769-665.151q-2-13.721 6.395-22.784 8.394-9.063 22.067-9.063h610.458q13.673 0 22.068 9.063 8.394 9.063 6.394 22.784l-72.799 665.296q-2.97 27.547-20.932 45.201-17.961 17.654-46.725 17.654H289.303ZM212.77-632.307h534.46l19.616-182.308H193.154l19.616 182.308ZM480-212.617q41.538 0 70.153-28.283 28.616-28.283 28.616-70.024 0-34.976-17.731-73.526t-55.731-85.011q-9.846-11.616-25.307-11.616-15.461 0-25.307 11.616-38 46.461-55.731 85.011t-17.731 73.526q0 41.741 28.616 70.024 28.615 28.283 70.153 28.283Z"/></svg>