<svg xmlns="http://www.w3.org/2000/svg" width="48" height="48" viewBox="0 -960 960 960"><path d="M157.694-100.001q-23.616 0-40.654-17.039-17.039-17.038-17.039-40.654v-469.997q0-23.616 17.039-40.654 17.038-17.039 40.654-17.039h133.922l75.769-84.999q4.615-4.616 9.615-7.116t11.616-2.5h58.307q-1.846 11.539-3.269 24.692-1.423 13.154-1.423 26.077 0 43.461 14.423 84.731 14.423 41.269 41.5 84.192-86.615-4.384-140.076 42.885-53.461 47.268-53.461 124.729 0 71.692 48.192 119.884 48.192 48.192 119.884 48.192 63.307 0 118.268-44.192t50.5-129.653q10.077 10.077 20.039 18.655 9.961 8.577 20.654 17.654 16.615 14.384 38.231 15.077 21.615.692 37.846-14.308 28.845-25.384 53.422-48.153 24.577-22.769 48.346-51.615v303.458q0 23.616-17.039 40.654-17.038 17.039-40.654 17.039H157.694ZM472.693-270q-51.231 0-86.962-35.731T350-392.693q0-51.23 35.923-87.153 35.923-35.923 87.154-35.923 24.23 0 41.769 8 17.538 7.999 33.076 20.768 7.385 8.924 13.001 14.924 5.616 6.001 14.539 14.924 9.538 13.154 14.923 28.538 5.384 15.384 5.384 33.615 0 52-35.538 88.5T472.693-270Zm191.769-377.461L720-689.769l56.923 42.308-21.846-68.769 56.538-46.308h-68.769L720-830.691l-22.461 68.153h-69.154l56.923 46.308-20.846 68.769ZM720-427.846q-5 0-10-1.808-5-1.807-9.615-5.807Q640-491.615 573.808-565.654q-66.192-74.038-66.192-165.192 0-100.692 64.153-159.538Q635.923-949.23 720-949.23t148.231 58.846q64.153 58.846 64.153 159.538 0 91.154-66.192 165.192Q800-491.615 739.615-435.461q-4.615 4-9.615 5.807-5 1.808-10 1.808Z"/></svg>