<svg xmlns="http://www.w3.org/2000/svg" width="48" height="48" viewBox="0 -960 960 960"><path d="M222.059-178.309q-46.29 0-78.482-31.981-32.192-31.98-32.192-79.095h-4.461q-21.673-1.154-37.375-17.974-15.702-16.82-15.702-39.719v-375.228q0-23.529 17.082-40.611 17.081-17.082 40.61-17.082h500.922q23.5 0 40.596 17.097 17.096 17.096 17.096 40.596v99.691h80.804q7.051 0 12.943 2.808 5.892 2.808 9.868 8.808l126.769 169.077q2.616 3.654 4.116 7.942 1.5 4.287 1.5 9.289v106.46q0 12.259-8.293 20.552-8.294 8.294-20.553 8.294h-36.769q0 47.179-32.403 79.127-32.402 31.949-78.692 31.949-46.289 0-78.481-31.981-32.192-31.98-32.192-79.095H333.153q0 47.307-32.402 79.192-32.403 31.884-78.692 31.884Zm.402-45.384q27.078 0 46.193-19.527 19.116-19.527 19.116-46.385 0-26.858-19.116-45.973-19.115-19.116-46.193-19.116-27.077 0-46.385 19.116-19.307 19.115-19.307 45.973t19.307 46.385q19.308 19.527 46.385 19.527ZM99.231-722.306v375.228q0 2.308.769 4.424.769 2.115 1.923 3.654 1.154 1.539 2.885 2.693 1.731 1.153 3.654 1.538h12.384Q133.615-363.307 160.81-382q27.194-18.693 60.747-18.693 32.784 0 60.575 18.808 27.791 18.808 40.56 47.116H624.77v-387.537q0-5.385-3.654-8.847-3.655-3.462-8.655-3.462H111.539q-5.385 0-8.846 3.462-3.462 3.462-3.462 8.847Zm630.615 498.613q27.077 0 46.193-19.527 19.115-19.527 19.115-46.385 0-26.858-19.115-45.973-19.116-19.116-46.193-19.116-27.077 0-46.385 19.116-19.308 19.115-19.308 45.973t19.308 46.385q19.308 19.527 46.385 19.527ZM670.153-419.23h191.001L741.691-577.231h-71.538v158.001ZM362.308-535Z"/></svg>