<svg xmlns="http://www.w3.org/2000/svg" width="48" height="48" viewBox="0 -960 960 960"><path d="M736.37-254.385q27.238 0 46.202-19.004 18.965-19.005 18.965-46.154 0-27.15-18.981-45.765-18.98-18.615-46.096-18.615-27.115 0-45.788 18.878-18.673 18.877-18.673 45.846 0 26.968 18.775 45.891t45.596 18.923Zm-.088 129.538q32.409 0 60.447-15.115 28.039-15.116 46.039-41.346-25.231-14-51.571-22.116-26.34-8.115-54.654-8.115-28.313 0-54.929 8.115-26.615 8.116-51.461 22.116 17.544 26.274 45.632 41.368 28.088 15.093 60.497 15.093Zm-383.589-490.69h254.614v-89.538q0-53.975-37.09-91.757-37.09-37.782-90.077-37.782-52.986 0-90.217 37.782-37.23 37.782-37.23 91.757v89.538ZM237.694-100.001q-23.5 0-40.596-17.097-17.097-17.096-17.097-40.596v-400.151q0-23.798 17.097-40.745 17.096-16.947 40.596-16.947h69.615v-89.538q0-72.816 50.439-123.869t122.384-51.053q71.944 0 122.252 51.053 50.307 51.053 50.307 123.869v89.538h69.615q23.5 0 40.596 16.947 17.097 16.947 17.097 40.745v43.615q0 12.406-9.308 20.433-9.308 8.028-21.539 6.797-5.329-.615-11.219-.307-5.89.307-11.396.307-97.384 3.231-163.884 73.077-66.499 69.846-66.499 166.845 0 30.277 7.346 58.6t21.422 54.4q6.231 11.23.116 22.654-6.116 11.423-18.731 11.423H237.694ZM736.46-72.156q-72.076 0-123.499-51.422-51.422-51.423-51.422-123.307t51.422-123.499q51.423-51.615 123.499-51.615 72.077 0 123.499 51.6 51.423 51.601 51.423 123.321 0 72.077-51.423 123.5-51.422 51.422-123.499 51.422Z"/></svg>