<svg xmlns="http://www.w3.org/2000/svg" width="48" height="48" viewBox="0 -960 960 960"><path d="M771.075-291.617 668.538-394.154q25.231-14.153 52.076-22.846 26.846-8.692 55.307-12.307 6.192-1 11.827 1.308 5.634 2.307 10.25 6.923 4.615 4.615 6.615 10.25 2 5.634 1 11.826-3.231 28.307-12 55.307-8.769 27-22.538 52.076Zm-99.998 57.77-60.308-59.308q-25.616 27.692-45.001 61.5-19.385 33.808-30.769 73.578 40.385-11.385 74.193-30.27 33.808-18.884 61.885-45.5Zm31.845 31.845q-46.307 45-103.896 71.962Q541.437-103.079 480-103.079q0-61.437 26.962-119.025 26.961-57.589 71.961-103.897l-79.924-79.539q-5.077 1.231-10.153 2.038-5.077.808-10.769.808-33.538-.769-59.077-21.115-25.538-20.346-37.781-52.269-5.449 1.154-12.141 1.654-6.693.5-12.693.5-42.337 0-72.437-29.989-30.1-29.989-30.1-72.164 0-15.466 5.038-29.002 5.039-13.536 13.731-26.613l-152.385-152q-6.692-6.846-6.385-16.384.308-9.539 6.842-16.231 7.073-7.077 16.077-7.077 9.004 0 16.08 7.077l680.076 679.461q6.692 6.58 6.385 16.059-.308 9.478-6.842 16.555-7.073 6.692-16.077 6.692-9.004 0-16.081-6.692l-97.385-97.77ZM480-891.921q33.923 0 60.23 20.346 26.308 20.346 37.615 52.654 5.851-.77 12.885-1.27t12.885-.5q42.239 0 71.888 29.854 29.649 29.854 29.649 72.299 0 19.519-7.835 37.644t-20.626 33.587q13.675 15.846 21.068 33.845 7.393 18 7.393 37.385 0 42.615-29.846 72.576-29.846 29.961-72.461 29.577-4.308 0-7.615-.193-3.308-.192-7.231-.577L447.385-614.923l-59.384-58.384q4.846-17 14.961-31.5 10.116-14.5 24.731-24.73L389.93-761.66q-6.621-6.724-15.262-10.186-8.642-3.461-18.24-3.461-13.889 0-25.812 6.269-11.923 6.269-19.923 17.039l-32.23-31.615q16.538-20.307 41.85-29 25.312-8.692 52.226-7.461 2.307 0 4.808.192 2.5.192 4.808.962 11.307-32.308 37.615-52.654 26.307-20.346 60.23-20.346Zm123.815 372.613q23.117 0 39.843-16.684 16.726-16.685 16.726-40.167 0-17.303-9.534-30.743-9.535-13.44-25.774-19.56l-47.769-17.615q-1.769 12.546-5.308 23.657-3.538 11.112-9.003 21.076t-12.961 18.692q-7.497 8.728-17.728 15.574l37.763 32.123q6.621 6.724 15.017 10.186 8.395 3.461 18.728 3.461Zm-26.508-131.615 47.769-17.23q16.213-6.115 25.453-20.051 9.24-13.936 9.24-30.406 0-23.204-16.246-39.95-16.245-16.747-39.988-16.747-9.767 0-18.164 3.461-8.398 3.462-15.68 10.001l-38.615 32.308q9.846 6.846 17.693 15.292 7.846 8.446 13.269 18.092 6.423 9.846 10 21.078t5.269 24.152ZM436-733.768q12.205-4.846 23.295-7.654 11.09-2.808 20.769-2.808 9.68 0 20.769 2.808 11.09 2.808 23.167 7.654l12.385-60.003q4.308-21.599-13.885-37.182-18.192-15.584-42.192-15.584-24.001 0-42.501 15.734-18.5 15.734-14.192 37.032L436-733.768Zm44.392 131.845q18.844 0 32.111-13.466 13.266-13.466 13.266-32.311 0-18.844-13.17-32.11-13.17-13.267-32.639-13.267-18.345 0-31.845 13.171-13.5 13.17-13.5 32.639 0 18.344 13.467 31.844 13.466 13.5 32.31 13.5Zm82.453 2.461Zm-.615-96.691ZM480-744.23Zm0 641.151q0-123.845-86.192-210.806-86.192-86.961-199.806-110.037-7.96-1.616-14.595 1-6.636 2.615-11.636 7.615-5.125 5.554-7.37 11.556-2.245 6.002-.245 14.29Q184.233-275.462 269.47-189.27q85.238 86.191 210.53 86.191Zm-54.999-54.998q-84.231-24.846-140.115-80.539-55.885-55.692-80.347-140.308 84.231 24.846 139.924 81.039 55.692 56.192 80.538 139.808Zm109.998 0Zm-109.998 0Z"/></svg>