<svg xmlns="http://www.w3.org/2000/svg" width="48" height="48" viewBox="0 -960 960 960"><path d="m800.307-104.232-89.385-89.77q-46.923 48.385-107.038 77.654Q543.769-87.078 480-87.078q0-64.77 28.962-124.385 28.961-59.615 77.346-106.538l-90.462-90.462q-39.923 7.538-68.115-18.654-28.192-26.192-28.192-66.114l-.769-1.154q-8.461 6.846-18.923 11.192-10.461 4.346-24.153 4.346-34.615 0-57.346-22.73-22.73-22.731-22.73-57.346 0-14.307 4.846-27.115 4.846-12.807 13.538-23.884l-173.77-173.77q-6.692-6.692-6.577-16.307.115-9.616 7.192-16.692 7.077-6.693 16-6.693t15.615 6.693l680.46 679.845q6.692 6.307 6.385 15.922-.308 9.615-7 16.692-7.077 6.692-16 6.692t-16-6.692Zm-23.616-181.769-97.768-97.768q20.769-10.923 42.768-19 22-8.077 44.615-11.923 9.461-1.615 17.423 1.308 7.961 2.923 13.807 8.769t8.769 13.808q2.924 7.961 1.308 17.422-3.846 22.615-11.923 44.615-8.076 22-18.999 42.769ZM604.306-478.847q-8.307 0-15.307-1.731-7-1.73-13.077-5.576l-48.306-48.538q28.538-12.769 44.922-38.346 16.385-25.577 16.385-59.499 0-46.462-31.231-77.5-31.231-31.039-77.692-31.039-33.538 0-59.307 16.385-25.769 16.384-38.154 44.538l-83.691-83.076q10.692-10.922 25.192-16.768 14.5-5.847 31.654-5.847 14.076 0 24.73 4.231t19.115 12.077v-7.846q0-35.384 22.923-57.923 22.923-22.538 57.538-22.538 34.615 0 57.538 22.538 22.923 22.539 22.923 57.923v7.846q8.461-7.846 19.115-12.077 10.654-4.231 24.73-4.231 34.615 0 57.346 22.731 22.73 22.731 22.73 57.346 0 23.922-12.769 44.345t-34.307 28.885q21.538 8.846 34.307 29.268 12.769 20.423 12.769 44.346 0 34.615-22.73 57.346-22.731 22.73-57.346 22.73ZM480-87.079Q480-201.23 394.193-297q-85.808-95.769-198.268-115.076-9.077-1.616-17.231 1.307-8.154 2.923-13.615 8.769-5.846 5.462-8.769 13.616-2.923 8.153-1.308 17.23 19.308 112.461 115.384 198.268Q366.463-87.079 480-87.079Z"/></svg>