<svg xmlns="http://www.w3.org/2000/svg" width="48" height="48" viewBox="0 -960 960 960"><path d="M157.694-180.001q-23.529 0-40.611-17.082-17.082-17.082-17.082-40.611v-484.612q0-23.529 17.082-40.611 17.082-17.082 40.611-17.082h644.612q23.529 0 40.611 17.082 17.082 17.082 17.082 40.611v484.612q0 23.529-17.082 40.611-17.082 17.082-40.611 17.082H157.694Zm118.845-355.692q28.768 0 48.884-20.036 20.115-20.036 20.115-49.348 0-29.312-20.115-49.348-20.116-20.036-49.077-20.036t-49.076 20.036q-20.115 20.036-20.115 49.348 0 29.312 20.036 49.348 20.035 20.036 49.348 20.036Z"/></svg>