<svg xmlns="http://www.w3.org/2000/svg" width="48" height="48" viewBox="0 -960 960 960"><path d="M252.309-563.846h-94.615q-4.616 0-8.463 3.846-3.846 3.847-3.846 8.463v393.843q0 4.616 3.846 8.463 3.847 3.846 8.463 3.846h644.612q4.616 0 8.463-3.846 3.846-3.847 3.846-8.463v-393.843q0-4.616-3.846-8.463-3.847-3.846-8.463-3.846H393.462q-9.663 0-16.178-6.565-6.514-6.565-6.514-16.302 0-9.363 6.514-15.94 6.515-6.577 16.178-6.577h408.844q23.529 0 40.611 17.231 17.082 17.231 17.082 40.462v393.843q0 23.529-17.082 40.611-17.082 17.082-40.611 17.082H157.694q-23.529 0-40.611-17.082-17.082-17.082-17.082-40.611v-393.843q0-23.231 17.082-40.462t40.611-17.231h94.615v-221.922q0-12.356 8.245-20.601 8.245-8.246 20.601-8.246h217.69q12.356 0 20.601 8.246 8.245 8.245 8.245 20.601v94.615q0 12.355-8.245 20.6-8.245 8.246-20.601 8.246H297.692v272.615q0 9.663-6.567 16.177-6.566 6.515-16.307 6.515-9.74 0-16.125-6.515-6.384-6.514-6.384-16.177v-128.77Zm-106.924 0v418.461-418.461 151.462-151.462Z"/></svg>