<svg xmlns="http://www.w3.org/2000/svg" width="48" height="48" viewBox="0 -960 960 960"><path d="M760-641.922q-42.923 0-72.807-29.885-29.885-29.884-29.885-72.807t29.885-72.808q29.884-29.884 72.807-29.884t72.807 29.884q29.885 29.885 29.885 72.808t-29.885 72.807Q802.923-641.922 760-641.922ZM157.694-180.001q-23.616 0-40.654-17.039-17.039-17.038-17.039-40.654v-484.612q0-23.616 17.039-40.654 17.038-17.039 40.654-17.039h422.845q-2.231 11.154-3.038 22.5-.808 11.346.038 22.884 2.077 33.461 15.269 63 13.192 29.538 35.499 52.154L480-521.615 177-720.154q-8.538-5.692-17.961-1.385-9.423 4.308-10.577 14.692-1.538 5.231.885 10.539 2.423 5.307 7.038 8.307l308 203.462q7.23 5 15.615 5t16-5l163.999-108.538q21.538 15 46.77 23.077Q732-561.922 760-561.922q27.23 0 52.538-8.308 25.307-8.307 47.461-23.922v356.458q0 23.616-17.039 40.654-17.038 17.039-40.654 17.039H157.694Z"/></svg>