<svg xmlns="http://www.w3.org/2000/svg" width="48" height="48" viewBox="0 -960 960 960"><path d="M480.326-286.694q11.674 0 19.212-8.076 7.538-8.077 7.538-19.615v-80.231h82.462q11.218 0 19.455-8.172 8.237-8.172 8.237-19.846 0-11.673-8.237-19.519-8.237-7.846-19.455-7.846h-82.462v-81.232q0-11.551-7.516-19.121-7.515-7.57-19.302-7.57-11.787 0-19.868 7.57-8.081 7.57-8.081 19.121v81.232h-81.847q-11.218 0-19.455 8.171-8.237 8.172-8.237 19.846t8.237 19.52q8.237 7.846 19.455 7.846h81.847v81.231q0 11.551 8.171 19.121 8.172 7.57 19.846 7.57ZM277.694-142.309q-23.5 0-40.596-17.096-17.097-17.097-17.097-40.596v-443.998q0-23.5 17.097-40.596 17.096-17.096 40.596-17.096h404.612q23.5 0 40.596 17.096 17.097 17.096 17.097 40.596v447.459q0 24.135-17.097 39.183-17.096 15.048-40.596 15.048H277.694Zm0-41.922h404.612q4.616 0 8.463-3.655 3.846-3.654 3.846-8.654v-447.459q0-4.616-3.846-8.462-3.847-3.846-8.463-3.846H277.694q-4.616 0-8.463 3.846-3.846 3.846-3.846 8.462v447.459q0 5 3.846 8.654 3.847 3.655 8.463 3.655Zm-5.771-588.076q-9.644 0-16.168-6.58-6.524-6.58-6.524-16.308 0-9.727 6.524-16.111 6.524-6.385 16.168-6.385h416.769q9.644 0 16.168 6.58 6.524 6.581 6.524 16.308t-6.524 16.111q-6.524 6.385-16.168 6.385H271.923Zm-6.538 116v472.076-472.076Z"/></svg>