<svg xmlns="http://www.w3.org/2000/svg" width="48" height="48" viewBox="0 -960 960 960"><path d="M402.85-263.54v-132.31h-55.54v-129.53q0-19.08 26.19-31.12 26.19-12.04 68.73-12.04 42.54 0 68.73 12.04 26.19 12.04 26.19 31.12v129.53h-55.54v132.31h-78.76Zm4.34-349.11q-14.34-14.35-14.34-35.04 0-20.69 14.34-35.04 14.35-14.35 35.04-14.35 20.69 0 35.04 14.35 14.34 14.35 14.34 35.04 0 20.69-14.34 35.04-14.35 14.34-35.04 14.34-20.69 0-35.04-14.34Zm35.04 475.49q-143.15 0-243-99.84-99.84-99.85-99.84-243 0-71.38 26.77-133.73 26.76-62.35 73.38-108.96 46.61-46.62 108.96-73.39 62.35-26.76 133.73-26.76t133.73 26.76q62.35 26.77 108.96 73.39 46.62 46.61 73.39 108.96 26.77 62.35 26.77 133.73v39.54l61.69-61.69q6.69-6.7 15.81-6.89 9.11-.19 15.8 6.5 7.08 6.69 6.89 16-.19 9.31-6.89 16l-95.77 95.77q-8.61 8.62-20.23 8.62-11.61 0-20.23-8.62l-95.77-95.77q-6.3-6.69-6.69-16-.38-9.31 6.69-16 6.7-6.69 16-6.5 9.31.19 16 6.89l61.31 61.31V-480q0-122.69-87.38-210.08-87.39-87.38-210.08-87.38-122.69 0-210.08 87.38-87.38 87.39-87.38 210.08-.38 122.69 87 210.08 87.38 87.38 210.46 87.38 50.15 0 96.39-16.38 46.23-16.39 84.61-46.16 8.31-6.07 17.31-5.77 9 .31 16.07 7 6.7 6.7 6.7 16.31 0 9.62-7.31 15.69-44.85 34.62-100.46 54.66-55.62 20.03-113.31 20.03Z"/></svg>