<svg xmlns="http://www.w3.org/2000/svg" width="48" height="48" viewBox="0 96 960 960"><path d="M480.074 995.999q-108.612 0-184.342-75.679-75.731-75.678-75.731-184.32V416q0-108.642 75.657-184.32 75.657-75.679 184.268-75.679 108.612 0 184.342 75.679 75.731 75.678 75.731 184.32v320q0 108.642-75.657 184.32-75.657 75.679-184.268 75.679ZM480.208 401q18.484 0 31.638-13.362T525 355.792q0-18.484-13.362-31.638T479.792 311q-18.484 0-31.638 13.362T435 356.208q0 18.484 13.362 31.638T480.208 401ZM364.096 568.693q12.366 0 20.481-8.365 8.116-8.366 8.116-20.731 0-12.366-8.366-20.481-8.365-8.116-20.73-8.116-12.366 0-20.481 8.365Q335 527.73 335 540.096q0 12.366 8.365 20.481 8.365 8.116 20.731 8.116Zm116.154 0q12.365 0 20.481-8.365 8.115-8.366 8.115-20.731 0-12.366-8.365-20.481Q492.116 511 479.75 511q-12.365 0-20.481 8.365-8.115 8.365-8.115 20.731 0 12.366 8.365 20.481 8.365 8.116 20.731 8.116Zm116.153 0q12.366 0 20.481-8.365Q625 551.962 625 539.597q0-12.366-8.365-20.481Q608.27 511 595.904 511q-12.366 0-20.481 8.365-8.116 8.365-8.116 20.731 0 12.366 8.365 20.481 8.366 8.116 20.731 8.116ZM364.096 684.846q12.366 0 20.481-8.365 8.116-8.365 8.116-20.731 0-12.365-8.366-20.481-8.365-8.115-20.73-8.115-12.366 0-20.481 8.365Q335 643.884 335 656.25q0 12.365 8.365 20.481 8.365 8.115 20.731 8.115Zm232.307 0q12.366 0 20.481-8.365Q625 668.116 625 655.75q0-12.365-8.365-20.481-8.365-8.115-20.731-8.115-12.366 0-20.481 8.365-8.116 8.365-8.116 20.731 0 12.365 8.365 20.481 8.366 8.115 20.731 8.115Zm-116.153 0q12.365 0 20.481-8.365 8.115-8.365 8.115-20.731 0-12.365-8.365-20.481-8.365-8.115-20.731-8.115-12.365 0-20.481 8.365-8.115 8.365-8.115 20.731 0 12.365 8.365 20.481 8.365 8.115 20.731 8.115ZM364.096 801q12.366 0 20.481-8.365 8.116-8.365 8.116-20.731 0-12.366-8.366-20.481-8.365-8.116-20.73-8.116-12.366 0-20.481 8.365Q335 760.038 335 772.403q0 12.366 8.365 20.481Q351.73 801 364.096 801Zm232.307 0q12.366 0 20.481-8.365Q625 784.27 625 771.904q0-12.366-8.365-20.481-8.365-8.116-20.731-8.116-12.366 0-20.481 8.365-8.116 8.366-8.116 20.731 0 12.366 8.365 20.481Q584.038 801 596.403 801Zm-116.153 0q12.365 0 20.481-8.365 8.115-8.365 8.115-20.731 0-12.366-8.365-20.481-8.365-8.116-20.731-8.116-12.365 0-20.481 8.365-8.115 8.366-8.115 20.731 0 12.366 8.365 20.481Q467.884 801 480.25 801Z"/></svg>