<svg xmlns="http://www.w3.org/2000/svg" width="48" height="48" viewBox="0 -960 960 960"><path d="M480-436.847q-37.006 0-61.502-26.077-24.497-26.076-24.497-63.768v-247.923q0-35.512 24.938-60.448 24.937-24.936 61.002-24.936t61.061 24.936q24.997 24.936 24.997 60.448v247.923q0 37.692-24.497 63.768-24.496 26.077-61.502 26.077Zm-.182 306.846q-9.741 0-16.125-6.514-6.385-6.514-6.385-16.178v-118.308q-94.153-9.462-160.961-74.654-66.807-65.192-75.115-157.115-1.231-9.923 5.769-16.922 7-7 17.538-7 7.936 0 14.199 6.269 6.262 6.269 7.878 14.961 8.307 81 68.828 135.462 60.521 54.461 144.378 54.461 83.857 0 144.556-54.461 60.699-54.462 69.006-135.462 1.683-8.91 8.007-15.07t14.692-6.16q10.531 0 17.223 7 6.693 6.999 5.462 16.922-8.308 91.923-75.115 157.115-66.808 65.192-160.961 74.654v118.308q0 9.664-6.567 16.178-6.567 6.514-16.307 6.514Z"/></svg>