<svg xmlns="http://www.w3.org/2000/svg" width="48" height="48" viewBox="0 -960 960 960"><path d="M650.5-406.77q-7.5-5.69-8.69-14.81-1.2-9.11 4.5-16.81 8.69-14.51 13.67-30.91 4.98-16.41 7.4-33.32 1.13-9.77 7.72-16.92 6.58-7.15 16.36-7.15 9.77 0 16.15 7.15 6.39 7.15 5.54 16.92-2.84 24.06-10.15 47.38-7.31 23.32-20.69 43.7-5.7 8.08-14.75 9.27-9.05 1.19-17.06-4.5ZM451.77-612.54ZM454.1-860q36.13 0 61.21 24.96 25.07 24.95 25.07 61.04v196.38q0 11.35-7.08 17.02t-15.43 5.67q-8.87 0-15.87-5.93-7-5.94-7-17.37V-774q0-17.26-12-28.94-12-11.67-29-11.67t-28.81 11.67q-11.81 11.68-11.81 28.94v68q0 11.35-7.08 17.02t-15.43 5.67q-8.34 0-15.61-5.78Q368-694.87 368-706v-68q0-36.09 24.98-61.04Q417.97-860 454.1-860Zm-22.79 707.31v-118.7q-92.16-8.69-159.58-72.88-67.42-64.19-76.11-158.73-1.62-9.74 4.92-16.72 6.54-6.97 16.31-6.97t16.16 6.99q6.39 7 7.99 17.08 9.31 81.39 71.15 134.24 61.85 52.84 141.96 52.84 41.35 0 78.77-15.03 37.42-15.03 66.2-41.97l32.61 32.23q-30.61 29.46-70.15 47.12-39.53 17.66-84.85 21.8v118.7q0 9.66-6.57 16.18-6.56 6.51-16.3 6.51-9.74 0-16.13-6.51-6.38-6.52-6.38-16.18Zm377.23 47.53L66.92-846.77q-5.69-6.08-5.88-14.38-.19-8.31 5.88-14.77Q73.39-882 81.69-882q8.31 0 14.39 6.08l741.61 741.61q6.08 6.08 6.27 14.38.19 8.31-6.27 14.77-6.08 6.08-14.38 6.08-8.31 0-14.77-6.08Z"/></svg>