<svg xmlns="http://www.w3.org/2000/svg" width="48" height="48" viewBox="0 -960 960 960"><path d="M157.69-180q-23.59 0-40.64-17.05T100-237.69v-484.62q0-23.59 17.05-40.64T157.69-780h644.62q23.59 0 40.64 17.05T860-722.31v484.62q0 23.59-17.05 40.64T802.31-180H157.69Zm0-45.39h644.62q5.38 0 8.84-3.46t3.46-8.84v-484.62q0-5.38-3.46-8.84t-8.84-3.46H157.69q-5.38 0-8.84 3.46t-3.46 8.84v484.62q0 5.38 3.46 8.84t8.84 3.46Zm88.85-72.3h306.92q12.36 0 20.6-8.25 8.25-8.24 8.25-20.6v-306.92q0-12.36-8.25-20.6-8.24-8.25-20.6-8.25H246.54q-12.36 0-20.6 8.25-8.25 8.24-8.25 20.6v306.92q0 12.36 8.25 20.6 8.24 8.25 20.6 8.25Zm485.73-8.3q8.11-8.3 8.11-19.96 0-11.67-8.29-19.78-8.3-8.12-19.97-8.12-11.66 0-19.77 8.3-8.12 8.3-8.12 19.96 0 11.67 8.3 19.78 8.3 8.12 19.96 8.12t19.78-8.3Zm-469.19-37.09v-273.84h273.84v273.84H263.08Zm469.19-117.14q8.11-8.3 8.11-19.96 0-11.67-8.29-19.78-8.3-8.12-19.97-8.12-11.66 0-19.77 8.3-8.12 8.3-8.12 19.96 0 11.67 8.3 19.78 8.3 8.12 19.96 8.12t19.78-8.3Zm0-154.23q8.11-8.3 8.11-19.96 0-11.67-8.29-19.78-8.3-8.12-19.97-8.12-11.66 0-19.77 8.3-8.12 8.3-8.12 19.96 0 11.67 8.3 19.78 8.3 8.12 19.96 8.12t19.78-8.3ZM145.39-225.39v-509.22 509.22Z"/></svg>