<svg xmlns="http://www.w3.org/2000/svg" width="48" height="48" viewBox="0 96 960 960"><path d="M597.815 710.537q-5.815 0-10.623-2-4.807-2-9.423-6.615L457.847 582q-6.692-6.693-6.577-15.808.115-9.115 7.192-16.192 7.077-7.076 16-7.076T490.461 550L598 657.539l220.308-220.308q6.692-6.692 15.807-6.884 9.115-.193 16.192 6.884t7.077 16.307q0 9.231-7.077 16.308L618.141 702.012q-4.526 4.525-9.518 6.525-4.992 2-10.808 2Zm56.8 197.385h-429.23v30.384q0 5.385 3.462 8.847 3.462 3.462 8.847 3.462h404.612q5.385 0 8.847-3.462 3.462-3.462 3.462-8.847v-30.384Zm0-663.844v-30.384q0-5.385-3.462-8.847-3.462-3.462-8.847-3.462H237.694q-5.385 0-8.847 3.462-3.462 3.462-3.462 8.847v30.384h429.23ZM237.694 995.999q-23.596 0-40.645-17.048-17.048-17.049-17.048-40.645V213.694q0-23.596 17.048-40.645 17.049-17.048 40.645-17.048h404.612q23.596 0 40.645 17.048 17.048 17.049 17.048 40.645v135.999h-45.384v-60.231h-429.23v573.076h429.23v-60.231h45.384v135.999q0 23.596-17.048 40.645-17.049 17.048-40.645 17.048H237.694Zm-12.309-794.614v42.693-42.693Zm0 749.23v-42.693 42.693Z"/></svg>