<svg xmlns="http://www.w3.org/2000/svg" width="48" height="48" viewBox="0 -960 960 960"><path d="m679.77-396.23-32-32.62q7.08-12.07 10.61-25.27 3.54-13.19 3.54-27.5 0-19.21-5.54-37.14-5.53-17.93-18.07-32.32-6.85-7.15-4-15.84 2.84-8.69 9.15-13.35 6.31-4.65 15.92-4.11 9.62.53 17.08 10.69 15.44 19.91 23.14 43.18 7.71 23.28 7.71 48.28 0 22.83-7.2 45.03-7.19 22.2-20.34 40.97Zm81.31 83.54-31.39-33q21.77-29.7 33.35-63.92 11.57-34.23 11.57-71.01 0-42.38-14.38-79.23-14.38-36.84-42.77-68.46-7.08-7.31-4.85-16.11 2.24-8.81 9.74-14.08t17.21-5.08q9.71.18 19.05 11.58 29.54 36.77 45.47 80.84Q820-527.08 820-480.76q0 46.67-15.04 89.79-15.04 43.12-43.88 78.28Zm71.77 246.77-775-785.16q-6.08-6.69-6.58-15.8-.5-9.12 6.58-16.2 7.07-7.07 16-7.07 8.92 0 16 7.07L865.46-97.92q6.69 6.69 6.58 15.8-.12 9.12-7.19 16.2-7.08 7.07-16 7.07-8.93 0-16-7.07ZM274.23-900h408.08q23.59 0 40.64 17.05T740-842.31v51.16q0 9.66-6.57 16.18-6.56 6.51-16.31 6.51-9.74 0-16.12-6.51-6.39-6.52-6.39-16.18v-51.16q0-5.38-3.46-8.84t-8.84-3.46H220q3.08-18.53 18.4-31.96Q253.71-900 274.23-900Zm225.49 177.92q8.51-8.23 8.51-19.84 0-11.62-8.51-19.85-8.5-8.23-19.84-8.23t-19.57 8.23q-8.23 8.23-8.23 19.85 0 11.61 8.23 19.84t19.57 8.23q11.34 0 19.84-8.23ZM277.69-60q-23.59 0-40.64-17.05T220-117.69v-633.62l45.39 46v587.62q0 5.38 3.46 8.84t8.84 3.46h405q5.39 0 8.66-3.46 3.26-3.46 3.26-8.84V-271L740-225v107.31q0 23.59-17.05 40.64T682.31-60H277.69Zm161.62-345.23Zm74.61-145.23Z"/></svg>