<svg xmlns="http://www.w3.org/2000/svg" width="48" height="48" viewBox="0 -960 960 960"><path d="M157.694-260.001q-23.529 0-40.611-17.082-17.082-17.082-17.082-40.611v-484.612q0-23.529 17.082-40.611 17.082-17.082 40.611-17.082h644.612q23.529 0 40.611 17.082 17.082 17.082 17.082 40.611v614.534q0 19.159-17.731 26.502-17.731 7.344-31.346-6.271l-92.461-92.46H157.694Zm580.613-45.384 76.308 80.769v-577.69q0-4.616-3.846-8.463-3.847-3.846-8.463-3.846H157.694q-4.616 0-8.463 3.846-3.846 3.847-3.846 8.463v484.612q0 4.616 3.846 8.463 3.847 3.846 8.463 3.846h580.613Zm-592.922 0v-509.23 509.23Z"/></svg>