<svg xmlns="http://www.w3.org/2000/svg" width="48" height="48" viewBox="0 -960 960 960"><path d="M421-657.152q14.385 0 27.154-5.615 12.769-5.616 22.308-15.462 5-5.846 13.038-6.577 8.039-.73 14.885 4.27 24.23 18.307 42.191 42.114 17.961 23.808 28.654 52.038 3.615 10.231.692 20.962-2.923 10.73-10.538 18.346l-95.847 95.846q-3.077-4.692-6.231-9.269-3.154-4.576-7.23-8.653l-69.845-68.614q-8.616-8.616-20.231-8.616-11.615 0-20.231 8.616l-69.383 69.383q-23.308 23.308-32.577 53.654-9.269 30.345-3.5 61.884 2.77 11.846-8.576 17.615-11.347 5.769-21.116-3.077-9.923-9-18.269-19.577-8.347-10.577-15.5-22.346-16.924-26-26.385-56.885-9.462-30.884-9.462-64.038 0-99.231 51.423-159.422 51.422-60.192 122.883-116.961 10.769-8.693 23.231-2 12.461 6.692 12.461 20.076v26.922q0 31.539 21.923 53.462 21.924 21.924 54.078 21.924Zm-61 162.769 58.461 57.23q4.077 4.077 7.231 8.961 3.153 4.885 4.999 10.192l-95.153 95.538q-8.461 8.077-18.23 7.154t-18.462-9.385q-9.076-8.076-15.115-21.999-6.038-13.923-6.038-33.077 0-16.461 6.423-31.115 6.423-14.653 17.654-25.5L360-494.383Zm168.615 133.382-51.54 51.54v221.385q0 9.923-6.385 16.307-6.384 6.385-16.307 6.385-9.923 0-16.307-6.385-6.385-6.384-6.385-16.307v-176.002L249.767-81.384q-7.077 7.077-16 7.077-8.922 0-15.999-7.077t-7.077-16q0-8.922 7.077-15.999l588.849-588.849q6.692-6.692 15.807-6.885 9.115-.192 16.192 6.885t7.077 15.999q0 8.923-7.077 15.615L657.538-489.155h174.386q9.923 0 16.307 6.385 6.385 6.384 6.385 16.307 0 9.923-6.385 16.307-6.384 6.385-16.307 6.385H611.77l-51.156 51.155 76.155 76.155h195.155q9.923 0 16.307 6.384 6.385 6.384 6.385 16.307 0 9.923-6.385 16.308-6.384 6.384-16.307 6.384H682.152l117.079 117.079q6.692 6.692 6.884 15.807.192 9.115-6.884 16.192-6.692 7.077-15.808 7.077-9.115 0-15.807-7.077L650.153-239.463v151.387q0 9.923-6.385 16.307-6.384 6.385-16.307 6.385-9.923 0-16.307-6.385-6.385-6.384-6.385-16.307v-196.771l-76.154-76.154Z"/></svg>