<svg xmlns="http://www.w3.org/2000/svg" width="48" height="48" viewBox="0 -960 960 960"><path d="M122.511-568.077q-9.741 0-16.125-6.514-6.385-6.514-6.385-16.178v-131.537q0-23.529 17.082-40.611 17.082-17.082 40.611-17.082h644.612q23.529 0 40.611 17.082 17.082 17.082 17.082 40.611v131.537q0 9.664-6.567 16.178-6.567 6.514-16.307 6.514-9.741 0-16.126-6.514-6.384-6.514-6.384-16.178v-131.537q0-4.616-3.846-8.463-3.847-3.846-8.463-3.846H157.694q-4.616 0-8.463 3.846-3.846 3.847-3.846 8.463v131.537q0 9.664-6.567 16.178-6.566 6.514-16.307 6.514Zm35.183 388.076q-23.529 0-40.611-17.082-17.082-17.082-17.082-40.611v-131.537q0-9.664 6.567-16.178 6.567-6.514 16.307-6.514 9.741 0 16.126 6.514 6.384 6.514 6.384 16.178v131.537q0 4.616 3.846 8.463 3.847 3.846 8.463 3.846h644.612q4.616 0 8.463-3.846 3.846-3.847 3.846-8.463v-131.537q0-9.664 6.567-16.178 6.566-6.514 16.307-6.514t16.125 6.514q6.385 6.514 6.385 16.178v131.537q0 23.529-17.082 40.611-17.082 17.082-40.611 17.082H157.694Zm242.164-117.307q6.219 0 11.934-3.039 5.715-3.038 8.669-9.115L560-588.54l59.539 119.078q2.917 6.077 8.557 9.115 5.641 3.039 11.904 3.039h197.307q9.663 0 16.177-6.567 6.515-6.567 6.515-16.307 0-9.741-6.515-16.125-6.514-6.385-16.177-6.385H654.384l-73.923-147.231q-5.912-10.769-20.571-10.769-14.659 0-20.351 10.769L400-371.46l-59.539-119.078q-2.917-6.077-8.557-9.115-5.641-3.039-11.904-3.039H122.693q-9.663 0-16.177 6.567-6.515 6.567-6.515 16.307 0 9.741 6.515 16.125 6.514 6.385 16.177 6.385h182.923l73.923 147.846q2.897 6.077 8.498 9.115 5.601 3.039 11.821 3.039ZM480-480Z"/></svg>