<svg xmlns="http://www.w3.org/2000/svg" width="48" height="48" viewBox="0 -960 960 960"><path d="M367.718-220.001q-22.499 0-41.031-11.116-18.533-11.115-31.533-29.5L163.232-446.154q-10.615-15.414-10.615-33.745 0-18.332 10.615-33.947l131.922-184.768q13-18.385 31.577-29.885t40.962-11.5h394.613q23.596 0 40.645 17.048 17.048 17.049 17.048 40.645v404.612q0 23.596-17.048 40.645-17.049 17.048-40.645 17.048H367.718Zm406.897-45.384v-429.23 429.23Zm-414.845 0h402.536q4.616 0 8.463-3.846 3.846-3.847 3.846-8.463v-404.612q0-4.616-3.846-8.463-3.847-3.846-8.463-3.846H359.824q-5.77 0-10.962 2.885-5.193 2.885-8.27 7.116L201.539-487.308q-2.308 3.077-2.308 7.308t2.308 7.308l138.999 197.306q3.077 4.231 8.27 7.116 5.192 2.885 10.962 2.885ZM374.038-444q15.31 0 25.751-10.249T410.23-480q0-15.502-10.523-25.751T374.231-516q-15.502 0-25.943 10.249-10.442 10.249-10.442 25.751t10.442 25.751Q358.729-444 374.038-444Zm148.731 0q15.502 0 25.751-10.249T558.769-480q0-15.502-10.249-25.751T522.961-516q-15.309 0-25.75 10.249-10.442 10.249-10.442 25.751t10.523 25.751Q507.815-444 522.769-444Zm148.73 0q15.31 0 25.751-10.249T707.691-480q0-15.502-10.523-25.751T671.692-516q-15.502 0-25.943 10.249-10.442 10.249-10.442 25.751t10.442 25.751Q656.19-444 671.499-444Z"/></svg>