<svg xmlns="http://www.w3.org/2000/svg" width="48" height="48" viewBox="0 96 960 960"><path d="M374.846 612q15.117 0 25.558-10.249 10.442-10.249 10.442-25.751t-10.442-25.751Q389.963 540 374.846 540q-15.502 0-25.943 10.249T338.462 576q0 15.502 10.441 25.751T374.846 612Zm148.538 0q15.502 0 25.751-10.249T559.384 576q0-15.502-10.249-25.751T523.384 540q-15.117 0-25.558 10.249-10.441 10.249-10.441 25.751t10.441 25.751Q508.267 612 523.384 612Zm148.923 0q15.117 0 25.558-10.249 10.442-10.249 10.442-25.751t-10.442-25.751Q687.424 540 672.307 540q-15.502 0-25.943 10.249T635.923 576q0 15.502 10.441 25.751T672.307 612ZM370.616 835.999q-22.385 0-40.769-11.5-18.385-11.5-31.769-29.885L166.155 609.846q-10.615-15.587-10.615-33.832t10.615-33.86l131.923-185.537q13-18.385 31.576-29.5 18.577-11.116 40.962-11.116h389.998q23.596 0 40.644 17.048 17.048 17.049 17.048 40.645v404.612q0 23.596-17.048 40.645-17.048 17.048-40.644 17.048H370.616Z"/></svg>