<svg xmlns="http://www.w3.org/2000/svg" width="48" height="48" viewBox="0 -960 960 960"><path d="M559.61-101.54q-6.07 0-10.72-3.04-4.66-3.04-8.26-8.67-3.71-5.25-4.01-11.54-.31-6.3 3.53-11.98l160-279q2.85-6.08 8.45-9.12 5.6-3.03 12.06-3.03 6 0 10.98 3.03 4.97 3.04 8.82 8.12l160 280q3.46 6.21 3.15 12.31-.3 6.11-4.15 11-3.86 5.77-8.85 8.84-5 3.08-11 3.08h-320Zm169.93-36.45q4.31-4.14 4.31-9.92t-4.31-9.9q-4.31-4.11-9.98-4.11-5.67 0-9.73 4.14-4.06 4.14-4.06 9.92t4.06 9.9q4.06 4.11 9.73 4.11 5.67 0 9.98-4.14Zm0-69.17q4.31-4.07 4.31-9.76v-131.16q0-5.69-4.31-9.77-4.31-4.07-9.98-4.07-5.67 0-9.73 4.07-4.06 4.08-4.06 9.77v131.16q0 5.69 4.06 9.76 4.06 4.08 9.73 4.08 5.67 0 9.98-4.08ZM157.69-100q-23.53 0-40.61-17.08T100-157.69v-133.93q0-9.66 6.57-16.17 6.56-6.52 16.31-6.52 9.74 0 16.12 6.52 6.39 6.51 6.39 16.17v133.93q0 4.61 3.84 8.46 3.85 3.84 8.46 3.84h133.93q9.66 0 16.17 6.57 6.52 6.57 6.52 16.31 0 9.74-6.52 16.12-6.51 6.39-16.17 6.39H157.69ZM100-668.38v-133.93q0-23.53 17.08-40.61T157.69-860h133.93q9.66 0 16.17 6.57 6.52 6.56 6.52 16.31 0 9.74-6.52 16.12-6.51 6.39-16.17 6.39H157.69q-4.61 0-8.46 3.84-3.84 3.85-3.84 8.46v133.93q0 9.66-6.57 16.17-6.57 6.52-16.31 6.52-9.74 0-16.12-6.52-6.39-6.51-6.39-16.17Zm379.57 251.07q-25.49 0-43.88-18.45-18.38-18.44-18.38-44.42 0-25.74 18.45-44.13 18.44-18.38 44.42-18.38 25.74 0 44.13 18.39 18.38 18.39 18.38 44.73 0 25.49-18.39 43.88-18.39 18.38-44.73 18.38Zm335.04-251.07v-133.93q0-4.61-3.84-8.46-3.85-3.84-8.46-3.84H668.38q-9.66 0-16.17-6.57-6.52-6.57-6.52-16.31 0-9.74 6.52-16.12 6.51-6.39 16.17-6.39h133.93q23.53 0 40.61 17.08T860-802.31v133.93q0 9.66-6.57 16.17-6.56 6.52-16.31 6.52-9.74 0-16.12-6.52-6.39-6.51-6.39-16.17ZM237.85-443.46q-10.28 0-16.18 9.42T219-413.69q18.23 71.92 69.92 123.5 51.7 51.57 123.23 70.19 11.31 3.23 21-2.15 9.7-5.39 9.7-16.88 0-8.12-6.4-14.87-6.39-6.75-14.6-8.87-59.16-16.15-101.93-58.73-42.77-42.58-58.15-101.73-2.23-8.69-8.86-14.46-6.63-5.77-15.06-5.77Zm.61-73.08q-10.27 0-16.17-9.42-5.9-9.42-2.67-20.35 18.23-71.92 69.73-123.5 51.5-51.57 123.42-70.57 11.31-2.85 21 2.53 9.69 5.39 9.69 16.88 0 8.12-6.2 14.87t-14.41 8.87q-59.16 16.15-102.12 58.73-42.96 42.58-58.35 101.73-2.23 8.69-8.85 14.46-6.63 5.77-15.07 5.77Zm483.69 0q10.28 0 16.18-9.42t2.67-20.35q-18.23-71.92-69.92-123.5-51.7-51.57-123.23-70.57-11.31-2.85-21 2.53-9.7 5.39-9.7 16.88 0 8.12 6.16 14.82 6.15 6.69 14.84 8.92 59.16 16.15 101.93 58.73 42.77 42.58 58.15 101.73 2.23 8.69 8.86 14.46 6.63 5.77 15.06 5.77Z"/></svg>