<svg xmlns="http://www.w3.org/2000/svg" width="48" height="48" viewBox="0 -960 960 960"><path d="M205.385-747v534Q184.923-234.438 168-259.189t-30.308-50.966v-339.69Q151.077-676.06 168-700.811q16.923-24.751 37.385-46.189Zm140.769-91.615v717.23q-25.615-9.939-49.654-22.639-24.039-12.7-45.731-29.746v-612.844q21.692-16.662 45.731-29.362t49.654-22.639ZM572.307-108v-744q126 31.077 208.192 133.616Q862.692-615.846 862.692-480t-82.193 238.384Q698.307-139.077 572.307-108ZM480-97.308q-22.693 0-44.616-2.577t-43.846-7.346v-745.538q21.923-4.769 43.846-7.346T480-862.692q12.539 0 24.128.885 11.59.885 22.796 2.269v759.076q-11.206 1.385-22.796 2.27-11.589.884-24.128.884Z"/></svg>