<svg xmlns="http://www.w3.org/2000/svg" width="48" height="48" viewBox="0 0 48 48"><path d="M15.95 26.9q-1.15 0-2-.85-.85-.85-.85-2V7.95q0-1.15.85-2 .85-.85 2-.85h16.1q1.15 0 2 .85.85.85.85 2v16.1q0 1.15-.85 2-.85.85-2 .85Zm0-2.25h16.1q.25 0 .425-.175t.175-.425V7.95q0-.25-.175-.425t-.425-.175h-16.1q-.25 0-.425.175t-.175.425v16.1q0 .25.175.425t.425.175Zm16.7 10.25v-2.25h2.25v2.25Zm-19.55 0v-2.25h2.25v2.25Zm9.75 8v-2.25h2.3v2.25ZM24 16Zm8.65 26.9v-2.25h2.25q0 .9-.675 1.575-.675.675-1.575.675Zm-17.3 0q-.9 0-1.575-.675-.675-.675-.675-1.575h2.25Z"/></svg>