<svg xmlns="http://www.w3.org/2000/svg" width="48" height="48" viewBox="0 -960 960 960"><path d="M457.308-517.614v-170.924q0-9.913 6.391-16.302 6.392-6.39 16.308-6.39t16.3 6.39q6.385 6.389 6.385 16.302v170.924l69.77-69.77q3.846-3.846 8-5.461 4.153-1.616 8.307-1.616 4.154 0 8.615 1.423 4.462 1.423 7.692 5.269 7.077 7.077 7.077 16.5t-7.077 16.115L500.231-450.308q-4.616 5-9.475 7t-10.807 2q-5.949 0-10.757-2-4.807-2-9.423-7L354.924-555.154q-2.846-3.461-4.77-7.615-1.923-4.154-1.615-8.308.308-4.153 2.039-8.807 1.73-4.654 4.961-7.885 7.077-6.692 16.307-6.692 9.231 0 16.308 7.077l69.154 69.77ZM197.694-140.001q-23.529 0-40.611-17.082-17.082-17.082-17.082-40.611v-564.612q0-23.529 17.082-40.611 17.082-17.082 40.611-17.082h564.612q23.529 0 40.611 17.082 17.082 17.082 17.082 40.611v564.612q0 23.529-17.082 40.611-17.082 17.082-40.611 17.082H197.694Zm0-45.384h564.612q5.385 0 8.847-3.462 3.462-3.462 3.462-8.847v-127.153H623.999q-22.923 39.616-62.001 60.923-39.078 21.308-82.076 21.308-42.999 0-81.999-21.308-38.999-21.307-61.922-60.923H185.385v127.153q0 5.385 3.462 8.847 3.462 3.462 8.847 3.462ZM480.065-288q34.166 0 63.281-17.115 29.115-17.115 44.961-47.731 6.231-10 17.347-13.692 11.115-3.692 23.004-3.692h145.957v-392.076q0-5.385-3.462-8.847-3.462-3.462-8.847-3.462H197.694q-5.385 0-8.847 3.462-3.462 3.462-3.462 8.847v392.076h146.231q11.615 0 22.73 3.692 11.116 3.692 17.347 13.692 15.846 30.616 45.026 47.731Q445.9-288 480.065-288ZM197.694-185.385h-12.309 589.23-576.921Z"/></svg>