<svg xmlns="http://www.w3.org/2000/svg" width="48" height="48" viewBox="0 -960 960 960"><path d="M796.232-252.924H610.077q-9.644 0-16.168-6.58-6.524-6.581-6.524-16.308t6.524-16.111q6.524-6.385 16.168-6.385h186.155l-64.309-65.308q-6.077-6.693-6.577-16-.5-9.308 6.092-15.899 6.793-6.793 16.1-6.601 9.308.193 16 6.885l99.384 99.384q8.615 8.686 8.615 20.266 0 11.58-8.615 20.196l-99.769 99.769q-6.692 6.692-15.615 6.692t-16.083-6.759q-6.609-6.626-6.109-15.933.5-9.308 6.193-16l64.693-65.308ZM401.904-377.308q47.185 0 85.794-21.5 38.609-21.5 63.224-57.269-32.461-23.307-69.946-34.961-37.486-11.654-79.231-11.654t-79.052 11.654q-37.308 11.654-69.769 34.961 24.615 35.769 63.205 57.269t85.775 21.5Zm.3-200q26.027 0 44.219-18.473t18.192-44.5q0-26.026-18.302-44.219-18.303-18.192-44.478-18.192-25.835 0-44.219 18.302-18.385 18.303-18.385 44.479 0 25.834 18.473 44.218 18.473 18.385 44.5 18.385Zm-.281 89.616Zm-.154 369.998q-9.307 0-18.461-2.923-9.154-2.923-16.384-9.769-37-33.769-83.308-80.768-46.307-47-87.153-102.077-40.846-55.077-68.654-115.731-27.808-60.653-27.808-121.115 0-138.46 89.577-224.191 89.576-85.731 212.345-85.731t212.346 85.731q89.576 85.731 89.576 224.191 0 13.439-.885 27.624-.884 14.185-5.192 28.76h-47.999q3.846-14.307 6.269-28.583 2.423-14.276 2.423-27.801 0-115.808-73.56-190.365Q511.34-815 401.923-815q-109.416 0-182.977 74.558-73.561 74.557-73.561 190.365 0 75.77 66.731 177.154 66.731 101.385 189.807 213.154 24.154-20.77 45.193-42.116 21.038-21.346 40.808-41.885.384 0 5.576 4.731 5.193 4.731 11.382 10.346t11.423 10.384l5.233 4.769q-20.231 21.616-41.654 42.731-21.423 21.115-42.577 40.039-7.092 6.846-16.574 9.961-9.482 3.115-18.964 3.115Z"/></svg>