<svg xmlns="http://www.w3.org/2000/svg" width="48" height="48" viewBox="0 96 960 960"><path d="M573.944 689.846q8.71 0 14.306-5.776 5.596-5.775 5.596-14.609v-41.846H688q12.88 0 21.594-8.545 8.713-8.545 8.713-21.763v-104.23q0-13.142-8.713-22.032-8.714-8.891-21.594-8.891H582.308q-12.26 0-20.553 8.294-8.293 8.293-8.293 20.552v178.461q0 8.834 5.803 14.609 5.804 5.776 14.679 5.776Zm19.902-102.615v-84.693h84.077v84.693h-84.077ZM261.363 689.846q8.791 0 14.445-5.776 5.653-5.775 5.653-14.609V502.538h64.693v105.077q0 8.667 5.804 14.333 5.803 5.667 14.679 5.667 8.709 0 14.305-5.667 5.596-5.666 5.596-14.333V502.538h64.078v166.923q0 8.834 5.747 14.609 5.748 5.776 14.539 5.776 8.79 0 14.444-5.776Q491 678.295 491 669.461V493.077q0-13.142-8.714-22.032-8.713-8.891-21.594-8.891H271.385q-13.217 0-21.762 8.891-8.545 8.89-8.545 22.032v176.384q0 8.834 5.747 14.609 5.748 5.776 14.538 5.776Zm-63.669 226.153q-23.529 0-40.611-17.082-17.082-17.082-17.082-40.611V293.694q0-23 17.082-40.346 17.082-17.347 40.611-17.347h564.612q23 0 40.346 17.347 17.347 17.346 17.347 40.346v564.612q0 23.529-17.347 40.611-17.346 17.082-40.346 17.082H197.694Z"/></svg>