<svg xmlns="http://www.w3.org/2000/svg" width="48" height="48" viewBox="0 -960 960 960"><path d="m715.306-330.001-40.922-40.922 103.538-103.538q2.693-3.077 2.693-6.539 0-3.462-2.693-6.154L484.539-780.537q-2.693-2.693-6.347-2.885-3.654-.193-7.116 2.885L367.539-677l-40.923-41.922 111.923-111.537q15.615-16 39.769-16.193 24.153-.192 40.153 15.808l307.768 308.767q16.615 16.616 16.5 40.885-.116 24.269-16.116 39.884L715.306-330.001Zm-195.46 196.845q-17 17.231-41.038 17.231-24.039 0-41.269-17.231L130.156-440.539q-16.615-16.615-16.615-40.961t16.615-41.346L247.54-640.23 98.617-790.153q-6.462-6.692-6.462-16.115 0-9.423 6.462-15.5 6.692-7.077 15.615-7.077t15.999 7.077l691.614 691.229q6.692 7.076 6.692 16.192 0 9.115-6.692 15.807-7.077 7.077-16.192 7.077-9.116 0-15.808-7.077l-153-153-116.999 118.384Zm-341.383-341.69 292.998 293.383q3.077 3.078 6.731 3.078t6.347-3.078l110.384-110.384-55.539-55.539-41.153 39.768q-8.616 7.616-20.539 7.116-11.923-.5-19.923-8.116L306.618-460.154q-8.616-8.615-8.616-20.538t9-20.923l39.999-37.769-58.539-58.539-109.999 109.999q-3.078 3.078-3.078 6.732 0 3.654 3.078 6.346Zm438.613 47.383L424.463-620.076l33.306-33.306q8.616-8.616 20.039-8.616 11.423 0 20.038 8.616l152.536 152.536q8.616 8.615 8.616 20.038t-8.616 20.423l-33.306 32.922Z"/></svg>