<svg xmlns="http://www.w3.org/2000/svg" width="48" height="48" viewBox="0 0 48 48"><path d="M17 42.5q-.95 0-1.6-.65-.65-.65-.65-1.6h8.1v-8.8q-5.05-.6-8.45-4.275Q11 23.5 11 18.45q0-5.45 3.775-9.225Q18.55 5.45 24 5.45q5.45 0 9.225 3.775Q37 13 37 18.45q0 5.05-3.4 8.725t-8.45 4.275v8.8h8.1q0 .95-.65 1.6-.65.65-1.6.65Zm7-13.35q4.5 0 7.625-3.1t3.125-7.6q0-4.5-3.125-7.625T24 7.7q-4.5 0-7.625 3.125T13.25 18.45q0 4.5 3.125 7.6 3.125 3.1 7.625 3.1Zm0-6.55q-1.75 0-2.95-1.2-1.2-1.2-1.2-2.95 0-1.75 1.2-2.95 1.2-1.2 2.95-1.2 1.75 0 2.95 1.2 1.2 1.2 1.2 2.95 0 1.75-1.2 2.95-1.2 1.2-2.95 1.2Z"/></svg>