<svg xmlns="http://www.w3.org/2000/svg" width="48" height="48" viewBox="0 -960 960 960"><path d="M129.69-306.02q-20.07-20.32-20.07-48.54V-632.7q0-28.61 20.14-48.68 20.15-20.08 48.77-20.08 28.24 0 48.32 19.77 20.07 19.77 20.07 48.08 30.31-57.77 86.89-93.08Q390.39-762 460-762q48.05 0 91.95 18.16 43.9 18.15 77.82 52.07l174.69 174.31q7.61 8.03 11.92 18.94 4.31 10.9 4.31 21.52t-4.31 21.52q-4.31 10.91-11.92 18.56l-258 258.38q-8.71 8.67-19.09 12.95-10.37 4.28-21.37 4.28-11 0-21.86-4.28t-19.6-12.95L290.23-352.23q-13.23-12.85-24.15-27.58-10.92-14.73-19.16-30.58v55.85q0 28.21-20.14 48.53-20.15 20.32-48.58 20.32t-48.51-20.33Z"/></svg>