<svg xmlns="http://www.w3.org/2000/svg" width="48" height="48" viewBox="0 -960 960 960"><path d="M480-171.542q-54.153 0-91.884-37.731-37.73-37.73-37.73-91.883t37.73-91.884q37.731-37.73 91.884-37.73t91.884 37.73q37.73 37.731 37.73 91.884t-37.73 91.883Q534.153-171.542 480-171.542Zm0-588.457q-86.999 0-163.999 29.077-76.999 29.077-138.691 82.846-7.692 6.077-17.23 6.577t-16.615-6.577q-6.692-6.461-6.192-16.192t7.192-15.807q68.384-59.077 152.537-92.192Q381.155-805.382 480-805.382q98.845 0 182.998 33.115 84.153 33.115 152.537 92.192 6.692 6.076 7.385 15.807.692 9.731-6.385 16.192-6.692 7.077-16.422 6.577-9.731-.5-17.423-6.577-61.692-53.769-138.691-82.846-77-29.077-163.999-29.077Zm0 187.306q-49.154 0-91.538 15.039-42.384 15.038-80.307 43.038-8.307 6.077-17.73 5.654-9.423-.423-17.115-7.5-6.692-6.077-6.192-15.192t7.807-15.192q44.769-34.076 96.076-52.653Q422.308-618.076 480-618.076q57.692 0 108.691 18.577 51 18.577 95.769 52.653 7.307 6.077 7.615 15.192.307 9.115-6 15.192-7.077 7.077-16.692 7.5-9.615.423-17.538-5.654-36.923-28-79.807-43.038-42.884-15.039-92.038-15.039Z"/></svg>