<svg xmlns="http://www.w3.org/2000/svg" width="48" height="48" viewBox="0 96 960 960"><path d="M508.538 875.075q-12.077 0-23.115-4.615-11.038-4.615-20.884-12.461l-159-132.923q-26-22-44.038-47.461-18.038-25.462-28.885-56.231-11 12.923-25.615 19.923-14.615 7-30.077 7h-71.538V354.463h71.538q27.846 0 48.615 17.923 20.77 17.923 23.846 49.385 34.154-56.538 90.346-90.385 56.191-33.846 125.5-33.846 43.538 0 79.845 14.846 36.308 14.846 68.615 41.538l160 132.923q11.461 9.846 18.692 24.307 7.231 14.462 7.231 29.539 0 11.461-3.616 23.307-3.615 11.846-13.461 23.307l-216.922 261.23q-10.462 12.846-26.731 19.692-16.269 6.846-30.346 6.846Z"/></svg>