<svg xmlns="http://www.w3.org/2000/svg" width="48" height="48" viewBox="0 -960 960 960"><path d="M214.847-377.845q-10.538-10.539-9.538-24.115 1-13.577 11.538-22.884 55.538-48.462 122.461-76.423Q406.231-529.229 480-529.229q31.538 0 61.846 5.539 30.307 5.538 59.999 15.384 12.769 4.462 18.461 17.423 5.693 12.961.846 25.73-4.461 12.769-17.73 18.269-13.269 5.5-26.038 1.038-24.23-7.846-48.384-11.961t-49-4.115q-60.385 0-115.346 22.692-54.962 22.692-100.577 61.461-11.154 9.693-25.423 9.577-14.269-.115-23.807-9.653ZM480-769.229q121.538 0 231.961 45.654 110.423 45.654 199.961 127.115 10.538 9.923 12.154 24.308 1.615 14.384-8.923 24.922t-25.115 9.654q-14.577-.885-26.115-11.193-80.615-70.538-178.692-111.846Q587.154-701.922 480-701.922t-205.231 41.307q-98.077 41.308-178.692 111.846-11.538 10.308-25.807 11.193-14.27.884-24.807-9.654-10.539-10.538-9.231-24.922 1.308-14.385 11.846-24.308 89.538-81.461 199.961-127.115Q358.462-769.229 480-769.229Zm212.923 664.843q-25.308-6.23-44.115-17.346-18.808-11.115-33.193-26.423l-15.461 7.231q-8.308 4.23-16.615 1.692-8.308-2.538-13.769-9.846l-2.461-4.077q-5.462-8.307-4.231-16.922 1.231-8.616 9.307-15.077l13.077-10.461q-6.923-21.693-6.923-44.962 0-23.269 6.923-44.962L572.385-296q-7.692-5.693-9.307-15-1.615-9.307 3.846-17.615l2.846-4.077q5.461-7.923 14.077-10.153 8.615-2.231 17.307 2l14.461 7.615q14-15.077 33-26.192 19-11.116 44.308-17.347l1.231-18.538q1.231-8.307 7.807-14.769 6.577-6.461 14.885-6.461h4.307q8.308 0 14.577 5.961 6.269 5.962 7.5 14.654l1.846 19.153q25.308 6.231 44.308 17.347 19 11.115 33 26.192l14.461-7.615q8.307-4.231 17.115-2 8.807 2.23 14.269 10.153l2.461 4.077q5.462 8.308 4.231 17.423-1.231 9.115-9.307 15.192l-13.077 10.461q6.923 21.693 6.923 44.962 0 23.269-6.923 44.962l13.077 10.461q7.692 6.077 9.307 14.884 1.615 8.808-3.846 17.115l-2.846 4.692q-5.846 7.308-13.961 9.539-8.116 2.23-16.423-2l-15.461-7.231q-14.385 15.308-33.193 26.423-18.807 11.116-44.115 17.346l-1.846 18.538q-1.231 8.693-7.5 14.654-6.269 5.962-14.577 5.962h-4.307q-8.308 0-14.885-6.27-6.576-6.269-7.807-14.96l-1.231-17.924ZM718.692-340q-42.462 0-70.885 28.423-28.423 28.423-28.423 70.884 0 42.077 28.423 70.5 28.423 28.423 70.885 28.423 42.077 0 70.5-28.423 28.423-28.423 28.423-70.5 0-42.461-28.423-70.884Q760.769-340 718.692-340Zm-312.46 144.847q0-29.23 17.846-51.307 17.846-22.076 45.691-22.076 4.616 0 7.423 3 2.808 3 2.808 7.23v127.691q0 4.615-2.615 7.115-2.616 2.5-7.231 2.5-28.23 0-46.076-22.269t-17.846-51.884Z"/></svg>