<svg xmlns="http://www.w3.org/2000/svg" width="48" height="48"><path d="M16.35 39q-.35 0-.7-.175t-.5-.525l-3.95-7.05h3.2l2 3.75h4.2v-1.4h-3.35l-2.05-3.75h-4.75L7.5 24.7q-.05-.15-.125-.35-.075-.2-.075-.35 0-.15.075-.35.075-.2.125-.4l2.95-5.1h4.75l2.05-3.75h3.35V13h-4.2l-2 3.75h-3.2l3.95-7.05q.15-.35.5-.525Q16 9 16.35 9h5.5q.6 0 1.025.425.425.425.425 1.025v8.15h-3.95l-1.4 1.4h5.35v6.1h-4.5l-1.9-3.75h-4.35l-1.4 1.4H16l1.9 3.75h5.4v10.05q0 .6-.425 1.025Q22.45 39 21.85 39zm9.8 0q-.6 0-1.025-.425-.425-.425-.425-1.025V27.5h5.4l1.9-3.75h4.85l-1.4-1.4H31.1l-1.85 3.75H24.7V20h5.35l-1.4-1.4H24.7v-8.15q0-.6.425-1.025Q25.55 9 26.15 9h5.5q.35 0 .7.175t.5.525l3.95 7.05h-3.2l-2-3.75h-4.2v1.4h3.35l2 3.75h4.8l2.95 5.1q.05.2.125.4t.075.35q0 .15-.075.35-.075.2-.125.35l-2.95 5.15h-4.8l-2 3.75H27.4V35h4.2l2-3.75h3.2l-3.95 7.05q-.15.35-.5.525-.35.175-.7.175z"/></svg>