<svg xmlns="http://www.w3.org/2000/svg" width="48" height="48" viewBox="0 -960 960 960"><path d="M141.924-548.923q72.692-56.538 158.807-88.423Q386.846-669.23 480-669.23q93.154 0 179.269 31.884 86.115 31.885 158.807 88.423l46.231-46.231q-83.461-64.077-180.953-101.769Q585.862-734.615 480-734.615q-105.862 0-203.354 37.692-97.492 37.692-180.953 101.769l46.231 46.231Zm306.077 368.075L65.463-563.001q-7.077-7.118-10.423-16.042-3.346-8.923-3.346-17.347 0-10.225 4.346-19.619 4.346-9.393 13.038-16.375 89.846-71.384 192.615-109.499Q364.462-779.999 480-779.999q115.538 0 218.307 38.116 102.769 38.115 192.615 109.499 8.692 7.031 13.038 16.487t4.346 19.666q0 8.538-3.346 17.346-3.346 8.807-10.423 15.884L512.384-180.848q-7.077 7.077-15.384 10.116-8.308 3.038-17 3.038t-17-3.038q-8.307-3.039-14.999-10.116Z"/></svg>