<svg xmlns="http://www.w3.org/2000/svg" width="48" height="48" viewBox="0 -960 960 960"><path d="M157.694-140.001q-23.529 0-40.611-17.082-17.082-17.082-17.082-40.611v-444.612q0-23.529 17.082-40.611 17.082-17.082 40.611-17.082h182.307v-82.306q0-23.529 17.082-40.61 17.082-17.082 40.611-17.082h164.612q23.529 0 40.611 17.082 17.082 17.081 17.082 40.61v82.306h182.307q23.529 0 40.611 17.082 17.082 17.082 17.082 40.611v444.612q0 23.529-17.082 40.611-17.082 17.082-40.611 17.082H157.694Zm227.691-559.998h189.23v-82.306q0-4.616-3.846-8.462-3.847-3.847-8.463-3.847H397.694q-4.616 0-8.463 3.847-3.846 3.846-3.846 8.462v82.306ZM522.154-420l-103.23 103.231q-4.462 4.906-4.654 10.952-.192 6.047 4.654 10.893 4.846 4.846 10.922 4.846 6.077 0 10.923-4.846l104.846-104.845q8.615-8.686 8.615-20.266 0-11.58-8.615-20.196L439.769-545.692q-4.461-4.461-10.538-4.654-6.077-.192-10.923 4.654t-4.846 10.731q0 5.884 4.846 10.73L522.154-420Z"/></svg>