<svg xmlns="http://www.w3.org/2000/svg" width="48" height="48" viewBox="0 -960 960 960"><path d="M431.693-859.999h290.613q23.981 0 40.837 17.082t16.856 40.611v495.305q0 9.664-6.567 16.178-6.567 6.514-16.307 6.514-9.741 0-16.126-6.514-6.384-6.514-6.384-16.178v-495.305q0-4.616-3.846-8.463-3.847-3.846-8.463-3.846H428.923l-84.538 84.539q-6.692 6.692-16.615 6.884-9.923.192-17-6.493-6.692-7.084-6.692-16.814 0-9.731 7.077-16.807l79.076-79.462q8-7.615 18.701-12.423t22.761-4.808ZM237.694-100.001q-23.529 0-40.611-17.082-17.082-17.082-17.082-40.611v-446.152q0-11.895 4.517-22.915t13.099-18.546L218.925-666 78.847-806.077q-6.692-6.692-6.884-15.807-.192-9.115 6.885-16.583 7.076-6.301 16-6.301 8.922 0 15.999 6.692l742.69 742.69q6.693 6.693 6.885 16.158.192 9.465-6.493 16-7.622 6.919-16.568 6.919-8.946 0-15.823-7.077L253.155-632.77 225.385-605v447.306q0 4.616 3.846 8.463 3.847 3.846 8.463 3.846h484.612q4.616 0 8.463-3.846 3.846-3.847 3.846-8.463v-56.229l45.384 45.383v10.846q0 23.529-17.082 40.611-17.082 17.082-40.611 17.082H237.694ZM535-506.231Zm-39.461 115.076Z"/></svg>