<svg xmlns="http://www.w3.org/2000/svg" width="48" height="48"><path d="M42.9 44.5q-.3.4-.775.4-.475 0-.825-.4l-6.25-6.15h.85v1.05q.05.65-.4 1.125T34.4 41q-.6 0-1.05-.45-.45-.45-.45-1.05v-2.6H15.1v2.6q0 .65-.425 1.075Q14.25 41 13.6 41q-.6 0-1.025-.425-.425-.425-.425-1.075v-3.55Q10.8 35.4 9.9 33.9 9 32.4 9 30.6V12.25l-5.65-5.7Q3 6.25 3 5.775q0-.475.35-.825t.825-.35q.475 0 .775.35L42.9 42.9q.35.35.375.8.025.45-.375.8zm-27.55-9.85H31.4l-10.35-10.3h-9.8v6q0 1.7 1.175 3t2.925 1.3zm22.9-1.05-1.5-1.5v-7.75h-7.8l-2.25-2.3h10.05v-9.4H17.3L15 10.4h21.8q-.95-1.55-4.2-2.35t-8.55-.8q-4 0-6.65.325-2.65.325-4.2.975L11.65 7q1.8-1 4.85-1.5t7.55-.5q7.85 0 11.4 1.5Q39 8 39 11.35V30.6q0 .8-.2 1.55t-.55 1.45zM16.5 31.9q1 0 1.7-.7t.7-1.7q0-1.05-.7-1.75t-1.7-.7q-1 0-1.725.7-.725.7-.725 1.75 0 1 .725 1.7t1.725.7zm-5.25-9.85h7.55l-7.55-7.5zM15 10.4h21.8zm6.05 13.95zm7.9 0h7.8z"/></svg>