<svg xmlns="http://www.w3.org/2000/svg" width="48" height="48" viewBox="0 -960 960 960"><path d="M792.385-103.386 598.078-296.693h-113.77q-27.538 0-46.307-18.577-18.77-18.576-18.77-46.115v-114.154L102.386-792.385q-6.692-6.692-6.692-16.115 0-9.422 6.692-16.499 7.077-6.692 16.5-6.692t16.115 6.692l689.998 689.614q6.308 6.692 6.5 15.999.192 9.308-6.5 16-7.077 7.077-16.499 7.077-9.423 0-16.115-7.077ZM399.077-89.231q-79.153 0-133.538-54.385Q211.155-198 211.155-277.154q0-71.077 50.692-124.461Q312.539-455 386.539-462.23v45.999q-59.385 5-94.693 47.23-35.308 42.231-35.308 91.847 0 59.693 41.423 101.116 41.424 41.423 101.116 41.423 52.077 0 93.193-35.231 41.115-35.231 45.885-94.154h45.999q-6.847 76.076-61.346 125.422-54.5 49.347-123.731 49.347Zm84.462-635.538q-28.846 0-48.808-20.153-19.961-20.154-19.961-48.615 0-28.462 19.961-48.616 19.962-20.153 48.808-20.153 28.461 0 48.615 20.153 20.153 20.154 20.153 48.616 0 28.461-20.153 48.615-20.154 20.153-48.615 20.153Zm265.306 237.308q0 9.922-7.076 16.115-7.077 6.192-16.385 4.576-48.923-8.154-92.73-32.654-43.808-24.5-82.423-60.423l-8.078-8.462v58.154L422.616-629.692q6.846-18.538 22.423-29.423 15.577-10.884 36.884-10.884 18.692 0 32.115 7.461 13.423 7.462 30.039 24.847l33.769 36.384q27.923 30.923 67.231 55.923 39.307 25 81.077 33 9.922 1.615 16.307 8.308 6.384 6.692 6.384 16.615Z"/></svg>