<svg xmlns="http://www.w3.org/2000/svg" width="48" height="48"><path d="m25.65 29.65 7.45-5.05q.2-.15.275-.275.075-.125.075-.325t-.075-.35q-.075-.15-.275-.25l-7.45-5.05q-.4-.25-.775-.025T24.5 19v10q0 .45.375.675.375.225.775-.025zM18.4 30.7q.5 0 .8-.325.3-.325.3-.825V18.4q0-.45-.3-.775t-.8-.325q-.5 0-.825.325-.325.325-.325.825V29.6q0 .45.325.775t.825.325zM24 43q-4 0-7.475-1.45-3.475-1.45-6.05-4.025Q7.9 34.95 6.45 31.475 5 28 5 24q0-3.95 1.45-7.425 1.45-3.475 4.025-6.05 2.575-2.575 6.05-4.05Q20 5 24 5q3.95 0 7.425 1.475 3.475 1.475 6.05 4.05 2.575 2.575 4.05 6.025Q43 20 43 24t-1.475 7.475q-1.475 3.475-4.05 6.05Q34.9 40.1 31.45 41.55 28 43 24 43z"/></svg>