<svg xmlns="http://www.w3.org/2000/svg" width="48" height="48" viewBox="0 -960 960 960"><path d="M202.693-204.616q-9.903 0-16.297-6.398-6.395-6.398-6.395-16.307 0-9.909 6.395-16.294 6.394-6.384 16.297-6.384h49.616v-315.924q0-81.308 49.307-144.923 49.308-63.615 128.385-78.692v-20.461q0-20.833 14.57-35.416 14.57-14.584 35.384-14.584t35.429 14.584q14.615 14.583 14.615 35.416v20.461q79.077 15.077 128.385 78.692 49.307 63.615 49.307 144.923v315.924h49.616q9.903 0 16.297 6.398 6.395 6.398 6.395 16.307 0 9.909-6.395 16.294-6.394 6.384-16.297 6.384H202.693ZM480-499.307Zm-.068 406.998q-29.855 0-51.047-21.24-21.192-21.24-21.192-51.067h144.614q0 29.923-21.26 51.115-21.26 21.192-51.115 21.192Zm-182.24-157.69h364.616v-315.924q0-75.77-53.269-129.039-53.27-53.269-129.039-53.269-75.769 0-129.039 53.269-53.269 53.269-53.269 129.039v315.924ZM156.731-567.923q-10.115 0-16.499-6.885-6.385-6.884-5.769-16.807 4.461-66.384 32.615-124.307 28.153-57.923 74.153-101.384 7.692-7.462 17.499-7.539 9.808-.077 15.885 7.654 6.461 8.115 4.923 17.922-1.539 9.808-9.231 16.5-38.077 37.154-61.538 85.154-23.462 48-27.923 104.231-1.615 10.538-7.807 17.999-6.193 7.462-16.308 7.462Zm646.73 0q-10.307 0-16.5-7.462-6.192-7.461-7.807-17.999-4.461-56.231-27.731-104.039-23.269-47.807-61.345-84.961-7.828-7.042-9.684-16.867-1.855-9.825 4.607-17.94 6.461-7.731 16.269-7.461 9.807.269 17.499 7.73 46 43.462 74.153 101.192 28.154 57.731 32.615 124.115.616 9.923-5.778 16.807-6.394 6.885-16.298 6.885Z"/></svg>