<svg xmlns="http://www.w3.org/2000/svg" width="48" height="48" viewBox="0 -960 960 960"><path d="M479.932-92.309q-29.855 0-51.047-21.24-21.192-21.24-21.192-51.067h144.614q0 29.923-21.26 51.115-21.26 21.192-51.115 21.192ZM202.693-204.616q-9.644 0-16.168-6.58-6.524-6.58-6.524-16.307 0-9.727 6.524-16.112 6.524-6.384 16.168-6.384h49.616v-315.924q0-80.692 49-144.615 49-63.923 128.692-79.192v-20.269q0-20.833 14.57-35.416 14.57-14.584 35.384-14.584t35.429 14.584q14.615 14.583 14.615 35.416v22.189q9.539 1.118 18.359 3.58 8.819 2.461 16.334 5.615 8.692 3 13.731 11.5 5.038 8.5 3.423 17.808-1.616 9.307-9.923 14.384-8.308 5.077-17.23 2.23-21.462-7.769-37.577-11.653Q501-748.231 480-748.231q-75.769 0-129.039 53.269-53.269 53.269-53.269 129.039v315.924h364.616v-91q0-11.346 7.012-17.019 7.013-5.673 15.428-5.673 8.415 0 15.679 5.673 7.264 5.673 7.264 17.019v91h49.616q9.644 0 16.168 6.58 6.524 6.58 6.524 16.307 0 9.727-6.524 16.112-6.524 6.384-16.168 6.384H202.693ZM722.692-559.23H618.076q-9.644 0-16.168-6.58-6.524-6.58-6.524-16.307 0-9.728 6.524-16.112 6.524-6.385 16.168-6.385h104.616v-104.615q0-9.644 6.58-16.168 6.58-6.524 16.307-6.524 9.727 0 16.112 6.524 6.384 6.524 6.384 16.168v104.615h104.616q9.644 0 16.168 6.581 6.524 6.58 6.524 16.307 0 9.727-6.524 16.112-6.524 6.384-16.168 6.384H768.075v104.616q0 9.644-6.58 16.168-6.58 6.524-16.307 6.524-9.727 0-16.112-6.524-6.384-6.524-6.384-16.168V-559.23ZM480-499.307Z"/></svg>