<svg xmlns="http://www.w3.org/2000/svg" width="48" height="48" viewBox="0 -960 960 960"><path d="M197.694-140.001q-23.529 0-40.611-17.082-17.082-17.082-17.082-40.611v-564.612q0-23.529 17.082-40.611 17.082-17.082 40.611-17.082h228.998q9.663 0 16.178 6.567 6.514 6.567 6.514 16.307 0 9.741-6.514 16.126-6.515 6.384-16.178 6.384H197.694q-4.616 0-8.463 3.846-3.846 3.847-3.846 8.463v564.612q0 4.616 3.846 8.463 3.847 3.846 8.463 3.846h564.612q4.616 0 8.463-3.846 3.846-3.847 3.846-8.463v-228.998q0-9.663 6.567-16.178 6.566-6.514 16.307-6.514t16.125 6.514q6.385 6.515 6.385 16.178v228.998q0 23.529-17.082 40.611-17.082 17.082-40.611 17.082H197.694ZM774.615-742 400.307-367.693q-6.692 6.692-15.807 6.577-9.115-.115-16.192-7.192t-7.077-16q0-8.923 7.077-15.999l374.308-374.308h-189.77q-9.663 0-16.177-6.567-6.514-6.566-6.514-16.307t6.514-16.125q6.514-6.385 16.177-6.385h238.306q12.356 0 20.601 8.246 8.246 8.245 8.246 20.601v238.306q0 9.663-6.567 16.177-6.567 6.514-16.307 6.514-9.741 0-16.126-6.514-6.384-6.514-6.384-16.177V-742Z"/></svg>