<svg xmlns="http://www.w3.org/2000/svg" width="48" height="48" viewBox="0 -960 960 960"><path d="M588.85-100q-23.5 0-40.6-17.1-17.1-17.09-17.1-40.59v-166.54q0-9.65 6.58-16.17 6.58-6.52 16.31-6.52 9.73 0 16.11 6.52 6.39 6.52 6.39 16.17v166.54q0 5.38 3.46 8.84t8.85 3.46h253.46q5.38 0 8.84-3.46t3.46-8.84v-566.92q0-5.39-3.46-8.85t-8.84-3.46H588.85q-5.39 0-8.85 3.46t-3.46 8.85v89.23q0 9.64-6.58 16.16-6.58 6.53-16.31 6.53-9.73 0-16.11-6.53-6.39-6.52-6.39-16.16v-89.23q0-23.5 17.1-40.6t40.6-17.1h253.46q23.5 0 40.59 17.1 17.1 17.1 17.1 40.6v566.92q0 23.5-17.1 40.59-17.09 17.1-40.59 17.1H588.85Zm-471.16-77.69q-23.5 0-40.59-17.1-17.1-17.1-17.1-40.6v-566.92q0-23.5 17.1-40.59Q94.19-860 117.69-860h253.46q23.5 0 40.6 17.1 17.1 17.09 17.1 40.59v166.93q0 9.64-6.58 16.16-6.58 6.53-16.31 6.53-9.73 0-16.11-6.53-6.39-6.52-6.39-16.16v-166.93q0-5.38-3.46-8.84t-8.85-3.46H117.69q-5.38 0-8.84 3.46t-3.46 8.84v566.92q0 5.39 3.46 8.85t8.84 3.46h253.46q5.39 0 8.85-3.46t3.46-8.85v-88.84q0-9.65 6.58-16.17 6.58-6.52 16.31-6.52 9.73 0 16.11 6.52 6.39 6.52 6.39 16.17v88.84q0 23.5-17.1 40.6t-40.6 17.1H117.69Zm597.93-450.77q8.53 0 14.73-6.05 6.19-6.04 6.19-14.57 0-8.53-6.23-14.73-6.23-6.19-14.59-6.19-8.72 0-14.72 6.23t-6 14.58q0 8.73 6.04 14.73 6.05 6 14.58 6Zm-471.15-78.92q8.53 0 14.72-6.23 6.2-6.23 6.2-14.58t-6.24-14.54q-6.23-6.19-14.58-6.19-8.72 0-14.72 6.23-6 6.22-6 14.57 0 8.35 6.04 14.54 6.05 6.2 14.58 6.2Zm-139.08 484.3v-591.53 591.53Zm749.22 77.69v-591.53 591.53Zm-531.69-307.3q-11.3 0-19.23-8.09-7.92-8.08-7.92-19.38 0-11.3 8.08-19.22 8.09-7.93 19.39-7.93t19.22 8.09q7.92 8.08 7.92 19.38 0 11.3-8.08 19.22-8.09 7.93-19.38 7.93Zm156.92 0q-11.3 0-19.22-8.09-7.93-8.08-7.93-19.38 0-11.3 8.09-19.22 8.08-7.93 19.38-7.93 11.3 0 19.22 8.09 7.93 8.08 7.93 19.38 0 11.3-8.09 19.22-8.08 7.93-19.38 7.93Zm156.54 0q-11.3 0-19.23-8.09-7.92-8.08-7.92-19.38 0-11.3 8.09-19.22 8.08-7.93 19.38-7.93 11.3 0 19.22 8.09 7.93 8.08 7.93 19.38 0 11.3-8.09 19.22-8.08 7.93-19.38 7.93Z"/></svg>