<svg xmlns="http://www.w3.org/2000/svg" width="48" height="48" viewBox="0 -960 960 960"><path d="M162.69-140q-9.91 0-16.3-6.39-6.39-6.39-6.39-16.31 0-9.92 6.39-16.3 6.39-6.39 16.3-6.39h396.85q9.91 0 16.3 6.4 6.39 6.39 6.39 16.3 0 9.92-6.39 16.3-6.39 6.39-16.3 6.39H162.69Zm0-147.69q-9.91 0-16.3-6.39-6.39-6.4-6.39-16.31 0-9.92 6.39-16.3 6.39-6.39 16.3-6.39h634.62q9.91 0 16.3 6.39 6.39 6.4 6.39 16.31 0 9.92-6.39 16.3-6.39 6.39-16.3 6.39H162.69Zm35-147.69q-23.53 0-40.61-17.09Q140-469.55 140-493.08v-269.23q0-23.53 17.08-40.61T197.69-820h564.62q23.53 0 40.61 17.08T820-762.31v269.23q0 23.53-17.08 40.61-17.08 17.09-40.61 17.09H197.69Z"/></svg>