<svg xmlns="http://www.w3.org/2000/svg" width="48" height="48" viewBox="0 -960 960 960"><path d="M611.19-205.42q-38.88-38.89-38.88-94.97 0-56.07 38.88-94.96 38.89-38.88 94.96-38.88 56.08 0 94.96 38.88Q840-356.46 840-300.39q0 56.08-38.89 94.97-38.88 38.88-94.96 38.88-56.07 0-94.96-38.88Zm-149.27-72.27H173.46q-9.66 0-16.17-6.57-6.52-6.57-6.52-16.31 0-9.74 6.52-16.12 6.51-6.39 16.17-6.39h288.46q9.67 0 16.18 6.57 6.52 6.57 6.52 16.31 0 9.74-6.52 16.12-6.51 6.39-16.18 6.39ZM158.89-564.65Q120-603.54 120-659.61q0-56.08 38.89-94.97 38.88-38.88 94.96-38.88 56.07 0 94.96 38.88 38.88 38.89 38.88 94.97 0 56.07-38.88 94.96-38.89 38.88-94.96 38.88-56.08 0-94.96-38.88Zm627.65-72.27H498.08q-9.67 0-16.18-6.57-6.52-6.57-6.52-16.31 0-9.74 6.52-16.12 6.51-6.39 16.18-6.39h288.46q9.66 0 16.17 6.57 6.52 6.57 6.52 16.31 0 9.74-6.52 16.12-6.51 6.39-16.17 6.39Z"/></svg>