<svg xmlns="http://www.w3.org/2000/svg" width="48" height="48" viewBox="0 -960 960 960"><path d="M408.001-140.617q-22.575 0-43.48-9.923-20.905-9.923-36.135-28.384L103.464-452.231q-7.231-8.846-4.5-20 2.73-11.153 10.858-20.23 15.257-15.384 36.718-15.923 21.461-.538 39.46 12.231l114.001 73.385v-414.923q0-9.644 6.581-16.168 6.58-6.524 16.307-6.524 9.727 0 16.112 6.524 6.384 6.524 6.384 16.168v447.152q0 16.947-15.231 25.397-15.23 8.449-29.461-1.397l-147.924-97.847 212.4 257.525q8.377 10.107 19.403 15.484Q395.597-186 408.001-186h269.306q41.077 0 69.192-28.116 28.116-28.115 28.116-69.193v-280q0-9.644 6.58-16.167 6.58-6.524 16.307-6.524 9.728 0 16.112 6.524 6.385 6.523 6.385 16.167v280q0 59.539-41.385 101.115-41.384 41.577-101.307 41.577H408.001ZM464-337.154Zm17.427-397.461q9.727 0 16.111 6.524 6.385 6.524 6.385 16.168v228.614q0 9.644-6.58 16.168-6.58 6.524-16.308 6.524-9.727 0-16.111-6.524-6.385-6.524-6.385-16.168v-228.614q0-9.644 6.58-16.168 6.581-6.524 16.308-6.524Zm158.538 58.461q9.727 0 16.111 6.524 6.385 6.524 6.385 16.168v170.153q0 9.644-6.58 16.168-6.581 6.524-16.308 6.524t-16.111-6.524q-6.385-6.524-6.385-16.168v-170.153q0-9.644 6.58-16.168 6.58-6.524 16.308-6.524Z"/></svg>