<svg xmlns="http://www.w3.org/2000/svg" width="48" height="48" viewBox="0 96 960 960"><path d="M476.001 1025.23q-32.384 0-62.576-10.92-30.192-10.93-48.731-30.081L131.465 743.692Q116.388 729 115.35 708.077q-1.039-20.923 11.653-38.846 12.846-17.077 34.154-21.192 21.307-4.115 39.769 6.115l161.538 92.307V288.174q0-23.481 15.884-39.365 15.885-15.885 39-15.885 23.115 0 38.999 15.792 15.885 15.793 15.885 39.362v249.077q0 5.846 4.307 10.038 4.308 4.193 9.978 4.193 5.671 0 9.731-4.193 4.061-4.192 4.061-10.038V178.936q0-23.605 15.884-39.423 15.885-15.819 39.192-15.819 23.308 0 39.192 15.819 15.884 15.818 15.884 39.423v358.219q0 5.846 4.061 10.038 4.06 4.193 9.731 4.193 5.67 0 9.978-4.193 4.307-4.192 4.307-10.038V217.374q0-23.595 15.885-39.407 15.884-15.811 38.999-15.811 23.115 0 39 15.811 15.884 15.812 15.884 39.407v319.781q0 5.846 4.077 10.038 4.077 4.193 9.769 4.193 5.847 0 10.039-4.193 4.192-4.192 4.192-10.038V333.386q0-23.308 15.885-39.192 15.884-15.885 38.999-15.885 23.115 0 39 15.809 15.884 15.809 15.884 39.4v559.019q0 55.692-38.716 94.192-38.716 38.501-94.59 38.501H476.001Z"/></svg>