<svg xmlns="http://www.w3.org/2000/svg" width="48" height="48" viewBox="0 -960 960 960"><path d="M221.155-99.617q-17.384 0-26.961-11.884-9.577-11.885-7.654-28.116 2.693-13.769 11.424-42.808 8.73-29.039 18.192-72.346 9.461-43.308 16.846-99.269 7.384-55.961 7.384-125.575 0-69.615-7.384-125.768-7.385-56.154-16.846-99.461-9.462-43.308-18.192-72.539-8.731-29.231-11.424-43-1.923-16.231 7.654-27.731t26.961-11.5h517.69q17.384 0 26.961 11.5 9.577 11.5 7.654 27.731-2.693 13.769-11.424 43-8.73 29.231-17.807 72.539-9.077 43.307-16.461 99.461-7.385 56.153-7.385 125.768 0 69.614 7.385 125.575 7.384 55.961 16.461 99.269 9.077 43.307 17.807 72.346 8.731 29.039 11.424 42.808 1.923 16.231-7.654 28.116-9.577 11.884-26.961 11.884h-517.69Z"/></svg>