<svg xmlns="http://www.w3.org/2000/svg" width="48" height="48" viewBox="0 -960 960 960"><path d="M440-225.385Zm-271.152 45.384q-12.26 0-20.553-8.294-8.294-8.293-8.294-20.553v-47.075q0-32.231 17.077-56.153 17.077-23.923 44.385-36.769 63.153-28.077 121.76-42.308Q381.831-405.384 440-405.384q25.135 0 49.538 2.693 24.404 2.692 49.923 7.692-.846 11.872.27 23.166 1.115 11.295 2.961 21.833-25.231-5-50.725-7.5Q466.472-360 440-360q-55.318 0-108.12 12-52.803 12-111.418 39.692-15.923 8.154-25.5 22.462-9.577 14.307-9.577 29.923v30.538h441.922v45.384H168.848ZM743.23-62.849 709-97.079q-4.615-4.616-6.615-9.833-2-5.217-2-10.25v-153.193q-38.923-11.784-63.692-44.099t-24.769-74.811q0-51.35 36.38-87.734 36.381-36.384 87.846-36.384t87.657 36.397q36.192 36.396 36.192 87.884 0 39.948-22.423 70.909-22.423 30.962-57.192 44.038l33.725 33.725q4.505 4.002 4.505 10.254t-4.615 10.867l-32.23 32.23q-4.616 4.252-4.616 10.242 0 5.989 4.616 10.604l32.615 32.231q4.615 4.252 4.615 10.241 0 5.99-4.615 10.605l-50.308 50.307q-4.251 4.615-10.241 4.615-5.989 0-10.605-4.615Zm-7.076-308.612q14.692 0 25.038-10.539 10.346-10.538 10.346-25.23t-10.346-25.039q-10.346-10.346-25.038-10.346-14.693 0-25.231 10.346-10.538 10.347-10.538 25.039 0 14.692 10.538 25.23 10.538 10.539 25.231 10.539ZM440-499.231q-55.519 0-94.105-38.586-38.586-38.586-38.586-94.105 0-55.518 38.586-94.105 38.586-38.586 94.105-38.586 55.519 0 94.105 38.586 38.586 38.587 38.586 94.105 0 55.519-38.586 94.105-38.586 38.586-94.105 38.586Zm-.119-45.383q35.965 0 61.696-25.612 25.73-25.611 25.73-61.577 0-35.965-25.611-61.696-25.612-25.73-61.577-25.73t-61.696 25.611q-25.73 25.612-25.73 61.577t25.611 61.696q25.612 25.731 61.577 25.731Zm.119-87.308Z"/></svg>