<svg xmlns="http://www.w3.org/2000/svg" width="48" height="48"><path d="M11.5 14.2q-1.15 0-1.95-.775t-.8-1.925q0-1.15.8-1.95t1.95-.8q1.15 0 1.925.8.775.8.775 1.95t-.775 1.925q-.775.775-1.925.775zm0 25.05q-1.15 0-1.95-.8t-.8-1.95q0-1.15.8-1.925.8-.775 1.95-.775.2 0 .425.025.225.025.475.125l9.05-9.05q-.25-.7-.1-1.475.15-.775.7-1.375.6-.55 1.375-.7.775-.15 1.475.1l9-9.05q0-.25-.05-.45t-.05-.45q0-1.2.775-1.975.775-.775 1.925-.775 1.2 0 1.975.8.775.8.775 1.95t-.775 1.925q-.775.775-1.975.775-.25 0-.475-.05-.225-.05-.475-.05l-9 9q.25.75.1 1.5t-.7 1.3q-.6.6-1.35.75-.75.15-1.6-.1l-8.8 8.8h7.3q.35-.7 1.05-1.125.7-.425 1.45-.425.8 0 1.5.425t1 1.125h7.55q.3-.7.975-1.125.675-.425 1.475-.425 1.2 0 1.975.775.775.775.775 1.925t-.775 1.95q-.775.8-1.975.8-.8 0-1.475-.425t-.975-1.175H26.5q-.3.75-1 1.175-.7.425-1.5.425-.75 0-1.45-.425T21.5 37.65H14q-.35.75-1.025 1.175-.675.425-1.475.425zM24 14.2q-1.15 0-1.925-.775-.775-.775-.775-1.925t.775-1.95q.775-.8 1.925-.8t1.925.8q.775.8.775 1.95t-.775 1.925Q25.15 14.2 24 14.2zM11.5 26.7q-1.15 0-1.95-.775T8.75 24q0-1.15.8-1.925.8-.775 1.95-.775t1.925.775q.775.775.775 1.925t-.775 1.925q-.775.775-1.925.775zm25 0q-1.15 0-1.925-.775Q33.8 25.15 33.8 24t.775-1.925q.775-.775 1.925-.775t1.95.775q.8.775.8 1.925t-.8 1.925q-.8.775-1.95.775z"/></svg>