<svg xmlns="http://www.w3.org/2000/svg" width="48" height="48" viewBox="0 96 960 960"><path d="M579.23 835.999q-18.595 0-31.989-13.394-13.394-13.394-13.394-31.99v-429.23q0-18.596 13.394-31.99 13.394-13.394 31.989-13.394h115.385q18.596 0 31.99 13.394 13.394 13.394 13.394 31.99v429.23q0 18.596-13.394 31.99-13.394 13.394-31.99 13.394H579.23Zm-313.845 0q-18.596 0-31.99-13.394-13.394-13.394-13.394-31.99v-429.23q0-18.596 13.394-31.99 13.394-13.394 31.99-13.394h115.769q18.211 0 31.798 13.394 13.586 13.394 13.586 31.99v429.23q0 18.596-13.586 31.99-13.587 13.394-31.798 13.394H265.385Z"/></svg>