<svg xmlns="http://www.w3.org/2000/svg" width="48" height="48" viewBox="0 -960 960 960"><path d="M695.808-100.001q-71.704 0-121.793-50.09-50.09-50.09-50.09-121.794t50.108-121.793q50.108-50.09 121.583-50.09 71.896 0 121.986 50.108 50.089 50.108 50.089 121.583 0 71.896-50.089 121.986-50.09 50.09-121.794 50.09ZM707-274.776v-93.394q0-7.138-5.123-12.138t-11.953-5q-7.077 0-12.385 5.266t-5.308 12.288v94.523q0 5.013 2 10.314t6 9.917l63.231 64.461q4.846 5.231 12.024 5.423 7.179.192 12.899-5.423 5.231-5.231 5.231-12.217 0-6.986-5.231-12.706L707-274.776ZM197.694-140.001q-23.5 0-40.596-17.097-17.097-17.096-17.097-40.596v-564.612q0-24.75 16.472-41.221 16.471-16.472 41.221-16.472h202q5.076-29.23 27.576-48.46 22.5-19.231 52.73-19.231 30.421 0 52.825 19.231 22.405 19.23 27.481 48.46h202q24.75 0 41.221 16.472 16.472 16.471 16.472 41.221v233.999q0 9.644-6.581 16.168-6.58 6.524-16.307 6.524-9.727 0-16.112-6.524-6.384-6.524-6.384-16.168v-233.999q0-4.616-3.846-8.463-3.847-3.846-8.463-3.846h-73.077v53.846q0 12.259-8.25 20.553-8.249 8.293-20.444 8.293H299.456q-12.194 0-20.439-8.293-8.246-8.294-8.246-20.553v-53.846h-73.077q-4.616 0-8.463 3.846-3.846 3.847-3.846 8.463v564.612q0 5.385 3.462 8.847 3.462 3.462 8.847 3.462h263.385q9.644 0 16.168 6.58 6.523 6.58 6.523 16.307 0 9.728-6.523 16.112-6.524 6.385-16.168 6.385H197.694Zm282.373-629.998q15.394 0 25.74-10.414 10.347-10.413 10.347-25.807 0-15.394-10.414-25.74-10.414-10.346-25.807-10.346-15.394 0-25.74 10.413-10.347 10.414-10.347 25.808t10.414 25.74q10.414 10.346 25.807 10.346Z"/></svg>