<svg xmlns="http://www.w3.org/2000/svg" width="48" height="48" viewBox="0 -960 960 960"><path d="M751.076-65.233q-8.307 0-14.884-6.269t-7.808-14.96l-1.23-17.924q-25.308-6.23-44.116-17.346-18.808-11.115-33.192-26.423l-15.462 7.231q-8.307 4.23-16.615 1.692-8.307-2.538-13.769-9.846l-2.461-4.077q-5.461-8.307-4.231-16.922 1.231-8.616 9.308-15.077l13.077-10.461q-6.924-21.693-6.924-44.962 0-23.269 6.924-44.962L606.616-296q-7.692-5.693-9.308-15-1.615-9.307 3.846-17.615l2.846-4.077q5.462-7.923 14.077-10.153 8.615-2.231 17.307 2l14.462 7.615q14-15.077 33-26.192 19-11.116 44.308-17.347l1.23-18.538q1.231-8.307 7.808-14.769 6.577-6.461 14.884-6.461h4.308q8.307 0 14.576 5.961 6.269 5.962 7.5 14.654l1.846 19.153q25.308 6.231 44.308 17.347 19 11.115 33 26.192l14.461-7.615q8.308-4.231 17.115-2 8.808 2.23 14.269 10.153l2.462 4.077q5.461 8.308 4.23 17.423-1.23 9.115-9.307 15.192l-13.077 10.461q6.923 21.693 6.923 44.962 0 23.269-6.923 44.962l13.077 10.461q7.692 6.077 9.307 14.884 1.616 8.808-3.846 17.115l-2.846 4.692q-5.846 7.308-13.961 9.539-8.115 2.23-16.423-2l-15.461-7.231q-14.385 15.308-33.192 26.423-18.808 11.116-44.116 17.346l-1.846 18.538q-1.231 8.693-7.5 14.654-6.269 5.962-14.576 5.962h-4.308Zm1.846-76.537q42.077 0 70.5-28.423 28.423-28.423 28.423-70.5 0-42.461-28.423-70.884Q794.999-340 752.922-340q-42.461 0-70.884 28.423-28.423 28.423-28.423 70.884 0 42.077 28.423 70.5 28.423 28.423 70.884 28.423Zm-583.613 41.769q-19.615 0-26.731-17.731-7.115-17.731 6.5-31.346l661.844-661.844q13.615-13.615 31.346-6.5 17.731 7.116 17.731 26.346v288.846q0 13.23-10.616 20.346-10.615 7.115-22.846 2.5-18.461-5.616-37.115-8.731-18.654-3.115-37.5-3.115-104.923 0-177.923 72.999Q501-345.231 501-240.308q0 26.23 6.153 53.576 6.154 27.346 18.077 52.884 5.231 11.616-.962 22.731-6.192 11.116-18.423 11.116H169.309Z"/></svg>