<svg xmlns="http://www.w3.org/2000/svg" width="48" height="48" viewBox="0 -960 960 960"><path d="M480-452.309q-57.749 0-98.874-41.124-41.125-41.125-41.125-98.874v-124.999q0-21.955 15.257-37.323 15.256-15.369 37.051-15.369 13.461 0 25.038 6.231t18.807 17.307q7.231-11.076 18.808-17.307 11.577-6.231 25.038-6.231t25.038 6.231q11.577 6.231 18.808 17.307 7.23-11.076 18.807-17.307 11.577-6.231 24.846-6.231 22.115 0 37.307 15.369 15.193 15.368 15.193 37.323v124.999q0 57.749-41.125 98.874-41.125 41.124-98.874 41.124Zm-.061-45.383q39.753 0 67.215-27.418 27.461-27.418 27.461-67.197v-114.615h-189.23v114.615q0 39.779 27.4 67.197t67.154 27.418ZM180.001-193.847v-29.769q0-32.23 17.077-56.153 17.077-23.923 44.385-36.769 63.153-28.077 121.756-42.308 58.604-14.23 116.769-14.23 58.166 0 116.473 14.538Q654.769-344 717.672-316.266q28.374 12.812 45.35 36.616 16.977 23.804 16.977 56.034v29.769q0 18.98-13.587 32.566-13.586 13.587-32.566 13.587H226.154q-18.98 0-32.566-13.587-13.587-13.586-13.587-32.566Zm45.384.769h509.23v-30.538q0-15.615-9.885-29.923-9.884-14.308-25.808-22.462-58.999-28.692-111.302-40.192-52.302-11.5-107.62-11.5-55.318 0-108.428 11.5t-111.11 40.192q-15.923 8.154-25.5 22.462t-9.577 29.923v30.538Zm254.615 0Zm0-513.844Z"/></svg>