<svg xmlns="http://www.w3.org/2000/svg" width="48" height="48" viewBox="0 -960 960 960"><path d="M780.62-540.6q-7.93-7.91-7.93-19.39 0-11.47 7.91-19.39 7.91-7.93 19.39-7.93 11.47 0 19.39 7.91 7.93 7.91 7.93 19.39 0 11.47-7.91 19.39-7.91 7.93-19.39 7.93-11.47 0-19.39-7.91Zm3.07-123.1q-6.38-6.4-6.38-16.3v-120q0-9.9 6.4-16.3 6.39-6.39 16.3-6.39t16.3 6.39q6.38 6.4 6.38 16.3v120q0 9.9-6.4 16.3-6.39 6.39-16.3 6.39t-16.3-6.39Zm-519 133.39q-37.38-37.38-37.38-95.5 0-58.11 37.38-95.3 37.39-37.2 95.31-37.2t95.31 37.2q37.38 37.19 37.38 95.3 0 58.12-37.38 95.5-37.39 37.39-95.31 37.39t-95.31-37.39ZM60-233.85v-29.77q0-30 15.96-55.03 15.96-25.04 45.5-37.89 68.85-30.31 125.23-43.42 56.39-13.12 113.31-13.12t113 13.12q56.08 13.11 124.92 43.42 29.54 13.85 45.81 38.39Q660-293.62 660-263.62v29.77q0 19.23-13.46 32.69-13.46 13.47-32.69 13.47h-507.7q-19.23 0-32.69-13.47Q60-214.62 60-233.85Zm45.39.77h509.22v-30.54q0-15.61-9.57-29.92-9.58-14.31-26.12-22.46-64.07-29.92-113.34-40.81-49.26-10.88-105.58-10.88t-106.08 10.88Q204.15-345.92 140.46-316q-16.92 8.15-26 22.46-9.07 14.31-9.07 29.92v30.54Zm316.99-330.15q24.93-24.92 24.93-62.38 0-37.47-24.93-62.39-24.92-24.92-62.38-24.92T297.62-688q-24.93 24.92-24.93 62.39 0 37.46 24.93 62.38 24.92 24.92 62.38 24.92t62.38-24.92ZM360-625.61Zm0 392.53Z"/></svg>