<svg xmlns="http://www.w3.org/2000/svg" width="48" height="48" viewBox="0 -960 960 960"><path d="M440-506.924q-54.692 0-93.691-38.999-39-39-39-93.692 0-55.307 39-93.999 38.999-38.692 93.691-38.692 55.307 0 93.999 38.692 38.692 38.692 38.692 93.999 0 54.692-38.692 93.692-38.692 38.999-93.999 38.999ZM860.46-67.54 750.692-177.694q-21.846 16.231-44.808 22.539-22.961 6.307-45.884 6.307-63.307 0-107.23-43.922-43.922-43.923-43.922-107.23t43.922-107.23q43.923-43.922 107.23-43.922t107.23 43.922q43.922 43.923 43.922 107.23 0 22.923-6.115 45.884-6.115 22.962-22.731 44.808L892.46-99.54q6.692 6.693 6.884 15.808.192 9.115-6.884 16.192-7.077 7.076-16 7.076t-16-7.076ZM660-194.231q45.077 0 75.423-30.346 30.346-30.346 30.346-75.423t-30.346-75.423Q705.077-405.769 660-405.769t-75.423 30.346Q554.231-345.077 554.231-300t30.346 75.423q30.346 30.346 75.423 30.346ZM474.77-411.692q-31.076 53.461-30.038 113.537Q445.77-238.079 478-187.694H186.154q-19.23 0-32.691-13.462-13.462-13.461-13.462-32.691v-29.769q0-32 15.962-54.73 15.961-22.731 45.5-38.192Q245.77-378 320.501-398.115q74.73-20.115 154.269-13.577Z"/></svg>