<svg xmlns="http://www.w3.org/2000/svg" width="48" height="48" viewBox="0 -960 960 960"><path d="M706.077-601.885q-6.462-7.73-5.962-16.576t6.577-14.923l69.155-69.155H552.154q-9.644 0-16.168-6.58-6.524-6.58-6.524-16.307 0-9.727 6.524-16.112 6.524-6.384 16.168-6.384h223.693l-67.54-67.539q-6.692-6.763-6.576-15.843.115-9.08 6.717-16.157 7.552-6.692 16.474-6.692 8.923 0 16 7.077l101.542 101.542q4.688 4.688 6.881 9.873 2.192 5.185 2.192 10.808t-2.192 10.43q-2.193 4.808-6.842 9.478L738.691-601.769q-6.692 6.692-16.615 6.884-9.922.192-15.999-7Zm68.922 459.576q-111.615 0-224.615-57.308-112.999-57.307-203.999-148.115-90.999-90.807-148.307-203.614-57.307-112.807-57.307-224.422 0-18.956 12.637-31.593 12.637-12.638 31.593-12.638H299.23q15.3 0 26.689 9.885 11.388 9.885 14.773 26.654l23.923 107.537q2.385 14.769-.692 26.846t-11.748 20.013l-94.329 92.218q57.539 95.692 127.616 165.077Q455.539-302.385 547-252.461l90.385-93.769q10-11 22.423-15.308 12.423-4.308 25.807-1.308l97.076 21.385q16.466 3.375 26.502 15.61 10.036 12.236 10.036 29.313v109.998q0 18.956-12.637 31.593-12.637 12.638-31.593 12.638ZM234.77-577.999l82.538-80.077q1.539-1.539 2.116-4.231.577-2.693.192-5L297.77-768.461q-.385-3.077-2.5-4.615-2.116-1.539-5.193-1.539h-98.922q-2.308 0-3.847 1.539-1.538 1.538-1.538 3.846-.385 39.385 12 86.654 12.384 47.269 37 104.577Zm533.691 390.691q2.308 0 3.846-1.539 1.539-1.538 1.539-3.846v-98.153q0-3.078-1.539-5.193-1.538-2.116-4.616-2.5L677-316.847q-2.308-.769-4.039-.192-1.731.577-3.654 2.5l-80.154 83.769q41.385 20.154 90.154 31.193 48.769 11.038 89.154 12.269ZM589.153-230.77ZM234.77-577.999Z"/></svg>