<svg xmlns="http://www.w3.org/2000/svg" width="48" height="48" viewBox="0 -960 960 960"><path d="M794.384-495.847q-8.308 0-14.692-6.077-6.385-6.076-8-15.384-13.615-104.154-87.885-178.615Q609.538-770.385 505-784q-9.308-1.231-15.192-7.616-5.885-6.384-5.885-15.691 0-9.923 6.692-16.615 6.692-6.693 16.615-5.077 122.769 13.23 209.5 99.961 86.73 86.731 100.346 209.884 1.615 9.923-5.269 16.615-6.885 6.692-17.423 6.692Zm-168.923 0q-7.692 0-14.269-4.961-6.577-4.962-8.807-12.885-10.385-36.923-37.039-63.961-26.654-27.039-63.577-37.424-7.923-2.23-12.884-7.999-4.962-5.769-4.962-14.077 0-11.153 7.5-17.846 7.5-6.692 18.038-4.076 50.923 12.23 88 49.115 37.076 36.884 50.307 88.192 2.231 10.923-4.461 18.422-6.692 7.5-17.846 7.5Zm147.23 353.538q-111.615 0-224.614-57.308-113-57.307-203.999-148.115-91-90.807-148.308-203.614-57.307-112.807-57.307-224.422 0-18.615 12.808-31.423 12.807-12.808 31.423-12.808h114.228q15.539 0 26.808 9.885 11.27 9.885 14.654 26.654l23.923 107.537q2.385 14.769-.692 26.846T349.769-629l-94.231 92.154q57.539 95.692 127.616 165.077 70.077 69.384 161.539 119.308l90.384-93.769q10-11 22.423-15.308 12.423-4.308 25.807-1.308l97.076 21.385q16.154 3 26.346 15.384 10.192 12.385 10.192 29.539v109.998q0 18.615-12.807 31.423-12.808 12.808-31.423 12.808Z"/></svg>