<svg xmlns="http://www.w3.org/2000/svg" width="48" height="48" viewBox="0 -960 960 960"><path d="M565-502.231q19.846 0 32.461-12.808 12.615-12.807 12.615-32.654v-10l10 3.385q22.308 7.615 38.423 3.808 16.116-3.808 24.116-17.808 8.384-14.385 6.5-33.615-1.885-19.231-23.346-29.03l-10.616-4.588 10.616-5.204q21.461-10.799 23.346-29.296 1.884-18.497-6.5-32.882-8-14-24.231-17.808-16.231-3.807-38.308 3.808l-10 3.385v-10q0-19.846-12.615-32.462-12.615-12.615-32.461-12.615-19.846 0-32.962 12.615-13.115 12.616-13.115 32.462v10l-10-3.385q-22.692-7.615-38.308-3.808-15.615 3.808-24.23 17.808-9.385 14.385-7 32.882 2.384 18.497 23.846 29.296l10.615 5.204-10.615 4.588q-21.462 9.799-23.346 29.222-1.885 19.423 6.5 33.423 8 14.385 24.423 18t38.115-4l10-3.385v10q0 19.847 13.115 32.654 13.116 12.808 32.962 12.808Zm0-88.308q-19.231 0-32.154-12.923-12.923-12.923-12.923-32.153 0-19.231 12.923-32.154 12.923-12.923 32.154-12.923 18.846 0 31.961 12.923 13.115 12.923 13.115 32.154 0 19.23-13.115 32.153-13.115 12.923-31.961 12.923ZM326.693-274.54q-23.615 0-40.654-17.038-17.038-17.038-17.038-40.654v-476.229q0-23.615 17.038-40.653 17.039-17.039 40.654-17.039h476.229q23.615 0 40.654 17.039 17.038 17.038 17.038 40.653v476.229q0 23.616-17.038 40.654-17.039 17.038-40.654 17.038H326.693Zm-99.23 171.231q-24.231 3-42.962-11.116-18.731-14.115-21.731-37.961l-58.999-457.228q-3-24.231 11.62-43.448 14.621-19.217 38.841-22.244l49.384-5.461v370.843q0 42 29.384 71.385 29.385 29.384 71.385 29.384h483.383q1.154 16.154-8.654 27.961-9.807 11.808-25.961 13.423l-525.69 64.462ZM565-372.078q36.846-1.615 69.929-15.846 33.084-14.23 59.07-38.461 23.231-21.231 38.608-48.372 15.377-27.141 21.315-58.166 1.615-7.462-3.692-13.154-5.308-5.692-12.923-5.077-31.231 3.615-60.385 17.231-29.153 13.615-52 34.846-26.461 24.846-42.692 57.192Q566-409.539 565-372.078Zm0 0q-1.385-37.461-17.423-69.807-16.039-32.346-42.885-57.192-22.846-21.231-52-34.846-29.153-13.616-59.999-17.231-7.616-.615-12.924 5.077-5.307 5.692-3.692 13.154 5.616 31.025 21.346 58.166 15.731 27.141 38.577 48.372 25.846 24.231 59 38.461 33.154 14.231 70 15.846Z"/></svg>