<svg xmlns="http://www.w3.org/2000/svg" width="48" height="48" viewBox="0 -960 960 960"><path d="M197.694-140.001q-23.529 0-40.611-17.082-17.082-17.082-17.082-40.611v-564.612q0-23.529 17.082-40.611 17.082-17.082 40.611-17.082h369.231q9.288 0 15.99 6.567 6.701 6.567 6.701 16.307 0 9.741-6.701 16.126-6.702 6.384-15.99 6.384H197.694q-4.616 0-8.463 3.846-3.846 3.847-3.846 8.463v564.612q0 4.616 3.846 8.463 3.847 3.846 8.463 3.846h564.612q4.616 0 8.463-3.846 3.846-3.847 3.846-8.463v-369.231q0-9.288 6.567-15.99 6.566-6.701 16.307-6.701t16.125 6.701q6.385 6.702 6.385 15.99v369.231q0 23.529-17.082 40.611-17.082 17.082-40.611 17.082H197.694Zm237.285-296.594-83.901-38.02q-4.615-2.208-4.615-7.008t4.615-6.608l83.901-38.021 38.406-83.901q2.4-4.615 6.815-4.615 4.415 0 6.415 4.615l38.406 83.901 83.901 38.021q4.615 2.208 4.615 7.008t-4.615 6.608l-83.901 38.02-38.406 83.902q-2.4 4.615-6.815 4.615-4.415 0-6.415-4.615l-38.406-83.902ZM653.385-653l-55.692-27.154q-5-2.4-5-7.008 0-4.607 5-6.607l55.692-27.538 27.154-55.692q2.207-4.616 7.007-4.616t6.608 4.616l27.538 55.692 55.692 27.538q4.615 2.207 4.615 7.007t-4.615 6.608L721.692-653l-27.538 55.691q-2.4 5-7.008 5-4.607 0-6.607-5L653.385-653Z"/></svg>