<svg xmlns="http://www.w3.org/2000/svg" width="48" height="48" viewBox="0 -960 960 960"><path d="M719.16-209.15h67.61q1.54 16.76-10.69 28.76t-29.23 13.62l-520 63.46q-24.23 3-42.97-11.21-18.75-14.2-21.72-37.87l-59-457.61q-3-23.84 11.87-43.42 14.88-19.58 38.59-21.89l55.53-5.46v46.48l-49.69 4.37q-5 .38-8.07 4.42-3.08 4.04-2.7 9.42l58.85 457.23q.77 5.39 4.81 8.46 4.04 3.08 9.04 2.31l497.77-61.07Zm-386.93-65.39q-23.61 0-40.65-17.04t-17.04-40.65v-470.08q0-23.61 17.04-40.65T332.23-860h470.08q23.61 0 40.65 17.04T860-802.31v470.08q0 23.61-17.04 40.65t-40.65 17.04H332.23Zm0-45.38h470.08q5.38 0 8.84-3.66 3.46-3.65 3.46-8.65v-470.08q0-5.38-3.46-8.84t-8.84-3.46H332.23q-5 0-8.65 3.46-3.66 3.46-3.66 8.84v470.08q0 5 3.66 8.65 3.65 3.66 8.65 3.66Zm235.23-247.54ZM209.08-146.54ZM565-372.08q73.08-2.84 129-53.81 55.92-50.96 62.15-125.88-73.07 0-131.42 52.39Q566.38-447 565-372.08Zm0 0q-2.39-74.92-60.42-127.3-58.04-52.39-131.12-52.39 6.23 74.92 62.35 125.88 56.11 50.97 129.19 53.81Zm0-130.15q19.85 0 32.46-12.81 12.62-12.81 12.62-32.65v-10l10 3.38q22.3 7.62 38.42 3.81 16.11-3.81 24.11-17.81 8.39-14.38 6.5-33.61-1.88-19.23-23.34-29.03l-10.62-4.59 10.62-5.2q21.46-10.8 23.34-29.3 1.89-18.5-6.5-32.88-8-14-24.23-17.81-16.23-3.81-38.3 3.81l-10 3.38v-10q0-19.84-12.62-32.46-12.61-12.61-32.46-12.61T532.04-756q-13.12 12.62-13.12 32.46v10l-10-3.38q-22.69-7.62-38.3-3.81-15.62 3.81-24.24 17.81-9.38 14.38-7 32.88 2.39 18.5 23.85 29.3l10.62 5.2-10.62 4.59q-21.46 9.8-23.35 29.22-1.88 19.42 6.5 33.42 8 14.39 24.43 18 16.42 3.62 38.11-4l10-3.38v10q0 19.84 13.12 32.65 13.11 12.81 32.96 12.81Zm-.02-88.31q-19.21 0-32.13-12.94-12.93-12.94-12.93-32.15 0-19.22 12.94-32.14 12.94-12.92 32.16-12.92 18.83 0 31.94 12.94 13.12 12.94 13.12 32.15 0 19.22-13.14 32.14-13.13 12.92-31.96 12.92Z"/></svg>