<svg xmlns="http://www.w3.org/2000/svg" width="48" height="48" viewBox="0 96 960 960"><path d="M479.462 607.615h266.922q12.356 0 20.601-8.245t8.245-20.601V390.231q0-12.356-8.245-20.601t-20.601-8.245H479.462q-12.356 0-20.601 8.245t-8.245 20.601v188.538q0 12.356 8.245 20.601t20.601 8.245ZM157.694 875.999q-23.529 0-40.611-17.082-17.082-17.082-17.082-40.611V333.694q0-23.529 17.082-40.611 17.082-17.082 40.611-17.082h644.612q23.981 0 40.837 17.082t16.856 40.611v484.612q0 23.529-16.856 40.611-16.856 17.082-40.837 17.082H157.694Zm0-45.384q-5.385 0-8.847-3.462-3.462-3.462-3.462-8.847V333.694q0-5.385 3.462-8.847 3.462-3.462 8.847-3.462-5.385 0-8.847 3.462-3.462 3.462-3.462 8.847v484.612q0 5.385 3.462 8.847 3.462 3.462 8.847 3.462Zm0 0h644.612q5.385 0 8.847-3.462 3.462-3.462 3.462-8.847V333.694q0-5.385-3.462-8.847-3.462-3.462-8.847-3.462H157.694q-5.385 0-8.847 3.462-3.462 3.462-3.462 8.847v484.612q0 5.385 3.462 8.847 3.462 3.462 8.847 3.462Zm338.305-268.384V406.769h233.848v155.462H495.999Z"/></svg>