<svg xmlns="http://www.w3.org/2000/svg" width="48" height="48" viewBox="0 96 960 960"><path d="M479.462 786h266.922q12.356 0 20.601-8.246 8.245-8.245 8.245-20.6V568.616q0-11.981-8.245-20.414-8.245-8.432-20.601-8.432H479.462q-12.356 0-20.601 8.432-8.245 8.433-8.245 20.414v188.538q0 12.355 8.245 20.6Q467.106 786 479.462 786Zm-321.768 89.999q-23.529 0-40.611-17.082-17.082-17.082-17.082-40.611V333.694q0-23.529 17.082-40.611 17.082-17.082 40.611-17.082h644.612q23.981 0 40.837 17.082t16.856 40.611v484.612q0 23.529-16.856 40.611-16.856 17.082-40.837 17.082H157.694Zm455.537-213.23Z"/></svg>