<svg xmlns="http://www.w3.org/2000/svg" width="48" height="48" viewBox="0 -960 960 960"><path d="M480-272.92q105.92-85.31 160.27-171.81 54.34-86.5 54.34-156.42 0-93.93-60.15-153.7-60.15-59.76-154.46-59.76t-154.46 59.76q-60.15 59.77-60.15 153.7 0 69.3 54.34 155.8 54.35 86.5 160.27 172.43Zm0 42.76q-9 0-17.88-3-8.87-3-16.35-9-113.85-93.53-169.81-185.19Q220-519 220-601.15q0-113.77 73.12-186.31Q366.23-860 480-860t186.88 72.54Q740-714.92 740-601.15q0 81.76-55.96 173.42-55.96 91.65-169.82 185.4-7.6 6.17-16.41 9.17t-17.81 3Zm-.55-297.53q30.47 0 51.66-21.26 21.2-21.26 21.2-51.12 0-29.85-21.26-51.04-21.26-21.2-51.73-21.2-29.86 0-50.74 21.26-20.89 21.26-20.89 51.12 0 29.85 20.96 51.04 20.95 21.2 50.8 21.2ZM242.69-100q-9.9 0-16.29-6.4-6.4-6.4-6.4-16.31 0-9.91 6.4-16.29 6.39-6.39 16.29-6.39h474.62q9.9 0 16.29 6.4 6.4 6.4 6.4 16.31 0 9.91-6.4 16.29-6.39 6.39-16.29 6.39H242.69ZM480-600Z"/></svg>