<svg xmlns="http://www.w3.org/2000/svg" width="48" height="48" viewBox="0 96 960 960"><path d="m560.694 649.308-145.31-145.309v90.694q0 9.663-6.566 16.177-6.567 6.514-16.308 6.514-9.74 0-16.125-6.514-6.384-6.514-6.384-16.177V454.847q0-12.356 8.245-20.601t20.601-8.245h139.846q9.663 0 16.177 6.566 6.514 6.567 6.514 16.308 0 9.74-6.514 16.125-6.514 6.384-16.177 6.384h-91.694l146.309 145.925q7.077 7.077 6.769 16-.307 8.922-6.866 16.223-6.98 6.853-16.21 6.853-9.231 0-16.307-7.077Zm198.129 226.691q-41.516 0-71.323-29.831-29.808-29.83-29.808-71.845 0-42.016 29.83-71.323 29.83-29.308 71.846-29.308 42.016 0 71.323 29.414 29.308 29.413 29.308 71.762 0 41.516-29.414 71.323-29.413 29.808-71.762 29.808Zm-601.129 0q-23.529 0-40.611-17.082-17.082-17.082-17.082-40.611V333.694q0-23.529 17.082-40.611 17.082-17.082 40.611-17.082h644.612q23.529 0 40.611 17.082 17.082 17.082 17.082 40.611v266.151h-45.384V333.694q0-4.616-3.846-8.463-3.847-3.846-8.463-3.846H157.694q-4.616 0-8.463 3.846-3.846 3.847-3.846 8.463v484.612q0 4.616 3.846 8.463 3.847 3.846 8.463 3.846h426.151v45.384H157.694Z"/></svg>