<svg xmlns="http://www.w3.org/2000/svg" width="48" height="48" viewBox="0 -960 960 960"><path d="M575.384-64.617q-20.344 0-39.057-7.615-18.712-7.616-33.558-22.462L315.076-282.001q-6.846-6.462-8.269-16.616-1.423-10.153 5.808-16.999l.615-.231q10.923-10.923 23.461-16.307 12.539-5.385 27.308-1.539l110.616 28.308v-339.231q0-9.644 6.58-16.168 6.58-6.523 16.307-6.523 9.728 0 16.112 6.523 6.385 6.524 6.385 16.168v362.537q0 14.476-11.423 23.161-11.424 8.685-25.039 4.685l-104.463-28L535.661-126.03q7.876 7.875 18.378 11.952 10.502 4.077 21.345 4.077h159.23q43.923 0 74.269-30.346 30.346-30.346 30.346-74.269v-174.615q0-9.644 6.58-16.168 6.581-6.524 16.308-6.524t16.111 6.524q6.385 6.524 6.385 16.168v174.615q0 62.153-43.923 106.076-43.923 43.923-106.001 43.923H575.384Zm47.349-467.306q9.727 0 16.111 6.524 6.385 6.524 6.385 16.168v167.307h-45.384v-167.307q0-9.664 6.58-16.178 6.581-6.514 16.308-6.514Zm121.384 40q9.727 0 16.112 6.524 6.384 6.524 6.384 16.168v127.307H721.23v-127.307q0-9.664 6.58-16.178 6.58-6.514 16.307-6.514Zm-66.118 260.769ZM410.001-838.922 121.078-549.999h92.77q6.872 0 11.705 4.828t4.833 11.692q0 6.864-4.833 11.71-4.833 4.846-11.705 4.846H93.463q-12.26 0-20.553-8.293-8.293-8.293-8.293-20.553v-120.385q0-6.871 4.828-11.705 4.829-4.833 11.693-4.833 6.863 0 11.71 4.833 4.846 4.834 4.846 11.705v92.77l288.922-288.922h-92.77q-6.871 0-11.705-4.829-4.833-4.828-4.833-11.692t4.833-11.71q4.834-4.846 11.705-4.846h120.385q12.26 0 20.553 8.293 8.293 8.294 8.293 20.553v120.385q0 6.872-4.828 11.705t-11.692 4.833q-6.864 0-11.71-4.833-4.846-4.833-4.846-11.705v-92.77Z"/></svg>