<svg xmlns="http://www.w3.org/2000/svg" width="48" height="48" viewBox="0 -960 960 960"><path d="M140.385-664.616q-9.644 0-16.168-6.58-6.523-6.58-6.523-16.307 0-9.727 6.523-16.112 6.524-6.384 16.168-6.384h409.539q9.644 0 16.167 6.58 6.524 6.58 6.524 16.307 0 9.727-6.524 16.112-6.523 6.384-16.167 6.384H140.385Zm0 163.462q-9.644 0-16.168-6.579-6.523-6.578-6.523-16.302 0-9.349 6.523-15.926 6.524-6.577 16.168-6.577h409.539q9.644 0 16.167 6.766 6.524 6.766 6.524 16.307 0 9.542-6.524 15.926-6.523 6.385-16.167 6.385H140.385Zm0 163.846q-9.644 0-16.168-6.58-6.523-6.581-6.523-16.308t6.523-16.111q6.524-6.385 16.168-6.385h244.462q9.644 0 16.168 6.58 6.524 6.581 6.524 16.308t-6.524 16.111q-6.524 6.385-16.168 6.385H140.385ZM679.461-162.77q-10.538 7.923-21.884 1.981t-11.346-18.596V-382.23q0-12.269 11.346-18.404 11.346-6.134 21.884 2.173l140.154 100.846q8.692 6.205 8.692 17.064 0 10.858-8.692 16.551L679.461-162.77Z"/></svg>