<svg xmlns="http://www.w3.org/2000/svg" width="48" height="48" viewBox="0 -960 960 960"><path d="M152.693-665.231q-9.645 0-16.168-6.58-6.524-6.58-6.524-16.308 0-9.727 6.524-16.111 6.523-6.385 16.168-6.385h409.538q9.644 0 16.168 6.581 6.523 6.58 6.523 16.307 0 9.727-6.523 16.111-6.524 6.385-16.168 6.385H152.693Zm0 163.461q-9.645 0-16.168-6.58-6.524-6.58-6.524-16.307 0-9.727 6.524-16.112 6.523-6.384 16.168-6.384h409.538q9.644 0 16.168 6.58 6.523 6.58 6.523 16.307 0 9.727-6.523 16.112-6.524 6.384-16.168 6.384H152.693Zm0 163.846q-9.645 0-16.168-6.58-6.524-6.58-6.524-16.307 0-9.727 6.524-16.112 6.523-6.384 16.168-6.384h244.461q9.644 0 16.168 6.58 6.524 6.58 6.524 16.307 0 9.727-6.524 16.112-6.524 6.384-16.168 6.384H152.693ZM638-229.231l-93.307-93.308q-7.077-6.692-7.077-16.061 0-9.37 7.077-15.692 7.077-6.323 16-6.631 8.922-.307 15.999 5.769l75.693 75.462 165.154-165.154q6.576-6.692 16.031-6.692 9.455 0 16.583 6.692 7.077 7.077 7.077 16.308 0 9.23-7.077 16.307l-182.999 183q-6.462 6.461-14.769 6.461-8.308 0-14.385-6.461Z"/></svg>