<svg xmlns="http://www.w3.org/2000/svg" width="48" height="48" viewBox="0 -960 960 960"><path d="M255.08-376.08q-14.23 9.62-29.66 1.51-15.42-8.1-15.42-25.74v-159.38q0-17.64 15.42-25.74 15.43-8.11 29.66 1.51L373-504.23q13.23 9.15 13.23 24.31 0 15.15-13.23 24.15l-117.92 79.69ZM567.11-330q-9.73 0-16.11-6.52-6.38-6.53-6.38-16.17v-254.62q0-9.64 6.58-16.17 6.58-6.52 16.3-6.52 9.73 0 16.11 6.52 6.39 6.53 6.39 16.17v254.62q0 9.64-6.58 16.17-6.58 6.52-16.31 6.52Zm160 0q-9.73 0-16.11-6.52-6.38-6.53-6.38-16.17v-254.62q0-9.64 6.58-16.17 6.58-6.52 16.3-6.52 9.73 0 16.11 6.52 6.39 6.53 6.39 16.17v254.62q0 9.64-6.58 16.17-6.58 6.52-16.31 6.52Z"/></svg>