<svg xmlns="http://www.w3.org/2000/svg" width="48" height="48" viewBox="0 -960 960 960"><path d="M202.232-220.847q-47.615-51.692-74.923-117.576Q100.001-404.308 100.001-480q0-78.85 29.92-148.199 29.92-69.35 81.21-120.65 51.291-51.3 120.629-81.225 69.337-29.925 148.173-29.925t148.204 29.925q69.369 29.925 120.682 81.225 51.314 51.3 81.247 120.65Q859.999-558.85 859.999-480q0 75.692-27.308 141.577-27.308 65.884-74.923 117.576-6.077 6.692-16 6.692t-16.682-6.575q-6.01-6.194-5.817-15.809.192-9.615 6.269-16.922 42.154-44.616 65.615-102.193Q814.615-413.231 814.615-480q0-139.692-97.461-237.154Q619.692-814.615 480-814.615t-237.154 97.461Q145.385-619.692 145.385-480q0 66.598 23.654 124.261 23.654 57.662 65.808 102.278 5.692 7.692 6.077 16.922.384 9.231-6.693 16.308-6.692 6.692-16.289 6.325-9.597-.367-15.71-6.941Zm113-113q-25.615-29.307-40.423-66.45Q260.001-437.44 260.001-480q0-91.666 64.14-155.832 64.14-64.167 155.768-64.167 91.629 0 155.859 64.167Q699.999-571.666 699.999-480q0 42.692-14.824 79.569-14.823 36.878-40.407 66.584-6.077 6.692-16.092 6.692-10.015 0-16.523-6.692-5.948-6.014-6.012-15.16-.065-9.147 6.397-17.07 20.154-23 31.115-52.077 10.962-29.077 10.962-61.846 0-72.692-50.961-123.654Q552.692-654.615 480-654.615t-123.654 50.961Q305.385-552.692 305.385-480q0 32.769 10.962 61.846 10.961 29.077 31.115 52.077 6.462 7.923 6.654 16.846.192 8.923-6.801 15.916-7.16 7.16-16.583 6.853-9.423-.308-15.5-7.385Zm164.755 233.846q-9.91 0-16.294-6.395-6.385-6.394-6.385-16.297v-302.155q-16.999-7.076-27.153-21.987-10.154-14.911-10.154-33.212 0-24.491 17.731-42.221 17.73-17.731 42.268-17.731t42.268 17.731q17.731 17.73 17.731 42.176 0 18.269-10.154 33.026-10.154 14.757-27.153 22.218v302.155q0 9.903-6.398 16.297-6.398 6.395-16.307 6.395Z"/></svg>