<svg xmlns="http://www.w3.org/2000/svg" width="48" height="48" viewBox="0 -960 960 960"><path d="M332.386-145.385H627.23q4.615 0 8.269-2.885 3.655-2.885 5.193-7.116l48.769-193.846H269.769l49.154 193.846q1.154 4.231 4.808 7.116t8.655 2.885Zm0 45.384q-20 0-35.901-12.157-15.901-12.156-21.715-31.69l-52-205.384h513.69l-52 205.384q-5.813 19.149-21.714 31.498t-35.516 12.349H332.386ZM199.232-394.616h561.536q6.154 0 10.001-3.846 3.846-3.847 3.846-9.616v-88.846h-589.23v88.846q0 5.769 4.039 9.616 4.039 3.846 9.808 3.846Zm280.383-243.691q3.846-81.077 61.423-137.5 57.577-56.422 137.653-77.038 3.846-1 7.231-.5 3.384.5 6.384 3.5 3 3 3.808 6.344.808 3.343-.192 7.272-17.77 72.845-69.077 126.46-51.308 53.615-124.538 68.358v99.104h288.845q12.366 0 20.606 8.24 8.241 8.241 8.241 20.606v105.383q0 23.98-17.433 41.413-17.433 17.433-41.798 17.433H199.232q-24.365 0-41.798-17.433-17.433-17.433-17.433-41.413v-105.383q0-12.365 8.241-20.606 8.24-8.24 20.606-8.24h288.076v-98.847q-73.231-15-124.538-68.807-51.308-53.807-69.077-126.268-1-3.929-.192-7.272.807-3.344 3.807-6.344 3-3 6.385-3.807 3.385-.808 7.231-.193 80.691 20 138.46 77.231 57.769 57.23 60.615 138.307Z"/></svg>