<svg xmlns="http://www.w3.org/2000/svg" width="48" height="48" viewBox="0 -960 960 960"><path d="M442.385-185.385h75.23v-84.308l137-147.153v-177.538q0-4.615-3.846-8.462-3.847-3.846-8.463-3.846H317.694q-4.616 0-8.463 3.846-3.846 3.847-3.846 8.462v177.538l137 146.807v84.654Zm-45.384 16.537v-82.615L276.001-382q-7.418-7.444-11.709-17.538-4.291-10.094-4.291-21.693v-173.066q0-23.536 17.097-40.657 17.096-17.122 40.596-17.122h68.153l-22.692 22.692v-167.923q0-9.644 6.581-16.168 6.58-6.524 16.307-6.524 9.727 0 16.111 6.524 6.385 6.524 6.385 16.168v145.231h142.922v-145.231q0-9.644 6.58-16.168 6.58-6.524 16.308-6.524 9.727 0 16.111 6.524 6.385 6.524 6.385 16.168v167.923l-22.692-22.692h68.153q23.5 0 40.596 17.12 17.097 17.12 17.097 40.654v173.055q0 11.444-4.291 21.624-4.291 10.179-11.709 17.623l-121 130.537v82.615q0 12.26-8.293 20.553-8.294 8.294-20.553 8.294H425.847q-12.259 0-20.553-8.294-8.293-8.293-8.293-20.553ZM480-396.539Z"/></svg>