<svg xmlns="http://www.w3.org/2000/svg" width="48" height="48" viewBox="0 -960 960 960"><path d="M425.847-140.001q-12.519 0-20.682-8.164-8.164-8.163-8.164-20.683v-82.615L276.001-382q-7.615-7.616-11.807-17.838-4.193-10.222-4.193-21.393v-173.153q0-20.699 13.346-35.733 13.346-15.035 35.038-16.958v64.383l-220-220.001q-6.693-6.692-6.885-15.807-.192-9.115 6.885-16.192 7.076-7.077 15.999-7.077 8.923 0 16 7.077l714.154 714.154q6.692 6.692 6.885 15.807.192 9.116-6.885 16.192-6.692 7.077-15.807 7.077t-15.807-7.077l-202.54-202.539-37.385 39.615v82.615q0 12.52-8.164 20.683-8.163 8.164-20.682 8.164H425.847Zm253.075-228.461L363.155-684.229v-113.078q0-9.903 6.398-16.297 6.398-6.395 16.308-6.395 9.909 0 16.293 6.395 6.385 6.394 6.385 16.297v145.231h142.922v-145.231q0-9.903 6.398-16.297 6.398-6.395 16.307-6.395 9.91 0 16.294 6.395 6.385 6.394 6.385 16.297v167.923l-22.692-22.692h68.153q23.75 0 40.721 16.971 16.972 16.972 16.972 40.721v182.461q0 9.571-3.166 18.344-3.166 8.773-9.911 15.502l-8 9.615Z"/></svg>