<svg xmlns="http://www.w3.org/2000/svg" width="48" height="48" viewBox="0 96 960 960"><path d="M480.951 716.461q9.259 0 15.5-6.89 6.241-6.889 6.241-15.802v-174.77l69.539 71.155q5.692 6.692 15.423 6.192 9.73-.5 16.807-7.577 6.692-6.692 6.077-15.615-.616-8.923-7.077-16L499.51 452.84q-4.51-4.531-9.601-6.531-5.091-2-10.717-2-5.807 0-10.615 2t-9.339 6.531L354.539 557.539q-6.077 6.327-6.077 15.432 0 9.106 7.077 16.407 7.077 6.852 16.325 6.66 9.248-.192 16.29-6.884l69.77-70.155v174.77q0 8.913 6.884 15.802 6.885 6.89 16.143 6.89ZM157.694 875.999q-23.529 0-40.611-17.082-17.082-17.082-17.082-40.611V333.694q0-23.529 17.082-40.611 17.082-17.082 40.611-17.082h644.612q23.981 0 40.837 17.082t16.856 40.611v484.612q0 23.529-16.856 40.611-16.856 17.082-40.837 17.082H157.694Zm0-45.384q-5.385 0-8.847-3.462-3.462-3.462-3.462-8.847V333.694q0-5.385 3.462-8.847 3.462-3.462 8.847-3.462-5.385 0-8.847 3.462-3.462 3.462-3.462 8.847v484.612q0 5.385 3.462 8.847 3.462 3.462 8.847 3.462Zm0 0h644.612q5.385 0 8.847-3.462 3.462-3.462 3.462-8.847V333.694q0-5.385-3.462-8.847-3.462-3.462-8.847-3.462H157.694q-5.385 0-8.847 3.462-3.462 3.462-3.462 8.847v484.612q0 5.385 3.462 8.847 3.462 3.462 8.847 3.462Z"/></svg>