<svg xmlns="http://www.w3.org/2000/svg" width="48" height="48" viewBox="0 96 960 960"><path d="M698.383 394.54H261.617V277.072q0-12.272 8.293-20.517t20.553-8.245h378.915q12.515 0 20.76 8.293 8.245 8.294 8.245 20.553V394.54Zm27.731 169.614q13.347 0 23.116-9.776t9.769-22.923q0-13.148-9.774-22.917-9.774-9.769-22.918-9.769-13.539 0-23.116 9.776t-9.577 22.923q0 13.147 9.577 22.917 9.577 9.769 22.923 9.769ZM319.309 870.615h321.382q5.385 0 8.847-3.462 3.462-3.462 3.462-8.847V676.307H307v181.999q0 5.385 3.462 8.847 3.462 3.462 8.847 3.462Zm0 45.384q-23.798 0-40.745-17.097-16.947-17.096-16.947-40.596V744.23h-121.23q-12.26 0-20.553-8.294-8.293-8.293-8.293-20.552V512.077q0-37.704 25.884-63.582 25.884-25.879 63.961-25.879h557.228q38.184 0 64.015 25.879 25.83 25.878 25.83 63.582v203.307q0 12.259-8.293 20.552-8.293 8.294-20.553 8.294h-121.23v114.076q0 23.5-16.947 40.596-16.947 17.097-40.745 17.097H319.309Z"/></svg>