<svg xmlns="http://www.w3.org/2000/svg" width="48" height="48" viewBox="0 0 48 48"><path d="M24 41.15q-.5 0-.825-.325-.325-.325-.325-.825V25.65h-.7q-3 0-5.675-1.15T11.7 21.25q-2.05-2.15-3.125-4.9Q7.5 13.6 7.5 10.6V9q0-.6.425-1t1.025-.4h1.5q2.95 0 5.625 1.125T20.85 12q1.65 1.65 2.7 3.775 1.05 2.125 1.4 4.475.4-.75.95-1.475.55-.725 1.2-1.375 2.1-2.1 4.8-3.25Q34.6 13 37.55 13h1.55q.6 0 1 .4t.4 1V16q0 3-1.125 5.775-1.125 2.775-3.225 4.875t-4.775 3.225Q28.7 31 25.8 31h-.65v9q0 .5-.325.825-.325.325-.825.325ZM22.9 23.3q0-2.85-.975-5.35-.975-2.5-2.725-4.3-1.7-1.8-4.15-2.8-2.45-1-5.25-1 0 2.95.9 5.45t2.65 4.3q2 2.15 4.35 2.925 2.35.775 5.2.775Zm2.25 5.45q2.8 0 5.25-.975T34.6 25q1.75-1.75 2.7-4.25.95-2.5.95-5.5-2.85 0-5.3 1-2.45 1-4.2 2.8-2.05 2.1-2.825 4.475-.775 2.375-.775 5.225Zm0 0ZM22.9 23.3Z"/></svg>