<svg xmlns="http://www.w3.org/2000/svg" width="48" height="48" viewBox="0 -960 960 960"><path d="M202.693-130.001q-42.923 0-72.807-29.884-29.885-29.885-29.885-72.808v-167.461q0-5 .808-10.115t3.192-10.115l99.385-258.615q12.384-32.154 40.192-51.577 27.808-19.423 61.577-19.423 42.385 0 72.077 29.307 29.692 29.308 27.769 71.693v57.538l-79.538 79.923q-7.847 7.846-7.539 18.308.308 10.461 8.154 18.307 7.846 7.846 18.615 7.846 10.769 0 19-7.846l93.615-94v-278.384q0-9.923 6.385-16.308 6.384-6.384 16.307-6.384 9.923 0 16.307 6.384 6.385 6.385 6.385 16.308v278.384l94.615 94.616q7.846 7.846 18.615 7.538 10.769-.308 18.615-8.154 7.847-7.846 7.847-18.807 0-10.962-7.847-18.808l-79.538-78.923v-57.538q-1.923-42.385 27.961-71.693 29.885-29.307 71.885-29.307 34.154 0 61.769 19.423 27.616 19.423 39.616 51.577l100.153 258.615q2 5 2.808 10.115.808 5.115.808 10.115v167.461q0 42.923-29.885 72.808-29.884 29.884-72.807 29.884H622.692q-42.923 0-72.808-29.884Q520-189.77 520-232.693v-69.077q0-2 .308-3.615.307-1.615.307-3.615l19.231-158.539L480-528.385l-61.231 60.846L439.385-309q0 2 .307 3.615.308 1.615.308 3.615v69.077q0 42.923-30.077 72.808-30.077 29.884-72.615 29.884H202.693Z"/></svg>