<svg xmlns="http://www.w3.org/2000/svg" width="48" height="48" viewBox="0 -960 960 960"><path d="M187.693-90q-23 0-40.346-17.347-17.346-17.346-17.346-40.346v-504.614q0-23 17.346-40.346 17.346-17.346 40.346-17.346h69.615v-142.308q0-23.596 17.048-40.644T315-909.999h330q23.596 0 40.644 17.048t17.048 40.644v142.308h69.615q23 0 40.346 17.346 17.346 17.346 17.346 40.346v504.614q0 23-17.346 40.346-17.346 17.346-40.346 17.346H187.693Zm114.999-620h354.616v-142.308q0-5.385-3.462-8.847-3.461-3.462-8.846-3.462H315q-5.385 0-8.846 3.462-3.462 3.462-3.462 8.847V-710ZM187.693-135.384h584.614q4.616 0 8.462-3.847 3.847-3.846 3.847-8.462v-504.614q0-4.616-3.847-8.462-3.846-3.847-8.462-3.847H187.693q-4.616 0-8.462 3.847-3.847 3.846-3.847 8.462v504.614q0 4.616 3.847 8.462 3.846 3.847 8.462 3.847ZM479.855-210q-78.932 0-134.393-55.515Q290-321.029 290-399.961q0-78.931 55.515-134.677 55.514-55.746 134.446-55.746 78.931 0 134.677 55.799 55.746 55.799 55.746 134.73 0 78.932-55.799 134.393Q558.786-210 479.855-210Zm.028-40.384q62.293 0 106.205-43.604Q630-337.591 630-399.883q0-62.293-43.861-106.205Q542.277-550 479.984-550q-62.292 0-105.946 43.861-43.654 43.862-43.654 106.155 0 62.292 43.604 105.946 43.603 43.654 105.895 43.654Zm33.656-91.155-47.164-47.163q-1.682-1.683-4.067-10.067V-480q0-7.231 5.231-12.461 5.23-5.231 12.461-5.231t12.461 5.231q5.231 5.23 5.231 12.461v72.769l40.769 40.77q5.231 5.23 5.423 12.269.193 7.038-5.423 12.653-5.615 5.616-12.461 5.616t-12.461-5.616ZM480-400Z"/></svg>