<svg xmlns="http://www.w3.org/2000/svg" width="48" height="48" viewBox="0 -960 960 960"><path d="M637.918-180.001q-43.303 0-73.725-30.253-30.423-30.253-30.423-73.471 0-43.538 29.749-73.945 29.75-30.407 72.25-30.407 16.787 0 32.047 4.731 15.261 4.731 28.645 13.27V-669.23q0-13.076 9.134-21.922 9.134-8.847 22.635-8.847h101.002q12.969 0 21.868 9.048t8.899 22.423q0 13.375-8.847 22.221-8.846 8.846-21.922 8.846h-87.385v354.614q0 42.852-30.312 72.849-30.312 29.997-73.615 29.997ZM162.693-344.617q-9.644 0-16.168-6.58-6.524-6.58-6.524-16.308 0-9.727 6.524-16.111 6.524-6.385 16.168-6.385h245.231q9.644 0 16.168 6.58 6.524 6.581 6.524 16.308t-6.524 16.111q-6.524 6.385-16.168 6.385H162.693Zm0-154.999q-9.644 0-16.168-6.58-6.524-6.58-6.524-16.308 0-9.727 6.524-16.111Q153.049-545 162.693-545H568q9.644 0 16.168 6.581 6.524 6.58 6.524 16.307 0 9.727-6.524 16.111-6.524 6.385-16.168 6.385H162.693Zm0-154.999q-9.644 0-16.168-6.58-6.524-6.58-6.524-16.307 0-9.728 6.524-16.112 6.524-6.385 16.168-6.385H568q9.644 0 16.168 6.581 6.524 6.58 6.524 16.307 0 9.727-6.524 16.112-6.524 6.384-16.168 6.384H162.693Z"/></svg>