<svg xmlns="http://www.w3.org/2000/svg" width="48" height="48" viewBox="0 0 48 48"><path d="M33 38.65q2.4 0 4.025-1.625Q38.65 35.4 38.65 33q0-2.4-1.625-4.025Q35.4 27.35 33 27.35q-2.4 0-4.025 1.625Q27.35 30.6 27.35 33q0 2.4 1.625 4.025Q30.6 38.65 33 38.65ZM44 44q-.35.35-.8.35-.45 0-.8-.35l-4.65-4.65q-1 .7-2.2 1.15-1.2.45-2.55.45-3.3 0-5.625-2.325T25.05 33q0-3.3 2.325-5.625T33 25.05q3.3 0 5.625 2.325T40.95 33q0 1.35-.45 2.55-.45 1.2-1.15 2.2L44 42.4q.35.35.35.8 0 .45-.35.8ZM9.9 43q-1.2 0-2.05-.85Q7 41.3 7 40.1V7.9q0-1.2.85-2.05Q8.7 5 9.9 5h16.15q.6 0 1.15.25.55.25.95.6l8 8q.35.4.6.95.25.55.25 1.15v6.3q-.95-.4-1.95-.625-1-.225-2.05-.225-2.35 0-4.35.825-2 .825-3.5 2.275H15.6q-.25 0-.45.1t-.35.25q-.15.15-.25.35-.1.2-.1.45 0 .5.325.8.325.3.825.3h7.6q-.85 1.35-1.3 2.925-.45 1.575-.5 3.175h-5.8q-.5 0-.825.325-.325.325-.325.825 0 .5.325.825.325.325.825.325h6q.5 2.6 2.175 4.7Q25.45 41.95 27.9 43ZM26.15 7.25v7.1q0 .6.4 1t1 .4h7.2l-8.6-8.5 8.6 8.5Z"/></svg>