<svg xmlns="http://www.w3.org/2000/svg" width="48" height="48" viewBox="0 -960 960 960"><path d="M780.615-239.309 746-273.924q27.128-22.722 48.91-50.245 21.782-27.524 40.013-58.985-93.462-8.385-178.385-45.154-84.923-36.77-150.077-104.001l23.848 23.848q-67.231-64.538-103.693-148.961-36.462-84.424-44.462-176.885-30.425 17.281-58.289 39.487-27.865 22.205-50.326 48.435l-34.23-34.23q31.23-35.461 69.653-61.999 38.422-26.538 82.114-43.923 15.077-5.384 28.308 2.936 13.23 8.321 13.384 23.679-1.615 85.692 29.539 164.5 31.154 78.807 92.231 140.076 61.077 61.27 140.192 92.731 79.115 31.462 164.422 30.078 15.462-.462 24.116 13.961 8.653 14.423 2.269 29.115-16.385 42.692-42.923 80.807t-61.999 69.345ZM777-86.386l-93.077-91.462q-35.951 15.846-74.555 23.962-38.605 8.115-79.598 8.115-79.804 0-149.633-30.269-69.828-30.269-121.828-82.269-52-52-82.269-121.828-30.269-69.829-30.269-149.633 0-40.993 8.115-79.598 8.116-38.604 23.962-74.555l-90.462-90.846q-6.692-6.856-6.884-16.505-.193-9.648 6.988-16.725 6.795-6.692 16.355-6.692 9.561 0 16.771 6.692l688.383 689.614q6.66 7.173 6.676 16.24.016 9.067-6.776 15.86-6.977 6.976-16.092 6.668-9.115-.308-15.807-6.77ZM529.77-191.155q30.897 0 60.608-5.692t57.853-17.077L430.318-431.453 213.924-648.231q-11.385 28.153-17.077 58.001-5.692 29.848-5.692 60.46 0 141.41 98.602 240.013 98.603 98.602 240.013 98.602Zm-99.385-240.23Zm79.077-79.077Z"/></svg>