<svg xmlns="http://www.w3.org/2000/svg" width="48" height="48" viewBox="0 -960 960 960"><path d="M407.842-284.231q20.158 0 34.427-14.227 14.27-14.226 14.27-34.384t-14.419-34.427q-14.418-14.269-34.576-14.269-20.159 0-34.235 14.418-14.077 14.419-14.077 34.577 0 20.158 14.226 34.235 14.226 14.077 34.384 14.077Zm304.465-248.078q-74.922 0-127.46-52.538t-52.538-127.46q0-74.923 52.538-127.461t127.46-52.538q74.923 0 127.461 52.538t52.538 127.461q0 74.922-52.538 127.46t-127.461 52.538Zm0-147.691q7.077 0 12.385-5.308 5.307-5.307 5.307-12.384v-104.614q0-7.077-5.307-12.385-5.308-5.308-12.385-5.308t-12.384 5.308q-5.308 5.308-5.308 12.385v104.614q0 7.077 5.308 12.384Q705.23-680 712.307-680Zm0 76.923q8 0 13.615-5.616 5.616-5.615 5.616-13.615t-5.616-13.615q-5.615-5.616-13.615-5.616t-13.615 5.616q-5.616 5.615-5.616 13.615t5.616 13.615q5.615 5.616 13.615 5.616ZM198.513-110.771q-8.743 0-14.012-5.27-5.269-5.269-5.269-14.532 0-3.827 2.783-9.806 2.784-5.978 6.909-8.776l46.462-30.846q-56.692 0-92.192-38.385-35.5-38.384-35.5-89.307V-680q0-74.999 71.961-107.691 71.961-32.692 226.115-32.692 18.923 0 47.846.807 28.923.808 45.384 2.039-18.538 35.23-22.654 75.23-4.115 40 1.962 78.461h-325.23v174.616h469.925v-2.692q17.153 10.153 41.075 14.73 23.922 4.576 43.613 4.576v165.692q0 50.923-35.499 88.923-35.5 38-92.192 38l46.077 31.23q3.846 2.846 6.961 8.22 3.116 5.373 3.116 10.17 0 8.775-5.629 14.192-5.629 5.418-13.602 5.418h-418.41Z"/></svg>