<svg xmlns="http://www.w3.org/2000/svg" width="48" height="48" viewBox="0 -960 960 960"><path d="M555.307-89.154q-8.307 4.23-17.73 1.192-9.423-3.038-13.269-11.73L453.77-240.386q-3.846-8.308-1.116-17.73 2.731-9.423 11.039-13.269 8.307-3.846 17.73-.616 9.423 3.231 13.653 11.539l70.539 140.307q3.846 8.308.923 17.731-2.923 9.423-11.231 13.269Zm240.385-.616q-8.307 3.846-17.73.808-9.423-3.038-13.269-11.346L694.154-241q-3.846-8.308-1.115-17.731 2.731-9.423 11.038-13.269 8.308-4.23 17.73-1 9.423 3.231 13.654 11.539L806-120.769q3.846 8.308.923 17.73-2.923 9.423-11.231 13.27Zm-480.385 0q-8.307 3.846-17.922 1.308-9.615-2.538-13.461-11.23l-70.539-140.693q-3.846-8.308-.615-17.73 3.23-9.423 11.538-13.269 8.307-3.846 17.73-1.116 9.423 2.731 13.269 11.039l70.539 141.307q3.846 8.308.807 17.423-3.038 9.115-11.346 12.961Zm-22.614-254.846q-83.923 0-143.308-59.384-59.384-59.385-59.384-143.307 0-77.462 54.577-136.577 54.576-59.115 137.038-65.5 30.846-56 82.192-88.308Q415.154-869.999 480-869.999q88.692 0 149.231 57.307 60.538 57.308 72.615 142.308 79 3.615 123.576 51.385 44.577 47.769 44.577 111.692 0 67.307-47.384 114.999-47.385 47.692-115.308 47.692H292.693Zm0-45.383h414.614q48.693 0 83.001-34.616 34.308-34.615 34.308-82.692 0-48.693-34.308-83.001-34.308-34.308-83.001-34.308h-49.999v-22.691q0-73.693-51.808-125.501-51.807-51.808-125.5-51.808-53.308 0-97.539 28.847Q338.23-766.923 317.076-718l-5.692 13.384h-20.691Q226-702.616 180.692-657q-45.308 45.615-45.308 109.693 0 65.077 46.116 111.192 46.115 46.116 111.193 46.116ZM480-607.307Z"/></svg>