<svg xmlns="http://www.w3.org/2000/svg" width="48" height="48" viewBox="0 -960 960 960"><path d="M227-100.001q-37.211 0-63.22-26.01-26.009-26.009-26.009-63.22v-74.614q0-12.26 8.293-20.553 8.293-8.293 20.553-8.293h96.231v-533.615q0-10.384 8.769-11.731 8.769-1.346 16.384 6.27l30.231 30.23 45.597-44.917q4.193-4.467 10.444-4.467 6.252 0 10.683 4.526l44.968 44.858 45.597-44.917q4.193-4.467 10.444-4.467 6.252 0 10.639 4.526l45.627 44.858 45.597-44.917q4.193-4.467 10.444-4.467 6.252 0 10.639 4.526l45.627 44.858 45.597-44.917q4.193-4.467 10.445-4.467 6.251 0 10.638 4.526l45.627 44.858 30.23-30.23q7.616-8 16.385-6.27 8.769 1.731 8.769 12.004v636.802q0 37.211-26.009 63.22-26.009 26.01-63.22 26.01H227Zm506.192-45.384q19.038 0 31.346-12.308 12.308-12.307 12.308-31.538v-585.384H308.231v481.924h352.461q12.26 0 20.553 8.293 8.293 8.293 8.293 20.553v74.566q0 19.279 12.308 31.586 12.308 12.308 31.346 12.308ZM387.154-626.231q-8.923 0-15.307-6.706-6.385-6.705-6.385-16.307 0-9.602 6.524-15.986 6.524-6.385 16.168-6.385h181.539q9.643 0 16.167 6.581 6.524 6.58 6.524 16.307 0 9.727-6.524 16.111-6.524 6.385-16.167 6.385H387.154Zm0 130.538q-8.923 0-15.307-6.905-6.385-6.904-6.385-16.307 0-9.402 6.524-15.787 6.524-6.384 16.168-6.384h181.539q9.643 0 16.167 6.58 6.524 6.58 6.524 16.307 0 9.727-6.524 16.112-6.524 6.384-16.167 6.384H387.154ZM685-620.846q-11.231 0-19.654-8.423t-8.423-19.654q0-11.231 8.423-19.654T685-677q11.23 0 19.653 8.423 8.423 8.423 8.423 19.654t-8.423 19.654q-8.423 8.423-19.653 8.423Zm0 126.692q-11.231 0-19.654-8.423t-8.423-19.654q0-11.23 8.423-19.653 8.423-8.423 19.654-8.423 11.23 0 19.653 8.423 8.423 8.423 8.423 19.653 0 11.231-8.423 19.654T685-494.154ZM226.111-145.385h418.044v-101.922H183.154v58.076q0 19.231 12.458 31.538 12.458 12.308 30.499 12.308Zm-42.957 0v-101.922 101.922Z"/></svg>