<svg xmlns="http://www.w3.org/2000/svg" width="48" height="48" viewBox="0 -960 960 960"><path d="M226.15-187.69q-19.23 0-32.69-13.47Q180-214.62 180-233.85v-29.77q0-32.23 17.08-56.15t44.38-36.77q63.16-28.07 121.77-42.31 58.62-14.23 116.77-14.23 24.08 0 48.15 2.27 24.08 2.27 48.16 7.04 8.31 2 13.88 8.93 5.58 6.92 5.58 16.12 0 9.57-7.23 15.14-7.23 5.58-16.69 3.58-23.08-4.54-45.73-6.12-22.66-1.57-46.12-1.57-55.32 0-108.12 12-52.8 12-111.42 39.69-15.92 8.15-25.5 22.46-9.57 14.31-9.57 29.92v30.54h347.69q9.9 0 16.3 6.4 6.39 6.4 6.39 16.31 0 9.91-6.39 16.29-6.4 6.39-16.3 6.39H226.15Zm-.76-45.39h370.38-370.38Zm159.3-297.23q-37.38-37.38-37.38-95.5 0-58.11 37.38-95.3 37.39-37.2 95.31-37.2t95.31 37.2q37.38 37.19 37.38 95.3 0 58.12-37.38 95.5-37.39 37.39-95.31 37.39t-95.31-37.39Zm157.69-32.92q24.93-24.92 24.93-62.38 0-37.47-24.93-62.39-24.92-24.92-62.38-24.92T417.62-688q-24.93 24.92-24.93 62.39 0 37.46 24.93 62.38 24.92 24.92 62.38 24.92t62.38-24.92ZM480-625.61Zm257.31 404.46h-39.62q-12.52 0-20.68-8.13t-8.16-20.6v-144.11q0-12.47 8.16-20.59 8.16-8.11 20.68-8.11h118.92q12.09 0 18.47 10.61 6.38 10.62 1.38 21.23l-60.92 120.47H814q12.23 0 19.04 10.92 6.81 10.92.19 21.54L750.92-90.08q-3 5-8.3 3.69-5.31-1.3-5.31-6.92v-127.84Z"/></svg>