<svg xmlns="http://www.w3.org/2000/svg" width="48" height="48" viewBox="0 -960 960 960"><path d="M285.39-100q-23.85 0-40.77-16.92-16.93-16.93-16.93-40.77v-324.62q0-23.84 16.93-40.77Q261.54-540 285.39-540H610q23.85 0 40.77 16.92 16.92 16.93 16.92 40.77V-350l87.08-87.08q6.61-6.61 15.92-3.11 9.31 3.5 9.31 12.73v215.3q0 9.24-9.31 12.54-9.31 3.31-15.92-3.3L667.69-290v132.31q0 23.84-16.92 40.77Q633.85-100 610-100H285.39Zm505.76-510H634.61q-9.92 0-16.3-6.38-6.39-6.39-6.39-16.31 0-9.92 6.39-16.31 6.38-6.38 16.3-6.38h107.47q-38.54-73.7-108.62-116.47-70.07-42.76-153.46-42.76-91.92 0-167.19 49.76-75.27 49.77-109.19 133.01-4.31 10.53-12.43 13.76-8.11 3.23-16.42-.23-8.69-3.46-12.73-11.84-4.04-8.39-.58-16.69 37.77-97 125-155.08Q373.69-860 480-860q91.77 0 170.5 45.77t124.11 125.62v-106.77q0-9.93 6.39-16.31 6.38-6.38 16.31-6.38 9.92 0 16.3 6.38 6.39 6.38 6.39 16.31v156.53q0 12.62-8.12 20.74-8.11 8.11-20.73 8.11Z"/></svg>