<svg xmlns="http://www.w3.org/2000/svg" width="48" height="48" viewBox="0 -960 960 960"><path d="M299.231-316.539 112.155-502.615q-4.616-4.616-6.616-9.616t-2-10.615q0-6 2-10.808 2-4.807 6.616-9.423l187.461-187.461q6.077-6.077 15.615-6.384 9.538-.308 16.615 6.769 7.076 7.077 6.884 16.307-.192 9.231-6.884 16.307L157.153-522.846 332.23-347.769q6.077 6.077 6.192 15.307.116 9.231-6.576 15.923-7.077 7.077-16.308 7.077-9.23 0-16.307-7.077Zm545.538 106.538q-9.923 0-16.307-6.384-6.385-6.385-6.385-16.308v-124.461q0-61.154-40.923-102.077-40.923-40.923-102.462-40.923H365.23l152.385 152.385q6.077 6.077 5.885 15.307-.193 9.231-7.269 15.923-6.692 7.077-16.115 7.077-9.423 0-16.115-7.077L297.54-502.615q-4.616-4.616-6.616-9.616t-2-10.615q0-6 2-10.808 2-4.807 6.616-9.423l187.461-187.461q6.077-6.077 15.615-6.384 9.538-.308 16.615 6.769 7.076 7.077 6.884 16.307-.192 9.231-6.884 16.307L365.23-545.538h313.462q80.384 0 134.577 54 54.192 54 54.192 134.384v124.461q0 9.923-6.385 16.308-6.384 6.384-16.307 6.384Z"/></svg>