<svg xmlns="http://www.w3.org/2000/svg" width="48" height="48" viewBox="0 -960 960 960"><path d="M325.39-570H168.85q-12.62 0-20.73-8.11-8.12-8.12-8.12-20.74v-156.53q0-9.93 6.39-16.31 6.38-6.38 16.3-6.38 9.93 0 16.31 6.38 6.39 6.38 6.39 16.31v106.77q43.76-76.85 121.8-124.12Q385.23-820 480-820q109.92 0 196.04 60.89 86.11 60.88 122.5 152.65 3.84 8.69-.08 17.42-3.92 8.73-12.42 12.39-8.5 3.65-17.43-.27-8.92-3.93-12.38-12.23-31.69-79.62-106.38-132.54-74.7-52.92-169.85-52.92-86.39 0-155.77 44.07-69.38 44.08-106.31 115.16h107.47q9.92 0 16.3 6.38 6.39 6.39 6.39 16.31 0 9.92-6.39 16.31-6.38 6.38-16.3 6.38ZM296-247.77h372.07q8.62 0 12.43-7.81 3.81-7.81-1.19-15.42L578.85-405.08q-4.62-6-11.43-6t-11.42 6L446.38-266.23l-70.61-92.54q-4.62-5.61-11.42-5.61-6.81 0-11.43 6L285.39-271q-5.62 7.61-1.81 15.42t12.42 7.81ZM197.69-100q-23.84 0-40.77-16.92Q140-133.85 140-157.69v-301.92q0-9.93 6.39-16.31 6.38-6.39 16.3-6.39 9.93 0 16.31 6.39 6.39 6.38 6.39 16.31v301.92q0 5.38 3.46 8.84t8.84 3.46h564.62q5.38 0 8.84-3.46t3.46-8.84v-301.92q0-9.93 6.39-16.31 6.38-6.39 16.31-6.39 9.92 0 16.3 6.39 6.39 6.38 6.39 16.31v301.92q0 23.84-16.92 40.77Q786.15-100 762.31-100H197.69Z"/></svg>