<svg xmlns="http://www.w3.org/2000/svg" width="48" height="48" viewBox="0 -960 960 960"><path d="m480-467.154 79.307 48.384q8 5 15.615-1 7.616-6 5.616-15.615l-21.077-89.154L629.537-585q7.616-7 4.291-15.578-3.325-8.578-12.521-9.652l-92.194-7.728-35.498-84.426q-3.796-8.615-13.513-8.615t-13.717 8.615l-35.498 84.426-92.194 7.728q-9.196 1.074-12.521 9.652Q322.847-592 330.463-585l70.076 60.461-21.077 89.154q-2 9.615 5.616 15.615 7.615 6 15.615 1L480-467.154ZM241.539-260.001l-92.461 92.46q-13.615 13.615-31.346 6.271-17.731-7.343-17.731-26.502v-614.534q0-23.529 17.082-40.611 17.082-17.082 40.611-17.082h644.612q23.529 0 40.611 17.082 17.082 17.082 17.082 40.611v484.612q0 23.529-17.082 40.611-17.082 17.082-40.611 17.082H241.539Zm-19.846-45.384h580.613q4.616 0 8.463-3.846 3.846-3.847 3.846-8.463v-484.612q0-4.616-3.846-8.463-3.847-3.846-8.463-3.846H157.694q-4.616 0-8.463 3.846-3.846 3.847-3.846 8.463v577.69l76.308-80.769Zm-76.308 0v-509.23 509.23Z"/></svg>