<svg xmlns="http://www.w3.org/2000/svg" width="48" height="48" viewBox="0 -960 960 960"><path d="M184.77-124.617q-12.769 12.769-30.077 12.769-17.307 0-30.076-12.769-12.769-12.769-12.769-29.769 0-16.999 12.769-29.768l152.002-151.617-87.922-29.23q-10.615-3.616-10.308-14.231.308-10.616 10.923-13.616l265.457-79.537q7.616-2 13.923 4.308Q475-461.769 473-454.154l-79.537 265.457q-3 10.615-13.615 10.923-10.616.308-14.231-10.308l-29.231-87.921L184.77-124.617ZM700.614-480q0 72.076-41.577 129.114-41.576 57.038-108.268 79.5-8.923 3.231-17.23-1.231-8.308-4.461-11.539-13.384-2.846-8.923 1.423-17.23 4.27-8.308 13.192-11.539 51.692-17 85.154-62.461Q655.23-422.693 655.23-480q0-72.692-50.961-123.654-50.962-50.961-123.654-50.961-58.307 0-103.076 33.269-44.769 33.269-61.769 84.961-3.231 8.923-11.539 13.577-8.307 4.654-17.23 1.808-9.307-3.231-13.461-11.731t-.923-17.423q22.077-66.076 78.384-107.96 56.307-41.885 129.614-41.885 91.923 0 155.961 64.038Q700.614-571.922 700.614-480Z"/></svg>