<svg xmlns="http://www.w3.org/2000/svg" width="48" height="48" viewBox="0 -960 960 960"><path d="M479.637-89.618q-20.791 0-35.406-14.755-14.615-14.755-14.615-35.628H122.693q-9.644 0-16.168-6.581-6.524-6.58-6.524-16.307 0-9.727 6.524-16.112 6.524-6.384 16.168-6.384h57.308v-576.921q0-23.5 17.097-40.596 17.096-17.097 40.596-17.097h484.612q23.5 0 40.596 17.097 17.097 17.096 17.097 40.596v576.921h57.308q9.644 0 16.168 6.58 6.524 6.58 6.524 16.307 0 9.728-6.524 16.112-6.524 6.385-16.168 6.385H530.384q0 21.153-14.979 35.768-14.978 14.615-35.768 14.615Zm-254.252-95.767h231.923v-110H225.385v110Zm277.307 0h231.923v-110H502.692v110Z"/></svg>