<svg xmlns="http://www.w3.org/2000/svg" width="48" height="48" viewBox="0 -960 960 960"><path d="M166.77-485.307q-11.154 0-17.846-8.116-6.692-8.115-4.461-18.653 6.615-33.539 18.385-63.193 11.769-29.653 28.923-55.653 6.077-9.539 16.615-10.462 10.538-.923 18.845 7 6.077 6.462 6.693 14.769.615 8.308-3.231 15-15.539 24.154-26 49.461-10.462 25.308-15.847 51.616-1.23 7.692-7.807 12.961-6.577 5.27-14.269 5.27Zm268.384 358.152q0 11.539-8.308 18.231-8.307 6.692-18.845 4.461-30.539-7-60.193-18.769-29.654-11.769-57.038-29.539-9.539-6.077-10.462-16.615-.923-10.538 7.385-18.461 6.077-6.077 14.076-6.384 8-.308 14.692 3.538 24.154 15.539 49.27 25.616 25.115 10.077 50.808 15.461 7.692 1.231 13.154 8 5.461 6.769 5.461 14.461ZM227.231-248.924q-8.307 7.923-18.538 7-10.23-.923-16.307-10.461-16.538-26.769-28.115-56.923-11.577-30.154-19.193-62.923-1.846-10.539 4.346-18.154T166.77-398q8.308 0 14.577 5.461 6.269 5.462 7.499 12.769 5.385 26.308 15.347 51.616 9.961 25.308 25.5 49.462 4.231 6.692 3.423 15.499-.808 8.808-5.885 14.269Zm321.384 144.461q-10.923 2.231-18.846-4.461t-7.923-17.846q0-8.308 5.269-14.884 5.269-6.577 12.961-7.808 101.385-23.692 166.962-103.807 65.577-80.116 65.577-188.577 0-123.923-85.154-209.269T478-736.461h-28.462l68.539 68.539q7.077 7.077 7.077 16.615 0 9.538-7.077 16.615-7.077 7.077-16.807 7.077-9.731 0-16.807-7.077l-103.846-104.23q-5-4.615-7-9.423t-2-10.808q0-5.615 2-10.423t7-9.423l104.23-104.23q6.692-7.077 16.423-7.077 9.73 0 16.807 7.077 6.692 6.692 6.692 16.422 0 9.731-7.076 16.808l-68.155 68.154H478q142.538 0 241.268 98.923 98.731 98.923 98.731 241.076 0 125.23-75.693 219.038-75.692 93.807-193.691 118.345Z"/></svg>