<svg xmlns="http://www.w3.org/2000/svg" width="48" height="48" viewBox="0 -960 960 960"><path d="M340.54-487.89q-30.16-42.57-53.54-91.03-11.46 23.46-17.39 48.19-5.92 24.73-5.92 50.73 0 90.28 63.02 153.29 63.01 63.02 153.29 63.02 25.62 0 50.45-5.92 24.83-5.93 47.47-17.39-48.07-23.38-90.4-53.61-42.33-30.23-79.58-67.46-37.25-37.24-67.4-79.82ZM481-217.31q-52.71 0-100.55-19.92-47.83-19.92-85.06-57.16-37.24-37.23-57.16-85.06-19.92-47.84-19.92-100.55 0-40.98 12.88-80.49Q244.08-600 268-633.08q9.85-13.23 25.69-12.03 15.85 1.19 20.85 15.03 20.77 55.08 52.81 102.35 32.03 47.27 73.07 88.31 41.04 41.04 88.81 72.77 47.77 31.73 101.85 53.11 13.23 5 14.73 20.54t-11.73 25.38q-33.01 24.71-72.47 37.51-39.46 12.8-80.61 12.8Zm212.31-152.31q-8.89-2.45-12.45-11.15-3.55-8.69.29-17 24.54-60.69 12.35-125T634-634q-45.54-45.92-107.69-59-62.16-13.08-121.85 8.85-8.92 3.84-17.99.28-9.07-3.57-12.62-11.44-4.85-8.78-1.5-16.66 3.34-7.88 11.65-11.72 73.46-29 149.5-14.39 76.04 14.62 133.55 72.13 56.8 56.8 72.03 132.64 15.23 75.85-13.77 149.31-3.85 9.92-12.86 14.08-9.02 4.15-19.14.3ZM479.82-834.61q-9.74 0-16.13-6.52-6.38-6.51-6.38-16.18v-62.3q0-9.67 6.56-16.18 6.57-6.52 16.31-6.52 9.74 0 16.13 6.52 6.38 6.51 6.38 16.18v62.3q0 9.67-6.56 16.18-6.57 6.52-16.31 6.52Zm0 816.92q-9.74 0-16.13-6.52-6.38-6.51-6.38-16.18v-62.3q0-9.67 6.56-16.18 6.57-6.52 16.31-6.52 9.74 0 16.13 6.52 6.38 6.51 6.38 16.18v62.3q0 9.67-6.56 16.18-6.57 6.52-16.31 6.52Zm251.33-712.94q-7.07-7.17-7.07-16.31 0-9.14 7.07-16.21l42.77-42.77q6.69-6.08 15.81-6.58 9.12-.5 16.19 6.35 7.08 7.3 7.08 16.48 0 9.17-7.08 16.36l-42.77 42.77q-6.76 6.69-15.84 6.89-9.08.19-16.16-6.98ZM154.08-153.85q-7.08-7.3-7.08-16.48 0-9.17 7.08-16.36l42.77-42.77q6.76-6.69 15.84-6.89 9.08-.19 16.16 6.98 7.07 7.17 7.07 16.31 0 9.14-7.07 16.21l-42.77 42.77q-6.69 6.08-15.81 6.58-9.12.5-16.19-6.35Zm703.23-303.46q-9.67 0-16.18-6.56-6.52-6.57-6.52-16.31 0-9.74 6.52-16.13 6.51-6.38 16.18-6.38h62.3q9.67 0 16.18 6.56 6.52 6.57 6.52 16.31 0 9.74-6.52 16.13-6.51 6.38-16.18 6.38h-62.3Zm-816.92 0q-9.67 0-16.18-6.56-6.52-6.57-6.52-16.31 0-9.74 6.52-16.13 6.51-6.38 16.18-6.38h62.3q9.67 0 16.18 6.56 6.52 6.57 6.52 16.31 0 9.74-6.52 16.13-6.51 6.38-16.18 6.38h-62.3Zm765.76 303.23q-7.3 7.08-16.48 7.08-9.17 0-16.36-7.08l-42.77-42.77q-6.69-6.76-6.89-15.84-.19-9.08 6.98-16.16 7.17-7.07 16.31-7.07 9.14 0 16.21 7.07l42.77 42.77q6.08 6.69 6.58 15.81.5 9.12-6.35 16.19ZM229.37-731.15q-7.17 7.07-16.31 7.07-9.14 0-16.21-7.07l-42.77-42.77q-6.08-6.69-6.58-15.81-.5-9.12 6.35-16.19 7.3-7.08 16.48-7.08 9.17 0 16.36 7.08l42.77 42.77q6.69 6.76 6.89 15.84.19 9.08-6.98 16.16ZM408-408Z"/></svg>