<svg xmlns="http://www.w3.org/2000/svg" width="48" height="48" viewBox="0 96 960 960"><path d="M213 936q-32.154 0-54.884-22.73-22.73-22.731-22.73-54.884 0-32.538 22.73-55.268 22.73-22.73 54.884-22.73 32.537 0 55.268 22.73 22.73 22.73 22.73 55.268 0 32.153-22.73 54.884Q245.537 936 213 936Zm538.154 0q-13.769 0-23.808-9.731-10.038-9.73-11.268-24.114-6.077-110.539-50.885-207.077-44.808-96.539-118.577-170.308Q472.847 451 376.308 406.193q-96.538-44.808-207.077-50.885-14.384-1.23-24.115-10.961-9.73-9.731-9.73-23.73 0-14.384 10.038-24.423 10.038-10.038 23.807-9.192 124.538 6.077 233.538 56.654 109 50.577 191.692 133.269 82.692 82.692 133.269 191.692 50.577 108.999 56.654 233.538.846 13.769-8.885 23.807Q765.769 936 751.154 936Zm-238.77 0q-13.384 0-23.422-9.423t-11.269-23.807q-10.308-130-95-216.923Q298 598.924 168.616 588.001q-14.385-1.231-23.807-10.769-9.423-9.538-9.423-23.923 0-13.999 10.038-23.922t23.807-8.692q157.153 10.923 260.807 117.307 103.653 106.384 114.576 264.153 1.616 13.769-7.807 23.807Q527.384 936 512.384 936Z"/></svg>