<svg xmlns="http://www.w3.org/2000/svg" width="48" height="48" viewBox="0 -960 960 960"><path d="M479.707-100.001q-122.783 0-206.783-80.539-84-80.538-92.307-203.768-.616-10.538 5.251-17.115 5.868-6.577 16.74-6.577 11.239 0 17.008 6.577 5.769 6.577 7 16.499 8.307 103.77 79.091 171.654 70.784 67.885 174.538 67.885 103.755 0 174.293-67.885 70.539-67.884 78.846-171.654 1.231-9.922 7-16.499Q746.153-408 756.892-408q11.122 0 17.114 6.577 5.993 6.577 5.377 17.115-8.307 123.23-92.6 203.768-84.293 80.539-207.076 80.539ZM215.204-480.384q-11.664 0-19.78-8.297-8.115-8.298-8.115-19.962t8.298-19.779q8.297-8.115 19.961-8.115 11.664 0 19.779 8.297 8.116 8.298 8.116 19.961 0 11.664-8.298 19.78-8.298 8.115-19.961 8.115Zm172.307 0q-11.664 0-19.78-8.297-8.115-8.298-8.115-19.962t8.298-19.779q8.297-8.115 19.961-8.115 11.664 0 19.779 8.297 8.116 8.298 8.116 19.961 0 11.664-8.298 19.78-8.297 8.115-19.961 8.115Zm184.614 0q-11.664 0-19.779-8.297-8.116-8.298-8.116-19.962t8.298-19.779q8.297-8.115 19.961-8.115 11.664 0 19.78 8.297 8.115 8.298 8.115 19.961 0 11.664-8.298 19.78-8.297 8.115-19.961 8.115Zm172.307 0q-11.664 0-19.779-8.297-8.116-8.298-8.116-19.962t8.298-19.779q8.298-8.115 19.961-8.115 11.664 0 19.78 8.297 8.115 8.298 8.115 19.961 0 11.664-8.298 19.78-8.297 8.115-19.961 8.115ZM301.357-586.537q-11.664 0-19.779-8.298t-8.115-19.961q0-11.664 8.297-19.78 8.298-8.115 19.961-8.115 11.664 0 19.78 8.298 8.115 8.297 8.115 19.961 0 11.664-8.297 19.779-8.298 8.116-19.962 8.116Zm356.922 0q-11.664 0-19.78-8.298-8.115-8.298-8.115-19.961 0-11.664 8.297-19.78 8.298-8.115 19.962-8.115t19.779 8.298q8.115 8.297 8.115 19.961 0 11.664-8.297 19.779-8.298 8.116-19.961 8.116Zm-178.461-6.154q-11.664 0-19.779-8.298-8.116-8.297-8.116-19.961 0-11.664 8.298-19.779 8.297-8.116 19.961-8.116 11.664 0 19.779 8.298 8.116 8.297 8.116 19.961 0 11.664-8.298 19.78-8.297 8.115-19.961 8.115Zm-92.307-100q-11.664 0-19.78-8.298-8.115-8.297-8.115-19.961 0-11.664 8.298-19.779 8.297-8.116 19.961-8.116 11.664 0 19.779 8.298 8.116 8.297 8.116 19.961 0 11.664-8.298 19.78-8.297 8.115-19.961 8.115Zm184.614 0q-11.664 0-19.779-8.298-8.116-8.297-8.116-19.961 0-11.664 8.298-19.779 8.297-8.116 19.961-8.116 11.664 0 19.78 8.298 8.115 8.297 8.115 19.961 0 11.664-8.298 19.78-8.297 8.115-19.961 8.115Zm-92.307-96.154q-11.664 0-19.779-8.297-8.116-8.298-8.116-19.962 0-11.663 8.298-19.779 8.297-8.115 19.961-8.115 11.664 0 19.779 8.297 8.116 8.298 8.116 19.962t-8.298 19.779q-8.297 8.115-19.961 8.115ZM480-408Z"/></svg>