<svg xmlns="http://www.w3.org/2000/svg" width="48" height="48" viewBox="0 -960 960 960"><path d="M670.791-640.384q-18.484 0-31.945-13.447-13.462-13.447-13.462-31.942 0-14.594 12.757-34.692 12.756-20.098 21.628-30.764 4.519-5 10.951-5 6.433 0 11.177 5 9.118 10.877 21.687 30.536t12.569 34.925q0 18.493-13.231 31.939-13.23 13.445-32.131 13.445Zm101.597 258.46q-32.851 0-56.081-23.193-23.231-23.194-23.231-56.108 0-28.082 22.319-65.527 22.318-37.444 39.681-59.324 6.773-8.384 17.309-8.384 10.537 0 17.537 8.384 17.087 21.581 39.351 59.431 22.263 37.85 22.263 65.596 0 32.664-22.953 55.895-22.953 23.23-56.195 23.23Zm-395.464 37.692v57.308q0 9.644 6.58 16.168 6.581 6.524 16.308 6.524t16.111-6.524q6.385-6.524 6.385-16.168v-57.308h57.308q9.644 0 16.168-6.58 6.524-6.58 6.524-16.307 0-9.727-6.524-16.112-6.524-6.384-16.168-6.384h-57.308v-57.309q0-9.644-6.58-16.167-6.58-6.524-16.308-6.524-9.727 0-16.111 6.524-6.385 6.523-6.385 16.167v57.309h-57.308q-9.644 0-16.168 6.58-6.524 6.58-6.524 16.307 0 9.727 6.524 16.112 6.524 6.384 16.168 6.384h57.308ZM246.156-156.155h306.92q4.616 0 8.463-3.846 3.846-3.847 3.846-8.463v-318.949q0-68.971-48.346-117.317-48.346-48.346-117.115-48.346T282.501-604.73q-48.654 48.346-48.654 117.317v318.949q0 4.616 3.847 8.463 3.846 3.846 8.462 3.846Zm0 0h-12.309 331.538-319.229Zm-.136 45.384q-23.393 0-40.475-17.082-17.081-17.082-17.081-40.611v-318.843q0-80.137 53.73-139.705 53.731-59.567 134.73-70.602v-106.231h-60q-9.644 0-16.168-6.58-6.523-6.58-6.523-16.307 0-9.728 6.523-16.112 6.524-6.385 16.168-6.385h195.769q20.922 0 39.8 4.185 18.878 4.185 36.045 13.354 6.01 2.692 9.889 8.334 3.88 5.642 3.88 12.71 0 10.014-6.995 16.561-6.996 6.548-16.312 6.548-2.301 0-11.769-2.847-13.006-6.282-26.349-9.871-13.343-3.59-28.189-3.59h-90.385v106.231q80.999 11.035 134.73 70.602 53.731 59.568 53.731 139.705v318.843q0 23.529-17.082 40.611-17.082 17.082-40.475 17.082H246.02Z"/></svg>