<svg xmlns="http://www.w3.org/2000/svg" width="48" height="48" viewBox="0 96 960 960"><path d="M271.308 542.153q67.209-11.838 115.108-59.737t59.737-115.493q1.615-9.077-4.695-16.153-6.309-7.077-16.92-7.077-7.251 0-13.048 5.269-5.798 5.269-7.413 13.192-9.539 53.077-47.193 90.73-37.653 37.654-90.73 47.193-7.923 1.615-13.192 6.884t-5.269 13.885q0 9.384 7.077 16.153 7.076 6.769 16.538 5.154Zm-7.154-123.692q22.751-5.443 38.952-20.76 16.201-15.316 22.586-37.44 2.384-6.627-1.846-11.598-4.231-4.97-11.462-4.97h-49.691q-6.231 0-10.616 4.269-4.384 4.269-4.384 10.346v46.846q0 7.23 4.938 11.461 4.939 4.231 11.523 1.846Zm32.002 347.538h370.15q8.692 0 12.846-8t-.846-16L578.23 609.078q-4.615-6-11.541-6t-12.074 6l-108.846 138.46-70.614-92.152q-4.616-5.616-11.616-5.423-7 .192-11.615 5.807l-67.383 86.229q-6 8-1.789 16 4.212 8 13.404 8Zm-98.462 150q-23.529 0-40.611-17.082-17.082-17.082-17.082-40.611V293.694q0-23 17.082-40.346 17.082-17.347 40.611-17.347h564.612q23 0 40.346 17.347 17.347 17.346 17.347 40.346v564.612q0 23.529-17.347 40.611-17.346 17.082-40.346 17.082H197.694Zm0-634.614q-5.385 0-8.847 3.462-3.462 3.462-3.462 8.847v564.612q0 5.385 3.462 8.847 3.462 3.462 8.847 3.462h564.612q5.385 0 8.847-3.462 3.462-3.462 3.462-8.847V293.694q0-5.385-3.462-8.847-3.462-3.462-8.847-3.462H197.694Zm0 589.23q-5.385 0-8.847-3.462-3.462-3.462-3.462-8.847V293.694q0-5.385 3.462-8.847 3.462-3.462 8.847-3.462-5.385 0-8.847 3.462-3.462 3.462-3.462 8.847v564.612q0 5.385 3.462 8.847 3.462 3.462 8.847 3.462Z"/></svg>