<svg xmlns="http://www.w3.org/2000/svg" width="48" height="48" viewBox="0 -960 960 960"><path d="M592.693-43q-9.308.615-16-5.77-6.692-6.384-6.692-15.922 0-9.693 6.384-16.077 6.385-6.385 16.692-7.615 108.308-8.308 185.077-85.269 76.77-76.962 85.077-185.27 1.231-10.307 8-16.692 6.769-6.384 16.076-6.384 9.539 0 15.923 6.692 6.385 6.692 5.769 16-8.307 128.153-98.23 218.076t-218.076 98.23Zm.23-119.078q-9.307 1.231-16.115-5.461-6.807-6.692-6.807-16.23 0-8.692 6.577-15.885 6.576-7.192 16.268-8.422 57.078-9.077 99.539-51.539 42.462-42.461 51.539-99.539 1.23-9.692 8.115-16.268 6.884-6.577 16.576-6.577 9.154 0 15.846 6.807 6.692 6.808 5.461 15.731-8.692 76.076-64.999 132.384-56.308 56.307-132 64.999ZM233.539-72.463q-11.23 0-21.769-3.923-10.538-3.923-18.154-11.539L31.309-250.232q-7.615-7.615-11.538-18.154-3.923-10.538-3.923-21.769 0-10.846 3.923-21.076 3.923-10.231 11.538-17.847l136.769-136.768q15.846-15.846 39.23-15.846 23.385 0 39.231 15.846l64.769 64.385L359.847-450l-64.384-64.385q-15.847-15.846-15.847-39.115 0-23.269 15.847-39.115l62.306-62.307q15.846-15.846 39.231-15.846 23.384 0 39.23 15.846l64.385 64.385 48.924-48.924-64.385-64.385q-15.846-15.846-15.846-39.423t15.846-39.423L621.922-919.46q8.231-8.231 18.27-12.346 10.038-4.115 21.269-4.115 10.846 0 21.076 3.423 10.231 3.423 18.847 12.038l162.307 162.307q8.23 8.231 11.846 18.654 3.615 10.423 3.615 21.269 0 11.231-4.231 21.769-4.23 10.539-11.846 18.154L726.307-541.539Q706-521.231 686.884-521.231q-19.115 0-39.423-20.308l-64.384-64.385L534.153-557l64.384 64.385q15.847 15.846 15.539 39.423-.308 23.577-16.154 39.423l-61.307 61.306q-15.846 15.847-39.422 16.039-23.577.192-39.423-15.654l-64.385-64.385-48.539 48.54 64.384 64.769q15.846 15.846 15.846 39.231 0 23.384-15.846 39.23L272.462-87.925q-7.615 7.616-17.846 11.539t-21.077 3.923ZM227-119.155q2.693 2.693 6.539 2.693 3.847 0 6.539-2.693l52.077-51.692L115.231-347.77l-51.692 52.076q-2.692 2.693-2.692 6.539 0 3.847 2.692 6.539L227-119.155Zm99.308-86.23L378-257.461q2.693-2.693 2.693-6.539 0-3.847-2.693-6.539L214.539-434q-2.692-2.693-6.539-2.693-3.846 0-6.539 2.693l-52.076 51.692 176.923 176.923Zm354.153-368.384q2.692 2.693 6.539 2.693 3.846 0 6.539-2.693l52.076-51.692-176.923-176.924L517-750.308q-2.693 2.693-2.693 6.539 0 3.847 2.693 6.539l163.461 163.461Zm99.692-85.845 51.692-52.077q2.693-2.308 2.693-6.347 0-4.038-2.693-6.731L668.384-888.23q-2.692-2.692-6.731-2.692t-6.347 2.692l-52.076 51.692 176.923 176.924Z"/></svg>