<svg xmlns="http://www.w3.org/2000/svg" width="48" height="48" viewBox="0 -960 960 960"><path d="M197.694-140.001q-23.596 0-40.645-17.048-17.048-17.049-17.048-40.645v-564.612q0-23.596 17.048-40.645 17.049-17.048 40.645-17.048h451.844q12.06 0 22.953 4.808 10.893 4.808 18.508 12.423l111.769 111.769q7.615 7.615 12.423 18.508 4.808 10.893 4.808 22.953v191.46q-10.539-5.307-22.077-7.846-11.538-2.538-23.307-2.923v-184.46L653.307-774.615H197.694q-5.385 0-8.847 3.462-3.462 3.462-3.462 8.847v564.612q0 5.385 3.462 8.847 3.462 3.462 8.847 3.462h253.844v-.385 45.769H197.694Zm-12.309-634.614v589.23-589.23ZM524.616-88.847v-65.615q0-5.18 2-10.205 2-5.026 6.598-9.621l208.322-207.388q7.548-7.551 16.347-10.63 8.798-3.078 17.458-3.078 9.274 0 18.158 3.538 8.885 3.539 15.961 10.615l37 37.385q7.077 7.461 10.308 16.153 3.231 8.693 3.231 17.385 0 8.692-3.731 17.692t-10.506 16.585L638.911-68.595q-4.604 4.594-9.629 6.593-5.025 2-10.206 2h-65.614q-12.356 0-20.601-8.245t-8.245-20.6Zm287.691-221.461-37-37.385 37 37.385Zm-240 202.615h38l129.847-130.462-18.385-19-18.615-18.769-130.847 130.231v38Zm149.462-149.462-18.615-18.769 37 37.769-18.385-19ZM279.155-582.077h269.152q12.355 0 20.601-8.432 8.245-8.433 8.245-20.414v-69.922q0-12.356-8.245-20.601-8.246-8.245-20.601-8.245H279.155q-12.356 0-20.601 8.245t-8.245 20.601v69.922q0 11.981 8.245 20.414 8.245 8.432 20.601 8.432ZM480-273.079q13.615 0 26.038-3t23.423-9.615l25.153-25.769q7-10.615 10.308-23.423 3.308-12.807 3.308-26.423 0-36.634-25.73-62.431-25.729-25.798-62.265-25.798t-62.5 25.729q-25.965 25.729-25.965 62.265t25.798 62.501q25.798 25.964 62.432 25.964Z"/></svg>