<svg xmlns="http://www.w3.org/2000/svg" width="48" height="48" viewBox="0 -960 960 960"><path d="M602.615-370q-12.154 0-21.077-8.923-8.923-8.923-8.923-21.077v-160q0-12.038 8.923-21.211 8.923-9.173 21.077-9.173H702q12.038 0 21.211 9.173 9.173 9.173 9.173 21.211v160q0 12.154-9.173 21.077Q714.038-370 702-370h-99.385Zm10.384-40.384H692V-550h-79.001v139.616Zm-344.999 0h99.385q8.667 0 14.333 5.944 5.667 5.945 5.667 14.619t-5.667 14.247Q376.052-370 367.385-370H258q-12.038 0-21.211-8.923-9.173-8.923-9.173-21.077v-69q0-12.077 9.981-21.807 9.981-9.731 21.942-9.731h87.462V-550H248q-8.551 0-14.467-5.672-5.917-5.672-5.917-14.346t5.917-14.52q5.916-5.846 14.467-5.846h109.385q12.154 0 21.077 9.173 8.923 9.173 8.923 21.211v69q0 12.077-9.731 21.807-9.731 9.731-21.808 9.731H268v49.078ZM156.924-184.233q-23.528 0-40.61-17.081-17.082-17.082-17.082-40.611v-473.842q0-23.529 17.082-40.611 17.082-17.082 40.61-17.082h140.384v-57.308q0-9.644 6.58-16.168 6.581-6.524 16.308-6.524t16.111 6.524q6.385 6.524 6.385 16.168v57.308h274.616v-57.308q0-9.644 6.58-16.168 6.581-6.524 16.308-6.524t16.111 6.524q6.385 6.524 6.385 16.168v57.308h140.384q23.528 0 40.61 17.082t17.082 40.611v473.842q0 23.529-17.082 40.611-17.082 17.081-40.61 17.081H156.924Zm7.308-52.691H460v-35.384q0-8.667 5.672-14.333 5.672-5.667 14.346-5.667t14.52 5.667q5.846 5.666 5.846 14.333v35.384h295.384q4.616 0 8.462-3.846 3.847-3.846 3.847-8.462V-708.46q0-4.616-3.847-8.462-3.846-3.847-8.462-3.847H500.384v35q0 8.834-5.944 14.609-5.945 5.776-14.619 5.776t-14.247-5.776Q460-676.935 460-685.769v-35H164.232q-4.616 0-8.462 3.847-3.847 3.846-3.847 8.462v459.228q0 4.616 3.847 8.462 3.846 3.846 8.462 3.846Zm-12.309 0v-483.845 483.845Zm328.095-287.999q-10.325 0-17.095-6.751-6.769-6.752-6.769-17.077 0-10.325 6.752-17.095 6.751-6.769 17.076-6.769t17.095 6.752q6.769 6.751 6.769 17.076 0 10.326-6.752 17.095-6.751 6.769-17.076 6.769Zm0 139.845q-10.325 0-17.095-6.751-6.769-6.751-6.769-17.076 0-10.326 6.752-17.095 6.751-6.769 17.076-6.769t17.095 6.751q6.769 6.752 6.769 17.077 0 10.325-6.752 17.094-6.751 6.769-17.076 6.769Z"/></svg>