<svg xmlns="http://www.w3.org/2000/svg" width="48" height="48" viewBox="0 96 960 960"><path d="M411.272 525.692q9.728 0 16.112-6.524 6.385-6.524 6.385-16.168V401.769q0-9.269-6.581-15.98-6.58-6.711-16.307-6.711-9.727 0-16.112 6.711-6.384 6.711-6.384 15.98V503q0 9.644 6.58 16.168 6.58 6.524 16.307 6.524Zm115.539 0q9.727 0 16.111-6.524 6.385-6.524 6.385-16.168V401.769q0-9.269-6.58-15.98-6.581-6.711-16.308-6.711t-16.111 6.711q-6.385 6.711-6.385 15.98V503q0 9.644 6.58 16.168 6.58 6.524 16.308 6.524Zm115.153 0q9.727 0 16.112-6.524 6.384-6.524 6.384-16.168V401.769q0-9.269-6.58-15.98t-16.307-6.711q-9.727 0-16.112 6.711-6.384 6.711-6.384 15.98V503q0 9.644 6.58 16.168 6.58 6.524 16.307 6.524Zm-404.27 430.307q-23.529 0-40.611-17.082-17.082-17.082-17.082-40.611V447.693q0-11.574 4.325-22.062 4.324-10.489 13.291-19.4l192.614-192.999q8.911-8.782 19.4-13.006 10.488-4.225 22.062-4.225h290.613q23.529 0 40.611 17.082 17.082 17.082 17.082 40.611v644.612q0 23.529-17.082 40.611-17.082 17.082-40.611 17.082H237.694Z"/></svg>