<svg xmlns="http://www.w3.org/2000/svg" width="48" height="48" viewBox="0 -960 960 960"><path d="M400.059-304.616q106.018 0 180.595-74.698 74.576-74.699 74.576-180.917 0-105.993-74.576-180.189-74.577-74.195-180.595-74.195T220.021-740.42Q146-666.224 146-560.231q0 106.218 74.101 180.917 74.1 74.698 179.958 74.698Zm.361-149.154q-9.727 0-16.112-6.524-6.384-6.523-6.384-16.167v-204.693q0-9.269 6.58-15.98t16.307-6.711q9.727 0 16.112 6.711 6.384 6.711 6.384 15.98v204.693q0 9.644-6.58 16.167-6.58 6.524-16.307 6.524Zm-140.385 0q-9.727 0-16.111-6.524-6.385-6.523-6.385-16.167v-124.385q0-9.644 6.58-16.168 6.581-6.524 16.308-6.524t16.111 6.524q6.385 6.524 6.385 16.168v124.385q0 9.644-6.58 16.167-6.58 6.524-16.308 6.524Zm281.154 0q-9.728 0-16.112-6.524-6.384-6.523-6.384-16.167v-84.154q0-9.644 6.58-16.168 6.58-6.524 16.307-6.524 9.727 0 16.112 6.524 6.384 6.524 6.384 16.168v84.154q0 9.644-6.58 16.167-6.58 6.524-16.307 6.524ZM400-260.001q-124.785 0-212.084-87.67-87.299-87.669-87.299-212.588 0-126.073 87.076-212.906 87.076-86.834 212.541-86.834 125.143 0 212.761 86.995 87.619 86.995 87.619 212.389 0 56.027-19.115 106.052-19.116 50.024-53.731 89.716l216.616 216.616q6.692 6.564 6.384 15.743-.308 9.179-6.442 16.064-6.135 6.884-16 6.692-9.865-.192-16.557-6.884L596.153-332.848q-39.596 34.082-89.775 53.464Q456.2-260.001 400-260.001Z"/></svg>