<svg xmlns="http://www.w3.org/2000/svg" width="48" height="48" viewBox="0 -960 960 960"><path d="m357-563.538 83.616-83.231q7.077-7.077 16.576-7.077 9.5 0 16.577 7.077 7.461 7.077 7.269 16.769-.192 9.692-7.269 16.769l-95.538 96.153q-8.686 8.616-20.266 8.424-11.58-.193-20.196-8.424l-51.538-50.153q-7.461-6.462-7.461-16.269 0-9.807 7.461-17.269 7.462-7.461 16.769-7.461 9.307 0 16.769 7.461L357-563.538Zm22.154 221.46q-101.784 0-172.391-70.576-70.608-70.577-70.608-171 0-100.422 70.577-170.999 70.576-70.577 171.219-70.577t171.192 70.577q70.548 70.577 70.548 171.01 0 42.028-14.384 81.835-14.385 39.808-41.616 72.115L807.23-187.769q6.692 6.247 6.884 16.392.193 10.146-6.884 17.03t-17.03 6.884q-9.952 0-16.585-7.076L531.077-397.078q-29.848 26.414-69.61 40.707t-82.313 14.293Zm-.615-45.383q81.955 0 138.862-57.116 56.907-57.115 56.907-139.077 0-81.961-56.907-139.077-56.907-57.115-138.862-57.115-82.468 0-139.734 57.115-57.266 57.116-57.266 139.077 0 81.962 57.266 139.077 57.266 57.116 139.734 57.116Z"/></svg>