<svg xmlns="http://www.w3.org/2000/svg" width="48" height="48" viewBox="0 96 960 960"><path d="M441.815 670.537q-5.815 0-10.623-2-4.807-2-9.423-6.615L359.847 600q-6.692-6.693-6.885-15.808-.192-9.115 6.885-16.192 7.077-7.076 15.999-7.076 8.923 0 16 7.076L442 618.154 578.154 482q6.692-6.692 15.807-6.884 9.115-.192 16.192 6.884 7.077 7.077 7.077 16t-7.077 16L462.231 661.922q-4.616 4.615-9.608 6.615-4.992 2-10.808 2ZM277.694 995.999q-23.596 0-40.645-17.048-17.048-17.049-17.048-40.645V213.694q0-23.596 17.048-40.645 17.049-17.048 40.645-17.048h404.612q23.596 0 40.645 17.048 17.048 17.049 17.048 40.645v724.612q0 23.596-17.048 40.645-17.049 17.048-40.645 17.048H277.694Zm-12.309-133.461h429.23V289.462h-429.23v573.076Zm0 45.384v30.384q0 5.385 3.462 8.847 3.462 3.462 8.847 3.462h404.612q5.385 0 8.847-3.462 3.462-3.462 3.462-8.847v-30.384h-429.23Zm0-663.844h429.23v-30.384q0-5.385-3.462-8.847-3.462-3.462-8.847-3.462H277.694q-5.385 0-8.847 3.462-3.462 3.462-3.462 8.847v30.384Zm0-42.693v42.693-42.693Zm0 749.23v-42.693 42.693Z"/></svg>