<svg xmlns="http://www.w3.org/2000/svg" width="48" height="48" viewBox="0 -960 960 960"><path d="M164.819-769.999q-10.702 0-17.76-7.24-7.058-7.24-7.058-17.942t7.24-17.76q7.24-7.058 17.942-7.058 10.703 0 17.76 7.24 7.058 7.24 7.058 17.942 0 10.703-7.24 17.76-7.24 7.058-17.942 7.058Zm157.698 0q-11.093 0-17.958-7.24-6.866-7.24-6.866-17.942t7.041-17.76q7.041-7.058 17.942-7.058t17.959 7.24q7.058 7.24 7.058 17.942 0 10.703-7.238 17.76-7.238 7.058-17.938 7.058Zm157.301 0q-10.702 0-17.76-7.24-7.058-7.24-7.058-17.942t7.24-17.76q7.24-7.058 17.942-7.058t17.76 7.24q7.058 7.24 7.058 17.942 0 10.703-7.24 17.76-7.24 7.058-17.942 7.058Zm157.698 0q-11.093 0-17.959-7.24-6.865-7.24-6.865-17.942t7.041-17.76q7.041-7.058 17.942-7.058t17.959 7.24q7.057 7.24 7.057 17.942 0 10.703-7.237 17.76-7.238 7.058-17.938 7.058Zm157.301 0q-10.703 0-17.76-7.24-7.058-7.24-7.058-17.942t7.24-17.76q7.24-7.058 17.942-7.058t17.76 7.24q7.058 7.24 7.058 17.942 0 10.703-7.24 17.76-7.24 7.058-17.942 7.058ZM164.819-612.692q-10.702 0-17.76-7.041-7.058-7.041-7.058-17.942t7.24-17.959q7.24-7.057 17.942-7.057 10.703 0 17.76 7.237 7.058 7.238 7.058 17.938 0 11.093-7.24 17.959-7.24 6.865-17.942 6.865Zm629.998 0q-10.703 0-17.76-7.041-7.058-7.041-7.058-17.942t7.24-17.959q7.24-7.057 17.942-7.057t17.76 7.237q7.058 7.238 7.058 17.938 0 11.093-7.24 17.959-7.24 6.865-17.942 6.865ZM164.819-455q-10.702 0-17.76-7.24-7.058-7.24-7.058-17.942t7.24-17.76q7.24-7.058 17.942-7.058 10.703 0 17.76 7.24 7.058 7.24 7.058 17.942t-7.24 17.76Q175.521-455 164.819-455Zm629.998 0q-10.703 0-17.76-7.24-7.058-7.24-7.058-17.942t7.24-17.76q7.24-7.058 17.942-7.058t17.76 7.24q7.058 7.24 7.058 17.942t-7.24 17.76Q805.519-455 794.817-455ZM164.819-297.693q-10.702 0-17.76-7.041-7.058-7.041-7.058-17.942t7.24-17.959q7.24-7.058 17.942-7.058 10.703 0 17.76 7.238 7.058 7.238 7.058 17.938 0 11.093-7.24 17.958-7.24 6.866-17.942 6.866Zm629.998 0q-10.703 0-17.76-7.041-7.058-7.041-7.058-17.942t7.24-17.959q7.24-7.058 17.942-7.058t17.76 7.238q7.058 7.238 7.058 17.938 0 11.093-7.24 17.958-7.24 6.866-17.942 6.866ZM164.819-140.001q-10.702 0-17.76-7.24-7.058-7.24-7.058-17.942 0-10.703 7.24-17.76 7.24-7.058 17.942-7.058 10.703 0 17.76 7.24 7.058 7.24 7.058 17.942t-7.24 17.76q-7.24 7.058-17.942 7.058Zm157.698 0q-11.093 0-17.958-7.24-6.866-7.24-6.866-17.942 0-10.703 7.041-17.76 7.041-7.058 17.942-7.058t17.959 7.24q7.058 7.24 7.058 17.942t-7.238 17.76q-7.238 7.058-17.938 7.058Zm157.301 0q-10.702 0-17.76-7.24-7.058-7.24-7.058-17.942 0-10.703 7.24-17.76 7.24-7.058 17.942-7.058t17.76 7.24q7.058 7.24 7.058 17.942t-7.24 17.76q-7.24 7.058-17.942 7.058Zm157.698 0q-11.093 0-17.959-7.24-6.865-7.24-6.865-17.942 0-10.703 7.041-17.76 7.041-7.058 17.942-7.058t17.959 7.24q7.057 7.24 7.057 17.942t-7.237 17.76q-7.238 7.058-17.938 7.058Zm157.301 0q-10.703 0-17.76-7.24-7.058-7.24-7.058-17.942 0-10.703 7.24-17.76 7.24-7.058 17.942-7.058t17.76 7.24q7.058 7.24 7.058 17.942t-7.24 17.76q-7.24 7.058-17.942 7.058ZM355.385-297.693q-23.798 0-40.745-16.947t-16.947-40.745v-249.614q0-23.5 16.947-40.596 16.947-17.096 40.745-17.096h249.614q23.5 0 40.596 17.096 17.096 17.096 17.096 40.596v249.614q0 23.798-17.096 40.745t-40.596 16.947H355.385Zm0-45.384h249.614q5.001 0 8.655-3.462 3.654-3.461 3.654-8.846v-249.614q0-5.001-3.654-8.655-3.654-3.654-8.655-3.654H355.385q-5.385 0-8.846 3.654-3.462 3.654-3.462 8.655v249.614q0 5.385 3.462 8.846 3.461 3.462 8.846 3.462Z"/></svg>