<svg xmlns="http://www.w3.org/2000/svg" width="48" height="48" viewBox="0 -960 960 960"><path d="M480.173-272.924q52.257 0 99.311-24.615 47.054-24.616 74.9-68.923 6.461-9.077.855-18.769-5.606-9.692-16.163-9.692-5.948 0-10.166 2.73-4.218 2.731-8.064 7.193-23.615 34.384-60.678 53.346-37.063 18.961-79.594 18.961-41.959 0-79.574-18.153-37.615-18.154-61.231-53.539-2.846-4.461-7.489-7.5-4.642-3.038-10.356-3.038-10.398 0-15.469 10-5.07 9.999 1.392 20.692 28.719 44.055 74.344 67.681 45.625 23.626 97.982 23.626Zm140.533-264.307q19.716 0 33.736-14.11 14.019-14.109 14.019-33.826t-14.11-33.736q-14.11-14.019-33.827-14.019t-33.736 14.109q-14.019 14.11-14.019 33.827t14.11 33.736q14.11 14.019 33.827 14.019Zm-281.23 0q19.717 0 33.736-14.11 14.019-14.109 14.019-33.826t-14.11-33.736q-14.109-14.019-33.827-14.019-19.716 0-33.736 14.109-14.019 14.11-14.019 33.827t14.11 33.736q14.11 14.019 33.827 14.019Zm140.591 437.23q-78.836 0-148.204-29.92-69.369-29.92-120.682-81.21-51.314-51.291-81.247-120.629-29.933-69.337-29.933-148.173t29.92-148.204q29.92-69.369 81.21-120.682 51.291-51.314 120.629-81.247 69.337-29.933 148.173-29.933t148.204 29.92q69.369 29.92 120.682 81.21 51.314 51.291 81.247 120.629 29.933 69.337 29.933 148.173t-29.92 148.204q-29.92 69.369-81.21 120.682-51.291 51.314-120.629 81.247-69.337 29.933-148.173 29.933ZM480-480Zm-.037 334.615q140.104 0 237.378-97.237 97.274-97.236 97.274-237.341 0-140.104-97.237-237.378-97.236-97.274-237.341-97.274-140.104 0-237.378 97.237-97.274 97.236-97.274 237.341 0 140.104 97.237 237.378 97.236 97.274 237.341 97.274Z"/></svg>