<svg xmlns="http://www.w3.org/2000/svg" width="48" height="48" viewBox="0 96 960 960"><path d="M340.001 955.999V851.384L220.001 612V396.001h40V273.695q0-23 17.347-40.346 17.346-17.346 40.473-17.346h324.358q23.127 0 40.473 17.346 17.347 17.346 17.347 40.346v122.306h40V612l-120 239.384v104.615H340.001Zm-34.616-559.998h95.308v-81.615H432v81.615h96v-81.615h31.307v81.615h95.308V273.695q0-5.385-3.462-8.847-3.462-3.462-8.847-3.462H317.694q-5.385 0-8.847 3.462-3.462 3.462-3.462 8.847v122.306Zm80 514.614h189.23v-71.154l120-240.615V441.385h-429.23v157.461l120 240.615v71.154ZM480 676Z"/></svg>