<svg xmlns="http://www.w3.org/2000/svg" width="48" height="48" viewBox="0 -960 960 960"><path d="M340.001-204.616 220.001-444v-180.36q0-15.535 10.395-25.587 10.394-10.052 25.759-10.052h3.846v-122.306q0-23 17.347-40.346 17.346-17.346 40.473-17.346h324.358q23.127 0 40.473 17.346 17.347 17.346 17.347 40.346v122.306h3.846q15.365 0 25.759 10.052 10.395 10.052 10.395 25.587V-444l-120 239.384v75.768q0 12.26-8.294 20.553-8.293 8.294-20.553 8.294H368.848q-12.26 0-20.553-8.294-8.294-8.293-8.294-20.553v-75.768Zm-34.616-455.383h95.308v-67.287q0-5.632 4.796-9.98 4.797-4.348 11.192-4.348 5.934 0 10.627 4.792Q432-732.029 432-726.288v66.289h96v-67.287q0-5.632 4.797-9.98 4.796-4.348 11.192-4.348 5.934 0 10.626 4.792 4.692 4.793 4.692 10.534v66.289h95.308v-122.306q0-5.385-3.462-8.847-3.462-3.462-8.847-3.462H317.694q-5.385 0-8.847 3.462-3.462 3.462-3.462 8.847v122.306Z"/></svg>