<svg xmlns="http://www.w3.org/2000/svg" width="48" height="48" viewBox="0 -960 960 960"><path d="M309.664-4.616q-11.664 0-19.779-8.297-8.115-8.298-8.115-19.962t8.297-19.779q8.298-8.115 19.962-8.115t19.779 8.297q8.115 8.298 8.115 19.962t-8.297 19.779q-8.298 8.115-19.962 8.115Zm170.154 0q-11.664 0-19.779-8.297-8.116-8.298-8.116-19.962t8.298-19.779q8.297-8.115 19.961-8.115 11.664 0 19.779 8.297 8.116 8.298 8.116 19.962t-8.298 19.779q-8.297 8.115-19.961 8.115Zm167.307 0q-11.664 0-19.779-8.297-8.115-8.298-8.115-19.962t8.297-19.779q8.298-8.115 19.962-8.115t19.779 8.297q8.115 8.298 8.115 19.962t-8.297 19.779q-8.298 8.115-19.962 8.115ZM457.924-505.309 272.615-320q-6.692 6.692-15.807 6.884-9.115.192-16-6.884-6.884-7.077-6.884-16t6.692-16l208.385-208-208.385-208q-6.692-6.693-6.692-15.808T240.808-800q6.885-7.076 15.807-7.076 8.923 0 16 7.076l185.309 185.309v-288.77q0-10.308 5.935-16.077 5.935-5.769 14.943-5.769 6.429 0 12.698 3.038 6.269 3.039 12.961 10.115l159.909 159.91q4.629 4.629 6.822 9.621 2.192 4.992 2.192 10.808 0 5.815-2.192 10.623-2.193 4.807-6.731 9.346L512.615-560l151.846 151.846q4.538 4.539 6.731 9.531 2.192 4.992 2.192 10.808 0 5.815-2.192 10.623-2.193 4.807-6.822 9.436l-159.909 159.91q-6.692 7.076-13.053 10.115-6.361 3.038-12.722 3.038-8.9 0-14.831-5.769-5.931-5.769-5.931-16.077v-288.77Zm45.383-109.382L621.001-732 503.307-848.078v233.387Zm0 342.769L621.001-388 503.307-505.309v233.387Z"/></svg>