<svg xmlns="http://www.w3.org/2000/svg" width="48" height="48" viewBox="0 -960 960 960"><path d="M157.69-300q-23.59 0-40.64-17.05T100-357.69v-244.62q0-23.59 17.05-40.64T157.69-660h644.62q23.59 0 40.64 17.05T860-602.31v244.62q0 23.59-17.05 40.64T802.31-300H157.69Zm0-45.39h644.62q5.38 0 8.84-3.46t3.46-8.84v-244.62q0-5.38-3.46-8.84t-8.84-3.46H157.69q-5.38 0-8.84 3.46t-3.46 8.84v244.62q0 5.38 3.46 8.84t8.84 3.46Zm89.62-111.92h158.46q9.66 0 16.18-6.56 6.51-6.57 6.51-16.31 0-9.74-6.51-16.13-6.52-6.38-16.18-6.38H247.31q-9.67 0-16.18 6.56-6.51 6.57-6.51 16.31 0 9.74 6.51 16.13 6.51 6.38 16.18 6.38Zm355.34-2.14q8.12-8.3 8.12-20.73 0-12.44-8.3-20.55-8.3-8.12-20.73-8.12t-20.55 8.3q-8.11 8.3-8.11 20.73 0 12.44 8.29 20.55 8.3 8.12 20.73 8.12 12.44 0 20.55-8.3Zm120 0q8.12-8.3 8.12-20.73 0-12.44-8.3-20.55-8.3-8.12-20.73-8.12t-20.55 8.3q-8.11 8.3-8.11 20.73 0 12.44 8.29 20.55 8.3 8.12 20.73 8.12 12.44 0 20.55-8.3ZM145.39-345.39v-269.22 269.22Z"/></svg>