<svg xmlns="http://www.w3.org/2000/svg" width="48" height="48" viewBox="0 -960 960 960"><path d="M426.77-100.001q-10.923 0-19.615-7.077-8.692-7.077-10.308-18l-14.231-95.154q-20.538-7-44.231-20.346-23.692-13.346-40.846-28.27l-86.769 40q-10.923 4.462-21.846 1.116-10.923-3.346-17-13.654L118.54-335.77q-6.077-10.307-3.538-21.038 2.538-10.73 12.23-17.807l79.616-59q-2-10.539-2.885-23-.885-12.462-.885-23 0-10.154.885-22.616t2.885-24.154l-79.616-59q-9.692-7.077-12.038-18-2.346-10.922 3.731-21.23l52.999-93.23q6.077-9.923 17-13.461 10.923-3.539 21.846.923l86.384 39.231q18.308-14.924 41.231-28.078 22.924-13.154 43.847-19.538l14.615-96.154q1.616-10.923 10.308-18t19.615-7.077h106.46q10.923 0 19.615 7.077 8.692 7.077 10.308 18l14.231 95.538q22.077 8.154 44.154 20.231 22.077 12.077 39.769 28.001l88.308-39.231q10.923-4.462 21.538-.923 10.615 3.538 16.692 13.461l53.615 93.615q6.077 10.307 3.538 21.538-2.538 11.23-12.23 17.307l-81.154 58.539q2.769 11.923 3.462 24 .692 12.077.692 22.846 0 10.385-.885 22.154-.884 11.769-3.269 24.462l80 58.769q9.692 6.077 12.423 17.307 2.73 11.231-3.346 21.538l-52.615 94q-6.462 10.307-17.577 13.653-11.115 3.346-21.653-1.115l-87.539-40q-18.692 15.692-40.346 28.962-21.654 13.269-43.577 19.654l-14.231 95.538q-1.616 10.923-10.308 18t-19.615 7.077H426.77Zm10.384-45.384h85.307L536.846-257q31.846-8 59.423-23.846 27.577-15.847 52.731-40.231l104.461 45.231 40-70.847L701-414.923q4-17.77 6.307-33.5 2.308-15.731 2.308-31.577 0-16.615-2-31.961T701-544.307l93.23-69-40-70.847-105.615 45.231q-21.077-23.692-50.846-41.769Q568-698.769 536.461-703l-13.615-111.615h-85.692l-13.231 111.231q-33.23 6.615-61.192 22.653-27.961 16.039-52.115 41.424L205.77-684.154l-40 70.847 92.461 67.846q-4.385 15.846-6.692 32.153-2.308 16.308-2.308 33.693 0 16.615 2.308 32.538 2.307 15.923 6.307 32.154l-92.076 68.23 40 70.847 104.461-44.847q24 24.385 52.154 40.231 28.154 15.846 61.154 23.846l13.615 111.231Zm41.692-221.924q47.076 0 79.884-32.807 32.807-32.808 32.807-79.884t-32.807-79.884q-32.808-32.807-79.884-32.807-46.692 0-79.691 32.807-33 32.808-33 79.884t33 79.884q32.999 32.807 79.691 32.807ZM480-480Z"/></svg>