<svg xmlns="http://www.w3.org/2000/svg" width="48" height="48" viewBox="0 -960 960 960"><path d="M807.307-577.308q-9.922 0-16.307-6.385-6.384-6.384-6.384-16.307 0-8.923 6.384-15.807 6.385-6.885 16.307-6.885 8.923 0 15.808 6.885 6.884 6.884 6.884 15.807 0 9.923-6.884 16.307-6.885 6.385-15.808 6.385ZM410.001-258.386 303.692-152.078q-6.077 6.077-15.499 6.077-9.423 0-15.5-6.692-6.692-6.077-6.692-15.5 0-9.422 6.692-16.114l137.308-137.308v-88.386h-88.386L183.692-272.078q-6.077 6.077-15.499 6.077-9.423 0-15.5-6.692-6.692-6.077-6.692-15.5 0-9.422 6.692-16.114l105.693-105.694H111.693q-8.923 0-15.308-6.384-6.384-6.385-6.384-16.308 0-8.922 6.384-15.807 6.385-6.884 16.308-6.884h145.693L152.078-560.693q-6.077-6.077-6.077-15.5 0-9.422 6.692-16.114 6.077-6.077 15.5-6.077 9.422 0 16.114 6.077l137.308 136.923h88.386v-88.386L272.078-680.693q-6.077-6.077-6.077-15.5 0-9.422 6.692-16.114 6.077-6.077 15.5-6.077 9.422 0 16.114 6.077l105.694 105.308v-145.694q0-8.922 6.384-15.807 6.385-6.884 16.308-6.884 8.922 0 15.807 6.884 6.884 6.885 6.884 15.807v145.694l105.309-105.308q6.077-6.077 15.5-6.077 9.422 0 16.114 6.077 6.077 6.692 6.077 16.114 0 9.423-6.077 15.5L455.384-543.77v88.386h297.309q8.922 0 15.807 6.884 6.884 6.885 6.884 15.807 0 9.923-6.884 16.308-6.885 6.384-15.807 6.384H606.999l105.308 106.309q6.077 6.077 6.077 15.499 0 9.423-6.077 15.5-6.692 6.692-16.114 6.692-9.423 0-15.5-6.692L543.77-410.001h-88.386v88.386l136.923 137.923q6.077 6.077 6.077 15.499 0 9.423-6.077 15.5-6.692 6.692-16.114 6.692-9.423 0-15.5-6.692L455.384-258.386v146.693q0 8.923-6.884 15.308-6.885 6.384-15.807 6.384-9.923 0-16.308-6.384-6.384-6.385-6.384-16.308v-145.693Zm397.306-434.307q-9.922 0-16.307-6.384-6.384-6.384-6.384-16.307v-131.923q0-8.923 6.384-15.808 6.385-6.884 16.307-6.884 8.923 0 15.808 6.884 6.884 6.885 6.884 15.808v132.923q0 8.923-6.884 15.307-6.885 6.384-15.808 6.384Z"/></svg>