<svg xmlns="http://www.w3.org/2000/svg" width="48" height="48" viewBox="0 -960 960 960"><path d="M676.68-100q-42.8 0-72.97-30.24t-30.17-72.99q0-7.62 5.38-33.62L281.46-412.23q-14.74 16.57-34.8 26.02-20.07 9.44-43.81 9.44-42.6 0-72.72-30.17Q100-437.12 100-480t30.13-73.06q30.12-30.17 72.72-30.17 22.74 0 42.64 8.91 19.9 8.91 34.36 25.32l299.07-173.77q-2.38-8-3.88-16.5t-1.5-17.5q0-42.75 30.26-72.99Q634.07-860 676.86-860q42.79 0 72.97 30.26Q780-799.47 780-756.68q0 42.8-30.24 72.97t-72.99 30.17q-22.5 0-41.71-9t-33.68-24L300.46-515.23q3 8 4.5 17.11 1.5 9.12 1.5 17.62 0 8.88-1.19 16.58-1.19 7.69-3.58 15.69l300.69 174.15q14.47-15 33.41-23.69 18.94-8.69 41.13-8.69 43.1 0 73.09 30.26Q780-245.93 780-203.14q0 42.79-30.26 72.97Q719.47-100 676.68-100Z"/></svg>