<svg xmlns="http://www.w3.org/2000/svg" width="48" height="48" viewBox="0 -960 960 960"><path d="M501-337.308q31.538 0 60.884-12t53.038-35.384q5.615-5.846 5.308-9.269-.308-3.423-8.923-5.808-38.231-9.923-70.923-33.423t-54.923-60.346q-20.231-34.846-25.962-74.615-5.73-39.769 8.27-77.616 2.615-8.615-1.77-11.423-4.384-2.807-12.846-.423-54.307 15.924-85.576 60.769Q336.308-552 336.308-500q0 67.923 47.885 115.307Q432.077-337.308 501-337.308Zm-21 232.153q-5 0-9.692-1-4.693-1-9.693-3-129.768-46.231-205.191-161t-75.423-250.922v-185.23q0-18.23 10.616-33.346 10.615-15.115 26.846-21.731l242.306-90.076q10.616-4 20.231-4 9.615 0 20.231 4l242.306 90.076q16.231 6.616 26.846 21.731 10.616 15.116 10.616 33.346v185.23q0 136.153-75.423 250.922t-205.191 161q-5 2-9.693 3-4.692 1-9.692 1Z"/></svg>