<svg xmlns="http://www.w3.org/2000/svg" width="48" height="48" viewBox="0 -960 960 960"><path d="M520-100q-23.53 0-40.61-17.08t-17.08-40.61V-360q0-23.53 17.08-40.61T520-417.69h322.31q23.53 0 40.61 17.08T900-360v202.31q0 23.53-17.08 40.61T842.31-100H520Zm0-45.39h322.31q5.38 0 8.84-3.46t3.46-8.84v-98.47H507.69v98.47q0 5.38 3.46 8.84t8.85 3.46Zm-12.31-156.15h346.92V-360q0-5.39-3.46-8.85t-8.84-3.46H520q-5.39 0-8.85 3.46t-3.46 8.85v58.46ZM480-503.23ZM364.31-158.31q-87-60.69-135.66-158.89Q180-415.39 180-521.08v-185.23q0-18.51 10.5-33.43 10.49-14.92 26.96-21.64l250.31-93.08q5.49-2 12.17-2t12.68 2l249.92 93.08q16.47 6.72 26.96 21.64 10.5 14.92 10.5 33.43v192.85q0 9.66-6.57 16.18-6.56 6.51-16.31 6.51-9.74 0-16.12-6.51-6.39-6.52-6.39-16.18v-193.23q0-3.85-2.11-6.92-2.12-3.08-5.96-4.62l-242.31-91.08q-1.92-.77-4.23-.77-2.31 0-4.23.77l-242.31 91.08q-3.84 1.54-5.96 4.62-2.11 3.07-2.11 6.92v185.61q0 99.46 44.57 185.35 44.58 85.88 119.27 139.11 7.92 5.46 10.04 14.39 2.11 8.92-3.35 17.23-5.07 7.92-14.38 10.04-9.31 2.11-17.23-3.35Z"/></svg>