<svg xmlns="http://www.w3.org/2000/svg" width="48" height="48" viewBox="0 96 960 960"><path d="M480 496.924q-10.308-12.099-25.711-19.088-15.404-6.989-32.673-6.989-29.797 0-50.899 20.903-21.101 20.903-21.101 50.692 0 24.097 13.038 45.673 13.039 21.577 60.577 67.5l37.538 34.923q7.705 8 18.776 8 11.07 0 19.577-8.054L537.154 657q47.153-44.923 60.192-67.509 13.038-22.587 13.038-46.791 0-29.846-21.023-50.849-21.022-21.004-50.977-21.004-17.846 0-33.022 6.989-15.177 6.989-25.362 19.088Zm0 455.305q-4 0-7.527-.5-3.528-.5-6.066-1.518-124.791-39.982-205.598-156.839-80.808-116.858-80.808-258.256V349.693q0-18.35 10.571-33.33 10.571-14.98 26.891-21.747l242.306-90.076q10.616-4 20.231-4 9.615 0 20.231 4l242.306 90.076q16.32 6.767 26.891 21.747 10.571 14.98 10.571 33.33v185.423q0 141.398-80.808 258.256-80.807 116.857-205.132 156.875-1.213.367-14.059 1.982Zm0-44.999Q591.923 870.769 663.269 767q71.346-103.769 71.346-232.077V347.001q0-3.077-1.539-5.385-1.538-2.308-4.231-3.077L485.77 247.462q-3.077-1.154-5.77-1.154-2.693 0-5.77 1.154l-243.075 91.077q-2.693.769-4.231 3.077-1.539 2.308-1.539 5.385v187.922q0 128.308 71.346 232.077T480 907.23Zm0-330.461Z"/></svg>