<svg xmlns="http://www.w3.org/2000/svg" width="48" height="48" viewBox="0 -960 960 960"><path d="m753.38-145.39 4.47-36.53 3.38-30.04q3.38-30.04 8.38-70.35 1.62-17.54 4.12-33.15 2.5-15.62 4.12-26.46l3-27.73q3-27.73 8-68.04 5.38-40.31 8.57-68.04l3.19-27.73 15.24-121.15-62.47 509.22ZM229.85-100q-19.39 0-31.58-13.39-12.19-13.38-12.19-32h555q5 0 9.03-3.46 4.04-3.46 4.81-8.84l59-483.08q.77-5.77-3.07-9.81-3.85-4.03-9.24-4.03H673.92l-11.77 96.53q-1.61 9.93-8.8 16.5-7.2 6.58-17.12 6.97-8.92.38-15-6.5-6.08-6.89-4.46-15.81l11.77-97.69H433.92l-11.77 96.53q-1.61 9.93-8.8 16.5-7.2 6.58-17.12 6.97-8.92.38-15-6.5-6.08-6.89-4.46-15.81l12.15-97.69H245.08Q247.69-676 265.54-688t40-12H394l2.39-17.31Q405-785.84 446-822.92T555.92-860q58.69 0 95.66 46.58 36.96 46.58 28.57 107.27l-.77 6.15h130.77q22.46 0 37.5 16.85 15.04 16.84 12.43 39.69l-59.39 484.61q-3 25.23-21.81 42.04Q760.08-100 734.46-100H229.85Zm209.53-600H634l.77-6.15q5.38-42.46-19.23-75.46-24.62-33-65.08-33-46.85 0-74.88 25.42-28.04 25.42-33.81 71.88L439.38-700ZM237.31-259.62h-140q-9.92 0-16.31-6.38-6.38-6.39-6.38-16.31 0-9.92 6.38-16.31Q87.39-305 97.31-305h140q9.92 0 16.31 6.38 6.38 6.39 6.38 16.31 0 9.92-6.38 16.31-6.39 6.38-16.31 6.38Zm120-155.38h-180q-9.92 0-16.31-6.38-6.38-6.39-6.38-16.31 0-9.92 6.38-16.31 6.39-6.38 16.31-6.38h180q9.92 0 16.31 6.38 6.38 6.39 6.38 16.31 0 9.92-6.38 16.31-6.39 6.38-16.31 6.38Z"/></svg>