<svg xmlns="http://www.w3.org/2000/svg" width="48" height="48" viewBox="0 -960 960 960"><path d="M112.616-251.078q-7.692-7.692-7.692-17.23t7.692-17.23l227.846-227.846q16.615-16.615 40.769-16.923 24.154-.308 40.769 16.923l110.307 110.307q3.847 3.847 9.232 3.654 5.385-.192 8.846-4.423l268.384-303.538q5.692-7.077 14.923-7.884 9.23-.808 16.307 5.884 6.077 6.077 6.577 15.192t-5.577 15.807l-268.23 306.154q-16.615 19.23-41.653 19.923-25.039.692-42.27-16.923L390.385-476.693q-3.461-3.461-8.846-3.461t-8.847 3.461L147.077-251.078q-7.308 7.308-17.038 7.5-9.731.193-17.423-7.5Z"/></svg>