<svg xmlns="http://www.w3.org/2000/svg" width="48" height="48" viewBox="0 -960 960 960"><path d="M305.474-278.386q-11.396 0-19.82-8.257-8.423-8.258-8.423-19.847 0-11.588 8.455-19.819 8.455-8.23 19.649-8.23 11.589 0 19.819 8.257 8.231 8.258 8.231 19.846 0 11.589-8.258 19.82-8.257 8.23-19.653 8.23Zm174.499 0q-11.588 0-19.819-8.257-8.231-8.258-8.231-19.847 0-11.588 8.258-19.819 8.258-8.23 19.846-8.23 11.588 0 19.819 8.257 8.231 8.258 8.231 19.846 0 11.589-8.258 19.82-8.258 8.23-19.846 8.23Zm174.692 0q-11.589 0-19.819-8.257-8.231-8.258-8.231-19.847 0-11.588 8.258-19.819 8.257-8.23 19.653-8.23 11.396 0 19.82 8.257 8.423 8.258 8.423 19.846 0 11.589-8.455 19.82-8.455 8.23-19.649 8.23ZM248.078-429.54q-11.586 0-19.831-8.245-8.246-8.245-8.246-19.831v-17.307q0-100.846 69.231-175.461 69.231-74.615 168.076-83.692v-63.231q0-9.644 6.58-16.168 6.581-6.524 16.308-6.524t16.111 6.524q6.385 6.524 6.385 16.168v63.231q98.845 9.077 168.076 83.692t69.231 175.461v17.307q0 11.586-8.246 19.831-8.245 8.245-19.831 8.245H248.078Zm17.307-45.383h429.23q0-88.692-62.698-151.654-62.698-62.961-151.653-62.961-88.956 0-151.918 62.775-62.961 62.775-62.961 151.84Zm40.089 331.844q-11.396 0-19.82-8.257-8.423-8.258-8.423-19.846 0-11.589 8.455-19.819 8.455-8.231 19.649-8.231 11.589 0 19.819 8.258 8.231 8.257 8.231 19.846 0 11.588-8.258 19.819-8.257 8.23-19.653 8.23Zm174.499 0q-11.588 0-19.819-8.257-8.231-8.258-8.231-19.846 0-11.589 8.258-19.819 8.258-8.231 19.846-8.231 11.588 0 19.819 8.258 8.231 8.257 8.231 19.846 0 11.588-8.258 19.819-8.258 8.23-19.846 8.23Zm174.692 0q-11.589 0-19.819-8.257-8.231-8.258-8.231-19.846 0-11.589 8.258-19.819 8.257-8.231 19.653-8.231 11.396 0 19.82 8.258 8.423 8.257 8.423 19.846 0 11.588-8.455 19.819-8.455 8.23-19.649 8.23ZM480-474.923Z"/></svg>