<svg xmlns="http://www.w3.org/2000/svg" width="48" height="48" viewBox="0 -960 960 960"><path d="M480.385-859.999q65.23 0 123.692 20.77Q662.538-818.46 711-781.46q7.307 6.077 8.422 15.192 1.116 9.115-4.961 16.807-6.077 7.308-15.692 7.923-9.615.616-17.923-5.461-42.384-31.923-93.153-49.77-50.77-17.846-107.308-17.846-101.462 0-184 54.731-82.539 54.73-121.769 143.346-3.846 9.307-12.654 13.653-8.807 4.346-18.115 1.885-8.923-2.846-12.961-11.269t-.577-16.73q44.307-103.154 138.269-167.077 93.961-63.923 211.807-63.923Zm.384 759.998q-113.999 0-209.076-61.731T131.694-328.231q-3.462-8.308.577-16.615 4.038-8.308 12.961-11.769 9.307-3.462 18.115 1.384 8.807 4.846 12.269 13.154Q216.462-251.462 299-198.423q82.539 53.038 181.769 53.038 138.923 0 236.385-97.769Q814.615-340.923 814.615-480q0-8.923-.192-18.039-.193-9.115-1.193-18.423-1.615-9.923 3.385-17.923 5-8 14.307-10 8.923-2.384 16.807 3.192 7.885 5.577 9.5 14.5 1.385 11.539 2.077 23.154.693 11.616.693 23.539 0 77.769-29.962 147.115-29.961 69.346-81.269 121.153-51.307 51.808-120.461 81.769-69.153 29.962-147.538 29.962ZM349.924-581l-28.462 28.462q-6.077 6.077-6.269 14.346-.193 8.269 6.269 14.73Q327.923-517 336-517.308q8.077-.308 14.538-6.769l35.308-35.692q8.615-8.616 8.615-20.231 0-11.615-8.615-20.231l-37.308-37.307Q342.077-644 335-644t-13.538 6.462q-6.077 6.077-6.077 13.846t6.077 14.23L349.924-581ZM840-610q-29.077 0-49.538-20.462Q770-650.923 770-680q0-33.461 20.077-65.461t38.308-58.846q2-3 4.807-5 2.808-2 6.808-2t6.615 2q2.616 2 5 5 17.846 26.846 38.308 58.846 20.461 32 20.461 65.461 0 29.077-20.653 49.538Q869.077-610 840-610Zm-228.924 29 28.462-28.462q6.077-6.461 5.885-13.73-.193-7.269-6.269-13.731Q633.077-643 625.308-643t-14.231 6.077l-36.923 36.692q-8.615 8.616-8.615 20.231 0 11.615 8.615 20.231l36.308 36.307q6.077 6.077 14.346 6.269 8.269.193 14.73-6.269Q646-529.923 646-538t-6.462-14.538L611.076-581ZM480-480ZM321.924-296.155q5.461 0 10.23-2.846t7.615-7.692q23-34.385 60.231-52.846 37.231-18.462 80.615-18.462 43.154 0 79.885 18.962 36.731 18.961 60.346 53.346 2.846 3.846 8.308 6.692 5.461 2.846 9.922 2.846 11.693 0 16.539-9.384 4.846-9.385-1.231-18.692-29.385-45.769-76.077-69.654-46.692-23.884-98.307-23.884-27.385 0-54.039 6.961-26.654 6.962-50.423 20.654l-109.153-62.999q0-15.231-5.731-28.731-5.73-13.5-18.961-20.731-18.077-10.23-38.154-5.115-20.076 5.115-30.307 23.192-10.231 18.077-5.116 38.346 5.116 20.269 23.577 30.5 13.231 7.615 27.346 6.154 14.116-1.462 27.346-8.693l94.154 53.692q-9.846 8.231-17.961 17.346-8.116 9.116-14.731 19.731-7.692 11.923-2.346 21.615 5.346 9.692 16.423 9.692Z"/></svg>