<svg xmlns="http://www.w3.org/2000/svg" width="48" height="48" viewBox="0 -960 960 960"><path d="m149.078-149.078 660.844-660.844q13.615-13.615 31.846-6.283 18.231 7.331 18.231 26.514v123.152h-22.692q-45.641 0-78.013 32.372-32.372 32.371-32.372 78.012v456.154H169.309q-19.615 0-26.731-17.731-7.115-17.731 6.5-31.346Zm688.067 53.692q-11.3 0-19.223-8.085-7.923-8.085-7.923-19.384 0-11.3 8.085-19.223 8.085-7.923 19.385-7.923 11.299 0 19.222 8.085 7.923 8.085 7.923 19.385 0 11.299-8.085 19.222-8.085 7.923-19.384 7.923Zm-22.53-142.692v-318.077q0-9.269 6.573-15.98 6.574-6.711 16.308-6.711t16.118 6.711q6.385 6.711 6.385 15.98v319.077q0 8.923-6.706 15.308-6.706 6.384-16.5 6.384-9.409 0-15.794-6.519-6.384-6.519-6.384-16.173Z"/></svg>