<svg xmlns="http://www.w3.org/2000/svg" width="48" height="48" viewBox="0 -960 960 960"><path d="M306.846-831.076q-8.307-6.077-9.922-14.692-1.616-8.616 4.461-16.923 6.077-8.308 14.884-9.423 8.808-1.115 17.115 4.962l198.692 147.461q7.308 6.077 8.731 15.018t-4.654 16.597q-6.077 8.307-15.09 9.922-9.013 1.616-17.14-4.461L306.846-831.076Zm-37.307 116.538q-8.308-6.077-9.423-14.884-1.115-8.808 4.962-17.115 6.076-8.308 14.884-9.616 8.807-1.307 16.73 4.769l111.307 82.923q-14.385-1.462-27.577 6.23-13.192 7.692-18.884 16l-91.999-68.307Zm371.153 135.077ZM439.154-876.23q-8.308-6.077-9.231-14.692t5.154-16.923q6.077-8.307 14.692-9.615 8.615-1.307 16.538 4.769l228.308 169.924 13.923-109.54q1.587-12.233 9.986-20.962 8.398-8.73 20.321-10.345l11-1.231q10.615-1.615 19.346 4.193 8.731 5.807 11.731 16.038l80.923 272.735q7.615 24.11 3.37 47.352-4.245 23.241-18.832 42.758l-84.844 113.536q-1.385-14.999-5.231-28.383-3.846-13.385-10.769-26.154l63.768-86.152q8.923-11.367 10.923-24.299 2-12.932-1.384-25.855l-69.078-233.772-13.308 103.463q-2.102 16.766-17.474 23.614-15.372 6.848-28.602-3.768L439.154-876.23ZM334.461-522.309l-69.845-52.076q-8.368-5.912-9.453-14.802-1.085-8.889 4.992-17.197 6.076-8.307 14.884-9.423 8.807-1.115 16.73 4.962l45.923 34.307q.769 14 5.423 27.615 4.654 13.615 11.961 26.614h-20.615ZM82.693-307.694q-9.644 0-16.168-6.58-6.524-6.58-6.524-16.307 0-9.727 6.524-16.112 6.524-6.384 16.168-6.384h247.308q9.644 0 16.168 6.58 6.524 6.58 6.524 16.307 0 9.727-6.524 16.112-6.524 6.384-16.168 6.384H82.693Zm40 115.385q-9.644 0-16.168-6.58-6.524-6.581-6.524-16.308t6.524-16.111q6.524-6.385 16.168-6.385h207.308q9.644 0 16.168 6.58 6.524 6.58 6.524 16.308 0 9.727-6.524 16.111-6.524 6.385-16.168 6.385H122.693Zm80 115.384q-9.644 0-16.168-6.58-6.524-6.58-6.524-16.308 0-9.727 6.524-16.111 6.524-6.385 16.168-6.385h406.922q24.328 0 40.818-16.49 16.491-16.491 16.491-40.818V-365.77q0-14.423-5.77-25.961-5.769-11.539-17.094-19.766L448.691-557.694l51.231 91.155q8 14.615-.211 29.038-8.212 14.423-24.635 14.423H162.693q-9.644 0-16.168-6.58-6.524-6.58-6.524-16.307 0-9.728 6.524-16.112 6.524-6.384 16.168-6.384H446.77l-54.385-96.386q-6.461-10.307-5.038-22.615 1.423-12.307 10.5-20.615l8.538-7.923q8-7.23 18.231-7.846 10.23-.615 18.461 5.616L671-448q19.929 14.962 30.618 36.397t10.689 45.833v186.153q0 42.788-29.952 72.74-29.951 29.952-72.74 29.952H202.693ZM510-273.847Z"/></svg>