<svg xmlns="http://www.w3.org/2000/svg" width="48" height="48" viewBox="0 -960 960 960"><path d="M691.615-140q-6.692 6.076-15.615 6.192-8.923.115-15.615-6.577t-6.692-15.807q0-9.115 6.692-15.808l68-68L660-308.385q-6.692-6.692-6.499-15.807.192-9.115 6.884-15.808 6.692-6.692 15.807-6.692T692-340l68 68.385L828.385-340q6.692-6.692 15.807-6.499 9.115.192 15.808 6.884 6.692 6.692 6.384 15.615-.308 8.923-6.384 15.615L792.615-240 860-171.615q6.076 6.692 6.192 15.807.115 9.115-6.577 15.808-6.692 6.692-15.615 6.384-8.923-.308-15.615-6.384L760-207.385 691.615-140Zm-522.306 39.999q-13.615 0-21.231-9.116-7.615-9.115-7.615-19.731 0-5 2-10.307 2-5.308 6.615-9.923l661.844-661.844q4.615-4.615 10.115-6.807 5.5-2.193 10.115-2.193 10.616 0 19.731 7.808 9.116 7.808 9.116 21.038v316.767q0 13.23-10.539 20.615-10.538 7.385-23.154 3.539-14.922-5.077-29.653-7.616-14.731-2.538-29.346-2.538-90.923 0-154.269 63.346-63.346 63.347-63.346 154.27 0 28.692 7.538 56.346 7.539 27.653 22.615 52.499 6.846 11 .846 22.424-6 11.423-18.615 11.423H169.309Z"/></svg>