<svg xmlns="http://www.w3.org/2000/svg" width="48" height="48" viewBox="0 -960 960 960"><path d="m692.615-361.078-393.69-392.69q44.615-13.308 89.73-19.769 45.115-6.462 91.345-6.462 118.153 0 226.345 42.923t199.807 116.845q10.384 7.616 11.077 20.731.692 13.115-8.308 22.115L692.615-361.078ZM812.538-83.233 613.154-281.616 500.231-168.694q-8.616 8.615-20.231 8.615-11.615 0-20.231-8.615L51.464-577q-9-9-8.308-21.808.692-12.807 10.692-21.423 33.924-28.23 66.039-49.5 32.115-21.269 66.192-38.961L82.232-812.538q-6.692-6.692-6.884-16.308-.192-9.615 6.885-16.307 6.692-7.077 16.114-7.077 9.423 0 16.116 7.077l730.305 730.306q6.692 6.307 6.885 15.615.192 9.307-6.885 16-6.692 7.076-16.115 7.076-9.423 0-16.115-7.076Z"/></svg>