<svg xmlns="http://www.w3.org/2000/svg" width="48" height="48" viewBox="0 -960 960 960"><path d="M480-716.308q-28.461 0-48.615-20.346-20.154-20.346-20.154-48.423 0-28.461 20.154-48.615 20.154-20.154 48.615-20.154 28.461 0 48.615 20.154 20.154 20.154 20.154 48.615 0 28.077-20.154 48.423T480-716.308ZM765-46.154q-17.231 0-30.077-2.616Q722.077-51.385 708-56L63.231-265.77q-6.461-2.23-9.5-8.076-3.038-5.847-.807-12.308 2.615-6.846 8.269-9.577 5.653-2.73 12.115-1.115l151.769 49 28.539-89.231-150.77-49q-6.461-2.231-9.692-8.077-3.23-5.846-.615-12.307 2.615-6.846 8.269-9.577t12.115-1.116l64.77 21.308v-134.692q0-17 9.308-31.423 9.307-14.423 25.538-22.039l174.307-73.692q5.847-2.615 11.77-3.615 5.923-1 13.153-1 32 0 47.154 23.5 15.154 23.5 4.769 54.038l-48.923 149.231 108.385-17.154q20.307-3.615 39 6.154 18.692 9.769 28.307 29.615l87.693 182.846 58.538 19.77q6.846 2.615 9.885 8.461 3.038 5.846.807 12.307-3 6.462-8.653 9.385-5.654 2.923-12.116 1.308L606.692-222l-29.154 88.231 140.001 45.923q12.23 4.23 23.461 6.423 11.231 2.192 24 2.192 46.308 0 81.039-34.73 34.73-34.731 34.73-81.039 0-36.923-16.384-64.231-16.385-27.308-46.231-44.923-5.231-2.846-7.654-8.384-2.423-5.539-.423-11 2.616-8.462 10.385-11.192 7.769-2.731 14.23 1.5 37.308 19.846 58.231 55.999 20.923 36.154 20.923 82.231 0 60.846-44 104.846-44 44-104.846 44ZM305.154-354.615q-11.769-14-15.384-33.385-3.616-19.384 3.154-39.692l52-162.617-114.539 48.231q-3.462 1.539-5.385 4.616-1.924 3.077-2.539 6.924v149.077l82.693 26.846Zm240.539 211.154 29.538-89.232-291.154-93.923-28.539 89.231 290.155 93.924Zm73.308-109.461-68.077-141.54-210.693 50.539 278.77 91.001Z"/></svg>