<svg xmlns="http://www.w3.org/2000/svg" width="48" height="48" viewBox="0 -960 960 960"><path d="M170.46-391.77q-38.07 0-64.27-26.4Q80-444.57 80-482.23q0-37.66 26.4-64.06 26.4-26.4 64.06-26.4v-127.62q0-19.58 14.83-34.4 14.82-14.83 34.4-14.83h169.85q0-38.07 26.19-64.27Q441.92-840 480-840t64.27 26.4q26.19 26.4 26.19 64.06h169.85q19.58 0 34.4 14.83 14.83 14.82 14.83 34.4v127.62q38.07 0 64.27 26.4Q880-519.89 880-482.23q0 37.66-26.4 64.06-26.4 26.4-64.06 26.4v202.54q0 19.58-14.83 34.41Q759.89-140 740.31-140H219.69q-19.58 0-34.4-14.82-14.83-14.83-14.83-34.41v-202.54Zm202.39-95Q383-497.16 383-512q0-14.85-10.39-25t-25.23-10.15q-14.84 0-24.99 10.39-10.16 10.38-10.16 25.23 0 14.84 10.39 24.99 10.39 10.16 25.23 10.16t25-10.39Zm264.76 0q10.16-10.39 10.16-25.23 0-14.85-10.39-25t-25.23-10.15q-14.84 0-25 10.39Q577-526.38 577-511.53q0 14.84 10.39 24.99 10.39 10.16 25.23 10.16t24.99-10.39ZM347-293.85h266q9.64 0 16.17-6.5 6.52-6.5 6.52-16.11 0-9.62-6.52-16.19-6.53-6.58-16.17-6.58H347q-9.64 0-16.17 6.77-6.52 6.76-6.52 16.37 0 9.62 6.52 15.93 6.53 6.31 16.17 6.31Z"/></svg>