<svg xmlns="http://www.w3.org/2000/svg" width="48" height="48" viewBox="0 -960 960 960"><path d="M139.232-344.693q-16.987 0-28.686-11.767-11.698-11.766-11.698-28.576 0-16.81 11.698-28.617 11.699-11.808 28.686-11.808h342L103.078-804q-6.692-6.692-6.885-16.115-.192-9.422 6.885-16.307 7.077-6.884 16.307-6.884 9.231 0 16.308 6.692l718.152 718.153q6.692 6.692 6.692 15.807t-6.884 16.192q-6.884 7.077-16.307 7.077-9.423 0-16.5-7.077L562-344.693H139.232Zm609.327-80.768q8.71 0 14.306 5.686 5.596 5.687 5.596 14.383v40.137q0 9.255-5.991 14.908-5.991 5.654-14.778 5.654h-17.385l-2.23-1.461v-59.307q0-8.667 5.803-14.333 5.804-5.667 14.679-5.667Zm83.765 0q8.675 0 14.521 5.732 5.846 5.733 5.846 14.499v40.463q0 8.767-5.945 14.42-5.944 5.654-14.618 5.654-8.675 0-14.248-5.751-5.573-5.751-5.573-14.546v-40.594q0-8.685 5.671-14.281 5.672-5.596 14.346-5.596Zm-192.785 0h24.692q8.551 0 14.468 5.667 5.916 5.666 5.916 14.333v25.077l-45.076-45.077ZM748.175-477q-8.791 0-14.444-5.666-5.654-5.667-5.654-14.333v-34.847q0-39.149-24.047-63.612-24.046-24.464-58.415-24.464h-68.307q-49.419 0-83.017-37.597-33.598-37.596-33.598-87.672 0-48.79 33.651-82.029 33.65-33.239 83.144-33.239 8.371 0 14.095 5.944 5.724 5.945 5.724 14.619t-5.666 14.247q-5.667 5.574-14.333 5.574-33.846 0-55.039 20.542-21.192 20.543-21.192 54.077t21.192 59.342q21.193 25.808 54.504 25.808h68.842q50.531 0 86.688 35.543 36.158 35.544 36.158 85.918v41.846q0 8.666-5.748 14.333Q756.965-477 748.175-477Zm83.953 0q-8.675 0-14.248-5.666-5.573-5.667-5.573-14.333v-77.308q0-72.308-49.039-117.23-49.038-44.923-122.115-44.923-8.666 0-14.333-5.804-5.666-5.803-5.666-14.679 0-8.709 5.666-14.305 5.667-5.596 14.333-5.596 33.846 0 54.654-23.044 20.808-23.043 20.808-56.264 0-8.666 5.747-14.333 5.748-5.666 14.539-5.666 8.79 0 14.444 5.666 5.654 5.667 5.654 14.333 0 31.846-12.5 54.5t-32.116 36.911q55.692 16.973 98 67.165 42.308 50.192 42.308 123.269v77.308q0 8.666-5.945 14.333Q840.802-477 832.128-477Z"/></svg>