<svg xmlns="http://www.w3.org/2000/svg" width="48" height="48" viewBox="0 -960 960 960"><path d="M252.098-689.615q-27.559 0-47.059-19.544-19.5-19.544-19.5-46.846 0-27.302 19.544-46.802 19.544-19.499 47.103-19.499t46.802 19.544q19.242 19.544 19.242 46.845 0 27.302-19.287 46.802t-46.845 19.5ZM109.385-541.154v-7.615q0-18.368 10.278-33.29t28.107-22.863q24.308-10.138 50.34-15.877 26.031-5.739 54.115-5.739 28.083 0 53.795 5.739 25.712 5.739 50.365 15.877 17.828 7.941 28.106 22.863 10.278 14.922 10.278 33.29v7.615H109.385Zm598.429-148.461q-27.559 0-46.802-19.544-19.242-19.544-19.242-46.846 0-27.302 19.287-46.802 19.287-19.499 46.845-19.499 27.559 0 47.059 19.544 19.5 19.544 19.5 46.845 0 27.302-19.544 46.802t-47.103 19.5ZM565.231-541.154v-7.615q0-18.341 10.254-33.24Q585.74-596.908 604-604.922q24.309-10.138 50.064-15.877 25.756-5.739 53.839-5.739t54.071 5.739q25.989 5.739 50.256 15.877 17.829 7.941 28.107 22.863 10.278 14.922 10.278 33.29v7.615H565.231ZM225.618-161.057l-102.295-101.37q-4.553-4.574-6.553-9.55-2-4.976-2-10.772 0-5.482 2-10.482 2-5 6.578-9.578L226.07-405.531q7.238-7.238 17.776-7.738 10.539-.5 18.846 7.807Q271-397.154 271-387.116t-8.308 18.346l-60.001 60.001h554.618l-60.001-60.001Q690-375.799 690-386.477q0-10.677 8.308-18.985 8.307-8.307 18.538-8.307 10.23 0 18.44 8.69l101.37 102.295q4.574 4.553 6.574 9.686t2 10.808q0 5.674-2 10.482-2 4.807-6.578 9.385L733.93-159.701q-7.238 7.238-17.276 7.238-10.039 0-18.346-8.307-7.923-8.308-7.923-18.346t7.923-18.346l59.001-58.616H202.691l60.001 59.616q7.308 7.308 7.808 17.346t-7.808 18.346q-7.923 7.922-18.153 7.922-10.231 0-18.921-8.209Z"/></svg>