<svg xmlns="http://www.w3.org/2000/svg" width="48" height="48" viewBox="0 -960 960 960"><path d="M214.001-100.001v-397.153h45.384v351.769h319.231v-210.691l99.692-100.077q31.154-31.154 47.538-70.808 16.385-39.654 16.385-83.193 0-43.538-16.692-83.192-16.693-39.654-46.846-69.808l-37.386-38.385L507.23-667.462H342.616l-60.308 60.308-32.615-31.614 74.077-74.077h164.615l152.922-152.923 70 69.615q37.231 37.231 56.269 85.384 19.039 48.154 20.039 100.615-1 52.462-20.039 100.616-19.038 48.153-56.269 85.384l-87.308 86.923v237.23H214.001Zm179.308-201.923-195.615-195.23q-8.846-8.846-13.27-20.384-4.423-11.539-4.423-24 0-12.462 4.423-24.115 4.424-11.654 13.27-20.5l71.999-72.615 112 110.615q26.231 26.231 39.769 59.384Q435-455.615 435-419.154q0 31.539-10.576 62.154-10.577 30.615-31.115 55.076Z"/></svg>