<svg xmlns="http://www.w3.org/2000/svg" width="48" height="48" viewBox="0 -960 960 960"><path d="M463.69-575.17q-6.38 6.53-6.38 16.17v79.31q0 9.48 6.58 15.89t16.31 6.41q9.72 0 16.11-6.52 6.38-6.52 6.38-16.17V-559q0-9.64-6.58-16.17-6.58-6.52-16.31-6.52-9.72 0-16.11 6.52ZM342.52-226.39q-6.71 6.39-15.98 6.39h-86.23q-9.65 0-16.17-6.58-6.52-6.58-6.52-16.31 0-9.73 6.52-16.11 6.52-6.39 16.17-6.39h86.23q9.27 0 15.98 6.59 6.71 6.58 6.71 16.3 0 9.73-6.71 16.11Zm392.72 0q-6.52 6.39-16.16 6.39h-86.62q-9.48 0-15.89-6.58-6.42-6.58-6.42-16.31 0-9.73 6.53-16.11 6.52-6.39 16.17-6.39h86.23q9.64 0 16.16 6.59 6.53 6.58 6.53 16.3 0 9.73-6.53 16.11Zm-454.45-231q26.67 0 44.67-17.91t18-43.84q0-25.94-18-44.05-18-18.12-43.97-18.12-25.98 0-44.35 17.99-18.37 17.98-18.37 43.58 0 26.12 18.22 44.24 18.22 18.11 43.8 18.11Zm397.55.39q26.46 0 44.56-18.17 18.1-18.18 18.1-44.04 0-25.87-18.1-44.17-18.1-18.31-44.23-18.31-26.13 0-44.63 18.1-18.5 18.11-18.5 43.97 0 25.87 18.45 44.24Q652.43-457 678.34-457ZM157.69-339.08q-23.53 0-40.61-17.08T100-396.81v-245.46q0-23.57 17.08-40.65T157.69-700h644.62q23.53 0 40.61 17.08T860-642.27v245.46q0 23.57-17.08 40.65t-40.61 17.08H157.69Zm0-45.38h644.62q5.38 0 8.84-3.46 3.46-3.47 3.46-8.85v-245.54q0-5.38-3.46-8.84t-8.84-3.46H157.69q-5.38 0-8.84 3.46t-3.46 8.84v245.54q0 5.38 3.46 8.85 3.46 3.46 8.84 3.46ZM480-519.54Z"/></svg>