<svg xmlns="http://www.w3.org/2000/svg" width="48" height="48" viewBox="0 -960 960 960"><path d="M321.385-100.001q-108.153 0-184.768-74.654T60.002-356.693q0-9.97 6.58-16.331 6.58-6.361 16.307-6.361 9.727 0 16.112 6.524 6.384 6.524 6.384 16.168 0 89.154 63.198 150.231 63.199 61.077 152.418 61.077 9.644 0 16.168 6.58 6.524 6.58 6.524 16.307 0 9.728-6.249 16.112-6.248 6.385-16.059 6.385Zm317.23 0q-9.811 0-16.059-6.581-6.249-6.58-6.249-16.307 0-9.727 6.524-16.112 6.524-6.384 16.168-6.384 89.219 0 152.418-61.077 63.198-61.077 63.198-150.231 0-9.644 6.58-16.168 6.58-6.524 16.307-6.524 9.728 0 16.112 6.524 6.385 6.524 6.385 16.168 0 107.384-76.616 182.038-76.615 74.654-184.768 74.654Zm-317.23-135.385q-52.076 0-89.038-35-36.961-34.999-36.961-86.307 0-9.97 6.58-16.331 6.58-6.361 16.307-6.361 9.727 0 16.112 6.524 6.384 6.524 6.384 16.168 0 15.548 6.135 29.415 6.135 13.868 17.616 24.303 11.48 10.436 25.598 16.321 14.118 5.885 30.883 5.885 9.644 0 16.168 6.58 6.524 6.58 6.524 16.307 0 9.727-6.249 16.112-6.248 6.384-16.059 6.384Zm317.23 0q-9.811 0-16.059-6.58-6.249-6.58-6.249-16.307 0-9.727 6.524-16.112 6.524-6.384 16.168-6.384 16.765 0 30.883-5.885 14.118-5.885 25.598-16.321 11.481-10.435 17.616-24.303 6.135-13.867 6.135-29.415 0-9.644 6.58-16.168 6.58-6.524 16.307-6.524 9.727 0 16.112 6.524 6.384 6.524 6.384 16.168 0 51.308-37.153 86.307-37.154 35-88.846 35ZM390.539-365.539q-23.5 0-40.596-16.947-17.096-16.947-17.096-40.745v-339.075q0-23.5 17.096-40.596 17.096-17.097 40.596-17.097h179.537q23.798 0 40.745 17.097 16.948 17.096 16.948 40.596v339.075q0 23.798-16.948 40.745-16.947 16.947-40.745 16.947H390.539Zm0-45.383h179.537q5.385 0 8.847-3.462 3.462-3.462 3.462-8.847v-339.075q0-5.385-3.462-8.847-3.462-3.462-8.847-3.462H390.539q-5 0-8.655 3.462-3.654 3.462-3.654 8.847v339.075q0 5.385 3.654 8.847 3.655 3.462 8.655 3.462Zm0 0H378.23h204.155-191.846Z"/></svg>