<svg xmlns="http://www.w3.org/2000/svg" width="48" height="48" viewBox="0 -960 960 960"><path d="M574.23-95.386H385.155q-23.615 0-40.654-17.038-17.038-17.039-17.038-40.654v-347.844q0-23.615 17.038-40.654 17.039-17.038 40.654-17.038H574.23q23.615 0 40.653 17.038 17.039 17.039 17.039 40.654v347.844q0 23.615-17.039 40.654-17.038 17.038-40.653 17.038ZM290.924-674.768q-7.076-6.692-7.076-15.807t7.307-15.192q38.923-30.615 87.076-47.346Q426.385-769.844 480-769.844t101.769 16.731q48.153 16.731 87.076 47.346 7.307 6.077 7.307 15.192t-6.692 15.807q-6.076 6.077-15.999 6.692-9.923.616-17.846-5.461-34.461-25.385-74.231-38.154Q521.615-724.46 480-724.46t-81.384 12.769q-39.77 12.769-74.231 38.154-7.923 6.077-17.846 5.461-9.923-.615-15.615-6.692Zm-90.462-91.847q-6.692-6.692-6.884-16.307-.193-9.615 7.5-15.692 55.461-47.154 128.653-74.577Q402.923-900.614 480-900.614q77.077 0 150.269 27.423 73.192 27.423 128.653 74.577 7.693 6.077 7.5 15.5-.192 9.423-6.884 16.499-6.077 6.077-16 6.385-9.923.308-17.23-5.769-51-42.308-113.654-65.77Q550-855.23 480-855.23t-132.654 23.461q-62.654 23.462-113.654 65.77-7.307 6.077-17.23 5.769-9.923-.308-16-6.385Z"/></svg>