<svg xmlns="http://www.w3.org/2000/svg" width="48" height="48" viewBox="0 -960 960 960"><path d="M278-406.846q-14.692 0-25.038-10.154t-10.346-25.231q0-15.076 10.346-25.23T278-477.615q14.693 0 25.039 10.154 10.346 10.154 10.346 25.23 0 15.077-10.346 25.231-10.346 10.154-25.039 10.154Zm523.306 147.614-43.46-46.153h44.46q5.385 0 8.847-3.462 3.462-3.462 3.462-8.847v-484.612q0-5.385-3.462-8.847-3.462-3.462-8.847-3.462h-554.69l-45.383-45.384h600.073q23 0 40.346 17.347 17.347 17.346 17.347 40.346v484.612q0 23.616-16.731 40.654-16.731 17.039-41.962 17.808ZM522.692-539.539l-45.383-45.383h214.46q9.663 0 16.177 6.566 6.515 6.567 6.515 16.307 0 9.741-6.515 16.126-6.514 6.384-16.177 6.384H522.692ZM241.539-260.001l-92.461 92.46q-13.615 13.615-31.346 6.271-17.731-7.343-17.731-26.502v-617.766l-29.54-29.541q-6.692-6.07-6.884-15.188-.193-9.119 6.769-16.196 6.576-6.692 15.807-7.192 9.23-.5 16.307 6.577l758.769 758.769q6.692 6.692 6.577 15.807-.115 9.115-7.192 16.192t-16 7.077q-8.923 0-15.999-7.077L645.307-260H241.539Zm-96.154-500.154v482.464l27.694-27.694h426.46l-454.154-454.77ZM503.231-560Zm-130.769 26.922ZM278-526.846q-14.692 0-25.038-10.154t-10.346-25.231q0-15.076 10.346-25.23T278-597.615q14.693 0 25.039 10.154 10.346 10.154 10.346 25.23 0 15.077-10.346 25.231-10.346 10.154-25.039 10.154Zm124.692-132.693-17.846-17.846v-4.846q0-9.663 6.515-16.177 6.514-6.514 16.177-6.514h284.231q9.663 0 16.177 6.566 6.515 6.567 6.515 16.307 0 9.741-6.515 16.126-6.514 6.384-16.177 6.384H402.692Z"/></svg>