<svg xmlns="http://www.w3.org/2000/svg" width="48" height="48" viewBox="0 -960 960 960"><path d="M480.05-724.46q-41.665 0-81.242 12.577-39.577 12.577-73.654 37.961-7.714 6.462-17.867 5.984-10.152-.478-17.363-7.445-6.692-6.692-5.884-15.5.808-8.807 8.884-15.269 38.539-30.23 86.307-46.961Q427-769.844 480-769.844q53 0 100.769 16.731 47.768 16.731 86.691 46.961 7.692 6.462 8.192 15.269.5 8.808-6.192 15.5-7.076 7.077-17.134 7.5-10.057.423-17.48-6.039-34.077-25.384-73.846-37.961-39.769-12.577-80.95-12.577ZM480-855.23q-69.615 0-131.589 22.853-61.973 22.853-113.334 64.608-8.308 6.462-17.923 7.347-9.615.884-16.552-6.152-6.832-7.036-6.14-17.192.693-10.156 8.385-16.617 55.461-46.769 128.269-73.5Q403.923-900.614 480-900.614q76.077 0 148.884 26.731 72.808 26.731 128.269 73.5 7.59 6.365 8.833 16.362 1.244 9.996-5.833 17.406-7.077 7.077-16.999 6.193-9.923-.885-18.231-7.347-51.361-41.755-113.334-64.608Q549.615-855.23 480-855.23ZM385.155-95.386q-23.529 0-40.61-17.081-17.082-17.082-17.082-40.611v-347.844q0-23.529 17.082-40.61 17.081-17.082 40.61-17.082H574.23q23.528 0 40.61 17.082 17.082 17.081 17.082 40.61v347.844q0 23.529-17.082 40.611-17.082 17.081-40.61 17.081H385.155Zm189.075-45.383q4.615 0 8.462-3.847 3.846-3.846 3.846-8.462v-347.844q0-4.615-3.846-8.462-3.847-3.846-8.462-3.846H385.155q-4.616 0-8.462 3.846-3.847 3.847-3.847 8.462v347.844q0 4.616 3.847 8.462 3.846 3.847 8.462 3.847H574.23Zm0 0H372.846h213.692-12.308Z"/></svg>