<svg xmlns="http://www.w3.org/2000/svg" width="48" height="48" viewBox="0 -960 960 960"><path d="M682.31-100H277.69q-23.75 0-40.72-16.97T220-157.69v-644.62q0-23.75 16.97-40.72T277.69-860h404.62q23.75 0 40.72 16.97T740-802.31v644.62q0 23.75-16.97 40.72T682.31-100ZM530-630.88q20.08-20.33 20.08-49.19 0-28.85-20.15-49.12-20.14-20.27-49.19-20.27-29.05 0-49.12 20.34-20.08 20.33-20.08 49.19 0 28.85 20.14 49.12 20.15 20.27 49.2 20.27 29.04 0 49.12-20.34Zm58.04 378.92Q632.08-296 632.08-360t-44.04-108.04Q544-512.08 480-512.08t-108.04 44.04Q327.92-424 327.92-360t44.04 108.04Q416-207.92 480-207.92t108.04-44.04ZM404.58-284.6q-31.27-31.3-31.27-75.43 0-44.12 31.29-75.39 31.3-31.27 75.43-31.27 44.12 0 75.39 31.29 31.27 31.3 31.27 75.43 0 44.12-31.29 75.39-31.3 31.27-75.43 31.27-44.12 0-75.39-31.29Z"/></svg>