<svg xmlns="http://www.w3.org/2000/svg" width="48" height="48" viewBox="0 -960 960 960"><path d="M283.693-408.616q15.076 0 25.23-10.154t10.154-25.038q0-14.885-10.154-25.231-10.154-10.346-25.038-10.346-14.885 0-25.231 10.346-10.346 10.346-10.346 25.039 0 15.076 10.346 25.23t25.039 10.154Zm0-115.384q15.076 0 25.23-10.154t10.154-25.038q0-14.885-10.154-25.231-10.154-10.346-25.038-10.346-14.885 0-25.231 10.346-10.346 10.346-10.346 25.038 0 15.077 10.346 25.231Q269-524 283.693-524Zm0-115.385q15.076 0 25.23-10.153 10.154-10.154 10.154-25.039 0-14.884-10.154-25.23t-25.038-10.346q-14.885 0-25.231 10.346-10.346 10.346-10.346 25.038 0 15.077 10.346 25.231 10.346 10.153 25.039 10.153Zm143.614 218.076h140q9.644 0 16.168-6.58 6.524-6.58 6.524-16.307 0-9.727-6.524-16.112-6.524-6.384-16.168-6.384h-140q-9.644 0-16.167 6.58-6.524 6.58-6.524 16.307 0 9.727 6.524 16.112 6.523 6.384 16.167 6.384Zm0-115.384h260.616q9.644 0 16.168-6.58 6.524-6.58 6.524-16.307 0-9.727-6.524-16.112-6.524-6.384-16.168-6.384H427.307q-9.644 0-16.167 6.58-6.524 6.58-6.524 16.307 0 9.727 6.524 16.112 6.523 6.384 16.167 6.384Zm0-115.384h260.616q9.644 0 16.168-6.58 6.524-6.58 6.524-16.308 0-9.727-6.524-16.111-6.524-6.385-16.168-6.385H427.307q-9.644 0-16.167 6.58-6.524 6.581-6.524 16.308t6.524 16.111q6.523 6.385 16.167 6.385ZM241.539-260.001l-92.461 92.46q-13.615 13.615-31.346 6.211-17.731-7.403-17.731-26.442v-614.534q0-23.529 17.082-40.611 17.082-17.082 40.611-17.082h644.612q23.529 0 40.611 17.082 17.082 17.082 17.082 40.611v484.612q0 23.529-17.082 40.611-17.082 17.082-40.611 17.082H241.539Z"/></svg>