<svg xmlns="http://www.w3.org/2000/svg" width="48" height="48" viewBox="0 -960 960 960"><path d="M424.154-346.154q21.539 21.538 55.115 20.038 33.577-1.5 49.038-24.038l169.254-246.683q6.976-10.7-1.332-19.008-8.307-8.307-19.028-1.351L430.154-448.307q-22.923 15.692-25.423 47.894t19.423 54.259ZM195.077-180.001q-13.704 0-25.697-6.962-11.994-6.961-18.456-19.115-24.846-44.538-37.884-93.461-13.039-48.923-13.039-99.846 0-78.849 29.925-148.199 29.925-69.35 81.225-120.957 51.3-51.608 120.342-81.533 69.042-29.925 146.892-29.925 78.743 0 148.651 29.756 69.908 29.755 121.666 81.384 51.758 51.629 81.72 120.783 29.961 69.153 29.577 147.855 0 51.375-12.423 101.182-12.424 49.808-37.5 94.5-7.077 12.153-19.384 18.345-12.307 6.193-25.769 6.193H195.077Z"/></svg>