<svg xmlns="http://www.w3.org/2000/svg" width="48" height="48" viewBox="0 -960 960 960"><path d="M590-287.77q-9.66 0-16.18-6.57-6.51-6.56-6.51-16.3 0-9.74 6.51-16.13 6.52-6.38 16.18-6.38h132.31q5.38 0 8.84-3.66 3.46-3.65 3.46-8.65v-101.15q0-5.01-3.46-8.66-3.46-3.65-8.84-3.65H596.15q-12.35 0-20.6-8.25-8.24-8.24-8.24-20.6v-155.61q0-12.36 8.24-20.6 8.25-8.25 20.6-8.25h161.16q9.66 0 16.17 6.57 6.52 6.56 6.52 16.3 0 9.74-6.52 16.13-6.51 6.38-16.17 6.38H612.69v122.54h109.62q23.53 0 40.61 17.08Q780-470.14 780-446.61v101.15q0 23.53-17.08 40.61t-40.61 17.08H590ZM441.92-626.85H298.08q-9.67 0-16.18-6.56-6.51-6.57-6.51-16.31 0-9.74 6.51-16.13 6.51-6.38 16.18-6.38h143.46q18.19 0 32.36 12.15 14.18 12.16 14.18 30.39 0 7.23-2.39 14.15L404-304.77q-2 7.69-8.15 12.04-6.16 4.34-13.92 4.34-11.01 0-17.74-8.42-6.73-8.43-3.88-19.5l81.61-310.54ZM226.39-294.34q-6.39-6.56-6.39-16.3 0-9.74 6.57-16.13 6.56-6.38 16.31-6.38 9.74 0 16.12 6.56 6.39 6.57 6.39 16.31 0 9.74-6.57 16.13-6.57 6.38-16.31 6.38-9.74 0-16.12-6.57Z"/></svg>