<svg xmlns="http://www.w3.org/2000/svg" width="48" height="48" viewBox="0 -960 960 960"><path d="M237.69-140q-23.53 0-40.61-17.08T180-197.69v-163.85q0-9.89 6.4-16.29 6.4-6.4 16.29-6.4h554.62q9.89 0 16.29 6.4 6.4 6.4 6.4 16.29v163.85q0 23.53-17.08 40.61T722.31-140H237.69Zm-115-317.31q-9.89 0-16.29-6.4-6.4-6.41-6.4-16.31 0-9.9 6.4-16.29 6.4-6.38 16.29-6.38H180v-259.62q0-23.53 17.08-40.61T237.69-820h484.62q23.53 0 40.61 17.08T780-762.31v259.62h57.31q9.89 0 16.29 6.4 6.4 6.41 6.4 16.31 0 9.9-6.4 16.29-6.4 6.38-16.29 6.38H122.69Z"/></svg>