<svg xmlns="http://www.w3.org/2000/svg" width="48" height="48" viewBox="0 -960 960 960"><path d="M420.383-222.309q-91.384 0-154.537-63.154Q202.693-348.616 202.693-440q0-12.41 1.576-25.628 1.577-13.218 3.962-21.449-4.615 1.615-10.461 2.423t-10.274.808q-38.418 0-63.149-24.816-24.73-24.815-24.73-62.876 0-38.061 24.728-62.876 24.729-24.815 62.963-24.815 28.692 0 52 17.346 23.307 17.346 31.23 43.423 27.538-26.462 67.577-42.846 40.038-16.385 82.884-16.385h410.538q12.519 0 20.683 8.164 8.163 8.163 8.163 20.682v34.614q0 11.481-7.913 19.394-7.914 7.913-19.394 7.913H638.074V-440q0 91.32-63.186 154.505-63.185 63.186-154.505 63.186ZM187.308-531.538q17.616 0 28.808-11.192t11.192-28.808q0-17.615-11.192-28.808-11.192-11.192-28.808-11.192-17.615 0-28.807 11.192-11.193 11.193-11.193 28.808 0 17.616 11.193 28.808 11.192 11.192 28.807 11.192Zm233.13 236.923q61.868 0 103.599-41.785 41.731-41.786 41.731-103.654 0-61.869-41.785-103.6-41.785-41.731-103.654-41.731t-103.6 41.785q-41.731 41.786-41.731 103.654 0 61.869 41.785 103.6 41.786 41.731 103.655 41.731Zm.013-73.078q29.855 0 51.047-21.26 21.192-21.26 21.192-51.115t-21.26-51.047q-21.26-21.192-51.115-21.192t-51.047 21.26q-21.192 21.26-21.192 51.115t21.26 51.047q21.26 21.192 51.115 21.192ZM420.383-440Z"/></svg>