<svg xmlns="http://www.w3.org/2000/svg" width="48" height="48" viewBox="0 -960 960 960"><path d="M420.383-222.309q-91.384 0-154.537-63.154Q202.693-348.616 202.693-440q0-12.41 1.576-25.628 1.577-13.218 3.962-21.449-4.615 2-10.346 2.615-5.731.616-10.577.616-38.061 0-62.876-24.816-24.815-24.815-24.815-62.876 0-38.061 24.728-62.876 24.729-24.815 62.963-24.815 28.692 0 52 17.346 23.307 17.346 31.23 43.423 27.538-26.462 67.577-42.846 40.038-16.385 82.884-16.385h410.538q12.519 0 20.683 7.731 8.163 7.731 8.163 20.346V-595q0 12.615-8.163 20.346-8.164 7.73-20.683 7.73H638.074V-440q0 91.32-63.186 154.505-63.185 63.186-154.505 63.186ZM187.308-531.538q17.616 0 28.808-11.192t11.192-28.808q0-17.615-11.192-28.808-11.192-11.192-28.808-11.192-17.615 0-28.807 11.192-11.193 11.193-11.193 28.808 0 17.616 11.193 28.808 11.192 11.192 28.807 11.192Zm233.143 163.845q29.855 0 51.047-21.26 21.192-21.26 21.192-51.115t-21.26-51.047q-21.26-21.192-51.115-21.192t-51.047 21.26q-21.192 21.26-21.192 51.115t21.26 51.047q21.26 21.192 51.115 21.192Z"/></svg>