<svg xmlns="http://www.w3.org/2000/svg" width="48" height="48" viewBox="0 -960 960 960"><path d="m439.984-268.864-171.12-171.12q-8.747-8.555-12.458-18.978-3.712-10.423-3.712-20.942t3.616-21.038q3.615-10.519 12.554-19.459l171.12-171.119q8.595-8.555 19.069-12.17 10.473-3.616 20.947-3.616 10.487 0 20.974 3.616 10.487 3.615 19.427 12.17L691.52-520.401q8.555 8.94 12.17 19.459 3.616 10.519 3.616 21.038t-3.616 20.942q-3.615 10.423-12.17 18.978l-171.119 171.12q-8.94 8.939-19.459 12.554-10.519 3.616-21.038 3.616t-20.942-3.712q-10.423-3.711-18.978-12.458Z"/></svg>