<svg xmlns="http://www.w3.org/2000/svg" width="48" height="48" viewBox="0 -960 960 960"><path d="M479.905-90q-42.828 0-72.712-29.98-29.885-29.98-29.885-72.808 0-42.827 29.98-72.712 29.979-29.884 72.807-29.884t72.712 29.979q29.885 29.98 29.885 72.808 0 42.827-29.98 72.712-29.979 29.884-72.807 29.884Zm-22.597-677.846L351.615-663.538q-6.692 6.077-15.638 6.192-8.946.116-15.659-6.576-6.625-6.564-6.625-15.744 0-9.179 6.692-15.871l139.384-139.384q8.686-8.616 20.266-8.616 11.58 0 20.196 8.616l139.384 139.384q6.692 6.762 6.577 16.034-.116 9.273-7.192 16.189-6.693 6.468-16 6.276-9.307-.192-16-6.884L502.692-768.231v338.232q0 9.644-6.58 16.168-6.581 6.524-16.308 6.524t-16.111-6.524q-6.385-6.524-6.385-16.168v-337.847Z"/></svg>