<svg xmlns="http://www.w3.org/2000/svg" width="48" height="48" viewBox="0 0 48 48"><path d="M24 37.5q-2.15 0-3.65-1.5t-1.5-3.65q0-2.15 1.5-3.625T24 27.25q2.15 0 3.65 1.5t1.5 3.6q0 2.15-1.5 3.65T24 37.5Zm11.65-16.65q-1.5-3.35-4.625-5.475Q27.9 13.25 24 13.25q-4.15 0-7.375 2.375Q13.4 18 12.05 21.75q-.2.55-.575.975-.375.425-.925.425-.5 0-.75-.5t-.1-1q1.4-4.7 5.3-7.675Q18.9 11 23.95 11q3.95 0 7.275 1.9t5.325 5.05V12q0-.45.325-.775t.825-.325q.5 0 .825.325.325.325.325.775v9.7q0 .6-.425 1.025-.425.425-1.025.425h-9.7q-.45 0-.775-.325T26.6 22q0-.5.325-.825.325-.325.775-.325Z"/></svg>