<svg xmlns="http://www.w3.org/2000/svg" width="48" height="48" viewBox="0 -960 960 960"><path d="M161.693-168.462q-27.419 0-47.248-19.835-19.828-19.835-19.828-47.262 0-27.812 19.828-47.434 19.829-19.622 47.248-19.622h636.614q27.419 0 47.248 19.642 19.829 19.643 19.829 47.455 0 27.427-19.829 47.242-19.829 19.814-47.248 19.814H161.693Zm29.077-33.769h66.615v-66.615H190.77v66.615Zm-29.077-455.154q-27.419 0-47.248-19.642-19.828-19.643-19.828-47.455 0-27.427 19.828-47.242 19.829-19.814 47.248-19.814h636.614q27.419 0 47.248 19.835 19.829 19.835 19.829 47.262 0 27.812-19.829 47.434-19.829 19.622-47.248 19.622H161.693Zm29.077-33.769h66.615v-66.615H190.77v66.615Zm-29.077 278.23q-27.419 0-47.248-19.834-19.828-19.835-19.828-47.262 0-27.428 19.828-47.242 19.829-19.814 47.248-19.814h636.614q27.419 0 47.248 19.834 19.829 19.835 19.829 47.262 0 27.428-19.829 47.242-19.829 19.814-47.248 19.814H161.693Zm29.077-33.769h66.615v-66.614H190.77v66.614Z"/></svg>