<svg xmlns="http://www.w3.org/2000/svg" width="48" height="48" viewBox="0 -960 960 960"><path d="m160.847-141.154-12.999-3.538q-32-14-43.308-47.423t5.538-65.654l50.769-114.46v231.075ZM355.309-72.77q-34 0-57.808-23.807-23.807-23.808-23.807-57.808V-329.46l81.23 230.075q2 8 6 14t9.615 12.615h-15.23Zm167.229-34.77q-15.999 7.077-33.614-3.23-17.615-10.308-25.308-27.923L276.463-649.231q-7.692-17.615 1.615-34.422 9.308-16.807 28.153-24.499L620-821.999q17.231-6.076 33.846 3.423 16.615 9.5 24.307 27.731l187.153 505.691q5.462 19.231-1.846 37.653-7.307 18.423-26.538 25.5L522.538-107.54Zm-75.845-471.536q13.153 0 22.923-9.77 9.769-9.769 9.769-22.923 0-13.154-9.769-22.923-9.77-9.769-22.923-9.769-13.539 0-23.116 9.769T414-611.769q0 13.154 9.577 22.923 9.577 9.77 23.116 9.77Z"/></svg>