<svg xmlns="http://www.w3.org/2000/svg" width="48" height="48" viewBox="0 -960 960 960"><path d="M145.385-100.001q-18.846 0-32.115-13.269-13.269-13.269-13.269-32.115v-466.307q0-75.846 40-133.422 40-57.577 110.615-86.038 52.538-19.847 113.423-24.347 60.884-4.5 115.961-4.5t116.269 4.5q61.192 4.5 113.73 24.347 71 28.461 110.5 86.038 39.5 57.576 39.5 133.422v466.307q0 18.846-13.269 32.115-13.269 13.269-32.115 13.269h-669.23Zm143.846-326.46h381.923v-175.77H289.231v175.77Zm322.307 122.768q15.461 0 25.5-10.038 10.038-10.038 10.038-25.5 0-15.461-10.038-25.5-10.039-10.038-25.5-10.038-15.462 0-25.5 10.038Q576-354.692 576-339.231q0 15.462 10.038 25.5t25.5 10.038Zm-263.076 0q15.462 0 25.5-10.038t10.038-25.5q0-15.461-10.038-25.5-10.038-10.038-25.5-10.038-15.461 0-25.5 10.038-10.038 10.039-10.038 25.5 0 15.462 10.038 25.5 10.039 10.038 25.5 10.038Zm-11.616 158.308q1.846 0 13.692-6.231l69.384-72.077h120.156l69.768 72.462q2.231 2.231 14.693 5.846.154 0 12.692-3.846 6.846-4.846 7.653-14.308.808-9.461-5.653-16.307l-42.693-44.616q46.616-1.538 78.884-32.077 32.269-30.538 32.269-83.461v-262.231q0-63.153-67.499-84.691Q572.693-708.461 480-708.461q-101.769 0-164.73 21.539-62.961 21.538-62.961 84.691V-340q0 56.154 35.615 85.461 35.615 29.308 75.538 30.077l-42.308 44.616q-6.461 6.846-5.654 16 .808 9.153 8.039 14.615 1 .615 13.307 3.846Z"/></svg>