<svg xmlns="http://www.w3.org/2000/svg" width="48" height="48" viewBox="0 -960 960 960"><path d="M216.155-310.769v-325.769q0-59.999 41.538-101.538 41.538-41.538 101.923-41.538 59.999 0 101.538 41.538 41.538 41.539 41.538 101.538v272.46q0 40.539 28.769 69.308Q560.23-266 600.769-266q40.154 0 68.923-28.77 28.769-28.769 28.769-69.308v-324.769l-65.308 65.309q-6.692 6.692-16.615 6.884-9.923.193-16.615-6.884-7.077-6.692-7.077-16.923 0-10.23 7.077-16.923l100.999-101.999q4.616-4.616 9.424-6.808 4.807-2.192 10.807-2.192t10.808 2.192q4.808 2.192 9.423 6.808l102 101.999q6.692 6.693 6.884 16.615.192 9.923-6.884 16.615-7.077 7.077-17.115 7.077-10.039 0-17.115-7.077l-65.309-64.693v324.769q0 60.385-41.538 101.923-41.538 41.538-101.538 41.538-60.384 0-101.923-41.538-41.538-41.538-41.538-101.923v-272.46q0-40.154-28.769-68.923t-68.923-28.769q-40.539 0-69.308 28.769-28.769 28.769-28.769 68.923v325.769l65.308-65.308q6.692-6.692 16.923-6.885 10.23-.192 17.307 6.5 7.077 7.077 6.885 17.308-.193 10.23-6.885 16.922l-101.999 102q-4.616 4.615-9.424 6.615-4.807 2-10.807 2t-10.808-2q-4.808-2-9.423-6.615l-102-102q-6.692-6.692-6.384-16.922.308-10.231 7.384-17.308 6.693-6.692 16.731-6.692 10.038 0 17.115 7.077l64.693 65.308Z"/></svg>