<svg xmlns="http://www.w3.org/2000/svg" width="48" height="48" viewBox="0 -960 960 960"><path d="M323.538-369.385h173.77q9.904 0 16.298-6.398Q520-382.181 520-392.091q0-9.909-6.394-16.293-6.394-6.385-16.298-6.385h-173.77l72.616-72.616q6.692-6.692 6.885-16.115.192-9.423-6.584-16.583-6.993-6.993-16.416-6.993T363.924-520L255.848-412.308q-8.615 9-8.615 20.423 0 11.423 8.615 20.039l108.076 107.691q6.692 7.077 16.115 6.769 9.423-.307 16.584-7.468 6.608-6.993 6.608-16.223 0-9.231-7.077-16.308l-72.616-72Zm312.924-170.154-72.616 72.616q-6.692 6.692-6.885 16.307-.192 9.616 6.584 16.391 6.993 6.994 16.416 6.994t16.499-7.077L704.152-542q8.615-8.615 8.615-20.231 0-11.615-8.615-20.23L597.076-689.538q-6.692-6.692-16.308-7.192-9.615-.5-16.391 6.66-6.993 6.994-6.993 16.724 0 9.731 7.077 16.423l72.001 72.001h-173.77q-9.904 0-16.298 6.397Q440-572.127 440-562.217q0 9.909 6.394 16.294 6.394 6.384 16.298 6.384h173.77ZM480.067-100.001q-78.221 0-147.397-29.92-69.176-29.92-120.989-81.71-51.814-51.791-81.747-120.936-29.933-69.146-29.933-147.366 0-78.836 29.92-148.204 29.92-69.369 81.71-120.682 51.791-51.314 120.936-81.247 69.146-29.933 147.366-29.933 78.836 0 148.204 29.92 69.369 29.92 120.682 81.21 51.314 51.291 81.247 120.629 29.933 69.337 29.933 148.173 0 78.221-29.92 147.397-29.92 69.176-81.21 120.989-51.291 51.814-120.629 81.747-69.337 29.933-148.173 29.933Z"/></svg>