<svg xmlns="http://www.w3.org/2000/svg" width="48" height="48" viewBox="0 96 960 960"><path d="M480 885.999q-78.154 0-134.076-55.923Q290.001 774.154 290.001 696t49.153-128.115q49.154-49.961 118.154-61.269V276.537L380.846 353q-6.692 7.076-15.807 7.076T349.231 353q-6.692-7.077-6.884-16-.192-8.923 6.884-16l110.538-110.537q4.616-4.616 9.423-6.808Q474 201.463 480 201.463t10.808 2.192q4.807 2.192 9.423 6.808L610.769 321q6.692 6.693 6.884 16 .192 9.307-6.884 16-6.693 7.076-15.615 7.076-8.923 0-16-7.076l-76.462-76.463v230.079q69 11.308 118.154 61.269Q669.999 617.846 669.999 696q0 78.154-55.115 134.076Q559.769 885.999 480 885.999Zm0-45.383q60.539 0 102.577-42.654Q624.616 755.308 624.616 696q0-60.539-42.039-102.577Q540.539 551.384 480 551.384q-59.308 0-101.962 42.039Q335.384 635.461 335.384 696q0 59.308 42.654 101.962T480 840.616ZM480 696Z"/></svg>