<svg xmlns="http://www.w3.org/2000/svg" width="48" height="48" viewBox="0 -960 960 960"><path d="M822.999-719.999q-80.923-68.615-168.884-102.961-87.961-34.346-182.576-34.346-102 0-185.461 38.731-83.462 38.73-136.077 112.269-5.846 8.076-13.538 13.73-7.691 5.654-17.693 5.654-6.461 0-8.807-6.654t1.885-13.115q53-87.461 147.884-135.576 94.884-48.115 211.807-48.115 96.461 0 184.653 32.961t170.73 96.961v-83q0-6.872 4.828-11.705 4.828-4.834 11.692-4.834t11.71 4.834q4.847 4.833 4.847 11.705v127.692q0 12.519-8.164 20.682-8.163 8.164-20.683 8.164H703.46q-6.871 0-11.705-4.828-4.833-4.828-4.833-11.692t4.833-11.71q4.834-4.847 11.705-4.847h119.539Zm-352.23 619.998q-20.461 0-38.923-7.616-18.461-7.615-33.692-22.461L210.462-317.386q-6.654-6.846-7.365-16.5-.712-9.653 4.904-17.115l.615-.23q8.692-12.154 22.346-16.923 13.653-4.769 28.422-.923l110.617 28.308V-680q0-9.904 6.398-16.298 6.398-6.394 16.307-6.394 9.909 0 16.294 6.394 6.384 6.394 6.384 16.298v292.693h76.232v-157.309q0-9.903 6.398-16.297t16.307-6.394q9.909 0 16.294 6.394 6.384 6.394 6.384 16.297v157.309H613v-117.309q0-9.903 6.398-16.297t16.307-6.394q9.91 0 16.294 6.394 6.385 6.394 6.385 16.297v117.309h76.231v-37.309q0-9.903 6.398-16.297t16.307-6.394q9.91 0 16.294 6.394 6.385 6.394 6.385 16.297v174.615q0 62.154-43.923 106.077-43.923 43.923-106.001 43.923H470.769Z"/></svg>