<svg xmlns="http://www.w3.org/2000/svg" width="48" height="48" viewBox="0 -960 960 960"><path d="M545.222-481.539q45.317 0 76.932-31.452 31.615-31.452 31.615-76.723 0-45.272-31.452-77.124-31.453-31.853-76.769-31.853-45.317 0-76.932 31.69-31.615 31.69-31.615 76.961t31.452 76.886q31.453 31.615 76.769 31.615ZM288.464-230.771q-23.5 0-40.596-17.097-17.097-17.096-17.097-40.596v-513.842q0-23.5 17.097-40.596 17.096-17.097 40.596-17.097h513.842q23.5 0 40.596 17.097 17.097 17.096 17.097 40.596v513.842q0 23.5-17.097 40.596-17.096 17.097-40.596 17.097H288.464Zm-130.77 130.77q-23.5 0-40.596-17.097-17.097-17.096-17.097-40.596v-512.305q0-9.644 6.581-16.168 6.58-6.524 16.307-6.524 9.727 0 16.112 6.524 6.384 6.524 6.384 16.168v512.305q0 5.385 3.462 8.847 3.462 3.462 8.847 3.462h512.305q9.644 0 16.168 6.58 6.524 6.58 6.524 16.307 0 9.728-6.524 16.112-6.524 6.385-16.168 6.385H157.694Zm130-176.154h515.382q-48.308-57.692-114.995-90.768Q621.395-400 545.454-400t-142.697 33.077q-66.755 33.076-115.063 90.768Z"/></svg>