<svg xmlns="http://www.w3.org/2000/svg" width="48" height="48" viewBox="0 -960 960 960"><path d="M593.85-297.31q12.6 0 20.72-8.12t8.12-20.72v-307.7q0-12.6-8.12-20.72t-20.72-8.12h-227.7q-12.6 0-20.72 8.12t-8.12 20.72v307.7q0 12.6 8.12 20.72t20.72 8.12h227.7Zm-211.16-45.38v-274.62h194.62v274.62H382.69ZM197.69-140q-23.53 0-40.61-17.08T140-197.69v-564.62q0-23.53 17.08-40.61T197.69-820h564.62q23.53 0 40.61 17.08T820-762.31v564.62q0 23.53-17.08 40.61T762.31-140H197.69Zm303.04-359.28q8.12-8.12 8.12-20.73 0-12.61-8.13-20.72-8.12-8.12-20.73-8.12-12.61 0-20.72 8.13-8.12 8.12-8.12 20.73 0 12.61 8.13 20.72 8.12 8.12 20.73 8.12 12.61 0 20.72-8.13Z"/></svg>