<svg xmlns="http://www.w3.org/2000/svg" width="48" height="48" viewBox="0 -960 960 960"><path d="M545.385-481.539q45.929 0 77.157-31.273 31.227-31.274 31.227-77.269 0-45.995-31.227-77.303-31.228-31.307-77.157-31.307-45.929 0-77.157 31.339-31.227 31.34-31.227 77.43 0 45.929 31.227 77.156 31.228 31.227 77.157 31.227ZM288.464-230.771q-23.529 0-40.611-17.082-17.082-17.082-17.082-40.611v-513.842q0-23.529 17.082-40.611 17.082-17.082 40.611-17.082h513.842q23.529 0 40.611 17.082 17.082 17.082 17.082 40.611v513.842q0 23.529-17.082 40.611-17.082 17.082-40.611 17.082H288.464Zm-130.77 130.77q-23.529 0-40.611-17.082-17.082-17.082-17.082-40.611v-512.305q0-9.913 6.392-16.303 6.391-6.389 16.307-6.389 9.916 0 16.301 6.389 6.384 6.39 6.384 16.303v512.305q0 5.385 3.462 8.847 3.462 3.462 8.847 3.462h512.305q9.913 0 16.303 6.391 6.389 6.391 6.389 16.308 0 9.916-6.389 16.3-6.39 6.385-16.303 6.385H157.694Zm130-176.154h515.382q-55.923-66.307-124.807-95.076Q609.385-400 545.385-400q-64 0-132.884 28.769-68.884 28.769-124.807 95.076Z"/></svg>