<svg xmlns="http://www.w3.org/2000/svg" width="48" height="48" viewBox="0 -960 960 960"><path d="M277.155-373.924q6.193 6.077 14.751 5.577 8.557-.5 15.015-6.958 6.08-6.08 6.08-15.092 0-9.011-6.462-14.91l-54.231-54.232h314.616l-55.231 55.232q-6.077 6.193-5.577 14.75t7.046 15.015q6.161 6.08 14.896 6.08 8.735 0 15.019-6.462L630.153-462q4.616-4.615 6.808-9.591 2.192-4.976 2.192-10.773 0-5.482-2.192-10.482-2.192-5-6.808-9.615l-88.076-88.077q-6.193-6.077-14.75-5.577t-15.015 6.958q-6.081 6.081-6.081 15.092 0 9.012 6.462 14.911l54.231 54.232H252.308l55.231-55.232q6.077-5.692 5.577-14.36-.5-8.667-6.925-15.372-6.19-5.729-14.971-5.729-8.781 0-15.065 6.077l-87.076 87.077q-4.615 4.615-6.615 9.748-2 5.134-2 10.808 0 5.674 2 10.482 2 4.808 6.615 9.423l88.076 88.076ZM167.31-180.001q-23.529 0-40.611-17.082-17.081-17.082-17.081-40.611v-484.612q0-23.529 17.081-40.611 17.082-17.082 40.611-17.082h484.612q23.529 0 40.611 17.082 17.082 17.082 17.082 40.611v208.461l115.152-115.153q7.615-7.615 16.615-3.615 9 4 9 14v277.226q0 10-9 14t-16.615-3.615L709.615-446.539v208.845q0 23.529-17.082 40.611-17.082 17.082-40.611 17.082H167.31Zm0-45.384h484.612q5.385 0 8.847-3.462 3.462-3.462 3.462-8.847v-484.612q0-5.385-3.462-8.847-3.462-3.462-8.847-3.462H167.31q-5.385 0-8.847 3.462-3.462 3.462-3.462 8.847v484.612q0 5.385 3.462 8.847 3.462 3.462 8.847 3.462Zm-12.309 0v-509.23 509.23Z"/></svg>