<svg xmlns="http://www.w3.org/2000/svg" width="48" height="48" viewBox="0 -960 960 960"><path d="M859.999-831.152v91.074q0 6-2 10.808t-6.616 9.423L633.23-501.309q-9 9-20.423 9-11.423 0-20.038-9l-91.46-91.46q-9-8.615-9-20.038t9-20.423l218.538-218.153q4.615-4.616 9.423-6.616t10.808-2h91.074q12.616 0 20.731 8.116 8.116 8.115 8.116 20.731ZM157.462-105.54l-52.307-52.307q-9-8.615-9-20.231 0-11.615 9-20.23l124.77-124.77-73.539-73.538q-6.308-6.308-6.308-14.462 0-8.153 6.308-14.461l16.23-16.23Q188.847-458 212.385-458q23.539 0 40.769 16.231l28.462 28.232 44.154-44.154q8.615-8.615 20.038-8.615t20.423 8.615l91.46 91.46q8.615 9 8.615 20.423 0 11.423-8.615 20.038l-44.154 44.154 27.847 28.077q16.231 17.231 16.231 40.769 0 23.539-16.231 39.769l-16.23 16.231q-6.308 6.307-14.461 6.307-8.154 0-14.461-6.307l-73.539-73.539L197.924-105.54q-8.616 9-20.231 9-11.615 0-20.231-9Zm663.23-1.154-462.77-461.769q-44.23 32.308-98.96 28.769-54.731-3.538-94.73-43.538l-37.001-37.385 16.615-17.23q30.385-31 71.346-31.5 40.962-.5 72.962 31.5l69.768 69.384q4.462-3.846 9.231-7.384 4.769-3.539 8.615-8 3.846-3.846 7.192-8t6.577-8.231l-69.768-69.768q-44.385-44.384-103.884-44.077-59.5.308-103.654 44.462l-16.614 17.23-10.77-11.385q-6.076-7.077-6.576-16.384t6.577-16.384L259.769-870.69q8.616-8.616 20.231-8.423 11.615.192 20.231 8.807l75.537 75.538q40.384 40.384 43.615 95.422 3.231 55.038-29.846 99.268L700.23-290q-12.615-30.846-16.731-62.692-4.115-31.846 2.5-64.308 10.231-49.384 41.769-87.884 31.538-38.5 72.923-64.961 10-6 21.307-3.5 11.308 2.5 17.923 12.5 27.539 40.538 42.115 87.576 14.577 47.039 4.346 96.038-9.846 50.154-41.653 89.038-31.808 38.885-75.961 65.962l83.538 83.538q6.693 6.692 6.885 16 .192 9.307-6.885 15.999-6.692 6.693-15.807 6.693t-15.807-6.693Z"/></svg>