<svg xmlns="http://www.w3.org/2000/svg" width="48" height="48" viewBox="0 -960 960 960"><path d="M731.92-622.69v-51.92q0-36.39 23.54-60.12 23.54-23.73 60.12-23.73 36.57 0 60.11 23.73t23.54 60.12v51.92H731.92Zm-671.15 0v-51.92q0-36.39 23.54-60.12 23.54-23.73 60.31-23.73 36.38 0 59.92 23.73t23.54 60.12v51.92H60.77Zm0 436.54v-408.46h167.31v453.84H106.15q-18.84 0-32.11-13.27t-13.27-32.11Zm195.39 45.38v-483.07L451.23-788q6.08-5.46 13.27-8.19 7.19-2.73 15.5-2.73 8.31 0 15.5 2.73 7.19 2.73 13.27 8.19l195.07 164.16v483.07H582.69q-12.61 0-20.73-8.12-8.11-8.11-8.11-20.73V-320q0-32.69-20.58-53.27-20.58-20.58-53.27-20.58-32.69 0-53.27 20.58-20.58 20.58-20.58 53.27v150.38q0 12.62-8.11 20.73-8.12 8.12-20.73 8.12H256.16Zm475.76 0v-453.84h167.31v408.46q0 18.84-13.27 32.11t-32.11 13.27H731.92ZM514.58-525.62q14.27-14.07 14.27-34.38 0-20.31-14.27-34.58T480-608.85q-20.31 0-34.38 14.27-14.08 14.27-14.08 34.58t14.08 34.38q14.07 14.08 34.38 14.08 20.31 0 34.58-14.08Z"/></svg>