<svg xmlns="http://www.w3.org/2000/svg" width="48" height="48" viewBox="0 -960 960 960"><path d="M726.92-142.67q0 9.9-6.4 16.28-6.4 6.39-16.29 6.39H575.77q-9.9 0-16.29-6.41-6.4-6.4-6.4-16.3 0-9.91 6.4-16.29 6.39-6.39 16.29-6.39h128.46q9.89 0 16.29 6.41 6.4 6.4 6.4 16.31Zm-228.46 0q0 9.9-6.4 16.28-6.4 6.39-16.29 6.39h-120q-9.89 0-16.29-6.41-6.4-6.4-6.4-16.3 0-9.91 6.4-16.29 6.4-6.39 16.29-6.39h120q9.89 0 16.29 6.41 6.4 6.4 6.4 16.31ZM132.71-736.92q9.91 0 16.29 6.4 6.39 6.4 6.39 16.29v128.46q0 9.9-6.41 16.29-6.4 6.4-16.31 6.4-9.9 0-16.28-6.4-6.39-6.39-6.39-16.29v-128.46q0-9.89 6.41-16.29 6.4-6.4 16.3-6.4Zm0 228.46q9.91 0 16.29 6.4 6.39 6.4 6.39 16.29v120q0 9.89-6.41 16.29-6.4 6.4-16.31 6.4-9.9 0-16.28-6.4-6.39-6.4-6.39-16.29v-120q0-9.89 6.41-16.29 6.4-6.4 16.3-6.4ZM167.69-120q-23.52 0-40.61-17.08Q110-154.17 110-177.7v-88.07q0-9.9 6.41-16.29 6.4-6.4 16.3-6.4 9.91 0 16.29 6.4 6.39 6.39 6.39 16.29v88.07q0 4.62 3.84 8.47 3.85 3.84 8.46 3.84h88.08q9.9 0 16.29 6.41 6.4 6.4 6.4 16.31 0 9.9-6.4 16.28-6.39 6.39-16.29 6.39h-88.08Zm110.77-110.77q-23.53 0-40.61-17.08t-17.08-40.61v-513.85q0-23.53 17.08-40.61T278.46-860h513.85q23.52 0 40.61 17.08Q850-825.84 850-802.31v513.85q0 23.53-17.08 40.61-17.09 17.08-40.61 17.08H278.46Zm188.92-215 68-68 68.39 68.38q6.69 6.7 15.81 6.5 9.11-.19 15.8-6.88 6.7-6.69 6.7-15.87t-6.7-15.74L567-545.39l68.38-68.38q6.7-6.56 6.7-15.74t-6.7-15.87q-6.69-6.7-15.87-6.7t-15.74 6.7L535.38-577 467-645.38q-6.69-6.7-15.62-6.7-8.92 0-15.61 6.7-6.69 6.69-6.69 15.87t6.69 15.74l68 68.38L435.38-477q-6.69 6.69-6.5 15.61.2 8.93 6.89 15.62 6.69 6.69 15.87 6.69t15.74-6.69Z"/></svg>