<svg xmlns="http://www.w3.org/2000/svg" width="48" height="48" viewBox="0 -960 960 960"><path d="M274.924-114.924q-7.077-7.076-7.077-15.999 0-8.923 7.077-16l200.999-200.615q16.231-17.231 40.385-16.923 24.153.308 40.769 16.923l90.076 90.077Q650.615-254 656-254t8.847-3.461l188.23-187.231q6.308-6.692 15.615-6.884 9.308-.193 16 6.884 7.077 7.077 7.077 16t-7.077 15.615L696.461-224.462Q679.846-207.847 656-207.847t-40.461-16.615l-90.692-90.692q-3.462-3.462-8.847-3.462t-8.847 3.462l-200.23 200.23q-6.692 6.693-15.807 6.885-9.116.192-16.192-6.885Zm-117.23-25.077q-23.616 0-40.654-17.039-17.039-17.038-17.039-40.654v-579.227q0-23.616 17.039-40.654 17.038-17.039 40.654-17.039h564.612q23.616 0 40.654 17.039 17.039 17.038 17.039 40.654v180.767q0 12.616-8.116 20.731-8.115 8.116-20.731 8.116H145.385v369.613q0 4.616 3.846 8.463 3.847 3.846 8.463 3.846v45.384Z"/></svg>