<svg xmlns="http://www.w3.org/2000/svg" width="48" height="48" viewBox="0 -960 960 960"><path d="m215.463-557.692-106.616-107.77q-6.077-6.692-6.077-15.615t6.308-15.999q6.692-7.077 16.115-7.462 9.422-.384 16.499 6.692l91.386 90.309-3.154-36.847q-2-13.615 2.5-25.808 4.5-12.192 14.116-21.807l108.768-110.769q8-7.615 18.923-12.423 10.923-4.808 22.539-4.808h166.46q11.616 0 22.539 4.808 10.923 4.808 18.923 12.423L713.46-691.999q9.616 9.615 13.923 21.615 4.308 12 2.693 25.615l-3.154 37.232 91.386-90.309q7.077-7.076 16.499-6.884 9.423.192 16.115 7.654 6.308 6.692 6.308 15.807t-5.692 15.807l-107.001 107.77H215.463Zm426.69 377.691H317.847q-22.231 0-39.154-15.731-16.923-15.731-18.538-37.962l-22.846-298.844h485.382l-22.846 298.844q-1.615 22.231-18.538 37.962-16.923 15.731-39.154 15.731Z"/></svg>