<svg xmlns="http://www.w3.org/2000/svg" width="48" height="48" viewBox="0 -960 960 960"><path d="M318.232-180.001q-23.231 0-39.462-15.231-16.23-15.231-18.23-38.462l-22.846-298.844h485.382L700.23-233.694q-2 23.231-18.231 38.462-16.231 15.231-39.462 15.231H318.232ZM213.694-560.23 109.462-665.462q-6.077-6.692-6.769-15.615-.692-8.923 6.385-15.999 6.692-7.077 16.115-7.462 9.422-.384 16.499 6.692l91.771 90.694-5.769-66.001 127.614-129.615q8-7.615 18.923-12.423 10.923-4.808 22.539-4.808h166.46q11.616 0 22.539 4.808 10.923 4.808 18.923 12.423l127.614 129.615-5.384 66.001 91.386-90.694q7.077-7.076 16.307-7.076 9.231 0 16.307 7.846 6.693 7.076 6.693 16.307 0 9.23-6.462 15.307L746.691-560.23H213.694Z"/></svg>