<svg xmlns="http://www.w3.org/2000/svg" width="48" height="48" viewBox="0 96 960 960"><path d="M265.001 1008.31V630.999h-96.923q-34.338 0-58.515-24.171-24.177-24.17-24.177-58.499 0-34.945 24.177-58.829 24.177-23.885 58.515-23.885h96.923v-59.23h-96.923q-34.338 0-58.515-24.171-24.177-24.17-24.177-58.499 0-34.945 24.177-58.829 24.177-23.885 58.515-23.885h96.923v-97.308h45.384v97.308h96.922q34.954 0 58.823 23.863t23.869 58.807q0 34.329-23.869 58.522-23.869 24.192-58.823 24.192h-96.922v59.23h96.922q34.954 0 58.823 23.863t23.869 58.807q0 34.33-23.869 58.522t-58.823 24.192h-96.922v377.311h-45.384Zm337.307 0v-45.386h87.307V643.922q-54.846-11.769-91.076-52.461-36.231-40.692-36.231-95.461V143.693h299.998V496q0 53.769-36.23 94.961-36.231 41.192-91.077 52.961v319.002h87.307v45.386H602.308Zm5.383-647.694h209.232v-171.54H607.691v171.54Z"/></svg>