<svg xmlns="http://www.w3.org/2000/svg" width="48" height="48" viewBox="0 -960 960 960"><path d="M480-100q-80 0-149.35-29.16-69.34-29.15-120.84-80.65-51.5-51.5-80.65-120.84Q100-400 100-480q0-79.38 29.16-148.73 29.15-69.35 80.65-120.85 51.5-51.5 120.84-80.96Q400-860 480-860q58.85 0 114.12 17.5 55.26 17.5 103.73 51.12 8.69 5.46 10.61 14.77 1.92 9.3-4.15 17-6.08 7.69-15.39 8.11-9.3.42-17.61-5.42-42.39-28.54-90.96-43.12-48.58-14.57-100.35-14.57-141.54 0-238.08 96.53-96.53 96.54-96.53 238.08 0 141.54 96.53 238.08 96.54 96.53 238.08 96.53 141.54 0 238.08-96.53 96.53-96.54 96.53-238.08 0-19.77-1.69-38.35-1.69-18.57-5.69-36.34-2-9.93 2.46-18.43 4.46-8.49 13.77-9.73 9.92-1.84 18.04 4.31 8.11 6.16 10.11 16.08 4 19.61 6.2 40.23Q860-501.62 860-480q0 80-29.46 149.35-29.46 69.34-80.96 120.84-51.5 51.5-120.85 80.65Q559.38-100 480-100Zm-59-280.15 388.15-388.16q6.7-6.69 16.62-6.88 9.92-.19 17.61 6.88 7.7 7.7 7.7 17.43t-7.7 17.42L441.23-331.69q-8.61 9-20.23 9-11.62 0-20.23-9L285.31-447.77q-6.69-6.69-6.58-16.92.12-10.23 7.19-17.31 7.08-7.08 17.12-7.08 10.04 0 17.11 7.08L421-380.15Z"/></svg>