<svg xmlns="http://www.w3.org/2000/svg" width="48" height="48" viewBox="0 0 48 48"><path d="M21.95 41v-2.25h4.15V41Zm0-31.75V7h4.15v2.25ZM30.35 41v-2.25h4.1V41Zm0-31.75V7h4.1v2.25Zm6.3 15.9H23.1q-.5 0-.825-.325-.325-.325-.325-.825 0-.5.325-.825.325-.325.825-.325h13.55l-3.2-3.25q-.3-.35-.325-.8-.025-.45.275-.8.35-.35.825-.325.475.025.775.325l5 5q.4.4.4 1t-.4 1l-5 5q-.35.35-.8.35-.45 0-.8-.35-.35-.35-.325-.8.025-.45.325-.8ZM9.9 41q-1.2 0-2.05-.85Q7 39.3 7 38.1V9.9q0-1.2.85-2.05Q8.7 7 9.9 7h4.9q1.2 0 2.025.85t.825 2.05v28.2q0 1.2-.825 2.05Q16 41 14.8 41ZM38.75 9.25V7q.9 0 1.575.675Q41 8.35 41 9.25Zm0 31.75v-2.25H41q0 .9-.675 1.575Q39.65 41 38.75 41Z"/></svg>