<svg xmlns="http://www.w3.org/2000/svg" width="48" height="48" viewBox="0 -960 960 960"><path d="M794.817-140.001q-10.703 0-17.76-7.24-7.058-7.24-7.058-17.942 0-10.703 7.24-17.76 7.24-7.058 17.942-7.058t17.76 7.24q7.058 7.24 7.058 17.942t-7.24 17.76q-7.24 7.058-17.942 7.058Zm-157.301 0q-11.093 0-17.959-7.24-6.865-7.24-6.865-17.942 0-10.703 7.041-17.76 7.041-7.058 17.942-7.058t17.959 7.24q7.057 7.24 7.057 17.942t-7.237 17.76q-7.238 7.058-17.938 7.058Zm-157.698 0q-10.702 0-17.76-7.24-7.058-7.24-7.058-17.942 0-10.703 7.24-17.76 7.24-7.058 17.942-7.058t17.76 7.24q7.058 7.24 7.058 17.942t-7.24 17.76q-7.24 7.058-17.942 7.058Zm-157.301 0q-11.093 0-17.958-7.24-6.866-7.24-6.866-17.942 0-10.703 7.041-17.76 7.041-7.058 17.942-7.058t17.959 7.24q7.058 7.24 7.058 17.942t-7.238 17.76q-7.238 7.058-17.938 7.058Zm472.3-629.998q-10.703 0-17.76-7.24-7.058-7.24-7.058-17.942t7.24-17.76q7.24-7.058 17.942-7.058t17.76 7.24q7.058 7.24 7.058 17.942 0 10.703-7.24 17.76-7.24 7.058-17.942 7.058Zm-157.301 0q-11.093 0-17.959-7.24-6.865-7.24-6.865-17.942t7.041-17.76q7.041-7.058 17.942-7.058t17.959 7.24q7.057 7.24 7.057 17.942 0 10.703-7.237 17.76-7.238 7.058-17.938 7.058Zm-157.698 0q-10.702 0-17.76-7.24-7.058-7.24-7.058-17.942t7.24-17.76q7.24-7.058 17.942-7.058t17.76 7.24q7.058 7.24 7.058 17.942 0 10.703-7.24 17.76-7.24 7.058-17.942 7.058Zm-157.301 0q-11.093 0-17.958-7.24-6.866-7.24-6.866-17.942t7.041-17.76q7.041-7.058 17.942-7.058t17.959 7.24q7.058 7.24 7.058 17.942 0 10.703-7.238 17.76-7.238 7.058-17.938 7.058ZM162.498-140.001q-9.728 0-16.112-6.524-6.385-6.524-6.385-16.168v-634.614q0-9.644 6.581-16.168 6.58-6.524 16.307-6.524 9.727 0 16.112 6.524 6.384 6.524 6.384 16.168v634.614q0 9.644-6.58 16.168-6.58 6.524-16.307 6.524Zm325.654-317.307L552.461-392q5.692 6.693 6.192 16t-6.092 15.899q-6.792 6.793-16.1 6.6-9.307-.192-16-6.884l-98.768-99.384q-8.616-8.686-8.616-20.266 0-11.58 8.616-20.196l98.768-99.384q6.693-6.692 16-6.884 9.308-.193 16.1 6.6 6.592 6.592 6.092 15.899-.5 9.307-6.192 16l-64.309 65.308h309.155q9.644 0 16.168 6.58 6.524 6.581 6.524 16.308t-6.524 16.111q-6.524 6.385-16.168 6.385H488.152Z"/></svg>