<svg xmlns="http://www.w3.org/2000/svg" width="48" height="48" viewBox="0 0 48 48"><path d="M8.5 9.25q-.5 0-.825-.325Q7.35 8.6 7.35 8.1q0-.45.325-.775T8.5 7h31q.5 0 .825.325.325.325.325.825 0 .5-.325.8-.325.3-.825.3ZM23 31.8l-5-5q-.35-.35-.35-.8 0-.45.35-.8.35-.35.8-.325.45.025.8.325l3.25 3.2V16q0-.5.325-.825.325-.325.825-.325.5 0 .825.325.325.325.325.825v12.4l3.25-3.2q.35-.3.8-.325.45-.025.8.325.35.35.35.8 0 .45-.35.8l-5 5q-.4.4-1 .4t-1-.4ZM8.5 41q-.5 0-.825-.325-.325-.325-.325-.825 0-.5.325-.8.325-.3.825-.3h31q.5 0 .825.325.325.325.325.825 0 .45-.325.775T39.5 41Z"/></svg>