<svg xmlns="http://www.w3.org/2000/svg" width="48" height="48" viewBox="0 0 48 48"><path d="M21.9 9.25V7h4.15v2.25Zm0 31.75v-2.25h4.15V41ZM13.55 9.25V7h4.1v2.25Zm0 31.75v-2.25h4.1V41ZM13 30l-5-5q-.4-.4-.4-1t.4-1l5-5q.35-.35.8-.35.45 0 .8.35.35.35.325.8-.025.45-.325.8l-3.25 3.25h14.3q.5 0 .825.325.325.325.325.825 0 .5-.325.825-.325.325-.825.325h-14.3l3.2 3.25q.3.35.325.8.025.45-.275.8-.35.35-.825.325Q13.3 30.3 13 30Zm18.45 11q-.45 0-.775-.325t-.325-.825q0-.5.325-.8.325-.3.775-.3h3.05V9.25h-3.05q-.45 0-.775-.325T30.35 8.1q0-.45.325-.775T31.45 7h8.4q.5 0 .825.325.325.325.325.825 0 .5-.325.8-.325.3-.825.3H36.8v29.5h3.05q.5 0 .825.325.325.325.325.825 0 .45-.325.775T39.85 41ZM7 9.25q0-.9.675-1.575Q8.35 7 9.25 7v2.25ZM9.25 41q-.9 0-1.575-.675Q7 39.65 7 38.75h2.25Z"/></svg>