<svg xmlns="http://www.w3.org/2000/svg" width="48" height="48" viewBox="0 0 48 48"><path d="M24 41q-3.45 0-5.9-2.45t-2.45-5.9q0-2.3 1.175-4.275Q18 26.4 20 25.2V11q0-1.7 1.175-2.85Q22.35 7 24 7q1.65 0 2.825 1.15Q28 9.3 28 11v14.2q2 1.2 3.175 3.175 1.175 1.975 1.175 4.275 0 3.45-2.45 5.9T24 41Zm0-2.25q2.55 0 4.325-1.775Q30.1 35.2 30.1 32.65q0-1.75-.825-3.275T26.85 27.05l-1.15-.65V11q0-.75-.5-1.25t-1.2-.5q-.7 0-1.2.5T22.3 11v15.4l-1.15.65q-1.6.8-2.425 2.325Q17.9 30.9 17.9 32.65q0 2.55 1.8 4.325 1.8 1.775 4.3 1.775Zm0-6.1Z"/></svg>