<svg xmlns="http://www.w3.org/2000/svg" width="48" height="48" viewBox="0 96 960 960"><path d="M305.616 915.383q-69.23 0-118.115-48.884-48.884-48.884-48.884-118.115 0-44.538 23.039-84.345 23.038-39.808 64.269-64.269V315.693q0-33 23.346-56.346 23.345-23.346 56.345-23.346t56.153 23.346q23.154 23.346 23.154 56.346V599.77q41.615 24.461 64.461 64.269 22.846 39.807 22.846 84.345 0 68.461-49.076 117.73-49.077 49.269-117.538 49.269ZM184.001 748.384h242.846q0-33.846-19-66.692t-51.769-49.923l-16.539-7.846v-308.23q0-14.769-9.769-24.539-9.769-9.769-24.154-9.769-14.769 0-24.538 9.769-9.77 9.77-9.77 24.539v308.23l-16.153 7.846q-35.385 18.308-53.27 50.538-17.884 32.231-17.884 66.077Zm375.691-127.923q-11.692 0-17.038-7.769t-1.115-19.461L672 258.307q2.846-6.922 10.577-11.614Q690.307 242 698.23 242q7.539 0 14.961 4.693 7.423 4.692 10.269 11.614l130.847 334.539q4.23 11.693-1.116 19.654t-18.038 7.961q-6.461 0-12.73-4.538t-8.885-10.615l-39.077-97.616H620.615l-39.077 97.616q-2.616 6.077-8.692 10.615-6.077 4.538-13.154 4.538Zm74.615-151.307h126.847l-57.847-153.769H691l-56.693 153.769Z"/></svg>