<svg xmlns="http://www.w3.org/2000/svg" width="48" height="48" viewBox="0 -960 960 960"><path d="M842.306-614.306q22.231 0 39.962 17.73 17.731 17.731 17.731 39.962v66.229q0 9.462-2.116 21.462-2.115 11.999-5.961 20.692L780.153-187.924q-8.616 19.846-28.539 33.884-19.923 14.039-41.769 14.039H322.462q-23.846 0-40.769-16.923-16.923-16.924-16.923-40.77v-392.997q0-11 4.5-21.615 4.5-10.616 12.115-18.616l204.308-211.461q10.923-11.307 25.999-13.923 15.077-2.615 28.23 4.692 12.769 7.308 19.154 21.462 6.384 14.153 3.154 30.076l-38 185.77h318.076ZM155.463-140.001q-22.615 0-39.039-16.423-16.423-16.424-16.423-39.039v-363.382q0-22.231 16.423-38.846 16.424-16.615 39.039-16.615h8.462q22.615 0 39.038 16.615t16.423 38.846v363.767q0 22.615-16.423 38.846-16.423 16.231-39.038 16.231h-8.462Z"/></svg>