<svg xmlns="http://www.w3.org/2000/svg" width="48" height="48" viewBox="0 96 960 960"><path d="M67.693 641.384q-23.615 0-40.654-17.039-17.038-17.038-17.038-40.654V325.769q0-8.923 3.846-17.73 3.846-8.808 9.923-14.885l158.692-158.692q7.231-7.231 19.192-8.846 11.961-1.615 21.423 3 8.692 4.231 13.038 13.923t2.731 18.769l-32.154 140.077h205.23q33.308 0 52.231 30.308 18.923 30.307 5.692 61.384l-94.23 220.538q-5.462 12.384-17 20.076-11.538 7.693-24.922 7.693h-266Zm670 383.386q-8.693-4.23-13.423-14.04-4.731-9.81-3.116-20.038l32.154-140.077H547.693q-33.308 0-51.846-30.308-18.538-30.307-5.308-61.384l94.231-220.538q5.077-12.384 16.615-20.076 11.538-7.693 24.922-7.693h266q23.615 0 40.654 17.039 17.038 17.038 17.038 40.654v257.537q0 9.308-3.846 18.115-3.846 8.808-9.538 14.885L777.538 1017.54q-6.846 6.84-18.615 9.15-11.769 2.31-21.23-1.92Z"/></svg>