<svg xmlns="http://www.w3.org/2000/svg" width="48" height="48" viewBox="0 -960 960 960"><path d="M337.69-63.08q-7.21 0-11.18-5.88-3.97-5.89-1.74-12.58L351-156.16h-59.19q-3.6 0-6.12-3.02-2.53-3.03-.53-6.59l37.53-105.38q2.1-6.52 7.46-10.38 5.35-3.86 12.77-3.86h46.77q8.05 0 12.14 6.31t1.48 13.93l-30.92 72.07h62.25q4.59 0 6.28 3.81 1.7 3.81-1.45 7.91l-87.7 113.2q-2.27 2.91-5.29 3.99-3.02 1.09-8.79 1.09ZM587.04-100q-7.35 0-11.31-5.89-3.96-5.88-1.73-12.57l19.38-56.16h-61.51q-3.63 0-6.17-3.03-2.55-3.03-.55-6.58l29.78-86.8q2.15-6.74 8.03-10.55 5.89-3.81 13.35-3.81h46.77q7.92 0 12.07 6.31 4.16 6.31 1.54 13.93l-23.31 53.61h60.29q4.55 0 6.55 3.81 2.01 3.81-1.14 7.93L601-105.08q-.74.73-13.96 5.08ZM292.69-344.62q-83.92 0-143.3-59.38Q90-463.38 90-547.31q0-77.46 54.58-136.57 54.57-59.12 137.04-65.5 30.88-56.03 82.21-88.32Q415.15-870 479.85-870q88.84 0 149.38 57.31 60.54 57.31 72.62 142.31 79 3.61 123.57 51.38Q870-571.23 870-507.19q0 67.19-47.35 114.88-47.36 47.69-115.34 47.69H292.69Z"/></svg>