<svg xmlns="http://www.w3.org/2000/svg" width="48" height="48" viewBox="0 -960 960 960"><path d="M237.69-140q-23.53 0-40.61-17.08T180-197.69v-564.62q0-23.53 17.08-40.61T237.69-820h485q23.53 0 40.61 17.08t17.08 40.61v564.62q0 23.53-17.08 40.61T722.69-140h-485Zm0-45.39h485q5.39 0 8.85-3.46t3.46-8.84v-564.62q0-5.38-3.46-8.84t-8.85-3.46h-485q-5.38 0-9.04 3.46-3.65 3.46-3.65 8.84v564.62q0 5.38 3.65 8.84 3.66 3.46 9.04 3.46Zm220-217.99L392-469.08q-6.69-6.69-15.83-6.88-9.14-.19-16.17 6.88-7.08 6.69-7.08 15.81 0 9.12 7.08 15.81l100.15 100.15q8.69 9 20.27 9t20.2-9L600-436.69q6.69-6.7 6.88-15.97.2-9.27-6.49-15.81-7.62-6.91-16.57-6.91-8.94 0-15.82 7.07l-64.92 64.93v-198.54q0-9.67-6.57-16.18t-16.31-6.51q-9.74 0-16.12 6.51-6.39 6.51-6.39 16.18v198.54Zm265 217.99H225h510-12.31Z"/></svg>