<svg xmlns="http://www.w3.org/2000/svg" width="48" height="48" viewBox="0 -960 960 960"><path d="M394.804-290.231q9.35 0 15.926-6.52 6.577-6.519 6.577-16.172v-255.384q0-9.654-6.711-16.173-6.712-6.519-15.981-6.519h-49.23q-9.654 0-16.173 6.573-6.519 6.574-6.519 16.307 0 9.734 6.519 16.119 6.519 6.384 16.173 6.384h26.539v232.693q0 9.653 6.573 16.172 6.573 6.52 16.307 6.52Zm131.735 0H585q22.779 0 38.312-15.342 15.534-15.341 15.534-38.504v-192.692q0-23.322-15.534-38.776-15.533-15.454-38.312-15.454h-58.461q-23.164 0-38.505 15.454-15.341 15.454-15.341 38.776v192.692q0 23.163 15.341 38.504 15.341 15.342 38.505 15.342Zm0-45.384q-3.847 0-6.155-2.5-2.308-2.5-2.308-5.962v-192.692q0-3.462 2.308-5.962 2.308-2.5 6.155-2.5H585q3.462 0 5.962 2.5 2.5 2.5 2.5 5.962v192.692q0 3.462-2.5 5.962-2.5 2.5-5.962 2.5h-58.461ZM390.385-864.616q-9.654 0-16.173-6.573-6.519-6.574-6.519-16.307 0-9.734 6.519-16.119 6.519-6.384 16.173-6.384h179.23q9.654 0 16.173 6.573 6.519 6.574 6.519 16.307 0 9.734-6.519 16.119-6.519 6.384-16.173 6.384h-179.23ZM480-100.617q-69.973 0-131.909-26.961-61.936-26.962-108.244-73.077-46.307-46.115-73.076-108.243-26.77-62.129-26.77-131.717 0-69.974 26.77-131.91 26.769-61.936 73.076-108.243 46.308-46.308 108.244-73.077T480-780.614q63.923 0 120.692 21.808 56.769 21.807 101.23 61.038l30.385-30q6.692-6.692 16.115-6.884 9.423-.193 16.5 6.884t7.077 16.307q0 9.231-7.077 16.308l-30.385 30.384q36.769 40 61.115 95.654 24.347 55.654 24.347 128.5 0 69.588-26.77 131.717-26.769 62.128-73.076 108.243-46.308 46.115-108.244 73.077Q549.973-100.617 480-100.617Z"/></svg>