<svg xmlns="http://www.w3.org/2000/svg" width="48" height="48" viewBox="0 -960 960 960"><path d="M412.202-367.693h133.183l21 62.693q2.692 7.243 8.558 11.122Q580.808-290 588.019-290q12.981 0 19.557-9.923 6.577-9.923 2.731-21.461l-95.154-271.155q-3.615-8.076-10.634-13.115-7.019-5.038-15.212-5.038h-19.716q-8.745 0-15.514 5.038-6.769 5.039-9.999 13.691l-96.154 271.809q-4.231 10.923 2.653 20.538Q357.462-290 369.154-290q7.554 0 13.7-4.654 6.146-4.654 8.761-11.731l20.587-61.308Zm13.336-39.153 54.077-159.539 53.078 159.539H425.538Zm-35.153-457.77q-9.673 0-16.183-6.56-6.509-6.56-6.509-16.307t6.509-16.132q6.51-6.384 16.183-6.384h179.23q9.673 0 16.183 6.56 6.509 6.56 6.509 16.307T585.798-871q-6.51 6.384-16.183 6.384h-179.23ZM480-100.617q-70.154 0-131.999-26.961-61.846-26.962-108.154-73.077-46.307-46.115-73.076-108.153-26.77-62.038-26.77-131.807 0-70.154 26.77-132 26.769-61.846 73.076-108.153 46.308-46.308 108.154-73.077Q409.846-780.614 480-780.614q63.923 0 120.692 21.808 56.769 21.807 101.23 61.038l30.385-30q6.692-6.692 16.115-6.884 9.423-.193 16.5 6.884t7.077 16.307q0 9.231-7.077 16.308l-30.385 30.384q36.769 40 61.115 95.654 24.347 55.654 24.347 128.5 0 69.769-26.77 131.807-26.769 62.038-73.076 108.153-46.308 46.115-108.154 73.077Q550.154-100.617 480-100.617Z"/></svg>