<svg xmlns="http://www.w3.org/2000/svg" width="48" height="48" viewBox="0 -960 960 960"><path d="M531.85-290.23q18 0 31.69-10.42 13.69-10.43 13.69-28.04v-96.54q0-17.23-13.88-27.65-13.89-10.43-31.5-10.43H428.77v-82.31h125.77q9.67 0 16.18-6.56t6.51-16.3q0-9.75-6.51-16.13-6.51-6.39-16.18-6.39H412.23q-12.36 0-20.6 8.24-8.24 8.24-8.24 20.61v115.38q0 11.98 8.24 20.41 8.24 8.44 20.6 8.44h119.62v82.31H406.08q-9.68 0-16.19 6.55-6.5 6.56-6.5 16.31t6.5 16.13q6.51 6.39 16.19 6.39h125.77ZM390.38-864.62q-9.67 0-16.18-6.56t-6.51-16.3q0-9.75 6.51-16.13 6.51-6.39 16.18-6.39h179.24q9.67 0 16.18 6.56t6.51 16.31q0 9.75-6.51 16.13-6.51 6.38-16.18 6.38H390.38ZM348-127.58q-61.85-26.96-108.15-73.07-46.31-46.12-73.08-108.16-26.77-62.04-26.77-132 0-69.96 26.77-131.8 26.77-61.85 73.08-108.16 46.3-46.31 108.15-73.07 61.85-26.77 132-26.77 63.92 0 120.69 21.8 56.77 21.81 101.23 61.04l30.39-30q6.69-6.69 16.11-6.88 9.42-.19 16.5 6.88 7.08 7.08 7.08 16.31 0 9.23-7.08 16.31l-30.38 30.38q36.77 40 61.11 95.66Q820-513.46 820-440.62q0 69.77-26.77 131.81-26.77 62.04-73.08 108.16-46.3 46.11-108.15 73.07-61.85 26.96-132 26.96t-132-26.96Z"/></svg>