<svg xmlns="http://www.w3.org/2000/svg" width="48" height="48" viewBox="0 -960 960 960"><path d="M360.001-140.001q-9.923 0-16.308-6.385-6.384-6.384-6.384-16.307 0-9.923 6.384-16.308 6.385-6.384 16.308-6.384h239.998q9.923 0 16.308 6.384 6.384 6.385 6.384 16.308t-6.384 16.307q-6.385 6.385-16.308 6.385H360.001ZM362.155-240q-10.615 0-18.731-7.115-8.115-7.116-10.115-18.116l-30.923-221.998q-1-6-1-11.116 0-5.115 2-11.115l66.769-268.306q2-9.616 9.615-15.923 7.616-6.308 18.231-6.308h163.998q10.615 0 18.231 6.308 7.615 6.307 9.615 15.923l66.769 268.306q2 6 2 11.115 0 5.116-1 11.116l-30.923 221.998q-2 11-10.115 18.116Q608.46-240 597.845-240h-235.69Zm14.461-45.384h206.768l27.385-191.923H348.231l28.385 191.923Zm-23.77-237.306h254.308l-57.385-231.924H410.231L352.846-522.69Zm230.538 237.306H376.616h206.768Z"/></svg>