<svg xmlns="http://www.w3.org/2000/svg" width="48" height="48" viewBox="0 -960 960 960"><path d="M351.15-914.38q78.62 0 133.54 55.11 54.93 55.12 54.93 133.35 0 20.77-4.7 40.54-4.69 19.77-13.46 39.15-2.61 5.46-8.77 7.89-6.15 2.42-12.61-.81-6.85-3.62-8.77-10.39-1.92-6.77 1.31-13.23 7.15-15.54 10.53-31.57 3.39-16.04 3.39-31.58 0-65.31-45.04-110.35-45.04-45.04-110.35-45.04-65.3 0-110.34 45.23-45.04 45.24-45.04 110.16 0 16.54 3.58 32.58 3.57 16.03 9.73 30.8 3.61 6.47 1.5 12.93-2.12 6.46-8.58 10.07-6.46 3.23-12.81 1-6.34-2.23-8.96-8.07-8.38-18.39-12.96-38.47-4.58-20.07-4.58-40.84 0-78.23 55.12-133.35 55.11-55.11 133.34-55.11Zm0 82.69q44.47 0 75.12 30.85 30.65 30.84 30.65 74.92 0 8.77-1.5 17.15-1.5 8.39-4.27 16.77-2.61 7.46-8.96 10.89-6.34 3.42-13.19.8-6.85-2.61-9.88-8.96-3.04-6.34-.43-12.8 1.39-3.39 4.16-23.85 0-30.16-21.27-51.42-21.27-21.27-51.43-21.27-30.15 0-51.42 21.27-21.27 21.26-21.27 51.42 0 7.15 1.39 13.73 1.38 6.58 3.77 12.73 2 5.85-.74 11.38-2.73 5.54-8.57 7.54-6.46 2-12-.5t-8.54-9.34q-3.62-9-5.5-17.89-1.88-8.88-1.88-17.65 1-43.46 31.65-74.62 30.65-31.15 74.11-31.15ZM451.92-100q-31.3 0-60.04-12.77-28.73-12.77-47.5-37.31L153.77-397.62q-5.46-7.07-5.46-15.77 0-8.69 6.08-15.15l3.23-2.85q10.53-11.53 25.84-14.26 15.31-2.73 29.46 4.57l115.54 58v-343.46q0-9.92 6.39-16.3 6.38-6.39 16.3-6.39 9.93 0 16.31 6.39 6.39 6.38 6.39 16.3v217.31h297.69q45.38 0 76.92 31.54T780-400.77v158.08q0 59.92-41.58 101.3Q696.84-100 636.92-100h-185Z"/></svg>