<svg xmlns="http://www.w3.org/2000/svg" width="48" height="48" viewBox="0 -960 960 960"><path d="M331.89-129.96q-69.35-29.96-120.66-81.27-51.31-51.31-81.27-120.66Q100-401.23 100-480q0-78.77 29.96-148.11 29.96-69.35 81.27-120.66 51.31-51.31 120.66-81.27Q401.23-860 480-860q9.92 0 16.31 6.39 6.38 6.38 6.38 16.3v301.77q17 7.46 27.15 22.46Q540-498.08 540-480q0 24.54-17.73 42.27Q504.54-420 480-420q-24.54 0-42.27-17.73Q420-455.46 420-480q0-18.08 10.16-32.88 10.15-14.81 27.15-22.66v-117.84q-65.39 8.3-108.66 57.23-43.26 48.92-43.26 116.15 0 72.69 50.96 123.65 50.96 50.96 123.65 50.96t123.65-50.96q50.96-50.96 50.96-123.65 0-32.77-11.26-61.54-11.27-28.77-30.81-51.38-6.46-7.7-6.66-17.23-.19-9.54 6.89-16.62 7.08-7.08 16.5-6.38 9.42.69 15.88 8 25.62 29.69 40.23 66.07Q700-522.69 700-480q0 91.54-64.23 155.77T480-260q-91.54 0-155.77-64.23T260-480q0-86.46 56.73-148.58 56.73-62.11 140.58-70.8V-814q-131.39 8.31-221.66 104.35-90.26 96.03-90.26 229.65 0 139.69 97.46 237.15 97.46 97.46 237.15 97.46t237.15-97.46q97.46-97.46 97.46-237.15 0-65.77-22.76-122.96-22.77-57.19-63.93-101.81-7.07-8.08-8.15-18t6-17q7.08-7.08 17.19-6.38 10.12.69 16.19 8.38 47.23 51.69 74.04 116.89Q860-555.69 860-480q0 78.77-29.96 148.11-29.96 69.35-81.27 120.66-51.31 51.31-120.66 81.27Q558.77-100 480-100q-78.77 0-148.11-29.96Z"/></svg>