<svg xmlns="http://www.w3.org/2000/svg" width="48" height="48" viewBox="0 -960 960 960"><path d="m594.769-226.386-34.124 92.246q-4.261 10.138-13.232 16.753-8.971 6.616-20.106 6.616-18.846 0-29.076-15.347-10.231-15.346-3.462-33.185L635.076-530.85q4.231-10.15 12.654-16.573t19.568-6.423h27.863q11.145 0 19.607 6.154 8.461 6.154 13 16.308L870.921-159.24q7.384 18.161-3.462 33.315-10.846 15.154-29.214 15.154-12.555 0-21.978-7.231-9.423-7.231-13.653-19.077l-29.925-89.307h-177.92Zm20.846-64.615h131.23L682.23-470.769h-2l-64.615 179.768ZM370.001-406.154 210.848-247.001q-10.615 10.615-25.462 10.307-14.846-.307-25.461-10.923-10.615-10.615-10.615-25.769 0-15.154 10.615-25.769l162.153-161.768q-34.923-40.311-61.923-81.271-27-40.959-47.076-85.497h79.307q16.23 31.076 35 58.076 18.769 27 43.23 55.692 41.538-43.923 69.038-90.192 27.5-46.269 46.577-97.422H111.499q-15.674 0-26.278-10.615-10.603-10.616-10.603-26.308 0-15.719 10.615-26.353 10.616-10.633 26.308-10.633h221.537v-36.987q0-15.719 10.615-26.257 10.616-10.539 26.308-10.539 15.701 0 26.322 10.616 10.621 10.615 10.621 26.307v36.923h221.662q15.701 0 26.239 10.616 10.539 10.615 10.539 26.307 0 15.692-10.616 26.308-10.615 10.615-26.307 10.615h-68.345q-20.116 63.615-53.544 125.1Q473.145-514.953 424-459.923l89.923 91.307-27.692 74.846-116.23-112.384Z"/></svg>