<svg xmlns="http://www.w3.org/2000/svg" width="48" height="48" viewBox="0 -960 960 960"><path d="M581.537-720q-14.692 0-25.038-10.346t-10.346-25.038q0-14.692 10.346-25.038 10.346-10.347 25.038-10.347t25.038 10.347q10.346 10.346 10.346 25.038t-10.346 25.038Q596.229-720 581.537-720Zm120 0q-14.692 0-25.038-10.346t-10.346-25.038q0-14.692 10.346-25.038 10.346-10.347 25.038-10.347t25.038 10.347q10.346 10.346 10.346 25.038t-10.346 25.038Q716.229-720 701.537-720Zm-240 0q-14.692 0-25.038-10.346t-10.346-25.038q0-14.692 10.346-25.038 10.346-10.347 25.038-10.347t25.038 10.347q10.346 10.346 10.346 25.038t-10.346 25.038Q476.229-720 461.537-720Zm360 0q-14.692 0-25.038-10.346t-10.346-25.038q0-14.692 10.346-25.038 10.346-10.347 25.038-10.347t25.038 10.347q10.346 10.346 10.346 25.038t-10.346 25.038Q836.229-720 821.537-720Zm-160 120q-14.692 0-25.038-10.346t-10.346-25.038q0-14.692 10.346-25.038 10.346-10.347 25.038-10.347t25.038 10.347q10.346 10.346 10.346 25.038t-10.346 25.038Q676.229-600 661.537-600Zm120 0q-14.692 0-25.038-10.346t-10.346-25.038q0-14.692 10.346-25.038 10.346-10.347 25.038-10.347t25.038 10.347q10.346 10.346 10.346 25.038t-10.346 25.038Q796.229-600 781.537-600Zm-240 0q-14.692 0-25.038-10.346t-10.346-25.038q0-14.692 10.346-25.038 10.346-10.347 25.038-10.347t25.038 10.347q10.346 10.346 10.346 25.038t-10.346 25.038Q556.229-600 541.537-600Zm160 120q-14.692 0-25.038-10.346t-10.346-25.038q0-14.692 10.346-25.038 10.346-10.347 25.038-10.347t25.038 10.347q10.346 10.346 10.346 25.038t-10.346 25.038Q716.229-480 701.537-480Zm-120 0q-14.692 0-25.038-10.346t-10.346-25.038q0-14.692 10.346-25.038 10.346-10.347 25.038-10.347t25.038 10.347q10.346 10.346 10.346 25.038t-10.346 25.038Q596.229-480 581.537-480Zm240 0q-14.692 0-25.038-10.346t-10.346-25.038q0-14.692 10.346-25.038 10.346-10.347 25.038-10.347t25.038 10.347q10.346 10.346 10.346 25.038t-10.346 25.038Q836.229-480 821.537-480Zm-360 0q-14.692 0-25.038-10.346t-10.346-25.038q0-14.692 10.346-25.038 10.346-10.347 25.038-10.347t25.038 10.347q10.346 10.346 10.346 25.038t-10.346 25.038Q476.229-480 461.537-480Zm275.769 337.691q-111.614 0-224.614-57.308-112.999-57.307-203.999-148.115-90.999-90.807-148.307-203.614-57.307-112.807-57.307-224.422 0-18.956 12.637-31.593 12.637-12.638 31.593-12.638h114.229q15.299 0 26.688 9.885T303-783.46l23.923 107.537q2.384 14.769-.692 26.846-3.077 12.077-11.781 20.013l-94.296 92.218q57.539 95.692 127.615 165.077 70.077 69.384 161.539 119.308l90.385-93.769q10-11 22.423-15.308 12.423-4.308 25.807-1.308l97.076 21.385q16.466 3.375 26.502 15.61 10.036 12.236 10.036 29.313v109.998q0 18.956-12.637 31.593-12.638 12.638-31.594 12.638Zm-540.228-435.69 82.538-80.077q1.539-1.539 2.116-4.231.577-2.693.192-5l-21.846-101.154q-.385-3.077-2.5-4.615-2.116-1.539-5.193-1.539h-98.538q-2.308 0-3.846 1.539-1.539 1.538-1.539 3.846-.769 39.385 11.808 86.654t36.808 104.577Zm533.691 390.691q2.307 0 3.846-1.539 1.539-1.538 1.539-3.846v-98.153q0-3.078-1.539-5.193-1.539-2.116-4.616-2.5l-90.691-18.692q-2.308-.385-4.039.192-1.731.577-3.654 2.115l-79.769 83.77q41 20.154 89.769 31.384 48.769 11.231 89.154 12.462Zm-179.308-43.846ZM197.078-577.999Z"/></svg>