<svg xmlns="http://www.w3.org/2000/svg" width="48" height="48" viewBox="0 -960 960 960"><path d="M567.112-170.001q-9.727 0-16.112-6.524-6.384-6.523-6.384-16.168v-266.076q0-2.308-.77-4.616-.769-2.308-2.692-3.846l-245.77-245.77v108.924q0 9.644-6.58 16.168-6.58 6.524-16.307 6.524-9.727 0-16.112-6.524-6.384-6.524-6.384-16.168v-157.076q0-12.26 8.293-20.553 8.293-8.293 20.553-8.293h157.076q9.644 0 16.168 6.58 6.524 6.58 6.524 16.307 0 9.727-6.524 16.112-6.524 6.384-16.168 6.384H326.999l245.77 246.385q7.615 7.616 12.423 18.323 4.807 10.708 4.807 22.523v264.692q0 9.645-6.58 16.168-6.58 6.524-16.307 6.524Z"/></svg>