<svg xmlns="http://www.w3.org/2000/svg" width="48" height="48" viewBox="0 -960 960 960"><path d="m849.153-246.54-34.538-34.154v-481.612q0-5.385-3.462-8.847-3.462-3.462-8.847-3.462H321.078l-45.383-45.384h526.611q23.529 0 40.611 17.082 17.082 17.082 17.082 40.611v482.382q0 9.942-3.27 18.24-3.269 8.298-7.576 15.144Zm-666.92-574.228 46.152 46.153h-70.691q-4.616 0-8.463 3.846-3.846 3.847-3.846 8.463v484.612q0 5.385 3.462 8.847 3.462 3.462 8.847 3.462h515.077L73.848-863.923q-6.692-6.692-6.385-16.115.308-9.423 7.385-16.5 6.692-7.077 15.615-7.077t16 7.077l748.844 747.845q6.693 6.692 6.885 15.807.192 9.116-6.885 16.192-6.692 6.693-16.114 6.693-9.423 0-16.5-6.693L718-220.001H612.691v51.153q0 12.356-8.245 20.601-8.245 8.246-20.601 8.246h-207.69q-12.356 0-20.601-8.246-8.245-8.245-8.245-20.601v-51.153H157.694q-23.529 0-40.611-17.082-17.082-17.082-17.082-40.611v-484.612q0-23.231 17.347-40.846 17.346-17.616 44.192-17.616h20.693Zm255.691 321.921Zm138-20.692Z"/></svg>