<svg xmlns="http://www.w3.org/2000/svg" width="48" height="48" viewBox="0 96 960 960"><path d="M464.769 556.154 533 380.461h4l69 175.693H464.769ZM278.463 825.229q-23.529 0-40.611-17.082-17.081-17.082-17.081-40.611V253.694q0-23.529 17.081-40.611 17.082-17.082 40.611-17.082h513.843q23.528 0 40.61 17.082t17.082 40.611v513.842q0 23.529-17.082 40.611-17.082 17.082-40.61 17.082H278.463Zm0-45.384h513.843q5.385 0 8.846-3.462 3.462-3.462 3.462-8.847V253.694q0-5.385-3.462-8.847-3.461-3.462-8.846-3.462H278.463q-5.385 0-8.847 3.462-3.462 3.462-3.462 8.847v513.842q0 5.385 3.462 8.847 3.462 3.462 8.847 3.462ZM167.694 935.997q-23.528 0-40.61-17.082-17.082-17.081-17.082-40.61V341.77q0-9.663 6.567-16.177 6.566-6.514 16.307-6.514t16.125 6.514q6.385 6.514 6.385 16.177v536.535q0 5.385 3.462 8.847 3.461 3.462 8.846 3.462h536.535q9.663 0 16.177 6.566 6.515 6.567 6.515 16.307 0 9.741-6.515 16.126-6.514 6.384-16.177 6.384H167.694Zm98.46-694.612v538.46-538.46Zm133.538 449.23q4.728 0 9.107-2.806 4.379-2.805 6.047-7.502l37.846-93.538h165l37.462 93.154q1.615 5.231 6.182 7.961 4.567 2.731 10.356 2.731 8.846 0 13.884-7.654 5.039-7.654 1.808-16.115L560.153 355.769q-3.761-7.743-10.034-12.025-6.273-4.282-14.735-4.282-8.461 0-14.927 4.09-6.465 4.089-9.842 11.833l-126.461 312.23q-3.615 8.077 1.532 15.539 5.148 7.461 14.006 7.461Z"/></svg>