<svg xmlns="http://www.w3.org/2000/svg" width="48" height="48" viewBox="0 -960 960 960"><path d="M287.334-304.232q-5.949 0-10.757-2-4.807-2-9.535-6.727L156.001-424q-6.692-6.693-6.884-15.808-.193-9.115 6.884-16.192 7.077-7.076 16-7.076T188-456l76.693 76.693v-217.462q0-92.64 65.321-157.935t158-65.295q92.678 0 157.909 65.295 65.23 65.295 65.23 157.935v434.076q0 9.903-6.398 16.297-6.398 6.395-16.307 6.395-9.909 0-16.294-6.395-6.384-6.394-6.384-16.297v-434.076q0-73.538-52.154-125.692-52.154-52.154-125.693-52.154-73.923 0-125.885 52.154-51.961 52.154-51.961 125.692v217.462L386.77-456q6.692-6.692 15.615-6.884 8.922-.192 15.999 6.884 7.077 7.077 7.077 16t-7.077 16L307.728-312.959q-5.112 4.727-9.971 6.727t-10.423 2Z"/></svg>