<svg xmlns="http://www.w3.org/2000/svg" width="48" height="48" viewBox="0 -960 960 960"><path d="M480-307.385 362.461-189.847q-6.692 6.692-15.807 6.577-9.115-.115-16.192-7.192t-7.077-16.307q0-9.231 7.077-16.308l129.307-129.307q4.616-4.615 9.423-6.808Q474-361.384 480-361.384t10.808 2.192q4.807 2.193 9.423 6.808l129.922 129.923q6.692 6.692 6.885 15.807.192 9.115-6.885 16.192t-16.307 7.077q-9.231 0-16.307-7.077L480-307.385Zm0-345.23 117.539-117.538q6.692-6.692 15.807-6.577 9.115.115 16.192 7.192t7.077 16.307q0 9.231-7.077 16.308L500.231-607.616q-4.616 4.615-9.423 6.808Q486-598.616 480-598.616t-10.808-2.192q-4.807-2.193-9.423-6.808L329.847-737.539q-6.692-6.692-6.577-16.115.115-9.422 7.192-16.499 7.077-7.077 16.307-7.077 9.231 0 16.308 7.077L480-652.615Z"/></svg>