<svg xmlns="http://www.w3.org/2000/svg" width="48" height="48" viewBox="0 -960 960 960"><path d="M480-100.001q-80 0-149.346-29.154-69.345-29.154-120.845-80.654t-80.654-120.845Q100.001-400 100.001-480q0-67.615 20.962-126.846 20.962-59.231 58.885-108.077L66.617-828.539q-6.692-6.307-6.885-15.922-.192-9.615 6.885-16.308 6.692-7.076 16.115-7.076 9.423 0 16.115 7.076l759.615 759.231q6.692 6.692 6.884 16 .193 9.307-6.884 16-7.077 7.076-16.308 7.076-9.23 0-16.307-7.077L714.923-179.848q-48.846 37.923-108.077 58.885Q547.615-100.001 480-100.001Zm312.076-160.847L581.538-471.616l91.769-91.769q7.308-7.692 7.5-17.423.192-9.73-7.5-17.422-7.692-7.077-17.73-6.769-10.038.307-17.115 7.384l-91.769 91.769-285.845-286.23q46.153-32.154 101.537-50.038Q417.77-859.999 480-859.999q79.384 0 148.73 29.462 69.346 29.461 120.846 80.961t80.961 120.846q29.462 69.346 29.462 148.73 0 62.23-17.885 117.615-17.884 55.384-50.038 101.537ZM285.308-447.77l115.461 116.077q8.616 9 20.231 9 11.615 0 20.231-9l61.231-61.231-34.846-34.23L421-380.153 319.538-482q-7.077-6.692-16.807-6.884-9.731-.192-17.423 7.5-7.077 7.077-7.077 16.807 0 9.731 7.077 16.807Z"/></svg>