<svg xmlns="http://www.w3.org/2000/svg" width="48" height="48" viewBox="0 96 960 960"><path d="m505.846 565.462 120.769 119.154q6.692 7.077 6.885 16.5.192 9.423-6.885 16.499-7.076 6.692-15.999 6.692-8.923 0-16-6.692L469.078 593.307q-4.616-4.615-6.616-10.006t-2-10.84v-176q0-9.904 6.398-16.298 6.398-6.394 16.307-6.394 9.91 0 16.294 6.394 6.385 6.394 6.385 16.298v169.001Zm-21.461 350.537q-70.799 0-132.938-26.962-62.138-26.961-108.754-73.076-46.615-46.116-73.576-108.44-26.962-62.324-26.962-133.114 0-70.407 26.962-131.945 26.961-61.538 73.576-107.538 46.616-46 108.754-72.461 62.139-26.462 132.938-26.462 73.845 0 140.345 31.731t116.192 86.961v-81q0-9.519 6.398-16.106 6.398-6.586 16.307-6.586 9.909 0 16.294 6.586 6.384 6.587 6.384 16.106v128.383q0 12.519-8.355 20.682-8.356 8.164-20.491 8.164H628.461q-9.904 0-16.298-6.398-6.394-6.398-6.394-16.308 0-9.909 6.394-16.293 6.394-6.385 16.298-6.385h78.461Q663.307 338 606.307 309.693q-57-28.308-121.922-28.308-122.692 0-209.769 84.346-87.077 84.346-87.077 206.423 0 124.307 86.269 211.384 86.269 87.077 210.577 87.077 112.538 0 192.384-72.884 79.846-72.885 98-182.192 1.231-8.923 7.923-15.115 6.692-6.193 15.933-5.193 10.22.616 15.797 8.116 5.577 7.499 4.346 18.038-18.231 126.922-110.923 210.768-92.692 83.846-223.46 83.846Z"/></svg>