<svg xmlns="http://www.w3.org/2000/svg" width="48" height="48" viewBox="0 -960 960 960"><path d="M428.846-152.31v59.231q0 9.664-6.567 16.178-6.566 6.514-16.307 6.514T389.847-76.9q-6.384-6.514-6.384-16.178v-59.231H372.54q-21.616.769-38.116-12.846t-20.115-35.231L300.463-285q-4.615-26.986 12.759-47.147 17.374-20.16 44.549-20.16h11.692l14-66.232q-12.154 9.077-26.885 13.808Q341.847-400 326.154-400q-92.845 0-157.576-64.961-64.73-64.962-64.73-157.731v-49.999q0-92.769 64.73-157.73 64.731-64.962 157.576-64.962 42.724 0 72.708 30.025t29.984 72.807q0 42.783-29.984 72.667-29.984 29.885-72.708 29.885h-40q-9.307 0-15.999-6.567t-6.692-16.307q0-9.741 6.514-16.125 6.514-6.385 16.177-6.385h40q24.327 0 40.818-16.44 16.491-16.44 16.491-40.693 0-24.252-16.491-40.868-16.491-16.615-40.818-16.615-74.634 0-125.778 51.692-51.145 51.693-51.145 125.616v49.999q0 73.923 51.145 125.616 51.144 51.692 125.778 51.692 24.327 0 40.818-16.44 16.491-16.44 16.491-40.692 0-24.253-16.491-40.868Q350.481-560 326.154-560h-40q-9.307 0-15.999-6.567-6.692-6.566-6.692-16.307t6.514-16.125q6.514-6.385 16.177-6.385h40q42.724 0 72.708 29.984t29.984 72.708v150.385h102.308v-150.385q0-42.724 29.984-72.708t72.708-29.984h40q9.663 0 16.177 6.567 6.514 6.567 6.514 16.307 0 9.741-6.514 16.126Q683.509-560 673.846-560h-40q-24.327 0-40.818 16.44-16.491 16.44-16.491 40.693 0 24.252 16.491 40.868 16.491 16.615 40.818 16.615 74.634 0 125.778-51.692 51.145-51.693 51.145-125.616v-49.999q0-73.923-51.145-125.616-51.144-51.692-125.778-51.692-24.327 0-40.818 16.44-16.491 16.44-16.491 40.693 0 24.252 16.491 40.868 16.491 16.615 40.818 16.615h40q9.663 0 16.177 6.567 6.514 6.566 6.514 16.307t-6.514 16.125q-6.514 6.385-16.177 6.385h-40q-42.724 0-72.708-30.025t-29.984-72.807q0-42.783 29.984-72.667 29.984-29.885 72.708-29.885 92.845 0 157.576 64.962 64.73 64.961 64.73 157.73v49.999q0 92.769-64.73 157.731Q726.691-400 633.846-400q-15.693 0-30.116-4.731t-27.193-13.808v66.232h25.692q27.175 0 44.549 20.16 17.374 20.161 12.759 47.147l-13.846 84.613q-3.615 21.616-20.115 35.231-16.5 13.615-38.116 12.846h-10.923v59.231q0 9.664-6.566 16.178-6.567 6.514-16.307 6.514-9.741 0-16.126-6.514-6.384-6.514-6.384-16.178v-59.231H428.846Zm-83.999-140.382 14.23 84.613q.769 4.231 4.039 7.308 3.269 3.077 7.885 3.077h217.998q4.616 0 7.885-3.077 3.27-3.077 4.039-7.308l14.23-84.613q.769-5.385-2.885-9.808-3.654-4.424-9.423-4.424h-245.69q-5.769 0-9.423 4.424-3.654 4.423-2.885 9.808Zm0 0q-.769-5.385-1.539-9.808l-.769-4.424.769 4.424q.77 4.423 1.539 9.808l14.23 84.613q.769 4.231 1.154 7.308l.385 3.077-.385-3.077q-.385-3.077-1.154-7.308l-14.23-84.613Z"/></svg>