<svg xmlns="http://www.w3.org/2000/svg" width="48" height="48" viewBox="0 -960 960 960"><path d="M428.846-152.31v59.231q0 9.673-6.56 16.183t-16.307 6.51q-9.748 0-16.132-6.51-6.384-6.51-6.384-16.183v-59.231H372.54q-21.616.769-38.116-12.846t-20.115-35.231L300.463-285q-4.615-26.846 12.776-47.076 17.392-20.231 44.532-20.231h25.692v-66.232q-12.154 9.077-26.885 13.808Q341.847-400 326.154-400q-92.845 0-157.576-64.961-64.73-64.962-64.73-157.731v-49.999q0-92.769 64.73-157.73 64.731-64.962 157.576-64.962 42.756 0 72.724 30.002 29.968 30.002 29.968 72.808 0 42.805-29.968 72.689-29.968 29.885-72.724 29.885h-40q-9.307 0-15.999-6.56t-6.692-16.307q0-9.748 6.509-16.132 6.509-6.385 16.182-6.385h40q24.327 0 40.818-16.44 16.491-16.44 16.491-40.693 0-24.252-16.491-40.868-16.491-16.615-40.818-16.615-74.634 0-125.778 51.692-51.145 51.693-51.145 125.616v49.999q0 73.923 51.145 125.616 51.144 51.692 125.778 51.692 24.327 0 40.818-16.44 16.491-16.44 16.491-40.692 0-24.253-16.491-40.868Q350.481-560 326.154-560h-40q-9.307 0-15.999-6.56t-6.692-16.307q0-9.748 6.509-16.132 6.509-6.385 16.182-6.385h40q42.756 0 72.724 29.968 29.968 29.968 29.968 72.724v150.385h102.308v-150.385q0-42.756 29.968-72.724 29.968-29.968 72.724-29.968h40q9.673 0 16.182 6.56 6.509 6.56 6.509 16.308 0 9.747-6.509 16.132Q683.519-560 673.846-560h-40q-24.327 0-40.818 16.44-16.491 16.44-16.491 40.693 0 24.252 16.491 40.868 16.491 16.615 40.818 16.615 74.634 0 125.778-51.692 51.145-51.693 51.145-125.616v-49.999q0-73.923-51.145-125.616-51.144-51.692-125.778-51.692-24.327 0-40.818 16.44-16.491 16.44-16.491 40.693 0 24.252 16.491 40.868 16.491 16.615 40.818 16.615h40q9.673 0 16.182 6.56 6.509 6.56 6.509 16.307 0 9.748-6.509 16.132-6.509 6.385-16.182 6.385h-40q-42.756 0-72.724-30.002-29.968-30.002-29.968-72.808 0-42.805 29.968-72.689 29.968-29.885 72.724-29.885 92.845 0 157.576 64.962 64.73 64.961 64.73 157.73v49.999q0 92.769-64.73 157.731Q726.691-400 633.846-400q-15.693 0-30.116-4.731t-27.193-13.808v66.232h25.692q27.14 0 44.532 20.231 17.391 20.23 12.776 47.076l-13.846 84.613q-3.615 21.616-20.115 35.231-16.5 13.615-38.116 12.846h-10.923v59.231q0 9.673-6.559 16.183-6.56 6.51-16.308 6.51-9.747 0-16.132-6.51-6.384-6.51-6.384-16.183v-59.231H428.846Z"/></svg>