<svg xmlns="http://www.w3.org/2000/svg" width="48" height="48" viewBox="0 -960 960 960"><path d="M480-97.694q-28.154 0-46.23-17.884-18.077-17.885-18.077-46.423 0-20.461 11-37.115 11-16.654 30.615-25.346v-114.462H317.001q-23.615 0-40.654-17.038-17.038-17.038-17.038-40.654v-100.538q-19.231-7.076-30.423-23.23-11.192-16.154-11.192-37.615 0-23.385 13.307-40.5 13.308-17.116 33.616-22.038L100.078-785.076q-6.077-6.077-6.077-15.308 0-9.23 7.077-16.307 6.692-6.692 16.115-6.692 9.423 0 16.5 6.692l689.383 689.383q5.692 6.077 6 15.5.308 9.423-6.385 16.115-7.076 7.076-16.499 7.076-9.423 0-16.115-7.076L546.231-338.924h-43.539v114.462q19.615 8.692 30.615 26.154 11 17.461 11 36.307 0 28.538-18.077 46.423Q508.154-97.694 480-97.694ZM684.922-358l-29.615-29.614v-106.462h-26.615q-6 0-10.308-4.307-4.307-4.308-4.307-10.308v-98.999q0-6 4.307-10.308 4.308-4.307 10.308-4.307h98.999q6 0 10.308 4.307 4.307 4.308 4.307 10.308v98.999q0 6-4.307 10.308-4.308 4.307-10.308 4.307h-27v97.461q0 11.462-4.346 21.423-4.346 9.962-11.423 17.192Zm-367.921-26.306h140.307v-43.155L344.154-541q-3.461 15.231-14 27.039-10.538 11.807-25.461 16.807v100.538q0 4.616 3.846 8.462 3.846 3.847 8.462 3.847ZM502.692-540.23l-45.384-45.384v-137.923h-40.384q-10 0-13.807-8-3.808-8 1.807-15.615L468-832.69q5-6 12.192-5.808 7.193.193 11.808 5.808l63.076 85.537q5.615 7.615 1.807 15.615-3.807 8-13.807 8h-40.384v183.307Z"/></svg>