<svg xmlns="http://www.w3.org/2000/svg" width="48" height="48" viewBox="0 96 960 960"><path d="m438.615 625.924-80.538-80.539q-7.077-7.076-16.615-7.076-9.538 0-16.615 7.076-7.077 7.077-6.885 16.808.193 9.73 6.885 16.422l91.692 91.307q8.615 9 20.346 9 11.73 0 20.73-9l176.538-176.537q6.077-6.077 6.077-15.808 0-9.73-6.077-16.192-6.077-6.076-15.499-5.884-9.423.192-15.5 5.884L438.615 625.924ZM480 952.229q-4 0-7.5-.5t-6.115-1.5q-124.769-40-205.576-156.807-80.808-116.807-80.808-258.499v-185.23q0-18.23 10.616-33.346 10.615-15.115 26.846-21.731l242.306-90.076q10.616-4 20.231-4 9.615 0 20.231 4l242.306 90.076q16.231 6.616 26.846 21.731 10.616 15.116 10.616 33.346v185.23q0 141.692-80.808 258.499Q618.384 910.229 494 950.229q-1.154.385-14 2Z"/></svg>