<svg xmlns="http://www.w3.org/2000/svg" width="48" height="48" viewBox="0 -960 960 960"><path d="M411.252-330.001q9.902 0 16.287-6.399 6.384-6.398 6.384-16.293v-106.231H539.77q9.894 0 16.292-6.404 6.399-6.405 6.399-16.308 0-9.902-6.399-16.287-6.398-6.384-16.292-6.384H433.923v-105.847q0-9.894-6.404-16.292-6.405-6.399-16.308-6.399-9.902 0-16.287 6.399-6.384 6.398-6.384 16.292v105.847H282.309q-9.894 0-16.293 6.405-6.399 6.404-6.399 16.307 0 9.902 6.399 16.287 6.399 6.384 16.293 6.384H388.54v106.231q0 9.895 6.404 16.293 6.405 6.399 16.308 6.399Zm-243.942 150q-23.529 0-40.611-17.082-17.081-17.082-17.081-40.611v-484.612q0-23.529 17.081-40.611 17.082-17.082 40.611-17.082h484.612q23.529 0 40.611 17.082 17.082 17.082 17.082 40.611v208.461l115.152-115.153q7.615-7.615 16.615-3.615 9 4 9 14v277.226q0 10-9 14t-16.615-3.615L709.615-446.539v208.845q0 23.529-17.082 40.611-17.082 17.082-40.611 17.082H167.31Z"/></svg>