<svg xmlns="http://www.w3.org/2000/svg" width="48" height="48" viewBox="0 -960 960 960"><path d="M157.69-260q-23.53 0-40.61-17.08T100-317.82v-324.36q0-23.66 17.08-40.74Q134.16-700 157.69-700h644.62q23.53 0 40.61 17.08T860-642.18v324.36q0 23.66-17.08 40.74Q825.84-260 802.31-260H157.69Zm139.62-197.31v74.77q0 9.9 6.4 16.29 6.41 6.4 16.31 6.4 9.9 0 16.29-6.4 6.38-6.39 6.38-16.29v-74.77h74.77q9.9 0 16.29-6.4 6.4-6.41 6.4-16.31 0-9.9-6.4-16.29-6.39-6.38-16.29-6.38h-74.77v-74.77q0-9.9-6.4-16.29-6.41-6.4-16.31-6.4-9.9 0-16.29 6.4-6.38 6.39-6.38 16.29v74.77h-74.77q-9.9 0-16.29 6.4-6.4 6.41-6.4 16.31 0 9.9 6.4 16.29 6.39 6.38 16.29 6.38h74.77Zm319.5 72.93q11.57-11.53 11.57-27.46 0-15.93-11.53-27.51-11.53-11.57-27.27-11.57-15.73 0-27.5 11.53t-11.77 27.46q0 15.93 11.72 27.51 11.73 11.57 27.46 11.57 15.74 0 27.32-11.53Zm98.07-136.84q11.58-11.54 11.58-27.47 0-15.92-11.53-27.5t-27.27-11.58q-15.74 0-27.51 11.53-11.76 11.53-11.76 27.46 0 15.93 11.72 27.51 11.72 11.58 27.46 11.58t27.31-11.53Z"/></svg>