<svg xmlns="http://www.w3.org/2000/svg" width="48" height="48"><path d="m41.3 31.45-5.75-5.8v5.45l-2.3-2.3V11.9q0-.3-.175-.475t-.425-.175H15.7L13.45 9h19.2q1.2 0 2.05.85.85.85.85 2.05v10.4l5.75-5.75q.35-.35.825-.15.475.2.475.65v13.9q0 .45-.475.65t-.825-.15zM40.1 43.5l-5.3-5.4q-.35.4-.925.65-.575.25-1.225.25H8.4q-1.15 0-2-.85-.85-.85-.85-2.05V11.9q0-.7.25-1.225.25-.525.6-.875L4.3 7.7Q4 7.35 4 6.925q0-.425.35-.775.35-.35.8-.35.45 0 .8.35l35.8 35.8q.3.3.3.75t-.35.8q-.35.35-.8.35-.45 0-.8-.35zM8.4 36.75h24.25q.2 0 .3-.075.1-.075.2-.175L8.05 11.35q-.1.05-.175.225-.075.175-.075.275V36.1q0 .3.175.475t.425.175zm16.2-16.6zm-4.05 3.75z"/></svg>