<svg xmlns="http://www.w3.org/2000/svg" width="48" height="48" viewBox="0 -960 960 960"><path d="M197.694-520.385q-23.529 0-40.611-17.082-17.082-17.082-17.082-40.611v-171.92q0-23.529 17.082-40.61 17.082-17.082 40.611-17.082h564.612q23.529 0 40.611 17.082 17.082 17.081 17.082 40.61v171.92q0 23.529-17.082 40.611-17.082 17.082-40.611 17.082H197.694Zm0 368.075q-23.529 0-40.611-17.082-17.082-17.081-17.082-40.61v-171.92q0-23.529 17.082-40.611 17.082-17.082 40.611-17.082h564.612q23.529 0 40.611 17.082 17.082 17.082 17.082 40.611v171.92q0 23.529-17.082 40.61-17.082 17.082-40.611 17.082H197.694Z"/></svg>