<svg xmlns="http://www.w3.org/2000/svg" width="48" height="48" viewBox="0 -960 960 960"><path d="M312.259-287.77q9.741 0 16.125-6.514 6.385-6.515 6.385-16.178v-339.076q0-9.663-6.567-16.178-6.566-6.514-16.307-6.514t-16.125 6.514q-6.385 6.515-6.385 16.178v339.076q0 9.663 6.567 16.178 6.567 6.514 16.307 6.514Zm167.923-200q9.741 0 16.125-6.514 6.385-6.515 6.385-16.178v-139.076q0-9.663-6.567-16.178-6.567-6.514-16.307-6.514-9.741 0-16.125 6.514-6.385 6.515-6.385 16.178v139.076q0 9.663 6.567 16.178 6.567 6.514 16.307 6.514Zm167.923 120q9.741 0 16.125-6.514 6.385-6.515 6.385-16.178v-259.076q0-9.663-6.567-16.178-6.567-6.514-16.307-6.514-9.741 0-16.125 6.514-6.385 6.515-6.385 16.178v259.076q0 9.663 6.567 16.178 6.566 6.514 16.307 6.514ZM197.694-140.001q-23.529 0-40.611-17.082-17.082-17.082-17.082-40.611v-564.612q0-23.529 17.082-40.611 17.082-17.082 40.611-17.082h564.612q23.529 0 40.611 17.082 17.082 17.082 17.082 40.611v564.612q0 23.529-17.082 40.611-17.082 17.082-40.611 17.082H197.694Zm0-45.384h564.612q4.616 0 8.463-3.846 3.846-3.847 3.846-8.463v-564.612q0-4.616-3.846-8.463-3.847-3.846-8.463-3.846H197.694q-4.616 0-8.463 3.846-3.846 3.847-3.846 8.463v564.612q0 4.616 3.846 8.463 3.847 3.846 8.463 3.846Zm-12.309-589.23v589.23-589.23Z"/></svg>