<svg xmlns="http://www.w3.org/2000/svg" width="48" height="48" viewBox="0 -960 960 960"><path d="M337.462-265.385v-429.23 429.23Zm411.999 45.384q-11.884 0-20.365-8.294-8.481-8.293-8.481-20.553v-462.304q0-12.26 8.481-20.553 8.481-8.294 20.365-8.294h41.691q12.26 0 20.553 8.294 8.294 8.293 8.294 20.553v462.304q0 12.26-8.294 20.553-8.293 8.294-20.553 8.294h-41.691Zm-428.698 0q-12.194 0-20.439-8.294-8.245-8.293-8.245-20.553v-462.304q0-12.26 8.249-20.553 8.249-8.294 20.444-8.294h318.465q12.194 0 20.439 8.294 8.245 8.293 8.245 20.553v462.304q0 12.26-8.249 20.553-8.249 8.294-20.444 8.294H320.763Zm-151.915 0q-12.26 0-20.553-8.294-8.294-8.293-8.294-20.553v-462.304q0-12.26 8.294-20.553 8.293-8.294 20.553-8.294h41.691q11.884 0 20.365 8.294 8.481 8.293 8.481 20.553v462.304q0 12.26-8.481 20.553-8.481 8.294-20.365 8.294h-41.691Zm168.614-474.614v429.23h285.076v-429.23H337.462Z"/></svg>