<svg xmlns="http://www.w3.org/2000/svg" width="48" height="48" viewBox="0 -960 960 960"><path d="M433.846-494.231q-23.528 0-40.61-17.081-17.082-17.082-17.082-40.611v-130.383q0-23.529 17.082-40.611 17.082-17.082 40.61-17.082h328.46q23.529 0 40.611 17.082 17.082 17.082 17.082 40.611v130.383q0 23.529-17.082 40.611-17.082 17.081-40.611 17.081h-328.46Zm235.769 274.23q-23.529 0-40.611-17.082-17.082-17.082-17.082-40.611v-130.768q0-23.231 17.082-40.461 17.082-17.231 40.611-17.231h92.691q23.529 0 40.611 17.231 17.082 17.23 17.082 40.461v130.768q0 23.529-17.082 40.611-17.082 17.082-40.611 17.082h-92.691Zm-235.769 0q-23.528 0-40.61-17.082t-17.082-40.611v-130.768q0-23.231 17.082-40.461 17.082-17.231 40.61-17.231h92.308q23.528 0 40.61 17.231 17.082 17.23 17.082 40.461v130.768q0 23.529-17.082 40.611-17.082 17.082-40.61 17.082h-92.308Zm-236.152 0q-23.529 0-40.611-17.082-17.082-17.082-17.082-40.611v-404.612q0-23.529 17.082-40.611 17.082-17.082 40.611-17.082h92.691q23.529 0 40.611 17.082 17.082 17.082 17.082 40.611v404.612q0 23.529-17.082 40.611-17.082 17.082-40.611 17.082h-92.691Z"/></svg>