<svg xmlns="http://www.w3.org/2000/svg" width="48" height="48" viewBox="0 -960 960 960"><path d="M719.306-610.46q-12.259 0-20.552-8.294-8.294-8.293-8.294-20.552v-111.846q0-12.26 8.294-20.553 8.293-8.294 20.552-8.294h111.846q12.26 0 20.553 8.294 8.294 8.293 8.294 20.553v111.846q0 12.259-8.294 20.552-8.293 8.294-20.553 8.294H719.306Zm0 215.537q-12.259 0-20.552-8.293-8.294-8.294-8.294-20.553v-112.462q0-12.259 8.294-20.553 8.293-8.293 20.552-8.293h111.846q12.26 0 20.553 8.293 8.294 8.294 8.294 20.553v112.462q0 12.259-8.294 20.553-8.293 8.293-20.553 8.293H719.306ZM128.848-180.001q-12.26 0-20.553-8.294-8.294-8.293-8.294-20.553v-542.304q0-12.26 8.294-20.553 8.293-8.294 20.553-8.294h487.383q12.259 0 20.553 8.294 8.293 8.293 8.293 20.553v542.304q0 12.26-8.293 20.553-8.294 8.294-20.553 8.294H128.848Zm590.458 0q-12.259 0-20.552-8.294-8.294-8.293-8.294-20.553v-111.846q0-12.259 8.294-20.552 8.293-8.294 20.552-8.294h111.846q12.26 0 20.553 8.294 8.294 8.293 8.294 20.552v111.846q0 12.26-8.294 20.553-8.293 8.294-20.553 8.294H719.306Z"/></svg>