<svg xmlns="http://www.w3.org/2000/svg" width="48" height="48" viewBox="0 -960 960 960"><path d="M147.539-180.001q-20.23 0-33.576-13.346t-13.346-33.577v-506.152q0-20.231 13.346-33.577 13.346-13.346 33.576-13.346h131.54q20.23 0 33.576 13.346t13.346 33.577v506.152q0 20.231-13.346 33.577-13.346 13.346-33.576 13.346h-131.54Zm270.768 0q-19.846 0-33.384-13.346t-13.538-33.577v-506.152q0-20.231 13.538-33.577 13.538-13.346 33.384-13.346h124.002q19.845 0 33.384 13.346 13.538 13.346 13.538 33.577v506.152q0 20.231-13.538 33.577-13.539 13.346-33.384 13.346H418.307Zm263.229 0q-20.23 0-33.576-13.346t-13.346-33.577v-506.152q0-20.231 13.346-33.577 13.346-13.346 33.576-13.346h131.54q20.231 0 33.577 13.346 13.346 13.346 13.346 33.577v506.152q0 20.231-13.346 33.577-13.346 13.346-33.577 13.346h-131.54Z"/></svg>