<svg xmlns="http://www.w3.org/2000/svg" width="48" height="48" viewBox="0 -960 960 960"><path d="M370.95-216.925q-12.795 0-23.144-7.264-10.349-7.264-14.112-18.582l-91.231-214.537H89.155q-9.644 0-16.168-6.58-6.524-6.581-6.524-16.308t6.524-16.111q6.524-6.385 16.168-6.385h165.692q9.042 0 16.004 4.654 6.963 4.654 10.227 12.962L370.693-274l181.615-442.383q3.841-10.864 13.921-18.163 10.08-7.298 22.848-7.298 12.768 0 23.071 7.298 10.302 7.299 14.158 18.163l92 213.691h153.309q9.644 0 16.167 6.58 6.524 6.581 6.524 16.308t-6.524 16.111q-6.523 6.385-16.167 6.385H705.537q-9.173 0-15.878-4.654-6.704-4.654-9.968-12.962l-90.384-210.23-181.615 442.383q-3.743 11.318-13.845 18.582-10.102 7.264-22.897 7.264Z"/></svg>