<svg xmlns="http://www.w3.org/2000/svg" width="48" height="48" viewBox="0 -960 960 960"><path d="M269.982-537.308q6.864 0 11.71-4.833 4.846-4.834 4.846-11.705v-12.308q0-6.871-4.828-11.705-4.828-4.833-11.692-4.833t-11.71 4.833q-4.846 4.834-4.846 11.705v12.308q0 6.871 4.828 11.705 4.828 4.833 11.692 4.833Zm100 80q6.864 0 11.71-4.833 4.846-4.834 4.846-11.705v-172.308q0-6.871-4.828-11.705-4.828-4.833-11.692-4.833t-11.71 4.833q-4.846 4.834-4.846 11.705v172.308q0 6.871 4.828 11.705 4.828 4.833 11.692 4.833Zm110 80q6.864 0 11.71-4.833 4.846-4.834 4.846-11.705v-332.308q0-6.871-4.828-11.705-4.828-4.833-11.692-4.833t-11.71 4.833q-4.846 4.834-4.846 11.705v332.308q0 6.871 4.828 11.705 4.828 4.833 11.692 4.833Zm110-80q6.864 0 11.71-4.833 4.846-4.834 4.846-11.705v-172.308q0-6.871-4.828-11.705-4.828-4.833-11.692-4.833t-11.71 4.833q-4.846 4.834-4.846 11.705v172.308q0 6.871 4.828 11.705 4.828 4.833 11.692 4.833Zm100-80q6.864 0 11.71-4.833 4.846-4.834 4.846-11.705v-12.308q0-6.871-4.828-11.705-4.828-4.833-11.692-4.833t-11.71 4.833q-4.846 4.834-4.846 11.705v12.308q0 6.871 4.828 11.705 4.828 4.833 11.692 4.833ZM241.539-260.001l-92.461 92.46q-13.615 13.615-31.346 6.368-17.731-7.248-17.731-26.599v-614.534q0-23.529 17.082-40.611 17.082-17.082 40.611-17.082h644.612q23.529 0 40.611 17.082 17.082 17.082 17.082 40.611v484.612q0 23.529-17.082 40.611-17.082 17.082-40.611 17.082H241.539Zm-19.846-45.384h580.613q4.616 0 8.463-3.846 3.846-3.847 3.846-8.463v-484.612q0-4.616-3.846-8.463-3.847-3.846-8.463-3.846H157.694q-4.616 0-8.463 3.846-3.846 3.847-3.846 8.463v577.69l76.308-80.769Zm-76.308 0v-509.23 509.23Z"/></svg>