<svg xmlns="http://www.w3.org/2000/svg" width="48" height="48" viewBox="0 -960 960 960"><path d="M665.614-203.001q-14.307 10.077-29.922 18.538-15.616 8.462-32.538 14.923-8.923 3.846-18.731.192-9.807-3.653-13.653-12.576-3.846-8.308.5-16.615 4.346-8.308 13.653-12.154 15.077-5.231 29.846-13.154T642-243.231L466.461-403.154v139.229q0 15.384-14.461 21.153-14.461 5.769-25-5.154L294.925-380.001H175.31q-12.615 0-20.731-8.116-8.115-8.115-8.115-20.731v-142.304q0-12.616 8.115-20.731 8.116-8.116 20.731-8.116h113.307L90.771-778.229q-6.692-6.692-6.577-16.115.115-9.423 7.192-16.5 7.077-6.692 16.307-6.692 9.231 0 16.308 6.692l687.151 687.151q6.692 6.693 6.692 16.115 0 9.423-6.692 16.5Q804.075-84 794.345-84q-9.731 0-16.808-7.077L665.614-203Zm88.692-87.692-32.23-32.229q23.462-34.77 35.077-74.885 11.616-40.116 11.616-83.193 0-89.538-50.385-162.923Q668-717.307 585.693-750.922q-9.693-4.231-13.539-12.346-3.846-8.116.385-16.423 3.846-9.308 14.038-12.269 10.192-2.961 20.5 1.269 93.307 39.846 150.191 123Q814.152-584.538 814.152-481q0 51.385-15.346 99.615-15.346 48.231-44.5 90.692Zm-122.461-122.46-69.998-69.999v-118.385q0-8.231 7.307-12.154 7.308-3.923 14.539.692 31.076 23 46.922 58.5Q646.461-519 646.461-480q0 17.693-3.654 34.5-3.654 16.808-10.962 32.347ZM466.461-578.537l-86.306-86.692L427-712.074q10.539-10.923 25-5.154t14.461 20.769v117.922Zm-45.383 259.459v-128.46L334-534.615H191.848v109.23H314.77l106.308 106.307Zm-43.539-171.998Z"/></svg>