<svg xmlns="http://www.w3.org/2000/svg" width="48" height="48" viewBox="0 -960 960 960"><path d="m161.002-745.461-74.693-74.693q-6.692-6.692-6.884-16.115-.192-9.423 6.884-16.5 7.077-7.076 16.5-7.076t16.115 7.076L871.23-100.847q6.692 6.692 7.077 16.115.385 9.423-6.692 16.115-7.077 7.462-16.692 7.462t-16.692-7.462L807.462-100H480q-23.615 0-40.654-17.039-17.038-17.038-17.038-40.654v-327.461l-55.923-55.308q-8.001 13.231-12.578 28.385-4.577 15.154-4.577 32.078v174.921q0 15.616-12.5 24.731-12.5 9.115-26.731 3.731-92.076-32-151.037-110.807-58.961-78.807-58.961-178.268 0-50.769 16.154-96.462 16.154-45.692 44.847-83.307ZM652.46-610.77H482.846q-1.539 0-3.077.192-1.539.193-3.077.193L286.54-800.153q-10.616-10.231-8.116-24.154t16.116-18.538q23.923-9.077 49.076-13.115 25.154-4.039 50.692-4.039 99.076 0 177.46 58.769 78.384 58.769 109.384 151.845 5.385 14.23-3.846 26.423-9.231 12.192-24.846 12.192ZM859.999-480v183.999q0 19.615-17.731 26.73-17.731 7.116-31.346-6.5L598.077-488.615q-13.615-13.616-6.5-31.346 7.116-17.731 26.731-17.731h183.998q23.616 0 40.654 17.038 17.039 17.039 17.039 40.654ZM528.616-192.078h186.77l-54.539-54.538-32.924 41.462L581.154-267q-2.385-3.385-6.769-3.385-4.385 0-6.385 3.385l-45.615 63.307q-3 3.615-.692 7.615 2.307 4 6.923 4Z"/></svg>