<svg xmlns="http://www.w3.org/2000/svg" width="48" height="48" viewBox="0 -960 960 960"><path d="M248.848-180.001q-12.356 0-20.601-8.246-8.246-8.245-8.246-20.601v-287.307h-53.305q-10.244 0-13.93-9.308-3.686-9.307 3.93-16.307l304.073-274.074q7.82-7.231 19.333-7.231 11.513 0 19.129 7.231L803.304-521.77q7.616 7 3.93 16.307-3.686 9.308-13.93 9.308h-53.305v287.307q0 12.356-8.246 20.601-8.245 8.246-20.601 8.246H248.848Zm231.271-157.307q26.188 0 44.381-18.277 18.192-18.276 18.192-44.415 0-22.538-9.231-40.423Q524.23-458.307 480-522.23q-45 65.077-53.846 82.192-8.846 17.115-8.846 40.038 0 26.139 18.312 44.415 18.311 18.277 44.499 18.277Z"/></svg>