<svg xmlns="http://www.w3.org/2000/svg" width="48" height="48" viewBox="0 0 48 48"><path d="M13.75 43.1q-1.15 0-2-.85-.85-.85-.85-2V35q0-1.15.85-2.025t2-.875h1.15V21.9h-1.15q-1.15 0-2-.875-.85-.875-.85-2.025v-5.25q0-1.15.85-2 .85-.85 2-.85h7.3V7.75h-1.2q-.5 0-.825-.325Q18.7 7.1 18.7 6.6q0-.45.325-.775t.825-.325h8.3q.5 0 .825.325.325.325.325.825 0 .5-.325.8-.325.3-.825.3h-1.2v3.15h7.3q1.15 0 2 .85.85.85.85 2V19q0 1.15-.85 2.025t-2 .875H33.1v10.2h1.15q1.15 0 2 .875.85.875.85 2.025v5.25q0 1.15-.85 2-.85.85-2 .85Zm0-2.25h20.5q.25 0 .425-.175t.175-.425V35q0-.25-.175-.425t-.425-.175h-3.4V21.9h-2.5q-.45 0-.775-.325t-.325-.825q0-.5.325-.825.325-.325.775-.325h5.9q.25 0 .425-.175T34.85 19v-5.25q0-.25-.175-.425t-.425-.175h-20.5q-.25 0-.425.175t-.175.425V19q0 .25.175.425t.425.175h3.4v12.5h2.5q.45 0 .775.325t.325.825q0 .5-.325.825-.325.325-.775.325h-5.9q-.25 0-.425.175T13.15 35v5.25q0 .25.175.425t.425.175ZM24 27Z"/></svg>