<svg xmlns="http://www.w3.org/2000/svg" width="48" height="48" viewBox="0 -960 960 960"><path d="M319.385-528.384q0 49.923 27.462 89.115 27.461 39.192 70.538 57.038-11.231-11.23-17.538-26Q393.539-423 393.539-439q0-17.011 6.615-32.274 6.616-15.264 18.846-27.11l61-60.769 60.826 60.736q12.404 11.879 19.02 27.143 6.615 15.263 6.615 32.274 0 15.979-6.106 30.729-6.106 14.749-17.355 26.04 43.076-17.846 70.346-57.038 27.269-39.192 27.269-89.115 0-41.307-18.462-76.307-18.461-35-49.769-56.461l-9.23 6.846q-7.616 7-17.498 11.115-9.883 4.115-20.964 4.115-25.231 0-43.154-17.706-17.923-17.705-17.923-42.986v-43.384q-10 7-33.576 24.346-23.577 17.346-48.154 44.423t-43.538 63.86q-18.962 36.783-18.962 82.139ZM480-521.922l-42.077 41.076q-8.615 8.616-13.115 19.423-4.5 10.808-4.5 22.547 0 24.722 17.457 41.453T480-380.692q24.778 0 42.235-16.731t17.457-41.444q0-11.748-4.808-22.863-4.807-11.116-12.807-19.116L480-521.922ZM227.693-90.001q-23.75 0-40.721-16.971-16.971-16.971-16.971-40.721V-720q0-62.154 43.923-106.076Q257.846-869.999 320-869.999h320q62.154 0 106.076 43.923Q789.999-782.154 789.999-720v572.307q0 23.75-16.971 40.721-16.971 16.971-40.721 16.971H227.693Zm125-172.691q36.077 0 56.23-20 20.154-20 71.269-20 51.115 0 72.577 20 21.461 20 54.346 20t55.5-20q22.616-20 82.001-20V-720q0-43.433-30.592-74.024-30.591-30.592-74.024-30.592H320q-43.433 0-74.024 30.592-30.592 30.591-30.592 74.024v417.308q59.001 0 80.404 20 21.404 20 56.905 20Z"/></svg>