<svg xmlns="http://www.w3.org/2000/svg" width="48" height="48" viewBox="0 -960 960 960"><path d="M221.231-352.693q6.231 0 10.847-3.615 4.615-3.615 7.23-8.846l25.154-70.077h124.384L414-365.539q2.231 5.616 7.039 9.231 4.807 3.615 11.423 3.615 9.461 0 14.692-7.346t1.615-16.192L347.615-636.769Q344.769-642.846 339-647t-12.461-4.154q-6.692 0-12.269 4.154t-7.807 10.231L204.924-375.461q-3.231 8.461 1.808 15.615 5.038 7.153 14.499 7.153Zm54.077-112.538 49.462-137.384h3.384l49.462 137.384H275.308Zm53.077 245.23q-107.538 0-183.768-76.231-76.23-76.23-76.23-183.768 0-108.538 76.23-184.268 76.23-75.731 183.768-75.731 84.765 0 152.228 48.539 67.464 48.539 92.79 129.308l-16.154-65.694q-2.019-9.461 3.962-16.385 5.98-6.923 14.932-6.923 7.317 0 11.74 3.308t6.039 10.539l50.384 218.538h2l58.462-219.154q2-6.231 7.115-9.731 5.116-3.5 10.731-3.5 6.615 0 11.423 3.5t6.808 9.731l58.461 219.154h.385l51-218.538q2-6.616 6.615-10.231 4.615-3.616 10.846-3.616 9.231 0 14.346 6.923 5.116 6.924 3.116 16.154l-61 257.077q-1.616 7.846-8.347 13.077-6.73 5.23-15.576 5.23-7.462 0-14.192-5.23-6.731-5.231-9.347-13.077l-54.153-202.231h-3.231l-54.923 202.616q-1.616 7.461-7.962 12.692-6.346 5.23-14.807 5.23-7.462 0-14-5.23-6.539-5.231-8.894-12.692l-32.491-136.463q11.616 114.769-64.871 200.923-76.488 86.154-193.435 86.154Z"/></svg>