<svg xmlns="http://www.w3.org/2000/svg" width="48" height="48" viewBox="0 -960 960 960"><path d="M260.08-734q-28.695 0-48.772-20.189-20.077-20.19-20.077-48.5 0-28.695 19.997-48.772 19.997-20.077 48.692-20.077t48.772 19.997q20.077 19.997 20.077 48.692 0 28.311-19.997 48.58T260.08-734Zm-63.157 615.153v-242.692h-46.538q-12.27 0-20.558-8.288t-8.288-20.558v-218.384q0-23.5 17.096-40.596 17.096-17.096 40.596-17.096h161.538q23.5 0 40.596 17.096 17.096 17.096 17.096 40.596v122.615q-47.538 31.847-79.268 87.5-31.731 55.654-31.731 121.5 0 39.231 10.423 71.961 10.423 32.731 22.884 54.193v61h-95q-12.269 0-20.558-8.29-8.288-8.288-8.288-20.557Zm343.846 29.616q-77.878 0-132.9-54.885Q352.847-199 352.847-277.154q0-55 32.884-106.076 32.884-51.077 96.191-71V-404q-39.846 17.077-61.769 52.725-21.923 35.649-21.923 74.435 0 59.613 41.398 100.919 41.397 41.306 101.141 41.306 59.231 0 101.27-44.307 42.038-44.308 36.423-109.923h45.384q6.461 79.999-48.326 139.806-54.788 59.808-134.751 59.808Zm298.539-111-88.615-131.692q-1.923-2.693-4.424-4.039-2.5-1.346-5.577-1.346H587.693q-23.5 0-40.596-17.096Q530.001-371.5 530.001-395v-205q0-9.654 6.573-16.173 6.574-6.519 16.307-6.519 9.734 0 16.119 6.519 6.384 6.519 6.384 16.173v205q0 5.385 3.462 8.846 3.462 3.462 8.847 3.462h154.614q14.128 0 26.958 6.981 12.83 6.981 21.119 18.865l87 131.307q5.077 8.693 3.59 17.751-1.488 9.059-9.667 14.633-8.307 5.077-17.656 3.235-9.349-1.842-14.343-10.311Z"/></svg>