<svg xmlns="http://www.w3.org/2000/svg" width="48" height="48" viewBox="0 -960 960 960"><path d="M669.228-148.464q-16.152 0-27.267-10.964-11.116-10.965-11.116-27.174v-112.966q0-16.004 11.058-27.026 11.058-11.023 27.404-11.023h2.538v-39.384q0-31.902 22.586-54.451 22.585-22.549 54.346-22.549 31.76 0 54.222 22.549 22.461 22.549 22.461 54.451v39.384h2.539q16.403 0 27.048 10.968 10.644 10.967 10.644 27.181v112.996q0 16.008-11.052 27.008-11.051 11-27.389 11H669.228Zm38.002-189.153h82.846v-39.384q0-18.231-11.5-29.923-11.5-11.693-29.923-11.693t-29.923 11.693q-11.5 11.692-11.5 29.923v39.384ZM479.936-779.999q110.833 0 212.024 36 101.192 36 188.056 102.211 11.028 7.951 16.936 19.179 5.908 11.227 6.63 23.257.954 11.932-3.661 23.95-4.615 12.017-14.615 21.633l-39.145 39.902q-6.239 6.097-15.662 6.289-9.423.192-15.499-6.269-6.462-6.231-6.462-15.577T815-544.846l38.922-39.923q4.231-3.846 3.654-9.808t-5.577-9.424q-82.769-61.461-175.846-96.037Q583.076-734.615 480-734.615t-196.153 34.577q-93.077 34.576-175.846 96.037-5 3.462-5.769 9.232-.769 5.769 3.846 10l365.075 365.46q3.462 3.462 8.847 3.462t8.847-3.462l39.384-39.769q6.077-5.692 15.571-5.885 9.494-.192 15.692 6.006t6.198 15.5q0 9.301-6.077 15.378l-39.154 39.154q-9 9-19.519 12.615-10.519 3.616-21.038 3.616t-20.942-3.712q-10.423-3.711-19.039-12.519L75.694-553.154q-9.495-9.135-14.17-21.632-4.676-12.497-3.868-24.755.566-12.055 6.261-23.295 5.695-11.241 15.931-19.856 87-65.923 188.128-101.615 101.127-35.692 211.96-35.692ZM480-474.462Z"/></svg>