<svg xmlns="http://www.w3.org/2000/svg" width="48" height="48" viewBox="0 -960 960 960"><path d="M480-380.001q-24.538 0-42.268-17.731-17.731-17.73-17.731-42.268t17.731-42.268q17.73-17.731 42.268-17.731t42.268 17.731q17.731 17.73 17.731 42.268t-17.731 42.268q-17.73 17.731-42.268 17.731Zm-164.768 86.154q-25.615-29.307-40.423-66.384-14.808-37.077-14.808-79.769 0-91.538 64.231-155.768 64.23-64.231 155.768-64.231t155.768 64.231q64.231 64.23 64.231 155.768 0 42.692-14.808 79.577-14.808 36.884-40.423 66.576-6.077 6.692-15.959 6.692-9.883 0-16.683-6.756-6.05-6.013-6.05-15.128t6.462-17.038q20.154-23 31.115-52.008 10.962-29.008 10.962-61.915 0-72.779-50.9-123.697-50.9-50.918-123.654-50.918-72.753 0-123.715 50.918Q305.385-512.779 305.385-440q0 32.769 10.962 61.846 10.961 29.077 31.115 52.077 6.462 7.923 6.654 16.846.192 8.923-6.885 16-7.128 7.076-16.525 6.769-9.397-.308-15.474-7.385Zm-113 113q-47.671-51.857-74.951-117.659-27.28-65.802-27.28-141.494 0-78.769 29.962-148.115 29.961-69.346 81.269-120.653 51.307-51.308 120.653-81.269Q401.231-819.999 480-819.999t148.115 29.962q69.346 29.961 120.653 81.269 51.308 51.307 81.269 120.653Q859.999-518.769 859.999-440q0 75.692-27.28 141.493t-74.951 117.66q-6.077 6.692-16 6.692t-16.615-6.692q-6.077-6.077-5.884-15.692.192-9.615 6.269-16.922 42.154-44.616 65.615-102.193Q814.615-373.231 814.615-440q0-139.745-97.424-237.18t-237.154-97.435q-139.729 0-237.191 97.435-97.461 97.435-97.461 237.18 0 66.871 23.654 124.397 23.654 57.526 65.808 102.142 5.692 7.792 6.077 16.972.384 9.181-6.665 16.291-6.665 6.659-16.307 6.351-9.643-.308-15.72-7Z"/></svg>