<svg xmlns="http://www.w3.org/2000/svg" width="48" height="48" viewBox="0 0 48 48"><path d="M23 39.55 2.55 19.15q-.45-.5-.425-1.15.025-.65.525-1 4.55-3.85 9.975-5.925Q18.05 9 24 9q5.9 0 11.375 2.075T45.4 17q.5.35.5 1.025 0 .675-.45 1.125l-4 3.95q-.9-.25-1.8-.375T37.8 22.6q-4.3.15-7.35 3.2-3.05 3.05-3.2 7.35 0 .95.125 1.825t.375 1.825L25 39.55q-.4.45-1 .45t-1-.45Zm14-4.95h-4.85q-.5 0-.825-.325Q31 33.95 31 33.45q0-.45.325-.775t.825-.325H37V27.5q0-.5.325-.825.325-.325.825-.325.5 0 .8.325.3.325.3.825v4.85h4.9q.45 0 .775.325t.325.825q0 .5-.325.8-.325.3-.775.3h-4.9v4.9q0 .45-.325.775t-.825.325q-.45 0-.775-.325T37 39.5Z"/></svg>