<svg xmlns="http://www.w3.org/2000/svg" width="48" height="48" viewBox="0 96 960 960"><path d="M155.846 925.999q-10.538 0-16.615-7.192-6.076-7.192-4.461-17.115 29.539-220.23 80.115-347.961Q265.462 426.001 320 426.001q46.461 0 86.923 100.616t62.385 217.232q23-234.617 70.077-376.233Q586.461 226.001 640 226.001q63.154 0 114.538 178.961 51.384 178.961 72.846 494.345.615 10.923-6.769 18.808-7.385 7.884-18.308 7.884-8.692 0-16.884-5.461-8.192-5.462-11.423-14.154-33.769-97.999-71.576-161.692-37.808-63.692-62.424-66-23.616 1.923-56.847 61.154t-68.846 163.538q-3.846 9.077-12.923 15.846T482 925.999q-11.307 0-19.884-7.769t-10.192-18.692q-26.155-176.848-65.847-292.54Q346.384 491.306 320 470.615q-29.615 14.384-70.923 120.922-41.308 106.538-70.308 314.386-1.231 7.923-7.615 13.999-6.385 6.077-15.308 6.077Zm354.999-141.227q30.154-75.616 64.231-113.54 34.078-37.924 64.924-37.924 30.231 0 66.539 37.924t66.462 113.54q-19.154-231.234-58.308-358.234Q675.539 299.537 640 270.384q-35.539 29.153-71.962 156.307-36.423 127.155-57.193 358.081Z"/></svg>