<svg xmlns="http://www.w3.org/2000/svg" width="48" height="48" viewBox="0 -960 960 960"><path d="M214.847-377.23q-9.923-9.538-10.423-23.422-.5-13.885 10.039-23.192 58.384-52.308 124.307-78.846 65.923-26.539 141.23-26.539 75.307 0 141.23 26.539 65.923 26.538 124.307 78.846 10.154 8.923 10.154 22.499 0 13.577-10.538 24.115-9.923 9.923-23.307 9.923-13.385 0-23.153-9.308-51.693-44.23-106.347-64.769Q537.693-461.922 480-461.922q-57.693 0-112.346 20.538Q313-420.845 261.307-376.615q-10.153 8.923-23.345 9.116-13.192.192-23.115-9.731ZM45.462-546.615q-9.922-9.538-10.23-23.922-.308-14.384 10.23-23.307 87.154-80.077 198-127.731Q354.308-769.229 480-769.229q125.692 0 236.538 47.654 110.846 47.654 197.999 127.731 10.539 8.923 10.539 22.999 0 14.077-10.539 24.23-9.922 9.923-23.614 9.731-13.692-.192-23.846-9.115-81.846-72.539-179.192-114.231Q590.539-701.922 480-701.922q-110.539 0-207.885 41.692-97.346 41.692-179.192 114.231-10.154 8.923-23.846 9.115-13.692.192-23.614-9.731ZM480-132q-30.615 0-53.192-22.577-22.576-22.577-22.576-53.192t22.576-53.191q22.577-22.577 53.192-22.577t53.192 22.577q22.576 22.576 22.576 53.191 0 30.615-22.576 53.192Q510.615-132 480-132Z"/></svg>