<svg xmlns="http://www.w3.org/2000/svg" width="48" height="48" viewBox="0 -960 960 960"><path d="M441.155-60.002q0-19.614 15.745-32.499 15.745-12.884 40.408-12.884v-247.154q5.462 1.231 11.02 2.154 5.558.923 11.672.923 35.461 0 60.692-23.115 25.23-23.115 28.307-57.807v-5.538l128 31.385q12.154 3.23 21.884 10.345 9.731 7.116 15.423 17.654l91 164.384q11.923 21.231 8.743 44.617-3.179 23.386-20.666 40.536-20.846 20.845-50.076 20.653-29.23-.192-50.46-21.038L551.154-330.079q-1.923 1.154-4.039 1.731-2.115.577-4.423 1.346v221.617q25 0 40.577 13.01 15.576 13.008 15.576 32.373h-157.69Zm-278.462-87.307q-9.644 0-16.168-6.58-6.524-6.58-6.524-16.307 0-9.728 6.524-16.112 6.524-6.385 16.168-6.385h134.615q9.644 0 16.168 6.581 6.524 6.58 6.524 16.307 0 9.727-6.524 16.112-6.524 6.384-16.168 6.384H162.693Zm135.231-161.923-180-51q-22.846-6.462-37.115-25.543Q66.54-404.856 66.54-429q0-29.922 20.538-50.461 20.538-20.538 50.461-20.538H456q-12.461 11.308-19.5 26.432-7.038 15.123-7.038 33.567 0 17.23 6.115 31.807 6.116 14.577 17.115 25.884l-106.923 67.385q-10.154 6.076-22.423 7.807-12.268 1.731-25.422-2.115Zm222.171-67.307q-26.402 0-44.979-18.482-18.577-18.481-18.577-44.884 0-26.402 18.482-44.979 18.481-18.577 44.884-18.577 26.402 0 44.979 18.482 18.577 18.481 18.577 44.884 0 26.402-18.482 44.979-18.482 18.577-44.884 18.577Zm72.288-111.846q-10.231-18.923-29.346-30.538-19.115-11.615-43.1-11.615-8.244 0-15.552 1.231-7.307 1.231-14.384 4.077v-151.077q0-12.384 4.769-23.73t14.076-19.653l137-128q17.945-17.467 41.741-19.849 23.797-2.382 44.082 10.118 24.966 15.624 32.378 44.138 7.412 28.514-7.972 53.591L592.383-488.385ZM82.693-607.307q-9.644 0-16.168-6.581-6.524-6.58-6.524-16.307 0-9.727 6.524-16.112 6.524-6.384 16.168-6.384h134.615q9.644 0 16.168 6.58 6.524 6.58 6.524 16.307 0 9.728-6.524 16.112-6.524 6.385-16.168 6.385H82.693Zm120-160q-9.644 0-16.168-6.581-6.524-6.58-6.524-16.307 0-9.727 6.524-16.112 6.524-6.384 16.168-6.384h174.615q9.644 0 16.168 6.58 6.524 6.58 6.524 16.307 0 9.728-6.524 16.112-6.524 6.385-16.168 6.385H202.693Z"/></svg>