<svg xmlns="http://www.w3.org/2000/svg" width="48" height="48" viewBox="0 -960 960 960"><path d="M385.39-700h189.22v-82.3q0-5.39-3.46-8.85t-8.84-3.46H397.69q-5.38 0-8.84 3.46t-3.46 8.85v82.3ZM596.5-116.5q-51.42-51.42-51.42-123.5t51.42-123.5q51.42-51.42 123.5-51.42t123.5 51.42q51.42 51.42 51.42 123.5T843.5-116.5Q792.08-65.08 720-65.08T596.5-116.5ZM157.69-140q-23.61 0-40.65-17.04T100-197.69v-444.62q0-23.61 17.04-40.65T157.69-700H340v-82.3q0-23 17.04-40.35T397.69-840h164.62q23.61 0 40.65 17.35T620-782.3v82.3h182.31q23.61 0 40.65 17.04T860-642.31V-473q0 13.23-10.92 19.23-10.93 6-22.54.16-24.77-13.16-51.85-19.93-27.08-6.77-54.69-6.77-99 0-169.65 70.66Q479.69-339 479.69-240q0 18.61 2.35 34.88 2.35 16.27 8.42 32.04 3.46 12.62-3.54 22.85-7 10.23-19.84 10.23H157.69Zm548.46-46.08-62.38-62.38q-4.62-4.23-9.62-4.42-5-.2-9.61 4.42-4.62 4.61-4.62 9.92t4.62 9.92l75.23 75.85q8.61 8.62 20.23 8.62 11.62 0 20.23-8.62l75.85-75.85q4.23-4.23 4.42-9.73.19-5.5-4.42-10.11-4.62-4.62-9.93-4.62-5.3 0-9.92 4.62l-62 62.38v-147.53q0-5.62-4.31-9.74-4.3-4.11-9.92-4.11t-9.73 4.11q-4.12 4.12-4.12 9.74v147.53Z"/></svg>