<svg xmlns="http://www.w3.org/2000/svg" width="48" height="48" viewBox="0 -960 960 960"><path d="M197.694-140.001q-23.5 0-40.596-17.097-17.097-17.096-17.097-40.596v-564.612q0-23.5 17.097-40.596 17.096-17.097 40.596-17.097h564.612q23.5 0 40.596 17.097 17.097 17.096 17.097 40.596v564.612q0 23.5-17.097 40.596-17.096 17.097-40.596 17.097H197.694Zm0-45.384h564.612q5.385 0 8.847-3.462 3.462-3.462 3.462-8.847v-496.921h-589.23v496.921q0 5.385 3.462 8.847 3.462 3.462 8.847 3.462Zm104.998-311.923q-9.644 0-16.168-6.58Q280-510.469 280-520.196t6.524-16.111q6.524-6.385 16.168-6.385h347.309q9.644 0 16.168 6.58 6.524 6.581 6.524 16.308t-6.524 16.111q-6.524 6.385-16.168 6.385H302.692Zm0 160q-9.644 0-16.168-6.58Q280-350.469 280-360.196t6.524-16.111q6.524-6.385 16.168-6.385h187.309q9.644 0 16.168 6.58 6.524 6.581 6.524 16.308t-6.524 16.111q-6.524 6.385-16.168 6.385H302.692Z"/></svg>