<svg xmlns="http://www.w3.org/2000/svg" width="48" height="48" viewBox="0 96 960 960"><path d="M480 870.615q80.539 0 143.192-54.961 62.653-54.962 75.73-133.731 1.846-13.923-7.231-22.999-9.076-9.077-22.999-7.231-78.769 13.077-133.731 75.73Q480 790.076 480 870.615Zm0 0q0-80.539-54.961-143.192-54.962-62.653-133.346-75.73-14.308-1.846-23.384 7.231-9.077 9.076-7.231 22.999 13.077 78.769 75.73 133.731Q399.461 870.615 480 870.615Zm0-218.077q25.461 0 41-15.731 15.538-15.73 15.538-41.192v-6.461Q543.769 595 553 597.192q9.23 2.193 18.23 2.193 25.462 0 41.385-15.923 15.923-15.923 15.923-41.552 0-18.679-8.616-31.294-8.615-12.616-22.846-22.077 14.21-6 22.836-20.538 8.626-14.539 8.626-33.385 0-25.461-15.923-41.384-15.923-15.923-41.385-15.923-9 0-18.23 2.192-9.231 2.192-16.462 8.423v-7.615q0-25.462-15.538-41-15.539-15.539-41-15.539t-41 15.539q-15.538 15.538-15.538 41v7.615q-7.231-6.231-16.462-8.423-9.23-2.192-18.23-2.192-25.462 0-41.385 15.923-15.923 15.923-15.923 41.551 0 18.679 8.308 31.602 8.308 12.923 23.154 22.346-14.846 6.423-23.154 20.462-8.308 14.038-8.308 32.884 0 25.462 15.923 41.385 15.923 15.923 41.385 15.923 9 0 18.538-2.193 9.538-2.192 16.154-8.038v6.461q0 25.462 15.538 41.192 15.539 15.731 41 15.731Zm0-82.153q-34.687 0-58.459-23.892-23.772-23.892-23.772-57.963 0-34.53 23.772-58.376 23.772-23.846 58.459-23.846 34.687 0 58.459 23.755 23.772 23.756 23.772 58.42 0 34.21-23.772 58.056-23.772 23.846-58.459 23.846ZM157.694 955.999q-23.529 0-40.611-17.082-17.082-17.082-17.082-40.611V253.694q0-23.529 17.082-40.611 17.082-17.082 40.611-17.082h644.612q23.529 0 40.611 17.082 17.082 17.082 17.082 40.611v644.612q0 23.529-17.082 40.611-17.082 17.082-40.611 17.082H157.694Zm0-45.384h644.612q5.385 0 8.847-3.462 3.462-3.462 3.462-8.847V253.694q0-5.385-3.462-8.847-3.462-3.462-8.847-3.462H157.694q-5.385 0-8.847 3.462-3.462 3.462-3.462 8.847v644.612q0 5.385 3.462 8.847 3.462 3.462 8.847 3.462Zm-12.309 0v-669.23 669.23Z"/></svg>