<svg xmlns="http://www.w3.org/2000/svg" width="48" height="48" viewBox="0 -960 960 960"><path d="M436.539-342.078q-45.615 0-84.884-14.807-39.269-14.808-70.807-41.192-7.693-7.077-8-17.115-.308-10.038 6.384-16.73 6.692-6.693 16.307-6.077 9.616.615 16.308 7.077 25.615 20.307 56.807 31.884 31.192 11.577 66.885 11.577 82.154 0 138.961-57.116 56.808-57.115 56.808-139.269 0-81.769-56.808-138.885-56.807-57.115-138.961-57.115-83.154 0-140.654 57.885-57.5 57.884-56.346 140.423l48.923-50.308q6.692-7.077 15.615-7.577t16 6.577q7.077 7.076 7.077 16.499 0 9.423-7.077 16.115l-80.153 81.153q-8.616 8.616-20.039 8.616-11.423 0-20.423-8.616l-80.768-81.153q-6.693-6.692-6.385-16.307.308-9.615 7-15.923 7.077-7.077 16.692-7.077t15.923 7.077l42.846 44.232q2.077-99.154 71.615-168.077 69.539-68.923 170.154-68.923t170.883 70.577q70.269 70.577 70.269 170.807 0 42.231-14.577 82.038-14.577 39.808-41.038 72.115L842.23-209.769q6.692 6.692 6.884 16.615.193 9.923-6.884 16.615-7.077 7.076-16.807 7.076-9.731 0-16.423-7.076L588.077-397.078q-29.616 26-69.423 40.5-39.808 14.5-82.115 14.5Z"/></svg>