<svg xmlns="http://www.w3.org/2000/svg" width="48" height="48" viewBox="0 -960 960 960"><path d="M162.498-607.307q-9.728 0-16.112-6.524-6.385-6.524-6.385-16.168v-161.153q0-12.26 8.294-20.553 8.293-8.294 20.553-8.294h161.153q9.644 0 16.168 6.581 6.524 6.58 6.524 16.307 0 9.727-6.524 16.112-6.524 6.384-16.168 6.384H218l135.231 135.231q6.077 5.916 6.385 15.227.307 9.311-6.853 16.472-6.993 6.993-16.224 6.993-9.23 0-16.307-7.077L185.385-742v112.001q0 9.644-6.58 16.168-6.58 6.524-16.307 6.524Zm445.355-.562q-7.161-6.977-7.161-16.207 0-9.231 7.077-16.308L742-774.615H629.999q-9.644 0-16.168-6.58-6.524-6.58-6.524-16.307 0-9.728 6.524-16.112 6.524-6.385 16.168-6.385h161.153q12.26 0 20.553 8.294 8.294 8.293 8.294 20.553v161.153q0 9.644-6.581 16.168-6.58 6.524-16.307 6.524-9.727 0-16.112-6.524-6.384-6.524-6.384-16.168V-742L639.384-606.769q-6.358 6.077-15.448 5.885-9.09-.193-16.083-6.985Zm22.146 467.868q-9.644 0-16.168-6.581-6.524-6.58-6.524-16.307 0-9.727 6.524-16.112 6.524-6.384 16.168-6.384H742L606.769-320.616q-6.077-5.916-5.885-15.335.193-9.419 7.377-17.012 6.585-6.96 15.815-6.96 9.231 0 16.308 7.077L774.615-218v-112.001q0-9.644 6.58-16.168 6.58-6.524 16.307-6.524 9.728 0 16.112 6.524 6.385 6.524 6.385 16.168v161.153q0 12.26-8.294 20.553-8.293 8.294-20.553 8.294H629.999Zm-461.151 0q-12.26 0-20.553-8.294-8.294-8.293-8.294-20.553v-161.153q0-9.644 6.581-16.168 6.58-6.524 16.307-6.524 9.727 0 16.112 6.524 6.384 6.524 6.384 16.168V-218l135.847-135.846q5.916-6.077 15.727-6.385 9.811-.308 16.586 6.853 6.994 6.608 6.994 16.031 0 9.423-7.077 16.5L218-185.385h112.001q9.644 0 16.168 6.58 6.524 6.58 6.524 16.307 0 9.728-6.524 16.112-6.524 6.385-16.168 6.385H168.848Z"/></svg>