<svg xmlns="http://www.w3.org/2000/svg" width="48" height="48" viewBox="0 -960 960 960"><path d="M307.309-274.694 172.462-139.848q-6.692 6.693-15.807 6.577-9.115-.115-16.192-7.192t-7.077-16.307q0-9.231 7.077-16.308l134.231-134.231H162.693q-9.644 0-16.168-6.58-6.524-6.58-6.524-16.307 0-9.728 6.524-16.112 6.524-6.385 16.168-6.385h161.153q12.26 0 20.553 8.294 8.294 8.293 8.294 20.553v161.153q0 9.644-6.581 16.168-6.58 6.524-16.307 6.524-9.727 0-16.112-6.524-6.384-6.524-6.384-16.168v-112.001Zm345.382 0v112.001q0 9.644-6.58 16.168-6.58 6.524-16.307 6.524-9.728 0-16.112-6.524-6.385-6.524-6.385-16.168v-161.153q0-12.26 8.294-20.553 8.293-8.294 20.553-8.294h161.153q9.644 0 16.168 6.581 6.524 6.58 6.524 16.307 0 9.727-6.524 16.112-6.524 6.384-16.168 6.384H685.306l134.846 134.847q6.693 6.692 6.885 15.807.192 9.115-6.885 16.192-7.076 7.077-16.307 7.077-9.23 0-16.307-7.077L652.691-274.694ZM274.694-652.691 139.848-787.538q-6.693-6.692-6.577-16.115.115-9.423 7.192-16.499 7.077-7.077 16.307-7.077 9.231 0 16.308 7.077l134.231 134.846v-112.001q0-9.644 6.58-16.168 6.58-6.524 16.307-6.524 9.728 0 16.112 6.524 6.385 6.524 6.385 16.168v161.153q0 12.26-8.294 20.553-8.293 8.294-20.553 8.294H162.693q-9.644 0-16.168-6.581-6.524-6.58-6.524-16.307 0-9.727 6.524-16.112 6.524-6.384 16.168-6.384h112.001Zm410.612 0h112.001q9.644 0 16.168 6.58 6.524 6.58 6.524 16.307 0 9.728-6.524 16.112-6.524 6.385-16.168 6.385H636.154q-12.26 0-20.553-8.294-8.294-8.293-8.294-20.553v-161.153q0-9.644 6.581-16.168 6.58-6.524 16.307-6.524 9.727 0 16.112 6.524 6.384 6.524 6.384 16.168v112.001l135.462-135.462q6.692-6.692 16.308-6.884 9.615-.193 16.307 6.884 7.077 6.692 7.077 16.115 0 9.423-7.077 16.5L685.306-652.691Z"/></svg>