<svg xmlns="http://www.w3.org/2000/svg" width="48" height="48" viewBox="0 96 960 960"><path d="M361 555q11 0 18-7t7-18V355q0-17-11.5-28.5T346 315h-49q-10 0-17 7t-7 18q0 11 7 18t18 7h38v166q0 10 7 17t18 7Zm165 0h90q14 0 27-13t13-27V355q0-14-13-27t-27-13h-90q-14 0-27 13t-13 27v160q0 14 13 27t27 13Zm10-138v-64h70v64h-70Zm0 100v-64h70v64h-70ZM189 961q-39.05 0-66.525-27.475Q95 906.05 95 867V285q0-38.463 27.475-66.731Q149.95 190 189 190h582q38.463 0 66.731 28.269Q866 246.537 866 285v582q0 39.05-28.269 66.525Q809.463 961 771 961H189Zm69-124q11 0 18-7t7-18V656h53v99q0 10 7 17t18 7q11 0 18-7t7-18v-98h60v157q0 10 7 17t18 7q11 0 18-7t7-18V646q0-14-13-27t-27-13H273q-14 0-27 13t-13 27v167q0 10 7 17t18 7Zm323 0q11 0 18-7t7-18v-34h80q14 0 27-12.5t13-27.5v-92q0-14-13-27t-27-13h-90q-17 0-28.5 11.5T556 646v167q0 10 7 17t18 7Zm25-181h70v72h-70v-72Z"/></svg>