<svg xmlns="http://www.w3.org/2000/svg" width="48" height="48" viewBox="0 -960 960 960"><path d="M114-194q-18.667 0-31.833-13.735Q69-221.471 69-240.235 69-259 82.167-272.5 95.333-286 114-286h210v-148H117q-18.667 0-31.833-13.735Q72-461.471 72-480.235 72-499 85.167-512.5 98.333-526 117-526h207v-148H114q-18.667 0-31.833-13.735Q69-701.471 69-720.235 69-739 82.167-752.5 95.333-766 114-766h210q38.667 0 64.833 26.833Q415-712.333 415-674v124.9q0 23.875-13 44.988Q389-483 367-478q22 5 35 24.112 13 19.113 13 42.988V-286q0 38.333-26.167 65.167Q362.667-194 324-194H114Zm479-92h207v-388H593v388Zm0 92q-38.667 0-64.833-26.833Q502-247.667 502-286v-388q0-38.333 26.167-65.167Q554.333-766 593-766h207q38.667 0 64.833 26.833Q891-712.333 891-674v388q0 38.333-26.167 65.167Q838.667-194 800-194H593Z"/></svg>