<svg xmlns="http://www.w3.org/2000/svg" width="48" height="48" viewBox="0 96 960 960"><path d="M697 656q8 0 13.902-6 5.901-6 5.901-14v-40h40.328Q765 596 771 590t6-14q0-8-6-13.902-6-5.901-14-5.901h-40v-40.328Q717 508 711 502t-14-6q-9 0-14.5 6t-5.5 14v40h-40q-9 0-14.5 6t-5.5 14q0 8 5.602 13.902 5.601 5.901 14.737 5.901H677v40.328Q677 644 682.5 650t14.5 6Zm-196.884 40q9.884 0 17.384-7.083Q525 681.833 525 671v-65l77 83.94q3 4.06 7.278 5.06t9.722 1q15.206 0 22.103-14.5Q648 667 637 655l-74-79 72.841-80Q647 483.826 641 469.913 635 456 619 456q-5.882 0-9.989 2-4.107 2-7.793 5L525 546v-66q0-9.931-7.616-16.966-7.617-7.034-17.5-7.034Q489 456 482 463.083q-7 7.084-7 17.917v191q0 9.931 7.116 16.966 7.117 7.034 18 7.034Zm-125 0q9.884 0 17.491-7.083 7.607-7.084 7.607-17.917v-38H414q8.931 0 16.466-7.116 7.534-7.117 7.534-18Q438 597 430.417 590q-7.584-7-17.417-7h-12.741V480q0-9.931-7.746-16.966Q384.767 456 374.384 456q-10.384 0-17.472 7.083-7.087 7.084-7.087 17.917v102h-60.619V480q0-9.931-7.204-16.966Q274.798 456 263.884 456 253 456 246 463.083q-7 7.084-7 17.917v119q0 14.025 9.488 23.513Q257.975 633 272 633h77.727v39q0 9.931 7.194 16.966Q364.114 696 375.116 696ZM189 961q-39.05 0-66.525-27.475Q95 906.05 95 867V285q0-38.463 27.475-66.731Q149.95 190 189 190h582q38.463 0 66.731 28.269Q866 246.537 866 285v582q0 39.05-28.269 66.525Q809.463 961 771 961H189Z"/></svg>