<svg xmlns="http://www.w3.org/2000/svg" width="48" height="48" viewBox="0 0 48 48"><path d="M27.65 22.95h4.5q.7 0 1.35-.65.65-.65.65-1.35v-8q0-.7-.65-1.35-.65-.65-1.35-.65h-4.5q-.7 0-1.35.65-.65.65-.65 1.35v8q0 .7.65 1.35.65.65 1.35.65Zm.15-2.5v-7h3.85v7ZM14.15 28h2.65v4.9q0 .55.35.9t.9.35q.55 0 .9-.35t.35-.9V28h3v7.8q0 .55.35.9t.9.35q.55 0 .9-.35t.35-.9v-8.3q0-.7-.65-1.35-.65-.65-1.35-.65h-9.15q-.7 0-1.35.65-.65.65-.65 1.35v8.3q0 .55.35.9t.9.35q.55 0 .9-.35t.35-.9Zm16.15 6.1h4q.7 0 1.35-.625.65-.625.65-1.375v-4.6q0-.7-.65-1.35-.65-.65-1.35-.65h-4.15q-1 0-1.675.675T27.8 27.85v7.95q0 .55.35.9t.9.35q.55 0 .9-.35t.35-.9Zm0-2.5V28h3.5v3.6ZM9.45 43.25q-1.95 0-3.325-1.375Q4.75 40.5 4.75 38.55V9.45q0-1.95 1.375-3.35Q7.5 4.7 9.45 4.7h29.1q1.95 0 3.35 1.4 1.4 1.4 1.4 3.35v29.1q0 1.95-1.4 3.325-1.4 1.375-3.35 1.375Zm0-4.7h29.1V9.45H9.45v29.1Zm0-29.1v29.1-29.1Zm9.85 8.35v2.65h-4.75q-.55 0-.9.35t-.35.9q0 .55.35.9t.9.35h5.25q.7 0 1.35-.65.65-.65.65-1.35v-2.8q0-.7-.65-1.35-.65-.65-1.35-.65h-4v-2.7h4.75q.55 0 .9-.35t.35-.9q0-.55-.35-.9t-.9-.35h-4.9q-1 0-1.675.675T13.3 13.3v2.15q0 1 .675 1.675t1.675.675Z"/></svg>