<svg xmlns="http://www.w3.org/2000/svg" width="48" height="48" viewBox="0 96 960 960"><path d="M496.116 696q9.884 0 17.384-7.083Q521 681.833 521 671v-65l77 83.94q3 4.06 7.278 5.06t9.722 1q15.206 0 22.103-14.5Q644 667 633 655l-74-79 72.841-80Q644 485 637.5 470.5 631 456 615 456q-5.882 0-9.989 2-4.107 2-7.793 5L521 546v-66q0-9.931-7.616-16.966-7.617-7.034-17.5-7.034Q485 456 478 463.083q-7 7.084-7 17.917v191q0 9.931 7.116 16.966 7.117 7.034 18 7.034ZM265 696h108q14.45 0 24.225-9.487Q407 677.025 407 663v-70q0-14.025-9.775-23.513Q387.45 560 373 560h-83v-54h93q9.931 0 16.966-7.116 7.034-7.117 7.034-18Q407 470 399.417 463q-7.584-7-17.417-7H273q-14.025 0-23.512 9.487Q240 474.975 240 489v71q0 14.025 9.488 23.513Q258.975 593 273 593h84v53h-93q-9.931 0-16.966 7.116-7.034 7.117-7.034 18Q240 682 247.083 689q7.084 7 17.917 7Zm-76 265q-39.05 0-66.525-27.475Q95 906.05 95 867V285q0-38.463 27.475-66.731Q149.95 190 189 190h582q38.463 0 66.731 28.269Q866 246.537 866 285v582q0 39.05-28.269 66.525Q809.463 961 771 961H189Zm0-94h582V285H189v582Zm0-582v582-582Zm510 363q9 0 14.402-5.5 5.401-5.5 5.401-14V596h32.328Q759 596 765 590t6-14q0-8-6-13.902-6-5.901-13.805-5.901H719v-32.838Q719 515 713.5 509t-14-6q-8.5 0-14.5 6t-6 14v33h-32.667Q638 556 632 562t-6 14q0 8 6.123 13.902 6.122 5.901 14.366 5.901H679v32.328q0 8.869 6 14.369t14 5.5Z"/></svg>