<svg xmlns="http://www.w3.org/2000/svg" width="48" height="48" viewBox="0 96 960 960"><path d="M229.956 300q-37.968 0-64.962-27.035-26.994-27.036-26.994-65Q138 170 165.038 143t65.006-27q37.968 0 64.962 27.035 26.994 27.036 26.994 65Q322 246 294.962 273t-65.006 27ZM63 485v-31q0-25.135 14.347-47.581T116 373q26.078-11.522 54.603-17.261Q199.128 350 230.064 350t59.417 5.739Q317.963 361.478 344 373q24.306 10.973 38.653 33.419Q397 428.865 397 454v31H63Zm666.956-185q-37.969 0-64.962-27.035-26.994-27.036-26.994-65Q638 170 665.038 143t65.006-27q37.969 0 64.962 27.035 26.994 27.036 26.994 65Q822 246 794.962 273t-65.006 27ZM563 485v-31q0-25.135 14.347-47.581T616 373q26.078-11.522 54.603-17.261Q699.128 350 730.064 350t59.417 5.739Q817.963 361.478 844 373q24.306 10.973 38.653 33.419Q897 428.865 897 454v31H563Zm-306 550q-10 0-17-7t-7-17V863q0-9 7-16.5t17-7.5h89q10.4 0 18.2 8.1 7.8 8.1 7.8 18.9 0 10.4-7.8 18.7-7.8 8.3-18.2 8.3h-65v30h67q10 0 17 7t7 17v64q0 10-7 17t-17 7h-91Zm24-52h44v-30h-44v30Zm393.571 52Q664 1035 656 1027.5q-8-7.5-8-18.5V893h-19q-10.8 0-18.9-8.229-8.1-8.228-8.1-19.2Q602 855 610.1 847q8.1-8 18.9-8h92q10.4 0 18.2 8.1 7.8 8.1 7.8 18.9 0 10.4-7.8 18.7-7.8 8.3-18.2 8.3h-20v116q0 11-7.929 18.5-7.928 7.5-18.5 7.5Zm-206 0Q458 1035 450 1027.5q-8-7.5-8-18.94V863q0-9 7.5-16.5T467 839h72.706q11.294 0 18.794 8.1T566 866q0 10.4-7.5 18.7Q551 893 540 893h-45v30h25q11 0 18.5 7.5T546 949q0 11-7.5 18.5T520 975h-25v34q0 11-7.929 18.5-7.928 7.5-18.5 7.5ZM177 775l-80-80q-6.818-6.6-9.91-15.138Q84 671.324 84 662.367q0-8.958 3.09-17.362Q90.183 636.6 97 629l80-79q10.455-10 23.227-10.5Q213 539 223.5 550q9.5 10 9.5 23.5T223 596l-29 30h573l-31-30q-10-10.727-9.5-23.364Q727 560 737 550q10.182-10 23.091-10T783 550l80 79q6.818 7.6 9.909 16.138Q876 653.676 876 662.633q0 8.958-3.091 17.362Q869.818 688.4 863 695l-80 80q-10 10-23 10t-23-10q-10-10.182-10-23.591T737 728l30-30H194l30 31q10 10 9.5 22.5t-11 23.5q-9.5 10-22.409 10-12.909 0-23.091-10Z"/></svg>