<svg xmlns="http://www.w3.org/2000/svg" width="48" height="48" viewBox="0 -960 960 960"><path d="m488-691-47 156q-4 13 4 23.5t22 10.5q8 0 15.5-5t9.5-13l55-174q8-18-6-33t-31-15H398q-11 0-18 7t-7 18q0 11 7 18t18 7h90ZM189-95q-39.05 0-66.525-27.475Q95-149.95 95-189v-582q0-39.463 27.475-67.231Q149.95-866 189-866h582q39.463 0 67.231 27.769Q866-810.463 866-771v582q0 39.05-27.769 66.525Q810.463-95 771-95H189Zm94-305h53v98q0 11 7 18t18 7q11 0 18-7t7-18v-98h60v156q0 11 7 18t18 7q11 0 18-7t7-18v-165.727Q496-424 483-437t-27-13H273q-14 0-27 13t-13 27.255v165.55Q233-233 240-226t18 7q11 0 18-7t7-18.239V-400Zm323 122h80q14 0 27-12.5t13-27.5v-91.813q0-14.138-13-27.163Q700-450 686-450H581q-11 0-18 7t-7 18.202V-244q0 11 7 18t18 7q11 0 18-7t7-18v-34Zm0-50v-72h70v72h-70Z"/></svg>