<svg xmlns="http://www.w3.org/2000/svg" width="48" height="48" viewBox="0 -960 960 960"><path d="M678-354q-17.975 0-28.487-10.8Q639-375.6 639-394v-172q0-18.4 10.513-29.2Q660.025-606 678-606h139q18.4 0 29.2 10.8T857-566v22q0 12.6-8.842 21.3-8.841 8.7-21.658 8.7-10.7 0-18.1-7.5Q801-529 800-538v-8H698v132h102v-8q1-9 8.505-16.5 7.505-7.5 18.179-7.5 12.783 0 21.549 8.842Q857-428.317 857-415.5v21.5q0 18.4-10.8 29.2T817-354H678Zm-268 0q-16.4 0-26.2-9.8T374-390v-180q0-16.4 9.8-26.2T410-606h143q18.4 0 29.2 10.8T593-566v46q0 20.15-10.8 30.075T553-480q18.4 0 29.2 9.925T593-440v46q0 18.4-10.8 29.2T553-354H410Zm24-150h99v-42h-99v42Zm0 90h99v-42h-99v42Zm-300.884 60Q121-354 112-362.7t-9-21.3v-182q0-18.4 10.8-29.2T143-606h139q17.975 0 28.487 10.8Q321-584.4 321-566v182q0 12.6-8.384 21.3-8.383 8.7-20.5 8.7Q280-354 271-362.7t-9-21.3v-47H162v47q0 12.6-8.384 21.3-8.383 8.7-20.5 8.7ZM162-491h100v-55H162v55Z"/></svg>