<svg xmlns="http://www.w3.org/2000/svg" width="48" height="48" viewBox="0 -960 960 960"><path d="M480-279q-32 0-55.5-22.913Q401-324.825 401-358v-113q0-31.763 23.5-54.381Q448-548 480.5-548t55 22.619Q558-502.763 558-471v113q0 33.175-22.619 56.087Q512.763-279 480-279Zm0 75q51.606 0 91.303-32Q611-268 621-314q5-14 16-25.5t26.465-11.5q12.047 0 20.791 9.5T691-320q-11 72-60 120.5T513-141v54q0 12.833-9.814 22.417-9.814 9.583-23 9.583T457-65.083Q447-75.167 447-88v-53q-69-10-118.5-59T269-320q-2-12 6.5-21.5T297-351q14.963 0 25.481 11.5Q333-328 339-314q10 46 49.697 78T480-204ZM62-387q-20 0-33.5-13.5T15-434v-30q0-24.556 14.5-46.278Q44-532 69-547q46-27 97-40.5T271-601q8 0 16.5 1t16.5 2q11 1 13.5 11.5T310-568q-36.944 29.243-63.472 69.622Q220-458 211-411q-2.75 11.4-10.875 17.7Q192-387 181-387H62Zm718 0q-11.909 0-19.955-6.5Q752-400 750-411q-10-46-37.014-86.878Q685.972-538.757 649-568q-8-7-5.909-18.053Q645.182-597.105 656-598q8-1 16.5-2t16.5-1q54 0 105 13.5t97 40.5q24.945 14.673 39.973 36.495Q946-488.683 946-464v30q0 20-14.062 33.5Q917.875-387 898-387H780ZM272.235-643Q216-643 178-681.625T140-776q0-55.333 38.265-92.667Q216.529-906 271.765-906 326-906 364.5-868.529q38.5 37.47 38.5 93Q403-720 365.235-681.5q-37.764 38.5-93 38.5Zm416 0Q633-643 595-681.625T557-776q0-55.333 38.265-92.667Q633.529-906 687.765-906 743-906 781.5-868.529q38.5 37.47 38.5 93Q820-720 782.235-681.5q-37.764 38.5-94 38.5Z"/></svg>