<svg xmlns="http://www.w3.org/2000/svg" width="48" height="48" viewBox="0 -960 960 960"><path d="M804-709.92q-10-9.93-10-25.78V-794h-59.3q-15.42 0-25.56-10.57Q699-815.14 699-830.05t10.35-25.43Q719.7-866 735-866h59v-58.6q0-15.55 10.18-25.98Q814.35-961 829.58-961q15.23 0 25.82 10.49 10.6 10.5 10.6 26.01v58.5h58.6q15.12 0 25.26 10.69Q960-844.61 960-829.7t-10.21 25.31Q939.59-794 924.5-794H866v57.5q0 15.51-10.77 26.01-10.77 10.49-26 10.49T804-709.92ZM439.26-261q75.74 0 126.24-50.26 50.5-50.27 50.5-125.5 0-75.24-50.26-125.74-50.27-50.5-125.5-50.5-75.24 0-125.74 50.18T264-437.74q0 75.74 50.18 126.24T439.26-261Zm.24-80q-41.5 0-68.5-27.5t-27-69q0-41.5 27-69t68.5-27.5q41.5 0 69.5 27.5t28 69q0 41.5-28 69T439.5-341ZM109-95q-39.05 0-66.53-27.47Q15-149.95 15-189v-495q0-38.46 27.47-66.73Q69.95-779 109-779h125l56-60q13-14 30-20.5t36-6.5h236q19.75 0 33.38 14.19Q639-837.63 639-818v47q0 15.42 10.79 26.21Q660.58-734 676-734h58v56q0 16.58 10.79 27.29T771-640h47q19.63 0 33.81 13.62Q866-612.75 866-593v404q0 39.05-28.27 66.53Q809.46-95 771-95H109Z"/></svg>