<svg xmlns="http://www.w3.org/2000/svg" width="48" height="48" viewBox="0 96 960 960"><path d="M480.07 693q14.48 0 24.705-9.775Q515 673.45 515 659v-47h47q14.45 0 24.225-10.4Q596 591.199 596 576.719q0-14.479-9.775-24.099Q576.45 543 562 543h-47v-48q0-14.45-10.4-24.225Q494.199 461 479.719 461t-24.099 9.775Q446 480.55 446 495v48h-48q-14.45 0-24.225 9.795Q364 562.59 364 577.07q0 14.48 9.775 24.705Q383.55 612 398 612h48v47q0 14.45 9.795 24.225Q465.59 693 480.07 693ZM165.44 878q-21.19 0-34.815-13.675-13.625-13.676-13.625-34Q117 810 130.625 796.5 144.25 783 165 783h45V505q0-92.085 53.5-167.542Q317 262 407 241.583V218q0-30.5 21.223-50.75T479.765 147q30.318 0 51.777 20.25Q553 187.5 553 218v23.583Q644 262 698 337.458 752 412.915 752 505v278h44q19.625 0 33.812 13.675 14.188 13.676 14.188 34Q844 851 829.812 864.5 815.625 878 796 878H165.44Zm315.06 123q-35.45 0-61.975-25.85T392 913h177q0 37-26.231 62.5-26.232 25.5-62.269 25.5Z"/></svg>