<svg xmlns="http://www.w3.org/2000/svg" width="48" height="48" viewBox="0 -960 960 960"><path d="M440-437ZM109-95q-39.05 0-66.53-27.47Q15-149.95 15-189v-495q0-38.46 27.47-66.73Q69.95-779 109-779h125l56-60q13-14 30-20.5t36-6.5h196q19.75 0 33.38 14.26 13.62 14.27 13.62 34 0 19.74-13.62 33.24Q571.75-771 552-771H356l-85 87H109v495h662v-364q0-19.75 13.68-33.38Q798.35-600 818.09-600q19.73 0 33.82 13.62Q866-572.75 866-553v364q0 39.05-28.27 66.53Q809.46-95 771-95H109Zm685-699h-59.3q-15.42 0-25.56-10.57Q699-815.14 699-830.05t10.35-25.43Q719.7-866 735-866h59v-58.6q0-15.55 10.18-25.98Q814.35-961 829.58-961q15.23 0 25.82 10.49 10.6 10.5 10.6 26.01v58.5h58.6q15.12 0 25.26 10.69Q960-844.61 960-829.7t-10.21 25.31Q939.59-794 924.5-794H866v57.5q0 15.51-10.77 26.01-10.77 10.49-26 10.49T804-709.92q-10-9.93-10-25.78V-794ZM439.26-261q75.74 0 126.24-50.26 50.5-50.27 50.5-125.5 0-75.24-50.26-125.74-50.27-50.5-125.5-50.5-75.24 0-125.74 50.18T264-437.74q0 75.74 50.18 126.24T439.26-261Zm.24-80q-41.5 0-68.5-27.5t-27-69q0-41.5 27-69t68.5-27.5q41.5 0 69.5 27.5t28 69q0 41.5-28 69T439.5-341Z"/></svg>