<svg xmlns="http://www.w3.org/2000/svg" width="48" height="48" viewBox="0 -960 960 960"><path d="M444-489v88q0 15.3 10.18 25.65 10.17 10.35 26 10.35Q496-365 506-375.35T516-401v-88h88q15.3 0 25.65-10.77 10.35-10.77 10.35-26T630.08-551q-9.93-10-26.08-10h-88v-88q0-15.3-10.18-25.65-10.17-10.35-26-10.35-15.82 0-25.82 9.92-10 9.93-10 26.08v88h-88q-15.3 0-25.65 10.18Q320-540.65 320-525.42q0 15.23 9.92 25.82Q339.85-489 356-489h88ZM149-175q-39.05 0-66.53-27.48Q55-229.95 55-269v-502q0-39.46 27.47-67.23Q109.95-866 149-866h662q39.46 0 67.23 27.77Q906-810.46 906-771v502q0 39.05-27.77 66.52Q850.46-175 811-175H644v33q0 19.75-14.19 33.37Q615.63-95 596-95H364q-19.75 0-33.37-13.63Q317-122.25 317-142v-33H149Zm0-94h662v-502H149v502Zm0 0v-502 502Z"/></svg>