<svg xmlns="http://www.w3.org/2000/svg" width="48" height="48" viewBox="0 -960 960 960"><path d="M797-95q-122 0-247-58T319-317Q212-424 153.5-549.5T95-796q0-29.29 19.86-49.64Q134.71-866 164-866h140q31 0 50.5 16.5T381-802l26.93 109.64Q412-666 406.5-646t-21.73 34.23L281-517q22 36 47 68t57 62q33 35 66.5 61t68.5 44l100-101q17-18 38.15-24t44.85 0l99 23q31 9 47.5 29.04Q866-334.91 866-305v141q0 29.29-20.36 49.14Q825.29-95 797-95ZM666-666h-92q-14.75 0-25.37-10.18Q538-686.35 538-701.68q0-15.32 10.63-25.82Q559.25-738 574-738h92v-92q0-14.75 10.68-25.38Q687.35-866 702.18-866q14.82 0 25.32 10.62Q738-844.75 738-830v92h92q14.75 0 25.38 10.68 10.62 10.67 10.62 26Q866-686 855.38-676q-10.63 10-25.38 10h-92v93q0 14.75-10.68 24.87Q716.65-538 701.82-538q-14.82 0-25.32-10.13Q666-558.25 666-574v-92Z"/></svg>