<svg xmlns="http://www.w3.org/2000/svg" width="48" height="48" viewBox="0 96 960 960"><path d="M697.825 516q-15.8 0-25.312-9.925Q663 496.15 663 479.649V388h-92.649q-16.076 0-25.713-9.975-9.638-9.976-9.638-25.7 0-15.725 9.638-26.025 9.637-10.3 25.713-10.3H663v-92q0-15.3 9.693-25.65 9.693-10.35 25-10.35t25.807 10.35Q734 208.7 734 224v92h92q15.3 0 25.65 10.4Q862 336.801 862 352.175q0 16.225-10.35 26.025Q841.3 388 826 388h-92v91.649q0 16.501-10.4 26.426Q713.199 516 697.825 516ZM796 959q-127 0-251.871-62.054-124.871-62.055-225-161.5Q219 636 157 510.5 95 385 95 259q0-29 20-49t49-20h140q30.611 0 50.306 16Q374 222 381 253l27 110q5 27-.786 46.625Q401.429 429.25 385 443l-105 95q50 79 108.554 136.529Q447.109 732.058 519 772l100-101q18-18 38.5-24.5t45.5-.5l98 24q31.312 8.375 47.656 28.188Q865 718 865 749v140q0 30-20 50t-49 20ZM233 455l80-75-21-96H190q-1 34 9.457 75.441T233 455Zm537 408V760l-88-19-78 81q35.983 16.872 79.992 27.436Q728 860 770 863Zm-166-41ZM233 455Z"/></svg>