<svg xmlns="http://www.w3.org/2000/svg" width="48" height="48" viewBox="0 -960 960 960"><path d="M736-284h-82q-17.75 0-29.37-11.96-11.63-11.97-11.63-29Q613-342 624.63-354q11.62-12 29.37-12h82v-83q0-17.05 12.17-29.02Q760.33-490 777.67-490 795-490 807-478.02q12 11.97 12 29.02v83h82q17.47 0 29.74 11.96 12.26 11.97 12.26 29Q943-308 930.74-296q-12.27 12-29.74 12h-82v83q0 17.05-12.17 29.02Q794.67-160 777.33-160 760-160 748-171.98q-12-11.97-12-29.02v-83ZM111-95q-39.05 0-66.53-27.47Q17-149.95 17-189v-597q0-39.46 27.47-67.23Q71.95-881 111-881h597q38 0 66 27.77T802-786v200q0 19.75-13.68 33.37Q774.65-539 754.82-539q-19.82 0-33.32-13.63Q708-566.25 708-586v-48H111v445h518q19.75 0 33.38 13.68Q676-161.65 676-141.82q0 19.82-13.62 33.32Q648.75-95 629-95H111Z"/></svg>