<svg xmlns="http://www.w3.org/2000/svg" width="48" height="48" viewBox="0 -960 960 960"><path d="M439-439v124q0 17.05 11.96 29.02 11.97 11.98 29 11.98Q497-274 509-285.98q12-11.97 12-29.02v-124h124q17.05 0 29.03-11.96 11.97-11.97 11.97-29Q686-497 674.03-509q-11.98-12-29.03-12H521v-124q0-17.05-11.96-29.03-11.97-11.97-29-11.97Q463-686 451-674.03q-12 11.98-12 29.03v124H315q-17.05 0-29.02 11.96-11.98 11.97-11.98 29Q274-463 285.98-451q11.97 12 29.02 12h124ZM189-95q-39.05 0-66.53-27.47Q95-149.95 95-189v-582q0-39.46 27.47-67.23Q149.95-866 189-866h582q39.46 0 67.23 27.77Q866-810.46 866-771v582q0 39.05-27.77 66.53Q810.46-95 771-95H189Z"/></svg>