<svg xmlns="http://www.w3.org/2000/svg" width="48" height="48" viewBox="0 -960 960 960"><path d="M680-255h-84.65q-15.84 0-25.59-10.04-9.76-10.03-9.76-24.87Q560-304 570.06-315q10.07-11 24.94-11h85v-84q0-15.3 10.18-25.65Q700.35-446 715.58-446q15.23 0 25.82 10.35Q752-425.3 752-410v84h85q14.88 0 24.94 10.29t10.06 25.5Q872-275 861.94-265T837-255h-85v83.65q0 16.5-10.77 26.42-10.77 9.93-26 9.93T690-144.93q-10-9.92-10-26.42V-255Zm-288 0H280q-94.11 0-159.56-65.42Q55-385.84 55-479.7q0-93.85 65.44-160.07Q185.89-706 280-706h112q18.45 0 32.73 14.56Q439-676.88 439-657.5q0 18.95-14.27 32.72Q410.45-611 392-611H280q-55.33 0-93.17 37.76-37.83 37.77-37.83 93Q149-425 186.83-387q37.84 38 93.17 38h112q18.45 0 32.73 14Q439-321 439-301.5t-14.27 33Q410.45-255 392-255Zm-48-189q-15.3 0-25.65-10.18-10.35-10.17-10.35-26 0-15.82 9.92-25.82 9.93-10 26.41-10H579q15.3 0 25.65 10.18 10.35 10.17 10.35 26Q615-464 604.65-454T579-444H344Zm562-36h-95q0-55-37.81-93t-93.11-38H566q-19 0-32.5-14.01T520-658.39q0-18.61 13.63-33.11Q547.25-706 567-706h113q93.79 0 159.9 66.1Q906-573.79 906-480Z"/></svg>