<svg xmlns="http://www.w3.org/2000/svg" width="48" height="48" viewBox="0 -960 960 960"><path d="M480.404-55q-88.872 0-166.125-33.084-77.254-33.083-135.183-91.012-57.929-57.929-91.012-135.045Q55-391.256 55-480.128t33.183-166.359q33.183-77.488 90.661-134.969 57.477-57.482 135.179-91.013Q391.724-906 480-906q46.615 0 90.881 10.027Q615.146-885.946 654-868q-11 14-16 30.833-5 16.834-5 37.167 0 6.18.455 12.59.454 6.41.545 13.41-34.886-18.02-73.264-27.51Q522.358-811 480-811q-138.325 0-234.663 95.826Q149-619.349 149-480.66q0 138.689 96.477 235.174Q341.954-149 479.977-149T714.5-245.22Q811-341.441 811-480q0-32.035-6-63.018Q799-574 788-602q11.963 4.259 25.481 6.63Q827-593 840-593q13 0 24.5-2t22.5-8q8.105 29.385 13.553 60.135Q906-512.115 906-480q0 88.276-33.531 165.977-33.531 77.702-91.013 135.179-57.481 57.478-134.831 90.661Q569.276-55 480.404-55Zm139.48-472q25.516 0 42.816-16.974 17.3-16.973 17.3-42.933t-16.974-43.026Q646.053-647 620.093-647q-25.526 0-42.31 16.974Q561-613.053 561-587.093t16.684 43.026Q594.367-527 619.884-527Zm-279.977 0q25.526 0 42.31-16.974Q399-560.947 399-586.907t-16.684-43.026Q365.633-647 340.116-647q-25.516 0-42.816 16.974-17.3 16.973-17.3 42.933t16.974 43.026Q313.947-527 339.907-527ZM480-261q69 0 126-38t80-103H274q24 63.671 80.5 102.336Q411-261 480-261Zm0-219Zm313-273h-33q-19.75 0-33.375-13.675Q713-780.351 713-800.175 713-820 726.625-833.5 740.25-847 760-847h33v-33q0-19.75 13.675-33.375Q820.351-927 840.175-927 860-927 873.5-913.375 887-899.75 887-880v33h33q19.75 0 33.375 13.675Q967-819.649 967-799.825 967-780 953.375-766.5 939.75-753 920-753h-33v33q0 19.75-13.675 33.375Q859.649-673 839.825-673 820-673 806.5-686.625 793-700.25 793-720v-33Z"/></svg>