<svg xmlns="http://www.w3.org/2000/svg" width="48" height="48" viewBox="0 96 960 960"><path d="M734.6 957V829.4H607v-84.8h127.6V618h84.8v127H946v84.4H819V957h-84.4Zm-519.292 21q-23.153 0-42.329-11.5Q153.802 955 143 935L42 761q-11-19-11.5-41.5T42 677l264-461q13-20.5 32-31.25T380.16 174h199.388q22.976 0 42.319 10.528 19.343 10.528 31.141 31.584L841 543q-16-5-32.571-7-16.572-2-33.786-2-8.643 0-18.143.5t-17.196.5l-160.76-276H380L115 719l100.878 174h330.239q10.795 23.713 26.525 45.963Q588.372 961.213 609 978H215.308Zm63.372-191L247 734l195.412-338h75.998L625 582q-20 15-35 29.5T563 646l-84-145-116 202h175q-8 20-11.5 40.475T523 787H278.68Z"/></svg>