<svg xmlns="http://www.w3.org/2000/svg" width="48" height="48" viewBox="0 -960 960 960"><path d="M535.5-505.09q22.5-22.09 22.5-55t-22.59-55.41q-22.59-22.5-55.5-22.5T425-615.41q-22 22.59-22 55.5T425.09-505q22.09 22 55 22t55.41-22.09Zm-82 421.59Q440-88 430-97q-48-40-100-90.5t-95.5-109Q191-355 163-420.5T135-555q0-160 104.5-255.5T480-906q42 0 62 17.5t20 59.5v38q0 34.87 23.56 58.44Q609.13-709 644-709h46v47q0 17 6.22 32.05Q702.43-614.9 714-605q10 11 22.5 16t26.5 7q32 5 45 22t13 41q0 24-10 54.5T787-405q-14 29-28 53t-22 36q-41 59-93.5 113.5T531-97q-11 9-24.75 13.5t-26.5 4.5Q467-79 453.5-83.5ZM730-749h-86q-17.75 0-29.87-12.18-12.13-12.17-12.13-30 0-17.82 11.63-29.32Q625.25-832 643-832h87v-87q0-17.75 12.18-29.38 12.17-11.62 30-11.62 17.82 0 29.32 11.62Q813-936.75 813-919v87h87q17.75 0 29.38 11.68Q941-808.65 941-790.82 941-773 929.38-761q-11.63 12-29.38 12h-87v86q0 17.75-11.68 29.87Q789.65-621 771.82-621 754-621 742-632.63q-12-11.62-12-29.37v-87Z"/></svg>