<svg xmlns="http://www.w3.org/2000/svg" width="48" height="48" viewBox="0 -960 960 960"><path d="M474-206q-113-2-190.5-81.5T206-480.395q0-114.252 79.5-194.428Q365-755 480-755q112.634 0 192.317 78.5T755-484l-87-27q-10-69-63-114.5T479.576-671q-79.175 0-134.876 55.5Q289-560 289-480.263q0 71.909 45.5 124.586Q380-303 448-292l26 86Zm51 170q-11.25 1-22 1.5t-23 .5q-92 0-173.467-34.907-81.467-34.907-142.093-95.533-60.626-60.626-95.533-142.093Q34-388 34-480q0-92 34.907-173.467 34.907-81.467 95.533-142.093 60.626-60.626 142.093-95.533Q388-926 480-926q92 0 173.467 34.907 81.467 34.907 142.093 95.533 60.626 60.626 95.533 142.093Q926-572 926-480q0 12.333-.5 23.667Q925-445 924-434l-81-24.333V-480q0-150.65-106.247-256.825Q630.507-843 479.753-843 329-843 223-736.753q-106 106.246-106 257Q117-329 223.175-223T480-117h21l24 81Zm262-47L656-214l-27 81q-6.091 17-23.545 16.5Q588-117 583-134l-90-304q-4-13 6-23t23-7l305 91q16 5 16.5 22.455Q844-337.091 828-331l-82 27 132 131q19 19.164 19 45.082T877.861-83q-19.14 19-45.5 19Q806-64 787-83Z"/></svg>