<svg xmlns="http://www.w3.org/2000/svg" width="48" height="48" viewBox="0 -960 960 960"><path d="M444-85q-41 0-75-21t-49-58q-14-20 0-42t42-22q12 0 21 6.5t15 15.5q7 12 19.5 19t26.5 7q20 0 34-14t14-34.5q0-20.5-14-34T444-276H116q-20 0-33.5-13.5t-13.5-34q0-20.5 13.5-34T116-371h328q59 0 100.5 41.5T586-228q0 60-41.5 101.5T444-85ZM116-585q-20 0-33.5-13.5t-13.5-34q0-20.5 13.5-34T116-680h490q29 0 49.5-20t20.5-49.5q0-29.5-20.5-50.5T606-821q-19 0-35.5 10T548-784q-8 13-20.5 21.5T500-754q-26 0-38.5-21.5t.5-44.5q18-44 56.5-69.5T606-915q68 0 116 48t48 117q0 69-48 117t-116 48H116Zm675 366q-21 11-40.5-1.5T731-257q0-16 9-28.5t22-21.5q17-6 26-22.5t9-35.5q0-28-19-47t-47-19H116q-20 0-33.5-13.5T69-478q0-20 13.5-33.5T116-525h615q67 0 113.5 46.5T891-365q0 50-26.5 91T791-219Z"/></svg>