<svg xmlns="http://www.w3.org/2000/svg" width="48" height="48" viewBox="0 -960 960 960"><path d="m406-445 55-152q13.296-36.797 48.648-52.898Q545-666 582-653l247 89q67 25 97 90t6 133l-28 77q-7.167 18.867-24.083 26.933Q863-229 844-236L433-386q-19-6-26.5-23t-.5-36Zm137-135q-8 24-15 44.5T512-493l-16 42 47-129ZM791-91 75-353q-18-7-27-24.387t-1-36.5Q54-431 71-439t35-1l718 261q18 7 26.5 24t1.5 36q-7 19-24.5 27T791-91ZM266.941-455Q208-455 166.5-497.017T125-599.059Q125-658 166.75-700T267-742q58.917 0 100.958 42.059Q410-657.882 410-598.441T367.941-497q-42.059 42-101 42Zm.059-84q25.5 0 42.75-17.25T327-599q0-24.5-17.25-42.25T267-659q-25.5 0-42.75 17.75T207-599q0 25.5 17.25 42.75T267-539Zm229 88 343 124 15-42q13-36-3-70t-52-47l-256-94-47 129ZM267-599Z"/></svg>