<svg xmlns="http://www.w3.org/2000/svg" width="48" height="48" viewBox="0 96 960 960"><path d="M377 667V459q0-38.775 27.906-66.387Q432.812 365 472 365h262q72 0 123 50.5T908 538v129H377ZM99 822q-19.75 0-33.375-13.675Q52 794.649 52 774.325 52 754 65.625 740.5 79.25 727 99 727h762q19.625 0 33.812 13.675 14.188 13.676 14.188 34Q909 795 894.812 808.5 880.625 822 861 822H99Zm94.706-155Q134 667 93 625.515q-41-41.486-41-100.75 0-59.682 41.485-101.723Q134.971 381 194.235 381q59.682 0 101.223 42Q337 465 337 525t-41.794 101q-41.794 41-101.5 41Z"/></svg>