<svg xmlns="http://www.w3.org/2000/svg" width="48" height="48" viewBox="0 -960 960 960"><path d="m433-398-68-69q-11-10-26-9.5t-26 10.553q-10 11.052-10 25.5Q303-426 313-415l87 86q14.091 14 33.545 14Q453-315 467-329l171.802-171.802Q650-512.067 650-527.165q0-15.098-11.053-25.467Q627.895-563 613.447-563 599-563 588-553L433-398Zm46 341q-79 0-149-30t-122.5-82Q155-221 125-291T95-440.733q0-79.733 30-149.5T207.5-712.5Q260-765 330-795.5T479-826q79 0 149 30.5t122.5 83q52.5 52.5 83 122.267t30.5 149.5Q864-361 833.5-291t-83.011 122.24q-52.511 52.241-122.5 82Q558-57 479-57Zm0-382ZM43.343-695Q32-706.267 33-720.133 34-734 45-746l133-129q11-10 25.5-9.5t24.5 10.843q12 11.344 11.5 25.329Q239-834.343 227-823L94-694q-11.343 11-25.828 10.5T43.343-695Zm871.314 0q-10.344 11-24.829 11.5Q875.343-683 864-694L731-823q-12-10.343-12.5-24.828t11.5-25.829Q740-884 754.5-884.5t26.148 10.148L914-745q11 10.511 11.5 24.756Q926-706 914.657-695ZM478.864-151Q600-151 684.5-235.364t84.5-205.5Q769-562 684.636-646.5t-205.5-84.5Q358-731 273.5-646.636t-84.5 205.5Q189-320 273.364-235.5t205.5 84.5Z"/></svg>