<svg xmlns="http://www.w3.org/2000/svg" width="48" height="48" viewBox="0 -960 960 960"><path d="M390-506v218q0 13 8.5 21.5T420-258q13 0 21.5-8.5T450-288v-216q0-8.15-2-16.3-2-8.14-6-15.7l-56.88-114.78Q380-662 367.5-666t-23.5 2q-11 6-14.5 17.66Q326-634.67 331-624l59 118Zm180 0 59-118q5-11 1.5-22.5t-14.5-17q-11-5.5-23.5-2t-17.62 14.72L518-536q-4 7.56-6 15.7-2 8.15-2 16.3v216q0 13 8.5 21.5T540-258q13 0 21.5-8.5T570-288v-218Zm97.5 66.5Q680-443 685-455l44-89q5-11 1-22.5t-15-17q-11-5.5-23-1.5t-17 15l-44 88q-5 12-1.5 23.5t14.5 17q11 5.5 23.5 2Zm-337.5-19q4-11.5-1-23.5l-44-89q-5-11-17.5-14.5t-23.5 2q-11 5.5-14.5 17.16Q226-554.67 231-544l44 89q5 11.58 17 15.29 12 3.71 23-1.79t15-17ZM480.14-55Q392-55 314.51-88.08q-77.48-33.09-135.41-91.02-57.93-57.93-91.02-135.27Q55-391.72 55-479.86 55-569 88.08-646.49q33.09-77.48 90.86-134.97 57.77-57.48 135.19-91.01Q391.56-906 479.78-906q89.22 0 166.83 33.45 77.6 33.46 135.01 90.81t90.89 134.87Q906-569.34 906-480q0 88.28-33.53 165.75t-91.01 135.28q-57.49 57.8-134.83 90.89Q569.28-55 480.14-55Zm-.14-94q138 0 234.5-96.37T811-480q0-138-96.5-234.5t-235-96.5q-137.5 0-234 96.5t-96.5 235q0 137.5 96.37 234T480-149Zm0-331Z"/></svg>