<svg xmlns="http://www.w3.org/2000/svg" width="48" height="48" viewBox="0 96 960 960"><path d="M390 550v218q0 13 8.5 21.5T420 798q13 0 21.5-8.5T450 768V552q0-8.148-2-16.296T442 520l-56.884-114.778Q380 394 367.5 390t-23.5 2q-11 6-14.5 17.663T331 432l59 118Zm180 0 59-118q5-11 1.5-22.5T616 392q-11-5-23.5-1.5t-17.618 14.722L518 520q-4 7.556-6 15.704T510 552v216q0 13 8.5 21.5T540 798q13 0 21.5-8.5T570 768V550Zm74 64q11 6 23.5 2.288Q680 612.577 685 601l44-89q5-11 1-22.5T715 472q-11-5-23-1t-17 15l-44 88q-5 12-1.5 23.605Q633 609.211 644 614Zm-329 .5q11-5.5 15-17t-1-23.5l-44-89q-5-11-17.5-14.5T244 472q-11 6-14.5 17.663T231 512l44 89q5 11.577 17 15.288 12 3.712 23-1.788ZM480.138 1001q-88.138 0-165.625-33.084-77.488-33.083-135.417-91.012T88.084 741.625Q55 664.276 55 576.138 55 487 88.084 409.513q33.083-77.488 90.855-134.969 57.772-57.482 135.195-91.013Q391.557 150 479.779 150q89.221 0 166.827 33.454 77.605 33.453 135.012 90.802 57.407 57.349 90.895 134.877Q906 486.66 906 576q0 88.276-33.531 165.747-33.531 77.471-91.013 135.278-57.481 57.808-134.831 90.891Q569.276 1001 480.138 1001ZM480 907q138 0 234.5-96.372T811 576q0-138-96.5-234.5t-235-96.5q-137.5 0-234 96.5t-96.5 235q0 137.5 96.372 234T480 907Zm0-331Z"/></svg>