<svg xmlns="http://www.w3.org/2000/svg" width="48" height="48" viewBox="0 -960 960 960"><path d="M479-55q-88.19 0-165.09-33Q237-121 179-179T88-314.36q-33-77.36-33-165.5T88-645.5q33-77.5 90.84-135.55 57.85-58.06 135.28-91.5Q391.56-906 479.78-906t165.84 33.37q77.62 33.37 135.59 91.29 57.98 57.92 91.39 134.96Q906-569.34 906-481v52.5q0 62.5-45.61 104Q814.79-283 751-283q-39.08 0-73.04-18.5Q644-320 627-354q-24 37-63.34 54t-83.35 17q-82.92 0-140.61-56.97Q282-396.93 282-480.48q0-83.55 57.26-141.03Q396.52-679 479.76-679q83.24 0 140.74 57.49Q678-564.02 678-480v45.93q0 28.48 22.07 48.78Q722.13-365 751.5-365q28.93 0 49.72-20.29Q822-405.59 822-434.07V-481q0-141.96-100-241.48Q622-822 480-822T238-722Q138-622 138-480t99.52 242Q337.04-138 479-138h174q17.75 0 29.38 12.17Q694-113.67 694-96.33 694-79 682.38-67 670.75-55 653-55H479Zm83-343.75q34-33.75 34-81.25 0-49-34.06-83t-82-34Q432-597 398-563t-34 83q0 47.5 34.06 81.25t82 33.75Q528-365 562-398.75Z"/></svg>