<svg xmlns="http://www.w3.org/2000/svg" width="48" height="48" viewBox="0 0 48 48"><path d="M7.45 41.25q-1.95 0-3.325-1.375Q2.75 38.5 2.75 36.55v-25.1q0-1.95 1.375-3.35Q5.5 6.7 7.45 6.7h33.1q1.95 0 3.35 1.4 1.4 1.4 1.4 3.35V23.9q0 1-.725 1.675t-1.675.675q-1 0-1.675-.675T40.55 23.9V11.45H7.45v25.1h20.4q1 0 1.675.675T30.2 38.9q0 1-.675 1.675t-1.675.675Zm31.25-1.3-3.3-1.5q-.65-.3-.65-1.1t.65-1.15l3.3-1.5 1.5-3.3q.3-.65 1.1-.65t1.1.65l1.55 3.3 3.3 1.5q.6.35.6 1.15 0 .8-.6 1.1l-3.3 1.5-1.55 3.3q-.3.65-1.1.65t-1.1-.65Zm-31.25-3.4v-25.1 25.1-.75.75Zm14-10.05 1.45 3.25q.3.75 1.1.725.8-.025 1.1-.725l1.4-3.25 3.25-1.4q.7-.3.725-1.1.025-.8-.675-1.1l-3.3-1.45-1.4-3.25q-.35-.7-1.125-.7t-1.075.7l-1.45 3.25-3.2 1.45q-.75.3-.75 1.075 0 .775.75 1.075Z"/></svg>