<svg xmlns="http://www.w3.org/2000/svg" width="48" height="48" viewBox="0 0 48 48"><path d="M21.65 1.8v-3q0-1 .675-1.675T24-3.55q1 0 1.675.675T26.35-1.2v3q0 1-.675 1.675T24 4.15q-1 0-1.675-.675T21.65 1.8ZM9.95 6.95 7.55 4.6q-.7-.7-.7-1.65t.7-1.65q.7-.7 1.675-.7.975 0 1.725.7l2.35 2.3q.7.7.7 1.675 0 .975-.7 1.675-.75.7-1.7.7t-1.65-.7ZM7.5 47.25q-1.15 0-1.95-.8t-.8-1.95V28.85q0-.4.05-.75t.2-.75l4-11.7q.45-1.3 1.55-2.125t2.5-.825h5.4v-1.95q0-1 .675-1.675T20.8 8.4H28q-1.7 1.6-2.75 3.65T24 16.55V17q0 .2.05.45h-10.8L11.05 24h14.6q.65 1.3 1.675 2.4 1.025 1.1 2.275 1.95H9.45v10h29.1v-8.1q1.3-.15 2.475-.575Q42.2 29.25 43.3 28.6v15.9q0 1.15-.85 1.95t-1.95.8h.1q-1.15 0-1.95-.75t-.8-1.9v-1.55H10.1v1.55q0 1.15-.8 1.9t-1.95.75Zm11.45-12.4q.65 0 1.075-.425.425-.425.425-1.075 0-.65-.425-1.075-.425-.425-1.075-.425h-4.8q-.45 0-.825.35-.375.35-.375.8v.65q0 .45.375.825.375.375.825.375Zm10.1 0h4.85q.45 0 .8-.375.35-.375.35-.825V33q0-.45-.35-.8-.35-.35-.8-.35h-4.85q-.65 0-1.075.425-.425.425-.425 1.075 0 .65.425 1.075.425.425 1.075.425Zm-19.6-6.5v10-10Zm25.9-8.9L32.9 17q-.3-.35-.8-.35t-.8.3q-.35.35-.35.825t.35.825l2.35 2.3q.7.75 1.675.75.975 0 1.675-.75l5-5.05q.35-.35.35-.8 0-.45-.35-.8-.35-.35-.8-.35-.45 0-.8.35Zm1.3-11.35q4.05 0 6.875 2.825T46.35 17.8q0 4.05-2.825 6.875T36.65 27.5q-4 0-6.85-2.825-2.85-2.825-2.85-6.875t2.85-6.875Q32.65 8.1 36.65 8.1Z"/></svg>