<svg xmlns="http://www.w3.org/2000/svg" width="48" height="48" viewBox="0 -960 960 960"><path d="M418-163q-25-25-25-62t25-62q25-25 62-25t62 25q25 25 25 62t-25 62q-25 25-62 25t-62-25ZM285-514l-102-70q-3 2-7 4t-7 4q-24 19-53.5 18T65-581q-18-19-19-45t16-46l-1 1v1l-19-14q-14-9-16.5-25.5T33-739q9-12 24-15t28 6l756 528q13 9 15.5 25.5T849-165q-9 13-25 15.5t-29-6.5L415-423q-20 5-39 12.5T339-393q-26 14-53.5 13T239-401q-19-21-18-47.5t23-42.5q10-7 19.5-12.5T285-514Zm13-140-135-95q74-37 153.5-56.5T480-825q113 0 217.5 37.5T890-681q23 19 24.5 48.5T895-581q-21 22-50.5 23T791-576q-67-50-146.5-77T480-680q-46 0-91.5 6.5T298-654Z"/></svg>