<svg xmlns="http://www.w3.org/2000/svg" width="48" height="48" viewBox="0 96 960 960"><path d="M352 546q-9.833 0-17.417-7.116-7.583-7.117-7.583-18Q327 510 334.583 503q7.584-7 17.417-7h256q9.833 0 17.417 7.116 7.583 7.117 7.583 18Q633 532 625.417 539q-7.584 7-17.417 7H352Zm41 130q-9.833 0-17.417-7.116-7.583-7.117-7.583-18Q368 640 375.583 633q7.584-7 17.417-7h174q9.833 0 17.417 7.116 7.583 7.117 7.583 18Q592 662 584.417 669q-7.584 7-17.417 7H393Zm-122 363q-38.775 0-66.388-27.61Q177 983.775 177 945V207q0-38.775 27.612-66.387Q232.225 113 271 113h418q38.775 0 66.387 27.613Q783 168.225 783 207v738q0 38.775-27.613 66.39Q727.775 1039 689 1039H271Zm0-184h418V297H271v558Zm0 60v30h418v-30H271Zm0-678h418v-30H271v30Zm0-30v30-30Zm0 738v-30 30Z"/></svg>