<svg xmlns="http://www.w3.org/2000/svg" width="48" height="48" viewBox="0 -960 960 960"><path d="M726-320q-66 0-113-47t-47-113q0-66 47-113t113-47q66 0 113 47t47 113q0 66-47 113t-113 47Zm0-50q15.771 0 30.886-4Q772-378 784-387L633-538q-8 13-12.5 27.457T616-481q0 46 31.9 78.5T726-370Zm94-52q8-13 12-27.786 4-14.785 4-30.214 0-46.2-31.9-78.1Q772.2-590 726-590q-15.771 0-30.886 4Q680-582 668-574l152 152ZM271-17q-38.775 0-66.388-27.612Q177-72.225 177-111v-738q0-38.775 27.612-66.387Q232.225-943 271-943h418q38.775 0 66.387 27.613Q783-887.775 783-849v116q0 19.75-13.675 33.375Q755.649-686 735.825-686 716-686 702.5-699.625 689-713.25 689-733v-26H271v558h418v-26q0-19.625 13.675-33.812Q716.351-275 736.175-275 756-275 769.5-260.812 783-246.625 783-227v116q0 38.775-27.613 66.388Q727.775-17 689-17H271Z"/></svg>