<svg xmlns="http://www.w3.org/2000/svg" width="48" height="48" viewBox="0 -960 960 960"><path d="M446-487 324-153l-5 9-29 27q-11 10-25.12 5.357Q250.76-116.286 249-131l-5-38 1-11 127-347q15 17 34.5 26.5T446-487Zm34-16q-56.5 0-96.75-40.25T343-640q0-48 27-84t69-47.4V-821q0-17.3 11.789-29.15 11.79-11.85 29-11.85Q497-862 509-850.15T521-821v49.6q42 11.4 69 47.4t27 84q0 56.5-40.25 96.75T480-503Zm.105-83Q502-586 518-602.105q16-16.106 16-38Q534-662 517.895-678q-16.106-16-38-16Q458-694 442-677.895q-16 16.106-16 38Q426-618 442.105-602q16.106 16 38 16ZM512-486q20-4 40-13.5t35-26.5l128 346q2 4 0 11l-4 38q-1.76 14.714-15.88 19.357Q681-107 670-117l-29-27q-5-5-5-9L512-486Z"/></svg>