<svg xmlns="http://www.w3.org/2000/svg" width="48" height="48" viewBox="0 -960 960 960"><path d="M480-321q74.92 0 126.96-52.04Q659-425.08 659-500q0-74.08-52.5-125.04Q554-676 480-679v58q51 1 86 35.74 35 34.73 35 85.5Q601-449 566.04-414q-34.96 35-86.04 35-33.37 0-61.18-17Q391-413 374-441l-50 27q24 42 65.81 67.5Q431.61-321 480-321ZM328.12-463q10.88 0 19.88-8.62 9-8.61 9-20 0-11.38-9.12-19.88-9.11-8.5-20-8.5-11.88 0-20.38 8.62-8.5 8.61-8.5 20 0 11.38 8.62 19.88 8.61 8.5 20.5 8.5Zm44.38-96.62q8.5-8.61 8.5-20.5 0-11.88-8.62-20.38-8.61-8.5-20.5-8.5-11.88 0-20.38 8.62-8.5 8.61-8.5 20.5 0 11.88 8.62 20.38 8.61 8.5 20.5 8.5 11.88 0 20.38-8.62ZM415.12-612q11.88 0 20.38-8.62 8.5-8.61 8.5-20.5 0-11.88-8.62-20.38-8.61-8.5-20.5-8.5-10.88 0-19.38 8.62-8.5 8.61-8.5 20.5 0 11.88 8.62 20.38 8.61 8.5 19.5 8.5Zm49 550.5Q456.56-63 450-66q-144-47-229.5-177.5T135-523.11V-712q0-30.26 16.38-55.16Q167.75-792.07 196-802l251-94q16-6 33-6t33 6l251 94q28.25 9.93 45.13 34.84Q826-742.26 826-712v188.89Q826-374 740-243.5T510-66q-6.56 3-14.12 4.5T480-60q-8.32 0-15.88-1.5Z"/></svg>