<svg xmlns="http://www.w3.org/2000/svg" width="48" height="48" viewBox="0 -960 960 960"><path d="M462.5-62.5Q454-66 447-73L208-313q-15-14-15-32.5t15-32.5q14-14 32.5-14t33.5 14l160 159v-205q0-20 13.5-33.5T481-471q20 0 33.5 13.5T528-424v205l159-160q14-14 33.5-14t32.5 14q14 14 14 33t-14 33L514-73q-7 7-15.5 10.5t-18 3.5q-9.5 0-18-3.5Zm-15-482Q434-558 434-578v-50q0-20 13.5-33.5T481-675q20 0 33.5 13.5T528-628v51q0 20-13.5 33T481-531q-20 0-33.5-13.5Zm0-204Q434-762 434-783v-60q0-20 13.5-33.5T481-890q20 0 33.5 13.5T528-843v61q0 21-13.5 34T481-735q-20 0-33.5-13.5Z"/></svg>