<svg xmlns="http://www.w3.org/2000/svg" width="48" height="48" viewBox="0 -960 960 960"><path d="M189-95q-39.05 0-66.53-27.47Q95-149.95 95-189v-582q0-39.46 27.47-67.23Q149.95-866 189-866h182q4-37 35-66.5t74-29.5q43 0 74 29.5t35 66.5h182q39.46 0 67.23 27.77Q866-810.46 866-771v582q0 39.05-27.77 66.53Q810.46-95 771-95H189Zm317-730.91q10-9.9 10-26 0-16.09-9.91-26.09-9.9-10-26-10-16.09 0-26.09 9.91-10 9.9-10 26 0 16.09 9.91 26.09 9.9 10 26 10 16.09 0 26.09-9.91ZM189-241q60-52 131.5-83.5T480-356q88 0 159.5 30.5T771-243v-528H189v530Zm395.5-206.38q41.5-41.38 41.5-102.5T584.62-652q-41.38-41-102.5-41T379.5-652.12q-41.5 40.88-41.5 102t41.38 102.62q41.38 41.5 102.5 41.5t102.62-41.38ZM235-189h490v-4q-54-46-116-68.5T480-284q-67 0-129 22.5T235-193v4Zm196-309.62q-21-21.62-21-51.5T431.12-601q21.12-21 51-21T533-600.88q21 21.12 21 51t-21.12 51.38q-21.12 21.5-51 21.5T431-498.62Zm49-8.38Z"/></svg>