<svg xmlns="http://www.w3.org/2000/svg" width="48" height="48" viewBox="0 -960 960 960"><path d="M509-803q12-12 12-29t-12-29q-12-12-29-12t-29 12q-12 12-12 29t12 29q12 12 29 12t29-12ZM724-27q-78 0-133-55.5T536-214q0-77 55-133t133-56q77 0 132.5 56T912-214q0 76-55.5 131.5T724-27ZM189-95q-39.03 0-66.51-27.49Q95-149.97 95-189v-582q0-39.44 27.49-67.22Q149.97-866 189-866h180q11-35 41-57.5t70-22.5q40 0 70 22.5t41 57.5h180q39.44 0 67.22 27.78T866-771v289q0 21-18.5 32t-39.5 3q-19.73-6-40.78-10-21.06-4-43.22-4-14 0-27 1.5t-26 4.5v-10q-4-13-9-23-4-8-9.62-15-5.63-7-11.76-7H319.28q-13.28 0-21.78 8.5Q289-493 289-480t8.5 21.5q8.5 8.5 21.58 8.5H632q-37 16-66 42t-48 59H319q-13 0-21.5 8.5T289-319q0 13 8.5 21.5T319-289h168q-6 18-8.5 37.6T476-212q0 15.1 2.56 30.69 2.55 15.59 6.44 30.31 5 21-7 38.5T445-95H189Zm509-91v83q0 12 8.3 19.5T726-76q11.4 0 19.2-8 7.8-8 7.8-20v-82h83q11.4 0 19.2-8.21 7.8-8.22 7.8-19.5 0-11.29-7.8-19.29t-19.2-8h-83v-83q0-11.4-7.8-19.2-7.8-7.8-19.2-7.8-11.4 0-19.7 7.8-8.3 7.8-8.3 19.2v83h-83q-11.4 0-19.2 7.93-7.8 7.93-7.8 19.5t8.3 19.57q8.3 8 19.7 8h82ZM319-611h322q13 0 21.5-8.5T671-641q0-13-8.5-21.5T641-671H319q-13 0-21.5 8.5T289-641q0 13 8.5 21.5T319-611Z"/></svg>