<svg xmlns="http://www.w3.org/2000/svg" width="48" height="48" viewBox="0 96 960 960"><path d="M451 716q14 14 33 14t33-14l104-105q12-12.267 11.5-27.633Q632 568 620 555.957q-12-12.044-27-12Q578 544 566 556l-47 45V452q0-16.825-11.193-27.912Q496.614 413 480.307 413 464 413 453 424.088 442 435.175 442 452v149l-43-44q-12-12-26.8-12.535-14.8-.535-27 11.693T333 583.693Q333 599 345 611l106 105ZM189 964q-39.025 0-66.513-27.781Q95 908.438 95 869V287q0-39.025 27.487-66.512Q149.975 193 189 193h180q11-36 41-58t70-22q40 0 70 22t41 58h180q39.438 0 67.219 27.488Q866 247.975 866 287v582q0 39.438-27.781 67.219Q810.438 964 771 964H189Zm291-697q17.467 0 29.233-11.767Q521 243.467 521 226.5t-11.767-29.233Q497.467 185 480 185t-29.233 12.2Q439 209.4 439 226q0 17.467 11.767 29.233Q462.533 267 480 267Z"/></svg>