<svg xmlns="http://www.w3.org/2000/svg" width="48" height="48" viewBox="0 96 960 960"><path d="m780 399-51.188-113.812L616 235l112.812-52.188L780 71l50.875 111.812L943 235l-112.125 50.188L780 399Zm0 681-51.188-112.812L616 916l112.812-51.188L780 752l50.875 112.812L943 916l-112.125 51.188L780 1080ZM224 703h37.983l27.362-78H413l28.269 78H479L367.769 392H334L224 703Zm76-106 51-164 52 164H300Zm51.229 312Q212 909 114.5 811.934t-97.5-236Q17 437 114.566 339.5t236.5-97.5Q490 242 587.5 339.271t97.5 236.5Q685 715 587.729 812t-236.5 97Z"/></svg>