<svg xmlns="http://www.w3.org/2000/svg" width="48" height="48" viewBox="0 -960 960 960"><path d="M479.994-55q-115.162 0-197.078-75.5T201-319v-396q0-81.417 59.5-136.208Q320-906 401.765-906q81.764 0 141 54.792Q602-796.417 602-715v310q0 17.625-12.738 30.312Q576.524-362 558.825-362 540-362 527.5-374.688 515-387.375 515-405v-309q1-45.26-33-75.13Q448-819 401.789-819q-46.212 0-80 29.43Q288-760.14 288-715v396q1 77.253 57.471 127.626Q401.942-141 480.602-141q25.144 0 49.771-6Q555-153 576-165q15-8 32-1.5t25 21.5q7 16 1 32.5T612-88q-30 16-62.85 24.5-32.849 8.5-69.156 8.5ZM716-108q-18.75 0-31.375-12.5T672-152v-63h-63q-17.625 0-30.312-12.763Q566-240.526 566-258.263 566-276 578.688-289q12.687-13 30.312-13h63v-63q0-17.625 12.675-30.312 12.676-12.688 31-12.688Q734-408 746.5-395.312 759-382.625 759-365v63h63q18.05 0 31.025 12.965Q866-276.07 866-258.035T853.025-227.5Q840.05-215 822-215h-63v63q0 18-12.688 31-12.687 13-30.312 13ZM401.825-258Q383-258 370.5-270.625T358-302v-364q0-17.625 12.675-30.312 12.676-12.688 31-12.688Q420-709 432.5-696.312 445-683.625 445-666v364q0 18.75-12.738 31.375T401.825-258Zm314-210Q697-468 684.5-480.625T672-512.448v-181.104q0-19.198 12.675-31.823 12.676-12.625 31-12.625Q734-738 746.5-725.375t12.5 31.823v181.104q0 19.198-12.738 31.823T715.825-468Z"/></svg>