<svg xmlns="http://www.w3.org/2000/svg" width="48" height="48" viewBox="0 96 960 960"><path d="M460.09 1004Q357 1004 284.5 932.945 212 861.891 212 760V319q0-73.9 51.712-125.95Q315.425 141 389.062 141q74.637 0 126.288 52.05Q567 245.1 567 320v399q0 45-31 76.5T459.5 827q-45.5 0-76-33T353 714V348q0-13.5 8.75-22.25T384 317q13 0 22.5 8.75T416 348v369q0 19.875 12.805 33.938Q441.611 765 460.105 765q18.495 0 31.195-13.562Q504 737.875 504 719V319q0-48-33.5-81T389 205q-48 0-81.5 33T274 319v442.655q0 76.317 54.376 128.331Q382.752 942 459.876 942 538 942 592 889.588 646 837.175 646 760V348q0-13.5 8.75-22.25t22.041-8.75q13.29 0 22.75 8.75Q709 334.5 709 348v411q0 101.891-72.91 173.445-72.911 71.555-176 71.555Z"/></svg>