<svg xmlns="http://www.w3.org/2000/svg" width="48" height="48" viewBox="0 96 960 960"><path d="M294 833q-102.709 0-174.355-72.91Q48 687.18 48 584.09T119.055 408Q190.109 335 292 335h442q74.112 0 125.556 52.363t51.444 126Q911 587 859.556 639T734 691H333q-45 0-76.5-31T225 584q0-45 32-76t78-31h367q13 0 22.5 8.75T734 508q0 13.5-9.5 22.25T702 539H334q-18.45 0-32.225 13.088-13.775 13.087-13.775 32Q288 603 301.275 615.5T333 628h401.417q47.825 0 80.704-33.5Q848 561 848 513q0-47-33-81t-81-34H290.345q-76.317 0-127.831 54.376Q111 506.752 111 583.876 111 662 163.413 715.5 215.825 769 293 769h409q13 0 22.5 9.867Q734 788.733 734 801q0 12.7-9.5 22.35Q715 833 702 833H294Z"/></svg>