<svg xmlns="http://www.w3.org/2000/svg" width="48" height="48" viewBox="0 -960 960 960"><path d="M481.183-216q17.717 0 29.767-12.47T523-259v-132h32q10 0 17-7t7-17v-153q0-23.036-24.205-34.018Q530.591-613 480.5-613t-74.795 10.982Q381-591.036 381-568v153q0 10 7 17t17 7h33v132.556q0 17.924 12.523 30.184Q463.046-216 481.183-216ZM480-55q-89.035 0-166.518-33Q236-121 178.5-178.5T88-313.482Q55-390.965 55-480q0-88.728 33-166.364Q121-724 178.368-781.549q57.368-57.55 134.935-91Q390.87-906 480-906q88.728 0 166.268 33.282 77.54 33.283 135.353 91.097 57.814 57.813 91.097 135.353Q906-568.728 906-480q0 89.13-33.451 166.697-33.45 77.567-91 134.935Q724-121 646.364-88 568.728-55 480-55Zm0-587q21.4 0 36.7-14.8Q532-671.6 532-693q0-21.4-15.3-36.7Q501.4-745 480-745q-21.4 0-36.7 15.3Q428-714.4 428-693q0 21.4 15.3 36.2Q458.6-642 480-642Z"/></svg>