<svg xmlns="http://www.w3.org/2000/svg" width="48" height="48" viewBox="0 96 960 960"><path d="M426.5 870q43.5 0 74.5-30.211T532 767V553h86q13 0 21.5-8.5T648 523q0-13-8.5-21.5T618 493h-79q-20 0-33.5 13.5T492 540v148q-12-10-29.359-16T427 666q-42 0-70.5 29T328 765.5q0 42.5 28.5 73.5t70 31ZM229 1001q-39.05 0-66.525-27.475Q135 946.05 135 907V245q0-39.463 27.475-67.231Q189.95 150 229 150h323q18.511 0 36.756 8Q607 166 620 179l177 177q13 13 21 31.244 8 18.245 8 36.756v483q0 39.05-27.769 66.525Q770.463 1001 731 1001H229Zm360-570h142L542 245v139q0 20 13.5 33.5T589 431Z"/></svg>