<svg xmlns="http://www.w3.org/2000/svg" width="48" height="48" viewBox="0 0 48 48"><path d="M5.1 38.55V9.45q0-2 1.375-3.375T9.85 4.7h15.5q.95 0 1.6.675.65.675.65 1.575h4.9q2 0 3.375 1.375T37.25 11.7V24q0 1-.725 1.675t-1.675.675q-1 0-1.675-.675T32.5 24V11.7h-4.9v29.2q0 1-.675 1.675t-1.675.675H3.6q-1 0-1.675-.675T1.25 40.8q0-.95.65-1.6.65-.65 1.6-.65ZM18.35 26.3q.95 0 1.625-.65T20.65 24q0-.95-.65-1.625t-1.65-.675q-1 0-1.65.65-.65.65-.65 1.65 0 .95.65 1.625t1.65.675Zm-8.5 12.25H22.9V9.45H9.85Zm28 .3 1.45 3.4q.15.35.55.35t.55-.35l1.5-3.4 3.7-1.65q.35-.15.35-.55t-.35-.55l-3.7-1.6-1.5-3.3q-.15-.3-.55-.3t-.55.3l-1.45 3.3-3.7 1.6q-.35.15-.35.55t.35.55Zm-28-.3V9.45v29.1Z"/></svg>