<svg xmlns="http://www.w3.org/2000/svg" width="48" height="48" viewBox="0 -960 960 960"><path d="M419.98-404.06Q430-414.13 430-429v-262q0-14.88-10.09-24.94t-25-10.06q-14.91 0-25.41 10.06T359-691v262q0 14.87 10.57 24.94Q380.14-394 395.05-394t24.93-10.06Zm171 0Q601-414.13 601-429v-262q0-14.88-10.09-24.94t-25-10.06q-14.91 0-25.41 10.06T530-691v262q0 14.87 10.57 24.94Q551.14-394 566.05-394t24.93-10.06ZM215-215l-79 79q-23 23-52 10.97T55-168v-643q0-39.46 27.47-67.23Q109.95-906 149-906h662q39.46 0 67.23 27.77Q906-850.46 906-811v502q0 39.05-27.77 66.52Q850.46-215 811-215H215Zm-26-94h622v-502H149v548l40-46Zm-40 0v-502 502Z"/></svg>