<svg xmlns="http://www.w3.org/2000/svg" width="48" height="48" viewBox="0 96 960 960"><path d="M81.325 761Q61 761 47.5 747.375 34 733.75 34 714V225q0-40.213 27.394-67.606Q88.787 130 129 130h489q19.75 0 33.375 13.675 13.625 13.676 13.625 34Q665 198 651.375 211.5 637.75 225 618 225H129v489q0 19.75-13.675 33.375Q101.649 761 81.325 761Zm131.5 120Q193 881 179.5 867.375 166 853.75 166 834V356q0-40.213 27.1-67.606Q220.2 261 260 261h478q19.75 0 33.375 14.263t13.625 34Q785 329 771.375 342.5 757.75 356 738 356H260v478q0 19.75-13.675 33.375Q232.649 881 212.825 881ZM831 1022H391q-38.75 0-66.375-27.394Q297 967.213 297 927V487q0-38.75 27.625-66.375T391 393h440q40.213 0 67.606 27.625Q926 448.25 926 487v440q0 40.213-27.394 67.606Q871.213 1022 831 1022Zm0-95V487H391v440h440ZM391 487v440-440Z"/></svg>