<svg xmlns="http://www.w3.org/2000/svg" width="48" height="48" viewBox="0 96 960 960"><path d="M670.5 548q91.48 0 155.99 64.218Q891 676.435 891 767.5q0 91.48-64.429 155.49T669.986 987Q579 987 515.5 923.071 452 859.142 452 766.986 452 676 515.718 612q63.717-64 154.782-64ZM695 757.582V667q0-10.2-7.571-17.6-7.572-7.4-18-7.4Q659 642 651 649.4q-8 7.4-8 17.6v93q0 8.565 3.5 16.783Q650 785 657 792l60.727 60.727Q725 860 735 860t17.5-8q7.5-8 8-18t-7.5-18.038l-58-58.38ZM377 172h187q19.75 0 33.375 14.188Q611 200.375 611 220h185q19.75 0 33.375 13.675Q843 247.351 843 267.175 843 287 829.375 300.5 815.75 314 796 314h-13v193q-22-13-52-19.5t-55-6.5q-19 0-40.5 3.5T597 493v-64q0-15.475-11.57-26.737Q573.86 391 557.93 391t-27.43 11.263Q519 413.525 519 429v97.528Q491 544 464.5 573.5T423 631V429q0-15.475-11.368-26.737-11.369-11.263-27-11.263Q369 391 357.5 402.263 346 413.525 346 429v322q0 15.475 11.763 27.237Q369.525 790 385 790h2q2 43.562 23 90.781Q431 928 459 961H253q-39.462 0-67.231-27.475Q158 906.05 158 867V314h-13q-19.75 0-33.375-13.675Q98 286.649 98 266.825 98 247 111.625 233.5 125.25 220 145 220h185q0-20 13.625-34T377 172Z"/></svg>