<svg xmlns="http://www.w3.org/2000/svg" width="48" height="48" viewBox="0 -960 960 960"><path d="M289-254q-46 39-96.5 35T105-254q-36-31-49-80t19-102l77-129q-26-24-41-57t-15-70q0-73 50.5-124t123-51q72.5 0 123.5 51t51 123.5q0 72.5-51 123.5t-123 51q-9 0-18-1t-17-4l-80 135q-11 19-7 36t17 27.5q13 10.5 30 12t33-12.5l444-381q47-40 98-37t87 35q36 32 48 81.5T886-525l-75 130q26 23 41 56t15 70q0 73-51.5 123.5T691-95q-72 0-122.5-50.5T518-269q0-72 50.5-123T691-443q9 0 17.5.5T726-440l80-133q11-18 6-35.5T794-636q-13-10-30-11.5T733-636L289-254Z"/></svg>