<svg xmlns="http://www.w3.org/2000/svg" width="48" height="48" viewBox="0 0 48 48"><path d="M3.5 29.5q-1 0-1.675-.675T1.15 27.15q0-1 .675-1.7t1.675-.7H8q1 0 1.675.7t.675 1.7q0 1-.675 1.675T8 29.5Zm11.25-11.65q-.75.7-1.675.7t-1.675-.7L7.65 14.1q-.75-.7-.725-1.65.025-.95.775-1.7.7-.7 1.65-.7t1.65.7l3.75 3.8q.7.7.7 1.625t-.7 1.675ZM16.5 37.7q-1.4 0-2.375-.95-.975-.95-.975-2.4 0-1.4.975-2.375Q15.1 31 16.5 31h15q1.4 0 2.375.975.975.975.975 2.375 0 1.45-.975 2.4t-2.375.95ZM24 14q-1 0-1.675-.675t-.675-1.675v-7q0-1 .675-1.7T24 2.25q1 0 1.675.7t.675 1.7v7q0 1-.675 1.675T24 14Zm9.2 3.85q-.7-.75-.675-1.675.025-.925.725-1.625l3.7-3.75q.7-.7 1.675-.675.975.025 1.675.775.7.7.675 1.65-.025.95-.675 1.65l-3.7 3.7q-.75.75-1.7.7-.95-.05-1.7-.75ZM40 29.5q-1 0-1.675-.675t-.675-1.675q0-1 .675-1.7t1.675-.7h4.5q1 0 1.675.7t.675 1.7q0 1-.675 1.675T44.5 29.5Z"/></svg>