<svg xmlns="http://www.w3.org/2000/svg" width="48" height="48" viewBox="0 -960 960 960"><path d="M110-370q-19.75 0-33.37-13.68Q63-397.35 63-417.18 63-437 76.63-451q13.62-14 33.37-14h50q19.75 0 33.38 14.18 13.62 14.17 13.62 34 0 19.82-13.62 33.32Q179.75-370 160-370h-50Zm151.5-219q-18.5 0-33.5-14l-44-43q-14-15-14-33.5t15-33.5q15-15 33.5-15t33.5 15l43 44q14 14 14 32.5t-14.5 33Q280-589 261.5-589ZM330-206q-27.83 0-47.42-19.12Q263-244.24 263-272.62t19.58-47.88Q302.17-340 330-340h300q27.83 0 47.42 19.62 19.58 19.62 19.58 48T677.42-225q-19.59 19-47.42 19H330Zm116.5-487.63Q433-707.25 433-727v-60q0-19.75 13.68-33.88Q460.35-835 480.18-835q19.82 0 33.32 14.12Q527-806.75 527-787v60q0 19.75-13.68 33.37Q499.65-680 479.82-680q-19.82 0-33.32-13.63ZM663.61-603Q650-617 650.5-636.5T664-669l43-43q14-14 34-13.5t34.39 14.5q13.61 14 13.11 33T774-645l-42 42q-14 14-34 14t-34.39-14ZM800-370q-19.75 0-33.37-13.68Q753-397.35 753-417.18 753-437 766.63-451q13.62-14 33.37-14h50q19.75 0 33.38 14.18 13.62 14.17 13.62 34 0 19.82-13.62 33.32Q869.75-370 850-370h-50Z"/></svg>