<svg xmlns="http://www.w3.org/2000/svg" width="48" height="48" viewBox="0 96 960 960"><path d="M336.333 584Q319 584 307.5 572.512T296 543.316q0-17.709 11.488-29.512Q318.976 502 336.684 502q17.334 0 29.825 11.979T379 543.667q0 17.708-12.667 29.021-12.666 11.312-30 11.312Zm286.492 0q-17.125 0-29.475-11.488Q581 561.024 581 543.316q0-17.709 12.667-29.512 12.666-11.804 30-11.804Q641 502 653 513.979t12 29.688q0 17.708-12.125 29.021Q640.749 584 622.825 584ZM169 1004q-34.238 0-58.619-23.775T86 922V744q0-24.947 11.5-41.974Q109 685 126 675V502q0-69 26-133t73.5-113Q273 207 338 177t142-30q77 0 142 30t112.5 79q47.5 49 74 113T835 502v173q15 10 27.5 27.5T875 744v178q0 34.45-24.675 58.225T791 1004H169Zm0-260v178h93V744h-93Zm176 178h94V744h-94v178ZM209 662h230V234q-93 13-161.5 88T209 502v160Zm312 0h230V502q0-105-68.5-180T521 234v428Zm0 260h94V744h-94v178Zm177 0h93V744h-93v178Z"/></svg>