<svg xmlns="http://www.w3.org/2000/svg" width="48" height="48" viewBox="0 96 960 960"><path d="M102 951q-19.75 0-33.375-13.675Q55 923.649 55 903.825 55 884 68.625 870.5 82.25 857 102 857h756q19.625 0 33.812 13.675Q906 884.351 906 904.175 906 924 891.812 937.5 877.625 951 858 951H102Zm59.529-169q-28.112 0-47.321-19.542Q95 742.917 95 715V578q0-28.333 19.473-48.167Q133.946 510 161.765 510q27.818 0 47.527 19.833Q229 549.667 229 578v137q0 27.917-19.679 47.458Q189.642 782 161.529 782Zm211.353 0q-27.965 0-47.424-19.542Q306 742.917 306 715V378q0-28.333 19.576-48.167Q345.152 310 373.118 310q27.965 0 47.424 19.833Q440 349.667 440 378v337q0 27.917-19.576 47.458Q400.848 782 372.882 782Zm212 0q-27.965 0-47.424-19.542Q518 742.917 518 715V498q0-28.333 19.679-48.167Q557.358 430 585.471 430q28.112 0 47.821 19.833Q653 469.667 653 498v217q0 27.917-19.868 47.458Q613.265 782 584.882 782Zm213 0q-27.965 0-47.424-19.542Q731 742.917 731 715V258q0-28.333 19.679-48.167Q770.358 190 798.471 190q28.112 0 47.821 19.833Q866 229.667 866 258v457q0 27.917-19.868 47.458Q826.265 782 797.882 782Z"/></svg>