<svg xmlns="http://www.w3.org/2000/svg" width="48" height="48" viewBox="0 0 48 48"><path d="M9.45 22.55v4.75q-.9.45-1.45 1.1-.55.65-.55 1.4 0 .55.325 1.1t.875 1l1.5.25 3 .05h1.4q.4 0 .725.2.325.2.425.6l.05.2 2.15-.9q.05 0 .9-.1h8.1q.3 0 .55.1.25.1.4.35l1.3 1.75 6.2-.95 2.2-3.1q.2-.2.425-.325.225-.125.525-.125h2.1v-.15q-.05-.8-.625-1.475T38.6 27.3v-4.75q3.2 1.6 4.775 3.325Q44.95 27.6 44.95 29.75v.35l1.8 2.75q.15.25.175.55.025.3-.025.5L45 39.45q-.1.4-.425.6-.325.2-.675.2h-6.3l.05.25q.1.45-.1.8-.2.35-.55.5l-4.5 1.8q-.1 0-.85.1H16.8q-.4 0-.7-.2-.3-.2-.4-.55l-.3-.75-5.8 1.4q-.25.05-.55.025-.3-.025-.5-.225L1.5 38.25q-.25-.15-.375-.4T1 37.3v-4.35q0-.35.175-.625t.475-.475l1.55-.75q-.05-.3-.075-.625Q3.1 30.15 3.1 29.8q0-2.15 1.55-3.9t4.8-3.35Zm1.35-4.3q-1.1-1.6-1.775-3.4-.675-1.8-.675-3.7 0-.4.025-.825Q8.4 9.9 8.45 9.5q.1-.9.725-1.55t1.475-.65q.9 0 1.525.65.625.65.575 1.55-.05.4-.075.725-.025.325-.025.725 0 1.65.775 3.075.775 1.425 1.675 2.725 1.1 1.5 1.775 3.25.675 1.75.675 3.6 0 .25-.025.45t-.025.45q-.05.9-.65 1.525-.6.625-1.45.625-.95 0-1.6-.625-.65-.625-.6-1.525.05-.25.05-.5v-.5q0-1.5-.775-2.75t-1.675-2.5Zm8.75 0q-1.1-1.6-1.775-3.4-.675-1.8-.675-3.7 0-.4.025-.825.025-.425.075-.825.1-.9.725-1.55T19.4 7.3q.9 0 1.525.65.625.65.575 1.55-.05.4-.075.725-.025.325-.025.725 0 1.65.775 3.075.775 1.425 1.675 2.725 1.1 1.5 1.775 3.25.675 1.75.675 3.6 0 .25-.025.45t-.025.45q-.05.9-.65 1.525-.6.625-1.45.625-.95 0-1.6-.625-.65-.625-.6-1.525.05-.25.05-.5v-.5q0-1.5-.775-2.75t-1.675-2.5Zm8.75 0q-1.1-1.6-1.775-3.4-.675-1.8-.675-3.7 0-.4.025-.825.025-.425.075-.825.1-.9.725-1.55t1.475-.65q.9 0 1.525.65.625.65.575 1.55-.05.4-.075.725-.025.325-.025.725 0 1.65.775 3.075.775 1.425 1.675 2.725 1.1 1.5 1.775 3.25.675 1.75.675 3.6 0 .25-.025.45T35 24.5q-.05.9-.65 1.525-.6.625-1.45.625-.95 0-1.6-.625-.65-.625-.6-1.525.05-.25.05-.5v-.5q0-1.5-.775-2.75t-1.675-2.5Z"/></svg>