<svg xmlns="http://www.w3.org/2000/svg" width="48" height="48" viewBox="0 -960 960 960"><path d="M353-233q16 0 27.5-11.5T392-272q0-16-11.5-27.5T353-311q-16 0-27.5 11.5T314-272q0 16 11.5 27.5T353-233Zm127 0q16 0 27.5-11.5T519-272q0-16-11.5-27.5T480-311q-16 0-27.5 11.5T441-272q0 16 11.5 27.5T480-233Zm127 0q16 0 27.5-11.5T646-272q0-16-11.5-27.5T607-311q-16 0-27.5 11.5T568-272q0 16 11.5 27.5T607-233ZM353-359q16 0 27.5-11.5T392-398q0-16-11.5-27.5T353-437q-16 0-27.5 11.5T314-398q0 16 11.5 27.5T353-359Zm127 0q16 0 27.5-11.5T519-398q0-16-11.5-27.5T480-437q-16 0-27.5 11.5T441-398q0 16 11.5 27.5T480-359Zm127 0q16 0 27.5-11.5T646-398q0-16-11.5-27.5T607-437q-16 0-27.5 11.5T568-398q0 16 11.5 27.5T607-359ZM480.24-733Q392-733 330.5-671.67 269-610.34 269-522q0 15.675 10.638 26.337Q290.275-485 306-485h348q15.725 0 26.362-10.638Q691-506.275 691-522q0-88.34-61.26-149.67Q568.481-733 480.24-733Zm-.24 61q55 0 98.5 34.5T630-546H330q8-57 51.5-91.5T480-672ZM149-55q-39.05 0-66.525-27.475Q55-109.95 55-149v-662q0-39.463 27.475-67.231Q109.95-906 149-906h662q39.463 0 67.231 27.769Q906-850.463 906-811v662q0 39.05-27.769 66.525Q850.463-55 811-55H149Zm0-94h662v-662H149v662Zm0 0v-662 662Z"/></svg>