<svg xmlns="http://www.w3.org/2000/svg" width="48" height="48" viewBox="0 -960 960 960"><path d="M297.496-55q-21.246 0-34.871-13.625Q249-82.25 249-102v-692q0-19.625 13.625-33.812Q276.25-842 297-842h86v-16q0-19.625 13.625-33.812Q410.25-906 430-906h100q19.75 0 33.375 14.188Q577-877.625 577-858v16h87q19.75 0 33.375 14.188Q711-813.625 711-794v692q0 19.75-13.625 33.375T664-55H297.496ZM344-149h272v-598H344v598Zm0 0h272-272Zm136.263-247Q498-396 511-408.688q13-12.687 13-30.312v-180q0-18.05-12.965-31.025Q498.07-663 480.035-663T449.5-650.025Q437-637.05 437-619v180q0 17.625 12.763 30.312Q462.526-396 480.263-396Zm-.254 162q18.009 0 31-12.5T524-277.009q0-18.009-13.116-31T479.509-321Q462-321 449.5-307.884T437-276.509Q437-259 449.5-246.5t30.509 12.5Z"/></svg>