<svg xmlns="http://www.w3.org/2000/svg" width="48" height="48" viewBox="0 0 48 48"><path d="m37 40.35-2.55 2.55q-.7.65-1.65.65t-1.65-.7q-.75-.7-.75-1.65t.75-1.7l2.5-2.5-2.55-2.55q-.7-.75-.7-1.675t.75-1.675q.75-.7 1.675-.7t1.675.7l2.5 2.55 2.55-2.55q.7-.7 1.675-.675.975.025 1.675.725.7.7.675 1.65-.025.95-.675 1.65L40.35 37l2.55 2.55q.65.7.65 1.65t-.7 1.65q-.7.7-1.65.7t-1.65-.65ZM14.85 45.7q-1.05 0-1.725-.675t-.675-1.675V7.85q0-1 .675-1.7t1.725-.7h4.3v-.8q0-1 .675-1.7t1.675-.7h5q1 0 1.675.7t.675 1.7v.8h4.35q1 0 1.675.7t.675 1.7V25.4q-4.35.35-7.325 3.825Q25.25 32.7 25.25 37q0 2.6.925 4.775Q27.1 43.95 29 45.7Z"/></svg>