<svg xmlns="http://www.w3.org/2000/svg" width="48" height="48" viewBox="0 0 48 48"><path d="M31.65 38.35H28q-1 0-1.675-.675T25.65 36q0-1 .675-1.675T28 33.65h3.65V30q0-1 .675-1.675T34 27.65q1 0 1.675.675T36.35 30v3.65H40q1 0 1.675.675T42.35 36q0 1-.675 1.675T40 38.35h-3.65V42q0 1-.675 1.675T34 44.35q-1 0-1.675-.675T31.65 42Zm-16.8 7.35q-1.05 0-1.725-.675t-.675-1.675V7.85q0-1 .675-1.7t1.725-.7h4.3v-.8q0-1 .675-1.7t1.675-.7h5q1 0 1.675.7t.675 1.7v.8h4.35q1 0 1.675.7t.675 1.7V24.2q-5.4-.7-9.425 2.85T22.1 36q0 2.85 1.25 5.425Q24.6 44 26.9 45.7Z"/></svg>