<svg xmlns="http://www.w3.org/2000/svg" width="48" height="48" viewBox="0 -960 960 960"><path d="M534-536q52 53 125.5 82.5T822-420q33 4 49.5 30.5T876-334q-13 32-28.5 57.5T813-230q-14 19-37.5 20.5T734-226L225-736q-17-17-16-39.5t19-36.5q23-21 48.5-37t54.5-27q28-15 56.5 1.5T419-825q4 88 32.5 161.5T534-536ZM761 1 657-102q-41 19-84.5 28T484-65q-87 0-163-33t-133-90q-57-57-90-133T65-484q0-45 9-88t28-84L-1-759q-11-11-11-25.5T-1-810q11-11 26-11t26 11L811-48q11 10 11 24.5T811 2q-11 11-25 10.5T761 1Z"/></svg>