<svg xmlns="http://www.w3.org/2000/svg" width="48" height="48" viewBox="0 -960 960 960"><path d="m454-626-88-88q-1-14 1.5-38.5T374-794q-16 6-32.5 14.5T316-765l-68-67q35-24 80.382-41.912Q373.765-891.824 423-899q33-5 49 16.5t4 57.5q-17 51-22.5 104.5t.5 94.5ZM873-21 744-150q-52 43-122.442 70.5T478-52q-92.188 0-170.594-32.5Q229-117 172.263-174.008q-56.737-57.007-88.5-134.989Q52-386.98 52-479.686 52-553 76.97-619.406 101.939-685.811 148-747l-99-98q-11-11-11-24.5T48.522-894Q59-905 73.5-905.5 88-906 99-895L924-71q10 10 9.5 25T923-21.044Q913-10 898-10t-25-11ZM477.637-147Q530-147 582.5-166t96.5-50L216.138-679Q181-639 163.5-586.679 146-534.357 146-480q0 146 92.771 239.5 92.77 93.5 238.866 93.5ZM386-508Zm-20-206Z"/></svg>