<svg xmlns="http://www.w3.org/2000/svg" width="48" height="48" viewBox="0 96 960 960"><path d="M0 866v-72h158q6-73 57.5-130.5T338 594l-53-251H162.13q-16.28 0-26.205-9.975-9.925-9.976-9.925-26.2 0-16.225 9.925-26.025 9.925-9.8 26.205-9.8H274q29.875 0 52.438 16Q349 303 356 332l69 326h-28q-69.65 0-118.825 48.912Q229 755.825 229 827v39H0Zm399.118 76q-48.535 0-81.826-33.174Q284 875.652 284 827.118q0-48.535 33.174-81.826Q350.348 712 398.882 712q48.535 0 81.826 33.174Q514 778.348 514 826.882q0 48.535-33.174 81.826Q447.652 942 399.118 942ZM399 870q18 0 30.5-12.5T442 827q0-18-12.5-30.5T399 784q-18 0-30.5 12.5T356 827q0 18 12.5 30.5T399 870Zm365-49q-72.398 0-128.699-45Q579 731 567 664h-84l-10-72h93.829Q572 565 583 541.5t30-40.5H449l-16-72h217l-49.926-147H479q-15.3 0-25.65-9.975-10.35-9.976-10.35-26.2 0-16.225 10.35-26.025Q463.7 210 479 210h115q24 0 44.45 13.115 20.45 13.116 28.739 36.026L724.326 426H764q83.02 0 139.51 56.782Q960 539.565 960 623q0 82-57 140t-139 58Zm0-70q52.025 0 88.513-37.114Q889 676.772 889 624.895 889 573 853.5 538 818 503 772 502h-18l26 76q5 14-.467 26.757Q774.067 617.514 759 623q-13.381 4-26.614-1.833Q719.154 615.333 714 601l-28-74q-23.762 15.571-35.881 42.286Q638 596 638 624.919q0 51.867 37.2 88.974Q712.4 751 764 751Zm-365 76Zm364-200Z"/></svg>