<svg xmlns="http://www.w3.org/2000/svg" width="48" height="48" viewBox="0 -960 960 960"><path d="M230-109q-17.3 0-29.15-11.79-11.85-11.79-11.85-29T200.85-179q11.85-12 29.15-12h167v-82h-15q-83-4-138-62.92-55-58.91-55-141.08 0-61 34-110t88-73q-2 22 3.5 43.5T333-579q-29.4 12.97-45.7 40.98Q271-510 271-477q0 50.67 35.67 86.33Q342.33-355 393-355h317q17.3 0 29.15 11.79 11.85 11.79 11.85 29T739.15-285Q727.3-273 710-273H519v82h211q17.3 0 29.15 11.79 11.85 11.79 11.85 29T759.15-121Q747.3-109 730-109H230Zm334-384-2-6-14 5q-15.58 7-30.79.5Q502-500 496-517l-13-33q27-12 43-38t16-57q0-55-41.5-88.5T407-756l-8-22q-7-17 .19-32.55 7.19-15.55 23.81-22.95l12-5-1-4q-5-12.5 3-26.5t39-25q14-6 27.5 0t19.5 20l2 5 12-4q14-5 29 1t21 21l101 262q6 17-1.5 33t-23.62 21L650-530l2 5q5 14-4 28t-38 24q-14 6-27-.5T564-493ZM387.5-606.5Q372-622 372-645t15.5-39q15.5-16 38.5-16t39 16q16 16 16 39t-16 38.5Q449-591 426-591t-38.5-15.5Z"/></svg>