<svg xmlns="http://www.w3.org/2000/svg" width="48" height="48" viewBox="0 -960 960 960"><path d="M360.75-321q-16.894 0-28.322-11.5T321-360.809v-66.247q0-4.944 4-9.944 4-5 9-5 12-4.333 19.5-15.167Q361-468 361-480q0-12-7.5-22.833Q346-513.667 334-518q-6 0-9.5-4.615Q321-527.231 321-533v-66.202Q321-616 332.428-627.5T360.75-639h238.5q16.894 0 28.322 11.5T639-599.191v66.247q0 4.944-4 9.944-4 5-9 5-12 4.333-19.5 15.167Q599-492 599-480q0 12 7.5 22.833Q614-446.333 626-442q6 0 9.5 4.615Q639-432.769 639-427v66.202Q639-344 627.572-332.5T599.25-321h-238.5ZM480-381q8 0 14-5.5t6-14.5q0-8-6-13.5t-14-5.5q-8 0-14 5.7t-6 13.3q0 9 6 14.5t14 5.5Zm0-79q8 0 14-6t6-14q0-8-6-14t-14-6q-8 0-14 6t-6 14q0 8 6 14t14 6Zm0-80q8 0 14-5.7t6-13.3q0-9-6-14.5t-14-5.5q-8 0-14 5.5t-6 14.5q0 8 6 13.5t14 5.5ZM271-17q-39.05 0-66.525-27.475Q177-71.95 177-111v-738q0-39.05 27.475-66.525Q231.95-943 271-943h418q39.05 0 66.525 27.475Q783-888.05 783-849v738q0 39.05-27.475 66.525Q728.05-17 689-17H271Zm0-124v30h418v-30H271Zm0-60h418v-558H271v558Zm0-618h418v-30H271v30Zm0 0v-30 30Zm0 678v30-30Z"/></svg>