<svg xmlns="http://www.w3.org/2000/svg" width="48" height="48" viewBox="0 -960 960 960"><path d="M403-154 215-74q-47 21-89.5-7.606Q83-110.21 83-162v-532q0-39.463 27.769-67.231Q138.538-789 178-789h450q39.05 0 67.025 27.769Q723-733.463 723-694v533q0 52.278-42 80.139Q639-53 592-74l-189-80Zm0-104 225 98v-534H178v534l225-98Zm426.325 105Q809-153 795.5-166.625 782-180.25 782-201v-648H317q-19.75 0-33.375-13.675Q270-876.351 270-896.175 270-916 283.625-929.5 297.25-943 317-943h465q39.463 0 67.231 27.475Q877-888.05 877-849v648q0 20.75-13.675 34.375-13.676 13.625-34 13.625ZM403-694H178h450-225Z"/></svg>