<svg xmlns="http://www.w3.org/2000/svg" width="48" height="48" viewBox="0 96 960 960"><path d="M829.325 903Q809 903 795.5 889.375 782 875.75 782 855V207H317q-19.75 0-33.375-13.675Q270 179.649 270 159.825 270 140 283.625 126.5 297.25 113 317 113h465q39.463 0 67.231 27.475Q877 167.95 877 207v648q0 20.75-13.675 34.375-13.676 13.625-34 13.625ZM178 896l225-98 225 98V362H178v534Zm-29 114q-23 11-44.5-2.5T83 967V362q0-39.463 27.769-67.231Q138.538 267 178 267h450q39.05 0 67.025 27.769Q723 322.537 723 362v605q0 27-21 40t-45 3L402.5 902 149 1010Zm29-648h450-450Z"/></svg>