<svg xmlns="http://www.w3.org/2000/svg" width="48" height="48" viewBox="0 -960 960 960"><path d="m729-724 119-119q11.067-13 28.033-13Q893-856 905-842.947q13 12.052 12.5 29Q917-797 905-785L763-640q-15.364 14-34.636 14-19.273 0-33.364-14l-59-60q-14-13-14-29.658t13.609-28.5Q648-771 664.967-771q16.966 0 29.033 13l35 34ZM480-212l-174 74q-47 20-89-7.939T175-225v-551q0-39.463 27.475-67.231Q229.95-871 269-871h230q19.75 0 33.375 14.263t13.625 34Q546-803 532.375-789.5 518.75-776 499-776H269v551l211-88.162L691-225v-274q0-19.625 13.675-33.812Q718.351-547 738.088-547q19.737 0 33.824 14.188Q786-518.625 786-499v274q0 51.122-42.5 79.061Q701-118 654-138l-174-74Zm0-564H269h277-66Z"/></svg>