<svg xmlns="http://www.w3.org/2000/svg" width="48" height="48" viewBox="0 96 960 960"><path d="M109 452v-82h82v82h-82Zm330 0v-82h82v82h-82Zm0 165v-82h82v82h-82Zm-330 0v-82h82v82h-82Zm165-330v-82h82v82h-82Zm-165 0v-82h82v82h-82Zm330 0v-82h82v82h-82Zm165 0v-82h82v82h-82ZM274 617v-82h82v82h-82Zm330 330v-82h82v82h-82Zm-165 0v-82h82v82h-82Zm371.035 0q-17.41 0-29.223-11.787Q769 923.425 769 906V246q0-17.425 11.777-29.213Q792.555 205 809.965 205q17.41 0 29.223 11.787Q851 228.575 851 246v660q0 17.425-11.777 29.213Q827.445 947 810.035 947ZM274 947v-82h82v82h-82ZM109 782v-82h82v82h-82Zm495-165v-82h82v82h-82ZM109 947v-82h82v82h-82Zm330-165v-82h82v82h-82Z"/></svg>