<svg xmlns="http://www.w3.org/2000/svg" width="48" height="48" viewBox="0 -960 960 960"><path d="M135.333-783q-17.708 0-29.021-11.979Q95-806.958 95-824.667q0-17.708 11.488-29.521Q117.976-866 135.684-866q17.709 0 29.512 12.125Q177-841.749 177-823.825q0 17.5-11.979 29.163Q153.042-783 135.333-783Zm172.492 0q-17.5 0-29.162-11.979Q267-806.958 267-824.667q0-17.708 11.979-29.521Q290.958-866 308.667-866q17.708 0 29.521 12.125Q350-841.749 350-823.825q0 17.5-12.125 29.163Q325.749-783 307.825-783Zm344.508 0q-17.708 0-29.521-11.979Q611-806.958 611-824.667q0-17.708 12.125-29.521Q635.251-866 653.175-866q17.5 0 29.163 12.125Q694-841.749 694-823.825q0 17.5-11.979 29.163Q670.042-783 652.333-783Zm171.492 0q-17.5 0-29.163-11.979Q783-806.958 783-824.667q0-17.708 11.979-29.521Q806.958-866 824.667-866q17.708 0 29.521 12.125Q866-841.749 866-823.825q0 17.5-12.125 29.163Q841.749-783 823.825-783ZM135.333-611q-17.708 0-29.021-12.125Q95-635.251 95-653.175q0-17.5 11.488-29.163Q117.976-694 135.684-694q17.709 0 29.512 11.979Q177-670.042 177-652.333q0 17.708-11.979 29.521Q153.042-611 135.333-611Zm688.492 0q-17.5 0-29.163-12.125Q783-635.251 783-653.175q0-17.5 11.979-29.163Q806.958-694 824.667-694q17.708 0 29.521 11.979Q866-670.042 866-652.333q0 17.708-12.125 29.521Q841.749-611 823.825-611ZM135.333-439q-17.708 0-29.021-11.777Q95-462.555 95-479.965q0-17.41 11.488-29.223Q117.976-521 135.684-521q17.709 0 29.512 11.777Q177-497.445 177-480.035q0 17.41-11.979 29.223Q153.042-439 135.333-439Zm172.492 0q-17.5 0-29.162-11.777Q267-462.555 267-479.965q0-17.41 11.979-29.223Q290.958-521 308.667-521q17.708 0 29.521 11.777Q350-497.445 350-480.035q0 17.41-12.125 29.223Q325.749-439 307.825-439Zm344.508 0q-17.708 0-29.521-11.777Q611-462.555 611-479.965q0-17.41 12.125-29.223Q635.251-521 653.175-521q17.5 0 29.163 11.777Q694-497.445 694-480.035q0 17.41-11.979 29.223Q670.042-439 652.333-439Zm171.492 0q-17.5 0-29.163-11.777Q783-462.555 783-479.965q0-17.41 11.979-29.223Q806.958-521 824.667-521q17.708 0 29.521 11.777Q866-497.445 866-480.035q0 17.41-12.125 29.223Q841.749-439 823.825-439ZM135.333-267q-17.708 0-29.021-11.979Q95-290.958 95-308.667q0-17.708 11.488-29.521Q117.976-350 135.684-350q17.709 0 29.512 12.125Q177-325.749 177-307.825q0 17.5-11.979 29.162Q153.042-267 135.333-267Zm688.492 0q-17.5 0-29.163-11.979Q783-290.958 783-308.667q0-17.708 11.979-29.521Q806.958-350 824.667-350q17.708 0 29.521 12.125Q866-325.749 866-307.825q0 17.5-12.125 29.162Q841.749-267 823.825-267ZM135.333-95q-17.708 0-29.021-11.488Q95-117.976 95-135.684q0-17.709 11.488-29.512Q117.976-177 135.684-177q17.709 0 29.512 11.979Q177-153.042 177-135.333q0 17.708-11.979 29.021Q153.042-95 135.333-95Zm172.492 0q-17.5 0-29.162-11.488Q267-117.976 267-135.684q0-17.709 11.979-29.512Q290.958-177 308.667-177q17.708 0 29.521 11.979Q350-153.042 350-135.333q0 17.708-12.125 29.021Q325.749-95 307.825-95Zm344.508 0q-17.708 0-29.521-11.488Q611-117.976 611-135.684q0-17.709 12.125-29.512Q635.251-177 653.175-177q17.5 0 29.163 11.979Q694-153.042 694-135.333q0 17.708-11.979 29.021Q670.042-95 652.333-95Zm171.492 0q-17.5 0-29.163-11.488Q783-117.976 783-135.684q0-17.709 11.979-29.512Q806.958-177 824.667-177q17.708 0 29.521 11.979Q866-153.042 866-135.333q0 17.708-12.125 29.021Q841.749-95 823.825-95Zm-343.79 0q-17.41 0-29.223-11.438Q439-117.875 439-136v-688q0-17.85 11.777-29.925Q462.555-866 479.965-866q17.41 0 29.223 12.075Q521-841.85 521-824v688q0 18.125-11.777 29.562Q497.445-95 480.035-95Z"/></svg>