<svg xmlns="http://www.w3.org/2000/svg" width="48" height="48" viewBox="0 96 960 960"><path d="M109 947v-82h82v82h-82Zm0-165v-82h82v82h-82Zm0-165v-82h82v82h-82Zm0-165v-82h82v82h-82Zm0-165v-82h82v82h-82Zm165 660v-82h82v82h-82Zm0-330v-82h82v82h-82Zm0-330v-82h82v82h-82Zm206.035 660q-17.41 0-29.223-11.787Q439 923.425 439 906V246q0-17.425 11.777-29.213Q462.555 205 479.965 205q17.41 0 29.223 11.787Q521 228.575 521 246v660q0 17.425-11.777 29.213Q497.445 947 480.035 947ZM604 947v-82h82v82h-82Zm0-330v-82h82v82h-82Zm0-330v-82h82v82h-82Zm165 660v-82h82v82h-82Zm0-165v-82h82v82h-82Zm0-165v-82h82v82h-82Zm0-165v-82h82v82h-82Zm0-165v-82h82v82h-82Z"/></svg>