<svg xmlns="http://www.w3.org/2000/svg" width="48" height="48" viewBox="0 -960 960 960"><path d="M285-295h120q11.75 0 20.875-8.675 9.125-8.676 9.125-21.5Q435-337 425.875-346T405-355H285q-12.75 0-21.375 9.175-8.625 9.176-8.625 21.5 0 12.325 8.625 20.825T285-295Zm0-155h120q11.75 0 20.875-8.675 9.125-8.676 9.125-21.5 0-12.825-9.125-21.325T405-510H285q-12.75 0-21.375 8.675-8.625 8.676-8.625 21.5 0 12.825 8.625 21.325T285-450Zm390.325-216Q663-666 654.5-656.875T646-636v155.6q0 12.92 8.675 21.66 8.676 8.74 21.5 8.74Q688-450 697-458.74t9-21.66V-636q0-11.75-9.175-20.875-9.176-9.125-21.5-9.125ZM285-606h120q11.75 0 20.875-8.675 9.125-8.676 9.125-21.5Q435-648 425.875-657T405-666H285q-12.75 0-21.375 9.175-8.625 9.176-8.625 21.5 0 12.325 8.625 20.825T285-606ZM141-95q-39.05 0-66.525-27.475Q47-149.95 47-189v-582q0-39.463 27.475-67.231Q101.95-866 141-866h678q39.463 0 67.231 27.769Q914-810.463 914-771v582q0 39.05-27.769 66.525Q858.463-95 819-95H141Zm0-94h678v-582H141v582Zm0 0v-582 582Zm535.175-106Q688-295 697-303.675q9-8.676 9-21.5Q706-337 696.825-346q-9.176-9-21.5-9-12.325 0-20.825 9.175-8.5 9.176-8.5 21.5 0 12.325 8.675 20.825 8.676 8.5 21.5 8.5Z"/></svg>