<svg xmlns="http://www.w3.org/2000/svg" width="48" height="48" viewBox="0 -960 960 960"><path d="M394-55q-46 0-90-10.5t-84.63-28.35q-13.84-5.23-21.11-17.19Q191-123 191-136.86q0-11.14 4.5-20.64T208-174q66.52-59.02 109.26-137.01Q360-389 360-479q0-90-42.74-167.98Q274.52-724.96 208-785q-8.6-7.03-13.3-16.74-4.7-9.71-4.7-20.26 0-14 7.5-25t21.5-16.74q41-19.26 85-30.76t91-11.5q86.19 0 162.09 34Q633-838 689.5-780.5t89 134.83q32.5 77.33 32.5 165T778.5-315.5Q746-238 689.5-180T557.09-88.5Q481.19-55 394-55Z"/></svg>