<svg xmlns="http://www.w3.org/2000/svg" width="48" height="48" viewBox="0 96 960 960"><path d="M341.957 904H246q-38.775 0-66.388-27.612Q152 848.775 152 810v-95.38L81 642q-28-27.955-28-65.978Q53 538 81 510l71-72.62V341q0-38.775 27.612-66.387Q207.225 247 246 247h95.38L414 175q27.899-28 66.449-27Q519 149 547 176l71.207 71H715q38.775 0 66.387 27.613Q809 302.225 809 341v96.38L881 510q27 27.955 27 65.978Q908 614 881 642l-72 72.62V810q0 38.775-27.613 66.388Q753.775 904 715 904h-96.793L547 973q-27.955 28-65.978 28Q443 1001 415 973l-73.043-69ZM480.5 753q-75.99 0-126.745-50.755Q303 651.49 303 575.5q0-75.99 50.755-127.245Q404.51 397 480.5 397q75.99 0 127.245 51.255Q659 499.51 659 575.5q0 75.99-51.255 126.745Q556.49 753 480.5 753Zm1-78q38.5 0 69.5-30t31-70.5q0-38.5-31.083-69.5-31.084-31-69.917-31-40 0-70 31.083-30 31.084-30 69.917 0 40 30 70t70.5 30Zm-.5 231 97.549-95.588h136.569V673.588L813 576l-98.216-98.632V340.882H578.882L481 243l-98.588 97.882H245.588v136.236L148 576l98 98v136h135l100 96Zm0-331Z"/></svg>