<svg xmlns="http://www.w3.org/2000/svg" width="48" height="48" viewBox="0 -960 960 960"><path d="M480-95q-28 0-58-3.5T366-113q-19-4-28-20t-5-35.5q4-19.5 20-29.5t35-6q19 9 44 12t48 3q123 0 207-84t84-207q0-123-84-207t-207-84q-123 0-207 84t-84 207q0 25 3.5 46.5T204-392q3 20-7.5 36.5T167-336q-19 3-35.5-7.5T112-374q-7-22-12-49t-5-57q0-81 30-151t82-122.5Q259-806 329-836t151-30q81 0 151 30t122.5 82.5Q806-701 836-631t30 151q0 81-30 151t-82.5 122Q701-155 631-125T480-95Zm-342-43q-11-11-11-25.5t11-25.5l341-340H351q-15 0-25.5-10T315-565q0-16 10-26t26-10h203q20 0 33.5 13.5T601-554v203q0 15-10 25.5T565-315q-16 0-26-10t-10-26v-128L188-137q-11 11-25 10.5T138-138Z"/></svg>