<svg xmlns="http://www.w3.org/2000/svg" width="48" height="48" viewBox="0 -960 960 960"><path d="M742.105-97q-21.176 0-41.17-8.5Q680.941-114 666-130L430-367q-21 7-40.82 10.5Q369.359-353 343-353q-107.083 0-181.542-74.833Q87-502.667 87-608q0-33 10.658-68.888Q108.316-712.777 124-740l150.33 150L366-676 212-830q24.915-15.158 61.957-27.079Q311-869 343-869q108.333 0 184.167 76.125Q603-716.75 603-608q0 22.203-3.5 43.602Q596-543 589-520l233 233q16 16.011 24.5 36.614 8.5 20.602 8.5 43.494t-8.5 43.392Q838-143 821-128t-37.18 23q-20.181 8-41.715 8ZM725-188q8 9 20 9t20-8.5q8-8.5 8-20t-8-20.5L489-504q16-21 24-49.5t8-54.5q0-75-55.5-127T339-788l101 103q9 9 9 22t-9 22L308-517q-9 9-22 9t-22-9l-97-96q3 77 54.668 127T343-436q25 0 53-8t49-24l280 280ZM471-482Z"/></svg>