<svg xmlns="http://www.w3.org/2000/svg" width="48" height="48" viewBox="0 -960 960 960"><path d="M17-210.555V-750q0-15.3 9.975-25.65Q36.951-786 52.675-786 68.4-786 78.7-775.65 89-765.3 89-750v539.445q0 15.705-10.4 25.63Q68.2-175 52.825-175 36.6-175 26.8-184.925q-9.8-9.925-9.8-25.63Zm158 0V-750q0-15.3 9.975-25.65 9.976-10.35 25.7-10.35 15.725 0 26.025 10.35Q247-765.3 247-750v539.445q0 15.705-10.4 25.63Q226.199-175 210.825-175q-16.225 0-26.025-9.925-9.8-9.925-9.8-25.63ZM427-175q-39.462 0-67.231-27.475Q332-229.95 332-269v-422q0-39.463 27.769-67.231Q387.538-786 427-786h422q39.05 0 66.525 27.769Q943-730.463 943-691v422q0 39.05-27.475 66.525Q888.05-175 849-175H427Zm0-94h422v-422H427v422Zm191-111-51.13-69.131Q563-453 556.5-453.5q-6.5-.5-9.5 3.5l-55 74q-4 6-1 12.5t9.818 6.5h278.364q6.318 0 9.568-6.5T788-376l-77.171-101.253Q707.385-481 701.192-481 695-481 692-477l-74 97ZM427-269v-422 422Z"/></svg>