<svg xmlns="http://www.w3.org/2000/svg" width="48" height="48" viewBox="0 0 48 48"><path d="M7.35 45.15q-1.55 0-2.65-1.1-1.1-1.1-1.1-2.6V32.2q0-1.45.825-2.65t2.175-1.7h1.35V20.1q0-1.95 1.375-3.325Q10.7 15.4 12.7 15.4h8.95v-2.35q-1-.8-1.525-1.725Q19.6 10.4 19.6 9.05q0-.9.3-1.725.3-.825.95-1.475l2.3-2.35q.1-.1.85-.35.15 0 .85.35l2.3 2.35q.65.65.975 1.475.325.825.325 1.725 0 1.3-.55 2.275-.55.975-1.55 1.725v2.35h9q1.95 0 3.325 1.375Q40.05 18.15 40.05 20.1v7.75h1.35q1.35.5 2.175 1.7.825 1.2.825 2.65v9.25q0 1.5-1.1 2.6t-2.6 1.1ZM12.7 27.5h22.65v-7.4H12.7ZM8.35 40.45H39.7V32.2H8.35ZM12.7 27.5h22.65ZM8.35 40.45H39.7ZM41.4 27.5H6.6h34.8Z"/></svg>