<svg xmlns="http://www.w3.org/2000/svg" width="48" height="48" viewBox="0 -960 960 960"><path d="M95-57q-31 0-53-22t-22-52v-170q0-28.75 16.63-52.88Q53.25-378 80-388h666q26.75 10 43.38 34.12Q806-329.75 806-301v170q0 30-21.5 52T732-57H95Zm12-391v-110q0-38.75 27.63-66.38Q162.25-652 202-652h164v-47q-20-15-30.5-34.03-10.5-19.04-10.5-46.38 0-17.59 6-34.09 6-16.5 19-29.5l46-47q2-2 17.29-7 2.71 0 16.71 7l46 47q13 13 19.5 29.5t6.5 34.09q0 27.34-11 46.38Q480-714 460-699v47h165q38.75 0 66.38 27.62Q719-596.75 719-558v110H107Zm692-211.13q-12-12.12-12-29.87v-48h-49q-17 0-29-12.18-12-12.17-12-29.5Q697-796 709.13-808q12.12-12 29.87-12h48v-49q0-16.75 12.18-28.88 12.17-12.12 30-12.12 17.82 0 29.32 12.12Q870-885.75 870-869v49h49q17.75 0 29.38 12.18Q960-795.65 960-778.32 960-761 948.38-749q-11.63 12-29.38 12h-49v49q0 17-11.68 29-11.67 12-29.5 12Q811-647 799-659.13Z"/></svg>