<svg xmlns="http://www.w3.org/2000/svg" width="48" height="48" viewBox="0 96 960 960"><path d="M271 451h146q9.833 0 17.417-7.116 7.583-7.117 7.583-18Q442 415 434.417 408q-7.584-7-17.417-7H271q-10.833 0-17.917 7.116-7.083 7.117-7.083 18Q246 437 253.083 444q7.084 7 17.917 7Zm279 337h151q9.833 0 17.417-7.083Q726 773.833 726 763q0-9.4-7.583-16.7Q710.833 739 701 739H550q-10.833 0-17.917 7.419-7.083 7.418-7.083 17.5Q525 774 532.083 781q7.084 7 17.917 7Zm0-107h151q9.833 0 17.417-7.116 7.583-7.117 7.583-18 0-9.884-7.583-17.384Q710.833 631 701 631H550q-10.833 0-17.917 7.616-7.083 7.617-7.083 18Q525 667 532.083 674q7.084 7 17.917 7ZM344.116 823q9.884 0 17.384-7.083Q369 808.833 369 798v-63h63q9.833 0 17.417-7.116 7.583-7.117 7.583-18 0-9.884-7.583-17.384Q441.833 685 432 685h-63v-63q0-9.833-7.616-17.417-7.617-7.583-18-7.583Q333 597 326 604.583q-7 7.584-7 17.417v63h-63q-10.833 0-17.917 7.616-7.083 7.617-7.083 18Q231 721 238.083 728q7.084 7 17.917 7h63v63q0 10.833 7.116 17.917 7.117 7.083 18 7.083ZM544 509q7 8 17.545 8 10.546 0 18.455-8l43-43 44 44q5.75 7 16.239 7 10.488 0 18.761-8 7-7 7-17.368 0-10.367-7-18.632l-43-43 44-44q6-5.75 6-16.239 0-10.488-7-18.761-8.273-7-18.818-7-10.546 0-17.182 7l-43 43-44-43.889Q572.25 344 561.625 344T544 351q-8 8.273-8 18.818 0 10.546 8 17.182l43 43-44 44q-7 7.364-7 17.682Q536 502 544 509ZM189 961q-39.05 0-66.525-27.475Q95 906.05 95 867V285q0-39.463 27.475-67.231Q149.95 190 189 190h582q39.463 0 67.231 27.769Q866 245.537 866 285v582q0 39.05-27.769 66.525Q810.463 961 771 961H189Z"/></svg>