<svg xmlns="http://www.w3.org/2000/svg" width="48" height="48" viewBox="0 -960 960 960"><path d="M189-55q-39.05 0-66.525-27.475Q95-109.95 95-149v-602q0-39.463 27.475-67.231Q149.95-846 189-846h56v-19q0-16.75 12.393-28.875t28.8-12.125q16.832 0 28.82 12.125Q327-881.75 327-865v19h306v-19q0-16.75 12.393-28.875t28.8-12.125q16.832 0 28.82 12.125Q715-881.75 715-865v19h56q39.463 0 67.231 27.769Q866-790.463 866-751v602q0 39.05-27.769 66.525Q810.463-55 771-55H189Zm0-94h582v-421H189v421Zm0-481h582v-121H189v121Zm0 0v-121 121Zm291.105 236q-19.505 0-32.805-13.195-13.3-13.194-13.3-32.7 0-19.505 13.195-32.805 13.194-13.3 32.7-13.3 19.505 0 32.805 13.195 13.3 13.194 13.3 32.7 0 19.505-13.195 32.805-13.194 13.3-32.7 13.3Zm-160 0q-19.505 0-32.805-13.195-13.3-13.194-13.3-32.7 0-19.505 13.195-32.805 13.194-13.3 32.7-13.3 19.505 0 32.805 13.195 13.3 13.194 13.3 32.7 0 19.505-13.195 32.805-13.194 13.3-32.7 13.3Zm320 0Q622-394 608-407.195q-14-13.194-14-32.7 0-19.505 13.895-32.805 13.894-13.3 32.5-13.3Q659-486 672.5-472.805q13.5 13.194 13.5 32.7 0 19.505-13.195 32.805-13.194 13.3-32.7 13.3Zm-160 160q-19.505 0-32.805-13.895-13.3-13.894-13.3-32.5Q434-299 447.195-312.5q13.194-13.5 32.7-13.5 19.505 0 32.805 13.195 13.3 13.194 13.3 32.7Q526-262 512.805-248q-13.194 14-32.7 14Zm-160 0q-19.505 0-32.805-13.895-13.3-13.894-13.3-32.5Q274-299 287.195-312.5q13.194-13.5 32.7-13.5 19.505 0 32.805 13.195 13.3 13.194 13.3 32.7Q366-262 352.805-248q-13.194 14-32.7 14Zm320 0Q622-234 608-247.895q-14-13.894-14-32.5Q594-299 607.895-312.5q13.894-13.5 32.5-13.5Q659-326 672.5-312.805q13.5 13.194 13.5 32.7Q686-262 672.805-248q-13.194 14-32.7 14Z"/></svg>