<svg xmlns="http://www.w3.org/2000/svg" width="48" height="48" viewBox="0 0 48 48"><path d="M24 24q-1.7 0-2.85-1.15Q20 21.7 20 20q0-1.7 1.15-2.875T24 15.95q1.7 0 2.875 1.175T28.05 20q0 1.7-1.175 2.85Q25.7 24 24 24Zm-11.1-6.15q.8 0 1.4-.6.6-.6.6-1.4 0-.85-.6-1.425-.6-.575-1.4-.575-.85 0-1.425.575Q10.9 15 10.9 15.85q0 .8.575 1.4.575.6 1.425.6Zm-4.2 25.4q-.85 0-1.4-.55-.55-.55-.55-1.4 0-.85.55-1.425.55-.575 1.4-.575h5.8l1.05-4.3q-5.45-.85-9.125-5.05T2.75 20q0-6.35 4.425-10.8Q11.6 4.75 17.95 4.75H30.1q6.3 0 10.725 4.45T45.25 20q0 5.75-3.675 9.95Q37.9 34.15 32.45 35l1.1 4.3h5.75q.85 0 1.425.575.575.575.575 1.425 0 .85-.575 1.4-.575.55-1.425.55ZM24 28q3.3 0 5.65-2.35Q32 23.3 32 20q0-3.3-2.35-5.65Q27.3 12 24 12q-3.3 0-5.65 2.35Q16 16.7 16 20q0 3.3 2.35 5.65Q20.7 28 24 28Z"/></svg>