<svg xmlns="http://www.w3.org/2000/svg" width="48" height="48" viewBox="0 -960 960 960"><path d="M148-55q-38.8 0-65.9-27.6Q55-110.2 55-148v-624q0-39.21 27.1-66.61Q109.2-866 148-866h53v-40q0-16 12.21-28 12.22-12 28.79-12h166.1q16.9 0 28.4 12t11.5 28v40h54q34.75 0 59.38 24.12Q586-817.75 586-784v20h225q40.21 0 67.61 27.39Q906-709.21 906-669v417q0 40.21-27.39 67.61Q851.21-157 811-157H586v20q0 33.75-24.62 57.87Q536.75-55 502-55H148Zm279-492.77q10-10.77 10-26T426.82-599q-10.17-10-26-10Q385-609 375-598.82q-10 10.17-10 25.4 0 15.23 10.18 25.82 10.17 10.6 26 10.6Q417-537 427-547.77Zm157 0q10-10.77 10-26T583.82-599q-10.17-10-26-10Q542-609 532-598.82q-10 10.17-10 25.4 0 15.23 10.18 25.82 10.17 10.6 26 10.6Q574-537 584-547.77Zm157 0q10-10.77 10-26T740.82-599q-10.17-10-26-10Q699-609 689-598.82q-10 10.17-10 25.4 0 15.23 10.18 25.82 10.17 10.6 26 10.6Q731-537 741-547.77ZM427-322.18q10-10.17 10-25.4 0-15.23-10.18-25.82-10.17-10.6-26-10.6Q385-384 375-373.23t-10 26Q365-332 375.18-322q10.17 10 26 10Q417-312 427-322.18Zm157 0q10-10.17 10-25.4 0-15.23-10.18-25.82-10.17-10.6-26-10.6Q542-384 532-373.23t-10 26Q522-332 532.18-322q10.17 10 26 10Q574-312 584-322.18Zm157 0q10-10.17 10-25.4 0-15.23-10.18-25.82-10.17-10.6-26-10.6Q699-384 689-373.23t-10 26Q679-332 689.18-322q10.17 10 26 10Q731-312 741-322.18Z"/></svg>