<svg xmlns="http://www.w3.org/2000/svg" width="48" height="48" viewBox="0 -960 960 960"><path d="M371-174h218l-19.71-81H391l-20 81Zm-13.15-161h244.63Q695-335 760-400.5 825-466 825-560t-65.16-159.5Q694.67-785 602.15-785H357.52Q265-785 200-719.5 135-654 135-560t65.16 159.5Q265.33-335 357.85-335ZM423-503q-23-23-23-57t23-57.5q23-23.5 57-23.5t57.5 23.5Q561-594 561-560t-23.5 57Q514-480 480-480t-57-23ZM258.19-603Q274-603 286-615.19q12-12.2 12-28 0-16.81-12.19-28.31-12.2-11.5-28-11.5-16.81 0-28.31 11.69-11.5 11.7-11.5 28.5Q218-627 229.69-615q11.7 12 28.5 12ZM174-95q-17 0-28-11t-11-27.81q0-16.8 11-28.5Q157-174 174-174h116l21-86q-109-17-182.5-101Q55-445.01 55-560q0-127 88.46-216 88.47-89 215.54-89h243q126 0 214.5 89T905-560q0 114.99-73.5 199Q758-277 649-260l22 86h114.64q17.36 0 28.86 11.69 11.5 11.7 11.5 28.5Q826-117 814.36-106T786-95H174Zm419-352q47-47 47-113t-47-113q-47-47-113-47t-113 47q-47 47-47 113t47 113q47 47 113 47t113-47ZM480-560ZM371-174h218-218Z"/></svg>