<svg xmlns="http://www.w3.org/2000/svg" width="48" height="48" viewBox="0 96 960 960"><path d="M536 839q-15 0-25-10t-10-25V634q0-14 10-24.5t25-10.5h175q14 0 24.5 10.5T746 634v55l43-25q11.586-8 24.293-.63Q826 670.739 826 685v68q0 14.783-12.5 21.891Q801 782 789 775l-43-26v55q0 15-10.5 25T711 839H536Zm-401 28V490q0-22.137 9.875-41.943Q154.75 428.25 173 415l250-189q24.68-19 56.84-19Q512 207 537 226l250 189q18.156 13.609 28.578 33.301Q826 467.992 826 490v81h-95v-81L480 302 229 490.333V867h549q19.625 0 33.812 13.675Q826 894.351 826 914.175 826 934 811.812 947.5 797.625 961 778 961H229q-38.775 0-66.388-27.612Q135 905.775 135 867Zm345-285Z"/></svg>