<svg xmlns="http://www.w3.org/2000/svg" width="48" height="48" viewBox="0 -960 960 960"><path d="M783-439q-17.05 0-29.525-11.777Q741-462.555 741-479.965q0-17.41 12.475-29.223Q765.95-521 783-521h102q17.425 0 29.213 11.777Q926-497.445 926-480.035q0 17.41-11.787 29.223Q902.425-439 885-439H783Zm-1 277-83-61q-13-10-16-26.826T690.5-281q10.5-14 27.326-16T749-289l82 61q13 10 16 26.826T839-171q-10 14-26.826 16.5T782-162Zm-30-510q-13.348 10-30.674 8T693.5-680q-10.5-14-8.222-31.095Q687.556-728.19 702-738l80-60q13.348-10 30.15-7.722Q828.952-803.444 839-790q11 14 8.722 31.095Q845.444-741.81 831-732l-79 60ZM164-175v-160h-47q-35.75-4-59.375-31.188Q34-393.375 34-429v-102q0-39.188 27.906-67.094Q89.813-626 129-626h163l162-96q24-14 47.5-.596T525-681v402q0 28.191-23.5 41.596Q478-224 454-239l-162-96h-29v160h-99Zm115-305Zm286 159v-319q38 27 60.5 69t22.5 91q0 49-22.3 90.903Q603.4-347.194 565-321Zm-135-40v-238l-115 68H129v102h186l115 68Z"/></svg>