<svg xmlns="http://www.w3.org/2000/svg" width="48" height="48" viewBox="0 -960 960 960"><path d="M555-247 451-48q-6.85 13.82-21.93 19.41Q414-23 398.11-29q-14.89-6-21.5-22Q370-67 377-83l123-255q9.17-17.25 26.91-28.63Q544.66-378 569-378h121l58-199q10-33 37.47-53.5Q812.93-651 849-651q46.04 0 76.52 36Q956-579 945-534l-45 223q-5.73 29-28.04 46.5Q849.66-247 822-247H555Zm316.8-619q33.2 0 55.7 23.3 22.5 23.29 22.5 55.5 0 33.2-22.3 55.7-22.29 22.5-55.5 22.5-33.2 0-56.2-22.3-23-22.29-23-55.5 0-32.2 22.8-55.7 22.79-23.5 56-23.5ZM488-678H296q-19.75 0-33.37-13.68Q249-705.35 249-725.18q0-19.82 13.63-33.32Q276.25-772 297-772h188l-61-61q-14-14-14-33.16 0-19.16 13.61-33Q437-913 456.1-913t32.9 14l143 143q7 7 11 15.63 4 8.64 4 17.5 0 9.87-4 18.37-4 8.5-11 15.5L496-554q-14 14-32.5 13.5T431-555q-15-14-15-32t15-33l57-58ZM164-375l-1-189q0-19.75 13.68-33.38Q190.35-611 210.18-611q19.82 0 33.32 13.62Q257-583.75 257-564v190l56-56q14-14 33-14t33 14q14 14 14 33.5T379-363L244-228q-7 7-15.63 11-8.64 4-18.5 4-8.87 0-17.87-4-9-4-15-11L44-363q-14-13-14.5-32T43-429.39Q57-443 76.5-443t33.5 14l54 54Z"/></svg>