<svg xmlns="http://www.w3.org/2000/svg" width="48" height="48" viewBox="0 -960 960 960"><path d="M561-29q-15 6-30 .41T510-48L406-247H138q-27.66 0-49.46-18Q66.73-283 61-311L15-534q-9-46 20.7-81.5T112-651q35.07 0 62.53 20.5Q202-610 213-577l57 199h122q23.34 0 41.59 10.87Q451.83-356.25 460-338L583-83q7 16 1.5 32T561-29ZM88.2-709q-33.2 0-55.7-22.3Q10-753.59 10-786.8q0-32.2 22.3-55.7Q54.59-866 87.8-866q33.2 0 56.2 23.3 23 23.29 23 55.5 0 33.2-22.8 55.7-22.79 22.5-56 22.5ZM658-507 508-657q-7-7-11-16.13-4-9.14-4-18 0-8.87 4-17.87 4-9 11-16l150-148q13-13 32.5-13.5t33.5 13.34q14 12.84 14 32.5T724-807l-69 69h204q19.75 0 33.38 13.18 13.62 13.17 13.62 33 0 19.82-13.62 33.32Q878.75-645 859-645H654l71 74q14 13 13.5 32T724-507q-13 14-32.5 14T658-507Z"/></svg>