<svg xmlns="http://www.w3.org/2000/svg" width="48" height="48" viewBox="0 -960 960 960"><path d="M561-29q-15 6-30 .5T510-48L406-247H138q-28 0-49.5-18T61-311L15-534q-9-46 20.5-81.5T112-651q35 0 62.5 20.5T213-577l57 199h122q23 0 41.5 11t26.5 29L583-83q7 16 1.5 32T561-29ZM88-709q-33 0-55.5-22.5T10-787q0-32 22.5-55.5T88-866q33 0 56 23.5t23 55.5q0 33-23 55.5T88-709Zm693 91q-10-4-15-14.5t1-20.5q1-2 4-16 0-10-4-18t-11-16q-12-13-19-31t-7-39q0-8 1.5-17.5T735-807q6-12 17-18t22-1q10 4 14.5 15.5t.5 21.5q-3 5-3.5 8.5t-.5 7.5q0 9 4 17.5t11 15.5q10 11 16.5 27t9.5 34q0 11-1 22t-4 19q-5 13-16.5 19t-23.5 1Zm-129 0q-11-3-16-13.5t0-22.5q1-3 2-6.5t1-8.5q0-10-3.5-19.5T626-707q-10-13-14.5-29.5T607-772q0-8 .5-16.5T610-803q4-12 15-18.5t23-2.5q11 3 16 13.5t1 21.5q-1 3-2 7t-1 8q0 11 3.5 20.5T675-735q10 13 14.5 29.5T694-671q0 9-.5 17.5T691-640q-4 13-15.5 19.5T652-618Zm-117-57q-10 0-18-6.5t-9-16.5l-25-167q-2-20 9-36.5t30-21.5q51-13 103-20t93-7q43 0 95.5 7T914-924q19 5 30 22t9 37l-25 167q-1 10-9 16.5t-18 6.5q-13 0-21-10t-6-22l24-165q-45-11-90-17t-91-6q-46 0-90.5 6T539-872l23 165q2 12-6 22t-21 10Z"/></svg>