<svg xmlns="http://www.w3.org/2000/svg" width="48" height="48" viewBox="0 96 960 960"><path d="M729 516q-79 0-135-55.5T538 325q0-79 56-135t135-56q80 0 135.5 56T920 325q0 80-56 135.5T729 516Zm-21-192q0 11 7 16.5t17 5.5q10 0 16.5-6t6.5-17v-97q0-10-7-16.5t-17-6.5q-10 0-16.5 6.5T708 226v98Zm24 128q13 0 22-8.5t9-22.5q0-13-9-22t-22-9q-15 1-23 9.5t-8 21.5q0 14 8.5 22.5T732 452ZM291 697q22 0 38-15.5t16-38.5q0-23-16-39.5T291 587q-24 0-40 16.5T235 643q0 23 16 38.5t40 15.5ZM150 921q-23 0-39-16t-16-39V536.714L181 278q7-22 25.18-35T248 230h222q-9 23-13.5 47t-3.5 48H265l-51 157h287.248Q529 522 567 550.5t85 40.5q-16 4.8-25.5 19.537Q617 625.275 617 643q0 23 15.5 38.5T671 697q23 0 39.5-15.5T727 643q0-12-6-23t-16-18q43 1 83.5-7t77.5-30v301q0 23-16.5 39T810 921h2q-23 0-38.5-14.912Q758 891.175 758 868v-31H202v31q0 23.175-16 38.088Q170 921 147 921h3Z"/></svg>