<svg xmlns="http://www.w3.org/2000/svg" width="48" height="48" viewBox="0 -960 960 960"><path d="M100-92q-38.775 0-66.388-27.612Q6-147.225 6-186v-385q0-19.625 13.675-33.812Q33.351-619 53.175-619 73-619 86.5-604.812 100-590.625 100-571v32h82v-282q0-19.625 13.675-33.812Q209.351-869 229.175-869 249-869 262.5-854.812 276-840.625 276-821v32h71v-32q0-19.625 13.675-33.812Q374.351-869 394.175-869 414-869 427.5-854.812 441-840.625 441-821v32h78v-32q0-19.625 13.675-33.812Q546.351-869 566.175-869 586-869 599.5-854.812 613-840.625 613-821v32h71v-32q0-19.625 13.675-33.812Q711.351-869 731.088-869q19.737 0 33.824 14.188Q779-840.625 779-821v282h81v-32q0-19.625 13.675-33.812Q887.351-619 907.088-619q19.737 0 33.824 14.188Q955-590.625 955-571v385q0 38.775-27.906 66.388Q899.188-92 860-92H553v-148q0-30.988-21.009-51.994T480.491-313Q450-313 428.5-291.994T407-240v148H100Zm0-94h213v-54q0-70 49.054-118.5Q411.107-407 479.991-407 550-407 598.5-358.5T647-240v54h213v-258H684v-250H276v250H100v258Zm264-304h60v-110h-60v110Zm172 0h60v-110h-60v110Zm-56 50Z"/></svg>