<svg xmlns="http://www.w3.org/2000/svg" width="48" height="48" viewBox="0 -960 960 960"><path d="M248-430v-116q0-56-30-100t-97-57v-33q0-55.583 35.708-91.292Q192.417-863 248-863h465q55.583 0 90.792 35.708Q839-791.583 839-736v33q-68 11-97.5 56T712-546v116H248ZM209.912-68Q191-68 177-82.706T163-116.5V-169h-13q-55.667 0-94.333-38.708Q17-246.417 17-302v-244q0-40.812 22-62.906T102.5-631q41.5 0 63.5 22.094T188-546v176h584v-176q0-41 22.094-63T857-631q42 0 64 22.094T943-546v244q0 55.583-38.708 94.292Q865.583-169 810-169h-13v52.5q0 19.088-14 33.794Q769-68 750-68t-33-14.706q-14-14.706-14-33.794V-169H258v52.789Q258-97 243.412-82.5 228.825-68 209.912-68Z"/></svg>