<svg xmlns="http://www.w3.org/2000/svg" width="48" height="48" viewBox="0 0 48 48"><path d="M3.65 42.05V9.85q0-1.95 1.375-3.325Q6.4 5.15 8.35 5.15h25.8q1.95 0 3.325 1.375Q38.85 7.9 38.85 9.85v10.5q-.7-.2-1.425-.275Q36.7 20 36 20q-4.9 0-8.45 3.575Q24 27.15 24 32q0 .7.075 1.425.075.725.275 1.425h-13.5ZM12.1 17.7h18.35v-4.1H12.1Zm0 8.2h12.35v-4.1H12.1Zm17.2 14.65q-.85 0-1.45-.6t-.6-1.45q0-.85.6-1.45t1.45-.6h5.45l-4.4-3.1q-.7-.5-.875-1.325-.175-.825.275-1.525.5-.7 1.325-.875.825-.175 1.525.275l4.5 3.1-1.9-5.1q-.3-.8.1-1.575.4-.775 1.2-1.075.85-.3 1.65.075.8.375 1.05 1.175l1.8 5.1 1.45-5.2q.2-.85.9-1.25t1.55-.2q.85.2 1.3.9.45.7.25 1.55l-3.5 13.15Z"/></svg>