<svg xmlns="http://www.w3.org/2000/svg" width="48" height="48" viewBox="0 0 48 48"><path d="M10.75 37.25 6.8 41.2q-1.15 1.15-2.6.575Q2.75 41.2 2.75 39.6V7.45q0-1.95 1.375-3.35Q5.5 2.7 7.45 2.7h33.1q1.95 0 3.35 1.4 1.4 1.4 1.4 3.35v25.1q0 1.95-1.4 3.325-1.4 1.375-3.35 1.375ZM24 22.8l3.8 3.8q.6.6 1.375.6t1.425-.6q.6-.6.6-1.4 0-.8-.6-1.4L26.8 20l3.8-3.8q.6-.6.6-1.375t-.6-1.425q-.6-.6-1.4-.6-.8 0-1.4.6L24 17.2l-3.8-3.8q-.6-.6-1.375-.6t-1.425.6q-.6.6-.6 1.4 0 .8.6 1.4l3.8 3.8-3.8 3.8q-.6.6-.6 1.375t.6 1.425q.6.6 1.4.6.8 0 1.4-.6Z"/></svg>