<svg xmlns="http://www.w3.org/2000/svg" width="48" height="48" viewBox="0 -960 960 960"><path d="M710-223H600q-19.75 0-33.375-13.675Q553-250.351 553-270.175 553-290 566.625-303.5 580.25-317 600-317h110l-27-27q-13-12-12-30t16-33q14-14 33-14t33 14l104 103q14 14 14 34t-14 34L753-133q-14 14-33.5 13.5T684-136q-12-12-13-30.5t12-30.5l27-26ZM283-566h285q16.75 0 28.875-12.175 12.125-12.176 12.125-29Q609-624 596.875-636T568-648H283q-16.75 0-28.875 12.175-12.125 12.176-12.125 29Q242-590 254.125-578T283-566Zm0 164h165q16.75 0 28.875-12.175 12.125-12.176 12.125-29Q489-460 476.875-472T448-484H283q-16.75 0-28.875 12.175-12.125 12.176-12.125 29Q242-426 254.125-414T283-402Zm-66 179L114-120q-11 11-26 5.458Q73-120.083 73-136v-587q0-38.75 27.625-66.375T167-817h516q38.75 0 66.375 27.625T777-723v173q0 13-10.948 23-10.949 10-25.052 8-53-4-102.5 15T552-448q-38 37-56.5 86T481-260q1 15.103-8.269 26.052Q463.462-223 450-223H217Z"/></svg>