<svg xmlns="http://www.w3.org/2000/svg" width="48" height="48" viewBox="0 96 960 960"><path d="M270 657h254q12 0 20.5-8.675 8.5-8.676 8.5-21.5 0-12.825-8.625-21.325T523 597H269q-12 0-20.5 8.675-8.5 8.676-8.5 21.5 0 12.825 8.625 21.325T270 657Zm0-130h421q12 0 20.5-8.675 8.5-8.676 8.5-21.5 0-12.825-8.625-21.325T690 467H269q-12 0-20.5 8.675-8.5 8.676-8.5 21.5 0 12.825 8.625 21.325T270 527Zm0-130h421q12 0 20.5-8.675 8.5-8.676 8.5-21.5 0-12.825-8.625-21.325T690 337H269q-12 0-20.5 8.675-8.5 8.676-8.5 21.5 0 12.825 8.625 21.325T270 397ZM55 888V245q0-38.463 27.475-66.731Q109.95 150 149 150h662q38.463 0 66.731 28.269Q906 206.537 906 245v502q0 38.05-28.269 66.025Q849.463 841 811 841H215l-80 80q-23 23-51.5 10.75T55 888Zm94-93 48-48h614V245H149v550Zm0-550v550-550Z"/></svg>