<svg xmlns="http://www.w3.org/2000/svg" width="48" height="48" viewBox="0 -960 960 960"><path d="M710-223H600q-19.75 0-33.37-13.68Q553-250.35 553-270.18q0-19.82 13.63-33.32Q580.25-317 600-317h110l-27-27q-13-12-12-30t16-33q14-14 32.82-14T753-407l104 103q14 14.36 14 34.18T857-236L753-133q-14.36 14-33.68 13.5T684-136q-12-12-13-30.5t12-30.5l27-26Zm-493 0L114-120q-11 11-26 5.46T73-136v-587q0-38.75 27.63-66.38Q128.25-817 167-817h516q38.75 0 66.38 27.62Q777-761.75 777-723v156q0 19.75-13.68 33.37Q749.65-520 729.82-520q-19.82 0-33.32-13.63Q683-547.25 683-567v-156H167v406h266q19.75 0 33.38 13.68Q480-289.65 480-269.82q0 19.82-13.62 33.32Q452.75-223 433-223H217Zm66-343h285q17.05 0 29.03-11.96 11.97-11.97 11.97-29Q609-624 597.03-636q-11.98-12-29.03-12H283q-17.05 0-29.02 11.96-11.98 11.97-11.98 29Q242-590 253.98-578q11.97 12 29.02 12Zm0 164h165q17.05 0 29.02-11.96 11.98-11.97 11.98-29Q489-460 477.02-472q-11.97-12-29.02-12H283q-17.05 0-29.02 11.96-11.98 11.97-11.98 29Q242-426 253.98-414q11.97 12 29.02 12Zm-116 85v-406 406Z"/></svg>