<svg xmlns="http://www.w3.org/2000/svg" width="48" height="48" viewBox="0 0 48 48"><path d="m14.95 9.1-1.1-3.15q-.2-.65.15-1.25t.95-.85q.7-.2 1.3.075.6.275.85.925l1.05 3.2q.2.65-.125 1.275-.325.625-.975.825-.7.25-1.3-.05-.6-.3-.8-1Zm7.4-2.6v-3q0-.65.475-1.175T24 1.8q.7 0 1.2.5t.5 1.2v3q0 .65-.5 1.15-.5.5-1.2.5t-1.175-.475Q22.35 7.2 22.35 6.5Zm7.5 1.5 1.1-3.15q.2-.65.8-.95.6-.3 1.3-.1.65.25.975.875.325.625.125 1.275L33.1 9.1q-.25.7-.85.975t-1.3.075q-.65-.25-1-.85t-.1-1.3Zm2.85 36.9q-1.7-.25-3-1.35t-1.8-2.75l-1.6-5.3q-.7-2.2.175-4.275T29.5 28.2l2.3 7.2q.1.3.35.45.25.15.55 0 .25-.05.4-.3.15-.25.05-.55l-4-12.3q-.65-2.1.15-4.1.8-2 2.7-2.95l.7-.4q.9-.4 1.8-.075t1.35 1.175l8.3 14.95q.1.25.35.4.25.15.55.15.2.25.3.575.1.325.05.725l-1.3 11.1q-.1 1-.9 1.575t-1.75.425Zm-17.45 0-8.7 1.35q-1 .15-1.775-.425Q4 45.25 3.85 44.25L2.5 33.9q-.1-.4 0-.725.1-.325.3-.575.3 0 .55-.15.25-.15.35-.4l8.45-15.7q.4-.85 1.325-1.175.925-.325 1.775.075l.7.4q1.95.95 2.725 2.95.775 2 .125 4.1L14.85 35q-.1.3.05.55.15.25.4.3.25.1.525-.025t.375-.425l2.35-7.15q2.1.95 2.95 3 .85 2.05.2 4.25l-1.65 5.3q-.5 1.65-1.8 2.75t-3 1.35Z"/></svg>