<svg xmlns="http://www.w3.org/2000/svg" width="48" height="48" viewBox="0 96 960 960"><path d="M730 623H230q-19.75 0-33.375-13.675Q183 595.649 183 575.825 183 556 196.625 542.5 210.25 529 230 529h500q19.75 0 33.375 13.675Q777 556.351 777 576.175 777 596 763.375 609.5 749.75 623 730 623Zm-91 205H139q-19.75 0-33.375-13.675Q92 800.649 92 779.825 92 760 105.625 746.5 119.25 733 139 733h500q19.75 0 33.375 13.675Q686 760.351 686 780.175 686 801 672.375 814.5 658.75 828 639 828Zm182-409H321q-19.75 0-33.375-13.675Q274 391.649 274 370.825 274 351 287.625 337.5 301.25 324 321 324h500q19.75 0 33.875 13.675Q869 351.351 869 371.175 869 392 854.875 405.5 840.75 419 821 419Z"/></svg>