<svg xmlns="http://www.w3.org/2000/svg" width="48" height="48" viewBox="0 96 960 960"><path d="m708 427-25.925-56.875L627 345l55.075-25.812L708 264l25.812 55.188L789 345l-55.188 25.125L708 427Zm109.584 191Q784 618 760.5 594.825T737 537q0-18.049 10-44.525Q757 466 785 422q13.148-20 33.074-20T851 422q28 44 38 70.475 10 26.476 10 44.525 0 34.65-23.916 57.825Q851.168 618 817.584 618ZM596 572l-96-36v-36q-3.085-44.31-34.051-74.655T389 395q-46 0-74.415 26.825Q286.169 448.65 279 484h-99q8-66 53.5-114T342 306v-71h-19q-18.75-3-29.875-15.175Q282 207.649 282 187.325 282 167 295.625 153.5 309.25 140 329 140h180q21 0 40 4t38 13q19.029 10.578 23.014 33.789Q614 214 592 236q-6.111 4-20.056 7.5-13.944 3.5-23.853-1.75Q537 238 528 236.5q-9-1.5-19-1.5h-73v71q70 17.545 115 73.874Q596 436.203 596 507v65Zm-45 370 248-78q-6-8-15.194-20.5Q774.613 831 763 831H517q4 0-11-1.5t-30-8.441l-66-19.814q-12-2.951-18-15.13t-2-24.37q4-11.843 15.278-17.294Q416.556 739 429 743l102 33q-6-1 8-2.5t44.965-2.5H593q0-12.419-4.5-23.71Q584 736 573 731l-245-93h-73v217l296 87Zm-23 78-273-78q-9 27-37 40t-57 13h-61q-38.775 0-66.388-27.638Q6 939.725 6 900V650q0-39.188 27.612-67.094Q61.225 555 100 555h225q8.333 0 16.667 1.5Q350 558 358 561l242 92q34 12 56.5 40t22.5 78h92q51.167 0 85.583 26.5Q891 824 891 882q0 20-9.5 34.5T855 936l-273 84q-13.171 4-27.086 4-13.914 0-26.914-4ZM89 912h82V638H89v274Zm276-428Z"/></svg>