<svg xmlns="http://www.w3.org/2000/svg" width="48" height="48" viewBox="0 -960 960 960"><path d="M236-476q0 59.29 25 106.645T342-285v-70q0-14.875 9.975-24.938Q361.951-390 377.675-390q15.3 0 25.312 10.062Q413-369.875 413-355v163q0 19.75-13.625 33.375T366-145H204q-14.875 0-24.938-10.37Q169-165.74 169-181.07q0-14.905 9.925-24.918Q188.85-216 205-216h70q-64-51-99-111.5T141-476q0-95.769 52.5-180.885Q246-742 343-786q16-7 31 3t19.5 27.5q5.5 18.5-1 34T370-698q-58.344 28.655-96.172 88.738Q236-549.179 236-476Zm381 356q-58.917 0-100.958-41.75Q474-203.5 474-263.143q0-54.192 35.5-93.902t87.5-46.723Q618-441 654.995-463.5q36.996-22.5 82.052-22.5 61.134 0 105.544 36Q887-414 894-364h2q44 6 74.5 39.5t30.5 80.685q0 50.385-36.47 87.1Q928.06-120 877-120H617Zm103.045-400Q709-568 684.841-604.943 660.681-641.887 622-675v70q0 14.875-10.693 24.938Q600.614-570 585.702-570q-14.913 0-25.307-10.35Q550-590.7 550-606v-162q0-19.75 13.625-33.375T598-815h161q14.725 0 25.362 10.118Q795-794.764 795-779.807q0 14.957-10.638 25.382Q773.725-744 759-744h-71q49 45 84.373 104.5Q807.746-580 816-520h-95.955ZM617-203h260q17 0 28.5-11.5T917-243q0-16-11.5-28T877-283h-50v-30q0-37-26-63.5T737-403q-37 0-63.5 24.5T647-323h-30q-25.5 0-42.75 17.25T557-263q0 25.5 17.25 42.75T617-203Zm120-100Z"/></svg>