<svg xmlns="http://www.w3.org/2000/svg" width="48" height="48" viewBox="0 96 960 960"><path d="m870 873-71-72q24-17 37-35.235 13-18.236 13-45.177 0-37.268-28.16-64.928Q792.68 628 755 628h-78v-92q0-82.775-57.668-139.388Q561.663 340 478.863 340q-28.96 0-58.412 9.5Q391 359 367 376l-67-67q36-31 84-47t94.321-16q114.194 0 198.937 80Q762 406 770 520v21q74 8 123.5 58.036Q943 649.071 943 723.109 943 763 923.5 807 904 851 870 873Zm-67 130-92-93H248q-96.964 0-163.982-66.018T17 681q0-83 52.5-144T201 463q0-9 2.5-25.5T213 411L73 272q-11-11-11-25.5t11-25Q84 211 98 211t25 10l731 731q11 11 11 25.5t-11 25.5q-11 11-25.667 11-14.666 0-25.333-11ZM248.436 816H619L296 493q-10 11-12.818 26.452-2.818 15.451-2.818 29.548H248q-56.786 0-96.893 36.651Q111 622.303 111 679.116t40.107 96.849Q191.214 816 248.436 816ZM584 588Zm-128 65Z"/></svg>