<svg xmlns="http://www.w3.org/2000/svg" width="48" height="48" viewBox="0 -960 960 960"><path d="M854-166v-649H106v296q0 21-13.5 34.5T59-471q-20 0-33.5-13.5T12-519v-296q0-39.05 27.47-66.53Q66.95-909 106-909h748q39.46 0 67.23 27.47Q949-854.05 949-815v563q0 32.94-27.5 57.97T854-166ZM230.3-445.8q-48.3-48.79-48.3-126 0-77.2 48.3-126.2 48.29-49 125.5-49 77.2 0 126.7 49T532-571.8q0 77.21-49.5 126Q433-397 355.8-397q-77.21 0-125.5-48.8ZM106-25q-40.05 0-67.03-26.97Q12-78.95 12-119v-27q0-44 22.5-77.5T93-273q69-32 133.52-47.5 64.51-15.5 129.5-15.5Q423-336 487-320q64 16 132 46 38 16 60.5 49.5T702-146v27q0 40.05-27.27 67.03Q647.46-25 607-25H106Z"/></svg>