<svg xmlns="http://www.w3.org/2000/svg" width="48" height="48" viewBox="0 -960 960 960"><path d="M599-95q-39 0-67-27.5T504-189v-75q0-13 8.5-23t21.5-14q60-17 96.5-67T667-480q0-62-36.5-112T534-659q-14-4-22-14t-8-24v-74q0-39 28-67t67-28h187q39 0 67 28t28 67v582q0 39-28 66.5T786-95H599Zm-425 0q-39 0-66.5-27.5T80-189v-582q0-39 27.5-67t66.5-28h188q38 0 66 28t28 67v74q0 14-8.5 24.5T426-659q-60 17-96.5 67T293-480q0 62 36.5 112t96.5 67q14 4 22 14t8 23v75q0 39-28 66.5T362-95H174Zm272.5-263.5Q433-372 433-393v-40h-40q-21 0-34.5-13.5T345-480q0-20 13.5-33.5T393-527h40v-41q0-20 13.5-33.5T480-615q20 0 33.5 13.5T527-568v41h41q20 0 33.5 13.5T615-480q0 20-13.5 33.5T568-433h-41v40q0 21-13.5 34.5T480-345q-20 0-33.5-13.5Z"/></svg>