<svg xmlns="http://www.w3.org/2000/svg" width="48" height="48" viewBox="0 -960 960 960"><path d="M588.5-302q47.5-38 61.5-96 2-11-6.42-20-8.41-9-19.58-9H335q-12 0-19.5 8.83-7.5 8.84-5.5 20.17 14 58 61.5 96T480-264q61 0 108.5-38Zm-108 247Q400-55 330-85t-122.5-82Q155-219 125-289T95-438v-373q0-40.46 26.97-67.73Q148.95-906 189-906h582q40.46 0 67.73 27.27Q866-851.46 866-811v373q0 79-30.5 149t-83 122Q700-115 630-85T480.5-55Zm-.5-94q121 0 206-84t85-205v-373H189v373q0 121 84.38 205T480-149Zm0-331ZM300.21-677.5Q277-661 268-635q-3 11 4.72 20 7.71 9 20.28 9h120q11.73 0 19.36-9 7.64-9 4.64-20-9-26-32-42.5T352.71-694q-29.3 0-52.5 16.5Zm253.79 0q-24 16.5-33 42-4 11.06 4 20.28t21.46 9.22H668q11.73 0 19.36-9 7.64-9 4.64-20-9-26-32.49-42.5-23.49-16.5-52.5-16.5T554-677.5Z"/></svg>