<svg xmlns="http://www.w3.org/2000/svg" width="48" height="48" viewBox="0 -960 960 960"><path d="M17-296v-30q0-62 59-83t108-21q49 0 108 20.825 59 20.824 59 83.175v30H17Zm166.965-183Q146-479 119-506.243q-27-27.244-27-65.5Q92-610 119.035-637q27.036-27 65-27Q222-664 249-636.801t27 65.164q0 37.964-27.035 65.301-27.036 27.336-65 27.336ZM392-416q-13 0-22-7.794t-9-21.399q0-6.802 9-22.807 7-11 11.5-23t4.5-25.021q0-13.022-4.5-26.5Q377-556 369.667-565q-3.667-5.08-6.167-10.318-2.5-5.237-2.5-11.492 0-13.553 8.827-22.371Q378.653-618 392-618q5.238 0 11.619 2 6.381 2 9.381 6 19 19 27.5 43.365 8.5 24.365 8.5 49.891Q449-492 439.5-464T410-420q-4 4-8.333 4H392Zm88.391 89q-12.812 0-21.102-8.972Q451-344.944 451-358.667q0-6.333 1.944-11.302 1.945-4.969 5.608-10.031Q485-408 498-443.558t13-72.5Q511-553 498-589.5 485-626 458.414-654q-3.525-4.265-5.47-9.404-1.944-5.14-1.944-12.183 0-13.321 8.699-21.867Q468.398-706 481.703-706q5.88 0 11.202 2.727 5.321 2.728 9.755 7.273Q538-660 555-613.122t17 97Q572-466 555-419.5T502.73-337q-3.73 5-9.585 7.5t-12.754 2.5ZM609-296v-30q0-62.351 59-83.175Q727-430 776-430t108 21q59 21 59 83v30H609Zm166.965-183Q738-479 711-506.243q-27-27.244-27-65.5Q684-610 711.035-637q27.036-27 65-27Q814-664 841-636.801t27 65.164q0 37.964-27.035 65.301-27.036 27.336-65 27.336Z"/></svg>