<svg xmlns="http://www.w3.org/2000/svg" width="48" height="48" viewBox="0 -960 960 960"><path d="M503-196v20q0 21.025-14.482 35.512Q474.035-126 453.018-126 432-126 417.5-140.488 403-154.975 403-176v-210q0-8 1-15t4-14l43-127q10-29.222 34.25-46.111Q509.5-605 540-605h239q29.5 0 54.25 16.889T868-542l43 127q2 7 3.5 14t1.5 15v210q0 21.025-14.482 35.512Q887.035-126 866.018-126 845-126 830.5-140.488 816-154.975 816-176v-20H503Zm-24-232h361l-38-115H517l-38 115Zm-13 40v132-132Zm67 106q15.575 0 27.287-11.212Q572-304.425 572-321q0-15.575-11.713-27.288Q548.575-360 532.5-360t-27.288 11.712Q494-336.575 494-320.5q0 16.075 11.212 27.288Q516.425-282 533-282Zm253 0q15.575 0 27.287-11.212Q825-304.425 825-321q0-15.575-11.713-27.288Q801.575-360 785.5-360t-27.287 11.712Q747-336.575 747-320.5q0 16.075 11.213 27.288Q769.425-282 786-282ZM172-126q-15.75 0-21.375-15.5T156-167l55-52q-68.167 0-117.583-41.792Q44-302.583 44-367v-331q0-80.3 57.849-108.65Q159.698-835 327.775-835 484-835 547.5-804.867 611-774.733 611-698v63h-92v-68H139v271h234v306H172Zm31.789-175q21.161 0 35.686-15.204Q254-331.407 254-352.491t-14.314-35.297Q225.371-402 204.211-402q-21.161 0-35.686 14.025Q154-373.95 154-352.491q0 21.084 14.314 36.287Q182.629-301 203.789-301ZM466-256h387v-132H466v132Z"/></svg>