<svg xmlns="http://www.w3.org/2000/svg" width="48" height="48" viewBox="0 96 960 960"><path d="M870.842 1006q-10.158 10-25.5 10T820 1006L655 841H149q-38.05 0-66.025-27.975Q55 785.05 55 747V241l-19-20q-10-10.455-10-25.227Q26 181 36.158 171t25.133-10Q76.267 161 87 171l784 784q10 11.182 10 26.091T870.842 1006ZM906 889 763 747h48V245H261l-94-95h644q39.463 0 67.231 28.269Q906 206.537 906 245v644ZM149 747h412l-91-91H270q-12.75 0-21.375-8.675-8.625-8.676-8.625-21.5 0-12.825 8.625-21.325T270 596h140l-70-70h-69.603q-12.968 0-21.682-8.625Q240 508.75 240 496q0-12.308 8-20.154T268 468h14L149 335v412Zm516-98-53-53h78q12.75 0 21.375 8.675 8.625 8.676 8.625 21.5 0 8.575-4.125 14.2T706 649h-41ZM542 526l-60-60h208q12.75 0 21.375 8.675 8.625 8.676 8.625 21.5 0 12.825-8.625 21.325T690 526H542ZM412 396l-60-60h338q12.75 0 21.375 8.675 8.625 8.676 8.625 21.5 0 12.825-8.625 21.325T690 396H412Zm-57 145Zm157-45Z"/></svg>