<svg xmlns="http://www.w3.org/2000/svg" width="48" height="48" viewBox="0 -960 960 960"><path d="M-1-109v-742h961v742H-1Zm351-297q53.167 0 89.083-36.5Q475-479 475-531.5t-35.882-89q-35.883-36.5-89-36.5Q297-657 260.5-620.583 224-584.167 224-531q0 52 36.417 88.5Q296.833-406 350-406ZM89-191h525q-45-68-112-108.5T352-340q-80 0-149.5 40.5T89-191Zm586-358v43q0 11.033 8.174 19.017 8.175 7.983 19.5 7.983Q714-479 722-486.983q8-7.984 8-19.017v-43l36 21q10 5 20.833 3.143 10.834-1.857 17-12.5Q810-547 806.353-557.8T794-575l-36-21 37-22q8.941-5.4 11.971-15.7 3.029-10.3-3.304-20.621-5.334-9.322-16.5-12.5Q776-670 766-664l-36 20v-42q0-11.467-7.977-19.733-7.976-8.267-19-8.267-11.023 0-19.523 8.267Q675-697.467 675-686v42l-36-20q-8.927-6-19.589-3.643-10.663 2.357-17.244 12.5Q596-645 599-634.5t13 16.5l36 22-37 21q-10.235 5-12.618 15.5Q596-549 602-538q5 10 16.5 13t20.5-3l36-21Z"/></svg>