<svg xmlns="http://www.w3.org/2000/svg" width="48" height="48" viewBox="0 -960 960 960"><path d="M94-109q-39.462 0-67.231-27.475Q-1-163.95-1-203v-554q0-39.05 27.769-66.525Q54.538-851 94-851h772q38 0 66 27.475T960-757v554q0 39.05-28 66.525Q904-109 866-109H94Zm256-307q53.167 0 88.083-35.5Q473-487 473-539.5t-34.882-88q-34.883-35.5-88-35.5Q297-663 261.5-627.583 226-592.167 226-539q0 52 35.417 87.5Q296.833-416 350-416Zm258-110h158q20 0 33.5-13.5T813-574v-83q0-20-13.5-33.5T766-704H608q-20 0-33.5 13.5T561-657v83q0 21 13.5 34.5T608-526ZM92-191h520q-45-74-112.5-112T352-341q-80 0-148 38T92-191Zm596-372-103-77v-40l102 77 102-77v40l-101 77Z"/></svg>