<svg xmlns="http://www.w3.org/2000/svg" width="48" height="48"><path d="M9.45 43.4q-2 0-3.35-1.35t-1.35-3.4V9.55q0-.15.05-.3L2.7 7.2q-.5-.55-.5-1.275 0-.725.5-1.275.5-.5 1.275-.5.775 0 1.275.5l38.1 38.1q.5.55.5 1.275 0 .725-.55 1.225-.5.55-1.25.55t-1.25-.55l-1.95-1.95q-.15.05-.3.075-.15.025-.3.025zm0-4.75H34.2L9.45 13.95v24.7zM43.3 37.6l-4.75-4.7V9.1H35.8v1.35q0 1.55-1.075 2.65-1.075 1.1-2.675 1.1h-12.2l-9.8-9.8h8.4q.5-1.9 2-3.125T24 .05q2.05 0 3.55 1.225t2 3.125h9q2.05 0 3.4 1.35T43.3 9.1zM24 9.25q1.15 0 1.975-.825.825-.825.825-1.975 0-1.15-.825-1.975Q25.15 3.65 24 3.65q-1.15 0-1.975.825Q21.2 5.3 21.2 6.45q0 1.15.825 1.975.825.825 1.975.825z"/></svg>