<svg xmlns="http://www.w3.org/2000/svg" width="48" height="48" viewBox="0 -960 960 960"><path d="M768-213H563q-17.75 0-29.87-12.18-12.13-12.17-12.13-30 0-17.82 12.13-29.32Q545.25-296 563-296h205l-45-46q-13-12-13-28.6t13-28.4q12-13 28-13t29 13l111 110q14 15 14 34.5T891-221L781-110q-12 12-29.5 12.5T721.61-110Q710-121 710.5-138.5T723-168l45-45ZM189-95q-40 0-67-26.5T95-189v-582q0-41 26.5-68t67.5-27h174q11-36 43.5-59.5T480-949q40 0 72.5 23.5T598-866h173q41 0 68 27t27 68v236q0 19.75-14.18 33.37-14.17 13.63-34 13.63-19.82 0-33.32-13.63Q771-515.25 771-535v-236h-55v55q0 19.75-13.62 33.37Q688.75-669 669-669H291q-19.75 0-33.37-13.63Q244-696.25 244-716v-55h-55v582h225q19.75 0 33.38 13.68Q461-161.65 461-141.82q0 19.82-13.62 33.32Q433.75-95 414-95H189Zm319.5-699q11.5-12 11.5-28.5t-11.5-28Q497-862 480-862t-28.5 11.5Q440-839 440-822.5t11.5 28.5q11.5 12 28.5 12t28.5-12Z"/></svg>