<svg xmlns="http://www.w3.org/2000/svg" width="48" height="48" viewBox="0 -960 960 960"><path d="m763-145-52 53q-15 15-33.5 14.5T645-93q-15-14-15-33t15-33l52-52-53-52q-15-14-14-32.8 1-18.8 15-33.2 14-15 33-15t34 15l51 52 52-52q14-15 33.167-14.5Q867.333-343 882-329q14 14 14 33t-14 33l-53 52 53 52q14 15 14 33.5t-13.913 32.413Q867-78 848-78q-19 0-33-15l-52-52ZM234-55q-57.75 0-98.375-40.625T95-194v-77q0-36.75 26.394-63.875T186-362h30v-449q0-40.213 27.394-67.606Q270.788-906 311-906h461q38.75 0 66.375 27.394Q866-851.213 866-811v342q0 19.75-13.675 33.375Q838.649-422 818.825-422 799-422 785.5-435.625 772-449.25 772-469v-342H311v449h196q19.625 0 33.812 13.675Q555-334.649 555-314.825 555-295 540.812-281.5 526.625-268 507-268H189v73.5q0 19.337 13 32.419Q215-149 233-149h274q19.625 0 33.812 13.675Q555-121.649 555-101.825 555-82 540.812-68.5 526.625-55 507-55H234Zm299-94H189h335-6.357H533ZM410-642q-16.75 0-27.875-11.175Q371-664.351 371-680.982q0-16.632 11.125-28.325Q393.25-721 410-721h262q16.475 0 28.237 11.868Q712-697.263 712-680.632 712-664 700.237-653 688.475-642 672-642H410Zm0 140q-16.75 0-27.875-11.868Q371-525.737 371-542.368 371-559 382.125-570.5T410-582h262q16.475 0 28.237 11.868Q712-558.263 712-541.632 712-525 700.237-513.5 688.475-502 672-502H410Z"/></svg>