<svg xmlns="http://www.w3.org/2000/svg" width="48" height="48" viewBox="0 96 960 960"><path d="M675 507v43q0 10.7 8.407 18.85 8.407 8.15 19.5 8.15T722 568.85q8-8.15 8-18.85v-43l37 21q10 7 20.5 4t16.5-13.5q6-10.5 3.353-20.8T795 481l-37-21 37-22q9.706-6.4 12.353-16.7Q810 411 804 401t-16.5-13q-10.5-3-20.5 3l-37 21v-42q0-11.133-8.209-19.567-8.21-8.433-19-8.433-10.791 0-19.291 8.433Q675 358.867 675 370v42l-36-21q-11-6-20.8-2.853T602 401q-6 10-3.353 20.3T611 438l37 22-37 21q-9.706 6.4-12.353 16.7Q596 508 602 518.5t16 13.5q10 3 21-4l36-21ZM94 947q-39.462 0-67.231-27.475Q-1 892.05-1 853V299q0-39.05 27.769-66.525Q54.538 205 94 205h772q38 0 66 27.475T960 299v554q0 39.05-28 66.525Q904 947 866 947H94Zm255.882-307Q401 640 437 604.118q36-35.883 36-87Q473 465 437.118 429q-35.883-36-87-36Q298 393 262 428.882q-36 35.883-36 88Q226 568 261.882 604q35.883 36 88 36ZM92 865h520q-45-74-112.5-112T352 715q-80 0-148 38T92 865Z"/></svg>