<svg xmlns="http://www.w3.org/2000/svg" width="48" height="48" viewBox="0 96 960 960"><path d="M420 498q26 0 44-18t18-44q0-26-18-44t-44-18q-26 0-44 18t-18 44q0 26 18 44t44 18Zm-80 200q26 0 44-18t18-44q0-26-18-44t-44-18q-26 0-44 18t-18 44q0 26 18 44t44 18Zm260 38q17 0 28.5-11.5T640 696q0-17-11.5-28.5T600 656q-17 0-28.5 11.5T560 696q0 17 11.5 28.5T600 736ZM480 993q-86 0-162-33t-132.5-89.5Q129 814 96 738T63 576q0-93 35-169t92.5-130.5Q248 222 322 191t153-34q40 0 66 19t30 58q7 55 41.5 90t89.5 45q25 4 41 20t23 45q8 24 23.5 44.5T826 511q41 20 57 45.5t12 68.5q-10 76-45 143t-89.5 117q-54.5 50-126 79T480 993Z"/></svg>