<svg xmlns="http://www.w3.org/2000/svg" width="48" height="48" viewBox="0 -960 960 960"><path d="M763-649q-3 43 25 74.5t72.98 43.5q15.02 4 25.52 15.281T897-489q0 49-10.5 91.687T854-313q-7 17-24.326 23t-34.174-4Q778-304 772-323t-1-38q12-20 20.5-43.5T802-454q-50-20-82.5-58.5T679-599q-77-12-134-69t-68-134q-31-1-60.532 6.556Q386.936-787.889 361-773q-20.17 6-38.085 0T296-796.5q-9-17.5-1.455-36.162Q302.091-851.324 320-857q43.861-20.917 92.43-29.958Q461-896 512-896q23 0 40 15.5t18 38.787Q573-770 616.302-729T732-685q14 1 23.5 11.607T763-649ZM339.882-358Q314-358 296-376.118q-18-18.117-18-44Q278-446 296.118-464q18.117-18 44-18Q366-482 384-463.882q18 18.117 18 44Q402-394 383.882-376q-18.117 18-44 18ZM480.243-55Q390-55 312.013-87.584q-77.988-32.583-134.917-89.512T87.584-312.013Q55-390 55-480.243q0-71.917 21-136.337Q97-681 136-734l-89-89q-10-10.2-10.5-25.1Q36-863 47.158-874q10.737-11 25.5-11T98-874l773 773q10 11 10 25.5T870.053-50q-10.414 10-24.734 10Q831-40 820-50l-86-86q-53 39-117.42 60T480.243-55ZM480-149q51.714 0 99.357-14T666-204L204-667q-27 39-41 86.571Q149-532.857 149-480q0 142.247 94.87 236.623Q338.741-149 480-149Zm-45-286Zm125-126Z"/></svg>