<svg xmlns="http://www.w3.org/2000/svg" width="48" height="48" viewBox="0 -960 960 960"><path d="M443-117q-130-14-219-108.805-89-94.806-89-227.822Q135-525 162-587q27-62 75-110l210-207q7.167-7 15.828-10t17.416-3q8.756 0 17.206 3T513-904l210 207q41 40 66.573 90.049Q815.145-556.901 822-499h-94.83q-6.382-38.417-23.882-69.188Q685.788-598.958 659-626L480-803 301-626q-35 35-53.5 78T229-454q0 93.986 61.5 160.993Q352-226 443-213.389V-117Zm35-391Zm217 160q-18-7-37-13.5t-37.5-6.5q-14.4 0-29.275 4-14.875 4-30.225 10-13 6-26 1.5T517-369q-5-12.667.5-25.833Q523-408 536-414q20.811-9 41.975-14t41.827-5q23.632 0 45.984 5.5T710-413q18 7 36.5 13t37.106 6q14.485 0 29.439-3.5Q828-401 843-408q13-5 25.931-.389Q881.862-403.778 887-391q5 13-.5 25.5T868-347q-20.811 9-42.113 13.5t-42.104 4.5Q761-329 738.5-334T695-348Zm0 130q-18-7-37-13.5t-37.5-6.5q-14.4 0-29.275 4-14.875 4-30.225 10-13 6-26 1.5T517-239q-5-12.667.5-25.833Q523-278 536-284q20.811-9 41.975-14t41.827-5q23.632 0 45.984 5.5T710-283q18 7 36.5 13t37.106 6q14.485 0 29.439-3.5Q828-271 843-278q13-5 25.931-.389Q881.862-273.778 887-261q5 13-.5 25.5T868-217q-20.811 9-42.113 13.5t-42.104 4.5Q761-199 738.5-204T695-218Zm0 130q-18-7-37.5-13.5T620-108q-14 0-28.841 4-14.841 4-30.159 10-13 6-25.931 1.632Q522.138-96.737 517-109q-5-12.667.5-25.833Q523-148 536-154q20.811-9 41.975-14t41.827-5q23.632 0 45.984 5.5T710-153q18 7 36.5 13t37.106 6q14.485 0 29.439-3.5Q828-141 843-148q13-5 25.931-.389Q881.862-143.778 887-131q5 13-.5 25.5T868-87q-20.811 9-42.113 13.5T783.783-69Q761-69 738.5-74T695-88Z"/></svg>