<svg xmlns="http://www.w3.org/2000/svg" width="48" height="48" viewBox="0 96 960 960"><path d="M480.404 1001q-88.872 0-166.125-33.084-77.254-33.083-135.183-91.012-57.929-57.929-91.012-135.119Q55 664.594 55 575.638q0-88.957 33.084-166.285 33.083-77.328 90.855-134.809 57.772-57.482 135.036-91.013Q391.238 150 480.279 150q89.04 0 166.486 33.454 77.446 33.453 134.853 90.802 57.407 57.349 90.895 134.877Q906 486.66 906 575.734q0 89.01-33.531 166.247-33.531 77.237-91.013 134.86-57.481 57.623-134.831 90.891Q569.276 1001 480.404 1001ZM387 747h181q20.375 0 31.188-12.362Q610 722.275 610 704v-40q0-17.425-12.125-29.213Q585.749 623 567.825 623 554 623 544.5 630.125T530 649v16h-98V487h98v17q5 11.75 15.175 18.875 10.176 7.125 23.5 7.125 18.7 0 30.013-12.125Q610 505.75 610 488v-40q0-19.175-10.812-31.088Q588.375 405 568 405H387q-19.375 0-28.688 12.588Q349 430.175 349 450v253q0 19.4 9.312 31.7Q367.625 747 387 747Z"/></svg>