<svg xmlns="http://www.w3.org/2000/svg" width="48" height="48" viewBox="0 -960 960 960"><path d="m610-118-13 7q-14 7-29 2t-23-18l-5.467-8.923Q531-150 533.5-165q2.5-15 15.5-25l12-9q-6.091-17.732-6.091-36.965 0-19.232 6.091-36.965L549-282q-12-10.438-15-25.594T540-337l5-9q8-13 22.5-17.5t29.81 1.5l12.69 6q14-12 30.5-21.5T676-392l3-18q2-14 12.5-24.5T717-445h11.4q13.6 0 25.1 9 11.5 9 13.5 24l1 20q19 5 36 14.5t31 21.5l13-6q13.946-6 28.473-1.5T900-346l5 9q9 13 6 29t-16 26l-12 9.07q6.091 17.733 6.091 36.965 0 19.233-6.091 36.965l13 9q13 10 15.5 25.5T905-136l-4 9q-9 13-24.5 18t-28.5-2l-13-7q-14 13-31.038 23.622-17.039 10.622-35.654 14.734L767-61q-2 15-13.9 24T727-28h-10.4q-14.6 0-25.1-9.5Q681-47 679-62l-2.667-17.849Q657-84 640.5-94.5T610-118Zm112.124-22Q762-140 790-168.624q28-28.624 28-68.5Q818-277 789.876-305q-28.124-28-68-28Q682-333 653.5-304.876q-28.5 28.124-28.5 68Q625-197 653.624-168.5q28.624 28.5 68.5 28.5ZM149-135q-39.05 0-66.525-27.475Q55-189.95 55-229v-502q0-39.463 27.475-67.231Q109.95-826 149-826h662q39.463 0 67.231 27.769Q906-770.463 906-731v173q0 19.875-14.088 32.938-14.087 13.062-34 13.062Q838-512 824.5-525.5T811-560v-73H149v129h335q20.424 0 27.712 19T505-452q-44 41-69 96.175T411-236v23.348Q411-201 413-189q3 22.468-9.545 38.234Q390.909-135 370-135H149Z"/></svg>