<svg xmlns="http://www.w3.org/2000/svg" width="48" height="48" viewBox="0 -960 960 960"><path d="M414-354q-17.4 0-28.7-11.3T374-394v-16q0-12.6 8.842-21.3 8.841-8.7 21.658-8.7 7.9 0 14.117 5.05Q424.833-429.9 427-422v8h99v-46H410.291q-16.116 0-26.203-10.088Q374-480.175 374-496.362v-69.276q0-17.762 11.3-29.062T414-606h132q17.4 0 28.7 11.3T586-566v16q0 12.6-8.842 21.3-8.841 8.7-21.658 8.7-7.962 0-14.731-5T533-538v-8h-99v46h115.709q16.116 0 26.203 10.088Q586-479.825 586-463.638v69.276q0 17.762-11.3 29.062T546-354H414Zm260 0q-17.4 0-28.7-11.3T634-394v-16q0-12.6 8.842-21.3 8.841-8.7 21.658-8.7 7.9 0 14.117 5.05Q684.833-429.9 687-422v8h99v-46H670.291q-16.116 0-26.203-10.088Q634-480.175 634-496.362v-69.276q0-17.762 11.3-29.062T674-606h132q17.4 0 28.7 11.3T846-566v16q0 12.6-8.842 21.3-8.841 8.7-21.658 8.7-7.962 0-14.731-5T793-538v-8h-99v46h115.709q16.116 0 26.203 10.088Q846-479.825 846-463.638v69.276q0 17.762-11.3 29.062T806-354H674Zm-520 0q-18.4 0-29.2-10.8T114-394v-172q0-18.4 10.8-29.2T154-606h132q18.4 0 29.2 10.8T326-566v22q0 12.6-8.596 21.3-8.595 8.7-21.036 8.7Q285-514 278-521q-7-7-10-17v-8h-94v132h94v-8q3-10 10-17t18.273-7q12.069 0 20.898 8.842Q326-428.317 326-415.5v21.5q0 18.4-10.8 29.2T286-354H154Z"/></svg>