<svg xmlns="http://www.w3.org/2000/svg" width="48" height="48" viewBox="0 -960 960 960"><path d="M486.559-299Q528-299 551-316.5t23-47.097Q574-394 551.5-415T472-460q-69-27-102-58.448-33-31.447-33-83.552 0-44 28-76.5t82-41.5v-13q0-14.2 9.357-23.6 9.357-9.4 23.5-9.4h1q14.143 0 23.643 9.4T514-733v12.647Q546-715 570.5-701q24.5 14 41.5 42 7 10.389 2 22.694Q609-624 596.518-618 585-613 573-616.5T552-629q-15-18-33.5-26t-40.5-8q-34 0-54 15.304-20 15.303-20 41.696 0 30 24.5 49t81.167 43q71.6 29 101.466 63.5Q641-416 641-364q0 28-9 49.5t-25.786 37q-16.785 15.5-40.5 24.5Q542-244 512-241v15q0 14.2-9.357 23.6-9.357 9.4-23.5 9.4T455-202.9q-10-9.9-10-24.1v-16q-35-9-64-31t-51-60q-6-11 0-22t18.963-16q12.037-4 23.037.5 11 4.5 18 16.5 14 27 39.5 41.5t57.059 14.5ZM479-17q-112 0-216-63T96-224v86q0 17.3-11.79 29.15Q72.421-97 55.21-97 38-97 26-108.85T14-138v-186q0-20 13.5-33.5T61-371h186q17.3 0 29.15 11.789 11.85 11.79 11.85 29Q288-313 276.15-301T247-289h-96q51 72 143 130.5T478.6-100q144.4 0 252.9-95T858-434q1-17 13.447-28.5 12.448-11.5 30.044-11.5Q917-474 929.5-463.875T941-438q-8.741 90.267-48.37 167.134Q853-194 790.371-137.317q-62.629 56.683-142.5 88.5Q568-17 479-17Zm1-843q-144 0-252.5 95T102-526q-1.831 16.629-14.314 28.314Q75.203-486 57.56-486 41-486 29.5-497.833 18-509.667 19-527q8-87 47.5-163t101-132q61.5-56 142.044-88.5Q390.087-943 480-943q112 0 217 63.5T863-736v-86q0-18 12-29.5t30-11.5q18 0 29.5 11.5T946-822v186q0 20-13.5 33.5T899-589H713q-17.3 0-29.15-11.789-11.85-11.79-11.85-29Q672-647 683.85-659T713-671h96q-54-75-147-132t-182-57Z"/></svg>