<svg xmlns="http://www.w3.org/2000/svg" width="48" height="48" viewBox="0 -960 960 960"><path d="M433-142v-94H270q-19.75 0-33.375-13.675Q223-263.351 223-283.175 223-303 236.625-316.5 250.25-330 270-330h163v-83H270q-19.75 0-33.375-13.675Q223-440.351 223-460.175 223-480 236.625-493.5 250.25-507 270-507h120L210-793q-16-23-2.974-48t41.819-25q12.155 0 23.198 6.684Q283.087-852.632 290-843l190 302 190-303q6.824-9.632 17.706-15.816Q698.588-866 711-866q28.872 0 41.936 24.5T751-793L571-507h119q19.75 0 33.375 13.675Q737-479.649 737-459.825 737-440 723.375-426.5 709.75-413 690-413H527v83h163q19.75 0 33.375 13.675Q737-302.649 737-282.825 737-263 723.375-249.5 709.75-236 690-236H527v94q0 19.75-13.675 33.375Q499.649-95 479.825-95 460-95 446.5-108.625 433-122.25 433-142Z"/></svg>