<svg xmlns="http://www.w3.org/2000/svg" width="48" height="48" viewBox="0 96 960 960"><path d="M359 961q-19 0-36.5-7T291 933L123 765q-14-14-21-31.5T95 697V455q0-19 7-36.5t21-31.5l168-168q14-14 31.5-21.5T359 190h242q19 0 36.5 7.5T669 219l168 168q14 14 21.5 31.5T866 455v242q0 19-7.5 36.5T837 765L669 933q-14 14-31.5 21t-36.5 7H359Zm121-335 96 96q9 10 23.5 10t25.5-11q11-11 11-25.5T625 670l-95-94 96-96q10-9 10-23.5T625 431q-11-11-25.5-11T575 431l-95 95-95-96q-10-10-24.5-10T335 431q-11 11-11 25.5t11 24.5l95 95-96 95q-10 10-10 24.5t11 25.5q11 11 25.5 11t25.5-11l94-95Z"/></svg>