<svg xmlns="http://www.w3.org/2000/svg" width="48" height="48" viewBox="0 -960 960 960"><path d="M632-135q-20.1 0-33.55-13.675Q585-162.351 585-182.421t12.95-32.825Q610.9-228 632-228h40q25.25 0 42.625-17.4T732-289v-77q0-37.52 22.5-68.26Q777-465 814-476v-8q-37-10-59.5-41.24Q732-556.48 732-594v-78q0-25.25-17.375-42.625T672-732h-40q-20.1 0-33.55-13.675Q585-759.351 585-779.421t12.95-33.325Q610.9-826 632-826h65q54.25 0 91.625 38.083Q826-749.833 826-696v77q0 26.2 16.9 43.6Q859.8-558 886-558q7.8 0 13.9 5.621 6.1 5.621 6.1 13.452v117.146q0 8.831-6.1 14.306T886-402q-26.2 0-43.1 17.375Q826-367.25 826-342v78q0 53.833-37.375 91.417Q751.25-135 697-135h-65Zm-369 0q-54.25 0-91.125-37.583Q135-210.167 135-264v-78q0-25.25-17.375-42.625T75-402q-9.225 0-14.612-5.408Q55-412.817 55-422.073v-116.146q0-9.256 5.388-14.518Q65.775-558 75-558q25.25 0 42.625-17.4T135-619v-77q0-53.833 36.875-91.917Q208.75-826 263-826h65q19.1 0 32.55 14.175Q374-797.649 374-777.579t-12.95 32.825Q348.1-732 328-732h-39q-26.2 0-43.6 17.375Q228-697.25 228-672v78q0 37.681-22.55 69.053T147-484v8.472q35.9 10.438 58.45 40.983Q228-404 228-366v77q0 26.2 17.4 43.6Q262.8-228 289-228h39q19.1 0 32.55 13.675Q374-200.649 374-180.579t-12.95 32.825Q348.1-135 328-135h-65Z"/></svg>