<svg xmlns="http://www.w3.org/2000/svg" width="48" height="48" viewBox="0 96 960 960"><path d="M293.877 660Q273 660 259 645.57q-14-14.43-14-35t14.123-35.07q14.123-14.5 35-14.5Q315 561 329 575.638q14 14.637 14 35.432 0 20.07-14.123 34.5t-35 14.43Zm189 0Q462 660 448 645.57q-14-14.43-14-35t14.123-35.07q14.123-14.5 35-14.5Q504 561 518 575.638q14 14.637 14 35.432 0 20.07-14.123 34.5t-35 14.43Zm182 0Q644 660 630 645.57q-14-14.43-14-35t14.123-35.07q14.123-14.5 35-14.5Q686 561 700 575.638q14 14.637 14 35.432 0 20.07-14.123 34.5t-35 14.43ZM189 1001q-39.05 0-66.525-27.475Q95 946.05 95 907V305q0-39.463 27.475-67.231Q149.95 210 189 210h56v-20q0-15.692 12.143-27.846T286.912 150q16.527 0 28.307 12.638Q327 175.275 327 191v19h306v-20q0-15.692 12.143-27.846T674.912 150q16.527 0 28.307 12.638Q715 175.275 715 191v19h56q39.463 0 67.231 27.769Q866 265.537 866 305v602q0 39.05-27.769 66.525Q810.463 1001 771 1001H189Zm0-94h582V486H189v421Z"/></svg>