<svg xmlns="http://www.w3.org/2000/svg" width="48" height="48" viewBox="0 -960 960 960"><path d="M546-153q0 20-13.5 35T499-103q-15 3-30.5 4T438-98q-59-5-115-28.5T222-192q-51-46-83-107.5T99-432q-4-18 9-32t33-15q19-1 33.5 10.5T194-438q7 52 32 97t62 79q34 32 71 48.5t79 20.5q15 0 30.5-1.5T499-199q19 1 33 14t14 32Zm210-40-51 51q-15 14-33.5 13.5T639-143q-15-14-15-33t15-33l50-51-51-51q-15-14-14.5-33t15.5-33q14-15 33-15t33 15l51 51 51-51q14-14 33-14t33 14q14 15 14 33.5T873-311l-50 51 50 51q14 15 14 33.5T873-143q-15 15-33.5 15T807-142l-51-51ZM476-771q-59 0-112.5 24.5T269-680h48q15 0 25.5 10.5T353-644q0 16-10.5 26.5T317-607H171q-21 0-34.5-13.5T123-654v-145q0-15 10.5-25t25.5-10q15 0 25.5 10t10.5 25v60q55-59 127.5-93T476-866q79 0 146 27.5T742-762q50 47 77.5 101.5T856-543q4 18-10 32t-34 14q-19 0-33-13t-19-31q-8-45-27.5-83T676-696q-39-35-90.5-55T476-771Zm41 277 51 48q11 12 9.5 26.5T566-395q-10 10-24 11t-28-13l-55-53q-7-6-10-14.5t-3-18.5v-165q0-15 10.5-25t25.5-10q15 0 25 10t10 25v154Z"/></svg>