<svg xmlns="http://www.w3.org/2000/svg" width="48" height="48" viewBox="0 -960 960 960"><path d="M740-717.66V-820q0-10.2-7-16.6-7-6.4-16.5-6.4-10.5 0-17 6.4T693-820v97q0 10 3 18t10 15l63 66q7 7 16 7t16-7q7-7 6.5-16t-6.5-16l-61-61.66ZM715-524q-80 0-135.5-55.5T524-715q0-79 56-135t135-56q79 0 135 56t56 135.5q0 79.5-56 135T715-524ZM289.5-292q16.5-16 16.5-38.5t-16.5-39Q273-386 250.5-386T212-369.5q-16 16.5-16 39t16 38.5q16 16 38.5 16t39-16Zm299 0q16.5-16 16.5-38.5t-16.5-39Q572-386 549.5-386T511-369.5q-16 16.5-16 39t16 38.5q16 16 38.5 16t39-16Zm-461 220.5Q111-88 111-112v-72q-27-15-41.5-44T55-294v-413q0-81 70-115t264-42q33-3 52.5 25t10.5 62q-5 16-7.5 32t-2.5 33q1 19-11.71 34-12.7 15-30.29 15H149v175h378q11.6 0 23.3 4 11.7 4 22.7 10 14 6 27.5 11.5T628-454q19 5 37.5 8.5T703-442q17 1 30 12.5t13 28.5v107q0 37-15 66t-41 44v73q0 24.5-16.5 40.25T633-55q-24 0-40.5-16.5T576-112v-25H224v26q0 24.5-16 40.25T168-55q-24 0-40.5-16.5Z"/></svg>