<svg xmlns="http://www.w3.org/2000/svg" width="48" height="48" viewBox="0 -960 960 960"><path d="m675-233-58-57q-5.182-5-13.091-5.5Q596-296 590-289.857q-6 6.143-6 14.5T590-261l72 73q14.455 15 33.727 15Q715-173 729-188l74-73q6-6 5.5-14.5t-6.643-14q-6.143-5.5-14-6T774-290l-57 57v-142q0-8-6.214-14-6.215-6-14.5-6-8.286 0-14.786 6t-6.5 14v142ZM433-895q22-12 47-12t47 12l291 168q23 13 35.5 35.207T866-645v171q-36-32-81.286-51.5Q739.429-545 687-545q-4 0-7.128.929-3.127.928-4.872 1.071l96-57v-44.985L723-672 480-530 236-672l-47 27.015V-599l248 143v75q-11 25-16 51.786-5 26.785-5 55.214 0 68.441 28 126.22Q472-90 521-49q-23 4-45.5-.5T433-66L142-233q-23-13-35-35.207T95-315v-330q0-24.586 12-46.793T142-727l291-168ZM686-85q-78 0-134-55.5T496-274q0-79 56-135t134-56q77 0 133.5 56T876-274q0 78-56.5 133.5T686-85Z"/></svg>