<svg xmlns="http://www.w3.org/2000/svg" width="48" height="48" viewBox="0 -960 960 960"><path d="M479.804-445q12.196 0 24.282-3.682T527-458l201-118q15.909-8.878 20.455-25.439Q753-618 744.5-633.889q-8.5-15.889-26.5-20.5Q700-659 685-650L480-530 274-650q-15-9-33-4.389t-26.5 20.5Q206-618 209.913-601.11 213.826-584.219 230-575l203 117q10.706 5.636 22.657 9.318Q467.608-445 479.804-445ZM95-315v-330q0-24.586 11.875-46.58T142-727l291-168q11.451-6 22.93-9t23.824-3q12.345 0 24.295 3Q516-901 527-895l291 168q23.25 13.426 35.625 35.42T866-645v170q0 20.737-17.5 33.868Q831-428 810-433q-13.096-4-24.877-5.5Q773.342-440 760-440q-102 0-176 73.507T510-189q0 27 4.5 48t11.167 42.788Q536-70 514-51q-22 19-45 6L142-233q-23.25-13.426-35.125-35.42T95-315ZM760 0q-78 0-134-55.4-56-55.399-56-133.999Q570-268 626-324t134-56q78 0 134 55.867Q950-268.265 950-189q0 78.435-56 133.718Q838 0 760 0Zm0-45q12 0 20-7.4t8-20.6q0-12-7.9-19.5T760-100q-12 0-19.5 7.5t-7.5 20q0 12.5 7.5 20T760-45Zm.143-95Q772-140 780-147.9t8-20.1v-140q0-11-7.857-19t-20-8Q748-335 740.5-327t-7.5 19v140q0 12.2 7.643 20.1 7.643 7.9 19.5 7.9Z"/></svg>