<svg xmlns="http://www.w3.org/2000/svg" width="48" height="48" viewBox="0 -960 960 960"><path d="m131-860 89 89h-71v451h421L37-853q-11-10-10.5-24.5T38-903q11-11 25-11t25 11l768 766q11 11 10.5 25T855-87q-11 11-25.5 11T805-87L665-226H551v100h39q19.75 0 33.375 13.675Q637-98.649 637-78.325 637-58 623.375-44.5 609.75-31 590-31H370q-19.75 0-33.375-13.675Q323-58.351 323-78.675 323-99 336.625-112.5 350.25-126 370-126h39v-100H149q-39.05 0-66.525-27.475Q55-280.95 55-320v-451q0-38 26.5-63.5T131-860Zm717 631-82-80h46v-462H304l-95-95h603q38.463 0 66.731 28.269Q907-809.463 907-771v462q0 28.636-17 50.818T848-229ZM535-540Zm-175 10Z"/></svg>