<svg xmlns="http://www.w3.org/2000/svg" width="48" height="48" viewBox="0 96 960 960"><path d="M58 790V361q0-19.75 13.625-33.875T105 313h751q19.75 0 33.375 14.125T903 361v429q0 19.75-13.625 33.375T856 837q-6 0-14.481-18.794t-15.5-36Q819 765 814 761.457q-5-3.544-5 28.543v-38H642v38q0-31.118-4.794-27.603-4.794 3.515-12.5 20.059T608.875 818q-8.125 19-14.125 19-19.75 0-33.25-13.625T548 790V408H152v382q0 19.75-13.675 33.375Q124.649 837 104.825 837 85 837 71.5 823.375 58 809.75 58 790Zm584-297h167v-85H642v85Zm0 172h167v-85H642v85Z"/></svg>