<svg xmlns="http://www.w3.org/2000/svg" width="48" height="48" viewBox="0 -960 960 960"><path d="M314.82-325q-24.24 0-41.53-16.88Q256-358.75 256-384.5q0-24.92 17.29-42.21T315.32-444q24.74 0 42.21 17.29Q375-409.42 375-384t-17.55 42.21Q339.9-325 314.82-325Zm166 148q-24.24 0-42.03-18.18-17.79-18.17-17.79-42Q421-261 438.97-279t42.71-18q24.74 0 42.03 18.18 17.29 18.17 17.29 42Q541-213 523.45-195t-42.63 18Zm-162 147q-24.24 0-41.53-17.55Q260-65.1 260-90.18q0-24.24 17.29-42.03Q294.58-150 319.32-150q24.74 0 42.21 18Q379-114 379-89.5t-17.55 42Q343.9-30 318.82-30ZM602.5-341.88Q585-358.75 585-384.5q0-24.92 17.79-42.21 17.8-17.29 42.5-17.29 24.71 0 42.21 17.29T705-384q0 25.42-17.79 42.21-17.8 16.79-42.5 16.79-24.71 0-42.21-16.88Zm-4.92 294.41Q580-64.94 580-89.68q0-24.74 17.79-42.53 17.8-17.79 42.5-17.79 24.71 0 42.21 18T700-89.5q0 24.5-17.76 42T639.82-30q-24.65 0-42.24-17.47ZM809.32-177q-24.74 0-42.03-18.18-17.29-18.17-17.29-42Q750-261 767.55-279t42.63-18q24.24 0 42.03 18.18 17.79 18.17 17.79 42Q870-213 852.03-195t-42.71 18ZM150-177q-25.42 0-42.21-17.97T91-237.68q0-24.74 17.12-42.03Q125.24-297 149.94-297q24.71 0 42.38 18.18 17.68 18.17 17.68 42Q210-213 192.71-195T150-177Zm165-360q-33.5 0-59.25-20.13Q230-577.25 222-609l-22-82h-39q-40.21 0-67.61-27.39Q66-745.79 66-786v-60q0-38.75 27.39-66.38Q120.79-940 161-940h639q38.75 0 66.38 27.62Q894-884.75 894-846v60q0 40.21-27.62 67.61Q838.75-691 800-691h-40l-23 82q-7.93 33.25-34.34 52.62Q676.26-537 643-537H315ZM159-846v60h642v-60H159Zm138 155 18 60h331.12L663-691H297ZM159-846v60-60Z"/></svg>