<svg xmlns="http://www.w3.org/2000/svg" width="48" height="48" viewBox="0 96 960 960"><path d="m480 903-56 56q-15 15-33 14.5t-33-15Q343 944 343 925t15-33l55-56-56-56q-14-14-14-33t15-33.5q15-14.5 33.5-14.5t33.5 15l55 56 56-56q15-15 33.5-15t33.5 15q14 14 14 33t-14 33l-56 56 56 56q14 15 14 33.5T603 958q-15 15-33.5 15T536 958l-56-55ZM159 255v60h642v-60H159Zm138 154 18 60h331.12L663 409H297Zm18 155q-33.5 0-59.25-20.125T222 491l-22-82h-41q-39.8 0-66.9-27.1Q65 354.8 65 315V160h831v155q0 40.05-27.394 67.025Q841.213 409 801 409h-41l-23 83q-7.647 32.385-34.195 52.192Q676.257 564 643 564H315ZM159 255v60-60Z"/></svg>