<svg xmlns="http://www.w3.org/2000/svg" width="48" height="48" viewBox="0 96 960 960"><path d="M271 915v30h418v-30H271Zm0-678h418v-30H271v30Zm-94 119V207q0-38.05 27.975-66.025Q232.95 113 271 113h418q38.05 0 66.025 27.975Q783 168.95 783 207v149h-94v-59H271v59h-94Zm94 683q-38.05 0-66.025-27.47Q177 984.05 177 945V784h94v71h418v-71h94v161q0 39.05-27.975 66.53Q727.05 1039 689 1039H271Zm332-316q-11.25-11-11.625-25.5T602 672l96-96-96-96q-11-11-10.5-25.5t11.75-25.62q10.467-10.197 25.108-10.038Q643 419 653 429l114 114q6.818 6.6 10.409 15.297Q781 566.994 781 576.133q0 9.14-3.591 17.703Q773.818 602.4 767 609L653 723q-10.533 10-25.267 10Q613 733 603 723Zm-296 0L193 609q-6.818-6.6-10.409-15.297Q179 585.006 179 575.867q0-9.14 3.591-17.703Q186.182 549.6 193 543l114-114q10.533-10 25.267-10Q347 419 358 429q10.25 11 10.625 25.5T358 480l-96 96 96 96q11 11 10.5 25.5t-10.75 25.62q-10.733 10.197-25.742 10.038Q317 733 307 723Zm-36 222v-30 30Zm0-738v30-30Z"/></svg>