<svg xmlns="http://www.w3.org/2000/svg" width="48" height="48" viewBox="0 -960 960 960"><path d="M541.619-765Q506-765 481.5-789.88 457-814.761 457-850.381 457-886 481.42-910.5q24.421-24.5 60.04-24.5 35.62 0 60.08 24.539T626-850.08q0 35.43-24.38 60.255Q577.239-765 541.619-765Zm23.416 736Q548-29 536-40.975T524-70v-203l-90-82-19 87q-9 39-41.5 60.5T304-195l-160-33q-16.333-3.129-24.667-17.065Q111-259 115-275q3.129-16.333 16.631-25.167Q145.133-309 161-306l160 32 67-339-80 39v96q0 17.475-12.313 29.737Q283.374-436 265.825-436q-17.125 0-29.475-12.263Q224-460.525 224-478v-89q0-28.838 17.125-52.794Q258.25-643.751 285-654l118-48q33.146-14 47.744-18.5 14.597-4.5 28.856-4.5 23.4 0 41.4 11t30 30l43.935 67.232Q616-584 650.612-557.569 685.224-531.138 734-522q16 2 26.5 14.056 10.5 12.055 10.5 27.283 0 18.257-13 30.959Q745-437 727-440q-53-7-95.5-34T550-549l-33 132 60 54q14.12 14.366 21.56 32.183Q606-313 606-294v224q0 17.05-11.965 29.025Q582.07-29 565.035-29Z"/></svg>