<svg xmlns="http://www.w3.org/2000/svg" width="48" height="48" viewBox="0 96 960 960"><path d="M541.619 291Q506 291 481.5 266.12 457 241.239 457 205.619 457 170 481.42 145.5q24.421-24.5 60.04-24.5 35.62 0 60.08 24.539T626 205.92q0 35.43-24.38 60.255Q577.239 291 541.619 291Zm23.416 736Q548 1027 536 1015.03q-12-11.98-12-29.03V783l-90-82-19 87q-9 39-41.5 60.5T304 861l-160-33q-16.333-3.129-24.667-17.065Q111 797 115 781q3.129-16.333 16.631-25.167Q145.133 747 161 750l160 32 67-339-80 39v96q0 17.475-12.313 29.737Q283.374 620 265.825 620q-17.125 0-29.475-12.263Q224 595.475 224 578v-89q0-28.838 17.125-52.794Q258.25 412.249 285 402l118-48q33.146-14 47.744-18.5 14.597-4.5 28.856-4.5 23.4 0 41.4 11t30 30l43.935 67.232Q616 472 650.612 498.431 685.224 524.862 734 534q16 2 26.5 14.056 10.5 12.055 10.5 27.283 0 18.257-13 30.959Q745 619 727 616q-53-7-95.5-34T550 507l-33 132 60 54q14.12 14.366 21.56 32.183Q606 743 606 762v224q0 17.05-11.965 29.03-11.965 11.97-29 11.97Z"/></svg>