<svg xmlns="http://www.w3.org/2000/svg" width="48" height="48" viewBox="0 -960 960 960"><path d="M480-54q-40 0-81.5-10T323-92q-55 30-94 34.5T137-54q-17 0-29.5-13.12Q95-80.23 95-98.49q0-17.51 12.5-30.01T137-141q24.11.4 46.05.2 21.95-.2 43.45-3.7 21.5-3.5 42-12.5t41.5-25q4.83-4 10.67-4 5.83 0 11.33 4 31 21 71.5 29t76.5 8q36 0 76-8t72-29q4.83-4 10.67-4 5.83 0 10.33 4 22 15.5 42.5 24.25T733-145q21 4 42.5 4.5t46.5-.5q18 0 31 12.71 13 12.72 13 30.38 0 17.66-13 30.78Q840-54 822-54q-52 1-91-3.5T637-92q-34 19-75.71 28.5Q519.59-54 480-54Zm.5-163q-23.5 0-60.5-2t-91-58q-31 29-68.5 45.5T182-210q-23 2-39.5-13T121-259L80-431q-5-16.73 3.82-32.97T111-487l41-13v-209q0-40.21 27.39-67.61Q206.79-804 247-804h91v-55q0-19.63 13.63-33.81Q365.25-907 386-907h189.11q19.64 0 33.27 14.19Q622-878.63 622-859v55h91q40.21 0 67.61 27.39Q808-749.21 808-709v209l41 13q18.36 6.79 27.18 22.89Q885-448 881-431l-40 172q-6 22-22 36t-38.79 14.32Q737-214 700.5-231 664-248 632-277q-54 56-91 58t-60.5 2ZM239-717v188l210-70q15-4 31-4.5t31 3.5l210 71v-188H239Zm241 200L171-415l30 116q31.86-8.97 54.93-21.99Q279-334 303-357q10-8 23.5-8t23.53 8.34Q379-329 408.6-316.5 438.2-304 480-304q42 0 71-12t57.97-40.65Q619-365 632.5-365q13.5 0 23.5 8 23 21 47.39 35.35Q727.79-307.3 759-299l30-116-309-102Zm-1 107Z"/></svg>