<svg xmlns="http://www.w3.org/2000/svg" width="48" height="48" viewBox="0 -960 960 960"><path d="M412-480h133v41q0 16 15 22t26-5l65-65q14-14.36 13.5-34.18T651-555l-65-65q-11-11-26-4.63-15 6.38-15 21.63v43H373q-16.73 0-28.36 11.64Q333-536.72 333-520v128q0 16.73 11.49 28.36 11.49 11.64 28 11.64 16.51 0 28.01-11.64Q412-375.27 412-392v-88Zm67.97 425Q462-55 444-61.5T413-80L80-413q-12-13-18.5-31.03-6.5-18.04-6.5-36 0-18.97 6.5-36.47T80-547l333-333q13.31-13 31.27-19.5t35.84-6.5q18.89 0 36.27 6.5Q533.76-893 547-880l333 333q13 13.31 19.5 30.77t6.5 36.34q0 17.89-6.5 35.77Q893-426.24 880-413L547-80q-13 12-30.53 18.5-17.54 6.5-36.5 6.5Z"/></svg>