<svg xmlns="http://www.w3.org/2000/svg" width="48" height="48" viewBox="0 -960 960 960"><path d="M341-57q-50 0-88.5-28.5T197-160q-16 33-43 50.5T90-92q-51 0-85-36t-34-85q0-56 36.5-88.5T99-331q-19-20-28.5-47T61-433q0-43 22.5-79t64.5-57q6 17 16.5 36.5T184-498q-21 12-32 29.5T141-430q0 56 48.5 69.5T279-339l16 27q-10 26-19 50t-9 48q0 30 22 53.5t53 23.5q32 0 54-23.5t37-58q15-34.5 24.5-74T474-364q3-17 16-25.5t29-4.5q17 5 25.5 20.5T549-340q-10 44-24 94t-37.5 92Q464-112 429-84.5T341-57Zm67-352q-13 13-31 12.5T346-409q-52-47-99-104.5T200-639q0-64 45-109t109-45q8 0 15.5.5T383-791q-12-19-17.5-34.5T360-857q0-50 35-85t85-35q50 0 85 35t35 85q0 15-5 31t-18 36q6-1 13.5-2t15.5-1q63 0 106 41.5T759-649q-19-3-40.5-2t-38.5 3q-4-28-24-46.5T606-713q-38 0-61.5 26T495-630h-30q-26-31-50-57t-61-26q-32 0-53 21t-21 53q0 41 38.5 87t85.5 87q13 12 14 28.5T408-409ZM618-56q-25 0-50-8.5T521-90q10-16 21.5-35.5T560-163q13 14 28.5 20.5T619-136q32 0 53.5-24t21.5-54q0-24-9.5-48T667-312l14-26q42-8 90.5-21.5T820-429q0-40-29.5-58.5T725-506q-39 0-85.5 11.5T549-469q-16 6-30.5-1T500-493q-5-16 5-31t27-21q48-16 97-28.5t95-12.5q69 0 122.5 40.5T900-430q0 27-9.5 53.5T863-330q53-3 90.5 30t37.5 88q0 49-34 85t-85 36q-36 0-64.5-18T764-160q-18 47-56.5 75.5T618-56Z"/></svg>