<svg xmlns="http://www.w3.org/2000/svg" width="48" height="48" viewBox="0 -960 960 960"><path d="M842-30 735-136q-54 39-118.463 60-64.462 21-136.368 21Q390-55 312.013-87.584q-77.988-32.583-134.917-89.512T87.584-312.013Q55-390 55-480.169q0-71.906 21-136.368Q97-681 136-735L30-842l50-50L892-80l-50 50ZM357-519h-56q-16.4 0-26.2 9.8T265-483q0 14.4 10.256 25.2Q285.513-447 300-447h128l-71-72Zm476 279L625-447h54q7-7 11-16t4-20q0-14.4-9.974-25.2Q674.051-519 659-519H553L240-833q51-34 111.325-53.5Q411.649-906 480-906q90 0 167.487 33.084 77.488 33.083 134.917 90.512t90.512 134.917Q906-570 906-480q0 68.351-19.5 128.675Q867-291 833-240Z"/></svg>