<svg xmlns="http://www.w3.org/2000/svg" width="48" height="48" viewBox="0 96 960 960"><path d="M833 816 625 609h54q7-7 11-16t4-20q0-14.4-9.974-25.2Q674.051 537 659 537H554L240 223q51-34 111.325-53.5Q411.649 150 480 150q90 0 167.487 33.084 77.488 33.083 134.917 90.512t90.512 134.917Q906 486 906 576q0 68.351-19.5 128.675Q867 765 833 816Zm-352.831 185q-90.169 0-168.156-32.584-77.988-32.583-134.917-89.512T87.584 743.987Q55 666 55 575.831q0-71.906 21-136.368Q97 375 136 321l-81.92-81.92Q43 229 43.5 214.5 44 200 55 190q9.826-10 24.913-10T106 190l761 762q10 9.867 9.5 24.933Q876 992 867 1001q-10.826 11-25.913 11T816 1001l-81-81q-54 39-118.463 60-64.462 21-136.368 21ZM423 609l-71-72h-51q-16.4 0-26.2 9.8T265 573q0 14.4 10.256 25.2Q285.513 609 300 609h123Z"/></svg>