<svg xmlns="http://www.w3.org/2000/svg" width="48" height="48" viewBox="0 -960 960 960"><path d="m866-207-80-79v-500q0-16.475 11.868-28.237Q809.737-826 826.368-826 843-826 854.5-814.237 866-802.475 866-786v579ZM350-722l-77-76v-41q5-10.75 14.772-17.875t22-7.125Q327-864 338.5-852.237 350-840.475 350-824v102Zm172 172-79-79v-281q0-16.475 11.175-28.237Q465.351-950 481.982-950q16.632 0 28.325 11.763Q522-926.475 522-910v360Zm172 74h-48l-31-30v-360q0-16.475 11.813-28.237Q638.626-906 655.175-906q16.125 0 27.475 11.763Q694-882.475 694-866v390Zm63 363L350-521v157q0 30-26 42.5t-49-4.5l-80-59 173.815 272.831Q375-104 382.964-99.5 390.929-95 402-95h304q13.586 0 27.293-4.5Q747-104 757-113ZM402.373-15Q373-15 345.5-29 318-43 303-68L64-443q-6-10-3-22.5T73.633-485Q95-500 121-504q26-4 58.073 18.188L270-416v-184L47-823q-10-10.067-10.5-25.033Q36-863 47.053-874q10.631-11 25.5-11Q87.42-885 98-874l773 773q10 11 10 25.5T868.947-50q-10.052 11-24 11Q831-39 821-50l-8-7q-21 19-48.559 30.5Q736.883-15 705.567-15H402.373ZM554-317Zm44-159Z"/></svg>