<svg xmlns="http://www.w3.org/2000/svg" width="48" height="48" viewBox="0 96 960 960"><path d="M151 970q-38.775 0-66.388-27.612Q57 914.775 57 876V299q0-38.775 27.612-66.387Q112.225 205 151 205h248q38.775 0 66.388 27.613Q493 260.225 493 299v71h316q38.775 0 66.387 27.613Q903 425.225 903 464v261h-83V452H470v105h80v60h-80v105h80v60h-80v105h187v83H151Zm-11-83h105V782H140v105Zm0-165h105V617H140v105Zm0-165h105V452H140v105Zm0-165h105V287H140v105Zm165 495h105V782H305v105Zm0-165h105V617H305v105Zm0-165h105V452H305v105Zm0-165h105V287H305v105Zm543.807 655Q833 1047 823 1036.65q-10-10.35-10-25.65v-59h-60.298q-15.852 0-25.777-9.975-9.925-9.976-9.925-25.7 0-15.725 9.925-26.025 9.925-10.3 25.777-10.3H813v-60.298q0-15.427 9.975-25.064 9.976-9.638 26.2-9.638 15.8 0 25.312 9.638Q884 804.275 884 819.702V880h60q15.3 0 25.65 10.4Q980 900.801 980 916.175q0 16.225-10.35 26.025Q959.3 952 944 952h-60v59.3q0 15.42-9.693 25.56-9.693 10.14-25.5 10.14ZM655 617v-60h60v60h-60Zm0 165v-60h60v60h-60Z"/></svg>