<svg xmlns="http://www.w3.org/2000/svg" width="48" height="48" viewBox="0 -960 960 960"><path d="M374-449q-15 0-25-10.5T339-484q0-14 10-24.5t25-10.5q14 0 24.5 10.5T409-484q0 14-10.5 24.5T374-449Zm214 0q-15 0-25-10.5T553-484q0-14 10-24.5t25-10.5q14 0 24.5 10.5T623-484q0 14-10.5 24.5T588-449ZM119-95q-19.75 0-33.375-13.625T72-141.939Q72-163 83.5-180t35.5-9h22v-582q0-39.463 27.475-67.231Q195.95-866 235-866h490q39.463 0 67.231 27.769Q820-810.463 820-771v582h21q19.75 0 33.375 13.675Q888-161.649 888-141.825 888-122 874.375-108.5 860.75-95 841-95H119Zm116-94h215v-582H235v582Zm275 0h215v-582H510v582Zm-30-340Z"/></svg>