<svg xmlns="http://www.w3.org/2000/svg" width="48" height="48" viewBox="0 -960 960 960"><path d="M353-98q-39.75 0-67.375-27.625T258-193v-90h222q31.75 0 54.375-22.677t22.625-54.5Q557-392 534.375-414.5T480-437H258v-330q0-39.75 27.625-67.375T353-862h254q39.75 0 67.375 27.625T702-767v574q0 39.75-27.625 67.375T607-98H353ZM190-313q-19.75 0-33.375-13.675Q143-340.351 143-360.175 143-380 156.625-393.5 170.25-407 190-407h290q19.75 0 33.375 13.675Q527-379.649 527-359.825 527-340 513.375-326.5 499.75-313 480-313H190Zm290.175-240Q500-553 513.5-566.675q13.5-13.676 13.5-33.5Q527-620 513.325-633.5q-13.676-13.5-33.5-13.5Q460-647 446.5-633.325q-13.5 13.676-13.5 33.5Q433-580 446.675-566.5q13.676 13.5 33.5 13.5Zm338.65-40Q799-593 785.5-606.625 772-620.25 772-640v-160q0-19.75 13.675-33.375Q799.351-847 819.175-847 839-847 852.5-833.375 866-819.75 866-800v160q0 19.75-13.675 33.375Q838.649-593 818.825-593Z"/></svg>