<svg xmlns="http://www.w3.org/2000/svg" width="48" height="48" viewBox="0 -960 960 960"><path d="M310-284h340q13 0 21.5-8.5T680-314q0-13-8.5-21.5T650-344H310q-13 0-21.5 8.5T280-314q0 13 8.5 21.5T310-284Zm138-237-64-63q-9-8-21-8.5t-21 8.5q-9 9-9 21t9 21l101 102q14.727 14 34.364 14Q497-426 511-440l103-102q9-9 9-21t-9-21q-9-9-21-8.5t-21 8.5l-64 63v-169q0-13-8.5-21.5T478-720q-13 0-21.5 8.5T448-690v169Zm32.138 466Q392-55 314.513-88.084q-77.488-33.083-135.417-91.012T88.084-314.375Q55-391.724 55-479.862 55-569 88.084-646.487q33.083-77.488 90.855-134.969 57.772-57.482 135.195-91.013Q391.557-906 479.779-906q89.221 0 166.827 33.454 77.605 33.453 135.012 90.802 57.407 57.349 90.895 134.877Q906-569.34 906-480q0 88.276-33.531 165.747-33.531 77.471-91.013 135.278-57.481 57.808-134.831 90.891Q569.276-55 480.138-55Z"/></svg>