<svg xmlns="http://www.w3.org/2000/svg" width="48" height="48" viewBox="0 96 960 960"><path d="M674.823 886Q623 886 586.5 849.324 550 812.647 550 760.823 550 709 586.677 672.5q36.676-36.5 88.5-36.5Q727 636 763.5 672.676q36.5 36.677 36.5 88.501Q800 813 763.323 849.5q-36.676 36.5-88.5 36.5ZM675 486q15 0 25 10t10 25.435v29.13Q710 566 700 576q-10 10-25 10t-25-10q-10-10-10-25.435v-29.13Q640 506 650 496q10-10 25-10Zm0 450q15 0 25 10t10 25.435v29.135q0 15.43-10 25.43t-25 10q-15 0-25-10t-10-25.43v-29.135Q640 956 650 946q10-10 25-10Zm193.5-369.786q10.5 10.215 10.5 24.955 0 14.74-10 24.831l-22 22q-10.636 11-25.318 11Q807 649 797 637.353q-11-10.765-11-25.147 0-14.383 11-24.206l23-22q9.364-9 24.182-9.5Q859 556 868.5 566.214ZM551.5 884.5q9.5 9.5 9.5 24.318 0 14.818-9 24.182l-22 22q-8 8-36-3t-13 3q-10-9.364-10-24.182Q471 916 481 906l23-22q9.091-9 23.545-9 14.455 0 23.955 9.5ZM950 761q0 15-10 25t-25.435 10h-29.13Q870 796 860 786q-10-10-10-25t10-25q10-10 25.435-10h29.13Q930 726 940 736q10 10 10 25Zm-450 0q0 15-10 25t-25.435 10h-29.13Q420 796 410 786q-10-10-10-25t10-25q10-10 25.435-10h29.13Q480 726 490 736q10 10 10 25Zm299 122q10.364-10 24.682-10.5Q838 872 848 883l22 22q10.1 9.636 9.55 24.818Q879 945 870.14 954q-9.537 11-24.339 11Q831 965 821 954l-22-22q-12.111-10.364-11.556-24.182Q788 894 799 883ZM481 567q9.364-10 24.182-10.5Q520 556 530 567l21 21q6.333 5.667 8.667 11.833Q562 606 561.5 613q-.5 7-2.889 13T551 637q-10.676 11-24.926 11-14.25 0-24.074-11l-21-21q-11.111-9.364-10.556-24.182Q471 577 481 567ZM189 921q-39.05 0-66.525-27.475Q95 866.05 95 827V225q0-39.463 27.475-67.231Q149.95 130 189 130h56v-19q0-16.75 12.675-28.875Q270.351 70 287.175 70 304 70 315.5 82.125T327 111v19h306v-19q0-16.75 12.675-28.875Q658.351 70 675.175 70 692 70 703.5 82.125T715 111v19h56q39.463 0 67.231 27.769Q866 185.537 866 225v181H189v421h131v94H189Zm0-575h582V225H189v121Zm0 0V225v121Z"/></svg>