<svg xmlns="http://www.w3.org/2000/svg" width="48" height="48" viewBox="0 -960 960 960"><path d="M674.94-90Q623-90 586.5-126.54T550-215q0-52 36.56-88.5t88.5-36.5q51.94 0 88.44 36.5t36.5 88q0 52.5-36.56 89T674.94-90ZM650-400q-10-10-10-25.43v-29.14Q640-470 650-480t25-10q15 0 25 10t10 25.43v29.14Q710-410 700-400t-25 10q-15 0-25-10Zm50 370q10 10 10 25.43v29.14Q710 40 700 50t-25 10q-15 0-25-10t-10-25.43V-4.57Q640-20 650-30t25-10q15 0 25 10Zm86.5-333.53Q786-378 797-388l23-22q9.36-9 23.68-9.5t24.82 9.5q10.5 10 10.5 24.95 0 14.96-10 25.05l-22 22q-11 11-25.5 10.5T797-338.53q-10-10.54-10.5-25ZM551.71-92Q561-82 561-67.18T552-43l-22 22q-9.64 10-24.82 10t-24.68-9.5Q471-30 471-45t10-25l23-22q9-9 23.71-9 14.72 0 24 9ZM860-240q10-10 25.43-10h29.14Q930-250 940-240t10 25q0 15-10 25t-25.43 10h-29.14Q870-180 860-190t-10-25q0-15 10-25Zm-370 50q-10 10-25.43 10h-29.14Q420-180 410-190t-10-25q0-15 10-25t25.43-10h29.14Q480-250 490-240t10 25q0 15-10 25Zm309 97q10.36-10 24.68-10.5T848-93l22 22q9 9.64 9 24.32t-9.53 25.18q-9.54 10.5-24 10.5Q831-11 821-22l-22-22q-11.11-9.36-11.06-23.68Q788-82 799-93ZM525.97-328Q512-328 502-339l-21-21q-11.11-9.36-10.56-23.68Q471-398 481-409q9.36-10 24.18-10.5T530-409l21 21q9 9.64 9.5 24.32t-10.03 25.18q-10.54 10.5-24.5 10.5ZM189-55q-39.05 0-66.53-27.47Q95-109.95 95-149v-602q0-39.46 27.47-67.23Q149.95-846 189-846h56v-19q0-17.15 12.19-29.08 12.2-11.92 29-11.92Q303-906 315-894.08q12 11.93 12 29.08v19h306v-19q0-17.15 12.19-29.08 12.2-11.92 29-11.92Q691-906 703-894.08q12 11.93 12 29.08v19h56q39.46 0 67.23 27.77Q866-790.46 866-751v134q0 20-14.06 33.5T818-570H189v421h84q20 0 33.5 13.5T320-102q0 20-13.5 33.5T273-55h-84Zm0-575h582v-121H189v121Zm0 0v-121 121Z"/></svg>