<svg xmlns="http://www.w3.org/2000/svg" width="48" height="48" viewBox="0 -960 960 960"><path d="M480-487Zm-.559 382Q458-105 439-113q-19-8-33-23L138-405q-36-35-54.5-82.57Q65-535.141 65-589.128 65-700 137.568-777.5 210.137-855 314-855q46.361 0 89.18 17Q446-821 480-789q34-31.944 76.5-48.972Q599-855 645-855q105 0 177.5 77.515T895-590.017Q895-536 876.5-488.5 858-441 823-406L554-136q-15 15-34.059 23-19.059 8-40.5 8Zm41.09-523q8.969 0 18.404 5.167Q548.37-617.667 553-609l61 94h178.538q7.529-17.429 10.995-36.108Q807-569.787 807-589.621 808-664 761.054-717t-115.722-53q-33.364 0-62.848 14.5T530-717l-27 29q-5 5-10.333 8-5.334 3-12.917 3-6.25 0-12.636-2.885Q460.727-682.769 456-688l-27-29q-23.273-23.816-53.136-37.408Q346-768 314-768q-67.571 0-114.786 52.129Q152-663.741 152-590.09q0 20.389 3.5 39.239Q159-532 166.649-515H360q9.576 0 18.894 4.611Q388.212-505.778 393-498l35 54 54-156q5.083-12 15.251-20 10.167-8 23.28-8ZM532-507l-55 156q-4.974 12-15.354 20-10.379 8-22.646 8-10 0-18.5-5T408-342l-62-94H229l228 224q3.5 4 7.175 5.5t8.575 1.5q4.9 0 8.575-1.5Q485-208 488-212l242-224H600q-10 0-18.5-5T568-454l-36-53Z"/></svg>