<svg xmlns="http://www.w3.org/2000/svg" width="48" height="48" viewBox="0 -960 960 960"><path d="M214-55q-39.05 0-66.525-27.475Q120-109.95 120-149v-662q0-39.463 27.475-67.231Q174.95-906 214-906h302q18.867 0 36.933 8Q571-890 584-877l198 198q13 13 21 31.067 8 18.066 8 36.933v78q0 12.778-8.5 22.889Q794-500 781-498q-18.867 6.52-35.433 17.26Q729-470 714-455L510-251q-13.625 13.232-20.812 30.902Q482-202.429 482-184v82q0 20-13.5 33.5T435-55H214Zm328-47v-78q0-9 3.5-16.786Q549-204.571 556-212l212-211q11.171-11 24.658-16.5 13.487-5.5 27.474-5.5 14.894 0 28.381 6T874-422l37 37q11.059 11.151 16.029 24.613Q932-346.925 932-332.962q0 14.962-5.529 28.743Q920.941-290.438 910-279L700-68q-7.379 7-15.103 10-7.725 3-17.897 3h-78q-20 0-33.5-13.5T542-102Zm286-199 29-32-37-37-30 31 38 38ZM543-591h173L496-811l220 220-220-220v173q0 20 13.5 33.5T543-591Z"/></svg>