<svg xmlns="http://www.w3.org/2000/svg" width="48" height="48" viewBox="0 96 960 960"><path d="M202 720v32q0 19.667-14.735 35.833Q172.529 804 148.765 804 126 804 110.5 787.833 95 771.667 95 749V420l86-260q6-22 24.58-34.5T248 113h464q23.84 0 42.42 12.5Q773 138 779 160l87 260v329q0 22.667-16.235 38.833-16.236 16.167-39 16.167Q787 804 772 787.542 757 771.083 757 751v-31H202Zm12-356h533l-52-157H265l-51 157Zm-25 60v201-201Zm101.765 156Q313 580 329 563.75T345 526q0-24.333-16.25-40.167Q312.5 470 291 470q-24.333 0-40.167 15.765-15.833 15.764-15.833 40Q235 548 250.765 564q15.764 16 40 16ZM671 580q23.333 0 39.667-16.25Q727 547.5 727 526q0-24.333-16.265-40.167Q694.471 470 671.235 470 648 470 632.5 485.765q-15.5 15.764-15.5 40Q617 548 632.75 564T671 580Zm-152 445L279 899h158v-82l245 123H519v85ZM189 625h582V424H189v201Z"/></svg>