<svg xmlns="http://www.w3.org/2000/svg" width="48" height="48" viewBox="0 -960 960 960"><path d="M776-89H161q-28 0-42-25.5t3-49.5l198-275q13.311-19.121 33.1-29.561Q372.889-479 396-479h154l237-277q22-24 53-12.883T871-725v541q0 40.212-27.394 67.606Q816.213-89 776-89ZM282-579 158-408q-12 16-30.478 19.5Q109.043-385 94-396q-16-12-19.5-31.326T82-462l123-173q12.6-17.941 33.8-28.471Q260-674 283-674h152l160-186q13.186-15.4 32.61-17.2 19.424-1.8 34.407 11.3Q677-853 679-833.044q2 19.955-11 35.044L508-612q-13.35 15-31.95 24T435-579H282Zm-30 395h524v-414L622-418q-13 16-31.5 24.5T550-385H396L252-184Zm524 0Z"/></svg>