<svg xmlns="http://www.w3.org/2000/svg" width="48" height="48" viewBox="0 96 960 960"><path d="M132.752 213q-15.502 0-25.627-10.272Q97 192.456 97 177.228t10.125-25.728Q117.25 141 132.752 141h264.496q15.502 0 25.627 10.6Q433 162.201 433 177.175q0 15.4-10.125 25.612Q412.75 213 397.248 213H132.752Zm133.476 308Q251 521 240.5 510.5 230 500 230 485.248V327h-97q-15.75 0-25.875-10.6Q97 305.799 97 290.825 97 275 107.125 265t25.627-10h264.496q15.502 0 25.627 10.175Q433 275.351 433 290.675 433 306 422.875 316.5T397 327h-97v159.248q0 15.077-9.272 24.914-9.272 9.838-24.5 9.838ZM538 954q-11-11-11-26t11-26l270-270q11-10 25-9.5t25 11q11 10.5 11 25.5t-11 26L588 955q-11 11-25 10.5T538 954Zm46-223q-24.4 0-41.2-16.905-16.8-16.904-16.8-41.7 0-24.795 16.707-41.595 16.707-16.8 41.2-16.8 24.493 0 41.793 16.875T643 672.5q0 24.75-17.3 41.625T584 731Zm234.395 239q-24.795 0-41.595-16.733Q760 936.533 760 912q0-24.967 16.733-41.983Q793.467 853 818 853q24.967 0 41.983 16.905Q877 886.809 877 911.605q0 24.795-16.905 41.595-16.904 16.8-41.7 16.8ZM634.128 536Q593 536 565.5 507.128q-27.5-28.873-27.5-67Q538 399 565.473 372t68.741-27q11.947 0 21.367 4Q665 353 670 357V187.754q0-15.079 9.838-24.916Q689.675 153 705 153h112q15.325 0 24.662 9.772 9.338 9.772 9.338 25t-9.338 25.728q-9.337 10.5-25.013 10.5H729v215.557Q729 481 702.128 508.5q-26.873 27.5-68 27.5ZM201 991q-42 0-71-28.402T101 893q0-21 8.5-38.721Q118 836.558 133 822l48-48-16-17q-15-15-23-34.161-8-19.162-8-36.774 0-41.207 28.476-69.136Q190.952 589 231.976 589T301 616.929q28 27.929 28 69.136 0 17.612-6 36.774Q317 742 302 757l-16 17 43 43 35-35q10.294-11 24.824-11 14.529 0 25.214 11Q425 793 424.5 807.409 424 821.818 414 832l-38 38 28 28q10 9.822 10 23.911Q414 936 403.946 946q-10.053 10-24.5 10Q365 956 355 946l-34-33-45.737 46.737Q259 976 240.149 983.5 221.298 991 201 991Zm31-261 20.059-21.059Q255 704 256.5 699.2t1.5-12.8q0-10.4-6.929-18.4-6.928-8-19.5-8Q219 660 212 668.025q-7 8.025-7 17.975 0 9 2 13.5t4.941 9.441L232 730Zm-32.182 190Q204 920 211 917t11-8l48-47-37-37-49 49q-3 3.636-6 9.318-3 5.682-3 10.334 0 11.044 7.056 18.696Q189.111 920 199.818 920Z"/></svg>