<svg xmlns="http://www.w3.org/2000/svg" width="48" height="48" viewBox="0 96 960 960"><path d="M476.619 316Q441 316 416.5 291.12 392 266.239 392 231.619 392 196 416.539 171.5T476.92 147q35.43 0 60.255 24.539Q562 196.078 562 231.92q0 34.43-24.88 59.255Q512.239 316 476.619 316Zm-80.303 668q-17.334 0-29.325-12.125T355 942V450q-84-23-139.5-79.5T149 236q-3-16 8.389-29t30.435-13q16.376 0 28.406 10.823Q228.261 215.647 233 234q14 63 69 103.5T429.701 378H526q41 0 62.5 7t52.5 34l160 150q12 12 12.5 29.5t-11.5 30Q789 642 772.167 642q-16.834 0-29.167-13L599 495v447q0 17.75-12.167 29.875Q574.667 984 557.333 984 540 984 528 971.875T516 942V721h-78v221q0 17.75-12.175 29.875Q413.649 984 396.316 984Z"/></svg>