<svg xmlns="http://www.w3.org/2000/svg" width="48" height="48" viewBox="0 96 960 960"><path d="M465 772q75 0 127.5-52.646T645 591.5V411H464.5q-75.208 0-127.854 52.494Q284 515.989 284 590.981q0 29.37 8.5 54.695Q301 671 317 694l-23 22q-10 11-10 23.5t10 22.5q10 10 22.5 10t23.5-10.185L362 739q23 16 48.095 24.5Q435.189 772 465 772Zm15 284L329.138 938.442 141 915l-23.442-188.138L0 576l118.047-150.868L141 236l188.138-22.442L480 96l150.784 117.367 189.027 22.822 22.822 189.027L960 576 842.442 726.862 820 915l-189.132 22.953L480 1056Zm29-463q10-8.6 10-21.8 0-13.2-10-24.2-11-10-24.2-10T463 547l-77.294 77.327Q376 634.106 376 647.553T385.842 670q8.842 10 22 10.5T431 671l78-78Z"/></svg>