<svg xmlns="http://www.w3.org/2000/svg" width="48" height="48" viewBox="0 -960 960 960"><path d="M18-143v-71q0-46.462 22.5-73.731Q63-315 93-329q54-26 121-44t145.5-18q78.5 0 145 17T626-331q29 15 51.5 42.951Q700-260.099 700-214v71q0 20-13.5 33.5T653-96H65q-20 0-33.5-13.5T18-143Zm341.5-308q-76.5 0-126-49.737Q184-550.475 184-621h-10q-11.15 0-19.075-7.991-7.925-7.992-7.925-19.25 0-10.809 7.925-18.784T174-675h10q0-45 25.5-82.5T278-814v39.617Q278-767 282.275-763q4.275 4 11.725 4 6 0 11-3.926 5-3.925 5-10.804V-825q8.353-1 22.745-3 14.392-2 27.824-2Q373-830 387-828q14 2 22.8 2.961v51.299q0 6.883 5.1 10.811Q420-759 427-759t11.5-4q4.5-4 4.5-11v-40q42 19 66.5 56.462Q534-720.077 534-675h10q11.15 0 19.075 7.897 7.925 7.896 7.925 19Q571-637 563.075-629q-7.925 8-19.075 8h-10q0 71-49 120.5T359.5-451Zm.465-95Q397-546 418.5-568.356 440-590.713 440-627H279q0 36 21.346 58.5t59.619 22.5ZM678-416l-1-10q-7-4-14.657-9t-13.8-11l-11.343 6q-7.55 4-14.065 2.111-6.516-1.889-10.325-7.5L612-447q-5-7-3.5-14.5T616-474l11-8q-2-4-2-7.5v-15q0-3.5 2-7.5l-11-8q-6-5-7.5-12t3.5-14l1-3q4-6 10.825-8 6.825-2 14.175 2l11 6 14-10q7-5 14-9l1-11q1-8 6.5-13t13.5-5h2q7 0 12.833 5.5 5.834 5.5 6.967 13.5l1.2 10q7 3.75 13.5 8.875T749-549l11-6q7-4 13.5-2t11.5 8l1 2q4 7 3 14.5t-7 12.5l-11 8q1 4 1.5 7.5t.5 7.5q0 4-.5 7.5T771-482l11 8q6 5 7 12t-3.5 14l-.5 3q-5 6-11.5 8t-13.5-2l-11-6q-6 5-13.5 10t-14.5 9l-1.2 11q-1.133 8-6.967 13Q707-397 700-397h-2q-8 0-13.5-5.5T678-416Zm21-43q16 0 27-11t11-27q0-16-11-27t-27.5-11q-16.5 0-27 11T661-497q0 16 10.5 27t27.5 11Zm89-176-5-21q-10-4-20.5-11T745-682l-28 10.25q-7 2.75-13.5.25T693-680l-4-6q-4-7-2.5-14t7.5-12l22-17q-2-5-3.5-11t-1.5-12q0-6 1.5-11.5T716-775l-22-17q-6-4-7.5-11.757-1.5-7.756 2.5-13.973l4-5.27q4-6 10.5-8.5t13.5-.5l28 10q7-7 17.5-14.875T783-848l5-21q2-6 7-10t11-4h10q6 0 11 4t7 10l5 21q10 3 20.5 11t17.5 15l28-10q7-2 13.5 0t10.5 8l4 6q4 7 2.5 14.5T928-792l-22 17q2 6 3.5 11.727Q911-757.545 911-752q0 6-1.5 12t-3.5 11l22 17q6 5 7.5 12.5T933-686l-4 5q-4 6-10.5 9t-13.5.25L877-682q-7 8-17.5 15T839-656l-5 21q-2 6-7 10t-11 4h-10q-6 0-11-4t-7-10Zm23-59q25 0 41.5-16.5T869-752q0-25-16.5-41.5T811-810q-25 0-41.5 16.5T753-752q0 25 16.5 41.5T811-694Z"/></svg>