<svg xmlns="http://www.w3.org/2000/svg" width="48" height="48" viewBox="0 -960 960 960"><path d="m480-310-70 72q-11 11-25 10.5T360-239q-11-11-11-25.5t11-25.5l70-70-72-71q-11-10-10.5-24.122T359-481q11-11 25.5-11t25.5 11l70 71 71-72q10-11 24.122-11T601-482q11 11.511 11 25.756Q612-442 601-431l-71 71 72 70q11 11 11 25t-11.411 25q-11.41 11-25.5 11Q562-229 551-240l-71-70ZM189-55q-39.05 0-66.525-27.475Q95-109.95 95-149v-602q0-39.463 27.475-67.231Q149.95-846 189-846h56v-19q0-17.15 12.193-29.075t29-11.925Q303-906 315-894.075T327-865v19h306v-19q0-17.15 12.193-29.075t29-11.925Q691-906 703-894.075T715-865v19h56q39.463 0 67.231 27.769Q866-790.463 866-751v602q0 39.05-27.769 66.525Q810.463-55 771-55H189Zm0-94h582v-421H189v421Z"/></svg>