<svg xmlns="http://www.w3.org/2000/svg" width="48" height="48" viewBox="0 96 960 960"><path d="m305 770 238-104q9-3 15.846-10.062Q565.692 648.875 569 639l104-236.926q5-9.583-2.225-16.829Q663.55 378 654 383L417 487q-9.875 3.308-16.938 10.154Q393 504 390 513L286 750.852q-5 9.617 2.225 16.882Q295.45 775 305 770Zm175-154q-17 0-28.5-11.5T440 576q0-17 11.5-28.5T480 536q17 0 28.5 11.5T520 576q0 17-11.5 28.5T480 616Zm.138 385q-88.138 0-165.513-33.366-77.376-33.366-135.112-91.066-57.737-57.699-91.125-135.024T55 576.11Q55 488 88.584 410.513q33.583-77.488 91.012-134.917t134.823-91.512Q391.812 150 480 150q88.188 0 165.581 34.084 77.394 34.083 134.823 91.512t91.512 134.823Q906 487.812 906 576q0 88.188-34.084 165.581-34.083 77.394-91.512 134.823t-134.779 91.012Q568.276 1001 480.138 1001Z"/></svg>