<svg xmlns="http://www.w3.org/2000/svg" width="48" height="48" viewBox="0 -960 960 960"><path d="M479.555-229Q618-229 715-325.013 812-421.025 812-559q0-34.807-8-68.403Q796-661 784-691q-28 19-59.358 30-31.357 11-64.405 11-54.449 0-100.343-26.5Q514-703 480-745q-34 42-80 68.5T299.63-650q-32.002 0-63.316-11T177-691q-13 31-20 64t-7 68q0 137.975 96.09 233.987Q342.181-229 479.555-229Zm-121.33-232Q382-461 398-477.225q16-16.226 16-40Q414-541 397.775-557q-16.226-16-40-16Q334-573 318-556.775q-16 16.226-16 40Q302-493 318.225-477q16.226 16 40 16Zm245 0Q627-461 643.5-477.225q16.5-16.226 16.5-40Q660-541 643.275-557q-16.726-16-40.5-16Q579-573 563-556.775q-16 16.226-16 40Q547-493 563.225-477q16.226 16 40 16ZM76-55Q33.668-55 5.334-85.115-23-115.23-19-157l38-407q8-90 47.5-167t101.69-133.545q62.191-56.544 142.5-89Q391-986 480.532-986q89.531 0 169.727 32.464 80.196 32.463 142.185 89.022 61.99 56.559 101.342 133.775Q933.138-653.523 942-564l37 407q4 41.77-24.334 71.885Q926.332-55 884-55H76Z"/></svg>