<svg xmlns="http://www.w3.org/2000/svg" width="48" height="48" viewBox="0 -960 960 960"><path d="M102-426h146v-66h-68q-19.55 0-32.775-13.675Q134-519.351 134-539.175 134-559 147.225-572.5 160.45-586 180-586h69q38.362 0 65.681 27.613Q342-530.775 342-492v66h90v-305q0-72.055 51.5-123.527Q535-906 608.4-906q48.6 0 88.918 26.433Q737.636-853.133 762-810l16 33q9 17 3 36.5T757.213-712q-16.787 8-36 2T693-733l-16-34q-11.196-19.435-29.499-31.717Q629.197-811 607.441-811 573-811 550-787.667 527-764.333 527-731v305h90v-66q0-38.775 27.612-66.387Q672.225-586 711-586h68q19.975 0 33.487 13.675Q826-558.649 826-538.825 826-519 812.487-505.5 798.975-492 779-492h-67v66h146q19.625 0 33.812 14.263 14.188 14.263 14.188 34Q906-358 891.812-344.5 877.625-331 858-331H102q-19.75 0-33.375-13.675Q55-358.351 55-378.088q0-19.737 13.625-33.824Q82.25-426 102-426ZM228-95q-38.363 0-65.681-27.319Q135-149.637 135-188v-143h94v142h502v-142h95v148q0 36.3-25.594 62.15T738-95H228Z"/></svg>