<svg xmlns="http://www.w3.org/2000/svg" width="48" height="48" viewBox="0 -960 960 960"><path d="M223-120q-19.75 0-33.375-13.625T176-167v-135h-43q-20 0-33.5-13.625T86-349q0-19.75 13.5-33.375T133-396h43v-77h-43q-20 0-33.5-13.625T86-520q0-19.75 13.5-33.375T133-567h43v-113q0-8.913 3.5-17.242T190-713l86-86q13.091-14 32.545-14Q328-813 342-799l52 53 53-53q14.067-14 33.533-14Q500-813 514-799l53 52 51-52q14.067-14 33.967-14T685-799l86 86q7 7 11 15.543 4 8.544 4 17.457v113h41q19.625 0 33.812 13.675Q875-539.649 875-519.825 875-500 860.812-486.5 846.625-473 827-473h-41v77h41q19.625 0 33.812 13.675Q875-368.649 875-348.825 875-329 860.812-315.5 846.625-302 827-302h-42v135q0 19.75-13.688 33.375Q757.625-120 738-120H223Zm47-447h77v-94l-38-38-39 38.465V-567Zm171 0h78v-94l-39-38-39 38.465V-567Zm173 0h76v-94l-39-38-37 38.378V-567ZM270-396h77v-77h-77v77Zm171 0h78v-77h-78v77Zm173 0h76v-77h-76v77ZM270-214h77v-88h-77v88Zm171 0h78v-88h-78v88Zm173 0h76v-88h-76v88Z"/></svg>