<svg xmlns="http://www.w3.org/2000/svg" width="48" height="48" viewBox="0 96 960 960"><path d="m844 967-77-77v70q0 19.75-13.675 33.375-13.676 13.625-33.5 13.625-19.825 0-33.325-13.625Q673 979.75 673 960V776q0-19.75 13.625-33.375T720 729h184q19.75 0 33.375 13.675Q951 756.351 951 776.175 951 796 937.375 809.5 923.75 823 904 823h-71l78 78q15 15 15 33.658t-13.609 32.5Q898 981 878.033 981q-19.966 0-34.033-14ZM558 465h173L511 245v173q0 19.75 13.625 33.375T558 465Zm-329 536q-39 0-66.5-27.5T135 907V245q0-39 27.5-67t66.5-28h302q19.444 0 37.222 8Q586 166 599 179l198 198q13 13 21 30.778T826 445v224H707q-38.75 0-66.375 27.625T613 763v238H229Z"/></svg>