<svg xmlns="http://www.w3.org/2000/svg" width="48" height="48" viewBox="0 -960 960 960"><path d="M504-355h110q32 0 51.5-19.5T685-427v-94q0-32-19.5-52T614-593H504v-96h102.526q15.199 0 25.336-10.37Q642-709.74 642-725.07q0-14.905-10.062-24.917Q621.875-760 607-760H504q-32 0-52 19.5T432-689v262q0 33 20 52.5t52 19.5Zm0-166h110v94H504v-94ZM286-192q-39.05 0-66.525-27.475Q192-246.95 192-286v-542q0-39.463 27.475-67.231Q246.95-923 286-923h542q39.463 0 67.231 27.769Q923-867.463 923-828v542q0 39.05-27.769 66.525Q867.463-192 828-192H286Zm0-94h542v-542H286v542ZM132-37q-39.463 0-67.231-27.769Q37-92.537 37-132v-589q0-19.75 13.675-33.375Q64.351-768 84.675-768 105-768 118.5-754.375 132-740.75 132-721v589h589q19.75 0 33.375 13.675Q768-104.649 768-84.325 768-64 754.375-50.5 740.75-37 721-37H132Zm154-791v542-542Z"/></svg>