<svg xmlns="http://www.w3.org/2000/svg" width="48" height="48" viewBox="0 -960 960 960"><path d="M229-55q-39.05 0-66.525-27.475Q135-109.95 135-149v-662q0-39.463 27.475-67.231Q189.95-906 229-906h331q20.344 0 38.984 8.966Q617.623-888.069 631-873l171 195q12.053 12.513 18.026 28.257Q826-634 826-617v389q0 23.571-22 32.786Q782-186 765-203L615-351.547Q627-368 634-389q7-21 7-50 0-68-46.5-114.5T480-600q-68 0-114 46.5t-46 115q0 68.5 46 114T480.034-279Q508-279 528-283.5t40-17.5l165 165q23 23 10.777 52Q731.553-55 700-55H229Zm251.168-306Q447-361 424.5-383.332t-22.5-55.5Q402-472 424.332-494.5t55.5-22.5Q513-517 535.5-494.668t22.5 55.5Q558-406 535.668-383.5t-55.5 22.5Z"/></svg>