<svg xmlns="http://www.w3.org/2000/svg" width="48" height="48" viewBox="0 -960 960 960"><path d="M218-152v-85h-18q-43 0-72.5-30T98-340v-80q0-42 29.5-72t72.5-30h18v-85h-28q-19.75 0-33.37-13.68Q143-634.35 143-654.18 143-674 156.63-688q13.62-14 33.37-14h35q21-87 91-144t164-57q94 0 164 57t91 144h35q19.75 0 33.38 14.18 13.62 14.17 13.62 34 0 19.82-13.62 33.32Q789.75-607 770-607h-27v85h17q43 0 73 30t30 72v80q0 43-30 73t-73 30h-17v85h27q19.75 0 33.38 13.68Q817-124.65 817-104.82 817-85 803.38-71.5 789.75-58 770-58H190q-19.75 0-33.37-13.68Q143-85.35 143-105.18q0-19.82 13.63-33.32Q170.25-152 190-152h28Zm108-550h308q-17-46-59-76t-95-30q-53 0-95 30t-59 76Zm-14 550h336v-180h120v-96H648v-179H312v179H192v96h120v180Zm256.5-139.5q36.5-36.5 36.5-88T568.5-468Q532-505 480-505t-88.5 37Q355-431 355-379.5t36.5 88Q428-255 480-255t88.5-36.5Zm-124-52.76q-14.5-14.27-14.5-35Q430-400 444.26-415q14.27-15 35.5-15 21.24 0 35.74 14.76 14.5 14.77 14.5 35.5 0 20.74-14.26 35.24-14.27 14.5-35.5 14.5-21.24 0-35.74-14.26ZM480-380Zm0-227Z"/></svg>