<svg xmlns="http://www.w3.org/2000/svg" width="48" height="48" viewBox="0 -960 960 960"><path d="M818-95H142q-19.75 0-33.375-13.675Q95-122.351 95-143.175 95-163 108.625-176.5 122.25-190 143-190h675q19.75 0 33.875 14.175 14.125 14.176 14.125 34Q866-122 851.875-108.5 837.75-95 818-95ZM201-475l198-53-146-244q-11-17-2.5-34.5T277-829l18-6q10-3 19.98-.4T333-826l269 242 211-55q35-9 64 11.955 29 20.954 29 57.045 0 26.161-15.031 45.968Q875.938-504.226 852-498L213-325q-16 4-31-2.5T159-347L77-486q-8-13-1.5-27.5t22.677-16.167l18.588-4.5q6.235-.833 13.068 1.238Q136.667-530.857 142-527l59 52Z"/></svg>