<svg xmlns="http://www.w3.org/2000/svg" width="48" height="48"><path d="M9.45 43.25q-1.95 0-3.325-1.375Q4.75 40.5 4.75 38.55V9.45q0-1.95 1.375-3.35Q7.5 4.7 9.45 4.7h7.6q1 0 1.675.725T19.4 7.1q0 1-.675 1.675t-1.675.675h-7.6v29.1h7.6q1 0 1.675.675T19.4 40.9q0 1-.675 1.675t-1.675.675zm14.75 3.9q-1 0-1.675-.675T21.85 44.8V3.2q0-1 .675-1.675T24.2.85q1 0 1.7.675t.7 1.675v41.6q0 1-.725 1.675t-1.675.675zm14.35-37.7h-.7V4.7h.7q1.95 0 3.35 1.4 1.4 1.4 1.4 3.35v.7h-4.75zm0 17.5V21h4.75v5.95zm0 16.3h-.7v-4.7h.7v-.7h4.75v.7q0 1.95-1.4 3.325-1.4 1.375-3.35 1.375zm0-24.65v-6h4.75v6zm0 16.8v-6h4.75v6zM29 43.25v-4.7h6.4v4.7zm0-33.8V4.7h6.4v4.75z"/></svg>