<svg xmlns="http://www.w3.org/2000/svg" width="48" height="48" viewBox="0 -960 960 960"><path d="M284-539h146q16.725 0 28.362-11Q470-561 470-577.807t-11.638-28.5Q446.725-618 430-618H284q-17 0-28 11.693t-11 28.5Q245-561 256-550t28 11ZM141-135q-39.05 0-66.525-27.475Q47-189.95 47-229v-502q0-39.463 27.475-67.231Q101.95-826 141-826h728q22.36 0 35.68 13.545Q918-798.909 918-777.333 918-757 905.864-742.5 893.727-728 874.545-729q-10.545 0-22-1-11.454-1-22.545-1-75.34 0-127.17 52.122Q651-626.755 651-551q0 31.71 11.5 60.355Q674-462 696-440h-99q-45.5 0-76.25 30.75T490-333v55q-25 15-42.5 37.5T421-192q-9 24-26.6 40.5T352-135H141Zm448.5 45q17.5 0 29-11.5t11.5-28q0-17.5-11.5-29t-29-11.5q-16.5 0-28 11.5t-11.5 29q0 16.5 11.5 28t28 11.5Zm240.289-421q16.79 0 29-12Q871-535 871-550.789q0-16.79-12.211-29-12.21-12.211-29-12.211Q814-592 802-579.789q-12 12.21-12 29Q790-535 802-523q12 12 27.789 12ZM589.824-10Q540-10 505-45.208t-35-85.077q0-40.118 22.5-69.916Q515-230 550-243.485V-333q0-20 13.5-33.5T597-380h194v-59q-35-12-57.5-41.799-22.5-29.798-22.5-69.916 0-49.869 34.5-85.077T829.824-671q49.823 0 84.999 35.12Q950-600.761 950-551.019 950-511 927.5-481 905-451 870-439v91q0 20-13.5 33.5T823-301H630v58q34 13 57 42.884t23 70.109Q710-80 674.823-45q-35.176 35-84.999 35ZM430-342q16.725 0 28.362-11.693Q470-365.386 470-382.193 470-399 458.362-410.5 446.725-422 430-422H284q-17 0-28 11.693t-11 28.5Q245-365 256-353.5t28 11.5h146Z"/></svg>