<svg xmlns="http://www.w3.org/2000/svg" width="48" height="48"><path d="m41 45.5-.25-.25H7.65q-2.05 0-3.475-1.4-1.425-1.4-1.425-3.45V7.25l-.95-1q-.5-.5-.5-1.25t.5-1.25q.5-.5 1.25-.5t1.25.5l39.25 39.2q.5.55.5 1.3t-.5 1.25q-.5.5-1.275.5-.775 0-1.275-.5zm4.3-5.85L31.45 25.8l-4.6-11.9q-.3-.8-1.2-1.35-.9-.55-1.75-.55-.65 0-1.2.325-.55.325-.95.675l-.85 2.3L8.35 2.7H40.4q2.05 0 3.475 1.45Q45.3 5.6 45.3 7.65zM15.3 36q.5 0 1.05-.375t.75-.875l1.7-4.6h6.85l-3.1-3.05h-2.9l.75-2.15-2.5-2.55-4.3 11.15q-.35.95.1 1.7.45.75 1.6.75zm11.1-15.55-1.8-4.9h.05l-.85 2.3zm4.35 15.45h.025-.025z"/></svg>