<svg xmlns="http://www.w3.org/2000/svg" width="48" height="48" viewBox="0 96 960 960"><path d="M229 961q-38.75 0-66.375-27.625T135 867V490q0-22.25 9.875-42T173 415l250-189q24.68-19 56.84-19Q512 207 537 226l250 189q18.25 13.25 28.625 33T826 490v377q0 38.75-28.125 66.375T731 961H229Zm171-305v140q0 8 6 14t14 6q8 0 14-6t6-14V656q25 0 42.5-17.5T500 596V496q0-8-6-14t-14-6q-8 0-14 6t-6 14v100h-20V496q0-8-6-14t-14-6q-8 0-14 6t-6 14v100h-20V496q0-8-6-14t-14-6q-8 0-14 6t-6 14v100q0 25 17.5 42.5T400 656Zm180 160q8 0 14-6t6-14.237V495q0-8.6-4.5-12.8Q591 478 584 478q-29 0-46.5 24.045-17.5 24.046-17.5 54.41V652q0 10 7 17t17 7h16v120q0 8 6 14t14 6Z"/></svg>