<svg xmlns="http://www.w3.org/2000/svg" width="48" height="48" viewBox="0 -960 960 960"><path d="M230-80q-19.75 0-33.375-13.675Q183-107.351 183-127.175 183-147 196.625-161 210.25-175 230-175h500q19.75 0 33.375 14.175 13.625 14.176 13.625 34Q777-107 763.375-93.5 749.75-80 730-80H230Zm250-163q-115 0-182.5-64.5T230-484v-296q0-23.882 16.527-40.441Q263.055-837 287.027-837 311-837 328-820.441T345-780v291q0 63 36.5 97.5T480-357q62 0 98.5-34.5T615-489v-291q0-23.882 17.027-40.441 17.028-16.559 41-16.559Q697-837 714-820.441T731-780v296q0 112-68 176.5T480-243Z"/></svg>