<svg xmlns="http://www.w3.org/2000/svg" width="48" height="48" viewBox="0 96 960 960"><path d="M104 999q-19.75 0-33.375-13.675Q57 971.649 57 951.825 57 932 70.625 918 84.25 904 104 904h752q19.75 0 33.375 14.175 13.625 14.176 13.625 34Q903 972 889.375 985.5 875.75 999 856 999H104ZM57 696V453q0-15.917 14-22.458Q85 424 97 436l125 120q7 6.636 7 16.818Q229 583 222 590L98 713q-11 12-26 5.75T57 696Zm410 115q-19.75 0-33.375-13.675Q420 783.649 420 763.825 420 744 433.625 730.5 447.25 717 467 717h389q19.75 0 33.375 13.675Q903 744.351 903 764.175 903 784 889.375 797.5 875.75 811 856 811H467ZM104 247q-19.75 0-33.375-13.675Q57 219.649 57 199.825 57 180 70.625 166.5 84.25 153 104 153h752q19.75 0 33.375 13.675Q903 180.351 903 200.175 903 220 889.375 233.5 875.75 247 856 247H104Zm363 188q-19.75 0-33.375-13.675Q420 407.649 420 387.825 420 368 433.625 354 447.25 340 467 340h389q19.75 0 33.375 14.175 13.625 14.176 13.625 34Q903 408 889.375 421.5 875.75 435 856 435H467Zm0 188q-19.75 0-33.375-13.675Q420 595.649 420 575.825 420 556 433.625 542.5 447.25 529 467 529h389q19.75 0 33.375 13.675Q903 556.351 903 576.175 903 596 889.375 609.5 875.75 623 856 623H467Z"/></svg>