<svg xmlns="http://www.w3.org/2000/svg" width="48" height="48" viewBox="0 96 960 960"><path d="M403.84 757Q392 757 384 749.283q-8-7.716-8-19.283t8-19.783Q392 702 404.126 702H501v-55h-98q-11 0-19-8.5t-8-20.5V516q0-12 7.788-19.5Q391.575 489 403 489h129.211Q543 489 551 496.717q8 7.716 8 18.283 0 11.567-8.217 19.783Q542.567 543 532 543h-97v56h89.667q14.141 0 24.237 10.5Q559 620 559 633v90.4q0 13.83-9.859 23.715T525.491 757H403.84Zm76.588 249q-80.7 0-151.064-30Q259 946 207 893.5t-82-122.91Q95 700.18 95 620q0-80.544 30-150.772t82.511-122.968q52.511-52.741 122.5-82.5Q400 234 481.074 234H502l-48-47q-10-11-9.5-26t10.5-25q9.579-10 24.5-9.5T505 137l108 109q7 7 11 15.705 4 8.704 4 17.795 0 9.091-4 17.795Q620 306 613 312L503 422q-10 10-24 10.5t-24-11.107q-11-10.607-11-24.5T455 372l44-43h-18q-122 0-207.5 84.5t-85.5 206Q188 741 273.373 826T480 911q109.034 0 190.017-69.5Q751 772 767 667q5-21 19.052-34 14.051-13 33-13Q840 620 852.5 634t9.5 33q-17 145-124.5 242t-257.072 97Z"/></svg>