<svg xmlns="http://www.w3.org/2000/svg" width="48" height="48" viewBox="0 -960 960 960"><path d="M457-480q-54 0-91-37t-37-91q0-52 37-89.5t91-37.5q52 0 89.5 37.5T584-608q0 54-37.5 91T457-480Zm218 143q28 0 49.5-17.5T755-399q3-11 11-19t20-8q12 0 20 8t6 19q-8 44-38 74.5T702-286v26q0 12-8 19.5t-19 7.5q-12 0-20-7.5t-8-19.5v-26q-41-8-71-38.5T538-399q-2-11 6-19t20-8q11 0 19 8t12 19q8 27 30 44.5t50 17.5Zm0-39q-24 0-40-16.5T619-432v-67q0-23 16-39.5t40-16.5q23 0 39.5 16.5T731-499v67q0 23-16.5 39.5T675-376ZM149-55q-39 0-66.5-27.5T55-149v-116q0-19.75 13.675-33.375Q82.351-312 102.175-312 122-312 135.5-298.375 149-284.75 149-265v116h116q19.75 0 33.375 13.675Q312-121.649 312-101.825 312-82 298.375-68.5 284.75-55 265-55H149ZM55-695v-116q0-39 27.5-67t66.5-28h116q19.75 0 33.375 14.175 13.625 14.176 13.625 34Q312-838 298.375-824.5 284.75-811 265-811H149v116q0 19.75-13.675 33.375Q121.649-648 101.825-648 82-648 68.5-661.625 55-675.25 55-695ZM811-55H695q-19.75 0-33.375-13.675Q648-82.351 648-102.175 648-122 661.625-135.5 675.25-149 695-149h116v-116q0-19.75 13.675-33.375Q838.351-312 858.175-312 878-312 892-298.375 906-284.75 906-265v116q0 39-28 66.5T811-55Zm0-640v-116H695q-19.75 0-33.375-13.675Q648-838.351 648-858.175 648-878 661.625-892 675.25-906 695-906h116q39 0 67 28t28 67v116q0 19.75-14.175 33.375-14.176 13.625-34 13.625Q838-648 824.5-661.625 811-675.25 811-695ZM256-233q-19.75 0-33.375-13.625T209-280v-36.105Q209-345 227.5-367.5 246-390 273-404q40-21 84.5-29t89.5-7q19-3 33 13t14 37q-3 27 5 53t25 47q10 21 1.258 39T498-233H256Z"/></svg>