<svg xmlns="http://www.w3.org/2000/svg" width="48" height="48" viewBox="0 -960 960 960"><path d="M720-193H240q-19.75 0-33.375-13.625T193-240v-94q0-21 9.5-40t26.5-31q51.446-38 119.223-60.5T479.797-488q63.797 0 132.082 22.5T732-405q16 12 26 31.185T768-334v94q0 19.75-14.188 33.375Q739.625-193 720-193Zm-440-87h401v-54q-45-31-98-49t-102.733-18q-49.734 0-102.5 18Q325-365 280-335v55Zm200-240q-66 0-113-47t-47-113q0-66 47-113t113-47q66 0 113 47t47 113q0 66-47 113t-113 47Zm0-87q30 0 51.5-21.5T553-680q0-30-21.5-51.5T480-753q-30 0-51.5 21.5T407-680q0 30 21.5 51.5T480-607Zm0 327Zm0-400ZM185-851h-76v76q0 19.75-13.675 33.375Q81.649-728 61.825-728 42-728 28.5-741.625 15-755.25 15-775v-76q0-39.463 27.475-67.231Q69.95-946 109-946h76q19.75 0 33.375 14.263t13.625 34Q232-878 218.375-864.5 204.75-851 185-851ZM109-15q-39.05 0-66.525-27.475Q15-69.95 15-109v-76q0-19.75 13.675-33.375Q42.351-232 62.175-232 82-232 95.5-218.375 109-204.75 109-185v76h76q19.75 0 33.375 13.675Q232-81.649 232-61.825 232-42 218.375-28.5 204.75-15 185-15h-76Zm742 0h-76q-19.75 0-33.375-13.675Q728-42.351 728-62.175 728-82 741.625-95.5 755.25-109 775-109h76v-76q0-19.75 13.675-33.375Q878.351-232 898.088-232q19.737 0 33.824 13.625Q946-204.75 946-185v76q0 39.05-27.769 66.525Q890.463-15 851-15Zm-76-836q-19.75 0-33.375-13.675Q728-878.351 728-898.088q0-19.737 13.625-33.824Q755.25-946 775-946h76q39.463 0 67.231 27.769Q946-890.463 946-851v76q0 19.75-14.263 33.375t-34 13.625Q878-728 864.5-741.625 851-755.25 851-775v-76h-76Z"/></svg>