<svg xmlns="http://www.w3.org/2000/svg" width="48" height="48" viewBox="0 0 48 48"><path d="m41.05 45.5-.2-.25h-6.1q-1 0-1.675-.675T32.4 42.9q0-1 .35-1.525.35-.525.9-.725h2.55l-4.25-4.3H14q-1 0-1.675-.675T11.65 34v-1.8q0-1.15.55-2.025t1.45-1.625q1.6-1.25 3.9-1.9 2.3-.65 3.8-.85l-14-13.95v2.55q-.2.55-.775.875Q6 15.6 5.1 15.6q-1 0-1.675-.675T2.75 13.25V7.1l-.7-.7q-.25-.5-.175-1.075Q1.95 4.75 2.4 4.3q.5-.5 1.225-.5.725 0 1.275.5l38.7 38.65q.5.55.5 1.25t-.5 1.25q-.55.55-1.275.575-.725.025-1.275-.525Zm4.25-10.75v4.85l-4.65-4.65V32.4h2.3q1 0 1.675.675t.675 1.675ZM7.45 45.25q-1.95 0-3.325-1.375Q2.75 42.5 2.75 40.55v-5.8q0-1 .675-1.675T5.1 32.4q1 0 1.675.675t.675 1.675v5.8h5.8q1 0 1.675.675T15.6 42.9q0 1-.675 1.675t-1.675.675Zm33.1-32v-5.8h-5.8q-1 0-1.675-.675T32.4 5.1q0-1 .675-1.7t1.675-.7h5.8q1.95 0 3.35 1.4 1.4 1.4 1.4 3.35v5.8q0 1-.7 1.675t-1.7.675q-1 0-1.675-.675t-.675-1.675ZM8.4 2.7h4.85q1 0 1.675.675T15.6 5.05v2.3h-2.55Zm22 14.9q0 1.5-.65 2.725T28 22.35l-8.75-8.75q.8-1.05 2.05-1.7 1.25-.65 2.7-.65 2.65 0 4.525 1.875Q30.4 15 30.4 17.6Z"/></svg>