<svg xmlns="http://www.w3.org/2000/svg" width="48" height="48" viewBox="0 -960 960 960"><path d="M283.275-103Q243-103 214-131q-29-28-29-68v-384l-74-180H73q-19.75 0-33.375-13.675Q26-790.351 26-810.175 26-830 39.625-843.5 53.25-857 73-857h69q14.392 0 26.385 7.46Q180.378-842.08 186-829l56.068 134H850q26.192 0 40.596 23Q905-649 893-626L779-401q52 10 86.5 50.937 34.5 40.936 34.5 95.132 0 63.217-43.464 107.074Q813.073-104 750.828-104q-63.257 0-106.542-43.929Q601-191.857 601-254q0-16 4.132-32.1 4.131-16.1 10.868-30.043L504-325 398-167q-24 35-51.49 49.5-27.49 14.5-63.235 14.5ZM675-405l100-196H279l51 121q8 21 26 34t40 15l279 26ZM290.067-180Q290-180 305-188l100-146q-29-3-63.9-12.272T285-391l-13-28v221.427q0 7.442 5.367 12.508 5.366 5.065 12.7 5.065Zm459.538-14Q776-194 794.5-212.314q18.5-18.314 18.5-44.477Q813-284 794.85-302q-18.15-18-44.615-18-26.152 0-44.693 17.85Q687-284.3 687-257q0 26.25 18.26 44.625Q723.519-194 749.605-194ZM675-405l-279-26 279 26Z"/></svg>