<svg xmlns="http://www.w3.org/2000/svg" width="48" height="48" viewBox="0 -960 960 960"><path d="M351.229-147Q212-147 114.5-244.066t-97.5-236Q17-619 114.566-716.5t236.5-97.5Q490-814 587.5-716.729t97.5 236.5Q685-341 587.729-244t-236.5 97Zm-.44-197Q368-344 380-356.35T392-386v-147h49q13 0 22-9t9-22q0-13-9-22.5t-22-9.5H261q-13 0-22.5 9.5T229-564q0 13 9.5 22t22.5 9h48v147q0 17.3 12.289 29.65 12.29 12.35 29.5 12.35ZM757-707l-28-64-63-28q-16-7-16-21.823 0-14.822 16-23.177l63-28 28-63q7-15 21.823-15 14.822 0 23.177 15l28 63 64 28q15 8.355 15 23.177Q909-806 894-799l-64 28-28 64q-8.355 16-23.177 16Q764-691 757-707Zm0 682-28-64-63-28q-16-7-16-22.5t16-22.5l63-28 28-64q7-15 21.823-15 14.822 0 23.177 15l28 64 64 28q15 7 15 22.5T894-117l-64 28-28 64q-8.355 15-23.177 15Q764-10 757-25Z"/></svg>