<svg xmlns="http://www.w3.org/2000/svg" width="48" height="48" viewBox="0 0 48 48"><path d="M23.4 42.55q-.85 0-1.625-.35t-1.425-1l-8.7-8.9q-.65-.65-.675-1.575-.025-.925.625-1.625l.5-.55q.65-.7 1.625-.8.975-.1 1.975.1l5.9 1.45V9.55q0-1.55 1-2.55 1-1 2.55-1 1.6 0 2.6 1t1 2.55v11.2h1.8q.55 0 .95.075.4.075.9.325l7.65 3.8q1.4.75 1.975 2.05.575 1.3.375 2.9l-1.45 9q-.3 1.65-1.625 2.65t-2.975 1ZM9 20.35q-3.05 0-5.2-2.1-2.15-2.1-2.15-5.15 0-1.8.65-3.025.65-1.225 3.25-4.225L7.1 3.6q.7-.95 1.875-.95t1.925.95l1.55 2.25q2.5 2.9 3.2 4.175.7 1.275.7 3.075 0 3-2.125 5.125T9 20.35Z"/></svg>