<svg xmlns="http://www.w3.org/2000/svg" width="48" height="48" viewBox="0 96 960 960"><path d="M820 1006 710 894q-3 18-16 29t-30 11H62q-20 0-33.5-13.5T15 887v-74q0-42 21.5-76T97 685q75-32 136.5-47T360 623q24 0 44.5 3t42.5 7l-75-75q-6 2-13 2.5t-14 .5q-62-5-101.5-44T199 416q0-7 .5-14.5T202 388L47 233q-10-10-10-25.5T48 182q9-10 24.5-10T98 182l773 773q10 10 10 25.5t-10 25.5q-10 10-25.5 10t-25.5-10ZM662 626q61 9 115 23t89 32q37 18 58 54.5t21 82.5v70q0 8-7.5 12t-20.5 1L767 750q-13-38-39.5-67.5T662 626Zm-107-87q20-27 29.5-63t9.5-77q0-48-12.5-85.5T543 246q12-4 25-6.5t26-2.5q72 0 117.5 45.5T757 399q0 76-53 124.5T576 560l-21-21Zm-54-53L274 258q18-10 40-15.5t46-5.5q72 0 117.5 45T523 399q0 24-5.5 46.5T501 486Z"/></svg>