<svg xmlns="http://www.w3.org/2000/svg" width="48" height="48" viewBox="0 -960 960 960"><path d="M479-11q-197 0-333-73.933T10-267.862Q10-306 25-339q15-33 45-61 29-28 70-47.5t91-26.5q17.857-5 32.786 4.46Q278.714-460.08 283-443q3 19-7 34.5T247-387q-33 5-59.713 15.442T142-346q-17.5 16-27.25 35.031T105-268q0 65 112 114t261.857 49q151.857 0 264.5-49T856-267.857q0-23.67-10-42.906Q836-330 818-346q-19.574-15.116-45.787-25.558Q746-382 712-387q-19-6-29-22t-6-33.548Q680-460 695-469t34-5q42 6 81 22.5t69 40.5q36 28 53.5 64t17.5 79q0 110.054-135.614 183.527Q678.773-11 479-11Zm-81-201q-21 0-34-13.5T351-260v-354H182q-20 0-33.5-13.5T135-661q0-19 13.5-33t33.5-14h596q20 0 34 14t14 33q0 20-14 33.5T778-614H610v354q0 21-13.588 34.5-13.587 13.5-34.5 13.5Q543-212 529-225.5T515-260v-142h-70v142q0 21-14 34.5T398-212Zm82-556q-36.525 0-62.263-26.336-25.737-26.337-25.737-63Q392-895 417.737-920.5 443.475-946 480-946t62.763 25.628q26.237 25.629 26.237 63Q569-821 542.763-794.5 516.525-768 480-768Z"/></svg>