<svg xmlns="http://www.w3.org/2000/svg" width="48" height="48" viewBox="0 -960 960 960"><path d="M593-549.33q47-46.33 47-112.5T593.17-775q-46.83-47-113-47T367-775.17q-47 46.83-47 113t46.83 112.67q46.83 46.5 113 46.5T593-549.33ZM300.5-483Q226-557 226-662.5t74.5-180Q375-917 479.76-917q104.77 0 180 74.5Q735-768 735-662.5T659.76-483q-75.23 74-180 74Q375-409 300.5-483ZM480-663Zm351 509h-39q-13 0-21.5-9.02-8.5-9.03-8.5-22 0-12.98 8.78-21.48 8.79-8.5 22.22-8.5h38v-39q0-12.57 9.02-20.78 9.03-8.22 22.03-8.22 13 0 20.97 8.48Q891-266.03 891-254v39h39q13 0 21.5 8.41 8.5 8.4 8.5 21.38 0 12.98-8.2 22.09Q943.6-154 930-154h-39v39q0 12.57-7.88 20.78Q875.23-86 862.23-86t-22.11-8.78Q831-103.57 831-117v-37ZM527-93v-192q0-12.57 8.5-20.78Q544-314 557-314h113q29.4 0 44.7 15.5Q730-283 730-255v46.83q0 19.03-9.5 32.6T691-153l20 47q7 16-1.4 29.5T684.4-63q-10.4 0-17.9-5.5Q659-74 655-82l-21.59-56H586v46q0 12.57-8.38 20.78-8.39 8.22-20.5 8.22Q545-63 536-71.5q-9-8.5-9-21.5Zm59-101h85v-61h-85v61ZM59-171v79q0 12.57-8.38 20.78Q42.23-63 30.12-63 18-63 9-71.22 0-79.43 0-92v-193q0-12.57 8.91-20.78 8.9-8.22 21.02-8.22t20.59 8.22Q59-297.57 59-285v60h82v-60q0-12.57 8.91-20.78 8.9-8.22 21.02-8.22t20.59 8.22Q200-297.57 200-285v193q0 12.57-8.38 20.78-8.39 8.22-20.5 8.22Q159-63 150-71.5q-9-8.5-9-21.5v-78H59Zm204 78v-192q0-12.57 8.5-20.78Q280-314 293-314h110q29.4 0 44.2 15.5Q462-283 462-255v133q0 29.4-14.8 44.2Q432.4-63 403-63H293q-13 0-21.5-8.5T263-93Zm59-29h81v-133h-81v133Z"/></svg>