<svg xmlns="http://www.w3.org/2000/svg" width="48" height="48" viewBox="0 -960 960 960"><path d="M143.407-229q-33.547 0-56.977-23.469T63-310v-159q0-106.5 75.25-181.75T320-726q106.5 0 181.75 75.25T577-469v159q0 34.062-23.43 57.531Q530.141-229 496.593-229h-10q-29.423 0-51.008-22.125Q414-273.25 414-300v-37q0-29.1 21.45-50.55Q456.9-409 486-409h28v-60q0-80-56.618-137-56.617-57-137.5-57Q239-663 182.5-606T126-469v60h28q29.1 0 50.55 21.45Q226-366.1 226-337v37q0 29.288-21.585 50.144Q182.83-229 153.407-229h-10ZM703-229q-16.15 0-27.075-10.925T665-267v-387q0-16.575 10.925-27.788Q686.85-693 703-693h40v-8q0-10 7-17.5t17-7.5h23q10 0 17 7.5t7 17.5v8h44q17.425 0 28.213 11.212Q897-670.575 897-654v387q0 16.15-10.787 27.075Q875.425-229 858-229H703Zm33-71h90-90Zm0 0h90v-321h-90v321Z"/></svg>