<svg xmlns="http://www.w3.org/2000/svg" width="48" height="48" viewBox="0 96 960 960"><path d="M143.673 827q-33.548 0-57.61-23.469Q62 780.062 62 746V587q0-106.5 75.25-181.75T319 330q106.917 0 182.458 75.25Q577 480.5 577 587v159q0 34.062-24.048 57.531Q528.903 827 495.133 827h-10q-29.233 0-50.183-22.125T414 756v-37q0-29.1 20.856-50.55Q455.712 647 485 647h29v-60q0-80-56.789-137t-137.917-57Q239 393 182 450q-57 57-57 137v60h29q29.288 0 50.144 21.45Q225 689.9 225 719v37q0 29.287-20.952 50.144Q183.095 827 153.673 827h-10ZM703 827q-16.575 0-27.788-10.925Q664 805.15 664 789V402q0-16.575 11.212-27.788Q686.425 363 703 363h39v-8q0-10 7-17.5t17-7.5h24q9 0 16.5 7.5T814 355v8h43.702Q875 363 886 374.212q11 11.213 11 27.788v387q0 16.15-11.213 27.075Q874.575 827 858 827H703Z"/></svg>