<svg xmlns="http://www.w3.org/2000/svg" width="48" height="48" viewBox="0 -960 960 960"><path d="M580-226q22.583 0 38.292-16.208Q634-258.417 634-280q0-22.583-15.708-38.292Q602.583-334 580-334q-21.583 0-37.792 15.708Q526-302.583 526-280q0 21.583 16.208 37.792Q558.417-226 580-226Zm-225-29q10 10 23.5 10t23.5-10l204-204q10-10 10-23.5T606-506q-10-10-23.5-10T559-506L354-301q-10 10-9.5 23t10.5 23Zm25-171q22.583 0 38.292-16.208Q434-458.417 434-480q0-22.583-15.708-38.292Q402.583-534 380-534q-21.583 0-37.792 15.708Q326-502.583 326-480q0 21.583 16.208 37.792Q358.417-426 380-426ZM229-55q-39.05 0-66.525-27.475Q135-109.95 135-149v-662q0-39.463 27.475-67.231Q189.95-906 229-906h363l234 234v523q0 39.05-27.769 66.525Q770.463-55 731-55H229Zm502-570L542-811v91q0 40.463 27.269 67.731Q596.537-625 637-625h94Z"/></svg>