<svg xmlns="http://www.w3.org/2000/svg" width="48" height="48" viewBox="0 -960 960 960"><path d="M405-99Q293-216 222-296.5t-111.5-139Q70-494 55-537.882q-15-43.882-15-87.627Q40-727 108.691-798 177.382-869 277-869q49.907 0 97.953 20.5Q423-828 465-790l-42 204q-3 11.784 5.737 21.392Q437.474-555 450-555h68l-33 270.354Q484-276 491.5-275t9.5-6l75-282q3-11-4.636-21-7.637-10-20.364-10h-72l66-245q28-15 62.5-22.5T683-869q99.527 0 168.764 71.061Q921-726.879 921-625.667q0 44.667-15.607 87.827-15.606 43.161-57.635 101.541-42.029 58.38-116.393 139.339Q657-216 539-97q-14 14-31 20.5T472-70q-19 0-37-7.5T405-99ZM134-626q0 33.412 11.64 66.382 11.64 32.971 39 73.294Q212-446 259.5-393T379-267q3 4 8 2.5t6-5.5l24-211h-15q-37-14-59.5-45t-9.423-89.538L362-749q-20-10-41.477-17.5-21.478-7.5-44.357-7.5-59.452 0-100.809 43.343T134-626Zm692 .334q0-61.321-41.357-104.827Q743.286-774 683.319-774q-15.652 0-30.486 2.143Q638-769.714 623-766l-28 93h5q35 5 57.5 35t7.5 92l-55.778 207.639Q607-333.417 612-330.708 617-328 623-332q59-55 98-97t62.5-76q23.5-34 33-63.031t9.5-57.635ZM665-546Zm-332-70Z"/></svg>