<svg xmlns="http://www.w3.org/2000/svg" width="48" height="48" viewBox="0 96 960 960"><path d="M817.295 1000.89 735 920q-54.081 39.03-118.503 60.015T480.267 1001q-90.267 0-168.254-32.584-77.988-32.583-134.917-89.512T87.584 743.987Q55 666 55 575.733q0-71.808 20.985-136.23Q96.97 375.081 136 321l-82.08-81.92Q44 229 43.5 214.395q-.5-14.606 10.605-25Q65.21 179 79.605 179T105 189l762 762q10 10 10 25t-9.895 25q-10.394 11-24.812 11-14.418 0-24.998-11.11ZM833 816 240 223q51-34 111.325-53.5Q411.649 150 480 150q90.34 0 167.867 32.954 77.528 32.953 134.877 90.302 57.349 57.349 90.302 134.877Q906 485.66 906 576q0 68.351-19.5 128.675Q867 765 833 816Z"/></svg>