<svg xmlns="http://www.w3.org/2000/svg" width="48" height="48" viewBox="0 -960 960 960"><path d="M646-109v-385q0-23.111-10.5-46.056Q625-563 608-576L403-721v-70q7-25.615 28.625-42.808Q453.25-851 482-851h360q38.725 0 66.862 27.638Q937-795.725 937-757v554q0 38.725-28.138 66.363Q880.725-109 842-109H646Zm56-173h60v-60h-60v60Zm0-170h60v-60h-60v60Zm0-171h60v-60h-60v60ZM22-156v-311q0-23.481 10-43.741Q42-531 61-545l189-133q25.394-18 55.197-18Q335-696 360-678l187 133q18.941 13.6 28.971 34.3Q586-490 586-467v311q0 19.75-13.625 33.375T539-109H385v-243H225v243H69q-19.75 0-33.375-13.625T22-156Z"/></svg>