<svg xmlns="http://www.w3.org/2000/svg" width="48" height="48"><path d="M35.1 16.85h3v-3h-3zm0 8.55h3v-3h-3zm0 8.5h3v-3h-3zm-2.8 8.65v-4.1h10.4V9.55H24.1v5.25l-3.95-2.85v-3.5q.35-1.3 1.425-2.15 1.075-.85 2.525-.85h18q1.95 0 3.35 1.375 1.4 1.375 1.4 3.325v27.7q0 1.95-1.4 3.325-1.4 1.375-3.35 1.375zm-26.45 0q-2 0-3.375-1.375T1.1 37.85v-13.2q0-1.15.5-2.175T3.05 20.8l9.45-6.7q1.25-.9 2.75-.9t2.75.9l9.35 6.7q.95.65 1.45 1.675t.5 2.175v13.2q0 1.95-1.375 3.325Q26.55 42.55 24.6 42.55zm-.6-4.1h6.35V28.4h7.3v10.05h6.25v-14.1l-9.9-7.2-10 7.2zM32.3 23.3zm-17.05 5.1zm0 0z"/></svg>