<svg xmlns="http://www.w3.org/2000/svg" width="48" height="48" viewBox="0 -960 960 960"><path d="M265.544-675q-30.425 0-51.485-21.248-21.059-21.248-21.059-51T214.015-799q21.015-22 51.441-22 30.425 0 51.485 21.763Q338-777.475 338-747q0 29.65-21.015 50.825Q295.97-675 265.544-675ZM148-55q-38.613 0-65.806-27.194Q55-109.387 55-148v-272q0-20 13.5-33.5T102-467h94v-69q0-33.956 24.133-57.978Q244.267-618 278-618q22 0 41 10.5t33.8 26.947L416-510q11 12 23.5 23t26.612 20H858q19.875 0 33.938 13.5Q906-440 906-420v272q0 38.613-27.487 65.806Q851.025-55 812-55H148Zm654-516q-16.153 0-27.577-12.132Q763-595.263 762-611q-1-26-12.5-50t-26.402-46.268Q705-733 693-762.827 681-792.653 683-826q0-15.923 11.257-27.962Q705.513-866 722-866q16.054 0 26.027 12.038Q758-841.923 759-826q1 26.339 10.5 49.169Q779-754 794-734q22 27 34.5 58.5T840-610q0 16-11.122 27.5Q817.757-571 802-571Zm-181.208 0q-16.279 0-27.035-12.132Q583-595.263 582-611q-2-26-13-50t-26.268-46.634Q524-734 512.5-763.5T502-826q0-15.923 11.67-27.962Q525.34-866 541.17-866T568-854.026q11 11.973 12 28.026 1 24.932 10 48.707 9 23.774 24.268 43.232Q635-707 648-675.5t12 65.5q0 16-11.464 27.5-11.465 11.5-27.744 11.5ZM675-149h108v-224H675v224Zm-166 0h108v-224H509v224Zm-166 0h108v-224H343v224Zm-165 0h107v-224H178v224Z"/></svg>