<svg xmlns="http://www.w3.org/2000/svg" width="48" height="48" viewBox="0 -960 960 960"><path d="M182-55q-19.75 0-33.37-13.68Q135-82.35 135-102.18q0-19.82 13.63-33.32Q162.25-149 182-149h41v-117.65Q223-335 258.5-392t95.5-88q-60-32-95.5-89T223-694.35V-811h-41q-19.75 0-33.37-13.68Q135-838.35 135-858.09q0-19.73 13.63-33.82Q162.25-906 182-906h596q19.63 0 33.81 14.26 14.19 14.27 14.19 34 0 19.74-14.19 33.24Q797.63-811 778-811h-40v117q0 77.53-43.5 141.76Q651-488 577-457q47-4 91-15.5t74-30.5q-104 25-168 109.26-64 84.27-64 182.74 0 43.31 14.5 83T566-55H182Zm444-22.4q-56-55.4-56-134T626-346q56-56 134-56t134 55.87q56 55.86 56 135.13 0 78.43-56 133.72Q838-22 760-22T626-77.4ZM733-193l-41-41q-7.1-8-17.75-8t-17.95 7.55q-7.3 7.55-7.3 18.7 0 11.15 7 17.75l43 43q14.36 14 34.18 14T767-155l97-99q7-6.85 7-17.13 0-10.27-7.3-18.07-7.3-7.8-17.95-7.8-10.65 0-17.75 8l-95 96Z"/></svg>