<svg xmlns="http://www.w3.org/2000/svg" width="48" height="48" viewBox="0 -960 960 960"><path d="M56.093-354q-12.526 0-20.81-8.5Q27-371 27-384v-192q0-13 8.184-21.5 8.183-8.5 20.7-8.5 12.516 0 21.316 8.5Q86-589 86-576v55h104v-55q0-13 8.184-21.5 8.183-8.5 20.7-8.5 12.516 0 21.316 8.5Q249-589 249-576v192q0 13-8.474 21.5-8.473 8.5-21.433 8.5-12.526 0-20.81-8.5Q190-371 190-384v-77H86v77q0 13-8.474 21.5-8.473 8.5-21.433 8.5Zm316 0q-12.96 0-21.526-8.5Q342-371 342-384v-162h-56q-12.567 0-20.783-8.474Q257-562.947 257-575.907q0-12.96 8.283-21.526Q273.567-606 286.466-606h171.068q12.899 0 21.183 8.474Q487-589.053 487-576.093q0 12.96-8.217 21.526Q470.567-546 458-546h-56v162q0 13-8.474 21.5-8.473 8.5-21.433 8.5Zm240 0q-12.96 0-21.526-8.5Q582-371 582-384v-162h-56q-12.567 0-20.783-8.474Q497-562.947 497-575.907q0-12.96 8.283-21.526Q513.567-606 526.466-606h171.068q12.899 0 21.683 8.5Q728-589 728-576t-8.783 21.5Q710.433-546 698-546h-56v162q0 13-8.474 21.5-8.473 8.5-21.433 8.5Zm152.837 0q-12.516 0-21.223-8.5Q735-371 735-384v-175q0-19.75 13.625-33.375T783-606h96q26 0 40.5 15t14.5 39.75V-482q0 26.2-14.5 40.1Q905-428 879-428h-84v44q0 13-8.777 21.5-8.776 8.5-21.293 8.5ZM795-487h79v-59h-79v59Z"/></svg>