<svg xmlns="http://www.w3.org/2000/svg" width="48" height="48" viewBox="0 -960 960 960"><path d="M512-222q50-25 98-37.5T712-272q38 0 78.5 6t69.5 16v-429q-34-18-72-25.5t-76-7.5q-54 0-104.5 16.5T512-649v427Zm-27.5 104q-8.103 0-16.801-1.5Q459-121 452-126q-46-29-98.015-46Q301.969-189 248-189q-34.61 0-67.305 9.5Q148-170 115-159q-33 17-65.5-2.16Q17-180.319 17-219v-462q0-25 11-46.3 11-21.3 33-32.7 44-18.5 90.5-27.25t94.445-8.75Q310-796 370-778.5T482-724q51-36 110-54t122.055-18Q762-796 808-786.5q46 9.5 90 26.5 22 11.4 33.5 32.7Q943-706 943-681v473q0 37.043-33 53.021Q877-139 844-159q-32-12-64.672-21-32.671-9-67.257-9Q659-189 610-171.5T516-126q-6 5-14.699 6.5-8.698 1.5-16.801 1.5Z"/></svg>