<svg xmlns="http://www.w3.org/2000/svg" width="48" height="48" viewBox="0 -960 960 960"><path d="M694-273q0-11-8-19t-19.5-8q-11.5 0-19.5 8t-8 19v120q0 12.2 8 20.1 8 7.9 19.5 7.9t19.5-7.9q8-7.9 8-20.1v-120Zm60 0v120q0 12.2 8 20.1 8 7.9 19.5 7.9t19.5-7.9q8-7.9 8-20.1v-120q0-11-8-19t-19.5-8q-11.5 0-19.5 8t-8 19ZM279-609h401.76q12.99 0 21.62-8.68 8.62-8.67 8.62-21.5 0-12.82-8.62-21.32-8.63-8.5-21.62-8.5H279q-12.75 0-21.37 8.68-8.63 8.67-8.63 21.5 0 12.82 8.63 21.32 8.62 8.5 21.37 8.5ZM723.5-25Q646-25 591-80t-55-132q0-77.43 54.99-133.22Q645.98-401 724-401q77 0 132.5 55.78Q912-289.43 912-212q0 77-55.5 132t-133 55ZM95-769q0-38.77 27.61-66.39Q150.22-863 189-863h582q39.19 0 67.09 27.61Q866-807.77 866-769v286q0 20-14.26 33-14.27 13-34 13-19.74 0-33.24-13.63Q771-464.25 771-484v-285H189v580h289q0 23 5.5 43.5T499-105q10 25.54-9.85 39.27Q469.31-52 452.27-68L433-87q-7.09-7-17.55-7Q405-94 399-87l-31 30q-6.82 7-16.91 7T334-57l-30-30q-7.09-7-17.55-7Q276-94 270-87l-32 30q-6.82 7-16.91 7T204-57l-29-30q-7.64-7-17.82-7T140-87L95-40v-729Zm184 482h192.66q13.09 0 21.72-8.68 8.62-8.67 8.62-21.5 0-12.82-8.62-21.32-8.63-8.5-21.72-8.5H279q-12.75 0-21.37 8.68-8.63 8.67-8.63 21.5 0 12.82 8.63 21.32 8.62 8.5 21.37 8.5Zm0-161h279.63q13.12 0 21.75-8.68 8.62-8.67 8.62-21.5 0-12.82-8.62-21.32-8.63-8.5-21.75-8.5H279q-12.75 0-21.37 8.68-8.63 8.67-8.63 21.5 0 12.82 8.63 21.32 8.62 8.5 21.37 8.5Zm-90 259v-580 580Z"/></svg>