<svg xmlns="http://www.w3.org/2000/svg" width="48" height="48" viewBox="0 -960 960 960"><path d="M189-95q-39.05 0-66.525-27.475Q95-149.95 95-189v-582q0-39.463 27.475-67.231Q149.95-866 189-866h582q39.463 0 67.231 27.769Q866-810.463 866-771v582q0 39.05-27.769 66.525Q810.463-95 771-95H189Zm0-94h582v-132H634q-26 40-67.5 61.5T480-238q-45 0-86.5-21.5T326-321H189v132Zm291.017-109q32.604 0 61.629-15.05Q570.67-328.1 586-358q8.229-11.6 22.071-17.3 13.843-5.7 30.217-5.7H771v-390H189v390h134q14.948 0 28.86 5.7 13.911 5.7 22.14 17.3 15.33 29.9 44.371 44.95Q447.413-298 480.017-298ZM189-189h582-582Z"/></svg>