<svg xmlns="http://www.w3.org/2000/svg" width="48" height="48" viewBox="0 -960 960 960"><path d="m767-851 108 109q28 28.18 27.5 70.59Q902-629 874-601L689-416q-14.73 14-33.8 14-19.07 0-32.7-14-14.5-14.09-15-33.55Q607-469 622-484l185-185-111-112-186 185q-13.87 15-32.93 15-19.07 0-32.57-15.21-14.5-14.31-14-34.05Q431-650 444-663l187-188q28.18-28 67.59-28Q738-879 767-851Zm66.05 780q-10.52 11-25 11-14.47 0-25.05-11L563-291 407-136q-28 28-76.5 28T254-136l-11-11-21 22q-14 15-32.52 23-18.53 8-38.48 8H94q-14.56 0-20.28-15Q68-124 79-135l87-87-5-5q-31-31-30-78t33-79l153-153L71-783q-10-9.93-10.5-24.47Q60-822 70.95-833q10.94-11 24.5-11 13.55 0 24.6 11.05L833-120q10 10.18 10.5 24.09T833.05-71ZM219-305l112 112 166-166-112-112-166 166Zm314-201Zm-93 92Z"/></svg>