<svg xmlns="http://www.w3.org/2000/svg" width="48" height="48" viewBox="0 96 960 960"><path d="M145 1013q-40.213 0-67.606-27.1Q50 958.8 50 919V233q0-40.213 27.394-67.606Q104.787 138 145 138h358q40.213 0 67.606 27.394Q598 192.787 598 233v686q0 39.8-27.394 66.9Q543.213 1013 503 1013H145Zm-8-495q17.9-13.048 40.4-20.524Q199.9 490 225 490h198q25.1 0 47.6 7.476T511 518V225H137v293Zm186.911-78Q294 440 273 419.058q-21-20.941-21-51.647 0-30.705 21.089-51.558 21.088-20.853 51-20.853Q355 295 376 315.942q21 20.941 21 51.647 0 30.705-21.089 51.558-21.088 20.853-52 20.853ZM283 791v26q0 16.75 11.868 27.875Q306.737 856 323.368 856 340 856 351.5 844.875T363 817v-26h25q16.475 0 28.237-11.175Q428 768.649 428 752.018q0-16.632-11.763-28.325Q404.475 712 388 712h-25v-25q0-16.475-11.868-28.237Q339.263 647 322.632 647 306 647 294.5 658.763 283 670.525 283 687v25h-25q-16.475 0-28.238 11.868Q218 735.737 218 752.368 218 769 229.762 780q11.763 11 28.238 11h25Zm536.158-56.5q-12.842 12.5-30.5 12.5T759 735L657 632q-15-14.091-15-33.545Q642 579 657 565l102-103q11.8-12 29.433-12 17.634 0 30.567 12 12 12 13.5 28t-8.5 29l-35 36h102q18.75 0 31.375 12.738T935 598.175Q935 617 922.375 629.5T891 642H789l34 35q10 13.067 9 29.533Q831 723 819.158 734.5Z"/></svg>