<svg xmlns="http://www.w3.org/2000/svg" width="48" height="48" viewBox="0 -960 960 960"><path d="M824.971-299q-25.03 0-43-17.75Q764-334.5 764-360v-100q0-25 17.887-43t43.584-18Q850-521 868-503q18 18 18 43v100q0 25.5-18 43.25T824.971-299Zm.172 167Q816-132 810-137.9t-6-15.1v-45q-52-8-92-43.5T663-333q-2-10 5-16t16.941-6q6.059 0 12.559 5 6.5 5 8.5 13 7.571 41.829 41.149 70.415Q780.727-238 825-238q44 0 77.639-28.585 33.64-28.586 42.361-69.973Q946-345 952.357-350t14.786-5q9.357 0 15.607 5.909t5.25 16.182Q978-277 938-241.5 898-206 846-198v45q0 9.2-5.857 15.1t-15 5.9ZM356-516q-73-9-111.5-57T206-688q0-67 39-115t112-58q-1.63 0 3.12.444 4.75.445 6.88-.444-30 33-48.5 77T300-688.5q0 51.5 17 95.5t49 77q-2.889 1.111-6.852.556Q355.184-516 356-516ZM-15-122v-121q0-32.739 13-56.87Q11-324 38-347q28-24 80-41.5T240-413q-63 35-84 77.316T135-243v121H-15Zm549.814-391q-73.221 0-124.018-50.779Q360-614.557 360-687.779 360-761 410.779-812t124-51Q608-863 659.5-811.806t51.5 124.01q0 73.228-51.482 124.012Q608.035-513 534.814-513Zm-.018-94Q569-607 592.5-630.796q23.5-23.797 23.5-57Q616-722 592.704-745.5q-23.297-23.5-57.5-23.5Q502-769 478-745.319t-24 57.487q0 33.218 23.796 57.025 23.797 23.807 57 23.807ZM195-122v-120.979Q195-285 217.5-319.5T278-371q47-21 111.5-41.5T535-433q8.943 0 25.971 1.5Q578-430 590-429q-11 22-15.5 46.5T571-336q-8-1-17.781-1.5-9.781-.5-18.219-.5-69 0-118 13.805t-95 35.11Q306-281 297.5-268.45T289-240v24h313q10 25 32 51t50 43H195Zm340-566Zm0 350Z"/></svg>