<svg xmlns="http://www.w3.org/2000/svg" width="48" height="48" viewBox="0 -960 960 960"><path d="M109-274.79Q97-286.58 97-304v-221q0-17.42 12.17-29.21Q121.33-566 138.67-566 156-566 168-554.21T180-525v221q0 17.42-12.17 29.21Q155.67-263 138.33-263 121-263 109-274.79ZM347-263q-34.24 0-58.62-24.38Q264-311.76 264-346v-268q0-34.24 24.38-58.62Q312.76-697 347-697h94q33.75 0 57.88 24.38Q523-648.24 523-614v268q0 34.24-24.12 58.62Q474.75-263 441-263h-94Zm0-83h94v-268h-94v268Zm298 83q-18.12 0-29.56-12.18-11.44-12.17-11.44-30 0-17.82 12.13-29.32Q628.25-346 646-346h135v-97h-94q-34.24 0-58.62-24.13Q604-491.25 604-525v-89q0-34.24 24.38-58.62Q652.76-697 687-697h135q18.13 0 29.56 11.68Q863-673.65 863-655.82 863-638 851.56-626q-11.43 12-29.56 12H687v89h94q33.75 0 57.88 24.12Q863-476.75 863-443v97q0 34.24-24.12 58.62Q814.75-263 781-263H645ZM108.5-621.18q-11.5-12.17-11.5-30 0-17.82 11.68-29.32 11.67-11.5 29.5-11.5Q156-692 168-680.32q12 11.67 12 29.5Q180-633 167.82-621q-12.17 12-30 12-17.82 0-29.32-12.18Z"/></svg>