<svg xmlns="http://www.w3.org/2000/svg" width="48" height="48" viewBox="0 -960 960 960"><path d="M480-221q-9 0-18-3.75T446-233q-53-48-75-104.5t-22-142q0-85.5 22.5-142T447-725q6.564-6 15.091-9.5t17.945-3.5q10.419 0 18.909 3.5Q507.436-731 514-725q53 47 75 103.5T611-479q0 86-22.5 142.5t-75.745 103.616Q506-227 498.119-224q-7.881 3-18.119 3Zm176 46q-28 0-54-5t-51-14q17.583-16.75 34.292-39.875Q602-257 615-276q9 3 19.5 5t21.5 2q87.245 0 149.122-61.878Q867-392.755 867-480q0-88-61.878-149.5Q743.245-691 656-691q-11 0-21 1.5t-19 5.5q-10.6-21.862-29.35-44.538Q567.9-751.215 551-766q23.699-10.053 50.442-15.026Q628.184-786 656-786q127.271 0 216.136 89.03Q961-607.939 961-480.485 961-353 872.136-264 783.271-175 656-175Zm-352 0q-127.271 0-216.136-88.864Q-1-352.729-1-480q0-127.657 88.864-216.829Q176.73-786 304-786q27.709 0 54.354 5Q385-776 410-766q-18 15-36.714 37.604Q354.571-705.792 344-684q-9-4-19-5.5t-21-1.5q-87.245 0-149.122 61.5Q93-568 93-480.491 93-393 154.878-331 216.755-269 304-269q11 0 21.5-2t19.5-5q13 19 29.708 42.125Q391.417-210.75 409-194q-25 9-51 14t-54 5Z"/></svg>