<svg xmlns="http://www.w3.org/2000/svg" width="48" height="48"><path d="M12.7 44.7v-5.65h-2.2q-2 0-3.425-1.45-1.425-1.45-1.425-3.45t1.425-3.425Q8.5 29.3 10.5 29.3h2.2v-2.7H8q-1 0-1.675-.675T5.65 24.2v-5q0-1 .675-1.675T8 16.85h4.7v-2.7h-2.2q-2 0-3.425-1.45Q5.65 11.25 5.65 9.25t1.425-3.425Q8.5 4.4 10.5 4.4h2.2V3.15q0-.55.375-.925T14 1.85q.55 0 .925.375t.375.925V4.4h2.2q2.05 0 3.475 1.425Q22.4 7.25 22.4 9.25q0 2-1.425 3.45-1.425 1.45-3.475 1.45h-2.2v2.7H20q1 0 1.7.675t.7 1.675v5q0 1.05-.7 1.725T20 26.6h-4.7v2.7h2.2q2.05 0 3.475 1.425Q22.4 32.15 22.4 34.15q0 2-1.425 3.45-1.425 1.45-3.475 1.45h-2.2v5.65q0 .55-.375.925T14 46q-.55 0-.925-.375T12.7 44.7zm20 0v-5.65h-2.2q-2 0-3.425-1.45-1.425-1.45-1.425-3.45t1.425-3.425Q28.5 29.3 30.5 29.3h2.2v-2.7H28q-1 0-1.675-.675T25.65 24.2v-5q0-1 .675-1.675T28 16.85h4.7v-2.7h-2.2q-2 0-3.425-1.45-1.425-1.45-1.425-3.45t1.425-3.425Q28.5 4.4 30.5 4.4h2.2V3.15q0-.55.375-.925T34 1.85q.55 0 .925.375t.375.925V4.4h2.2q2.05 0 3.475 1.425Q42.4 7.25 42.4 9.25q0 2-1.425 3.45-1.425 1.45-3.475 1.45h-2.2v2.7H40q1 0 1.7.675t.7 1.675v5q0 1.05-.7 1.725T40 26.6h-4.7v2.7h2.2q2.05 0 3.475 1.425Q42.4 32.15 42.4 34.15q0 2-1.425 3.45-1.425 1.45-3.475 1.45h-2.2v5.65q0 .55-.375.925T34 46q-.55 0-.925-.375T32.7 44.7zM10.5 11.15h7q.8 0 1.35-.575t.55-1.325q0-.75-.55-1.3T17.5 7.4h-7q-.75 0-1.3.55t-.55 1.3q0 .75.55 1.325t1.3.575zm20 0h7q.8 0 1.35-.575t.55-1.325q0-.75-.55-1.3T37.5 7.4h-7q-.75 0-1.3.55t-.55 1.3q0 .75.55 1.325t1.3.575zM8.65 23.6H19.4v-3.75H8.65zm20 0H39.4v-3.75H28.65zM10.5 36.05h7q.8 0 1.35-.575t.55-1.325q0-.75-.55-1.3t-1.35-.55h-7q-.75 0-1.3.55t-.55 1.3q0 .75.55 1.325t1.3.575zm20 0h7q.8 0 1.35-.575t.55-1.325q0-.75-.55-1.3t-1.35-.55h-7q-.75 0-1.3.55t-.55 1.3q0 .75.55 1.325t1.3.575zM16 11.15H9.75q-.45 0-.775-.575T8.65 9.25q0-.8.325-1.325Q9.3 7.4 9.75 7.4H16q.45 0 .8.525.35.525.35 1.325 0 .75-.35 1.325t-.8.575zm20 0h-6.25q-.45 0-.775-.575T28.65 9.25q0-.8.325-1.325.325-.525.775-.525H36q.45 0 .8.525.35.525.35 1.325 0 .75-.35 1.325t-.8.575zM17.15 23.6h-8.5v-3.75h8.5zm20 0h-8.5v-3.75h8.5zM16 36.05H9.75q-.45 0-.775-.575T8.65 34.15q0-.8.325-1.325.325-.525.775-.525H16q.45 0 .8.525.35.525.35 1.325 0 .75-.35 1.325t-.8.575zm20 0h-6.25q-.45 0-.775-.575t-.325-1.325q0-.8.325-1.325.325-.525.775-.525H36q.45 0 .8.525.35.525.35 1.325 0 .75-.35 1.325t-.8.575z"/></svg>