<svg xmlns="http://www.w3.org/2000/svg" width="48" height="48" viewBox="0 96 960 960"><path d="M250.636 953Q190 953 146.5 909.722q-43.5-43.278-43.5-104.5T146.571 701.5Q190.143 659 250 659h53V493h-53q-59.857 0-103.429-43.278Q103 406.444 103 345.222T146.278 241.5q43.278-42.5 104.5-42.5T354.5 242.05Q397 285.1 397 346v53h166v-53q0-60.9 43.278-103.95Q649.556 199 710.778 199T814.5 241.864q42.5 42.863 42.5 103.5Q857 406 813.95 449.5 770.9 493 710 493h-53v166h53q60.9 0 103.95 42.864Q857 744.727 857 805.364 857 866 814.136 909.5q-42.863 43.5-103.5 43.5Q650 953 606.5 909.429 563 865.857 563 806v-53H397v53q0 59.857-42.864 103.429Q311.273 953 250.636 953Zm.011-94Q273 859 288 843.542q15-15.459 15-37.542v-53h-53q-22.083 0-37.542 15.235-15.458 15.236-15.458 37Q197 827 212.647 843t38 16Zm460 0Q733 859 748 843.353t15-38Q763 783 747.833 768q-15.166-15-37.421-15H657v52.706q0 21.961 15.647 37.627 15.647 15.667 38 15.667ZM397 659h166V493H397v166ZM250 399h53v-53.412q0-22.255-15.235-37.421-15.236-15.167-37-15.167Q229 293 213 308.235q-16 15.236-16 37Q197 367 212.458 383q15.459 16 37.542 16Zm407 0h53.412q22.255 0 37.421-15.647 15.167-15.647 15.167-38T747.765 308q-15.236-15-37-15Q689 293 673 308.167q-16 15.166-16 37.421V399Z"/></svg>