<svg xmlns="http://www.w3.org/2000/svg" width="48" height="48" viewBox="0 -960 960 960"><path d="M101.825-223Q82-223 68.5-236.625 55-250.25 55-270v-420q0-19.75 13.675-33.375Q82.351-737 102.175-737 122-737 135.5-723.375 149-709.75 149-690v420q0 19.75-13.675 33.375Q121.649-223 101.825-223ZM428-433l119 118q14 14.067 13.5 34.033-.5 19.967-14.342 34.358-13.842 13.609-33 13.109T480-248L282-446q-7-7-11-16.133-4-9.134-4-18Q267-489 271-498t11-16l198-198q14-14 33-14t33 14q14 14 14 33t-14 33L428-527h430q19.75 0 33.875 13.675Q906-499.649 906-479.825 906-460 891.875-446.5 877.75-433 858-433H428Z"/></svg>