<svg xmlns="http://www.w3.org/2000/svg" width="48" height="48" viewBox="0 -960 960 960"><path d="M111-97q-39.05 0-66.525-27.475Q17-151.95 17-191v-538q0-39.05 27.475-66.525Q71.95-823 111-823h738q39.05 0 66.525 27.475Q943-768.05 943-729v538q0 39.05-27.475 66.525Q888.05-97 849-97H111Zm0-94h738v-538H111v538Zm221-65h296q16.4 0 27.2-11t10.8-27q0-16-10.8-27T628-332H332q-16.4 0-27.2 11T294-294q0 16 10.8 27t27.2 11Zm-221 65v-538 538Zm65-210h99v-98h-99v98Zm170 0h99v-98h-99v98Zm169 0h99v-98h-99v98Zm170 0h99v-98h-99v98ZM176-568h99v-97h-99v97Zm170 0h99v-97h-99v97Zm169 0h99v-97h-99v97Zm170 0h99v-97h-99v97Z"/></svg>