<svg xmlns="http://www.w3.org/2000/svg" width="48" height="48" viewBox="0 -960 960 960"><path d="M479.784-28q-90.918 0-154.851-64.35Q261-156.7 261-248v-407q-35-7-57.5-34T181-752v-80q0-40.725 29.081-70.362Q239.162-932 280-932h400q40.725 0 70.362 29.638Q780-872.725 780-832v80q0 36-23 63t-57 34v407q0 91.3-64.648 155.65Q570.703-28 479.784-28Zm.48-87q45.558 0 80.147-27.5Q595-170 607-212h-97q-17.625 0-30.312-12.738Q467-237.476 467-255.175 467-274 479.688-286.5 492.375-299 510-299h103v-60H510q-17.625 0-30.312-12.738Q467-384.476 467-402.175 467-421 479.688-433.5 492.375-446 510-446h103v-60H510q-17.625 0-30.312-12.738Q467-531.476 467-549.175 467-568 479.688-580.5 492.375-593 510-593h103v-60H348v405q0 56.167 38.577 94.583Q425.154-115 480.264-115Z"/></svg>