<svg xmlns="http://www.w3.org/2000/svg" width="48" height="48" viewBox="0 96 960 960"><path d="M129 1022h585q59 0 84.5-52t-9.5-99L632 660l-207-88-88-118q-13-18-33-28t-42-10H129q-39 0-67 27.5T34 510v417q0 39 28 67t67 28Zm-12-83v-93l100 32 380-126 140 187H117Zm100-147-100-34v-90l100 32 168-53 110 52-278 93Zm585-146 85-38q26-11 41-33.5t15-51.5v-49q0-32-21.5-54T869 391l-76-17q-21-5-41.5 0T714 392l-37 30q-17 14-27 33t-10 41v40q0 21 9.5 39.5T674 608l32 25q20 18 46 21.5t50-8.5Zm-585-32-100-34v-81h150l62 78-112 37Zm545-30-49-37v-61l54-43 103 22v70l-108 49ZM531 410l101-40q27-11 43-35t16-54v-67q0-34-21-59.5T616 121l-93-17q-19-3-37 0t-34 14l-50 32q-20 13-31 34t-11 45v65q0 24 11 45t31 34l42 26q19 13 42 16t45-5Zm-39-58-65-44v-93l72-48 125 25v108l-132 52Z"/></svg>