<svg xmlns="http://www.w3.org/2000/svg" width="48" height="48" viewBox="0 -960 960 960"><path d="M402-55q-14 0-23-7.85-9-7.84-9-24.15v-286l57-169q5-14 17-22.5t28.49-8.5H804q14.64 0 26.82 8.5T848-542l58 169v286q0 15.31-9.63 23.65Q886.73-55 873-55h-20q-14 0-23.5-7.85Q820-70.69 820-87v-38H455v38q0 16.31-9.35 24.15Q436.31-55 423-55h-21Zm48-363h375l-33-93H483l-33 93Zm71.89 192Q541-226 554-238.89q13-12.9 13-32Q567-290 554.11-303q-12.9-13-32-13Q503-316 490-303.11q-13 12.9-13 32Q477-252 489.89-239q12.9 13 32 13Zm231 0Q772-226 785-238.89q13-12.9 13-32Q798-290 785.11-303q-12.9-13-32-13Q734-316 721-303.11q-13 12.9-13 32Q708-252 720.89-239q12.9 13 32 13ZM77-135q-26.5 0-44.25-18.96T15-199q0-24.92 17-42.46T75-259h20v-472q0-40.46 26.97-67.73Q148.95-826 189-826h542q40.46 0 67.73 27.27Q826-771.46 826-731v76q0 9.28-6.36 15.64Q813.28-633 804-633H474.56q-36.56 0-65.06 21.5T370-556l-60 177v196.85q0 20.15-14.06 33.65T262-135H77Z"/></svg>