<svg xmlns="http://www.w3.org/2000/svg" width="48" height="48" viewBox="0 96 960 960"><path d="m673 647-67-67 121-94-247-192-91 69-67-67 100-78q13.339-8.647 28.315-13.823Q465.29 199 480.145 199q14.855 0 29.73 5.441T538 220l295 229q9 6.5 14 16.375T852 486q0 10.75-5 20.625T832 523L673 647Zm111 110-68-67 61-47q12.105-9 28.053-9 15.947 0 29.095 10Q852 658 852.5 681T835 718l-51 39Zm13 215L671 846 538 948q-13.339 10.118-28.315 15.059Q494.71 968 479.855 968q-14.855 0-29.73-4.941T422 948L127 719q-18-13.941-18-37.471Q109 658 127.075 644q14.302-10 29.614-10Q172 634 186 644l294 230 124-96-47-47-38 30q-9 6.222-18.5 9.111Q491 773 479 773q-16 0-30.167-4.559Q434.667 763.882 421 752L126 523q-8.867-6.65-13.433-16.85Q108 495.95 108 485.975 108 476 112.5 466q4.5-10 13.5-17l83-66L91 265q-10-10-10-25t10.053-25q10.052-10 25.5-10Q132 205 142 215l706 707q11 11 11 25t-11 25q-11 11-25.5 11T797 972ZM499 473Z"/></svg>