<svg xmlns="http://www.w3.org/2000/svg" width="48" height="48" viewBox="0 -960 960 960"><path d="M563-828q-13 173-134 294.5T137-397q-18 2-30-10t-12-29.271q0-15.271 10.654-28.102Q116.308-477.203 132-479q137-13.928 236-110.964T481-824q1.769-16.629 13.385-29.314Q506-866 523.877-866q15.807 0 28.465 11T563-828Zm-131 0q-13.671 118.763-96.836 202.882Q252-541 133-528q-17 2-27.5-10T95-567.509q0-16.596 9.5-29.544Q114-610 131-613q83-11 143.5-70.5T347-827q3-16 15.89-27.5T392-866q16.875 0 29.438 11Q434-844 432-828Zm4.271 733Q419-95 407-107t-10-30q15-172 136.5-292.5T828-563q16-2 27 10.658t11 28.465q0 17.877-12.686 29.492Q840.629-482.769 824-481q-137 14-234.036 113T479-132q-1.797 15.692-14.627 26.346Q451.542-95 436.271-95ZM568-95q-16.82 0-29.41-10.5T528-133q13-119 97.118-202.164Q709.237-418.329 828-432q16-2 27 10.062 11 12.063 11 28.938 0 17-11.5 30T827-347q-84 12-143.5 72.5T613-131q-3 17-15.6 26.5T568-95ZM267-781.113Q267-745 241.113-719q-25.888 26-62 26Q143-693 117.5-718.887q-25.5-25.888-25.5-62Q92-817 117.387-842.5q25.388-25.5 61.5-25.5Q215-868 241-842.613q26 25.388 26 61.5Zm601 602Q868-143 842.613-117.5 817.225-92 781.113-92 745-92 719-117.387q-26-25.388-26-61.5Q693-215 718.887-241q25.888-26 62-26Q817-267 842.5-241.113q25.5 25.888 25.5 62Z"/></svg>