<svg xmlns="http://www.w3.org/2000/svg" width="48" height="48" viewBox="0 -960 960 960"><path d="m514-509-70.841-70.838Q431-592 417-592q-14 0-25 11t-11 25q0 14 12 25l87 88q14.091 14 33.545 14Q533-429 547-443l177-178q10-11 10.5-25.5T724-671q-11-10-25.5-9t-24.657 11.078L514-509ZM286-192q-39.05 0-66.525-27.475Q192-246.95 192-286v-542q0-39.463 27.475-67.231Q246.95-923 286-923h542q39.463 0 67.231 27.769Q923-867.463 923-828v542q0 39.05-27.769 66.525Q867.463-192 828-192H286ZM132-37q-39.463 0-67.231-27.769Q37-92.537 37-132v-589q0-20 13.5-33.5t34-13.5q20.5 0 34 13.5T132-721v589h589q20 0 33.5 13.5t13.5 34q0 20.5-13.5 34T721-37H132Z"/></svg>