<svg xmlns="http://www.w3.org/2000/svg" width="48" height="48" viewBox="0 96 960 960"><path d="M503 704q41 0 70-27.84T602 608V360.4h87q12 0 20.5-8.733t8.5-21.642q0-12.91-8.625-21.468Q700.75 300 688.284 300H610q-20.75 0-34.375 13.625T562 347v184q-10-9-25.819-14-15.819-5-33.181-5-39.06 0-66.03 27.366t-26.97 67Q410 646 436.97 675T503 704ZM286 864q-39.05 0-66.525-27.475Q192 809.05 192 770V228q0-39.463 27.475-67.231Q246.95 133 286 133h542q39.463 0 67.231 27.769Q923 188.537 923 228v542q0 39.05-27.769 66.525Q867.463 864 828 864H286Zm-154 155q-39.463 0-67.231-27.769Q37 963.463 37 924V334q0-19 14.263-32.5t34-13.5Q105 288 118.5 301.625 132 315.25 132 335v589h590q19 0 32.5 13.95 13.5 13.951 13.5 33.225 0 20.825-13.625 34.325Q740.75 1019 721 1019H132Z"/></svg>