<svg xmlns="http://www.w3.org/2000/svg" width="48" height="48" viewBox="0 -960 960 960"><path d="M400.5-484.5Q368-517 368-564.5t32.5-80Q433-677 480-677t79.5 32.5q32.5 32.5 32.5 80t-32.5 80Q527-452 480-452t-79.5-32.5ZM480-98 295-37q-23 8-42.5-7T233-83v-241q-51-51-74.5-114T135-565q0-146 99.5-245.5T480-910q146 0 246 99.5T826-565q0 64-24 127t-75 114v241q0 24-19.5 39T666-37L480-98Zm178-288.5q73-72.5 73-178T658-743q-73-73-178-73t-178 73q-73 73-73 178.5t73 178Q375-314 480-314t178-72.5ZM304-112l176-60 176 60v-160q-41 28-86.5 40.5T480-219q-44 0-89.5-12.5T304-272v160Zm176-80Z"/></svg>