<svg xmlns="http://www.w3.org/2000/svg" width="48" height="48" viewBox="0 -960 960 960"><path d="M125-102q-12.6 0-21.3-9.5Q95-121 95-134t9.2-22q9.2-9 21.8-9h709q13 0 22 9t9 22q0 13-9.5 22.5T834-102H125Zm17-111q-19.75 0-33.375-13.675Q95-240.351 95-260.675 95-281 108.625-294.5 122.25-308 142-308h676q19.625 0 33.812 13.675 14.188 13.676 14.188 34Q866-240 851.812-226.5 837.625-213 818-213H142Zm0-144q-19.75 0-33.375-13.655Q95-384.309 95-404.103v-7.103Q95-431 108.625-444.5 122.25-458 142-458h676q19.625 0 33.812 13.655Q866-430.691 866-410.897v7.103Q866-384 851.812-370.5 837.625-357 818-357H142Zm0-150q-19.75 0-33.375-13.625T95-553.614v-257.772q0-19.364 13.625-32.989Q122.25-858 142-858h676q19.625 0 33.812 13.625Q866-830.75 866-811.386v257.772q0 19.364-14.188 32.989Q837.625-507 818-507H142Z"/></svg>