<svg xmlns="http://www.w3.org/2000/svg" width="48" height="48" viewBox="0 -960 960 960"><path d="M280-255q-95.11 0-160.055-64.922Q55-384.845 55-479.922 55-575 119.945-640.5T280-706h112q19.75 0 33.375 14.175 13.625 14.176 13.625 34Q439-638 425.375-624.5 411.75-611 392-611H280q-57 0-94 37t-37 94q0 57 37 94t94 37h112q19.75 0 33.375 13.675Q439-321.649 439-301.825 439-282 425.375-268.5 411.75-255 392-255H280Zm64-189q-16.15 0-26.075-9.975-9.925-9.976-9.925-26.2 0-16.225 9.925-26.025Q327.85-516 344-516h272q16.15 0 26.075 9.975 9.925 9.976 9.925 26.2 0 16.225-9.925 26.025Q632.15-444 616-444H344Zm225 189q-20.75 0-34.375-13.675Q521-282.351 521-302.175 521-322 534.625-335.5 548.25-349 569-349h111q57 0 94-37t37-94q0-57-37-94t-94-37H569q-20.75 0-34.375-13.675Q521-638.351 521-658.175 521-678 534.625-692 548.25-706 569-706h111q95.11 0 160.555 65.422Q906-575.155 906-480.078 906-385 840.555-320T680-255H569Z"/></svg>