<svg xmlns="http://www.w3.org/2000/svg" width="48" height="48" viewBox="0 -960 960 960"><path d="M646-450q12.75 0 21.375-8.675 8.625-8.676 8.625-21.5 0-12.825-8.625-21.325T646-510H462q-12.75 0-21.375 8.675-8.625 8.676-8.625 21.5 0 12.825 8.625 21.325T462-450h184Zm0-160q12.75 0 21.375-8.675 8.625-8.676 8.625-21Q676-652 667.375-661T646-670H462q-12.75 0-21.375 9.175-8.625 9.176-8.625 21.5 0 12.325 8.625 20.825T462-610h184Zm76 490h-80q-16.475 0-28.237-11.175Q602-142.351 602-158.982q0-16.632 11.763-28.325Q625.525-199 642-199h80v-80q0-16.475 11.813-28.237Q745.626-319 762.175-319q16.125 0 27.475 11.763Q801-295.475 801-279v80h81q16.05 0 27.525 11.868Q921-175.263 921-158.632 921-142 909.525-131T882-120h-81v81q0 16.75-11.667 27.875Q777.667 0 761.333 0 745 0 733.5-11.125T722-39v-81ZM300-291q12 0 21-8.5t9-21.5q0-12-9-21t-21-9q-12 0-21 9t-9 21q0 13 9 21.5t21 8.5Zm0-159q12 0 21-9t9-21q0-12-9-21t-21-9q-12 0-21 9t-9 21q0 12 9 21t21 9Zm0-160q12 0 21-8.5t9-21.5q0-12-9-21t-21-9q-12 0-21 9t-9 21q0 13 9 21.5t21 8.5ZM189-95q-39.8 0-66.9-27.1Q95-149.2 95-189v-582q0-40.213 27.1-67.606Q149.2-866 189-866h582q40.213 0 67.606 27.394Q866-811.213 866-771v339q0 21.158-17 33.079T811-392q-15-4-30.173-5.5Q765.655-399 751-398q-37.021 2-69.51 14.5Q649-371 620-351H462q-12.75 0-21.375 9.175-8.625 9.176-8.625 21.5 0 12.325 8.625 20.825T462-291h100q-14 24-23 49t-13 53q-2 10.538-3 22.269Q522-155 522-143q1 18.696-10.599 33.348Q499.803-95 481-95H189Z"/></svg>