<svg xmlns="http://www.w3.org/2000/svg" width="48" height="48" viewBox="0 -960 960 960"><path d="M338-637q-19.75 0-33.37-13.68-13.63-13.67-13.63-34 0-20.32 13.63-33.82Q318.25-732 338-732h480q19.75 0 33.88 13.68 14.12 13.67 14.12 34 0 20.32-14.12 33.82Q837.75-637 818-637H338Zm0 204q-19.75 0-33.37-13.68Q291-460.35 291-480.18q0-19.82 13.63-33.32Q318.25-527 338-527h480q19.75 0 33.88 13.68Q866-499.65 866-479.82q0 19.82-14.12 33.32Q837.75-433 818-433H338Zm0 205q-19.75 0-33.37-13.68-13.63-13.67-13.63-34 0-20.32 13.63-33.82Q318.25-323 338-323h480q19.75 0 33.88 13.68 14.12 13.67 14.12 34 0 20.32-14.12 33.82Q837.75-228 818-228H338ZM140.75-637q-19.24 0-32.5-13.96Q95-664.91 95-684.96 95-704 108.25-718q13.26-14 33-14Q161-732 175-717.97q14 14.02 14 33.97 0 19.35-14.12 33.17Q160.75-637 140.75-637Zm0 204q-19.24 0-32.5-14Q95-461 95-481.75q0-18.74 13.25-32 13.26-13.25 33-13.25Q161-527 175-513.62t14 32.37Q189-461 174.88-447q-14.13 14-34.13 14Zm0 204q-19.24 0-32.5-13.96Q95-256.91 95-276.96 95-296 108.25-310q13.26-14 33-14Q161-324 175-309.98q14 14.03 14 33.98 0 19.35-14.12 33.18Q160.75-229 140.75-229Z"/></svg>