<svg xmlns="http://www.w3.org/2000/svg" width="48" height="48" viewBox="0 -960 960 960"><path d="M180-86q-38.8 0-66.4-27.6Q86-141.2 86-180v-438q0-39.213 27.6-67.106Q141.2-713 180-713h153v-29q0 21.76 1.235 17.41 1.236-4.35 4.706-20.81 3.471-16.46 8.765-36.53Q353-802 361-810l85.741-83.741Q461-907 480-907t33.217 13.217l85.5 83.5Q613-797 620.5-778.978 628-760.956 628-742v195h152q39.213 0 67.106 27.894Q875-491.212 875-452v272q0 38.8-27.894 66.4Q819.213-86 780-86H180Zm0-94h106v-106H180v106Zm0-166h106v-106H180v106Zm0-166h106v-106H180v106Zm247 332h106v-106H427v106Zm0-166h106v-106H427v106Zm0-166h106v-106H427v106Zm0-166h106v-106H427v106Zm247 498h106v-106H674v106Zm0-166h106v-106H674v106Z"/></svg>