<svg xmlns="http://www.w3.org/2000/svg" width="48" height="48" viewBox="0 -960 960 960"><path d="M95-246v-305q0-29.48 21.68-49.74 21.67-20.26 50.69-18.16 89.44 6.57 167.04 48.24Q412-529 480-472q68-57 145.59-98.66 77.6-41.67 167.04-48.24 29.02-2.1 51.19 18.16Q866-580.48 866-551v305q0 27.16-18.5 47.08Q829-179 802-177q-77.52 7.07-149.44 37.99-71.91 30.91-132.72 77.44-8.8 7.57-19.53 10.07Q489.59-49 479.9-49t-20.42-2.5q-10.72-2.5-19.53-10.07-60.85-46.62-132.82-77.6Q235.17-170.14 159-177q-28-2-46-21.92T95-246Zm385 104q65-49 138-80t153-42v-256q-65 8-138.5 47.5T480-361q-82-72-152.5-110.5T189-520v256q77 10 150 41t141 81ZM366-646.83q-48-47.82-48-117.5 0-69.67 47.62-118.17t117-48.5Q552-931 600-882.54t48 118.13q0 69.68-47.62 117.54-47.62 47.87-117 47.87T366-646.83Zm176-59.71q24-23.54 24-57.87 0-34.32-24.38-58.46-24.38-24.13-59-24.13Q448-847 424-822.83q-24 24.18-24 58.5 0 34.33 24.38 57.83t59 23.5Q518-683 542-706.54ZM483-765Zm-3 404Z"/></svg>