<svg xmlns="http://www.w3.org/2000/svg" width="48" height="48"><path d="M7.25 28q0 4.85 2.45 8.775 2.45 3.925 6.5 6.025-1.3-1.4-1.975-3.175t-.675-3.775q0-2.1.775-3.95t2.325-3.35L24 21.3l7.45 7.25q1.5 1.5 2.275 3.35.775 1.85.775 3.95 0 1.95-.7 3.75t-2 3.2q4.05-2.1 6.5-6.025Q40.75 32.85 40.75 28q0-4.2-2.025-7.9T33.2 13.9q-.65-.4-1.375-.2t-1.225.85q-.5.65-1.15.975-.65.325-1.4.325-1.4 0-2.35-.95-.95-.95-.95-2.3V9.5q0-1.7-1.375-2.475Q22 6.25 20.7 7.1q-6.3 4.05-9.875 9.6T7.25 28zM24 27.9l-4.05 4.05q-.85.8-1.275 1.8-.425 1-.425 2.1 0 2.35 1.675 4T24 41.5q2.4 0 4.075-1.65 1.675-1.65 1.675-4 0-1.1-.425-2.1t-1.225-1.8z"/></svg>