<svg xmlns="http://www.w3.org/2000/svg" width="48" height="48" viewBox="0 -960 960 960"><path d="M283.741-55Q239-55 209.5-85T175-162L98-853q-3-20.5 11.25-36.75T144-906h672q20.5 0 34.75 16.25T862-853l-77 691q-4 47-34 77t-74 30H283.741ZM223-580l46.964 431H690l47-431H223Zm-6.817-60H744l20-171H196l20.183 171ZM480-198q45 0 76.5-30.684T588-304q0-39.312-20-83.156Q548-431 510-473q-12.25-13-30.125-13T450-473q-38 42-58 85.844-20 43.844-20 83.156 0 44.632 31.5 75.316Q435-198 480-198Zm257-382H223h514ZM480-253q-20.4 0-34.2-13.8Q432-280.6 432-301q0-21 11.5-50t36.5-61q25 33 36.5 62t11.5 49q0 20.4-13.8 34.2Q500.4-253 480-253Z"/></svg>