<svg xmlns="http://www.w3.org/2000/svg" width="48" height="48" viewBox="0 96 960 960"><path d="M105 1001q-21.025 0-35.513-14.487Q55 972.025 55 951V637q0-20.9 14.487-35.95Q83.975 586 105 586h116V406q0-107.167 75.167-181.583Q371.333 150 480 150h173q104.75 0 178.875 75.417Q906 300.833 906 406v548q0 19.75-14.263 33.375t-34 13.625Q838 1001 824.5 987.375 811 973.75 811 954v-68H652v65q0 23-17.562 36.5Q616.875 1001 594 1001H105Zm547-209h159V405.992q0-67.117-45.381-114.054Q720.237 245 653 245H479.5q-67.569 0-116.034 46.5Q315 338 315 406v180h279q22.875 0 40.438 14Q652 614 652 637v155ZM430 479q-12.75 0-21.375-8.675-8.625-8.676-8.625-21.5 0-12.825 8.625-21.325T430 419h266q12.75 0 21.375 8.675 8.625 8.676 8.625 21.5 0 12.825-8.625 21.325T696 479H430Zm-77.235 359q12.235 0 24.304-3.273Q389.138 831.455 400 826l144.682-82.767q5.118-4.122 8.718-8.818 3.6-4.697 3.6-12.516Q557 707 545 701q-12-6-24 0l-168 97-167.719-96.814Q171 694 160 702q-11 8-11 20.483 0 6.608 3.6 11.517t8.4 9l146 83q9.647 5.364 21.588 8.682Q340.529 838 352.765 838Z"/></svg>