<svg xmlns="http://www.w3.org/2000/svg" width="48" height="48" viewBox="0 -960 960 960"><path d="M189-55q-39.05 0-66.525-27.475Q95-109.95 95-149v-505q0-39.463 27.475-67.231Q149.95-749 189-749h90q0-84 55.76-142.5 55.759-58.5 140-58.5Q559-950 620-891.5 681-833 681-749h90q39.463 0 67.231 27.769Q866-693.463 866-654v505q0 39.05-27.769 66.525Q810.463-55 771-55H189Zm184-694h214q0-46-30-76.5T480-856q-47 0-77 30.333-30 30.334-30 76.667Zm108 346q77 0 139-49.808T683-567q0-18.927-13.047-30.463Q656.906-609 637.151-609 623-609 612.5-602T593-582q-12 37-43.286 60.5-31.285 23.5-69 23.5Q443-498 412-521t-44-60q-9-14-20.324-21-11.323-7-25.676-7-19 0-31 11.537-12 11.536-12 29.463 0 64.384 61.578 114.692Q402.156-403 481-403Z"/></svg>