<svg xmlns="http://www.w3.org/2000/svg" width="48" height="48" viewBox="0 -960 960 960"><path d="m720-683-30 24q-7 4-13.5-.5T672-673l11-38-34-28q-7-5-4.5-13t11.5-8h40l13-38q3-9 11-9t11 9l13 38h40q9 0 11.5 8t-4.5 13l-34 28 12 38q2 9-5 13.5t-13 .5l-31-24ZM480-283q-42 0-69-28t-27-69q0-39 23.5-65.5T469-476q14 0 26.5 3t23.5 9q12 13 23.5 25.5T566-414q3 10 5.5 20.5T574-372q-3 38-29.5 63.5T480-283ZM149-37q-39 0-66.5-28T55-132v-495q0-38 27.5-66t66.5-28h125l66-70q8-9 19-13t23-4h30q-6 19-8 39.5t-2 42.5q0 46 15 90.5t41 86.5q-68 5-111 52t-43 117q0 75 50.5 125.5T480-204q64 0 109-37.5t56-96.5l13 11q13 12 29 17.5t33 5.5q17 0 33-6t30-18q32-29 62.5-58.5T906-449v317q0 39-28.5 67T811-37H149Zm571-358q8 0 16.5-3t15.5-9q64-58 135-141.5T958-727q0-113-71.5-178.5T720-971q-95 0-166.5 65.5T482-727q0 95 71 178.5T688-407q7 6 15.5 9t16.5 3Z"/></svg>