<svg xmlns="http://www.w3.org/2000/svg" width="48" height="48" viewBox="0 96 960 960"><path d="M771 1022H189q-39.05 0-66.525-27.769Q95 966.463 95 927V416q0-39.463 27.475-67.231Q149.95 321 189 321h90q0-83 55.76-142 55.759-59 140-59Q559 120 620 178.83q61 58.83 61 142.17h90q39.463 0 67.231 27.769Q866 376.537 866 416v511q0 39.463-27.769 67.231Q810.463 1022 771 1022ZM373 321h214q0-46-30-76t-77-30q-47 0-77 30.042-30 30.041-30 75.958Zm107.5 346q77.5 0 139-49.808T682 503q0-18-13.047-30t-32.802-12Q622 461 611.5 468T593 489q-13 36-44.196 60-31.196 24-68.804 24-37.951 0-68.976-23.5Q380 526 368 489q-10-13-21.419-20.5t-25.905-7.5q-19.162 0-30.919 11.5Q278 484 278 502q0 65 62 115t140.5 50Z"/></svg>