<svg xmlns="http://www.w3.org/2000/svg" width="48" height="48" viewBox="0 -960 960 960"><path d="M126-133v-647q0-39.46 27.48-67.23Q180.95-875 220-875h269q39.46 0 67.23 27.77Q584-819.46 584-780v311h78q23.8 0 39.9 16.19Q718-436.63 718-414v219q0 19.53 13.61 32.76 13.6 13.24 33.5 13.24Q785-149 799-162.24q14-13.23 14-32.76v-337q-10 5-21.15 7.5Q780.71-522 771-522q-42.48 0-70.74-28.76Q672-579.52 672-622q0-29.61 16.5-55.31Q705-703 734-713l-72-72q-8-8.64-8.5-21.82T662-829q9-10 22-9t22 10l115 115q20 20 36.5 41.5T874-622v427q0 46.26-31.32 77.63Q811.37-86 765.18-86 719-86 688-117.37q-31-31.37-31-77.98V-408h-73v275q0 19.75-14.19 33.37Q555.63-86 536-86H173q-19.75 0-33.37-13.63Q126-113.25 126-133Zm94-419h269v-228H220v228Zm551.11-32q15.89 0 27.39-11.11 11.5-11.1 11.5-27Q810-638 798.39-649q-11.6-11-27.5-11Q755-660 744-648.89q-11 11.1-11 27Q733-606 744.11-595q11.1 11 27 11Z"/></svg>