<svg xmlns="http://www.w3.org/2000/svg" width="48" height="48" viewBox="0 -960 960 960"><path d="M439-435v122q0 17.42 11.96 29.21 11.97 11.79 29 11.79Q497-272 509-283.79T521-313v-122h122q17.42 0 29.21-11.96 11.79-11.97 11.79-29Q684-493 672.21-505T643-517H521v-122q0-17.42-11.96-29.21-11.97-11.79-29-11.79Q463-680 451-668.21T439-639v122H317q-17.42 0-29.21 11.96-11.79 11.97-11.79 29Q276-459 287.79-447T317-435h122Zm40.59 380q-87.66 0-165.13-33Q237-121 179-179q-58-58-91-135.45-33-77.44-33-165.5Q55-568 88-645.5q33-77.5 90.84-135.55 57.85-58.06 135.36-91.5Q391.72-906 479.86-906t165.76 33.37q77.62 33.37 135.59 91.29 57.98 57.92 91.39 135.52Q906-568.23 906-480v309q0 48.87-33.86 82.44Q838.29-55 789-55H479.59Z"/></svg>