<svg xmlns="http://www.w3.org/2000/svg" width="48" height="48" viewBox="0 0 48 48"><path d="M3.6 17.3v-4.6h4.75v4.6Zm9.15 9.1v-4.75h4.6v4.75Zm0-18.1V3.6h4.6v4.7Zm9 9v-4.6h4.7v4.6ZM8.35 44.4q-2 0-3.375-1.375T3.6 39.65v-15.6q0-1 .675-1.7t1.675-.7q1 0 1.7.7t.7 1.7v15.6H39.7V8.3H24.1q-1 0-1.675-.675T21.75 5.95q0-1 .675-1.675T24.1 3.6h15.6q1.95 0 3.325 1.375Q44.4 6.35 44.4 8.3v31.35q0 2-1.375 3.375T39.7 44.4ZM3.6 8.3Q3.6 6.4 5 5t3.35-1.4v4.7Zm18.15 18.1v-4.75h4.7q0 1.95-1.4 3.35-1.4 1.4-3.3 1.4Z"/></svg>