<svg xmlns="http://www.w3.org/2000/svg" width="48" height="48" viewBox="0 96 960 960"><path d="M196 747q-19.75 0-33.375-13.625T149 700V440q0-15.725 9.693-25.362 9.693-9.638 25.5-9.638T210 414.638q10 9.637 10 25.205V676h86.649q16.501 0 26.426 9.975 9.925 9.976 9.925 26.2 0 15.8-9.925 25.312Q323.15 747 306.504 747H196Zm281.825 0q-16.225 0-26.025-9.638-9.8-9.637-9.8-25.205V476h-49q-16.15 0-26.075-9.975-9.925-9.976-9.925-26.2 0-15.8 9.925-25.312Q376.85 405 393 405h170q16.15 0 26.075 9.693t9.925 25.5Q599 456 589.075 466 579.15 476 563 476h-49v236.157q0 15.568-9.975 25.205-9.976 9.638-26.2 9.638ZM710 747q-19.75 0-33.375-13.625T663 700V452q0-19.75 13.625-33.375T710 405h110.504q16.646 0 26.571 9.693t9.925 25.5Q857 456 847.075 466q-9.925 10-26.426 10H734v70h93q12.75 0 21.375 8.675 8.625 8.676 8.625 21.5 0 12.825-8.625 21.325T827 606h-93v70h86.649q16.501 0 26.426 9.975 9.925 9.976 9.925 26.2 0 15.8-9.925 25.312Q837.15 747 820.504 747H710Z"/></svg>