<svg xmlns="http://www.w3.org/2000/svg" width="48" height="48" viewBox="0 -960 960 960"><path d="M248-104q-32.75 0-55.875-23.125T169-184v-470q0-35.887 25.2-61.444Q219.4-741 256-741h90v-78q0-35.887 25.2-61.444Q396.4-906 433-906h95q35.887 0 61.444 25.556Q615-854.887 615-819v78h90q35.887 0 61.444 25.556Q792-689.887 792-654v470q0 33.75-23.625 56.875T712-104q0 20-14.638 34.5Q682.725-55 662-55q-20.3 0-34.65-14.35Q613-83.7 613-104H348q0 20-15 34.5T297.5-55q-20.5 0-35-14.35T248-104Zm141.035-490Q371-594 358.5-581.312 346-568.625 346-551v256q0 18.75 12.763 31.375t30.5 12.625Q407-251 420-263.625T433-295v-256q0-17.625-12.965-30.312Q407.07-594 389.035-594Zm182 0Q553-594 540.5-581.312 528-568.625 528-551v256q0 18.75 12.763 31.375t30.5 12.625Q589-251 602-263.625T615-295v-256q0-17.625-12.965-30.312Q589.07-594 571.035-594ZM433-741h95v-78h-95v78Z"/></svg>