<svg xmlns="http://www.w3.org/2000/svg" width="48" height="48" viewBox="0 -960 960 960"><path d="M142-83q-36.875 0-61.938-25.356Q55-133.712 55-171v-108q0-20 13.5-33.5T102-326h756q19.875 0 33.938 13.5Q906-299 906-279v108q0 37.288-25.356 62.644Q855.287-83 818-83H142Zm338-346q-41 0-64.5 22T337-385q-55 0-76.711-22-21.71-22-62.289-22-32.444 0-51.222 15T97-390.615Q80-386 67.5-398T55-428.716q0-18.717 12.526-33.538Q80.05-477.075 97-484q21.298-8.6 43.149-20.3Q162-516 198-516q55 0 76.721 22 21.721 22 62.318 22 40.597 0 64.279-22Q425-516 480-516t78.5 22q23.5 22 65 22t62.5-22q21-22 77.254-22 36.806 0 58.776 11.5Q844-493 864-484q18 7 30 21.767 12 14.766 12 33.5Q906-409 893-398t-29 6q-31-8-50-22.5T764-429q-42 0-63.5 22t-77 22q-55.5 0-79-22T480-429Zm0-447q78 0 154.5 14.5t136.5 45q60 30.5 97.5 79T906-620q0 20-14.062 33.5Q877.875-573 858-573H102q-20 0-33.5-13.5T55-620q0-69 37-117.5t97-79q60-30.5 136.5-45T480-876Z"/></svg>