<svg xmlns="http://www.w3.org/2000/svg" width="48" height="48" viewBox="0 0 48 48"><path d="M7.15 32.25V7.75v24.5Zm-4.7 14.1V7.75q0-2 1.35-3.375T7.15 3h22.5q2 0 3.375 1.375T34.4 7.75v2.65q-1.6.6-2.85 1.75t-1.9 2.7v-7.1H7.15v24.5h22.5V23.4q.65 1.55 1.9 2.7 1.25 1.15 2.85 1.75v4.4q0 2-1.375 3.35t-3.375 1.35H11.8Zm8.2-17.75h9.5v-3.95h-9.5ZM38 25.1q-2.5 0-4.25-1.725T32 19.1q0-2.5 1.75-4.225Q35.5 13.15 38 13.15q.35 0 .85.1t1.15.3V2.65h8.5V6.6H44v12.5q0 2.55-1.75 4.275Q40.5 25.1 38 25.1ZM10.65 22h15.5v-4h-15.5Zm0-6.65h15.5v-4h-15.5Z"/></svg>