<svg xmlns="http://www.w3.org/2000/svg" width="48" height="48" viewBox="0 0 48 48"><path d="m21 27-5.5-2.55q-.35-.15-.35-.525t.35-.525l5.5-2.5 2.5-5.5q.15-.35.525-.35t.575.35l2.5 5.5 5.5 2.55q.35.2.35.55 0 .35-.35.55L27.1 27l-2.5 5.5q-.2.35-.575.35-.375 0-.525-.35Zm2.95 20.15q-5.6 0-10.8-3.15-5.2-3.15-8.35-7.2v4.3q0 .85-.6 1.45t-1.45.6q-.85 0-1.45-.6T.7 41.1v-9.3q0-1 .675-1.675t1.675-.675h9.3q.85 0 1.45.6t.6 1.45q0 .85-.6 1.45t-1.45.6h-4.8q2.55 3.6 7.15 6.525Q19.3 43 23.95 43q7.2 0 12.625-4.75T42.9 26.3q.05-.85.675-1.425.625-.575 1.475-.575.8 0 1.425.5t.575 1.3q-.45 4.5-2.425 8.35-1.975 3.85-5.1 6.675Q36.4 43.95 32.4 45.55q-4 1.6-8.45 1.6ZM24 5q-7.2 0-12.625 4.75T5.1 21.7q-.1.85-.725 1.425-.625.575-1.475.575-.85 0-1.425-.6Q.9 22.5.95 21.65q.4-4.35 2.375-8.15Q5.3 9.7 8.375 6.9q3.075-2.8 7.1-4.425Q19.5.85 24 .85q5.6 0 10.85 3.175t8.3 7.175V6.9q0-.9.6-1.475.6-.575 1.5-.575t1.475.575Q47.3 6 47.3 6.9v9.3q0 1-.675 1.675t-1.675.675h-9.3q-.85 0-1.45-.6t-.6-1.45q0-.85.6-1.45t1.45-.6h4.8q-2.7-3.75-7.35-6.6Q28.45 5 24 5Z"/></svg>