<svg xmlns="http://www.w3.org/2000/svg" width="48" height="48" viewBox="0 -960 960 960"><path d="M443.781-62Q424-62 410.5-75.625T397-109v-230h-33q-19.75 0-33.375-13.625T317-386v-189q0-38.75 27.625-66.375T411-669h138q38.75 0 66.375 27.625T643-575v189q0 19.75-13.625 33.375T596-339h-33v230q0 19.75-13.646 33.375T515.927-62h-72.146ZM463-737l-60-60q-7-6.636-7-16.818Q396-824 403-831l60-61q6.636-6 16.818-6Q490-898 497-892l60 61q7 6.636 7 16.818Q564-804 557-797l-60 60q-6.636 7-16.818 7Q470-730 463-737Z"/></svg>