<svg xmlns="http://www.w3.org/2000/svg" width="48" height="48" viewBox="0 -960 960 960"><path d="M280.175-353Q300-353 313.5-366.625 327-380.25 327-400v-160q0-19.75-13.675-33.375Q299.649-607 279.825-607 260-607 246.5-593.375 233-579.75 233-560v160q0 19.75 13.675 33.375Q260.351-353 280.175-353Zm200 0Q500-353 513.5-366.625 527-380.25 527-400v-160q0-19.75-13.675-33.375Q499.649-607 479.825-607 460-607 446.5-593.375 433-579.75 433-560v160q0 19.75 13.675 33.375Q460.351-353 480.175-353Zm200 0Q700-353 713.5-366.625 727-380.25 727-400v-160q0-19.75-13.675-33.375Q699.649-607 679.825-607 660-607 646.5-593.375 633-579.75 633-560v160q0 19.75 13.675 33.375Q660.351-353 680.175-353ZM149-175q-39.05 0-66.525-27.475Q55-229.95 55-269v-422q0-39.463 27.475-67.231Q109.95-786 149-786h44v-67.386q0-19.364 13.675-32.989Q220.351-900 240.175-900 260-900 273.5-886.375 287-872.75 287-853.386V-786h146v-67.386q0-19.364 13.675-32.989Q460.351-900 480.175-900 500-900 513.5-886.375 527-872.75 527-853.386V-786h146v-67.386q0-19.364 13.675-32.989Q700.351-900 720.175-900 740-900 753.5-886.375 767-872.75 767-853.386V-786h44q39.463 0 67.231 27.769Q906-730.463 906-691v422q0 39.05-27.769 66.525Q850.463-175 811-175h-44v68.088q0 19.662-13.675 33.287Q739.649-60 719.825-60 700-60 686.5-73.625 673-87.25 673-106.912V-175H527v68.088q0 19.662-13.675 33.287Q499.649-60 479.825-60 460-60 446.5-73.625 433-87.25 433-106.912V-175H287v68.088q0 19.662-13.675 33.287Q259.649-60 239.825-60 220-60 206.5-73.625 193-87.25 193-106.912V-175h-44Z"/></svg>