<svg xmlns="http://www.w3.org/2000/svg" width="48" height="48" viewBox="0 -960 960 960"><path d="M127-212q-19.75 0-33.375-13.675Q80-239.351 80-259.175 80-279 93.625-292.5 107.25-306 127-306h460q19.75 0 33.375 13.675Q634-278.649 634-258.825 634-239 620.375-225.5 606.75-212 587-212H127Zm0-223q-19.75 0-33.375-13.675Q80-462.351 80-482.175 80-502 93.625-515.5 107.25-529 127-529h340q19.75 0 33.375 13.675Q514-501.649 514-481.825 514-462 500.375-448.5 486.75-435 467-435H127Zm0-219q-19.75 0-33.375-13.675Q80-681.351 80-701.175 80-721 93.625-735 107.25-749 127-749h460q19.75 0 33.375 14.175 13.625 14.176 13.625 34Q634-681 620.375-667.5 606.75-654 587-654H127Zm609 173 113 113q14 14 13.5 33T848-302q-15 14-34 14t-33-14L635-448q-14-14-14-33t14-33l146-146q14-14 33-14t34 14q14 14 14 33.5T848-593L736-481Z"/></svg>