<svg xmlns="http://www.w3.org/2000/svg" width="48" height="48" viewBox="0 -960 960 960"><path d="M480-389q-55 0-92-38.917-37-38.916-37-95.083v-246q0-52.667 37.441-90.333Q425.882-897 479.941-897T572-859.333q38 37.666 38 90.333v246q0 56.167-37.5 95.083Q535-389 480-389Zm-.175 315Q463-74 451-86.125T439-116v-98q-108-11-183.5-84.5T165-476q-2-18 10.5-32.5T209-523q12.5 0 23.75 9.5T247-489q13 85 78.822 141 65.821 56 154 56Q568-292 634-348t79-141q3.237-15.25 13.814-24.625Q737.39-523 751.831-523 772-523 784.5-508.5 797-494 795-476q-15 104-90.5 177.5T521-214v98q0 17.75-12.175 29.875Q496.649-74 479.825-74Z"/></svg>