<svg xmlns="http://www.w3.org/2000/svg" width="48" height="48" viewBox="0 96 960 960"><path d="M431 639 308 516h60q12.75 0 21.375-8.675 8.625-8.676 8.625-21.5 0-12.825-8.625-21.325T368 456H250q-20.75 0-34.375 13.625T202 503v113q0 12.75 8.675 21.375 8.676 8.625 21.5 8.625 12.825 0 21.325-8.625T262 616v-60l136 135q7 8 15.739 11.5t17.39 3.5q9.694 0 17.783-3.5Q457 699 464 692l121-121q9-8 9-21t-9-22q-9-9-21.5-9t-21.5 9L431 639ZM149 921q-39.05 0-66.525-27.475Q55 866.05 55 827V325q0-39.463 27.475-67.231Q109.95 230 149 230h502q39.463 0 67.231 27.769Q746 285.537 746 325v206l118-118q12-12 27-6t15 22v293q0 17-15 23t-27-6L746 621v206q0 39.05-27.769 66.525Q690.463 921 651 921H149Zm0-94h502V325H149v502Zm0 0V325v502Z"/></svg>