<svg xmlns="http://www.w3.org/2000/svg" width="48" height="48" viewBox="0 96 960 960"><path d="M217 813h-41q-40.212 0-67.606-27.1Q81 758.8 81 719V362H71q-18 0-30.5-12.5T28 318.991q0-18.009 12.5-31T71 275h146v-65h-30q-18 0-30.5-12.5T144 166.991q0-18.009 12.5-31T186.759 123H334q18.05 0 31.025 13.116Q378 149.232 378 167.491 378 185 365.025 197.5T334 210h-30v65h146q18.05 0 31.025 13.116Q494 301.232 494 319.491 494 337 481.025 349.5T450 362h-10v357q0 39.8-27.625 66.9Q384.75 813 346 813h-42v180q0 13.5-12.281 20.25T267 1011l-31-22q-10-6.5-14.5-16.5T217 951V813Zm482.5 161q-74.5 0-127-51.944T520 795V475q0-75 52.5-127.5t127-52.5q74.5 0 127 52.5T879 475v320q0 75.112-52.5 127.056T699.5 974ZM168 726h185v-65h-73q-18.8 0-32.9-14.057-14.1-14.057-14.1-32.8 0-18.743 14.1-32.943T280 567h73v-45h-73q-18.8 0-32.9-14.057-14.1-14.057-14.1-32.8Q233 456 247.1 441.5T280 427h73v-65H168v364Zm531.411-344Q661 382 634 408.944T607 475v10h185v-10q0-39-27.089-66-27.088-27-65.5-27ZM607 705h185V564H607v141Zm93.089 182Q738 887 765 859.938q27-27.063 27-64.938v-10H607v10q0 38 26.97 65t66.119 27ZM700 485Zm0 300Z"/></svg>