<svg xmlns="http://www.w3.org/2000/svg" width="48" height="48" viewBox="0 -960 960 960"><path d="M323-94q-40.21 0-67.61-27.63Q228-149.25 228-188v-583q0-40.21 27.39-67.61Q282.79-866 323-866h316q40.21 0 67.61 27.39Q734-811.21 734-771v583q0 38.75-27.39 66.37Q679.21-94 639-94H323Zm181.5-535.5Q515-640 515-655t-10.5-25.5Q494-691 479-691t-25.5 10.5Q443-670 443-655t10.5 25.5Q464-619 479-619t25.5-10.5ZM-37-401.38V-559q0-14.9 10.77-25.45Q-15.46-595-.23-595T25-584.88q10 10.13 10 26.26V-401q0 14.9-10.18 25.45Q14.65-365-.58-365q-15.23 0-25.82-10.13Q-37-385.25-37-401.38ZM95-313.2V-647q0-14.9 10.77-25.45 10.77-10.55 26-10.55T157-672.88q10 10.13 10 26.08V-313q0 14.9-10.18 25.45Q146.65-277 131.42-277q-15.23 0-25.82-10.13Q95-297.25 95-313.2Zm831-88.18V-559q0-14.9 10.18-25.45Q946.35-595 961.58-595q15.23 0 25.82 10.12 10.6 10.13 10.6 26.26V-401q0 14.9-10.77 25.45-10.77 10.55-26 10.55T936-375.13q-10-10.12-10-26.25ZM794-313.2V-647q0-14.9 10.18-25.45Q814.35-683 829.58-683q15.23 0 25.82 10.12Q866-662.75 866-646.8V-313q0 14.9-10.77 25.45-10.77 10.55-26 10.55T804-287.13q-10-10.12-10-26.07Z"/></svg>