<svg xmlns="http://www.w3.org/2000/svg" width="48" height="48" viewBox="0 -960 960 960"><path d="M474-686q-25.731 0-45.365 9Q409-668 395-653l-66-66q21.226-24.378 46.613-37.689T433-775v-47q0-17.3 11.789-29.15 11.79-11.85 29-11.85Q491-863 503-851.15T515-822v47q32 1 65.5 22t58.5 57q9 14 1.433 31.389Q632.867-647.222 615-640q-18 8-36.548 2.69Q559.905-642.619 544-654q-13.12-15.424-30.56-23.712Q496-686 474-686ZM779-68 622.439-224Q600-205 573.144-195.415q-26.856 9.584-58.144 12.707V-138q0 17.3-11.789 29.15-11.79 11.85-29 11.85Q457-97 445-108.85T433-138v-46.228Q389-188 351.155-219.43T290-295q-8-16 .562-32.35Q299.125-343.7 318-351q17-7 34.5.5T380-328q16 30 40.983 43 24.982 13 59.017 13 19.875 0 39.938-5Q540-282 551-294L68-778q-11-11-11-25.5T68-829q11-11 26-10.5t26 10.5l710 711q11 11 11 25t-11 25q-11 11-25.5 11T779-68Z"/></svg>