<svg xmlns="http://www.w3.org/2000/svg" width="48" height="48" viewBox="0 -960 960 960"><path d="M620-527q24.5 0 42.25-17.5T680-587q0-25-17.75-42.5T619.5-647q-24 0-41.25 17.38T561-587.12q0 25.12 17.17 42.62Q595.33-527 620-527Zm-279.5 0q24 0 41.25-17.38t17.25-42.5q0-25.12-17.17-42.62Q364.67-647 340-647q-24.5 0-42.25 17.5T280-587q0 25 17.75 42.5T340.5-527Zm-26 439Q237-121 179-179T88-314.36q-33-77.36-33-165.5T88-645.5q33-77.5 90.84-135.55 57.85-58.06 135.28-91.5Q391.56-906 479.78-906t165.84 33.4q77.62 33.41 135.59 91.39 57.98 57.97 91.39 135.59Q906-568 906-479.78t-33.45 165.66q-33.44 77.43-91.5 135.28Q723-121 645.64-88t-165.5 33Q392-55 314.5-88Zm165-173q59.76 0 109.63-28T669-366.4q6-12.6-1.73-24.1-7.73-11.5-22.15-11.5H314.77q-14.84 0-22.31 11-7.46 11-.46 23.6 29 49.48 79 77.94T479.5-261Z"/></svg>