<svg xmlns="http://www.w3.org/2000/svg" width="48" height="48" viewBox="0 -960 960 960"><path d="M125-659v-223h264v223H125Zm72-72h120v-79H197v79Zm120 0v-79 79ZM183.5-228Q148-262 146-311h-31q-19.75 0-33.37-13.63Q68-338.25 68-358v-79q0-68.17 46.41-115.09Q160.83-599 229-599h66q38.75 0 66.38 27.62Q389-543.75 389-505v122h155l146-185v-136h-88q-14.87 0-24.94-10.57Q567-725.14 567-740.05t10.35-24.93Q587.7-775 603-775h87q29.29 0 50.14 20.86Q761-733.29 761-704v128q0 17.1-5.44 31.58Q750.12-529.94 741-518L606-347q-14.07 16.73-33.53 26.37Q553-311 532-311H389q-1 49-36.26 83-35.27 34-84.5 34-49.24 0-84.74-34ZM318-383Zm-17 103.85q14-13.15 16-31.85h-98q1 19 15.5 32t33.5 13q19 0 33-13.15Zm383 50q-35-35.14-35-86.5 0-51.35 34.65-86.85 34.64-35.5 86-35.5 51.35 0 86.85 35.15 35.5 35.14 35.5 86.5 0 51.35-35.15 86.85-35.14 35.5-86.5 35.5Q719-194 684-229.15Zm122.02-51.46q14.98-14.6 14.98-35.5 0-20.89-15.09-35.39t-36-14.5q-20.91 0-35.41 14.61-14.5 14.6-14.5 35.5 0 20.89 14.61 35.39 14.6 14.5 35.51 14.5 20.92 0 35.9-14.61ZM139-383h179v-144h-88.63q-37.37 0-63.87 26.79Q139-473.43 139-437v54Z"/></svg>