<svg xmlns="http://www.w3.org/2000/svg" width="48" height="48" viewBox="0 -960 960 960"><path d="M359-135q-23.53 0-43.35-10.09Q295.83-155.19 283-173L97-424q-19-24.68-19-55.84Q78-511 97-536l185-251q12.83-18.28 32.65-28.64T358-826h454q40.21 0 67.61 27.39Q907-771.21 907-731v502q0 39.8-27.39 66.9Q852.21-135 812-135H359Zm27.57-295q22 0 36.21-14.41Q437-458.82 437-480.12t-14.35-35.59Q408.29-530 387.07-530q-22.49 0-36.78 14.41Q336-501.18 336-479.88t14.29 35.59Q364.58-430 386.57-430Zm159.36 0q22.49 0 36.78-14.41Q597-458.82 597-480.12t-14.29-35.59Q568.42-530 546.43-530q-22 0-36.21 14.41Q496-501.18 496-479.88t14.35 35.59Q524.71-430 545.93-430Zm160.5 0q21.99 0 36.28-14.41Q757-458.82 757-480.12t-14.35-35.59Q728.29-530 707.07-530q-22.49 0-36.28 14.41Q657-501.18 657-479.88t13.72 35.59Q684.43-430 706.43-430Z"/></svg>