<svg xmlns="http://www.w3.org/2000/svg" width="48" height="48" viewBox="0 -960 960 960"><path d="M570-63q-12.239 0-23.061-6.175-10.821-6.175-17.082-16.805-7.024-10.78-7.44-24.022Q522-123.245 529-134l160-280q6-12 17.017-18 11.016-6 23.983-6 13.966 0 24.526 6.476Q765.087-425.048 772-414l160 280q6 12 5.583 24.651-.416 12.652-7.583 23.094-6 10.765-16.517 17.01Q902.966-63 890-63H570Zm160-38q11 0 18.5-8.1T756-128q0-10.4-7.5-18.2Q741-154 730-154t-18.5 7.929q-7.5 7.928-7.5 18.5Q704-117 711.5-109q7.5 8 18.5 8Zm0-89q11 0 18.5-8.1T756-217v-118q0-11-7.5-18.5T730-361q-11 0-18.5 7.5T704-335v118q0 10.8 7.5 18.9Q719-190 730-190ZM233.353-490q-21.09 0-32.721 19Q189-452 198-431q21 68 70.5 118.5T386-242q22 9 42-3.652 20-12.652 20-36.992Q448-297 439-309q-9-12-23-18-47-14-80-48.5T289-456q-8-15.676-23.341-24.838Q250.317-490 233.353-490Zm.647-60q-20.737 0-31.368-19Q192-588 200-609q22-68 70.5-118.5T387-798q22-9 42.5 3.652 20.5 12.652 20.5 36.992Q450-743 441-731q-9 12-23 18-47 14-79.94 48.663Q305.12-629.673 290-584q-7 16-22.341 25-15.342 9-33.659 9Zm246.386-57Q517-607 542-581.832t25 61.893Q567-484 541.832-458.5T479.939-433Q444-433 418.5-458.413 393-483.827 393-520.386 393-557 418.413-582q25.414-25 61.973-25ZM728-550q19.737 0 30.868-19Q770-588 762-609q-22-68-70.5-118.5T575-798q-23-9-43 3.652-20 12.652-20 36.992Q512-743 521-731q9 12 23 18 47 14 79.94 48.663Q656.88-629.673 672-584q7 16 22.341 25 15.342 9 33.659 9ZM265-851H149v116q0 19.75-13.675 33.375Q121.649-688 101.825-688 82-688 68.5-701.625 55-715.25 55-735v-116q0-39.463 27.475-67.231Q109.95-946 149-946h116q19.75 0 33.375 14.263t13.625 34Q312-878 298.375-864.5 284.75-851 265-851ZM149-95q-39.05 0-66.525-27.475Q55-149.95 55-189v-116q0-19.75 13.675-33.375Q82.351-352 102.175-352 122-352 135.5-338.375 149-324.75 149-305v116h116q19.75 0 33.375 13.675Q312-161.649 312-141.825 312-122 298.375-108.5 284.75-95 265-95H149Zm546-756q-19.75 0-33.375-13.675Q648-878.351 648-898.088q0-19.737 13.625-33.824Q675.25-946 695-946h116q39.463 0 67.231 27.769Q906-890.463 906-851v116q0 19.75-14.263 33.375t-34 13.625Q838-688 824.5-701.625 811-715.25 811-735v-116H695Z"/></svg>