<svg xmlns="http://www.w3.org/2000/svg" width="48" height="48" viewBox="0 96 960 960"><path d="M239.348 907.851Q227 895.964 227 877.936q0-18.027 13-29.936l52-52q-110 4-195-70T12 524.948q0-124.499 86.383-211.224Q184.767 227 308.779 227H404q17.3 0 29.65 11.95Q446 250.9 446 269q0 17.675-12.35 29.338Q421.3 310 404 310h-95q-88.925 0-151.962 63.037Q94 436.075 94 525q0 90 60 143t147 51l-64-62q-12-13-12.5-30t12.5-30q11.933-12 29.967-12Q285 585 297 597l123 123q6.818 6.6 10.409 15.005Q434 743.409 434 752.5q0 9.091-3.591 17.845Q426.818 779.1 420 786L297 908q-12 13-28.5 12.5t-29.152-12.649ZM609 542q-39.975 0-67.487-27.513Q514 486.975 514 447V322q0-39.438 27.513-67.219Q569.025 227 609 227h205q39.438 0 67.219 27.781Q909 282.562 909 322v125q0 39.975-27.781 67.487Q853.438 542 814 542H609Zm0-95h205V322H609v125Zm0 477q-39.975 0-67.487-27.487Q514 869.025 514 830V704q0-39.025 27.513-66.513Q569.025 610 609 610h205q39.438 0 67.219 27.487Q909 664.975 909 704v126q0 39.025-27.781 66.513Q853.438 924 814 924H609Z"/></svg>