<svg xmlns="http://www.w3.org/2000/svg" width="48" height="48" viewBox="0 -960 960 960"><path d="M314-55q-38.75 0-66.37-27.1Q220-109.2 220-149v-333q0-40.21 27.63-67.61Q275.25-577 314-577h333q40.21 0 67.61 27.39Q742-522.21 742-482v333q0 39.8-27.39 66.9Q687.21-55 647-55H314Zm333-427H314v333h333v-333Zm13.5-178.68q-13.5-13.67-13.5-33.5 0-19.82 13.68-33.32 13.67-13.5 34-13.5 20.32 0 33.82 13.68 13.5 13.67 13.5 33.5 0 19.82-13.68 33.32-13.67 13.5-34 13.5-20.32 0-33.82-13.68Zm0-164Q647-838.35 647-858.09q0-19.73 13.68-33.82 13.67-14.09 34-14.09 20.32 0 33.82 14.26 13.5 14.27 13.5 34 0 19.74-13.68 33.24-13.67 13.5-34 13.5-20.32 0-33.82-13.68Zm-213 0Q434-838.35 434-858.09q0-19.73 13.68-33.82Q461.35-906 481.18-906q19.82 0 33.32 14.26 13.5 14.27 13.5 34 0 19.74-13.68 33.24-13.67 13.5-33.5 13.5-19.82 0-33.32-13.68Zm-214 0Q220-838.35 220-858.09q0-19.73 13.68-33.82Q247.35-906 267.18-906q19.82 0 33.32 14.26 13.5 14.27 13.5 34 0 19.74-13.68 33.24-13.67 13.5-33.5 13.5-19.82 0-33.32-13.68Zm0 164q-13.5-13.67-13.5-33.5 0-19.82 13.68-33.32 13.67-13.5 33.5-13.5 19.82 0 33.32 13.68 13.5 13.67 13.5 33.5 0 19.82-13.68 33.32-13.67 13.5-33.5 13.5-19.82 0-33.32-13.68ZM481-316Z"/></svg>