<svg xmlns="http://www.w3.org/2000/svg" width="48" height="48"><path d="M22.5 21.4v-8.2q0-.6.425-1.05.425-.45 1.075-.45.65 0 1.075.45.425.45.425 1.05v8.2l3.05-3.05q.15-.15.775.1t1.15.45q.525.2.725.15.2-.05-.5-.75.45.45.45 1.075t-.45 1.075l-5 5q-.35.35-.8.55-.45.2-.9.2t-.9-.2q-.45-.2-.8-.55l-4.95-5q-.15-.15.075-.775.225-.625.45-1.15.225-.525.2-.725-.025-.2-.675.5.45-.45 1.05-.425.6.025 1.05.475zM9.45 43.25q-1.95 0-3.325-1.375Q4.75 40.5 4.75 38.55V9.45q0-1.95 1.375-3.35Q7.5 4.7 9.45 4.7h29.1q1.95 0 3.35 1.4 1.4 1.4 1.4 3.35v29.1q0 1.95-1.4 3.325-1.4 1.375-3.35 1.375zm0-4.7h29.1v-6.6H31.7q-1.3 2-3.375 3.075Q26.25 36.1 24 36.1t-4.325-1.075Q17.6 33.95 16.3 31.95H9.45v6.6zM24 33.1q1.65 0 3.1-.75 1.45-.75 2.2-2.25.4-.6 1.1-.875.7-.275 1.5-.275h6.65V9.45H9.45v19.5h6.7q.75 0 1.45.275t1.1.875q.75 1.5 2.2 2.25 1.45.75 3.1.75zM9.45 38.55h29.1z"/></svg>