<svg xmlns="http://www.w3.org/2000/svg" width="48" height="48" viewBox="0 -960 960 960"><path d="M139-62q-39.46 0-67.23-27.47Q44-116.95 44-156v-647q0-39.46 27.77-67.73Q99.54-899 139-899h684q38.34 0 65.67 28.27T916-803v647q0 39.05-27.33 66.53Q861.34-62 823-62H139Zm367-224.92q10-9.93 10-25.7V-497q0-15.3-10.18-25.65-10.17-10.35-26-10.35-15.82 0-25.82 9.92-10 9.93-10 25.7V-313q0 15.3 10.18 25.65 10.17 10.35 26 10.35 15.82 0 25.82-9.92ZM480.18-602q19.82 0 33.32-13.68 13.5-13.67 13.5-33.5 0-19.82-13.68-33.32-13.67-13.5-33.5-13.5-19.82 0-33.32 13.68-13.5 13.67-13.5 33.5 0 19.82 13.68 33.32 13.67 13.5 33.5 13.5ZM139-156h91v-91h-91v91Zm592 0h92v-91h-92v91ZM139-340h91v-92h-91v92Zm592 0h92v-92h-92v92ZM139-526h91v-92h-91v92Zm592 0h92v-92h-92v92ZM139-712h91v-91h-91v91Zm592 0h92v-91h-92v91Z"/></svg>