<svg xmlns="http://www.w3.org/2000/svg" width="48" height="48" viewBox="0 -960 960 960"><path d="M149-135q-39 0-66.5-26.5T55-227v-504q0-39 27.5-67t66.5-28l58 119q8 16 22 24.5t31 8.5q32 0 49-27t3-57l-33-68h89l58 119q8 16 22 24.5t31 8.5q32 0 49-27t3-57l-33-68h89l58 119q8 16 22 24.5t31 8.5q32 0 49-27t3-57l-33-68h94q39 0 67 28t28 67v165q0 15-12.5 23t-26.5 3q-33.704-9-67.852 0T739-505L524-292q-13 13-20.5 30.878T496-224v42q0 20-14 33.5T448-135H149Zm407-7v-78q0-9 3.5-17t10.5-15l211-211q11-11.176 24.667-16.588Q819.333-485 834-485q14 0 28.048 6 14.049 6 24.952 17l37 37q10.824 11 16.412 24.667Q946-386.667 946-373q0 15-6 29t-17 25L713-108q-6.857 7-14.929 10Q690-95 681-95h-78q-20 0-33.5-13.5T556-142Zm285-199 30-32-37-37-31 31 38 38Z"/></svg>