<svg xmlns="http://www.w3.org/2000/svg" width="48" height="48" viewBox="0 96 960 960"><path d="M477.883 1001Q390 1001 312.5 968q-77.5-33-135.553-90.843-58.052-57.843-91.5-135.278Q52 664.443 52 576.221 52 488 85.37 410.382q33.37-77.619 91.29-135.596 57.92-57.978 135.46-91.382T478 150q87.522 0 164.72 32.815 77.198 32.816 135.239 90Q836 330 869.5 407T903 571q-31.434-27-69.755-39t-79.604-12Q736 520 718.5 522.5T685 530q-10-43-37-71.5T578.458 430Q522 430 494 472.85T466 576q0 42 13 76.5t41 52.5q-3 14-4.5 28t-1.5 28q0 67.147 31.936 124.06Q577.872 941.974 638 969q-38 18-78.043 25-40.044 7-82.074 7ZM537.5 656q-9.5-11-16.5-29.434-7-18.435-7-50.566 0-51 17-74.5t47.069-23.5Q602 478 618.5 494.5 635 511 640 549.295q-34 18.179-59.5 45.442T537.5 656Zm217.55 251Q694 907 651.5 864.036 609 821.071 609 760q0-60 42.742-102.5 42.743-42.5 103.5-42.5Q816 615 859 657.5q43 42.5 43 103T859.051 864q-42.95 43-104.001 43ZM322 723l134-241v-43H260v48.409h135.019L397 490 278 699l44 24Z"/></svg>