<svg xmlns="http://www.w3.org/2000/svg" width="48" height="48" viewBox="0 -960 960 960"><path d="M527-477v-126q0-19.625-13.675-33.812Q499.649-651 479.825-651 460-651 446.5-636.812 433-622.625 433-603v148q0 8.565 3 16.64 3 8.074 10 15.36l105 104q14.067 14 33.533 14 19.467 0 33.858-14.842Q632-333.484 632-352.242T618-386l-91-91Zm-46.825-249Q500-726 513.5-739.625 527-753.25 527-773v-30q0-19.75-13.675-33.375Q499.649-850 479.825-850 460-850 446.5-836.375 433-822.75 433-803v30q0 19.75 13.675 33.375Q460.351-726 480.175-726ZM726-479.825Q726-460 739.625-446.5 753.25-433 773-433h30q19.75 0 33.375-13.675Q850-460.351 850-480.175 850-500 836.375-513.5 822.75-527 803-527h-30q-19.75 0-33.375 13.675Q726-499.649 726-479.825ZM479.825-235Q460-235 446.5-220.787 433-206.575 433-186.912v30q0 19.662 13.675 33.287Q460.351-110 480.175-110 500-110 513.5-123.625 527-137.25 527-156.912v-30q0-19.663-13.675-33.875Q499.649-235 479.825-235ZM235-480.175Q235-500 220.787-513.5 206.575-527 186.912-527h-30q-19.662 0-33.287 13.675Q110-499.649 110-479.825 110-460 123.625-446.5 137.25-433 156.912-433h30q19.663 0 33.875-13.675Q235-460.351 235-480.175ZM480.404-55q-88.872 0-166.125-33.084-77.254-33.083-135.183-91.012-57.929-57.929-91.012-135.119Q55-391.406 55-480.362q0-88.957 33.084-166.285 33.083-77.328 90.855-134.809 57.772-57.482 135.036-91.013Q391.238-906 480.279-906q89.04 0 166.486 33.454 77.446 33.453 134.853 90.802 57.407 57.349 90.895 134.877Q906-569.34 906-480.266q0 89.01-33.531 166.247-33.531 77.237-91.013 134.86-57.481 57.623-134.831 90.891Q569.276-55 480.404-55Z"/></svg>