<svg xmlns="http://www.w3.org/2000/svg" width="48" height="48" viewBox="0 96 960 960"><path d="M479.102 675Q562 675 617 618.1T672 483V291H479q-78.165 0-135.083 54.526Q287 400.052 287 483.565q0 27.435 9 54.935 9 27.5 25 52.5l-21 21q-10 10-10 22.5t10 23q10 10.5 23 10.5t23-11l19.385-19Q392 656 421.18 665.5q29.18 9.5 57.922 9.5Zm1.206-64q-15.308 0-32.923-5.143Q429.769 600.714 413 592l112-112q10-10.067 10-23.033Q535 444 524.5 434q-10.5-10-23-10T479 434L367 546q-7-17.083-11-33.7-4-16.616-4-29.5 0-54.5 38.4-91.15Q428.8 355 480 355h128v128.412q0 52.755-37.417 90.171Q533.167 611 480.308 611ZM447 966l-97-97H189q-39.05 0-66.525-28.269Q95 812.463 95 774V192q0-39.05 27.475-66.525Q149.95 98 189 98h582q38.463 0 66.731 27.475Q866 152.95 866 192v582q0 38.463-28.269 66.731Q809.463 869 771 869H611l-98 97q-14 14-33 14t-33-14ZM189 774h200.057L480 866l92-92h199V192H189v582Zm0-582v582-582Z"/></svg>