<svg xmlns="http://www.w3.org/2000/svg" width="48" height="48" viewBox="0 -960 960 960"><path d="m527-477 91 91q14 14.5 14 33.575 0 19.074-13.609 32.583Q604-305 584.533-305q-19.466 0-33.533-14L446-423q-7-7.286-10-15.36-3-8.075-3-16.64v-148q0-19.625 13.675-33.812Q460.351-651 480.175-651 500-651 513.5-636.812 527-622.625 527-603v126Zm-47.175-249Q460-726 446.5-739.625 433-753.25 433-772.614V-850h94v77.386q0 19.364-13.675 32.989Q499.649-726 479.825-726ZM726-480.175Q726-500 739.625-513.5 753.25-527 772.614-527H850v94h-77.386q-19.364 0-32.989-13.675Q726-460.351 726-480.175ZM480.175-235Q500-235 513.5-220.956 527-206.913 527-187.5v77.5h-94v-77.386q0-19.364 13.675-33.489Q460.351-235 480.175-235ZM235-479.825Q235-460 220.956-446.5 206.913-433 187.5-433H110v-94h77.386q19.364 0 33.489 13.675Q235-499.649 235-479.825ZM480.404-55q-88.872 0-166.125-33.084-77.254-33.083-135.183-91.012-57.929-57.929-91.012-135.119Q55-391.406 55-480.362q0-88.957 33.084-166.285 33.083-77.328 90.855-134.809 57.772-57.482 135.036-91.013Q391.238-906 480.279-906q89.04 0 166.486 33.454 77.446 33.453 134.853 90.802 57.407 57.349 90.895 134.877Q906-569.34 906-480.266q0 89.01-33.531 166.247-33.531 77.237-91.013 134.86-57.481 57.623-134.831 90.891Q569.276-55 480.404-55ZM811-480.5q0-137.5-96.312-234Q618.375-811 479.5-811q-137.5 0-234 96.312Q149-618.375 149-479.5q0 137.5 96.372 234T480.5-149q137.5 0 234-96.372T811-480.5Zm-331 .5Z"/></svg>