<svg xmlns="http://www.w3.org/2000/svg" width="48" height="48" viewBox="0 96 960 960"><path d="M199 712h562l10-265q0-67-47.506-114.5Q675.987 285 608 285H351q-67 0-114.5 47.5T189 447v205q0 18 3 32.5t7 27.5Zm153.103 249q-106.724 0-181.913-75.19Q95 810.621 95 703.897V447.759q0-106.725 75.19-182.242Q245.379 190 352.103 190h256.138q106.725 0 182.242 75.517T866 447.759v256.138q0 106.724-75.517 181.913Q714.966 961 608.241 961H352.103ZM480 712ZM363.529 867q0-14 8.136-22 8.135-8 22.335-8 14 0 22 8t8 22h112q0-14 8-22t22-8q14 0 22 8t8 22q46 0 78.5-14.5T732 807h-51q0 14-8 22t-22 8q-13 0-21.5-8t-8.5-22H510q0 14-8 22t-22 8q-14 0-22-8t-8-22H339q0 14-8.5 22t-22 8q-13.5 0-21.5-8t-8-22h-50q23 30 56 45t78.529 15Z"/></svg>