<svg xmlns="http://www.w3.org/2000/svg" width="48" height="48" viewBox="0 96 960 960"><path d="M253 715h189v-48H330l-1-2q12-9 30-23.5t29.692-24.885Q416 592 428 570.5q12-21.5 12-51.5 0-35-25.201-62-25.202-27-62.799-27-36 0-63 19t-40 52l43 18q7-21 22-31t37.326-10Q367 478 381 486.5t14 31.5q0 24.72-14.5 44.36T332.625 609Q311 627 295 638t-42 31v46Zm334.5 6q55.5 0 84.5-42.588 29-42.587 29-102.5Q701 516 671.5 473 642 430 588 430q-56 0-84 42.789-28 42.79-28 103Q476 636 504 678.5t83.5 42.5Zm.5-48q-26 0-45-21t-19-75.857Q524 525 541 501.5t46.5-23.5q29.5 0 47.5 23.5t18 74.643Q653 631 633 652t-45 21Zm-107.862 328Q392 1001 314.5 968T179 877q-58-58-91-135.362t-33-165.5Q55 487 88 409.5t90.843-135.053q57.843-57.552 135.278-91Q391.557 150 479.779 150q89.221 0 166.839 33.37 77.619 33.37 135.096 90.79 57.478 57.42 90.882 134.96T906 576q0 88.276-33.447 165.76-33.448 77.483-91 135.362Q724 935 646.638 968t-166.5 33Z"/></svg>