<svg xmlns="http://www.w3.org/2000/svg" width="48" height="48" viewBox="0 0 48 48"><path d="M23.9 45.25q-4.4 0-8.275-1.65T8.85 39.05q-2.9-2.9-4.575-6.775Q2.6 28.4 2.6 24t1.675-8.275Q5.95 11.85 8.85 8.95q2.9-2.9 6.775-4.575Q19.5 2.7 23.9 2.7t8.25 1.65Q36 6 38.9 8.85t4.575 6.7q1.675 3.85 1.675 8.2-1.55-1.35-3.475-1.95-1.925-.6-3.975-.6-.9 0-1.775.125-.875.125-1.675.375-.5-2.15-1.85-3.575-1.35-1.425-3.5-1.425-2.8 0-4.2 2.15Q23.3 21 23.3 24q0 2.1.65 3.825T26 30.45q-.15.7-.225 1.4-.075.7-.075 1.4 0 3.35 1.6 6.2t4.6 4.2q-1.9.9-3.9 1.25t-4.1.35Zm3-17.25q-.5-.55-.85-1.475T25.7 24q0-2.55.85-3.725.85-1.175 2.35-1.175 1.2 0 2.025.825T32 22.65q-1.7.9-2.975 2.275Q27.75 26.3 26.9 28Zm10.85 12.55q-3.05 0-5.175-2.15t-2.125-5.2q0-3 2.125-5.125t5.175-2.125q3.05 0 5.2 2.125Q45.1 30.2 45.1 33.2q0 3.05-2.15 5.2-2.15 2.15-5.2 2.15Zm-21.65-9.2 6.7-12.05v-2.15H13v2.4h6.75l.1.15-5.95 10.45Z"/></svg>