<svg xmlns="http://www.w3.org/2000/svg" width="48" height="48" viewBox="0 -960 960 960"><path d="M764-238.839V-340.04q0-10.96-7.714-18.46-7.715-7.5-19-7.5Q726-366 718-358.2q-8 7.8-8 19.17V-242q0 10.373 4 18.982T725-208l74 67q6 7 16 6.5t16.5-7.643q7.5-8.143 7.5-18t-8-16.895l-67-61.801ZM495-603v-175q0-19.625 13.625-33.812Q522.25-826 542-826h106q12.938 0 24.112 6.929Q683.286-812.143 689-802l87 157h-75l-34-62q-5.611-12-17.027-18.5T626-732h-49q-6 0-10.5 4.5T562-717q0 6 4.5 10.5T577-702h58.727L670-641q5.611 12 16.543 19 10.932 7 24.457 7h81l29 50q12 24-5.472 47T769-501q-6.68-1-13.5-2t-14.5-1q-57.763 0-107.881 23.5Q583-457 547-416q-16 14-34 7t-18-25v-139h91.235q5.765 0 10.265-4.5Q601-582 601-588t-4.5-10.5q-4.5-4.5-10.265-4.5H495Zm-77 468H313q-12.938 0-24.112-6.429Q277.714-147.857 272-159l-88-156h75l34 62q5.611 12 17.027 18.5T334-228h49q6 0 10.5-4.5T398-243q0-6-4.5-10.5T383-258h-57.727L291-320q-5.611-12-16.72-18.5Q263.17-345 250-345h-82.132L105-457q-3.6-5.75-5.3-11.452-1.7-5.703-1.7-11.405 0-5.429 7-24.143l62.868-111H250q13.17 0 24.28-6.5Q285.389-628 291-640l34.273-62H383q6 0 10.5-4.5T398-717q0-6-4.5-10.5T383-732h-49q-12.557 0-23.973 6.5Q298.611-719 293-707l-34 62h-75l88-157q5.714-10.143 16.888-17.071Q300.062-826 313-826h105q19.75 0 33.375 14.188Q465-797.625 465-778v175h-91.235q-5.765 0-10.265 4.5Q359-594 359-588t4.5 10.5q4.5 4.5 10.265 4.5H465v147H358l-29-59q-7-12-17.806-19.5Q300.387-512 287-512h-70q-7 0-11 4.5t-4 10.5q0 6 4 10.5t11 4.5h78l31 60q6 12 17.629 19 11.629 7 25.371 7h96v150q3 5 4.5 7.25T471-233q0 9 1 18.5t2 18.5q2 26-15 43.5T418-135Zm323 91q-77 0-133.5-55.4Q551-154.798 551-233.398 551-312 607.5-368T741-424q78 0 134 55.867Q931-312.265 931-233q0 78.435-56 133.718Q819-44 741-44Z"/></svg>