<svg xmlns="http://www.w3.org/2000/svg" width="48" height="48" viewBox="0 0 48 48"><path d="M33.65 16.35H30q-1 0-1.675-.675T27.65 14q0-1 .675-1.675T30 11.65h3.65V8q0-1 .675-1.675T36 5.65q1 0 1.675.675T38.35 8v3.65H42q1 0 1.675.675T44.35 14q0 1-.675 1.675T42 16.35h-3.65V20q0 1-.675 1.675T36 22.35q-1 0-1.675-.675T33.65 20ZM22 38.85q2.5 0 4.9-1.125 2.4-1.125 4.4-3.075-6.85-.85-11.425-5.75Q15.3 24 15.3 17.3q0-.25.05-.825t.25-1.425q-2.9 1.95-4.675 4.825T9.15 26q0 5.3 3.775 9.075Q16.7 38.85 22 38.85Zm15.15-4.6q-2.4 4.2-6.35 6.75-3.95 2.55-8.8 2.55-7.3 0-12.425-5.125Q4.45 33.3 4.45 26q0-6.15 3.575-10.975Q11.6 10.2 17.4 8.75q.95-.2 1.725.075.775.275 1.325.775.5.5.7 1.225.2.725-.15 1.525-.4 1.2-.675 2.425Q20.05 16 20.05 17.3q0 5.35 3.725 9.1t9.075 3.75q.55 0 1.1-.025T35.1 30q.6-.1 1.2.25t.95.95q.35.6.35 1.4 0 .8-.45 1.65Zm-17.2-5.4Z"/></svg>