<svg xmlns="http://www.w3.org/2000/svg" width="48" height="48"><path d="m42.05 37.15-4.75-4.7v-18.1q0-1.55-1.05-2.6t-2.6-1.05h-18.1L10.9 6.05q.2-.1.525-.2t.625-.15v-.95q.2-1.2 1.1-2 .9-.8 2.2-.8 1.2 0 2.275.775T18.7 5.05v.9h10.6v-.9q0-1.55 1.075-2.325 1.075-.775 2.275-.775 1.45 0 2.425 1 .975 1 .975 2.4V6.4q2.5.5 4.25 2.75t1.75 5.2zm-8.5-8.45-4.35-4.3h3q.5.15.85.5t.5.85zM10.7 46q-1.95 0-3.325-1.375Q6 43.25 6 41.3v-27q0-.7.15-1.675.15-.975.45-1.525L2.7 7.2q-.55-.55-.55-1.3t.55-1.25q.5-.5 1.275-.5.775 0 1.275.5l38.1 38.1q.55.55.5 1.3-.05.75-.55 1.25-.55.55-1.225.55t-1.175-.5l-.45-.4q-.7.55-1.5.8T37.3 46zm0-4.7h26.1L23.3 27.8h-7.25q-.75 0-1.25-.5t-.5-1.3q0-.65.375-1.15.375-.5 1.125-.65h3.9l-9-9v26.1zm16.05-19.4zm-3 6.25z"/></svg>