<svg xmlns="http://www.w3.org/2000/svg" width="48" height="48"><path d="m33.55 28.7 8.5 8.45v-22.8q0-2.95-1.75-5.2T36.05 6.4V5.35q0-1.45-.975-2.425-.975-.975-2.425-.975-1.4 0-2.375.875Q29.3 3.7 29.3 5.05v.9H18.7v-.9q0-1.35-.975-2.225T15.35 1.95q-1.35 0-2.2.8-.85.8-1.1 2v.95q-.3.05-.625.15-.325.1-.525.2L29.2 24.4h3q.5.15.85.475.35.325.5.875zM10.7 46q-1.95 0-3.325-1.375Q6 43.25 6 41.3V14.35q0-.75.15-1.725.15-.975.45-1.525L2.7 7.2q-.55-.55-.55-1.3t.55-1.25q.5-.5 1.275-.5.775 0 1.275.5l38.1 38.1q.55.55.5 1.3-.05.75-.55 1.25-.45.5-1.225.5-.775 0-1.175-.45l-.45-.4q-.7.55-1.5.8T37.3 46zm9.05-21.75H15.8q-.75.1-1.125.575T14.3 26q0 .8.5 1.3t1.25.5h7.25z"/></svg>