<svg xmlns="http://www.w3.org/2000/svg" width="48" height="48" viewBox="0 -960 960 960"><path d="M406-726h152v-113H406v113ZM299-45q-20.37 0-34.767-14.638Q249.836-74.275 249.836-95q-33.586 0-56.711-23.125T170-174v-461q0-37 22-64t52-27l545 563q-4 28.75-26.206 48.375T711-95q0 21-15 35.5T660.5-45q-20.5 0-35-14.638Q611-74.275 611-95H349q0 21-14.638 35.5Q319.725-45 299-45Zm13-437v233q5 5 10.5 6.5t11.519-4.841q6.019-6.341 12-22Q352-285 357-314q9-8.667 8.958-21.833Q365.917-349 357-358v-234l-45 110Zm135 52 12 181q4.333 10 13.167 7Q481-245 491-289q10-5 14-17t1-26l-14-146-45 48Zm134 98 8 83q5.429 10 16.214 10.5Q616-238 626-258.25q9-1.5 15-10.125t2.714-20.898L626-346l-45 14ZM820-51 47-823q-10-10.2-10.5-25.1Q36-863 47.158-874q10.737-11 25.5-11T98-874l773 773q10 11.182 10.5 25.09Q882-62 870.842-51q-10.737 11-25.5 11T820-51Zm-30-217L648-410v-151q0-12.833-10.083-22.917Q627.833-594 615-594q-14 0-24 10.083-10 10.084-10 22.917v83L305-753h34v-96q0-23.75 16.625-40.375T396-906h172q23.75 0 40.375 16.625T625-849v123h86q32.75 0 55.875 23.125T790-647v379Z"/></svg>