<svg xmlns="http://www.w3.org/2000/svg" width="48" height="48" viewBox="0 -960 960 960"><path d="m820-50-64-65h50v4q0 18-11.804 30-11.803 12-29.687 12t-29.697-12Q723-93 723-111v-36L47-823q-10-10.133-10-25.067Q37-863 48.105-874q10.684-11 25.5-11T99-874l772 773q10 11.182 10.5 25.09Q882-62 871-51q-10.579 11-25.5 11.5T820-50Zm-14-216-81-82v-54h-54l-63-62v-241q0-85.34 55-135.67Q718-891 806-891v625ZM505-570l-84-80v-200q0-17.675 12.991-29.338Q446.982-891 463.491-891 481-891 493-879.338q12 11.663 12 29.338v280ZM356-715l-82-84v-62q5-16 17-23t24-7q17.675 0 29.337 11.662Q356-867.675 356-850v135ZM209-864l-29-27q11.644 0 20.322 8Q209-875 209-864Zm65 754v-325q-57-10-102.5-59.06T126-611.199V-846l83 83v152h65v-87l72 72v15h14l107 106q-22 28-50.5 46.5T356-434.88V-110q0 17.675-11.602 29.338Q332.796-69 315.211-69q-17.586 0-29.399-11.662Q274-92.325 274-110Z"/></svg>