<svg xmlns="http://www.w3.org/2000/svg" width="48" height="48"><path d="m41 45.5-2.25-2.25H7.45q-1.95 0-3.325-1.375Q2.75 40.5 2.75 38.55V13.8q0-1.3.725-2.375T5.35 9.8l-3-2.95q-.5-.5-.5-1.275 0-.775.5-1.275.5-.5 1.25-.5t1.3.5l38.65 38.65q.5.55.5 1.3t-.5 1.25q-.5.5-1.275.5-.775 0-1.275-.5zM7.45 38.55h26.6l-5.3-5.3q-1 .7-2.2 1.075-1.2.375-2.55.375-3.65 0-6.075-2.45Q15.5 29.8 15.5 26.2q0-1.35.375-2.55.375-1.2 1.075-2.2L9.3 13.8H7.45v24.75zm37.85 1-4.75-4.6V13.8H19.4l-5.05-5.05 2.45-3q.65-.8 1.6-1.2.95-.4 2-.4h7.25q1 0 1.95.4t1.6 1.2l2.75 3.3h6.6q1.9 0 3.325 1.425Q45.3 11.9 45.3 13.8zm-13-12.85-8.8-8.8q.25-.05.55-.1.3-.05.55-.05 3.25.2 5.45 2.375t2.4 5.475q0 .3-.05.55-.05.25-.1.55zm-9.45.65zm6.25-3.85z"/></svg>