<svg xmlns="http://www.w3.org/2000/svg" width="48" height="48" viewBox="0 96 960 960"><path d="m826 814-95-94V245H431l-88 87-68-68 93-93q9.767-9.778 23.301-15.389Q404.835 150 418 150h313q40.213 0 67.606 27.769Q826 205.537 826 245v569Zm25 211L256 430l-27 25v452h502V806l95 94.148V911q0 37.875-27.769 63.938Q770.463 1001 731 1001H229q-39.05 0-66.525-27.475Q135 946.05 135 907V441q0-14.153 5-27.96T155 390l31-29L46 221q-10-9-10-23t11-25q11-11 25.5-11T98 173l805 804q9 9.867 9.042 23.55.041 13.68-11.042 25.09-9.667 10.36-24.333 10.36Q862 1036 851 1025ZM541 530Zm-43 142Z"/></svg>