<svg xmlns="http://www.w3.org/2000/svg" width="48" height="48" viewBox="0 96 960 960"><path d="M480.404 1001q-88.872 0-166.125-33.084-77.254-33.083-135.183-91.012-57.929-57.929-91.012-135.119Q55 664.594 55 575.638q0-88.957 33.084-166.285 33.083-77.328 90.855-134.809 57.772-57.482 135.036-91.013Q391.238 150 480.279 150q89.04 0 166.486 33.454 77.446 33.453 134.853 90.802 57.407 57.349 90.895 134.877Q906 486.66 906 575.734q0 89.01-33.531 166.247-33.531 77.237-91.013 134.86-57.481 57.623-134.831 90.891Q569.276 1001 480.404 1001Zm.096-94q137.5 0 234-96.372T811 575.5q0-137.5-96.312-234Q618.375 245 479.5 245q-137.5 0-234 96.312Q149 437.625 149 576.5q0 137.5 96.372 234T480.5 907Zm38.308-91q-40.808 0-71.065-24.221Q417.486 767.558 404 730q-3-10-7-17.5t-9-11.5l-50-51q-27-28-42.5-60.327t-15.5-71.12Q280 443 332 389.5T459.767 336Q513 336 556.5 364q43.5 28 65.5 73 10 21-1.017 40t-34.774 19q-12.265 0-22.028-6.271-9.764-6.271-14.593-17.729-11.588-24-35.386-40-23.798-16-53.702-16-41.5 0-71 28.876T360 515.917q0 21.083 7.5 40.583T390 590l55 54q16.135 16.015 24.322 34.081Q477.508 696.147 482 709q4.469 12 15.043 19.5 10.574 7.5 23.745 7.5 11.145 0 20.116-6T555 714q3.561-9.053 13.522-13.526 9.96-4.474 20.47-4.474 21.974 0 33.991 18.862T624 753q-13.466 27.903-41.911 45.452Q553.644 816 518.808 816Zm25.29-170Q565 646 579.5 631t14.5-35.098Q594 575 579.5 560.5T544.098 546Q523 546 508.5 560.5T494 595.902Q494 616 508.5 631t35.598 15Z"/></svg>