<svg xmlns="http://www.w3.org/2000/svg" width="48" height="48" viewBox="0 96 960 960"><path d="m603 512-59-61-247 248q-5 4-7.5 10.438Q287 715.875 287 723v27q0 7.6 5.7 12.8 5.7 5.2 12.3 5.2h27q6.529 0 12.765-2Q351 764 356 759l247-247Zm18-18 39-39q7-7 7.5-15.5T660 423l-29-28q-7-8-15.5-7.5T600 395l-38 38 59 61ZM189 964q-38.975 0-66.488-28.013Q95 907.975 95 869V287q0-38.975 27.512-66.487Q150.025 193 189 193h180q11-36 41-58t70-22q40 0 70 22t41 58h180q38.975 0 66.987 27.513Q866 248.025 866 287v582q0 38.975-28.013 66.987Q809.975 964 771 964H189Zm291-697q17.467 0 29.233-11.767Q521 243.467 521 226q0-16.467-11.767-28.733Q497.467 185 480 185t-29.233 12.267Q439 209.533 439 226q0 17.467 11.767 29.233Q462.533 267 480 267Z"/></svg>