<svg xmlns="http://www.w3.org/2000/svg" width="48" height="48"><path d="M24 36.7q.65 0 1.075-.425.425-.425.425-1.075v-4.95h5q.65 0 1.075-.425Q32 29.4 32 28.75q0-.65-.425-1.075-.425-.425-1.075-.425h-5v-5q0-.65-.425-1.075-.425-.425-1.075-.425-.65 0-1.075.425-.425.425-.425 1.075v5h-5q-.65 0-1.075.425Q16 28.1 16 28.75q0 .65.425 1.075.425.425 1.075.425h5v4.95q0 .65.425 1.075.425.425 1.075.425zm-12.55 8.55q-1.95 0-3.325-1.375Q6.75 42.5 6.75 40.55V7.45q0-1.95 1.375-3.35Q9.5 2.7 11.45 2.7H27.6q.95 0 1.825.375T31 4.15L39.85 13q.7.7 1.075 1.575T41.3 16.4v24.15q0 1.95-1.4 3.325-1.4 1.375-3.35 1.375zM27.1 7.45H11.45v33.1h25.1v-23.8h-7.1q-1 0-1.675-.675T27.1 14.4zm-15.65 0v9.3-9.3 33.1-33.1z"/></svg>