<svg xmlns="http://www.w3.org/2000/svg" width="48" height="48" viewBox="0 -960 960 960"><path d="M182-175q-20 0-33.5-13.5T135-222q0-20 13.5-33.5T182-269h24v-279q0-92.69 53-168.35Q312-792 403-812v-16q0-32.92 22.5-55.46T480-906q32 0 54.5 22.54T557-828v16q91 19 144.5 95T755-548v279h23q19.88 0 33.94 13.5Q826-242 826-222t-14.06 33.5Q797.88-175 778-175H182ZM480.5-46Q444-46 418-71.91T392-135h177q0 37-26 63t-62.5 26ZM548-349q14.17 0 24.58-9.88 10.42-9.88 10.42-25 0-14.12-10.42-24.62Q562.17-419 548-419h-77l104.85-126.69q4.15-4.31 5.65-8.81 1.5-4.5 1.5-9.5v-17.61q0-11.39-8.61-19.89-8.62-8.5-19.78-8.5H413q-14.17 0-24.58 9.88-10.42 9.88-10.42 25 0 14.12 10.42 24.62Q398.83-540 413-540h64l-90 111q-4 5-6.5 10.83-2.5 5.84-2.5 12.17v21.83q0 14.24 10.42 24.7Q398.83-349 413-349h135Z"/></svg>