<svg xmlns="http://www.w3.org/2000/svg" width="48" height="48" viewBox="0 -960 960 960"><path d="M182-175q-19.75 0-33.375-13.675Q135-202.351 135-222.175 135-242 148.625-255.5 162.25-269 182-269h24v-279q0-92.693 53-168.347Q312-792 403-812v-16q0-32.5 22.458-55.25Q447.917-906 480-906t54.542 22.75Q557-860.5 557-828v16q91 19 144.5 95T755-548v279h23q19.625 0 33.812 13.675Q826-241.649 826-221.825 826-202 811.812-188.5 797.625-175 778-175H182Zm298-323Zm.5 452q-36.45 0-62.475-26.144Q392-98.287 392-135h177q0 37-26.231 63-26.232 26-62.269 26ZM300-269h360v-279q0-74-52.5-127T480-728q-75 0-127.5 53T300-548v279Zm180.175-173q12.825 0 22.325-9.337Q512-460.675 512-473v-133.007q0-13.743-9.675-22.868-9.676-9.125-22.5-9.125Q467-638 458-628.875t-9 22.868V-473q0 12.325 9.388 21.663Q467.776-442 480.175-442Zm-.193 113q14.593 0 25.806-10.695Q517-350.39 517-364.982q0-14.593-11.195-25.806Q494.61-402 480.018-402q-14.593 0-25.806 11.195Q443-379.61 443-365.018q0 14.593 11.195 25.306Q465.39-329 479.982-329Z"/></svg>