<svg xmlns="http://www.w3.org/2000/svg" width="48" height="48" viewBox="0 96 960 960"><path d="M480.281 621Q494 621 503 611.8q9-9.2 9-22.8V450q0-12.6-9.281-21.8-9.28-9.2-23-9.2-13.719 0-22.219 9.2-8.5 9.2-8.5 21.8v139q0 13.6 8.993 22.8 8.993 9.2 22.288 9.2Zm-.299 107q14.593 0 25.806-10.982Q517 706.035 517 691.518 517 677 505.805 666t-25.787-11q-14.593 0-25.806 11.079Q443 677.158 443 691.579T454.195 717q11.195 11 25.787 11ZM165.44 878q-21.19 0-34.815-13.675-13.625-13.676-13.625-34Q117 810 130.625 796.5 144.25 783 165 783h45V505q0-92.085 53.5-167.542Q317 262 407 241.583V218q0-30.5 21.223-50.75T479.765 147q30.318 0 51.777 20.25Q553 187.5 553 218v23.583Q644 262 698 337.458 752 412.915 752 505v278h44q19.625 0 33.812 13.675 14.188 13.676 14.188 34Q844 851 829.812 864.5 815.625 878 796 878H165.44Zm315.06 123q-35.45 0-61.975-25.85T392 913h177q0 37-26.231 62.5-26.232 25.5-62.269 25.5Z"/></svg>