<svg xmlns="http://www.w3.org/2000/svg" width="48" height="48" viewBox="0 -960 960 960"><path d="M231-17q-39.05 0-66.525-27.475Q137-71.95 137-111v-597q0-19.75 13.675-33.375Q164.351-755 184.175-755 204-755 217.5-741.375 231-727.75 231-708v597h429q19.75 0 33.375 13.675Q707-83.649 707-63.825 707-44 693.375-30.5 679.75-17 660-17H231Zm144-143q-39.462 0-67.231-27.769Q280-215.538 280-255v-593q0-39.463 27.769-67.231Q335.538-943 375-943h353q39.463 0 67.231 27.769Q823-887.463 823-848v593q0 39.462-27.769 67.231Q767.463-160 728-160H375Zm0-215h353v-353H375v353Zm225-146H481v64q0 7.7-6.116 13.35-6.117 5.65-13.5 5.65-7.384 0-13.884-6.433Q441-450.867 441-459v-66q0-17 10-26.5t27-9.5h122l-33-33q-6-6.065-6-13.818 0-7.753 6-14.182 6-6 14.682-5.5T596-622l63 64q7 6.818 7 16.909T659-524l-63 64q-5.636 6-14.318 6Q573-454 567-460q-6-6.429-6-14.182T567-488l33-33Z"/></svg>