<svg xmlns="http://www.w3.org/2000/svg" width="48" height="48" viewBox="0 -960 960 960"><path d="M189-95q-39.05 0-66.525-27.475Q95-149.95 95-189v-582q0-39.463 27.475-67.231Q149.95-866 189-866h582q39.463 0 67.231 27.769Q866-810.463 866-771v275q0 19.75-14.263 33.375t-34 13.625Q798-449 784.5-462.625 771-476.25 771-496v-275H189v582h275q19.75 0 33.375 13.675Q511-161.649 511-141.825 511-122 497.375-108.5 483.75-95 464-95H189Zm515-94L396-498q-14-14-14-32.8 0-18.8 14-33.2 14-14 33-14t33 14l309 308v-86q0-19.75 13.675-33.375Q798.351-389 818.088-389q19.737 0 33.824 13.625Q866-361.75 866-342v200q0 19.75-14.188 33.375Q837.625-95 818-95H618q-19.75 0-33.375-13.675Q571-122.351 571-142.175 571-162 584.625-175.5 598.25-189 618-189h86Z"/></svg>