<svg xmlns="http://www.w3.org/2000/svg" width="48" height="48" viewBox="0 -960 960 960"><path d="M360.175-479q16.225 0 26.025-10.062Q396-499.125 396-514v-120q0-16.15-9.975-26.075-9.976-9.925-25.7-9.925-15.725 0-26.025 9.925Q324-650.15 324-634v120q0 14.875 10.4 24.938Q344.801-479 360.175-479ZM457-256h46q19.75 0 33.375-13.625T550-303v-23q0-28.875-20.589-49.438Q508.823-396 479.911-396 451-396 430.5-375.438 410-354.875 410-326v23q0 19.75 13.625 33.375T457-256Zm143.175-223q16.225 0 26.025-10.062Q636-499.125 636-514v-120q0-16.15-9.975-26.075-9.976-9.925-25.7-9.925-15.725 0-26.025 9.925Q564-650.15 564-634v120q0 14.875 10.4 24.938Q584.801-479 600.175-479ZM480.404-55q-88.872 0-166.125-33.084-77.254-33.083-135.183-91.012-57.929-57.929-91.012-135.119Q55-391.406 55-480.362q0-88.957 33.084-166.285 33.083-77.328 90.855-134.809 57.772-57.482 135.036-91.013Q391.238-906 480.279-906q89.04 0 166.486 33.454 77.446 33.453 134.853 90.802 57.407 57.349 90.895 134.877Q906-569.34 906-480.266q0 89.01-33.531 166.247-33.531 77.237-91.013 134.86-57.481 57.623-134.831 90.891Q569.276-55 480.404-55Zm.096-94q137.5 0 234-96.372T811-480.5q0-137.5-96.312-234Q618.375-811 479.5-811q-137.5 0-234 96.312Q149-618.375 149-479.5q0 137.5 96.372 234T480.5-149Zm-.5-331Z"/></svg>