<svg xmlns="http://www.w3.org/2000/svg" width="48" height="48" viewBox="0 -960 960 960"><path d="M105-135q-39.75 0-67.37-27.13Q10-189.25 10-229v-582q0-39.75 27.63-67.38Q65.25-906 105-906h231q38.75 0 66.38 27.62Q430-850.75 430-811v151q0 20.75-13.62 34.37Q402.75-612 383-612h-20q-55.17 0-93.58 38.38Q231-535.24 231-480.12t38.42 93.62Q307.83-348 363-348h20q19.75 0 33.38 13.62Q430-320.75 430-301v72q0 39.75-27.62 66.87Q374.75-135 336-135H105Zm141-561q11-11 11-26t-11-26q-11-11-26-11t-26 11q-11 11-11 26t11 26q11 11 26 11t26-11Zm41.5 244.32q-11.5-11.67-11.5-28.5 0-16.82 11.68-28.32 11.67-11.5 28-11.5 16.32 0 27.82 11.68 11.5 11.67 11.5 28.5 0 16.82-11.68 28.32-11.67 11.5-28 11.5-16.32 0-27.82-11.68Zm164 0q-11.5-11.67-11.5-28.5 0-16.82 11.68-28.32 11.67-11.5 28.5-11.5 16.82 0 28.32 11.68 11.5 11.67 11.5 28.5 0 16.82-11.68 28.32-11.67 11.5-28.5 11.5-16.82 0-28.32-11.68ZM625-55q-39.75 0-67.37-27.13Q530-109.25 530-149v-152q0-19.75 13.63-33.38Q557.25-348 577-348h17q55.17 0 93.58-38.38Q726-424.76 726-479.88t-38.42-93.62Q649.17-612 594-612h-17q-19.75 0-33.37-13.63Q530-639.25 530-660v-71q0-39.75 27.63-67.38Q585.25-826 625-826h231q38.75 0 66.38 27.62Q950-770.75 950-731v582q0 39.75-27.62 66.87Q894.75-55 856-55H625Zm-8.5-396.68q-11.5-11.67-11.5-28.5 0-16.82 11.68-28.32 11.67-11.5 28-11.5 16.32 0 27.82 11.68 11.5 11.67 11.5 28.5 0 16.82-11.68 28.32-11.67 11.5-28 11.5-16.32 0-27.82-11.68ZM766-612q11-11 11-26.5T766-665q-11-11-26-11t-26 11q-11 11-11 26.5t11 26.5q11 11 26 11t26-11Z"/></svg>