<svg xmlns="http://www.w3.org/2000/svg" width="48" height="48" viewBox="0 -960 960 960"><path d="M468.972-397Q428-397 399-424.324q-29-27.324-29-69Q370-536 399-564t69.972-28q40.972 0 68 28T564-493.324q0 41.676-27.028 69-27.028 27.324-68 27.324ZM149-135q-39.05 0-66.525-27.475Q55-189.95 55-229v-502q0-39.463 27.475-67.231Q109.95-826 149-826h662q39.463 0 67.231 27.769Q906-770.463 906-731v511q0 31.812-29.5 43.906Q847-164 825-187L610-406q15-22 20.5-42.5t5.5-45.235Q636-565 587.5-614T469-663q-70 0-120.5 49T298-493.5q0 70.5 50.5 119.5T469-325q25.693 0 48.347-7Q540-339 561-356l137 141q23 23 10.906 51.5T665-135H149Z"/></svg>