<svg xmlns="http://www.w3.org/2000/svg" width="48" height="48" viewBox="0 96 960 960"><path d="M480.138 1001Q392 1001 314.5 968T179 877q-58-58-91-135.362t-33-165.5Q55 487 88 409.5t90.843-135.053q57.843-57.552 135.278-91Q391.557 150 479.779 150q89.221 0 166.839 33.37 77.619 33.37 135.096 90.79 57.478 57.42 90.882 134.96T906 576q0 88.276-33.447 165.76-33.448 77.483-91 135.362Q724 935 646.638 968t-166.5 33ZM479 863q13.2 0 23.1-8 9.9-8 9.9-24v-16q59-6 94-39.5t35-90.465q0-54.263-29.5-87.149T509.545 542Q448 521 426 501t-22-51.585q0-26.586 20-41.5Q444 393 478 393q24 0 42.5 8.5t33 27.5q9.5 11 22 12.5T599 436q13-8 15.5-20.5T609 391q-18-24-40.5-36.971Q546 341.059 514 336v-15q0-17-10.4-24t-22.6-7q-12.2 0-23.1 7-10.9 7-10.9 24v15q-54 9-82 40.571-28 31.572-28 76.039Q337 505 365.5 536T472 596q61 23 81.5 41t20.5 48q0 30.031-23.5 51.016Q527 757 487 757q-31.634 0-57.646-14.5Q403.341 728 389 701q-7-11-17.5-16.5T349 683q-16 6-20 19.5t5 26.5q21 35 49 55.5t62 28.5v18q0 14 10.4 23t23.6 9Z"/></svg>