<svg xmlns="http://www.w3.org/2000/svg" width="48" height="48" viewBox="0 96 960 960"><path d="M505 629Zm19 402H400l9-14.5q9-14.5 19.5-31.5t19.5-31.5l9-14.5h41q95 4 176.5-45.5T805 769q-84-12-162-46t-137.5-94q-60.5-59-94-136T365 333q-68 46-114.5 113T200 595v11.5q0 5.833 1 10.5l-14.539 4.721q-14.539 4.72-32.588 9.779-18.05 5.059-32.625 9.779L106.673 646l-1.173-19.2q-.5-8.2-.5-14.59Q105 457 204.5 340 304 223 458 196q-12 101 14.5 198.135Q499 491.27 572 563.371q71 72.101 168.5 98.143Q838 687.555 939 680.529q-26 153.206-143 251.838Q679 1031 524 1031Zm-284-95h180q26.25 0 44.625-17.556Q483 900.887 483 874.235q0-26.652-17.914-44.943Q447.172 811 421 811h-49.833L352 765q-13.784-32.667-43.579-52.833Q278.625 692 244 691q-53.083 0-90.042 36.624Q117 764.247 117 813.647q0 51.686 35.875 87.02Q188.75 936 240 936Zm0 95q-89.545 0-153.272-63.574Q23 903.852 23 813.654q0-90.199 63.728-153.927Q150.454 596 240 596q62.245 0 114.623 33Q407 662 434 717q60 6 101.5 50.62Q577 812.239 577 874q0 64.529-46.236 110.764Q484.529 1031 420 1031H240Z"/></svg>