<svg xmlns="http://www.w3.org/2000/svg" width="48" height="48" viewBox="0 -960 960 960"><path d="m741-153-63-63q-14-14.067-14-34.033Q664-270 678-284t33.467-14q19.466 0 33.533 14l63 63q14 14.067 14 34.033Q822-167 807.947-153q-14.052 14-34 14Q754-139 741-153Zm-501-9q-65.75 0-111.875-46.177T82-320.177Q82-385 128.625-431T240-477q43.857 0 81.143 23.407T376-390l13.235 30H419q41 0 69.5 29.5T517-260q0 41-29 69.5T419-162H240Zm333-108q-5-60-46.5-102.5T426-418q-20-54-67.5-87T254-536q15-79 79.5-128.5T480-714q98 0 166 68t68 166q0 70-38.5 127T573-270Zm233-163q-19.75 0-33.375-13.675Q759-460.351 759-480.175 759-500 772.625-513.5 786.25-527 806-527h90q19.75 0 33.375 13.675Q943-499.649 943-479.825 943-460 929.375-446.5 915.75-433 896-433h-90ZM217-677l-64-64q-14-14-14-33t14-33q13.8-14 33.4-14 19.6 0 32.6 14l64 64q14 13.8 14 32.9 0 19.1-14 33.1t-33 14q-19 0-33-14Zm460 0q-14-14-14-33.467 0-19.466 14-33.533l63-63q13.067-14 33.033-14Q793-821 807-807t14 33q0 19-14 33l-64 64q-14 14-33 14t-33-14Zm-197.175-82Q460-759 446.5-772.625 433-786.25 433-806v-90q0-19.75 13.675-33.375Q460.351-943 480.175-943 500-943 513.5-929.375 527-915.75 527-896v90q0 19.75-13.675 33.375Q499.649-759 479.825-759Z"/></svg>