<svg xmlns="http://www.w3.org/2000/svg" width="48" height="48" viewBox="0 96 960 960"><path d="M110 873q-20 0-33.5-14T63 825q0-20 14-33.5t34-13.5h739q20 0 33.5 13.5T897 825q0 20-14 34t-34 14H110ZM85 596q-11-5-14.5-17t2.5-22l23-39H51q-12 0-20-8.5T23 489q0-11 8.5-19.5T52 461h44l-22-39q-6-10-2.5-22T84 383q10-6 21.5-3t17.5 14l22 39 22-39q6-12 17-15t22 4q10 6 13 17t-3 22l-23 39h46q11 0 19 8.5t8 19.5q0 12-8 20.5t-19 8.5h-46l23 39q6 10 3 22t-13 17q-11 6-22.5 2.5T167 584l-22-38-22 38q-6 12-17 15t-21-3Zm334-1q-11-6-14-18t3-22l24-39h-46q-11 0-19.5-8.5T358 487q0-11 8.5-19.5T387 459h45l-23-39q-6-10-2.5-22t12.5-17q11-6 22.5-3t16.5 14l22 39 22-39q6-12 16.5-14.5T540 381q11 5 14 16.5t-3 22.5l-22 39h45q11 0 19.5 8.5T602 487q0 12-8.5 20.5T574 516h-45l23 39q6 11 2.5 23T541 595q-11 6-23 3t-17-15l-21-37-21 37q-5 11-17.5 14.5T419 595Zm336 0q-11-6-14-18t3-22l24-39h-47q-11 0-19-8.5t-8-20.5q0-11 8-19.5t20-8.5h46l-24-39q-6-10-2.5-22t12.5-17q11-6 22.5-3t17.5 14l21 39 22-39q6-12 16.5-14.5T875 381q11 5 14 16.5t-2 22.5l-23 39h45q12 0 20 8.5t8 19.5q0 12-8 20.5t-20 8.5h-45l23 39q6 11 2.5 23T876 595q-11 6-22.5 3T836 583l-21-37-20 37q-6 11-18 14.5t-22-2.5Z"/></svg>