<svg xmlns="http://www.w3.org/2000/svg" width="48" height="48" viewBox="0 96 960 960"><path d="M394.018 742Q410 742 420 732.2t10-26.2V445q0-14.615-10.225-24.808Q409.55 410 394 410q-15.975 0-25.487 9.8Q359 429.6 359 446v261q0 14.615 9.943 24.808Q378.885 742 394.018 742ZM566 742q15.975 0 25.487-9.8Q601 722.4 601 706V445q0-14.615-9.943-24.808Q581.115 410 565.982 410 550 410 540 419.8T530 446v261q0 14.615 10.225 24.808Q550.45 742 566 742Zm-85.862 259q-88.138 0-165.513-33.366-77.376-33.366-135.112-91.066-57.737-57.699-91.125-135.024T55 576.11Q55 488 88.584 410.513q33.583-77.488 91.012-134.917t134.823-91.512Q391.812 150 480 150q88.188 0 165.581 34.084 77.394 34.083 134.823 91.512t91.512 134.823Q906 487.812 906 576q0 88.188-34.084 165.581-34.083 77.394-91.512 134.823t-134.779 91.012Q568.276 1001 480.138 1001Z"/></svg>