<svg xmlns="http://www.w3.org/2000/svg" width="48" height="48" viewBox="0 96 960 960"><path d="M396.193 741Q412 741 422 731.075q10-9.925 10-26.075V447q0-16.15-9.975-26.075-9.976-9.925-26.2-9.925-15.8 0-25.312 9.925Q361 430.85 361 447v258q0 16.15 9.693 26.075t25.5 9.925Zm167.982 0q15.8 0 25.312-9.925Q599 721.15 599 705V447q0-16.15-9.693-26.075t-25.5-9.925Q548 411 538 420.925 528 430.85 528 447v258q0 16.15 9.975 26.075 9.976 9.925 26.2 9.925ZM149 921q-39.05 0-66.525-27.475Q55 866.05 55 827V325q0-39.463 27.475-67.231Q109.95 230 149 230h662q40.213 0 67.606 27.769Q906 285.537 906 325v502q0 39.05-27.394 66.525Q851.213 921 811 921H149Z"/></svg>