<svg xmlns="http://www.w3.org/2000/svg" width="48" height="48" viewBox="0 -960 960 960"><path d="m762-71-56-55v5H114q-39.75 0-67.375-27.625T19-215v-28q0-42.302 22.195-76.099Q63.391-352.896 101-371q75-34 134.979-48 59.98-14 123.021-14 14 0 24 1t21 3l-69-69h-4q-57-8-92.5-44.5T194-636v-4L62-773q-11-10-11.5-24.5T60.842-823q10.842-10 25-10T111-822l700 700q11 11 10.5 25.5T810.263-71q-10.737 10-24.5 10T762-71Zm-18-485h-88q-16.15 0-26.075-10.475-9.925-10.476-9.925-25.7 0-16.225 9.925-26.025Q639.85-628 656-628h88v-88q0-15.15 9.975-25.575Q763.951-752 780.175-752q15.225 0 25.525 9.925Q816-732.15 816-716v88h88q15.15 0 25.575 9.975Q940-608.049 940-591.825q0 15.225-10.425 25.525Q919.15-556 904-556h-88v88q0 15.15-10.475 25.575Q795.049-432 779.825-432q-16.225 0-26.025-10.425Q744-452.85 744-468v-88Zm-258 24L228-790q23-25 60.104-39.5T365-844q77 0 126 49t49 126q0 40-14.5 77.5T486-532Z"/></svg>