<svg xmlns="http://www.w3.org/2000/svg" width="48" height="48" viewBox="0 -960 960 960"><path d="m762-71-56-55v5H114q-40.21 0-67.61-27.63Q19-176.25 19-215v-28q0-42 22-76t60-52q75-34 135-48t123-14q14.05 0 24.03 1 9.97 1 20.97 3l-69-69h-4q-57-8-92.5-44.5T194-636v-4L62-773q-11-10.3-11.5-24.85-.5-14.54 10.34-24.85 10.84-10.3 25-10.3t25.21 11.05l699.9 699.9Q822-111 821.5-96.5t-11.34 25Q799.32-61 785.76-61 772.2-61 762-71Zm-18-485h-88q-15.75 0-25.87-10.77-10.13-10.77-10.13-26T630.13-618q10.12-10 25.87-10h88v-88q0-14.9 10.18-25.45Q764.35-752 779.58-752q15.23 0 25.82 10.12Q816-731.75 816-716v88h88q14.9 0 25.45 10.18Q940-607.65 940-592.42q0 15.23-10.55 25.82Q918.9-556 904-556h-88v88q0 14.9-10.77 25.45-10.77 10.55-26 10.55T754-442.55Q744-453.1 744-468v-88Zm-258 24L228-790q23-25 60.09-39.5Q325.19-844 365-844q77.29 0 126.14 49Q540-746 540-669q0 40-14.5 77.5T486-532Z"/></svg>