<svg xmlns="http://www.w3.org/2000/svg" width="48" height="48" viewBox="0 -960 960 960"><path d="M766.5-526.5Q753-540 753-560t13.5-33.5Q780-607 800-607t33.5 13.5Q847-580 847-560t-13.5 33.5Q820-513 800-513t-33.5-13.5Zm0-154Q753-694 753-715v-120q0-20 13.5-33.5T800-882q20 0 33.5 13.5T847-835v120q0 21-13.5 34.5T800-667q-20 0-33.5-13.5ZM235.8-542.8q-48.8-48.79-48.8-126 0-77.2 48.8-126.2 48.79-49 126-49 77.2 0 126.7 49T538-668.8q0 77.21-49.5 126Q439-494 361.8-494q-77.21 0-126-48.8ZM17-216v-27q0-42.3 21.7-76.1Q60.39-352.9 99-371q77-34 137.96-48 60.96-14 124.54-14 65.5 0 126.5 14t137 48q38.61 17.96 60.8 51.29Q708-286.38 708-243v27q0 39-27.27 66.5T613-122H111q-39 0-66.5-27.5T17-216Zm94 0h502v-23q0-15.39-9.07-29.39-9.08-14-24.2-20.72Q514-319 467-328.5T361.5-338q-56.5 0-104.5 9.5t-113.57 39.34q-15.43 6.72-23.93 20.74Q111-254.41 111-239v23Zm309.5-395q22.5-23.01 22.5-58.5 0-35.5-22.46-58-22.47-22.5-57.96-22.5-35.5 0-58.54 22.54T281-669.42q0 35.49 23 58.46Q327.01-588 362.5-588q35.5 0 58-23ZM362-669Zm0 453Z"/></svg>