<svg xmlns="http://www.w3.org/2000/svg" width="48" height="48" viewBox="0 96 960 960"><path d="m816 1001-67-67H182q-20 0-33.5-13.5T135 887v-74q0-44.302 22.828-77.516Q180.656 702.27 217 685q59.242-26 113.992-41 54.75-15 111.008-18L54 240q-10-10.455-10-25.227Q44 200 54.684 190t25.5-10Q95 180 105 190l762 761q10 10.909 10 25.455Q877 991 866.416 1001q-10.583 11-25.26 11-14.678 0-25.156-11ZM229 840h425L535 720q-13-1-27-1.5t-28-.5q-56 0-108.5 10.5t-110.071 38.344Q247 773.559 238 787.575q-9 14.016-9 29.425v23Zm513-155q35 15 57 44.5t25 70.5v8L674 658q17 5 34.144 12.391Q725.288 677.783 742 685ZM561 545l-77-77q32-2 54.5-25t22.5-56q0-33.638-23.356-57.319Q514.287 306 480 306q-33 0-56 22t-25 55l-77-78q20.763-44.639 64.211-68.819Q429.658 212 479.935 212 553 212 604.5 262.5T656 386.946q0 49.8-24.5 92.927Q607 523 561 545Zm93 295H229h425ZM442 425Z"/></svg>