<svg xmlns="http://www.w3.org/2000/svg" width="48" height="48" viewBox="0 -960 960 960"><path d="M493-97q-101.584 0-175.792-63.5T230-320q-77-17-130.5-73T46-527q0-88.646 65.397-148.823Q176.795-736 268-736h106q12 0 20.5-9.3T403-768q0-13.4-8.5-22.7Q386-800 374-800h-65q-19.975 0-33.487-12.623-13.513-12.623-13.513-32Q262-864 275.525-876.5T308-889h63q50.28 0 85.14 35.352t34.86 85.5Q491-718 455.91-682.5 420.82-647 370-647H264q-54.167 0-92.083 35.534Q134-575.931 134-523.708 134-482 163.5-451.5T234-410q17-92 88.298-152.5T486-623q21.017 0 41.508 3.227Q548-616.545 565.68-612q8.32-2 16.788-4.286 8.467-2.285 17.5-4Q609-622 618.5-622.5t19.61-.5Q717-623 776-566.873 835-510.746 835-429q0 2-.5 9t-.5 15.205L861-378q24.978 25.02 38.989 54.714Q914-293.591 914-259.827q0 67.28-46.446 115.054Q821.109-97 752-97H493Zm0-89h257q29.966 0 52.983-22.569Q826-231.139 826-259.806q0-15.28-6.474-28.637Q813.053-301.8 800-314l-63-61q4-13 6.5-25.3t2.5-25.45Q746-470 714.99-502t-76.49-32q-41.5 0-70.5 30.35T539-430q0 13.222 1.5 22.611Q542-398 546-387q3 14-3.5 27T523-342q-21 10-41 0t-24-33q-5.087-12.484-6.543-25.055Q450-412.626 450-426q0-28.973 9-56.486Q468-510 486-532q-8-1-13-1h-11q-59 5-103 58.224t-44 117.917q0 34.935 14.5 65.897Q344-260 367.951-236.654q23.951 23.345 56.5 37Q457-186 493-186Zm180.509-60Q657-246 645-258.991t-12-30Q633-306 644.812-318q11.813-12 29.197-12 17.009 0 29.5 12.075T716-288q0 16.3-12.616 29.15Q690.768-246 673.509-246ZM570-404Z"/></svg>