<svg xmlns="http://www.w3.org/2000/svg" width="48" height="48" viewBox="0 -960 960 960"><path d="M827-518q-13 0-23-9t-13-24q-14-100-86-172t-172-87q-15-2-24-12.5t-9-25.5q0-15 10.5-25t25.5-8q128 16 219 107.5T863-554q2 15-8.5 25.5T827-518Zm-184 0q-11 0-21.5-8T606-547q-9-27-29.5-47.5T529-624q-13-6-21-15.5t-8-21.5q0-18 12-28.5t29-5.5q49 14 85.5 50t51.5 86q4 16-6.5 28.5T643-518ZM791-97q-126 0-251.5-62t-225-161.5q-99.5-99.5-161-225T92-797q0-29 19.5-49t49.5-20h138q31 0 51.5 16t27.5 47l25 110q5 27-.5 46.5T381-613l-105 95q50 79 108.5 136.5T514-284l101-101q18-18 38.5-24.5t45.5-.5l98 24q31 8 47.5 28t16.5 51v140q0 30-20.5 50T791-97Z"/></svg>