<svg xmlns="http://www.w3.org/2000/svg" width="48" height="48" viewBox="0 96 960 960"><path d="M832 763q-10-9-9.5-22t8.5-24q23-30 36.5-66.349Q881 614.301 881 575q0-39.301-13.5-75.651Q854 463 829 434q-11-11-11-24.006t10-22.725Q837 378 849.5 378t21.814 9.146q33.337 39.396 51.512 87.87Q941 523.49 941 575q0 52.51-17.929 100.984-17.928 48.474-51.757 87.139Q863 772 851.5 772t-19.5-9Zm-87.667-87.667q-7.333-7.666-7.833-18.708Q736 645.583 742 635q9-13 13.5-28.674T760 574q0-16.652-4.5-32.826T742 511q-6-9.583-6-20.125T744 472q9-9 23-9t21 10q15 22.233 23.5 47.479Q820 545.726 820 573t-8.5 53.021Q803 651.767 788 674q-6 10-20.5 10t-23.167-8.667ZM271 1039q-39.025 0-66.513-27.49Q177 984.025 177 945V207q0-39.025 27.487-66.512Q231.975 113 271 113h418q39.025 0 66.512 27.488Q783 167.975 783 207v135h-94v-45H271v558h418v-45h94v135q0 39.025-27.488 66.51Q728.025 1039 689 1039H271Z"/></svg>