<svg xmlns="http://www.w3.org/2000/svg" width="48" height="48" viewBox="0 96 960 960"><path d="m333 316-94-95h553q20 0 34 14t14 34q0 20-14 33.5T792 316H333Zm552 553-71-72V436H562v109l-72-72v-64q0-18.975 12.8-31.487Q515.6 365 535 365h295q21.4 0 38.2 11.513Q885 388.025 885 408v461Zm-141 61H535q-20.4 0-32.7-14.3Q490 901.4 490 880V678L242 430v376h137q25.583 0 44.292 18.208Q442 842.417 442 868q0 25.583-18.708 43.792Q404.583 930 379 930H119q-26.583 0-44.792-18.208Q56 893.583 56 868q0-25.583 18.208-43.792Q92.417 806 119 806h29V335l-64-62q-4.09-4.167.454-17.528Q89 242.111 93.5 230.056 98 218 97.454 213.1 96.91 208.2 84 221q11-10 25-10t25 10l747 746q3 4.2-1.5 17.1-4.5 12.9-9 24.9-4.5 12-4 16.57T881 1016q-11 11-26.433 11-15.434 0-25.567-11l-85-86Z"/></svg>