<svg xmlns="http://www.w3.org/2000/svg" width="48" height="48" viewBox="0 -960 960 960"><path d="m134-114-93-93q-16-16-16-42t16-42q87-93 195.5-141T480-480q135 0 244.5 47T920-291q15 16 15 42t-15 42l-94 93q-11 12-35 12.5T751-113l-104-77q-10-6.5-14.5-16.5T628-228v-146.19Q590-388 553.705-393q-36.295-5-73.705-5t-73.705 5Q370-388 332-374.19V-228q0 11.5-4.5 21.5T314-190l-105.188 77.278Q193-101 169.812-100.923 146.625-100.846 134-114Zm110-233q-35 17-67 41.5T117-255l55 57 72-52v-97Zm467-5v96l77 57 55-57q-28-30-61.5-52.5T711-352Zm-467 5Zm467-5ZM254.333-618Q237-618 225-630.125T213-660v-158q0-19.625 13.625-33.812Q240.25-866 260-866h160q17.425 0 29.212 12.125Q461-841.749 461-823.825q0 17.5-11.788 29.163Q437.425-783 420-783h-69l134 132 182-182q11.933-11 29.467-12Q714-846 726-834.447q11 12.552 11 30Q737-787 725-775L551-601q-28.967 29-67.516 29-38.55 0-65.484-29L296-724v65q0 18.125-11.979 29.562Q272.042-618 254.333-618Z"/></svg>