<svg xmlns="http://www.w3.org/2000/svg" width="48" height="48" viewBox="0 -960 960 960"><path d="M229-55q-39.05 0-66.525-27.475Q135-109.95 135-149v-662q0-39.463 27.475-67.231Q189.95-906 229-906h502q39.463 0 67.231 27.769Q826-850.463 826-811v662q0 39.05-27.769 66.525Q770.463-55 731-55H229Zm219-217-52-63q-8.333-9-18.667-9Q367-344 359-335l-46 60q-10 12.387-3.5 25.194Q316-237 331-237h303q14.435 0 20.717-13Q661-263 653-274l-82-109q-8.077-9-19.038-9Q541-392 533-383l-85 111Zm40-539v226q0 13 11.733 20 11.734 7 23.267 0l38-22q10.71-6 23.855-6T609-587l38 22q11.226 7 23.113 0Q682-572 682-585v-226H488Z"/></svg>