<svg xmlns="http://www.w3.org/2000/svg" width="48" height="48" viewBox="0 -960 960 960"><path d="M317-95v-179h95v179h-95Zm0-296v-179h95v179h-95Zm0-297v-178h95v178h-95ZM21-95l123-771h93L115-95H21Zm684-3q-5-3-8-9l-4.12-8.84q-23.71-47.16-64.07-81.97-40.37-34.8-68.92-79.19-17.41-25-25.65-53.83Q526-359.66 526-391q0-77 57.06-130t136.15-53q78.08 0 132.43 56Q906-462 906-383q0 29-8.5 56T874-277q-30 45-71 78.5t-62.15 82.34L737-107q-4 6-9 9t-11.5 3q-6.5 0-11.5-3Zm67.29-230Q796-351 796-384.29t-23.71-57q-23.71-23.71-57-23.71T659-441.29q-23 23.71-23 57T659-328q23 23 56.29 23t57-23ZM539-558l-48-308h94l39 247q-25 9.84-46.5 24.92Q556-579 539-558Z"/></svg>