<svg xmlns="http://www.w3.org/2000/svg" width="48" height="48" viewBox="0 -960 960 960"><path d="M149-134q-39 0-66.5-27.5T55-228v-273q0-19.75 13.625-33.375T102-548h220q39.75 0 67.375-27.625T417-642v-136q0-19.75 13.625-33.375T464-825h347q39 0 67 28t28 67v502q0 39-28 66.5T811-134H149Zm377-427q-19.75 0-33.375 14.125T479-513v154q0 16.75 11.675 28.375Q502.351-319 519.175-319 535-319 546.5-330.625T558-359v-66l113 113q12 12 27.5 12t27.5-12.053q12-12.052 12-28.5Q738-357 726-369L614-481h67q16.75 0 28.375-11.675Q721-504.351 721-521.175 721-538 709.375-549.5T681-561H526Zm-424-47q-19.75 0-33.375-13.625T55-655v-123q0-19.75 13.625-33.875T102-826h208q19.75 0 33.375 14.125T357-778v123q0 19.75-13.625 33.375T310-608H102Z"/></svg>