<svg xmlns="http://www.w3.org/2000/svg" width="48" height="48" viewBox="0 -960 960 960"><path d="M380-640v-246h366q38 0 66 28t28 67v151H380ZM169-120q-39 0-67-28t-28-67v-365h246v460H169ZM74-640v-151q0-39 28-67t67-28h151v246H74Zm410 536-98-97q-7-7-10.5-15.5T372-234q0-9 3.5-17.5T386-267l98-99q10-9 25.5-9.5T536-366q10 11 10 26.5T536-314l-46 44h109q39 0 65-26t26-65v-109l-44 45q-10 10-25 10t-25-11q-11-10-11-25t11-26l97-97q7-7 15.5-11t17.5-4q9 0 17.5 4t15.5 11l99 98q9 10 9.5 25t-9.5 25q-11 11-26 11t-26-11l-44-44v109q0 69-47.5 116T599-198H490l46 45q9 9 9.5 24t-9.5 25q-11 11-26 11t-26-11Z"/></svg>