<svg xmlns="http://www.w3.org/2000/svg" width="48" height="48" viewBox="0 -960 960 960"><path d="M439-294q20 0 40.5-5.5T519-317l90 90q7.822 8 19.911 8Q641-219 649-226.857q8-7.857 8-20T649-267l-91-91q11-17 15.5-36.151Q578-413.302 578-433q0-59-40-99t-99-40q-59 0-99 40t-40 99q0 59 40 99t99 40Zm0-60q-34 0-56.5-22.5T360-433q0-34 22.5-56.5T439-512q34 0 56.5 22.5T518-433q0 34-22.5 56.5T439-354ZM229-55q-39.05 0-66.525-27.475Q135-109.95 135-149v-662q0-39.463 27.475-67.231Q189.95-906 229-906h323q19.556 0 37.278 8Q607-890 620-877l177 177q13 13 21 30.722T826-632v483q0 39.05-27.769 66.525Q770.463-55 731-55H229Zm313-617v-139H229v662h502v-476H589q-19.75 0-33.375-13.625T542-672ZM229-811v186-186 662-662Z"/></svg>