<svg xmlns="http://www.w3.org/2000/svg" width="48" height="48" viewBox="0 -960 960 960"><path d="M189-54q-39 0-66.5-27.5T95-148v-663q0-39 27.5-67t66.5-28h502q39 0 67 28t28 67v335q-10-3-26-5.5t-32-2.5q-105 0-178.5 73T476-232q0 48 18 96.5T549-54H189Zm539 14q-81 0-136.5-55.5T536-232q0-81 55.5-136.5T728-424q81 0 136.5 55.5T920-232q0 81-55.5 136.5T728-40Zm-12-124 73-47q12-7 12-21t-12-21l-73-48q-13-7-25 0t-12 20v97q0 14 12 20.5t25-.5ZM307-565l59-36 59 36q12 7 24.5.5T462-586v-225H270v225q0 15 12.5 21.5t24.5-.5Z"/></svg>