<svg xmlns="http://www.w3.org/2000/svg" width="48" height="48" viewBox="0 0 48 48"><path d="M5.15 22.1q-1.4 0-2.05-1.175-.65-1.175 0-2.375l8.15-14.6q.65-1.25 2.025-1.25t2.075 1.25l8.1 14.6q.65 1.2 0 2.375T21.4 22.1Zm8.25 22.3q-3.9 0-6.6-2.7-2.7-2.7-2.7-6.55 0-3.85 2.7-6.55 2.7-2.7 6.6-2.7 3.85 0 6.525 2.7 2.675 2.7 2.675 6.55 0 3.85-2.675 6.55-2.675 2.7-6.525 2.7Zm15.25 0q-1 0-1.675-.675T26.3 42.05v-13.8q0-1 .675-1.675t1.675-.675h13.8q1 0 1.675.675t.675 1.675v13.8q0 1-.675 1.675t-1.675.675Zm3.6-33.25L28 7q-.7-.7-.7-1.675 0-.975.7-1.675.7-.7 1.65-.675.95.025 1.7.675l4.2 4.2 4.3-4.3q.7-.7 1.65-.7t1.7.7q.7.7.7 1.675 0 .975-.7 1.675l-4.3 4.25 4.3 4.3q.7.7.7 1.675 0 .975-.7 1.675-.75.7-1.7.7t-1.65-.7l-4.3-4.3-4.25 4.3q-.75.7-1.7.7t-1.65-.7q-.7-.7-.7-1.675 0-.975.7-1.675Z"/></svg>