<svg xmlns="http://www.w3.org/2000/svg" width="48" height="48" viewBox="0 96 960 960"><path d="M377 482v188q0 29 24.5 42.5T450 711l147-96q23-13.929 23-38.964Q620 551 597 537l-147-96q-24-15-48.5-1T377 482Zm103.138 519q-88.138 0-165.513-33.366-77.376-33.366-135.112-91.066-57.737-57.699-91.125-135.024T55 576.11Q55 488 88.584 410.513q33.583-77.488 91.012-134.917t134.823-91.512Q391.812 150 480 150q88.188 0 165.581 34.084 77.394 34.083 134.823 91.512t91.512 134.823Q906 487.812 906 576q0 88.188-34.084 165.581-34.083 77.394-91.512 134.823t-134.779 91.012Q568.276 1001 480.138 1001Z"/></svg>