<svg xmlns="http://www.w3.org/2000/svg" width="48" height="48" viewBox="0 -960 960 960"><path d="M480-55q-88 0-165.5-33T179-179q-58-58-91-135.5T55-480q0-74 23-139.5T143-739q13-18 32-19t33 9.5q14 10.5 19 29.5t-10 38q-32 42-50 92.5T149-480q0 138 96.5 234.5T480-149q138 0 234.5-96.5T811-480q0-58-17.5-108.5T744-681q-15-19-10.5-37.5t19-29q14.5-10.5 33-10T818-738q42 54 65 119t23 139q0 88-33.5 165.5t-91 135.5q-57.5 58-135 91T480-55Zm-33.5-381.5Q433-450 433-470v-388q0-20 13.5-34t33.5-14q20 0 33.5 14t13.5 34v388q0 20-13.5 33.5T480-423q-20 0-33.5-13.5Z"/></svg>