<svg xmlns="http://www.w3.org/2000/svg" width="48" height="48" viewBox="0 96 960 960"><path d="M426.327 317Q391 317 366.5 293.08 342 269.159 342 233.54q0-35.62 24.173-60.58 24.172-24.96 59.5-24.96Q461 148 485.5 173.081q24.5 25.08 24.5 60.3Q510 269 485.827 293q-24.172 24-59.5 24Zm21.555 680q-17.034 0-28.958-12.25T407 955V817h-52q-20.75 0-34.375-13.625T307 770V486q0-55.167 31.449-85.083Q369.897 371 424.324 371q54.009 0 84.343 34.917Q539 440.833 539 486q54 6 84.5 43.7T654 624v146q0 19.75-14.188 33.375Q625.625 817 606 817H490v138q0 17.5-12.542 29.75Q464.917 997 447.882 997Z"/></svg>