<svg xmlns="http://www.w3.org/2000/svg" width="48" height="48" viewBox="0 96 960 960"><path d="M482.193 744Q497 744 508 732.362q11-11.637 11-27.362V553l46 49q11 11 26.5 11t27.5-12q11-11 11-26.5t-12.103-27.707L513 442q-7-6-15.545-10-8.546-4-17.455-4-10 0-18.1 3.818-8.1 3.818-14.9 10.182L341 548q-12 11.179-12 26.448 0 15.268 12.935 26.373Q353.217 613 368.609 613 384 613 396 601l47-47v151q0 15.725 11.693 27.362Q466.386 744 482.193 744ZM149 921q-39.05 0-66.525-27.475Q55 866.05 55 827V325q0-39.463 27.475-67.231Q109.95 230 149 230h662q40.463 0 67.731 27.769Q906 285.537 906 325v502q0 39.05-27.269 66.525Q851.463 921 811 921H149Z"/></svg>