<svg xmlns="http://www.w3.org/2000/svg" width="48" height="48" viewBox="0 -960 960 960"><path d="M311-82q-39.8 0-66.9-27.625Q217-137.25 217-176v-99h-68q-39.8 0-66.9-27.394Q55-329.788 55-370v-172q0-54.65 37.208-93.325Q129.417-674 184-674h592q55.25 0 92.625 38.675T906-542v172q0 40.212-27.394 67.606Q851.213-275 811-275h-67v99q0 38.75-27.394 66.375Q689.213-82 649-82H311ZM149-370h112v-16q11-5.75 23.625-9.875T311-400h338q13.75 0 26.375 4.125T699-386v16h112v-174.215q0-15.11-10.062-24.947Q790.875-579 776-579H184q-14.175 0-24.587 10.725Q149-557.55 149-542v172Zm500-304v-97H311v97h-94v-97q0-40.213 27.1-67.606Q271.2-866 311-866h338q40.213 0 67.606 27.394Q744-811.213 744-771v97h-95Zm73.5 213q17.5 0 29.5-11.812 12-11.813 12-29.188 0-17-11.812-29.5Q740.375-544 722.5-544q-17.5 0-29.5 12.5T681-502q0 17 12 29t29.5 12ZM649-171v-134H311v134h338ZM149-579h662-662Z"/></svg>