<svg xmlns="http://www.w3.org/2000/svg" width="48" height="48"><path d="m22.75 17.85-3.1-3.1q.1-.05.375-.125t.525-.075q.85.1 1.55.8.7.7.85 1.6 0 .25-.075.5t-.125.4zm22.55 16.4-8-8.05v6.15l-4.75-4.7v-16.2h-16.2l-4.7-4.75h20.9q1.95 0 3.35 1.4 1.4 1.4 1.4 3.35V21.8l8-8.05zm-2.2 13.2-7.4-7.35q-.5.6-1.45.875t-1.7.275H7.45q-1.95 0-3.325-1.375Q2.75 38.5 2.75 36.55v-25.1q0-.8.3-1.7.3-.9.85-1.5L1.15 5.5 3.65 3 45.6 44.95zm-21.15-10.9h10.2l-6.1-6.1q-.8.85-1.925 1.5t-2.175.85zm-14.5 0h10.6V32.8q-2.8-.65-4.65-2.925-1.85-2.275-1.85-5.325h3.15q0 2.35 1.625 3.85T20 29.9q1.15 0 2.175-.45t1.725-1.2l-1.6-1.55q-.4.4-1.025.625-.625.225-1.275.225-1.25 0-2.125-.875T17 24.55V21.4l-9.55-9.55v24.7z"/></svg>