<svg xmlns="http://www.w3.org/2000/svg" width="48" height="48" viewBox="0 96 960 960"><path d="M407 345h146v-50H407v50Zm250-60v60h23q106.25 0 180.625 74.375T935 600q0 101.75-69 174.375T697 854v71q0 20.75-13.675 34.375Q669.649 973 649.825 973 630 973 616.5 959.375 603 945.75 603 925v-70H357v70q0 20.75-13.675 34.375Q329.649 973 309.825 973 290 973 276.5 959.375 263 945.75 263 925v-71q-100-7-169-79.625T25 600q0-106.25 74.375-180.625T280 345h23v-60q0-39.463 27.475-67.231Q357.95 190 397 190h166q39.05 0 66.525 27.769Q657 245.537 657 285Z"/></svg>