<svg xmlns="http://www.w3.org/2000/svg" width="48" height="48" viewBox="0 96 960 960"><path d="M265 998q-20 0-33.5-13.5T218 951V814q-57-55-88.5-127.5T98 536q0-160.083 111.119-271.542Q320.237 153 479.835 153 612 153 714.5 232T849 436l56 224q6 23-8.091 40.5T860 718h-77v106q0 40.05-27.269 67.025Q728.463 918 688 918h-65v33q0 20-14.062 33.5Q594.875 998 575 998H265Zm207.5-238q21.5 0 34.5-13.781t13-33.719q0-19.938-14-33.719Q492 665 472.5 665T439 679q-14 14-14 33.5t13.5 33.5q13.5 14 34 14Zm1.5-137q13.9 0 24.95-9.5Q510 604 514.5 587q3.5-12 11-23.5T549 535q27-29 37-48.644 10-19.643 10-43.188Q596 398 561 367q-35-31-85-31-30.36 0-57.18 13T373 387q-12 16-9 33.5t20 25.5q13 6 25.5 1.5T434 429q8-10 18.839-15.5 10.838-5.5 22.742-5.5Q495 408 507 418.11t12 25.076q0 13.814-7.905 26.841Q503.19 483.055 482 505q-20 23-30.114 41.016-10.113 18.016-13.977 39.746Q436 601 446.5 612t27.5 11Z"/></svg>