<svg xmlns="http://www.w3.org/2000/svg" width="48" height="48" viewBox="0 96 960 960"><path d="M481.175 678q16.225 0 26.025-9.925Q517 658.15 517 642v-89h88q16.15 0 26.075-9.693t9.925-25.5Q641 502 631.075 492 621.15 482 605 482h-88v-89q0-14.875-9.975-24.938Q497.049 358 481.325 358q-15.725 0-26.025 10.062Q445 378.125 445 393v89h-88q-15.3 0-25.65 9.975-10.35 9.976-10.35 26.2 0 15.8 10.35 25.312Q341.7 553 357 553h88v89q0 16.15 10.4 26.075Q465.801 678 481.175 678ZM781 970.817q-11-10.75-11-27T781 917l96-97-96-96q-6-5.724-8.5-12.69-2.5-6.966-2.5-13.932 0-6.967 2.5-13.933t8.141-12.538Q791.698 660 807.349 660q15.651 0 26.844 11.289L951 787q8 7 11 15.315t3 17.818q0 9.503-3 17.685Q959 846 951 853L834 971q-10.524 11-26.479 11-15.954 0-26.521-11.183ZM366 953q-19.75 0-33.375-13.625T319 905v-33H151q-38.75 0-66.375-27.394Q57 817.213 57 777V277q0-40.213 27.625-67.606Q112.25 182 151 182h662q40.213 0 67.606 27.394Q908 236.787 908 277v287H755q-24.75 0-42.375 17.625T695 624v248h-26v33q0 20.75-13.625 34.375T622 953H366Z"/></svg>