<svg xmlns="http://www.w3.org/2000/svg" width="48" height="48" viewBox="0 -960 960 960"><path d="m215-215-79 79q-23 23-52 10.969T55-168v-643q0-39.463 27.475-67.231Q109.95-906 149-906h662q39.463 0 67.231 27.769Q906-850.463 906-811v216q0 19.75-14.263 33.375t-34 13.625Q838-548 824.5-561.625 811-575.25 811-595v-216H149v548l40-46h410q19.75 0 33.375 13.675Q646-281.649 646-261.825 646-242 632.375-228.5 618.75-215 599-215H215Zm545 0h-7.175Q733-215 719.5-228.625 706-242.25 706-262v-178q0-19.625 13.625-33.812Q733.25-488 753-488h61q18.273 0 29.136 15.5Q854-457 847-440l-40 122h31q18.8 0 29.4 16.5Q878-285 870-267L782-66.034q-4 10.034-13 7.08-9-2.955-9-12.046v-144Zm-611-94v-502 502Z"/></svg>