<svg xmlns="http://www.w3.org/2000/svg" width="48" height="48" viewBox="0 -960 960 960"><path d="M114-384v-187q0-14.633 10.683-24.817Q135.367-606 150-606h114q25 0 39.5 14.5T318-552v63q0 21-12 31.5T278-444l22 51q6 14-2.5 26.5T274-354q-9 0-16-5t-11-14l-25-62h-48v51q0 12.6-8.674 21.3-8.673 8.7-21.233 8.7t-21.326-8.7Q114-371.4 114-384Zm247-7.923L412-573q4-14 15.709-23.5 11.71-9.5 26.462-9.5h25.341Q496-606 507-597t15 23l54 178q4 16-6.221 29t-25.453 13q-11.326 0-20.532-6.913T512-378l-9-26h-80l-6 28q-2.907 9.545-10.516 15.773-7.61 6.227-17.135 6.227-14.849 0-23.599-11.5T361-391.923ZM657-376l-50-194.071Q603-584 612.429-595q9.428-11 24.428-11 10.143 0 17.196 6.455Q661.105-593.091 664-584l30 115 27-119q2-8 8.14-13 6.14-5 14.94-5h10.953Q763-606 769-601.455q6 4.546 8 12.455l31 120 27-114q2-9 10.392-16 8.393-7 18.758-7 13.85 0 23.35 11.5Q897-583 894-569l-47 193q-3 10-10.6 16t-17.9 6h-15.22q-10.086 0-18.754-6.727Q775.857-367.455 773-377l-22-90-26 92q-2.846 9.545-9.731 15.273Q708.385-354 698.213-354h-15.041q-10.172 0-16.725-6.227Q659.895-366.455 657-376Zm-220-76h53l-22-83h-9l-22 83Zm-263-31h84v-63h-84v63Z"/></svg>