<svg xmlns="http://www.w3.org/2000/svg" width="48" height="48" viewBox="0 -960 960 960"><path d="M402-100v-126q0-8.39 3-16.781 3-8.39 10-16.219l272-272q14-14 32.067-20.5Q737.133-558 754-558q18 0 34.963 7 16.964 7 31.037 21l58 57q15 14 21.5 32.136 6.5 18.135 6.5 36.186t-6.5 35.364Q893-352 879-338L608-67q-7.429 7-16.02 10.5Q583.39-53 575-53H449q-19.75 0-33.375-13.625T402-100Zm432-308-78-79 78 79ZM481-133h78.651L719-291l-40-39-40-39-158 155.585V-133Zm198-197-40-39 40 39 40 39-40-39ZM200.176-53Q139-53 96-95.859q-43-42.858-43-104.084 0-47.815 27.656-86.381T153-339v-283q-45-13-72.5-51.5T53-760.057q0-61.226 42.859-104.084Q138.716-907 199.942-907q48.057 0 86.408 27.656Q324.703-851.688 339-807h98l-32-33q-15-14.364-14.5-33.682T404.842-907q13.842-14 32.667-13.5Q456.333-920 471-907l114 113q14 14.727 14 34.364Q599-740 585-726L471-614q-13.818 13-32.909 13T405-614.842q-14-13.842-14-32.967 0-19.124 14-33.191l32-32h-98q-11 33-35 57t-57 34v283q44.688 14.297 72.344 52.649Q347-248 347-199.943q0 61.226-42.824 104.085Q261.353-53 200.176-53Zm559.648-854Q821-907 864-864.177q43 42.824 43 104.001Q907-699 864.177-656q-42.824 43-104.001 43Q699-613 656-655.823q-43-42.824-43-104.001Q613-821 655.823-864q42.824-43 104.001-43ZM200-148q22.5 0 37.75-14.75T253-200q0-22.5-15.238-37.75Q222.525-253 200-253q-22.5 0-37.25 15.238Q148-222.525 148-200q0 22.5 14.75 37.25T200-148Zm0-560q22.5 0 37.75-14.75T253-760q0-22.5-15.238-37.75Q222.525-813 200-813q-22.5 0-37.25 15.237Q148-782.525 148-760q0 22.5 14.75 37.25T200-708Zm560 0q22.5 0 37.75-14.75T813-760q0-22.5-15.237-37.75Q782.525-813 760-813q-22.5 0-37.25 15.237Q708-782.525 708-760q0 22.5 14.75 37.25T760-708ZM200-200Zm0-560Zm560 0Z"/></svg>