<svg xmlns="http://www.w3.org/2000/svg" width="48" height="48" viewBox="0 0 48 48"><path d="M29 41.9H11.45q-2 0-3.35-1.375T6.75 37.2v-1.35q0-2.2 1.125-3.875Q9 30.3 10.85 29.45q3.45-1.55 6.675-2.325Q20.75 26.35 24 26.35q1.3 0 2.525.15 1.225.15 2.475.4Zm-5-18.6q-3.85 0-6.3-2.45-2.45-2.45-2.45-6.3 0-3.85 2.45-6.3Q20.15 5.8 24 5.8q3.85 0 6.325 2.45t2.475 6.3q0 3.85-2.475 6.3Q27.85 23.3 24 23.3ZM36 38h-1.6q-1.05 0-1.725-.675T32 35.6v-7.25q0-1 .675-1.675T34.4 26h6.75q1 0 1.5.85t.1 1.75L40 34h.95q1 0 1.55.9t0 1.8L37.1 46q-.25.45-.675.325Q36 46.2 36 45.75Z"/></svg>