<svg xmlns="http://www.w3.org/2000/svg" width="48" height="48" viewBox="0 -960 960 960"><path d="M229-122q-39.8 0-66.9-27.625Q135-177.25 135-216v-27q0-44.302 22.828-77.516Q180.656-353.73 217-371q69-31 133.469-46.5T480-433q14.791 0 29 1.5t28 4.5q19.243.6 31.122 15.282Q580-397.036 580-378.109 580-358 565.5-345T531-334q-13.25-2-25.5-3t-25.5-1q-56 0-108.5 11t-110.214 37.844Q247-282.441 238-268.425q-9 14.016-9 29.425v23h304q19.75 0 33.375 13.675Q580-188.649 580-168.825 580-149 566.375-135.5 552.75-122 533-122H229Zm0-94h351-351Zm250.796-278q-77.203 0-126-48.796Q305-591.593 305-668.796 305-746 353.796-795q48.797-49 126-49Q557-844 606.5-795T656-668.796q0 77.203-49.5 126Q557-494 479.796-494Zm0-94Q515-588 538-610.846t23-58.119q0-35.685-22.796-58.36-22.797-22.675-58-22.675Q445-750 422-727.279t-23 57.819q0 35.51 22.796 58.485 22.797 22.975 58 22.975Zm.204-81Zm240 469h-32q-20.75 0-34.375-13.625T640-248v-145q0-19.75 13.625-33.375T688-440h135q19.429 0 29.714 17Q863-406 855-388l-55 108h19q21 0 31.5 18t-.5 36L741.899-39.833Q737-31 728.5-33.333 720-35.667 720-45v-155Z"/></svg>