<svg xmlns="http://www.w3.org/2000/svg" width="48" height="48" viewBox="0 -960 960 960"><path d="M95-49v-858q-2 0 2.5-1t11.5 6l38 39q5 6 13.5 6t13.5-7l35-37q6-6 13.5-6.5T237-902l37 37q6 6 14 6t14-6l36-37q6-6 14-6t14 6l37 37q6 6 14 6t14-6l35-37q6-6 14-6t14 6l37 37q6 6 14 6t14-6l36-37q6-6 14-6t15 6l36 37q6 6 14 6t14-6l36-37q6-6 14-6t15 6l36 37q6 6 14 5.5t13-6.5l36-35q7-8 11-7t3 1v858q1 0-3 1t-11-6l-36-36q-5-6-13-6.5T789-91l-36 37q-7 7-15 7t-14-7l-36-37q-6-6-14-6t-14 6l-36 37q-7 7-15 7t-14-7l-36-37q-6-6-14-6t-14 6l-37 37q-6 7-14 7t-14-7l-37-37q-6-6-13.5-6T402-91l-37 37q-6 7-14 7t-14-7l-37-37q-6-6-14-6t-14 6l-36 37q-6 7-14 7t-14-7l-37-37q-6-6-14-5.5T144-90l-36 36q-7 7-11 6t-2-1Zm187-241h400q16 0 26-10t10-26q0-16-10-26t-26-10H282q-16 0-26 10t-10 26q0 16 10 26t26 10Zm0-154h400q16 0 26-10t10-26q0-16-10-26t-26-10H282q-16 0-26 10t-10 26q0 16 10 26t26 10Zm0-155h400q16 0 26-10t10-26q0-16-10-26t-26-10H282q-16 0-26 10t-10 26q0 16 10 26t26 10Zm-93 409h582v-580H189v580Zm0-580v580-580Z"/></svg>