<svg xmlns="http://www.w3.org/2000/svg" width="48" height="48"><path d="M24.05 45.25q-4.55 0-8.45-1.625Q11.7 42 8.85 39.15 6 36.3 4.375 32.4 2.75 28.5 2.75 23.95q0-4.45 1.625-8.325Q6 11.75 8.85 8.875 11.7 6 15.6 4.35q3.9-1.65 8.45-1.65 4.45 0 8.325 1.65Q36.25 6 39.125 8.875 42 11.75 43.65 15.625 45.3 19.5 45.3 24t-1.65 8.4q-1.65 3.9-4.525 6.75-2.875 2.85-6.75 4.475Q28.5 45.25 24.05 45.25zM18 34.6h11.5q.7 0 1.175-.3.475-.3.825-.9l3.9-9q.1-.25.175-.75.075-.5.075-.75v-1.2q0-.7-.325-1.025Q35 20.35 34.3 20.35H23.6l1.4-6.6V12.6q0-.25-.4-.6l-.95-1-8.05 8.7-.4.8q-.2.4-.2.85V31.6q0 1.15.9 2.075.9.925 2.1.925z"/></svg>