<svg xmlns="http://www.w3.org/2000/svg" width="48" height="48" viewBox="0 -960 960 960"><path d="M830-113 588-355l-90 90q-7 7-15.5 10.5T465-251q-10 0-18.5-3.5T431-265L249-447q-14-14-13.5-34t13.5-34q15-15 33.5-14.5T315-515l150 149 56-56-389-388q-11-10-10.5-25.5T132-861q12-12 25-12t24 11l699 699q10 11 10 25.5T880-113q-11 11-25 10.5T830-113ZM689-456l-68-67 194-195q14-14 34-14t34 14q14 14 14 34t-14 34L689-456Zm-97-97-68-67 96-95q14-14 34-14.5t34 13.5q14 15 14 34.5T688-648l-96 95ZM295-226q-10 0-18-3.5T262-240L81-421q-14-14-14-35t14-34q15-15 33.5-14.5T147-490l146 147 69 69-34 34q-7 7-15.5 10.5T295-226Z"/></svg>