<svg xmlns="http://www.w3.org/2000/svg" width="48" height="48" viewBox="0 96 960 960"><path d="M150 719q-19.75 0-33.375-13.675Q103 691.649 103 671.825 103 652 116.625 638.5 130.25 625 150 625h660q19.75 0 33.375 13.675Q857 652.351 857 672.175 857 692 843.375 705.5 829.75 719 810 719H150Zm0 190q-19.75 0-33.375-13.675Q103 881.649 103 860.825 103 841 116.625 827.5 130.25 814 150 814h660q19.75 0 33.375 13.675Q857 841.351 857 861.175 857 882 843.375 895.5 829.75 909 810 909H150Zm0-379q-19.75 0-33.375-13.675Q103 502.649 103 482.825 103 463 116.625 449 130.25 435 150 435h660q19.75 0 33.375 14.175 13.625 14.176 13.625 34Q857 503 843.375 516.5 829.75 530 810 530H150Zm0-190q-19.75 0-33.375-13.675Q103 312.649 103 291.825 103 272 116.625 258.5 130.25 245 150 245h660q19.75 0 33.375 13.675Q857 272.351 857 292.175 857 313 843.375 326.5 829.75 340 810 340H150Z"/></svg>