<svg xmlns="http://www.w3.org/2000/svg" width="48" height="48" viewBox="0 96 960 960"><path d="M694 780V656q0-16 10-26t26-10q15 0 25.5 10.5T766 655v150q0 20-13.5 33.5T719 852H250l54 54q11 12 11 26.5T305 958q-11 11-25 11.5T255 959L145 849q-14-14-14-33t14-33l109-109q11-11 26-11t25 11q11 11 11 25.5T305 725l-55 55h444ZM266 372v124q0 16-10 26t-26 10q-15 0-25.5-10.5T194 497V347q0-20 13.5-33.5T241 300h470l-55-54q-11-11-11-26t10-26q10-10 24.5-11t25.5 10l110 110q14 14 14 33t-14 33L706 478q-11 11-26 11t-25-11q-11-11-11-25.5t11-25.5l56-55H266Z"/></svg>