<svg xmlns="http://www.w3.org/2000/svg" width="48" height="48" viewBox="0 96 960 960"><path d="M479.984 766q-72.398 0-125.191-46-52.793-46-62.96-115.128Q291 597 296.5 591.5T310 586q8 0 14.683 4.5 6.684 4.5 7.617 11.5 8.7 54 50.7 89t97 35q63 0 106.5-43.5T630 576q0-63-43.5-106.5T480 426h-4l45.222 46q4.778 6 4.278 14t-6.5 14q-5 7-13.5 7t-14.5-6l-75-75q-7-7-7-17t7-17l74-74q6-6 15-6t15 6q6 6.265 6 14.632Q526 341 520 347l-40 39q79 2 134.5 57T670 576q0 79-55.5 134.5T479.984 766Zm.016 235q88 0 165.487-33.084 77.488-33.083 135.417-91.012t91.512-135.417Q906 664 906 576q0-89-33.584-166.487-33.583-77.488-91.512-134.917t-135.417-91.012Q568 150 480 150t-165.987 33.584q-77.988 33.583-135.417 91.012T88.084 409.513Q55 487 55 576q0 88 33.084 165.487 33.083 77.488 90.512 135.417t135.417 91.012Q392 1001 480 1001Zm0-94q-138 0-234.5-96.5T149 576q0-138 96.5-234.5T480 245q138 0 234.5 96.5T811 576q0 138-96.5 234.5T480 907Zm0-331Z"/></svg>