<svg xmlns="http://www.w3.org/2000/svg" width="48" height="48" viewBox="0 96 960 960"><path d="M293.243 757q-11.076 0-19.66-7.624Q265 741.753 265 730.093t8.583-19.876Q282.167 702 293 702h103v-54h-68.5q-9.1 0-16.3-7-7.2-7-7.2-17.5 0-9.1 7.5-16.8 7.5-7.7 18.167-7.7H396v-55H290.53q-10.797 0-18.163-7.583Q265 528.833 265 518.093q0-9.907 8.15-18T292.117 492h118.659Q430 492 442.5 504.554t12.5 31.113v177.666q0 18.559-12.65 31.113Q429.7 757 411 757H293.243ZM549 757q-18.7 0-31.35-12.506Q505 731.988 505 713.5v-181q0-18.487 12.65-30.994Q530.3 489 549 489h101q18.7 0 31.35 12.506Q694 514.013 694 532.5v181q0 18.488-12.65 30.994T650 757H549Zm15-55h71V544h-71v158Zm-84 304q-149.939 0-257.469-97Q115 812 98 667q-3-19 10.125-33t34.299-14Q160 620 174 633t19 34q16 105 96.983 174.5T480 911q122.014 0 207.007-84.702Q772 741.596 772 620q0-122.343-83-206.671Q606 329 484 329h-22l41 41q12 12 11.5 26t-11.853 24q-9.903 11-24.098 11.5Q464.353 432 453 421L345 312q-7-6-10.5-14.633-3.5-8.634-3.5-18 0-9.367 3.545-17.817Q338.091 253.1 345 246l108-108q10.822-10 25.411-10.5Q493 127 503.87 137.912q10.13 10.371 9.63 25.229Q513 178 503 187l-47 47h23q80.825 0 151.413 30Q701 294 753.5 346.5T836 469.162q30 70.162 30 150.5t-29.787 150.729q-29.788 70.391-82.576 123.2Q700.85 946.4 630.628 976.2 560.407 1006 480 1006Z"/></svg>