<svg xmlns="http://www.w3.org/2000/svg" width="48" height="48" viewBox="0 96 960 960"><path d="M229 1001q-39.05 0-66.525-27.475Q135 946.05 135 907V245q0-39.463 27.475-67.231Q189.95 150 229 150h323q18.956 0 36.978 8Q607 166 620 179l177 177q13 13 21 31.022T826 424v483q0 39.05-27.769 66.525Q770.463 1001 731 1001H229Zm251.175-133q16.225 0 26.025-9.638Q516 848.725 516 833v-11h54q16.15 0 26.075-9.925T606 786.248V651q0-15.3-9.925-25.65Q586.15 615 569.752 615H426v-64h143.752q16.398 0 26.323-9.975 9.925-9.976 9.925-25.7 0-15.725-9.925-26.025Q586.15 479 570 479h-54v-10q0-14.75-9.975-24.875Q496.049 434 479.825 434q-16.225 0-26.025 10.062Q444 454.125 444 469v10h-54q-16.15 0-26.075 10.35T354 515v136.248q0 15.477 9.925 25.114Q373.85 686 390.248 686H534v65H390.248q-16.398 0-26.323 10.118T354 786.193Q354 802 364.3 812q10.3 10 25.7 10h54v10q0 15.75 9.975 25.875Q463.951 868 480.175 868ZM606 390h111L558 232v111q0 19.75 13.625 33.375T606 390Z"/></svg>