<svg xmlns="http://www.w3.org/2000/svg" width="48" height="48" viewBox="0 -960 960 960"><path d="m666-201-45 44q-21 22-51 22t-52-22q-22-21-22.5-51.5T517-261l45-45q-3-9-4-18.5t-1-19.5q0-61 43-104t105-43q10 0 19.5 1.5T743-487q12 6 14.5 19t-6.5 22l-46 46q-12 12-12.5 28t12.5 28q12 13 28.5 13t28.5-13l45-46q10-9 22.5-6.5T847-382q2 9 3.5 19t1.5 19q0 62-43 105t-104 43q-10 0-20-1.5t-19-3.5ZM480-779q-125 0-211.5 87T182-480q0 71 30.5 130t82.5 98v-46q0-18 12.5-31t30.5-13q18 0 31 13t13 31v156q0 20-14 33.5T334-95H178q-18 0-30.5-12.5T135-138q0-18 12.5-31t30.5-13h63q-67-51-106.5-128.5T95-480q0-80 30-150t82.5-122.5Q260-805 330-835.5T480-866q125 0 222.5 71.5T840-612q7 16 0 33t-24 24q-17 7-33.5 0T759-579q-31-86-106.5-143T480-779Z"/></svg>