<svg xmlns="http://www.w3.org/2000/svg" width="48" height="48" viewBox="0 -960 960 960"><path d="M304-550H142q-19.75 0-33.375-13.625T95-597v-162q0-14.9 10.175-24.95 10.176-10.05 25.5-10.05Q146-794 156-783.95T166-759v57q51-75 133.5-119.5T479.901-866q130.859 0 231.479 74.5T850-606q7 21-4 38.5T815.353-550Q796-550 779.5-559T756-585q-31-79-105.69-132.5Q575.621-771 480-771q-84.278 0-152.139 41T221-621h83q14.75 0 25.375 10.1Q340-600.799 340-585.825q0 14.975-10.625 25.4Q318.75-550 304-550Zm-35 322h423q15 0 21-12.625T711-266L597-422q-7.308-9-19.154-9.5T559-422L446-277l-73-101q-8.308-10-20.154-9.5T334-378l-83 112q-9 12.75-3 25.375T269-228ZM189-55q-39.8 0-66.9-27.1Q95-109.2 95-149v-295q0-19.75 13.675-33.375Q122.351-491 142.175-491 162-491 175.5-477.375 189-463.75 189-444v295h582v-295q0-19.75 13.675-33.375Q798.351-491 818.088-491q19.737 0 33.824 13.625Q866-463.75 866-444v295q0 39.8-27.394 66.9Q811.213-55 771-55H189Z"/></svg>