<svg xmlns="http://www.w3.org/2000/svg" width="48" height="48" viewBox="0 -960 960 960"><path d="M274-611v-239q0-17.425 11.777-29.213Q297.555-891 314.965-891q17.41 0 29.223 11.787Q356-867.425 356-850v239h65v-239q0-18.125 12.175-29.562Q445.351-891 462.982-891q17.632 0 29.825 11.438Q505-868.125 505-850v238.73Q505-543 459-494t-103 59v325q0 17.425-11.777 29.213Q332.445-69 315.035-69q-17.41 0-29.223-11.787Q274-92.575 274-110v-325q-57-10-102.5-59T126-611.27V-850q0-18.125 12.175-29.562Q150.351-891 167.684-891q17.334 0 29.325 11.438Q209-868.125 209-850v239h65Zm449 222h-67q-20.75 0-34.375-13.625T608-436v-268.548Q608-777 654-834t104-57q20.857 0 34.429 16.043Q806-858.915 806-838v728q0 17.425-11.979 29.213Q782.042-69 764.333-69q-17.708 0-29.521-11.787Q723-92.575 723-110v-279Z"/></svg>