<svg xmlns="http://www.w3.org/2000/svg" width="48" height="48" viewBox="0 96 960 960"><path d="M235 737q-36.75 0-61.375-28.1T149 643V218q0-38.75 27.625-66.375T243 124h162q40.212 0 67.606 27.625Q500 179.25 500 218v61H371q-6 0-10.5 4.5T356 294q0 6 4.5 10.5T371 309h129v14.286q0 6.914 5 29.714H371q-6 0-10.5 4.5T356 368q0 6 4.5 10.5T371 383h157.938q18.062 19 41.685 31.4Q594.246 426.8 620 434l76 22q54 17 87.5 61.335Q817 561.669 817 618v25q0 36.8-22.125 65.4Q772.75 737 737 737H235Zm-68.647 313q-49.706 0-85.03-35.32Q46 979.353 46 929.147t35.323-86.176Q116.647 807 166.853 807t86.176 36.054Q289 879.108 289 929.647q0 49.706-36.054 85.033-36.054 35.32-86.593 35.32ZM793 1050q-50 0-86-35.32-36-35.327-36-85.533t36-86.176Q743 807 793.5 807t86 36.054q35.5 36.054 35.5 86.593 0 49.706-35.583 85.033Q843.833 1050 793 1050Zm-312.824 0q-50.176 0-85.676-35.32-35.5-35.327-35.5-85.533t35.324-86.176q35.323-35.971 86-35.971Q531 807 566 843.054t35 86.593q0 49.706-34.907 85.033-34.907 35.32-85.917 35.32Z"/></svg>