<svg xmlns="http://www.w3.org/2000/svg" width="48" height="48" viewBox="0 96 960 960"><path d="M109 961q-19.75 0-33.375-13.675Q62 933.649 62 913.825 62 894 75.625 880.5 89.25 867 109 867h56V238q0-19.75 13.625-33.875T212 190h356q12.75 0 24.875 8.125T611 220v15h138q19.75 0 33.375 14.125T796 283v262h-94V330h-87v276h-95V285H259v582h196v94H109Zm609.625 61q-8.625 0-15.125-5.5t-8.409-15.13L692 971q-18-5-37-16t-31-22l-28 12.118q-8 2.882-16 .382t-12.375-10.255l-22.25-34.49Q540 894 542 885t9-15l25-19q-6-18-5.5-37.5T576 776l-25-19q-7-6-9-14.5t3.375-16.368l22.25-35.264Q572 684 580 681.5t16 .382L624 694q12-10 31-21t37-16l3.091-31.235Q697 616 703.5 610.5q6.5-5.5 15.125-5.5h37.75Q764 605 771 610.5t8.909 15.265L783 657q17 5 36.5 16.5T850 695l27-12.118q8-2.882 16.5-.382t13.875 9.368l21.25 36.264Q934 735 932 744t-9 15l-25 19q6 19 5.5 37.5T898 852l25 19q7 6 9 14.5t-3.375 16.255l-22.25 34.49Q902 943 893.5 945.5q-8.5 2.5-16.4-.5L850 933q-11 11-30.5 22T783 971l-3.091 30.37Q778 1011 771 1016.5q-7 5.5-14.625 5.5h-37.75ZM736 909q41 0 69-27.5t28-68.5q0-40-28-68t-69-28q-41 0-68.5 28T640 813q0 41 27.5 68.5T736 909ZM429 622q-19 0-32.5-13.5T383 576q0-19 13.5-32.5T429 530q20 0 33 13.5t13 32.5q0 19-13 32.5T429 622ZM259 867V285v582Z"/></svg>