<svg xmlns="http://www.w3.org/2000/svg" width="48" height="48" viewBox="0 -960 960 960"><path d="M181-62q-39.462 0-67.231-27.769Q86-117.537 86-157v-207q0-39.05 27.769-66.525Q141.538-458 181-458h444v-119q0-19.75 13.675-33.375 13.676-13.625 34-13.625Q693-624 706.5-610.375 720-596.75 720-577v119h87q38 0 66 27.475T901-364v207q0 39.463-28 67.231Q845-62 807-62H181Zm138-198.105Q319-278 306.895-290q-12.106-12-30-12Q258-302 246.5-289.895q-11.5 12.106-11.5 30Q235-242 246.605-230q11.606 12 30.5 12Q295-218 307-230.105q12-12.106 12-30Zm148 0Q467-278 454.895-290q-12.106-12-30-12Q406-302 394.5-289.895q-11.5 12.106-11.5 30Q383-242 394.605-230q11.606 12 30.5 12Q443-218 455-230.105q12-12.106 12-30ZM573.105-218Q591-218 603-230.105q12-12.106 12-30Q615-278 602.895-290q-12.106-12-30-12Q554-302 542.5-289.895q-11.5 12.106-11.5 30Q531-242 542.605-230q11.606 12 30.5 12ZM673-711q-14 0-28 4t-26 10q-13.02 6-28.01 4-14.99-2-25.338-11.776-10.652-9.776-9.652-23T568-749q22.831-15.852 49.141-24.926Q643.451-783 673.5-783q28.396 0 55.032 9.333 26.637 9.334 49.468 25.429Q789-740 788.5-727T778-705q-9 10-23.5 12t-27.833-4q-11.815-7-25.258-10.5T673-711Zm-.668-132Q628-843 590-829.256 552-815.511 525-796q-12.085 10-26.543 9.5Q484-787 474-798q-11-11-10-26.857T477-850q35-26 85.5-45.5t111-19.5q58.705 0 109.603 20Q834-875 870-849q11 9.905 11.5 25.08.5 15.175-9.457 25.52-11.043 11.4-26 11.4-14.958 0-27.043-10-27-18.511-64.668-32.256-37.668-13.744-82-13.744Z"/></svg>