<svg xmlns="http://www.w3.org/2000/svg" width="48" height="48" viewBox="0 -960 960 960"><path d="M344-103q-78 0-131-53.031T160-286v-327q-36-16.473-58-46.855-22-30.382-22-69.812 0-53.416 37.441-90.375 37.441-36.958 90-36.958T297-819.903q37 37.096 37 90.092 0 38.931-22 69.871Q290-629 254-613v327.059q0 36.974 25.587 62.957Q305.175-197 344.5-197q38.5 0 63.5-26.046t25-62.621V-674q0-78 52.5-130.5t131-52.5q78.5 0 131.5 52.5T801-674v327q35 16 57.5 46.703 22.5 30.704 22.5 69.964Q881-178 843.77-140.5 806.539-103 753.353-103 701-103 663.5-140.75 626-178.5 626-230q0-39 22-70t58-47v-327q0-38-25.588-63.5Q654.825-763 616-763q-38 0-63.5 25.5T527-674.439V-286q0 76.938-52.5 129.969Q422-103 344-103ZM207.281-686Q226-686 239-698.781q13-12.78 13-31.5Q252-749 239.05-761.5T207.281-774q-18.72 0-31.5 12.529Q163-748.942 163-730.421 163-712 175.781-699q12.78 13 31.5 13Zm546.535 500q17.816 0 30.5-12.781Q797-211.561 797-230.281 797-249 784.441-261.5T753.316-274Q736-274 722.5-261.471t-13.5 31.05Q709-212 722.5-199t31.316 13ZM208-730Zm545 500Z"/></svg>