<svg xmlns="http://www.w3.org/2000/svg" width="48" height="48" viewBox="0 -960 960 960"><path d="M212-120q-44 0-73.5-30T109-224q0-44 29.5-73.5T212-327q44 0 74 29.5t30 73.5q0 44-30 74t-74 30Zm543 0q-23 0-40.5-16T695-176q-10-106-54.5-198t-115-163q-70.5-71-163-115.5T165-707q-24-2-40-19t-16-40q0-24 16.5-41t39.5-15q129 11 242 64.5t199.5 140Q693-531 746.5-418T810-176q3 22-14 39t-41 17Zm-249 0q-22 0-39-15.5T445-175q-15-118-90-195.5T163-464q-24-5-39-21.5T109-525q0-23 16.5-39t39.5-14q163 17 269.5 127.5T559-176q2 22-13.5 39T506-120Z"/></svg>