<svg xmlns="http://www.w3.org/2000/svg" width="48" height="48" viewBox="0 -960 960 960"><path d="M149-135q-39 0-66.5-28T55-229v-502q0-38 27.5-66.5T149-826h222q18 0 36 8t31 21l43 43h330q38 0 66.5 28t28.5 66v431q0 38-28.5 66T811-135H149Zm162-303-24-24q-11-11-26-11t-25 11q-11 11-11 25t11 25l42 42q14 14 33.5 14t33.5-14l115-116q11-10 11-25.5t-11-26Q449-548 434.5-548T409-537l-98 99Zm327-63-31-31q-12-12-26-12t-25.5 11.5Q544-521 544-507t12 25l32 31-32 32q-12 11-12 25t11.5 25q11.5 11 25.5 11t26-11l31-31 31 31q11 11 25 11t25.5-11q11.5-11 11.5-25t-11-25l-32-32 32-31q11-11 11-25t-11.5-25.5Q708-544 694-544t-25 12l-31 31Z"/></svg>