<svg xmlns="http://www.w3.org/2000/svg" width="48" height="48" viewBox="0 -960 960 960"><path d="m514-372-44-48-12 60q-3.417 19.104-20.794 30.052Q419.83-319 401-323l-84-18q-7.933-1.739-12.967-8.891Q299-357.043 301-365q2-9 8.864-13.5 6.863-4.5 16.31-2.5l90.978 18L456-556l-61 23v45q0 8-6.043 14t-14.1 6Q366-468 360-474t-6-14v-43q0-14.485 8.423-26.542Q370.846-569.6 385-574l101-37q15-5 28.819.654Q528.639-604.692 536-590q16.59 35.042 38.795 53.021Q597-519 615-514q8.2 4 14.1 10t5.9 14.556q0 9.555-5.9 15Q623.2-469 615-472q-21-6-47-21.5T519-537l-16 93 40 42q6.091 8.25 9.045 15.712Q555-378.826 555-368.939V-248q0 8-6.043 14t-14.1 6Q526-228 520-233.9t-6-15.161V-372Zm16.5-262q-14.9 0-25.7-10.725Q494-655.45 494-670q0-16.4 10.725-26.2T530-706q16.4 0 26.2 9.8t9.8 25.7q0 14.9-9.8 25.7-9.8 10.8-25.7 10.8ZM480.138-55Q392-55 314.513-88.084q-77.488-33.083-135.417-91.012T88.084-314.375Q55-391.724 55-479.862 55-569 88.084-646.487q33.083-77.488 90.855-134.969 57.772-57.482 135.195-91.013Q391.557-906 479.779-906q89.221 0 166.827 33.454 77.605 33.453 135.012 90.802 57.407 57.349 90.895 134.877Q906-569.34 906-480q0 88.276-33.531 165.747-33.531 77.471-91.013 135.278-57.481 57.808-134.831 90.891Q569.276-55 480.138-55ZM480-149q138 0 234.5-96.372T811-480q0-138-96.5-234.5t-235-96.5q-137.5 0-234 96.5t-96.5 235q0 137.5 96.372 234T480-149Z"/></svg>