<svg xmlns="http://www.w3.org/2000/svg" width="48" height="48" viewBox="0 96 960 960"><path d="M480 746q77.51 0 133.255-55.658Q669 634.683 669 557.587q0-77.097-55.865-132.842Q557.27 369 479.88 369q-77.39 0-132.635 55.684Q292 480.367 292 557.5q0 77.133 55.245 132.816Q402.49 746 480 746Zm23-175 73 66q7 7.455 7.5 17.727Q584 665 576.706 673q-6.294 7-16.626 7.5-10.331.5-17.08-6.5l-85.853-79.853Q456 593 449 576V464q0-11 7.714-18.5 7.715-7.5 19-7.5Q487 438 495 445.5q8 7.5 8 18.5v107Zm-23 427q-7 0-12.5-1t-10.5-3q-142-44-232-175.131T135 533V344q0-29.538 16.5-54.769Q168 264 196 254l251-94q17-6 33-6t33 6l251 94q28 10 45 35.231T826 344v189q0 154.738-90.5 285.869Q645 950 502.89 994.093 505 993 480 998Zm0-93q110-43 180.5-144T731 533.294V344l-251-95-251 95.484v188.345Q229 660 299.5 761 370 862 480 905Zm0-328Z"/></svg>