<svg xmlns="http://www.w3.org/2000/svg" width="48" height="48" viewBox="0 96 960 960"><path d="M761 929 526 695q-29 22.923-68.5 35.962Q418 744 372 744q-115 0-195-80T97 471q0-113 80-193t194-80q113 0 192.5 80T643 471q0 45-12.5 83.5T593 627l237 235q14 13.5 13.5 33.25T829 929.5Q815 944 795.144 944q-19.855 0-34.144-15ZM371.353 650Q446 650 497.5 597.75T549 471q0-74.5-51.647-126.75t-126-52.25Q296 292 243.5 344.25T191 471q0 74.5 52.353 126.75t128 52.25ZM302 571l28-79.815L259 437h83l28-81 27.8 80.885H481l-70.75 54.23L438 571l-68-50-68 50Z"/></svg>