<svg xmlns="http://www.w3.org/2000/svg" width="48" height="48" viewBox="0 -960 960 960"><path d="M224-95q-36.12 0-67.05-23.46Q126.02-141.93 116-176q-25-84-40.54-144.96-15.54-60.96-24.87-107.68-9.32-46.72-12.95-82.29Q34-546.49 34-580q0-102 71.41-174t173.69-72H504q30-36 74.88-58 44.87-22 97.12-22 39 0 62 24.67 23 24.66 23 59.33 0 7.74-1.5 14.98T756-793q-3 7-5.5 15.26-2.5 8.25-4.5 18.74l73 73h60q19.75 0 33.38 14.19Q926-657.63 926-638v240q0 16.27-9 29.14Q908-356 893-352l-89.93 28.3L755-162q-8.75 29.51-33.7 48.25Q696.34-95 664-95h-98q-33.45 0-60.23-17.13Q479-129.25 471-155v-20h-68v20q-8 25.75-34.48 42.87Q342.04-95 309-95h-85Zm-13-94h103v-80h246v80h103l62.61-208.86L831-431v-160h-52L651-719q1-15 5.5-39.5T669-814q-40 12-72 35t-47.53 48H279q-62.53 0-106.76 44.26Q128-642.47 128-579.91q0 41.91 21.5 144.41T211-189Zm468-319.5q17-16.5 17-40.5t-16.89-40.5q-16.88-16.5-40.5-16.5Q615-606 598-589.5T581-549q0 24 16.89 40.5 16.88 16.5 40.5 16.5Q662-492 679-508.5ZM476.55-583q18.2 0 30.33-12.18Q519-607.35 519-624.98q0-17.63-12.12-29.83Q494.75-667 476.55-667h-148.1q-18.2 0-29.82 12.37-11.63 12.37-11.63 30Q287-607 299.13-595q12.12 12 30.32 12h147.1Zm3.45 81Z"/></svg>