<svg xmlns="http://www.w3.org/2000/svg" width="48" height="48" viewBox="0 -960 960 960"><path d="M229-811v186-186 662-8.5 8.5-662Zm0 756q-39.05 0-66.525-27.475Q135-109.95 135-149v-662q0-39.463 27.475-67.231Q189.95-906 229-906h323q19.556 0 37.278 8Q607-890 620-877l177 177q13 13 21 30.722T826-632v167q0 21-14.263 34t-34 13Q758-418 744.5-431.625 731-445.25 731-466v-159h-94q-40.213 0-67.606-27.394Q542-679.787 542-720v-91H229v662h266q19.625 0 33.812 13.675Q543-121.649 543-101.825 543-82 528.812-68.5 514.625-55 495-55H229Zm483-101-51 51q-14 13-33.1 13t-32.813-13.526Q580-120.175 580-139.088 580-158 595-173l50-50-51-51q-15-14-14.5-33t15.5-34q14-14 33-14t34 14l50 51 51-51q14-14 33.143-13.5t33.733 14.804Q844-326 843.5-307T830-274l-51 51 51 51q13 14 13 32.9t-14.304 33.404Q815-92 796-92t-33-13l-51-51Z"/></svg>