<svg xmlns="http://www.w3.org/2000/svg" width="48" height="48" viewBox="0 96 960 960"><path d="M109 849V303q0-25 21.5-38.5T176 260l667 285q-24-3-46.833-6-22.834-3-60.167-3-27 0-52.5 2T642 548L191 357v146l254 73-254 71v145l288-121q-11 21.647-18 47.824Q454 745 452 761q0 3 .5 6t1.5 7L175 891q-24 10-45-3.5T109 849Zm592 127q-77 0-133.5-55.5T511 787q0-79 56.5-135T701 596q78 0 134 56t56 135q0 78-56 133.5T701 976Zm90-98q7-8 6.5-19t-7.5-19l-66-65.395V677q0-11.2-7.357-18.6-7.357-7.4-18.5-7.4t-18.643 7.9q-7.5 7.9-7.5 19.1v105q0 7.875 2.5 13.938 2.5 6.062 7.574 11.136L753 879q7.182 7 18.591 7T791 878ZM191 671V357v435-121Z"/></svg>