<svg xmlns="http://www.w3.org/2000/svg" width="48" height="48" viewBox="0 -960 960 960"><path d="M132-89v-96q0-30.75 21.656-52.875T207-260h25v-87h-25q-31.688 0-53.344-22.125Q132-391.25 132-422.288v-115.424q0-31.038 21.656-53.163Q175.312-613 207-613h25v-87h-25q-31.688 0-53.344-22.125Q132-744.25 132-775v-96q0-40.213 27.1-67.606Q186.2-966 226-966h111q38.75 0 66.375 27.394Q431-911.213 431-871v96q0 30.75-22.125 52.875T356-700h-25v87h34q27.925 0 46.962 19.037Q431-574.925 431-547v20h138v-20q0-27.75 19.037-46.875Q607.075-613 635-613h139q40.213 0 67.606 27.625Q869-557.75 869-519v78q0 38.75-27.394 66.375Q814.213-347 774-347H635q-27.925 0-46.963-19.038Q569-385.075 569-413v-20H431v20q0 27.75-19.038 46.875Q392.925-347 365-347h-34v87h25q30.75 0 52.875 22.125T431-185v96q0 40.212-27.625 67.606Q375.75 6 337 6H226q-39.8 0-66.9-27.394Q132-48.788 132-89Zm94 0h111v-77H226v77Zm0-352h111v-78H226v78Zm437 0h111v-78H663v78ZM226-795h111v-76H226v76Zm56-38Zm0 353Zm437 0ZM282-127Z"/></svg>