<svg xmlns="http://www.w3.org/2000/svg" width="48" height="48" viewBox="0 96 960 960"><path d="M586 743q11.605 13 29.302 12.5 17.698-.5 30.611-13.413Q660 729 660 711t-13-30L524 557.566V407q0-17-11.602-28.5T483.211 367q-17.586 0-29.399 11.662Q442 390.325 442 408v166q0 8.522 3.5 17.047Q449 599.571 455 607l131 136Zm-105.862 258q-88.138 0-165.513-33.366-77.376-33.366-135.112-91.066-57.737-57.699-91.125-135.024T55 576.11Q55 488 88.584 410.513q33.583-77.488 91.012-134.917t134.823-91.512Q391.812 150 480 150q88.188 0 165.581 34.084 77.394 34.083 134.823 91.512t91.512 134.823Q906 487.812 906 576q0 88.188-34.084 165.581-34.083 77.394-91.512 134.823t-134.779 91.012Q568.276 1001 480.138 1001ZM480 576Zm-.509 331Q616 907 713.5 810.5t97.5-234Q811 439 713.632 342q-97.367-97-233.623-97Q343 245 246 341.877 149 438.753 149 576q0 138 96.991 234.5t233.5 96.5Z"/></svg>