<svg xmlns="http://www.w3.org/2000/svg" width="48" height="48" viewBox="0 96 960 960"><path d="M189 961q-39.05 0-66.525-27.475Q95 906.05 95 867V285q0-38.463 27.475-66.731Q149.95 190 189 190h582q38.463 0 66.731 28.269Q866 246.537 866 285v582q0 39.05-28.269 66.525Q809.463 961 771 961H189Zm331-168 251-250V285H189v505l131-131q7-7 15.315-10t17.818-3q9.503 0 17.685 3Q379 652 386 659l134 134Zm-9.116-214Q500 579 493 571.917q-7-7.084-7-17.917V364q0-10.833 7.116-17.917 7.117-7.083 18-7.083Q522 339 529 346.083q7 7.084 7 17.917v190q0 10.833-7.116 17.917-7.117 7.083-18 7.083ZM607 579q-7.737 0-14.368-4Q586 571 583 563l-47-104 47-104q3-7 9.632-11.5Q599.263 339 607 339q15 0 22.5 12t1.5 26l-35 75 38 90q5 14-2.758 25.5Q623.485 579 607 579Zm-293 0q-15.75 0-28.375-12.625T273 538v-66q0-15.75 12.625-28.875T314 430h62v-41h-78q-10.833 0-17.917-7.116-7.083-7.117-7.083-18Q273 353 280.083 346q7.084-7 17.917-7h87q15.75 0 28.375 13.125T426 381v58q0 15.75-12.625 28.375T385 480h-62v49h78q10.833 0 17.917 7.116 7.083 7.117 7.083 18Q426 565 418.917 572q-7.084 7-17.917 7h-87Zm39 149L219 862v5h552V635L555 851h-6l-15.997 2q-7.997 1-17.136 1-10.231 0-18.049-1T483 851h-7L353 728Zm-164 77.092V838.5 831v54-250 10-53.4 6.4-313 505-10 25.092Z"/></svg>