<svg xmlns="http://www.w3.org/2000/svg" width="48" height="48" viewBox="0 96 960 960"><path d="M390 736q-13 0-21.5-8.5T360 706V566q0-13 8.5-21.5T390 536h10v-40q0-33 23.5-56.5T480 416q33 0 56.5 23.5T560 496v40h10q13 0 21.5 8.5T600 566v141q0 12-9 20.5t-21 8.5H390Zm40-200h100v-40q0-20-15-33.5T480 449q-20 0-35 13.5T430 496v40ZM111 879q-39.05 0-66.525-27.475Q17 824.05 17 785V367q0-39.05 27.475-66.525Q71.95 273 111 273h738q39.05 0 66.525 27.475Q943 327.95 943 367v418q0 39.05-27.475 66.525Q888.05 879 849 879H111Zm90-94h558V367H201v418Z"/></svg>