<svg xmlns="http://www.w3.org/2000/svg" width="48" height="48" viewBox="0 96 960 960"><path d="M284 419h82q14.833 0 26.417-11Q404 397 404 382t-11.583-26Q380.833 345 366 345H256q-19.75 0-33.375 13.625T209 392v110q0 15 11 26t25.884 11q14.883 0 26.5-11Q284 517 284 502v-83Zm393 233h-83q-15 0-26 11.616-11 11.617-11 26.5Q557 705 568 716t26 11h110q19.75 0 33.375-13.625T751 680V570q0-14.833-11-26.417Q729 532 714 532t-26 11.583Q677 555.167 677 570v82ZM364 973q-19.75 0-33.375-13.625T317 925v-44H149q-38.775 0-66.388-27.612Q55 825.775 55 787V285q0-39.188 27.612-67.094Q110.225 190 149 190h662q39.188 0 67.094 27.906Q906 245.812 906 285v502q0 38.775-27.906 66.388Q850.188 881 811 881H644v44q0 20.75-14.188 34.375Q615.625 973 596 973H364ZM149 787h662V285H149v502Zm0 0V285v502Z"/></svg>