<svg xmlns="http://www.w3.org/2000/svg" width="48" height="48" viewBox="0 -960 960 960"><path d="M542-255h-77q-17.75 0-30.37 12.68Q422-229.65 422-211.82q0 18.82 12.63 31.32Q447.25-168 466-168h116q19.75 0 33.38-13.63Q629-195.25 629-216v-116q0-18.75-12.68-31.38Q603.65-376 585.82-376q-18.82 0-31.32 12.62Q542-350.75 542-332v77ZM270-15q-39.75 0-67.37-27.13Q175-69.25 175-109v-742q0-39 28-67t67-28h418q39.75 0 67.38 27.62Q783-890.75 783-851v128q18 7 30.5 23.45 12.5 16.46 12.5 36.13V-592q0 21-12.5 38T783-530v421q0 39.75-27.62 66.87Q727.75-15 688-15H270Zm146-690h77q17.75 0 30.88-12.68Q537-730.35 537-748.18q0-18.82-13.12-31.32Q510.75-792 493-792H376q-19.75 0-33.37 13.62Q329-764.75 329-745v117q0 18.75 12.68 31.37Q354.35-584 373.18-584q17.82 0 30.32-12.63Q416-609.25 416-628v-77Z"/></svg>