<svg xmlns="http://www.w3.org/2000/svg" width="48" height="48"><path d="M17.15 40.85v-3.7h9.05l-3.7-8.4q-.2-.35-.275-.825-.075-.475-.075-.925v-5.85h3.7v5.95l4 8.9q.25.5.35.975.1.475.1 1.025 0 1.25-.9 2.05-.9.8-2.2.8zm-4.7-13.3q-1.9 0-3.25-1.325T7.85 23q0-1.9 1.35-3.225 1.35-1.325 3.25-1.325 1.85 0 3.2 1.325T17 23q0 1.9-1.35 3.225-1.35 1.325-3.2 1.325zm23.1 0q-1.85 0-3.2-1.325T31 23q0-1.9 1.35-3.225 1.35-1.325 3.2-1.325 1.9 0 3.25 1.325T40.15 23q0 1.9-1.35 3.225-1.35 1.325-3.25 1.325zM6.65 13.8l-2.4-2.6q1.65-1.25 3.65-2t4.1-.75q2.1 0 4.1.75 2 .75 3.7 2l-2.45 2.6q-1.2-.8-2.525-1.225Q13.5 12.15 12 12.15q-1.5 0-2.825.425Q7.85 13 6.65 13.8zm24 0-2.4-2.6q1.65-1.25 3.65-2t4.1-.75q2.1 0 4.1.75 2 .75 3.7 2l-2.45 2.6q-1.2-.8-2.525-1.225Q37.5 12.15 36 12.15q-1.5 0-2.825.425Q31.85 13 30.65 13.8z"/></svg>