<svg xmlns="http://www.w3.org/2000/svg" width="48" height="48" viewBox="0 -960 960 960"><path d="M570-135H303q-36.812 0-62.406-25.562Q215-186.125 215-222v-303q0-21.5 15-34.75T262.697-573Q282-573 296-559.183q14 13.817 14 33.183v297h260l-33-33q-8.091-6.8-11.045-14.9Q523-285 523-294q0-9 3.5-17.5t11.045-16.5q6.455-7 15.278-10.5 8.822-3.5 18-3.5 9.177 0 17.677 3.5T604-329l114 113q7 7 10.5 16.295 3.5 9.296 3.5 18.205 0 8.091-3.5 17.295Q725-155 718-148L604-36q-7 7-16.071 10.5-9.072 3.5-17.606 3.5-9.678 0-17.5-3Q545-28 538-36q-7-7-11-16.205-4-9.204-4-17.795 0-8.59 4-17.296Q531-96 538-103l32-32Zm175-603v303q0 21.8-15.2 34.4-15.2 12.6-31.951 12.6Q678-388 664-401.524 650-415.049 650-434v-297H390l32 33q15 14 14.5 33.158t-14.109 33Q408-618 388.967-618q-19.034 0-32.967-14L242-745q-7-7-11-16.045-4-9.046-4-17.455 0-9.5 4-18t11-15.5l114-112q14-13 33-14t33.304 13Q437-911 436.5-891.682 436-872.364 422-858l-32 32h268q35.875 0 61.438 25.594Q745-774.812 745-738Z"/></svg>