<svg xmlns="http://www.w3.org/2000/svg" width="48" height="48" viewBox="0 -960 960 960"><path d="M229-55q-39.05 0-66.525-27.475Q135-109.95 135-149v-463q0-19.403 7.457-36.987Q149.913-666.571 163-680l197-197q13-13 30.722-21T428-906h303q39.463 0 67.231 27.769Q826-850.463 826-811v662q0 39.05-27.769 66.525Q770.463-55 731-55H229Zm0-94h502v-662H430.425L229-610.331V-149Zm251.491-124q18.884 0 32.197-13.95Q526-300.9 526-320q0-18.675-13.312-32.337Q499.375-366 480.491-366t-32.687 13.804Q434-338.393 434-319.509q0 18.884 13.804 32.697Q461.607-273 480.491-273Zm1.684-149q16.225 0 26.025-9.925 9.8-9.925 9.8-25.827V-608q0-15.3-9.975-25.65-9.976-10.35-26.2-10.35-16.225 0-26.025 10.35Q446-623.3 446-608v150.248q0 15.902 9.975 25.827 9.976 9.925 26.2 9.925ZM229-149h502-502Z"/></svg>