<svg xmlns="http://www.w3.org/2000/svg" width="48" height="48" viewBox="0 96 960 960"><path d="M482.175 634q16.225 0 26.025-9.925 9.8-9.925 9.8-25.827V447q0-14.875-9.975-24.938Q498.049 412 481.825 412q-16.225 0-26.025 10.062Q446 432.125 446 447v151.248q0 15.902 9.975 25.827 9.976 9.925 26.2 9.925Zm-1.684 149q18.884 0 32.197-13.95Q526 755.1 526 736q0-18.675-13.312-32.338Q499.375 690 480.491 690t-32.687 13.804Q434 717.607 434 736.491q0 18.884 13.804 32.697Q461.607 783 480.491 783ZM229 1001q-39.05 0-66.525-27.475Q135 946.05 135 907V444q0-18.956 7.5-36.978Q150 389 163 376l197-197q13-13 31.022-21T428 150h303q39.463 0 67.231 27.769Q826 205.537 826 245v662q0 39.05-27.769 66.525Q770.463 1001 731 1001H229Zm0-94h502V245H430.425L229 445.669V907Zm0 0h502-502Z"/></svg>