<svg xmlns="http://www.w3.org/2000/svg" width="48" height="48" viewBox="0 96 960 960"><path d="M72 262q0-38 27.769-66 27.768-28 67.231-28v94H72Zm0 359v-92h95v92H72Zm183 363v-95h92v95h-92ZM72 442v-92h95v92H72Zm363-180v-94h92v94h-92Zm359 0v-94q38 0 66 28t28 66h-94ZM167 984q-39.463 0-67.231-27.769Q72 928.463 72 889h95v95ZM72 801v-92h95v92H72Zm183-539v-94h92v94h-92Zm180 722v-95h92v95h-92Zm359-363v-92h94v92h-94Zm0 363v-95h94q0 39-28 67t-66 28Zm0-542v-92h94v92h-94Zm0 359v-92h94v92h-94ZM614 984v-95h92v95h-92Zm0-722v-94h92v94h-92ZM302 801q-19.75 0-33.375-13.625T255 754V398q0-19.625 13.625-33.812Q282.25 350 302 350h356q19.625 0 33.812 14.188Q706 378.375 706 398v356q0 19.75-14.188 33.375Q677.625 801 658 801H302Zm47-94h262V445H349v262Z"/></svg>