<svg xmlns="http://www.w3.org/2000/svg" width="48" height="48" viewBox="0 96 960 960"><path d="m681 828-57-57q-6-6-14-6t-14 6q-7 6-7 14.5t7 14.5l80 82q11 11 25.5 11t25.5-11l82-82q6-6 6-14.5t-6-14.5q-6-6-14.5-6t-14.5 6l-58 57V685q0-8-6-14t-15-6q-8 0-14 6t-6 14v143Zm-572 21V707q0-16 9.5-28t23.5-17l303-86-303-88q-14-5-23.5-17t-9.5-28V303q0-25 21.5-38.5T176 260l667 285q-24-3-51.5-6t-90.5-3q-96 0-167.5 63.5T452 759q0 4 .5 7.5t1.5 7.5L175 891q-24 10-45-3.5T109 849Zm592 127q-77 0-133.5-55.5T511 787q0-79 56.5-135T701 596q78 0 134 56t56 135q0 78-56 133.5T701 976Z"/></svg>