<svg xmlns="http://www.w3.org/2000/svg" width="48" height="48" viewBox="0 -960 960 960"><path d="M390-333h180q16.133 0 27.067-10.709Q608-354.419 608-370.209 608-386 597.067-397 586.133-408 570-408H390q-15.7 0-26.35 10.907-10.65 10.907-10.65 27t10.65 26.593Q374.3-333 390-333Zm90.138 278Q392-55 314.5-88T179-179q-58-58-91-135.362t-33-165.5Q55-568 88-645.5t90.843-135.553q57.843-58.052 135.278-91.5Q391.557-906 479.779-906q88.221 0 165.839 33.37 77.619 33.37 135.596 91.29 57.978 57.92 91.382 135.46T906-480q0 88.276-33.447 165.76-33.448 77.483-91.5 135.362Q723-121 645.638-88t-165.5 33ZM480-480Zm0 331q138 0 234.5-96.5T811-480q0-138-96.5-234.5T480-811q-138 0-234.5 96.5T149-480q0 138 96.5 234.5T480-149ZM340-628q-27.938 0-51.969 13.5Q264-601 244-581.607 235-571 239-556.5t17 23.5q13.412 8 28.206 5Q299-531 311-541q6-5 13.5-8t15.5-3q8 0 16 3.5t14 7.5q12 10 27 12.5t28-5.5q13-9 15.5-23.5T432-582q-17.605-20.029-41.086-33.014Q367.432-628 340-628Zm280 0q-28.169 0-51.874 13.486Q544.422-601.029 525-582q-10 11-6.077 26.235Q522.846-540.529 536-533q13 8 27.5 5.5T591-540q6-4 13.5-7.5T620-551q8 0 16 3.5t14 7.5q12 10 27 12.5t28-5.5q12-9 15-23.5t-8-25.5q-17.605-20.029-41.086-33.014Q647.432-628 620-628Z"/></svg>