<svg xmlns="http://www.w3.org/2000/svg" width="48" height="48" viewBox="0 -960 960 960"><path d="M117-360q-39 0-66.5-27.5T23-455v-365q0-39 27.5-67t66.5-28h726q39 0 66.5 28t27.5 67v365q0 40-27.5 67.5T843-360H117Zm38 161q-20 2-34.5-11.5T105-244q-2-20 11-34t33-15l659-34q19-2 33.5 11.5T858-283q1 20-12 34.5T814-233l-659 34Zm-5 130q-20 0-33.5-14T103-117q0-19 13.5-33t33.5-14h660q20 0 33.5 14t13.5 33q0 20-13.5 34T810-69H150Zm67-530q50 43 108.5 57T428-528q43 0 104.5-13.5T656-612q6 21 21 34.5t36 21.5q18 8 34-4.5t16-35.5v-83q0-23-16-35.5t-34-4.5q-21 9-37.5 22.5T654-661q-68-60-126-73t-100-13q-44 0-102.5 14T217-677q-18 14-18 39.5t18 38.5Z"/></svg>