<svg xmlns="http://www.w3.org/2000/svg" width="48" height="48" viewBox="0 -960 960 960"><path d="m432-332 5 28q2.125 12.935 12.462 20.968Q459.8-275 473-275h14.4q12.6 0 23.038-7.719Q520.875-290.438 523-304l5.667-27.848Q546-337 558-345q12-8 22-18l35 10q14.264 4 26.432-1.33 12.167-5.331 18.93-18.141l5.729-10.637Q672-396 668.5-410t-16.833-23.321L630-446q3-18 3-34t-3-35l22.667-13Q666-537 669-551q3-14-3.125-27.111L661-588q-6.677-11.619-19.19-17.81Q629.297-612 615-608l-35 11q-10-10-22-18t-29.333-13.294L523-657q-2.125-11.935-12.462-19.968Q500.2-685 487-685h-14.4q-12.6 0-23.038 7.719Q439.125-669.562 437-656l-5 28q-18 5-30 13t-22 18l-35-10q-14.316-4-26.533 1.524t-18.376 17.044l-5.649 10.463Q288-564 291.5-550q3.5 14 16.5 22l22 13q-3 19-3 35t3 34l-22.667 13.679Q294-423 291-409q-3 14 3 26l4.875 9.846q6.802 12.773 19.315 18.964Q330.703-348 345-352l35-11q10 10 22 18t30 13Zm47.664-69Q446-401 423.5-423.836q-22.5-22.837-22.5-56.5Q401-514 423.836-536.5q22.837-22.5 56.5-22.5Q514-559 536.5-536.164q22.5 22.837 22.5 56.5Q559-446 536.164-423.5q-22.837 22.5-56.5 22.5ZM189-95q-39.05 0-66.525-27.475Q95-149.95 95-189v-582q0-39.463 27.475-67.231Q149.95-866 189-866h582q39.463 0 67.231 27.769Q866-810.463 866-771v582q0 39.05-27.769 66.525Q810.463-95 771-95H189Zm0-94h582v-582H189v582Zm0-582v582-582Z"/></svg>