<svg xmlns="http://www.w3.org/2000/svg" width="48" height="48" viewBox="0 -960 960 960"><path d="M582 21q-28 0-47.5-19.5T515-46v-312q0-27 19.5-47t47.5-20h312q27 0 47 20t20 47v312q0 28-20 47.5T894 21H582ZM399-55q-15 0-25-7.5T362-82l-19-106q-13-4-29-13.5T287-220l-86 40q-17 7-35 2t-27-22L67-330q-9-15-5.5-32.5T80-391l80-59q-1-6-2-14.5t-1-14.5q0-6 1-14.5t2-14.5l-80-58q-15-11-18.5-28.5T67-628l72-130q9-15 27-21t35 1l87 40q11-8 26.5-17t28.5-13l15-96q3-19 16.5-30t30.5-11h147q17 0 30.5 11t16.5 30l15 95q13 5 29.5 13.5T671-738l85-40q17-7 34.5-1t26.5 21l82 145q4 6 5.5 11.5T902-590l-101 75q-6 5-14 7.5t-15 2.5H622q-8 0-13.5-4.5T601-522q-14-38-47-63t-76-25q-55 0-92.5 38T348-480q0 40 20.5 70.5T421-363q6 2 10 8t4 13v254q0 14-10 23.5T399-55Zm339-102q-34 0-66.5 12T610-109q-18 14-26.5 26.5T575-57q0 8 5.5 13t13.5 5h295q5 0 8.5-5t3.5-13q0-13-8-25.5T867-109q-29-24-62-36t-67-12Zm47-64.5q20-19.5 20-47t-20-47Q765-335 737.5-335t-47 19.5Q671-296 671-268.5t19.5 47q19.5 19.5 47 19.5t47.5-19.5Z"/></svg>