<svg xmlns="http://www.w3.org/2000/svg" width="48" height="48" viewBox="0 -960 960 960"><path d="M153-34q-16.4 0-26.2-9.8T117-70v-136q-34-14-58.5-44T34-317v-88h238v88q0 37-24 67t-59 44v137q0 14.487-10.8 24.744Q167.4-34 153-34Zm327 0q-16.4 0-26.2-9.8T444-70v-136q-34-14-58.5-44T361-317v-88h238v88q0 37-24 67t-59 44v137q0 14.487-10.8 24.744Q494.4-34 480-34Zm327 0q-16.4 0-26.2-9.8T771-70v-136q-34-14-58.5-44T688-317v-88h238v88q0 37-24.5 67T843-206v137q0 14.487-10.8 24.744Q821.4-34 807-34ZM34-477v-197q0-20 13.5-33.5T81-721h36v-169q0-17.4 9.3-26.7T153-926q17.4 0 26.7 9.3T189-890v169h36q20 0 33.5 13.5T272-674v197H34Zm327 0v-197q0-20 13.5-33.5T408-721h36v-169q0-17.4 9.3-26.7T480-926q17.4 0 26.7 9.3T516-890v169h36q20 0 33.5 13.5T599-674v197H361Zm327 0v-197q0-20 13.5-33.5T735-721h36v-169q0-17.4 9.3-26.7T807-926q17.4 0 26.7 9.3T843-890v169h36q20 0 33.5 13.5T926-674v197H688Z"/></svg>