<svg xmlns="http://www.w3.org/2000/svg" width="48" height="48" viewBox="0 -960 960 960"><path d="M581.882 21q-27.867 0-47.375-19.542Q515-18.083 515-46v-312.229Q515-385 534.519-405q19.52-20 47.404-20h312.31Q921-425 941-405.083q20 19.916 20 47.083v312.131Q961-18 941.083 1.5 921.167 21 894 21H581.882Zm156.294-223Q765-202 785-221.447q20-19.448 20-47.229 0-27.782-20.177-47.053Q764.647-335 737.324-335 710-335 690.5-315.324q-19.5 19.677-19.5 47Q671-241 690.593-221.5q19.593 19.5 47.583 19.5ZM435-257.553V-55h-21.455Q397-55 379.5-65.5T360-94l-15-95q-13.417-4.105-29.708-13.553Q299-212 288-221l-85 40q-16.876 7-34.753 2.117Q150.371-183.767 141-201L69-331q-10-15-6.045-32.442Q66.909-380.884 82-392l79-59q-1-5.867-1.5-14.457-.5-8.591-.5-14.458 0-5.867.5-14.457.5-8.591 1.5-14.628l-79-58q-16.09-11.116-19.545-28.558Q59-613 69-629l72.377-130.19Q150-774 167.5-780q17.5-6 34.5 1l88 40q10-8 26-17t29-13l15-95.565Q362-884 375.659-895T407-906h146q17.752 0 31.462 10.919Q598.171-884.161 600-865l15 95q13.222 4.895 29.611 13.447Q661-748 672-739l85-40q17-7 34.5-1t26.5 21l83 145q3 6 4.5 11.5T904-591l-94 69q-15 11-32.5 10t-30-15q-13.5-15.689-11-37.344Q739-586 758-596l30-22-32-59-105 46q-23-28-53.954-47-30.953-19-67.314-23l-14.145-110h-71.684L431-701q-35.893 6-67.446 24.5Q332-658 308-631l-104-46-32 59 91 66q-4 18-7 35.777-3 17.776-3 36.223 0 18.391 3 36.696Q259-425 263-408l-91 66 32 59 103.78-46Q334-301 366-282.913q32 18.088 69 25.36ZM187-215Zm291.463-395Q423-610 385.5-572 348-534 348-480q0 23 7.5 43.845T378-397q12 15 28.929 16.5Q423.857-379 437-389q12.263-11.302 13.132-26.551Q451-430.8 440-441q-8-6-12-17.5t-4-22.5q1-22.667 15.917-37.833Q454.833-534 478.241-534q10.296 0 18.528 3.5Q505-527 513-521q12 5 25.125-1.711Q551.25-529.421 557-541.5q7-12.5 3.5-26.5T545-590q-15-9-31.75-14.5t-34.787-5.5ZM187-215ZM606-46h264q10.2 0 17.1-7.6Q894-61.2 894-70v-8q0-1.143-.75-3.095Q892.5-83.048 891-85q-28.564-33.085-68.088-52.542Q783.388-157 737.391-157q-45.988 0-85.032 19.44-39.043 19.44-67.329 52.494Q585-84 582-78v9q0 9 7.6 16t16.4 7Z"/></svg>