<svg xmlns="http://www.w3.org/2000/svg" width="48" height="48" viewBox="0 96 960 960"><path d="M600 696ZM305 807q14 2 27.733 3 13.734 1 27.267 1 10.5 0 20.25-.75T400 807v89h401V495h-90q2.5-9 3.25-18.75T715 456q0-14-1-27.5t-3-27.5h90q38.75 0 66.375 27.625T895 495v401q0 40.213-27.625 67.606Q839.75 991 801 991H400q-40.212 0-67.606-27.394Q305 936.213 305 896v-89Zm54.937-56q-123.294 0-209.116-85.884Q65 579.231 65 455.937t85.884-209.116Q236.769 161 360.063 161t209.116 85.884Q655 332.769 655 456.063t-85.884 209.116Q483.231 751 359.937 751Zm-.365-95q83.294 0 142.361-58.14Q561 539.721 561 456.428q0-83.294-58.707-142.361Q443.587 255 360.293 255 277 255 218.5 313.707q-58.5 58.706-58.5 142Q160 539 218.14 597.5 276.279 656 359.572 656ZM360 456Z"/></svg>