<svg xmlns="http://www.w3.org/2000/svg" width="48" height="48" viewBox="0 -960 960 960"><path d="M239-54 133-159q-14-14.455-14-33.727Q119-212 133-226l106-105q14.182-14 33.091-14t32.779 13.842Q319-317.649 319-298.825 319-280 306-266l-26 26h491q19.75 0 33.375 14.263t13.625 34Q818-172 804.375-158.5 790.75-145 771-145H280l26 27q13.333 14.2 12.667 32.6Q318-67 304.714-54q-14.104 14-32.909 14T239-54Zm-26-377q-29 0-50-21t-21-50v-375q0-29.167 21-49.583Q184-947 213-947h535q29.167 0 49.583 20.417Q818-906.167 818-877v375q0 29-20.417 50-20.416 21-49.583 21H213Zm24-302h200v-120H237v120Zm287 0h200v-120H524v120Zm-87 207v-120H237v120h200Zm87 0h200v-120H524v120Z"/></svg>