<svg xmlns="http://www.w3.org/2000/svg" width="48" height="48" viewBox="0 0 48 48"><path d="M9.45 43.25q-1.95 0-3.325-1.375Q4.75 40.5 4.75 38.55V9.45q0-1.95 1.375-3.35Q7.5 4.7 9.45 4.7h29.1q1.95 0 3.35 1.4 1.4 1.4 1.4 3.35v29.1q0 1.95-1.4 3.325-1.4 1.375-3.35 1.375Zm0-4.7h29.1V9.45H9.45v29.1Zm0-29.1v29.1-29.1ZM24 34.3q.95 0 1.625-.7T26.3 32q0-.95-.65-1.625T24 29.7q-.95 0-1.625.65T21.7 32q0 .9.65 1.6.65.7 1.65.7Zm-8 0q.95 0 1.625-.7T18.3 32q0-.95-.65-1.625T16 29.7q-.95 0-1.625.65T13.7 32q0 .9.65 1.6.65.7 1.65.7Zm16 0q.95 0 1.625-.7T34.3 32q0-.95-.65-1.625T32 29.7q-.9 0-1.6.65-.7.65-.7 1.65 0 .9.7 1.6.7.7 1.6.7Z"/></svg>