<svg xmlns="http://www.w3.org/2000/svg" width="48" height="48" viewBox="0 -960 960 960"><path d="M325-522q0 50.542 52.367 100.589 52.368 50.046 86.47 81.18Q471.54-333 479.714-333q8.175 0 15.572-7.342 34.18-30.429 86.947-79.824Q635-469.56 635-522.526q0-34.249-25.5-59.861Q584-608 549.895-608 529-608 510.5-599q-18.5 9-30.5 22-11.556-13.125-30.327-22.062Q430.902-608 409.167-608 375-608 350-582t-25 60ZM480-60q-8.32 0-15.88-1.5Q456.56-63 450-66q-144-47-229.5-177.597Q135-374.193 135-523.106V-712q0-30.257 16.375-55.162Q167.75-792.068 196-802l251-94q16-6 33-6t33 6l251 94q28.25 9.932 45.125 34.838Q826-742.257 826-712v188.894q0 148.913-86 279.509Q654-113 510-66q-6.56 3-14.12 4.5T480-60Zm0-91q110-43 180.5-144T731-522.706V-712l-251-95-251 95.484v188.345Q229-396 299.5-295 370-194 480-151Zm0-328Z"/></svg>