<svg xmlns="http://www.w3.org/2000/svg" width="48" height="48" viewBox="0 96 960 960"><path d="M465 669.564Q465 680 473 685t17 0l129-84q8-5.5 9-15.75T620 569l-131-91q-8-6-16-.955-8 5.046-8 13.955v178.564ZM111 1022q-39.05 0-66.525-28.269Q17 965.463 17 927V515q0-19.75 13.675-33.375Q44.351 468 64.175 468 84 468 97.5 481.625 111 495.25 111 515v412h551q19.75 0 33.375 13.675 13.625 13.676 13.625 34 0 20.325-13.625 33.825Q681.75 1022 662 1022H111Zm139-138q-39.05 0-66.525-28.269Q156 827.463 156 789V372q0-38.775 27.612-66.387Q211.225 278 250 278h139v-71q0-38.05 27.975-66.025Q444.95 113 483 113h133q39.05 0 66.525 27.975Q710 168.95 710 207v71h139q38.775 0 66.387 27.613Q943 333.225 943 372v417q0 38.463-27.975 66.731Q887.05 884 849 884H250Zm233-606h133v-71H483v71ZM250 789h599V372H250v417Zm0 0V372v417Z"/></svg>