<svg xmlns="http://www.w3.org/2000/svg" width="48" height="48" viewBox="0 96 960 960"><path d="M289.788 987Q260 987 239 965.788q-21-21.213-21-51Q218 885 239.212 864q21.213-21 51-21Q320 843 341 864.212q21 21.213 21 51Q362 945 340.788 966q-21.213 21-51 21Zm404 0Q664 987 643 965.788q-21-21.213-21-51Q622 885 643.212 864q21.213-21 51-21Q724 843 745 864.212q21 21.213 21 51Q766 945 744.788 966q-21.213 21-51 21ZM452 429q-12-13.267-12-29.633Q440 383 452 371l46-46H362q-17.75 0-29.875-11.488T320 284.316q0-17.709 12.125-29.512Q344.25 243 362 243h136l-45-46q-12-11-12.544-28.071-.544-17.072 11.404-29.392 11.947-12.626 29.044-12.082Q498 128 510 140l112 111q6.818 7.6 10.409 16.138Q636 275.676 636 284.633q0 8.958-3.591 17.362Q628.818 310.4 622 317L510 429q-12 12-29 12t-29-12ZM290 780q-46.989 0-70.995-39.5Q195 701 219 660l58-105-144-308H92q-17.425 0-29.212-11.777Q51 223.445 51 206.035q0-17.41 11.788-29.223Q74.575 165 92 165h63q14 0 25.8 6.826T197 191l153 326h289l137-247q4.684-9.75 14.976-15.375Q801.267 249 813.399 249q24.274 0 35.937 20.5Q861 290 849 311L711 559q-10.695 18.714-27.819 29.857T640 600H347l-55 98h444q17.425 0 29.213 11.777Q777 721.555 777 738.965q0 17.41-11.787 29.223Q753.425 780 736 780H290Z"/></svg>