<svg xmlns="http://www.w3.org/2000/svg" width="48" height="48" viewBox="0 96 960 960"><path d="M715 761.405V676q0-15-10-25t-25-10q-15 0-25 10t-10 25v105.02q0 1.98 6 16.98l71.836 68.918Q733.364 878 747.182 878T772 867q10-10.364 10-24.682Q782 828 772 818l-57-56.595ZM363.911 440Q334 440 313 418.911q-21-21.088-21-51Q292 339 313.089 317q21.088-22 51-22Q393 295 415 317.089q22 22.088 22 51Q437 398 414.911 419q-22.088 21-51 21Zm316.223 539Q595 979 536 919.841q-59-59.159-59-144Q477 691 536.159 631.5q59.159-59.5 144-59.5Q765 572 824.5 631.366q59.5 59.365 59.5 144.5Q884 861 824.634 920q-59.365 59-144.5 59ZM185 1013q-41.462 0-68.231-27Q90 959 90 919V233q0-39.213 26.769-67.106Q143.538 138 185 138h358q39.213 0 67.106 27.894Q638 193.787 638 233v283.963q-23 4.037-45.517 12.18Q569.966 537.286 550 548V225H177v294q18-12 40.645-20.5Q240.29 490 265 490h197.752q32.086 0 60.667 12Q552 514 575 535q-52 21-88.5 62T433 689h-30v-2q0-16.475-11.868-28.237Q379.263 647 362.632 647 346 647 334.5 658.763 323 670.525 323 687v25h-25q-16.475 0-28.237 11.868Q258 735.737 258 752.368 258 769 269.763 780q11.762 11 28.237 11h25v26q0 16.75 11.763 27.875Q346.525 856 363 856q14 0 24-9t11-22v-50h20q3 71 38 136t99 102H185Z"/></svg>