<svg xmlns="http://www.w3.org/2000/svg" width="48" height="48" viewBox="0 -960 960 960"><path d="M681-217 519-378l59-59 164 161v-69q0-17.75 12.175-29.375 12.176-11.625 30-11.625Q802-386 814-374.375T826-345v163q0 19.75-14.125 33.375T778-135H613q-17.75 0-29.375-11.675Q572-158.351 572-176.175 572-193 583.625-205T613-217h68Zm61-466L206-147q-12 13-29 13t-29-14q-13-12-12.5-29t12.5-29l535-536h-70q-17.75 0-29.375-12.175-11.625-12.176-11.625-30Q572-802 584.125-814T614-826h164q19.75 0 33.875 14.125T826-778v163q0 17.75-12.175 29.875-12.176 12.125-30 12.125Q766-573 754-585.125T742-615v-68ZM385-518 165-739q-13-12-13-28.5t13-29.5q12-13 28.6-13t28.4 12l223 221-60 59Z"/></svg>