<svg xmlns="http://www.w3.org/2000/svg" width="48" height="48" viewBox="0 -960 960 960"><path d="m136-136 689-689q23-23 52-11.344T906-793v406q-21-14-44.839-23.5Q837.323-420 812-423v-256L282-149h270q4 26 12.962 50.088Q573.923-74.825 589-55H168q-31.688 0-43.344-29Q113-113 136-136Zm593-9h-73q-19.75 0-33.375-13.675Q609-172.351 609-193.175 609-213 622.625-226.5 636.25-240 656-240h73v-73q0-19.75 13.675-33.375Q756.351-360 776.175-360 796-360 809.5-346.375 823-332.75 823-313v73h73q19.75 0 33.375 13.675Q943-212.649 943-192.825 943-172 929.375-158.5 915.75-145 896-145h-73v72q0 20.75-13.675 34.375Q795.649-25 775.825-25 756-25 742.5-38.625 729-52.25 729-73v-72Zm-447-4 530-530q-95 94-165 164.5t-129.5 130L402.45-269.45 282-149Z"/></svg>