<svg xmlns="http://www.w3.org/2000/svg" width="48" height="48" viewBox="0 -960 960 960"><path d="m781-143-51 51q-14 13-33 13t-33-14q-15-14-15-33t15-34l50-50-51-51q-14-15-14-33.5t15-33.5q15-14 33.5-14t33.5 14l50 51 51-51q14-14 33.5-13.5T899-327q14 14 13.5 33T899-261l-51 51 51 51q13 14 13 33t-14 33q-14 14-33 14t-33-13l-51-51Zm-645 7 689-689q23-23 52-11.5t29 43.5v387q-21-12-45-20.5T812-437v-242L282-149h282q6 26 18.5 50T612-55H168q-32 0-43.5-29t11.5-52Zm146-13 530-530-156 156-126.5 126.5-118 118L282-149Z"/></svg>