<svg xmlns="http://www.w3.org/2000/svg" width="48" height="48" viewBox="0 -960 960 960"><path d="M775.825-25Q756-25 742.5-38.625 729-52.25 729-73v-72h-73q-19.75 0-33.375-13.675Q609-172.351 609-193.175 609-213 622.625-226.5 636.25-240 656-240h73v-73q0-19.75 13.675-33.375Q756.351-360 776.175-360 796-360 809.5-346.375 823-332.75 823-313v73h73q19.75 0 33.375 13.675Q943-212.649 943-192.825 943-172 929.375-158.5 915.75-145 896-145h-73v72q0 20.75-13.675 34.375Q795.649-25 775.825-25ZM168-55q-22 0-34.5-14.5T121-101.667Q121-110 124.5-119q3.5-9 11.5-17l689-689q8-8 17-11.5t17.333-3.5Q877-840 891.5-827.5T906-793v342q0 20.622-18 32.811T849-414q-18-6-36-9.5t-37-3.5q-97.678 0-166.339 68.161T541-193q0 21 5.5 42t15.5 40q6 20-5.25 38T525-55H168Z"/></svg>