<svg xmlns="http://www.w3.org/2000/svg" width="48" height="48" viewBox="0 0 48 48"><path d="M6.8 41.2 41.25 6.75q1.15-1.15 2.6-.575 1.45.575 1.45 2.175v20.3q-1.05-.7-2.25-1.175-1.2-.475-2.45-.625v-12.8l-26.5 26.5h13.5q.2 1.3.65 2.5t1.2 2.2H8.4q-1.6 0-2.175-1.45-.575-1.45.575-2.6Zm29.65-.45H32.8q-1 0-1.675-.675t-.675-1.725q0-1 .675-1.675T32.8 36h3.65v-3.65q0-1 .675-1.675T38.8 30q1 0 1.675.675t.675 1.675V36h3.65q1 0 1.675.675t.675 1.675q0 1.05-.675 1.725t-1.675.675h-3.65v3.6q0 1.05-.675 1.725t-1.675.675q-1 0-1.675-.675t-.675-1.725Zm-22.35-.2 26.5-26.5q-4.75 4.7-8.25 8.225-3.5 3.525-6.475 6.5l-5.75 5.75L14.1 40.55Z"/></svg>