<svg xmlns="http://www.w3.org/2000/svg" width="48" height="48" viewBox="0 96 960 960"><path d="M618.248 282Q653 282 678 257.252t25-59.5Q703 163 678.08 138q-24.921-25-59.673-25t-59.58 24.92Q534 162.841 534 197.593t24.748 59.58Q583.496 282 618.248 282ZM290 1079q-14.4 0-25.2-11.01-10.8-11.02-10.8-25.7 0-14.29 10.8-25.29t25.2-11q14.4 0 25.2 10.93 10.8 10.93 10.8 25.5T315.2 1068q-10.8 11-25.2 11Zm340 0q-14.4 0-25.2-11.01-10.8-11.02-10.8-25.7 0-14.29 10.8-25.29t25.2-11q14.4 0 25.2 10.93 10.8 10.93 10.8 25.5T655.2 1068q-10.8 11-25.2 11ZM270 972q-44.647 0-87.382-20.625Q139.884 930.75 116 894q-4-4.333-5-9t-1-10.134q0-13.123 8.263-21.995Q126.526 844 141.464 844q8.536 0 15.036 3t10.5 9q10 19 31.5 31t43.5 18l123-143-58-149q-7-17-4-31.5t13-30.5l99-157h-91l-53 88q-9 14-26.261 18T214 495.76q-15.333-9.386-19.167-26.073Q191 453 200 438l52-83q13.208-20.737 34.508-31.868Q307.807 312 332 312h176q27.968 0 44.393 14.907T576 356l21 48q17.8 39.25 51.4 66.625Q682 498 728 507q14.778 3.889 23.889 14.444Q761 532 761 545.75q0 21.589-14.5 34.42Q732 593 714 590q-53-11-98-41t-76-76l-70 111 127 85q20.316 13.088 32.158 34.56Q641 725.033 641 749v160h24q27.57 0 50.024-14.042Q737.478 880.917 754 856q4.083-6 9.875-9t15.554-3q11.838 0 21.704 8.786Q811 861.571 811 874.58q0 5.42-1.5 10.266T804 894q-24 37-62.567 57.5T659 972H270Zm78-63h211V742l-140-94 25 76q6 25 2 50.5T425 818l-77 91Z"/></svg>