<svg xmlns="http://www.w3.org/2000/svg" width="48" height="48" viewBox="0 96 960 960"><path d="M561 716V496h75l65 65v155H561Zm-19 60h178q14.75 0 27.875-13.125T761 735V555q0-8.984-3.5-17.406Q754 529.172 747 522l-72-72q-7.172-7-15.594-10.5T642 436H542q-14.75 0-27.875 13.125T501 477v258q0 14.75 13.125 27.875T542 776ZM150 921q-39.05 0-66.525-27.975Q56 865.05 56 827V314q0-38.463 27.475-66.731Q110.95 219 150 219h221q18.689 0 36.344 8 17.656 8 30.744 21.088L481 290h331q38.463 0 66.731 28.269Q907 346.537 907 385v442q0 38.05-28.269 66.025Q850.463 921 812 921H150Zm0-607v513h662V385H442l-71-71H150Zm0 0v513-513Z"/></svg>