<svg xmlns="http://www.w3.org/2000/svg" width="48" height="48" viewBox="0 -960 960 960"><path d="M956-228q-13 37-44.5 56T844-153H644q-20 0-33.5-13.5T597-200q0-20 13.5-33.5T644-247h60l-66-66H490q0 68-50.5 114T324-153H84q-41.925 0-64.463-27Q-3-207-3-240.182q0-21.454 11-42.136Q19-303 43-316l124-69-105-31q-28-7-39-31.5t2-51.5l23-44q12.927-26.712 43.463-43.356Q122-603 151-599l291 31 122-91-28-25h-58q-18.375 0-29.688-12.5Q437-709 437-726t11.312-29q11.313-12 29.688-12h72q9.364 0 17.182 3.5Q575-760 582-755l273 254q21 19 28.5 37t7.5 34q0 37-28.5 67T794-320l-41 2 74 71h6.944q7.056 0 14.147-3.059T859-259q12-4 24.5-16t30.5-12q23 0 36 18.574T956-228Zm-804-19h171.571Q351-247 370-267.044q19-20.043 19-47.956l-95-30-146 78q-3 1-4.5 4t-1.5 6q0 4 3 7t7 3Zm265-160h337q16.158 0 25.079-6.017Q788-419.033 788-434L625-587 469-469l-334-37-15 29 297 70Zm37-91Z"/></svg>