<svg xmlns="http://www.w3.org/2000/svg" width="48" height="48" viewBox="0 -960 960 960"><path d="m248-204 25 26q13 13 14 31t-14 33q-14 14-32.5 14t-31.883-14.287L105-217q-14-14-14-33.5t14-33.5l104-104q13-13 31.5-13.5T273-387q14 14 14 32t-14 32l-25 26h464l-25-26q-13-13-14-31t14-33q14-14 32.5-14t32.883 14.287L855-284q14 14 14 33.5T855-217L752-113q-14 13-32 13t-32-15q-14-14-14-32t14-32l24-25H248ZM76-506v-30q0-26.081 14.408-47.649Q104.816-605.216 129-617q26.078-10.522 54.603-16.761Q212.128-640 243.064-640t59.417 6.239Q330.963-627.522 358-617q24.184 11.784 38.092 33.351Q410-562.081 410-536v30H76Zm474 0v-30q0-26.081 13.908-47.649Q577.816-605.216 603-617q26.078-10.522 54.603-16.761Q686.128-640 717.064-640t59.417 6.239Q804.963-627.522 831-617q24.184 11.784 38.592 33.351Q884-562.081 884-536v30H550ZM242.956-689Q205-689 178-716.544q-27-27.545-27-65.5Q151-820 178.044-847q27.045-27 65-27Q281-874 308-846.956q27 27.045 27 65Q335-744 307.956-716.5q-27.045 27.5-65 27.5Zm474 0Q679-689 652-716.544q-27-27.545-27-65.5Q625-820 652.044-847q27.045-27 65-27Q755-874 782-846.956q27 27.045 27 65Q809-744 781.956-716.5q-27.045 27.5-65 27.5Z"/></svg>