<svg xmlns="http://www.w3.org/2000/svg" width="48" height="48" viewBox="0 -960 960 960"><path d="M238-892.825Q238-873 224.375-859.5 210.75-846 191-846h-60q-20.75 0-34.375-13.675Q83-873.351 83-893.175 83-913 96.625-926.5 110.25-940 131-940h60q19.75 0 33.375 13.675Q238-912.649 238-892.825ZM177-65h263v-175H97l-13 62q-8 44 19.5 78.5T177-65Zm140.158-690.391Q331-741 331-721.033q0 19.966-14 34.033l-42 42q-15 14-33.658 14.5t-32.5-13.109Q194-658 194-677.967q0-19.966 14-34.033l43-42q14-14 32.658-14.5t33.5 13.109ZM113-320h327v-175H225q-35 0-60 21t-32 55l-20 99Zm367-438q-75 0-126.5-53T298-940h364q-4 76-55.5 129T480-758Zm.175 64Q500-694 513.5-680.375 527-666.75 527-647v60q0 19.75-13.675 33.375Q499.649-540 479.825-540 460-540 446.5-553.625 433-567.25 433-587v-60q0-19.75 13.675-33.375Q460.351-694 480.175-694ZM520-65h263q46 0 73.5-34.5T876-178l-13-62H520v175Zm0-255h327l-20-99q-7-34-32-55t-60-21H520v175Zm123-435q14-14 32.5-13.5T709-755l43 42q14.231 14 14.615 33.5Q767-660 752.947-646q-14.052 14-34 14Q699-632 685-646l-43-43q-14-14-13.5-33t14.5-33Zm234-137.825Q877-873 863.375-859.5 849.75-846 830-846h-60q-20.75 0-34.375-13.675Q722-873.351 722-893.175 722-913 735.625-926.5 749.25-940 770-940h60q19.75 0 33.375 13.675Q877-912.649 877-892.825Z"/></svg>