<svg xmlns="http://www.w3.org/2000/svg" width="48" height="48" viewBox="0 -960 960 960"><path d="m84-178 49-241q7-34 32-55t60-21h510q35 0 60 21t32 55l49 241q8 44-19.5 78.5T783-65H177q-46 0-73.5-34.5T84-178Zm154-714.825Q238-873 224.375-859.5 210.75-846 191-846h-60q-20.75 0-34.375-13.675Q83-873.351 83-893.175 83-913 96.625-926.5 110.25-940 131-940h60q19.75 0 33.375 13.675Q238-912.649 238-892.825ZM178-160h262v-80H194l-16 80Zm139.158-595.391Q331-741 331-721.033q0 19.966-14 34.033l-42 42q-15 14-33.658 14.5t-32.5-13.109Q194-658 194-677.967q0-19.966 14-34.033l43-42q14-14 32.658-14.5t33.5 13.109ZM210-320h230v-81H226l-16 81Zm270-438q-75 0-126.5-53T298-940h94q3 37 27.625 62.5T480-852q35.75 0 60.375-25.5T568-940h94q-4 76-55.5 129T480-758Zm0-182Zm.175 246Q500-694 513.5-680.375 527-666.75 527-647v60q0 19.75-13.675 33.375Q499.649-540 479.825-540 460-540 446.5-553.625 433-567.25 433-587v-60q0-19.75 13.675-33.375Q460.351-694 480.175-694ZM520-160h262l-16-80H520v80Zm0-160h230l-16-81H520v81Zm123-435q14-14 32.5-13.5T709-755l43 42q14.231 14 14.615 33.5Q767-660 752.947-646q-14.052 14-34 14Q699-632 685-646l-43-43q-14-14-13.5-33t14.5-33Zm234-137.825Q877-873 863.375-859.5 849.75-846 830-846h-60q-20.75 0-34.375-13.675Q722-873.351 722-893.175 722-913 735.625-926.5 749.25-940 770-940h60q19.75 0 33.375 13.675Q877-912.649 877-892.825Z"/></svg>