<svg xmlns="http://www.w3.org/2000/svg" width="48" height="48" viewBox="0 -960 960 960"><path d="M330-212H150q-19.75 0-33.375-13.675Q103-239.351 103-259.175 103-279 116.625-292.5 130.25-306 150-306h180q19.75 0 33.375 13.675Q377-278.649 377-258.825 377-239 363.375-225.5 349.75-212 330-212Zm480-442H150q-19.75 0-33.375-13.675Q103-681.351 103-701.175 103-721 116.625-735 130.25-749 150-749h660q19.75 0 33.375 14.175 13.625 14.176 13.625 34Q857-681 843.375-667.5 829.75-654 810-654ZM570-433H150q-19.75 0-33.375-13.675Q103-460.351 103-480.175 103-500 116.625-513.5 130.25-527 150-527h420q19.75 0 33.375 13.675Q617-499.649 617-479.825 617-460 603.375-446.5 589.75-433 570-433Z"/></svg>