<svg xmlns="http://www.w3.org/2000/svg" width="48" height="48" viewBox="0 -960 960 960"><path d="M449.5-568.38Q437-555.75 437-538v55q0 18.75 12.68 31.37Q462.35-439 480.18-439 498-439 511-451.63q13-12.62 13-31.37v-55q0-17.75-13.18-30.38-13.17-12.62-31-12.62-17.82 0-30.32 12.62ZM353.88-128.5Q339.75-115 320-115h-92q-19.75 0-33.37-13.68Q181-142.35 181-162.18q0-19.82 13.63-33.32Q208.25-209 228-209h92q19.75 0 33.88 13.68Q368-181.65 368-161.82q0 19.82-14.12 33.32Zm411 0Q750.75-115 731-115h-92q-19.75 0-33.37-13.68Q592-142.35 592-162.18q0-19.82 13.63-33.32Q619.25-209 639-209h92q19.75 0 33.88 13.68Q779-181.65 779-161.82q0 19.82-14.12 33.32ZM276-439q30 0 50.5-20.8 20.5-20.79 20.5-50 0-30.2-20.5-50.7-20.5-20.5-50-20.5-30.5 0-51 20.3-20.5 20.29-20.5 50.5 0 29.2 20.36 50.2 20.35 21 50.64 21Zm408 0q30 0 50.5-20.8 20.5-20.79 20.5-50 0-30.2-20.5-50.7-20.5-20.5-50-20.5-30.5 0-51 20.3-20.5 20.29-20.5 50.5 0 29.2 20.36 50.2 20.35 21 50.64 21ZM149-275q-39 0-66.5-28T55-370v-296q0-39 27.5-67t66.5-28h662q39 0 67 28t28 67v296q0 39-28 67t-67 28H149Z"/></svg>