<svg xmlns="http://www.w3.org/2000/svg" width="48" height="48" viewBox="0 96 960 960"><path d="M430 407h261q12.75 0 21.375-8.675 8.625-8.676 8.625-21.5 0-12.825-8.625-21.325T691 347H430q-12.75 0-21.375 8.675-8.625 8.676-8.625 21.5 0 12.825 8.625 21.325T430 407Zm0 120h261q12.75 0 21.375-8.675 8.625-8.676 8.625-21.5 0-12.825-8.625-21.325T691 467H430q-12.75 0-21.375 8.675-8.625 8.676-8.625 21.5 0 12.825 8.625 21.325T430 527Zm0 120h140q12.75 0 21.375-8.675 8.625-8.676 8.625-21.5 0-12.825-8.625-21.325T570 587H430q-12.75 0-21.375 8.675-8.625 8.676-8.625 21.5 0 12.825 8.625 21.325T430 647ZM281 417q17 0 28.5-11.5T321 377q0-17-11.5-28.5T281 337q-17 0-28.5 11.5T241 377q0 17 11.5 28.5T281 417Zm0 120q17 0 28.5-11.5T321 497q0-17-11.5-28.5T281 457q-17 0-28.5 11.5T241 497q0 17 11.5 28.5T281 537Zm0 120q17 0 28.5-11.5T321 617q0-17-11.5-28.5T281 577q-17 0-28.5 11.5T241 617q0 17 11.5 28.5T281 657ZM55 888V245q0-38.463 27.475-66.731Q109.95 150 149 150h662q38.463 0 66.731 28.269Q906 206.537 906 245v502q0 38.05-28.269 66.025Q849.463 841 811 841H215l-80 80q-23 23-51.5 10.344T55 888Z"/></svg>