<svg xmlns="http://www.w3.org/2000/svg" width="48" height="48" viewBox="0 -960 960 960"><path d="M546-337q25-26 24.5-62T540-454q-63-37-125.54-80-62.53-43-125.46-88-16-11-30 2.5t-2 29.5q43 63.32 86.97 125.83T428-341q19 29 55 30t63-26ZM191-135q-25.27 0-46.32-12T111-180q-29-49-42.5-104.77Q55-340.53 55-398q0-47.94 11-93.47T99-579q7-17 24.74-21t35.76 7q16.7 10.18 22.1 28.59Q187-546 180-529q-18.42 30.16-24.71 63.33Q149-432.5 149-398q0 44.16 10 87.81 10 43.66 34 82.19h572.89q22.11-40 33.61-82.98 11.5-42.98 11.5-87.51Q811-537 715.5-634T481-731q-20.09 0-38.54 2.5Q424-726 405-721q-19.87 5-38.93-3.5Q347-733 339.5-752t-.67-36.91q6.84-17.9 27.17-22.09 30.51-7 60.26-10.5Q456-825 483-825q88.41 1 165.02 34.56 76.6 33.57 133.79 91.5Q839-641 872-563.64q33 77.36 33 165.25 0 58.29-15 113.34-15 55.05-42.59 104.93Q836-158 814.1-146.5 792.2-135 768-135H191Zm298-258Z"/></svg>