<svg xmlns="http://www.w3.org/2000/svg" width="48" height="48" viewBox="0 -960 960 960"><path d="M616.752-277q-15.902 0-25.827-10.37Q581-297.74 581-313.07q0-14.905 10.062-24.917Q601.125-348 616-348h146v-98H628q-19.75 0-33.375-13.625T581-493v-143q0-19.75 13.625-33.375T628-683h170q14.875 0 24.938 10.088 10.062 10.087 10.062 25Q833-633 822.938-622.5 812.875-612 798-612H652v94h110q32 0 51.5 20t19.5 52v98q0 32-19.5 51.5T762-277H616.752ZM421-612H287q-15.3 0-25.65-10.37Q251-632.74 251-648.07q0-14.905 10.062-24.917Q271.125-683 286-683h151.017q26.458 0 46.22 17.612Q503-647.775 503-621.6q0 7-3 14.6l-80.959 299.823Q415-293 403.943-285.5q-11.056 7.5-24.051 7.5-19.208 0-30.55-15Q338-308 343-327l78-285ZM210.807-277Q195-277 185-287.37q-10-10.37-10-25.7 0-14.905 9.975-24.917Q194.951-348 210.675-348q15.3 0 25.313 10.088 10.012 10.087 10.012 25Q246-298 235.882-287.5 225.764-277 210.807-277Z"/></svg>