<svg xmlns="http://www.w3.org/2000/svg" width="48" height="48" viewBox="0 -960 960 960"><path d="M635-135q-20.75 0-34.37-13.68Q587-162.35 587-182.18q0-19.82 13.63-33.32Q614.25-229 635-229h136v-502H635q-20.75 0-34.37-13.68Q587-758.35 587-778.09q0-19.73 13.63-33.82Q614.25-826 635-826h136q39.46 0 67.23 27.77Q866-770.46 866-731v502q0 39.05-27.77 66.52Q810.46-135 771-135H635ZM479.82-55Q460-55 446.5-68.63 433-82.25 433-102v-33H189q-39.05 0-66.53-27.48Q95-189.95 95-229v-502q0-39.46 27.47-67.23Q149.95-826 189-826h244v-32q0-19.63 13.68-33.81Q460.35-906 480.18-906q19.82 0 33.32 14.19Q527-877.63 527-858v756q0 19.75-13.68 33.37Q499.65-55 479.82-55ZM771-731v502-502Z"/></svg>