<svg xmlns="http://www.w3.org/2000/svg" width="48" height="48" viewBox="0 -960 960 960"><path d="M486-141q-17.4 0-28.7-11.3T446-181v-160q0-17.4 11.3-28.7T486-381h100q17.4 0 28.7 11.3T626-341v160q0 17.4-11.3 28.7T586-141H486Zm20-60h60v-120h-60v120ZM711-74q-18.4 0-29.2-10.8T671-114v-64q0-18.4 10.8-29.2t29.551-10.8H803v-48H701q-12.6 0-21.3-8.674-8.7-8.673-8.7-21.233t8.7-21.326Q688.4-326 701-326h122q18.4 0 29.2 10.8T863-286v64q0 18.4-10.8 29.2T822.649-182H731v48h102q12.6 0 21.3 8.674 8.7 8.673 8.7 21.233t-8.7 21.326Q845.6-74 833-74H711ZM400-897q8 0 16 3.5t15 8.5q89.294 80.063 169.147 167.532Q680-630 723-519q10 24-6.429 45-16.428 21-42.571 21H469q-40.462 0-67.731 27.269Q374-398.462 374-358v246q0 20-14.791 34Q344.419-64 323-64q-128 0-198-96.703T55-395q0-152 99.5-270T369-885q6.778-5 14.167-8.5T400-897Z"/></svg>