<svg xmlns="http://www.w3.org/2000/svg" width="48" height="48" viewBox="0 -960 960 960"><path d="M299-75q-66.087 0-116.544-14-50.456-14-67.123-30.098-18.736-17.143-29.535-65.522Q75-233 75-301.096q0-119.239 42.701-230.623Q160.401-643.103 238-725q73.75-82.066 187.875-121.533T667-886q66.087 0 116.544 12.5Q834-861 850-846q17 14 26.5 60.5t9.5 121.581q0 126.207-41 237.063T727-238q-77.94 80.599-191.851 121.799Q421.239-75 299-75ZM166-283q31-84 83-163t123-149q53-57 130-104.5T683-795q-103-5-207 33.5T306.513-658Q242-590 202.5-489.534 163-389.067 166-283Zm119 117q116-5 215.707-42.879t160.479-98.495Q724-375 760.5-476 797-577 795-684q-42.262 104.034-91.631 178.017Q654-432 595.496-371 543-315 468-267T285-166Zm-77-41q88-24 179.5-79T554-412q69-74 122.5-164T758-758q-92 28-183 82.5T412-552.508Q347-483 291.5-391.5 236-300 208-207Zm276-276Z"/></svg>