<svg xmlns="http://www.w3.org/2000/svg" width="48" height="48" viewBox="0 96 960 960"><path d="M189 867h382V714q0-19.75 13.625-33.375T618 667h153V285H189v582Zm0 94q-38.775 0-66.388-27.612Q95 905.775 95 867V285q0-39.188 27.612-67.094Q150.225 190 189 190h582q39.188 0 67.094 27.906Q866 245.812 866 285v415L604 961H189Zm156-316q-16.15 0-26.075-10.118T309 609.807Q309 594 318.925 584q9.925-10 26.075-10h91q16.15 0 26.075 9.975 9.925 9.976 9.925 25.7 0 15.3-9.925 25.312Q452.15 645 436 645h-91Zm.48-171q-16.63 0-26.555-10.4Q309 453.199 309 437.825q0-15.375 9.925-25.6Q328.85 402 345.48 402h269.04q16.63 0 26.555 10.289 9.925 10.29 9.925 25.5 0 15.211-9.925 25.711Q631.15 474 614.52 474H345.48ZM189 867V285v582Z"/></svg>