<svg xmlns="http://www.w3.org/2000/svg" width="48" height="48" viewBox="0 -960 960 960"><path d="M195-828h572q19.75 0 33.375 14.175 13.625 14.176 13.625 34Q814-760 800.375-746.5 786.75-733 767-733H195q-19.75 0-33.375-13.675Q148-760.351 148-780.175 148-800 161.625-814 175.25-828 195-828Zm5 696q-19.75 0-33.375-13.625T153-179v-198h-20q-22.14 0-34.57-16T91-430l48-206q3-16 16.25-26.5T185-673h592q15.5 0 28.75 10.5T822-636l49 206q4 21-8.43 37T828-377h-20v198q0 19.75-13.675 33.375Q780.649-132 760.825-132 741-132 727.5-145.625 714-159.25 714-179v-198H569v198q0 19.75-13.625 33.375T522-132H200Zm47-94h228v-151H247v151Z"/></svg>