<svg xmlns="http://www.w3.org/2000/svg" width="48" height="48" viewBox="0 -960 960 960"><path d="M858-126q-22.6 0-37.8-15.2Q805-156.4 805-179v-43q0-23.6 14.7-38.3Q834.4-275 858-275h78v-44H831q-11 0-18.5-7.5T805-345q0-11 7.5-18.5T831-371h105q23.6 0 38.3 14.2Q989-342.6 989-319v44q0 23.6-14.7 38.3Q959.6-222 936-222h-78v43h105q10.4 0 18.2 8.429 7.8 8.428 7.8 19 0 10.571-7.8 18.071-7.8 7.5-18.2 7.5H858ZM400-532 265-743q-16-26-2-54.5t45.414-28.5q13.345 0 25.465 6.5Q346-813 354-800l117 183h-3l116-183q8-12 20.25-19t24.75-7q32.294 0 46.647 28.5Q690-769 674-743L538-532l150 236q16 27 1.625 54T643.5-215q-13.5 0-25.462-6.714Q606.077-228.429 598-240L468-446h3L339-240q-7 12-19.69 18.5-12.689 6.5-25.034 6.5Q263-215 248-242.5q-15-27.5 2-54.5l150-235Z"/></svg>