<svg xmlns="http://www.w3.org/2000/svg" width="48" height="48" viewBox="0 -960 960 960"><path d="M149-135q-39.05 0-66.525-27.1Q55-189.2 55-229v-502q0-28 14.5-50.5T107-816h22l85 85h-65v502h467L493.564-350H270q-12.75 0-21.375-8.675-8.625-8.676-8.625-21.5 0-12.825 8.625-21.325T270-410h165L46-797q-11-11-11-25.5T46-848q11.511-11 25.756-11Q86-859 97-848l740 741q12 11.343 11.5 25.858T837-56.343Q825.733-45 811.867-45 798-45 786-56l-77-79H149Zm739-23-77-76v-497H316l-94-95h589q38.463 0 66.731 28.269Q906-769.463 906-731v504.126q0 19.117-5.5 36.495Q895-173 888-158ZM577.482-470 517-530h173q12.75 0 21.375 8.675 8.625 8.676 8.625 21.5 0 12.825-8.625 21.325T690-470H577.482ZM551-497Zm-167 34Zm-114.175-7Q257-470 248.5-478.675q-8.5-8.676-8.5-21.5 0-12.825 8.675-21.325 8.676-8.5 21.5-8.5 12.825 0 21.325 8.675 8.5 8.676 8.5 21.5 0 12.825-8.675 21.325-8.676 8.5-21.5 8.5Z"/></svg>