<svg xmlns="http://www.w3.org/2000/svg" width="48" height="48" viewBox="0 -960 960 960"><path d="M327-359h163q13 0 21.5-8.5T520-389q0-13-8.5-21.5T490-419H327l63-63q9-9 9-21.5t-9-21.5q-9-9-21.5-9t-21.5 9L245-423q-14 14.727-14 34.364Q231-369 245-355l102 102q9 9 21.5 8.5T390-254q9-9 9-21.5t-9-21.5l-63-62Zm306-174-63 63q-9 9-9 21.5t9 21.5q9 9 21.5 9t21.5-9l102-102q14-14.727 14-34.364Q729-583 715-597L614-698q-9-9-21.5-9.5T571-699q-9 9-9 22t9 22l62 62H470q-13 0-21.5 8.5T440-563q0 13 8.5 21.5T470-533h163ZM480.138-55Q392-55 314.513-88.084q-77.488-33.083-135.417-91.012T88.084-314.375Q55-391.724 55-479.862 55-569 88.084-646.487q33.083-77.488 90.855-134.969 57.772-57.482 135.195-91.013Q391.557-906 479.779-906q89.221 0 166.827 33.454 77.605 33.453 135.012 90.802 57.407 57.349 90.895 134.877Q906-569.34 906-480q0 88.276-33.531 165.747-33.531 77.471-91.013 135.278-57.481 57.808-134.831 90.891Q569.276-55 480.138-55Z"/></svg>