<svg xmlns="http://www.w3.org/2000/svg" width="48" height="48" viewBox="0 -960 960 960"><path d="M363-629v163q0 13 8.5 21.5T393-436q13 0 21.5-8.5T423-466v-163l63 63q9 9 21.5 9t21.5-9q9-9 9-21.5t-9-21.5L426-712q-14.067-14-33.033-14Q374-726 360-712L257-609q-9 9-8.5 21.5T258-566q9 9 21.5 9t21.5-9l62-63Zm174 306-62-62q-9-9-21.5-9t-21.5 9q-9 9-9 21.5t9 21.5l102 102q14.067 14 33.033 14Q586-226 600-240l103-101q9-9 9-22t-9-22q-9-9-22-9t-22 9l-62 62v-163q0-13-8.5-21.5T567-516q-13 0-21.5 8.5T537-486v163ZM480.138-55Q392-55 314.513-88.084q-77.488-33.083-135.417-91.012T88.084-314.375Q55-391.724 55-479.862 55-569 88.084-646.487q33.083-77.488 90.855-134.969 57.772-57.482 135.195-91.013Q391.557-906 479.779-906q89.221 0 166.827 33.454 77.605 33.453 135.012 90.802 57.407 57.349 90.895 134.877Q906-569.34 906-480q0 88.276-33.531 165.747-33.531 77.471-91.013 135.278-57.481 57.808-134.831 90.891Q569.276-55 480.138-55Z"/></svg>