<svg xmlns="http://www.w3.org/2000/svg" width="48" height="48" viewBox="0 96 960 960"><path d="M116 369q-20 0-33.5-13.5T69 322V186q0-14.267 10.314-24.633Q89.628 151 104.814 151T130 160.867q10 9.866 10 25.133v55q72-58 158.942-87 86.942-29 179.5-29T658.5 154Q746 183 819 241v-54q0-15.267 10.314-25.633Q839.628 151 854.814 151t25.686 10.367Q891 171.733 891 187v135q0 20-13.5 33.5T844 369H713q-14.267 0-24.633-10.314Q678 348.372 678 333.186T688.367 308q10.366-10 25.633-10h62q-65.026-48.867-140.513-77.433Q560 192 478 192q-81 0-155.487 28.567Q248.026 249.133 183 298h63q14.267 0 24.633 9.814 10.367 9.814 10.367 25t-9.867 25.686Q261.267 369 246 369H116Zm309 658q-18 0-33.5-7t-28.5-20L202 833q-18-18-19-40.5t12-38.5q14-17 33.5-21t41.5 0l119 29V367q0-31.333 19.765-51.167 19.764-19.833 51-19.833Q491 296 511 315.833q20 19.834 20 51.167v224h36q12 0 20 1.5t18 6.5l152 76q29 15 40.5 41.194Q809 742.389 804 774l-29 180q-5 33-31.5 53t-60.283 20H425Z"/></svg>