<svg xmlns="http://www.w3.org/2000/svg" width="48" height="48" viewBox="0 96 960 960"><path d="M122.146 377q-23.021 0-32.584-17.5Q80 342 92 323q45-78 147.5-138t243.101-60Q575 125 662 157.5T821 245v-39q0-15.1 10.93-25.55 10.93-10.45 26-10.45t25.57 10.45Q894 190.9 894 206v129q0 19.75-13.625 33.375T847 382H718q-15.1 0-26.05-10.43Q681 361.14 681 346.07t10.95-25.57Q702.9 310 718 310h64q-63.991-49.733-141.496-81.367Q563 197 483.188 197 356 197 270.5 249 185 301 153 358q-6.25 11.111-14.625 15.056Q130 377 122.146 377ZM422 1027q-19.277 0-36.138-7Q369 1013 356 1000L195.882 839.882Q178 822 174.5 789.5t13.981-56.457Q207 707 234 697.5t50-4.5l65 15V396q0-46.32 32.275-78.66 32.274-32.34 78.5-32.34Q506 285 538.5 317.34 571 349.68 571 396v161h15q6.231 0 12.115 2Q604 561 610 563l147 72q27 14 40 41.193 13 27.194 8 57.807l-36 218q-5 34-31.08 54.5T678 1027H422Zm-8-71h281l43-249-183-91h-55V396q0-18-11-29t-29-11q-18 0-29 11t-11 29v399l-154-33-23 23 171 171Zm0 0h281-281Z"/></svg>