<svg xmlns="http://www.w3.org/2000/svg" width="48" height="48" viewBox="0 96 960 960"><path d="M600 793q-85 0-139.5-50.5T388 623H236l49 49q16 16.5 15.5 34.75t-14.413 32.163Q271 753 252 753.5q-19 .5-33-14.5L89 609q-7-7-10.5-15.364Q75 585.273 75 576t3.5-17.636Q82 550 89 543l130-130q14-14 33.474-14.5 19.473-.5 34 14.587Q300 426 299 444.5T286 479l-49 50h151q18-69 72.5-119.5T600 359q90 0 153.5 62.846 63.5 62.847 63.5 154.5Q817 665 753.5 729T600 793Zm-.353-94Q651 699 687 662.353q36-36.647 36-86Q723 524 687.147 488.5q-35.853-35.5-87.5-35.5Q549 453 513 488.353q-36 35.353-36 88Q477 626 513.147 662.5q36.147 36.5 86.5 36.5ZM600 576Z"/></svg>