<svg xmlns="http://www.w3.org/2000/svg" width="48" height="48" viewBox="0 -960 960 960"><path d="M645-521.81q36-35.8 36-86.95Q681-661 645.24-697q-35.77-36-88-36Q505-733 469-697.24q-36 35.77-36 87.5Q433-558 468.76-522q35.77 36 88 36Q609-486 645-521.81ZM286-307q52-60 122.18-95.5t149.5-35.5Q637-438 707-402.5T828-307v-521H286v521Zm0 115q-38.75 0-66.37-27.63Q192-247.25 192-286v-542q0-40.21 27.63-67.61Q247.25-923 286-923h542q40.21 0 67.61 27.39Q923-868.21 923-828v542q0 38.75-27.39 66.37Q868.21-192 828-192H286ZM132-37q-40.21 0-67.61-27.39Q37-91.79 37-132v-523q0-19.75 13.68-33.38Q64.35-702 84.68-702q20.32 0 33.82 13.62Q132-674.75 132-655v523h523q19.75 0 33.38 13.68 13.62 13.67 13.62 34Q702-64 688.38-50.5 674.75-37 655-37H132Zm388-535.11q-15-15.1-15-37.01 0-21.92 15.11-37.4 15.1-15.48 37-15.48Q579-662 594-646.41t15 37.5Q609-587 593.89-572q-15.1 15-37 15Q535-557 520-572.11ZM370-286h374q-36-39-84.5-59.5t-102-20.5q-53.5 0-102.35 20.5Q406.3-325 370-286Zm187-283Z"/></svg>