<svg xmlns="http://www.w3.org/2000/svg" width="48" height="48" viewBox="0 -960 960 960"><path d="m480-430 89 89q11 11 25 11t25.5-11.41q11.5-11.41 11.5-25T620-392l-90-88 90-89q10-11 10.5-25t-10.91-25.5q-11.41-11.5-25-11.5T569-620l-89 90-89-90q-11-10-24.5-10.5t-25 10.91q-11.5 11.41-11.5 25T341-569l89 89-89 89q-11 11-11 24.5t11.41 25q11.41 11.5 25 11.5T392-341l88-89Zm318 314H671q-16.72 0-28.36-11T631-154.81q0-16.8 11.64-28.5Q654.28-195 671-195h127l-35-37q-11-11-11.5-26.82t11.45-27.97Q774.98-299 790.49-299T818-287l98 98q14 14.09 14 33.55Q930-136 916-122l-98 98q-12 12.08-27.5 12.04Q775-12 763-24q-12-11-12-26.87 0-15.86 11-28.13l36-37Zm-609-73v-582 582-6 6Zm0 94q-39.05 0-66.53-27.47Q95-149.95 95-189v-582q0-39.46 27.47-67.23Q149.95-866 189-866h582q39.46 0 67.23 27.77Q866-810.46 866-771v348q0 21-14.09 33.5t-34 12.5q-19.91 0-33.41-13.5Q771-404 771-424v-347H189v582h333q20 0 33.5 13.5T569-142q0 20-13.5 33.5T522-95H189Z"/></svg>