<svg xmlns="http://www.w3.org/2000/svg" width="48" height="48" viewBox="0 -960 960 960"><path d="M779-244.816V-346q0-11-7.5-18.5T753-372q-11 0-19 7.5t-8 18.5v98q0 10.304 4 18.724 4 8.419 11 15.276l73 67q7 7 17 6.5t16.5-7.643q7.5-8.143 7-18T847-183l-68-61.816ZM509-731v130q0 21 13.5 34.5T556-553h255v-178H509ZM757-47q-79 0-136-57t-57-136q0-79 57-136t136-57q79 0 136 57t57 136q0 79-57 136T757-47Zm-608-88q-39.05 0-66.525-27.475Q55-189.95 55-229v-502q0-39.463 27.475-67.231Q109.95-826 149-826h662q39.463 0 67.231 27.769Q906-770.463 906-731v222q0 22.5-18.5 32.75T849-475q-22-10-44.872-14T757-493q-103.416 0-176.708 71T504-248q0 13 .5 28t4.833 29.923Q513-169 501.079-152 489.158-135 469-135H149Z"/></svg>