<svg xmlns="http://www.w3.org/2000/svg" width="48" height="48" viewBox="0 -960 960 960"><path d="M95-328h274q-10 12-19 24.5T333-277q-13 24-13 50t13 49q13 24 27.5 44T392-95H189q-39.75 0-66.87-27.13Q95-149.25 95-189v-139Zm0-60v-234h355v211q-7.26 5-13.01 10.5T426-388H95Zm415-234h356v206q-44-30-94.96-45.5Q720.08-477 662-477q-40.91 0-78.96 7.5Q545-462 510-446v-176ZM95-682v-89q0-39.75 27.13-67.38Q149.25-866 189-866h582q39.75 0 67.38 27.62Q866-810.75 866-771v89H95ZM662.07-38q-79.93 0-149.5-38.5T401-180q-8-11-11-22.07t-3-23q0-12.93 3.5-24.93t10.5-24q42-65 111.07-104t150-39Q743-417 812-378t112 104q7 10 10.5 21.31 3.5 11.32 3.5 24.5 0 13.19-3 25.19-3 12-10 23-42 66-112 104T662.07-38Zm69.43-120.14q28.5-28.14 28.5-69t-28.64-69.36q-28.64-28.5-69.5-28.5T593-296.36q-28 28.64-28 69.5T593.14-158q28.14 28 69 28t69.36-28.14Zm-110-27.98q-16.5-16.12-16.5-41t16.62-41.38q16.62-16.5 41-16.5t40.88 16.62q16.5 16.62 16.5 41.5T703.38-186q-16.62 16-41 16t-40.88-16.12Z"/></svg>