<svg xmlns="http://www.w3.org/2000/svg" width="48" height="48"><path d="M20.05 33.65q.35.35.775.525.425.175.875.175t.875-.175Q23 34 23.35 33.65l9.05-9.1q.4-.4.45-1.1.05-.7-.45-1.2-.45-.5-1.125-.5t-1.175.5l-8.35 8.35-4.05-4q-.45-.45-1.125-.475-.675-.025-1.175.475-.5.55-.5 1.175t.5 1.125zm-8.6 11.6q-1.95 0-3.325-1.375Q6.75 42.5 6.75 40.55V7.45q0-1.95 1.375-3.35Q9.5 2.7 11.45 2.7H27.6q.95 0 1.825.375T31 4.15L39.85 13q.7.7 1.075 1.575T41.3 16.4v24.15q0 1.95-1.4 3.325-1.4 1.375-3.35 1.375zM27.1 7.45H11.45v33.1h25.1v-23.8h-7.1q-1 0-1.675-.675T27.1 14.4zm-15.65 0v9.3-9.3 33.1-33.1z"/></svg>