<svg xmlns="http://www.w3.org/2000/svg" width="48" height="48" viewBox="0 96 960 960"><path d="m435 708-79.903-79.903q-5.583-5.097-11.483-7.597t-12.257-2q-6.357.5-12.721 2.75-6.363 2.25-10.454 7.75Q298 639.267 298 652.433q0 13.167 10.247 23.934L400 768q7.167 6.909 16.328 10.955Q425.489 783 434.244 783q8.756 0 17.706-4.045Q460.9 774.909 468 768l181-181q9-10.174 9-23.087T648.483 541q-9.517-10-23-10t-23.562 10.079L435 708Zm-206 293q-39.05 0-66.525-27.475Q135 946.05 135 907V245q0-39.463 27.475-67.231Q189.95 150 229 150h323q19.556 0 37.278 8Q607 166 620 179l177 177q13 13 21 30.722T826 424v483q0 39.05-27.769 66.525Q770.463 1001 731 1001H229Zm313-617V245H229v662h502V431H589q-19.75 0-33.375-13.625T542 384ZM229 245v186-186 662-662Z"/></svg>