<svg xmlns="http://www.w3.org/2000/svg" width="48" height="48" viewBox="0 -960 960 960"><path d="m297-709 44-149v-43q0-19.625 13.675-33.812Q368.351-949 388.175-949 408-949 421.5-934.812 435-920.625 435-901v32h89v-32q0-19.625 13.675-33.812Q551.351-949 571.088-949q19.737 0 33.824 14.188Q619-920.625 619-901v38l44 154H297ZM140-34q-38.8 0-66.4-27.894Q46-89.787 46-129v-372q0-19.625 13.675-33.812Q73.351-549 93.175-549 113-549 126.5-534.669 140-520.338 140-500.5v60.5h75l10-31h511l9 31h75v-60.789q0-19.961 13.675-34.086Q847.351-549 867.088-549q19.737 0 33.824 14.188Q915-520.625 915-501v372q0 39.213-27.894 67.106Q859.213-34 820-34H536v-250H424v250H140Zm103-497 36-118h402l37 118H243Z"/></svg>