<svg xmlns="http://www.w3.org/2000/svg" width="48" height="48" viewBox="0 96 960 960"><path d="M140 1022q-38.775 0-66.388-27.906Q46 966.188 46 927V555q0-19.625 13.675-33.812Q73.351 507 93.175 507 113 507 126.5 521.188 140 535.375 140 555v32h83l118-388.977V155q0-19.625 13.675-33.812Q368.351 107 388.175 107 408 107 421.5 121.188 435 135.375 435 155v32h89v-32q0-19.625 13.675-33.812Q551.351 107 571.088 107q19.737 0 33.824 14.188Q619 135.375 619 155v38.364L737 587h83v-32q0-19.625 13.675-33.812Q847.351 507 867.088 507q19.737 0 33.824 14.188Q915 535.375 915 555v372q0 39.188-27.906 67.094Q859.188 1022 820 1022H513V794h-66v228H140Zm206-515h268l-20-65H367l-21 65Zm48-160h172l-20-65H415l-21 65ZM140 927h213V700h254v227h213V682H666.293l-24.341-80h-322.91l-23.762 80H140v245Zm340-325Z"/></svg>