<svg xmlns="http://www.w3.org/2000/svg" width="48" height="48" viewBox="0 -960 960 960"><path d="m183-339-43 108q-5 13-17.639 22T96-200q-27.74 0-42.87-22Q38-244 49-270l195-458q6-14 18.823-23 12.824-9 27.784-9h44.786q15.108 0 28.357 9Q377-742 383-727l187 456q11 26-4.387 48.5T522.938-200q-18.31 0-31.518-9.567Q478.212-219.133 472-235l-39-104H183Zm27-75h196l-95.326-252H307l-97 252Zm517-25h-89q-17.425 0-29.213-11.777Q597-462.555 597-479.965q0-17.41 11.787-29.223Q620.575-521 638-521h89v-89q0-18.125 12.175-29.562 12.176-11.438 30-11.438Q787-651 798.5-639.562 810-628.125 810-610v89h89q17.425 0 29.213 11.777Q940-497.445 940-480.035q0 17.41-11.787 29.223Q916.425-439 899-439h-89v89q0 18.125-11.488 29.562Q787.024-309 768.825-309 751-309 739-321.125T727-351v-88Z"/></svg>