<svg xmlns="http://www.w3.org/2000/svg" width="48" height="48" viewBox="0 -960 960 960"><path d="M435-72v-95h92v95h-92Zm0-722v-94h92v94h-92ZM614-72v-95h92v95h-92Zm0-722v-94h92v94h-92Zm94 361H437q-20.75 0-34.375-13.675Q389-460.351 389-480.175 389-500 402.625-513.5 416.25-527 437-527h271l-25-26q-13-14-13-31.5t14.391-32.413Q698-632 717-632t34 15l103 103q14 14.364 14 34.182T854-446L750-342q-14 14-33.5 13.5T682-345q-14-13.778-13.5-30.889Q669-393 682-407l26-26ZM163-167v-627h-44q-19.75 0-33.375-13.675Q72-821.351 72-841.175 72-861 85.625-874.5 99.25-888 119-888h180q19.625 0 33.812 13.675Q347-860.649 347-840.825 347-821 332.812-807.5 318.625-794 299-794h-42v627h42q19.625 0 33.812 14.263 14.188 14.263 14.188 34Q347-99 332.812-85.5 318.625-72 299-72H119q-19.75 0-33.375-13.675Q72-99.351 72-119.088q0-19.737 13.625-33.824Q99.25-167 119-167h44Zm631-627v-94q38 0 66 28t28 66h-94Zm0 722v-95h94q0 39-28 67t-66 28Z"/></svg>