<svg xmlns="http://www.w3.org/2000/svg" width="48" height="48" viewBox="0 -960 960 960"><path d="M140-46q-38.75 0-66.375-27.625T46-140v-680q0-38.75 27.625-66.875T140-915h331q19.75 0 33.375 14.175 13.625 14.176 13.625 34Q518-847 504.375-833.5 490.75-820 471-820H140v680h463v-52q0-19.75 13.675-33.875Q630.351-240 650.175-240 670-240 683.5-225.875 697-211.75 697-192v52q0 38.75-27.625 66.375T603-46H140Zm130-204q-12.75 0-21.375-8.675-8.625-8.676-8.625-21.5 0-12.825 8.625-21.325T270-310h220q12.75 0 21.375 8.675 8.625 8.676 8.625 21.5 0 12.825-8.625 21.325T490-250H270Zm0-120q-12.75 0-21.375-8.675-8.625-8.676-8.625-21.5 0-12.825 8.625-21.325T270-430h140q12.75 0 21.375 8.675 8.625 8.676 8.625 21.5 0 12.825-8.625 21.325T410-370H270Zm350 11L476-503H373q-19.75 0-33.375-13.625T326-550v-123q0-19.75 13.625-33.375T373-720h103l144-144q10-11 25.5-4.458Q661-861.917 661-847v471q0 15.917-15.5 21.958Q630-348 620-359Zm101-81v-347q61 19 96.5 74T853-609q0 50-38.5 103T721-440Zm192-169q0-77-42.5-138T763-840q-17-8-24.5-24.5t-1.5-34.629Q744-918 761-926t36 0q96 46 153.5 131.45 57.5 85.45 57.5 185.5T950.5-423Q893-337 797-292q-19 9-36 .5t-24-27.371Q731-336 738.5-352.5 746-369 763-378q65-32 107.5-93T913-609Z"/></svg>