<svg xmlns="http://www.w3.org/2000/svg" width="48" height="48" viewBox="0 -960 960 960"><path d="M390-433H119q-19.75 0-33.375-13.675Q72-460.351 72-480.175 72-500 85.625-513.5 99.25-527 119-527h271l-25-26q-13-13.75-13-31.375t14.913-32.538Q381-632 400-632q19 0 34 15l103 103q14 14.364 14 34.182T537-446L433-342q-14 14-33.5 13.5t-35.413-16.935Q351-359 351.5-376.111 352-393.222 364-407l26-26Zm404 314v-722q0-19.75 13.675-33.375Q821.351-888 841.175-888 861-888 874.5-874.375 888-860.75 888-841v722q0 19.75-13.675 33.375Q860.649-72 840.825-72 821-72 807.5-85.625 794-99.25 794-119ZM614-794v-94h92v94h-92Zm0 722v-95h92v95h-92ZM434-794v-94h92v94h-92Zm0 722v-95h92v95h-92ZM255-794v-94h92v94h-92Zm0 722v-95h92v95h-92Zm-88 0q-39.463 0-67.231-27.769Q72-127.537 72-167h95v95ZM72-794q0-38 27.769-66 27.768-28 67.231-28v94H72Z"/></svg>