<svg xmlns="http://www.w3.org/2000/svg" width="48" height="48" viewBox="0 0 48 48"><path d="m26.3 30.85-5.15-5.15q-.7-.7-.7-1.7t.7-1.7l5.2-5.2q.7-.7 1.675-.675.975.025 1.775.825.65.7.625 1.55-.025.85-.625 1.55l-1.3 1.3h13.55q1 0 1.675.675T44.4 24q0 1-.675 1.675t-1.675.675H28.5l1.25 1.3q.65.7.65 1.575t-.75 1.625q-.7.75-1.65.75t-1.7-.75ZM5.95 44.4q-1 0-1.675-.675T3.6 42.05V5.95q0-1 .675-1.675T5.95 3.6q1 0 1.7.675t.7 1.675v36.1q0 1-.725 1.675T5.95 44.4Zm6.8 0v-4.75h4.6v4.75Zm0-36.1V3.6h4.6v4.7Zm9 36.1v-4.75h4.6v4.75Zm0-36.1V3.6h4.6v4.7Zm8.95 36.1v-4.75h4.6v4.75Zm0-36.1V3.6h4.6v4.7Zm9 0V3.6q1.9 0 3.3 1.4t1.4 3.3Zm0 36.1v-4.75h4.7q0 1.95-1.4 3.35-1.4 1.4-3.3 1.4Z"/></svg>