<svg xmlns="http://www.w3.org/2000/svg" width="48" height="48" viewBox="0 -960 960 960"><path d="M320-95q-86.53 0-146.76-60.24Q113-215.47 113-302q0-52.1 23.5-97.05Q160-444 203-474v-274q0-49.33 33.76-83.67 33.77-34.33 83-34.33 49.24 0 83.74 34.33Q438-797.33 438-748v274q42 30 66 74.95T528-302q0 86.53-60.73 146.76Q406.53-95 320-95Zm.12-93q47.88 0 80.38-32.88Q433-253.75 433-302q0-39.81-20-73.91Q393-410 355-424l-12-1v-323q0-9.6-6.7-16.3-6.7-6.7-16.3-6.7-9.6 0-16.3 6.7-6.7 6.7-6.7 16.3v323l-12 1q-38 14-58 48.09-20 34.1-20 73.91 0 48.25 32.62 81.12Q272.24-188 320.12-188ZM320-302Zm384.5-208.68q-13.5-13.67-13.5-33.5 0-19.82 13.68-33.32 13.67-13.5 33.5-13.5Q758-591 772-577.32q14 13.67 14 33.5 0 19.82-14.18 33.32-14.17 13.5-34 13.5-19.82 0-33.32-13.68Zm0-153.95Q691-678.25 691-698v-120q0-19.75 13.68-33.88Q718.35-866 738.18-866 758-866 772-851.88q14 14.13 14 33.88v120q0 19.75-14.18 33.37-14.17 13.63-34 13.63-19.82 0-33.32-13.63Z"/></svg>