<svg xmlns="http://www.w3.org/2000/svg" width="48" height="48" viewBox="0 -960 960 960"><path d="M573.38-569q-18.13 0-30.25-11.96-12.13-11.97-12.13-29Q531-627 543.26-639q12.27-12 29.74-12h182q17.05 0 29.03 11.96 11.97 11.97 11.97 29Q796-593 784.03-581q-11.98 12-29.03 12H573.38ZM573-711q-17.47 0-29.74-12.18Q531-735.35 531-752.98q0-17.63 12.26-29.83Q555.53-795 573-795h272q17.05 0 29.03 12.37 11.97 12.37 11.97 30Q886-735 874.03-723q-11.98 12-29.03 12H573ZM126.23-156.24Q66-216.47 66-303q0-51 23.5-95.5t66.5-74.93V-748q0-49 34-83.5t83-34.5q49 0 83 34.5t34 83.5v274.57q43 30.43 66.5 74.93Q480-354 480-303q0 86.53-60 146.76Q360-96 273.23-96q-86.78 0-147-60.24ZM161-303h225q0-43-21.5-76T308-426l-12-1v-321q0-9.6-7.06-16.3-7.06-6.7-15.94-6.7-9.6 0-15.8 6.7-6.2 6.7-6.2 16.3v321l-11 1q-37 15-58 48t-21 75Z"/></svg>