<svg xmlns="http://www.w3.org/2000/svg" width="48" height="48" viewBox="0 96 960 960"><path d="M83 680q-34 0-58.5-23.944T0 597V356q0-18.956 8-36.978Q16 301 29 288l146-147q11.038-11 29.596-14.5T238.5 130q14.5 7 22.5 23t5 32l-26 115h167q51.667 0 77.333 42.5Q510 385 487 435l-82 188q-12 26-35.214 41.5Q346.571 680 318 680H83Zm241-83 83-186v-27H154l26-129-97 99v243h241Zm402 429q-16-7-25.5-24.34Q691 984.314 694 967l27-116H553q-53 0-77.5-42t-2.5-92l82-189q11.63-24.714 34.959-40.357T642 472h235q34 0 58.5 24t24.5 58v242q0 19.403-7.957 36.987Q944.087 850.571 932 863l-147 148q-10 9-27.5 14t-31.5 1Zm-90-472-83 187v27h253l-26 129 97-98.714V554H636ZM83 597V354v243Zm794-43v244-244Z"/></svg>