<svg xmlns="http://www.w3.org/2000/svg" width="48" height="48" viewBox="0 96 960 960"><path d="M338 472.586 259 395q-19.914-20.172-30.457-45.776Q218 323.619 218 295.328 218 236 258.661 194.5T358 153h244q58.214 0 98.107 42.133Q740 237.267 740 296.399q0 27.601-11.122 54.093Q717.757 376.984 698 397l-75 75.257V676l77 77q19.778 21.125 30.389 46.463T741 853.345Q741 914 699.483 955.5T598.469 997q-28.469 0-54.379-9.814Q518.18 977.371 498 956q-3.029-2.6-7.725-4.8-4.696-2.2-10.221-2.2-5.535 0-10.295 1.5Q465 952 462 956q-20.125 19.914-46.169 30.457Q389.787 997 361.375 997 301 997 258.5 955.314T216 853.625q0-28.412 11.3-54.456Q238.6 773.125 259 753l79-77.177V472.586Z"/></svg>