<svg xmlns="http://www.w3.org/2000/svg" width="48" height="48" viewBox="0 -960 960 960"><path d="M103-225q-90-90-90-218.5T103-662q90-90 219-90 46 0 88 12.5t78 36.5l32-32q13-13 30-12.5t30 13.5q13 13 12.5 29T580-676l-27 28q36 41 56.5 93T630-444q0 129-90 219t-218.5 90Q193-135 103-225Zm164-628q-18 0-30.5-12.5t-12.5-31q0-18.5 12.5-31T267-940h132q19 0 31.5 12.5t12.5 31q0 18.5-12.5 31T399-853H267Zm85.5 430.5Q365-435 365-454v-80q0-18-12.5-30.5t-31-12.5q-18.5 0-31 12.5T278-534v80q0 19 12.5 31.5t31 12.5q18.5 0 31-12.5ZM758-658l-25 24q-13 14-30.5 14t-31-14Q658-648 658-665t14-31l95-95q14-14 34-14t35 14l95 95q13 14 13.5 31t-13 31q-13.5 14-31 13.5T869-634l-24-25v481q0 18-13 30.5T801-135q-18 0-30.5-12.5T758-178v-480Z"/></svg>