<svg xmlns="http://www.w3.org/2000/svg" width="48" height="48" viewBox="0 96 960 960"><path d="M322.289 804.355Q355 830 395.486 843q40.485 13 84.514 13 117 0 198.5-81.5T760 575.702q0-105.262-68.067-183.456Q623.866 314.051 523 299q-18-2-30.5 9.5T480 338v237.982L318 746q-13 13.177-11.5 30.588Q308 794 322.289 804.355ZM480.5 1001q-90.5 0-168.487-32.584-77.988-32.583-134.917-89.512T87.584 743.987Q55 666 55 575.5q0-89.5 32.347-167.05 32.347-77.551 89.512-134.917 57.166-57.366 135.154-90.449Q390 150 480.5 150q89.5 0 167.106 32.954 77.605 32.953 135.012 90.302 57.407 57.349 90.395 134.877Q906 485.66 906 576q0 90-33.084 167.987-33.083 77.988-90.449 135.154T647.55 968.653Q570 1001 480.5 1001Zm-.5-425Zm-.183 331Q621 907 716 812.674q95-94.325 95-236.5Q811 434 716.183 339.5t-236-94.5Q339 245 244 339.326q-95 94.325-95 236.5Q149 718 243.817 812.5t236 94.5Z"/></svg>