<svg xmlns="http://www.w3.org/2000/svg" width="48" height="48" viewBox="0 -960 960 960"><path d="M395.07-255q14.905 0 24.917-10.062Q430-275.125 430-290v-261q0-15.3-10.088-25.65-10.087-10.35-25-10.35Q380-587 369.5-576.65 359-566.3 359-551v261q0 14.875 10.37 24.938Q379.74-255 395.07-255Zm171 0q14.905 0 24.917-10.062Q601-275.125 601-290v-261q0-15.3-10.088-25.65-10.087-10.35-25-10.35Q551-587 540.5-576.65 530-566.3 530-551v261q0 14.875 10.37 24.938Q550.74-255 566.07-255ZM378.124-860q-18.249 0-29.686-12.175-11.438-12.176-11.438-30Q337-920 348.438-931.5q11.437-11.5 29.686-11.5h203.752q18.249 0 29.686 11.488Q623-920.024 623-901.825 623-884 611.562-872q-11.437 12-29.686 12H378.124ZM479.767-35q-80.234 0-150.177-30.339-69.943-30.338-122.266-82.5Q155-200 125-269.857q-30-69.856-30-150Q95-500 125.091-569.955q30.091-69.954 82.413-122.46 52.323-52.506 122.264-83.046Q399.71-806 480-806q69 0 130 22t108 63l31-31q13-13 30-13t30 13.5q13 13.5 13 30.5t-13 30l-30 30q37 42 62 101t25 140q0 80.356-30.402 150.4-30.402 70.044-82.868 122.065-52.465 52.021-122.598 82.278Q560-35 479.767-35Z"/></svg>