<svg xmlns="http://www.w3.org/2000/svg" width="48" height="48" viewBox="0 -960 960 960"><path d="m810-223-71-70q13-21 22.5-53.842T771-420q0-122.243-84.309-206.621Q602.382-711 480.237-711 440-711 406.5-702q-33.5 9-53.5 24l-71-72q43.317-28 94.054-42Q426.79-806 480-806q72 0 133.204 22.5 61.203 22.5 105.94 63.5L750-751q13-13 29.5-13t29.5 13.5q13 13.5 13 30T809-691l-30 30q45 48 66 110t21 130.647Q866-366 852-316q-14 50-42 93ZM521-510v-83.667q0-13.236-8.5-21.784Q504-624 491-624q-12 0-20 8t-8 19v28l58 59ZM479.523-35Q399.5-35 329.75-65.5T207.5-148Q155-200 125-270.017T95-420.358Q95-482 113.5-540 132-598 174-654L74-754q-11-11-11-25t11-25q11-11 25.5-11t25.5 11l705 704q11 11 11 24.622T830-50q-11 11-25.5 11T779-50l-66-64q-47.698 38-105.349 58.5T479.523-35Zm.955-95q48.522 0 89.913-13.28Q611.783-156.56 648-183L245-588q-27 37-41.5 80.5T189-420q0 122.243 84.519 206.121Q358.037-130 480.478-130ZM378.124-860Q360-860 348.5-872T337-902q0-18 11.5-29.5t29.624-11.5h203.752Q600-943 611.5-931.5T623-902q0 18-11.5 30t-29.624 12H378.124ZM447-386Zm99-99Z"/></svg>