<svg xmlns="http://www.w3.org/2000/svg" width="48" height="48" viewBox="0 -960 960 960"><path d="M142-228q-19.75 0-33.37-13.68Q95-255.35 95-275.68q0-20.32 13.63-33.82Q122.25-323 142-323h480q19.75 0 33.38 13.68 13.62 13.67 13.62 34 0 20.32-13.62 33.82Q641.75-228 622-228H142Zm0-205q-19.75 0-33.37-13.68Q95-460.35 95-480.18q0-19.82 13.63-33.32Q122.25-527 142-527h480q19.75 0 33.38 13.68Q669-499.65 669-479.82q0 19.82-13.62 33.32Q641.75-433 622-433H142Zm0-204q-19.75 0-33.37-13.68Q95-664.35 95-684.68q0-20.32 13.63-33.82Q122.25-732 142-732h480q19.75 0 33.38 13.68 13.62 13.67 13.62 34 0 20.32-13.62 33.82Q641.75-637 622-637H142Zm676.75 409Q799-228 785-242.02q-14-14.03-14-33.98 0-19.35 14.13-33.17Q799.25-323 819.25-323q19.24 0 33 13.96 13.75 13.95 13.75 34Q866-256 852.25-242q-13.76 14-33.5 14Zm0-205Q799-433 785-446.38t-14-32.37Q771-499 785.13-513q14.12-14 34.12-14 19.24 0 33 14Q866-499 866-478.25q0 18.74-13.75 32Q838.49-433 818.75-433Zm0-204Q799-637 785-650.53q-14-13.52-14-34.47 0-18.35 14.13-32.17Q799.25-731 819.25-731q19.24 0 33 13.96 13.75 13.95 13.75 33 0 20.04-13.75 33.54-13.76 13.5-33.5 13.5Z"/></svg>