<svg xmlns="http://www.w3.org/2000/svg" width="48" height="48" viewBox="0 96 960 960"><path d="M358.817 752Q318 752 290 723.817q-28-28.183-28-69T290.183 586q28.183-28 69-28T428 586.183q28 28.183 28 69T427.817 724q-28.183 28-69 28ZM189 1001q-39.05 0-66.525-27.475Q95 946.05 95 907V305q0-39.463 27.475-67.231Q149.95 210 189 210h56v-19q0-15.6 12.393-28.3 12.393-12.7 28.8-12.7 16.832 0 28.82 12.7Q327 175.4 327 191v19h306v-19q0-15.6 12.393-28.3 12.393-12.7 28.8-12.7 16.832 0 28.82 12.7Q715 175.4 715 191v19h56q39.463 0 67.231 27.769Q866 265.537 866 305v602q0 39.05-27.769 66.525Q810.463 1001 771 1001H189Zm0-94h582V486H189v421Zm0-481h582V305H189v121Zm0 0V305v121Z"/></svg>