<svg xmlns="http://www.w3.org/2000/svg" width="48" height="48" viewBox="0 -960 960 960"><path d="M280-490h400q12.75 0 21.375-8.675 8.625-8.676 8.625-21.5 0-12.825-8.625-21.325T680-550H280q-12.75 0-21.375 8.675-8.625 8.676-8.625 21.5 0 12.825 8.625 21.325T280-490Zm0 160h240q12.75 0 21.375-8.675 8.625-8.676 8.625-21.5 0-12.825-8.625-21.325T520-390H280q-12.75 0-21.375 8.675-8.625 8.676-8.625 21.5 0 12.825 8.625 21.325T280-330ZM150-135q-39.05 0-66.525-27.975Q56-190.95 56-229v-513q0-38.463 27.475-66.731Q110.95-837 150-837h221q18.444 0 36.222 8 17.778 8 30.866 21.088L481-766h331q38.463 0 66.731 28.269Q907-709.463 907-671v442q0 38.05-28.269 66.025Q850.463-135 812-135H150Z"/></svg>