<svg xmlns="http://www.w3.org/2000/svg" width="48" height="48" viewBox="0 96 960 960"><path d="M671.626 918q61.988 0 106.181-43.929Q822 830.143 822 768v-45H522v45q0 62.143 43.819 106.071Q609.638 918 671.626 918ZM522 643h110V505q-47 13-77.5 50.5T522 643Zm190 0h110q-2-50-32.5-87.5T712 505v138Zm-39.769 358q-97.758 0-165.495-67.782Q439 865.436 439 768V658q0-96.527 67.8-164.764Q574.601 425 672.064 425q97.463 0 165.7 68.236Q906 561.473 906 658v110q0 97.436-68.006 165.218Q769.989 1001 672.231 1001ZM149 827V325v502Zm0 94q-39.05 0-66.525-27.475Q55 866.05 55 827V325q0-39.463 27.475-67.231Q109.95 230 149 230h662q39.463 0 67.231 27.769Q906 285.537 906 325v154q-19.825-23.72-43.412-42.36Q839 418 811 404v-79H149v502h238q3 25.836 12 49.418T422 921H149Z"/></svg>