<svg xmlns="http://www.w3.org/2000/svg" width="48" height="48" viewBox="0 -960 960 960"><path d="M297-75q-23-6-30-28.5t10-39.5l25-25q-70-4-118.5-57T135-351v-369q0-51.793 23-87.397Q181-843 225-864.5T333.5-896Q398-906 480-906q86 0 150.5 9.5t108 31Q782-844 804-808.397q22 35.604 22 88.397v369q0 73-49 126t-119 57l25 25q17 17 10 39.5T663-75q-10.077 2-19.538-1-9.462-3-16.644-10.09L547-166H413l-79.818 79.91Q326-79 316.538-76q-9.461 3-19.538 1Zm-68-461h225v-155H229v155Zm285 0h217v-155H514v155ZM340-311q22 0 38.5-16t16.5-39q0-22-16.5-38.5T340-421q-23 0-39 16.5T285-366q0 23 16 39t39 16Zm281 0q22 0 38.5-16t16.5-39q0-22-16.5-38.5T621-421q-23 0-39 16.5T566-366q0 23 16 39t39 16Z"/></svg>