<svg xmlns="http://www.w3.org/2000/svg" width="48" height="48" viewBox="0 -960 960 960"><path d="M479.798-351Q540-351 581.5-392.298t41.5-101.5Q623-554 581.702-595.5t-101.5-41.5Q420-637 378.5-595.702t-41.5 101.5Q337-434 378.298-392.5t101.5 41.5ZM433-92h-33q-19.75 0-33.375-13.675Q353-119.351 353-140.175 353-160 366.625-173.5 380.25-187 400-187h33v-75q-84.333-18.103-137.167-82.551Q243-409 243-494q0-36 10-69.11T282-626l-33-33-35 35q-10 9-21.5 9t-20.5-9q-10-9-10-21.1 0-12.1 10-20.9l35-35-81-80v45q0 19.75-13.675 33.375Q98.649-689 78.825-689 59-689 45.5-702.625 32-716.25 32-736v-160q0-19.75 13.625-33.375T79-943h160q19.75 0 33.375 13.675Q286-915.649 286-895.825 286-876 272.375-862.5 258.75-849 239-849h-46l81 81 34-35q9-9 21.1-9 12.1 0 20.9 9 9 9 9 21.1 0 12.1-9 20.9l-35 35 35 35q29-20 61.5-30t68.5-10q36 0 69 9.5t62 29.5l156-157h-46q-19.75 0-33.375-13.675Q674-876.351 674-896.175 674-916 687.625-929.5 701.25-943 721-943h160q19.75 0 33.875 13.625T929-896v160q0 19.75-14.175 33.375-14.176 13.625-34 13.625Q861-689 847.5-702.625 834-716.25 834-736v-45L679-625q19 29 28.5 62.273T717-494q0 85-52.833 149.449Q611.333-280.103 527-262v75h33q19.75 0 33.375 13.675Q607-159.649 607-139.825 607-119 593.375-105.5 579.75-92 560-92h-33v28q0 19.75-13.675 33.375Q499.649-17 479.825-17 460-17 446.5-30.625 433-44.25 433-64v-28Z"/></svg>