<svg xmlns="http://www.w3.org/2000/svg" width="48" height="48" viewBox="0 -960 960 960"><path d="M421-146h116l-59-149-57 149Zm529-368q0 40.42-28.6 67.71Q892.8-419 853-419H541q-19.83 0-33.92-13.92Q493-446.84 493-466.42T507.08-500q14.09-14 33.92-14h315v-342H343v73q0 19.83-14.08 33.92Q314.83-735 295-735q-19.4 0-33.2-14.08Q248-763.17 248-783v-73q0-39 29.38-66.5 29.39-27.5 69.53-27.5h506.18q39.71 0 68.31 27.5T950-856v342Zm-94 0v-342 342ZM401-653h62v-95h39v3q0 12.97 9.02 21.98 9.03 9.02 22 9.02 12.98 0 21.98-9.02 9-9.01 9-21.98v-11q0-19.63-14.12-33.81Q535.75-804 516-804h-68q-19.75 0-33.37 14.19Q401-775.63 401-756v103Zm283 87h68q19 0 33-13.5t14-33.5v-11q0-11.83-9.05-21.42-9.05-9.58-22.07-9.58-13.01 0-21.95 9.58Q737-635.83 737-624v2h-39v-126h39v2q0 12.97 9.02 21.98 9.03 9.02 22 9.02 12.98 0 21.98-9.02 9-9.01 9-21.98v-10q0-20-14-34t-33-14h-68q-19 0-33 14t-14 34v143q0 20 14 33.5t33 13.5ZM253-355q16 14 29 23.5t29 22.5l-47 88q-20-15-37-28.5T191-282l-40 33q-14.09 13-33.55 12.5Q98-237 85-251.5 72-267 74-286t16-32l40-34q-4.18-6.3-8.59-11.65Q117-369 111-374q-16-20-11-38t19.5-29.5q14.5-11.5 35-10.5t34.5 21q1 0 2.5 1t1.5 2q13-19 25-37t24-40H57q-21 0-34-13.18t-13-32.39Q10-571 23.5-584.5T57-598h72v-18q0-20 13.5-33.5T176-663q20 0 33.5 13.5T223-616v18h124q19.4 0 32.7 13.5Q393-571 393-551t-13.3 33q-13.3 13-32.7 13h2q-20 42-45 78.5T253-355ZM393-68l-12 29.3q-4 12.7-15.44 20.2Q354.13-11 340-11q-24.72 0-38.36-20.5T298-75l113-270q6-15 19.5-24t29.04-9h43.35q15.54 0 28.69 9.12Q544.74-359.75 552-346L666-74q10 23-3.9 43t-39.08 20q-15.02 0-27.35-8.4Q583.33-27.8 578-41l-12-27H393Z"/></svg>