<svg xmlns="http://www.w3.org/2000/svg" width="48" height="48" viewBox="0 -960 960 960"><path d="M189-95q-39.05 0-66.53-27.47Q95-149.95 95-189v-582q0-39.46 27.47-67.23Q149.95-866 189-866h121q38.75 0 66.38 27.39Q404-811.21 404-771v582q0 39.8-27.62 66.9Q348.75-95 310-95H189Zm265-10.18q-10-10.17-10-25.4 0-15.23 10.18-25.82 10.17-10.6 26-10.6Q496-167 506-156.23t10 26Q516-115 505.82-105q-10.17 10-26 10Q464-95 454-105.18Zm.5-174.09q-10.5-10.27-10.5-25.5t10.18-25.73q10.17-10.5 26-10.5Q496-341 506-330.19q10 10.82 10 25.37 0 15.4-10.57 25.61Q494.86-269 479.93-269t-25.43-10.27Zm-.5-174.91q-10-10.17-10-26Q444-496 454.18-506q10.17-10 26-10Q496-516 506-505.82q10 10.17 10 26Q516-464 505.82-454q-10.17 10-26 10Q464-444 454-454.18Zm0-175q-10-10.17-10-25.4 0-15.23 10.18-25.82 10.17-10.6 26-10.6Q496-691 506-680.23t10 26Q516-639 505.82-629q-10.17 10-26 10Q464-619 454-629.18Zm0-175q-10-10.17-10-25.4 0-15.23 10.18-25.82 10.17-10.6 26-10.6Q496-866 506-855.23t10 26Q516-814 505.82-804q-10.17 10-26 10Q464-794 454-804.18Zm88.5 611.08Q532-203.2 532-218.18q0-15.82 10.77-26.32t26-10.5Q584-255 594-244.32q10 10.67 10 26Q604-203 593.43-193t-25.5 10q-14.93 0-25.43-10.1Zm.1-175.08q-10.6-10.17-10.6-25.4 0-15.23 10.77-25.82 10.77-10.6 26-10.6T594-419.23q10 10.77 10 26T593.82-368q-10.17 10-25.4 10-15.23 0-25.82-10.18Zm0-174.59q-10.6-10.77-10.6-26T542.77-594q10.77-10 26-10T594-593.82q10 10.17 10 25.4 0 15.23-10.18 25.82-10.17 10.6-25.4 10.6-15.23 0-25.82-10.77Zm-.1-174.33Q532-727.2 532-742.18q0-15.82 10.77-26.32t26-10.5Q584-779 594-768.32q10 10.67 10 26Q604-727 593.43-717t-25.5 10q-14.93 0-25.43-10.1ZM629-105.18q-10-10.17-10-25.4 0-15.23 10.18-25.82 10.17-10.6 25.4-10.6 15.23 0 25.82 10.77 10.6 10.77 10.6 26T680.23-105q-10.77 10-26 10T629-105.18Zm.5-174.09q-10.5-10.27-10.5-25.5t10.18-25.73q10.17-10.5 25.4-10.5 15.23 0 25.82 10.81 10.6 10.82 10.6 25.37 0 15.4-10.57 25.61Q669.86-269 654.93-269t-25.43-10.27Zm-.5-174.91q-10-10.17-10-26Q619-496 629.18-506q10.17-10 25.4-10 15.23 0 25.82 10.18 10.6 10.17 10.6 26Q691-464 680.23-454t-26 10Q639-444 629-454.18Zm0-175q-10-10.17-10-25.4 0-15.23 10.18-25.82 10.17-10.6 25.4-10.6 15.23 0 25.82 10.77 10.6 10.77 10.6 26T680.23-629q-10.77 10-26 10T629-629.18Zm0-175q-10-10.17-10-25.4 0-15.23 10.18-25.82 10.17-10.6 25.4-10.6 15.23 0 25.82 10.77 10.6 10.77 10.6 26T680.23-804q-10.77 10-26 10T629-804.18ZM742.32-182Q727-182 717-192.1t-10-25.08q0-15.82 10.1-26.32t25.08-10.5q15.82 0 26.32 10.68 10.5 10.67 10.5 26Q779-202 768.32-192q-10.67 10-26 10Zm0-175Q727-357 717-367.57t-10-25.5q0-14.93 10.1-25.43t25.08-10.5q15.82 0 26.32 10.77t10.5 26Q779-377 768.32-367q-10.67 10-26 10Zm0-175Q727-532 717-542.57t-10-25.5q0-14.93 10.1-25.43t25.08-10.5q15.82 0 26.32 10.18 10.5 10.17 10.5 25.4 0 15.23-10.68 25.82-10.67 10.6-26 10.6ZM717.5-717.1Q707-727.2 707-742.18q0-15.82 10.18-26.32 10.17-10.5 26-10.5Q759-779 769-768.32q10 10.67 10 26Q779-727 768.43-717t-25.5 10q-14.93 0-25.43-10.1ZM804-105.18q-10-10.17-10-25.4 0-15.23 10.18-25.82 10.17-10.6 25.4-10.6 15.23 0 25.82 10.77 10.6 10.77 10.6 26T855.23-105q-10.77 10-26 10T804-105.18Zm0-174.59q-10-10.77-10-26T804.18-331q10.17-10 25.4-10 15.23 0 25.82 10.18 10.6 10.17 10.6 25.4 0 15.23-10.77 25.82-10.77 10.6-26 10.6T804-279.77Zm0-174.91q-10-10.67-10-25.9 0-15.23 10.18-25.82 10.17-10.6 25.4-10.6 15.23 0 25.82 10.77 10.6 10.77 10.6 26t-10.77 25.73q-10.77 10.5-26 10.5T804-454.68Zm0-175q-10-10.67-10-26Q794-671 804.18-681q10.17-10 25.4-10 15.23 0 25.82 10.1 10.6 10.1 10.6 25.08 0 15.82-10.77 26.32t-26 10.5Q814-619 804-629.68Zm0-174.5q-10-10.17-10-25.4 0-15.23 10.18-25.82 10.17-10.6 25.4-10.6 15.23 0 25.82 10.77 10.6 10.77 10.6 26T855.23-804q-10.77 10-26 10T804-804.18Z"/></svg>