<svg xmlns="http://www.w3.org/2000/svg" width="48" height="48" viewBox="0 96 960 960"><path d="M144 877q-17.425 0-29.213-12.175Q103 852.649 103 835.316q0-17.334 11.787-29.325Q126.575 794 144 794h187q17.05 0 29.525 11.979Q373 817.958 373 835.667 373 853 360.525 865T331 877H144Zm0-519q-17.425 0-29.213-11.979Q103 334.042 103 316.333 103 299 114.787 287q11.788-12 29.213-12h353q17.05 0 29.525 12.175Q539 299.351 539 316.684q0 17.334-12.475 29.325T497 358H144Zm319.035 601Q446 959 433.5 946.875T421 917V752q0-17.425 12.465-29.213Q445.93 711 462.965 711T492 722.787q12 11.788 12 29.213v42h312q17.425 0 29.213 11.979Q857 817.958 857 835.667 857 853 845.213 865 833.425 877 816 877H504v40q0 17.75-11.777 29.875Q480.445 959 463.035 959Zm-132-260Q314 699 302 687.213 290 675.425 290 658v-41H144q-17.425 0-29.213-11.777Q103 593.445 103 576.035q0-17.41 11.787-29.223Q126.575 535 144 535h146v-43q0-17.425 11.777-29.213Q313.555 451 330.965 451 348 451 360.5 462.787 373 474.575 373 492v166q0 17.425-12.465 29.213Q348.07 699 331.035 699ZM463 617q-17.05 0-29.525-11.777Q421 593.445 421 576.035q0-17.41 12.475-29.223Q445.95 535 463 535h353q17.425 0 29.213 11.777Q857 558.555 857 575.965q0 17.41-11.787 29.223Q833.425 617 816 617H463Zm166.035-176Q612 441 599.5 429.213 587 417.425 587 400V235q0-17.75 12.465-29.875t29.5-12.125Q646 193 658 205.125T670 235v40h146q17.425 0 29.213 12.175Q857 299.351 857 316.684q0 17.334-11.787 29.325Q833.425 358 816 358H670v42q0 17.425-11.777 29.213Q646.445 441 629.035 441Z"/></svg>