<svg xmlns="http://www.w3.org/2000/svg" width="48" height="48" viewBox="0 96 960 960"><path d="M414.123 605Q435 605 449.5 590.877q14.5-14.123 14.5-35Q464 535 449.307 521q-14.693-14-35.57-14-20.877 0-34.807 14.123-13.93 14.123-13.93 35Q365 577 379.123 591q14.123 14 35 14Zm132.14 0q20.877 0 34.807-14.123 13.93-14.123 13.93-35Q595 535 580.877 521q-14.123-14-35-14Q525 507 510.5 521.123q-14.5 14.123-14.5 35Q496 577 510.693 591q14.693 14 35.57 14Zm-263.333 0q20.07 0 34.57-14.123t14.5-35Q332 535 317.57 521q-14.43-14-35-14T248 521.123q-14 14.123-14 35Q234 577 248.067 591q14.068 14 34.863 14Zm394.5 0Q698 605 712 590.877t14-35Q726 535 711.933 521q-14.068-14-34.863-14-20.07 0-34.57 14.123t-14.5 35Q628 577 642.43 591q14.43 14 35 14ZM153 959v-99l-2 21q-39.75 0-67.875-27.1T55 787V326q0-40.213 27.1-67.606Q109.2 231 149 231h662q40.213 0 67.606 27.394Q906 285.787 906 326v461q0 40.213-28.625 67.106Q848.75 881 810 881l-3-21v99h-53l-24.829-78H231l-25 78h-53Zm-4-172h662V326H149v461Zm331-230Z"/></svg>