<svg xmlns="http://www.w3.org/2000/svg" width="48" height="48" viewBox="0 96 960 960"><path d="M189 961q-39.05 0-66.525-27.475Q95 906.05 95 867V344q0-17.363 4.222-33.652Q103.444 294.06 115 282l56-76q12-12 27.816-18.5Q214.632 181 233 181h494q18.368 0 33.684 6.5Q776 194 789 206l57 76q9.556 12.06 14.778 28.348Q866 326.637 866 344v523q0 39.05-27.769 66.525Q810.463 961 771 961H189Zm13-639h556l-36.409-46H238.206L202 322Zm-13 545h582V382H189v485Zm291.175-69Q496 798 507 786.737q11-11.262 11-25.737V604l53 53q11 11 26.5 10.5t26.5-12q11-11.5 11-26.744 0-15.245-11-26.756L513 494q-6.6-6.818-15.297-10.409Q489.006 480 479.867 480q-9.14 0-17.703 3.591Q453.6 487.182 447 494L336 604q-11 12-10.5 26t12.007 25q11.508 12 26.747 12T391 655l52-51v157q0 14.475 10.675 25.737Q464.351 798 480.175 798ZM189 867V382v485Z"/></svg>