<svg xmlns="http://www.w3.org/2000/svg" width="48" height="48" viewBox="0 -960 960 960"><path d="m480-852-100 99q-11 11-25.5 11.5T329-753q-12-11-12-26.5t12-26.5l118-120q14-14 33.5-14t33.5 14l120 120q12 11 11 27t-12 26q-12 11-26.5 11T581-753l-101-99Zm0 198-100 99q-11 11-25.5 11.5T329-554q-12-11-12-26.5t12-27.5l118-119q14-14 33.5-14t33.5 14l120 119q12 12 11 27.5T633-554q-12 11-26.5 11T581-554L480-654Zm1 349 101-101q11-11 26-11t26 11q12 11 12 26.5T634-353L514-232q-14 14-34 14t-34-14L328-352q-12-11-11.5-26t11.5-26q11-12 26-12t27 11l100 100Zm0 199 101-101q11-11 26-11t26 11q12 12 12 27t-12 26L514-33q-14 14-34 14t-34-14L328-153q-12-11-11.5-26t11.5-26q11-12 26-12t27 11l100 100Z"/></svg>