<svg xmlns="http://www.w3.org/2000/svg" width="48" height="48" viewBox="0 0 48 48"><path d="M32.8 41.5q.75 0 1.25-.5t.5-1.25q0-.8-.5-1.275Q33.55 38 32.8 38t-1.25.5q-.5.5-.5 1.2 0 .8.5 1.3t1.25.5Zm0-14.8q-1.1 0-2.1.55t-1.65 1.45q-.3.5-.1 1 .2.5.75.75.45.2.9.025.45-.175.8-.625.25-.3.625-.5t.775-.2q.65 0 1.175.425t.525 1.075q0 .55-.35 1-.35.45-.75.75-.45.35-.9.725t-.7.925q-.2.35-.25.775-.05.425-.05.875 0 .5.375.925.375.425.925.425t.925-.325q.375-.325.375-.825 0-.6.35-1.075T35.2 34q.75-.65 1.3-1.5t.55-1.8q0-1.75-1.275-2.875T32.8 26.7Zm-.05 17.25q-4.05 0-6.875-2.825T23.05 34.25q0-4.05 2.825-6.875t6.875-2.825q4.05 0 6.875 2.825t2.825 6.875q0 4.05-2.825 6.875T32.75 43.95Zm-5.3-27.2h7.1l-9.45-9.3 9.45 9.3-9.45-9.3v6.95q0 1 .675 1.675t1.675.675Zm-18 28.5q-2 0-3.35-1.35t-1.35-3.35V7.45q0-2 1.35-3.375T9.45 2.7H25.6q1 0 1.875.4T29 4.15L37.85 13q.65.65 1.05 1.525.4.875.4 1.875v6.75q-1.55-.8-3.225-1.2-1.675-.4-3.325-.4-1.95 0-3.725.525-1.775.525-3.275 1.475H15.7q-.75 0-1.25.5t-.5 1.25q0 .75.5 1.275.5.525 1.25.525h6.55q-.75 1.1-1.275 2.35-.525 1.25-.725 2.6H15.7q-.75 0-1.25.5t-.5 1.25q0 .75.525 1.275.525.525 1.275.525h4.35q.35 3 1.925 5.5 1.575 2.5 4.175 4.15Z"/></svg>