<svg xmlns="http://www.w3.org/2000/svg" width="48" height="48" viewBox="0 96 960 960"><path d="M480 1001q-90 0-168-32.5T177 879q-57-57-89.5-135T55 576q0-72 21-136.5T136 322l-89-89q-10-10-10-25.5T47 182q10-10 25-10t26 10l773 773q10 11 10 26t-10 25q-10 10-25 10t-25-10l-87-86q-53 39-117.5 60T480 1001Zm353-185L603 588l77-77q14-14 14-32.5T680 445q-15-13-34-12.5T613 446l-75 75-298-298q51-35 111.5-54T480 150q90 0 167.5 33t135 90.5Q840 331 873 408.5T906 576q0 68-19 128.5T833 816ZM503 688l-66-65-28 27-99-99q-9-2-18.5 1T274 563q-13 14-13 32.5t13 31.5l112 113q13 14 32.5 14t33.5-14l51-52Z"/></svg>