<svg xmlns="http://www.w3.org/2000/svg" width="48" height="48" viewBox="0 -960 960 960"><path d="M773-40q-77.605 0-132.302-54Q586-148 586-226.014q0-78.014 54.698-133Q695.395-414 773-414q77.605 0 132.302 54.986Q960-304.028 960-226.014 960-148 905.302-94 850.605-40 773-40Zm-87-164h174q11.2 0 18.6-7.357 7.4-7.357 7.4-18.5t-7.4-18.643q-7.4-7.5-18.6-7.5H686q-11.2 0-18.6 7.357-7.4 7.357-7.4 18.5t7.4 18.643q7.4 7.5 18.6 7.5Zm-537 69q-39.05 0-66.525-27.975Q55-190.95 55-229v-502q0-38.463 27.475-66.731Q109.95-826 149-826h662q38.463 0 66.731 28.269Q906-769.463 906-731v297q-27.973-19.571-63.576-29.786Q806.82-474 772.809-474q-46.809 0-90.292 19.117-43.483 19.116-78 52Q570-370 548.5-325 527-280 526-229q0 27 4.5 50t14.5 44H149Zm331-306q7 0 13-1.5t13.135-5.549l288.649-189.87Q802-642 806.5-649.25 811-656.5 811-666q0-22-18-31.5t-36 1.5L480-518 203-696q-18-11-36-1.23t-18 30.83q0 9.4 5 16.9 5 7.5 12.189 11.581l287.693 189.87Q461-444 467-442.5t13 1.5Z"/></svg>