<svg xmlns="http://www.w3.org/2000/svg" width="48" height="48" viewBox="0 -960 960 960"><path d="M420.5-80.84q-23.5-23.83-23.5-60.2Q397-164 407.5-183t31.5-32v-94H302q-33.7 0-58.35-24.65T219-392v-102q-21-12-31.5-31.19Q177-544.39 177-568q0-37.35 23.75-60.17 23.75-22.83 60-22.83Q298-651 321-628.03t23 60.53q0 23.99-11 42.74-11 18.76-31 29.97V-392h137v-340h-45q-15.5 0-21.25-12.5T375-770l86-116q8.31-9 19.15-9 10.85 0 18.85 9l86 116q8 13 2.25 25.5T566-732h-45v340h137v-93h-19q-9 0-16-7.1t-7-16.9v-119q0-9 7.5-16t16.5-7h120q9 0 16 7.1t7 16.9v119q0 9-7 16t-16 7h-19v93q0 33.7-24.65 58.35T658-309H521v92q21 14 31.5 34.69Q563-161.62 563-141q0 36.35-23.25 60.18Q516.5-57 480.25-57T420.5-80.84Z"/></svg>