<svg xmlns="http://www.w3.org/2000/svg" width="48" height="48" viewBox="0 -960 960 960"><path d="M433-786H320q-19.75 0-33.375-13.675Q273-813.351 273-833.088q0-19.737 13.625-33.824Q300.25-881 320-881h320q19.75 0 33.375 14.263t13.625 34Q687-813 673.375-799.5 659.75-786 640-786H527v113q0 19.75-13.675 33.375Q499.649-626 479.825-626 460-626 446.5-639.625 433-653.25 433-673v-113ZM120-96.337v-300.326q0-20.087 13.675-33.712Q147.351-444 167.175-444 187-444 200.5-430.305q13.5 13.695 13.5 33.16V-396h116v-106h-1.444q-20.306 0-33.931-13.675Q281-529.351 281-549.175 281-569 294.625-582.5 308.25-596 329-596h302.904q19.846 0 33.471 13.675Q679-568.649 679-548.825 679-529 665.305-515.5 651.61-502 632.145-502H631v106h115v-1.389q0-19.361 13.675-32.986Q773.351-444 793.088-444q19.737 0 33.824 13.625Q841-416.75 841-396.663v300.326q0 20.087-14.263 33.712Q812.474-49 792.737-49 773-49 759.5-62.695 746-76.39 746-96.244V-97H214v.778Q214-76 200.325-62.5 186.649-49 166.825-49 147-49 133.5-62.625 120-76.25 120-96.337ZM214-192h532v-110H536v-200H424v200H214v110Zm266 0Z"/></svg>