<svg xmlns="http://www.w3.org/2000/svg" width="48" height="48" viewBox="0 96 960 960"><path d="M865 740 746 621v122l-95-94V325H327l-94-95h418q39.463 0 67.231 27.769Q746 285.537 746 325v206l119-119q10-11 25.5-5.083Q906 412.833 906 428v296q0 15.167-15.5 21.083Q875 751 865 740Zm-31 278L49 232q-11-11-11-25t11.508-25q11.507-12 25.246-12 13.739 0 25.246 12l786 786q11 11.511 10.5 25.756-.5 14.244-12 25.244t-25.5 11q-14 0-25-12ZM489 487Zm-92 92ZM148 230l94 95h-93v502h502v-93l93 93v19q-6 32-32.356 53.5Q685.287 921 651 921H149q-39.05 0-66.525-27.475Q55 866.05 55 827V325q0-34 21.5-60.5T130 232l18-2Zm73 519v-26q0-48.102 48-76.551Q317 618 400 618t131 28.449q48 28.449 48 76.551v26H221Z"/></svg>