<svg xmlns="http://www.w3.org/2000/svg" width="48" height="48" viewBox="0 96 960 960"><path d="M134 850q-39.05 0-66.525-27.475Q40 795.05 40 756V396q0-39.463 27.475-67.231Q94.95 301 134 301h692q39.463 0 67.231 27.769Q921 356.537 921 396v360q0 39.05-27.769 66.525Q865.463 850 826 850H134Zm180.175-140q12.825 0 21.325-8.625T344 680v-74h74q12.75 0 21.375-8.675 8.625-8.676 8.625-21.5 0-12.825-8.625-21.325T418 546h-74v-74q0-12.75-8.675-21.375-8.676-8.625-21.5-8.625-12.825 0-21.325 8.625T284 472v74h-74q-12.75 0-21.375 8.675-8.625 8.676-8.625 21.5 0 12.825 8.625 21.325T210 606h74v74q0 12.75 8.675 21.375 8.676 8.625 21.5 8.625ZM599 692q18 0 31.5-13.5T644 647q0-18-13.5-31.5T599 602q-18 0-31.5 13.5T554 647q0 18 13.5 31.5T599 692Zm90-143q18 0 31.5-13.5T734 504q0-18-13.5-31.5T689 459q-18 0-31.5 13.5T644 504q0 18 13.5 31.5T689 549Z"/></svg>