<svg xmlns="http://www.w3.org/2000/svg" width="48" height="48"><path d="m40.8 45.25-7.55-7.55H6.7q-1.95 0-3.325-1.375Q2 34.95 2 33V15q0-1.6 1.025-2.825T5.5 10.7h.7L2.7 7.15q-.5-.5-.5-1.2t.55-1.25q.55-.5 1.275-.5.725 0 1.225.5l38.1 38.1q.5.5.5 1.225 0 .725-.55 1.225-.5.55-1.25.55t-1.25-.55zm1.7-8.45L38.6 33h2.7V15H20.6l-4.7-4.75h25.4q1.95 0 3.35 1.4 1.4 1.4 1.4 3.35v18q0 1.4-.85 2.475-.85 1.075-2 1.325zM6.7 33h21.8L21 25.5h-3.8v3.7q0 .65-.45 1.075-.45.425-1.05.425-.65 0-1.075-.425-.425-.425-.425-1.075v-3.7h-3.7q-.65 0-1.075-.425Q9 24.65 9 24q0-.65.425-1.075.425-.425 1.075-.425h3.7v-3.8L10.5 15H6.7v18zm27.75-10.35q-.9 0-1.575-.675Q32.2 21.3 32.2 20.4q0-.9.675-1.575.675-.675 1.575-.675.9 0 1.575.675.675.675.675 1.575 0 .9-.675 1.575-.675.675-1.575.675zM17.2 22.5h.7l-.7-.7zm2.3 1.5zm10.1 0z"/></svg>