<svg xmlns="http://www.w3.org/2000/svg" width="48" height="48" viewBox="0 -960 960 960"><path d="M325-541H155q-39.8 0-66.9-27.1Q61-595.2 61-635v-170q0-40.213 27.1-67.606Q115.2-900 155-900h170q40.212 0 67.606 27.394Q420-845.213 420-805v170q0 39.8-27.394 66.9Q365.212-541 325-541Zm-170-94h170v-170H155v170ZM325-61H155q-39.8 0-66.9-27.1Q61-115.2 61-155v-170q0-40.212 27.1-67.606Q115.2-420 155-420h170q40.212 0 67.606 27.394Q420-365.212 420-325v170q0 39.8-27.394 66.9Q365.212-61 325-61Zm-170-94h170v-170H155v170Zm650-386H635q-39.8 0-66.9-27.1Q541-595.2 541-635v-170q0-40.213 27.1-67.606Q595.2-900 635-900h170q40.213 0 67.606 27.394Q900-845.213 900-805v170q0 39.8-27.394 66.9Q845.213-541 805-541Zm-170-94h170v-170H635v170ZM805-61H635q-39.8 0-66.9-27.1Q541-115.2 541-155v-170q0-40.212 27.1-67.606Q595.2-420 635-420h170q40.213 0 67.606 27.394Q900-365.212 900-325v170q0 39.8-27.394 66.9Q845.213-61 805-61Zm-170-94h170v-170H635v170ZM325-635Zm0 310Zm310-310Zm0 310Z"/></svg>