<svg xmlns="http://www.w3.org/2000/svg" width="48" height="48" viewBox="0 -960 960 960"><path d="M95-225v-511q0-20.83 14.12-35.42Q123.24-786 144.62-786q21.38 0 35.88 14.58Q195-756.83 195-736v511q0 21.83-14.62 35.92-14.62 14.08-36 14.08Q123-175 109-189.08 95-203.17 95-225Zm210 50q-21.83 0-35.92-14.08Q255-203.17 255-225v-511q0-20.83 14.08-35.42Q283.17-786 305-786h343q20.83 0 35.42 14.58Q698-756.83 698-736v511q0 21.83-14.58 35.92Q668.83-175 648-175H305Zm453-53v-505q0-21.92 15.56-37.46t38.5-15.54q22.94 0 38.44 15.54Q866-754.92 866-733v505q0 22.92-15.56 37.96T811.94-175q-22.94 0-38.44-15.04Q758-205.08 758-228Z"/></svg>