<svg xmlns="http://www.w3.org/2000/svg" width="48" height="48" viewBox="0 96 960 960"><path d="M133 881q-19.75 0-33.375-13.625T86 834V318q0-19.75 13.625-33.875T133 270h137q19.75 0 33.375 14.125T317 318v516q0 19.75-13.625 33.375T270 881H133Zm277 0q-19.75 0-33.375-13.625T363 834V318q0-19.75 13.625-33.875T410 270h141q19.75 0 33.375 14.125T598 318v516q0 19.75-13.625 33.375T551 881H410Zm281 0q-20.75 0-34.375-13.625T643 834V318q0-19.75 13.625-33.875T691 270h136q19.75 0 33.875 14.125T875 318v516q0 19.75-14.125 33.375T827 881H691Z"/></svg>