<svg xmlns="http://www.w3.org/2000/svg" width="48" height="48" viewBox="0 -960 960 960"><path d="m634-432-77-76q21-44-12.5-69t-62.5-6l-70-71q15-8 33-12t35-4q71 0 120.5 49.5T650-500q0 16-4 36t-12 32Zm148 150-55-56q44-35 76.5-77t52.5-85q-52-110-150.5-175T490-740q-42 0-82 7t-59 16l-66-66q35-16 92.5-28T485-823q137 0 256.5 75T927-538q4 8 5.5 18t1.5 20q0 10-1.5 20.5T927-462q-27 54-64 100t-81 80Zm-1 201L653-207q-35 14-80 22t-93 8q-141 0-260.5-75.5T33-463q-4-8-5.5-17.5T26-500q0-10 2-21t5-18q21-42 52.5-83.5T158-703l-97-97q-11-10-11-24.5T61-849q10-11 25-11t26 11l719 719q10 10 9 24t-9 24q-10 12-25 12t-25-11ZM216-646q-36 29-66 68.5T104-500q52 111 153 175.5T488-260q27 0 55.5-3t44.5-11l-64-64q-8 4-20.5 6t-23.5 2q-70 0-120-49t-50-121q0-11 1.5-23t4.5-21L216-646Zm323 128Zm-137 69Z"/></svg>