<svg xmlns="http://www.w3.org/2000/svg" width="48" height="48" viewBox="0 -960 960 960"><path d="M480.118-330Q551-330 600.5-379.618q49.5-49.617 49.5-120.5Q650-571 600.382-620.5q-49.617-49.5-120.5-49.5Q409-670 359.5-620.382q-49.5 49.617-49.5 120.5Q310-429 359.618-379.5q49.617 49.5 120.5 49.5ZM480-404q-40 0-68-28t-28-68q0-40 28-68t68-28q40 0 68 28t28 68q0 40-28 68t-68 28Zm0 227q-140 0-254.949-77.176Q110.102-331.351 42-454q-6-10.916-9-22.661-3-11.744-3-23.318 0-11.573 3-23.261 3-11.689 9-22.76 68.102-122.649 183.051-199.824Q340-823 480-823t254.949 77.176Q849.898-668.649 918-546q6 10.916 9 22.661 3 11.744 3 23.318 0 11.573-3 23.261-3 11.689-9 22.76-68.102 122.649-183.051 199.824Q620-177 480-177Zm0-323Zm-.08 240Q601-260 701.5-325.5 802-391 855-500q-53-109-153.42-174.5Q601.159-740 480.08-740 359-740 258.5-674.5 158-609 104-500q54 109 154.42 174.5Q358.841-260 479.92-260Z"/></svg>