<svg xmlns="http://www.w3.org/2000/svg" width="48" height="48" viewBox="0 96 960 960"><path d="M517 501 272 257q12-7 37-13t53-6q77 0 126.5 49T538 413q0 24-6.5 49T517 501Zm279 482-91-89v34q-5 14-16.5 23t-27.5 9H64q-20 0-33.5-13.5T17 913v-74q0-44 24.5-78T99 712q69-32 135-47t128-15q23 0 56 4t58 13l-83-84q-5 2-13 4t-18 2q-78 0-126-49t-49-123q0-8 1.5-17t3.5-16L66 260q-10-10-10-25.5T67 208q10-11 25-11t27 11l729 724q10 10 9.5 26T847 983q-12 11-27 11t-24-11Zm-1-304q-11-11-12-27.5t10-29.5q36-44 55-93t19-117q0-67-18.5-115T795 205q-10-13-9.5-29t12.5-28q11-11 25.5-10t24.5 12q45 54 70 117.5T943 412q0 83-26 147.5T845 678q-10 12-24.5 12T795 679ZM647 523q-8-8-9.5-21.5T642 475q8-14 12-29t4-33q0-17-4-32t-11-28q-6-13-5-26.5t11-22.5q13-14 30.5-13t26.5 16q13 24 20 51t7 55q0 29-8 56.5T703 520q-9 16-26 16.5T647 523Z"/></svg>