<svg xmlns="http://www.w3.org/2000/svg" width="48" height="48" viewBox="0 96 960 960"><path d="m104 889 96-217q12-25 35.214-40.5Q258.429 616 287 616h57l57-140q11-28 35.077-44 24.077-16 52.923-16h177q32.348 0 57.174 19.5T756 485l120 417q13 45-15.636 82.5Q831.727 1022 784 1022H190q-51.143 0-79.071-42.5Q83 937 104 889Zm68 50h628L675 499H480l-79.604 200H279L172 939Zm371-704v-80q0-17.75 11.979-29.875T584.667 113Q602 113 614 125.125T626 155v80q0 17.425-12.175 29.213Q601.649 276 584.316 276q-17.334 0-29.325-11.787Q543 252.425 543 235Zm239 93q-13.267 12-29.633 12Q736 340 724 328t-12-28.367q0-16.366 12-29.633l58-57q12-12 27.867-12 15.866 0 29.133 12 12 13.267 12 29.633Q851 259 839 271l-57 57Zm-394 0-57-58q-13-12-13.042-27.867Q317.917 226.267 331 213q12-12 28.5-12t28.5 12l57 57q13 13.267 13 29.633Q458 316 445.5 328t-29 12q-16.5 0-28.5-12Zm412 611H172h628Z"/></svg>