<svg xmlns="http://www.w3.org/2000/svg" width="48" height="48" viewBox="0 96 960 960"><path d="M782.211 379q-41.531 0-71.371-30Q681 319 681 277.105q0-33.955 26.5-77.53t48.679-72.964Q761.118 119 768.059 116 775 113 782 113q7 0 14.441 3 7.441 3 12.38 10.611Q831 156 857.5 199.358 884 242.717 884 277q0 42-29.519 72-29.518 30-72.27 30Zm-221.387 56q-24.324 0-42.574-17.875Q500 399.25 500 374.923q0-13.461 11-33.192T535 305q4.235-7 11.118-11Q553 290 561 290t14.941 4q6.941 4 12.059 11 12 17 23 36.731t11 33.192q0 24.327-18.427 42.202Q585.147 435 560.824 435Zm-444.741 648Q62 1083 23.5 1044.5T-15 951.89V684q0-26.929 11-51.964Q7 607 26 589l284-269q13.957-13 33.478-13Q363 307 377 321l14 15q9 12 10.5 25.769Q403 375.538 396 388l-68 121h448.669q21.076 0 35.203 15.37Q826 539.741 826 561.487q0 22.833-15.37 38.173Q795.26 615 773 615H495q-11.4 0-18.7 6.429-7.3 6.428-7.3 18Q469 651 476.3 658q7.3 7 18.7 7h368q20.94 0 36.97 15.382Q916 695.765 916 718.042 916 739 899.97 754.5T863 770H495q-11.4 0-18.7 7.7-7.3 7.7-7.3 18.3 0 10.6 7.3 17.8 7.3 7.2 18.7 7.2h323q21.84 0 36.92 16.042 15.08 16.042 15.08 37.5T854.92 911q-15.08 15-36.92 15H495q-11.4 0-18.7 7.7-7.3 7.7-7.3 18.3 0 10.6 7.3 17.8 7.3 7.2 18.7 7.2h234q20.94 0 36.47 15.317Q781 1007.63 781 1029.82q0 22.18-15.53 37.68T729 1083H116.083ZM116 999h271V592H252V489L83.825 646.255q-3.95 4.962-9.888 14.819Q68 670.931 68 685v267q0 19 14 33t34 14Zm111-255Z"/></svg>