<svg xmlns="http://www.w3.org/2000/svg" width="48" height="48" viewBox="0 -960 960 960"><path d="M799.825-273Q780-273 766.5-286.675q-13.5-13.676-13.5-33.5Q753-340 766.675-353.5q13.676-13.5 33.5-13.5Q820-367 833.5-353.325q13.5 13.676 13.5 33.5Q847-300 833.325-286.5q-13.676 13.5-33.5 13.5ZM840-433h-40q-19.75 0-33.375-13.675Q753-460.351 753-480.175 753-500 766.625-513.5 780.25-527 800-527h40q19.75 0 33.375 13.675Q887-499.649 887-479.825 887-460 873.375-446.5 859.75-433 840-433Zm40-160h-80q-19.75 0-33.375-13.675Q753-620.351 753-640.175 753-660 766.625-674 780.25-688 800-688h80q19.75 0 33.375 14.103 13.625 14.104 13.625 34Q927-620 913.375-606.5T880-593ZM296-34q-16.684 0-28.816-9.569Q255.053-53.138 250-68l-45-164q-57-37-92.5-102T77-480q0-81 35.5-146.5T205-729l45-163q5.053-14.862 17.184-24.431Q279.316-926 296-926h174q15.684 0 28.316 9.569Q510.947-906.862 516-892l45 163q57 37 92 102.5T688-480q0 81-35 146t-92 102L516-68q-5.053 14.862-17.684 24.431Q485.684-34 470-34H296Zm87-235q88 0 149.5-61T594-480q0-89-61.5-150T383-691q-89 0-150 61t-61 150q0 89 61 150t150 61Z"/></svg>