<svg xmlns="http://www.w3.org/2000/svg" width="48" height="48" viewBox="0 -960 960 960"><path d="M783-268q-20 0-33.5-13.5t-13.5-34q0-20.5 13.5-34T783-363h35q20 0 34 13.5t14 34q0 20.5-14 34T818-268h-35Zm0-165q-20 0-33.5-13.5T736-480q0-20 13.5-33.5T783-527h75q20 0 34 13.5t14 33.5q0 20-14 33.5T858-433h-75Zm0-164q-20 0-33.5-14T736-645.5q0-20.5 14-34t34-13.5h109q20 0 33.5 13.5t13.5 34q0 20.5-13.5 34.5T893-597H783ZM520-330q61-61 61-150t-61-150q-61-61-150-61t-150 61q-61 61-61 150t61 150q61 61 150 61t150-61ZM305-20q-24 0-42.5-14T237-72l-28-103q-7-23-21-45.5T149-271q-40-39-62-92.5T65-480q0-61 21.5-115.5T148-689q27-33 40.5-53.5T209-785l28-104q7-23 25.5-37t42.5-14h130q24 0 42.5 14t25.5 37l29 104q6 23 20.5 45.5T592-689q40 38 62 92t22 117q0 61-22.5 115T591-271q-27 33-40 53.5T532-175L503-72q-7 24-25.5 38T435-20H305Zm9-838h112-112Zm0 755h112-112Zm-22-669q19-5 38.5-8t39.5-3q20 0 40 3t38 8l-22-86H314l-22 86Zm22 669h112l22-85q-19 4-38.5 7t-39.5 3q-20 0-39.5-3t-38.5-7l22 85Z"/></svg>