<svg xmlns="http://www.w3.org/2000/svg" width="48" height="48" viewBox="0 -960 960 960"><path d="M389-396q-15 0-25-9.5T354-430v-100q0-15 10-25t25-10q14 0 24 10t10 25v100q0 15-10 24.5t-24 9.5Zm91 0q-15 0-24.5-9.5T446-430v-60q0-15 9.5-25t24.5-10q15 0 25 10t10 25v60q0 15-10 24.5t-25 9.5Zm92 0q-15 0-25-9.5T537-430v-20q0-15 10-25t25-10q14 0 24 10t10 25v20q0 15-10 24.5t-24 9.5ZM415-20q-24 0-42.5-14T347-72l-28-103q-7-23-21-45.5T259-271q-40-39-62-92.5T175-480q0-61 21.5-115.5T258-689q27-33 40.5-53.5T319-785l28-104q7-23 25.5-37t42.5-14h130q24 0 42.5 14t25.5 37l29 104q6 23 20.5 45.5T702-689q40 38 62 92t22 117q0 61-22.5 115T701-271q-27 33-40 53.5T642-175L613-72q-7 24-25.5 38T545-20H415Zm65-249q89 0 150-61t61-150q0-89-61-150t-150-61q-89 0-150 61t-61 150q0 89 61 150t150 61Z"/></svg>