<svg xmlns="http://www.w3.org/2000/svg" width="48" height="48" viewBox="0 -960 960 960"><path d="M428-34q-32.261 0-57.13-19.5Q346-73 338-103l-36-129q-57-37-92-102t-35-146q0-81 35-146.5T302-729l36-128q8-30 32.87-49.5Q395.739-926 428-926h104q32.261 0 57.13 19.5Q614-887 623-857l35 128q57 37 92.5 102.5T786-480q0 81-35.5 146T658-232l-35 129q-9 30-33.87 49.5Q564.261-34 532-34H428Zm51.986-235Q569-269 630-329.986q61-60.986 61-150Q691-569 630.014-630q-60.986-61-150-61Q391-691 330-630.014q-61 60.986-61 150Q269-391 329.986-330q60.986 61 150 61Z"/></svg>