<svg xmlns="http://www.w3.org/2000/svg" width="48" height="48" viewBox="0 96 960 960"><path d="M135 648q0-68 31.5-135t78.73-129.468q47.231-62.468 102-116.5Q402 213 449 171q6.633-6 14.372-9t16.295-3q8.333 0 17 3 8.666 3 15.333 9 86.33 77.134 176.165 177.067T812 560H709q-25-64-82.5-137T480 269Q357 382 293 478t-64 169.603q0 107.883 67 180.64Q363 901 465 906q8 0 15-.5t15-1.5v96q-8 1-15 1h-15q-142-6-236-106t-94-247Zm323-50Zm152.5 383q-10.5 4-21.196-.075Q578.607 976.85 575 967l-5-9.607q-8-17.393-11.5-35.995-3.5-18.601-3.5-37.706 0-23.354 6.5-45.523Q568 816 578 795q8-16 12.5-32.556 4.5-16.556 4.5-34.531 0-15.308-3.231-29.611Q588.538 684 582 670.125L581 667q-5-10-.731-21.136 4.268-11.136 14.425-14.776Q605 627 615.196 631.075 625.393 635.15 630 645l4 11.038q8 16.962 12 35.037 4 18.074 4 37.1 0 21.794-5.5 42.971Q639 792.323 630 812q-7 16.802-13.5 34.593-6.5 17.791-6.5 37.09 0 14.221 3.5 28.091 3.5 13.87 8.5 26.948l3 5.278q5 10 .35 21.362Q620.7 976.724 610.5 981Zm127.5 0q-10 4-21.196-.075Q705.607 976.85 702 967l-5-9.607q-8-17.393-11-35.995-3-18.601-3-37.706 0-23.354 6-45.523Q695 816 706 795q7-16 12-32.556 5-16.556 5-34.531 0-15.308-3.731-29.611Q715.538 684 709 670.125L708 667q-5-10-.231-21.136 4.768-11.136 14.425-14.776 9.806-4.088 20.502-.013Q753.393 635.15 758 645l4.231 9.052Q769 672.156 773.5 690.578 778 709 778 728.476q0 21.275-5.5 42.583-5.5 21.307-14.5 41.109-8 16.634-14 34.425-6 17.791-6 37.203 0 14.304 3 28.254 3 13.95 8.75 26.672L753 944q4 10-.65 21.362Q747.7 976.724 738 981Zm111.694-349.912Q860 627 870.196 631.075 880.393 635.15 885 645l5 10.038q8 16.962 11.5 35.487 3.5 18.525 3.5 38.025 0 21.45-5.5 42.45-5.5 21-14.5 40-7 17.2-13.5 35.274-6.5 18.075-6.5 37.698 0 14.46 3.5 28.244Q872 926 877 938.722l3 5.278q2 4-4 12t-12 15q-6 7-7.5 10.5t9.5-.5q-11 4-21.696-.075Q833.607 976.85 830 967l-5-9.607q-8-17.393-11.5-35.995-3.5-18.601-3.5-37.706 0-23.354 6.5-45.523Q823 816 833 795q8-16 12.5-32.556 4.5-16.556 4.5-34.531 0-15.308-3.231-29.611Q843.538 684 837 670.125L836 667q-5-10-.731-21.136 4.268-11.136 14.425-14.776Z"/></svg>