<svg xmlns="http://www.w3.org/2000/svg" width="48" height="48" viewBox="0 -960 960 960"><path d="M300-61q-17.85 0-28.925-11.075T260-101v-160q0-17.85 11.075-28.925T300-301h100q17.85 0 28.925 11.075T440-261v160q0 17.85-11.075 28.925T400-61H300Zm20-60h60v-120h-60v120Zm214-20v55.587q0 14.28-8.474 22.346Q517.053-55 504.093-55q-12.96 0-21.526-8.067Q474-71.133 474-85.135V-272q0-14.633 10.683-24.817Q495.367-307 510-307h110q25 0 42.5 17.5T680-247v46q0 18-10 33t-26 23l19 49q6 15-3.031 28T635-55q-9 0-16-5t-11-13l-27.479-68H534Zm246 0v55.587q0 14.28-8.474 22.346Q763.053-55 750.093-55q-12.96 0-21.526-8.067Q720-71.133 720-85.135V-272q0-14.633 10.683-24.817Q741.367-307 756-307h110q25 0 42.5 17.5T926-247v46q0 25.667-17.5 42.833Q891-141 866-141h-86Zm-246-60h86v-46h-86v46Zm246 0h86v-46h-86v46ZM400-898q8 0 16.263 3.5Q424.526-891 431-885q51.063 45.97 110.034 104.007 58.971 58.037 108.866 125.342Q692-600 720-538.5 748-477 748-415q1 21-15.547 34.5Q715.907-367 695-367H295q-40.212 0-67.606 27.394Q200-312.212 200-272v70q0 13-7 22t-18 13q-10 5-20.722 2.794Q143.556-166.412 136-176q-39.564-46.13-60.282-105.124Q55-340.118 55-408q0-68.021 31.5-135.51Q118-611 165.23-673.468q47.231-62.468 102-116.5Q322-844 369-885q6.737-6 14.868-9.5Q392-898 400-898Z"/></svg>