<svg xmlns="http://www.w3.org/2000/svg" width="48" height="48" viewBox="0 -960 960 960"><path d="M393-50q-36.571 0-63.786-25Q302-100 299-137l-33-347q-1-14 6-25.5t19-17.5l1-1q5-2 8.5-6.5t3.5-10.782q0-5.154-3-9.615-3-4.462-8-6.103l-2-1q-12-6-17.5-18.844Q268-593.688 271-608l28-116q3.64-14.667 16.32-25.333Q328-760 345-760h112v-60h-17q-17.875 0-30.438-12.5Q397-845 397-863.5t12.562-31Q422.125-907 440-907h120q18.3 0 31.15 12.562Q604-881.875 604-864q0 19-12.85 31.5T560-820h-16v60h111q16.6 0 29.3 10.5T701-724l26 112q3 14.312-2.5 27.156T707-566l-2 1q-4.941 2.632-7.471 7.737Q695-552.158 695-546.737q0 5.737 3.325 9.862T707-530q12 6 19 18t5 26l-30 349q-3.588 36.753-30.425 61.877Q643.737-50 607-50H393Z"/></svg>