<svg xmlns="http://www.w3.org/2000/svg" width="48" height="48" viewBox="0 -960 960 960"><path d="M236-149q-19.75 0-33.375-13.625T189-196v-273h-76q-16.5 0-22.25-15T97-511l352-316q13.186-12 31.093-12T511-827l352 316q12 12 6.25 27T847-469h-76v273q0 19.75-13.625 33.375T724-149H236Zm47-94h394v-309L480-728 283-551.805V-243Zm197-247Zm.089 166Q517-324 542-349.062q25-25.063 25-61.938 0-25-10-47t-51-83q-6-8-12.5-12t-13.5-4q-7 0-13.5 4T454-541q-41 61-51 83t-10 47q0 36.875 25.089 61.938 25.088 25.062 62 25.062Z"/></svg>