<svg xmlns="http://www.w3.org/2000/svg" width="48" height="48" viewBox="0 -960 960 960"><path d="M612-509H388q-3.737 12.971-12.327 23.986Q367.083-474 356-466l30 329h228l30-329q-11-8-19.5-18.853Q616-495.706 612-509ZM376-673l-13 55q7 7 13.367 16.643Q382.733-591.714 387-581h227.576q3.647-11.429 9.146-20.214Q629.222-610 638-618l-14-55H376Zm17 623q-36.747 0-64.011-24.958Q301.725-99.917 299-137l-33-347q-1-13.889 6-25.444Q279-521 291-527l1-1q4.6-2.237 8.3-6.868 3.7-4.632 3.7-10.388 0-5.18-2.75-9.641-2.75-4.462-8.25-6.103l-2-1q-12-6-17.5-18.844Q268-593.688 271-608l28-116q3.64-14.667 16.681-25.333Q328.722-760 345-760h112v-60h-17q-17.625 0-30.312-12.675-12.688-12.676-12.688-31Q397-882 409.688-894.5 422.375-907 440-907h120q18.05 0 31.025 12.738Q604-881.524 604-863.825 604-845 591.025-832.5T560-820h-16v60h111q16.8 0 29.4 10.5Q697-739 701-724l26 112q3 14.312-2.5 27.156T707-566l-2 1q-5.176 2.421-7.588 7.658T695-546.915q0 6.344 3.3 10.254 3.3 3.911 8.379 6.291 12.889 6.584 19.605 18.477Q733-500 731-486l-30 349q-3.491 36.945-30.252 61.973Q643.987-50 607-50H393Zm107-459Zm0-72Z"/></svg>