<svg xmlns="http://www.w3.org/2000/svg" width="48" height="48" viewBox="0 -960 960 960"><path d="M124-80q-19 0-30.5-14.5T84-129q17-132 40.5-235T176-537.5q28-70.5 61-107t70-36.5q45 0 89 77.5T464-425q13-97 34.5-180.5t47-144.5q25.5-61 53.5-96t55-35q37 0 72 48t64 141q29 93 51.5 229T878-151q2 28-8 49.5T836-80q-22 0-37.5-13.5T777-128q-28-86-63-155.5T654-353q-23 0-55.5 68.5T541-132q-7 21-22.5 36.5T481-80q-23 0-37.5-16T426-135q-11-78-25.5-148.5t-31-128Q353-469 337-510t-30-60q-22 27-41.5 69.5t-36 99Q213-345 199.5-276T176-129q-3 21-17.5 35T124-80Zm425-265q21-48 49.5-75t55.5-27q27 0 57.5 27.5T762-345q-12-124-41.5-253.5T654-770q-35 40-63 166t-42 259Z"/></svg>