<svg xmlns="http://www.w3.org/2000/svg" width="48" height="48" viewBox="0 -960 960 960"><path d="M269-188q-34 0-57.5-23.5T188-269v-423q0-34 23.5-57t57.5-23h423q33 0 56.5 23.5T772-692v423q0 34-23 57.5T692-188H269Zm0 93h423q73 0 123.5-50.5T866-269v-423q0-72-51-123t-123-51H269q-73 0-123.5 50.5T95-692v423q0 73 50.5 123.5T269-95Zm211-513q-39 0-76.5 10T334-565q-15 9-32 9t-30-12q-12-12-10.5-27.5T276-620q45-34 96-50t108-16q59 0 110.5 15.5T687-619q13 9 12 24t-12 26q-11 11-27 13.5t-30-6.5q-31-24-70.5-35T480-608Zm2 169q-14 0-28.5 4.5T426-423q-18 10-32.5 6.5T370-429q-9-9-11-22.5t8-22.5q18-19 47.5-30.5T481-516q38 0 68.5 12t48.5 31q8 10 6 22t-11 21q-9 9-24.5 12t-34.5-7q-12-7-25.5-10.5T482-439Zm-28 143q-10-10-10-25.5t10-25.5q10-10 26-10t26 10q10 10 10 25.5T506-296q-10 10-26 10t-26-10Zm26-184Z"/></svg>