<svg xmlns="http://www.w3.org/2000/svg" width="48" height="48" viewBox="0 -960 960 960"><path d="M201-147q-12 12-30.5 11T141-151q-51-58-79-131.5T34-440q0-92 35-173.5t95.5-142Q225-816 306.5-851T480-886q92 0 173.5 35t142 95.5Q856-695 891-613.5T926-440q0 84-28 157.5T819-151q-11 14-30 15t-31-11q-12-12-11.5-29.5T759-209q39-47 61.5-105.5T843-440q0-151-106-257T480-803q-151 0-257 106T117-440q0 67 22 126t62 106q12 15 12 32t-12 29Zm122-122q-13 13-30 12.5T265-270q-28-35-43.5-78T206-440q0-115 79.5-195T480-715q115 0 195 80t80 195q0 49-16 91.5T695-270q-11 14-27.5 14T639-268q-13-13-13-30t9-31q17-23 26.5-51t9.5-60q0-80-55.5-135.5T480-631q-80 0-135.5 55.5T289-440q0 32 9.5 60t26.5 51q9 14 9.5 31T323-269Zm84-98q-30-30-30-73t30-73q30-30 73-30t73 30q30 30 30 73t-30 73q-30 30-73 30t-73-30Z"/></svg>