<svg xmlns="http://www.w3.org/2000/svg" width="48" height="48" viewBox="0 -960 960 960"><path d="M670-591 517.243-745.757Q500-763.423 507.5-779.712 515-796 530.593-805.833 574-831 616-843t87.989-12Q753-855 797-843q44 12 85 37 15 9 21 25.677 6 16.676-9 32.323L738-591q-15.364 14-34.636 14-19.273 0-33.364-14Zm34-67 104-105q-27-11-52.951-16-25.95-5-50.69-5-22.859 0-48.609 5.5T600-762.67L704-658Zm0 0Zm93 563q-122.098 0-247.049-58Q425-211 318.5-317.5t-165-231.959Q95-674.919 95-796q0-29.429 20-49.714Q135-866 164-866h140q31 0 50.5 16.5T381-802l26.929 109.641Q412-666 406.5-646t-21.729 34.226L281-517q22 36 47 68t57 62q33 35 66.5 61t68.5 44l100-101q17-18 38.151-24 21.151-6 44.849 0l99 23q31 9 47.5 29.044T866-305v141q0 29.571-20.357 49.286Q825.286-95 797-95ZM234-600l80-75-22-96H191q1 36 10.457 77.441T234-600Zm372 367q36 17 79.5 28t85.5 14v-102.822L683-313l-77 80ZM234-600Zm372 367Z"/></svg>