<svg xmlns="http://www.w3.org/2000/svg" width="48" height="48" viewBox="0 -960 960 960"><path d="M708-170h35v-35h-35v35Zm0-110h35v-35h-35v35Zm110 110h35v-35h-35v35ZM679.636-95q-19.431 0-33.034-13.602Q633-122.205 633-141.636V-342q0-20 13.708-34 13.709-14 33.292-14h90q20 0 34 14t14 34v62h62q20 0 34 14t14 34v90q0 19.583-14 33.292Q900-95 880-95H679.636ZM480.26-813q114.259 0 218 40.5Q802-732 890-662q15.492 11.918 24.363 28.62Q923.233-616.678 925-599q1 18.58-5 36.79T901-528l-22 22q-12 15-31.5 16.5T813-501q-14-11-15.5-30.5T808-565l20-22q-78-61-164.117-96-86.117-35-184-35T296-683q-86 35-164 96l348 381 31-31q5-5 16.5-2t32.5 25q12 13 12.5 31T562-151l-30 29q-10 12-23.25 17.5t-28.5 5.5q-15.25 0-28.036-5.5Q439.429-110 429-122L63-527q-12.88-15.905-19.44-34.476Q37-580.048 38-598.5q.759-18.25 9.569-35.375T71-664q89-69 192-109t217.26-40ZM480-462Z"/></svg>