<svg xmlns="http://www.w3.org/2000/svg" width="48" height="48" viewBox="0 96 960 960"><path d="m847 830-62-61q28-42 43-90.5T843 576q0-151-106-257T480 213q-54 0-103 15t-91 42l-60-61q55-37 118.5-58T480 130q92 0 173.5 35t142 95.5Q856 321 891 402.5T926 576q0 71-21 135t-58 119Zm-31 171L307 493q-9 18-13.5 39t-4.5 44q0 31 9 59t27 51q10 16 9.5 33T322 748q-12 12-29.5 11.5T265 747q-28-35-43.5-79T206 576q0-40 10.5-76.5T246 432l-64-64q-30 44-47.5 97T117 576q0 67 22.5 126T203 809q10 15 10 31.5T201 869q-12 12-29.5 11.5T143 868q-51-59-80-133.5T34 576q0-76 23.5-144T123 308l-69-68q-10-10-10-25t11-26q9-9 24.5-9t25.5 9l762 762q9 10 9 25.5t-9 24.5q-11 11-26 11t-25-11Zm-94-296-65-65q7-14 10.5-30t3.5-34q0-80-55.5-135.5T480 385q-18 0-34 3.5T416 399l-65-65q28-15 61-24t68-9q115 0 195 80t80 195q0 35-9 68t-24 61Z"/></svg>