<svg xmlns="http://www.w3.org/2000/svg" width="48" height="48" viewBox="0 -960 960 960"><path d="M229-135q-39.75 0-66.875-27.125T135-229v-310l-40 31q-13.348 11-30.674 8T37-517q-10-13-8.056-30.19Q30.89-564.381 45-574l377-287q14-9 28.211-15 14.21-6 28.789-6 15.579 0 29.789 6Q523-870 536-861l342 261q14 11 18 28.5t-7 32.5q-9 14-25 16.5t-33-2.5l-30-23v53q-20-6-41.5-9.5T717-508q-110.643 0-191.821 80.679Q444-346.643 444-237q0 11 .5 22.615.5 11.616 3.5 23.385 3 21.6-9.625 38.8Q425.75-135 405-135H229ZM563-32q-17 0-28-11.5T524-72q0-16 11-27.5t28-11.5h6q-22-28-33.5-61T524-242q0-66 36.5-118.5T656-437q14-5 26 2.5t18 21.5q5 14-.5 29.5T674-358q-32 17-51.5 48T603-242q0 19 5.5 36.5T624-174v-7q0-12 10-21t29-9q17 0 28.5 11.5T703-172v93q0 19.75-13.625 33.375T656-32h-93Zm233-15q-14 6-26.5-1.5T752-70q-6-14-.5-29.5T777-126q32-16 51.5-47t19.5-69q0-18-5.5-35.5T828-310v7q0 13-10.5 22t-29.5 9q-17 0-28.5-11.5T748-312v-92q0-19.75 13.625-33.375T795-451h93q17 0 28.5 11.5T928-411q0 16-11.5 27.5T889-372h-7q22 28 34 61t12 69q0 67-37 119t-95 76Z"/></svg>