<svg xmlns="http://www.w3.org/2000/svg" width="48" height="48" viewBox="0 96 960 960"><path d="M703 500q-20 0-33-13.395-13-13.394-13-32.5Q657 435 670 422q13-13 32.5-13t32.5 12.895q13 12.894 13 32Q748 473 735.075 486.5 722.15 500 703 500ZM589.889 385.889Q579 375 580 360t12.811-23.111Q617 319 644.355 309q27.355-10 58-10t58.145 10q27.5 10 52.689 27.889 11.811 7.64 12.311 22.876.5 15.235-10.389 26.124Q807.421 394 795 394.5t-22.895-6.5Q756 378 738.76 372q-17.241-6-35.855-6-18.615 0-36.26 6t-33.75 16q-10.474 7-22.895 6.5t-20.111-8.611Zm-77-79Q502 296 502.5 281.147 503 266.294 515 257q40.181-32.123 87.564-50.062Q649.946 189 702.473 189q52.527 0 99.928 17.938Q849.803 224.877 891 257q11 9 11.5 23.922t-10.75 26.425q-7.6 7.803-19.675 8.728-12.075.925-22.506-7.691-31.788-24.657-69.178-38.52Q743 256 702.5 256q-40.5 0-77.971 13.966Q587.059 283.931 556 309q-9.538 7-22.474 6.5t-20.637-8.611ZM796 959q-127 0-251.871-62.054-124.871-62.055-225-161.5Q219 636 157 510.5 95 385 95 259q0-29.286 19.857-49.143T164 190h140q30.611 0 50.306 16Q374 222 381 253l27 110q5 27-.786 46.625Q401.429 429.25 385 443l-105 95q50 79 108.554 136.529Q447.109 732.058 519 772l100-101q18-18 38.5-24.5t45.5-.5l98 24q31.312 8.375 47.656 28.188Q865 718 865 749v140q0 29.857-19.857 49.929Q825.286 959 796 959Z"/></svg>