<svg xmlns="http://www.w3.org/2000/svg" width="48" height="48" viewBox="0 -960 960 960"><path d="M672-258q5-19 8-39.5t3-43.5q0-89-39.5-163T538-627l-61 61q-11 11-26 5t-15-22v-274q0-10 7-17t17-7h274q16 0 22 14.5t-5 26.5l-61 61q58 53 92.5 125.5T817-497q0 76-27.5 140.5T715-242q-15 17-32 12t-11-28ZM226-79q-16 0-22-14.5t6-26.5l60-61q-59-53-92.5-125.5T144-464q0-75 26.5-139.5T244-718q14-16 31.5-11.5T290-702q-5 21-9 41t-4 42q0 89 39.5 163T422-333l61-61q11-11 26.5-5t15.5 22v274q0 10-7.5 17T501-79H226Z"/></svg>