<svg xmlns="http://www.w3.org/2000/svg" width="48" height="48" viewBox="0 -960 960 960"><path d="M149-189v-19.25V-189v-450 450Zm0 94q-39.05 0-66.525-27.475Q55-149.95 55-189v-450q0-39.463 27.475-67.231Q109.95-734 149-734h148v-100q0-38.05 27.475-66.025Q351.95-928 391-928h178q39.05 0 66.525 27.975Q663-872.05 663-834v100h148q39.463 0 67.231 27.769Q906-678.463 906-639v225q-19.828-20.156-43.914-36.078Q838-466 811-475v-164H149v450h324q4 26 14 49.5T512-95H149Zm242-639h178v-100H391v100ZM720-47q-79 0-136-57t-57-136q0-79 57-136t136-57q79 0 136 57t57 136q0 79-57 136T720-47Zm-.5-69q13.5 0 22.5-8.5t9-22q0-13.5-9.1-22.5t-21.9-9q-14 0-22.5 9t-8.5 22.5q0 13.5 8.5 22t22 8.5Zm.5-106q10 0 16.5-6.8T743-246v-96q0-9.2-7-16.1-7-6.9-17-6.9t-16.5 7.4q-6.5 7.4-6.5 16.6v96q0 10.4 7 16.7 7 6.3 17 6.3Z"/></svg>