<svg xmlns="http://www.w3.org/2000/svg" width="48" height="48" viewBox="0 -960 960 960"><path d="M391-734h178v-100H391v100ZM720-47q-79 0-136-57t-57-136q0-79 57-136t136-57q79 0 136 57t57 136q0 79-57 136T720-47ZM149-95q-39.05 0-66.525-27.475Q55-149.95 55-189v-450q0-39.463 27.475-67.231Q109.95-734 149-734h148v-100q0-38.05 27.475-66.025Q351.95-928 391-928h178q39.05 0 66.525 27.975Q663-872.05 663-834v100h148q39.463 0 67.231 27.769Q906-678.463 906-639v153q0 21-19 30.5t-38-2.5q-29-17-61.5-26t-67.5-9q-104 0-178.5 74.5T467-240q0 25 3.5 46t11.5 42q7 21-3.5 39T447-95H149Zm551-103-58-57q-6-6-14-6t-14 6q-5 5-5 13.5t5 14.5l72 74q14.364 14 34.182 14T754-153l74-74q6-6.455 5.5-14.227Q833-249 827-255t-14.5-6q-8.5 0-14.5 6l-57 57v-143q0-8.2-5.9-14.1T721-361q-9 0-15 5.9t-6 14.1v143Z"/></svg>