<svg xmlns="http://www.w3.org/2000/svg" width="48" height="48" viewBox="0 -960 960 960"><path d="M191-97q-38.775 0-66.388-27.612Q97-152.225 97-191v-578q0-38.775 27.612-66.387Q152.225-863 191-863h578q38.775 0 66.387 27.613Q863-807.775 863-769v578q0 38.775-27.613 66.388Q807.775-97 769-97H191Zm-11-83h600v-520H180v520Zm130-310q-12.75 0-21.375-8.675-8.625-8.676-8.625-21.5 0-12.825 8.625-21.325T310-550h330q12.75 0 21.375 8.675 8.625 8.676 8.625 21.5 0 12.825-8.625 21.325T640-490H310Zm0 160q-12.75 0-21.375-8.675-8.625-8.676-8.625-21.5 0-12.825 8.625-21.325T310-390h170q12.75 0 21.375 8.675 8.625 8.676 8.625 21.5 0 12.825-8.625 21.325T480-330H310Z"/></svg>