<svg xmlns="http://www.w3.org/2000/svg" width="48" height="48" viewBox="0 -960 960 960"><path d="M117.37-280v-65.5h205.565v-103.065H119.37v-62.87h203.565V-614.5H117.37V-680h205.565q26.851 0 46.175 19.324 19.325 19.325 19.325 46.176v75.87q0 23.418-13.261 41.165-13.261 17.748-35.739 18.465 21.478.717 35.239 17.798 13.761 17.081 13.761 40.832v74.87q0 26.851-19.325 46.176Q349.786-280 322.935-280H117.37Zm725.26-232.478V-345.5q0 26.851-18.554 46.176Q805.522-280 778.37-280H554.065q-26.851 0-46.175-19.324-19.325-19.325-19.325-46.176v-269q0-26.851 19.325-46.176Q527.214-680 554.065-680H778.37q25.419 0 43.34 19.616 17.92 19.615 20.92 45.884H554.065v269H778.37v-104.109H678v-62.869h164.63Z"/></svg>