<svg xmlns="http://www.w3.org/2000/svg" width="48" height="48" viewBox="0 -960 960 960"><path d="M676.957-400h40v-63h60.891v-33h-60.891v-64h-40v64h-63v33h63v63Zm-209.761 40h50v-90l84 90h66l-112-120 112-120h-66l-84 90v-90h-50v240Zm-232.522 0h133q14 0 24-9.5t10-23.5v-70q0-14-10-23.5t-24-9.5h-83v-54h117v-50h-167v137h117v53h-117v50Zm-52.522 245.978q-27.599 0-47.865-20.265-20.265-20.266-20.265-47.865v-595.696q0-27.697 20.265-48.033 20.266-20.337 47.865-20.337h595.696q27.697 0 48.033 20.337 20.337 20.336 20.337 48.033v595.696q0 27.599-20.337 47.865-20.336 20.265-48.033 20.265H182.152Z"/></svg>