<svg xmlns="http://www.w3.org/2000/svg" width="48" height="48" viewBox="0 -960 960 960"><path d="M142.152-501.478h675.696v-139H142.152v139ZM779.043-81.674v-117.369H661.674v-61.914h117.369v-117.369h61.914v117.369h117.369v61.914H840.957v117.369h-61.914Zm-636.891-72.348q-27.599 0-47.865-20.265-20.265-20.266-20.265-47.865v-515.696q0-27.697 20.265-48.033 20.266-20.337 47.865-20.337h675.696q27.697 0 48.033 20.337 20.337 20.336 20.337 48.033v299.522H779.043q-73.608 0-125.488 51.881-51.881 51.88-51.881 125.488v106.935H142.152Z"/></svg>