<svg xmlns="http://www.w3.org/2000/svg" width="48" height="48" viewBox="0 96 960 960"><path d="M713.217 878.63h38.261v-110h110v-38.26h-110v-110h-38.261v110h-110v38.26h110v110ZM730.348 936q-77.5 0-132.5-55.5t-55-131.5q0-78.435 54.99-133.718Q652.828 560 730.848 560q77 0 132.5 55.282 55.5 55.283 55.5 133.718 0 76-55.5 131.5t-133 55.5Zm-576.326-74.022V372.891L480 128.348l326.218 244.543v140.218q-15.914-6.196-33.066-9.152Q756 501 737.848 500v-93.043L480 213.63 222.152 407.036v386.812h265.457q2.6 18.227 8.876 35.342 6.276 17.114 14.711 32.788H154.022ZM480 503.239Z"/></svg>