<svg xmlns="http://www.w3.org/2000/svg" width="48" height="48" viewBox="0 -960 960 960"><path d="M731.522-638.5h65.5v-128h128V-832h-128v-128h-65.5v128h-128v65.5h128v128ZM480.008-488.565q29.47 0 50.449-20.987 20.978-20.986 20.978-50.456 0-29.47-20.987-50.449-20.986-20.978-50.456-20.978-29.47 0-50.449 20.987-20.978 20.986-20.978 50.456 0 29.47 20.987 50.449 20.986 20.978 50.456 20.978ZM480-74.739Q317.087-213.413 236.511-332.232q-80.576-118.819-80.576-219.799 0-151.845 97.739-241.94 97.739-90.094 226.369-90.094 16.778 0 32.265 1.5 15.487 1.5 31.214 4.465v70.165q-15-4-31-6t-32.522-2q-107.706 0-181.82 73.959-74.115 73.959-74.115 189.951 0 73.829 64.007 170.908Q352.078-284.039 480-164.5q128.935-117.652 191.478-213.641 62.544-95.989 63.978-169.315 0-7.761-.5-15.522t-1.5-15.522h69.37q1 7.761 1 15.522v15.522q-1.674 100.239-82.13 217.858Q641.239-211.978 480-74.739Zm0-494.239Z"/></svg>