<svg xmlns="http://www.w3.org/2000/svg" width="48" height="48" viewBox="0 96 960 960"><path d="M181.196 941.978q-28.448 0-48.409-19.89-19.961-19.891-19.961-48.24V278.152q0-28.447 19.961-48.408 19.961-19.962 48.409-19.962h401.108v68.37H181.196v595.696h595.695V473.5h68.131v400.348q0 28.349-20.017 48.24-20.016 19.89-48.114 19.89H181.196ZM701.794 438v-83.63h-83.751v-62.751h83.631V207.63h62.75v83.75h83.75v62.87h-83.63V438h-62.75ZM239.043 774h480l-144-192-127 167-94-124-115 149Zm-57.847-495.848v595.696-595.696Z"/></svg>