<svg xmlns="http://www.w3.org/2000/svg" width="48" height="48" viewBox="0 -960 960 960"><path d="M498.78-299.76q-40.99 41.19-99.41 41.19-58.41 0-99.61-41.14-40.96-41.02-40.96-98.95t40.96-99.12l161.94-162.7q41.19-40.95 99.66-40.95t99.51 41.04q41.04 41.04 41.04 99.01 0 57.97-40.95 98.92l-162.18 162.7Zm-152.17-47.48q20.78 20.78 50.85 22.72 30.06 1.93 53.78-21.78l57.93-59.18-103.69-103.69L346.54-451q-22.04 22.03-22.04 51.84 0 29.81 22.11 51.92ZM614.17-612.7q-21.08-20.84-51.15-22.78-30.06-1.93-53.54 21.78l-58.41 59.18L555-450.59 614.17-509q21.81-22.13 21.43-51.89-.38-29.76-21.43-51.81ZM182.15-114.02q-28.1 0-48.12-20.01-20.01-20.02-20.01-48.12v-595.7q0-28.2 20.01-48.28 20.02-20.09 48.12-20.09h199.02q6.44-35 34.16-57.5 27.71-22.5 64.67-22.5t64.67 22.5q27.72 22.5 34.16 57.5h199.02q28.2 0 48.28 20.09 20.09 20.08 20.09 48.28v595.7q0 28.1-20.09 48.12-20.08 20.01-48.28 20.01h-595.7Zm0-68.13h595.7v-595.7h-595.7v595.7Zm323.43-624.27q10.85-10.86 10.85-25.58 0-14.72-10.85-25.58-10.86-10.85-25.58-10.85-14.72 0-25.58 10.85-10.85 10.86-10.85 25.58 0 14.72 10.85 25.58 10.86 10.85 25.58 10.85 14.72 0 25.58-10.85ZM182.15-182.15v-595.7 595.7Z"/></svg>