<svg xmlns="http://www.w3.org/2000/svg" width="48" height="48" viewBox="0 -960 960 960"><path d="m372.5-440.282 97.913-268.022 343.37 125.043q61.18 22.046 88.123 80.534 26.942 58.488 5.225 120.401l-44 121L372.5-440.282ZM55.587-419.217l22.63-63.652 764.914 277.543-22.87 64.653L55.587-419.217Zm204.551-68.5q-52.138 0-88.692-36.688-36.555-36.688-36.555-89.065 0-52.139 36.614-88.813 36.615-36.674 88.647-36.674 52.133 0 88.816 36.688 36.684 36.688 36.684 88.827 0 52.377-36.688 89.051t-88.826 36.674Z"/></svg>