<svg xmlns="http://www.w3.org/2000/svg" width="48" height="48" viewBox="0 96 960 960"><path d="m787.304 797.435-51.695-51.696q16.043-29.326 23.804-62.869 7.761-33.544 7.761-67.87 1.761-127.283-88.522-211.565-90.282-84.283-214.326-84.283-32.565 0-65.228 7.881-32.663 7.88-60.228 22.924l-50.696-50.696q40.761-24.761 84.598-36.62 43.837-11.859 91.554-11.859 75.957 0 143.652 28.098 67.696 28.098 118.533 76.935t80.315 115.413Q836.304 537.804 835.304 615q-1 47.239-13.119 93.837-12.12 46.598-34.881 88.598Zm69.522-403.913L687.804 223.5l47.153-41.152L904.739 345.37l-47.913 48.152Zm-19.652 633.588L707.043 897.457q-45 39.761-107.358 62.141-62.359 22.38-129.359 22.38-75.435 0-141.511-28.597-66.076-28.598-114.913-78.435t-77.315-117.033q-28.478-67.196-28.478-144.391 0-64.479 20.88-121.479t64.402-111.239l-51.043-51.282-58.761 58.521-46.913-46.913 58.76-58.76L29.5 216.674l45.87-46.109 807.673 810.674-45.869 45.871ZM470.326 911.609q50.326-1 98.011-17.663 47.685-16.663 87.967-48.707L239.848 428.783q-32.805 40.282-49.587 87.467-16.783 47.185-16.783 98.75 0 124.043 85.402 211.326 85.403 87.283 211.446 85.283Zm-21.87-274.979Zm89.022-88.782Z"/></svg>