<svg xmlns="http://www.w3.org/2000/svg" width="48" height="48" viewBox="0 -960 960 960"><path d="M282.152-202.152h395.696q-4-48.522-29.633-89.028-25.633-40.507-67.172-64.329l37.546-67.269q1.985-3.957.861-8.731t-5.991-6.893q-3.894-2.12-8.274-1.12-4.381 1-6.357 4.709l-38.785 69.335q-19.521-7.761-39.366-12.261-19.845-4.5-40.683-4.5-20.837 0-40.676 4.5-19.84 4.5-39.361 12.261l-38.761-69.283q-2-4.522-6.5-4.761-4.5-.239-9.261 1.789-.239.239-4 14.972l37.761 67.283q-41.727 23.835-67.41 64.362-25.683 40.528-29.634 88.964Zm108.805-59.283q-8.24 0-14-5.964-5.761-5.964-5.761-13.916t5.761-13.917q5.76-5.964 14-5.964 8 0 13.88 5.964 5.88 5.965 5.88 13.917t-5.928 13.916q-5.928 5.964-13.832 5.964Zm178.086 0q-8 0-13.88-5.964-5.88-5.964-5.88-13.916t5.928-13.917q5.928-5.964 13.832-5.964 8.24 0 14 5.964 5.761 5.965 5.761 13.917t-5.761 13.916q-5.76 5.964-14 5.964ZM222.152-74.022q-27.599 0-47.865-20.265-20.265-20.266-20.265-47.865v-675.696q0-27.697 20.265-48.033 20.266-20.337 47.865-20.337H583.63L806.218-663.63v521.478q0 27.599-20.337 47.865-20.336 20.265-48.033 20.265H222.152Zm326.696-557.826v-186H222.152v675.696h515.696v-489.696h-189Zm-326.696-186v186-186 675.696-675.696Z"/></svg>