<svg xmlns="http://www.w3.org/2000/svg" width="48" height="48" viewBox="0 96 960 960"><path d="M223.291 901.5q-29.117 0-48.954-19.837T154.5 832.709q0-29.118 19.837-48.913Q194.174 764 223.291 764q29.118 0 48.913 19.796Q292 803.591 292 832.709q0 29.117-19.796 48.954-19.795 19.837-48.913 19.837Zm0-256.87q-29.117 0-48.954-19.745-19.837-19.746-19.837-48.794t19.837-48.885q19.837-19.836 48.954-19.836 29.118 0 48.913 19.745Q292 546.861 292 575.909t-19.796 48.885q-19.795 19.836-48.913 19.836Zm0-256.63q-29.117 0-48.954-19.796-19.837-19.795-19.837-48.913 0-29.117 19.837-48.954t48.954-19.837q29.118 0 48.913 19.837Q292 290.174 292 319.291q0 29.118-19.796 48.913Q252.409 388 223.291 388Zm256.8 513.5q-29.048 0-48.885-19.837-19.836-19.837-19.836-48.954 0-29.118 19.745-48.913Q450.861 764 479.909 764t48.885 19.796q19.836 19.795 19.836 48.913 0 29.117-19.745 48.954-19.746 19.837-48.794 19.837Zm0-256.87q-29.048 0-48.885-19.745-19.836-19.746-19.836-48.794t19.745-48.885q19.746-19.836 48.794-19.836t48.885 19.745q19.836 19.746 19.836 48.794t-19.745 48.885q-19.746 19.836-48.794 19.836ZM480 388q-29.085 0-48.858-19.773-19.772-19.772-19.772-48.857 0-28.718 19.635-48.794Q450.64 250.5 479.522 250.5q6.956 0 13.913 1.119 6.956 1.12 12.913 3.359-2.08 9.47-2.66 19.072-.579 9.602-.579 19.257 0 22.271 3.748 43.196 3.749 20.926 10.969 41.062-8.717 5.478-18.199 7.957Q490.145 388 480 388Zm283.109 105.37q-83 0-141.5-58.5t-58.5-141.5q0-83 58.5-141.5t141.5-58.5q83 0 141.5 58.5t58.5 141.5q0 83-58.5 141.5t-141.5 58.5Zm-26.4 408.13q-29.118 0-48.913-19.837Q668 861.826 668 832.709q0-29.118 19.796-48.913Q707.591 764 736.709 764q29.117 0 48.954 19.796 19.837 19.795 19.837 48.913 0 29.117-19.837 48.954T736.709 901.5Zm-.079-256.87q-29.085 0-48.857-19.772Q668 605.085 668 576q0-10.145 2.478-19.627 2.479-9.482 7.957-17.96 20.239 7.239 41.217 11.098 20.978 3.859 43.343 3.859 9.576 0 19.025-.74 9.449-.739 19.002-2.739 2.239 5.957 3.359 12.794 1.119 6.837 1.119 13.793 0 28.882-20.076 48.517T736.63 644.63ZM763.109 416q8.956 0 15.554-6.598 6.598-6.598 6.598-15.554 0-8.957-6.598-15.674-6.598-6.718-15.674-6.718t-15.554 6.718q-6.478 6.717-6.478 15.674 0 8.956 6.502 15.554 6.502 6.598 15.65 6.598Zm-21.435-85.022h42.87v-160h-42.87v160Z"/></svg>