<svg xmlns="http://www.w3.org/2000/svg" width="48" height="48" viewBox="0 -960 960 960"><path d="M483.24-319.89 637.35-474l-45.87-45.63-79.33 75.56v-191.28h-64.06v191.28l-75.33-75.56L326.89-474l156.35 154.11ZM182.15-114.02q-28.35 0-48.24-19.89t-19.89-48.24v-595.7q0-28.35 19.89-48.36 19.89-20.01 48.24-20.01h199.02q6.44-35 34.16-57.5 27.71-22.5 64.67-22.5t64.67 22.5q27.72 22.5 34.16 57.5h199.02q28.35 0 48.36 20.01 20.01 20.01 20.01 48.36v595.7q0 28.35-20.01 48.24t-48.36 19.89h-595.7Zm323.43-692.4q10.85-10.86 10.85-25.58 0-14.72-10.85-25.58-10.86-10.85-25.58-10.85-14.72 0-25.58 10.85-10.85 10.86-10.85 25.58 0 14.72 10.85 25.58 10.86 10.85 25.58 10.85 14.72 0 25.58-10.85Z"/></svg>