<svg xmlns="http://www.w3.org/2000/svg" width="48" height="48" viewBox="0 -960 960 960"><path d="m479.239-329.891 45.631-45.87-72.326-72.087h180.804v-64.065H452.544l72.326-72.565-45.631-45.87L328.891-480l150.348 150.109ZM182.152-114.022q-28.342 0-48.236-19.894t-19.894-48.236v-595.696q0-28.342 19.894-48.356 19.894-20.014 48.236-20.014h199.022q6.435-35 34.152-57.5 27.717-22.5 64.674-22.5 36.957 0 64.674 22.5 27.717 22.5 34.152 57.5h199.022q28.342 0 48.356 20.014 20.014 20.014 20.014 48.356v595.696q0 28.342-20.014 48.236t-48.356 19.894H182.152ZM480-795.565q14.829 0 25.632-10.803T516.435-832q0-14.829-10.803-25.632T480-868.435q-14.829 0-25.632 10.803T443.565-832q0 14.829 10.803 25.632T480-795.565Z"/></svg>