<svg xmlns="http://www.w3.org/2000/svg" width="48" height="48" viewBox="0 -960 960 960"><path d="M737.326-324.389q0 105.454-74.686 177.911-74.686 72.456-180.261 72.456-105.575 0-180.346-72.456-74.772-72.457-74.772-177.848v-383.826q0-74.633 53.413-126.349 53.413-51.717 127.748-51.717 74.335 0 127.685 51.717 53.35 51.716 53.35 126.349v363.826q0 43.652-31.555 74.62-31.554 30.967-75.811 30.967-44.257 0-75.609-30.64-31.352-30.64-31.352-74.947v-370h66.457v370q0 16.043 11.972 27.587 11.971 11.543 29.204 11.543t28.735-11.507Q523-328.211 523-344.326v-363.587q.239-47.345-33.38-79.596-33.62-32.252-81.353-32.252t-81.141 32.192q-33.409 32.192-33.409 79.417v383.826q.24 77.821 55.569 130.954 55.329 53.133 133.627 53.133 77.857 0 133.026-53.163 55.17-53.163 54.931-130.924v-396.935h66.456v396.872Z"/></svg>