<svg xmlns="http://www.w3.org/2000/svg" width="48" height="48" viewBox="0 -960 960 960"><path d="M436.48-209.15h87.04v-178.81h58.52V-569.5q0-23.78-25.69-35.16-25.69-11.38-76.35-11.38t-76.35 11.37q-25.69 11.38-25.69 35.15v181.67h58.52v178.7ZM320.72-105.5q-74.07-31.48-128.9-86.32-54.84-54.83-86.32-128.9-31.48-74.07-31.48-159.27 0-85.21 31.48-159.28 31.48-74.08 86.31-128.93 54.82-54.85 128.89-86.43 74.08-31.59 159.29-31.59t159.26 31.55q74.05 31.54 128.96 86.46 54.92 54.91 86.46 128.96 31.55 74.05 31.55 159.26T854.63-320.7q-31.58 74.07-86.43 128.89-54.85 54.83-128.93 86.31-74.07 31.48-159.28 31.48-85.2 0-159.27-31.48Zm400.23-133.51q96.9-96.86 96.9-240.95 0-144.08-96.86-240.99-96.86-96.9-240.95-96.9-144.08 0-240.99 96.86-96.9 96.86-96.9 240.95 0 144.08 96.86 240.99 96.86 96.9 240.95 96.9 144.08 0 240.99-96.86ZM518.02-660.42q15.5-15.38 15.5-37.91 0-22.52-15.5-38.02-15.5-15.5-38.02-15.5-22.52 0-38.02 15.5-15.5 15.5-15.5 38.02 0 22.53 15.5 37.91 15.5 15.38 38.02 15.38 22.52 0 38.02-15.38ZM480-480Z"/></svg>