<svg xmlns="http://www.w3.org/2000/svg" width="48" height="48"><path d="M21.8 37.55h4.4V28.6h2.9v-9.05q0-1.2-1.275-1.775T24 17.2q-2.55 0-3.825.575Q18.9 18.35 18.9 19.5v9.15h2.9zM24 44.3q-4.25 0-7.95-1.575T9.6 38.4q-2.75-2.75-4.325-6.45Q3.7 28.25 3.7 24t1.575-7.95Q6.85 12.35 9.6 9.6t6.45-4.325Q19.75 3.7 24 3.7t7.95 1.575Q35.65 6.85 38.4 9.6t4.325 6.45Q44.3 19.75 44.3 24t-1.575 7.95q-1.575 3.7-4.325 6.45t-6.45 4.325Q28.25 44.3 24 44.3zm0-3.4q7.2 0 12.05-4.85Q40.9 31.2 40.9 24q0-7.2-4.85-12.05Q31.2 7.1 24 7.1q-7.2 0-12.05 4.85Q7.1 16.8 7.1 24q0 7.2 4.85 12.05Q16.8 40.9 24 40.9zm0-25.15q1.15 0 1.925-.75.775-.75.775-1.9t-.775-1.925Q25.15 10.4 24 10.4t-1.925.775q-.775.775-.775 1.925t.775 1.9q.775.75 1.925.75zm0 25.05q-7.15 0-11.975-4.825Q7.2 31.15 7.2 24q0-7.15 4.825-11.975Q16.85 7.2 24 7.2q7.15 0 11.975 4.825Q40.8 16.85 40.8 24q0 7.15-4.825 11.975Q31.15 40.8 24 40.8z"/></svg>