<svg xmlns="http://www.w3.org/2000/svg" width="48" height="48" viewBox="0 -960 960 960"><path d="M342.935-850.522h255.891v34.304h199.283v68.131h-47.065v191.478q-17.435-6.913-39.826-10.75-22.392-3.837-41.305-3.837-19.761 0-42.402 3.881-22.641 3.88-41.151 9.641V-665h-64.317v136.761q-29.521 18.522-57.543 49.543-28.022 31.022-43.783 62.066V-665h-64.065v399h34.152q2.761 37.913 20.337 79.587 17.576 41.674 39.489 72.391H259.087q-27.698 0-48.034-20.265-20.336-20.266-20.336-47.865v-565.935h-47.065v-68.131h199.283v-34.304Zm325.663 347.087q88.817 0 151.425 62.316 62.607 62.315 62.607 150.717 0 88.817-62.591 151.305-62.592 62.488-151.575 62.488-88.703 0-150.681-62.472-61.979-62.472-61.979-151.455 0-88.703 62.196-150.801 62.196-62.098 150.598-62.098Zm-22.555 92.478v129.914l87.435 87.434 29.913-29.913-74.478-74.527v-112.908h-42.87Z"/></svg>