<svg xmlns="http://www.w3.org/2000/svg" width="48" height="48" viewBox="0 -960 960 960"><path d="M218.565-70.435q-28.104 0-48.117-20.013-20.013-20.013-20.013-48.117v-516.853q0-55.8 33.76-97.307 33.761-41.508 86.24-51.884v-85.196h108.13v80h202.87v-80h108.37v85.196q52.239 10.478 86.119 51.935 33.881 41.456 33.881 97.256v516.853q0 28.104-20.084 48.117-20.084 20.013-48.286 20.013h-522.87Zm0-68.13h522.87V-655.5q0-36.323-24.806-61.129-24.806-24.806-61.129-24.806h-351q-35.451 0-60.693 24.806-25.242 24.806-25.242 61.129v516.935Zm397.37-190h62.63v-142.87h-397.13v62.87h334.5v80Zm-397.37 190h522.87-522.87Z"/></svg>