<svg xmlns="http://www.w3.org/2000/svg" width="48" height="48" viewBox="0 96 960 960"><path d="m448.717 732.391 111.522-111.282 111.522 111.282 45.869-45.869L605.348 576 715.63 465.478l-45.869-46.108-109.522 111.521L448.717 419.37l-46.108 46.108L515.13 576 402.609 686.522l46.108 45.869ZM113.304 576l171.152-242.109q14.116-19.702 33.881-31.905 19.764-12.204 43.576-12.204h416.652q28.459 0 48.414 19.956 19.956 19.956 19.956 48.414v435.696q0 28.36-19.956 48.245-19.955 19.885-48.414 19.885H361.913q-23.812 0-43.576-12.259-19.765-12.26-33.881-31.61L113.304 576Z"/></svg>