<svg xmlns="http://www.w3.org/2000/svg" width="48" height="48" viewBox="0 -960 960 960"><path d="M505.326-34.022q-95.08 0-175.768-48.815-80.689-48.815-129.884-130.967L57.13-452.478 80-475.587q17.965-18.125 42.808-20.237 24.844-2.111 45.475 12.324l109.326 80.913v-411.239q0-12.891 9.249-22.641 9.248-9.751 23.173-9.751 12.926 0 22.643 9.751 9.717 9.75 9.717 22.641v535.891L157.174-412.326l95.848 161.13q38.67 69.983 105.903 111.188 67.233 41.204 146.401 41.204 114.196 0 195.152-78.1 80.957-78.099 80.957-191.194v-405.728q0-12.891 9.249-22.641 9.249-9.751 23.174-9.751 12.925 0 22.642 9.751 9.718 9.75 9.718 22.641V-368q0 139.788-99.892 236.883-99.891 97.095-241 97.095Zm-59.283-453.587v-407.174q0-12.891 9.628-22.641 9.627-9.75 22.554-9.75 13.927 0 23.145 9.75 9.217 9.75 9.217 22.641v407.174h-64.544Zm168.196 0v-366.217q0-12.891 9.249-22.641 9.249-9.751 23.174-9.751 12.925 0 22.523 9.751 9.598 9.75 9.598 22.641v366.217h-64.544ZM469.804-293.326Z"/></svg>