<svg xmlns="http://www.w3.org/2000/svg" width="48" height="48" viewBox="0 -960 960 960"><path d="m832.109-246.761-113.87-38.804 84.913-206.913 86.674 168.543q22.392 42.152 1.511 66.283-20.88 24.13-59.228 10.891ZM583-262.37l63.196-390.174q4.239-23.717 18.217-32.717 13.978-9 37.935.239l65.282 26q19.479 8.239 27.218 23.218 7.739 14.978-1.5 37.456L655.239-262.37H583Zm-268.239 0L176.413-598.348q-8.478-20.717-1.62-36.576 6.859-15.859 27.577-24.098l65.521-26q20.718-8.239 35.696-1.239 14.978 7 19.978 33.717L387-262.37h-72.239Zm-175.435 15.609q-38.587 13.478-60.065-10.772-21.478-24.25.913-66.402l86.435-168.543 85.152 206.913-112.435 38.804ZM437-262.37 369.565-698.5q-5-33 13.12-50 18.119-17 50.88-17h102.87q33 0 51 17t13 50L533-262.37h-96Z"/></svg>