<svg xmlns="http://www.w3.org/2000/svg" width="48" height="48" viewBox="0 0 48 48"><path d="M38.95 18.45q-1.35 0-2.35-.975t-1-2.325q0-1.3 1-2.3 1-1 2.35-1 1.3 0 2.3 1 1 1 1 2.3 0 1.35-1 2.325-1 .975-2.3.975Zm-29.9 0q-1.35 0-2.325-.975-.975-.975-.975-2.325 0-1.3.975-2.3.975-1 2.325-1t2.325 1q.975 1 .975 2.3 0 1.35-.975 2.325-.975.975-2.325.975Zm8.3-2.8q.4-1.9.125-3.075Q17.2 11.4 15.95 9.7 14.45 7.75 14 6.05q-.45-1.7-.05-4.45H16q-.3 2.7-.05 3.875.25 1.175 1.5 2.825 1.45 1.9 1.925 3.65.475 1.75.075 3.7Zm6 0q.4-1.95.125-3.125T21.95 9.7Q20.45 7.75 20 6.05q-.45-1.7-.05-4.45h2q-.45 2.25-.1 3.65T23.5 8.3q1.45 1.85 1.9 3.6.45 1.75.05 3.75Zm6 0q.4-1.95.125-3.125T27.95 9.7Q26.45 7.75 26 6.05q-.45-1.7-.05-4.45h2q-.4 2.15-.05 3.6.35 1.45 1.6 3.1 1.45 1.85 1.9 3.6.45 1.75.05 3.75ZM7 44.4q-1.4 0-2.4-1t-1-2.4V25.6h2.15v-1.1q0-1.55 1.075-2.625T9.45 20.8q.85 0 1.625.35t1.325.95l2.15 2.45q.3.3.575.55.275.25.675.5h16.4q.35-.25.65-.5.3-.25.55-.55l2.2-2.45q.55-.6 1.325-.95.775-.35 1.625-.35 1.55 0 2.625 1.075T42.25 24.5v1.1h2.15V41q0 1.4-1 2.4t-2.4 1Zm0-10.3h34V29H7ZM7 41h34v-3.5H7V41Zm17-6.9Zm0 3.4Zm0 0v-3.4Z"/></svg>