<svg xmlns="http://www.w3.org/2000/svg" width="48" height="48" viewBox="0 -960 960 960"><path d="M271.047-610q-30.917 0-53.014-22.098-22.098-22.098-22.098-53.174t22.138-53.174q22.138-22.098 53.054-22.098t53.134 22.126q22.217 22.127 22.217 53.026 0 31.196-22.257 53.294Q301.963-610 271.047-610ZM188.63-69q-19.028 0-33.829-12.37Q140-93.74 140-111.869q-28.599 0-48.365-19.766Q71.87-151.401 71.87-180v-268.37h124.066v-26.565q0-36.674 26.195-62.87Q248.326-564 285-564q20.421 0 38.915 7.701 18.495 7.702 32.346 22.929l52 59q7 8 14.38 14.5 7.381 6.5 15.62 11.5H720v-328.192q0-19.068-12.5-32.568-12.5-13.5-31.5-13.5-9.761 0-18.761 1.88t-15.761 8.641l-49.369 49.37q5.717 18.822.543 37.922-5.174 19.1-16.326 36.295L467.152-792.696q17.196-12.674 37.87-17.467 20.674-4.794 40.587 2.924l52-51q15.277-15.591 35.595-24.176Q653.522-891 676-891q47.348 0 79.859 33.511 32.511 33.511 32.511 80.859v328.26h100V-180q0 28.599-19.836 48.365-19.836 19.766-48.534 19.766 0 18.13-14.801 30.5Q790.398-69 770.37-69H188.63Z"/></svg>