<svg xmlns="http://www.w3.org/2000/svg" width="48" height="48" viewBox="0 -960 960 960"><path d="M446.891-401.326h66.457v-246.457h-66.457v246.457Zm33.492 152.87q13.817 0 23.391-9.837 9.574-9.837 9.574-23.655 0-13.817-9.699-23.391-9.699-9.574-23.766-9.574-13.318 0-23.155 9.699-9.837 9.699-9.837 23.766 0 13.318 9.837 23.155 9.837 9.837 23.655 9.837ZM307.01-74.022q-14.782 0-24.603-9.82-9.82-9.821-9.82-24.245v-679.826q0-14.394 9.82-24.349 9.821-9.956 24.484-9.956h89.044v-64h168.13v64h89.283q14.424 0 24.245 9.956 9.82 9.955 9.82 24.349v679.826q0 14.424-9.82 24.245-9.821 9.82-24.245 9.82H307.01Zm33.947-68.13h278.086v-611.696H340.957v611.696Zm0 0h278.086-278.086Z"/></svg>