<svg xmlns="http://www.w3.org/2000/svg" width="48" height="48" viewBox="0 -960 960 960"><path d="M654.33-179.85q0-14.47.74-28.45.73-13.98 7.97-26.46 10.24-17.72 26.34-30.2 16.1-12.47 27.63-29.05 2.95-3.9 7.19-23.85 0-17.49-13.5-29.09-13.51-11.59-31.18-11.59-17.72 0-31.11 11.58-13.4 11.58-18.8 29.09l-45.44-19.48q10.24-31.19 36.27-50.03 26.02-18.84 59.08-18.84 38.43 0 66.89 24.92 28.46 24.93 28.46 62.43 0 11.24-3 21.1-3 9.86-9.24 18.34-11.72 16.71-27.2 29.69-15.47 12.98-24.95 30.7-6.48 11.71-6 39.19h-50.15Zm.35 95.87q-10.35-9.96-10.35-24.48 0-14.24 10.33-24.59 10.34-10.36 24.85-10.36 14.52 0 24.36 10.36 9.85 10.35 9.85 24.71 0 14.36-9.84 24.34-9.83 9.98-24.33 9.98-14.51 0-24.87-9.96Zm-313.72-58.17Zm-34.07 68.13q-14.66 0-24.48-9.82t-9.82-24.25v-679.82q0-14.4 9.82-24.35 9.82-9.96 24.48-9.96h89.04v-64h168.14v64h89.28q14.42 0 24.24 9.96 9.82 9.95 9.82 24.35v329.41q-17.91-.96-35.06.92-17.15 1.88-33.31 7.36v-303.63H340.96v611.7h144.11q9.47 19.63 22.43 36.66 12.96 17.03 29.11 31.47H306.89Z"/></svg>