<svg xmlns="http://www.w3.org/2000/svg" width="48" height="48" viewBox="0 -960 960 960"><path d="M129.52-234.02q-40.29 0-68.49-28.13-28.2-28.14-28.2-68.33v-299.28q0-40.19 28.2-68.32 28.2-28.14 68.49-28.14h613.07q40.19 0 68.32 28.14 28.13 28.13 28.13 68.32v299.28q0 40.19-28.13 68.33-28.13 28.13-68.32 28.13H129.52Zm171.68-68.13h441.25q11.97 0 20.1-8.29 8.12-8.28 8.12-20.28v-298.8q0-12.04-8.14-20.18-8.14-8.15-20.18-8.15H301.2v355.7Zm567.84-81.74v-192.22h24.07q13.67 0 23.87 10.2 10.19 10.19 10.19 23.87v123.84q0 13.92-10.19 24.11-10.2 10.2-23.87 10.2h-24.07Z"/></svg>