<svg xmlns="http://www.w3.org/2000/svg" width="48" height="48" viewBox="0 96 960 960"><path d="M146.891 947.479q-48.145 0-81.583-33.489-33.439-33.488-33.439-81.294V319.304q0-47.806 33.439-81.294 33.438-33.489 81.583-33.489H480q47.906 0 81.464 33.489 33.558 33.488 33.558 81.294v287.261h59.522q30.468 0 52.147 21.63 21.679 21.629 21.679 52.196v131.587q0 12.666 8.189 20.855t20.615 8.189q12.426 0 20.735-8.189t8.309-20.855V513.609q-33.196-.718-57.794-21.174-24.598-20.457-24.598-52.653V327.63h40v-82.152h45.022v82.152h60v-82.152h45.022v82.152h40v112.152q0 32.196-24.718 52.653-24.717 20.456-57.673 21.174v294.369q0 39.493-27.324 66.899-27.323 27.406-67.108 27.406-39.786 0-67.101-27.406-27.316-27.406-27.316-66.899V668.065h-67.608V791.5q0 65.631-45.294 110.805-45.293 45.174-110.685 45.174H146.891Zm0-65.501h292.152q38 0 64.24-26.119 26.239-26.12 26.239-64.359 0-38.239-26.239-64.359-26.24-26.119-64.24-26.119H249.522q-12.426 0-20.735 8.141t-8.309 20.663q0 12.522 8.309 20.663t20.735 8.141h189.521q13.797 0 23.214 9.513 9.417 9.512 9.417 23.533 0 14.02-9.417 23.237-9.417 9.218-23.214 9.218H249.522q-39.833 0-67.188-27.397-27.356-27.396-27.356-67.049 0-39.791 27.356-66.977 27.355-27.186 67.188-27.186h189.521q23.71 0 46.855 7.88 23.145 7.881 43.624 21.402v-345.5q0-21.011-14.256-35.266-14.255-14.256-35.266-14.256H146.891q-21.011 0-35.266 14.256-14.255 14.255-14.255 35.266v513.392q0 21.011 14.255 35.147 14.255 14.135 35.266 14.135Z"/></svg>