<svg xmlns="http://www.w3.org/2000/svg" width="48" height="48" viewBox="0 -960 960 960"><path d="M247.17-169.73Q154.02-265.45 154.02-408q0-101.41 80.94-220.84Q315.89-748.26 480-887.89q164.11 139.63 245.16 259.05Q806.22-509.41 806.22-408q0 142.55-93.3 238.27-93.29 95.71-232.94 95.71-139.66 0-232.81-95.71Zm417.28-48.31q73.4-75.89 73.4-190.28 0-77.48-65.9-176.91Q606.04-684.65 480-796.89 353.96-684.65 288.05-585.23q-65.9 99.43-65.9 176.91 0 114.39 73.39 190.28 73.38 75.89 184.44 75.89t184.47-75.89ZM360-261.2h240v-60H360v60Zm90-100h60v-90h90v-60h-90v-90h-60v90h-90v60h90v90Zm30-119.76Z"/></svg>