<svg xmlns="http://www.w3.org/2000/svg" width="48" height="48" viewBox="0 -960 960 960"><path d="M449.57-92.09v-312.8L257-212.09 213.09-256l224-224-224-224L257-747.91l192.57 192.56v-312.56H481L696.91-652l-172 172 172 172L481-92.09h-31.43Zm62.86-463.26L609.09-652l-96.66-94.89v191.54Zm0 342L609.09-308l-96.66-96.89v191.54ZM161.79-444.92q-14.86-14.36-14.86-35.08t14.86-36.08q14.86-15.35 35.58-15.35t35.46 15.35q14.74 15.36 14.74 36.08t-14.74 35.08q-14.74 14.35-35.46 14.35t-35.58-14.35Zm565.38 0q-14.74-14.36-14.74-35.08t14.74-36.08q14.74-15.35 35.46-15.35t35.58 15.35q14.86 15.36 14.86 36.08t-14.86 35.08q-14.86 14.35-35.58 14.35t-35.46-14.35Z"/></svg>