<svg xmlns="http://www.w3.org/2000/svg" width="48" height="48" viewBox="0 -960 960 960"><path d="M196.043-259.565q23.479 0 41.457-17.978 17.978-17.979 17.978-41.457T237.5-360.457q-17.978-17.978-41.457-17.978-23.717 0-41.576 17.978-17.858 17.979-17.858 41.457t17.858 41.457q17.859 17.978 41.576 17.978Zm163.852-184q16.918 0 28.229-11.206 11.311-11.205 11.311-28.124 0-16.918-11.206-28.229-11.205-11.311-28.124-11.311-16.918 0-28.229 11.206-11.311 11.205-11.311 28.124 0 16.918 11.206 28.229 11.205 11.311 28.124 11.311Zm0-164q16.918 0 28.229-11.206 11.311-11.205 11.311-28.124 0-16.918-11.206-28.229-11.205-11.311-28.124-11.311-16.918 0-28.229 11.206-11.311 11.205-11.311 28.124 0 16.918 11.206 28.229 11.205 11.311 28.124 11.311Zm-163.852 20q23.479 0 41.457-17.978 17.978-17.979 17.978-41.457T237.5-688.457q-17.978-17.978-41.457-17.978-23.717 0-41.576 17.978-17.858 17.979-17.858 41.457t17.858 41.457q17.859 17.978 41.576 17.978Zm0 164q23.479 0 41.457-17.978 17.978-17.979 17.978-41.457T237.5-524.457q-17.978-17.978-41.457-17.978-23.717 0-41.576 17.978-17.858 17.979-17.858 41.457t17.858 41.457q17.859 17.978 41.576 17.978Zm163.852 148q16.918 0 28.229-11.206 11.311-11.205 11.311-28.124 0-16.918-11.206-28.229-11.205-11.311-28.124-11.311-16.918 0-28.229 11.206-11.311 11.205-11.311 28.124 0 16.918 11.206 28.229 11.205 11.311 28.124 11.311Zm333.105-19q9.478 0 16.957-7.478 7.478-7.479 7.478-16.957 0-9.478-7.478-16.957-7.479-7.478-16.957-7.478-9.478 0-16.957 7.478-7.478 7.479-7.478 16.957 0 9.478 7.478 16.957 7.479 7.478 16.957 7.478Zm0-328q9.478 0 16.957-7.478 7.478-7.479 7.478-16.957 0-9.478-7.478-16.957-7.479-7.478-16.957-7.478-9.478 0-16.957 7.478-7.478 7.479-7.478 16.957 0 9.478 7.478 16.957 7.479 7.478 16.957 7.478Zm0 164q9.478 0 16.957-7.478 7.478-7.479 7.478-16.957 0-9.478-7.478-16.957-7.479-7.478-16.957-7.478-9.478 0-16.957 7.478-7.478 7.479-7.478 16.957 0 9.478 7.478 16.957 7.479 7.478 16.957 7.478Zm-168.105-149q16.918 0 28.229-11.206 11.311-11.205 11.311-28.124 0-16.918-11.206-28.229-11.205-11.311-28.124-11.311-16.918 0-28.229 11.206-11.311 11.205-11.311 28.124 0 16.918 11.206 28.229 11.205 11.311 28.124 11.311Zm0 164q16.918 0 28.229-11.206 11.311-11.205 11.311-28.124 0-16.918-11.206-28.229-11.205-11.311-28.124-11.311-16.918 0-28.229 11.206-11.311 11.205-11.311 28.124 0 16.918 11.206 28.229 11.205 11.311 28.124 11.311Zm0 168q16.918 0 28.229-11.206 11.311-11.205 11.311-28.124 0-16.918-11.206-28.229-11.205-11.311-28.124-11.311-16.918 0-28.229 11.206-11.311 11.205-11.311 28.124 0 16.918 11.206 28.229 11.205 11.311 28.124 11.311ZM114.022-114.022v-732.196h732.196v732.196H114.022Z"/></svg>