<svg xmlns="http://www.w3.org/2000/svg" width="48" height="48" viewBox="0 -960 960 960"><path d="M364.761-75.022q-25.065 0-49.892-3.076-24.826-3.076-44.935-8.228 111.783-42.761 178.011-149.239Q514.174-342.043 514.174-481q0-137.957-66.229-244.554-66.228-106.598-178.011-150.12 17.109-5.152 43.935-8.348 26.827-3.196 51.892-3.196 82.196 0 154.772 32.098t127.293 87.435q54.718 55.337 86.196 129.413Q765.5-564.196 765.5-481q0 83.435-31.859 157.391-31.858 73.957-86.315 129.294Q592.87-138.978 519.913-107q-72.956 31.978-155.152 31.978Z"/></svg>