<svg xmlns="http://www.w3.org/2000/svg" width="48" height="48" viewBox="0 96 960 960"><path d="M78.087 503.565V310.087q0-23.8 16.074-39.9 16.074-16.1 39.836-16.1h134.701q23.762 0 39.836 16.1 16.075 16.1 16.075 39.9v193.478q0 23.8-16.075 39.9-16.074 16.1-39.836 16.1H133.997q-23.762 0-39.836-16.1-16.074-16.1-16.074-39.9Zm335.391 56q-24.039 0-40.019-16.12-15.981-16.12-15.981-39.95V310.18q0-23.83 15.981-39.961 15.98-16.132 40.019-16.132h133.283q23.8 0 39.9 16.121 16.1 16.121 16.1 39.952v193.332q0 23.831-16.1 39.952t-39.9 16.121H413.478Zm277.913 0q-23.8 0-39.9-16.132-16.1-16.131-16.1-39.978V310.197q0-23.847 16.1-39.978 16.1-16.132 39.9-16.132h134.522q23.8 0 39.9 16.132 16.1 16.131 16.1 39.978v193.258q0 23.847-16.1 39.978-16.1 16.132-39.9 16.132H691.391ZM268.609 897.913H134.087q-23.8 0-39.9-16.132-16.1-16.131-16.1-39.978V648.545q0-23.847 16.1-39.978 16.1-16.132 39.9-16.132h134.522q23.8 0 39.9 16.132 16.1 16.131 16.1 39.978v193.258q0 23.847-16.1 39.978-16.1 16.132-39.9 16.132Zm144.869 0q-24.039 0-40.019-16.12-15.981-16.12-15.981-39.95V648.528q0-23.83 15.981-39.961 15.98-16.132 40.019-16.132h133.283q23.8 0 39.9 16.121 16.1 16.121 16.1 39.952v193.331q0 23.832-16.1 39.953-16.1 16.121-39.9 16.121H413.478Zm277.913 0q-23.8 0-39.9-16.132-16.1-16.131-16.1-39.978V648.545q0-23.847 16.1-39.978 16.1-16.132 39.9-16.132h134.522q23.8 0 39.9 16.132 16.1 16.131 16.1 39.978v193.258q0 23.847-16.1 39.978-16.1 16.132-39.9 16.132H691.391Z"/></svg>