<svg xmlns="http://www.w3.org/2000/svg" width="48" height="48" viewBox="0 -960 960 960"><path d="M182.152-74.022q-27.599 0-47.865-20.265-20.265-20.266-20.265-47.865v-615.696q0-27.697 20.265-48.033 20.266-20.337 47.865-20.337H245v-60h69.065v60h331.87v-60H715v60h62.848q27.697 0 48.033 20.337 20.337 20.336 20.337 48.033v272.218q0 14.423-10.012 24.244t-24.489 9.821q-14.478 0-24.174-9.821-9.695-9.821-9.695-24.244V-570H182.152v427.848h305.044q14.477 0 24.271 9.871t9.794 24.37q0 14.498-9.794 24.194-9.794 9.695-24.271 9.695H182.152ZM734.348-40q-78.674 0-133.837-55.282Q545.348-150.565 545.348-229q0-78.435 55.163-133.717Q655.674-418 734.348-418q78.435 0 133.717 55.283Q923.348-307.435 923.348-229q0 78.435-55.283 133.718Q812.783-40 734.348-40Zm58.243-86.326 29.431-29.913-75.239-75.287v-112.909h-41.87v127.845l87.678 90.264Z"/></svg>