<svg xmlns="http://www.w3.org/2000/svg" width="48" height="48" viewBox="0 -960 960 960"><path d="M755.239-74.022q-117.458 0-239.022-56.478-121.565-56.478-225.402-160.315Q186.978-394.652 130.5-516.338 74.022-638.024 74.022-755.239q0-21.711 14.496-36.345 14.497-14.634 36.243-14.634h139.761q18.065 0 30.337 11.555 12.272 11.554 17.228 30.38l26.69 121.815q2.549 17.229-.549 30.762-3.097 13.532-13.239 23.193l-100.967 99.339q25.043 42.087 53.206 78.652 28.163 36.565 62.207 69.609 36.043 37.283 75.25 67.467 39.206 30.185 81.815 52.75l96.196-98.717q11.913-12.674 26.81-17.152 14.897-4.479 30.559-1.522l113.978 25.282q18.827 5.196 30.381 19.153 11.554 13.958 11.554 32.456v136.435q0 21.746-14.65 36.242-14.651 14.497-36.089 14.497ZM189.957-550.87l80.76-80.326-22.598-106.652H142.391q1.761 40.565 12.773 85.856 11.011 45.29 34.793 101.122Zm369.717 363.957q39.804 18.522 86.728 30.283 46.924 11.76 91.207 14v-106.001l-99.413-20.565-78.522 82.283ZM189.957-550.87Zm369.717 363.957Zm131.619-309.978q-81.01 0-137.706-56.837-56.696-56.838-56.696-137.848 0-81.011 56.837-137.826 56.838-56.816 137.848-56.816 81.011 0 137.826 57.016 56.816 57.015 56.816 137.909 0 81.01-57.016 137.706-57.015 56.696-137.909 56.696Zm-22.967-71.435h46.457v-160h-46.457v160Zm23.109-200q9.435 0 16.391-6.837 6.957-6.837 6.957-16.272 0-9.435-6.909-16.391-6.909-6.957-16.439-6.957-9.435 0-16.272 6.909-6.837 6.909-6.837 16.439 0 9.435 6.837 16.272 6.837 6.837 16.272 6.837Z"/></svg>