<svg xmlns="http://www.w3.org/2000/svg" width="48" height="48" viewBox="0 -960 960 960"><path d="m396.456-51.87-45.152-44.913 55.805-55.565H194.022v-62.63h215.087l-57.805-57.804 45.152-44.674L529.37-184.782 396.456-51.869ZM194.022-274.63v-548q0-27.698 20.265-48.034Q234.553-891 262.152-891h435.696q27.697 0 48.033 20.336 20.337 20.336 20.337 48.034v548h-68.37v-81.446q-43.761-25.359-96.764-38.739-53.003-13.381-121.065-13.381t-120.584 13.381q-52.522 13.38-97.283 38.739v81.446h-68.13Zm68.13-152.392q51.283-22.282 106.307-33.543 55.025-11.261 111.545-11.261 56.279 0 111.165 11.261t106.679 33.543V-822.63H262.152v395.608Zm301.196 274.674v-62.63h202.87v62.63h-202.87Zm-83.583-377.478q-46.765 0-79.265-32.735-32.5-32.736-32.5-79.5 0-46.765 32.735-79.265 32.736-32.5 79.5-32.5 46.765 0 79.265 32.735t32.5 79.5q0 46.765-32.735 79.265-32.736 32.5-79.5 32.5Zm.19-61.435q21.471 0 36.041-14.517 14.569-14.518 14.569-35.978 0-21.359-14.524-36.117-14.525-14.757-35.996-14.757-21.471 0-36.041 14.686-14.569 14.686-14.569 36.163 0 21.477 14.524 35.998 14.525 14.522 35.996 14.522ZM480-408.196Zm0-233.63Z"/></svg>