<svg xmlns="http://www.w3.org/2000/svg" width="48" height="48" viewBox="0 -960 960 960"><path d="M480-260q72 0 124.5-52T657-436q0-73-52.5-125.5T480-614q-73 0-125 52.5T303-436q0 72 52 124t125 52Zm0-33-45-102-99-41 99-42 45-102 44 102 99 42-99 41-44 102ZM142.152-114.022q-27.599 0-47.865-20.265-20.265-20.266-20.265-47.865v-508.696q0-26.697 20.265-47.533 20.266-20.837 47.865-20.837h143.413l75.631-89.63h237.847l75.392 89.63h143.413q26.697 0 47.533 20.837 20.837 20.836 20.837 47.533v508.696q0 27.599-20.837 47.865-20.836 20.265-47.533 20.265H142.152Z"/></svg>