<svg xmlns="http://www.w3.org/2000/svg" width="48" height="48" viewBox="0 -960 960 960"><path d="M445.935-69v-125.5H154.5v-68.13h651v68.13H514.065V-69h-68.13Zm-120.76-442.37q12.825 0 21.325-8.675 8.5-8.676 8.5-21.5 0-12.586-8.675-21.205-8.676-8.62-21.5-8.62-12.825 0-21.325 8.795t-8.5 21.381q0 12.824 8.675 21.324 8.676 8.5 21.5 8.5Zm310 0q12.825 0 21.325-8.675 8.5-8.676 8.5-21.5 0-12.586-8.675-21.205-8.676-8.62-21.5-8.62-12.825 0-21.325 8.795t-8.5 21.381q0 12.824 8.675 21.324 8.676 8.5 21.5 8.5ZM194.5-625.15l66.239-193.372q5.518-15.629 18.492-25.488 12.974-9.86 28.769-9.86h344q15.603 0 28.419 9.688 12.817 9.687 18.364 25.182L765.5-625.012v272.642q0 12.892-8.484 21.316-8.483 8.424-21.016 8.424h-12q-12.533 0-21.016-8.424-8.484-8.424-8.484-21.316v-58.26h-429v58.26q0 12.892-8.484 21.316-8.483 8.424-21.016 8.424h-12q-12.533 0-21.016-8.424-8.484-8.424-8.484-21.316v-272.78Zm82.5-41.22h407l-41-122H317l-40 122Zm-17 60v130-130Zm0 130h440v-130H260v130Z"/></svg>