<svg xmlns="http://www.w3.org/2000/svg" width="48" height="48" viewBox="0 -960 960 960"><path d="m705.83-580-4.05-46.48q-11.52-2.76-20.8-8.28-9.28-5.52-15.57-13.28l-40 19.71-31.39-50.3 36.96-26.28q-4.76-10.05-4.76-25.33 0-15.28 4.76-25.33l-36.96-26.76 31.63-49.82 40 19.95q6.28-7.52 14.57-13.04 8.28-5.52 21.56-8.28l4.05-46.48h60.78l4.04 46.72q13.05 2.52 21.3 8.06 8.26 5.55 14.83 13.02l39.76-19.95 31.63 49.82-36.95 26.76q4.52 10.05 4.52 25.33 0 15.28-4.52 25.33l36.95 26.52-31.39 50.3-40-19.95q-6.56 7.61-15.7 13.21-9.15 5.59-20.43 8.35L766.61-580h-60.78Zm77.39-103q19-19 19-47t-19-47q-19-19-47.17-19t-47 19q-18.83 19-18.83 47t18.83 47q18.83 19 47 19t47.17-19ZM285.2-315.2q23 0 39.5-15.5t16.5-38.5q0-23-16.5-39.5t-39.5-16.5q-23 0-38.5 16.5t-15.5 39.5q0 23 15.5 38.5t38.5 15.5Zm388.84 0q23 0 39.5-15.5t16.5-38.5q0-23-16.5-39.5t-39.5-16.5q-23 0-38.5 16.5t-15.5 39.5q0 23 15.5 38.5t38.5 15.5ZM735.59-474q28.91 0 56.65-4.88T846.22-495v345q0 15.39-10.46 25.68-10.46 10.3-25.76 10.3h-13.5q-15.39 0-26.18-10.1-10.8-10.11-10.8-25.4v-48.5H200.48v48.5q0 15.29-10.3 25.4-10.29 10.1-25.68 10.1H150q-15.39 0-25.68-10.3-10.3-10.29-10.3-25.68v-331.2l82.48-240.71q6.72-19.92 23.65-32.11 16.94-12.2 37.85-12.2h225.65q-1.95 9.44-2.69 18.06t-.74 18.16q0 8.54.5 16.11.5 7.56 1.74 16.04H259.67L205.63-534h366.35q32.76 30.76 75.76 45.26 43 14.5 87.85 14.74Z"/></svg>