<svg xmlns="http://www.w3.org/2000/svg" width="48" height="48" viewBox="0 -960 960 960"><path d="M197.044-107.565q-13.653 0-23.848-10.365Q163-128.294 163-141.989V-186.5h-13q-48.145 0-81.823-33.687Q34.5-253.875 34.5-302v-244q0-51.558 30.88-79.333 30.88-27.776 73.12-29.45V-736q0-48.292 30.604-78.896T248-845.5h465q48.292 0 78.396 30.604T821.5-736v81.217q42.239 1.674 73.12 29.45Q925.5-597.558 925.5-546v244q0 48.125-33.687 81.813Q858.125-186.5 810-186.5h-13v44.511q0 13.695-10.196 24.059-10.195 10.365-23.869 10.365t-23.87-10.365q-10.196-10.364-10.196-24.059V-186.5H231.37v44.58q0 13.725-10.336 24.04-10.337 10.315-23.99 10.315ZM150-254.63h660q18.882 0 33.126-14.319Q857.37-283.267 857.37-302v-244q0-18.715-11.298-30.042-11.297-11.328-30.085-11.328-18.787 0-30.072 11.328Q774.63-564.715 774.63-546v178.63H185.37V-546q0-18.715-11.298-30.042-11.297-11.328-30.085-11.328-18.787 0-30.072 11.328Q102.63-564.715 102.63-546v244q0 18.733 14.319 33.051Q131.267-254.63 150-254.63ZM253.5-435.5h453V-546q0-31.921 14.574-53.916 14.574-21.994 32.296-35.106V-736q0-18.882-11.244-30.126t-29.868-11.244H247.742q-18.475 0-29.793 11.244Q206.63-754.882 206.63-736v100.978q17.722 13.112 32.296 35.106Q253.5-577.921 253.5-546v110.5Zm226.5 0Zm0 180.87ZM480-370Z"/></svg>