<svg xmlns="http://www.w3.org/2000/svg" width="48" height="48" viewBox="0 -960 960 960"><path d="M710-526.174v-56.196l-35.239 35.24-22.674-22.913L710-627.957V-670h-42.043l-57.914 57.913-22.913-22.674L622.37-670h-56.196v-32.63h56.196l-35.24-35.24 22.913-23.913 57.914 57.913H710v-41.043l-57.913-57.913 22.674-22.674 35.239 35v-56.435h32.63v56.435l35.24-35 22.913 22.674-58.153 57.913v42.283h42.283l57.913-58.153L865.5-737.87l-35 35.24h56.435V-670H830.5l35 35.239-22.674 22.674L784.913-670H742.63v42.043l58.153 57.914-22.913 22.913-35.24-35.24v56.196H710Zm-49.37 228.435-56.565-56.565v198.369h-408.13v-199.369l-56.565 56.565-46.066-45.826L400-651.261l306.696 306.696-46.066 46.826Zm-399.195 76.304H367.37v-120h65.26v120h105.935v-198.608L400-558.609 261.435-421.043v199.608Zm0 0h277.13-277.13Z"/></svg>