<svg xmlns="http://www.w3.org/2000/svg" width="48" height="48" viewBox="0 -960 960 960"><path d="M319.71-87.77q-17.34-17.34-17.34-41.53 0-23.96 17.34-41.3 17.33-17.33 41.29-17.33t41.29 17.33q17.34 17.34 17.34 41.3 0 24.19-17.34 41.53Q384.96-70.43 361-70.43t-41.29-17.34Zm428.38 0q-17.46-17.34-17.46-41.53 0-23.96 17.46-41.3 17.45-17.33 41.41-17.33 23.96 0 41.41 17.33 17.46 17.34 17.46 41.3 0 24.19-17.46 41.53-17.45 17.34-41.41 17.34-23.96 0-41.41-17.34ZM543.65-647 383.67-839.17q40.11-20.44 83.55-30.54 43.43-10.09 80.43-10.09 52.2 0 101.87 13.83 49.68 13.84 94.31 43.75L543.65-647ZM498-232.83q-83.63 0-140.8-57.29-57.18-57.29-57.18-140.92v-306.07l-27.09-30.85q-26.04-30.56-41.68-40.82-15.64-10.26-30.16-10.26-29.33 0-44.13 22.8-14.81 22.81-14.81 51.28H74.02q0-58.63 36.84-100.54 36.84-41.91 90.47-41.91 29.95 0 56.77 12.86 26.81 12.85 63.57 57.62l426.11 510.3q17.63 20.87 5.34 47.34-12.29 26.46-41.12 26.46H498Z"/></svg>