<svg xmlns="http://www.w3.org/2000/svg" width="48" height="48" viewBox="0 0 48 48"><path d="M18 39.75q-6.1-1.35-10.125-6.275Q3.85 28.55 3.85 22q0-7.55 5.3-12.85T22 3.85q7.55 0 12.85 5.3T40.15 22q0 2.1-.45 4.1-.45 2-1.3 3.75H25.9q-3.35 0-5.7 2.4T17.85 38q0 .45.025.875t.125.875Zm7.7-11.7 2.35-2.35-4.4-4.35v-9h-3.3v10.3Zm.3 15.1h12q2.15 0 3.65-1.5t1.5-3.65q0-2.15-1.5-3.65T38 32.85H26q-2.15 0-3.65 1.5T20.85 38q0 2.15 1.5 3.65t3.65 1.5Zm0-3.65q-.65 0-1.075-.425Q24.5 38.65 24.5 38q0-.65.425-1.075Q25.35 36.5 26 36.5q.65 0 1.075.425.425.425.425 1.075 0 .65-.425 1.075-.425.425-1.075.425Zm6 0q-.65 0-1.075-.425Q30.5 38.65 30.5 38q0-.65.425-1.075Q31.35 36.5 32 36.5q.65 0 1.075.425.425.425.425 1.075 0 .65-.425 1.075-.425.425-1.075.425Zm6 0q-.65 0-1.075-.425Q36.5 38.65 36.5 38q0-.65.425-1.075Q37.35 36.5 38 36.5q.65 0 1.075.425.425.425.425 1.075 0 .65-.425 1.075-.425.425-1.075.425Z"/></svg>