<svg xmlns="http://www.w3.org/2000/svg" width="48" height="48" viewBox="0 -960 960 960"><path d="M336.35-32.83q-25.66 0-45.26-16.72-19.6-16.73-22.87-42.45l-73.48-550.15H765.5L692.02-92q-3.51 25.72-22.99 42.45-19.48 16.72-45.14 16.72H336.35Zm222.49-324.69q32.36-32.3 32.36-78.65v-69.53h-64.79v69.53q0 19.81-13.25 33.11-13.24 13.3-32.98 13.3-19.75 0-33.17-13.3-13.42-13.3-13.42-33.11v-69.53h-64.55v69.53q0 46.35 32.33 78.65 32.33 32.3 78.72 32.3t78.75-32.3Zm46.66-342.96q-22.15 0-38.47-16.31-16.31-16.32-16.31-38.73 0-22.65 16.31-38.47Q583.35-809.8 606-809.8q22.43 0 38.24 15.95 15.8 15.96 15.8 38.83 0 21.91-15.88 38.23-15.89 16.31-38.66 16.31Zm-210.84-37.37q-38.76 0-66.73-27.97-27.97-27.97-27.97-67.23 0-39.49 27.97-66.81 27.97-27.31 67.23-27.31 39.49 0 66.81 27.41 27.31 27.42 27.31 67.21 0 38.76-27.41 66.73-27.42 27.97-67.21 27.97Z"/></svg>