<svg xmlns="http://www.w3.org/2000/svg" width="48" height="48" viewBox="0 -960 960 960"><path d="M113.304-34.5v-296.935q0-80.537 57.076-137.301Q227.456-525.5 307.37-525.5h55.934v-331.87q0-28.103 20.014-48.117 20.013-20.013 48.117-20.013h97.13q28.203 0 48.286 20.013 20.084 20.014 20.084 48.117v331.87h55.695q80.637 0 137.471 56.764t56.834 137.301V-34.5H113.304Zm68.131-68.13H279.5v-125.935q0-14.424 10.196-24.245 10.195-9.82 24.369-9.82t23.87 9.82q9.695 9.821 9.695 24.245v125.935h98.305v-125.935q0-14.424 10.195-24.245 10.196-9.82 24.37-9.82 14.174 0 23.87 9.82 9.695 9.821 9.695 24.245v125.935h98.305v-125.935q0-14.424 10.195-24.245 10.196-9.82 24.37-9.82 14.174 0 23.869 9.82 9.696 9.821 9.696 24.245v125.935h98.065v-228.805q0-52.612-36.661-89.273-36.661-36.662-89.274-36.662H307.37q-52.473 0-89.204 36.662-36.731 36.661-36.731 89.273v228.805Zm347.13-422.87v-331.87h-97.13v331.87h97.13Z"/></svg>