<svg xmlns="http://www.w3.org/2000/svg" width="48" height="48" viewBox="0 -960 960 960"><path d="M480-74.456q-80.913 0-138.489-57.577-57.576-57.576-57.576-138.645 0-81.069 57.576-138.609Q399.087-466.826 480-466.826q80.913 0 138.489 57.539 57.576 57.54 57.576 138.609 0 81.069-57.576 138.645Q560.913-74.456 480-74.456ZM262.13-491.957 74.022-679.739q82.243-75.337 186.599-122.462Q364.978-849.326 480-849.326q114.913 0 219.348 47.076 104.435 47.076 186.87 122.511L698.196-491.957q-45.54-41.239-100.244-65.239-54.704-24-117.933-24-63.228 0-118.102 24t-99.787 65.239Z"/></svg>