<svg xmlns="http://www.w3.org/2000/svg" width="48" height="48"><path d="m41 45.3-3-3q-.05 0-.1.025l-.05.025H9.1q-1.45 0-2.425-.975Q5.7 40.4 5.7 38.9V10.05L2.7 7l2.2-2.25L43.25 43.1zM9.1 38.9h25.5L9.1 13.45V38.9zm33.2-1.2-3.4-3.45V8.7h-2.95v4.65h-18L9.9 5.25h9.15q.3-1.85 1.65-3.1Q22.05.9 24 .9q1.95 0 3.3 1.25 1.35 1.25 1.65 3.1h9.95q1.45 0 2.425.975.975.975.975 2.475zM24 8.85q.95 0 1.675-.725.725-.725.725-1.675 0-.95-.725-1.675Q24.95 4.05 24 4.05q-.95 0-1.675.725Q21.6 5.5 21.6 6.45q0 .95.725 1.675.725.725 1.675.725z"/></svg>