<svg xmlns="http://www.w3.org/2000/svg" width="48" height="48" viewBox="0 0 48 48"><path d="M9.1 41.65q-1.4 0-2.4-1t-1-2.45V9.35q0-1.4.9-2.425T8.2 5.9h9.75q.4-1.75 1.85-2.875Q21.25 1.9 23.1 1.9q1.85 0 3.275 1.125Q27.8 4.15 28.25 5.9H38q1.4 0 2.4 1.025t1 2.425v12.1H38V9.35h-5.3v6.5H14.4v-6.5H9.1V38.2h12.35v3.45Zm34.95 4.8L38 40.4q-1.05.8-2.3 1.125-1.25.325-2.55.325-3.65 0-6.175-2.55t-2.525-6.15q0-3.65 2.525-6.175t6.175-2.525q3.6 0 6.15 2.525 2.55 2.525 2.55 6.175 0 1.3-.325 2.575Q41.2 37 40.4 38l6.05 6.05Zm-10.95-8q2.25 0 3.8-1.55 1.55-1.55 1.55-3.75 0-2.25-1.55-3.775t-3.75-1.525q-2.25 0-3.775 1.525T27.85 33.1q0 2.25 1.525 3.8 1.525 1.55 3.725 1.55ZM24 9q.85 0 1.425-.575Q26 7.85 26 7q0-.85-.575-1.425Q24.85 5 24 5q-.85 0-1.425.575Q22 6.15 22 7q0 .85.575 1.425Q23.15 9 24 9Z"/></svg>