<svg xmlns="http://www.w3.org/2000/svg" width="48" height="48" viewBox="0 0 48 48"><path d="M34.7 23.65h2.2v-3.7l3.15 1.8 1.1-1.85L38 18.05l3.15-1.85-1.1-1.9-3.15 1.85v-3.7h-2.2v3.7l-3.2-1.85-1.05 1.9 3.15 1.85-3.15 1.85 1.05 1.85 3.2-1.8ZM3.4 42.15q-1.35 0-2.375-1.025T0 38.7V9.3q0-1.4 1.025-2.425T3.4 5.85h41.2q1.35 0 2.375 1.025T48 9.3v29.4q0 1.4-1.025 2.425T44.6 42.15Zm26.45-3.3H44.7V9.15H3.3v29.7h.35q2.2-3.4 5.625-5.425T16.75 31.4q4.05 0 7.475 2.025t5.625 5.425ZM16.7 27.95q2.55 0 4.3-1.775t1.75-4.325q0-2.5-1.75-4.275-1.75-1.775-4.3-1.775t-4.3 1.775q-1.75 1.775-1.75 4.275 0 2.55 1.75 4.325 1.75 1.775 4.3 1.775Zm-8.95 10.9h17.9q-1.75-1.95-4.075-3.05-2.325-1.1-4.875-1.1t-4.875 1.1Q9.5 36.9 7.75 38.85ZM16.7 24.8q-1.25 0-2.1-.85-.85-.85-.85-2.1t.85-2.075q.85-.825 2.1-.825t2.1.825q.85.825.85 2.075 0 1.25-.85 2.1-.85.85-2.1.85ZM24 24Z"/></svg>