<svg xmlns="http://www.w3.org/2000/svg" width="48" height="48" viewBox="0 96 960 960"><path d="M155.217 938.63v-401l-82.565 63.044-39.348-52.304 121.913-92.732V339.304h65.5v66.087l259.044-197.043L926.457 549.37l-39.348 51.304-82.565-63.044v401H155.217Zm65.5-65.26h225.696v-160h65.5v160h227.13V487.565L479.761 290.043 220.717 487.475V873.37Zm-65.5-584.066q.479-49.826 35.619-84.696 35.141-34.869 83.914-34.869 23.04 0 38.569-16.196 15.529-16.196 15.529-37.87h65.739q-.717 48.966-35.441 84.266-34.724 35.3-84.33 35.3-21.791 0-37.825 15.571-16.034 15.57-16.034 38.494h-65.74Zm65.5 584.066h518.326-518.326Z"/></svg>