<svg xmlns="http://www.w3.org/2000/svg" width="48" height="48" viewBox="0 0 48 48"><path d="M24 44.3q-4.2 0-7.9-1.6t-6.45-4.35Q6.9 35.6 5.3 31.9 3.7 28.2 3.7 24q0-4.25 1.6-7.95t4.35-6.425Q12.4 6.9 16.1 5.3T24 3.7q4.25 0 7.95 1.6t6.425 4.325Q41.1 12.35 42.7 16.05q1.6 3.7 1.6 7.95 0 4.2-1.6 7.9t-4.325 6.45Q35.65 41.1 31.95 42.7q-3.7 1.6-7.95 1.6Zm.05-3.4q7 0 11.925-4.95Q40.9 31 40.9 23.95q0-7-4.925-11.925Q31.05 7.1 24 7.1q-7 0-11.95 4.925Q7.1 16.95 7.1 24q0 7 4.95 11.95 4.95 4.95 12 4.95ZM24 24Zm-5.9 10.15h11.8V31h-8.65v-5.55h5.5q1.3 0 2.225-.925t.925-2.175V17q0-1.3-.925-2.225t-2.225-.925H18.1V17h8.65v5.35h-5.5q-1.3 0-2.225.925T18.1 25.45Z"/></svg>