<svg xmlns="http://www.w3.org/2000/svg" width="48" height="48" viewBox="0 -960 960 960"><path d="M568.685-315.935h62.75v-92.75h92.63v-62.75h-92.75v-92.63h-62.75v92.75h-92.63v62.75h92.75v92.63ZM143.152-154.022q-27.599 0-47.865-20.765-20.265-20.766-20.265-47.365v-518.326q0-26.698 20.265-47.534 20.266-20.836 47.865-20.836H418.37l62.63 62.63h337.848q26.697 0 47.533 20.837 20.837 20.836 20.837 47.533v455.696q0 26.599-20.837 47.365-20.836 20.765-47.533 20.765H143.152Zm0-586.456v518.326h675.696v-455.696H452.652l-62.63-62.63h-246.87Zm0 0v518.326-518.326Z"/></svg>