<svg xmlns="http://www.w3.org/2000/svg" width="48" height="48" viewBox="0 -960 960 960"><path d="M142.152-640.478h675.696v-97.37H142.152v97.37Zm-68.13-97.37q0-27.697 20.265-48.033 20.266-20.337 47.865-20.337h675.696q27.697 0 48.033 20.337 20.337 20.336 20.337 48.033v236.37H142.152v279.326H375.87v68.13H142.152q-27.599 0-47.865-20.265-20.265-20.266-20.265-47.865v-515.696ZM600.63-74.022 428-246.89l48.022-47.783L600.63-169.587l237.848-237.848 47.022 48.544-284.87 284.87ZM142.152-737.848v515.696-157.283 127.848-486.261Z"/></svg>