<svg xmlns="http://www.w3.org/2000/svg" width="48" height="48" viewBox="0 -960 960 960"><path d="M480-142.152q21.565 0 42.63-2.642 21.066-2.641 41.87-9.402v-165.565h-169v165.565q20.804 6.761 41.87 9.402 21.065 2.642 42.63 2.642Zm0 68.13q-75.957 0-147.467-28.956-71.511-28.957-129.424-82.109l48.978-48.739q16.815 15.831 35.636 28.77 18.82 12.939 39.647 23.991v-138.696H221.913q-27.599 0-47.865-20.336-20.266-20.336-20.266-48.034v-256.413q0-68.699 48.76-117.578Q251.301-811 320-811h164.783v200h253.304q27.599 0 47.865 20.336 20.266 20.336 20.266 48.034v154.499q0 27.698-20.266 48.034t-47.865 20.336H632.63v138.696q20.761-11 39.604-23.955 18.844-12.956 35.679-28.806l48.978 48.739q-57.913 53.152-129.424 82.109Q555.957-74.022 480-74.022Z"/></svg>