<svg xmlns="http://www.w3.org/2000/svg" width="48" height="48" viewBox="0 -960 960 960"><path d="M109.239-850.761h342.196v342.196H109.239v-342.196Zm68.37 67.131v183.695-183.695Zm330.956-67.131h342.196v342.196H508.565v-342.196Zm91.37 67.131v183.695-183.695ZM109.239-451.435h342.196v342.196H109.239v-342.196Zm68.37 89.131v184.695-184.695Zm467.869-89.131h68.37v136.913h136.913v68.37H713.848v136.913h-68.37v-136.913H508.565v-68.37h136.913v-136.913ZM576.935-782.63v205.695H782.63V-782.63H576.935Zm-399.326 0v205.695h205.695V-782.63H177.609Zm0 399.326v205.695h205.695v-205.695H177.609Z"/></svg>