<svg xmlns="http://www.w3.org/2000/svg" width="48" height="48" viewBox="0 -960 960 960"><path d="M480-74.022q-83.435 0-157.391-31.858-73.957-31.859-129.294-86.696Q137.978-247.413 106-321.489 74.022-395.565 74.022-479q0-160.152 108.054-276.065Q290.13-870.978 451-883.218v110.37q-113.804 10.522-190.326 94.663Q184.152-594.043 184.152-479q0 122.804 86.402 208.826Q356.957-184.152 480-184.152q72 0 135.043-32.142 63.044-32.141 108.044-91.141l95.174 55.544q-58.239 83.956-147.174 130.913Q582.152-74.022 480-74.022ZM847.261-305.89l-95.174-53.544q12-31 17.88-60.782Q775.848-450 775.848-480q0-115.283-76.022-199.685T511-773.848v-110.37q159.87 11 267.544 126.414Q886.218-642.391 886.218-484q0 45-9.979 90.054-9.978 45.055-28.978 88.055Z"/></svg>