<svg xmlns="http://www.w3.org/2000/svg" width="48" height="48" viewBox="0 -960 960 960"><path d="M612-545.46 757.78-692 725-724.54 612-611.78l-57-56.76L522.46-635 612-545.46Zm-496.07 396.7v-68.13h488.14v68.13H115.93Zm386.22-353.5q-56.69-56.8-56.69-137.85 0-81.04 56.8-137.86 56.8-56.81 137.85-56.81 81.04 0 137.86 56.92 56.81 56.92 56.81 137.97 0 81.04-56.92 137.74-56.92 56.69-137.97 56.69-81.04 0-137.74-56.8Zm-386.22 6.33v-68.14h260.09q5.56 18.72 13.24 35.59 7.67 16.87 17.11 32.55H115.93Zm0 173.58v-68.13h414.22q16.43 9.24 35.26 14.87 18.83 5.63 38.66 7.63v45.63H115.93Z"/></svg>