<svg xmlns="http://www.w3.org/2000/svg" width="48" height="48" viewBox="0 -960 960 960"><path d="m747.174-74.326 114.913-115.152-22.913-22.674-75.565 75.565v-169.087h-32.631v169.087l-75.804-75.565-22.674 22.674L747.174-74.326ZM480-517.826 218.5-669.717l-36.348 20.916v34.584L480-442.174l297.848-173.043v-33.584L740.5-669.717 480-517.826Zm-34.065 437.37L148.087-252.022q-16.152-9.195-25.109-25.158-8.956-15.962-8.956-34.016v-337.608q0-18.054 8.956-34.016 8.957-15.963 25.109-25.158l297.848-171.805q15.913-8.956 34.065-8.956 18.152 0 34.065 8.956l297.848 171.805q16.152 9.195 25.228 25.158 9.077 15.962 9.077 34.016v234.326q-25-13-52.601-19.261-27.6-6.261-56.443-6.261-102 0-176 73.5t-74 177.5q0 30.459 7.217 58.715 7.218 28.255 20.414 53.068-17.109 7.913-34.935 7.174-17.827-.74-33.935-10.413ZM737.174 0q-78 0-134-55.5t-56-133.5q0-79 56-135t134-56q78 0 134 56t56 135q0 78-56 133.5t-134 55.5Z"/></svg>