<svg xmlns="http://www.w3.org/2000/svg" width="48" height="48" viewBox="0 -960 960 960"><path d="M299.043-154.022H142.152q-28.349 0-48.24-19.89-19.89-19.891-19.89-48.24v-515.696q0-28.447 19.89-48.408 19.891-19.962 48.24-19.962h664.066v68.37H142.152v515.696h156.891v68.13Zm149.749-85.5q28.773 0 48.795-19.988 20.022-19.989 20.022-48.544 0-28.555-19.981-48.576-19.98-20.022-48.523-20.022-28.822 0-48.844 19.98-20.022 19.98-20.022 48.524 0 28.543 19.89 48.585 19.89 20.041 48.663 20.041Zm-69.749 85.5v-67.152q-18.717-15.239-30.076-37.684-11.358-22.445-11.358-49.229 0-26.478 11.358-48.956 11.359-22.479 30.076-38.172v-66.937h140v67.391q18.491 15.175 29.843 37.685 11.353 22.511 11.353 49.109 0 26.597-11.353 49.108-11.352 22.511-29.843 38.14v66.697h-140Zm472.87 0H633.109q-14.424 0-24.245-9.82-9.821-9.821-9.821-24.245V-567.37q0-14.423 9.821-24.244t24.245-9.821h218.804q14.394 0 24.349 9.821 9.956 9.821 9.956 24.244v379.283q0 14.424-9.956 24.245-9.955 9.82-24.349 9.82Zm-190.239-62.63h161.674v-322.152H661.674v322.152Zm0 0h161.674-161.674Z"/></svg>