<svg xmlns="http://www.w3.org/2000/svg" width="48" height="48" viewBox="0 -960 960 960"><path d="M470.587-640.261v-33.957h86v-52.043h-86v-119.957h120.196v33.957h-86v52.043h86v119.957H470.587Zm172.196 0v-205.957h33.956v205.957h-33.956Zm85.956 0v-205.957h120.196v119.957h-86v86h-34.196Zm34.196-119.957h51.804v-52.043h-51.804v52.043ZM795.239-114.5q-123.196 0-244.772-60.478T331.935-332.293Q234.978-429.13 174.5-550.826q-60.478-121.696-60.478-244.652 0-21.392 14.674-36.066 14.674-14.674 36.065-14.674h140q18.065 0 30.717 11.055 12.653 11.054 16.609 30.641l27 122.174q2.718 17.109-.619 30.522-3.337 13.413-13.25 22.848l-101.196 99.565q54.565 89.652 121.435 155.902 66.869 66.25 151.043 112.337l96.196-98.717q11.913-12.674 26.706-17.653 14.794-4.978 30.663-1.261l113.978 25.522q18.827 4.196 30.381 18.109 11.554 13.913 11.554 33.5v136.196q0 21.63-14.674 36.304Q816.63-114.5 795.239-114.5Z"/></svg>