<svg xmlns="http://www.w3.org/2000/svg" width="48" height="48" viewBox="0 -960 960 960"><path d="M312.739-193.957h55.739v-275.13q29-4.478 50.098-27.556Q439.674-519.72 439.674-549v-155.674q0-10.239-7.359-17.098-7.358-6.858-17.717-6.858-10.359 0-17.218 6.858-6.858 6.859-6.858 17.098v120.239h-22.957v-120.239q0-10.239-6.859-17.098-6.858-6.858-17.217-6.858-10.359 0-17.217 6.858-6.859 6.859-6.859 17.098v120.239h-29.957v-120.239q0-10.239-6.858-17.098-6.859-6.858-17.218-6.858-10.358 0-17.217 6.858-6.859 6.859-6.859 17.098V-549q0 29.28 20.718 52.357 20.717 23.078 50.717 27.556v275.13Zm259.457 0h55.5v-263.369q34.761-14.717 54.88-51.172 20.12-36.455 20.12-84.98 0-58.196-28.41-96.674-28.41-38.478-71.413-38.478t-70.84 38.478q-27.837 38.478-27.837 96.674 0 51.525 17.88 86.98 17.881 35.455 50.12 49.172v263.369ZM142.152-74.022q-27.599 0-47.865-20.265-20.265-20.266-20.265-47.865v-675.696q0-27.697 20.265-48.033 20.266-20.337 47.865-20.337h675.696q27.697 0 48.033 20.337 20.337 20.336 20.337 48.033v675.696q0 27.599-20.337 47.865-20.336 20.265-48.033 20.265H142.152Z"/></svg>