<svg xmlns="http://www.w3.org/2000/svg" width="48" height="48" viewBox="0 -960 960 960"><path d="M835.87-37.174 655.826-216.978 528.739-89.891q-9.195 8.956-22.216 13.554-13.02 4.598-26.489 4.598-13.469 0-26.523-4.598-13.055-4.598-22.25-13.554l-341.37-341.37q-8.956-9.195-13.554-22.274-4.598-13.079-4.598-26.609 0-13.53 4.598-26.465t13.554-22.13l127.087-127.087L25.043-848l44.914-44.913L880.783-82.087 835.87-37.174ZM607.087-265.957l-71.565-72.565L480-283l-43-43 55.761-55.522L422.967-450H283v-60h80.043l-97.086-97.087L139.109-480 480-139.109l127.087-126.848Zm138.326-40.608-48.978-48.979L820.891-480 480-820.891 355.544-696.435l-48.979-48.978 124.696-124.696q9.253-9.195 22.317-13.793 13.065-4.598 26.581-4.598 13.515 0 26.453 4.598 12.937 4.598 22.127 13.793l341.37 341.37q9.195 9.212 13.793 22.228 4.598 13.016 4.598 26.481 0 13.465-4.598 26.487-4.598 13.022-13.793 22.282L745.413-306.565ZM612.109-440.109 652-480 455-677l-39.891 39.891 197 197Zm-86-86Zm-89.587 89.587Z"/></svg>