<svg xmlns="http://www.w3.org/2000/svg" width="48" height="48" viewBox="0 -960 960 960"><path d="M451.761-76.782Q291.37-89.022 183.196-204.815 75.022-320.609 75.022-480q0-160.391 108.174-275.804Q291.37-871.218 451.761-883.696v107.739q-115.239 10.761-193.359 95.24Q180.283-596.239 180.283-480q0 116.239 78.119 200.978 78.12 84.739 193.359 94.5v107.74Zm60 0v-107.74q106.478-8 181.098-83.5 74.619-75.5 86.858-181.978h105.501q-11.24 151.391-116.653 257.185Q663.152-87.022 511.761-76.783ZM779.717-510q-11-106.478-86.239-182.217-75.239-75.74-181.717-84.74v-107.739q150.63 11.239 256.304 117.272Q873.739-661.391 885.218-510H779.717Z"/></svg>