<svg xmlns="http://www.w3.org/2000/svg" width="48" height="48" viewBox="0 -960 960 960"><path d="M114.022-114.022v-68.13h80v-595.696q0-27.697 20.265-48.033 20.266-20.337 47.865-20.337h435.696q27.697 0 48.033 20.337 20.337 20.336 20.337 48.033v595.696h80v68.13H114.022Zm583.826-68.13v-595.696H262.152v595.696h435.696ZM567-449q14.45 0 24.225-9.775Q601-468.55 601-483q0-14.45-9.775-24.225Q581.45-517 567-517q-14.45 0-24.225 9.775Q533-497.45 533-483q0 14.45 9.775 24.225Q552.55-449 567-449ZM262.152-777.848v595.696-595.696Z"/></svg>