<svg xmlns="http://www.w3.org/2000/svg" width="48" height="48" viewBox="0 96 960 960"><path d="M686.338 943.174q-47.36 0-80.436-33.113-33.076-33.113-33.076-80.418 0-46.73 33.151-80.186Q639.129 716 686.488 716q47.36 0 80.436 33.4Q800 782.801 800 829.911q0 47.111-33.152 80.187-33.151 33.076-80.51 33.076ZM662.826 666v-77.174H710V666h-47.174Zm0 404.35v-77.176H710v77.176h-47.174Zm154.37-338.524-32.783-34.5 55.022-54.783 34.261 32.783-56.5 56.5ZM532.391 1016.63l-33.022-33.021 55.022-54.022 33.022 32.022-55.022 55.021ZM850 853.174V806h77.174v47.174H850Zm-404.348 0V806h77.174v47.174h-77.174Zm395.022 163.456-55.261-56.021 33.261-33.261 54.783 55.261-32.783 34.021ZM553.391 730.587l-54.022-54.022 33.022-34.261 54.022 55.261-33.022 33.022ZM182.152 981.978q-27.599 0-47.865-20.265-20.265-20.266-20.265-47.865V298.152q0-27.697 20.265-48.033 20.266-20.337 47.865-20.337H245v-60h69.065v60h331.87v-60H715v60h62.848q27.697 0 48.033 20.337 20.337 20.336 20.337 48.033V486H182.152v427.848h160.674v68.13H182.152Zm0-555.978h595.696V298.152H182.152V426Zm0 0V298.152 426Z"/></svg>