<svg xmlns="http://www.w3.org/2000/svg" width="48" height="48" viewBox="0 -960 960 960"><path d="M218.565-74.022q-27.599 0-47.865-20.265-20.265-20.266-20.265-47.865v-675.696q0-27.697 20.265-48.033 20.266-20.337 47.865-20.337h340.478L802.63-642.63v153.369h-68.369v-108.587h-220v-220H218.565v675.696h297.131v68.13H218.565Zm0-68.13v-675.696 675.696Zm529.783-216.304 31.108 30.869-159.217 159.491v49.77h49.726l159.296-159.456 31.348 31.347L687.717-74.022H575.696v-112.021l172.652-172.413Zm112.261 112.021L748.348-358.456l61.239-61.24q10.195-10.434 23.869-10.434t23.87 10.434l64.283 64.044q10.195 10.196 10.195 23.87 0 13.673-10.195 24.108l-61 61.239Z"/></svg>