<svg xmlns="http://www.w3.org/2000/svg" width="48" height="48" viewBox="0 96 960 960"><path d="M182.152 1049.98q-27.599 0-47.865-20.27-20.265-20.26-20.265-47.862V386.152q0-27.697 20.265-48.033 20.266-20.337 47.865-20.337h404.761l-68.131 68.37h-336.63v595.696h595.696V642.696l68.37-68.37v407.522q0 27.602-20.337 47.862-20.336 20.27-48.033 20.27H182.152ZM480 684Zm178.891-353.196 46.587 45.587-283.565 282.326v83.37h82.37L788.848 458l45.109 45.109L531.196 806.87H357.13V632.804l301.761-302Zm175.066 172.305L658.891 330.804l97.37-97.13q19.63-19.631 48.289-19.511 28.659.12 48.668 20.75l76.347 77.348q19.152 20.63 19.152 48.343 0 27.712-20.391 47.374l-94.369 95.131Z"/></svg>