<svg xmlns="http://www.w3.org/2000/svg" width="48" height="48" viewBox="0 -960 960 960"><path d="M189.97-313.95q-34.36-34.38-34.84-82.62h-78v-121.44q0-65.79 45.41-111.61 45.4-45.81 110.94-45.81h156.28v216h159.57l146.76-185v-137.53h-123v-62.63h123q25.7 0 44.17 18.4 18.46 18.4 18.46 44.23v159.45L579.28-396.57H389.76q-.24 48.24-34.36 82.62-34.13 34.38-82.6 34.38-48.47 0-82.83-34.38Zm137.16-145.48Zm-16.62 100.92q15.9-16.08 16.38-38.06H218.24q.24 22.05 16.26 38.09 16.02 16.05 38.07 16.05 22.04 0 37.94-16.08ZM197.13-734v-62.63h192.63V-734H197.13Zm485.35 420.34q-34.24-34.1-34.24-83.08t33.97-83.34q33.98-34.35 82.96-34.35t83.34 34.09q34.36 34.1 34.36 83.08t-34.1 83.34q-34.09 34.35-83.07 34.35-48.98 0-83.22-34.09Zm121.62-44.82q16.14-16.05 16.14-38.55 0-22.49-16.16-38.51-16.17-16.03-38.67-16.03t-38.52 16.05q-16.02 16.05-16.02 38.55 0 22.49 16.05 38.51 16.04 16.03 38.54 16.03t38.64-16.05ZM519.76-39.33 286.7-157.48h155.63v-78.19l232.82 116.91H519.76v79.43Zm-380-420.1h187.37v-153.14h-93.48q-39.37 0-66.63 27.87-27.26 27.86-27.26 66.7v58.57Z"/></svg>