<svg xmlns="http://www.w3.org/2000/svg" width="48" height="48" viewBox="0 -960 960 960"><path d="M154.022-114.022v-68.13h652.196v68.13H154.022Zm571.413-504.065h92.413v-160h-92.413v160ZM309.804-258.565q-65.179 0-110.481-44.935-45.301-44.935-45.301-109.848v-432.87h205.13v105.675l-72 58q-3 2-9 18v150q0 9.6 7 16.8 7 7.2 18 7.2h151q11 0 18-7.2t7-16.8v-150q0-3-9-18l-71-58v-105.675h418.935q28.104 0 48.117 20.081 20.014 20.081 20.014 48.05v160q0 28.098-20.014 48.114-20.013 20.017-48.117 20.017h-92.652v136.608q0 64.913-45.475 109.848-45.476 44.935-110.547 44.935H309.804Z"/></svg>