<svg xmlns="http://www.w3.org/2000/svg" width="48" height="48" viewBox="0 -960 960 960"><path d="M625.314-34.26q-107.553 0-188.51-65.099-80.956-65.097-104.674-164.532 31.87.478 63.642-4.979 31.772-5.456 59.924-16.608h226.065q2-13.283 2.5-26.63.5-13.346.5-26.935v-23.514q0-12.052-1.968-23.813h-76.597q13.195-14.717 24.293-30.913 11.098-16.195 20.576-33.63h179.978q-22.521-40.326-58.684-69.609-36.163-29.282-81.729-41.804 2.479-15.196 4.098-31.772 1.62-16.576 1.62-32.772 99.196 23.479 164.293 104.055 65.098 80.576 65.098 187.129 0 125.724-87.85 213.575-87.851 87.85-212.575 87.85Zm-83.184-81.936q-10.256-25.664-17.91-51.299-7.655-25.635-12.305-53.44h-92.567q20.043 36.326 51.489 63.392 31.446 27.065 71.293 41.347Zm83.066 13.522q17.043-27.804 28.684-57.75 11.642-29.946 18.163-60.511h-94.695q2.761 11.326 17.803 50.944 15.042 39.618 30.045 67.317Zm83.304-13.522q39.848-14.282 71.294-41.347 31.445-27.066 51.489-63.392h-92.378q-4.787 27.747-12.455 53.461-7.667 25.713-17.95 51.278Zm39.044-169.282h108.13q2.761-11.506 4.141-24.155 1.381-12.65 1.381-26.171 0-13.522-1.261-25.783-1.261-12.261-4.176-24.783H747.544q1.76 11.761 2.26 23.313.5 11.552.5 24.014 0 13.506-.5 26.775-.5 13.268-2.26 26.79Zm-411.74-38.413q-125.913 0-213.728-87.815-87.815-87.816-87.815-213.49 0-125.913 87.815-213.228 87.815-87.315 213.728-87.315 125.674 0 213.109 87.315t87.435 213.228q0 125.674-87.435 213.49-87.435 87.815-213.109 87.815ZM231.831-654.522q13.973 0 23.191-9.598 9.217-9.597 9.217-22.81 0-13.734-9.217-22.935-9.218-9.2-23.191-9.2-12.973 0-22.554 9.2-9.581 9.201-9.581 22.935 0 13.213 9.581 22.81 9.581 9.598 22.554 9.598Zm103.998 181.435q46.932 0 83.269-25.978T471.913-566H199.696q16.478 40.957 52.84 66.935t83.293 25.978Zm102.915-181.435q13.734 0 22.952-9.598 9.217-9.597 9.217-22.81 0-13.734-9.217-22.935-9.218-9.2-22.952-9.2-13.212 0-22.674 9.2-9.461 9.201-9.461 22.935 0 13.213 9.461 22.81 9.462 9.598 22.674 9.598Z"/></svg>