<svg xmlns="http://www.w3.org/2000/svg" width="48" height="48" viewBox="0 96 960 960"><path d="M480 980.065q-83.898 0-157.593-31.745-73.694-31.746-128.338-86.389-54.643-54.644-86.389-128.338Q75.935 659.898 75.935 576q0-140.478 86.5-249.457 86.5-108.978 223.5-143.413v70.218Q277.326 284.304 209.38 373.576 141.435 462.848 141.435 576q0 141.244 98.669 239.904 98.668 98.661 239.923 98.661 141.256 0 239.897-98.661 98.641-98.66 98.641-239.904 0-113.152-67.945-202.424-67.946-89.272-176.555-120.228V183.13q137 34.435 223.5 143.413 86.5 108.979 86.5 249.457 0 83.898-31.745 157.593-31.746 73.694-86.389 128.338-54.644 54.643-128.338 86.389Q563.898 980.065 480 980.065Zm0-252.326L274.261 522 322 474.261l123.935 123.934V173.652h68.13v424.543L638 474.261 685.739 522 480 727.739Z"/></svg>