<svg xmlns="http://www.w3.org/2000/svg" width="48" height="48" viewBox="0 -960 960 960"><path d="M461.196-288.565q71.829 0 122.11-50.316 50.281-50.316 50.281-122.195v-172.511H461.076q-71.879 0-122.195 50.279-50.316 50.28-50.316 122.108 0 27.073 8.5 51.637 8.5 24.563 22.978 46.802l-22.239 22q-9.239 9.478-9.239 21.598t9.239 21.359q9.239 9.239 21.359 9.239 12.12 0 21.598-9.284l22-22.194q22.239 14.478 46.748 22.978 24.508 8.5 51.687 8.5ZM480-30.435 338.924-140.72l-176.62-21.584-21.584-176.62L30.435-480l110.402-141.077 21.467-176.858 176.62-21.345L480-929.565l141.057 110.24L797.89-797.89l21.435 176.833L929.565-480 819.28-338.924l-21.345 176.62-176.858 21.467L480-30.435Zm22.913-429.522q9.239-8.752 9.239-21.115 0-12.363-9.239-21.841-9.478-9.239-21.841-9.239-12.363 0-21.115 9.239l-74.788 74.795Q376-418.88 376-406.179t9.081 21.701q8.842 9.239 21.239 9.358 12.397.12 21.637-9.119l74.956-75.718Z"/></svg>