<svg xmlns="http://www.w3.org/2000/svg" width="48" height="48" viewBox="0 -960 960 960"><path d="M480.21-74.02q-83.47 0-157.52-31.98-74.04-31.98-129.39-87.24-55.35-55.27-87.31-129.29-31.97-74.02-31.97-157.46 0-84.21 31.95-158.31 31.95-74.1 87.26-129.06 55.32-54.95 129.4-86.9 74.09-31.96 157.61-31.96 84.28 0 158.36 31.95 74.09 31.95 128.91 86.88 54.81 54.94 86.76 129.03 31.95 74.08 31.95 158.36 0 83.47-31.96 157.51-31.95 74.05-86.78 129.33-54.84 55.28-128.94 87.21-74.11 31.93-158.33 31.93Zm-.16-68.13q140.75 0 239.04-98.19 98.28-98.18 99-237.51v-12q-73-.24-116.12-39.14-43.12-38.9-69.12-90.14-6.87-13.28-17.6-20.04-10.74-6.76-24.25-6.76H370q-14.28 0-25.13 6.76-10.86 6.76-17.72 20.04-26 52.1-69 91.06-43 38.97-115.76 39.22v11q.72 139.33 99.44 237.51 98.72 98.19 238.22 98.19ZM316.1-398.14q-15.62-15.62-15.62-38.86 0-23.24 15.62-38.86 15.62-15.62 38.86-15.62 23.24 0 38.86 15.62 15.61 15.62 15.61 38.86 0 23.24-15.61 38.86-15.62 15.62-38.86 15.62-23.24 0-38.86-15.62Zm251.08 0q-15.61-15.62-15.61-38.86 0-23.24 15.61-38.86 15.62-15.62 38.86-15.62 23.24 0 38.98 15.62 15.74 15.62 15.74 38.86 0 23.24-15.74 38.86-15.74 15.62-38.98 15.62-23.24 0-38.86-15.62Z"/></svg>