<svg xmlns="http://www.w3.org/2000/svg" width="48" height="48" viewBox="0 -960 960 960"><path d="M134.152-114.022q-27.599 0-47.865-20.265-20.265-20.266-20.265-47.865v-595.696q0-27.697 20.265-48.033 20.266-20.337 47.865-20.337h691.696q27.697 0 48.033 20.337 20.337 20.336 20.337 48.033v595.696q0 27.599-20.337 47.865-20.336 20.265-48.033 20.265H134.152Zm0-68.13h691.696v-595.696H134.152v595.696ZM206.696-280h198.565v-80H206.696v80Zm375.411-80 196.458-196.565-57.107-57L582.107-473 525-530l-56 57 113.107 113Zm-375.411-80h198.565v-80H206.696v80Zm0-160h198.565v-80H206.696v80Zm-72.544 417.848v-595.696 595.696Z"/></svg>