<svg xmlns="http://www.w3.org/2000/svg" width="48" height="48" viewBox="0 -960 960 960"><path d="M34.5-304q0-109 93-171t211-62q117.761 0 210.88 62 93.12 62 93.12 171h-608Zm0 134.63v-73.26h608v73.26h-608ZM68.565-34.5q-14.424 0-24.244-9.82Q34.5-54.142 34.5-68.566V-108h608v39.435q0 14.424-9.821 24.244-9.82 9.821-24.244 9.821H68.565Zm633.935 0V-315q0-104.733-69.663-181.388t-172.946-97.655L442.174-745.5h205.239v-180h65.5v180H925.5L857.261-95.913q-2.791 26.598-22.406 44.005Q815.239-34.5 788.891-34.5H702.5Z"/></svg>