<svg xmlns="http://www.w3.org/2000/svg" width="48" height="48" viewBox="0 -960 960 960"><path d="M392.413-70.022q-46.152 0-81.326-29.434-35.174-29.435-43.652-75.587-2.522-14.848-11.087-24.913-8.566-10.066-25.935-10.066-3.761 0-6.402.5t-4.402.5q-57.87 10.24-104.022-27.554Q69.435-274.37 69.435-334q0-45.391 29.054-80.946 29.054-35.554 75.967-44.032l115.37-19.522L420-664.761q.761 0 .38.5l-.38.5q-12.565-13.804-21.065-32.424-8.5-18.619-8.5-40.815 0-44.391 29.674-74.185 29.673-29.793 73.304-29.793 26.478 0 45.196 9 18.717 9 28.391 16.195 9.283 6.522 21.402 9.163 12.12 2.642 25.359 2.402 8.478-23.76 26.456-42.521 17.979-18.761 42.457-28 46.152-17.479 89.544 3.358 43.391 20.837 60.108 65.468l49.761 140q17.718 47.674-5 89.826Q854.37-533.935 813.5-517.5q-35.913 14.196-70.826 2.859t-56.87-38.25h-35.608L496.87-332.565l20.521 113.369q10.239 58.87-27.554 104.022-37.794 45.152-97.424 45.152Zm0-88.13q18.043 0 29.826-13.783 11.783-13.782 8.022-31.826l-24-133q-2-8.239.119-16.337 2.12-8.098 7.359-15.337l164-235q10.761-15.761 27.902-24.88 17.141-9.12 36.663-9.598l-27.326-75.935q-30 .761-54.88-7.239-24.881-8-44.881-23.239-6.761-4.761-12.141-6.522-5.38-1.761-9.663-1.761-7.043 0-10.946 4.783-3.902 4.783-3.902 10.826 0 3.522 1.381 7.043 1.38 3.522 4.141 6.283 13.239 13.239 19.478 28.717 6.239 15.479 6.239 30.957 0 13.239-4.119 24.717-4.12 11.479-11.359 22.479l-143 205q-5.239 7.478-12.217 11.217-6.979 3.739-15.218 5.739l-134 23q-14.282 2.761-23.304 13.663-9.022 10.902-9.022 24.185 0 17.804 14.283 29.587 14.282 11.783 32.326 8.022 7-1.761 13.5-1.761h12.739q23.717 0 44.576 7.619 20.859 7.62 37.098 21.62 16.239 14.239 27.359 33.598 11.119 19.358 15.358 44.837 2.761 14.282 13.544 23.304 10.782 9.022 24.065 9.022Zm0 0q-13.283 0-24.065-9.022-10.783-9.022-13.544-23.304-8.478-49.718-42.456-78.696-33.978-28.978-81.935-28.978h-12.739q-6.5 0-13.5 1.761-18.044 3.761-32.326-8.022-14.283-11.783-14.283-29.587 0-13.283 9.022-24.185t23.304-13.663l134-23q8.239-2 15.218-5.739 6.978-3.739 12.217-11.217l143-205q7.239-11 11.359-22.479 4.119-11.478 4.119-24.717 0-15.478-6.239-30.957-6.239-15.478-19.478-28.717-2.761-2.761-4.141-6.283-1.381-3.521-1.381-7.043 0-6.043 3.902-10.826 3.903-4.783 10.946-4.783 4.283 0 9.663 1.761t12.141 6.522q20 15.239 44.881 23.239 24.88 8 54.88 7.239l27.326 75.935q-19.522.478-36.663 9.598-17.141 9.119-27.902 24.88l-164 235q-5.239 7.239-7.359 15.337-2.119 8.098-.119 16.337l24 133q3.761 18.044-8.022 31.826-11.783 13.783-29.826 13.783Z"/></svg>