<svg xmlns="http://www.w3.org/2000/svg" width="48" height="48" viewBox="0 96 960 960"><path d="M159.478 699h147q20 0 35-15t15-35V503q0-20-15-35t-35-15h-147v246Zm50-50V503h97v146h-97Zm242 50h50l77-246h-50l-49 175-54-175h-44l70 246Zm153.044 0h50v-89h58l33 89h50l-35-94q17-4 29-16.5t12-28.5v-57q0-20-15.12-35-15.119-15-34.88-15h-147v246Zm50-139v-57h97v57h-97ZM102.63 901.978q-27.599 0-47.864-20.265Q34.5 861.447 34.5 833.848V318.152q0-27.697 20.266-48.033 20.265-20.337 47.864-20.337h754.74q28.097 0 48.114 20.337 20.016 20.336 20.016 48.033v515.696q0 27.599-20.016 47.865-20.017 20.265-48.114 20.265H102.63Zm0-68.13h754.74V318.152H102.63v515.696Zm0 0V318.152v515.696Z"/></svg>