<svg xmlns="http://www.w3.org/2000/svg" width="48" height="48" viewBox="0 96 960 960"><path d="M489.544 713.935h110q25.913 0 44.271-18.359 18.359-18.359 18.359-44.511V543.37q0-25.914-18.359-44.392-18.358-18.478-44.271-18.478h-110V371.565h129.63v-62.63h-129.63q-25.914 0-44.392 18.358-18.478 18.359-18.478 44.272v279.5q0 26.152 18.478 44.511t44.392 18.359Zm0-170.565h110v107.695h-110V543.37ZM266.218 857.913q-27.599 0-47.865-20.266-20.266-20.266-20.266-47.865V234.087q0-27.698 20.266-48.034t47.865-20.336h555.695q27.698 0 48.034 20.336t20.336 48.034v555.695q0 27.599-20.336 47.865-20.336 20.266-48.034 20.266H266.218Zm-128.131 128.37q-27.698 0-48.034-20.336t-20.336-48.034V294.087h68.37v623.826h623.826v68.37H138.087Z"/></svg>