<svg xmlns="http://www.w3.org/2000/svg" width="48" height="48" viewBox="0 -960 960 960"><path d="M431.109-342.065h232.152v-62.87H493.739V-512.63h110q25.913 0 44.392-18.479 18.478-18.478 18.478-44.391v-108.935q0-25.913-18.478-44.272-18.479-18.358-44.392-18.358H431.587v62.63h172.152V-575.5h-110q-26.663 0-44.647 18.478-17.983 18.478-17.983 44.392v170.565ZM266.218-198.087q-27.599 0-47.865-20.266-20.266-20.266-20.266-47.865v-555.695q0-27.698 20.266-48.034t47.865-20.336h555.695q27.698 0 48.034 20.336t20.336 48.034v555.695q0 27.599-20.336 47.865-20.336 20.266-48.034 20.266H266.218ZM138.087-69.717q-27.698 0-48.034-20.336t-20.336-48.034v-623.826h68.37v623.826h623.826v68.37H138.087Z"/></svg>