<svg xmlns="http://www.w3.org/2000/svg" width="48" height="48" viewBox="0 -960 960 960"><path d="M820-610v-130H690v-65.5h127.37q27.599 0 47.864 20.266Q885.5-764.969 885.5-737.37V-610H820Zm-745.5 0v-127.37q0-27.599 20.266-47.864Q115.032-805.5 142.63-805.5H270v65.5H140v130H74.5ZM690-154.5V-220h130v-130h65.5v127.37q0 27.599-20.266 47.864Q844.969-154.5 817.37-154.5H690Zm-547.37 0q-27.598 0-47.864-20.266Q74.5-195.031 74.5-222.63V-350H140v130h130v65.5H142.63ZM200-280v-400h560v400H200Zm65.5-65.5h429v-269h-429v269Zm0 0v-269 269Z"/></svg>