<svg xmlns="http://www.w3.org/2000/svg" width="48" height="48" viewBox="0 -960 960 960"><path d="M142.152-154.022q-27.599 0-47.865-20.765-20.265-20.766-20.265-47.365v-515.696q0-26.697 20.265-47.533 20.266-20.837 47.865-20.837H418.37l62.63 62.87h336.848q26.697 0 47.533 20.766 20.837 20.766 20.837 47.365v453.065q0 26.599-20.837 47.365-20.836 20.765-47.533 20.765H142.152ZM439-290.478h320v-15.413q0-41.761-42.5-68.381Q674-400.891 599-400.891t-117.5 26.619q-42.5 26.62-42.5 68.381v15.413Zm160-170.413q30 0 51.5-21.381 21.5-21.38 21.5-51.619 0-30-21.5-51.5t-51.5-21.5q-30 0-51.5 21.5t-21.5 51.5q0 30.239 21.5 51.619 21.5 21.381 51.5 21.381Z"/></svg>