<svg xmlns="http://www.w3.org/2000/svg" width="48" height="48" viewBox="0 -960 960 960"><path d="M547.848-282.391h120q20.833 0 35.416-14.584 14.584-14.583 14.584-35.416v-197.826h40v-50h-110v-35h-80v35h-110v50h40v197.826q0 20.833 14.583 35.416 14.583 14.584 35.417 14.584Zm0-247.826h120v197.826h-120v-197.826ZM142.152-154.022q-27.599 0-47.865-20.765-20.265-20.766-20.265-47.365v-515.696q0-26.697 20.265-47.533 20.266-20.837 47.865-20.837H418.37l62.63 62.87h336.848q26.697 0 47.533 20.766 20.837 20.766 20.837 47.365v453.065q0 26.599-20.837 47.365-20.836 20.765-47.533 20.765H142.152Zm0-68.13h675.696v-453.065H452.652l-62.63-62.631h-247.87v515.696Zm0 0v-515.696 515.696Z"/></svg>