<svg xmlns="http://www.w3.org/2000/svg" width="48" height="48" viewBox="0 -960 960 960"><path d="M525.37-117.609v-162.108q-18.522-61.326-64.946-94.37Q414-407.13 358.435-407.13q-22.761 0-44.522 3.119-21.761 3.12-37.283 7.881l90.479 90-47.739 47.739-172.044-171.804L319.37-602l47.739 47.739-89.761 89.761q18.282-4.522 40.043-7.641 21.761-3.12 37.522-3.12 60.326 0 100.511 20.163 40.185 20.163 69.946 51.25v-310.673l-90 90-47.979-47.74 172.044-171.804 171.804 171.804-47.739 47.74-90-90v596.912h-68.13Z"/></svg>