<svg xmlns="http://www.w3.org/2000/svg" width="48" height="48" viewBox="0 -960 960 960"><path d="M357.903-156.891q-135.251 0-229.327-93.973Q34.5-344.836 34.5-480.016t94.092-229.256q94.092-94.076 229.272-94.076 135.179 0 229.256 94.021 94.076 94.022 94.076 229.272 0 135.251-94.022 229.207-94.021 93.957-229.271 93.957Zm-.291-65.261q107.279 0 182.562-75.167 75.282-75.167 75.282-182.446 0-107.278-75.047-182.681-75.047-75.402-182.326-75.402t-182.681 75.167Q100-587.514 100-480.235q0 107.278 75.167 182.681 75.167 75.402 182.445 75.402Zm-32.634-126.413h65.5v-197.37h80v-45.5h-225.5v45.5h80v197.37Zm458.065-301.587-44.197-98.738-98.498-43.958 98.498-44.197 44.197-98.499 43.884 98.499 98.573 44.197-98.573 43.958-43.884 98.738Zm0 625.457-44.197-98.499-98.498-44.197 98.498-43.958 44.197-98.738 43.884 98.738 98.573 43.958-98.573 44.197-43.884 98.499ZM357.848-480Z"/></svg>