<svg xmlns="http://www.w3.org/2000/svg" width="48" height="48"><path d="M24 41.05 6.15 23.35Q4.85 22 4.175 20.3 3.5 18.6 3.5 16.8q0-3.85 2.675-6.55 2.675-2.7 6.525-2.7 1.8 0 3.5.7t3 2L24 15l4.8-4.75q1.3-1.3 3-2t3.5-.7q3.85 0 6.55 2.7 2.7 2.7 2.7 6.55 0 1.8-.7 3.5t-2 3.05zM15.25 23.7l4.4-4.4-4.75-4.65q-.5-.55-1.1-.775-.6-.225-1.15-.175-1.25.05-2.15.95-.9.9-.9 2.15 0 .55.25 1.125t.7 1.025zM24 32.3l13.5-13.35q.5-.4.7-1 .2-.6.2-1.15 0-1.25-.875-2.15-.875-.9-2.125-.95-.55-.05-1.15.175-.6.225-1.1.775L19.7 28z"/></svg>