<svg xmlns="http://www.w3.org/2000/svg" width="48" height="48" viewBox="0 0 48 48"><path d="M23.2 42.15q-.9 0-1.675-.35t-1.325-.9L9.8 30.5l2.85-3q.75-.7 1.65-1.1.9-.4 1.9-.15l3.75.9V11q0-2.15 1.5-3.65t3.65-1.5q2.15 0 3.625 1.5T30.2 11v8.4h1.2q.25 0 .475.1.225.1.475.25l7.35 3.6q1.25.6 1.85 1.85.6 1.25.35 2.6l-1.8 10.95q-.25 1.5-1.45 2.45-1.2.95-2.7.95ZM22.8 39h14l2.15-12.45-9.1-4.6H27.1V11q0-.9-.55-1.45Q26 9 25.1 9q-.9 0-1.45.55-.55.55-.55 1.45v19.95l-7.75-1.65-1.15 1.15Zm0 0h14ZM9 20.2q-3.05 0-5.125-2.05T1.8 13.1q0-1.75.675-3.025T5.7 5.9L9 2.15l3.3 3.8q2.55 3 3.225 4.225.675 1.225.675 2.925 0 2.95-2.1 5.025T9 20.2Zm0-3.4q1.55 0 2.675-1.075Q12.8 14.65 12.8 13.1q0-1.05-.45-1.8t-2.4-2.85l-1-1.05L8 8.45q-1.65 1.85-2.225 2.825Q5.2 12.25 5.2 13.1q0 1.55 1.1 2.625T9 16.8Zm0-4.7Z"/></svg>