<svg xmlns="http://www.w3.org/2000/svg" width="48" height="48" viewBox="0 -960 960 960"><path d="M797.935-121.565q-21.034 0-35.735-14.651-14.7-14.65-14.7-35.784t14.672-35.784q14.671-14.651 35.664-14.651 21.233 0 35.883 14.622 14.651 14.623 14.651 35.785t-14.631 35.812q-14.63 14.651-35.804 14.651ZM396-74.5q-99.312 0-170.406-20.59-71.094-20.59-71.094-53.553 0-22.553 41.052-42.416 41.052-19.864 95.818-29.963V-140h72v-747.413L669.957-738 428.63-611.456v385.686q91.914 6.226 150.392 27.542Q637.5-176.913 637.5-149q0 32.196-69.859 53.348Q497.783-74.5 396-74.5Z"/></svg>