<svg xmlns="http://www.w3.org/2000/svg" width="48" height="48" viewBox="0 96 960 960"><path d="M-2.87 818.87v-55.982q0-40.609 42.706-65.183Q82.54 673.13 150.398 673.13q10.833 0 20.565.381 9.733.38 19.537 1.868-8.239 17.751-12.598 36.238-4.359 18.486-4.359 39.383v67.87H-2.87Zm240 0V751q0-66.476 67.286-107.173t175.551-40.697q109.468 0 176.185 40.697Q722.87 684.524 722.87 751v67.87H237.13Zm549.327 0v-67.972q0-20.804-3.859-39.27-3.859-18.466-12.098-36.249 9.804-1.488 19.562-1.868 9.757-.381 19.938-.381 68.983 0 110.926 24.552Q962.87 722.234 962.87 763v55.87H786.457ZM149.618 643.848q-29.335 0-50.314-21.105-20.978-21.105-20.978-50.741 0-29.785 21.056-50.763 21.055-20.978 50.622-20.978 29.713 0 50.811 20.986 21.098 20.987 21.098 51.14 0 29.265-21.035 50.363-21.036 21.098-51.26 21.098Zm660 0q-29.335 0-50.314-21.105-20.978-21.105-20.978-50.741 0-29.785 21.055-50.763 21.056-20.978 50.623-20.978 29.713 0 50.811 20.986 21.098 20.987 21.098 51.14 0 29.265-21.035 50.363-21.036 21.098-51.26 21.098ZM480.117 573.37q-51.244 0-87.115-35.872-35.872-35.871-35.872-87.116 0-52.078 35.872-87.415 35.871-35.337 87.115-35.337 52.079 0 87.416 35.337 35.337 35.337 35.337 87.415 0 51.245-35.337 87.116-35.337 35.872-87.416 35.872Z"/></svg>