<svg xmlns="http://www.w3.org/2000/svg" width="48" height="48" viewBox="0 -960 960 960"><path d="M479.761-33.065q-188.631 0-317.783-69.428Q32.826-171.922 32.826-273.326q0-81.152 73.962-137.944 73.963-56.792 198.668-72.121v67.891q-94.086 8.761-149.173 47.444-55.087 38.682-55.087 94.73 0 68.043 113.521 120.087 113.522 52.043 265.01 52.043 151.966 0 265.641-52.043 113.675-52.044 113.675-119.989 0-57.162-55.826-95.337-55.826-38.174-148.673-46.935v-67.891q123.434 14.478 198.032 71.815 74.598 57.337 74.598 138.25 0 102.404-129.06 171.333-129.06 68.928-318.353 68.928ZM365.456-205.913v-441.565H154.022v-68.131h652.196v68.131H594.783v441.565h-68.37v-201.413h-92.826v201.413h-68.131Zm114.748-569.696q-31.003 0-53.136-22.072-22.133-22.073-22.133-53.109 0-31.275 21.929-53.351 21.929-22.077 52.932-22.077 31.003 0 53.256 21.904 22.252 21.903 22.252 53.108 0 30.967-22.049 53.282-22.048 22.315-53.051 22.315Z"/></svg>