<svg xmlns="http://www.w3.org/2000/svg" width="48" height="48" viewBox="0 -960 960 960"><path d="M635.043-358.565v-242.87h154.044q24.435 0 38.152 13.718 13.718 13.717 13.718 38.152v61q0 16.522-10.761 28.402-10.761 11.88-27.522 14.12l35.239 87.478h-52.587l-29.804-79.326h-69.609v79.326h-50.87Zm50.87-129h104.174v-63H685.913v63Zm-567.826 129v-242.87h50.87v89h105.13v-89h50.87v242.87h-50.87v-103h-105.13v103h-50.87Zm258.478 0v-242.87h155q24.435 0 38.152 13.718 13.718 13.717 13.718 38.152v139.13q0 24.435-13.718 38.152-13.717 13.718-38.152 13.718h-155Zm50.87-50.87h105.13v-141.13h-105.13v141.13Z"/></svg>