<svg xmlns="http://www.w3.org/2000/svg" width="48" height="48" viewBox="0 -960 960 960"><path d="M333.022-114.5h-150.87q-27.599 0-47.865-20.266-20.265-20.265-20.265-47.864V-480q0-76.196 28.858-142.772 28.859-66.576 78.316-116.032 49.456-49.457 116.032-78.435Q403.804-846.218 480-846.218t142.772 28.979q66.576 28.978 116.032 78.435 49.457 49.456 78.435 116.032Q846.218-556.196 846.218-480v297.37q0 27.599-20.337 47.864-20.336 20.266-48.033 20.266h-150.87v-307h150.87V-480q0-124.461-86.681-211.154-86.681-86.694-211.124-86.694-124.444 0-211.167 86.694Q182.152-604.461 182.152-480v58.5h150.87v307Z"/></svg>