<svg xmlns="http://www.w3.org/2000/svg" width="48" height="48" viewBox="0 -960 960 960"><path d="M333.022-114.5h-150.87q-27.599 0-47.865-20.266-20.265-20.265-20.265-47.864V-480q0-76.196 28.858-142.772 28.859-66.576 78.316-116.032 49.456-49.457 116.032-78.435Q403.804-846.218 480-846.218t142.772 28.979q66.576 28.978 116.032 78.435 49.457 49.456 78.435 116.032Q846.218-556.196 846.218-480v297.37q0 27.599-20.337 47.864-20.336 20.266-48.033 20.266h-150.87v-307h150.87V-480q0-124.104-86.86-210.976-86.859-86.872-210.945-86.872t-210.989 86.872Q182.152-604.104 182.152-480v58.5h150.87v307Z"/></svg>