<svg xmlns="http://www.w3.org/2000/svg" width="48" height="48" viewBox="0 0 48 48"><path d="M5.25 38.2q-1.45 0-2.45-1-1-1-1-2.45v-21.5q0-1.45 1-2.45 1-1 2.45-1h21.5q1.45 0 2.45 1 1 1 1 2.45v21.5q0 1.45-1 2.45-1 1-2.45 1ZM36 22.2q-.9 0-1.55-.65T33.8 20v-8q0-.9.65-1.55T36 9.8h8q.9 0 1.55.65T46.2 12v8q0 .9-.65 1.55T44 22.2Zm0 16q-.9 0-1.55-.65T33.8 36v-8q0-.9.65-1.55T36 25.8h8q.9 0 1.55.65T46.2 28v8q0 .9-.65 1.55T44 38.2Zm-15-6.7q1.05 0 1.775-.75Q23.5 30 23.5 29q0-1.05-.725-1.775Q22.05 26.5 21 26.5q-1 0-1.75.725T18.5 29q0 1 .75 1.75t1.75.75Zm-10.1-.3 12.3-12.3-2.1-2.1L8.8 29.1Zm.1-9.7q1.05 0 1.775-.75Q13.5 20 13.5 19q0-1.05-.725-1.775Q12.05 16.5 11 16.5q-1 0-1.75.725T8.5 19q0 1 .75 1.75t1.75.75Z"/></svg>