<svg xmlns="http://www.w3.org/2000/svg" width="48" height="48" viewBox="0 -960 960 960"><path d="M104.783-196.413q-28.448 0-48.409-19.961t-19.961-48.409v-430.673q0-28.098 19.961-48.115 19.961-20.016 48.409-20.016h430.673q28.098 0 48.115 20.016 20.016 20.017 20.016 48.115v430.673q0 28.448-20.016 48.409-20.017 19.961-48.115 19.961H104.783Zm615.217-320q-18.524 0-31.056-12.531-12.531-12.532-12.531-31.056v-160q0-18.524 12.531-31.056 12.532-12.531 31.056-12.531h160q18.524 0 31.056 12.531 12.531 12.532 12.531 31.056v160q0 18.524-12.531 31.056-12.532 12.531-31.056 12.531H720Zm22.87-66.457h114.26v-114.26H742.87v114.26Zm-640 320h434.26v-434.26H102.87v434.26ZM720-196.413q-18.524 0-31.056-12.531-12.531-12.532-12.531-31.056v-160q0-18.524 12.531-31.056 12.532-12.531 31.056-12.531h160q18.524 0 31.056 12.531 12.531 12.532 12.531 31.056v160q0 18.524-12.531 31.056-12.532 12.531-31.056 12.531H720Zm22.87-66.457h114.26v-114.26H742.87v114.26Zm-640 0v-434.26 434.26Zm640-320v-114.26 114.26Zm0 320v-114.26 114.26ZM420.5-330q20.5 0 35-15t14.5-35.5q0-20.5-14.583-35Q440.833-430 420-430q-20 0-35 14.583-15 14.584-15 35.417 0 20 15 35t35.5 15ZM218-336l246-246-42-42-246 246 42 42Zm2.5-194q20.5 0 35-15t14.5-35.5q0-20.5-14.583-35Q240.833-630 220-630q-20 0-35 14.583-15 14.584-15 35.417 0 20 15 35t35.5 15Z"/></svg>