<svg xmlns="http://www.w3.org/2000/svg" width="48" height="48" viewBox="0 -960 960 960"><path d="M588.761-405.935v-68.13h328.13v68.13h-328.13Zm-149 294.066-118.63-106.587q-77.979-70.261-132.468-124.489-54.489-54.229-89.185-101.022-34.695-46.794-50.195-89.631t-15.5-89.793q0-96.631 64.793-161.044 64.794-64.413 161.185-64.413 52 0 98.761 20.902 46.761 20.902 81.239 59.946 34.717-39.044 81.478-59.946 46.761-20.902 98.522-20.902 88.348 0 148.598 54.25 60.25 54.25 73.054 129.228-20.869-10.108-42.576-15.282-21.707-5.174-43.25-5.413-102.674 0-174.75 71.695-72.076 71.696-72.076 174.37 0 55.348 23.63 104.359 23.631 49.011 65.935 82.489-18.522 17-46.63 41.587-28.109 24.587-49.631 44.109l-62.304 55.587Z"/></svg>