<svg xmlns="http://www.w3.org/2000/svg" width="48" height="48" viewBox="0 -960 960 960"><path d="M480-398.565ZM74.022-154.022v-420.956q0-27.698 20.265-48.034 20.266-20.336 47.865-20.336h131.87v-94.5q0-27.697 20.265-48.033 20.266-20.337 47.865-20.337h275.696q27.697 0 48.033 20.337 20.337 20.336 20.337 48.033v94.5h131.63q27.697 0 48.033 20.336 20.337 20.336 20.337 48.034v420.956H74.022Zm232.913-210.956v60h-68.37v-60h-96.413v142.826h675.696v-142.826h-96.413v60h-68.131v-60H306.935Zm-164.783-210v142.826h96.413v-60h68.37v60h346.369v-60h68.131v60h96.413v-142.826H142.152Zm200-68.37h275.696v-94.5H342.152v94.5Z"/></svg>