<svg xmlns="http://www.w3.org/2000/svg" width="48" height="48" viewBox="0 -960 960 960"><path d="M479.945-94.022q-135.336 0-230.63-93.28-95.293-93.281-95.293-227.378 0-64.465 24.978-123.186 24.978-58.721 70.935-104.678L432.261-821.87q10.153-9.326 22.477-14.358 12.324-5.033 25.073-5.033t25.204 5.033q12.455 5.032 22.724 14.358l182.326 179.326q45.957 45.957 71.055 104.693 25.098 58.736 25.098 123.09 0 134.549-95.468 227.644T479.945-94.022Zm-.18-68.13q107.278 0 182.681-73.269 75.402-73.269 75.402-179.588 0-50.046-19.381-95.801-19.38-45.755-54.181-80.411L480-772.891l-184.286 181.67q-34.801 34.656-54.181 80.407-19.381 45.75-19.381 95.842 0 106.417 75.167 179.618 75.167 73.202 182.446 73.202Z"/></svg>