<svg xmlns="http://www.w3.org/2000/svg" width="48" height="48" viewBox="0 -960 960 960"><path d="M589.218-34.26H439.043q-14.928 0-24.942-10.015-10.014-10.014-10.014-25.119v-254.525q0-14.77 10.014-24.784t24.963-10.014h42.175v-127.261H138.326q-26.663 0-45.484-18.94-18.82-18.941-18.82-45.604v-192.761q0-26.663 18.82-45.603 18.821-18.94 45.484-18.94h84.196v-43.435q0-14.857 9.879-24.907 9.88-10.05 25.077-10.05h513.85q14.622 0 24.756 10.05t10.134 24.907v159.413q0 14.929-10.185 24.943-10.184 10.014-24.762 10.014H257.478q-15.197 0-25.077-9.983-9.879-9.983-9.879-25.093v-51.076h-83.957v192.282h342.913q26.424 0 45.364 18.94 18.941 18.941 18.941 45.604v127.5h43.506q14.887 0 24.766 10.014 9.88 10.014 9.88 24.784v254.525q0 15.105-9.88 25.12-9.879 10.013-24.837 10.013Z"/></svg>