<svg xmlns="http://www.w3.org/2000/svg" width="48" height="48" viewBox="0 -960 960 960"><path d="M269.935-358.565q-14.402 0-23.484-9.151-9.081-9.152-9.081-23.654V-460H288v49.37h82.565v-190.805h50.87v210.065q0 14.502-9.151 23.654-9.152 9.151-23.654 9.151H269.935Zm244.065 0q-15.813 0-25.624-9.811-9.811-9.811-9.811-25.624v-46h50.87v30.565h101.13V-461H514.07q-14.883 0-25.194-10.311t-10.311-25.21v-69.393q0-15.899 9.811-25.71 9.811-9.811 25.624-9.811h132q15.813 0 25.624 9.811 9.811 9.811 9.811 25.624v46h-50.87v-30.565h-101.13V-499H645.93q14.883 0 25.194 10.311t10.311 25.21v69.393q0 15.899-9.811 25.71-9.811 9.811-25.624 9.811H514Z"/></svg>