<svg xmlns="http://www.w3.org/2000/svg" width="48" height="48" viewBox="0 -960 960 960"><path d="M203-510v60h60v-60h-60Zm124 0v60h60v-60h-60Zm123 0v60h60v-60h-60ZM203-635v60h60v-60h-60Zm124 0v60h60v-60h-60Zm123 0v60h60v-60h-60Zm124 0v60h60v-60h-60Zm123 0v60h60v-60h-60Zm39.391 561.044-47.739-47.979 68.935-69.934H582.326V-260h175.261l-68.935-69.935 47.739-47.978L888.37-225.935 736.391-73.956ZM485.043-191.87H140q-27.587 0-47.859-20.772Q71.87-233.413 71.87-260v-440q0-27.587 20.272-47.978Q112.413-768.37 140-768.37h680q27.587 0 47.978 20.392Q888.37-727.587 888.37-700v271.304q-28.435-22.152-62.087-34.967Q792.63-476.478 757-479.478V-510h-60v33.239q-17 2.239-32.5 6.739t-30.5 11.5V-510h-60v60h43.196q-23 12-42.239 28.5-19.24 16.5-35.479 36.5H300v60h202.761q-9.718 22.957-14.576 47.533-4.859 24.576-4.859 51.532 0 8.957.12 17.153.119 8.195 1.597 16.913Z"/></svg>