<svg xmlns="http://www.w3.org/2000/svg" width="48" height="48" viewBox="0 -960 960 960"><path d="M102.63-114.5q-27.599 0-47.864-20.266Q34.5-155.031 34.5-182.63v-554.74q0-27.599 20.266-47.864Q75.03-805.5 102.63-805.5h754.74q27.599 0 47.864 20.266Q925.5-764.969 925.5-737.37v554.74q0 27.599-20.266 47.864Q884.969-114.5 857.37-114.5H102.63Zm0-68.13h754.74v-554.74H102.63v554.74Zm195.935-77.935h362.87v-66.87h-362.87v66.87Zm-118-145h89.87v-88.87h-89.87v88.87Zm170 0h89.87v-88.87h-89.87v88.87Zm169 0h89.87v-88.87h-89.87v88.87Zm170 0h89.87v-88.87h-89.87v88.87Zm-509-167h89.87v-87.87h-89.87v87.87Zm170 0h89.87v-87.87h-89.87v87.87Zm169 0h89.87v-87.87h-89.87v87.87Zm170 0h89.87v-87.87h-89.87v87.87ZM102.63-182.63v-554.74 554.74Z"/></svg>