<svg xmlns="http://www.w3.org/2000/svg" width="48" height="48" viewBox="0 -960 960 960"><path d="M678.429-74.022q-15.174 0-28.628-13.788-13.453-13.788-13.453-28.929v-123.674q0-15.239 13.38-28.859 13.381-13.619 28.62-13.619v-40q0-36.52 23.957-61.739 23.958-25.218 59.478-25.218 35.239 0 58.837 25.218 23.598 25.219 23.598 61.739v40h.689q14.311 0 27.811 13.619 13.5 13.62 13.5 28.859v123.743q0 15.17-13.5 28.91-13.5 13.738-27.74 13.738H678.429Zm41.354-208.869h84v-40q0-20-11.62-33-11.619-13-30.5-13-19.88 0-30.88 13t-11 33v40ZM203-450h60v-60h-60v60Zm124 0h60v-60h-60v60Zm123 0h60v-60h-60v60Zm124 0h60v-60h-60v60ZM203-575h60v-60h-60v60Zm124 0h60v-60h-60v60Zm123 0h60v-60h-60v60Zm124 0h60v-60h-60v60Zm123 0h60v-60h-60v60ZM584.348-282v90.131H140q-27.599 0-47.865-20.766Q71.87-233.401 71.87-260v-440q0-27.698 20.266-48.034T140-768.37h680q27.698 0 48.034 20.336T888.37-700v296.544q-26.419-26.153-60.318-39.75-33.9-13.598-71.052-12.642V-510h-60v67.065q-23.087 8.761-43.272 23.565Q633.544-404.565 619.5-385H300v60h290.065q-2.239 11-3.978 21.5-1.739 10.5-1.739 21.5Z"/></svg>