<svg xmlns="http://www.w3.org/2000/svg" width="48" height="48" viewBox="0 96 960 960"><path d="M69 987h816.5L638.087 656.957l-201.674-81.914L317.37 416H69v571Zm65.5-65.5v-99.087l100 32 376.196-124.478L754.5 921.5h-620Zm100-134.826-100-34v-94.565l100 32 171.804-55.283 119.131 54.283L234.5 786.674Zm507.891-127.565L925.5 577.674V413.848l-183.348-40.957L640 454.565v122.87l102.391 81.674ZM234.5 622.37l-100-34V481.5h150l77.217 98.543L234.5 622.37Zm516.848-27.718L695.5 551.565v-70.13l60.848-48.326L870 458.152v82.935l-118.652 53.565ZM481.196 418.87l201.434-80.479V136.239L481.196 95.761 360 176.717v161.196l121.196 80.957Zm5.478-60.783-72.609-49.326V205.87l78.848-52.566 135.652 27.283v120.935l-141.891 56.565Z"/></svg>