<svg xmlns="http://www.w3.org/2000/svg" width="48" height="48" viewBox="0 0 48 48"><path d="M8.2 24.25 2 13.55 15.4 5.8h2.95q.65 2.15 2.125 3.9T24 11.45q2.1 0 3.575-1.75t2.075-3.9h2.95l13.35 7.8-6.15 10.65-3.6-2V32.3l-3.05 2.55q-.1.1-.15.125-.05.025-.15.025V16.6l5.75 3.15 2.8-4.95L32 9.3q-1.3 2.55-3.45 4.025Q26.4 14.8 24 14.8q-2.35 0-4.5-1.475T16.05 9.25l-9.5 5.55 2.9 4.95 5.7-3.15v11.3q-.85.1-1.7.35-.85.25-1.65.6v-6.6Zm1.15 14.7-2.2-2.55 4.1-3.45q1.15-1 2.6-1.5 1.45-.5 2.9-.5t2.875.5q1.425.5 2.575 1.5L28 37.9q.7.55 1.55.825.85.275 1.75.275.85 0 1.725-.275.875-.275 1.575-.825l4.05-3.55 2.2 2.6-4.1 3.45q-1.15.95-2.575 1.45-1.425.5-2.875.5t-2.9-.5q-1.45-.5-2.6-1.45l-5.75-4.95q-.7-.6-1.575-.85t-1.725-.25q-.9 0-1.75.25t-1.55.85ZM24 14.8Z"/></svg>