<svg xmlns="http://www.w3.org/2000/svg" width="48" height="48" viewBox="0 -960 960 960"><path d="M114.022-401.848v-65.5q78.239 0 147.201-29.83 68.963-29.831 120.554-81.118 51.59-51.287 81.352-120.505 29.762-69.217 29.762-147.417h65.261q0 92.086-34.918 172.843-34.918 80.758-95.416 141.236-60.498 60.478-141.23 95.385-80.733 34.906-172.566 34.906Zm0-122.63v-65.74q106 0 181-74.88t75-181.12h65.5q0 134.392-93.693 228.066t-227.807 93.674Zm0-122.87v-198.87h198.869q0 82.435-58.337 140.653-58.337 58.217-140.532 58.217Zm287.826 533.326q0-91.918 34.881-172.657 34.881-80.738 95.349-141.209 60.469-60.472 141.223-95.368 80.754-34.896 172.917-34.896v65.261q-78.521 0-147.419 29.858-68.899 29.859-120.441 81.194-51.542 51.336-81.276 120.618-29.734 69.281-29.734 147.199h-65.5Zm122.63 0q0-134.152 93.681-227.826t228.059-93.674v65.5q-106.24 0-181.12 75-74.88 75-74.88 181h-65.74Zm122.87 0q0-82.116 58.257-140.492 58.257-58.377 140.613-58.377v198.869h-198.87Z"/></svg>