<svg xmlns="http://www.w3.org/2000/svg" width="48" height="48" viewBox="0 96 960 960"><path d="M490.065 718.456q41 0 70-28.281t29-69.24V369.987h116v-60.096h-156v235.565q-10.761-9-26.199-14-15.439-5-32.801-5-39.06 0-66.03 27.367-26.97 27.366-26.97 67 0 39.633 26.97 68.633 26.97 29 66.03 29ZM266.218 857.913q-27.599 0-47.865-20.266-20.266-20.266-20.266-47.865V234.087q0-27.698 20.266-48.034t47.865-20.336h555.695q27.698 0 48.034 20.336t20.336 48.034v555.695q0 27.599-20.336 47.865-20.336 20.266-48.034 20.266H266.218Zm0-68.131h555.695V234.087H266.218v555.695ZM138.087 986.283q-27.698 0-48.034-20.336t-20.336-48.034V294.087h68.37v623.826h623.826v68.37H138.087Zm128.131-752.196v555.695-555.695Z"/></svg>