<svg xmlns="http://www.w3.org/2000/svg" width="48" height="48" viewBox="0 0 48 48"><path d="M11.3 40.25q-2.5 0-4.25-1.725t-1.8-4.175H1.7v-23.2q0-1.4 1.025-2.425T5.15 7.7H34.1v8.25h5.15l7.05 9.35v9.05h-3.7q-.05 2.45-1.8 4.175-1.75 1.725-4.25 1.725-2.45 0-4.225-1.725Q30.55 36.8 30.55 34.35H17.3q-.05 2.45-1.8 4.175-1.75 1.725-4.2 1.725Zm-.05-3.15q1.2 0 2.05-.85.85-.85.85-2.05 0-1.2-.85-2.05-.85-.85-2.05-.85-1.2 0-2.05.85-.85.85-.85 2.05 0 1.2.85 2.05.85.85 2.05.85Zm25.3 0q1.2 0 2.05-.85.85-.85.85-2.05 0-1.2-.85-2.05-.85-.85-2.05-.85-1.2 0-2.05.85-.85.85-.85 2.05 0 1.2.85 2.05.85.85 2.05.85ZM34.1 26.75h9l-5.55-7.4H34.1Z"/></svg>