<svg xmlns="http://www.w3.org/2000/svg" width="48" height="48" viewBox="0 -960 960 960"><path d="M480-52.83q-79.43-69.95-173.62-107.43-94.19-37.48-192.36-37.48v-432.35q96.15 0 189.97 42.29Q397.8-545.52 480-469.72q82.2-75.8 176.07-118.08 93.87-42.29 190.15-42.29v432.35q-98.2 0-192.49 37.48Q559.43-122.78 480-52.83ZM371.71-654.22q-45.34-45.33-45.34-111.41 0-66.09 45.28-111.54 45.27-45.46 111.29-45.46 66.02 0 111.35 45.45 45.34 45.44 45.34 111.53 0 66.08-45.28 111.42-45.27 45.34-111.29 45.34-66.02 0-111.35-45.33Z"/></svg>