<svg xmlns="http://www.w3.org/2000/svg" width="48" height="48" viewBox="0 -960 960 960"><path d="M154.022-114.022v-68.13h652.196v68.13H154.022Zm155.782-144.543q-65.179 0-110.481-44.935-45.301-44.935-45.301-109.848v-432.87h664.065q28.104 0 48.117 20.081 20.014 20.081 20.014 48.05v160q0 28.098-20.014 48.114-20.013 20.017-48.117 20.017h-92.652v136.608q0 64.913-45.475 109.848-45.476 44.935-110.547 44.935H309.804Zm.239-68.37h259.109q34.838 0 61.495-26.516 26.657-26.517 26.657-60.136v-364.261H222.152v364.261q0 33.619 26.975 60.136 26.975 26.516 60.916 26.516Zm415.392-291.152h92.413v-160h-92.413v160ZM310.043-326.935h-87.891 435.152-347.261Z"/></svg>