<svg xmlns="http://www.w3.org/2000/svg" width="48" height="48" viewBox="0 -960 960 960"><path d="M835.87-37.174 642.391-230.89q-33.717 37.478-73.815 76.576Q528.478-115.217 480-74.739 317.087-213.413 236.511-332.228 155.935-451.043 155.935-552q0-38.717 7.119-72.815 7.12-34.098 20.598-64.815L25.044-848l44.913-44.913L880.783-82.087 835.87-37.174ZM722.261-329.957 534.63-517.826q7.522-8.044 12.164-18.707 4.641-10.663 4.641-23.467 0-29.478-20.978-50.457-20.979-20.978-50.457-20.978-12.804 0-23.467 4.641-10.663 4.642-18.707 12.164L256.478-795.5q45.239-43.283 103-65.924Q417.239-884.065 480-884.065q128.674 0 226.37 90.076Q804.065-703.913 804.065-552q0 50.761-20.261 106.022-20.26 55.261-61.543 116.021Z"/></svg>