<svg xmlns="http://www.w3.org/2000/svg" width="48" height="48" viewBox="0 -960 960 960"><path d="M520-110.022q-71.391 0-138.304-27.195-66.914-27.196-115.631-74.348l48.739-48.979q40.718 38.914 94.576 60.653 53.859 21.739 110.62 21.739 124.283 0 213.065-88.902Q821.848-355.957 821.848-480q0-124.283-88.783-213.065Q644.283-781.848 520-781.848q-123.565 0-212.706 88.544-89.142 88.543-89.142 212.347v17.044l70-70L332.065-490 184.087-342.022 36.109-490l43.913-43.913 70 70v-17.044q0-76.717 28.858-143.793 28.859-67.076 79.196-117.294 50.337-50.217 117.533-79.195Q442.804-850.218 520-850.218t144.391 28.979q67.196 28.978 117.533 79.315 50.337 50.337 79.315 117.533Q890.218-557.196 890.218-480q0 154.87-107.674 262.424Q674.87-110.022 520-110.022ZM440-325q-14 0-24.5-10.5T405-360v-120q0-14 11.5-24.5T445-515v-45q0-31 22-53t53-22q31 0 53 22t22 53v45q17 0 28.5 10.5T635-480v120q0 14-10.5 24.5T600-325H440Zm35-190h90v-45q0-19-13-32t-32-13q-19 0-32 13t-13 32v45Z"/></svg>