<svg xmlns="http://www.w3.org/2000/svg" width="48" height="48" viewBox="0 96 960 960"><path d="M362.37 779H535q25.913 0 44.272-18.359 18.358-18.358 18.358-44.271V632q0-27-14.38-42.5T548.63 574q20.24 0 34.62-13.5 14.38-13.5 14.38-41.5v-83.37q0-25.913-18.358-44.271Q560.913 373 535 373H362.37v62.63H535V544h-89.63v60H535v112.37H362.37V779ZM182.152 941.978q-27.599 0-47.865-20.265-20.265-20.266-20.265-47.865V278.152q0-27.697 20.265-48.033 20.266-20.337 47.865-20.337h595.696q27.697 0 48.033 20.337 20.337 20.336 20.337 48.033v595.696q0 27.599-20.337 47.865-20.336 20.265-48.033 20.265H182.152Zm0-68.13h595.696V278.152H182.152v595.696Zm0-595.696v595.696-595.696Z"/></svg>