<svg xmlns="http://www.w3.org/2000/svg" width="48" height="48" viewBox="0 -960 960 960"><path d="m480-455.348 337.848-217v-65.5L480-524.848l-337.848-213v65.5l337.848 217Zm286.913 301.326q-14 0-24.5-10.38t-10.5-24.62v-120q0-14.875 12-24.937 12-10.063 28-10.063v-45q0-30.698 22.044-52.849 22.045-22.151 53-22.151 30.956 0 52.956 22.151 22 22.151 22 52.849v45q16 0 28 10.063 12 10.062 12 24.937v120q0 14.24-10.38 24.62-10.381 10.38-24.62 10.38h-160Zm35-190h90v-44.912q0-18.848-12.912-31.968-12.912-13.12-32-13.12t-32.088 13.057q-13 13.058-13 31.943v45Zm-656.761 190q-29.335 0-50.233-19.391-20.897-19.391-20.897-48.739v-515.696q0-28.447 19.89-48.408 19.891-19.962 48.24-19.962h675.696q28.447 0 48.408 19.962 19.962 19.961 19.962 48.408v213.826h-34.305q-74.432 0-127.181 52.77-52.749 52.77-52.749 127.23v190H145.152Z"/></svg>