<svg xmlns="http://www.w3.org/2000/svg" width="48" height="48" viewBox="0 -960 960 960"><path d="M142.152-154.022q-27.599 0-47.865-20.265-20.265-20.266-20.265-47.865v-515.696q0-27.697 20.265-48.033 20.266-20.337 47.865-20.337h675.696q27.697 0 48.033 20.337 20.337 20.336 20.337 48.033v515.696q0 27.599-20.337 47.865-20.336 20.265-48.033 20.265H142.152Zm286.435-68.13h389.261v-359l-22.218-16.304-112.091 34.746-95.101-30.746-59.738 81.955-95.787 31.122v100.798l-59.456 81.255 55.13 76.174Zm-79.739 0-55.131-76.174 74.543-102.568v-126.989l120.877-38.265 74.549-102.809 119.901 39.24 134.261-45.087v-63.044H142.152v515.696h206.696Zm84.13-258.261Z"/></svg>