<svg xmlns="http://www.w3.org/2000/svg" width="48" height="48" viewBox="0 -960 960 960"><path d="M106.608-787.174v-68.37h499.131v68.37H106.608Zm198.131 523.87h102.87V-364.5h101.434v-102.87H407.609v-101.195h-102.87v101.195H203.304v102.87h101.435v101.196ZM133.782-104.695q-27.697 0-48.033-20.266-20.336-20.266-20.336-47.865v-486.217q0-27.348 20.336-47.74 20.336-20.391 48.033-20.391h444.783q27.698 0 48.034 20.391 20.336 20.392 20.336 47.74v486.217q0 27.599-20.336 47.865-20.336 20.266-48.034 20.266H133.782Zm655.305-315.327q-36.196-17.956-59.174-57.563-22.978-39.606-22.978-92.176 0-66.109 33.793-111.761 33.794-45.652 82.544-45.652t82.544 45.652q33.793 45.652 33.793 111.761 0 52.57-22.978 92.176-22.978 39.607-59.174 57.563v281.261q0 13.674-9.696 23.87-9.695 10.196-24.348 10.196-13.653 0-23.99-10.196-10.336-10.196-10.336-23.87v-281.261Z"/></svg>