<svg xmlns="http://www.w3.org/2000/svg" width="48" height="48" viewBox="0 -960 960 960"><path d="M560-567.304v-48q33-14 67.5-21t72.5-7q26 0 51 4t49 10v44q-24-9-48.5-13.5t-51.5-4.5q-38 0-73 9.5t-67 26.5Zm0 220v-49q33-13.5 67.5-20.25t72.5-6.75q26 0 51 4t49 10v44q-24-9-48.5-13.5t-51.5-4.5q-38 0-73 9t-67 27Zm0-110v-48q33-14 67.5-21t72.5-7q26 0 51 4t49 10v44q-24-9-48.5-13.5t-51.5-4.5q-38 0-73 9.5t-67 26.5Zm-48 214q50-25 98-37.5t102-12.5q38 0 78.5 6t69.5 16v-429q-34-17.239-71.822-25.12-37.823-7.88-76.178-7.88-54 0-104.5 16.5t-95.5 46.5v427Zm-29.479 96.456q-51.282-37.76-111.204-58.978Q311.395-227.043 248-227.043q-35.965 0-70.646 9.119-34.68 9.12-69.202 21.642-25.491 12.434-49.572-2.799-24.08-15.234-24.08-44.267v-462.761q0-17.391 7.956-32.091 7.957-14.7 23.87-22.561 42.478-19.761 88.205-29.022 45.726-9.26 92.964-9.26 63.266 0 122.885 17.119Q430-764.804 482-729.326q51-35.239 109.62-52.478 58.619-17.239 120.885-17.239 47.416 0 92.554 9.26 45.137 9.261 87.615 29.022 15.913 7.861 24.37 22.561 8.456 14.7 8.456 32.091v465.392q0 30.056-25.011 44.963-25.011 14.906-49.641-.528-33.522-13.522-68.202-22.142-34.681-8.619-70.646-8.619-63.054 0-120.745 21.837t-108.734 58.358Z"/></svg>