<svg xmlns="http://www.w3.org/2000/svg" width="48" height="48" viewBox="0 -960 960 960"><path d="M262.39-34.02q-28.7 0-48.53-19.77-19.84-19.76-19.84-48.36v-755.7q0-27.7 20.34-48.03 20.33-20.34 48.03-20.34h433.22q28.7 0 48.53 19.84 19.84 19.83 19.84 48.53v156.89H640.02l-40.23 40.24q-55.36 0-95.42 30-40.07 30-40.07 90.32v160.82q0 50.3 35 85.3t85.41 35h179.27v157.13q0 28.6-19.84 48.36-19.83 19.77-48.53 19.77H262.39Zm238.69-690.56q9.35-9.35 9.35-22.07t-9.35-22.08q-9.36-9.36-22.08-9.36-12.72 0-22.08 9.36-9.35 9.36-9.35 22.08 0 12.72 9.35 22.07 9.36 9.36 22.08 9.36 12.72 0 22.08-9.36Zm83.33 405.3q-25.16 0-42.63-17.48-17.48-17.48-17.48-42.65v-161.08q0-24.95 17.48-42.59 17.47-17.64 42.7-17.64h40.38l40.18-40.24h80.35l40.29 40.24h40.3q25 0 42.62 17.6 17.62 17.6 17.62 42.74v160.9q0 25.2-17.62 42.7-17.62 17.5-42.59 17.5h-241.6ZM755-410.29q20.5-20.53 20.5-49.74t-20.53-49.83q-20.53-20.62-49.74-20.62t-49.83 20.65q-20.62 20.65-20.62 49.86t20.65 49.71q20.65 20.5 49.86 20.5T755-410.29Z"/></svg>