<svg xmlns="http://www.w3.org/2000/svg" width="48" height="48" viewBox="0 -960 960 960"><path d="M479.825-478q-14.499 0-24.195-9.821-9.695-9.82-9.695-24.244v-343.848q0-14.424 9.871-24.364 9.871-9.941 24.369-9.941 14.499 0 24.195 9.941 9.695 9.94 9.695 24.364v343.848q0 14.424-9.871 24.244Q494.323-478 479.825-478ZM480-112.022q-76.196 0-142.772-28.858-66.576-28.859-116.032-78.316-49.457-49.456-78.316-116.032Q114.022-401.804 114.022-478q0-64 21.902-123.38 21.902-59.381 63.424-107.62 9.956-11.674 24.869-12.413 14.913-.739 26.098 9.967 9.446 9.446 8.305 23.62-1.142 14.174-9.859 25.609-32.804 38.282-49.707 86.204-16.902 47.921-16.902 98.013 0 124.401 86.724 211.124Q355.599-180.152 480-180.152t211.124-86.724Q777.848-353.599 777.848-478q0-51.565-16.902-98.63-16.903-47.066-49.468-86.348-9.29-11.72-10.003-25.251-.714-13.532 8.721-22.967 11.674-11.195 27.587-9.956 15.913 1.239 26.108 13.913Q805.174-659 825.696-600q20.522 59 20.522 122 0 76.196-28.979 142.772-28.978 66.576-78.435 116.032-49.456 49.457-116.032 78.316Q556.196-112.022 480-112.022Z"/></svg>