<svg xmlns="http://www.w3.org/2000/svg" width="48" height="48" viewBox="0 96 960 960"><path d="M35.935 944.131V426.454q-18-11.65-29-28.151-11-16.501-11-37.058 0-21.238 21.815-51.709Q39.565 279.065 70 249.63q30.435 29.435 52.25 59.945t21.815 51.774q0 20.499-11 37.034-11 16.536-29 28.139V610.5h101.87v-99.13q0-25.196 18.5-44.316 18.5-19.119 46.065-19.837-12.283-21.439-18.424-42.503t-6.141-38.967q0-38.529 17.978-72.008 17.978-33.478 49.696-53.957L480 128.348l166.391 111.434q31.718 20.479 49.696 53.957 17.978 33.479 17.978 72.008 0 17.903-6.141 38.967T689.5 447.217q27.565.718 46.065 19.837 18.5 19.12 18.5 44.316v99.13h101.87V426.623q-18-11.819-29-28.32-11-16.501-11-37.058 0-21.238 21.815-51.709 21.815-30.471 52.25-59.906 30.435 29.435 52.25 59.945t21.815 51.774q0 20.499-11 37.034-11 16.536-29 28.533v517.215h-395.5V780.065q0-20.496-13.991-34.531Q500.583 731.5 480.15 731.5t-34.574 14.034q-14.141 14.035-14.141 34.531v164.066h-395.5ZM396 447.065h168q34.499 0 58.217-23.4 23.718-23.4 23.718-57.824 0-21.515-10.022-39.678Q625.891 308 609.82 297.138L480 210.152l-129.82 86.986Q334.109 308 324.087 326.181q-10.022 18.181-10.022 39.689 0 34.401 23.718 57.798T396 447.065ZM104.065 876h259.239v-95.935q0-48.623 34.087-82.659 34.087-34.036 82.783-34.036t82.728 34.036q34.033 34.036 34.033 82.659V876h259V678.63h-170V515.435h-411.87V678.63h-170V876ZM480 515.435Zm0-68.37Zm0 .152Z"/></svg>