<svg xmlns="http://www.w3.org/2000/svg" width="48" height="48" viewBox="0 0 48 48"><path d="M36.45 42q-3.95 0-6.75-2.8t-2.8-6.75q0-4 2.8-6.775 2.8-2.775 6.75-2.775 4 0 6.775 2.775Q46 28.45 46 32.45q0 3.95-2.775 6.75T36.45 42ZM7.1 40.3q-1.35 0-2.375-1.025T3.7 36.9v-8.5h3.4v8.5h8.5v3.4Zm29.5-1.95q.5 0 .85-.325t.35-.875q0-.55-.35-.9t-.85-.35q-.55 0-.875.35-.325.35-.325.9t.325.875q.325.325.875.325Zm-.95-4.5h1.85V26.7h-1.85Zm-13.15.2q-5-.55-8.5-4.05t-4.05-8.5h3.35q.5 3.6 3.075 6.15Q18.95 30.2 22.5 30.7ZM24 23.7q-1.55 0-2.625-1.075T20.3 20q0-1.55 1.075-2.625T24 16.3q1.55 0 2.625 1.075T27.7 20q0 1.55-1.075 2.625T24 23.7ZM9.95 18.5q.55-5 4.05-8.5t8.5-4.05V9.3q-3.6.5-6.15 3.05-2.55 2.55-3.05 6.15Zm24.75 0q-.5-3.6-3.05-6.15Q29.1 9.8 25.5 9.3V5.95q5 .55 8.5 4.05t4.05 8.5Zm-31-6.9V3.1q0-1.4 1.025-2.4T7.1-.3h8.5v3.4H7.1v8.5Zm37.2 0V3.1h-8.5V-.3h8.5q1.4 0 2.4 1t1 2.4v8.5Z"/></svg>