<svg xmlns="http://www.w3.org/2000/svg" width="48" height="48" viewBox="0 -960 960 960"><path d="M334.043-340.435h50.305l32.644-85.848h127.095l31.804 85.848h52.066l-122.044-319.13h-50.826l-121.044 319.13Zm95.87-129.522 49.269-134.413H481l50.087 134.413H429.913Zm50.12 395.935q-84.229 0-158.278-31.835-74.049-31.836-128.96-86.668-54.91-54.831-86.842-128.816-31.931-73.985-31.931-158.186 0-41.995 7.76-81.734 7.761-39.739 24.522-77.978l52.174 52.174q-7.381 26.391-11.853 53.252-4.473 26.861-4.473 54.291 0 141.341 98.304 239.355Q338.759-142.152 480-142.152q141.418 0 239.633-98.215t98.215-239.513q0-141.299-97.94-239.634-97.94-98.334-239.24-98.334-27.038 0-54.122 4.287-27.085 4.286-53.611 11.8l-53.174-53.174q37.761-13.522 76.619-22.402 38.859-8.881 79.62-8.881 84.558 0 159.073 31.979 74.514 31.978 130.355 86.919 55.841 54.942 88.315 129.033 32.475 74.091 32.475 158.32T854.12-321.695q-32.098 74.043-86.935 128.88-54.837 54.837-128.88 86.815-74.043 31.978-158.272 31.978Zm-267.39-620.434q-22.915 0-38.909-16.053-15.995-16.052-15.995-38.967t16.088-38.85q16.087-15.935 38.967-15.935t38.934 16.042q16.055 16.043 16.055 38.858 0 23.035-16.162 38.97-16.162 15.935-38.978 15.935ZM480-480Z"/></svg>