<svg xmlns="http://www.w3.org/2000/svg" width="48" height="48" viewBox="0 96 960 960"><path d="M729 936q-79 0-135-56t-56-135q0-80 56-135.5T729 554q80 0 135.5 55.5T920 745q0 79-55.5 135T729 936Zm-586.848-34.022q-27.599 0-47.865-20.265-20.265-20.266-20.265-47.865V664h68.13v169.848H312v68.13H142.152ZM732 862.87q9.957 0 17.054-6.598 7.098-6.598 7.098-17.555 0-10.956-7.098-17.674-7.097-6.717-17.054-6.717-10.957 0-17.554 6.717-6.598 6.718-6.598 17.674 0 10.957 6.598 17.555 6.597 6.598 17.554 6.598Zm-19.435-90.022h37.87v-143h-37.87v143ZM450 777.065q-99.674-10.761-169.989-81.076T198.935 526h67.369q9.761 72.326 61.066 123.13 51.304 50.805 122.63 60.566v67.369Zm30.002-207q-30.676 0-52.372-21.66-21.695-21.66-21.695-52.41 0-30.804 21.66-52.432 21.66-21.628 52.411-21.628 30.803 0 52.431 21.668 21.628 21.668 21.628 52.395 0 30.676-21.668 52.372-21.668 21.695-52.395 21.695ZM198.935 466q10.761-99.674 81.132-169.849Q350.438 225.976 450 214.935v67.369q-72.326 9.761-123.13 60.566-50.805 50.804-60.566 123.13h-67.369Zm494.761 0q-9.761-72.326-60.566-123.13-50.804-50.805-123.13-60.566v-67.369q99.674 10.761 169.849 81.132Q750.024 366.438 761.065 466h-67.369ZM74.022 328V158.152q0-27.697 20.265-48.033 20.266-20.337 47.865-20.337H312v68.37H142.152V328h-68.13Zm743.826 0V158.152H648v-68.37h169.848q27.697 0 48.033 20.337 20.337 20.336 20.337 48.033V328h-68.37Z"/></svg>