<svg xmlns="http://www.w3.org/2000/svg" width="48" height="48" viewBox="0 -960 960 960"><path d="M400-74.02Q236.13-212.7 155.08-330.67 74.02-448.65 74.02-552.72q0-152.32 98.36-242.91 98.35-90.59 227.62-90.59t227.74 90.59q98.48 90.59 98.48 242.91 0 14.93-1.62 30.31-1.62 15.39-6.14 31.39-56.16 5.52-99.45 33.72-43.29 28.19-70.01 70.75-26.72 42.55-33.98 93.2-7.26 50.65 11.41 102.33-28.47 28.76-59.71 57.88-31.24 29.12-66.72 59.12Zm92.5-321.89q41.5-24 66.5-64-34-25.76-74-38.88-40-13.12-85-13.12t-85 13.12q-40 13.12-74 38.88 25 40 66.5 64t92.5 24q51 0 92.5-24Zm-92.5-176q29 0 49.5-20.5t20.5-49.5q0-29-20.5-49.5t-49.5-20.5q-29 0-49.5 20.5t-20.5 49.5q0 29 20.5 49.5t49.5 20.5Zm354.11 457.89-47.98-47.74 69.17-69.94H577.72v-68.37H775.3l-69.17-69.69 47.98-47.98 151.98 151.98-151.98 151.74Z"/></svg>