<svg xmlns="http://www.w3.org/2000/svg" width="48" height="48" viewBox="0 -960 960 960"><path d="M266.218-198.087q-27.599 0-47.865-20.266-20.266-20.266-20.266-47.865V-422.87h68.131v156.652h555.695v-497.847H266.218v156.413h-68.131v-214.261q0-27.698 20.266-48.034t47.865-20.336h555.695q27.698 0 48.034 20.336t20.336 48.034v555.695q0 27.599-20.336 47.865-20.336 20.266-48.034 20.266H266.218ZM138.087-69.717q-27.698 0-48.034-20.336t-20.336-48.034v-623.826h68.37v623.826h623.826v68.37H138.087Zm369.087-276.196-45.109-45.348 90.609-91.609H198.087v-64.782h354.587l-90.609-91.609 45.109-45.109 169.348 169.109-169.348 169.348Z"/></svg>