<svg xmlns="http://www.w3.org/2000/svg" width="48" height="48" viewBox="0 96 960 960"><path d="M156.304 566.261q-18.435 0-32.152-13.837-13.717-13.837-13.717-32.033t13.717-31.913q13.717-13.717 32.152-13.717 18.021 0 31.826 13.717t13.805 31.913q0 18.196-13.805 32.033t-31.826 13.837Zm-45.869 417.87V788.804H69V624.522q0-13.543 10.83-22.304 10.83-8.762 26.474-8.762h100q15.674 0 26.37 8.762 10.696 8.761 10.696 22.304v164.282h-40.435V916h373.022V671.326h-76.935q-67.449 0-115.214-45.765-47.765-45.764-47.765-111.213 0-47.196 27.5-90.153 27.5-42.956 78.218-61.152 7.956-70.956 57.325-115.935 49.368-44.978 113.936-44.978 65.665 0 114.485 44.978 48.819 44.979 57.776 115.935 50.478 18.196 78.098 61.152Q891 467.152 891 514.348q0 65.449-48.293 111.213-48.294 45.765-115.685 45.765h-82.935V916h211v68.131H110.435Z"/></svg>