<svg xmlns="http://www.w3.org/2000/svg" width="48" height="48" viewBox="0 -960 960 960"><path d="M357.85-777.85q-73.09 0-124.39 51.31-51.31 51.3-51.31 124.39v231.63q0 17.24 3 31.74t7 28.26h575.7q4-13.76 7-28.26 3-14.5 3-31.74v-231.63q0-73.09-51.31-124.39-51.3-51.31-124.63-51.31H357.85Zm.26 663.83q-101.61 0-172.85-71.24t-71.24-172.85v-243.86q0-101.61 71.24-172.93 71.24-71.32 172.85-71.32h243.86q101.61 0 172.93 71.32 71.32 71.32 71.32 172.93v243.86q0 101.61-71.32 172.85t-172.93 71.24H358.11Zm10.37-68.13q0-14 8.04-22 8.05-8 22.05-8t22 8q8 8 8 22h102.86q0-14 8-22t22-8q14 0 22 8t8 22q45.24 0 80.41-14.88 35.16-14.88 60.92-45.12h-60.13q0 14-7.95 22t-21.88 8q-13.93 0-22.05-8-8.12-8-8.12-22H510q0 14-8 22t-22 8q-14 0-22-8t-8-22H347.37q0 14-8.12 22t-22.05 8q-13.93 0-21.88-8-7.95-8-7.95-22h-59.89q25.28 30 60.56 45 35.29 15 80.44 15Zm-10.63-128.37h420-595.7 175.7Z"/></svg>