<svg xmlns="http://www.w3.org/2000/svg" width="48" height="48" viewBox="0 -960 960 960"><path d="M565.63-140.674q-11.239 13.479-28.318 14.979-17.08 1.5-30.116-9.74L349.891-267.022q-51.435-43.195-74.152-104.918-22.717-61.723-11-126.538l-57.674-47.957q-12.239-11-13.978-26.619-1.739-15.62 8.022-28.859l8-10H134.5v110.956q0 27.32-19.041 46.41-19.041 19.091-46.46 19.091v-417.457q27.392 0 46.446 19.174 19.055 19.174 19.055 46.326v110h128.913l70-85q11.239-13.239 28.217-14.739 16.979-1.5 30.218 9.739l56.674 47.195q62.435-23.956 127.228-12.478 64.794 11.478 116.468 54.674l157.065 131.587q13.239 11 14.619 27.978 1.381 16.979-9.619 29.457L565.63-140.674Zm-34.434-61.696 258.152-310.869-139.957-114.718q-44.717-36.717-101.913-38.119-57.195-1.402-112.152 20.076l-67.478-55.478L267.761-580.87l66.717 55.249q-11.478 58.186.163 114.382 11.642 56.196 56.598 92.913L531.196-202.37Zm-2.522-249.673Z"/></svg>