<svg xmlns="http://www.w3.org/2000/svg" width="48" height="48" viewBox="0 -960 960 960"><path d="M831.913-438.848q-21.793 0-37.929-16.136-16.136-16.136-16.136-37.929v-259q0-22.893 16.16-38.599 16.161-15.706 37.989-15.706 22.829 0 38.525 15.706 15.696 15.706 15.696 38.599v259q0 21.793-15.706 37.929-15.706 16.136-38.599 16.136Zm-515.5 317.652q-17.239 0-32.359-6.5-15.119-6.5-26.598-18.217L70.435-342.739l33.434-35.631q11.718-11.956 26.654-14.337 14.937-2.38 31.651 1.337l115.196 25.718v-417.696q0-27.275 17.661-44.953 17.661-17.677 44.913-17.677 27.252 0 44.969 17.677 17.717 17.678 17.717 44.953v238.565h36q11.24 0 19.24 1.5 8 1.5 17.239 6.5l160.369 80.565q25.196 12.479 37.076 36.243 11.881 23.764 7.642 51.105l-26.718 180q-5 29.957-28.837 48.816-23.837 18.858-53.981 18.858H316.413Z"/></svg>