<svg xmlns="http://www.w3.org/2000/svg" width="48" height="48" viewBox="0 96 960 960"><path d="m426 784.391 147.913-147.913L425 487.565l-29.913 29.913 119 119-118 118L426 784.391ZM142.152 942.696q-27.599 0-47.865-20.336-20.265-20.336-20.265-48.034V398.63q0-27.599 20.265-47.864 20.266-20.266 47.865-20.266H314.5v-97.13q0-27.698 20.266-48.034Q355.031 165 382.63 165h194.74q27.599 0 47.864 20.336Q645.5 205.672 645.5 233.37v97.13h172.348q27.697 0 48.033 20.266 20.337 20.265 20.337 47.864v475.696q0 27.698-20.337 48.034-20.336 20.336-48.033 20.336H142.152ZM382.63 330.5h194.74v-97.13H382.63v97.13Z"/></svg>