<svg xmlns="http://www.w3.org/2000/svg" width="48" height="48" viewBox="0 96 960 960"><path d="m835.87 1018.83-76.848-76.852h-616.87q-27.587 0-47.859-20.271-20.271-20.272-20.271-47.859V365.152q0-27.587 20.271-47.978 20.272-20.392 47.859-20.392h61.5L696.63 790h-89.587l-582-582 44.914-44.913 810.826 810.826-44.913 44.917Zm50.348-131.308L646 649.782q7.043-45.847-4.576-83.793-11.62-37.946-40.663-66.989-28.804-29.043-64.467-39.783-35.664-10.739-86.076-5.217L289.283 293.065l71.913-85.913h237.847l75.392 89.63h143.413q26.587 0 47.478 20.892 20.892 20.891 20.892 47.478v522.37Zm-523.74-388Q337 523.522 324 555.141q-13 31.62-13 65.859 0 70 49.5 119.5T480 790q34.239 0 65.859-13.12 31.619-13.119 55.619-38.358l-43-43q-16 16.239-36.239 25.358Q502 730 480 730q-45 0-77-32t-32-77q0-23 8.739-42.739 8.739-19.739 25.739-35.739l-43-43Z"/></svg>