<svg xmlns="http://www.w3.org/2000/svg" width="48" height="48" viewBox="0 -960 960 960"><path d="m806.218-238.196-68.37-68.13v-511.522H427.957L327.022-717.152l-49.739-49.739 119.326-119.327h341.239q28.447 0 48.408 20.337 19.962 20.336 19.962 48.033v579.652Zm46.956 220.022L245.348-626.76l-23.196 22.718v461.891h515.696v-78.935l68.37 68.166v11.725q0 27.318-20.337 47.246-20.336 19.928-48.033 19.928H222.152q-27.599 0-47.865-20.265-20.265-20.266-20.265-47.865V-637.63l40.348-39.109L35.174-835.935l43.674-43.913L897.087-62.087l-43.913 43.913ZM536.435-507.739Zm-45.283 126.782Z"/></svg>