<svg xmlns="http://www.w3.org/2000/svg" width="48" height="48" viewBox="0 -960 960 960"><path d="M480-74.022q-65.152 0-124.185-18.956-59.033-18.957-108.228-53.631l49.739-49.978q40.239 25.717 86.217 40.076 45.979 14.359 96.457 14.359 51.478 0 97.457-14.359 45.978-14.359 85.217-40.076l49.978 49.978q-49.434 34.674-108.467 53.63Q545.152-74.021 480-74.021ZM147.609-247.587q-34.674-49.195-54.13-108.228Q74.021-414.848 74.021-480t18.956-124.185q18.957-59.033 53.631-108.467l49.978 49.978q-25.717 39.239-40.076 85.217-14.359 45.979-14.359 97.457 0 51.478 13.978 97.457 13.979 45.978 40.457 86.217l-48.978 48.739Zm665.782 0-49.978-49.739q25.717-40.239 40.076-85.717 14.359-45.479 14.359-96.957 0-51.478-13.859-97.957-13.859-46.478-39.576-85.717l48.978-48.978q34.674 49.434 53.75 108.467Q886.218-545.152 886.218-480t-19.077 124.185q-19.076 59.033-53.75 108.228ZM297.326-763.413l-49.739-49.978q49.195-34.674 108.228-53.75Q414.848-886.218 480-886.218t124.185 19.077q59.033 19.076 108.467 53.75l-48.978 48.978q-40.239-25.717-86.217-39.576-45.979-13.859-97.457-13.859-51.478 0-96.957 14.359-45.478 14.359-85.717 40.076ZM520-247.609q-35.957 0-65.435-21.478t-40.717-56.196q-3.761-9.76-7.761-18.641-4-8.88-11.761-16.402l-54-55q-25.239-25.478-38.978-57.457-13.739-31.978-13.739-67.217 0-71.957 50.717-122.174Q389.043-712.391 460-712.391q65.957 0 115.054 42.597 49.098 42.598 56.337 107.316h-65.543q-8-37.805-37.402-61.468-29.403-23.663-68.446-23.663-44.043 0-75.826 31.283-31.783 31.283-31.783 76.326 0 22.522 8.381 42.663 8.38 20.141 24.902 36.424l54 54.239q13.239 13.239 21.359 28.859 8.119 15.619 14.358 33.098 4.761 14.282 17.163 23.304 12.403 9.022 27.446 9.022 20.043 0 33.826-14.283 13.783-14.283 13.783-33.326h64.782q0 45.957-32.717 79.174-32.717 33.217-79.674 33.217ZM540.957-410q-20.24 0-35.12-15-14.88-15-14.88-35 0-21 14.88-35.5t35.12-14.5q21 0 35.5 14.5t14.5 35.5q0 20-14.5 35t-35.5 15Z"/></svg>