<svg xmlns="http://www.w3.org/2000/svg" width="48" height="48" viewBox="0 -960 960 960"><path d="M378-342.15h205v-59.35H461.87L583-554.76v-56H378v59.35h117.26L378-401.5v59.35ZM154.02-194.02v-68.13h77.85v-298.02q0-86.16 50.34-154.81 50.33-68.65 133.72-86.37v-20.56q0-26.82 18.7-45.56 18.7-18.75 45.37-18.75 26.67 0 45.37 18.75 18.7 18.74 18.7 45.56v20.56q83.39 17.48 133.84 86.25 50.46 68.77 50.46 154.93v298.02h77.85v68.13h-652.2ZM480-497.46Zm.24 425.59q-33.95 0-58.05-24.15-24.1-24.16-24.1-58h164.06q0 33.95-24.15 58.05-24.15 24.1-57.76 24.1ZM300-262.15h360v-298.02q0-74.76-52.5-127.38Q555-740.17 480-740.17t-127.5 52.62Q300-634.93 300-560.17v298.02Z"/></svg>