<svg xmlns="http://www.w3.org/2000/svg" width="48" height="48" viewBox="0 96 960 960"><path d="m819.935 1002.41-60.913-60.432h-576.87q-27.587 0-47.859-20.271-20.271-20.272-20.271-47.859v-576.87l-60.435-60.913 44.674-44.674 766.348 766.348-44.674 44.671ZM182.152 873.848h508.739l-229.5-230.739L387.5 717 340 668.5l72.891-72.891-230.739-230.5v508.739Zm92.457-595.696-68.131-68.37H459v68.37H274.609Zm276.369 275.37-48.5-47.5 227.87-227.87H519v-68.37h327.218V537h-68.37V326.652l-226.87 226.87Zm295.24 296-68.37-68.131V597h68.37v252.522Z"/></svg>