<svg xmlns="http://www.w3.org/2000/svg" width="48" height="48" viewBox="0 -960 960 960"><path d="m679.37-133.217 147.434-91.957-147.434-91.717v183.674ZM242.152-617.37h475.696v-60H242.152v60ZM730.848-37.174q-78 0-133-55.38-55-55.381-55-131.62 0-77.761 55-133.38 55-55.62 133-55.62 77 0 132.5 55.62 55.5 55.619 55.5 133.38 0 76.239-55.5 131.62-55.5 55.38-132.5 55.38ZM114.022-71.195V-777.37q0-28.341 19.894-48.236Q153.81-845.5 182.152-845.5h595.696q28.342 0 48.356 19.894 20.014 19.895 20.014 48.236v332.979q-26.674-13.391-55.207-20.587t-57.924-7.196v-37.348H242.152v60h383.761q-36.265 17.598-64.872 45.462-28.606 27.864-47.084 62.386H242.152v60h248.652q-3.717 14.435-5.456 28.989-1.739 14.555-1.739 30.229 0 30.434 7.337 60.511 7.337 30.076 23.011 56.793L480-71.195l-60.957-60.957-61.195 60.957-60.957-60.957-61.435 60.957-60.956-60.957-60.478 60.957Z"/></svg>