<svg xmlns="http://www.w3.org/2000/svg" width="48" height="48" viewBox="0 -960 960 960"><path d="M29.239-117.13v-731.24h571.478v731.24H362.391v-167.848h-93.826v167.848H29.239Zm68.37-68.37h102.826v-167.848h230.326V-185.5h101.826V-780H97.609v594.5Zm102.826-260.674h66.456v-66.456h-66.456v66.456Zm0-162.869h66.456v-68.131h-66.456v68.131Zm162.869 162.869h66.457v-66.456h-66.457v66.456Zm0-162.869h66.457v-68.131h-66.457v68.131Zm431.892 264.608-47.74-47.978 52.522-53.522H640.717v-68.13h159.261l-52.522-53.522 47.74-47.978L930.761-480 795.196-344.435ZM200.435-185.5v-167.848h230.326V-185.5v-167.848H200.435V-185.5Z"/></svg>