<svg xmlns="http://www.w3.org/2000/svg" width="48" height="48" viewBox="0 -960 960 960"><path d="M101.2-154.02q-28.45 0-48.41-19.89-19.96-19.89-19.96-48.24v-595.7q0-28.45 19.96-48.41 19.96-19.96 48.41-19.96h260.67q28.1 0 48.11 19.96Q430-846.3 430-817.85v207.37h-69.21q-54.48 0-92.51 38-38.04 38.01-38.04 92.36 0 54.36 38.09 92.48 38.08 38.12 92.39 38.12H430v127.37q0 28.35-20.02 48.24-20.01 19.89-48.11 19.89H101.2Zm147.08-562.52q7.2-7.2 7.2-16.87 0-9.68-7.2-16.87-7.19-7.2-16.87-7.2-9.67 0-16.87 7.2-7.19 7.19-7.19 16.87 0 9.67 7.19 16.87 7.2 7.19 16.87 7.19 9.68 0 16.87-7.19Zm47.59 259.49q-9.22-9.44-9.22-23.17 0-13.74 9.39-22.95 9.39-9.22 23.06-9.22 13.66 0 22.88 9.44 9.22 9.44 9.22 23.17 0 13.74-9.4 22.95-9.39 9.22-23.05 9.22t-22.88-9.44Zm160.96 0q-9.22-9.44-9.22-23.17 0-13.74 9.44-22.95 9.44-9.22 23.17-9.22 13.74 0 22.95 9.44 9.22 9.44 9.22 23.17 0 13.74-9.44 22.95-9.44 9.22-23.17 9.22-13.74 0-22.95-9.44ZM598.37-74.02q-28.45 0-48.41-19.89Q530-113.8 530-142.15v-207.37h68.57q54.3 0 92.39-38 38.08-38.01 38.08-92.36 0-54.36-38.08-92.48-38.09-38.12-92.39-38.12H530v-127.37q0-28.45 19.96-48.41 19.96-19.96 48.41-19.96h260.67q28.1 0 48.12 19.96 20.01 19.96 20.01 48.41v595.7q0 28.35-20.01 48.24-20.02 19.89-48.12 19.89H598.37Zm19.65-383.03q-9.22-9.44-9.22-23.17 0-13.74 9.4-22.95 9.39-9.22 23.05-9.22t22.88 9.44q9.22 9.44 9.22 23.17 0 13.74-9.39 22.95-9.39 9.22-23.06 9.22-13.66 0-22.88-9.44Zm127.44-177.02q7.19-7.19 7.19-16.98 0-9.8-7.19-16.99-7.2-7.2-16.87-7.2-9.68 0-16.87 7.2-7.2 7.19-7.2 16.99 0 9.79 7.2 16.98 7.19 7.2 16.87 7.2 9.67 0 16.87-7.2Z"/></svg>