<svg xmlns="http://www.w3.org/2000/svg" width="48" height="48" viewBox="0 -960 960 960"><path d="M604.22-176.57q-44.46-44.45-44.46-108.77 0-64.31 44.47-108.77 44.48-44.46 108.66-44.46t108.75 44.46q44.58 44.46 44.58 108.77 0 64.32-44.52 108.77-44.53 44.46-108.78 44.46t-108.7-44.46Zm-497.37-74.58v-68.37h372.91v68.37H106.85Zm31.63-314.74q-44.46-44.46-44.46-108.77 0-64.32 44.47-108.77 44.48-44.46 108.66-44.46t108.75 44.46q44.58 44.45 44.58 108.77 0 64.31-44.52 108.77-44.53 44.46-108.78 44.46t-108.7-44.46Zm342-74.59v-68.37h372.91v68.37H480.48Z"/></svg>