<svg xmlns="http://www.w3.org/2000/svg" width="48" height="48" viewBox="0 96 960 960"><path d="M455.5 1056h279q63 0 107-43.5t44-106.5V350.5q0-37.87-26.315-64.185Q832.87 260 795 260q-10.342 0-20.065 2t-17.305 8.522V225q0-38-25.181-65-25.182-27-62.449-27-13 0-25 3.5T622 148q-9-24-29.5-38T546 96q-36.674 0-62.174 25t-26.456 59.522v26Q449.788 200 440.065 197q-9.723-3-20.065-3-37.87 0-64.185 26.196Q329.5 246.391 329.5 284.5v421.891L177 620.5q-17-9-35-3.62-18 5.381-32 18.62L34.5 702l297 308q24 25 56.5 35.5t67.5 10.5Zm2.391-65.5q-21 0-41.38-4-20.381-4-34.62-18L132.152 709l25.805-24.043L395 813V284.5q0-10.761 7-17.88 7-7.12 18-7.12t18 7.12q7 7.119 7 17.88v297h75v-395q0-10.761 7-17.88 7-7.12 18-7.12t18 7.12q7 7.119 7 17.88v395h75v-358q0-10.761 7-17.88 7-7.12 18-7.12t18 7.12q7 7.119 7 17.88v358h75v-231q0-10.761 7-17.88 7-7.12 18-7.12t18 7.12q7 7.119 7 17.88v550q0 37.761-26.5 63.88Q767 990.5 729 990.5H457.891Z"/></svg>