<svg xmlns="http://www.w3.org/2000/svg" width="48" height="48" viewBox="0 -960 960 960"><path d="M223.37-154.5q-28.565 0-48.717-20.106Q154.5-194.712 154.5-223.1q0-28.484 20.153-48.692Q194.805-292 223.37-292q5.538 0 10.576.739t10.576 2.739l170.326-170.326q-6.718-17.956-1.903-37.053 4.815-19.097 18.337-32.914Q444.804-542.63 464-547.25q19.196-4.62 37.152 2.098l169.326-169.31q-1-5.734-1.739-11.212-.739-5.478-.739-10.956 0-28.565 20.049-48.717 20.048-20.153 48.532-20.153 28.484 0 48.702 20.106Q805.5-765.288 805.5-736.9q0 28.484-20.153 48.692Q765.195-668 736.63-668q-8.195 0-23.152-2.478L545.152-502.152q5.718 18.956 1.598 38.152t-17.901 32.978q-14.414 14.652-33.61 18.272-19.196 3.62-39.152-2.098L294.609-253.37h123.252q8.269-17.956 25.091-28.293Q459.773-292 479.397-292q20.56 0 37.397 10.337 16.836 10.337 25.218 28.293h132.749q9.562-18.08 25.963-28.355Q717.126-292 736.63-292q28.565 0 48.717 20.049 20.153 20.048 20.153 48.532 0 28.484-20.153 48.702Q765.195-154.5 736.63-154.5q-19.978 0-36.778-10.313-16.801-10.313-25.091-28.557H542.227q-8.597 17.957-25.474 28.414-16.877 10.456-36.742 10.456-19.996 0-36.903-10.313-16.906-10.313-25.217-28.557H285.478q-8.478 18.196-25.282 28.533Q243.392-154.5 223.37-154.5Zm.049-256.87q-28.389 0-48.654-19.998-20.265-19.999-20.265-48.413 0-28.415 20.076-48.632t48.423-20.217q28.346 0 48.674 20.026Q292-508.578 292-480.191q0 28.387-20.146 48.604-20.145 20.217-48.435 20.217ZM223.317-668q-28.346 0-48.582-20.049-20.235-20.048-20.235-48.532 0-28.484 20.106-48.702Q194.712-805.5 223.1-805.5q28.484 0 48.692 20.071Q292-765.359 292-737.019q0 28.339-20.168 48.679Q251.664-668 223.317-668Zm256.874 0q-28.387 0-48.604-20.146-20.217-20.145-20.217-48.435 0-28.389 19.998-48.654 19.999-20.265 48.413-20.265 28.415 0 48.632 20.076t20.217 48.423q0 28.346-20.026 48.674Q508.578-668 480.191-668Zm256.81 256.63q-28.346 0-48.674-20.026Q668-451.422 668-479.809q0-28.387 20.146-48.604 20.145-20.217 48.435-20.217 28.389 0 48.654 19.998 20.265 19.999 20.265 48.413 0 28.415-20.076 48.632t-48.423 20.217Z"/></svg>