<svg xmlns="http://www.w3.org/2000/svg" width="48" height="48" viewBox="0 96 960 960"><path d="M542.63 630.5q-50 0-85-35t-35-85q0-50 35-85t85-35q50 0 85 35t35 85q0 50-35 85t-85 35ZM228.37 776q-28.331 0-48.351-20.019Q160 735.961 160 707.63V313.37q0-28.203 20.019-48.287Q200.039 245 228.37 245h629q28.103 0 48.117 20.083Q925.5 285.167 925.5 313.37v394.26q0 28.331-20.013 48.351Q885.473 776 857.37 776h-629Zm97.13-65.5H760q0-42 29-71t71-29v-200q-42 0-71-29.12-29-29.119-29-70.88H325.5q0 41.761-29 70.88-29 29.12-71 29.12v200q42 0 71 29t29 71Zm474.5 191H102.63q-28.103 0-48.117-20.013Q34.5 861.473 34.5 833.37V376h68.13v457.37H800v68.13Zm-574.5-191v-400 400Z"/></svg>