<svg xmlns="http://www.w3.org/2000/svg" width="48" height="48" viewBox="0 -960 960 960"><path d="M707.26-488.02 578.11-618.41l47.74-47.74 81.41 81.17 164.5-164.5 47.98 48.74-212.48 212.72ZM246.5-527.78q-43.67-43.68-43.67-112.31t43.67-112.3q43.67-43.68 112.42-43.68t112.43 43.68q43.67 43.67 43.67 112.3t-43.67 112.31q-43.68 43.67-112.43 43.67T246.5-527.78ZM32.83-150.91v-100.46q0-36.67 18.45-66.49 18.46-29.81 52.89-44.77 75.48-33.24 134.7-46.86 59.22-13.62 120.17-13.62 60.96 0 119.68 13.62 58.71 13.62 133.95 46.86 34.68 15.72 53.51 45.03 18.84 29.32 18.84 66.23v100.46H32.83Z"/></svg>