<svg xmlns="http://www.w3.org/2000/svg" width="48" height="48" viewBox="0 -960 960 960"><path d="M479.761-34.5 356.37-157.89H182.152q-27.599 0-47.865-20.336-20.265-20.336-20.265-48.034v-595.696q0-28.097 20.265-48.114 20.266-20.016 47.865-20.016h595.696q27.697 0 48.033 20.016 20.337 20.017 20.337 48.114v595.696q0 27.698-20.337 48.034-20.336 20.336-48.033 20.336H603.152L479.761-34.5ZM182.152-266.848q60-55.043 134.821-88.707 74.82-33.663 162.923-33.663 88.104 0 163.028 33.424 74.924 33.424 134.924 88.707v-554.87H182.152v555.109Zm299.819-194.674q58.746 0 99.105-40.329 40.359-40.33 40.359-99.077 0-58.746-40.33-98.985t-99.076-40.239q-58.746 0-99.105 40.21t-40.359 98.956q0 58.747 40.33 99.106 40.33 40.358 99.076 40.358ZM235-226.261h490v-7.804q-54-46-116-69.261-62-23.261-129-23.261t-129 23.261q-62 23.261-116 69.261v7.804Zm246.916-297.891q-31.938 0-54.209-22.406-22.272-22.405-22.272-54.413 0-32.007 22.356-54.279 22.356-22.272 54.293-22.272 31.938 0 54.209 22.356 22.272 22.357 22.272 54.294 0 31.937-22.356 54.328-22.356 22.392-54.293 22.392ZM480-544.783Z"/></svg>