<svg xmlns="http://www.w3.org/2000/svg" width="48" height="48" viewBox="0 -960 960 960"><path d="m752.022-357-42-42q17-16.761 25.88-38.105 8.881-21.343 8.881-44.895 0-23.085-8.381-45.162-8.38-22.077-25.38-38.838l41-42q25 25 38.88 57.378 13.881 32.378 13.881 67.5T790.844-415q-13.939 33-38.822 58Zm84 84-41-42q33.384-33.234 51.692-76.117t18.308-90.383q0-47.5-19.5-90.5t-57.5-72l46-46q43.966 41.171 67.483 95.086Q925.022-541 925.022-481t-23 113.553q-23 53.552-66 94.447ZM262.63-34.5q-28.103 0-48.117-20.013Q194.5-74.527 194.5-102.63v-754.74q0-28.103 20.013-48.117Q234.527-925.5 262.63-925.5h434.74q28.103 0 48.117 20.013Q765.5-885.473 765.5-857.37V-714h-68.13v-53.37H262.63v574.74h434.74V-246h68.13v143.37q0 28.103-20.013 48.117Q725.473-34.5 697.37-34.5H262.63Zm0-98.13v30h434.74v-30H262.63Zm0-694.74h434.74v-30H262.63v30Zm0 0v-30 30Zm0 694.74v30-30Z"/></svg>