<svg xmlns="http://www.w3.org/2000/svg" width="48" height="48" viewBox="0 0 48 48"><path d="M39 23.3q-.25-6.05-4.45-10.25T24.3 8.6V5.45q3.65.1 6.85 1.525 3.2 1.425 5.6 3.85 2.4 2.425 3.85 5.625 1.45 3.2 1.55 6.85Zm-8.6 0q-.25-2.45-1.95-4.15-1.7-1.7-4.15-1.95v-3.1q3.75.25 6.375 2.85t2.875 6.35Zm9.35 19q-6.15 0-12.225-3.025Q21.45 36.25 16.6 31.4q-4.85-4.85-7.875-10.95Q5.7 14.35 5.7 8.25q0-1.1.725-1.825Q7.15 5.7 8.25 5.7h7q.85 0 1.5.55t.85 1.5l1.35 6.15q.15.85-.025 1.525-.175.675-.675 1.125l-5.05 5q2.75 4.45 6.075 7.775T26.8 34.95L31.65 30q.6-.65 1.325-.9t1.525-.05l5.7 1.3q.95.2 1.525.9t.575 1.65v6.85q0 1.05-.725 1.8t-1.825.75ZM11.5 18.45l4.05-4L14.4 9.1H9.15q-.05 1.9.525 4.15.575 2.25 1.825 5.2ZM30 36.6q1.95.95 4.3 1.55 2.35.6 4.6.7v-5.3l-5-1.05ZM11.5 18.45ZM30 36.6Z"/></svg>