<svg xmlns="http://www.w3.org/2000/svg" width="48" height="48" viewBox="0 -960 960 960"><path d="M479.5-266q72.5 0 121.5-49t49-121.5q0-72.5-49-121T479.5-606q-72.5 0-121 48.5t-48.5 121q0 72.5 48.5 121.5t121 49Zm0-60q-47.5 0-78.5-31.5t-31-79q0-47.5 31-78.5t78.5-31q47.5 0 79 31t31.5 78.5q0 47.5-31.5 79t-79 31.5ZM142.152-114.022q-27.599 0-47.865-20.265-20.265-20.266-20.265-47.865v-508.696q0-26.697 20.265-47.533 20.266-20.837 47.865-20.837h143.413l75.631-89.63h237.847l75.392 89.63h143.413q26.697 0 47.533 20.837 20.837 20.836 20.837 47.533v508.696q0 27.599-20.837 47.865-20.836 20.265-47.533 20.265H142.152Zm675.696-68.13v-508.696h-175l-75.392-89.63H392.783l-75.631 89.63h-175v508.696h675.696ZM480-436Z"/></svg>