<svg xmlns="http://www.w3.org/2000/svg" width="48" height="48" viewBox="0 0 48 48"><path d="M32.5 32.85H18.75q-1.3 0-2.125.8T15.6 35.5q-.2 1.05.275 2.1.475 1.05 1.775 1.55l12.8 5.05q.4.15.75.1.35-.05.65-.25.3-.2.475-.525t.175-.725ZM20 3.5q3.35 0 5.75 2.4t2.4 5.75q0 3.4-2.375 5.8T20 19.85q-3.35 0-5.75-2.4t-2.4-5.75q0-3.4 2.4-5.8T20 3.5Zm18.55 18.35q1.45 0 2.525 1.025t1.075 2.575q0 1.15-.7 2.025t-1.8 1.175l-4.15 1.2H18.75q-2.6 0-4.425 1.825Q12.5 33.5 12.5 36.1q0 1.1.425 2.15.425 1.05 1.225 1.9h-8.3V32q0-4.2 2.975-7.175Q11.8 21.85 16 21.85Z"/></svg>