<svg xmlns="http://www.w3.org/2000/svg" width="48" height="48" viewBox="0 -960 960 960"><path d="M514.065-514.065h301.826q-11.239-118.652-96.706-206.12-85.468-87.467-205.12-95.706v301.826Zm-68.13 369.956v-671.782q-128.609 12.195-216.196 108.998-87.587 96.802-87.587 226.891t87.587 226.893q87.587 96.805 216.196 109Zm68.13 0q119.652-8.478 205-95.826t96.826-206H514.065v301.826ZM480-480Zm.033 405.978q-84.202 0-158.291-31.858-74.09-31.859-129.046-86.816-54.957-54.956-86.816-129.019-31.858-74.063-31.858-158.272 0-84.209 31.858-158.285 31.859-74.076 86.786-129.045 54.928-54.969 129.02-86.935 74.092-31.966 158.334-31.966 84.415 0 158.438 31.994 74.024 31.994 128.913 86.815 54.89 54.822 86.868 128.865Q886.218-564.502 886.218-480q0 84.506-32.009 158.57-32.008 74.065-86.879 128.86-54.871 54.795-128.963 86.672-74.092 31.876-158.334 31.876Z"/></svg>