<svg xmlns="http://www.w3.org/2000/svg" width="48" height="48" viewBox="0 96 960 960"><path d="M37.37 528.63V333.37h55.26v100.934L338.305 188.63H237.37v-55.26h195.26v195.26h-55.26V227.696L131.696 473.37H232.63v55.26H37.37Zm523.043 490q-17.239 0-32.359-6.62-15.119-6.62-26.598-18.097L314.435 797.087l33.434-35.631q11.718-11.956 26.674-14.337 14.957-2.38 31.631 1.098l115.196 25.957V358.63q0-27.195 17.717-44.913Q556.804 296 584 296q27.196 0 44.913 17.717 17.717 17.718 17.717 44.913v236.174h36q11.24 0 19.24 1.5 8 1.5 17.239 6.5l160.369 80.566q25.196 12.717 37.076 36.434 11.881 23.718 7.642 51.153l-26.718 180q-5 29.956-28.837 48.815-23.837 18.858-54.032 18.858H560.413ZM538 956h281l43-249-183-91h-55V396q0-18-11-29t-29-11q-18 0-29 11t-11 29v399l-154-33-23 23 171 171Zm0 0L367 785l23-23 154 33V396q0-18 11-29t29-11q18 0 29 11t11 29v220h55l183 91-43 249H538Z"/></svg>