<svg xmlns="http://www.w3.org/2000/svg" width="48" height="48" viewBox="0 96 960 960"><path d="M492.522 914.848q3.239 16.152 13.293 35.543 10.055 19.392 21.446 32.587H182.152q-27.599 0-47.865-20.265-20.265-20.266-20.265-47.865V238.152q0-27.697 20.265-48.033 20.266-20.337 47.865-20.337h515.696q27.697 0 48.033 20.337 20.337 20.336 20.337 48.033v337.805q-15.174-2.957-34.066-3.316-18.891-.358-34.304 2.359V238.152H462V514l-96-59-96 59V238.152h-87.848v676.696h310.37ZM728 1016q-81 0-136.5-55.5T536 824q0-81 55.5-136.5T728 632q81 0 136.5 55.5T920 824q0 81-55.5 136.5T728 1016Zm-49-100 143-92-143-92v184ZM270 238.152h192-192Zm222.522 0h-310.37 515.696H477h15.522Z"/></svg>