<svg xmlns="http://www.w3.org/2000/svg" width="48" height="48"><path d="M30.2 33.55h3.15v-3.9h3.9V26.5h-3.9v-3.95H30.2v3.95h-3.95v3.15h3.95zm-15.75-9.9h12.9V20.5h-12.9zm0-6h12.9V14.5h-12.9zm0 12.5h4.95V26.5h-4.95zM24 44.3q-4.3 0-8.025-1.55-3.725-1.55-6.45-4.275Q6.8 35.75 5.25 32.025 3.7 28.3 3.7 24q0-4.25 1.55-7.975Q6.8 12.3 9.525 9.575q2.725-2.725 6.45-4.3Q19.7 3.7 24 3.7q4.25 0 7.975 1.575 3.725 1.575 6.45 4.3Q41.15 12.3 42.725 16q1.575 3.7 1.575 8t-1.575 8.025q-1.575 3.725-4.3 6.45-2.725 2.725-6.45 4.275Q28.25 44.3 24 44.3z"/></svg>