<svg xmlns="http://www.w3.org/2000/svg" width="48" height="48" viewBox="0 -960 960 960"><path d="M655.848-654.218v-123.63H304.152v123.63h-68.13v-192h488.196v192h-68.37Zm-513.696 68.37h675.696-675.696Zm592.902 100.5q13.316 0 23.033-9.672 9.717-9.673 9.717-22.958 0-13.196-9.672-23.033-9.673-9.837-23.078-9.837-13.315 0-23.032 9.837-9.718 9.837-9.718 23.033 0 13.196 9.718 22.913 9.717 9.717 23.032 9.717Zm-79.206 307.5v-178.13H304.152v178.13h351.696Zm68.37 66.935H236.022v-180.065h-162V-542q0-47.346 32.104-79.782t79.396-32.436h588.956q47.489 0 79.615 32.436 32.125 32.436 32.125 79.782v251.022h-162v180.065Zm93.63-248.435v-183.345q0-18.667-12.469-30.911t-30.901-12.244H185.522q-18.265 0-30.817 12.627-12.553 12.628-12.553 31.221v182.652h93.87v-65h488.196v65h93.63Z"/></svg>