<svg xmlns="http://www.w3.org/2000/svg" width="48" height="48" viewBox="0 96 960 960"><path d="m819.935 1002.41-95.717-95.714v38.391H236.022V765.022h-162V514.091q0-46.098 30.5-78.007 30.5-31.91 75.978-33.584h39.282L53.587 236.065l44.674-44.674 766.348 766.348-44.674 44.671ZM304.152 878.152h351.696v-39.587L517.066 700.022H304.152v178.13Zm457.087-113.13-68.13-68.37h124.739V513.785q0-18.655-12.388-31.144-12.388-12.489-30.689-12.489H466.609l-68.131-68.37h376q47.489 0 79.615 32.436 32.125 32.436 32.125 79.782v251.022H761.239Zm-619.087-68.37h93.87v-65h212.913l-161.5-161.5H185.328q-18.521 0-30.848 12.627-12.328 12.628-12.328 31.221v182.652Zm513.696-294.87v-123.63H274.609l-68.37-68.37h517.979v192h-68.37ZM739 568.5q12.813 0 22.124-9.311 9.311-9.311 9.311-22.124 0-12.813-9.311-22.124-9.311-9.311-22.004-9.311-12.694 0-22.124 9.311-9.431 9.311-9.431 22.124 0 12.813 9.413 22.124Q726.39 568.5 739 568.5Zm-553.478-98.348h101.913-145.283 43.37Zm589.249 0h43.077-351.239 308.162Z"/></svg>