<svg xmlns="http://www.w3.org/2000/svg" width="48" height="48" viewBox="0 -960 960 960"><path d="M234.74-74.74v-174.87q-57-52.72-88.5-122.93-31.5-70.22-31.5-147.46 0-152.41 106.46-258.96Q327.67-885.5 479.96-885.5q126.71 0 224.65 74.82 97.93 74.81 127.65 194.48l55.24 219.44q4.48 16.15-5.74 29.09-10.22 12.93-27.09 12.93H765.5v131.87q0 28.6-19.84 48.37-19.83 19.76-48.53 19.76H605.5v80H234.74Zm243.47-239.52q18.07 0 29.93-12.05Q520-338.35 520-356.05q0-17.71-12.1-29.75-12.1-12.05-29.69-12.05-17.6 0-29.7 12.1-12.1 12.1-12.1 29.7 0 17.59 11.98 29.69 11.98 12.1 29.82 12.1Zm-31.8-130.15H511q0-25.99 6.74-41.71 6.74-15.73 27.46-38.68 19.43-21.2 35.12-41.58Q596-586.76 596-618.33q0-42.65-33.1-72.16Q529.8-720 481.24-720q-40.63 0-73.73 23.72-33.1 23.71-46.34 62.15l58.04 24.2q7.07-22.24 24.31-35.86 17.24-13.62 37.78-13.62 21.31 0 35.21 11.53 13.9 11.54 13.9 29.55 0 19.46-11.66 35.3-11.66 15.83-29.05 33.58-21.53 22.65-32.41 44.6-10.88 21.96-10.88 60.44Z"/></svg>