<svg xmlns="http://www.w3.org/2000/svg" width="48" height="48" viewBox="0 0 48 48"><path d="M18.15 42.55v-6.5H14.9q-1.45 0-2.425-.975-.975-.975-.975-2.425V27.4H9.75q-1.15 0-1.725-1.1-.575-1.1.025-2.25l3.45-6.2q1.25-5.25 5.225-8.75Q20.7 5.6 26 5.6q6 0 10.2 4.175Q40.4 13.95 40.4 20q0 4.25-2.45 7.65-2.45 3.4-6.3 5.3v9.6Zm6.3-15.25h3l.15-2.2q.6-.1 1.125-.425.525-.325.925-.725l2.1.7 1.4-2.4-1.5-1.2q.25-.7.25-1.45t-.25-1.45l1.5-1.2-1.4-2.4-2.1.7q-.4-.4-.95-.7-.55-.3-1.1-.45l-.15-2.2h-3l-.15 2.2q-.55.15-1.1.45-.55.3-.95.7l-2.1-.7-1.4 2.4 1.5 1.2q-.25.7-.25 1.45t.25 1.45l-1.5 1.2 1.4 2.4 2.1-.7q.4.4.925.725.525.325 1.125.425Zm1.5-4.2q-1.45 0-2.475-1.025Q22.45 21.05 22.45 19.6q0-1.45 1.025-2.475Q24.5 16.1 25.95 16.1q1.45 0 2.475 1.025Q29.45 18.15 29.45 19.6q0 1.45-1.025 2.475Q27.4 23.1 25.95 23.1Z"/></svg>