<svg xmlns="http://www.w3.org/2000/svg" width="48" height="48" viewBox="0 -960 960 960"><path d="M181.913-74.022q-26.599 0-47.245-20.818-20.646-20.818-20.646-47.073v-523.348q0-26.698 20.646-47.414 20.646-20.717 47.245-20.717h65.457v-193.782h465.26v193.782h65.457q26.354 0 47.242 20.717 20.889 20.716 20.889 47.414v523.348q0 26.255-20.889 47.073-20.888 20.818-47.242 20.818H181.913ZM315.5-733.392h328.761v-125.651H315.5v125.651Zm-133.348 591.24h595.696v-522.87H182.152v522.87Zm297.818-65q81.508 0 138.987-57.383 57.478-57.383 57.478-139.076 0-81.215-57.449-138.813-57.448-57.598-138.956-57.598-81.508 0-138.987 57.622-57.478 57.622-57.478 138.837 0 81.693 57.449 139.052 57.448 57.359 138.956 57.359Zm.081-52.152q-59.911 0-102.122-42.19-42.212-42.19-42.212-102.142 0-59.473 42.19-101.734 42.19-42.26 102.022-42.26 59.832 0 101.973 42.23 42.141 42.231 42.141 101.762 0 59.911-42.169 102.122-42.169 42.212-101.823 42.212Zm45.71-68.609 29.674-29.913-54.239-54.239v-92.479h-42.631v109.435l67.196 67.196ZM480-403.587Z"/></svg>