<svg xmlns="http://www.w3.org/2000/svg" width="48" height="48" viewBox="0 96 960 960"><path d="M90.196 808.435 34.5 767.652l193.022-308.131 116.223 136.174 155.842-252.26 114.022 169.891q-17.913 2.717-34.468 8.533-16.554 5.815-32.75 13.967l-43.565-66.848-148.013 241.826L236.478 573.63 90.196 808.435ZM876.76 1021.5 742.043 886.783q-20.76 14.521-44.902 22.043-24.141 7.522-49.424 7.522-71.789 0-122.21-50.455-50.42-50.454-50.42-122.293t50.455-122.296q50.454-50.456 122.293-50.456t122.176 50.54q50.337 50.539 50.337 122.329 0 25.522-8.141 49.544-8.142 24.022-21.424 46.231L925.5 972.522l-48.739 48.978ZM647.577 848.217q43.749 0 74.195-30.305 30.445-30.304 30.445-74.054 0-43.749-30.305-74.314-30.304-30.566-74.054-30.566-43.749 0-74.195 30.425-30.445 30.424-30.445 74.174 0 43.749 30.304 74.195 30.305 30.445 74.055 30.445Zm77.488-324.652q-17.391-7.195-35.782-9.195-18.392-2-37.544-3.283L870.043 165l55.457 40.782-200.435 317.783Z"/></svg>