<svg xmlns="http://www.w3.org/2000/svg" width="48" height="48" viewBox="0 -960 960 960"><path d="M633.326-150.957h43.587v-144.499h-43.587v144.499Zm21.537-183.499q8.752 0 15.401-6.663 6.649-6.662 6.649-15.546 0-9.122-6.717-15.75-6.718-6.628-15.196-6.628-9.717 0-15.696 6.717-5.978 6.717-5.978 15.601 0 8.883 5.893 15.576 5.893 6.693 15.644 6.693ZM182.152-817.848v293.087-4 386.609-675.696 186-186ZM279-419.522h166.299q12.701-17.956 28.365-33.544 15.664-15.587 33.488-29.086H279v62.63Zm0 170h123q-2-14.717-1.62-30.815.381-16.098 2.859-31.815H279v62.63Zm-96.848 175.5q-27.599 0-47.865-20.265-20.265-20.266-20.265-47.865v-675.696q0-27.697 20.265-48.033 20.266-20.337 47.865-20.337H543.63L766.218-663.63v160.021q-16.153-7.434-33.305-12.913-17.152-5.478-35.065-8.239v-107.087h-189v-186H182.152v675.696h255.891q11.909 20.04 27.043 37.314 15.133 17.274 34.327 30.816H182.152ZM655-469q80.51 0 137.255 56.745Q849-355.51 849-275q0 80.51-56.745 137.255Q735.51-81 655-81q-80.51 0-137.255-56.745Q461-194.49 461-275q0-80.51 56.745-137.255Q574.49-469 655-469Z"/></svg>