<svg xmlns="http://www.w3.org/2000/svg" width="48" height="48" viewBox="0 -960 960 960"><path d="M142.152-69q-27.599 0-47.865-20.336-20.265-20.336-20.265-48.034v-561.652L620.739-919.5l19.717 50.882-366.413 147.422h543.805q27.697 0 48.033 20.336 20.337 20.336 20.337 48.034v515.456q0 27.698-20.337 48.034Q845.545-69 817.848-69H142.152Zm174.879-129.456q40.817 0 68.817-28.303 28-28.303 28-68.881 0-40.816-28.183-68.816t-69-28q-40.817 0-68.817 28.183-28 28.183-28 69 0 40.577 28.183 68.697 28.183 28.12 69 28.12ZM142.152-504.022H660v-58.804h60v58.804h97.848v-148.804H142.152v148.804Z"/></svg>