<svg xmlns="http://www.w3.org/2000/svg" width="48" height="48" viewBox="0 -960 960 960"><path d="M222.957-69q-47.377 0-80.374-32.996-32.996-32.997-32.996-80.486v-130.866h129.869v-570.717l61.235 60.956 60.941-60.956 60.941 60.956 60.941-60.956 60.941 60.956 61.141-60.956 61.094 60.956 61.093-60.956 60.956 60.956 61.674-60.956v701.695q0 47.377-33.066 80.374Q784.281-69 737.043-69H222.957Zm512.586-68.37q19.5 0 31.5-12.5t12-32.5v-608.608H310.587v527.63h385.456v80.978q0 20 10 32.5t29.5 12.5ZM363.587-635.543v-60h235.456v60H363.587Zm0 134v-60h235.456v60H363.587Zm328.456-134q-12 0-21-9t-9-21q0-12 9-21t21-9q12 0 21 9t9 21q0 12-9 21t-21 9Zm0 129q-12 0-21-9t-9-21q0-12 9-21t21-9q12 0 21 9t9 21q0 12-9 21t-21 9Z"/></svg>