<svg xmlns="http://www.w3.org/2000/svg" width="48" height="48" viewBox="0 -960 960 960"><path d="M834-25.174 689.63-169.782l-57 55.76H327.609L114.022-327.37v-305.26l57-56L25.174-834l43.913-43.913L877.913-69.087 834-25.174Zm-56.782-233.435L511.435-524.63v-166.718h-62.87v104.087L258.609-777.218l69-69H632.63L846.218-632.63v305.26l-69 68.761ZM480-276.935q14.239 0 25.098-10.021 10.859-10.022 11.815-24.022 0-7.522-2.38-13.402-2.381-5.881-7.62-10.881l-6.457-6.217q-5-5.239-10.76-7.62-5.761-2.38-13.283-2.38-14 .956-24.022 11.815-10.021 10.859-10.021 25.098 0 15.195 11.217 26.413 11.217 11.217 26.413 11.217Z"/></svg>