<svg xmlns="http://www.w3.org/2000/svg" width="48" height="48" viewBox="0 96 960 960"><path d="m777.218 797.391-48.74-48.739 49.37-48.609V451.865L604.135 278.152H355.957l-49.609 48.37-47.739-47.74 69-69h305.064L846.218 423.44v305.19l-69 68.761ZM511.435 531.37V364.652h-62.87v104.087l62.87 62.631ZM834 1030.83 689.63 886.218l-57 55.76H327.566l-213.544-213.35V423.37l57-56L25.174 222l43.913-43.913 808.826 808.826L834 1030.83ZM517.913 538.087ZM355.865 873.848h248.178l36.37-35.37-422.891-422.891-35.37 36.37v248.178l173.713 173.713ZM480 779.065q-15.285 0-26.458-11.172-11.172-11.173-11.172-26.458 0-15.286 11.172-26.458 11.173-11.173 26.458-11.173 15.285 0 26.458 11.173 11.172 11.172 11.172 26.458 0 15.285-11.172 26.458-11.173 11.172-26.458 11.172Zm-51.152-152.152Z"/></svg>