<svg xmlns="http://www.w3.org/2000/svg" width="48" height="48" viewBox="0 -960 960 960"><path d="M326.891-114.022v-80H142.152q-28.104 0-48.117-20.013-20.013-20.013-20.013-48.117v-515.696q0-28.202 20.013-48.286t48.117-20.084h675.696q28.202 0 48.286 20.084t20.084 48.286v163.413h-68.37v-163.413H142.152v515.696h675.696v-229.413h-327.5L578.913-404 535-360.087 371.087-523 535-686.913 578.913-643l-88.565 88.565h327.5q26.697 0 47.533 20.766 20.837 20.766 20.837 47.365v224.152q0 28.104-20.084 48.117-20.084 20.013-48.286 20.013h-184.5v80H326.891ZM514.065-523Z"/></svg>