<svg xmlns="http://www.w3.org/2000/svg" width="48" height="48" viewBox="0 -960 960 960"><path d="M507.08-37.609q-22.145 0-37.243-15.155-15.098-15.155-15.098-37.33v-149.45l54.804-142.549q8.305-20.755 26.522-34.233 18.218-13.479 40.696-13.479h40.848v99.783l-52.196 52.196 28.239 28 63.957-63.014v-193.378h64.782v193.435l62.028 62.957 28.929-27.761-50.957-52.196v-100.022H802q22.775 0 40.844 13.479 18.069 13.478 26.374 34.222l56.043 142.478v149.618q0 22.204-15.754 37.301-15.753 15.098-36.659 15.098h-82.899q-22.145 0-37.243-15.127Q737.609-67.864 737.609-90v-115.63L690-253.478l-47.609 47.848v115.612q0 22.214-15.753 37.312-15.754 15.097-36.66 15.097H507.08ZM280-394.174l-51.13-100.261q-4.479-8.717-12.196-13.815-7.717-5.098-16.674-5.098H74.022v-224.5q0-27.697 20.265-48.033 20.266-20.337 47.865-20.337h675.696q27.697 0 48.033 20.337 20.337 20.336 20.337 48.033v248.043H781.435v-76.413H597.609v76.399l-44.805 2.254-82.934-166.87q-4.346-8.717-12.656-12.815-8.311-4.098-17.214-4.098-8.957 0-17.294 4.098-8.336 4.098-12.576 12.815L280-394.174ZM142.152-154.022q-27.599 0-47.865-20.265-20.265-20.266-20.265-47.865v-224.739h104.826l70.043 142.565q5.479 8.478 13.435 12.956 7.957 4.479 17.653 4.479 8.978 0 16.815-4.479 7.836-4.478 12.076-13.195L440-564.826l51.022 108.043q-12.566 10.761-22.109 24.185-9.543 13.424-15.826 29.228l-58.348 152.587v96.761H142.152Z"/></svg>