<svg xmlns="http://www.w3.org/2000/svg" width="48" height="48" viewBox="0 -960 960 960"><path d="M106.13-114.022v-68.13h94.631v-664.066h404.348v45h155.13V-528.5h-68.13v-204.348h-87v233.109q-64.196 33.239-100.652 96.196Q468-340.587 468-268.869q0 40.806 12.261 80.805 12.261 39.999 37.065 74.042H106.13Zm339.609-324.543q17.717 0 29.576-11.953 11.859-11.953 11.859-29.457 0-17.503-11.859-29.482-11.859-11.978-29.456-11.978-17.598 0-29.577 11.953-11.978 11.953-11.978 29.457 0 17.503 11.961 29.482 11.96 11.978 29.474 11.978ZM695.499-69l-5.021-48.717q-19.521-5.761-40.043-17.141-20.522-11.381-33.283-24.663l-42.956 20-37.153-57.827L576-227.826q-5.239-21.776-5.12-40.543.12-18.768 5.12-40.544l-38.957-30.478 37.153-58.587 42.717 20q12.761-11.522 33.402-23.283 20.642-11.761 40.163-17.521l5.021-49.718h64.523l6.239 49.718q19.217 5.662 39.891 17.592 20.674 11.929 33.196 23.451l42.956-20.239 37.153 59.065-38.957 30.478q5.239 22.044 5.12 40.564-.12 18.52-5.12 40.284l38.957 30.478-37.153 57.588-42.991-20q-12.487 13.282-33.161 24.712-20.674 11.429-39.891 17.092L760.022-69h-64.523Zm32.161-99.304q43.253 0 72.014-28.662 28.761-28.663 28.761-71.903 0-43.044-28.791-71.805-28.79-28.761-72.043-28.761-43.253 0-71.894 28.761-28.642 28.761-28.642 71.924 0 43.163 28.671 71.805 28.671 28.641 71.924 28.641Z"/></svg>