<svg xmlns="http://www.w3.org/2000/svg" width="48" height="48" viewBox="0 -960 960 960"><path d="M182.15-114.02q-27.6 0-47.86-20.27-20.27-20.26-20.27-47.86v-204q0-27.7 20.27-48.04 20.26-20.33 47.86-20.33h427.39v-163.33h68.37v163.33h99.7q27.7 0 48.03 20.33 20.34 20.34 20.34 48.04v204q0 27.6-20.34 47.86-20.33 20.27-48.03 20.27H182.15Zm132-140.13q12-12 12-30t-12-30q-12-12-30-12t-30 12q-12 12-12 30t12 30q12 12 30 12t30-12Zm144.42 0q12-12 12-30t-12-30q-12-12-30-12t-30 12q-12 12-12 30t12 30q12 12 30 12t30-12Zm144.41 0q12-12 12-30t-12-30q-12-12-30-12t-30 12q-12 12-12 30t12 30q12 12 30 12t30-12Zm-39.61-413.81L520.7-710.6q24-24.27 55.21-38.51 31.22-14.24 67.7-14.24 36.48 0 67.69 14.24 31.22 14.24 55.46 38.48l-42.67 42.67q-14.24-13.76-35.41-23.14-21.16-9.38-45.07-9.38-22.91 0-44.58 9.38-21.66 9.38-35.66 23.14Zm-86.67-86.67-45.68-45.91q33-33.48 89.08-59.58 56.07-26.1 123.63-26.1 67.55 0 123.63 26.1 56.07 26.1 89.07 59.58l-45.67 45.91q-25.93-28.78-69.18-48.75-43.25-19.97-97.95-19.97-54.71 0-97.82 19.98-43.11 19.98-69.11 48.74Z"/></svg>