<svg xmlns="http://www.w3.org/2000/svg" width="48" height="48" viewBox="0 -960 960 960"><path d="M352.37-115.935q-68.109 0-115.022-47.293-46.913-47.294-46.913-114.402v-343.74q-35.24-13.83-57.62-42.871-22.38-29.042-22.38-65.759 0-47.794 33.73-80.929 33.731-33.136 80.25-33.136 47.759 0 80.955 33.136 33.195 33.135 33.195 80.929 0 36.677-22.38 65.795-22.381 29.118-57.62 42.835v343.748q0 38.476 27.043 66.016 27.042 27.541 66.762 27.541 40.521 0 67.043-27.52 26.522-27.519 26.522-65.966V-682.37q0-68.108 46.793-114.902 46.794-46.793 114.902-46.793 68.348 0 115.261 46.793 46.914 46.794 46.914 114.902v343.74q35 13.717 57.5 42.811t22.5 65.739q0 46.754-33.21 80.45-33.21 33.695-81.109 33.695-46.66 0-80.356-33.755-33.695-33.756-33.695-80.31 0-36.68 22.38-66.177 22.381-29.497 57.62-42.453v-343.74q0-39.521-27.043-66.543-27.043-27.022-66.762-27.022-39.521 0-66.543 27.022-27.022 27.022-27.022 66.543v404.74q0 67.108-46.793 114.402-46.794 47.293-114.902 47.293Z"/></svg>