<svg xmlns="http://www.w3.org/2000/svg" width="48" height="48" viewBox="0 -960 960 960"><path d="M478.96-74.02q-84.2 0-158.28-31.98-74.07-31.98-128.91-86.82-54.84-54.83-86.69-128.88-31.86-74.04-31.86-158.27t31.93-158.33q31.92-74.1 86.83-129.06 54.9-54.95 128.95-86.9 74.04-31.96 158.27-31.96 90.18 0 170.46 37.32 80.27 37.31 138.23 105.7L479.2-434.5v-383.35q-141.05 0-239.45 98.4-98.4 98.41-98.4 239.45t98.21 239.45q98.22 98.4 239.63 98.4 80.29 0 152.07-36.02 71.78-36.03 124.31-98.31v92.57q-56.84 52.78-128.08 81.33-71.25 28.56-148.53 28.56ZM815.57-227v-327h65.5v327h-65.5Zm9.61 133.01q-10.57-10.58-10.57-26.01 0-15.43 10.58-26.01 10.58-10.58 26.01-10.58 15.43 0 26.01 10.58 10.57 10.58 10.57 26.01 0 15.43-10.58 26.01-10.58 10.58-26.01 10.58-15.43 0-26.01-10.58Z"/></svg>