<svg xmlns="http://www.w3.org/2000/svg" width="48" height="48" viewBox="0 -960 960 960"><path d="M589.63-151.88q-44.67-44.79-44.67-109.3 0-64.52 44.67-109.19t109.19-44.67q64.51 0 109.3 44.67 44.79 44.67 44.79 109.19 0 64.51-44.79 109.3-44.79 44.79-109.3 44.79-64.52 0-109.19-44.79Zm170.64-47.97q24.51-24.39 24.51-61.33 0-36.93-24.51-61.33t-61.45-24.4q-36.93 0-61.33 24.4t-24.4 61.33q0 36.94 24.4 61.33t61.33 24.39q36.94 0 61.45-24.39Zm-608.39-82.87q-44.79-44.67-44.79-109.18t44.79-109.31Q196.67-546 261.18-546q64.52 0 109.19 44.79 44.67 44.8 44.67 109.31t-44.67 109.18q-44.67 44.68-109.19 44.68-64.51 0-109.3-44.68Zm170.24-48.25q24.79-24.79 24.79-60.95 0-36.16-24.79-61.06-24.79-24.89-60.95-24.89-36.17 0-60.94 24.9-24.77 24.91-24.77 61.07t24.77 60.94q24.77 24.79 60.94 24.79 36.16 0 60.95-24.8Zm9.76-294.6q-44.79-44.67-44.79-109.18t44.79-109.3q44.79-44.8 109.3-44.8 64.52 0 109.31 44.8 44.79 44.79 44.79 109.3 0 64.51-44.79 109.18-44.79 44.68-109.31 44.68-64.51 0-109.3-44.68Zm170.63-47.69q24.4-24.25 24.4-61.34t-24.35-61.48q-24.35-24.4-61.45-24.4-37.09 0-61.49 24.36-24.4 24.35-24.4 61.44 0 37.09 24.35 61.38 24.35 24.28 61.45 24.28 37.09 0 61.49-24.24ZM698.93-261.3ZM261.3-392.02Zm179.77-342.85Z"/></svg>