<svg xmlns="http://www.w3.org/2000/svg" width="48" height="48" viewBox="0 -960 960 960"><path d="M189.35-189.35q-55.68-55.43-88.01-130Q69-393.92 69-480.02q0-86.13 32.34-160.66 32.33-74.54 88.01-129.97l45.82 46.58q-46.76 46.77-73.72 109.36-26.95 62.58-26.95 134.61 0 72.06 26.98 134.63 26.98 62.58 74.69 110.3l-46.82 45.82Zm114.91-114.91q-33.43-33.2-52.91-78.15-19.48-44.96-19.48-97.47 0-52.55 19.55-97.59 19.55-45.03 52.84-78.27l46.07 46.83q-24.48 24.24-38.72 57.26-14.24 33.02-14.24 71.65t14.12 71.53q14.12 32.9 39.6 58.14l-46.83 46.07Zm115.29-115.33q-25.05-25.09-25.05-60.45 0-35.35 25.09-60.41 25.09-25.05 60.45-25.05 35.35 0 60.41 25.09 25.05 25.09 25.05 60.45 0 35.35-25.09 60.41-25.09 25.05-60.45 25.05-35.35 0-60.41-25.09Zm236.19 115.33-45.83-46.83q24.21-24.5 38.47-57.43 14.25-32.92 14.25-71.44 0-38.52-14.13-71.47-14.14-32.96-39.59-58.48l46.83-45.83q33.43 33.2 53.03 78.21 19.6 45.01 19.6 97.63 0 51.57-19.6 96.51-19.6 44.93-53.03 79.13Zm114.91 114.91-45.82-46.82q46.76-46.79 73.72-109.28Q825.5-407.94 825.5-480q0-72.01-26.98-134.44-26.98-62.43-74.45-110.39l46.58-45.82q55.68 56.43 88.01 130.95Q891-565.19 891-479.88q0 85.27-32.34 159.68-32.33 74.42-88.01 130.85Z"/></svg>