<svg xmlns="http://www.w3.org/2000/svg" width="48" height="48" viewBox="0 0 48 48"><path d="M24 44.3q-4.2 0-7.9-1.6t-6.45-4.35Q6.9 35.6 5.3 31.9 3.7 28.2 3.7 24t1.6-7.9q1.6-3.7 4.35-6.45Q12.4 6.9 16.1 5.3q3.7-1.6 7.9-1.6t7.9 1.6q3.7 1.6 6.45 4.35 2.75 2.75 4.35 6.45 1.6 3.7 1.6 7.9t-1.6 7.9q-1.6 3.7-4.35 6.45-2.75 2.75-6.45 4.35-3.7 1.6-7.9 1.6Zm-9.1-19 7.3-5.3-7.3-5.35L13 17.2l3.8 2.8-3.8 2.8Zm6.1 8.95 3-3 3 3 3-3 1.95 1.9 2.25-2.2-4.2-4.2-3 3-3-3-3 3-3-3-4.15 4.2 2.2 2.2 1.95-1.9Zm12.1-8.95 1.95-2.5L31.2 20l3.85-2.8-1.95-2.55L25.8 20Z"/></svg>