<svg xmlns="http://www.w3.org/2000/svg" width="48" height="48" viewBox="0 0 48 48"><path d="M31.25 21.4q1.15 0 1.95-.8t.8-1.95q0-1.15-.8-1.95t-1.95-.8q-1.15 0-1.975.8-.825.8-.825 1.95t.825 1.95q.825.8 1.975.8Zm-14.5 0q1.15 0 1.975-.8.825-.8.825-1.95t-.825-1.95q-.825-.8-1.975-.8-1.15 0-1.95.8t-.8 1.95q0 1.15.8 1.95t1.95.8ZM24 27.15q-3.35 0-6.075 1.875T13.9 34h2.8q1.1-2.05 3.075-3.15t4.275-1.1q2.3 0 4.225 1.125Q30.2 32 31.35 34h2.75q-1.25-3.15-4-5T24 27.15Zm0 17.15q-4.2 0-7.9-1.6t-6.45-4.35Q6.9 35.6 5.3 31.9 3.7 28.2 3.7 24t1.6-7.9q1.6-3.7 4.35-6.45Q12.4 6.9 16.1 5.3q3.7-1.6 7.9-1.6t7.9 1.6q3.7 1.6 6.45 4.35 2.75 2.75 4.35 6.45 1.6 3.7 1.6 7.9t-1.6 7.9q-1.6 3.7-4.35 6.45-2.75 2.75-6.45 4.35-3.7 1.6-7.9 1.6ZM24 24Zm0 16.9q7.05 0 11.975-4.925T40.9 24q0-7.05-4.925-11.975T24 7.1q-7.05 0-11.975 4.925T7.1 24q0 7.05 4.925 11.975T24 40.9Z"/></svg>