<svg xmlns="http://www.w3.org/2000/svg" width="48" height="48" viewBox="0 0 48 48"><path d="M5.2 30q-1.45 0-2.425-.975Q1.8 28.05 1.8 26.6V7q0-1.4.975-2.4t2.425-1h37.6q1.4 0 2.4 1t1 2.4v19.6q0 1.45-1 2.425-1 .975-2.4.975Zm0-3.4h37.6V7H5.2v19.6Zm.75 10.7-.15-3.45 36.35-1.9.15 3.4Zm-.15 5.25v-3.4h36.4v3.4ZM5.2 26.6V7v19.6Zm15.9-4.3q3.45 0 6.65-1.2t5.65-3.65q.3 1.8 1.9 2.775 1.6.975 3.5 1.125v-9.1q-1.95.15-3.575 1.125-1.625.975-1.875 2.775-2.5-2.3-5.675-3.575Q24.5 11.3 21.1 11.3q-3.75 0-7.15 1.3-3.4 1.3-5.65 4.2 2.25 2.9 5.675 4.2 3.425 1.3 7.125 1.3Z"/></svg>