<svg xmlns="http://www.w3.org/2000/svg" width="48" height="48" viewBox="0 -960 960 960"><path d="M265.63-404.565v-150.87L189.435-480l76.195 75.435ZM480-270.435l75.435-76.195h-149.87L480-270.435ZM405.565-613.37h149.87L480-688.565l-74.435 75.195ZM696.37-403.565 771.565-479l-75.195-76.435v151.87ZM142.152-154.022q-27.587 0-47.859-20.271-20.271-20.272-20.271-47.859v-515.696q0-27.587 20.271-47.978 20.272-20.392 47.859-20.392h675.696q27.587 0 47.978 20.392 20.392 20.391 20.392 47.978v515.696q0 27.587-20.392 47.859-20.391 20.271-47.978 20.271H142.152Z"/></svg>