<svg xmlns="http://www.w3.org/2000/svg" width="48" height="48" viewBox="0 -960 960 960"><path d="M543.52-134.08q-60.17-60.06-60.17-145.33 0-85.26 60.17-145.32 60.18-60.05 145.45-60.05 85.27 0 145.32 60.05 60.06 60.06 60.06 145.32 0 85.27-60.06 145.33-60.05 60.06-145.32 60.06t-145.45-60.06Zm235.78-56.86q4.94-5.19 2.49-12.43-2.45-7.24-9.55-8.24-26.96-4.76-49.88-19.84t-37.46-39.82q-14.53-24.73-16.15-52.45-1.62-27.71 7.62-53.25 2.24-7.13-2.38-12.77-4.62-5.65-11.62-3.89-69.15 12.48-94.25 78.27-25.1 65.79 20.19 122.19 35.9 45.25 94.43 46.36 58.54 1.11 96.56-44.13ZM382.74-74.02 362.5-201.93q-19.8-7.29-37.99-17.57-18.18-10.28-34.23-23.57l-119.67 54.96-98.5-173.8 109.43-79.96q-1.76-10.29-2.26-19.06-.5-8.78-.5-19.07 0-10.29.5-19.07.5-8.77 2.26-19.06l-109.43-80.2 98.5-173.32 120.15 54.72q15.81-13.05 33.97-23.24 18.16-10.18 37.77-16.66l20.23-129.39h194.53l20.24 128.39q19.8 7.53 38.07 17.18 18.27 9.65 34.15 23.72l119.91-54.72 98.26 173.32-82.78 58.46q-27.2-13.2-56.4-19.05-29.21-5.86-59.62-5.86-25.58 0-49.86 4.45-24.27 4.46-47.66 14.13-18.06-29.5-47.78-46.65Q514.06-610 479.44-610q-54.16 0-92.04 38-37.88 38-37.88 92 0 35.93 18.58 65.92 18.57 29.99 49.01 47.75-6.76 20.53-10.26 41.81t-3.5 43.32q0 59.16 22.38 112.59 22.39 53.44 65.2 94.59H382.74Z"/></svg>