<svg xmlns="http://www.w3.org/2000/svg" width="48" height="48" viewBox="0 96 960 960"><path d="m479.836 771.087 54.673-54.522h93.056v-95.043L677.087 572l-49.717-48.717v-93.892h-93.892l-53.717-53.717-53.283 53.761h-91.282v93.804L285.674 573l49.523 49.462v94.103h91.206l53.433 54.522Zm-.075-79.283V455.957q48.522 0 82.902 34.388t34.38 83.514q0 49.226-34.257 83.586-34.257 34.359-83.025 34.359ZM142.152 901.978q-27.599 0-47.865-20.265-20.265-20.266-20.265-47.865V318.152q0-27.697 20.265-48.033 20.266-20.337 47.865-20.337h675.696q27.697 0 48.033 20.337 20.337 20.336 20.337 48.033v515.696q0 27.599-20.337 47.865-20.336 20.265-48.033 20.265H142.152Zm0-68.13h675.696V318.152H142.152v515.696Zm0 0V318.152v515.696Z"/></svg>