<svg xmlns="http://www.w3.org/2000/svg" width="48" height="48" viewBox="0 96 960 960"><path d="M303.165 1056q-13.752 0-22.969-9.3-9.218-9.31-9.218-23.06 0-13.75 9.439-22.97 9.439-9.214 23.191-9.214 13.752 0 22.833 9.444 9.081 9.43 9.081 23.19 0 13.75-9.303 22.83-9.303 9.08-23.054 9.08Zm176.869 0q-13.751 0-22.969-9.3-9.217-9.31-9.217-23.06 0-13.75 9.439-22.97 9.439-9.214 23.191-9.214 13.751 0 22.832 9.444 9.081 9.43 9.081 23.19 0 13.75-9.302 22.83-9.303 9.08-23.055 9.08Zm172.87 0q-13.752 0-22.85-9.3-9.097-9.31-9.097-23.06 0-13.75 9.302-22.97 9.303-9.214 23.055-9.214 13.751 0 22.849 9.444 9.098 9.43 9.098 23.19 0 13.75-9.303 22.83-9.302 9.08-23.054 9.08ZM451.717 885.348l.24-312.804-192.805 192.565-43.674-43.674 224-224-224-224 43.674-43.913 192.805 192.565-.24-312.565h31.435l215.913 215.913-172 172 172 172-215.913 215.913h-31.435Zm62.87-121.261 96.891-94.652-96.891-96.891v191.543Zm0-342 96.891-96.652-96.891-94.891v191.543Z"/></svg>