<svg xmlns="http://www.w3.org/2000/svg" width="48" height="48" viewBox="0 -960 960 960"><path d="M83.74-431.46q-5.48-11.95-7.6-23.53-2.12-11.58-2.12-25.01 0-50.47 34.57-85.11 34.56-34.63 84.93-34.63 24.48 0 45.96 9.5t38.19 25.5l294.07-168.93q-1.76-7.76-3.14-16.03-1.38-8.26-1.38-16.78 0-50.13 34.69-84.93 34.68-34.81 84.82-34.81 50.14 0 84.81 34.81 34.68 34.81 34.68 84.95 0 50.13-34.69 84.81-34.68 34.67-84.81 34.67-23.81 0-44.98-9.24-21.17-9.24-37.89-24.48L238.28-476.89q-2.48-.24-5.37-.48t-5.3-.24q-40.2 0-76.91 12.1-36.72 12.1-66.96 34.05ZM686.7-74.02q-50.13 0-84.81-34.62-34.67-34.61-34.67-84.64 0-8 4.76-32.33l-101.37-59.32q-6-26.11-17.32-50.86-11.31-24.75-27.46-45.67l178.78 101.63q16.72-15.47 37.42-24.33 20.71-8.86 44.69-8.86 50.37 0 84.93 34.62 34.57 34.61 34.57 85.06 0 50.21-34.69 84.76-34.69 34.56-84.83 34.56ZM227.61-37.61q-78.24 0-134.12-55.88-55.88-55.88-55.88-134.12 0-78 55.88-134t134.12-56q78 0 134 56t56 134q0 78.24-56 134.12-56 55.88-134 55.88Zm-.24-160.93 68 67.76 26.83-26.83-68.77-68.76 71-71-26.82-26.83-70 69.77-70-70-26.83 26.82 69.76 70-70 70 28.07 27.83 68.76-68.76Z"/></svg>