<svg xmlns="http://www.w3.org/2000/svg" width="48" height="48" viewBox="0 96 960 960"><path d="m384 811.478 266-175-266-176v351ZM142.152 942.696q-27.599 0-47.865-20.336-20.265-20.336-20.265-48.034V330.5H314.5v-97.13q0-27.698 20.266-48.034Q355.031 165 382.63 165h194.74q27.599 0 47.864 20.336Q645.5 205.672 645.5 233.37v97.13h240.718v543.826q0 27.698-20.337 48.034-20.336 20.336-48.033 20.336H142.152Zm0-68.37h675.696V398.63H142.152v475.696ZM382.63 330.5h194.74v-97.13H382.63v97.13ZM142.152 874.326V398.63v475.696Z"/></svg>