<svg xmlns="http://www.w3.org/2000/svg" width="48" height="48" viewBox="0 96 960 960"><path d="m480.478 476.261-46.065-46.066 74.239-74H327.609v-65.261h181.043l-74-74 45.826-46.065 152.457 152.696-152.457 152.696ZM289.788 978.63Q260 978.63 239 957.418q-21-21.212-21-51t21.212-50.788q21.213-21 51-21 29.788 0 50.788 21.213 21 21.212 21 51 0 29.787-21.212 50.787-21.213 21-51 21Zm404 0Q664 978.63 643 957.418q-21-21.212-21-51t21.212-50.788q21.213-21 51-21 29.788 0 50.788 21.213 21 21.212 21 51 0 29.787-21.212 50.787-21.213 21-51 21Zm-634.418-740v-65.26h120.543L348.478 534.5h286.989l158.859-277.13h73.457L704.826 561.565q-11.478 19.478-29.504 31.457Q657.297 605 635.402 605H334.109l-54.326 101.37H768.63v65.26H284q-39.337 0-59.723-31.315-20.386-31.315-2.668-63.75L284.891 560 138.326 238.63H59.37Z"/></svg>