<svg xmlns="http://www.w3.org/2000/svg" width="48" height="48" viewBox="0 -960 960 960"><path d="M445.94-74.022q-13.614 0-26.395-4.478-12.781-4.478-22.045-14.674L93.174-398.5q-10.435-9.196-15.533-22.201-5.098-13.005-5.098-25.562 0-12.65 5.098-25.585t15.533-23.13L464.26-865.826q9.195-9.196 22.099-14.794 12.904-5.598 26.401-5.598h305.326q28.354 0 48.242 19.889 19.889 19.888 19.889 48.242v304.326q0 13.616-5.718 26.08-5.717 12.464-14.913 21.659L493.5-93.174q-9.264 10.196-22.105 14.674-12.841 4.478-25.455 4.478Zm267.358-588.543q20.789 0 36.169-15.387 15.381-15.388 15.381-36.226 0-20.839-15.353-36.254-15.352-15.416-36.141-15.416-21.028 0-36.408 15.387-15.381 15.388-15.381 36.226 0 20.839 15.352 36.255 15.353 15.415 36.381 15.415Z"/></svg>