<svg xmlns="http://www.w3.org/2000/svg" width="48" height="48" viewBox="0 0 48 48"><path d="M14.35 44.1q-1.5 0-2.55-1.075-1.05-1.075-1.05-2.575 0-1.45 1.05-2.5t2.55-1.05q1.5 0 2.55 1.05 1.05 1.05 1.05 2.55 0 1.5-1.05 2.55-1.05 1.05-2.55 1.05Zm20 0q-1.5 0-2.55-1.075-1.05-1.075-1.05-2.575 0-1.45 1.05-2.5t2.55-1.05q1.5 0 2.55 1.05 1.05 1.05 1.05 2.55 0 1.5-1.05 2.55-1.05 1.05-2.55 1.05Zm-24-36.3h29.1q1.3 0 1.975 1.2t.025 2.4L34.9 23.2q-.6.95-1.5 1.55-.9.6-2 .6H16.35l-2.7 5.05H38.1v3.3H13.85q-2.2 0-3.15-1.475-.95-1.475.05-3.275l3.15-5.85L6.35 7.15H2.4v-3.3h6.1Z"/></svg>