<svg xmlns="http://www.w3.org/2000/svg" width="48" height="48" viewBox="0 96 960 960"><path d="m482 780.391 159.348-159.348-45.87-45.63-81.326 81.565V463.935h-64.065v193.043l-81.326-81.565-45.87 45.63L482 780.391ZM222.152 981.978q-27.599 0-47.865-20.265-20.265-20.266-20.265-47.865V412.37l242.587-242.588h341.239q27.697 0 48.033 20.337 20.337 20.336 20.337 48.033v675.696q0 27.599-20.337 47.865-20.336 20.265-48.033 20.265H222.152Zm0-68.13h515.696V238.152h-310.79l-204.906 204.82v470.876Zm0 0h515.696-515.696Z"/></svg>