<svg xmlns="http://www.w3.org/2000/svg" width="48" height="48" viewBox="0 -960 960 960"><path d="M270.71-2.84q-8.34-8.33-8.34-19.41t8.34-19.41Q279.04-50 290-50q10.96 0 19.29 8.34 8.34 8.33 8.34 19.41t-8.34 19.41Q300.96 5.5 290 5.5q-10.96 0-19.29-8.34Zm340 0q-8.34-8.33-8.34-19.41t8.34-19.41Q619.04-50 630-50q10.96 0 19.29 8.34 8.34 8.33 8.34 19.41t-8.34 19.41Q640.96 5.5 630 5.5q-10.96 0-19.29-8.34ZM270-88.57q-42.48 0-83.58-19.35-41.09-19.36-64.33-54.84-2.48-3.57-3.48-6.72-1-3.14-1-6.95 0-9.2 5.98-15.92 5.98-6.72 16.63-6.72 5.98 0 10.95 2.24 4.98 2.24 7.46 6.72 12.28 21.28 36.83 34.43 24.54 13.14 49.58 19.14l129.85-155.94-59.52-164.98q-5.48-15.47-2.86-28.07 2.62-12.6 11.1-27.08L430.98-683.3H319.43l-73.47 119.19-55.79-33.87 94.4-150.59H508q24.51 0 39.24 13.39t20.39 25.29l21 48q20.52 47.28 64.14 78.8 43.62 31.52 99.86 34.52v65.27q-65.96-2-121.43-37.17-55.48-35.16-91.96-91.44l-81.41 130.02 174.8 119.09v228.73h28.57q30.61 0 56.63-14.76 26.02-14.76 43.78-41.28 3.57-4.48 7.72-6.72 4.14-2.24 10.43-2.24 8.96 0 15.91 6.64 6.96 6.63 6.96 15.71 0 3.76-1.12 7.01t-3.6 6.95q-23.24 35.48-59.45 54.84-36.22 19.35-78.7 19.35H270Zm58.98-45.5h238.39v-184.5L403.78-431.59l48.33 150.07-123.13 147.45ZM609.71-774q-31.04 0-53.37-22.26Q534-818.51 534-849.55q0-31.28 22.26-53.61 22.25-22.34 53.29-22.34 31.28 0 53.61 22.26 22.34 22.25 22.34 53.53 0 31.04-22.26 53.37Q640.99-774 609.71-774Z"/></svg>