<svg xmlns="http://www.w3.org/2000/svg" width="48" height="48" viewBox="0 96 960 960"><path d="M817.848 981.978H142.152q-27.599 0-47.865-20.265-20.265-20.266-20.265-47.865V398.152q0-27.697 20.265-48.033 20.266-20.337 47.865-20.337h302.913v68.37H142.152v515.696h675.696V679.457h68.37v234.391q0 27.599-20.337 47.865-20.336 20.265-48.033 20.265Zm-675.696-68.13V398.152v281.305-31.805 266.196Zm553.609-294.391-56.445-129.251L505.065 431l134.251-58.963 56.445-122.494 55.001 122.455L885.218 431l-134.494 59.206-54.963 129.251Z"/></svg>