<svg xmlns="http://www.w3.org/2000/svg" width="48" height="48" viewBox="0 -960 960 960"><path d="M240-110.913 83.174-267.739 240-424.326l52.826 52.587-66.13 66.369h506.608l-66.13-66.369L720-424.326l156.826 156.587L720-110.913l-52.826-52.826 66.13-66.13H226.696l66.13 66.13L240-110.913ZM93.5-528.065v-17.065q0-22.277 12.125-40.801 12.126-18.524 33.266-28.026 25.317-10.521 52.32-16.38 27.004-5.859 56.418-5.859 29.414 0 56.374 5.859t52.475 16.38q21.165 9.502 33.159 28.026 11.993 18.524 11.993 40.801v17.065H93.5Zm464.87 0v-17.065q0-22.277 11.993-40.801 11.994-18.524 33.398-28.026 25.317-10.521 52.32-16.38 27.003-5.859 56.418-5.859 29.414 0 56.374 5.859t52.236 16.38q21.14 9.502 33.266 28.026Q866.5-567.407 866.5-545.13v17.065H558.37ZM247.603-689.761q-32.712 0-55.907-23.327-23.196-23.326-23.196-56.108 0-32.543 23.207-55.739 23.207-23.196 55.989-23.196 32.543 0 55.739 23.277 23.195 23.277 23.195 55.75 0 32.713-23.276 56.028-23.277 23.315-55.751 23.315Zm464.87 0q-32.712 0-55.908-23.327-23.195-23.326-23.195-56.108 0-32.543 23.207-55.739 23.207-23.196 55.989-23.196 32.543 0 55.738 23.277 23.196 23.277 23.196 55.75 0 32.713-23.277 56.028-23.277 23.315-55.75 23.315Z"/></svg>