<svg xmlns="http://www.w3.org/2000/svg" width="48" height="48" viewBox="0 -960 960 960"><path d="M400.957-275.935q-26.185 0-44.886-18.701-18.701-18.701-18.701-44.886v-280.956q0-26.409 18.701-44.998t44.886-18.589h158.086q26.409 0 44.999 18.589 18.588 18.589 18.588 44.998v280.956q0 26.185-18.588 44.886-18.59 18.701-44.999 18.701H400.957Zm-366.457 0v-68.13h177.369v-101.87H98.087q-26.185 0-44.886-18.701Q34.5-483.337 34.5-509.522v-110.956q0-26.409 18.701-44.998t44.886-18.589H280v68.13H102.63v101.87h113.783q26.409 0 44.998 18.589T280-450.478v110.956q0 26.185-18.589 44.886-18.589 18.701-44.998 18.701H34.5Zm645.5 0v-68.13h177.37v-101.87H743.587q-26.185 0-44.886-18.701Q680-483.337 680-509.522v-110.956q0-26.409 18.701-44.998t44.886-18.589H925.5v68.13H748.37v101.87h113.543q26.409 0 44.998 18.589t18.589 44.998v110.956q0 26.185-18.589 44.886-18.589 18.701-44.998 18.701H680Zm-274.5-68.13h149v-271.87h-149v271.87Z"/></svg>