<svg xmlns="http://www.w3.org/2000/svg" width="48" height="48" viewBox="0 -960 960 960"><path d="M860-24.174 650.391-234.022H234.022l-160 160v-749.13h75.587L449.761-523h-88.587L47.152-837.022l42.913-45.913L904.913-68.087 860-24.174Zm-34.782-213.435L528.826-533H726v-60H468.826l-60-60H726v-60H381v32.174L175.609-886.218h642q26.587 0 47.478 20.892 20.891 20.891 20.891 47.478v515.696q0 24.913-17.5 44.489-17.5 19.576-43.26 20.054ZM273-403q17 0 28.5-11.5T313-443q0-17-11.5-28.5T273-483q-17 0-28.5 11.5T233-443q0 17 11.5 28.5T273-403Zm0-120q17 0 28.5-11.5T313-563q0-17-11.5-28.5T273-603q-17 0-28.5 11.5T233-563q0 17 11.5 28.5T273-523Z"/></svg>