<svg xmlns="http://www.w3.org/2000/svg" width="48" height="48" viewBox="0 -960 960 960"><path d="M542.96-339.28q25.76-26 24.5-61.74-1.26-35.74-30.5-54.5-84.92-54-171.49-113.18-86.58-59.17-170.01-115.37 55.43 84.2 114.61 170.9 59.17 86.69 114.89 169.89 19 29 55 30t63-26Zm-351.2 185.26q-19.67 0-36.49-9.34-16.81-9.34-27.53-26.53-26.72-47.48-40.22-100.32-13.5-52.83-13.5-108.55 0-83.87 31.88-155.25t89.56-130.06q56.67-58.43 130.67-90.17 74-31.74 155.63-31.74 84.2 0 157.89 31.98 73.7 31.98 128.53 87.7 54.84 55.71 86.32 129.53 31.48 73.81 31.48 158.01 0 55.72-14.24 108.05-14.24 52.34-40.72 100.82-9.48 17.43-26.91 26.65-17.44 9.22-36.11 9.22H191.76Z"/></svg>