<svg xmlns="http://www.w3.org/2000/svg" width="48" height="48" viewBox="0 -960 960 960"><path d="M317.609-108.521q-18.239 0-29.12-11-10.88-11-10.88-29v-100.501h407.652v100.501q0 18-11 29t-29 11H317.609ZM767.891-645v127q0 7-1 9l-31.478 150.152q-4.478 18.674-17.793 29.75-13.316 11.076-31.99 11.076H274.609q-18.913 0-32.229-11.076-13.315-11.076-17.793-29.75L193.109-509q-1-2-1-9v-259.848q0-29.348 19.391-48.859 19.391-19.511 48.978-19.511h363.783q29.348 0 48.859 19.511 19.51 19.511 19.51 48.859v126.152q1.196-15.043 10.816-23.706 9.619-8.663 25.38-8.663 17.435 0 28.25 10.695 10.815 10.696 10.815 28.37Zm-432.413 79.152h213.783v-134H335.478v134Z"/></svg>