<svg xmlns="http://www.w3.org/2000/svg" width="48" height="48" viewBox="0 -960 960 960"><path d="M122.043-155.174 75.456-202 249.55-376.092q32.872-33.087 47.248-82.737 14.377-49.649 14.377-135.541 0-58.889 25.359-115.216 25.358-56.327 76.837-107.327Q501.849-905.63 608.13-917.63q106.282-12 174.948 56.715 68.597 68.48 56.597 175.676-12 107.196-100.478 196.152-51.239 51.239-107.572 75.478-56.333 24.239-115.45 24.239-85.174 0-136.152 13.598-50.979 13.598-83.979 46.598l-174 174Zm292.153-337.739q48.043 48.043 131.087 35.424 83.043-12.62 149.098-78.675 65.669-65.615 78.731-147.247 13.062-81.632-34.742-129.915-47.805-47.804-130.587-35.185Q525-835.891 459.1-770.098q-65.948 66.055-79.448 147.685-13.5 81.631 34.544 129.5ZM739.348-35.935q-60.858 0-103.146-42.329-42.289-42.329-42.289-103.076 0-60.747 42.259-102.986 42.26-42.239 103.076-42.239 60.817 0 103.176 42.209 42.359 42.21 42.359 102.957 0 60.747-42.338 103.106-42.338 42.358-103.097 42.358Zm.051-62.63q35.33 0 58.922-23.652t23.592-59.163q0-35.511-23.602-59.033t-59.044-23.522q-35.441 0-58.963 23.602-23.521 23.603-23.521 59.044 0 35.441 23.593 59.083 23.594 23.64 59.023 23.64Zm-.051-82.805Z"/></svg>