<svg xmlns="http://www.w3.org/2000/svg" width="48" height="48" viewBox="0 -960 960 960"><path d="m146.02-142.85-23-7q-32.24-14-43.74-48t6.74-67l60-136v258Zm186 78q-34 0-58-24t-24-58v-207l92 262q1.76 8 5.76 14t10.24 13h-26Zm195.89-20.41q-23.63 9.72-48.9-4.12t-35.99-39.47l-191-519q-10.95-25.63 2-49.78 12.96-24.15 40.35-35.11l318-115q25.39-8.72 49.78 4.24t35.35 39.35l191 513.24q7.48 27.39-3.6 53.54-11.07 26.15-38.47 36.11l-318.52 116Zm-56.93-505.32q9.95-9.83 9.95-22.91t-9.95-23.03q-9.96-9.96-23.03-9.96-13.08 0-22.92 9.96-9.83 9.95-9.83 23.03 0 13.08 9.83 22.91 9.84 9.84 22.92 9.84 13.07 0 23.03-9.84Z"/></svg>