<svg xmlns="http://www.w3.org/2000/svg" width="48" height="48" viewBox="0 -960 960 960"><path d="M482.824-368Q529-368 561.5-400.324q32.5-32.323 32.5-78.5Q594-525 561.677-557.5 529.353-590 483.176-590 437-590 404.5-557.677 372-525.353 372-479.176 372-433 404.324-400.5q32.323 32.5 78.5 32.5Zm190.024 78.848q37.522-37.522 58.022-86.976 20.5-49.453 20.5-102.923 0-53.471-20.5-102.992-20.5-49.522-58.022-87.044l-43 43q28.522 30.419 45.022 68.162 16.5 37.743 16.5 79.043 0 41.301-16.5 78.874-16.5 37.573-45.022 68.095l43 42.761Zm-379.696 0 43-42.761q-28.522-30.419-45.022-68.162-16.5-37.743-16.5-79.043 0-41.301 16.5-78.874 16.5-37.573 45.022-68.095l-43-43q-37.761 37.417-58.141 86.99-20.381 49.574-20.381 103.045 0 53.47 20.381 102.924 20.38 49.454 58.141 86.976Zm-151 135.13q-28.349 0-48.24-19.89-19.89-19.891-19.89-48.24v-515.696q0-28.447 19.89-48.408 19.891-19.962 48.24-19.962h675.696q28.447 0 48.408 19.962 19.962 19.961 19.962 48.408v515.696q0 28.349-19.962 48.24-19.961 19.89-48.408 19.89H142.152Z"/></svg>