<svg xmlns="http://www.w3.org/2000/svg" width="48" height="48" viewBox="0 96 960 960"><path d="m187.5 694.261-24.674-53.587L109.239 616l53.587-24.674 24.674-53.587 24.674 53.587L265.761 616l-53.587 24.674-24.674 53.587Zm133.935 241.5-37.392-79.5-79.739-37.631 79.739-37.391 37.392-79.5 37.391 79.5 79.5 37.391-79.5 37.631-37.391 79.5Zm0-405.5-37.392-79.739-79.739-37.152 79.739-37.631 37.392-79.5 37.391 79.5 79.5 37.631-79.5 37.152-37.391 79.739Zm451 451.717q-125.544-51.434-201.957-165.25Q494.065 702.913 494.065 576q0-89.565 42.065-178.37 42.066-88.804 114.913-157.565H487.587v-68.13h284.848v284.609h-68.37V284.239q-65.413 60.566-103.521 138.837Q562.435 501.348 562.435 576q0 99.804 58 192.206 58 92.403 152 139.164v74.608Z"/></svg>