<svg xmlns="http://www.w3.org/2000/svg" width="48" height="48" viewBox="0 96 960 960"><path d="M438 648.978 655.739 431 607 383.022l-169.333 170L353 468.261 304.022 516 438 648.978ZM34.5 944.848v-62.87h891v62.87h-891Zm107.652-122.87q-27.599 0-47.865-20.265-20.265-20.266-20.265-47.865V278.152q0-27.697 20.265-48.033 20.266-20.337 47.865-20.337h675.696q27.697 0 48.033 20.337 20.337 20.336 20.337 48.033v475.696q0 27.599-20.337 47.865-20.336 20.265-48.033 20.265H142.152Zm0-68.13h675.696V278.152H142.152v475.696Zm0 0V278.152v475.696Z"/></svg>