<svg xmlns="http://www.w3.org/2000/svg" width="48" height="48" viewBox="0 96 960 960"><path d="M807.804 1001.67 653.717 847.826q-21.674 13.718-42.228 22.696-20.554 8.978-43.228 15.978v-71.13q9.239-3 18.239-7.381 9-4.38 18.239-9.38L257.196 451.065q-18.522 30.044-26.544 63.468-8.022 33.424-8.022 64.467 0 57.043 21.142 103.706 21.141 46.664 64.424 83.185l28.565 19.565V666h62.869v233.587H166.043v-62.63h124.261l-12.848-10.327Q208.739 771.913 181 710.315 153.261 648.717 154.261 579q1-54.478 15.239-98.076 14.239-43.598 38.478-79.076L55.804 249.674l42.913-42.913 752 752-42.913 42.909ZM739.63 765.674l-48.456-48.218q20.522-31.804 32.043-67.608 11.522-35.805 11.522-76.848 0-45.043-22.141-93.706-22.142-48.664-61.424-88.185l-27.565-24.565V486h-62.87V252.413h233.587v62.63H669.065l12.848 12.327q64.717 60.478 92.957 125.195Q803.109 517.283 803.109 573q0 54.717-15.739 102.076-15.74 47.359-47.74 90.598ZM337.109 363.391l-47.218-47.217q23.196-17.718 48.37-29.815 25.174-12.098 51.848-19.859v70.13q-13 4.761-26.5 11.761-13.5 7-26.5 15Z"/></svg>