<svg xmlns="http://www.w3.org/2000/svg" width="48" height="48" viewBox="0 -960 960 960"><path d="m232.587-155.935 62.152-155.5q9.717-24.195 30.674-38.413 20.957-14.217 47.152-14.217h73.37v-150.239q-160.913-5.478-266.174-46.555Q74.5-601.935 74.5-658.565q0-60.87 117.956-103.185Q310.413-804.065 480-804.065q169.348 0 287.424 42.315Q885.5-719.435 885.5-658.565q0 56.63-105.261 97.706-105.261 41.077-266.174 46.555v150.239h73.37q25.195 0 46.772 14.337 21.576 14.337 31.054 38.293l62.152 155.5h-68.848l-55-140h-246.13l-56 140h-68.848Z"/></svg>