<svg xmlns="http://www.w3.org/2000/svg" width="48" height="48" viewBox="0 96 960 960"><path d="M182.63 1021.5q-28.103 0-48.117-20.01-20.013-20.017-20.013-48.12V198.63q0-28.103 20.013-48.117Q154.527 130.5 182.63 130.5h594.74q28.103 0 48.117 20.013Q845.5 170.527 845.5 198.63v754.74q0 28.103-20.013 48.12-20.014 20.01-48.117 20.01H182.63Zm0-158.13v90h594.74v-90H182.63Zm215.37 65h164v-40H398v40Zm-215.37-125h594.74V288.63H182.63v514.74Zm0-574.74h594.74v-30H182.63v30Zm0 0v-30 30Zm0 634.74v90-90Z"/></svg>