<svg xmlns="http://www.w3.org/2000/svg" width="48" height="48" viewBox="0 -960 960 960"><path d="M354.5-860v-65.5h251v65.5h-251ZM479.944-70q-75.49 0-142.053-28.94-66.562-28.939-116.357-78.695-49.795-49.756-78.654-116.298-28.858-66.542-28.858-142.011t28.88-142.034q28.88-66.565 78.675-116.404 49.795-49.838 116.357-78.826Q404.496-802.196 480-802.196q67.478 0 127.076 22.5t105.837 62.739l53.152-53.152 46.305 46.066-53.152 53.152q36.239 40.478 61.619 97.956 25.381 57.479 25.381 136.957 0 75.52-28.955 142.106-28.955 66.587-78.784 116.31Q688.65-127.84 622.043-98.92 555.435-70 479.944-70Zm.015-68.37q124.324 0 211.106-86.621 86.783-86.622 86.783-210.946t-86.742-211.106q-86.741-86.783-211.065-86.783t-211.106 86.742q-86.783 86.741-86.783 211.065 0 124.323 86.742 210.986 86.741 86.663 211.065 86.663ZM480-434.978ZM367.37-274.782H430v-322.87h-62.63v322.87Zm162.63 0h62.63v-322.87H530v322.87Z"/></svg>