<svg xmlns="http://www.w3.org/2000/svg" width="48" height="48" viewBox="0 -960 960 960"><path d="M77.37-117.37v-65.26q35-2 68.597-14.761 33.598-12.761 67.272-37.957 31.718 24.478 66.098 38.098 34.38 13.62 67.663 13.62 31.761 0 68.261-13.979 36.5-13.978 65.739-38.217 33.478 27.478 66.978 39.837 33.5 12.359 67.022 12.359 32.283 0 64.283-13.12T749-236.348q35.717 26.478 69.696 39.098 33.978 12.62 63.934 14.62v65.26q-31.195-1.76-67.793-11.641-36.598-9.88-65.837-26.88-33.761 19.761-67.522 29.141-33.761 9.38-66.478 9.38-32.239 0-66.359-9.38-34.119-9.38-67.641-29.141-30.761 19.761-65.261 29.141-34.5 9.38-68.739 9.38-33.478 0-67.359-9.26-33.88-9.261-66.641-29.261-29.239 17-66.457 26.88-37.217 9.881-69.174 11.641Zm0-192.63v-72.63q0-95.479 38.619-179.457 38.62-83.978 104.478-146.957 65.859-62.978 153.837-99.717Q462.283-845.5 560-845.5q28.239 0 57.815 2.739 29.576 2.739 54.729 8.217-19.718 32.196-29.816 66.055-10.098 33.859-10.098 62.859 0 57.804 39.848 102.532 39.848 44.728 97.892 44.728h112.26v65.74H770.37q-85.957 0-144.479-63.522-58.521-63.522-58.521-149.478 0-13.044 3.141-30.968t7.902-38.967q-82.609 20.717-134.196 87.282-51.587 66.566-51.587 145.653 0 36.565 12.903 71.608 12.902 35.044 37.184 68.326 10.718-7.478 19.859-13.239 9.141-5.761 17.663-12.283 31 25 67.381 38.359Q584-376.5 615-376.5q29.522 0 66.022-13.739 36.5-13.739 67.978-37.979 30.913 23.196 65.272 36.957Q848.63-377.5 882.63-375.5v65.5q-30.956-2-67.554-11.88-36.598-9.881-66.076-26.881-34.239 20-66.62 29.381Q650-310 615-310q-34.283 0-70.283-10.761t-63.717-28q-31.761 19.522-65.761 28.641Q381.239-311 347-310q-31.761 0-67.5-10.5-35.739-10.5-66.5-28.261-29.478 17-66.576 26.881Q109.326-312 77.369-310Zm265.717-66.5q5.043 0 14.565-1.12 9.522-1.119 19.804-1.88-24.043-40.044-37.065-81.065-13.021-41.022-13.021-82.065 0-73.696 37.293-141.229 37.293-67.532 99.793-102.293v19.891q-75.695 17.957-133.608 54.359-57.913 36.402-97.783 85.489-39.869 49.087-62.054 109.098-22.185 60.011-27.663 126.945h.239q21.804-12.043 39.087-20.424 17.283-8.38 30.326-18.424 36.478 26.479 66.5 39.359 30.022 12.881 63.587 13.359Zm-61.522-187.978Z"/></svg>