<svg xmlns="http://www.w3.org/2000/svg" width="48" height="48" viewBox="0 0 48 48"><path d="M24.35 23.9q-.9 0-1.5-.6t-.6-1.5q0-.9.6-1.5t1.5-.6q.9 0 1.5.6t.6 1.5q0 .9-.6 1.5t-1.5.6Zm0-12.25q-.9 0-1.5-.625t-.6-1.525q0-.9.6-1.5t1.5-.6q.9 0 1.5.6t.6 1.5q0 .9-.6 1.525-.6.625-1.5.625Zm4 6.1q-.9 0-1.5-.6t-.6-1.5q0-.9.625-1.5t1.475-.6q.9 0 1.525.6.625.6.625 1.5t-.625 1.5q-.625.6-1.525.6Zm2.1 6.15q-.85 0-1.475-.6-.625-.6-.625-1.5t.625-1.5q.625-.6 1.525-.6.85 0 1.475.6.625.6.625 1.5t-.625 1.5q-.625.6-1.525.6Zm0-12.25q-.85 0-1.475-.625-.625-.625-.625-1.525 0-.9.625-1.5t1.525-.6q.85 0 1.475.6.625.6.625 1.5t-.625 1.525q-.625.625-1.525.625Zm4.05 6.1q-.9 0-1.5-.6t-.6-1.5q0-.9.6-1.5t1.5-.6q.9 0 1.5.6t.6 1.5q0 .9-.6 1.5t-1.5.6Zm2.1 6.15q-.9 0-1.5-.6t-.6-1.5q0-.9.6-1.5t1.5-.6q.9 0 1.525.6.625.6.625 1.5t-.625 1.5q-.625.6-1.525.6Zm0-12.25q-.9 0-1.5-.625T34.5 9.5q0-.9.6-1.5t1.5-.6q.9 0 1.525.6.625.6.625 1.5t-.625 1.525q-.625.625-1.525.625Zm4.05 6.1q-.9 0-1.5-.6t-.6-1.5q0-.9.6-1.5t1.5-.6q.9 0 1.5.6t.6 1.5q0 .9-.6 1.5t-1.5.6Zm2.1 6.15q-.9 0-1.5-.6t-.6-1.5q0-.9.6-1.5t1.5-.6q.9 0 1.5.6t.6 1.5q0 .9-.6 1.5t-1.5.6Zm0-12.25q-.9 0-1.5-.625t-.6-1.525q0-.9.6-1.5t1.5-.6q.9 0 1.5.6t.6 1.5q0 .9-.6 1.525-.6.625-1.5.625ZM39.6 42.3q-6.2 0-12.275-3.025T16.4 31.4q-4.85-4.85-7.875-10.95Q5.5 14.35 5.5 8.25q0-1.1.75-1.825Q7 5.7 8.05 5.7h7q.9 0 1.55.55t.85 1.5l1.35 6.15q.1.85-.05 1.525-.15.675-.65 1.125l-5.1 5q2.75 4.45 6.1 7.775 3.35 3.325 7.55 5.625l4.8-4.95q.6-.65 1.35-.9.75-.25 1.5-.05l5.7 1.3q.95.2 1.525.9t.575 1.65v6.85q0 1.05-.725 1.8t-1.775.75Z"/></svg>