<svg xmlns="http://www.w3.org/2000/svg" width="48" height="48" viewBox="0 96 960 960"><path d="m480 600.652 337.848-217v-65.5L480 531.152l-337.848-213v65.5l337.848 217ZM773 1016q-77.605 0-132.302-54Q586 908 586 829.986q0-78.014 54.698-133Q695.395 642 773 642q77.605 0 132.302 54.986Q960 751.972 960 829.986 960 908 905.302 962q-54.697 54-132.302 54ZM660 847.435h226v-42.87H660v42.87Zm-517.848 54.543q-28.349 0-48.24-19.89-19.89-19.891-19.89-48.24V318.152q0-28.447 19.89-48.408 19.891-19.962 48.24-19.962h675.696q28.447 0 48.408 19.962 19.962 19.961 19.962 48.408v292.435q-26.196-14.674-54.87-21.63Q802.674 582 772.651 582q-103.173 0-174.673 73.783-71.5 73.782-71.978 178.065-.239 17.152 2.728 34.185 2.968 17.032 8.663 33.945H142.152Z"/></svg>