<svg xmlns="http://www.w3.org/2000/svg" width="48" height="48" viewBox="0 -960 960 960"><path d="M71.09-111.03q-33.72-33.66-33.72-82.91 0-49.26 33.66-82.97 33.66-33.72 82.91-33.72 49.26 0 82.97 33.66 33.72 33.66 33.72 82.91 0 49.26-33.66 82.97-33.66 33.72-82.91 33.72-49.26 0-82.97-33.66ZM193-155q15-15 15-39t-15-39q-15-15-39-15t-39 15q-15 15-15 39t15 39q15 15 39 15t39-15Zm96.43 77.63q11.75-13.58 20.83-31.58 9.09-18.01 13.2-33.68h107.91V-440q0-36.5-25.94-62.43-25.93-25.94-62.43-25.94H144.63v157.74q-15.2-.24-33.01 3.88-17.82 4.12-32.25 12.08v-238.96h125V-744q0-73.2 52.72-125.91 52.71-52.72 125.87-52.72 56.76 0 101.47 29.36 44.72 29.36 66.2 81.07l277.28 669.57h94.72v65.26H651.37v-65.26h108.56L486.39-784.98q-14.78-33.87-40.56-53.13-25.79-19.26-62.79-19.26-46.61 0-80.01 33.4-33.4 33.4-33.4 80.02v150.32h73.53q64.12 0 108.79 44.68 44.68 44.67 44.68 108.95v362.63h-207.2ZM288-336Z"/></svg>