<svg xmlns="http://www.w3.org/2000/svg" width="48" height="48" viewBox="0 -960 960 960"><path d="M353.782-538.326h-171.63q-27.599 0-47.865-20.266-20.265-20.266-20.265-47.865v-171.63q0-27.599 20.265-47.865 20.266-20.266 47.865-20.266h171.63q27.599 0 47.865 20.266 20.266 20.266 20.266 47.865v171.63q0 27.599-20.266 47.865-20.266 20.266-47.865 20.266Zm-173.304-66.457h174.978v-174.978H180.478v174.978Zm173.304 490.761h-171.63q-27.599 0-47.865-20.265-20.265-20.266-20.265-47.865v-171.63q0-27.599 20.265-47.865 20.266-20.266 47.865-20.266h171.63q27.599 0 47.865 20.266 20.266 20.266 20.266 47.865v171.63q0 27.599-20.266 47.865-20.266 20.265-47.865 20.265Zm-173.304-66.456h174.978v-174.978H180.478v174.978Zm597.609-357.848h-171.63q-27.599 0-47.865-20.266-20.266-20.266-20.266-47.865v-171.63q0-27.599 20.266-47.865 20.266-20.266 47.865-20.266h171.63q27.599 0 47.865 20.266 20.266 20.266 20.266 47.865v171.63q0 27.599-20.266 47.865-20.266 20.266-47.865 20.266Zm-173.304-66.457h174.978v-174.978H604.783v174.978Zm173.304 490.761h-171.63q-27.599 0-47.865-20.265-20.266-20.266-20.266-47.865v-171.63q0-27.599 20.266-47.865 20.266-20.266 47.865-20.266h171.63q27.599 0 47.865 20.266 20.266 20.266 20.266 47.865v171.63q0 27.599-20.266 47.865-20.266 20.265-47.865 20.265Zm-173.304-66.456h174.978v-174.978H604.783v174.978ZM355.456-604.783Zm0 249.327Zm249.327-249.327Zm0 249.327Z"/></svg>