<svg xmlns="http://www.w3.org/2000/svg" width="48" height="48" viewBox="0 -960 960 960"><path d="M114.02-244.02v-472.2q0-20.83 14.5-35.41 14.5-14.59 35.45-14.59 20.95 0 35.5 14.59 14.55 14.58 14.55 35.41v472.2q0 21.07-14.67 35.53-14.66 14.47-35.61 14.47-20.96 0-35.34-14.47-14.38-14.46-14.38-35.53Zm210 50q-21.07 0-35.53-14.47-14.47-14.46-14.47-35.53v-472.2q0-20.83 14.47-35.41 14.46-14.59 35.53-14.59H634.3q20.84 0 35.42 14.59 14.58 14.58 14.58 35.41v472.2q0 21.07-14.58 35.53-14.58 14.47-35.42 14.47H324.02Zm420.28-50.72v-470.74q0-21.14 14.85-35.94 14.84-14.8 36.21-14.8 21.38 0 36.12 14.8 14.74 14.8 14.74 35.94v470.74q0 21.33-14.85 36.03-14.84 14.69-36.21 14.69-21.38 0-36.12-14.69-14.74-14.7-14.74-36.03Zm-402.15-17.41h274.02v-435.94H342.15v435.94Zm136.89-218.09Z"/></svg>