<svg xmlns="http://www.w3.org/2000/svg" width="48" height="48" viewBox="0 -960 960 960"><path d="M570.065-154.022q-14.609 0-25.022-10.31-10.413-10.311-10.413-25.124v-160q0-14.813 10.413-25.124 10.413-10.311 25.022-10.311h99.248q14.848 0 25.159 10.311 10.311 10.311 10.311 25.124v160q0 14.813-10.311 25.124-10.311 10.31-25.159 10.31h-99.248Zm15.435-50.869h68.413v-129.131H585.5v129.131Zm159.283 130.87v-108.566q0-15.61 9.811-25.522 9.81-9.913 25.624-9.913h96.086v-48H744.783v-50.869h146.982q15.787 0 25.598 9.912 9.811 9.913 9.811 25.523v73.13q0 15.813-9.811 25.624-9.811 9.811-25.624 9.811h-96.087v48h131.522v50.87H744.783Zm-575.167-80.001q-57.92 0-97.355-41.315T32.826-295.565v-185.107q0-46.285 19.978-87.241 19.978-40.957 55.935-69.674l175.717-140.717q16.522-12.522 25.163-31.333 8.642-18.811 8.642-39.276v-76.065h68.13v76.065q0 20.465 8.761 39.276 8.761 18.811 25.044 31.333l175.717 140.717q35.957 28.717 55.554 69.772 19.598 41.055 19.598 87.054v45.87H527.128q-25.258 0-42.878 17.76t-17.62 42.682v201.34q-31.869-18.521-49.26-49.217-17.392-30.696-17.631-73.239v-410.478l-47.413-40.131-47.413 40.131v410.478q0 58.913-39.188 100.228-39.189 41.315-96.109 41.315Z"/></svg>