<svg xmlns="http://www.w3.org/2000/svg" width="48" height="48" viewBox="0 -960 960 960"><path d="M226.293-74.022q-64.089 0-108.18-44.056-44.091-44.056-44.091-108.096v-224.609q0-28.452 13.62-54.063 13.619-25.611 37.336-41.089l325.674-209.956 20.239 19.521q17.87 16.435 21.446 39.685 3.576 23.25-8.141 44.12l-53.022 85.391h342.413q13.891 0 23.141 9.263 9.25 9.264 9.25 23.174 0 12.911-9.25 22.509t-23.141 9.598H474.022v78.326H853.51q14.034 0 23.251 9.263 9.217 9.264 9.217 23.174 0 12.91-9.25 22.508-9.25 9.598-23.141 9.598H474.022v78.326h339.746q14.015 0 23.232 9.264 9.218 9.263 9.218 23.174 0 12.91-9.251 22.508-9.25 9.598-23.141 9.598H474.022v78.326h259.563q13.959 0 23.176 9.263 9.217 9.264 9.217 23.174 0 12.91-9.25 22.509-9.25 9.597-23.141 9.597H226.293Zm487.81-592.196q-35.994 0-63.853-28.001t-27.859-63.92q0-33.752 21.194-73.273 21.194-39.521 70.48-98.762 49.196 59.283 70.674 98.783 21.479 39.5 21.479 73.252 0 35.919-28.06 63.92-28.06 28.001-64.055 28.001Z"/></svg>