<svg xmlns="http://www.w3.org/2000/svg" width="48" height="48" viewBox="0 -960 960 960"><path d="M358.57-399.04V-561.2h62.15v162.16h-62.15Zm90.47 0V-521.2h62.16v122.16h-62.16Zm90.24 0v-82.16h62.15v82.16h-62.15ZM414.11-829.09h131.78-131.78Zm0 697.94h131.78-131.78Zm-49.07 65.5-50.11-180.81q-55.47-35.47-88.19-96.64t-32.72-136.87q0-75.7 32.76-137.4t88.15-96.41l50.11-180.57H595.2l49.87 180.57q55.5 34.7 88.32 96.37 32.83 61.67 32.83 137.38 0 75.7-32.84 136.9t-88.31 96.67L595.2-65.65H365.04ZM480-262.15q91.28 0 154.57-63.28 63.28-63.28 63.28-154.57 0-91.28-63.28-154.57-63.28-63.28-154.57-63.28-91.28 0-154.57 63.28-63.28 63.28-63.28 154.57 0 91.28 63.28 154.57 63.28 63.28 154.57 63.28ZM395.15-750.7q22.05-6.52 43.07-9.9 21.03-3.38 41.73-3.38 20.7 0 41.89 3.38 21.2 3.38 43.01 9.9l-18.96-78.39H414.11l-18.96 78.39Zm18.96 619.55h131.78l18.96-78.15q-22.05 5.52-43.07 8.9-21.03 3.38-41.79 3.38-20.75 0-41.77-3.38-21.02-3.38-43.07-8.9l18.96 78.15Z"/></svg>