<svg xmlns="http://www.w3.org/2000/svg" width="48" height="48" viewBox="0 -960 960 960"><path d="M358.57-399.04V-561.2h62.15v162.16h-62.15Zm90.47 0V-521.2h62.16v122.16h-62.16Zm90.24 0v-82.16h62.15v82.16h-62.15ZM414.11-829.09h131.78-131.78Zm0 697.94h131.78-131.78Zm-49.07 65.5-50.11-180.81q-55.47-35.47-88.19-96.67T194.02-480q0-75.67 32.72-137.37t88.19-96.41l50.11-180.57H595.2l49.87 180.57q55.47 34.71 88.31 96.41 32.84 61.7 32.84 137.37t-32.84 136.87q-32.84 61.2-88.31 96.67L595.2-65.65H365.04Zm269.53-259.78q63.28-63.29 63.28-154.57t-63.28-154.57Q571.28-697.85 480-697.85t-154.57 63.28Q262.15-571.28 262.15-480t63.28 154.57q63.29 63.28 154.57 63.28t154.57-63.28ZM395.15-750.7q22.05-6.52 43.07-9.9 21.02-3.38 41.78-3.38t41.9 3.38q21.14 3.38 42.95 9.9l-18.96-78.39H414.11l-18.96 78.39Zm18.96 619.55h131.78l18.96-78.15q-22.05 5.52-43.07 8.9-21.02 3.38-41.78 3.38t-41.78-3.38q-21.02-3.38-43.07-8.9l18.96 78.15Z"/></svg>