<svg xmlns="http://www.w3.org/2000/svg" width="48" height="48" viewBox="0 -960 960 960"><path d="m363.848-69-48.913-177.456q-55.479-35.479-88.196-96.645-32.717-61.167-32.717-136.87t32.76-137.399q32.76-61.695 88.153-96.413L363.848-891h232.304l48.913 177.217q55.501 34.701 88.327 96.371 32.826 61.671 32.826 137.378 0 75.708-32.837 136.904-32.837 61.195-88.316 96.674L596.152-69H363.848ZM480-262.152q91.283 0 154.565-63.283Q697.848-388.717 697.848-480t-63.283-154.565Q571.283-697.848 480-697.848t-154.565 63.283Q262.152-571.283 262.152-480t63.283 154.565Q388.717-262.152 480-262.152Zm-84.848-488.544q22.044-6.522 43.065-9.902 21.022-3.38 41.726-3.38 20.703 0 41.902 3.38 21.198 3.38 43.003 9.902L547.087-825.5H412.913l-17.761 74.804ZM412.913-134.5h134.174l17.761-74.804q-22.044 5.522-43.065 8.902-21.022 3.38-41.783 3.38-20.761 0-41.783-3.38-21.021-3.38-43.065-8.902l17.761 74.804Zm-17.761-691h169.696-169.696Zm17.761 691h-17.761 169.696-151.935Z"/></svg>