<svg xmlns="http://www.w3.org/2000/svg" width="48" height="48" viewBox="0 -960 960 960"><path d="M99.283-259.761h198.869q-28.043-22.282-50.239-51.871-22.196-29.589-35.586-64.542H99.283v116.413Zm380.505 0q91.451 0 156.071-64.288 64.619-64.288 64.619-155.739 0-91.451-64.407-156.071-64.408-64.619-155.859-64.619-91.451 0-155.951 64.407-64.5 64.408-64.5 155.859 0 91.451 64.288 155.951t155.739 64.5Zm267.909-324.304h113.02v-116.413h-198.63q27.838 22.536 50.03 52.045 22.193 29.508 35.58 64.368ZM32.826-149.717v-336.501h66.457v43.588h96.543q-1.761-9.283-2.141-18.177-.381-8.894-.381-19.193 0-119.898 83.449-203.416Q360.202-766.935 480-766.935h380.717v-43.587h66.457v336.5h-66.457v-43.587h-96.543q1.761 9.522 2.261 18.416.5 8.894.5 19.193 0 119.798-83.519 203.247Q599.898-193.304 480-193.304H99.283v43.587H32.826Zm66.457-110.044v-116.413 116.413Zm761.434-324.304v-116.413 116.413ZM480-480Zm-.038 106.391q-29.679 0-50.658-21.025-20.978-21.026-20.978-50.888 0-23 7.239-39.598 7.239-16.597 31.851-53.575L480-586.63l32.584 47.935q24.612 36.978 31.97 53.575 7.359 16.598 7.359 39.598 0 29.862-21.135 50.888-21.136 21.025-50.816 21.025Z"/></svg>