<svg xmlns="http://www.w3.org/2000/svg" width="48" height="48" viewBox="0 -960 960 960"><path d="M74.5-234.978v-68.131q38.239 0 62.098-23.239 23.858-23.239 69.815-23.239 45.957 0 71.076 27.239 25.12 27.239 64.482 27.239 39.833 0 65.953-27.239 26.119-27.239 72.076-27.239 45.957 0 71.696 27.239 25.739 27.239 65.101 27.239 39.833 0 65.453-27.239 25.62-27.239 71.457-27.239 45.837 0 69.577 23.239 23.741 23.239 62.455 23.239v68.131q-47.717 0-70.695-23.239-22.979-23.239-61.22-23.239-38.72 0-64.837 27.239-26.117 27.239-72.074 27.239-45.717 0-71.956-27.239-26.24-27.239-64.994-27.239-38.264 0-65.258 27.239-26.994 27.239-72.618 27.239-45.743 0-71.538-27.239-25.795-27.239-64.136-27.239-38.753 0-61.513 23.239-22.759 23.239-70.4 23.239Zm0-168.131v-68.369q38.239 0 62.098-23.239 23.858-23.24 69.815-23.24 45.955 0 71.112 27.24 25.157 27.239 64.483 27.239 39.796 0 65.916-27.239 26.119-27.24 72.076-27.24 45.957 0 71.696 27.24 25.739 27.239 65.102 27.239 39.832 0 65.452-27.239 25.62-27.24 71.576-27.24 45.718 0 69.457 23.24 23.739 23.239 62.456 23.239v68.369q-47.624 0-70.612-23.239-22.989-23.239-61.264-23.239-38.754 0-64.874 27.239-26.119 27.239-72.076 27.239-45.717 0-71.956-27.239-26.24-27.239-64.959-27.239-38.228 0-64.972 27.239-26.743 27.239-72.58 27.239t-71.809-27.239q-25.972-27.239-64.218-27.239-38.723 0-61.463 23.239-22.739 23.239-70.456 23.239Zm0-168.369v-68.131q38.239 0 62.098-23.239 23.858-23.239 69.815-23.239 45.955 0 71.112 27.239 25.157 27.239 64.483 27.239 39.796 0 65.916-27.239 26.119-27.239 72.076-27.239 45.957 0 71.696 27.239 25.739 27.239 65.102 27.239 39.832 0 65.452-27.239 25.62-27.239 71.576-27.239 45.718 0 69.457 23.239 23.739 23.239 62.456 23.239v68.131q-47.624 0-70.612-23.239-22.989-23.24-61.264-23.24-38.754 0-64.874 27.24-26.119 27.239-72.076 27.239-45.717 0-71.956-27.239-26.24-27.24-64.959-27.24-38.228 0-64.972 27.24-26.743 27.239-72.58 27.239t-71.809-27.239q-25.972-27.24-64.218-27.24-38.723 0-61.463 23.24-22.739 23.239-70.456 23.239Z"/></svg>