<svg xmlns="http://www.w3.org/2000/svg" width="48" height="48" viewBox="0 -960 960 960"><path d="M235.826-353.174 169-419.761q70-70 146.5-105.119Q392-560 480-560t164.5 35Q721-490 791-420l-66.826 66.826q-61-60.522-121.565-85.924Q542.043-464.5 480-464.5q-62.043 0-122.609 25.402-60.565 25.402-121.565 85.924Zm-169-169L0-589q93-95 216.5-153T480-800q140 0 263.5 58T960-589l-66.826 66.826q-88-83.282-190.946-132.804Q599.283-704.5 480-704.5q-119.283 0-222.228 49.522-102.946 49.522-190.946 132.804ZM480-109l148-149q-29-29-66.5-45.5T480-320q-44 0-81.5 16.5T332-258l148 149Z"/></svg>