<svg xmlns="http://www.w3.org/2000/svg" width="48" height="48" viewBox="0 -960 960 960"><path d="M142.152-154.022q-27.599 0-47.865-20.265-20.265-20.266-20.265-47.865V-352h68.13v129.848H272v68.13H142.152Zm211.261-161.456 45.043-230.457-95.217 45.087v133.044h-65.5v-177.948l167.348-69.4q32.594-14 46.288-17.739 13.694-3.739 27.221-3.739 21.165 0 37.263 9.097 16.098 9.098 27.337 26.576l42.478 67q2.254 3.413 4.507 6.587 2.254 3.174 4.015 6.174-51.306 33-82.751 86.62Q480-380.957 478.077-315.478H353.413ZM539.491-676.63q-31.404 0-53.621-22.296-22.218-22.296-22.218-53.605 0-31.404 22.186-53.621 22.185-22.218 53.494-22.218 31.404 0 53.612 22.166 22.208 22.167 22.208 53.624 0 31.359-22.128 53.654-22.128 22.296-53.533 22.296ZM74.021-768v-129.848q0-27.697 20.266-48.033 20.266-20.337 47.865-20.337H272v68.37H142.152V-768h-68.13Zm743.827 0v-129.848H688v-68.37h129.848q27.697 0 48.033 20.337 20.337 20.336 20.337 48.033V-768h-68.37ZM729.5-118.478q-79.5 0-135.5-55.748t-56-135.252q0-79.761 55.867-135.381Q649.735-500.478 729-500.478q80 0 135.5 55.619 55.5 55.62 55.5 134.881 0 79.739-55.5 135.619-55.5 55.881-135 55.881ZM712.565-281.63h37.87v-143h-37.87v143Zm18.935 90.021q10.457 0 17.554-6.597 7.098-6.598 7.098-17.435t-7.198-17.555q-7.197-6.717-16.954-6.717-10.957 0-17.554 6.717-6.598 6.718-6.598 17.555t6.598 17.435q6.597 6.597 17.054 6.597Z"/></svg>