<svg xmlns="http://www.w3.org/2000/svg" width="48" height="48" viewBox="0 96 960 960"><path d="M274 696h103q14.025 0 23.513-9.487Q410 677.025 410 663V490q0-14.45-9.487-24.225Q391.025 456 377 456H274q-15.45 0-24.725 9.775Q240 475.55 240 490v173q0 14.025 9.275 23.513Q258.55 696 274 696Zm16-33v-70h70v70h-70Zm0-103v-71h70v71h-70Zm181 136h50v-90l83.57 90H669L559 576l110-120h-64.43L521 546v-90h-50v240Zm209-40h40v-63h51v-33h-51v-64h-40v64h-63v33h63v63ZM189 961q-39.05 0-66.525-27.475Q95 906.05 95 867V285q0-39.463 27.475-67.231Q149.95 190 189 190h582q39.463 0 67.231 27.769Q866 245.537 866 285v582q0 39.05-27.769 66.525Q810.463 961 771 961H189Zm0-94h582V285H189v582Zm0-582v582-582Z"/></svg>