<svg xmlns="http://www.w3.org/2000/svg" width="48" height="48" viewBox="0 -960 960 960"><path d="M392.721-71Q309-71 249-131t-60-143.534q0-84.533 60-144.5Q309-479 393-479v82q-49.667 0-85.833 36.235-36.167 36.236-36.167 86Q271-226 307.735-189.5q36.736 36.5 85.5 36.5Q443-153 478-187.667q35-34.666 35-98.333h82q0 97-58.779 156t-143.5 59ZM716-101v-215H510q-49 0-73.5-38t-4.5-81l86-189h-92l-27 72-73-23 28-71q7-24 24-36.5t46.138-12.5H611q48 0 71.5 34t4.5 75l-80 168h94q39.938 0 68.469 28.818Q798-360.363 798-319.533V-101h-82Zm11.327-621Q692-722 667.5-746.38 643-770.761 643-806.381 643-842 667.173-866.5q24.172-24.5 59.5-24.5Q762-891 786.5-866.461T811-806.08q0 35.43-24.173 59.755Q762.655-722 727.327-722Z"/></svg>