<svg xmlns="http://www.w3.org/2000/svg" width="48" height="48" viewBox="0 -960 960 960"><path d="M692.382-270q26.383 0 44.5-19Q755-308 755-333.882q0-25.883-18.618-44Q717.765-396 692.882-396 666-396 647.5-377.882q-18.5 18.117-18.5 44Q629-308 647.5-289q18.5 19 44.882 19Zm-.882 125q33.5 0 59.882-13.5Q777.765-172 798-198q-27-14-53.137-21.5t-53.325-7.5Q664-227 637-219.5q-27 7.5-52 21.5 19 26 45.313 39.5Q656.627-145 691.5-145ZM480-54Q331.231-88.81 233.116-220.804 135-352.798 135-522.171v-256.314L480-907l346 129v302q-23-15-46.721-24.594Q755.557-510.188 731-513v-199.861L480-805l-251 91.831v190.735Q229-444 254-381.5t62.5 108Q354-228 397-199t79 40q7 24 26 48.5T542-74q-15 8-31 12t-31 8Zm212.5-26Q615-80 560-135.5T505-267q0-78.435 54.99-133.717Q614.98-456 693-456q77 0 132.5 55.283Q881-345.435 881-267q0 76-55.5 131.5T692.5-80ZM480-482Z"/></svg>