<svg xmlns="http://www.w3.org/2000/svg" width="48" height="48" viewBox="0 -960 960 960"><path d="M755-657q-28 29-63 42.5T619.5-601q-37.5 0-73-14T483-657l-75-75q-14-14-31.5-20.5T340-759q-19 0-36.5 6.5T272-732l-80 81-68-68 81-80q28-27 63-41.5t71.5-14.5q36.5 0 71.5 14.5t63 41.5l75 75q15 15 32.5 22t36.5 7q19 0 37-7t33-22l80-80 68 67-81 80Zm0 248q-28 28-63.5 42T619-353q-37 0-72.5-14T483-409l-75-75q-14-14-31.5-21t-36.5-7q-19 0-36.5 7T272-484l-80 80-68-66 81-81q28-28 63-42t71.5-14q36.5 0 71.5 14t63 42l75 75q15 15 33 22t37 7q19 0 36.5-7t32.5-22l80-81 68 68-81 80Zm-1 247q-28 28-63 42.5T619-105q-37 0-72.5-14.5T483-162l-76-75q-14-14-31.5-20.5T339-264q-19 0-36.5 6.5T271-237l-80 81-66-67 80-81q28-28 62.5-42t71-14q36.5 0 72 14.5T474-304l75 75q15 15 33 22t37 7q19 0 36.5-7t32.5-22l80-80 66 67-80 80Z"/></svg>