<svg xmlns="http://www.w3.org/2000/svg" width="48" height="48" viewBox="0 96 960 960"><path d="M480 999q-88.202 0-165.101-33T180.5 875.5Q123 818 90 741.101T57 576q0-88 33-165t90.5-134.5Q238 219 314.899 186T480 153q88 0 165 33t134.5 90.5Q837 334 870 411t33 165.411V629q0 65-43.5 104.5T750 773q-39.898 0-73.449-19Q643 735 627 702q-24 37-62.5 54T480 773q-82.34 0-140.17-56.966Q282 659.067 282 575.534 282 493 339.76 435q57.759-58 140-58 83.24 0 140.74 57.5Q678 492 678 576v45.933q0 28.967 21 49.017Q720 691 750 691q29 0 49.5-20.05t20.5-49.017V576q0-143-98.5-241.5t-242-98.5Q338 236 239 335t-99 241q0 143 98.5 241.5T480 916h214v83H480Zm.235-308Q528 691 562 657.471q34-33.53 34-81Q596 528 561.765 493.5q-34.236-34.5-82-34.5Q432 459 398 493.5t-34 82.971q0 47.47 34.235 81 34.236 33.529 82 33.529Z"/></svg>