<svg xmlns="http://www.w3.org/2000/svg" width="48" height="48" viewBox="0 -960 960 960"><path d="M149-135q-39.05 0-66.525-27.475Q55-189.95 55-229v-502q0-39.463 27.475-67.231Q109.95-826 149-826h662q39.463 0 67.231 27.769Q906-770.463 906-731v296h-95v-296H149v502h455v94H149Zm677 85-51.829-111.171L663-213l111.171-52.829L826-376l52.829 110.171L989-213l-110.171 51.829L826-50ZM149-229v-502 502-15 15Zm331-87 50.188-113.812L644-480l-113.812-51.188L480-644l-51.188 112.812L316-480l112.812 50.188L480-316Z"/></svg>