<svg xmlns="http://www.w3.org/2000/svg" width="48" height="48" viewBox="0 -960 960 960"><path d="M358-490v-80h244v80H358Zm40 124v-79h164v79H398Zm26-492h112-112Zm0 755h112-112Zm-62 83-60-212q-57-37-92-102t-35-146q0-81 35-146.5T302-729l60-211h237l59 211q57 37 92.5 102.5T786-480q0 81-35.5 146T658-232L599-20H362Zm268-310q61-61 61-150t-61-150q-61-61-150-61t-150 61q-61 61-61 150t61 150q61 61 150 61t150-61ZM402-772q19-5 38.5-8t39.5-3q20 0 40 3t38 8l-22-86H424l-22 86Zm22 669h112l22-85q-19 4-38.5 7t-39.5 3q-20 0-39.5-3t-38.5-7l22 85Z"/></svg>