<svg xmlns="http://www.w3.org/2000/svg" width="48" height="48" viewBox="0 96 960 960"><path d="M271 1039q-38.775 0-66.388-27.61Q177 983.775 177 945V207q0-38.775 27.612-66.387Q232.225 113 271 113h418q38.775 0 66.387 27.613Q783 168.225 783 207v135h-94v-45H271v558h418v-45h94v135q0 38.775-27.613 66.39Q727.775 1039 689 1039H271Zm0-94h418v-30H271v30Zm455-209q-66 0-113-47t-47-113q0-66 47-113t113-47q66 0 113 47t47 113q0 66-47 113t-113 47Zm0-50q15.771 0 30.886-4Q772 678 784 669L633 518q-8 13-12.5 27.457T616 575q0 46 31.9 78.5T726 686Zm94-52q8-13 12-27.786 4-14.785 4-30.214 0-46.2-31.9-78.1Q772.2 466 726 466q-15.771 0-30.886 4Q680 474 668 482l152 152ZM271 237h418v-30H271v30Zm0 0v-30 30Zm0 708v-30 30Z"/></svg>