<svg xmlns="http://www.w3.org/2000/svg" width="48" height="48" viewBox="0 -960 960 960"><path d="M189-95q-38.78 0-66.39-27.61T95-189v-582q0-39.19 27.61-67.09Q150.22-866 189-866h180q11-35 41-57.5t70-22.5q40 0 70 22.5t41 57.5h180q39.19 0 67.09 27.91Q866-810.19 866-771v582q0 38.78-27.91 66.39Q810.19-95 771-95H189Zm0-94h582v-582H189v582Zm100-100h262v-60H289v60Zm0-161h382v-60H289v60Zm0-161h382v-60H289v60Zm220-192q12-12 12-29t-12-29q-12-12-29-12t-29 12q-12 12-12 29t12 29q12 12 29 12t29-12ZM189-189v-582 582Z"/></svg>