<svg xmlns="http://www.w3.org/2000/svg" width="48" height="48" viewBox="0 -960 960 960"><path d="m484-310 164-164-55-54-74 71v-189h-77v189l-70-71-55 54 167 164ZM189-95q-38.775 0-66.388-27.612Q95-150.225 95-189v-582q0-39.188 27.612-67.094Q150.225-866 189-866h180q11-35 41-57.5t70-22.5q40 0 70 22.5t41 57.5h180q39.188 0 67.094 27.906Q866-810.188 866-771v582q0 38.775-27.906 66.388Q810.188-95 771-95H189Zm0-94h582v-582H189v582Zm291-602q17.467 0 29.233-11.767Q521-814.533 521-832t-11.767-29.233Q497.467-873 480-873t-29.233 11.767Q439-849.467 439-832t11.767 29.233Q462.533-791 480-791ZM189-189v-582 582Z"/></svg>