<svg xmlns="http://www.w3.org/2000/svg" width="48" height="48"><path d="m39 15.15-2.55-5.7-5.65-2.5 5.65-2.6L39-1.25l2.55 5.6 5.6 2.6-5.6 2.5zm0 34.05-2.55-5.65L30.8 41l5.65-2.55L39 32.8l2.55 5.65 5.6 2.55-5.6 2.55zM11.2 30.35l5.5-15.55h1.7l5.55 15.55h-1.9l-1.4-3.9h-6.2l-1.35 3.9zm3.8-5.3h5.15l-2.6-8.2zm2.55 11.5q5.25 0 8.875-3.65T30.05 24q0-5.25-3.625-8.9-3.625-3.65-8.875-3.65t-8.9 3.65Q5 18.75 5 24t3.65 8.9q3.65 3.65 8.9 3.65zm0 4.1q-6.95 0-11.825-4.85Q.85 30.95.85 24q0-6.95 4.875-11.825Q10.6 7.3 17.55 7.3q6.95 0 11.825 4.875Q34.25 17.05 34.25 24q0 6.95-4.875 11.8-4.875 4.85-11.825 4.85z"/></svg>