<svg xmlns="http://www.w3.org/2000/svg" width="48" height="48" viewBox="0 -960 960 960"><path d="M330-884h281v48h232v94h-60v193q-22-13-52-19.5t-55-6.5q-19 0-40.5 3.5t-38.448 8.5v-102H519v136q-28 17-54.5 46.5T423-425v-240h-77v399h41q2 44 23 91t49 80H253q-39.462 0-67.231-27.475Q158-149.95 158-189v-553H98v-94h232v-48Zm340.5 376q91.48 0 155.99 64.217Q891-379.565 891-288.5q0 91.48-64.429 155.49T669.986-69Q579-69 515.5-132.929 452-196.858 452-289.014 452-380 515.718-444q63.717-64 154.782-64ZM643-414v136l92 92 36-36-76-76.204V-414h-52Z"/></svg>