<svg xmlns="http://www.w3.org/2000/svg" width="48" height="48" viewBox="0 96 960 960"><path d="M482 939q-48-37-104.5-61T260 854q-39.61 0-77.805 11Q144 876 109 895q-32 16-62-1.872Q17 875.255 17 841V361q0-21.639 9.5-40.183Q36 302.272 55 293q47-23 98.5-34t104.445-11Q317 248 373.5 262.752 430 277.504 480 310.007V841q51-33 107-51.672 56-18.672 113-18.672 36 0 78.5 8.377t81.5 30.131V274q11.886 4.75 22.943 9.375Q894 288 906 293q19 9 28 27.758T943 361v492q0 31-30 45t-62-3q-35-19-73.195-30Q739.61 854 700 854q-60.349 0-115.174 24Q530 902 482 939Zm58-191V370l260-265v411L540 748Zm-143 52V362q-29-16-67.491-23.5Q291.019 331 260 331q-47 0-87.5 9T100 362.533V808q35-18 75.5-27.5t85-9.5q39.557 0 74.029 7.48Q369 785.96 397 800Zm0 0V361v439Z"/></svg>