<svg xmlns="http://www.w3.org/2000/svg" width="48" height="48" viewBox="0 96 960 960"><path d="M520 1067q-128 0-218-54.5T171 854L78 617q-23-59-14.5-89.5T107 497q46 0 69 29t41 72l34 87h8V244q0-25.74 17.42-43.37T320 183q25 0 42.5 17.63T380 244v321h40V157q0-25.74 17.13-43.37T480 96q25 0 43 17.63T541 157v408h40V203q0-26.16 17.183-43.58 17.183-17.42 43-17.42t43.317 17.42Q702 176.84 702 203v362h40V317q0-26.16 17.5-43.58Q777 256 802.5 256t43 17.42Q863 290.84 863 317v429q0 146-98.675 233.5T520 1067Z"/></svg>