<svg xmlns="http://www.w3.org/2000/svg" width="48" height="48" viewBox="0 -960 960 960"><path d="M128-215q-49 0-83.5-34T10-332v-297q0-49 34.5-83t83.5-34h660q-38 11-69.5 35.5T669-651l-39 96 111 40v206q1 31 9 54t37 40H128Zm664-180q0-24 4-40t9-28q3-9 10.5-21t29.5-30q21-17 27.5-31t6.5-27q0-17-14-31t-34-14q-21 0-39 13t-27 37l-60-24q13-40 47-65.5t77-25.5q51 0 84 32t33 76q0 23-11.5 48T895-474q-16 14-20.5 21t-6.5 12l-9 46h-67Zm37 133q-18 0-32-13.5T783-308q0-18 14-32t32-14q18 0 32 14t14 32q0 19-14 32.5T829-262Z"/></svg>