<svg xmlns="http://www.w3.org/2000/svg" width="48" height="48" viewBox="0 0 48 48"><path d="M9.45 42.55v-4.1h10.4v-4.1h-.75q-4.15-.2-6.9-3.15-2.75-2.95-2.75-7.05 0-3.05 1.7-5.5t4.4-3.65q-.1 1.1.175 2.175.275 1.075.925 1.875-1.45.65-2.275 2.05t-.825 3.05q0 2.55 1.775 4.325Q17.1 30.25 19.65 30.25h17.9v4.1h-11.6v4.1h12.6v4.1ZM28.9 24.9l-.8-1.85-2.6 1.05-1.35-3.6q1.35-.6 2.15-1.9.8-1.3.8-2.85 0-2.75-2.075-4.425Q22.95 9.65 20.35 10.2l-1.2-3.1 2.6-1-.7-1.85L25.5 2.7l.75 1.85 2.45-.9 6.45 16.9-2.65.95.7 1.85Zm-7.6-6.45q-1.15 0-1.925-.775-.775-.775-.775-1.925t.775-1.95q.775-.8 1.925-.8t1.95.8q.8.8.8 1.95t-.8 1.925q-.8.775-1.95.775Z"/></svg>