<svg xmlns="http://www.w3.org/2000/svg" width="48" height="48" viewBox="0 96 960 960"><path d="M137 984q-55.5 0-93.25-37.917Q6 908.167 6 854V298q0-54.167 37.75-92.083Q81.5 168 137 168h343q54.583 0 92.792 37.917Q611 243.833 611 298v304h58q35.475 0 60.737 25.263Q755 652.525 755 688v143q0 11.4 7 18.7 7 7.3 18 7.3 10.6 0 18.3-7.3 7.7-7.3 7.7-18.7V506q-37-3-63.5-26.5T716 419.863V301h40v-89h61v89h60v-89h61v89h40v118.863Q978 456 951 479.5T888 506v320.832q0 44.968-31.641 76.568-31.641 31.6-77 31.6T702.5 903.68Q671 872.36 671 827V681h-60v211q0-74.388-51.078-125.194T436 716H248q-46.3 0-77.65 31.451-31.35 31.45-31.35 77Q139 870 170.35 901.5 201.7 933 248 933h188q17.425 0 29.212-11.979Q477 909.042 477 891.333 477 874 465.212 862 453.425 850 436 850H248.043q-10.643 0-18.343-7.571-7.7-7.572-7.7-18 0-10.429 7.7-17.929 7.7-7.5 18.343-7.5H436q38 0 65 27t27 66q0 39-27 65.5T436 984H137Z"/></svg>