<svg xmlns="http://www.w3.org/2000/svg" width="48" height="48" viewBox="0 -960 960 960"><path d="M189-630h582v-121H189v121Zm0 0v-121 121Zm0 575q-39.05 0-66.53-27.47Q95-109.95 95-149v-602q0-39.46 27.47-67.23Q149.95-846 189-846h56v-60h82v60h306v-60h82v60h56q39.46 0 67.23 27.77Q866-790.46 866-751v304q-22.17-12.29-45.58-19.14Q797-473 771-475.07V-570H189v421h321q7 27 22 51t35 43H189Zm422-40.5Q556-151 556-229t55-133.5Q666-418 744.5-418t134 55.5Q934-307 934-229T878.5-95.5Q823-40 744.5-40T611-95.5ZM803.24-121 838-157l-76-76.2V-349h-51v133.72L803.24-121Z"/></svg>