<svg xmlns="http://www.w3.org/2000/svg" width="48" height="48" viewBox="0 -960 960 960"><path d="m134-285-93-93q-16-16-16-42t16-43q87-93 195.5-140.5T480-651q135 0 244.5 47T920-463q15 17 15 43t-15 42l-94 93q-11 12-35 12.5T751-284l-104-77q-10-6.5-14.5-16.5T628-399v-146.19Q590-559 553.705-564q-36.295-5-73.705-5t-73.705 5Q370-559 332-545.19V-399q0 11.5-4.5 21.5T314-361l-105.188 77.278Q193-272 169.812-271.923 146.625-271.846 134-285Zm110-228q-35 18-67.151 41.929Q144.699-447.143 117-420l55.429 56L244-416v-97Zm467-4v95l77 57 55-57q-28-30-61.5-52.5T711-517Zm-467 4Zm467-4Z"/></svg>