<svg xmlns="http://www.w3.org/2000/svg" width="48" height="48" viewBox="0 -960 960 960"><path d="m382-26-52-51 52-51H175v-71h209l-54-54 52-50 139 138L382-26ZM175-283v-548q0-39.463 27.475-67.231Q229.95-926 269-926h422q39.463 0 67.231 27.769Q786-870.463 786-831v548h-95v-68q-43-23-94.422-35.5-51.423-12.5-116.5-12.5Q415-399 364-386.5T269-351v69l2-1h-96Zm94-160q49-20 102.511-30.5Q425.023-484 480.015-484q53.985 0 107.73 10.5Q641.49-463 691-443v-388H269v388Zm305 315v-71h212v71H574Zm-94.235-414Q433-542 400.5-574.735q-32.5-32.736-32.5-79.5Q368-701 400.735-733.5q32.736-32.5 79.5-32.5Q527-766 559.5-733.265q32.5 32.736 32.5 79.5Q592-607 559.265-574.5q-32.736 32.5-79.5 32.5Zm.27-66q19.565 0 32.765-13.205T526-653.93q0-19.095-13.235-33.083Q499.53-701 479.965-701q-19.565 0-32.765 13.912-13.2 13.913-13.2 33.5Q434-634 447.235-621t32.8 13ZM480-399Zm0-255Z"/></svg>