<svg xmlns="http://www.w3.org/2000/svg" width="48" height="48"><path d="M22.45 16.1h21.3q-1.95-4.65-5.65-7.975Q34.4 4.8 29.65 3.5zm-6 5.4 10.7-18.55q-.6-.1-1.5-.175-.9-.075-1.8-.075-4.05 0-7.875 1.625T9.1 8.9zM3.4 29.35h14.7L7.45 10.75q-2.3 2.75-3.5 6.15-1.2 3.4-1.2 7.2 0 1.35.15 2.675.15 1.325.5 2.575zm14.85 15.1 7.25-12.6H4.25q2 4.65 5.625 7.925Q13.5 43.05 18.25 44.45zm6.15.8q3.9 0 7.675-1.575T38.85 39.2L31.5 26.55l-10.7 18.5q.65.1 1.6.15.95.05 2 .05zm16.2-8.05q2.35-2.85 3.525-6.2 1.175-3.35 1.175-7 0-1.3-.175-2.65Q44.95 20 44.6 18.6H29.85z"/></svg>