<svg xmlns="http://www.w3.org/2000/svg" width="48" height="48" viewBox="0 -960 960 960"><path d="M371-174h218l-19.71-81H391l-20 81Zm-13.15-161h244.57Q695-335 760-400.57q65-65.56 65-159.5 0-93.93-65.33-159.43Q694.33-785 602.15-785H357.58Q265-785 200-719.43q-65 65.56-65 159.5 0 93.93 65.33 159.43Q265.67-335 357.85-335ZM423-503q-23-23-23-57t23-57.5q23-23.5 57-23.5t57.5 23.5Q561-594 561-560t-23.5 57Q514-480 480-480t-57-23ZM258.19-603Q274-603 286-615.19q12-12.2 12-28 0-16.81-12.19-28.31-12.2-11.5-28-11.5-16.81 0-28.31 11.69-11.5 11.7-11.5 28.5Q218-627 229.69-615q11.7 12 28.5 12ZM135-95v-79h155l21-86q-109-17-182.5-101.19Q55-445.37 55-560q0-126.79 88.49-215.89Q231.97-865 359-865h243q125.95 0 214.48 89.11Q905-686.79 905-560q0 114.63-73.5 198.81Q758-277 649-260l22 86h155v79H135Zm458-352q47-47 47-113t-47-113q-47-47-113-47t-113 47q-47 47-47 113t47 113q47 47 113 47t113-47ZM480-560ZM371-174h218-218Z"/></svg>