<svg xmlns="http://www.w3.org/2000/svg" width="48" height="48" viewBox="0 96 960 960"><path d="M729.187 516Q650 516 594 460.489q-56-55.51-56-135.978Q538 246 594 190t134.503-56Q809 134 864.5 190 920 246 920 325.5t-55.813 135q-55.812 55.5-135 55.5ZM708 346h47V203h-47v143ZM150 921q-22.75 0-38.875-16.125T95 866V536.714L181 278q7-22 25.32-35T248 230h222q-9 23.169-13.535 47.306-4.535 24.137-3.535 47.694H265l-51 157h287q11.915 17.159 25.994 32.079Q541.073 529 557 542H189v201h582V599q26-3 49.915-11.286Q844.831 579.429 866 565v301q0 22.75-16.825 38.875T810 921h2q-23 0-38.5-15.237Q758 890.525 758 868v-31H202v31q0 22.525-16.125 37.763Q169.75 921 147 921h3Zm581.5-469q13.5 0 22.5-8.5t9-22q0-13.5-9.1-22.5t-21.9-9q-15 1-23 9.3t-8 22.2q0 13.5 8.5 22t22 8.5ZM290.765 697Q313 697 329 681.25T345 643q0-23.333-16.25-39.667Q312.5 587 291 587q-24.333 0-40.167 16.265Q235 619.529 235 642.765 235 666 250.765 681.5q15.764 15.5 40 15.5ZM671 697q23.333 0 39.667-15.75Q727 665.5 727 643q0-12-6-23.5T705 601q-13-1-26.689-3.5T652 591q-16 4.8-25.5 19.537Q617 625.275 617 643q0 22.5 15.75 38.25T671 697Zm-482 46V542v201Z"/></svg>