<svg xmlns="http://www.w3.org/2000/svg" width="48" height="48" viewBox="0 -960 960 960"><path d="M835-377v-207h115v207H835Zm-40 70H424.476q-14.843 0-29.66 4.5Q380-298 354.609-287q-39.609 17-68.6 23.5-28.991 6.5-62.245 6.5-83.673 0-148.719-49.467Q10-355.933 10-420v-120q0-64.357 65.27-114.179Q140.54-704 224.001-704q33.17 0 62.084 7 28.915 7 68.524 24 25.391 11 40.207 15 14.817 4 29.184 4h371v347Zm-571-37q21.233 0 42.865-5.5 21.631-5.5 52.864-18.5 32.271-14 56.484-20t47.417-6H708v-173H423.563q-23.211 0-47.387-5.5Q352-578 320-592q-32-13-53.469-19T224-617q-49 0-88 23.706t-39 53.476V-503h24.143Q130-503 137-496t7 16q0 9-7 15.5t-15.857 6.5H97v37.396q0 29.582 39 53.093Q175-344 224-344ZM99-480Z"/></svg>