<svg xmlns="http://www.w3.org/2000/svg" width="48" height="48" viewBox="0 0 48 48"><path d="M41.85 29.55v-11.1h6.65v11.1ZM10.6 35.7q-4.2 0-7.65-2.5T-.5 27.35v-6.7q0-3.35 3.45-5.85 3.45-2.5 7.65-2.5 2.35 0 4.025.55Q16.3 13.4 17.65 14q1.05.45 2.05.775 1 .325 2.15.325H39.6v17.8H21.8q-1.1 0-2.1.325T17.65 34q-1.35.6-3 1.15-1.65.55-4.05.55Zm0-4.45q1.65 0 2.925-.425t2.375-.875q1.35-.6 2.75-1.05 1.4-.45 3.15-.45h13.35v-8.9H21.8q-1.75 0-3.15-.45t-2.75-1.05q-1.1-.45-2.375-.875T10.6 16.75q-2.5 0-4.575 1.175T3.95 20.65v2.25h1.1q.45 0 .775.325T6.15 24q0 .45-.325.775t-.775.325h-1.1v2.25q0 1.55 2.075 2.725T10.6 31.25ZM3.95 24Z"/></svg>