<svg xmlns="http://www.w3.org/2000/svg" width="48" height="48" viewBox="0 96 960 960"><path d="M837 687V465h133v222H837ZM212.375 810Q128 810 59 759.982t-69-116.709V509.091Q-10 442 59 392t152.932-50q47.434 0 80.751 11Q326 364 353 376q21 9 41.16 15.5 20.16 6.5 42.376 6.5H792v356H436.235Q414 754 394 760.5T353 776q-27 12-60.188 23-33.187 11-80.437 11Zm-.207-89q32.535 0 58.183-8.5Q296 704 317.778 695.158 345 683 372.816 674q27.816-9 63.548-9H703V487H436.365q-35.733 0-63.549-9-27.816-9-55.038-21.158Q296 448 270.516 439.5q-25.485-8.5-58.331-8.5-50.31 0-91.747 23.536Q79 478.073 79 509.455V554h21.571q9.429 0 15.929 6.5T123 576q0 9-6.5 15.5t-15.929 6.5H79v44.706Q79 674 120.615 697.5 162.23 721 212.168 721ZM79 576Z"/></svg>