<svg xmlns="http://www.w3.org/2000/svg" width="48" height="48" viewBox="0 -960 960 960"><path d="M85-132q-51-51-51-124.5t51-124Q136-431 209-431t124.5 50.5Q385-330 385-256.5T333.5-132Q282-81 209-81T85-132Zm543 0q-51-51-51-124.5t51-124Q679-431 752-431t124 50.5q51 50.5 51 124T876-132q-51 51-124 51t-124-51Zm-419-44q34 0 57.5-22.88T290-256.5q0-33.5-23.3-57-23.29-23.5-57.5-23.5-34.2 0-57.2 23.5t-23 57.04q0 33.53 23.06 57Q175.13-176 209-176Zm543 0q34 0 57-23.46 23-23.47 23-57 0-33.54-22.83-57.04T752.13-337q-34.2 0-57.67 23.68Q671-289.64 671-256.5q0 34.5 23.5 57.5t57.5 23ZM431.5-373Q411-393 411-422.5t20.5-50Q452-493 481-493t49.5 20.5q20.5 20.5 20.5 50T530.5-373Q510-353 481-353t-49.5-20ZM357-615q-51-51-51-124t51-124.5Q408-915 481-915t124.5 51.5Q657-812 657-739t-51.5 124Q554-564 481-564t-124-51Zm181.5-67.06Q562-705.13 562-739q0-34-23.5-57.5T481-820q-34 0-57.5 23.5T400-739q0 34 23.3 57 23.29 23 57.5 23 34.2 0 57.7-23.06ZM481-740ZM210-257Zm542 0Z"/></svg>