<svg xmlns="http://www.w3.org/2000/svg" width="48" height="48"><path d="M24 36.8q1.05 0 1.8-.725t.8-1.825h-5.25q.05 1.1.825 1.825.775.725 1.825.725zm-9.5-5.55h18.95v-2.6h-2V22.7q0-3-1.55-5.475-1.55-2.475-4.45-3.025v-1.6q0-.6-.425-1.025Q24.6 11.15 24 11.15q-.65 0-1.075.425Q22.5 12 22.5 12.6v1.6q-2.85.55-4.425 2.925Q16.5 19.5 16.5 22.4v6.25h-2zm4.8-2.6V22q0-2 1.35-3.45Q22 17.1 24 17.1q1.95 0 3.3 1.45Q28.65 20 28.65 22v6.65zm4.7 16.6q-4.4 0-8.275-1.65T8.95 39.05q-2.9-2.9-4.55-6.75T2.75 24q0-4.45 1.65-8.325 1.65-3.875 4.55-6.75t6.75-4.55Q19.55 2.7 24 2.7q4.45 0 8.325 1.675 3.875 1.675 6.75 4.55t4.55 6.75Q45.3 19.55 45.3 24q0 4.45-1.675 8.3-1.675 3.85-4.55 6.725-2.875 2.875-6.75 4.55Q28.45 45.25 24 45.25zm.05-4.7q6.85 0 11.675-4.825Q40.55 30.9 40.55 23.95q0-6.85-4.825-11.675Q30.9 7.45 24 7.45q-6.9 0-11.725 4.825Q7.45 17.1 7.45 24q0 6.9 4.825 11.725Q17.1 40.55 24.05 40.55zM24 24z"/></svg>