<svg xmlns="http://www.w3.org/2000/svg" width="48" height="48"><path d="M15.85 29.95h3.35q1.45 0 2.4-.95t.95-2.4v-.55H19.5v1.1h-3.95v-6.3h3.95v1.1h3.05v-.55q0-1.45-.95-2.4t-2.4-.95h-3.35q-1.45 0-2.425.95-.975.95-.975 2.4v5.2q0 1.45.975 2.4t2.425.95zm13 0h3.35q1.45 0 2.425-.95.975-.95.975-2.4v-.55h-3.1v1.1h-3.95v-6.3h3.95v1.1h3.1v-.55q0-1.45-.975-2.4t-2.425-.95h-3.35q-1.45 0-2.4.95t-.95 2.4v5.2q0 1.45.95 2.4t2.4.95zM9.45 6.7h29.1q1.95 0 3.35 1.4 1.4 1.4 1.4 3.35v25.1q0 1.95-1.4 3.325-1.4 1.375-3.35 1.375H9.45q-1.95 0-3.325-1.375Q4.75 38.5 4.75 36.55v-25.1q0-1.95 1.375-3.35Q7.5 6.7 9.45 6.7zm0 4.75v25.1h29.1v-25.1H9.45zm0 25.1v-25.1 25.1z"/></svg>