<svg xmlns="http://www.w3.org/2000/svg" width="48" height="48"><path d="m42.25 46.75-5.5-5.5H9.45q-1.95 0-3.325-1.375Q4.75 38.5 4.75 36.55v-25.1q0-.5.075-.975T5.1 9.55l-4-3.95 2.55-2.55L44.8 44.2zm1.05-9.15-9.25-9.15q.65-.1 1.1-.6.45-.5.45-1.25v-.55h-1.75v.55h-1.7l-3.4-3.45v-2.3h3.75v1.1h3.1v-.55q0-1.45-.975-2.4t-2.425-.95h-3.35q-1 0-1.675.525T26.25 20v.65L12.35 6.7h26.2q1.9 0 3.325 1.425Q43.3 9.55 43.3 11.45zm-27.45-7.65h3.35q1.15 0 2.05-.7.9-.7 1.1-1.85v-.55l-.75-.8h-2.1v1.1h-3.95V21.8h1.75l-3.1-3.1q-.75.35-1.25 1.05-.5.7-.5 1.65v5.2q0 1.45.975 2.4t2.425.95z"/></svg>