<svg xmlns="http://www.w3.org/2000/svg" width="48" height="48" viewBox="0 -960 960 960"><path d="M340.5-764.92q-24.5-24.92-24.5-59.5T340.42-884q24.42-25 59.5-25t59.58 24.92q24.5 24.92 24.5 59.5T459.58-765q-24.42 25-59.5 25t-59.58-24.92ZM742-253.86q27-26.86 27-66T742.14-386q-26.86-27-66-27T610-386.14q-27 26.86-27 66T609.86-254q26.86 27 66 27T742-253.86ZM880-49 770-159q-22 13-45.32 19.5Q701.35-133 676-133q-78.83 0-132.92-54.12Q489-241.24 489-319.62t54.12-132.88q54.12-54.5 132.5-54.5t132.88 54.58Q863-397.83 863-320q0 26.35-6.5 49.18Q850-248 837-226l110 110-67 67ZM438-72v-170q13 35 33.5 63.5T521-129v57h-83Zm-158 0v-528q-64.03-4.58-126.02-12.79Q92-621 30-637l21-80q86.27 21 173.04 29.5 86.78 8.5 176.09 8.5 89.32 0 177.09-8.5Q665-696 751-717l20 80q-62 15-124.48 23.71Q584.03-604.58 521-600v89q-42 33-66.5 81.5T429-325q0-4-.5-7.5t-.5-7.5h-66v268h-82Z"/></svg>