<svg xmlns="http://www.w3.org/2000/svg" width="48" height="48" viewBox="0 -960 960 960"><path d="M675-479h55v-70l60 35 28-47-60-35 60-35-28-48-60 35v-70h-55v70l-59-35-28 48 60 35-60 35 28 47 59-35v70ZM95-109q-39.46 0-67.23-27.48Q0-163.95 0-203v-554q0-39.05 27.77-66.53Q55.54-851 95-851h771q38 0 66 27.47 28 27.48 28 66.53v554q0 39.05-28 66.52Q904-109 866-109H95Zm519-82h263v-578H83v578h7q44-68 112.5-108.5T352-340q82 0 150 40.5T614-191ZM439.08-442.5Q475-479 475-531.5t-35.88-89q-35.88-36.5-89-36.5t-89.62 36.5Q224-584 224-531.5t36.42 89Q296.83-406 350-406t89.08-36.5ZM195-191h310q-33.08-30.8-72.5-48.9-39.42-18.1-82.46-18.1Q307-258 267-240.5 227-223 195-191Zm115.98-301.5Q295-508 295-531.61q0-23.62 15.98-39 15.98-15.39 39-15.39t38.52 15.39q15.5 15.38 15.5 39 0 23.61-15.5 39.11T349.98-477q-23.02 0-39-15.5ZM480-480Z"/></svg>