<svg xmlns="http://www.w3.org/2000/svg" width="48" height="48" viewBox="0 -960 960 960"><path d="M121-17v-60h718v60H121Zm0-866v-60h718v60H121Zm358.882 450Q533-433 568.5-467.882q35.5-34.883 35.5-88Q604-609 568.618-644.5q-35.383-35.5-88.5-35.5Q427-680 391.5-644.618q-35.5 35.383-35.5 88.5Q356-503 391.382-468q35.383 35 88.5 35ZM143-137q-39.05 0-66.525-27.475Q49-191.95 49-231v-498q0-41.05 27.475-67.525Q103.95-823 143-823h674q39.05 0 66.525 27.475Q911-768.05 911-729v498q0 39.05-27.475 66.525Q856.05-137 817-137H143Zm66-83h542q-44-65-119.5-101T480-357q-77 0-151 36T209-220Z"/></svg>