<svg xmlns="http://www.w3.org/2000/svg" width="48" height="48" viewBox="0 96 960 960"><path d="M675 577h55v-70l60 35 28-47-60-35 60-35-28-48-60 35v-70h-55v70l-59-35-28 48 60 35-60 35 28 47 59-35v70ZM95 947q-39.462 0-67.231-27.475Q0 892.05 0 853V299q0-39.05 27.769-66.525Q55.538 205 95 205h771q38 0 66 27.475T960 299v554q0 39.05-28 66.525Q904 947 866 947H95Zm519-82h263V287H83v578h7q44-68 112.5-108.5T352 716q82 0 150 40.5T614 865ZM350 650q53.167 0 89.083-36.5Q475 577 475 524.5t-35.882-89q-35.883-36.5-89-36.5Q297 399 260.5 435.417 224 471.833 224 525q0 52 36.417 88.5Q296.833 650 350 650ZM195 865h310q-32.685-31.075-72.301-49.037Q393.082 798 350.041 798 307 798 267 815.5T195 865Zm155-286q-22.525 0-38.763-15.95Q295 547.1 295 524.5q0-23.025 16.232-38.763Q327.465 470 349.982 470q22.518 0 38.268 15.807Q404 501.615 404 524.982q0 22.518-15.95 38.268T350 579Zm130-3Z"/></svg>