<svg xmlns="http://www.w3.org/2000/svg" width="48" height="48" viewBox="0 -960 960 960"><path d="M95-234v-95h94v95H95Zm0-180v-95h94v95H95Zm0-180v-94h94v94H95ZM274-55v-94h95v94h-95Zm95-179q-39.462 0-67.231-27.769Q274-289.538 274-329v-482q0-39.463 27.769-67.231Q329.538-906 369-906h362q39.463 0 67.231 27.769Q826-850.463 826-811v482q0 39.462-27.769 67.231Q770.463-234 731-234H369Zm0-95h362v-482H369v482Zm85 274v-94h94v94h-94Zm-265 0q-39.8 0-66.9-27.1Q95-109.2 95-149h94v94Zm444 0v-94h95q0 40-27.394 67Q673.213-55 633-55ZM95-773q0-40.213 27.1-67.606Q149.2-868 189-868v95H95Zm455 203Z"/></svg>