<svg xmlns="http://www.w3.org/2000/svg" width="48" height="48" viewBox="0 -960 960 960"><path d="M480-149q17 0 33.5-1.5T547-158v-161H413v161q17 6 33.5 7.5T480-149Zm0 94q-79 0-158.5-32T178-179l68-67q16.227 15.294 34.477 28.039Q298.727-205.216 319-194v-125h-91q-39.05 0-66.525-27.769Q134-374.538 134-414v-245q0-77.287 54.356-132.144Q242.712-846 320-846h180v200h232q39.05 0 66.525 27.769Q826-590.463 826-551v137q0 39.462-27.475 67.231Q771.05-319 732-319h-91v125q20-11 38.344-23.812Q697.688-230.625 714-246l68 67q-64 60-143.5 92T480-55Z"/></svg>