<svg xmlns="http://www.w3.org/2000/svg" width="48" height="48" viewBox="0 96 960 960"><path d="M414 702q-18.4 0-29.2-10.8T374 662v-46h60v26h92v-47H414.291q-17.691 0-28.991-11.3T374 554.638v-64.276q0-18.762 10.8-29.562T414 450h132q18.4 0 29.2 10.8T586 490v46h-60v-26h-92v47h111.709q17.691 0 28.991 11.3t11.3 29.062v64.276q0 18.762-10.8 29.562T546 702H414Zm260 0q-18.4 0-29.2-10.8T634 662v-46h60v26h92v-47H674.291q-17.691 0-28.991-11.3T634 554.638v-64.276q0-18.762 10.8-29.562T674 450h132q18.4 0 29.2 10.8T846 490v46h-60v-26h-92v47h111.709q17.691 0 28.991 11.3t11.3 29.062v64.276q0 18.762-10.8 29.562T806 702H674Zm-520 0q-18.4 0-29.2-10.8T114 662V490q0-18.4 10.8-29.2T154 450h132q18.4 0 29.2 10.8T326 490v52h-60v-32h-92v132h92v-32h60v51.719Q326 680 315.2 691T286 702H154Z"/></svg>