<svg xmlns="http://www.w3.org/2000/svg" width="48" height="48" viewBox="0 96 960 960"><path d="M345 961v-90H215v-94h90V375h-90v-95h130v-90h94v90h92v-90h95v98q58.133 16.293 90.567 62.646Q749 397 749 452.341q0 25.659-9.5 54.159T712 557q38 23 57.5 61.5T789 700q0 66.938-43.5 115.969Q702 865 636 870h-10v91h-95v-90h-92v90h-94Zm54-432h179q32.575 0 54.787-22.681Q655 483.638 655 452q0-31.987-22.181-54.494Q610.638 375 578 375H399v154Zm0 248h219q32.575 0 54.787-23.009 22.213-23.009 22.213-54Q695 668 672.819 645.5T618 623H399v154Z"/></svg>