<svg xmlns="http://www.w3.org/2000/svg" width="48" height="48" viewBox="0 -960 960 960"><path d="M775-103 478-399 370-291q9 16 11 30t2 31q0 67.175-44.376 111.588Q294.248-74 227.124-74T116-118.376q-44-44.376-44-111.5T115.912-341.5Q159.825-386 227-386q16.333 0 32.167 4.5Q275-377 292-369l107-107-109-109q-16 6-31.5 8.5T227-574q-67.175 0-111.088-44.376Q72-662.752 72-729.876T115.876-841.5q43.876-44.5 111-44.5T338.5-841.588Q383-797.175 383-730q0 17-1.5 32t-8.5 29l516 516v50H775ZM613-527l-83-82 245-244h115v48L613-527ZM227.212-646Q262-646 287-670.712q25-24.713 25-59.5Q312-765 287.08-789.5q-24.921-24.5-60-24.5-35.08 0-59.58 24.712-24.5 24.713-24.5 59.5Q143-695 167.712-670.5q24.713 24.5 59.5 24.5ZM480-440q15 0 25.5-10.5T516-476q0-15-10.5-25.5T480-512q-15 0-25.5 10.5T444-476q0 15 10.5 25.5T480-440ZM227.212-146Q262-146 287-170.712q25-24.713 25-59.5Q312-265 287.08-289.5q-24.921-24.5-60-24.5-35.08 0-59.58 24.712-24.5 24.713-24.5 59.5Q143-195 167.712-170.5q24.713 24.5 59.5 24.5Z"/></svg>