<svg xmlns="http://www.w3.org/2000/svg" width="48" height="48" viewBox="0 -960 960 960"><path d="M480.454-95Q318-95 206.5-148.5T95-280v-400q0-76.7 112.5-131.35Q320-866 479.78-866q158.78 0 272.5 54.65T866-680v400q0 78-112.046 131.5T480.454-95Zm-.46-514q85.333 0 174.17-26Q743-661 772-694q-30-32-119.997-58.5T479.506-779Q394-779 305.5-753T188-694q29 35 115.827 60t176.167 25ZM479-396q41 0 81.632-5 40.632-5 78.297-14.5t73.368-23.5Q748-453 779-470v-122q-31 16-66.5 29T639-541.5q-38 8.5-78 13t-82.357 4.5q-40.358 0-81.198-4.5-40.841-4.5-79.143-13.5T245-563.5Q210-576 182-592v122q27 17 62 30.5t73.5 23.5q38.5 10 79.656 15 41.155 5 81.844 5Zm1 214q46 1 95-7t91.5-21.5q42.5-13.5 73-31T779-277v-103q-30 17-64.5 30.5T641.314-327q-38.686 9-79.39 13.5T479-309q-41.689 0-82.844-5Q355-319 317-328q-38-9-72.5-22.5T182-380v103.947Q190-259 220-242q30 17 72.5 30.5T384-190q49 8 96 8Z"/></svg>