<svg xmlns="http://www.w3.org/2000/svg" width="48" height="48" viewBox="0 96 960 960"><path d="M481 1001q-87.886 0-164.943-33Q239 935 181 877q-58-58-91.5-135.057Q56 664.886 56 577q0-167.76 114-289.38T452 153v137q-111 9-185.5 91.5T192 577.332q0 119.847 84.446 203.757Q360.892 865 480.791 865 551 865 613 833t105-89l118 70q-61 90-154.277 138.5Q588.446 1001 481 1001Zm384-241-118-68q11-29 17-58.513 6-29.513 6-57.487 0-113-73.5-195.5T512 289V152q168 11 281.5 132.62T907 572q0 47.742-11 94.871T865 760Z"/></svg>