<svg xmlns="http://www.w3.org/2000/svg" width="48" height="48" viewBox="0 -960 960 960"><path d="m800-627 32-33-77-77.989V-863h-47v139l92 97ZM251.059-288Q273-288 289.5-304.059q16.5-16.059 16.5-39Q306-365 289.441-381.5q-16.559-16.5-39-16.5T212-381.441q-16 16.559-16 39T212.059-304q16.059 16 39 16Zm299 0Q572-288 588.5-304.059q16.5-16.059 16.5-39Q605-365 588.441-381.5q-16.559-16.5-39-16.5T511-381.441q-16 16.559-16 39T511.059-304q16.059 16 39 16ZM169-67q-23 0-40.5-12.763Q111-92.525 111-114v-82q-29-16-42.5-46T55-306v-413q0-54.363 29.5-89.181Q114-843 173-862t149-23.5q90-4.5 210 4.5-19 20-30.5 43.5T485-787q-151-10-239 4.5T140-735h341q0 15 1.75 30t5.25 30H149v173h506.433q7.567 7 35.067 14t55.5 0v182q0 34-14 64t-42 46v78q0 22-18.2 36.5T631-67h4q-24.45 0-41.725-12.763Q576-92.525 576-114v-35H224v35q0 21.475-17.275 34.237Q189.45-67 165-67h4Zm400-375H149h502-82Zm160.894-103Q651-545 595.5-600.106t-55.5-135Q540-814 595.606-869.5t134.5-55.5Q809-925 864.5-869.394t55.5 134.5Q920-655 864.394-600t-134.5 55ZM231-243h338q35 0 58.5-27t23.5-62v-110H149v110q0 35 23.5 62t58.5 27Zm250-492H140h341Z"/></svg>