<svg xmlns="http://www.w3.org/2000/svg" width="48" height="48" viewBox="0 -960 960 960"><path d="M55-688v-123q0-39.463 27.475-67.231Q109.95-906 149-906h123v95H149v123H55ZM272-55H149q-39.05 0-66.525-27.475Q55-109.95 55-149v-123h94v123h123v94Zm416 0v-94h123v-123h95v123q0 39.05-27.769 66.525Q850.463-55 811-55H688Zm123-633v-123H688v-95h123q39.463 0 67.231 27.769Q906-850.463 906-811v123h-95Zm-273.381 83Q502-605 477.5-630.081q-24.5-25.08-24.5-60.3Q453-726 477.62-750.5q24.621-24.5 59.84-24.5 35.62 0 60.08 24.539T622-690.08q0 35.43-24.38 60.255Q573.239-605 537.619-605ZM509-237H342l42-216-80 39v130h-83v-187.328L399-542q34.485-14 48.796-18.5 14.31-4.5 27.604-4.5 23.6 0 41.6 11t30 30l44 67q26 40 63.5 68.5T755-360v84q-69 0-116-28t-93-85l-37 152Z"/></svg>