<svg xmlns="http://www.w3.org/2000/svg" width="48" height="48" viewBox="0 96 960 960"><path d="M476.056 961Q315 961 203.795 848.573 92.591 736.147 94 575h94q1.152 121.3 84.005 206.65Q354.859 867 476 867q122 0 208-86.321t86-209.5Q770 451 683.627 368T476 285q-60 0-113.5 24.5T268 376h84v73H123V222h71v95q55-59 127.5-93T476 190q80 0 150.5 30.5t123.74 82.511q53.241 52.011 83.5 121.5Q864 494 864 574t-30.26 150.489q-30.259 70.489-83.5 123Q697 900 626.5 930.5 556 961 476.056 961ZM600 745 446 593V373h71v189l135 131-52 52Z"/></svg>