<svg xmlns="http://www.w3.org/2000/svg" width="48" height="48" viewBox="0 -960 960 960"><path d="M188-289q-39.46 0-67.23-27.77Q93-344.54 93-384v-347q0-39.46 27.77-67.23Q148.54-826 188-826h584q39.05 0 66.53 27.77Q866-770.46 866-731H618.21Q564-731 526-692.09q-38 38.9-38 92.09v311H188Zm430 154q-29.17 0-49.58-20.63Q548-176.25 548-205v-395q0-28.83 20.63-49.92Q589.25-671 618-671h216q29.25 0 50.63 20.87Q906-629.25 906-600v395q0 29.17-21.17 49.58Q863.67-135 834-135H618Zm-563 0v-94h433v94H55Zm671-342q15.03 0 26.02-11.21Q763-499.42 763-514.7q0-15.77-11.2-26.53Q740.6-552 726-552q-15 0-26 10.77-11 10.76-11 26.53 0 15.28 11 26.49Q711-477 726-477Z"/></svg>