<svg xmlns="http://www.w3.org/2000/svg" width="48" height="48"><path d="M2.85 10.85v-10h10V5H7v5.85zm38.15 0V5h-5.85V.85h10v10zM2.85 47.15v-10H7V43h5.85v4.15zm32.3 0V43H41v-5.85h4.15v10zm-21-11.3h19.7v-23.7h-19.7zm0 4.7q-1.85 0-3.275-1.425Q9.45 37.7 9.45 35.85v-23.7q0-1.85 1.425-3.275Q12.3 7.45 14.15 7.45h19.7q1.85 0 3.275 1.425Q38.55 10.3 38.55 12.15v23.7q0 1.85-1.425 3.275Q35.7 40.55 33.85 40.55zM18.3 19.7h11.45v-3.45H18.3zm0 6h11.45v-3.45H18.3zm0 6h11.45v-3.45H18.3zm-4.15 4.15v-23.7 23.7z"/></svg>