<svg xmlns="http://www.w3.org/2000/svg" width="48" height="48" viewBox="0 -960 960 960"><path d="M260-46q-39.03 0-66.51-27.49Q166-100.97 166-140v-680q0-39.44 27.49-67.22Q220.97-915 260-915h440q39.44 0 67.22 27.78T795-820v680q0 39.03-27.78 66.51Q739.44-46 700-46H260Zm242-381q8-8 8-22h-60q0 14 8 22t22 8q14 0 22-8Zm-182-52h320v-52h-50v-81q0-45-19.5-75.5T509-730.32v-11.31q0-12.37-8.5-20.37-8.5-8-20.5-8t-20.5 8q-8.5 8-8.5 20.34v11.29Q409-715 389.5-686T370-612v81h-50v52Zm159.87 290q38.13 0 64.63-26.37 26.5-26.36 26.5-64.5 0-38.13-26.37-64.63-26.36-26.5-64.5-26.5-38.13 0-64.63 26.37-26.5 26.36-26.5 64.5 0 38.13 26.37 64.63 26.36 26.5 64.5 26.5Zm-.08-52q-15.41 0-27.1-11.9Q441-264.8 441-280.21q0-16.42 11.9-27.6Q464.8-319 480.21-319q16.42 0 27.6 11.4Q519-296.2 519-279.79q0 15.41-11.4 27.1Q496.2-241 479.79-241Z"/></svg>