<svg xmlns="http://www.w3.org/2000/svg" width="48" height="48" viewBox="0 96 960 960"><path d="M353 696V289v574-167Zm-95 47h95v120h254V289H353v360h-95V289q0-40.213 27.394-67.606Q312.788 194 353 194h254q40.213 0 67.606 27.394Q702 248.787 702 289v574q0 40.213-27.394 67.606Q647.213 958 607 958H353q-40.212 0-67.606-27.394Q258 903.213 258 863V743Zm222.5-240q19.5 0 33-14t13.5-33.5q0-19.5-13.625-33T480 409q-19 0-33 13.625T433 456q0 19 14 33t33.5 14ZM819 463q-19 0-33-14t-14-33V256q0-19.75 14-33.375T819.5 209q19.5 0 33 13.625T866 256v160q0 19-13.625 33T819 463ZM190 743q-19 0-33-14t-14-33.5q0-19.5 14-33t33-13.5h290q19.75 0 33.375 13.625T527 696q0 19-13.625 33T480 743H190Z"/></svg>