<svg xmlns="http://www.w3.org/2000/svg" width="48" height="48" viewBox="0 0 48 48"><path d="M37.15 46.85q-1.35 0-2.675-.2-1.325-.2-2.475-.6L3.2 35.6l.85-2.5 14.45 5.25 3.25-7.9-7.6-7.85q-1.55-1.6-1.4-3.725.15-2.125 2.05-3.325l7.65-4.5q.85-.45 1.8-.575.95-.125 1.75.075.8.15 1.45.675.65.525.9 1.325l.75 2.4q.75 2.55 2.35 4 1.6 1.45 3.85 2.1l1.15-3.25 2.35.7-2.35 7.1q-3.75-.8-6.075-2.325Q28.05 21.75 26.45 18.8l-5.8 3.25 6.05 7.2-4.3 10.55 6.05 2.15 4.7-14.1q.55.2 1.15.35.6.15 1.2.25l-4.65 14.4 2.05.75q.9.35 1.975.525 1.075.175 2.275.175 1.45 0 2.925-.3 1.475-.3 2.875-1l1.9 1.95q-1.85 1-3.8 1.45-1.95.45-3.9.45Zm-2.5-34.55q-1.75 0-2.975-1.25T30.45 8.1q0-1.75 1.225-3t2.975-1.25q1.7 0 2.95 1.25 1.25 1.25 1.25 3 0 1.7-1.25 2.95-1.25 1.25-2.95 1.25Z"/></svg>