<svg xmlns="http://www.w3.org/2000/svg" width="48" height="48" viewBox="0 0 48 48"><path d="M24 37.7q-5.65 0-9.625-3.9-3.975-3.9-4.075-9.6l4.3 1.35q.5 3.45 3.15 5.725Q20.4 33.55 24 33.55q4 0 6.775-2.775Q33.55 28 33.55 24q0-3.6-2.275-6.225Q29 15.15 25.6 14.6l-1.3-4.35q5.65.15 9.55 4.125 3.9 3.975 3.9 9.625 0 5.75-4 9.725-4 3.975-9.75 3.975Zm0 8.6q-4.6 0-8.675-1.75-4.075-1.75-7.1-4.775-3.025-3.025-4.775-7.1Q1.7 28.6 1.7 24q0-.6.025-1.175.025-.575.075-1.175l4.05 1.25V24q0 7.55 5.3 12.85T24 42.15q7.55 0 12.85-5.3T42.15 24q0-7.55-5.3-12.85T24 5.85h-1.05l-1.2-4.05q.55-.05 1.1-.075Q23.4 1.7 24 1.7q4.6 0 8.675 1.75 4.075 1.75 7.1 4.775 3.025 3.025 4.775 7.1Q46.3 19.4 46.3 24q0 4.6-1.75 8.675-1.75 4.075-4.775 7.1-3.025 3.025-7.1 4.775Q28.6 46.3 24 46.3Zm-4.65-22.45L10.5 15 8 22.65 1.7 1.7l20.95 6.25-7.6 2.55 8.85 8.8Z"/></svg>