<svg xmlns="http://www.w3.org/2000/svg" width="48" height="48" viewBox="0 96 960 960"><path d="M116.083 1083Q62 1083 23.5 1044.5T-15 951.89V684q0-27 11-52t30-43l318-302 47 49q9 12 10.5 25.769Q403 375.538 396 388l-68 121h448.669Q798 509 812 524.3q14 15.3 14 37.7 0 22.32-15.34 37.66Q795.32 615 773 615H469v50h394q21 0 37 15.34T916 718q0 21-16 36.5T863 770H469v51h349q22.32 0 37.16 16Q870 853 870 874.5T855.16 911q-14.84 15-37.16 15H469v51h260q21 0 36.5 15.275t15.5 37.495q0 22.23-15.5 37.73Q750 1083 729 1083H116.083ZM592 429l5-18.5q6-30.5-3-59T565 302q-32-32-50.5-72.542Q496 188.915 506 142l4-24h82l-5 27q-5 28 2.5 52t28.75 45.898Q651 275 668 318.5q17 43.5 11 90.5l-2 20h-85Zm202 0 4-18.5q6-29.5-3-59t-29.25-49.765Q734 269 716 229.458q-18-39.543-9-87.458l4-24h83l-5 27q-5 27.182 2.5 51.898Q799 221.614 820 243q31 32 49.5 75.5T881 409l-3 20h-84Z"/></svg>