<svg xmlns="http://www.w3.org/2000/svg" width="48" height="48" viewBox="0 -960 960 960"><path d="M125-148.4Q57-216.81 57-315v-434q0-53 47-92.5T205.5-881q54.5 0 101.5 47.5T354-732q0 59.9-44.55 103.95Q264.9-584 206-584h-54v269q0 59 40 100t99.5 41q59.5 0 100.5-41t41-100v-331q0-98 68.57-166.5t167-68.5Q767-881 835-812.5T903-646v417q0 60.9-36 104.95Q831-80 770-80q-60 0-112-44.07t-52-105q0-59.93 43.5-104.43Q693-378 754-378h55v-268q0-59.17-41-99.58Q727-786 668.5-786t-100 40.42Q527-705.17 527-646v331q0 98.19-68.57 166.6-68.57 68.4-167 68.4T125-148.4Z"/></svg>