<svg xmlns="http://www.w3.org/2000/svg" width="48" height="48" viewBox="0 0 48 48"><path d="M13.7 23.05V5.5q0-.9.65-1.55t1.5-.65q.9 0 1.55.65t.65 1.55v17.55Zm8.3 0V3.5q0-.9.65-1.55t1.5-.65q.9 0 1.55.65t.65 1.55v19.55Zm8.35 7.65V7.5q0-.9.65-1.55t1.5-.65q.9 0 1.55.65t.65 1.55v21ZM13.5 42.3h14.35q.35 0 .7-.125t.6-.375L41 29.9h-.05L23.3 39.35l-5.9-7.8H9.7v6.95q0 1.6 1.1 2.7t2.7 1.1Zm0 4.35q-3.4 0-5.775-2.375Q5.35 41.9 5.35 38.5V27.2H19.6l4.9 6.6 10.2-5.3 3.5-1.95q1.25-.65 2.775-.675 1.525-.025 2.475.975l3.35 3.4L32.2 44.9q-.9.9-2 1.325-1.1.425-2.35.425ZM9.7 27.2H5.35V9.5q0-.9.65-1.55t1.5-.65q.9 0 1.55.65T9.7 9.5Zm0-4.15h20.65H9.7Zm3.8 19.25H9.7h19.45-1.3Z"/></svg>