<svg xmlns="http://www.w3.org/2000/svg" width="48" height="48" viewBox="0 -960 960 960"><path d="M135-175v-94h71v-279q0-93 53-168.5T403-812v-16q0-32.583 22.708-55.292Q448.417-906 480-906q31.583 0 54.292 22.708Q557-860.583 557-828v16q32 7 57.5 21.946Q640-775.108 660-753L416-508v158h159l180-180v261h71v94H135ZM481-46q-36.95 0-62.975-26.231Q392-98.463 392-135h177q0 37-26.231 63Q516.537-46 481-46Zm-5-364v-73l272-273 73 74-271 272h-74Zm373-299 36-36q11-10.739 11-23.37Q896-781 885-791l-29-30q-9.739-9-20.87-9-11.13 0-21.13 9l-39 39 74 73Z"/></svg>