<svg xmlns="http://www.w3.org/2000/svg" width="48" height="48" viewBox="0 -960 960 960"><path d="M183.5-309Q148-343 146-392H68v-126.29q0-68.05 46.5-114.88T229.12-680H389v216h155l146-185v-136H567v-71h123q28.75 0 49.88 20.95Q761-814.1 761-785v160.88L577-392H389q-1 49-36.26 83-35.27 34-84.5 34-49.24 0-84.74-34ZM301-360.15q14-13.15 16-31.85h-98q1 19 15.5 32t33.5 13q19 0 33-13.15ZM188-734v-71h201v71H188Zm496 423.85q-35-35.14-35-86.5 0-51.35 34.65-86.85 34.64-35.5 86-35.5 51.35 0 86.85 35.15 35.5 35.14 35.5 86.5 0 51.35-35.15 86.85-35.14 35.5-86.5 35.5Q719-275 684-310.15Zm122-51.46q15-14.6 15-35.5 0-20.89-15.11-35.39-15.1-14.5-36-14.5-20.89 0-35.39 14.61-14.5 14.6-14.5 35.5 0 20.89 14.61 35.39 14.6 14.5 35.5 14.5Q791-347 806-361.61ZM519-34 273-159h164v-82l245 123H519v84Z"/></svg>