<svg xmlns="http://www.w3.org/2000/svg" width="48" height="48" viewBox="0 -960 960 960"><path d="M444.98-56.22Q427.95-63.43 414-77L77-414q-13.57-13.95-20.78-30.98Q49-462 49-480q0-18 7.22-35.44Q63.43-532.88 77-546l337-337q13.95-14.43 30.98-21.22Q462-911 480-911q18 0 35.44 6.78Q532.88-897.43 546-883l337 337q14.43 13.12 21.22 30.56Q911-498 911-480q0 18-6.78 35.02Q897.43-427.95 883-414L546-77q-13.12 13.57-30.56 20.78Q498-49 480-49q-18 0-35.02-7.22ZM439-434h82v-240h-82v240Zm70 120q12-12 12-28.51t-12-29Q497-384 480-384t-29 12.49q-12 12.49-12 29Q439-326 451-314t29 12q17 0 29-12Z"/></svg>