<svg xmlns="http://www.w3.org/2000/svg" width="48" height="48" viewBox="0 96 960 960"><path d="M480 959q-79 0-149-30t-122-82q-52-52-82-122T97 576q0-79 30-149t82-122q52-52 122-82t149-30q79 0 149 30t122 82q52 52 82 122t30 149q0 79-30 149t-82 122q-52 52-122 82t-149 30Zm56-107q86-10 148-72t72-148L536 852Zm-74 0 306-305q-2-16-6-31.5t-9-30.5L425 812q9 11 17.5 21.5T462 852Zm-61-89 330-330q-7-12-15-23t-17-21L379 709q4 13 9 26.5t13 27.5Zm-32-117 293-294q-11-9-22.5-16T616 322L363 574q0 19 1.5 37t4.5 35Zm9-161 186-184q-16-6-33.5-9t-34.5-4q-47 27-77.5 78T378 485Z"/></svg>