<svg xmlns="http://www.w3.org/2000/svg" width="48" height="48" viewBox="0 -960 960 960"><path d="M143-84v-255h674v255h-94v-160H237v160h-94Zm-10.47-325Q104-409 84.5-428.26 65-447.53 65-475.76 65-504 84.66-523.5q19.66-19.5 48.46-19.5 28.38 0 47.63 19.47 19.25 19.47 19.25 48T180.53-428q-19.47 19-48 19ZM261-399v-384q0-40.21 27.1-67.61Q315.2-878 355-878h250q40.21 0 67.61 27.39Q700-823.21 700-783v384H261Zm518.5-29.26q-19.5-19.27-19.5-47.5 0-28.24 19.47-47.74 19.47-19.5 48-19.5t48.03 19.47q19.5 19.47 19.5 48T875.53-428q-19.47 19-48 19t-48.03-19.26Z"/></svg>