<svg xmlns="http://www.w3.org/2000/svg" width="48" height="48" viewBox="0 -960 960 960"><path d="M188-189h543v-191l52-23q14-6 23.5-21.5t9.5-32.81q0-16.23-9.51-30.76Q796.97-502.59 783-510l-52-24v-197H526l-11-68q-4.25-21.92-19.8-36.96T458.25-851q-21.3 0-37.74 15.1Q404.08-820.81 401-799l-11.95 68H190v91q50 21 88.5 71.86T317-456.72q0 69.72-38.5 123.22T188-271.02V-189Zm-5 94q-36 0-62.5-26.5T94-185v-147q53-3 90.5-38.35T222-456.7q0-52.3-37.4-88.28-37.4-35.99-88.6-35.92V-737q0-38 25.24-63.5T185-826h126q11.63-47.88 52.8-83.44Q404.97-945 457.44-945q57.56 0 99.39 35.49 41.82 35.48 48.43 83.51H736q37.31 0 63.66 25.5Q826-775 826-737v144q37 21 61 55.5t24 80.89q0 48.12-24 84.36-24 36.25-61 52.35V-185q0 37-26.34 63.5Q773.31-95 736-95H183Zm320-362Z"/></svg>