<svg xmlns="http://www.w3.org/2000/svg" width="48" height="48" viewBox="0 -960 960 960"><path d="M482-154q-137 0-232.5-95.209Q154-344.419 154-480.5q0-136.919 95.5-232.709Q345-809 481.5-809t232 95.919Q809-617.163 809-481q0 136.581-95.628 231.791Q617.744-154 482-154Zm3-80q100 0 171.5-71.75T728-480q0-21-3.5-38T712-556q-37 6-52.444 8-15.445 2-26.389 2Q571-546 506.5-581.5T396.534-680Q376-615 334-569t-101 68q-2 118 72.418 192.5Q379.835-234 485-234Zm-81-183q-17 0-29-11.288-12-11.287-12-29.212 0-17.5 11.788-30Q386.575-500 404-500q17 0 29.5 12.712Q446-474.575 446-458q0 18-12.712 29.5Q420.575-417 404-417Zm153 1q-17 0-29.5-11.575T515-457.5q0-17.925 12.5-30.212Q540-500 557-500t29.5 12.5Q599-475 599-458q0 18.425-12.5 30.212Q574-416 557-416ZM15-728v-123q0-39.463 27.475-67.231Q69.95-946 109-946h123v95H109v123H15ZM232-15H109q-39.05 0-66.525-27.475Q15-69.95 15-109v-123h94v123h123v94Zm496 0v-94h123v-123h95v123q0 39.05-27.769 66.525Q890.463-15 851-15H728Zm123-713v-123H728v-95h123q39.463 0 67.231 27.769Q946-890.463 946-851v123h-95Z"/></svg>