<svg xmlns="http://www.w3.org/2000/svg" width="48" height="48" viewBox="0 -960 960 960"><path d="M177-92q-61.25 0-105.12-43.58Q28-179.17 28-240v-280q0-62.08 43.88-105.54Q115.75-669 177-669q38 0 67 16.5t46 40.5h13v-236h446v231h42q49.17 0 83.58 34.12Q909-548.75 909-500v357H289q-20.63 24.2-49.44 37.6Q210.75-92 177-92Zm.11-94q22.39 0 38.64-15.82Q232-217.65 232-240v-280q0-22.35-16.36-38.17Q199.29-574 176.89-574q-22.39 0-38.14 15.83Q123-542.35 123-520v280q0 22.35 15.86 38.18Q154.71-186 177.11-186ZM397-617h257v-137H397v137Zm-60 380h477v-263q0-10-6.5-16.5T791-523H337v286Zm297.5-168.5Q646-417 646-434t-11.5-28.5Q623-474 606-474t-28.5 11.5Q566-451 566-434t11.5 28.5Q589-394 606-394t28.5-11.5Zm108 0Q754-417 754-434t-11.5-28.5Q731-474 714-474t-28.5 11.5Q674-451 674-434t11.5 28.5Q697-394 714-394t28.5-11.5Zm-108 108Q646-309 646-326t-11.5-28.5Q623-366 606-366t-28.5 11.5Q566-343 566-326t11.5 28.5Q589-286 606-286t28.5-11.5Zm108 0Q754-309 754-326t-11.5-28.5Q731-366 714-366t-28.5 11.5Q674-343 674-326t11.5 28.5Q697-286 714-286t28.5-11.5ZM397-286h140v-188H397v188Zm-60 49v-286 286Z"/></svg>