<svg xmlns="http://www.w3.org/2000/svg" width="48" height="48"><path d="M9.45 43.25q-1.95 0-3.325-1.375Q4.75 40.5 4.75 38.55V30.4h4.7v8.15h8.15v4.7zm20.95 0v-4.7h8.15V30.4h4.75v8.15q0 1.95-1.4 3.325-1.4 1.375-3.35 1.375zM24 30.45q-2.75 0-4.6-1.85-1.85-1.85-1.85-4.6 0-2.75 1.85-4.625T24 17.5q2.75 0 4.625 1.875T30.5 24q0 2.75-1.875 4.6Q26.75 30.45 24 30.45zM24 24zM4.75 17.6V9.45q0-1.95 1.375-3.35Q7.5 4.7 9.45 4.7h8.15v4.75H9.45v8.15zm33.8 0V9.45H30.4V4.7h8.15q1.95 0 3.35 1.4 1.4 1.4 1.4 3.35v8.15z"/></svg>