<svg xmlns="http://www.w3.org/2000/svg" width="48" height="48" viewBox="0 96 960 960"><path d="M281.265 959Q227 959 188.5 920.542 150 882.083 150 826h-39q-38.75 0-66.375-27.1T17 732V521h474V368q0-40.213 27.394-67.606Q545.787 273 586 273h54v-50q0-19.75 13.625-33.375T688 176h32q19.75 0 33.375 13.625T767 223v50h25q30.029 0 55.015 18.182Q872 309.364 881 338l58 173q2 7 3 14.8 1 7.8 1 14.2v286H835q0 55.417-38.5 94.208Q758 959 703 959t-93.5-38.458Q571 882.083 571 826H414q0 56-39.235 94.5-39.236 38.5-93.5 38.5Zm.735-72q24.5 0 42.25-17.25T342 827q-1-25.5-18.462-42.75Q306.075 767 281.5 767q-24.575 0-42.038 17.25Q222 801.5 222 826.5q0 25.425 17.25 42.963Q256.5 887 282 887Zm421 0q25.5 0 42.75-17.537Q763 851.925 763 826q0-24.5-17.25-41.75T703 767q-25.075 0-42.037 17.25Q644 801.5 643 827q0 25.5 17.25 42.75T703 887ZM111 615v117h97q11-16 30.5-26.5t43-10.5q23.5 0 43 10.5T356 732h135V615H111Zm475 117h43q12-16 31.582-26.5 19.581-10.5 42.5-10.5Q726 695 745.5 705.5T777 732h72V615H586v117Zm0-211h257l-51-153H586v153ZM17 481v-55h46v-98H17v-55h434v55h-46v98h46v55H17Zm101-55h89v-98h-89v98Zm144 0h88v-98h-88v98Zm229 189H111h380Zm95 0h263-263Z"/></svg>