<svg xmlns="http://www.w3.org/2000/svg" width="48" height="48" viewBox="0 -960 960 960"><path d="m658-530-90 90 29 36 37-37q-7 66-49 112t-105 46h-27q-11 0-25-5l-38 31q20 9 42.5 16.5T480-233q83 0 141-60t63-157l42 46 29-36-97-90ZM302-343l90-90-29-36-37 37q7-66 49-112t105-46h27q11 0 25 5l38-31q-20-9-42.5-16.5T480-640q-83 0-141 60t-63 157l-42-46-29 36 97 90ZM149-95q-39.05 0-66.525-27.475Q55-149.95 55-189v-495q0-38.463 27.475-66.731Q109.95-779 149-779h132l84-98h231l83 98h132q38.463 0 66.731 28.269Q906-722.463 906-684v495q0 39.05-28.269 66.525Q849.463-95 811-95H149Z"/></svg>