<svg xmlns="http://www.w3.org/2000/svg" width="48" height="48" viewBox="0 -960 960 960"><path d="M188-95q-38.363 0-65.681-27.319Q95-149.637 95-188v-509h94v508h508v94H188Zm171-264v95q-40.212 0-67.606-27.394Q264-318.788 264-359h95Zm-95-74v-94h95v94h-95Zm0-169v-95h95v95h-95Zm95-169h-95q0-40.213 27.394-67.606Q318.788-866 359-866v95Zm74 507v-95h94v95h-94Zm0-507v-95h94v95h-94Zm169 0v-95h95v95h-95Zm0 507v-95h95v95h-95Zm169-507v-95q40.213 0 67.606 27.394Q866-811.213 866-771h-95Zm0 412h95q0 40.212-27.394 67.606Q811.213-264 771-264v-95Zm0-74v-94h95v94h-95Zm0-169v-95h95v95h-95Z"/></svg>