<svg xmlns="http://www.w3.org/2000/svg" width="48" height="48" viewBox="0 -960 960 960"><path d="M141-440v211-502 291ZM590-90q17.475 0 28.737-11.262Q630-112.525 630-130t-11.138-28.738Q607.725-170 589.5-170q-16.975 0-28.237 11.137Q550-147.725 550-129.5q0 16.975 11.263 28.238Q572.525-90 590-90Zm240.289-421q16.765 0 28.738-11.763Q871-534.525 871-551.289q0-16.765-11.848-28.738Q847.304-592 829.789-592q-16.264 0-28.026 11.848Q790-568.304 790-550.789q0 16.264 11.763 28.026Q813.525-511 830.289-511ZM245-539h225v-79H245v79Zm0 197h225v-80H245v80ZM141-135q-39.05 0-66.525-27.475Q47-189.95 47-229v-502q0-39.463 27.475-67.231Q101.95-826 141-826h678q39.463 0 67.231 27.769Q914-770.463 914-731H141v502h284v94H141ZM589.706-10q-50.123 0-84.914-35.083Q470-80.166 470-130.285q0-40.118 22.5-69.916Q515-230 550-242.827V-380h241v-59q-35-12-57.5-41.799-22.5-29.798-22.5-69.916 0-50.119 34.409-85.202Q779.819-671 829.941-671q50.123 0 85.091 34.995Q950-601.011 950-551.019 950-511 927.5-481 905-451 870-439v138H630v58q34 13 57 42.884t23 70.109q0 50.257-35.086 85.132Q639.828-10 589.706-10Z"/></svg>