<svg xmlns="http://www.w3.org/2000/svg" width="48" height="48" viewBox="0 96 960 960"><path d="M141 921q-39.05 0-66.525-27.475Q47 866.05 47 827V325q0-39.463 27.475-67.231Q101.95 230 141 230h678q39.463 0 67.231 27.769Q914 285.537 914 325H141v502h339v94H141Zm0-94V325v502Zm650 221q-40.213 0-67.606-27.39Q696 993.213 696 953v-54q-76-15-126-74.393T520 684V479q0-38.75 27.588-66.375Q575.175 385 615 385h250q38.75 0 66.375 27.625T959 479v205q0 81.214-50 140.607T783 899v62h130v87H791Zm19-403h67V467H602v98h48q32.475 0 61.505 14.464Q740.536 593.929 761 620q9.5 12 21.888 18.5Q795.275 645 810 645Zm-70.3 177q47.349 0 82.325-27.5Q857 767 870 724h-60q-33.794 0-63.004-14.295Q717.786 695.411 698 668q-8.713-10.542-21.456-17.271Q663.801 644 650 644h-48v40q0 58 40 98t97.7 40ZM698 620ZM245 517h215v-79H245v79Zm0 197h215v-80H245v80Z"/></svg>