<svg xmlns="http://www.w3.org/2000/svg" width="48" height="48" viewBox="0 96 960 960"><path d="M141 921q-39.05 0-66.525-27.475Q47 866.05 47 827V325q0-39.463 27.475-67.231Q101.95 230 141 230h678q39.463 0 66.731 27.269Q913 284.537 914 324H615.303Q567 324 532 351t-46 67v20H245v79h215v117H245v80h218v10q11 67.364 50 118.182T609 921H141Zm650 127q-40.213 0-67.606-27.39Q696 993.213 696 953v-54q-76-15-126-74.602Q520 764.797 520 684V479q0-38.75 27.588-66.375Q575.175 385 615 385h250q38.75 0 66.375 27.625T959 479v205q0 80.797-50 140.398Q859 884 783 899v62h130v87H791Zm19-403h67V467H602v98h48q32.605 0 61.57 14.464Q740.536 593.929 761 620q9.5 12 21.812 18.5Q795.125 645 810 645Z"/></svg>