<svg xmlns="http://www.w3.org/2000/svg" width="48" height="48" viewBox="0 -960 960 960"><path d="M444-503h72v-217h-72v217Zm36 129q15.4 0 25.7-10.725Q516-395.45 516-410q0-15.4-10.3-25.7-10.3-10.3-25.2-10.3-14.9 0-25.7 10.3-10.8 10.3-10.8 25.2 0 14.9 10.725 25.7Q465.45-374 480-374Zm0 192q124.358-114.336 183.679-207.392T723-552.323q0-110.386-70.512-180.532Q581.977-803 480.226-803t-172.489 70.207Q237-662.586 237-552.103q0 70.103 60.846 162.659T480-182Zm0 124Q311-202 227-325.015q-84-123.015-84-227.116 0-157.714 101.599-251.292Q346.198-897 479.908-897q133.711 0 235.401 93.577Q817-709.845 817-552.131q0 104.101-84 227.116Q649-202 480-58Zm0-494Z"/></svg>