<svg xmlns="http://www.w3.org/2000/svg" width="48" height="48" viewBox="0 -960 960 960"><path d="M149-229v-502 252-14 264Zm0 94q-39.05 0-66.53-27.98Q55-190.95 55-229v-502q0-38.46 27.47-66.73Q109.95-826 149-826h261l71 72h330q38.46 0 66.73 27.97Q906-698.05 906-660v234q-19.53-19-43.78-32.54T811-479v-181H442l-71-71H149v502h330q0 24 6 47.92 6 23.91 17 46.08H149Zm558-2 146-149-37-37-109 112-57-58-37 37 94 95Zm163.71-239Q927-319 927-238.29q0 80.7-56.29 137Q814.41-45 733.71-45 653-45 596-101.29q-57-56.3-57-137Q539-319 596-376q57-57 137.71-57 80.7 0 137 57Z"/></svg>