<svg xmlns="http://www.w3.org/2000/svg" width="48" height="48" viewBox="0 -960 960 960"><path d="m707-45-6-52q-21-6-38-16.5T634-136l-45 22-44-71 41-32q-6-15.6-6-36.8 0-21.2 6-37.2l-41-32 44-71 45 21q12-10 29-20.5t38-16.5l6-53h78.913L793-410q21 6 38 16.5t29 20.5l45-21 45 71-42 32q5 15.692 5 37t-5 37l42 32-45 71-45-22q-12 12-29 22.5T793-97l-7.087 52H707Zm40-113q40 0 68-27.5t28-68.376q0-40.876-28-68.5Q787-350 746.5-350T678-322.376q-28 27.624-28 68.5Q650-213 678.088-185.5 706.175-158 747-158Zm-598-71v-502 229-13 286Zm0 94q-39.05 0-66.525-27.975Q55-190.95 55-229v-502q0-38.463 27.475-66.731Q109.95-826 149-826h261l71 72h330q38.463 0 66.731 27.975Q906-698.05 906-660v199q-21-15-45-25.5t-50-15.571V-660H442l-71-71H149v502h342q1 24 7 48t17 46H149Z"/></svg>