<svg xmlns="http://www.w3.org/2000/svg" width="48" height="48" viewBox="0 -960 960 960"><path d="M147.5-141q-33.863 0-56.681-22.819Q68-186.637 68-221v-40q0-33.362 22.819-56.181Q113.637-340 147.5-340t56.681 22.819Q227-294.362 227-261v40q0 34.363-22.819 57.181Q181.363-141 147.5-141ZM842-160h-51q-11.636 0-18.318-9.5Q766-179 769-190l9-35q2-8 10.1-13t16.9-4l43 7q13 3 22.5 13t9.5 23.846q0 15.275-11.395 26.715Q857.211-160 842-160Zm-163-20-91-28q-10-3-15-13t0-19l28-61q4-10 13.5-13t19.5 3l74 45q6 4 9 11.053 3 7.052 2 13.947l-9 43q-2 11-11.333 16-9.334 5-19.667 2Zm-189-71-54-13q-13-4-21.5-14.6T406-303v-36.63q0-19.77 6-37.07t20-29.3q7-6.25 16-7.625T466-411l76 45q8 5 9.5 12.5T550-337l-32 73q-2.688 7.769-10.844 11.885Q499-248 490-251Zm-186-29q-8.737 0-15.538-7.031Q281.66-294.062 279-305q-9-44-43.196-69.5Q201.607-400 160-400h-20q-8 0-14-6t-6-14q0-8 6-14t14-6h36q20 0 38.5-5t35.5-15q4.824-3 10.912-3Q267-463 273-460q20 12 33.5 16t29.5 4q13.364 0 20.682 11.5Q364-417 360-404q-6 15-10 31.52-4 16.521-4 32.48v36q0 8.8-6.9 16.4-6.9 7.6-17.1 7.6h-18ZM169.621-500q-42.123 0-70.872-27.797Q70-555.594 70-597.633q0-21.549 7-41.458T98-672l52-52v-86h79v87q0 15.571-6.583 30.402Q215.833-677.768 205-667l-48.268 48.698q-3.893 3.873-5.812 8.183Q149-605.81 149-601q0 8.118 5.659 14.059Q160.318-581 168.04-581q1.96 0 15.96-6 14.383-11.778 32.191-19.889Q234-615 260-615q26 0 43.106 8.111Q320.213-598.778 334-587q4 3 7.9 4.5 3.9 1.5 8.9 1.5 8.2 0 13.7-5.853T370-600.7q0-5.062-1.893-9.374t-5.75-8.186L315-667q-12-12-19-26t-7-30v-87h80v86l51.788 51.788Q435-658 442-638.5q7 19.5 7 41.5 0 41.227-28.632 69.113Q391.735-500 349.786-500q-18.786-1-35.411-8.857Q297.75-516.714 284-528q-5-4-11.5-7t-13.5-3q-4 0-24 10-14 12-30.481 19.469-16.481 7.469-34.898 8.531ZM259-810Z"/></svg>