<svg xmlns="http://www.w3.org/2000/svg" width="48" height="48" viewBox="0 -960 960 960"><path d="M382-181v-94h484v94H382Zm0-252v-94h484v94H382Zm0-253v-94h484v94H382ZM178.425-145q-34.475 0-58.95-23.77T95-227.739Q95-262 119.239-286.5t59.164-24.5q34.924 0 58.261 24.758Q260-261.484 260-226.717q0 33.942-23.963 57.83Q212.075-145 178.425-145Zm0-252q-34.475 0-58.95-24.464Q95-445.929 95-480.283q0-34.355 24.714-58.536Q144.428-563 178.903-563q33.649 0 57.373 24.464Q260-514.071 260-479.717q0 34.355-23.963 58.536Q212.075-397 178.425-397Zm-1-253q-34.062 0-58.244-24.464Q95-698.929 95-733.283q0-34.355 24.42-58.536Q143.84-816 177.903-816q34.062 0 58.079 24.464Q260-767.071 260-732.717q0 34.355-24.256 58.536Q211.487-650 177.425-650Z"/></svg>