<svg xmlns="http://www.w3.org/2000/svg" width="48" height="48" viewBox="0 -960 960 960"><path d="M560-119q-17 0-29-12t-12-29q0-17 12-29t29-12h109l-88-62q-14-10-17.5-26.5T569-320q10-14 26.5-17.5T626-332l90 62-38-102q-6-16 2-31.5t24-21.5q17-6 33 1.5t21 23.5l36 102 29-104q4-17 18-25t31-4q17 4 25.5 18t4.5 31l-62 232q-4 13-14.5 22t-25.5 9H560ZM97-188v-95h94v95H97Zm154 0v-95h181q3 27 6 47.5t15 47.5H251ZM97-378v-94h94v94H97Zm154 0v-94h271q-23 18-39.5 42.5T456-378H251ZM97-567v-95h94v95H97Zm154 0v-95h532v95H251ZM97-757v-95h94v95H97Zm154 0v-95h532v95H251Z"/></svg>