<svg xmlns="http://www.w3.org/2000/svg" width="48" height="48" viewBox="0 -960 960 960"><path d="M347-299v-214h-49v-54h108v268h-59Zm156 0q-18.7 0-31.35-12.506Q459-324.012 459-342.5v-181q0-18.487 12.65-30.994Q484.3-567 503-567h102q18.7 0 31.35 12.506Q649-541.987 649-523.5v181q0 18.488-12.65 30.994T605-299H503Zm16-55h71v-159h-71v159ZM480.338-50Q400-50 329.609-79.787q-70.391-29.788-123.2-82.575Q153.6-215.15 123.8-285.306 94-355.462 94-435.794q0-80.75 30-150.978Q154-657 206.5-709.5T329.587-792Q400.175-822 481-822h21l-71-71 49-50 166 166-166 167-49-49 68-68h-18q-122.357 0-207.679 84.332Q188-558.337 188-436.49t84.941 206.669Q357.882-145 479.821-145q121.94 0 207.059-84.329Q772-313.657 772-436h94q0 81-29.76 150.989-29.759 69.989-82.5 122.5Q701-110 630.838-80q-70.162 30-150.5 30Z"/></svg>