<svg xmlns="http://www.w3.org/2000/svg" width="48" height="48" viewBox="0 -960 960 960"><path d="M494.892-15q-150.108 0-255-104.379Q135-223.759 135-374v-412q0-16.475 11.175-28.237Q157.351-826 173.982-826q16.632 0 28.325 11.763Q214-802.475 214-786v286h92v-366q0-16.475 11.813-28.237Q329.626-906 346.175-906q16.125 0 27.475 11.763Q385-882.475 385-866v366h93v-410q0-16.475 11.868-28.237Q501.737-950 518.368-950 535-950 546.5-938.237 558-926.475 558-910v410h92v-325.515q0-17.235 11.868-28.86Q673.737-866 690.368-866 707-866 718.5-854.237 730-842.475 730-826v298q-26 19-40.5 47.98Q675-451.04 675-417v16h-72q-57 0-92.5 44.79T475-253v23h55v-22.841Q530-288 549.733-317q19.734-29 53.267-29h127v-71q0-37 25.5-62.5T818-505h48v129q-8 152-114.5 256.5T494.892-15Z"/></svg>