<svg xmlns="http://www.w3.org/2000/svg" width="48" height="48" viewBox="0 96 960 960"><path d="M150 1001q-41.05 0-67.525-26.475Q56 948.05 56 907V245q0-38.463 26.475-66.731Q108.95 150 150 150h662q38.463 0 66.731 28.269Q907 206.537 907 245v662q0 41.05-28.269 67.525Q850.463 1001 812 1001H150Zm184.825-329Q322 672 313.5 663.325q-8.5-8.676-8.5-21.5 0-12.825 8.675-21.325 8.676-8.5 21.5-8.5 12.825 0 21.325 8.675 8.5 8.676 8.5 21.5 0 12.825-8.675 21.325-8.676 8.5-21.5 8.5Zm292 0Q614 672 605.5 663.325q-8.5-8.676-8.5-21.5 0-12.825 8.675-21.325 8.676-8.5 21.5-8.5 12.825 0 21.325 8.675 8.5 8.676 8.5 21.5 0 12.825-8.675 21.325-8.676 8.5-21.5 8.5ZM210 559.462v260.156q0 10.667 6.75 17.524Q223.5 844 234 844h12q10.5 0 17.25-6.75T270 820v-53h422v53q0 10.5 6.75 17.25T716 844h12q10.5 0 17.25-6.75T752 820V559l-64-186q-4-14-16.432-26-12.433-12-27.568-12H318.235q-15.37 0-27.303 11-11.932 11-17.149 27.167L210 559.462ZM287 517l40.483-122h307.034L676 517H287Z"/></svg>