<svg xmlns="http://www.w3.org/2000/svg" width="48" height="48" viewBox="0 96 960 960"><path d="M283 953q-40 0-69-28t-29-68V473l-74-180H26v-94h147l69 162h608q26.064 0 40.532 23Q905 407 893 430L779 655q52 10 86.5 50.968 34.5 40.969 34.5 95.566 0 62.752-43.396 106.609Q813.209 952 750.914 952q-63.343 0-106.628-43.893Q601 864.214 601 802q0-16 4.132-32.1 4.131-16.1 10.868-30.043L504 731 398 889q-24 35-51.5 49.5T283 953Zm392-302 100-196-496 1 51 120q8 21 26.009 33.397Q374.017 621.793 396 625l279 26ZM290.067 876Q290 876 305 868l100-146q-29-3-63.9-12.272T285 665l-13-28v221.427q0 7.442 5.367 12.508 5.366 5.065 12.7 5.065Zm459.886-14Q776 862 794.5 843.459q18.5-18.54 18.5-44.599Q813 772 794.6 754t-44.365-18q-25.902 0-44.568 18.1Q687 772.2 687 799q0 26 18.486 44.5 18.487 18.5 44.467 18.5ZM675 651l-279-26 279 26Z"/></svg>