<svg xmlns="http://www.w3.org/2000/svg" width="48" height="48" viewBox="0 96 960 960"><path d="M579 957q-57 0-96.5-42T443 806q0-53 26.5-91t63-62q36.5-24 75-36t63.5-13q-3-47-22-68t-55-21q-39 0-73 23t-91 103q-55 79-100.5 112T233 786q-50 0-91-33t-41-112q0-27 22-73t72-126q39-53 51.5-77.5T259 322q0-11-6-17.5t-18-6.5q-14 0-30.5 10.5T166 346l-66-67q26-35 63-55.5t76-20.5q49 0 80.5 33.5T351 315q0 45-20 85t-66 108q-47 68-58 90.5T196 645q0 27 15.5 35t32.5 8q24 0 47.5-22t66.5-80q70-92 124.5-129T603 420q63 0 109 45t53 135h104v93H766q-13 179-81.5 221.5T579 957Zm3-96q19 0 50.5-28.5T673 698q-37 3-86 30t-49 87q0 21 11 33.5t33 12.5Z"/></svg>