<svg xmlns="http://www.w3.org/2000/svg" width="48" height="48" viewBox="0 96 960 960"><path d="M34 952v-94h258q-22-96-93-171T34 587q22-5 43.5-8t45.5-3q154 0 255.5 107T480 952H34Zm506 0q0-45-8.5-83T508 793q44-101 134.5-159T837 576q24 0 45.5 3t43.5 8q-90 25-164.5 103T669 858h257v94H540Zm-56-214q-14-86 7-162.5T559 441q47-58 115.5-93T825 309q-62 39-118.5 111T635 569q-49 24-91 71t-60 98Zm-64-88q-19-19-43-38.5T339 584q4-15 6-35.5t2-30.5q0-85-27-161t-76-138q78 31 140 100t88 165q-21 36-35.5 80.5T420 650Z"/></svg>