<svg xmlns="http://www.w3.org/2000/svg" width="48" height="48" viewBox="0 -960 960 960"><path d="M482-500q32-38 47-79t15-90.5q0-50.5-16.467-92.342Q511.067-803.684 480-838q88-11 146 36.5T684-669q0 86.6-59 134.3Q566-487 482-500Zm227 378v-116q0-61-25.5-109T590-430q187 18 251 69.5t64 122.219V-122H709Zm282-448H726v-60h265v60Zm-682.204 76q-77.203 0-126-48.796Q134-591.593 134-668.796 134-746 182.796-795q48.797-49 126-49Q386-844 435-795t49 126.204q0 77.203-49 126Q386-494 308.796-494ZM-31-122v-121q0-41.755 21.633-76.373T50-371q75-32 134.5-47T309-433q66 0 125 14.5T566-371q38 16 60.5 50.5t22.5 77.705V-122H-31Z"/></svg>