<svg xmlns="http://www.w3.org/2000/svg" width="48" height="48" viewBox="0 96 960 960"><path d="M-12 828v-65.434q0-44.133 45-71.35Q78 664 150.376 664H162q5 0 11 .652-10 20.348-15.18 41.671-5.181 21.323-5.181 44.5V828H-12Zm240 0v-77q0-35 18-64t52-50q34-21 80.294-32 46.293-11 101.43-11 56.197 0 101.99 11 45.794 11 80.286 32 34 21 52 50t18 64v77H228Zm579 0v-77.429q0-23.802-5-45.121-5-21.32-14-40.723 6-.727 11.257-.727H810q73.7 0 117.85 27.046Q972 718.093 972 763v65H807ZM149.78 637Q118 637 95.5 614.17T73 559.281Q73 527 95.624 504.5t54.394-22.5Q182 482 205 504.535q23 22.536 23 54.977Q228 591 205.261 614t-55.481 23Zm660 0q-31.78 0-54.28-22.83T733 559.281Q733 527 755.624 504.5t54.394-22.5Q842 482 865 504.535q23 22.536 23 54.977Q888 591 865.261 614t-55.481 23Zm-329.289-72q-55.204 0-93.848-38.643Q348 487.714 348 432.509 348 377 386.643 339q38.644-38 93.848-38Q536 301 574 339t38 93.509q0 55.205-38 93.848T480.491 565Z"/></svg>