<svg xmlns="http://www.w3.org/2000/svg" width="48" height="48" viewBox="0 -960 960 960"><path d="M185 15q-84 0-142-58t-58-142h65q0 57.071 38.964 96.036Q127.93-50 185-50v65Zm217.406-30q-29.417 0-56.912-14Q318-43 303-68L50-469l23.884-16Q95-500 121-504t58.073 18.188L270-416v-408q0-16.475 11.868-28.237Q293.737-864 310.368-864 327-864 338.5-852.237 350-840.475 350-824v354h93v-440q0-16.475 11.175-28.237Q465.351-950 481.982-950q16.632 0 28.325 11.763Q522-926.475 522-910v440h93v-396q0-16.475 11.813-28.237Q638.626-906 655.175-906q16.125 0 27.475 11.763Q694-882.475 694-866v396h92v-315.515q0-17.235 11.868-28.86Q809.737-826 826.368-826 843-826 854.5-814.237 866-802.475 866-786v611q0 67-46.5 113.5T706-15H402.406ZM946-800q0-48-34-82t-82-34v-65q75 0 128 53t53 128h-65Z"/></svg>