<svg xmlns="http://www.w3.org/2000/svg" width="48" height="48" viewBox="0 96 960 960"><path d="M470 1013Q330 875 245 787T114.5 638q-45.5-61-60-107.321T40 429.578Q40 329 108.255 258 176.509 187 277 187q53.5 0 101.167 21.711Q425.833 230.422 465 266l-48 230h101l-47 399 112-433H476l69-245q32-16 67-23t71-7q100 0 169 71t69 172.171Q921 482 905.5 527.5 890 573 842 635T705.5 786Q617 875 470 1013Zm-80-212 27-226H307l55-268q-20-10-41.477-17.5-21.478-7.5-44.357-7.5-59.452 0-100.809 43.343T134 430q0 32.667 12.5 66.833Q159 531 188.5 573.5T267 671q49 55 123 130Zm206-36q118-111 174-193.3 56-82.3 56-142.033 0-61.038-41.114-104.353Q743.771 282 683 282q-15 0-30 2.143T623 290l-28 93h102L596 765Zm101-382ZM307 575Z"/></svg>