<svg xmlns="http://www.w3.org/2000/svg" width="48" height="48" viewBox="0 -960 960 960"><path d="M281.647-238q-49.882 0-83.265-36.583Q165-311.167 165-361v-345h79v350q0 16.5 10.75 27.25T282.07-318q16.57 0 26.75-10.75T319-356v-227q0-49.833 33.941-86.417Q386.882-706 436.441-706t83.059 36.583Q553-632.833 553-583v227q0 16.5 10.75 27.25T591.07-318q16.57 0 26.75-10.75T628-356v-270q0-50 35-85t85-35h60l-39-40 55-56 136 136-136 135-55-57 40-38h-60.609q-18.116 0-29.253 11.138Q708-643.725 708-626v265q0 49.833-33.735 86.417Q640.529-238 590.647-238t-83.265-36.583Q474-311.167 474-361v-227q0-16.5-10.617-27.25Q452.765-626 437.07-626q-16.57 0-27.32 10.75T399-588v227q0 49.833-33.735 86.417Q331.529-238 281.647-238ZM105-74q-40.213 0-67.606-27.1Q10-128.2 10-168v-348h918v348q0 39.8-27.394 66.9Q873.213-74 833-74H105Zm0-94h728v-253H105v253Zm728-253H105h728Z"/></svg>