<svg xmlns="http://www.w3.org/2000/svg" width="48" height="48" viewBox="0 96 960 960"><path d="M842 1026 735 920q-54.081 39.03-118.503 60.015T480.267 1001q-90.267 0-168.254-32.584-77.988-32.583-134.917-89.512T87.584 743.987Q55 666 55 575.733q0-71.808 20.985-136.23Q96.97 375.081 136 321L30 214l50-50 812 812-50 50ZM480 907q53.266 0 100.633-15T667 851.739L204.261 389Q178 428 163.5 475.5 149 523 149 576.355q0 142.1 94.377 236.372Q337.753 907 480 907Zm353-91-70-69q23-37 35.5-80t12.5-91q0-142.247-94.377-236.623Q622.247 245 480 245q-48 0-91 12.5T309 293l-69-70q51-34 111.325-53.5Q411.649 150 480 150q90.34 0 167.867 32.954 77.528 32.953 134.877 90.302 57.349 57.349 90.302 134.877Q906 485.66 906 576q0 68.351-19.5 128.675Q867 765 833 816ZM537 519ZM436 620Z"/></svg>