<svg xmlns="http://www.w3.org/2000/svg" width="48" height="48"><path d="m19.2 44.85-3.5-6.15H8.95l-4.8-8.55L7.6 24l-3.45-6.15 4.8-8.55h6.75l3.5-6.15h9.6l3.5 6.15h6.8l4.8 8.55L40.45 24l3.45 6.15-4.8 8.55h-6.8l-3.5 6.15zM32.4 21.7h3.95l2.25-3.85L36.35 14H32.4l-2.25 3.85zm-10.35 6.05H26L28.25 24 26 20.25h-3.95L19.8 24zM22 15.55h4l2.2-3.85L26 7.85h-4l-2.2 3.85zM11.75 21.7h3.95l2.25-3.85L15.7 14h-3.95L9.5 17.85zm0 12.3h3.95l2.25-3.85-2.3-3.85H11.7l-2.25 3.85zM22 40.15h4l2.2-3.85-2.2-3.85h-4l-2.2 3.85zM32.4 34h3.95l2.25-3.85-2.25-3.85H32.4l-2.1 3.85z"/></svg>