<svg xmlns="http://www.w3.org/2000/svg" width="48" height="48" viewBox="0 96 960 960"><path d="M639 931h55V756h-55v175Zm115 0h55V756h-55v175ZM249 447h462v-60H249v60Zm474.5 584q-77.5 0-132.5-55t-55-132q0-77.435 54.99-133.218Q645.98 655 724 655q77 0 132.5 55.782Q912 766.565 912 844q0 77-55.5 132t-133 55ZM95 1016V287q0-38.775 27.612-66.387Q150.225 193 189 193h582q39.188 0 67.094 27.613Q866 248.225 866 287v352q-32-21-67.022-32-35.021-11-71.978-11v-48H249v60h383q-37.109 16.316-66.192 42.293Q536.725 676.27 517 709H249v60h238q-6 19-8.5 38.6T476 848q0 35 10 68.5t31 62.5l-37 37-64-64-65 64-64-64-66 64-64-64-62 64Z"/></svg>