<svg xmlns="http://www.w3.org/2000/svg" width="48" height="48"><path d="M24.05 45.25q-4.55 0-8.45-1.625Q11.7 42 8.85 39.15 6 36.3 4.375 32.4 2.75 28.5 2.75 23.95q0-4.45 1.625-8.325Q6 11.75 8.85 8.875 11.7 6 15.6 4.35q3.9-1.65 8.45-1.65 4.45 0 8.325 1.65Q36.25 6 39.125 8.875 42 11.75 43.65 15.625 45.3 19.5 45.3 24t-1.65 8.4q-1.65 3.9-4.525 6.75-2.875 2.85-6.75 4.475Q28.5 45.25 24.05 45.25zM24 19.05q1.05 0 1.725-.675T26.4 16.7q0-1.1-.7-1.775-.7-.675-1.7-.675-1.05 0-1.725.675T21.6 16.65q0 1.05.7 1.725t1.7.675zm-1.9 15.5h4.1V22h-4.1z"/></svg>