<svg xmlns="http://www.w3.org/2000/svg" width="48" height="48" viewBox="0 -960 960 960"><path d="M640-175q-35 0-67-8t-60-22q67-48 104.5-120T655-480q0-82-37.5-154.5T513-755q28-14 60-22t67-8q127 0 216 89t89 216q0 127-89 216t-216 89Zm-320 0q-127 0-216-89T15-480q0-127 89-216t216-89q35 0 67 8t61 22q-23 16-42 36t-34 43q-12-7-26-10.5t-28-3.5q-87 0-147.5 61T110-480q0 87 60.5 148T318-270q14 0 28-3.5t26-10.5q15 23 34 43t42 36q-29 14-61 22t-67 8Zm160-46q-68-41-106.5-110T335-480q0-80 38.5-148.5T480-739q68 42 106.5 110.5T625-480q0 80-38.5 149T480-221Z"/></svg>