<svg xmlns="http://www.w3.org/2000/svg" width="48" height="48" viewBox="0 -960 960 960"><path d="M140-166q-39.05 0-66.525-27.975Q46-221.95 46-260v-440q0-35.875 24-62.438Q94-789 128-794h32l407 409H300v60h303q-3 11-5.5 21.5T595-282v116H140ZM825-16 12-831l55-56L880-71l-55 55ZM203-510v60h60v-60h-60Zm124 0v60h60v-60h-60ZM203-635v60h60v-60h-60Zm371 60h60v-60h-60v60Zm123 0h60v-60h-60v60ZM257-795h563q39.463 0 67.231 27.769Q915-739.463 915-700v311q-30.932-33-72.466-48.5Q801-453 757-449v-61h-60v80q-14 6-25.534 13.806Q659.931-408.389 649-398l-46-46h31v-66h-56v36L473-579h37v-56h-56v37L257-795Zm649 649-87-87v-79.535q0-20.198-12-33.331Q795-359 777-359q-19.29 0-30.065 11.767Q736.161-335.467 735-316l-36-36q10-23 30.5-37t47.5-14q36 0 61.5 25.913Q864-351.175 864-313v40h-.3q15.3 0 28.8 14t13.5 30v83ZM689-55q-15 0-28.5-14.706T647-100v-129.288Q647-244 658-257.5t26-15.5h-5l148 149v69H689Z"/></svg>