<svg xmlns="http://www.w3.org/2000/svg" width="48" height="48"><path d="M5.55 43.15q-1.95 0-3.325-1.375Q.85 40.4.85 38.45v-26.9q0-1.95 1.375-3.325Q3.6 6.85 5.55 6.85h36.9q1.95 0 3.325 1.375Q47.15 9.6 47.15 11.55v26.9q0 1.95-1.375 3.325Q44.4 43.15 42.45 43.15zm0-4.7h36.9v-26.9H5.55v26.9zM17.3 19.6h4.95v-4.85H17.3zm-8.5 0h4.95v-4.85H8.8zm5.9 15.6h18.6v-3.8H14.7zm11.05-15.6h4.95v-4.85h-4.95zm-8.45 8.35h4.95v-4.9H17.3zm-8.5 0h4.95v-4.9H8.8zm16.95 0h4.95v-4.9h-4.95zm8.5-8.35h4.95v-4.85h-4.95zm0 8.35h4.95v-4.9h-4.95zm-28.7 10.5v-26.9 26.9z"/></svg>