<svg xmlns="http://www.w3.org/2000/svg" width="48" height="48" viewBox="0 -960 960 960"><path d="M189-259v-472 472ZM401.74-55q-13.66 0-22.7-7.69T370-87v-286l57-169q5-14 17.08-22.5 12.07-8.5 28.41-8.5H804q14.48 0 26.74 8.5Q843-556 848-542l58 169v286q0 15.62-9.52 23.81T873-55h-20.26Q839-55 829.5-62.69 820-70.38 820-87v-38H455v38q0 16.62-9.23 24.31Q436.54-55 423-55h-21.26ZM450-418h375l-33.06-93H483l-33 93Zm71.89 192q19.09 0 32.1-12.89 13.01-12.9 13.01-32Q567-290 554.11-303q-12.9-13-32-13Q503-316 490-303.11q-13 12.9-13 32Q477-252 489.91-239q12.9 13 31.98 13Zm231 0q19.09 0 32.1-12.89 13.01-12.9 13.01-32Q798-290 785.11-303q-12.9-13-32-13Q734-316 721-303.11q-13 12.9-13 32Q708-252 720.91-239q12.9 13 31.98 13ZM437-192h402v-159H437v159ZM15-135v-124h80v-472q0-40.21 27.1-67.61Q149.2-826 189-826h542q40.21 0 67.61 27.39Q826-771.21 826-731v98h-95v-98H189v472h121v124H15Zm422-57v-159 159Z"/></svg>