<svg xmlns="http://www.w3.org/2000/svg" width="48" height="48" viewBox="0 -960 960 960"><path d="M159-460 25-693l280-162h85q4 35 34 62.5t55.5 27.5q26.5 0 57-27.5T570-855h85l279 163-133 232-66-36v154l-61 52q-9 8-13.857 10.125Q655.286-277.75 648-280v-363l121 65 47-83-189-110q-23.846 43.664-64.485 68.332Q521.877-678 479.938-678q-40.938 0-79.425-24.897Q362.026-727.794 337-773L144-661l49 83 119-65v230q-21 1-43.5 6.5T225-391v-105l-66 36Zm27 304-57-66 88.836-75.851Q243-319 273.777-329.5T334.77-340q30.215 0 60.505 10.5Q425.564-319 451-298l116 99q13 10 28 15t31.486 5Q641-179 657-184t28-15l90-78 56 68-88.836 75.851Q717-112 686.711-102t-60.505 10q-30.216 0-60.993-10T509-133l-115-99q-12-11-27.949-15.5Q350.102-252 335-252q-16 0-31 4.5T276-232l-90 76Zm294-522Z"/></svg>