<svg xmlns="http://www.w3.org/2000/svg" width="48" height="48" viewBox="0 0 48 48"><path d="M24 45.25q-4.4 0-8.275-1.65T8.95 39.05q-2.9-2.9-4.55-6.775Q2.75 28.4 2.75 24q0-4.45 1.65-8.325 1.65-3.875 4.55-6.75t6.775-4.55Q19.6 2.7 24 2.7q4.45 0 8.325 1.675 3.875 1.675 6.75 4.55t4.55 6.75Q45.3 19.55 45.3 24q0 4.4-1.675 8.275t-4.55 6.775q-2.875 2.9-6.75 4.55T24 45.25Zm-.05-7.7q5.7 0 9.65-3.95t3.95-9.55q0-5.7-3.95-9.65T24 10.45q-5.65 0-9.6 3.95-3.95 3.95-3.95 9.6 0 5.65 3.95 9.6 3.95 3.95 9.55 3.95Zm.05 2q6.5 0 11.025-4.55t4.525-11q0-6.5-4.525-11.025T24 8.45q-6.45 0-11 4.525T8.45 24q0 6.45 4.55 11t11 4.55Z"/></svg>