<svg xmlns="http://www.w3.org/2000/svg" width="48" height="48" viewBox="0 96 960 960"><path d="M121.143 681Q109 681 101.5 673.643t-7.5-19.5Q94 642 101.357 634.5t19.5-7.5q12.143 0 19.643 7.357t7.5 19.5q0 12.143-7.357 19.643t-19.5 7.5Zm0-156Q109 525 101.5 517.643t-7.5-19.5Q94 486 101.357 478.5t19.5-7.5q12.143 0 19.643 7.357t7.5 19.5q0 12.143-7.357 19.643t-19.5 7.5Zm118.962 335q-19.505 0-31.805-12.195-12.3-12.194-12.3-31.7 0-19.505 12.195-31.805 12.194-12.3 31.7-12.3 19.505 0 31.805 12.195 12.3 12.194 12.3 31.7 0 19.505-12.195 31.805-12.194 12.3-31.7 12.3Zm0-162q-19.505 0-31.805-12.195-12.3-12.194-12.3-31.7 0-19.505 12.195-31.805 12.194-12.3 31.7-12.3 19.505 0 31.805 12.195 12.3 12.194 12.3 31.7 0 19.505-12.195 31.805-12.194 12.3-31.7 12.3Zm0-156q-19.505 0-31.805-12.195-12.3-12.194-12.3-31.7 0-19.505 12.195-31.805 12.194-12.3 31.7-12.3 19.505 0 31.805 12.195 12.3 12.194 12.3 31.7 0 19.505-12.195 31.805-12.194 12.3-31.7 12.3Zm0-162q-19.505 0-31.805-12.195-12.3-12.194-12.3-31.7 0-19.505 12.195-31.805 12.194-12.3 31.7-12.3 19.505 0 31.805 12.195 12.3 12.194 12.3 31.7 0 19.505-12.195 31.805-12.194 12.3-31.7 12.3ZM402 714q-24.5 0-42.25-17.75T342 654q0-24.5 17.75-42.25T402 594q24.5 0 42.25 17.75T462 654q0 24.5-17.75 42.25T402 714Zm0-156q-24.5 0-42.25-17.75T342 498q0-24.5 17.75-42.25T402 438q24.5 0 42.25 17.75T462 498q0 24.5-17.75 42.25T402 558Zm.105 302q-19.505 0-31.805-12.195-12.3-12.194-12.3-31.7 0-19.505 12.195-31.805 12.194-12.3 31.7-12.3 19.505 0 31.805 12.195 12.3 12.194 12.3 31.7 0 19.505-12.195 31.805-12.194 12.3-31.7 12.3Zm0-480q-19.505 0-31.805-12.195-12.3-12.194-12.3-31.7 0-19.505 12.195-31.805 12.194-12.3 31.7-12.3 19.505 0 31.805 12.195 12.3 12.194 12.3 31.7 0 19.505-12.195 31.805-12.194 12.3-31.7 12.3Zm.038 582Q390 962 382.5 954.643t-7.5-19.5q0-12.143 7.357-19.643t19.5-7.5q12.143 0 19.643 7.357t7.5 19.5q0 12.143-7.357 19.643t-19.5 7.5Zm0-718Q390 244 382.5 236.643t-7.5-19.5q0-12.143 7.357-19.643t19.5-7.5q12.143 0 19.643 7.357t7.5 19.5q0 12.143-7.357 19.643t-19.5 7.5ZM558 714q-24.5 0-42.25-17.75T498 654q0-24.5 17.75-42.25T558 594q24.5 0 42.25 17.75T618 654q0 24.5-17.75 42.25T558 714Zm0-156q-24.5 0-42.25-17.75T498 498q0-24.5 17.75-42.25T558 438q24.5 0 42.25 17.75T618 498q0 24.5-17.75 42.25T558 558Zm.105 302q-19.505 0-31.805-12.195-12.3-12.194-12.3-31.7 0-19.505 12.195-31.805 12.194-12.3 31.7-12.3 19.505 0 31.805 12.195 12.3 12.194 12.3 31.7 0 19.505-12.195 31.805-12.194 12.3-31.7 12.3Zm0-480q-19.505 0-31.805-12.195-12.3-12.194-12.3-31.7 0-19.505 12.195-31.805 12.194-12.3 31.7-12.3 19.505 0 31.805 12.195 12.3 12.194 12.3 31.7 0 19.505-12.195 31.805-12.194 12.3-31.7 12.3Zm.038-136Q546 244 538.5 236.643t-7.5-19.5q0-12.143 7.357-19.643t19.5-7.5q12.143 0 19.643 7.357t7.5 19.5q0 12.143-7.357 19.643t-19.5 7.5Zm6 718Q552 962 544.5 954.643t-7.5-19.5q0-12.143 7.357-19.643t19.5-7.5q12.143 0 19.643 7.357t7.5 19.5q0 12.143-7.357 19.643t-19.5 7.5Zm155.962-102q-19.505 0-31.805-12.195-12.3-12.194-12.3-31.7 0-19.505 12.195-31.805 12.194-12.3 31.7-12.3 19.505 0 31.805 12.195 12.3 12.194 12.3 31.7 0 19.505-12.195 31.805-12.194 12.3-31.7 12.3Zm0-162q-19.505 0-31.805-12.195-12.3-12.194-12.3-31.7 0-19.505 12.195-31.805 12.194-12.3 31.7-12.3 19.505 0 31.805 12.195 12.3 12.194 12.3 31.7 0 19.505-12.195 31.805-12.194 12.3-31.7 12.3Zm0-156q-19.505 0-31.805-12.195-12.3-12.194-12.3-31.7 0-19.505 12.195-31.805 12.194-12.3 31.7-12.3 19.505 0 31.805 12.195 12.3 12.194 12.3 31.7 0 19.505-12.195 31.805-12.194 12.3-31.7 12.3Zm0-162q-19.505 0-31.805-12.195-12.3-12.194-12.3-31.7 0-19.505 12.195-31.805 12.194-12.3 31.7-12.3 19.505 0 31.805 12.195 12.3 12.194 12.3 31.7 0 19.505-12.195 31.805-12.194 12.3-31.7 12.3Zm119.038 301Q827 681 819.5 673.643t-7.5-19.5q0-12.143 7.357-19.643t19.5-7.5q12.143 0 19.643 7.357t7.5 19.5q0 12.143-7.357 19.643t-19.5 7.5Zm0-156Q827 525 819.5 517.643t-7.5-19.5q0-12.143 7.357-19.643t19.5-7.5q12.143 0 19.643 7.357t7.5 19.5q0 12.143-7.357 19.643t-19.5 7.5Z"/></svg>