<svg xmlns="http://www.w3.org/2000/svg" width="48" height="48" viewBox="0 -960 960 960"><path d="M600-55v-264h79v112q47-59 76.5-128T785-480q0-76-29.5-146T678-756v115h-79v-265h265v80H725q63 74 101 161.844T864-479q0 96-38 183.5T725-134h139v79H600ZM272-278h-80v52h80v-52Zm134 0h-80v52h80v-52Zm-1.525-187v33.054H495V-384h-90.315v39h-49.159v-39H240.831v39H192v-38.873h-90V-432h90.008v-33H241v33.054h114.66V-465h48.815ZM122-56q-6.833-13.727-15.583-25.966T87-105q47-6 92.5-19.5T251-177H97v-48h45.533v-101.13h128.631V-369H325v43.061h133.601v101.213H499V-177H345q33.311 33.079 75.155 51.04Q462-108 509-105q-8.905 11.25-16.952 23.625Q484-69 479.192-56 426-61 379.841-86.187 333.682-111.373 301-153q-28.884 44.961-78.442 64.98Q173-68 122-56Zm38.168-478L106-559q33.118-44.321 55.059-93.66Q183-702 196-755.56h-90V-813h103.74q4.56-21.928 6.84-44.952Q218.86-880.976 220-904l60 20q0 20-4.423 38.833-4.423 18.834-10.577 37.503h35.86q33.305 0 55.774 24.121t23.418 57.495Q381-686 375.043-647.625 369.087-609.25 355-572q-3 10-10.5 19t-17 15q-9.5 6-20.5 9t-22.897-.182L230-538l-9-54h54.814Q286-592 296-594.5t13-11.5q10.077-29.339 13.038-59.372Q325-695.404 325-725.667 325-742 312.5-753t-28.131-11H255.34q-14.993 60.504-38.636 118.257Q193.061-587.989 160.168-534ZM434-847q23.9 38.486 44.15 77.736Q498.4-730.014 514-689l-59 25q-9-44-28-83.5T380-823l54-24Z"/></svg>