<svg xmlns="http://www.w3.org/2000/svg" width="48" height="48" viewBox="0 -960 960 960"><path d="M300-291q12 0 21-8.5t9-21.5q0-12-9-21t-21-9q-12 0-21 9t-9 21q0 13 9 21.5t21 8.5Zm0-159q12 0 21-9t9-21q0-12-9-21t-21-9q-12 0-21 9t-9 21q0 12 9 21t21 9Zm0-160q12 0 21-8.5t9-21.5q0-12-9-21t-21-9q-12 0-21 9t-9 21q0 13 9 21.5t21 8.5Zm132 319h244v-60H432v60Zm0-159h244v-60H432v60Zm0-160h244v-60H432v60ZM189-95q-39.05 0-66.525-27.475Q95-149.95 95-189v-582q0-39.463 27.475-67.231Q149.95-866 189-866h582q39.463 0 67.231 27.769Q866-810.463 866-771v582q0 39.05-27.769 66.525Q810.463-95 771-95H189Zm0-94h582v-582H189v582Zm0-582v582-582Z"/></svg>