<svg xmlns="http://www.w3.org/2000/svg" width="48" height="48" viewBox="0 -960 960 960"><path d="M321-299.5q9-8.5 9-21t-9-21.5q-9-9-21-9t-21 9q-9 9-9 21.5t9 21q9 8.5 21 8.5t21-8.5Zm0-159.5q9-9 9-21t-9-21q-9-9-21-9t-21 9q-9 9-9 21t9 21q9 9 21 9t21-9Zm0-159.5q9-8.5 9-21t-9-21.5q-9-9-21-9t-21 9q-9 9-9 21.5t9 21q9 8.5 21 8.5t21-8.5ZM432-291h244v-60H432v60Zm0-159h244v-60H432v60Zm0-160h244v-60H432v60ZM189-95q-39.05 0-66.53-27.47Q95-149.95 95-189v-582q0-39.46 27.47-67.23Q149.95-866 189-866h582q39.46 0 67.23 27.77Q866-810.46 866-771v582q0 39.05-27.77 66.53Q810.46-95 771-95H189Z"/></svg>