<svg xmlns="http://www.w3.org/2000/svg" width="48" height="48" viewBox="0 96 960 960"><path d="M146.14 831Q125 831 110 816.325q-15-14.676-15-36Q95 759 110.175 744q15.176-15 36.316-15 21.141 0 35.825 15.163Q197 759.326 197 780.175 197 802 182.378 816.5 167.756 831 146.14 831Zm0-204Q125 627 110 611.842t-15-36Q95 555 110.175 540q15.176-15 36.316-15 21.141 0 35.825 15.158 14.684 15.158 14.684 36T182.378 612q-14.622 15-36.238 15Zm0-205Q125 422 110 407.325q-15-14.676-15-36Q95 350 110.175 335q15.176-15 36.316-15 21.141 0 35.825 15.163Q197 350.326 197 371.175 197 393 182.378 407.5 167.756 422 146.14 422ZM300 828v-95h565v95H300Zm0-205v-94h565v94H300Zm0-204v-95h565v95H300Z"/></svg>