<svg xmlns="http://www.w3.org/2000/svg" width="48" height="48" viewBox="0 96 960 960"><path d="M230.118 918Q179 918 141.5 884.583 104 851.167 102 800H17V327q0-39.05 27.475-66.525Q71.95 233 111 233h579v155h98l155 207.556V800h-83q-3 51.167-40.382 84.583Q782.235 918 731.118 918 680 918 642.5 884.583 605 851.167 603 800H358q-3 50-39.882 84-36.883 34-88 34ZM230 846q24 0 41-17t17-41q0-24-17-41t-41-17q-24 0-41 17t-17 41q0 24 17 41t41 17ZM111 706h26.347q16.653-22 40.592-35t51-13q27.061 0 51.536 12.875Q304.951 683.75 321 706h275V327H111v379Zm620 140q24 0 41-17t17-41q0-24-17-41t-41-17q-24 0-41 17t-17 41q0 24 17 41t41 17Zm-41-215h162L741 483h-51v148ZM354 527Z"/></svg>