<svg xmlns="http://www.w3.org/2000/svg" width="48" height="48" viewBox="0 -960 960 960"><path d="M229-55q-39.8 0-66.9-27.1Q135-109.2 135-149v-662q0-40.213 27.1-67.606Q189.2-906 229-906h502q40.213 0 67.606 27.394Q826-851.213 826-811v662q0 39.8-27.394 66.9Q771.213-55 731-55H229Zm0-94h502v-662H229v662Zm250.813-59q76.697 0 130.942-54.058Q665-316.115 665-392.813q0-76.697-54.058-130.942Q556.885-578 480.187-578q-76.697 0-130.942 54.058Q295-469.885 295-393.187q0 76.697 54.058 130.942Q403.115-208 479.813-208Zm.187-91q-19.681 0-38.23-7-18.548-7-32.77-20l137-137q15 12.647 21.5 30.83 6.5 18.184 6.5 39.069 0 39.208-27.242 66.655Q519.517-299 480-299ZM320.175-685Q336-685 346.5-695.688t10.5-26.487Q357-738 345.687-748.5T319.825-759Q304-759 293.5-748.325q-10.5 10.676-10.5 26Q283-707 293.675-696q10.676 11 26.5 11Zm148 0Q484-685 494.5-696.313t10.5-25.862Q505-738 494.325-748.5q-10.676-10.5-26.5-10.5Q452-759 441.5-748.325q-10.5 10.676-10.5 26Q431-707 441.675-696q10.676 11 26.5 11ZM229-149v-662 662Z"/></svg>