<svg xmlns="http://www.w3.org/2000/svg" width="48" height="48" viewBox="0 -960 960 960"><path d="M483-780q-24 0-41.5-17.5T424-839.266q0-19.223 13.5-39.979Q451-900 483-931q32 31 45.5 51.755 13.5 20.756 13.5 39.979Q542-815 524.5-797.5T483-780Zm-211 0q-24 0-41.5-17.5T213-839.266q0-19.223 13.5-39.979Q240-900 272-931q32 31 45.5 51.755 13.5 20.756 13.5 39.979Q331-815 313.5-797.5T272-780Zm420 0q-24 0-41.5-17.5T633-839.266q0-19.223 13.5-39.979Q660-900 692-931q32 31 45.5 51.755 13.5 20.756 13.5 39.979Q751-815 733.5-797.5T692-780ZM202-101v31q0 22.775-16 37.888Q170-17 147-17h3q-23 0-39-16T95-72v-329.143L181-661q6.027-22.3 24.694-34.65Q224.36-708 248-708h464q23.64 0 42.307 12.35Q772.973-683.3 779-661l87 259.857V-72q0 23-16.7 39T810-17h2q-23 0-39-15.112Q757-47.225 757-70v-31H202Zm12-355h533l-52-157H265l-51 157Zm-25 60v201-201Zm102 155q22 0 38-15.5t16-38.5q0-23-16-39.5T291-351q-24 0-40 16.5T235-295q0 23 16 38.5t40 15.5Zm380 0q23 0 39.5-15.5T727-295q0-23-16.5-39.5T671-351q-23 0-38.5 16.5T617-295q0 23 15.5 38.5T671-241Zm-482 46h582v-201H189v201Z"/></svg>