<svg xmlns="http://www.w3.org/2000/svg" width="48" height="48" viewBox="0 96 960 960"><path d="M776 822q27.917 0 47.458-19.559Q843 782.882 843 754.941T823.458 708Q803.917 689 776 689q-27.5 0-46.75 19.353t-19.25 47Q710 783 729.25 802.5T776 822Zm-.214 133Q809 955 838 939.5t47-42.5q-25-14-52.329-22.5T776 866q-28 0-55.5 8.5T667 897q18 27 46.786 42.5 28.785 15.5 62 15.5ZM367 394h215v-71q0-50-31.015-81-31.014-31-76.75-31-45.318 0-76.277 31Q367 273 367 323v71Zm219 605H224q-38.462 0-66.731-27.975Q129 943.05 129 905V489q0-38.463 28.269-66.731Q185.538 394 224 394h49v-71q0-90.34 57.76-148.67 57.759-58.33 143-58.33 85.24 0 143.74 59Q676 234 676 323v71h49q38.463 0 66.731 28.269Q820 450.537 820 489v93q-20-4-45-3.5t-50 4.5v-94H224v416h314q6 24 18 48.5t30 45.5Zm190 26q-79 0-136-57t-57-136q0-79 57-136t136-57q79 0 136 57t57 136q0 79-57 136t-136 57ZM224 489v416-416Z"/></svg>