<svg xmlns="http://www.w3.org/2000/svg" width="48" height="48"><path d="m26.2 34.9 7-7q.55-.55.8-1.225t.25-1.425q0-1.6-1.125-2.725T30.4 21.4q-1 0-2 .65t-2.2 2.1Q25 22.7 24 22.05q-1-.65-2-.65-1.6 0-2.725 1.125T18.15 25.25q0 .75.25 1.425t.8 1.225zm2.95 9.45q-1.4 1.4-3.375 1.4t-3.375-1.4L3.65 25.6Q2.9 24.85 2.6 24q-.3-.85-.3-1.8V7q0-2 1.35-3.375T7 2.25h15.2q.95 0 1.85.325.9.325 1.65 1.075l18.65 18.6q1.45 1.45 1.45 3.45t-1.45 3.45zm-3.2-3.25 15.2-15.2L22.2 7H7v15.2zm-13.7-26.3q1.05 0 1.825-.775.775-.775.775-1.825 0-1.05-.775-1.825Q13.3 9.6 12.25 9.6q-1.05 0-1.825.775-.775.775-.775 1.825 0 1.05.775 1.825.775.775 1.825.775zM7 7z"/></svg>