<svg xmlns="http://www.w3.org/2000/svg" width="48" height="48" viewBox="0 96 960 960"><path d="M152 921q-40 0-68.5-27.975T55 827V325q0-38.463 27.475-66.731Q109.95 230 149 230h662q38.463 0 66.731 28.269Q906 286.537 906 325v227h-48l-47-1V408L480 625 149 408v419h529v94H152Zm328-383 331-213H149l331 213ZM149 827V325v502Zm624 94q-14 0-24.5-10T738 886V766q0-14 12-24.5t28-10.5v-45q0-29.938 22.044-52.469 22.045-22.531 53-22.531Q884 611 906 633.531q22 22.531 22 52.469v45q17 0 28.5 10.5T968 766v120q0 15-10 25t-25 10H773Zm35-190h90v-44.912Q898 668 885.088 654.5q-12.913-13.5-32-13.5Q834 641 821 654.438 808 667.875 808 686v45Z"/></svg>