<svg xmlns="http://www.w3.org/2000/svg" width="48" height="48" viewBox="0 0 48 48"><path d="M24 38.95q-3.25 0-6.425-.275T11.2 37.95q-1.8-.3-2.975-1.725T7.05 32.95v-.25q-3.15-.9-5.25-3.225T-.3 24q0-3.1 2.125-5.375T7.05 15.35V14q0-2.05 1.4-3.525T11.9 9q1.45 0 2.925.275 1.475.275 3.025.375 1.5.1 3.05.175 1.55.075 3.1.075t3.075-.075Q28.6 9.75 30.2 9.65q1.45-.05 2.9-.35T36 9q2.1 0 3.55 1.45Q41 11.9 41 14v1.35q3.05 1 5.2 3.275Q48.35 20.9 48.35 24q0 3.15-2.15 5.425T41 32.65V33q0 1.85-1.2 3.25t-2.95 1.65q-3.2.45-6.4.75t-6.45.3Zm0-4.35q3.15 0 6.325-.3 3.175-.3 6.325-.8h-.025.025V13.3q-3.15.45-6.3.7-3.15.25-6.35.25-3.15 0-6.325-.25-3.175-.25-6.275-.7h-.025.025v20.2q3.15.5 6.275.8 3.125.3 6.325.3Zm-.15-3.45q1.95 0 3.9-.25t3.95-.8q.8-.25 1.25-1.05.45-.8.25-1.7-.25-.85-1.05-1.275-.8-.425-1.65-.225-1.7.5-3.375.725-1.675.225-3.325.225-1.6 0-3.15-.225-1.55-.225-3.05-.725-.9-.3-1.7.2-.8.5-1.05 1.35-.25.9.225 1.625T16.4 30.05q1.75.55 3.625.825 1.875.275 3.825.275ZM7.05 28.4v-8.75q-1.4.5-2.2 1.7-.8 1.2-.8 2.65 0 1.5.8 2.725t2.2 1.675ZM41 28.35q1.35-.45 2.175-1.65Q44 25.5 44 24q0-1.45-.85-2.65T41 19.6Zm-17.2-5.2q1.95 0 3.925-.25 1.975-.25 3.975-.8.8-.25 1.25-1.05.45-.8.25-1.7-.25-.85-1.05-1.275-.8-.425-1.65-.225-1.7.5-3.375.725-1.675.225-3.325.225-1.55 0-3.125-.25t-3.075-.7q-.9-.2-1.7.225-.8.425-1.05 1.275-.25.9.2 1.7.45.8 1.35 1.05 1.8.55 3.65.8 1.85.25 3.75.25ZM11.4 33.5V13.3v20.2Z"/></svg>