<svg xmlns="http://www.w3.org/2000/svg" width="48" height="48" viewBox="0 -960 960 960"><path d="M394-256v-134.972h-58V-528q0-20 27.573-32.5Q391.145-573 436-573q44.427 0 71.714 12.5Q535-548 535-528v137.521h-57.75V-256H394Zm41.698-346q-20.703 0-36.2-14.8Q384-631.6 384-653q0-21.4 15.442-36.7Q414.883-705 435.5-705q20.617 0 36.058 15.3Q487-674.4 487-653q0 21.4-15.3 36.2-15.3 14.8-36.002 14.8ZM436-91q-163.647 0-276.823-112.613Q46-316.226 46-479.483q0-81.128 30.5-152.323Q107-703 159.5-756t123.682-83.5Q354.364-870 436-870q80.728 0 152.364 31Q660-808 712.5-755.5T795-632.318Q825-561.636 825-482v12l70-70 50 50-167 167-167-167 50-50 70 70v-13q0-121-88.5-206.5t-207-85.5q-121.5 0-208 86.379Q141-602.243 141-480q-1 121 85.876 208Q313.753-185 436-185q55.637 0 110.579-22.5Q601.522-230 645-275l67 68q-52 54-124.5 85T436-91Z"/></svg>