<svg xmlns="http://www.w3.org/2000/svg" width="48" height="48" viewBox="0 -960 960 960"><path d="M306.5-428.08Q269-467.17 269-523v-246q0-52.5 37.56-90.25t92-37.75q54.44 0 91.94 37.75T528-769v246q0 55.83-37.62 94.92-37.62 39.08-92 39.08t-91.88-39.08ZM440-74h-83v-139.1Q238-226 159-314.12 80-402.24 80-523h83q0 97 68.49 164 68.5 67 167.51 67 10.15 0 20.33-1.5Q429.5-295 440-297v223Zm275.5-26q11.5 0 19.5-7.5t8-19.5q0-12-7.75-20t-19.75-8q-13 0-20.25 8T688-127q0 12 7.4 19.5t20.1 7.5ZM688-195h55v-195h-55v195Zm-106 84.6q-56-55.4-56-134T582-379q56-56 133.5-56t134 55.87Q906-323.27 906-244q0 78.43-56.5 133.72Q793-55 715.5-55T582-110.4Z"/></svg>