<svg xmlns="http://www.w3.org/2000/svg" width="48" height="48" viewBox="0 -960 960 960"><path d="m382-26-52-51 52-51H175v-71h209l-54-54 52-50 139 138L382-26ZM269-443q49-20 102.51-30.5 53.51-10.5 108.5-10.5 53.99 0 107.73 10.5Q641.49-463 691-443v-388H269v388Zm305 315v-71h212v71H574ZM400.5-574.74q-32.5-32.73-32.5-79.5 0-46.76 32.74-79.26 32.73-32.5 79.5-32.5 46.76 0 79.26 32.74 32.5 32.73 32.5 79.5 0 46.76-32.74 79.26-32.73 32.5-79.5 32.5-46.76 0-79.26-32.74ZM513-620.83q13-12.84 13-32.52 0-19.69-13.04-33.67-13.03-13.98-33-13.98Q460-701 447-687.09t-13 33.6q0 19.68 13.04 32.59 13.03 12.9 33 12.9Q500-608 513-620.83ZM480-402Zm0-253ZM175-283v-548q0-39.46 27.48-67.23Q229.95-926 269-926h422q39.46 0 67.23 27.77Q786-870.46 786-831v148q18 7 30 23.45 12 16.46 12 36.13V-552q0 21-12 38t-30 24.2V-283h-95v-71q-43-23-94.42-35.5T480.08-402Q415-402 364-389.5T269-354v71h-94Z"/></svg>