<svg xmlns="http://www.w3.org/2000/svg" width="48" height="48" viewBox="0 -960 960 960"><path d="M265-55q-40 0-67-27t-27-67v-545L21-844l51-51L895-73l-51 52-356-356q-23-16-42.5-21T407-383l-51 53L566-55H265Zm353-379L187-867q14-17 34-28t44-11h379q39 0 66.5 27.5T738-811v117H618v260ZM480-674.5q10-10.5 10-26T480-726q-10-10-25.5-10t-26 10Q418-716 418-700.5t10.5 26q10.5 10.5 26 10.5t25.5-10.5ZM886-168 678-376v-258h54q62 0 108 40t46 100v326ZM686-55q-18 0-35-5.5T623-81L434-326l15-16q11-11 26.5-14.5t29.5-.5l134 29 217 217q-15 25-41 40.5T757-55h-71Z"/></svg>