<svg xmlns="http://www.w3.org/2000/svg" width="48" height="48" viewBox="0 0 48 48"><path d="M29.15 35.65h17.7v4.7h-17.7Zm-19.7 2.9V9.45v29.1Zm14.6-26.35q-2.55 0-4.25 1.7-1.7 1.7-1.7 4.2 0 2.55 1.7 4.225Q21.5 24 24.05 24q2.5 0 4.175-1.675Q29.9 20.65 29.9 18.1q0-2.5-1.675-4.2-1.675-1.7-4.175-1.7Zm-3.2 4.9q.4 0 .7.3.3.3.3.7 0 .4-.3.7-.3.3-.7.3-.4 0-.7-.3-.3-.3-.3-.7 0-.4.3-.7.3-.3.7-.3Zm3.15 0q.4 0 .7.3.3.3.3.7 0 .4-.3.7-.3.3-.7.3-.4 0-.7-.3-.3-.3-.3-.7 0-.4.3-.7.3-.3.7-.3Zm3.15 0q.4 0 .7.3.3.3.3.7 0 .4-.3.7-.3.3-.7.3-.4 0-.7-.3-.3-.3-.3-.7 0-.4.3-.7.3-.3.7-.3ZM9.45 43.25q-1.95 0-3.325-1.375Q4.75 40.5 4.75 38.55V9.45q0-1.95 1.375-3.35Q7.5 4.7 9.45 4.7h29.1q1.95 0 3.35 1.4 1.4 1.4 1.4 3.35V26.2h-4.75V9.45H9.45v29.1H26.2v4.7Z"/></svg>