<svg xmlns="http://www.w3.org/2000/svg" width="48" height="48" viewBox="0 -960 960 960"><path d="M149-135q-39 0-66.5-26.5T55-227v-504q0-31 17-55t46-34h20l457 457-99 99v129H149Zm490-270L218-826h88l84 173-20-21h145l-74-152h149l74 152h134l-74-152h87q39 0 67 28t28 67v201q-47-21-89.5-15.5T739-505L639-405Zm202 64 30-32-37-37-31 31 38 38Zm-17 121L681-363l100-100q11-11 24.5-16.5T834-485q14 0 28 6t25 17l37 37q11 11 16.5 24.5T946-373q0 15-6 29t-17 25l-99 99Zm98 184-50 51-142-141-30 31H556v-144l31-31L0-857l50-51L922-36Z"/></svg>