<svg xmlns="http://www.w3.org/2000/svg" width="48" height="48"><path d="m37.65 32.7-3.9-3.9 4.85-4.85-15-15-4.9 4.85-3.9-3.95 5.5-5.5q.7-.7 1.575-1 .875-.3 1.725-.3.95 0 1.8.3.85.3 1.45 1L43.1 20.6q1.4 1.4 1.35 3.375-.05 1.975-1.35 3.275zm2.65 12.9-7.8-7.8-5.55 5.65q-.65.7-1.5 1.025-.85.325-1.8.325-.95 0-1.825-.35t-1.575-1L4 27.2q-.6-.65-.925-1.525-.325-.875-.325-1.825t.325-1.8q.325-.85.925-1.5l5.65-5.6-7.45-7.5L4.7 4.9l38.2 38.2zM8.55 23.9 23.6 38.95l4.95-5L26.6 32l-3 3.1-11.2-11.2 3.05-3-1.95-1.95-4.95 4.95zm23.25 3L20.65 15.75l2.95-2.95 11.15 11.15z"/></svg>