<svg xmlns="http://www.w3.org/2000/svg" width="48" height="48" viewBox="0 96 960 960"><path d="M173 1014q-40 0-67-27t-27-68h189q-101-62-152.5-153T64 566q0-85 33-160.5t90-132q57-56.5 132.5-90T480 150q85 0 160.5 33.5t132.5 90q57 56.5 90 132T896 566q0 109-51.5 200T692 919h190q0 41-27.5 68t-67.5 27H173Zm307-127q132 0 227-94t95-227q0-132-95-226.5T480 245q-132 0-226.5 94.5T159 566q0 133 94.5 227T480 887ZM253 715h189v-48H330l-1-2q12-9 30-23.5t30-24.5q27-25 39-46.5t12-51.5q0-35-25-62t-63-27q-36 0-63 19t-40 52l43 18q7-21 22-31t37-10q16 0 30 8.5t14 31.5q0 25-14.5 44.5T333 609q-22 18-38 29t-42 31v46Zm335 6q55 0 84-42.5T701 576q0-60-29.5-103T588 430q-56 0-84 43t-28 103q0 60 28 102.5t84 42.5Zm0-48q-26 0-45-21t-19-76q0-51 17-74.5t47-23.5q29 0 47 23.5t18 74.5q0 55-19.5 76T588 673ZM480 887q-132 0-226.5-94T159 566q0-132 94.5-226.5T480 245q132 0 227 94.5T802 566q0 133-95 227t-227 94Z"/></svg>