<svg xmlns="http://www.w3.org/2000/svg" width="48" height="48" viewBox="0 96 960 960"><path d="M490 929h87v137h-87V929Zm223-116 96 95-61 61-95-96 60-60ZM0 96h83.752Q119 96 143 120.031T167 179v57q32-53.389 85.5-86.194Q306 117 373.443 117H579q40.463 0 67.731 27.5Q674 172 674 211v184l-79-78q-44.182-43.584-100.091-69.292Q439 222 376 222q-63 0-115.5 22.835Q208 267.671 167 310v82q37-56 89.5-85.5T376 277q51.163 0 96.878 20.972T555 355l138 137q27 27.967 27 66.484Q720 597 693 624L468 849q-27 28-65.516 28.5Q363.967 878 336 850L199 714q-8.75-8.667-16.875-19.333Q174 684 167 673v66q0 35.35-24.178 59.675Q118.644 823 83.5 823H0V96Zm768 555h137v87H768v-87Z"/></svg>