<svg xmlns="http://www.w3.org/2000/svg" width="48" height="48" viewBox="0 96 960 960"><path d="M283.175 652q15.225 0 25.525-9.975 10.3-9.976 10.3-26.2 0-16.225-10.475-26.025-10.476-9.8-25.7-9.8-16.225 0-26.025 9.975-9.8 9.976-9.8 26.2 0 16.225 9.975 26.025 9.976 9.8 26.2 9.8Zm131.018 0Q430 652 440 642.025q10-9.976 10-26.2 0-16.225-9.975-26.025-9.976-9.8-26.2-9.8-14.8 0-24.812 10.475Q379 600.951 379 616.175q0 15.225 10.193 25.525 10.193 10.3 25 10.3Zm131.982 0q14.8 0 24.812-10.475Q581 631.049 581 615.825q0-15.225-10.193-25.525-10.193-10.3-25-10.3Q530 580 520 589.975q-10 9.976-10 26.2 0 16.225 9.975 26.025 9.976 9.8 26.2 9.8Zm131 0q16.225 0 26.025-9.975 9.8-9.976 9.8-26.2 0-16.225-9.975-26.025-9.976-9.8-26.2-9.8-15.225 0-25.525 9.975-10.3 9.976-10.3 26.2 0 16.225 10.475 26.025 10.476 9.8 25.7 9.8ZM480 1024q-84 0-158.721-32.1t-129.9-87.279q-55.179-55.179-87.279-129.9Q72 700 72 616q0-156 103-270.5T433 212V106q0-19.75 13.675-33.375Q460.351 59 480.175 59 500 59 513.5 72.625 527 86.25 527 106v106q155 19 258 133.5T888 616q0 84-32.1 158.721t-87.279 129.9q-55.179 55.179-129.9 87.279Q564 1024 480 1024Zm0-95q130.879 0 222.439-91.061Q794 746.879 794 616t-91.561-222.439Q610.879 302 480 302t-221.939 91.561Q167 485.121 167 616t91.061 221.939Q349.121 929 480 929Zm0-313Z"/></svg>