<svg xmlns="http://www.w3.org/2000/svg" width="48" height="48" viewBox="0 0 48 48"><path d="M25.25 26.65Zm.95 20.1H20l.45-.725q.45-.725.975-1.575.525-.85.975-1.575l.45-.725h2.05q4.75.2 8.825-2.275Q37.8 37.4 40.25 33.65q-4.2-.6-8.1-2.3-3.9-1.7-6.85-4.7-3.05-2.95-4.725-6.8-1.675-3.85-2.325-8-3.4 2.3-5.725 5.65Q10.2 20.85 10 24.95v.575q0 .275.05.525l-.725.225q-.725.225-1.625.5t-1.625.5l-.725.225q-.05-.55-.075-.95-.025-.4-.025-.75 0-7.75 4.975-13.6T22.9 5q-.6 5.05.725 9.9 1.325 4.85 4.975 8.45 3.55 3.6 8.425 4.925 4.875 1.325 9.925.975-1.3 7.65-7.15 12.575-5.85 4.925-13.6 4.925ZM12 42h9q1.3 0 2.225-.875t.925-2.225q0-1.3-.9-2.225t-2.2-.925h-2.5l-.95-2.3q-.7-1.65-2.175-2.65-1.475-1-3.225-1.05-2.65 0-4.5 1.825T5.85 35.9q0 2.55 1.8 4.325Q9.45 42 12 42Zm0 4.75q-4.5 0-7.675-3.175T1.15 35.9q0-4.55 3.175-7.725T12 25q3.1 0 5.725 1.65 2.625 1.65 3.975 4.4 3 .3 5.075 2.525T28.85 38.9q0 3.25-2.3 5.55T21 46.75Z"/></svg>