<svg xmlns="http://www.w3.org/2000/svg" width="48" height="48"><path d="M44.3 49.7 39 44.4q-.35.3-1.025.525-.675.225-1.425.225h-25.1q-2 0-3.35-1.375T6.75 40.45v-20.8q0-1.55.95-2.85t2.25-1.45L-.7 4.75 1.85 2.2l44.95 45zm-3-13.05L19.55 14.9h9.8v-3.65q0-2.3-1.525-3.9T24 5.75q-2.3 0-3.825 1.6-1.525 1.6-1.525 3.8V14L14.5 9.8q.1-3.8 2.875-6.3T24 1q4.15 0 7.1 2.95 2.95 2.95 2.95 7.2v3.75h2.5q2 0 3.375 1.375T41.3 19.65zm-17.25-2.8q.9 0 1.7-.35.8-.35 1.35-1.1l-5.4-5.35q-.75.6-1.125 1.4-.375.8-.375 1.65 0 1.55 1.125 2.65 1.125 1.1 2.725 1.1z"/></svg>