<svg xmlns="http://www.w3.org/2000/svg" width="48" height="48"><path d="M42.25 46.75 37.8 42.3q-.65.55-1.425.825-.775.275-1.675.275 0 1.2-.825 2.05-.825.85-2.025.85t-2.025-.85Q29 44.6 29 43.4h-9.95q0 1.2-.85 2.05-.85.85-2.05.85-1.15 0-2-.85-.85-.85-.85-2.05-1.95 0-3.325-1.375Q8.6 40.65 8.6 38.7V14.95q0-.4.025-.825.025-.425.175-.825L1.1 5.6l2.55-2.55L44.8 44.2zM25.55 30.1l-3.1-3.2v9.4h3.1zm6.05 6-2.95-3v3.2h2.95zM19.35 23.85 16.2 20.7v15.6h3.15zm1.2-13.3h6.9V6h-6.9zm18.9 23.3L31.8 26.2v-8.5h-3.15v5.35L25.55 20v-2.3H24v.7l-8.7-8.7h1.55V4.65q0-1 .675-1.7t1.675-.7h9.6q1 0 1.675.7t.675 1.7v5.9h3.55q1.95 0 3.35 1.4 1.4 1.4 1.4 3.35z"/></svg>