<svg xmlns="http://www.w3.org/2000/svg" width="48" height="48" viewBox="0 -960 960 960"><path d="m845-25-70-70H149q-40.05 0-67.025-26.975Q55-148.95 55-189v-495q0-40.463 26.975-67.731Q108.95-779 149-779h36v95L22-848l51-51L896-76l-51 51Zm61-143L653-419q3-39.388-8-76.694-11-37.306-39.017-64.814Q577-589 539.5-600.5 502-612 462-609L285-787l72.4-79H603l84 87h124q40.463 0 67.731 27.269Q906-724.463 906-684v516Zm-422.602-91q25.513 0 51.058-7Q560-273 583-288L332-539q-15 23-22 48.544-7 25.545-7 51.058 0 75.411 52.494 127.904Q407.987-259 483.398-259ZM479-339q-39.68 0-67.84-28.16Q383-395.32 383-435q0-19 7-37t21-32l137 137q-14 14-32 21t-37 7Z"/></svg>