<svg xmlns="http://www.w3.org/2000/svg" width="48" height="48" viewBox="0 0 48 48"><path d="m36.7 41-3.3-3.3 2.8-2.85h-7.85v-4.7h7.85l-2.8-2.85 3.3-3.3 8.5 8.5ZM7.85 34.85q-1.95 0-3.325-1.375Q3.15 32.1 3.15 30.15V9.85q0-1.95 1.375-3.325Q5.9 5.15 7.85 5.15h26.3q1.95 0 3.325 1.375Q38.85 7.9 38.85 9.85V19.9q-.55-.15-1.15-.2-.6-.05-1.2-.05t-1.175.075q-.575.075-1.175.175V13L20.8 22.45l-12.95-9.4v17.1h16q-.15.7-.175 1.175-.025.475-.025 1.025 0 .55.05 1.2.05.65.2 1.3Zm3.6-25 9.35 6.8 9.55-6.8Zm-3.6 20.3V9.85v20.3Z"/></svg>