<svg xmlns="http://www.w3.org/2000/svg" width="48" height="48" viewBox="0 -960 960 960"><path d="M105-135q-40.21 0-67.61-27.1Q10-189.2 10-229v-582q0-40.21 27.39-67.61Q64.79-906 105-906h231q38.75 0 66.38 27.39Q430-851.21 430-811v199h-66.71q-55.46 0-93.87 38.59Q231-534.82 231-480.12t38.63 93.41Q308.25-348 363-348h67v119q0 39.8-27.62 66.9Q374.75-135 336-135H105Zm115-550q15 0 26-11t11-26q0-15-11-26t-26-11q-15 0-26 11t-11 26q0 15 11 26t26 11Zm95.33 245q-16.33 0-27.83-11.87t-11.5-28.5q0-16.63 11.81-28.13 11.82-11.5 28.37-11.5 16.12 0 27.47 11.87Q355-496.26 355-479.63q0 16.63-11.67 28.13-11.66 11.5-28 11.5Zm164.3 0q-16.63 0-28.13-11.87t-11.5-28.5q0-16.63 11.87-28.13t28.5-11.5q16.63 0 28.13 11.87t11.5 28.5q0 16.63-11.87 28.13t-28.5 11.5ZM625-55q-40.21 0-67.61-27.1Q530-109.2 530-149v-199h64q54.75 0 93.38-38.59Q726-425.18 726-479.88t-38.62-93.41Q648.75-612 594-612h-64v-119q0-40.21 27.39-67.61Q584.79-826 625-826h231q38.75 0 66.38 27.39Q950-771.21 950-731v582q0 39.8-27.62 66.9Q894.75-55 856-55H625Zm19.33-385q-16.33 0-27.83-11.87t-11.5-28.5q0-16.63 11.81-28.13 11.82-11.5 28.37-11.5 16.12 0 27.47 11.87Q684-496.26 684-479.63q0 16.63-11.67 28.13-11.66 11.5-28 11.5ZM740-601q15 0 26-11t11-26.5q0-15.5-11-26.5t-26-11q-15 0-26 11t-11 26.5q0 15.5 11 26.5t26 11Z"/></svg>