<svg xmlns="http://www.w3.org/2000/svg" width="48" height="48" viewBox="0 96 960 960"><path d="M438 1056h314q63 0 107-43.5T903 906V368q0-47-30.5-77.5T795 260q-8.25 0-15.5 2t-13.5 7v-44q0-38-27.35-65T670 133q-13 0-25 3.5T622 148q-9-24-29.5-38T546 96q-42 0-67.5 25T449 179v26q-6.25-5-13.5-8t-15.5-3q-47 0-77.5 30T312 302v377l-135-76q-17-9-35-4t-32 19l-93 84 297 308q24 25 56.5 35.5T438 1056Zm10-83q-21 0-41-4t-35-18L139 709l22-21 234 125V302q0-10 7-17.5t18-7.5q11 0 18 7.5t7 17.5v297h75V204q0-10 7-17.5t18-7.5q11 0 18 7.5t7 17.5v395h75V241q0-10 7-17.5t18-7.5q11 0 18 7.5t7 17.5v358h75V368q0-10 7-17.5t18-7.5q11 0 18 7.5t7 17.5v515q0 37-26.5 63.5T729 973H448Z"/></svg>