<svg xmlns="http://www.w3.org/2000/svg" width="48" height="48" viewBox="0 -960 960 960"><path d="M505-467Zm19 402H400l9-14.5q9-14.5 19.5-31.5t19.5-31.5l9-14.5h41q95 4 176.5-45.5T805-327q-84-12-162-46t-137.5-94q-60.5-59-94-136T365-763q-68 46-114.5 113T200-501v11.5q0 5.83 1 10.5l-14.54 4.72q-14.54 4.72-32.59 9.78-18.05 5.06-32.62 9.78L106.67-450l-1.17-19.2q-.5-8.2-.5-14.59Q105-639 204.5-756 304-873 458-900q-12 101 14.5 198.13Q499-604.73 572-532.63q71 72.1 168.5 98.14Q838-408.45 939-415.47q-26 153.2-143 251.84Q679-65 524-65Zm-284-95h180q26.25 0 44.63-17.56Q483-195.11 483-221.76q0-26.66-17.91-44.95Q447.17-285 421-285h-49.83L352-331q-13.78-32.67-43.58-52.83Q278.63-404 244-405q-53.08 0-90.04 36.62Q117-331.75 117-282.35q0 51.68 35.88 87.02Q188.75-160 240-160Zm0 95q-89.54 0-153.27-63.57Q23-192.15 23-282.35q0-90.19 63.73-153.92Q150.46-500 240-500q62.25 0 114.62 33Q407-434 434-379q60 6 101.5 50.62T577-222q0 64.53-46.24 110.76Q484.53-65 420-65H240Z"/></svg>