<svg xmlns="http://www.w3.org/2000/svg" width="48" height="48" viewBox="0 96 960 960"><path d="M111 919q-38.775 0-66.388-27.612Q17 863.775 17 825V376h94v449h689v94H111Zm144-143q-39.725 0-67.363-27.638Q160 720.725 160 681V305q0-39.188 27.637-67.094Q215.275 210 255 210h594q38.775 0 66.387 27.906Q943 265.812 943 305v376q0 39.725-27.613 67.362Q887.775 776 849 776H255Zm88-83q0-42-29-71t-71-29v100h100Zm417 0h100V593q-42 0-71 29t-29 71Zm-209-80q50 0 85-35t35-85q0-50-35-85t-85-35q-50 0-85 35t-35 85q0 50 35 85t85 35ZM243 393q42 0 71-29.5t29-70.5H243v100Zm617 0V293H760q0 41 29 70.5t71 29.5Z"/></svg>