<svg xmlns="http://www.w3.org/2000/svg" width="48" height="48" viewBox="0 96 960 960"><path d="m55 1001 851-851v476q-21-10-45-16.5t-49-8.5V377L282 907h242q3 26 9 49.5t17 44.5H55Zm227-94 530-530-265 265-265 265Zm465.087 171L742 1026q-21-5-38-16t-29-22l-46 21-44-70 41-33.5q-5-15.15-5-35.825Q621 849 626 832l-41-32 44-71 46 21q12-10 29-20.5t38-16.5l5.087-52H826l8 52q20 6 37 16.5t29 20.5l45-21 45 71-42 32q6 17 6 37.5t-6 36.5l42 33-45 70-45-21q-12 11-29.233 21.93-17.234 10.93-36.5 15.86L826 1078h-78.913Zm40.037-112Q828 966 855.5 937.876q27.5-28.124 27.5-69Q883 828 855.376 800.5q-27.624-27.5-68.5-27.5Q746 773 718 800.624q-28 27.624-28 68.5Q690 910 718.124 938q28.124 28 69 28Z"/></svg>