<svg xmlns="http://www.w3.org/2000/svg" width="48" height="48" viewBox="0 -960 960 960"><path d="M450-306v-257h60v257h-60Zm30.018-274Q466-580 456.5-589.482q-9.5-9.483-9.5-23.5 0-14.018 9.2-23.518T479-646q14.45 0 24.225 9.482 9.775 9.483 9.775 23.5 0 14.018-9.482 23.518-9.483 9.5-23.5 9.5ZM271-17q-39.05 0-66.525-27.475Q177-71.95 177-111v-738q0-39.05 27.475-66.525Q231.95-943 271-943h418q39.05 0 66.525 27.475Q783-888.05 783-849v738q0 39.05-27.475 66.525Q728.05-17 689-17H271Zm0-124v30h418v-30H271Zm0-60h418v-558H271v558Zm0-618h418v-30H271v30Zm0 0v-30 30Zm0 678v30-30Z"/></svg>