<svg xmlns="http://www.w3.org/2000/svg" width="48" height="48" viewBox="0 96 960 960"><path d="M440.314 543q-72.721 0-124.018-51.341Q265 440.318 265 368.221 265 295 316.341 244q51.342-51 123.438-51Q513 193 564.5 244.194t51.5 123.51q0 72.728-51.482 124.012Q513.035 543 440.314 543Zm-.518-94Q474 449 497.5 425.266t23.5-57.062Q521 334 497.704 310.5q-23.297-23.5-57-23.5Q407 287 383 310.681t-24 56.987q0 33.718 23.734 57.525Q406.468 449 439.796 449ZM909 1072 778 940q-23 16-46.54 21t-48.025 5q-78.098 0-132.767-54.473Q496 857.054 496 779.235q0-77.818 54.679-132.527Q605.358 592 683.471 592q78.112 0 132.821 54.668Q871 701.337 871 779.435q0 24.485-5.5 48.025T844 873.423L976 1005l-67 67ZM682.761 872q39.759 0 66.499-26.394 26.74-26.395 26.74-66Q776 740 749.606 713q-26.395-27-66-27Q644 686 617.5 712.599q-26.5 26.598-26.5 66.5Q591 819 617.211 845.5q26.21 26.5 65.55 26.5ZM95 934V813q0-44.022 21-76.011Q137 705 177 685q48-24 134.5-46.5T493 626q-20.103 20.949-32.552 46.475Q448 698 443 718q-77-2-134 16t-87.714 33.227Q207 775 198 788.233q-9 13.234-9 27.767v24h251q10 22.516 20.5 45.258Q471 908 490 934H95Zm345-566Zm0 472Z"/></svg>