<svg xmlns="http://www.w3.org/2000/svg" width="48" height="48" viewBox="0 -960 960 960"><path d="M659-568v-84h256v84H659Zm-423.2 25.2q-48.8-48.79-48.8-126 0-77.2 48.8-126.2 48.79-49 126-49 77.2 0 126.7 49T538-668.8q0 77.21-49.5 126Q439-494 361.8-494q-77.21 0-126-48.8ZM17-122v-121q0-42.3 21.7-76.1Q60.39-352.9 99-371q77-34 137.96-48 60.96-14 124.54-14 65.5 0 126.5 14t137 48q38.61 17.96 60.8 51.23 22.2 33.28 22.2 76.54V-122H17Zm94-94h502v-23q0-15.39-9.07-29.39-9.08-14-24.2-20.72Q514-319 467-328.5T361.5-338q-56.5 0-104.5 9.5t-113.57 39.34q-15.43 6.72-23.93 20.74Q111-254.41 111-239v23Zm309.5-395q22.5-23.01 22.5-58.5 0-35.5-22.46-58-22.47-22.5-57.96-22.5-35.5 0-58.54 22.54T281-669.42q0 35.49 23 58.46Q327.01-588 362.5-588q35.5 0 58-23ZM362-669Zm0 453Z"/></svg>