<svg xmlns="http://www.w3.org/2000/svg" width="48" height="48" viewBox="0 -960 960 960"><path d="M400-413q-56.25 0-95.625-39.354Q265-491.709 265-547.93q0-22.213 6.75-42.726Q278.5-611.169 292-628q-4-8.75-5.5-18.708Q285-656.667 285-668q0-40.825 22.5-73.912Q330-775 365-791q21-24 50.5-38t64.5-14q35 0 64.5 14t50.5 38q35.108 16.425 57.554 49.212Q675-709 675-668q0 11.186-1.5 20.998-1.5 9.811-4.5 18.731 13 17.102 19.5 37.615t6.5 42.726q0 56.221-39.375 95.576Q616.25-413 560-413H400Zm0-87h160q20.5 0 34.25-14.5T608-548.322q0-7.141-2.5-15.154-2.5-8.012-8.5-14.208-10-12.316-13.5-23.451-3.5-11.134-3.5-21.173Q580-632 584-643t4-25.053q0-14.947-8.2-26.547-8.2-11.6-20.8-18.4-8-3-14.5-8t-12.955-11q-5.319-7-18.207-15.5-12.888-8.5-33.113-8.5t-33.332 9.045q-13.107 9.046-18.438 15.955-6.455 6-12.955 11.5T402-712q-13.92 5.6-21.96 17.3Q372-683 372-668.053 372-654 376-643t4 20.692q0 10.039-3.5 21.173Q373-590 363-577.684q-6 6.196-8.5 14.208-2.5 8.013-2.5 15.154Q352-529 365.75-514.5 379.5-500 400-500ZM135-42v-120.795q0-44.507 22.828-77.721Q180.656-273.73 217-291q69-31 133.459-46.5T479.731-353q66.731 0 130.5 16 63.769 16 131.69 46.194 37.911 16.085 60.995 49.445Q826-208 826-163.055V-42H135Zm94-94h502v-23q0-15.353-9.5-29.324Q712-202.294 698-209q-60-28-110.495-38.5-50.496-10.5-108-10.5Q424-258 371.5-247.5 319-237 261.429-209.156 247-202.441 238-188.425q-9 14.016-9 29.425v23Zm251 0Zm0-364Z"/></svg>