<svg xmlns="http://www.w3.org/2000/svg" width="48" height="48"><path d="M37.2 26.4v-6.2H31v-3.6h6.2v-6.2h3.6v6.2H47v3.6h-6.2v6.2zm-19.1-3.1q-3.85 0-6.3-2.45-2.45-2.45-2.45-6.3 0-3.85 2.45-6.3 2.45-2.45 6.3-2.45 3.85 0 6.325 2.45t2.475 6.3q0 3.85-2.475 6.3Q21.95 23.3 18.1 23.3zM.85 41.9v-6.05q0-2.1 1.075-3.8Q3 30.35 4.95 29.45q3.85-1.7 6.9-2.4 3.05-.7 6.2-.7 3.3 0 6.35.7t6.85 2.4q1.95.9 3.05 2.575 1.1 1.675 1.1 3.825v6.05zm4.7-4.7h25.1v-1.15q0-.75-.45-1.45T29 33.55q-3.3-1.5-5.65-1.975Q21 31.1 18.1 31.1q-2.85 0-5.25.475t-5.7 1.975q-.75.35-1.175 1.05-.425.7-.425 1.45zM18.1 18.6q1.8 0 2.925-1.15 1.125-1.15 1.125-2.9 0-1.8-1.125-2.925Q19.9 10.5 18.15 10.5q-1.8 0-2.95 1.125-1.15 1.125-1.15 2.925 0 1.75 1.15 2.9t2.9 1.15zm0-4.05zm0 22.65z"/></svg>