<svg xmlns="http://www.w3.org/2000/svg" width="48" height="48" viewBox="0 96 960 960"><path d="M-6 656V433h83v82l108-108 57 59-107 107h82v83H-6Zm284-226-58-58 108-107h-82v-84h223v224h-83v-83L278 430Zm304 557q-19 0-36-7t-30-20L302 746l64-66q16-16 36.5-24t41.5-3l65 15V356q0-46 32.5-78.5T620 245q46 0 78.5 32.5T731 356v161h15q6 0 12 2l12 4 147 72q27 14 40 41t8 58l-36 218q-5 34-31 54.5T838 987H582Zm-8-71h281l43-249-183-91h-55V356q0-18-11-29t-29-11q-18 0-29 11t-11 29v399l-154-33-23 23 171 171Z"/></svg>