<svg xmlns="http://www.w3.org/2000/svg" width="48" height="48" viewBox="0 -960 960 960"><path d="M544-10q-23.176 0-45.588-9Q476-28 460-45L237-275l3-11q17-28 48-38.5t62 .5l82 25v-337q0-16.05 11.868-27.525Q455.737-675 472.368-675 489-675 500.5-663.525T512-636v298h67v-164.745q0-17.005 11.175-28.63Q601.351-543 617.982-543q16.632 0 28.325 11.763Q658-519.475 658-503v165h66v-124.667q0-16.616 11.868-28.475Q747.737-503 764.368-503 781-503 792.5-491.142q11.5 11.859 11.5 28.475V-338h67v-45q0-16.475 11.175-28.237Q893.351-423 909.982-423q16.632 0 28.325 11.763Q950-399.475 950-383v203q0 70.762-49.619 120.381Q850.763-10 780-10H544ZM10-477v-197h67v83l110-110 48 47-110 110h82v67H10Zm297-249-48-47 110-110h-82v-67h197v197h-67v-83L307-726Z"/></svg>