<svg xmlns="http://www.w3.org/2000/svg" width="48" height="48" viewBox="0 96 960 960"><path d="M491 908q4 23 19 50t34 44H189q-39.05 0-66.525-27.475Q95 947.05 95 908V245q0-39.463 27.475-67.231Q149.95 150 189 150h502q39.463 0 67.231 27.769Q786 205.537 786 245v334q-20.5-6-47-7.5t-48 3.5V245H462v269l-96-59-96 59V245h-81v663h302Zm237 108q-81 0-136.5-55.5T536 824q0-81 55.5-136.5T728 632q81 0 136.5 55.5T920 824q0 81-55.5 136.5T728 1016Zm-49-100 143-92-143-92v184ZM270 245h192-192Zm221 0H189h502-214 14Z"/></svg>