<svg xmlns="http://www.w3.org/2000/svg" width="48" height="48" viewBox="0 -960 960 960"><path d="M284-256.5Q202-330 186-439H34v-82h152q16-109 97.97-182.5 81.96-73.5 196-73.5Q594-777 676-703.5T774-521h152v82H774q-16 109-97.97 182.5-81.96 73.5-196 73.5Q366-183 284-256.5ZM406.34-345h147.37q16.71 0 28-10.7Q593-366.41 593-383.97v-112.14q0-16.89-11.21-28.39T554-536h-1v-33q0-30-20.96-52.5-20.97-22.5-52.96-22.5Q449-644 428-621.5T407-568v32h-1q-16.15 0-27.58 11.42Q367-513.17 367-496.25v112.34Q367-367 378.31-356t28.03 11ZM480-406q-15 0-24.5-9.5T446-440q0-15 9.5-25t24.5-10q15 0 25 9.78t10 25.5q0 14.72-10 24.22-10 9.5-25 9.5Zm-37-130v-31.37q0-16.63 10.57-29.13t26.5-12.5q15.93 0 26.43 12.5t10.5 29.13V-536h-74Z"/></svg>