<svg xmlns="http://www.w3.org/2000/svg" width="48" height="48" viewBox="0 -960 960 960"><path d="M480-595q-19.825 0-32.413-13.275Q435-621.55 435-640.807q0-19.257 12.587-32.725Q460.175-687 480-687q19.825 0 32.412 13.281Q525-660.439 525-640.807q0 19.257-12.588 32.532Q499.825-595 480-595Zm-36-148v-194h72v194h-72ZM289.788-69Q260-69 239-90.212q-21-21.213-21-51Q218-171 239.212-192q21.213-21 51-21Q320-213 341-191.788q21 21.213 21 51Q362-111 340.788-90q-21.213 21-51 21Zm404 0Q664-69 643-90.212q-21-21.213-21-51Q622-171 643.212-192q21.213-21 51-21Q724-213 745-191.788q21 21.213 21 51Q766-111 744.788-90q-21.213 21-51 21ZM51-809v-82h135l164 352h284.706L789-807h94L717-499q-13 21-32.508 34.5-19.509 13.5-44.63 13.5H344l-49 93h482v82H284q-44.663 0-67.332-35.5Q194-347 214-384l61-112-142-313H51Z"/></svg>