<svg xmlns="http://www.w3.org/2000/svg" width="48" height="48" viewBox="0 96 960 960"><path d="M289.788 987Q260 987 239 965.788q-21-21.213-21-51Q218 885 239.212 864q21.213-21 51-21Q320 843 341 864.212q21 21.213 21 51Q362 945 340.788 966q-21.213 21-51 21Zm404 0Q664 987 643 965.788q-21-21.213-21-51Q622 885 643.212 864q21.213-21 51-21Q724 843 745 864.212q21 21.213 21 51Q766 945 744.788 966q-21.213 21-51 21ZM480 461q-19.825 0-32.413-13.275Q435 434.45 435 415.193q0-19.257 12.587-32.725Q460.175 369 480 369q19.825 0 32.412 13.281Q525 395.561 525 415.193q0 19.257-12.588 32.532Q499.825 461 480 461Zm-36-148V119h72v194h-72ZM290 780q-49 0-71.5-39.5t.5-80.5l58-105-144-308H51v-82h135l164 352h289l150-268 73 38-151 272q-11.362 18.667-28.537 29.833Q665.288 600 639.857 600H347l-55 98h485v82H290Z"/></svg>