<svg xmlns="http://www.w3.org/2000/svg" width="48" height="48" viewBox="0 -960 960 960"><path d="M312.62-87.58q-77.56-32.57-135.01-90.03-57.46-57.45-90.03-135.01Q55-390.18 55-480.04q0-89.86 32.5-167.41t89.86-135.04q57.35-57.48 134.85-90.5Q389.7-906 480-906q19 0 33 14.59t14 33.5Q527-839 513-825q-14 14-33 14-138.01 0-234.51 96.49Q149-618.02 149-480.01t96.49 234.51q96.49 96.5 234.5 96.5t234.51-96.49Q811-341.99 811-480q0-19 14-33t32.91-14q18.91 0 33.5 14T906-480q0 90.3-33.01 167.79-33.02 77.5-90.5 134.85Q725-120 647.45-87.5 569.9-55 480.04-55T312.62-87.58Z"/></svg>