<svg xmlns="http://www.w3.org/2000/svg" width="48" height="48" viewBox="0 0 48 48"><path d="M22.45 29.3h3l.15-2.2q.6-.1 1.125-.425.525-.325.925-.725l2.05.7 1.45-2.4-1.5-1.2q.25-.7.25-1.45t-.25-1.45l1.5-1.2-1.45-2.4-2.05.7q-.4-.4-.95-.7-.55-.3-1.1-.45l-.15-2.2h-3l-.15 2.2q-.55.15-1.1.45-.55.3-.95.7l-2-.7-1.5 2.4 1.5 1.2q-.25.7-.25 1.45t.25 1.45l-1.5 1.2 1.5 2.4 2-.7q.4.4.925.725.525.325 1.125.425Zm1.5-4.2q-1.45 0-2.475-1.025Q20.45 23.05 20.45 21.6q0-1.45 1.025-2.475Q22.5 18.1 23.95 18.1q1.45 0 2.475 1.025Q27.45 20.15 27.45 21.6q0 1.45-1.025 2.475Q25.4 25.1 23.95 25.1Zm-13.05 20v-9.2q-2.85-2.75-4.425-6.375Q4.9 25.9 4.9 22q0-8 5.55-13.575Q16 2.85 24 2.85q6.6 0 11.725 3.95T42.45 17l2.8 11.2q.3 1.15-.4 2.025T43 31.1h-3.85v5.3q0 2-1.375 3.35T34.4 41.1h-3.25v4Z"/></svg>