<svg xmlns="http://www.w3.org/2000/svg" width="48" height="48" viewBox="0 96 960 960"><path d="M189 1001q-39.05 0-66.525-27.475Q95 946.05 95 907V305q0-39.463 27.475-67.231Q149.95 210 189 210h56v-60h82v60h306v-60h82v60h56q39.463 0 67.231 27.769Q866 265.537 866 305v602q0 39.05-27.769 66.525Q810.463 1001 771 1001H189Zm0-94h582V305H189v602Zm157 0v-78l-69-80q-12-13-22-34.214-10-21.215-10-49.128 0-12.658 2.273-25.158Q249.545 628 255 616q-4-11-7-24t-3-26q0-27.778 10-48.889Q265 496 277 483l68-80v-98h95v114q0 11-11 31l-81 95q-4 4-6 9.543-2 5.544-2 11.414Q340 577 346.5 586t18.637 9q3.412 0 8.667-1.615 5.255-1.616 9.196-5.385 19.973-20 45.006-30.5t51.812-10.5q26.779 0 51.981 10.5Q557 568 577 588q4.098 5.077 8.853 6.038 4.755.962 8.01.962 11.398 0 18.767-8.5Q620 578 620 567.044q0-5.9-2.115-11.472Q615.769 550 612 546l-80-94.96q-3-3.04-7.5-10.873Q520 432.333 520 419V305h94v98l69.839 81.843Q700 503 707 524.026q7 21.027 7 42.974 0 13-2.5 25.5T705 616q5 12 7.5 24.5T715 666q0 27.778-10 48.889Q695 736 683 749l-68 80v78h-94v-94q0-11 10-31l73-86 2-4q1-2 1-5-3 2-5.412 2.5T595 690q-23 0-46-9t-40.318-28q-4.682-5-11.955-8-7.272-3-16.342-3-8.012 0-15.66 2.5T451 653q-16 17-38.508 27-22.509 10-47.492 10-3 0-6-.5t-6-2.5q0 3 1 5l2 4 73 86q4.143 5.947 7.571 13.5Q440 803.053 440 813v94h-94Zm-157 0V305v602Z"/></svg>