<svg xmlns="http://www.w3.org/2000/svg" width="48" height="48" viewBox="0 -960 960 960"><path d="M733-531q-83 0-141.5-58.5T533-731q0-83 58.5-141.5T733-931q83 0 141.5 58.5T933-731q0 83-58.5 141.5T733-531Zm-25-180h46v-149h-46v149Zm23 110q13.6 0 23.3-9.7 9.7-9.7 9.7-23.3 0-13.6-9.7-23.3-9.7-9.7-23.3-9.7-13.6 0-23.3 9.7-9.7 9.7-9.7 23.3 0 13.6 9.7 23.3 9.7 9.7 23.3 9.7ZM413.059-275Q435-275 451.5-291.059q16.5-16.059 16.5-39T451.441-369q-16.559-16-38.5-16Q390-385 374-368.941q-16 16.059-16 39T374.059-291q16.059 16 39 16ZM147-46v-53l60-40q-59-10-99.5-61T67-316v-369q0-99 84.5-142.5T417-871q17.653 0 51.327 2Q502-867 522-865q-20 27-29.5 63T482-731q0 20.425 3 38.463Q488-674.5 495-656H162v155h458q26 14 68 20t70-1v166q0 65-40.5 116T618-139l60 40v53H147Z"/></svg>