<svg xmlns="http://www.w3.org/2000/svg" width="48" height="48" viewBox="0 96 960 960"><path d="M654 602h-35l-79-81h90l106-194H345l-84-82h502q47 0 63.5 30.5T820 347L696.431 574.203Q690 584 682.5 591.5 675 599 654 602ZM286.788 986Q257 986 236 964.788q-21-21.213-21-51Q215 884 236.212 863q21.213-21 51-21Q317 842 338 863.212q21 21.213 21 51Q359 944 337.788 965q-21.213 21-51 21ZM866 1052 591 778H264q-45.822 0-67.911-34T198 673l75-118-86-181L30 216l51-51 836 836-51 51ZM507 696l-89-93h-77l-59 93h225Zm123-175h-90 90Zm58 465q-29 0-50.5-21.212-21.5-21.213-21.5-51Q616 884 637.5 863q21.5-21 50.5-21t50.5 21.212q21.5 21.213 21.5 51Q760 944 738.5 965 717 986 688 986Z"/></svg>