<svg xmlns="http://www.w3.org/2000/svg" width="48" height="48" viewBox="0 96 960 960"><path d="M480.31 1006q-80.31 0-150.81-30t-123.24-82.511q-52.741-52.511-82.5-122.5Q94 701 94 620h94q0 121.986 85.119 206.493Q358.239 911 479.821 911q121.583 0 206.881-84.88Q772 741.239 772 620q0-121.986-83-206.493Q606 329 484 329h-22l67 67-51 50-166-167 166-166 50 50-72 71h23q80.825 0 151.413 30Q701 294 753.5 346.5T836 469.162q30 70.162 30 150.5t-29.779 150.729q-29.78 70.391-82.553 123.2Q700.894 946.4 630.757 976.2 560.62 1006 480.31 1006ZM376 757v-55h125v-54.778H376V489h183v54H435v56h89.667q14.141 0 24.237 10.5Q559 620 559 633v90.4q0 13.83-9.872 23.715T525.444 757H376Z"/></svg>