<svg xmlns="http://www.w3.org/2000/svg" width="48" height="48" viewBox="0 -960 960 960"><path d="M436-220h77v-40h62.596q16.154 0 27.279-11.763Q614-283.525 614-299v-140.62q0-16.13-11.263-27.255Q591.475-478 576-478H423v-65h191v-77h-90v-40h-77v40h-62.596q-16.154 0-27.279 11.763Q346-596.475 346-581v140.62q0 16.13 11.263 27.255Q368.525-402 384-402h153v65H346v77h90v40ZM229-55q-39.05 0-66.525-27.475Q135-109.95 135-149v-662q0-39.463 27.475-67.231Q189.95-906 229-906h343l254 254v503q0 39.05-27.769 66.525Q770.463-55 731-55H229Zm0-94h502v-461.181L529.575-811H229v662Zm0 0v-662 662Z"/></svg>