<svg xmlns="http://www.w3.org/2000/svg" width="48" height="48" viewBox="0 -960 960 960"><path d="M482-262q73.642 0 124.321-50.679T657-437q0-73.642-51-124.321T481.655-612Q439-612 405.5-593.5T353-555v-73h-45v152h154v-45h-73q10.924-15.8 38.228-28.4Q454.533-562 482-562q55 0 90 35t35 90q0 55-35 90.5T482-311q-39 0-74-22t-48-60h-51q19 66 68 98.5T482-262ZM229-55q-39.05 0-66.525-27.475Q135-109.95 135-149v-662q0-39.463 27.475-67.231Q189.95-906 229-906h343l254 254v503q0 39.05-27.769 66.525Q770.463-55 731-55H229Z"/></svg>