<svg xmlns="http://www.w3.org/2000/svg" width="48" height="48"><path d="M20.35 46q-3.15 0-5.875-1.225T9.6 41.3L6.3 38q-2.05-2.05-3.175-4.65Q2 30.75 2 27.85q0-3.1 1.25-5.875T6.7 17L22.3 1.35q.65-.7 1.525-1.025Q24.7 0 25.6 0q.85 0 1.775.325Q28.3.65 29 1.35l4.05 4.2q.65.65 1.025 1.525.375.875.375 1.775 0 .9-.375 1.75t-1.025 1.55L18.1 27.75l2.15 2.15 15.55-15q.7-.7 1.575-1.05.875-.35 1.775-.35.9 0 1.775.375.875.375 1.525 1.075l4.15 4.15q.65.7 1.025 1.55.375.85.375 1.75t-.375 1.775q-.375.875-1.025 1.525l-16 16q-2.05 2.05-4.7 3.175Q23.25 46 20.35 46zm5.25-32.95 4.15-4.15-4.15-4.2-4.15 4.2zM20.25 41.3q1.9 0 3.7-.725 1.8-.725 3.25-2.175l9-8.95-4.15-4.1-8.15 8.2q-1.4 1.4-3.35 1.4-1.95 0-3.35-1.4L14.75 31q-1.35-1.35-1.375-3.275Q13.35 25.8 14.7 24.45l7.95-8.5-4.15-4.15-8.9 8.9q-1.45 1.45-2.2 3.275-.75 1.825-.75 3.725 0 1.95.75 3.75t2.2 3.25l3.7 3.7q1.45 1.45 3.25 2.175 1.8.725 3.7.725zM39.1 26.55l4.2-4.15-4.2-4.15-4.15 4.15z"/></svg>