<svg xmlns="http://www.w3.org/2000/svg" width="48" height="48"><path d="M21.75 13.95V3.45h4.15v10.5zm13.65 5.8-3-2.95 7.4-7.35 2.85 2.9zm-22.9 0-7.55-7.4 3-2.9 7.35 7.35zm11.5 3.8q6.75 0 12.225 2.35T46 33q.75.8.75 2.1T46 37.2l-4.7 4.65q-.55.6-1.75.625-1.2.025-2-.575l-5.2-3.85q-.5-.35-.725-.825-.225-.475-.225-1.025v-7.35q-1.9-.7-3.725-.95-1.825-.25-3.675-.25-1.85 0-3.675.25-1.825.25-3.725.95v7.35q0 .55-.225 1.025-.225.475-.675.825l-5.25 3.85q-.8.6-1.95.6t-1.8-.65L2.05 37.2q-.8-.8-.8-2.1t.8-2.1q4.35-4.65 9.775-7.05 5.425-2.4 12.175-2.4z"/></svg>