<svg xmlns="http://www.w3.org/2000/svg" width="48" height="48" viewBox="0 -960 960 960"><path d="M181-62q-39.462 0-67.231-27.769Q86-117.537 86-157v-207q0-39.05 27.769-66.525Q141.538-458 181-458h444v-166h95v166h87q38 0 66 27.475T901-364v207q0 39.463-28 67.231Q845-62 807-62H181Zm138-198.105Q319-278 306.895-290q-12.106-12-30-12Q258-302 246.5-289.895q-11.5 12.106-11.5 30Q235-242 246.605-230q11.606 12 30.5 12Q295-218 307-230.105q12-12.106 12-30Zm148 0Q467-278 454.895-290q-12.106-12-30-12Q406-302 394.5-289.895q-11.5 12.106-11.5 30Q383-242 394.605-230q11.606 12 30.5 12Q443-218 455-230.105q12-12.106 12-30ZM573.105-218Q591-218 603-230.105q12-12.106 12-30Q615-278 602.895-290q-12.106-12-30-12Q554-302 542.5-289.895q-11.5 12.106-11.5 30Q531-242 542.605-230q11.606 12 30.5 12ZM591-680l-48-48q23.53-25.077 57.883-40.038Q635.236-783 672.687-783q37.45 0 71.382 15Q778-753 802-727.878L754-680q-14-13-35.688-22-21.687-9-44.812-9-24.5 0-46.5 9t-36 22Zm-92-92-51-52q33-35 92.407-63Q599.813-915 673-915q72 0 131.5 28t92.5 63l-51 52q-26-28-71.037-49.5Q729.926-843 673.011-843 615-843 570.5-821.5 526-800 499-772Z"/></svg>