<svg xmlns="http://www.w3.org/2000/svg" width="48" height="48" viewBox="0 96 960 960"><path d="M189 961q-38.775 0-66.388-27.612Q95 905.775 95 867V285q0-39.188 27.612-67.094Q150.225 190 189 190h505l172 172v220l-95 95V404.404L652 285H189v582h393l-95 94H189Zm290.765-159Q523 802 553.5 771.735q30.5-30.264 30.5-73.5Q584 655 553.735 624.5q-30.264-30.5-73.5-30.5Q437 594 406.5 624.265q-30.5 30.264-30.5 73.5Q376 741 406.265 771.5q30.264 30.5 73.5 30.5ZM242 481h358V338H242v143Zm325 558v-74l242-242 74 73-242 243h-74Zm343-269-73-74 38-39q10.435-10 21.217-10Q907 647 918 657l29 29q10 11 10 24t-10 24l-37 36Zm-721 97V285v582Z"/></svg>