<svg xmlns="http://www.w3.org/2000/svg" width="48" height="48" viewBox="0 96 960 960"><path d="M503 850 205 553q-29-31-29-72t29-71l114-114q29-31 70.488-30.5T462 296l297 298q29 30 29 72t-29 71L645 850q-29 31-70.988 30.5T503 850Zm70-62 123-123-306-306-122 122 305 307Zm-95 269q-98.511 0-185.579-37.5-87.068-37.5-152.244-103Q75 851 37.5 763.819 0 676.639 0 578h71q0 73 25 139.5t69 119q44 52.5 105 87T402 969L293 858l52-52 237 237q-24.648 8-51.431 11-26.782 3-52.569 3Zm411-479q0-73-24.5-139.5T796 319q-44-53-104-88t-131-46l108 108-52 52-238-237q24.648-6 48.949-9T478 96q100 0 187.5 38t153 103.5Q884 303 922 390.5T960 578h-71Zm-407-5Z"/></svg>