<svg xmlns="http://www.w3.org/2000/svg" width="48" height="48" viewBox="0 -960 960 960"><path d="M590-372.44q75-75.44 75-182.5T589.56-737q-75.44-75-182-75T225.5-736.56Q150-661.12 150-554.06T225.65-372q75.64 75 182.5 75Q515-297 590-372.44ZM373-403l198-196-66-67-132 131-72-75-67 66 139 141Zm36 200q-147.42 0-250.21-103Q56-408.99 56-555q0-146 103-248.5T408.5-906q146.51 0 249 103Q760-700.01 760-554q0 61.25-19.33 114.54Q721.34-386.17 687-341l219 219-66 67-219-220q-45.46 33.87-98.79 52.93Q468.89-203 409-203Zm0-352Z"/></svg>