<svg xmlns="http://www.w3.org/2000/svg" width="48" height="48" viewBox="0 -960 960 960"><path d="M261-149q-31.333 0-51.167-19.871Q190-188.742 190-220.129 190-242 201-261.5q11-19.5 31.227-27.5L397-354v-113q-67 73-134 109.5T109-321v-83q71.24 0 128.12-30.5Q294-465 336-520l58-66q11.419-14 27.145-22.5Q436.871-617 456-617h48q19.129 0 35.355 9 16.226 9 27.645 23l58 67q45 53 99.88 83.5Q779.76-404 851-404v83q-86 0-153.5-36.5T563-467v113l166 65q19 8 30 27.449t11 41.256Q770-189 750.167-169 730.333-149 699-149H396v-22q0-29 16.5-43.5T454-229h133q8 0 14-6t6-14q0-8-6-14t-14-6H454q-43 0-69.5 27T358-171v22h-97Zm219.248-528Q445-677 420.5-701.619 396-726.237 396-762q0-35.35 24.252-59.675Q444.504-846 479.752-846 515-846 539.5-821.54t24.5 60q0 35.54-24.252 60.04t-59.5 24.5Z"/></svg>