<svg xmlns="http://www.w3.org/2000/svg" width="48" height="48"><path d="M24 34.95q3.45 0 6.3-1.9 2.85-1.9 4-5.15H13.7q1.2 3.25 4.025 5.15 2.825 1.9 6.275 1.9zM15 21.8l2.35-2.35 2.35 2.35 2.25-2.2-4.6-4.55-4.55 4.55zm13.35 0 2.35-2.35 2.35 2.35 2.25-2.2-4.6-4.55-4.55 4.55zM24 45.25q-4.4 0-8.275-1.65T8.95 39.05q-2.9-2.9-4.55-6.775Q2.75 28.4 2.75 24t1.65-8.275Q6.05 11.85 8.95 8.95q2.9-2.9 6.775-4.575Q19.6 2.7 24 2.7t8.275 1.675Q36.15 6.05 39.05 8.95q2.9 2.9 4.575 6.775Q45.3 19.6 45.3 24t-1.675 8.275Q41.95 36.15 39.05 39.05q-2.9 2.9-6.775 4.55Q28.4 45.25 24 45.25z"/></svg>