<svg xmlns="http://www.w3.org/2000/svg" width="48" height="48" viewBox="0 -960 960 960"><path d="M250-327h75v-2q0-65.153 45.187-110.576Q415.373-485 480.187-485 545-485 590-439.576 635-394.153 635-329v2h75v-2q0-96.417-67-163.709Q576-560 480-560t-163 67.291Q250-425.417 250-329v2Zm30-248q45.302-6.526 95.575-34.807Q425.849-638.088 456-675l-58-48q-21.758 26.25-59.379 47.625Q301-654 269-649l11 74Zm399 0 11-74q-32-5-69.621-26.375Q582.758-696.75 562-723l-58 48q31 38 78.5 65.5T679-575ZM480.054-55Q392-55 314.5-88T179-179q-58-58-91-135.445-33-77.446-33-165.501Q55-568 88-645.5t90.843-135.553q57.843-58.052 135.362-91.5Q391.724-906 479.862-906t165.756 33.37q77.619 33.37 135.596 91.29 57.978 57.92 91.382 135.543Q906-568.173 906-479.917q0 88.193-33.447 165.677-33.448 77.483-91.5 135.362Q723-121 645.554-88q-77.445 33-165.5 33Z"/></svg>