<svg xmlns="http://www.w3.org/2000/svg" width="48" height="48" viewBox="0 -960 960 960"><path d="M117-360q-38.75 0-66.375-27.625T23-455v-365q0-39.75 27.625-67.375T117-915h726q38.75 0 66.375 27.625T937-820v365q0 39.75-27.625 67.375T843-360H117Zm-10 164-5-95 753-40 5 95-753 40Zm-4 127v-95h754v95H103Zm325-459q62.844 0 121.422-21Q608-570 656-613q10 34 40.5 50t66.5 19v-186q-37 3-68.5 19.5T654-661q-47.775-40.63-105.441-63.315Q490.893-747 428-747q-71.787 0-138.393 26.5Q223-694 179-637q44 57 110.607 83Q356.213-528 428-528Z"/></svg>