<svg xmlns="http://www.w3.org/2000/svg" width="48" height="48" viewBox="0 96 960 960"><path d="M149 921q-39 0-66.5-27.5T55 827V332q0-39 27.5-67t66.5-28h132l84-98h231l83 98h132q39 0 67 28t28 67v284q-36-27-78-42t-87-15q-23 0-45 3.5T654 573q-5-69-55-116t-119-47q-71 0-120.5 50T310 580q0 71 50.5 121.5T483 751q-12 41-10.5 84.5T491 921H149Zm357-230q-55 11-95.5-23.5T370 580q0-50 31-77.5t70-30.5q39-3 74.5 19t43.5 71q-24 23-46.5 69T491 730q9-5 13-16t2-23Zm195 346-6-52q-18-5-37-16t-30-23l-45 22-45-71 42-32q-6-19-5.5-37t5.5-37l-42-32 45-71 45 21q11-10 30-21t37-16l6-53h79l7 53q17 5 36 16t31 21l45-21 44 71-41 32q7 20 6.5 37t-6.5 37l41 32-44 71-45-22q-12 12-31 23t-36 16l-7 52h-79Zm39-113q41 0 69-27.5t28-68.5q0-41-28-68.5T740 732q-41 0-68.5 27.5T644 828q0 41 27.5 68.5T740 924Z"/></svg>