<svg xmlns="http://www.w3.org/2000/svg" width="48" height="48" viewBox="0 96 960 960"><path d="M443.087 781H517l12.267-57.211q16.266-4.934 28.5-12.861Q570 703 580 693l66 19 35-69-51-33q3-18 3-34t-3-35l51-32-35-70-66 20q-10-10-22.233-17.928-12.234-7.927-28.5-12.861L517 371h-73.913L432 428q-18 5-30 13t-22 18l-66-20-35 70 51 32q-3 19-3 35t3 34l-51 33 35 69 66-19q10 10 22 18t30 13l11.087 57Zm36.789-126Q446 655 423.5 632.376t-22.5-56.5Q401 542 423.624 519.5t56.5-22.5Q514 497 536.5 519.624t22.5 56.5Q559 610 536.376 632.5t-56.5 22.5ZM189 961q-39.05 0-66.525-27.475Q95 906.05 95 867V285q0-39.463 27.475-67.231Q149.95 190 189 190h582q39.463 0 67.231 27.769Q866 245.537 866 285v582q0 39.05-27.769 66.525Q810.463 961 771 961H189Z"/></svg>