<svg xmlns="http://www.w3.org/2000/svg" width="48" height="48" viewBox="0 -960 960 960"><path d="M615-55q-39 0-67-27.5T520-149v-157q0-38 28-66t67-28h241q38 0 66 28t28 66v157q0 39-28 66.5T856-55H615Zm-249 0-21-134q-13-4-29.5-13.5T288-221l-125 58L47-368l114-83q-1-6-1.5-14.5T159-480q0-6 .5-14.5T161-509L47-593l116-203 127 57q10-8 26-17t29-13l21-137h228l21 136q13 5 29.5 13.5T672-739l126-57 115 203-115 82q0 5 1 15t1 14H607q-1-53-38.5-90.5T478-610q-55 0-92.5 38T348-480q0 42 24.5 76t62.5 47v302h-69Z"/></svg>