<svg xmlns="http://www.w3.org/2000/svg" width="48" height="48" viewBox="0 96 960 960"><path d="M298.877 1056q-16.877 0-28.377-11.12-11.5-11.13-11.5-28 0-15.88 11.693-27.88 11.693-12 28.57-12 15.877 0 27.307 12.193Q338 1001.39 338 1017.26q0 16.88-11.623 27.81t-27.5 10.93Zm182 0q-16.877 0-28.377-11.12-11.5-11.13-11.5-28 0-16.88 11.693-28.38t28.57-11.5q16.877 0 27.807 11.693Q520 1000.39 520 1017.26q0 16.88-11.123 27.81t-28 10.93Zm182 0Q646 1056 635 1044.88q-11-11.13-11-28 0-15.88 11.123-27.88 11.123-12 28-12Q680 977 691 989.193q11 12.197 11 28.067 0 16.88-11.123 27.81t-28 10.93ZM323 907q-38.05 0-66.025-27.975Q229 851.05 229 813V179q0-39.05 27.975-66.525Q284.95 85 323 85h314q38.05 0 66.025 27.475Q731 139.95 731 179v634q0 38.05-27.975 66.025Q675.05 907 637 907H323Zm0-214h314V299H323v394Z"/></svg>