<svg xmlns="http://www.w3.org/2000/svg" width="48" height="48" viewBox="0 -960 960 960"><path d="M559.542-55Q542-55 529-67.69t-13-30.233v-259.535Q516-375 529.171-388q13.172-13 30.686-13H820q17.575 0 30.287 13.171Q863-374.657 863-357.143v85.714l87-85.714V-97l-87-87v86q0 17.575-12.69 30.287Q837.62-55 820.077-55H559.542Zm-194.03 0L345-189q-13-4-29.5-13.5T288-221l-125 58L47-368l114-83q-1-6.037-1.5-14.5-.5-8.463-.5-14.5 0-6.037.5-14.5.5-8.463 1.5-14.5L47-593l116-203 127.254 57Q300-747 316-756q16-9 29-13l20.983-137H594l21 136q12.806 5.053 29.403 13.526Q661-748 672-739l126-57 115 203-115 82q0 6 1 15t1 14H607q-1-53-38.5-90.5T478.101-610q-54.899 0-92.5 38.071Q348-533.857 348-480q0 43 24.5 76.5t62.5 46.05V-55h-69.488Z"/></svg>