<svg xmlns="http://www.w3.org/2000/svg" width="48" height="48" viewBox="0 -960 960 960"><path d="m786-606-51.114-108.886L626-766l108.886-51.114L786-926l52 109 109 51-109 51-52 109Zm83 314-30-63-63-30 63-30 30-63 30 63 63 30-63 30-30 63ZM291-46l-11-98q-9 1.333-20.375-3.278T241-159l-81 34L51-305l80-52q-5-11.75-5-20.5t5-20.5l-80-52 109-180 81 34q7.25-7.389 18.625-11.778T280-612l11-97h210l11 97q9-.167 19.875 4.222T551-596l81-34 109 180-80 52q5 11.75 5 20.5t-5 20.5l80 52-109 180-81-34q-8.25 7.111-19.125 11.722T512-144l-11 98H291Zm105.176-209Q448-255 483-289.882q35-34.883 35-88Q518-430 482.824-465q-35.177-35-87-35Q343-500 308.5-464.824q-34.5 35.177-34.5 87Q274-325 308.676-290q34.677 35 87.5 35Z"/></svg>