<svg xmlns="http://www.w3.org/2000/svg" width="48" height="48" viewBox="0 -960 960 960"><path d="M482.07-539q-21.37 0-35.72-14.491Q432-567.982 432-588.561t14.491-34.509Q460.982-637 482.561-637q19.579 0 34.009 14.067Q531-608.865 531-588.07q0 20.37-14.567 34.72Q501.865-539 482.07-539Zm172.86 0q-19.645 0-33.788-14.491Q607-567.982 607-588.561t14.142-34.509Q635.285-637 655.43-637q20.995 0 36.283 14.067Q707-608.865 707-588.07q0 21.37-15.638 35.22Q675.725-539 654.93-539Zm177.947 0q-21.302 0-35.59-13.991Q783-566.982 783-588.061t14.41-35.009Q811.821-637 833.123-637q20.452 0 34.664 14.067Q882-608.865 882-588.07q0 20.37-14.548 34.72Q852.904-539 832.877-539ZM797-95q-122.098 0-247.049-58Q425-211 318.5-317.5t-165-231.959Q95-674.919 95-796q0-29.429 20-49.714Q135-866 164-866h140q31 0 50.5 16.5T381-802l26.929 109.641Q412-666 406.5-646t-21.729 34.226L281-517q22 36 47 68t57 62q33 35 66.5 61t68.5 44l100-101q17-18 38.151-24 21.151-6 44.849 0l99 23q31 9 47.5 29.044T866-305v141q0 29.571-20.357 49.286Q825.286-95 797-95ZM234-600l81-75-23-96H191q1 36 10.957 76.941T234-600Zm372 365.202Q642-218 685.332-205.87 728.664-193.739 771-191v-102.822L683-314l-77 79.202ZM234-600q-18-44-28.5-86T192-768h93l19 98-70 70Zm372 365 70-70 96 20v93q-42-3-84-14.5T606-235Z"/></svg>