<svg xmlns="http://www.w3.org/2000/svg" width="48" height="48" viewBox="0 96 960 960"><path d="M350 1039q-23.15 0-39.075-15.92Q295 1007.15 295 984V500q0-23.15 15.925-39.075Q326.85 445 350 445h260q23.025 0 39.513 15.925Q666 476.85 666 500v484q0 23.15-16.487 39.08Q633.025 1039 610 1039H350Zm129.746-358q17.747 0 30-11.754Q522 657.493 522 638.746 522 621 509.82 608T480 595q-18.48 0-31.24 12.76Q436 620.52 436 639q0 17.64 13 29.82T479.746 681ZM324 380l-42-42q40-40 91-61t107-21q56 0 107 21t91 61l-42 42q-32-31-72.078-47.5-40.079-16.5-84-16.5Q436 316 396 332.5T324 380ZM210 267l-42-43q63-61 143.5-94.5T480 96q88 0 168.5 33.5T790 226l-43 42q-53-54-122.348-83t-145-29Q404 156 334 184.5 264 213 210 267Zm179 678h182V539H389v406Zm0 0h182-182Z"/></svg>