<svg xmlns="http://www.w3.org/2000/svg" width="48" height="48"><path d="M24 28.3q-1.8 0-3.075-1.25Q19.65 25.8 19.65 24q0-1.75 1.25-3.025t3.05-1.275q1.8 0 3.075 1.25Q28.3 22.2 28.3 24q0 1.8-1.275 3.05Q25.75 28.3 24 28.3zm-.05 14.95q-8 0-13.625-5.625T4.75 23.95H9.4q.05 6.05 4.275 10.325Q17.9 38.55 23.95 38.55q6.1 0 10.325-4.225T38.5 24q0-6.05-4.225-10.3Q30.05 9.45 23.95 9.45q-3 0-5.7 1.2T13.45 14h4.15v3.65H6.15V6.3h3.6v4.75q2.8-3 6.475-4.675Q19.9 4.7 23.95 4.7q4 0 7.525 1.525Q35 7.75 37.6 10.375 40.2 13 41.725 16.5T43.25 24q0 4-1.525 7.5T37.6 37.625Q35 40.25 31.475 41.75t-7.525 1.5z"/></svg>