<svg xmlns="http://www.w3.org/2000/svg" width="48" height="48" viewBox="0 0 48 48"><path d="M27.7 23.2q3.8-2.95 5.925-6.05 2.125-3.1 2.125-6 0-1.8-.675-2.95Q34.4 7.05 33.3 7.05q-2.4 0-4.225 3.675Q27.25 14.4 27.25 19.35q0 1.05.1 2t.35 1.85ZM4.8 43.25V38.9h4.35v4.35Zm8.55 0V38.9h4.35v4.35Zm8.5 0V38.9h4.35v4.35Zm8.55 0V38.9h4.35v4.35Zm8.55 0V38.9h4.35v4.35ZM5.75 34.6l-3-3.05 3.2-3.2-3.2-3.2 3-3.05 3.2 3.2 3.2-3.2 3.05 3.05-3.2 3.2 3.2 3.2-3.05 3.05-3.2-3.2Zm26.15-1.2q-1.85 0-3.325-.9T25.95 30q-1.2.75-2.5 1.525-1.3.775-2.7 1.475l-2.15-3.7q1.45-.8 2.75-1.575 1.3-.775 2.55-1.575-.5-1.5-.75-3.15t-.25-3.45q0-7.1 2.95-11.975T33.3 2.7q3.1 0 4.95 2.35t1.85 6.05q0 4.15-2.775 8.325Q34.55 23.6 29.55 27.4q.6.8 1.3 1.225.7.425 1.55.425 1.8 0 3.375-1.425T38.85 23.3l3.25 1.6q-.15 1.4-.15 1.975 0 .575-.1 1.975.7-.65 1.25-1.175t1-1.125l3.45 1.2q-1.45 2.8-3.025 4.225Q42.95 33.4 41.25 33.4q-1.3 0-2.175-.775Q38.2 31.85 38 30.5q-1.45 1.45-2.975 2.175-1.525.725-3.125.725Z"/></svg>