<svg xmlns="http://www.w3.org/2000/svg" width="48" height="48" viewBox="0 96 960 960"><path d="M124 680q-45 0-76-31.208Q17 617.583 17 573t31.208-75.792Q79.417 466 124 466V320q0-24 18-42t42-18h189q0-45 31.208-76 31.209-31 75.792-31t75.792 31.208Q587 215.417 587 260h189q24 0 42 18t18 42v146q45 0 76 31.208 31 31.209 31 75.792t-31.208 75.792Q880.583 680 836 680v219q0 24-18 42t-42 18H184q-24 0-42-18t-18-42V680Zm225.235-106Q368 574 381 560.765q13-13.236 13-32.5Q394 509 380.765 496q-13.236-13-32-13Q330 483 316.5 496.152T303 529.235Q303 548 316.735 561q13.736 13 32.5 13Zm262 0Q630 574 643.5 560.765q13.5-13.236 13.5-32.5Q657 509 643.265 496q-13.736-13-32.5-13Q592 483 579 496.152t-13 33.083Q566 548 579.235 561q13.236 13 32 13ZM323 771h314v-71H323v71Zm-105 94h524V354H218v511Zm0 0V354v511Z"/></svg>