<svg xmlns="http://www.w3.org/2000/svg" width="48" height="48" viewBox="0 0 48 48"><path d="m12 43.9-8.45-8.45 8.45-8.4 3.25 3.2-2.85 2.9h23.2l-2.85-2.9 3.25-3.2 8.45 8.4L36 43.9l-3.25-3.25 2.85-2.85H12.4l2.85 2.85ZM3.8 22.7v-1.5q0-1.3.725-2.375T6.45 17.15q1.3-.55 2.725-.85Q10.6 16 12.15 16t2.975.3q1.425.3 2.775.85 1.2.6 1.9 1.675.7 1.075.7 2.375v1.5Zm23.7 0v-1.5q0-1.3.7-2.375t1.95-1.675q1.3-.55 2.725-.85Q34.3 16 35.85 16t2.975.3q1.425.3 2.725.85 1.2.6 1.925 1.675.725 1.075.725 2.375v1.5Zm-15.35-9.15q-1.9 0-3.25-1.375T7.55 8.9q0-1.9 1.35-3.25t3.25-1.35q1.9 0 3.25 1.35t1.35 3.25q0 1.9-1.35 3.275t-3.25 1.375Zm23.7 0q-1.9 0-3.25-1.375T31.25 8.9q0-1.9 1.35-3.25t3.25-1.35q1.9 0 3.25 1.35t1.35 3.25q0 1.9-1.35 3.275t-3.25 1.375Z"/></svg>