<svg xmlns="http://www.w3.org/2000/svg" width="48" height="48" viewBox="0 -960 960 960"><path d="m62-65 86-430h664l86 430H62Zm21-781v-94h155v94H83Zm95 686h262v-80H194l-16 80Zm64-452-68-66 110-109 67 66-109 109Zm-32 292h230v-81H226l-16 81Zm270-438q-75 0-126.5-53T298-940h94q3 36.667 27.65 62.333Q444.299-852 479.941-852q35.642 0 60.351-25.667Q565-903.333 568-940h94q-4 76-55.5 129T480-758Zm0-182Zm-47 400v-154h94v154h-94Zm87 380h262l-16-80H520v80Zm0-160h230l-16-81H520v81Zm199-292L610-722l66-66 110 109-67 67Zm3-234v-94h155v94H722Z"/></svg>