<svg xmlns="http://www.w3.org/2000/svg" width="48" height="48" viewBox="0 96 960 960"><path d="M481 1001q-83-8-160.099-45.129-77.099-37.128-136.5-101Q125 791 89.5 700 54 609 54 491.025V427h63q45.604 0 102.302 18.5Q276 464 319 490q12.258-91.034 58.629-189.017Q424 203 479 131q55 72 102.371 169.983Q628.742 398.966 641 490q47-26 101.5-44.5T850 427h56v55.025q0 120.914-35 213.945Q836 789 777 853.5T641.5 955Q565 992 481 1001Zm-4-97q-14-175-105.393-264.684Q280.213 549.632 149 525q15 178 109 269t219 110Zm3-275q15-25 33-45.5t40-41.5q1-63-19-117.5T479 300q-32 65-52.5 121.5T407 542q20 16 40.017 40.862Q467.034 607.725 480 629Zm91 250q41-16 81.116-43.663 40.116-27.662 73.01-69.3Q758.02 724.399 780.51 665.2 803 606 809 525q-93 18-164.5 67.5T533 718q12 38.211 22.5 74.961T571 879Zm-91-250Zm91 250Zm-94 25Zm56-186Zm-52 283Z"/></svg>