<svg xmlns="http://www.w3.org/2000/svg" width="48" height="48" viewBox="0 96 960 960"><path d="M869 541v335q0 39.05-27.769 66.525Q813.463 970 774 970H185q-39.05 0-66.525-27.475Q91 915.05 91 876V545q-30-30-36-69.057T60 401l43-135q11-35 37-55.5t61-20.5h553q35.776 0 63.888 21Q846 232 856 266l44 135q11 35 3.5 73T869 541Zm-299-44q24.473 0 42.236-15.5Q630 466 626 442l-24-157h-83v156q0 23.212 14.375 39.606Q547.75 497 570 497Zm-187.467 0q23.534 0 41-15.894Q441 465.212 441 441V285h-83l-24 157q-3 22 11 38.5t37.533 16.5Zm-181.299 0Q222 497 237 482t17-35l25-162h-83l-44 139q-9 29.212 6 51.106Q173 497 201.234 497ZM758 497q28 0 43.5-21.5T808 424l-44-139h-82l24 162q2 20 16.9 35 14.9 15 35.1 15ZM185 876h589V591h-16.138Q738 591 714.5 582.5 691 574 666 555q-17 17-41.232 26.5-24.233 9.5-51.495 9.5Q545 591 523 584q-22-7-43-23-16.726 14.947-39.363 22.474Q418 591 390.055 591q-29.055 0-53.193-9.026Q312.723 572.947 294 555q-27 19-52 27.5t-41 8.5h-16v285Zm589 0H185h589Z"/></svg>