<svg xmlns="http://www.w3.org/2000/svg" width="48" height="48" viewBox="0 96 960 960"><path d="M69 377q26-93 137-172.5T483.369 125Q575 125 662 157.5T821 245v-75h73v212H681v-72h102q-63.991-49.733-141.996-81.367Q563 197 483 197q-138.273 0-226.034 60T144 377H69Zm353.634 650q-18.878 0-36.256-7t-30.429-19.95L141 787l63.8-66.592Q221 704 241 695q20-9 42-2l66 15V396q0-46.32 32.275-78.66 32.274-32.34 78.5-32.34Q506 285 538.5 317.34 571 349.68 571 396v168h15q6.231 0 12.423 1t12.609 4L757 635q28 12 41 40.027T805 734l-36.119 218.882Q763 986 737.608 1006.5T678 1027H422.634ZM414 956h281l43-249-183-83h-55V396q0-18-11-29t-29-11q-18 0-29 11t-11 29v399l-155-34-23 23 172 172Zm0 0h281-281Z"/></svg>