<svg xmlns="http://www.w3.org/2000/svg" width="48" height="48" viewBox="0 -960 960 960"><path d="M450-55q-23.882 0-45.941-9t-38.674-26.31L142-319l3-12q18-27 48.5-37.5t62.5.5l82 24v-336q0-16.475 11.175-28.237Q360.351-720 376.982-720q16.632 0 28.325 11.763Q417-696.475 417-680v441l-128-42 133.178 136.178Q427-139 434.609-136.5 442.217-134 450-134h236q37 0 63.5-26.5T776-224v-204q0-16.05 11.868-27.525Q799.737-467 816.368-467 833-467 844.5-455.525T856-428v204q0 71-49.619 120Q756.763-55 686-55H450Zm34-305v-188q0-16.05 11.868-27.525Q507.737-587 524.368-587 541-587 552.5-575.525T564-548v188h-80Zm146 0v-148q0-16.05 11.175-27.525Q652.351-547 668.982-547q16.632 0 28.325 11.475Q709-524.05 709-508v148h-79ZM55-699v-207h67v80q79-60 170.5-92T486-950q139 0 248.5 65T906-699h-77q-54-89-143.605-136.5Q595.789-883 486-883q-90.968 0-174.984 29.5T153-766h101v67H55Zm520 441Z"/></svg>