<svg xmlns="http://www.w3.org/2000/svg" width="48" height="48" viewBox="0 -960 960 960"><path d="M149-135q-39.05 0-66.525-27.475Q55-189.95 55-229h94v94ZM55-299v-95h94v95H55Zm0-165v-94h94v94H55Zm0-164v-103q0-39.463 27.475-67.231Q109.95-826 149-826h99v95h-99v103H55Zm164 493v-94h95v94h-95Zm99-596v-95h94v95h-94Zm66 596v-94h94v94h-94Zm98-432v-259h329q39.463 0 67.231 27.769Q906-770.463 906-731v164H482Zm66 432v-94h95v94h-95Zm165 0v-94h98v-103h95v103q0 39.05-27.769 66.525Q850.463-135 811-135h-98Zm98-267v-95h95v95h-95Z"/></svg>