<svg xmlns="http://www.w3.org/2000/svg" width="48" height="48" viewBox="0 0 48 48"><path d="m41.55 41.45 1.75-1.75-4.35-3.9v-6.4H36.3v7.2Zm-16.1-21.1h15.1v-8.9h-15.1Zm12.4 25.3q-3.95 0-6.8-2.85-2.85-2.85-2.85-6.8 0-3.95 2.85-6.8 2.85-2.85 6.8-2.85 3.95 0 6.8 2.85 2.85 2.85 2.85 6.8 0 3.95-2.85 6.8-2.85 2.85-6.8 2.85Zm-30.4-4.4q-1.95 0-3.325-1.375Q2.75 38.5 2.75 36.55v-25.1q0-1.95 1.375-3.35Q5.5 6.7 7.45 6.7h33.1q1.95 0 3.35 1.4 1.4 1.4 1.4 3.35V25.8q-1.65-1.25-3.525-1.85-1.875-.6-3.925-.6-5.15 0-8.825 3.55-3.675 3.55-3.825 8.7-.05 1.35.25 2.85t.9 2.8Z"/></svg>