<svg xmlns="http://www.w3.org/2000/svg" width="48" height="48" viewBox="0 -960 960 960"><path d="M757-47q-79 0-136-57t-57-136q0-79 57-136t136-57q79 0 136 57t57 136q0 79-57 136T757-47Zm74-84 35-35-87-78.387V-372h-53v143.776L831-131ZM509-553h302v69.407Q837-480 861-469.5t45 25.5v-287q0-39.463-27.769-67.231Q850.463-826 811-826H149q-39.05 0-66.525 27.769Q55-770.463 55-731v502q0 39.05 27.475 66.525Q109.95-135 149-135h378q-10-22.169-15.427-46.306-5.426-24.137-6.426-47.694H149v-502h360v178ZM149-229v-19 19-502 502Z"/></svg>