<svg xmlns="http://www.w3.org/2000/svg" width="48" height="48"><path d="M18.05 43.85q-1.95 0-3.325-1.4-1.375-1.4-1.375-3.35V18.05q0-1.95 1.375-3.35 1.375-1.4 3.325-1.4H39.1q1.95 0 3.35 1.4 1.4 1.4 1.4 3.35V39.1q0 1.95-1.4 3.35-1.4 1.4-3.35 1.4zm0-20.85H39.1v-4.95H18.05zM26 31.1h5.15V26H26zm0 8h5.15v-5H26zm-7.95-8H23V26h-4.95zm16.1 0h4.95V26h-4.95zm-16.1 8H23v-5h-4.95v5zm16.1 0h4.95v-5h-4.95zM8.9 34.65q-1.95 0-3.35-1.375-1.4-1.375-1.4-3.325V8.9q0-1.95 1.4-3.35 1.4-1.4 3.35-1.4h21.05q1.95 0 3.35 1.4 1.4 1.4 1.4 3.35v2.9h-4.75V8.9H8.9v21.05h2.95v4.7z"/></svg>