<svg xmlns="http://www.w3.org/2000/svg" width="48" height="48" viewBox="0 96 960 960"><path d="M772.895 363Q789 363 800 351.7t11-26.7q0-16.575-10.895-27.287-10.894-10.713-27-10.713Q757 287 746 297.93t-11 27.088Q735 340 745.895 351.5q10.894 11.5 27 11.5Zm-172 0Q617 363 628 351.7t11-26.7q0-16.575-10.895-27.287-10.894-10.713-27-10.713Q585 287 574 297.93t-11 27.088Q563 340 573.895 351.5q10.894 11.5 27 11.5ZM579 503h214q0-33-33-51.5T686 433q-41 0-74 18.5T579 503Zm-305.294 518Q166.5 1021 91.75 943.75 17 866.5 17 764V474h514v290q0 102.5-75.044 179.75T273.706 1021Zm.453-83Q346 938 397 885.5T448 764V557H100v207q0 69 51.159 121.5 51.16 52.5 123 52.5ZM686 677q-27.922 0-53.961-6.5Q606 664 582 652v-84q21 8 47.615 17 26.616 9 56.385 9 71.775 0 122.888-48.5Q860 497 860 429V213H509v212h-83V130h517v299q0 101.917-75.292 174.958Q792.417 677 686 677Zm-497.105 21Q205 698 216 687.782q11-10.217 11-26.3 0-16.082-10.895-27.282-10.894-11.2-27-11.2Q173 623 162 633.925T151 661q0 16.575 10.895 26.787 10.894 10.213 27 10.213Zm173 0Q378 698 389 687.782q11-10.217 11-26.3 0-16.082-10.895-27.282-10.894-11.2-27-11.2Q346 623 335 633.925T324 661q0 16.575 10.895 26.787 10.894 10.213 27 10.213ZM277 848q41 0 74-18.5t33-51.5H170q0 33 33 51.5t74 18.5Zm-2-105Zm410-335Z"/></svg>