<svg xmlns="http://www.w3.org/2000/svg" width="48" height="48" viewBox="0 -960 960 960"><path d="M83-376q-34 0-58.5-23.944T0-459v-246q0-15.529 6-30.265Q12-750 25-764l195-196 34 35.5q6 8.5 10 14.821 4 6.322 4 16.679v9l-28 128h186q26.25 0 44.125 17.981Q488-720.039 488-694.111V-643q0 9-1.5 18t-3.5 14l-80 184q-13.079 29.639-34.039 40.319Q348-376 311-376H83Zm241-83 83-186v-27H154l26-129-97 99v243h241ZM740 0l-33-35.5q-7-8.5-11-14.821-4-6.322-4-16.679v-9l29-129H534q-26.25 0-44.125-17.375T472-265.731V-317q0-9 1.5-18t3.5-14l80-185q13-29 34-39.5t58-10.5h228q34 0 58.5 24t24.5 58v246q0 17-6 31.5T936-197L740 0ZM636-502l-83 187v27h253l-26 129 97-98.714V-502H636ZM83-459v-243l97-99-26 129h253v27l-83 186H83Zm794-43v244l-97 99 26-129H553v-27l83-187h241Z"/></svg>