<svg xmlns="http://www.w3.org/2000/svg" width="48" height="48" viewBox="0 -960 960 960"><path d="M480-228q27.467 0 45.733-18.267Q544-264.533 544-292t-18.267-45.733Q507.467-356 480-356t-45.733 18.267Q416-319.467 416-292t18.267 45.733Q452.533-228 480-228Zm0-188q27.467 0 45.733-18.267Q544-452.533 544-480t-18.267-45.733Q507.467-544 480-544t-45.733 18.267Q416-507.467 416-480t18.267 45.733Q452.533-416 480-416Zm0-188q27.467 0 45.733-18.267Q544-640.533 544-668t-18.267-45.733Q507.467-732 480-732t-45.733 18.267Q416-695.467 416-668t18.267 45.733Q452.533-604 480-604ZM241-358v-61q-53-13-84-54.4T126-565h115v-58q-53-13-84-53.9T126-768h115v-36q0-31 20.406-51T312-875h336q31 0 51.5 20t20.5 51v36h115q0 50-31.5 91T720-623v58h115q0 50.2-31.5 91.6Q772-432 720-419v61h115q0 51.2-31.5 91.6Q772-226 720-213v56q0 30.188-20.5 50.594Q679-86 648-86H312q-30.188 0-50.594-20.406Q241-126.812 241-157v-55q-53-13-84-52.5T126-358h115Z"/></svg>