<svg xmlns="http://www.w3.org/2000/svg" width="48" height="48" viewBox="0 -960 960 960"><path d="m116-217-61-70 75-65q-19-24-38-49t-36-50h119q5 4 9.35 10.4 4.36 6.39 8.65 12.6 13-19 25-37t24-40H10v-93h119v-65h94v65h170v93h-44q-20 42-45 78.5T253-355q16 14 29 23.5t29 22.5l-47 88q-20-15-37-28.5T191-282l-75 65ZM271-11l154-367h113L692-11H589.69L566-68H393l-22 57H271Zm150-135h116l-59-149-57 149Zm72-273v-95h363v-342H343v121h-95v-121q0-39 29.38-66.5 29.39-27.5 69.53-27.5h506.18q39.71 0 68.31 27.5T950-856v342q0 40.42-28.6 67.71Q892.8-419 853-419H493Zm363-95v-342 342ZM401-653h62v-95h39v22h61v-30q0-19.63-13.62-33.81Q535.75-804 516-804h-68q-19.75 0-33.37 14.19Q401-775.63 401-756v103Zm283 87h68q19 0 33-13.5t14-33.5v-31h-62v22h-39v-126h39v22h62v-30q0-20-14-34t-33-14h-68q-19 0-33 14t-14 34v143q0 20 14 33.5t33 13.5Z"/></svg>