<svg xmlns="http://www.w3.org/2000/svg" width="48" height="48" viewBox="0 96 960 960"><path d="M764 737q-71.604 0-123.302-44Q589 649 573 579H436l-38-72h175.11q2.105-23.132 12.584-46.116Q596.172 437.9 612 418H346l-40-72h345l-50.426-149H448v-72h136q30.533 0 55.203 18.066T674 190l52 156h28q91.17 0 148.585 53Q960 452 960 542q0 80.075-58.415 137.537Q843.17 737 764 737Zm0-71q50 0 87.5-36.324 37.5-36.323 37.5-87.5Q889 491 856 455.5T772 419q-.833 0-9.25.5t-8.75.5l39 106-67 24-40-108q-25 22-35.5 46T640 542q0 52 36 88t88 36Zm-484 356q-44 0-75.5-28T167 924v-11H0V639h79V530H0v-83h293l108 192h61q39.025 0 66.513 27.487Q556 693.975 556 733v86q0 39.025-27.487 66.513Q501.025 913 462 913h-69v11q-6 43-38.5 70.5T280 1022ZM161 639h146l-63.408-109H161v109Zm118.781 311Q298 950 310.5 937.719q12.5-12.28 12.5-30.5Q323 889 310.346 876.5T280.421 864Q262 864 249.5 876.654T237 906.579Q237 925 249.281 937.5q12.28 12.5 30.5 12.5Z"/></svg>