<svg xmlns="http://www.w3.org/2000/svg" width="48" height="48" viewBox="0 96 960 960"><path d="M435 999q-80-8-149.5-44.5t-120.5-93Q114 805 84.5 732T55 576q0-87.916 33.447-165.24 33.448-77.324 91.5-135.042Q238 218 315.463 184T481 150q159 0 275.902 101.407Q873.805 352.813 900 505h-95q-17.2-80.963-69.616-144.283Q682.968 297.396 605 265v17q0 33.763-24.147 58.881Q556.706 366 522.96 366H439v84.701q0 16.874-13.5 27.586Q412 489 394.701 489H315v85h105v122h-63.517L159 498q-5 20-7 38.667-2 18.666-2 37.333 0 127 81 220.5T435 904v95Zm420-20L720 843q-20 13-42.96 19.5t-45.605 6.5q-75.348 0-128.892-53.118Q449 762.765 449 687.176q0-75.588 53.588-128.382Q556.176 506 631.765 506q75.588 0 128.412 52.918Q813 611.837 813 687.435q0 23.565-7.071 46.065Q798.857 756 787 777l135 134-67 68ZM630.901 775q36.079 0 61.589-25.479Q718 724.042 718 687.141q0-36.481-25.193-61.811Q667.613 600 631.127 600q-36.067 0-61.597 25.193T544 686.873q0 36.487 25.201 62.307 25.202 25.82 61.7 25.82Z"/></svg>