<svg xmlns="http://www.w3.org/2000/svg" width="48" height="48" viewBox="0 96 960 960"><path d="M122 815V265H50v-94h166v550h669v94H122Zm76.115 206Q166 1021 144 998.487q-22-22.514-22-55Q122 911 144 888.5t54.115-22.5q32.115 0 55 22.677Q276 911.354 276 943.841q0 32.486-22.885 54.823-22.885 22.336-55 22.336ZM286 651V407h244v244H286Zm80-80h85v-85h-85v85Zm224 80V407h244v244H590Zm80-80h85v-85h-85v85Zm136.752 450Q775 1021 753 998.487q-22-22.514-22-55Q731 911 753.177 888.5t53.929-22.5q31.752 0 54.823 22.677T885 943.841q0 32.486-23.248 54.823-23.248 22.336-55 22.336ZM366 571h85-85Zm304 0h85-85Z"/></svg>