<svg xmlns="http://www.w3.org/2000/svg" width="48" height="48" viewBox="0 96 960 960"><path d="M69 947v-82q39-2 74.5-15.5T214 810q32 25 66.5 39.5T347 864q30 0 66.5-15t67.5-41q36 30 69 43t65 13q31 0 63-13.5t71-41.5q38 28 73.5 41t68.5 15v82q-36-1-74.5-10.5T749 910q-35 20-68 28.5t-66 8.5q-31 0-65.5-8.5T481 910q-32 20-66 28.5t-68 8.5q-34 0-67.5-8.5T213 910q-30 17-69.5 26.5T69 947Zm0-201v-81q0-97 39-183t106.5-150.5Q282 267 371 230t189-37q29 0 62 3.5t65 10.5q-23 36-34.5 71.5T641 342q0 54 33 91.5t88 37.5h129v84H762q-89 0-146-62t-57-151q0-10 2-24.5t6-32.5q-74 23-120 85t-46 135q0 36 12.5 68t31.5 59q9-7 18-12t18-12q33 26 69 40t65 14q28 0 64.5-14.5T749 608q31 23 67.5 38t74.5 17v83q-36-2-74.5-11.5T749 708q-35 20-67 29t-67 9q-34 0-70-10.5T481 708q-32 19-66.5 28T347 746q-31-1-67.5-11T213 708q-30 17-69.5 26.5T69 746Z"/></svg>