<svg xmlns="http://www.w3.org/2000/svg" width="48" height="48" viewBox="0 -960 960 960"><path d="M479.67-480q18.66 0 31-11.84Q523-503.68 523-522.34 523-540 510.67-553q-12.34-13-31-13Q462-566 449-552.94t-13 30.1q0 19.16 13 31T479.67-480ZM379-204h203l90 90q-43 24-91.5 36.5T480.15-65q-51.86 0-100.5-12Q331-89 287-113l92-91Zm100.52-692q86.48 0 161.98 33 75.5 33 132 89.5T863-641.64q33 75.35 33 161.64 0 96-40 178T748-163l-99-98q49-38 78-95.09 29-57.1 29-123.91 0-114.75-80.69-195.38Q594.61-756 479.76-756 366-756 285-675.48q-81 80.53-81 195.13 0 67.35 29.07 123.64Q262.13-300.42 311-262l-98 98q-68.34-57.18-108.17-139.04Q65-384.9 65-480q0-86.33 32.33-161.73 32.34-75.39 89-131.83Q243-830 318.52-863q75.53-33 161-33Zm.9 219q82.41 0 139.5 57.08Q677-562.83 677-480.42q0 82.42-57.08 139.92-57.09 57.5-139.5 57.5-82.42 0-139.92-57.5Q283-398 283-480.42q0-82.41 57.5-139.5Q398-677 480.42-677ZM106.5-47Q124-47 137-59.5t13-31q0-17.5-13.06-30.5T107-134q-19 0-31.5 13.06T63-91q0 19 12.5 31.5t31 12.5ZM10 60q18 0 31-12.5t13-31Q54-1 41-14T10.5-27q-18.5 0-31 13.06T-33 16q0 19 12.56 31.5T10 60ZM854-47q-18 0-31-12.5t-13-31q0-17.5 13-30.5t30.5-13q18.5 0 31 13.06T897-91q0 19-12.56 31.5T854-47Zm95.51 107Q932 60 919.5 47.5t-12.5-31Q907-1 919.5-14t30.01-13q18.51 0 31.5 13.06Q994-.88 994 16q0 19-12.99 31.5T949.51 60Z"/></svg>