<svg xmlns="http://www.w3.org/2000/svg" width="48" height="48" viewBox="0 -960 960 960"><path d="M268-180q-39-8-74.5-12.5T118-197H52v-83h66q40 0 75.5-4.5T268-297v117ZM800-48 671-177H309v-123h238L49-799l51-50L851-99l-51 51Zm57-129L734-300h169v123h-46Zm-448.643-36q10.643 0 18.143-7.357t7.5-18q0-10.643-7.543-18.143t-17.6-7.5Q398-264 390.5-256.457t-7.5 17.6q0 10.857 7.357 18.357t18 7.5ZM841-345v-100q0-74-49.5-122.5T666-616v-61q31 0 54-23.5t23-58.5q0-34-22-58t-55-24v-62q59 0 99 42.5T805-759q0 35-13.5 62T754-655q67 16 108 79t41 130.427V-345h-62Zm-106 0v-55.224q0-42.418-24.5-66.097Q686-490 651-490h-70q-9 0-22.5-1.5T535-500l-80-78.91q-8-16-10.5-32.545T442-639q0-58.597 39.366-98.299Q520.731-777 580-777v61q-35 0-56 22.5T503-636q0 35 21 59.5t56 24.5h72q59.101 0 101.55 40.143Q796-471.714 796-413v68h-61Z"/></svg>