<svg xmlns="http://www.w3.org/2000/svg" width="48" height="48" viewBox="0 -960 960 960"><path d="M134-206q-39.05 0-66.525-27.475Q40-260.95 40-300v-360q0-39.463 27.475-67.231Q94.95-755 134-755h692q39.463 0 67.231 27.769Q921-699.463 921-660v360q0 39.05-27.769 66.525Q865.463-206 826-206H134Zm0-94h692v-360H134v360Zm150-46h60v-104h104v-60H344v-104h-60v104H180v60h104v104Zm315-18q18 0 31.5-13.5T644-409q0-18-13.5-31.5T599-454q-18 0-31.5 13.5T554-409q0 18 13.5 31.5T599-364Zm90-143q18 0 31.5-13.5T734-552q0-18-13.5-31.5T689-597q-18 0-31.5 13.5T644-552q0 18 13.5 31.5T689-507ZM134-300v-360 360Z"/></svg>