<svg xmlns="http://www.w3.org/2000/svg" width="48" height="48" viewBox="0 -960 960 960"><path d="M431-160 234-276q-21.775-13.29-33.887-34.861Q188-332.433 188-358v-231q0-25.568 12.113-47.139Q212.225-657.71 234-671l198-119q22-13 48-13t48 13l198 119q21.775 13.29 33.888 34.861Q772-614.568 772-589v231q0 25.567-12.375 47.139Q747.25-289.29 725-276L525-160q-22.328 14-47.164 14Q453-146 431-160ZM55-693v-118q0-40.213 27.1-67.606Q109.2-906 149-906h118v84H138v129H55ZM267-55H149q-39.8 0-66.9-27.1Q55-109.2 55-149v-118h83v129h129v83Zm426 0v-83h129v-129h84v118q0 39.8-27.394 66.9Q851.213-55 811-55H693Zm129-638v-129H693v-84h118q40.213 0 67.606 27.394Q906-851.213 906-811v118h-84Zm-510 85-29 16.652V-553l167 96.7V-259l30 18 30-18v-197.3L678-553v-38.348L648-608l-168 97-168-97Z"/></svg>