<svg xmlns="http://www.w3.org/2000/svg" width="48" height="48" viewBox="0 -960 960 960"><path d="M727.23-686Q688-686 659-715.546q-29-29.547-29-68.491 0-32.963 21.81-72.549Q673.62-896.172 727-953q53 57 76 96.5t23 72.463q0 38.944-29.77 68.491Q766.46-686 727.23-686ZM214.5-55q-67.556 0-113.528-45.825Q55-146.65 55-214v-252q0-29.893 14-57.446Q83-551 109-568l331.343-213L461-763q26.815 20.933 33.907 52.967Q502-678 488-648l-34 58h331q16.475 0 28.237 11.818Q825-566.364 825-549.807 825-534 813.237-522.5 801.475-511 785-511H336l83-159-266 170q-10 6-14.5 14.793T134-466v252q0 33.363 23.319 56.681Q180.637-134 214-134h531q16.475 0 28.237 11.818Q785-110.364 785-93.807 785-78 773.237-66.5 761.475-55 745-55H214.5ZM455-359v-79h409.676q17.074 0 28.699 11.818T905-397.807Q905-382 893.237-370.5 881.475-359 865-359H455Zm0 152v-79h370.757q16.993 0 28.618 11.818T866-245.807Q866-230 854.237-218.5 842.475-207 826-207H455ZM294-359Z"/></svg>