<svg xmlns="http://www.w3.org/2000/svg" width="48" height="48" viewBox="0 -960 960 960"><path d="M753-273v-94h94v94h-94Zm0-160v-94h134v94H753Zm0-160v-95h174v95H753ZM260-34l-55-198q-57-37-92.5-101.878t-35.5-146Q77-561 112.453-626.5 147.906-692 205-729l55-197h246l55 197q56.641 36.93 91.821 102.324Q688-561.282 688-480.141 688-399 653-334q-35 65-92 102L506-34H260Zm122.486-235Q471-269 532.5-329.986q61.5-60.986 61.5-150Q594-569 532.637-630q-61.364-61-149.623-61Q294-691 233-630.014q-61 60.986-61 150Q172-391 232.986-330q60.986 61 149.5 61Z"/></svg>