<svg xmlns="http://www.w3.org/2000/svg" width="48" height="48" viewBox="0 96 960 960"><path d="M700 910V242q38 0 60.5 21t22.5 61v503q0 39.787-22.756 61.394Q737.487 910 700 910Zm-560 83q-38.775 0-66.388-27.612Q46 937.775 46 899V253q0-38.775 27.612-66.387Q101.225 159 140 159h366q38.775 0 66.387 27.613Q600 214.225 600 253v646q0 38.775-27.613 66.388Q544.775 993 506 993H140Zm743-168V326q25 0 38.5 12.333Q935 350.667 935 378v396q0 27.583-13.5 39.292Q908 825 883 825Zm-743 77h366V253H140v649Zm0-649v649-649Z"/></svg>