<svg xmlns="http://www.w3.org/2000/svg" width="48" height="48" viewBox="0 -960 960 960"><path d="M479.872-55q-109.239 0-200.556-49.5Q188-154 131-238l165.423-165L423-292l219-219v124h71v-241H472v71h124L421-383 294-494 97-296q-21-42-31.5-88.5T55-479.57q0-89.618 33.084-167.011 33.083-77.394 90.855-134.875 57.772-57.482 135.195-91.013Q391.557-906 479.779-906q89.221 0 166.827 33.454 77.605 33.453 135.012 90.802 57.407 57.349 90.895 134.877Q906-569.34 906-480q0 88.276-33.531 165.747-33.531 77.471-91.013 135.278-57.481 57.808-134.915 90.891Q569.106-55 479.872-55Z"/></svg>