<svg xmlns="http://www.w3.org/2000/svg" width="48" height="48" viewBox="0 -960 960 960"><path d="M678-95q-15.45 0-25.725-9.66Q642-114.32 642-129.6v-127.8q0-15.28 10.275-25.44Q662.55-293 678-293h5v-39q0-32.825 24.124-57.413 24.124-24.587 58-24.587Q799-414 823-389.413q24 24.588 24 57.413v39h6q14.45 0 24.725 10.16Q888-272.68 888-257.4v127.8q0 15.28-10.275 24.94Q867.45-95 853-95H678Zm45-198h84v-39q0-18-11.5-30T765-374q-19 0-30.5 12T723-332v39ZM480-62 0-600q98-98 219.5-155.5T480-813q139 0 260.5 57.5T960-600L836-462q-16.074-5-31.683-8.091Q788.708-473.182 773-474q-15 0-29 2.5t-28 6.5l112-122q-78-61-164.242-96-86.242-35-184-35T296-683q-86 35-164 96l348 381 69-73q-2 8-2.5 16t-.5 16q-.273 24.056 5.864 46.028Q558-179 568-159l-88 97Zm0-400Z"/></svg>