<svg xmlns="http://www.w3.org/2000/svg" width="48" height="48"><path d="M3.85 44q1.7-14.5 4.675-22.275Q11.5 13.95 15.35 13.95q2.25 0 4.45 3.875t3.4 8.925q1.3-9.8 4.05-16.3t5.45-6.5q4 0 7.075 10.325T44.15 44h-4.7q-1.25-4.95-3.35-8.9t-3.4-4.75q-1.2.8-3.2 4.75T26.4 44h-4.75q-.5-4.2-1.25-8.15t-1.625-7.25Q17.9 25.3 17 22.925q-.9-2.375-1.65-3.425-1.2 1.45-2.225 3.875Q12.1 25.8 11.225 29T9.65 36.025Q8.95 39.85 8.5 44zm23.6-13.25q1.05-2.4 2.475-3.75t2.775-1.35q1.35 0 2.875 1.375T38.1 30.75q-.6-6.2-2.075-12.675Q34.55 11.6 32.7 9.5q-1.75 2-3.15 8.3-1.4 6.3-2.1 12.95z"/></svg>