<svg xmlns="http://www.w3.org/2000/svg" width="48" height="48" viewBox="0 96 960 960"><path d="M149 869V394v475Zm0 95q-39.05 0-66.525-27.769Q55 908.463 55 869V394q0-39.05 27.475-66.525Q109.95 300 149 300h158v-75q0-38.463 27.475-66.731Q361.95 130 401 130h158q39.05 0 66.525 28.269Q653 186.537 653 225v75h158q39.463 0 67.231 27.475Q906 354.95 906 394v248q-19.828-20.156-43.914-36.078Q838 590 811 581V394H149v475.5-.5h324.455Q478 895 489 919t26 45H149Zm252-664h158v-75H401v75Zm319 709q-79 0-136-57t-57-136q0-79 57-136t136-57q79 0 136 57t57 136q0 79-57 136t-136 57Zm74-84 35-35-87-78.387V684h-53v143.776L794 925Z"/></svg>