<svg xmlns="http://www.w3.org/2000/svg" width="48" height="48" viewBox="0 0 48 48"><path d="m21.35 46.05-9.95-10H.5v-4.7h12.85l7.4 7.4-3.05-6.4h23.45q1 0 1.675.675T43.5 34.7q0 1-.675 1.675t-1.675.675H25.1l.7 1.5q.35 1.55-.125 2.975T24 43.85ZM.5 16.15V11.4h11.15l1.95-1.95q1-.95 2.3-1.5 1.3-.55 2.7-.55h20.55q1 0 1.675.675T41.5 9.8q0 1-.675 1.675t-1.675.675h-21.1q-.25 0-.4.075-.15.075-.3.225l-3.75 3.7Zm0 7.6Zm27.05 5.1V24.1h17.6q1 0 1.675.675T47.5 26.5q0 1-.675 1.675t-1.675.675Zm0-8.5v-4.7h15.6q1 0 1.675.675T45.5 18q0 1-.675 1.675t-1.675.675Z"/></svg>