<svg xmlns="http://www.w3.org/2000/svg" width="48" height="48" viewBox="0 96 960 960"><path d="M480 867q0-91-66.667-158Q346.667 642 255 642q0 91.667 67 158.333Q389 867 480 867Zm0-211q26 0 42-16t16-42v-8q6 7 16 9t18.699 2q26.287 0 42.294-15.5Q631 570 631 544q0-20-9-32.643t-22-23.5q13-5.857 22-21.093 9-15.237 9-35.551 0-24.93-15.868-41.072Q599.264 374 573.004 374q-8.688 0-18.795 2-10.108 2-16.209 9.057V377q0-26-16-42t-42-16q-26 0-42 16t-16 42v8q-6-7-16-9t-18.548-2q-26.536 0-42.494 16.161Q329 406.321 329 431.119q0 20.213 8.5 33.547Q346 478 361 488q-15 7-23.5 21.5t-8.5 34.065Q329 570 344.944 585.5q15.944 15.5 42.141 15.5 8.66 0 19.247-2 10.586-2 15.668-8.8v7.8q0 26 16 42t42 16Zm-.205-92q-33.214 0-54.505-21.935Q404 520.129 404 488q0-33.129 21.495-54.565Q446.99 412 480.205 412q33.214 0 54.505 21.435Q556 454.871 556 487.509q0 32.926-21.495 54.709Q513.01 564 479.795 564ZM480 867q91 0 158-66.667Q705 733.667 705 642q-91.667 0-158.333 67Q480 776 480 867Zm-331 134q-39.05 0-66.525-27.475Q55 946.05 55 907V245q0-39.463 27.475-67.231Q109.95 150 149 150h662q39.463 0 67.231 27.769Q906 205.537 906 245v662q0 39.05-27.769 66.525Q850.463 1001 811 1001H149Zm0-94h662V245H149v662Zm0 0V245v662Z"/></svg>