<svg xmlns="http://www.w3.org/2000/svg" width="48" height="48" viewBox="0 96 960 960"><path d="M845 981 533 669l-24 98H342l42-215-80 38v130h-83V533.507L346 482 22 158l51-51 823 823-51 51Zm-696-32q-39.05 0-66.525-27.475Q55 894.05 55 855V732h94v123h123v94H149Zm662-633V193H688V98h123q39.463 0 67.231 27.769Q906 153.537 906 193v123h-95Zm-756 0V193q0-19 8.022-35.875Q71.043 140.25 92 127l66 65h-11v124H55Zm633 633v-94h132l66 67q-20.143 13.25-38 20.125T811 949H688ZM259 193l-94-95h137v95h-43Zm647 647-95-95v-42h95v137ZM537.619 399Q502 399 477.5 373.919q-24.5-25.08-24.5-60.3Q453 278 477.62 253.5q24.621-24.5 59.84-24.5 35.62 0 60.08 24.539T622 313.92q0 35.43-24.38 60.255Q573.239 399 537.619 399Z"/></svg>