<svg xmlns="http://www.w3.org/2000/svg" width="48" height="48" viewBox="0 -960 960 960"><path d="M240-560h-48q-4.8 0-8.4-3.64-3.6-3.64-3.6-8.5 0-4.86 3.6-8.36 3.6-3.5 8.4-3.5h60q4.8 0 8.4 3.6 3.6 3.6 3.6 8.4v184q0 4.8-3.64 8.4-3.64 3.6-8.5 3.6-4.86 0-8.36-3.6-3.5-3.6-3.5-8.4v-172Zm132 172v-81q0-11.6 7.2-18.8 7.2-7.2 18.8-7.2h99v-65H384q-4.8 0-8.4-3.64-3.6-3.64-3.6-8.5 0-4.86 3.6-8.36 3.6-3.5 8.4-3.5h111q12.02 0 19.51 7.55Q522-568.9 522-558v67q0 11.6-7.49 18.8-7.49 7.2-19.51 7.2h-99v65h113q6.07 0 9.53 3.64 3.47 3.64 3.47 8.5 0 4.86-3.47 8.36-3.46 3.5-9.53 3.5H384q-4.8 0-8.4-3.6-3.6-3.6-3.6-8.4Zm362 12H622q-4.8 0-8.4-3.64-3.6-3.64-3.6-8.5 0-4.86 3.6-8.36 3.6-3.5 8.4-3.5h114v-65h-71q-5.6 0-10.3-4.5Q650-474 650-480t4.7-10.5q4.7-4.5 10.3-4.5h71v-65H622q-4.8 0-8.4-3.64-3.6-3.64-3.6-8.5 0-4.86 3.6-8.36 3.6-3.5 8.4-3.5h112q10.9 0 18.45 7.55Q760-568.9 760-558v156q0 10.9-7.55 18.45Q744.9-376 734-376Z"/></svg>