<svg xmlns="http://www.w3.org/2000/svg" width="48" height="48" viewBox="0 96 960 960"><path d="M367.558 537q5.442 0 8.942-3.683 3.5-3.684 3.5-9.317V357.091q0-11.091-8.5-19.591Q363 329 352 329h-47.429q-3.881 0-7.226 3.558t-3.345 9q0 5.442 3.4 8.942t8.6 3.5h49v171q0 4.966 3.558 8.483 3.558 3.517 9 3.517ZM510 537h105q10.9 0 19.45-8.55Q643 519.9 643 509V357q0-10.9-8.55-19.45Q625.9 329 615 329h-89q-11.9 0-19.95 8.55Q498 346.1 498 357v61q0 10.9 8.05 19.45Q514.1 446 526 446h92v66H509q-4.552 0-7.776 3.558t-3.224 9q0 5.442 3.4 8.942t8.6 3.5Zm13-117v-63h95v63h-95ZM226 884q-22.775 0-38.387-15.612Q172 852.775 172 830V322q0-23 15.613-38.5Q203.225 268 226 268h508q23 0 38.5 15.5T788 322v508q0 22.775-15.5 38.388Q757 884 734 884H226Zm40.558-61q5.442 0 8.942-3.683 3.5-3.684 3.5-9.317V640h76v111q0 4.552 3.558 7.776t9 3.224q5.442 0 8.942-3.4t3.5-8.6V640h78v171q0 4.966 3.558 8.483 3.558 3.517 9 3.517t8.942-3.683q3.5-3.684 3.5-9.317V639q0-10-7-17t-17-7H278q-10 0-17 7t-7 17v172q0 4.966 3.558 8.483 3.558 3.517 9 3.517Zm307 0q5.442 0 8.942-3.683 3.5-3.684 3.5-9.317v-48h96q10 0 17-7t7-17v-99q0-10-7-17t-17-7h-97q-10.2 0-17.1 6.9-6.9 6.9-6.9 17.1v172q0 4.966 3.558 8.483 3.558 3.517 9 3.517ZM586 640h95v97h-95v-97Z"/></svg>