<svg xmlns="http://www.w3.org/2000/svg" width="48" height="48" viewBox="0 96 960 960"><path d="M524.605 680q5.395 0 8.895-3.717 3.5-3.716 3.5-9.283v-83l100 94q1 2 3.472 2h3.211q10.059 0 13.188-8.5Q660 663 653 658l-90-84 91-80q8-5 5-13.5t-13-8.5q-3.25 0-5.25 1t-3.75 2l-100 91v-83q0-4.172-3.75-7.586-3.749-3.414-9.366-3.414-5.184 0-8.534 3.433Q512 478.867 512 484v184q0 4.586 3.605 8.293 3.604 3.707 9 3.707Zm-157 0q5.395 0 8.895-3.717 3.5-3.716 3.5-9.283V484q0-5.133-3.717-8.567Q372.567 472 367 472h-62q-4.172 0-7.586 3.605-3.414 3.604-3.414 9 0 5.395 3.433 8.895 3.434 3.5 8.567 3.5h49v171q0 4.586 3.605 8.293 3.604 3.707 9 3.707ZM226 884q-22.775 0-38.387-15.612Q172 852.775 172 830V322q0-23 15.613-38.5Q203.225 268 226 268h508q23 0 38.5 15.5T788 322v508q0 22.775-15.5 38.388Q757 884 734 884H226Zm0-22h508q14 0 23-9t9-23V322q0-14-9-23t-23-9H226q-14 0-23 9t-9 23v508q0 14 9 23t23 9Zm-32-572v572-572Z"/></svg>