<svg xmlns="http://www.w3.org/2000/svg" width="48" height="48" viewBox="0 96 960 960"><path d="M693 650q5.6 0 9.8-4.2 4.2-4.2 4.2-9.8v-46h47q5.895 0 9.947-4.2Q768 581.6 768 576q0-5.6-4.2-9.8-4.2-4.2-9.8-4.2h-47v-47q0-5.474-4.2-9.237T693 502q-5.6 0-9.8 4.2-4.2 4.2-4.2 9.8v46h-47q-5 0-9.5 4.2T618 576q0 5.6 4.5 9.8 4.5 4.2 9.5 4.2h47v47q0 5.474 4.2 9.237T693 650Zm-227.442 30q5.442 0 8.942-3.683 3.5-3.684 3.5-9.317v-83l100 94q1 2 3.472 2h3.211q10.059 0 12.688-8Q600 664 594 658l-90-84 91-80q6-6 4-14t-12-8q-3.167 0-5.167 1T578 475l-100 91v-83q0-4.552-3.703-7.776T464.93 472q-5.23 0-8.58 3.4-3.35 3.4-3.35 8.6v184q0 4.966 3.558 8.483 3.558 3.517 9 3.517ZM323 497v171q0 4.966 3.558 8.483 3.558 3.517 9 3.517t8.942-3.683q3.5-3.684 3.5-9.317V484q0-5.2-3.683-8.6-3.684-3.4-9.317-3.4h-62q-4.552 0-7.776 3.558t-3.224 9q0 5.442 3.4 8.942t8.6 3.5h49Zm-97 387q-22.775 0-38.387-15.612Q172 852.775 172 830V322q0-23 15.613-38.5Q203.225 268 226 268h508q23 0 38.5 15.5T788 322v508q0 22.775-15.5 38.388Q757 884 734 884H226Z"/></svg>