<svg xmlns="http://www.w3.org/2000/svg" width="48" height="48" viewBox="0 -960 960 960"><path d="M317.772-306Q313-306 310-309.162q-3-3.163-3-7.838v-112H173q-11.475 0-19.238-7.763Q146-444.525 146-456v-187q0-4.675 3.228-7.838 3.228-3.162 8-3.162t7.772 3.162q3 3.163 3 7.838v192h139v-192q0-4.675 3.228-7.838 3.228-3.162 8-3.162t7.772 3.162q3 3.163 3 7.838v192h71q4.675 0 7.838 3.228 3.162 3.228 3.162 8T407.838-432q-3.163 3-7.838 3h-71v112q0 4.675-3.228 7.838-3.228 3.162-8 3.162ZM563-306q-22.775 0-38.388-15.612Q509-337.225 509-360v-240q0-22.775 15.612-38.388Q540.225-654 563-654h240q4.675 0 7.838 3.228 3.162 3.228 3.162 8T810.838-635q-3.163 3-7.838 3H563q-14 0-23 9t-9 23v240q0 14 9 23t23 9h197q14 0 23-9t9-23v-110h-90q-4.675 0-7.838-3.228-3.162-3.228-3.162-8t3.162-7.772q3.163-3 7.838-3h85q11.475 0 19.237 8.25Q814-475.5 814-465v105q0 22.775-15.237 38.388Q783.525-306 760-306H563Z"/></svg>