<svg xmlns="http://www.w3.org/2000/svg" width="48" height="48" viewBox="0 -960 960 960"><path d="M302.5-86q-6.7 0-10.6-4.2-3.9-4.2-3.9-10.8v-116q0-6.2 3.9-10.1 3.9-3.9 10.1-3.9h78q4.6 0 8.8 3.6 4.2 3.6 4.2 8.4 0 5.2-4.2 9.1-4.2 3.9-8.8 3.9h-67v35h65q6 0 10.5 3.9t4.5 10.468v55.264q0 6.968-4.5 11.168-4.5 4.2-11 4.2h-75ZM493-146v47q0 5.2-4.2 9.1-4.2 3.9-8.943 3.9-4.743 0-8.3-3.9Q468-93.8 468-99v-119q0-5.2 3.9-9.1 3.9-3.9 9.1-3.9h59q4.6 0 8.8 3.6 4.2 3.6 4.2 8.4 0 5.2-4.2 9.1-4.2 3.9-8.8 3.9h-47v35h27q4.6 0 8.8 3.6 4.2 3.6 4.2 8.4 0 5.2-4.2 9.1-4.2 3.9-8.8 3.9h-27Zm135-60h-28q-4.8 0-8.4-3.771-3.6-3.772-3.6-8.8 0-5.029 3.6-8.729 3.6-3.7 8.4-3.7h80q4.6 0 8.8 3.6 4.2 3.6 4.2 8.4 0 5.2-4.2 9.1-4.2 3.9-8.8 3.9h-27v107q0 5.2-4.2 9.1-4.2 3.9-8.943 3.9-4.743 0-8.3-3.9Q628-93.8 628-99v-107Zm-315 95h55v-35h-55v35ZM176-400l59 60q3 3 3.5 8t-3.5 9q-4 4-9 4t-9-4l-69-69q-8-7.909-8-18.455Q140-421 148-430l69-69q4-3 9-3.5t9 4q4 4.5 4 9t-4 8.5l-59 59h609l-60-59q-3-2.5-3.5-8.5t3.5-9.5q4-4 9-4t9 4l69 69q8 9 8 19.545 0 10.546-8 18.455l-69 70q-4 3-9 3t-9-4q-4-4-4-9t4-9l59-59H176Zm-44-191v3q0-15.081 8.469-26.149Q148.939-625.216 163-632q23.078-8.522 48.32-14.761Q236.562-653 263.281-653q26.719 0 51.7 6.239Q339.963-640.522 363-632q14.061 6.784 22.531 17.851Q394-603.081 394-588v-3H132Zm434 0v3q0-15.081 8.469-26.149Q582.939-625.216 597-632q23.078-8.522 48.32-14.761Q670.562-653 697.281-653q26.719 0 51.7 6.239Q773.963-640.522 797-632q14.061 6.784 22.531 17.851Q828-603.081 828-588v-3H566ZM262.788-729q-22.124 0-36.956-15.544-14.832-15.545-14.832-37Q211-803 225.876-818.5q14.876-15.5 37-15.5Q285-834 300.5-818.456q15.5 15.545 15.5 37Q316-760 300.456-744.5 284.911-729 262.788-729Zm434 0q-22.124 0-36.956-15.544-14.832-15.545-14.832-37Q645-803 659.876-818.5q14.876-15.5 37-15.5Q719-834 734.5-818.456q15.5 15.545 15.5 37Q750-760 734.456-744.5 718.911-729 696.788-729Z"/></svg>