<svg xmlns="http://www.w3.org/2000/svg" width="48" height="48" viewBox="0 96 960 960"><path d="M466.095 537q4.238 0 6.39-2.043 2.151-2.044 4.515-5.957l60-169q5-12.462-2.5-21.731Q527 329 515 329H404q-4.586 0-8.293 3.605-3.707 3.604-3.707 9 0 5.395 3.717 8.895 3.716 3.5 9.283 3.5h109l-60 168q-3 5.333.986 10.167Q458.972 537 466.095 537ZM226 884q-22.775 0-38.387-15.612Q172 852.775 172 830V322q0-23 15.613-38.5Q203.225 268 226 268h508q23 0 38.5 15.5T788 322v508q0 22.775-15.5 38.388Q757 884 734 884H226Zm0-22h508q14 0 23-9t9-23V322q0-14-9-23t-23-9H226q-14 0-23 9t-9 23v508q0 14 9 23t23 9Zm40.605-39q5.395 0 8.895-3.717 3.5-3.716 3.5-9.283V640h76v111q0 4.172 3.605 7.586 3.604 3.414 9 3.414 5.395 0 8.895-3.433 3.5-3.434 3.5-8.567V640h78v171q0 4.586 3.605 8.293 3.604 3.707 9 3.707 5.395 0 8.895-3.717 3.5-3.716 3.5-9.283V639q0-10-7-17t-17-7H278q-10 0-17 7t-7 17v172q0 4.586 3.605 8.293 3.604 3.707 9 3.707Zm307 0q5.395 0 8.895-3.717 3.5-3.716 3.5-9.283v-48h96q10 0 17-7t7-17v-99q0-10-7-17t-17-7h-97q-10 0-17 7t-7 17v172q0 4.586 3.605 8.293 3.604 3.707 9 3.707ZM586 640h95v97h-95v-97ZM194 322v-32 572-540Z"/></svg>