<svg xmlns="http://www.w3.org/2000/svg" width="48" height="48"><path d="m23.45 32.15-7.75 7.7q-.15.15-.375.125-.225-.025-.375-.175-.2-.15-.2-.375t.2-.425l8.5-8.5v-5.95H17.5L9 33.05q-.15.15-.375.15T8.25 33q-.2-.15-.2-.375t.2-.375l7.6-7.7H5.8q-.2 0-.35-.15-.15-.15-.15-.4 0-.2.15-.375t.4-.175h10l-7.7-7.7Q8 15.6 8 15.375t.2-.425q.15-.15.375-.15t.425.15l8.5 8.5h5.95V17.5l-8.5-8.45q-.15-.15-.125-.375.025-.225.175-.425.15-.15.375-.15t.425.15l7.65 7.55V5.85q0-.2.15-.375T24 5.3q.2 0 .375.175t.175.375v9.95l7.7-7.6q.15-.15.375-.15t.425.15q.15.2.15.425 0 .225-.15.375l-8.5 8.5v5.95h5.95L38.95 15q.15-.15.375-.15t.425.2q.15.15.15.375t-.15.375l-7.55 7.65h9.95q.2 0 .375.175T42.7 24q0 .25-.175.4-.175.15-.375.15H32.2l7.6 7.75q.15.15.15.375t-.15.375q-.2.15-.425.175-.225.025-.375-.175l-8.5-8.5h-5.95v5.95l8.5 8.55q.15.15.15.375t-.2.425q-.15.15-.375.15t-.375-.15l-7.7-7.7V42.2q0 .2-.175.35-.175.15-.375.15-.25 0-.4-.15-.15-.15-.15-.4z"/></svg>