<svg xmlns="http://www.w3.org/2000/svg" width="48" height="48" viewBox="0 96 960 960"><path d="M292.947 788Q288 788 285 784.963q-3-3.038-3-7.963V448q0-4 3.035-7t7.5-3q5.465 0 8.465 3.037 3 3.038 3 7.963v329q0 4-3.553 7-3.552 3-7.5 3Zm188.518 0Q476 788 473 784.963q-3-3.038-3-7.963V448q0-4 3.553-7 3.552-3 7.5-3 4.947 0 7.947 3.037 3 3.038 3 7.963v329q0 4-3.035 7t-7.5 3ZM170 884q-4 0-7-3.553-3-3.552-3-7.5 0-4.947 3.038-7.947 3.037-3 7.962-3h619q4 0 7 3.035t3 7.5q0 5.465-3.037 8.465-3.038 3-7.963 3H170Zm497.465-96Q662 788 659 784.963q-3-3.038-3-7.963V448q0-4 3.553-7 3.552-3 7.5-3 4.947 0 7.947 3.037 3 3.038 3 7.963v329q0 4-3.035 7t-7.5 3ZM503 205l291 143q1.852 1.75 3.926 3.875T800 358q0 2.681-1.663 4.34Q796.673 364 794 364H165q-1.6 0-3.3-2.16-1.7-2.159-1.7-3.781 0-4.059 2.5-6.559t5.5-3.5l289-143q10.634-5 22.873-5 12.238 0 23.127 5Z"/></svg>