<svg xmlns="http://www.w3.org/2000/svg" width="48" height="48" viewBox="0 -960 960 960"><path d="M480-154q59 0 114.5-20.5T695-233l-66-66q-36-14-73-21t-76-7q-63 0-121 21t-110 56q47 46 105.5 71T480-154Zm368 74L711-217q-48 41-107.5 63T480-132q-72 0-135.5-27.5T234-234q-47-47-74.5-110.5T132-480q0-63 21.5-122T218-710L98-831q-3-2-3.5-7t3.5-8q3-4 7.5-4t7.5 4L864-96q3 3 3.5 8t-3.5 8q-4 4-8 4t-8-4Zm-76-210L560-502q16-16 24.5-36.5T593-582q0-47-33-80t-80-33q-23 0-43.5 8.5T400-662L290-772q43-28 91-42t99-14q72 0 135.5 27.5T726-726q47 47 74.5 110.5T828-480q0 51-14 99t-42 91Z"/></svg>