<svg xmlns="http://www.w3.org/2000/svg" width="48" height="48" viewBox="0 -960 960 960"><path d="M711-217v90q0 4.6 4.2 8.8 4.2 4.2 9.8 4.2 4.6 0 8.3-4.2 3.7-4.2 3.7-8.8v-90h91q4.6 0 8.3-4 3.7-4 3.7-9.5t-3.7-9q-3.7-3.5-8.3-3.5h-91v-90q0-5.6-3.7-9.3-3.7-3.7-8.3-3.7-5.6 0-9.8 3.7-4.2 3.7-4.2 9.3v90h-90q-4.6 0-8.8 3.5-4.2 3.5-4.2 9t4.2 9.5q4.2 4 9.8 4h89Zm13 131q-60 0-102-42.5T580-230q0-61 42-103t102-42q60 0 102 42t42 103q0 59-42 101.5T724-86ZM317-620h326q4.95 0 7.97-3.04 3.03-3.03 3.03-8 0-4.96-3.03-7.96-3.02-3-7.97-3H317q-4.95 0-7.98 3.04-3.02 3.03-3.02 8 0 4.96 3.02 7.96 3.03 3 7.98 3Zm-91 448q-21.75 0-37.87-16.13Q172-204.25 172-226v-508q0-21.75 16.13-37.88Q204.25-788 226-788h508q21.75 0 37.88 16.12Q788-755.75 788-734v217q0 12.21-9 19.61-9 7.39-21 5.39-9-1-17.09-2T724-495q-24 0-47 4.5T632-479v-3q-.15-3.67-3.5-6.33-3.35-2.67-7.5-2.67H317q-4.95 0-7.98 3.04-3.02 3.03-3.02 8 0 4.96 3.02 7.96 3.03 3 7.98 3h288q-40 22-69.5 55T488-340H317q-4.95 0-7.98 3.04-3.02 3.03-3.02 8 0 4.96 3.02 7.96 3.03 3 7.98 3h160q-5 20-8 40.5t-3 41.5v15.5q0 9.5 1 19.5 1 11-6.07 20T443-172H226Z"/></svg>