<svg xmlns="http://www.w3.org/2000/svg" width="48" height="48" viewBox="0 -960 960 960"><path d="M723.5-172Q664-172 622-214t-42-102q0-60.435 41.99-102.717Q663.98-461 724-461q60 0 102 42.283Q868-376.435 868-316q0 60-42 102t-102.5 42ZM711-303v90q0 5.6 4.343 9.3 4.343 3.7 9.8 3.7 4.457 0 8.157-4.3t3.7-8.7v-90h91q4.6 0 8.3-4.343 3.7-4.343 3.7-8.8 0-5.457-3.7-9.157T828-329h-91v-90q0-5.6-3.7-9.3-3.7-3.7-8.157-3.7-5.457 0-9.8 3.7Q711-424.6 711-419v90h-90q-4.6 0-8.8 3.7-4.2 3.7-4.2 9.157 0 4.457 4.3 8.8Q616.6-303 622-303h89Zm-237 51H266q-21.5 0-37.75-16.25T212-306v-321q0-13.5 5.25-24.5T234-670l214-163q13.36-11 31.68-11T512-833l214 163q11.5 7.5 16.75 18.5T748-627v53q-5.25-1-11.135-1H726q-107.986 0-183.993 75.744Q466-423.513 466-316.108q0 15.852 2 31.98T474-252Z"/></svg>