<svg xmlns="http://www.w3.org/2000/svg" width="48" height="48" viewBox="0 -960 960 960"><path d="M186-212q-22.775 0-38.387-15.613Q132-243.225 132-266v-428q0-22.775 15.613-38.388Q163.225-748 186-748h588q22.775 0 38.388 15.612Q828-716.775 828-694v139.406q0 10.319-7.188 18.456Q813.625-528 803-528H154v262q0 12 10 22t22 10h343q4.675 0 7.838 3.228 3.162 3.228 3.162 8T536.838-215q-3.163 3-7.838 3H186Zm-32-386h652v-96q0-12-10-22t-22-10H186q-12 0-22 10t-10 22v96Zm638 372H683q-4.675 0-7.838-3.228-3.162-3.228-3.162-8t3.162-7.772q3.163-3 7.838-3h109v-109q0-4.675 3.228-7.838 3.228-3.162 8-3.162t7.772 3.162q3 3.163 3 7.838v109h109q4.675 0 7.838 3.228 3.162 3.228 3.162 8T930.838-229q-3.163 3-7.838 3H814v109q0 4.675-3.228 7.837-3.228 3.163-8 3.163T795-109.163q-3-3.162-3-7.837v-109Zm-638-8v-492 492Z"/></svg>