<svg xmlns="http://www.w3.org/2000/svg" width="48" height="48" viewBox="0 96 960 960"><path d="M710.772 1002q-4.772 0-7.772-3.162-3-3.163-3-7.838V882H591q-4.675 0-7.838-3.228-3.162-3.228-3.162-8t3.162-7.772q3.163-3 7.838-3h109V751q0-4.675 3.228-7.838 3.228-3.162 8-3.162t7.772 3.162q3 3.163 3 7.838v109h109q4.675 0 7.838 3.228 3.162 3.228 3.162 8T838.838 879q-3.163 3-7.838 3H722v109q0 4.675-3.228 7.838-3.228 3.162-8 3.162Zm0-388Q706 614 703 610.838q-3-3.163-3-7.838V293q0-4.675 3.228-7.838 3.228-3.162 8-3.162t7.772 3.162q3 3.163 3 7.838v310q0 4.675-3.228 7.838-3.228 3.162-8 3.162Zm-462 268Q244 882 241 878.838q-3-3.163-3-7.838V293q0-4.675 3.228-7.838 3.228-3.162 8-3.162t7.772 3.162q3 3.163 3 7.838v578q0 4.675-3.228 7.838-3.228 3.162-8 3.162Zm231-484Q475 398 472 394.838q-3-3.163-3-7.838v-94q0-4.675 3.228-7.838 3.228-3.162 8-3.162t7.772 3.162q3 3.163 3 7.838v94q0 4.675-3.228 7.838-3.228 3.162-8 3.162Zm0 242Q475 640 472 636.838q-3-3.163-3-7.838v-94q0-4.675 3.228-7.838 3.228-3.162 8-3.162t7.772 3.162q3 3.163 3 7.838v94q0 4.675-3.228 7.838-3.228 3.162-8 3.162Zm0 242Q475 882 472 878.838q-3-3.163-3-7.838v-94q0-4.675 3.228-7.838 3.228-3.162 8-3.162t7.772 3.162q3 3.163 3 7.838v94q0 4.675-3.228 7.838-3.228 3.162-8 3.162Z"/></svg>