<svg xmlns="http://www.w3.org/2000/svg" width="48" height="48" viewBox="0 96 960 960"><path d="M711 753v90q0 5.8 4.243 9.4 4.243 3.6 9.9 3.6 4.457 0 8.157-4.3t3.7-8.7v-90h91q4.6 0 8.3-4.343 3.7-4.343 3.7-9.3 0-4.957-3.7-8.657T828 727h-91v-90q0-5.8-3.7-9.4-3.7-3.6-8.657-3.6t-9.3 3.6Q711 631.2 711 637v90h-90q-4.6 0-8.8 3.6-4.2 3.6-4.2 9.257 0 4.457 4.2 8.8Q616.4 753 622 753h89Zm12.981 131q-60.02 0-102-42Q580 800 580 740q0-60.755 41.971-102.878Q663.941 595 724.481 595 784 595 826 637.122 868 679.245 868 740q0 60-42 102t-102.019 42ZM266 804q-21.5 0-37.75-16.25T212 750V429q0-13.5 5.25-24.5T234 386l214-163q13.36-11 31.68-11T512 223l214 163q11.5 7.5 16.75 18.5T748 429v53q-5-1-10.885-1H726v-68L499 241q-8-6-19-6t-19 6L234 412.667V750q0 14 9 23t23 9h203q.35 5.186 2.05 11.268 1.7 6.082 2.95 10.732H266Zm214-297Z"/></svg>