<svg xmlns="http://www.w3.org/2000/svg" width="48" height="48" viewBox="0 -960 960 960"><path d="M792-226H683q-4.675 0-7.838-3.228-3.162-3.228-3.162-8t3.162-7.772q3.163-3 7.838-3h109v-109q0-4.675 3.228-7.838 3.228-3.162 8-3.162t7.772 3.162q3 3.163 3 7.838v109h109q4.675 0 7.838 3.228 3.162 3.228 3.162 8T930.838-229q-3.163 3-7.838 3H814v109q0 4.675-3.228 7.837-3.228 3.163-8 3.163T795-109.163q-3-3.162-3-7.837v-109ZM154-528h652v-70H154v70Zm32 316q-22.775 0-38.387-15.613Q132-243.225 132-266v-428q0-22.775 15.613-38.388Q163.225-748 186-748h588q22.775 0 38.388 15.612Q828-716.775 828-694v225q0 11.475-7.763 19.237Q812.475-442 801-442h-9q-80.51 0-137.255 56.745Q598-328.51 598-248v9q0 11.475-7.763 19.238Q582.475-212 571-212H186Z"/></svg>