<svg xmlns="http://www.w3.org/2000/svg" width="48" height="48" viewBox="0 -960 960 960"><path d="M245-274v-164h72l72 7v157-157l-144-7v164Zm400-270ZM92-279v-264q0-13 5.5-25t16.5-19l172-122q13.944-10 31.472-10T349-709l167 119q13 9 19.5 22.5T542-539v34q-6 7-11 14.5T520-475v-68q0-7-3.5-14.5T506-570L335-689q-8-6-17.5-6t-18.5 6L128-569.578q-7 5-10.5 12.5t-3.5 14.5V-274h123v-147q0-11.475 8.25-19.237Q253.5-448 264-448h106q11.475 0 19.237 7.763Q397-432.475 397-421v147h72q.6 5.836 2.3 11.418Q473-257 474-252h-72q-10.5 0-18.75-7.763Q375-267.525 375-279v-147H259v147q0 11.475-7.762 19.237Q243.475-252 232-252H119q-11.475 0-19.237-7.763Q92-267.525 92-279Zm776-535v284q-4.825-4.319-10.412-7.16Q852-540 846-544v-270q0-14-9-23t-23-9H476q-14 0-23 9t-9 23v82l-22-15v-66q0-22.564 15.923-38.782Q453.846-868 476-868h338q21.5 0 37.75 16.25T868-814ZM710.529-699h23.059q5.412 0 9.412-4 4-4 4-9.333V-735q0-5.6-4-9.8-4-4.2-9.333-4.2H711q-5.6 0-9.8 4.059-4.2 4.059-4.2 9.47v23.059q0 5.412 4.059 9.412 4.059 4 9.47 4Zm13.452 527q-60.02 0-102-42Q580-256 580-316q0-60.755 41.971-102.878Q663.941-461 724.481-461 784-461 826-418.878 868-376.755 868-316q0 60-42 102t-102.019 42ZM711-303v90q0 5.8 4.243 9.4 4.243 3.6 9.9 3.6 4.457 0 8.157-4.3t3.7-8.7v-90h91q4.6 0 8.3-4.343 3.7-4.343 3.7-9.3 0-4.957-3.7-8.657T828-329h-91v-90q0-5.8-3.7-9.4-3.7-3.6-8.657-3.6t-9.3 3.6Q711-424.8 711-419v90h-90q-4.6 0-8.8 3.6-4.2 3.6-4.2 9.257 0 4.457 4.2 8.8Q616.4-303 622-303h89Z"/></svg>