<svg xmlns="http://www.w3.org/2000/svg" width="48" height="48" viewBox="0 96 960 960"><path d="M481.211 750q4.789 0 7.789-3.15t3-7.85V588h152q4 0 7-3.211 3-3.21 3-8 0-4.789-3.15-7.789t-7.85-3H492V412q0-4-3.211-7-3.21-3-8-3-4.789 0-7.789 3.15t-3 7.85v153H316q-4 0-7 3.711-3 3.71-3 7.5 0 4.789 3.15 7.789t7.85 3h153v152q0 4 3.211 7 3.21 3 8 3ZM479.5 924q-72.5 0-136-27T233 823q-47-47-74-110.5t-27-136q0-73.5 27-137T233 329q47-47 110.5-74t136-27q73.5 0 137 27T727 329q47 47 74 110.5t27 137q0 72.5-27 136T727 823q-47 47-110.5 74t-137 27Zm.5-348Zm0 326q135 0 230.5-95.5T806 576q0-135-95.5-230.5T480 250q-135 0-230.5 95.5T154 576q0 135 95.5 230.5T480 902Z"/></svg>