<svg xmlns="http://www.w3.org/2000/svg" width="48" height="48" viewBox="0 -960 960 960"><path d="M683-277q25.583 0 43.292-18.176 17.708-18.177 17.708-43Q744-363 726-381q-18-18-42.824-18-24.823 0-42.999 17.588-18.177 17.588-18.177 43T640.125-295Q658.25-277 683-277Zm0 121q32 0 58.5-13.5T785-208q-24-14-49.351-21-25.35-7-52.649-7t-53.149 7Q604-222 581-208q17 25 43 38.5t59 13.5Zm1.481 24q-60.52 0-102.5-42Q540-216 540-276q0-60.32 41.981-102.66 41.98-42.34 102.5-42.34Q744-421 786-378.66q42 42.34 42 102.66 0 60-42 102t-101.519 42ZM480-134q-114-36-191-141.5T212-518v-168q0-17.054 10.01-31.297Q232.019-731.541 247-738l214-79q10-4 19-4t19 4l214 79q14.981 6.459 24.99 20.703Q748-703.054 748-686v201q-14-5-30.5-7.5T684-495q-91.114 0-154.557 63.943Q466-367.114 466-276q0 31 9.5 65.5T510-145q-8 4-15.5 6.5T480-134Z"/></svg>