<svg xmlns="http://www.w3.org/2000/svg" width="48" height="48" viewBox="0 -960 960 960"><path d="M222-200q-65.42 0-110.71-45.91Q66-291.81 66-357.11q0-65.29 46.11-111.09 46.1-45.8 111-45.8Q288-514 334-468.09q46 45.9 46 111.2 0 65.29-45.96 111.09T222-200Zm.88-114q-17.88 0-30.38-12.62t-12.5-30.5q0-17.88 12.62-30.38t30.5-12.5q17.88 0 30.38 12.62t12.5 30.5q0 17.88-12.62 30.38t-30.5 12.5ZM782.5-200q-47.5 0-80.5-32.66-33-32.65-33-79.34 0-47.17 32.91-80.09Q734.83-425 782-425q46.69 0 79.34 33.04Q894-358.93 894-313q0 48-32.5 80.5t-79 32.5ZM140-586q-5.43 0-8.21-3.04-2.79-3.03-2.79-8 0-3.96 2.79-7.46 2.78-3.5 8.21-3.5h134q13.16 0 23.58 6Q308-596 318-586H140Zm178.5 324.62q39.5-39.38 39.5-95.5t-39.38-95.62q-39.38-39.5-95.5-39.5t-95.62 39.38Q88-413.24 88-357.12t39.38 95.62q39.38 39.5 95.5 39.5t95.62-39.38Zm527 13.06q26.5-26.33 26.5-64 0-37.68-26.32-64.18-26.33-26.5-64-26.5-37.68 0-64.18 26.32-26.5 26.33-26.5 64 0 37.68 26.32 64.18 26.33 26.5 64 26.5 37.68 0 64.18-26.32ZM405-346h242q15-47 53.91-74.5T787-448q9.41 0 18.2.5 8.8.5 17.8 2.5v-181q0-21.5-16.25-37.75T769-680H571l-44-45 45-46q6-4.82 6-11.91t-5.36-12.59q-5.35-5.5-12.5-5.5-7.14 0-13.14 5L431-680q-5 6-4.5 13.5t5.36 12.5q4.85 6 12.5 6 7.64 0 12.64-6l45-45 44 43.64V-599q0 51.16-36.75 88.58T420-473h-56q21 25 32 56.5t9 64.5q0 1.33-.5 3.17-.5 1.83.5 2.83Z"/></svg>