<svg xmlns="http://www.w3.org/2000/svg" width="48" height="48" viewBox="0 96 960 960"><path d="M665 906q-8.525 0-15.263-6.737Q643 892.525 643 884V679H317q-20.875 0-35.938-15.062Q266 648.875 266 628V242h182v295h198q21.763 0 36.381 14.619Q697 566.237 697 588v272h79q14 0 21.5 6.977 7.5 6.976 7.5 16Q805 892 797.5 899t-21.5 7H665ZM249 750q-22.75 0-38.375-15.625T195 696V253q0-4.725 3.193-7.862 3.193-3.138 8-3.138t7.807 3.138q3 3.137 3 7.862v443q0 12 10 22t22 10h293q4.725 0 7.862 3.193 3.138 3.193 3.138 8T549.862 747q-3.137 3-7.862 3H249Z"/></svg>