<svg xmlns="http://www.w3.org/2000/svg" width="48" height="48" viewBox="0 0 48 48"><path d="M16.65 27.15q.45 0 .8-.35.35-.35.35-.8 0-.45-.35-.8-.35-.35-.8-.35-.45 0-.8.35-.35.35-.35.8 0 .45.35.8.35.35.8.35Zm7.35 0q.45 0 .8-.35.35-.35.35-.8 0-.45-.35-.8-.35-.35-.8-.35-.45 0-.8.35-.35.35-.35.8 0 .45.35.8.35.35.8.35Zm7.35 0q.45 0 .8-.35.35-.35.35-.8 0-.45-.35-.8-.35-.35-.8-.35-.45 0-.8.35-.35.35-.35.8 0 .45.35.8.35.35.8.35ZM24 41.35q-3.2 0-6-1.2t-4.9-3.275Q11 34.8 9.8 32q-1.2-2.8-1.2-6t1.2-6q1.2-2.8 3.3-4.9 2.1-2.1 4.9-3.3 2.8-1.2 6-1.2 3.15 0 5.95 1.2 2.8 1.2 4.9 3.3 2.1 2.1 3.3 4.9 1.2 2.8 1.2 6t-1.2 6q-1.2 2.8-3.3 4.875-2.1 2.075-4.9 3.275-2.8 1.2-5.95 1.2ZM24 26ZM5.85 14.2q-.2-.2-.2-.4t.2-.4l5.6-5.55q.15-.15.375-.15t.425.2q.2.15.175.375-.025.225-.175.375l-5.6 5.55q-.2.15-.425.175Q6 14.4 5.85 14.2Zm36.3 0q-.2.2-.4.2t-.4-.2l-5.6-5.55q-.15-.1-.175-.35-.025-.25.175-.4.15-.2.35-.2.2 0 .4.15l5.6 5.55q.15.15.2.375.05.225-.15.425ZM24 40.25q5.9 0 10.075-4.175Q38.25 31.9 38.25 26q0-5.95-4.175-10.125T24 11.7q-5.95 0-10.125 4.175T9.7 26q0 5.9 4.175 10.075Q18.05 40.25 24 40.25Z"/></svg>