<svg xmlns="http://www.w3.org/2000/svg" width="48" height="48" viewBox="0 -960 960 960"><path d="M350.824-158Q338-158 328.5-167.625 319-177.25 319-190v-443q0-12.75 9.676-22.375 9.677-9.625 22.5-9.625 12.824 0 22.324 9.625Q383-645.75 383-633v443q0 12.75-9.676 22.375-9.677 9.625-22.5 9.625Zm257.999-240Q596-398 586.5-407.625T577-430v-203q0-12.75 9.677-22.375 9.676-9.625 22.5-9.625 12.823 0 22.323 9.625T641-633v203q0 12.75-9.677 22.375-9.676 9.625-22.5 9.625ZM143-781q-4.725 0-7.863-3.193-3.137-3.193-3.137-8t3.137-7.807q3.138-3 7.863-3h674q4.725 0 7.862 3.193 3.138 3.193 3.138 8T824.862-784q-3.137 3-7.862 3H143Z"/></svg>