<svg xmlns="http://www.w3.org/2000/svg" width="48" height="48" viewBox="0 96 960 960"><path d="M182.807 924Q178 924 175 920.862q-3-3.137-3-7.862V239q0-4.725 3.193-7.862 3.193-3.138 8-3.138t7.807 3.138q3 3.137 3 7.862v674q0 4.725-3.193 7.862-3.193 3.138-8 3.138ZM342 479q-12.75 0-22.375-9.677-9.625-9.676-9.625-22.5 0-12.823 9.625-22.323T342 415h414q12.75 0 22.375 9.677 9.625 9.676 9.625 22.5 0 12.823-9.625 22.323T756 479H342Zm0 258q-12.75 0-22.375-9.676Q310 717.647 310 704.823q0-12.823 9.625-22.323T342 673h174q12.75 0 22.375 9.676Q548 692.353 548 705.177q0 12.823-9.625 22.323T516 737H342Z"/></svg>