<svg xmlns="http://www.w3.org/2000/svg" width="48" height="48" viewBox="0 0 48 48"><path d="M37 43.25q-.5 0-.9-.275t-.55-.825q-5.9-.9-10.2-5.2-4.3-4.3-6.1-11-5.35 2-8.7 6.25-3.35 4.25-4 9.75-.05.25-.225.5t-.425.25q-.3 0-.425-.275T5.4 41.85q.55-6 4.125-10.475T19 24.8q-1.05-5.05-.425-9.6T21.3 7.85q-.15-.2-.2-.45-.05-.25-.05-.5-.05-.65.4-1.1.45-.45 1.15-.45.65 0 1.1.425.45.425.45 1.125 0 .65-.45 1.1-.45.45-1.1.45-.1 0-.225-.025T22.2 8.4q-1.8 2.45-2.425 5.4-.625 2.95-.225 7.2.7-2.2 2.325-3.6Q23.5 16 25.95 15.3q1.2-.55 2.7-.825 1.5-.275 3.25-.325.2-.4.575-.675.375-.275.875-.275.65 0 1.1.45.45.45.45 1.1 0 .65-.45 1.1-.45.45-1.1.45-.5 0-.9-.275t-.55-.775q-1.85.05-3.225.3t-2.475.7q-2.95.85-4.375 2.875Q20.4 21.15 20.5 24.3q1.75-.5 3.725-.7 1.975-.2 3.475-.15.2-.45.575-.725.375-.275.875-.275.65 0 1.1.45.45.45.45 1.1 0 .65-.45 1.1-.45.45-1.1.45-.5 0-.9-.275t-.55-.775q-1.35-.05-3.325.175-1.975.225-3.675.775.55 3.05 2.975 4.55t6.875 1.45q1.05 0 2.35-.125T35.6 31q.15-.5.575-.825.425-.325.925-.325.7 0 1.125.45.425.45.425 1.1 0 .65-.425 1.1-.425.45-1.125.45-.4 0-.775-.225t-.525-.575q-1.65.25-3 .35-1.35.1-2.5.1-2.65 0-4.75-.575T22 30.25q2.2 4.6 5.725 7.35 3.525 2.75 7.925 3.45.2-.4.55-.65.35-.25.8-.25.7 0 1.125.45.425.45.425 1.1 0 .65-.425 1.1-.425.45-1.125.45Z"/></svg>