<svg xmlns="http://www.w3.org/2000/svg" width="48" height="48" viewBox="0 -960 960 960"><path d="M322-477.84q-3 3.16-3 7.84v154q0 4.68 3.23 7.84t8 3.16q4.77 0 7.77-3.16t3-7.84v-154q0-4.68-3.23-7.84t-8-3.16q-4.77 0-7.77 3.16Zm300-204q-3 3.17-3 7.84v358q0 4.68 3.23 7.84t8 3.16q4.77 0 7.77-3.16t3-7.84v-358q0-4.67-3.23-7.84-3.23-3.16-8-3.16t-7.77 3.16ZM472-395.35q-3 3.65-3 7.35v72q0 4.68 3.23 7.84t8 3.16q4.77 0 7.77-3.16t3-7.84v-72q0-3.7-3.23-7.35-3.23-3.65-8-3.65t-7.77 3.65ZM226-172q-22.77 0-38.39-15.61Q172-203.23 172-226v-508q0-22.78 15.61-38.39Q203.23-788 226-788h508q22.78 0 38.39 15.61T788-734v508q0 22.77-15.61 38.39Q756.78-172 734-172H226Zm262-338.23q3-3.23 3-8t-3.23-7.77q-3.23-3-8-3t-7.77 3.23q-3 3.23-3 8t3.23 7.77q3.23 3 8 3t7.77-3.23Z"/></svg>