<svg xmlns="http://www.w3.org/2000/svg" width="48" height="48" viewBox="0 -960 960 960"><path d="M131-235v-196q0-9.67 7.24-16.33 7.23-6.67 16-6.67 8.76 0 15.76 6.67 7 6.66 7 16.33v196q0 8.67-7.24 15.83-7.23 7.17-16 7.17-8.76 0-15.76-7.17-7-7.16-7-15.83Zm217 0v-287q0-9.67 7.24-16.33 7.23-6.67 16.5-6.67 9.26 0 15.76 6.67 6.5 6.66 6.5 16.33v287q0 8.67-6.74 15.83-6.73 7.17-16 7.17-9.26 0-16.26-7.17-7-7.16-7-15.83Zm217 0v-380q0-8.67 6.74-15.83 6.73-7.17 16-7.17 9.26 0 16.26 7.17 7 7.16 7 15.83v380q0 8.67-7.24 15.83-7.23 7.17-16.5 7.17-9.26 0-15.76-7.17-6.5-7.16-6.5-15.83Zm217-282v-208q0-8.67 7.24-15.83 7.23-7.17 16-7.17 8.76 0 15.76 7.17 7 7.16 7 15.83v205q-2 1-4.95 1H817q-8.97 0-17.71.56T782-517Zm19 297.86q-7-7.14-7-16t7.14-15.86q7.14-7 16-7t15.86 7.14q7 7.14 7 16T832.86-219q-7.14 7-16 7T801-219.14Zm5-95.86v-136q0-4.7 3.21-7.85 3.21-3.15 8-3.15t7.79 3.15q3 3.15 3 7.85v136q0 4.7-3.21 7.85-3.21 3.15-8 3.15t-7.79-3.15q-3-3.15-3-7.85Z"/></svg>