<svg xmlns="http://www.w3.org/2000/svg" width="48" height="48" viewBox="0 -960 960 960"><path d="M689-212q-16.12 0-27.06-11.44Q651-234.88 651-251v-103q0-15.29 10.94-25.65Q672.88-390 689-390h3v-40q0-29.48 19.5-49.74T760-500q29 0 48.5 20.26T828-430v40h3q15.29 0 26.15 10.35Q868-369.29 868-354v103q0 16.12-10.56 27.56Q846.88-212 831-212H689Zm31-178h81v-40q0-17-12.11-29.5-12.1-12.5-29-12.5-16.89 0-28.39 12.5T720-430v40ZM442-224.43q-16-15.44-16-38Q426-285 441.93-300t38.49-15q21.57 0 37.58 15.43 16 15.44 16 37.5 0 22.07-16.14 37.57t-38 15.5Q458-209 442-224.43ZM481-561q-74.2 0-143.02 21.77Q269.16-517.46 210-473q-8 5-17 5t-15.17-6q-6.83-6-6.07-14.43.77-8.44 8.24-13.57 65.07-49.98 141.2-75.49Q397.33-603 481-603q45.42 0 87.71 7Q611-589 654-574q-11 7-20.5 14.5T615-543q-33-10-66.43-14-33.42-4-67.57-4Zm-1 146q-42.6 0-83.8 11.5Q355-392 320-369q-8 5-17 4.5t-16-7.5q-6-6-5.5-14t7.5-13q42-28 91-43.5T480-458q20.73 0 40 2.69 19.28 2.69 39 6.31-3 10-5.5 20t-5.5 20q-17-3-33.93-4.5Q497.13-415 480-415ZM278.5-674.5Q181-642 99-578q-6.78 6-15.99 5.77-9.22-.22-15.51-5.83-6.5-4.6-6-13.77T68-606q89-70 194.05-106 105.05-36 218.5-36Q593-748 698.5-712.5 804-677 892-606q6 5 6.5 13.5t-6 14.5q-6.5 6-15.4 6-8.89 0-16.1-6-82-64-179.49-96.5-97.49-32.5-201.5-32.5T278.5-674.5Z"/></svg>