<svg xmlns="http://www.w3.org/2000/svg" width="48" height="48" viewBox="0 -960 960 960"><path d="m552-494 93-63q12-9.111 12-23.056Q657-594 645-603l-93-63q-14-10-28.5-2T509-644v128q0 16 14.5 24t28.5-2ZM249-139q-23 3-40.5-10.5T189-185l-52-392q-3-23 10.878-41.598Q161.757-637.196 185-639l15-2q5 0 8 3.643t3 8.357q0 4.838-2.583 7.839Q205.833-618.16 202-618l-13 1q-13 2-21 12.5t-7 23.5l49 392q2 14 12.5 22t23.5 6l499-62q5-1 8.357 2.122 3.357 3.121 4.643 7.268 0 4.39-2.622 7.315Q752.757-203.37 748-202l-499 63Zm90-162q-22.775 0-38.388-15.612Q285-332.225 285-355v-435q0-22.775 15.612-38.388Q316.225-844 339-844h435q22.775 0 38.388 15.612Q828-812.775 828-790v435q0 22.775-15.612 38.388Q796.775-301 774-301H339Zm0-22h435q14 0 23-9.5t9-22.5v-435q0-14-9-23t-23-9H339q-13 0-22.5 9t-9.5 23v435q0 13 9.5 22.5T339-323ZM214-157Zm343-416Z"/></svg>