<svg xmlns="http://www.w3.org/2000/svg" width="48" height="48" viewBox="0 -960 960 960"><path d="M390-500q-6.067 0-10.033-3.953-3.967-3.954-3.967-10Q376-520 379.967-524q3.966-4 10.033-4h180q6.067 0 10.033 3.953 3.967 3.954 3.967 10Q584-508 580.033-504q-3.966 4-10.033 4H390Zm40 88q-6.067 0-10.033-3.953-3.967-3.954-3.967-10Q416-432 419.967-436q3.966-4 10.033-4h100q6.067 0 10.033 3.953 3.967 3.954 3.967 10Q544-420 540.033-416q-3.966 4-10.033 4H430Zm12 238q-18.971 0-33.486-11Q394-196 389-214l-17-65q-53-26-86.5-80T252-480q0-67 33.5-121t86.5-80l17-65q5-18 19.514-29 14.515-11 33.486-11h76q18.971 0 33.485 11Q566-764 571-746l17 65q53 26 86.5 80T708-480q0 67-33.5 121T588-279l-17 65q-5 18-19.515 29-14.514 11-33.485 11h-76Zm38-100q86 0 146-60t60-146q0-86-60-146t-146-60q-86 0-146 60t-60 146q0 86 60 146t146 60Z"/></svg>