<svg xmlns="http://www.w3.org/2000/svg" width="48" height="48" viewBox="0 -960 960 960"><path d="M236-200q-14.5 0-25.25-10.75T200-236q0-14.5 10.75-25.25T236-272q14.5 0 25.25 10.75T272-236q0 14.5-10.75 25.25T236-200Zm0-244q-14.5 0-25.25-10.75T200-480q0-14.5 10.75-25.25T236-516q14.5 0 25.25 10.75T272-480q0 14.5-10.75 25.25T236-444Zm0-244q-14.5 0-25.25-10.75T200-724q0-14.5 10.75-25.25T236-760q14.5 0 25.25 10.75T272-724q0 14.5-10.75 25.25T236-688Zm244 0q-14.5 0-25.25-10.75T444-724q0-14.5 10.75-25.25T480-760q14.5 0 25.25 10.75T516-724q0 14.5-10.75 25.25T480-688Zm244 0q-14.5 0-25.25-10.75T688-724q0-14.5 10.75-25.25T724-760q14.5 0 25.25 10.75T760-724q0 14.5-10.75 25.25T724-688ZM480-444q-14.5 0-25.25-10.75T444-480q0-14.5 10.75-25.25T480-516q14.5 0 25.25 10.75T516-480q0 14.5-10.75 25.25T480-444Zm52 217v-41q0-4.565 2-9.283 2-4.717 6-8.717l203-202q5-4 9.889-6 4.889-2 9.778-2 5.333 0 10.656 2 5.322 2 9.677 6l37 38q4 5 6 10t2 10q0 5-2 10t-6 10L618-208q-4 4-8.717 6-4.718 2-9.283 2h-41q-11.75 0-19.375-7.625T532-227Zm231-165 37-38-37-38-38 38 38 38Z"/></svg>