<svg xmlns="http://www.w3.org/2000/svg" width="48" height="48" viewBox="0 96 960 960"><path d="m831 491-7.907-18.093L805 465q-6-2.636-6-8.818 0-6.182 6-9.182l18.093-7.907L831 421q2.636-6 8.818-6 6.182 0 9.182 6l7.907 18.093L875 447q6 2.636 6 8.818 0 6.182-6 9.182l-18.093 7.907L849 491q-2.636 6-8.818 6-6.182 0-9.182-6ZM626 668l-24-54-54-24q-9-3.871-9-13.935Q539 566 548 562l54-24 24-54q3.871-9 13.935-9Q650 475 654 484l24 54 54 24q9 3.871 9 13.935Q741 586 732 590l-54 24-24 54q-3.871 9-13.935 9Q630 677 626 668Zm205 63-7.907-18.093L805 705q-6-2.636-6-8.818 0-6.182 6-9.182l18.093-7.907L831 661q2.636-6 8.818-6 6.182 0 9.182 6l7.907 18.093L875 687q6 2.636 6 8.818 0 6.182-6 9.182l-18.093 7.907L849 731q-2.636 6-8.818 6-6.182 0-9.182-6ZM686 879H274v31q0 14 9 23t23 9h348q14 0 23-9t9-23v-31Zm0-606v-31q0-14-9-23t-23-9H306q-14 0-23 9t-9 23v31h412ZM306 964q-21.75 0-37.875-16.125T252 910V242q0-21.75 16.125-37.875T306 188h348q21.75 0 37.875 16.125T708 242v120h-22v-67H274v562h412v-67h22v120q0 21.75-16.125 37.875T654 964H306Zm-32-754v63-63Zm0 732v-63 63Z"/></svg>