<svg xmlns="http://www.w3.org/2000/svg" width="48" height="48" viewBox="0 -960 960 960"><path d="M480-480Zm-348 .174q0-72.174 27.405-135.732 27.405-63.559 74.885-110.574 47.48-47.016 110.49-74.442Q407.79-828 480-828q20.772 0 40.386 2.5Q540-823 559-818q-4 4-8 8.5t-7 9.5q-15.976-2.6-31.488-4.3Q497-806 480-806q-136 0-231 95t-95 231q0 136 95 231t231 95q136 0 231-95t95-231q0-17-1.7-32.512T800-544q5-3 9.5-7t8.5-8q5 19 7.5 38.614Q828-500.772 828-480q0 72.21-27.391 135.22-27.392 63.01-74.348 110.49-46.957 47.48-110.435 74.885Q552.348-132 480.174-132 408-132 344.942-159.391q-63.059-27.392-110.575-74.848-47.515-47.457-74.941-110.435Q132-407.652 132-479.826ZM700.118-609Q662-609 635.5-635.382q-26.5-26.383-26.5-64.5Q609-738 635.382-764.5q26.383-26.5 64.5-26.5Q738-791 764.5-764.618q26.5 26.383 26.5 64.5Q791-662 764.618-635.5q-26.383 26.5-64.5 26.5Z"/></svg>