<svg xmlns="http://www.w3.org/2000/svg" width="48" height="48" viewBox="0 -960 960 960"><path d="M134-252q-22.775 0-38.388-15.612Q80-283.225 80-306v-348q0-22.775 15.612-38.388Q111.225-708 134-708h348q22.775 0 38.388 15.612Q536-676.775 536-654v348q0 22.775-15.612 38.388Q504.775-252 482-252H134Zm0-22h348q12 0 22-10t10-22v-348q0-12-10-22t-22-10H134q-12 0-22 10t-10 22v348q0 12 10 22t22 10Zm153-100-47-62q-4-5-10.5-5.5T219-436l-33 43q-5 7-.32 14.5T198-371h219q7.5 0 11.75-7.5T428-393l-52-70q-4-5-10.5-5t-10.5 5l-68 89Zm409.807 122Q692-252 689-255.137q-3-3.138-3-7.863v-434q0-4.725 3.193-7.862 3.193-3.138 8-3.138t7.807 3.138q3 3.137 3 7.862v434q0 4.725-3.193 7.863-3.193 3.137-8 3.137Zm172 0Q864-252 861-255.137q-3-3.138-3-7.863v-434q0-4.725 3.193-7.862 3.193-3.138 8-3.138t7.807 3.138q3 3.137 3 7.862v434q0 4.725-3.193 7.863-3.193 3.137-8 3.137ZM102-274v-412 412Z"/></svg>