<svg xmlns="http://www.w3.org/2000/svg" width="48" height="48" viewBox="0 -960 960 960"><path d="M316-632h328q5 0 8-3t3-8q0-5-3-8t-8-3H316q-5 0-8 3t-3 8q0 5 3 8t8 3Zm-90 460q-22 0-38-16t-16-38v-508q0-22 16-38t38-16h508q22 0 38 16t16 38v134q0 11-9 16t-19-1q-16-14-38.5-23t-46.5-9q-57 0-102.5 35T512-491H316q-5 0-8 3t-3 8q0 5 3 8t8 3h194q-4 32 4.5 62.5T542-350q-13 5-25.5 10.5T492-328H316q-5 0-8 3t-3 8q0 5 3 8t8 3h135q-22 21-32.5 49T408-199v2q0 10-7 17.5t-18 7.5H226Zm303 0q-11 0-19-7.5t-8-19.5v-2q0-17 8-30t23-19q33-15 68.5-22.5T675-280q37 0 72.5 7.5T818-250q14 6 22 19t8 30v2q0 12-7.5 19.5T821-172H529Zm95.5-227.5Q603-421 603-450.5t21.5-51q21.5-21.5 51-21.5t50.5 21.5q21 21.5 21 51t-21 51Q705-378 675.5-378t-51-21.5Z"/></svg>