<svg xmlns="http://www.w3.org/2000/svg" width="48" height="48"><path d="m21.1 28.6-5.4-5.4q-.2-.15-.4-.175-.2-.025-.4.175-.2.2-.2.4t.2.4l5.25 5.3q.4.4.925.4t.975-.4L33 18.3q.15-.15.175-.375Q33.2 17.7 33 17.5q-.2-.2-.4-.2t-.4.2zm-9.8 10.8q-1.1 0-1.9-.8-.8-.8-.8-1.9V11.3q0-1.1.8-1.9.8-.8 1.9-.8h10q-.55-1.4.3-2.7.85-1.3 2.4-1.3 1.6 0 2.45 1.3.85 1.3.25 2.7h10q1.1 0 1.9.8.8.8.8 1.9v25.4q0 1.1-.8 1.9-.8.8-1.9.8zM24 8.9q.65 0 1.125-.45t.475-1.1q0-.65-.475-1.125T24 5.75q-.65 0-1.1.475-.45.475-.45 1.125t.45 1.1q.45.45 1.1.45zM11.3 38.3h25.4q.6 0 1.1-.5.5-.5.5-1.1V11.3q0-.6-.5-1.1-.5-.5-1.1-.5H11.3q-.6 0-1.1.5-.5.5-.5 1.1v25.4q0 .6.5 1.1.5.5 1.1.5zM9.7 9.65V38.2 9.65z"/></svg>