<svg xmlns="http://www.w3.org/2000/svg" width="48" height="48" viewBox="0 96 960 960"><path d="M422 668 314 560q-4.2-3-8.1-3.5-3.9-.5-7.9 3.5t-4 8q0 4 4 8l105 106q8 8 18.364 8 10.363 0 19.636-8l219-220q3-3 3.5-7.5T660 446q-4-4-8-4t-8 4L422 668ZM226 862h508q12 0 22-10t10-22V322q0-12-10-22t-22-10H226q-12 0-22 10t-10 22v508q0 12 10 22t22 10Zm-32-572v572-572Zm32 594q-21.75 0-37.875-16.125T172 830V322q0-21.75 16.125-37.875T226 268h205q-13-28 3-54t46-26q31 0 47 26t2 54h205q21.75 0 37.875 16.125T788 322v508q0 21.75-16.125 37.875T734 884H226Zm253.791-610q12.79 0 22.5-9Q512 256 512 242.5t-9.709-22.5q-9.71-9-22.5-9Q467 211 458 220t-9 22.5q0 13.5 9 22.5t21.791 9Z"/></svg>