<svg xmlns="http://www.w3.org/2000/svg" width="48" height="48" viewBox="0 96 960 960"><path d="m378 718 96-45q2-1 5.5-1t6.5 1l96 45q8 4 14.5-2.5T600 700L493 442q-3.333-8-13.167-8Q470 434 467 442L360 700q-3 9 3.5 15.5T378 718Zm101.826-490q72.174 0 135.732 26.891 63.559 26.892 111.074 74.348 47.516 47.457 74.442 110.935Q828 503.652 828 575.826q0 72.174-26.891 135.732-26.892 63.559-74.348 111.075-47.457 47.515-110.935 74.441Q552.348 924 480.174 924 408 924 344.442 897.109q-63.559-26.892-111.075-74.348-47.515-47.457-74.441-110.935Q132 648.348 132 576.174q0-72.174 26.891-135.732 26.892-63.559 74.348-111.074 47.457-47.516 110.935-74.442Q407.652 228 479.826 228Z"/></svg>