<svg xmlns="http://www.w3.org/2000/svg" width="48" height="48" viewBox="0 96 960 960"><path d="m743 359-27.625-62.375L653 269l62.375-28.625L743 179l28.625 61.375L833 269l-61.375 27.625L743 359Zm0 614-27.312-61.688L653 883l62.375-28.625L743 793l28.625 61.375L833 883l-61.688 28.312L743 973ZM270 696h19l32-80h150l32 80h19L407 408h-22L270 696Zm60-100 66-168 66 168H330Zm65.882 226Q499 822 570.5 750.618q71.5-71.383 71.5-174.5Q642 473 570.618 401.5q-71.383-71.5-174.5-71.5Q293 330 221.5 401.382q-71.5 71.383-71.5 174.5Q150 679 221.382 750.5q71.383 71.5 174.5 71.5Zm.277 22Q284 844 206 766.159q-78-77.842-78-190Q128 464 205.841 386q77.842-78 190-78Q508 308 586 385.841q78 77.842 78 190Q664 688 586.159 766q-77.842 78-190 78ZM396 576Z"/></svg>