<svg xmlns="http://www.w3.org/2000/svg" width="48" height="48" viewBox="0 96 960 960"><path d="M763 922q-48 0-81-33.5T649 807V614q0-26 18-44t44-18q26 0 44 18t18 44v184q0 5-3 8t-8 3q-5 0-8-3t-3-8V613q0-17-11.5-29.5T711 571q-17 0-28.5 12.5T671 613v195q0 39 26.5 67t65.5 28q38 0 64-27.5t26-66.5V649q0-5 3-8t8-3q5 0 8 3t3 8v160q0 47-33 80t-79 33ZM140 764q-23 0-39-15.5T85 710V282q0-23 15.5-38.5T139 228h588q23 0 38.5 15.5T781 282v237h-73q-39 0-67.5 28T612 614v150H140Zm293-287q4 0 8-1t8-3l299-200q5-3 5.5-8t-2.5-9q-3-2-7.5-2.5T736 255L433 454 130 255q-2 0-7-1.5t-8 1.5q-3 5-2 10t5 8l300 200q3 2 7 3t8 1Z"/></svg>