<svg xmlns="http://www.w3.org/2000/svg" width="48" height="48" viewBox="0 -960 960 960"><path d="M140-292q-22.688 0-38.844-15.625Q85-323.25 85-346v-428q0-21.5 16.25-37.75T139-828h588q21.5 0 37.75 16.25T781-774v189q0 4.675-3.228 7.838-3.228 3.162-8 3.162T762-577.162q-3-3.163-3-7.838v-205L449-583q-4 2-8 3t-8 1q-4 0-8-1t-7-3L107-790v444q0 14 9 23t23 9h425q4.675 0 7.838 3.228 3.162 3.228 3.162 8T571.838-295q-3.163 3-7.838 3H140Zm293-310 310-204H123l310 204ZM107-790v7-23 5.009-.438V-783v-7 476-476Zm656 656q-48 0-81-33.444-33-33.443-33-81.556v-193q0-25.44 18.09-43.72Q685.181-504 711.38-504q25.36 0 43.49 18.28Q773-467.44 773-442v184q0 4.675-3.228 7.837-3.228 3.163-8 3.163T754-250.163q-3-3.162-3-7.837v-184.541q0-17.659-11.5-30.059Q728-485 711-485t-28.5 12.4Q671-460.2 671-443v195q0 38.775 26.659 66.887 26.66 28.113 66 28.113Q801-153 827-180.613q26-27.612 26-66.387v-160q0-4.675 3.228-7.838 3.228-3.162 8-3.162t7.772 3.162q3 3.163 3 7.838v160q0 46.625-33 79.812Q809-134 763-134Z"/></svg>