<svg xmlns="http://www.w3.org/2000/svg" width="48" height="48" viewBox="0 -960 960 960"><path d="m437-589 41-108h2l44 108h-87Zm43.471 170Q402-419 348.5-472.265q-53.5-53.264-53.5-131Q295-681 348.029-734.5q53.03-53.5 131.5-53.5Q558-788 611.5-734.902T665-603.235Q665-526 611.971-472.5q-53.03 53.5-131.5 53.5Zm-53.682-146H533l22 58q1 4 4.919 6.5 3.92 2.5 8.492 2.5 7.839 0 11.714-6t2.036-12.911L489-746q-1-1.267-2.8-2.633Q484.4-750 482-750h-4.846Q475-750 473-748.633q-2 1.366-3 2.633l-89.176 231.089Q379-510.1 382.708-504.05q3.708 6.05 10.201 6.05 3.091 0 6.591-1.967 3.5-1.966 4.5-6.033l22.789-59ZM174.772-106Q170-106 167-109.163q-3-3.162-3-7.837v-122q0-4.675 3.228-7.837 3.228-3.163 8-3.163t7.772 3.163q3 3.162 3 7.837v122q0 4.675-3.228 7.837-3.228 3.163-8 3.163Zm116 0Q286-106 283-109.163q-3-3.162-3-7.837v-122q0-4.675 3.228-7.837 3.228-3.163 8-3.163t7.772 3.163q3 3.162 3 7.837v122q0 4.675-3.228 7.837-3.228 3.163-8 3.163Zm116 0Q402-106 399-109.163q-3-3.162-3-7.837v-122q0-4.675 3.228-7.837 3.228-3.163 8-3.163t7.772 3.163q3 3.162 3 7.837v122q0 4.675-3.228 7.837-3.228 3.163-8 3.163ZM523-106q-4.675 0-7.838-3.163Q512-112.325 512-117v-122q0-4.675 3.162-7.837Q518.325-250 523-250h262q4.675 0 7.838 3.163Q796-243.675 796-239v122q0 4.675-3.162 7.837Q789.675-106 785-106H523Z"/></svg>