<svg xmlns="http://www.w3.org/2000/svg" width="48" height="48" viewBox="0 -960 960 960"><path d="M274-729v535-535Zm32 557q-22.77 0-38.39-15.61Q252-203.23 252-226v-503h-30.94q-4.06 0-7.06-3.16-3-3.17-3-7.84 0-4 3.65-7.5T222-751h134q0-10 7.64-17.5 7.63-7.5 17.36-7.5h193q9.72 0 17.36 7.64Q599-760.72 599-751h133q4.67 0 7.84 3.23 3.16 3.23 3.16 8t-3.16 7.77q-3.17 3-7.84 3h-30v175q0 4.67-3.23 7.84-3.23 3.16-8 3.16t-7.77-3.16q-3-3.17-3-7.84v-175H274v503q0 12 10 22t22 10h108q5.35 0 8.17 2.9 2.83 2.9 2.83 7.64 0 4.46-3.65 7.96T414-172H306Zm91-472.35q-3 3.65-3 7.35v329q0 4.68 3.23 7.84t8 3.16q4.77 0 7.77-3.16t3-7.84v-329q0-3.7-3.23-7.35-3.23-3.65-8-3.65t-7.77 3.65Zm145 0q-3 3.65-3 7.35v120q0 4.25 3.23 7.12 3.23 2.88 8 2.88t7.77-3.16q3-3.17 3-7.84v-119q0-3.7-3.23-7.35-3.23-3.65-8-3.65t-7.77 3.65Zm-4 499.09q-57-57.26-57-138.5Q481-365 538.38-422q57.38-57 137.83-57 40.2 0 76 15.5 35.79 15.5 62.29 42t42 62.3q15.5 35.8 15.5 76.01 0 81.41-57.24 138.3Q757.52-88 676.26-88 595-88 538-145.26Zm152-143.32V-383q0-5.6-4-9.8-4-4.2-10-4.2t-10 4.2q-4 4.2-4 9.8v95q0 5.22 2 10.11t5.83 8.72l62.06 62.06Q736-203 742-202.5q6 .5 10-4.5 5-5 5-10t-5-10l-62-61.58Z"/></svg>