<svg xmlns="http://www.w3.org/2000/svg" width="48" height="48" viewBox="0 -960 960 960"><path d="M416.228-426q4.772 0 7.772-3.162 3-3.163 3-7.838v-246q0-4.675-3.228-7.838-3.228-3.162-8-3.162T408-690.838q-3 3.163-3 7.838v246q0 4.675 3.228 7.838 3.228 3.162 8 3.162Zm128 0q4.772 0 7.772-3.162 3-3.163 3-7.838v-246q0-4.675-3.228-7.838-3.228-3.162-8-3.162T536-690.838q-3 3.163-3 7.838v246q0 4.675 3.228 7.838 3.228 3.162 8 3.162ZM244-292l-66 66q-13 13-29.5 6T132-245v-529q0-22.775 15.613-38.388Q163.225-828 186-828h588q22.775 0 38.388 15.612Q828-796.775 828-774v428q0 22.775-15.612 38.388Q796.775-292 774-292H244Z"/></svg>