<svg xmlns="http://www.w3.org/2000/svg" width="48" height="48" viewBox="0 96 960 960"><path d="M479.535 809q-11.673 0-19.604-7.465-7.931-7.465-7.931-19.5T459.868 762q7.869-8 19.5-8Q491 754 499 762.07q8 8.07 8 20t-7.896 19.43q-7.896 7.5-19.569 7.5Zm.465 75q-63.532 0-119.766-24Q304 836 262 794q-42-42-66-98.234-24-56.234-24-120.249 0-64.454 24-118.986Q220 402 261 360q8-8 19.065-7.786Q291.13 352.429 299 360l208 208q2.182 2 3.091 3.867.909 1.866.909 4 0 2.133-.864 3.983-.863 1.85-3.077 4.091Q503 588 499 588q-4 0-8-4L279 372q-34 36-59.5 86T194 576q0 119.2 83.359 202.6 83.358 83.4 202.5 83.4Q599 862 682.5 778.6 766 695.2 766 576q0-108-74.5-193T489 289v76q0 4.675-3.228 7.838-3.228 3.162-8 3.162T470 372.838q-3-3.163-3-7.838v-69.505Q467 283 475.2 275q8.2-8 19.8-7 60.475 2 113.9 27 53.426 25 93.263 66.5T765 458.456Q788 513.912 788 576q0 63.532-24 119.766Q740 752 698 794q-42 42-98.234 66Q543.532 884 480 884Zm206.035-281Q674 603 666 594.96t-8-19.925q0-11.46 8.07-19.248 8.07-7.787 20-7.787t19.43 7.896q7.5 7.896 7.5 19.569 0 11.673-7.465 19.604-7.465 7.931-19.5 7.931Zm-412 0Q262 603 254.5 595.104t-7.5-19.569q0-11.673 7.465-19.604 7.465-7.931 19.5-7.931t19.535 7.896q7.5 7.896 7.5 19.569 0 11.673-7.465 19.604-7.465 7.931-19.5 7.931Z"/></svg>