<svg xmlns="http://www.w3.org/2000/svg" width="48" height="48" viewBox="0 96 960 960"><path d="M143 881q-4.675 0-7.837-3.228-3.163-3.228-3.163-8t3.163-7.772q3.162-3 7.837-3h674q4.675 0 7.838 3.228 3.162 3.228 3.162 8T824.838 878q-3.163 3-7.838 3H143Zm59.941-108Q190 773 181 763.958q-9-9.041-9-21.958V619q0-12.917 9.059-21.958 9.059-9.042 22-9.042T225 597.042q9 9.041 9 21.958v123q0 12.917-9.059 21.958-9.059 9.042-22 9.042Zm184 0Q374 773 365 763.958q-9-9.041-9-21.958V419q0-12.917 9.059-21.958 9.059-9.042 22-9.042T409 397.042q9 9.041 9 21.958v323q0 12.917-9.059 21.958-9.059 9.042-22 9.042Zm185 0Q559 773 550 763.958q-9-9.041-9-21.958V539q0-12.917 9.059-21.958 9.059-9.042 22-9.042T594 517.042q9 9.041 9 21.958v203q0 12.917-9.059 21.958-9.059 9.042-22 9.042Zm185 0Q744 773 735 763.958q-9-9.041-9-21.958V299q0-12.917 9.059-21.958 9.059-9.042 22-9.042T779 277.042q9 9.041 9 21.958v443q0 12.917-9.059 21.958-9.059 9.042-22 9.042Z"/></svg>