<svg xmlns="http://www.w3.org/2000/svg" width="48" height="48" viewBox="0 96 960 960"><path d="M480 644q17 0 28.5-12t11.5-28V444q0-17-11.5-28.5T480 404q-17 0-28.5 11.5T440 444v160q0 16 11.5 28t28.5 12Zm0 160q17 0 28.5-12t11.5-28q0-17-11.5-28.5T480 724q-17 0-28.5 11.5T440 764q0 16 11.5 28t28.5 12ZM353.166 914q-11.891 0-19.528-7.763Q326 898.475 326 887V321q0-10.5 7.763-18.75Q341.525 294 353 294h63v-28q0-11.475 7.763-19.237Q431.525 239 443 239h74q11.475 0 19.237 7.763Q544 254.525 544 266v28h63q11.475 0 19.237 8.25Q634 310.5 634 321v566q0 11.475-7.763 19.237Q618.475 914 607 914H353.166Z"/></svg>