<svg xmlns="http://www.w3.org/2000/svg" width="48" height="48" viewBox="0 -960 960 960"><path d="M171-292q-32.17 0-55.58-23.42Q92-338.83 92-371v-218q0-32.17 23.42-55.58Q138.83-668 171-668h539q9.75 0 17.38 7.62Q735-652.75 735-643v300q0 6 .83 11.87.84 5.88 3.17 12.13 3 9-1.66 18-4.65 9-13.34 9H171Zm653-32.14q-7-7.14-7-16t7.14-15.86q7.14-7 16-7t15.86 7.14q7 7.14 7 16T855.86-324q-7.14 7-16 7T824-324.14Zm8-110.01q-3-3.15-3-7.85v-198q0-4.7 3.21-7.85 3.21-3.15 8-3.15t7.79 3.15q3 3.15 3 7.85v198q0 4.7-3.21 7.85-3.21 3.15-8 3.15t-7.79-3.15Z"/></svg>