<svg xmlns="http://www.w3.org/2000/svg" width="48" height="48" viewBox="0 -960 960 960"><path d="M171-292q-32.17 0-55.58-23.42Q92-338.83 92-371v-218q0-32.17 23.42-55.58Q138.83-668 171-668h459q9.72 0 17.36 7.64Q655-652.72 655-643v58h-66q-21.5 0-37.75 16.28T535-530.47v101.25q0 21.97 16.25 38.09Q567.5-375 589-375h66v58q0 9.73-7.64 17.36Q639.72-292 630-292H171Zm578-177H640q-4.67 0-7.84-3.23-3.16-3.23-3.16-8t3.16-7.77q3.17-3 7.84-3h109v-109q0-4.67 3.23-7.84 3.23-3.16 8-3.16t7.77 3.16q3 3.17 3 7.84v109h109q4.67 0 7.84 3.23 3.16 3.23 3.16 8t-3.16 7.77q-3.17 3-7.84 3H771v109q0 4.68-3.23 7.84t-8 3.16q-4.77 0-7.77-3.16t-3-7.84v-109Z"/></svg>