<svg xmlns="http://www.w3.org/2000/svg" width="48" height="48" viewBox="0 -960 960 960"><path d="M296-374h368v49q0 5.133 3.407 8.567 3.407 3.433 8.5 3.433t9.093-3.433q4-3.434 4-8.567v-123.361Q689-473 671-490q-18-17-44-15v-50q0-24-16-40.5T571-612H389q-24 0-40 16.5T333-555v50q-26-2-44 15t-18 41.639V-325q0 5.133 4.116 8.567 4.117 3.433 9.21 3.433 5.093 0 8.383-3.433Q296-319.867 296-325v-49Zm0-25v-49q0-14.412 9-22.706Q314-479 328-479h304q14 0 23 8.294T664-448v49H296Zm62-105v-51q0-13 9-22.5t23-9.5h180q14 0 23 9.5t9 22.5v51H358ZM186-132q-22.775 0-38.387-15.613Q132-163.225 132-186v-588q0-22.775 15.613-38.388Q163.225-828 186-828h588q22.775 0 38.388 15.612Q828-796.775 828-774v588q0 22.775-15.612 38.387Q796.775-132 774-132H186Zm0-22h588q12 0 22-10t10-22v-588q0-12-10-22t-22-10H186q-12 0-22 10t-10 22v588q0 12 10 22t22 10Zm-32 0v-652 652Z"/></svg>