<svg xmlns="http://www.w3.org/2000/svg" width="48" height="48" viewBox="0 -960 960 960"><path d="M726-230q-3.6 4-8.8 4-5.2 0-9.07-3.87Q704-234 704-238.83q0-4.84 4-9.17 26-21 46.5-45.5T790-345q-88-7-165-43t-140-99q-62-61-98-138.5T344-790q-27 15-52.5 36T246-709q-3.8 4-8.4 4-4.6 0-8.6-4t-4-8.5q0-4.5 4-8.5 20-24 46.5-45.5T329-808q13-6 26-.15 13 5.86 15 20.15 8 83 41.5 156.5T501-501q55 56 128 89t156 41q15.62 1 22.31 15 6.69 14-.31 27-19 32-39 56.5T726-230Zm11 151-98-97q-34 14-69.17 21.5Q534.67-147 499-147q-73.09 0-137.05-27.5Q298-202 250-250t-75.5-111.95Q147-425.91 147-499q0-35.67 7.5-70.83Q162-605 176-639l-96-97q-3-3.3-3-8.15 0-4.85 3.1-7.85 3.11-3 7.5-3 4.4 0 8.4 3L753-95q3 4 3 8t-3 8q-4 4-8 4t-8-4Zm-238-90q33.32 0 64.16-6Q594-181 623-193L193-623q-12 31-18 62.24-6 31.24-6 61.76 0 138.33 95.83 234.17Q360.67-169 499-169Zm-92-239Zm70-70Z"/></svg>