<svg xmlns="http://www.w3.org/2000/svg" width="48" height="48" viewBox="0 -960 960 960"><path d="M479.934-118q-8.934 0-16.905-2.5Q455.057-123 448-128L234-289q-11.25-7.25-16.625-18.5T212-332v-442q0-22.775 15.613-38.388Q243.225-828 266-828h428q22.775 0 38.388 15.612Q748-796.775 748-774v442q0 13.25-5.375 24.5T726-289L512-128q-7.098 5-15.115 7.5-8.016 2.5-16.951 2.5ZM461-147q8 7 19 7t19-7l214-162q6-4 9.5-11t3.5-15v-439q0-12-10-22t-22-10H266q-12 0-22 10t-10 22v439q0 8 3.5 15t9.5 11l214 162Zm-23-280-83-83q-3-2-7.5-2.5t-8.5 2.109Q336-506 336-502t4 8l79 79q8.182 8 19.091 8T457-415l163-163q3-3.182 3.5-7.591.5-4.409-3.543-8.409-3.957-4-7.757-3.5T604-594L438-427Zm23-379H234h492-265Z"/></svg>