<svg xmlns="http://www.w3.org/2000/svg" width="48" height="48" viewBox="0 -960 960 960"><path d="M448-168v-139h-30q-72.285 0-122.143-49.857Q246-406.715 246-479q0-53.801 31.5-97.901Q309-621 361-640q-1-45 35-69.5t76-6.5l-19-49q-4-10.467.5-20.233Q458-795 469-799l14-6-7-20q-3-7-.065-14.457Q478.871-846.914 486-850q6.636-3 14.495.362Q508.353-846.276 511-839l7 21 10-4q10-3 20 1.5t14 14.5l79 212q4 9.844-1 19.922Q635-564 625-560l-11 4 8 21q3 7 .242 14T611-511q-6.955 2-13.933-1.31-6.979-3.311-10.067-9.69l-8-21-12 5q-11 5-21.667.633Q534.667-541.733 531-553l-17-50q-12 19-30.5 30t-41.833 11Q415-561 393.5-577T363-619q-43 17-69 54.884-26 37.883-26 85.116 0 63.25 43.375 106.625T418-329h291q4.675 0 7.838 3.228 3.162 3.228 3.162 8T716.838-310q-3.163 3-7.838 3H470v139h233q4.675 0 7.838 3.228 3.162 3.228 3.162 8T710.838-149q-3.163 3-7.838 3H257q-4.675 0-7.837-3.228-3.163-3.228-3.163-8t3.163-7.772q3.162-3 7.837-3h191Zm109-392 61-24-79-215-63 21 81 218Zm-115.263-27Q465-587 481-602.254q16-15.255 16-39Q497-665 481.263-681q-15.737-16-39-16Q419-697 403-681.258q-16 15.742-16 39.012Q387-618 402.737-602.5q15.737 15.5 39 15.5ZM557-560Zm-115-82Zm0 0Z"/></svg>