<svg xmlns="http://www.w3.org/2000/svg" width="48" height="48" viewBox="0 -960 960 960"><path d="M230.235-334q17.098 0 27.932-11.485Q269-356.971 269-372.235q0-17.098-11-27.932Q247-411 230-411q-16 0-27 11t-11 28q0 16 11.485 27 11.486 11 26.75 11Zm378 0q16.098 0 27.432-11.485Q647-356.971 647-372.235q0-17.098-11.5-27.932Q624-411 608-411t-27 11q-11 11-11 28 0 16 11.485 27 11.486 11 26.75 11Zm136.432-213.111q-4.267-2.111-7.967-6.647Q733-558.294 733-565v-125l-91 91q-3 3-8.5 3.5T624-599q-4-4-4-9t4-9l103-103-103-103q-3-4-3.5-9t3.5-9q4-4 9-4t9 4l91 91v-125.11q0-5.604 3.357-10.593t9.072-7.143Q750-895 755.5-894t10.5 5l73.082 72.891Q843-812.414 843-806.025q0 6.389-4 10.025l-76 76 76 76q4 3.273 4 9.636 0 6.364-3.918 10.282L766-551q-5 5-10.333 5.5-5.334.5-11-1.611ZM759-754l52-52-52-52v104Zm0 172 52-52-52-52v104ZM118.647-172q-2.647 0-5.147-2.25-2.5-2.25-2.5-5.75v-292l78.133-222q.867-7 7.639-10.5t14.461-3.5H579v22H210l-67 194h436q0 9 6.625 15.5T601-470h126v290q0 3.5-2.353 5.75t-6 2.25q-2.647 0-5.147-2.25-2.5-2.25-2.5-5.75v-73H127v73q0 3.5-2.353 5.75t-6 2.25Z"/></svg>