<svg xmlns="http://www.w3.org/2000/svg" width="48" height="48" viewBox="0 96 960 960"><path d="M676.367 444q-5.367 0-9.867-2-4.5-2-8.5-6l-48-49q-3-2.067-3-6.533 0-4.467 4.316-7.424 3.189-3.043 7.437-3.043 4.247 0 7.247 3l51 51 136-137q3.182-3 7.091-3 3.909 0 7.659 4.103 4.25 3.104 4.25 7.5 0 4.397-4 7.397L695.797 436.162Q692 440 686.867 442q-5.134 2-10.5 2ZM290 842q-13.571 6-25.786-1.919Q252 832.162 252 817V320q0-22 15.612-38 15.613-16 38.388-16h223v22H306q-12 0-22 10t-10 22v503l206-88 206 88V528h22v289q0 15.162-12.214 23.081Q683.571 848 670 842l-190-82-190 82Zm-16-554h255-255Z"/></svg>