<svg xmlns="http://www.w3.org/2000/svg" width="48" height="48" viewBox="0 -960 960 960"><path d="M140-786v-34h34v34h-34Zm162 0v-34h34v34h-34Zm161 0v-34h34v34h-34Zm162 0v-34h34v34h-34Zm161 0v-34h34v34h-34ZM140-625v-34h34v34h-34Zm323 0v-34h34v34h-34Zm323 0v-34h34v34h-34Zm17 162H157q-7.225 0-12.113-4.943-4.887-4.943-4.887-12.25t4.887-12.057Q149.775-497 157-497h646q7.225 0 12.112 4.943 4.888 4.943 4.888 12.25t-4.888 12.057Q810.225-463 803-463ZM140-302v-34h34v34h-34Zm323 0v-34h34v34h-34Zm323 0v-34h34v34h-34ZM140-140v-34h34v34h-34Zm162 0v-34h34v34h-34Zm161 0v-34h34v34h-34Zm162 0v-34h34v34h-34Zm161 0v-34h34v34h-34Z"/></svg>