<svg xmlns="http://www.w3.org/2000/svg" width="48" height="48" viewBox="0 -960 960 960"><path d="M367.967-212H266q-21.5 0-37.75-16.25T212-266v-101.391L138-442q-9.391-8.143-12.696-17.859Q122-469.576 122-479.627q0-10.052 3.304-20.141Q128.609-509.857 138-518l74-74.609V-694q0-21.5 16.25-37.75T266-748h101.391L442-823q8-8 17.814-11.5 9.813-3.5 19.993-3.5 10.181 0 20.208 3.696Q510.042-830.609 518-822l74.37 74H694q21.5 0 37.75 16.25T748-694v101.391L823-518q8 8 11.5 17.831 3.5 9.83 3.5 20Q838-470 834.5-460T823-442l-75 74.609V-266q0 21.5-16.25 37.75T694-212H592.37L518-138q-8.101 8.043-17.827 11.522Q490.446-123 480.384-123q-10.384 0-19.969-3.478Q450.829-129.957 443-138l-75.033-74Zm111.846-110q66.106 0 112.647-45.853Q639-413.706 639-479.813q0-66.106-46.593-112.647Q545.813-639 479.707-639 413.6-639 367.8-592.407q-45.8 46.594-45.8 112.7 0 66.107 45.853 111.907t111.96 45.8Zm-102.896 88L457-155q9 9 23 9t23-9l79.583-79H694q14 0 23-9t9-23v-110.75L806-457q9-9 9-23t-9-23l-80.167-80.25V-694q0-14-9-23t-23-9h-110.75L503-806q-9-9-23-9t-23 9l-80.083 80h-110.75q-14 0-23 9t-9 23v110.75L154-503q-9 9-9 23t9 23l80 80.25V-266q0 14 9 23t23 9h110.917Z"/></svg>