<svg xmlns="http://www.w3.org/2000/svg" width="48" height="48" viewBox="0 -960 960 960"><path d="m461-119-92.849-93H239q-11.475 0-19.238-7.762Q212-227.525 212-239v-128.619L118-461q-8-8.182-8-19.091T118-499l94-93.381V-721q0-11.475 7.762-19.237Q227.525-748 239-748h129.151L461-842q9-8 19.545-8 10.546 0 18.455 8l93.278 94H721q11.475 0 19.237 7.763Q748-732.475 748-721v128.619L842-499q8 8.182 8 19.091T842-461l-94 93.381V-239q0 11.475-7.763 19.238Q732.475-212 721-212H592.278L499-119q-8 8-18.5 8t-19.5-8Zm19-361Zm0 348 102.5-102H726v-142.833L829-480 725.833-583.167V-726H583L480-829 377-726H234.167v142.833L131-480l103 103.167V-234h143l103 102Z"/></svg>