<svg xmlns="http://www.w3.org/2000/svg" width="48" height="48" viewBox="0 96 960 960"><path d="M186 844q-22.775 0-38.387-15.612Q132 812.775 132 790V362q0-22.775 15.613-38.388Q163.225 308 186 308h588q22.775 0 38.388 15.612Q828 339.225 828 362v428q0 22.775-15.612 38.388Q796.775 844 774 844H186Zm-32-279h203V330H186q-14 0-23 9t-9 23v203Zm225 0h202V330H379v235Zm224 0h203V362q0-14-9-23t-23-9H603v235ZM357 822V587H154v203q0 14 9 23t23 9h171Zm22 0h202V587H379v235Zm224 0h171q14 0 23-9t9-23V587H603v235Z"/></svg>