<svg xmlns="http://www.w3.org/2000/svg" width="48" height="48" viewBox="0 96 960 960"><path d="M479.5 768q62.5 0 107-44T631 617q0-63-44.5-107t-107-44Q417 466 373 510t-44 107q0 63 44 107t106.5 44Zm.5-34-36-82-81-35 81-35 36-82 36 82 81 35-81 35-36 82ZM186 884q-22.775 0-38.387-15.612Q132 852.775 132 830V404q0-23 15.613-38.5Q163.225 350 186 350h122l74-82h196l74 82h122q23 0 38.5 15.5T828 404v426q0 22.775-15.5 38.388Q797 884 774 884H186Zm588-22q14 0 23-9t9-23V404q0-13-9-22.5t-23-9.5H642l-74-82H392l-74 82H186q-14 0-23 9.5t-9 22.5v426q0 14 9 23t23 9h588ZM480 617Z"/></svg>