<svg xmlns="http://www.w3.org/2000/svg" width="48" height="48" viewBox="0 -960 960 960"><path d="M186-132q-21.75 0-37.875-16.125T132-186v-548q0-21.75 16.125-37.875T186-788h66v-48q0-14 9-23t23-9h72q14 0 23 9t9 23v48h66q21.75 0 37.875 16.125T508-734v26h266q21.75 0 37.875 16.125T828-654v388q0 21.75-16.125 37.875T774-212H506v26q0 21.75-15.237 37.875Q475.525-132 454-132H186Zm0-22h268q14 0 23-9t9-23v-48h288q14 0 23-9t9-23v-388q0-14-9-23t-23-9H486v-48q0-14-9-23t-23-9H186q-14 0-23 9t-9 23v548q0 14 9 23t23 9Zm227.193-426q9.807 0 17.307-7.693 7.5-7.693 7.5-17.5t-7.693-17.307q-7.693-7.5-17.5-7.5t-17.307 7.693q-7.5 7.693-7.5 17.5t7.693 17.307q7.693 7.5 17.5 7.5Zm156 0q9.807 0 17.307-7.693 7.5-7.693 7.5-17.5t-7.693-17.307q-7.693-7.5-17.5-7.5t-17.307 7.693q-7.5 7.693-7.5 17.5t7.693 17.307q7.693 7.5 17.5 7.5Zm156 0q9.807 0 17.307-7.693 7.5-7.693 7.5-17.5t-7.693-17.307q-7.693-7.5-17.5-7.5t-17.307 7.693q-7.5 7.693-7.5 17.5t7.693 17.307q7.693 7.5 17.5 7.5Zm-312 290q9.807 0 17.307-7.693 7.5-7.693 7.5-17.5t-7.693-17.307q-7.693-7.5-17.5-7.5t-17.307 7.693q-7.5 7.693-7.5 17.5t7.693 17.307q7.693 7.5 17.5 7.5Zm156 0q9.807 0 17.307-7.693 7.5-7.693 7.5-17.5t-7.693-17.307q-7.693-7.5-17.5-7.5t-17.307 7.693q-7.5 7.693-7.5 17.5t7.693 17.307q7.693 7.5 17.5 7.5Zm156 0q9.807 0 17.307-7.693 7.5-7.693 7.5-17.5t-7.693-17.307q-7.693-7.5-17.5-7.5t-17.307 7.693q-7.5 7.693-7.5 17.5t7.693 17.307q7.693 7.5 17.5 7.5ZM320-460Z"/></svg>