<svg xmlns="http://www.w3.org/2000/svg" width="48" height="48" viewBox="0 -960 960 960"><path d="M252-774q0-22.775 15.612-38.388Q283.225-828 306-828h348q22.775 0 38.388 15.612Q708-796.775 708-774v442q0 22.525-16.125 38.263Q675.75-278 654-278H513q-8.314 0-16.157-3T484-289l-24-25q-15.934-15-37.945-15-22.011 0-38.055 15l-21 22q-10.878 11.059-23.402 16.029Q327.073-271 315-271q-24.5 0-43.75-16.773Q252-304.545 252-333v-441Zm22 372q45-21 101.268-33.5 56.269-12.5 104.5-12.5 48.232 0 104.977 12.5Q641.49-423 686-402v-372q0-12-10-22t-22-10H306q-12 0-22 10t-10 22v372Zm205.765-122q-38.265 0-65.015-26.694Q388-577.387 388-615.235q0-38.265 26.985-65.015Q441.971-707 480.235-707q38.265 0 65.015 26.882 26.75 26.883 26.75 65Q572-577 545.015-550.5q-26.986 26.5-65.25 26.5ZM480-186H263q-4.725 0-7.863-3.193-3.137-3.193-3.137-8t3.137-7.807q3.138-3 7.863-3h218l-67-67q-3-3-3.5-7.5t3.5-8q4-3.5 8-3.5t8 4l75 74q8 7.909 8 18.455Q513-187 505-178l-75 74q-3 3-7.5 3.5T414-104q-4-4-4-8t4-8l66-66Zm91 0q-4.725 0-7.862-3.193-3.138-3.193-3.138-8t3.138-7.807q3.137-3 7.862-3h126q4.725 0 7.862 3.193 3.138 3.193 3.138 8T704.862-189q-3.137 3-7.862 3H571Z"/></svg>