<svg xmlns="http://www.w3.org/2000/svg" width="48" height="48" viewBox="0 -960 960 960"><path d="M825-469h-95q-4.7 0-7.85-3.211-3.15-3.21-3.15-8 0-4.789 3.15-7.789t7.85-3h95q4.7 0 7.85 3.211 3.15 3.21 3.15 8 0 4.789-3.15 7.789t-7.85 3ZM675-293q3-3 7.326-4t8.674 2l75 57q4 3 5 7.326T769-223q-3 4-7.826 5T753-220l-76-57q-3-3-4-7.326t2-8.674Zm87-433-74 57q-4.348 3-8.674 2T672-672q-3-3-2-7.5t4-7.5l75-57q3.348-3 8.174-2t7.826 5q3 3 2 7.5t-5 7.5ZM229-404h-51q-21.5 0-37.75-16.25T124-458v-44q0-21.5 16.25-37.75T178-556h152l106-62q13-8 26.5-.383T476-595v230q0 15.766-13.5 23.383Q449-334 436-342l-106-62h-79v139q0 4.7-3.211 7.85-3.21 3.15-8 3.15-4.789 0-7.789-3.15t-3-7.85v-139Zm327 34v-220q18 17 29 46.245 11 29.245 11 64Q596-445 585-416t-29 46Z"/></svg>