<svg xmlns="http://www.w3.org/2000/svg" width="48" height="48" viewBox="0 -960 960 960"><path d="M825-469h-95q-4.75 0-7.875-3.175-3.125-3.176-3.125-8 0-4.825 3.125-7.825t7.875-3h95q4.75 0 7.875 3.175 3.125 3.176 3.125 8 0 4.825-3.125 7.825T825-469ZM675-293q3-3 7.326-4t8.674 2l75 57q4 3 5 7.326T769-223q-3 4-7.826 5T753-220l-76-57q-3-3-4-7.326t2-8.674Zm87-433-74 57q-4.348 3-8.674 2T672-672q-3-3-2-7.5t4-7.5l75-57q3.348-3 8.174-2t7.826 5q3 3 2 7.5t-5 7.5ZM229-404h-51q-21.75 0-37.875-16.125T124-458v-44q0-21.75 16.125-37.875T178-556h152l106-62q13-8 26.5-.564T476-595v230q0 16.128-13.5 23.564T436-342l-106-62h-79v139q0 4.75-3.175 7.875-3.176 3.125-8 3.125-4.825 0-7.825-3.125T229-265v-139Zm225 47v-246l-118 69H178q-12 0-22 10t-10 22v44q0 12 10 22t22 10h158l118 69Zm102-13v-220q18 17 29 46t11 64q0 35-11 64t-29 46ZM300-480Z"/></svg>