<svg xmlns="http://www.w3.org/2000/svg" width="48" height="48" viewBox="0 -960 960 960"><path d="M702.844-557q-60.71 0-103.277-42.558T557-703.865q0-60.595 42.539-102.365Q642.078-848 703.41-848q61.08 0 102.835 41.755Q848-764.49 848-703q0 61-42.223 103.5Q763.555-557 702.844-557ZM188-293v73q0 3.333-2.471 5.667-2.47 2.333-6 2.333-3.529 0-5.529-2.333-2-2.334-2-5.667v-281q0-4.667.5-9.333.5-4.667 2.214-8.461L242-712q4.895-15.778 19.118-25.889Q275.342-748 292-748h168q-1 5.169-1.5 10.585Q458-732 457-726H294q-10 0-18.5 5.5T263-705l-60 173h317q7.104 6.184 13.742 11.104Q540.379-515.975 547-510H194v195h572v-148q6-2 11.415-3.786Q782.831-468.571 788-470v250q0 3.333-2.471 5.667-2.47 2.333-6 2.333-3.529 0-5.529-2.333-2-2.334-2-5.667v-73H188Zm103.824-81Q308-374 319-385.485q11-11.486 11-27.25 0-16.598-11.485-27.432Q307.029-451 291.588-451q-16.274 0-27.431 11T253-412.5q0 16.5 11.324 27.5 11.323 11 27.5 11Zm377.294 0q15.98 0 26.931-11.417Q707-396.833 707-412q0-15-8-27t-21-18q-1-1-3.358-1T671-456q-17 1-29 13.5T630-412q0 15.167 11.985 26.583Q653.971-374 669.118-374ZM194-315v-195 195Zm509.5-371q5.1 0 9.3-3.629 4.2-3.628 4.2-9.8V-776q0-4.6-4.2-8.8-4.2-4.2-9.3-4.2-5.1 0-9.3 4.2-4.2 4.2-4.2 8.8v76.5q0 6.1 4.2 9.8 4.2 3.7 9.3 3.7Zm0 74q7.5 0 12.5-5.5t6-13q0-8.1-5.6-13.3-5.6-5.2-12.4-5.2-9 0-14 5t-5 13q0 8 5.5 13.5t13 5.5Z"/></svg>