<svg xmlns="http://www.w3.org/2000/svg" width="48" height="48" viewBox="0 96 960 960"><path d="M154 755v75q0 14 9 23t23 9h588q14 0 23-9t9-23v-75H154Zm182-367v-66q0-21.75 15.737-37.875Q367.475 268 390 268h180q21.75 0 37.875 16.125T624 322v66h150q21.75 0 37.875 16.125T828 442v388q0 21.75-16.125 37.875T774 884H186q-21.75 0-37.875-16.125T132 830V442q0-21.75 16.125-37.875T186 388h150ZM154 682h652V442q0-14-9-23t-23-9H624v48q0 4-3.675 7-3.676 3-8 3-4.325 0-7.325-3.138-3-3.137-3-7.862v-47H358v48q0 4-3.193 7t-8 3Q342 468 339 464.862q-3-3.137-3-7.862v-47H154v272Zm204-294h244v-66q0-14-9.5-23t-22.5-9H390q-14 0-23 9t-9 23v66ZM154 830V410v452-32Z"/></svg>