<svg xmlns="http://www.w3.org/2000/svg" width="48" height="48" viewBox="0 -960 960 960"><path d="M154-463v77q0 12 10 22t22 10h588q12 0 22-10t10-22v-77H154Zm32-365h588q21.75 0 37.875 16.125T828-774v388q0 21.75-16.125 37.875T774-332H580v118q0 15-12.5 23t-26.5 1l-49-24q-6.429-2-12.214-2Q474-216 468-214l-49 24q-14 7-26.5-1T380-214v-118H186q-21.75 0-37.875-16.125T132-386v-388q0-21.75 16.125-37.875T186-828Zm-32 293h652v-239q0-12-10-22t-22-10H186q-12 0-22 10t-10 22v239Zm0 149v-420h32q-12 0-22 10t-10 22v388q0 12 10 22t22 10h-32v-32Z"/></svg>