<svg xmlns="http://www.w3.org/2000/svg" width="48" height="48" viewBox="0 96 960 960"><path d="M88 910q-8.525 0-15.263-6.737Q66 896.525 66 888V496q0-4.675 3.228-7.838 3.228-3.162 8-3.162T85 488.162q3 3.163 3 7.838v69h141V253q0-4.675 3.228-7.838 3.228-3.162 8-3.162t7.772 3.162q3 3.163 3 7.838v69h138v-69q0-4.675 3.228-7.838 3.228-3.162 8-3.162t7.772 3.162q3 3.163 3 7.838v69h138v-69q0-4.675 3.228-7.838 3.228-3.162 8-3.162t7.772 3.162q3 3.163 3 7.838v69h138v-69q0-4.675 3.228-7.838 3.228-3.162 8-3.162t7.772 3.162q3 3.163 3 7.838v312h141v-69q0-4.675 3.228-7.838 3.228-3.162 8-3.162t7.772 3.162q3 3.163 3 7.838v392q0 8.525-6.737 15.263Q880.525 910 872 910H589v-94q0-44.725-32.195-76.862-32.194-32.138-77-32.138Q435 707 403 739.138 371 771.275 371 816v94H88Zm0-22h261v-72q0-55 38.562-93 38.563-38 92.438-38 55 0 93 38t38 93v72h261V587H709V344H251v243H88v301Zm301-341h22v-75h-22v75Zm160 0h22v-75h-22v75Zm-69 69Z"/></svg>