<svg xmlns="http://www.w3.org/2000/svg" width="48" height="48" viewBox="0 -960 960 960"><path d="M217-185q-16 6-28.5-6.5T182-220l84-234q10-28 39-34.5t50 14.5l116 115q22 22 15.5 50.5T452-269l-235 84Zm290-262q-4-4-4-9t4-9l208-208q27-26 67-26.5t67 26.5l2 2q4 4 4 8.5t-4 8.5q-3 4-8 4t-8-4l-2-2q-21-21-50-21t-50 21L523-446q-3 3-7.5 3t-8.5-4ZM383-569q-4-4-4-9t4-9l17-17q27-27 26.5-63.5T400-730l-17-17q-3-3-3-8t4-9q4-3 9-3t9 3l15 16q34 33 33.5 81T417-586l-17 18q-4 3-8.5 3t-8.5-4Zm62 61q-4-4-4-9t4-9l126-126q21-20 21-50.5T571-754l-44-43q-3-3-3-7.5t4-9.5q4-3 9-3t9 3l43 43q27 28 27.5 68.5T589-635L462-507q-3 3-8 3t-9-4Zm124 123q-4-3-4-8t4-9l8-8q34-34 82-34.5t82 33.5l10 10q4 4 3.5 8.5T750-384q-4 4-8.5 4t-8.5-4l-10-10q-27-27-63.5-27T595-394l-10 10q-3 4-7.5 3.5T569-385Z"/></svg>