<svg xmlns="http://www.w3.org/2000/svg" width="48" height="48" viewBox="0 96 960 960"><path d="M317 659q-33-34-49-77.5T252 496q0-42 16-85.5t49-77.5l17 16q-29 30-44 69.5T275 496q0 38 14.5 77t44.5 69l-17 17Zm416 90-16-16q50-50 75-112t25-125q0-63-25-125t-75-112l16-16q55 54 81 119.5T840 496q0 68-25 133.5T733 749Zm-506 0q-56-54-81.5-119.5T120 496q0-68 25.5-133.5T227 243l16 16q-51 50-75.5 112T143 496q0 63 24.5 125T243 733l-16 16Zm416-90-16-17q28-29 43-68.5t15-77.5q0-35-15.5-75T627 349l16-16q33 34 49.5 78.5T708 497q0 42-15.5 85T643 659ZM340 890l111-333q-19-9-28.5-26.5T413 496q0-28 19.5-47.5T480 429q28 0 47.5 19.5T547 496q0 17-9 34t-29 27l111 333h-24l-27-83H391l-26 83h-25Zm59-105h162l-81-247-81 247Z"/></svg>