<svg xmlns="http://www.w3.org/2000/svg" width="48" height="48" viewBox="0 -960 960 960"><path d="M580-186q-4.7 0-7.85-3.211-3.15-3.21-3.15-8 0-4.789 3.15-7.789t7.85-3h205L618-325q-3.158-3.415-4.579-7.707Q612-337 615.06-340.091q2.06-4.091 6.326-5Q625.652-346 630-344l168 118-71-193q-2-4 .5-8t7.5-6q4-2 8.5.5t6.5 6.5l69 191 53-196q1-4 4.5-6.5t8.5-1.5q4 1 7 4.5t2 7.5l-60 221q-2.76 9.533-9.88 14.767Q817-186 808-186H580ZM297-632h286q4.7 0 7.85-3.211 3.15-3.21 3.15-8 0-4.789-3.15-7.789t-7.85-3H297q-4.7 0-7.85 3.211-3.15 3.21-3.15 8 0 4.789 3.15 7.789t7.85 3Zm0 163h166q4.7 0 7.85-3.211 3.15-3.21 3.15-8 0-4.789-3.15-7.789t-7.85-3H297q-4.7 0-7.85 3.211-3.15 3.21-3.15 8 0 4.789 3.15 7.789t7.85 3Zm-68 163-59 59q-7 7-15.5 4t-8.5-12v-505q0-21.5 16.25-37.75T200-814h480q21.5 0 37.75 16.25T734-760v181q0 8.333-5.448 13.667Q723.103-560 715-560q-47 1-91 17t-77.798 50.091q-32.832 33.091-48.517 77Q482-372 480-325q0 8.103-5.491 13.552Q469.017-306 461-306H229Z"/></svg>