<svg xmlns="http://www.w3.org/2000/svg" width="48" height="48" viewBox="0 -960 960 960"><path d="M234-194h492v-57q0-14-9-23t-23-9H266q-14 0-23 9t-9 23v57Zm100-111h292l-29-204H363l-29 204Zm-95.341 133q-11.384 0-19.022-7.762Q212-187.525 212-199v-52q0-21.5 16.25-37.75T266-305h46l30-204h-76q-4.675 0-7.838-3.228-3.162-3.228-3.162-8t3.162-7.772q3.163-3 7.838-3h428q4.675 0 7.838 3.228 3.162 3.228 3.162 8T701.838-512q-3.163 3-7.838 3h-76l30 204h45.765q21.985 0 38.11 16.25T748-251v52q0 11.475-7.701 19.238-7.7 7.762-19.084 7.762H238.659ZM480.25-785q3.169 0 6.089 1 2.919 1 5.661 3 19 11 41.006 15.5T580-761q14 0 27.5-2t28.643-6.667Q643-772 649-771.5q6 .5 10.5 4.5t7 10.167Q669-750.667 668-745l-49 214h-23l50-220q-20 6-38 9t-34 3q-25.371 0-49.186-5.5Q501-750 480-762q-21 12-45.632 17.5Q409.735-739 384-739q-15 0-32-2.5t-36-7.5l48 218h-23l-47-214q-2-6.071.5-11.036 2.5-4.964 7.111-9.055 4.611-4.091 10-5.5Q317-772 324-769q13 4 27.237 6 14.238 2 27.763 2 26 0 48-4.5t41-15.5q2.742-2 5.911-3 3.17-1 6.339-1ZM480-509Zm1-22Zm-1 337Z"/></svg>