<svg xmlns="http://www.w3.org/2000/svg" width="48" height="48" viewBox="0 96 960 960"><path d="M736 656V496h96v160h-96Zm-447.915 88Q228 744 178 708q-50-36-50-84v-96q0-48 50.103-84 50.104-36 110.228-36 33.669 0 57.169 8t43.5 16q15 7 29 11.5t30 4.5h256v256H448q-16 0-30 4.5T389 720q-20 8-43.634 16-23.633 8-57.281 8Zm-.246-64Q311 680 329 673.824q18-6.177 34-12.765Q383 652 403.016 646q20.015-6 44.834-6H640V512H447.823Q423 512 403 505.778T363 491q-15.971-6.609-33.939-12.804Q311.094 472 287.935 472 252 472 222 488.5t-30 39.147V560h16.429q6.571 0 11.071 4.5T224 576q0 7-4.5 11.5t-11.071 4.5H192v32.353Q192 647 221.95 663.5q29.949 16.5 65.889 16.5ZM192 576Z"/></svg>