<svg xmlns="http://www.w3.org/2000/svg" width="48" height="48" viewBox="0 96 960 960"><path d="m682 449-22-49-48-21 48-22 22-48 22 48 47 22-47 21-22 49Zm116 176q-22 0-36.5-15T747 573q0-13 7-31.5t26-50.5q8-11 19-11t18 11q20 31 26.5 50t6.5 32q0 22-15 37t-37 15Zm-227-23-220-84H228q8-59 49-102t112-52V227h-49q-5 0-8-3t-3-8q0-5 3-8t8-3h180q16 0 31.5 3.5T580 217q3 1 4 5.5t-2 8.5q-2 4-6 5t-7-1q-12-4-24-6t-25-2H411v137q75 8 117.5 59T571 536v66ZM94 866V640q0-11 7.5-18.5T120 614h54q11 0 18.5 7.5T200 640v226q0 11-7.5 18.5T174 892h-54q-11 0-18.5-7.5T94 866Zm434 73-305-91V614h94q6 0 10 .5t9 2.5l221 81q22 8 37.5 29t15.5 39q0 5-2 7t-7 2h-22q-34 0-63.5-4T460 758l-66-21q-5-2-9.5 0t-6.5 7q-3 5 0 10.5t9 7.5l64 21q27 9 59.5 13t69.5 4h163q34 0 50.5 17.5T810 867l-252 73q-6 1-15 1t-15-2Z"/></svg>