<svg xmlns="http://www.w3.org/2000/svg" width="48" height="48" viewBox="0 -960 960 960"><path d="M507-480q-11.475 0-19.237-7.763Q480-495.525 480-507v-224q0-4.675 3.228-7.838 3.228-3.162 8-3.162t7.772 3.162q3 3.163 3 7.838v214l292-293q2.911-3 7.956-3 5.044 0 8.044 2.929 3 2.928 3 8 0 5.071-3 8.071L517-502h214q4.675 0 7.838 3.228 3.162 3.228 3.162 8T738.838-483q-3.163 3-7.838 3H507ZM150-149.929q-3-2.928-3-8 0-5.071 3-8.071l293-292H229q-4.675 0-7.837-3.228-3.163-3.228-3.163-8t3.163-7.772q3.162-3 7.837-3h224q11.475 0 19.237 7.763Q480-464.475 480-453v224q0 4.675-3.228 7.837-3.228 3.163-8 3.163T461-221.163q-3-3.162-3-7.837v-214L166-150q-2.911 3-7.956 3-5.044 0-8.044-2.929Z"/></svg>