<svg xmlns="http://www.w3.org/2000/svg" width="48" height="48" viewBox="0 -960 960 960"><path d="M480-480ZM226-212q-22.775 0-38.387-15.613Q172-243.225 172-266v-428q0-22.775 15.613-38.388Q203.225-748 226-748h508q22.775 0 38.388 15.612Q788-716.775 788-694v298q0 4.725-3.193 7.862-3.193 3.138-8 3.138T769-388.138q-3-3.137-3-7.862v-298q0-12-10-22t-22-10H226q-12 0-22 10t-10 22v428q0 12 10 22t22 10h378q4.725 0 7.862 3.193 3.138 3.193 3.138 8T611.862-215q-3.137 3-7.862 3H226Zm540 0h-69q-4.725 0-7.862-3.193-3.138-3.193-3.138-8t3.138-7.807q3.137-3 7.862-3h69v-69q0-4.725 3.193-7.862 3.193-3.138 8-3.138t7.807 3.138q3 3.137 3 7.862v69h69q4.725 0 7.862 3.193 3.138 3.193 3.138 8T864.862-215q-3.137 3-7.862 3h-69v69q0 4.725-3.193 7.863-3.193 3.137-8 3.137T769-135.137q-3-3.138-3-7.863v-69ZM557-376h86q16.725 0 28.862-12.138Q684-400.275 684-417q0-5.567-4.907-7.283-4.907-1.717-11-1.717-4.093 0-6.593 2.672t-2.5 6.507V-417q0 6-4.5 11t-11.5 5h-86q-6 0-11-5t-5-11v-126q0-6 5-11t11-5h86q7 0 11.5 5t4.5 11v1.983q0 5.892 3.75 9.455 3.749 3.562 9.366 3.562 5.184 0 8.534-3.717Q684-535.433 684-541v-2q0-16.725-12.138-28.862Q659.725-584 643-584h-86q-16.725 0-28.862 12.138Q516-559.725 516-543v126q0 16.725 12.138 28.862Q540.275-376 557-376Zm-240 0h87q16.725 0 28.862-12.138Q445-400.275 445-417q0-5.567-5.616-7.283-5.617-1.717-11.71-1.717-4.093 0-5.883 2.672-1.791 2.672-1.791 6.507V-417q0 6-5 11t-11 5h-87q-6 0-11-5t-5-11v-126q0-6 5-11t11-5h87q6 0 11 5t5 11v1.983q0 5.892 3.407 9.455 3.407 3.562 8.5 3.562t9.093-3.717q4-3.716 4-9.283v-2q0-16.725-12.138-28.862Q420.725-584 404-584h-87q-16.725 0-28.862 12.138Q276-559.725 276-543v126q0 16.725 12.138 28.862Q300.275-376 317-376Z"/></svg>