<svg xmlns="http://www.w3.org/2000/svg" width="48" height="48" viewBox="0 -960 960 960"><path d="M846-197v-563q0-14-9-23t-23-9H146q-14 0-23 9t-9 23v288H92v-288q0-22 16.125-38T146-814h668q21.75 0 37.875 16.125T868-760v519q0 12.538-5.5 24.269Q857-205 846-197ZM360-432q-45 0-75-30t-30-75.5q0-45.5 30-75t75-29.5q45 0 75 29.5t30 75q0 45.5-30 75.5t-75 30ZM92-152v-47q0-23 14-42t37-30q57-25 110.969-38 53.969-13 106-13T466-309q54 13 110.476 38.398 23.691 10.709 37.607 29.655Q628-222 628-199v47H92Z"/></svg>