<svg xmlns="http://www.w3.org/2000/svg" width="48" height="48" viewBox="0 96 960 960"><path d="M440.5 775q-93.957 0-161.229-66Q212 643 212 549V290q0-8.325 6.837-15.162Q225.675 268 234 268h467q39.043 0 66.021 27.162Q794 322.323 794 360.662 794 399 767.021 426 740.043 453 701 453h-32v96q0 94-67.271 160-67.272 66-161.229 66ZM234 431h413V290H234v141Zm206.5 322q85.5 0 146-60T647 549v-96H234v96q0 84 60.5 144t146 60ZM669 431h32.333Q731 431 751.5 410.5t20.5-50q0-29.5-20.594-50T701.25 290H669v141ZM223 884q-4.675 0-7.837-3.228-3.163-3.228-3.163-8t3.163-7.772q3.162-3 7.837-3h484q4.675 0 7.838 3.228 3.162 3.228 3.162 8T714.838 881q-3.163 3-7.838 3H223Zm218-431Z"/></svg>