<svg xmlns="http://www.w3.org/2000/svg" width="48" height="48" viewBox="0 -960 960 960"><path d="M489.069-387Q539-387 575.5-419.123 612-451.247 612-498q0-39-24.124-66.5T527-592q-30 0-52 19t-22 46.964q0 12.076 5 25.056T473-479q5 5 9.795 4.678 4.795-.322 8.041-3.54 2.819-3.155 3.991-7.147Q496-489 492-493q-6-6-11.5-15t-5.5-18.2q0-14.8 13-28.8t39-14q25 0 44 19.5t19 52.5q0 35.257-27.611 61.628Q534.778-409 489.519-409q-48.715 0-84.617-39T369-546q0-26.123 9.5-50.871Q388-621.62 405-644q4-3 4.5-7.8T407-661q-4-3-9-3t-8 4q-21 23-32.5 52.091T346-547q0 65.749 41.145 112.874Q428.29-387 489.069-387ZM292-276q-57-52-88.5-115.5T172-520.723q0-128.032 89.833-217.655Q351.667-828 480-828q103 0 187.5 63.5T777-601l39.316 155.92Q819-432 811.5-422q-7.5 10-21.5 10h-82v146q0 21.5-16.25 37.75T654-212H548v69q0 4.675-3.228 7.837-3.228 3.163-8 3.163T529-135.163q-3-3.162-3-7.837v-63.505q0-12.22 7.763-19.858Q541.525-234 553-234h101q14 0 23-9t9-23v-141q0-11.475 7.763-19.237Q701.525-434 713-434h83l-40-163q-23-94-101-151.5T480-806q-119.2 0-202.6 82.712Q194-640.576 194-521.46q0 62.161 25.324 116.905Q244.649-349.81 290-307.897L314-285v142q0 4.675-3.228 7.837-3.228 3.163-8 3.163T295-135.163q-3-3.162-3-7.837v-133Zm203-193Z"/></svg>