<svg xmlns="http://www.w3.org/2000/svg" width="48" height="48" viewBox="0 96 960 960"><path d="M277 630h406q4.725 0 7.862-3.193 3.138-3.193 3.138-8T690.862 611q-3.137-3-7.862-3H277q-4.725 0-7.862 3.193-3.138 3.193-3.138 8t3.138 7.807q3.137 3 7.862 3Zm0-123h406q4.725 0 7.862-3.193 3.138-3.193 3.138-8T690.862 488q-3.137-3-7.862-3H277q-4.725 0-7.862 3.193-3.138 3.193-3.138 8t3.138 7.807q3.137 3 7.862 3Zm0-123h406q4.725 0 7.862-3.193 3.138-3.193 3.138-8T690.862 365q-3.137-3-7.862-3H277q-4.725 0-7.862 3.193-3.138 3.193-3.138 8t3.138 7.807q3.137 3 7.862 3Zm505 446-66-66H186q-23 0-38.5-15.5T132 710V282q0-23 15.5-38.5T186 228h588q22.775 0 38.388 15.5Q828 259 828 282v529q0 18.312-16.5 25.156Q795 843 782 830ZM154 282v460h572l80 80V282q0-14-9-23t-23-9H186q-14 0-23 9t-9 23Zm0 0v540-572 32Z"/></svg>