<svg xmlns="http://www.w3.org/2000/svg" width="48" height="48" viewBox="0 96 960 960"><path d="M642 936q-1.75 0-2.85-.667-1.1-.666-1.15-2.333L535 760H404q-9.2 0-15.1-6.36-5.9-6.359-5.9-14.5 0-9.14 5.9-15.14t15.1-6h131l103-174q-.029-.667 1.412-1.333 1.441-.667 2.382-.667 2.206 0 3.206 1.5t0 3.5l-50 171h148l29-39q.643-.889 1.321-.944Q774 678 775 678q1.13 0 1.565 1 .435 1 .435 2l-17 58 17 58q0 1-.5 2t-1.7 1q-.333 0-1.167-.056-.833-.055-1.633-.944l-29-39H595l50 171q1 2-.25 3.5T642 936ZM318.206 610Q316 610 315 608.5t0-3.5l50-171H217l-29 39q-.643.889-1.321.944Q186 474 185 474q-1.13 0-1.565-1-.435-1-.435-2l17-58-17-58q0-1 .5-2t1.7-1q.333 0 1.167.056.833.055 1.633.944l29 39h148l-50-171q-1-2 .25-3.5T318 216q1.75 0 2.85.667 1.1.666 1.15 1.333l103 174h131q9.2 0 15.1 5.86 5.9 5.859 5.9 15 0 8.14-5.9 14.64T556 434H425L322 607q.029 1.667-1.412 2.333-1.441.667-2.382.667Z"/></svg>