<svg xmlns="http://www.w3.org/2000/svg" width="48" height="48" viewBox="0 -960 960 960"><path d="M226-172q-23 0-38.5-15.5T172-226v-508q0-23 15.5-38.5T226-788h202q2-20 16.5-34t35.5-14q21.5 0 35.75 14T532-788h202q23 0 38.5 15.5T788-734v508q0 23-15.5 38.5T734-172H226Zm0-22h508q12 0 22-10t10-22v-508q0-12-10-22t-22-10h-94v44q0 11.72-7.64 19.36Q624.72-695 613-695H347q-11.73 0-19.36-7.64Q320-710.28 320-722v-44h-94q-12 0-22 10t-10 22v508q0 12 10 22t22 10Zm275.5-568.5Q510-771 510-784t-8.5-21.5Q493-814 480-814t-21.5 8.5Q450-797 450-784t8.5 21.5Q467-754 480-754t21.5-8.5Z"/></svg>