<svg xmlns="http://www.w3.org/2000/svg" width="48" height="48" viewBox="0 -960 960 960"><path d="M192-124q-4.725 0-7.863-3.193-3.137-3.193-3.137-8t3.137-7.807q3.138-3 7.863-3h576q4.725 0 7.862 3.193 3.138 3.193 3.138 8T775.862-127q-3.137 3-7.862 3H192Zm0-690q-4.725 0-7.863-3.193-3.137-3.193-3.137-8t3.137-7.807q3.138-3 7.863-3h576q4.725 0 7.862 3.193 3.138 3.193 3.138 8T775.862-817q-3.137 3-7.862 3H192Zm288 425q39.417 0 66.208-27.083Q573-443.167 573-483q0-39.417-26.792-66.208Q519.417-576 480-576t-66.208 26.912Q387-522.176 387-482.588T413.792-416q26.791 27 66.208 27ZM184-212q-22.775 0-38.387-15.613Q130-243.225 130-266v-428q0-24 15.613-39 15.612-15 38.387-15h592q22.775 0 38.388 15.612Q830-716.775 830-694v428q0 22.775-15.612 38.387Q798.775-212 776-212H184Zm111-22q47-38 94-54t91-16q44 0 91.5 16t93.5 54h111q12 0 22-10t10-22v-428q0-12-10-22t-22-10H184q-12 0-22 10t-10 22v428q0 12 10 22t22 10h111Zm43 0h285q-30-23-65.5-35.5T480-282q-42 0-77.5 12.5T338-234Zm142.088-177Q451-411 430-432t-21-50.5q0-29.5 20.912-50.5 20.913-21 50-21Q509-554 530-533t21 50.5q0 29.5-20.912 50.5-20.913 21-50 21ZM480-480Z"/></svg>