<svg xmlns="http://www.w3.org/2000/svg" width="48" height="48" viewBox="0 -960 960 960"><path d="M272-152q-22.775 0-38.387-15.613Q218-183.225 218-206v-426q0-4.975 3.018-7.987 3.017-3.013 8-3.013 4.982 0 7.982 3.013 3 3.012 3 7.987v426q0 12 10 22t22 10h303q4.975 0 7.987 3.018 3.013 3.017 3.013 8 0 4.982-3.013 7.982-3.012 3-7.987 3H272Zm96-96q-22.775 0-38.388-15.612Q314-279.225 314-302v-440q0-22.775 15.612-38.388Q345.225-796 368-796h320q22.775 0 38.388 15.612Q742-764.775 742-742v440q0 22.775-15.612 38.388Q710.775-248 688-248H368Z"/></svg>