<svg xmlns="http://www.w3.org/2000/svg" width="48" height="48" viewBox="0 96 960 960"><path d="M480 632q23 0 38.5-15.5T534 578q0-23-15.5-38.5T480 524q-23 0-38.5 15.5T426 578q0 23 15.5 38.5T480 632ZM346 760h268v-1q0-17-9-28t-24-18q-23-10-48.5-15.5T480 692q-27 0-52.5 5.5T379 713q-15 7-24 18t-9 28v1Zm348 164H266q-22.775 0-38.387-15.612Q212 892.775 212 870V282q0-22.775 15.613-38.388Q243.225 228 266 228h250q10.66 0 20.446 3.783Q546.232 235.565 555 244l177 177q8.435 8.768 12.217 18.554Q748 449.34 748 460v410q0 22.775-15.612 38.388Q716.775 924 694 924Zm0-22q12 0 22-10t10-22V448L528 250H266q-12 0-22 10t-10 22v588q0 12 10 22t22 10h428Zm-460 0V250v652Z"/></svg>