<svg xmlns="http://www.w3.org/2000/svg" width="48" height="48" viewBox="0 -960 960 960"><path d="M543-170v-79h-81q-121 0-205.5-84.5T172-539q0-120 84.5-204.5T462-828q60 0 112 22.5t90.5 61.5q38.5 39 61 91.5T748-539q0 108-56 205T543-170Zm-79-167q11 0 18.5-7.5T490-362q0-10-7.5-17.5T464-387q-10 0-17.5 7.5T439-362q0 10 7.5 17.5T464-337Zm0-116q4 0 8.5-4t5.5-9q3-17 13-31.5t33-37.5q19-19 28.5-37t9.5-41q0-39-27.5-65T465-704q-30 0-53.5 15T373-652q-2 5-.5 10t6.5 7q4 2 9 0t8-6q10-15 27-25.5t41-10.5q38 0 55.5 19.5T537-614q0 22-10.5 38T495-539q-22 20-31.5 37.5T452-466q-1 5 2.5 9t9.5 4Zm98 182v56q74-62 119-146.5T726-539q0-114-76.5-190.5T462-806q-112 0-190 78t-78 189q0 112 78 190t190 78h100ZM460-510Z"/></svg>