<svg xmlns="http://www.w3.org/2000/svg" width="48" height="48" viewBox="0 -960 960 960"><path d="M709-581v71q0 5 3 8t8 3q5 0 8-3t3-8v-71l62 35q4 3 8 2t6-6q3-4 2-8t-5-6l-62-36 62-36q4-2 5-6t-2-9q-2-4-6-5t-8 2l-62 35v-71q0-5-3-8t-8-3q-5 0-8 3t-3 8v71l-61-35q-5-3-9-2t-6 5q-3 5-2 9t6 6l61 36-61 36q-5 2-6 6t2 8q2 5 6 6t9-2l61-35ZM106-192q-23 0-38.5-15.5T52-246v-468q0-23 15.5-38.5T106-768h748q23 0 38.5 15.5T908-714v468q0 23-15.5 38.5T854-192H106Zm458-22h290q12 0 22-10t10-22v-468q0-12-10-22t-22-10H106q-12 0-22 10t-10 22v468q0 12 10 22t22 10h32q42-48 96-76.5T351-319q62 0 116 28.5t97 76.5ZM351-391q39 0 66-27t27-66q0-39-27-66.5T351-578q-39 0-66.5 27.5T257-484q0 39 27.5 66t66.5 27ZM171-214h360q-36-40-82.5-61.5T351-297q-52 0-98.5 21T171-214Zm180-199q-30 0-51-21t-21-50q0-30 21-51t51-21q29 0 50 21t21 51q0 29-21 50t-50 21Zm129-67Z"/></svg>