<svg xmlns="http://www.w3.org/2000/svg" width="48" height="48" viewBox="0 -960 960 960"><path d="M762-146q-36 0-62.5-23T670-227H441q-56 0-94-38t-38-94q0-56 38-94t94-38h79q45.725 0 77.862-32.195 32.138-32.194 32.138-78Q630-647 597.862-679 565.725-711 520-711H290q-3 35-30 58t-62 23q-38.167 0-65.083-26.382Q106-682.765 106-721.882 106-760 132.917-787q26.916-27 65.083-27 35 0 62 23t30 58h230q56 0 94 38t38 94q0 56-38 94t-94 38h-79q-45.725 0-77.862 32.195-32.138 32.194-32.138 78Q331-313 363.138-281q32.137 32 77.862 32h229q4-35 30-58t62-23q38.167 0 65.083 26.382Q854-277.235 854-238.118 854-200 827.083-173 800.167-146 762-146ZM198-652q29 0 49.5-20.5T268-722q0-29-20.5-49.5T198-792q-29 0-49.5 20.5T128-722q0 29 20.5 49.5T198-652Z"/></svg>