<svg xmlns="http://www.w3.org/2000/svg" width="48" height="48" viewBox="0 96 960 960"><path d="M200 832q-28 0-48-19.5T132 764q0-29 20-48.5t48-19.5h560q29 0 48.5 19.5T828 764q0 29-19.5 48.5T760 832H200Zm0-22h560q19.55 0 32.775-13.215Q806 783.57 806 764.035t-13.225-32.785Q779.55 718 760 718H200q-19.55 0-32.775 13.215Q154 744.43 154 763.965t13.225 32.785Q180.45 810 200 810Zm288.581-194q-10.331 0-18.456-7.648T462 589.398V346.581q0-11.306 8.136-18.943Q478.271 320 488.602 320h242.817q11.306 0 18.943 7.648Q758 335.296 758 346.602v242.817q0 11.306-7.648 18.943Q742.704 616 731.398 616H488.581ZM484 594h252V342H484v252Zm-341-34q-4.632 0-7.816-3.682T132 547.744q0-4.892 2.897-7.818Q137.795 537 143 537h234q4.526 0 8.263 3.184T389 548q0 5-3.737 8.5T377 560H143Zm398-121h138q5.231 0 8.615-3.228 3.385-3.228 3.385-8T687.615 420q-3.384-3-8.615-3H541q-4.795 0-7.897 3.067-3.103 3.068-3.103 7.808 0 5.1 3.162 8.112Q536.325 439 541 439Zm-317 0q-5.231 0-8.615-3.228-3.385-3.228-3.385-8t3.163-7.772q3.162-3 7.837-3h157q4.795 0 7.897 3.067 3.103 3.068 3.103 7.808 0 5.1-3.103 8.112Q384.795 439 380 439H224Zm260 155V342v252Z"/></svg>