<svg xmlns="http://www.w3.org/2000/svg" width="48" height="48" viewBox="0 -960 960 960"><path d="M421-210v-65q0-14-9-23t-23-9H158v-22h231q21.75 0 37.875 16.125T443-275v65h-22Zm96 0v-65q0-21.75 16.125-37.875T571-329h231v22H571q-14 0-23 9t-9 23v65h-22ZM263-415q-37.75 0-64.375-26.625T172-506v-104h616v104q0 37.75-26.625 64.375T697-415H263Zm0-22h434q29.25 0 49.125-19.875T766-506v-82H194v82q0 29.25 19.875 49.125T263-437Zm-91-253v-22h217v-13q0-11.725 7.638-19.362Q404.275-752 416-752h128q11.725 0 19.362 7.638Q571-736.725 571-725v13h217v22H172Zm22 253v-151 151Z"/></svg>