<svg xmlns="http://www.w3.org/2000/svg" width="48" height="48" viewBox="0 -960 960 960"><path d="M443-195q-98-13-164.5-85.724T212-455q0-57 22-103t56-84l162-158q6-6 13.25-9t14.5-3q7.25 0 14.75 3t13.5 9l162.345 158.336Q698-612 717.5-576t26.5 78h-20.83q-7.17-36.609-23.992-67.758Q682.356-596.907 655-624L480-796 305-624q-35 34-53 76.317-18 42.317-18 92.683 0 90.627 60 157.843 60 67.217 149 80.125V-195Zm35-312Zm224 167q-20-7-40.247-14-20.246-7-42.194-7-17.559 0-34.059 4.5Q569-352 553-345q-4 2-9.293.105-5.293-1.894-7.707-7.105-2-4 .045-8.379 2.046-4.38 5.955-7.621 18.701-8 38.337-13 19.636-5 39.272-5 21.507 0 41.744 5 20.236 5 40.458 13 20.189 8 40.436 14.5 20.246 6.5 42.222 6.5 17.581 0 34.768-4.038Q836.425-355.077 852-362q4-2 10 0t8 7.261q2 4.739-.5 9.118-2.5 4.38-7.5 6.621-18.795 7.556-38.53 12.278T784-322q-21.309 0-41.654-4.5Q722-331 702-340Zm0 103q-20-7-40.247-14-20.246-7-42.194-7-17.559 0-34.059 4.5Q569-249 553-242q-4 2-9.293.105-5.293-1.894-7.707-7.105-2-4 .045-8.379 2.046-4.38 5.955-7.621 18.701-8 38.337-13 19.636-5 39.272-5 21.507 0 41.744 5 20.236 5 40.458 13 20.189 8 40.436 14.5 20.246 6.5 42.222 6.5 17.581 0 34.768-4.038Q836.425-252.077 852-259q4-2 10 0t8 7.261q2 4.739-.5 9.118-2.5 4.38-7.5 6.621-18.795 7.556-38.53 12.278T784-219q-21.309 0-41.654-4.5Q722-228 702-237Zm0 103q-20-7-40.247-14-20.246-7-42.194-7-17.559 0-34.059 4.5Q569-146 553-139q-4 2-9.379.105-5.38-1.894-7.621-7.105-2-4 .045-8.379 2.046-4.38 5.955-7.621 18.701-8 38.337-13 19.636-5 39.272-5 21.507 0 41.744 5 20.236 5 40.458 13 20.189 8 40.436 14.5 20.246 6.5 42.222 6.5 17.581 0 34.768-4.038Q836.425-149.077 852-156q4-2 10 0t8 7.261q2 4.739-.5 9.118-2.5 4.38-7.5 6.621-18.795 7.556-38.53 12.278T784-116q-21.309 0-41.654-4.5Q722-125 702-134Z"/></svg>