<svg xmlns="http://www.w3.org/2000/svg" width="48" height="48" viewBox="0 -960 960 960"><path d="M443-195q-98-13-164.5-85.724T212-455q0-57 20.33-104.083Q252.66-606.167 290-642l171.029-167.05Q465-813 469.767-815q4.766-2 10.5-2 5.733 0 10.233 2 4.5 2 8.471 5.95L670-642q28.627 29 47.813 65.5Q737-540 744-498H497q-21.75 0-37.875 16.125T443-444v249Zm259-145q-20-7-40.247-14-20.246-7-42.194-7-17.559 0-34.059 4.5Q569-352 553-345q-4 2-10 0t-8-6.783q-2-4.55.5-8.884Q538-365 542-368q18.89-8 38.224-13 19.334-5 39.169-5 21.723 0 41.96 5 20.236 5 40.458 13 20.189 8 40.436 14.5 20.246 6.5 42.222 6.5 17.581 0 34.768-4.038Q836.425-355.077 852-362q4-2 10.155-.111 6.155 1.889 7.845 7.372 2 4.739-.5 9.156-2.5 4.416-7.5 6.583-18.984 7.556-38.417 12.278T784.217-322q-21.526 0-41.871-4.5Q722-331 702-340Zm0 103q-20-7-40.247-14-20.246-7-42.194-7-17.559 0-34.059 4.5Q569-249 553-242q-4 2-10 0t-8-6.783q-2-4.55.5-8.884Q538-262 542-265q18.89-8 38.224-13 19.334-5 39.169-5 21.723 0 41.96 5 20.236 5 40.458 13 20.189 8 40.436 14.5 20.246 6.5 42.222 6.5 17.581 0 34.768-4.038Q836.425-252.077 852-259q4-2 10.155-.111 6.155 1.889 7.845 7.372 2 4.739-.5 9.156-2.5 4.416-7.5 6.583-18.984 7.556-38.417 12.278T784.217-219q-21.526 0-41.871-4.5Q722-228 702-237Zm0 103q-20-7-40.247-14-20.246-7-42.194-7-17.559 0-34.059 4.5Q569-146 553-139q-4 2-10.155-.132-6.155-2.131-7.845-6.651-2-4.55.5-8.884Q538-159 542-162q18.89-8 38.224-13 19.334-5 39.169-5 21.723 0 41.96 5 20.236 5 40.458 13 20.189 8 40.436 14.5 20.246 6.5 42.222 6.5 17.581 0 34.768-4.038Q836.425-149.077 852-156q4-2 10.155-.111 6.155 1.889 7.845 7.372 2 4.739-.5 9.156-2.5 4.416-7.5 6.583-18.984 7.556-38.417 12.278T784.217-116q-21.526 0-41.871-4.5Q722-125 702-134Z"/></svg>