<svg xmlns="http://www.w3.org/2000/svg" width="48" height="48" viewBox="0 0 48 48"><path d="M24 41.4q-3.6 0-6.75-1.375t-5.525-3.75q-2.375-2.375-3.75-5.5T6.6 24q0-3.6 1.375-6.775 1.375-3.175 3.75-5.525 2.375-2.35 5.5-3.725T24 6.6q3.6 0 6.775 1.375Q33.95 9.35 36.3 11.7q2.35 2.35 3.725 5.525Q41.4 20.4 41.4 24q0 3.6-1.375 6.75T36.3 36.275q-2.35 2.375-5.525 3.75Q27.6 41.4 24 41.4Zm-4.05-8.65h6q1.1 0 1.9-.775.8-.775.8-1.925V26.1q0-1.15-.8-1.925-.8-.775-1.9-.775H20.5v-7.05h7.6q.2 0 .375-.15t.175-.4q0-.25-.175-.4-.175-.15-.375-.15h-7.35q-.55 0-.95.375-.4.375-.4.975v6.55q0 .6.4.975t.95.375h5.2q.65 0 1.125.475t.475 1.125v3.95q0 .65-.475 1.125t-1.125.475h-6q-.25 0-.4.15-.15.15-.15.4t.15.4q.15.15.4.15Z"/></svg>