<svg xmlns="http://www.w3.org/2000/svg" width="48" height="48" viewBox="0 -960 960 960"><path d="M154-598h652v-96q0-12-10-22t-22-10H186q-12 0-22 10t-10 22v96Zm-22-96q0-22.775 15.613-38.388Q163.225-748 186-748h588q22.775 0 38.388 15.612Q828-716.775 828-694v166H154v262q0 12 10 22t22 10h203q4.725 0 7.862 3.193 3.138 3.193 3.138 8T396.862-215q-3.137 3-7.862 3H186q-22.775 0-38.387-15.613Q132-243.225 132-266v-428Zm22 0v460-162 76-406 32Zm428 506 224-224q3.2-3 7.6-3.5 4.4-.5 8.4 3.643 4.083 4.143 4.042 8Q826-400 822-396L601-175q-8.182 8-19.091 8T563-175L456-282q-3-3-3-8t3.258-8.435Q459.661-302 464.33-302q4.67 0 7.67 4l110 110Z"/></svg>