<svg xmlns="http://www.w3.org/2000/svg" width="48" height="48" viewBox="0 -960 960 960"><path d="M480-132q-66 0-126-23.5T245-222q-4-4-6-9.845-2-5.845 1.818-10.5Q245-245 250-244q5 1 9 4 20.077 18.684 42.538 33.342Q324-192 349-181v-163h-83q-22.775 0-38.387-16.612Q212-377.225 212-402v-231q0-48 31.5-81.5T320-748h91q11.975 0 19.487 7.513Q438-732.975 438-721v168h256q22.775 0 38.388 17.112Q748-518.775 748-495v93q0 24.775-15.612 41.388Q716.775-344 694-344h-83v163q25-11 48-26t43-34q4-3 9-3.5t8.435 3.457Q723-238 721.929-233q-1.072 5-4.929 9-50 43-110.5 67.5T480-132Zm-.2-22q28.2 0 55.533-5 27.334-5 53.667-14v-171H371v171q26.2 9 53.4 14t55.4 5Z"/></svg>