<svg xmlns="http://www.w3.org/2000/svg" width="48" height="48" viewBox="0 96 960 960"><path d="M602 676V486q0-12-10-22t-22-10H381v-22h189q22.75 0 38.375 16.125T624 486v190h-22Zm10.772 125Q608 801 605 797.838q-3-3.163-3-7.838v-70H391q-22.75 0-38.375-16.125T337 666V454h-71q-4.675 0-7.838-3.223-3.162-3.223-3.162-7.988 0-3.789 3.162-7.289 3.163-3.5 7.838-3.5h71v-70q0-4.675 3.228-7.838 3.228-3.162 8-3.162t7.772 3.162q3 3.163 3 7.838v304q0 12 10 22t22 10h356q4.675 0 7.838 3.228 3.162 3.228 3.162 8T754.838 717q-3.163 3-7.838 3H624v70q0 4.675-3.228 7.838-3.228 3.162-8 3.162Zm282.491-266q-4.079 0-6.709-2-2.631-2-2.554-6-19-154-137.5-256.5T474 169l78 78q4 4.511 4 8.756 0 4.244-3.5 7.244-4.5 4-8.5 4t-8-4l-87-87q-11-11-8-20t19-9q4.667 1 9.448 1H478q164.4 0 285.7 107Q885 362 907 523q0 5.024-3.109 8.512-3.11 3.488-8.628 3.488ZM482 1004q-164 0-285.5-106.648Q75 790.703 54 629q-1-5 2.57-8.5 3.572-3.5 8.167-3.5 4.263 0 6.802 2 2.538 2 2.461 6 19 154 137.5 256.5T487 983l-79-78q-3-4.511-3-8.756 0-4.244 4-8.244 3-3 7.5-3t8.5 3l87 87q11 12 7.5 21t-19.5 9q-4.667-1-9-1h-9Z"/></svg>