<svg xmlns="http://www.w3.org/2000/svg" width="48" height="48" viewBox="0 -960 960 960"><path d="M589.5-565.5Q576-579 576-600t13.5-34.5Q603-648 624-648t34.5 13.5Q672-621 672-600t-13.5 34.5Q645-552 624-552t-34.5-13.5Zm-288 0Q288-579 288-600t13.5-34.5Q315-648 336-648t34.5 13.5Q384-621 384-600t-13.5 34.5Q357-552 336-552t-34.5-13.5Zm144 88Q432-491 432-512t13.5-34.5Q459-560 480-560t34.5 13.5Q528-533 528-512t-13.5 34.5Q501-464 480-464t-34.5-13.5Zm0-176Q432-667 432-688t13.5-34.5Q459-736 480-736t34.5 13.5Q528-709 528-688t-13.5 34.5Q501-640 480-640t-34.5-13.5Zm2.5 427q-16-2.5-31-6.5v-114q0-29 18-49t45-20q27 0 45 20t18 49v114q-15 4-30.95 6.5t-32 2.5Q464-224 448-226.5ZM369-250q-15.79-6.29-30.89-14.14Q323-272 310.02-281.75 287-297 274-323.1q-13-26.1-13-54.9 0-20.14-4.5-38.07t-15.58-33.9Q233-461 210.56-482.32q-22.44-21.32-40.78-39.83Q161-531 161-544.22t9-21.78q9.8-10 22.9-10 13.1 0 21.89 9.79l123.23 115.83Q353-436 361-416.5t8 40.5v126Zm222 0v-125.59q0-21.67 9-41.04Q609-436 624-450l121.86-116.19q9.64-8.81 22.89-8.81t22.25 9q9 9 9 22.25t-8.74 21.82Q773-504 750.08-482.73 727.15-461.45 719-450q-11.2 15.91-15.6 33.8-4.4 17.89-4.4 38.57Q699-349 686.5-323q-12.5 26-35.7 41.77-12.8 9.23-28.23 17.09Q607.14-256.29 591-250Z"/></svg>