<svg xmlns="http://www.w3.org/2000/svg" width="48" height="48" viewBox="0 -960 960 960"><path d="M469-183v-241H277q-4.675 0-7.838-3.228-3.162-3.228-3.162-8t3.162-7.772q3.163-3 7.838-3h187L258-771q-4-6-.691-11.5 3.308-5.5 10.967-5.5 1.881 0 4.559 1.316 2.677 1.316 4.165 3.684l203 321 203-321q1.518-2.368 4.25-3.684 2.733-1.316 4.681-1.316 7.069 0 10.569 5.5 3.5 5.5-.5 11.5L496-446h187q4.675 0 7.838 3.228 3.162 3.228 3.162 8T690.838-427q-3.163 3-7.838 3H491v241q0 4.675-3.228 7.837-3.228 3.163-8 3.163T472-175.163q-3-3.162-3-7.837Z"/></svg>