<svg xmlns="http://www.w3.org/2000/svg" width="48" height="48" viewBox="0 -960 960 960"><path d="M483-172q-128 0-218-90t-90-218q0-86 43.5-161T351-761q15-6 25-5.5t17 6.5q6 6 8 15.5t-1 21.5q-3 16-4 31.256-1 15.255-1 31.744 0 111.667 78.167 189.833Q551.333-392 663-392q25 0 44-3.5t32-1.5q12 0 19 3t10.842 8q3.158 5 2.658 13t-5.5 19q-37 81-111.5 131.5T483-172Zm0-22q94 0 167.5-54.5T752-384q-21 7-43.5 10.5T663-370q-120.818 0-205.409-84.591T373-660q0-22 3.5-44t11.5-46q-84 30-137.5 104.211Q197-571.579 197-480q0 119.2 83.4 202.6Q363.8-194 483-194Zm-8-278Z"/></svg>