<svg xmlns="http://www.w3.org/2000/svg" width="48" height="48" viewBox="0 96 960 960"><path d="M718 828V324h-95q-4.675 0-7.838-3.228-3.162-3.228-3.162-8t3.162-7.772q3.163-3 7.838-3h95q8.525 0 15.263 6.737Q740 315.475 740 324v504q0 8.525-6.737 15.263Q726.525 850 718 850h-95q-4.675 0-7.838-3.228-3.162-3.228-3.162-8t3.162-7.772q3.163-3 7.838-3h95Zm-504 0h95q4.675 0 7.838 3.228 3.162 3.228 3.162 8T316.838 847q-3.163 3-7.838 3h-95q-8.525 0-15.262-6.737Q192 836.525 192 828V324q0-8.525 6.738-15.263Q205.475 302 214 302h95q4.675 0 7.838 3.228 3.162 3.228 3.162 8T316.838 321q-3.163 3-7.838 3h-95v504Z"/></svg>