<svg xmlns="http://www.w3.org/2000/svg" width="48" height="48" viewBox="0 -960 960 960"><path d="M602-212q-4.725 0-7.862-3.193-3.138-3.193-3.138-8t3.138-7.807q3.137-3 7.862-3h53.577q29.673 0 50.048-18.875Q726-271.75 726-301v-92q0-31 20-55t51-31v-2q-31-7-51-31t-20-55v-92q0-29.25-20.375-48.125T655.577-726H602q-4.725 0-7.862-3.193-3.138-3.193-3.138-8t3.138-7.807q3.137-3 7.862-3h54q37.75 0 64.875 26.125T748-659v92q0 29.275 21.362 49.138Q790.725-498 821-498q2.75 0 4.875 2.161 2.125 2.16 2.125 4.919v22.161q0 2.759-2.125 4.759-2.125 2-4.875 2-30.275 0-51.638 19.862Q748-422.275 748-393v92q0 36.75-27.125 62.875T656-212h-54Zm-298 0q-37.75 0-64.875-26.125T212-301v-92q0-29.275-21.363-49.138Q169.275-462 139-462q-2.725 0-4.863-2.161-2.137-2.16-2.137-4.919v-22.161q0-2.759 2.137-4.759 2.138-2 4.863-2 30.275 0 51.637-19.862Q212-537.725 212-567v-92q0-36.75 27.125-62.875T304-748h55q4.725 0 7.862 3.193 3.138 3.193 3.138 8T366.862-729q-3.137 3-7.862 3h-54.577q-29.673 0-50.048 18.875Q234-688.25 234-659v92q0 31-20 55t-51 31v2q31 7 51 31t20 55v92q0 29.25 20.375 48.125T304.423-234H359q4.725 0 7.862 3.193 3.138 3.193 3.138 8T366.862-215q-3.137 3-7.862 3h-55Z"/></svg>