<svg xmlns="http://www.w3.org/2000/svg" width="48" height="48" viewBox="0 96 960 960"><path d="M481 537q132 0 220-40t88-94q0-55-88-94.5T481 269q-132 0-220.5 39.5T172 403q0 54 88.5 94T481 537Zm-1 50q53 0 100.5-7.5T668 558q40-14 70.5-33.5T789 482v124q-20 23-50.5 42.5T668 682q-40 14-87.5 21.5T480 711q-53 0-100.5-7.5t-87-21.5q-39.5-14-70-33.5T172 606V482q20 23 50.5 42.5t70 33.5q39.5 14 87 21.5T480 587Zm0 174q53 0 100.5-7.5T668 732q40-14 70.5-33.5T789 656v123q-20 23-50.5 42.5T668 855q-40 14-87.5 21.5T480 884q-53 0-100.5-7.5t-87-21.5q-39.5-14-70-33.5T172 779V656q20 23 50.5 42.5t70 33.5q39.5 14 87 21.5T480 761Z"/></svg>