<svg xmlns="http://www.w3.org/2000/svg" width="48" height="48" viewBox="0 -960 960 960"><path d="M336-309h48q10.725 0 18.862-8.138Q411-325.275 411-336v-48q0-10.725-8.138-18.862Q394.725-411 384-411h-48q-10.725 0-18.862 8.138Q309-394.725 309-384v48q0 10.725 8.138 18.862Q325.275-309 336-309Zm240 0h48q10.725 0 18.862-8.138Q651-325.275 651-336v-48q0-10.725-8.138-18.862Q634.725-411 624-411h-48q-10.725 0-18.862 8.138Q549-394.725 549-384v48q0 10.725 8.138 18.862Q565.275-309 576-309ZM336-549h48q11.725 0 19.362-7.638Q411-564.275 411-576v-48q0-11.725-7.638-19.362Q395.725-651 384-651h-48q-11.725 0-19.362 7.638Q309-635.725 309-624v48q0 11.725 7.638 19.362Q324.275-549 336-549Zm240 0h48q11.725 0 19.362-7.638Q651-564.275 651-576v-48q0-11.725-7.638-19.362Q635.725-651 624-651h-48q-11.725 0-19.362 7.638Q549-635.725 549-624v48q0 11.725 7.638 19.362Q564.275-549 576-549ZM226-172q-22.775 0-38.387-15.613Q172-203.225 172-226v-508q0-22.775 15.613-38.388Q203.225-788 226-788h508q22.775 0 38.388 15.612Q788-756.775 788-734v508q0 22.775-15.612 38.387Q756.775-172 734-172H226Z"/></svg>