<svg xmlns="http://www.w3.org/2000/svg" width="48" height="48" viewBox="0 96 960 960"><path d="m513 801 84 85q3 3 3 7.789 0 4.79-3.357 8-3.748 3.211-7.829 3.211-4.081 0-6.814-3l-92-93q-8-8-8-19t8-19l92-92q3.067-3 7.533-3.5Q594 675 597.5 678q2.5 3 2.833 7.867.334 4.866-2.333 8.133l-85 85h280q4.7 0 7.85 3.211 3.15 3.21 3.15 8 0 4.789-3.15 7.789t-7.85 3H513ZM220 607q-8.8 0-15.9-7.1T197 584q0-8.8 7.1-15.9T220 561q8.8 0 15.9 7.1T243 584q0 8.8-7.1 15.9T220 607Zm189.889 0Q368 607 338.5 577.421 309 547.843 309 506V346q0-41.843 29.611-71.421Q368.222 245 410.111 245 452 245 481.5 274.579 511 304.157 511 346v160q0 41.843-29.611 71.421Q451.778 607 409.889 607Zm-.124-22q33.652 0 56.443-22.625Q489 539.75 489 506V346q0-33.75-22.556-56.375Q443.887 267 410.235 267t-56.443 22.625Q331 312.25 331 346v160q0 33.75 22.556 56.375Q376.113 585 409.765 585Z"/></svg>