<svg xmlns="http://www.w3.org/2000/svg" width="48" height="48" viewBox="0 -960 960 960"><path d="M536-189q0 5-2.5 9t-7.5 5q-12 2-24.5 2.5t-24.5.5q-55 0-107.5-19T276-247q-41-36-67.5-84T174-436q-1-6 1-11t8-5q5 0 8 4t4 10q9 53 34.5 96.5T292-265q40 35 87.5 53t99.5 18q12 0 23.5-.5T526-197q4-1 7 1.5t3 6.5Zm193-66-77 76q-3 3-7 2.5t-7-3.5q-3-3-3-7.5t3-7.5l76-76-77-77q-3-3-2.5-7.5t3.5-7.5q3-3 7.5-3t7.5 3l76 77 77-77q3-3 7.5-2.5t7.5 3.5q3 3 3 7t-3 7l-76 77 76 77q3 3 2.5 7.5T820-179q-3 3-7 3t-7-3l-77-76ZM477-766q-59 0-112.5 24T269-676h83q5 0 8 3t3 8q0 5-3 8t-8 3h-96q-12 0-19.5-7.5T229-681v-97q0-4 3-7.5t8-3.5q5 0 8 3.5t3 7.5v89q45-46 103.5-72.5T477-788q64 0 120 23.5t98 66.5q49 48 69.5 102.5T786-476q0-1 1-1.5t2-.5q1 14-11.5 15T765-475q-1-61-20.5-112T680-683q-39-39-91-61t-112-22Zm15 281 101 100q4 4 3.5 8.5T593-369q-3 3-7.5 3.5T577-369l-99-98q-4-4-6-9t-2-10v-184q0-5 3-8t8-3q5 0 8 3t3 8v185Z"/></svg>