<svg xmlns="http://www.w3.org/2000/svg" width="48" height="48" viewBox="0 -960 960 960"><path d="M306-172q-22.775 0-38.388-15.613Q252-203.225 252-226v-503h-29q-4.725 0-7.863-3.193-3.137-3.193-3.137-8t3.137-7.807q3.138-3 7.863-3h133q0-11 8.138-18 8.137-7 18.862-7h194q10.725 0 18.862 7.138Q604-761.725 604-751h133q4.725 0 7.862 3.193 3.138 3.193 3.138 8T744.862-732q-3.137 3-7.862 3h-29v503q0 22.775-15.612 38.387Q676.775-172 654-172H306Zm-32-557v503q0 14 9.5 23t22.5 9h348q13 0 22.5-9t9.5-23v-503H274Zm130 442q0 4.725 3.193 7.862 3.193 3.138 8 3.138t7.807-3.138q3-3.137 3-7.862v-350q0-3.75-3.193-7.375t-8-3.625Q410-648 407-644.375T404-637v350Zm130 0q0 4.725 3.193 7.862 3.193 3.138 8 3.138t7.807-3.138q3-3.137 3-7.862v-350q0-3.75-3.193-7.375t-8-3.625Q540-648 537-644.375T534-637v350ZM274-729v503q0 14 9.5 23t22.5 9h-32v-535Z"/></svg>