<svg xmlns="http://www.w3.org/2000/svg" width="48" height="48" viewBox="0 96 960 960"><path d="M306 884q-22.775 0-38.388-15.612Q252 852.775 252 830V327h-29q-4.725 0-7.863-3.193-3.137-3.193-3.137-8t3.137-7.807q3.138-3 7.863-3h133q0-11 8.138-18 8.137-7 18.862-7h194q10.725 0 18.862 7.138Q604 294.275 604 305h133q4.725 0 7.862 3.193 3.138 3.193 3.138 8T744.862 324q-3.137 3-7.862 3h-29v503q0 22.775-15.612 38.388Q676.775 884 654 884H306Zm-32-557v503q0 14 9.5 23t22.5 9h348q13 0 22.5-9t9.5-23V327H274Zm0 0v503q0 14 9.5 23t22.5 9h-32V327Zm206 284 100 100q4 4 8.75 4t9.25-4q3-3 3.5-8.25T598 694L498 594l100-101q3-4.235 3.5-8.434.5-4.198-3.457-8.418Q594 472 589.067 472q-4.934 0-9.067 4L480 576 380 476q-3-4-8-4t-9 3.522Q359 479 359 484t4 9l100 101-100 100q-4 4-4 8.5t4.043 8.457Q367 716 371.5 716q4.5 0 8.5-5l100-100Z"/></svg>