<svg xmlns="http://www.w3.org/2000/svg" width="48" height="48"><path d="M7.85 6.4q-.25 0-.4-.15-.15-.15-.15-.4t.15-.4q.15-.15.4-.15h32.3q.25 0 .4.15.15.15.15.4t-.15.4q-.15.15-.4.15zm0 36.3q-.25 0-.4-.15-.15-.15-.15-.4t.15-.4q.15-.15.4-.15h32.3q.25 0 .4.15.15.15.15.4t-.15.4q-.15.15-.4.15zm0-12.1q-.25 0-.4-.15-.15-.15-.15-.4t.15-.4q.15-.15.4-.15h32.3q.25 0 .4.15.15.15.15.4t-.15.4q-.15.15-.4.15zm0-12.1q-.25 0-.4-.15-.15-.15-.15-.4t.15-.4q.15-.15.4-.15h32.3q.25 0 .4.15.15.15.15.4t-.15.4q-.15.15-.4.15z"/></svg>