<svg xmlns="http://www.w3.org/2000/svg" width="48" height="48" viewBox="0 -960 960 960"><path d="M157-832q-4.675 0-7.837-3.228-3.163-3.228-3.163-8t3.163-7.772q3.162-3 7.837-3h646q4.675 0 7.838 3.228 3.162 3.228 3.162 8T810.838-835q-3.163 3-7.838 3H157Zm0 726q-4.675 0-7.837-3.228-3.163-3.228-3.163-8t3.163-7.772q3.162-3 7.837-3h646q4.675 0 7.838 3.228 3.162 3.228 3.162 8T810.838-109q-3.163 3-7.838 3H157Zm0-242q-4.675 0-7.837-3.228-3.163-3.228-3.163-8t3.163-7.772q3.162-3 7.837-3h646q4.675 0 7.838 3.228 3.162 3.228 3.162 8T810.838-351q-3.163 3-7.838 3H157Zm0-242q-4.675 0-7.837-3.228-3.163-3.228-3.163-8t3.163-7.772q3.162-3 7.837-3h646q4.675 0 7.838 3.228 3.162 3.228 3.162 8T810.838-593q-3.163 3-7.838 3H157Z"/></svg>