<svg xmlns="http://www.w3.org/2000/svg" width="48" height="48" viewBox="0 96 960 960"><path d="M761 430q3 3 9 3.5t10-3.5q4-4 4-9t-4-10l-63-63v-98q0-5.6-4.2-9.3-4.2-3.7-9.3-3.7-5.1 0-9.3 4.2-4.2 4.2-4.2 9.436v101.318Q690 353 695 362l66 68ZM256.471 758q15.882 0 26.705-11.118 10.824-11.117 10.824-27Q294 704 282.882 692.5q-11.117-11.5-27-11.5Q240 681 228.5 692.794 217 704.588 217 720.471q0 15.882 11.794 26.705Q240.588 758 256.471 758Zm287.647 0Q560 758 571.5 746.882q11.5-11.117 11.5-27Q583 704 571.206 692.5 559.412 681 543.529 681q-15.882 0-26.706 11.794Q506 704.588 506 720.471q0 15.882 11.118 26.705 11.117 10.824 27 10.824ZM213.824 924q-3.824 0-6.324-2.625T205 915v-76q-23-3-48-33.5T132 736V371q0-30 19.5-51.5t61-34Q254 273 320 269t159 0q-1.947 4.552-3.474 10.276Q474 285 471 291q-179-6-248 14.5T149 363h315q0 5 1 10.5t1 11.5H154v212h499q2-6 10.5-6.5t4.5-.5v146q0 39-25 69.5T595 839v76q0 3.75-2.677 6.375-2.676 2.625-6.5 2.625-3.823 0-6.323-2.625Q577 918.75 577 915v-72H223v72q0 3.75-2.676 6.375-2.677 2.625-6.5 2.625ZM565 619H154h492-81Zm137.813-121q-60.678 0-102.745-42.173Q558 413.654 558 352.827T600.122 250Q642.245 208 703 208q61.435 0 103.218 41.899Q848 291.799 848 353.399q0 60.091-41.84 102.346T702.813 498ZM235 821h330q34 0 57.5-24.5T646 739V619H154v120q0 33 23.5 57.5T235 821Zm229-458H149h315Z"/></svg>