<svg xmlns="http://www.w3.org/2000/svg" width="48" height="48" viewBox="0 -960 960 960"><path d="M656.83-174q-4.83 0-10.156-1.167Q641.348-176.333 636-180l-90-52q-9.241-6.235-14.621-15.382Q526-256.529 526-268v-103q0-11.471 5.379-20.618Q536.759-400.765 546-407l90-53q5.41-2.667 10.808-3.833Q652.205-465 657.103-465q4.897 0 9.806 1.833Q671.818-461.333 677-460l90 53q9.467 6.235 15.233 15.382Q788-382.471 788-371v103q0 11.471-5.767 20.618Q776.467-238.235 767-232l-89.984 52.135q-5.174 2.532-10.265 4.198Q661.66-174 656.83-174ZM156-233q-9.75 0-16.875-7.125T132-257v-22.969Q132-306 145-323t37.791-28.651Q239-378 281.5-389.5 324-401 386-403q6.333 0 10.583 2.692 4.25 2.693 6.417 6.308 3 4 4 8.717 1 4.718 0 9.283-2 12.475-2.5 24.738-.5 12.262-.5 25.005 0 17.615 1.5 34.436T410-261q1 5-.5 10t-3.5 9q-3 4-6.842 6.5-3.842 2.5-9.158 2.5H156Zm244-281q-44.55 0-74.775-29.725Q295-573.45 295-619q0-44.55 30.225-74.775Q355.45-724 400-724q44.55 0 74.775 30.225Q505-663.55 505-619q0 45.55-30.225 75.275Q444.55-514 400-514Zm168 122 89 52 89-52-89-51-89 51Zm102 188 93-53.062V-371l-93 57v110Zm-119-53 94 54v-110.148L551-369v112Z"/></svg>