<svg xmlns="http://www.w3.org/2000/svg" width="48" height="48" viewBox="0 -960 960 960"><path d="M737-211.579V-309q0-5.6-4.2-9.8-4.2-4.2-9.8-4.2-5.6 0-9.8 4.2-4.2 4.2-4.2 9.8v97q0 5.565 2 10.283 2 4.717 6 8.717l66 64q3 4 9 4t10-4q5-5 5-10.5t-5-9.5l-65-62.579ZM479.804-476q7.196 0 14.282-1.682T507-483l246-143q4.091-1.732 5.545-5.866 1.455-4.134-1.378-8.19-1.834-4.055-6.5-5.5Q746-647 742-644L480-492 218-644q-5-3-9.167-1.556-4.166 1.445-6 5.5-2.833 4.056-1.768 8.19Q202.13-627.732 206-625l247 142q5.706 3.636 12.657 5.318Q472.608-476 479.804-476ZM172-337v-286q0-14 6.875-26.787Q185.75-662.574 199-670l254-147q7-4 13.451-5.5 6.451-1.5 13.5-1.5T494-822.5q7 1.5 13 5.5l254 147q13.25 7.426 20.125 20.213T788-623v152q0 12-9 19.5t-21 5.5q-9-2-17.589-2.5-8.59-.5-17.411-.5-98.743 0-168.871 70.129Q484-308.743 484-210q0 10.857 1 20.643 1 9.786 3 17.5Q491-156 478.5-146t-26.5 2L199-290q-13.25-7.426-20.125-20.213T172-337ZM723-65q-60 0-102.5-42T578-210q0-60 42.5-102.5T723-355q60 0 102.5 42.5T868-210q0 61-42.5 103T723-65Z"/></svg>