<svg xmlns="http://www.w3.org/2000/svg" width="48" height="48" viewBox="0 -960 960 960"><path d="M360-403h260q29.94 0 50.47-21.06 20.53-21.07 20.53-51 0-29.94-21.06-50.44Q648.88-546 618-546h-17v-9q0-46-35.5-78t-85.41-32q-32.29 0-59.19 17.5T380-601l-8 16-17 1q-36 2-61 28t-25 62.45q0 37.55 26.54 64.05T360-403Zm98 209v-86H186q-22.77 0-38.39-15.61Q132-311.23 132-334v-400q0-22.78 15.61-38.39Q163.23-788 186-788h588q22.78 0 38.39 15.61T828-734v400q0 22.77-15.61 38.39Q796.78-280 774-280H502v86h71q4.97 0 7.99 3.02 3.01 3.02 3.01 8t-3.01 7.98q-3.02 3-7.99 3H387q-4.98 0-7.99-3.02t-3.01-8q0-4.98 3.01-7.98t7.99-3h71Z"/></svg>