<svg xmlns="http://www.w3.org/2000/svg" width="48" height="48" viewBox="0 -960 960 960"><path d="m287-658 24 65q4 10 12 15.5t18 5.5h278q10 0 18-5.5t12-15.5l24-65H287Zm54 108q-16.618 0-30.809-9.625Q296-569.25 290-585l-27-73h-37q-21.5 0-37.75-16.25T172-712v-76h616v76q0 21.75-16.25 37.875T734-658h-37l-28 73q-5.743 15.5-19.784 25.25Q635.176-550 618-550H341Zm139 378q-73 0-140.5-25T215-269q-3-2-4-4.667-1-2.666-1-5.333 0-4.7 3.163-7.85 3.164-3.15 8.061-3.15 1.776 0 3.901.5T229-287q52.6 45.887 117.376 69.443Q411.153-194 481-194q69.252 0 133.62-23.043Q678.988-240.086 732-285q1.444-1.417 3.611-2.208 2.167-.792 3.878-.792 5.511 0 8.511 3.025 3 3.025 3 8.442 0 2.866-1.125 4.866-1.125 2-3.875 3.667-57 47-125 71.5T480-172Zm.439-148q-43.793 0-83.616-14.5T323-375q-2.917-2-4.458-4.75Q317-382.5 317-385.1q0-4.85 2.958-7.875 2.959-3.025 8.375-3.025 1.667 0 3.792.667 2.125.666 3.875 2.333 31 25 67.817 38 36.817 13 77 13t76.683-13q36.5-13 67.5-38 1.778-1.667 4.194-2.333 2.417-.667 3.862-.667 4.944 0 7.944 3.025t3 8.442q0 2.866-1.667 5.366-1.666 2.5-4.333 4.167-34 27-73.884 41-39.883 14-83.677 14Z"/></svg>