<svg xmlns="http://www.w3.org/2000/svg" width="48" height="48" viewBox="0 -960 960 960"><path d="M201-172q-22.775 0-38.387-15.613Q147-203.225 147-226v-508q0-22.775 15.613-38.388Q178.225-788 201-788h508q22.775 0 38.388 15.609Q763-756.781 763-734.011v82.135h39q4.675 0 7.838 3.192 3.162 3.192 3.162 7.921 0 4.728-3.162 7.745Q806.675-630 802-630h-39v139h39.193q4.757 0 7.782 3.228 3.025 3.228 3.025 8T809.838-472q-3.163 3-7.838 3h-39v139h39.193q4.757 0 7.782 3.228 3.025 3.228 3.025 8t-3.162 7.88q-3.163 3.108-7.838 3.108h-39v81.795q0 22.77-15.612 38.38Q731.775-172 709-172H201Zm0-22h508q12 0 22-10t10-22v-508q0-12-10-22t-22-10H201q-12 0-22 10t-10 22v508q0 12 10 22t22 10Zm109.056-114h112.17q11.499 0 19.136-7.763Q449-323.525 449-335v-68q0-11.475-7.779-19.237Q433.443-430 421.944-430h-112.17q-11.499 0-19.136 7.763Q283-414.475 283-403v68q0 11.475 7.779 19.237Q298.557-308 310.056-308ZM533-575h67q11.475 0 19.237-7.763Q627-590.525 627-602v-23q0-11.475-7.763-19.237Q611.475-652 600-652h-67q-11.475 0-19.237 7.763Q506-636.475 506-625v23q0 11.475 7.763 19.237Q521.525-575 533-575Zm-222.944 88h112.17q11.499 0 19.136-7.779Q449-502.557 449-514.057v-111.169q0-11.499-7.779-19.136Q433.443-652 421.944-652h-112.17q-11.499 0-19.136 7.779Q283-636.443 283-624.943v111.169q0 11.499 7.779 19.136Q298.557-487 310.056-487ZM533-308h67q11.475 0 19.237-7.763Q627-323.525 627-335v-156q0-10.5-7.763-18.75Q611.475-518 600-518h-67q-11.475 0-19.237 8.25Q506-501.5 506-491v156q0 11.475 7.763 19.237Q521.525-308 533-308ZM169-766v572-572Z"/></svg>