<svg xmlns="http://www.w3.org/2000/svg" width="48" height="48" viewBox="0 -960 960 960"><path d="M488-524Zm-11 312H143q-4.67 0-7.84-3.23-3.16-3.23-3.16-8t3.16-7.77q3.17-3 7.84-3h334q4.68 0 7.84 3.23t3.16 8q0 4.77-3.16 7.77t-7.84 3Zm-251-88q-22.77 0-38.39-15.61Q172-331.23 172-354v-340q0-22.78 15.61-38.39Q203.23-748 226-748h543q4.67 0 7.84 3.23 3.16 3.23 3.16 8t-3.16 7.77q-3.17 3-7.84 3H226q-12 0-22 10t-10 22v340q0 12 10 22t22 10h251q4.68 0 7.84 3.23t3.16 8q0 4.77-3.16 7.77t-7.84 3H226Zm590 49v-322q0-7-5-12t-12-5H641q-6 0-11.5 5t-5.5 12v322q0 7 5.5 12t11.5 5h158q7 0 12-5t5-12Zm-173 39q-16.33 0-28.67-12.33Q602-236.67 602-253v-319q0-15.92 12.33-27.96Q626.67-612 643-612h155q15.92 0 27.96 12.04Q838-587.92 838-572v319q0 16.33-12.04 28.67Q813.92-212 798-212H643Zm76.81-266q11.19 0 18.69-7.74 7.5-7.75 7.5-18.07 0-10.19-7.49-18.19-7.49-8-19.42-8-9.09 0-17.09 7.99t-8 18.92q0 10.09 8.24 17.59 8.25 7.5 17.57 7.5Zm.19 66Z"/></svg>