<svg xmlns="http://www.w3.org/2000/svg" width="48" height="48" viewBox="0 -960 960 960"><path d="M477-212H143q-4.92 0-7.96-3.05-3.04-3.06-3.04-8 0-4.95 3.04-7.95t7.96-3h334q4.93 0 7.96 3.05 3.04 3.06 3.04 8 0 4.95-3.04 7.95-3.03 3-7.96 3Zm-251-88q-22.77 0-38.39-15.61Q172-331.23 172-354v-340q0-22.78 15.61-38.39Q203.23-748 226-748h508q13.78 0 25.89 6.11Q772-735.78 780-726H623q-58 0-96.66 38.5-38.67 38.5-38.67 95.5v265q0 11.73-7.54 19.36Q472.59-300 461-300H226Zm417 88q-16.33 0-28.67-12.33Q602-236.67 602-253v-319q0-16 12.33-28 12.34-12 28.67-12h154.78Q814-612 826-600t12 28v319q0 16.33-12 28.67Q814-212 797.78-212H643Zm76.81-267q10.19 0 18.19-7.74 8-7.75 8-18.07 0-10.19-7.99-18.19-7.99-8-18.44-8-10.57 0-18.07 7.99t-7.5 18.44q0 10.57 7.74 18.07 7.75 7.5 18.07 7.5Z"/></svg>