<svg xmlns="http://www.w3.org/2000/svg" width="48" height="48" viewBox="0 0 48 48"><path d="M33.5 36.3q3.2 0 5.4-2.2t2.2-5.4q0-3.2-2.2-5.4t-5.4-2.2q-3.2 0-5.4 2.2t-2.2 5.4q0 3.2 2.2 5.4t5.4 2.2Zm-23.1 5.1q-1.05 0-1.875-.825T7.7 38.7V9.3q0-1.1.825-1.9.825-.8 1.875-.8h13.4q1.1 0 1.9.8.8.8.8 1.9v7.6q-.3.15-.55.325-.25.175-.55.325v-5.6H8.8v24.1h13.05q.75 1.25 1.825 2.2 1.075.95 2.225 1.8-.35.6-.975.975t-1.375.375Zm19.7-1.35v-3.3q-2.45-1.05-3.875-3.225Q24.8 31.35 24.8 28.7q0-2.65 1.425-4.825Q27.65 21.7 30.1 20.65v-3.3q0-.6.375-.975T31.45 16h4.1q.6 0 .975.375t.375.975v3.3q2.45 1.05 3.875 3.225Q42.2 26.05 42.2 28.7q0 2.65-1.425 4.825Q39.35 35.7 36.9 36.75v3.3q0 .55-.375.95-.375.4-.975.4h-4.1q-.6 0-.975-.4t-.375-.95Z"/></svg>