<svg xmlns="http://www.w3.org/2000/svg" width="48" height="48" viewBox="0 96 960 960"><path d="M368 547h205v32q0 7.5 7 10.25t12-2.25l39-39q5-5.545 5-12.773 0-7.227-5.4-12.494L592 484q-5-5-12-2.833-7 2.166-7 10.833v33H373q-11.5 0-19.25 7.75T346 552v107q0 4.7 3.211 7.85 3.21 3.15 8 3.15 4.789 0 7.789-3.15t3-7.85V547Zm112.146 364q-10.146 0-20.109-4-9.964-4-18.037-12L161 614q-8-7.958-12-17.833-4-9.874-4-20.021 0-10.146 4-20.109 4-9.964 12-18.037l281-281q7.958-8 17.833-12 9.874-4 20.021-4 10.146 0 20.109 4 9.964 4 18.037 12l281 281q8 7.958 12 17.833 4 9.874 4 20.021 0 10.146-4 20.109-4 9.964-12 18.037L518 895q-7.958 8-17.833 12-9.874 4-20.021 4Z"/></svg>