<svg xmlns="http://www.w3.org/2000/svg" width="48" height="48" viewBox="0 -960 960 960"><path d="M368-509h205v32q0 7 7 10t12-2l39-39q5-5.27 5-12.64 0-7.36-5.4-12.63L592-572q-5-5-12-2.58-7 2.41-7 10.58v33H373q-11.75 0-19.37 7.62Q346-515.75 346-504v107q0 4.95 3.04 7.98 3.03 3.02 8 3.02 4.96 0 7.96-3.02 3-3.03 3-7.98v-112Zm112.2 364q-10.2 0-20.16-4-9.97-4-18.04-12L161-442q-8-7.96-12-17.78-4-9.83-4-20.02 0-10.2 4-20.16 4-9.97 12-18.04l281-281q7.96-8 17.78-12 9.83-4 20.02-4 10.2 0 20.16 4 9.97 4 18.04 12l281 281q8 7.96 12 17.78 4 9.83 4 20.02 0 10.2-4 20.16-4 9.97-12 18.04L518-161q-7.96 8-17.78 12-9.83 4-20.02 4Z"/></svg>