<svg xmlns="http://www.w3.org/2000/svg" width="48" height="48" viewBox="0 -960 960 960"><path d="M478-132q-38 0-77.5-9.5T326-169q-36 19-70 27.5t-73 9.5q-5 0-8-3.17-3-3.18-3-7.87 0-4.96 3.02-7.79 3.03-2.84 7.98-3.17 18.11-.4 35.55-3.2 17.45-2.8 34.95-8.3 17.5-5.5 34-13.33Q304-186.67 319-198q3.17-2 6.33-2 3.17 0 7.67 2 32 22 69.5 31.5T478-157q38 0 75.5-9.5T623-198q4.5-2 7.5-2t7.5 2q16 11.5 32.5 19.75T704-165q17 5 35.45 7.8 18.44 2.8 37.55 3.2 4.95.34 7.97 3.45 3.03 3.1 3.03 7.69t-3 7.72q-3 3.14-8 3.14-40.17-1.38-74.58-9.19Q668-149 630-169q-35 18-74.5 27.5T478-132Zm1-127q-30 0-62-15t-89-80q-24 27-44 45t-39 29q-13 10-28 2.5T198-301l-39.07-143.88q-1.93-9.18 2.4-18.91T176-477l45-16v-194q0-22.28 15.86-38.14Q252.73-741 275-741h137v-60q0-11.47 8.25-19.24Q428.5-828 439-828h78q10.5 0 18.75 7.76Q544-812.47 544-801v60h137q22.28 0 38.14 15.86T735-687v194l45 16q10.34 3.48 14.67 13.21t2.46 18.98L759-300q-4 16-18.5 22.5T712-280q-18-11-38-28.5T629-354q-58 65-89 80t-61 15ZM243-691v190l218-70q8-3 17-3t17 3l218 70v-190q0-12-8.5-20t-20.5-8H272q-12 0-20.5 8t-8.5 20Zm235 138-296 97 42 165q26-13 45.5-33t38.5-42q7.98-10 19.99-10 12.01 0 21.01 9 27 32 58 59t73.35 27q41.28 0 70.97-27Q581-335 609-367q7.61-9.27 20.28-9.13Q641.96-376 650-366q19 21 38.5 42t45.5 33l42-165-298-97Zm1 136Z"/></svg>