<svg xmlns="http://www.w3.org/2000/svg" width="48" height="48" viewBox="0 -960 960 960"><path d="M557-623q-4.675 0-7.838-3.228-3.162-3.228-3.162-8t3.162-7.772q3.163-3 7.838-3h112v-158q0-4.675 3.228-7.838 3.228-3.162 8-3.162t7.772 3.162q3 3.163 3 7.838v158h112q4.675 0 7.838 3.228 3.162 3.228 3.162 8T810.838-626q-3.163 3-7.838 3H557Zm122.772 477Q675-146 672-149.163q-3-3.162-3-7.837v-329q0-4.675 3.228-7.838 3.228-3.162 8-3.162t7.772 3.162q3 3.163 3 7.838v329q0 4.675-3.228 7.837-3.228 3.163-8 3.163Zm-400 0Q275-146 272-149.163q-3-3.162-3-7.837v-155H157q-4.675 0-7.837-3.228-3.163-3.228-3.163-8t3.163-7.772q3.162-3 7.837-3h246q4.675 0 7.838 3.228 3.162 3.228 3.162 8T410.838-315q-3.163 3-7.838 3H291v155q0 4.675-3.228 7.837-3.228 3.163-8 3.163Zm0-314Q275-460 272-463.162q-3-3.163-3-7.838v-332q0-4.675 3.228-7.838 3.228-3.162 8-3.162t7.772 3.162q3 3.163 3 7.838v332q0 4.675-3.228 7.838-3.228 3.162-8 3.162Z"/></svg>