<svg xmlns="http://www.w3.org/2000/svg" width="48" height="48" viewBox="0 96 960 960"><path d="M612 523h22v-40h60v-22h-60v-40h-22v102Zm-346-40h300v-22H266v22Zm60 168h22V549h-22v40h-60v22h60v40Zm68-40h300v-22H394v22Zm8 273q-11.475 0-19.237-7.763Q375 868.475 375 857v-53H186q-21.5 0-37.75-16.25T132 750V322q0-21.5 16.25-37.75T186 268h588q21.5 0 37.75 16.25T828 322v428q0 21.5-16.25 37.75T774 804H585v53q0 11.475-7.763 19.237Q569.475 884 558 884H402ZM186 782h588q14 0 23-9t9-23V322q0-14-9-23t-23-9H186q-14 0-23 9t-9 23v428q0 14 9 23t23 9Zm-32 0V290v492Z"/></svg>