<svg xmlns="http://www.w3.org/2000/svg" width="48" height="48" viewBox="0 -960 960 960"><path d="M104-414q-27-40-39.5-81T52-576q0-88 62-150t150-62q60 0 115 33t101 95q46-62 101-95t115-33q88 0 150 62t62 150q0 37-12.5 77.5T856-415q-4.829-3.041-10.415-5.02Q840-422 836-424q25-41 37.5-78.5T886-576q0-79-55.5-134.5T696-766q-48 0-103.5 31.5T480-626q-57-77-112.5-108.5T264-766q-79 0-134.5 55.5T74-576q0 37 12.5 75.5T123-423q-4 3-9 5l-10 4ZM52-153q0-33 36.555-56t95.474-23Q195-232 205-231t18 3q-5 12-8 26.109-3 14.11-3 29.19V-130H75q-9.05 0-16.025-6.975Q52-143.95 52-153Zm240-4v-12q0-45 52.168-71t136.108-26Q565-266 616.5-240q51.5 26 51.5 71v12q0 11.75-7.625 19.375T641-130H319.412Q307-130 299.5-137.625 292-145.25 292-157Zm456 27v-42.857Q748-188 745.5-202t-8.5-26q9-2 19.186-3 10.185-1 20.814-1 59.3 0 95.15 23Q908-186 908-153q0 9.05-6.975 16.025Q894.05-130 885-130H748ZM479.878-244Q402-244 356-222.5T313-165v13h334v-13q3-36-42.5-57.5T479.878-244ZM184-266q-19.625 0-33.312-13.688Q137-293.375 137-313q0-19 13.688-32.5Q164.375-359 184-359q19 0 33 13.5t14 32.5q0 19.625-14 33.312Q203-266 184-266Zm593 0q-19 0-33-13.688-14-13.687-14-33.312 0-19 14-32.5t33.194-13.5Q797-359 810.5-345.5 824-332 824-313q0 19.625-13.375 33.312Q797.25-266 777-266Zm-296.647-30Q448-296 425-318.75T402-374q0-33.15 22.75-55.575Q447.5-452 480-452q33.15 0 55.575 22.324Q558-407.353 558-374.353 558-342 535.677-319q-22.324 23-55.324 23ZM480-430q-23 0-39.5 15.875T424-374q0 23 16.5 39.5t40 16.5q23.5 0 39.5-16.5t16-40q0-23.5-15.875-39.5T480-430Zm0 56Zm0 222Z"/></svg>