<svg xmlns="http://www.w3.org/2000/svg" width="48" height="48" viewBox="0 -960 960 960"><path d="M744.5-215.5Q779-250 779-300t-34.5-84.5Q710-419 660-419t-84.5 34.5Q541-350 541-300t34.5 84.5Q610-181 660-181t84.5-34.5ZM864-85q-5 0-8-3L752-193q-19 16-42 25t-50 9q-59 0-100-41t-41-100q0-59 41-100t100-41q59 0 100 41t41 100q0 27-9 50t-25 42l105 104q3 3 3 8t-3 8q-3 3-8 3Zm-638-47q-23 0-38.5-15.5T172-186v-588q0-23 15.5-38.5T226-828h304q11 0 21 4.5t18 11.5l123 123q7 8 11.5 18t4.5 21v91q0 12-8.5 19.5T679-533q-5 0-9.5-1t-9.5-1q-105 0-169.5 72.5T426-298q0 35 11 69.5t36 64.5q8 11 2.5 21.5T459-132H226Zm315-674v117q0 11 8 19t19 8h118L541-806l145 144-145-144Z"/></svg>