<svg xmlns="http://www.w3.org/2000/svg" width="48" height="48" viewBox="0 -960 960 960"><path d="M186-212q-22.775 0-38.387-15.613Q132-243.225 132-266v-428q0-22.775 15.613-38.388Q163.225-748 186-748h588q22.775 0 38.388 15.612Q828-716.775 828-694v428q0 22.775-15.612 38.387Q796.775-212 774-212H186Zm0-22h588q12 0 22-10t10-22v-379H154v379q0 12 10 22t22 10Zm252-138 162-162q3.217-3 7.609-3.5Q612-538 616-533.828q4 4.173 4 8 0 3.828-4 7.828L457-359q-8.182 8-19.091 8T419-359l-75-75q-3-3.217-3.5-7.609Q340-446 344.172-450q4.173-4 8-4 3.828 0 7.828 4l78 78ZM186-234h-32v-492h32q-12 0-22 10t-10 22v428q0 12 10 22t22 10Z"/></svg>