<svg xmlns="http://www.w3.org/2000/svg" width="48" height="48" viewBox="0 -960 960 960"><path d="m381-278 395-394-16-16-379 378-181-181-16 16 197 197Zm.208 22q-4.208 0-8.565-1.5-4.357-1.5-6.643-4.5L168-459q-3.043-3.243-4.522-7.246-1.478-4.003-1.478-8.557 0-4.53 1.065-8.935T168-491l15.412-15.412Q187-510 191.5-511.5q4.5-1.5 8.5-1.5t7.805 1.5Q211.61-510 215-507l166 166 364-364q3-3 7.333-5 4.334-2 8.667-2 4.217 0 8.435 1.534 4.217 1.533 7.576 4.233l15.456 16.656q3.359 3.854 4.946 8.216Q799-677 799-673q0 4-1.978 8.268-1.979 4.269-4.022 6.732L397-262q-3.167 3-7.375 4.5t-8.417 1.5Z"/></svg>