<svg xmlns="http://www.w3.org/2000/svg" width="48" height="48" viewBox="0 -960 960 960"><path d="M515-794q0-13.455 10-22.227Q535-825 548-822q105 20 179.5 95T822-547q3 12-4.826 21.5Q809.349-516 795-516H584q-2 0-4.25-1.5T577-522q-9-18-23.654-32.143T520-575q-2-1.455-3.5-3.273T515-583v-211ZM411-139q-120-25-199-119.726Q133-353.453 133-479q0-126.294 78.5-222.147T411-821q14-2 24.5 7.125T446-791v208.786q0 .902-4 7.214-29 12-47 38.207-18 26.208-18 58Q377-448 395-423t47 36q0 1 4 7v211q0 13.75-10.5 22.875T411-139Zm135 1q-12 1-21.5-7.195T515-165v-213q0-3 1.5-5.25T521-386q19-7 33.549-21.654T577-440q-1 0 7.926-6H795q11.714 0 20.357 10.5Q824-425 822-412q-21 105-96 179.5T546-138Z"/></svg>