<svg xmlns="http://www.w3.org/2000/svg" width="48" height="48" viewBox="0 -960 960 960"><path d="M469-469H159l95 96q3 3 3.5 7.5T254-358q-3 4-7.5 4t-7.5-4L135-461q-8-8-8-19t8-19l104-104q3-3 7.5-3t8.5 3q4 4 4 8.5t-4 7.5l-96 96h310v-310l-95 95q-3 3-8 3.5t-8-3.5q-4-3-4-7.5t4-8.5l103-103q8-8 19-8t19 8l103 103q3 3 3.5 8t-3.5 9q-3 3-7.5 3t-8.5-3l-95-96v310h310l-95-96q-3-3-3.5-7.5t3.5-8.5q3-3 7.5-3t8.5 3l103 104q8 8 8 19t-8 19L722-358q-3 3-8 3.5t-8-3.5q-4-3-4-7.5t4-8.5l95-95H491v310l97-97q3-3 7.5-3t8.5 3q4 4 4 8t-4 8L499-135q-8 8-19 8t-19-8L356-240q-3-3-3.5-7.5t3.5-8.5q4-3 8-3t8 3l97 97v-310Z"/></svg>