<svg xmlns="http://www.w3.org/2000/svg" width="48" height="48" viewBox="0 -960 960 960"><path d="M273.34-132q-59.03 0-100.18-41.43Q132-214.86 132-273.7q0-58.84 40.92-100.07Q213.84-415 273-415q26 0 49.28 8.61 23.28 8.6 42.72 22.39 41-46 42.5-97.5T369-578q-19 16-43.29 25.5T274-543q-59.17 0-100.58-41.71Q132-626.42 132-686q0-58.26 41.49-100.13Q214.97-828 274.24-828q59.26 0 100.51 41.5Q416-745 416-686q0 27.35-9.43 51.58Q397.14-610.19 381-591q46 40 97.22 38.57Q529.44-553.87 576-594q-16-19-24-42.05-8-23.05-8-49.95 0-58.49 41-99.74Q626-827 685.57-827q59.57 0 101 41.26Q828-744.49 828-686q0 60.1-41.41 101.05Q745.17-544 686-544q-28.07 0-53.04-10Q608-564 588-581q-41 46-39 99.5T592-381q20-16 43.47-25t50.53-9q59.17 0 100.59 40.92Q828-333.16 828-274q0 60.1-41.39 101.05Q745.21-132 686.07-132 626-132 585-173.41 544-214.83 544-274q0-26.52 9-50.76T578-368q-47.41-41.94-99.71-42.97Q426-412 378-371q18 20 28 44.5t10 52.5q0 60.1-41.81 101.05Q332.37-132 273.34-132ZM686-566q50.26 0 85.13-35.03t34.87-84.5Q806-735 771.18-770t-85-35Q636-805 601-769.88q-35 35.12-35 83.88 0 22 6 41t18 34l82-81q3.18-3 7.59-3t7.41 3q3 3 3 7t-3 7l-82 83q16 14 37.11 21.5Q663.23-566 686-566Zm-412 1q21.79 0 41.39-7.5Q335-580 352-593l-86-85q-3-2-3-6.5t3.5-8q3.5-3.5 7.41-3.5t8.09 4l85 84q13-16 20-35.72 7-19.73 7-42.28 0-49.68-35.23-84.84-35.22-35.16-85-35.16Q224-806 189-770.82q-35 35.19-35 84.9Q154-635 189.16-600T274-565Zm412.18 411q50.18 0 85-34.82T806-273.78q0-50.13-34.87-84.68Q736.26-393 686-393q-22.07 0-41.04 7Q626-379 609-366l86 85q3 3.18 3 7.59t-3.24 7.41q-4.18 3-8.47 3-4.29 0-8.29-3l-85-85q-13 17-20 35.82T566-274q0 50.26 34.82 85.13T686.18-154Zm-412.51 0Q324-154 359-188.87T394-274q0-23.22-7.5-43.11T365-354l-90 88q-4 4-7.8 3.5t-8.2-3.29q-3-4.24-3-7.72 0-3.49 3-7.49l89-88q-16-12-34.67-18-18.66-6-40.33-6-48.76 0-83.88 34.71Q154-323.57 154-273.79 154-224 189.17-189q35.17 35 84.5 35Zm206.51-302q8.82 0 15.82-6.49t7-16q0-9.51-7.18-16.51-7.17-7-16-7-8.82 0-15.82 7.18-7 7.17-7 16.68t7.18 15.82q7.17 6.32 16 6.32Z"/></svg>