<svg xmlns="http://www.w3.org/2000/svg" width="48" height="48" viewBox="0 -960 960 960"><path d="M263-132q-55 0-93-32t-38-87v-192q0-23.248 10.836-43.475Q153.673-506.703 174-520l312-201q3-2 8-2t9 4q11 11 8.5 23T501-671l-79 133h315q4.95 0 7.975 3.035 3.025 3.035 3.025 8T744.975-519q-3.025 3-7.975 3H532v106h285q4.95 0 7.975 3.035 3.025 3.035 3.025 8T824.975-391q-3.025 3-7.975 3H532v106h245q4.95 0 7.975 3.035 3.025 3.035 3.025 8T784.975-263q-3.025 3-7.975 3H532v106h165q4.95 0 7.975 3.035 3.025 3.035 3.025 8T704.975-135q-3.025 3-7.975 3H263Zm337-603q-22-27-30.5-52.033Q561-812.065 561-842q0-5.316 3.074-9.158 3.074-3.842 8-3.842t7.744 3.342q2.818 3.342 3.182 8.658-1 24 6.5 45.5T623-742q19 27 28 50.5t9 52.5q0 4-3 8t-8.182 4Q644-627 641-631t-3-9q-1-27-9.5-47.5T600-735Zm128 0q-22-27-31-52.033-9-25.032-8-54.967 0-5.316 3.151-9.158Q695.302-855 700.34-855q4.66 0 7.478 3.342 2.818 3.342 3.182 8.658-1 24 6.5 45.5T751-742q19 27 28 50.5t9 52.5q0 5.154-3.074 8.577t-8 3.423Q772-627 769-631t-3-9q-.941-26.983-9.471-47.491Q748-708 728-735Z"/></svg>