<svg xmlns="http://www.w3.org/2000/svg" width="48" height="48"><path d="M9.25 26.7q-.25 0-.4-.15-.15-.15-.15-.4v-10.3q0-.25.15-.4.15-.15.4-.15t.4.15q.15.15.15.4v10.3q0 .25-.15.4-.15.15-.4.15zm-5.4 6q-.25 0-.4-.15-.15-.15-.15-.4v-10.3q0-.25.15-.4.15-.15.4-.15t.4.15q.15.15.15.4v10.3q0 .25-.15.4-.15.15-.4.15zm40.3-6q-.25 0-.4-.15-.15-.15-.15-.4v-10.3q0-.25.15-.4.15-.15.4-.15t.4.15q.15.15.15.4v10.3q0 .25-.15.4-.15.15-.4.15zm-5.4 6q-.25 0-.4-.15-.15-.15-.15-.4v-10.3q0-.25.15-.4.15-.15.4-.15t.4.15q.15.15.15.4v10.3q0 .25-.15.4-.15.15-.4.15zM16.8 41.4q-1.1 0-1.9-.8-.8-.8-.8-1.9V9.3q0-1.1.8-1.9.8-.8 1.9-.8h14.4q1.1 0 1.9.8.8.8.8 1.9v29.4q0 1.1-.8 1.9-.8.8-1.9.8zm-1.6-5.35h17.6v-24.1H15.2zm0-25.2h17.6V9.3q0-.7-.45-1.15-.45-.45-1.15-.45H16.8q-.65 0-1.125.45T15.2 9.3zm17.6 26.3H15.2v1.55q0 .7.475 1.15.475.45 1.125.45h14.4q.7 0 1.15-.45.45-.45.45-1.15zM15.2 7.7v3.15V7.7zm0 32.6v-3.15 3.15z"/></svg>