<svg xmlns="http://www.w3.org/2000/svg" width="48" height="48" viewBox="0 -960 960 960"><path d="M207-547q0-120 78.5-200.5T480-828q27 0 53.5 4t51.5 11q3 3 3.5 8t-1.5 9q-3 4-8 4.5t-9-2.5q-21-6-43.5-9.5T480-807q-109 0-180 73.5T229-547q0 77 69.5 183T480-161q113-97 182-203t69-183q0-28-3.5-54t-8.5-50q-2-4-1.5-9t4.5-8q4-2 9.5-1t8.5 5q5 28 9 57t4 60q0 79-61.5 177T508-156q-6 5-13.5 7.5T480-146q-7 0-14-2t-13-7q-29-27-71-70t-81-95q-39-52-66.5-110.5T207-547Zm273 0Zm27-28 190-189q3-4 3-8.5t-3-7.5l6 6q-4-4-10-4t-10 4L496-586q-2 1-2.5 3t-.5 4v-3q0 5 2.5 7.5t6.5 2.5h-2q2 0 3.5-.5t3.5-2.5Zm219-235q3 4 8 4t8-4l13-12q3-4 4.5-8t-.5-7l-1-1q-3-2-7.5-.5T743-834l-10 11q-5 4-5 10t5 10l-7-7Z"/></svg>