<svg xmlns="http://www.w3.org/2000/svg" width="48" height="48" viewBox="0 -960 960 960"><path d="M226-132q-22.775 0-38.387-15.613Q172-163.225 172-186v-514q0-22.775 15.613-38.388Q203.225-754 226-754h88v-72q0-5.6 3.612-9.8 3.613-4.2 9.3-4.2 6.113 0 10.101 4.2Q341-831.6 341-826v72h282v-73.719q0-5.881 3.314-9.081 3.314-3.2 8.3-3.2 5.411 0 8.899 3.425Q647-833.15 647-828v74h87q22.775 0 38.388 15.612Q788-722.775 788-700v200q0 4.725-3.193 7.862-3.193 3.138-8 3.138T769-492.159q-3-3.158-3-7.914V-531H194v345q0 12 10 22t22 10h241q4.725 0 7.862 3.193 3.138 3.193 3.138 8T474.862-135q-3.137 3-7.862 3H226Zm-32-421h572v-147q0-12-10-22t-22-10H226q-12 0-22 10t-10 22v147Zm0 0v-179 179Zm378 394v-41q0-4.565 2-9.283 2-4.717 5.955-8.665l203.059-201.973q5.046-5.042 10.101-6.56 5.056-1.519 9.974-1.519 4.911 0 10.411 2t9.5 6l37 38q4 5 6 10t2 10q0 5-2.5 10t-5.583 10.124L657.972-139.944Q654-136 649.283-134q-4.718 2-9.283 2h-41q-11.725 0-19.362-7.637Q572-147.275 572-159Zm268-203-37-38 37 38ZM600-160h38l144-144-19-19-18-20-145 145v38Zm163-163-18-20 37 39-19-19Z"/></svg>