<svg xmlns="http://www.w3.org/2000/svg" width="48" height="48" viewBox="0 96 960 960"><path d="M266 924q-22.775 0-38.387-15.612Q212 892.775 212 870V282q0-22.775 15.613-38.388Q243.225 228 266 228h297q11.444 0 21.722 4.5T603 244l129 129q7 8 11.5 18.278Q748 401.556 748 413v115h-22V404H599q-11.725 0-19.362-7.638Q572 388.725 572 377V250H266q-12 0-22 10t-10 22v588q0 12 10 22t22 10h188v22H266Zm-32-22V250v652Zm457-218 16 14-157 157v45h45l156-157 16 16-154.181 155.181Q609 918 604.283 920q-4.718 2-8.936 2H542q-5.6 0-9.8-3.7-4.2-3.7-4.2-10.3v-51.347q0-4.218 2-8.936 2-4.717 5.819-8.536L691 684Zm76 75-76-75 44-44q8-8 18.9-8 10.9 0 19.1 8l38 38q8 8.2 8 19.1 0 10.9-8 18.9l-44 43Z"/></svg>