<svg xmlns="http://www.w3.org/2000/svg" width="48" height="48" viewBox="0 -960 960 960"><path d="M480-828q27.625 0 53.812 5Q560-818 584-808l-15 16q-21-7-42.783-11-21.784-4-46.217-4-109 0-180 73.5T229-547q0 77 69.5 183T480-161q113-97 182-203t69-183q0-28-4.5-53T714-648l16-16q11 27 17 56.069 6 29.069 6 60.931 0 79-61.5 177T508-156q-5.642 5-13.094 7.5Q487.453-146 480-146q-7 0-14-2t-13-7q-29-27-71-70t-81-95q-39-52-66.5-110.5T207-547q0-120 78.5-200.5T480-828Zm0 281Zm219.952-230.048L693-784 496-586q-2 1.069-2.5 3.155T493-579v-3q0 5.2 2.4 7.6 2.4 2.4 6.6 2.4h-2q1.759 0 3.345-.5 1.586-.5 3.655-2.5l198-197-5.048-5.048ZM734-802l21-20q3-4 4.5-8t-.5-7l-1-1q-3-2-7.5-.5T743-834l-21 21 12 11Z"/></svg>