<svg xmlns="http://www.w3.org/2000/svg" width="48" height="48" viewBox="0 96 960 960"><path d="M557.08 296q-26.48 0-44.28-18.22-17.8-18.221-17.8-43.7 0-26.48 17.72-44.28 17.721-17.8 44.2-17.8 25.48 0 43.78 17.72 18.3 17.721 18.3 44.2 0 25.48-18.22 43.78-18.221 18.3-43.7 18.3Zm22.209 704q-5.289 0-8.167-3.15-2.877-3.15-2.877-7.85V775q0-6-3-12t-7-11L438 642l-34 150q-.875 5.824-3.688 11.299Q397.5 808.774 393 813L261 976q-3 4-6.826 4.5-3.826.5-7.174-2-4-2.5-5-7.326t2-8.174l130-160q3-4 4.5-8.5t2.5-8.5l12-136q3-46 19.052-117.5T448.208 396L325 449q-9 4-14.5 11.5T305 478v85.571q0 5.379-3.211 8.404-3.21 3.025-8 3.025-4.789 0-7.789-3.15t-3-7.85v-86q0-16.241 9.375-29.535T317 428l100-39q18-8 33.5-16t27.867-11q19.633-2 34.562 6.696Q527.857 377.393 536 392l37 61q26 42 78 76t100 34q21.667 0 36.833 15.167Q803 593.333 803 615v372q0 5.6-3.7 9.3-3.7 3.7-8.3 3.7-5.6 0-9.3-3.7-3.7-3.7-3.7-9.3V615q0-10.6-8.2-18.8-8.2-8.2-18.8-8.2-10.6 0-18.8 8.2-8.2 8.2-8.2 18.8v3q0 5.6-3.7 9.3-3.7 3.7-8.3 3.7-5.6 0-9.3-3.571-3.7-3.572-3.7-9V609q0-8 4-16.5t9-14.5q-53-13-98-48.5T539 440q-16 46-27 105.5T498 642l75 75q8.5 8 12.75 18.333Q590 745.667 590 756v233q0 4.7-3.211 7.85-3.21 3.15-7.5 3.15Z"/></svg>