<svg xmlns="http://www.w3.org/2000/svg" width="48" height="48" viewBox="0 -960 960 960"><path d="M245.91-300q-41.08 0-69.5-27.5Q148-355 145-392h-1q-9.75 0-22.87-7.63Q108-407.25 108-438v-296q0-22.75 15.63-38.38Q139.25-788 162-788h441.81q18.19 0 34.69 5 16.5 5 28.5 20l124 170q7 11 9 23t2 26v56q22 13 36 34.76 14 21.77 14 53.24 0 41-29.5 70.5T752-300q-42 0-68.84-26.94Q656.32-353.88 650-392H348q-4 36-31 64t-71.09 28ZM130-613h195v-153H162q-14 0-23 9t-9 23v121Zm217 203h261v-356H347v153h141q4.75 0 7.88 3.18 3.12 3.17 3.12 8 0 4.82-3.12 7.82-3.13 3-7.88 3H347v181Zm283-161h149L630-772v201ZM302-344.55q23-22.56 23-55.5Q325-433 301.95-456q-23.06-23-56-23-32.95 0-55.45 23.05-22.5 23.06-22.5 56 0 32.95 22.55 55.45 22.56 22.5 55.5 22.5Q279-322 302-344.55Zm505.5 0q22.5-22.56 22.5-55.5Q830-433 807.45-456q-22.56-23-55.5-23Q719-479 696-455.95q-23 23.06-23 56 0 32.95 23.05 55.45 23.06 22.5 56 22.5 32.95 0 55.45-22.55ZM507-68l-147-76q-5-3-3.91-7.5 1.09-4.5 5.91-4.5h101v-43q0-7 6.5-11t13.5-1l147 74q5 3 3.5 8t-6.5 5H527v44q0 7-6.5 11T507-68ZM130-591v153q0 13 3 18.5t15 5.5q2-35 31-61t67-26q22.77 0 45.52 10.5Q314.27-480 325-464v-127H130Zm500 181h21q5-39 39.5-70t89.5-20v-49H630v139ZM130-591h195-195Zm500 42h150-150Z"/></svg>