<svg xmlns="http://www.w3.org/2000/svg" width="48" height="48" viewBox="0 -960 960 960"><path d="M414-461v141q0 5 3 8t8 3q5 0 8-3t3-8v-141l130 75q4 2 7.5 1t5.5-6q3-4 2-8t-5-6l-129-75 129-75q4-2 5-6t-2-9q-2-4-5.5-5t-7.5 1l-130 75v-141q0-5-3-8t-8-3q-5 0-8 3t-3 8v141l-129-75q-5-2-8.5-1t-5.5 5q-3 5-2 9t6 6l128 75-128 75q-5 2-6 6t2 8q2 5 5.5 6t8.5-1l129-75ZM211-212q-23 0-38.5-15.5T157-266v-428q0-23 15.5-38.5T211-748h428q23 0 38.5 15.5T693-694v198l85-85q7-7 16-3t9 14v180q0 10-9 14t-16-3l-85-86v199q0 23-15.5 38.5T639-212H211Z"/></svg>