<svg xmlns="http://www.w3.org/2000/svg" width="48" height="48" viewBox="0 -960 960 960"><path d="M422.07-152q-5.07 0-8.57-3.45T410-164v-212q0-4.333.5-8.667Q411-389 413-393l40-115q5.368-16 19.461-26 14.092-10 31.539-10h224q17.447 0 31.539 10 14.093 10 19.461 26l40 115q2 4 2.5 8.333.5 4.334.5 8.667v212q0 5.1-3.43 8.55-3.43 3.45-8.5 3.45t-8.57-3.45Q798-158.9 798-164v-60H434v60q0 5.1-3.43 8.55-3.43 3.45-8.5 3.45ZM442-408h348l-32-92q-3-10-11-16t-19-6H504q-11 0-19 6t-11 16l-32 92Zm-10 22v140-140Zm66 100q14.45 0 24.225-9.775Q532-305.55 532-320q0-13.025-9.775-23.013Q512.45-353 498-353q-14.45 0-24.225 9.987Q464-333.025 464-319.5q0 13.525 9.775 23.513Q483.55-286 498-286Zm236 0q13.025 0 23.513-9.775Q768-305.55 768-320q0-13.025-10.487-23.013Q747.025-353 733.5-353q-13.525 0-23.513 9.987Q700-333.025 700-319.5q0 13.525 9.775 23.513Q719.55-286 734-286ZM258-468v-54h54v54h-54Zm150-194v-54h54v54h-54ZM258-310v-54h54v54h-54Zm0 158v-54h54v54h-54Zm-120 0v-466q0-10.525 7.125-17.263Q152.25-642 162-642h126v-170q0-9.75 7.125-16.875T312-836h246q9.75 0 16.875 7.125T582-812v168h-22v-170H310v194H160v468h-22Zm294-94h368v-140H432v140Z"/></svg>