<svg xmlns="http://www.w3.org/2000/svg" width="48" height="48" viewBox="0 -960 960 960"><path d="M401-812H157q-4.7 0-7.85-3.211-3.15-3.21-3.15-8 0-4.789 3.15-7.789t7.85-3h244q4.7 0 7.85 3.211 3.15 3.21 3.15 8 0 4.789-3.15 7.789t-7.85 3Zm-133 63H157q-4.7 0-7.85-3.211-3.15-3.21-3.15-8 0-4.789 3.15-7.789t7.85-3h244q4.7 0 7.85 3.211 3.15 3.21 3.15 8 0 4.789-3.15 7.789t-7.85 3H290v188q0 4.275-2.807 7.138-2.807 2.862-8 2.862T271-554.025q-3-3.025-3-7.975v-187Zm288 609q-3 3-8 3.5t-8-3.5q-4-4-4-8t4-8l260-261q3-3 7.5-3t8.5 3q4 4 4 8.5t-4 8.5L556-140Zm25.233-202q-15.633 0-26.933-10.567-11.3-10.568-11.3-27.2 0-15.633 11.067-26.933 11.068-11.3 26.7-11.3 16.633 0 27.433 11.067 10.8 11.068 10.8 26.7 0 16.633-10.567 27.433-10.568 10.8-27.2 10.8Zm201 203q-16.633 0-27.433-11.067-10.8-11.068-10.8-27.7 0-15.633 10.567-26.933 10.568-11.3 27.2-11.3 15.633 0 26.933 11.067 11.3 11.068 11.3 26.7 0 16.633-11.067 27.933-11.068 11.3-26.7 11.3ZM626-546q-29 0-48-19.5T559-613q0-29 19-47.5t48-18.5q13.161 0 23.581 3.5Q660-672 669-664v-179q0-5.275 2.862-8.138Q674.725-854 680-854h123q5.275 0 8.138 2.807 2.862 2.807 2.862 8 0 4.193-2.862 7.693-2.863 3.5-8.138 3.5H693v219q0 29-18.5 48T626-546ZM214.246-105Q185-105 163.5-125.926 142-146.853 142-177q0-14.073 7-28.258 7-14.184 18-24.742l63-61-33-35q-11-11-16.5-25t-5.5-27.754Q175-409 195.83-429q20.83-20 50.17-20 31 0 51.5 19.5t20.5 50.09q0 14.41-5 28.41t-16 25l-34 35 70 71 50-50q3-3 7.5-3.5t8.109 3.5q3.391 4 3.391 8t-4 8l-49 49 47 46q2 2.822 2.5 7.411.5 4.589-2.554 8.589-4.053 3-8 3-3.946 0-7.946-3l-48-48-63 62q-11.827 12-25.913 18-14.087 6-28.841 6ZM246-306l36.059-36.059Q290-350 293-357.7q3-7.7 3-19.2 0-23.1-14.8-36.6T246-427q-18 0-33.5 13.675T197-377q0 12 3.5 20t11.324 15L246-306Zm-31.182 179q9.182 0 19.682-4 10.5-4 18.5-12l63-63-70-69-63 62q-8 7.636-13.5 16.818Q164-187 164-178q0 20 15.5 35.5t35.318 15.5Z"/></svg>