<svg xmlns="http://www.w3.org/2000/svg" width="48" height="48" viewBox="0 0 48 48"><path d="M15.15 41.4q-.25 0-.4-.15-.15-.15-.15-.4V34.2q-2.85-2.6-4.425-5.775Q8.6 25.25 8.6 21.95q0-6.4 4.5-10.875T24 6.6q5.15 0 9.375 3.175t5.475 8.175l1.95 7.8q.15.65-.225 1.15-.375.5-1.075.5h-4.1v7.3q0 1.05-.8 1.875t-1.9.825h-5.3v3.45q0 .25-.15.4-.15.15-.4.15H21l1.1-10.85H28q.25 0 .4-.15.15-.15.15-.4t-.15-.4q-.15-.15-.4-.15h-5.75l.6-5.75q.1-1.35 1.075-2.25.975-.9 2.325-.9h5.95q.25 0 .4-.15.15-.15.15-.4t-.15-.4q-.15-.15-.4-.15h-5.9q-1.8 0-3.075 1.175Q21.95 21.8 21.75 23.55L19.9 41.4Z"/></svg>