<svg xmlns="http://www.w3.org/2000/svg" width="48" height="48" viewBox="0 -960 960 960"><path d="M234-532h249v-202q0-12-10-22t-22-10H266q-12 0-22 10t-10 22v202Zm0 338h249v-316H234v316Zm249 0H234h249Zm-4.602 22H238.581q-11.306 0-18.944-7.762Q212-187.525 212-199v-535q0-22.775 15.613-38.388Q243.225-788 266-788h185q22.775 0 38.388 15.612Q505-756.775 505-734v230h40q22.371 0 38.186 16.214Q599-471.571 599-450v195q0 24 19.333 40.5 19.334 16.5 45.896 16.5Q691-198 711-214.5t20-40.5v-354h-17q-11.475 0-19.237-7.763Q687-624.525 687-636v-48.5q0-5 4.2-8.75T701-697h1v-25.167q0-4.433 3.771-8.133 3.772-3.7 8.8-3.7 5.029 0 8.729 3.6 3.7 3.6 3.7 8.4v25h32v-25.167q0-4.433 3.771-8.133 3.772-3.7 8.8-3.7 5.029 0 8.729 3.6 3.7 3.6 3.7 8.4v25h2q5.2 0 9.1 3.75 3.9 3.75 3.9 8.75v48.5q0 11.475-7.763 19.237Q783.475-609 772-609h-16v353.597Q756-220 728.74-196t-64.718 24q-36.606 0-63.314-24T574-255v-195q0-12.5-8.25-20.75T545-479h-40v280q0 11.475-8.136 19.238Q488.729-172 478.398-172ZM347-250l59-114h-35v-91l-59 114h35v91Z"/></svg>