<svg xmlns="http://www.w3.org/2000/svg" width="48" height="48" viewBox="0 -960 960 960"><path d="M549-254q-6.824 0-11.412-4.588Q533-263.176 533-270q0-6.087 3-12.543Q539-289 542-293l161-165q36-37 53-62.808 17-25.807 17-57.192 0-49-31-77.5T661-684q-34 0-60.5 13.5T558-632q-2 3-6 4t-7.156-.308Q539-631 538-636t2-10q21-29 50.5-44.5t70.064-15.5Q721-706 757.5-669.5 794-633 794-578q0 35.302-18 65.151Q758-483 721-444L558-278v2h248q4.95 0 7.975 3.035 3.025 3.035 3.025 8T813.975-257q-3.025 3-7.975 3H549ZM154-435q-4.95 0-7.975-3.035-3.025-3.035-3.025-8t3.025-7.965q3.025-3 7.975-3h206q4.95 0 7.975 3.035 3.025 3.035 3.025 8T367.975-438q-3.025 3-7.975 3H154Z"/></svg>