<svg xmlns="http://www.w3.org/2000/svg" width="48" height="48" viewBox="0 96 960 960"><path d="M770 797v69q0 5.6 4 9.3 4 3.7 9.143 3.7 5.143 0 8.5-3.7T795 866v-99q0-5.2-3.9-9.1-3.9-3.9-9.1-3.9h-99q-5 0-9 3.4t-4 8.6q0 5.6 4 9.3 4 3.7 9 3.7h70l-91 90q-3 4.364-3.5 9.182Q658 883 662 887q3 3 9 3t8.654-2.654L770 797Zm-544 87q-21.75 0-37.875-16.125T172 830V322q0-21.75 16.125-37.875T226 268h508q21.75 0 37.875 16.125T788 322v247q-6-1-11.5-2t-10.5-3V322q0-12-10-22t-22-10H226q-12 0-22 10t-10 22v508q0 12 10 22t22 10h242q1 6 1.523 11.672.522 5.673 2.477 10.328H226Zm-32-64v42-572 274-3 259Zm112-92.807q0 4.807 3.138 7.807 3.137 3 7.862 3h159.595q3.405-5 5.905-10.5Q485 722 488 716H317q-4.725 0-7.862 3.193-3.138 3.193-3.138 8Zm0-151q0 4.807 3.138 7.807 3.137 3 7.862 3h288q10-2 15.5-4t11.5-6v-3q0-4-3.5-6.5T621 565H317q-4.725 0-7.862 3.193-3.138 3.193-3.138 8Zm0-151q0 4.807 3.138 7.807 3.137 3 7.862 3h326q4.725 0 7.862-3.193 3.138-3.193 3.138-8T650.862 417q-3.137-3-7.862-3H317q-4.725 0-7.862 3.193-3.138 3.193-3.138 8ZM723.981 970q-60.02 0-102-42.687Q580 884.625 580 825.813q0-61.248 41.971-103.031Q663.941 681 724.481 681 784 681 826 722.782q42 41.783 42 103.031 0 58.812-42 101.5Q784 970 723.981 970Z"/></svg>