<svg xmlns="http://www.w3.org/2000/svg" width="48" height="48" viewBox="0 -960 960 960"><path d="m754-310-22-22v-46l23-6q23-5 37.5-27.5T807-462q0-30.6-14.64-52.97Q777.71-537.33 755-542l-23-6v-166q0-11-6.5-17.5T709-738H549l-2-19q-5-34-28.67-58-23.68-24-54.91-24-33.63 0-57.03 24Q383-791 379-757l-3 19h-50l-22-22h52.76q5.87-41.88 35.31-71.44Q421.5-861 463.14-861q39.86 0 69.98 29.39Q563.23-802.22 569-760h137q20.51 0 34.26 13.76Q754-732.47 754-711v145q34.1 8.84 54.55 36.92Q829-501 829-462q0 37-20.45 64.3-20.45 27.3-54.55 39.18V-310Zm-2 122 22 22H220q-18.55 0-33.27-15.23Q172-196.45 172-216v-102q0-7 4-11.5t10-5.5q43-10 70.5-44.3t27.5-82.44q0-44.29-27.5-80.28Q229-578 187-590q-7-2-11-6.5t-4-10.5v-163l22 22v141q45 11 78.5 52.04t33.5 93.57Q306-410 273-368t-79 49v107q0 10 6.5 17t16.5 7h535ZM566-498Zm-101 35Zm371.95 355q-4.46 4-8.7 4-4.25 0-7.25-4L108-821q-3-3.2-3.5-7.6-.5-4.4 3.55-8.4 3.06-3 7.3-3 4.25 0 8.65 3l713 713q2 3.45 2.5 8.23.5 4.77-2.55 7.77Z"/></svg>