<svg xmlns="http://www.w3.org/2000/svg" width="48" height="48" viewBox="0 -960 960 960"><path d="M842-117 721-237q-50 49-111 77t-140 28q-72 0-135.5-27T224-233.5q-47-47.5-74.5-111T122-480q0-77 29.5-141T228-730L107-852q-3-3-3.5-7t3.5-8q4-4 8-4t8 4l735 735q3 3 3 7.5t-4 8q-4 3.5-8 3.5t-7-4Zm-24-363q0 44-9.5 85.5T787-334q-2 2-4 3t-4 1.5q-2 .5-3.5.5t-3.5-2q-4-2-5.5-7t1.5-8q10-21 19-57t9-77q0-25-3-47.5T782-572q-21 5-42.5 7.5T695-562q-64 0-123-18.5T461-634L343-753q-12-12-9.5-29t18.5-24q26-11 54.5-16.5T470-828q72 0 135.5 27.5t111 74.5Q764-679 791-615.5T818-480Zm-506 77q-15-15-15-36.5t15-36q15-14.5 36.5-14.5t36.5 14.5q15 14.5 15 36T385-403q-15 15-36.5 15T312-403Zm158 249q71 0 133.5-28.5T705-253L331-627q-32 46-85 85t-102 56v6q0 135 95.5 230.5T470-154Z"/></svg>