<svg xmlns="http://www.w3.org/2000/svg" width="48" height="48" viewBox="0 -960 960 960"><path d="M186-132q-21.75 0-37.875-16.125T132-186v-304q0-16.5 8.5-30.25T164-540l109-46q12-5 23.5 2t11.5 20v41l166-67q12-5 23 2.567 11 7.566 11 20.433v59h320v322q0 21.75-16.125 37.875T774-132H186Zm620-353.94H486V-571l-200 80v-78l-113 50q-9 4-14 11.5t-5 17.5v304q0 14 9 23t23 9h588q14 0 23-9t9-23v-299.94ZM480.193-264q9.807 0 17.307-7.638Q505-279.275 505-289v-62q0-9.725-7.193-17.362-7.193-7.638-18-7.638-9.807 0-17.307 7.638Q455-360.725 455-351v62q0 9.725 7.193 17.362 7.193 7.638 18 7.638Zm-160 0q9.807 0 17.307-7.638Q345-279.275 345-289v-62q0-9.725-7.193-17.362-7.193-7.638-18-7.638-9.807 0-17.307 7.638Q295-360.725 295-351v62q0 9.725 7.193 17.362 7.193 7.638 18 7.638Zm320 0q9.807 0 17.307-7.638Q665-279.275 665-289v-62q0-9.725-7.193-17.362-7.193-7.638-18-7.638-9.807 0-17.307 7.638Q615-360.725 615-351v62q0 9.725 7.193 17.362 7.193 7.638 18 7.638ZM828-508h-96l38-271q1-4 4.527-6.5T783-788q4.946 0 8.473 2.5Q795-783 796-779l32 271Zm-54 354H154h652-32Z"/></svg>