<svg xmlns="http://www.w3.org/2000/svg" width="48" height="48" viewBox="0 96 960 960"><path d="M186 924q-21.75 0-37.875-16.125T132 870V566q0-16.375 8.5-30.188Q149 522 164 516l107-45q13-5 25 2t12 21v39l164-66q13-5 24.5 3.067Q508 478.133 508 492v56h320v322q0 21.75-16.125 37.875T774 924H186Zm639-398h-90l35-249q1-4 4.527-6.5T783 268q4.946 0 8.473 2.5Q795 273 796 277l29 249ZM480.175 792q9.825 0 17.325-7.625T505 767v-62q0-9.75-7.175-17.375-7.176-7.625-18-7.625-9.825 0-17.325 7.625T455 705v62q0 9.75 7.175 17.375 7.176 7.625 18 7.625Zm-160 0q9.825 0 17.325-7.625T345 767v-62q0-9.75-7.175-17.375-7.176-7.625-18-7.625-9.825 0-17.325 7.625T295 705v62q0 9.75 7.175 17.375 7.176 7.625 18 7.625Zm320 0q9.825 0 17.325-7.625T665 767v-62q0-9.75-7.175-17.375-7.176-7.625-18-7.625-9.825 0-17.325 7.625T615 705v62q0 9.75 7.175 17.375 7.176 7.625 18 7.625Z"/></svg>