<svg xmlns="http://www.w3.org/2000/svg" width="48" height="48" viewBox="0 96 960 960"><path d="M480.159 844Q369 844 290.5 766.159q-78.5-77.842-78.5-190Q212 464 290.341 386q78.342-78 190-78Q592 308 670 385.841q78 77.842 78 190Q748 688 670.159 766q-77.842 78-190 78Zm.841-22q102 0 173.5-71.75T726 576q0-18.515-3-37.015T714 503q-22 4-38.75 6t-32 2Q575 511 513 478.5T407 390q-24 61-68.5 107T234 565q-1 106 71.346 181.5T481 822Zm-87.807-182q-15.807 0-26.5-10.693T356 602.807Q356 587 366.693 575.5q10.693-11.5 26.5-11.5t27.307 11.5Q432 587 432 602.807q0 15.807-11.5 26.5T393.193 640Zm174 0q-15.807 0-26.5-10.693T530 602.807Q530 587 540.693 575.5q10.693-11.5 26.5-11.5t27.307 11.5Q606 587 606 602.807q0 15.807-11.5 26.5T567.193 640ZM227 210h-81q-12 0-22 10t-10 22v81q0 4.675-3.228 7.838-3.228 3.162-8 3.162T95 330.838q-3-3.163-3-7.838v-81q0-22.775 15.613-38.388Q123.225 188 146 188h81q4.675 0 7.837 3.228 3.163 3.228 3.163 8T234.837 207q-3.162 3-7.837 3Zm-81 754q-22.775 0-38.387-15.612Q92 932.775 92 910v-81q0-4.675 3.228-7.838 3.228-3.162 8-3.162t7.772 3.162q3 3.163 3 7.838v81q0 12 10 22t22 10h81q4.675 0 7.837 3.228 3.163 3.228 3.163 8T234.837 961q-3.162 3-7.837 3h-81Zm668 0h-81q-4.675 0-7.838-3.228-3.162-3.228-3.162-8t3.162-7.772q3.163-3 7.838-3h81q12 0 22-10t10-22v-81q0-4.675 3.228-7.838 3.228-3.162 8-3.162t7.772 3.162q3 3.163 3 7.838v81q0 22.775-15.612 38.388Q836.775 964 814 964Zm-81-754q-4.675 0-7.838-3.228-3.162-3.228-3.162-8t3.162-7.772q3.163-3 7.838-3h81q22.775 0 38.388 15.612Q868 219.225 868 242v81q0 4.675-3.228 7.838-3.228 3.162-8 3.162T849 330.838q-3-3.163-3-7.838v-81q0-12-10-22t-22-10h-81Z"/></svg>