<svg xmlns="http://www.w3.org/2000/svg" width="48" height="48" viewBox="0 96 960 960"><path d="M170.5 681q5.5 0 9.5-4t4-10V506l108 166q2 4 6.826 6.5t11.016 2.5q7.202 0 11.68-5.083Q326 670.833 326 664V484q0-4.88-3.5-8.94t-9-4.06q-5.5 0-9.5 4.06t-4 8.94v162L195 481q-4.179-4-8.946-7-4.768-3-10.816-3-6.8 0-12.519 5.719T157 489v179q0 4.88 4 8.94t9.5 4.06Zm239.5 0h100q4.88 0 8.94-4t4.06-9.5q0-5.5-4.06-9.5t-8.94-4h-89v-63h89q4.88 0 8.94-3.5T523 578q0-6-4.06-9.5T510 565h-89v-67h88q6 0 10-3.977 4-3.976 4-9.94 0-5.523-4-9.303-4-3.78-10-3.78h-99q-6.2 0-10.1 4.2-3.9 4.2-3.9 10.8v180q0 6.6 3.9 10.8 3.9 4.2 10.1 4.2Zm208 0h163q10.15 0 16.075-5.925Q803 669.15 803 659V484q0-4.88-3.5-8.94t-9-4.06q-5.5 0-9.5 4.06t-4 8.94v172h-65V524q0-4.88-3.5-8.94T699 511q-6 0-9.5 4.06T686 524v132h-63V484q0-4.88-4.06-8.94T610 471q-6 0-10 4.06t-4 8.94v175q0 10.15 5.925 16.075Q607.85 681 618 681ZM146 844q-22.775 0-38.387-15.612Q92 812.775 92 790V362q0-22.775 15.613-38.388Q123.225 308 146 308h668q22.75 0 38.375 15.612Q868 339.225 868 362v428q0 22.775-15.625 38.388Q836.75 844 814 844H146Zm0-22q-14 0-23-9t-9-23V362q0-14 9-23t23-9q-14 0-23 9t-9 23v428q0 14 9 23t23 9Zm0 0h668q14 0 23-9t9-23V362q0-14-9-23t-23-9H146q-14 0-23 9t-9 23v428q0 14 9 23t23 9Z"/></svg>