<svg xmlns="http://www.w3.org/2000/svg" width="48" height="48" viewBox="0 -960 960 960"><path d="M243-462h96q20 0 33.5-13.5T386-509v-29q0-19.03-13.5-33.01Q359-585 339-585H231q-5.2 0-9.1 4.2-3.9 4.2-3.9 9.8v183q0 5.73 3.49 9.37 3.49 3.63 9 3.63t9.01-3.63q3.5-3.64 3.5-9.37v-74Zm215.29-119.37Q455-577.73 455-572v184q0 5.73 3.29 9.37 3.29 3.63 8.5 3.63t9.21-3.63q4-3.64 4-9.37v-184q0-5.73-4-9.37-4-3.63-9.21-3.63-5.21 0-8.5 3.63ZM596-549l112 167q2 3 5 5t7 2h7q6 0 10.5-4.5T742-390v-182q0-4.88-4-8.94t-9.5-4.06q-5.5 0-9.5 4.06t-4 8.94v158L605-578q-2-3-5.5-5t-7.12-2h-7.24q-6.14 0-10.64 4.56-4.5 4.56-4.5 10.44v182q0 4.88 4 8.94t9.5 4.06q5.5 0 9-4t3.5-10v-160Zm-353 62v-73h102q6 0 11 5t5 11v41q0 6-5 11t-11 5H243Zm-57 275q-22.77 0-38.39-15.61Q132-243.23 132-266v-428q0-22.78 15.61-38.39Q163.23-748 186-748h588q22.78 0 38.39 15.61T828-694v428q0 22.77-15.61 38.39Q796.78-212 774-212H186Z"/></svg>