<svg xmlns="http://www.w3.org/2000/svg" width="48" height="48" viewBox="0 -960 960 960"><path d="m793-136-77-76H266q-23 0-38.5-15.5T212-266v-84q0-4.75 3.175-7.875 3.176-3.125 8-3.125 4.825 0 7.825 3.125t3 7.875v84q0 12 10 22t22 10h428L534-394l-35 35q-4 5-8.5 7.5T479-349q-5.957 0-8.978-2-3.022-2-8.257-7.235L367-452q-4-4-3.5-9t5.5-9q6-6 14-6.5t15 4.5l79 78v-58L136-793q-4-4-4-8.026 0-4.027 4.053-7.869 3.298-3.105 7.622-3.105 4.325 0 8.325 3l657 657q3 4.311 3 8.656 0 4.344-3.298 7.474-4.053 3.87-8.377 3.87-4.325 0-7.325-4Zm-45-180-24-24v-9q0-7 4.154-10.5T737-363q4.75 0 7.875 3.125T748-352v36ZM588-458l-16-16 9-9q2-2 5.5-1.5t7.5 4.5q4 4 4.5 8.222.5 4.222-1.5 4.778l-9 9Zm-97-115-22-22v-142q0-4.75 3.175-7.875 3.176-3.125 8-3.125 4.825 0 7.825 3.125t3 7.875v164Z"/></svg>