<svg xmlns="http://www.w3.org/2000/svg" width="48" height="48" viewBox="0 96 960 960"><path d="M447 677h120q22 0 38-15.612 16-15.613 16-38.388v-78q0-22.775-16-38.388Q589 491 567 491H458V349h153q3.051 0 6.526-3 3.474-3 3.474-8t-3.625-8q-3.625-3-7.375-3H447q-4.725 0-7.862 3.138Q436 333.275 436 338v164q0 4.725 3.138 7.862Q442.275 513 447 513h120q13 0 22.5 9t9.5 23v78q0 13-9.5 22.5T567 655H446q-4 0-7 3t-3 8q0 5 3.138 8 3.137 3 7.862 3Zm-139 99q-22.775 0-38.388-15.612Q254 744.775 254 722V282q0-22.775 15.612-38.388Q285.225 228 308 228h440q22.775 0 38.388 15.612Q802 259.225 802 282v440q0 22.775-15.612 38.388Q770.775 776 748 776H308Zm0-22h440q14 0 23-9t9-23V282q0-14-9-23t-23-9H308q-14 0-23 9t-9 23v440q0 14 9 23t23 9Zm-96 118q-22.775 0-38.387-15.612Q158 840.775 158 818V366q0-4 3-7t8-3q5 0 8 3.138 3 3.137 3 7.862v451q0 14 9 23t23 9h452q4 0 7 3t3 8q0 5-3.138 8-3.137 3-7.862 3H212Zm64-622v504-504Z"/></svg>