<svg xmlns="http://www.w3.org/2000/svg" width="48" height="48" viewBox="0 -960 960 960"><path d="M129-584q-2.5-2-2.75-6t1.75-7q62-84 154.085-131Q374.171-775 479-775q105.279 0 199.139 45.5Q772-684 835-599q3 5 1.5 9t-5.5 7q-3 2-7.955 1.611-4.954-.389-8.045-5.611-58-81-146.961-123.5Q579.078-753 479-753q-99 0-186.5 43.5T147-587q-5 6-9.5 6t-8.5-3ZM595-86q-99-26-164.5-102.049Q365-264.097 365-373q0-47 34-78.5t82.069-31.5q47.069 0 80.5 31.5T595-373q0 37.538 28.195 62.269t65.5 24.731Q727-286 754-311q27-25 27-62 0-120.54-88.803-202.77t-213-82.23Q355-658 266.5-575.974 178-493.949 178-373q0 24.5 6.5 61.75T207-225q2 5 .5 8t-6.5 6q-5 2-9 .433-4-1.566-6-6.433-15-42-22.5-79.5T156-373q0-129.875 95.538-218.938Q347.076-681 479.045-681 612-681 708-591.938 804-502.875 804-373q0 45.863-33.754 77.932Q736.492-263 689-263q-47 0-81.5-32.068Q573-327.137 573-373q0-37-26.976-62.5T481-461q-38.867 0-66.434 25.231Q387-410.538 387-373q0 101.991 61 169.996Q509-135 601-108q5.545 2.062 7.773 5.375Q611-99.312 610-94.812 608-90 604.5-87t-9.5 1ZM249-793q-2 0-6-1t-5-4q-1-3-1-7.5t3-6.5q55-31 116.5-46.5T481-874q62.683 0 122.928 15T720-814q6 3 7.5 7.5t-.5 8.5q-2 3-6 5t-8 0q-53-31-111.974-45-58.974-14-120.513-14Q420-852 362-836.5 304-821 249-793ZM382-97q-56-60-88-125.5t-32-150.534Q262-461 326.547-521.5q64.547-60.5 154.5-60.5T635.5-521.5Q700-461 700-373q0 5.3-2.85 8.15Q694.3-362 689-362q-3 0-7-2.85t-4-8.15q0-79-57.977-133t-139-54Q400-560 342-506t-58 132.923Q284-289 313.5-231T398-113.19q5 5.19 3.5 9.69Q400-99 398-97q-3 3-7.5 3.5T382-97Zm299-72q-86 0-149.5-58.078T468-373q0-4.6 2.793-7.8t8-3.2q5.207 0 8.207 3.2 3 3.2 3 7.8 0 80.07 57 131.035T681-191q11 0 22.5-1t22.5-3q3 0 6 1.5t4 6.707q2 4.517-1 7.655T727-175q-9 3-21.5 4.5T681-169Z"/></svg>