<svg xmlns="http://www.w3.org/2000/svg" width="48" height="48" viewBox="0 96 960 960"><path d="M348.953 800Q355 800 359 796.033q4-3.966 4-9.033V600h127l33 64q3 7 9.597 11.5Q539.194 680 546 680h131q11.75 0 19.375-7.625T704 653V499q0-11.75-7.625-19.375T677 472h-87l-33-65q-3-6-9.597-10.5Q540.806 392 534 392H363q-11.75 0-19.375 7.625T336 419v368q0 5.067 3.953 9.033 3.954 3.967 9 3.967ZM547 653l-40-80H363V418h170l40 80h105v155H547Zm-66.826 271Q408 924 344.442 897.109q-63.559-26.892-111.075-74.348-47.515-47.457-74.441-110.935Q132 648.348 132 576.174q0-72.174 26.891-135.732 26.892-63.559 74.348-111.074 47.457-47.516 110.935-74.442Q407.652 228 479.826 228q72.174 0 135.732 26.891 63.559 26.892 111.074 74.348 47.516 47.457 74.442 110.935Q828 503.652 828 575.826q0 72.174-26.891 135.732-26.892 63.559-74.348 111.075-47.457 47.515-110.935 74.441Q552.348 924 480.174 924ZM480 902q136 0 231-95t95-231q0-136-95-231t-231-95q-136 0-231 95t-95 231q0 136 95 231t231 95Zm0-326Z"/></svg>