<svg xmlns="http://www.w3.org/2000/svg" width="48" height="48" viewBox="0 96 960 960"><path d="M520 937q-21.763 0-36.381-14.619Q469 907.763 469 886v-83q-91-4-154-69.5T252 576V242q0-21.5 16.25-37.75T306 188h348q21.5 0 37.75 16.25T708 242v334q0 92-63 157.5T491 803v80q0 14 9 23t23 9h180q4.675 0 7.838 3.228 3.162 3.228 3.162 8T710.838 934q-3.163 3-7.838 3H520Zm33-292h121.094Q680 628 683 611q3-17 3-35v-69H557q-4.675 0-7.838-3.228-3.162-3.228-3.162-8t3.162-7.772q3.163-3 7.838-3h129V347H517q-4.675 0-7.837-3.228-3.163-3.228-3.163-8t3.163-7.772q3.162-3 7.837-3h169v-83q0-14-9-23t-23-9H306q-14 0-23 9t-9 23v323h110q26.978 0 49.989 10.5Q457 586 474 606q16 19 36.525 29T553 645Zm-73 137q61 0 110.5-32t75.5-83H553q-25.902 0-48.951-10.5T464 626q-16-19-37.025-29T384 587H273q5 82 64.5 138.5T480 782Zm-5-168Z"/></svg>