<svg xmlns="http://www.w3.org/2000/svg" width="48" height="48" viewBox="0 -960 960 960"><path d="M154-234v-492 262-31 261Zm32 22q-22.77 0-38.39-15.5Q132-243 132-266v-428q0-23 15.61-38.5Q163.23-748 186-748h177q11.44 0 21.22 4.5t17.87 11.59L459-674h315q23 0 38.5 15.5T828-620v153q0 4.72-3.19 7.86-3.2 3.14-8 3.14-4.81 0-7.81-3.14t-3-7.86v-153q0-14-9-23t-23-9H473q-11.44 0-21.22-4.5t-17.87-12.59L386-717q-5-5-10.5-7t-11.5-2H186q-14 0-23 9t-9 23v428q0 14 9 23t23 9h250q4.73 0 7.86 3.19 3.14 3.2 3.14 8 0 4.81-3.14 7.81-3.13 3-7.86 3H186Zm472 3-54-54q-3-3-7.5-3.5t-8 3q-3.5 3.5-3.5 7.41t3 8.09l51 51q8.18 8 19.09 8t18.91-8l106-106q3-2.82 3-7.41t-3.5-8.09q-3.5-3.5-7.41-3.94-3.91-.45-8.09 3.44L658-209Zm131.5-149.5Q832-316 832-254.5t-42.5 104Q747-108 685.5-108t-104-42.5Q539-193 539-254.5t42.5-104Q624-401 685.5-401t104 42.5Z"/></svg>