<svg xmlns="http://www.w3.org/2000/svg" width="48" height="48" viewBox="0 -960 960 960"><path d="M186-212q-22.775 0-38.387-15.5Q132-243 132-266v-428q0-23 15.613-38.5Q163.225-748 186-748h177q11.444 0 21.222 4.5t17.866 11.588L459-674h315q23 0 38.5 15.5T828-620v354q0 23-15.5 38.5T774-212H186Zm0-22h588q14 0 23-9t9-23v-354q0-14-9-23t-23-9H451l-65-65q-5-5-10.5-7t-11.5-2H186q-14 0-23 9t-9 23v428q0 14 9 23t23 9Zm-32 0v-492 492Zm441.5-143 52.5 39q4 3 7.5.567 3.5-2.434 2.5-7.567l-19-65 55.067-47.164q2.933-1.447 1.433-6.142Q694-468 689-468h-65l-22-63q-1-5-6-5t-6 5l-22 63h-66q-5 0-6.5 4.694-1.5 4.695 2.5 6.306l55 47-20 65q-1 5 2.5 7.5t7.5-.5l52.5-39Z"/></svg>