<svg xmlns="http://www.w3.org/2000/svg" width="48" height="48" viewBox="0 -960 960 960"><path d="M602-467.5q62-7.5 120-23.5 14-4 26 5t12 24v252q0 8-4.5 14t-11.5 8q-64 24-131.5 36T480-140q-65 0-132.5-12T216-188q-7-2-11.5-8t-4.5-14v-252q0-15 12-24t26-5q58 16 120 23.5t122 7.5q60 0 122-7.5ZM738-209v-264q-48 14-123 24.5T480-438q-60 0-135-10.5T222-473v264q44 19 120.5 33T480-162q61 0 137.5-14T738-209ZM563.5-785.5q34.5 34.5 34.5 84T563.5-618Q529-584 480-584t-83.5-34Q362-652 362-701.5t34.5-84Q431-820 480-820t83.5 34.5ZM548-634q28-28 28-68t-28-68q-28-28-68-28t-68 28q-28 28-28 68t28 68q28 28 68 28t68-28Zm-68-73Zm0 389Z"/></svg>