<svg xmlns="http://www.w3.org/2000/svg" width="48" height="48" viewBox="0 -960 960 960"><path d="M729-135.15q-3-3.15-3-7.85v-109H617q-4.7 0-7.85-3.21-3.15-3.21-3.15-8t3.15-7.79q3.15-3 7.85-3h109v-109q0-4.7 3.21-7.85 3.21-3.15 8-3.15t7.79 3.15q3 3.15 3 7.85v109h109q4.7 0 7.85 3.21 3.15 3.21 3.15 8t-3.15 7.79q-3.15 3-7.85 3H748v109q0 4.7-3.21 7.85-3.21 3.15-8 3.15t-7.79-3.15ZM276-192q-42.84 0-73.42-29.54Q172-251.07 172-295q0-30 15-54.5t39-37.5q-25-14-39.5-38.5T172-479.86q0-28.86 15-53.5T226-571q-24-13-39-37.5T172-663q0-42.12 30-73.56Q232-768 276-768q30 0 55 15.5t38 40.5q13-25 37.5-40.5T462-768h222q43 0 73.5 30.5T788-664q0 30-15.5 54.5T732-571q29 16 44 43.5t11 59.5q-4.95-1-11.01-2-6.05-1-10.99-2 3-35.38-20.75-62.19Q720.5-561 684-561H462q-34.92 0-58.46 23.52Q380-513.95 380-480.06q0 34.48 23.54 58.27Q427.08-398 462-398h115q-4.58 5.82-8.79 10.91Q564-382 559-376h-97q-34.92 0-58.46 23.35-23.54 23.36-23.54 58Q380-262 403.54-238T462-214h67.97q1.63 5.75 3.13 11.25T537-192h-75q-31 0-55.5-15T369-247q-14 25-38.59 40-24.6 15-54.41 15Zm0-22q34.92 0 58.46-23.44t23.54-57.5q0-34.48-23.54-57.77Q310.92-376 276-376q-34.5 0-58.25 23.23Q194-329.53 194-295.06q0 34.06 23.75 57.56T276-214Zm0-183q34.92 0 58.46-23.83Q358-444.67 358-480q0-33.08-23.54-57.04T276-561q-34.5 0-58.25 23.96T194-480q0 35.33 23.75 59.17Q241.5-397 276-397Zm0-185q34.92 0 58.46-24.04T358-663q0-34.92-23.54-58.96T276-746q-34.5 0-58.25 24.04T194-662.5q0 32.58 23.75 56.54T276-582Zm186-1h222q34.92 0 58.46-23.73Q766-630.47 766-663.94q0-34.48-23.54-58.27Q718.92-746 684-746H462q-34.92 0-58.46 23.54T380-664q0 33.5 23.54 57.25T462-583Zm-84 196Zm0-184Z"/></svg>