<svg xmlns="http://www.w3.org/2000/svg" width="48" height="48" viewBox="0 -960 960 960"><path d="M183-172q-4.675 0-7.837-3.228-3.163-3.228-3.163-8t3.163-7.772q3.162-3 7.837-3h594q4.675 0 7.838 3.228 3.162 3.228 3.162 8T784.838-175q-3.163 3-7.838 3H183Zm320-149q-4.675 0-7.838-3.223-3.162-3.223-3.162-7.988 0-3.789 3.162-7.289 3.163-3.5 7.838-3.5h274q4.675 0 7.838 3.711 3.162 3.71 3.162 8 0 4.289-3.162 7.289-3.163 3-7.838 3H503Zm0-148q-4.675 0-7.838-3.228-3.162-3.228-3.162-8t3.162-7.772q3.163-3 7.838-3h274q4.675 0 7.838 3.228 3.162 3.228 3.162 8T784.838-472q-3.163 3-7.838 3H503Zm0-149q-4.675 0-7.838-3.223-3.162-3.223-3.162-7.988 0-3.789 3.162-7.289 3.163-3.5 7.838-3.5h274q4.675 0 7.838 3.711 3.162 3.71 3.162 8 0 4.289-3.162 7.289-3.163 3-7.838 3H503ZM183-766q-4.675 0-7.837-3.228-3.163-3.228-3.163-8t3.163-7.772q3.162-3 7.837-3h594q4.675 0 7.838 3.228 3.162 3.228 3.162 8T784.838-769q-3.163 3-7.838 3H183Zm58 354-58.695-58.695Q178-474.273 178-480.636q0-6.364 4.254-10.771L241-548q6-6 14.5-3.083Q264-548.167 264-540v119q0 8.75-8.5 11.875T241-412Z"/></svg>