<svg xmlns="http://www.w3.org/2000/svg" width="48" height="48" viewBox="0 0 48 48"><path d="M36.25 41.5q.25 0 .425-.225t.175-.425v-4.5h4.55q.25 0 .425-.225T42 35.65q0-.25-.175-.425t-.425-.175h-4.55v-4.5q0-.3-.175-.475t-.425-.175q-.25 0-.475.175-.225.175-.225.475v4.5h-4.5q-.25 0-.45.175t-.2.475q0 .2.2.425.2.225.5.225h4.45v4.5q0 .3.2.475t.5.175Zm-.05 1.4q-3 0-5.1-2.1-2.1-2.1-2.1-5.1 0-3.05 2.1-5.15 2.1-2.1 5.1-2.1 3 0 5.1 2.1 2.1 2.1 2.1 5.15 0 3-2.1 5.1-2.1 2.1-5.1 2.1ZM20.4 12.35q-.25 0-.4-.15-.15-.15-.15-.4t.15-.4q.15-.15.4-.15h18.45q.25 0 .4.15.15.15.15.4t-.15.4q-.15.15-.4.15Zm-9.7 25.9q-.9 0-1.5-.6t-.6-1.5q0-.85.6-1.45t1.5-.6q.85 0 1.45.625t.6 1.475q0 .85-.6 1.45t-1.45.6Zm0-12.2q-.9 0-1.5-.625T8.6 24q0-.8.625-1.425t1.475-.625q.85 0 1.45.625t.6 1.425q0 .8-.6 1.425t-1.45.625Zm-.05-12.2q-.8 0-1.425-.625T8.6 11.8q0-.8.625-1.425T10.7 9.75q.8 0 1.425.625t.625 1.425q0 .8-.625 1.425t-1.475.625Zm9.75 22.9q-.25 0-.4-.15-.15-.15-.15-.4t.15-.4q.15-.15.4-.15h3.55q0 .25.025.525t.075.575Zm0-12.2q-.25 0-.4-.15-.15-.15-.15-.4t.15-.4q.15-.15.4-.15h15.8q-1.45 0-2.75.275t-2.55.825Z"/></svg>