<svg xmlns="http://www.w3.org/2000/svg" width="48" height="48" viewBox="0 96 960 960"><path d="M182.772 750Q178 750 175 746.838q-3-3.163-3-7.838V413q0-4.675 3.228-7.838 3.228-3.162 8-3.162t7.772 3.162q3 3.163 3 7.838v152h218V413q0-4.675 3.228-7.838 3.228-3.162 8-3.162t7.772 3.162q3 3.163 3 7.838v326q0 4.675-3.228 7.838-3.228 3.162-8 3.162T415 746.838q-3-3.163-3-7.838V587H194v152q0 4.675-3.228 7.838-3.228 3.162-8 3.162ZM537 750q-4.675 0-7.838-3.228-3.162-3.228-3.162-8t3.162-7.772q3.163-3 7.838-3h197q14 0 23-9t9-23V587H617q-4.675 0-7.838-3.228-3.162-3.228-3.162-8t3.162-7.772q3.163-3 7.838-3h149V456q0-14-9-23t-23-9H537q-4.675 0-7.838-3.228-3.162-3.228-3.162-8t3.162-7.772q3.163-3 7.838-3h197q21.5 0 37.75 16.25T788 456v240q0 21.5-16.25 37.75T734 750H537Z"/></svg>