<svg xmlns="http://www.w3.org/2000/svg" width="48" height="48" viewBox="0 -960 960 960"><path d="M450-806v409q0 4.725-3.228 7.862-3.228 3.138-8 3.138T431-389.162q-3-3.163-3-7.838v-183h-23q-53 0-89.5-36T279-704q0-52 35.5-88t87.5-36h205q4.675 0 7.838 3.228 3.162 3.228 3.162 8T614.838-809q-3.163 3-7.838 3h-66v409q0 4.675-3.228 7.838-3.228 3.162-8 3.162T522-389.162q-3-3.163-3-7.838v-409h-69ZM214-234l79 79q3 2.667 3 7.333 0 4.667-2.929 7.667-2.928 3-8 3-5.071 0-8.071-3l-86-86q-8-8.455-8-19.727Q183-257 191-265l86-86q4-4 8-4t8 4q4 4 4 8.5t-4 8.5l-78 78h562q4.675 0 7.838 3.228 3.162 3.228 3.162 8T784.838-237q-3.163 3-7.838 3H214Zm214-368v-204h-23q-43 0-73.5 29.615t-30.5 72.5Q301-661 331.5-631.5 362-602 405-602h23Zm0-102Z"/></svg>