<svg xmlns="http://www.w3.org/2000/svg" width="48" height="48" viewBox="0 -960 960 960"><path d="M450-806v409q0 5-3.04 8-3.03 3-8 3-4.96 0-7.96-3.02-3-3.03-3-7.98v-170l-23-13q-53 0-89.5-36T279-704q0-52 35.5-88t87.5-36h205q4.95 0 7.97 3.04 3.03 3.03 3.03 8 0 4.96-3.03 7.96-3.02 3-7.97 3h-66v409q0 4.95-3.04 7.98-3.03 3.02-8 3.02-4.96 0-7.96-3.02-3-3.03-3-7.98v-409h-69ZM214-234l79 79q3 2.67 3 7.33 0 4.67-2.93 7.67t-8 3q-5.07 0-8.07-3l-86-86q-8-8.27-8-19.64 0-11.36 8-19.36l86-86q4-4 8-4t8 4q4 4 4 8.5t-4 8.5l-78 78h562q4.95 0 7.97 3.04 3.03 3.03 3.03 8 0 4.96-3.03 7.96-3.02 3-7.97 3H214Z"/></svg>