<svg xmlns="http://www.w3.org/2000/svg" width="48" height="48" viewBox="0 96 960 960"><path d="M164.772 750Q160 750 157 746.838q-3-3.163-3-7.838V413q0-4.675 3.228-7.838 3.228-3.162 8-3.162t7.772 3.162q3 3.163 3 7.838v152h218V413q0-4.675 3.228-7.838 3.228-3.162 8-3.162t7.772 3.162q3 3.163 3 7.838v326q0 4.675-3.228 7.838-3.228 3.162-8 3.162T397 746.838q-3-3.163-3-7.838V587H176v152q0 4.675-3.228 7.838-3.228 3.162-8 3.162ZM535 750q-11.475 0-19.237-7.763Q508 734.475 508 723V619q0-21.5 15.75-37.75T562 565h154q13 0 22.5-9t9.5-23v-77q0-14-9.5-23t-22.5-9H519q-4.675 0-7.837-3.228-3.163-3.228-3.163-8t3.163-7.772q3.162-3 7.837-3h197q21.5 0 37.75 16.25T770 456v77q0 21.5-16.25 37.75T716 587H562q-14 0-23 9t-9 23v109h229q4.675 0 7.838 3.228 3.162 3.228 3.162 8T766.838 747q-3.163 3-7.838 3H535Z"/></svg>