<svg xmlns="http://www.w3.org/2000/svg" width="48" height="48" viewBox="0 -960 960 960"><path d="M66-168v-90q0-4.016 2.13-8.562Q70.26-271.107 73-274l73-73.929v-266.889L83-679q-8-7-12.5-17.056Q66-706.111 66-718v-85q0-4.675 3.228-7.838 3.228-3.162 8-3.162T85-810.838q3 3.163 3 7.838v69h138v-69q0-4.675 3.228-7.838 3.228-3.162 8-3.162t7.772 3.162q3 3.163 3 7.838v69h138v-69q0-4.675 3.228-7.838 3.228-3.162 8-3.162t7.772 3.162q3 3.163 3 7.838v85q0 11.889-4.5 21.944Q399-686 392-679l-64 64v87h304v-87l-63-64q-8-7-12.5-17.056Q552-706.111 552-718v-85q0-4.675 3.228-7.838 3.228-3.162 8-3.162t7.772 3.162q3 3.163 3 7.838v69h138v-69q0-4.675 3.228-7.838 3.228-3.162 8-3.162t7.772 3.162q3 3.163 3 7.838v69h138v-69q0-4.675 3.228-7.838 3.228-3.162 8-3.162t7.772 3.162q3 3.163 3 7.838v85q0 11.889-4.5 21.944Q885-686 878-679l-64 64.111V-348l74 74q2.261 2.893 4.13 7.438Q894-262.016 894-258v90q0 8.525-6.737 15.262Q880.525-146 872-146H616q-11.475 0-19.237-7.762Q589-161.525 589-173v-67q0-44.725-32.195-76.862-32.194-32.138-77-32.138Q435-349 403-316.862 371-284.725 371-240v66.505q0 12.22-7.763 19.858Q355.475-146 344-146H88q-8.525 0-15.263-6.738Q66-159.475 66-168Z"/></svg>