<svg xmlns="http://www.w3.org/2000/svg" width="48" height="48" viewBox="0 -960 960 960"><path d="m272-480 80 80q3 3 3 7.458t-2.609 7.7q-3.524 3.842-8.424 3.342-4.9-.5-7.967-3.5l-76-76q-8-8.182-8-19.091T260-499l76-76q3.182-3 8.091-3.5 4.909-.5 7.866 3.5 3.043 3 2.543 8t-3.5 8l-79 79Zm416 0-80-80q-3-3-3-7.458t2.609-7.7q3.524-3.842 8.424-3.342 4.9.5 7.967 3.5l76 76q8 8.182 8 19.091T700-461l-76 76q-3.182 3-8.091 3.5-4.909.5-7.866-3.5-3.043-3-2.543-8t3.5-8l79-79ZM226-172q-22.775 0-38.387-15.613Q172-203.225 172-226v-121q0-4.725 3.193-7.862 3.193-3.138 8-3.138t7.807 3.138q3 3.137 3 7.862v121q0 12 10 22t22 10h121q4.725 0 7.862 3.193 3.138 3.193 3.138 8T354.862-175q-3.137 3-7.862 3H226Zm508 0H613q-4.725 0-7.862-3.193-3.138-3.193-3.138-8t3.138-7.807q3.137-3 7.862-3h121q12 0 22-10t10-22v-121q0-4.725 3.193-7.862 3.193-3.138 8-3.138t7.807 3.138q3 3.137 3 7.862v121q0 22.775-15.612 38.387Q756.775-172 734-172ZM172-613v-121q0-22.775 15.613-38.388Q203.225-788 226-788h121q4.725 0 7.862 3.193 3.138 3.193 3.138 8T354.862-769q-3.137 3-7.862 3H226q-12 0-22 10t-10 22v121q0 4.725-3.193 7.862-3.193 3.138-8 3.138T175-605.138q-3-3.137-3-7.862Zm594 0v-121q0-12-10-22t-22-10H613q-4.725 0-7.862-3.193-3.138-3.193-3.138-8t3.138-7.807q3.137-3 7.862-3h121q22.775 0 38.388 15.612Q788-756.775 788-734v121q0 4.725-3.193 7.862-3.193 3.138-8 3.138T769-605.138q-3-3.137-3-7.862Z"/></svg>