<svg xmlns="http://www.w3.org/2000/svg" width="48" height="48" viewBox="0 0 48 48"><path d="M11.3 39.4q-1.15 0-1.925-.775Q8.6 37.85 8.6 36.7v-6.05q0-.25.15-.4.15-.15.4-.15t.4.15q.15.15.15.4v6.05q0 .6.5 1.1.5.5 1.1.5h6.05q.25 0 .4.15.15.15.15.4t-.15.4q-.15.15-.4.15Zm19.35 0q-.25 0-.4-.15-.15-.15-.15-.4t.15-.4q.15-.15.4-.15h6.05q.6 0 1.1-.5.5-.5.5-1.1v-6.05q0-.25.15-.4.15-.15.4-.15t.4.15q.15.15.15.4v6.05q0 1.15-.775 1.925-.775.775-1.925.775ZM13.6 24l4 4q.15.15.15.375t-.15.375q-.15.2-.4.175-.25-.025-.4-.175l-3.8-3.8q-.4-.4-.4-.95 0-.55.4-.95l3.8-3.8q.15-.15.4-.175.25-.025.4.175.15.15.125.4-.025.25-.175.4Zm20.8 0-4-4q-.15-.15-.15-.375t.15-.375q.15-.2.4-.175.25.025.4.175l3.8 3.8q.4.4.4.95 0 .55-.4.95l-3.8 3.8q-.15.15-.4.175-.25.025-.4-.175-.15-.15-.125-.4.025-.25.175-.4ZM9.15 17.9q-.25 0-.4-.15-.15-.15-.15-.4V11.3q0-1.15.775-1.925Q10.15 8.6 11.3 8.6h6.05q.25 0 .4.15.15.15.15.4t-.15.4q-.15.15-.4.15H11.3q-.6 0-1.1.5-.5.5-.5 1.1v6.05q0 .25-.15.4-.15.15-.4.15Zm29.7 0q-.25 0-.4-.15-.15-.15-.15-.4V11.3q0-.6-.5-1.1-.5-.5-1.1-.5h-6.05q-.25 0-.4-.15-.15-.15-.15-.4t.15-.4q.15-.15.4-.15h6.05q1.15 0 1.925.775.775.775.775 1.925v6.05q0 .25-.15.4-.15.15-.4.15Z"/></svg>