<svg xmlns="http://www.w3.org/2000/svg" width="48" height="48" viewBox="0 -960 960 960"><path d="M480-296q-53 0-97-27.77T316-398q-3-6-1.5-12t7.5-7.5q5-2.5 10.5-.5t8.5 7q19.1 39.9 56.78 63.45Q435.46-324 479.68-324q65.32 0 110.82-45.5T636-480q0-65-45.5-110.5T480-636q-41 0-76 20t-61 52h67q6 0 10 4t4 10q0 6-4 10t-10 4h-87q-11.73 0-19.36-7.64Q296-551.28 296-563v-87q0-6 4-10t10-4q6 0 10 4t4 10v65q29-35 69.5-57t86.5-22q77 0 130.5 53.5T664-480q0 77-53.5 130.5T480-296ZM226-172q-22.77 0-38.39-15.61Q172-203.23 172-226v-121q0-4.73 3.19-7.86 3.2-3.14 8-3.14 4.81 0 7.81 3.14 3 3.13 3 7.86v121q0 12 10 22t22 10h121q4.73 0 7.86 3.19 3.14 3.2 3.14 8 0 4.81-3.14 7.81-3.13 3-7.86 3H226Zm508 0H613q-4.72 0-7.86-3.19-3.14-3.2-3.14-8 0-4.81 3.14-7.81t7.86-3h121q12 0 22-10t10-22v-121q0-4.73 3.19-7.86 3.2-3.14 8-3.14 4.81 0 7.81 3.14 3 3.13 3 7.86v121q0 22.77-15.61 38.39Q756.78-172 734-172ZM172-613v-121q0-22.78 15.61-38.39Q203.23-788 226-788h121q4.73 0 7.86 3.19 3.14 3.2 3.14 8 0 4.81-3.14 7.81-3.13 3-7.86 3H226q-12 0-22 10t-10 22v121q0 4.72-3.19 7.86-3.2 3.14-8 3.14-4.81 0-7.81-3.14t-3-7.86Zm594 0v-121q0-12-10-22t-22-10H613q-4.72 0-7.86-3.19-3.14-3.2-3.14-8 0-4.81 3.14-7.81t7.86-3h121q22.78 0 38.39 15.61T788-734v121q0 4.72-3.19 7.86-3.2 3.14-8 3.14-4.81 0-7.81-3.14t-3-7.86Z"/></svg>