<svg xmlns="http://www.w3.org/2000/svg" width="48" height="48" viewBox="0 -960 960 960"><path d="M512.228-842q4.772 0 7.772 3.162 3 3.163 3 7.838v311q0 4.675-3.228 7.838-3.228 3.162-8 3.162T504-512.162q-3-3.163-3-7.838v-311q0-4.675 3.228-7.838 3.228-3.162 8-3.162Zm-145 40q4.772 0 7.772 3.162 3 3.163 3 7.838v271q0 4.675-3.228 7.838-3.228 3.162-8 3.162T359-512.162q-3-3.163-3-7.838v-271q0-4.675 3.228-7.838 3.228-3.162 8-3.162ZM499.261-92q-119.807 0-203.534-83.359Q212-258.718 212-378v-359q0-4.675 3.228-7.838 3.228-3.162 8-3.162t7.772 3.162q3 3.163 3 7.838v359q0 109.869 76.893 186.935Q387.786-114 498.797-114q110.172 0 187.688-77Q764-268 766-379v-170h-29q-29.25 0-49.125 19.875T668-480v74q0 11.475-7.763 19.237Q652.475-379 641-379h-34q-46 0-77.5 31.5T498-270v11q0 4.675-3.228 7.838-3.228 3.162-8 3.162T479-251.162q-3-3.163-3-7.838v-11q0-55 38-93t93-38h39v-350q0-4.675 3.228-7.838 3.228-3.162 8-3.162t7.772 3.162q3 3.163 3 7.838v208q13-13 30.783-20.5Q716.567-571 737-571h24q11.475 0 19.237 7.763Q788-555.475 788-544v165q-2 120.282-85.883 203.641T499.261-92ZM511-343Z"/></svg>