<svg xmlns="http://www.w3.org/2000/svg" width="48" height="48" viewBox="0 -960 960 960"><path d="M423-458h98v70q0 5.57 3.41 9.28 3.4 3.72 8.5 3.72 5.09 0 9.09-3.72 4-3.71 4-9.28v-184q0-5.57-4.12-9.28-4.11-3.72-9.21-3.72-5.09 0-8.38 3.72Q521-577.57 521-572v89h-98v-89q0-5.57-4.12-9.28-4.11-3.72-9.21-3.72-5.09 0-8.38 3.72Q398-577.57 398-572v184q0 5.57 3.41 9.28 3.4 3.72 8.5 3.72 5.09 0 9.09-3.72 4-3.71 4-9.28v-70Zm195 83h95q16.75 0 28.88-12.13Q754-399.25 754-416v-128q0-16.75-12.12-28.88Q729.75-585 713-585h-95q-5.13 0-8.57 3.72Q606-577.57 606-572v184q0 5.57 3.43 9.28Q612.87-375 618-375Zm13-25v-160h82q6 0 11 5t5 11v128q0 6-5 11t-11 5h-82Zm-399-62h73q4.83 0 8.92-3.6 4.08-3.61 4.08-9 0-5.4-4.08-8.9-4.09-3.5-8.92-3.5h-73v-73h93q4.83 0 8.92-3.6 4.08-3.61 4.08-9 0-5.4-4.08-8.9-4.09-3.5-8.92-3.5H219q-5.13 0-8.57 3.72Q207-577.57 207-572v184q0 5.57 3.41 9.28 3.4 3.72 8.5 3.72 5.09 0 9.09-3.72 4-3.71 4-9.28v-74Zm-86 250q-22.78 0-38.39-15.61Q92-243.23 92-266v-428q0-22.78 15.61-38.39T146-748h668q22.75 0 38.38 15.61Q868-716.78 868-694v428q0 22.77-15.62 38.39Q836.75-212 814-212H146Zm0-22h668q14 0 23-9t9-23v-428q0-14-9-23t-23-9H146q-14 0-23 9t-9 23v428q0 14 9 23t23 9Zm-32 0v-492 492Z"/></svg>