<svg xmlns="http://www.w3.org/2000/svg" width="48" height="48" viewBox="0 -960 960 960"><path d="M246.772-172Q242-172 239-175.163q-3-3.162-3-7.837v-398l-122 91q-4.087 2-8.043 1.5-3.957-.5-6.957-4t-2.5-7.5q.5-4 4.5-7l347-258q8-5 15.882-7.5t16.079-2.5q8.197 0 16.118 2.5Q504-770 512-765l348 258q4 3 4.5 7t-2.5 8q-4.143 2.647-8.05 3.324Q850.043-488 847-490l-123-91v398q0 4.675-3.228 7.837-3.228 3.163-8 3.163T705-175.163q-3-3.162-3-7.837v-392H258v392q0 4.675-3.228 7.837-3.228 3.163-8 3.163ZM354-212q-4.675 0-7.838-3.228-3.162-3.228-3.162-8t3.162-7.772q3.163-3 7.838-3h252q4.675 0 7.838 3.228 3.162 3.228 3.162 8T613.838-215q-3.163 3-7.838 3H354Zm0-121q-4.675 0-7.838-3.228-3.162-3.228-3.162-8t3.162-7.772q3.163-3 7.838-3h252q4.675 0 7.838 3.228 3.162 3.228 3.162 8T613.838-336q-3.163 3-7.838 3H354Zm0-121q-4.675 0-7.838-3.228-3.162-3.228-3.162-8t3.162-7.772q3.163-3 7.838-3h252q4.675 0 7.838 3.228 3.162 3.228 3.162 8T613.838-457q-3.163 3-7.838 3H354Zm-96-143h444L480-761 258-597Z"/></svg>