<svg xmlns="http://www.w3.org/2000/svg" width="48" height="48" viewBox="0 -960 960 960"><path d="M186-132q-23 0-38.5-15T132-186v-588q0-23 15.5-38.5T186-828h588q23 0 38.5 15.5T828-774v588q0 24-15.5 39T774-132H186Zm143.807-278q-9.807 0-17.307-7.693-7.5-7.693-7.5-17.5t7.693-17.307q7.693-7.5 17.5-7.5t17.307 7.693q7.5 7.693 7.5 17.5t-7.693 17.307q-7.693 7.5-17.5 7.5Zm301 0q-9.807 0-17.307-7.693-7.5-7.693-7.5-17.5t7.693-17.307q7.693-7.5 17.5-7.5t17.307 7.693q7.5 7.693 7.5 17.5t-7.693 17.307q-7.693 7.5-17.5 7.5ZM263.193-269q4.807 0 7.807-3.138 3-3.137 3-7.862v-71h412v71q0 4.725 3.193 7.862 3.193 3.138 8 3.138t7.807-3.138q3-3.137 3-7.862v-216q0-4.65-.5-9.325Q707-510 706-514l-48-135q-6-15.778-19.75-25.889Q624.5-685 608-685H353q-17.5 0-31.25 10.111T303-649l-48 135q-1 4-2 8.675-1 4.675-1 9.325v216q0 4.725 3.193 7.862 3.193 3.138 8 3.138ZM280-518l42-124q3-10 11.5-15.5T352-663h256q11 0 19 5.5t11 15.5l43 124H280Z"/></svg>