<svg xmlns="http://www.w3.org/2000/svg" width="48" height="48" viewBox="0 -960 960 960"><path d="M171-320q0-37.917 26.542-64.458Q224.083-411 262-411h80q68.833 0 108.917-42.083Q491-495.167 491-554q0-32-20.75-53.5T419-629q-19.75 0-33.875-14.125T371-677v-166q0-4.675 3.505-7.838 3.506-3.162 8.688-3.162 4.757 0 7.782 3.162Q394-847.675 394-843v166q0 11 7 18.5t18 7.5q39.167 0 66.583 27.417Q513-596.167 513-554q0 68.21-46.395 116.605Q420.21-389 342-389h-80q-29.25 0-49.125 19.875T193-320v203q0 4.675-3.228 7.837-3.228 3.163-8 3.163T174-109.163q-3-3.162-3-7.837v-203Zm115 160q0-37.917 26.542-64.458Q339.083-251 377-251h160q95.885 0 162.443-66.557Q766-384.115 766-480v-40q0-93.095-59.5-161.047Q647-749 557-749q-28.513 0-49.756-21.625Q486-792.25 486-820v-23q0-4.675 3.228-7.838 3.228-3.162 8-3.162t7.772 3.162q3 3.163 3 7.838v23q0 20 14.5 34.5T557-771q98 0 164.5 74.902Q788-621.197 788-520.467v40.934q0 103.865-73.432 177.199Q641.136-229 537-229H377q-29.25 0-49.125 19.875T308-160v43q0 4.675-3.228 7.837-3.228 3.163-8 3.163T289-109.163q-3-3.162-3-7.837v-43Zm-93 54v-214q0-29.25 19.875-49.125T262-389h80q78.21 0 124.605-48.395Q513-485.79 513-554q0-42.167-30.5-69.583Q452-651 394-651v-203 203q58 0 88.5 27.417Q513-596.167 513-554q0 68.21-46.395 116.605Q420.21-389 342-389h-80q-29.25 0-49.125 19.875T193-320v214Z"/></svg>