<svg xmlns="http://www.w3.org/2000/svg" width="48" height="48" viewBox="0 -960 960 960"><path d="M171-320q0-38 26.5-64.5T262-411h80q68.833 0 108.917-42.083Q491-495.167 491-554q0-32-20.75-53.5T419-629q-19.75 0-33.875-14.125T371-677v-166q0-4.7 3.488-7.85 3.488-3.15 8.687-3.15 4.775 0 7.8 3.15Q394-847.7 394-843v166q1 11 7.5 18.5T419-651q39.167 0 66.583 27.417Q513-596.167 513-554q0 68.21-46.395 116.605Q420.21-389 342-389h-80q-29.25 0-49.125 19.875T193-320v203q0 4.7-3.211 7.85-3.21 3.15-8 3.15-4.789 0-7.789-3.15t-3-7.85v-203Zm115 160q0-38 26.5-64.5T377-251h160q95.79 0 162.395-66.605T766-480v-40q0-93-59.5-161T557-749q-28.513 0-49.756-21.625Q486-792.25 486-820v-23q0-4.7 3.211-7.85 3.21-3.15 8-3.15 4.789 0 7.789 3.15t3 7.85v23q0 20 14.5 34.5T557-771q98 0 164.5 75T788-520v40q0 104.136-73.432 177.568Q641.136-229 537-229H377q-29.25 0-49.125 19.875T308-160v43q0 4.7-3.211 7.85-3.21 3.15-8 3.15-4.789 0-7.789-3.15t-3-7.85v-43Zm-93 54v-214q0-29.25 19.875-49.125T262-389h80q78.21 0 124.605-48.395Q513-485.79 513-554q0-42.167-30.5-69.583Q452-651 393-651l1-203-1 203q59 0 89.5 27.417Q513-596.167 513-554q0 68.21-46.395 116.605Q420.21-389 342-389h-80q-29.25 0-49.125 19.875T193-320v214Z"/></svg>