<svg xmlns="http://www.w3.org/2000/svg" width="48" height="48" viewBox="0 -960 960 960"><path d="M453-119q-17.88 0-34.44-7T389-146L244-290q-7-7.19-7-18.09 0-10.91 7-17.91t16.33-9q9.34-2 19.67 1l89 19v-328q0-4.72 3-7.86 3-3.14 8-3.14t8 3.14q3 3.14 3 7.86v273h88v-163q0-4.72 3-7.86 3-3.14 8-3.14t8 3.14q3 3.14 3 7.86v163h88v-100q0-4.73 3-7.86 3-3.14 8-3.14t8 3.14q3 3.13 3 7.86v100h88q0-4.73 3-7.86 3-3.14 8-3.14t8 3.14q3 3.13 3 7.86v120q0 55-38 93t-93 38H453ZM126.81-794q-6.81 0-11.81-5.19-5-5.2-5-12 0-6.81 5.19-11.81 5.2-5 12-5 6.81 0 11.81 5.19 5 5.2 5 12 0 6.81-5.19 11.81-5.2 5-12 5ZM258-799.19q-5-5.2-5-12 0-6.81 5.19-11.81 5.2-5 12-5 6.81 0 11.81 5.19 5 5.2 5 12 0 6.81-5.19 11.81-5.2 5-12 5-6.81 0-11.81-5.19Zm140 0q-5-5.2-5-12 0-6.81 5.19-11.81 5.2-5 12-5 6.81 0 11.81 5.19 5 5.2 5 12 0 6.81-5.19 11.81-5.2 5-12 5-6.81 0-11.81-5.19Zm140 0q-5-5.2-5-12 0-6.81 5.19-11.81 5.2-5 12-5 6.81 0 11.81 5.19 5 5.2 5 12 0 6.81-5.19 11.81-5.2 5-12 5-6.81 0-11.81-5.19Zm140 0q-5-5.2-5-12 0-6.81 5.19-11.81 5.2-5 12-5 6.81 0 11.81 5.19 5 5.2 5 12 0 6.81-5.19 11.81-5.2 5-12 5-6.81 0-11.81-5.19Zm143 0q-5-5.2-5-12 0-6.81 5.19-11.81 5.2-5 12-5 6.81 0 11.81 5.19 5 5.2 5 12 0 6.81-5.19 11.81-5.2 5-12 5-6.81 0-11.81-5.19ZM126.81-651q-6.81 0-11.81-5.19-5-5.2-5-12 0-6.81 5.19-11.81 5.2-5 12-5 6.81 0 11.81 5.19 5 5.2 5 12 0 6.81-5.19 11.81-5.2 5-12 5Zm0 143q-6.81 0-11.81-5.19-5-5.2-5-12 0-6.81 5.19-11.81 5.2-5 12-5 6.81 0 11.81 5.19 5 5.2 5 12 0 6.81-5.19 11.81-5.2 5-12 5ZM258-513.19q-5-5.2-5-12 0-6.81 5.19-11.81 5.2-5 12-5 6.81 0 11.81 5.19 5 5.2 5 12 0 6.81-5.19 11.81-5.2 5-12 5-6.81 0-11.81-5.19Zm420 0q-5-5.2-5-12 0-6.81 5.19-11.81 5.2-5 12-5 6.81 0 11.81 5.19 5 5.2 5 12 0 6.81-5.19 11.81-5.2 5-12 5-6.81 0-11.81-5.19Zm143 0q-5-5.2-5-12 0-6.81 5.19-11.81 5.2-5 12-5 6.81 0 11.81 5.19 5 5.2 5 12 0 6.81-5.19 11.81-5.2 5-12 5-6.81 0-11.81-5.19Zm0-143q-5-5.2-5-12 0-6.81 5.19-11.81 5.2-5 12-5 6.81 0 11.81 5.19 5 5.2 5 12 0 6.81-5.19 11.81-5.2 5-12 5-6.81 0-11.81-5.19Z"/></svg>