<svg xmlns="http://www.w3.org/2000/svg" width="48" height="48" viewBox="0 -960 960 960"><path d="M126.807-794q-7.307 0-12.057-4.943t-4.75-12.25q0-7.307 4.943-12.057t12.25-4.75q7.307 0 12.057 4.943t4.75 12.25q0 7.307-4.943 12.057t-12.25 4.75Zm143 0q-7.307 0-12.057-4.943t-4.75-12.25q0-7.307 4.943-12.057t12.25-4.75q7.307 0 12.057 4.943t4.75 12.25q0 7.307-4.943 12.057t-12.25 4.75Zm140 0q-7.307 0-12.057-4.943t-4.75-12.25q0-7.307 4.943-12.057t12.25-4.75q7.307 0 12.057 4.943t4.75 12.25q0 7.307-4.943 12.057t-12.25 4.75Zm140 0q-7.307 0-12.057-4.943t-4.75-12.25q0-7.307 4.943-12.057t12.25-4.75q7.307 0 12.057 4.943t4.75 12.25q0 7.307-4.943 12.057t-12.25 4.75Zm140 0q-7.307 0-12.057-4.943t-4.75-12.25q0-7.307 4.943-12.057t12.25-4.75q7.307 0 12.057 4.943t4.75 12.25q0 7.307-4.943 12.057t-12.25 4.75Zm143 0q-7.307 0-12.057-4.943t-4.75-12.25q0-7.307 4.943-12.057t12.25-4.75q7.307 0 12.057 4.943t4.75 12.25q0 7.307-4.943 12.057t-12.25 4.75Zm-706 143q-7.307 0-12.057-4.943t-4.75-12.25q0-7.307 4.943-12.057t12.25-4.75q7.307 0 12.057 4.943t4.75 12.25q0 7.307-4.943 12.057t-12.25 4.75Zm0 143q-7.307 0-12.057-4.943t-4.75-12.25q0-7.307 4.943-12.057t12.25-4.75q7.307 0 12.057 4.943t4.75 12.25q0 7.307-4.943 12.057t-12.25 4.75Zm143 0q-7.307 0-12.057-4.943t-4.75-12.25q0-7.307 4.943-12.057t12.25-4.75q7.307 0 12.057 4.943t4.75 12.25q0 7.307-4.943 12.057t-12.25 4.75Zm420 0q-7.307 0-12.057-4.943t-4.75-12.25q0-7.307 4.943-12.057t12.25-4.75q7.307 0 12.057 4.943t4.75 12.25q0 7.307-4.943 12.057t-12.25 4.75Zm143 0q-7.307 0-12.057-4.943t-4.75-12.25q0-7.307 4.943-12.057t12.25-4.75q7.307 0 12.057 4.943t4.75 12.25q0 7.307-4.943 12.057t-12.25 4.75Zm0-143q-7.307 0-12.057-4.943t-4.75-12.25q0-7.307 4.943-12.057t12.25-4.75q7.307 0 12.057 4.943t4.75 12.25q0 7.307-4.943 12.057t-12.25 4.75ZM590-141H446h144Zm-137.152 22q-17.73 0-34.289-7t-29.564-19.845L244-290q-7-7.188-7-18.094Q237-319 244-327q7-7 16.333-8.5Q269.667-337 280-334l89 19v-328q0-4.675 3.228-7.838 3.228-3.162 8-3.162t7.772 3.162q3 3.163 3 7.838v323q0 13.349-10 21.674Q371-290 358-294l-113-28 159 161q9 10 22.13 15 13.131 5 26.87 5h137q46 0 77.5-31.5T699-250v-120q0-4.675 3.228-7.838 3.228-3.162 8-3.162t7.772 3.162q3 3.163 3 7.838v120q0 55-38 93t-93 38H452.848Zm37.38-425q4.772 0 7.772 3.162 3 3.163 3 7.838v150q0 4.675-3.228 7.838-3.228 3.162-8 3.162T482-375.162q-3-3.163-3-7.838v-150q0-4.675 3.228-7.838 3.228-3.162 8-3.162Zm110 63q4.772 0 7.772 3.162 3 3.163 3 7.838v87q0 4.675-3.228 7.838-3.228 3.162-8 3.162T592-375.162q-3-3.163-3-7.838v-87q0-4.675 3.228-7.838 3.228-3.162 8-3.162Z"/></svg>