<svg xmlns="http://www.w3.org/2000/svg" width="48" height="48" viewBox="0 -960 960 960"><path d="M226-172q-22.77 0-38.39-15.61Q172-203.23 172-226v-508q0-22.78 15.61-38.39Q203.23-788 226-788h508q22.78 0 38.39 15.61T788-734v508q0 22.77-15.61 38.39Q756.78-172 734-172H226Zm258.14-203q5.26 0 8.56-3.4 3.3-3.4 3.3-8.6v-184q0-5.2-3.44-8.6-3.44-3.4-8.7-3.4t-8.56 3.4q-3.3 3.4-3.3 8.6v184q0 5.2 3.44 8.6 3.44 3.4 8.7 3.4ZM308-375h49q21.7 0 35.35-13.8Q406-402.6 406-423v-36q0-5.2-3.25-8.6-3.26-3.4-9.2-3.4-5.95 0-9.25 3.4T381-459v38q0 9-6.5 15.5T359-399h-53q-9 0-15.5-6.5T284-421v-116q0-9 6.5-15.5T306-559h87q6.47 0 9.73-3.44 3.27-3.44 3.27-8.7t-3.27-8.56q-3.26-3.3-9.73-3.3h-85q-20.4 0-34.2 13.8Q260-555.4 260-535v112q0 20.4 13.8 34.2Q287.6-375 308-375Zm272-12v-77h61q5.2 0 8.6-3.39 3.4-3.38 3.4-8.56 0-6.45-3.4-9.75T641-489h-61v-70h102q5.2 0 8.6-3.44 3.4-3.44 3.4-8.7t-3.4-8.56q-3.4-3.3-8.6-3.3H568q-5.2 0-8.6 3.4-3.4 3.4-3.4 8.6v184q0 5.2 3.44 8.6 3.44 3.4 8.7 3.4t8.56-3.4q3.3-3.4 3.3-8.6Z"/></svg>