<svg xmlns="http://www.w3.org/2000/svg" width="48" height="48" viewBox="0 -960 960 960"><path d="M492.5-378.43q3.5-3.44 3.5-8.57v-184q0-5.13-3.69-8.57-3.68-3.43-8.5-3.43-4.81 0-8.31 3.43-3.5 3.44-3.5 8.57v184q0 5.13 3.69 8.57 3.68 3.43 8.5 3.43 4.81 0 8.31-3.43ZM308-375h49q21.45 0 35.23-13.92Q406-402.85 406-423v-36q0-5.13-3.5-8.57-3.5-3.43-9-3.43t-9 3.43q-3.5 3.44-3.5 8.57v38q0 9-6.5 15.5T359-399h-53q-9 0-15.5-6.5T284-421v-116q0-9 6.5-15.5T306-559h87q6.4 0 9.7-3.69 3.3-3.68 3.3-8.5 0-4.81-3.3-8.31-3.3-3.5-9.7-3.5h-85q-20.15 0-34.08 13.92Q260-555.15 260-535v112q0 20.15 13.92 34.08Q287.85-375 308-375Zm268.5-3.43q3.5-3.44 3.5-8.57v-77h61q5.13 0 8.57-3.5 3.43-3.5 3.43-9t-3.43-9q-3.44-3.5-8.57-3.5h-61v-70h102q5.13 0 8.57-3.69 3.43-3.68 3.43-8.5 0-4.81-3.43-8.31-3.44-3.5-8.57-3.5H568q-5.13 0-8.57 3.43Q556-576.13 556-571v184q0 5.13 3.69 8.57 3.68 3.43 8.5 3.43 4.81 0 8.31-3.43ZM226-172q-22.77 0-38.39-15.61Q172-203.23 172-226v-508q0-22.78 15.61-38.39Q203.23-788 226-788h508q22.78 0 38.39 15.61T788-734v508q0 22.77-15.61 38.39Q756.78-172 734-172H226Zm0-22h508q12 0 22-10t10-22v-508q0-12-10-22t-22-10H226q-12 0-22 10t-10 22v508q0 12 10 22t22 10Zm-32 0v-572 572Z"/></svg>