<svg xmlns="http://www.w3.org/2000/svg" width="48" height="48" viewBox="0 -960 960 960"><path d="M493-369.5q5-5.5 5-13t-5-13q-5-5.5-13-5.5t-13 5.5q-5 5.5-5 13t5 13q5 5.5 13 5.5t13-5.5Zm-5-87.63q3-3.12 3-7.87v-163q0-3.75-3.18-7.38-3.17-3.62-8-3.62-4.82 0-7.82 3.62-3 3.63-3 7.38v163q0 4.75 3.18 7.87 3.17 3.13 8 3.13 4.82 0 7.82-3.13ZM469.62-140q-5.06-1-9.62-3-115-45-181.5-149T212-518.11V-686q0-17.26 9.88-31.66Q231.75-732.07 247-738l214-79q10-4 19-4t19 4l214 79q15.25 5.93 25.13 20.34Q748-703.26 748-686v167.89Q748-396 681.5-292 615-188 500-143q-4.56 2-9.62 3T480-139q-5.32 0-10.38-1ZM480-158q107-34 176.5-135T726-518v-169q0-10-5.5-18T705-717l-214-80q-5-2-11-2t-11 2l-214 80q-10 4-15.5 12t-5.5 18v169q0 124 69.5 225T480-158Zm0-320Z"/></svg>