<svg xmlns="http://www.w3.org/2000/svg" width="48" height="48" viewBox="0 -960 960 960"><path d="M122-279.03q0-25.97 13.5-43.47t38.445-28.587Q226-374 272-388q46-14 118.5-14t118 14q45.5 14 98.555 36.913Q631-340 644.5-322.5t13.5 43.47V-256q0 6.75-6.737 15.375Q644.525-232 634-232H146q-9.75 0-16.875-7.125T122-256v-23.03ZM814-232h-84q0-6 1-11.573 1-5.572 1-12.427v-20q0-38-12.447-65.482T684-388q28 7 55 16t50.04 20.024Q810-341 824-320.84q14 20.161 14 44.84v20q0 9.75-7.125 16.875T814-232ZM390.5-512q-45.05 0-75.275-30.225Q285-572.45 285-617.5q0-45.05 30.225-74.775Q345.45-722 390.5-722q45.05 0 74.775 29.725Q495-662.55 495-617.5q0 45.05-29.725 75.275Q435.55-512 390.5-512ZM636-617.5q0 45.05-29.725 75.275Q576.55-512 531.143-512H534q17.321-20.763 26.161-47.505Q569-586.247 569-617.124 569-648 559-673.5 549-699 534-723q-1 1-1.5 1H531q45.55 0 75.275 29.725Q636-662.55 636-617.5ZM144-254h492v-25q0-16-8.5-28.5T597-332q-48-25-94-36.5T390.5-380Q324-380 278-368.5T184-332q-22 12-31 24.5t-9 28.5v25Zm246-280q35 0 59-24t24-59q0-35-24-59t-59-24q-35 0-59 24t-24 59q0 35 24 59t59 24Zm0 280Zm0-363Z"/></svg>