<svg xmlns="http://www.w3.org/2000/svg" width="48" height="48" viewBox="0 0 48 48"><path d="M27.5 37q.55 0 .975-.425.425-.425.425-.975t-.425-.975q-.425-.425-.975-.425t-.975.425q-.425.425-.425.975t.425.975q.425.425.975.425Zm6.1 0q.55 0 .975-.425Q35 36.15 35 35.6t-.425-.975q-.425-.425-.975-.425t-.975.425q-.425.425-.425.975t.425.975q.425.425.975.425Zm-25-9.55V9.3q0-1.15.775-1.925Q10.15 6.6 11.3 6.6h25.4q1.15 0 1.925.775.775.775.775 1.925v18.15Zm2.7 13.95q-1.15 0-1.925-.775Q8.6 39.85 8.6 38.7V28.55h30.8V38.7q0 1.15-.775 1.925-.775.775-1.925.775Z"/></svg>