<svg xmlns="http://www.w3.org/2000/svg" width="48" height="48" viewBox="0 -960 960 960"><path d="M335.129-300q2.871 0 5.371-2 2.5-2 4.5-5l40-109h190l40 109q2 3 5.167 5 3.166 2 5.833 2 7 0 10.5-5t1.5-12L497-690q-1.113-5.27-5.57-8.135-4.458-2.865-9.444-2.865-4.986 0-9.432 2.865Q468.108-695.27 467-690L323-316q-3 7 1 11.5t11.129 4.5ZM394-437l86-223h4l82 223H394Zm86.174 305Q408-132 344.442-158.891q-63.559-26.892-111.075-74.348-47.515-47.457-74.441-110.935Q132-407.652 132-479.826q0-72.174 26.891-135.732 26.892-63.559 74.348-111.074 47.457-47.516 110.935-74.442Q407.652-828 479.826-828q72.174 0 135.732 26.891 63.559 26.892 111.074 74.348 47.516 47.457 74.442 110.935Q828-552.348 828-480.174q0 72.174-26.891 135.732-26.892 63.559-74.348 111.075-47.457 47.515-110.935 74.441Q552.348-132 480.174-132ZM480-480Zm0 326q136 0 231-95t95-231q0-136-95-231t-231-95q-136 0-231 95t-95 231q0 136 95 231t231 95Z"/></svg>