<svg xmlns="http://www.w3.org/2000/svg" width="48" height="48" viewBox="0 -960 960 960"><path d="m437-629 40.57-108h3.86L523-629h-86Zm-88 116.74q-54-53.27-54-130.5Q295-720 348.76-774q53.77-54 131-54Q557-828 611-774.24q54 53.77 54 131 0 77.24-53.76 130.74-53.77 53.5-131 53.5Q403-459 349-512.26ZM428-605h104l22 57q2 5 5.36 7 3.37 2 8.02 2 7.98 0 12.3-6t1.32-13l-92-228q-1-1.27-2.8-2.63-1.8-1.37-4.2-1.37h-4.85q-2.15 0-4.15 1.37-2 1.36-3 2.63l-87 230q-3 5.9 1.08 11.45 4.08 5.55 9.38 5.55 3.54 0 7.12-1.97 3.57-1.96 4.42-5.03l23-59Zm411 424h-67q-6.47 0-9.73-3.56-3.27-3.56-3.27-9 0-5.44 3.68-8.94 3.69-3.5 9.32-3.5h67v-68q0-5.2 3.56-8.6 3.56-3.4 9-3.4 5.44 0 8.94 3.47 3.5 3.46 3.5 8.53v68h68q5.2 0 8.6 3.45 3.4 3.46 3.4 8.9t-3.47 9.05q-3.46 3.6-8.53 3.6h-68v68q0 5.2-3.45 8.6-3.46 3.4-8.9 3.4t-9.05-3.68q-3.6-3.69-3.6-9.32v-67Zm-301 73v-187q0-5.2 3.4-8.6 3.4-3.4 8.6-3.4h97q23 0 40 15.5t17 40.5v12q0 16-11 33t-35 25l29 67q3 7-.75 12.5T675-96q-3 0-7.21-2-4.2-2-4.79-6l-32-75h-68v71q0 5.2-3.84 8.6-3.83 3.4-9 3.4-5.16 0-8.66-3.4T538-108Zm25-95h84q12 0 22-10t10-22v-16q0-12-10-22t-22-10h-84v80Zm-523 2v93q0 5.2-3.64 8.6-3.64 3.4-8.5 3.4-4.86 0-8.36-3.4-3.5-3.4-3.5-8.6v-187q0-5.2 3.64-8.6 3.64-3.4 8.5-3.4 4.86 0 8.36 3.4 3.5 3.4 3.5 8.6v70h116v-70q0-5.2 3.45-8.6 3.46-3.4 9-3.4 5.55 0 9.05 3.4 3.5 3.4 3.5 8.6v187q0 5.2-3.45 8.6-3.46 3.4-9 3.4-5.55 0-9.05-3.4-3.5-3.4-3.5-8.6v-93H40Zm237 93v-187q0-5.2 3.4-8.6 3.4-3.4 8.6-3.4h96q23 0 39.5 16.5T441-251v99q0 23-16.5 39.5T385-96h-96q-5.2 0-8.6-3.4-3.4-3.4-3.4-8.6Zm24-12h84q12 0 22-10t10-22v-99q0-12-10-22t-22-10h-84v163Z"/></svg>