<svg xmlns="http://www.w3.org/2000/svg" width="48" height="48" viewBox="0 96 960 960"><path d="M612.953 784q5.047 0 8.047-3.467 3-3.466 3-8.533v-51h51q5.067 0 8.533-2.953 3.467-2.954 3.467-8 0-5.047-3.467-8.547-3.466-3.5-8.533-3.5h-51v-51q0-5.067-2.953-8.033-2.954-2.967-8-2.967-5.047 0-8.547 2.967-3.5 2.966-3.5 8.033v51h-51q-5.067 0-8.533 3.453-3.467 3.454-3.467 8.5 0 5.047 3.467 8.047 3.466 3 8.533 3h51v51q0 5.067 3.453 8.533 3.454 3.467 8.5 3.467Zm-306-227q5.047 0 8.047-2.967 3-2.966 3-8.033v-91h120v90q0 5.067 3.453 8.533 3.454 3.467 8.5 3.467 5.047 0 8.047-2.967 3-2.966 3-8.033V361q0-5.067-2.953-8.533-2.954-3.467-8-3.467-5.047 0-8.547 3.467-3.5 3.466-3.5 8.533v71H318v-71q0-5.067-2.953-8.533-2.954-3.467-8-3.467-5.047 0-8.547 3.467-3.5 3.466-3.5 8.533v184q0 5.067 3.453 8.533 3.454 3.467 8.5 3.467ZM554 557h77q24 0 40-15.5t16-39.5v-97q0-24-16-40t-40-16h-77q-6 0-10 4.5t-4 10.537v178.926Q540 549 544 553q4 4 10 4Zm-74 367q-73 0-136.5-27T233 823q-47-47-74-110.5T132 576q0-73 27-136.5T233 329q47-47 110.5-74T480 228q73 0 136.5 27T727 329q47 47 74 110.5T828 576q0 73-27 136.5T727 823q-47 47-110.5 74T480 924Zm83-390V373h65q15 0 25 10t10 25v90q0 15-10 25.5T628 534h-65ZM404 739h-84v-80h84q15 0 25 10.5t10 25.5v9q0 15-10 25t-25 10Zm-84 23h72l31 76q2 3 4.5 4.5t6.022 1.5Q440 844 444 839t1-11l-28-66q20-5 32.5-19.734Q462 727.532 462 707v-16q0-22-16-38.5T407 636h-98q-5.067 0-8.533 3.467Q297 642.933 297 648v185q0 5.067 3.453 8.033 3.454 2.967 8.5 2.967 5.047 0 8.047-2.967 3-2.966 3-8.033v-71Z"/></svg>