<svg xmlns="http://www.w3.org/2000/svg" width="48" height="48" viewBox="0 96 960 960"><path d="m786 786-22-22V649h-54q-11 0-19 11t-11 20l-21-20q8-14 20.388-23.5 12.388-9.5 30.531-9.5H764v-92q0-118-83.5-202.5T479 248q-46 0-91.5 15.5T306 307l-15-17q30-25 79.5-44.5T479 226q64 0 120 24.5t97.684 66.5q41.684 42 65.5 98Q786 471 786 535v251ZM490 930q-4.725 0-7.862-3.188-3.138-3.188-3.138-7.987 0-3.825 3.138-7.325 3.137-3.5 7.862-3.5h252q6 0 12-2t11-7l-56-55h1q-22.525 0-38.263-15.737Q656 812.525 656 790L239 374q-21 31-34 75t-13 86v92h54q22.525 0 38.263 16.125Q300 659.25 300 681v109q0 22.525-15.737 38.263Q268.525 844 246 844h-22q-22.775 0-38.387-15.612Q170 812.775 170 790V535q0-49.831 15-95.415Q200 394 223 358L71 206q-3-3.182-3.5-7.591-.5-4.409 3.5-8.8Q74 186 78.5 186t8.5 4l783 783q3 3 3 7.658t-2.609 7.5Q866 992 861.5 991.5T852 987l-76-77q-8 10-20.5 15t-23.5 5H490ZM224 822h22q14 0 23-9t9-23V681q0-13-9-22.5t-23-9.5h-54v141q0 14 9 23t23 9Zm0 0h-32 86-54Zm540-58Z"/></svg>