<svg xmlns="http://www.w3.org/2000/svg" width="48" height="48" viewBox="0 -960 960 960"><path d="m721-343-16-15q42-54 64-116t22-128q0-69-22-132t-65-117q-3-4-3.5-8.5t3.5-8.5q4-3 9-1t9 7q44 54 67.5 121T813-602q0 71-23.5 137.5T721-343ZM613-451l-19-18q17-30 25.5-63.5T628-601q0-97-66.5-163.5T398-831q-35 0-67.5 9.5T269-794l-16-16q31-21 68-32t77-11q109 0 180.5 71.5T650-601q0 43-9 80.5T613-451ZM475-589l-89-88 6-2q3-1 6-1 33 0 55.5 23t22.5 56q0 3-.5 6.5t-.5 5.5Zm-77 66q-33 0-55.5-22.5T320-601q0-9 1.5-17t4.5-16l104 104q-7 4-15.5 5.5T398-523ZM848-80 551-377q-22 20-44.5 38.5T465-298q-15 19-27 38.5T417-218q-20 55-56 83.5T277-106q-47 0-83.5-28.5T147-209q0-5 3.5-8.5t8.5-3.5q5 0 8 3.5t4 8.5q9 36 39.5 58.5T277-128q41 0 69.5-23.5T396-226q10-25 24-47.5t32-43.5q20-21 41-39t42-37L200-728q-13 21-21 45.5T169-631q0 5-3 8t-8 3q-5 0-8-3t-3-8q3-31 12.5-59.5T185-743l-87-88q-3-2-3.5-7t3.5-8q3-4 7.5-4t7.5 4L864-96q3 3 3.5 8t-3.5 8q-4 4-8 4t-8-4Z"/></svg>