<svg xmlns="http://www.w3.org/2000/svg" width="48" height="48" viewBox="0 96 960 960"><path d="M277 950q-44 0-77.5-24T152 864q-2-7 2-12t11-5q3 0 5.5 2t3.5 4q11 33 39 54t64 21q41 0 69.5-23.5T396 830q10-23 17-37.5t20.5-31Q447 745 470 723t65-60L200 328q-11 19-18.5 40.5T171 413q-1 5-4.5 8.5T158 425q-5 0-7.5-3.5T149 413q4-28 13-52.5t23-47.5l-87-88q-3-2-3.5-7t3.5-8q3-4 7.5-4t7.5 4l751 750q3 3 3.5 7.5T864 976q-4 4-8 4t-8-4L551 679q-42 38-65.5 59.5t-36 36.5q-12.5 15-19 28.5T416 838q-20 55-55.5 83.5T277 950Zm444-237-16-15q42-54 64-116t22-128q0-71-23-135t-65-117q-4-3-3.5-7t4.5-7q3-2 7-2t7 2q46 54 70.5 122.5T813 454q0 71-23.5 137.5T721 713ZM613 605l-19-18q17-30 25.5-63.5T628 455q0-97-66.5-163.5T398 225q-35 0-67.5 9.5T269 262l-16-16q31-21 68-32t77-11q109 0 180.5 71.5T650 455q0 43-9 80.5T613 605ZM475 467l-89-88 6-2q3-1 6-1 33 0 55.5 23t22.5 56q0 3-.5 6.5t-.5 5.5Zm-77 66q-33 0-55.5-22.5T320 455q0-9 1.5-17t4.5-16l104 104q-7 4-15.5 5.5T398 533Z"/></svg>