<svg xmlns="http://www.w3.org/2000/svg" width="48" height="48" viewBox="0 -960 960 960"><path d="M480.228-296q4.772 0 7.772-3.162 3-3.163 3-7.838v-126q0-4.675-3.228-7.838-3.228-3.162-8-3.162T472-440.838q-3 3.163-3 7.838v126q0 4.675 3.228 7.838 3.228 3.162 8 3.162Zm-.035-239q9.807 0 17.307-7.693 7.5-7.693 7.5-17.5t-7.693-17.307q-7.693-7.5-17.5-7.5t-17.307 7.693q-7.5 7.693-7.5 17.5t7.693 17.307q7.693 7.5 17.5 7.5ZM266-172q-21.5 0-37.75-16.25T212-226v-321q0-13.5 5.25-24.5T234-590l214-162q13.36-11 31.68-11T512-752l214 162q11.5 7.5 16.75 18.5T748-547v321q0 21.5-16.25 37.75T694-172H266Zm0-22h428q14 0 23-9t9-23v-322q0-8-3.5-15t-9.5-11L499-733q-8-7-19-7t-19 7L247-574q-6 4-9.5 11t-3.5 15v322q0 14 9 23t23 9Zm214-274Z"/></svg>