<svg xmlns="http://www.w3.org/2000/svg" width="48" height="48" viewBox="0 96 960 960"><path d="M226 884q-23 0-38.5-15.5T172 830V322q0-23 15.5-38.5T226 268h508q23 0 38.5 15.5T788 322v508q0 23-15.5 38.5T734 884H226Zm255-115q9 0 16-6.5t7-15.5q0-9-7-16t-16-7q-9 0-15.5 7t-6.5 16q0 9 6.5 15.5T481 769Zm8-137q1-19 12.5-34.5T532 563q26-26 38.5-47.5T583 468q0-45-28-69.5T482 374q-35 0-64 16.5T378 431q-2 4 0 9t7 7q5 1 9.5-.5t8.5-6.5q11-18 29.5-29.5T480 399q42 0 61 20.5t19 48.5q0 22-11 40t-29 35q-28 27-41 48t-14 41q0 6 3 9.5t8 3.5q5 0 8.5-3.5t4.5-9.5Z"/></svg>