<svg xmlns="http://www.w3.org/2000/svg" width="48" height="48" viewBox="0 -960 960 960"><path d="M521-92q-52 0-80-45.5T413-240q0-57 28-102.5t80-45.5q51 0 79.5 45.5T629-240q0 57-28.5 102.5T521-92ZM234-480q0 92-11.5 182.5T187-118q-1.607 5.164-6.007 9.582-4.399 4.418-8.984 2.529-4.835-1.889-6.922-7Q163-118 165-124q24.045-86.976 35.523-176.269Q212-389.561 212-480.28q0-90.72-11.477-179.732Q189.045-749.024 165-837q-2-5 .087-10.111 2.087-5.111 6.672-7 4.585-1.889 8.984 1.935 4.4 3.825 6.257 10.176 24 89 35.5 179.5T234-480Zm515 .035q0 89.965 10.977 179.477Q770.955-210.976 795-124q2 6 .413 11.111-1.587 5.111-6.172 7-4.585 1.889-8.984-2.435-4.4-4.325-6.257-9.676-25-89-36-179.5T727-480q0-92 11-182.5T774-842q1.472-6.289 5.89-10.144 4.418-3.856 9.023-1.967 4.913 1.889 6.5 7Q797-842 795-837q-24.045 87.976-35.023 176.988Q749-571 749-479.965ZM520.5-114q42.5 0 64.5-39t22-87q0-48-22-87t-64.5-39q-42.5 0-64 39T435-240q0 48 21.5 87t64 39Zm-20.1-66q3.6 4 9.35 3.5t10.938-4.5q12.291-11 18.302-26.617 6.01-15.617 6.01-32.5T538.5-272q-6.5-15-17.798-27-4.17-4-9.436-4.5t-9.448 3.5Q497-296 497-290.5t4 10.5q7 8 11.5 18.5T517-240q0 11-4.5 21.5T501-200q-5 5-5 10.5t4.4 9.5ZM441-572q-52 0-80-45.5T333-720q0-57 28-102.5t80-45.5q51 0 79.5 45.5T549-720q0 57-28.5 102.5T441-572Zm-.5-22q42.5 0 64.5-39t22-87q0-48-22-87t-64.5-39q-42.5 0-64 39T355-720q0 48 21.5 87t64 39Zm20-66q3.6-4 3.55-9.5Q464-675 461-680q-8-8-12-18.403-4-10.403-4-21.5t4-21.597q4-10.5 12-18.5 4-5 4-10t-4.5-10q-3.864-4-10.182-4-6.318 0-9.418 4-11.486 11.846-17.693 27.5Q417-736.846 417-719.923t6 32.158q6 15.236 18 26.765 3 4 8.864 4.5 5.863.5 10.636-3.5ZM441-720Zm80 480Z"/></svg>