<svg xmlns="http://www.w3.org/2000/svg" width="48" height="48" viewBox="0 -960 960 960"><path d="M319-146q-13.793 0-26.684-6.875Q279.426-159.75 272-173L109-453q-7-13.328-7-27.164Q102-494 109-507l163-280q7.426-13.25 20.316-20.125Q305.207-814 319-814h322q13.793 0 26.684 6.875Q680.574-800.25 688-787l163 280q7 13.328 7 27.164Q858-466 851-453L688-173q-7.426 13.25-20.316 20.125Q654.793-146 641-146H319Zm-2-22h325q8 0 15.5-4t12.5-12l161-280q4-8 4-16t-4-16L669.967-776q-5-8-12.5-12t-15.5-4H317q-8 0-15 4t-12 12L128-496q-4 8-4 16t4 16l162 280q5 8 12 12t15 4Zm163-312Z"/></svg>