<svg xmlns="http://www.w3.org/2000/svg" width="48" height="48" viewBox="0 96 960 960"><path d="m794 920-83-82q-46 40-104.5 63T481 924q-72.21 0-135.72-26.905-63.51-26.905-110.99-74.385-47.48-47.48-74.385-110.99Q133 648.21 133 576q0-67 23-125.5T219 346l-83-84q-3-3-2.5-7.5t3.804-7.804Q140 244 144.5 244t8.5 3l658 658q2 3 1.5 7.5t-2.804 7.804Q806 924 801.5 924t-7.5-4Zm-20-155L292 283q40.731-26.212 88.366-40.606Q428 228 481 228q72.21 0 135.72 26.905 63.51 26.905 110.99 74.385 47.48 47.48 74.385 110.99Q829 503.79 829 576q0 53-14.394 100.634Q800.212 724.269 774 765Z"/></svg>