<svg xmlns="http://www.w3.org/2000/svg" width="48" height="48" viewBox="0 -960 960 960"><path d="M136-388v-184q0-5.467 3.253-8.733 3.254-3.267 8.7-3.267 5.447 0 8.747 3.267 3.3 3.266 3.3 8.733v71h118v-71q0-5.467 3.253-8.733 3.254-3.267 8.7-3.267 5.447 0 8.747 3.267 3.3 3.266 3.3 8.733v184q0 5.467-3.253 8.733-3.254 3.267-8.7 3.267-5.447 0-8.747-3.267-3.3-3.266-3.3-8.733v-89H160v89q0 5.467-3.253 8.733-3.254 3.267-8.7 3.267-5.447 0-8.747-3.267-3.3-3.266-3.3-8.733Zm275-9v-175q0-5.467 3.253-8.733 3.254-3.267 8.7-3.267 5.447 0 8.747 3.267 3.3 3.266 3.3 8.733v172h106q5.467 0 8.733 3.253 3.267 3.254 3.267 8.7 0 5.447-3.267 8.747-3.266 3.3-8.733 3.3H432q-8 0-14.5-6.5T411-397Zm251 21q-10.9 0-18.45-7.55Q636-391.1 636-402v-23q0-6 6-7.5t9-7.5h-6q6.2 0 10.6 4.9 4.4 4.9 4.4 10.1v25h120v-70H654q-7.95 0-12.975-5.025Q636-480.05 636-489v-69q0-10.9 7.55-18.45Q651.1-584 662-584h116q10.9 0 18.45 7.55Q804-568.9 804-558v23q0 6-6 7.5t-9 7.5h6q-6.2 0-10.6-4.9-4.4-4.9-4.4-10.1v-25H660v70h126q7.95 0 12.975 5.025Q804-479.95 804-472v70q0 10.9-7.55 18.45Q788.9-376 778-376H662Z"/></svg>