<svg xmlns="http://www.w3.org/2000/svg" width="48" height="48" viewBox="0 -960 960 960"><path d="M204-266v-249q0-11.444 4.5-21.722T221-555l134-134q8.105-8 17.737-11 9.631-3 19.263-3 9.667 0 19.333 3Q421-697 430-689l134 134q7 8 11.5 18.278Q580-526.444 580-515v249q0 21.75-16.125 37.875T526-212H258q-21.75 0-37.875-16.125T204-266Zm54 32h109v-59q0-9.725 7.193-17.362 7.193-7.638 18-7.638 9.807 0 17.307 7.638Q417-302.725 417-293v59h109q14 0 23-9t9-23v-250q0-6-2-12t-7-10L415-672q-9-9-23-9t-23 9L235-538q-5 4-7 10t-2 12v250q0 14 9 23t23 9Zm388 12v-328q0-6-2-11.5t-7-10.5L503-706q-5-5-2.073-12.5 2.928-7.5 11.382-7.5 1.691 0 3.691.5 2 .5 4.104 2.569L652-592q7 8 11.5 18.278Q668-563.444 668-552v330q0 4.725-3.193 7.863-3.193 3.137-8 3.137T649-214.137q-3-3.138-3-7.863Zm88 0v-365q0-6-2-11.5t-7-10.5l-96-96q-5-5-2.073-13 2.928-8 11.382-8 1.691 0 3.691.5 2 .5 3.744 2.18L741-629q7 8 11 18.278 4 10.278 4 21.722v367q0 4.725-3.193 7.863-3.193 3.137-8 3.137T737-214.137q-3-3.138-3-7.863Zm-476-12h300-332 32Zm133.807-221q-9.807 0-17.307-7.693-7.5-7.693-7.5-17.5t7.693-17.307q7.693-7.5 17.5-7.5t17.307 7.693q7.5 7.693 7.5 17.5t-7.693 17.307q-7.693 7.5-17.5 7.5Z"/></svg>