<svg xmlns="http://www.w3.org/2000/svg" width="48" height="48" viewBox="0 96 960 960"><path d="M290 852q-19.658 0-34.962-12.679Q239.734 826.642 237 807l-50.609-299.703Q184 495 191.762 485.5 199.524 476 213 476h534q13.476 0 21.238 9.5 7.762 9.5 5.371 21.797L723 807q-2.734 19.642-18.038 32.321Q689.658 852 670 852H290Zm110-220h160q4.95 0 7.975-3.035 3.025-3.035 3.025-8T567.975 613q-3.025-3-7.975-3H400q-4.95 0-7.975 3.035-3.025 3.035-3.025 8t3.025 7.965q3.025 3 7.975 3ZM240 410q-4.95 0-7.975-3.035-3.025-3.035-3.025-8t3.025-7.965q3.025-3 7.975-3h480q4.95 0 7.975 3.035 3.025 3.035 3.025 8T727.975 407q-3.025 3-7.975 3H240Zm80-88q-4.95 0-7.975-3.035-3.025-3.035-3.025-8t3.025-7.965q3.025-3 7.975-3h320q4.95 0 7.975 3.035 3.025 3.035 3.025 8T647.975 319q-3.025 3-7.975 3H320Z"/></svg>