<svg xmlns="http://www.w3.org/2000/svg" width="48" height="48" viewBox="0 96 960 960"><path d="M276.212 472q-19.837 0-33.524-13.475Q229 445.05 229 425.212q0-19.837 13.475-33.524Q255.95 378 275.788 378q19.837 0 33.524 13.475Q323 404.95 323 424.788q0 19.837-13.475 33.524Q296.05 472 276.212 472ZM188 924q-21.5 0-37.75-16.25T134 870V662.5q0-11.263 7.762-18.881Q149.525 636 161 636h84v-82q0-17.422 11.844-29.211Q268.689 513 286 513q12.444 0 22.207 4.3 9.764 4.3 17.981 14.068L379 589q8.783 10.909 22.891 22.955Q416 624 434 636h365q11.475 0 19.237 7.619Q826 651.237 826 662.5V870q0 21.5-16.25 37.75T772 924H188Zm575.323-416q-6.323 0-8.823-5.134T754 490q3-28-9-51t-33-45q-20-25-33-51.5t-9-55.5q1-10 3.432-14.5 2.433-4.5 8.31-4.5 6.087 0 8.672 6.15Q693 280.3 692 289q-3 25 7.5 46.5T730 379q23 24 36 52.5t10 57.5q-2 8.882-4.671 13.941-2.671 5.059-8.006 5.059Zm-159.613 0q-6.71 0-9.21-5.695Q592 496.61 594 489q2-27-10-50t-32-45q-20-25-33-51.5t-9-55.5q1-10 3.432-14.5 2.433-4.5 8.31-4.5 6.087 0 8.672 6.15Q533 280.3 532 289q-3 25 7 46.5t31 43.5q22 25 35.5 54t10.5 56q-2 10.471-4 14.735-2 4.265-8.29 4.265ZM673 902h79q11.475 0 19.237-7.763Q779 886.475 779 875V685q0-11.475-7.763-19.237Q763.475 658 752 658h-79q-11.475 0-19.237 7.763Q646 673.525 646 685v190q0 11.475 7.763 19.237Q661.525 902 673 902Zm-155 0h79q11.475 0 19.237-7.763Q624 886.475 624 875V685q0-11.475-7.763-19.237Q608.475 658 597 658h-79q-11.475 0-19.237 7.763Q491 673.525 491 685v190q0 11.475 7.763 19.237Q506.525 902 518 902Zm-155 0h79q11.475 0 19.237-7.763Q469 886.475 469 875V685q0-11.475-7.763-19.237Q453.475 658 442 658h-79q-11.475 0-19.237 7.763Q336 673.525 336 685v190q0 11.475 7.763 19.237Q351.525 902 363 902Zm-155 0h79q11.475 0 19.237-7.763Q314 886.475 314 875V685q0-11.475-7.763-19.237Q298.475 658 287 658h-79q-11.475 0-19.238 7.763Q181 673.525 181 685v190q0 11.475 7.762 19.237Q196.525 902 208 902Z"/></svg>