<svg xmlns="http://www.w3.org/2000/svg" width="48" height="48" viewBox="0 -960 960 960"><path d="M480-515ZM266-212q-21.75 0-37.87-16.13Q212-244.25 212-266v-338l-98 73q-3.61 2-7.8 1.5-4.2-.5-7.2-3.94-3-3.56-2.64-7.8.36-4.24 4.64-7.76l347-256q8.08-5 15.73-7.5 7.64-2.5 16.23-2.5 7.59 0 15.77 2.5 8.19 2.5 16.27 7.5l349 257q3 3 3.5 7t-2.5 7.5q-3 3.5-7.5 4.5t-7.5-2L499-787q-8-6-19-6t-19 6L234-618.67V-266q0 14 9 23t23 9h81q5.13 0 8.56 3.19 3.44 3.2 3.44 8 0 4.81-3.14 7.81-3.13 3-7.86 3h-82Zm310 66.5q-5-1.5-9-5.5L465-253q-3-2-3-7t3-8.5q3-3.5 7.91-3T481-268l105 105 220-218q2-3 6.5-3t7.5 2.5q3 2.5 3 8t-3 7.5L605-151q-4 4-8.53 5.5-4.54 1.5-10 1.5-5.47 0-10.47-1.5Z"/></svg>