<svg xmlns="http://www.w3.org/2000/svg" width="48" height="48" viewBox="0 96 960 960"><path d="M198 924q-21.5 0-37.75-16.25T144 870V282q0-21.5 16.25-37.75T198 228h308q21.5 0 37.75 16.25T560 282v588q0 21.5-16.25 37.75T506 924H198Zm-32-337q16-18 37.806-28.5Q225.613 548 252 548h200q26.387 0 48.194 10.5Q522 569 538 587V282q0-14-9-23t-23-9H198q-14 0-23 9t-9 23v305Zm185.832-134Q330 453 315.5 438.332t-14.5-36.5Q301 380 315.668 365.5t36.5-14.5Q374 351 388.5 365.668t14.5 36.5Q403 424 388.332 438.5t-36.5 14.5ZM198 902h308q14 0 23-9t9-23V656q0-36.225-24.888-61.112Q488.225 570 452 570H252q-36.225 0-61.113 24.888Q166 619.775 166 656v214q0 14 9 23t23 9Zm143-155v69q0 4.675 3.228 7.838 3.228 3.162 8 3.162t7.772-3.162q3-3.163 3-7.838v-69h69q4.675 0 7.838-3.228 3.162-3.228 3.162-8T439.838 728q-3.163-3-7.838-3h-69v-69q0-4.675-3.228-7.838-3.228-3.162-8-3.162T344 648.162q-3 3.163-3 7.838v69h-69q-4.675 0-7.838 3.228-3.162 3.228-3.162 8t3.162 7.772q3.163 3 7.838 3h69ZM198 902h-32 372-340Zm544.158-230q-2.842 3-7.3 3T727 672l-76-77q-8-8.182-8-19.091T651 557l76-77q3.2-3 7.6-3 4.4 0 7.4 3t3.5 7.867q.5 4.866-2.5 7.133l-70 70h165q4.675 0 7.838 3.228 3.162 3.228 3.162 8T845.838 584q-3.163 3-7.838 3H674l69 69q2 3.467 2 8.233 0 4.767-2.842 7.767Z"/></svg>