<svg xmlns="http://www.w3.org/2000/svg" width="48" height="48" viewBox="0 96 960 960"><path d="M479.807 702Q475 702 472 698.862q-3-3.137-3-7.862V267l-91 90q-2.25 3-6.625 3t-7.766-4.053q-3.609-3.052-3.609-7.5 0-4.447 4-8.447l97-97q4-4 8.674-6.5Q474.348 234 480 234q4.565 0 9.283 2.5Q494 239 499 243l98 98q3 3 3 7t-4.158 8q-4.158 4-8 4-3.842 0-7.842-4l-89-89v424q0 4.725-3.193 7.862-3.193 3.138-8 3.138ZM266 964q-22.775 0-38.387-15.612Q212 932.775 212 910V513q0-22.775 15.613-38.388Q243.225 459 266 459h78q4.725 0 7.862 3.193 3.138 3.193 3.138 8T351.862 478q-3.137 3-7.862 3h-78q-12 0-22 10t-10 22v397q0 12 10 22t22 10h428q12 0 22-10t10-22V513q0-12-10-22t-22-10h-78q-4.725 0-7.862-3.193-3.138-3.193-3.138-8t3.138-7.807q3.137-3 7.862-3h78q22.775 0 38.388 15.612Q748 490.225 748 513v397q0 22.775-15.612 38.388Q716.775 964 694 964H266Z"/></svg>