<svg xmlns="http://www.w3.org/2000/svg" width="48" height="48" viewBox="0 96 960 960"><path d="M146 884q-22.775 0-38.387-15.612Q92 852.775 92 830V362q0-22.775 15.613-38.388Q123.225 308 146 308h668q22.775 0 38.388 15.612Q868 339.225 868 362v468q0 22.775-15.612 38.388Q836.775 884 814 884H146Zm0-22h668q12 0 22-10t10-22V362q0-12-10-22t-22-10H146q-12 0-22 10t-10 22v468q0 12 10 22t22 10Zm224-382h58v-58h-58v58Zm-163 0h58v-58h-58v58Zm131 295h284q8 0 13-5t5-12.5q0-7.5-5-12.5t-13-5H338q-8 0-13 5t-5 12.5q0 7.5 5 12.5t13 5Zm194-295h58v-58h-58v58ZM370 642h58v-58h-58v58Zm-163 0h58v-58h-58v58Zm325 0h58v-58h-58v58Zm163-162h58v-58h-58v58Zm0 162h58v-58h-58v58ZM114 862V330v532Z"/></svg>