<svg xmlns="http://www.w3.org/2000/svg" width="48" height="48" viewBox="0 -960 960 960"><path d="M480-132q-69 0-117.5-47T314-294v-364q-26 0-44-17.5T252-719v-47q0-26 18-44t44-18h331q26 0 44.5 18t18.5 44v47q0 26-18.5 43.5T645-658v379q-6 63-53.5 105T480-132ZM308-680h343q14 0 24.5-9.5T686-713v-59q0-14-10.5-24T651-806H308q-14 0-24 10t-10 24v59q0 14 10 23.5t24 9.5Zm171.647 526Q539-154 581-194.25q42-40.25 42-99.75v-45H498q-4.725 0-7.862-3.193-3.138-3.193-3.138-8t3.138-7.807q3.137-3 7.862-3h125v-130H498q-4.725 0-7.862-3.193-3.138-3.193-3.138-8t3.138-7.807q3.137-3 7.862-3h125v-145H336v364q0 59.5 42.147 99.75t101.5 40.25ZM274-680v-126 126Z"/></svg>