<svg xmlns="http://www.w3.org/2000/svg" width="48" height="48" viewBox="0 0 48 48"><path d="M14.3 22.55q-1.05 4-3.075 7-2.025 3-5.025 4.65-.3.2-.625.175-.325-.025-.525-.275-.2-.2-.1-.45t.35-.4q2.95-1.6 4.875-4.5 1.925-2.9 2.925-6.65H5.3q-.25 0-.425-.175T4.7 21.5q0-.25.2-.425t.45-.175h8.1q.3-1.4.475-2.9t.225-3.05q0-.3.15-.525.15-.225.45-.225.3 0 .475.225t.175.525q-.05 1.55-.225 3.05-.175 1.5-.475 2.9h9.8q.25 0 .425.175t.175.425q0 .25-.175.425t-.425.175h-9.05q1.3 3.9 3.55 6.75t5.35 4.45q.25.1.4.35.15.25 0 .45-.25.25-.575.275-.325.025-.625-.175-3.25-1.7-5.6-4.7-2.35-3-3.65-6.95ZM33.7 33.6q1.7 0 3.475-.925 1.775-.925 3.375-2.575v-7.35q-1.55.3-2.8.625-1.25.325-2.55.725-2.8.95-4.125 2.35-1.325 1.4-1.325 3.2 0 1.8 1.075 2.875T33.7 33.6Zm.1 1.05q-2.3 0-3.725-1.4-1.425-1.4-1.425-3.65 0-2.15 1.6-3.75t4.8-2.75q.8-.3 2.15-.6 1.35-.3 3.35-.7v-.65q0-3.1-1-4.7t-3.6-1.6q-1.25 0-2.5.4t-2.5 1.15q-.2.15-.4.075t-.35-.225q-.1-.25-.025-.45.075-.2.275-.35 1.4-.8 2.75-1.225 1.35-.425 2.65-.425 3.05 0 4.425 1.9T41.65 21v12.7q0 .25-.15.375t-.35.125q-.2 0-.35-.125-.15-.125-.15-.325l-.15-2.3q-1.6 1.55-3.375 2.375t-3.325.825Z"/></svg>