<svg xmlns="http://www.w3.org/2000/svg" width="48" height="48" viewBox="0 -960 960 960"><path d="M215.787-445q30.876 0 54.044-14Q293-473 293-501q0-28.043-23.124-42.021-23.123-13.979-54-13.979Q185-557 163-542.764q-22 14.236-22 41.521 0 27.743 21.955 41.993Q184.91-445 215.787-445ZM115-614q-4.909 0-8.455-4.226-3.545-4.226-3.545-9t3.545-8.274q3.546-3.5 8.455-3.5h88v-52q0-5.077 3.135-8.538Q209.27-703 214.919-703q5.649 0 9.365 3.462Q228-696.077 228-691v52h88q5.318 0 9.159 3.921 3.841 3.921 3.841 8.273 0 4.761-3.841 8.783Q321.318-614 316-614H115Zm100.558 194Q174-420 145-441.15 116-462.3 116-501q0-38.022 29.004-59.511Q174.009-582 216.474-582 258-582 288-560.42q30 21.581 30 59.778 0 38.198-30 59.42T215.558-420ZM204-277q-11.475 0-19.238-8.25Q177-293.5 177-304v-71q0-5.077 3.579-8.538 3.579-3.462 8.5-3.462 4.921 0 8.921 3.462 4 3.461 4 8.538v73h211q4.682 0 8.841 3.565 4.159 3.564 4.159 8.5 0 4.935-4.159 8.935-4.159 4-8.841 4H204Zm209.649-104Q408-381 405-384.75q-3-3.75-3-9.25v-272q0-5 3.5-8t8.5-3q5 0 8.5 3t3.5 8v121h68q4.682 0 8.841 3.565 4.159 3.564 4.159 8.5 0 4.935-4.159 8.935-4.159 4-8.841 4h-67v126q0 5.5-3.851 9.25-3.852 3.75-9.5 3.75Zm260.585 93q33.803 0 69.285-18.5Q779-325 811-357.631V-505q-30.565 5.909-55.782 12.455Q730-486 704-478q-56 18.782-82.5 46.986Q595-402.81 595-366.872q0 36.158 21.609 57.515Q638.219-288 674.234-288Zm1.566 21q-45.8 0-74.3-28T573-368q0-43 32-75t95.719-55q16.281-6 43.333-11.786Q771.103-515.571 811-524v-13q0-62-20-94t-72-32q-24.623 0-49.811 8Q644-647 619-632q-4 3-8.349 2.167-4.348-.834-7.651-4.167-2-5 0-9.5t6-7.5q28.033-16.447 55.217-24.724Q691.4-684 716.633-684 778-684 805.5-646 833-608 833-540v254q0 4.242-2.681 7.121-2.682 2.879-6.633 2.879h-1.411q-3.639 0-6.275-2.466-2.636-2.465-3-6.534l-3-46q-32 31-67.5 47.5T675.8-267Z"/></svg>