<svg xmlns="http://www.w3.org/2000/svg" width="48" height="48" viewBox="0 0 48 48"><path d="M4.3 34q-.15-.25-.075-.525t.325-.425q.8-.5 1.55-1.125t1.45-1.275v-6.4H4.8q-.25 0-.45-.2t-.2-.45q0-.25.2-.425T4.8 23h3.35q.25 0 .45.2t.2.45v6.85q1.15 1.4 2.775 2.075 1.625.675 3.425.675h4.825q2.425 0 4.875-.15.3-.05.45.15.15.2.1.5 0-.05.025-.1t.025-.1q-.05.35-.375.675-.325.325-.625.325-2.35.1-4.7.025-2.35-.075-4.65-.075-1.95 0-3.725-.75Q9.45 33 8.15 31.6q-.7.7-1.425 1.35Q6 33.6 5.2 34.2q-.2.15-.5.125-.3-.025-.4-.325Zm19.2-3.2q-1.5-.75-2.95-1.725-1.45-.975-2.6-2.275l.35 4.5q.05.3-.175.5-.225.2-.475.2-.3 0-.45-.15-.15-.15-.2-.45l-.35-4.75q-1.15 1.4-2.25 2.4t-2.5 1.85q-.25.15-.525.1-.275-.05-.425-.25-.2-.2-.175-.45.025-.25.275-.35 1.5-.75 2.675-1.775Q14.9 27.15 16.05 25.75h-4q-.3 0-.5-.2t-.2-.5V20.8q0-.25.2-.45t.5-.2h4.65v-2.3H11q-.3 0-.475-.15t-.175-.45q0-.3.175-.475T11 16.6h5.7v-1.75q0-.25.2-.425t.45-.175q.25 0 .425.175t.175.425v1.75h6.2q.25 0 .425.175t.175.475q0 .3-.175.45-.175.15-.425.15h-6.2v2.3h5q.25 0 .45.2t.2.45V25q0 .3-.2.5t-.45.2H18.5q1.2 1.35 2.725 2.35 1.525 1 3.175 1.75.25.1.3.35.05.25-.15.45t-.5.25q-.3.05-.55-.05Zm-10.95-6.35h4.1V21.4h-4.1Zm5.35 0h4.45V21.4H17.9Zm-9.95-6.6q-.6-.75-1.3-1.4-.7-.65-1.5-1.25-.2-.1-.225-.325-.025-.225.175-.425.2-.15.425-.175.225-.025.475.125.75.65 1.475 1.3.725.65 1.425 1.35.2.2.175.425-.025.225-.225.375-.2.2-.475.2-.275 0-.425-.2ZM33.7 33.6q1.7 0 3.475-.925 1.775-.925 3.375-2.575v-7.35q-1.55.3-2.8.625-1.25.325-2.55.725-2.8.95-4.125 2.35-1.325 1.4-1.325 3.2 0 1.8 1.075 2.875T33.7 33.6Zm.1 1.05q-2.3 0-3.725-1.4-1.425-1.4-1.425-3.65 0-2.15 1.6-3.75t4.8-2.75q.8-.3 2.15-.6 1.35-.3 3.35-.7v-.65q0-3.1-1-4.7t-3.6-1.6q-1.25 0-2.5.4t-2.5 1.15q-.2.15-.4.075t-.35-.225q-.1-.25-.025-.45.075-.2.275-.35 1.4-.8 2.75-1.225 1.35-.425 2.65-.425 3.05 0 4.425 1.9T41.65 21v12.7q0 .2-.125.35-.125.15-.325.15h-.1q-.15 0-.3-.125t-.15-.325l-.15-2.3q-1.6 1.55-3.375 2.375t-3.325.825Z"/></svg>