<svg xmlns="http://www.w3.org/2000/svg" width="48" height="48" viewBox="0 -960 960 960"><path d="m592-452-16-15 111-87q12-9 12-24.5T687-604L500-749q-8-7-19.5-7t-20.5 7l-94 73-16-16 97-76q15-11 33-11t33 12l188 145q21 15.882 21 42.441Q722-553 701-536l-109 84Zm69 69-15-15 86-66q3.105-3 7.053-3 3.947 0 7.095 3 3.852 3 3.352 8.5T745-447l-84 64ZM814-93 585-322l-72 55q-14.5 12-32.75 12T447-267L215-447q-4-2.941-4.5-8.471Q210-461 214.075-464q3.302-3 7.114-3 3.811 0 6.811 3l232 179q9 7 20 7t20-7l68-54-64-65h27l-18 15q-15 11-33 11t-32-12L256-538q-20-15.882-20-40.941Q236-604 256-620l17-13L87-819q-3-3-3-7.5t4.053-8.5q3.052-4 7.5-4 4.447 0 7.447 4l727 726q3 3 3 7.5t-3 8.5q-4 4-8.5 4t-7.5-4ZM471-572Z"/></svg>