<svg xmlns="http://www.w3.org/2000/svg" width="48" height="48" viewBox="0 96 960 960"><path d="m469 764-213-90q-6.367-2.689-10.184-8.926Q242 658.838 242 652v-92q0-9.75 7.125-16.875T266 536h203V416h-83q-9.75 0-16.875-7.125T362 392V284q0-9.75 7.125-16.875T386 260h188q9.75 0 16.875 7.125T598 284v108q0 9.75-7.125 16.875T574 416h-83v120h203q9.75 0 16.875 7.125T718 560v92q0 6.838-3.816 13.074Q710.367 671.311 704 674l-213 90v113q0 4.75-3.175 7.875-3.176 3.125-8 3.125-4.825 0-7.825-3.125T469 877V764Zm-85-370h192V282H384v112Zm85 346V558H264v95l205 87Zm22 0 205-87v-95H491v182ZM384 394V282v112Z"/></svg>