<svg xmlns="http://www.w3.org/2000/svg" width="48" height="48" viewBox="0 0 48 48"><path d="M32.95 41.4q-.55 0-.95-.4-.4-.4-.4-.95V34.2q0-.25.15-.4.15-.15.4-.15t.4.15q.15.15.15.4v5.75q2.7-3.2 4.15-7.275Q38.3 28.6 38.3 23.95q0-4.65-1.45-8.7-1.45-4.05-4.15-7.2v5.75q0 .25-.15.4-.15.15-.4.15t-.4-.15q-.15-.15-.15-.4V7.95q0-.55.4-.95.4-.4.95-.4h5.85q.25 0 .4.15.15.15.15.4t-.15.4q-.15.15-.4.15h-4.95q2.65 3.3 4.1 7.45Q39.4 19.3 39.4 24q0 4.7-1.45 8.85-1.45 4.15-4.1 7.45h4.95q.25 0 .4.15.15.15.15.4t-.15.4q-.15.15-.4.15Zm-19.2-6.45h3.55v-2.5h-3.55Zm5.05 0h3.7v-2.5h-3.7Zm-3.85-5.25q-.3 0-.5-.2t-.2-.5v-.8H11.5q-.3 0-.5-.2t-.2-.5q0-.3.2-.5t.5-.2h2.75v-.55q0-.3.2-.5t.5-.2q.3 0 .5.2t.2.5v.55h4.8v-.55q0-.3.2-.5t.5-.2q.3 0 .5.2t.2.5v.55h2.7q.3 0 .5.2t.2.5q0 .3-.2.5t-.5.2h-2.7v.8q0 .3-.2.5t-.5.2q-.3 0-.5-.2t-.2-.5v-.8h-4.8v.8q0 .3-.2.5t-.5.2ZM18 37.05q-.75 1.2-2.05 2.075-1.3.875-3.6 1.675-.4.15-.75.05-.35-.1-.6-.45-.15-.25 0-.475.15-.225.5-.325 1.85-.4 3.2-1.225 1.35-.825 2.1-2.025h-5.5q-.3 0-.5-.2t-.2-.5q0-.3.2-.5t.5-.2h1.05V31.7q0-.25.2-.45t.5-.2h4.2v-.95q0-.3.225-.525.225-.225.525-.225.3 0 .525.225.225.225.225.525v.95h4.5q.25 0 .45.2t.2.45v3.25h.85q.3 0 .5.2t.2.5q0 .3-.2.5t-.5.2H19.1q1.25 1.3 2.675 2.125Q23.2 39.3 24.7 39.65q.3.1.475.325t.025.475q-.2.35-.525.475t-.725.025q-1.75-.4-3.275-1.375T18 37.05Zm-.4-16.45-1.4-.1q-.2 0-.35-.125-.15-.125-.2-.375-.1-.3.1-.525.2-.225.5-.225h.95q.6 0 1.075-.275T19 18q.25-.6.375-1.775.125-1.175.125-1.875 0-1.45-.575-1.875-.575-.425-1.375-.425h-1.5q-.5 2-1.25 3.95-.75 1.95-1.85 4-.2.3-.5.45-.3.15-.6 0t-.375-.475q-.075-.325.125-.625 1-1.75 1.7-3.5t1.2-4h-2.8q-.3 0-.5-.2t-.2-.5q0-.3.2-.5t.5-.2h3.1q.2-.65.3-1.275.1-.625.2-1.325.05-.35.3-.525.25-.175.55-.075.35.15.55.45.2.3.1.7-.15.7-.275 1.225-.125.525-.225 1.025h1.85q1.15 0 1.95.775t.8 2.675q0 .85-.175 2.125t-.575 2.325q-.3.8-.55 1.125-.25.325-.6.575-.3.2-.65.3-.35.1-.75.05Zm7.6-5.3q-.4.15-.725-.025-.325-.175-.425-.575-.35-1.05-.825-2.025-.475-.975-1.075-1.975-.2-.3-.1-.65.1-.35.4-.5.35-.15.675-.025.325.125.525.475.55 1 1.05 2t.9 2.05q.15.4.05.75-.1.35-.45.5Z"/></svg>