<svg xmlns="http://www.w3.org/2000/svg" width="48" height="48" viewBox="0 -960 960 960"><path d="M194-194v-572 572Zm32 22q-22.77 0-38.39-15.61Q172-203.23 172-226v-508q0-22.78 15.61-38.39Q203.23-788 226-788h508q22.78 0 38.39 15.61T788-734v325q0 5.23-3.23 8.62-3.23 3.38-8 3.38t-7.77-3.16q-3-3.16-3-7.84v-326q0-12-10-22t-22-10H226q-12 0-22 10t-10 22v508q0 12 10 22t22 10h264q4.68 0 7.84 3.23t3.16 8q0 4.77-3.16 7.77t-7.84 3H226Zm112-141.07q7-7.07 7-18T337.93-349q-7.07-7-18-7T302-348.93q-7 7.07-7 18t7.07 17.93q7.07 7 18 7t17.93-7.07Zm0-149q7-7.07 7-18T337.93-498q-7.07-7-18-7T302-497.93q-7 7.07-7 18t7.07 17.93q7.07 7 18 7t17.93-7.07Zm0-149q7-7.07 7-18T337.93-647q-7.07-7-18-7T302-646.93q-7 7.07-7 18t7.07 17.93q7.07 7 18 7t17.93-7.07ZM646-469q4.67 0 7.84-3.23 3.16-3.23 3.16-8t-3.16-7.77q-3.17-3-7.84-3H459q-4.68 0-7.84 3.23t-3.16 8q0 4.77 3.16 7.77t7.84 3h187Zm0-149q4.67 0 7.84-3.23 3.16-3.23 3.16-8t-3.16-7.77q-3.17-3-7.84-3H459q-4.68 0-7.84 3.23t-3.16 8q0 4.77 3.16 7.77t7.84 3h187ZM451.16-323q3.16 3 7.84 3h76q4.68 0 7.84-3.23t3.16-8q0-4.77-3.16-7.77t-7.84-3h-76q-4.68 0-7.84 3.23t-3.16 8q0 4.77 3.16 7.77ZM708-186H599q-4.67 0-7.84-3.23-3.16-3.23-3.16-8t3.16-7.77q3.17-3 7.84-3h109v-109q0-4.68 3.23-7.84t8-3.16q4.77 0 7.77 3.16t3 7.84v109h109q4.67 0 7.84 3.23 3.16 3.23 3.16 8t-3.16 7.77q-3.17 3-7.84 3H730v109q0 4.67-3.23 7.84-3.23 3.16-8 3.16T711-69.16q-3-3.17-3-7.84v-109Z"/></svg>