<svg xmlns="http://www.w3.org/2000/svg" width="48" height="48" viewBox="0 96 960 960"><path d="M306 424q-4.675 0-7.838-3.228-3.162-3.228-3.162-8t3.162-7.772q3.163-3 7.838-3h497q4.675 0 7.838 3.228 3.162 3.228 3.162 8T810.838 421q-3.163 3-7.838 3H306Zm0 163q-4.675 0-7.838-3.228-3.162-3.228-3.162-8t3.162-7.772q3.163-3 7.838-3h497q4.675 0 7.838 3.228 3.162 3.228 3.162 8T810.838 584q-3.163 3-7.838 3H306Zm0 163q-4.675 0-7.838-3.228-3.162-3.228-3.162-8t3.162-7.772q3.163-3 7.838-3h497q4.675 0 7.838 3.228 3.162 3.228 3.162 8T810.838 747q-3.163 3-7.838 3H306ZM165.053 432q-8.053 0-13.553-5.447-5.5-5.448-5.5-13.5 0-8.053 5.447-13.553 5.448-5.5 13.5-5.5 8.053 0 13.553 5.447 5.5 5.448 5.5 13.5 0 8.053-5.447 13.553-5.448 5.5-13.5 5.5Zm0 163q-8.053 0-13.553-5.447-5.5-5.448-5.5-13.5 0-8.053 5.447-13.553 5.448-5.5 13.5-5.5 8.053 0 13.553 5.447 5.5 5.448 5.5 13.5 0 8.053-5.447 13.553-5.448 5.5-13.5 5.5Zm0 163q-8.053 0-13.553-5.447-5.5-5.448-5.5-13.5 0-8.053 5.447-13.553 5.448-5.5 13.5-5.5 8.053 0 13.553 5.447 5.5 5.448 5.5 13.5 0 8.053-5.447 13.553-5.448 5.5-13.5 5.5Z"/></svg>