<svg xmlns="http://www.w3.org/2000/svg" width="48" height="48" viewBox="0 -960 960 960"><path d="M186-132q-22.775 0-38.387-15.613Q132-163.225 132-186v-422q0-22.775 15.613-38.388Q163.225-662 186-662h121l69-77q4-4 9-6.5t11-2.5h46q0 6-.5 12.797-.5 6.797-.5 15.203 0 21.193 2.5 41.596Q446-658 452-640H186q-12 0-22 10t-10 22v422q0 12 10 22t22 10h588q12 0 22-10t10-22v-205q4.574-5.831 10.287-10.915Q822-407 828-415v229q0 22.775-15.612 38.387Q796.775-132 774-132H186Zm291-124q59 0 103.5-40.5T623-404q-7-6-15.5-13.5T590-435q4 7 5.5 15t1.5 17q0 52-34 88.5T477-278q-50.5 0-84.75-34.25T358-397q0-50 35-85t85-35q14 0 27.5 4t24.5 12q-8-9-16-20t-14-19q-70-5-117 35.5T336-397q0 60 40.5 100.5T477-256Zm243.069-170q4.931 0 10.063-1.682 5.131-1.682 9.169-5.636 60.315-57.877 123.007-126.417Q925-628.276 925-720.787q0-97.563-61.836-154.388t-143-56.825Q639-932 577-875.175q-62 56.825-62 154.388 0 92.511 62.692 161.052 62.692 68.54 123.007 126.417 4.038 3.954 9.238 5.636Q715.138-426 720.069-426ZM720-443Q600.65-553.968 568.825-610.836 537-667.704 537-720q0-92.536 58.192-140.768t125-48.232Q787-909 845-860.872t58 140.467q0 51.989-31.975 109.321T720-443Zm-240 46Zm240-279Zm0-7-35 26q-4 2-7.5-.094T675-664l14-43-37-30q-4-1.833-2.625-6.417Q650.75-748 656-748h44l14-44q1-4 6-4t6 4l15.159 44h44.046q4.045 0 5.42 4.583Q792-738.833 788-737l-37 30 14 43q2 4.812-2 6.906-4 2.094-8 .094l-35-26Z"/></svg>