<svg xmlns="http://www.w3.org/2000/svg" width="48" height="48" viewBox="0 96 960 960"><path d="M457 908q-57.746-41.345-123.373-67.172Q268 815 197 806q-11-.702-18-9.351Q172 788 172 778V472q0-8.793 6-13.397Q184 454 192 454q81 12 155 51.5T480 597q59-52 133-91.5T768 454q8 0 14 4.603 6 4.604 6 13.397v306q0 10.437-7 18.718Q774 805 763 806q-71 9-136.627 34.828Q560.746 866.655 503 908q-10 6-23 6t-23-6Zm24-478q-48.5 0-83.25-34.25T363 312q0-48.5 34.75-83.25T481 194q48.5 0 83.25 34.75T599 312q0 49.5-34.75 83.75T481 430Z"/></svg>