<svg xmlns="http://www.w3.org/2000/svg" width="48" height="48" viewBox="0 96 960 960"><path d="m525 518-67-67q5-3 10.5-4.5T480 445q20.875 0 35.938 15.062Q531 475.125 531 496q0 6-1.5 11.5T525 518Zm-63.921 421.075Q322 811 254 700.5T186 504q0-43 10.105-81.488Q206.211 384.024 223 351L97 224q-3-2.311-3-6.656 0-4.344 2.86-7.561 3.21-3.783 8.11-3.783 4.9 0 8.03 4l751 750q4 4.511 4 8.756 0 4.244-4.011 7.592-4.375 3.652-8.182 3.652-3.807 0-7.807-4L651 779q-31 38-68.357 77.855Q545.286 896.709 499 939q-3 3-8.25 4.5t-10.5 1.5q-5.25 0-10.25-1.5t-8.921-4.425ZM707 699q34-55.076 50.5-103.538Q774 547 774 504q0-138.11-89-220.055T479.836 202q-54.86 0-105.48 18.934Q323.737 239.868 284 276l15 16q35.731-33.415 81.138-50.708Q425.545 224 480 224q115.358 0 193.679 78.605T752 504q0 36-16 81.5T690 683l17 16ZM480 925q46-40 84.5-80.5T635 763L239 367q-15 30-23 64.092T208 504q0 78 72 194t200 227Zm-43-360Zm58-78Z"/></svg>