<svg xmlns="http://www.w3.org/2000/svg" width="48" height="48" viewBox="0 -960 960 960"><path d="M480-141q0-91 75-176.5T723-417q8-1 14.5 1t10.5 8q6 6 7.5 12.991 1.5 6.99.5 14.009-19 92-103 166t-173 74Zm23-22q91-23 151.5-83T738-398q-92 23-152 83.5T503-163Zm-23 23q0-91-75-176.5T237-416q-8-1-14.5 1t-10.5 7q-6 7-7.5 13.991-1.5 6.99-.5 14.009 19 92 103 166t173 74Zm-23-23q-91-23-151.5-83T223-398q91 23 151 83.5T457-163Zm46 0Zm-46 0Zm23-426q22 0 38-16t16-38q0-22-15.862-38-15.863-16-38.138-16-22 0-38 15.862-16 15.863-16 38.138 0 22 16 38t38 16Zm.234 150q-28.001 0-50.618-17.5Q407-474 399-505q-6 3-13 3.5t-13 .5q-33.429 0-57.214-23.077Q292-547.154 292-580.857q0-16.943 7.5-32.543Q307-629 319-643q-12-14-19-29.6-7-15.6-7-32.105 0-34.268 23.816-57.281Q340.632-785 373-785q5.611 0 13.5.5T400-782q8-30 29.882-47.5Q451.765-847 480-847q28.235 0 50.118 17.5Q552-812 560-782q5.611-2 13.5-2.5t13.5-.5q32.368 0 56.184 23.077Q667-738.846 667-705.143q0 17.293-7 33.218Q653-656 641-643q12 14 19 29.6 7 15.6 7 32.105 0 34.268-23.816 57.281Q619.368-501 587-501q-5.611 0-13.5-.5T559-505q-7 31-28.882 48.5-21.883 17.5-49.884 17.5ZM587.2-523q23.626 0 40.713-17.1T645-581.267q0-17.733-10.389-32.677Q624.222-628.889 606-632l-49-9q-1.4 10.219-4.2 19.109-2.8 8.891-7.342 17.009-4.541 8.117-10.5 15Q529-583 520-578l30.378 35.815Q557-533 566.348-528q9.347 5 20.852 5ZM557-646l49-8q18.154-3.1 28.577-18.148Q645-687.196 645-704.98q0-23.737-16.816-40.879Q611.369-763 586.792-763q-10.992 0-20.559 5-9.566 5-16.233 14l-30 36q8 5 14 11.6t10.5 14.4q5.5 8 8.4 17.203 2.9 9.203 4.1 18.797Zm-113-65q9.333-3 18.167-5.5 8.833-2.5 18-2.5 9.166 0 18 2.5Q507-714 516-711l21-56.806q8-22.558-10.5-39.876Q508-825 480-825t-46.5 17.273Q415-790.455 423-767.806L444-711Zm36 250q28 0 46.5-17.318t10.5-39.876L516-575q-9 4-17.833 6-8.834 2-18 2Q471-567 462-569q-9-2-18-6l-21 56.806q-8 22.649 10.5 39.921Q452-461 480-461Zm-77-185q1.2-9.594 4.1-18.797 2.9-9.203 7.442-17.056 4.541-7.853 11-14.5Q432-703 440-708l-30.378-35.815Q403-753 393.652-758q-9.347-5-20.852-5-23.626 0-40.713 17.057Q315-728.887 315-704.881q0 17.967 10.389 32.852Q335.778-657.143 354-654l49 8Zm-30.436 123q10.974 0 20.705-5Q403-533 410-542l30-36q-8-5-14-11.647t-11-15q-5-8.353-7.8-17.541-2.8-9.187-4.2-18.812l-49 9q-18.154 3.122-29.077 18.21Q314-598.702 314-580.87q0 24.87 16.841 41.37 16.841 16.5 41.723 16.5ZM545-605Zm0-77Zm-65-37Zm0 152Zm-65-115Zm0 77Z"/></svg>