<svg xmlns="http://www.w3.org/2000/svg" width="48" height="48" viewBox="0 -960 960 960"><path d="M218.882-206Q178-206 149-235.167 120-264.333 120-306h-17q-11.475 0-19.237-7.763Q76-321.525 76-333v-361q0-22.775 15.612-38.388Q107.225-748 130-748h472q21.5 0 37.75 16.25T656-694v88h52q13.5 0 24.644 5.844Q743.789-594.312 751-584l128 171q2 3.5 3.5 7.447 1.5 3.948 1.5 8.553v64q0 11.475-7.763 19.237Q868.475-306 857-306h-30q0 41.667-29.201 70.833Q768.598-206 726.882-206q-41.299 0-70.09-29.167Q628-264.333 628-306H319q0 42-29.618 71-29.617 29-70.5 29Zm.618-22q32.5 0 55-22.5t22.5-55q0-32.5-22.5-55t-55-22.5q-32.5 0-55 22.5t-22.5 55q0 32.5 22.5 55t55 22.5Zm508 0q32.5 0 55-22.5t22.5-55q0-32.5-22.5-55t-55-22.5q-32.5 0-55 22.5t-22.5 55q0 32.5 22.5 55t55 22.5ZM656-410h199L732-571q-4-6-11-9.5t-15-3.5h-50v174Z"/></svg>