<svg xmlns="http://www.w3.org/2000/svg" width="48" height="48" viewBox="0 -960 960 960"><path d="M357-586h246v-84.385Q603-722 567-758q-36-36-87-36t-87 36q-36 36-36 87.615V-586Zm175 454H266q-23 0-38.5-15.5T212-186v-346q0-23 15.5-38.5T266-586h69v-84q0-62.075 42-104.037Q419-816 480-816t103 41.963Q625-732.075 625-670v84h69q23 0 38.5 15.5T748-532v56q-3 0-9.5-1t-12.5-1v-54q0-14-9-23t-23-9H266q-14 0-23 9t-9 23v346q0 14 9 23t23 9h251q1 5.475 5 11.737Q526-136 532-132Zm178 18q-61 0-103.5-42.5t-42.5-103q0-60.5 42.5-103.5T710-406q61 0 103.5 42.962Q856-320.075 856-260q0 61-42.5 103.5T710-114Zm13-150v-96.76q0-6.24-3.786-10.74-3.785-4.5-10.5-4.5Q702-376 698-371.5t-4 10.742V-264q0 5.069 2.5 10.259 2.5 5.189 6.5 8.741l66 64q3.273 4 9.136 4 5.864 0 9.864-4.214 5-5.215 4.5-10.5-.5-5.286-4.864-9.104L723-264Zm-489 0v110-410 300Z"/></svg>