<svg xmlns="http://www.w3.org/2000/svg" width="48" height="48" viewBox="0 -960 960 960"><path d="M357-586h246v-84q0-51.667-35.823-87.833Q531.353-794 480.176-794 429-794 393-757.833 357-721.667 357-670v84Zm-91 454q-21.5 0-37.75-16.25T212-186v-346q0-22.275 16.25-38.138Q244.5-586 266-586h69v-84q0-61.17 42.173-103.585Q419.346-816 480.173-816T583-773.585Q625-731.17 625-670v84h69q21.5 0 37.75 15.862Q748-554.275 748-532v27q0 11.333-9 18.667Q730-479 719-479h-14q-90 2-152.5 66T490-260q0 25.919 5.5 49.959Q501-186 512-163q5 10-.5 20.5T494-132H266Zm444 18q-61 0-103.5-42.5t-42.5-103q0-60.5 42.5-103.5T710-406q61 0 103.5 42.962Q856-320.075 856-260q0 61-42.5 103.5T710-114Zm13-149.579v-97.181q0-5.84-3.986-10.54-3.985-4.7-10.3-4.7-6.314 0-10.514 4.7-4.2 4.7-4.2 10.542V-264q0 4.634 2.5 10.041T703-245l66 64q3.273 4 9.136 4 5.864 0 9.864-4.214 5-5.215 4.5-10.5-.5-5.286-4.864-9.104L723-263.579Z"/></svg>