<svg xmlns="http://www.w3.org/2000/svg" width="48" height="48" viewBox="0 -960 960 960"><path d="M812-399 561-148q-8.143 8.5-18.321 12.25Q532.5-132 522-132q-10.5 0-20.25-4T484-148L149-483q-9-7-13-16.733-4-9.734-4-21.267v-252q0-21.912 16.125-38.456Q164.25-828 187-828h252q11.14 0 20.772 4.25Q469.404-819.5 478-812l334 334q8.783 8.143 12.891 18.321Q829-449.5 829-438.63q0 10.869-4.304 21.102Q820.391-407.296 812-399ZM258.588-670Q272-670 281-679.417q9-9.416 9-22.583 0-13.583-8.917-22.792Q272.167-734 259-734q-13.583 0-23.292 9.088-9.708 9.088-9.708 22.5t9.588 22.912q9.588 9.5 23 9.5ZM541-312l96-101q7-7 11-17.404 4-10.405 4-22.596 0-22.927-15.927-39.963Q620.146-510 598-510q-21.036 0-40.518 10.5T521-462q-16-26-35.75-37T445-510q-23.146 0-39.073 17.037Q390-475.927 390-453q0 12.191 4 22.596Q398-420 405-413l96 101q8 8 20 8t20-8Z"/></svg>