<svg xmlns="http://www.w3.org/2000/svg" width="48" height="48" viewBox="0 -960 960 960"><path d="M531-138q-7 7-16 7t-16-7L140-497q-4-4-6-8.5t-2-9.5v-291q0-9 6.5-15.5T154-828h291q4 0 8.5 1.5t8.5 4.5l358 358q8 8 8.5 18t-6.5 17L531-138Zm-15-15 291-292-362-361H154v291l362 362ZM256-673q13 0 22-9.5t9-22.5q0-13-9-22t-22-9q-14 0-23 9t-9 22q0 13 9 22.5t23 9.5ZM154-806Zm387 494 96-101q8-7 11.5-17.5T652-453q0-23-15.5-40T598-510q-21 0-40 10.5T521-462q-16-26-36-37t-40-11q-23 0-39 17t-16 40q0 12 4 22.5t11 17.5l96 101q8 9 20 9t20-9Z"/></svg>