<svg xmlns="http://www.w3.org/2000/svg" width="48" height="48" viewBox="0 -960 960 960"><path d="M220-357v-246q0-4.675 3.228-7.838 3.228-3.162 8-3.162t7.772 3.162q3 3.163 3 7.838v235h110q4.675 0 7.838 3.228 3.162 3.228 3.162 8T359.838-349q-3.163 3-7.838 3H231q-4.675 0-7.837-3.162Q220-352.325 220-357Zm260-235h-70q-4.675 0-7.838-3.228-3.162-3.228-3.162-8t3.162-7.772q3.163-3 7.838-3h163q4.675 0 7.838 3.228 3.162 3.228 3.162 8T580.838-595q-3.163 3-7.838 3h-71v235q0 4.675-3.228 7.838-3.228 3.162-8 3.162T483-349.162q-3-3.163-3-7.838v-235Zm191 235v-246q0-4.675 3.162-7.838Q677.325-614 682-614h121q4.675 0 7.838 3.228 3.162 3.228 3.162 8T810.838-595q-3.163 3-7.838 3H693v101h110q4.675 0 7.838 3.228 3.162 3.228 3.162 8T810.838-472q-3.163 3-7.838 3H693v101h110q4.675 0 7.838 3.228 3.162 3.228 3.162 8T810.838-349q-3.163 3-7.838 3H682q-4.675 0-7.838-3.162Q671-352.325 671-357Z"/></svg>