<svg xmlns="http://www.w3.org/2000/svg" width="48" height="48" viewBox="0 96 960 960"><path d="M247 710q-11.475 0-19.238-7.763Q220 694.475 220 683V453q0-4.675 3.228-7.838 3.228-3.162 8-3.162t7.772 3.162q3 3.163 3 7.838v235h110q4.675 0 7.838 3.228 3.162 3.228 3.162 8T359.838 707q-3.163 3-7.838 3H247Zm243.772 0Q486 710 483 706.838q-3-3.163-3-7.838V464h-70q-4.675 0-7.838-3.228-3.162-3.228-3.162-8t3.162-7.772q3.163-3 7.838-3h163q4.675 0 7.838 3.228 3.162 3.228 3.162 8T580.838 461q-3.163 3-7.838 3h-71v235q0 4.675-3.228 7.838-3.228 3.162-8 3.162ZM698 710q-11.475 0-19.237-7.763Q671 694.475 671 683V469q0-11.475 7.763-19.237Q686.525 442 698 442h105q4.675 0 7.838 3.228 3.162 3.228 3.162 8T810.838 461q-3.163 3-7.838 3H693v101h110q4.675 0 7.838 3.228 3.162 3.228 3.162 8T810.838 584q-3.163 3-7.838 3H693v101h110q4.675 0 7.838 3.228 3.162 3.228 3.162 8T810.838 707q-3.163 3-7.838 3H698Z"/></svg>