<svg xmlns="http://www.w3.org/2000/svg" width="48" height="48" viewBox="0 0 48 48"><path d="m12.25 27.95-1.9 5.6q-.1.2-.25.3-.15.1-.4.1-.3 0-.475-.275T9.15 33.1l6.8-18.55q.05-.15.25-.275.2-.125.35-.125h.4q.15 0 .35.125.2.125.25.275l6.95 18.5q.1.3-.075.6t-.525.3q-.25 0-.425-.125t-.225-.325l-2-5.55Zm.45-1.15h8.15L16.8 15.55h-.05Zm20.8 7.6q-2 0-3.175-1.1-1.175-1.1-1.175-2.9 0-2.15 1.425-3.425T34.35 25.7q.95 0 1.975.225 1.025.225 1.725.625v-1.3q0-2.25-.975-3.325Q36.1 20.85 34.1 20.85q-.9 0-1.675.225t-1.575.725q-.25.15-.475.1-.225-.05-.375-.25-.15-.15-.125-.375.025-.225.225-.325.95-.65 1.875-.925t2.075-.275q2.6 0 3.85 1.425t1.25 4.275v8.2q0 .25-.15.4-.15.15-.4.15t-.4-.15q-.15-.15-.15-.4V31.8h-.2q-.75 1.35-1.8 1.975t-2.55.625Zm-.2-1.05q2.1 0 3.425-1.6 1.325-1.6 1.325-4.1-.6-.4-1.575-.625Q35.5 26.8 34.5 26.8q-1.9 0-3.05.975T30.3 30.4q0 1.35.8 2.15.8.8 2.2.8Z"/></svg>