<svg xmlns="http://www.w3.org/2000/svg" width="48" height="48" viewBox="0 96 960 960"><path d="M319 707v72q0 4.925 3.053 7.963 3.052 3.037 8 3.037 4.947 0 7.947-3.037 3-3.038 3-7.963v-72h72q4.925 0 7.963-3.053 3.037-3.052 3.037-8 0-4.947-3.037-7.947-3.038-3-7.963-3h-72v-72q0-4.925-3.053-7.963-3.052-3.037-8-3.037-4.947 0-7.947 3.037-3 3.038-3 7.963v72h-72q-4.925 0-7.962 3.053-3.038 3.052-3.038 8 0 4.947 3.038 7.947 3.037 3 7.962 3h72Zm404-44q5.067 0 8.033-2.953 2.967-2.954 2.967-8 0-5.047-2.967-8.047-2.966-3-8.033-3H531q-5.067 0-8.033 2.953-2.967 2.954-2.967 8 0 5.047 2.967 8.047 2.966 3 8.033 3h192Zm-80 88q5.067 0 8.033-2.953 2.967-2.954 2.967-8 0-5.047-2.967-8.047-2.966-3-8.033-3H531q-5.067 0-8.033 2.953-2.967 2.954-2.967 8 0 5.047 2.967 8.047 2.966 3 8.033 3h112ZM543 428h231q22.775 0 38.388 15.612Q828 459.225 828 482v388q0 22.775-15.612 38.388Q796.775 924 774 924H186q-22.775 0-38.387-15.612Q132 892.775 132 870V482q0-22.775 15.613-38.388Q163.225 428 186 428h231V250q0-8.325 6.838-15.162Q430.675 228 439 228h82q9.55 0 15.775 6.838Q543 241.675 543 250v178Zm-104 22h82V250h-82v200Z"/></svg>