<svg xmlns="http://www.w3.org/2000/svg" width="48" height="48" viewBox="0 96 960 960"><path d="m433 761-95 60q-7 4-14 .174T317 809V690q0-8.348 7-12.174 7-3.826 14 .174l95 60q5 3 5 11t-5 12Zm87-293q-42.083 0-71.542-29.424Q419 409.152 419 367.118 419 326 448.458 296q29.459-30 71.542-30h20q5.067 0 8.033 3.437 2.967 3.437 2.967 7.516 0 5.047-2.967 8.047-2.966 3-8.033 3h-20q-32.917 0-55.958 23.076Q441 334.152 441 367.118 441 401 464.042 423.5 487.083 446 520 446h20q5.067 0 8.033 3.437 2.967 3.437 2.967 7.516 0 5.047-2.967 8.047-2.966 3-8.033 3h-20Zm160 0h-20q-5.067 0-8.033-2.953-2.967-2.954-2.967-7.5 0-4.547 2.967-8.047 2.966-3.5 8.033-3.5h20q32.917 0 55.958-22.618 23.042-22.617 23.042-56Q759 334 735.958 311 712.917 288 680 288h-20q-5.067 0-8.033-2.953-2.967-2.954-2.967-7.5 0-4.547 2.967-8.047 2.966-3.5 8.033-3.5h20q42.083 0 71.542 29.882Q781 325.765 781 367.382 781 409 751.542 438.5 722.083 468 680 468Zm-30-90H550q-5.067 0-8.033-2.953-2.967-2.954-2.967-7.5 0-4.547 2.967-8.047 2.966-3.5 8.033-3.5h100q5.067 0 8.033 3.437 2.967 3.437 2.967 7.516 0 5.047-2.967 8.047-2.966 3-8.033 3Zm-32 228v-28h196q14 0 23-9t9-23V247q0-14-9-23t-23-9H386q-14 0-23 9t-9 23v301h-22V247q0-21.5 16.25-37.75T386 193h428q21.5 0 37.75 16.25T868 247v305q0 21.5-16.25 37.75T814 606H618ZM146 959q-21.5 0-37.75-16.25T92 905V594q0-21.5 16.25-37.75T146 540h428q21.5 0 37.75 16.25T628 594v311q0 21.5-16.25 37.75T574 959H146Zm0-22h428q14 0 23-9t9-23V594q0-14-9-23t-23-9H146q-14 0-23 9t-9 23v311q0 14 9 23t23 9Zm454-541ZM360 749Z"/></svg>