<svg xmlns="http://www.w3.org/2000/svg" width="48" height="48" viewBox="0 96 960 960"><path d="M162 778q-4.675 0-7.837-3.228-3.163-3.228-3.163-8t3.163-7.772q3.162-3 7.837-3h446q4.675 0 7.838 3.228 3.162 3.228 3.162 8T615.838 775q-3.163 3-7.838 3H162Zm0-192q-4.675 0-7.837-3.228-3.163-3.228-3.163-8t3.163-7.772q3.162-3 7.837-3h326q4.675 0 7.838 3.228 3.162 3.228 3.162 8T495.838 583q-3.163 3-7.838 3H162Zm0-190q-4.675 0-7.837-3.228-3.163-3.228-3.163-8t3.163-7.772q3.162-3 7.837-3h446q4.675 0 7.838 3.228 3.162 3.228 3.162 8T615.838 393q-3.163 3-7.838 3H162Zm503 180 136 136q3 3 3.5 7.5T801 728q-4 4-8 4t-8-4L651 595q-8-9-8-19.545 0-10.546 8-18.455l134-134q3-3 7.5-3.5t8.5 3.5q4 4 4 8t-4 8L665 576Z"/></svg>