<svg xmlns="http://www.w3.org/2000/svg" width="48" height="48" viewBox="0 96 960 960"><path d="M186 844q-21.75 0-37.875-16.125T132 790V362q0-21.75 16.125-37.875T186 308h588q21.75 0 37.875 16.125T828 362v428q0 21.75-16.125 37.875T774 844H186Zm0-22h432V330H186q-14 0-23 9t-9 23v428q0 14 9 23t23 9Zm454 0h134q14 0 23-9t9-23V362q0-14-9-23t-23-9H640v492Zm62-388h42v-42h-42v42Zm21.5 167q9.5 0 17-7.5t7.5-18q0-9.5-7.625-17T723 551q-10 0-17.5 7.625T698 576q0 10 7.5 17.5t18 7.5Zm0 163q9.5 0 17-7.5t7.5-18q0-9.5-7.625-17T723 714q-10 0-17.5 7.625T698 739q0 10 7.5 17.5t18 7.5ZM478 695q-9 5-19.378 8.5T436 707q-16.966 0-32.983-8.5Q387 690 377 684q-10-7-19.667-12-9.666-5-21.333-5-9 0-30 9-2 2-5.5 2t-5.5-2q-6-4-5.422-9.833.578-5.834 5.797-9.265Q303 652 313.378 648.5 323.756 645 336 645q17.373 0 31.686 8Q382 661 393 667q11 8 22 13t21 5q8 0 30-9 2-2 5.5-1.5t6.5 1.5q5 4 5 10t-5 9Zm0-200q-8 5-19 8.5t-23 3.5q-16.966 0-32.983-8.5Q387 490 377 484q-10-7-19.667-12-9.666-5-21.333-5-8 0-29 9-2 1-6 1t-7-2q-5-3-5.5-8.5t4.615-9.5Q302 452 313 448.5q11-3.5 23-3.5 17.373 0 31.686 8Q382 461 393 467q11 8 22 13t21 5q8 0 29-9 3-2 6.5-1.5t6.5 1.5q5 4 5.5 9.5T478 495Zm162 327V330v492Z"/></svg>