<svg xmlns="http://www.w3.org/2000/svg" width="48" height="48" viewBox="0 -960 960 960"><path d="M436-549q-15.727 0-30.364-7.5Q391-564 377-572q-10-7-19.81-12-9.809-5-21.19-5-11 0-19.891 3.789Q307.217-581.421 298-575q-2.364 1.824-3.605 2.412-1.241.588-3.395.588-4.725 0-8.362-3.542-3.638-3.541-3.638-8.125 0-3.333 2-6.833t6-4.5q11-7 22.895-11.5Q321.789-611 336-611q15.091 0 29.036 6.907Q378.981-597.185 393-589q10 7 20.5 12.5T436-571q9 0 37-13 1.933-2 3.907-3 1.973-1 4.372-1 4.721 0 8.221 3.542 3.5 3.541 3.5 8.125 0 3.333-2 6.833t-5 4.5q-11.701 7.062-23.851 11.531Q450-549 436-549Zm0 200q-15.727 0-30.364-7.5Q391-364 377-372q-10-7-19.81-12-9.809-5-21.19-5-11 0-19.891 3.789Q307.217-381.421 298-375q-2.364 1.824-3.605 2.412-1.241.588-3.395.588-4.725 0-8.362-3.542-3.638-3.541-3.638-8.125 0-3.333 2-6.833t6-4.5q11-7 22.895-11.5Q321.789-411 336-411q15.091 0 29.036 6.907Q378.981-397.185 393-389q10 7 20.5 12.5T436-371q15.6 0 26.3-11.5 10.7-11.5 27.557-9.214Q498-390 503-382t2 18q-5 5-10 5.5t-8-1.5q-1-1.149-1.273-2.664-.272-1.515.273-2.336-12 7-23.895 11.5Q450.211-349 436-349ZM186-212q-22.775 0-38.387-15.613Q132-243.225 132-266v-428q0-22.775 15.613-38.388Q163.225-748 186-748h588q22.775 0 38.388 15.612Q828-716.775 828-694v428q0 22.775-15.612 38.387Q796.775-212 774-212H186Zm0-22h432v-492H186q-12 0-22 10t-10 22v428q0 12 10 22t22 10Zm454 0h134q12 0 22-10t10-22v-428q0-12-10-22t-22-10H640v492Zm75.529-388h15.059q5.412 0 9.412-4.059 4-4.059 4-9.47v-15.059q0-5.412-4-9.412-4-4-9.333-4H716q-5.6 0-9.8 4-4.2 4-4.2 9.333V-636q0 5.6 4.059 9.8 4.059 4.2 9.47 4.2ZM723-455q10 0 17.5-7.5T748-480q0-10-7.638-17.5Q732.725-505 723-505q-10 0-17.5 7.638Q698-489.725 698-480q0 10 7.5 17.5T723-455Zm0 163q10 0 17.5-7.5T748-317q0-10-7.638-17.5Q732.725-342 723-342q-10 0-17.5 7.638Q698-326.725 698-317q0 10 7.5 17.5T723-292Zm-83 58v-492 492Z"/></svg>