<svg xmlns="http://www.w3.org/2000/svg" width="48" height="48" viewBox="0 -960 960 960"><path d="m218-764-16-16q61-54 130.5-81T480-888q78 0 147.5 27T758-780l-16 16q-53-47-119-74.5T480-866q-77 0-143 27.5T218-764Zm116 119-16-16q34-31 74-46t88-15q48 0 88 15t74 46l-16 16q-29-26-66-40.5T480-700q-43 0-80 14.5T334-645Zm68.5 581.5Q371-95 371-141v-317q0-46 31.5-77.5T480-567q46 0 77.5 31.5T589-458v317q0 46-31.5 77.5T480-32q-46 0-77.5-31.5Zm137-336Q564-424 564-459t-24.5-59Q515-542 480-542t-59.5 24Q396-494 396-459t24.5 59.5Q445-375 480-375t59.5-24.5Z"/></svg>