<svg xmlns="http://www.w3.org/2000/svg" width="48" height="48" viewBox="0 96 960 960"><path d="M611.767 512q15.633 0 26.933-10.567 11.3-10.568 11.3-27.2 0-16.633-11.067-27.433-11.068-10.8-26.7-10.8-16.633 0-27.433 10.567-10.8 10.568-10.8 27.2 0 16.633 10.567 27.433 10.568 10.8 27.2 10.8Zm-264 0q16.633 0 27.433-10.567 10.8-10.568 10.8-27.2 0-16.633-10.567-27.433-10.568-10.8-27.2-10.8-15.633 0-26.933 10.567-11.3 10.568-11.3 27.2 0 16.633 11.067 27.433 11.068 10.8 26.7 10.8ZM480 764q42 0 85-20t72-65q6-9 2-15t-13.853-6H334.726q-9.852 0-13.789 6Q317 670 323 679q30 45 72.5 65t84.5 20Zm.44 160q-72.908 0-135.732-27.391-62.825-27.392-110.341-74.848-47.515-47.457-74.941-110.276Q132 648.667 132 575.674q0-71.993 27.391-135.392 27.392-63.399 74.848-110.414 47.457-47.016 110.276-74.442Q407.333 228 480.326 228q71.993 0 135.392 27.391 63.399 27.392 110.414 74.348 47.016 46.957 74.442 110.435Q828 503.652 828 575.56q0 72.908-27.391 135.732-27.392 62.825-74.348 110.156-46.957 47.332-110.435 74.942Q552.348 924 480.44 924Z"/></svg>