<svg xmlns="http://www.w3.org/2000/svg" width="48" height="48" viewBox="0 -960 960 960"><path d="M366-212q-13.25 0-24.5-4.88-11.25-4.87-18.5-16.12L157-447q-11-14.68-11-32.84Q146-498 157-513l166-214q7.25-11.25 18.5-16.13Q352.75-748 366-748h408q22.53 0 38.26 16.12Q828-715.75 828-694v428q0 21.75-15.74 37.87Q796.53-212 774-212H366Zm0-22h408q14 0 23-9t9-23v-428q0-14-9-23t-23-9H366q-8 0-14.5 3t-11.5 9L175-500q-7 9-7 20t7 20l165 214q5 6 11.5 9t14.5 3Zm46.5-226q8.5-8 8.5-20t-8.5-20q-8.5-8-20-8t-20 8q-8.5 8-8.5 20t8.5 20q8.5 8 20 8t20-8Zm143.5 0q8-8 8-20t-8-20q-8-8-19.5-8t-20 8q-8.5 8-8.5 20t8.5 20q8.5 8 20 8t19.5-8Zm143.5 0q8.5-8 8.5-20t-8.5-20q-8.5-8-20-8t-20 8q-8.5 8-8.5 20t8.5 20q8.5 8 20 8t20-8ZM486-480Z"/></svg>