<svg xmlns="http://www.w3.org/2000/svg" width="48" height="48" viewBox="0 96 960 960"><path d="M381.129 698q3.871 0 7.496-2.7 3.625-2.7 4.375-5.3l29-76h117l27 75q.826 3.125 5.261 6.062Q575.696 698 580 698q9 0 12.5-5.5t.5-12.5l-96-253q-2-4-7.059-7.5T480 416q-6 0-10.5 3.5T463 427l-94 254q-2 6.6 1.355 11.8 3.355 5.2 10.774 5.2ZM429 588l49-134h4l50 134H429Zm51 336q-72 0-135.5-27T234 823q-47-47-74.5-110T132 578q0-29 4-57t13-56q3-6 8.5-8t9.5 3q2 2 2.5 5.5t.5 5.5q-8.364 26.333-12.182 52.167Q154 549 154 576q0 136.375 94.812 231.188Q343.625 902 480 902t231.188-94.812Q806 712.375 806 576t-94.812-231.188Q616.375 250 480 250q-26 0-51 4t-48 11q-5 1-9.5.5T365 261q-3-3-2-7t6-8q17-7 50.789-12.5Q453.579 228 473 228q73.362 0 137.681 27Q675 282 723.447 329.5q48.448 47.5 76.5 111Q828 504 828 576t-27.5 135.5Q773 775 726 822t-110.5 74.5Q552 924 480 924ZM239.882 360q-9.882 0-17.382-7.618-7.5-7.617-7.5-17.5 0-9.882 7.618-17.382 7.617-7.5 17.5-7.5 9.882 0 17.382 7.618 7.5 7.617 7.5 17.5 0 9.882-7.618 17.382-7.617 7.5-17.5 7.5ZM480 576Z"/></svg>