<svg xmlns="http://www.w3.org/2000/svg" width="48" height="48" viewBox="0 96 960 960"><path d="M381.291 698q3.817 0 7.388-2.7 3.571-2.7 4.321-5.3l29-76h117l27 75q.826 3.125 5.261 6.062Q575.696 698 580 698q9.065 0 12.532-5.5Q596 687 593 680l-96-253q-2.408-3.846-7.089-7.423-4.682-3.577-9.789-3.577-6.122 0-10.622 3.5T463 427l-94 254q-2 6.6 1.355 11.8 3.355 5.2 10.936 5.2ZM429 588l49-134h4l50 134H429Zm51 336q-72 0-135.5-27T234 823q-47-47-74.5-110T132 578q0-29 4-57t13-56q3-6 8.5-8t9.5 3q2 2 2.5 5.5t.5 5.5q-8.364 26.333-12.182 52.167Q154 549 154 576q0 136.513 94.716 231.256Q343.431 902 479.903 902t231.285-94.716Q806 712.569 806 576.097t-94.744-231.285Q616.513 250 480 250q-26 0-51 4t-48 11q-5 1-9.5.5T365 261q-3-3-2-7t6-8q17-7 50.816-12.5T473 228q72.87 0 137.255 27 64.386 27 113.013 74.5 48.627 47.5 76.679 111Q828 504 828 576t-27.5 135.5Q773 775 726 822t-110.5 74.5Q552 924 480 924ZM239.824 360q-9.824 0-17.324-7.677-7.5-7.676-7.5-17.5 0-9.823 7.676-17.323 7.677-7.5 17.5-7.5 9.824 0 17.324 7.677 7.5 7.676 7.5 17.5 0 9.823-7.676 17.323-7.677 7.5-17.5 7.5ZM480 828q-105 0-178.5-73.5T228 576q0-105 73.5-178.5T480 324q105 0 178.5 73.5T732 576q0 105-73.5 178.5T480 828Z"/></svg>