<svg xmlns="http://www.w3.org/2000/svg" width="48" height="48" viewBox="0 -960 960 960"><path d="M827-615q-169-3-237.5 21.5T485-532q52-80 148-93.5T825-639L710-755q-3-3-3-7t3-7q3-3 7.5-3t7.5 3l124 123q8 8 8 19t-8 19L725-484q-3 3-7 2.5t-7-3.5q-3-3-3-7.5t3-7.5l116-115Zm-615 61q0-118 77.5-196T479-828q36 0 71.5 7t67.5 25q4 3 5 8t-2 9q-3 4-8 5t-9-2q-29-17-61-23.5t-64-6.5q-103 0-174 71.5T234-554q0 78 52.5 169T455-184q10 10 24 10t24-10q44-42 84.5-88.5T668-375q3-4 7-5.5t8 .5q4 2 5.5 7t-1.5 9q-42 59-84 107t-84 88q-8 8-18.5 12t-21.5 4q-11 0-21.5-4T439-169Q322-278 267-375.5T212-554Z"/></svg>