<svg xmlns="http://www.w3.org/2000/svg" width="48" height="48" viewBox="0 -960 960 960"><path d="M432.5-294q-2.5-3-4.5-7-12-29-27.5-51T370-394q-21-28-37.5-56T316-520q0-51 36.5-87.5T440-644q51 0 87.5 36.5T564-520q0 42-16.5 70T510-394q-15 20-30.5 42T452-301q-2 5-4.5 7.5T440-291q-5 0-7.5-3Zm36-197.5Q480-503 480-520t-11.5-28.5Q457-560 440-560t-28.5 11.5Q400-537 400-520t11.5 28.5Q423-480 440-480t28.5-11.5ZM441-171q-129 0-219-90t-90-219q0-64 24-120.5t66-98.5q42-42 98.5-66T441-789q64 0 120.5 24t98.5 66q42 42 66 98.5T750-480v74l88-88q3-3 7.5-3.5t7.5 2.5q4 3 3.5 8t-3.5 8l-95 95q-8 8-19 8t-19-8l-95-95q-2-3-3-8t3-8q3-3 8-2.5t8 3.5l87 87v-73q0-119-84-203t-203-84q-119 0-203 84t-84 203q-1 119 83 203t204 84q52 0 97-17t84-48q4-3 8.5-3t8.5 3q4 3 4 8t-3 8q-43 34-94 52.5T441-171Z"/></svg>