<svg xmlns="http://www.w3.org/2000/svg" width="48" height="48" viewBox="0 96 960 960"><path d="M273 891q-3-4-3-8.5t3-7.5l87-86q-117 6-205.5-64.5T66 536q0-106 74-180t180-74h83q5 0 8 3t3 8q0 5-3 8t-8 3h-83q-96 0-164 68T88 536q0 105 77 169.5T364 768l-91-91q-4-4-4-8.5t4-7.5q3-3 7.5-3.5t8.5 3.5l96 96q4 4 6.5 8.5T394 776q0 6-2.5 10.5T385 795l-96 96q-4 4-8 4t-8-4Zm295-381q-9 0-15.5-6.5T546 488V304q0-9 6.5-15.5T568 282h264q9 0 15.5 6.5T854 304v184q0 9-6.5 15.5T832 510H568Zm0-22h264V304H568v184Zm0 382q-9 0-15.5-6.5T546 848V664q0-9 6.5-15.5T568 642h264q9 0 15.5 6.5T854 664v184q0 9-6.5 15.5T832 870H568Z"/></svg>