<svg xmlns="http://www.w3.org/2000/svg" width="48" height="48" viewBox="0 -960 960 960"><path d="m803-364 37-38-37-38-38 38 38 38Zm-36 75-78-77 94-94q5-4 10-6t10-2q5 0 10.5 2t9.5 6l37 38q4 5 6 10t2 10q0 5-2 10t-6 10l-93 93Zm67.5 201q-4.5 0-7.5-3L698-220l-40 40q-4 4-8.5 6t-9.5 2h-41q-12 0-19.5-7.5T572-199v-41q0-5 2-9.5t6-8.5l40-40L92-827q-3-3-3.5-7.5t3-8q3.5-3.5 8-3.5t8.5 3l735 735q2 3 2.5 8t-3 8.5q-3.5 3.5-8 3.5ZM186-212q-23 0-38.5-15.5T132-266v-428q0-22 16.5-38t38.5-16h15l367 367-74 75q-8 7-12.5 17.5T478-267v28q0 12-7.5 19.5T451-212H186Zm431-215L307-748h53l37 75q7 14 20.5 22.5T447-642q31 0 46.5-26t2.5-54l-13-26h112l37 75q7 14 20.5 22.5T681-642q31 0 47-26t3-54l-13-26h56q23 0 38.5 15.5T828-694v111q0 11-8.5 18t-20.5 5q-7-1-14-.5t-13 2.5q-14 3-26 9t-22 16L617-427Z"/></svg>