<svg xmlns="http://www.w3.org/2000/svg" width="48" height="48" viewBox="0 -960 960 960"><path d="M179.233-437Q165-437 154.5-447.267q-10.5-10.268-10.5-24.5Q144-486 154.267-496.5q10.268-10.5 24.5-10.5Q193-507 203.5-496.733q10.5 10.268 10.5 24.5Q214-458 203.733-447.5q-10.268 10.5-24.5 10.5ZM202-128h393v-271H495q-48 0-81-31.5T381-505q0-39 26.5-72.5T478-629q-1-64 40-101.5t88-37.5q48 0 89 37.5T735-629q44 18 70.5 51.5T832-505q0 43-33 74.5T718-399H617v271h192q4.95 0 7.975 3.035 3.025 3.035 3.025 8T816.975-109q-3.025 3-7.975 3H183q-11.75 0-19.375-7.51T156-132.6V-250h-3q-12 3-18.5-5.5T128-275v-116q0-4.95 3.525-7.475Q135.05-401 140-401h78q4.95 0 8.475 2.525Q230-395.95 230-391v116q0 11-6.5 19.5T205-250h-3v122Z"/></svg>