<svg xmlns="http://www.w3.org/2000/svg" width="48" height="48" viewBox="0 -960 960 960"><path d="M336-322q-83 0-138.5-62.5T142-533v-54q0-86 55.5-148.5T336-798q37.917 0 64.458 26.559Q427-744.882 427-706.941T400.458-642.5Q373.917-616 336-616v112q38 0 64.5 26.542Q427-450.917 427-413v240q0 4.675-3.228 7.837-3.228 3.163-8 3.163T408-165.163q-3-3.162-3-7.837v-178q-14 14-31.467 21.5Q356.067-322 336-322Zm288 0q-20.067 0-37.533-7.5Q569-337 555-351v178q0 2.082-.873 4.035-.873 1.952-2.474 3.383-1.6 1.432-3.673 2.507-2.072 1.075-4.283 1.075-4.697 0-7.697-3.163-3-3.162-3-7.837v-240q0-37.917 26.542-64.458Q586.083-504 624-504v-112q-38 0-64.5-26.559t-26.5-64.5Q533-745 559.542-771.5 586.083-798 624-798q83 0 138.5 62.5T818-587v54q0 86-55.5 148.5T624-322Z"/></svg>