<svg xmlns="http://www.w3.org/2000/svg" width="48" height="48" viewBox="0 96 960 960"><path d="M491 595V423q0-4.675-3.228-7.838-3.228-3.162-8-3.162T472 415.162q-3 3.163-3 7.838v154q0 13 4.5 24.5T488 623l109 109q3.2 3 8.1 3.5 4.9.5 7.857-3.342 3.043-2.842 3.043-7.5 0-4.658-3-7.658L491 595Zm-11.228-345Q475 250 472 253.162q-3 3.163-3 7.838v61q0 4.675 3.228 7.838 3.228 3.162 8 3.162t7.772-3.162q3-3.163 3-7.838v-61q0-4.675-3.228-7.838-3.228-3.162-8-3.162ZM806 575.772q0-4.772-3.162-7.772-3.163-3-7.838-3h-61q-4.675 0-7.838 3.228-3.162 3.228-3.162 8t3.162 7.772q3.163 3 7.838 3h61q4.675 0 7.838-3.228 3.162-3.228 3.162-8ZM479.772 819Q475 819 472 822.162q-3 3.163-3 7.838v61q0 4.675 3.228 7.838 3.228 3.162 8 3.162t7.772-3.162q3-3.163 3-7.838v-61q0-4.675-3.228-7.838-3.228-3.162-8-3.162ZM237 575.772q0-4.772-3.163-7.772-3.162-3-7.837-3h-61q-4.675 0-7.837 3.228-3.163 3.228-3.163 8t3.163 7.772q3.162 3 7.837 3h61q4.675 0 7.837-3.228 3.163-3.228 3.163-8ZM480.44 924q-72.908 0-135.945-27.391-63.037-27.392-110.34-74.848-47.303-47.457-74.729-110.276Q132 648.667 132 576.174q0-72.493 27.391-135.892 27.392-63.399 74.848-110.414 47.457-47.016 110.276-74.442Q407.333 228 479.826 228q72.493 0 135.892 27.391 63.399 27.392 110.414 74.348 47.016 46.957 74.442 110.435Q828 503.652 828 575.56q0 72.908-27.391 135.945-27.392 63.037-74.348 110.156-46.957 47.119-110.435 74.729T480.44 924Z"/></svg>