<svg xmlns="http://www.w3.org/2000/svg" width="48" height="48" viewBox="0 -960 960 960"><path d="M317.5-422.69q7.5-7.7 7.5-17.5 0-9.81-7.69-17.31-7.7-7.5-17.5-7.5-9.81 0-17.31 7.69-7.5 7.7-7.5 17.5 0 9.81 7.69 17.31 7.7 7.5 17.5 7.5 9.81 0 17.31-7.69ZM420.19-415q9.81 0 17.31-7.69 7.5-7.7 7.5-17.5 0-9.81-7.69-17.31-7.7-7.5-17.5-7.5-9.81 0-17.31 7.69-7.5 7.7-7.5 17.5 0 9.81 7.69 17.31 7.7 7.5 17.5 7.5Zm120 0q9.81 0 17.31-7.69 7.5-7.7 7.5-17.5 0-9.81-7.69-17.31-7.7-7.5-17.5-7.5-9.81 0-17.31 7.69-7.5 7.7-7.5 17.5 0 9.81 7.69 17.31 7.7 7.5 17.5 7.5Zm137.31-7.69q7.5-7.7 7.5-17.5 0-9.81-7.69-17.31-7.7-7.5-17.5-7.5-9.81 0-17.31 7.69-7.5 7.7-7.5 17.5 0 9.81 7.69 17.31 7.7 7.5 17.5 7.5 9.81 0 17.31-7.69Zm-333 303.19Q281-147 234-194t-74.5-110.5Q132-368 132-440q0-142 97.5-243.5T469-789v-134q0-4.72 3.19-7.86 3.2-3.14 8-3.14 4.81 0 7.81 3.14t3 7.86v134q142 4 239.5 105.5T828-440q0 72-27.5 135.5T726-194q-47 47-110.5 74.5T480-92q-72 0-135.5-27.5ZM711-208.89q95-94.9 95-231Q806-576 711.11-671q-94.9-95-231-95Q344-766 249-671.11q-95 94.9-95 231Q154-304 248.89-209q94.9 95 231 95Q616-114 711-208.89ZM480-440Z"/></svg>