<svg xmlns="http://www.w3.org/2000/svg" width="48" height="48" viewBox="0 96 960 960"><path d="M480.118 376Q466 376 456 366.118q-10-9.883-10-24Q446 328 455.882 318q9.883-10 24-10Q494 308 504 317.882q10 9.883 10 24Q514 356 504.118 366q-9.883 10-24 10Zm-.182 568Q416 944 371 898.955 326 853.91 326 790V342q0-63.91 45.064-108.955Q416.127 188 480.064 188 544 188 589 233.045 634 278.09 634 342v448q0 63.91-45.064 108.955Q543.873 944 479.936 944Zm.036-470q55.428 0 93.728-38.272t38.3-93.7q0-55.428-38.272-93.728t-93.7-38.3q-55.428 0-93.728 38.272t-38.3 93.7q0 55.428 38.272 93.728t93.7 38.3Zm-53.779 235q9.807 0 17.307-7.693 7.5-7.693 7.5-17.5t-7.693-17.307q-7.693-7.5-17.5-7.5t-17.307 7.693q-7.5 7.693-7.5 17.5t7.693 17.307q7.693 7.5 17.5 7.5Zm0-106q9.807 0 17.307-7.693 7.5-7.693 7.5-17.5t-7.693-17.307q-7.693-7.5-17.5-7.5t-17.307 7.693q-7.5 7.693-7.5 17.5t7.693 17.307q7.693 7.5 17.5 7.5Zm108 0q9.807 0 17.307-7.693 7.5-7.693 7.5-17.5t-7.693-17.307q-7.693-7.5-17.5-7.5t-17.307 7.693q-7.5 7.693-7.5 17.5t7.693 17.307q7.693 7.5 17.5 7.5Zm0 106q9.807 0 17.307-7.693 7.5-7.693 7.5-17.5t-7.693-17.307q-7.693-7.5-17.5-7.5t-17.307 7.693q-7.5 7.693-7.5 17.5t7.693 17.307q7.693 7.5 17.5 7.5Zm-108 106q9.807 0 17.307-7.693 7.5-7.693 7.5-17.5t-7.693-17.307q-7.693-7.5-17.5-7.5t-17.307 7.693q-7.5 7.693-7.5 17.5t7.693 17.307q7.693 7.5 17.5 7.5Zm108 0q9.807 0 17.307-7.693 7.5-7.693 7.5-17.5t-7.693-17.307q-7.693-7.5-17.5-7.5t-17.307 7.693q-7.5 7.693-7.5 17.5t7.693 17.307q7.693 7.5 17.5 7.5Z"/></svg>