<svg xmlns="http://www.w3.org/2000/svg" width="48" height="48" viewBox="0 -960 960 960"><path d="m178-178 604-604q13-13 29.5-6.375T828-764v258h-22v-269L185-154h367v22H197q-18.312 0-25.156-16.5Q165-165 178-178Zm498 46q-14 0-26-12.735-12-12.736-12-25.265v-103q0-14 12-25.5t26-11.5h3v-40q0-29 19.5-49.5T747-420q29 0 48.5 20.5T815-350v40h3q13.412 0 25.206 11.5Q855-287 855-273v103q0 12.529-11.794 25.265Q831.412-132 818-132H676Zm31-178h81v-40q0-18-12-30t-28.5-12q-17.5 0-29 11.85T707-350v40ZM185-154l621-621Q664.839-634.086 495.5-464.5T185-154Z"/></svg>