<svg xmlns="http://www.w3.org/2000/svg" width="48" height="48" viewBox="0 -960 960 960"><path d="M480-726q-102 0-196.5 34T108-597l53 53q69-51 150.5-79.5T480-652q87 0 168.5 28.5T799-544l53-53q-81-61-175.5-95T480-726Zm-1 522q-5 0-8.591-1.54-3.591-1.54-6.409-5.46L95-579q-4.25-4.298-5.625-8.657Q88-592.017 88-597q0-5.592 2-10.796T98-617q84-61 181-96t201-35q104 0 201 35t181 96q6 4 8 9.154t2 10.692q0 5.224-1.375 9.54Q869.25-583.298 865-579l-46 46q-5.5 5.182-11.75 6.091Q801-526 795-529q-18.24-7.077-36.994-10.538Q739.253-543 720-543q-87.25 0-150.625 60.667Q506-421.667 484-333.083q0 14.148 3.167 26.148 3.166 12 6.833 24.935 5 13 8.5 25.323Q506-244.355 506-231q0 12.14-8.265 19.57Q489.471-204 479-204Zm170.276 10Q634-194 623.5-204.235T613-229.6v-104.034q0-14.596 10.35-24.981Q633.7-369 649-369h5v-40q0-28.825 20.124-48.913 20.124-20.087 49-20.087Q751-478 771-457.913q20 20.088 20 48.913v40h5q15.45 0 24.725 10.235Q830-348.53 830-333.4v104.034q0 14.596-10.334 24.981Q809.332-194 794.055-194H649.276ZM682-369h81v-40.298Q763-426 751-438t-28-12q-17 0-29 12t-12 28.702V-369Z"/></svg>