<svg xmlns="http://www.w3.org/2000/svg" width="48" height="48" viewBox="0 -960 960 960"><path d="M676-132q-14 0-26-12.5T638-170v-103q0-14 12-25.5t26-11.5h3v-40q0-29 19.5-49.5T747-420q29 0 48.5 20.5T815-350v40h3q13.412 0 25.206 11.5Q855-287 855-273v103q0 13-11.794 25.5T818-132H676Zm31-178h81v-40q0-18-12-30t-29-12q-17 0-28.5 12T707-350v40ZM197-132q-18.688 0-25.344-16.5Q165-165 178-178l604-604q13-13 29.5-6.344T828-764v231q0 11.75-7.625 19.375T801-506h-54q-81 0-138 57t-57 139v151q0 11.75-7.625 19.375T525-132H197Z"/></svg>