<svg xmlns="http://www.w3.org/2000/svg" width="48" height="48" viewBox="0 0 48 48"><path d="M35.45 14.55H30q-.25 0-.4-.15-.15-.15-.15-.4t.15-.4q.15-.15.4-.15h5.45V8q0-.25.15-.4.15-.15.4-.15t.4.15q.15.15.15.4v5.45H42q.25 0 .4.15.15.15.15.4t-.15.4q-.15.15-.4.15h-5.45V20q0 .25-.15.4-.15.15-.4.15t-.4-.15q-.15-.15-.15-.4ZM22 39.45q3.65 0 6.65-1.825 3-1.825 5.15-5.125-7.2.15-11.775-3.95Q17.45 24.45 17.45 18q0-1.15.2-2.375t.6-2.675q-4.35 1.55-7.025 5.075Q8.55 21.55 8.55 26q0 5.55 3.95 9.5t9.5 3.95Zm13.2-7.35q-1.8 3.9-5.35 6.175T22 40.55q-6.05 0-10.3-4.25Q7.45 32.05 7.45 26q0-5.2 3.175-9.2 3.175-4 8.225-5 .2-.05.375.025.175.075.325.175.1.1.15.25.05.15-.05.3-.55 1.3-.825 2.65-.275 1.35-.275 2.8 0 5.6 3.925 9.525Q26.4 31.45 32 31.45q.65 0 1.3-.075t1.3-.175q.1-.05.275.025.175.075.225.175.1.15.15.325.05.175-.05.375Zm-13.15-3.6Z"/></svg>