<svg xmlns="http://www.w3.org/2000/svg" width="48" height="48" viewBox="0 -960 960 960"><path d="m748-317-22-22v-304q0-44.725-32.138-76.862Q661.725-752 617.228-752H322.5q-5.5 0-7.5 2l-17-17q5-1 14-4t20-4v-48q0-12.917 9.059-21.958 9.059-9.042 22-9.042T385-844.958q9 9.041 9 21.958v49h172v-49q0-12.917 9.059-21.958 9.059-9.042 22-9.042T619-844.958q9 9.041 9 21.958v48q47 4 83.5 40t36.5 92v326ZM644-421l-28-28h14q4.725 2 8.362 5.638Q642-439.725 644-435v14ZM526-539Zm275 411L128-801l16-15 673 672-16 16ZM499-451v22H325q-4.675 0-7.838-3.228-3.162-3.228-3.162-8t3.162-7.772q3.163-3 7.838-3h174Zm-13 9ZM238-722l16 16q-10 13-15 29.391-5 16.392-5 33.609v463q0 14 9 23t23 9h428q14 0 23-9t9-23v-54l22 22v32q0 21.5-16.25 37.75T694-126H266q-21.5 0-37.75-16.25T212-180v-463q0-22.209 7-42.104Q226-705 238-722Z"/></svg>