<svg xmlns="http://www.w3.org/2000/svg" width="48" height="48" viewBox="0 96 960 960"><path d="M848 976 704 832v23q1 18-11.3 31.5T663 900H197q-16.917 0-28.958-12.042Q156 875.917 156 859V529q0-16.917 12.042-28.958Q180.083 488 197 488h82l39-43L98 225q-3-2.067-3.5-7.033Q94 213 98.053 210q3.052-4 7.5-4 4.447 0 7.447 4l751 750q3 3.455 3.5 8.227.5 4.773-3.553 8.273-4.052 3.5-7.933 3.5-3.881 0-8.014-4Zm-646-98h456q10 0 17-7t7-17v-44L544 672q1 4 1 7.5v7.5q2 50-32 85.5T430 808q-48 0-81-33t-33-81q0-49 35.5-83t85.5-32h7.5q3.5 0 7.5 1l-70-70H202q-10 0-17 7t-7 17v320q0 10 7 17t17 7Zm502-181-22-22V534q0-10-7-17t-17-7H517l-78-78h67q11.583 0 21.792 5Q538 442 546 450l36 38h81q16.917 0 28.958 12.042Q704 512.083 704 529v168Zm-22-22Zm-150-15ZM429.765 786Q469 786 495.5 759.235q26.5-26.764 26.5-65Q522 655 495.735 628.5q-26.264-26.5-65.5-26.5Q392 602 365 628.265q-27 26.264-27 65.5Q338 732 364.765 759q26.764 27 65 27ZM740 341h-1.857q-6.143 0-10.643-4.2-4.5-4.2-4.5-10.8v-80.286q0-5.714 4.5-9.714t10.047-4H780q8.75 0 12.875 6.5T794 253l-28 62h22q8 0 12 6.5t1 14.5l-42 105q-3 7-11 5.368-8-1.631-8-9.368v-96Z"/></svg>