<svg xmlns="http://www.w3.org/2000/svg" width="48" height="48" viewBox="0 -960 960 960"><path d="M795-80 45-831q-3-2-3.5-7t3.553-8q3.052-4 7.5-4Q57-850 60-846L811-96q3 3.454 3.5 8.227t-3.553 8.273q-4.052 3.5-7.933 3.5-3.881 0-8.014-4Zm1-134-19-20 44-426H462l-.333-.076Q462-669 467.439-675.5T483-682h157v-155q0-4.675 3.228-7.838 3.228-3.162 8-3.162t7.772 3.162q3 3.163 3 7.838v155h161q9.65 0 14.825 6.114Q843-669.773 842-660l-46 446ZM628-383ZM126-209q-4.675 0-7.837-3.228-3.163-3.228-3.163-8t3.163-7.772q3.162-3 7.837-3h488q4.675 0 7.838 3.228 3.162 3.228 3.162 8T621.838-212q-3.163 3-7.838 3H126Zm0 117q-4.675 0-7.837-3.228-3.163-3.228-3.163-8t3.163-7.772q3.162-3 7.837-3h488q4.675 0 7.838 3.228 3.162 3.228 3.162 8T621.838-95q-3.163 3-7.838 3H126Zm316-372v22q-17-3-34.5-4t-37.5-1q-105 0-161.5 31T140-345h422l22 22H139q-10.163 0-16.581-7.5Q116-338 118-347q13-44 72-83t180-39q19 0 37 1t35 4Zm-72 119Z"/></svg>