<svg xmlns="http://www.w3.org/2000/svg" width="48" height="48" viewBox="0 96 960 960"><path d="m708 701-22-22V442q0-14-9-23t-23-9H409l-22-22h9V285q0-11.475 7.67-19.237Q411.34 258 422.677 258h124.71q11.338 0 18.975 7.763Q574 273.525 574 285v103h80q21.5 0 37.75 16.265Q708 420.529 708 442.049V701Zm-87-87-22-22v-99q0-5.067 2.953-8.033 2.954-2.967 8-2.967 5.047 0 8.047 2.967 3 2.966 3 8.033v121ZM418 388h134V280H418v108Zm-84.07 524Q322 912 314 903.95T306 884q-21.5 0-37.75-16.25T252 830V439q0-19 11.156-33.062Q274.312 391.875 292 388l22 22h-8q-14 0-23 9t-9 23v388q0 14 9 23t23 9h348q14 0 23-9t9-23v-48l22 22v26q0 21.5-16.25 37.75T654 884q0 11.9-8.07 19.95-8.07 8.05-20 8.05T606 903.95q-8-8.05-8-19.95H362q0 12-8.07 20t-20 8ZM848 976 98 225q-3-2.067-3.5-7.033Q94 213 98.053 210q3.052-4 7.5-4 4.447 0 7.447 4l751 750q3 3.455 3.5 8.227.5 4.773-3.553 8.273-4.052 3.5-7.933 3.5-3.881 0-8.014-4ZM350.047 790Q345 790 342 787.033q-3-2.966-3-8.033V435l22 22v322q0 5.067-2.953 8.033-2.954 2.967-8 2.967Zm130 0Q475 790 472 787.033q-3-2.966-3-8.033V565l22 22v192q0 5.067-2.953 8.033-2.954 2.967-8 2.967Zm130 0Q605 790 602 787.033q-3-2.966-3-8.033v-84l22 22v62q0 5.067-2.953 8.033-2.954 2.967-8 2.967ZM552 544Zm-63 73Z"/></svg>