<svg xmlns="http://www.w3.org/2000/svg" width="48" height="48" viewBox="0 96 960 960"><path d="M848 976 704 831h-10v108q0 5-3 8t-8 3q-5 0-8-3t-3-8V800L98 225q-3-2-3.5-7t3.5-8q3-4 7.5-4t7.5 4l751 750q3 3 3.5 8t-3.5 8q-4 4-8 4t-8-4ZM694 687l-21-21v-37h-36l-55-55V368q0-60 28-106.5t84-57.5v483ZM439 431l-22-21V213q0-5 3-8t8-3q5 0 8 3t3 8v218ZM330 322l-22-22v-87q0-5 3-8t8-3q4 0 7.5 3t3.5 8v109ZM220 213l-11-11q4 0 7.5 3.5t3.5 7.5Zm88 726V589q-46-3-78-37t-32-84V294l22 22v152h88v-64l22 22v42h42l55 55q-14 28-40 46t-57 20v350q0 5-3.5 8t-7.5 3q-5 0-8-3t-3-8Z"/></svg>