<svg xmlns="http://www.w3.org/2000/svg" width="48" height="48" viewBox="0 -960 960 960"><path d="m828-236-22-21v-395q0-13-9-22.5t-23-9.5H379l-47-47 34-40q7-8 17.26-12.5Q393.521-788 406-788h148q12.479 0 22.74 4.5Q587-779 594-771l58 65h122q23 0 38.5 15.5T828-652v416ZM615-448 489-574q27 2 48.5 11.5t39.5 27q18 17.5 27.5 39T615-448Zm-130 5Zm91-44ZM254-706l22 22h-90q-12 0-22 10t-10 22v426q0 14 9 23t23 9h548L583-346q-20 20-45.873 32-25.873 12-57.127 12-58 0-97.5-39.5T343-439q0-31.254 12-57.127T387-541L98-831q-3-2.067-3.5-7.033Q94-843 98.053-846q3.052-4 7.5-4 4.447 0 7.447 4L864-96q3 3.454 3.5 8.227t-3.553 8.273q-4.052 3.5-7.933 3.5-3.881 0-8.014-4l-92-92H186q-22.775 0-38.387-15.613Q132-203.225 132-226v-426q0-22.775 15.613-38.388Q163.225-706 186-706h68Z"/></svg>