<svg xmlns="http://www.w3.org/2000/svg" width="48" height="48" viewBox="0 -960 960 960"><path d="m848-80-92-92H186q-21.75 0-37.875-16.125T132-226v-426q0-21.75 16.125-37.875T186-706h68v32L98-831q-3-2-3.5-7t3.5-8q3-4 7.5-4t7.5 4L864-96q3 3 3.5 8t-3.5 8q-4 4-8 4t-8-4Zm-37-196q-7 3-15 2t-14-7L615-448q-1-24-10.5-47t-27.788-41.288Q559-554 536.5-563q-22.5-9-47.5-11L350-714q-4-4-6.5-8.591Q341-727.182 341-733q0-4 2-8.632 2-4.631 5-8.368l18-21q7.203-7.769 17.763-12.385Q394.322-788 406-788h148q11.678 0 22.237 4.615Q586.797-778.769 594-771l58 65h122q21.75 0 37.875 16.125T828-652v352q0 9.5-5.5 15.75T811-276Zm-331-26q28.53 0 55.265-11.5T583-346L387-541q-21 20-32.5 46.735T343-439q0 57.333 39.833 97.167Q422.667-302 480-302Zm.5-22q-48.25 0-81.875-33.625T365-439.5q0-22.5 9-43.5t25-37l162 162q-16 17-37 25.5t-43.5 8.5Z"/></svg>