<svg xmlns="http://www.w3.org/2000/svg" width="48" height="48" viewBox="0 -960 960 960"><path d="M848-80 644-285h31v105q0 3.524-2.39 5.762-2.39 2.238-6.492 2.238-4.277 0-6.697-2.532Q657-177.063 657-180v-73H303v72q0 3.75-2.676 6.375-2.677 2.625-6.5 2.625-3.824 0-6.324-2.625T285-181v-76q-23-3-48-33.5T212-360v-356.102L98-831q-3-2.067-3.5-7.033Q94-843 98.053-846q3.052-4 7.5-4 4.447 0 7.447 4L864-96q3 3 3.5 7.5t-3.714 8.5q-3.215 4-7.5 4Q852-76 848-80ZM315-275h339L451-477H234v120q0 33 23.5 57.5T315-275Zm425-48-14-14v-140H586l-22-22h162v-212H352l-22-22h400q-12-38-72.5-55.5T480-806q-72 0-121 5.5T280-783l-15-15q33.11-15 86.473-22.5Q404.837-828 480-828q143.05 0 205.525 23.975Q748-780.05 748-725v365q0 9.659-2 18.829Q744-332 740-323Zm-403.706-15Q352-338 363-349.294t11-27Q374-392 362.706-403.5t-27-11.5Q320-415 308.5-403.206t-11.5 27.5Q297-360 308.794-349t27.5 11ZM234-499h195L234-694v195Zm96-234h400-400Zm121 256Zm135 0h140-140Z"/></svg>