<svg xmlns="http://www.w3.org/2000/svg" width="48" height="48" viewBox="0 96 960 960"><path d="m512 667 117-80q3.889-2.318 5.444-4.795 1.556-2.478 1.556-6.341 0-3.864-1.556-6.239Q632.889 567.25 629 564l-117-79q-8-5-15.5-1t-7.5 13v158q0 9 7.5 13t15.5-1Zm-131.965 17q4.965 0 7.965-3.025t3-7.975V478q0-4.525-3.035-7.263-3.035-2.737-8-2.737T372 471.025q-3 3.025-3 7.975v195q0 4.525 3.035 7.263 3.035 2.737 8 2.737Zm100.139 240Q408 924 344.442 897.109q-63.559-26.892-111.075-74.348-47.515-47.457-74.441-110.935Q132 648.348 132 576.174q0-72.174 26.891-135.732 26.892-63.559 74.348-111.074 47.457-47.516 110.935-74.442Q407.652 228 479.826 228q72.174 0 135.732 26.891 63.559 26.892 111.074 74.348 47.516 47.457 74.442 110.935Q828 503.652 828 575.826q0 72.174-26.891 135.732-26.892 63.559-74.348 111.075-47.457 47.515-110.935 74.441Q552.348 924 480.174 924Z"/></svg>