<svg xmlns="http://www.w3.org/2000/svg" width="48" height="48" viewBox="0 -960 960 960"><path d="M223-212q-5 0-8-3t-3-8q0-5 3-8t8-3h49v-335q0-77 49-136t125-71v-18q0-14 10-24t24-10q14 0 24 10t10 24v18q76 12 125 71t49 136v335h49q5 0 8 3t3 8q0 5-3 8t-8 3H223Zm257-283Zm0 383q-25 0-42.5-17.5T420-172h120q0 25-17.5 42.5T480-112ZM294-234h372v-335q0-77-54.5-131.5T480-755q-77 0-131.5 54.5T294-569v335ZM167-571q-5 0-8-3.5t-3-8.5q2-59 24-112t60-94q4-5 9.5-6t8.5 2q4 3 4 8.5t-4 8.5q-35 39-56 87t-23 103q-1 5-3.5 10t-8.5 5Zm626 0q-6 0-8.5-5t-3.5-10q-2-55-22.5-102.5T703-775q-4-4-5-9.5t3-8.5q4-3 9.5-1.5t9.5 6.5q38 41 60 93.5T804-583q0 5-3 8.5t-8 3.5Z"/></svg>