<svg xmlns="http://www.w3.org/2000/svg" width="48" height="48" viewBox="0 -960 960 960"><path d="M171-320q0-38 26.5-64.5T262-411h80q68.833 0 108.917-42.083Q491-495.167 491-554q0-32-20.75-53.5T419-629q-19.75 0-33.875-14.125T371-677v-166q0-4.7 3.488-7.85 3.488-3.15 8.687-3.15 4.775 0 7.8 3.15Q394-847.7 394-843v166q0 11 7 18.5t18 7.5q39.167 0 66.583 27.417Q513-596.167 513-554q0 68.21-46.395 116.605Q420.21-389 342-389h-80q-29.25 0-49.125 19.875T193-320v203q0 4.7-3.211 7.85-3.21 3.15-8 3.15-4.789 0-7.789-3.15t-3-7.85v-203Zm223-357v-177 177q0 11 7 18.5t18 7.5q39.167 0 66.583 27.417Q513-596.167 513-554q0 68.21-46.395 116.605Q420.21-389 342-389h-80q-29.25 0-49.125 19.875T193-320v214-214q0-29.25 19.875-49.125T262-389h80q78.21 0 124.605-48.395Q513-485.79 513-554q0-42.167-27.417-69.583Q458.167-651 419-651q-11 0-18-7.5t-7-18.5Zm394 207q-6-4-11.103-8.016T766-486v-34q0-93-59.5-161T557-749q-28.513 0-49.756-21.625Q486-792.25 486-820v-23q0-4.7 3.211-7.85 3.21-3.15 8-3.15 4.789 0 7.789 3.15t3 7.85v23l49 49q98 0 164.5 75T788-520v50ZM308-160v43q0 4.7-3.211 7.85-3.21 3.15-8 3.15-4.789 0-7.789-3.15t-3-7.85v-43q0-38 26.5-64.5T377-251h76q2 6 3.5 11.415Q458-234.169 460-229h-83q-29.25 0-49.125 19.875T308-160Zm349-55q37.475 0 63.237-25.762Q746-266.525 746-304q0-37.475-25.763-63.237Q694.475-393 657-393t-63.237 25.763Q568-341.475 568-304t25.763 63.238Q619.525-215 657-215Zm0 22q-46 0-78.5-32.5T546-304q0-47 32.5-79t78.5-32q46 0 78.5 32t32.5 79q0 21.281-8 40.641Q752-244 739-229l87 86q3 2.911 3 7.956 0 5.044-2.929 8.044-2.928 3-8 3-5.071 0-8.071-3l-87-88q-14 10-30.325 16-16.326 6-35.675 6Z"/></svg>