<svg xmlns="http://www.w3.org/2000/svg" width="48" height="48" viewBox="0 96 960 960"><path d="M226 884q-22.775 0-38.387-15.612Q172 852.775 172 830V322q0-22.775 15.613-38.388Q203.225 268 226 268h197q4.725 0 7.862 3.193 3.138 3.193 3.138 8T430.862 287q-3.137 3-7.862 3H226q-12 0-22 10t-10 22v508q0 12 10 22t22 10h508q12 0 22-10t10-22V633q0-4.725 3.193-7.862 3.193-3.138 8-3.138t7.807 3.138q3 3.137 3 7.862v197q0 22.775-15.612 38.388Q756.775 884 734 884H226Zm154.565-208.435Q377 672 376.5 668q-.5-4 3.5-8l370-370H559q-4.725 0-7.862-3.193-3.138-3.193-3.138-8t3.138-7.807q3.137-3 7.862-3h202q11.725 0 19.362 7.638Q788 283.275 788 295v202q0 4.725-3.193 7.862-3.193 3.138-8 3.138T769 504.862q-3-3.137-3-7.862V306L395 677q-2.442 3-6.721 2.5t-7.714-3.935Z"/></svg>