<svg xmlns="http://www.w3.org/2000/svg" width="48" height="48" viewBox="0 96 960 960"><path d="M226 884q-22.775 0-38.387-15.612Q172 852.775 172 830V320q0-5 .5-9.5t1.5-8.5l-39-40q-3-3.25-3-7.125t4.053-7.875q3.052-3 7.3-3 4.247 0 8.647 3l658 658q2.167 3.5 2.083 7.75Q812 917 808.947 920q-4.452 4-8.7 4-4.247 0-7.247-4l-39-38q-4 1-8.5 1.5t-9.5.5H226Zm0-22h508L472 600l-77 77q-2 3-6.5 3t-8.37-4.391Q377 672 376.5 668t3.5-8l76-76-262-262v508q0 12 10 22t22 10Zm562-82-22-22V633q0-4.725 3.193-7.862 3.193-3.138 8-3.138t7.807 3.138q3 3.137 3 7.862v147ZM540 532l-16-16 226-226H559q-4.725 0-7.862-3.193-3.138-3.193-3.138-8t3.138-7.807q3.137-3 7.862-3h202q11.725 0 19.362 7.638Q788 283.275 788 295v202q0 4.725-3.193 7.862-3.193 3.138-8 3.138T769 504.862q-3-3.137-3-7.862V306L540 532ZM298 290l-22-22h147q4.725 0 7.862 3.193 3.138 3.193 3.138 8T430.862 287q-3.137 3-7.862 3H298Z"/></svg>