<svg xmlns="http://www.w3.org/2000/svg" width="48" height="48" viewBox="0 -960 960 960"><path d="M299-152q-11.475 0-19.237-7.762Q272-167.525 272-179v-234q0-11.475 7.763-19.237Q287.525-440 299-440h33v-139q0-6-2-12t-7-10l-77-78q-16-14.934-16-37.467T246-755l74-74q3.2-3 7.6-2.5 4.4.5 7.4 3.447 3 2.948 3 7 0 4.053-3 7.053l-74 74q-9 10-8.5 23.5T262-694l76 76q7 7 11.5 17.435Q354-590.13 354-579v139.404h33q11.475 0 19.237 7.646Q414-424.303 414-413v234q0 11.475-7.763 19.238Q398.475-152 387-152h-88Zm274 0q-11.475 0-19.237-7.762Q546-167.525 546-179v-234q0-11.475 7.763-19.237Q561.525-440 573-440h33v-123q-42-5-71-37.17t-29-75.44Q506-722 538-755t79-33q47 0 79 33.031T728-676q0 43.66-29 75.83T628-563v123h33.175q11.55 0 19.187 7.763Q688-424.475 688-413v234q0 11.475-7.763 19.238Q672.475-152 661-152h-88Zm44.292-433Q655-585 680.5-611.239t25.5-64.5Q706-714 680.416-740q-25.584-26-63-26T554-739.969q-26 26.031-26 64t25.792 64.469q25.792 26.5 63.5 26.5ZM294-174h98v-244h-98v244Zm274 0h98v-244h-98v244Zm-274 0h98-98Zm274 0h98-98Z"/></svg>