<svg xmlns="http://www.w3.org/2000/svg" width="48" height="48" viewBox="0 96 960 960"><path d="M136 302q-4.7 0-7.85-3.211-3.15-3.21-3.15-8 0-4.789 3.15-7.789t7.85-3h354q4.7 0 7.85 3.211 3.15 3.21 3.15 8 0 4.789-3.15 7.789t-7.85 3H136Zm177.353 471Q328 773 339 761.75q11-11.25 11-25.75v-63h63q14.5 0 25.75-11.353t11.25-26Q450 621 438.75 610 427.5 599 413 599h-63v-63q0-14.5-11.353-25.75t-26-11.25Q298 499 287 510.25 276 521.5 276 536v63h-63q-14.5 0-25.75 11.353t-11.25 26Q176 651 187.25 662q11.25 11 25.75 11h63v63q0 14.5 11.353 25.75t26 11.25ZM139 884q-23 0-38.5-15.5T85 830V442q0-23 15.5-38.5T139 388h348q23 0 38.5 15.5T541 442v388q0 23-15.5 38.5T487 884H139Zm624-211.842q-3-3.842-3-8.5 0-4.658 3-7.658l71-69H669q-4.325 0-7.162-3.272-2.838-3.272-2.838-7.5t3.213-7.228q3.212-3 6.787-3h165l-69-68q-4-4-4-8.5t3.131-7.5q4.131-4 9.186-4 5.056 0 8.134 4L857 557.441q8 8.905 8 19.279T857 595l-77 77q-3.067 4-8.033 4-4.967 0-8.967-3.842Z"/></svg>