<svg xmlns="http://www.w3.org/2000/svg" width="48" height="48" viewBox="0 96 960 960"><path d="M226 884q-22.775 0-38.387-15.612Q172 852.775 172 830V322q0-22.775 15.613-38.388Q203.225 268 226 268h508q22.775 0 38.388 15.612Q788 299.225 788 322v508q0 22.775-15.612 38.388Q756.775 884 734 884H226Zm-32-337v283q0 12 10 22t22 10h508q12 0 22-10t10-22V547H625v174H335V547H194Zm163 152h246V547H357v152ZM194 525h572V322q0-12-10-22t-22-10H226q-12 0-22 10t-10 22v203Zm123.807-102q-9.807 0-17.307-7.693-7.5-7.693-7.5-17.5t7.693-17.307q7.693-7.5 17.5-7.5t17.307 7.693q7.5 7.693 7.5 17.5t-7.693 17.307q-7.693 7.5-17.5 7.5Zm160 0q-9.807 0-17.307-7.693-7.5-7.693-7.5-17.5t7.693-17.307q7.693-7.5 17.5-7.5t17.307 7.693q7.5 7.693 7.5 17.5t-7.693 17.307q-7.693 7.5-17.5 7.5Zm160 0q-9.807 0-17.307-7.693-7.5-7.693-7.5-17.5t7.693-17.307q7.693-7.5 17.5-7.5t17.307 7.693q7.5 7.693 7.5 17.5t-7.693 17.307q-7.693 7.5-17.5 7.5Z"/></svg>