<svg xmlns="http://www.w3.org/2000/svg" width="48" height="48" viewBox="0 0 48 48"><path d="M6.7 35.4q-1.15 0-1.925-.775Q4 33.85 4 32.7V15.3q0-1.15.775-1.925Q5.55 12.6 6.7 12.6h17.4q1.15 0 1.925.775.775.775.775 1.925v17.4q0 1.15-.775 1.925-.775.775-1.925.775Zm28.15 0q-.25 0-.4-.15-.15-.15-.15-.4v-21.7q0-.25.15-.4.15-.15.4-.15t.4.15q.15.15.15.4v21.7q0 .25-.15.4-.15.15-.4.15Zm8.6 0q-.25 0-.4-.15-.15-.15-.15-.4v-21.7q0-.25.15-.4.15-.15.4-.15t.4.15q.15.15.15.4v21.7q0 .25-.15.4-.15.15-.4.15Z"/></svg>