<svg xmlns="http://www.w3.org/2000/svg" width="48" height="48" viewBox="0 -960 960 960"><path d="M738-237v-94q0-6-4-10t-10-4q-6 0-10 4t-4 9.76V-237q0 5.636 2 10.818 2 5.182 5.836 9.018l63.06 63.06Q785-150 790.5-149.5q5.5.5 10.5-4 4-3.5 4-9.864 0-6.363-4-10.636l-63-63Zm-512 65q-21.75 0-37.875-16.125T172-226v-508q0-21.75 16.125-37.875T226-788h508q21.75 0 37.875 16.125T788-734v247q-6-1-11.5-2t-10.5-3v-242q0-12-10-22t-22-10H226q-12 0-22 10t-10 22v508q0 12 10 22t22 10h242q1 6 1.523 11.672.522 5.673 2.477 10.328H226Zm-32-64v42-572 274-3 259Zm112-92.807q0 4.807 3.138 7.807 3.137 3 7.862 3h159.595q3.405-5 5.905-10.5Q485-334 488-340H317q-4.725 0-7.862 3.193-3.138 3.193-3.138 8Zm0-151q0 4.807 3.138 7.807 3.137 3 7.862 3h288q10-2 15.5-4t11.5-6v-3q0-4-3.5-6.5T621-491H317q-4.725 0-7.862 3.193-3.138 3.193-3.138 8Zm0-151q0 4.807 3.138 7.807 3.137 3 7.862 3h326q4.725 0 7.862-3.193 3.138-3.193 3.138-8T650.862-639q-3.137-3-7.862-3H317q-4.725 0-7.862 3.193-3.138 3.193-3.138 8ZM723.981-86q-60.02 0-102-42.687Q580-171.375 580-230.187q0-61.248 41.971-103.03Q663.941-375 724.481-375 784-375 826-333.217q42 41.782 42 103.03 0 58.812-42 101.5Q784-86 723.981-86Z"/></svg>