<svg xmlns="http://www.w3.org/2000/svg" width="48" height="48" viewBox="0 -960 960 960"><path d="M226-172q-22.775 0-38.387-15.613Q172-203.225 172-226v-508q0-22.775 15.613-38.388Q203.225-788 226-788h508q22.775 0 38.388 15.612Q788-756.775 788-734v508q0 22.775-15.612 38.387Q756.775-172 734-172H226Zm0-22h508q12 0 22-10t10-22v-508q0-12-10-22t-22-10H226q-12 0-22 10t-10 22v508q0 12 10 22t22 10Zm-32-572v572-572Zm286 363 66 41q8 5 15.5-1t5.5-15l-18-75 59-50q7-7 3.455-14.904Q607.909-525.808 600-527l-77.105-7.292L493-604q-3.677-8-12.839-8Q471-612 467-604l-29.895 69.708L360-527q-7.909 1.192-11.455 9.096Q345-510 352-503l59 50-18 75q-2 9 5.5 15t15.5 1l66-41Z"/></svg>