<svg xmlns="http://www.w3.org/2000/svg" width="48" height="48" viewBox="0 0 48 48"><path d="m36.85 37.65-3.65-3.6q-.15-.15-.15-.4t.15-.45q.2-.2.45-.2t.45.2l3.55 3.6q.2.2.2.425 0 .225-.2.425-.15.2-.4.2t-.4-.2ZM13.5 37.2q-2.55 0-4.375-1.825Q7.3 33.55 7.3 31q0-2.35 1.7-4.025 1.7-1.675 4-1.675 1.65 0 2.975.875 1.325.875 2.075 2.325l.95 2.35h2.6q1.3 0 2.2.925.9.925.9 2.225 0 1.35-.925 2.275-.925.925-2.275.925Zm14.7-4.8q-.6-2.35-2.45-3.875T21.5 27.15q-.75-2.15-2.525-3.6Q17.2 22.1 14.9 21.8q.7-3.15 3.275-5.175T24 14.6q3.9 0 6.65 2.75Q33.4 20.1 33.4 24q0 2.7-1.425 4.925Q30.55 31.15 28.2 32.4Zm9.4-7.85q-.25 0-.4-.15-.15-.15-.15-.4t.15-.4q.15-.15.4-.15h5.15q.25 0 .4.15.15.15.15.4t-.15.4q-.15.15-.4.15Zm-23.55-9.7-3.7-3.7q-.2-.2-.2-.425 0-.225.2-.375t.425-.15q.225 0 .375.15L14.8 14q.2.2.225.425.025.225-.175.425-.2.2-.4.2t-.4-.2Zm19.15-.05q-.2-.2-.2-.45t.2-.4l3.6-3.6q.2-.2.425-.2.225 0 .425.2.2.2.2.4t-.2.4L34 14.8q-.2.2-.4.2t-.4-.2ZM24 10.95q-.25 0-.4-.15-.15-.15-.15-.4V5.25q0-.25.15-.4.15-.15.4-.15t.4.15q.15.15.15.4v5.15q0 .25-.15.4-.15.15-.4.15Z"/></svg>