<svg xmlns="http://www.w3.org/2000/svg" width="48" height="48" viewBox="0 -960 960 960"><path d="m737-207-73-72q-3-3.067-3-8.033 0-4.967 3-8.967 4-4 8.967-4 4.966 0 9.033 4l71 72q4 4.067 4 8.533 0 4.467-4.053 8.467-3.052 4-8 4-4.947 0-7.947-4Zm-467-9q-51.375 0-87.688-36.364Q146-288.729 146-340.177q0-46.323 33.875-80.073Q213.75-454 260-454q32.834 0 59.631 17.407Q346.429-419.186 361-390l19.235 47H432q25.848 0 43.924 18.514t18.076 44.5Q494-253 475.7-234.5 457.4-216 430-216H270Zm294-96q-12-47-49-77.5T430-417q-15-43-50.5-72T298-524q14-63 65.721-103.5Q415.441-668 480-668q78.333 0 133.167 54.833Q668-558.333 668-480q0 54.227-28.5 98.614Q611-337 564-312Zm188-157q-4.7 0-7.85-3.211-3.15-3.21-3.15-8 0-4.789 3.15-7.789t7.85-3h103q4.7 0 7.85 3.211 3.15 3.21 3.15 8 0 4.789-3.15 7.789t-7.85 3H752ZM281-663l-74-74q-4-4-4-8.667 0-4.666 3.783-7.333 4.017-3 8.617-3 4.6 0 7.6 3l73 73q4 3.8 4.5 8.4.5 4.6-3.5 8.6t-8 4q-4 0-8-4Zm383-1q-4-4-4-8.967 0-4.966 4-8.033l72-72q4.067-4 8.533-4 4.467 0 8.684 4.217Q757-749 757-745t-4 8l-73 73q-4 4-8 4t-8-4Zm-184.211-77Q475-741 472-744.15t-3-7.85v-103q0-4.7 3.211-7.85 3.21-3.15 8-3.15 4.789 0 7.789 3.15t3 7.85v103q0 4.7-3.211 7.85-3.21 3.15-8 3.15Z"/></svg>