<svg xmlns="http://www.w3.org/2000/svg" width="48" height="48" viewBox="0 0 48 48"><path d="M31.65 26.95q-1.7 0-2.825-1.15Q27.7 24.65 27.7 23q0-1.7 1.1-2.85Q29.9 19 31.65 19q1.7 0 2.825 1.15 1.125 1.15 1.125 2.8 0 1.7-1.1 2.85-1.1 1.15-2.85 1.15ZM23 37q-.55 0-.95-.4-.4-.4-.4-.95v-.3q0-.5.25-.95.25-.45.7-.7 2-1.2 4.275-1.875 2.275-.675 4.775-.675 2.5 0 4.775.7 2.275.7 4.325 1.85.35.3.625.725t.275.925v.3q0 .55-.4.95-.4.4-.95.4Zm-.4-2.05v.95h18.1v-.95q-2.1-1.25-4.45-1.975-2.35-.725-4.6-.725-2.25 0-4.6.725-2.35.725-4.45 1.975Zm9.05-9.1q1.2 0 2.025-.825T34.5 23q0-1.2-.825-2.05-.825-.85-2.025-.85t-2.025.85Q28.8 21.8 28.8 23q0 1.2.825 2.025t2.025.825Zm0-2.85Zm0 12.9Zm-10.7-9.35H8.85q-.25 0-.4-.15-.15-.15-.15-.4t.15-.4q.15-.15.4-.15h12.1q.25 0 .4.15.15.15.15.4t-.15.4q-.15.15-.4.15Zm8.1-16.15H8.85q-.25 0-.4-.15-.15-.15-.15-.4t.15-.4q.15-.15.4-.15h20.2q.25 0 .4.15.15.15.15.4t-.15.4q-.15.15-.4.15Zm-4.9 8.05H8.85q-.25 0-.4-.15-.15-.15-.15-.4 0-.2.15-.375t.4-.175H25q-.2.3-.45.575-.25.275-.4.525Z"/></svg>