<svg xmlns="http://www.w3.org/2000/svg" width="48" height="48" viewBox="0 96 960 960"><path d="M548 782V370q0-8.525 6.737-15.263Q561.475 348 570 348h116q8.525 0 15.263 6.737Q708 361.475 708 370v412q0 8.525-6.737 15.263Q694.525 804 686 804H570q-8.525 0-15.263-6.737Q548 790.525 548 782Zm-296 0V370q0-8.525 6.737-15.263Q265.475 348 274 348h117q7.75 0 14.875 6.737Q413 361.475 413 370v412q0 8.525-7.125 15.263Q398.75 804 391 804H274q-8.525 0-15.263-6.737Q252 790.525 252 782Zm318 0h116V370H570v412Zm-296 0h117V370H274v412Z"/></svg>