<svg xmlns="http://www.w3.org/2000/svg" width="48" height="48" viewBox="0 -960 960 960"><path d="m166-166 628-628q10-10 22-4.5t12 18.5v321q-5-2-10.5-5t-11.5-5v-306L185-154h328q3 6 5 11.5t6 10.5H181q-14 0-19-12.5t4-21.5Zm19 12 621-621Q666-634 496-464.5T185-154Zm536 25q-29-5-47.5-15.5T640-174l-13 6q-4 3-8 2t-7-4v-1q-3-4-3-8t5-8l10-8q-10-26-10-50.5t10-50.5l-10-8q-4-2-5-7t2-9l1-1q3-3 7-4t9 2l12 7q14-20 33-30.5t48-15.5v-13q0-4 3.5-8t7.5-4q4 0 7.5 3.5t3.5 8.5v13q29 5 48 15.5t33 30.5l12-7q4-3 8.5-2t7.5 4v1q3 4 3 8.5t-5 7.5l-10 8q10 26 10 50.5T840-195l10 8q4 3 5 7.5t-2 8.5l-1 1q-4 3-7.5 4t-7.5-2l-13-6q-15 19-33.5 29.5T743-129v13q0 5-3.5 8.5T732-104q-4 0-7.5-3.5T721-116v-13Zm11-22q39 0 66.5-27.5T826-245q0-40-27.5-67.5T732-340q-40 0-67.5 27.5T637-245q0 39 27.5 66.5T732-151Z"/></svg>