<svg xmlns="http://www.w3.org/2000/svg" width="48" height="48" viewBox="0 0 48 48"><path d="m10.55 22.55-3.2-3.2q-.4-.4-.375-.95.025-.55.425-.95l3.15-3.15q.4-.4.95-.4.55 0 .95.4l3.1 3.15q.45.4.45.95 0 .55-.45.95l-3.1 3.15q-.4.4-.95.425-.55.025-.95-.375Zm11.1 18.85q-.55 0-.95-.4-.4-.4-.4-.95v-7.8q-2.75-.2-5.5-.575-2.75-.375-5.45-.925-.3-.05-.5-.25t-.15-.45q.05-.25.325-.35.275-.1.575-.05 3.55.8 7.15 1.15 3.6.35 7.25.35t7.25-.35q3.6-.35 7.15-1.15.3-.05.575.05.275.1.325.3.05.3-.175.5-.225.2-.525.25-2.7.55-5.425.925-2.725.375-5.475.575v7.8q0 .55-.4.95-.4.4-.95.4ZM11.5 21.95 15 18.4l-3.5-3.5-3.6 3.5ZM24 14.7q-1.7 0-2.875-1.175T19.95 10.65q0-1.7 1.175-2.875T24 6.6q1.7 0 2.875 1.175t1.175 2.875q0 1.7-1.175 2.875T24 14.7Zm0 12.55q-1.3 0-2.2-.9-.9-.9-.9-2.2 0-1.3.875-2.2.875-.9 2.225-.9 1.3 0 2.2.875.9.875.9 2.175 0 1.3-.875 2.225T24 27.25Zm0-13.65q1.25 0 2.1-.85.85-.85.85-2.1t-.85-2.1q-.85-.85-2.1-.85t-2.1.85q-.85.85-.85 2.1t.85 2.1q.85.85 2.1.85Zm9.75 9.15-1.5-2.7q-.2-.3-.2-.65 0-.35.2-.7l1.5-2.7q.2-.25.525-.45t.675-.2h2.95q.4 0 .725.2.325.2.475.45l1.55 2.7q.15.3.15.675 0 .375-.15.675l-1.55 2.7q-.15.3-.475.5-.325.2-.725.2h-2.95q-.35 0-.675-.2-.325-.2-.525-.5Zm1.05-.4h3.3l1.65-2.95-1.65-2.95h-3.3l-1.65 2.95ZM11.5 18.4ZM24 10.65Zm12.45 8.75Z"/></svg>