<svg xmlns="http://www.w3.org/2000/svg" width="48" height="48" viewBox="0 96 960 960"><path d="m211 547-64-64q-8-8.182-7.5-19.091T148 445l63-63q8.182-8 19.091-8T249 382l62 63q9 8.182 9 19.091T311 483l-62 63q-8.182 8-19.091 8.5T211 547Zm222 377q-11.475 0-19.237-7.763Q406 908.475 406 897V740.585q-54.807-3.723-110.038-10.964Q240.731 722.379 187 711q-6-1-10-5t-3.024-8.88q.975-4.88 6.5-7Q186 688 192 689q71 16 143.172 23T480 719q72.656 0 144.828-7T768 689q6.479-1 11.767.909 5.289 1.909 6.233 6.591 1 5.5-3.566 9.529-4.566 4.03-10.434 4.971-53.731 11.379-108.462 18.621-54.731 7.241-109.538 10.964V897q0 11.475-7.763 19.237Q538.475 924 527 924h-94ZM230 535l70-71-70-70-72 70 72 71Zm249.824-145Q446 390 422.5 366.323q-23.5-23.676-23.5-57.5Q399 275 422.676 251.5q23.677-23.5 57.5-23.5Q514 228 537.5 251.677q23.5 23.676 23.5 57.5Q561 343 537.323 366.5 513.647 390 479.824 390Zm.256 251q-26.48 0-44.28-18.189T418 579.08q0-26.48 17.72-44.28 17.721-17.8 44.2-17.8 26.48 0 44.28 17.72 17.8 17.721 17.8 43.7 0 25.98-17.72 44.28-17.721 18.3-44.2 18.3Zm-.255-273Q505 368 522 351.175q17-16.824 17-42Q539 284 522.175 267q-16.824-17-42-17Q455 250 438 266.825q-17 16.824-17 42Q421 334 437.825 351q16.824 17 42 17ZM675 551l-30-54q-4-5.806-4-12.903T645 470l30-54q4-5 10.569-9 6.569-4 13.431-4h59q8.345 0 14.672 4 6.328 4 9.328 9l31 54q3 6.097 3 13.548Q816 491 813 497l-31 54q-3.435 6-9.545 10-6.11 4-14.455 4h-59q-6.963 0-13.614-4-6.651-4-10.386-10Zm21-8h66l33-59-33-59h-66l-33 59 33 59Zm-466-79Zm250-155Zm249 175Z"/></svg>