<svg xmlns="http://www.w3.org/2000/svg" width="48" height="48" viewBox="0 96 960 960"><path d="M406 857V701.707Q350 698 295.5 691 241 684 187 672q-5-1-9.5-5t-3.5-8.5q1-5.5 6.5-7.5t11.5-1q71 16 143.174 23T480 680q72.652 0 144.826-7Q697 666 768 650q6-1 11.5.909T786 658q1 5-3.5 9t-10.5 5q-54 12-108.642 19-54.642 7-109.358 11v155q0 11.75-7.625 19.375T527 884h-94q-11.75 0-19.375-7.625T406 857Zm74.14-255Q454 602 436 584.181q-18-17.818-18-43.898Q418 514 435.819 496q17.818-18 43.898-18Q506 478 524 495.759t18 44.101Q542 566 524.241 584t-44.101 18ZM203 493q-13 0-22-9t-9-22.275q0-11.725 9-21.225 9-9.5 22.275-9.5 11.725 0 21.225 9.417Q234 449.833 234 462q0 13-9.417 22-9.416 9-21.583 9Zm554 0q-13 0-22-9t-9-22.275q0-11.725 9-21.225 9-9.5 22.275-9.5 11.725 0 21.225 9.417Q788 449.833 788 462q0 13-9.417 22-9.416 9-21.583 9ZM300 348q-13 0-22-9t-9-22.275q0-11.725 9-21.225 9-9.5 22.275-9.5 11.725 0 21.225 9.417Q331 304.833 331 317q0 13-9.417 22-9.416 9-21.583 9Zm360 0q-13 0-22-9t-9-22.275q0-11.725 9-21.225 9-9.5 22.275-9.5 11.725 0 21.225 9.417Q691 304.833 691 317q0 13-9.417 22-9.416 9-21.583 9Zm-180-58q-13 0-22-9t-9-22.275q0-11.725 9-21.225 9-9.5 22.275-9.5 11.725 0 21.225 9.417Q511 246.833 511 259q0 13-9.417 22-9.416 9-21.583 9Z"/></svg>