<svg xmlns="http://www.w3.org/2000/svg" width="48" height="48" viewBox="0 -960 960 960"><path d="m211-509-64-64q-8-8-7.5-19t8.5-19l63-63q8-8 19-8t19 8l62 63q9 8 9 19t-9 19l-62 63q-8 8-19 8.5t-19-7.5Zm222 377q-12 0-19.5-7.5T406-159v-156q-55-4-110-11.5T187-345q-6-1-10-5t-3-9q1-5 6.5-7t11.5-1q71 16 143 23t145 7q73 0 145-7t143-23q6-1 11.5 1t6.5 7q1 5-3.5 9t-10.5 5q-54 11-108.5 18.5T554-315v156q0 12-7.5 19.5T527-132h-94ZM230-521l70-71-70-70-72 70 72 71Zm192.5-168.5Q399-713 399-747t23.5-57.5Q446-828 480-828t57.5 23.5Q561-781 561-747t-23.5 57.5Q514-666 480-666t-57.5-23.5Zm13.5 256q-18-18.5-18-44t18-43.5q18-18 44-18t44 18q18 18 18 43.5t-18 44Q506-415 480-415t-44-18.5ZM522-705q17-17 17-42t-17-42q-17-17-42-17t-42 17q-17 17-17 42t17 42q17 17 42 17t42-17Zm153 200-30-54q-4-6-4-13t4-14l30-54q4-5 10.5-9t13.5-4h59q8 0 14.5 4t9.5 9l31 54q3 7 3 14t-3 13l-31 54q-3 6-9.5 10t-14.5 4h-59q-7 0-13.5-4T675-505Zm21-8h66l33-59-33-59h-66l-33 59 33 59Zm-466-79Zm250-155Zm249 175Z"/></svg>