<svg xmlns="http://www.w3.org/2000/svg" width="48" height="48" viewBox="0 -960 960 960"><path d="M839-64 52-855q-3-3-3.5-7.5T52-871q4-4 8-4t8 4L855-80q3 3 3.5 7.5T855-64q-4 4-8 4t-8-4ZM252-671l22 23v449h416l18 18v35q0 22-15.919 38T654-92H306q-21.75 0-37.875-16.125T252-146v-525Zm444.825-23Q692-694 689-697.125T686-705v-56H303q-11.444 0-21.722-4t-17.187-11.954l-30.306-31.969q-5.033-4.062-6.909-10.069Q225-825 225-832.07q0-15.141 9.5-25.535Q244-868 259-868h395q21.75 0 37.875 16.125T708-814v109q0 4.75-3.175 7.875-3.176 3.125-8 3.125ZM854-479.554Q854-434 838-392t-47 77q-4 4-8.5 4.5t-8.37-2.891Q770-317 771-321.542q1-4.541 4-8.458 28.359-31.075 42.679-69.906Q832-438.736 832-479.868 832-522 817-560.5 802-599 775-630q-4-3-5-8t3.087-9.087Q776-651 781.5-650t9.5 5q31 34 47 75.946 16 41.945 16 89.5ZM706-387q-3 3.368-5.596 4.974-2.595 1.605-6.404 3.026-5.587-1.25-8.826-5.125-3.239-3.875-2.978-9.875 1.804-3 3.304-4.316 1.5-1.317 4.5-2.806v.122h1q18-15 29-36t11-44q0-23-12-44.5T689-563q-2-2-2.5-3.659-.5-1.658-.5-4.317 0-4.024 2.816-7.024 2.817-3 8.306-3 1.878 0 3.378.5 1.5.5 3.5 2.5 49 41 49 95.093 0 54.094-47 95.907Z"/></svg>