<svg xmlns="http://www.w3.org/2000/svg" width="48" height="48" viewBox="0 96 960 960"><path d="M775 744q-4-4-3.5-9t3.5-9q28-31 42.5-70t14.5-80q0-41-14.5-80T775 426q-5-4-5.5-9t4.5-9q3-3 7.5-3.5t7.5 2.5q32 35 48.5 78.5T854 576q0 47-16.5 90T789 744q-3 3-7 3t-7-3Zm-78-78q-3-3-3-8t4-8q15-16 24-35t9-40q0-20-9-39.5T698 500q-4-3-4-7.5t3-8.5q3-2 7-2.5t8 1.5q18 19 29.5 42.5T753 575q0 27-11.5 50T712 667q-4 2-8 2t-7-3ZM306 964q-22 0-38-16t-16-38V242q0-22 16-38t38-16h348q22 0 38 16t16 38v120h-22v-67H274v562h412v-67h22v120q0 22-16 38t-38 16H306Z"/></svg>