<svg xmlns="http://www.w3.org/2000/svg" width="48" height="48" viewBox="0 -960 960 960"><path d="M744-172q-91 0-192-50T361-362q-89-90-139-190.5T172-744q0-18.429 12.286-31.214Q196.571-788 215-788h72.727Q306-788 318-777.5t17 28.5l18.929 77.641Q356-655 352-642t-13.229 21.226L253-543q28 49 59 90t65 76q38 39 82 71t97 61l84-86q10-11 21.163-14.5T687-347l62 14q18 3 28.5 16.618Q788-302.765 788-285v70q0 18.429-12.786 30.714Q762.429-172 744-172Zm-89.193-390Q650-562 647-565.138q-3-3.137-3-7.862v-204q0-4.725 3.193-7.862 3.193-3.138 8-3.138t7.807 3.138q3 3.137 3 7.862v204q0 4.725-3.193 7.862-3.193 3.138-8 3.138Zm122 0Q772-562 769-565.138q-3-3.137-3-7.862v-204q0-4.725 3.193-7.862 3.193-3.138 8-3.138t7.807 3.138q3 3.137 3 7.862v204q0 4.725-3.193 7.862-3.193 3.138-8 3.138Z"/></svg>