<svg xmlns="http://www.w3.org/2000/svg" width="48" height="48" viewBox="0 96 960 960"><path d="M622 718q-14 0-25-11t-11-25V578q0-14 11-25t25-11h5v-40q0-29 19.5-48.5T695 434q29 0 48.5 19.5T763 502v40h5q14 0 24 11t10 25v104q0 14-11 25t-25 11H622Zm33-176h80v-40q0-17-11.5-28.5T695 462q-17 0-28.5 11.213Q655 484.425 655 501v41ZM306 964q-21.75 0-37.875-16.125T252 910V242q0-21.75 16.125-37.875T306 188h348q21.75 0 37.875 16.125T708 242v120h-22v-67H274v562h412v-67h22v120q0 21.75-16.125 37.875T654 964H306Zm-32-85v31q0 12 10 22t22 10h348q12 0 22-10t10-22v-31H274Zm0-606h412v-31q0-12-10-22t-22-10H306q-12 0-22 10t-10 22v31Zm0 0v-63 63Zm0 606v63-63Z"/></svg>