<svg xmlns="http://www.w3.org/2000/svg" width="48" height="48" viewBox="0 96 960 960"><path d="M779 546q-4 0-7-3t-4-8q-13-106-88.5-182T497 264q-5 0-7.5-3t-2.5-8q0-5 3-8t8-2q116 12 197.5 93.5T790 535q1 5-2.5 8t-8.5 3Zm-164 0q-4 0-7.5-2.5T603 538q-11-40-39.5-69.5T495 428q-3-1-5.5-4t-2.5-7q0-5 3.5-8t8.5-1q46 11 80 44.5t46 80.5q1 6-2 9.5t-8 3.5Zm122 332q-95 0-196-53T357 689.5q-83-82.5-136-183T168 311q0-18 12.5-30.5T211 268h73q18 0 30.5 10.5T331 307l19 78q3 16-1 29t-14 21l-85 78q60 100 131 170t168 123l83-87q10-11 21.5-15t25.5-1l62 14q18 3 28.5 16t10.5 32v70q0 18-12.5 30.5T737 878Z"/></svg>