<svg xmlns="http://www.w3.org/2000/svg" width="48" height="48" viewBox="0 -960 960 960"><path d="M364-409h329l-99-133-103 128-66-76-61 81Zm-56 129q-22.775 0-38.388-15.612Q254-311.225 254-334v-440q0-22.775 15.612-38.388Q285.225-828 308-828h440q22.775 0 38.388 15.612Q802-796.775 802-774v440q0 22.775-15.612 38.388Q770.775-280 748-280H308Zm0-22h440q12 0 22-10t10-22v-440q0-12-10-22t-22-10H308q-12 0-22 10t-10 22v440q0 12 10 22t22 10Zm-96 118q-22.775 0-38.387-15.613Q158-215.225 158-238v-462h22v462q0 12 10 22t22 10h462v22H212Zm86-622h436q8 0 15 9.5t7 22.5v440q0 13-7 22.5t-15 9.5H298q-8 0-15-9.5t-7-22.5v-440q0-13 7-22.5t15-9.5Z"/></svg>