<svg xmlns="http://www.w3.org/2000/svg" width="48" height="48" viewBox="0 96 960 960"><path d="M351 754h268q10 0 13.5-8.5T631 731l-72-94q-4-6-11-6t-11 6l-90 111-53-59q-5.385-5-12.192-4.5Q375 685 371 690l-31.273 41.145Q335 738 338.5 746t12.5 8ZM186 884q-22.775 0-38.387-15.612Q132 852.775 132 830V404q0-23 15.613-38.5Q163.225 350 186 350h122l58-65q8-8 18.26-12.5Q394.521 268 406 268h148q11.479 0 21.74 4.5Q586 277 594 285l58 65h122q23 0 38.5 15.5T828 404v426q0 22.775-15.5 38.388Q797 884 774 884H186Zm588-22q14 0 23-9t9-23V404q0-13-9-22.5t-23-9.5H186q-14 0-23 9.5t-9 22.5v426q0 14 9 23t23 9h588ZM480 617Z"/></svg>