<svg xmlns="http://www.w3.org/2000/svg" width="48" height="48" viewBox="0 96 960 960"><path d="M480 754q58 0 97.5-39.5T617 617q0-58-39.5-97.5T480 480q-58 0-97.5 39.5T343 617q0 58 39.5 97.5T480 754ZM186 884q-22.775 0-38.387-15.612Q132 852.775 132 830V404q0-23 15.613-38.5Q163.225 350 186 350h122l58-65q8-8 17.76-12.5 9.761-4.5 22.24-4.5h148q12.479 0 22.24 4.5Q586 277 594 285l58 65h122q23 0 38.5 15.5T828 404v426q0 22.775-15.5 38.388Q797 884 774 884H186Zm588-22q14 0 23-9t9-23V404q0-13-9-22.5t-23-9.5H186q-14 0-23 9.5t-9 22.5v426q0 14 9 23t23 9h588ZM480 617Z"/></svg>