<svg xmlns="http://www.w3.org/2000/svg" width="48" height="48"><path d="M24 32.9q2.9 0 4.875-1.975t1.975-4.875q0-2.9-1.975-4.875T24 19.2q-2.9 0-4.875 1.975T17.15 26.05q0 2.9 1.975 4.875T24 32.9zM9.3 39.4q-1.15 0-1.925-.775Q6.6 37.85 6.6 36.7V15.4q0-1.15.775-1.925Q8.15 12.7 9.3 12.7h6.1l2.9-3.25q.4-.4.9-.625.5-.225 1.1-.225h7.4q.6 0 1.1.225.5.225.9.625l2.9 3.25h6.1q1.15 0 1.925.775.775.775.775 1.925v21.3q0 1.15-.775 1.925-.775.775-1.925.775zm29.4-1.1q.7 0 1.15-.45.45-.45.45-1.15V15.4q0-.65-.45-1.125T38.7 13.8H9.3q-.7 0-1.15.475-.45.475-.45 1.125v21.3q0 .7.45 1.15.45.45 1.15.45zM24 26.05z"/></svg>