<svg xmlns="http://www.w3.org/2000/svg" width="48" height="48" viewBox="0 -960 960 960"><path d="M477-327Zm86.593 143.756L410-244H199q-11.475 0-19.238-7.762Q172-259.525 172-271v-81q0-62 43-105t105-43h429q16.286 0 27.643 10.978T788-462q0 14-8 24t-21 14l-121 32v159q0 13.873-6.114 25.103Q625.771-196.667 615-188q-11.296 8.5-24.148 9.75t-27.259-4.994ZM491.058-370H365q-17 0-27 10.5T325.5-336q-2.5 13 3.682 26.455Q335.364-296.091 351-290l221 87q16 6 30-3.5t14-26.5v-137H491.058ZM194-266h150q-19-10-30.5-26.658T302-329q0-25.863 18.568-44.432Q339.137-392 365-392h180l209-53q7.889-1.75 10.444-7.375Q767-458 766-463.5t-5.75-10Q755.5-478 749-478H320q-52.5 0-89.25 36.75T194-352v86Zm283-61Zm-77-233q-44.55 0-76.275-31.725Q292-623.45 292-668q0-44.55 31.725-76.275Q355.45-776 400-776q44.55 0 76.275 31.725Q508-712.55 508-668q0 44.55-31.725 76.275Q444.55-560 400-560Zm-.159-22Q436-582 461-606.841q25-24.84 25-61Q486-704 461.159-729q-24.84-25-61-25Q364-754 339-729.159q-25 24.84-25 61Q314-632 338.841-607q24.84 25 61 25Zm.159-86Z"/></svg>