<svg xmlns="http://www.w3.org/2000/svg" width="48" height="48" viewBox="0 -960 960 960"><path d="M266-135.14q-3-3.13-3-7.86v-178H163q-14.96 0-22.98-12.5T138-359l51-105v-132h-46q-4.73 0-7.86-3.19-3.14-3.2-3.14-8 0-4.81 3.14-7.81 3.13-3 7.86-3h262q4.73 0 7.86 3.19 3.14 3.2 3.14 8 0 4.81-3.14 7.81-3.13 3-7.86 3h-45v132l50 105q7 13-1.27 25.5Q400.47-321 385-321H285v178q0 4.73-3.19 7.86-3.2 3.14-8 3.14-4.81 0-7.81-3.14ZM774-212H517q-4.72 0-7.86-3.19-3.14-3.2-3.14-8 0-4.81 3.14-7.81t7.86-3h257q14 0 23-9t9-23v-428q0-14-9-23t-23-9H143q-4.73 0-7.86-3.19-3.14-3.2-3.14-8 0-4.81 3.14-7.81 3.13-3 7.86-3h631q22.78 0 38.39 15.61T828-694v428q0 22.77-15.61 38.39Q796.78-212 774-212Z"/></svg>