<svg xmlns="http://www.w3.org/2000/svg" width="48" height="48" viewBox="0 -960 960 960"><path d="m562-298-49-48q-3-3-7.5-3.5T497-346q-4 4-4 8t4 8l46 46q8 8 19 8t19-8l131-132q2-3 3-7.5t-3-8.72q-4-3.78-8-3.78t-8 4L562-298Zm-240-88h37q4.95 0 8.48-3.54 3.52-3.53 3.52-9 0-5.46-3.52-8.96-3.53-3.5-8.48-3.5h-37q-5.95 0-9.48 3.54-3.52 3.53-3.52 9 0 5.46 3.52 8.96 3.53 3.5 9.48 3.5Zm-2-123h200q4.95 0 7.97-3.04 3.03-3.03 3.03-8 0-4.96-3.03-7.96-3.02-3-7.97-3H320q-4.95 0-7.98 3.04-3.02 3.03-3.02 8 0 4.96 3.02 7.96 3.03 3 7.98 3Zm0-120h200q4.95 0 7.97-3.04 3.03-3.03 3.03-8 0-4.96-3.03-7.96-3.02-3-7.97-3H320q-4.95 0-7.98 3.04-3.02 3.03-3.02 8 0 4.96 3.02 7.96 3.03 3 7.98 3Zm160.17 497q-72.17 0-135.23-27.39-63.06-27.39-110.57-74.85-47.52-47.46-74.94-110.43Q132-407.65 132-479.83q0-72.17 27.39-135.73 27.39-63.56 74.85-110.57 47.46-47.02 110.43-74.44Q407.65-828 479.83-828q72.17 0 135.73 27.39 63.56 27.39 110.57 74.35 47.02 46.96 74.44 110.43Q828-552.35 828-480.17q0 72.17-27.39 135.23-27.39 63.06-74.35 110.57-46.96 47.52-110.43 74.94Q552.35-132 480.17-132Zm-.17-22q136 0 231-95t95-231q0-136-95-231t-231-95q-136 0-231 95t-95 231q0 136 95 231t231 95Zm0-326Z"/></svg>