<svg xmlns="http://www.w3.org/2000/svg" width="48" height="48" viewBox="0 96 960 960"><path d="M480.204 658Q514 658 538.5 634t24.5-59.5q0-33.5-24.704-58-24.703-24.5-58.5-24.5Q446 492 421.5 516.5t-24.5 58q0 35.5 24.704 59.5 24.703 24 58.5 24Zm-.388 260q-5.816 0-10.483-1-4.666-1-7.333-3-109-41-179.5-144T212 538V370q0-17.257 9.875-31.662Q231.75 323.932 247 318l214-79q10-3 19-3t19 3l214 79q15.25 5.932 25.125 20.338Q748 352.743 748 370v168q0 54.637-15.5 111.819Q717 707 685 759L564 639q9-14 15-30t6-34q0-44-30.5-74.5T480 470q-44 0-74.5 30.5t-30.5 74q0 44.5 30.5 75T480 680q18.677 0 36.339-6.5Q534 667 548.857 655L673 777q-35 50-83 85.5T499 914q-3.776 2-8.571 3-4.796 1-10.613 1Z"/></svg>