<svg xmlns="http://www.w3.org/2000/svg" width="48" height="48" viewBox="0 -960 960 960"><path d="M410-292h254q11.725 0 19.362-7.67Q691-307.34 691-319.113v-5.114q0-11.773-7.638-19.273Q675.725-351 664-351H410q-11.725 0-19.362 7.67Q383-335.66 383-323.887v5.114q0 11.773 7.638 19.273Q398.275-292 410-292ZM226-172q-22.775 0-38.387-15.613Q172-203.225 172-226v-508q0-22.775 15.613-38.388Q203.225-788 226-788h508q22.775 0 38.388 15.612Q788-756.775 788-734v508q0 22.775-15.612 38.387Q756.775-172 734-172H226Zm0-22h508q12 0 22-10t10-22v-508q0-12-10-22t-22-10H226q-12 0-22 10t-10 22v508q0 12 10 22t22 10Zm-32-572v572-572Z"/></svg>