<svg xmlns="http://www.w3.org/2000/svg" width="48" height="48" viewBox="0 -960 960 960"><path d="M143-395q-4.675 0-7.837-3.228-3.163-3.228-3.163-8t3.163-7.772q3.162-3 7.837-3h133q4.675 0 7.838 3.228 3.162 3.228 3.162 8T283.838-398q-3.163 3-7.838 3H143Zm249 0q-5.35 0-8.175-3.228-2.825-3.228-2.825-8t3.162-7.772q3.163-3 7.838-3h136q4.675 0 7.838 3.228 3.162 3.228 3.162 8T535.838-398q-3.163 3-7.838 3H392Zm252 0q-5.35 0-8.175-3.228-2.825-3.228-2.825-8t3.162-7.772q3.163-3 7.838-3h133q4.675 0 7.838 3.228 3.162 3.228 3.162 8T784.838-398q-3.163 3-7.838 3H644ZM143-543q-4.675 0-7.837-3.228-3.163-3.228-3.163-8t3.163-7.772q3.162-3 7.837-3h634q4.675 0 7.838 3.228 3.162 3.228 3.162 8T784.838-546q-3.163 3-7.838 3H143Z"/></svg>