<svg xmlns="http://www.w3.org/2000/svg" width="48" height="48" viewBox="0 -960 960 960"><path d="M479.717-320Q546-320 593-366.348t47-113.473q0-6.393-.5-12.786T637-505q-8.778 37.426-39.101 61.713T526.879-419Q479-419 446-452q-33-33-33-80 0-38 21.5-67t54.5-41h-9.191q-67.12 0-113.465 46.759Q320-546.482 320-480.141 320-413 366.318-366.5T479.717-320ZM513-496l47-34 46 34-18-55 47-33h-58l-17-56-18 56h-58l47 33-18 55ZM368.525-212H266q-21.5 0-37.75-16.25T212-266v-102.525L137-443q-15-14.912-15-36.956Q122-502 137-518l75-74.055V-694q0-21.5 16.25-37.75T266-748h102.525L443-823q14.934-15 36.967-15T518-823l74.055 75H694q21.5 0 37.75 16.25T748-694v101.945L823-518q15 15.868 15 37.912 0 22.044-15 37.088l-75 74.475V-266q0 21.5-16.25 37.75T694-212H591.847L518-138q-16 15-38 15t-37-15l-74.475-74ZM480-480Zm0 348 102.5-102H726v-142.833L829-480 725.833-583.167V-726H583L480-829 377-726H234.167v142.833L131-480l103 103.167V-234h143l103 102Z"/></svg>