<svg xmlns="http://www.w3.org/2000/svg" width="48" height="48" viewBox="0 96 960 960"><path d="M480.509 698q4.509 0 7.5-3.513Q491 690.975 491 687V495l88 89q2 3 6.5 2.5t8.5-4.5q3-3 3-7t-4-8l-94.273-95.218Q495 468 489.909 466q-5.091-2-10.409-2-5.5 0-10 2t-8.282 5.782L365 568q-3 3.25-3 7.125t4 7.832q4 4.043 8.045 3.543 4.046-.5 7.955-3.5l87-88v192q0 3.975 3.5 7.487Q476 698 480.509 698ZM186 844q-22.775 0-38.387-15.612Q132 812.775 132 790V362q0-22.775 15.613-38.388Q163.225 308 186 308h588q22.75 0 38.375 15.612Q828 339.225 828 362v428q0 22.775-15.625 38.388Q796.75 844 774 844H186Zm0-22q-14 0-23-9t-9-23V362q0-14 9-23t23-9q-14 0-23 9t-9 23v428q0 14 9 23t23 9Zm0 0h588q14 0 23-9t9-23V362q0-14-9-23t-23-9H186q-14 0-23 9t-9 23v428q0 14 9 23t23 9Z"/></svg>