<svg xmlns="http://www.w3.org/2000/svg" width="48" height="48" viewBox="0 -960 960 960"><path d="M357-172q-77.833 0-131.417-53.583Q172-279.167 172-357v-246q0-77.833 53.583-131.417Q279.167-788 357-788h246q77.833 0 131.417 53.583Q788-680.833 788-603v246q0 77.833-53.583 131.417Q680.833-172 603-172H357Zm83-186 204-204-16-16-188 188-91-90-16 16 107 106Zm-82.548 164h245.096Q670-194 718-242t48-115.452v-245.096Q766-670 718-718t-115.452-48H357.452Q290-766 242-718t-48 115.452v245.096Q194-290 242-242t115.452 48ZM480-480Z"/></svg>