<svg xmlns="http://www.w3.org/2000/svg" width="48" height="48" viewBox="0 -960 960 960"><path d="M322-315q-66-63-70-154H111q-4.67 0-7.84-3.23-3.16-3.23-3.16-8t3.16-7.77q3.17-3 7.84-3h141q4-91 70-154t158-63q92 0 158 63t70 154h141q4.67 0 7.84 3.23 3.16 3.23 3.16 8t-3.16 7.77q-3.17 3-7.84 3H708q-4 91-70 154t-158 63q-92 0-158-63Zm158.36 41Q566-274 626-334.36q60-60.36 60-146T626.13-626q-59.86-60-145.5-60t-146.14 59.87Q274-566.27 274-480.63t60.36 146.14q60.36 60.49 146 60.49Zm-79.49-80h158.31q14.27 0 24.04-9.19 9.78-9.19 9.78-23.45v-118.64q0-14.26-9.78-23.99Q573.45-539 559-539h-6v-31q0-31.17-20.8-54.08Q511.41-647 479.74-647 449-647 428-625.26q-21 21.73-21 52.26v34h-6q-14.6 0-23.8 9.65-9.2 9.64-9.2 23.9v118.64q0 14.26 9.3 23.54 9.3 9.27 23.57 9.27ZM480-418q-11 0-19.5-8.5T452-446q0-11 8.5-19.5T480-474q11 0 19.5 8.5T508-446q0 11-8.5 19.5T480-418Zm-48-121v-34q0-20 13.79-34.5t34-14.5Q500-622 514-607.5t14 34.5v34h-96Zm48 93Z"/></svg>