<svg xmlns="http://www.w3.org/2000/svg" width="48" height="48"><path d="M20 15.2q.35-.15.7-.2.35-.05.7-.05 1.2 0 2.05.85.85.85.85 2.05v1.65zm20.3 15.05-5.5-5.5v5.2l-1.1-1.1V13.3q0-.7-.45-1.15-.45-.45-1.15-.45H16.55l-1.1-1.1H32.1q1.15 0 1.925.775.775.775.775 1.925v9.9l5.5-5.5zm-8.2 7.15H10.7q-1.15 0-1.925-.775Q8 35.85 8 34.7V13.3q0-.95.55-1.65T10 10.7h.3l1 1h-.6q-.7 0-1.15.45-.45.45-.45 1.15v21.4q0 .7.45 1.15.45.45 1.15.45h10.1v-4q-3.05-.25-5.2-2.35-2.15-2.1-2.45-5.15h1.45q.2 2.6 2.175 4.325Q18.75 30.85 21.4 30.85q1.65 0 3.1-.7 1.45-.7 2.45-2l.95.95q-1.05 1.4-2.6 2.225-1.55.825-3.3.975v4h10.1q.7 0 1.15-.45.45-.45.45-1.15v-.6l1 1v.3q-.25.85-.95 1.425-.7.575-1.65.575zm7.2 2.3-.8.8-14.65-14.65q-.45.55-1.1.8-.65.25-1.35.25-1.2 0-2.05-.85-.85-.85-.85-2.05v-3.5L6.1 8.1l.8-.8z"/></svg>