<svg xmlns="http://www.w3.org/2000/svg" width="48" height="48" viewBox="0 96 960 960"><path d="M292 780q-57-52-88.5-115.5T172 535.277q0-128.032 89.833-217.655Q351.667 228 480 228q103 0 187.5 63.5T777 455l39.316 155.92Q819 624 811.5 634q-7.5 10-21.5 10h-82v146q0 21.5-16.25 37.75T654 844H548v69q0 4.675-3.228 7.838-3.228 3.162-8 3.162T529 920.838q-3-3.163-3-7.838v-63.505q0-12.22 7.763-19.857Q541.525 822 553 822h101q14 0 23-9t9-23V649q0-11.475 7.763-19.237Q701.525 622 713 622h83l-40-163q-23-94-101-151.5T480 250q-119.2 0-202.6 82.712Q194 415.424 194 534.54q0 62.161 25.324 116.905Q244.649 706.19 290 748.103L314 771v142q0 4.675-3.228 7.838-3.228 3.162-8 3.162T295 920.838q-3-3.163-3-7.838V780Zm203-193Zm-25.035 139Q482 726 489 718.535t7-18.5q0-11.035-7.465-18.535t-18.5-7.5Q459 674 451.5 681.465t-7.5 18.5q0 11.035 6.965 18.535t19 7.5Zm2.938-317Q502 409 521 425.465T540 468q0 15.644-8.5 29.822Q523 512 496 540q-16 17-25.5 34T458 608q-1 5 2.939 9.5t9.963 4.5q5.098 0 9.098-3.5 4-3.5 6-9.5 3-13 11.5-26.5T521 552q27-30 37-47.5t10-36.5q0-37-26.5-61.5T473 382q-26.607 0-50.303 12.5Q399 407 384 428q-3 5-2 11t6.5 8q5.5 2 10.5 1t9-6q12-16 29.194-24.5 17.193-8.5 35.709-8.5Z"/></svg>