<svg xmlns="http://www.w3.org/2000/svg" width="48" height="48" viewBox="0 -960 960 960"><path d="M477-486Zm-331-59q-7-19-10.5-37.48Q132-600.96 132-621q0-70 48-118.5T297-788q54 0 100.9 29.83Q444.79-728.33 480-670q36-58 82.5-88T663-788q68 0 115.5 46.5T828-626v5l-11-5.5q-5-2.5-10-6.5-5-57-45.5-95T663-766q-51 0-92 29.5T495-646h-30q-34-60-76-90t-92-30q-60 0-101.5 41.29Q154-683.41 154-621q0 19.67 4 38.33Q162-564 171-545h-25Zm320 356q-48-44-86-80t-68-66h31q28.42 27.24 61.71 58.62T480-206q26.28-22.95 48.64-44.48Q551-272 571-291q4.98 4.25 8.99 7.62Q584-280 588-276q-21 20-44.5 41.5T495-190l3.36-2.96q-3.33 2.96-8.1 4.96-4.76 2-9.77 2-5.02 0-9.99-2-4.97-2-8.27-5.16L466-189Zm243-243v-128q0-4.67 3.23-7.84 3.23-3.16 8-3.16t7.77 3.16q3 3.17 3 7.84v128q0 4.68-3.23 7.84t-8 3.16q-4.77 0-7.77-3.16t-3-7.84Zm-609 3q-4.67 0-7.84-3.23-3.16-3.23-3.16-8t3.16-7.77q3.17-3 7.84-3h154.02L317-546q3.7-5.88 10.35-8.94Q334-558 340-558t12.5 3q6.5 3 10.5 9l63 95h83q1 2.59.5 5.39-.5 2.81-.5 5.76 0 2.95.5 5.4T509-429h-80q-7 0-12.5-3t-10.5-9l-66-99-66 99q-5 6-10.5 9t-12.5 3H100Zm604 114.86q-7-7.14-7-16t7.14-15.86q7.14-7 16-7t15.86 7.14q7 7.14 7 16T735.86-314q-7.14 7-16 7T704-314.14Z"/></svg>