<svg xmlns="http://www.w3.org/2000/svg" width="48" height="48" viewBox="0 -960 960 960"><path d="M84.063-282.412q-4.157-1.882-5.11-6.735Q78-294 81-297l139-223q7-11 21-12.5t23 8.5l95 112 136-219q8-13 22.5-13t22.5 12l44 65q3 4 2 8t-5 7q-4 2-7.81 1.875-3.809-.125-7.19-4.875l-48-71-134 220q-8 11-22 12.5t-22-8.5l-97-114L99-285q-2 4-6.5 5t-8.438-2.412ZM644-191q-51.833 0-88.417-36.618Q519-264.235 519-316.118 519-368 555.618-404.5q36.617-36.5 88.5-36.5Q696-441 732.5-404.417 769-367.833 769-316q0 23-7.5 43.5T739-235l136 134q4.231 3 4.115 7.5Q879-89 874.947-85q-3.052 3-7.5 3Q863-82 859-85L724-219q-18 14-38 21t-42 7Zm-.141-22Q687-213 717-242.859q30-29.859 30-73T717.141-389q-29.859-30-73-30T571-389.141q-30 29.859-30 73T570.859-243q29.859 30 73 30ZM698-556q-2-2-4-6t1-8l166-263q2-4 6.5-5t8.53 2.412q4.243 2.882 5.106 7.235Q882-824 880-821L713-559q-4 4-7.5 4t-7.5-1Z"/></svg>