<svg xmlns="http://www.w3.org/2000/svg" width="48" height="48" viewBox="0 -960 960 960"><path d="M480.174-132Q408-132 344.442-159.391q-63.559-27.392-110.575-74.348-47.015-46.957-74.441-110.435Q132-407.652 132-479.826q0-72.174 27.391-135.732 27.392-63.559 74.348-110.574 46.957-47.016 110.435-74.442Q407.652-828 479.826-828q72.174 0 135.732 27.391 63.559 27.392 110.574 74.348 47.016 46.957 74.442 110.435Q828-552.348 828-480.174q0 72.174-27.391 135.732-27.392 63.559-74.348 110.575-46.957 47.015-110.435 74.441Q552.348-132 480.174-132ZM480-154q64.503 0 121.752-23.5Q659-201 703-242l-98-97q-25 22-57.127 34.5Q515.745-292 480-292q-78.333 0-133.167-54.765Q292-401.529 292-479.765 292-558 346.765-613q54.764-55 133-55Q558-668 613-613.167 668-558.333 668-480q0 36-12.5 67.866Q643-380.267 622-355l97 97q41-44 64-100.5T806-480q0-136-95-231t-231-95q-136 0-231 95t-95 231q0 136 95 231t231 95Zm0-160q32 0 60-10.5t50-29.5L490-454q-1.698.667-4.896 1.333-3.198.667-4.896.667-11.208 0-19.708-8.5Q452-469 452-480t8.5-19.5Q469-508 480-508t19.5 8.5q8.5 8.5 8.5 19.3 0 1.964-.667 5.264-.666 3.3-1.333 4.936l100 100q19-23 29.5-50.766Q646-448.531 646-480q0-69-48.5-117.5T480-646q-69 0-117.5 48.5T314-480q0 69 48.5 117.5T480-314Z"/></svg>