<svg xmlns="http://www.w3.org/2000/svg" width="48" height="48" viewBox="0 -960 960 960"><path d="M149-693h284-284Zm56 533q-4.945 0-8.316-3.1-3.372-3.1-4.528-6.5Q191-173 192-176.46q1-3.46 5-6.54l43-29q-44.743 0-76.371-31.629Q132-275.257 132-320v-365q0-49 61.5-72T412-786q5.1 0 8.55 2.537 3.45 2.538 3.45 7.586t-3.289 8.462Q417.421-764 412-764q-139 3-198.5 19T149-693h260q3.7 0 7.35 3.228 3.65 3.228 3.65 8T416.35-674q-3.65 3-7.35 3H154v212h453q4.795 0 7.897 3.228 3.103 3.228 3.103 8T614.838-440q-3.163 3-7.838 3H154v117q0 36.667 24.667 61.333Q203.333-234 240-234h320q36.667 0 61.333-24.667Q646-283.333 646-320v-108q0-4.675 3.228-7.838 3.228-3.162 8-3.162t7.772 3.162q3 3.163 3 7.838v110q0 45-31.629 75.5Q604.743-212 560-212l43 29q4 3.08 5 6.54t-.156 6.86q-1.156 3.4-4.239 6.5T596-160H205Zm457.844-377q-60.71 0-103.277-42.558T517-683.865q0-60.595 42.539-102.365Q602.078-828 663.41-828q61.08 0 102.835 41.755Q808-744.49 808-683q0 61-42.223 103.5Q723.555-537 662.844-537Zm.656-129q5.1 0 9.3-3.629 4.2-3.628 4.2-9.8V-756q0-4.6-4.2-8.8-4.2-4.2-9.8-4.2-5.6 0-9.3 4.2-3.7 4.2-3.7 10.271v75.058q0 6.071 4.2 9.771 4.2 3.7 9.3 3.7Zm0 74q7.5 0 12.5-5.5t6-13q0-8.1-5.6-13.3-5.6-5.2-12.4-5.2-9 0-14 5t-5 13q0 8 5.5 13.5t13 5.5ZM400.118-298Q416-298 427.5-309.118q11.5-11.117 11.5-27Q439-352 427.206-363.5 415.412-375 399.529-375q-15.882 0-26.705 11.794Q362-351.412 362-335.529q0 15.882 11.118 26.705 11.117 10.824 27 10.824ZM646-437H154h492Z"/></svg>