<svg xmlns="http://www.w3.org/2000/svg" width="48" height="48" viewBox="0 96 960 960"><path d="m731 669-36-133-30 112q0 1-1 2l-2 2-49-50-31-115q-2-7 1-11t10-4q4 0 7.5 2.5t5.5 6.5l39 145 37-144q1-4 4.5-7t7.5-3q5 0 8 3t5 7l37 144 38-145q2-4 5.5-6.5t7.5-2.5q7 0 10.5 4t1.5 11l-49 182q-1 5-5 8t-9 3q-5 0-8.5-3t-4.5-8Zm-469 2-31-71h-71v68q0 5-3.5 8.5T148 680q-5 0-8.5-3.5T136 668V499q0-12 7.5-19.5T163 472h82q24 0 40.5 16.5T302 528v15q0 17-11.5 33T256 597l30 67q2 7-1 11.5t-10 4.5q-4 0-8-2.5t-5-6.5Zm-102-96h85q12 0 22-10t10-22v-15q0-12-10-22t-22-10h-85v79Zm678 389L135 262l16-16 702 702-15 16ZM360 664l53-145 18 18-18 58h77l22 23H405l-19 52q-2 5-6 7.5t-9 2.5q-6 0-9.5-4.5T360 664Z"/></svg>