<svg xmlns="http://www.w3.org/2000/svg" width="48" height="48" viewBox="0 -960 960 960"><path d="M296-171q-25-1-47.5-13T206-219q-35-39-54.5-97T132-437q0-73 27-137t74.5-111.5q47.5-47.5 111-75T480-788q72 0 135.5 27.5T726-686q47 47 74.5 110.5T828-440q0 60-19.5 118T756-223q-22 26-45 39t-49 13q-13 0-25-3t-24-9l-56-28q-18-9-38-13.5t-40-4.5q-21 0-40 4.5T402-211l-55 28q-13 7-25 10t-26 2Zm1-22q10 0 20-2.5t20-7.5l56-28q20-10 41.5-15t44.5-5q23 0 45 5t42 15l57 28q10 5 19.5 7.5T662-193q20 0 38.5-10t37.5-31q32-38 50-92t18-113q0-137-95-232t-231-95q-136 0-231 96t-95 234q0 59 19 113t52 91q18 20 35.5 29.5T297-193Zm183-287Zm36.5 76.5Q531-418 531-440q0-9-3-17.5t-8-15.5l85-108q17 15 30.5 33t18.5 40q1 4 4.5 6t7.5 2q7 0 9.5-5.5T675-517q-24-60-77-97t-118-37q-65 0-118.5 36.5T284-517q-3 6 0 11.5t9 5.5q4 0 6.5-2t4.5-6q19-55 68-88t108-33q29 0 56.5 9t51.5 25l-85 108q-5-2-11-3t-12-1q-22 0-36.5 14.5T429-440q0 22 14.5 36.5T480-389q22 0 36.5-14.5Z"/></svg>