<svg xmlns="http://www.w3.org/2000/svg" width="48" height="48" viewBox="0 0 48 48"><path d="M32.45 15.15q.45 0 .8-.35.35-.35.35-.8 0-.45-.35-.8-.35-.35-.85-.35-.45 0-.775.35t-.325.8q0 .45.325.8.325.35.825.35Zm-7.9 23.15H38.7q.6 0 1.1-.5.5-.5.5-1.1V11.3q0-.6-.5-1.1-.5-.5-1.1-.5H24.55ZM9.3 39.4q-1.15 0-1.925-.775Q6.6 37.85 6.6 36.7V24.55h9.15l-4.3 4.3q-.15.15-.125.35.025.2.175.35.15.15.375.15t.375-.15l4.6-4.6q.4-.4.4-.95 0-.55-.4-.95L12.2 18.4q-.15-.15-.35-.15-.2 0-.35.15-.15.15-.15.375t.15.375l4.25 4.3H6.6V11.3q0-1.15.775-1.925Q8.15 8.6 9.3 8.6h29.4q1.15 0 1.925.775.775.775.775 1.925v25.4q0 1.15-.775 1.925-.775.775-1.925.775Z"/></svg>