<svg xmlns="http://www.w3.org/2000/svg" width="48" height="48" viewBox="0 96 960 960"><path d="M240.235 884Q212 884 192 864.167 172 844.333 172 816q0-26 16-45t41-23V404q-25-4-41-22.78T172 336q0-28.333 19.833-48.167Q211.667 268 240 268q26.44 0 45.22 16Q304 300 308 325h209l-95-94q-4-2.75-4-7.333t3.391-8.825Q426.4 211 430.3 211q3.9 0 7.7 4l102 102q8 8.182 8 19.091T540 355L438 457q-2.1 1-3.55 2-1.45 1-3.95 1t-4.357-.5q-1.857-.5-4.084-2.833Q418 453 418 449t4-8l95-94H308q-4 21-20 37t-37 20.105V748q25 4 41 22.78T308 816q0 28.333-19.765 48.167-19.764 19.833-48 19.833Zm479.53-616Q748 268 768 287.765q20 19.764 20 48Q788 364 768.235 384q-19.764 20-48 20Q692 404 672 384.235q-20-19.764-20-48Q652 308 671.765 288q19.764-20 48-20Zm-479.8 594q19.535 0 32.785-13.215Q286 835.57 286 816.035t-13.215-32.785Q259.57 770 240.035 770t-32.785 13.215Q194 796.43 194 815.965t13.215 32.785Q220.43 862 239.965 862Zm0-480q19.535 0 32.785-13.215Q286 355.57 286 336.035t-13.215-32.785Q259.57 290 240.035 290t-32.785 13.215Q194 316.43 194 335.965t13.215 32.785Q220.43 382 239.965 382Zm480 0q19.535 0 32.785-13.215Q766 355.57 766 336.035t-13.215-32.785Q739.57 290 720.035 290t-32.785 13.215Q674 316.43 674 335.965t13.215 32.785Q700.43 382 719.965 382ZM240 816Zm0-480Zm480 0Zm-87 269 17 16-176 175v66h65l178-177 14 15-165 168q-8 7-18.056 11.5Q537.889 884 526 884h-47q-11.475 0-19.237-7.763Q452 868.475 452 857v-47q0-11.73 3.935-21.642Q459.87 778.446 468 770l165-165Zm98 95-98-95 43-43q15-15 37.706-15 22.705 0 38.294 16l21 20q15 16 15 37.904 0 21.905-16 38.096l-41 41Z"/></svg>