<svg xmlns="http://www.w3.org/2000/svg" width="48" height="48" viewBox="0 96 960 960"><path d="M722.788 307q-22.124 0-36.956-15.544-14.832-15.545-14.832-37Q671 233 685.876 217.5q14.876-15.5 37-15.5Q745 202 760.5 217.544q15.5 15.545 15.5 37Q776 276 760.456 291.5 744.911 307 722.788 307ZM648 465v3q0-16-4-27t-10-21q19-8 42.203-12.5Q699.407 403 723 403q26.625 0 51.781 5.739T823 424q14.061 6.784 22.531 17.851Q854 452.919 854 468v-3H648ZM236.788 307q-22.124 0-36.956-15.544-14.832-15.545-14.832-37Q185 233 199.876 217.5q14.876-15.5 37-15.5Q259 202 274.5 217.544q15.5 15.545 15.5 37Q290 276 274.456 291.5 258.911 307 236.788 307ZM106 465v3q0-15.081 8.469-26.149Q122.939 430.784 137 424q23.063-9.522 48.219-15.261Q210.375 403 237 403q23.593 0 47.797 4.5Q309 412 327 420q-7 10-11 21t-4 27v-3H106Zm373.788-158q-22.124 0-36.956-15.544-14.832-15.545-14.832-37Q428 233 442.876 217.5q14.876-15.5 37-15.5Q502 202 517.5 217.544q15.5 15.545 15.5 37Q533 276 517.456 291.5 501.911 307 479.788 307ZM349 465v3q0-15.081 8.469-26.149Q365.939 430.784 380 424q23.078-9.522 48.32-15.261Q453.562 403 480.281 403q26.719 0 51.7 5.739Q556.963 414.478 580 424q14.061 6.784 22.531 17.851Q611 452.919 611 468v-3H349Zm330.788 326q-22.124 0-36.956-14.876-14.832-14.876-14.832-37Q628 717 642.876 701.5q14.876-15.5 37-15.5Q702 686 717.5 701.544q15.5 15.545 15.5 37.668 0 22.124-15.544 36.956Q701.911 791 679.788 791ZM549 950v3q0-16.331 8.408-27.274Q565.816 914.784 580 909q23.078-10.522 48.32-15.761Q653.562 888 680.281 888q26.719 0 51.7 5.239Q756.963 898.478 780 909q14.184 5.784 22.592 16.726Q811 936.669 811 953v-3H549ZM279.788 791q-22.124 0-36.956-14.876-14.832-14.876-14.832-37Q228 717 242.876 701.5q14.876-15.5 37-15.5Q302 686 317.5 701.544q15.5 15.545 15.5 37.668 0 22.124-15.544 36.956Q301.911 791 279.788 791ZM149 950v3q0-16.331 8.408-27.274Q165.816 914.784 180 909q23.078-10.522 48.32-15.761Q253.562 888 280.281 888q26.719 0 51.7 5.239Q356.963 898.478 380 909q14.184 5.784 22.592 16.726Q411 936.669 411 953v-3H149Zm330.733-250q-5.733 0-10.233-2-4.5-2-8.266-5.766L393 625q-3-4-3-9.5t3.5-8.5q3.5-3 9-3.5t8.5 3.5l57 58v-99q0-4.833 3.407-8.917 3.407-4.083 8.5-4.083t9.093 4.083q4 4.084 4 8.917v99l56-58q4-3 9-3t9 3q3 4.286 3 9t-3 9l-68.156 67.234Q495 696 490.233 698q-4.766 2-10.5 2Z"/></svg>