<svg xmlns="http://www.w3.org/2000/svg" width="48" height="48" viewBox="0 96 960 960"><path d="M854 920 593 658l-91 91q-5 5-9.5 7t-9.5 2q-6 0-10.5-2t-8.5-7L301 587q-3-4-3-8t3-8q4-4 8-4t8 4l166 166 92-95-402-402q-4-4-4-8t4-8q4-4 7.5-4t7.5 4l682 682q4 4 3.5 8t-3.5 7q-4 3-8 2.5t-8-3.5ZM661 590l-17-16 204-203q4-4 8-4t8 4q4 4 4 8t-4 8L661 590ZM555 487l-16-16 99-99q4-4 8.5-4t7.5 4q4 4 4 8t-4 8l-99 99ZM273 758q-5 0-9.5-2t-8.5-7L92 587q-4-4-3.5-8.5T92 571q4-4 8-4t8 4l165 165 36-36 17 16-34 33q-4 5-8.5 7t-10.5 2Z"/></svg>