<svg xmlns="http://www.w3.org/2000/svg" width="48" height="48" viewBox="0 -960 960 960"><path d="M521-333H409q-6.067 0-9.533-3.453-3.467-3.454-3.467-9.5 0-5.047 3.467-8.547 3.466-3.5 9.533-3.5h109v-67H409q-6.067 0-9.533-3.467Q396-431.933 396-437v-98q0-5.067 3.467-8.533Q402.933-547 409-547h122q5.067 0 8.533 3.453 3.467 3.454 3.467 8.5 0 5.047-3.467 8.547-3.466 3.5-8.533 3.5H421v67h110q5.067 0 8.533 3.467Q543-449.067 543-443v88q0 9.2-6.4 15.6T521-333Zm-40.943 201Q416-132 360-156t-98-66q-42-42-66-97.961T172-440q0-4.95 3.035-7.975 3.035-3.025 8-3.025t7.965 3.025q3 3.025 3 7.975 0 119 83.5 202.5T480-154q119 0 202.5-83.5T766-440q0-119-82.5-202.5T482-726h-23l61 61q3 3 3.5 8t-3.283 8Q516-645 512-645q-4 0-7-4l-70-71q-8-8-8-18.5t8-19.5l72-70q3-3 7.5-3.5t7.717 2.5q3.783 4 3.283 8t-3.5 8l-65 65h23q64.078 0 120.039 24T698-658q42 42 66 97.943t24 120Q788-376 764-320t-66 98q-42 42-97.943 66t-120 24Z"/></svg>