<svg xmlns="http://www.w3.org/2000/svg" width="48" height="48" viewBox="0 -960 960 960"><path d="M469-306v28q0 4.6 3.559 8.3 3.559 3.7 7.97 3.7h-2.941q5.412 0 9.412-4.2 4-4.2 4-9.8v-26h72q4.725 0 7.862-3.138Q574-312.275 574-317v-123q0-4.725-3.138-7.862Q567.725-451 563-451H408v-101h155q4.725 0 7.862-3.193 3.138-3.193 3.138-8T570.862-571q-3.137-3-7.862-3h-72v-29q0-4.2-3.5-7.6-3.5-3.4-7.833-3.4H483q-5.6 0-9.8 3.9-4.2 3.9-4.2 9.1v27h-72q-4.725 0-7.862 3.138Q386-567.725 386-563v123q0 4.725 3.138 7.862Q392.275-429 397-429h155v101H397q-4.725 0-7.862 3.193-3.138 3.193-3.138 8t3.138 7.807q3.137 3 7.862 3h72ZM266-132q-22.775 0-38.387-15.613Q212-163.225 212-186v-588q0-22.775 15.613-38.388Q243.225-828 266-828h250q11.444 0 21.222 4.5T555-812l177 177q7 8 11.5 17.778Q748-607.444 748-596v410q0 22.775-15.612 38.387Q716.775-132 694-132H266Zm0-22h428q12 0 22-10t10-22v-422L528-806H266q-12 0-22 10t-10 22v588q0 12 10 22t22 10Zm-32 0v-652 652Z"/></svg>