<svg xmlns="http://www.w3.org/2000/svg" width="48" height="48" viewBox="0 -960 960 960"><path d="M480-480ZM132-596v-98q0-22.775 15.613-38.388Q163.225-748 186-748h588q22.775 0 38.388 15.612Q828-716.775 828-694v221q0 4.675-3.228 7.838-3.228 3.162-8 3.162T809-465.162q-3-3.163-3-7.838v-221q0-12-10-22t-22-10H186q-12 0-22 10t-10 22v98q0 4.675-3.228 7.838-3.228 3.162-8 3.162T135-588.162q-3-3.163-3-7.838Zm54 384q-22.775 0-38.387-15.613Q132-243.225 132-266v-98q0-4.675 3.228-7.838 3.228-3.162 8-3.162t7.772 3.162q3 3.163 3 7.838v98q0 14 9 23t23 9h221q4.675 0 7.838 3.228 3.162 3.228 3.162 8T414.838-215q-3.163 3-7.838 3H186Zm94-97q-4 0-6.5-1t-4.5-4l-76-155h-50q-4.675 0-7.837-3.228-3.163-3.228-3.163-8t3.163-7.772q3.162-3 7.837-3h57q3.143 0 5.857 1.818 2.714 1.818 3.143 4.182l71 141 150-301q.809-2 3.711-3 2.903-1 6.096-1t5.893 1q2.7 1 3.3 3l94 188q-5.931.875-11.098 3.512-5.166 2.636-9.902 4.488l-83-166-150 301q-1.583 3-3.976 4-2.392 1-5.024 1ZM525-92q-11.25 0-19.125-7.875T498-119v-110q0-4 .5-8.5t3.5-9.5l45-117q2.16-8.192 9.58-13.096T572-382h100v-95q0-4.675 3.228-7.838 3.228-3.162 8-3.162t7.772 3.162q3 3.163 3 7.838v95h98q7.758 0 14.979 4.827Q814.2-372.346 817-365l47 117q3 5 3.5 10t.5 10v109q0 11.25-7.75 19.125T841-92h-92q-11.25 0-19.125-7.875T722-119v-44q0-4.675 3.228-7.837 3.228-3.163 8-3.163t7.772 3.163q3 3.162 3 7.837v49h102v-120l-50-126H694v52l46 47q2 4.4 2.5 8.825.5 4.425-2.5 7.175-4 4-8 4t-8-4l-41-42-42 42q-3 2.667-8 2.833-5 .167-8-2.833-4-4-4-8t4-8l47-46v-53H568l-48 126v120h102v-49q0-4.675 3.228-7.837 3.228-3.163 8-3.163t7.772 3.163q3 3.162 3 7.837v40q0 12.917-9.458 21.958Q625.083-92 613-92h-88Zm158-145Zm-58-24 47-46v-53 53l-47 46Zm115 0-46-47v-52 52l46 47Z"/></svg>