<svg xmlns="http://www.w3.org/2000/svg" width="48" height="48" viewBox="0 96 960 960"><path d="M694 924H266q-23 0-38.5-15.5T212 870V282q0-23 15.5-38.5T266 228h250q11 0 20.5 4t18.5 12l177 177q8 9 12 18.5t4 20.5v410q0 23-15.5 38.5T694 924ZM481 774q66 0 111-45.5T637 617q0-67-45-112t-111-45q-46 0-78.5 21.5T351 528v-61q0-5-3.5-8t-8.5-3q-5 0-8.5 3t-3.5 8v74q0 12 8 19.5t19 7.5h75q5 0 8-3.5t3-8.5q0-5-3-8t-8-3h-59q14-24 44.5-42t66.5-18q56 0 93.5 38t37.5 94q0 56-37.5 94T481 749q-43 0-76.5-23T356 667q-2-4-5.5-6.5T344 658q-7 0-10.5 4.5T333 674q20 48 59.5 74t88.5 26Z"/></svg>