<svg xmlns="http://www.w3.org/2000/svg" width="48" height="48" viewBox="0 -960 960 960"><path d="M239-172q-11.48 0-19.24-7.77-7.76-7.78-7.76-19.27v-129.17q0-21.54 16.25-37.67Q244.5-382 266-382h428q21.5 0 37.75 16.27Q748-349.45 748-327.92v129.15q0 11.5-7.76 19.13Q732.47-172 721-172H239Zm136-290q-67.64 0-115.32-47.68Q212-557.35 212-625q0-67.65 47.68-115.32Q307.36-788 375-788h210q67.65 0 115.32 47.68Q748-692.65 748-625q0 67.65-47.68 115.32Q652.65-462 585-462H375ZM234-194h492v-134q0-14-9-23t-23-9H266q-14 0-23 9t-9 23v134Zm141-290h210q59.5 0 100.25-40.65 40.75-40.64 40.75-100Q726-684 685.25-725 644.5-766 585-766H375q-59.5 0-100.25 40.65-40.75 40.64-40.75 100Q234-566 274.75-525 315.5-484 375-484Zm16-125.14q7-7.14 7-16T390.86-641q-7.14-7-16-7T359-640.86q-7 7.14-7 16t7.14 15.86q7.14 7 16 7t15.86-7.14Zm210 0q7-7.14 7-16T600.86-641q-7.14-7-16-7T569-640.86q-7 7.14-7 16t7.14 15.86q7.14 7 16 7t15.86-7.14ZM480-194Zm0-431Z"/></svg>