<svg xmlns="http://www.w3.org/2000/svg" width="48" height="48" viewBox="0 -960 960 960"><path d="M240-349q-21.5 0-37.75-16.25T186-403v-437q0-21.5 16.25-37.75T240-894h176q21.5 0 37.75 16.25T470-840v47h-91q-5.2 0-9.1 4.2-3.9 4.2-3.9 8.943 0 4.743 3.9 8.3Q373.8-768 379-768h91.099v29.286q0 6.321.45 12.976Q471-719.083 473-713h-94q-5.2 0-9.1 4.2-3.9 4.2-3.9 8.943 0 4.743 3.9 8.3Q373.8-688 379-688h102.615Q494-664 514.5-647.6T561-623l108 30q43.241 11.424 69.121 46.039Q764-512.345 764-468v65q0 21.5-16.25 37.75T710-349H240ZM196.941-66Q159-66 132.5-92.559t-26.5-64.5Q106-195 132.559-221.5t64.5-26.5Q235-248 261.5-221.441t26.5 64.5Q288-119 261.441-92.5t-64.5 26.5Zm566 0Q725-66 698.5-92.559t-26.5-64.5Q672-195 698.559-221.5t64.5-26.5Q801-248 827.5-221.441t26.5 64.5Q854-119 827.441-92.5t-64.5 26.5Zm-283 0Q442-66 415.5-92.559t-26.5-64.5Q389-195 415.559-221.5t64.5-26.5Q518-248 544.5-221.441t26.5 64.5Q571-119 544.441-92.5t-64.5 26.5Z"/></svg>