<svg xmlns="http://www.w3.org/2000/svg" width="48" height="48" viewBox="0 -960 960 960"><path d="M207-172q-22.775 0-38.387-15.613Q153-203.225 153-226v-110q0-22.775 15.613-38.388Q184.225-390 207-390h413v-154q0-4.725 3.188-7.862 3.188-3.138 7.987-3.138 3.825 0 7.325 3.138 3.5 3.137 3.5 7.862v154h81q22.775 0 38.388 15.612Q777-358.775 777-336v110q0 22.775-15.612 38.387Q745.775-172 723-172H207Zm516-22q13 0 22.5-9t9.5-23v-110q0-14-9.5-23t-22.5-9H207q-14 0-23 9t-9 23v110q0 14 9 23t23 9h516Zm-435-86.702q0-12.298-8.174-20.798-8.174-8.5-20.431-8.5-12.258 0-20.326 8.605-8.069 8.606-8.069 21Q231-268 239.202-260t20.5 8Q272-252 280-260.202q8-8.202 8-20.5Zm143 0q0-12.298-8.174-20.798-8.174-8.5-20.431-8.5-12.257 0-20.326 8.605-8.069 8.606-8.069 21Q374-268 382.03-260q8.031 8 20.075 8 12.47 0 20.683-8.202 8.212-8.202 8.212-20.5ZM544.702-252Q557-252 565-260.202q8-8.202 8-20.5t-8.174-20.798q-8.174-8.5-20.431-8.5-12.257 0-20.326 8.605-8.069 8.606-8.069 21Q516-268 524.202-260t20.5 8Zm-12.845-388.033q-2.857-3.6-3.357-7.784Q528-652 532-655q23-19.963 47-29.482Q603-694 630.5-694t51.5 9.518q24 9.519 47 29.482 4 3 3.5 7.087t-3.69 8.061q-2.776 1.741-7.293 2.296Q717-637 715-640q-18-15-38.464-23.5-20.465-8.5-45.852-8.5-24.316 0-45.5 8.5T546-640q-2 3-6.643 2.425-4.643-.575-7.5-2.458ZM435.87-737.13Q432-740 432-745.071q0-5.072 4-7.929 38-35 86.962-55Q571.923-828 631-828q58 0 107 20t87 55q4 3 4 7.5t-4 8.5q-3 3-7.5 3t-8.091-2.968Q778-767 733-786.5 688-806 630.5-806T528-786.5Q483-767 452-737q-4 3-8.5 3t-7.63-3.13ZM175-194v-174 174Z"/></svg>