<svg xmlns="http://www.w3.org/2000/svg" width="48" height="48" viewBox="0 -960 960 960"><path d="M764-272 651-386v-157q0-4.97 3.02-7.99 3.02-3.01 8-3.01t7.98 3.01q3 3.02 3 7.99v154h61q22.78 0 38.39 15.61Q788-357.77 788-335v54q0 8.92-9 11.96-9 3.04-15-2.96Zm-538 78h481L534-367H226q-14 0-23 9t-9 23v109q0 14 9 23t23 9Zm0 22q-22.77 0-38.39-15.61Q172-203.23 172-226v-109q0-22.77 15.61-38.39Q203.23-389 226-389h286L109-793q-3-3.13-3.5-7.57Q105-805 109-809q3-3 7.3-3t8.7 3l657 657q2 3.45 2.5 8.23.5 4.77-3 8.27t-8 3.5q-4.5 0-7.5-4l-37-36H226Zm34-88.1q-8-8.09-8-20.5 0-12.4 8.1-20.4 8.09-8 20.5-8 12.4 0 20.4 8.1 8 8.09 8 20.5 0 12.4-8.1 20.4-8.09 8-20.5 8-12.4 0-20.4-8.1Zm142 0q-8-8.09-8-20.5 0-12.4 8-20.4 8-8 21-8t21 8.1q8 8.09 8 20.5 0 12.4-8 20.4-8 8-21 8t-21-8.1Zm143 0q-8-8.09-8-20.5 0-12.4 8.1-20.4 8.09-8 20.5-8 12.4 0 20.4 8.1 8 8.09 8 20.5 0 12.4-8.1 20.4-8.09 8-20.5 8-12.4 0-20.4-8.1ZM194-194v-173 173Zm467-478q-25 0-45.5 8T578-642q-3.27 4-7.63 4.5-4.37.5-7.37-3.5-4-3-3.5-7.5t3.5-7.5q22.56-20.07 46.05-29.04Q632.54-694 661-694q27 0 51 9t47 29q3 3 3.5 7.5T759-641q-3 4-7.4 3.5T744-642q-17-14-37.4-22-20.39-8-45.6-8ZM559-786.5q-45 19.5-76.41 49.56Q480-734 475-733.5t-9.43-3.46Q462-740 463.5-745.5q1.5-5.5 4.94-9.69Q506-788 554.28-808T661-828q57 0 105.5 20t86.81 52.81Q857-751 858-745.5q1 5.5-2.04 8.54Q852-733 847-733.5q-5-.5-9-4.5-31-29-75.5-48.5T661-806q-57 0-102 19.5Z"/></svg>