<svg xmlns="http://www.w3.org/2000/svg" width="48" height="48" viewBox="0 -960 960 960"><path d="M56-388v-176q0-8 6.5-14t14.5-6h103q18.167 0 30.083 12.417Q222-559.167 222-542v44q0 20-14 30t-29 11l26 62q3 7-1.188 13-4.187 6-10.812 6-4 0-7-2.5t-5-5.5l-30-74H80v70q0 5.467-3.254 8.733-3.253 3.267-8.7 3.267-5.446 0-8.746-3.267Q56-382.533 56-388Zm362-12v-68h-93q-11.5 0-19.25-7.75T298-495v-62q0-11.5 7.75-19.25T325-584h105q5.467 0 8.733 3.253 3.267 3.254 3.267 8.7 0 5.447-3.267 8.747-3.266 3.3-8.733 3.3H322v68h93q11.5 0 19.25 7.75T442-465v62q0 11.5-7.75 19.25T415-376H310q-5.467 0-8.733-3.253-3.267-3.254-3.267-8.7 0-5.447 3.267-8.747 3.266-3.3 8.733-3.3h108Zm180 2 50-177q1-4 4.5-6.5t7.915-2.5q5.78 0 10.183 5Q675-574 673-568l-52 178q-.929 6-6.25 10t-10.917 4h-11.359q-7.474 0-12.557-4-5.084-4-5.917-10l-51-178q-3-6 1.402-11 4.403-5 10.183-5 4.415 0 7.915 2.5t4.5 6.5l51 177Zm140 10v-176q0-8 6.5-14t14.5-6h103q17.167 0 29.583 12.417Q904-559.167 904-542v42q0 18.167-12.417 30.083Q879.167-458 862-458H762v70q0 5.467-3.253 8.733-3.254 3.267-8.7 3.267-5.447 0-8.747-3.267-3.3-3.266-3.3-8.733ZM80-482h100q7 0 12.5-4.5T198-498v-44q0-7-5.5-12.5T180-560H80v78Zm682 0h100q7 0 12.5-5.5T880-500v-42q0-7-5.5-12.5T862-560H762v78Z"/></svg>