<svg xmlns="http://www.w3.org/2000/svg" width="48" height="48" viewBox="0 -960 960 960"><path d="M444-158q-4.273 0-7.636-4-3.364-4-2.273-8.273-.182-5.182 2.773-7.454Q439.818-180 444-180h85l94-602H436l-28 177q.192 4.182-2.712 6.591Q402.385-596 397-596q-4 0-7.5-4t-3.5-8l30-185q.085-5.16 3.559-8.08Q423.034-804 428-804h414q5.875 0 9.938 4.5Q856-795 855-789l-29 184q.192 4.182-2.712 6.591Q820.385-596 815-596q-4.429 0-7.714-4-3.286-4-2.286-9l27-173H645l-94 602h81q5.273 0 8.636 4 3.364 4 2.273 8.273.182 5.182-2.773 7.454Q637.182-158 632-158H444ZM185-712q-5 0-8.5-4t-2.429-9.231q-.285-3.846 2.643-6.307Q179.643-734 185-734h155l-3 22H185Zm-25 161q-4 0-7.5-4t-3.429-8.231q.715-3.846 3.643-6.807Q155.643-573 160-573h156l-3 22H160Zm-44 323q-5.429 0-8.714-4-3.286-4-2.215-8.231-.285-4.192 3.143-6.981Q111.643-250 116-250h244l-3 22H116Zm26-161q-4 0-8-4t-2.929-9.231q.715-3.846 3.643-6.307Q137.643-411 142-411h244l-3 22H142Z"/></svg>