<svg xmlns="http://www.w3.org/2000/svg" width="48" height="48" viewBox="0 -960 960 960"><path d="M313.267-372q5.733 0 10.233-2 4.5-2 8.5-6l130-130q4-4.182 3.5-8.091Q465-522 461.658-526t-7.3-4q-3.958 0-8.358 4L313-393l-48-48q-4-3-8.5-3.5t-7.891 3.5Q245-438 245-433.5t4 8.5l45.095 45.095Q298-376 302.767-374q4.766 2 10.5 2ZM568-368q3 3 8 3t8-3l56-57 56 57q3 3 8 3t8-3q3-3 3-8t-3-8l-57-56 57-56q3-3 3-8t-3-8q-3-3-8-3t-8 3l-56 57-56-57q-3-3-8-3t-8 3q-3 3-3 8t3 8l57 56-57 56q-3 3-3 8t3 8ZM186-212q-22.775 0-38.387-15.5Q132-243 132-266v-388q0-23 15.613-38.5Q163.225-708 186-708h251q4.016 0 8.624 1.783 4.608 1.782 7.464 4.305L480-674h294q23 0 38.5 15.5T828-620v354q0 23-15.5 38.5T774-212H186Zm-32-442v388q0 14 9.5 23t22.5 9h588q14 0 23-9t9-23v-354q0-14-9-23t-23-9H472l-34-34H186q-13 0-22.5 9t-9.5 23Zm0 0v-32 452-420Z"/></svg>