<svg xmlns="http://www.w3.org/2000/svg" width="48" height="48" viewBox="0 -960 960 960"><path d="M292-207q-76-75-80-189 0-5 2.65-8.5 2.66-3.5 8.13-3.5 5.22 0 8.22 3.5 3 3.5 3 8.5 4 105 73.25 173.5 69.24 68.5 173 68.5Q584-154 653-222.5T726-396q0-5 3-8.5t7.72-3.5q5.72 0 8.5 3.5Q748-401 748-396q-4 114-80.41 189-76.4 75-188 75Q368-132 292-207Zm-69.5-265.69q-7.5-7.7-7.5-17.5 0-9.81 7.69-17.31 7.7-7.5 17.5-7.5 9.81 0 17.31 7.69 7.5 7.7 7.5 17.5 0 9.81-7.69 17.31-7.7 7.5-17.5 7.5-9.81 0-17.31-7.69Zm160 0q-7.5-7.7-7.5-17.5 0-9.81 7.69-17.31 7.7-7.5 17.5-7.5 9.81 0 17.31 7.69 7.5 7.7 7.5 17.5 0 9.81-7.69 17.31-7.7 7.5-17.5 7.5-9.81 0-17.31-7.69Zm160 0q-7.5-7.7-7.5-17.5 0-9.81 7.69-17.31 7.7-7.5 17.5-7.5 9.81 0 17.31 7.69 7.5 7.7 7.5 17.5 0 9.81-7.69 17.31-7.7 7.5-17.5 7.5-9.81 0-17.31-7.69Zm160 0q-7.5-7.7-7.5-17.5 0-9.81 7.69-17.31 7.7-7.5 17.5-7.5 9.81 0 17.31 7.69 7.5 7.7 7.5 17.5 0 9.81-7.69 17.31-7.7 7.5-17.5 7.5-9.81 0-17.31-7.69Zm-400-100q-7.5-7.7-7.5-17.5 0-9.81 7.69-17.31 7.7-7.5 17.5-7.5 9.81 0 17.31 7.69 7.5 7.7 7.5 17.5 0 9.81-7.69 17.31-7.7 7.5-17.5 7.5-9.81 0-17.31-7.69Zm320 0q-7.5-7.7-7.5-17.5 0-9.81 7.69-17.31 7.7-7.5 17.5-7.5 9.81 0 17.31 7.69 7.5 7.7 7.5 17.5 0 9.81-7.69 17.31-7.7 7.5-17.5 7.5-9.81 0-17.31-7.69Zm-160 0q-7.5-7.7-7.5-17.5 0-9.81 7.69-17.31 7.7-7.5 17.5-7.5 9.81 0 17.31 7.69 7.5 7.7 7.5 17.5 0 9.81-7.69 17.31-7.7 7.5-17.5 7.5-9.81 0-17.31-7.69Zm-80-100q-7.5-7.7-7.5-17.5 0-9.81 7.69-17.31 7.7-7.5 17.5-7.5 9.81 0 17.31 7.69 7.5 7.7 7.5 17.5 0 9.81-7.69 17.31-7.7 7.5-17.5 7.5-9.81 0-17.31-7.69Zm160 0q-7.5-7.7-7.5-17.5 0-9.81 7.69-17.31 7.7-7.5 17.5-7.5 9.81 0 17.31 7.69 7.5 7.7 7.5 17.5 0 9.81-7.69 17.31-7.7 7.5-17.5 7.5-9.81 0-17.31-7.69Zm-80-90q-7.5-7.7-7.5-17.5 0-9.81 7.69-17.31 7.7-7.5 17.5-7.5 9.81 0 17.31 7.69 7.5 7.7 7.5 17.5 0 9.81-7.69 17.31-7.7 7.5-17.5 7.5-9.81 0-17.31-7.69ZM480-408Z"/></svg>