<svg xmlns="http://www.w3.org/2000/svg" width="48" height="48" viewBox="0 -960 960 960"><path d="M479.816-132Q365-132 288.5-211.098 212-290.195 212-408h22q0 109 70.047 181.5 70.046 72.5 176 72.5Q586-154 656-226.52T726-408h22q0 118-76.684 197t-191.5 79ZM239.807-465q-9.807 0-17.307-7.693-7.5-7.693-7.5-17.5t7.693-17.307q7.693-7.5 17.5-7.5t17.307 7.693q7.5 7.693 7.5 17.5t-7.693 17.307q-7.693 7.5-17.5 7.5Zm160 0q-9.807 0-17.307-7.693-7.5-7.693-7.5-17.5t7.693-17.307q7.693-7.5 17.5-7.5t17.307 7.693q7.5 7.693 7.5 17.5t-7.693 17.307q-7.693 7.5-17.5 7.5Zm160 0q-9.807 0-17.307-7.693-7.5-7.693-7.5-17.5t7.693-17.307q7.693-7.5 17.5-7.5t17.307 7.693q7.5 7.693 7.5 17.5t-7.693 17.307q-7.693 7.5-17.5 7.5Zm160 0q-9.807 0-17.307-7.693-7.5-7.693-7.5-17.5t7.693-17.307q7.693-7.5 17.5-7.5t17.307 7.693q7.5 7.693 7.5 17.5t-7.693 17.307q-7.693 7.5-17.5 7.5Zm-400-100q-9.807 0-17.307-7.693-7.5-7.693-7.5-17.5t7.693-17.307q7.693-7.5 17.5-7.5t17.307 7.693q7.5 7.693 7.5 17.5t-7.693 17.307q-7.693 7.5-17.5 7.5Zm320 0q-9.807 0-17.307-7.693-7.5-7.693-7.5-17.5t7.693-17.307q7.693-7.5 17.5-7.5t17.307 7.693q7.5 7.693 7.5 17.5t-7.693 17.307q-7.693 7.5-17.5 7.5Zm-160 0q-9.807 0-17.307-7.693-7.5-7.693-7.5-17.5t7.693-17.307q7.693-7.5 17.5-7.5t17.307 7.693q7.5 7.693 7.5 17.5t-7.693 17.307q-7.693 7.5-17.5 7.5Zm-80-100q-9.807 0-17.307-7.693-7.5-7.693-7.5-17.5t7.693-17.307q7.693-7.5 17.5-7.5t17.307 7.693q7.5 7.693 7.5 17.5t-7.693 17.307q-7.693 7.5-17.5 7.5Zm160 0q-9.807 0-17.307-7.693-7.5-7.693-7.5-17.5t7.693-17.307q7.693-7.5 17.5-7.5t17.307 7.693q7.5 7.693 7.5 17.5t-7.693 17.307q-7.693 7.5-17.5 7.5Zm-80-90q-9.807 0-17.307-7.693-7.5-7.693-7.5-17.5t7.693-17.307q7.693-7.5 17.5-7.5t17.307 7.693q7.5 7.693 7.5 17.5t-7.693 17.307q-7.693 7.5-17.5 7.5ZM480-408Z"/></svg>