<svg xmlns="http://www.w3.org/2000/svg" width="48" height="48" viewBox="0 -960 960 960"><path d="M239.807-465q-9.807 0-17.307-7.693-7.5-7.693-7.5-17.5t7.693-17.307q7.693-7.5 17.5-7.5t17.307 7.693q7.5 7.693 7.5 17.5t-7.693 17.307q-7.693 7.5-17.5 7.5Zm160 0q-9.807 0-17.307-7.693-7.5-7.693-7.5-17.5t7.693-17.307q7.693-7.5 17.5-7.5t17.307 7.693q7.5 7.693 7.5 17.5t-7.693 17.307q-7.693 7.5-17.5 7.5Zm160 0q-9.807 0-17.307-7.693-7.5-7.693-7.5-17.5t7.693-17.307q7.693-7.5 17.5-7.5t17.307 7.693q7.5 7.693 7.5 17.5t-7.693 17.307q-7.693 7.5-17.5 7.5Zm160 0q-9.807 0-17.307-7.693-7.5-7.693-7.5-17.5t7.693-17.307q7.693-7.5 17.5-7.5t17.307 7.693q7.5 7.693 7.5 17.5t-7.693 17.307q-7.693 7.5-17.5 7.5Zm-400-100q-9.807 0-17.307-7.693-7.5-7.693-7.5-17.5t7.693-17.307q7.693-7.5 17.5-7.5t17.307 7.693q7.5 7.693 7.5 17.5t-7.693 17.307q-7.693 7.5-17.5 7.5Zm320 0q-9.807 0-17.307-7.693-7.5-7.693-7.5-17.5t7.693-17.307q7.693-7.5 17.5-7.5t17.307 7.693q7.5 7.693 7.5 17.5t-7.693 17.307q-7.693 7.5-17.5 7.5Zm-160 0q-9.807 0-17.307-7.693-7.5-7.693-7.5-17.5t7.693-17.307q7.693-7.5 17.5-7.5t17.307 7.693q7.5 7.693 7.5 17.5t-7.693 17.307q-7.693 7.5-17.5 7.5Zm-80-100q-9.807 0-17.307-7.693-7.5-7.693-7.5-17.5t7.693-17.307q7.693-7.5 17.5-7.5t17.307 7.693q7.5 7.693 7.5 17.5t-7.693 17.307q-7.693 7.5-17.5 7.5Zm160 0q-9.807 0-17.307-7.693-7.5-7.693-7.5-17.5t7.693-17.307q7.693-7.5 17.5-7.5t17.307 7.693q7.5 7.693 7.5 17.5t-7.693 17.307q-7.693 7.5-17.5 7.5Zm-80-90q-9.807 0-17.307-7.693-7.5-7.693-7.5-17.5t7.693-17.307q7.693-7.5 17.5-7.5t17.307 7.693q7.5 7.693 7.5 17.5t-7.693 17.307q-7.693 7.5-17.5 7.5Zm.459 623Q373-132 298.5-202 224-272 213-378q-1-12 7.991-21 8.992-9 21.009-9h476q12.17 0 21.085 9Q748-390 747-378q-11 106-85.234 176-74.235 70-181.5 70Z"/></svg>