<svg xmlns="http://www.w3.org/2000/svg" width="48" height="48" viewBox="0 -960 960 960"><path d="M260-533q64.417-11 110.208-57.042Q416-636.083 427-700h-24q-11 55-49.337 93.5T260-557v24Zm0-109q22-6 38-21.688 16-15.687 22-36.312h-60v58Zm-34 470q-22.775 0-38.387-15.613Q172-203.225 172-226v-508q0-22.775 15.613-38.388Q203.225-788 226-788h508q22.775 0 38.388 15.612Q788-756.775 788-734v508q0 22.775-15.612 38.387Q756.775-172 734-172H226Zm0-22h508q12 0 22-10t10-22v-508q0-12-10-22t-22-10H226q-12 0-22 10t-10 22v508q0 12 10 22t22 10Zm-32 0v-572 572Zm150-111h281q8 0 11.5-7.5T635-327l-74-99q-4-6-10.5-6t-10.5 6l-93 113-54-63q-4-5-10.5-5t-10.5 6l-38 48q-5 7-1.5 14.5T344-305Z"/></svg>