<svg xmlns="http://www.w3.org/2000/svg" width="48" height="48" viewBox="0 -960 960 960"><path d="M202-172q-13 0-21.5-9t-6.5-21q7-58 28.5-104t54.5-80.5q33-34.5 76.5-56.5t95.5-32v-125q-118-13-177-58t-75-107q-1-10 3-16.5t14-6.5h572q10 0 14 6.5t3 16.5q-16 61-75 106.5T531-600v125q51 10 94.5 32t76.5 56.5q33 34.5 54.5 80.5T786-202q2 12-6.5 21t-21.5 9H625q-5 0-8-3t-3-8q0-5 3-8t8-3h142q-22-136-100.5-199.5T480-457q-108 0-186.5 63.5T193-194h142q5 0 8 3t3 8q0 5-3 8t-8 3H202Zm278 0q-23 0-38.5-15.5T426-226q0-11 4-20.5t12-16.5q11-11 45-28t70-32q15-6 21-1t-1 20q-15 34-32 69.5T517-188q-7 8-16.5 12t-20.5 4Z"/></svg>