<svg xmlns="http://www.w3.org/2000/svg" width="48" height="48" viewBox="0 -960 960 960"><path d="M738-422 221-616q-4.267-.667-5.633-4.442Q214-624.217 215-628.5q1-3.5 5-6.5t9-1l498 187q35 13 48 37.5t13 53.5v92q0 22.775-15.612 38.387Q756.775-212 734-212H226q-22.775 0-38.387-15.613Q172-243.225 172-266v-102q0-22.775 15.613-38.388Q203.225-422 226-422h512Zm-4 188q12 0 22-10t10-22v-102q0-12-10-22t-22-10H226q-12 0-22 10t-10 22v102q0 12 10 22t22 10h508Zm-321-72h270q4.725 0 7.862-3.193 3.138-3.193 3.138-8T690.862-325q-3.137-3-7.862-3H413q-4.725 0-7.862 3.193-3.138 3.193-3.138 8t3.138 7.807q3.137 3 7.862 3Zm-135.807 14Q288-292 295-299.193q7-7.193 7-18T294.807-335q-7.193-7-18-7T259-334.807q-7 7.193-7 18T259.193-299q7.193 7 18 7ZM194-234v-166 166Z"/></svg>