<svg xmlns="http://www.w3.org/2000/svg" width="48" height="48" viewBox="0 96 960 960"><path d="M738 634 221 441q-4-2-5-6t-1-8q1-5 4.968-7t9.032 0l498 187q35 13 48 37.5t13 53.5v92q0 22.775-15.612 38.388Q756.775 844 734 844H226q-22.775 0-38.387-15.612Q172 812.775 172 790V688q0-22.775 15.613-38.388Q203.225 634 226 634h512ZM413 750h270q4.975 0 7.987-3.018 3.013-3.017 3.013-8 0-4.982-3.013-7.982-3.012-3-7.987-3H413q-4.975 0-7.987 3.018-3.013 3.017-3.013 8 0 4.982 3.013 7.982 3.012 3 7.987 3Zm-135.982 14Q288 764 295 756.982q7-7.017 7-18Q302 728 294.982 721q-7.017-7-18-7Q266 714 259 721.018q-7 7.017-7 18Q252 750 259.018 757q7.017 7 18 7Z"/></svg>