<svg xmlns="http://www.w3.org/2000/svg" width="48" height="48" viewBox="0 -960 960 960"><path d="M672.212-184q-43.762 0-74.487-30.013Q567-244.025 567-287.788q0-43.762 30.725-74.487Q628.45-393 672.212-393q43.763 0 73.775 30.725Q776-331.55 776-287.788q0 43.763-30.013 73.775Q715.975-184 672.212-184Zm-.712-22q34.5 0 58.5-24t24-58.5q0-34.5-24-58.5t-58.5-24q-34.5 0-58.5 24t-24 58.5q0 34.5 24 58.5t58.5 24ZM287.788-307q-43.763 0-73.775-30.013Q184-367.025 184-410.788q0-43.762 30.013-74.487Q244.025-516 287.788-516q43.762 0 74.487 30.725Q393-454.55 393-410.788q0 43.763-30.725 73.775Q331.55-307 287.788-307Zm.548-22Q323-329 347-352.836q24-23.837 24-58.5Q371-446 347-470t-58.664-24q-34.663 0-58.5 24Q206-446 206-411.336q0 34.663 23.836 58.5Q253.673-329 288.336-329Zm150.452-270q-43.763 0-73.775-30.725Q335-660.45 335-704.212q0-43.763 30.013-73.775Q395.025-808 438.788-808q43.762 0 74.487 30.013Q544-747.975 544-704.212q0 43.762-30.725 74.487Q482.55-599 438.788-599Zm.712-22q34.5 0 58.5-24t24-58.5q0-34.5-24-58.5t-58.5-24q-34.5 0-58.5 24t-24 58.5q0 34.5 24 58.5t58.5 24ZM672-288ZM288-411Zm151-293Z"/></svg>