<svg xmlns="http://www.w3.org/2000/svg" width="48" height="48" viewBox="0 -960 960 960"><path d="M247-86q-16.917 0-28.958-12.042Q206-110.083 206-127v-60q0-16.917 12.042-28.958Q230.083-228 247-228h39v-181h-39q-16.917 0-28.958-12.042Q206-433.083 206-450v-60q0-16.917 12.042-28.958Q230.083-551 247-551h39v-181h-39q-16.917 0-28.958-12.042Q206-756.083 206-773v-60q0-16.917 12.042-28.958Q230.083-874 247-874h100q16.917 0 28.958 12.042Q388-849.917 388-833v60q0 16.917-12.042 28.958Q363.917-732 347-732h-39v181h39q16.917 0 28.958 12.042Q388-526.917 388-510v19h224v-19q0-16.917 12.042-28.958Q636.083-551 653-551h100q16.917 0 28.958 12.042Q794-526.917 794-510v60q0 16.917-12.042 28.958Q769.917-409 753-409H653q-16.917 0-28.958-12.042Q612-433.083 612-450v-19H388v19q0 16.917-12.042 28.958Q363.917-409 347-409h-39v181h39q16.917 0 28.958 12.042Q388-203.917 388-187v60q0 16.917-12.042 28.958Q363.917-86 347-86H247Zm-1-22h104q7 0 11.5-5.5T366-126v-62q0-7-4.5-12.5T350-206H246q-7 0-12.5 5.5T228-188v62q0 7 5.5 12.5T246-108Zm0-323h104q7 0 11.5-5.5T366-449v-62q0-7-4.5-12.5T350-529H246q-7 0-12.5 5.5T228-511v62q0 7 5.5 12.5T246-431Zm406 0h102q7 0 12.5-5.5T772-449v-62q0-7-5.5-12.5T754-529H652q-7 0-12.5 5.5T634-511v62q0 7 5.5 12.5T652-431ZM246-754h104q7 0 11.5-5.5T366-772v-62q0-7-4.5-12.5T350-852H246q-7 0-12.5 5.5T228-834v62q0 7 5.5 12.5T246-754Zm51-49Zm406 323Zm-406 0Zm0 323Z"/></svg>