<svg xmlns="http://www.w3.org/2000/svg" width="48" height="48" viewBox="0 -960 960 960"><path d="M594-378h100q8.9 0 15.95-6.4Q717-390.8 717-400v-160q0-8.9-7.05-15.95Q702.9-583 694-583H594q-9.2 0-15.6 7.05T572-560v160q0 9.2 6.4 15.6T594-378Zm3-25h95v-155h-95v155Zm-331 25h110q5.2 0 8.6-3.36 3.4-3.361 3.4-8.5 0-5.14-3.4-9.14-3.4-4-8.6-4H268v-62h94q9 0 17.5-8.5T388-491v-69q0-8.9-6.4-15.95Q375.2-583 366-583H256q-4.9 0-8.95 4.07-4.05 4.07-4.05 9.209 0 5.14 4.05 8.43Q251.1-558 256-558h107v63h-93q-8.7 0-17.85 8.5Q243-478 243-469v69q0 9.2 7.05 15.6T266-378Zm-82 155q-22.775 0-38.387-15.613Q130-254.225 130-277v-400q0-22.775 15.613-38.388Q161.225-731 184-731h125v-69q0-4.675 3.228-7.838 3.228-3.162 8-3.162t7.772 3.162q3 3.163 3 7.838v69h298v-69q0-4.675 3.228-7.838 3.228-3.162 8-3.162t7.772 3.162q3 3.163 3 7.838v69h125q22.775 0 38.388 15.612Q830-699.775 830-677v400q0 22.775-15.612 38.387Q798.775-223 776-223H184Zm295.953-305Q486-528 490-531.953q4-3.954 4-10Q494-548 490.047-552q-3.954-4-10-4Q474-556 470-552.047q-4 3.954-4 10Q466-536 469.953-532q3.954 4 10 4Zm0 130Q486-398 490-401.953q4-3.954 4-10Q494-418 490.047-422q-3.954-4-10-4Q474-426 470-422.047q-4 3.954-4 10Q466-406 469.953-402q3.954 4 10 4Zm-.093-260q5.14 0 9.14-3.703 4-3.703 4-9.367 0-5.23-4.07-8.58-4.07-3.35-9.209-3.35-5.14 0-8.43 3.558-3.291 3.558-3.291 9t3.36 8.942q3.361 3.5 8.5 3.5Zm0 387q5.14 0 9.14-3.703 4-3.703 4-9.367 0-5.23-4.07-8.58-4.07-3.35-9.209-3.35-5.14 0-8.43 3.558-3.291 3.558-3.291 9t3.36 8.942q3.361 3.5 8.5 3.5Z"/></svg>