<svg xmlns="http://www.w3.org/2000/svg" width="48" height="48" viewBox="0 96 960 960"><path d="M146 844q-21.5 0-37.75-16.25T92 790V362q0-21.5 16.25-37.75T146 308h668q21.5 0 37.75 16.25T868 362v428q0 21.5-16.25 37.75T814 844H146Zm31-514h-31q-14 0-23 9t-9 23v428q0 14 9 23t23 9h31V330Zm22 492h562V330H199v492Zm584-492v492h31q14 0 23-9t9-23V362q0-14-9-23t-23-9h-31Zm0 0h63-63Zm-606 0h-63 63Zm496 404h-85q-5.067 0-8.033 2.953-2.967 2.954-2.967 8 0 5.047 2.967 8.047 2.966 3 8.033 3h87q7.6 0 13.8-6.5Q695 743 695 735v-86q0-5.067-2.953-8.033-2.954-2.967-8-2.967-5.047 0-8.047 2.967-3 2.966-3 8.033v85ZM287 418h85q5.067 0 8.033-2.953 2.967-2.954 2.967-8 0-5.047-2.967-8.047-2.966-3-8.033-3h-86q-8 0-14.5 6.2T265 416v87q0 5.067 2.953 8.033 2.954 2.967 8 2.967 5.047 0 8.047-2.967 3-2.966 3-8.033v-85Z"/></svg>