<svg xmlns="http://www.w3.org/2000/svg" width="48" height="48" viewBox="0 -960 960 960"><path d="M644-600q-14 0-25.5-12T607-638v-100q0-14 11.5-26t25.5-12h4v-40.904Q648-845 667.5-864.5q19.5-19.5 48-19.5t48 19.5Q783-845 783-816.904V-776h4q14 0 24.5 12t10.5 26v100q0 14-11.5 26T785-600H644Zm31-176h80v-40.702Q755-834 743.5-845.5T715-857q-17 0-28.5 11.5T675-816.702V-776ZM530-105 383-252q-4-3-4-7.5t4-8.5q4-4 8-4t8 4l157.198 157.198Q563-104 560.352-94.857q-2.648 9.143-12.255 10.257-7.097.6-14.012 1.1-6.914.5-14.085.5-88.799 0-166.4-33.5Q276-150 218-208t-91.5-135.92Q93-421.839 93-510q0-4.675 3.223-7.838Q99.446-521 104.211-521q3.789 0 7.289 3.162 3.5 3.163 3.5 7.838 0 84 32.5 159t89 130.5Q293-165 369-134t161 29Zm167-390 16-16 42 43q17 16 17 40.5T755-387L646-278q-17 17-40.918 17-23.917 0-40.082-17L285-557q-16-16.435-16-40.718Q269-622 285-638l110-110q16.435-16 40.718-16Q460-764 476-748l45 46-16 15-47-46q-9-9-23-9t-23 9L300-621q-9 9-9 23t9 23l282 283q9 9 23 9t23-9l113-113q9-9 9-23t-9-23l-44-44Zm-176-18Z"/></svg>