<svg xmlns="http://www.w3.org/2000/svg" width="48" height="48" viewBox="0 -960 960 960"><path d="M505-160 262-402q-2-2-2.5-4t-.5-4.333q0-3.496 3.25-7.082Q265.5-421 269.585-421q2.927 0 4.671 1 1.744 1 3.744 2l243 243q9 10 23 9.5t23-9.5l230-229H657q-4.675 0-7.838-3.228-3.162-3.228-3.162-8t3.162-7.772q3.163-3 7.838-3h150q10.5 0 18.75 7.763Q834-410.475 834-399v150q0 4.675-3.228 7.837-3.228 3.163-8 3.163T815-241.163q-3-3.162-3-7.837v-141L582-160q-8.422 8.261-17.57 11.63-9.148 3.37-19.921 3.37-10.099 0-20.661-3.37Q513.286-151.739 505-160ZM153-535q-10.5 0-18.75-7.763Q126-550.525 126-562v-150q0-4.675 3.228-7.838 3.228-3.162 8-3.162t7.772 3.162q3 3.163 3 7.838v141l230-230q8.219-7.826 18.493-11.413Q406.767-816 417.041-816q10.959 0 20.209 3.63Q446.5-808.739 455-801l243 242q2 2 2.5 4t.5 4.333q0 3.496-3.25 7.082Q694.5-540 690.415-540q-2.927 0-4.671-1-1.744-1-3.744-3L439-786q-9-10-23-9.5t-23 9.5L163-557h140q4.675 0 7.838 3.228 3.162 3.228 3.162 8T310.838-538q-3.163 3-7.838 3H153Z"/></svg>