<svg xmlns="http://www.w3.org/2000/svg" width="48" height="48" viewBox="0 -960 960 960"><path d="M459-438q22.086 0 36.543-6T529-461l94 94q3 3 8 3.5t9-3.559q4-3.941 4-8.441 0-4.5-4-8.5l-95-95q10-17 15.5-30.839 5.5-13.839 5.5-34.661 0-44.5-31-75.5t-76-31q-45 0-75.5 30.943T353-544.925q0 44.611 30.5 75.768Q414-438 459-438Zm.044-25q-33.394 0-57.219-24.074Q378-511.149 378-544.956q0-33.394 23.92-57.219Q425.839-626 459.429-626 494-626 517.5-602.084t23.5 57.5Q541-511 516.926-487q-24.075 24-57.882 24ZM91-200q-4.725 0-7.862-3.193-3.138-3.193-3.138-8T83.138-219q3.137-3 7.862-3h778q4.725 0 7.862 3.193 3.138 3.193 3.138 8T876.862-203q-3.137 3-7.862 3H91Zm95-68q-22.775 0-38.387-15.612Q132-299.225 132-322v-388q0-22.775 15.613-38.388Q163.225-764 186-764h588q22.775 0 38.388 15.612Q828-732.775 828-710v388q0 22.775-15.612 38.388Q796.775-268 774-268H186Zm0-22h588q12 0 22-10t10-22v-388q0-12-10-22t-22-10H186q-12 0-22 10t-10 22v388q0 12 10 22t22 10Zm-32 0v-452 452Z"/></svg>