<svg xmlns="http://www.w3.org/2000/svg" width="48" height="48" viewBox="0 -960 960 960"><path d="M186-212q-22.775 0-38.387-15.613Q132-243.225 132-266v-428q0-22.775 15.613-38.388Q163.225-748 186-748h588q22.775 0 38.388 15.612Q828-716.775 828-694v428q0 22.775-15.612 38.387Q796.775-212 774-212H186Zm108-163h122q10 0 17-5.925T440-397v-74q0-10.15-7-16.075Q426-493 416-493H297v-67h118v6q0 6 3.75 9.5t9.417 3.5h-.834q4.667 0 8.667-3.687t4-9.269v-8.956q0-10.538-7-16.313Q426-585 416-585H294q-10.15 0-16.075 5.925Q272-573.15 272-563v74q0 10.15 5.925 16.075Q283.85-467 294-467h121v67H297v-6q0-6-3.25-9.5t-9.083-3.5h.416q-4.833 0-8.958 3.7T272-406v9q0 10.15 5.925 16.075Q283.85-375 294-375Zm240 0h107q19 0 33-14t14-33v-116q0-19-14-33t-33-14H534q-5.6 0-9.8 4.2-4.2 4.2-4.2 9.8v182q0 5.6 4.2 9.8 4.2 4.2 9.8 4.2Zm11-25v-160h102q6 0 11 5t5 11v128q0 6-5 11t-11 5H545Z"/></svg>