<svg xmlns="http://www.w3.org/2000/svg" width="48" height="48" viewBox="0 96 960 960"><path d="M400 790q-4.675 0-7.838-3.137-3.162-3.138-3.162-7.775 0-5.063 3.162-8.075Q395.325 768 400 768h403q4.675 0 7.838 3.228 3.162 3.228 3.162 8T810.838 787q-3.163 3-7.838 3H400ZM157 384q-4.675 0-7.837-3.228-3.163-3.228-3.163-8t3.163-7.772q3.162-3 7.837-3h646q4.675 0 7.838 3.228 3.162 3.228 3.162 8T810.838 381q-3.163 3-7.838 3H157Zm243 203q-4.675 0-7.838-3.228-3.162-3.228-3.162-8t3.162-7.772q3.163-3 7.838-3h403q4.675 0 7.838 3.228 3.162 3.228 3.162 8T810.838 584q-3.163 3-7.838 3H400Z"/></svg>