<svg xmlns="http://www.w3.org/2000/svg" width="48" height="48" viewBox="0 -960 960 960"><path d="M166-389.5q12 43.5 35 80.5 4 5 4 9.5t-4 7.5q-5 4-9.5 2t-7.5-6q-25-41-38.5-87.5T132-480q0-50 13.5-96.5T184-663q3-4 7.5-6.5t9.5.5q4 4 4 8.5t-4 9.5q-23 37-35 80.5T154-480q0 47 12 90.5ZM324-324q-64-64-64-156t64-156q64-64 156-64t156 64q64 64 64 156t-64 156q-64 64-156 64t-156-64Zm296-16q58-58 58-140t-58-140q-58-58-140-58t-140 58q-58 58-58 140t58 140q58 58 140 58t140-58Zm173-230.5Q780-614 757-651q-3-5-2.5-9.5t4.5-8.5q5-3 9.5-.5t7.5 6.5q24 40 38 86.5t14 96.5q0 50-14 96.5T776-296q-3 4-7.5 6t-9.5-2q-4-3-4.5-7.5t2.5-9.5q23-37 36-80.5t13-90.5q0-47-13-90.5ZM480-480Z"/></svg>