<svg xmlns="http://www.w3.org/2000/svg" width="48" height="48" viewBox="0 -960 960 960"><path d="M426-132q-21.75 0-37.875-16.125T372-186v-32L257-448q-2-5-3.5-11.625T252-472v-138q0-21 11-36.5t29-21.5v-101q0-25 15.5-42t38.5-17h268q23 0 38.5 17t15.5 42v101q18 6 29 21.5t11 36.5v138q0 5.75-1.5 12.375T703-448L588-218v32q0 21.75-16.125 37.875T534-132H426ZM314-669h91v-75q0-4.8 4.143-8.9 4.143-4.1 10-4.1 4.857 0 8.857 4.1 4 4.1 4 8.9v75h96v-75q0-4.8 4.143-8.9 4.143-4.1 10-4.1 4.857 0 8.857 4.1 4 4.1 4 8.9v75h91v-100q0-16-9-26.5T614-806H346q-14 0-23 10.5t-9 26.5v100Z"/></svg>