<svg xmlns="http://www.w3.org/2000/svg" width="48" height="48" viewBox="0 96 960 960"><path d="M685 832v-23q-28-5-47.5-17T604 763l-20 13-16-19 21-15q-11-27-11-51t11-51l-21-15 16-20 20 14q14-17 33.5-29t47.5-17v-23h22v23q28 5 47.5 17t33.5 28l20-13 16 20-21 15q11 27 11 50.5T803 742l21 15-16 19-20-13q-14 17-33.5 29T707 809v23h-22Zm11-47q39 0 66.5-27.5T790 691q0-39-27.5-67T696 596q-40 0-67.5 28T601 691q0 39 27.5 66.5T696 785Zm-526-37q-15 5-26.5-1.5T132 722V272q0-18 11.5-24.5T170 246q23 7 55 14.5t71 13.5q39 6 85 10t99 4q53 0 98.5-4t84.5-10q39-6 70.5-13.5T788 246q15-5 27.5 1.5T828 272v225q-29-20-62.5-30.5T696 456q-29 0-56.5 7T588 483l-26-32-108 132-82-100-98 122q51-5 103.5-8t103.5-3q-11 26-15.5 54.5T462 704q-48 0-89.5 4.5T296 719q-39 7-71 14.5T170 748Z"/></svg>