<svg xmlns="http://www.w3.org/2000/svg" width="48" height="48" viewBox="0 -960 960 960"><path d="M373-66q-11.15 0-19.075-7.925Q346-81.85 346-93v-454q0-11.15 7.925-19.075Q361.85-574 373-574h214q11.15 0 19.075 7.925Q614-558.15 614-547v454q0 11.15-7.925 19.075Q598.15-66 587-66H373Zm106.746-348q10.747 0 18.5-7.754 7.754-7.753 7.754-18.5Q506-450 497.82-458q-8.18-8-17.82-8-10.48 0-18.24 7.76Q454-450.48 454-440q0 9.64 8 17.82t17.746 8.18Zm.047-338q-37.207 0-71 11T345-709q-4.208 3-8.604 3-4.396 0-8.396-4-4-4.273-3-8.636 1-4.364 5-8.364 33-24 71.191-35.5t79-11.5Q521-774 559-762.5t71 35.5q4.214 3.857 5.107 8.429Q636-714 632-710t-9 4q-5 0-9-4-30-20-63.5-31t-70.707-11ZM480-912q-67.989 0-131.494 23Q285-866 232-823q-3.792 3.25-9.396 3.125Q217-820 214-823q-4-4-2.5-9.5t6.5-9.5q56-45 122.765-68.5Q407.529-934 480-934q71.757 0 138.378 24Q685-886 740-840q4.214 4.311 6.607 9.156Q749-826 745-822q-3 4-8.5 3t-10.5-5q-52-43-115-65.5T480-912Z"/></svg>