<svg xmlns="http://www.w3.org/2000/svg" width="48" height="48" viewBox="0 -960 960 960"><path d="M429-132q-4 0-7-3.5t-4-8.5l-12-99q-23-7-51-22.5T308-299l-88 40q-6 2-12 .5t-9-7.5l-46-79q-3-6-2.045-11.442.954-5.442 7.045-9.558l79-59q-2-13-3.5-27t-1.5-27q0-12 1.5-26t3.5-30l-79-59q-6.091-4.116-6.545-10.058Q151-610 154-616l45-76q3-5 9-7t12 0l87 38q22-18 48-33t50-22l14-98q1.674-5.935 6.337-9.968Q430-828 436-828h87q6 0 11.163 4.032 5.163 4.033 6.837 9.968l13 98q27 10 50 23t45 32l93-38q5-2 11 0t9 7l45 77q3 6 1.5 11.5T802-594l-79 63q1 5 2 9t2 9q.059 13-8.971 22.5Q709-481 695-480l-134-1q0-35-25-59.5T476.462-565Q442-565 417-540.5T392-481q0 25 13 45.5t34 30.5v262q0 5.235-3 8.118-3 2.882-7 2.882Zm152 0q-21 0-34.5-14T533-180v-160q0-14 7.5-25.5T560-383l15 31q3 5 8 8.5t11 3.5q12 0 18-10t1-21l-8-17h48l18 36q3 5 8 8.5t11 3.5q12 0 18-10t1-21l-8-17h48l18 36q3 5 8 8.5t11 3.5q12 0 18-10t1-21l-8-17h8q20 0 34 14t14 34v160q0 20-14 34t-34 14H581Zm0-48h224v-112H581v112Z"/></svg>