<svg xmlns="http://www.w3.org/2000/svg" width="48" height="48" viewBox="0 -960 960 960"><path d="M442-534q-12 0-20-8t-8-19.5q0-11.5 8-20t19.5-8.5q11.5 0 20 8.5T470-562q0 12-8.5 20t-19.5 8Zm163.702 0q-10.874 0-19.288-8T578-561.5q0-11.5 8.414-20t19.288-8.5q11.723 0 20.011 8.5Q634-573 634-562q0 12-8.287 20-8.288 8-20.011 8ZM771-534q-12.425 0-20.713-8Q742-550 742-561.5t8.287-20q8.288-8.5 20.213-8.5 11.075 0 19.287 8.5Q798-573 798-562q0 12-8.213 20-8.212 8-18.787 8Zm-27 362q-91 0-192-50T361.5-362Q272-452 222-552.5T172-744q0-18.857 12.286-31.429Q196.571-788 215-788h72.727Q306-788 318-777.5t17 28.5l18.929 77.641Q356-655 352-642t-13.229 21.226L253-543q28 49 59 90t65 76q38 39 82 71t97 61l84-86q10-11 21.163-14.5T687-347l62 14q18 3 28.5 16.618Q788-302.765 788-285v70q0 18.429-12.571 30.714Q762.857-172 744-172ZM243-562l84-77q5-4 6.5-11t-.5-13l-20-87q-1-8-6.5-12t-13.5-4h-85q-6 0-10 4t-4 10q-1 41 12 89t37 101Zm335 326q41 22 91 32.5t83 10.5q6 0 10-4t4-10v-84q0-8-4-13.5t-12-6.5l-71-15q-6-2-10.5-.5T659-320l-81 84ZM243-562q-20-45-31.5-89.5T199-736q0-5 2.5-7.5t6.5-2.5h83q5 0 9 3t5 8l18 86q1 4 0 9t-4 7l-76 71Zm335 326 74-75q4-3 7-4.5t7-.5l76 16q5 1 8 5t3 9v81q0 5-2.5 7.5T744-195q-35-1-80.5-11T578-236Z"/></svg>