<svg xmlns="http://www.w3.org/2000/svg" width="48" height="48" viewBox="0 -960 960 960"><path d="m468-366 5 38q.787 2.645 2.54 4.323 1.754 1.677 4.388 1.677h.438q2.634 0 4.072-1.469 1.437-1.469 2.562-4.531l5-38q28-5 45.5-15.5T569-410l38 16q3 2 5.875-.024T617-398q2-3 1-6.5t-4-4.5l-29-21q9-27 9-50t-9-50l29-21q3-1 4-5t-1-6h1q-2.419-1.952-5.21-3.976Q610-568 607-566l-38 16q-14-18-31.5-28.5T492-594l-5-38q-.787-2.645-2.54-4.323-1.754-1.677-4.388-1.677h-.438q-2.634 0-4.072 1.469-1.437 1.469-2.562 4.531l-5 38q-28 5-45.5 15.5T391-550l-38-16q-3-2-5.875.024T343-562q-2 3-1 6.5t4 4.5l29 21q-9 27-9 50t9 50l-29 21q-3 1-4 5t1 6h-1q2.419 1.952 5.21 3.976Q350-392 353-394l38-16q14 18 31.5 28.5T468-366Zm11.752-33q-34.248 0-57.5-23.252Q399-445.504 399-479.752 399-514 422.252-538t57.5-24Q514-562 538-538t24 58.248q0 34.248-24 57.5Q514-399 479.752-399ZM226-172q-22.775 0-38.387-15.613Q172-203.225 172-226v-508q0-22.775 15.613-38.388Q203.225-788 226-788h508q22.775 0 38.388 15.612Q788-756.775 788-734v508q0 22.775-15.612 38.387Q756.775-172 734-172H226Zm0-22h508q12 0 22-10t10-22v-508q0-12-10-22t-22-10H226q-12 0-22 10t-10 22v508q0 12 10 22t22 10Zm-32-572v572-572Z"/></svg>