<svg xmlns="http://www.w3.org/2000/svg" width="48" height="48" viewBox="0 -960 960 960"><path d="M480.124-814Q454-814 436-831.876q-18-17.876-18-44T435.876-920q17.876-18 44-18T524-920.124q18 17.876 18 44T524.124-832q-17.876 18-44 18ZM407-217v-497q-60-5-114.5-12.5T189-745q-5-1-9-5t-3-9.5q1-4.5 6.38-6.5t11.62-1q71 17 139.774 24t145.063 7q76.288 0 145.062-7 68.774-7 141.101-24 5-1 10.5 1t6.5 6.5q1 5.5-3 9.5t-9 5q-49 11-103.5 18.5T553-714v497q0 4.725-3.193 7.863-3.193 3.137-8 3.137T534-209.137q-3-3.138-3-7.863v-232H429v232q0 4.725-3.193 7.863-3.193 3.137-8 3.137T410-209.137q-3-3.138-3-7.863ZM319-12q-11 0-19-7.904-8-7.903-8-19.5Q292-51 299.788-59q7.787-8 19.212-8 11 0 19.5 8.075T347-39q0 11.425-8.5 19.212Q330-12 319-12Zm161 0q-11.425 0-19.212-7.904Q453-27.806 453-39.404 453-51 460.904-59q7.903-8 19.5-8Q492-67 500-58.925T508-39q0 11.425-8.075 19.212Q491.85-12 480-12Zm161.596 0Q630-12 622-19.904q-8-7.903-8-19.5Q614-51 622.075-59T642-67q11.425 0 19.213 8.075Q669-50.85 669-39q0 11.425-7.904 19.212Q653.193-12 641.596-12Z"/></svg>