<svg xmlns="http://www.w3.org/2000/svg" width="48" height="48" viewBox="0 -960 960 960"><path d="M662.21-154q27.29 0 45.54-18.46T726-218.21q0-27.29-18.46-45.54T661.79-282q-27.29 0-45.54 18.46T598-217.79q0 27.29 18.46 45.54T662.21-154Zm0-524q27.29 0 45.54-18.46T726-742.21q0-27.29-18.46-45.54T661.79-806q-27.29 0-45.54 18.46T598-741.79q0 27.29 18.46 45.54T662.21-678Zm-.5 22q-20.9 0-38.3-9Q606-674 594-689L280-504q-5 3-10.5 5t-11.5 2q-1 .57-1.97.79-.97.21-2.03.21-24.6 0-47.3 5-22.7 5-45.39 14.88Q155-473 149.78-475q-5.21-2-9-6-3.78-4-5.28-9.5-1.5-5.5.75-12.14Q143-530 165.72-548T217-566q20.73 0 38.86 8.3Q274-549.41 286-533l296-175q-3-8-4.5-16.5t-1.5-17.64q0-35.03 25.49-60.44Q626.97-828 662.24-828q35.26 0 60.51 25.49Q748-777.03 748-741.76q0 35.26-25.42 60.51Q697.17-656 661.71-656Zm.05 524q-35.26 0-60.51-25.42Q576-182.83 576-218q0-7.14 6-33l-87-52q-4.86-2.34-5.93-6.67Q488-314 491-318.5t7-5.5q4-1 9 1l88 52q12.36-15 29.44-24 17.07-9 37.58-9 35.65 0 60.81 25.49Q748-253.03 748-217.76q0 35.26-25.49 60.51Q697.03-132 661.76-132ZM257-112q-61 0-103-42t-42-103q0-61 42-103t103-42q61 0 103 42t42 103q0 61-42 103t-103 42Zm0-126 60 60q4 3 9.5 3.5t9.5-3.26q4-3.76 4-9t-3.9-9.24L275-257l61.19-61.19q2.81-2.72 3.31-8.26.5-5.55-3.43-9.55-3.93-4-9-4t-8.97 3.81L257-276l-61.1-60.19q-2.54-2.81-8.22-3.31-5.68-.5-9.68 3.43t-4 9q0 5.07 4 8.97l61 61.05L178-197q-3 4-3.5 9.5t4.14 9.5q4.65 4 9.5 4 4.86 0 8.86-4l60-60Zm405 20Zm0-524Z"/></svg>