<svg xmlns="http://www.w3.org/2000/svg" width="48" height="48" viewBox="0 -960 960 960"><path d="M721.882-106q-38.382 0-65.132-26.865Q630-159.731 630-198.11q0-8.163 1.5-18.169Q633-226.286 637-234L312-426q-13 18-32.677 28T238-388q-38.333 0-65.167-26.868Q146-441.735 146-480.118q0-38.382 26.833-65.132Q199.667-572 238-572q22.354 0 41.677 9.5T312-535l325-191q-4-8.071-5.5-17.593Q630-753.114 630-762q0-38.333 26.868-65.167Q683.735-854 722.118-854q38.382 0 65.132 26.799Q814-800.402 814-762.118q0 39.618-26.833 65.868Q760.333-670 722-670q-22 0-41-9t-33-27L324-516q3 8 4.5 17.793t1.5 18.241q0 8.449-1.5 17.707Q327-453 324-445l324 190q14-16 32.5-25.5T722-290q38.333 0 65.167 26.132Q814-237.735 814-198.618q0 39.118-26.868 65.868Q760.265-106 721.882-106Zm.329-586Q751-692 771.5-712.711q20.5-20.71 20.5-49.5Q792-791 771.289-811.5q-20.71-20.5-49.5-20.5Q693-832 672.5-811.289q-20.5 20.71-20.5 49.5Q652-733 672.711-712.5q20.71 20.5 49.5 20.5Zm-484 282Q267-410 287.5-430.711q20.5-20.71 20.5-49.5Q308-509 287.289-529.5q-20.71-20.5-49.5-20.5Q209-550 188.5-529.289q-20.5 20.71-20.5 49.5Q168-451 188.711-430.5q20.71 20.5 49.5 20.5Zm484 282Q751-128 771.5-148.711q20.5-20.71 20.5-49.5Q792-227 771.289-247.5q-20.71-20.5-49.5-20.5Q693-268 672.5-247.289q-20.5 20.71-20.5 49.5Q652-169 672.711-148.5q20.71 20.5 49.5 20.5ZM722-762ZM238-480Zm484 282Z"/></svg>