<svg xmlns="http://www.w3.org/2000/svg" width="48" height="48"><path d="M28 40.45q-.25 0-.4-.15-.15-.15-.15-.4t.15-.4q.15-.15.4-.15h10.4l-8.5-5.85q-.2-.15-.25-.4-.05-.25.05-.4.15-.2.375-.225.225-.025.375.075l8.45 5.95-3.55-9.7q-.1-.25 0-.425t.35-.275q.25-.1.45.025t.3.325l3.4 9.7 2.75-9.95q.05-.3.25-.4.2-.1.45-.05.2.05.3.25.1.2.05.45l-3.1 11.6q-.05.15-.225.275-.175.125-.325.125zM10 34.5q-1.1 0-1.9-.775-.8-.775-.8-1.925V12.05q0-1.1.8-1.9.8-.8 1.9-.8h23.8q1.1 0 1.9.8.8.8.8 1.9v12.6q-.2 0-.325-.025t-.225-.025q-.15 0-.275.025-.125.025-.275.025v-6.2H22.45v6.9q0 .45-.325.775t-.775.325H8.4v5.35q0 .7.45 1.15.45.45 1.15.45h16.3q-.05.15-.05.3v.575q0 .175.05.225zm12.45-17.2H35.4V12q0-.7-.475-1.15-.475-.45-1.125-.45H22.45zm-14.05 0h12.95v-6.9H10q-.7 0-1.15.45-.45.45-.45 1.15zm0 8h12.95v-6.9H8.4z"/></svg>