<svg xmlns="http://www.w3.org/2000/svg" width="48" height="48" viewBox="0 -960 960 960"><path d="M212-518v-168q0-17.257 9.875-31.662Q231.75-732.068 247-738l214-79q10-4 19-4t19 4l214 79q15.25 5.932 25.125 20.338Q748-703.257 748-686v168q0 5-3.386 8t-7.649 3Q732-507 729-509.85t-3-8.15v-169q0-10-5.5-18T705-717l-214-80q-5-2-11-2t-11 2l-214 80q-10 4-15.5 12t-5.5 18v169q0 124 69.5 225T480-158q9.174-3.2 19-7.225 9.826-4.025 19-7.775 4-2 7.833-.5 3.834 1.5 6.167 5.5 2 4 .5 7.833-1.5 3.834-5.5 6.167-6 2-12.618 5.906Q507.763-144.188 502-141q-5 2-10 2.5t-10 .5q-5 0-10-.5t-10.021-2.5Q347-186 280-291q-67-105-68-227Zm437 386q-14 0-26-12.5T611-170v-103q0-14 12-25.5t26-11.5h3v-40q0-29 19.5-49.5T720-420q29 0 48.5 20.5T788-350v40h3q13.412 0 25.206 11.5Q828-287 828-273v103q0 13-11.794 25.5T791-132H649Zm31-178h81v-40q0-18-12-30t-29-12q-17 0-28.5 12T680-350v40ZM480-479Z"/></svg>