<svg xmlns="http://www.w3.org/2000/svg" width="48" height="48" viewBox="0 -960 960 960"><path d="m448-317 126-80q12-8.786 12-22.821 0-14.036-12-22.179l-125-81q-14-9-28-1.457-14 7.544-14 23.457v162q0 15.913 14 23.457Q435-308 448-317ZM186-172q-22.775 0-38.387-15.613Q132-203.225 132-226v-415q0-11.725 7.637-19.362Q147.275-668 159-668h213v-54q0-22.775 15.612-38.388Q403.225-776 426-776h108q22.775 0 38.388 15.612Q588-744.775 588-722v54h213q11.725 0 19.362 7.638Q828-652.725 828-641v415q0 22.775-15.612 38.387Q796.775-172 774-172H186Zm0-22h588q12 0 22-10t10-22v-420H154v420q0 12 10 22t22 10Zm208-474h172v-54q0-12-10-22t-22-10H426q-12 0-22 10t-10 22v54ZM154-194v-452 452Z"/></svg>