<svg xmlns="http://www.w3.org/2000/svg" width="48" height="48" viewBox="0 96 960 960"><path d="M368 210q-5 0-8-3t-3-8q0-5 3-8t8-3h224q5 0 8 3t3 8q0 5-3 8t-8 3H368Zm113 714q-64 0-120.5-24.5t-98-66q-41.5-41.5-66-98T172 615q0-64 24-120t66-97.5q42-41.5 98-65.5t120-24q64 0 114.5 21.5T691 390l44-43q3-3 8-3.5t8 3.5q4 4 3.5 8.5T751 363l-44 44q39 46 60 96t21 113q0 64-24.5 120T697 834q-42 42-98 66t-118 24Zm-1-308Zm16-67h243q8 0 12.5-5.5T754 530q-21-59-60.5-103.5T600 356q-6-2-11.5-.5T580 362l-96 165q-4 8 0 15t12 7Zm-93 20q4 8 12.5 8t12.5-8l125-211q4-8 1.5-14.5T544 336q-65-14-125 1t-107 48q-4 3-5 8.5t1 10.5l95 165Zm-192 88h186q8 0 12-6.5t0-14.5L290 426q-4-7-11-8t-12 5q-39 46-58 102t-13 119q1 6 5.5 9.5t9.5 3.5Zm151 219q5 3 10.5 1t8.5-7l93-164q4-8 0-15t-12-7H222q-8 0-12.5 6t-2.5 13q20 59 60 103t95 70Zm58 19q76 18 134.5-1.5T648 849q4-3 5-9t-2-11l-96-166q-4-8-13-8t-13 8L411 872q-4 8-1.5 14.5T420 895Zm249-89q5 8 12 8t12-6q24-29 51.5-84.5T764 589q-1-5-5.5-9t-9.5-4H560q-8 0-12 7t0 15l121 208Z"/></svg>