<svg xmlns="http://www.w3.org/2000/svg" width="48" height="48" viewBox="0 -960 960 960"><path d="m178-178 603-603q13-13 30-6.188 17 6.813 17 25.188v77h-11q-45.333 0-78.167 32.833Q706-619.333 706-574v442H197q-19 0-25.5-16.5T178-178Zm638.86 58q-8.86 0-15.86-7.14-7-7.141-7-16 0-8.86 7.14-15.86 7.141-7 16-7 8.86 0 15.86 7.14 7 7.141 7 16 0 8.86-7.14 15.86-7.141 7-16 7ZM806-251v-323q0-3.7 3.211-7.35 3.21-3.65 8-3.65 4.789 0 7.789 3.65t3 7.35v324q0 4-3.035 7t-8.5 3Q812-240 809-243.15t-3-7.85Z"/></svg>