<svg xmlns="http://www.w3.org/2000/svg" width="48" height="48" viewBox="0 0 48 48"><path d="M25.25 27.3q4.8-3 7.6-6.75t2.8-7.4q0-2.4-1-3.925T32 7.7q-3.25 0-5.3 4.125T24.65 22.35q0 1.5.15 2.725t.45 2.225ZM7.7 31.75q-.15.15-.35.125-.2-.025-.35-.175-.15-.15-.15-.375T7 30.95l2.8-2.8-2.85-2.85q-.15-.15-.125-.375.025-.225.175-.375t.375-.15q.225 0 .375.15l2.8 2.85 2.85-2.85q.15-.15.375-.15t.375.15q.15.15.15.375t-.15.375l-2.85 2.85L14.15 31q.15.15.15.35 0 .2-.15.35-.15.15-.375.15t-.375-.15l-2.85-2.8Zm21.55.25q-1.55 0-2.675-.775-1.125-.775-1.825-2.275-1.05.6-2.175 1.175Q21.45 30.7 20.3 31.2q-.25.1-.475.05-.225-.05-.325-.3t.025-.45q.125-.2.375-.3 1.15-.5 2.25-1.075T24.3 27.9q-.35-1.1-.55-2.475-.2-1.375-.2-2.975 0-7 2.35-11.425Q28.25 6.6 32 6.6q2.2 0 3.475 1.8t1.275 4.7q0 4.1-2.975 8.125T25.7 28.4q.6 1.25 1.475 1.875.875.625 2.025.625 1.75 0 3.525-1.35t3.225-3.75q.15-.15.375-.2.225-.05.425.05.2.1.325.275.125.175.125.425-.15 1.6.025 2.675Q37.4 30.1 38 31q.6-.35 1.15-.7.55-.35 1.3-1 .2-.2.425-.225.225-.025.425.125.15.15.15.4t-.2.4q-1.05 1.05-1.825 1.525Q38.65 32 37.9 32q-.85 0-1.425-1.2-.575-1.2-.625-2.9-1.2 1.85-3.05 2.975Q30.95 32 29.25 32ZM9.7 39.4q-.45 0-.8-.35-.35-.35-.35-.8 0-.45.35-.8.35-.35.8-.35.45 0 .8.35.35.35.35.8 0 .45-.35.8-.35.35-.8.35Zm7.15 0q-.5 0-.825-.35-.325-.35-.325-.8 0-.45.325-.8.325-.35.825-.35.45 0 .8.35.35.35.35.8 0 .45-.35.8-.35.35-.8.35Zm7.1 0q-.45 0-.8-.35-.35-.35-.35-.8 0-.45.35-.8.35-.35.8-.35.45 0 .8.35.35.35.35.8 0 .45-.35.8-.35.35-.8.35Zm7.15 0q-.5 0-.825-.35-.325-.35-.325-.8 0-.45.325-.8.325-.35.825-.35.45 0 .8.35.35.35.35.8 0 .45-.35.8-.35.35-.8.35Zm7.1 0q-.45 0-.8-.35-.35-.35-.35-.8 0-.45.35-.8.35-.35.8-.35.45 0 .8.35.35.35.35.8 0 .45-.35.8-.35.35-.8.35Z"/></svg>