<svg xmlns="http://www.w3.org/2000/svg" width="48" height="48" viewBox="0 -960 960 960"><path d="M481.228-375q4.772 0 7.772-3.162 3-3.163 3-7.838v-188q0-4.675-3.228-7.838-3.228-3.162-8-3.162T473-581.838q-3 3.163-3 7.838v188q0 4.675 3.228 7.838 3.228 3.162 8 3.162Zm111.33 0q5.442 0 8.942-3.683 3.5-3.684 3.5-9.317v-70h115q10.9 0 19.45-8.55Q748-475.1 748-486v-71q0-10.9-8.55-19.45Q730.9-585 720-585H593q-5.2 0-9.1 4.2-3.9 4.2-3.9 9.8v183q0 5.633 3.558 9.317 3.558 3.683 9 3.683ZM224-375h128q10.9 0 19.45-8.55Q380-392.1 380-403v-61q0-11.9-8.55-20.45Q362.9-493 352-493H237v-67h130q5.633 0 9.317-3.558 3.683-3.558 3.683-9t-3.683-8.942Q372.633-585 367-585H240q-11.9 0-19.95 8.55Q212-567.9 212-557v61q0 11.9 8.05 19.95Q228.1-468 240-468h115v68H224q-5.2 0-8.6 3.558-3.4 3.558-3.4 9t3.4 8.942q3.4 3.5 8.6 3.5Zm381-108v-77h118v77H605ZM186-212q-22.775 0-38.387-15.613Q132-243.225 132-266v-428q0-22.775 15.613-38.388Q163.225-748 186-748h588q22.775 0 38.388 15.612Q828-716.775 828-694v428q0 22.775-15.612 38.387Q796.775-212 774-212H186Zm0-22h588q12 0 22-10t10-22v-428q0-12-10-22t-22-10H186q-12 0-22 10t-10 22v428q0 12 10 22t22 10Zm-32 0v-492 492Z"/></svg>