<svg xmlns="http://www.w3.org/2000/svg" width="48" height="48" viewBox="0 -960 960 960"><path d="M167-806q-4.95 0-7.975-3.035-3.025-3.035-3.025-8t3.025-7.965q3.025-3 7.975-3h83q4.95 0 7.975 3.035 3.025 3.035 3.025 8T257.975-809q-3.025 3-7.975 3h-83Zm2.78 537L156-199q-5 25 11 45t42 20h260v-135H169.78ZM228-619l59-59q2.75-3 7.375-3t7.625 3q3 3 3 8t-3 8l-59 59q-2.75 3-7.375 3T228-603q-4-3-3.5-8t3.5-8Zm-54 328h295v-138H246q-20 0-34.5 12T193-386l-19 95Zm306-394q-60 0-101.5-42T336-829h288q-1 60-42.5 102T480-685Zm-11 164v-83q0-4.95 3.035-7.975 3.035-3.025 8-3.025t7.965 3.025q3 3.025 3 7.975v83q0 4.95-3.035 7.975-3.035 3.025-8 3.025T472-513.025q-3-3.025-3-7.975Zm22 387h260q25 0 41-20t12-45l-14.742-70H491v135Zm0-157h294l-19-95q-4-19-18.5-31T713-429H491v138Zm227-312-60-60q-3-3-2.5-7.5t3.674-7.674Q662-681 666-681q4 0 7 3l61 59q4 2.75 4 7.375T734-603q-3 4-7.5 4t-8.5-4Zm75-203h-94v-22h94q4.95 0 7.975 3.035 3.025 3.035 3.025 8T800.975-809q-3.025 3-7.975 3Z"/></svg>