<svg xmlns="http://www.w3.org/2000/svg" width="48" height="48" viewBox="0 96 960 960"><path d="M261 239.211q0 4.789-3.15 7.789t-7.85 3h-83q-4.7 0-7.85-3.211-3.15-3.21-3.15-8 0-4.789 3.15-7.789t7.85-3h83q4.7 0 7.85 3.211 3.15 3.21 3.15 8ZM209 922h260V787H169.78L156 858q-5 25 11 44.5t42 19.5Zm93.158-544.391Q305 381 305 385.967q0 4.966-3 8.033l-59 59q-2.75 3-7.533 3t-7.625-2.609Q224 450 224.5 445.033q.5-4.966 3.5-8.033l59-59q2.75-3 7.533-3t7.625 2.609ZM174 765h295V627H246q-20 0-34.5 12T193 670l-19 95Zm306-394q-60 0-101.5-42T336 227h288q-1 60-42.5 102T480 371Zm.211 70q4.789 0 7.789 3.15t3 7.85v83q0 4.7-3.211 7.85-3.21 3.15-8 3.15-4.789 0-7.789-3.15t-3-7.85v-83q0-4.7 3.211-7.85 3.21-3.15 8-3.15ZM491 922h260q25 0 41-19.5t12-44.5l-14.742-71H491v135Zm0-157h294l-19-95q-4-19-18.5-31T713 627H491v138Zm168.174-387.174Q662 375 666 375q4 0 7 3l61 59q2.231 1-5.885 15.5-8.115 14.5 5.832.5-3.052 4-7.5 4-4.447 0-8.447-4l-60-60q-3-3-2.5-7.5t3.674-7.674ZM804 239.211q0 4.789-3.15 7.789t-7.85 3h-83q-4.7 0-7.85-3.211-3.15-3.21-3.15-8 0-4.789 3.15-7.789t7.85-3h83q4.7 0 7.85 3.211 3.15 3.21 3.15 8Z"/></svg>