<svg xmlns="http://www.w3.org/2000/svg" width="48" height="48" viewBox="0 -960 960 960"><path d="M183-292q-4.675 0-7.837-3.228-3.163-3.228-3.163-8t3.163-7.772q3.162-3 7.837-3h153q4.675 0 7.838 3.228 3.162 3.228 3.162 8T343.838-295q-3.163 3-7.838 3H183Zm0-177q-4.675 0-7.837-3.228-3.163-3.228-3.163-8t3.163-7.772q3.162-3 7.837-3h373q4.675 0 7.838 3.228 3.162 3.228 3.162 8T563.838-472q-3.163 3-7.838 3H183Zm0-177q-4.675 0-7.837-3.228-3.163-3.228-3.163-8t3.163-7.772q3.162-3 7.837-3h594q4.675 0 7.838 3.228 3.162 3.228 3.162 8T784.838-649q-3.163 3-7.838 3H183Z"/></svg>