<svg xmlns="http://www.w3.org/2000/svg" width="48" height="48" viewBox="0 -960 960 960"><path d="M480-492q-44.55 0-74.77-30Q375-552 375-597.5t30-75q30-29.5 75-29.5t75 29.5q30 29.5 30 75T554.78-522q-30.23 30-74.78 30ZM212-259q0-27 13.5-43.5T263-331q48-23 108-37t109-14q49 0 108.5 14T697-331q24 12 37.5 28.5T748-259v23q0 9.75-7.12 16.87Q733.75-212 724-212H236q-9.75 0-16.87-7.13Q212-226.25 212-236v-23Zm22 25h492v-25q0-19.52-11.5-31.76Q703-303 686-312q-41-22-99-35t-107-13q-49 0-107 13t-99 35q-17 8-28.5 21.09Q234-277.83 234-259v25Zm246-280q35 0 59-24t24-59q0-35-24-59t-59-24q-35 0-59 24t-24 59q0 35 24 59t59 24ZM170.88-788.42q-26.25 26.39-59.92 40.9Q77.3-733 39-733q-4.68 0-7.84-3.23t-3.16-8q0-4.77 3.16-7.77t7.84-3q35 0 64.5-12.98t52.47-36.04q22.97-23.06 35.5-52.41Q204-885.79 202-921q0-4.98 3.31-8.49t8-3.51q4.69 0 8.19 3.51 3.5 3.51 3.5 8.49 0 38.96-14.5 73.2t-39.62 59.38ZM159.47-636Q103.95-612 39-612q-4.68 0-7.84-3.23t-3.16-8q0-4.77 3.16-7.77t7.84-3q60.35 0 111.19-22.6 50.84-22.59 90.33-61.5Q280-757 302.5-809 325-861 325-921q0-4.98 3.31-8.49t8-3.51q4.69 0 8.19 3.51 3.5 3.51 3.5 8.49 0 64.07-24 120.03-24 55.97-66.5 98.47T159.47-636Zm476.45-164.5Q612-856 611-921q0-4.98 3.31-8.49t8-3.51q4.69 0 8.19 3.51 3.5 3.51 3.5 8.49 0 59.73 22.36 111.69 22.35 51.97 61.66 91.04 39.3 39.07 91.14 61.67T920-634q4.67 0 7.84 3.23 3.16 3.23 3.16 8t-3.16 7.77q-3.17 3-7.84 3-64.74 0-120.08-24-55.35-24-97.72-66.5-42.36-42.5-66.28-98Zm111.44-47.48Q732.95-881.59 732-921q0-4.98 3.31-8.49t8-3.51q4.69 0 8.19 3.51 3.5 3.51 3.5 8.49 0 34 12.5 64t35.5 53q23 23 53 36t64 13q4.67 0 7.84 3.23 3.16 3.23 3.16 8t-3.16 7.77q-3.17 3-7.84 3-39.44 0-73.07-14.94-33.63-14.94-59.39-40.69-25.77-25.75-40.18-59.35ZM480-597Zm0 363Z"/></svg>