<svg xmlns="http://www.w3.org/2000/svg" width="48" height="48" viewBox="0 -960 960 960"><path d="M480-492q-44.55 0-74.77-30Q375-552 375-597.5t30-75q30-29.5 75-29.5t75 29.5q30 29.5 30 75T554.78-522q-30.23 30-74.78 30ZM212-259q0-27 13.5-43.5T263-331q48-23 108-37t109-14q49 0 108.5 14T697-331q24 12 37.5 28.5T748-259v23q0 9.75-7.12 16.87Q733.75-212 724-212H236q-9.75 0-16.87-7.13Q212-226.25 212-236v-23Zm-41.12-529.42q-26.25 26.39-59.68 40.9Q77.77-733 39-733q-4.7 0-7.85-3.21-3.15-3.21-3.15-8t3.15-7.79q3.15-3 7.85-3 35 0 64.5-13.08t52.47-36.32q22.97-22.24 35.5-51.81Q204-885.79 202-921q0-5.07 3.24-8.54 3.24-3.46 8-3.46t8.26 3.46q3.5 3.47 3.5 8.54 0 39.33-14.44 73.26-14.43 33.93-39.68 59.32ZM159.47-636Q103.95-612 39-612q-4.7 0-7.85-3.21-3.15-3.21-3.15-8t3.15-7.79q3.15-3 7.85-3 60.35 0 111.17-22.5Q201-679 240.5-718t62-91Q325-861 325-921q0-5.07 3.24-8.54 3.24-3.46 8-3.46t8.26 3.46q3.5 3.47 3.5 8.54 0 64.07-24 120.03-24 55.97-66.5 98.47T159.47-636Zm476.45-164.5Q612-856 611-921q0-5.07 3.24-8.54 3.24-3.46 8-3.46t8.26 3.46q3.5 3.47 3.5 8.54 0 59.77 22.58 111.67 22.58 51.89 61.66 91.01 39.08 39.12 90.92 61.72T920-634q4.7 0 7.85 3.21 3.15 3.21 3.15 8t-3.15 7.79q-3.15 3-7.85 3-64.74 0-120.08-24-55.35-24-97.72-66.5-42.36-42.5-66.28-98Zm111.4-47.25Q732.88-881.13 732-921q0-5.07 3.24-8.54 3.24-3.46 8-3.46t8.26 3.46q3.5 3.47 3.5 8.54 0 34 12.5 64t35.5 53q23 23 53 36t64 13q4.7 0 7.85 3.21 3.15 3.21 3.15 8t-3.15 7.79q-3.15 3-7.85 3-39.9 0-73.3-14.94t-59.16-40.69q-25.77-25.75-40.22-59.12Z"/></svg>