<svg xmlns="http://www.w3.org/2000/svg" width="48" height="48" viewBox="0 -960 960 960"><path d="M286-413q-11 0-19.5-8.07t-8.5-20q0-11.93 8.5-19.93t19.5-8q11 0 19.5 8.07t8.5 20q0 11.93-8.5 19.93t-19.5 8Zm542-361v471q0 4.675-3.136 7.838-3.137 3.162-7.773 3.162-4.091 0-7.591-2.75T806-303v-471q0-14-9-23t-23-9H268q-5.5 0-8.25-3.324t-2.75-7.312q0-3.989 2.75-7.676Q262.5-828 268-828h506q23 0 38.5 15.5T828-774ZM685-550H524q-5.5 0-8.25-3.324t-2.75-7.312q0-3.989 2.75-7.676Q518.5-572 524-572h161q4.675 0 7.838 3.228 3.162 3.228 3.162 8T692.838-553q-3.163 3-7.838 3ZM244-292l-66 66q-13 13-29.5 6T132-245v-555l-72-72q-3-3.267-3.5-7.633Q56-884 60.5-888q3.5-3 7.5-3.5t8 3.5l752 752q3 3 3.5 7.5t-3.717 8.717Q824-116 820-116t-8-4L641-292H244Zm291-243Zm-249 2q-11 0-19.5-8.07t-8.5-20q0-11.93 8.5-19.93t19.5-8q11 0 19.5 8.07t8.5 20q0 11.93-8.5 19.93t-19.5 8Zm399-137H402q-4.675 0-7.838-3.228-3.162-3.228-3.162-8t3.162-7.772q3.163-3 7.838-3h283q4.675 0 7.838 3.228 3.162 3.228 3.162 8T692.838-673q-3.163 3-7.838 3ZM386-546ZM154-778v546l80-82h384L154-778Z"/></svg>