<svg xmlns="http://www.w3.org/2000/svg" width="48" height="48" viewBox="0 -960 960 960"><path d="M674-305q-4.675 0-7.838-3.228-3.162-3.228-3.162-8t3.162-7.772q3.163-3 7.838-3h120q14 0 23-9.5t9-22.5v-79q0-13-9-22.5t-23-9.5H690q-11.475 0-19.237-7.638Q663-485.275 663-497.495v-130.01q0-12.22 7.763-19.857Q678.525-655 690-655h147q4.675 0 7.838 3.228 3.162 3.228 3.162 8T844.838-636q-3.163 3-7.838 3H685v141h109q22.775 0 38.388 15.612Q848-460.775 848-438v79q0 22.775-15.612 38.388Q816.775-305 794-305H674Zm-106 0H421q-10.5 0-18.75-7.763Q394-320.525 394-332v-106q0-22.775 15.612-38.388Q425.225-492 448-492h77q14 0 23-9t9-23v-77q0-13-9-22.5t-23-9.5H405q-4.675 0-7.838-3.228-3.162-3.228-3.162-8t3.162-7.772q3.163-3 7.838-3h120q22.775 0 38.388 15.612Q579-623.775 579-601v77q0 22.775-15.612 38.388Q547.775-470 525-470h-77q-13 0-22.5 9.5T416-438v111h152q4.675 0 7.838 3.228 3.162 3.228 3.162 8T575.838-308q-3.163 3-7.838 3Zm-268.228 0Q295-305 292-308.228t-3-8q0-4.772 3.228-7.772t8-3q4.772 0 7.772 3.228t3 8q0 4.772-3.228 7.772t-8 3ZM183-633h-70q-4.675 0-7.837-3.228-3.163-3.228-3.163-8t3.163-7.772q3.162-3 7.837-3h64.505q12.22 0 19.858 7.763Q205-639.475 205-628v312q0 4.675-3.228 7.838-3.228 3.162-8 3.162T186-308.162q-3-3.163-3-7.838v-317Z"/></svg>