<svg xmlns="http://www.w3.org/2000/svg" width="48" height="48" viewBox="0 -960 960 960"><path d="m663-469-92 157q-2.33 2.35-5.32 4.18-2.99 1.82-5.37 1.82-7.31 0-10.81-6-3.5-6-.5-12l99-168-84-143q-4-7 0-13t11.31-6q3.38 0 5.87 1.82 2.49 1.83 4.82 4.18l78 133 77-133q1.33-2.35 4.32-4.18 2.99-1.82 6.37-1.82 7.31 0 10.31 6 3 6 0 12l-83 142 98 169q4 7 0 13t-11.4 6q-2.44 0-5.5-1.56T755-312l-92-157ZM397-305H277q-4.7 0-7.85-3.21-3.15-3.21-3.15-8t3.15-7.79q3.15-3 7.85-3h120q14 0 23-9.5t9-22.5v-79q0-13-9-22.5t-23-9.5H277q-4.7 0-7.85-3.15Q266-476.3 266-481v-163q0-4.7 3.15-7.85Q272.3-655 277-655h163q4.7 0 7.85 3.21 3.15 3.21 3.15 8t-3.15 7.79q-3.15 3-7.85 3H288v141h109q23 0 38.5 15.5T451-438v79q0 23-15.5 38.5T397-305Zm-222-3.21q-3-3.21-3-8t3.21-7.79q3.21-3 8-3t7.79 3.21q3 3.21 3 8t-3.21 7.79q-3.21 3-8 3t-7.79-3.21Z"/></svg>