<svg xmlns="http://www.w3.org/2000/svg" width="48" height="48" viewBox="0 -960 960 960"><path d="M440-305H277q-4.675 0-7.838-3.162Q266-311.325 266-316v-122q0-22.775 15.612-38.388Q297.225-492 320-492h77q14 0 23-9t9-23v-77q0-13-9-22.5t-23-9.5H277q-4.675 0-7.838-3.228-3.162-3.228-3.162-8t3.162-7.772q3.163-3 7.838-3h120q22.775 0 38.388 15.612Q451-623.775 451-601v77q0 22.775-15.612 38.388Q419.775-470 397-470h-77q-14 0-23 9.5t-9 22.5v111h152q4.675 0 7.838 3.228 3.162 3.228 3.162 8T447.838-308q-3.163 3-7.838 3Zm223-164-92 157q-2.327 2.353-5.316 4.176-2.99 1.824-5.378 1.824-7.306 0-10.806-6-3.5-6-.5-12l99-168-84-143q-4-7 0-13t11.124-6q3.206 0 5.878 1.823 2.671 1.824 4.998 4.177l78 133 77-133q1.327-2.353 4.169-4.177 2.842-1.823 6.252-1.823Q759-654 762-648q3 6 0 12l-83 142 98 169q4 7 .219 13-3.78 6-11.624 6-2.432 0-5.493-1.588-3.061-1.588-5.102-4.412l-92-157ZM182.772-305Q178-305 175-308.228t-3-8q0-4.772 3.228-7.772t8-3q4.772 0 7.772 3.228t3 8q0 4.772-3.228 7.772t-8 3Z"/></svg>