<svg xmlns="http://www.w3.org/2000/svg" width="48" height="48" viewBox="0 -960 960 960"><path d="M185-633h-60q-4.675 0-7.837-3.228-3.163-3.228-3.163-8t3.163-7.772q3.162-3 7.837-3h71q4.675 0 7.837 3.162Q207-648.675 207-644v328q0 4.675-3.228 7.838-3.228 3.162-8 3.162T188-308.162q-3-3.163-3-7.838v-317Zm556 164-92 157q-2.327 2.353-5.316 4.176-2.99 1.824-5.378 1.824-7.306 0-10.806-6-3.5-6-.5-12l99-168-84-143q-4-7 0-13t11.124-6q3.206 0 5.878 1.823 2.671 1.824 4.998 4.177l78 133 77-133q1.327-2.353 4.169-4.177 2.842-1.823 6.252-1.823Q837-654 840-648q3 6 0 12l-83 142 98 169q4 7 .219 13-3.78 6-11.624 6-2.432 0-5.493-1.588-3.061-1.588-5.102-4.412l-92-157ZM498-305H373q-4.675 0-7.838-3.228-3.162-3.228-3.162-8t3.162-7.772q3.163-3 7.838-3h125q14 0 23-9.5t9-22.5v-79q0-13-9-22.5t-23-9.5H373q-4.675 0-7.838-3.162Q362-476.325 362-481v-163q0-4.675 3.162-7.838Q368.325-655 373-655h168q4.675 0 7.838 3.228 3.162 3.228 3.162 8T548.838-636q-3.163 3-7.838 3H384v141h114q22.775 0 38.388 15.612Q552-460.775 552-438v79q0 22.775-15.612 38.388Q520.775-305 498-305Zm-213.711 0Q280-305 277-308.228t-3-8q0-4.772 3.223-7.772t7.988-3q3.789 0 7.289 3.228 3.5 3.228 3.5 8T292.289-308q-3.71 3-8 3Z"/></svg>