<svg xmlns="http://www.w3.org/2000/svg" width="48" height="48" viewBox="0 -960 960 960"><path d="M226-212q-22.77 0-38.39-15.61Q172-243.23 172-266v-428q0-22.78 15.61-38.39Q203.23-748 226-748h138q4.73 0 7.86 3.19 3.14 3.2 3.14 8 0 4.81-3.14 7.81-3.13 3-7.86 3H226q-12 0-22 10t-10 22v428q0 12 10 22t22 10h138q4.73 0 7.86 3.19 3.14 3.2 3.14 8 0 4.81-3.14 7.81-3.13 3-7.86 3H226Zm243 69v-674q0-4.72 3.19-7.86 3.2-3.14 8-3.14 4.81 0 7.81 3.14t3 7.86v69h243q22.78 0 38.39 15.61T788-694v428q0 22.77-15.61 38.39Q756.78-212 734-212H491v69q0 4.73-3.19 7.86-3.2 3.14-8 3.14-4.81 0-7.81-3.14-3-3.13-3-7.86Zm-275-91v-492 492Z"/></svg>