<svg xmlns="http://www.w3.org/2000/svg" width="48" height="48" viewBox="0 -960 960 960"><path d="M766-172h-81q-4.7 0-7.85-3.21-3.15-3.21-3.15-8t3.15-7.79q3.15-3 7.85-3h81v-81q0-4.7 3.21-7.85 3.21-3.15 8-3.15t7.79 3.15q3 3.15 3 7.85v81h81q4.7 0 7.85 3.21 3.15 3.21 3.15 8t-3.15 7.79q-3.15 3-7.85 3h-81v81q0 4.7-3.21 7.85-3.21 3.15-8 3.15T769-83.15q-3-3.15-3-7.85v-81Zm-540 0q-21.5 0-37.75-16.25T172-226v-508q0-21.5 16.25-37.75T226-788h137q22.5 0 38.25 16.25T417-734v508q0 21.5-15.75 37.75T363-172H226Zm348-9q-14-8-22-19t-8-26v-508q0-21.5 15.75-37.75T598-788h136q21.5 0 37.75 16.25T788-734v349q-5-.5-10-.75t-10-.25q-73.22 0-127.11 48.5T576-216q-2 8-2 17.17V-181Z"/></svg>