<svg xmlns="http://www.w3.org/2000/svg" width="48" height="48" viewBox="0 -960 960 960"><path d="M512-214q-11.45 0-18.725-7.275Q486-228.55 486-240v-152q0-11.45 7.275-18.725Q500.55-418 512-418h92q10.45 0 18.225 7.275Q630-403.45 630-392v152q0 11.45-7.775 18.725Q614.45-214 604-214h-92Zm-2-24h96v-156h-96v156ZM716-96q-11 0-18.5-7.5T690-122v-64q0-12 7.5-19t18.5-7h100v-68H702q-5.4 0-8.7-3.3-3.3-3.3-3.3-8.7 0-5.4 3.3-8.7 3.3-3.3 8.7-3.3h112q11 0 18.5 7.5T840-278v64q0 12-7.5 19t-18.5 7H714v68h114q5.4 0 8.7 3.3 3.3 3.3 3.3 8.7 0 5.4-3.3 8.7-3.3 3.3-8.7 3.3H716Zm-328-37q-111-4-183.5-82.5T132-408q0-53.677 25.5-108.339Q183-571 220.936-621.398q37.936-50.399 81.532-95.196T382-795q3.737-3 8.368-5 4.632-2 9.632-2t10.132 2q5.131 2 8.868 5 31 29 63.151 61.613 32.15 32.614 62 68Q574-630 599.5-592.5 625-555 642-516H442q-21.75 0-37.875 16.125T388-462v329Z"/></svg>