<svg xmlns="http://www.w3.org/2000/svg" width="48" height="48" viewBox="0 96 960 960"><path d="M329 672 148 853q-3 3-7 3t-7.783-3.783Q129 849 129 844.5t4-8.5l180-180q30-30 39.5-69.373Q362 547.254 362 469q0-51.859 22.5-101.429Q407 318 450 275q74-74 161.076-86Q698.151 177 754 232q56 56.452 43.5 143.226T711 536q-42 42-91.5 64T517 622q-75 0-116.5 10T329 672Zm92-109q48 47 129 34.5T696 520q65-65 77.5-145.5T738 248q-46-47-127-34.5T466 291q-65 64-78.5 144T421 563Zm313 401q-43.55 0-73.275-30.225Q631 903.55 631 861q0-43.55 29.725-73.275Q690.45 758 734 758q42.55 0 72.775 29.725Q837 817.45 837 861q0 42.55-30.225 72.775Q776.55 964 734 964Z"/></svg>