<svg xmlns="http://www.w3.org/2000/svg" width="48" height="48" viewBox="0 -960 960 960"><path d="m558-399-81.032 80.129Q469-311 457.773-311q-11.228 0-18.773-8L127-630q-8-9.286-9-18.571-1-9.286 7.353-17.782l84.294-83.294Q218-759 226.5-760q8.5-1 17.5 8l315 315q8 8 7.5 18.5T558-399Zm-100 67 87-87-317-317-87 87 317 317Zm279 207L570-293l16-16 168 167q3 2.556 3.5 7.778.5 5.222-3.5 8.722-4 3.5-8.722 3.5-4.722 0-8.278-3Zm6.182-519Q702-644 673-672.818t-29-70Q644-784 672.818-813t70.5-29Q785-842 813.5-813.182t28.5 70Q842-702 813.632-673t-70.45 29ZM743-666q33 0 55-22.441t22-54.5Q820-775 798-797.5T743.5-820q-32.5 0-55 22.441t-22.5 54.5Q666-711 688.458-688.5 710.917-666 743-666Zm0-77ZM343-534Z"/></svg>