<svg xmlns="http://www.w3.org/2000/svg" width="48" height="48" viewBox="0 -960 960 960"><path d="M516-434q-75 0-116.5 10T328-384L148-204q-3 3-7.5 3.5T132-204q-4-4-4-8t4-8l180-180q30-30 39.5-69.5T361-587q0-52 22.5-101.5T449-781q74-74 160.5-86T753-824q56 56 43.5 143T710-520q-42 42-91.5 64T516-434Zm-96-59q48 48 129 35t146-78q65-65 77-145t-35-127q-47-46-127-33.5T465-765q-64 64-78 144t33 128Zm239.5 371Q630-152 630-195.5t29.5-73q29.5-29.5 73-29.5t73.5 29.5q30 29.5 30 73T806-122q-30 30-73.5 30t-73-30Zm131-15.5Q814-161 814-195t-23.5-57.5Q767-276 733-276t-57.5 23.5Q652-229 652-195t23.5 57.5Q699-114 733-114t57.5-23.5ZM733-195Z"/></svg>