<svg xmlns="http://www.w3.org/2000/svg" width="48" height="48"><path d="M22 39.05q-1 0-1.975-.375-.975-.375-1.675-1.125l-8.85-9.2 1.7-1.75q.45-.45 1.1-.5.65-.05 1.25.25l4.4 2.3V14.5q0-1 .775-1.75T20.5 12q.35 0 .725.1t.675.25v-.7q0-1.15.8-1.925.8-.775 1.8-.775.85 0 1.5.525t.95 1.175q.2-.2.65-.35.45-.15.9-.15 1 0 1.775.75.775.75.775 1.8v1.5q.35-.2.7-.3.35-.1.75-.1 1 0 1.775.775.775.775.775 1.775V35q0 1.65-1.175 2.85-1.175 1.2-2.875 1.2zm0-1.1h9q1.25 0 2.1-.85.85-.85.85-2.1V16.35q0-.6-.425-1.025Q33.1 14.9 32.5 14.9q-.6 0-1.025.425-.425.425-.425 1.025v6.7h-1.1V12.7q0-.6-.425-1.025-.425-.425-1.025-.425-.6 0-1.025.425-.425.425-.425 1.025v10.35h-1.1V11.5q0-.6-.425-1.025-.425-.425-1.025-.425-.6 0-1.025.425-.425.425-.425 1.025v11.55h-1.1V14.5q0-.6-.425-1.025-.425-.425-1.025-.425-.6 0-1.025.425-.425.425-.425 1.025v15.95l-6.65-3.5-1.35 1.45 8.1 8.35q.6.6 1.325.9.725.3 1.525.3zM5.65 40.6q-.15.15-.375.1-.225-.05-.375-.25l-4-5.35q-.1-.2-.1-.375t.1-.375l3.75-5-3.75-5q-.1-.2-.1-.35 0-.15.1-.35l3.75-5.05L.9 13.65q-.1-.2-.1-.375t.1-.375l4-5.4q.15-.1.375-.175.225-.075.375.075.2.15.225.35.025.2-.075.4l-3.75 5.1L5.8 18.3q.1.2.1.375t-.1.375L2.05 24l3.75 5q.1.2.1.375t-.1.375l-3.75 5 3.75 5.1q.1.2.075.4-.025.2-.225.35zm34.7.05q-.2-.15-.225-.35-.025-.2.075-.4l3.75-5.15-3.75-5q-.1-.2-.1-.375t.1-.375l3.75-5-3.75-5q-.1-.2-.1-.375t.1-.375l3.75-5.05-3.75-5.05q-.1-.2-.075-.4.025-.2.225-.35.15-.15.375-.1.225.05.375.2l4 5.4q.1.2.1.375t-.1.375l-3.75 5 3.75 5q.1.2.1.35 0 .15-.1.35l-3.75 5.05 3.75 5q.1.2.1.375t-.1.375l-4 5.35q-.15.2-.375.25-.225.05-.375-.1z"/></svg>