<svg xmlns="http://www.w3.org/2000/svg" width="48" height="48" viewBox="0 96 960 960"><path d="M791 784 550 543l29-32q1-1 5-10 0-3-1.5-5.5T579 491l-17-17q-7-7-16-3t-9 13v6h-40L300 294h472q23 0 38.5 15.5T826 348v389q0 14-8 28t-27 19Zm62 200L724 854H91q-5 0-8-3t-3-8q0-4 3-7.5t8-3.5h611l-42-41H188q-23 0-38.5-15.5T134 737V350q0-17 9.5-31.5T166 296l-93-92q-3-3-3.5-7.5T73 188q4-4 8-4t8 4l780 780q3 3 3.5 7.5T869 984q-4 4-8 4t-8-4ZM375 666q5 0 8-3t3-8v-81q0-13 4-23t12-20l-12-12q-10 10-18 26.5t-8 37.5v72q0 5 3 8t8 3Z"/></svg>