<svg xmlns="http://www.w3.org/2000/svg" width="48" height="48" viewBox="0 -960 960 960"><path d="M307-733q27-14 57.5-20.5T429-760q34 0 66 6.5t67 19.5L425-573 302-697q-4-4-6-8.433-2-4.434-2-8.867 0-5.7 3-10.7 3-5 10-8Zm263.664 567q-18.289 0-30.976-13.024Q527-192.048 527-210.336q0-18.289 13.024-30.976Q553.048-254 571.336-254q18.289 0 30.976 13.024Q615-227.952 615-209.664q0 18.289-13.024 30.976Q588.952-166 570.664-166Zm-281.341 0Q272-166 259-179.024t-13-31.312q0-18.289 13.289-30.976Q272.579-254 290.177-254 309-254 321.5-240.976t12.5 31.312q0 18.289-12.677 30.976-12.677 12.688-32 12.688ZM292-300q-8.851 0-12.426-8Q276-316 282-323l342-401q16-19 35.5-28.5T701-762q29 0 48.5 19.5T769-694q0 4.675-3.228 7.838-3.228 3.162-8 3.162T750-686.162q-3-3.163-3-7.838 0-19.074-13.463-32.537Q720.074-740 701-740q-17.393 0-32.196 7.5Q654-725 641-710l-63 74v281.688q0 22.062-16.235 38.187Q545.531-300 524.052-300H292Z"/></svg>