<svg xmlns="http://www.w3.org/2000/svg" width="48" height="48" viewBox="0 -960 960 960"><path d="M186-132q-22.775 0-38.387-15.613Q132-163.225 132-186v-348q0-22.775 15.613-38.388Q163.225-588 186-588h588q22.775 0 38.388 15.612Q828-556.775 828-534v348q0 22.775-15.612 38.387Q796.775-132 774-132H186Zm263-134 124-84q6-4 6-9.75T573-371l-124-83q-7-5-14-1t-7 12v166q0 8.609 7 12.304Q442-261 449-266ZM194-674q-4.975 0-7.988-3.018-3.012-3.017-3.012-8 0-4.982 3.012-7.982 3.013-3 7.988-3h572q4.975 0 7.987 3.018 3.013 3.017 3.013 8 0 4.982-3.013 7.982-3.012 3-7.987 3H194Zm123-108q-4.975 0-7.987-3.018-3.013-3.017-3.013-8 0-4.982 3.013-7.982 3.012-3 7.987-3h326q4.975 0 7.987 3.018 3.013 3.017 3.013 8 0 4.982-3.013 7.982-3.012 3-7.987 3H317Z"/></svg>