<svg xmlns="http://www.w3.org/2000/svg" width="48" height="48" viewBox="0 -960 960 960"><path d="M154-132q-9 0-15.5-6.5T132-154v-454q0-66 36-116.5t98-76.5q47-18 104.5-22.5T480-828q52 0 109.5 4.5T694-801q63 26 98.5 76.5T828-608v454q0 9-6.5 15.5T806-132H154Zm142-292h369v-177H296v177Zm302 116q13 0 21.5-8.5T628-338q0-13-8.5-21.5T598-368q-13 0-21.5 8.5T568-338q0 13 8.5 21.5T598-308Zm-236 0q13 0 21.5-8.5T392-338q0-13-8.5-21.5T362-368q-13 0-21.5 8.5T332-338q0 13 8.5 21.5T362-308Zm-27 154 10-5 62-69h146l63 70q1 1 11 4 2 0 9-2 5-3 5.5-10t-3.5-12l-47-52q46-4 71.5-33t25.5-77v-261q0-49-55.5-69T480-690q-95 0-151.5 20T272-601v261q0 50 27 79t70 31l-46 52q-4 5-3.5 12t6.5 10q1 0 9 2Z"/></svg>