<svg xmlns="http://www.w3.org/2000/svg" width="48" height="48" viewBox="0 96 960 960"><path d="M123 358q-11.725 0-19.363-7.638Q96 342.725 96 331V206q0-4.833 3.75-8.917 3.749-4.083 9.366-4.083 5.184 0 8.534 4.083Q121 201.167 121 206v108q75-76 170-119t189-43q141 0 237.579 57.037Q814.159 266.075 850 339q3 7 .027 12.5T839 357q-3 0-7-2t-6-6q-31.776-59.944-119.888-115.972Q618 177 479.812 177 385 177 302 218q-83 41-166 115h113q5.133 0 8.567 4.116 3.433 4.117 3.433 9.21 0 5.093-3.433 8.383Q254.133 358 249 358H123Zm299 606q-6 0-11.5-2.5T400 954L248 804q-5-5-6.5-15t3.5-17q5-8 13.5-11.5T276 759l136 27V396q0-20 14-34t34-14q20 0 34 14t14 34v212h42q4 0 7.5 1t6.5 3l122 60q29 14 41.5 45.5T734 782l-28 160q-2 10-9.5 16t-18.5 6H422Zm-2-22h262.714L713 773q3-21-3.5-44T681 695l-129-65h-66V396q0-11.7-7.207-18.85-7.207-7.15-19-7.15T441 377.15q-7 7.15-7 18.85v416l-165-33-7 7 158 156Zm0 0h259-259Z"/></svg>