<svg xmlns="http://www.w3.org/2000/svg" width="48" height="48" viewBox="0 96 960 960"><path d="M256 620q-5 4-10.5 3.5T236 618q-39-59-60-123.5T155 356q0-42 2.5-80.5T165 208l-78 79q-3 4-9 4t-9-4q-3-3-3.5-8t3.5-9l90-90q4-4 8.5-6t10.5-2q5 0 10 2t9 6l90 90q3 4 3 9t-3 8q-4 4-9.5 4t-8.5-4l-79-80q-6 30-8 69t-2 80q0 68 20.5 131T256 603q3 4 2.5 9t-2.5 8Zm353 301-200-76q-7-2-12-10.5t-4-17.5q2-9 8-15.5t15-8.5l136-31-159-356q-8-19-1.5-37t25.5-26q19-9 37.5-2t26.5 26l86 194 38-17q4-2 7.5-2h7.5l136 5q33 1 56.5 25t31.5 56l40 157q2 10-2.5 18.5T867 817L633 921q-5 2-11.5 2t-12.5-2Zm13-20 241-107-42-166q-5-21-20.5-38.5T760 570l-144-7-60 27-96-214q-5-10-14-14.5t-19 .5q-11 5-14.5 15t1.5 20l168 380-164 37-3 9 207 78Zm0 0Z"/></svg>