<svg xmlns="http://www.w3.org/2000/svg" width="48" height="48" viewBox="0 -960 960 960"><path d="M584-309q11.725 0 19.362-7.638Q611-324.275 611-336v-288q0-11.725-7.638-19.362Q595.725-651 584-651H376q-11.725 0-19.362 7.638Q349-635.725 349-624v288q0 11.725 7.638 19.362Q364.275-309 376-309h208Zm-213-22v-298h218v298H371ZM226-172q-22.775 0-38.387-15.613Q172-203.225 172-226v-508q0-22.775 15.613-38.388Q203.225-788 226-788h508q22.775 0 38.388 15.612Q788-756.775 788-734v508q0 22.775-15.612 38.387Q756.775-172 734-172H226Zm0-22h508q12 0 22-10t10-22v-508q0-12-10-22t-22-10H226q-12 0-22 10t-10 22v508q0 12 10 22t22 10Zm-32-572v572-572Zm286.193 273q11.807 0 19.307-7.693 7.5-7.693 7.5-19.5t-7.693-19.307q-7.693-7.5-19.5-7.5t-19.307 7.693q-7.5 7.693-7.5 19.5t7.693 19.307q7.693 7.5 19.5 7.5Z"/></svg>