<svg xmlns="http://www.w3.org/2000/svg" width="48" height="48" viewBox="0 96 960 960"><path d="M554 572q39.417 0 66.208-26.912Q647 518.176 647 478.588T620.208 412Q593.417 385 554 385t-66.208 27.083Q461 439.167 461 479q0 39.417 26.792 66.208Q514.583 572 554 572ZM334 776q-22.775 0-38.388-15.612Q280 744.775 280 722V282q0-22.775 15.612-38.388Q311.225 228 334 228h440q22.775 0 38.388 15.612Q828 259.225 828 282v440q0 22.775-15.612 38.388Q796.775 776 774 776H334ZM186 924q-22.775 0-38.387-15.612Q132 892.775 132 870V402q0-4.975 3.018-7.987 3.017-3.013 8-3.013 4.982 0 7.982 3.013 3 3.012 3 7.987v468q0 14 9 23t23 9h468q4.975 0 7.987 3.018 3.013 3.017 3.013 8 0 4.982-3.013 7.982-3.012 3-7.987 3H186Zm146-170h444q-51-54-108.5-76T554 656q-56 0-113.5 22T332 754Z"/></svg>