<svg xmlns="http://www.w3.org/2000/svg" width="48" height="48" viewBox="0 -960 960 960"><path d="M703-611v-55q0-37 22-59.5t60-22.5q37 0 59 22.5t22 59.5v55H703Zm-609 0v-55q0-37 22-59.5t60-22.5q37 0 59 22.5t22 59.5v55H94Zm54 437q-21.5 0-37.75-16.25T94-228v-358h163v412H148Zm134 0v-400q0-10.852 5.121-21.721Q292.241-606.59 301-614l144-124q7.027-6.632 16.125-10.316Q470.222-752 480.111-752q9.889 0 18.875 3.684Q507.973-744.632 515-738l144 124q8.759 7.41 13.879 18.279Q678-584.852 678-574v400H544v-146q0-29-17.5-46.5T480-384q-29 0-46.5 17.5T416-320v146H282Zm421 0v-412h163v358q0 21.5-16.25 37.75T812-174H703ZM480.294-522Q496-522 507.5-533.294t11.5-27Q519-576 507.206-587.5t-27.5-11.5Q464-599 453-587.206t-11 27.5Q442-544 453.294-533t27 11Z"/></svg>