<svg xmlns="http://www.w3.org/2000/svg" width="48" height="48" viewBox="0 -960 960 960"><path d="M306-92q-22.775 0-38.388-15.613Q252-123.225 252-146v-668q0-22.775 15.612-38.388Q283.225-868 306-868h348q22.775 0 38.388 15.612Q708-836.775 708-814v668q0 22.775-15.612 38.387Q676.775-92 654-92H306Zm-32-85v31q0 12 10 22t22 10h348q12 0 22-10t10-22v-31H274Zm0-22h412v-562H274v562Zm195-199v-191q0-4.725 3.193-7.862 3.193-3.138 8-3.138t7.807 3.138q3 3.137 3 7.862v191l88-88q3-3 7.6-3.5t7.443 3.065Q598-482 598-478q0 4-4 8l-95 96q-8.182 8-19.091 8T461-374l-96-96q-3-3-3-7.5t4-8.5q4-4 8-4t8 4l87 88ZM274-783h412v-31q0-12-10-22t-22-10H306q-12 0-22 10t-10 22v31Zm0 0v-63 63Zm0 606v63-63Z"/></svg>