<svg xmlns="http://www.w3.org/2000/svg" width="48" height="48" viewBox="0 -960 960 960"><path d="M840-185H644q-4.925 0-7.963-3.053-3.037-3.052-3.037-8 0-4.947 3.037-7.947 3.038-3 7.963-3h196l-83-86q-3-3-3-7.3t3-7.874q2.667-2.826 7.333-2.826 4.667 0 7.667 3l92 93q8 8.182 8 19.091T864-177l-93 93q-3 3-7.5 2.5t-7.674-3.674Q753-88 753-92q0-4 3-7l84-86ZM469-469v152q0 4.925 3.053 7.963 3.052 3.037 8 3.037 4.947 0 7.947-3.037 3-3.038 3-7.963v-152h152q4.925 0 7.963-3.053 3.037-3.052 3.037-8 0-4.947-3.037-7.947-3.038-3-7.963-3H491v-152q0-4.925-3.053-7.963-3.052-3.037-8-3.037-4.947 0-7.947 3.037-3 3.038-3 7.963v152H317q-4.925 0-7.963 3.053-3.037 3.052-3.037 8 0 4.947 3.037 7.947 3.038 3 7.963 3h152ZM226-172q-22.775 0-38.387-15.613Q172-203.225 172-226v-508q0-22.775 15.613-38.388Q203.225-788 226-788h508q22.775 0 38.388 15.612Q788-756.775 788-734v301q0 10-7 17t-17 6q-43.896 0-82.948 17Q642-376 613-346q-29 30-45.5 67.5T550-197q0 10.13-6.319 17.565Q537.361-172 527-172H226Z"/></svg>