<svg xmlns="http://www.w3.org/2000/svg" width="48" height="48" viewBox="0 0 48 48"><path d="M9 38.8q-.45 0-.775-.325T7.9 37.7H9Zm-1.1-5.2v-4.05H9v4.05Zm0-8.2v-4.05H9v4.05Zm0-8.15V13.2H9v4.05Zm0-8.15q0-.45.325-.775T9 8v1.1Zm5.2 29.7v-1.1h4.05v1.1Zm8.2 0v-1.1h4.05v1.1Zm8.15 0v-1.1h4.05v1.1Zm8.15 0v-1.1h1.1q0 .45-.325.775t-.775.325ZM15.4 34q-1.15 0-1.925-.775-.775-.775-.775-1.925v-22q0-1.15.775-1.925Q14.25 6.6 15.4 6.6h22q1.15 0 1.925.775.775.775.775 1.925v22q0 1.15-.775 1.925Q38.55 34 37.4 34Zm0-1.1h22q.6 0 1.1-.5.5-.5.5-1.1V13.5H28.05q-.6 0-.975-.375t-.375-.975V7.7H15.4q-.6 0-1.1.5-.5.5-.5 1.1v22q0 .6.5 1.1.5.5 1.1.5ZM13.8 7.7v25.2V7.7Z"/></svg>