<svg xmlns="http://www.w3.org/2000/svg" width="48" height="48" viewBox="0 96 960 960"><path d="M602 844v-22h81v22h-81ZM317 330v-22h81v22h-81Zm217 164q-21.75 0-37.875-15.737Q480 462.525 480 440V308h294q22.775 0 38.388 15.612Q828 339.225 828 362v132H534Zm231 350v-22h9q15 0 23.5-8.5T806 790v-50h22v50q0 22.775-15.612 38.388Q796.775 844 774 844h-9Zm-326 0v-22h81v22h-81Zm367-186v-81h22v81h-22Zm-674 41v-81h22v81h-22Zm0-164v-81h22v81h-22Zm54 309q-22.775 0-38.387-15.612Q132 812.775 132 790v-8h22v8q0 12 10 22t22 10h8v22h-8Zm-54-473v-9q0-22.775 15.613-38.388Q163.225 308 186 308h49v22h-49q-15 0-23.5 8.5T154 362v9h-22Zm144 473v-22h81v22h-81Z"/></svg>