<svg xmlns="http://www.w3.org/2000/svg" width="48" height="48" viewBox="0 -960 960 960"><path d="M674-194.81q0 4.81-3.14 7.81t-7.86 3H553q-4.72 0-7.86-3.19-3.14-3.2-3.14-8 0-4.81 3.14-7.81t7.86-3h110q4.72 0 7.86 3.19 3.14 3.2 3.14 8Zm-178 0q0 4.81-3.14 7.81-3.13 3-7.86 3H365q-4.73 0-7.86-3.19-3.14-3.2-3.14-8 0-4.81 3.14-7.81 3.13-3 7.86-3h120q4.73 0 7.86 3.19 3.14 3.2 3.14 8ZM169.19-700q4.81 0 7.81 3.14t3 7.86v110q0 4.72-3.19 7.86-3.2 3.14-8 3.14-4.81 0-7.81-3.14t-3-7.86v-110q0-4.72 3.19-7.86 3.2-3.14 8-3.14Zm0 178q4.81 0 7.81 3.14t3 7.86v120q0 4.73-3.19 7.86-3.2 3.14-8 3.14-4.81 0-7.81-3.14-3-3.13-3-7.86v-120q0-4.72 3.19-7.86 3.2-3.14 8-3.14ZM212-184q-22.77 0-38.39-15.61Q158-215.23 158-238v-85q0-4.73 3.19-7.86 3.2-3.14 8-3.14 4.81 0 7.81 3.14 3 3.13 3 7.86v85q0 12 10 22t22 10h85q4.73 0 7.86 3.19 3.14 3.2 3.14 8 0 4.81-3.14 7.81-3.13 3-7.86 3h-85Zm96-96q-22.77 0-38.39-15.61Q254-311.23 254-334v-440q0-22.78 15.61-38.39Q285.23-828 308-828h440q22.78 0 38.39 15.61T802-774v440q0 22.77-15.61 38.39Q770.78-280 748-280H308Zm0-22h440q12 0 22-10t10-22v-440q0-12-10-22t-22-10H308q-12 0-22 10t-10 22v440q0 12 10 22t22 10Zm-32-504v504-504Zm176 343 76-76 77 77q3 3 7.5 2.5t7.5-3.5q3-3 3-7.5t-3-7.5l-77-76 77-77q3-3 3-7.5t-3-7.5q-3-3-7.5-3t-7.5 3l-77 77-77-77q-3-3-7-3t-7 3q-3 3-3 7.5t3 7.5l76 77-77 77q-3 3-2.5 7t3.5 7q3 3 7.5 3t7.5-3Z"/></svg>