<svg xmlns="http://www.w3.org/2000/svg" width="48" height="48" viewBox="0 -960 960 960"><path d="M226-172q-22.77 0-38.39-15.61Q172-203.23 172-226v-508q0-22.78 15.61-38.39Q203.23-788 226-788h508q22.78 0 38.39 15.61T788-734v313q-5.25-3.17-11.25-5.17T766-431v-187H491v206q-6 5-13.5 9.5T463-394H194v168q0 14 9 23t23 9h118q5 6 10 11.5t10 10.5H226Zm-32-244h275v-202H194v202Zm0-224h572v-94q0-14-9-23t-23-9H226q-14 0-23 9t-9 23v94Zm286 160Zm0 0Zm0 0Zm0 0Zm170.25 370Q584-110 527-144t-94-89q37-55 94-89t123.5-34q66.5 0 123 34t94.5 89.5q-37 55.5-94.25 89T650.25-110Zm.25-22q56.5 0 106-28t84.5-73q-35-45-84.26-73-49.27-28-106.74-28-56 0-106 28t-84 73q34 45 84 73t106.5 28Zm-.12-70Q637-202 628-211.18q-9-9.17-9-22 0-12.82 9.16-21.82t21.96-9q13.88 0 22.38 9.18 8.5 9.17 8.5 22 0 12.82-8.62 21.82t-22 9Z"/></svg>