<svg xmlns="http://www.w3.org/2000/svg" width="48" height="48" viewBox="0 -960 960 960"><path d="M226-92q-21.75 0-37.875-16.125T172-146v-668q0-21.75 16.125-37.875T226-868h508q21.75 0 37.875 16.125T788-814v668q0 21.75-16.125 37.875T734-92H226Zm-32-157v103q0 14 9 23t23 9h508q14 0 23-9t9-23v-103H194Zm230.73 81h110.378q5.892 0 9.892-3.5 4-3.5 4-10.5 0-6-3.925-10t-9.825-4h-110.5q-5.9 0-9.825 4Q411-188 411-182q0 7 3.919 10.5t9.811 3.5ZM194-271h572v-490H194v490Zm0-512h572v-31q0-14-9-23t-23-9H226q-14 0-23 9t-9 23v31Zm0 0v-63 63Zm0 534v135-135Z"/></svg>