<svg xmlns="http://www.w3.org/2000/svg" width="48" height="48" viewBox="0 96 960 960"><path d="M274 273h412v-31q0-14-9-23t-23-9H306q-14 0-23 9t-9 23v31Zm354 691v-22h26q14 0 23-9t9-23V295H274v293h-22V242q0-22.775 15.612-38.388Q283.225 188 306 188h348q22.775 0 38.388 15.612Q708 219.225 708 242v668q0 22.775-15.612 38.388Q676.775 964 654 964h-26Zm-376 0v-58q24 0 41 17t17 41h-58Zm162 0q-3.5 0-6.75-3t-3.25-8q-5-57-44.5-96.5T263 812q-5 0-8-3.153-3-3.152-3-8.022 0-4.004 3.346-6.915Q258.692 791 263 791q66 5 111.5 50.5T425 953q0 4.308-2.91 7.654Q419.179 964 414 964Zm115.963 0q-4.163 0-7.063-3-2.9-3-2.9-8-4-105-78-179t-179-78q-5 0-8-3.193t-3-8q0-4.807 3.1-7.307t7.9-3.5q114 5 194 85t85 194q-1 4.8-4.069 7.9-3.07 3.1-7.968 3.1ZM274 210v63-63Z"/></svg>