<svg xmlns="http://www.w3.org/2000/svg" width="48" height="48" viewBox="0 96 960 960"><path d="M810 461q9 27 13.5 56t4.5 59q0 72-27 135.5t-74.5 111Q679 870 615.5 897T480 924q-72 0-135.5-27t-111-74.5Q186 775 159 711.5T132 576q0-72 27-135.5t74.5-111Q281 282 344.5 255T480 228q61 0 114.5 18.5T693 298q3 3 3.5 7.5T693 314q-3 3-8.5 2.5T675 313q-41-30-90.5-46.5T480 250q-136 0-231 95t-95 231q0 136 95 231t231 95q136 0 231-95t95-231q0-28-4-54t-12-51q-1-2-1-6t2-6q5-6 10.5-5.5t8.5 7.5ZM402 704 296 598q-3-3-2.5-8t3.5-8q4-4 8.5-4t8.5 4l107 108 383-383q3-3 7.5-2.5t8.5 3.5q4 4 4 8.5t-4 8.5L440 704q-8 9-19 9t-19-9Z"/></svg>