<svg xmlns="http://www.w3.org/2000/svg" width="48" height="48" viewBox="0 -960 960 960"><path d="M528.426-649q-6.026 0-10.226-4.2-4.2-4.2-4.2-10.226v-27.255q0-18.734 12.303-30.526Q538.606-733 556.149-733h28.319q5.532 0 9.532 3.845t4 9.397v28.523q0 17.65-11.793 29.942Q574.415-649 555.681-649h-27.255ZM308-461q-33.714 0-57.857-24.143T226-543v-55q0-11.725 7.637-19.362Q241.275-625 253-625h55q33.714 0 57.857 24.143T390-543v55q0 11.725-7.638 19.362Q374.725-461 363-461h-55Zm332 319q-35.842 0-68.108-12.533Q539.626-167.067 514-189l-66 67q-3 3-7.5 3t-8.5-3q-3-4-3-8.5t3-7.5l67-66q-21.933-25.626-34.467-57.892Q452-294.158 452-330q0-78 55-133t133-55h163q9.75 0 16.875 7.125T827-494v164q0 78-54.5 133T640-142Zm0-22q69.528 0 117.264-48.762Q805-261.525 805-330v-166H640.427q-69.089 0-117.758 47.812Q474-400.375 474-330q0 31.469 11 59.234Q496-243 515-220l117-118q4-4 8-4t8 4q4 4 4 8t-4 8L530-205q23 19 50.766 30 27.765 11 59.234 11Zm1-167Z"/></svg>