<svg xmlns="http://www.w3.org/2000/svg" width="48" height="48" viewBox="0 -960 960 960"><path d="M158-374 99-233q-1 3-4.056 5-3.055 2-5.998 2-5.946 0-9.446-5t-.5-10l207-489q0-1 1.868-2.5 1.869-1.5 2.812-1.5h6.085q2.446 0 3.84 1.5Q302-731 302-730l206 486q2 6.3-1.214 12.15Q503.571-226 497-226q-4 0-7.741-2.3-3.742-2.3-4.259-5.7l-58-140H158Zm8-21h252L295.674-691H290L166-395Zm577-74H631q-4.675 0-7.838-3.228-3.162-3.228-3.162-8t3.162-7.772q3.163-3 7.838-3h112v-112q0-4.675 3.228-7.838 3.228-3.162 8-3.162t7.772 3.162q3 3.163 3 7.838v112h112q4.675 0 7.838 3.228 3.162 3.228 3.162 8T884.838-472q-3.163 3-7.838 3H765v112q0 4.675-3.228 7.838-3.228 3.162-8 3.162T746-349.162q-3-3.163-3-7.838v-112Z"/></svg>