<svg xmlns="http://www.w3.org/2000/svg" width="48" height="48" viewBox="0 -960 960 960"><path d="M439-766v-22h81v22h-81Zm0 594v-22h81v22h-81ZM276-766v-22h81v22h-81Zm0 594v-22h81v22h-81ZM172-613v-81h22v81h-22Zm0 174v-81h22v81h-22Zm0 173v-81h22v81h-22Zm442 94q-4.675 0-7.838-3.228-3.162-3.228-3.162-8t3.162-7.772q3.163-3 7.838-3h70v-572h-70q-4.675 0-7.838-3.228-3.162-3.228-3.162-8t3.162-7.772q3.163-3 7.838-3h163q4.675 0 7.838 3.228 3.162 3.228 3.162 8T784.838-769q-3.163 3-7.838 3h-71v572h71q4.675 0 7.838 3.228 3.162 3.228 3.162 8T784.838-175q-3.163 3-7.838 3H614Zm-420 0q-8.325 0-15.163-6.837Q172-185.675 172-194h22v22Zm-22-594q0-8.325 6.837-15.162Q185.675-788 194-788v22h-22Z"/></svg>