<svg xmlns="http://www.w3.org/2000/svg" width="48" height="48" viewBox="0 -960 960 960"><path d="M449.924-80q-22.959-54-30.442-110.5Q412-247 412.5-294.5T417-376q4-34 4-44 0-6-1.5-11t-8.5-6q-2.458-.178-28.052-4.011t-64.771-15.911Q279-469 232.5-491 186-513 142-549.929L331-797l267 122q50.546 23 80.273 69Q708-560 708-503v423H449.924ZM548-213q7.5 0 13.167-4 5.666-4 8.833-10 3 6 9 10t14 4q9.75 0 17.375-7.5t7.625-18q0-10.5-7.625-17.5T593-263h-12v-195h12q9.75 0 17.375-7.5t7.625-18q0-10.5-7.625-17.5T593-508q-8 0-14.222 3.5-6.222 3.5-8.889 9.5-2.889-6-8.609-9.5-5.72-3.5-13.28-3.5-10 0-17.5 7.125T523-483q0 10 7.5 17.5T548-458h11v195h-11q-10 0-17.5 7.125T523-238q0 10 7.5 17.5T548-213Z"/></svg>