<svg xmlns="http://www.w3.org/2000/svg" width="48" height="48" viewBox="0 96 960 960"><path d="M412 442 312 342q-9-9-14.5-21t-5.5-26q0-28.151 19.017-47.576Q330.034 228 358 228h244q27.034 0 45.517 19.706Q666 267.412 666 295q0 13.674-5.542 26.494Q654.917 334.314 645 344l-97 97v264.804L647 806q9.714 9.6 14.857 22.024Q667 840.447 667 854q0 29.083-20.05 49.041Q626.9 923 598.68 923q-13.233 0-25.656-5.143Q560.6 912.714 551 903q-14-14-32.5-21.5T480 874q-20 0-38.5 7.5T409 903q-9.75 9.714-22.368 14.857Q374.015 923 360.25 923q-29.25 0-48.75-20T291 854q0-14 5-26t15-22l101-99.056V442Zm22 5v256q0 6.683-2.667 12.949Q428.667 722.214 424 727l-96 95q-7 7-10.5 15.625T314 855.45q0 19.55 13.337 33.05 13.336 13.5 33.364 13.5 9.424 0 17.861-3.5Q387 895 394 888q17.017-16.895 39.595-25.947Q456.172 853 480.086 853q23.914 0 45.984 8.816Q548.141 870.632 566 888q7 7 15.625 10.5t17.825 3.5q19.55 0 33.05-13.75Q646 874.5 646 855.29q0-9.04-3.5-17.665T632 822l-96-95q-4.5-5-7.25-11.045Q526 709.909 526 703V447q0-5.826 2.5-12.413Q531 428 535 423l95-96q7-7 10.5-15.462 3.5-8.461 3.5-17.487Q644 276 631.289 263q-12.71-13-30.289-13H358q-18.842 0-31.921 13T313 294.947q0 9.474 4 17.764Q321 321 327 327l97 96q5 4.286 7.5 10.714Q434 440.143 434 447Zm46 129Z"/></svg>