<svg xmlns="http://www.w3.org/2000/svg" width="48" height="48" viewBox="0 96 960 960"><path d="M204 756q-6 0-9.5-4t-3.5-9V428l-66 47q-4 3-9.5 2t-8.5-5q-2-3-1-7.5t4-6.5l80-59q3-3 8-3.5t10 1.5q5 1 7 6t2 10v330q0 5-4 9t-9 4Zm241 4q-72 0-105-56.5T307 576q0-71 33-127.5T445 392q72 0 105.5 56.5T584 576q0 72-33.5 128T445 760Zm0-23q63 0 87.5-52T557 576q0-57-25-109t-87-52q-63 0-87.5 52.5T333 576q0 57 24.5 109t87.5 52Zm311 23q-27 0-49.5-10.5T666 716q-3-4-2.5-9.5t5.5-8.5q4-2 8-1.5t6 4.5q13 18 31 27t42 9q26 0 47-12t21-38q0-29-16.5-38.5T757 632q-45-9-66-25t-21-51q0-34 24.5-53t61.5-19q25 0 45 8t34 25q3 4 2.5 9t-5.5 8q-5 2-10 1.5t-8-4.5q-11-12-26-18.5t-33-6.5q-27 0-44 12.5T694 554q0 24 17 34t61 19q34 6 55 25t21 54q0 37-29 55.5T756 760Z"/></svg>