<svg xmlns="http://www.w3.org/2000/svg" width="48" height="48" viewBox="0 -960 960 960"><path d="M480-254q94.167 0 160.083-65.917Q706-385.833 706-480q0-78-46-138.5T539-697q-13-3-23 5t-10 21v201L365-326q-10 9-8 21.5t12 19.5q26 15 53.755 23 27.754 8 57.245 8Zm.174 122Q408-132 344.942-159.391q-63.059-27.392-110.575-74.848-47.515-47.457-74.941-110.435Q132-407.652 132-479.826q0-72.174 27.391-135.732 27.392-63.559 74.848-110.574 47.457-47.016 110.435-74.442Q407.652-828 479.826-828q72.174 0 135.732 27.391 63.559 27.392 110.574 74.348 47.016 46.957 74.442 110.435Q828-552.348 828-480.174q0 72.174-27.391 135.232-27.392 63.059-74.348 110.575-46.957 47.515-110.435 74.941Q552.348-132 480.174-132ZM480-154q136 0 231-95t95-231q0-136-95-231t-231-95q-136 0-231 95t-95 231q0 136 95 231t231 95Zm0-326Z"/></svg>