<svg xmlns="http://www.w3.org/2000/svg" width="48" height="48" viewBox="0 96 960 960"><path d="M757 750 492 485v-39q0-5-3-8t-8-3q-6 0-10.5 4.5T468 452v9L347 340q30-17 65-24.5t69-7.5q58 0 111.5 21t97.5 61l31-32q3-3 7-2.5t8 3.5q4 4 4 8t-4 8l-31 31q42 44 63 98.5T789 616q0 34-8 69.5T757 750ZM481 924q-64 0-120-24.5t-98-66q-42-41.5-66-98T173 616q0-62 23-118.5T265 395L129 259q-4-3-3.5-7.5t4.5-8.5q3-3 7.5-3t8.5 3l669 670q3 3 3 7t-4 8q-4 4-8 4t-8-4l-97-96q-40 43-98 67.5T481 924Zm-89-740q-5 0-8-3t-3-8q0-5 3-8t8-3h178q5 0 8 3t3 8q0 5-3 8t-8 3H392Z"/></svg>