<svg xmlns="http://www.w3.org/2000/svg" width="48" height="48" viewBox="0 96 960 960"><path d="M866.312 431.688 830 416l36.312-15.688L882 364l16.688 36.312L934 416l-35.312 15.688L882 468l-15.688-36.312ZM735.033 237.967 681 213l54.033-24.967L760 134l24.967 54.033L839 213l-54.033 24.967L760 291l-24.967-53.033ZM360 932q-26 0-46-17t-24-43h140q-4 26-24 43t-46 17ZM236 785q-4.7 0-7.85-3.211-3.15-3.21-3.15-8 0-4.789 3.15-7.789t7.85-3h248q4.7 0 7.85 3.211 3.15 3.21 3.15 8 0 4.789-3.15 7.789t-7.85 3H236Zm-12-108q-52-37-82-89t-30-117q0-103 72.5-175.5T360 223q103 0 175.5 72.5T608 471q0 65-30 117t-82 89H224Zm7-22h257.667Q535 623 560.5 574.872 586 526.743 586 471q0-94-66-160t-160-66q-94 0-160 66t-66 160q0 55.743 25.5 103.872Q185 623 231 655Zm129 0Z"/></svg>