<svg xmlns="http://www.w3.org/2000/svg" width="48" height="48" viewBox="0 96 960 960"><path d="M357.704 707Q325 707 302 683.704t-23-56Q279 595 302.296 572t56-23Q391 549 414 572.296t23 56Q437 661 413.704 684t-56 23ZM226 924q-22.775 0-38.387-15.612Q172 892.775 172 870V356q0-22.775 15.613-38.388Q203.225 302 226 302h88v-71.719Q314 224 317.281 220q3.28-4 9.5-4Q333 216 337 220.225q4 4.225 4 9.775v72h282v-73.719q0-5.281 3.395-8.781 3.394-3.5 8.5-3.5 5.105 0 8.605 3.725T647 228v74h87q22.775 0 38.388 15.612Q788 333.225 788 356v514q0 22.775-15.612 38.388Q756.775 924 734 924H226Zm0-22h508q14 0 23-9t9-23V525H194v345q0 14 9 23t23 9Z"/></svg>