<svg xmlns="http://www.w3.org/2000/svg" width="48" height="48" viewBox="0 96 960 960"><path d="M480 938q-7 0-13.5-1.5T454 931L174 774q-13-7-20.5-19t-7.5-27V421q0-15 7.5-27t20.5-20l280-154q6-3 12.5-4.5T480 214q7 0 13.5 1.5T506 220l280 154q13 8 20.5 20t7.5 27v307q0 15-7.5 27T786 774L506 931q-6 4-12.5 5.5T480 938ZM370 502q22-30 51-43.5t59-13.5q30 0 59 13.5t51 43.5l188-106-282-156q-8-3-16-3t-16 3L182 396l188 106Zm99 412V709q-52-8-86-45t-34-88q0-13 2.5-25.5T360 522L168 414v313q0 9 4 16t12 12l285 159Zm11-229q45 0 77-32t32-77q0-45-32-77t-77-32q-45 0-77 32t-32 77q0 45 32 77t77 32Zm11 229 285-159q8-5 12-12t4-16V414L600 522q6 17 8.5 29t2.5 25q0 51-34 88t-86 45v205Z"/></svg>