<svg xmlns="http://www.w3.org/2000/svg" width="48" height="48" viewBox="0 -960 960 960"><path d="m499-365 68-68q6-6 2.417-15-3.584-9-12.417-9H403q-8.833 0-12.417 9Q387-439 393-433l68 68q8.182 8 19.091 8T499-365ZM226-172q-21.75 0-37.875-16.125T172-226v-508q0-21.75 16.125-37.875T226-788h508q21.75 0 37.875 16.125T788-734v508q0 21.75-16.125 37.875T734-172H226Zm540-466v-96q0-12-10-22t-22-10H226q-12 0-22 10t-10 22v96h572Zm-572 22v390q0 12 10 22t22 10h508q12 0 22-10t10-22v-390H194Zm0-22v-128 128Z"/></svg>