<svg xmlns="http://www.w3.org/2000/svg" width="48" height="48" viewBox="0 -960 960 960"><path d="M226-106v-738q0-4.359 3.228-7.18 3.228-2.82 8-2.82t7.772 3.162q3 3.163 3 7.838v70h514q15.267 0 22.633 12Q792-749 787-736l-55 135 55 135q5 13-2.367 25-7.366 12-22.633 12H248v323h-22Zm22-645v300-300Zm252.712 202Q522-549 537-563.975q15-14.975 15-37.237 0-22.263-14.975-37.025Q522.05-653 499.788-653 479-653 464-638.025q-15 14.975-15 37.237 0 22.263 15.212 37.025Q479.425-549 500.712-549ZM248-451h521l-60-150 60-150H248v300Z"/></svg>