<svg xmlns="http://www.w3.org/2000/svg" width="48" height="48" viewBox="0 -960 960 960"><path d="M368-186h152l-76-192-76 192Zm500-314q0 20-15 34t-37 14H488q-6 0-10-4t-4-10q0-6 4-10t10-4h328q10 0 17-6t7-14v-320q0-8-7-14t-17-6H338q-10 0-17 6t-7 14v131q0 6-4 10t-10 4q-7 0-10.5-4t-3.5-10v-131q0-20 15-34t36.95-14h478.1Q838-868 853-854q15 14 15 34v320Zm-28 20v-360 360ZM396-606h25v-117q0-6 5-11t11-5h61q6 0 11 5t5 11v11q0 5.13 3.6 8.57 3.61 3.43 9 3.43 5.4 0 8.9-3.43 3.5-3.44 3.5-8.57v-11q0-16.72-12.14-28.86T498-764h-61q-16.73 0-28.86 12.14Q396-739.72 396-723v117Zm261 50h61q15.97 0 28.49-12.51Q759-581.03 759-597v-9q0-5.13-3.6-8.57-3.61-3.43-9-3.43-5.4 0-8.9 3.43-3.5 3.44-3.5 8.57v9q0 6-5 11t-11 5h-61q-6 0-11-5t-5-11v-126q0-6 5-11t11-5h61q6 0 11 5t5 11v11q0 5.13 3.6 8.57 3.61 3.43 9 3.43 5.4 0 8.9-3.43 3.5-3.44 3.5-8.57v-11q0-15.97-12.51-28.49Q733.97-764 718-764h-61q-17 0-29 12.51-12 12.52-12 28.49v126q0 15.97 12 28.49Q640-556 657-556ZM264-391.39q15 18.39 29 31.89t30 28.5l-11 28q-19-17-34-32t-32-34l-83 78q-4.73 4-10.86 4.5-6.14.5-9.14-4-4-5.5-3-11t4-9.5l84-80q-14-17-26-34t-24-36q-4-6-2.5-11.5t6-9q4.5-3.5 10-3T202-478q10.43 16.13 21.72 31.57Q235-431 247-416q26-31 48.5-63t35.5-70H106q-6 0-10-4t-4-10q0-7 4-10.5t10-3.5h128v-37.3q0-5.7 4-9.7 4-4 10-4t10 4q4 4 4 9.7v37.3h144q6 0 10 4t4 10q0 6-4 10t-10 4h-42q-16 45-42.5 84T264-391.39ZM358-161l-35 88.1q-2 3.9-5.19 6.4-3.18 2.5-7.59 2.5-8.1 0-12.16-6.5Q294-77 297-83l129-321q2-4 5.3-6t6.7-2h12q3 0 6.5 2t5.5 6L592-83q3 7-1.06 13-4.06 6-12.16 6-4.78 0-8.28-2.5Q567-69 566-73l-35-88H358Z"/></svg>