<svg xmlns="http://www.w3.org/2000/svg" width="48" height="48" viewBox="0 96 960 960"><path d="M608 499q0-62 23-117.5T694 281q3-4 7.5-5.5t7.5 1.5q4 4 3 9t-5 9q-39 41-60.5 93.5T625 499q-1 58 21 110t60 94q4 4 5 9.5t-2 8.5q-3 3-7.5 1.5T694 717q-40-44-63-100t-23-118Zm193-.469q0-23.531 9-45.031t24-40.5q4-3 8-2.5t5 3.5q2 5 .5 9t-5.5 7q-12 15-19 32.677-7 17.676-7 36.499Q816 519 823 536q7 17 19 32 4 3 5.5 7.5t-.5 8.5q-1 4-5.5 4.5T834 585q-15-18-24-40t-9-46.469ZM365 604q-44.55 0-74.775-30.225Q260 543.55 260 499q0-45.55 30.225-75.275Q320.45 394 365 394q44.55 0 74.775 29.725Q470 453.45 470 499q0 44.55-30.225 74.775Q409.55 604 365 604ZM124 884q-11.75 0-19.375-7.625T97 857v-20q0-27 13.5-43.5T148 765q48-23 108-37t109-14q49 0 108.5 14T582 765q24 12 37.5 28.5T633 837v20q0 11.75-7.625 19.375T606 884H124Zm-5-22h492v-25q0-19-11.5-31.5T571 784q-41-22-99-35t-107-13q-49 0-107 13t-99 35q-17 8-28.5 21T119 837v25Zm246-280q35 0 59-24t24-59q0-35-24-59t-59-24q-35 0-59 24t-24 59q0 35 24 59t59 24Zm0-83Zm0 363Z"/></svg>