<svg xmlns="http://www.w3.org/2000/svg" width="48" height="48" viewBox="0 96 960 960"><path d="M157 829q-4.675 0-7.837-3.228-3.163-3.228-3.163-8t3.163-7.772q3.162-3 7.837-3h168q4.675 0 7.838 3.228 3.162 3.228 3.162 8T332.838 826q-3.163 3-7.838 3H157Zm0-484q-4.675 0-7.837-3.228-3.163-3.228-3.163-8t3.163-7.772q3.162-3 7.837-3h330q4.675 0 7.838 3.228 3.162 3.228 3.162 8T494.838 342q-3.163 3-7.838 3H157Zm315.772 565Q468 910 465 906.838q-3-3.163-3-7.838V737q0-3.7 3.228-7.35 3.228-3.65 8-3.65t7.772 3.65q3 3.65 3 7.35v70h319q4.675 0 7.838 3.228 3.162 3.228 3.162 8T810.838 826q-3.163 3-7.838 3H484v70q0 4.675-3.228 7.838-3.228 3.162-8 3.162Zm-148-242Q320 668 317 664.838q-3-3.163-3-7.838v-70H157q-4.675 0-7.837-3.228-3.163-3.228-3.163-8t3.163-7.772q3.162-3 7.837-3h157v-70q0-4.675 3.228-7.838 3.228-3.162 8-3.162t7.772 3.162q3 3.163 3 7.838v162q0 4.675-3.228 7.838-3.228 3.162-8 3.162ZM473 587q-4.675 0-7.838-3.228-3.162-3.228-3.162-8t3.162-7.772q3.163-3 7.838-3h330q4.675 0 7.838 3.228 3.162 3.228 3.162 8T810.838 584q-3.163 3-7.838 3H473Zm161.772-162Q630 425 627 421.838q-3-3.163-3-7.838V253q0-4.675 3.228-7.838 3.228-3.162 8-3.162t7.772 3.162q3 3.163 3 7.838v70h157q4.675 0 7.838 3.228 3.162 3.228 3.162 8T810.838 342q-3.163 3-7.838 3H646v69q0 4.675-3.228 7.838-3.228 3.162-8 3.162Z"/></svg>