<svg xmlns="http://www.w3.org/2000/svg" width="48" height="48" viewBox="0 -960 960 960"><path d="M449-484h157l43 103q1 4 4.26 5.5 3.259 1.5 7.971 1.5 6.581 0 10.175-5.5Q675-385 672-391L533-732l-1.12-1q-1.12-1-1.68-1h-4.013Q525-734 524-733l-1 1-138 343q-3 5 .703 10 3.704 5 10.204 5 3.093 0 6.01-2.075Q404.833-378.15 406-381l43-103Zm9-22 67-172h4l69 172H458ZM308-280q-22.775 0-38.388-15.612Q254-311.225 254-334v-440q0-22.775 15.612-38.388Q285.225-828 308-828h440q22.775 0 38.388 15.612Q802-796.775 802-774v440q0 22.775-15.612 38.388Q770.775-280 748-280H308Zm0-22h440q12 0 22-10t10-22v-440q0-12-10-22t-22-10H308q-12 0-22 10t-10 22v440q0 12 10 22t22 10Zm-96 118q-22.775 0-38.387-15.613Q158-215.225 158-238v-451q0-4.725 3.193-7.862 3.193-3.138 8-3.138t7.807 3.138q3 3.137 3 7.862v451q0 12 10 22t22 10h451q4.725 0 7.862 3.193 3.138 3.193 3.138 8T670.862-187q-3.137 3-7.862 3H212Zm64-622v504-504Z"/></svg>