<svg xmlns="http://www.w3.org/2000/svg" width="48" height="48" viewBox="0 -960 960 960"><path d="M682.965-146Q678-146 675-149.025T672-157v-445q0-78.725-55.695-134.362Q560.611-792 481.805-792 402-792 347-736.362 292-680.725 292-602v243l89-89q2.667-3 6.833-3 4.167 0 8.167 3.5t4 7.5q0 4-4 8l-95.709 96.709Q295-331 290.367-329q-4.634 2-9.5 2-5.867 0-10.367-2-4.5-2-8.791-6.291L165-432q-4-4-4-8t4-8q4-4 8-4t8 4l89 89v-243q0-89.167 61.382-150.583Q392.765-814 481.882-814 571-814 632.5-752.583 694-691.167 694-602v445q0 4.95-3.035 7.975-3.035 3.025-8 3.025Z"/></svg>