<svg xmlns="http://www.w3.org/2000/svg" width="48" height="48" viewBox="0 -960 960 960"><path d="M277.965-146Q273-146 270-149.025T267-157v-445q0-89.167 61.382-150.583Q389.765-814 478.882-814 568-814 629.5-752.583 691-691.167 691-602v243l89-89q4-3 8-3.5t8.217 3.717Q800-444 800-440t-4 8l-96.709 96.709Q695-331 690.367-329q-4.634 2-10.5 2-4.867 0-9.367-2-4.5-2-8.791-6.291L565-432q-4-4-4-8t4-8q3-3 7.5-3.5t7.5 3.5l89 89v-243q0-78.725-55.195-134.362Q558.611-792 478.805-792 400-792 344.5-736.362 289-680.725 289-602v445q0 4.95-3.035 7.975-3.035 3.025-8 3.025Z"/></svg>