<svg xmlns="http://www.w3.org/2000/svg" width="48" height="48" viewBox="0 0 48 48"><path d="M9.3 37.4q-1.15 0-1.925-.775Q6.6 35.85 6.6 34.7V13.3q0-1.15.775-1.925Q8.15 10.6 9.3 10.6h29.4q1.15 0 1.925.775.775.775.775 1.925v7.55q0 .25-.15.4-.15.15-.4.15H32.1q-1.05 0-1.875.8t-.825 1.9v12.75q0 .25-.15.4-.15.15-.4.15Zm26.15 0q-.55 0-.95-.4-.4-.4-.4-.95v-8.6q0-.55.4-.95.4-.4.95-.4h4.6q.55 0 .95.4.4.4.4.95v8.6q0 .55-.4.95-.4.4-.95.4ZM12.1 24.65q.25 0 .4-.15.15-.15.15-.4v-6.65l9.3 9.3q.15.15.375.175.225.025.425-.175.2-.2.2-.4t-.2-.4l-9.35-9.3h6.7q.25 0 .4-.15.15-.15.15-.4t-.15-.4q-.15-.15-.4-.15h-7.2q-.55 0-.95.4-.4.4-.4.95v7.2q0 .25.15.4.15.15.4.15Z"/></svg>