<svg xmlns="http://www.w3.org/2000/svg" width="48" height="48" viewBox="0 0 48 48"><path d="m27.45 21.3-9.7 9.7q-.15.15-.35.125-.2-.025-.35-.175-.15-.15-.15-.375t.15-.375l9.65-9.65H18q-.25 0-.4-.15-.15-.15-.15-.4t.15-.4q.15-.15.4-.15h9.2q.55 0 .95.4.4.4.4.95V30q0 .25-.15.4-.15.15-.4.15t-.4-.15q-.15-.15-.15-.4Zm-2.9-11.6q-.25 0-.4-.15-.15-.15-.15-.4t.15-.4q.15-.15.4-.15H36.7q1.1 0 1.9.8.8.8.8 1.9v12.15q0 .25-.15.4-.15.15-.4.15t-.4-.15q-.15-.15-.15-.4V11.3q0-.7-.45-1.15-.45-.45-1.15-.45ZM11.3 39.4q-1.15 0-1.925-.775Q8.6 37.85 8.6 36.7V9.15q0-.25.15-.4.15-.15.4-.15t.4.15q.15.15.15.4V36.7q0 .6.5 1.1.5.5 1.1.5h27.55q.25 0 .4.15.15.15.15.4t-.15.4q-.15.15-.4.15Z"/></svg>