<svg xmlns="http://www.w3.org/2000/svg" width="48" height="48" viewBox="0 -960 960 960"><path d="M158.588-106q-38.088 0-65.338-27.132Q66-160.265 66-198.353q0-38.088 27.132-64.868Q120.265-290 158.353-290q38.088 0 64.868 26.662Q250-236.676 250-198.588t-26.662 65.338Q196.676-106 158.588-106Zm-.377-22Q187-128 207.5-148.711q20.5-20.71 20.5-49.5Q228-227 207.289-247.5q-20.71-20.5-49.5-20.5Q129-268 108.5-247.289q-20.5 20.71-20.5 49.5Q88-169 108.711-148.5q20.71 20.5 49.5 20.5ZM334-106q-13 0-19.5-10.5T313-138q6.385-13.887 8.692-29.258Q324-182.629 324-198q0-69.42-48.29-117.71Q227.42-364 158-364q-4.858 0-10.02.167-5.162.166-10.98.833-12 1-21-6t-9-19v-129q0-22.275 15.863-38.138Q138.725-571 161-571h67v-167q0-64.63 45.436-110.315T384.267-894q46.49 0 86.111 26Q510-842 527-799l283 671h73q4.675 0 7.838 3.228 3.162 3.228 3.162 8T890.838-109q-3.163 3-7.838 3H681q-4.675 0-7.838-3.228-3.162-3.228-3.162-8t3.162-7.772q3.163-3 7.838-3h106L506-789q-16-37-48.95-60-32.949-23-72.738-23-56.024 0-95.168 39.298Q250-793.404 250-738v167h64.904Q370-571 408-533.237q38 37.762 38 93.237v280q0 21.5-15.862 37.75Q414.275-106 392-106h-58Z"/></svg>