<svg xmlns="http://www.w3.org/2000/svg" width="48" height="48" viewBox="0 -960 960 960"><path d="M536-642h128q14 0 23-9t9-23v-48q0-14-9-23t-23-9H536q-14 0-23 9t-9 23v48q0 14 9 23t23 9ZM171.965-282q19.535 0 32.785-13.215Q218-308.43 218-327.965t-13.215-32.785Q191.57-374 172.035-374t-32.785 13.215Q126-347.57 126-328.035t13.215 32.785Q152.43-282 171.965-282ZM480-155q-80.283 0-150.142-30.5Q260-216 207-270q-8 5-16.5 7.5T172-260q-29 0-48.5-19.5T104-328q0-16.809 6.9-30.512T129-381q-11-25-18.633-50.845Q102.733-457.69 99-485q-1-5 1.392-8.857 2.392-3.857 7.574-5.143 4.8-1 8.417 2.5T121-488q3 25.647 10.318 49.324Q138.636-415 149-392q5-2 10.964-3 5.965-1 12.036-1 29 0 48.5 19.5T240-328q0 12.718-4.5 23.859Q231-293 224-283q47 48 109.851 76.062Q396.701-178.875 469-177v-201q0-29.25-19.875-49.125T400-447q-55 0-93-38t-38-93q0-55 38-93t93-38h82v-13q0-21.75 16.125-37.875T536-776h128q21.75 0 37.875 16.125T718-722v13h32q4.725 0 7.862 3.193 3.138 3.193 3.138 8T757.862-690q-3.137 3-7.862 3h-32v13q0 21.75-16.125 37.875T664-620H536q-21.75 0-37.875-16.125T482-674v-13h-82q-46 0-77.5 31.5T291-578q0 46 31.5 77.5T400-469q37.75 0 64.375 26.625T491-378v201q110-3 196.5-65T815-402l-37-18q-2 0-3-2t-1.5-4q-.5-2-.5-4t1-4.6q0-2.4 1.885-3.471 1.884-1.072 4-1.5Q782-440 784.5-440t4.5 1l34 17q4.667-16 9.333-32.5Q837-471 839-487q.746-5 4.952-9 4.207-4 9.127-3 4.921 1 7.421 5t1.5 9q-3 19-8 37.5T843-412l35 17q1.778 0 2.889 1.833 1.111 1.834 1.611 4 .5 2.167.444 4.167-.055 2-.5 4.467-.444 2.533-2.329 3.366-1.884.834-4 1.5Q874-375 871.5-375t-4.5-1l-31-15q-45 105-140.688 170.5Q599.624-155 480-155Zm24-487v-112 112ZM172-328Z"/></svg>