<svg xmlns="http://www.w3.org/2000/svg" width="48" height="48" viewBox="0 -960 960 960"><path d="M223-172q-4.675 0-7.837-3.228-3.163-3.228-3.163-8t3.163-7.772q3.162-3 7.837-3h514q4.675 0 7.838 3.228 3.162 3.228 3.162 8T744.838-175q-3.163 3-7.838 3H223Zm256.6-143q-5.6 0-10.1-2t-8.26-5.76L326-458q-3-3-3.5-8t3.5-8.5q4-3.5 8-3.5t8 4l127 127v-430q0-4.675 3.228-7.838 3.228-3.162 8-3.162t7.772 3.162q3 3.163 3 7.838v430l126-126q3-3 7.5-3.5t8.5 3.5q4 4 4 8t-4 8L498.92-322.92Q495-319 490.1-317t-10.5 2Z"/></svg>