<svg xmlns="http://www.w3.org/2000/svg" width="48" height="48" viewBox="0 96 960 960"><path d="M186 764q-22.775 0-38.387-15.612Q132 732.775 132 709.637V442q0-23 15.39-38.5T185 388h107l287 287h-31L136 263q-3-3.2-3.5-7.6-.5-4.4 3.553-8.4 3.052-3 7.3-3 4.247 0 8.647 3l657 657q2 3 2.5 8t-3.516 9q-4.016 4-7.913 4-3.897 0-7.071-4L636 764H186Zm210-376h378q22.775 0 38.388 15.612Q828 419.225 828 442.363V710q0 21.636-15 37.318Q798 763 776 764h-4L396 388Zm299.118 95Q683 483 674 491.382q-9 8.383-9 21 0 12.618 9.091 21.118 9.09 8.5 20.791 8.5 12.118 0 20.618-8.382 8.5-8.383 8.5-21 0-12.618-8.382-21.118-8.383-8.5-20.5-8.5ZM308 588v76q0 4.675 3.228 7.838 3.228 3.162 8 3.162t7.772-3.162q3-3.163 3-7.838v-76h76q4.675 0 7.838-3.228 3.162-3.228 3.162-8T413.838 569q-3.163-3-7.838-3h-76v-76q0-4.675-3.228-7.838-3.228-3.162-8-3.162T311 482.162q-3 3.163-3 7.838v76h-76q-4.675 0-7.837 3.228-3.163 3.228-3.163 8t3.163 7.772q3.162 3 7.837 3h76Z"/></svg>