<svg xmlns="http://www.w3.org/2000/svg" width="48" height="48" viewBox="0 -960 960 960"><path d="M415-470v113q0 4.725 3.193 7.862 3.193 3.138 8 3.138t7.807-3.138q3-3.137 3-7.862v-113h112q4.725 0 7.862-3.193 3.138-3.193 3.138-8T556.862-489q-3.137-3-7.862-3H437v-112q0-4.725-3.193-7.862-3.193-3.138-8-3.138T418-611.862q-3 3.137-3 7.862v112H302q-4.725 0-7.862 3.193-3.138 3.193-3.138 8t3.138 7.807q3.137 3 7.862 3h113ZM211-212q-22.775 0-38.387-15.613Q157-243.225 157-266v-428q0-22.775 15.613-38.388Q188.225-748 211-748h428q22.775 0 38.388 15.612Q693-716.775 693-694v198l86-86q6-6 15-2.917 9 3.084 9 11.917v186q0 8.833-9 11.917Q785-372 779-378l-86-87v199q0 22.775-15.612 38.387Q661.775-212 639-212H211Zm0-22h428q14 0 23-9t9-23v-428q0-14-9-23t-23-9H211q-14 0-23 9t-9 23v428q0 14 9 23t23 9Zm-32 0v-492 492Z"/></svg>