<svg xmlns="http://www.w3.org/2000/svg" width="48" height="48" viewBox="0 -960 960 960"><path d="M334-429h210q12.15 0 20.075-7.925Q572-444.85 572-457v-92l66 66q4 4 8 2.625t4-6.625v-148q0-4.417-4-6.208-4-1.792-8 2.208l-66 66v-92q0-12.15-7.925-20.075Q556.15-693 544-693H334q-12.15 0-20.075 7.925Q306-677.15 306-665v208q0 12.15 7.925 20.075Q321.85-429 334-429Zm-90 137-66 66q-13 13-29.5 6.156T132-245v-529q0-22.775 15.613-38.388Q163.225-828 186-828h588q22.775 0 38.388 15.612Q828-796.775 828-774v428q0 22.775-15.612 38.388Q796.775-292 774-292H244Zm-10-22h540q12 0 22-10t10-22v-428q0-12-10-22t-22-10H186q-12 0-22 10t-10 22v542l80-82Zm-80 0v-492 492Z"/></svg>