<svg xmlns="http://www.w3.org/2000/svg" width="48" height="48" viewBox="0 96 960 960"><path d="M211 844q-22.775 0-38.387-15.612Q157 812.775 157 790V362q0-22.775 15.613-38.388Q188.225 308 211 308h428q22.775 0 38.388 15.612Q693 339.225 693 362v198l85-85q7-7 16-2.917 9 4.084 9 13.917v180q0 9.833-9 13.917Q785 684 778 677l-85-86v199q0 22.775-15.612 38.388Q661.775 844 639 844H211Zm0-22h428q14 0 23-9t9-23V362q0-14-9-23t-23-9H211q-14 0-23 9t-9 23v428q0 14 9 23t23 9Zm78-104h275q9.208 0 13.104-8.5Q581 701 576 694l-72-96q-4-5-11.5-5t-11.5 5l-92 116-55-64q-5-5-11.5-4.5T312 651l-34 43q-5 8-1.458 16 3.541 8 12.458 8ZM179 822V330v492Z"/></svg>