<svg xmlns="http://www.w3.org/2000/svg" width="48" height="48" viewBox="0 96 960 960"><path d="M182 832q-4 0-7-3t-3-8.5q0-4.5 3.125-7.5t7.875-3h595q4 0 7 3t3 8.5q0 4.5-3.125 7.5T777 832H182Zm0-490q-4 0-7-3t-3-8.5q0-4.5 3.125-7.5t7.875-3h595q4 0 7 3t3 8.5q0 4.5-3.125 7.5T777 342H182Zm44 339q-21.75 0-37.875-16.125T172 627V525q0-21.75 16.125-37.875T226 471h508q21.75 0 37.875 16.125T788 525v102q0 21.75-16.125 37.875T734 681H226Zm0-22h508q14 0 23-9.5t9-22.5V525q0-13-9-22.5t-23-9.5H226q-14 0-23 9.5t-9 22.5v102q0 13 9 22.5t23 9.5Zm-32-166h32q-14 0-23 9.5t-9 22.5v102q0 13 9 22.5t23 9.5h-32V493Z"/></svg>