<svg xmlns="http://www.w3.org/2000/svg" width="48" height="48" viewBox="0 -960 960 960"><path d="M480.353-367Q535-367 574-406.353q39-39.353 39-94T573.647-594q-39.353-39-94-39T386-593.647q-39 39.353-39 94T386.353-406q39.353 39 94 39Zm-.765-24Q434-391 402.5-422.912q-31.5-31.912-31.5-77.5t31.912-77.088q31.912-31.5 77.5-31.5t77.088 31.912q31.5 31.912 31.5 77.5T557.088-422.5q-31.912 31.5-77.5 31.5ZM480-252q-114 0-210-61T114-471q-5-7.546-7-14.618t-2-14.517q0-7.444 2-14.408 2-6.965 7-14.457 60-97 156-158t210-61q114 0 210 61t156 158q5 7.546 7 14.618t2 14.517q0 7.444-2 14.408-2 6.965-7 14.457-60 97-156 158t-210 61Z"/></svg>