<svg xmlns="http://www.w3.org/2000/svg" width="48" height="48" viewBox="0 -960 960 960"><path d="M278-552q3-3 3-8t-3-8q-3-3-8-3t-8 3q-3 3-3 8t3 8q3 3 8 3t8-3Zm100 80q3-3 3-8v-160q0-5-3-8t-8-3q-5 0-8 3t-3 8v160q0 5 3 8t8 3q5 0 8-3Zm110 80q3-3 3-8v-320q0-5-3-8t-8-3q-5 0-8 3t-3 8v320q0 5 3 8t8 3q5 0 8-3Zm110-80q3-3 3-8v-160q0-5-3-8t-8-3q-5 0-8 3t-3 8v160q0 5 3 8t8 3q5 0 8-3Zm100-80q3-3 3-8t-3-8q-3-3-8-3t-8 3q-3 3-3 8t3 8q3 3 8 3t8-3ZM244-292l-66 66q-13 13-29.5 6.5T132-245v-529q0-23 15.5-38.5T186-828h588q23 0 38.5 15.5T828-774v428q0 23-15.5 38.5T774-292H244Zm-10-22h540q12 0 22-10t10-22v-428q0-12-10-22t-22-10H186q-12 0-22 10t-10 22v542l80-82Zm-80 0v-492 492Z"/></svg>