<svg xmlns="http://www.w3.org/2000/svg" width="48" height="48" viewBox="0 0 48 48"><path d="M14 25.8q.75 0 1.275-.55.525-.55.525-1.25 0-.75-.525-1.275Q14.75 22.2 14 22.2q-.7 0-1.25.525T12.2 24q0 .7.55 1.25t1.25.55Zm0 7.6q-3.9 0-6.65-2.75Q4.6 27.9 4.6 24q0-3.9 2.75-6.65Q10.1 14.6 14 14.6q3.6 0 6.1 2.2 2.5 2.2 3.15 5.3H35.9v11.3h-.45q-.5 0-.925-.4-.425-.4-.425-.95V25.9H23.25q-.65 3.1-3.15 5.3-2.5 2.2-6.1 2.2Zm27.3.6q-.45 0-.8-.35-.35-.35-.35-.8 0-.45.35-.8.35-.35.8-.35.45 0 .8.35.35.35.35.8 0 .45-.35.8-.35.35-.8.35Zm0-4.6q-.25 0-.4-.15-.15-.15-.15-.4V21.4q0-.25.15-.4.15-.15.4-.15t.4.15q.15.15.15.4v7.45q0 .25-.15.4-.15.15-.4.15Z"/></svg>