<svg xmlns="http://www.w3.org/2000/svg" width="48" height="48" viewBox="0 -960 960 960"><path d="M793-136 511-417h-53q-18 55-65.966 90Q344.069-292 280-292q-78.333 0-133.167-54.833Q92-401.667 92-480q0-71 46.5-125T260-669L136-793q-3-3.2-3.5-7.6-.5-4.4 3.553-8.4 3.052-3 7.3-3 4.247 0 8.647 3l657 657q2 3.455 2.5 8.227.5 4.773-2.553 7.773-4.452 4-8.7 4-4.247 0-7.247-4ZM684-381l-58-58h58v58Zm84 85-19-20h9v-123.068h88V-521H544l-22-22h324q8.525 0 15.263 6.737Q868-529.525 868-521v82q0 8.525-6.737 15.263Q854.525-417 846-417h-66v101q0 6.429-3.545 11.429-3.546 5-8.455 8.571Zm-488-18q60 0 104.5-38t54.5-90h46L281-647q-71 1-119 50t-48 117q0 69.225 48.387 117.612Q210.775-314 280-314Zm0-130q-14.5 0-25.25-10.75T244-480q0-14.5 10.75-25.25T280-516q14.5 0 25.25 10.75T316-480q0 14.5-10.75 25.25T280-444Zm300-41Zm-280 4Z"/></svg>