<svg xmlns="http://www.w3.org/2000/svg" width="48" height="48" viewBox="0 96 960 960"><path d="M480 924q-73 0-136.5-27T233 823q-47-47-74-110.5t-27-136.058Q132 503 159 439.5 186 376 232.5 329t110-74Q406 228 478 228q35 0 70 6.5t62 16.5v39q0 33-24 57.5T528 372h-90v80q0 17-12.5 29.5T396 494h-80v82h244q18 0 30 12.5t12 29.5v122h40q28 0 49 16t29 41q41-44 63.5-100.5T806 577v-25q0-13-2-24h21q2 10 2.5 22.5t.5 25.5q0 73-27 136.5T727 823q-47 47-110.596 74Q552.807 924 480 924Zm-42-22v-82q-33 0-56.5-23.5T358 740v-40L162 504q-4 20-6 36.5t-2 34.5q0 126 81 218.5T438 902Zm273-448q-10.75 0-18.875-7.625T684 427V303q0-11.75 8.125-19.375T711 276h15v-40q0-29 19.5-48.5T793 168q29 0 48 19.5t19 48.5v40h15q11.75 0 19.375 7.625T902 303v124q0 11.75-7.625 19.375T875 454H711Zm41-178h82v-40q0-17-12-29.5T793 194q-17 0-29 12.5T752 236v40Z"/></svg>