<svg xmlns="http://www.w3.org/2000/svg" width="48" height="48" viewBox="0 -960 960 960"><path d="M480.825-259Q474-259 469-264.175q-5-5.176-5-12Q464-283 469.175-288q5.176-5 12-5Q488-293 493-287.825q5 5.176 5 12Q498-269 492.825-264q-5.176 5-12 5ZM470-347v-143l22 22v121q0 4.75-3.175 7.875-3.176 3.125-8 3.125-4.825 0-7.825-3.125T470-347Zm10.025-402Q487-749 493-745.5t10 9.5l200 345q2 5 .5 8.5T698-377q-4 2-8 1t-6-6L480-732l-47 81q-3 5-7.5 5.5T418-647q-4-2-5.5-6t1.5-9l43-74q4-6 10.025-9.5t13-3.5ZM168-194h566L376-552 168-194Zm639 72-51-50H177q-16 0-24-13.5t0-27.5l207-355-239-239q-3-3.067-3.5-7.533Q117-819 121.053-823q4.052-4 8-4 3.947 0 7.947 4l685 686q3 2 3.5 7t-3.553 8q-3.052 4-7.5 4-4.447 0-7.447-4ZM555-373Zm0-136Z"/></svg>