<svg xmlns="http://www.w3.org/2000/svg" width="48" height="48" viewBox="0 -960 960 960"><path d="M419-174q-7.937 0-14.462-4.982Q398.013-183.965 395-192l-23-87q-53-26-86.5-80T252-480q0-67 33.5-121t86.5-80l23-87q3.013-8.035 9.538-13.018Q411.063-786 419-786h122q7.937 0 14.462 4.982Q561.987-776.035 565-768l23 87q53 26 86.5 80T708-480q0 67-33.5 121T588-279l-23 87q-3.013 8.035-9.538 13.018Q548.937-174 541-174H419Zm60.866-100Q566-274 626-333.866q60-59.865 60-146Q686-566 626.134-626q-59.865-60-146-60Q394-686 334-626.134q-60 59.865-60 146Q274-394 333.866-334q59.865 60 146 60ZM399-692q22-7 41.33-11 19.331-4 39.67-4 20.339 0 39.67 4Q539-699 561-692l-18.353-72H417l-18 72Zm18.353 496H543l18-72q-21.544 7-41.102 10.5Q500.339-254 480-254q-20.339 0-39.898-3.5Q420.544-261 399-268l18.353 72ZM399-764h162-162Zm18.316 568H399h162-143.684Z"/></svg>