<svg xmlns="http://www.w3.org/2000/svg" width="48" height="48" viewBox="0 96 960 960"><path d="M612 965q-4 2-9 .5t-6-5.5l-4-10q-7-16-10.5-32.679Q579 900.643 579 884q0-20.662 5.5-41.331Q590 822 599 802q9-17 14.5-35.324Q619 748.352 619 728q0-17.395-3.5-33.698Q612 678 605 663l-2-3q-2-4-.306-8.412 1.693-4.411 5.5-5.5Q612 644 616.5 645.5q4.5 1.5 6.5 5.5l4 10q7 16 10.5 32.862Q641 710.724 641 728q0 20.969-5.5 40.984Q630 789 621 808q-8.4 16.988-14.2 36.535-5.8 19.546-5.8 39.651Q601 900 604.5 916t9.5 29.722l3 5.278q2 4 .35 8.362T612 965Zm120 0q-4 2-9 .5t-6-5.5l-4-10q-7-16-10.5-32.679Q699 900.643 699 884q0-20.662 5.5-41.331Q710 822 719 802q9-17 14.5-35.324Q739 748.352 739 728q0-17.395-3.5-33.698Q732 678 725 663l-2-3q-2-4-.306-8.412 1.693-4.411 5.5-5.5Q732 644 736.5 645.5q4.5 1.5 6.5 5.5l4.231 9.667Q754 677 757.5 694t3.5 34q0 19.969-4.5 39.484Q752 787 743 805q-9.4 18.988-15.7 38.535-6.3 19.546-6.3 40.651Q721 900 724.5 916t9.5 29.722l3 5.278q2 4 .35 8.362T732 965Zm116.194-318.912Q852 644 856.5 645.5q4.5 1.5 6.5 5.5l4 10q8 16 11 32.812 3 16.813 3 34.563 0 19.625-4.5 39.125T863 804q-9.4 20.2-15.7 39.435-6.3 19.236-6.3 40.577Q841 900 844.5 916t9.5 29.722l3 5.278q1 2-1 5t-3.5 5.5q-1.5 2.5-2.5 4t2-.5q-4 2-9 .5t-6-5.5l-4-10q-7-16-10.5-32.679Q819 900.643 819 884q0-20.662 5.5-41.331Q830 822 839 802q9-17 14.5-35.324Q859 748.352 859 728q0-17.395-3.5-33.698Q852 678 845 663l-2-3q-2-4-.306-8.412 1.693-4.411 5.5-5.5ZM734 568H559q-21.75 0-37.875 15.625T505 622v302h-25q-115 0-191.5-79T212 648q0-54 25.5-108.5t63.421-105.032q37.922-50.532 81.5-95Q426 295 462 261q3.5-4 8.25-5.5t9.417-1.5q5.333 0 9.75 1.5 4.416 1.5 8.583 5.5 67 63 136 141t100 166Z"/></svg>