<svg xmlns="http://www.w3.org/2000/svg" width="48" height="48" viewBox="0 -960 960 960"><path d="M469-419v142q0 4.609 4.5 5.804Q478-270 480-275l76.054-165.92Q559-448 554.478-454.5q-4.521-6.5-11.057-6.5H491v-142q0-4.609-4.5-5.804Q482-610 480-605l-76.054 165.92Q401-432 405.522-425.5q4.521 6.5 11.057 6.5H469Zm11 287q-106.362 0-187.181-74.482Q212-280.965 212-408.047q0-79.953 61.784-175.518 61.784-95.564 187.225-211.037 3.57-3.489 8.675-5.443Q474.789-802 479.895-802q5.105 0 10.287 1.955 5.182 1.954 8.809 5.441 125.441 115.416 187.225 210.832Q748-488.356 748-408.047q0 127.082-80.819 201.565Q586.362-132 480-132Zm-.076-22Q583-154 654.5-225.5T726-408q0-73-61-167.5T480-782Q356-670 295-575.5T234-408q0 111 71.424 182.5t174.5 71.5ZM480-397Z"/></svg>