<svg xmlns="http://www.w3.org/2000/svg" width="48" height="48" viewBox="0 -960 960 960"><path d="M299.5-365q10.5 0 18-7.5t7.5-17q0-10.5-7.513-18Q309.975-415 300-415q-10 0-17.5 7.513Q275-399.975 275-390q0 10 7.5 17.5t17 7.5Zm60-120q10.5 0 18-7.5t7.5-17q0-10.5-7.513-18Q369.975-535 360-535q-10 0-17.5 7.513Q335-519.975 335-510q0 10 7.5 17.5t17 7.5Zm0 240q10.5 0 18-7.5t7.5-17q0-10.5-7.513-18Q369.975-295 360-295q-10 0-17.5 7.513Q335-279.975 335-270q0 10 7.5 17.5t17 7.5Zm60-120q10.5 0 18-7.5t7.5-17q0-10.5-7.513-18Q429.975-415 420-415q-10 0-17.5 7.513Q395-399.975 395-390q0 10 7.5 17.5t17 7.5Zm0-240q10.5 0 18-7.5t7.5-17q0-10.5-7.513-18Q429.975-655 420-655q-10 0-17.5 7.513Q395-639.975 395-630q0 10 7.5 17.5t17 7.5Zm60 120q10.5 0 18-7.5t7.5-17q0-10.5-7.513-18Q489.975-535 480-535q-10 0-17.5 7.513Q455-519.975 455-510q0 10 7.5 17.5t17 7.5Zm0 240q10.5 0 18-7.5t7.5-17q0-10.5-7.513-18Q489.975-295 480-295q-10 0-17.5 7.513Q455-279.975 455-270q0 10 7.5 17.5t17 7.5Zm60-120q10.5 0 18-7.5t7.5-17q0-10.5-7.513-18Q549.975-415 540-415q-10 0-17.5 7.513Q515-399.975 515-390q0 10 7.5 17.5t17 7.5Zm0-240q10.5 0 18-7.5t7.5-17q0-10.5-7.513-18Q549.975-655 540-655q-10 0-17.5 7.513Q515-639.975 515-630q0 10 7.5 17.5t17 7.5Zm60 120q10.5 0 18-7.5t7.5-17q0-10.5-7.513-18Q609.975-535 600-535q-10 0-17.5 7.513Q575-519.975 575-510q0 10 7.5 17.5t17 7.5Zm0 240q10.5 0 18-7.5t7.5-17q0-10.5-7.513-18Q609.975-295 600-295q-10 0-17.5 7.513Q575-279.975 575-270q0 10 7.5 17.5t17 7.5Zm60-120q10.5 0 18-7.5t7.5-17q0-10.5-7.513-18Q669.975-415 660-415q-10 0-17.5 7.513Q635-399.975 635-390q0 10 7.5 17.5t17 7.5ZM479.816-132Q365-132 288.5-211.056q-76.5-79.057-76.5-196.8 0-52.144 24.212-105.737 24.212-53.592 60.529-102.943 36.318-49.352 78.088-92.838Q416.6-752.861 452-786q6-5 12.875-8.5T480-798q8.25 0 15.125 3.5T508-786q35.4 33.139 77.171 76.626 41.77 43.486 78.088 92.838 36.317 49.351 60.529 102.943Q748-460 748-407.856q0 117.743-76.684 196.8Q594.632-132 479.816-132Zm.231-22Q586-154 656-226.547q70-72.546 70-181.546Q726-483 663.5-577.5 601-672 480-782 359-672 296.5-577.5T234-408.093q0 109 70.047 181.546Q374.093-154 480.047-154ZM480-472Z"/></svg>