<svg xmlns="http://www.w3.org/2000/svg" width="48" height="48" viewBox="0 0 48 48"><path d="M15 41.7q-1.05 0-1.875-.825T12.3 39v-4q0-1.1.825-1.9.825-.8 1.875-.8h1.3V21.7H15q-1.05 0-1.875-.825T12.3 19v-4q0-1.1.825-1.9.825-.8 1.875-.8h6.95V9h-1.6q-.25 0-.4-.15-.15-.15-.15-.4t.15-.4q.15-.15.4-.15h7.3q.25 0 .4.15.15.15.15.4t-.15.4q-.15.15-.4.15h-1.6v3.3H33q1.1 0 1.9.8.8.8.8 1.9v4q0 1.05-.8 1.875T33 21.7h-1.3v10.6H33q1.1 0 1.9.8.8.8.8 1.9v4q0 1.05-.8 1.875T33 41.7Zm0-1.1h18q.7 0 1.15-.45.45-.45.45-1.15v-4q0-.7-.45-1.15-.45-.45-1.15-.45h-2.4V21.7h-2.45q-.25 0-.4-.15-.15-.15-.15-.4t.15-.4q.15-.15.4-.15H33q.7 0 1.15-.45.45-.45.45-1.15v-4q0-.7-.45-1.15-.45-.45-1.15-.45H15q-.7 0-1.15.45-.45.45-.45 1.15v4q0 .7.45 1.15.45.45 1.15.45h2.4v11.7h2.45q.25 0 .4.15.15.15.15.4t-.15.4q-.15.15-.4.15H15q-.7 0-1.15.45-.45.45-.45 1.15v4q0 .7.45 1.15.45.45 1.15.45ZM24 27Z"/></svg>