<svg xmlns="http://www.w3.org/2000/svg" width="48" height="48" viewBox="0 96 960 960"><path d="M106 824q0-4 3-8t8-5q43-12 72.5-35.5T279 752q31 0 55 10t46.5 22q22.5 12 46 21.5T480 815q30 0 53.5-9.5t46-21.5q22.5-12 46.5-22t56-10q59 0 88 24t73 35q5 1 8 5t3 8q0 4-3 6.5t-7 1.5q-44-10-76-34.5T682 773q-29 0-52.5 10T583 804.5Q560 816 535.5 826T480 836q-31 0-55.5-10T377 804.5Q354 793 330.5 783T279 773q-55 0-87 24.5T116 832q-4 1-7-1.5t-3-6.5Zm0-145q0-4 3-8t8-6q43-11 72.5-34.5T279 607q31 0 55 10t46.5 21.5q22.5 11.5 46 21.5t53.5 10q30 0 53.5-10t46-21.5Q602 627 626 617t56-10q59 0 88 23.5t73 34.5q5 2 8 6t3 8q0 4-3 6t-7 1q-44-11-76-35t-86-24q-29 0-52.5 10t-46 22Q561 671 536 681t-56 10q-31 0-55.5-10T377 659q-23-12-46.5-22T279 627q-55 0-87 24.5T116 686q-4 1-7-1t-3-6Zm0-291q0-4 3-8t8-5q43-12 72.5-35.5T279 316q31 0 55 10t46.5 21.5q22.5 11.5 46 21.5t53.5 10q30 0 53.5-10t46-21.5Q602 336 626 326t56-10q59 0 88 23.5t73 35.5q5 1 8 5t3 8q0 4-3 6t-7 1q-44-10-76-34t-86-24q-29 0-52.5 9.5T583 368q-23 12-47.5 22T480 400q-31 0-55.5-10T377 368q-23-12-46.5-21.5T279 337q-55 0-87 24t-76 34q-4 1-7-1t-3-6Zm0 145q0-4 3.5-7.5t7.5-5.5q44-10 73-34.5t89-24.5q31 0 55 10t46.5 22q22.5 12 46 22t53.5 10q30 0 53.5-10t46-22q22.5-12 46.5-22t56-10q59 0 88 24.5t73 34.5q4 2 7.5 5.5t3.5 7.5q0 4-3 6.5t-7 1.5q-44-10-76-34.5T682 482q-29 0-52.5 10T583 513.5Q560 525 535.5 535T480 545q-31 0-55.5-10T377 513.5Q354 502 330.5 492T279 482q-55 0-87 24.5T116 541q-4 1-7-1.5t-3-6.5Z"/></svg>