<svg xmlns="http://www.w3.org/2000/svg" width="48" height="48" viewBox="0 96 960 960"><path d="M766 851 555 641q-4-4.128-4-9.564t3.88-9.436q3.88-4 9.5-3.5T573 622l211 211q4 3.846 4 8.923t-4 9.577q-4 4.5-9.077 4.5T766 851Zm-188 5q-11.975 0-19.487-7.513Q551 840.975 551 829v-70l97 97h-70Zm-360 0q-11.975 0-19.488-7.513Q191 840.975 191 829V473h-2.565Q179 473 175 464t3-16l126-126q2-2 9.857-4Q315 318 324 322l126 126q7 7 3.107 16t-13.393 9H437v356q0 11.975-7.513 19.487Q421.975 856 410 856H218Zm28-177h136V473H246v206Z"/></svg>