<svg xmlns="http://www.w3.org/2000/svg" width="48" height="48" viewBox="0 -960 960 960"><path d="M664-225h77v-77h-77v77Zm0-105h77v-77h-77v77Zm105 105h77v-77h-77v77Zm-107 28q-11.5 0-18.75-7.25T636-223v-187q0-10.5 7.25-17.75T662-435h82q10.5 0 17.75 7.25T769-410v80h80q10.5 0 17.75 7.25T874-305v82q0 11.5-7.25 18.75T849-197H662Zm-182-19q-10 0-19.5-3.5t-16.204-10.204L120-555q-8-7-12.5-17.5T103-594q0-13 6.034-24.435Q115.069-629.87 126-639q79-53 168.333-81 89.334-28 185.5-28Q576-748 665.5-720t168.248 80.75Q845-631 851.5-619.5 858-608 858-595q0 11-4.5 21.5T841-555l-21 21q-4.926 5.25-10.463 6.625Q804-526 798-528q-13-3-26.333-4.5Q758.333-534 745-534q-91.597 1-155.298 65.202Q526-404.597 525-314q0 13.333 1.5 26.667Q528-274 531-261q1 6-.5 12t-5.5 10l-9 9q-7 7-16.5 10.5T480-216Z"/></svg>