<svg xmlns="http://www.w3.org/2000/svg" width="48" height="48" viewBox="0 -960 960 960"><path d="M488-202q-3 3-7.5 3.5T472-202L84-590q-2-2-3-4.5t-2-4.5q0-2 1.5-4.5T84-607q85-70 187.5-105.5T480-748q106 0 208.5 35T876-608q2 1 3.5 3.5t1.5 4.5q-1 2-1.5 4.5T877-591l-7 6q-82-66-183.5-103.5T480-726q-108 0-204 36t-169 93l381 380q4 4 4 8t-4 7Zm360-19-99-100q-13 12-31.5 19t-37.5 7q-43 0-74-31t-31-74q0-43 31-74t74-31q43 0 74 31t31 74q0 17-6 34.5T764-337l99 100q4 4 4 8t-4 8q-4 4-8 4t-7-4Zm-168-96q34 0 58.5-24.5T763-400q0-34-24.5-58.5T680-483q-34 0-58.5 24.5T597-400q0 34 24.5 58.5T680-317ZM480-209Z"/></svg>