<svg xmlns="http://www.w3.org/2000/svg" width="48" height="48" viewBox="0 96 960 960"><path d="M660 554q-11 0-19.5-8.5T632 526q0-11 8.5-19.5T660 498q11 0 19.5 8.5T688 526q0 11-8.5 19.5T660 554ZM554.778 438.071q-3.778-3.94-3.278-10.005.5-6.066 4.311-9.177 23.762-15.94 49.995-24.915Q632.038 385 660.019 385t54.19 8.974q26.21 8.975 49.98 24.915Q768 422 768.5 428t-3.389 9.889Q762 442 757.344 442.5q-4.656.5-9.344-2.5-19.684-12.92-41.937-20.96Q683.81 411 659.905 411t-46.063 8.04Q591.684 427.08 572 440q-4.688 3-9.344 2.5t-7.878-4.429Zm-82.889-84Q468 350.409 468 344.205 468 338 472 334q39.948-31.644 88.258-48.822Q608.568 268 659.784 268q51.216 0 99.679 17.178Q807.925 302.356 848 334q4 3.765 4 9.882 0 6.118-4 10.065-4 4.047-9 4.55-5 .503-9.227-3.891-36.09-29.258-79.398-44.932Q707.068 294 659.799 294q-47.268 0-90.515 15.776Q526.038 325.552 490 355q-4 4-9 3.5t-9.111-4.429ZM743 878q-95 0-196-53T363 689.5q-83-82.5-136-183T174 311q0-18.429 12.286-30.714Q198.571 268 217 268h73q18 0 30.5 10.5T337 307l19 78q3 16-1 29t-13.743 20.832L256 513q60 100 131 170t168 123l83-87q10-11 21.5-15t25.5-1l62 14q18.312 3.375 28.656 16.287Q786 746.2 786 765v70q0 18.429-12.286 30.714Q761.429 878 743 878ZM244 494l85-77q4-4 5.5-11t.5-13l-20-87q-1-8-6.5-12t-13.5-4h-86q-6 0-10 4t-4 10q-1 40 12 88.5T244 494Zm506 363q6 0 10-4t4-10v-84q0-8-4-13.5t-12-6.5l-71-14q-6-2-10.5-.5T657 731l-82 85q42 22 92 31.5t83 9.5Zm-175-41ZM244 494Z"/></svg>