<svg xmlns="http://www.w3.org/2000/svg" width="48" height="48" viewBox="0 -960 960 960"><path d="M459-92q0-11 12.737-16.5Q484.475-114 509-114v-249h11q25 0 45-14.5t28-37.5l128 32q6 2 10.5 4.5t6.5 7.5l91 165q7 12 5.133 24.805Q832.267-168.39 822-159q-11 11-27 10.5T767-160L553-375q-5 3-10.5 4.5T531-367v253q25 0 37.5 5.625T581-92H459Zm-276-83q-4.675 0-7.837-3.228-3.163-3.228-3.163-8t3.163-7.772q3.162-3 7.837-3h126q4.675 0 7.838 3.228 3.162 3.228 3.162 8T316.838-178q-3.163 3-7.838 3H183Zm134-165-180-51q-13-4-20.5-14.413Q109-415.825 109-429q0-17 11-28t28-11h300q-2 7-3.5 13.523Q443-447.955 443-440q0 8 1.5 15.5T449-410l-110 68q-4 3-9.5 3.5T317-340Zm203.059-47Q498-387 482.5-402.441q-15.5-15.441-15.5-37.5Q467-462 482.441-477.5q15.441-15.5 37.5-15.5Q542-493 557.5-477.559q15.5 15.441 15.5 37.5Q573-418 557.559-402.5q-15.441 15.5-37.5 15.5ZM561-505q-9-6-19.5-9t-21.663-3H513q-3 0-7 1v-140q0-5 2-10.5t7-9.5l137-128q9.857-10.214 22.929-11.607Q688-817 699.143-810.101q13.714 8.624 17.786 24.362Q721-770 713-756L561-505Zm-458-98q-4.675 0-7.838-3.228-3.162-3.228-3.162-8T95.162-622q3.163-3 7.838-3h126q4.675 0 7.837 3.228 3.163 3.228 3.163 8T236.837-606q-3.162 3-7.837 3H103Zm120-160q-4.675 0-7.837-3.228-3.163-3.228-3.163-8t3.163-7.772q3.162-3 7.837-3h166q4.675 0 7.838 3.228 3.162 3.228 3.162 8T396.838-766q-3.163 3-7.838 3H223Z"/></svg>