<svg xmlns="http://www.w3.org/2000/svg" width="48" height="48" viewBox="0 -960 960 960"><path d="M431-133v-213h-86q-13.867 0-22.433-11.5Q314-369 319-382l91-247q7.942-21.692 27.221-34.346Q456.5-676 479.75-676q23.25 0 42.731 12.654T550-629l91 247q5 13-3.567 24.5Q628.867-346 615-346h-86v213q0 11.5-8.25 19.25T502-106h-44q-10.5 0-18.75-7.75T431-133Zm49.08-601q-26.48 0-44.28-18.22-17.8-18.221-17.8-43.7 0-26.48 17.72-44.28 17.721-17.8 44.2-17.8 26.48 0 44.28 17.72 17.8 17.721 17.8 44.2 0 25.48-17.72 43.78-17.721 18.3-44.2 18.3Z"/></svg>