<svg xmlns="http://www.w3.org/2000/svg" width="48" height="48" viewBox="0 -960 960 960"><path d="M394-668h172v-54q0-14-9-23t-23-9H426q-14 0-23 9t-9 23v54ZM720-94q-61 0-103.5-42.5T574-240q0-61 42.5-103.5T720-386q61 0 103.5 42.5T866-240q0 61-42.5 103.5T720-94Zm-534-78q-22.775 0-38.387-15.613Q132-203.225 132-226v-388q0-22.775 15.613-38.388Q163.225-668 186-668h186v-54q0-23 15.612-38.5Q403.225-776 426-776h108q22.775 0 38.388 15.5Q588-745 588-722v54h186q22.775 0 38.388 15.612Q828-636.775 828-614v149q0 12-9.906 18T797-445q-18-7-38-11t-39-4q-90.871 0-155.436 64.564Q500-330.871 500-240q0 10 .5 19.5T504-202q1 12-6 21t-18 9H186Zm534.5 20q7.5 0 13-5t5.5-13q0-8-5.5-13.5t-13-5.5q-8.5 0-14 5.5T701-170q0 8 5.5 13t14 5Zm-.5-73q6 0 9.5-4t3.5-10.471v-75.058q0-6.471-3.3-9.971T720-328q-6 0-9.5 3.429-3.5 3.428-3.5 10V-238q0 5 3.3 9t9.7 4Z"/></svg>