<svg xmlns="http://www.w3.org/2000/svg" width="48" height="48" viewBox="0 -960 960 960"><path d="M480-828q6.172 0 13.086.5Q500-827 507-826.325V-805q-7-.5-13.5-1.25T480-807q-109 0-180 74t-71 187q0 77 69 182.5T480-161q110-95 178.5-198T730-540v-7h22.642q0 2 .179 3.5T753-540q-3 78-64 174.5T507-155q-5.642 5-13.094 7.5Q486.453-145 479-145q-7 0-14-2t-13-7q-29-27-71-70t-81-95q-39-52-66.5-110.5T206-546q0-120 79-201t195-81Zm0 274Zm234-184 76 76q3 3 7.5 3.5t8.5-3.5q4-4 4-8t-4-8l-76-76 76-76q3-3 3.5-7.5T806-846q-4-4-8-4t-8 4l-76 76-76-76q-3-3-7.5-3.5T622-846q-4 4-4 8t4 8l76 76-76 76q-3 3-3.5 7.5t3.5 8.5q4 4 8 4t8-4l76-76ZM480.177-497Q504-497 520.5-513.677t16.5-40.5Q537-578 520.323-594.5t-40.5-16.5Q456-611 439.5-594.323t-16.5 40.5Q423-530 439.677-513.5t40.5 16.5Z"/></svg>