<svg xmlns="http://www.w3.org/2000/svg" width="48" height="48" viewBox="0 96 960 960"><path d="M480 862q71.803 0 129.901-52.5Q668 757 678 685q0-9-6-15t-15-6q-72 10-124.5 68.099Q480 790.197 480 862Zm0 0q0-71.803-52.5-129.901Q375 674 304 664q-10 0-16 6t-6 15q10 72 68.099 124.5Q408.197 862 480 862Zm0-215q23 0 37-14.5t14-37.5v-4q6 4 14 6.5t17 2.5q23 0 38-15t15-38.435Q615 530 607 518t-21-19q12.944-6 20.972-19T615 450q0-23-15-38t-38-15q-9 0-17 2.5t-14 7.5v-7q0-23-14-37t-37-14q-23 0-37 14t-14 37v7q-6-5-14-7.5t-17-2.5q-23 0-38 15t-15 38.435Q345 467 353 479t21 20.5q-13 5.5-21 18t-8 29.5q0 23 15 38t38 15q9 0 17-2.5t14-6.5v4q0 23 14 37.5t37 14.5Zm0-60q-37.387 0-63.194-26.119Q391 534.761 391 498.977 391 462 416.806 436q25.807-26 63.194-26t63.194 25.764Q569 461.528 569 498.854 569 535 543.194 561 517.387 587 480 587ZM186 924q-22.775 0-38.387-15.612Q132 892.775 132 870V282q0-22.775 15.613-38.388Q163.225 228 186 228h588q22.775 0 38.388 15.612Q828 259.225 828 282v588q0 22.775-15.612 38.388Q796.775 924 774 924H186Zm0-22h588q14 0 23-9t9-23V282q0-14-9-23t-23-9H186q-14 0-23 9t-9 23v588q0 14 9 23t23 9Zm-32 0V250v652Z"/></svg>