<svg xmlns="http://www.w3.org/2000/svg" width="48" height="48" viewBox="0 -960 960 960"><path d="M184-603q-4.675 0-7.837-3.228-3.163-3.228-3.163-8t3.163-7.772q3.162-3 7.837-3h136L171-774q-3-3-3.5-7.5t3.5-8.5q4-4 8-4t8 4l149 149v-136q0-4.675 3.228-7.838 3.228-3.162 8-3.162t7.772 3.162q3 3.163 3 7.838v147q0 11.475-8.25 19.237Q341.5-603 331-603H184Zm594 0H631q-11.475 0-19.237-7.763Q604-618.525 604-630v-147q0-4.675 3.228-7.838 3.228-3.162 8-3.162t7.772 3.162q3 3.163 3 7.838v136l149-149q3-3 7.5-3.5t8.5 3q4 3.5 4 8t-4 8.5L642-625h136q4.675 0 7.838 3.228 3.162 3.228 3.162 8T785.838-606q-3.163 3-7.838 3ZM171-170q-4-4-4-8t4-8l149-149H184q-4.675 0-7.837-3.228-3.163-3.228-3.163-8t3.163-7.772q3.162-3 7.837-3h147q10.5 0 18.75 7.763Q358-341.475 358-330v147q0 4.675-3.228 7.837-3.228 3.163-8 3.163T339-175.163q-3-3.162-3-7.837v-136L187-170q-3 3-7.5 3.5T171-170Zm443.772-2Q610-172 607-175.163q-3-3.162-3-7.837v-147q0-11.475 7.763-19.237Q619.525-357 631-357h147q4.675 0 7.838 3.228 3.162 3.228 3.162 8T785.838-338q-3.163 3-7.838 3H642l149 149q3 3 3.5 7.5T791-170q-4 4-8 4t-8-4L626-319v136q0 4.675-3.228 7.837-3.228 3.163-8 3.163Z"/></svg>