<svg xmlns="http://www.w3.org/2000/svg" width="48" height="48" viewBox="0 96 960 960"><path d="M448.565 648.63h62.87v-120h120V466h-120V346h-62.87v120h-120v62.63h120v120ZM480 891.5q130.933-119.407 193.434-216.605 62.501-97.198 62.501-170.972 0-115.97-74.099-189.914-74.099-73.944-181.782-73.944t-181.836 73.959q-74.153 73.959-74.153 189.951 0 73.829 64.007 170.908Q352.078 771.961 480 891.5Zm0 89.761Q317.087 842.587 236.511 723.768q-80.576-118.819-80.576-219.799 0-151.845 97.719-241.94 97.719-90.094 226.324-90.094 128.605 0 226.346 90.094 97.741 90.095 97.741 241.94 0 100.98-80.576 219.799T480 981.261ZM480 504Z"/></svg>