<svg xmlns="http://www.w3.org/2000/svg" width="48" height="48" viewBox="0 -960 960 960"><path d="M731.522-638.5v-128h-128V-832h128v-128h65.5v128h128v65.5h-128v128h-65.5ZM480.008-488.565q29.47 0 50.449-20.987 20.978-20.986 20.978-50.456 0-29.47-20.987-50.449-20.986-20.978-50.456-20.978-29.47 0-50.449 20.987-20.978 20.986-20.978 50.456 0 29.47 20.987 50.449 20.986 20.978 50.456 20.978ZM480-74.739Q317.087-213.413 236.511-332.232q-80.576-118.819-80.576-219.799 0-151.845 97.726-241.94Q351.387-884.065 480-884.065q24.06 0 46.88 3.13 22.821 3.131 45.642 9.391V-736.5h129v128h98.022q1.76 16 3.141 30.522 1.38 14.522 1.141 30.522-1.674 100.239-82.13 217.858Q641.239-211.978 480-74.739Z"/></svg>