<svg xmlns="http://www.w3.org/2000/svg" width="48" height="48" viewBox="0 -960 960 960"><path d="M713.217-177.37h38.261v-110h110v-38.26h-110v-110h-38.261v110h-110v38.26h110v110ZM730.862-120q-78.014 0-133.014-54.698-55-54.697-55-132.302 0-78.435 54.986-133.717Q652.82-496 730.834-496q78.014 0 133.014 55.283 55 55.282 55 133.717 0 77.605-54.986 132.302Q808.876-120 730.862-120Zm-576.84-74.022v-489.087L480-927.652l326.218 244.543v140.218q-15.914-6.435-33.319-10.272Q755.493-557 737.848-557q-106 0-180.5 72.5t-74.5 177.5q0 29.848 7.337 57.935 7.337 28.087 21.011 55.043H154.022Z"/></svg>