<svg xmlns="http://www.w3.org/2000/svg" width="48" height="48" viewBox="0 96 960 960"><path d="M698.196 353h60v-60h-60v60ZM732.5 936Q655 936 600 880.5T545 749q0-78.435 54.99-133.718Q654.98 560 733 560q77 0 132.5 55.282Q921 670.565 921 749q0 76-55.5 131.5t-133 55.5Zm-17.13-57.37h38.26v-110h110v-38.26h-110v-110h-38.26v110h-110v38.26h110v110Zm208.695-287.086q-35.239-43.674-85.408-67.609Q788.488 500 733 500q-23.414 0-46.289 4.5-22.874 4.5-44.515 13.261v-87.718L403.565 262.652V133.37h520.5v458.174ZM35.695 858.63V464.565l273.87-195.913 272.631 195.913v87.957q-45.742 35.286-71.469 86.523Q485 690.283 485 748.922q0 28.382 6.859 56.306 6.858 27.924 19.576 53.402h-121.87V632.37h-160v226.26H35.695Z"/></svg>