<svg xmlns="http://www.w3.org/2000/svg" width="48" height="48" viewBox="0 -960 960 960"><path d="M469.435-231.869q-100.065-4.283-168.816-75.794-68.75-71.511-68.75-172.431 0-103.409 72.272-175.842Q376.413-728.37 480-728.37q100.739 0 172.293 68.989 71.555 68.99 76.077 170.055L659.63-511q-10.76-65.196-60.717-108.413-49.956-43.217-119.014-43.217-75.999 0-129.264 53.217-53.265 53.217-53.265 129.35 0 68.174 43.217 118.434 43.217 50.259 108.174 61.259l20.674 68.501Zm48.717 160.87q-9.538 1-18.956 1.5-9.419.5-19.196.5-85.152 0-160.177-32.315-75.025-32.315-130.609-87.9-55.585-55.584-87.9-130.609Q69-394.848 69-480q0-85.152 32.314-160.177 32.315-75.025 87.9-130.609 55.584-55.585 130.609-87.9Q394.848-891 480-891q85.152 0 160.177 32.314 75.025 32.315 130.609 87.9 55.585 55.584 87.9 130.609Q891-565.152 891-480q0 9.797-.5 19.355t-1.5 19.036l-63.5-19.514V-480q0-144.069-100.733-244.784Q624.034-825.5 479.941-825.5T235.174-724.767Q134.5-624.034 134.5-479.941t100.716 244.767Q335.931-134.5 480-134.5h18.717L518.152-71ZM823.63-54.5 651.327-226.936l-50.131 151.48L480-480l404.544 121.196-151.479 50.131L905.5-136.37 823.63-54.5Z"/></svg>