<svg xmlns="http://www.w3.org/2000/svg" width="48" height="48" viewBox="0 -960 960 960"><path d="M34.02-235.65q8-107.44 65.84-199.25 57.84-91.82 153.03-145.3L176.9-710.9q-2.97-9.21-.47-18.33 2.5-9.12 10.74-14.12 9.35-5.24 19.79-2.12 10.45 3.12 15.69 12.12l74.96 128.92q86.98-37.48 182.4-37.48t182.62 37.48l75.72-128.92q5.24-9 15.79-12.12 10.56-3.12 19.99 2.12 7.94 5 11.55 14.62 3.62 9.62-1.61 17.86L707.11-580.2q95.19 53.48 153.06 145.28 57.86 91.8 66.05 199.27H34.02Zm278.71-126.58q15.12-15.14 15.12-35.48 0-20.33-15.12-35.57-15.12-15.24-35.46-15.24-20.33 0-35.48 15.24-15.14 15.24-15.14 35.57 0 20.34 15.14 35.48 15.15 15.14 35.48 15.14 20.34 0 35.46-15.14Zm405.48 0q15.14-15.14 15.14-35.48 0-20.33-15.14-35.57-15.14-15.24-35.48-15.24-20.34 0-35.58 15.24-15.24 15.24-15.24 35.57 0 20.34 15.24 35.48 15.24 15.14 35.58 15.14 20.34 0 35.48-15.14Z"/></svg>