<svg xmlns="http://www.w3.org/2000/svg" width="48" height="48"><path d="M17.75 44.55q-2.35 0-4.05-1.425Q12 41.7 11.25 39.55q-.65-1.85-1.725-2.725Q8.45 35.95 7 35.95q-1.4 0-2.15.3t-1.4.85L1.1 35.15q1.15-1.1 2.475-1.675Q4.9 32.9 7 32.9q2.4 0 4.3 1.4t2.65 3.6q.5 1.6 1.45 2.6t2.35 1q1.05 0 1.95-.5.9-.5 1.6-1.6L6.55 20.65q-.4-.5-.575-1.1-.175-.6-.125-1.2.05-.6.275-1.175.225-.575.675-1.025L20.85 2.1q.55-.45 1.175-.7.625-.25 1.275-.25.65 0 1.275.225.625.225 1.125.725l14.05 14.05q.45.45.7 1.025.25.575.3 1.225.1.6-.075 1.175-.175.575-.625 1.075l-2.8 3.55L41 27.95q.25.2.375.5t.125.6q0 .25-.075.55-.075.3-.275.55L33.7 40.1q-2.1 2.75-3.825 3.6-1.725.85-3.025.85-.75 0-1.25-.075t-.95-.225V41.2q.55.1 1.15.2.6.1 1.05.1 1 0 2.025-.775T31.55 37.8l-2.4-3.25-5.2 6.65q-1.45 1.8-3 2.575-1.55.775-3.2.775zm5.55-7.5 3.9-5-1.4-1.9q-.4-.5-.35-1.125.05-.625.55-1.075l6.25-6.3q.5-.45 1.1-.5.6-.05 1.15.3l.6.6 2.75-3.5L23.3 4.1 8.75 18.55zm10.2-1.8L38 29.3l-4.5-4.55-4.55 4.55zm0-5.2zm-9.6-9.4z"/></svg>