<svg xmlns="http://www.w3.org/2000/svg" width="48" height="48" viewBox="0 -960 960 960"><path d="M114.02-114.02v-241h68.13v124.13l143.94-143.94 48.74 48.74-143.94 143.94h124.13v68.13h-241Zm490.96 0v-68.13h124.13L586.17-325.09l48.74-48.74 142.94 142.94v-124.13h68.37v241H604.98ZM325.09-586.17 182.15-729.11v124.13h-68.13v-241.24h241v68.37H230.89l142.94 142.94-48.74 48.74Zm309.82 0-48.74-48.74 142.94-142.94H604.98v-68.37h241.24v241.24h-68.37v-124.13L634.91-586.17ZM480.95-410.85q-28.96 0-49.53-20.14-20.57-20.15-20.57-49.06 0-28.91 20.62-49 20.62-20.1 49.58-20.1 28.13 0 48.12 20.14 19.98 20.15 19.98 49.06 0 28.91-20.03 49-20.04 20.1-48.17 20.1Z"/></svg>