<svg xmlns="http://www.w3.org/2000/svg" width="48" height="48" viewBox="0 -960 960 960"><path d="M616.83-180.75Q587-210.59 587-258.67t29.8-77.91q29.8-29.83 77.83-29.83 16.47 0 29.76 3.8 13.28 3.81 23.61 11.24v-217.24h137.5v65.5h-83v244.33q0 48.19-29.84 78.03-29.83 29.84-77.92 29.84-48.08 0-77.91-29.84ZM285.49-527.73q-43.62-43.63-43.62-112.31t43.62-112.35q43.63-43.68 112.31-43.68t112.35 43.68q43.68 43.67 43.68 112.35 0 68.68-43.68 112.31-43.67 43.62-112.35 43.62-68.68 0-112.31-43.62ZM71.87-150.91v-100.46q0-33.6 17.84-64.57 17.83-30.97 53.27-46.69 75.24-33 134.58-46.74 59.34-13.74 120.29-13.74 49.7 0 95.56 8.46 45.85 8.45 95 27.85-57.78 44.8-67.81 115.03-10.03 70.23 40.6 120.86H71.87Z"/></svg>