<svg xmlns="http://www.w3.org/2000/svg" width="48" height="48" viewBox="0 -960 960 960"><path d="M432.34-497.6q8.86-9.03 8.86-22.58 0-13.54-9.04-22.4-9.03-8.85-22.43-8.85t-22.28 9.03q-8.88 9.03-8.88 22.58 0 13.54 9.05 22.4 9.06 8.85 22.46 8.85t22.26-9.03Zm-140.38 0q9-9.03 9-22.58 0-13.54-9.18-22.4-9.18-8.85-22.58-8.85-13.4 0-22.25 9.03-8.86 9.03-8.86 22.58 0 13.54 9.03 22.4 9.04 8.85 22.43 8.85 13.4 0 22.41-9.03Zm258.43 9.03q13.33 0 22.19-9.03 8.85-9.03 8.85-22.58 0-13.54-9-22.4-9.01-8.85-22.34-8.85t-22.31 9.03q-8.98 9.03-8.98 22.58 0 13.54 9.13 22.4 9.13 8.85 22.46 8.85Zm162.66-9.03q8.86-9.03 8.86-22.58 0-13.54-9.03-22.4-9.04-8.85-22.43-8.85-13.4 0-22.41 9.03-9 9.03-9 22.58 0 13.54 9.18 22.4 9.18 8.85 22.58 8.85 13.4 0 22.25-9.03Zm-570.9 195.45h675.7v-435.7h-675.7v435.7Zm337.85 151q-104.02 0-174.04-13.82-70.03-13.82-70.03-35.05v-34H74.02v-572.2h812.2v572.2H724.07v34q0 21.23-70.03 35.05-70.02 13.82-174.04 13.82Zm-337.85-151v-435.7 435.7Z"/></svg>