<svg xmlns="http://www.w3.org/2000/svg" width="48" height="48" viewBox="0 96 960 960"><path d="m483.239 736.826 154.109-154.348-45.87-45.63-79.326 75.565V421.37h-64.065v191.043l-75.326-75.565-45.87 45.63 156.348 154.348Zm-369.217 205.87V210.5h267.152q6.435-35.239 34.152-57.62Q443.043 130.5 480 130.5q36.957 0 64.674 22.38 27.717 22.381 34.152 57.62h267.392v732.196H114.022ZM480 260.913q14.829 0 25.632-10.803t10.803-25.632q0-14.59-10.803-25.512-10.803-10.923-25.632-10.923t-25.632 10.923q-10.803 10.922-10.803 25.512 0 14.829 10.803 25.632T480 260.913Z"/></svg>