<svg xmlns="http://www.w3.org/2000/svg" width="48" height="48" viewBox="0 -960 960 960"><path d="M114.022-114.022v-732.196h267.152q6.435-35 34.152-57.5 27.717-22.5 64.674-22.5 36.957 0 64.674 22.5 27.717 22.5 34.152 57.5h267.392v403.349q-15.914-9.913-33.446-16.109-17.533-6.196-34.924-9.668v-309.202H182.152v595.696h304.436q3.542 18.152 9.043 35.596 5.501 17.444 13.412 32.534H114.022Zm68.13-109.391v41.261-595.696 309.196-3.761 249Zm100-58.739h207.891q4.24-16 9.689-31 5.45-15 14.225-29H282.152v60Zm0-167.848h343.761q13.044-5.565 25.087-9.228 12.043-3.663 26.848-7.424V-510H282.152v60Zm0-167.848h395.696v-60H282.152v60ZM480-795.565q14.829 0 25.632-10.803T516.435-832q0-14.829-10.803-25.632T480-868.435q-14.829 0-25.632 10.803T443.565-832q0 14.829 10.803 25.632T480-795.565ZM730.348-37.652q-77.5 0-132.5-55.5t-55-131.5q0-78.196 54.99-133.598 54.99-55.402 133.01-55.402 77 0 132.5 55.402t55.5 133.598q0 76-55.5 131.5t-133 55.5Zm-17.131-57.37h38.261v-110h110v-38.261h-110v-110h-38.261v110h-110v38.261h110v110Z"/></svg>