<svg xmlns="http://www.w3.org/2000/svg" width="48" height="48" viewBox="0 -960 960 960"><path d="M284.43-267.7q-41.43 35.2-86.6 31.58-45.18-3.62-78.25-31.58-33.08-27.95-44.18-72.01-11.1-44.05 17.1-90.96l80.8-135.09q-26.76-21.72-42.52-53.71-15.76-31.99-15.76-68.66 0-65.83 46.54-112.46 46.54-46.63 112.24-46.63 65.44 0 112.11 46.67 46.68 46.68 46.68 112.23 0 65.56-46.68 112.23-46.67 46.68-112.11 46.68-10.42 0-20.84-1.38-10.43-1.38-19.48-4.38l-83.05 139.56q-13.28 22.04-8.35 42.97t20.79 33.98q15.86 13.05 37.06 14.54 21.2 1.49 40.24-14.79L675.8-693.07q41.68-35.43 87.35-32.43 45.68 3 78.63 31.2 32.96 28.19 43.82 72.8 10.86 44.6-17.1 91.17L788.93-395q26.77 21.48 42.53 53.41 15.76 31.94 15.76 68.67 0 65.75-46.98 112.33-46.98 46.57-112.97 46.57-65.99 0-111.92-46.54-45.94-46.54-45.94-112.24 0-65.44 45.94-112.11 45.93-46.68 111.96-46.68 10.05 0 19.89.88t19.56 3.64l83.04-138.32q13.29-21.81 8.11-42.83-5.18-21.03-21.04-33.97-15.87-12.94-37.05-14.44-21.19-1.5-39.75 14.54L284.43-267.7Zm328.77 11.18q37.69 0 64.6-26.59 26.92-26.58 26.92-64.11 0-37.52-26.92-63.94-26.91-26.43-64.72-26.43-37.82 0-63.74 26.58-25.93 26.57-25.93 64.23 0 37.41 25.92 63.83 25.91 26.43 63.87 26.43ZM348.22-523.41q37.52 0 63.94-26.58 26.43-26.57 26.43-64.23 0-37.41-26.58-63.95-26.57-26.55-64.23-26.55-37.41 0-63.83 26.71-26.43 26.7-26.43 64.23 0 37.52 26.59 63.94 26.58 26.43 64.11 26.43Zm265.84 176.47ZM347.94-614.06Z"/></svg>