<svg xmlns="http://www.w3.org/2000/svg" width="48" height="48" viewBox="0 -960 960 960"><path d="M229.239-109.956q-62.152 0-99.087-48.294-36.935-48.293-21.457-107.685l72.479-273.674q-33.479-21.717-54.74-58.434-21.26-36.718-21.26-81.957 0-67.674 47.956-115.75 47.957-48.076 115.87-48.076h456.891L562.065-516.174H433.5l-13 50.239h44.956v146.457h-84.869l-30.565 117.217q-11.479 40.913-44.794 66.609-33.315 25.696-75.989 25.696ZM768.348-773l-18.435-39.348 130.109-59.435 17.435 40.348L768.348-773Zm111.674 284.544-130.109-58.435L768.348-587l129.109 59.435-17.435 39.109Zm-106.435-169.87v-43.587h143.587v43.587H773.587Z"/></svg>