<svg xmlns="http://www.w3.org/2000/svg" width="48" height="48" viewBox="0 -960 960 960"><path d="M732.08-610.24q-19.6-19.48-19.6-46.31 0-26.84 19.6-46.44 19.59-19.6 46.43-19.6t46.44 19.6q19.59 19.6 19.59 46.44 0 26.83-19.59 46.31-19.6 19.48-46.44 19.48-26.84 0-46.43-19.48Zm-597.15 0q-19.47-19.48-19.47-46.31 0-26.84 19.47-46.44 19.48-19.6 46.44-19.6 26.96 0 46.43 19.6 19.48 19.6 19.48 46.44 0 26.83-19.48 46.31-19.47 19.48-46.43 19.48t-46.44-19.48Zm211.98-37.17q8-37.96 2.74-61.12-5.26-23.17-30.74-57.12-30.24-39.24-39-73.52-8.76-34.29-1-89.24h41q-6.24 54.15-.98 77.83 5.27 23.69 29.98 56.17 29 38.24 38.5 73.12t1.5 73.88h-42Zm120 0q8-38.72 2.74-62-5.26-23.29-30.74-56.24-30.24-39.24-39-73.52-8.76-34.29-1-89.24h40q-8.48 45-1.59 73.26 6.88 28.26 32.59 60.74 28.76 37 37.88 72 9.12 35 1.12 75h-42Zm120 0q8-38.72 2.74-62-5.26-23.29-30.74-56.24-30.24-39.24-39-73.52-8.76-34.29-1-89.24h40q-7.48 43-.59 72.14 6.88 29.14 31.59 61.86 28.76 37 37.88 72 9.12 35 1.12 75h-42ZM71.87-278.37v-170h43.59v-21.56q0-30.68 21.33-52.14 21.34-21.45 52.01-21.45 17.2 0 32.4 6.6 15.19 6.59 26.91 18.55l61.48 70h340.58l61.72-70q11.48-11.96 26.68-18.55 15.19-6.6 32.63-6.6 30.43 0 51.89 21.45 21.45 21.46 21.45 52.14v21.56h43.83v170H71.87Zm0 206.5V-210h816.5v138.13H71.87Z"/></svg>