<svg xmlns="http://www.w3.org/2000/svg" width="48" height="48" viewBox="0 -960 960 960"><path d="M146.891-108.521q-48.145 0-81.583-33.479-33.439-33.478-33.439-81.304v-513.392q0-47.826 33.439-81.304 33.438-33.479 81.583-33.479H480q47.926 0 81.474 33.479 33.548 33.478 33.548 81.304v287.261h59.522q30.453 0 52.139 21.687 21.687 21.686 21.687 52.139v131.587q0 12.618 8.141 20.831t20.663 8.213q12.426 0 20.735-8.213t8.309-20.831v-298.369q-33.196-.718-57.794-21.174-24.598-20.457-24.598-52.685v-112.12h40v-82.152h45.022v82.152h60v-82.152h45.022v82.152h40v112.12q0 32.228-24.718 52.685-24.717 20.456-57.673 21.174v294.329q0 39.514-27.457 66.93-27.456 27.415-67.108 27.415-39.653 0-66.968-27.348-27.316-27.349-27.316-66.957v-139.913h-67.608V-199q0-65.723-45.312-110.97-45.313-45.247-110.667-45.247H249.522q-39.833 0-67.188 27.41-27.356 27.411-27.356 67.109 0 39.698 27.356 67.013 27.355 27.316 67.188 27.316h189.521q13.868 0 23.25-9.466 9.381-9.465 9.381-23.458 0-13.902-9.381-23.239-9.382-9.337-23.25-9.337H249.532q-12.436 0-20.745-8.278-8.309-8.278-8.309-20.663t8.309-20.646q8.309-8.261 20.745-8.261h189.511q38 0 64.24 26.239 26.239 26.239 26.239 64.478 0 38.239-26.239 64.359-26.24 26.12-64.24 26.12H146.891Z"/></svg>