<svg xmlns="http://www.w3.org/2000/svg" width="48" height="48" viewBox="0 -960 960 960"><path d="m323.28-243.35 79.76-380.5-93.34 40.13v88.94h-65.79v-132.05l187.7-79.56q14.96-6.24 31.17-7.98 16.22-1.74 31.94 1.02 17.71 3.24 30.93 11.36 13.22 8.12 21.7 21.08l42 66.24q26.24 41.95 65.94 72.12 39.71 30.16 68.43 30.16v64.78q-41.44-2-94.48-33.62-53.04-31.62-95.81-90.14l-24.84 94.89 92 83v150.13h-64.55v-117.22l-97.13-88.6-50.08 205.82h-65.55Zm176.06-535.14q-21.86-21.86-21.86-52.81 0-30.96 21.86-52.94 21.86-21.98 52.81-21.98 30.96 0 52.94 21.98 21.98 21.98 21.98 52.94 0 30.95-21.98 52.81-21.98 21.86-52.94 21.86-30.95 0-52.81-21.86ZM480-74.02q-83.43 0-157.51-31.86-74.08-31.86-129.41-87.2-55.34-55.33-87.2-129.41T74.02-480q0-119.91 62.22-216.35 62.22-96.43 162.89-147.15l30.59 61.41q-84.29 41.76-135.93 122.17-51.64 80.4-51.64 179.92 0 140.28 98.78 239.07 98.79 98.78 239.07 98.78 141.04 0 239.45-98.78 98.4-98.79 98.4-239.07h68.37q0 83.43-31.98 157.51-31.98 74.08-86.82 129.41-54.83 55.34-128.91 87.2T480-74.02Z"/></svg>