<svg xmlns="http://www.w3.org/2000/svg" width="48" height="48" viewBox="0 -960 960 960"><path d="M320.239-320.239V-440.06q16.736 0 28.338-11.483 11.602-11.482 11.602-28.457t-11.602-28.457q-11.602-11.483-28.338-11.483v-119.821h319.522v119.821q-16.736 0-28.338 11.483-11.602 11.482-11.602 28.457t11.602 28.457q11.602 11.483 28.338 11.483v119.821H320.239Zm159.761-60q8 0 14-5.881 6-5.88 6-14.119 0-8-6-13.881-6-5.88-14-5.88t-14 5.88q-6 5.881-6 13.881 0 8.239 6 14.119 6 5.881 14 5.881ZM480-460q8 0 14-6t6-14q0-8-6-14t-14-6q-8 0-14 6t-6 14q0 8 6 14t14 6Zm0-80q8 0 14-5.88 6-5.881 6-13.881 0-8.239-6-14.119-6-5.881-14-5.881t-14 5.881q-6 5.88-6 14.119 0 8 6 13.881 6 5.88 14 5.88ZM194.5-34.5v-891h571v891h-571Zm68.13-98.13v30h434.74v-30H262.63Zm0-60h434.74v-574.74H262.63v574.74Zm0-634.74h434.74v-30H262.63v30Zm0 0v-30 30Zm0 694.74v30-30Z"/></svg>