<svg xmlns="http://www.w3.org/2000/svg" width="48" height="48" viewBox="0 96 960 960"><path d="M117.37 938.63v-65.26h65.26v65.26h-65.26Zm0-165v-65.26h65.26v65.26h-65.26Zm0-165v-65.26h65.26v65.26h-65.26Zm0-165v-65.26h65.26v65.26h-65.26Zm0-165v-65.26h65.26v65.26h-65.26Zm165 660v-65.26h65.26v65.26h-65.26Zm0-330v-65.26h65.26v65.26h-65.26Zm0-330v-65.26h65.26v65.26h-65.26Zm165 660v-65.26h65.26v65.26h-65.26Zm0-165v-65.26h65.26v65.26h-65.26Zm0-165v-65.26h65.26v65.26h-65.26Zm0-165v-65.26h65.26v65.26h-65.26Zm0-165v-65.26h65.26v65.26h-65.26Zm165 660v-65.26h65.26v65.26h-65.26Zm0-330v-65.26h65.26v65.26h-65.26Zm0-330v-65.26h65.26v65.26h-65.26Zm165 660V213.37h65.26v725.26h-65.26Z"/></svg>