<svg xmlns="http://www.w3.org/2000/svg" width="48" height="48" viewBox="0 -960 960 960"><path d="M780.717-114.022v-65.261h65.501v65.261h-65.501Zm-166.674 0v-65.261h65.261v65.261h-65.261Zm-166.673 0v-65.261h65.26v65.261h-65.26Zm-166.914 0v-65.261h65.501v65.261h-65.501Zm-166.434 0v-732.196h65.261v732.196h-65.261Zm666.695-166.674v-65.5h65.501v65.5h-65.501Zm-333.347 0v-65.5h65.26v65.5h-65.26ZM780.717-447.37v-65.26h65.501v65.26h-65.501Zm-166.674 0v-65.26h65.261v65.26h-65.261Zm-166.673 0v-65.26h65.26v65.26h-65.26Zm-166.914 0v-65.26h65.501v65.26h-65.501Zm500.261-166.673v-65.501h65.501v65.501h-65.501Zm-333.347 0v-65.501h65.26v65.501h-65.26Zm333.347-166.674v-65.501h65.501v65.501h-65.501Zm-166.674 0v-65.501h65.261v65.501h-65.261Zm-166.673 0v-65.501h65.26v65.501h-65.26Zm-166.914 0v-65.501h65.501v65.501h-65.501Z"/></svg>