<svg xmlns="http://www.w3.org/2000/svg" width="48" height="48"><path d="m24.05 46.7-6.8-6.6H7.9v-9.35L1.15 24l6.75-6.75V7.9h9.35l6.8-6.75 6.7 6.75h9.35v9.35L46.85 24l-6.75 6.75v9.35h-9.35zm0-13.2q-4.05 0-6.8-2.75t-2.75-6.8q0-4 2.75-6.775Q20 14.4 24.05 14.4q4 0 6.775 2.775Q33.6 19.95 33.6 23.95q0 4.05-2.775 6.8T24.05 33.5zm0-3.2q2.5 0 4.425-1.9 1.925-1.9 1.925-4.45 0-2.5-1.925-4.425Q26.55 17.6 24.05 17.6q-2.55 0-4.45 1.925-1.9 1.925-1.9 4.425 0 2.55 1.9 4.45 1.9 1.9 4.45 1.9zm0 11.6 5.25-5.2h7.4v-7.4L42 24l-5.3-5.35V11.3h-7.35L24.05 6l-5.35 5.3h-7.4v7.35L6 24l5.3 5.3v7.4h7.35zm0-17.95z"/></svg>