<svg xmlns="http://www.w3.org/2000/svg" width="48" height="48" viewBox="0 -960 960 960"><path d="M623.01-817.74q66.58 28.48 116.41 78.32 49.84 49.83 78.32 116.41 28.48 66.58 28.48 143.01 0 76.43-28.48 143.01-28.48 66.58-78.32 116.29-49.83 49.72-116.41 78.2-66.58 28.48-143.01 28.48-50.2 0-100.39-10.74-50.2-10.74-87.91-40.94l48.97-48.97q23.53 16.76 62.55 24.64 39.02 7.88 76.78 7.88 126.04 0 211.95-85.9 85.9-85.91 85.9-211.95 0-126.04-85.9-211.95-85.91-85.9-211.95-85.9-126.04 0-211.95 85.9-85.9 85.91-85.9 211.95 0 38.76 7.38 71.78t23.14 67.55l-51.21 51.21q-20.96-32.95-34.2-83.15Q114.02-422.8 114.02-480q0-76.43 28.48-143.01 28.48-66.58 78.2-116.41 49.71-49.84 116.29-78.32 66.58-28.48 143.01-28.48 76.43 0 143.01 28.48Zm-89.44 498.17v-169.32L163-118.09 118.09-163l370.8-370.57H319.57v-62.86h276.86v276.86h-62.86Z"/></svg>