<svg xmlns="http://www.w3.org/2000/svg" width="48" height="48" viewBox="0 -960 960 960"><path d="M739.283-74.022q-108 0-226.196-57.097-118.196-57.098-221.652-160.174Q187.978-393.891 131-511.492q-56.978-117.6-56.978-227.551v-67.175h228.63l42.631 197.37-122.022 120.674q27.081 43.122 55.606 80.05 28.524 36.928 59.576 68.219 35.035 35.035 74.361 65.34 39.326 30.304 83.935 54.869l121.304-124.826 188.175 41.292v229.208h-66.935ZM190.196-550.87l80.761-80.326-22.761-106.652H142.63q-.478 36.805 10.783 82.489 11.261 45.685 36.783 104.489Zm369.717 363.957q39.326 18.283 86.25 30.163 46.924 11.88 91.685 14.12v-106.001l-99.413-20.565-78.522 82.283ZM190.196-550.87Zm369.717 363.957Zm131.38-309.978q-81.01 0-137.706-56.837-56.696-56.838-56.696-137.848 0-81.011 56.837-137.826 56.838-56.816 137.848-56.816 81.011 0 137.826 57.016 56.816 57.015 56.816 137.909 0 81.01-57.016 137.706-57.015 56.696-137.909 56.696Zm-22.967-71.435h46.457v-160h-46.457v160Zm0-200h46.457v-46.457h-46.457v46.457Z"/></svg>