<svg xmlns="http://www.w3.org/2000/svg" width="48" height="48" viewBox="0 96 960 960"><path d="m396.456 1004.13-45.152-44.912 55.805-55.566H194.022v-62.63h215.087l-57.805-57.804 45.152-44.674L529.37 871.218 396.456 1004.13ZM194.022 781.37V165h572.196v616.37h-68.37v-77.892q-43.761-25.282-96.764-38.543-53.003-13.261-121.065-13.261t-120.584 13.261q-52.522 13.261-97.283 38.543v78.131l.478-.239h-68.608Zm68.13-152.392q51.283-22.282 106.307-33.543 55.025-11.261 111.545-11.261 56.279 0 111.165 11.261t106.679 33.543V233.37H262.152v395.608Zm301.196 274.674v-62.63h202.87v62.63h-202.87Zm-83.583-377.478q-46.765 0-79.265-32.735-32.5-32.736-32.5-79.5 0-46.765 32.735-79.265 32.736-32.5 79.5-32.5 46.765 0 79.265 32.735t32.5 79.5q0 46.765-32.735 79.265-32.736 32.5-79.5 32.5Zm.19-61.435q21.471 0 36.041-14.517 14.569-14.518 14.569-35.978 0-21.359-14.524-36.117-14.525-14.757-35.996-14.757-21.471 0-36.041 14.686-14.569 14.686-14.569 36.163 0 21.477 14.524 35.998 14.525 14.522 35.996 14.522ZM480 651.674Zm0-237.5Z"/></svg>