<svg xmlns="http://www.w3.org/2000/svg" width="48" height="48" viewBox="0 -960 960 960"><path d="M738.848-302.152H581.761q-5.478-16.718-11.196-33.935-5.717-17.217-11.674-28.935h117.087v-229.956H368.783q-28.928-19.828-60.718-35.399-31.791-15.572-66.282-27.471h497.065v355.696ZM480-480Zm407.218 325.978H603.152q0-16.793-1.358-33.826-1.359-17.032-4.077-34.304h221.131v-515.696H143.152v57.131q-17.272-2.718-34.304-4.077-17.033-1.358-33.826-1.358v-120.066h812.196v652.196Zm-812.196 0v-106.869q42.862 0 72.866 31.17 30.003 31.17 30.003 75.699H75.021Zm202.869 0q0-85.616-58.999-146.243-59-60.626-143.87-60.626v-62.631q110.795 0 188.147 79.101 77.353 79.101 77.353 190.399h-62.631Zm162.631 0q0-75.956-28.479-143.413-28.478-67.456-78.195-117.793-49.718-50.337-116.271-79.315-66.554-28.979-142.555-28.979v-62.63q88.784 0 166.732 34.09t136.075 92.794q58.128 58.703 91.725 137.651 33.598 78.948 33.598 167.595h-62.63Z"/></svg>