<svg xmlns="http://www.w3.org/2000/svg" width="48" height="48" viewBox="0 -960 960 960"><path d="m589.761-487.043 162.869-93.435-162.869-93.674-162.87 93.674 162.87 93.435Zm0 125.587 111.435-64.957v-87.348l-111.435 64.718-111.435-64.718v87.348l111.435 64.957ZM481-480Zm406.218 325.978H603.152q0-16.793-1.358-33.826-1.359-17.032-4.077-34.304h221.131v-515.696H143.152v57.131q-17.272-2.718-34.304-4.077-17.033-1.358-33.826-1.358v-120.066h812.196v652.196Zm-812.196 0v-106.869q42.862 0 72.866 31.17 30.003 31.17 30.003 75.699H75.021Zm202.869 0q0-85.616-58.999-146.243-59-60.626-143.87-60.626v-62.631q110.795 0 188.147 79.101 77.353 79.101 77.353 190.399h-62.631Zm162.631 0q0-75.956-28.479-143.413-28.478-67.456-78.195-117.793-49.718-50.337-116.271-79.315-66.554-28.979-142.555-28.979v-62.63q88.784 0 166.732 34.09t136.075 92.794q58.128 58.703 91.725 137.651 33.598 78.948 33.598 167.595h-62.63Z"/></svg>