<svg xmlns="http://www.w3.org/2000/svg" width="48" height="48" viewBox="0 96 960 960"><path d="M250.239 536.696 481 165l230.761 371.696H250.239ZM710.938 987q-76.392 0-128.143-51.835-51.752-51.836-51.752-128.185 0-76.35 51.724-128.263 51.723-51.913 128.185-51.913 76.461 0 128.255 51.885Q891 730.574 891 806.994q0 76.419-51.835 128.213Q787.329 987 710.938 987ZM106.13 962V645.804h316.196V962H106.13Zm604.976-43.37q46.959 0 79.242-32.367 32.282-32.367 32.282-79.326 0-46.959-32.367-79.361t-79.326-32.402q-46.959 0-79.361 32.487-32.402 32.486-32.402 79.445 0 46.959 32.487 79.242 32.486 32.282 79.445 32.282Zm-536.606-25h179.695V714.174H174.5V893.63Zm198.565-425.304h215.87L481 293.544 373.065 468.326Zm107.935 0ZM354.195 714.174Zm356.827 92.848Z"/></svg>