<svg xmlns="http://www.w3.org/2000/svg" width="48" height="48" viewBox="0 -960 960 960"><path d="M114.02-114.02V-352h68.13v169.85H352v68.13H114.02Zm493.98 0v-68.13h169.85V-352h68.37v237.98H608ZM114.02-608v-238.22H352v68.37H182.15V-608h-68.13Zm663.83 0v-169.85H608v-68.37h238.22V-608h-68.37ZM343.27-343.25q-56.25-56.23-56.25-136.69 0-80.45 56.23-136.86 56.23-56.42 136.69-56.42 80.45 0 136.86 56.4 56.42 56.39 56.42 136.85 0 80.45-56.4 136.7-56.39 56.25-136.85 56.25-80.45 0-136.7-56.23Zm225.68-47.76q35.9-35.86 35.9-88.95 0-53.08-35.86-88.99-35.86-35.9-88.95-35.9-53.08 0-88.99 35.86-35.9 35.86-35.9 88.95 0 53.08 35.86 88.99 35.86 35.9 88.95 35.9 53.08 0 88.99-35.86ZM480-480Z"/></svg>