<svg xmlns="http://www.w3.org/2000/svg" width="48" height="48" viewBox="0 -960 960 960"><path d="M33.304-86.109v-405h156.631v405H33.305Zm531.261 35.11L250.935-140v-351.109h97.826L669.435-370.63v78.021H527.761l-122.457-39.434-11.195 33.261 121.021 41.673h368.935v111.066L564.565-51Zm26.87-415.501-227.957-87.239H203.587q9.522-61.435 53.119-105.631 43.598-44.195 106.598-58.674v-94.586h-60V-881H517.37q29.717 0 57.391 9.456 27.674 9.457 52.826 26.131l-49.5 49.739q-14.717-8.478-29.576-12.717-14.859-4.239-31.141-4.239h-85.935v94.586q69.239 14.957 114.619 68.294 45.381 53.337 45.381 122.815v60.435Zm180.63-113.435q-31.195 0-52.674-21.598-21.478-21.597-21.478-52.554 0-23.717 17.717-58.891 17.718-35.174 56.435-89.652 38.239 52.76 56.196 88.554 17.957 35.793 17.957 59.989 0 30.957-21.598 52.554-21.598 21.598-52.555 21.598Z"/></svg>