<svg xmlns="http://www.w3.org/2000/svg" width="48" height="48" viewBox="0 -960 960 960"><path d="M516.848-361h202v-73.435h-52.87v22h-96.5v-135.13h96.5v22h52.87V-599h-202v238Zm-274.696 0h202v-73.435h-52.63v22h-96.5v-135.13h96.5v22h52.63V-599h-202v238Zm-60 206.978q-27.599 0-47.865-20.265-20.265-20.266-20.265-47.865v-515.696q0-27.697 20.265-48.033 20.266-20.337 47.865-20.337h595.696q27.697 0 48.033 20.337 20.337 20.336 20.337 48.033v379.652q-42.914-9.195-84.876 3.602t-72.299 43.398q-30.673 30.674-43.673 72.707-13 42.033-3.566 84.467H182.152Zm595.696 80v-80h-80v-68.13h80v-80h68.37v80h80v68.13h-80v80h-68.37Z"/></svg>