<svg xmlns="http://www.w3.org/2000/svg" width="48" height="48"><path d="M29.5 34.4q1.1-2.5 1.6-5.1.5-2.6.5-5.3 0-2.7-.5-5.3-.5-2.6-1.6-5.05l-2.8 1.1q1 2.2 1.45 4.525.45 2.325.45 4.725 0 2.4-.45 4.75T26.7 33.3zm-6.55-2.8q.8-1.8 1.15-3.725.35-1.925.35-3.875t-.35-3.85q-.35-1.9-1.15-3.7l-2.85 1q.75 1.55 1.05 3.2.3 1.65.3 3.35 0 1.7-.325 3.375T20.1 30.6zm-6.8-2.85q.5-1.15.825-2.325Q17.3 25.25 17.3 24q0-1.25-.3-2.45-.3-1.2-.9-2.3l-2.8 1q.55.85.775 1.8.225.95.225 1.95t-.275 1.95q-.275.95-.725 1.85zM24 44.3q-4.3 0-8.025-1.55-3.725-1.55-6.45-4.275Q6.8 35.75 5.25 32.025 3.7 28.3 3.7 24q0-4.25 1.55-7.975Q6.8 12.3 9.525 9.575q2.725-2.725 6.45-4.3Q19.7 3.7 24 3.7q4.25 0 7.975 1.575 3.725 1.575 6.45 4.3Q41.15 12.3 42.725 16q1.575 3.7 1.575 8t-1.575 8.025q-1.575 3.725-4.3 6.45-2.725 2.725-6.45 4.275Q28.25 44.3 24 44.3zM23.1 24zm.9 16.9q7.2 0 12.05-4.85Q40.9 31.2 40.9 24q0-7.2-4.85-12.05Q31.2 7.1 24 7.1q-7.2 0-12.05 4.85Q7.1 16.8 7.1 24q0 7.2 4.85 12.05Q16.8 40.9 24 40.9z"/></svg>