<svg xmlns="http://www.w3.org/2000/svg" width="48" height="48" viewBox="0 96 960 960"><path d="M114.022 928.696V214.5h245.434q7.957-35.478 36.582-58.218 28.626-22.739 65.962-22.739 36.957 0 65.652 22.739 28.696 22.74 37.131 58.218h263.435v310.065h-68.37V282.63h-106v130H288.152v-130h-106v577.696h246.413v68.37H114.022Zm766.608 95.914L759.874 903.891q-19.961 15.761-45.059 22.283-25.098 6.522-52.185 6.522-72.527 0-123.296-50.779-50.769-50.779-50.769-123.32t50.828-123.286q50.828-50.746 123.44-50.746 72.611 0 123.356 50.769 50.746 50.769 50.746 123.296 0 27-6.641 52.261-6.642 25.261-22.403 45.022L928.609 976.63l-47.979 47.98ZM662.573 864.565q45.269 0 75.63-30.279 30.362-30.279 30.362-75.511 0-45.231-30.279-75.655t-75.511-30.424q-45.231 0-75.536 30.328-30.304 30.328-30.304 75.63 0 45.303 30.235 75.607 30.235 30.304 75.403 30.304ZM480 276q17 0 28.5-11.5T520 236q0-17-11.5-28.5T480 196q-17 0-28.5 11.5T440 236q0 17 11.5 28.5T480 276Z"/></svg>