<svg xmlns="http://www.w3.org/2000/svg" width="48" height="48"><path d="M-.05 42.15V5.85H48v36.3zm3.3-3.3h.5q2.2-3.7 5.6-5.6 3.4-1.9 7.4-1.9t7.375 1.9q3.375 1.9 5.625 5.6H44.7V9.15H3.25zm13.45-11.4q2.55 0 4.25-1.725 1.7-1.725 1.7-4.275 0-2.5-1.7-4.225-1.7-1.725-4.25-1.725t-4.25 1.725q-1.7 1.725-1.7 4.225 0 2.55 1.7 4.275 1.7 1.725 4.25 1.725zm11.4-5.65h13.2v-9.25H28.1zm6.65-1.85L29.5 16v-2l5.25 3.8 5.1-3.8v2zm-26.9 18.9h17.7q-1.9-2.2-4.1-3.2-2.2-1-4.75-1t-4.825.975Q9.6 36.6 7.85 38.85zM16.7 24.3q-1.2 0-2.025-.825t-.825-2.025q0-1.15.85-1.975.85-.825 2-.825 1.2 0 2.025.825t.825 1.975q0 1.2-.85 2.025t-2 .825zM24 24z"/></svg>