<svg xmlns="http://www.w3.org/2000/svg" width="48" height="48" viewBox="0 96 960 960"><path d="M361.935 738.63h235.13V628.326h-65.5v45.044h-104.13V478.63h104.13v46.044h65.5V413.37h-235.13v325.26Zm118.364 243.348q-84.202 0-158.041-31.878-73.839-31.879-129.159-87.199-55.32-55.32-87.199-129.201-31.878-73.88-31.878-158.167t31.878-158.2q31.879-73.914 87.161-128.747 55.283-54.832 129.181-86.818 73.899-31.986 158.205-31.986 84.307 0 158.249 31.968 73.942 31.967 128.756 86.768 54.815 54.801 86.79 128.883 31.976 74.083 31.976 158.333 0 84.235-31.986 158.07t-86.818 128.942q-54.833 55.107-128.873 87.169-74.04 32.063-158.242 32.063Zm.201-68.13q140.543 0 238.946-98.752 98.402-98.752 98.402-239.596 0-140.543-98.215-238.946-98.215-98.402-239.753-98.402-140.163 0-238.945 98.215-98.783 98.215-98.783 239.753 0 140.163 98.752 238.945 98.752 98.783 239.596 98.783ZM480 576Z"/></svg>