<svg xmlns="http://www.w3.org/2000/svg" width="48" height="48" viewBox="0 -960 960 960"><path d="m765.22-595.59 26.43-26.91-76-76.48V-821.7h-37.87v132.92l87.44 93.19ZM222.48-156.02v82h-92.46v-115.31q-26.24-15-41.12-44.38-14.88-29.38-14.88-65.62v-400.82q0-78.68 88.97-111.09t310.31-32.41q-10.95 15.58-18.86 32.8-7.9 17.23-13.05 35.33-153.91 2-220.65 13.76Q154-750 140-723.76h289.35q-1.52 15-1.43 30 .1 15 2.34 30H142.15v173.48h379.46q25.43 22.48 57.11 37.6 31.67 15.11 65.58 22.4H142.15v117.13q0 36 24.5 62.5t57.5 26.5h351.7q33 0 57.5-26.5t24.5-62.5V-431.5q17.15 2.96 34.06 3.32 16.92.35 34.31-1.89v130.74q0 36.24-15 65.66-15 29.41-41 44.34v115.31h-92.7v-82H222.48Zm472.92-348.2q-79.42 0-135.3-55.89-55.88-55.89-55.88-135.6 0-78.51 56-134.51 56-56 135-56 79.76 0 135.38 55.62 55.62 55.62 55.62 135.55T830.4-559.67q-55.81 55.45-135 55.45ZM286.08-288.97q16.12-16.01 16.12-38.88t-16.18-38.99q-16.18-16.12-39.05-16.12-22.87 0-38.82 16.18t-15.95 39.05q0 22.87 16.01 38.82 16 15.95 38.88 15.95 22.87 0 38.99-16.01Zm305.84 0q16.12-16.01 16.12-38.88t-16.17-38.99q-16.18-16.12-39.05-16.12-22.87 0-38.83 16.18-15.95 16.18-15.95 39.05 0 22.87 16.01 38.82t38.88 15.95q22.87 0 38.99-16.01ZM140-723.76h289.35H140Zm84.15 293.48h-82H645.5 224.15Z"/></svg>