<svg xmlns="http://www.w3.org/2000/svg" width="48" height="48" viewBox="0 -960 960 960"><path d="M759.61-193.85v-124.87h-44.63v137.69l100.43 92.66 28.68-28.91-84.48-76.57ZM480-517.83l260.74-151.89L480-820.61 218.5-669.72 480-517.83ZM114.02-271.41v-417.18L480-898.93l366.22 210.34V-440h-68.37v-175.22L481.24-441.17 182.15-614.22v303.02l312.02 179.87v78.57L114.02-271.41ZM603.17-55.4q-56-55.4-56-134t56-134.6q56-56 134-56t134 55.87q56 55.86 56 135.13 0 78.43-56 133.72Q815.17 0 737.17 0t-134-55.4Zm-109-420.69Z"/></svg>