<svg xmlns="http://www.w3.org/2000/svg" width="48" height="48" viewBox="0 -960 960 960"><path d="M707.239-273.723V-398.63h-44.63v138.152l100.434 92.435 28.674-29.153-84.478-76.527ZM689.043-81.196q-78 0-134-55.5t-56-133.5q0-79 56-135t134-56q77.761 0 133.881 56 56.119 56 56.119 135 0 78-56.119 133.5-56.12 55.5-133.881 55.5ZM114.022-271.413v-417.182L480-898.935l366.218 210.348v198.609q-32.957-23.631-72.319-37.424-39.362-13.794-83.856-13.794-13.13 0-25.291 1.744t-23.23 4.061l136.326-79.826v-33.584l-37.109-20.916L480-517.826 218.5-669.717l-36.348 20.916v34.584l264.739 152.891v71.196q-13.282 27.282-20.565 57.274-7.283 29.993-7.283 62.66 0 58.975 22.294 109.314 22.293 50.339 61.402 88.295-14.63 4-29.141 1.783-14.511-2.218-27.663-9.652L114.022-271.413Z"/></svg>