<svg xmlns="http://www.w3.org/2000/svg" width="48" height="48" viewBox="0 -960 960 960"><path d="M759.609-193.81v-124.907h-44.631v137.913L815.413-88.37l28.674-28.913-84.478-76.527ZM480-517.826 218.5-669.717l-36.348 20.916v34.584L480-442.174l297.848-173.043v-33.584L740.5-669.717 480-517.826ZM114.022-271.413v-417.182L480-898.935l366.218 210.348v274.109q-25-13-52.601-19.261-27.6-6.261-56.443-6.261-102 0-176 73.5t-74 177.5q0 20.935 3.663 39.609 3.663 18.673 10.989 37.086l22.087 77.197-409.891-236.305ZM737.174 0q-78 0-134-55.5t-56-133.5q0-79 56-135t134-56q78 0 134 56t56 135q0 78-56 133.5t-134 55.5Z"/></svg>