<svg xmlns="http://www.w3.org/2000/svg" width="48" height="48" viewBox="0 96 960 960"><path d="M262.63 953.37h434.74v-30H262.63v30Zm0-724.74h434.74v-30H262.63v30ZM194.5 351.435V130.5h571v220.935h-68.13V288.63H262.63v62.805H194.5Zm0 670.065V788.565h68.13v74.805h434.74v-74.805h68.13V1021.5h-571Zm424.13-264.13-44.152-45.914L710.174 576 574.478 440.544l44.152-45.914L800 576 618.63 757.37Zm-277.26 0L160 576l181.37-181.37 44.152 45.914L249.826 576l135.696 135.456-44.152 45.914Zm-78.74-528.74v-30 30Zm0 724.74v-30 30Z"/></svg>