<svg xmlns="http://www.w3.org/2000/svg" width="48" height="48" viewBox="0 96 960 960"><path d="M236.478 209.782h568.305V336h62.63v62.63h-62.63v130.935h62.63v62.87h-62.63V723.37h62.63V786h-54.956l-76.044-76.044V278.152H304.609l-68.131-68.37Zm215.087 215.761L362.022 336h89.543v89.543ZM506.457 480l-24.892-24.891V336h197v144H506.457Zm172.108 171.348L537.218 510h141.347v141.348ZM433.043 616Zm72.587-106.826ZM198.565 816V616h253v200h-253Zm-41.304-597.609 59.522 59.761h-65.826v595.696h585.456v-76.066L802.63 864v77.978H82.587V218.391h74.674Zm324.304 324.544 197 197V816h-197V542.935ZM274.63 336l176.935 176.935V586h-253V336h76.065Zm573.653 663.239L37.456 188.413 82.37 143.5l810.827 810.826-44.913 44.913Z"/></svg>