<svg xmlns="http://www.w3.org/2000/svg" width="48" height="48" viewBox="0 -960 960 960"><path d="M812.457-270 678.565-404.652V-546H537.218l-30.761-30h172.108v-144h-197v119.109L453-630.457V-720h-89.782l-126.74-126.218h568.305V-720h62.63v62.63h-62.63v130.935h62.63v62.87h-62.63v130.935h62.63V-270h-54.956Zm-613.892 30h253v-200h-253v200ZM149.37-845.5 802.63-192v77.978H82.587V-845.5h66.783Zm332.195 332.435V-240h197v-76.065l-197-197ZM274.63-720h-76.065v250h253v-73.065L274.63-720ZM848.283-56.76 37.456-867.588 82.37-912.5l810.827 810.826-44.913 44.913Z"/></svg>