<svg xmlns="http://www.w3.org/2000/svg" width="48" height="48" viewBox="0 -960 960 960"><path d="m142.83-65.65 85.45-86.46h503.68l86.45 86.46H142.83Zm124.45-126.46L311-236.59h-25.41q-54.76-2.15-93.17-41.13-38.4-38.98-38.4-94.45v-272.81q0-130.44 94.68-205.82 94.67-75.37 231.3-75.37t231.42 75.37q94.8 75.38 94.8 205.82v272.81q0 55.14-38.52 94.28-38.53 39.15-93.05 41.06h-26.41l44.72 44.72H267.28Zm256.1-187.87q17.38-17.42 17.38-42.23 0-24.81-17.38-42.22-17.38-17.42-42.26-17.42t-42.26 17.42q-17.38 17.41-17.38 42.22t17.38 42.23q17.38 17.41 42.26 17.41t42.26-17.41Zm-302.9-226.65h519.28v-38.28q0-25.06-5.52-47.64-5.52-22.58-15.57-42.62H241.33q-10.05 20.04-15.45 42.62-5.4 22.58-5.4 47.64v38.28Z"/></svg>