<svg xmlns="http://www.w3.org/2000/svg" width="48" height="48" viewBox="0 0 48 48"><path d="M23.95 32.5q3.55 0 6.025-2.475Q32.45 27.55 32.45 24q0-3.55-2.475-6.025Q27.5 15.5 23.95 15.5q-3.55 0-6.025 2.475Q15.45 20.45 15.45 24q0 3.55 2.475 6.025Q20.4 32.5 23.95 32.5Zm0-6.5q-.85 0-1.425-.575-.575-.575-.575-1.425 0-.85.575-1.425Q23.1 22 23.95 22q.85 0 1.425.575.575.575.575 1.425 0 .85-.575 1.425Q24.8 26 23.95 26Zm0 18.3q-4.2 0-7.9-1.6T9.6 38.35Q6.85 35.6 5.25 31.9q-1.6-3.7-1.6-7.9t1.6-7.9q1.6-3.7 4.35-6.45 2.75-2.75 6.45-4.35 3.7-1.6 7.9-1.6 6.55 0 11.825 3.725Q41.05 11.15 43.3 17.3h-3.7q-2.25-4.55-6.425-7.375T23.95 7.1q-7.05 0-11.975 4.925T7.05 24q0 7.05 4.925 11.975T23.95 40.9q4 0 7.6-1.8 3.6-1.8 6.25-4.9v4.6q-2.85 2.65-6.425 4.075Q27.8 44.3 23.95 44.3Zm16.85-7.65V20.3h3.25v16.35Zm1.75 7.2q-.75 0-1.275-.525Q40.75 42.8 40.75 42q0-.8.525-1.325.525-.525 1.275-.525.8 0 1.325.525.525.525.525 1.325 0 .8-.525 1.325-.525.525-1.325.525Zm-19.1-20.3Z"/></svg>