<svg xmlns="http://www.w3.org/2000/svg" width="48" height="48" viewBox="0 -960 960 960"><path d="M74.5-744.522V-925.5h180.978v65.5H140v115.478H74.5Zm745.5 0V-860H704.522v-65.5H885.5v180.978H820ZM74.5-34.5v-180.978H140V-100h115.478v65.5H74.5Zm630.022 0V-100H820v-115.478h65.5V-34.5H704.522ZM265.5-225.5h429v-509h-429v509Zm-68.13 68.13v-645.26h565.26v645.26H197.37Zm171.673-411.673h222.153v-62.153H369.043v62.153Zm0 120h222.153v-62.153H369.043v62.153Zm0 120h222.153v-62.153H369.043v62.153ZM265.5-225.5v-509 509Z"/></svg>