<svg xmlns="http://www.w3.org/2000/svg" width="48" height="48" viewBox="0 96 960 960"><path d="M520.761 171.782q145.63 14.24 247.532 116.365 101.902 102.125 115.925 247.092H590.174q-8-24.326-26.424-41.25t-42.989-24.445V171.782Zm60 84.37v166.587q16.152 9.717 30.467 22.652 14.316 12.935 23.272 29.848h165.109q-24.761-79.282-82.163-137.304-57.403-58.022-136.685-81.783Zm-142-84.37v297.762q-33.326 13.521-53.87 43.616-20.543 30.095-20.543 66.181 0 34.544 20.543 62.667 20.544 28.122 53.87 40.731v297.479q-155.659-14.281-259.699-128.934Q75.022 736.63 75.022 579.211q0-157.419 103.674-274.804Q282.37 187.022 438.761 171.782Zm-60 84.37Q270.957 286.63 206.935 376.877q-64.022 90.247-64.022 202.326 0 110.08 65.283 197.982 65.282 87.902 170.565 119.663v-165.87q-39.152-25.478-60.848-65.12-21.696-39.643-21.696-86.543 0-46.899 21.316-88.499 21.315-41.599 61.228-68.077V256.152Zm211.413 361.087h294.044q-14.24 145.391-116.345 247.189t-247.112 115.79V682.652q24.565-7.522 43.228-24.185 18.663-16.663 26.185-41.228Zm44.493 60q-11.123 16.152-23.905 30.571-12.782 14.418-30.001 23.168v165.109q79.282-23 136.924-81.163 57.641-58.163 82.402-137.685h-165.42ZM297.174 577ZM634.5 475.239Zm-1.435 202Z"/></svg>