<svg xmlns="http://www.w3.org/2000/svg" width="48" height="48" viewBox="0 -960 960 960"><path d="M436.891-446.891q14.166 0 23.638-9.957Q470-466.804 470-479.883q0-14.317-9.471-23.891-9.472-9.574-23.638-9.574-13.435 0-23.391 9.574-9.957 9.574-9.957 23.891 0 13.079 9.957 23.035 9.956 9.957 23.391 9.957Zm-174.5 332.63v-68.13l274.261-47.97v-493.813l-274.261-43v-66.891l342.392 59.456V-174.5l-342.392 60.239Zm-148.369.239v-68.369h80v-651.674h571.956v651.674h80v68.369H114.022Zm148.369-68.369h435.218v-583.544l-435.218-.239v583.783Z"/></svg>