<svg xmlns="http://www.w3.org/2000/svg" width="48" height="48" viewBox="0 -960 960 960"><path d="M251.92-74.02q-74.28 0-126.09-52.36-51.81-52.35-51.81-126.22 0-74.12 51.9-125.93 51.9-51.82 125.88-51.82 25.61 0 48.75 6.81 23.14 6.8 43.06 19.24 25.04-36.85 26.92-77.08 1.88-40.23-21.68-76.08-21.02 13.53-45.15 21.41-24.13 7.88-50.9 7.88-74.21 0-126.49-52.4-52.29-52.39-52.29-126.58 0-73.96 52.27-126.51 52.28-52.56 126.47-52.56 73.96 0 126.39 52.56 52.44 52.55 52.44 126.46 0 27-7.26 50.65-7.26 23.64-20.79 44.64 35.85 23.04 74.58 21.8 38.73-1.24 75.58-25.8-12.53-20-18.91-42.76-6.38-22.76-6.38-48.53 0-73.98 52.31-125.88 52.32-51.9 126.59-51.9 74.04 0 126.47 51.93 52.44 51.93 52.44 125.97 0 74.04-52.44 126.47-52.43 52.44-126.58 52.44-27.53 0-52.78-8.25-25.26-8.24-46.27-22.8-24.56 37.85-23.68 78.48.88 40.63 26.68 78.2 21-13.53 45.14-20.67 24.14-7.14 50.91-7.14 74.15 0 126.58 51.76 52.44 51.77 52.44 125.97 0 73.97-52.44 126.28-52.43 52.32-126.47 52.32-74.27 0-126.59-52.34-52.31-52.35-52.31-126.21 0-25.76 7.31-49.89t20.74-44.15q-38.65-25.9-79.24-28.23-40.59-2.33-77.44 22.23 15.32 20.78 23.56 46.15 8.25 25.37 8.25 53.89 0 73.86-52.44 126.21-52.43 52.34-127.23 52.34ZM707.2-593.2q48 0 81-33t33-81q0-46.76-33-79.88t-81-33.12q-47.77 0-80.88 33.12-33.12 33.12-33.12 79.88 0 13.05 3.26 24.73 3.26 11.69 9.02 22.49l87.54-86.78 47.74 47.74-90.26 90.26q13.04 7.52 27.06 11.54 14.01 4.02 29.64 4.02Zm-454.4 0q14.81 0 27.59-3.21 12.79-3.2 24.63-10.59l-92.78-92.02 47.74-47.74 92.78 92.26q7.52-12.04 10.78-24.96 3.26-12.91 3.26-27.74 0-47.76-33.12-80.88-33.11-33.12-80.88-33.12-48 0-81 33.12t-33 80.88q0 48 33 81t81 33Zm454.4 454.4q48 0 81-33.05t33-80.72q0-48-33-80.5t-81-32.5q-14.69 0-26.93 3.77-12.25 3.76-24.05 10.04l91.54 92.02-46.74 47.5-94.78-90.78q-6.52 10.8-9.78 23.7-3.26 12.9-3.26 26.75 0 47.91 33.12 80.84 33.11 32.93 80.88 32.93Zm-455.4 0q47.77 0 81.38-33.05 33.62-33.05 33.62-80.72 0-15.8-4.76-29.72-4.76-13.93-12.04-26.97l-98.26 98.02-47.26-47.5 95.3-95.78q-10.8-5.52-23.11-8.28-12.3-2.77-24.87-2.77-47 0-80 32.5t-33 80.5q0 48 33 80.89 33 32.88 80 32.88ZM480-448.76q13 0 21.5-8.5t8.5-21.5q0-13-8.5-21.5t-21.5-8.5q-13 0-21.5 8.5t-8.5 21.5q0 13 8.5 21.5t21.5 8.5Z"/></svg>