<svg xmlns="http://www.w3.org/2000/svg" width="48" height="48" viewBox="0 -960 960 960"><path d="M205.935-150.435v-68.13h61.956l82.326-271.022q6.718-21.63 24.342-35.304 17.625-13.674 40.55-13.674h129.782q22.925 0 40.55 13.674 17.624 13.674 24.342 35.304l82.326 271.022h61.956v68.13h-548.13Zm134.565-68.13h279l-75.728-251.87H416.109L340.5-218.565Zm105.435-442.87v-188.37h68.13v188.37h-68.13ZM690.5-558.891l-48.739-48.739L775.5-740.609l47.739 47.979L690.5-558.891Zm56.435 192.956v-68.13h188.131v68.13H746.935ZM269.5-558.891 136.761-692.63l47.739-47.979L318.478-607.63 269.5-558.891ZM24.934-365.935v-68.13h188.37v68.13H24.934ZM480-218.565Z"/></svg>