<svg xmlns="http://www.w3.org/2000/svg" width="48" height="48" viewBox="0 96 960 960"><path d="M460.565 518.435h57.913L767.043 269.87l-57.913-57.913-248.565 248.565v57.913Zm340.631-282.478 30.932-30.933q10.263-11.263 10.263-20.546 0-9.282-10.239-19.63l-18-18q-10.239-10.239-19.956-10.359-9.718-.119-19.718 9.881l-31.435 31.434 58.153 58.153ZM480 981.261Q317.087 842.587 236.511 723.768q-80.576-118.819-80.576-219.799 0-151.845 97.726-241.94Q351.387 171.935 480 171.935q39.646 0 77.04 9 37.395 9 71.873 26.239L576.5 259.826q-22.044-9.761-46.541-14.761-24.497-5-50.198-5-107.48 0-181.588 73.959-74.108 73.959-74.108 189.951 0 73.829 64.007 170.908Q352.078 771.961 480 891.5q130.922-119.539 193.428-216.617Q735.935 577.804 735.935 504q0-27.565-4.881-52.75-4.88-25.185-13.641-47.989l52.413-52.174q17 33.478 25.62 71.342 8.619 37.865 8.619 81.571 0 100.949-80.576 219.768T480 981.261Zm17.065-432.044Z"/></svg>