<svg xmlns="http://www.w3.org/2000/svg" width="48" height="48" viewBox="0 -960 960 960"><path d="M350.435-73.543v-102.239q-105.283-39.153-171.685-132.37-66.402-93.218-66.402-211.935 0-76.372 28.978-143.338t78.554-116.542q49.576-49.577 116.507-78.674 66.93-29.098 142.609-29.098 75.678 0 142.993 29.098 67.315 29.097 117.392 78.674 50.076 49.576 79.174 116.542 29.097 66.966 29.097 143.338 0 118.717-66.782 211.174-66.783 92.457-171.305 132.37v103h-68.369v-83.892q-15.479 2-30.718 3.5t-31.478 1.5q-15.495 0-30.726-1.38t-29.47-3.62v83.892h-68.369Zm129.606-145.022q124.481 0 211.981-87.422 87.5-87.421 87.5-212.141 0-124.481-87.541-211.981t-212.022-87.5q-124.481 0-211.981 87.541-87.5 87.542-87.5 212.022 0 124.72 87.541 212.1 87.541 87.381 212.022 87.381ZM323.587-606.891h312.826v-67.174H323.587v67.174Zm121.326 324.913 115.631-115.631-50-50 55.086-55.326-50.304-50.543-115.87 115.869 50 50-55.086 55.087 50.543 50.544ZM480-518.087Z"/></svg>