<svg xmlns="http://www.w3.org/2000/svg" width="48" height="48" viewBox="0 -960 960 960"><path d="M480-115.935q-65.761 0-124.641-22.641-58.881-22.641-106.881-62.163l-82.065 82.065-47.739-47.739 82.065-82.065q-39.522-48-62.163-106.881-22.641-58.88-22.641-124.641 0-151.794 106.634-257.929Q329.202-844.065 480-844.065h364.065V-480q0 150.798-106.136 257.431Q631.794-115.935 480-115.935Zm-53.979-165.686 210.609-188.14q10-9.239 5.881-21.978-4.12-12.739-18.12-14.739l-164.63-16.239 98.674-135.27q3.761-5.216 3.38-10.811-.38-5.595-4.619-10.572-5-4.978-11.62-4.978-6.619 0-11.592 4.97L324.315-491.185Q314.13-482 318.25-469.261q4.12 12.739 18.359 14.5l164.869 16.478-99.688 135.23q-3.225 5.215-3.105 10.808.119 5.593 5.119 10.354 4.761 5.239 11 5.239t11.217-4.969Z"/></svg>