<svg xmlns="http://www.w3.org/2000/svg" width="48" height="48" viewBox="0 -960 960 960"><path d="M448.565-331.043v132.608h62.87v-132.608h132.608v-62.87H511.435v-132.848h-62.87v132.848H315.957v62.87h132.608ZM154.022-74.5v-566.196H287.37v-90.739q0-80.366 56.265-136.857 56.266-56.491 136.414-56.491 80.147 0 136.364 56.491t56.217 136.857v90.739h133.588V-74.5H154.022Zm68.13-68.13h515.696v-429.696H222.152v429.696ZM355.5-640.696h249v-90.684q0-52.388-36.152-88.711-36.152-36.322-88.174-36.322-52.022 0-88.348 36.322Q355.5-783.768 355.5-731.38v90.684ZM222.152-142.63v-429.696 429.696Z"/></svg>