<svg xmlns="http://www.w3.org/2000/svg" width="48" height="48" viewBox="0 96 960 960"><path d="M480 941.5q-75.957 0-142.533-28.859-66.576-28.858-115.913-78.195-49.337-49.337-78.195-115.913Q114.5 651.957 114.5 576t28.859-142.533q28.858-66.576 78.195-115.913 49.337-49.337 115.913-78.195Q404.043 210.5 480 210.5t142.533 28.859q66.576 28.858 115.913 78.195 49.337 49.337 78.195 115.913Q845.5 500.043 845.5 576t-28.859 142.533q-28.858 66.576-78.195 115.913-49.337 49.337-115.913 78.195Q555.957 941.5 480 941.5ZM182.63 576q0 87.935 47.653 160.326 47.652 72.391 128.152 107.869-39.653-51.565-60.359-120.076-20.706-68.51-20.706-146.445 0-79.848 21.923-149.554 21.924-69.707 62.25-121.75-81.695 34.761-130.304 107.869Q182.63 487.348 182.63 576Zm331.305 293.5q103.5-10 176.532-83.033Q763.5 713.435 773.5 609.935L513.935 869.5Zm-51.174-9.891 313.609-313.37q-2-19.043-6.381-37.206-4.38-18.163-11.663-36.207L416.63 814.283q10.522 13.282 21.685 24.543 11.163 11.261 24.446 20.783Zm-69.37-82.913L739.37 430.717q-7.761-13.521-17.283-26.423-9.522-12.903-20.044-25.185L366.065 715.087q4.761 15.283 11.283 30.304 6.522 15.022 16.043 31.305Zm-38.847-109.392 317.347-318.347q-13.282-10.522-26.685-19.424-13.402-8.903-27.684-16.663L345.5 584.652q.761 22.044 2.641 42.326 1.881 20.283 6.403 40.326Zm-3.935-148.826 224.804-223.565q-20.565-7.522-41.87-11.283-21.304-3.76-42.869-4.76-58.413 31.565-94.619 93.978-36.207 62.413-45.446 145.63Zm10.934-212.108Z"/></svg>