<svg xmlns="http://www.w3.org/2000/svg" width="48" height="48" viewBox="0 -960 960 960"><path d="M323.4-109.95q-73.36-31.62-127.6-85.85-54.23-54.24-85.85-127.6Q78.33-396.76 78.33-480v-383.59l242.43 181.96q30.76-46.76 70.38-96.76 39.62-50 88.86-104.24 45.48 50.24 86.48 101.86 41 51.62 72 99.14l243.43-181.96V-480q0 83.24-31.74 156.6T764.2-195.8q-54.24 54.23-127.6 85.85Q563.24-78.33 480-78.33t-156.6-31.62Zm393.06-133.41q97.08-96.9 97.08-236.64v-247.09L620.33-582.67q-39-63-69.62-105.98-30.62-42.98-70.71-92.07-40.57 49.57-71.83 93.07-31.26 43.5-68.26 104.98L146.46-727.09V-480q0 139.74 97.08 236.64 97.09 96.9 236.46 96.9t236.46-96.9ZM480-464.09Z"/></svg>