<svg xmlns="http://www.w3.org/2000/svg" width="48" height="48" viewBox="0 -960 960 960"><path d="M274.26-240.65v-231.5l11.91-33.07h388.37l11.68 33.07v231.5H274.26Zm69.13-201.7v138.83h275.46v-138.83H343.39Zm175.35-289.33q15.5-15.62 15.5-38.55t-15.5-38.38q-15.5-15.46-38.43-15.46t-38.5 15.46q-15.57 15.45-15.57 38.38 0 22.93 15.57 38.55 15.57 15.61 38.5 15.61t38.43-15.61Zm130.78 2.77v-82.55l-53.98 11.05q2 7.7 2.62 15.18.62 7.47.62 15.18 0 7.7-.74 15.09t-2.74 15l54.22 11.05ZM274.26-472.15q0-69.15 40.32-121.83 40.31-52.67 102.46-73.15-15.45-9.49-27.52-23.39-12.08-13.89-19.78-30.96l-163.81-33.24v-30.93l163.81-33q13.72-32.2 43.65-52.03 29.94-19.84 66.85-19.84 23.96 0 44.67 8.74 20.72 8.74 37.44 23.98l151.72-30.24v235.71l-151.72-30.24q-4.53 4.24-8.98 8.22-4.46 3.98-9.94 7.22 61.89 20.25 102.34 72.89 40.45 52.63 40.45 122.09h-67.37q0-59.52-40.75-98.81-40.76-39.28-96.86-39.28-56.04 0-96.95 39.37-40.9 39.37-40.9 98.72h-69.13Zm0 398.13v-166.63h69.13v98.5h275.46v-98.5h67.37v166.63H274.26Z"/></svg>