<svg xmlns="http://www.w3.org/2000/svg" width="48" height="48" viewBox="0 -960 960 960"><path d="M193.42-150.33q-35.92-35.82-35.92-87.28h-123v-285.98h448.13V-765.5h164.98v-84.07h106.46v84.07h90.71l80.72 241.87v286.02H808.37q0 51.3-35.84 87.2-35.83 35.91-87.03 35.91t-87.03-35.83q-35.84-35.82-35.84-87.28H403.35q0 51.44-35.96 87.27-35.96 35.84-87.01 35.84-51.05 0-86.96-35.83Zm129.44-44.29q17.62-17.25 17.62-42.75-.24-25.5-17.74-42.75t-42.38-17.25q-24.88 0-42.38 17.25-17.5 17.25-17.5 42.63 0 25.48 17.45 42.8 17.45 17.32 42.38 17.32 24.93 0 42.55-17.25Zm405.14-.07q17.5-17.32 17.5-42.92 0-25.26-17.5-42.51-17.5-17.25-42.5-17.25t-42.38 17.25q-17.38 17.25-17.62 42.75 0 25.5 17.5 42.75t42.5 17.25q25 0 42.5-17.32Zm-177-328.9h302.65L795.8-697.13H551v173.54Zm-516.5-40v-43.58h41.43v-114.74H34.5v-43.59h408.13v43.59H401.2v114.74h41.43v43.58H34.5Zm85.02-43.58h97.37v-114.74h-97.37v114.74Zm140.96 0h97.13v-114.74h-97.13v114.74Z"/></svg>