<svg xmlns="http://www.w3.org/2000/svg" width="48" height="48" viewBox="0 -960 960 960"><path d="M109.717-105.652V-692h68.37v517.978h517.978v68.37H109.717ZM262.087-412v-96h65.978v96h-65.978Zm0-184v-96h65.978v96h-65.978Zm153.978 337.978V-324h96v65.978h-96Zm0-521.978v-66.218h96V-780h-96Zm184 521.978V-324h96v65.978h-96Zm0-521.978v-66.218h96V-780h-96Zm184 368v-96h66.218v96h-66.218Zm0-184v-96h66.218v96h-66.218ZM262.087-780v-66.218h65.978V-780h-65.978Zm0 521.978V-324h65.978v65.978h-65.978Zm521.978 0V-324h66.218v65.978h-66.218Zm0-521.978v-66.218h66.218V-780h-66.218Z"/></svg>