<svg xmlns="http://www.w3.org/2000/svg" width="48" height="48" viewBox="0 -960 960 960"><path d="M156.891-163.065q-29.956 0-51.054-21.098-21.098-21.098-21.098-51.293v-40q0-29.957 21.098-51.055t51.054-21.098q30.196 0 51.294 21.098 21.098 21.098 21.098 51.055v40q0 30.195-21.098 51.293t-51.294 21.098ZM842-167.609h-54.804q-8.718 0-13.816-6.837-5.097-6.837-2.858-14.793l9-32.718q2-5.717 6.956-9.576 4.957-3.858 11.674-2.858l48.326 7q11.479 2.239 18.696 9.956 7.217 7.718 7.217 19.435 0 11.957-9.217 21.174-9.217 9.217-21.174 9.217Zm-153.109-16.195L588-217.13q-6.957-2.24-10.435-9.196-3.478-6.957 0-13.674l26.478-59.478q3.24-6.957 10.077-9.576 6.837-2.62 13.793 1.858l84.652 49.566q5.239 2.478 7.098 7.576 1.859 5.097.859 10.576l-9 43q-2 7.956-8.837 11.435-6.837 3.478-13.794 1.239Zm-186.717-70.239-68.457-17.566q-10.717-3.239-17.695-11.456-6.979-8.218-6.979-19.935v-37q0-17.478 5.24-33.837 5.239-16.359 17.717-27.598 5.478-5.239 12.196-6.739 6.717-1.5 13.434 1.739l89.696 50.326q5.717 3.479 7.217 9.457 1.5 5.978-.739 11.935l-31.239 71.478q-2.239 5.717-8.337 8.576-6.098 2.859-12.054.62ZM304-287.609q-6.717 0-10.935-5.097-4.217-5.098-6.456-13.055-9-47.043-44.142-74.445-35.141-27.403-82.467-27.403h-20q-5.717 0-9.054-3.337-3.337-3.337-3.337-9.054 0-5.717 3.337-9.054 3.337-3.337 9.054-3.337h36q20.761 0 40.402-5.381 19.641-5.38 36.641-16.141 3.479-2.239 7.196-2.239 3.718 0 7.435 2.239 20.761 12.761 41.489 17.141 20.728 4.381 37.489 4.381 9.957 0 15.554 8.076 5.598 8.076 1.598 17.272-7.521 15.76-11.141 33.021-3.62 17.261-3.62 34.022v35.239q0 6.718-5.097 11.935-5.098 5.217-12.055 5.217H304ZM177.609-492.391q-39.196 0-65.794-25.718-26.598-25.717-26.598-63.913 0-17.956 6.62-34.913 6.62-16.956 19.098-29.196l54.282-54.282v-101.978h189.327v101.978l54.282 54.282q12.478 12.479 19.098 29.316 6.62 16.837 6.62 35.032 0 37.957-26.598 63.674-26.598 25.718-65.794 25.718-17.239-1-32.217-8.239-14.978-7.24-28.218-18.24-5-4-10.358-7-5.359-3-11.598-3-6.283 0-21.718 10-13.239 11.24-28.217 18.359-14.978 7.12-32.217 8.12Z"/></svg>