<svg xmlns="http://www.w3.org/2000/svg" width="48" height="48" viewBox="0 -960 960 960"><path d="M741.43-74.02v-120h-120v-64.55h120v-120h64.79v120h120v64.55h-120v120h-64.79Zm-497.77-39q-51.85 0-87.39-35.76-35.55-35.75-35.55-86.83 0-51.28 35.63-86.38 35.62-35.1 87.28-36.1-50.66 1-86.78-34.25-36.13-35.25-36.13-85.6 0-51.61 35.63-87.79 35.62-36.18 87.28-36.18-51.66 0-87.28-35.31-35.63-35.31-35.63-85.84 0-51.48 35.85-87.2 35.85-35.72 86.89-35.72 51.13 0 86.72 35.65 35.6 35.66 35.6 87.26 0-50.7 35.34-86.43 35.33-35.72 85.81-35.72h237.14q50.75 0 86.45 35.56 35.7 35.55 35.7 87.04 0 50.48-35.7 85.59-35.7 35.12-86.45 35.12 61.43-.24 97.15 47.81 35.71 48.06 20.76 106.25-16.26-5.08-32.03-7.4-15.76-2.32-32.36-2.32-102.14 0-169.15 69.84t-67.01 168.79q0 26.31 6.36 52.13 6.36 25.83 20.84 52.79h-81.7q-50.53 0-85.84-35.56t-35.31-86.35q0 51.79-35.14 87.35-35.14 35.56-86.98 35.56Zm1.33-550.76q24.72 0 41.32-17.76t16.6-42.64q0-24.51-16.62-41.72-16.61-17.21-41.42-17.21-25.87 0-43.46 17.01-17.58 17.01-17.58 42.15 0 25.36 17.58 42.77 17.59 17.4 43.58 17.4Zm213.42-1h295.18v-117.57H458.41v117.57Zm-92.63 428.85q0-51.06 35.6-87.11t86.55-35.05q-50.95-1-86.55-35.99-35.6-34.99-35.6-85.68 0 51-35.6 85.84-35.59 34.83-86.55 35.83 50.96-1 86.55 35.05 35.6 36.05 35.6 87.11Zm0-243.83q0-50.66 35.6-86.4 35.6-35.75 86.55-35.75-50.95 0-86.55-35.1-35.6-35.1-35.6-86.06 0 50.9-35.63 86.03-35.62 35.13-86.52 35.13 50.9 0 86.52 35.62 35.63 35.62 35.63 86.53Z"/></svg>