<svg xmlns="http://www.w3.org/2000/svg" width="48" height="48" viewBox="0 -960 960 960"><path d="M198.326-198.326v-135.665q0-20.248 8.739-37.726 8.739-17.479 24.978-28.718 51.107-38 117.912-59.739 66.806-21.739 129.996-21.739 63.191 0 130.118 21.739 66.927 21.739 118.127 59.739 16 11.239 24.858 28.751 8.859 17.511 8.859 37.751v135.607H198.326ZM480-520q-66 0-113-47t-47-113q0-66 47-113t113-47q66 0 113 47t47 113q0 66-47 113t-113 47ZM34.022-728v-198.218H232v68.37H102.152V-728h-68.13ZM232-34.022H34.022V-232h68.13v129.848H232v68.13Zm496 0v-68.13h129.848V-232h68.37v197.978H728ZM857.848-728v-129.848H728v-68.37h198.218V-728h-68.37Z"/></svg>