<svg xmlns="http://www.w3.org/2000/svg" width="48" height="48" viewBox="0 96 960 960"><path d="M499.934 1061.5q-139.325 0-237.38-98.101Q164.5 865.297 164.5 726V270.5h120v-120h120v-60h191v80h120v250h120v305.493q0 139.3-98.121 237.403-98.121 98.104-237.445 98.104Zm-.062-65.5q56.128 0 105.643-21.239 49.515-21.238 86-57.5Q728 881 749 831.587 770 782.174 770 726V486h-60v200l-13 2q-45 7-74.5 40T590 806h-60q3-56 35.5-100t84.5-66V236h-60v290h-60V156h-60v370h-60V216h-60v350h-60V336h-60v390q0 56.219 21.239 105.671 21.238 49.452 57.5 85.891Q345 954 394.372 975q49.372 21 105.5 21Z"/></svg>