<svg xmlns="http://www.w3.org/2000/svg" width="48" height="48" viewBox="0 -960 960 960"><path d="M205.435-70.435v-135h-135v-68.13h135v-172.37h-135v-68.13h135v-172.37h-135v-68.37h135v-135h68.13v135h172.37v-135h68.13v135h172.37v-135h68.37v135h135v68.37h-135v172.37h135v68.13h-135v172.37h135v68.13h-135v135h-68.37v-135h-172.37v135h-68.13v-135h-172.37v135h-68.13Zm68.13-203.13h172.37v-172.37h-172.37v172.37Zm240.5 0h172.37v-172.37h-172.37v172.37Zm-240.5-240.5h172.37v-172.37h-172.37v172.37Zm240.5 0h172.37v-172.37h-172.37v172.37Z"/></svg>