<svg xmlns="http://www.w3.org/2000/svg" width="48" height="48" viewBox="0 -960 960 960"><path d="M595.761-247v-68h-68v-45h68v-68h45v68h68v45h-68v68h-45ZM276.478-488.522v-238.804h45v87.283h105v-87.283h45v238.804h-45v-106.551h-105v106.551h-45Zm256.283 0v-238.804h131q18.761 0 31.88 13.021 13.12 13.021 13.12 32.049v148.706q0 19.028-13.12 32.028-13.119 13-31.88 13h-131ZM419.478-315.478q5 0 8.5-3.5t3.5-8.5V-370q0-5-3.5-8.5t-8.5-3.5h-92v66.522h92Zm5 129.282-33-86.316h-64v86.316h-43V-425h147q18 0 30.5 12.528 12.5 12.529 12.5 30.57v66.347q0 17.03-11.5 29.053-11.5 12.024-28.5 14.024l33 86.282h-43Zm153.283-347.326h74q5 0 8.5-3.38 3.5-3.381 3.5-8.62v-124.804q0-5.239-3.5-8.62-3.5-3.38-8.5-3.38h-74v148.804Zm-97.641 459.5q-86.316 0-160.508-30.998-74.193-30.998-128.893-85.699-54.701-54.7-85.699-128.893-30.998-74.192-30.998-160.508 0-85.315 30.941-159.403 30.942-74.088 85.699-128.893 54.757-54.805 128.95-86.303 74.192-31.499 160.508-31.499 85.315 0 159.416 31.468 74.102 31.467 128.916 86.268 54.815 54.801 86.29 128.883Q886.218-565.516 886.218-480q0 86.196-31.499 160.388-31.498 74.193-86.303 128.95-54.805 54.757-128.893 85.699-74.088 30.941-159.403 30.941Zm-.164-68.13q144.087 0 240.99-96.741 96.902-96.741 96.902-241.065 0-144.325-96.859-241.107-96.858-96.783-240.945-96.783t-240.99 96.741q-96.902 96.741-96.902 241.065 0 144.325 96.859 241.107 96.858 96.783 240.945 96.783ZM480-480Z"/></svg>