<svg xmlns="http://www.w3.org/2000/svg" width="48" height="48" viewBox="0 96 960 960"><path d="M114.022 941.5V576.091q0-76.287 28.858-142.863 28.859-66.576 78.316-116.032 49.456-49.457 116.032-78.435Q403.804 209.782 480 209.782t142.772 28.979q66.576 28.978 116.032 78.435 49.457 49.456 78.435 116.032 28.979 66.576 28.979 142.863V941.5h-219.24v-307h150.87V576q0-124.458-86.683-211.153-86.684-86.695-211.125-86.695t-211.164 86.695Q182.152 451.542 182.152 576v58.5h150.87v307h-219Zm68.13-68.13h82.739V702.63h-82.739v170.74Zm513.196 0h82.5V702.63h-82.5v170.74Zm-513.196 0h82.739-82.739Zm513.196 0h82.5-82.5Z"/></svg>