<svg xmlns="http://www.w3.org/2000/svg" width="48" height="48" viewBox="0 96 960 960"><path d="m830.218 847.522-68.37-68.37V658.848h-82.5v38.043l-68.37-68.13v-38.387h150.87v-62.396q0-122.804-86.402-211.706-86.403-88.902-209.362-88.902-50.948 0-99.44 17.641t-88.014 51.163l-49.739-49.979q44.283-38.239 105.342-62.717Q395.293 159 466.031 159q76.162 0 142.813 28.968 66.65 28.969 115.511 79.289 48.861 50.32 77.362 117.417 28.501 67.096 28.501 143.352v319.496Zm13.043 186.908-20.804-20.8H466v-64.782h291.435l-54-54h-92.457v-92.457L201.484 392.609q-17.049 28-26.19 64.282-9.142 36.283-9.142 71.087v62.5h139.152l11.718 11.718v292.652h-219V528.084q0-53.823 13.978-102.878 13.978-49.054 36.739-85.054L24.479 215.891l43-43.239L886.26 991.531l-43 42.899ZM166.152 826.478h82.739v-167.63h-82.739v167.63Zm0 0h82.739-82.739Zm595.696-47.326Z"/></svg>