<svg xmlns="http://www.w3.org/2000/svg" width="48" height="48" viewBox="0 -960 960 960"><path d="M439.761-497.478Zm0 384.609-90.63-83.587q-92.979-85.022-153.468-145.25-60.489-60.229-96.685-108.142-36.195-47.913-50.695-89.333-14.5-41.419-14.5-88.232 0-92.762 62.212-157.099 62.211-64.336 153.766-64.336 56.83 0 105.176 25.783 48.346 25.782 84.824 75.826 42.478-52.805 89.247-77.207 46.769-24.402 100.753-24.402 82.25 0 139.114 56.196 56.864 56.195 69.343 136.587H770.13q-8.76-52.848-45.304-88.631-36.543-35.782-95.065-35.782-49.565 0-93.685 30.761-44.119 30.76-68.011 87.043h-57.13q-23.37-55.283-67.182-86.543-43.813-31.261-93.918-31.261-65.357 0-106.52 43.93t-41.163 109.065q0 39.331 15.398 76.302 15.397 36.97 53.521 83.999 38.124 47.03 103.778 109.763 65.653 62.733 164.912 154.789 30.565-28.044 55.956-50.413 25.392-22.37 52.435-45.413l7.509 7.388 16.269 16.009q8.76 8.62 16.361 15.981l7.6 7.361q-26.282 23.522-52.507 46.221-26.224 22.699-58.319 52.04l-45.304 40.587Zm279-163.066v-130h-130v-68.13h130v-130h68.13v130h130v68.13h-130v130h-68.13Z"/></svg>