<svg xmlns="http://www.w3.org/2000/svg" width="48" height="48" viewBox="0 -960 960 960"><path d="M637.218-214.13q-26.718-26.479-39.457-59.196t-12.739-67.435q0-34.956 12.859-67.793 12.858-32.837 39.337-59.316l75-75q16.282-16.282 23.923-36.065 7.642-19.782 7.642-41.065 0-21.283-7.642-41.065-7.641-19.783-23.923-36.065L641.109-768l48.978-48.978 70.87 71.108q26.239 26.479 39.217 59.196 12.978 32.717 12.978 66.435 0 33.956-12.978 66.293t-39.217 58.816l-75 75q-16.522 16.521-24.663 36.304-8.142 19.783-8.142 41.826t8.142 42.326q8.141 20.283 24.663 36.804L756.826-192l-48.739 48.978-70.869-71.108Zm-219.088 0q-26.478-26.479-39.337-59.316-12.858-32.837-12.858-67.554t12.858-67.554q12.859-32.837 39.337-59.316l75-75q16.283-16.282 24.044-36.065 7.761-19.782 7.761-41.065 0-21.283-7.761-41.065-7.761-19.783-24.044-36.065L422.261-768 470-816.978l71.87 71.108q26.478 26.479 39.337 59.196 12.858 32.717 12.858 66.435 0 33.956-12.858 66.293-12.859 32.337-39.337 58.816l-75 75q-16.522 16.521-24.663 36.804-8.142 20.283-8.142 42.326t8.142 41.826q8.141 19.783 24.663 36.304L537.978-192 489-143.022l-70.87-71.108Zm-218.848-1q-26.478-26.479-39.456-58.816-12.978-32.337-12.978-67.054t12.978-67.554q12.978-32.837 39.456-59.316l75-76q16.283-16.282 23.924-36.065 7.642-19.782 7.642-41.065 0-21.283-7.642-41.065-7.641-19.783-23.924-36.065L203.174-769l47.978-47.739 71.87 70.869q26.478 26.479 39.337 58.696 12.858 32.217 12.858 65.935 0 33.956-12.978 66.793t-39.217 59.316l-75 75q-16.522 16.521-24.663 36.804-8.142 20.283-8.142 42.326t8.142 41.826q8.141 19.783 24.663 36.304L318.891-192l-48.739 47.739-70.87-70.869Z"/></svg>