<svg xmlns="http://www.w3.org/2000/svg" width="48" height="48" viewBox="0 -960 960 960"><path d="M688.21-271.79q17.36-17.36 17.36-42.96t-17.36-42.96q-17.36-17.36-42.96-17.36t-42.96 17.36q-17.36 17.36-17.36 42.96t17.36 42.96q17.36 17.36 42.96 17.36t42.96-17.36ZM521.08-438.92q17.35-17.36 17.35-43.08t-17.35-43.08q-17.36-17.35-43.08-17.35t-43.08 17.35q-17.35 17.36-17.35 43.08t17.35 43.08q17.36 17.35 43.08 17.35t43.08-17.35ZM357.71-602.29q17.36-17.36 17.36-42.96t-17.36-42.96q-17.36-17.36-42.96-17.36t-42.96 17.36q-17.36 17.36-17.36 42.96t17.36 42.96q17.36 17.36 42.96 17.36t42.96-17.36ZM114.02-114.02v-732.2h732.2v732.2h-732.2Z"/></svg>