<svg xmlns="http://www.w3.org/2000/svg" width="48" height="48" viewBox="0 -960 960 960"><path d="m385.43-334.52 42.77-43-101-102 101-101-42.77-43-144 144 144 145Zm189.14 0 145-145-144-144-42.77 43 101 101-102 102 42.77 43Zm-460.55 220.5v-732.2h267.15q6.44-35 34.16-57.5 27.71-22.5 64.67-22.5t64.67 22.5q27.72 22.5 34.16 57.5h267.39v732.2h-732.2Zm68.13-68.13h595.7v-595.7h-595.7v595.7Zm323.43-624.27q10.85-10.86 10.85-25.58 0-14.72-10.85-25.58-10.86-10.85-25.58-10.85-14.72 0-25.58 10.85-10.85 10.86-10.85 25.58 0 14.72 10.85 25.58 10.86 10.85 25.58 10.85 14.72 0 25.58-10.85ZM182.15-182.15v-595.7 595.7Z"/></svg>