<svg xmlns="http://www.w3.org/2000/svg" width="48" height="48" viewBox="0 0 48 48"><path d="M7 35V13v22Zm-3.4 3.4V9.6h40.8v16.95q-.75-.6-1.6-1.075Q41.95 25 41 24.7V13H7v22h17.25q-.05.45-.075.85-.025.4-.025.85 0 .45.025.85.025.4.075.85ZM15 28.75v3h10.15q.35-.85.8-1.575.45-.725 1-1.425Zm-4.85-6.25v3h3v-3Zm6.2 0v3h3v-3Zm6.15 0v3h3v-3Zm6.2 0v3h2.15q.25-.1.45-.225t.4-.225V22.5Zm6.15 0v1.65q.45-.1.95-.125.5-.025 1-.025h.55q.25 0 .5.05V22.5Zm-24.7-6.25v3h3v-3Zm6.2 0v3h3v-3Zm6.15 0v3h3v-3Zm6.2 0v3h3v-3Zm6.15 0v3h3v-3ZM36.8 44.3l-2.35-2.4 3.45-3.5h-8.8V35h8.8l-3.45-3.5 2.35-2.4 7.6 7.6Z"/></svg>