<svg xmlns="http://www.w3.org/2000/svg" width="48" height="48" viewBox="0 -960 960 960"><path d="M320-768.435q-31.196 0-53.413-22.337-22.217-22.337-22.217-53.293 0-31.196 22.217-53.533T320-919.935q31.196 0 53.413 22.337 22.217 22.337 22.217 53.533 0 30.956-22.217 53.293T320-768.435Zm352.022.326-43.913-43.913 109.413-109.413h87.826L672.022-768.109ZM77.369-34.499V-100H120q30.522 0 61.522-11.239T240-149.717q26.478 26.478 58.837 37.597Q331.196-101 360.717-100q29.283 0 60.163-11.239 30.881-11.239 59.12-38.478 27.478 27.239 58.478 38.478T600-100q31.522 0 61.141-10.739 29.62-10.739 58.859-38.978 29.239 28.239 58.859 38.978Q808.478-100 840-100h42.63v65.5H840q-29 0-59.5-8T720-74.26Q690-50.5 659.5-42.5t-59.5 8q-29 0-59.5-8T480-74.26Q451.239-51.5 420.859-43q-30.381 8.5-59.142 8.5-29.239-.76-61.478-8.76-32.239-8-60.239-31-30 23.76-60.5 31.76t-59.5 8H77.37ZM360-196.24q-26.717 0-52.435-11.62-25.717-11.619-42.195-26.576 15.521-13.761 31.402-25.261 15.88-11.5 32.641-24.261L247.37-442.283V-640q0-30.196 21.336-51.413Q290.043-712.63 320-712.63h120q40.283 0 76.402-14.359 36.12-14.359 65.598-40.837L627.826-722q-38.196 35.196-85.772 54.913Q494.478-647.37 440-647.37h-63.37v154.74h116.566l68.521 76.282q60.761-25.522 113.522-40.902Q728-472.63 766-472.63q22.957 0 44.794 8.478Q832.63-455.674 832.63-429q0 40.283-60.728 103.706-60.728 63.424-155.815 125.946-4.152 1.674-8.163 2.391-4.011.718-7.924.718-33.761 0-64.761-17.402-31-17.402-55.239-46.163-24.239 28.761-55.239 46.163-31 17.402-64.761 17.402Zm29.435-128.826q22.282-13.522 56.511-32.326 34.228-18.805 53.51-29.566l-36.652-40.413-113.739 5 40.37 97.305Z"/></svg>