<svg xmlns="http://www.w3.org/2000/svg" width="48" height="48" viewBox="0 -960 960 960"><path d="M480-114.022q-63.957 0-109.25-43.26-45.294-43.261-47.446-106.74H121.413q-3.196-16.674-5.294-32.706-2.097-16.033-2.097-35.424-.479-152.718 93.858-259.435Q302.217-698.304 445.935-710.5v-137.391h68.13V-710.5q143.718 12.196 238.055 118.913 94.337 106.717 94.098 259.435 0 19.391-2.218 35.424-2.217 16.032-5.413 32.706H636.935q-2.391 63.479-47.685 106.74-45.293 43.26-109.25 43.26Zm-297.848-218.13h595.696q0-130.087-86.783-220.391Q604.283-642.848 480-642.848t-211.065 90.305q-86.783 90.304-86.783 220.391Zm297.848 150q35.848 0 60.293-23.489 24.446-23.489 25.642-58.381h-171.87q1.196 34.892 25.642 58.381 24.445 23.489 60.293 23.489Zm0-81.87Z"/></svg>