<svg xmlns="http://www.w3.org/2000/svg" width="48" height="48" viewBox="0 96 960 960"><path d="M640 751.217q73.087 0 124.272-51.008Q815.456 649.201 815.456 576q0-73.087-51.184-124.272Q713.087 400.544 640 400.544t-124.152 51.184Q464.783 502.913 464.783 576t51.008 124.152Q566.799 751.217 640 751.217Zm0 68.37q-92.478 0-160.457-60.261-67.978-60.261-80.173-149.261H75.935v-68.13H399.37q12.195-89 80.173-149.261Q547.522 332.413 640 332.413q101.654 0 172.621 70.971 70.966 70.97 70.966 172.63T812.621 748.63Q741.654 819.587 640 819.587ZM640 576Z"/></svg>