<svg xmlns="http://www.w3.org/2000/svg" width="48" height="48" viewBox="0 -960 960 960"><path d="M837.348-677.37q0-82.434-57.827-140.25-57.827-57.815-140.478-57.815v-49.587q103.328 0 175.61 72.232 72.282 72.232 72.282 175.42h-49.587ZM73.304-114.022v-645.196h211.544l75.63-89.63h238.537v104.478q45.028 0 76.028 31.12 31 31.12 31 75.88h179.218v523.348H73.304ZM746.043-677.37q0-44.76-31-75.88-31-31.12-76-31.12v-49.587q64.674 0 110.751 46.077 46.076 46.076 45.836 110.51h-49.587Zm-267 411.37q72.24 0 121.12-49 48.88-49 48.88-121 0-73-48.88-121.5T479.043-606q-73 0-121.5 48.5t-48.5 121.5q0 72 48.5 121t121.5 49Z"/></svg>