<svg xmlns="http://www.w3.org/2000/svg" width="48" height="48" viewBox="0 96 960 960"><path d="M74.022 901.978V679.652q36.521-7.761 61.26-37.185 24.74-29.424 24.74-66.467 0-37.283-24.74-67.087-24.739-29.804-61.26-36.804V249.782h812.196v222.327q-36.761 7-60.881 36.804-24.119 29.804-24.119 67.087 0 37.043 24.119 66.467 24.12 29.424 60.881 37.185v222.326H74.022Zm300.065-158.956L480 660.587l106.152 82.435-40.717-130.631 99.913-83.434H522.957L480 404.804l-42.957 124.153H314.891l99.674 83.434-40.478 130.631Z"/></svg>