<svg xmlns="http://www.w3.org/2000/svg" width="48" height="48" viewBox="0 -960 960 960"><path d="M224.783-400q0 59.179 26.108 111.448 26.109 52.269 73.283 87.595-4-10.988-6-22.679-2-11.69-2-22.973 1.196-30.804 13.315-57.609 12.12-26.804 34.402-49.086L480-467.652l116.348 114.348q22.282 22.282 34.402 49.086 12.12 26.805 13.076 57.609 0 11.283-2 22.973-2 11.691-5.761 22.679 46.696-35.326 73.044-87.595Q735.456-340.821 735.456-400q0-52.087-22.068-102.058-22.068-49.97-63.345-91.964-21 14.283-43.842 22.424-22.842 8.142-45.21 8.142-60.274 0-100.632-39.946Q420-643.348 417.37-705.391v-20q-44.363 32.264-79.91 71.317-35.547 39.052-60.59 81.357-25.044 42.304-38.566 86.608-13.521 44.305-13.521 86.109ZM480-372.174l-68.31 67.562q-13.82 13.572-20.962 29.917-7.141 16.345-7.141 35.643 0 39.503 28.086 66.886 28.086 27.383 68.369 27.383 40.284 0 68.328-27.441 28.043-27.44 28.043-66.967 0-19.048-7.126-35.403-7.125-16.355-20.633-29.928L480-372.174Zm3.587-473.565V-708q0 32.476 22.453 54.444 22.453 21.969 54.938 21.969 17.207 0 32.038-7.141 14.832-7.142 26.354-21.663l19.673-24.392q76.207 43.413 120.375 119.739 44.169 76.327 44.169 164.974 0 135.531-94.047 229.594-94.047 94.063-229.556 94.063-135.508 0-229.54-94.043-94.031-94.043-94.031-229.547 0-129.193 87.793-249.606Q332-770.022 483.587-845.739Z"/></svg>