<svg xmlns="http://www.w3.org/2000/svg" width="48" height="48" viewBox="0 -960 960 960"><path d="m534.63-517.826-96.804-96.804q8.044-7.522 18.715-12.164 10.672-4.641 23.459-4.641 29.467 0 50.451 20.984T551.435-560q0 12.787-4.641 23.459-4.642 10.671-12.164 18.715ZM835.87-37.174 642.358-230.89q-34.069 37.747-73.974 76.71Q528.478-115.217 480-74.739 317.091-213.882 236.513-332.462q-80.578-118.581-80.578-219.596 0-38.659 7.237-72.697 7.238-34.037 20.48-64.98L25.044-848l44.913-44.913L880.783-82.087 835.87-37.174ZM722.261-329.957q41.283-60.76 61.543-116.021Q804.065-501.239 804.065-552q0-151.859-97.726-241.962Q608.613-884.065 480-884.065q-62.745 0-120.514 22.641T256.478-795.5l48.457 47.978q33.804-32.326 78.478-50.369 44.674-18.044 96.587-18.044 107.706 0 181.82 73.966Q735.935-668.004 735.935-552q0 36.469-15.783 79.724-15.782 43.254-48.109 92.341l50.218 49.978ZM480-164.5q32.838-30.188 61.104-58.518 28.266-28.33 52.548-56.539L236.826-636.456q-6 20.081-9.38 40.747-3.381 20.666-3.381 43.709 0 73.804 64.007 170.883Q352.078-284.039 480-164.5Zm-64.761-293.543Zm73.631-105.305Z"/></svg>