<svg xmlns="http://www.w3.org/2000/svg" width="48" height="48" viewBox="0 -960 960 960"><path d="M397.37-114.02v-78.87q0-21.48 10.74-40.58 10.74-19.1 29.46-30.57 46.23-27 97.25-41.24 51.02-14.24 105.18-14.24 54.16 0 105.18 14.12 51.02 14.12 97.25 41.36 18.72 11.24 29.46 30.45 10.74 19.22 10.74 40.7v78.87H397.37Zm-323.35 0v-489.01L400-847.65l246.22 184.54q-77.11-2.15-132.98 51.57-55.87 53.72-55.87 131.54 0 35.15 12.12 66.17 12.12 31.03 34.12 55.26-25.59 7.82-49.79 18.26-24.2 10.43-47.02 24.27-32.71 18.71-51.07 52.07t-18.36 71.08v78.87H74.02Zm479.19-279.13q-35.84-35.78-35.84-86.79 0-51.02 35.78-86.85 35.78-35.84 86.79-35.84 51.02 0 86.85 35.78 35.84 35.78 35.84 86.79 0 51.02-35.78 86.85-35.78 35.84-86.79 35.84-51.02 0-86.85-35.78Z"/></svg>