<svg xmlns="http://www.w3.org/2000/svg" width="48" height="48" viewBox="0 96 960 960"><path d="M520 945.978q-71.391 0-138.304-27.195-66.914-27.196-115.631-74.348l48.739-48.979Q356 834.37 409.62 856.109q53.619 21.739 110.38 21.739 124.283 0 213.065-88.902Q821.848 700.043 821.848 576q0-124.283-88.783-213.065Q644.283 274.152 520 274.152q-123.565 0-212.706 88.544-89.142 88.543-89.142 212.347v17.044l70-70L332.065 566 184.087 713.978 36.109 566l43.913-43.913 70 70v-17.044q0-76.445 28.858-143.657 28.859-67.212 79.196-117.43 50.337-50.217 117.669-79.195Q443.076 205.782 520 205.782q76.924 0 144.255 28.979 67.332 28.978 117.669 79.315 50.337 50.337 79.315 117.727 28.979 67.39 28.979 144.381 0 154.459-107.684 262.127Q674.85 945.978 520 945.978ZM405 731V541h40v-45q0-30.938 22.044-52.969 22.045-22.031 53-22.031Q551 421 573 443.031q22 22.031 22 52.969v45h40v190H405Zm70-190h90v-44.912Q565 477 552.088 464q-12.913-13-32-13Q501 451 488 463.938 475 476.875 475 496v45Z"/></svg>