<svg xmlns="http://www.w3.org/2000/svg" width="48" height="48" viewBox="0 -960 960 960"><path d="M152.59-74.5v-566.2h133.34v-87.73q0-83.24 55.66-139.8 55.66-56.55 136.92-56.55 81.25 0 137.09 56.71 55.83 56.72 55.83 139.64v87.73h133.35v156.81q-14.67-3.24-31.3-3.88-16.63-.64-37.07.31-94.65 8.11-162.78 80.78-68.13 72.66-68.13 171.27 0 44 15.48 85.45 15.48 41.46 42.95 75.46H152.59ZM758.5-42.41q-79 0-136-57t-57-136q0-79 57-136t136-57q79 0 136 57t57 136q0 79-57 136t-136 57ZM354.07-640.7H603.3v-87.73q0-55.33-35.94-91.66-35.95-36.32-88.74-36.32-52.68 0-88.62 36.32-35.93 36.33-35.93 91.66v87.73ZM758.5-245.41q28 0 47.5-19.5t19.5-47.5q0-28-19.5-47t-47.5-19q-27 0-46.5 19.5t-19.5 46.5q0 28 19 47.5t47 19.5Zm0 133q33 0 62-15.5t47-42.5q-25.76-14-52.84-22.5-27.08-8.5-56.16-8.5-28.76 0-55.88 8.5t-53.12 22.5q18 27 47 42.5t62 15.5Z"/></svg>