<svg xmlns="http://www.w3.org/2000/svg" width="48" height="48" viewBox="0 96 960 960"><path d="M193.304 942.696V329.065H354.5V167.63h251v161.435h161.435v613.631h-68.29q0 18.644-12.784 31.474Q673.076 987 654.5 987q-18.674 0-31.37-12.83-12.695-12.83-12.695-31.474h-260.63q0 18.674-12.831 31.489Q324.144 987 305.5 987q-18.542 0-31.304-12.83-12.761-12.83-12.761-31.474h-68.131ZM402.63 329.065h154.74V216H402.63v113.065Zm-141.195 545.5h437.13v-477.13h-437.13v477.13Zm67.13-57.13h45.5v-362.87h-45.5v362.87Zm128.805 0h45.26v-362.87h-45.26v362.87Zm128.565 0h45.5v-362.87h-45.5v362.87Zm-324.5 57.13v-477.13 477.13Z"/></svg>