<svg xmlns="http://www.w3.org/2000/svg" width="48" height="48" viewBox="0 -960 960 960"><path d="M74.02-111.15V-312.3h812.2v201.15H74.02Zm344.52-293.57q-20.45 22-74.69 22-54.24 0-72.7-22-18.45-22-59.45-22t-62.22 22q-21.22 22-75.46 22v-66.45q33 0 58.22-22t79.46-22q54.23 0 72.69 22t59.46 22q41 0 61.45-22 20.46-22 74.7-22t74.7 22q20.45 22 61.57 22 41.12 0 59.46-22 18.34-22 72.69-22 54.36 0 79.46 22 25.1 22 58.34 22v66.45q-54.24 0-75.34-22t-62.22-22q-41.12 0-59.57 22-18.46 22-72.82 22-54.36 0-74.81-22-20.46-22-61.46-22t-61.46 22ZM74.02-561.59v-44.54q0-106.85 107.51-174.66Q289.04-848.61 480-848.61q191.2 0 298.71 67.82 107.51 67.81 107.51 174.66v44.54H74.02Z"/></svg>