<svg xmlns="http://www.w3.org/2000/svg" width="48" height="48" viewBox="0 -960 960 960"><path d="M74.022-154.022v-652.196h497.587q-4.435 17.153-5.674 34.185-1.239 17.033 1.239 34.185H147.152l332.848 218 148.37-97.043q10.956 9.956 23.391 18.108 12.435 8.151 25.869 13.805L480-454.348l-337.848-223v455.196h675.696v-353.304q19.185-5.022 36.07-14.699 16.886-9.677 32.3-22.606v458.739H74.022Zm68.13-583.826v515.696-515.696Zm617.73 91.913q-47.576 0-80.762-33.303-33.185-33.303-33.185-80.88 0-47.576 33.303-80.762 33.303-33.185 80.88-33.185 47.576 0 80.762 33.303 33.185 33.303 33.185 80.88 0 47.576-33.303 80.762-33.303 33.185-80.88 33.185Z"/></svg>