<svg xmlns="http://www.w3.org/2000/svg" width="48" height="48" viewBox="0 -960 960 960"><path d="M155.8-155.79q-84.41-84.4-84.41-201.68 0-117.29 84.4-201.7 84.4-84.42 201.68-84.42 117.29 0 201.7 84.4 84.42 84.4 84.42 201.69 0 117.28-84.4 201.7-84.4 84.41-201.69 84.41-117.28 0-201.7-84.4Zm355.75-47.75q63.91-63.78 63.91-153.95 0-90.16-63.9-154.06-63.9-63.91-154.07-63.91-90.16 0-153.95 63.9-63.78 63.9-63.78 154.07 0 90.16 63.78 153.95 63.78 63.78 153.95 63.78 90.16 0 154.06-63.78Zm160.04-120.87q1-7 1.5-16.1.5-9.1.5-17.1 0-129.15-93.42-222.56-93.41-93.42-222.56-93.42-8 0-16.6.5-8.6.5-15.6 1.5 22.24-91.91 100.16-154.46 77.91-62.56 177.15-62.56 117.06 0 201.48 84.4 84.41 84.41 84.41 201.58 0 99.15-62.06 176.56-62.05 77.42-154.96 101.66Z"/></svg>