<svg xmlns="http://www.w3.org/2000/svg" width="48" height="48" viewBox="0 -960 960 960"><path d="M144.739-257.848 305.5-699.522h58.261L526-257.848h-56.544l-42.282-119.326H242.565l-42.522 119.326h-55.304Zm114.544-167.63h150.695L335.13-636.739h-1.76l-74.087 211.261Zm409.108 177.869q-51 0-84.097-26.717-33.098-26.717-33.098-70.957 0-47.717 35.858-76.456 35.859-28.739 94.055-28.739 26 0 48.261 4.5 22.26 4.5 37.782 12.5v-19.674q0-36.326-20.022-56.228-20.021-19.903-57.347-19.903-22.283 0-42.881 8.12t-38.315 24.402l-31.239-32.065q24.239-22.283 51.554-33.522 27.316-11.239 62.316-11.239 61.043 0 93.141 31.717 32.098 31.718 32.098 92.761v191.261h-48.305v-41.043h-3.761q-15.521 25.521-43.261 38.402-27.739 12.88-52.739 12.88Zm1.674-41.348q35.283 0 66.565-29.282 31.283-29.283 31.283-74.804-15.043-7.522-36.087-12.044-21.043-4.522-42.043-4.522-42.239 0-65.261 16.783T601.5-345.761q0 25.761 20.022 41.283 20.022 15.521 48.543 15.521Z"/></svg>