<svg xmlns="http://www.w3.org/2000/svg" width="48" height="48" viewBox="0 -960 960 960"><path d="M355.522-687.065 188.935-853.652q16.761-17 37.619-25.859 20.859-8.859 44.816-8.859 48.956 0 82.793 34.457Q388-819.457 388-770.5q0 26.717-8.239 48.196-8.239 21.478-24.239 35.239ZM805.5-238.087l-65.5-65.5V-822.63H555.5v335.543l-65.5-65.5V-888.37h315.5v650.283Zm-570 166.218V-232.37h-38.783l-41.435-421.26h56.5L24.174-842l43.913-43.913L877.913-76.087 834-32.174l-278.5-278.5v238.805h-320Zm22.87-225.761h26l25-258.413-33.327-32.327H230.37l28 290.74ZM490-137.37v-238.804L372.022-494.152l-26 261.782H301v95h189Zm-231.63-451h-28 79-51Z"/></svg>