<svg xmlns="http://www.w3.org/2000/svg" width="48" height="48" viewBox="0 -960 960 960"><path d="m697.239-358.37-47.304-47.304q20.043-25.283 29.446-56.706 9.402-31.424 9.402-65.185h65.5q0 46-14.761 89.598-14.761 43.597-42.283 79.597ZM461.957-593.174ZM566.37-488.761l-61.609-60.848v-226.69q0-16.778-11.447-28.207-11.447-11.429-28.357-11.429-17.186 0-28.376 11.447-11.19 11.447-11.19 28.118v146.631l-66.695-66.696v-88.783q2.391-40.887 32.908-69.867 30.517-28.98 73.294-28.98 44.888 0 76.441 31.391 31.552 31.391 31.552 76.304v248.805q0 7.591-1.335 19.647-1.336 12.057-5.186 19.157ZM432.326-109v-136.742q-109.348-11.453-183.022-91.845-73.674-80.391-73.674-189.978h65.5q0 92.435 65.831 155.63 65.83 63.196 157.996 63.196 39.553 0 76.039-13.294 36.486-13.294 66.222-37.054l47.065 47.065q-32.196 27.913-71.884 44.557-39.688 16.644-84.812 21.748V-109h-65.261Zm397.717 52.565-795-795 39.914-39.913 795 795-39.914 39.913Z"/></svg>