<svg xmlns="http://www.w3.org/2000/svg" width="48" height="48" viewBox="0 -960 960 960"><path d="M142.152-154.022q-28.349 0-48.24-19.89-19.89-19.891-19.89-48.24v-515.696q0-28.447 19.89-48.408 19.891-19.962 48.24-19.962h675.696q28.447 0 48.408 19.962 19.962 19.961 19.962 48.408v515.696q0 28.349-19.962 48.24-19.961 19.89-48.408 19.89H142.152Zm0-68.13h675.696v-515.696H142.152v515.696Zm60-60h395.696v-395.696H202.152v395.696Zm514.036 0q13.703 0 22.682-9.112 8.978-9.112 8.978-22.815 0-13.704-9.145-22.682-9.144-8.978-22.663-8.978-13.823 0-22.801 9.144-8.978 9.145-8.978 22.663 0 13.823 9.111 22.802 9.112 8.978 22.816 8.978Zm-450.449-63.587v-268.522h268.522v268.522H265.739Zm450.449-102.587q13.703 0 22.682-9.158 8.978-9.158 8.978-22.696 0-13.537-9.145-22.635-9.144-9.098-22.663-9.098-13.823 0-22.801 9.206-8.978 9.206-8.978 22.815 0 13.609 9.111 22.588 9.112 8.978 22.816 8.978Zm0-165.935q13.703 0 22.682-9.111 8.978-9.112 8.978-22.816 0-13.703-9.145-22.682-9.144-8.978-22.663-8.978-13.823 0-22.801 9.145-8.978 9.144-8.978 22.663 0 13.823 9.111 22.801 9.112 8.978 22.816 8.978ZM142.152-222.152v-515.696 515.696Z"/></svg>