<svg xmlns="http://www.w3.org/2000/svg" width="48" height="48" viewBox="0 -960 960 960"><path d="M313.304-732.544 207.782-837.826l47.74-47.979 105.521 105.522-47.739 47.739Zm333.631 0-47.739-47.739 105.282-105.522 47.74 47.979-105.283 105.282Zm-201-57.739v-175.935h68.13v175.935h-68.13ZM114.022 5.5v-360.935l96.674-291.022h538.658l96.864 290.918V5.501h-87.696v-84H200.478v84h-86.456Zm91.608-419.978h548.979l-54.283-163.848H259.674L205.63-414.478Zm81.33 219.043q22.997 0 38.616-15.75 15.62-15.75 15.62-38.25 0-23.333-15.87-39.667-15.869-16.333-38.13-16.333-23.573 0-39.787 16.265-16.213 16.265-16.213 39.5t16.145 38.735q16.145 15.5 39.619 15.5Zm387.083 0q23.334 0 39.667-15.75 16.333-15.75 16.333-38.25 0-23.333-16.264-39.667-16.265-16.333-39.5-16.333-23.236 0-38.736 16.265-15.5 16.265-15.5 39.5t15.75 38.735q15.75 15.5 38.25 15.5Z"/></svg>