<svg xmlns="http://www.w3.org/2000/svg" width="48" height="48" viewBox="0 -960 960 960"><path d="m308.565-50.239-66.456-49.783v-171.13h-63.066q-28.447 0-48.408-19.891-19.961-19.891-19.961-48.24v-344.065h-43.11v-66.457H242.11v-76.413H179v-66.456h192.913v66.456h-63.348v76.413h174.783v66.457H440v344.065q0 28.349-20.016 48.24-20.017 19.891-48.115 19.891h-63.304v220.913Zm376.098-30.24q-68.033 0-116.348-48.181Q520-176.843 520-245.022v-320q0-68.152 48.315-116.467 48.315-48.316 116.348-48.316t116.348 48.316q48.315 48.315 48.315 116.467v320q0 68.179-48.315 116.362-48.315 48.182-116.348 48.182ZM177.13-337.608h196.413v-76.413h-120v-68.13h120v-56.413h-120v-68.37h120v-76.413H177.13v345.739Zm409.327 17.804H782.87v-170.673H586.457v170.673Z"/></svg>