<svg xmlns="http://www.w3.org/2000/svg" width="48" height="48" viewBox="0 -960 960 960"><path d="M396.46-51.87 351.3-96.78l55.81-55.57H194.02v-62.63h215.09l-57.81-57.8 45.16-44.68 132.91 132.68L396.46-51.87Zm166.89-100.48v-62.63h202.87v62.63H563.35ZM456.92-733.27q-9.35 9.36-9.35 22.07 0 12.72 9.35 22.08 9.36 9.36 22.08 9.36 12.72 0 22.08-9.36 9.35-9.36 9.35-22.08 0-12.71-9.35-22.07-9.36-9.36-22.08-9.36-12.72 0-22.08 9.36Zm-262.9 458.64V-891h572.2v217.89h42v177.78h-42v220.7H481.28l-84.82-85.83-87.83 85.83H194.02Z"/></svg>