<svg xmlns="http://www.w3.org/2000/svg" width="48" height="48" viewBox="0 -960 960 960"><path d="M455.63-487.7q-9.7-9.69-9.7-24.37v-343.84q0-14.68 9.7-24.49 9.7-9.82 24.37-9.82 14.67 0 24.37 9.82 9.7 9.81 9.7 24.49v343.84q0 14.68-9.7 24.37-9.7 9.7-24.37 9.7-14.67 0-24.37-9.7Zm-118.4 346.82q-66.58-28.86-116.03-78.32-49.46-49.45-78.32-116.03Q114.02-401.8 114.02-478q0-64 21.9-123.38 21.91-59.38 63.43-107.62 9.95-11.67 24.87-12.41 14.91-.74 26.35 10.21 9.19 9.2 8.05 23.37-1.14 14.18-9.86 25.61-32.8 38.29-49.71 85.97-16.9 47.68-16.9 98.25 0 124.04 86.9 210.95 86.91 86.9 210.95 86.9 124.04 0 210.95-86.9 86.9-86.91 86.9-210.95 0-51.57-16.9-98.63-16.91-47.07-49.47-86.35-8.96-11.67-9.84-25.23-.88-13.55 8.56-22.99 11.67-11.19 27.58-9.95 15.92 1.24 26.11 13.91Q805.17-659 825.7-600q20.52 59 20.52 122 0 76.2-28.98 142.77-28.98 66.58-78.44 116.03-49.45 49.46-116.03 78.32Q556.2-112.02 480-112.02q-76.2 0-142.77-28.86Z"/></svg>