<svg xmlns="http://www.w3.org/2000/svg" width="48" height="48" viewBox="0 -960 960 960"><path d="M121.2-654.43V-850.8h268.56v196.37H121.2Zm68.77 421.48q-34.36-34.38-34.84-82.62h-78v-278.86h312.63v216h159.48l146.85-185v-137.53h-123v-62.63h185.63v222.11L579.28-315.57H389.76q-.24 48.24-34.6 82.62t-82.59 34.38q-48.24 0-82.6-34.38Zm120.54-44.56q15.9-16.08 16.38-38.06H218.24q.24 22.05 16.26 38.09 16.02 16.05 38.07 16.05 22.04 0 37.94-16.08Zm371.97 44.61q-34.24-34.33-34.24-83.07 0-48.75 34.21-83.11 34.21-34.35 82.96-34.35 48.74 0 83.1 34.33 34.36 34.33 34.36 83.07 0 48.75-34.33 83.11-34.33 34.35-83.08 34.35-48.74 0-82.98-34.33Zm121.62-44.58q16.14-16.05 16.14-38.55 0-22.49-16.17-38.51-16.16-16.03-38.66-16.03-22.5 0-38.52 16.05-16.02 16.05-16.02 38.55 0 22.49 16.05 38.51 16.04 16.03 38.54 16.03t38.64-16.05Z"/></svg>