<svg xmlns="http://www.w3.org/2000/svg" width="48" height="48" viewBox="0 -960 960 960"><path d="M221.5-32.59-10.61-265.46l55.35-56.63 117.85 33.05v-389.05h65.5v326.22h67v-165.5h65.26v165.5h66V-460.2h65.5v108.33h67v-32.63h65.26v199.04q0 64.2-44.22 108.54-44.22 44.33-108.41 44.33H221.5Zm431.76-504.3q-89.3 0-163.5-46.44-74.19-46.43-109.43-128.1 35.24-81.68 109.43-128.23 74.2-46.56 163.75-46.56 89.79 0 163.99 46.56 74.2 46.55 109.67 128.73-33.47 82.17-108.92 128.1-75.45 45.94-164.99 45.94Zm65.69-109.46q26.59-26.58 26.59-65.19t-26.7-65.21q-26.71-26.6-65.32-26.6-38.61 0-65.09 26.71-26.47 26.7-26.47 65.31t26.58 65.09q26.59 26.48 65.2 26.48t65.21-26.59Zm-102.02-28.36q-14.97-14.95-14.97-36.81 0-21.87 15.06-36.85 15.07-14.98 36.82-14.98t36.73 15.07q14.97 15.07 14.97 36.93 0 21.87-15.06 36.73-15.07 14.86-36.82 14.86t-36.73-14.95Z"/></svg>