<svg xmlns="http://www.w3.org/2000/svg" width="48" height="48" viewBox="0 -960 960 960"><path d="M480-665.63q-20-13.76-40.54-20.26-20.54-6.5-41.46-6.5-25.6 0-48.55 9.25-22.96 9.24-43.16 29.47-19.2 19.24-28.94 42.67-9.74 23.43-9.74 49 0 19.92 6.5 40.96T294.37-480q-13.76 20-20.26 40.54-6.5 20.54-6.5 41.46 0 25.6 9.25 48.55 9.24 22.96 29.47 43.16 19.24 19.2 42.67 28.94 23.43 9.74 49 9.74 19.92 0 40.96-6.5T480-294.37q20 13.76 40.54 20.26 20.54 6.5 41.46 6.5 25.6 0 48.55-9.25 22.96-9.24 43.16-29.47 19.2-19.24 28.94-42.67 9.74-23.43 9.74-49 0-19.92-6.5-40.96T665.63-480q13.76-20 20.26-40.54 6.5-20.54 6.5-41.46 0-25.6-9.25-48.55-9.24-22.96-29.47-43.16-19.24-19.2-42.67-28.94-23.43-9.74-49-9.74-19.92 0-40.96 6.5T480-665.63Zm0 291.76-41.2 28.96q-8.81 6.67-18.98 9.59-10.17 2.93-20.69 2.93-13.41 0-25.63-4.88-12.21-4.88-21.78-14.4-9.57-9.53-14.45-21.76-4.88-12.24-4.88-25.74 0-10.59 2.93-20.22 2.92-9.63 9.59-19.41l28.96-41.2-28.96-41.2q-6.67-8.81-9.59-18.98-2.93-10.17-2.93-20.69 0-13.41 4.88-25.63 4.88-12.21 14.4-21.78 9.53-9.57 21.76-14.45 12.24-4.88 25.74-4.88 10.59 0 20.22 2.93 9.63 2.92 19.41 9.35l41.2 29.2 41.2-29.2q8.81-6.43 18.98-9.35 10.17-2.93 20.69-2.93 13.41 0 25.63 4.88 12.21 4.88 21.78 14.4 9.57 9.53 14.45 21.76 4.88 12.24 4.88 25.74 0 10.59-2.93 20.22-2.92 9.63-9.35 19.41l-29.2 41.2 29.2 41.2q6.43 8.81 9.35 18.98 2.93 10.17 2.93 20.69 0 13.41-4.88 25.63-4.88 12.21-14.4 21.78-9.53 9.57-21.76 14.45-12.24 4.88-25.74 4.88-10.59 0-20.22-2.93-9.63-2.92-19.41-9.59L480-373.87Zm30.17-75.96q12.22-12.21 12.22-30.17t-12.22-30.17q-12.21-12.22-30.17-12.22t-30.17 12.22q-12.22 12.21-12.22 30.17t12.22 30.17q12.21 12.22 30.17 12.22t30.17-12.22ZM480-74.02q-83.43 0-157.51-31.88-74.07-31.88-129.39-87.2-55.32-55.32-87.2-129.39Q74.02-396.57 74.02-480q0-84.43 31.88-158.51 31.88-74.07 87.2-128.89 55.32-54.82 129.39-86.82 74.08-32 157.51-32 84.43 0 158.51 32 74.07 32 128.89 86.82 54.82 54.82 86.82 128.89 32 74.08 32 158.51 0 83.43-32 157.51-32 74.07-86.82 129.39-54.82 55.32-128.89 87.2Q564.43-74.02 480-74.02Zm0-68.13q141.04 0 239.45-98.78 98.4-98.79 98.4-239.07 0-141.04-98.4-239.45-98.41-98.4-239.45-98.4-140.28 0-239.07 98.4-98.78 98.41-98.78 239.45 0 140.28 98.78 239.07 98.79 98.78 239.07 98.78ZM480-480Z"/></svg>