<svg xmlns="http://www.w3.org/2000/svg" width="48" height="48" viewBox="0 96 960 960"><path d="M156.869 803.761q-32.63 0-55.586-23.107-22.957-23.108-22.957-55.48V406.237q0-32.846 23.001-55.922t55.63-23.076q32.391 0 55.467 22.576t23.076 55.011q33.478-59.609 93.632-96.174 60.154-36.565 133.02-36.565 52.508 0 100.232 19.739 47.725 19.739 84.991 57.005L877.783 579 508.152 948.391 276.957 719.196q-12.839-12.486-23.126-26.471-10.287-13.986-18.331-29.312v61.761q0 32.372-23.12 55.48-23.121 23.107-55.511 23.107Zm118.87-270.709q0 36.991 14.254 71.492 14.254 34.501 40.835 60.871l177.324 177.563L771.13 579 593.806 401.437q-26.576-26.342-60.397-40.596-33.82-14.254-70.885-14.254-77.937 0-132.361 54.341-54.424 54.34-54.424 132.124Zm247.696 61.231Z"/></svg>