<svg xmlns="http://www.w3.org/2000/svg" width="48" height="48" viewBox="0 -960 960 960"><path d="M480-109q-64.674 0-109.37-44.815-44.695-44.815-44.695-109.37 0-64.554 44.695-109.369Q415.326-417.37 480-417.37t109.37 44.816q44.695 44.815 44.695 109.369 0 64.555-44.695 109.37Q544.674-109 480-109Zm0-68.37q36.201 0 61.068-24.843 24.867-24.843 24.867-61.011 0-36.167-24.867-60.971Q516.201-349 480-349q-36.201 0-61.068 24.805-24.867 24.804-24.867 60.971 0 36.168 24.867 61.011Q443.799-177.37 480-177.37ZM116.5-639.043l-47.587-45.066q80.956-77.913 184.989-121.087Q357.935-848.37 480-848.37q122.065 0 226.098 43.055 104.033 43.054 184.989 120.967L843.5-639.043q-72.478-68.674-163.793-106.131Q588.391-782.63 480-782.63q-108.391 0-199.707 37.576-91.315 37.576-163.793 106.011ZM694.391-486.5q-42.043-36-96.521-58.435Q543.391-567.37 480-567.37q-63.391 0-117.489 22.555-54.098 22.554-96.663 58.315l-47.826-46.304q50.76-45.718 118.434-72.772Q404.13-632.63 480-632.63t143.044 27.054q67.174 27.054 118.174 72.772L694.391-486.5ZM480-263.304Z"/></svg>