<svg xmlns="http://www.w3.org/2000/svg" width="48" height="48" viewBox="0 0 48 48"><path d="M19.75 19.45 13 12.8q2-1.35 4.275-2.075Q19.55 10 22 10q.1 0 .175.025.075.025.175.025-1.4 1.65-2.05 3.65-.65 2-.65 4.15 0 .4.025.8t.075.8Zm15.55 15.3-4.5-4.45q1.75.2 3.475-.05t3.375-1q-.35 1.5-.95 2.875t-1.4 2.625ZM27.75 21.9l6.35-18h4.1l6.35 18h-3.8l-1.4-4h-6.4l-1.4 4Zm6.1-6.7h4.6l-2.3-7.3ZM40 44.3l-2.25 2.25-7.1-7.15q-1.95 1.25-4.125 1.925T22 42q-6.65 0-11.325-4.675Q6 32.65 6 26q0-2.35.65-4.55.65-2.2 1.95-4.15L1.2 9.9l2.25-2.2Z"/></svg>