<svg xmlns="http://www.w3.org/2000/svg" width="48" height="48" viewBox="0 96 960 960"><path d="M806.218 807.087 414.674 415.304H604.5v-89.739q0-52.927-37.946-89.453-37.945-36.525-90.745-36.525-53.799 0-90.793 36.847-36.994 36.847-36.994 88.653v23.565L288 288.63q9.957-68.804 62.978-113.108Q404 131.217 475.761 131.217q82.117 0 139.493 56.337 57.376 56.337 57.376 137.533v90.217h133.588v391.783Zm65.326 270.743-96.326-96.33H154.022V417.456h57.152L-14 192.522l44.913-44.152 885.305 885.54-44.674 43.92ZM429 634.522q-11 11-16.5 24.619-5.5 13.62-5.5 29.381 0 32 21.5 53t53.5 21q16 0 29-5t24-16l-106-107Z"/></svg>