<svg xmlns="http://www.w3.org/2000/svg" width="48" height="48" viewBox="0 -960 960 960"><path d="M835.87-37.174 502.63-369.935V-460l263.588 263.587v83.109h-67.573q0 18.644-12.784 31.474Q673.076-69 654.5-69q-18.674 0-31.37-12.83-12.695-12.83-12.695-31.474h-260.63q0 18.674-12.831 31.489Q324.144-69 305.5-69q-18.542 0-31.304-12.83-12.761-12.83-12.761-31.474h-68.131v-613.631h42.392l25.717 25.635v89.67L25.043-848l44.914-44.913L880.783-82.087 835.87-37.174Zm-333.24-333-45.26-45.739v177.348h45.26v-131.609ZM374.065-498.978l-45.5-45.5v305.913h45.5v-260.413Zm28.565-227.957h154.74V-840H402.63v113.065Zm364.305 441.652-135.5-135.5v-180.652h-45.5v135.152l-83.305-83.065v-52.087h-37.847v14L321.217-731H354.5v-157.37h251v161.435h161.435v441.652Zm-181-45.913v92.631h45.5v-92.631h-45.5Z"/></svg>