<svg xmlns="http://www.w3.org/2000/svg" width="48" height="48" viewBox="0 -960 960 960"><path d="M401.435-721.435h158.087v-118.326H401.435v118.326ZM257.609-71.63v-42.392h-64.783V-717.63h51.935l522.174 541.695v61.913H702.63v42.392h-84.782v-42.392H342.152v42.392h-84.543Zm68.087-165.261h46.456v-353.587h-46.456v353.587Zm131.195 0h46.457v-222.87l-46.457-45.978v268.848Zm130.957 0h46.456v-91.674l-46.456-46.457v138.131ZM835.87-37.174 25.043-848l44.914-44.913L880.783-82.087 835.87-37.174Zm-68.696-244.522-132.87-132.869v-184h-46.456v137.304l-84.5-84.5v-52.804h-38.804v14L320.978-727.891h34v-158.327h251v164.783h161.196v439.739Z"/></svg>