<svg xmlns="http://www.w3.org/2000/svg" width="48" height="48" viewBox="0 -960 960 960"><path d="M286.24-289.24h60l255.24-255.24-59-61-256.24 256.24v60Zm333.24-273.24 55-55-61-59-53 53 59 61ZM114.02-114.02v-732.2h267.15q6.44-35 34.16-57.5 27.71-22.5 64.67-22.5t64.67 22.5q27.72 22.5 34.16 57.5h267.39v732.2h-732.2Zm391.56-692.4q10.85-10.86 10.85-25.58 0-14.72-10.85-25.58-10.86-10.85-25.58-10.85-14.72 0-25.58 10.85-10.85 10.86-10.85 25.58 0 14.72 10.85 25.58 10.86 10.85 25.58 10.85 14.72 0 25.58-10.85Z"/></svg>