<svg xmlns="http://www.w3.org/2000/svg" width="48" height="48" viewBox="0 -960 960 960"><path d="M190.67-75.93v-368.14h80.48v-192.26L137.48-770l151.98-151.98L337.2-874l-104 104 106.32 106.07v219.86H420v368.14H190.67Zm349.33 0v-368.14h80.48v-125.82q-52-11.96-86-55.27-34-43.32-34-99.84 0-65.67 44.65-112.37 44.66-46.7 109.49-46.7 64.84 0 109.53 46.7 44.7 46.7 44.7 112.37 0 56.52-34 99.84-34 43.31-86 55.27v125.82h80.48v368.14H540Zm114.78-558.14q36.34 0 61.02-26.84t24.68-64.01q0-37.41-24.68-64.21-24.68-26.8-61.02-26.8-36.56 0-61.25 26.77-24.68 26.77-24.68 64.25 0 37.24 24.68 64.04 24.69 26.8 61.25 26.8Z"/></svg>