<svg xmlns="http://www.w3.org/2000/svg" width="48" height="48" viewBox="0 -960 960 960"><path d="M190.674-75.935v-368.13h80.478v-192.261L137.478-770l151.978-151.978L337.196-874l-104 104 106.326 106.075v219.86H420v368.13H190.674Zm349.326 0v-368.13h80.478v-125.826q-52-11.957-86-55.271t-34-99.838q0-65.674 44.696-112.37 44.696-46.695 109.528-46.695 64.833 0 109.49 46.695 44.656 46.696 44.656 112.37 0 56.524-34 99.838-34 43.314-86 55.271v125.826h80.478v368.13H540Zm114.865-558.13q36.259 0 60.936-26.807 24.677-26.806 24.677-64.13t-24.71-64.128q-24.71-26.805-60.898-26.805-36.652 0-61.337 26.807-24.685 26.806-24.685 64.13t24.648 64.128q24.647 26.805 61.369 26.805Z"/></svg>