<svg xmlns="http://www.w3.org/2000/svg" width="48" height="48" viewBox="0 -960 960 960"><path d="m701.848-132.543 141.63-140.631-44.63-44.391-97 95-39-39-44.392 45.391 83.392 83.631ZM242.152-617.37h475.696v-60H242.152v60ZM730.348-37.174q-77.5 0-132.5-55.38-55-55.381-55-131.62 0-78.196 54.99-133.598 54.99-55.402 133.01-55.402 77 0 132.5 55.402t55.5 133.598q0 76.239-55.5 131.62-55.5 55.38-133 55.38ZM114.022-71.195V-845.5h732.196v401.109q-15.844-8.77-32.792-14.537-16.948-5.768-35.578-9.24V-777.37H182.152v594.457H487.13q2.407 21.52 9.421 40.804 7.014 19.283 17.406 36.957L480-71.195l-61.052-60.878-61.052 60.878-61.053-60.878-61.291 60.878-61.052-60.878-60.478 60.878Zm128.13-210.479h248.924q4.207-16 9.304-31 5.098-15 13.577-29H242.152v60Zm0-167.848h383.733q21.55-9.565 44.499-15.108 22.95-5.544 47.464-7.544v-37.348H242.152v60Zm-60 266.609V-777.37v594.457Z"/></svg>