<svg xmlns="http://www.w3.org/2000/svg" width="48" height="48" viewBox="0 -960 960 960"><path d="M734-158.261 686.261-206l68.934-69.935h-175.26v-68.13h175.26L686.261-414 734-461.739 885.739-310 734-158.261ZM144.065-275.935q-28.098 0-48.114-20.016t-20.016-48.114v-431.87q0-28.098 20.016-48.114t48.114-20.016h551.87q28.098 0 48.114 20.016t20.016 48.114v224.587q-8.456-1.478-17.032-2.098-8.576-.619-17.033-.619-8.957 0-17.033.739t-17.032 1.978v-173.761L416-526.978 144.065-724.109v380.044h343.587q-1.478 9.435-1.598 15.891-.119 6.457-.119 15.424 0 8.967.619 18.294.62 9.326 2.859 18.521H144.065Zm44.609-500L416-611.022l232.848-164.913H188.674Zm-44.609 431.87v-431.87 431.87Z"/></svg>