<svg xmlns="http://www.w3.org/2000/svg" width="48" height="48" viewBox="0 96 960 960"><path d="M734 897.739 686.261 850l68.934-69.935h-175.26v-68.13h175.26L686.261 642 734 594.261 885.739 746 734 897.739ZM144.065 780.065q-28.098 0-48.114-20.016t-20.016-48.114v-431.87q0-28.098 20.016-48.114t48.114-20.016h551.87q28.098 0 48.114 20.016t20.016 48.114v224.587q-8.456-1.478-17.032-2.098-8.576-.619-17.033-.619-8.957 0-17.033.739t-17.032 1.978V330.891L416 529.022 144.065 331.891v380.044h343.587q-1.478 9.435-1.598 15.891-.119 6.457-.119 15.424 0 8.967.619 18.294.62 9.326 2.859 18.521H144.065Zm44.609-500L416 444.978l232.848-164.913H188.674Zm-44.609 431.87v-431.87 431.87Z"/></svg>