<svg xmlns="http://www.w3.org/2000/svg" width="48" height="48" viewBox="0 96 960 960"><path d="M479.761 981.5q-119.326 0-214.587-62.902T121.196 754.696L34.5 714.544V437.456l86.696-40.152q48.717-101 143.978-163.902Q360.435 170.5 479.761 170.5t214.587 62.902q95.261 62.902 144.217 163.902l86.935 40.392v276.608l-86.935 40.392q-48.956 101-144.217 163.902Q599.087 981.5 479.761 981.5ZM481 918.63q77.087 0 147.413-36.565 70.326-36.565 117.369-101.891-61.326 18.283-131.771 29.044-70.446 10.76-133.011 10.76-63.326 0-134.772-10.76-71.445-10.761-133.01-29.044 51.043 66.326 122.369 102.391Q406.913 918.63 481 918.63ZM481 576Zm0-343.63q-74.087 0-145.413 36.065-71.326 36.065-122.369 102.391 61.565-18.283 133.01-29.163Q417.674 330.782 481 330.782q62.565 0 133.011 10.881 70.445 10.88 131.771 29.163-47.043-65.326-117.369-101.891Q558.087 232.37 481 232.37Zm0 519.478q110.804 0 208.326-23.381 97.522-23.38 168.044-60.902v-184.13q-70.522-37.522-168.044-60.402Q591.804 400.152 481 400.152q-111.804 0-209.326 22.881-97.522 22.88-169.044 60.402v184.13q71.522 37.522 169.044 60.902Q369.196 751.848 481 751.848Z"/></svg>