<svg xmlns="http://www.w3.org/2000/svg" width="48" height="48" viewBox="0 -960 960 960"><path d="M479.951-484.109q-68.679 0-112.304-43.625t-43.625-112.305q0-68.679 43.625-112.353 43.625-43.674 112.304-43.674t112.473 43.674q43.794 43.674 43.794 112.353 0 68.68-43.794 112.305t-112.473 43.625ZM154.022-150.913V-251.32q0-39.557 19.915-68.042 19.915-28.486 51.433-43.268 67.478-30.24 129.685-45.359 62.208-15.12 124.881-15.12 63.131 0 124.793 15.62 61.662 15.619 128.901 44.859 32.581 14.468 52.584 43.027 20.004 28.56 20.004 68.22v100.47H154.022Z"/></svg>