<svg xmlns="http://www.w3.org/2000/svg" width="48" height="48" viewBox="0 -960 960 960"><path d="M369.32-529.4q-45.3-45.3-45.3-110.81t45.3-110.68q45.29-45.18 110.68-45.18 65.39 0 110.8 45.18 45.42 45.17 45.42 110.68T590.8-529.4q-45.41 45.29-110.8 45.29T369.32-529.4Zm-215.3 378.49v-100.41q0-36.48 19-66.4 19-29.91 52.35-44.91 60.48-27.24 124.3-43.86t130.31-16.62q66.5 0 129.79 17 63.29 17 123.86 43.48 33.65 14.54 53.12 44.61t19.47 66.7v100.41h-652.2Zm388.43-426.73q25.4-25.4 25.4-62.45 0-37.04-25.36-62.44-25.35-25.4-62.44-25.4-37.09 0-62.5 25.44-25.4 25.45-25.4 62.28 0 37.17 25.4 62.57 25.41 25.4 62.45 25.4 37.04 0 62.45-25.4Zm98.98 250.38v108.22h96.42v-31.37q0-16.82-9-30.17-9-13.35-24-21.35-16.05-7.53-31.59-13.55-15.54-6.02-31.83-11.78Zm-258.08-18.2v58.57h193.54v-58.57q-24.52-4.76-48.18-7.02-23.67-2.26-48.71-2.26t-48.71 2.26q-23.66 2.26-47.94 7.02Zm-161.2 126.42h96.42V-328.5q-16.29 5.76-32.33 12.4-16.04 6.64-32.09 14.17-15 8-23.5 21.35-8.5 13.35-8.5 30.17v31.37Zm419.28 0H318.57h322.86ZM480-640.09Z"/></svg>