<svg xmlns="http://www.w3.org/2000/svg" width="48" height="48" viewBox="0 -960 960 960"><path d="M369.32-529.4q-45.3-45.3-45.3-110.81t45.3-110.68q45.29-45.18 110.68-45.18 65.39 0 110.8 45.18 45.42 45.17 45.42 110.68T590.8-529.4q-45.41 45.29-110.8 45.29T369.32-529.4Zm272.11 378.49v-246.2q23.48 7 46.22 15.5t45.98 18.98q33.67 14.48 53.13 44.53 19.46 30.06 19.46 66.73v100.46H641.43ZM383.35-286.89v-126.7q24.28-4.52 47.94-7.02 23.67-2.5 48.71-2.5t48.71 2.38q23.66 2.38 48.18 7.14v126.7H383.35ZM154.02-150.91v-100.46q0-36.43 18.96-66.37 18.95-29.93 52.39-44.89 23.24-10.24 46.48-18.86t46.72-16.62v247.2H154.02Z"/></svg>