<svg xmlns="http://www.w3.org/2000/svg" width="48" height="48" viewBox="0 -960 960 960"><path d="M480.63-114.5q-93.197 0-161.772-62.359-68.575-62.358-81.249-155.315-71.153-13.478-118.446-68.293-47.294-54.816-47.294-126.968 0-81.152 60.816-134.967 60.815-53.816 143.967-53.816h107q13.761 0 23.022-10.213t9.261-24.069q0-13.857-10.213-24.07-10.213-10.213-24.07-10.213h-98.348v-66.935h98.348q41.631 0 71.305 29.837 29.673 29.836 29.673 71.381 0 41.63-28.673 71.424-28.674 29.793-70.305 29.793h-107q-56.103 0-97.095 34.422t-40.992 87.665q0 44.408 29.5 78.367t72.022 49.481q13.239-87.282 79.48-145.043 66.241-57.761 154.547-57.761 20.538 0 39.516 2.739 18.979 2.739 38.218 9.111-50.283 21.824-81.065 66.063Q440-480 440-425.239q0 36.822 11.283 70.737 11.282 33.915 38.608 57.676l23.87-19q-21.35-20.714-31.24-49.661-9.891-28.948-9.891-59.752 0-61.516 44.909-103.975 44.909-42.46 107.526-42.46 61.479 0 105.076 42.478Q773.739-486.717 775.5-425q1 26.478-7.739 50.815-8.739 24.337-26.457 43.815l110.457 104.609q11.478 11.478 19.598 25.426 8.119 13.948 8.119 30.248 0 24.623-20.695 40.105-20.696 15.482-47.892 15.482H480.63Zm197.885-91.674q14.007 0 23.463-9.454 9.457-9.455 9.457-23.533 0-14.078-9.406-23.415-9.407-9.337-23.413-9.337-14.007 0-23.344 9.37-9.337 9.37-9.337 23.5 0 14.028 9.286 23.449 9.287 9.42 23.294 9.42Z"/></svg>