<svg xmlns="http://www.w3.org/2000/svg" width="48" height="48" viewBox="0 -960 960 960"><path d="M673.239-470.891v-163.044L572.957-533.652l-27.196-27.196 124-124-124-118 27.196-26.957 100.282 100.044v-163.044h17.957l119.717 122.957-87 85 87 93-119.717 120.957h-17.957Zm41.674-258.87 41.848-40.087-41.848-49.087v89.174Zm0 181 41.848-43.087-41.848-42.087v85.174ZM795.239-114.5q-123.196.239-244.772-59.739-121.576-59.978-218.532-156.935Q234.978-428.13 174.5-550.326q-60.478-122.196-60.478-245.152 0-12.196 1.119-25.87 1.12-13.674 3.598-24.87h224.913l42.631 197.131-122.022 119.674q54.565 89.652 121.315 155.902 66.75 66.25 150.924 112.337L658.043-386l187.935 42.63v225.153q-11.195 1.239-24.989 2.478-13.793 1.239-25.75 1.239Z"/></svg>