<svg xmlns="http://www.w3.org/2000/svg" width="48" height="48" viewBox="0 -960 960 960"><path d="M480-160.022q-39 0-69.5 24t-37.5 62H194.022v-812.196H373q7 38.24 37.5 62.12 30.5 23.88 69.5 23.88t69-24q30-24 38-62h179.218v812.196H587q-8-37.76-38-61.88-30-24.12-69-24.12Zm0-68.13q47.115 0 86.416 23.38 39.301 23.381 65.541 62.62h65.891v-675.696h-65.891q-26.441 38-66.097 62-39.656 24-85.84 24-46.185 0-85.989-24t-65.988-62h-65.891v675.696h65.891q26-39.239 65.421-62.62 39.421-23.38 86.536-23.38ZM480-480Z"/></svg>