<svg xmlns="http://www.w3.org/2000/svg" width="48" height="48" viewBox="0 -960 960 960"><path d="m684.392-350.239 215.13-215.131 47.979 47.74L732.37-302.5l-47.978-47.739ZM16.608-156.13v-180.348q40.674-11.196 78.468-28.435 37.793-17.239 71.185-43l58.109 64.587 22.239-22.478-52.913-60.631q10-8 19.239-17.38 9.239-9.381 18.239-20.142l54.913 59.153 22.239-22-56.674-61.631q8.478-10.761 16.478-21.761 8-11 13-25l64.435 71.153 23.239-23-73.239-76.196 69.174-119.566 208.674-208.674 296.435 296.196-442.5 439.153H16.608Z"/></svg>