<svg xmlns="http://www.w3.org/2000/svg" width="48" height="48" viewBox="0 96 960 960"><path d="M479.949 773.609q82.094 0 139.877-57.253 57.783-57.253 57.783-140.434 0-7.922-.62-15.802-.619-7.881-2.388-15.881-11.039 46.708-48.531 76.756-37.493 30.048-87.811 30.048-59.02 0-99.661-40.558-40.641-40.559-40.641-99.592 0-45.697 25.76-81.719 25.761-36.022 67.044-50.783h-10.838q-82.966 0-140.249 57.783t-57.283 139.877q0 83.083 57.238 140.32 57.237 57.238 140.32 57.238Zm40.573-217.37 58.228-42.375 57.224 42.375-22.593-67.19 58.228-42.375-71.227.761-21.578-69.044-21.871 69.044-72.172-.761 58.522 42.375-22.761 67.19ZM481 1029.63 345.182 897.917H158.047V710.912L23.369 576l134.714-134.918V253.808h187.005L481 118.891l133.922 134.908h187.279v187.279L937.109 576 802.197 710.818v187.135H614.912L481 1029.63Z"/></svg>