<svg xmlns="http://www.w3.org/2000/svg" width="48" height="48" viewBox="0 96 960 960"><path d="M162.174 940.065v-102.13h131.065L190.348 486.696q-35.109-14.761-55.142-42.174-20.032-27.413-20.032-72.522 0-49.132 36.114-85.316 36.114-36.184 85.147-36.184 46.152 0 76.826 24.815Q343.935 300.13 354.652 342h137.152v-91.63h58.631v27.043l94.522-90.761 210.065 100.913-24.392 47.261-177.478-86.717-95.848 96.848v49.608l95.848 101.087 178.478-86.239 23.631 49.544-211.304 98.152-93.522-89.522v27.043h-58.631V402H352.652q-.478 13.196-7.934 27.848-7.457 14.652-17.174 22.652l199.739 385.435H691.5v102.13H162.174ZM236.435 428q24 0 40-16t16-40q0-24-16-40t-40-16q-24 0-40 16t-16 40q0 24 16 40t40 16Zm123.043 409.935h100.805L276.065 479.544q-3.478 2.239-10.598 4.358-7.119 2.12-11.119 3.12l105.13 350.913Zm100.805 0Z"/></svg>