<svg xmlns="http://www.w3.org/2000/svg" width="48" height="48" viewBox="0 -960 960 960"><path d="m732.413-76.087 53-53.239-184.457-184.457-53.239 53q-38.196 38.342-38.196 92.421 0 54.079 38.196 92.275 38.435 38.435 92.395 38.435 53.959 0 92.301-38.435Zm95-95.239 53.239-53q38.196-38.102 38.196-92.182 0-54.079-38.196-92.275-38.435-38.435-92.394-38.435-53.96 0-92.302 38.435l-53 53 184.457 184.457ZM282.152-617.848h395.696v-60H282.152v60ZM480-795.565q14.829 0 25.632-10.803T516.435-832q0-14.829-10.803-25.632T480-868.435q-14.829 0-25.632 10.803T443.565-832q0 14.829 10.803 25.632T480-795.565Zm-22.087 681.543H114.022v-732.196h267.152q6.435-35 34.152-57.5 27.717-22.5 64.674-22.5 36.957 0 64.674 22.5 27.717 22.5 34.152 57.5h267.392v349.022q-44.87-15.065-90.935-6.5-46.066 8.565-83.414 36.478V-510H282.152v60h370.022L544.326-342.152H282.152v60h204.891q-26.956 35.913-34.5 80.185-7.543 44.271 5.37 87.945Z"/></svg>