<svg xmlns="http://www.w3.org/2000/svg" width="48" height="48" viewBox="0 96 960 960"><path d="M394.065 338.152h171.87v-50h-171.87v50Zm-118.13 606.696V825.087q-100-1.674-169.761-72.302-69.761-70.627-69.761-171.046 0-101.494 71.046-172.541Q178.505 338.152 280 338.152h35.935v-128.37h328.13v128.37H680q101.495 0 172.541 71.046 71.046 71.047 71.046 172.541 0 100.419-69.761 171.046-69.761 70.628-169.761 72.302v119.761h-68.13V825.326h-271.87v119.522h-68.13ZM280 756.957h400q73.087 0 124.272-51.009 51.184-51.008 51.184-124.209 0-73.087-51.184-124.271Q753.087 406.283 680 406.283H280q-73.201 0-124.209 51.185-51.008 51.184-51.008 124.271t51.008 124.152Q206.799 756.957 280 756.957Zm200-175.218Z"/></svg>