<svg xmlns="http://www.w3.org/2000/svg" width="48" height="48" viewBox="0 96 960 960"><path d="M111.869 984.131V327.63h134.066v-200h468.13v200H848.37v656.501H111.869ZM314.065 327.63h331.87V196h-331.87v131.63ZM180 916h600V396H180v520Zm300.042-62.37q-81.999 0-139.836-57.794-57.836-57.794-57.836-139.794 0-81.999 57.794-139.836 57.794-57.836 139.794-57.836 81.999 0 139.836 57.794 57.836 57.794 57.836 139.794 0 81.999-57.794 139.836-57.794 57.836-139.794 57.836Zm-.093-52.63Q540 801 582.5 758.551q42.5-42.45 42.5-102.5Q625 596 582.551 553.5q-42.45-42.5-102.5-42.5Q420 511 377.5 553.449q-42.5 42.45-42.5 102.5Q335 716 377.449 758.5q42.45 42.5 102.5 42.5ZM526 731.913l-67.435-67.46V554.565h42.87v92.967L555.913 702 526 731.913ZM480 656Z"/></svg>