<svg xmlns="http://www.w3.org/2000/svg" width="48" height="48" viewBox="0 -960 960 960"><path d="m305.33-193.5-89.16-178.83 60.42-29.58 88.91 176.58-60.17 31.83Zm360 0L456.17-612.33l60.42-29.58L725.5-225.33l-60.17 31.83Zm-179.7-22.13q-9.7-9.7-9.7-24.37 0-14.67 9.7-24.37 9.7-9.7 24.37-9.7 14.67 0 24.37 9.7 9.7 9.7 9.7 24.37 0 14.67-9.7 24.37-9.7 9.7-24.37 9.7-14.67 0-24.37-9.7Zm379.7 21.13-49.16-97.83 60.42-29.58 48.91 96.58-60.17 30.83ZM423.41-318.09 214.74-734.91l60.17-30.59 208.92 416.59-60.42 30.82Zm352.22-57.54q-9.7-9.7-9.7-24.37 0-14.67 9.7-24.37 9.7-9.7 24.37-9.7 14.67 0 24.37 9.7 9.7 9.7 9.7 24.37 0 14.67-9.7 24.37-9.7 9.7-24.37 9.7-14.67 0-24.37-9.7Zm-600-80q-9.7-9.7-9.7-24.37 0-14.67 9.7-24.37 9.7-9.7 24.37-9.7 14.67 0 24.37 9.7 9.7 9.7 9.7 24.37 0 14.67-9.7 24.37-9.7 9.7-24.37 9.7-14.67 0-24.37-9.7Zm547.78-22.46L594.5-735.91l60.41-29.59 128.92 256.59-60.42 30.82Zm-600-80L34.74-734.91l60.17-30.59 88.92 176.59-60.42 30.82Zm302.22-137.54q-9.7-9.7-9.7-24.37 0-14.67 9.7-24.37 9.7-9.7 24.37-9.7 14.67 0 24.37 9.7 9.7 9.7 9.7 24.37 0 14.67-9.7 24.37-9.7 9.7-24.37 9.7-14.67 0-24.37-9.7Z"/></svg>