<svg xmlns="http://www.w3.org/2000/svg" width="48" height="48" viewBox="0 -960 960 960"><path d="m822.087-54.087-751-749L116-848 866-98l-43.913 43.913Zm-63.391-304.478-32.044-126.696-34.282 124.805-67.674-68.153L580.5-601.435h51.87l36.521 140.805 33.522-140.805h45.478l36.522 140.805 32.761-140.805h53.109l-58.957 242.87h-52.63Zm-411.739 0 49-178.044 40.673 40.674-8 31h39l48 48h-101l-14.043 58.37h-53.63Zm-228.392 0v-242.87h194.87v155.913h-40.761l37.478 86.957h-53.109l-32-81h-55.608v81h-50.87Zm50.87-129h93.13v-63h-93.13v63Z"/></svg>