<svg xmlns="http://www.w3.org/2000/svg" width="48" height="48" viewBox="0 -960 960 960"><path d="m366.565-593.913 90.196-148.913-59.718-99.435q-12.478-20-35.217-20-22.739 0-34.739 20L227.652-676.87l138.913 82.957Zm392.261 275.826L668.63-468.239l140.914-80.957L874.5-440.761q11 17.478 11.881 38.718.88 21.239-8.881 39.478-10.239 20.478-29.978 32.478t-42.978 12h-45.718ZM642.152-34.261 480-196.413l162.152-162.152v80.956h192.631l-58.718 117.674q-11.239 20.479-30.478 32.479t-42.478 12h-60.957v81.195Zm-392.261-81.195q-20.239 0-36.978-10.5t-24.739-27.979q-8.239-16.239-7.739-33.858.5-17.62 9.739-33.098l34.478-56.718h174.391v162.153H249.891ZM149.456-230.891 83.739-362.565q-9.478-18.239-8.859-38.978.62-20.74 11.859-39.218l16.239-27.478-68.956-41.478 221.869-55.718 55.718 223.109-69.718-42.717-92.435 154.152ZM696.87-577.674 475-633.391l69.957-41.479-126.914-210.869h143.153q21.239 0 39.858 10.739 18.62 10.739 29.859 28.739l52.717 88.196 69.196-42.718-55.956 223.109Z"/></svg>