<svg xmlns="http://www.w3.org/2000/svg" width="48" height="48" viewBox="0 -960 960 960"><path d="M186.717-193.022q-55.435-59.434-88.25-133.25Q65.652-400.087 65.652-481q0-81.674 31.935-155.609 31.934-73.935 89.13-132.13L235.696-721q-48 48.239-74.837 110.12Q134.022-549 134.022-481q0 67.239 27.717 128.12Q189.456-292 235.696-242l-48.979 48.978ZM380-245.935q-22.674 0-38.37-15.695-15.695-15.696-15.695-38.37t15.695-38.37q15.696-15.695 38.37-15.695t38.37 15.695q15.695 15.696 15.695 38.37t-15.695 38.37q-15.696 15.695-38.37 15.695Zm146.609-201.674v-77.326l-65.566 39.044-32.152-56.066L494.456-580l-65.565-38.043 32.152-56.305 65.566 39.283v-77.326h64.782v77.326l65.566-39.283 32.391 56.305L623.783-580l65.565 38.043-32.391 56.066-65.566-39.044v77.326h-64.782Zm246.674 254.587L724.304-242q47-48.239 74.457-109.62Q826.218-413 826.218-481t-27.337-129.38Q771.544-671.761 724.304-721l48.979-47.739q55.196 59.195 88.13 133.011Q894.348-561.913 894.348-481q0 81.913-31.935 155.728-31.934 73.816-89.13 132.25Z"/></svg>