<svg xmlns="http://www.w3.org/2000/svg" width="48" height="48" viewBox="0 -960 960 960"><path d="M314.5-74.5v-71.913Q209.261-189.37 141.88-278.326 74.5-367.283 74.5-480q0-84.127 31.859-158.118 31.858-73.991 86.695-128.828 54.837-54.837 128.819-86.695Q395.855-885.5 479.972-885.5q84.116 0 158.126 31.859 74.011 31.858 128.848 86.695 54.837 54.837 86.695 128.828Q885.5-564.127 885.5-480q0 112.717-67.38 201.674-67.381 88.956-172.62 132.033V-74.5h-331Zm79.565-408.565h171.87v-323.022q-21.592-5.522-43.004-8.402-21.411-2.881-42.823-2.881t-42.916 2.881q-21.504 2.88-43.127 8.436v322.988Zm-251.195 0h183.065v-295.957q-84.324 42.528-133.336 121.917-49.012 79.388-49.729 174.04Zm491.195 0H817.13q-.717-94.652-49.729-174.04-49.012-79.389-133.336-121.917v295.957ZM382.63-142.63h194.74v-50.283q77.326-33.283 140.869-87.728 63.543-54.446 87.261-134.294h-651q23.718 79.848 87.261 134.294 63.543 54.445 140.869 87.642v50.369Zm0 0h194.74-194.74Z"/></svg>