<svg xmlns="http://www.w3.org/2000/svg" width="48" height="48"><path d="M34.35 29.7q-.65-.2-.95-.875-.3-.675-.05-1.375.35-.8.525-1.7.175-.9.175-2.05 0-3.85-2.95-6.85-2.95-3-6.9-3-.95 0-1.9.15t-1.85.5q-.75.25-1.35-.025-.6-.275-.85-.925-.3-.7.025-1.35.325-.65.975-.95 1.15-.45 2.4-.625t2.6-.175q5.5 0 9.35 3.9 3.85 3.9 3.85 9.35 0 1.5-.175 2.65t-.625 2.35q-.3.7-1 .95t-1.3.05zM23.9 5.2q-.65 0-1.175-.5T22.2 3.5v-2q0-.75.525-1.225Q23.25-.2 23.9-.2q.75 0 1.25.475t.5 1.225v2q0 .7-.5 1.2t-1.25.5zm0 43q-.65 0-1.175-.5t-.525-1.2v-2q0-.75.525-1.225.525-.475 1.175-.475.75 0 1.25.475t.5 1.225v2q0 .7-.5 1.2t-1.25.5zM37 10.85q-.5-.5-.5-1.225 0-.725.5-1.225L38.4 7q.6-.5 1.3-.5.7 0 1.2.5t.475 1.225q-.025.725-.525 1.225l-1.4 1.4q-.5.5-1.2.5t-1.25-.5zM6.95 40.95q-.5-.5-.5-1.225 0-.725.5-1.225l1.4-1.4q.55-.45 1.2-.45.65 0 1.15.45.5.45.55 1.2.05.75-.45 1.25l-1.4 1.4q-.5.5-1.2.5t-1.25-.5zM44.4 25.7q-.65 0-1.175-.5T42.7 24q0-.75.525-1.225.525-.475 1.175-.475h2q.75 0 1.25.475t.5 1.225q0 .7-.5 1.2t-1.25.5zm-42.5 0q-.65 0-1.175-.5T.2 24q0-.75.525-1.225Q1.25 22.3 1.9 22.3h2q.75 0 1.25.475T5.65 24q0 .7-.5 1.2t-1.25.5zm36.5 15.25-1.4-1.4q-.5-.5-.475-1.175.025-.675.475-1.175.45-.45 1.2-.525.75-.075 1.25.425l1.4 1.4q.5.5.5 1.2t-.5 1.2q-.45.5-1.175.525-.725.025-1.275-.475zM8.35 10.85 7 9.45q-.55-.5-.525-1.175Q6.5 7.6 6.95 7.1q.45-.5 1.2-.55Q8.9 6.5 9.4 7l1.4 1.4q.5.5.5 1.225 0 .725-.5 1.225-.5.5-1.2.5t-1.25-.5zm15.55 26.7q-5.6 0-9.575-3.95-3.975-3.95-3.975-9.6 0-1.95.55-3.925.55-1.975 1.8-3.675.2-.3.575-.525.375-.225.825-.225.45 0 .85.25.4.25.65.65 2.65 4.85 6.825 8.975Q26.6 29.65 31.45 32.3q.35.2.625.55.275.35.275.8 0 .45-.2.85-.2.4-.55.65-1.7 1.2-3.65 1.8-1.95.6-4.05.6z"/></svg>