<svg xmlns="http://www.w3.org/2000/svg" width="48" height="48" viewBox="0 96 960 960"><path d="M106.543 949.87v-343.5h526.066V432h68.369v174.37h168.066v343.5H106.543Zm68.37-68.37h626v-207h-626v207Zm138-61v-84h-84v84h84Zm64 0h84v-84h-84v84Zm148 0h84v-84h-84v84Zm61.522-434.609-42.674-42.674q23.887-24.257 55.257-38.487 31.369-14.23 67.82-14.23 36.451 0 67.72 14.239 31.268 14.239 55.268 38.507l-42.674 42.645q-14-13.761-35.164-23.141-21.165-9.38-44.575-9.38-23.739 0-45.359 9.38-21.619 9.38-35.619 23.141Zm-86.674-86.674-45.674-45.913q33-33.478 89.054-59.576 56.053-26.098 123.772-26.098 67.435 0 123.511 26.098 56.076 26.098 89.076 59.576l-45.674 45.913q-26-28.761-69.106-48.739-43.107-19.978-97.804-19.978-54.959 0-97.938 19.978-42.978 19.978-69.217 48.739ZM174.913 881.5v-207 207Z"/></svg>