<svg xmlns="http://www.w3.org/2000/svg" width="48" height="48" viewBox="0 -960 960 960"><path d="m785.67-94.3-46.82-47.07 63-63H472.63q-10.96 40.44-44.64 64.65-33.68 24.22-74.13 24.22-40.45 0-74.14-24.34-33.7-24.33-44.42-64.53H71.87v-360.3h241.48v-133.18H71.87v-65.5h586.46v493.72h143.76l-63.24-63.48 46.82-46.59L928.37-237 785.67-94.3ZM378.85-564.67h213.98v-133.18H378.85v133.18Zm16.5 367.17q16.5-16.5 16.5-41.5t-16.5-41.5q-16.5-16.5-41.5-16.5t-41.5 16.5q-16.5 16.5-16.5 41.5t16.5 41.5q16.5 16.5 41.5 16.5t41.5-16.5Zm-160.52-72.13q10.75-40.48 44.53-66.68 33.78-26.19 74.38-26.19 40.78 0 74.6 26.1 33.81 26.1 44.29 66.77h120.2v-229.54H137.37v229.54h97.46Zm0-229.54h-97.46 455.46-358Z"/></svg>