<svg xmlns="http://www.w3.org/2000/svg" width="48" height="48" viewBox="0 96 960 960"><path d="M795.761 941.696 531.326 677.5q-29.761 25.264-69.641 39.415-39.881 14.15-85.12 14.15-109.674 0-185.869-76.195Q114.5 578.674 114.5 471t76.196-183.87q76.195-76.195 184.869-76.195 107.674 0 183.37 76.195Q634.63 363.326 634.63 471q0 43.478-13.641 83.12-13.641 39.641-40.924 74.402L845.5 891.957l-49.739 49.739ZM375.65 662.935q79.48 0 135.165-56.245Q566.5 550.446 566.5 471t-55.72-135.69q-55.72-56.245-135.13-56.245-80.411 0-136.715 56.245Q182.63 391.554 182.63 471t56.27 135.69q56.269 56.245 136.75 56.245Zm-72.889-86.609 28.761-85.282L259 435.478h86.043l29.522-85.565 29.474 85.538h85.331l-72.462 55.577 28.701 85.298-71.044-53.804-71.804 53.804Z"/></svg>