<svg xmlns="http://www.w3.org/2000/svg" width="48" height="48" viewBox="0 -960 960 960"><path d="M480.411-394.065q-35.737 0-61.041-25.281-25.305-25.281-25.305-60.574 0-36.167 25.281-61.091t60.574-24.924q36.167 0 61.091 24.893 24.924 24.894 24.924 60.631t-24.893 61.041q-24.894 25.305-60.631 25.305Zm-.411 68.13q64.674 0 109.37-44.695 44.695-44.696 44.695-109.37T589.37-589.37Q544.674-634.065 480-634.065T370.63-589.37Q325.935-544.674 325.935-480t44.695 109.37q44.696 44.695 109.37 44.695ZM74.022-154.022v-652.196h812.196v652.196H74.022Zm68.13-68.13h675.696v-515.696H142.152v515.696Zm0 0v-515.696 515.696Z"/></svg>