<svg xmlns="http://www.w3.org/2000/svg" width="48" height="48" viewBox="0 -960 960 960"><path d="M121.565-38.565v-170.481h-83v-507.389h83v-173.519q0-14.859 8.311-23.17 8.311-8.311 23.124-8.311 14.813 0 23.124 8.311 8.311 8.311 8.311 23.17v173.519h83v507.389h-83v170.48h-62.87Zm327 0v-170.481h-83v-507.389h83v-173.519q0-14.859 8.311-23.17 8.311-8.311 23.124-8.311 14.813 0 23.124 8.311 8.311 8.311 8.311 23.17v173.519h83v507.389h-83v170.48h-62.87Zm327 0v-170.481h-83v-507.389h83v-173.519q0-14.859 8.311-23.17 8.311-8.311 23.124-8.311 14.813 0 23.124 8.311 8.311 8.311 8.311 23.17v173.519h83v507.389h-83v170.48h-62.87Zm-674.13-615v181.13h103.13v-181.13h-103.13Zm327 0v181.13h103.13v-181.13h-103.13Zm327 0v181.13h103.13v-181.13h-103.13Zm-654 385.13h103.13v-141.13h-103.13v141.13Zm327 0h103.13v-141.13h-103.13v141.13Zm327 0h103.13v-141.13h-103.13v141.13ZM153-441Zm327 0Zm327 0Zm-705.565-31.435h103.13-103.13Zm327 0h103.13-103.13Zm327 0h103.13-103.13Zm-654 62.87h103.13-103.13Zm327 0h103.13-103.13Zm327 0h103.13-103.13Z"/></svg>