<svg xmlns="http://www.w3.org/2000/svg" width="48" height="48"><path d="M6.1 46.05v-8.5H1.95V12.2H6.1V3.5q0-.75.4-1.15.4-.4 1.15-.4.75 0 1.15.4.4.4.4 1.15v8.7h4.15v25.35H9.2v8.5zm16.35 0v-8.5H18.3V12.2h4.15V3.5q0-.75.4-1.15.4-.4 1.15-.4.75 0 1.15.4.4.4.4 1.15v8.7h4.15v25.35h-4.15v8.5zm16.35 0v-8.5h-4.15V12.2h4.15V3.5q0-.75.4-1.15.4-.4 1.15-.4.75 0 1.15.4.4.4.4 1.15v8.7h4.15v25.35H41.9v8.5zM5.05 15.3v9.1h5.2v-9.1zm16.35 0v9.1h5.2v-9.1zm16.35 0v9.1h5.2v-9.1zM5.05 34.6h5.2v-7.1h-5.2zm16.35 0h5.2v-7.1h-5.2zm16.35 0h5.2v-7.1h-5.2zm-30.1-8.65zm16.35 0zm16.35 0zM5.05 24.4h5.2-5.2zm16.35 0h5.2-5.2zm16.35 0h5.2-5.2zm-32.7 3.1h5.2zm16.35 0h5.2zm16.35 0h5.2z"/></svg>