<svg xmlns="http://www.w3.org/2000/svg" width="48" height="48" viewBox="0 -960 960 960"><path d="M688.968-74.022q-85.272 0-145.446-60.059-60.174-60.059-60.174-145.326t60.162-145.321q60.163-60.055 145.577-60.055 85.152 0 145.207 60.055 60.054 60.054 60.054 145.321t-60.054 145.326q-60.055 60.06-145.326 60.06Zm-6.23-72.913q35.067 1 61.284-15.739t49.696-43.935q-34.957-7-63.142-20.846-28.184-13.847-45.66-43.759-17.546-29.913-15.046-61.686 2.5-31.774 13.978-64.73-40.196 7.76-71.533 27.097-31.337 19.337-44.815 58.055-11.239 32.956-5.957 62.822 5.281 29.865 26.675 56.526 17.717 22.717 41.315 33.956 23.598 11.239 53.205 12.239ZM382.739-74.022 362.5-201.935q-19.804-7.282-37.989-17.565-18.185-10.282-34.228-23.565l-119.674 54.956-98.5-173.804 109.434-79.957q-1.761-10.291-2.261-19.065-.5-8.774-.5-19.065 0-10.291.5-19.065.5-8.774 2.261-19.065L72.109-598.326l98.5-173.326 120.152 54.717q15.804-13.043 33.969-23.232 18.165-10.188 37.77-16.659l20.235-129.392h194.526L597.5-757.826q19.804 7.522 38.074 17.174 18.269 9.652 34.143 23.717l119.913-54.717 98.261 173.326-82.782 58.456q-27.196-13.195-56.401-19.054-29.206-5.859-59.621-5.859-25.58 0-49.855 4.457-24.275 4.456-47.667 14.13-18.05-29.502-47.778-46.653Q514.059-610 479.437-610q-54.154 0-92.035 38-37.88 38-37.88 92 0 35.928 18.576 65.921 18.576 29.992 49.011 47.747-6.761 20.528-10.261 41.81-3.5 21.283-3.5 43.326 0 59.153 22.386 112.588 22.386 53.435 65.201 94.586H382.739Z"/></svg>