<svg xmlns="http://www.w3.org/2000/svg" width="48" height="48" viewBox="0 -960 960 960"><path d="M515.76-25.41v-411h411v411h-411ZM480-480Zm-.48-130q-54.24 0-92.12 38t-37.88 92q0 43.24 24.24 76.36t62.48 46.88v-72.31q-9.81-8.28-16.35-22.7-6.54-14.43-6.54-28.23 0-27.57 19.3-46.87 19.31-19.3 46.87-19.3 17.52 0 32.05 8 14.52 8 23.04 21.76h68.87q-12.05-40.44-46.02-67.01Q523.48-610 479.52-610ZM382.74-74.02 362.5-201.93q-17.57-6.29-37.49-17.69-19.92-11.4-34.73-23.45l-119.67 54.96-98.5-173.8 109.43-79.96q-1.76-8.28-2.26-19.06-.5-10.79-.5-19.07 0-8.28.5-19.07.5-10.78 2.26-19.06l-109.43-80.2 98.5-173.32 120.15 54.72q14.57-11.81 34.37-23.09 19.8-11.28 37.37-16.81l20.24-129.39h194.52l20.24 128.39q17.57 6.53 37.87 17.31 20.3 10.78 34.35 23.59l119.91-54.72 98.26 173.32-112.06 81.92v1-1h-66.5q-.76-7-2.12-14.94-1.36-7.93-3.84-16.61l93.76-68.52-38.09-68.89-105.76 46q-23-26.48-52.48-44.34-29.47-17.86-64.71-22.62l-14-111.52h-84.18l-13.76 111.52q-34.48 6.76-64.45 24.12-29.98 17.36-53.22 42.84l-105.52-46-38.09 68.89 93.28 68.28q-4 17.24-6.62 34.1-2.62 16.86-2.62 34.1 0 17.24 2.62 34.22t6.62 33.98l-93.28 68.28 38.09 68.89 105.52-46q25.76 26.24 59.14 43.86 33.38 17.62 70.14 25.86v176.89h-53.02Zm193.02-11.39h291v-32.96q-26.96-33.43-64.39-52.39-37.44-18.96-81.11-18.96t-81.11 18.96q-37.43 18.96-64.39 52.39v32.96Zm189.08-163.48q18.09-17.98 18.09-43.58 0-25.6-18.09-43.57-18.1-17.98-43.7-17.98t-43.57 17.98q-17.98 17.97-17.98 43.57t17.98 43.58q17.97 17.98 43.57 17.98t43.7-17.98Z"/></svg>