<svg xmlns="http://www.w3.org/2000/svg" width="48" height="48"><path d="M9.55 34.15q-1.7 0-2.9-1.2t-1.2-2.9v-18.5q0-1.7 1.225-2.9t2.875-1.2h24.7q1.7 0 2.9 1.2t1.2 2.9v8.4q-.5-.1-1-.15-.5-.05-1.05-.05t-1.05.05q-.5.05-1 .15v-8.4H9.55v18.5h14.6q-.1.5-.15 1-.05.5-.05 1.05t.05 1.05q.05.5.15 1zm18.55 8.2q-.9 0-1.5-.575T26 40.3q0-.85.6-1.45t1.5-.6h5.85l-4.8-3.3q-.7-.45-.875-1.3-.175-.85.375-1.55.45-.75 1.275-.9.825-.15 1.525.4l4.8 3.3-2-5.5q-.35-.8.025-1.55t1.175-1.05q.85-.3 1.6.05.75.35 1.1 1.2l1.95 5.5 1.55-5.65q.25-.9.925-1.3t1.525-.15q.85.25 1.3.975.45.725.2 1.525L42.4 40.9q-.2.7-.75 1.075t-1.25.375z"/></svg>