<svg xmlns="http://www.w3.org/2000/svg" width="48" height="48" viewBox="0 96 960 960"><path d="M575.261 402.891q16.239 0 28.598-12.287 12.359-12.287 12.359-28.43 0-16.239-12.359-28.598-12.359-12.359-28.598-12.359-16.239 0-28.478 12.359t-12.239 28.598q0 16.239 12.287 28.478 12.286 12.239 28.43 12.239Zm0 42.631q-34.78 0-59.184-24.334-24.403-24.333-24.403-58.891t24.403-59.134q24.404-24.576 59.064-24.576 34.661 0 59.184 24.536 24.523 24.536 24.523 59.051 0 34.679-24.536 59.013-24.536 24.335-59.051 24.335ZM807.413 360.5q13.239 0 21.859-9.12 8.619-9.119 8.619-21.598 0-13-8.619-21.739-8.62-8.739-21.359-8.739-12.739 0-21.858 8.739-9.12 8.739-9.12 21.239 0 12.979 9.12 22.098 9.119 9.12 21.358 9.12Zm-.126 42.87q-30.309 0-51.765-21.633-21.457-21.633-21.457-52.011 0-30.378 21.486-51.715 21.486-21.337 51.864-21.337 30.378 0 51.862 21.436t21.484 51.744q0 30.308-21.583 51.912t-51.891 21.604ZM664.89 239.065q-21.586 0-36.564-15.11-14.978-15.11-14.978-36.696 0-21.585 15.11-36.564 15.11-14.978 36.696-14.978 21.585 0 36.564 15.11 14.978 15.11 14.978 36.696t-15.11 36.564q-15.11 14.978-36.696 14.978ZM26.847 1032.02V619.886L352.37 312.109l56.826 59.065L328 514.326h463v86.218H462.152v57.608h411.24v85.979h-411.24v57.847h369.805v85.979H462.152v57.848h287.653v86.215H26.848Zm65.5-65.737h304.544V579.826H273.304V477.587L92.348 647.617v318.666ZM244.5 721.935Z"/></svg>