<svg xmlns="http://www.w3.org/2000/svg" width="48" height="48" viewBox="0 -960 960 960"><path d="M147.3-154.02q-29.84-58.2-51.68-119.03T73.78-399.12q0-84.05 31.86-158.26t86.7-129.42q54.83-55.22 128.34-87.32 73.51-32.1 157.08-32.1 29.54 0 58.73 4.62 29.18 4.62 57.9 13.1l-43.02 59.41q-18.29-4.76-36.48-6.76-18.19-2-37.13-2-140.04 0-237.94 98.9-97.91 98.91-97.91 239.84 0 47.29 11.88 91.86 11.88 44.58 35.44 85.1h581.34q24.76-40.52 36.02-85.06 11.26-44.53 11.26-91.68 0-79.15-34.4-149.32-34.41-70.16-96.69-117.92l17.87-71.61q85.44 56.72 133.51 146.39 48.08 89.68 48.08 192.36 0 65.71-20.99 126.65-20.99 60.94-52.88 118.32H147.3Zm292.98-168.02q34.16 16.24 68.32 3.74 34.16-12.5 42.16-47.74 24.72-102 50.08-201.13t50.79-200.81q-60.24 84.39-121.34 168.07Q469.2-516.24 407-432.8q-21 28-10.36 61.5t43.64 49.26Zm35.48-70.53Z"/></svg>