<svg xmlns="http://www.w3.org/2000/svg" width="48" height="48" viewBox="0 -960 960 960"><path d="M450.565-160.022v-230.869h170.87v230.869h-170.87Zm50.87-50.869h69.13v-129.131h-69.13v129.131ZM677.848-78.565v-144h132v-48h-132v-50.87h182.869v144h-132v48h132v50.87H677.848Zm-299.283 3.543Q246.13-83.5 160.076-177.076q-86.054-93.576-86.054-227.815 0-103.348 80.519-223.006Q235.061-747.556 400-887.891q137.587 116.869 220.239 226.217 82.652 109.348 100.696 198.783h-70.37q-18.043-70.044-82.804-156.544Q503-705.935 400-796.891 273.239-684.174 207.696-584.425q-65.544 99.748-65.544 179.295 0 105.891 66.663 179.576 66.663 73.684 169.75 81.924v68.608Zm17.913-330.108Z"/></svg>