<svg xmlns="http://www.w3.org/2000/svg" width="48" height="48" viewBox="0 -960 960 960"><path d="M132.022-215.456V-270.5q0-30.404 2.141-50.539t4.902-36.461h275.739q60.631 0 102.424-42.293 41.794-42.294 41.794-104.661 0-46.926-19.665-84.124-19.665-37.198-72.161-56.64l-119.566-44.76q54-28.283 102.881-41.424 48.88-13.142 103.924-13.142 112.152 0 191.967 75.164 79.816 75.163 79.816 187.467 0 109.065-74.445 187.761-74.444 78.696-182.397 78.696H132.022ZM147.5-425.63q18-67.566 50.88-121.968 32.881-54.402 82.642-98.641l158.065 65.913q25.283 8.761 38.424 28.283 13.141 19.521 13.141 47.565 0 33.208-22.868 56.028-22.869 22.82-58.98 22.82H147.5Z"/></svg>