<svg xmlns="http://www.w3.org/2000/svg" width="48" height="48"><path d="M18 33.8q-.75 0-1.275-.525Q16.2 32.75 16.2 32v-9q0-.75.525-1.275Q17.25 21.2 18 21.2h.7v-2.7q0-2.25 1.525-3.775T24 13.2q2.25 0 3.775 1.525T29.3 18.5v2.7h.7q.75 0 1.275.525.525.525.525 1.275v9q0 .75-.525 1.275-.525.525-1.275.525zm3.3-12.6h5.4v-2.7q0-1.15-.775-1.925Q25.15 15.8 24 15.8t-1.925.775q-.775.775-.775 1.925zm11.6 21.1v-3.4h6v-6h3.4v9.4zm-27.2 0v-9.4h3.4v6h6v3.4zm0-27.2V5.7h9.4v3.4h-6v6zm33.2 0v-6h-6V5.7h9.4v9.4z"/></svg>