<svg xmlns="http://www.w3.org/2000/svg" width="48" height="48" viewBox="0 -960 960 960"><path d="M639.508-70.435q-24.703 0-42.203-17.677-17.5-17.677-17.5-42.5 0-24.583 17.677-42.203 17.677-17.62 42.5-17.62 24.583 0 42.203 17.797 17.62 17.797 17.62 42.5t-17.797 42.203q-17.797 17.5-42.5 17.5Zm-399.685 0q-24.823 0-42.323-17.677t-17.5-42.5q0-24.583 17.677-42.203 17.677-17.62 42.5-17.62t42.323 17.797q17.5 17.797 17.5 42.38 0 24.823-17.677 42.323t-42.5 17.5Zm89.721-248.13h271.891v-319.891L329.544-318.565Zm-147.936 68.13 470.241-553.873q17.455-20.41 44.742-34.388 27.287-13.978 56.219-13.978 57.799 0 97.995 40.361Q891-771.951 891-714.37v30.066h-68.37v-30.066q0-29.268-20.245-49.601t-49.384-20.333q-16.002 0-28.398 7.641t-25.559 22.924l-29.239 33.478v469.826H181.608ZM413.674-579.63 205.109-787.957q38.391-29.152 92.782-45.728 54.392-16.576 110.544-16.576 48.815 0 97.516 13.337 48.701 13.337 94.093 38.011L413.674-579.63Zm-4.478-100.196 75.26-89.544q-18.565-7.521-38.01-10.021-19.446-2.5-39.045-2.5-21.771 0-43.455 3.141-21.685 3.141-43.25 9.663l88.5 89.261Zm0 0Zm56.913 200.935Z"/></svg>