<svg xmlns="http://www.w3.org/2000/svg" width="48" height="48" viewBox="0 96 960 960"><path d="M32.587 640.065v-68.13H194.5v68.13H32.587Zm223.391-210.108L142.022 315.522l47.739-47.74 114.196 114.196-47.979 47.979Zm-16.163 423.434q-17.882 0-30.044-12.347-12.162-12.347-12.162-30.229 0-17.882 12.347-30.044 12.347-12.162 30.229-12.162 17.882 0 30.044 12.347 12.162 12.347 12.162 30.229 0 17.882-12.347 30.044-12.347 12.162-30.229 12.162ZM284.5 640.065v-30.159q0-81.536 57.16-138.678 57.161-57.141 138.446-57.141t138.34 57.118Q675.5 528.323 675.5 609.826v29.522l-391 .717Zm75.315 378.325q-17.882 0-30.044-12.35-12.162-12.343-12.162-30.225t12.347-30.044q12.347-12.162 30.229-12.162 17.882 0 30.044 12.347 12.162 12.347 12.162 30.229 0 17.882-12.347 30.045-12.347 12.16-30.229 12.16Zm120-164.999q-17.882 0-30.044-12.347-12.162-12.347-12.162-30.229 0-17.882 12.347-30.044 12.347-12.162 30.229-12.162 17.882 0 30.044 12.347 12.162 12.347 12.162 30.229 0 17.882-12.347 30.044-12.347 12.162-30.229 12.162Zm-33.88-529.304V162.413h68.13v161.674h-68.13Zm153.924 692.393q-17.098 0-28.718-11.76-11.619-11.763-11.619-28.861t11.76-28.718q11.761-11.619 28.859-11.619 17.098 0 28.718 11.76 11.619 11.761 11.619 28.859 0 17.098-11.76 28.719-11.761 11.62-28.859 11.62Zm102.924-585.523-47.74-47.979 115.196-115.196 47.979 47.74-115.435 115.435Zm17.032 422.434q-17.882 0-30.044-12.347-12.162-12.347-12.162-30.229 0-17.882 12.347-30.044 12.347-12.162 30.229-12.162 17.882 0 30.044 12.347 12.162 12.347 12.162 30.229 0 17.882-12.347 30.044-12.347 12.162-30.229 12.162ZM765.5 640.065v-68.13h161.913v68.13H765.5Z"/></svg>