<svg xmlns="http://www.w3.org/2000/svg" width="48" height="48" viewBox="0 -960 960 960"><path d="M74.022-699.761v-186.457h46.456v89.892Q201-859.37 293.641-893.272q92.642-33.902 195.402-33.902 135.214 0 240.14 59.293 104.926 59.294 157.035 168.12h-52.653Q781.848-788 692.323-834.359q-89.526-46.358-203.28-46.358-97.815 0-187.918 34.065-90.103 34.065-167.907 100.434h125.108v46.457H74.022Zm344 625.74-244.066-245.74 40.435-60.826 140.348 39.63v-371.434h64.544v457.413L294.326-290.13l150.848 151.565h303.339v-315.5h64.879v380.043h-395.37Zm68.261-293.588v-206.456h64.782v206.456h-64.782Zm130.782 0v-166.456h64.544v166.456h-64.544Zm-35.478 104.283Z"/></svg>