<svg xmlns="http://www.w3.org/2000/svg" width="48" height="48" viewBox="0 -960 960 960"><path d="M154.02-74.02v-812.2h652.2v812.2h-652.2Zm68.13-68.13h515.7v-675.7h-515.7v675.7Zm98.07-144.76h318.8v-384.7h-318.8v384.7Zm68.13-68.37v-172.65h182.54v172.65H388.35ZM479-723.17q9.72 0 15.7-6.15 5.97-6.16 5.97-15.56 0-8.92-5.97-15.4-5.98-6.48-15.7-6.48-8.73 0-15.2 6.52-6.47 6.51-6.47 15.6 0 9.59 6.47 15.53 6.47 5.94 15.2 5.94Zm0 530.69q9.72 0 15.7-6.08 5.97-6.08 5.97-15.39 0-8.92-5.97-15.28-5.98-6.36-15.7-6.36-8.73 0-15.2 6.4-6.47 6.4-6.47 15.49 0 9.48 6.47 15.35 6.47 5.87 15.2 5.87ZM480-480Z"/></svg>