<svg xmlns="http://www.w3.org/2000/svg" width="48" height="48" viewBox="0 -960 960 960"><path d="M154.02-74.02v-812.2h652.2v812.2h-652.2Zm166.2-205.96h318.8v-398.8h-318.8v398.8Zm68.13-68.13v-180.3h182.54v180.3H388.35ZM479-760.59q9.72 0 15.82-6.1 6.09-6.11 6.09-15.81 0-8.48-6.09-15.08-6.1-6.59-15.82-6.59-8.8 0-15.24 6.66-6.43 6.67-6.43 15.24 0 9.81 6.43 15.74 6.44 5.94 15.24 5.94Zm0 606q9.72 0 15.82-6.1 6.09-6.11 6.09-15.81 0-8.72-6.09-15.2-6.1-6.47-15.82-6.47-8.8 0-15.24 6.54-6.43 6.55-6.43 15.36 0 9.81 6.43 15.74 6.44 5.94 15.24 5.94Z"/></svg>