<svg xmlns="http://www.w3.org/2000/svg" width="48" height="48" viewBox="0 0 48 48"><path d="M24 23Zm0 15.3q-7.4 0-13.375-4.25T1.7 23q2.95-6.8 8.925-11.05Q16.6 7.7 24 7.7t13.375 4.25Q43.35 16.2 46.3 23q-.5 1.05-1.05 2.075-.55 1.025-1.2 1.975L41.8 24.9q.3-.45.55-.925.25-.475.5-.975-2.65-5.45-7.725-8.725Q30.05 11 24 11t-11.125 3.275Q7.8 17.55 5.1 23q2.7 5.45 7.775 8.725Q17.95 35 24 35q.7 0 1.35-.05.65-.05 1.35-.15-.05.85.05 1.675.1.825.3 1.575-.75.15-1.525.2-.775.05-1.525.05Zm0-6.8q-3.55 0-6.025-2.475Q15.5 26.55 15.5 23q0-3.55 2.475-6.025Q20.45 14.5 24 14.5q3.55 0 6.05 2.475t2.5 6.075q0 .7-.15 1.45t-.5 1.35l-1.8 1.75q-.65.6-1.175 1.3-.525.7-.975 1.55-.85.5-1.85.775T24 31.5Zm0-3.1q2.25 0 3.825-1.575Q29.4 25.25 29.4 23t-1.575-3.825Q26.25 17.6 24 17.6t-3.825 1.575Q18.6 20.75 18.6 23t1.575 3.825Q21.75 28.4 24 28.4Zm13.4 14.75q-3.25 0-5.475-2.275Q29.7 38.6 29.65 35.4q0-1.6.675-3.075t1.825-2.575l5.25-4.9 5.2 4.9q1.15 1.1 1.8 2.55.65 1.45.7 3.05 0 3.2-2.225 5.5t-5.475 2.3Zm0-3.4q1.8 0 3.05-1.3 1.25-1.3 1.2-3.1 0-.9-.375-1.7-.375-.8-1.075-1.4l-2.8-2.7-2.85 2.7q-.7.6-1.1 1.4-.4.8-.35 1.75 0 1.8 1.225 3.075Q35.55 39.75 37.4 39.75Zm0-5.15Z"/></svg>