<svg xmlns="http://www.w3.org/2000/svg" width="48" height="48" viewBox="0 -960 960 960"><path d="M248.565-40v-362.587H150q-38.503 0-65.088-26.678-26.586-26.678-26.586-65.315t26.586-65.116q26.585-26.478 65.088-26.478h98.565v-60.717H150q-38.503 0-65.088-26.678-26.586-26.678-26.586-65.316 0-38.637 26.586-65.115 26.585-26.478 65.088-26.478h98.565V-920h62.87v89.522H410q38.603 0 65.258 26.629 26.655 26.629 26.655 65.196 0 38.566-26.655 65.164T410-646.891h-98.565v60.717H410q38.603 0 65.258 26.629 26.655 26.63 26.655 65.196 0 38.567-26.655 65.164-26.655 26.598-65.258 26.598h-98.565V-40h-62.87ZM150-462.587h260q13.717 0 22.815-9.098 9.098-9.097 9.098-22.815 0-13.717-9.098-22.696-9.098-8.978-22.815-8.978H150q-13.717 0-22.696 8.978-8.978 8.979-8.978 22.696 0 13.718 8.978 22.815 8.979 9.098 22.696 9.098Zm0-244.304h260q13.717 0 22.815-9.098t9.098-22.815q0-13.718-9.098-22.696-9.098-8.978-22.815-8.978H150q-13.717 0-22.696 8.978-8.978 8.978-8.978 22.696 0 13.717 8.978 22.815 8.979 9.098 22.696 9.098ZM598.565-40v-62.63h90v-300.413q-57-11-93.5-55.424T558.565-560v-360h322.87v360q0 57.239-36.5 101.598t-93.5 55.359v300.413h90V-40h-242.87Zm121.486-421.435q41.232 0 69.873-28.677 28.641-28.677 28.641-69.888v-97.37h-197.13V-560q0 41.211 28.692 69.888 28.692 28.677 69.924 28.677ZM621.435-700h197.13v-157.37h-197.13V-700ZM118.326-462.587v-63.587 63.587Zm0-244.304v-63.587 63.587ZM720-657.37Z"/></svg>