<svg xmlns="http://www.w3.org/2000/svg" width="48" height="48" viewBox="0 -960 960 960"><path d="M635.808-275.196q22.996 0 38.616-15.75 15.619-15.75 15.619-38.25 0-23.333-15.869-39.666-15.87-16.334-38.131-16.334-23.572 0-39.786 16.265-16.214 16.265-16.214 39.5t16.146 38.735q16.145 15.5 39.619 15.5Zm-388.848 0q22.997 0 38.616-15.75 15.62-15.75 15.62-38.25 0-23.333-15.87-39.666-15.869-16.334-38.13-16.334-23.573 0-39.787 16.265-16.213 16.265-16.213 39.5t16.145 38.735q16.145 15.5 39.619 15.5Zm448.445-229.022q-79.427 0-135.307-55.891-55.88-55.891-55.88-135.598 0-78.511 56-134.511t135-56q79.76 0 135.38 55.62 55.62 55.62 55.62 135.5t-55.813 135.38q-55.813 55.5-135 55.5ZM678.304-667.37h38.587v-143h-38.587v143Zm19.414 89.544q10.217 0 17.195-6.335t6.978-17.339q0-10.718-7.078-17.315-7.078-6.598-16.595-6.598-11.718 1-17.816 7.598-6.098 6.597-6.098 16.934t6.455 16.696q6.454 6.359 16.959 6.359ZM74.022-74.022v-361.174l96.707-291.022h160.836v-75.869h132.087q-11.31 24.745-17.372 51.582-6.062 26.837-6.062 55.287 0 9.869.978 18.782.978 8.914 2.935 18.588H219.674L165.63-494H536q35.761 27.322 77.826 41.454 42.065 14.133 86.913 14.133 27.533 0 54.006-4.902 26.473-4.903 51.473-16.903v386.196h-86.696v-84H160.478v84H74.022Z"/></svg>