<svg xmlns="http://www.w3.org/2000/svg" width="48" height="48" viewBox="0 -960 960 960"><path d="M313.37-706.935 480-929.805l166.63 222.87H313.37ZM233.304-542.63v-68.261q-50.239-13.196-85.054-51.513-34.815-38.318-37.815-90.661h69.13q3 33.478 28.403 56.239 25.403 22.761 58.402 22.761h427.26q32.999 0 58.402-22.761t28.403-56.239h69.37q-3.24 52.391-37.575 90.661t-85.295 51.513v68.261H233.304Zm-80 473.63v-377.826q-50.239-13.196-85.054-51.513Q33.435-536.656 30.435-589h69.13q3 33.478 28.403 56.239Q153.371-510 186.37-510h587.26q32.999 0 58.402-22.761T860.435-589h69.37q-3.24 52.63-37.575 90.797-34.335 38.167-85.295 51.377V-69h-275.5v-215.5h-102.87V-69H153.304Z"/></svg>