<svg xmlns="http://www.w3.org/2000/svg" width="48" height="48" viewBox="0 -960 960 960"><path d="M155.4-117.37q-51.252 0-86.913-35.661-35.661-35.661-35.661-86.913 0-51.252 35.678-86.969 35.677-35.717 86.952-35.717 10.908 0 20.998 1.76 10.089 1.761 20.361 5.522l161.207-220.435q-18.566-21.282-29.609-47.569Q317.37-649.639 317.37-680q0-67.279 47.658-114.955 47.658-47.675 114.913-47.675t114.972 47.675Q642.63-747.279 642.63-680q0 30.276-10.815 56.53-10.816 26.254-29.597 47.687l160.967 221.435q10.272-4.761 20.146-6.522 9.875-1.76 21.213-1.76 51.275 0 86.953 35.661 35.677 35.661 35.677 86.913 0 51.252-35.661 86.969-35.661 35.717-86.913 35.717-51.252 0-86.97-35.677-35.717-35.678-35.717-86.953 0-21.495 7.022-40.03t19.543-34.296L549.196-532.609q-8.25 4.602-17.074 6.903-8.824 2.3-18.057 4.083v164.427q38.522 10.957 63.544 43.123Q602.63-281.908 602.63-240q0 51.275-35.661 86.953-35.661 35.677-86.913 35.677-51.252 0-86.969-35.677Q357.37-188.725 357.37-240q0-41.907 24.902-74.193 24.902-32.285 63.663-43.003v-164.427q-9.233-1.783-18.057-4.083-8.824-2.301-17.074-6.903L251.522-314.565q12.282 15.761 19.543 34.402 7.261 18.641 7.261 40.163 0 51.275-35.837 86.953-35.837 35.677-87.089 35.677Zm1.013-65.26q24.215 0 40.792-16.578 16.577-16.577 16.577-40.792t-16.577-40.792q-16.577-16.578-40.792-16.578t-40.792 16.578Q99.043-264.215 99.043-240t16.578 40.792q16.577 16.578 40.792 16.578ZM480-680Zm0 497.37q24.215 0 40.792-16.578Q537.37-215.785 537.37-240t-16.578-40.792Q504.215-297.37 480-297.37t-40.792 16.578Q422.63-264.215 422.63-240t16.578 40.792Q455.785-182.63 480-182.63Zm324.426 0q24.332 0 40.91-16.578 16.577-16.577 16.577-40.792t-16.577-40.792q-16.578-16.578-40.91-16.578-24.332 0-40.792 16.578-16.46 16.577-16.46 40.792t16.46 40.792q16.46 16.578 40.792 16.578ZM156.413-240ZM480-240Zm324.544 0ZM480-582.87q40.661 0 68.896-28.234Q577.13-639.339 577.13-680t-28.234-68.896Q520.661-777.13 480-777.13t-68.896 28.234Q382.87-720.661 382.87-680t28.234 68.896Q439.339-582.87 480-582.87Z"/></svg>