<svg xmlns="http://www.w3.org/2000/svg" width="48" height="48" viewBox="0 96 960 960"><path d="M807.043 1007.65 706.152 907q-48 38-103.978 58.5Q546.196 986 480 986q-75.435 0-142.011-28.978t-116.413-78.696q-49.837-49.717-78.696-116.293-28.858-66.576-28.858-142.011 0-61.239 18.5-116.957 18.5-55.717 60.5-109.435L55.087 255.696 100 211.022l751.957 751.717-44.914 44.911ZM354.5 196v-65.5h251V196h-251Zm435.718 615.696L512.63 534.587V417.544h-60l-.239 56.565-165.065-165.066q42.239-27.239 92.098-41.239 49.859-14 100.576-14 68.957 0 128.054 22.5 59.098 22.5 104.859 62.739l53.152-53.152 46.305 46.066-53.152 53.152q45 48.761 66 108.858 21 60.098 21 126.055 0 50.956-13.62 99.815-13.62 48.859-42.38 91.859Z"/></svg>