<svg xmlns="http://www.w3.org/2000/svg" width="48" height="48" viewBox="0 -960 960 960"><path d="M360-155.456q-135.69 0-230.117-94.424-94.427-94.423-94.427-230.108 0-135.686 94.427-230.24Q224.31-804.783 360-804.783h240q135.791 0 230.287 94.496Q924.783-615.791 924.783-480q0 135.69-94.496 230.117Q735.791-155.456 600-155.456H360Zm120.038-253.109q29.679 0 50.538-20.995 20.859-20.995 20.859-50.478 0-29.679-20.897-50.538-20.896-20.859-50.456-20.859-29.56 0-50.539 20.897-20.978 20.896-20.978 50.456 0 29.56 20.995 50.539 20.995 20.978 50.478 20.978Zm-71.473-203.109h142.87v-66.457h-142.87v66.457Zm0 329.565h142.87v-66.456h-142.87v66.456Zm202.87-126.456h66.456v-142.87h-66.456v142.87Zm-329.326 0h66.456v-142.87h-66.456v142.87Z"/></svg>