<svg xmlns="http://www.w3.org/2000/svg" width="48" height="48" viewBox="0 -960 960 960"><path d="M277.674-155.935q-45.478 0-80.337-33.38-34.859-33.381-38.815-81.62H77.413v-287.5h108.369L105.978-642l-41 41-44-44 125-125 44 44-41 41 72.957 77.957 65.791-197.022h389.622l73.386 241.478h134.049v292.131h-81.109q-3.957 48.239-38.935 81.38t-80.143 33.141q-42.415 0-74.462-28.88-32.047-28.881-40.525-71.12H392.587q-8.478 42.239-40.696 71.12-32.217 28.88-74.217 28.88Zm-.326-409.13h172.13v-173.5H335.435l-58.087 173.5Zm232.13 0h172.37l-53.087-173.5H509.478v173.5Zm-116.891 243.63h177.022q11.239-36.239 43.956-58.119 32.718-21.881 70.829-21.881 32.088 0 59.347 16.761t44.851 43.761h30.451v-158.652h-676.13v158.891h31.044q16.239-28.761 43.976-44.761 27.737-16 59.741-16 38.295 0 70.865 21.881 32.57 21.88 44.048 58.119Zm-114.913 102.87q25.261 0 42.63-17.25 17.37-17.25 17.37-42.75t-17.37-42.75q-17.369-17.25-42.63-17.25-25.5 0-42.75 17.25t-17.25 42.75q0 25.5 17.25 42.75t42.75 17.25Zm406.848 0q25.261 0 42.63-17.25 17.37-17.25 17.37-42.75t-17.37-42.75q-17.369-17.25-42.63-17.25-25.5 0-42.75 17.25t-17.25 42.75q0 25.5 17.25 42.75t42.75 17.25ZM481.478-411Z"/></svg>