<svg xmlns="http://www.w3.org/2000/svg" width="48" height="48" viewBox="0 -960 960 960"><path d="M768.565-319q-71.905 0-122.692-44.38-50.786-44.381-65.264-114.381H418.5l-35.717-62.869h197.852q2.786-26.076 14.422-51.735 11.636-25.659 29.878-46.396h-301l-36.957-62.869h373.913l-53.906-158.131H441.913v-62.869h209.848l75 221h31.804q87.997 0 144.716 52.239Q960-597.152 960-510.196q0 78.497-56.578 134.846Q846.845-319 768.565-319Zm0-62.63q51.522 0 90.163-38.36 38.642-38.36 38.642-90.163 0-54.847-36.044-91.488-36.043-36.642-90.848-36.881-.96 0-9.44.5t-9.321.5l39.761 109.044-58.63 20.956-40.761-110.282q-26.522 22.761-39.304 48.663Q640-543.239 640-510.196q0 53.522 37.522 91.044 37.521 37.522 91.043 37.522ZM280-38.565q-44.761 0-76.641-31.044-31.881-31.043-33.316-75.326v-11H0v-65.5h196.522q12.882-15 34.186-26.5 21.305-11.5 49.278-11.5 24.976 0 45.781 10t37.711 28h122.457v-117.13H0v-65.5h87.37v-117.37H0v-65.5h284.63l108 182.87h158.805v248.13H389.957v11q-1.435 44.522-33.555 75.446Q324.283-38.565 280-38.565Zm-127.37-365.5h164.261l-69.945-117.37H152.63v117.37Zm127.318 302.63q19.574 0 33.595-13.969 14.022-13.969 14.022-33.544 0-19.574-14.058-33.595-14.059-14.022-33.406-14.022-19.623 0-33.644 14.058-14.022 14.059-14.022 33.406 0 19.623 13.969 33.644 13.969 14.022 33.544 14.022ZM243.087-280Z"/></svg>