<svg xmlns="http://www.w3.org/2000/svg" width="48" height="48" viewBox="0 -960 960 960"><path d="M360-282.15h240v-40l-40-20q33 0 56.5-23.5t23.5-56.5v-175.7q0-43-37-61.5t-123-18.5q-83 0-121.5 19t-38.5 61v175.7q0 33 23.5 56.5t56.5 23.5l-40 20v40Zm30.37-110.37q-8.46-8.45-8.46-21.38t8.46-21.55q8.45-8.62 21.38-8.62 12.92 0 21.54 8.62t8.62 21.55q0 12.93-8.62 21.38t-21.54 8.45q-12.93 0-21.38-8.45Zm136.41 0q-8.45-8.45-8.45-21.38t8.45-21.55q8.45-8.62 21.38-8.62t21.55 8.62q8.62 8.62 8.62 21.55 0 12.93-8.62 21.38t-21.55 8.45q-12.93 0-21.38-8.45Zm-143.19-91.55v-112.1h192.82v112.1H383.59ZM74.02-154.02v-222.33q36.52-7.76 61.26-36.3 24.74-28.55 24.74-67.35 0-39.28-24.74-68.09-24.74-28.8-61.26-35.8v-222.33h812.2v222.33q-36.76 7-61.38 35.8-24.62 28.81-24.62 68.09 0 38.8 24.62 67.35 24.62 28.54 61.38 36.3v222.33H74.02Zm68.13-68.13h675.7v-105.89q-38-26.24-62-65.57t-24-86.48q0-47.15 24-86.51 24-39.36 62-65.36v-105.89h-675.7v105.89q39.24 26 62.62 65.4 23.38 39.39 23.38 86.48 0 47.08-23.38 86.44t-62.62 65.6v105.89ZM480-480Z"/></svg>