<svg xmlns="http://www.w3.org/2000/svg" width="48" height="48" viewBox="0 -960 960 960"><path d="M452.5-75.26q-79.24-4.96-148.36-38.79-69.12-33.84-120.12-88.06t-80.5-125.78Q74.02-399.46 74.02-480q0-84.17 31.98-158.26 31.98-74.09 86.93-128.92 54.96-54.84 129.05-86.94 74.09-32.1 158.26-32.1 151.39 0 263.04 95.77 111.65 95.77 136.94 240.21h-69.13q-17.05-83.27-70.67-148.63-53.62-65.36-133.9-98.22v17.76q0 34.71-24 60.5t-58.65 25.79h-86.39v86.45q0 17.07-13.5 27.95-13.5 10.88-30.57 10.88H311.2v87.28H420v124.28h-66.28L151.39-558.76q-5 20-7 39.26-2 19.26-2 39.02 0 133.09 88.61 230.01 88.61 96.93 221.5 106.84v68.37Zm398.7-24.57L716.96-234.3q-20.76 14.52-44.91 22.16-24.14 7.64-49.42 7.64-71.96 0-122.41-50.34-50.46-50.33-50.46-122.45t50.46-122.42Q550.67-550 622.79-550q72.12 0 122.42 50.31 50.29 50.3 50.29 122.32 0 25.52-8.14 49.54-8.14 24.03-21.66 45.79L899.93-148.8 851.2-99.83ZM696.68-303.2q30.45-30.56 30.45-74.17 0-43.6-30.45-74.05-30.45-30.45-74.05-30.45-43.61 0-74.05 30.45-30.45 30.45-30.45 74.05 0 43.61 30.45 74.17 30.44 30.57 74.05 30.57 43.6 0 74.05-30.57Z"/></svg>