<svg xmlns="http://www.w3.org/2000/svg" width="48" height="48" viewBox="0 -960 960 960"><path d="M321.72-105.88q-74.07-31.86-129.02-86.82-54.96-54.95-86.82-129.02-31.86-74.07-31.86-158.27 0-84.21 31.86-158.28 31.86-74.08 86.82-129.03 54.95-54.96 129.02-86.94 74.07-31.98 158.27-31.98 84.21 0 158.26 31.93 74.05 31.92 129.08 86.96 55.04 55.03 86.96 129.08 31.93 74.05 31.93 158.26 0 84.2-31.98 158.27-31.98 74.07-86.94 129.02-54.95 54.96-129.03 86.82-74.07 31.86-158.28 31.86-84.2 0-158.27-31.86Zm334.19-198.16q72.07-72.03 72.07-175.92 0-103.89-72.02-175.95-72.03-72.07-175.92-72.07-103.89 0-175.95 72.02-72.07 72.03-72.07 175.92 0 103.89 72.02 175.95 72.03 72.07 175.92 72.07 103.89 0 175.95-72.02Z"/></svg>