<svg xmlns="http://www.w3.org/2000/svg" width="48" height="48" viewBox="0 -960 960 960"><path d="M583.37-373.21q42.85-42.54 42.85-103.31 0-60.76-42.59-103.56-42.59-42.79-103.42-42.79-60.84 0-103.51 42.54-42.68 42.53-42.68 103.3 0 60.77 42.41 103.56 42.41 42.8 103.25 42.8t103.69-42.54ZM272.83-32.83v-894.34h414.34v894.34H272.83Zm166.44-403.23q-16.66-16.8-16.66-40.79 0-24 16.75-40.72 16.74-16.71 40.67-16.71 23.93 0 40.76 16.79 16.84 16.8 16.84 40.8 0 23.99-16.92 40.71-16.93 16.72-40.85 16.72-23.93 0-40.59-16.8Zm63.31-301.54q8.85-9.03 8.85-22.58 0-13.54-9.03-22.4-9.03-8.85-22.58-8.85-13.54 0-22.4 9.03-8.85 9.03-8.85 22.58 0 13.54 9.03 22.4 9.03 8.85 22.58 8.85 13.54 0 22.4-9.03Z"/></svg>