<svg xmlns="http://www.w3.org/2000/svg" width="48" height="48" viewBox="0 -960 960 960"><path d="m480-455.348 337.848-217v-65.5L480-524.848l-337.848-213v65.5l337.848 217ZM773-40q-77.605 0-132.302-54Q586-148 586-226.014q0-78.014 54.698-133Q695.395-414 773-414q77.605 0 132.302 54.986Q960-304.028 960-226.014 960-148 905.302-94 850.605-40 773-40ZM660-208.565h226v-42.87H660v42.87ZM74.022-154.022v-652.196h812.196v360.805q-26.196-14.674-54.901-21.63Q802.612-474 772.651-474q-103.173 0-174.673 73.783-71.5 73.782-71.978 178.065-.239 17.152 2.728 34.185 2.968 17.032 8.663 33.945H74.021Z"/></svg>