<svg xmlns="http://www.w3.org/2000/svg" width="48" height="48" viewBox="0 -960 960 960"><path d="M363.543-32.826v-76.891h-62.369L260.5-355.456h103.043v-50.805q-10.462 5.18-22.915 7.992-12.453 2.813-24.693 2.813-100.316 0-172.191-66.74-71.875-66.739-71.875-164.695v-63.826q0-99.392 71.397-167.924 71.397-68.533 172.669-68.533 47.387 0 80.726 33.088T430-813.455q0 47.064-33.458 79.661-33.459 32.598-80.607 32.598h-62.826v-66.456h62.268q19.64 0 33.066-13.368 13.426-13.368 13.426-33.109t-13.403-33.165q-13.404-13.423-33.01-13.423-73.293 0-125.211 48.423-51.919 48.423-51.919 119.664v64.065q0 70.804 52.038 118.728 52.038 47.924 125.092 47.924 19.606 0 33.01-13.249 13.403-13.248 13.403-32.989 0-19.74-13.426-33.164-13.426-13.424-33.066-13.424h-62.268v-66.457h62.826q46.909 0 80.487 32.532Q430-556.132 430-509.009v153.553h100v-153.508q0-47.108 33.578-79.67 33.578-32.562 80.487-32.562h62.826v66.457h-62.108q-19.815 0-33.114 13.129-13.299 13.129-13.299 32.869 0 19.741 13.299 33.284 13.299 13.544 33.114 13.544 72.815 0 124.972-47.916 52.158-47.917 52.158-118.736v-64.065q0-71.241-52.038-119.664t-125.092-48.423q-19.815 0-33.114 13.248-13.299 13.248-13.299 32.989t13.299 33.284q13.299 13.544 33.114 13.544h62.108v66.456h-62.826q-47.148 0-80.607-32.715Q530-766.627 530-813.691q0-47.542 33.339-80.512 33.339-32.971 80.726-32.971 101.153 0 172.729 68.533 71.576 68.532 71.576 167.924v63.826q0 97.956-71.945 164.695-71.945 66.74-172.36 66.74-12.24 0-24.193-2.813-11.953-2.812-23.415-7.992v50.805H699.5l-40.435 245.739h-62.608v76.891H530v-76.891H430v76.891h-66.457Z"/></svg>