<svg xmlns="http://www.w3.org/2000/svg" width="48" height="48" viewBox="0 -960 960 960"><path d="M400-480Zm326.22 325.98H452.8q12.4-15.2 21.69-32.35 9.29-17.15 15.77-35.78h167.59v-515.7h-515.7v174.22q-19.15 6.52-35.92 15.12-16.77 8.6-32.21 20.55v-278.26h652.2V-525l160-160v410l-160-160v280.98Zm-624.2-23.68q-56-55.5-56-133.5 0-79 56-135t133.88-56q77.88 0 134 56 56.12 56 56.12 135 0 78-56.12 133.5t-134 55.5q-77.88 0-133.88-55.5Zm134-17.87q9.96 0 17.06-6.59 7.09-6.6 7.09-17.56 0-10.95-7.09-17.67-7.1-6.72-17.06-6.72-10.95 0-17.55 6.72-6.6 6.72-6.6 17.67 0 10.96 6.6 17.56 6.6 6.59 17.55 6.59Zm-19.43-90.02h37.87v-143h-37.87v143Z"/></svg>