<svg xmlns="http://www.w3.org/2000/svg" width="48" height="48" viewBox="0 96 960 960"><path d="M813.848 994.152 649.196 832.261q-35 14-79.239 21.62Q525.717 861.5 480 861.5q-147.196 0-267.75-82.456Q91.696 696.587 34.5 556q19.522-51.761 55.38-101.859 35.859-50.098 86.381-95.815L50.978 233.522l43.913-45.152 759.87 759.869-40.913 45.913ZM480 726q13.283 0 28.446-2.5 15.163-2.5 25.445-7.261l-214.608-214.13q-4.522 11.282-6.903 25.565Q310 541.957 310 556q0 72 50 121t120 49Zm283.739 41.913L629.957 633.891q9.521-15.043 14.782-36.185Q650 576.565 650 556q0-71-49.5-120.5T480 386q-20.804 0-41.087 4.761-20.283 4.761-36.804 15.043L287.565 290.5q35-16 90.218-28Q433 250.5 485 250.5q143.957 0 264.011 82.337Q869.065 415.174 925.5 556q-25.761 64.478-67.119 118.076-41.359 53.598-94.642 93.837ZM578.065 582l-125.5-125.5q25.174-10.282 52.826-5.098 27.652 5.185 48.5 24.555 20.609 20.608 28.533 45.999 7.924 25.392-4.359 60.044Z"/></svg>