<svg xmlns="http://www.w3.org/2000/svg" width="48" height="48" viewBox="0 -960 960 960"><path d="m238.109-386.418 26.761 244.266h430.383l29.877-265.457h-29.565q-36.282 0-67.641-5.619-31.359-5.62-84.641-20.273-25-6.819-49.381-10.463-24.38-3.645-50.217-3.645-54.011 0-106.794 15.761-52.782 15.761-98.782 45.43Zm-8.957-73.517q48-26.283 103.742-41.043 55.741-14.761 110.749-14.761 30.596 0 60.455 4.119 29.859 4.12 57.337 12.12 51 14.239 77.957 19.119 26.956 4.881 57.804 4.881h34.891l37.804-342.348H190.109l39.043 357.913Zm-25.75 385.913-89.38-812.196h732.196L756.783-74.022H203.402Zm61.468-68.13h430.5-430.5Z"/></svg>