<svg xmlns="http://www.w3.org/2000/svg" width="48" height="48" viewBox="0 -960 960 960"><path d="M264.93-142.152h430.44l17-146.413h-18q-36.044-.239-67.271-5.859-31.227-5.619-83.737-20.141-25.079-7-49.46-10.5-24.38-3.5-50.125-3.5-50.266 0-99.467 14.261t-94.201 40.261l14.821 131.891Zm-23.017-205.5q46.761-23.522 98.283-36.283 51.521-12.761 103.565-12.761 30.478 0 60.337 4.12 29.859 4.119 57.337 12.119 50.164 13.761 76.876 18.761 26.712 5 56.732 5.239h24.044l50.804-461.391H190.109l51.804 470.196Zm-38.511 273.63-89.38-812.196h732.196L756.783-74.022H203.402Zm61.528-68.13h-14.821H712.37 264.93Z"/></svg>