<svg xmlns="http://www.w3.org/2000/svg" width="48" height="48" viewBox="0 96 960 960"><path d="M479.478 847.043q16.718 0 25.935-6.081 9.217-6.081 9.217-17.592 0-11.718-9.097-18.316-9.098-6.598-26.994-6.598-43.256 0-84.365-26.26-41.109-26.261-52.87-90.392-1.974-9.268-9.346-15.351-7.371-6.083-16.328-6.083-12.15 0-18.531 8.978-6.382 8.978-4.382 18.695 15.029 84.24 71.055 121.62 56.026 37.38 115.706 37.38Zm.497 134.935q-139.549 0-232.751-95.713T154.022 648q0-101.413 80.934-220.837Q315.891 307.739 480 168.109q164.109 139.63 245.163 259.054Q806.218 546.587 806.218 648q0 142.552-93.347 238.265t-232.896 95.713Zm.008-68.13q111.06 0 184.463-75.888 73.402-75.889 73.402-189.96 0-77.804-65.902-177.228Q606.043 371.348 480 259.109 353.957 371.348 288.054 470.772 222.152 570.196 222.152 648q0 114.071 73.386 189.96 73.385 75.888 184.445 75.888ZM480 575.043Z"/></svg>