<svg xmlns="http://www.w3.org/2000/svg" width="48" height="48" viewBox="0 0 48 48"><path d="M18.9 41.05h12.2L32.7 24q-.6-.4-1.025-.975-.425-.575-.625-1.275H19q-.25.7-.675 1.275Q17.9 23.6 17.3 24Zm-.5-27.75-.8 3.3q.45.4.8.9.35.5.55 1.1h12.2q.15-.55.475-1.05.325-.5.775-.9l-.8-3.35Zm-2.55 31.05-2.05-22.3 1.05-.55q.4-.2.65-.525t.25-.775q0-.4-.175-.75t-.525-.55l-1.25-.6 2.05-8.3h7.5V7h-3V3.7h9.3V7h-3v3h7.5l2 8.2-1.25.6q-.35.2-.525.55-.175.35-.175.75 0 .45.25.8.25.35.65.55l1.05.55-2 22.35ZM25 21.75Zm0-3.15Z"/></svg>