<svg xmlns="http://www.w3.org/2000/svg" width="48" height="48" viewBox="0 -960 960 960"><path d="m438.065-502.544 294.848-293.847 45.109 45.348-295.087 294.847-44.87-46.348Zm104.479 104.479 266.369-266.131 45.109 46.109-266.37 266.609-45.108-46.587ZM189.022-191.348Q96.348-284.022 95.25-413.652q-1.098-129.631 91.337-222.065l127.022-127.261 41.043 41.043q13.28 13.217 21.336 30.881 8.055 17.663 8.816 33.337L571.957-845.63l46.108 46.108-225.478 225.239-61.174 61.653 22.652 22.412q42.479 42.704 41.457 102.287-1.022 59.583-43.739 102.301l-8.196 8.195-45.109-46.348 8.435-8.195q24.283-24.283 24.304-56.946.022-32.663-23.26-55.946l-68.761-69.239 75.13-73.13q16.761-17 16.522-42.141-.239-25.142-17.239-42.142l-81.674 81.913q-73.479 73.239-72.261 175.957 1.217 102.717 74.696 176.196 74 74 177 75.5t176.239-71.74l265.63-265.391 45.109 46.109-264.391 264.391q-92.435 92.435-222.348 91.174-129.913-1.26-222.587-93.935Zm220.587-220.348Zm278.434 378.63 1-68.13q70.761 0 120.381-49.5 49.619-49.5 49.619-120.5l67.892-1q0 99.348-69.931 169.24-69.93 69.89-168.961 69.89ZM33.065-688.042q0-99.109 69.879-169.001 69.878-69.891 169.252-69.891l-1 67.892q-71 0-120.5 49.619-49.5 49.62-49.5 120.381l-68.13 1Z"/></svg>