<svg xmlns="http://www.w3.org/2000/svg" width="48" height="48" viewBox="0 -960 960 960"><path d="M701.913-177.609h46.413v-46.413h-46.413v46.413Zm0-110h46.413v-46.413h-46.413v46.413Zm110 110h46.413v-46.413h-46.413v46.413Zm-173.587 63.587v-283.587h173.587v110h110v173.587H638.326ZM480-106.13 0-600q98.76-94.957 220.641-149.033Q342.522-803.109 480-803.109q137.478 0 259.359 54.076Q861.239-694.957 960-600L842.152-476.609q-12.674-11.99-24.087-22.771-11.413-10.782-24.087-22.772l67.5-70.174q-84.848-66.326-179.626-104.37-94.778-38.043-201.88-38.043-107.102 0-201.852 38.043-94.75 38.044-179.598 104.37L480-202.957l56.413-56.652q12.103 12.637 23.25 23.848 11.147 11.212 23.25 23.609L480-106.13Zm0-362.718Z"/></svg>