<svg xmlns="http://www.w3.org/2000/svg" width="48" height="48" viewBox="0 -960 960 960"><path d="M480.239-71.87q-33.956 0-58.054-24.097-24.098-24.098-24.098-58.055h164.065q0 33.957-24.098 58.055-24.097 24.098-57.815 24.098ZM154.022-194.021v-68.13h77.847v-298.022q0-86.152 50.337-154.804t133.729-86.37v-84.87h128.13v84.87q33.674 7.239 62.609 23.315 28.935 16.076 52.891 40.511-79.913 14.087-149.706 52.087-69.794 38-124.511 97.718l325.565 325.565h95.305v68.13H154.022ZM694-357.609 634.609-416q11.717-11.957 26.934-18.935 15.218-6.978 32.457-6.978t32.076 6.978q14.837 6.978 26.554 18.935L694-357.609Zm-99-99L549.609-502q27.717-27.957 64.434-43.935 36.718-15.978 78.957-15.978 42.239 0 79.457 15.978Q809.674-529.957 837.63-502L792-456.609q-19.478-20-44.359-30.858-24.88-10.859-53.641-10.859t-54.141 11.239Q614.478-475.848 595-456.609Zm-85-85L464.609-586q44.717-44.717 103.815-70.315T694-681.913q66.478 0 125.076 25.598T922.63-586L877-541.609q-35.478-35.478-82.859-56.097-47.38-20.62-101.141-20.62t-100.641 20.62Q545.478-577.087 510-541.609Z"/></svg>