<svg xmlns="http://www.w3.org/2000/svg" width="48" height="48"><path d="m33.95 15.6-2.35-2.35 4.2-4.2-4.2-4.2 2.35-2.35 4.2 4.2 4.2-4.2 2.3 2.35-4.2 4.2 4.2 4.2-2.3 2.35-4.2-4.2zM24 44.3q-.75 0-1.35-.425-.6-.425-.9-1.275-1.1-2.9-2.475-5.3t-3.825-5.55q-2.55-3.35-4.15-6.4Q9.7 22.3 9.7 18q0-5.95 4.175-10.125T24 3.7q1.6 0 2.825.275t2.875.975l4.1 4.1-4.2 4.2 4.35 4.35 4.2-4.2.15 4.25q.05 4.85-1.7 7.975t-4.05 6.125q-2.55 3.4-3.9 5.725-1.35 2.325-2.4 5.125-.3.8-.9 1.25-.6.45-1.35.45zm0-21.85q1.9 0 3.175-1.3T28.45 18q0-1.9-1.275-3.175T24 13.55q-1.85 0-3.15 1.275-1.3 1.275-1.3 3.175 0 1.85 1.3 3.15 1.3 1.3 3.15 1.3z"/></svg>