<svg xmlns="http://www.w3.org/2000/svg" width="48" height="48" viewBox="0 -960 960 960"><path d="M57-554 0-611q98-92 222-140.5T480-800q134 0 258 48.5T960-611l-57 57q-87-81-196-123.5T480-720q-118 0-227 42.5T57-554Zm372 373q-21-21-21-51 0-29 21.5-50.5T480-304q30 0 51 21t21 51q0 30-21 51t-51 21q-30 0-51-21ZM292-319l-57-57q51-45 114-69t131-24q51 0 98 13t90 38q-16 13-29 29t-23 34q-32-17-66-25t-70-8q-52 0-100.5 17.5T292-319ZM175-436l-57-57q75-69 168-105.5T481-635q101 0 194 36t168 105l-30 30h-13q-11 0-21 1t-21 3q-60-45-130.5-69.5T481-554q-85 0-164 30.5T175-436Zm603.5 267.5Q770-177 770-190t8.5-21.5Q787-220 800-220t21.5 8.5Q830-203 830-190t-8.5 21.5Q813-160 800-160t-21.5-8.5ZM770-280v-130h60v130h-60Z"/></svg>