<svg xmlns="http://www.w3.org/2000/svg" width="48" height="48" viewBox="0 96 960 960"><path d="m538 936 36-348q-45-11-83.5-33T420 501l-13-13-109 108 89 89v251h-60V712l-65-57 11 94-139 180-48-37 125-161-50-128q-9-23-7-43t13-31l134-132q11-11 23-16t26-5q14 0 27.5 5.5T400 396l65 64q33 32 74 53t88 23h92q15 0 25 10t12 25l30 286q15 5 25 18.5t10 30.5q0 21-15 35.5T770 956q-21 0-36-14.5T719 906q0-15 7-26.5t19-18.5l-7-75H595l-15 150h-42Zm-28-560q-29 0-49.5-20.5T440 306q0-29 20.5-49.5T510 236q29 0 49.5 20.5T580 306q0 29-20.5 49.5T510 376Zm89 370h135l-17-170H616l-17 170Z"/></svg>