<svg xmlns="http://www.w3.org/2000/svg" width="48" height="48" viewBox="0 96 960 960"><path d="M181 586h139q8 0 15.5 4t11.5 12l53 107 133-267q8-17 27-17t27 17l72 144h120q-11-115-96-193t-203-78q-118 0-203 78t-96 193Zm299 329q118 0 202.5-77.5T778 646H640q-8 0-15.5-4T613 630l-53-107-133 267q-8 17-27 17t-27-17l-72-144H182q11 114 95.5 191.5T480 915Zm0 60q-74 0-139.5-28.5T226 869q-49-49-77.5-114.5T120 615h60q0 125 87.5 212.5T480 915q125 0 212.5-87.5T780 615h60q0 74-28.5 139.5T734 869q-49 49-114.5 77.5T480 975ZM120 615q0-74 28.5-139.5T226 361q49-49 114.5-77.5T480 255q67 0 126 22.5T711 340l51-51 42 42-51 51q36 40 61.5 97T840 615h-60q0-125-87.5-212.5T480 315q-125 0-212.5 87.5T180 615h-60Zm240-419v-60h240v60H360Zm120 719q-125 0-212.5-87.5T180 615q0-125 87.5-212.5T480 315q125 0 212.5 87.5T780 615q0 125-87.5 212.5T480 915Zm0-299Z"/></svg>