<svg xmlns="http://www.w3.org/2000/svg" width="48" height="48" viewBox="0 0 48 48"><path d="M39.75 41.6 26.6 28.45l2.3-2.3L42.05 39.3Zm-28.5-2.3q-4.4-4.85-5.1-11.15-.7-6.3 2.15-11.8.1 1.65.725 3.675T10.8 24.25q1.15 2.2 2.75 4.55 1.6 2.35 3.6 4.6Zm7.95-7.95q-2.45-2.5-4.25-5.325-1.8-2.825-2.725-5.45T11.3 15.75q0-2.2 1.1-3.4 1.2-1.3 3.475-1.35 2.275-.05 5.025.85 2.75.9 5.65 2.675 2.9 1.775 5.25 4.225ZM33.85 16.7q-2.2-2-4.525-3.6t-4.6-2.725Q22.45 9.25 20.35 8.65q-2.1-.6-3.8-.65Q22.1 5 28.5 5.7q6.4.7 11.25 5.1Z"/></svg>