<svg xmlns="http://www.w3.org/2000/svg" width="48" height="48" viewBox="0 0 48 48"><path d="M10 42v-3h10.4v-5.2h-.75q-4.05 0-6.85-2.8T10 24.15q0-3.05 1.75-5.55t4.6-3.5q.2-2 1.75-3.25t3.6-1.1L20.65 7.8l2.05-.75L22 5.2 25.3 4l.7 1.85 2-.7 5.65 14.75-2.15.75.7 1.85-3.2 1.15-.7-1.85-2.15.8-1.25-3.4q-.75.85-1.775 1.225-1.025.375-2.175.325-1.3-.05-2.4-.8-1.1-.75-1.75-1.9-1.75.85-2.775 2.5T13 24.15q0 2.75 1.95 4.7 1.95 1.95 4.7 1.95H37v3H25.4V39H38v3Zm17.8-22.6 2.65-.95-4-10.3-2.65.95Zm-6.5-1.15q1.05 0 1.775-.725.725-.725.725-1.775 0-1.05-.725-1.775-.725-.725-1.775-.725-1.05 0-1.775.725-.725.725-.725 1.775 0 1.05.725 1.775.725.725 1.775.725Zm6.5 1.15Zm-6.5-3.75Zm.1 0Z"/></svg>