<svg xmlns="http://www.w3.org/2000/svg" width="48" height="48" viewBox="0 96 960 960"><path d="M248 742q23.333 0 39.667-15.75Q304 710.5 304 688q0-23.333-16.265-39.667Q271.471 632 248.235 632 225 632 209.5 648.265q-15.5 16.264-15.5 39.5Q194 711 209.75 726.5T248 742Zm391 0q23.333 0 39.667-15.75Q695 710.5 695 688q0-23.333-16.265-39.667Q662.471 632 639.235 632 616 632 600.5 648.265q-15.5 16.264-15.5 39.5Q585 711 600.75 726.5T639 742ZM114 936q-12.75 0-21.375-8.625T84 906V576l82.133-240q5.867-18 21.439-29t34.661-11H604v60H222l-55 166h437v60H144v210h600V582h60v324q0 12.75-8.625 21.375T774 936h-19q-13.175 0-22.088-8.625Q724 918.75 724 906v-54H164v54q0 12.75-8.625 21.375T134 936h-20Zm641-400V372l-97 97-21-21 112-112-112-112 21-21 97 97V136h8l114 116-86 84 86 86-114 114h-8Zm35-248 38-36-38-38v74Zm0 172 38-38-38-38v76ZM144 582v210-210Z"/></svg>