<svg xmlns="http://www.w3.org/2000/svg" width="48" height="48" viewBox="0 96 960 960"><path d="M880 412q-13.655-10.684-28.828-19.842Q836 383 820 375V236H160v-60h660q24 0 42 18t18 42v176ZM110 816q-12.75 0-21.375-9T80 786V426q0-12.75 8.625-21.375T110 396h200q12 0 21 8.625T340 426v360q0 12-9 21t-21 9H110Zm560 80V691q-9-6-14.5-15t-5.5-20q0-16.8 11.5-28.4Q673 616 689.585 616 707 616 718.5 627.6T730 656q0 11-5 20t-15 15v205h-40Zm-77-129q-25-21-39-50t-14-61q0-62.812 44.101-106.406Q628.203 506 690.132 506 753 506 796.5 549.594 840 593.188 840 656q0 31.697-13 61.348Q814 747 789 768l-29-28q19-16 29.5-37.857T800 656q0-46.2-31.9-78.1Q736.2 546 690 546q-45 0-77.5 31.9T580 656q0 23.929 11 45.464Q602 723 620 739l-27 28Zm-71 72q-39-35-60.5-83.151Q440 707.699 440 656q0-104.808 73.117-177.404Q586.233 406 690.135 406 795 406 867.5 478.596 940 551.192 940 656q0 52-21 99.5T859 838l-28-28q34-29 51.5-69t17.5-85q0-88.2-60.869-149.1-60.87-60.9-149.025-60.9Q603 446 541.5 506.9T480 656q0 45 18 85t52 69l-28 29Zm-382-83h140V456H140v300Zm0 0h140-140Z"/></svg>