<svg xmlns="http://www.w3.org/2000/svg" width="48" height="48"><path d="M22.25 16.9H42.7q-1.7-4.45-5.325-7.75T29.25 4.7zM17 22 27.2 4.25q-.55-.1-1.525-.175Q24.7 4 23.85 4 20 4 16.425 5.5 12.85 7 10 9.8zM4.65 29.05h14.1L8.6 11.3Q6.35 14 5.175 17.25 4 20.5 4 24.1q0 1.25.15 2.5t.5 2.45zm14 14.2 7.05-12.2H5.3q1.75 4.4 5.3 7.675Q14.15 42 18.65 43.25zm5.75.75q3.65 0 7.2-1.475 3.55-1.475 6.4-4.275l-7.05-12.2L20.7 43.7q.65.1 1.675.2t2.025.1zm15.05-7.35q2.2-2.7 3.375-5.95Q44 27.45 44 24q0-1.2-.15-2.5t-.5-2.6h-14.2z"/></svg>