<svg xmlns="http://www.w3.org/2000/svg" width="48" height="48" viewBox="0 -960 960 960"><path d="M150-120q-13 0-21.5-8.5T120-150v-330l82-240q6-18 21.5-29t34.5-11h218q-1 8-1.5 15t-.5 15q0 8 .5 15t1.5 15H258l-55 166h363q17 16 60 38t104 22H180v210h600v-215q20-5 34.5-10t25.5-10v349q0 13-8.5 21.5T810-120h-19q-13 0-22-8.5t-9-21.5v-54H200v54q0 13-8.5 21.5T170-120h-20Zm552-460-5-46q-12-3-22-9t-17-14l-40 19-29-46 36-27q-5-11-5-27t5-27l-36-27 29-46 40 19q7-8 16-14t23-9l5-46h56l5 46q14 3 23 9t16 14l40-19 29 46-36 27q5 11 5 27t-5 27l36 27-29 46-40-19q-7 8-17 14t-22 9l-5 46h-56Zm75-103q19-19 19-47t-19-47q-19-19-47-19t-47 19q-19 19-19 47t19 47q19 19 47 19t47-19ZM180-474v210-210Zm104 160q23 0 39.5-15.5T340-368q0-23-16.5-39.5T284-424q-23 0-38.5 16.5T230-368q0 23 15.5 38.5T284-314Zm391 0q23 0 39.5-15.5T731-368q0-23-16.5-39.5T675-424q-23 0-38.5 16.5T621-368q0 23 15.5 38.5T675-314Z"/></svg>