<svg xmlns="http://www.w3.org/2000/svg" width="48" height="48" viewBox="0 96 960 960"><path d="M480.235 840q23.236 0 39.5-17Q536 806 536 783H423q0 23 17 40t40.235 17ZM286 723h387v-60h-40V548q0-60-31.5-110.5T513 376v-30q0-14.025-9.482-23.513-9.483-9.487-23.5-9.487Q466 313 456 322.487q-10 9.488-10 23.513v30q-57 11-88.5 59T326 542v121h-40v60Zm100-60V536q0-40.425 27-69.213Q440 438 479.5 438t66.5 28.787q27 28.788 27 69.213v127H386Zm94.266 313q-82.734 0-155.5-31.5t-127.266-86q-54.5-54.5-86-127.341Q80 658.319 80 575.5q0-82.819 31.5-155.659Q143 347 197.5 293t127.341-85.5Q397.681 176 480.5 176q82.819 0 155.659 31.5Q709 239 763 293t85.5 127Q880 493 880 575.734q0 82.734-31.5 155.5T763 858.316q-54 54.316-127 86Q563 976 480.266 976Zm.234-60Q622 916 721 816.5t99-241Q820 434 721.188 335 622.375 236 480 236q-141 0-240.5 98.812Q140 433.625 140 576q0 141 99.5 240.5t241 99.5Zm-.5-340Z"/></svg>