<svg xmlns="http://www.w3.org/2000/svg" width="48" height="48" viewBox="0 -960 960 960"><path d="M480-480Zm149 320H180q-24 0-42-18t-18-42v-520q0-24 18-42t42-18h600q24 0 42 18t18 42v369h-60v-369H180v520h449v60Zm151 80v-80h-80v-60h80v-80h60v80h80v60h-80v80h-60ZM270-361h142q12.75 0 21.375-8.625T442-391v-42h-50v22H290v-138h102v22h50v-42q0-12.75-8.625-21.375T412-599H270q-12.75 0-21.375 8.625T240-569v178q0 12.75 8.625 21.375T270-361Zm279 0h142q12 0 21-9t9-21v-42h-50v22H569v-138h102v22h50v-42q0-12-9-21t-21-9H549q-12 0-21 9t-9 21v178q0 12 9 21t21 9Z"/></svg>