<svg xmlns="http://www.w3.org/2000/svg" width="48" height="48" viewBox="0 -960 960 960"><path d="m740-76 113-113-21-21-77 77v-171h-30v171l-77-77-21 21L740-76ZM480-823 213-669l267 155 266-155-266-154ZM120-310v-340q0-16 7.875-29.787Q135.75-693.574 150-702l300-173q8-5 14.951-6.5 6.951-1.5 15-1.5t15.549 1.5Q503-880 510-875l300 173q14.25 8.426 22.125 22.213T840-650v210h-60v-180L481-445 180-619v309l300 173v69L150-258q-14.25-8.426-22.125-22.213T120-310ZM730 0q-78 0-134-55.4-56-55.399-56-133.999Q540-268 596-324t134-56q78 0 134 55.867Q920-268.265 920-189q0 78.435-56 133.718Q808 0 730 0ZM480-478Z"/></svg>