<svg xmlns="http://www.w3.org/2000/svg" width="48" height="48" viewBox="0 96 960 960"><path d="M280 896H140q-24.75 0-42.375-17.625T80 836V316q0-24.75 17.625-42.375T140 256h660v60H140v520h140v60Zm100 0v-66q-18-17-29-38.5T340 746q0-24 11-45.5t29-38.5v-66h140v66q18 17 29 38.5t11 45.5q0 24-11 45.5T520 830v66H380Zm69.882-80Q479 816 499.5 795.618q20.5-20.383 20.5-49.5Q520 717 499.618 696.5q-20.383-20.5-49.5-20.5Q421 676 400.5 696.382q-20.5 20.383-20.5 49.5Q380 775 400.382 795.5q20.383 20.5 49.5 20.5ZM850 896H650q-12 0-21-9t-9-21V506q0-12.75 9-21.375T650 476h200q12.75 0 21.375 8.625T880 506v360q0 12-8.625 21T850 896Zm-170-60h140V536H680v300Z"/></svg>