<svg xmlns="http://www.w3.org/2000/svg" width="48" height="48" viewBox="0 96 960 960"><path d="m806 1000-58-58q-15 12-32.5 18t-35.5 6H439q-23 0-44-9t-36-26L94 651l39-37q8-7 18-7.5t20 4.5l119 67V485L56 251l42-43 750 750-42 42Zm-16-185L521 546h49V226q0-17 11.5-28.5T610 186q17 0 28.5 11.5T650 226v320h60V306q0-17 11.5-28.5T750 266q17 0 28.5 11.5T790 306v509ZM510 535l-80-80V186q0-17 11.5-28.5T470 146q17 0 28.5 11.5T510 186v349ZM370 395l-80-80v-52q0-16 11.5-26.5T330 226q17 0 28.5 11.5T370 266v129Z"/></svg>