<svg xmlns="http://www.w3.org/2000/svg" width="48" height="48" viewBox="0 96 960 960"><path d="M582 592 463 473l235-113-116 232Zm231 403-95-95q-50 36-110 56t-128 20q-85 0-158-30.5T195 861q-54-54-84.5-127T80 576q0-68 20-128t56-110l-95-95 43-43 752 752-43 43Zm-9-181-43-43q28-42 43.5-91T820 576q0-145-97.5-242.5T480 236q-55 0-104 15.5T285 295l-43-43q50-36 110-56t128-20q84 0 157 31t127 85q54 54 85 127t31 157q0 68-20 128t-56 110ZM523 533Zm-86 86Zm43 297q55 0 104-15.5t91-43.5L500 682 263 797l119-233-183-183q-28 42-43.5 91T140 576q0 145 97.5 242.5T480 916Z"/></svg>