<svg xmlns="http://www.w3.org/2000/svg" width="48" height="48" viewBox="0 96 960 960"><path d="M495 1056q-70 0-130.5-22t-105-62.5Q215 931 190 873.5T165 746V328q0-21 15.5-36.5T217 276q21 0 36.5 15.5T269 328v228h40V208q0-21 15.5-36.5T361 156q21 0 36.5 15.5T413 208v348h40V148q0-21 15.5-36.5T505 96q21 0 36.5 15.5T557 148v408h40V228q0-21 15-36.5t36-15.5q21 0 36.5 15.5T700 228v422q-80 15-128 67t-51 129h40q3-66 52-114.5T740 683V485q0-21 14.5-35.5T790 435q21 0 35.5 14.5T840 485v261q0 70-27.5 127.5t-74.5 98q-47 40.5-109.5 62.5T495 1056Z"/></svg>