<svg xmlns="http://www.w3.org/2000/svg" width="48" height="48" viewBox="0 -960 960 960"><path d="M480-786 380-919h200L480-786Zm241 429q99-52 99-126t-99-126q-99-52-241-52t-241 52q-99 52-99 126t99 126q99 52 241 52t241-52Zm-47 81v136q0 25-17.5 42.5T614-80H345q-25 0-42.5-17.5T285-140v-136q-92-31-148.5-85.5T80-483q0-99 116.5-168T480-720q167 0 283.5 69T880-483q0 67-56.5 122T674-276ZM480-483Zm-64 106h30v-82h37l49 82h34l-56-91q20-8 30-21.5t10-33.5q0-30-19-45t-56-15h-59v206Zm30-110v-67h27q23 0 34.5 8t11.5 25q0 18-11 26t-35 8h-27Z"/></svg>