<svg xmlns="http://www.w3.org/2000/svg" width="48" height="48" viewBox="0 -960 960 960"><path d="m278-548 40-122h326l41 122H278Zm69.5 146.5Q356-410 356-423t-8.5-21.5Q339-453 326-453t-21.5 8.5Q296-436 296-423t8.5 21.5Q313-393 326-393t21.5-8.5ZM698-170l141-142-28-28-113 114-59-60-28 29 87 87Zm164.5-222.5Q919-336 919-255t-56.5 137.5Q806-61 725-61t-137.5-56.5Q531-174 531-255t56.5-137.5Q644-449 725-449t137.5 56.5ZM541-80H141q-26 0-43-17t-17-43v-680q0-23 17-41.5t43-18.5h680q23 0 41.5 18.5T881-820v365q-26-20-56-33t-64-18l-66-192q-5-14-16.5-23t-25.5-9H309q-14 0-25.5 9T267-698l-66 192v272q0 10 7 17t17 7h12q10 0 17-7t7-17v-64h214q-2 11-3 21.5t-1 21.5q0 51 19 95.5T541-80Z"/></svg>