<svg xmlns="http://www.w3.org/2000/svg" width="48" height="48" viewBox="0 96 960 960"><path d="M596 809h45v-68h68v-45h-68v-68h-45v68h-68v45h68v68ZM276 567h45V460h105v107h45V327h-45v88H321v-88h-45v240Zm257 0h131q19 0 32-13t13-32V372q0-19-13-32t-32-13H533v240ZM409 741h-82v-67h82q5 0 8.5 3.5t3.5 8.5v43q0 5-3.5 8.5T409 741Zm5 130h43l-33-87q17-2 28.5-14t11.5-29v-67q0-18-12.5-30.5T421 631H284v240h43v-87h54l33 87Zm164-349V372h74q5 0 8.5 3.5t3.5 8.5v126q0 5-3.5 8.5T652 522h-74Zm-98 454q-85 0-158-30.5T195 861q-54-54-84.5-127T80 576q0-84 30.5-157T195 292q54-54 127-85t158-31q84 0 157 31t127 85q54 54 85 127t31 157q0 85-31 158t-85 127q-54 54-127 84.5T480 976Z"/></svg>