<svg xmlns="http://www.w3.org/2000/svg" width="48" height="48" viewBox="0 0 48 48"><path d="m33.95 21-2.2-2.2q.35-.85.525-1.65.175-.8.175-1.7 0-3.45-2.5-5.95T24 7q-.9 0-1.775.2-.875.2-1.575.5L18.4 5.45q1.15-.6 2.525-1.025Q22.3 4 24 4q4.75 0 8.1 3.35 3.35 3.35 3.35 8.1 0 1.5-.375 2.95-.375 1.45-1.125 2.6Zm-.75 7.7-3.4-3.4q-1.15.75-2.725 1.175Q25.5 26.9 24 26.9q-4.75 0-8.1-3.35-3.35-3.35-3.35-8.1 0-1.45.375-2.95.375-1.5 1.225-2.85l-3-3 2.1-2.1L35.3 26.6Zm-5.55-5.65L16.4 11.8q-.45.9-.65 1.85-.2.95-.2 1.8 0 3.45 2.5 5.95T24 23.9q.9 0 1.875-.225t1.775-.625Zm13.9 20.1v-4h-4V36.7h4v-4H44v4h4v2.45h-4v4Zm-15.2.85V31.45h7.15q1.1 0 1.775.65.675.65.675 1.75v2.6q0 1.1-.575 1.75-.575.65-1.575 1.05L35.75 44H33.1l-1.75-4.45h-2.6V44Zm2.4-6.85h4.8v-3.3h-4.8ZM0 44V31.45h2.4v4.35h4.65v-4.35h2.4V44h-2.4v-5.8H2.4V44Zm13.15 0V31.45h7q1.1 0 1.75.65.65.65.65 1.75v7.75q0 1.1-.65 1.75-.65.65-1.75.65Zm2.4-2.4h4.6v-7.75h-4.6Zm26 1.55v-4h-4V36.7h4v-4H44v4h4v2.45h-4v4Zm-15.2.85V31.45h7.15q1.1 0 1.775.65.675.65.675 1.75v2.6q0 1.1-.575 1.75-.575.65-1.575 1.05L35.75 44H33.1l-1.75-4.45h-2.6V44Zm2.4-6.85h4.8v-3.3h-4.8ZM0 44V31.45h2.4v4.35h4.65v-4.35h2.4V44h-2.4v-5.8H2.4V44Zm13.15 0V31.45h7q1.1 0 1.75.65.65.65.65 1.75v7.75q0 1.1-.65 1.75-.65.65-1.75.65Zm2.4-2.4h4.6v-7.75h-4.6Z"/></svg>