<svg xmlns="http://www.w3.org/2000/svg" width="48" height="48"><path d="M26 42q-3.85 0-7.35-1.575-3.5-1.575-6.1-4.425l2.15-2.15q2.25 2.4 5.15 3.775Q22.75 39 26 39q6.25 0 10.625-4.4T41 23.95q0-6.25-4.375-10.6T26 9q-6.4 0-10.7 4.425Q11 17.85 11 24.75l4.35-4.35 2.15 2.15-7.95 7.95-8-8 2.15-2.15 4.3 4.3q0-4 1.4-7.425t3.825-5.925q2.425-2.5 5.725-3.9T26 6q3.75 0 7.025 1.425 3.275 1.425 5.7 3.85 2.425 2.425 3.85 5.7Q44 20.25 44 24q0 3.75-1.425 7.025-1.425 3.275-3.85 5.7-2.425 2.425-5.7 3.85Q29.75 42 26 42zm6.05-9.85-7.7-7.6v-10.7h3v9.45L34.2 30z"/></svg>