<svg xmlns="http://www.w3.org/2000/svg" width="48" height="48" viewBox="0 0 48 48"><path d="M7 44q-1.2 0-2.1-.925Q4 42.15 4 41V19q0-1.2.9-2.1.9-.9 2.1-.9h34q1.2 0 2.1.9.9.9.9 2.1v22q0 1.15-.9 2.075Q42.2 44 41 44Zm8-6.25h18v-3H15Zm-4.85-6.25h3v-3h-3Zm6.2 0h3v-3h-3Zm6.15 0h3v-3h-3Zm6.2 0h3v-3h-3Zm6.15 0h3v-3h-3Zm-24.7-6.25h3v-3h-3Zm6.2 0h3v-3h-3Zm6.15 0h3v-3h-3Zm6.2 0h3v-3h-3Zm6.15 0h3v-3h-3ZM12.5 11V2h3v3.75Q17.1 4 19.275 3t4.675-1q4.05 0 7.2 2.525Q34.3 7.05 35.2 11h-3.15q-.85-2.7-3.025-4.35Q26.85 5 24 5q-1.9 0-3.6.8-1.7.8-2.85 2.2h3.95v3Z"/></svg>