<svg xmlns="http://www.w3.org/2000/svg" width="48" height="48" viewBox="0 0 48 48"><path d="M4 46v-3h2q1.75 0 3.275-.625T12 40.55q1.15 1.15 2.7 1.775 1.55.625 3.3.675 1.7.05 3.2-.575 1.5-.625 2.8-1.875 1.2 1.2 2.725 1.825Q28.25 43 30 43t3.225-.6Q34.7 41.8 36 40.55q1.3 1.25 2.775 1.85Q40.25 43 42 43h2v3h-2q-1.75 0-3.225-.5T36 44q-1.3 1-2.75 1.5T30 46q-1.75 0-3.225-.5T24 44q-1.25 1-2.725 1.5t-3.225.5q-1.75 0-3.3-.5Q13.2 45 12 44q-1.3 1-2.75 1.5T6 46Zm14-7.8q-1.15 0-2.375-.5T13.4 36.35q.8-.7 1.6-1.275t1.65-1.225l-3.3-6.35q-.4-.8-.625-1.7-.225-.9-.225-1.8v-8q0-1.45 1.025-2.475Q14.55 12.5 16 12.5h6q2 0 3.825-.7 1.825-.7 3.275-2l2.1 2.15q-1.9 1.75-4.225 2.65-2.325.9-4.975.9h-3.3v8h5.9l3.45 3.85q3.45-1.45 5.975-2.15 2.525-.7 4.275-.7 1.5 0 2.35.525.85.525.85 1.525 0 2.05-2.825 5.05t-7.725 6.25q-.25.15-.5.25t-.45.1q-1.6 0-3.15-.85-1.55-.85-2.85-2.4-1.3 1.6-2.85 2.425-1.55.825-3.15.825Zm1.4-6.25q1-.6 2.725-1.575T25.2 28.7l-2-2.2-5.95.25ZM16 9.65q-1.5 0-2.575-1.075Q12.35 7.5 12.35 6q0-1.5 1.075-2.575Q14.5 2.35 16 2.35q1.5 0 2.575 1.075Q19.65 4.5 19.65 6q0 1.5-1.075 2.575Q17.5 9.65 16 9.65Zm16.7-.55-1.45-1.45L36.9 2h2.85Z"/></svg>