<svg xmlns="http://www.w3.org/2000/svg" width="48" height="48" viewBox="0 -960 960 960"><path d="M350-634h260v-93q0-55-38-94t-92-39q-54 0-92 39t-38 94v93Zm266 532q-56-56-56-137t56-137q56-56 137-56t137 56q56 56 56 137t-56 137q-56 56-137 56t-137-56Zm211-36 27-27-84-76v-124h-42v136l99 91ZM557-80H220q-25 0-42.5-17.5T160-140v-434q0-25 17.5-42.5T220-634h70v-93q0-80 55.5-136.5T480-920q79 0 134.5 56.5T670-727v93h70q25 0 42.5 17.5T800-574v87q-15-4-30-5t-30 0q-102 4-171 77.5T500-239q0 44 15 84.5T557-80Z"/></svg>