<svg xmlns="http://www.w3.org/2000/svg" width="48" height="48" viewBox="0 0 48 48"><path d="m26.2 34.9 7-7q.55-.55.8-1.225t.25-1.425q0-1.6-1.125-2.725T30.4 21.4q-1 0-2 .65t-2.2 2.1Q25 22.7 24 22.05q-1-.65-2-.65-1.6 0-2.725 1.125T18.15 25.25q0 .75.25 1.425t.8 1.225Zm1.75 8.25q-.9.9-2.175.9t-2.175-.9L4.85 24.4q-.5-.5-.675-1.05Q4 22.8 4 22.2V7q0-1.3.85-2.15Q5.7 4 7 4h15.2q.6 0 1.2.175t1.1.675L43.15 23.5q.95.95.95 2.225 0 1.275-.95 2.225ZM25.9 41.1l15.2-15.2L22.2 7H7v15.2ZM12.25 14.8q1.05 0 1.825-.775.775-.775.775-1.825 0-1.05-.775-1.825Q13.3 9.6 12.25 9.6q-1.05 0-1.825.775-.775.775-.775 1.825 0 1.05.775 1.825.775.775 1.825.775ZM7 7Z"/></svg>