<svg xmlns="http://www.w3.org/2000/svg" width="48" height="48" viewBox="0 -960 960 960"><path d="m340-133-20-40q-14-30-32-82t-18-85q0-38 11.5-73t27.5-69q16-33 28.5-67t12.5-71q0-26-5.5-51.5T327-720l-40-80q-5-11-1.5-23t14.5-17q11-5 23-1.5t17 14.5l40 80q14 30 22 62t8 65q0 38-11.5 73.5T371-477q-16 33-28.5 67T330-340q0 26 5.5 51.5T353-240l41 80q6 11 2 23.5T381-119q-11 5-23 1t-18-15Zm-160 0-40-80q-14-30-22-62t-8-65q0-38 11.5-73t27.5-69q16-33 28.5-67t12.5-71q0-26-5.5-51.5T167-720l-40-80q-5-11-1.5-23t14.5-17q11-5 23-1.5t17 14.5l40 80q14 30 22 62t8 65q0 38-11.5 73.5T211-477q-16 33-28.5 67T170-340q0 26 5.5 51.5T193-240l41 80q6 11 2 23.5T221-119q-11 5-23.5 1T180-133Zm310 23v-740q0-13 8.5-21.5T520-880q13 0 21.5 8.5T550-850v164l129-129q9-9 21-8.5t21 9.5q9 9 9 21t-9 21L550-601v91h91l168-168q9-9 21-9t21 9q9 9 9 21.5t-9 21.5L726-510h164q13 0 21.5 8.5T920-480q0 13-8.5 21.5T890-450H726l128 129q8 8 8 20t-8 21q-9 9-21.5 9t-21.5-9L641-450h-91v90l172 173q8 8 8 20t-8 21q-9 9-21.5 9t-21.5-9L550-275v165q0 13-8.5 21.5T520-80q-13 0-21.5-8.5T490-110Z"/></svg>