<svg xmlns="http://www.w3.org/2000/svg" width="48" height="48" viewBox="0 96 960 960"><path d="M80 486V316q0-24 18-42t42-18h680q24 0 42 18t18 42v170h-60V316H140v170H80Zm60 410q-24 0-42-18t-18-42V666h60v170h680V666h60v170q0 24-18 42t-42 18H140Zm259.809-130q8.191 0 15.791-4t11.4-12l133-266 53 106q3.75 8 11.25 12t15.75 4h240v-60H659l-72-143q-3.723-8.25-11.17-11.625T560.191 388q-8.191 0-15.791 3.375T533 403L400 668l-53-106q-3.75-8-11.25-12T320 546H80v60h221l72 144q3.723 8 11.17 12t15.639 4ZM480 576Z"/></svg>