<svg xmlns="http://www.w3.org/2000/svg" width="48" height="48" viewBox="0 -960 960 960"><path d="M350-160q-14.25 0-27-6.38-12.75-6.37-21-17.62L80-480l221-296q8.25-11.25 21-17.63 12.75-6.37 27-6.37h472q24.75 0 42.38 17.62Q881-764.75 881-740v520q0 24.75-17.62 42.37Q845.75-160 821-160H350ZM155-480l195 260h471v-520H350L155-480Zm269 29q12-12 12-29t-12-29q-12-12-29-12t-29 12q-12 12-12 29t12 29q12 12 29 12t29-12Zm152 0q12-12 12-29t-12-29q-12-12-29-12t-29 12q-12 12-12 29t12 29q12 12 29 12t29-12Zm152 0q12-12 12-29t-12-29q-12-12-29-12t-29 12q-12 12-12 29t12 29q12 12 29 12t29-12Zm-142-29Z"/></svg>