<svg xmlns="http://www.w3.org/2000/svg" width="48" height="48" viewBox="0 -960 960 960"><path d="M729-120q-79 0-135-56t-56-135q0-80 56-135.5T729-502q80 0 135.5 55.5T920-311q0 79-55.5 135T729-120Zm-589-40q-24 0-42-18t-18-42v-172h60v172h172v60H140Zm592-36q9 0 15.5-6t6.5-16q0-10-6.5-16t-15.5-6q-10 0-16 6t-6 16q0 10 6 16t16 6Zm-18-85h35v-143h-35v143Zm-264-2q-98-11-167-80t-80-167h59q10 74 62.5 126T450-342v59Zm30-207q-29 0-49.5-20.5T410-560q0-29 20.5-49.5T480-630q29 0 49.5 20.5T550-560q0 29-20.5 49.5T480-490ZM203-590q11-98 80-167t167-80v59q-74 10-126 62t-62 126h-59Zm495 0q-10-74-62-126t-126-62v-59q98 11 167 80t80 167h-59ZM80-728v-172q0-24 18-42t42-18h172v60H140v172H80Zm740 0v-172H648v-60h172q24 0 42 18t18 42v172h-60Z"/></svg>