<svg xmlns="http://www.w3.org/2000/svg" width="48" height="48" viewBox="0 96 960 960"><path d="M233 696h50V506h57v127h50V506h56v190h50V490q0-14.45-9.487-24.225Q477.025 456 463 456H266q-14.025 0-23.512 9.775Q233 475.55 233 490v206Zm317 0h50v-63h93q14.025 0 23.513-9.487Q726 614.025 726 600V490q0-14.45-9.487-24.225Q707.025 456 693 456H550v240Zm50-113v-77h76v77h-76ZM180 936q-24 0-42-18t-18-42V276q0-24 18-42t42-18h600q24 0 42 18t18 42v600q0 24-18 42t-42 18H180Zm0-60h600V276H180v600Zm0-600v600-600Z"/></svg>