<svg xmlns="http://www.w3.org/2000/svg" width="48" height="48" viewBox="0 -960 960 960"><path d="M338.5-138.5Q280-197 280-280v-400q0-83 58.5-141.5T480-880q83 0 141.5 58.5T680-680v400q0 83-58.5 141.5T480-80q-83 0-141.5-58.5Zm198-445Q560-607 560-640t-23.5-56.5Q513-720 480-720t-56.5 23.5Q400-673 400-640t23.5 56.5Q447-560 480-560t56.5-23.5Zm0 320Q560-287 560-320t-23.5-56.5Q513-400 480-400t-56.5 23.5Q400-353 400-320t23.5 56.5Q447-240 480-240t56.5-23.5ZM448-287.91q-13-12.91-13-32T447.91-352q12.91-13 32-13T512-352.09q13 12.91 13 32T512.09-288q-12.91 13-32 13T448-287.91Z"/></svg>