<svg xmlns="http://www.w3.org/2000/svg" width="48" height="48" viewBox="0 0 48 48"><path d="M15 27.5q.65 0 1.075-.425.425-.425.425-1.075 0-.65-.425-1.075Q15.65 24.5 15 24.5q-.65 0-1.075.425Q13.5 25.35 13.5 26q0 .65.425 1.075.425.425 1.075.425Zm6 0q.65 0 1.075-.425.425-.425.425-1.075 0-.65-.425-1.075Q21.65 24.5 21 24.5q-.65 0-1.075.425Q19.5 25.35 19.5 26q0 .65.425 1.075.425.425 1.075.425Zm6 0q.65 0 1.075-.425.425-.425.425-1.075 0-.65-.425-1.075Q27.65 24.5 27 24.5q-.65 0-1.075.425Q25.5 25.35 25.5 26q0 .65.425 1.075.425.425 1.075.425Zm6 0q.65 0 1.075-.425.425-.425.425-1.075 0-.65-.425-1.075Q33.65 24.5 33 24.5q-.65 0-1.075.425Q31.5 25.35 31.5 26q0 .65.425 1.075.425.425 1.075.425ZM24 44q-3.75 0-7.025-1.425-3.275-1.425-5.7-3.85-2.425-2.425-3.85-5.7Q6 29.75 6 26q0-7.05 4.75-12.175Q15.5 8.7 22.5 8.1V1.5q0-.65.425-1.075Q23.35 0 24 0q.65 0 1.075.425Q25.5.85 25.5 1.5v6.6q7 .6 11.75 5.725T42 26q0 3.75-1.425 7.025-1.425 3.275-3.85 5.7-2.425 2.425-5.7 3.85Q27.75 44 24 44Z"/></svg>