<svg xmlns="http://www.w3.org/2000/svg" width="48" height="48" viewBox="0 0 48 48"><path d="M41.5 23.95q-1.05 0-1.775-.725Q39 22.5 39 21.45V8.5q0-1.05.725-1.775Q40.45 6 41.5 6q1.05 0 1.775.725Q44 7.45 44 8.5v12.95q0 1.05-.725 1.775-.725.725-1.775.725Zm-21.5 0q-3.15 0-5.325-2.175Q12.5 19.6 12.5 16.45q0-3.15 2.175-5.325Q16.85 8.95 20 8.95q3.15 0 5.325 2.175Q27.5 13.3 27.5 16.45q0 3.15-2.175 5.325Q23.15 23.95 20 23.95ZM4 40v-4.7q0-1.75.9-3.175Q5.8 30.7 7.4 30q3-1.35 6.15-2.175Q16.7 27 20 27q3.3 0 6.425.85T32.55 30q1.6.7 2.525 2.125Q36 33.55 36 35.3V40Zm3-3h26v-1.7q0-.85-.45-1.525-.45-.675-1.2-1.075-2.7-1.3-5.525-2T20 30q-3 0-5.85.7-2.85.7-5.55 2-.75.4-1.175 1.075Q7 34.45 7 35.3Zm13-16.05q1.9 0 3.2-1.3 1.3-1.3 1.3-3.2 0-1.9-1.3-3.2-1.3-1.3-3.2-1.3-1.9 0-3.2 1.3-1.3 1.3-1.3 3.2 0 1.9 1.3 3.2 1.3 1.3 3.2 1.3Zm0-4.5ZM20 37Z"/></svg>