<svg xmlns="http://www.w3.org/2000/svg" width="48" height="48" viewBox="0 0 48 48"><path d="M24 44q-4.15 0-7.075-2.925T14 34V14q0-4.15 2.925-7.075T24 4q4.15 0 7.075 2.925T34 14v10h-7q-1.25 0-2.125.875T24 27v1q-1.65 0-2.825 1.175Q20 30.35 20 32q0 1.6 1.175 2.75T24 36Zm5 0v-.65q0-2.4 2.35-3.4t5.15-1q2.8 0 5.15 1 2.35 1 2.35 3.4V44Zm7.5-8q-1.45 0-2.475-1.025Q33 33.95 33 32.5q0-1.45 1.025-2.475Q35.05 29 36.5 29q1.45 0 2.475 1.025Q40 31.05 40 32.5q0 1.45-1.025 2.475Q37.95 36 36.5 36ZM24 34.25q-.95 0-1.6-.65-.65-.65-.65-1.6 0-.95.65-1.6.65-.65 1.6-.65.95 0 1.6.65.65.65.65 1.6 0 .95-.65 1.6-.65.65-1.6.65ZM24 20q1.65 0 2.825-1.175Q28 17.65 28 16q0-1.65-1.175-2.825Q25.65 12 24 12q-1.65 0-2.825 1.175Q20 14.35 20 16q0 1.65 1.175 2.825Q22.35 20 24 20Z"/></svg>