<svg xmlns="http://www.w3.org/2000/svg" width="48" height="48" viewBox="0 96 960 960"><path d="M588 554 395 361q17-14 38.5-21.5T480 332q58 0 97.5 39.5T617 469q0 25-7.5 46.5T588 554ZM222 801q63-44 123.5-67.5T480 710q37 0 65.5 5.5T597 729L474 606q-54-2-89.5-36.5T344 481L218 355q-37 45-57.5 99.5T140 576q0 61 19 116t63 109Zm521-6q35-42 56-97.5T820 576q0-145-97.5-242.5T480 236q-70 0-124 21t-96 55l483 483ZM480 976q-82 0-155-31.5t-127.5-86Q143 804 111.5 731T80 576q0-83 31.5-155.5t86-127Q252 239 325 207.5T480 176q83 0 155.5 31.5t127 86q54.5 54.5 86 127T880 576q0 82-31.5 155t-86 127.5q-54.5 54.5-127 86T480 976Zm0-60q59 0 109.5-17T691 844q-51-36-104-55t-107-19q-54 0-107 19t-104 55q51 38 102 55t109 17Zm0-73Z"/></svg>