<svg xmlns="http://www.w3.org/2000/svg" width="48" height="48"><path d="m43.35 48.9-5.15-5.15q-.3.1-.575.175Q37.35 44 37 44H11q-1.25 0-2.125-.875T8 41V19.3q0-1 .725-1.95t2.025-1.05L-.7 4.85l2.15-2.1L45.5 46.8zM40 37.05 19.2 16.3h11.3v-4.75q0-2.7-1.9-4.625Q26.7 5 24 5q-2.7 0-4.6 1.925-1.9 1.925-1.9 4.625v3l-3-3q-.15-3.95 2.65-6.75T24 2q3.95 0 6.725 2.8Q33.5 7.6 33.5 11.55v4.75H37q1.25 0 2.125.875T40 19.3zM24 34q.9 0 1.675-.375t1.375-1.075l-5.4-5.35q-.7.6-1.1 1.4-.4.8-.4 1.65 0 1.55 1.125 2.65Q22.4 34 24 34z"/></svg>