<svg xmlns="http://www.w3.org/2000/svg" width="48" height="48"><path d="m41.65 45.95-4.7-4.7q-.4.35-.9.55-.5.2-1.05.2 0 .85-.575 1.425Q33.85 44 33 44q-.85 0-1.425-.575Q31 42.85 31 42H17q0 .85-.575 1.425Q15.85 44 15 44q-.85 0-1.425-.575Q13 42.85 13 42q-1.25 0-2.125-.875T10 39V15.5q0-.25.025-.525t.125-.525L1.3 5.6l2.15-2.15L43.8 43.8zM16.5 36V20.8L13 17.3V39h21.7l-3.2-3.2v.2h-2v-2.2L25 29.3V36h-2v-8.7l-4.5-4.5V36zM38 33.7l-3-3V15H19.3l-3-3H18V5.5q0-.65.425-1.075Q18.85 4 19.5 4h9q.65 0 1.075.425Q30 4.85 30 5.5V12h5q1.25 0 2.125.875T38 15zm-6.5-6.5-2-2V18h2zM25 20.7l-2-2V18h2zM20 12h8V6h-8zm7.15 10.85zm-3.3 5.3z"/></svg>