<svg xmlns="http://www.w3.org/2000/svg" width="48" height="48" viewBox="0 96 960 960"><path d="M461 1056h268q63 0 107-43.5T880 906V345q0-35-25-60t-60-25q-11 0-21.5 2t-18.5 9v-46q0-38-24.5-65T670 133q-13 0-25 3.5T622 148q-9-24-29.5-38T546 96q-35 0-60.5 25T460 181v26q-8-7-18.5-10t-21.5-3q-35 0-60 25t-25 60v436l-158-89q-17-9-35-3.5T110 641l-70 61 297 308q24 25 56.5 35.5T461 1056Zm0-60q-21 0-41.5-4T385 974L130 709l27-25 238 129V279q0-11 7-18t18-7q11 0 18 7t7 18v297h75V181q0-11 7-18t18-7q11 0 18 7t7 18v395h75V218q0-11 7-18t18-7q11 0 18 7t7 18v358h75V345q0-11 7-18t18-7q11 0 18 7t7 18v561q0 38-26.5 64T729 996H461Z"/></svg>