<svg xmlns="http://www.w3.org/2000/svg" width="48" height="48" viewBox="0 0 48 48"><path d="M38.3 41.2q2.2 0 3.65-1.45 1.45-1.45 1.45-3.65t-1.45-3.65Q40.5 31 38.3 31t-3.65 1.45Q33.2 33.9 33.2 36.1t1.45 3.65q1.45 1.45 3.65 1.45Zm-1.5 4.75-.25-2.4q-1.15-.35-2.1-.925-.95-.575-1.65-1.225l-2.1 1-1.75-2.7 1.9-1.5q-.25-.95-.25-2.075 0-1.125.25-2.075l-1.9-1.5 1.75-2.75 2.1 1q.7-.6 1.65-1.175.95-.575 2.1-.925l.25-2.45h3l.3 2.45q1.15.35 2.1.925.95.575 1.65 1.175l2.1-1 1.75 2.75-1.9 1.5q.25.95.25 2.075 0 1.125-.25 2.075l1.9 1.5-1.75 2.7-2.1-1q-.7.65-1.65 1.225-.95.575-2.1.925l-.3 2.4ZM4 44 44 4v20.5q-1.35-.65-2.8-1-1.45-.35-2.95-.35-5.4 0-9.175 3.775Q25.3 30.7 25.3 36.1q0 2.1.675 4.175Q26.65 42.35 27.95 44Z"/></svg>