<svg xmlns="http://www.w3.org/2000/svg" width="48" height="48" viewBox="0 96 960 960"><path d="M289.788 976Q260 976 239 954.788q-21-21.213-21-51Q218 874 239.212 853q21.213-21 51-21Q320 832 341 853.212q21 21.213 21 51Q362 934 340.788 955q-21.213 21-51 21Zm404 0Q664 976 643 954.788q-21-21.213-21-51Q622 874 643.212 853q21.213-21 51-21Q724 832 745 853.212q21 21.213 21 51Q766 934 744.788 955q-21.213 21-51 21ZM480 472q-14.45 0-24.225-9.775Q446 452.45 446 438q0-14.45 9.775-24.225Q465.55 404 480 404q14.45 0 24.225 9.775Q514 423.55 514 438q0 14.45-9.775 24.225Q494.45 472 480 472Zm-30-136V136h60v200h-60ZM290 769q-42 0-61.5-34t.5-69l61-111-150-319H62v-60h116l170 364h292l156-280 52 28-153 277q-9.362 16.667-24.681 25.833Q655 600 634 600H334l-62 109h494v60H290Z"/></svg>