<svg xmlns="http://www.w3.org/2000/svg" width="48" height="48"><path d="M5 38q-1.2 0-2.1-.9Q2 36.2 2 35V13q0-1.2.9-2.1.9-.9 2.1-.9h22q1.2 0 2.1.9.9.9.9 2.1v22q0 1.2-.9 2.1-.9.9-2.1.9zm0-5.6q2.45-1.6 5.275-2.4 2.825-.8 5.725-.8 2.9 0 5.725.8 2.825.8 5.275 2.4V13H5zM35 38V10h3v28zm8 0V10h3v28zM16 26.55q-2.3 0-3.925-1.625T10.45 21q0-2.3 1.625-3.925T16 15.45q2.3 0 3.925 1.625T21.55 21q0 2.3-1.625 3.925T16 26.55zM6.5 35h19q-2.15-1.45-4.6-2.125-2.45-.675-4.9-.675-2.65 0-5.05.675T6.5 35zM16 23.9q1.2 0 2.05-.825.85-.825.85-2.075 0-1.2-.85-2.05-.85-.85-2.05-.85-1.25 0-2.075.85-.825.85-.825 2.05 0 1.25.825 2.075.825.825 2.075.825zM16 35zm0-14z"/></svg>