<svg xmlns="http://www.w3.org/2000/svg" width="48" height="48" viewBox="0 96 960 960"><path d="M130 976v-13q0-21.081 11.408-38.649Q152.816 906.784 173 898q25.078-10.522 51.603-16.261Q251.128 876 280.064 876t55.417 5.739Q361.963 887.478 387 898q20.184 8.784 31.592 26.351Q430 941.919 430 963v13H130Zm400 0v-13q0-21.081 11.408-38.649Q552.816 906.784 573 898q25.078-10.522 51.603-16.261Q651.128 876 680.064 876t55.417 5.739Q761.963 887.478 787 898q20.184 8.784 31.592 26.351Q830 941.919 830 963v13H530ZM279.956 821Q249 821 227 798.956q-22-22.045-22-53Q205 715 227.044 693q22.045-22 53-22Q311 671 333 693.044q22 22.045 22 53Q355 777 332.956 799q-22.045 22-53 22Zm400 0Q649 821 627 798.956q-22-22.045-22-53Q605 715 627.044 693q22.045-22 53-22Q711 671 733 693.044q22 22.045 22 53Q755 777 732.956 799q-22.045 22-53 22ZM480 729 367 616l35-35 53 53v-93h50v93l53-53 35 35-113 113ZM80 481v-13q0-21.081 11.408-38.649Q102.816 411.784 123 403q25.063-10.522 51.572-16.261Q201.081 381 230 381q25 0 51.5 5t46.5 13q-14 16-21 31t-7 38v13H80Zm250 0v-13q0-21.081 11.408-38.649Q352.816 411.784 373 403q25.078-10.522 51.603-16.261Q451.128 381 480.064 381t55.417 5.739Q561.963 392.478 587 403q20.184 8.784 31.592 26.351Q630 446.919 630 468v13H330Zm330 0v-13q0-23-6.5-38T633 399q20-8 46-13t51-5q28.919 0 55.428 5.739Q811.937 392.478 837 403q20.184 8.784 31.592 26.351Q880 446.919 880 468v13H660ZM229.956 326Q199 326 177 303.956q-22-22.045-22-53Q155 220 177.044 198q22.045-22 53-22Q261 176 283 198.044q22 22.045 22 53Q305 282 282.956 304q-22.045 22-53 22Zm250 0Q449 326 427 303.956q-22-22.045-22-53Q405 220 427.044 198q22.045-22 53-22Q511 176 533 198.044q22 22.045 22 53Q555 282 532.956 304q-22.045 22-53 22Zm250 0Q699 326 677 303.956q-22-22.045-22-53Q655 220 677.044 198q22.045-22 53-22Q761 176 783 198.044q22 22.045 22 53Q805 282 782.956 304q-22.045 22-53 22Z"/></svg>