<svg xmlns="http://www.w3.org/2000/svg" width="48" height="48" viewBox="0 0 48 48"><path d="M22.5 13.4V4h3v9.4Zm13 5.6-2.15-2.2L40 10.25l1.95 2.2Zm-22.8 0L6 12.45l2.15-2.2 6.5 6.55ZM24 24.15q6.3 0 12.05 2.525Q41.8 29.2 45.9 34q.4.5.425 1.1.025.6-.425 1.05l-4.7 4.7q-.4.4-1.15.45-.75.05-1.2-.3l-5.7-4.25q-.3-.25-.45-.55-.15-.3-.15-.65V28.6q-2.1-.8-4.275-1.125Q26.1 27.15 24 27.15q-2.1 0-4.275.325-2.175.325-4.275 1.125v6.95q0 .35-.15.65-.15.3-.45.55L9.15 41q-.6.45-1.225.4-.625-.05-1.125-.55l-4.7-4.7q-.45-.45-.425-1.05.025-.6.425-1.1 4.1-4.8 9.85-7.325Q17.7 24.15 24 24.15Z"/></svg>