<svg xmlns="http://www.w3.org/2000/svg" width="48" height="48" viewBox="0 96 960 960"><path d="M536 975V827l158-44-158-44V591l384 192-384 192Zm-356-39q-24 0-42-18t-18-42V700q44-5 75.5-34.5T227 593q0-43-31.5-72.5T120 486V310q0-24 18-42t42-18h177q11-40 39.5-67t68.5-27q40 0 68.5 27t39.5 67h173q24 0 42 18t18 42v349l-60-30V310H511v-48q0-20-13-33t-33-13q-20 0-33 13t-13 33v48H180v130q48 18 77.5 60t29.5 93q0 51-29.5 93T180 746v130h126q25-52 68-81.5T476 770v60q-49-5-82 26.5T356 936H180Zm283-390Z"/></svg>