<svg xmlns="http://www.w3.org/2000/svg" width="48" height="48" viewBox="0 -960 960 960"><path d="M358.5-379.5Q304-342 278-280h404q-25-63-80-100t-122-37q-67 0-121.5 37.5ZM297-489l50-45 45 45 31-36-45-45 45-45-31-36-45 45-50-45-31 36 45 45-45 45 31 36Zm272 0 44-45 51 45 31-36-45-45 45-45-31-36-51 45-44-45-31 36 44 45-44 45 31 36ZM324-111.5Q251-143 197-197t-85.5-127Q80-397 80-480t31.5-156Q143-709 197-763t127-85.5Q397-880 480-880t156 31.5Q709-817 763-763t85.5 127Q880-563 880-480t-31.5 156Q817-251 763-197t-127 85.5Q563-80 480-80t-156-31.5Z"/></svg>