<svg xmlns="http://www.w3.org/2000/svg" width="48" height="48" viewBox="0 -960 960 960"><path d="M280-140h191-291 100ZM180-80q-26 0-43-17t-17-43v-680q0-26 17.625-43T180-880h400q24.75 0 42.375 17.625T640-820v294q-14 2-29.667 6-15.666 4-31.333 10v-310H180v296q22-17 47.5-26.5T280-560h299v50q-7 3-12.5 5t-12.5 5H280q-42 0-71 29t-29 71v260h291q14 19 28 34t31 26H180Zm199.911-530Q351-610 330.5-630.589q-20.5-20.588-20.5-49.5Q310-709 330.589-729.5q20.588-20.5 49.5-20.5Q409-750 429.5-729.411q20.5 20.588 20.5 49.5Q450-651 429.411-630.5q-20.588 20.5-49.5 20.5ZM350-210h60v-220h-60v80h-80v60h80v80ZM679.894-90Q601-90 545.5-145.606t-55.5-134.5Q490-359 545.606-414.5t134.5-55.5Q759-470 814.5-414.394t55.5 134.5Q870-201 814.394-145.5T679.894-90ZM747-185l28-28-75-75v-112h-40v128l87 87Z"/></svg>