<svg xmlns="http://www.w3.org/2000/svg" width="48" height="48"><path d="M13.65 27.85q-.85 0-1.425-.575-.575-.575-.575-1.425 0-.85.575-1.425.575-.575 1.425-.575.85 0 1.425.575.575.575.575 1.425 0 .85-.575 1.425-.575.575-1.425.575zM40.95 36l-3-3H41V7H11.9l-3-3H41q1.15 0 2.075.925Q44 5.85 44 7v26q0 1.15-.875 2.075Q42.25 36 40.95 36zm-20.7-20.65-1.2-1.2v-1.8H36.3v3zm6 6-3-3H36.3v3zM43 46.6 32.4 36H12l-8 8V7.55L2.8 6.4l2.05-2.2 40.3 40.3zM7 10.55v26.2L10.75 33H29.4zM24.95 20zm-6.75 1.75zm-4.55.1q-.85 0-1.425-.575-.575-.575-.575-1.425 0-.85.575-1.425.575-.575 1.425-.575.85 0 1.425.575.575.575.575 1.425 0 .85-.575 1.425-.575.575-1.425.575z"/></svg>