<svg xmlns="http://www.w3.org/2000/svg" width="48" height="48" viewBox="0 -960 960 960"><path d="M44-80 1-123l148-150-45-126q-8-22-4-42t20-36l136-137q10-10 23-16t26-6q13 0 26 6t23 16l84 79q43 39 74 51.5t76 12.5v60q-50 0-97.5-16.5T402-485l-37-37-114 114 94 92v236h-60v-209l-76-72v114L44-80Zm567 0v-272l90-85-33-179q-40 54-74 79t-71 35q-16-8-33.5-19.5T462-545q45-8 85-31.5t75-80.5l41-67q17-28 42-35.5t52 4.5l202 88v172h-60v-132l-98-44L914-80h-62l-80-320-101 101v219h-60ZM396.5-645.5Q375-667 375-697t21.5-51.5Q418-770 448-770t51.5 21.5Q521-727 521-697t-21.5 51.5Q478-624 448-624t-51.5-21.5Zm210-170Q585-837 585-867t21.5-51.5Q628-940 658-940t51.5 21.5Q731-897 731-867t-21.5 51.5Q688-794 658-794t-51.5-21.5Z"/></svg>