<svg xmlns="http://www.w3.org/2000/svg" width="48" height="48" viewBox="0 0 48 48"><path d="M10.8 19.5H4.3q.2-.85.525-1.6.325-.75.875-1.45l7.7-10.3q.85-1.15 2.275-1.525Q17.1 4.25 18.4 4.95l1.4.7q1.05.55 1.625 1.5T22 9.25v4.2l3.7-.95q1.5-.4 2.9.375t1.9 2.225l3.25 9.8 8.5 8.5q1 1 1.375 2.15T44 38q0 2-1.15 3.525T39.9 43.65L17.35 22.1Q16 20.85 14.3 20.175q-1.7-.675-3.5-.675ZM28.3 44q-1.5 0-2.85-.55t-2.5-1.55L6.7 27.15Q5.65 26.2 5.05 25q-.6-1.2-.85-2.5h6.6q1.25 0 2.425.475Q14.4 23.45 15.3 24.3L35.85 44Z"/></svg>