<svg xmlns="http://www.w3.org/2000/svg" width="48" height="48" viewBox="0 -960 960 960"><path d="M210-80v-60h180v60H210Zm360 0v-60h180v60H570ZM216-200q-32 0-53-25t-16-57l91-540q5-25 24-41.5t45-16.5h346q26 0 45 16t24 42l92 540q5 32-16 57t-53 25H216Zm-13-60h553l-95-560H298l-95 560Zm277-60q65 0 110-45.24T635-474q0-65-45-110.5T480.5-630q-64.5 0-110 45.5t-45.5 110q0 64.5 45.53 109.5T480-320Zm.13-60Q441-380 413-407.61q-28-27.62-28-66.39 0-39.6 27.87-67.8 27.86-28.2 67-28.2Q519-570 547-541.92q28 28.07 28 67.5 0 39.42-27.87 66.92-27.86 27.5-67 27.5Zm.37-310q12.5 0 21-8.63 8.5-8.62 8.5-21.37 0-12-8.62-21-8.63-9-21.38-9-12 0-21 9t-9 21.5q0 12.5 9 21t21.5 8.5Zm-.5 215Z"/></svg>