<svg xmlns="http://www.w3.org/2000/svg" width="48" height="48" viewBox="0 96 960 960"><path d="M80 976V442q0-82 42.5-144T241 206q56-21 119-25.5t120-4.5q57 0 120.5 4.5T720 206q76 30 118 92t42 144v534H80Zm267-60h266l-81-81H428l-81 81Zm-62-288h390V453H285v175Zm335 127q16.575 0 27.787-11.213Q659 732.575 659 716t-11.213-27.787Q636.575 677 620 677t-27.787 11.213Q581 699.425 581 716t11.213 27.787Q603.425 755 620 755Zm-280 0q16.575 0 27.788-11.213Q379 732.575 379 716t-11.212-27.787Q356.575 677 340 677q-16.575 0-27.788 11.213Q301 699.425 301 716t11.212 27.787Q323.425 755 340 755ZM140 916h159v-20l61-61q-38 0-79-29.5T240 716V453q0-72 67-94.5T480 336q90 0 165 22.5t75 94.5v263q0 56-36.5 87.5T600 835l61 61v20h159V442q0-66-31.5-109.5t-93.937-69.375Q648 244 591.172 240t-111-4Q426 236 369.5 240t-103.063 23.125Q204 289 172 332.5T140 442v474Zm0 0h680-680Z"/></svg>