<svg xmlns="http://www.w3.org/2000/svg" width="48" height="48" viewBox="0 -960 960 960"><path d="M324-111.5Q251-143 197-197t-85.5-127Q80-397 80-480t31.5-156Q143-709 197-763t127-85.5Q397-880 480-880t156 31.5Q709-817 763-763t85.5 127Q880-563 880-480t-31.5 156Q817-251 763-197t-127 85.5Q563-80 480-80t-156-31.5Zm35-48.5 63-150q-38-13-67.5-41.5T310-421l-150 60q31 71 82 123t117 78Zm-50-378q16-41 45-70t67-42l-60-150q-75 31-127 83.5T160-598l149 60Zm256 143q35-35 35-85t-35-85q-35-35-85-35t-85 35q-35 35-35 85t35 85q35 35 85 35t85-35Zm36 235q69-28 120-79.5T800-359l-150-62q-15 42-44.5 70.5T538-310l63 150Zm49-379 150-62q-28-68-79.5-119.5T601-800l-61 150q38 13 66 41.5t44 69.5Z"/></svg>