<svg xmlns="http://www.w3.org/2000/svg" width="48" height="48" viewBox="0 96 960 960"><path d="M80 1016v-60h40q32 0 61.5-10.5T240 907q29 28 58.5 38.5T360 956q31 0 62-11t58-38q29 28 58.5 38.5T600 956q31 0 62-11t58-38q27 27 58 38t62 11h40v60h-40q-29 0-59.5-8.5T720 976q-30 23-60.5 31.5T600 1016q-29 0-59.5-8.5T480 976q-30 23-60.5 31.5T360 1016q-29 0-59.5-8.5T240 976q-30 23-60.5 31.5T120 1016H80Zm262-756 218 40q11 2 22.5 9.5T602 331l35 62q26 46 71.5 75T810 499v60q-72-3-132.5-42.5T580 414q-4 3-18 12.5t-31.5 21Q513 459 496 470.5T470 488q11 8 33.5 25.5t47 37q24.5 19.5 47 37.5l32.5 26v161q17 12 32 23.5t31 24.5q-20 16-43.5 26.5T600 860q-34 0-65-18t-55-47q-24 29-55 47t-65 18h-4.5q-2.5 0-4.5-1-103-72-162-131.5T130 627q0-25 21-33t43-8q29 0 69.5 10t91.5 28l-22-137q-4-23 2-42t23-30l106-71q-7-1-22-4t-32-6q-17-3-32-6.5t-22-4.5l-108 74-34-49 128-88Zm62 279 17 114q38 18 75.5 38.5T570 734v-80q-7-5-30-21t-50-35q-27-19-52-36t-34-23Zm276-237q-30 0-51.5-21.5T607 229q0-30 21.5-51.5T680 156q30 0 51.5 21.5T753 229q0 30-21.5 51.5T680 302Z"/></svg>