<svg xmlns="http://www.w3.org/2000/svg" width="48" height="48" viewBox="0 96 960 960"><path d="M480 326v-79.577Q480 213 503.5 189.5t56.923-23.5H640v79.577Q640 279 616.5 302.5T559.577 326H480ZM200 566q-49.714 0-84.857-35.143T80 446V326h120q49.714 0 84.857 35.143T320 446v120H200Zm440 400q-41.525 0-79.324-13.6Q522.878 938.8 492 915l-31 31q-8.067 9-20.533 9Q428 955 420 946q-9-8.067-9-20.533Q411 913 420 905l31-31q-23.8-30.878-37.4-68.676Q400 767.525 400 726q0-100 70-170.5T640 486h239v240q2 100-68.5 170T640 966Zm0-60q75 0 127-53t52-128V546H641q-75 0-128 52.547Q460 651.093 460 726q0 29.469 9 55.734Q478 808 494 831l126-126q8.067-9 20.533-9Q653 696 661 705q9 8.067 9 20.533Q670 738 661 746L535 872q23 16 49.266 25 26.265 9 55.734 9Zm0-180Z"/></svg>