<svg xmlns="http://www.w3.org/2000/svg" width="48" height="48" viewBox="0 96 960 960"><path d="M523 476v-60h230v60H523Zm0-120v-60h320v60H523ZM296 935q-75.53 0-128.765-53.235Q114 828.53 114 753q0-48 24-90.5t66-68.5V308q0-38.333 26.765-65.167 26.764-26.833 65-26.833Q334 216 361 242.833q27 26.834 27 65.167v286q42 26 66 68.5t24 90.5q0 75.53-53.235 128.765Q371.53 935 296 935ZM174 753h244q0-40-19-71.5T348 636l-20-9V308q0-13.6-9.2-22.8-9.2-9.2-22.8-9.2-13.6 0-22.8 9.2-9.2 9.2-9.2 22.8v319l-20 9q-32 14-51 46t-19 71Z"/></svg>