<svg xmlns="http://www.w3.org/2000/svg" width="48" height="48" viewBox="0 -960 960 960"><path d="M480-480q-17 0-28.5-11.5T440-520q0-17 11.5-28.5T480-560q17 0 28.5 11.5T520-520q0 17-11.5 28.5T480-480Zm0-240q-17 0-28.5-11.5T440-760q0-17 11.5-28.5T480-800q17 0 28.5 11.5T520-760q0 17-11.5 28.5T480-720Zm80 120q-17 0-28.5-11.5T520-640q0-17 11.5-28.5T560-680q17 0 28.5 11.5T600-640q0 17-11.5 28.5T560-600Zm40 120q-17 0-28.5-11.5T560-520q0-17 11.5-28.5T600-560q17 0 28.5 11.5T640-520q0 17-11.5 28.5T600-480Zm0-240q-17 0-28.5-11.5T560-760q0-17 11.5-28.5T600-800q17 0 28.5 11.5T640-760q0 17-11.5 28.5T600-720Zm80 120q-17 0-28.5-11.5T640-640q0-17 11.5-28.5T680-680q17 0 28.5 11.5T720-640q0 17-11.5 28.5T680-600Zm40 120q-17 0-28.5-11.5T680-520q0-17 11.5-28.5T720-560q17 0 28.5 11.5T760-520q0 17-11.5 28.5T720-480Zm0-240q-17 0-28.5-11.5T680-760q0-17 11.5-28.5T720-800q17 0 28.5 11.5T760-760q0 17-11.5 28.5T720-720Zm80 120q-17 0-28.5-11.5T760-640q0-17 11.5-28.5T800-680q17 0 28.5 11.5T840-640q0 17-11.5 28.5T800-600Zm40 120q-17 0-28.5-11.5T800-520q0-17 11.5-28.5T840-560q17 0 28.5 11.5T880-520q0 17-11.5 28.5T840-480Zm0-240q-17 0-28.5-11.5T800-760q0-17 11.5-28.5T840-800q17 0 28.5 11.5T880-760q0 17-11.5 28.5T840-720Zm-45 600q-122 0-242.5-60T336-336q-96-96-156-216.5T120-795q0-19 13-32t32-13h140q14 0 24.5 9.5T343-805l27 126q2 14-.5 25.5T359-634L259-533q56 93 125.5 162T542-254l95-98q10-11 23-15.5t26-1.5l119 26q15 3 25 15t10 28v135q0 19-13 32t-32 13Z"/></svg>