<svg xmlns="http://www.w3.org/2000/svg" width="48" height="48" viewBox="0 -960 960 960"><path d="M448.5-471.5Q460-483 460-500t-11.5-28.5Q437-540 420-540t-28.5 11.5Q380-517 380-500t11.5 28.5Q403-460 420-460t28.5-11.5Zm120 0Q580-483 580-500t-11.5-28.5Q557-540 540-540t-28.5 11.5Q500-517 500-500t11.5 28.5Q523-460 540-460t28.5-11.5Zm-240 0Q340-483 340-500t-11.5-28.5Q317-540 300-540t-28.5 11.5Q260-517 260-500t11.5 28.5Q283-460 300-460t28.5-11.5Zm360 0Q700-483 700-500t-11.5-28.5Q677-540 660-540t-28.5 11.5Q620-517 620-500t11.5 28.5Q643-460 660-460t28.5-11.5ZM170-120v-80h-30q-25 0-42.5-17.5T80-260v-480q0-25 17.5-42.5T140-800h680q25 0 42.5 17.5T880-740v480q0 25-17.5 42.5T820-200h-30v80h-23l-26-80H220l-27 80h-23Z"/></svg>