<svg xmlns="http://www.w3.org/2000/svg" width="48" height="48" viewBox="0 96 960 960"><path d="M813 995 542 724h-32v111q19.95 10 30.975 28.5Q552 882 552 904q0 29.7-21.212 50.85-21.213 21.15-51 21.15Q450 976 429 954.85 408 933.7 408 904q0-21.737 11-40.368Q430 845 450 835V724H302q-24.75 0-42.375-17.625T242 664V555q-20-9-31-27t-11-40q0-21 10.5-39t29.5-27L61 243l43-43 752 752-43 43ZM698 708l-40-40V560h-42V416h144v144h-42v104q0 13-5.5 24.5T698 708Zm-396-44h148v-32L338 520q-5 12-14.5 21T302 555v109Zm208-144-60-60V324h-80l110-149 110 149h-80v196Z"/></svg>