<svg xmlns="http://www.w3.org/2000/svg" width="48" height="48"><path d="M7 36q-1.2 0-2.1-.9Q4 34.2 4 33V15q0-1.2.9-2.1.9-.9 2.1-.9h34q1.2 0 2.1.9.9.9.9 2.1v18q0 1.2-.9 2.1-.9.9-2.1.9zm0-3h34V15H7v18zm7.5-2.3h3v-5.2h5.2v-3h-5.2v-5.2h-3v5.2H9.3v3h5.2zm15.15-.9q.9 0 1.575-.675.675-.675.675-1.575 0-.9-.675-1.575-.675-.675-1.575-.675-.9 0-1.575.675-.675.675-.675 1.575 0 .9.675 1.575.675.675 1.575.675zm4.5-7.15q.9 0 1.575-.675.675-.675.675-1.575 0-.9-.675-1.575-.675-.675-1.575-.675-.9 0-1.575.675-.675.675-.675 1.575 0 .9.675 1.575.675.675 1.575.675zM7 33V15v18z"/></svg>