<svg xmlns="http://www.w3.org/2000/svg" width="48" height="48" viewBox="0 -960 960 960"><path d="M212-80v-300h-50v-228q0-29 21.5-50.5t50.24-21.5h104.52q28.74 0 50.24 21.5Q410-637 410-608v228h-50v300H212Zm22.5-675.42q-21.5-21.42-21.5-51.5t21.42-51.58q21.42-21.5 51.5-21.5t51.58 21.42q21.5 21.42 21.5 51.5t-21.42 51.58q-21.42 21.5-51.5 21.5t-51.58-21.42ZM630-80v-240H526l86-311q7.22-23.59 26.61-36.3Q658-680 684-680t45.39 12.7Q748.78-654.59 756-631l86 311H738v240H630Zm2.5-675.42q-21.5-21.42-21.5-51.5t21.42-51.58q21.42-21.5 51.5-21.5t51.58 21.42q21.5 21.42 21.5 51.5t-21.42 51.58q-21.42 21.5-51.5 21.5t-51.58-21.42Z"/></svg>