<svg xmlns="http://www.w3.org/2000/svg" width="48" height="48" viewBox="0 96 960 960"><path d="M361.116 546Q372 546 379 538.917q7-7.084 7-17.917V346.455Q386 329 374.5 317.5T346 306h-49q-9.931 0-16.966 7.116-7.034 7.117-7.034 18Q273 342 280.083 349q7.084 7 17.917 7h38v166q0 9.931 7.116 16.966 7.117 7.034 18 7.034Zm240 0Q612 546 619 538.917q7-7.084 7-17.917v-38h23q9.931 0 16.966-7.116 7.034-7.117 7.034-18Q673 447 665.917 440q-7.084-7-17.917-7h-22V330q0-9.931-7.116-16.966-7.117-7.034-18-7.034Q590 306 583 313.083q-7 7.084-7 17.917v102h-56V330q0-9.931-7.116-16.966-7.117-7.034-18-7.034Q484 306 477 313.083q-7 7.084-7 17.917v111.732Q470 460 481.5 471.5T510 483h66v39q0 9.931 7.116 16.966 7.117 7.034 18 7.034ZM180 936q-24 0-42-18t-18-42V276q0-23 18-41.5t42-18.5h600q23 0 41.5 18.5T840 276v600q0 24-18.5 42T780 936H180Zm78.116-90Q269 846 276 838.917q7-7.084 7-17.917V656h53v103q0 9.931 7.116 16.966 7.117 7.034 18 7.034Q372 783 379 775.917q7-7.084 7-17.917V656h60v166q0 9.931 7.116 16.966 7.117 7.034 18 7.034Q482 846 489 838.917q7-7.084 7-17.917V646q0-14-13-27t-27-13H273q-14 0-27 13t-13 27v176q0 9.931 7.116 16.966 7.117 7.034 18 7.034Zm323 0Q592 846 599 838.917q7-7.084 7-17.917v-38h80q14 0 27-13t13-27v-97q0-14-13-27t-27-13h-90q-17 0-28.5 11.5T556 646v176q0 9.931 7.116 16.966 7.117 7.034 18 7.034ZM606 656h70v77h-70v-77Z"/></svg>