<svg xmlns="http://www.w3.org/2000/svg" width="48" height="48" viewBox="0 -960 960 960"><path d="M283-400h53v102q0 11 7 18t18 7q11 0 18-7t7-18v-102h60v165q0 11 7 18t18 7q11 0 18-7t7-18v-175q0-14-13-27t-27-13H273q-14 0-27 13t-13 27v175q0 11 7 18t18 7q11 0 18-7t7-18v-165Zm162-160v-53h80q14 0 27-13t13-27v-57q0-14-13-27t-27-13H420q-11 0-18 7t-7 18q0 11 7 18t18 7h95v54h-80q-14 0-27 13t-13 27v71q0 11 7 18t18 7h120q11 0 18-7t7-18q0-11-7-18t-18-7h-95Zm161 287h80q14 0 27-13t13-27v-97q0-14-13-27t-27-13H581q-11 0-18 7t-7 18v190q0 11 7 18t18 7q11 0 18-7t7-18v-38Zm0-50v-77h70v77h-70ZM180-120q-24 0-42-18t-18-42v-600q0-24 18-42t42-18h600q24 0 42 18t18 42v600q0 24-18 42t-42 18H180Z"/></svg>