<svg xmlns="http://www.w3.org/2000/svg" width="48" height="48" viewBox="0 96 960 960"><path d="M450 176h30q158 0 273 107.5T879 546q1 12-7.625 21T850 576q-12 0-21-8.5T819 546q-11-118-92-204.5T525 239l40 40q8 7.822 8 19.911Q573 311 565.143 319q-7.857 8-20 8T525 319l-92-92q-18-18-12.5-34t29.5-17Zm60 799q-8 0-15 .5t-15 .5q-158 0-273-107.5T81 606q-1-12 7.625-21T110 576q12 0 21 8.5t10 21.5q11 117 93 203.5T436 913l-41-41q-8-7.822-8-19.911Q387 840 394.857 832q7.857-8 20-8T435 832l92 92q18 18 12.5 33.5T510 975Zm-1-271V447h126q18.7 0 31.35 12.65Q679 472.3 679 491v169q0 18.7-12.65 31.35Q653.7 704 635 704H509Zm49-49h71V497h-71v158Zm-252 49q-10.4 0-17.2-7.083Q282 689.833 282 679q0-10.4 7.083-17.2Q296.167 655 307 655h95v-60h-58q-7.6 0-13.3-6-5.7-6-5.7-14t6-13.5q6-5.5 14-5.5h57v-59h-95q-10.833 0-17.917-7.116-7.083-7.117-7.083-18Q282 461 289.083 454q7.084-7 17.917-7h100.935Q427 447 439.5 459.65T452 491v169q0 18.7-12.65 31.35Q426.7 704 408 704H306Z"/></svg>