<svg xmlns="http://www.w3.org/2000/svg" width="48" height="48" viewBox="0 96 960 960"><path d="M693 656q8 0 13.902-6 5.901-6 5.901-14v-40h40.328Q761 596 767 590t6-14q0-8-6-13.902-6-5.901-14-5.901h-40v-40.328Q713 508 707 502t-14-6q-8 0-14 6t-6 14v40h-40q-8 0-14 6t-6 14q0 8 6.102 13.902 6.101 5.901 14.237 5.901H673v40.328Q673 644 679 650t14 6Zm-197.884 40Q506 696 513 688.917q7-7.084 7-17.917v-65l77 83q4 4 7.972 5.5 3.972 1.5 9.028 1.5 16.206 0 22.603-14.5Q643 667 632 655l-74-79 73-80q11-12.174 5-26.087T614 456q-5.25 0-9.75 2t-8.25 6l-76 82v-66q0-9.931-7.116-16.966-7.117-7.034-18-7.034Q484 456 477 463.083q-7 7.084-7 17.917v191q0 9.931 7.116 16.966 7.117 7.034 18 7.034Zm-127 0Q379 696 386 688.917q7-7.084 7-17.917v-38h16q9.931 0 16.966-7.116 7.034-7.117 7.034-18Q433 597 425.917 590q-7.084-7-17.917-7h-15V480q0-9.931-7.116-16.966-7.117-7.034-18-7.034Q357 456 350 463.083q-7 7.084-7 17.917v102h-63V480q0-9.931-7.116-16.966-7.117-7.034-18-7.034Q244 456 237 463.083q-7 7.084-7 17.917v119q0 14.025 9.488 23.513Q248.975 633 263 633h80v39q0 9.931 7.116 16.966 7.117 7.034 18 7.034ZM180 936q-24 0-42-18t-18-42V276q0-23 18-41.5t42-18.5h600q23 0 41.5 18.5T840 276v600q0 24-18.5 42T780 936H180Z"/></svg>