<svg xmlns="http://www.w3.org/2000/svg" width="48" height="48" viewBox="0 96 960 960"><path d="M700 656q8 0 13.902-6 5.901-6 5.901-14v-40h40.328Q768 596 774 590t6-14q0-8-6-13.902-6-5.901-14-5.901h-40v-40.328Q720 508 714 502t-14-6q-8 0-14 6t-6 14v40h-40q-8 0-14 6t-6 14q0 8 6.102 13.902 6.101 5.901 14.237 5.901H680v40.328Q680 644 686 650t14 6Zm-208.884 40Q502 696 509 688.917q7-7.084 7-17.917v-65l77 83q4 4 7.972 5.5 3.972 1.5 9.028 1.5 16.206 0 22.603-14.5Q639 667 628 655l-74-79 73-80q11-12.174 5-26.087T610 456q-5.25 0-9.75 2t-8.25 6l-76 82v-66q0-9.931-7.116-16.966-7.117-7.034-18-7.034Q480 456 473 463.083q-7 7.084-7 17.917v191q0 9.931 7.116 16.966 7.117 7.034 18 7.034ZM258 696h112q14.025 0 23.513-9.487Q403 677.025 403 663V490q0-14.45-9.487-24.225Q384.025 456 370 456H266q-14.025 0-23.512 9.775Q233 475.55 233 490v70q0 14.025 9.488 23.513Q251.975 593 266 593h87v53h-96q-9.931 0-16.966 7.116-7.034 7.117-7.034 18Q233 682 240.083 689q7.084 7 17.917 7Zm25-136v-70h70v70h-70ZM180 936q-24 0-42-18t-18-42V276q0-23 18-41.5t42-18.5h600q23 0 41.5 18.5T840 276v600q0 24-18.5 42T780 936H180Z"/></svg>