<svg xmlns="http://www.w3.org/2000/svg" width="48" height="48" viewBox="0 -960 960 960"><path d="M353-410h-95q-11 0-18 7t-7 18q0 11 7 18t18 7h112q14 0 23.5-9.5T403-393v-173q0-14-9.5-24T370-600H266q-14 0-23.5 10t-9.5 24v70q0 14 9.5 23.5T266-463h87v53Zm-70-86v-70h70v70h-70Zm233 46 77 82q2 2 17 8 16 0 22.5-15t-4.5-26l-74-79 74-80q11-11 4.5-25.5T610-600q-5 0-9 2t-8 6l-77 82v-65q0-11-7-18t-18-7q-11 0-18 7t-7 18v190q0 11 7 18t18 7q11 0 18-7t7-18v-65Zm160-13v43q0 8 6 14t14 6q8 0 14-6t6-14v-43h48q7 0 11.5-5t4.5-12q0-7-4.5-11.5T764-496h-48v-44q0-8-6-14t-14-6q-8 0-14 6t-6 14v44h-47q-7 0-11.5 4.5T613-480q0 7 5 12t12 5h46ZM180-120q-24 0-42-18t-18-42v-600q0-24 18-42t42-18h600q24 0 42 18t18 42v600q0 24-18 42t-42 18H180Z"/></svg>