<svg xmlns="http://www.w3.org/2000/svg" width="48" height="48" viewBox="0 -960 960 960"><path d="M712.08-716q-30.08 0-51.58-21.42-21.5-21.421-21.5-51.5 0-30.08 21.42-51.58 21.421-21.5 51.5-21.5 30.08 0 51.58 21.42 21.5 21.421 21.5 51.5 0 30.08-21.42 51.58-21.421 21.5-51.5 21.5ZM393.187-82Q314-82 257-139q-57-57-57-136t57-136q57-57 136-57v60q-54 0-93.5 39.5T260-275q0 54 39.5 93.5T393-142q54 0 92.5-37.5T524-286h60q0 93-55.813 148.5-55.812 55.5-135 55.5Zm363.638-30Q744-112 735.5-120.625T727-142v-174H510q-49 0-73.5-38t-4.5-81l86-189h-94l-16 44q-4.516 12-16.258 18Q380-556 367-561q-12.343-3.649-18.171-15.324Q343-588 348-600l17-46q7-17 19.5-27.5t34.638-10.5H611q40 0 62.5 32t6.5 66l-90 191h122q33 0 54 21t21 53.69V-142q0 12.75-8.675 21.375-8.676 8.625-21.5 8.625Z"/></svg>