<svg xmlns="http://www.w3.org/2000/svg" width="48" height="48" viewBox="0 -960 960 960"><path d="M678.825-526Q666-526 657.5-534.625T649-556v-98h-98q-12.75 0-21.375-8.675-8.625-8.676-8.625-21.5 0-12.825 8.625-21.325T551-714h98v-98q0-12.75 8.675-21.375 8.676-8.625 21.5-8.625 12.825 0 21.325 8.625T709-812v98h98q12.75 0 21.375 8.675 8.625 8.676 8.625 21.5 0 12.825-8.625 21.325T807-654h-98v98q0 12.75-8.675 21.375-8.676 8.625-21.5 8.625ZM795-120q-122 0-242.5-60T336-336q-96-96-156-216.5T120-795q0-19.286 12.857-32.143T165-840h140q13.611 0 24.306 9.5Q340-821 343-805l27 126q2 14-.5 25.5T359-634L259-533q56 93 125.5 162T542-254l95-98q10-11 23-15.5t26-1.5l119 26q15.312 3.375 25.156 15.188Q840-316 840-300v135q0 19.286-12.857 32.143T795-120ZM229-588l81-82-23-110H180q0 39 12 85.5T229-588Zm551 408v-107l-103-21-79 83q41 19 89 31t93 14Zm-182-45ZM229-588Z"/></svg>