<svg xmlns="http://www.w3.org/2000/svg" width="48" height="48" viewBox="0 96 960 960"><path d="M94 982q-24 0-42-18t-18-42V409q0-23 18-41.5T94 349h147l55-66q8-11 20-16t26-5h222q12.75 0 21.375 8.625T594 292v87q0 12.75 8.625 21.375T624 409h90v90q0 12.75 8.625 21.375T744 529h60q12.75 0 21.375 8.625T834 559v363q0 24-18.5 42T774 982H94Zm339.5-146q72.5 0 121.5-49t49-121.5q0-72.5-49-121T433.5 496q-72.5 0-121 48.5t-48.5 121q0 72.5 48.5 121.5t121 49ZM774 349h-56q-12 0-21-8.675-9-8.676-9-21.5 0-12.825 8.625-21.325T718 289h56v-57q0-12.75 8.675-21.375 8.676-8.625 21.5-8.625 12.825 0 21.325 8.625T834 232v57h57q12.75 0 21.375 8.675 8.625 8.676 8.625 21.5 0 12.825-8.625 21.325T891 349h-57v56q0 12-8.675 21-8.676 9-21.5 9-12.825 0-21.325-8.625T774 405v-56Z"/></svg>