<svg xmlns="http://www.w3.org/2000/svg" width="48" height="48" viewBox="0 -960 960 960"><path d="M721-167h-90q-12.75 0-21.375-8.675-8.625-8.676-8.625-21.5 0-12.825 8.625-21.325T631-227h90v-90q0-12.75 8.675-21.375 8.676-8.625 21.5-8.625 12.825 0 21.325 8.625T781-317v90h90q12.75 0 21.375 8.675 8.625 8.676 8.625 21.5 0 12.825-8.625 21.325T871-167h-90v91q0 12.75-8.675 21.375Q763.649-46 750.825-46 738-46 729.5-54.625T721-76v-91Zm-581 0q-12.75 0-21.375-8.625T110-197v-215H84q-14.14 0-23.07-11T55-448l44-202q2-11 10.25-17.5T128-674h542q10.5 0 18.75 6T699-651l45 202q3 14-5.93 25.5T715-412h-24v125q0 12.75-8.675 21.375-8.676 8.625-21.5 8.625-12.825 0-21.325-8.625T631-287v-125H426v215q0 12.75-8.625 21.375T396-167H140Zm30-60h196v-185H170v185Zm-36-507q-12.75 0-21.375-8.675-8.625-8.676-8.625-21.5 0-12.825 8.625-21.325T134-794h532q12.75 0 21.375 8.675 8.625 8.676 8.625 21.5 0 12.825-8.625 21.325T666-734H134Z"/></svg>