<svg xmlns="http://www.w3.org/2000/svg" width="48" height="48" viewBox="0 -960 960 960"><path d="M280-280q-85 0-142.5-57.5T80-480q0-85 57.5-142.5T280-680h140q12.75 0 21.375 8.675 8.625 8.676 8.625 21.5 0 12.825-8.625 21.325T420-620H280q-60 0-100 40t-40 100q0 60 40 100t100 40h140q12.75 0 21.375 8.675 8.625 8.676 8.625 21.5 0 12.825-8.625 21.325T420-280H280Zm74-170q-12.75 0-21.375-8.675-8.625-8.676-8.625-21.5 0-12.825 8.625-21.325T354-510h250q12.75 0 21.375 8.675 8.625 8.676 8.625 21.5 0 12.825-8.625 21.325T604-450H354Zm526-30h-60q0-60-40-100t-100-40H540q-12.75 0-21.375-8.675-8.625-8.676-8.625-21.5 0-12.825 8.625-21.325T540-680h140q85 0 142.5 57.5T880-480ZM728.825-160Q716-160 707.5-168.625T699-190v-90h-90q-12.75 0-21.375-8.675-8.625-8.676-8.625-21.5 0-12.825 8.625-21.325T609-340h90v-90q0-12.75 8.675-21.375 8.676-8.625 21.5-8.625 12.825 0 21.325 8.625T759-430v90h90q12.75 0 21.375 8.675 8.625 8.676 8.625 21.5 0 12.825-8.625 21.325T849-280h-90v90q0 12.75-8.675 21.375-8.676 8.625-21.5 8.625Z"/></svg>