<svg xmlns="http://www.w3.org/2000/svg" width="48" height="48" viewBox="0 96 960 960"><path d="M678.825 530Q666 530 657.5 521.375T649 500v-98h-98q-12.75 0-21.375-8.675-8.625-8.676-8.625-21.5 0-12.825 8.625-21.325T551 342h98v-98q0-12.75 8.675-21.375 8.676-8.625 21.5-8.625 12.825 0 21.325 8.625T709 244v98h98q12.75 0 21.375 8.675 8.625 8.676 8.625 21.5 0 12.825-8.625 21.325T807 402h-98v98q0 12.75-8.675 21.375-8.676 8.625-21.5 8.625ZM795 936q-122 0-242.5-60T336 720q-96-96-156-216.5T120 261q0-19.286 12.857-32.143T165 216h140q13.611 0 24.306 9.5Q340 235 343 251l27 126q2 14-.5 25.5T359 422L259 523q56 93 125.5 162T542 802l95-98q10-11 23-15.5t26-1.5l119 26q15.312 3.375 25.156 15.188Q840 740 840 756v135q0 19.286-12.857 32.143T795 936ZM229 468l81-82-23-110H180q0 39 12 85.5T229 468Zm551 408V769l-103-21-79 83q41 19 89 31t93 14Zm-182-45ZM229 468Z"/></svg>