<svg xmlns="http://www.w3.org/2000/svg" width="48" height="48" viewBox="0 -960 960 960"><path d="M450-530v90q0 12.75 8.675 21.375 8.676 8.625 21.5 8.625 12.825 0 21.325-8.625T510-440v-90h90q12.75 0 21.375-8.675 8.625-8.676 8.625-21.5 0-12.825-8.625-21.325T600-590h-90v-90q0-12.75-8.675-21.375-8.676-8.625-21.5-8.625-12.825 0-21.325 8.625T450-680v90h-90q-12.75 0-21.375 8.675-8.625 8.676-8.625 21.5 0 12.825 8.625 21.325T360-530h90Zm29.75 430q-10.75 0-21.25-3.5T440-115q-42-38-91-87.5T258-309q-42-57-70-119t-28-124q0-150 96.5-239T480-880q127 0 223.5 89T800-552q0 62-28 124t-70 119q-42 57-91 106.5T520-115q-8 8-18.75 11.5t-21.5 3.5Z"/></svg>