<svg xmlns="http://www.w3.org/2000/svg" width="48" height="48" viewBox="0 -960 960 960"><path d="M190-200q-12.75 0-21.375-8.675-8.625-8.676-8.625-21.5 0-12.825 8.625-21.325T190-260h50v-304q0-84 49.5-150.5T420-798v-22q0-25 17.5-42.5T480-880q25 0 42.5 17.5T540-820v22q81 17 130.5 83.5T720-564v304h50q12.75 0 21.375 8.675 8.625 8.676 8.625 21.5 0 12.825-8.625 21.325T770-200H190ZM480-80q-33 0-56.5-23.5T400-160h160q0 33-23.5 56.5T480-80Zm-30-372v54q0 12.75 8.675 21.375 8.676 8.625 21.5 8.625 12.825 0 21.325-8.625T510-398v-54h54q12.75 0 21.375-8.675 8.625-8.676 8.625-21.5 0-12.825-8.625-21.325T564-512h-54v-54q0-12.75-8.675-21.375-8.676-8.625-21.5-8.625-12.825 0-21.325 8.625T450-566v54h-54q-12.75 0-21.375 8.675-8.625 8.676-8.625 21.5 0 12.825 8.625 21.325T396-452h54Z"/></svg>