<svg xmlns="http://www.w3.org/2000/svg" width="48" height="48" viewBox="0 -960 960 960"><path d="M529.5-510.59q20.5-20.59 20.5-49.5t-20.59-49.41q-20.59-20.5-49.5-20.5t-49.41 20.59q-20.5 20.59-20.5 49.5t20.59 49.41q20.59 20.5 49.5 20.5t49.41-20.59Zm-71 407.09Q448-107 440-115q-42-38-91-87.5T258-309q-42-57-70-119t-28-124q0-150 96.5-239T480-880q41 0 62.5 19.5T564-803v1q0 28.87 20.56 49.44Q605.13-732 634-732h58v58q0 14 5.22 27.05Q702.43-633.9 712-624q10 10 21 14t25 6q24 2 33.5 16.5T801-550q0 30-14 69.5t-32 77q-18 37.5-35.5 67T694-296q-45 58-92 105t-82 76q-8 8-18.75 11.5t-21.5 3.5q-10.75 0-21.25-3.5ZM732-772h-98q-12.75 0-21.37-8.68-8.63-8.67-8.63-21.5 0-12.82 8.63-21.32 8.62-8.5 21.37-8.5h98v-98q0-12.75 8.68-21.38 8.67-8.62 21.5-8.62 12.82 0 21.32 8.62 8.5 8.63 8.5 21.38v98h98q12.75 0 21.38 8.68 8.62 8.67 8.62 21.5 0 12.82-8.62 21.32-8.63 8.5-21.38 8.5h-98v98q0 12.75-8.68 21.37-8.67 8.63-21.5 8.63-12.82 0-21.32-8.63-8.5-8.62-8.5-21.37v-98Z"/></svg>