<svg xmlns="http://www.w3.org/2000/svg" width="48" height="48" viewBox="0 -960 960 960"><path d="M920-860v391q-35-41-83.925-64T733-556q-24 0-47 4.5T641-538v-22q0-31-12.5-56.5T594-658L405-790v-70q0-24.615 17.625-42.308Q440.25-920 465-920h395q24.75 0 42.375 17.625T920-860ZM697-703h60v-60h-60v60Zm35.5 583Q655-120 600-175.5T545-307q0-78.435 54.99-133.717Q654.98-496 733-496q77 0 132.5 55.283Q921-385.435 921-307q0 76-55.5 131.5t-133 55.5ZM718-290v94q0 7 4.5 11.5t11.357 4.5q6.857 0 12-5.1T751-197v-93h94q7 0 11.5-4.5t4.5-11.357q0-6.857-4.5-12T845-323h-94v-94q0-7-4.5-11.5t-11.357-4.5q-6.857 0-12 4.5T718-417v94h-94q-7 0-11.5 4.5t-4.5 11.357q0 6.857 5.1 12T625-290h93ZM40-230v-329q0-14 6.5-27.5T65-608l211-151q15.75-11 34.875-11T346-759l210 151q12 8 18.5 21.5T581-559v56q-45 35-70.5 86.5T485-307q0 27.63 6.5 54.815T510-200H391v-221H230.5v221H70q-12.75 0-21.375-8.625T40-230Z"/></svg>