<svg xmlns="http://www.w3.org/2000/svg" width="48" height="48" viewBox="0 -960 960 960"><path d="M145-599q-11.475 0-19.238-9Q118-617 118-629t7.762-21q7.763-9 19.238-9h149q29 0 45 18t21 42H145Zm84.882 379Q284-220 322-257.882q38-37.883 38-92Q360-404 322.118-442q-37.883-38-92-38Q176-480 138-442.118q-38 37.883-38 92Q100-296 137.882-258q37.883 38 92 38Zm554.942 0Q816-220 838-241.824q22-21.823 22-53Q860-326 838.177-348q-21.824-22-53.001-22Q754-370 732-348.176q-22 21.823-22 53Q710-264 731.823-242q21.824 22 53.001 22Zm-554.706-60Q201-280 180.5-300.382q-20.5-20.383-20.5-49.5Q160-379 180.382-399.5q20.383-20.5 49.5-20.5Q259-420 279.5-399.618q20.5 20.383 20.5 49.5Q300-321 279.618-300.5q-20.383 20.5-49.5 20.5ZM785.05-160q-55.949 0-95.499-38Q650-236 650-292t41-97q41-41 97-41t94 39.536q38 39.535 38 95.464t-39.5 95.464Q841-160 785.05-160ZM228-160q-79 0-133.5-55.575T40-350q0-78.85 55.5-134.425Q151-540 229.894-540t134.5 55.606Q420-428.788 420-349.894T364.5-215.5Q309-160 228-160Zm220-160q1-7.5 1.5-14.625T450-350q0-42-13-78t-42-68h26q42 0 70.5-29.669T520-597v-104.358L471-749l-52 52q-3.818 4-8.909 4-5.091 0-8.783-4-4.308-4-4.808-9t3.5-9l124-124q3.818-4 8.909-4 5.091 0 9.091 3.857 4 3.857 4 9T542-821l-53 53 49 49h272q26 0 43 17t17 43v223q-18.86-11.2-39.36-17.6-20.5-6.4-42.64-6.4-59.321 0-105.161 38.5Q637-383 622-320H448Z"/></svg>