<svg xmlns="http://www.w3.org/2000/svg" width="48" height="48" viewBox="0 96 960 960"><path d="M346 936q-19.688 0-27.344-18.5Q311 899 325 885l134-134q5-5 10.133-7 5.134-2 11-2Q486 742 491 744q5 2 10 7l134 134q14 14 6.344 32.5T614 936H346Zm-206-80q-24.75 0-42.375-17.625T80 796V276q0-24.75 17.625-42.375T140 216h680q24.75 0 42.375 17.625T880 276v520q0 24.75-17.625 42.375T820 856H661q-12.75 0-21.375-8.675-8.625-8.676-8.625-21.5 0-12.825 8.625-21.325T661 796h159V276H140v520h159q12.75 0 21.375 8.675 8.625 8.676 8.625 21.5 0 12.825-8.625 21.325T299 856H140Zm340-305Z"/></svg>