<svg xmlns="http://www.w3.org/2000/svg" width="48" height="48" viewBox="0 0 48 48"><path d="M30 33.5q-.65 0-1.075-.425Q28.5 32.65 28.5 32V16q0-.65.425-1.075Q29.35 14.5 30 14.5h2q.65 0 1.075.425.425.425.425 1.075v16q0 .65-.425 1.075-.425.425-1.075.425Zm-14 0q-.65 0-1.075-.425Q14.5 32.65 14.5 32V16q0-.65.425-1.075Q15.35 14.5 16 14.5h2q.65 0 1.075.425.425.425.425 1.075v16q0 .65-.425 1.075-.425.425-1.075.425ZM42.5 44q-.65 0-1.075-.425Q41 43.15 41 42.5v-37q0-.65.425-1.075Q41.85 4 42.5 4q.65 0 1.075.425Q44 4.85 44 5.5v37q0 .65-.425 1.075Q43.15 44 42.5 44Zm-37 0q-.65 0-1.075-.425Q4 43.15 4 42.5v-37q0-.65.425-1.075Q4.85 4 5.5 4q.65 0 1.075.425Q7 4.85 7 5.5v37q0 .65-.425 1.075Q6.15 44 5.5 44Z"/></svg>