<svg xmlns="http://www.w3.org/2000/svg" width="48" height="48" viewBox="0 -960 960 960"><path d="M733-100q51 0 87-33t41-82q-4 2-8.5 3.5T843-210h-36q-16 0-27-11t-11-27v-17h-72v-38q0-16 10-26t26-10h19q0-5 .5-9t2.5-8q-5-1-10.5-1.5T733-358q-54 0-91.5 37.5T604-229h73q30 0 52.5 22t22.5 52v18h-55v31q9 3 17.5 4.5T733-100ZM504.5-807.5Q515-818 515-832t-10.5-24.5Q494-867 480-867t-24.5 10.5Q445-846 445-832t10.5 24.5Q466-797 480-797t24.5-10.5ZM733-41q-78 0-133-55.5T545-228q0-78 55-133.5T733-417q77 0 132.5 55.5T921-228q0 76-55.5 131.5T733-41Zm-553-79q-25 0-42.5-17.5T120-180v-600q0-25 17.5-42.5T180-840h205q5-35 32-57.5t63-22.5q36 0 63 22.5t32 57.5h205q25 0 42.5 17.5T840-780v291q0 14-11 21.5t-24 2.5q-17-5-35.5-8t-36.5-3q-14 0-27 1.5t-26 4.5v-10q-4-8-9-15-4-6-9.5-10.5T650-510H310q-13 0-21.5 8.5T280-480q0 13 8.5 21.5T310-450h314q-36 18-64.5 46.5T513-340H310q-13 0-21.5 8.5T280-310q0 13 8.5 21.5T310-280h181q-3 13-4.5 26t-1.5 27q0 19 3 37t8 35q4 13-3.5 24T472-120H180Zm130-500h340q13 0 21.5-8.5T680-650q0-13-8.5-21.5T650-680H310q-13 0-21.5 8.5T280-650q0 13 8.5 21.5T310-620Z"/></svg>