<svg xmlns="http://www.w3.org/2000/svg" width="48" height="48" viewBox="0 96 960 960"><path d="m434 455 43-117h6l44 117h-93Zm46 219q-97 0-163-66t-66-163q0-97 66-163t163-66q97 0 163 66t66 163q0 97-66 163t-163 66ZM379.848 562Q386 562 392 558.1q6-3.9 8-9.1l21.789-60H538l22 60q2 5.2 8 9.1 6 3.9 12.151 3.9 11.425 0 17.137-7.5T598 536l-91-234q-3.304-7.826-11.152-12.913Q488 284 480 284t-15.848 5.087Q456.304 294.174 453 302l-91 234q-5 11 .712 18.5t17.136 7.5ZM149.825 976Q137 976 128.5 967.375T120 946V818q0-12.75 8.675-21.375 8.676-8.625 21.5-8.625 12.825 0 21.325 8.625T180 818v128q0 12.75-8.675 21.375-8.676 8.625-21.5 8.625Zm120 0Q257 976 248.5 967.375T240 946V818q0-12.75 8.675-21.375 8.676-8.625 21.5-8.625 12.825 0 21.325 8.625T300 818v128q0 12.75-8.675 21.375-8.676 8.625-21.5 8.625Zm120 0Q377 976 368.5 967.375T360 946V818q0-12.75 8.675-21.375 8.676-8.625 21.5-8.625 12.825 0 21.325 8.625T420 818v128q0 12.75-8.675 21.375-8.676 8.625-21.5 8.625ZM510 976q-12.75 0-21.375-8.625T480 946V818q0-12.75 8.625-21.375T510 788h300q12.75 0 21.375 8.625T840 818v128q0 12.75-8.625 21.375T810 976H510Z"/></svg>