<svg xmlns="http://www.w3.org/2000/svg" width="48" height="48" viewBox="0 96 960 960"><path d="M390 196q-12 0-21-8.5t-9-21.5q0-13 8.5-21.5T390 136h180q13 0 21.5 8.5T600 166q0 13-8.5 21.5T570 196H390Zm10 513-53-107q-4-8-11.5-12t-15.5-4H121q11-140 114-235.5T480 255q67 0 125.5 22T710 339l30-30q9-9 21.5-9t21.5 9q9 9 9 21.5t-9 21.5l-30 30q32 36 56.5 86T839 586H659l-72-144q-8-17-27-17t-27 17L400 709Zm80 266q-142 0-244.5-95T121 646h180l72 144q8 17 27 17t27-17l133-267 53 106q4 8 11.5 12.5T640 646h199q-12 139-114.5 234T480 975Z"/></svg>