<svg xmlns="http://www.w3.org/2000/svg" width="48" height="48" viewBox="0 -960 960 960"><path d="M346-160H220q-25 0-42.5-17.5T160-220v-126l-92-92q-9-9-13-20t-4-22q0-11 4-22t13-20l92-92v-126q0-25 17.5-42.5T220-800h126l92-92q9-9 20.5-13t22.5-4q11 0 22 4.5t20 13.5l91 91h126q25 0 42.5 17.5T800-740v126l92 92q9 9 13 20t4 22q0 11-4 22t-13 20l-92 92v126q0 25-17.5 42.5T740-160H614l-91 90q-9 8-20 12.5T481-53q-11 0-22-4.5T439-70l-93-90Zm-6-60h60v-180q26-6 43-27.5t17-49.5v-143q0-8-6-14t-14-6q-8 0-14 6t-6 14v131h-30v-131q0-8-6-14t-14-6q-8 0-14 6t-6 14v131h-30v-131q0-8-6-14t-14-6q-8 0-14 6t-6 14v143q0 28 17 49.5t43 27.5v180Zm220 0h60v-148q26-14 43-49.5t17-82.5q0-58-26.5-99T590-640q-38 0-64 41t-26 99q0 46 17 81.5t43 50.5v148Z"/></svg>