<svg xmlns="http://www.w3.org/2000/svg" width="48" height="48" viewBox="0 -960 960 960"><path d="M375.5-304.5Q390-319 390-340t-14.5-35.5Q361-390 340-390t-35.5 14.5Q290-361 290-340t14.5 35.5Q319-290 340-290t35.5-14.5Zm0-280Q390-599 390-620t-14.5-35.5Q361-670 340-670t-35.5 14.5Q290-641 290-620t14.5 35.5Q319-570 340-570t35.5-14.5Zm280 280Q670-319 670-340t-14.5-35.5Q641-390 620-390t-35.5 14.5Q570-361 570-340t14.5 35.5Q599-290 620-290t35.5-14.5Zm0-280Q670-599 670-620t-14.5-35.5Q641-670 620-670t-35.5 14.5Q570-641 570-620t14.5 35.5Q599-570 620-570t35.5-14.5ZM180-120q-24 0-42-18t-18-42v-600q0-24 18-42t42-18h600q24 0 42 18t18 42v600q0 24-18 42t-42 18H180Z"/></svg>