<svg xmlns="http://www.w3.org/2000/svg" width="48" height="48" viewBox="0 -960 960 960"><path d="M660-200h-53q-9.391 0-13.696-7.5Q589-215 594-223l92-147q3-5 8.5-3.5t5.5 7.5v86h53q9.391 0 13.696 7.5Q771-265 766-257l-92 148q-3 5-8.5 3.5T660-113v-87Zm-320 60Zm-30 60q-12.75 0-21.375-8.625T280-110v-676q0-12.75 8.625-21.375T310-816h90v-34q0-12.75 8.625-21.375T430-880h100q12.75 0 21.375 8.625T560-850v34h90q12.75 0 21.375 8.625T680-786v333q-16 0-31 2t-29 7v-312H340v616h152q9 17 21 32t26 28H310Z"/></svg>