<svg xmlns="http://www.w3.org/2000/svg" width="48" height="48" viewBox="0 96 960 960"><path d="M391 788h178q12.75 0 21.375-8.675 8.625-8.676 8.625-21.5 0-12.825-8.625-21.325T569 728H391q-12.75 0-21.375 8.675-8.625 8.676-8.625 21.5 0 12.825 8.625 21.325T391 788Zm89.175-127q12.825 0 21.325-8.625T510 631v-57h59q12.75 0 21.375-8.675 8.625-8.676 8.625-21.5 0-12.825-8.625-21.325T569 514h-59v-57q0-12.75-8.675-21.375-8.676-8.625-21.5-8.625-12.825 0-21.325 8.625T450 457v57h-59q-12.75 0-21.375 8.675-8.625 8.676-8.625 21.5 0 12.825 8.625 21.325T391 574h59v57q0 12.75 8.675 21.375 8.676 8.625 21.5 8.625ZM480 976q-127 0-223.5-88.5T160 648q0-96 73.5-208.5T457 196q4.579-4.091 10.684-6.545Q473.789 187 479.895 187q6.105 0 12.287 2.455Q498.364 191.909 503 196q150 131 223.5 243.401Q800 551.801 800 648q0 151-96.5 239.5T480 976Z"/></svg>