<svg xmlns="http://www.w3.org/2000/svg" width="48" height="48"><path d="M39.25 44.15 31.2 36.1l-5.5 5.5q-.4.4-.975.525T23.65 42q-.5-.2-.825-.7-.325-.5-.325-1.05V27.6l-8.65 8.65q-.45.45-1.05.45-.6 0-1.05-.45-.45-.45-.45-1.05 0-.6.45-1.05l8.75-8.75L3.85 8.75Q3.4 8.3 3.4 7.7q0-.6.45-1.05.45-.45 1.05-.45.6 0 1.05.45l35.4 35.4q.45.45.45 1.05 0 .6-.45 1.05-.45.45-1.05.45-.6 0-1.05-.45zM25.5 37.5 29 34l-3.5-3.5zm1.3-14.2-2.1-2.15 5.8-5.75-5-4.9v11.45l-3-3V7.75q0-.55.325-1.025.325-.475.825-.725.5-.2 1.075-.1t.975.5l7.95 7.95q.25.25.35.5.1.25.1.55 0 .3-.1.55-.1.25-.35.5z"/></svg>