<svg xmlns="http://www.w3.org/2000/svg" width="48" height="48"><path d="M20.1 43q-.45 0-.75-.3t-.3-.75q0-.45.3-.75t.75-.3q.45 0 .75.3t.3.75q0 .45-.3.75t-.75.3zm8.1 0q-.45 0-.75-.3t-.3-.75q0-.45.3-.75t.75-.3q.45 0 .75.3t.3.75q0 .45-.3.75t-.75.3zM12 37.9q-.8 0-1.35-.55T10.1 36q0-.8.55-1.35T12 34.1q.8 0 1.35.55T13.9 36q0 .8-.55 1.35T12 37.9zm8.1 0q-.8 0-1.35-.55T18.2 36q0-.8.55-1.35t1.35-.55q.8 0 1.35.55T22 36q0 .8-.55 1.35t-1.35.55zM12 29.8q-.8 0-1.35-.55t-.55-1.35q0-.8.55-1.35T12 26q.8 0 1.35.55t.55 1.35q0 .8-.55 1.35T12 29.8zm-5.95-.85q-.45 0-.75-.3T5 27.9q0-.45.3-.75t.75-.3q.45 0 .75.3t.3.75q0 .45-.3.75t-.75.3zm35.9 0q-.45 0-.75-.3t-.3-.75q0-.45.3-.75t.75-.3q.45 0 .75.3t.3.75q0 .45-.3.75t-.75.3zM36 22q-.8 0-1.35-.55t-.55-1.35q0-.8.55-1.35T36 18.2q.8 0 1.35.55t.55 1.35q0 .8-.55 1.35T36 22zm-29.95-.85q-.45 0-.75-.3T5 20.1q0-.45.3-.75t.75-.3q.45 0 .75.3t.3.75q0 .45-.3.75t-.75.3zm35.9 0q-.45 0-.75-.3t-.3-.75q0-.45.3-.75t.75-.3q.45 0 .75.3t.3.75q0 .45-.3.75t-.75.3zM27.9 13.9q-.8 0-1.35-.55T26 12q0-.8.55-1.35t1.35-.55q.8 0 1.35.55T29.8 12q0 .8-.55 1.35t-1.35.55zm8.1 0q-.8 0-1.35-.55T34.1 12q0-.8.55-1.35T36 10.1q.8 0 1.35.55T37.9 12q0 .8-.55 1.35T36 13.9zM20.1 7.1q-.45 0-.75-.3t-.3-.75q0-.45.3-.75t.75-.3q.45 0 .75.3t.3.75q0 .45-.3.75t-.75.3zm7.8 0q-.45 0-.75-.3t-.3-.75q0-.45.3-.75t.75-.3q.45 0 .75.3t.3.75q0 .45-.3.75t-.75.3zM36 29.8l-1.9-1.9q0-.8.55-1.35T36 26q.8 0 1.35.55t.55 1.35q0 .8-.55 1.35T36 29.8zm-7.15-7.15-3.5-3.5q.3-.8 1-1.275.7-.475 1.55-.475 1.15 0 1.925.775.775.775.775 1.925 0 .85-.475 1.55-.475.7-1.275 1zM20.1 13.9 18.2 12q0-.8.55-1.35t1.35-.55q.8 0 1.35.55T22 12q0 .8-.55 1.35t-1.35.55zM12 22q-.8 0-1.35-.55t-.55-1.35q0-.8.55-1.35T12 18.2q.8 0 1.35.55t.55 1.35q0 .8-.55 1.35T12 22zm8.1 8.6q-1.15 0-1.925-.775-.775-.775-.775-1.925t.775-1.925q.775-.775 1.925-.775t1.925.775q.775.775.775 1.925t-.775 1.925q-.775.775-1.925.775zm7.8 7.3q-.8 0-1.35-.55T26 36q0-.8.55-1.35t1.35-.55q.8 0 1.35.55T29.8 36q0 .8-.55 1.35t-1.35.55zm12.25 5.95L4.75 8.5q-.45-.45-.425-1.075Q4.35 6.8 4.8 6.35q.45-.45 1.075-.45t1.075.45l35.35 35.4q.45.45.45 1.05 0 .6-.45 1.05-.45.45-1.075.45t-1.075-.45z"/></svg>