<svg xmlns="http://www.w3.org/2000/svg" width="48" height="48" viewBox="0 -960 960 960"><path d="M346.273-160H220q-24.75 0-42.375-17.625T160-220v-126.273L68-438q-17-16.934-17-41.967Q51-505 68-522l92-91.727V-740q0-24.75 17.625-42.375T220-800h126.273L438-892q17-18 42-17t43 18l91.306 91H740q24.75 0 42.375 17.625T800-740v126.273L892-522q17 16.934 17 41.967Q909-455 892-438l-92 91.727V-220q0 24.75-17.625 42.375T740-160H614l-90 89q-18 17-43 17t-43-17l-91.727-89ZM481-481Zm0 368 107.917-107H740v-151l109-109-109-109v-151H589L481-849 371-740H220v151L111-480l109 109v151h150l111 107Zm10-174q81.232 0 137.616-56.433Q685-399.866 685-479.933 685-560 628.489-616q-56.51-56-137.924-56-12.451 0-22.508 1.5-10.057 1.5-18.648 3.4-5.727 1.9-9.068 6.175Q437-656.65 437-651.9q0 1.9 9 15.9 38 26 58.5 67.5t20.5 88.045q0 49.455-20.965 90.941-20.964 41.486-59.082 66.57-2.953 1.93-8.953 14.472 0 5.789 4 10.13 4 4.342 9 6.342 12.698 3 22.953 4 10.256 1 19.047 1Z"/></svg>