<svg xmlns="http://www.w3.org/2000/svg" width="48" height="48" viewBox="0 -960 960 960"><path d="M346.163-160H220q-24.75 0-42.375-17.625T160-220v-125.587L68-438q-17-17.315-17-42.157Q51-505 68-522l92-92.413V-740q0-24.75 17.625-42.375T220-800h125.587L438-892q17-18 42-17t43 18l91 91h126q24.75 0 42.375 17.625T800-740v125.587L892-522q17 17.315 17 42.157Q909-455 892-438l-92 92.413V-220q0 24.75-17.625 42.375T740-160H614l-91 90q-17.315 17-42.157 17Q456-53 439-70l-92.837-90ZM481-481Zm0 195q82 0 138.5-56T676-480.5q0-82.5-56.5-139T481-676v390Zm0 173 107.917-107H740v-151l109-109-109-109v-151H589L481-849 371-740H220v151L111-480l109 109v151h150l111 107Z"/></svg>