<svg xmlns="http://www.w3.org/2000/svg" width="48" height="48" viewBox="0 -960 960 960"><path d="M670-80q-8 0-14-6t-6-14v-185q-9-6-14.5-15t-5.5-20q0-17 11.5-28.5T670-360q17 0 28.5 11.5T710-320q0 11-5 20t-15 15v185q0 8-6 14t-14 6Zm0-351q-45 0-77.5 32T560-321q0 19 7 37t19 32q5 6 5.5 14t-4.5 14q-6 6-14.5 6t-14.5-6q-18-20-28-45t-10-52q0-63 44-106.5T670-471q63 0 106.5 43.5T820-321q0 27-9 52.5T784-223q-6 7-15 6.5t-15-6.5q-6-5-5.5-13t5.5-15q12-15 19-33t7-37q0-46-32-78t-78-32Zm0-101q-87 0-148.5 61T460-322q0 39 14.5 75.5T515-182q6 6 6.5 14.5T516-153q-6 6-14.5 5.5T487-154q-32-35-49.5-78T420-322q0-105 73-177.5T670-572q105 0 177.5 72.5T920-322q0 47-17 90.5T854-154q-6 6-14.5 6t-14.5-6q-6-6-5.5-14t6.5-14q26-28 40-64.5t14-75.5q0-88-61-149t-149-61ZM85-160q-18 0-31.5-13.5T40-205v-430q0-18 13.5-31.5T85-680h229q18 0 31.5 13.5T359-635v430q0 18-13.5 31.5T314-160H85Zm585-470q-78 0-143.5 35T419-501v-134q0-42-31.5-73.5T314-740H85q-2 0-3 .5t-2 .5v-1q0-25 17.5-42.5T140-800h680q24 0 42 18t18 42v192q-46-38-97-60t-113-22ZM199-520q12 0 21-9t9-21q0-12-9-21t-21-9q-12 0-21 9t-9 21q0 12 9 21t21 9Z"/></svg>