<svg xmlns="http://www.w3.org/2000/svg" width="48" height="48" viewBox="0 96 960 960"><path d="M229.825 856Q217 856 208.5 847.375T200 826V326q0-12.75 8.675-21.375 8.676-8.625 21.5-8.625 12.825 0 21.325 8.625T260 326v500q0 12.75-8.675 21.375-8.676 8.625-21.5 8.625Zm-160 0Q57 856 48.5 847.375T40 826V326q0-12.75 8.675-21.375Q57.351 296 70.175 296 83 296 91.5 304.625T100 326v500q0 12.75-8.675 21.375Q82.649 856 69.825 856ZM420 856q-23 0-41.5-18.5T360 796V356q0-23 18.5-41.5T420 296h440q23 0 41.5 18.5T920 356v440q0 23-18.5 41.5T860 856H420Zm0-60h440V356H420v440Zm90-97h264q8.5 0 12.75-8t-.75-16l-70-93q-5-6-12-6t-12 6l-72 94-49-66q-5-6-12-6t-12 6l-49 65q-5 8-1 16t13 8Zm-90-343v440-440Z"/></svg>