<svg xmlns="http://www.w3.org/2000/svg" width="48" height="48" viewBox="0 96 960 960"><path d="M380 755q9-9 21.5-9t21.5 9l88 89q9 9 9 21t-9 21l-89 89q-9 9-21 8.5t-21-9.5q-9-9-9-21.5t9-21.5l35-35H230q-12 0-21-8.5t-9-21.5q0-13 8.5-21.5T230 836h187l-38-38q-9-9-8.5-21.5T380 755Zm210 81h140q13 0 21.5 8.5T760 866q0 13-8.5 21.5T730 896H590q-12 0-21-8.5t-9-21.5q0-13 8.5-21.5T590 836ZM260 176h440q23 0 41.5 18.5T760 236v488q0 25-17.5 42.5T700 784H493l-50-50q-17-18-42-18t-43 18l-50 50h-48q-25 0-42.5-17.5T200 724V236q0-23 18.5-41.5T260 176Zm220 180q-25 0-42.5 17.5T420 416q0 25 17.5 42.5T480 476q25 0 42.5-17.5T540 416q0-25-17.5-42.5T480 356Z"/></svg>