<svg xmlns="http://www.w3.org/2000/svg" width="48" height="48" viewBox="0 -960 960 960"><path d="M396-55q-11-6-14-18t3-23l127-217q8-14 22-22t30-8h111l62-223q9-32 34.5-52.5T829-639q44 0 71.5 33.5T920-528l-46 238q-4 21-20.5 34.5T815-242H541L437-66q-6 11-18 14t-23-3Zm453-643q-29 0-50-21t-21-50q0-29 21-50t50-21q29 0 50 21t21 50q0 29-21 50t-50 21Zm-484 97q-8-3-11-10.5t1-15.5l4-19q0-11-4-20.5T343-685q-11-12-18-29t-7-36q0-8 1.5-16.5T323-781q4-9 12.5-14.5T352-797q8 3 11 11t-1 16q-2 4-3 8.5t-1 9.5q0 11 4.5 21.5T375-712q10 11 16 25t8 31q1 11 0 20.5t-4 17.5q-4 10-12.5 15.5T365-601Zm-125-1q-8-2-11.5-10t-.5-16q2-4 2.5-8.5t.5-9.5q0-11-3.5-21.5T217-688q-9-13-13.5-28.5T199-749q0-8 .5-15.5T202-777q3-10 11-15.5t17-2.5q8 2 11.5 10t.5 16q-2 3-2.5 8t-.5 10q0 11 3.5 21.5T253-709q9 13 13.5 28.5T271-648q0 8-.5 15.5T268-620q-3 10-11 15.5t-17 2.5Zm-119-58q-8 0-13.5-4.5T101-677L75-854q-2-13 5.5-24t19.5-14q48-13 101.5-20.5T300-920q43 0 96 7.5T500-891q12 3 19.5 13.5T525-854l-26 177q-1 8-6.5 12.5T479-660q-9 0-15.5-7t-4.5-16l25-172q-45-11-91-18t-93-7q-47 0-93 7t-91 18l25 172q2 9-4.5 16t-15.5 7Z"/></svg>