<svg xmlns="http://www.w3.org/2000/svg" width="48" height="48" viewBox="0 96 960 960"><path d="M312 976q-20 0-27.5-18.5T291 925l538-538q14-14 32.5-6.5T880 408v538q0 13-8.5 21.5T850 976H312Zm415-60h93V481l-93 93v342ZM273 447q-9-9-9-21.5t8-20.5q33-32 77-50.5t93-18.5q49 0 93 18.5t77 50.5q8 8 8 20.5t-9 21.5q-8 8-20.5 8t-21.5-8q-26-23-57.5-37T442 396q-38 0-69.5 14T315 447q-9 8-21.5 8t-20.5-8Zm-88-88q-9-9-9.5-21.5T184 317q51-48 119.5-74.5T442 216q70 0 138.5 26.5T700 317q9 8 8.5 20.5T699 359q-8 8-20.5 8.5T657 360q-45-40-100-62t-115-22q-60 0-115 22t-100 62q-9 8-21.5 7.5T185 359Zm257 211q-25 0-41-16.5T385 513q0-25 16-41t41-16q24 0 40.5 16t16.5 41q0 24-16.5 40.5T442 570Z"/></svg>