<svg xmlns="http://www.w3.org/2000/svg" width="48" height="48" viewBox="0 96 960 960"><path d="M110 446q-12.75 0-21.375-8.675Q80 428.649 80 415.825 80 403 88.625 394.5T110 386h300q12.75 0 21.375 8.675 8.625 8.676 8.625 21.5 0 12.825-8.625 21.325T410 446H110Zm0 320q-12.75 0-21.375-8.675Q80 748.649 80 735.825 80 723 88.625 714.5T110 706h300q12.75 0 21.375 8.675 8.625 8.676 8.625 21.5 0 12.825-8.625 21.325T410 766H110Zm528-265L538 401q-9-9-9-21t9-21q9-9 21-8.5t21 8.5l79 78 158-158q9-9 21-8.5t21.391 9.5Q868 289 868 301t-9 21L680 501q-9 9-21 9t-21-9Zm0 320L538 721q-9-9-9-21t9-21q9-9 21-8.5t21 8.5l79 78 158-158q9-9 21-8.5t21.391 9.5Q868 609 868 621t-9 21L680 821q-9 9-21 9t-21-9Z"/></svg>