<svg xmlns="http://www.w3.org/2000/svg" width="48" height="48" viewBox="0 -960 960 960"><path d="M150-80q-12.75 0-21.375-8.625T120-110v-150q0-24.75 17.625-42.375T180-320h72l24-170h-76q-12.75 0-21.375-8.675-8.625-8.676-8.625-21.5 0-12.825 8.625-21.325T200-550h560q12.75 0 21.375 8.675 8.625 8.676 8.625 21.5 0 12.825-8.625 21.325T760-490h-76l24 170h72q24.75 0 42.375 17.625T840-260v150q0 12.75-8.625 21.375T810-80H150Zm134-530q-10.5 0-18.75-6T255-633l-42-189q-2-7.071 1-12.536 3-5.464 8.111-9.555 5.111-4.091 11.5-4.5Q240-849 247-844q23 13 47.5 20t48.5 7q31 0 60-11t56-33q4.742-4 10.161-6 5.42-2 10.839-2 5.419 0 10.839 2 5.419 2 10.161 6 27 22 56 33t60 11q24 0 48.5-6.5T713-844q7-4 13.5-4t11.5 4q5 4 8 9.667 3 5.666 1 12.333l-42 189q-2 11-10.25 17T676-610H284Z"/></svg>