<svg xmlns="http://www.w3.org/2000/svg" width="48" height="48" viewBox="0 -960 960 960"><path d="M387.5-255Q346-280 321-322q-5-8-.5-15t13.5-7h292q9 0 13.5 7t-.5 15q-24 42-66 67t-93 25q-51 0-92.5-25Zm-36-186.5Q340-453 340-470t11.5-28.5Q363-510 380-510t28.5 11.5Q420-487 420-470t-11.5 28.5Q397-430 380-430t-28.5-11.5Zm200 0Q540-453 540-470t11.5-28.5Q563-510 580-510t28.5 11.5Q620-487 620-470t-11.5 28.5Q597-430 580-430t-28.5-11.5ZM480-80q-150 0-255-105T120-440v-15l62-24q-2 10-2.5 19.5T179-440q0 125 88 212.5T480-140q125 0 212.5-87.5T780-440q0-21-3-40.5t-8-39.5q-66-5-124.5-31T538-619l195-77q50 49 78.5 115T840-440q0 75-28.5 140.5t-77 114q-48.5 48.5-114 77T480-80ZM128-501q-4-18-6-36t-2-37q0-98 51-177.5T304-871q-3-4-5-9t-2-10q0-13 8.5-21.5T327-920q12 0 20.5 8.5T357-891q20-6 41.5-9t44.5-3q72 0 136.5 31T691-786l94-38q12-5 23 .5t16 17.5q5 11-.5 22T807-768L128-501Z"/></svg>