<svg xmlns="http://www.w3.org/2000/svg" width="48" height="48" viewBox="0 -960 960 960"><path d="M246-800h534q23 0 41.5 18.5T840-740v534l-60-60v-474H306l-60-60Zm425 389v-7q0-6 4.5-10.5T686-433h20q6 0 10.5 4.5T721-418v24q0 13-8.5 21.5T691-364h-9l-47-47h36ZM555-599h136q12 0 21 9t9 21v30q0 6-4.5 10.5T706-524h-20q-6 0-10.5-4.5T671-539v-10h-96v78l-50-50v-48q0-12.75 8.625-21.375T555-599Zm-12 96Zm-126 46Zm-56-142 50 50H290v138h102v-10q0-6 4.5-10.5T407-436h20q6 0 10.5 4.5T442-421v30q0 12.75-8.625 21.375T412-361H270q-12 0-21-9t-9-21v-178q0-12 9-21t21-9h91ZM163-797l57 57h-40v520h474L47-827q-9-9.067-9-21.533Q38-861 47.053-870q9.052-9 21.5-9Q81-879 90-870l765 765q9 9 9 21t-9.053 21q-9.052 9-21.5 9Q821-54 812-63l-98-97H180q-24 0-42-18t-18-42v-520q0-19.922 12.5-35.461Q145-791 163-797Z"/></svg>