<svg xmlns="http://www.w3.org/2000/svg" width="48" height="48" viewBox="0 96 960 960"><path d="M250 896q-86 0-148-62T40 686q0-78 49.5-137.5T217 477q20-97 94-158.5T482 257q113 0 189.5 81.5T748 534v24q72-2 122 46.5T920 727q0 69-50 119t-119 50H510q-24 0-42-18t-18-42V578l-62 62q-9 9-21 8.5t-21-9.5q-9-9-9-21.5t9-21.5l113-113q5-5 10.133-7 5.134-2 11-2Q486 474 491 476q5 2 10 7l114 114q9 9 9 21t-9 21q-9 9-21.5 9t-21.5-9l-62-61v258h241q45 0 77-32t32-77q0-45-32-77t-77-32h-63v-84q0-89-60.5-153T478 317q-89 0-150 64t-61 153h-19q-62 0-105 43.5T100 685q0 62 43.929 106.5Q187.857 836 250 836h110q12.75 0 21.375 8.675 8.625 8.676 8.625 21.5 0 12.825-8.625 21.325T360 896H250Zm230-290Z"/></svg>