<svg xmlns="http://www.w3.org/2000/svg" width="48" height="48" viewBox="0 0 48 48"><path d="M20 11.3q-1.5 0-2.575-1.075Q16.35 9.15 16.35 7.65q0-1.5 1.075-2.575Q18.5 4 20 4q1.5 0 2.575 1.075Q23.65 6.15 23.65 7.65q0 1.5-1.075 2.575Q21.5 11.3 20 11.3Zm13 25.2q2.3 0 3.9-1.6t1.6-3.9q0-2.3-1.6-3.9T33 25.5q-2.3 0-3.9 1.6T27.5 31q0 2.3 1.6 3.9t3.9 1.6Zm4.85 1.45q-1.1.75-2.325 1.15-1.225.4-2.525.4-3.55 0-6.025-2.475Q24.5 34.55 24.5 31q0-3.55 2.475-6.025Q29.45 22.5 33 22.5q3.55 0 6.025 2.475Q41.5 27.45 41.5 31q0 1.3-.4 2.525-.4 1.225-1.15 2.325l4.3 4.3q.45.45.45 1.05 0 .6-.45 1.05-.45.45-1.05.45-.6 0-1.05-.45Zm-15.5-2.6q.5 1.25 1.25 2.325.75 1.075 1.75 1.925v2.9q0 .65-.425 1.075Q24.5 44 23.85 44q-.65 0-1.075-.425-.425-.425-.425-1.075ZM17.65 31v11.5q0 .65-.425 1.075Q16.8 44 16.15 44q-.65 0-1.075-.425-.425-.425-.425-1.075V17.35q-2.8-.25-5.55-.575-2.75-.325-5.5-.925-.65-.15-1-.675T2.4 14q.15-.65.75-.95.6-.3 1.3-.15 3.85.8 7.75 1.125 3.9.325 7.8.325t7.8-.325q3.9-.325 7.75-1.125.7-.15 1.325.15t.775.95q.15.65-.275 1.2-.425.55-1.125.7-2.7.55-5.425.875-2.725.325-5.475.575v5.05q-1.75 1.6-2.8 3.825Q21.5 28.45 21.5 31Z"/></svg>