<svg xmlns="http://www.w3.org/2000/svg" width="48" height="48" viewBox="0 -960 960 960"><path d="M289.62-409q-14.62 0-23.12-12-8.5-12-3.5-26l64-167H184l-49 72q-3.5 5-8.4 7.5t-10.5 2.5h-4.9q-11.2 0-18.7-9T88-561l30-104-31-107q-3-10 3.03-17.5Q96.06-797 106-797h11.59q5.41 0 9.54 2.42 4.12 2.43 6.87 6.58l50 73h143l-65-172q-5-12 2.5-22.5t20.25-10.5H296q6 0 11 3t9 8l136 194h132q21.25 0 36.13 14.62Q635-685.76 635-664.88 635-644 620.13-629q-14.88 15-36.13 15H452L317-421q-4 5-10.21 8.5-6.21 3.5-12.79 3.5h-4.38ZM665-40q-6 0-11-3t-9-8L509-245H377q-21.25 0-36.12-14.82-14.88-14.83-14.88-36 0-21.18 14.88-35.68Q355.75-346 377-346h132l136-194q4-5 9.19-8 5.18-3 11.11-3h11.11q12.59 0 20.09 10.5T699-518l-65 172h143l50-73q2.75-4.15 6.88-6.58Q838-428 843.25-428h11.25q10.5 0 16.5 7.5t3 17.5l-31 107 30 108q3 9-3.09 17-6.1 8-16.14 8h-10.75q-5.02 0-9.14-2.15-4.13-2.16-6.88-5.85l-50-74H633l66 172q5 12-2.5 22.5T676.25-40H665Z"/></svg>