<svg xmlns="http://www.w3.org/2000/svg" width="48" height="48" viewBox="0 96 960 960"><path d="M700 491v55q0 8 6 14t14 6q8 0 14-6t6-14v-55l48 27q8 5 15 3t12-10q5-8 3-15t-10-12l-48-28 48-28q8-5 10-12t-3-15q-5-8-12-10t-15 3l-48 27v-55q0-8-6-14t-14-6q-8 0-14 6t-6 14v55l-48-27q-8-5-15-3t-12 10q-5 8-3 15t10 12l48 28-48 28q-8 5-10 12t3 15q5 8 12 10t15-3l48-27ZM59 936q-24 0-42-18t-18-42V276q0-24 18-42t42-18h841q24 0 42 18t18 42v600q0 24-18 42t-42 18H59Zm270-290q49 0 83.5-34.5T447 528q0-49-34.5-83.5T329 410q-49 0-83.5 34.5T211 528q0 49 34.5 83.5T329 646ZM69 876h520q-45-74-112.5-112T329 726q-80 0-148 38T69 876Z"/></svg>