<svg xmlns="http://www.w3.org/2000/svg" width="48" height="48" viewBox="0 -960 960 960"><path d="M340-240q-24 0-42-18t-18-42v-520q0-24 18-42t42-18h400q24 0 42 18t18 42v520q0 24-18 42t-42 18H340Zm0-60h400v-520H340v520Zm200-260ZM128.5-728.68q-8.5-8.67-8.5-21.5 0-12.82 8.68-21.32 8.67-8.5 21.5-8.5 12.82 0 21.32 8.68 8.5 8.67 8.5 21.5 0 12.82-8.68 21.32-8.67 8.5-21.5 8.5-12.82 0-21.32-8.68Zm0 160q-8.5-8.67-8.5-21.5 0-12.82 8.68-21.32 8.67-8.5 21.5-8.5 12.82 0 21.32 8.68 8.5 8.67 8.5 21.5 0 12.82-8.68 21.32-8.67 8.5-21.5 8.5-12.82 0-21.32-8.68Zm0 160q-8.5-8.67-8.5-21.5 0-12.82 8.68-21.32 8.67-8.5 21.5-8.5 12.82 0 21.32 8.68 8.5 8.67 8.5 21.5 0 12.82-8.68 21.32-8.67 8.5-21.5 8.5-12.82 0-21.32-8.68Zm0 160q-8.5-8.67-8.5-21.5 0-12.82 8.68-21.32 8.67-8.5 21.5-8.5 12.82 0 21.32 8.68 8.5 8.67 8.5 21.5 0 12.82-8.68 21.32-8.67 8.5-21.5 8.5-12.82 0-21.32-8.68Zm0 160q-8.5-8.67-8.5-21.5 0-12.82 8.68-21.32 8.67-8.5 21.5-8.5 12.82 0 21.32 8.68 8.5 8.67 8.5 21.5 0 12.82-8.68 21.32-8.67 8.5-21.5 8.5-12.82 0-21.32-8.68Zm160 0q-8.5-8.67-8.5-21.5 0-12.82 8.68-21.32 8.67-8.5 21.5-8.5 12.82 0 21.32 8.68 8.5 8.67 8.5 21.5 0 12.82-8.68 21.32-8.67 8.5-21.5 8.5-12.82 0-21.32-8.68Zm160 0q-8.5-8.67-8.5-21.5 0-12.82 8.68-21.32 8.67-8.5 21.5-8.5 12.82 0 21.32 8.68 8.5 8.67 8.5 21.5 0 12.82-8.68 21.32-8.67 8.5-21.5 8.5-12.82 0-21.32-8.68Zm160 0q-8.5-8.67-8.5-21.5 0-12.82 8.68-21.32 8.67-8.5 21.5-8.5 12.82 0 21.32 8.68 8.5 8.67 8.5 21.5 0 12.82-8.68 21.32-8.67 8.5-21.5 8.5-12.82 0-21.32-8.68Z"/></svg>