<svg xmlns="http://www.w3.org/2000/svg" width="48" height="48" viewBox="0 96 960 960"><path d="M140 416h680V316H140v100ZM80 316q0-24.75 17.625-42.375T140 256h680q24.75 0 42.375 17.625T880 316v239H140v279h173q12.641 0 20.82 8.877 8.18 8.877 8.18 22T332.927 887q-9.073 9-21.927 9H140q-24.75 0-42.375-17.625T80 836V316Zm518 574 219-219q8.25-8 20.625-8t21.245 9.103q9.13 9.104 8.63 22Q867 707 858 716L619 955q-9 9-21 9t-21-9L449 827q-8-8-8-20.8t9.214-22.4q8.447-8.8 21.116-8.8 12.67 0 21.67 9l105 106ZM140 316v518-118 92-492Z"/></svg>