<svg xmlns="http://www.w3.org/2000/svg" width="48" height="48" viewBox="0 96 960 960"><path d="M355 936q-12 0-23-4.5T312 918L138 744q-9-9-13.5-20t-4.5-23V451q0-12 4.5-23t13.5-20l174-174q9-9 20-13.5t23-4.5h250q12 0 23 4.5t20 13.5l174 174q9 9 13.5 20t4.5 23v250q0 12-4.5 23T822 744L648 918q-9 9-20 13.5t-23 4.5H355Zm125-318 103 103q8 8 20 8t21-9q9-9 9-21t-9-21L522 576l103-103q8-8 8-20t-9-21q-9-9-21-9t-21 9L480 534 377 431q-8-8-20-8t-21 9q-9 9-9 21t9 21l102 102-103 103q-8 8-8 20t9 21q9 9 21 9t21-9l102-102Z"/></svg>