<svg xmlns="http://www.w3.org/2000/svg" width="48" height="48" viewBox="0 -960 960 960"><path d="m612-607-43-43q-6-6-14-5.5t-14 6.5q-6 6-6 14t6 14l50 50q9 9 21 9t21-9l106-107q6-6 6-14t-6-14q-6-6-14-6t-14 6l-99 99ZM150-160q-12.75 0-21.375-8.675-8.625-8.676-8.625-21.5 0-12.825 8.625-21.325T150-220h420q12.75 0 21.375 8.675 8.625 8.676 8.625 21.5 0 12.825-8.625 21.325T570-160H150Zm489.894-290Q561-450 505.5-505.606t-55.5-134.5Q450-719 505.606-774.5t134.5-55.5Q719-830 774.5-774.394t55.5 134.5Q830-561 774.394-505.5t-134.5 55.5ZM150-500q-12.75 0-21.375-8.675-8.625-8.676-8.625-21.5 0-12.825 8.625-21.325T150-560h232q5.32 16.323 12.16 31.161Q401-514 409-500H150Zm0 170q-12.75 0-21.375-8.675-8.625-8.676-8.625-21.5 0-12.825 8.625-21.325T150-390h389q13.8 6.364 29.4 10.682Q584-375 600-373v13q0 12.75-8.625 21.375T570-330H150Z"/></svg>