<svg xmlns="http://www.w3.org/2000/svg" width="48" height="48" viewBox="0 -960 960 960"><path d="M481.304-80q-82.748 0-155.526-31.5T198.5-197q-54.5-54-86-127T81-479q0-158.23 106.5-272.115Q294-865 452-877v102q-115 11-192 95.744Q183-594.511 183-479q0 124 87 210.5T481-182q72 0 136-32.5T726-306l88 51q-58 83-145.5 129T481.304-80ZM451-452h-91q-12.75 0-21.375-8.675-8.625-8.676-8.625-21.5 0-12.825 8.625-21.325T360-512h91v-91q0-12.75 8.675-21.375 8.676-8.625 21.5-8.625 12.825 0 21.325 8.625T511-603v91h90q12.75 0 21.375 8.675 8.625 8.676 8.625 21.5 0 12.825-8.625 21.325T601-452h-90v91q0 12.75-8.675 21.375-8.676 8.625-21.5 8.625-12.825 0-21.325-8.625T451-361v-91Zm392 143-88-49q12-31 18-61.5t6-60.5q0-115.917-76.5-200.958Q626-766 512-776v-102q157 11 263 124.5T881-484q0 45-9.5 88.5T843-309Z"/></svg>