<svg xmlns="http://www.w3.org/2000/svg" width="48" height="48" viewBox="0 96 960 960"><path d="M765 846H510q-12.75 0-21.375-8.675-8.625-8.676-8.625-21.5 0-12.825 8.625-21.325T510 786h255l-52-53q-9-9-9-21t9-21q9-9 21-9t21 9l104 104q9 9 9 21t-9 21L755 941q-9 9-21 9t-21-9q-9-9-9-21.5t9-21.5l52-52ZM150 616h-40q-12.75 0-21.375-8.625T80 586v-40q0-12.75 8.625-21.375T110 516h40q12.75 0 21.375 8.625T180 546v40q0 12.75-8.625 21.375T150 616Zm230 0q-58 0-99-41t-41-99V316q0-58 41-99t99-41q58 0 99 41t41 99v160q0 58-41 99t-99 41Zm360 0q-58 0-99-41t-41-99V316q0-58 41-99t99-41q58 0 99 41t41 99v160q0 58-41 99t-99 41Zm-360.235-60Q413 556 436.5 532.667 460 509.333 460 476V316q0-33.333-23.265-56.667Q413.471 236 380.235 236 347 236 323.5 259.333 300 282.667 300 316v160q0 33.333 23.265 56.667Q346.529 556 379.765 556Zm360 0Q773 556 796.5 532.667 820 509.333 820 476V316q0-33.333-23.265-56.667Q773.471 236 740.235 236 707 236 683.5 259.333 660 282.667 660 316v160q0 33.333 23.265 56.667Q706.529 556 739.765 556Z"/></svg>