<svg xmlns="http://www.w3.org/2000/svg" width="48" height="48" viewBox="0 96 960 960"><path d="M479.825 976Q467 976 458.5 967.375T450 946V456H128q-11 0-14.5-10.5T119 429l327-229q16-11 34-11t34 11l327 229q9 6 5.5 16.5T832 456H510v490q0 12.75-8.675 21.375-8.676 8.625-21.5 8.625ZM480 396h210-420 210ZM149.825 976Q137 976 128.5 967.375T120 946V764.925L93 619q-2-12 5.5-22t19.864-12q11.636-2 21.136 4.5T151 608l27 138h132q12.75 0 21.375 8.625T340 776v170q0 12.75-8.675 21.375-8.676 8.625-21.5 8.625-12.825 0-21.325-8.625T280 946V806H180v140q0 12.75-8.675 21.375-8.676 8.625-21.5 8.625Zm500 0Q637 976 628.5 967.375T620 946V776q0-12.75 8.625-21.375T650 746h132l27-138q2-12 12-18.5t21.636-4.5Q855 587 862 597t5 22l-27 145.925V946q0 12.75-8.675 21.375-8.676 8.625-21.5 8.625-12.825 0-21.325-8.625T780 946V806H680v140q0 12.75-8.675 21.375-8.676 8.625-21.5 8.625ZM270 396h420L480 249 270 396Z"/></svg>