<svg xmlns="http://www.w3.org/2000/svg" width="48" height="48" viewBox="0 96 960 960"><path d="M733 827q27.917 0 47.458-19.559Q800 787.882 800 759.941T780.458 713Q760.917 694 733 694q-27.5 0-46.75 19.353t-19.25 47Q667 788 686.25 807.5T733 827Zm-.214 133Q766 960 795 944.5t47-42.5q-26-14-53-22.5t-56-8.5q-29 0-56 8.5T624 902q18 27 46.786 42.5 28.785 15.5 62 15.5Zm-.286 55q-77.5 0-132.5-55.5T545 828q0-78.435 54.99-133.718Q654.98 639 733 639q77 0 132.5 55.282Q921 749.565 921 828q0 76-55.5 131.5t-133 55.5ZM310 436h340q12.75 0 21.375-8.675 8.625-8.676 8.625-21.5 0-12.825-8.625-21.325T650 376H310q-12.75 0-21.375 8.675-8.625 8.676-8.625 21.5 0 12.825 8.625 21.325T310 436Zm200 500H180q-24.75 0-42.375-17.625T120 876V276q0-24.75 17.625-42.375T180 216h600q24.75 0 42.375 17.625T840 276v329q-25-13-52-19t-55-6q-14 0-27 1.5t-26 4.5v-10q0-12-9-21t-21-9H310q-12.75 0-21.375 8.675-8.625 8.676-8.625 21.5 0 12.825 8.625 21.325T310 606h314q-36 18-64.5 46.5T513 716H310q-12.75 0-21.375 8.675-8.625 8.676-8.625 21.5 0 12.825 8.625 21.325T310 776h181q-3 13-4.5 26t-1.5 27q0 29 6 55t19 52Z"/></svg>