<svg xmlns="http://www.w3.org/2000/svg" width="48" height="48" viewBox="0 -960 960 960"><path d="M180-120q-24.75 0-42.37-17.63Q120-155.25 120-180v-600q0-24.75 17.63-42.38Q155.25-840 180-840h600q24.75 0 42.38 17.62Q840-804.75 840-780v275q0 12.75-8.68 21.37-8.67 8.63-21.5 8.63-12.82 0-21.32-8.63-8.5-8.62-8.5-21.37v-275H180v600h277q12.75 0 21.38 8.68 8.62 8.67 8.62 21.5 0 12.82-8.62 21.32-8.63 8.5-21.38 8.5H180Zm0-107v47-600 308-4 249Zm108.63-61.5q8.62 8.5 21.37 8.5h151q12.75 0 21.38-8.68 8.62-8.67 8.62-21.5 0-12.82-8.62-21.32-8.63-8.5-21.38-8.5H310q-12.75 0-21.37 8.68-8.63 8.67-8.63 21.5 0 12.82 8.63 21.32Zm0-170q8.62 8.5 21.37 8.5h320q12.75 0 21.38-8.68 8.62-8.67 8.62-21.5 0-12.82-8.62-21.32-8.63-8.5-21.38-8.5H310q-12.75 0-21.37 8.68-8.63 8.67-8.63 21.5 0 12.82 8.63 21.32Zm0-170q8.62 8.5 21.37 8.5h340q12.75 0 21.38-8.68 8.62-8.67 8.62-21.5 0-12.82-8.62-21.32-8.63-8.5-21.38-8.5H310q-12.75 0-21.37 8.68-8.63 8.67-8.63 21.5 0 12.82 8.63 21.32ZM732.5-41Q655-41 600-96.5T545-228q0-78.43 54.99-133.72Q654.98-417 733-417q77 0 132.5 55.28Q921-306.43 921-228q0 76-55.5 131.5T732.5-41Zm47.94-207.56Q800-268.12 800-296.06T780.46-343q-19.54-19-47.46-19-27.5 0-46.75 19.35-19.25 19.36-19.25 47 0 27.65 19 47.15t46.94 19.5q27.94 0 47.5-19.56ZM788-108q26-12 45-34 4-5 2-10.5t-7-8.5q-23-11-46.5-17.5T733-185q-25 0-48.5 6.5T638-161q-5 2-7 8t2 11q18 22 44.5 34T733-96q29 0 55-12Z"/></svg>