<svg xmlns="http://www.w3.org/2000/svg" width="48" height="48" viewBox="0 -960 960 960"><path d="M708-693v-105q0-8-5-12.5t-13-4.5q-8 0-12.5 4.5T673-798v102q0 6 2 11t6 10l66 70q5 5 12.5 5t12.5-5q5-5 5-12.5t-5-12.5l-64-63Zm-19 195q-79 0-135-56t-56-135q0-79 56-135t135-56q80 0 135.5 55.5T880-689q0 80-56 135.5T689-498ZM285-288q16-16 16-39t-16-39q-16-16-39-16t-39 16q-16 16-16 39t16 39q16 16 39 16t39-16Zm308 0q16-16 16-39t-16-39q-16-16-39-16t-39 16q-16 16-16 39t16 39q16 16 39 16t39-16ZM148.5-92.5Q136-105 136-123v-68q-26-15-41-44.5T80-301v-397q0-71 71-101.5T408-835q20-1 30.5 16t2.5 36q-8 22-12.5 45.5T424-690q0 11-7 18.5t-18 7.5H140v173h356q8 0 15.5 3t14.5 8q15 12 32.5 21.5T594-442q24 9 48.5 14t50.5 4q11 0 19 7t8 18v98q0 36-15 65.5T664-191v68q0 18-12.5 30.5T621-80q-18 0-30.5-12.5T578-123v-39H222v39q0 18-12.5 30.5T179-80q-18 0-30.5-12.5Z"/></svg>