<svg xmlns="http://www.w3.org/2000/svg" width="48" height="48" viewBox="0 -960 960 960"><path d="M540.08-754q-30.08 0-51.58-21.42-21.5-21.421-21.5-51.5 0-30.08 21.42-51.58 21.421-21.5 51.5-21.5 30.08 0 51.58 21.42 21.5 21.421 21.5 51.5 0 30.08-21.42 51.58-21.421 21.5-51.5 21.5Zm24.745 714Q552-40 543.5-48.625T535-70v-209l-108-99-29 130q-5 24-26 37.5t-45 8.5l-179-37q-11.333-2.129-17.667-12.065Q124-261 126-273q2.129-11.333 12.065-17.667Q148-297 159-295l171 34 73-369-100 47v104q0 12.75-8.675 21.375-8.676 8.625-21.5 8.625-12.825 0-21.325-8.625T243-479v-105q0-17.838 10.021-33.074Q263.042-632.311 280-639l127-54q31-14 45-17.5t27.6-3.5q20.4 0 35.9 8.5T542-680l41.935 67.232Q607-576 644.5-547.5T732-511q12 2 20 10.556 8 8.555 8 19.444 0 13.511-9.5 22.756Q741-449 728-451q-56-7-100.5-37.5T543-573l-39 158 72 66q9.12 9.366 14.06 20.683Q595-317 595-305v235q0 12.75-8.675 21.375Q577.649-40 564.825-40Z"/></svg>