<svg xmlns="http://www.w3.org/2000/svg" width="48" height="48" viewBox="0 96 960 960"><path d="M258.941 936Q241 936 228.5 923.458 216 910.917 216 893v-68q-29-16-42.5-46T160 715V318q0-73.662 76.5-107.831T481 176q166 0 242.5 34T800 318v397q0 34-13.5 64T744 825v68q0 17.917-12.559 30.458Q718.882 936 700.941 936 683 936 670.5 923.458 658 910.917 658 893v-39H302v39q0 17.917-12.559 30.458Q276.882 936 258.941 936ZM481 292h259-520 261Zm177 293H220h520-82Zm-438-60h520V352H220v173Zm106.059 219Q349 744 365 727.941q16-16.059 16-39T364.941 650q-16.059-16-39-16T287 650.059q-16 16.059-16 39T287.059 728q16.059 16 39 16Zm308 0Q657 744 673 727.941q16-16.059 16-39T672.941 650q-16.059-16-39-16T595 650.059q-16 16.059-16 39T595.059 728q16.059 16 39 16ZM220 292h520q-24-26-92-41t-167-15q-118 0-181 13.5T220 292Zm82 502h356q35 0 58.5-27t23.5-62V585H220v120q0 35 23.5 62t58.5 27Z"/></svg>