<svg xmlns="http://www.w3.org/2000/svg" width="48" height="48" viewBox="0 -960 960 960"><path d="M477.118-310Q548-310 597.5-359.618q49.5-49.617 49.5-120.5Q647-551 597.382-600.5q-49.617-49.5-120.5-49.5Q406-650 356.5-600.382q-49.5 49.617-49.5 120.5Q307-409 356.618-359.5q49.617 49.5 120.5 49.5ZM477-440q-17 0-28.5-11.5T437-480q0-17 11.5-28.5T477-520q17 0 28.5 11.5T517-480q0 17-11.5 28.5T477-440Zm369.825 213Q834-227 825.5-235.625T817-257v-267q0-12.75 8.675-21.375 8.676-8.625 21.5-8.625 12.825 0 21.325 8.625T877-524v267q0 12.75-8.675 21.375-8.676 8.625-21.5 8.625Zm3.193 140Q836-87 826.5-96.483q-9.5-9.482-9.5-23.499 0-14.018 9.482-23.518 9.483-9.5 23.5-9.5 14.018 0 23.518 9.482 9.5 9.483 9.5 23.5Q883-106 873.518-96.5q-9.483 9.5-23.5 9.5ZM477-80q-83 0-156-31.5T194-197q-54-54-85.5-127T77-480q0-83 31.5-156T194-763q54-54 127-85.5T477-880q116 0 212 60.5T837-658q8 15-1.5 29.5T809-614h-23q-12.75 0-21.375 8.625T756-584v371q0 10.216-3.5 18.608Q749-186 741-179q-55 48-123 73.5T477-80Z"/></svg>