<svg xmlns="http://www.w3.org/2000/svg" width="48" height="48" viewBox="0 -960 960 960"><path d="M70-160q-12.75 0-21.375-8.625T40-190v-130q0-28.875 20.563-49.438Q81.124-390 110-390h141q17.143 0 32.571 8.5Q299-373 310-358q29 42 74 65t95.637 23q51.693 0 96.528-23Q621-316 651-358q11.104-14.703 26.052-23.351Q692-390 709-390h141q28.875 0 49.438 20.562Q920-348.875 920-320v130q0 12.75-8.625 21.375T890-160H690q-12.75 0-21.375-8.625T660-190v-89q-36 33-82.656 51-46.656 18-97.344 18-51 0-97-18t-83-51v89q0 12.75-8.625 21.375T270-160H70Zm410.039-170Q445-330 412.5-346.5T360-392q-16-23-38.5-37T273-448q29-30 91-46t116-16q54 0 116.5 16t91.5 46q-26 5-48.5 19t-38.192 36.807Q581-363 548.5-346.5 516-330 480.039-330ZM159.882-460Q114-460 82-492.118q-32-32.117-32-78Q50-616 82.118-648q32.117-32 78-32Q206-680 238-647.882q32 32.117 32 78Q270-524 237.882-492q-32.117 32-78 32Zm640 0Q754-460 722-492.118q-32-32.117-32-78Q690-616 722.118-648q32.117-32 78-32Q846-680 878-647.882q32 32.117 32 78Q910-524 877.882-492q-32.117 32-78 32Zm-320-120Q434-580 402-612.118q-32-32.117-32-78Q370-736 402.118-768q32.117-32 78-32Q526-800 558-767.882q32 32.117 32 78Q590-644 557.882-612q-32.117 32-78 32Z"/></svg>