<svg xmlns="http://www.w3.org/2000/svg" width="48" height="48" viewBox="0 -960 960 960"><path d="M264-840q63 0 119.5 26t96.5 71q40-45 96.5-71T696-840q110 0 187 77t77 187q0 42-12.5 85T909-405q-10-12-22.5-20.5T860-440q20-35 30-69t10-67q0-85-59.5-144.5T696-780q-55 0-108.5 32.5T480-649q-54-66-107.5-98.5T264-780q-85 0-144.5 59.5T60-576q0 33 10 67t30 69q-14 6-26.5 15T51-404q-26-43-38.5-86.5T0-576q0-110 77-187t187-77ZM30-80q-13 0-21.5-8.5T0-110v-23q0-39 41.5-63T150-220q12 0 23.5.5T196-217q-8 17-12 35t-4 38v64H30Zm240 0q-13 0-21.5-8.5T240-110v-34q0-65 66.5-105.5T480-290q108 0 174 40.5T720-144v34q0 13-8.5 21.5T690-80H270Zm510 0v-64q0-20-4-38t-12-35q11-2 22.5-2.5t23.5-.5q67 0 108.5 24t41.5 63v23q0 13-8.5 21.5T930-80H780ZM150-250q-29 0-49.5-20.5T80-320q0-29 20.5-49.5T150-390q29 0 49.5 20.5T220-320q0 29-20.5 49.5T150-250Zm660 0q-29 0-49.5-20.5T740-320q0-29 20.5-49.5T810-390q29 0 49.5 20.5T880-320q0 29-20.5 49.5T810-250Zm-330-70q-50 0-85-35t-35-85q0-50 35-85t85-35q50 0 85 35t35 85q0 50-35 85t-85 35Z"/></svg>