<svg xmlns="http://www.w3.org/2000/svg" width="48" height="48" viewBox="0 -960 960 960"><path d="m880-151-60-60v-404H416l-6-5v-160H252l-60-60h218q24.75 0 42.375 17.625T470-780v105h350q24.75 0 42.375 17.625T880-615v464ZM813-49l-71-71H140q-24.75 0-42.375-17.625T80-180v-601l-31-31q-9-9-9-21t9-21q9-9 21.5-9t21.5 9L855-91q9 9 9 21t-9 21q-9 9-21 9t-21-9ZM140-180h105v-105H140v105Zm0-165h105v-105H140v105Zm0-165h105v-105H140v105Zm165 330h105v-105H305v105Zm0-165h105v-105H305v105Zm165 165h211L576-285H470v105Zm245-270h-60v-60h60v60Z"/></svg>