<svg xmlns="http://www.w3.org/2000/svg" width="48" height="48"><path d="m44 40.45-3-3v-20.2H20.8l-.3-.25V9h-7.9l-3-3h10.9q1.25 0 2.125.875T23.5 9v5.25H41q1.25 0 2.125.875T44 17.25zM7 42q-1.25 0-2.125-.875T4 39V8.95L2.45 7.4q-.4-.4-.4-1.025 0-.625.4-1.075.45-.45 1.075-.45T4.6 5.3l38.15 38.15q.45.45.45 1.05 0 .6-.45 1.05-.45.45-1.05.45-.6 0-1.05-.45L37.1 42zm0-3h5.25v-5.25H7zm0-8.25h5.25V25.5H7zm0-8.25h5.25v-5.25H7zM15.25 39h5.25v-5.25h-5.25zm0-8.25h5.25V25.5h-5.25zM23.5 39h10.55l-5.25-5.25h-5.3zm12.25-13.5h-3v-3h3z"/></svg>