<svg xmlns="http://www.w3.org/2000/svg" width="48" height="48" viewBox="0 0 48 48"><path d="M5.35 41.2q-.55-.25-.775-.825-.225-.575.025-1.125l9.05-19.5q.25-.55.825-.75.575-.2 1.125.05t.775.825q.225.575-.025 1.125L7.3 40.5q-.25.55-.825.75-.575.2-1.125-.05Zm23.4 2.75q-.65 0-1.075-.425-.425-.425-.425-1.075V37.4l-4.4-.65q-2.5-.35-3.95-1.675-1.45-1.325-1.45-3.175 0-2 1.575-3.275T23 27.45q.55 0 1.025.05.475.05.875.1.5 0 .775-.25t.275-.65q-.25-.55-.675-1.125Q24.85 25 24.15 24.4q-.95-.95-1.6-1.85-.65-.9-.65-1.9 0-1.5.95-2.475.95-.975 2.4-.975.5 0 1.1.1.6.1 1.3.15.5 0 .725-.35.225-.35.225-1.1.05-1-.025-1.95-.075-.95-.075-1.9 0-2.9 1.5-4.45 1.5-1.55 4.2-1.55 2.45 0 4.1 1.4 1.65 1.4 1.65 3.5 0 1.35-.6 2.5t-.85 2.3q0 .4.25.675t.65.275q.4-.05.8-.125t.85-.075q2.05 0 3.5 1.45Q46 19.5 46 21.6q0 1.9-1.325 3.35Q43.35 26.4 41.3 27q-.7.25-1.025.525-.325.275-.325.575.2.4.775.8t1.475.7q1.55.6 2.35 1.65.8 1.05.8 2.35 0 1.95-1.75 3.025t-4.15 1.625l-3.2.75v3.45q0 .65-.425 1.075-.425.425-1.075.425ZM7.6 19.6q-.45.45-1.075.4-.625-.05-.975-.6-.75-1.2-1.15-2.575Q4 15.45 4 14q0-4.15 2.925-7.05 2.925-2.9 7.125-2.9 1.45 0 2.825.4 1.375.4 2.625 1.2.55.35.625.95.075.6-.375 1.05-.45.45-1.1.475-.65.025-1.25-.275-.75-.4-1.6-.6-.85-.2-1.7-.2-2.95 0-5.025 2.025T7 14q0 .85.2 1.675.2.825.6 1.575.3.6.275 1.25-.025.65-.475 1.1Z"/></svg>