<svg xmlns="http://www.w3.org/2000/svg" width="48" height="48" viewBox="0 96 960 960"><path d="M680 376q-13 0-21.5-8.5T650 346V206q0-13 8.5-21.5T680 176q13 0 21.5 8.5T710 206v140q0 13-8.5 21.5T680 376Zm0 140q-12 0-21-9t-9-21q0-12 9-21t21-9q12 0 21 9t9 21q0 12-9 21t-21 9Zm115 420q-122 0-242.5-60T336 720q-96-96-156-216.5T120 261q0-19 13-32t32-13h140q14 0 24.5 9.5T343 251l27 126q2 14-.5 25.5T359 422L259 523q56 93 125.5 162T542 802l95-98q10-11 23-15.5t26-1.5l119 26q15 3 25 15t10 28v135q0 19-13 32t-32 13Z"/></svg>