<svg xmlns="http://www.w3.org/2000/svg" width="48" height="48" viewBox="0 0 48 48"><path d="M32.25 6q5 0 8.375 3.7T44 18.5q0 .9-.1 1.775-.1.875-.35 1.725h-12.5l-3.4-5.1q-.25-.4-.7-.65Q26.5 16 26 16q-.65 0-1.175.4t-.725 1l-2.7 8.1-1.75-2.6q-.25-.4-.7-.65Q18.5 22 18 22H4.45q-.25-.85-.35-1.725Q4 19.4 4 18.55 4 13.4 7.35 9.7 10.7 6 15.7 6q2.4 0 4.525.95Q22.35 7.9 24 9.6q1.6-1.7 3.725-2.65T32.25 6ZM24 42q-.9 0-1.725-.325-.825-.325-1.475-.975L7.4 27.25q-.3-.3-.55-.6-.25-.3-.5-.65H16.9l3.4 5.1q.25.4.7.65.45.25.95.25.65 0 1.2-.4.55-.4.75-1l2.7-8.1 1.7 2.6q.3.4.75.65T30 26h11.6l-.5.6-.5.6-13.45 13.5q-.65.65-1.45.975Q24.9 42 24 42Z"/></svg>