<svg xmlns="http://www.w3.org/2000/svg" width="48" height="48" viewBox="0 -960 960 960"><path d="M193-280q-81 0-137.5-57T-1-475q0-81 57-137.5T194-669q71 0 124.5 45.5T383-508h51l-82-232h-43q-13 0-21.5-8.5T279-770q0-13 8.5-21.5T309-800h128q13 0 21.5 8.5T467-770q0 13-8.5 21.5T437-740h-22l26 71h222l-71-191h-75q-13 0-21.5-8.5T487-890q0-13 8.5-21.5T517-920h69q24 0 40.5 11t24.5 33l76 207h38q81 0 137.5 56T959-477q0 81-56.5 139T765-280q-72 0-126-48t-66-120H383q-11 72-64.5 120T193-280Zm0-60q48 0 83.5-31t47.5-77h-89q-13 0-21.5-8.5T205-478q0-13 8.5-21.5T235-508h89q-12-45-48-73t-82-28q-56 0-95.5 39T59-475q0 56 39 95.5t95 39.5Zm305-168h76q4-23 15.5-51t31.5-50H462l36 101Zm267 168q56 0 95-39.5t39-95.5q0-56-39-95t-95-39h-16l29 85q4 11-1 22t-18 16q-11 4-21.5-1.5T722-504l-33-85q-29 17-43.5 48T631-475q0 56 39 95.5t95 39.5ZM516-40 293-153h147v-76l227 114H516v75Z"/></svg>