<svg xmlns="http://www.w3.org/2000/svg" width="48" height="48" viewBox="0 96 960 960"><path d="M190 936q-12.75 0-21.375-8.675-8.625-8.676-8.625-21.5 0-12.825 8.625-21.325T190 876h579q12.75 0 21.375 8.675 8.625 8.676 8.625 21.5 0 12.825-8.625 21.325T769 936H190Zm121-120q-63 0-107-43.5T160 666V276q0-24.75 17.625-42.375T220 216h600q24 0 42 18t18 42v160q0 24-18 42t-42 18h-96v170q0 63-43.5 106.5T573 816H311Zm413-380h96V276h-96v160ZM311 756h261.978Q609 756 636.5 728.5T664 666V276H397v33l71 58q1 1 9 18v150q0 9.6-7 16.8-7 7.2-18 7.2H301q-11 0-18-7.2t-7-16.8V385q0-5 9-18l72-58v-33H220v390q0 35 28 62.5t63 27.5Zm46-480h40-40Zm85 240Z"/></svg>