<svg xmlns="http://www.w3.org/2000/svg" width="48" height="48" viewBox="0 96 960 960"><path d="M150 236q-12.75 0-21.375-8.675-8.625-8.676-8.625-21.5 0-12.825 8.625-21.325T150 176h253q12.75 0 21.375 8.675 8.625 8.676 8.625 21.5 0 12.825-8.625 21.325T403 236H150Zm127.228 285Q265 521 256 512q-9-9-9-21V338h-97q-12.75 0-21.375-8.675-8.625-8.676-8.625-21.5 0-12.825 8.625-21.325T150 278h253q12.75 0 21.375 8.675 8.625 8.676 8.625 21.5 0 12.825-8.625 21.325T403 338h-97v154q0 12.325-8.272 20.662-8.272 8.338-20.5 8.338ZM526 938q-9-9-9-21.5t9-21.5l270-270q9-9 21-8.5t21 9.5q9 9 9 21.5t-9 21.5L568 939q-9 9-21 8.5t-21-9.5Zm58-207q-23.4 0-38.7-15.3Q530 700.4 530 677q0-23.4 15.3-38.7Q560.6 623 584 623q23.4 0 38.7 15.3Q638 653.6 638 677q0 23.4-15.3 38.7Q607.4 731 584 731Zm202 207q-23.4 0-38.7-15.3Q732 907.4 732 884q0-23.4 15.3-38.7Q762.6 830 786 830q23.4 0 38.7 15.3Q840 860.6 840 884q0 23.4-15.3 38.7Q809.4 938 786 938ZM628 536q-38 0-64-27.5T538 446q0-38 26-64t64-26q13.161 0 23.581 3.5Q662 363 670 368V205q0-12.325 8.338-20.662Q686.675 176 699 176h112q12.325 0 20.662 8.272 8.338 8.272 8.338 20.5T831.662 226q-8.337 9-20.662 9h-93v211q0 38-26 64t-64 26ZM211 976q-38 0-64.5-26.5T120 885q0-20 7-36.721 7-16.721 21-30.279l52-52-20-20q-14-14-21.5-31.5T151 680q0-38 26.5-64.5T242 589q38 0 64.5 26.5T333 680q0 17-5.5 34.5T308 746l-20 20 50 50 39-39q9-9 21-9t21.391 9Q428 786 428 798t-9 21l-42 42 33 33q8 7.822 8 19.911Q418 926 409.946 934q-8.053 8-20.5 8Q377 942 369 934l-39-38-51 51q-14 14-31 21.5t-37 7.5Zm31-250 23.059-23.059Q270 698 271.5 693.2t1.5-12.8q0-14.4-8.5-22.9Q256 649 242 649t-22.5 8.525Q211 666.05 211 680q0 8 1.5 13t6.441 9.941L242 726Zm-31.182 190Q216 916 223 913t12-8l52-52-43-43-53 53q-5 4.636-7.5 10.818Q181 880 181 886q0 14 8 22t21.818 8Z"/></svg>