<svg xmlns="http://www.w3.org/2000/svg" width="48" height="48" viewBox="0 -960 960 960"><path d="M180-80q-24 0-42-18t-18-42v-620q0-24 18-42t42-18h65v-28q0-13.6 9.2-22.8 9.2-9.2 22.8-9.2 14.025 0 23.513 9.2Q310-861.6 310-848v28h340v-28q0-13.6 9.2-22.8 9.2-9.2 22.8-9.2 14.025 0 23.513 9.2Q715-861.6 715-848v28h65q24 0 42 18t18 42v270q0 12.75-8.675 21.375-8.676 8.625-21.5 8.625-12.825 0-21.325-8.625T780-490v-80H180v430h294q12.75 0 21.375 8.675 8.625 8.676 8.625 21.5Q504-97 495.375-88.5T474-80H180ZM760 0q-64 0-114.5-35.5T573-128q-5-11 2.5-21.5T595-160q14 0 25.5 8.5T639-130q18 32 50 51t71 19q58 0 99-41t41-99q0-58-41-99t-99-41q-29 0-54 10.5T662-300h28q13 0 21.5 8.5T720-270q0 13-8.5 21.5T690-240H590q-12.75 0-21.375-8.625T560-270v-100q0-13 8.5-21.5T590-400q13 0 21.5 8.5T620-370v27q27-26 63-41.5t77-15.5q83 0 141.5 58.5T960-200q0 83-58.5 141.5T760 0Z"/></svg>