<svg xmlns="http://www.w3.org/2000/svg" width="48" height="48" viewBox="0 -960 960 960"><path d="M192-80q-12.75 0-21.375-8.675-8.625-8.676-8.625-21.5 0-12.825 8.625-21.325T192-140h576q12.75 0 21.375 8.675 8.625 8.676 8.625 21.5Q798-97 789.375-88.5T768-80H192Zm0-740q-12.75 0-21.375-8.675-8.625-8.676-8.625-21.5 0-12.825 8.625-21.325T192-880h576q12.75 0 21.375 8.675 8.625 8.676 8.625 21.5 0 12.825-8.625 21.325T768-820H192Zm289.867 638Q476-182 471-184q-5-2-10-7L351-301q-8-8-8-20.8t9.214-22.4q8.447-8.8 21.116-8.8 12.67 0 21.67 9l57 58v-388l-58 58q-8 8-20.364 8-12.363 0-21.636-9-9-9-9-21.5t9-21.5l109-109q5-5 10.133-7 5.134-2 11-2Q488-778 493-776q5 2 10 7l110 110q8 8 8.5 20.5t-8.714 21.891Q604.339-608 591.67-608 579-608 570-617l-58-57v388l58-58q8-8 21-8.5t22 8.5q9 9 9 21.5t-9 21.5L503-191q-5 5-10.133 7-5.134 2-11 2Z"/></svg>