<svg xmlns="http://www.w3.org/2000/svg" width="48" height="48" viewBox="0 96 960 960"><path d="M480 996q-63 0-106.5-43.5T330 846q0-55 34.5-95.5T450 699v-93H270q-24.75 0-42.375-17.625T210 546v-90h-80q-12.75 0-21.375-8.625T100 426V206q0-12.75 8.625-21.375T130 176h220q12.75 0 21.375 8.625T380 206v220q0 12.75-8.625 21.375T350 456h-80v90h420v-93q-51-11-85.5-51.5T570 306q0-63 43.5-106.5T720 156q63 0 106.5 43.5T870 306q0 55-34.5 95.5T750 453v93q0 24.75-17.625 42.375T690 606H510v93q51 11 85.5 51.5T630 846q0 63-43.5 106.5T480 996Zm239.798-600Q757 396 783.5 369.702t26.5-63.5Q810 269 783.702 242.5t-63.5-26.5Q683 216 656.5 242.298t-26.5 63.5Q630 343 656.298 369.5t63.5 26.5ZM160 396h160V236H160v160Zm319.798 540Q517 936 543.5 909.702t26.5-63.5Q570 809 543.702 782.5t-63.5-26.5Q443 756 416.5 782.298t-26.5 63.5Q390 883 416.298 909.5t63.5 26.5ZM240 316Zm480-10ZM480 846Z"/></svg>