<svg xmlns="http://www.w3.org/2000/svg" width="48" height="48" viewBox="0 -960 960 960"><path d="M110-430h170v-70h-90q-12.75 0-21.375-8.675-8.625-8.676-8.625-21.5 0-12.825 8.625-21.325T190-560h90q24.75 0 42.375 17.625T340-500v70h110v-296q0-64 45.5-109T605-880q44 0 80 22.5t56 61.5l28 57q6 11 1.5 23.5T755-698q-11 5-23.5 1T714-712l-27-56q-12-23-34.449-37.5-22.449-14.5-48.265-14.5Q565-820 537.5-792.583 510-765.167 510-726v296h110v-70q0-24.75 17.625-42.375T680-560h90q12.75 0 21.375 8.675 8.625 8.676 8.625 21.5 0 12.825-8.625 21.325T770-500h-90v70h170q12.75 0 21.375 8.675 8.625 8.676 8.625 21.5 0 12.825-8.625 21.325T850-370H110q-12.75 0-21.375-8.675Q80-387.351 80-400.175 80-413 88.625-421.5T110-430Zm110 310q-24.75 0-42.375-17.625T160-180v-190h60v190h520v-190h60v180q0 28.875-20.562 49.438Q758.875-120 730-120H220Z"/></svg>