<svg xmlns="http://www.w3.org/2000/svg" width="48" height="48" viewBox="0 -960 960 960"><path d="M174-357h132q20 0 35-15t15-35v-146q0-20-15-35t-35-15H174q-6 0-10.5 4.5T159-588v216q0 6 4.5 10.5T174-357Zm35-50v-146h97v146h-97Zm270-21-49-160q-2-7-7.7-11t-13.3-4q-11 0-17 8t-3 19l57 202q2 8 8.324 12.5 6.323 4.5 14.754 4.5h13.491q8.431 0 14.931-4.5T506-374l63-199q4-11.351-3.446-20.676Q558.108-603 546.378-603q-8.378 0-14.878 5t-8.5 13l-44 157Zm176-18h58l27 74q2.471 7.059 8.235 11.029Q754-357 762-357q12 0 19.5-10.5T784-389l-23-62q17-4 29-16.5t12-28.5v-57q0-20-15-35t-35-15H620q-6 0-10.5 4.5T605-588v206q0 10.833 7.116 17.917 7.117 7.083 18 7.083Q641-357 648-364.083q7-7.084 7-17.917v-64Zm0-50v-57h97v57h-97ZM100-160q-24 0-42-18t-18-42v-520q0-24 18-42t42-18h760q24.75 0 42.375 18T920-740v520q0 24-17.625 42T860-160H100Zm0-60h760v-520H100v520Zm0 0v-520 520Z"/></svg>