<svg xmlns="http://www.w3.org/2000/svg" width="48" height="48" viewBox="0 -960 960 960"><path d="m792-83-78-77H220q-24 0-42-18t-18-42v-113q0-12.75 8.675-21.375 8.676-8.625 21.5-8.625 12.825 0 21.325 8.625T220-333v113h434L521-353l-20 19q-5 5-9.5 7t-11.5 2q-6.957 0-11.478-2-4.522-2-9.757-7.235L308-485q-9-9-8-22t9-21q7-7 14.5-8t16.5 1L83-792q-9-9-9-21.526 0-12.527 9.053-21.369Q91.35-843 104.175-843T126-835l709 710q8 8.311 8 21.156Q843-91 834.702-82.87 825.649-74 812.825-74 800-74 792-83Zm8-163-60-60v-27q0-13 8.654-21.5T770-363q12.75 0 21.375 8.625T800-333v87ZM606-439l-43-44 46-46q9-9 21.5-9t21.5 9q9 9 9 22.222 0 13.222-9 21.778l-46 46Zm-96-97-60-60v-174q0-12.75 8.675-21.375 8.676-8.625 21.5-8.625 12.825 0 21.325 8.625T510-770v234Z"/></svg>