<svg xmlns="http://www.w3.org/2000/svg" width="48" height="48" viewBox="0 96 960 960"><path d="M375 679h331q9 0 13.5-8t-1.5-16l-97-131q-5-6-12-6t-12 6l-91 119-56-72q-5-6-12-5.5t-12 6.5l-63 83q-6 8-1.875 16T375 679ZM260 856q-24 0-42-18t-18-42V236q0-24 18-42t42-18h560q24 0 42 18t18 42v560q0 24-18 42t-42 18H260Zm0-60h560V236H260v560ZM140 976q-24 0-42-18t-18-42V326q0-12.75 8.675-21.375 8.676-8.625 21.5-8.625 12.825 0 21.325 8.625T140 326v590h590q12.75 0 21.375 8.675 8.625 8.676 8.625 21.5 0 12.825-8.625 21.325T730 976H140Zm120-740v560-560Z"/></svg>