<svg xmlns="http://www.w3.org/2000/svg" width="48" height="48" viewBox="0 96 960 960"><path d="m385 396-60-60h485q12.75 0 21.375 8.675 8.625 8.676 8.625 21.5 0 12.825-8.625 21.325T810 396H385Zm210 210-60-60h155q12.75 0 21.375 8.675 8.625 8.676 8.625 21.5 0 12.825-8.625 21.325T690 606h-95Zm-65 210H430q-12.75 0-21.375-8.675-8.625-8.676-8.625-21.5 0-12.825 8.625-21.325T430 756h100q12.75 0 21.375 8.675 8.625 8.676 8.625 21.5 0 12.825-8.625 21.325T530 816Zm262 157L424 606H270q-12.75 0-21.375-8.675-8.625-8.676-8.625-21.5 0-12.825 8.625-21.325T270 546h94L82 264q-9-9.067-9-21.533Q73 230 82.053 221q9.052-9 21.5-9Q116 212 125 221l710 710q9 9 9 21t-9.053 21q-9.052 9-21.5 9Q801 982 792 973ZM214 336v60h-64q-12.75 0-21.375-9T120 366q0-14 8-22t22-8h64Z"/></svg>