<svg xmlns="http://www.w3.org/2000/svg" width="48" height="48" viewBox="0 96 960 960"><path d="M458 718h171q12 0 20.5-9t8.5-21q0-13-8.5-21.5T628 658H488V546h110q24 0 42-18t18-42V373q0-24-18-42t-42-18H457q-12 0-20.5 9t-8.5 21q0 13 8.5 21.5T458 373h140v113H488q-25 0-42.5 18T428 546v142q0 13 8.5 21.5T458 718ZM260 856q-24 0-42-18t-18-42V236q0-24 18-42t42-18h560q24 0 42 18t18 42v560q0 24-18 42t-42 18H260ZM140 976q-24 0-42-18t-18-42V325q0-12 9-20.5t21-8.5q13 0 21.5 8.5T140 326v590h591q12 0 20.5 9t8.5 21q0 13-8.5 21.5T730 976H140Z"/></svg>