<svg xmlns="http://www.w3.org/2000/svg" width="48" height="48" viewBox="0 96 960 960"><path d="M415 677h58q24.75 0 42.375-18T533 617V415q0-24-17.625-42T473 355h-71q-24 0-42 18t-18 42v71q0 24 18 42t42 18h71v71h-58q-12 0-20.5 8.675-8.5 8.676-8.5 21.5 0 12.825 8.551 21.325Q403.103 677 415 677Zm58-191h-71v-71h71v71Zm204 55v58q0 12 8.675 20.5 8.676 8.5 21.5 8.5 12.825 0 21.325-8.551Q737 610.897 737 599v-58h54q12 0 20.5-8.675 8.5-8.676 8.5-21.5 0-12.825-8.551-21.325Q802.897 481 791 481h-54v-54q0-12-8.675-20.5-8.676-8.5-21.5-8.5-12.825 0-21.325 8.551Q677 415.103 677 427v54h-54q-12 0-20.5 8.675-8.5 8.676-8.5 21.5 0 12.825 8.551 21.325Q611.103 541 623 541h54ZM260 856q-24 0-42-18t-18-42V236q0-24 18-42t42-18h560q24 0 42 18t18 42v560q0 24-18 42t-42 18H260ZM140 976q-24 0-42-18t-18-42V325q0-12 9-20.5t21.5-8.5q12.5 0 21 8.625T140 326v590h591q12 0 20.5 9t8.5 21.5q0 12.5-8.625 21T730 976H140Z"/></svg>