<svg xmlns="http://www.w3.org/2000/svg" width="48" height="48" viewBox="0 96 960 960"><path d="M132 896q-24 0-42-18t-18-42V316q0-24 18-42t42-18h696q24 0 42 18t18 42H132v520h348v60H132Zm0-60V316v520Zm618 140q-24.75 0-42.375-17.625T690 916v-62q-73-11-121.5-66.5T520 656V436q0-24.75 17.25-42.375T580 376h280q24.75 0 42.375 17.625T920 436v220q0 76-49 131.5T750 854v62h100q12.75 0 21.375 8.675 8.625 8.676 8.625 21.5 0 12.825-8.625 21.325T850 976H750Zm40-350h75V431H575v115h55q30.489 0 57.745 14Q715 574 734 598q10 14 24.5 21t31.5 7Zm-70 175q53 0 92-32.5t50-82.5h-72q-30.848 0-58.424-13.5T686 634q-10.588-12.833-25.294-20.417Q646 606 630 606h-55v50q0 61 42 103t103 42Zm-34-203Zm-256-82q12.75 0 21.375-8.675 8.625-8.676 8.625-21.5 0-12.825-8.625-21.325T430 456H270q-12.75 0-21.375 8.675-8.625 8.676-8.625 21.5 0 12.825 8.625 21.325T270 516h160Zm0 180q12.75 0 21.375-8.675 8.625-8.676 8.625-21.5 0-12.825-8.625-21.325T430 636H270q-12.75 0-21.375 8.675-8.625 8.676-8.625 21.5 0 12.825 8.625 21.325T270 696h160Z"/></svg>