<svg xmlns="http://www.w3.org/2000/svg" width="48" height="48" viewBox="0 0 48 48"><path d="M36.05 39.15q2.2 0 3.65-1.45 1.45-1.45 1.45-3.65T39.7 30.4q-1.45-1.45-3.65-1.45T32.4 30.4q-1.45 1.45-1.45 3.65t1.45 3.65q1.45 1.45 3.65 1.45Zm-.15 4.75q-.55 0-1-.4-.45-.4-.5-.95l-.1-1.05q-1.15-.35-2.1-.925-.95-.575-1.65-1.225l-.85.4q-.55.25-1.1.075t-.9-.675l-.2-.3q-.35-.55-.25-1.125.1-.575.6-.975l.75-.6q-.25-.95-.25-2.075 0-1.125.25-2.075l-.75-.6q-.5-.4-.6-1-.1-.6.25-1.15l.2-.3q.35-.55.925-.7.575-.15 1.125.1l.8.4q.7-.6 1.65-1.175.95-.575 2.1-.925l.1-1.1q.05-.55.5-.95.45-.4 1-.4h.35q.55 0 .95.375.4.375.5.925l.15 1.15q1.15.35 2.1.925.95.575 1.65 1.175l.8-.4q.55-.25 1.125-.1t.925.7l.2.3q.35.55.25 1.15-.1.6-.6 1l-.75.6q.25.95.25 2.075 0 1.125-.25 2.075l.75.6q.5.4.6.975.1.575-.25 1.125l-.2.35q-.35.5-.9.65-.55.15-1.1-.1l-.85-.4q-.7.65-1.65 1.225-.95.575-2.1.925l-.15 1.1q-.1.55-.5.925t-.95.375ZM7.05 40q-1.25 0-2.125-.875T4.05 37V11q0-1.25.875-2.125T7.05 8H19.8q.6 0 1.175.25.575.25.975.65l2.1 2.1h17q1.25 0 2.125.875T44.05 14v9.75q-1.75-1.35-3.775-2.05-2.025-.7-4.225-.7-5.45 0-9.225 3.775Q23.05 28.55 23.05 34q0 1.6.375 3.1T24.5 40Z"/></svg>