<svg xmlns="http://www.w3.org/2000/svg" width="48" height="48" viewBox="0 -960 960 960"><path d="M220-120q-24.75 0-42.375-17.625T160-180v-390q0-14.25 6.375-27T184-618l260-195q15.68-12 35.84-12Q500-825 516-813l260 195q11.25 8.25 17.625 21T800-570v390q0 24.75-17.625 42.375T740-120H220Zm180-280v140q0 8 6 14t14 6q8 0 14-6t6-14v-140q25 0 42.5-17.5T500-460v-100q0-8-6-14t-14-6q-8 0-14 6t-6 14v100h-20v-100q0-8-6-14t-14-6q-8 0-14 6t-6 14v100h-20v-100q0-8-6-14t-14-6q-8 0-14 6t-6 14v100q0 25 17.5 42.5T400-400Zm180 160q8 0 14-6t6-14.237V-565q0-5.6-4.5-9.8Q591-579 585-579q-29 0-47 24.045-18 24.046-18 55.41V-395q0 6 4.5 10.5T535-380h25v120q0 8 6 14t14 6Z"/></svg>