<svg xmlns="http://www.w3.org/2000/svg" width="48" height="48" viewBox="0 96 960 960"><path d="M619.882 896Q599 896 584.5 881.417 570 866.833 570 846V356H410q-20.833 0-35.417-14.618Q360 326.765 360 305.882 360 285 374.583 270.5 389.167 256 410 256h420q20.833 0 35.417 14.618Q880 285.235 880 306.118 880 327 865.417 341.5 850.833 356 830 356H670v490q0 20.833-14.618 35.417Q640.765 896 619.882 896Zm-360 0Q239 896 224.5 881.417 210 866.833 210 846V556h-80q-20.833 0-35.417-14.618Q80 526.765 80 505.882 80 485 94.583 470.5 109.167 456 130 456h260q20.833 0 35.417 14.618Q440 485.235 440 506.118 440 527 425.417 541.5 410.833 556 390 556h-80v290q0 20.833-14.618 35.417Q280.765 896 259.882 896Z"/></svg>