<svg xmlns="http://www.w3.org/2000/svg" width="48" height="48" viewBox="0 -960 960 960"><path d="M159.825-280Q147-280 138.5-288.625T130-310v-340q0-12.75 8.675-21.375 8.676-8.625 21.5-8.625 12.825 0 21.325 8.625T190-650v140h180v-140q0-12.75 8.675-21.375 8.676-8.625 21.5-8.625 12.825 0 21.325 8.625T430-650v340q0 12.75-8.675 21.375-8.676 8.625-21.5 8.625-12.825 0-21.325-8.625T370-310v-140H190v140q0 12.75-8.675 21.375-8.676 8.625-21.5 8.625ZM610-280q-24.75 0-42.375-17.625T550-340v-280q0-24.75 17.625-42.375T610-680h210q12.75 0 21.375 8.675 8.625 8.676 8.625 21.5 0 12.825-8.625 21.325T820-620H610v110h180q24.75 0 42.375 17.625T850-450v110q0 24.75-17.625 42.375T790-280H610Zm0-170v110h180v-110H610Z"/></svg>