<svg xmlns="http://www.w3.org/2000/svg" width="48" height="48" viewBox="0 0 48 48"><path d="M24 44q-3.75 0-7.025-1.425-3.275-1.425-5.7-3.85-2.425-2.425-3.85-5.7Q6 29.75 6 26q0-3.75 1.425-7.025 1.425-3.275 3.85-5.7 2.425-2.425 5.7-3.85Q20.25 8 24 8h1.15l-2.9-2.9q-.4-.4-.375-1.025.025-.625.425-1.025.4-.4 1.025-.4.625 0 1.025.4l5.25 5.3q.45.45.45 1.05 0 .6-.45 1.05l-5.25 5.25q-.45.45-1.075.45t-1.025-.45q-.45-.45-.425-1.05.025-.6.475-1.05l2.6-2.6h-1.15q-6.2 0-10.475 4.375Q9 19.75 9 26t4.375 10.625Q17.75 41 24 41q5.8 0 10.1-3.875t4.85-9.625q.1-.65.525-1.075Q39.9 26 40.5 26q.65 0 1.075.45.425.45.375 1.05-.55 7.05-5.725 11.775Q31.05 44 24 44Z"/></svg>