<svg xmlns="http://www.w3.org/2000/svg" width="48" height="48" viewBox="0 -960 960 960"><path d="M230-160q-12.75 0-21.375-8.5T200-190v-100h-50q-12 0-21-8.625T120-320q0-12.75 8.5-21.375T150-350h50v-130h-81q-10.5 0-14.25-9.5T109-506l351-316q8.186-8 20.093-8T500-822l351 316q8 7 4.25 16.5T841-480h-81v130h50q12.75 0 21.375 8.675 8.625 8.676 8.625 21.5 0 12.825-8.625 21.325T810-290h-50v100q0 12-8.625 21T730-160q-12.75 0-21.375-8.5T700-190v-100H510v100q0 12-8.625 21T480-160q-12.75 0-21.375-8.5T450-190v-100H260v100q0 12-8.625 21T230-160Zm30-190h190v-382L260-562v212Zm250 0h190v-212L510-732v382Z"/></svg>