<svg xmlns="http://www.w3.org/2000/svg" width="48" height="48" viewBox="0 -960 960 960"><path d="M480-480q-51 0-85.5-34.5T360-600q0-50 34.5-85t85.5-35q50 0 85 35t35 85q0 51-35 85.5T480-480ZM240-270v-46.105Q240-343 257.5-363.5 275-384 300-397q42-22 86.943-32.5 44.942-10.5 93-10.5Q528-440 573-429.5t87 32.5q25 13 42.5 33.5t17.5 47.395V-270q0 12.75-8.625 21.375T690-240H270q-12.75 0-21.375-8.625T240-270ZM140-80q-24 0-42-18t-18-42v-142q0-12.75 8.675-21.375 8.676-8.625 21.5-8.625 12.825 0 21.325 8.625T140-282v142h142q12.75 0 21.375 8.675 8.625 8.676 8.625 21.5Q312-97 303.375-88.5T282-80H140ZM80-678v-142q0-24 18-42t42-18h142q12.75 0 21.375 8.675 8.625 8.676 8.625 21.5 0 12.825-8.625 21.325T282-820H140v142q0 12.75-8.675 21.375-8.676 8.625-21.5 8.625Q97-648 88.5-656.625T80-678ZM820-80H678q-12.75 0-21.375-8.675-8.625-8.676-8.625-21.5 0-12.825 8.625-21.325T678-140h142v-142q0-12.75 8.675-21.375 8.676-8.625 21.5-8.625 12.825 0 21.325 8.625T880-282v142q0 24-18 42t-42 18Zm0-598v-142H678q-12.75 0-21.375-8.675-8.625-8.676-8.625-21.5 0-12.825 8.625-21.325T678-880h142q24 0 42 18t18 42v142q0 12.75-8.675 21.375-8.676 8.625-21.5 8.625-12.825 0-21.325-8.625T820-678Z"/></svg>