<svg xmlns="http://www.w3.org/2000/svg" width="48" height="48" viewBox="0 0 48 48"><path d="M24 16.3Zm7.7 7.7Zm-15.35 0ZM24 31.65ZM22.95 19.4l-4.05-4.1q-.25-.25-.35-.5-.1-.25-.1-.55V5.5q0-.65.425-1.075Q19.3 4 19.95 4h8.15q.65 0 1.075.425.425.425.425 1.075v8.75q0 .3-.1.55-.1.25-.35.5l-4.1 4.1q-.45.45-1.05.45-.6 0-1.05-.45Zm10.8 10.15q-.3 0-.55-.1-.25-.1-.5-.35l-4.1-4.05q-.45-.45-.45-1.05 0-.6.45-1.05l4.1-4.1q.25-.25.5-.35.25-.1.55-.1h8.75q.65 0 1.075.425Q44 19.25 44 19.9v8.15q0 .65-.425 1.075-.425.425-1.075.425Zm-28.25 0q-.65 0-1.075-.425Q4 28.7 4 28.05V19.9q0-.65.425-1.075Q4.85 18.4 5.5 18.4h8.75q.3 0 .55.1.25.1.5.35l4.1 4.1q.45.45.45 1.05 0 .6-.45 1.05l-4.1 4.05q-.25.25-.5.35-.25.1-.55.1ZM19.95 44q-.65 0-1.075-.425-.425-.425-.425-1.075v-8.75q0-.3.1-.55.1-.25.35-.5l4.05-4.1q.45-.45 1.05-.45.6 0 1.05.45l4.1 4.1q.25.25.35.5.1.25.1.55v8.75q0 .65-.425 1.075Q28.75 44 28.1 44ZM24 16.3l2.6-2.6V7h-5.15v6.7ZM7 26.55h6.75l2.6-2.55-2.6-2.6H7ZM21.45 41h5.15v-6.75l-2.6-2.6-2.55 2.6ZM34.3 26.55H41V21.4h-6.7L31.7 24Z"/></svg>