<svg xmlns="http://www.w3.org/2000/svg" width="48" height="48" viewBox="0 -960 960 960"><path d="M280-337h150q10 0 16.5-6.5T453-360q0-10-6.5-16.5T430-383H319l128-190q1-2 3-25 0-8-6-14t-14-6H284q-10 0-16.5 6.5T261-595q0 10 6.5 16.5T284-572h106L263-382q-1 1-3 25 0 8 6 14t14 6Zm280-109h43l57 97q3 5 8.5 8.5T681-337q14 0 21.5-13t-.5-25l-54-86q26-11 39-29t13-44q0-41-26-62.5T597-618h-57q-13 0-21.5 8.5T510-588v226q0 11 7 18t18 7q11 0 18-7t7-18v-84Zm0-44v-83h35q26 0 40 11t14 31q0 20-15 30.5T590-490h-30Zm320-250v426q0 64-44.5 109T727-160H233q-64 0-108.5-45T80-314v-426q0-25 17.5-42.5T140-800h680q25 0 42.5 17.5T880-740Z"/></svg>