<svg xmlns="http://www.w3.org/2000/svg" width="48" height="48" viewBox="0 96 960 960"><path d="M120 736q0-45.833 32.083-77.917Q184.167 626 230 626h80q75 0 102.5-33t27.5-77q0-32-17.25-51T380 446q-24.75 0-42.375-17.625T320 386V206q0-12.75 8.675-21.375 8.676-8.625 21.5-8.625 12.825 0 21.325 8.625T380 206v180q2 0 0 0 50 0 85 36.5t35 93.5q0 69-45 119.5T310 686h-80q-21.25 0-35.625 14.375T180 736v210q0 12.75-8.675 21.375-8.676 8.625-21.5 8.625-12.825 0-21.325-8.625T120 946V736Zm180 160q0-45.833 32.083-77.917Q364.167 786 410 786h160q88 0 149-61t61-149v-40q0-88-66-149t-154-61q-24.75 0-42.375-17.625T500 266v-60q0-12.75 8.675-21.375 8.676-8.625 21.5-8.625 12.825 0 21.325 8.625T560 206v60q112 0 196 79t84 191v40q0 112-79 191t-191 79H410q-21.25 0-35.625 14.375T360 896v50q0 12.75-8.675 21.375-8.676 8.625-21.5 8.625-12.825 0-21.325-8.625T300 946v-50Zm-120 80V736q0-21.25 14.375-35.625T230 686h80q100 0 145-50.5T500 516q0-57-35-93.5T377 386l3-210-3 210q53 0 88 36.5t35 93.5q0 69-45 119.5T310 686h-80q-21.25 0-35.625 14.375T180 736v240Z"/></svg>