<svg xmlns="http://www.w3.org/2000/svg" width="48" height="48"><path d="M10 32v-4h4v4zm6 6v-4h16v4zm18-6v-4h4v4zM8 44q-1.65 0-2.825-1.175Q4 41.65 4 40V20q0-1.65 1.175-2.825Q6.35 16 8 16h4V6q0-.85.575-1.425Q13.15 4 14 4h20q.85 0 1.425.575Q36 5.15 36 6v10h4q1.65 0 2.825 1.175Q44 18.35 44 20v20q0 1.65-1.175 2.825Q41.65 44 40 44zm16-15.9 9-7.5V7H15v13.6zM8 40h32V20h-4v1.05q0 .25-.25.95H38v4h-4v-2.35L28.8 28H32v4h-4v-3.3l-2 1.65V32h-4v-1.7l-2-1.65V32h-4v-4h3.2L14 23.65V26h-4v-4h2.25q-.1-.25-.175-.475Q12 21.3 12 21.05V20H8zm16.2-18q-2.55 0-4.325-1.7Q18.1 18.6 18.1 16q0-2.6 1.775-4.3Q21.65 10 24.2 10q2.1 0 3.15.8 1.05.8 1.2 1l-1.5 1.45q-.6-.7-1.325-.95t-1.575-.25q-1.65 0-2.75 1.1T20.3 16q0 1.75 1.125 2.825Q22.55 19.9 24.2 19.9q.85 0 2-.5t1.5-2.15h-3.6V15.4h5.65q.1.25.125.5.025.25.025.55 0 2.7-1.65 4.125Q26.6 22 24.2 22z"/></svg>