<svg xmlns="http://www.w3.org/2000/svg" width="48" height="48" viewBox="0 96 960 960"><path d="M561 938q-51 0-85.5-35.5T441 810q0-50 23.5-86t58.5-60q35-24 74.5-36.5T669 612q-3-57-24.5-82T584 505q-39 0-73 23.5T420 630q-63 84-101.5 113T234 772q-43 0-78.5-29T120 644q0-32 22.5-82.5T220 422q26-38 37.5-63t11.5-42q0-11-6-17.5t-18-6.5q-9 0-20 5t-24 16q-11 10-25 10t-24-11q-11-11-11-25.5t11-24.5q23-21 46-31t47-10q42 0 68.5 28t26.5 70q0 35-18.5 70T263 486q-45 67-58.5 99T191 649q0 32 16.5 42t34.5 10q24 0 49-23t77-91q68-88 118-120.5T593 434q66 0 104 48.5T740 609h65q14 0 24.5 10.5T840 644q0 15-10.5 25.5T805 680h-65q-10 155-69 206.5T561 938Zm3-71q31 0 66.5-40T671 682q-49 5-104 40t-55 95q0 23 13.5 36.5T564 867Z"/></svg>