<svg xmlns="http://www.w3.org/2000/svg" width="48" height="48" viewBox="0 -960 960 960"><path d="M474-486q26-32 38.5-66t12.5-79q0-45-12.5-79T474-776q76-17 133.5 23T665-631q0 82-57.5 122T474-486Zm194 326q10-2 16-10.5t6-21.5v-62q0-51-26-95t-90-74q173 22 236.5 64T874-254v64q0 13-8.5 21.5T844-160H668Zm62-389q-13 0-21.5-8.5T700-579q0-13 8.5-21.5T730-609h200q13 0 21.5 8.5T960-579q0 13-8.5 21.5T930-549H730Zm-415 68q-66 0-108-42t-42-108q0-66 42-108t108-42q66 0 108 42t42 108q0 66-42 108t-108 42ZM30-160q-13 0-21.5-8.5T0-190v-64q0-35 18.5-63.5T68-360q72-32 128.5-46T315-420q62 0 118 14t128 46q31 14 50 42.5t19 63.5v64q0 13-8.5 21.5T600-160H30Z"/></svg>