<svg xmlns="http://www.w3.org/2000/svg" width="48" height="48" viewBox="0 -960 960 960"><path d="M358-220ZM98-160q-25 0-42.5-17.5T38-220v-34q0-35 18-63.5t50-42.5q73-32 131.5-46T358-420q35 0 67.5 4t67.5 14q11 3 15 13t0 21q-4 11-14.5 17t-27.5 2q-27-6-53-8.5t-55-2.5q-57 0-106.5 11T130-306q-14 6-23 21t-9 31v34h368q14 0 22 9.5t8 20.5q0 11-7.5 20.5T466-160H98Zm152-363q-42-42-42-108t42-108q42-42 108-42t108 42q42 42 42 108t-42 108q-42 42-108 42t-108-42Zm426 0q-42 42-108 42-11 0-24.5-1.5T519-488q24-25 36.5-61.5T568-631q0-45-12.5-79.5T519-774q11-3 24.5-5t24.5-2q66 0 108 42t42 108q0 66-42 108Zm-253.5-43.5Q448-592 448-631t-25.5-64.5Q397-721 358-721t-64.5 25.5Q268-670 268-631t25.5 64.5Q319-541 358-541t64.5-25.5ZM358-631Zm396 425q26-26 26-64t-26-64q-26-26-64-26t-64 26q-26 26-26 64t26 64q26 26 64 26t64-26Zm-64 86q-62 0-106-44t-44-106q0-63 44-106.5T690-420q63 0 106.5 43.5T840-270q0 23-6.5 44T815-187l82 82q8 8 8 19t-8 19q-8 8-19 8t-19-8l-82-81q-19 14-40.5 21t-46.5 7Z"/></svg>