<svg xmlns="http://www.w3.org/2000/svg" width="48" height="48" viewBox="0 -960 960 960"><path d="M240-40q-83 0-141.5-58.5T40-240q0-10.833 7.116-17.917 7.117-7.083 18-7.083Q76-265 83-257.917q7 7.084 7 17.917 0 63 43.5 106.5T240-90q10.833 0 17.917 7.116 7.083 7.117 7.083 18Q265-54 257.917-47q-7.084 7-17.917 7Zm674.884-694Q904-734 897-741.083q-7-7.084-7-17.917 0-54-38.5-92.5T759-890q-10.833 0-17.917-7.116-7.083-7.117-7.083-18Q734-926 741.083-933q7.084-7 17.917-7 75 0 128 53t53 128q0 10.833-7.116 17.917-7.117 7.083-18 7.083ZM402-40q-27 0-51.5-12.5T311-88L68-446q-6-9-4-20t10-18q17-15 39.5-19t44.573 13.188L280-397v-413q0-12.75 8.675-21.375 8.676-8.625 21.5-8.625 12.825 0 21.325 8.625T340-810v330h107v-410q0-12.75 8.675-21.375 8.676-8.625 21.5-8.625 12.825 0 21.325 8.625T507-890v410h107v-370q0-12.75 8.675-21.375 8.676-8.625 21.5-8.625 12.825 0 21.325 8.625T674-850v370h106v-290q0-12.75 8.675-21.375 8.676-8.625 21.5-8.625 12.825 0 21.325 8.625T840-770v580q0 63-43.5 106.5T690-40H402Z"/></svg>