<svg xmlns="http://www.w3.org/2000/svg" width="48" height="48" viewBox="0 96 960 960"><path d="M804 696q-8 0-14-4.5t-9-11.5l-25-65h-72v57.407q0 4.593-1.5 8.593t-4.5 7l-42-42V486q0-12.75 8.625-21.375T666 456h125q23 0 36 13t13 36v61q0 17-11 29t-28 14l23 58q5 12-1 20.5t-19 8.5ZM684 567h108v-63H684v63Zm113 410L91 272q-9-9-8.5-21.5T92 229q9-9 21.5-9t21.5 9l705 706q9 9 9 21t-8.609 21q-9.391 9-21.891 9-12.5 0-21.5-9ZM582 592 446 456h87q23 0 36 13t13 36v87Zm-462 80V480q0-10.4 6.8-17.2 6.8-6.8 17.2-6.8 10.4 0 17.2 6.8 6.8 6.8 6.8 17.2v65h98v-65q0-10.4 6.8-17.2 6.8-6.8 17.2-6.8 10.4 0 17.2 6.8 6.8 6.8 6.8 17.2v192q0 10.4-6.8 17.2-6.8 6.8-17.2 6.8-10.4 0-17.2-6.8-6.8-6.8-6.8-17.2v-79h-98v79q0 10.4-6.8 17.2-6.8 6.8-17.2 6.8-10.4 0-17.2-6.8-6.8-6.8-6.8-17.2Zm258-144 48 48v72h72l47 47q-3 .5-6 .75t-6 .25H378V528Z"/></svg>