<svg xmlns="http://www.w3.org/2000/svg" width="48" height="48" viewBox="0 96 960 960"><path d="M480.235 696Q497 696 508.5 684.333 520 672.667 520 656v-60h60q16.667 0 28.333-11.735Q620 572.529 620 555.765 620 539 608.333 527.5 596.667 516 580 516h-60v-60q0-16.667-11.735-28.333Q496.529 416 479.765 416 463 416 451.5 427.667 440 439.333 440 456v60h-60q-16.667 0-28.333 11.735Q340 539.471 340 556.235 340 573 351.667 584.5 363.333 596 380 596h60v60q0 16.667 11.735 28.333Q463.471 696 480.235 696ZM480 973q-3.667 0-7.333-.5Q469 972 466 971q-134-40-220-164.5T160 533V337q0-19.257 10.875-34.662Q181.75 286.932 199 280l260-97q11-4 21-4t21 4l260 97q17.25 6.932 28.125 22.338Q800 317.743 800 337v196q0 149-86 273.5T494 971l-14 2Z"/></svg>