<svg xmlns="http://www.w3.org/2000/svg" width="48" height="48"><path d="M24 36q5 0 8.5-3.5T36 24q0-5-3.5-8.5T24 12q-5 0-8.5 3.5T12 24q0 5 3.5 8.5T24 36zm-1-3.05q-1.3-.1-2.45-.6-1.15-.5-2.15-1.35l4.6-4.6zm2 0V26.4l4.6 4.6q-1 .75-2.15 1.275-1.15.525-2.45.675zm6-3.35L26.4 25H33q-.1 1.3-.65 2.45Q31.8 28.6 31 29.6zM26.4 23l4.6-4.6q.85 1 1.35 2.15.5 1.15.6 2.45zM25 21.6v-6.55q1.3.1 2.45.625Q28.6 16.2 29.6 17zm-1 3.9q-.65 0-1.075-.425Q22.5 24.65 22.5 24q0-.65.425-1.075Q23.35 22.5 24 22.5q.65 0 1.075.425.425.425.425 1.075 0 .65-.425 1.075-.425.425-1.075.425zm-1-3.9L18.4 17q1-.85 2.15-1.375T23 15.05zM15.05 23q.1-1.3.625-2.45Q16.2 19.4 17 18.4l4.6 4.6zM17 29.6q-.8-1-1.3-2.15T15.05 25h6.55zM9 42q-1.2 0-2.1-.9Q6 40.2 6 39V9q0-1.2.9-2.1Q7.8 6 9 6h30q1.2 0 2.1.9.9.9.9 2.1v30q0 1.2-.9 2.1-.9.9-2.1.9zm0-3h30V9H9v30zm0 0V9v30z"/></svg>