<svg xmlns="http://www.w3.org/2000/svg" width="48" height="48" viewBox="0 -960 960 960"><path d="M195-721.5q-9-8.5-9-21.5t9-21.5q9-8.5 22-8.5t21.5 8.5Q247-756 247-743t-8.5 21.5Q230-713 217-713t-22-8.5ZM363-817q-9-9-9-21t9-21q9-9 21-9t21 9q9 9 9 21t-9 21q-9 9-21 9t-21-9Zm191.5.5Q546-825 546-838t8.5-21.5Q563-868 576-868t21.5 8.5Q606-851 606-838t-8.5 21.5Q589-808 576-808t-21.5-8.5Zm167 95Q713-730 713-743t8.5-21.5Q730-773 743-773t21.5 8.5Q773-756 773-743t-8.5 21.5Q756-713 743-713t-21.5-8.5Zm95 167Q808-563 808-576t8.5-21.5Q825-606 838-606t21.5 8.5Q868-589 868-576t-8.5 21.5Q851-546 838-546t-21.5-8.5ZM817-363q-9-9-9-21t9-21q9-9 21-9t21 9q9 9 9 21t-9 21q-9 9-21 9t-21-9Zm-95.5 168q-8.5-9-8.5-22t8.5-21.5Q730-247 743-247t22 8.5q9 8.5 9 21.5t-9 22q-9 9-22 9t-21.5-9ZM555-101q-9-9-9-21t9-21q9-9 21-9t21 9q9 9 9 21t-9 21q-9 9-21 9t-21-9Zm-192 0q-9-9-9-21t9-21q9-9 21-9t21 9q9 9 9 21t-9 21q-9 9-21 9t-21-9Zm-168.5-94.5Q186-204 186-217t8.5-22q8.5-9 21.5-9t22 9q9 9 9 22t-9 21.5q-9 8.5-22 8.5t-21.5-8.5ZM122-355q-13 0-21.5-8.5T92-385q0-13 8.5-21.5T122-415q13 0 21.5 8.5T152-385q0 13-8.5 21.5T122-355Zm0-191q-12 0-21-9t-9-21q0-12 9-21t21-9q12 0 21 9t9 21q0 12-9 21t-21 9Zm388 54 123 123q9 9 9 21t-9 21q-9 9-21 9t-21-9L459-459q-5-5-7-10t-2-11v-160q0-13 8.5-21.5T480-670q13 0 21.5 8.5T510-640v148Z"/></svg>