<svg xmlns="http://www.w3.org/2000/svg" width="48" height="48" viewBox="0 96 960 960"><path d="M109.825 976Q97 976 88.5 967.375T80 946V206q0-12.75 8.675-21.375 8.676-8.625 21.5-8.625 12.825 0 21.325 8.625T140 206v740q0 12.75-8.675 21.375-8.676 8.625-21.5 8.625Zm370.057-200Q459 776 444.5 761.417 430 746.833 430 726V426q0-20.833 14.618-35.417Q459.235 376 480.118 376 501 376 515.5 390.583 530 405.167 530 426v300q0 20.833-14.618 35.417Q500.765 776 479.882 776Zm369.943 200Q837 976 828.5 967.375T820 946V206q0-12.75 8.675-21.375 8.676-8.625 21.5-8.625 12.825 0 21.325 8.625T880 206v740q0 12.75-8.675 21.375-8.676 8.625-21.5 8.625Z"/></svg>