<svg xmlns="http://www.w3.org/2000/svg" width="48" height="48" viewBox="0 96 960 960"><path d="M69.825 856Q57 856 48.5 847.375T40 826V301q0-12.75 8.675-21.375Q57.351 271 70.175 271 83 271 91.5 279.625T100 301v364h353V416q0-24.75 17.625-42.375T513 356h262q59.812 0 102.406 42.594Q920 441.188 920 501v325q0 12.75-8.675 21.375-8.676 8.625-21.5 8.625-12.825 0-21.325-8.625T860 826V725H100v101q0 12.75-8.675 21.375Q82.649 856 69.825 856ZM270 607q-45 0-75.5-30.5T164 501q0-45 30.5-75.5T270 395q45 0 75.5 30.5T376 501q0 45-30.5 75.5T270 607Zm243 58h347V501q0-35.062-24.969-60.031T775 416H513v249ZM270 547q19 0 32.5-13.5T316 501q0-19-13.5-32.5T270 455q-19 0-32.5 13.5T224 501q0 19 13.5 32.5T270 547Zm0-46Zm243-85v249-249Z"/></svg>