<svg xmlns="http://www.w3.org/2000/svg" width="48" height="48" viewBox="0 96 960 960"><path d="M340 610q0 59 34.5 112.5T466 796q3.684 2 7 2.5t7 .5q3.684 0 7-.5t7-2.5q58.085-18.986 92.043-72.493Q620 670 620 610v-61q0-12.593-6.818-23.333Q606.364 514.926 595 509l-95-48q-9.512-5-19.756-5T460 461l-95 48q-11.364 5.926-18.182 16.667Q340 536.407 340 549v61ZM220 936q-24.75 0-42.375-17.625T160 876V486q0-14.25 6.375-27T184 438l260-195q15.68-12 35.84-12Q500 231 516 243l260 195q11.25 8.25 17.625 21T800 486v390q0 24.75-17.625 42.375T740 936H220Zm10-70h500V491L480 303 230 490.667V866Zm250-282Z"/></svg>