<svg xmlns="http://www.w3.org/2000/svg" width="48" height="48" viewBox="0 -960 960 960"><path d="M110-160q-12.75 0-21.375-8.625T80-190v-64q0-34 17-62.5t51-43.5q72-32 132-46t120-14q29 0 61.5 3.5T528-404l-49 49q-20-2-39.5-3.5T400-360q-58 0-105.5 10.5T172-306q-17 8-24.5 23t-7.5 29v34h319l60 60H110Zm514.867 4Q619-156 614-158q-5-2-10-7l-99-99q-9-9-9-21t9-21q9-9 21-9t21 9l78 78 192-192q9-9 21-9t21 9q9 9 9 21t-9 21L646-165q-5 5-10.133 7-5.134 2-11 2ZM400-482q-66 0-108-42t-42-108q0-66 42-108t108-42q66 0 108 42t42 108q0 66-42 108t-108 42Zm59 262Zm-59-322q39 0 64.5-25.5T490-632q0-39-25.5-64.5T400-722q-39 0-64.5 25.5T310-632q0 39 25.5 64.5T400-542Zm0-90Z"/></svg>