<svg xmlns="http://www.w3.org/2000/svg" width="48" height="48" viewBox="0 -960 960 960"><path d="M140-160q-24.75 0-42.375-17.625T80-220v-520q0-24.75 17.625-42.375T140-800h20v86L47-827q-9-9.067-8.5-21.533Q39-861 48.053-870q9.052-9 21.5-9Q82-879 91-870l764 765q9 9 9 21t-9.053 21q-9.052 9-21.5 9Q821-54 812-63l-98-97H140Zm0-60h514L218-656h-78v436Zm725 39-45-45v-430H390L246-800h574q24.75 0 42.375 17.625T880-740v520.163Q880-209 876-199t-11 18ZM720-326 486-560h204q12.75 0 21.375 8.625T720-530v204Z"/></svg>