<svg xmlns="http://www.w3.org/2000/svg" width="48" height="48" viewBox="0 -960 960 960"><path d="M478.825-347Q466-347 457.5-355.625T449-377v-427l-67 67q-8.25 8-20.625 8t-21.766-9.053q-8.609-9.052-8.609-21.5Q331-772 340-781l118-118q5-5 10.217-7 5.218-2 10.783-2 5.565 0 10.783 2Q495-904 500-899l119 119q8 8 8.5 20.5t-8.553 21.5q-9.052 9-21.5 9Q585-729 576-738l-67-66v427q0 12.75-8.675 21.375-8.676 8.625-21.5 8.625ZM220-40q-24 0-42-18t-18-42v-509q0-24 18-42t42-18h139q12.75 0 21.375 8.675 8.625 8.676 8.625 21.5 0 12.825-8.625 21.325T359-609H220v509h520v-509H599q-12.75 0-21.375-8.675-8.625-8.676-8.625-21.5 0-12.825 8.625-21.325T599-669h141q24 0 42 18t18 42v509q0 24-18 42t-42 18H220Z"/></svg>