<svg xmlns="http://www.w3.org/2000/svg" width="48" height="48" viewBox="0 -960 960 960"><path d="M514-360q-14 0-24-10t-10-24v-22q0-10 7-17t17-7q10 0 17 7t7 17v8h104v-48H514q-14.125 0-24.062-9.938Q480-475.875 480-490v-76q0-14 10-24t24-10h132q14 0 24 10t10 24v22q0 10-7 17t-17 7q-10 0-17-7t-7-17v-8H528v48h118q14.125 0 24.062 9.938Q680-484.125 680-470v76q0 14-10 24t-24 10H514Zm-240 0q-15 0-24.5-9.5T240-394v-42q0-10 7-17t17-7q10 0 17 7t7 17v28h84v-168q0-10 7-17t17-7q10 0 17 7t7 17v182q0 15-9.5 24.5T386-360H274Z"/></svg>