<svg xmlns="http://www.w3.org/2000/svg" width="48" height="48" viewBox="0 0 48 48"><path d="M32 38q-1.7 0-3.225-.375-1.525-.375-2.975-1.075 2.85-2.5 4.525-5.725Q32 27.6 32 24t-1.675-6.825Q28.65 13.95 25.8 11.45q1.45-.7 2.975-1.075Q30.3 10 32 10q5.85 0 9.925 4.075Q46 18.15 46 24q0 5.85-4.075 9.925Q37.85 38 32 38Zm-8-2.5q-2.7-1.9-4.35-4.9Q18 27.6 18 24q0-3.6 1.65-6.6 1.65-3 4.35-4.9 2.75 1.9 4.375 4.9Q30 20.4 30 24q0 3.6-1.625 6.6-1.625 3-4.375 4.9ZM16 38q-5.85 0-9.925-4.075Q2 29.85 2 24q0-5.85 4.075-9.925Q10.15 10 16 10q1.7 0 3.25.375t2.95 1.075q-2.85 2.5-4.525 5.725Q16 20.4 16 24q0 3.85 1.65 7.1 1.65 3.25 4.5 5.5-1.4.7-2.95 1.05-1.55.35-3.2.35Z"/></svg>