<svg xmlns="http://www.w3.org/2000/svg" width="48" height="48" viewBox="0 96 960 960"><path d="M260 996V846h-50q-37 0-63.5-26.5t-26.5-64q0-37.5 26.5-63.5t63.5-26h50v-60H150q-12.75 0-21.375-8.625T120 576V456q0-12.75 8.625-21.375T150 426h110v-60h-50q-37 0-63.5-26.5t-26.5-64q0-37.5 26.5-63.5t63.5-26h50v-30q0-8 6-14t14-6q8 0 14 6t6 14v30h50q37.8 0 63.9 26.1T440 276q0 37-26.1 63.5T350 366h-50v60h110q12.75 0 21.375 8.625T440 456v120q0 12.75-8.625 21.375T410 606H300v60h50q37.8 0 63.9 26.1T440 756q0 37-26.1 63.5T350 846h-50v150q0 8-6 14t-14 6q-8 0-14-6t-6-14Zm400 0V846h-50q-37 0-63.5-26.5t-26.5-64q0-37.5 26.5-63.5t63.5-26h50v-60H550q-12.75 0-21.375-8.625T520 576V456q0-12.75 8.625-21.375T550 426h110v-60h-50q-37 0-63.5-26.5t-26.5-64q0-37.5 26.5-63.5t63.5-26h50v-30q0-8 6-14t14-6q8 0 14 6t6 14v30h50q37.8 0 63.9 26.1T840 276q0 37-26.1 63.5T750 366h-50v60h110q12.75 0 21.375 8.625T840 456v120q0 12.75-8.625 21.375T810 606H700v60h50q37.8 0 63.9 26.1T840 756q0 37-26.1 63.5T750 846h-50v150q0 8-6 14t-14 6q-8 0-14-6t-6-14ZM210 306h140q13 0 21.5-9t8.5-21q0-13-8.5-21.5T350 246H210q-12 0-21 8.5t-9 21q0 12.5 9 21.5t21 9Zm400 0h140q13 0 21.5-9t8.5-21q0-13-8.5-21.5T750 246H610q-12 0-21 8.5t-9 21q0 12.5 9 21.5t21 9ZM180 546h200v-60H180v60Zm400 0h200v-60H580v60ZM210 786h140q13 0 21.5-9t8.5-21q0-13-8.5-21.5T350 726H210q-12 0-21 8.5t-9 21q0 12.5 9 21.5t21 9Zm400 0h140q13 0 21.5-9t8.5-21q0-13-8.5-21.5T750 726H610q-12 0-21 8.5t-9 21q0 12.5 9 21.5t21 9ZM180 306v-60 60Zm400 0v-60 60ZM180 546v-60 60Zm400 0v-60 60ZM180 786v-60 60Zm400 0v-60 60Z"/></svg>