<svg xmlns="http://www.w3.org/2000/svg" width="48" height="48" viewBox="0 0 48 48"><path d="M7 35V13v22Zm0 3q-1.2 0-2.1-.925Q4 36.15 4 35V13q0-1.2.9-2.1.9-.9 2.1-.9h34q1.2 0 2.1.9.9.9.9 2.1v13.35q-.7-.5-1.425-.9-.725-.4-1.575-.7V13H7v22h17.3q-.05.4-.05.75v1.5q0 .35.05.75Zm9.5-6.25h8.65q.35-.85.8-1.575.45-.725 1-1.425H16.5q-.65 0-1.075.425Q15 29.6 15 30.25q0 .65.425 1.075.425.425 1.075.425Zm-6.35-9.25v3h3v-3Zm6.2 0v3h3v-3Zm6.15 0v3h3v-3Zm6.2 0v3h2.1q.25-.1.45-.225t.45-.225V22.5Zm6.15 0v1.65q.45-.1.9-.125.45-.025.95-.025h.6q.3 0 .55.05V22.5Zm-24.7-6.25v3h3v-3Zm6.2 0v3h3v-3Zm6.15 0v3h3v-3Zm6.2 0v3h3v-3Zm6.15 0v3h3v-3ZM38.25 38H30.7q-.65 0-1.075-.425-.425-.425-.425-1.075 0-.65.425-1.075Q30.05 35 30.7 35h7.55l-2.6-2.65q-.4-.45-.425-1.05-.025-.6.425-1.05.45-.45 1.05-.45.6 0 1.05.45l5.2 5.2q.45.45.45 1.05 0 .6-.45 1.05l-5.2 5.2q-.45.45-1.05.45-.6 0-1.05-.45-.45-.45-.425-1.05.025-.6.425-1.05Z"/></svg>