<svg xmlns="http://www.w3.org/2000/svg" width="48" height="48" viewBox="0 -960 960 960"><path d="M355-760h465q24 0 42 18t18 42v237q0 17-15 24.5t-30-1.5q-20-11-42.5-15.5T747-458q5-4 7.5-9.5T757-480q0-12.75-8.675-21.375-8.676-8.625-21.5-8.625-12.825 0-21.325 8.625T697-480q0 9 5 16t13 11q-23 6-43 17.5T635-408l-45-45q2 1 14 3 12 0 21-9.231T634-480q0-12.75-8.625-21.375T604-510q-11.538 0-20.769 9Q574-492 574-480q0 2 3 14L462-581q3 2 18 6 13 0 21.5-8.5T510-605q0-12.75-8.625-21.375T480-635q-12 0-20.5 8.5T450-606q0 2 5 18L334-709q-14-14-6.553-32.5T355-760ZM140-200q-24 0-42-18.5T80-260v-440q0-24 18-42t42-18h62l373 375H330q-12.75 0-21.375 8.675-8.625 8.676-8.625 21.5 0 12.825 8.625 21.325T330-325h256q-2 11-3.5 21.5T581-282v52q0 12.75-8.625 21.375T551-200H140ZM820-54 56-820q-9-8.8-9-20.9 0-12.1 9.214-21.1 9.215-9 21.5-9Q90-871 99-862L863-96q9 9 9 21t-9.214 21q-9.215 9-21.5 9Q829-45 820-54Zm60-109-81-81v-82q0-19.55-11.5-32.775Q776-372 757-372t-30 12q-11 12-12 32l-33-33q10-23 29.5-37t45.5-14q35 0 58 25t23 61v40h1q14 0 27.5 13.5T880-244v81ZM675-80q-15 0-28.5-13.5T633-122v-122q0-15 13-28t28-14l164 164.8V-80H675ZM233.175-575q12.825 0 21.325-8.675 8.5-8.676 8.5-21.5 0-12.825-8.675-21.325-8.676-8.5-21.5-8.5-12.825 0-21.325 8.675-8.5 8.676-8.5 21.5 0 12.825 8.675 21.325 8.676 8.5 21.5 8.5Zm0 125q12.825 0 21.325-8.675 8.5-8.676 8.5-21.5 0-12.825-8.675-21.325-8.676-8.5-21.5-8.5-12.825 0-21.325 8.675-8.5 8.676-8.5 21.5 0 12.825 8.675 21.325 8.676 8.5 21.5 8.5Zm124 0q12.825 0 21.325-8.675 8.5-8.676 8.5-21.5 0-12.825-8.675-21.325-8.676-8.5-21.5-8.5-12.825 0-21.325 8.675-8.5 8.676-8.5 21.5 0 12.825 8.675 21.325 8.676 8.5 21.5 8.5Zm247-125q12.825 0 21.325-8.675 8.5-8.676 8.5-21.5 0-12.825-8.675-21.325-8.676-8.5-21.5-8.5-12.825 0-21.325 8.675-8.5 8.676-8.5 21.5 0 12.825 8.675 21.325 8.676 8.5 21.5 8.5Zm123 0q12.825 0 21.325-8.675 8.5-8.676 8.5-21.5 0-12.825-8.675-21.325-8.676-8.5-21.5-8.5-12.825 0-21.325 8.675-8.5 8.676-8.5 21.5 0 12.825 8.675 21.325 8.676 8.5 21.5 8.5Z"/></svg>