<svg xmlns="http://www.w3.org/2000/svg" width="48" height="48" viewBox="0 -960 960 960"><path d="M140-260v-440 440Zm0 60q-24 0-42-18.5T80-260v-440q0-24 18-42t42-18h680q24 0 42 18t18 42v267q-14-10-28.603-18.161Q836.794-459.323 820-465v-235H140v440h346q-1 8-1 14.951V-215q0 7 1 15H140Zm190-125h173q7-17 16-31.5t20-28.5H330q-12.75 0-21.375 8.675-8.625 8.676-8.625 21.5 0 12.825 8.625 21.325T330-325Zm435 125H614q-12.75 0-21.375-8.675-8.625-8.676-8.625-21.5 0-12.825 8.625-21.325T614-260h151l-52-53q-8-9-8.5-21t8.5-21q9-9 21-9t21 9l104 104q9 9 9 21t-9 21L755-105q-9 9-21 9t-21-9q-9-9-8.5-21t8.5-21l52-53ZM233.175-575q12.825 0 21.325-8.675 8.5-8.676 8.5-21.5 0-12.825-8.675-21.325-8.676-8.5-21.5-8.5-12.825 0-21.325 8.675-8.5 8.676-8.5 21.5 0 12.825 8.675 21.325 8.676 8.5 21.5 8.5Zm124 0q12.825 0 21.325-8.675 8.5-8.676 8.5-21.5 0-12.825-8.675-21.325-8.676-8.5-21.5-8.5-12.825 0-21.325 8.675-8.5 8.676-8.5 21.5 0 12.825 8.675 21.325 8.676 8.5 21.5 8.5Zm123 0q12.825 0 21.325-8.675 8.5-8.676 8.5-21.5 0-12.825-8.675-21.325-8.676-8.5-21.5-8.5-12.825 0-21.325 8.675-8.5 8.676-8.5 21.5 0 12.825 8.675 21.325 8.676 8.5 21.5 8.5Zm124 0q12.825 0 21.325-8.675 8.5-8.676 8.5-21.5 0-12.825-8.675-21.325-8.676-8.5-21.5-8.5-12.825 0-21.325 8.675-8.5 8.676-8.5 21.5 0 12.825 8.675 21.325 8.676 8.5 21.5 8.5Zm123 0q12.825 0 21.325-8.675 8.5-8.676 8.5-21.5 0-12.825-8.675-21.325-8.676-8.5-21.5-8.5-12.825 0-21.325 8.675-8.5 8.676-8.5 21.5 0 12.825 8.675 21.325 8.676 8.5 21.5 8.5Zm-494 125q12.825 0 21.325-8.675 8.5-8.676 8.5-21.5 0-12.825-8.675-21.325-8.676-8.5-21.5-8.5-12.825 0-21.325 8.675-8.5 8.676-8.5 21.5 0 12.825 8.675 21.325 8.676 8.5 21.5 8.5Zm124 0q12.825 0 21.325-8.675 8.5-8.676 8.5-21.5 0-12.825-8.675-21.325-8.676-8.5-21.5-8.5-12.825 0-21.325 8.675-8.5 8.676-8.5 21.5 0 12.825 8.675 21.325 8.676 8.5 21.5 8.5Zm123 0q12.825 0 21.325-8.675 8.5-8.676 8.5-21.5 0-12.825-8.675-21.325-8.676-8.5-21.5-8.5-12.825 0-21.325 8.675-8.5 8.676-8.5 21.5 0 12.825 8.675 21.325 8.676 8.5 21.5 8.5ZM604-450q6 0 11-1.5t9-5.5q5-4 7.5-10.045Q634-473.091 634-480q0-12.75-8.675-21.375-8.676-8.625-21.5-8.625-12.825 0-21.325 8.625T574-480q0 13 8.5 21.5T604-450Zm93-27q9-2 18.5-2.5t19.5-.5q5.902 0 11.268.167 5.366.166 10.732.833v-1q0-12.75-8.675-21.375-8.676-8.625-21.5-8.625-12.825 0-21.325 8.695t-8.5 21.549V-477Z"/></svg>