<svg xmlns="http://www.w3.org/2000/svg" width="48" height="48" viewBox="0 0 48 48"><path d="M9.5 27.45q-.15 2.15-.95 4.1-.8 1.95-2.3 3.4-.3.3-.75.35-.45.05-.75-.25-.3-.25-.25-.675.05-.425.35-.725Q6.3 32.1 7.025 30.5q.725-1.6.725-3.85V21.1q0-.3.225-.525.225-.225.525-.225h13.75q.3 0 .525.225.225.225.225.525v5.6q0 .3-.225.525-.225.225-.525.225Zm.15-1.4H21.1v-4.3H9.65Zm5.55-11.8q-1.9 2.4-4.275 4.25-2.375 1.85-5.175 3.1-.4.2-.825.1-.425-.1-.675-.45-.25-.3-.1-.625t.55-.525q2.6-1.3 4.925-2.975Q11.95 15.45 13.75 13.2q.25-.35.65-.475t.8-.125q.4 0 .8.125t.65.425q1.9 2.2 4.325 3.75 2.425 1.55 5.075 2.8.4.2.6.575.2.375-.05.725-.25.4-.75.475-.5.075-.95-.175-2.75-1.3-5.275-2.975Q17.1 16.65 15.2 14.25ZM10.25 35.5q-.4 0-.675-.275T9.3 34.55V29.7q0-.3.225-.525.225-.225.525-.225h12.7q.3 0 .525.225.225.225.225.525v4.85q0 .4-.275.675t-.675.275q-.4 0-.675-.275t-.275-.675v-4.2H11.2v4.2q0 .4-.275.675t-.675.275Zm9.45-16.15h-8.4q-.25 0-.45-.2t-.2-.45q0-.25.2-.45t.45-.2h8.4q.25 0 .45.2t.2.45q0 .25-.2.45t-.45.2Zm-10.9 5.2v-1.3h13.35v1.3Zm.9 10.2v-1.4h12.6v1.4ZM35.2 32q1.6 0 3.15-.75 1.55-.75 2.85-2.15v-6.05q-1.45.2-2.55.425-1.1.225-2.1.525-2.5.8-3.75 1.975t-1.25 2.775q0 1.45 1 2.35 1 .9 2.65.9Zm-.7 2.55q-2.7 0-4.325-1.55t-1.625-4.15q0-2.5 1.7-4.175Q31.95 23 35.5 22q1.1-.3 2.525-.575 1.425-.275 3.175-.525 0-2.8-.925-4.125-.925-1.325-3.325-1.325-1.1 0-2.2.325T32.2 16.9q-.5.25-1 .125t-.75-.575q-.25-.5-.125-1t.625-.75q1.55-.85 3.225-1.35 1.675-.5 3.375-.5 3.45 0 5.05 2.125Q44.2 17.1 44.2 21v11.85q0 .55-.35.9t-.9.35h-.15q-.5 0-.825-.325-.325-.325-.425-.775l-.15-1.35q-1.5 1.4-3.325 2.15-1.825.75-3.575.75Z"/></svg>