<svg xmlns="http://www.w3.org/2000/svg" width="48" height="48" viewBox="0 96 960 960"><path d="M480 976q-34 0-57.5-23.5T399 895h162q0 34-23.5 57.5T480 976ZM348 833q-12.75 0-21.375-8.675-8.625-8.676-8.625-21.5 0-12.825 8.625-21.325T348 773h264q12.75 0 21.375 8.675 8.625 8.676 8.625 21.5 0 12.825-8.625 21.325T612 833H348Zm-25-121q-66-43-104.5-107.5T180 459q0-122 89-211t211-89q122 0 211 89t89 211q0 81-38 145.5T637 712H323Zm22-60h270.667Q664 620 692 568.872 720 517.743 720 459q0-99-70.5-169.5T480 219q-99 0-169.5 70.5T240 459q0 58.743 28 109.872Q296 620 345 652Zm135 0Z"/></svg>