<svg xmlns="http://www.w3.org/2000/svg" width="48" height="48" viewBox="0 96 960 960"><path d="M361 656h238q37-27 59-68.5t22-91.5q0-83-58.5-141.5T480 296q-83 0-141.5 58.5T280 496q0 50 22 91.5t59 68.5Zm14-40q-26-25-40.5-56.5T320 496q0-66 47-113t113-47q66 0 113 47t47 113q0 32-14.5 63.5T585 616H375Zm5 130h200q8 0 14-6t6-14q0-8-6-14t-14-6H380q-8 0-14 6t-6 14q0 8 6 14t14 6Zm100 110q18 0 32-11.5t17-28.5h-98q4 17 17.5 28.5T480 856Zm0 120q-83 0-156-31.5T197 859q-54-54-85.5-127T80 576q0-83 31.5-156T197 293q54-54 127-85.5T480 176q83 0 156 31.5T763 293q54 54 85.5 127T880 576q0 83-31.5 156T763 859q-54 54-127 85.5T480 976Z"/></svg>