<svg xmlns="http://www.w3.org/2000/svg" width="48" height="48" viewBox="0 -960 960 960"><path d="M180-180v-600 600-9 9Zm0 60q-24 0-42-18t-18-42v-600q0-24 18-42t42-18h600q24 0 42 18t18 42v349q0 13.077-8.675 21.538-8.676 8.462-21.5 8.462-12.825 0-21.325-8.625T780-431v-349H180v600h288q12.75 0 21.375 8.675 8.625 8.676 8.625 21.5 0 12.825-8.625 21.325T468-120H180Zm120-166q12 0 21-9t9-21q0-12-9-21t-21-9q-12 0-21 9t-9 21q0 12 9 21t21 9Zm0-164q12 0 21-9t9-21q0-12-9-21t-21-9q-12 0-21 9t-9 21q0 12 9 21t21 9Zm0-164q12 0 21-9t9-21q0-12-9-21t-21-9q-12 0-21 9t-9 21q0 12 9 21t21 9Zm346 164q12.75 0 21.375-8.675 8.625-8.676 8.625-21.5 0-12.825-8.625-21.325T646-510H462q-12.75 0-21.375 8.675-8.625 8.676-8.625 21.5 0 12.825 8.625 21.325T462-450h184Zm0-164q12.75 0 21.375-8.675 8.625-8.676 8.625-21.5 0-12.825-8.625-21.325T646-674H462q-12.75 0-21.375 8.675-8.625 8.676-8.625 21.5 0 12.825 8.625 21.325T462-614h184ZM432-315.825q0 12.825 8.625 21.325T462-286h50q12.75 0 21.375-8.675 8.625-8.676 8.625-21.5 0-12.825-8.625-21.325T512-346h-50q-12.75 0-21.375 8.675-8.625 8.676-8.625 21.5ZM700-160h-90q-12.75 0-21.375-8.675-8.625-8.676-8.625-21.5 0-12.825 8.625-21.325T610-220h90v-90q0-12.75 8.675-21.375 8.676-8.625 21.5-8.625 12.825 0 21.325 8.625T760-310v90h90q12.75 0 21.375 8.675 8.625 8.676 8.625 21.5 0 12.825-8.625 21.325T850-160h-90v90q0 12.75-8.675 21.375Q742.649-40 729.825-40 717-40 708.5-48.625T700-70v-90Z"/></svg>