<svg xmlns="http://www.w3.org/2000/svg" width="48" height="48" viewBox="0 -960 960 960"><path d="M190-120q-12.75 0-21.375-8.675-8.625-8.676-8.625-21.5 0-12.825 8.625-21.325T190-180h579q12.75 0 21.375 8.675 8.625 8.676 8.625 21.5 0 12.825-8.625 21.325T769-120H190Zm121-120q-63 0-107-43.5T160-390v-390q0-24.75 17.625-42.375T220-840h600q24.75 0 42.375 17.625T880-780v160q0 24.75-17.625 42.375T820-560h-96v170q0 63-44 106.5T573-240H311Zm0-60h261.978Q609-300 636.5-327.5T664-390v-390H220v390q0 35 28 62.5t63 27.5Zm413-320h96v-160h-96v160Zm-282 80Z"/></svg>