<svg xmlns="http://www.w3.org/2000/svg" width="48" height="48" viewBox="0 -960 960 960"><path d="M480.118-370Q526-370 558-402.118q32-32.117 32-78Q590-526 557.882-558q-32.117-32-78-32Q434-590 402-557.882q-32 32.117-32 78Q370-434 402.118-402q32.117 32 78 32ZM479-310q-64.599 0-125.299 21Q293-268 242-228q-11 7.677-16.5 20.839Q220-194 220-180h512q0-14-2-27t-12-21q-52-40-112.5-61T479-310ZM220-120q-24.75 0-42.375-17.625T160-180v-390q0-14.25 6.375-27T184-618l260-195q15.68-12 35.84-12Q500-825 516-813l260 195q11.25 8.25 17.625 21T800-570v390q0 24.75-17.625 42.375T740-120H220Z"/></svg>