<svg xmlns="http://www.w3.org/2000/svg" width="48" height="48" viewBox="0 -960 960 960"><path d="M480-80q0-128 91-230.5T786-435q22-4 37.5 11.5T835-386q-22 124-125 215T480-80Zm0 0q0-128-91-230.5T174-435q-22-4-37.5 11.5T125-386q22 124 125 215t230 91Zm0-490q34 0 57-24t23-56q0-34-23-57t-57-23q-32 0-56 23t-24 57q0 32 24 56t56 24Zm0 190q-36 0-65.5-21.5T371-458q-6 0-12.5.5t-12.5.5q-48 0-82-34t-34-82q0-20 8-39.5t23-37.5q-14-18-22-37.5t-8-39.5q0-48 33.5-82t81.5-34q6 0 12.5.5t12.5.5q14-35 43.5-56.5T480-920q36 0 65.5 21.5T589-842q6 0 12.5-.5t12.5-.5q48 0 81.5 34t33.5 82q0 20-7.5 39.5T699-650q14 18 22 37.5t8 39.5q0 48-33.5 82T614-457q-6 0-12.5-.5T589-458q-14 35-43.5 56.5T480-380Z"/></svg>