<svg xmlns="http://www.w3.org/2000/svg" width="48" height="48" viewBox="0 96 960 960"><path d="M350 422h260v-93q0-57-37.5-95T480 196q-55 0-92.5 38T350 329v93ZM220 976q-23 0-41.5-18.5T160 916V482q0-23 18.5-41.5T220 422h70v-93q0-81 55-137t135-56q80 0 135 56t55 137v93h70q23 0 41.5 18.5T800 482v87q-13-3-27-4t-33-1v-82H220v434h301q7 17 15 30.5t21 29.5H220Zm533 34q-79 0-136-57t-57-136q0-79 57-136t136-57q79 0 136 57t57 136q0 79-57 136t-136 57Zm61-104q6 6 13 5.5t13-6.5q6-6 5.5-14t-6.5-13l-69-63V711.96q0-8.96-6-14.96t-15-6q-9 0-15 6t-6 14.655v108.181Q728 822 733 831l81 75ZM220 482v434-434Z"/></svg>