<svg xmlns="http://www.w3.org/2000/svg" width="48" height="48" viewBox="0 96 960 960"><path d="M753 807q27.917 0 47.458-19.559Q820 767.882 820 739.941T800.458 693Q780.917 674 753 674q-27.5 0-46.75 19.353t-19.25 47Q687 768 706.25 787.5T753 807Zm-.214 133Q786 940 815 924.5t47-42.5q-26-14-53-22.5t-56-8.5q-29 0-56 8.5T644 882q18 27 46.786 42.5 28.785 15.5 62 15.5ZM350 422h260v-93q0-57-37.5-95T480 196q-55 0-92.5 38T350 329v93Zm207 554H220q-23 0-41.5-18.5T160 916V482q0-23 18.5-41.5T220 422h70v-93q0-81 55-137t135-56q80 0 135 56t55 137v93h70q23 0 41.5 18.5T800 482v87q-13-3-27-4t-33-1v-82H220v434h301q7 17 15 30.5t21 29.5Zm196 34q-79 0-136-57t-57-136q0-79 57-136t136-57q79 0 136 57t57 136q0 79-57 136t-136 57ZM220 482v434-434Z"/></svg>