<svg xmlns="http://www.w3.org/2000/svg" width="48" height="48" viewBox="0 96 960 960"><path d="M645 729q-9-9-9-21.75t9-21.25l80-80H405q-12.75 0-21.375-8.675-8.625-8.676-8.625-21.5 0-12.825 8.625-21.325T405 546h318l-81-81q-8-8-8-20.447 0-12.448 9.214-21.5Q651.661 414 664.33 414q12.67 0 21.67 9l133 133q5 5 7 10.133 2 5.134 2 11Q828 583 826 588q-2 5-7 10L687 730q-8 8-20.5 8t-21.5-9ZM180 936q-24 0-42-18t-18-42V276q0-24 18-42t42-18h261q12.75 0 21.375 8.675 8.625 8.676 8.625 21.5 0 12.825-8.625 21.325T441 276H180v600h261q12.75 0 21.375 8.675 8.625 8.676 8.625 21.5 0 12.825-8.625 21.325T441 936H180Z"/></svg>