<svg xmlns="http://www.w3.org/2000/svg" width="48" height="48" viewBox="0 96 960 960"><path d="M395 779h140q24 0 42-18t18-42v-87q0-27-14.5-42.5T546 574q20 0 34.5-13.5T595 519v-86q0-24-18-42t-42-18H394q-12 0-20.5 8.675-8.5 8.676-8.5 21.5 0 12.825 8.625 21.325T395 433h140v111h-58q-12 0-20.5 8.675-8.5 8.676-8.5 21.5 0 12.825 8.625 21.325T478 604h57v115H394q-12 0-20.5 8.675-8.5 8.676-8.5 21.5 0 12.825 8.625 21.325T395 779ZM180 936q-24 0-42-18t-18-42V276q0-23 18-41.5t42-18.5h600q23 0 41.5 18.5T840 276v600q0 24-18.5 42T780 936H180Zm0-60h600V276H180v600Zm0-600v600-600Z"/></svg>