<svg xmlns="http://www.w3.org/2000/svg" width="48" height="48" viewBox="0 -960 960 960"><path d="M260-120q-25 0-42.5-17.5T200-180v-470q0-29 20.5-49.5T270-720h90v-130q0-13 8.5-21.5T390-880h180q13 0 21.5 8.5T600-850v130h100q25 0 42.5 17.5T760-660v480q0 25-17.5 42.5T700-120q0 17-11.5 28.5T660-80q-17 0-28.5-11.5T620-120H340q0 17-11.5 28.5T300-80q-17 0-28.5-11.5T260-120Zm140-600h160v-120H400v120Zm-70 460q0 8 6 14t14 6q8 0 14-6t6-14v-320q0-8-6-14t-14-6q-8 0-14 6t-6 14v320Zm130 0q0 8 6 14t14 6q8 0 14-6t6-14v-320q0-8-6-14t-14-6q-8 0-14 6t-6 14v320Zm130 0q0 8 6 14t14 6q8 0 14-6t6-14v-320q0-8-6-14t-14-6q-8 0-14 6t-6 14v320Z"/></svg>