<svg xmlns="http://www.w3.org/2000/svg" width="48" height="48" viewBox="0 -960 960 960"><path d="M292-527q-42-42-42-108t42-108q42-42 108-42t108 42q42 42 42 108t-42 108q-42 42-108 42t-108-42ZM80-224v-34q0-35 17.5-64t50.5-44q58-26 119.5-42T393-424q13 0 21.5 8.5T423-394q0 13-8.5 21.5T393-364q-58 0-113.5 14T172-310q-14 8-23 21.5t-9 30.5v34h254q13 0 21.5 8.5T424-194q0 13-8.5 21.5T394-164H140q-25 0-42.5-17.5T80-224Zm584 81-7-43q-17-5-34.5-14.5T593-222l-38 8q-8 2-15-1t-11-10l-6-10q-5-8-3.5-16t7.5-14l33-31q-2-9-2-25t2-25l-33-31q-6-5-7.5-13.5T523-406l6-12q4-7 10.5-9.5t14.5-.5l39 8q12-12 29.5-21.5T657-456l7-43q2-10 9-16.5t17-6.5h8q10 0 17 6.5t9 16.5l7 43q17 5 34.5 14.5T795-420l38-8q8-2 15 1t11 10l6 10q5 8 3.5 16t-7.5 14l-33 31q2 9 2 25t-2 25l33 31q6 5 7.5 13.5T865-236l-6 12q-4 7-10.5 9.5t-14.5.5l-39-8q-12 12-29.5 21.5T731-186l-7 43q-2 10-9 16.5t-17 6.5h-8q-10 0-17-6.5t-9-16.5Zm88-120q22-22 22-58t-22-58q-22-22-58-22t-58 22q-22 22-22 58t22 58q22 22 58 22t58-22ZM464.5-570.5Q490-596 490-635t-25.5-64.5Q439-725 400-725t-64.5 25.5Q310-674 310-635t25.5 64.5Q361-545 400-545t64.5-25.5ZM400-635Zm9 411Z"/></svg>