<svg xmlns="http://www.w3.org/2000/svg" width="48" height="48" viewBox="0 96 960 960"><path d="M180 936q-24.75 0-42.375-17.625T120 876V276q0-24.75 17.625-42.375T180 216h600q24.75 0 42.375 17.625T840 276v600q0 24.75-17.625 42.375T780 936H180Zm134-487q16.575 0 27.788-11.213Q353 426.575 353 410t-11.212-27.787Q330.575 371 314 371q-16.575 0-27.788 11.213Q275 393.425 275 410t11.212 27.787Q297.425 449 314 449Zm166 0q17 0 28.5-11.213Q520 426.575 520 410t-11.5-27.787Q497 371 480 371q-16 0-27 11.5T442 410q0 16 10.925 27.5T480 449Zm167 0q16.575 0 27.787-11.213Q686 426.575 686 410t-11.213-27.787Q663.575 371 647 371t-27.787 11.213Q608 393.425 608 410t11.213 27.787Q630.425 449 647 449Zm0 166q16.575 0 27.787-11.213Q686 592.575 686 576t-11.213-27.787Q663.575 537 647 537t-27.787 11.213Q608 559.425 608 576t11.213 27.787Q630.425 615 647 615Zm-167 0q17 0 28.5-11.213Q520 592.575 520 576t-11.5-27.787Q497 537 480 537q-16 0-27 11.5T442 576q0 16 10.925 27.5T480 615Zm-166 0q16.575 0 27.788-11.213Q353 592.575 353 576t-11.212-27.787Q330.575 537 314 537q-16.575 0-27.788 11.213Q275 559.425 275 576t11.212 27.787Q297.425 615 314 615ZM180 876h600V276H180v600Zm0 0V276v600Z"/></svg>