<svg xmlns="http://www.w3.org/2000/svg" width="48" height="48" viewBox="0 96 960 960"><path d="M480 816q-37 0-71-10.5T345 775q-43-3-89.5-18.5t-85.5-51q-39-35.5-64.5-94T80 466v-40q0-38 26.5-64t63.5-26q35 0 61 27.5t29 67.5q32-8 57.5-18t43.5-20q30-17 57-27t62-10q35 0 62 10t57 27q18 10 43.5 20t57.5 18q3-41 29-68t61-27q38 0 64 26t26 64v40q0 87-25.5 145.5t-64.5 94q-39 35.5-85.5 51T615 775q-30 20-64 30.5T480 816Zm-198-97q-26-32-44-74.5T220 556V426q0-21-14.5-35.5T170 376q-20 0-35 14.5T120 426v40q0 129 55.5 187.5T282 719Zm198 57q88 0 154-66.5T700 556v-84q-38-8-69.5-20T579 428q-29-17-52-24.5t-47-7.5q-24 0-47 7.5T381 428q-20 12-51.5 24T260 472v84q0 87 66.5 153.5T480 776Zm198-57q51-7 106.5-65.5T840 466v-40q0-21-14.5-35.5T790 376q-20 0-35 14.5T740 426v130q0 46-16.5 88.5T678 719ZM381 529q14-5 25.5-11.5T428 505q14-8 25.5-13.5T480 486q15 0 26.5 5.5T532 505q11 6 22 12.5t25 11.5q8 3 14.5-1t6.5-14q0-4-2.5-7.5T591 501q-11-5-20.5-10T552 481q-16-10-32.5-17.5T480 456q-23 0-39.5 7.5T407 481q-9 5-18 9.5t-20 9.5q-4 2-6.5 5.5T360 514q0 9 6.5 13.5T381 529Zm99 57Z"/></svg>