<svg xmlns="http://www.w3.org/2000/svg" width="48" height="48" viewBox="0 96 960 960"><path d="m425 784-88 55q-8 5-15.5.696Q314 835.391 314 826V716q0-9.391 7.5-13.696Q329 698 337 703l88 55q7 4.5 7 12.75T425 784Zm95-313q-45.833 0-77.917-32.118-32.083-32.117-32.083-78Q410 315 442.083 283q32.084-32 77.917-32h20q8 0 14 6t6 14q0 8-6 14t-14 6h-20q-29.167 0-49.583 20.382Q450 331.765 450 360.882 450 390 470.417 410.5 490.833 431 520 431h20q8 0 14 6t6 14q0 8-6 14t-14 6h-20Zm160 0h-20q-8 0-14-6t-6-14q0-8 6-14t14-6h20q29.167 0 49.583-20.382Q750 390.235 750 361.118 750 332 729.583 311.5 709.167 291 680 291h-20q-8 0-14-6t-6-14q0-8 6-14t14-6h20q45.833 0 77.917 32.118 32.083 32.117 32.083 78Q790 407 757.917 439 725.833 471 680 471Zm-30-90H550q-8 0-14-6t-6-14q0-8 6-14t14-6h100q8 0 14 6t6 14q0 8-6 14t-14 6Zm3 265v-80h207V196H340v370h-60V196q0-24.75 17.625-42.375T340 136h520q24.75 0 42.375 17.625T920 196v390q0 24.75-17.625 42.375T860 646H653Zm-553 370q-24.75 0-42.375-17.625T40 956V586q0-24.75 17.625-42.375T100 526h520q24.75 0 42.375 17.625T680 586v370q0 24.75-17.625 42.375T620 1016H100Zm0-60h520V586H100v370Zm500-575ZM360 771Z"/></svg>