<svg xmlns="http://www.w3.org/2000/svg" width="48" height="48" viewBox="0 96 960 960"><path d="m686 695-43-43q17-21 26.5-46t12.5-52q2.237-11.25 10.814-19.125Q701.39 527 711.831 527 726 527 735 536.5t7 22.5q-5 37-19 72t-37 64ZM558 567l-53-52V277q0-17.425-11.788-29.213Q481.425 236 464 236q-17.425 0-29.212 11.787Q423 259.575 423 277v155l-60-60v-95q0-42.083 29.441-71.542Q421.882 176 463.941 176t71.559 29.458Q565 234.917 565 277v250q0 8-1.5 20t-5.5 20Zm-97-97Zm350 512L55 226q-8-7.578-8-19.289Q47 195 55 187q8-8 19-8t19 8l757 757q8 8 8 19t-8 19q-8 8-19.711 8-11.711 0-19.289-8Zm-377-76V800q-98-11-167.5-78.5T186 559q-2-13 7.5-22.5T217 527q10.5 0 18.75 8T246 554q11 81 72.812 134.5T463.789 742q38.211 0 73.321-12.338Q572.221 717.325 601 695l43 43q-31 26-69.014 41.568Q536.972 795.135 494 800v106q0 12.75-8.675 21.375-8.676 8.625-21.5 8.625-12.825 0-21.325-8.625T434 906Z"/></svg>