<svg xmlns="http://www.w3.org/2000/svg" width="48" height="48" viewBox="0 -960 960 960"><path d="M479.825-670Q467-670 458.5-661.375T450-640v200q0 12.75 8.675 21.375 8.676 8.625 21.5 8.625 12.825 0 21.325-8.625T510-440v-200q0-12.75-8.675-21.375-8.676-8.625-21.5-8.625Zm120 40Q587-630 578.5-621.375T570-600v100q0 12.75 8.675 21.375 8.676 8.625 21.5 8.625 12.825 0 21.325-8.625T630-500v-100q0-12.75-8.675-21.375-8.676-8.625-21.5-8.625Zm-240 0Q347-630 338.5-621.375T330-600v80q0 12.75 8.675 21.375 8.676 8.625 21.5 8.625 12.825 0 21.325-8.625T390-520v-80q0-12.75-8.675-21.375-8.676-8.625-21.5-8.625ZM240-80v-172q-57-52-88.5-121.5T120-520q0-150 105-255t255-105q125 0 221.5 73.5T827-615l55 218q4 14-5 25.5T853-360h-93v140q0 24.75-17.625 42.375T700-160H600v80h-60v-140h160v-200h114l-45-180q-24-97-105-158.5T480-820q-125 0-212.5 86.5T180-522.46q0 64.417 26.324 122.392Q232.649-342.092 281-297l19 18v199h-60Zm257-370Z"/></svg>