<svg xmlns="http://www.w3.org/2000/svg" width="48" height="48" viewBox="0 96 960 960"><path d="M510 781v165q0 13-8.5 21.5T480 976q-13 0-21.5-8.5T450 946V781L322 909q-9 9-21 8.5t-21-8.5q-9-9-9-21.5t9-21.5l157-157-90-90-155 155q-8 8-20 8t-21-8q-9-9-9.5-21.5T150 731l125-125H110q-13 0-21.5-8.5T80 576q0-13 8.5-21.5T110 546h165L62 333q-9-9-8.5-21.5T63 290q9-9 21.5-9t21.5 9l701 702q9 9 9 21t-9 21q-9 9-21.5 9t-21.5-9L510 781Zm91-175h-91l-60-60v-91L283 288q-9-9-9-21t8-21q9-9 22-9.5t22 8.5l124 125V206q0-13 8.5-21.5T480 176q13 0 21.5 8.5T510 206v164l129-129q9-9 21-8.5t21 9.5q9 9 9 21t-9 21L510 455v91h91l168-168q9-9 21-8.5t21 8.5q9 9 9 21.5t-9 21.5L686 546h164q13 0 21.5 8.5T880 576q0 13-8.5 21.5T850 606H686l128 129q4 4 6 9.5t2 11q0 5.5-2 10.5t-6 10q-9 9-21.5 9t-21.5-9L601 606Z"/></svg>