<svg xmlns="http://www.w3.org/2000/svg" width="48" height="48" viewBox="0 0 48 48"><path d="M21.2 44q-2.55 0-3.875-1.525Q16 40.95 16 39q0-1.3.575-2.525.575-1.225 1.775-2.025 1.1-.7 1.825-1.875.725-1.175 1.075-3.225-.05 0-.05-.025t-.1-.075l-5.8 2.05q-.85.3-1.65.5-.8.2-1.65.2-3.15 0-5.575-2.75Q4 26.5 4 21.2q0-2.55 1.525-3.875Q7.05 16 8.95 16q1.3 0 2.55.575 1.25.575 2.05 1.775.7 1.1 1.975 1.875Q16.8 21 18.65 21.25q.05-.05.075-.1.025-.05.025-.1L16.7 15.3q-.3-.85-.5-1.65-.2-.8-.2-1.6 0-3.2 2.75-5.625T26.8 4q2.55 0 3.875 1.525Q32 7.05 32 8.95q0 1.3-.575 2.55-.575 1.25-1.775 2.05-1.3.85-2.025 2.25-.725 1.4-.825 2.9.05.05.075.025.025-.025.075.075l5.75-2.15q.85-.3 1.625-.475T35.95 16Q40 16 42 19.35t2 7.45q0 2.55-1.6 3.875Q40.8 32 38.85 32q-1.25 0-2.425-.575-1.175-.575-1.975-1.775-.7-1.1-1.875-1.825Q31.4 27.1 29.35 26.7l-.075.15q-.025.05-.075.1l2.1 5.75q.3.8.5 1.525.2.725.2 1.525.05 3.25-2.7 5.75T21.2 44ZM24 27q1.25 0 2.125-.875T27 24q0-1.25-.875-2.125T24 21q-1.25 0-2.125.875T21 24q0 1.25.875 2.125T24 27Z"/></svg>