<svg xmlns="http://www.w3.org/2000/svg" width="48" height="48" viewBox="0 -960 960 960"><path d="M334-533q22.5 0 38.25-15.5T388-587q0-23-15.75-38.5T334-641q-22.5 0-38.25 15.5T280-587q0 23 15.75 38.5T334-533Zm422-319q20-20 36.5-34t45.5-14q37 0 59.5 25.5T920-817q0 15-6 30t-18 27L777-641q-9 9-21 9t-21-9L616-760q-13-13-18.5-28t-5.5-30q0-32 23-57t59-25q28 0 44 13t38 35ZM479.5-261q57.5 0 106.5-25.5t78-72.87q7-10.63-.24-22.13Q656.52-393 643-393H316.92Q303-393 296-381.5q-7 11.5 0 22.13 29 47.37 78 72.87Q423-261 479.5-261ZM324-111.5Q251-143 197-197t-85.5-127Q80-397 80-480t31.5-156Q143-709 197-763t127-85.5Q397-880 480-880q17.18 0 33.5 1.5T547-874q-8 20-13 42t-5 45q0 46.37 17.5 86.19Q564-661 593-630q-10 8-15.5 19.1-5.5 11.1-5.5 23.9 0 22.5 15.75 38.25T626-533q19.3 0 33.15-12Q673-557 678-574q18.34 7 38.21 10.5t40.24 3.5q29.55 0 57.05-7 27.5-7 51.5-21 8 26 11.5 53t3.5 55q0 83-31.5 156T763-197q-54 54-127 85.5T480-80q-83 0-156-31.5Z"/></svg>