<svg xmlns="http://www.w3.org/2000/svg" width="48" height="48" viewBox="0 96 960 960"><path d="M320 296v-60q0-24.75 17.625-42.375T380 176h200q24.75 0 42.375 17.625T640 236v60h140q24.75 0 42.375 17.625T840 356v520q0 24.75-17.625 42.375T780 936H180q-24.75 0-42.375-17.625T120 876V356q0-24.75 17.625-42.375T180 296h140ZM180 876h600V486H680v110q0 24.75-17.625 42.375T620 656H340q-24.75 0-42.375-17.625T280 596V486H180v390Zm129.825-70Q297 806 288.5 797.325q-8.5-8.676-8.5-21.5 0-12.825 8.675-21.325 8.676-8.5 21.5-8.5 12.825 0 21.325 8.675 8.5 8.676 8.5 21.5 0 12.825-8.675 21.325-8.676 8.5-21.5 8.5Zm170 0Q467 806 458.5 797.325q-8.5-8.676-8.5-21.5 0-12.825 8.675-21.325 8.676-8.5 21.5-8.5 12.825 0 21.325 8.675 8.5 8.676 8.5 21.5 0 12.825-8.675 21.325-8.676 8.5-21.5 8.5Zm170 0Q637 806 628.5 797.325q-8.5-8.676-8.5-21.5 0-12.825 8.675-21.325 8.676-8.5 21.5-8.5 12.825 0 21.325 8.675 8.5 8.676 8.5 21.5 0 12.825-8.675 21.325-8.676 8.5-21.5 8.5ZM340 596h280V486H340v110ZM180 426h600v-70H180v70Zm200-130h200v-60H380v60Z"/></svg>