<svg xmlns="http://www.w3.org/2000/svg" width="48" height="48" viewBox="0 96 960 960"><path d="M563 906q-5 6-12 10.5t-15 4.5q-8 0-15.5-2.5T506 911L353 783q-50-42-72-102t-11-123l-56-47q-6-5-9-11.5t-4-14.5q-1-8 1-15.5t7-13.5l8-10h-77v110q0 25-17.5 42.5T80 616V216q25 0 42.5 17.5T140 276v110h127l70-85q5-6 12-9.5t15-4.5q8-1 16 1.5t14 7.5l55 46q61-23 124-12t113 53l153 128q6 5 10.5 12t4.5 15q0 8-2.5 15.5T844 567L563 906Zm-33-55 256-308-139-114q-51-42-102-42t-108 23l-67-55-102 123 66 55q-11 59-2 110t59 93l139 115Zm-3-248Z"/></svg>