<svg xmlns="http://www.w3.org/2000/svg" width="48" height="48" viewBox="0 96 960 960"><path d="M369.899 976Q316 976 278 937.929 240 899.857 240 846V236q0-24.75 17.625-42.375T300 176h140q24.75 0 42.375 17.625T500 236v610q0 53.857-38.101 91.929-38.101 38.071-92 38.071Zm-.017-60Q399 916 419.5 895.618q20.5-20.383 20.5-49.5Q440 817 419.618 796.5q-20.383-20.5-49.5-20.5Q341 776 320.5 796.382q-20.5 20.383-20.5 49.5Q300 875 320.382 895.5q20.383 20.5 49.5 20.5ZM660 816q-24.75 0-42.375-17.625T600 756V396q0-24.75 17.625-42.375T660 336h80q24.75 0 42.375 17.625T800 396v360q0 24.75-17.625 42.375T740 816h-80Z"/></svg>