<svg xmlns="http://www.w3.org/2000/svg" width="48" height="48" viewBox="0 96 960 960"><path d="m800 809-60-60V482H473l-60-60h197v-95q0-54.583-39.5-92.792Q531 196 475.5 196t-94 38.5Q343 273 343 327v25l-55-55q9-70 62.5-115.5T476 136q80.915 0 137.457 55.5Q670 247 670 327v95h70q24.75 0 42.375 17.625T800 482v327ZM220 976q-24.75 0-42.375-17.625T160 916V482q0-23 16-40.5t39-19.5L7 214q-9-9-8.5-21T8 172q9-9 21-9t21 9l839 839q9 9 8.5 21t-9.5 21q-9 9-21 9t-21-9l-82-82q-8 3-13 4t-11 1H220Zm490-60L535 742q-11 11-24.239 16T482 763q-32 0-53.5-21T407 689.32q0-16.32 5.5-29.82T429 635L275 482h-55v434h490ZM493 699Zm113-84Z"/></svg>