<svg xmlns="http://www.w3.org/2000/svg" width="48" height="48" viewBox="0 96 960 960"><path d="M833 1015 720 902v30q0 18-13.2 31T676 976H124q-18.333 0-31.167-12.833Q80 950.333 80 932V516q0-18.333 12.833-31.167Q105.667 472 124 472h127l18-21L26 208l43-43 807 807-43 43Zm-693-99h520v-74L540 722q-2 57-42.5 95.5T400 856q-58 0-99-41t-41-99q0-57 38.5-97.5T394 576l-82-82-35 38H140v384Zm580-186-60-60V532H522l-60-60-56-56h93l51 56h126q18.333 0 31.167 12.833Q720 497.667 720 516v214Zm54-220V346h-30V176h136l-59 134h59L774 510ZM660 670Zm-174-2Zm-86.235 128Q433 796 456.5 772.735q23.5-23.264 23.5-56.5Q480 683 456.735 659.5q-23.264-23.5-56.5-23.5Q367 636 343.5 659.265q-23.5 23.264-23.5 56.5Q320 749 343.265 772.5q23.264 23.5 56.5 23.5Z"/></svg>