<svg xmlns="http://www.w3.org/2000/svg" width="48" height="48"><path d="M24 36.3q.65 0 1.075-.425.425-.425.425-1.075v-4.95h5q.65 0 1.075-.425Q32 29 32 28.35q0-.65-.425-1.075-.425-.425-1.075-.425h-5v-5q0-.65-.425-1.075-.425-.425-1.075-.425-.65 0-1.075.425-.425.425-.425 1.075v5h-5q-.65 0-1.075.425Q16 27.7 16 28.35q0 .65.425 1.075.425.425 1.075.425h5v4.95q0 .65.425 1.075.425.425 1.075.425zM11 44q-1.2 0-2.1-.9Q8 42.2 8 41V7q0-1.2.9-2.1Q9.8 4 11 4h16.8q.6 0 1.15.225.55.225 1 .675l9.15 9.15q.45.45.675 1Q40 15.6 40 16.2V41q0 1.2-.9 2.1-.9.9-2.1.9zm18.05-27.7H37L27.55 7v7.8q0 .65.425 1.075.425.425 1.075.425z"/></svg>