<svg xmlns="http://www.w3.org/2000/svg" width="48" height="48" viewBox="0 96 960 960"><path d="M480 976q-33 0-56.5-23.5T400 896h160q0 33-23.5 56.5T480 976Zm319.825-360Q787 616 778.5 607.375T770 586V486H670q-12.75 0-21.375-8.675-8.625-8.676-8.625-21.5 0-12.825 8.625-21.325T670 426h100V326q0-12.75 8.675-21.375 8.676-8.625 21.5-8.625 12.825 0 21.325 8.625T830 326v100h100q12.75 0 21.375 8.675 8.625 8.676 8.625 21.5 0 12.825-8.625 21.325T930 486H830v100q0 12.75-8.675 21.375-8.676 8.625-21.5 8.625ZM190 856q-12.75 0-21.375-8.675-8.625-8.676-8.625-21.5 0-12.825 8.625-21.325T190 796h54V490q0-82 49.5-148.5T424 258v-29q0-23 16.265-38 16.264-15 39.5-15Q503 176 519.5 191t16.5 38v28.875Q558 262 582 273.5t38 23.5q-29 35-44 73.5T561 456q0 82 42 138t114 87v115h53q12.75 0 21.375 8.675 8.625 8.676 8.625 21.5 0 12.825-8.625 21.325T770 856H190Z"/></svg>