<svg xmlns="http://www.w3.org/2000/svg" width="48" height="48" viewBox="0 -960 960 960"><path d="M160-120q-12 0-21-9t-9-21.5q0-12.5 9-21t21-8.5h40v-270h-50q-12 0-21-9t-9-21.5q0-12.5 9-21t21-8.5h50v-270h-40q-12 0-21-9t-9-21.5q0-12.5 9-21t21-8.5h640q12.75 0 21.375 8.625T830-810q0 12-8.625 21T800-780h-40v270h50q12.75 0 21.375 8.625T840-480q0 12-8.625 21T810-450h-50v270h40q12.75 0 21.375 8.625T830-150q0 12-8.625 21T800-120H160Zm100-60h440v-270q-12 0-21-9t-9-21.5q0-12.5 9-21t21-8.5v-270H260v270q12.75 0 21.375 8.625T290-480q0 12-8.625 21T260-450v270Zm220.118-153Q526-333 558-364.51q32-31.51 32-76.263Q590-470 577-489.5 564-509 526-554l-23-27q-9-11-23-11.5T457-582l-23 28q-38 45-51 64.684-13 19.684-13 48.316 0 44.847 32.118 76.424 32.117 31.576 78 31.576ZM260-180v-600 600Z"/></svg>