<svg xmlns="http://www.w3.org/2000/svg" width="48" height="48" viewBox="0 0 48 48"><path d="M22.5 38.1v-7.95q0-.65.425-1.075.425-.425 1.075-.425.65 0 1.075.425.425.425.425 1.075v7.95l3.35-3.35q.45-.45 1.1-.45.65 0 1.1.45.45.45.45 1.1 0 .65-.45 1.1l-6 6q-.45.45-1.05.45-.6 0-1.05-.45l-6-6q-.45-.45-.45-1.1 0-.65.45-1.1.45-.45 1.1-.45.65 0 1.1.45ZM9.9 25.5l3.1 3.1q.45.45.45 1.1 0 .65-.45 1.1-.45.45-1.1.45-.65 0-1.1-.45l-5.75-5.75Q4.6 24.6 4.6 24q0-.6.45-1.05l5.8-5.8q.45-.45 1.1-.45.65 0 1.1.45.45.45.45 1.1 0 .65-.45 1.1L9.9 22.5h7.95q.65 0 1.075.425.425.425.425 1.075 0 .65-.425 1.075-.425.425-1.075.425Zm28.2 0h-7.9q-.65 0-1.075-.425Q28.7 24.65 28.7 24q0-.65.425-1.075.425-.425 1.075-.425h7.9L35 19.4q-.45-.45-.45-1.1 0-.65.45-1.1.45-.45 1.1-.45.65 0 1.1.45l5.75 5.75q.45.45.45 1.05 0 .6-.45 1.05L37.2 30.8q-.45.45-1.1.45-.65 0-1.1-.45-.45-.45-.45-1.1 0-.65.45-1.1ZM22.5 9.9 19.4 13q-.45.45-1.1.45-.65 0-1.1-.45-.45-.45-.45-1.1 0-.65.45-1.1l5.75-5.75Q23.4 4.6 24 4.6q.6 0 1.05.45l5.75 5.75q.45.45.45 1.1 0 .65-.45 1.1-.45.45-1.1.45-.65 0-1.1-.45l-3.1-3.1v7.9q0 .65-.425 1.075-.425.425-1.075.425-.65 0-1.075-.425-.425-.425-.425-1.075Z"/></svg>