<svg xmlns="http://www.w3.org/2000/svg" width="48" height="48" viewBox="0 96 960 960"><path d="M190 936q-12.75 0-21.375-8.625T160 906V535l-60 46q-10 8-22.19 6.158Q65.618 585.316 58 575q-8-10-6.056-22.19Q53.89 540.619 64 533l398-303q3.71-2.667 8.161-4.333 4.452-1.667 9.645-1.667 5.194 0 9.782 1.667 4.588 1.666 8.412 4.333l399 304q9.941 7.619 11.471 19.81Q910 566 902 576.37q-8 9.63-19.5 11.13T861 581l-61-46v371q0 12.75-8.625 21.375T770 936H190Zm30-60h520V489L480 291 220 489v387Zm0 0h520-520Zm100-180q17 0 28.5-11.5T360 656q0-17-11.5-28.5T320 616q-17 0-28.5 11.5T280 656q0 17 11.5 28.5T320 696Zm160 0q17 0 28.5-11.5T520 656q0-17-11.5-28.5T480 616q-17 0-28.5 11.5T440 656q0 17 11.5 28.5T480 696Zm160 0q17 0 28.5-11.5T680 656q0-17-11.5-28.5T640 616q-17 0-28.5 11.5T600 656q0 17 11.5 28.5T640 696Z"/></svg>