<svg xmlns="http://www.w3.org/2000/svg" width="48" height="48" viewBox="0 96 960 960"><path d="M70 936q-12.75 0-21.375-8.625T40 906V246q0-12.75 8.625-21.375T70 216h500q12.75 0 21.375 8.625T600 246v660q0 12.75-8.625 21.375T570 936H386V751H255v185H70Zm140-330h60v-60h-60v60Zm0-160h60v-60h-60v60Zm160 160h60v-60h-60v60Zm0-160h60v-60h-60v60Zm435 160H670q-12.75 0-21.375-8.675-8.625-8.676-8.625-21.5 0-12.825 8.625-21.325T670 546h135l-32-33q-4-5-6.5-10t-2.5-10.75q0-5.75 2.5-11.5t6.833-10.083Q782 462 794 462q12 0 21 9l84 84q9 9 9 21t-9 21l-84 84q-9 9-21 9t-20.667-9.333Q769 676 766.5 671t-2.5-10.75q0-5.75 2.5-11.5T773 639l32-33Z"/></svg>