<svg xmlns="http://www.w3.org/2000/svg" width="48" height="48" viewBox="0 96 960 960"><path d="M180 936q-24.75 0-42.375-17.625T120 876V276q0-24.75 17.625-42.375T180 216h600q24.75 0 42.375 17.625T840 276v60q0 12.75-8.675 21.375-8.676 8.625-21.5 8.625-12.825 0-21.325-8.625T780 336v-60H180v600h600v-60q0-12.75 8.675-21.375 8.676-8.625 21.5-8.625 12.825 0 21.325 8.625T840 816v60q0 24.75-17.625 42.375T780 936H180Zm584-330H413q-12.75 0-21.375-8.675-8.625-8.676-8.625-21.5 0-12.825 8.625-21.325T413 546h351l-92-93q-8-9-8.5-21.1-.5-12.1 8.5-20.9 9-9 21-9t21 9l144 144q9 9 9 21t-9 21L714 741q-9 9-21 9t-21-9q-9-9-8.5-21t8.5-21l92-93Z"/></svg>