<svg xmlns="http://www.w3.org/2000/svg" width="48" height="48" viewBox="0 96 960 960"><path d="M480 976q-82 0-155-31.5t-127.5-86Q143 804 111.5 731T80 576q0-83 31.5-156t86-127Q252 239 325 207.5T480 176q83 0 156 31.5T763 293q54 54 85.5 127T880 576q0 82-31.5 155T763 858.5q-54 54.5-127 86T480 976Zm0-60q142 0 241-99.5T820 576q0-142-99-241t-241-99q-141 0-240.5 99T140 576q0 141 99.5 240.5T480 916Zm0-340Zm-1 287q11 0 19-8.5t8-19.5v-24q60-7 94.5-40.5T635 685q0-52-28.5-83T508 548q-63-21-86.5-41.5T398 453q0-31 22.5-48.5T482 387q24 0 43 9t33 27q7 8 17 11t19-2q11-5 14.5-16t-3.5-20q-17-24-41.5-38T508 341v-24q0-11-8-19t-19-8q-11 0-19.5 8t-8.5 19v24q-51 7-80.5 37T343 453q0 49 25.5 78t94.5 55q71 27 94 47t23 52q0 33-27 55.5T487 763q-33 0-60.5-16T384 702q-5-8-13.5-12.5T353 688q-13 5-17.5 15.5T338 725q20 33 47.5 53.5T451 809v27q0 11 8.5 19t19.5 8Z"/></svg>