<svg xmlns="http://www.w3.org/2000/svg" width="48" height="48" viewBox="0 -960 960 960"><path d="M540-420q-50 0-85-35t-35-85q0-50 35-85t85-35q50 0 85 35t35 85q0 50-35 85t-85 35ZM220-280q-24.75 0-42.375-17.625T160-340v-400q0-24.75 17.625-42.375T220-800h640q24.75 0 42.375 17.625T920-740v400q0 24.75-17.625 42.375T860-280H220Zm100-60h440q0-42 29-71t71-29v-200q-42 0-71-29t-29-71H320q0 42-29 71t-71 29v200q42 0 71 29t29 71Zm450 180H100q-24.75 0-42.375-17.625T40-220v-430q0-12.75 8.675-21.375Q57.351-680 70.175-680 83-680 91.5-671.375T100-650v430h670q12.75 0 21.375 8.675 8.625 8.676 8.625 21.5 0 12.825-8.625 21.325T770-160ZM220-340v-400 400Z"/></svg>