<svg xmlns="http://www.w3.org/2000/svg" width="48" height="48" viewBox="0 -960 960 960"><path d="M140-120q-24 0-42-18t-18-42v-513q0-24 18-42t42-18h147l55-66q8-11 20-16t26-5h184q14 0 26 5t20 16l55 66h147q24 0 42 18t18 42v513q0 24-18 42t-42 18H509v-141q80-10 136-64t65-126q2-14-7-24.5T680-486q-11 0-19.5 9T650-456q-9 57-57 96.5T480-320q-64 0-112.5-39T309-456q-2-12-10.5-21t-19.5-9q-14 0-23 10.5t-7 24.5q8 72 64 126t136 64v141H140Zm340-300q27 0 46.5-19.5T546-486v-174q0-27-19.5-46.5T480-726q-28 0-47.5 19T413-660v174q0 28 19.5 47t47.5 19Z"/></svg>