<svg xmlns="http://www.w3.org/2000/svg" width="48" height="48" viewBox="0 96 960 960"><path d="M169.859 571Q132 571 106 544.859t-26-64Q80 443 106.141 417t64-26Q208 391 234 417.141t26 64Q260 519 233.859 545t-64 26Zm185-170Q317 401 291 374.859t-26-64Q265 273 291.141 247t64-26Q393 221 419 247.141t26 64Q445 349 418.859 375t-64 26Zm250 0Q567 401 541 374.859t-26-64Q515 273 541.141 247t64-26Q643 221 669 247.141t26 64Q695 349 668.859 375t-64 26Zm185 170Q752 571 726 544.859t-26-64Q700 443 726.141 417t64-26Q828 391 854 417.141t26 64Q880 519 853.859 545t-64 26ZM266 981q-42 0-69-31.526T170 875q0-42 25.5-74.5T250 738q22-22 41-46.5t36-50.5q29-44 65-82t88-38q52 0 88.5 38t65.5 83q17 26 35.5 50t40.5 46q29 30 54.5 62.5T790 875q0 42.948-27 74.474Q736 981 694 981q-54 0-107-9t-107-9q-54 0-107 9t-107 9Z"/></svg>