<svg xmlns="http://www.w3.org/2000/svg" width="48" height="48" viewBox="0 96 960 960"><path d="M810 762q-8-8-8.5-20.5T809 719q24-31 37.5-68t13.5-76q0-39-13.5-76T807 433q-10-11-10-23t9-21q10-10 23.5-10t21.5 10q33 39 51 87t18 99q0 52-18 100t-51 87q-8 9-20 9t-21-9Zm-87-87q-7-7-7.5-17.5T721 637q9-14 14-30t5-33q0-17-5-33.5T721 510q-6-10-6-20t8-18q10-10 23.5-9.5T768 474q15 22 23.5 47t8.5 52q0 27-8.5 52.5T768 673q-8 11-21.5 11.5T723 675Zm-463 341q-25 0-42.5-17.5T200 956V196q0-25 17.5-42.5T260 136h440q25 0 42.5 17.5T760 196v146h-60v-56H260v580h440v-56h60v146q0 25-17.5 42.5T700 1016H260Z"/></svg>