<svg xmlns="http://www.w3.org/2000/svg" width="48" height="48" viewBox="0 96 960 960"><path d="M708 454q-8-9-7.5-21t8.5-20l58-58H556q-13 0-21.5-8.5T526 325q0-13 8.5-21.5T556 295h211l-56-56q-9-9-8.5-21t9.5-21q9-9 21-9t21 9l107 107q5 5 7 10t2 11q0 6-2 11t-7 10L751 455q-9 9-22 9t-21-10Zm87 482q-122 0-242.5-60T336 720q-96-96-156-216.5T120 261q0-19 13-32t32-13h140q14 0 24.5 9.5T343 251l27 126q2 14-.5 25.5T359 422L259 523q56 93 125.5 162T542 802l95-98q10-11 23-15.5t26-1.5l119 26q15 3 25 15t10 28v135q0 19-13 32t-32 13Z"/></svg>