<svg xmlns="http://www.w3.org/2000/svg" width="48" height="48" viewBox="0 -960 960 960"><path d="M180-79q-24 0-42-18t-18-42v-681q0-24 18-42t42-18h520q24 0 42 18t18 42v309q0 12.75-8.675 21.375-8.676 8.625-21.5 8.625-12.825 0-21.325-8.625T700-511v-309H462v251q0 9.391-7.5 13.696Q447-551 439-556l-73-45-73 45q-8 5-15.5.696Q270-559.609 270-569v-251h-90v681h298q12.75 0 21.375 8.675 8.625 8.676 8.625 21.5Q508-96 499.375-87.5T478-79H180Zm548 39q-81 0-136.5-55.5T536-232q0-81 55.5-136.5T728-424q81 0 136.5 55.5T920-232q0 81-55.5 136.5T728-40Zm-26-115 100-64q7-4.5 7-12.75T802-245l-100-64q-8-5-15.5-.75T679-297v130q0 8.5 7.5 12.75T702-155ZM478-820H180h520-222Zm-208 0h192-192Z"/></svg>