<svg xmlns="http://www.w3.org/2000/svg" width="48" height="48" viewBox="0 -960 960 960"><path d="M680-80q-24.75 0-42.375-17.625T620-140v-35L302-334q-5 2-10.5 3t-11.5 1H180q-24.75 0-42.375-17.625T120-390v-100q0-24.75 17.625-42.375T180-550h100.241q3.759 0 7.259.5 3.5.5 5.5 1.5l132-148q-2-5-3.5-10.5T420-720v-100q0-24.75 17.625-42.375T480-880h100q24.75 0 42.375 17.625T640-820v100q0 24.75-17.625 42.375T580-660H474L337-507q1.2 4.571 2.1 8.286.9 3.714.9 8.714v109l280 139q2-24 18.5-41t41.5-17h100q24.75 0 42.375 17.625T840-240v100q0 24.75-17.625 42.375T780-80H680ZM480-720h100v-100H480v100ZM180-390h100v-100H180v100Zm500 250h100v-100H680v100ZM530-770ZM230-440Zm500 250Z"/></svg>