<svg xmlns="http://www.w3.org/2000/svg" width="48" height="48" viewBox="0 96 960 960"><path d="M118 925q-14 7-26-2t-12-26q0-9 6.5-17.5T104 867q24-8 43.5-21t57.5-13q46 0 75 21.5t67 21.5q38 0 62.5-21.5T480 833q46 0 75 21.5t67 21.5q38 0 63-21.5t71-21.5q38 0 57.5 13t42.5 21q11 4 17.5 12t6.5 18q0 17-12 26t-26 2q-20-10-40-20.5T756 894q-38 0-65 21t-69 21q-42 0-73-21t-69-21q-38 0-66.5 21T343 936q-42 0-71-21t-67-21q-26 0-46 10.5T118 925Zm-3-187q-14 6-24.5-2.5T80 711q0-9 6-16.5t16-10.5q25-8 45-21t58-13q46 0 73 19t65 19q38 0 64.5-19t72.5-19q46 0 73 19t65 19q38 0 65-19t73-19q38 0 58 13t44 21q10 3 16 10.5t6 16.5q0 16-10.5 24.5T845 738q-21-10-41.5-21T756 706q-38 0-65 21t-69 21q-42 0-73-21t-69-21q-38 0-64.5 21T347 748q-42 0-73-21t-69-21q-27 0-48 11t-42 21Zm228-173q-18 0-32.5-7T288 540l135-135-54-54q-27-27-54.5-40T249 295q-16-2-27-13t-11-27q0-17 11.5-28.5T251 217q54 5 93 23t76 55l253 253q-11 9-25.5 13t-29.5 4q-38 0-65.5-21T480 523q-45 0-72 21t-65 21Zm325-156q-40 0-67.5-27.5T573 314q0-40 27.5-67.5T668 219q40 0 67.5 27.5T763 314q0 40-27.5 67.5T668 409Z"/></svg>