<svg xmlns="http://www.w3.org/2000/svg" width="48" height="48" viewBox="0 -960 960 960"><path d="M180-120q-24 0-42-18t-18-42v-600q0-24 18.06-42 18.05-18 42.13-18h364.77q12.79 0 21.42 8.68 8.62 8.67 8.62 21.5 0 12.82-8.62 21.32-8.63 8.5-21.43 8.5H180v600h600v-365q0-12.75 8.68-21.38 8.67-8.62 21.5-8.62 12.82 0 21.32 8.62 8.5 8.63 8.5 21.38v364.91Q840-156 822-138q-18 18-42 18H180Zm171-157q-12.75 0-21.37-8.68-8.63-8.67-8.63-21.5 0-12.82 8.63-21.32 8.62-8.5 21.37-8.5h259q12.75 0 21.38 8.68 8.62 8.67 8.62 21.5 0 12.82-8.62 21.32-8.63 8.5-21.38 8.5H351Zm0-127q-12.75 0-21.37-8.68-8.63-8.67-8.63-21.5 0-12.82 8.63-21.32 8.62-8.5 21.37-8.5h259q12.75 0 21.38 8.68 8.62 8.67 8.62 21.5 0 12.82-8.62 21.32-8.63 8.5-21.38 8.5H351Zm0-127q-12.75 0-21.37-8.68-8.63-8.67-8.63-21.5 0-12.82 8.63-21.32 8.62-8.5 21.37-8.5h259q12.75 0 21.38 8.68 8.62 8.67 8.62 21.5 0 12.82-8.62 21.32-8.63 8.5-21.38 8.5H351Zm350.5-82.63q-8.5-8.62-8.5-21.22v-57.65h-58q-12.75 0-21.37-8.57-8.63-8.58-8.63-21.25 0-12.68 8.63-21.18 8.62-8.5 21.37-8.5h58v-58q0-12.75 8.68-21.38 8.67-8.62 21.5-8.62 12.82 0 21.21 8.62 8.39 8.63 8.39 21.38v58h57.61q12.58 0 21.1 8.68 8.51 8.67 8.51 21.5 0 12.82-8.48 21.32T810.5-692H753v57.3q0 12.45-8.68 21.07-8.67 8.63-21.5 8.63-12.82 0-21.32-8.63Z"/></svg>