<svg xmlns="http://www.w3.org/2000/svg" width="48" height="48" viewBox="0 96 960 960"><path d="M302 684v192h356v-36L502 684H302Zm448 76h100q12.75 0 21.375-8.625T880 730V514q0-45.05-30.475-75.525Q819.05 408 774 408H398l352 352Zm-11-197q-12 0-21-9t-9-21q0-12 9-21t21-9q12 0 21 9t9 21q0 12-9 21t-21 9Zm-21-185H368L206 216h482q12.75 0 21.375 8.625T718 246v132ZM242 760H110q-12.75 0-21.375-8.625T80 730V514q0-45.05 30.5-75.525Q141 408 186 408h40L82 264q-9-9-9-21t9.862-21.75q8.345-8.25 21.241-8.25Q117 213 126 221l709 710q9 9 9 21t-9.053 21q-9.052 9-21.5 9Q801 982 792 973L675 856l43-42v62q0 24.75-17.625 42.375T658 936H302q-24.75 0-42.375-17.625T242 876V760Z"/></svg>