<svg xmlns="http://www.w3.org/2000/svg" width="48" height="48" viewBox="0 -960 960 960"><path d="m55-309 151-241q8-13 23.5-14t25.5 10l93 109 135-218q8-14 24.5-14.5T533-664l83 123q-16 2-31 6.5T555-524l-45-69-131 214q-8 13-23.5 14T330-375l-94-110-130 208q-7 11-19.5 14T63-268q-10-7-12-19t4-22ZM877-40 743-174q-21 15-45.5 23t-50.5 8q-71 0-120.5-49.5T477-313q0-71 49.5-120.5T647-483q71 0 120.5 49.5T817-313q0 26-8.5 50.5T786-216L920-83l-43 43ZM647-203q46 0 78-32t32-78q0-46-32-78t-78-32q-46 0-78 32t-32 78q0 46 32 78t78 32Zm74-328q-15-6-31-8t-33-4l197-310q7-11 19.5-13.5T897-861q10 7 12.5 19t-4.5 22L721-531Z"/></svg>