<svg xmlns="http://www.w3.org/2000/svg" width="48" height="48" viewBox="0 96 960 960"><path d="M558 973q-11 5-23.5 1T517 959l-69-138q-5-11-1.5-23.5T461 780q11-5 23.5-1t17.5 15l69 138q5 11 1.5 23.5T558 973Zm240-1q-11 5-23.5 1T757 958l-69-138q-5-11-1.5-23.5T701 779q11-5 23.5-1t17.5 15l69 138q5 11 1.5 23.5T798 972Zm-480 0q-11 5-23.5 1.5T277 959l-69-138q-5-11-1-23.5t15-17.5q11-5 23.5-1.5T263 793l69 139q5 11 1 23t-15 17Zm-28-256q-87 0-148.5-61.5T80 506q0-79 56.5-141T277 297q32-56 84.5-88.5T480 176q91 0 152.5 57.5T708 376q79 4 125.5 53.5T880 546q0 70-49.5 120T710 716H290Z"/></svg>