<svg xmlns="http://www.w3.org/2000/svg" width="48" height="48" viewBox="0 0 48 48"><path d="M4 23.95q0-3.6 1.25-6.875T8.8 11.05q.4-.5 1.025-.55.625-.05 1.075.4.45.45.425 1.075-.025.625-.425 1.175Q9 15.45 8 18.2t-1 5.75q0 2.95 1.05 5.65t2.9 5.05q.4.55.425 1.2.025.65-.425 1.1-.45.45-1.1.425-.65-.025-1.05-.525-2.25-2.75-3.525-6.05T4 23.95ZM19 35.5q-1.05 0-1.775-.725Q16.5 34.05 16.5 33q0-1.05.725-1.775Q17.95 30.5 19 30.5q1.05 0 1.775.725.725.725.725 1.775 0 1.05-.725 1.775-.725.725-1.775.725Zm8.95-10q-.65 0-1.075-.425-.425-.425-.425-1.075v-2.45L24.4 22.8q-.55.3-1.15.15-.6-.15-.9-.7-.3-.55-.15-1.15.15-.6.7-.9l2.05-1.2-2.1-1.2q-.55-.3-.675-.9-.125-.6.175-1.15.3-.55.9-.7.6-.15 1.15.2l2.05 1.2V14q0-.65.425-1.075.425-.425 1.075-.425.65 0 1.075.425.425.425.425 1.075v2.45l2.05-1.25q.55-.3 1.15-.15.6.15.9.7.3.55.15 1.15-.15.6-.7.9L30.95 19l2.1 1.2q.55.3.675.9.125.6-.175 1.15-.3.55-.9.7-.6.15-1.15-.2l-2.05-1.2V24q0 .65-.425 1.075-.425.425-1.075.425ZM44 23.95q0 3.6-1.25 6.875T39.2 36.85q-.4.5-1.025.525-.625.025-1.075-.425-.45-.45-.45-1.075t.4-1.175q1.85-2.3 2.9-5.025Q41 26.95 41 23.95q0-3-1.05-5.75t-2.9-5.05q-.4-.55-.4-1.175t.45-1.075q.45-.45 1.075-.4.625.05 1.025.55 2.25 2.75 3.525 6.025Q44 20.35 44 23.95Z"/></svg>