<svg xmlns="http://www.w3.org/2000/svg" width="48" height="48" viewBox="0 -960 960 960"><path d="M160-400q-12 0-21-8.625T130-430q0-12.75 8.5-21.375T160-460h530q42 0 71-29t29-71q0-42-29-71t-71-29H209l52 52q5 4 7 9.75t2 11.5q0 5.75-2 11.25t-6.667 10.167Q252-556 240-556q-12 0-21-9L115-669q-9-9-9-21t9-21l104-104q8.8-9 20.9-9 12.1 0 21.433 8.667Q266-811 268-805.25t2 11.5q0 5.75-2 11.25t-7 10.5l-52 52h481q66 0 113 47t47 113q0 66-47 113t-113 47H160Zm30 320q-24.75 0-42.375-17.625T130-140v-120q0-24.75 17.625-42.375T190-320h600q24.75 0 42.375 17.625T850-260v120q0 24.75-17.625 42.375T790-80H190Zm0-60h163v-120H190v120Zm223 0h153v-120H413v120Zm214 0h163v-120H627v120Z"/></svg>