<svg xmlns="http://www.w3.org/2000/svg" width="48" height="48" viewBox="0 0 48 48"><path d="M24 33.5q-3.6 0-6.225-2.325Q15.15 28.85 14.6 25.4q-.1-.4.2-.65.3-.25.7-.25.4 0 .7.2.3.2.4.6.45 2.7 2.55 4.45 2.1 1.75 4.85 1.75 3.15 0 5.325-2.175Q31.5 27.15 31.5 24q0-3.15-2.175-5.325Q27.15 16.5 24 16.5h-.3l2.25 2.3q.3.3.3.7 0 .4-.3.7-.3.3-.725.3t-.725-.3l-4-4q-.25-.25-.25-.55 0-.3.25-.55l4.05-4.05q.3-.3.7-.3.4 0 .7.3.3.3.3.725t-.3.725l-1.95 2q3.95.1 6.725 2.85Q33.5 20.1 33.5 24q0 3.95-2.775 6.725Q27.95 33.5 24 33.5ZM24 44q4.15 0 7.775-1.575t6.35-4.3q2.725-2.725 4.3-6.375Q44 28.1 44 24q0-4.15-1.575-7.8-1.575-3.65-4.3-6.35-2.725-2.7-6.35-4.275Q28.15 4 24 4t-7.8 1.575Q12.55 7.15 9.85 9.85q-2.7 2.7-4.275 6.35Q4 19.85 4 24q0 4.1 1.575 7.75Q7.15 35.4 9.85 38.125t6.35 4.3Q19.85 44 24 44Z"/></svg>