<svg xmlns="http://www.w3.org/2000/svg" width="48" height="48" viewBox="0 -960 960 960"><path d="M120-439v-83h60v83h-60Zm0-170v-83h60v83h-60Zm148-171v-60h83v60h-83Zm171 660v-60h83v60h-83Zm0-660v-60h83v60h-83Zm170 660v-60h83v60h-83Zm171-148v-83h60v83h-60Zm0-171v-83h60v83h-60Zm29.825-170Q797-609 788.5-617.625T780-639v-141H639q-12.75 0-21.375-8.675-8.625-8.676-8.625-21.5 0-12.825 8.625-21.325T639-840h141q24.75 0 42.375 17.625T840-780v141q0 12.75-8.675 21.375-8.676 8.625-21.5 8.625ZM180-120q-24.75 0-42.375-17.625T120-180v-141q0-12.75 8.675-21.375 8.676-8.625 21.5-8.625 12.825 0 21.325 8.625T180-321v141h141q12.75 0 21.375 8.675 8.625 8.676 8.625 21.5 0 12.825-8.625 21.325T321-120H180Zm600 0v-60h60q0 24-18 42t-42 18ZM120-780q0-24 18-42t42-18v60h-60Z"/></svg>