<svg xmlns="http://www.w3.org/2000/svg" width="48" height="48" viewBox="0 -960 960 960"><path d="M119-480q-10.5 0-14.25-9.5T109-506l331-298q7.975-8.25 18.487-11.625Q469-819 480-819q11 0 21.513 3.375Q512.025-812.25 520-804l160 144v-90q0-12.75 8.625-21.375T710-780h20q12.75 0 21.375 8.625T760-750v162l91 82q8 7 4.316 16.5t-14 9.5h-27.263Q803-480 792.5-483.5T774-495L480-759 186-495q-8 8-18.325 11.5t-21.387 3.5H119Zm251 290v-160q0-12.75 8.625-21.375T400-380h160q12.75 0 21.375 8.625T590-350v160q0 12.75-8.625 21.375T560-160H400q-12.75 0-21.375-8.625T370-190Z"/></svg>