<svg xmlns="http://www.w3.org/2000/svg" width="48" height="48" viewBox="0 96 960 960"><path d="M709 976q-6 0-10-3.5t-5-9.5l-4-35q-20-6-41-17.5T615 885l-30 14q-5 2-10.5 1t-8.5-6l-21-32q-3-5-2-10t6-9l27-22q-5-23-5-41.5t5-41.5l-27-22q-5-4-6-9t2-10l21-33q3-5 8.5-6t10.5 1l30 14q13-12 34-24t41-18l4-36q1-6 5-9.5t10-3.5h33q6 0 10 3.5t5 9.5l4 36q20 6 41 18t34 24l30-14q5-2 10.5-1t8.5 6l21 33q3 5 2 10t-6 9l-27 22q5 23 5 41.5t-5 41.5l27 22q5 4 6 9t-2 10l-21 32q-3 5-8.5 6t-10.5-1l-30-14q-13 14-34 25.5T761 928l-4 35q-1 6-5 9.5t-10 3.5h-33Zm16-95q44 0 73-29t29-73q0-44-29-73t-73-29q-44 0-73 29t-29 73q0 44 29 73t73 29ZM451 616q17 0 28.5-11.5T491 576q0-17-11.5-28.5T451 536q-17 0-28.5 11.5T411 576q0 17 11.5 28.5T451 616ZM150 936q-13 0-21.5-8.5T120 906q0-13 8.5-21.5T150 876h62V246q0-13 8.5-21.5T242 216h330q13 0 21.5 8.5T602 246v15h117q13 0 21.5 8.5T749 291v231h-60V321h-87v230q-16 8-32.5 20T542 596q-34 34-54 81t-20 102q0 28 5 52.5t13 44.5q7 17 13.5 30t19.5 30H150Z"/></svg>