<svg xmlns="http://www.w3.org/2000/svg" width="48" height="48" viewBox="0 -960 960 960"><path d="M422-120q-17 0-28.5-12.083-11.5-12.084-11.5-29Q382-178 394.059-190T423-202h58l89-556H439l-27 165q-2.447 15.114-14.276 25.057Q385.895-558 369.579-558 350-558 338-572.5t-9-34.5l30-183q3.734-21.642 20.538-35.821Q396.342-840 418-840h396q28.294 0 46.647 21Q879-798 874-770l-29 177q-2.447 15.114-14.276 25.057Q818.895-558 802.579-558 783-558 771-573t-9-34l24-151H655l-89 556h46q16.882 0 28.941 12.083 12.059 12.084 12.059 29Q653-144 640.941-132T612-120H422ZM189-700q-13.077 0-21.538-8.675-8.462-8.676-8.462-21.5 0-12.825 8.625-21.325T189-760h104l-10 60h-94Zm-26 165q-13.077 0-21.538-8.675-8.462-8.676-8.462-21.5 0-12.825 8.625-21.325T163-595h104l-10 60h-94Zm-53 330q-12.75 0-21.375-8.675Q80-222.351 80-235.175 80-248 88.625-256.5T110-265h204l-9 60H110Zm27-165q-13.077 0-21.538-8.675-8.462-8.676-8.462-21.5 0-12.825 8.625-21.325T137-430h204l-10 60H137Z"/></svg>