<svg xmlns="http://www.w3.org/2000/svg" width="48" height="48" viewBox="0 96 960 960"><path d="M680 406q-20 0-35-15t-15-35q0-11 8.5-27t22.5-35q3.889-5.385 8.944-7.692Q675 284 680 284q5 0 10.056 2.308 5.055 2.307 8.944 7.692 14 19 22.5 35t8.5 27q0 20-14.583 35-14.584 15-35.417 15Zm110 280q-37 0-63.5-26.5T700 596q0-26 19-62.5t46-71.5q5-7 11.557-10t13.5-3q6.943 0 13.443 3t11.5 10q26.765 35.363 45.882 71.681Q880 570 880 596q0 37-26.1 63.5T790 686ZM390.175 806q12.825 0 21.325-8.625T420 776v-50h50q12.75 0 21.375-8.675 8.625-8.676 8.625-21.5 0-12.825-8.625-21.325T470 666h-50v-50q0-12.75-8.675-21.375-8.676-8.625-21.5-8.625-12.825 0-21.325 8.625T360 616v50h-50q-12.75 0-21.375 8.675-8.625 8.676-8.625 21.5 0 12.825 8.625 21.325T310 726h50v50q0 12.75 8.675 21.375 8.676 8.625 21.5 8.625ZM220 976q-24.75 0-42.375-17.625T160 916V566q0-86 57-150.192Q274 351.616 360 338V236h-60q-12.75 0-21.375-8.675-8.625-8.676-8.625-21.5 0-12.825 8.625-21.325T300 176h210q16.615 0 32.308 2.5 15.692 2.5 29.53 7.214Q590 192 593.5 208.5T585 237q-6 6-15.5 7.5T551 243q-10-4-20.083-5.5-10.084-1.5-21.287-1.5H420v102q86 13.616 143 77.808Q620 480 620 566v350q0 24.75-17.625 42.375T560 976H220Z"/></svg>