<svg xmlns="http://www.w3.org/2000/svg" width="48" height="48" viewBox="0 96 960 960"><path d="M140 976q-26 0-42.5-18T83 916q9-91 42-157.5T204.5 647Q251 602 305 577t105-32V406q-113-14-200-59.5T93 235q-10-21 .5-40t36.5-19h700q26 0 36.5 19t.5 40q-30 66-117 111.5T550 406v139q51 7 105 32t100.5 70Q802 692 835 758.5T877 916q2 24-14.5 42T820 976H670q-13 0-21.5-8.5T640 946q0-13 8.5-21.5T670 916h147q-18-152-111-234.5T480 599q-133 0-226 82.5T143 916h147q13 0 21.5 8.5T320 946q0 13-8.5 21.5T290 976H140Zm340-625q106 0 196-36.5T795 236H165q29 42 119 78.5T480 351Zm0 625q-33 0-56.5-23.5T400 896q0-17 6.5-31t17.5-25q19-19 58.5-38.5T575 761q27-11 38.5 1t.5 39q-21 53-40 92.5T536 952q-11 11-25 17.5t-31 6.5Zm0-625Z"/></svg>