<svg xmlns="http://www.w3.org/2000/svg" width="48" height="48" viewBox="0 0 48 48"><path d="M34.6 42q-3.1 0-5.25-2.15T27.2 34.6q0-3.1 2.15-5.25t5.25-2.15q3.1 0 5.25 2.15T42 34.6q0 3.1-2.15 5.25T34.6 42Zm0-3q1.9 0 3.15-1.25T39 34.6q0-1.9-1.25-3.15T34.6 30.2q-1.9 0-3.15 1.25T30.2 34.6q0 1.9 1.25 3.15T34.6 39Zm0-4.4Zm-21.2.9q-3.1 0-5.25-2.15T6 28.1q0-3.1 2.15-5.25t5.25-2.15q3.1 0 5.25 2.15t2.15 5.25q0 3.1-2.15 5.25T13.4 35.5Zm0-3q1.85 0 3.125-1.275T17.8 28.1q0-1.85-1.275-3.125T13.4 23.7q-1.85 0-3.125 1.275T9 28.1q0 1.85 1.275 3.125T13.4 32.5Zm0-4.4Zm8.45-9.3q-3.1 0-5.25-2.15t-2.15-5.25q0-3.1 2.15-5.25T21.85 4q3.1 0 5.25 2.15t2.15 5.25q0 3.1-2.15 5.25t-5.25 2.15Zm0-3q1.9 0 3.15-1.25t1.25-3.15q0-1.9-1.25-3.15T21.85 7q-1.9 0-3.15 1.25t-1.25 3.15q0 1.9 1.25 3.15t3.15 1.25Zm0-4.4Z"/></svg>