<svg xmlns="http://www.w3.org/2000/svg" width="48" height="48" viewBox="0 -960 960 960"><path d="M260-260h103q12.75 0 21.375 8.675 8.625 8.676 8.625 21.5 0 12.825-8.625 21.325T363-200H230q-12.75 0-21.375-8.625T200-230v-133q0-12.75 8.675-21.375 8.676-8.625 21.5-8.625 12.825 0 21.325 8.625T260-363v103Zm0-440v103q0 12.75-8.675 21.375-8.676 8.625-21.5 8.625-12.825 0-21.325-8.625T200-597v-133q0-12.75 8.625-21.375T230-760h133q12.75 0 21.375 8.675 8.625 8.676 8.625 21.5 0 12.825-8.625 21.325T363-700H260Zm440 0H597q-12.75 0-21.375-8.675-8.625-8.676-8.625-21.5 0-12.825 8.625-21.325T597-760h133q12.75 0 21.375 8.625T760-730v133q0 12.75-8.675 21.375-8.676 8.625-21.5 8.625-12.825 0-21.325-8.625T700-597v-103Zm0 500H590q-12.75 0-21.375-8.675-8.625-8.676-8.625-21.5 0-12.825 8.625-21.325T590-260h110v-110q0-12.75 8.675-21.375 8.676-8.625 21.5-8.625 12.825 0 21.325 8.625T760-370v110h110q12.75 0 21.375 8.675 8.625 8.676 8.625 21.5 0 12.825-8.625 21.325T870-200H760v110q0 12.75-8.675 21.375Q742.649-60 729.825-60 717-60 708.5-68.625T700-90v-110Z"/></svg>