<svg xmlns="http://www.w3.org/2000/svg" width="48" height="48" viewBox="0 96 960 960"><path d="M120 276q0-24 18-42t42-18v60h-60Zm0 341v-83h60v83h-60Zm148 319v-60h83v60h-83ZM120 447v-83h60v83h-60Zm319-171v-60h83v60h-83Zm341 0v-60q24 0 42 18t18 42h-60ZM180 936q-24 0-42-18t-18-42h60v60Zm-60-148v-83h60v83h-60Zm148-512v-60h83v60h-83Zm171 660v-60h83v60h-83Zm341-319v-83h60v83h-60Zm0 319v-60h60q0 24-18 42t-42 18Zm0-489v-83h60v83h-60Zm0 341v-83h60v83h-60ZM609 936v-60h83v60h-83Zm0-660v-60h83v60h-83ZM298 788q-12.75 0-21.375-8.625T268 758V394q0-12.75 8.625-21.375T298 364h364q12.75 0 21.375 8.625T692 394v364q0 12.75-8.625 21.375T662 788H298Zm30-60h304V424H328v304Z"/></svg>