<svg xmlns="http://www.w3.org/2000/svg" width="48" height="48" viewBox="0 -960 960 960"><path d="M120-205v-200l302-75-302-77v-198q0-16.133 13.5-24.567Q147-788 162-782l622 262q-23.5 0-47-.5t-47 .5q-97 0-168 64t-81 161L162-178q-15 6-28.5-2.433Q120-188.867 120-205ZM689.894-80Q611-80 555.5-135T500-269.187q0-79.188 55.606-135Q611.212-460 690.106-460T824.5-404.187q55.5 55.812 55.5 135Q880-190 824.394-135q-55.606 55-134.5 55ZM675-213l-67-67q-5-5-10-5t-10 5q-5 5-5 10.5t5 10.5l81 82q9 9 21 9t21-9l82-82q5-5 5-10.5t-5-10.5q-5-5-10.5-5t-10.5 5l-67 67v-156q0-6-4.5-10.5T690-384q-6 0-10.5 4.5T675-369v156Z"/></svg>