<svg xmlns="http://www.w3.org/2000/svg" width="48" height="48" viewBox="0 -960 960 960"><path d="M480-260q34 0 64-12.5t56-35.5q9-8 9-21t-9-21q-9-8-21.5-8t-22.5 8q-17 13-36 21t-40 8q-21 0-40-8t-36-21q-10-8-22.5-8t-21.5 8q-9 8-9 21t9 21q26 22 56 35t64 13ZM324-111.5Q251-143 197-197t-85.5-127Q80-397 80-480t31.5-156Q143-709 197-763t127-85.5Q397-880 480-880t156 31.5Q709-817 763-763t85.5 127Q880-563 880-480t-31.5 156Q817-251 763-197t-127 85.5Q563-80 480-80t-156-31.5ZM480-480Zm241 241q99-99 99-241t-99-241q-99-99-241-99t-241 99q-99 99-99 241t99 241q99 99 241 99t241-99ZM340-480q33 0 59-21.5t40-52.5q5-11-1-22t-18-14q-11-3-22 2.5T382-571q-7 13-17.5 22t-24.5 9q-14 0-25-9.5T298-572q-5-11-16-16t-22-2q-12 3-17.5 14.5T242-552q14 31 39.5 51.5T340-480Zm280 0q33 0 59-21.5t40-52.5q5-11-1-22t-18-14q-11-3-22 2.5T662-571q-7 13-17.5 22t-24.5 9q-14 0-25-9.5T578-572q-5-11-16-16t-22-2q-12 3-17.5 14.5T522-552q14 31 39.5 51.5T620-480Z"/></svg>