<svg xmlns="http://www.w3.org/2000/svg" width="48" height="48" viewBox="0 -960 960 960"><path d="M626-533q23.4 0 38.7-15.3Q680-563.6 680-587q0-23.4-15.3-38.7Q649.4-641 626-641q-23.4 0-38.7 15.3Q572-610.4 572-587q0 23.4 15.3 38.7Q602.6-533 626-533Zm-292 0q23.4 0 38.7-15.3Q388-563.6 388-587q0-23.4-15.3-38.7Q357.4-641 334-641q-23.4 0-38.7 15.3Q280-610.4 280-587q0 23.4 15.3 38.7Q310.6-533 334-533ZM480.266-80q-82.734 0-155.5-31.5t-127.266-86q-54.5-54.5-86-127.341Q80-397.681 80-480.5q0-82.819 31.5-155.659Q143-709 197.5-763t127.341-85.5Q397.681-880 480.5-880q82.819 0 155.659 31.5Q709-817 763-763t85.5 127Q880-563 880-480.266q0 82.734-31.5 155.5T763-197.684q-54 54.316-127 86Q563-80 480.266-80ZM315-285q7 0 13.711-4 6.71-4 10.289-10 23-34 61-51.5t80.5-17.5q42.5 0 80 18t61.5 52q4 5 11 9t12.6 4q14.4 0 20.4-11.5 6-11.5-2-23.5-29-45-78-71t-106-26q-57 0-105.5 25.5T299-324q-10 15-3.5 27t19.5 12Z"/></svg>