<svg xmlns="http://www.w3.org/2000/svg" width="48" height="48" viewBox="0 96 960 960"><path d="M286.071 544q7.072 7 16.5 7Q312 551 319 544l28-28 29 29q7 7 16.5 6.5t16.5-7.571q7-7.072 7-16.5Q416 518 409 511l-29-28 29-29q7-7.091 7-16.545Q416 428 408.929 421q-7.072-7-16.5-7Q383 414 376 421l-29 29-29-29q-6.818-7-15.909-7Q293 414 286 421.071q-7 7.072-7 16.5Q279 447 286 454l28 29-29 29q-7 7-6.5 16t7.571 16Zm266 0q7.072 7 16.5 7Q578 551 585 544l28-28 29 29q7 7 16.5 6.5t16.5-7.571q7-7.072 7-16.5Q682 518 675 511l-29-28 29-29q7-7.091 7-16.545Q682 428 674.929 421q-7.072-7-16.5-7Q649 414 642 421l-29 29-29-29q-6.818-7-15.909-7Q559 414 552 421.071q-7 7.072-7 16.5Q545 447 552 454l28 29-29 29q-7 7-6.5 16t7.571 16Zm-71.805 432q-82.734 0-155.5-31.5t-127.266-86q-54.5-54.5-86-127.341Q80 658.319 80 575.5q0-82.819 31.5-155.659Q143 347 197.5 293t127.341-85.5Q397.681 176 480.5 176q82.819 0 155.659 31.5Q709 239 763 293t85.5 127Q880 493 880 575.734q0 82.734-31.5 155.5T763 858.316q-54 54.316-127 86Q563 976 480.266 976ZM480 576Zm.486 340Q622 916 721 816.514q99-99.485 99-241Q820 434 721 335t-240.514-99q-141.515 0-241 99Q140 434 140 575.514q0 141.515 99.486 241Q338.971 916 480.486 916Zm-168.76-145h336.421q13.853 0 20.353-9 6.5-9-1.5-21-29-48-79.5-75T480 639q-57 0-107 27t-79 75q-8 12-2.063 21 5.937 9 19.789 9Z"/></svg>