<svg xmlns="http://www.w3.org/2000/svg" width="48" height="48" viewBox="0 96 960 960"><path d="M626 523q23.4 0 38.7-15.3Q680 492.4 680 469q0-23.4-15.3-38.7Q649.4 415 626 415q-23.4 0-38.7 15.3Q572 445.6 572 469q0 23.4 15.3 38.7Q602.6 523 626 523Zm-292 0q23.4 0 38.7-15.3Q388 492.4 388 469q0-23.4-15.3-38.7Q357.4 415 334 415q-23.4 0-38.7 15.3Q280 445.6 280 469q0 23.4 15.3 38.7Q310.6 523 334 523Zm45 194h204q10.4 0 17.2-7.116 6.8-7.117 6.8-18 0-10.884-6.5-17.384T583 668H378q-10.4 0-17.2 6.5-6.8 6.5-6.8 17.384 0 10.883 7.083 18Q368.167 717 379 717Zm101.266 259q-82.734 0-155.5-31.5t-127.266-86q-54.5-54.5-86-127.341Q80 658.319 80 575.5q0-82.819 31.5-155.659Q143 347 197.5 293t127.341-85.5Q397.681 176 480.5 176q82.819 0 155.659 31.5Q709 239 763 293t85.5 127Q880 493 880 575.734q0 82.734-31.5 155.5T763 858.316q-54 54.316-127 86Q563 976 480.266 976Z"/></svg>