<svg xmlns="http://www.w3.org/2000/svg" width="48" height="48"><path d="m20 20.5-2.75-2.75h13.5L28 20.5zM6.4 16.25l1.7-3.5h31.8l1.7 3.5zm4.05-5.1L12 8h24l1.55 3.15zM6 40 4 17.75h11L19.25 22h9.5L33 17.75h11L42 40zm15.5-3q.5 0 .875-.275T22.9 36h2.2q.15.45.525.725Q26 37 26.5 37q.6 0 1.05-.45.45-.45.45-1.05 0-.6-.45-1.05Q27.1 34 26.5 34q-.5 0-.875.275T25.1 35h-2.2q-.05-.15-.125-.275-.075-.125-.175-.225l1.15-2.05q.1 0 .125.025.025.025.125.025.5 0 .875-.275t.525-.725h2.7q.15.45.525.725.375.275.875.275.6 0 1.05-.45Q31 31.6 31 31q0-.6-.45-1.05-.45-.45-1.05-.45-.5 0-.875.275t-.525.725h-2.7q-.1-.3-.3-.5l1.15-2.05q.1 0 .125.025.025.025.125.025.6 0 1.05-.45.45-.45.45-1.05 0-.6-.45-1.05Q27.1 25 26.5 25q-.5 0-.875.275T25.1 26h-2.2q-.15-.45-.525-.725Q22 25 21.5 25q-.6 0-1.05.45-.45.45-.45 1.05 0 .6.45 1.05.45.45 1.05.45.5 0 .875-.275T22.9 27h2.2q.05.15.125.275.075.125.175.225l-1.15 2.05q-.1 0-.125-.025Q24.1 29.5 24 29.5q-.5 0-.875.275t-.525.725h-2.7q-.15-.45-.525-.725Q19 29.5 18.5 29.5q-.6 0-1.05.45Q17 30.4 17 31q0 .6.45 1.05.45.45 1.05.45.5 0 .875-.275t.525-.725h2.7q.1.3.3.5l-1.15 2.05q-.1 0-.125-.025Q21.6 34 21.5 34q-.6 0-1.05.45-.45.45-.45 1.05 0 .6.45 1.05.45.45 1.05.45z"/></svg>