<svg xmlns="http://www.w3.org/2000/svg" width="48" height="48" viewBox="0 96 960 960"><path d="M240 536q-83 0-141.5-58.5T40 336q0-84 58.5-142T240 136q84 0 142 58t58 142q0 83-58 141.5T240 536Zm380 480q-25 0-42.5-17.5T560 956V716q0-25 17.5-42.5T620 656h240q25 0 42.5 17.5T920 716v240q0 25-17.5 42.5T860 1016H620Zm95-632L288 810q7 12 10.5 25.5T302 864q0 45-32 77.5T192 974q-45 0-77.5-32.5T82 864q0-46 32.5-78t77.5-32q15 0 28.5 3.5T246 768l426-427q-7-12-10.5-25.5T658 288q0-46 32.5-78t77.5-32q46 0 78 32t32 78q0 45-32 77.5T768 398q-14 0-27.5-3.5T715 384Z"/></svg>