<svg xmlns="http://www.w3.org/2000/svg" width="48" height="48" viewBox="0 -960 960 960"><path d="M230-40q-78 0-134-56T40-230q0-78 56-134t134-56q78 0 134 56t56 134q0 78-56 134T230-40ZM120-476q0-47 33.5-82.5T234-594q23 0 44 9t38 26l303-174q-3-7.071-4.5-15.911Q613-757.75 613-766q0-47.5 33.25-80.75T727-880q47.5 0 80.75 33.25T841-766q0 47.5-33.25 80.75T727-652q-23.354 0-44.677-7.5T646-684L343-516q3 11 4 21.5t0 21.5q-27-13-56-20t-61-7q-29.217 0-56.609 6.5Q146-487 120-476ZM727-80q-47.5 0-80.75-33.346Q613-146.693 613-194.331q0-6.669 1.5-16.312T619-228l-129-75q-7-24-18-45.5T447-390l199 113q15-14 35-22.5t46-8.5q47.5 0 80.75 33.25T841-194q0 47.5-33.25 80.75T727-80ZM230-205l57 57q5 5 11.5 4.5t11.5-5.259q5-4.758 5-11.5Q315-167 310-172l-58-57 60-60q5-4.909 5-11.455Q317-307 312.071-312q-4.928-5-11.5-5Q294-317 289-312l-59 59-59-59q-4.636-5-10.818-5Q154-317 149-312.071q-5 4.928-5 11.5Q144-294 149-289l58 59-58 58q-5 5.182-5 12.091Q144-153 149.143-148q5.143 5 12 5T173-148l57-57Z"/></svg>