<svg xmlns="http://www.w3.org/2000/svg" width="48" height="48" viewBox="0 -960 960 960"><path d="M252-108 141-219q-9-9-9-21t9-21l111-111q12-12 28-12t28 12q12 12 11.5 28.5T308-315l-35 35h487q17 0 28.5 11.5T800-240q0 17-11.5 28.5T760-200H273l35 35q11 12 11.5 28.5T308-108q-12 12-28 12t-28-12Zm-47-332q-18.75 0-31.875-13.125T160-485v-390q0-18.75 13.125-31.875T205-920h550q18.75 0 31.875 13.125T800-875v390q0 18.75-13.125 31.875T755-440H205Zm35-280h200v-120H240v120Zm280 0h200v-120H520v120Zm-80 200v-120H240v120h200Zm80 0h200v-120H520v120Z"/></svg>