<svg xmlns="http://www.w3.org/2000/svg" width="48" height="48" viewBox="0 -960 960 960"><path d="M480-143q115-38 187.5-143.5T740-523v-196l-260-98-260 98v196q0 131 72.5 236.5T480-143Zm0-337Zm26 184q11-11 11-26t-11-26q-11-11-26-11t-26 11q-11 11-11 26t11 26q11 11 26 11t26-11Zm-24-117q9 0 16-6t9-15q1-7 3-13t6-12q5-8 11.5-15t13.5-13q20-18 34-41t14-50q0-42-31.5-69.5T483-675q-31 0-57.5 14T383-621q-5 8-1.5 17.5T395-590q9 4 18 0t16-12q10-12 24-18.5t30-6.5q23 0 39.5 14.5T539-576q0 19-11 34t-25 27q-10 9-18.5 19T469-475q-5 8-8.5 17.5T457-438q0 11 7 18t18 7ZM470.5-85q-4.5-1-9.5-3-139-47-220-168.5T160-523v-196q0-19 11-34.5t28-22.5l260-97q11-4 21-4t21 4l260 97q17 7 28 22.5t11 34.5v196q0 145-81 266.5T499-88q-5 2-9.5 3t-9.5 1q-5 0-9.5-1Z"/></svg>