<svg xmlns="http://www.w3.org/2000/svg" width="48" height="48" viewBox="0 -960 960 960"><path d="M289.788-80Q260-80 239-101.212q-21-21.213-21-51Q218-182 239.212-203q21.213-21 51-21Q320-224 341-202.788q21 21.213 21 51Q362-122 340.788-101q-21.213 21-51 21Zm404 0Q664-80 643-101.212q-21-21.213-21-51Q622-182 643.212-203q21.213-21 51-21Q724-224 745-202.788q21 21.213 21 51Q766-122 744.788-101q-21.213 21-51 21ZM459-595q-9-9-9-21t9-21l53-53H360q-12.75 0-21.375-8.675-8.625-8.676-8.625-21.5 0-12.825 8.625-21.325T360-750h152l-53-53q-9-9-9-21t9-21.391Q468-854 480-854t21 9l104 104q5 5 7 10.133 2 5.134 2 11Q614-714 612-709q-2 5-7 10L501-595q-9 9-21 9t-21-9ZM290-287q-40.065 0-60.532-34Q209-355 229-390l61-111-150-319H92q-12.75 0-21.375-8.675Q62-837.351 62-850.175 62-863 70.625-871.5T92-880h67q9 0 16.2 4.435Q182.4-871.13 186-863l162 347h292l148-265q3.684-6.75 10.316-10.875Q804.947-796 813.053-796 830-796 838.5-781.5t.5 29.5L695-491q-9.167 16.667-24.583 25.833Q655-456 634-456H334l-62 109h464q12.75 0 21.375 8.675 8.625 8.676 8.625 21.5 0 12.825-8.625 21.325T736-287H290Z"/></svg>