<svg xmlns="http://www.w3.org/2000/svg" width="48" height="48" viewBox="0 0 48 48"><path d="M34.85 41.25q-.45.4-1.05.425-.6.025-1.05-.425-.45-.45-.45-1.05 0-.6.45-1.05L35.9 36l-3.15-3.15q-.45-.45-.45-1.05 0-.6.45-1.05.45-.45 1.05-.45.6 0 1.05.45L38 33.9l3.15-3.15q.45-.45 1.05-.45.6 0 1.05.45.45.45.425 1.05-.025.6-.425 1.05L40.15 36l3.1 3.15q.4.45.425 1.05.025.6-.425 1.05-.45.45-1.05.425-.6-.025-1.05-.425L38 38.15ZM7.6 44q-1 0-1.375-.925t.325-1.625l34.9-34.9q.7-.7 1.625-.325Q44 6.6 44 7.6v19.7q-1.45-1-2.85-1.425-1.4-.425-3.15-.425-4.4 0-7.475 3.075Q27.45 31.6 27.45 36q0 2.4.95 4.4.95 2 2.7 3.6Z"/></svg>