<svg xmlns="http://www.w3.org/2000/svg" width="48" height="48" viewBox="0 96 960 960"><path d="m703 713-41-41 210-210q-85-66-184.5-106T480 316q-38.667 0-77.333 5Q364 326 326 337l-49-49q50-16 100.255-24 50.256-8 102.745-8 127 0 242.5 48.5T935 435q10.214 8.37 10.607 21.685Q946 470 937 479L703 713ZM480 854l96-96-372-372q-30.295 15.632-59.148 34.816Q116 440 88 462l392 392Zm336 143L617 799 501 915q-9 9-21 9t-21-9L23 479q-9-9-8.5-22T25 435q32-29 64.5-52t68.5-43L58 240q-9-9-9-21.5t9.053-21.5q9.052-9 21.5-9Q92 188 101 197l758 758q9 9 9 21t-9.053 21q-9.052 9-21.5 9Q825 1006 816 997ZM494 504Zm-104 68Z"/></svg>