<svg xmlns="http://www.w3.org/2000/svg" width="48" height="48" viewBox="0 -960 960 960"><path d="m131-131 698-698q14-14 32.5-6.344T880-808v388q0 12.75-8.625 21.375T850-390H680q-45.75 0-77.875 32.125T570-280v170q0 12.75-8.625 21.375T540-80H152q-19.688 0-27.344-18.5Q117-117 131-131Zm659 21v-170q0-12.75 8.675-21.375 8.676-8.625 21.5-8.625 12.825 0 21.325 8.625T850-280v170q0 12.75-8.675 21.375Q832.649-80 819.825-80 807-80 798.5-88.625T790-110Zm-140 0v-170q0-12.75 8.675-21.375 8.676-8.625 21.5-8.625 12.825 0 21.325 8.625T710-280v170q0 12.75-8.675 21.375Q692.649-80 679.825-80 667-80 658.5-88.625T650-110Z"/></svg>