<svg xmlns="http://www.w3.org/2000/svg" width="48" height="48" viewBox="0 -960 960 960"><path d="M769.825-80Q757-80 748.5-88.625T740-110v-90h-90q-12.75 0-21.375-8.675-8.625-8.676-8.625-21.5 0-12.825 8.625-21.325T650-260h90v-90q0-12.75 8.675-21.375 8.676-8.625 21.5-8.625 12.825 0 21.325 8.625T800-350v90h90q12.75 0 21.375 8.675 8.625 8.676 8.625 21.5 0 12.825-8.625 21.325T890-200h-90v90q0 12.75-8.675 21.375Q782.649-80 769.825-80ZM152-80q-19.688 0-27.344-18.5Q117-117 131-131l698-698q14-14 32.5-6.344T880-808v396q-25-15-53-23t-57-8q-88.678 0-150.839 62.161T557-230q0 42 16 81t46 69H152Z"/></svg>