<svg xmlns="http://www.w3.org/2000/svg" width="48" height="48" viewBox="0 96 960 960"><path d="M274 833.175q0 12.825 8.675 21.325 8.676 8.5 21.5 8.5 12.825 0 21.325-8.675 8.5-8.676 8.5-21.5 0-12.825-8.675-21.325-8.676-8.5-21.5-8.5-12.825 0-21.325 8.675-8.5 8.676-8.5 21.5Zm356 0q0 12.825 8.675 21.325 8.676 8.5 21.5 8.5 12.825 0 21.325-8.675 8.5-8.676 8.5-21.5 0-12.825-8.675-21.325-8.676-8.5-21.5-8.5-12.825 0-21.325 8.675-8.5 8.676-8.5 21.5ZM274 571v106q0 12.75 8.675 21.375 8.676 8.625 21.5 8.625 12.825 0 21.325-8.625T334 677V571q0-12.75-8.675-21.375-8.676-8.625-21.5-8.625-12.825 0-21.325 8.625T274 571Zm174 152v110q0 12.75 8.675 21.375 8.676 8.625 21.5 8.625 12.825 0 21.325-8.625T508 833V723q0-12.75-8.675-21.375-8.676-8.625-21.5-8.625-12.825 0-21.325 8.625T448 723Zm0-151.825q0 12.825 8.675 21.325 8.676 8.5 21.5 8.5 12.825 0 21.325-8.675 8.5-8.676 8.5-21.5 0-12.825-8.675-21.325-8.676-8.5-21.5-8.5-12.825 0-21.325 8.675-8.5 8.676-8.5 21.5ZM630 571v106q0 12.75 8.675 21.375 8.676 8.625 21.5 8.625 12.825 0 21.325-8.625T690 677V571q0-12.75-8.675-21.375-8.676-8.625-21.5-8.625-12.825 0-21.325 8.625T630 571ZM220 976q-24 0-42-18t-18-42V444q0-12.089 4.5-23.044Q169 410 178 401l207-207q9-9 19.956-13.5Q415.911 176 428 176h312q24 0 42 18t18 42v680q0 24-18 42t-42 18H220Z"/></svg>