<svg xmlns="http://www.w3.org/2000/svg" width="48" height="48" viewBox="0 0 48 48"><path d="M24.15 44q-4.2 0-7.875-1.6t-6.4-4.325q-2.725-2.725-4.325-6.4Q3.95 28 3.95 23.8q0-6.45 3.725-11.7Q11.4 6.85 17.55 4.75q.55-.2 1.075-.1.525.1.925.4.3.25.475.75T20.15 7q-.15 4.25 1.35 8.075Q23 18.9 26 21.9t6.85 4.525q3.85 1.525 8.1 1.375.7-.05 1.175.125.475.175.775.525.3.4.4.9.1.5-.1 1.05-2.1 6.1-7.325 9.85T24.15 44ZM35.1 12.9l-3.15-1.4q-.45-.2-.45-.7 0-.5.45-.7l3.15-1.4 1.4-3.15q.2-.45.7-.45.5 0 .7.45l1.4 3.15 3.15 1.4q.45.2.45.7 0 .5-.45.7l-3.15 1.4-1.4 3.15q-.2.45-.7.45-.5 0-.7-.45Z"/></svg>