<svg xmlns="http://www.w3.org/2000/svg" width="48" height="48" viewBox="0 0 48 48"><path d="M42.8 17.15q-.65 0-1.075-.425-.425-.425-.525-1.075-.25-1.65-.95-3.125T38.4 9.9l-2 3.3q-.45.8-1 1.75t-1.2 1.6q-.6.6-1.425.6-.825 0-1.425-.6-.6-.6-.575-1.4.025-.8.625-1.4.65-.65 1.575-1.225.925-.575 1.725-1.025l3.35-1.95q-1.2-1.15-2.725-1.9Q33.8 6.9 32.05 6.7q-.55-.1-.9-.525-.35-.425-.35-1.025 0-.6.4-1.075t1-.375q4.7.5 8.05 3.75 3.35 3.25 3.95 7.95.1.7-.3 1.225-.4.525-1.1.525ZM24.15 44q-4.2 0-7.875-1.6t-6.4-4.325q-2.725-2.725-4.325-6.4Q3.95 28 3.95 23.8q0-6.45 3.725-11.7Q11.4 6.85 17.55 4.75q.55-.2 1.075-.1.525.1.925.4.3.25.475.75T20.15 7q-.15 4.25 1.35 8.075Q23 18.9 26 21.9t6.85 4.525q3.85 1.525 8.1 1.375.7-.05 1.175.125.475.175.775.525.3.4.4.9.1.5-.1 1.05-2.1 6.1-7.325 9.85T24.15 44Z"/></svg>