<svg xmlns="http://www.w3.org/2000/svg" width="48" height="48" viewBox="0 96 960 960"><path d="M939 824q-14 27-40.5 44.5T840 886H640q-13 0-21.5-8.5T610 856q0-13 8.5-21.5T640 826h101L641 726H470q0 66-43.5 113T320 886H80q-33 0-51.5-22T10 816q0-17 9-33.5T47 755l161-88-136-40q-20-6-31.5-22.5T29 562q0-29 19.5-46t51.5-14l326 34 163-119-55-51h-54q-13 0-21.5-8.5T450 336q0-13 8.5-21.5T480 306h66q6 0 11 2t10 6l273 254q17 16 23.5 30.5T870 626q0 38-27.5 66T764 725l-41 2 106 99h11q13 0 23.5-5.5T881 805q6-9 13.5-14t15.5-5q17 0 26.5 12t2.5 26Zm-859 2h240q38 0 64-28.5t26-68.5l-121-37L76 806q-3 2-4.5 4.5T70 816q0 4 3 7t7 3Z"/></svg>