<svg xmlns="http://www.w3.org/2000/svg" width="48" height="48" viewBox="0 0 48 48"><path d="M4 24q0-7.4 4.7-12.875T20.4 4.35q.75-.15 1.275.2.525.35.525 1.05 0 .75-.475 1.2-.475.45-1.275.6-5.75 1.25-9.6 5.825Q7 17.8 7 24q0 2.45.675 4.675Q8.35 30.9 9.55 32.85q.4.65.4 1.25t-.55 1.15q-.5.5-1.1.4-.6-.1-1-.7-1.6-2.4-2.45-5.15Q4 27.05 4 24Zm20 20q-3.2 0-6.125-.95t-5.375-2.7q-.55-.4-.625-1-.075-.6.375-1.1.5-.55 1.175-.5.675.05 1.275.45 2.05 1.35 4.375 2.075Q21.4 41 24 41q2.6 0 4.95-.75t4.4-2.1q.6-.4 1.275-.45.675-.05 1.175.5.5.5.375 1.125t-.725 1.025q-2.45 1.7-5.35 2.675Q27.2 44 24 44Zm20-20q0 3.05-.85 5.8t-2.4 5.15q-.4.6-1 .7-.6.1-1.1-.4-.55-.55-.55-1.15 0-.6.4-1.25 1.2-1.95 1.85-4.175Q41 26.45 41 24q0-6.15-3.8-10.75T27.6 7.4q-.8-.15-1.275-.6-.475-.45-.475-1.2 0-.7.525-1.05.525-.35 1.275-.2 7 1.3 11.675 6.775Q44 16.6 44 24Zm-24.65 6.7V16.3q0-.45.375-.65t.775.05l11.25 7.15q.35.25.35.65t-.35.65L20.5 31.3q-.4.25-.775.05t-.375-.65Z"/></svg>