<svg xmlns="http://www.w3.org/2000/svg" width="48" height="48" viewBox="0 -960 960 960"><path d="M720-40q-59 0-106-30.5T542-149q-6-11-1.5-22.647 4.5-11.647 15.5-16.5t23-.853q12 4 18 15 17 33 49.5 53.5T720-100q58 0 99-41t41-99q0-58-41-99t-99-41q-29 0-54 10.5T622-340h28q13 0 21.5 8.5T680-310q0 13-8.5 21.5T650-280H550q-12.75 0-21.375-8.625T520-310v-100q0-13 8.5-21.5T550-440q13 0 21.5 8.5T580-410v27q27-26 63-41.5t77-15.5q83 0 141.5 58.5T920-240q0 83-58.5 141.5T720-40ZM310-620h340q12.75 0 21.375-8.675 8.625-8.676 8.625-21.5 0-12.825-8.625-21.325T650-680H310q-12.75 0-21.375 8.675-8.625 8.676-8.625 21.5 0 12.825 8.625 21.325T310-620ZM180-120q-24.75 0-42.375-17.625T120-180v-600q0-24.75 17.625-42.375T180-840h600q24.75 0 42.375 17.625T840-780v228q0 13.846-11 21.923Q818-522 805-527q-21-6-42.143-9.5T720-540q-35.497 0-68.458 7.875T589-510H310q-12.75 0-21.375 8.675-8.625 8.676-8.625 21.5 0 12.825 8.625 21.325T310-450h196q-23 23-40.5 50.5T436.911-340H310q-12.75 0-21.375 8.675-8.625 8.676-8.625 21.5 0 12.825 8.625 21.325T310-280h113q-2 10-2.5 19.5T420-240q0 21.714 3 42.857T432-155q4 12.935-3.5 23.967Q421-120 408-120H180Z"/></svg>