<svg xmlns="http://www.w3.org/2000/svg" width="48" height="48" viewBox="0 -960 960 960"><path d="M719.647-40Q661.4-40 614.2-70.5T542-149q-6-11-1.5-22.647 4.5-11.647 15.5-16.5t23-.853q12 4 18 15 17 33 49.5 53.5T720-100q58 0 99-41t41-99q0-58-41-99t-99-41q-29 0-54 10.5T622-340h28q13 0 21.5 8.5T680-310q0 13-8.5 21.5T650-280H550q-12.75 0-21.375-8.625T520-310v-100q0-13 8.5-21.5T550-440q13 0 21.5 8.5T580-410v27q27-26 63-41.5t77-15.5q83 0 141.5 58.5T920-240q0 83-58.5 141.5T719.647-40ZM180-180v-600 600Zm470-440q12.75 0 21.375-8.675 8.625-8.676 8.625-21.5 0-12.825-8.625-21.325T650-680H310q-12.75 0-21.375 8.675-8.625 8.676-8.625 21.5 0 12.825 8.625 21.325T310-620h340Zm-61 110H310q-12.75 0-21.375 8.675-8.625 8.676-8.625 21.5 0 12.825 8.625 21.325T310-450h196q17.91-18.092 38.955-33.546Q566-499 589-510ZM437-340H310q-12.75 0-21.375 8.675-8.625 8.676-8.625 21.5 0 12.825 8.625 21.325T310-280h113q2-16 5.474-30.915Q431.947-325.831 437-340ZM180-120q-24.75 0-42.375-17.625T120-180v-600q0-24.75 17.625-42.375T180-840h600q24.75 0 42.375 17.625T840-780v265q-14-6-29-11t-31-8v-246H180v600h246q3 16 8 31t11 29H180Z"/></svg>