<svg xmlns="http://www.w3.org/2000/svg" width="48" height="48" viewBox="0 96 960 960"><path d="M664 392q46 46 109.5 75T891 496q12 0 20.5-8.5T920 466q0-11-8.5-20T889 435q-52-5-98.5-27T707 349q-37-37-59.5-83.5T620 167q-2-14-10.5-22.5T590 136q-13 0-22 8.5t-9 20.5q1 55 30 118t75 109Zm128-127q23 23 51 36.5t52 13.5q11 0 18.5-8t7.5-19q0-11-8-21t-21-13q-17-4-31.5-12T834 222q-12-12-20-26t-12-30q-3-13-12.5-21.5T769 136q-12 0-20 7.5t-8 18.5q0 23 14 51.5t37 51.5ZM400 615q-66 0-108-42t-42-108q0-66 42-108t108-42q66 0 108 42t42 108q0 66-42 108t-108 42ZM140 936q-25 0-42.5-17.5T80 876v-34q0-38 19-64.5t49-41.5q51-26 120.5-43T400 676q62 0 131 17t120 43q30 15 49.5 41.5T720 842v34q0 25-17.5 42.5T660 936H140Z"/></svg>