<svg xmlns="http://www.w3.org/2000/svg" width="48" height="48" viewBox="0 0 48 48"><path d="M24 25.95q-3.3 0-5.4-2.1-2.1-2.1-2.1-5.4 0-3.3 2.1-5.4 2.1-2.1 5.4-2.1 3.3 0 5.4 2.1 2.1 2.1 2.1 5.4 0 3.3-2.1 5.4-2.1 2.1-5.4 2.1ZM8 37.3q0-1.9.95-3.225Q9.9 32.75 11.4 32q2.55-1.3 6.025-2.15Q20.9 29 24 29t6.55.85q3.45.85 6 2.15 1.5.75 2.475 2.075Q40 35.4 40 37.3V39q0 1.25-.875 2.125T37 42H11q-1.25 0-2.125-.875T8 39Zm3 1.7h26v-1.7q0-.8-.425-1.475T35.35 34.7q-2.4-1.35-5.45-2.025Q26.85 32 24 32q-2.85 0-5.925.725Q15 33.45 12.6 34.7q-.7.35-1.15 1.075Q11 36.5 11 37.3Zm13-16.05q1.95 0 3.225-1.275Q28.5 20.4 28.5 18.45q0-1.95-1.275-3.225Q25.95 13.95 24 13.95q-1.95 0-3.225 1.275Q19.5 16.5 19.5 18.45q0 1.95 1.275 3.225Q22.05 22.95 24 22.95ZM6.9 7q-.95.95-2.225 1.5-1.275.55-2.725.55-.65 0-1.075-.425Q.45 8.2.45 7.55q0-.65.425-1.075Q1.3 6.05 1.95 6.05q.85 0 1.55-.325.7-.325 1.25-.875t.85-1.275Q5.9 2.85 5.9 2q0-.65.45-1.1.45-.45 1.1-.45.65 0 1.075.45.425.45.425 1.1 0 1.45-.55 2.725Q7.85 6 6.9 7Zm5 4.95q-1.9 1.9-4.45 3-2.55 1.1-5.5 1.1-.65 0-1.075-.425Q.45 15.2.45 14.55q0-.65.425-1.075.425-.425 1.075-.425 2.3 0 4.3-.875T9.75 9.8q1.5-1.5 2.35-3.5.85-2 .85-4.3 0-.65.45-1.1.45-.45 1.1-.45.65 0 1.075.45Q16 1.35 16 2q0 2.9-1.1 5.475-1.1 2.575-3 4.475Zm24.15 0q-1.9-1.9-3-4.45-1.1-2.55-1.1-5.5 0-.65.45-1.1.45-.45 1.1-.45.65 0 1.075.45Q35 1.35 35 2q0 2.3.85 4.3t2.35 3.5q1.5 1.5 3.5 2.35 2 .85 4.3.9.65 0 1.075.425.425.425.425 1.075 0 .65-.425 1.075-.425.425-1.075.425-2.95 0-5.5-1.1t-4.45-3Zm5-5q-.95-.95-1.5-2.225Q39 3.45 38.95 2q0-.65.45-1.1.45-.45 1.1-.45.65 0 1.075.45Q42 1.35 42 2q0 .85.325 1.55.325.7.875 1.25t1.25.875Q45.15 6 46 6q.65 0 1.075.425.425.425.425 1.075 0 .65-.425 1.075Q46.65 9 46 9q-1.45 0-2.725-.55Q42 7.9 41.05 6.95ZM24 18.45ZM24 39Z"/></svg>