<svg xmlns="http://www.w3.org/2000/svg" width="48" height="48" viewBox="0 96 960 960"><path d="M590 976H369q-24 0-42-18t-18-42V537q0-24 18-42t42-18h221q24 0 42 18t18 42v379q0 24-18 42t-42 18Zm0-60V537H369v379h221Zm0 0H369h221ZM273.87 361.946Q265 353.161 265 341.08 265 329 275 321q42-31 94-48.5T480 255q59 0 111 17.5t94 48.5q10 8 10 20t-9.208 21.208Q678 370 665.163 371q-12.836 1-24.163-7-36-25-77.5-37T480 315q-42 0-83.5 12T319 364q-11.327 8-24.163 7-12.837-1-20.967-9.054Zm-82-83.076Q183 270 183 257.5q0-12.5 10-20.5 57-46 132.5-74T480 135q79 0 154.5 28T767 237q10 8 10 20.5t-8.87 21.37Q760 287 747 287.5q-13 .5-23-7.5-51-40-112.5-62.5T480 195q-70 0-131.5 22.5T236 280q-10 8-23 7.5t-21.13-8.63Z"/></svg>