<svg xmlns="http://www.w3.org/2000/svg" width="48" height="48" viewBox="0 96 960 960"><path d="M830 626q-20 0-35-15t-15-35q0-20 15-35t35-15q20 0 35 15t15 35q0 20-15 35t-35 15Zm-700 0q-20 0-35-15t-15-35q0-20 15-35t35-15q20 0 35 15t15 35q0 20-15 35t-35 15Zm350 350q-20 0-35-15t-15-35q0-20 15-35t35-15q20 0 35 15t15 35q0 20-15 35t-35 15Zm126-527q-9-9-9-21.5t9-21.5l129-129q9-9 21-8.5t21 9.5q9 9 9 21.5t-9 21.5L648 450q-9 9-21 8.5t-21-9.5Zm-294 0L182 320q-9-9-8.5-21t9.5-21q9-9 21.5-9t21.5 9l129 129q9 9 9 21t-9 21q-9 9-21.5 9t-21.5-9Zm423 423L605 743q-9-9-8.5-21t9.5-21q9-9 21.5-9t21.5 9l129 129q9 9 9 21t-9 21q-9 9-21.5 9t-21.5-9Zm-553 1q-9-9-9-21.5t9-21.5l130-130q9-9 21-8.5t21 9.5q9 9 9 21.5t-9 21.5L224 874q-9 9-21 8.5t-21-9.5Zm298-597q-20 0-35-15t-15-35q0-20 15-35t35-15q20 0 35 15t15 35q0 20-15 35t-35 15Z"/></svg>