<svg xmlns="http://www.w3.org/2000/svg" width="48" height="48" viewBox="0 96 960 960"><path d="M504 896q-68 0-125.5-31.5T287 778q-8-14-2.5-29t21.5-22q12-5 25.5-.5T354 744q24 35 64 55.5t86 20.5q52 0 83-27t31-73q0-23-9.5-48.5T582 626h84q14 23 21 46t7 48q0 78-53 127t-137 49ZM110 566q-13 0-21.5-8.5T80 536q0-13 8.5-21.5T110 506h740q13 0 21.5 8.5T880 536q0 13-8.5 21.5T850 566H110Zm185-120q-2-8-3-16t-1-16q0-73 51-118.5T474 250q55 0 99.5 21.5T646 331q10 13 4.5 29T628 384q-11 5-24.5 1T579 369q-18-20-45-31.5T474 326q-49 0-79 24t-30 66q0 8 1 15t3 15h-74Z"/></svg>