<svg xmlns="http://www.w3.org/2000/svg" width="48" height="48" viewBox="0 96 960 960"><path d="M483 688q46 0 78.5-32.5T594 577q0-46-32.5-78.5T483 466q-46 0-78.5 32.5T372 577q0 46 32.5 78.5T483 688Zm233 56q26-37 39-80.5t13-88.5q0-45-13-88.5T716 406q-8-11-22-12t-25 10q-8 8-8.5 18.5T666 442q20 29 31 63t11 70q0 36-11 70t-31 63q-6 9-5.5 19.5T669 746q11 11 25 10t22-12Zm-418 2q8-8 8-18.5t-6-19.5q-20-29-31-63t-11-70q0-36 11.5-70t31.5-63q6-9 5.5-19.5T298 404q-11-11-25-10t-22 12q-26 37-39.5 80.5T198 575q0 45 13.5 88.5T251 744q8 11 22 12t25-10ZM140 896q-24 0-42-18t-18-42V316q0-24 18-42t42-18h680q25 0 42.5 18t17.5 42v520q0 24-17.5 42T820 896H140Z"/></svg>