<svg xmlns="http://www.w3.org/2000/svg" width="48" height="48" viewBox="0 96 960 960"><path d="M563 536q-13 0-21.5 8.5T533 566v163l-63-63q-9-9-21-9t-21 10q-9 8-9 21t9 22l114 114q9 9 21 9t21-9l115-114q8-8 4-19.5t-4-23.5q-9-9-22-9t-22 9l-62 62V565q0-12-8.5-20.5T563 536Zm-174 80q13 0 21.5-8.5T419 586V423l63 63q9 9 21 9t22-9q8-9 8-22t-8-21L410 328q-9-9-21-9t-21 9L253 443q-9 9-9 21t10 22q8 8 21 8t22-8l62-63v164q0 12 8.5 20.5T389 616Zm91 360q-82 0-155-31.5t-127.5-86Q143 804 111.5 731T80 576q0-82 31.5-155t86-127.5Q252 239 325 207.5T480 176q82 0 155 31.5t127.5 86Q817 348 848.5 421T880 576q0 82-31.5 155t-86 127.5Q708 913 635 944.5T480 976Z"/></svg>