<svg xmlns="http://www.w3.org/2000/svg" width="48" height="48" viewBox="0 96 960 960"><path d="m614 628 114-114q9-9 9-21t-9-21L614 357q-8-8-19.5-4t-23.5 4q-9 9-9 22t9 22l62 62H469q-12 0-20.5 8.5T440 493q0 13 8.5 21.5T470 523h163l-63 63q-9 9-9 21t10 21q8 9 21 9t22-9ZM347 803q9 9 21 9t22-10q8-8 8-21t-8-22l-63-62h164q12 0 20.5-8.5T520 667q0-13-8.5-21.5T490 637H327l63-63q9-9 9-21t-9-21q-9-9-22-9t-21 9L232 646q-9 9-9 21t9 21l115 115Zm133 173q-82 0-155-31.5t-127.5-86Q143 804 111.5 731T80 576q0-82 31.5-155t86-127.5Q252 239 325 207.5T480 176q82 0 155 31.5t127.5 86Q817 348 848.5 421T880 576q0 82-31.5 155t-86 127.5Q708 913 635 944.5T480 976Z"/></svg>