<svg xmlns="http://www.w3.org/2000/svg" width="48" height="48" viewBox="0 -960 960 960"><path d="M540-480q50 0 84-34t34-84q0-50-34-84t-84-34q-50 0-84 34t-34 84q0 50 34 84t84 34ZM260-259q59-75 135-108t145-33q69 0 145 33t135 108v-561H260v561Zm0 59q-24 0-42-18t-18-42v-560q0-24 18-42t42-18h560q24 0 42 18t18 42v560q0 24-18 42t-42 18H260ZM140-80q-24 0-42-18t-18-42v-540q0-12.75 8.675-21.375 8.676-8.625 21.5-8.625 12.825 0 21.325 8.625T140-680v540h540q12.75 0 21.375 8.675 8.625 8.676 8.625 21.5Q710-97 701.375-88.5T680-80H140Zm400-460q-24 0-41-17t-17-41q0-24 17-41t41-17q24 0 41 17t17 41q0 24-17 41t-41 17ZM353-260h374q-32-35-82.37-57.5-50.371-22.5-104.5-22.5-54.13 0-104.63 22.5Q385-295 353-260Zm187-280Z"/></svg>