<svg xmlns="http://www.w3.org/2000/svg" width="48" height="48" viewBox="0 -960 960 960"><path d="M751-105q-63 0-106.5-44T600-256q0-31 13-59.5t36-49.5l61-57q17-17 41-17t41 17l60 57q23 21 35.5 49t13.5 59q0 63-43.5 107.5T751-105ZM559.5-579.5Q592-547 592-500t-32.5 79.5Q527-388 480-388t-79.5-32.5Q368-453 368-500t32.5-79.5Q433-612 480-612t79.5 32.5ZM360-379q50 50 121 50 23 0 43.5-5.5T564-351q-14 29-20 59.5t-1 62.5q2 10-3.5 17.5T524-202q-69 8-134-6t-125-46q-65-35-117.5-87.5T60-459q-5-10-7.5-20T50-500q0-11 2.5-21t7.5-20q63-118 174.5-188.5T480-800q134 0 245.5 70.5T900-541q5 11 8 21t3 19q0 20-10 38.5T878-423l-65-62q-13-12-29-18t-33-6q-17 0-33 6t-29 18l-49 46q5-14 8-29.5t3-31.5q0-71-49.5-120.5T481-670q-71 0-121 49.5T310-500q0 71 50 121Z"/></svg>