<svg xmlns="http://www.w3.org/2000/svg" width="48" height="48" viewBox="0 -960 960 960"><path d="M750-630v-50q0-36 24.5-60.5T835-765q36 0 60.5 24.5T920-680v50H750Zm-710 0v-50q0-36 24.5-60.5T125-765q36 0 60.5 24.5T210-680v50H40Zm0 450v-420h170v480H100q-24.75 0-42.375-17.625T40-180Zm200 60v-520l202-168q8.027-6.632 17.514-10.316Q469-822 480-822t20.486 3.684Q509.973-814.632 518-808l202 168v520H590q-12.75 0-21.375-8.625T560-150v-169.948Q560-355 537.5-377.5T480-400q-35 0-57.5 22.5T400-319.948V-150q0 12.75-8.625 21.375T370-120H240Zm510 0v-480h170v420q0 24.75-17.625 42.375T860-120H750ZM480.059-505Q503-505 519-521.059q16-16.059 16-39T518.941-599q-16.059-16-39-16T441-598.941q-16 16.059-16 39T441.059-521q16.059 16 39 16Z"/></svg>