<svg xmlns="http://www.w3.org/2000/svg" width="48" height="48" viewBox="0 -960 960 960"><path d="M305-245q-24.75 0-42.37-17.63Q245-280.25 245-305v-515q0-24.75 17.63-42.38Q280.25-880 305-880h515q24.75 0 42.38 17.62Q880-844.75 880-820v515q0 24.75-17.62 42.37Q844.75-245 820-245H305Zm0-60h515v-335H550q-12.75 0-21.37-8.63Q520-657.25 520-670v-150H305v515Zm0-515v515-515Zm-195.18 80Q97-740 88.5-748.68q-8.5-8.67-8.5-21.5 0-12.82 8.68-21.32 8.67-8.5 21.5-8.5 12.82 0 21.32 8.68 8.5 8.67 8.5 21.5 0 12.82-8.68 21.32-8.67 8.5-21.5 8.5ZM253.5-88.68q-8.5-8.67-8.5-21.5 0-12.82 8.68-21.32 8.67-8.5 21.5-8.5 12.82 0 21.32 8.68 8.5 8.67 8.5 21.5 0 12.82-8.68 21.32-8.67 8.5-21.5 8.5-12.82 0-21.32-8.68Zm165 0q-8.5-8.67-8.5-21.5 0-12.82 8.68-21.32 8.67-8.5 21.5-8.5 12.82 0 21.32 8.68 8.5 8.67 8.5 21.5 0 12.82-8.68 21.32-8.67 8.5-21.5 8.5-12.82 0-21.32-8.68Zm165 0q-8.5-8.67-8.5-21.5 0-12.82 8.68-21.32 8.67-8.5 21.5-8.5 12.82 0 21.32 8.68 8.5 8.67 8.5 21.5 0 12.82-8.68 21.32-8.67 8.5-21.5 8.5-12.82 0-21.32-8.68ZM109.82-575Q97-575 88.5-583.68q-8.5-8.67-8.5-21.5 0-12.82 8.68-21.32 8.67-8.5 21.5-8.5 12.82 0 21.32 8.68 8.5 8.67 8.5 21.5 0 12.82-8.68 21.32-8.67 8.5-21.5 8.5Zm0 165Q97-410 88.5-418.68q-8.5-8.67-8.5-21.5 0-12.82 8.68-21.32 8.67-8.5 21.5-8.5 12.82 0 21.32 8.68 8.5 8.67 8.5 21.5 0 12.82-8.68 21.32-8.67 8.5-21.5 8.5Zm0 165Q97-245 88.5-253.68q-8.5-8.67-8.5-21.5 0-12.82 8.68-21.32 8.67-8.5 21.5-8.5 12.82 0 21.32 8.68 8.5 8.67 8.5 21.5 0 12.82-8.68 21.32-8.67 8.5-21.5 8.5Zm0 165Q97-80 88.5-88.68q-8.5-8.67-8.5-21.5 0-12.82 8.68-21.32 8.67-8.5 21.5-8.5 12.82 0 21.32 8.68 8.5 8.67 8.5 21.5 0 12.82-8.68 21.32-8.67 8.5-21.5 8.5Zm638.68-8.68q-8.5-8.67-8.5-21.5 0-12.82 8.68-21.32 8.67-8.5 21.5-8.5 12.82 0 21.32 8.68 8.5 8.67 8.5 21.5 0 12.82-8.68 21.32-8.67 8.5-21.5 8.5-12.82 0-21.32-8.68Z"/></svg>