<svg xmlns="http://www.w3.org/2000/svg" width="48" height="48" viewBox="0 0 48 48"><path d="M40.25 40.2H32.7q-.65 0-1.075-.425-.425-.425-.425-1.075 0-.65.425-1.075.425-.425 1.075-.425h7.55l-2.6-2.65q-.4-.45-.425-1.05-.025-.6.425-1.05.45-.45 1.05-.45.6 0 1.05.45l5.2 5.2q.45.45.45 1.05 0 .6-.45 1.05l-5.2 5.2q-.45.45-1.05.45-.6 0-1.05-.45-.45-.45-.425-1.05.025-.6.425-1.05ZM9 42q-1.2 0-2.1-.9Q6 40.2 6 39V9q0-1.2.9-2.1Q7.8 6 9 6h30q1.2 0 2.1.9.9.9.9 2.1v19.9q-.85-.25-1.675-.4-.825-.15-1.675-.15-1.75 0-3.275.55t-2.825 1.55L26.1 24l4.65-4.65q.45-.45.45-1.05 0-.6-.45-1.05-.45-.45-1.05-.45-.6 0-1.05.45L24 21.9l-4.65-4.65q-.45-.45-1.05-.45-.6 0-1.05.45-.45.45-.45 1.05 0 .6.45 1.05L21.9 24l-4.65 4.65q-.45.45-.45 1.05 0 .6.45 1.05.45.45 1.05.45.6 0 1.05-.45L24 26.1l6.45 6.45-1.05 2.375Q28.35 37.3 28.35 39q.05.8.175 1.55.125.75.375 1.45Z"/></svg>