<svg xmlns="http://www.w3.org/2000/svg" width="48" height="48" viewBox="0 0 48 48"><path d="M37.2 35.9v-5.15q0-.45-.3-.75t-.75-.3q-.45 0-.75.3t-.3.75v5.1q0 .3.125.575.125.275.375.525l3.8 3.5q.25.25.65.225.4-.025.65-.275.3-.3.275-.7-.025-.4-.325-.65ZM26 11v7.5q0 .65.425 1.075Q26.85 20 27.5 20H41v-9Zm10.35 34.65q-3.95 0-6.8-2.85-2.85-2.85-2.85-6.8 0-3.95 2.85-6.8 2.85-2.85 6.8-2.85 3.95 0 6.8 2.85Q46 32.05 46 36q0 3.95-2.85 6.8-2.85 2.85-6.8 2.85ZM7 40q-1.2 0-2.1-.9Q4 38.2 4 37V11q0-1.2.9-2.1Q5.8 8 7 8h34q1.2 0 2.1.9.9.9.9 2.1v14.9q-1.65-1.3-3.575-1.925-1.925-.625-4.025-.625-5.3 0-9 3.7t-3.7 9q0 .95.175 2T24.35 40Z"/></svg>