<svg xmlns="http://www.w3.org/2000/svg" width="48" height="48" viewBox="0 -960 960 960"><path d="M760-110q0 13-8.5 21.5T730-80H590q-13 0-21.5-8.5T560-110q0-13 8.5-21.5T590-140h140q13 0 21.5 8.5T760-110Zm-260 0q0 13-8.5 21.5T470-80H350q-13 0-21.5-8.5T320-110q0-13 8.5-21.5T350-140h120q13 0 21.5 8.5T500-110ZM110-760q13 0 21.5 8.5T140-730v140q0 13-8.5 21.5T110-560q-13 0-21.5-8.5T80-590v-140q0-13 8.5-21.5T110-760Zm0 260q13 0 21.5 8.5T140-470v120q0 13-8.5 21.5T110-320q-13 0-21.5-8.5T80-350v-120q0-13 8.5-21.5T110-500Zm30 420q-24 0-42-18t-18-42v-90q0-13 8.5-21.5T110-260q13 0 21.5 8.5T140-230v90h90q13 0 21.5 8.5T260-110q0 13-8.5 21.5T230-80h-90Zm120-120q-24 0-42-18t-18-42v-560q0-24 18-42t42-18h560q24 0 42 18t18 42v560q0 24-18 42t-42 18H260Zm217-235 63-63 63 63q9 9 21 9t21-9q9-9 9-21t-9-21l-63-63 63-63q9-9 9-21t-9-21q-9-9-21-9t-21 9l-63 63-63-63q-9-9-21-9t-21 9q-9 9-9 21t9 21l63 63-63 63q-9 9-9 21t9 21q9 9 21 9t21-9Z"/></svg>