<svg xmlns="http://www.w3.org/2000/svg" width="48" height="48" viewBox="0 -960 960 960"><path d="M300-80h230v-178H240v118q0 24.75 17.63 42.37Q275.25-80 300-80Zm290 0h230q24.75 0 42.38-17.63Q880-115.25 880-140v-118H590v178ZM109.82-244Q97-244 88.5-252.63 80-261.25 80-274v-546q0-24 18-42t42-18h546q12.75 0 21.38 8.68 8.62 8.67 8.62 21.5 0 12.82-8.62 21.32-8.63 8.5-21.38 8.5H140v546q0 12.75-8.68 21.37-8.67 8.63-21.5 8.63ZM240-318h290v-178H240v178Zm350 0h290v-178H590v178ZM240-556h640v-104q0-24.75-17.62-42.38Q844.75-720 820-720H300q-24.75 0-42.37 17.62Q240-684.75 240-660v104Z"/></svg>