<svg xmlns="http://www.w3.org/2000/svg" width="48" height="48" viewBox="0 -960 960 960"><path d="M153.238-160Q142-160 130.5-165T111-178L11-278q-2-2-1.5-3t2.5-3q5-5 11.5-8.5T38-296q10 0 18 2.5T71-283l39 39v-246q0-8.667 6.07-14.333Q122.14-510 130.233-510q8.767 0 14.267 5.667Q150-498.667 150-490v120h30v-180q0-8.667 6.07-14.333Q192.14-570 200.233-570q8.767 0 14.267 5.667Q220-558.667 220-550v180h30v-140q0-8.667 6.07-14.333Q262.14-530 270.233-530q8.767 0 14.267 5.667Q290-518.667 290-510v140h30v-100q0-8.667 6.07-14.333Q332.14-490 340.233-490q8.767 0 14.267 5.667Q360-478.667 360-470v250q0 25-17.25 42.5T300-160H153.238ZM470-210q-12.75 0-21.375-8.625T440-240v-310q0-24.75-17.625-42.375T380-610H110q-12.75 0-21.375-8.625T80-640v-150q0-24 18-42t42-18h520q24 0 42 18t18 42v215l134-134q7-7 16.5-3.458Q880-708.917 880-699v338q0 9.917-9.5 13.458Q861-344 854-351L720-485v215q0 24-18 42t-42 18H470Z"/></svg>