<svg xmlns="http://www.w3.org/2000/svg" width="48" height="48" viewBox="0 -960 960 960"><path d="M440-280v-60h220v-520H140v180H80v-180q0-24 18-42t42-18h520q24 0 42 18t18 42v215l135-135q7-7 16-3.25t9 14.25v337q0 10.5-9 14.25T855-421L720-555v215q0 24-18 42t-42 18H440Zm-286.762 50Q142-230 130.5-235T111-248l-82-83q-7-7-7-16t6.696-15.696Q36-370 45.75-370q9.75 0 16.25 7l48 49v-246q0-8.667 6.07-14.333Q122.14-580 130.233-580q8.767 0 14.267 5.667Q150-568.667 150-560v120h30v-180q0-8.667 6.07-14.333Q192.14-640 200.233-640q8.767 0 14.267 5.667Q220-628.667 220-620v180h30v-140q0-8.667 6.07-14.333Q262.14-600 270.233-600q8.767 0 14.267 5.667Q290-588.667 290-580v140h30v-100q0-8.667 6.07-14.333Q332.14-560 340.233-560q8.767 0 14.267 5.667Q360-548.667 360-540v250q0 25-17.25 42.5T300-230H153.238ZM660-860v520-520Z"/></svg>