<svg xmlns="http://www.w3.org/2000/svg" width="48" height="48" viewBox="0 96 960 960"><path d="m320 376 49-164v-46q0-12.75 8.675-21.375 8.676-8.625 21.5-8.625 12.825 0 21.325 8.625T429 166v50h101v-50q0-12.75 8.675-21.375 8.676-8.625 21.5-8.625 12.825 0 21.325 8.625T590 166v41l50 169H320ZM140 976q-24.75 0-42.375-17.625T80 916V566q0-12.75 8.675-21.375 8.676-8.625 21.5-8.625 12.825 0 21.325 8.625T140 566v50h107l6-20h454l6 20h107v-50q0-12.75 8.675-21.375 8.676-8.625 21.5-8.625 12.825 0 21.325 8.625T880 566v350q0 24.75-17.625 42.375T820 976H530V766H430v210H140Zm131-440 31-100h356l31 100H271Z"/></svg>