<svg xmlns="http://www.w3.org/2000/svg" width="48" height="48" viewBox="0 96 960 960"><path d="M180 876h600V501L555 276H180v600Zm0 60q-24.75 0-42.375-17.625T120 876V276q0-24.75 17.625-42.375T180 216h375q12.444 0 23.722 5T598 234l224 224q8 8 13 19.278 5 11.278 5 23.722v375q0 24.75-17.625 42.375T780 936H180Zm129-171h342q12.75 0 21.375-8.675 8.625-8.676 8.625-21.5 0-12.825-8.625-21.325T651 705H309q-12.75 0-21.375 8.675-8.625 8.676-8.625 21.5 0 12.825 8.625 21.325T309 765Zm0-159h342q12.75 0 21.375-8.675 8.625-8.676 8.625-21.5 0-12.825-8.625-21.325T651 546H309q-12.75 0-21.375 8.675-8.625 8.676-8.625 21.5 0 12.825 8.625 21.325T309 606Zm0-159h216q12.75 0 21.375-8.675 8.625-8.676 8.625-21.5 0-12.825-8.625-21.325T525 387H309q-12.75 0-21.375 8.675-8.625 8.676-8.625 21.5 0 12.825 8.625 21.325T309 447ZM180 876V276v600Z"/></svg>