<svg xmlns="http://www.w3.org/2000/svg" width="48" height="48" viewBox="0 -960 960 960"><path d="M438-780v-60h83v60h-83Zm0 660v-60h83v60h-83ZM268-780v-60h83v60h-83Zm0 660v-60h83v60h-83ZM120-609v-83h60v83h-60Zm0 171v-83h60v83h-60Zm0 170v-83h60v83h-60Zm519 148q-12.75 0-21.375-8.675-8.625-8.676-8.625-21.5 0-12.825 8.625-21.325T639-180h55v-600h-55q-12.75 0-21.375-8.675-8.625-8.676-8.625-21.5 0-12.825 8.625-21.325T639-840h171q12.75 0 21.375 8.675 8.625 8.676 8.625 21.5 0 12.825-8.625 21.325T810-780h-56v600h56q12.75 0 21.375 8.675 8.625 8.676 8.625 21.5 0 12.825-8.625 21.325T810-120H639Zm-459 0q-24 0-42-18t-18-42h60v60Zm-60-660q0-24 18-42t42-18v60h-60Z"/></svg>