<svg xmlns="http://www.w3.org/2000/svg" width="48" height="48" viewBox="0 96 960 960"><path d="M395 976q-16-47-24-92.5t-10-86q-2-40.5-.5-74.5t4.5-58h-.5.5q-22-5-51.5-13T251 630.5Q218 617 183.5 598T116 553l38-52q23 21 49 38t54.5 30q28.5 13 58 22.5T374 606q24 5 38.5 24t11.5 43q-5 36-5.5 74t3.5 77q4 39 13 77.5t23 74.5h-63Zm365 0h-60V553q0-54-28.5-98T595 388L322 267l38-52 260 119q64 29 102 88t38 131v423ZM545 855q8 0 14.5-4t10.5-10q5 6 11 10t14 4q13 0 21.5-9t8.5-21q0-13-8.5-21.5T595 795h-5V596h5q13 0 21.5-9t8.5-21q0-13-8.5-21.5T595 536q-8 0-14 3.5t-11 9.5q-4-6-10.5-9.5T545 536q-12 0-21 8.5t-9 21.5q0 12 9 21t21 9h5v199h-5q-12 0-21 8.5t-9 21.5q0 12 9 21t21 9Zm-87 121q-14-36-23-74.5T422 824q-4-39-3.5-77t5.5-74q3-24-11.5-43T374 606q-29-5-58.5-14.5t-58-22.5Q229 556 203 539t-49-38q23 21 49 38t54.5 30q28.5 13 58 22.5T374 606q24 5 38.5 24t11.5 43q-5 36-5.5 74t3.5 77q4 39 13 77.5t23 74.5Z"/></svg>