<svg xmlns="http://www.w3.org/2000/svg" width="48" height="48" viewBox="0 96 960 960"><path d="M240 876h260v-70H240v70Zm20-390h200q8 0 14-6t6-14q0-8-6-14t-14-6H260q-8 0-14 6t-6 14q0 8 6 14t14 6Zm0-100h200q8 0 14-6t6-14q0-8-6-14t-14-6H260q-8 0-14 6t-6 14q0 8 6 14t14 6Zm380 150v-60h100V356H640v-60h100q24.75 0 42.375 17.625T800 356v30h90q12.75 0 21.375 8.625T920 416q0 12-8.625 21T890 446h-90v30q0 24.75-17.625 42.375T740 536H640ZM480 746h-60V556h160V276H240q-42 0-71 29t-29 71v80q0 42 29 71t71 29h80v190h-60V616h-20q-66 0-113-47T80 456v-80q0-66 47-113t113-47h340q24.75 0 42.375 17.625T640 276v280q0 24.75-17.625 42.375T580 616H480v130ZM225 936q-18.75 0-31.875-13.125T180 891V791q0-18.75 13.125-31.875T225 746h290q18.75 0 31.875 13.125T560 791v100q0 18.75-13.125 31.875T515 936H225Zm135-520Zm140 460H240h260Z"/></svg>