<svg xmlns="http://www.w3.org/2000/svg" width="48" height="48" viewBox="0 -960 960 960"><path d="M448.5-471.5Q460-483 460-500t-11.5-28.5Q437-540 420-540t-28.5 11.5Q380-517 380-500t11.5 28.5Q403-460 420-460t28.5-11.5Zm120 0Q580-483 580-500t-11.5-28.5Q557-540 540-540t-28.5 11.5Q500-517 500-500t11.5 28.5Q523-460 540-460t28.5-11.5Zm-240 0Q340-483 340-500t-11.5-28.5Q317-540 300-540t-28.5 11.5Q260-517 260-500t11.5 28.5Q283-460 300-460t28.5-11.5Zm360 0Q700-483 700-500t-11.5-28.5Q677-540 660-540t-28.5 11.5Q620-517 620-500t11.5 28.5Q643-460 660-460t28.5-11.5ZM220-200l-24 72q-2 4-4.61 6-2.61 2-6.26 2H182q-4.8 0-8.4-3.6-3.6-3.6-3.6-8.4v-68h-30q-24.75 0-42.37-17.63Q80-235.25 80-260v-480q0-24.75 17.63-42.38Q115.25-800 140-800h680q24.75 0 42.38 17.62Q880-764.75 880-740v480q0 24.75-17.62 42.37Q844.75-200 820-200h-30v69q0 4.63-3.17 7.82-3.18 3.18-7.79 3.18H775q-4 0-6.5-2.15-2.5-2.16-3.5-5.85l-24-72H220Z"/></svg>