<svg xmlns="http://www.w3.org/2000/svg" width="48" height="48" viewBox="0 96 960 960"><path d="M773 1016q-77.605 0-132.302-54Q586 908 586 829.986q0-78.014 54.698-133Q695.395 642 773 642q77.605 0 132.302 54.986Q960 751.972 960 829.986 960 908 905.302 962q-54.697 54-132.302 54Zm-93-170h186q8 0 14-6t6-14q0-8-6-14t-14-6H680q-8 0-14 6t-6 14q0 8 6 14t14 6Zm-540 50q-24 0-42-18.5T80 836V316q0-23 18-41.5t42-18.5h680q23 0 41.5 18.5T880 316v291q-22.331-10.714-52.256-17.857Q797.82 582 772.809 582q-51.809 0-96.792 19.617-44.983 19.616-78.5 53.5Q564 689 545 735.5 526 782 526 836q0 14 2.5 30.5T535 896H140Zm340-309q5 0 8.5-1t7.5-3l312-200q6-3 9-8.25t3-12.75q0-15-12.5-22.5t-26.5.5L480 529 179 340q-14-8-26.5-.23T140 361.6q0 7.4 3.5 12.9t8.5 8.5l312 200q4 2 7.5 3t8.5 1Z"/></svg>