<svg xmlns="http://www.w3.org/2000/svg" width="48" height="48" viewBox="0 96 960 960"><path d="M140 896q-24 0-42-18.5T80 836V316q0-23 18-41.5t42-18.5h680q23 0 41.5 18.5T880 316v291q-11-6-28.5-11.5T820 587V376L496 583q-4 2-7.5 3t-8.5 1q-5 0-8.5-1t-7.5-3L140 376v460h386q0 14 2.5 30.5T535 896H140Zm340-367 340-213H140l340 213Zm293 487q-77.605 0-132.302-54Q586 908 586 829.986q0-78.014 54.698-133Q695.395 642 773 642q77.605 0 132.302 54.986Q960 751.972 960 829.986 960 908 905.302 962q-54.697 54-132.302 54Zm-93-170h186q8 0 14-6t6-14q0-8-6-14t-14-6H680q-8 0-14 6t-6 14q0 8 6 14t14 6Zm-540-10V582v5-211 7-43.5.5-24 24.094-.376V383v-7 460Z"/></svg>