<svg xmlns="http://www.w3.org/2000/svg" width="48" height="48" viewBox="0 96 960 960"><path d="M480 976q-32 0-52-20t-20-52q0-22 11-40t31-29V724H302q-24 0-42-18t-18-42V555q-20-9-31-26.5T200 488q0-23 11-40.5t29-25.5L82 264q-8-8-8-20.5t9-21.5q9-9 21.5-9t21.5 9l709 709q8 8 8.5 20.5T835 973q-9 9-21.5 9t-21.5-9L542 724h-32v111q20 11 31 30t11 39q0 32-20 52t-52 20Zm218-268-40-40V560h-27q-6 0-10.5-4.5T616 545V431q0-6 4.5-10.5T631 416h114q6 0 10.5 4.5T760 431v114q0 6-4.5 10.5T745 560h-27v104q0 13-5.5 24.5T698 708Zm-396-44h148v-32L338 520q-5 11-14 20.5T302 555v109Zm208-144-60-60V324h-50q-10 0-14-8t2-16l80-109q5-6 12-6t12 6l80 109q6 8 2 16t-14 8h-50v196Z"/></svg>