<svg xmlns="http://www.w3.org/2000/svg" width="48" height="48" viewBox="0 -960 960 960"><path d="M73-113q-33-33-33-81t33-81q33-33 81-33t81 33q33 33 33 81t-33 81q-33 33-81 33t-81-33Zm119.5-42.54q15.5-15.53 15.5-38.5 0-22.96-15.54-38.46-15.53-15.5-38.5-15.5-22.96 0-38.46 15.54-15.5 15.53-15.5 38.5 0 22.96 15.54 38.46 15.53 15.5 38.5 15.5 22.96 0 38.46-15.54ZM330-80q-14 0-19.5-11.5t.5-24.5q9-18 13-38t4-40q0-72.21-50.9-123.1Q226.21-368 154-368q-8.97 0-18.5.5T117-365q-14 2-24.5-5T82-390v-141q0-24.75 17.63-42.38Q117.25-591 142-591h65v-153q0-73 51.27-124.5T383.33-920q53.67 0 99.17 29t65.5 80l278 671h64q12.75 0 21.38 8.68 8.62 8.67 8.62 21.5 0 12.82-8.62 21.32Q902.75-80 890-80H684q-12.75 0-21.37-8.68-8.63-8.67-8.63-21.5 0-12.82 8.63-21.32 8.62-8.5 21.37-8.5h80L489-786q-14-32-42.68-53T383-860q-47.96 0-81.98 34.02T267-744v153h76.16Q406-591 450-547t44 107v300q0 24.75-17.62 42.37Q458.75-80 434-80H330Z"/></svg>