<svg xmlns="http://www.w3.org/2000/svg" width="48" height="48" viewBox="0 -960 960 960"><path d="M352-240h175q14 0 24.5-10.5T562-275v-55l58 33q7.586 5 14.793.5Q642-301 642-310v-100q0-8.609-7-13.304-7-4.696-15 .304l-58 33v-55q0-14-10.5-24.5T527-480H352q-14 0-24.5 10.5T317-445v170q0 14 10.5 24.5T352-240ZM220-80q-24 0-42-18t-18-42v-680q0-24 18-42t42-18h336q12.444 0 23.722 5T599-862l183 183q8 8 13 19.278 5 11.278 5 23.722v496q0 24-18 42t-42 18H220Zm331-584v-156H220v680h520v-494H581q-12.75 0-21.375-8.625T551-664ZM220-820v186-186 680-680Z"/></svg>