<svg xmlns="http://www.w3.org/2000/svg" width="48" height="48"><path d="m22.55 39.75-11.35-6.7q-.55-.4-.9-.975T9.95 30.8V17.55q0-.7.3-1.275t.95-.975l11.55-6.85q.65-.4 1.25-.4t1.25.4L36.8 15.3q.6.4.925.975.325.575.325 1.275V30.8q0 .7-.35 1.275t-.9.975l-11.55 6.7q-.65.4-1.35.4-.7 0-1.35-.4zm-.05-3.55V25L13 19.55V30.5zm3 0 9.55-5.7V19.55L25.5 25zm-22-24.75q-.65 0-1.075-.425Q2 10.6 2 9.95V7.6q0-2.3 1.65-3.95Q5.3 2 7.6 2h2.35q.65 0 1.075.425.425.425.425 1.075 0 .65-.425 1.075Q10.6 5 9.95 5H7.6q-1.1 0-1.85.75T5 7.6v2.35q0 .65-.425 1.075-.425.425-1.075.425zM7.6 46q-2.3 0-3.95-1.65Q2 42.7 2 40.4v-2.35q0-.65.425-1.075.425-.425 1.075-.425.65 0 1.075.425Q5 37.4 5 38.05v2.35q0 1.1.75 1.85T7.6 43h2.35q.65 0 1.075.425.425.425.425 1.075 0 .65-.425 1.075Q10.6 46 9.95 46zm30.45-.2q-.65 0-1.075-.425-.425-.425-.425-1.075 0-.65.425-1.075.425-.425 1.075-.425h2.35q1.1 0 1.85-.75T43 40.2v-2.35q0-.65.425-1.075.425-.425 1.075-.425.65 0 1.075.425Q46 37.2 46 37.85v2.35q0 2.3-1.65 3.95-1.65 1.65-3.95 1.65zm6.45-34.35q-.65 0-1.075-.425Q43 10.6 43 9.95V7.6q0-1.1-.75-1.85T40.4 5h-2.35q-.65 0-1.075-.425-.425-.425-.425-1.075 0-.65.425-1.075Q37.4 2 38.05 2h2.35q2.3 0 3.95 1.65Q46 5.3 46 7.6v2.35q0 .65-.425 1.075-.425.425-1.075.425zM24 22.3l9.5-5.5-9.5-5.45-9.5 5.45zm.05 2.7zM24 22.3zm1.5 2.7zm-3 0z"/></svg>