<svg xmlns="http://www.w3.org/2000/svg" width="48" height="48" viewBox="0 96 960 960"><path d="M880 516q0 12.75-8.625 21.375T850 546H110q-12.75 0-21.375-8.625T80 516V286q0-12.75 8.625-21.375T110 256h740q12.75 0 21.375 8.625T880 286v230ZM413 896q-12.75 0-21.375-8.625T383 866V636q0-12.75 8.625-21.375T413 606h437q12.75 0 21.375 8.625T880 636v230q0 12.75-8.625 21.375T850 896H413Zm-303 0q-12.75 0-21.375-8.625T80 866V636q0-12.75 8.625-21.375T110 606h183q12.75 0 21.375 8.625T323 636v230q0 12.75-8.625 21.375T293 896H110Z"/></svg>