<svg xmlns="http://www.w3.org/2000/svg" width="48" height="48" viewBox="0 -960 960 960"><path d="M40-154v-274q0-24.75 17.625-42.375T100-488h34q24.75 0 42.375 17.625T194-428v274q0 24.75-17.625 42.375T134-94h-34q-24.75 0-42.375-17.625T40-154Zm509 87-294-84v-337h83q5.25 0 10.5 1.2T359-484l245 92q30 11 46 33.5t16 45.5q0 8.043-5 13.021Q656-295 648-295h-73q-26 0-46-3t-44-11l-59-19q-6-2-11.5.5t-7.5 8.052q-2 6.345.5 11.896Q410-302 416-300l61 21q16 5 40.5 9.5T587-265h195q57 0 77.5 26.5T880-158L583-67q-8 2-17 2t-17-2Zm96.889-403q-6.689 0-12.9-2T622-479q-87-78-148.5-148.757T412-760q0-51.758 35.22-86.879Q482.439-882 534.341-882 564-882 593.5-865.5T646-821q23-28 52.5-44.5t59.159-16.5q51.902 0 87.122 35.121Q880-811.758 880-760q0 61.486-61.5 132.243T670.055-479q-5.055 5-11.266 7t-12.9 2Z"/></svg>