<svg xmlns="http://www.w3.org/2000/svg" width="48" height="48" viewBox="0 96 960 960"><path d="M149.825 936Q137 936 128.5 927.375T120 906V726q0-12.75 8.675-21.375 8.676-8.625 21.5-8.625 12.825 0 21.325 8.625T180 726v180q0 12.75-8.675 21.375-8.676 8.625-21.5 8.625ZM307 556h426l-84-280H391l-84 280Zm0 0h426-426Zm-57 290q-12.75 0-21.375-8.675-8.625-8.676-8.625-21.5 0-12.825 8.625-21.325T250 786h190q21.25 0 35.625-14.375T490 736V616H266q-15 0-24-12.5t-4-26.5l102-340q3-10 10.353-15.5T368 216h304q10.294 0 17.647 5.5Q697 227 700 237l102 340q5 14-4 26.5T774 616H550v120q0 45.833-32.083 77.917Q485.833 846 440 846H250Z"/></svg>