<svg xmlns="http://www.w3.org/2000/svg" width="48" height="48" viewBox="0 -960 960 960"><path d="M505.5-245.5Q514-254 514-267t-8.5-21.5Q497-297 484-297t-21.5 8.5Q454-280 454-267t8.5 21.5Q471-237 484-237t21.5-8.5ZM454-378q0 13 8.5 21.5T484-348q13 0 21.5-8.5T514-378v-68l-60-60v128Zm-73-287q-8-8-8.5-17.5T377-701l77-134q5-8 11.5-11.5T480-850q8 0 14.5 3.5T506-835l349 604q7 11-3.5 19t-19.5-1L381-665ZM816-59l-62-61H92q-17 0-26-15t0-30l268-461 272 272h-86L58-816q-9-9-8.5-21.5T59-859q9-9 21.5-9t21.5 9l757 758q9 9 9 21t-9 21q-9 9-21.5 9T816-59Z"/></svg>