<svg xmlns="http://www.w3.org/2000/svg" width="48" height="48" viewBox="0 0 48 48"><path d="M40.5 24q-.65 0-1.075-.425Q39 23.15 39 22.5v-15q0-.65.425-1.075Q39.85 6 40.5 6q.65 0 1.075.425Q42 6.85 42 7.5v15q0 .65-.425 1.075Q41.15 24 40.5 24ZM16.6 44q-1 0-1.825-.6T13.7 41.8l-1.75-6.35Q9.2 33.7 7.6 30.7 6 27.7 6 24t1.6-6.725q1.6-3.025 4.35-4.725L13.7 6.2q.25-1 1.075-1.6Q15.6 4 16.6 4h6.8q1 0 1.825.6T26.3 6.2l1.75 6.35q2.75 1.7 4.35 4.725Q34 20.3 34 24q0 3.7-1.6 6.7t-4.35 4.75L26.3 41.8q-.25 1-1.075 1.6-.825.6-1.825.6Zm3.4-9q4.6 0 7.8-3.2T31 24q0-4.6-3.2-7.8T20 13q-4.6 0-7.8 3.2T9 24q0 4.6 3.2 7.8T20 35Zm-4.35-24.2q1.15-.35 2.225-.525Q18.95 10.1 20 10.1t2.125.175q1.075.175 2.225.525l-.9-3.8h-6.9Zm.9 30.2h6.9l.9-3.8q-1.15.3-2.225.475-1.075.175-2.125.175t-2.125-.175Q16.8 37.5 15.65 37.2Zm-.9-34h8.7-8.7Zm.9 34h-.9 8.7-.9Z"/></svg>