<svg xmlns="http://www.w3.org/2000/svg" width="48" height="48" viewBox="0 -960 960 960"><path d="M789-77 635-230l-29 106q-6 20-22 32t-36 12H411q-20 0-36-12t-22-32l-25-90q-4-16-14-30.5T288-273q-42-36-65-90t-23-117q0-36 9.5-75t29.5-71L77-788q-8-8-8-20.5t8-20.5q8-8 20.5-8t20.5 8l712 712q8 8 8 20t-8 20q-8 8-20.5 8T789-77ZM480-260q28 0 53-6t48-18L284-581q-12 24-18 49t-6 52q0 92 64 156t156 64Zm151-485q4 16 14 30.5t26 28.5q42 36 65.5 89.5T760-480q0 35-7 66.5T732-354q-5 11-17.5 14.5T691-342q-11-6-15-18t2-23q11-22 16.5-46.5T700-480q0-46-17-86t-47-70q-51-51-120.5-61.5T383-678q-8 4-17.5 3t-16.5-8l-17-17q-6-6-8-13.5t0-15.5l29-106q6-20 22-32.5t36-12.5h137q20 0 36 12.5t22 32.5l25 90Z"/></svg>