<svg xmlns="http://www.w3.org/2000/svg" width="48" height="48" viewBox="0 96 960 960"><path d="m712 736-44-44q14-23 23-52t9-64q0-92-64-156t-156-64q-35 0-64 9t-52 23l-44-44 34-124q5-20 21.5-32t36.5-12h136q20 0 36.5 12t21.5 32l35 127q57 35 88 96t31 133q0 42-12.5 85T712 736ZM412 976q-20 0-36.5-12T354 932l-35-127q-52-31-85.5-91.5T200 576q0-36 9.5-75t29.5-71L77 268q-8-8-8-20.5t8-20.5q8-8 20.5-8t20.5 8l712 712q8 8 8 20t-8 20q-8 8-20.5 8t-20.5-8L635 826l-29 106q-5 20-21.5 32T548 976H412Zm68-180q28 0 53-6t48-18L284 475q-12 24-18 49t-6 52q0 92 64 156t156 64Z"/></svg>