<svg xmlns="http://www.w3.org/2000/svg" width="48" height="48" viewBox="0 96 960 960"><path d="M344 933q-45 0-70.5-27T210 879q-15 0-29 6t-55 31q-14 8-28 .5T84 892q0-8 4-13.5t10-9.5q54-33 72.5-41.5T210 819q45 0 70 27t64 27q39 0 65-27t71-27q45 0 70.5 27t64.5 27q39 0 64.5-27t70.5-27q21 0 40 8.5t73 41.5q6 4 9.5 9.5T876 892q0 17-14 24.5t-28-.5q-41-25-55-31t-29-6q-38 0-64 27t-71 27q-45 0-71-27t-64-27q-38 0-64.5 27T344 933ZM240 246q0 13-8.5 21.5T210 276h-60q-13 0-21.5-8.5T120 246q0-13 8.5-21.5T150 216h60q13 0 21.5 8.5T240 246Zm57 150q9 9 9 21.5t-9 21.5l-42 42q-9 9-21 9t-21-9q-9-9-9-21.5t9-21.5l42-42q9-9 21-9t21 9Zm183 0q-74 0-125-52.5T300 216h60q3 50 37 85t83 35q49 0 83-35t37-85h60q-4 75-55 127.5T480 396Zm0-180Zm0 240q13 0 21.5 8.5T510 486v60q0 13-8.5 21.5T480 576q-13 0-21.5-8.5T450 546v-60q0-13 8.5-21.5T480 456Zm182-61q9-9 21-8.5t21 8.5l43 42q9 9 9.5 21t-8.5 21q-9 9-21.5 9t-21.5-9l-43-42q-9-9-9-21t9-21Zm178-149q0 13-8.5 21.5T810 276h-60q-13 0-21.5-8.5T720 246q0-13 8.5-21.5T750 216h60q13 0 21.5 8.5T840 246ZM344 773q-45 0-70.5-27T210 719q-15 0-29 6t-55 31q-14 8-28 .5T84 732q0-8 4-13.5t10-9.5q54-33 72.5-41.5T210 659q45 0 70 27t64 27q39 0 65-27t71-27q45 0 70.5 27t64.5 27q39 0 64.5-27t70.5-27q21 0 40 8.5t73 41.5q6 4 9.5 9.5T876 732q0 17-14 24.5t-28-.5q-41-25-55-31t-29-6q-38 0-64 27t-71 27q-45 0-71-27t-64-27q-38 0-64.5 27T344 773Z"/></svg>