<svg xmlns="http://www.w3.org/2000/svg" width="48" height="48" viewBox="0 -960 960 960"><path d="M210-297q-31 0-50.5 17T110-255q-11 3-20.5-5T80-281q0-13 8.5-22t20.5-14q23-9 44.5-24.5T210-357q45 0 70 27t64 27q39 0 65-27t71-27q45 0 70.5 27t64.5 27q39 0 64.5-27t70.5-27q35 0 56.5 15.5T851-317q12 5 20.5 14t8.5 22q0 13-9.5 21t-20.5 5q-30-8-49.5-25T750-297q-38 0-64 27t-71 27q-45 0-71-27t-64-27q-38 0-64.5 27T344-243q-45 0-70.5-27T210-297Zm0-160q-31 0-50.5 17T110-415q-11 3-20.5-5T80-441q0-13 8.5-22t20.5-14q23-9 44.5-24.5T210-517q45 0 70 27t64 27q39 0 65-27t71-27q45 0 70.5 27t64.5 27q39 0 64.5-27t70.5-27q35 0 56.5 15.5T851-477q12 5 20.5 14t8.5 22q0 13-9.5 21t-20.5 5q-30-8-49.5-25T750-457q-38 0-64 27t-71 27q-45 0-71-27t-64-27q-38 0-64.5 27T344-403q-45 0-70.5-27T210-457Zm0-160q-31 0-50.5 17T110-575q-11 3-20.5-5T80-601q0-13 8.5-22t20.5-14q23-9 44.5-24.5T210-677q45 0 70 27t64 27q39 0 65-27t71-27q45 0 70.5 27t64.5 27q39 0 64.5-27t70.5-27q35 0 56.5 15.5T851-637q12 5 20.5 14t8.5 22q0 13-9.5 21t-20.5 5q-30-8-49.5-25T750-617q-38 0-64 27t-71 27q-45 0-71-27t-64-27q-38 0-64.5 27T344-563q-45 0-70.5-27T210-617Z"/></svg>