<svg xmlns="http://www.w3.org/2000/svg" width="48" height="48" viewBox="0 -960 960 960"><path d="M592-160H488v56q0 10.4-6.8 17.2Q474.4-80 464-80q-10.4 0-17.2-6.8-6.8-6.8-6.8-17.2v-194q0-9 7-15.5t16-6.5h129q20 0 34 14t14 34v64q0 20-14 34t-34 14Zm134-23v79q0 10.4-6.8 17.2Q712.4-80 702-80q-10.4 0-17.2-6.8-6.8-6.8-6.8-17.2v-192q0-10.4 6.8-17.2 6.8-6.8 17.2-6.8 10.4 0 17.2 6.8 6.8 6.8 6.8 17.2v65h108v-65q0-10.4 6.8-17.2 6.8-6.8 17.2-6.8 10.4 0 17.2 6.8 6.8 6.8 6.8 17.2v192q0 10.4-6.8 17.2Q868.4-80 858-80q-10.4 0-17.2-6.8-6.8-6.8-6.8-17.2v-79H726Zm-238-25h104v-64H488v64Zm-88-662q5.455 0 10.227 2 4.773 2 9.773 6 153 138 225.5 246.5T720-413q0 14-9.5 23.5T687-380H440q-24.75 0-42.375 17.625T380-320v204q0 14-9.5 22.5T346-85q-126 0-196-94.5T80-408q0-94 75.5-208T380-862q5-4 9.773-6 4.772-2 10.227-2Z"/></svg>