<svg xmlns="http://www.w3.org/2000/svg" width="48" height="48" viewBox="0 -960 960 960"><path d="M450-110v-58q0-13 8.5-21.5T480-198q13 0 21.5 8.5T510-168v58q0 13-8.5 21.5T480-80q-13 0-21.5-8.5T450-110ZM110-510h58q13 0 21.5 8.5T198-480q0 13-8.5 21.5T168-450h-58q-13 0-21.5-8.5T80-480q0-13 8.5-21.5T110-510Zm682 0h58q13 0 21.5 8.5T880-480q0 13-8.5 21.5T850-450h-58q-13 0-21.5-8.5T762-480q0-13 8.5-21.5T792-510Zm-74 310-40-39q-9-9-8.5-21t9.5-21q9-9 21.5-9t21.5 9l39 39q9 9 9 21t-9 21q-9 9-21.5 9t-21.5-9Zm-518-43 39-39q9-9 21-8.5t21 9.5q9 9 9 21.5t-9 21.5l-39 39q-9 9-21 8.5t-21-9.5q-9-9-9-21.5t9-21.5Zm151.5-108.5Q298-405 298-480q0-49 21-88t59-64v-148q0-25 17.5-42.5T438-840h84q25 0 42.5 17.5T582-780v148q38 25 59 64t21 88q0 75-53.5 128.5T480-298q-75 0-128.5-53.5ZM438-653q11-3 21-4.5t21-1.5q11 0 21 1.5t21 4.5v-127h-84v127Zm42 295q51 0 86.5-35.5T602-480q0-51-35.5-86.5T480-602q-51 0-86.5 35.5T358-480q0 51 35.5 86.5T480-358Zm0-122Z"/></svg>