<svg xmlns="http://www.w3.org/2000/svg" width="48" height="48" viewBox="0 0 48 48"><path d="M39.6 14.5q.45.45.45 1.05 0 .6-.45 1.05l-2.15 2.15q-.45.45-1.075.45t-1.075-.45q-.45-.45-.425-1.075.025-.625.475-1.075l2.15-2.1q.45-.4 1.05-.425.6-.025 1.05.425Zm-34.1 25q-.65 0-1.075-.425Q4 38.65 4 38q0-.65.425-1.075Q4.85 36.5 5.5 36.5h37q.65 0 1.075.425Q44 37.35 44 38q0 .65-.425 1.075-.425.425-1.075.425ZM24 8q.65 0 1.075.425.425.425.425 1.075v3q0 .65-.425 1.075Q24.65 14 24 14q-.65 0-1.075-.425-.425-.425-.425-1.075v-3q0-.65.425-1.075Q23.35 8 24 8ZM8.45 14.4q.45-.45 1.05-.45.6 0 1.05.45l2.2 2.2q.45.45.45 1.075t-.45 1.075q-.45.45-1.075.425-.625-.025-1.075-.475l-2.15-2.2q-.4-.45-.425-1.05-.025-.6.425-1.05ZM13.4 29h21.2q-.95-3.55-3.85-5.775Q27.85 21 24 21t-6.75 2.225Q14.35 25.45 13.4 29ZM10 32q0-5.85 4.075-9.925Q18.15 18 24 18q5.85 0 9.925 4.075Q38 26.15 38 32Zm14-3Z"/></svg>