<svg xmlns="http://www.w3.org/2000/svg" width="48" height="48" viewBox="0 0 48 48"><path d="M35 39h2.5v-2.5H35Zm0-5.5h2.5V31H35Zm5.5 5.5H43v-2.5h-2.5Zm-7 3q-.65 0-1.075-.425Q32 41.15 32 40.5v-11q0-.65.425-1.075Q32.85 28 33.5 28H39q.65 0 1.075.425.425.425.425 1.075v4h4q.65 0 1.075.425Q46 34.35 46 35v5.5q0 .65-.425 1.075Q45.15 42 44.5 42Zm-10.55-1.05-21.8-21.8Q.7 18.7.7 18.025t.5-1.075q4.9-4.25 10.575-6.6Q17.45 8 24 8t12.225 2.35Q41.9 12.7 46.8 16.95q.5.4.5 1.075 0 .675-.45 1.125l-5.2 5.2q-.75-.25-1.525-.375-.775-.125-1.625-.125h-.45l5.55-5.55q-4.35-3.4-9.225-5.35Q29.5 11 24 11t-10.375 1.95Q8.75 14.9 4.4 18.3L24 37.9l3.85-3.85v.45q0 .85.125 1.625t.375 1.525l-3.3 3.3q-.45.45-1.05.45-.6 0-1.05-.45ZM24 24.45Z"/></svg>