<svg xmlns="http://www.w3.org/2000/svg" width="48" height="48" viewBox="0 -960 960 960"><path d="M700-180h50v-50h-50v50Zm0-110h50v-50h-50v50Zm110 110h50v-50h-50v50Zm-140 60q-12.75 0-21.375-8.625T640-150v-220q0-12.75 8.625-21.375T670-400h110q12.75 0 21.375 8.625T810-370v80h80q12.75 0 21.375 8.625T920-260v110q0 12.75-8.625 21.375T890-120H670Zm-232-42L47-553q-9-9.081-13.5-20.432-4.5-11.352-4.5-22.703 0-12.865 5.5-24.76Q40-632.791 51-642q91-76 200.5-117T480-800q119 0 228.5 41T909-642q11 9.12 16.5 20.9t5.5 24.7q0 11.4-4.5 22.829Q922-562.143 913-553l-80 80q-15-5-30.549-7.292Q786.901-482.583 770-483h-9l111-111q-87-68-184.5-107T480-740q-110 0-207.5 39T88-594l392 392 77-77v9q.417 16.901 2.708 32.451Q562-222 567-207l-45 45q-9 9-20 13t-22 4q-11 0-22-4t-20-13Zm42-309Z"/></svg>