<svg xmlns="http://www.w3.org/2000/svg" width="48" height="48" viewBox="0 96 960 960"><path d="M459 915 23 479q-9-9.191-8.5-22.596Q15 443 25 435q100-85 211-132t244.048-47Q611 256 725 303t211 132q10 8.37 10 21.685T937 479l-93 93q-18.589-7.857-38.795-11.429Q785 557 765 557q-91.25 0-155.125 63.875T546 776q0 20 3 40.5t11 39.5l-59 59q-9 9-21 9t-21-9Zm223 21q-17 0-28.5-11.385T642 896.4V777.6q0-16.83 11.5-28.215Q665 738 682 738h1v-39q0-33.825 24.124-57.912 24.124-24.088 58-24.088Q799 617 823 641.088q24 24.087 24 57.912v39h1q17 0 28.5 11.385T888 777.6v118.8q0 16.83-11.5 28.215Q865 936 848 936H682Zm41-198h84v-39q0-19-11.5-30.5T765 657q-19 0-30.5 11.5T723 699v39Z"/></svg>