<svg xmlns="http://www.w3.org/2000/svg" width="48" height="48" viewBox="0 -960 960 960"><path d="M390-733h180v-87H390v87ZM720-47q-81 0-137-56t-56-137q0-81 56-137t137-56q81 0 137 56t56 137q0 81-56 137T720-47Zm74-92 27-27-84-76v-124h-42v135.776L794-139Zm-296 19H140q-24.75 0-42.375-17.625T80-180v-493q0-24.75 17.625-42.375T140-733h190v-87q0-24.75 17.625-42.375T390-880h180q24.75 0 42.375 17.625T630-820v87h190q24.75 0 42.375 17.625T880-673v238q-34-28-75-43t-85-15q-105.718 0-179.359 73.641T467-240q0 32 8 62t23 58Z"/></svg>