<svg xmlns="http://www.w3.org/2000/svg" width="48" height="48" viewBox="0 -960 960 960"><path d="M350.615-516.923h30.77v-215.385h-92.231v30.77h61.461v184.615Zm167.693 0h89.231q11.692 0 21.23-9.539 9.539-9.538 9.539-21.23v-153.847q0-11.692-9.539-21.23-9.538-9.539-21.23-9.539h-89.231q-12.462 0-21.616 9.539-9.154 9.538-9.154 21.23v153.847q0 11.692 9.154 21.23 9.154 9.539 21.616 9.539Zm0-30.769v-153.846h89.23v153.846h-89.23Zm-269.154 320h30.769v-184.616h70.692v123.154h30.77v-123.154h73.846v184.616H486v-187.693q0-10.923-8.385-19.307-8.384-8.385-19.307-8.385H276.846q-10.923 0-19.308 8.385-8.384 8.384-8.384 19.307v187.693Zm310.692 0h30.769v-61.462h92.308q10.923 0 19.308-8.384 8.384-8.385 8.384-19.308v-98.539q0-10.923-8.384-19.307-8.385-8.385-19.308-8.385H559.846v215.385Zm30.769-92.231v-92.385h89.231v92.385h-89.231ZM215.384-160q-23.23 0-39.307-16.077T160-215.384v-529.232q0-23.23 16.077-39.307T215.384-800h529.232q23.23 0 39.307 16.077T800-744.616v529.232q0 23.23-16.077 39.307T744.616-160H215.384Z"/></svg>