<svg xmlns="http://www.w3.org/2000/svg" width="48" height="48" viewBox="0 -960 960 960"><path d="M350.615-516.923h30.77v-215.385h-92.231v30.77h61.461v184.615Zm144.616 0h120q11.615 0 21.192-9.577T646-547.692v-153.847q0-11.615-9.577-21.192t-21.192-9.577H526q-12.385 0-21.577 9.577-9.192 9.577-9.192 21.192v60.077q0 11.616 9.192 21.193 9.192 9.577 21.577 9.577h89.231v63h-120v30.769ZM526-638.308v-63.231h89.231v63.231H526ZM249.154-227.692h30.769v-184.616h70.692v123.154h30.77v-123.154h73.846v184.616H486v-187.693q0-10.923-8.385-19.307-8.384-8.385-19.307-8.385H276.846q-10.923 0-19.308 8.385-8.384 8.384-8.384 19.307v187.693Zm310.692 0h30.769v-61.462h92.308q10.923 0 19.308-8.384 8.384-8.385 8.384-19.308v-98.539q0-10.923-8.384-19.307-8.385-8.385-19.308-8.385H559.846v215.385Zm30.769-92.231v-92.385h89.231v92.385h-89.231ZM215.384-160q-23.23 0-39.307-16.077T160-215.384v-529.232q0-23.23 16.077-39.307T215.384-800h529.232q23.23 0 39.307 16.077T800-744.616v529.232q0 23.23-16.077 39.307T744.616-160H215.384Z"/></svg>