<svg xmlns="http://www.w3.org/2000/svg" width="48" height="48" viewBox="0 -960 960 960"><path d="M212-440v-30.769h152.846q10.769 0 17.692-6.923t6.923-17.692V-560q0-10.769-6.923-17.692t-17.692-6.923H211v-30.77h153.846q10.769 0 17.692-6.923T389.461-640v-64.616q0-10.769-6.923-17.692t-17.692-6.923H212V-760h152.846q23.231 0 39.308 16.163 16.077 16.164 16.077 39.221v58.308q0 17.811-12.654 32.059Q394.923-600 383.385-600q11.538 0 24.192 15.192 12.654 15.193 12.654 32.808v56.616q0 23.057-16.164 39.221Q387.904-440 364.846-440H212Zm481.616 0h-98.001q-23.057 0-39.221-16.163-16.163-16.164-16.163-39.221v-209.232q0-23.057 16.163-39.221Q572.558-760 595.615-760h98.001q23.057 0 39.221 16.163Q749-727.673 749-704.616v209.232q0 23.057-16.163 39.221Q716.673-440 693.616-440Zm0-30.769q10 0 17.307-6.923 7.308-6.923 7.308-17.692v-209.232q0-10.769-7.308-17.692-7.307-6.923-17.307-6.923h-98.001q-10 0-17.307 6.923Q571-715.385 571-704.616v209.232q0 10.769 7.308 17.692 7.307 6.923 17.307 6.923h98.001Zm-539.77 370.77v-154.155h30.769V-100h-30.769Zm116.923 0v-154.155h30.769V-100h-30.769Zm116.923 0v-154.155h30.77V-100h-30.77Zm116.923 0v-154.155h301.539V-100H504.615Z"/></svg>