<svg xmlns="http://www.w3.org/2000/svg" width="48" height="48" viewBox="0 -960 960 960"><path d="M215.384-160q-23 0-39.192-16.077T160-215.384v-529.232q0-23 16.192-39.192T215.384-800h529.232q23.23 0 39.307 16.192T800-744.616v80.154H552.615q-41.077 0-66.769 25.308-25.692 25.308-25.692 66.923v184.693q0 41.615 25.692 66.923t66.769 25.308H800v79.923q0 23.23-16.077 39.307T744.616-160H215.384Zm337.231-166.077q-27.077 0-44.384-16.923-17.308-16.923-17.308-44.538v-184.693q0-27.846 17.308-44.654 17.307-16.808 44.384-16.808h225.924q27.846 0 44.769 16.808t16.923 44.654v184.693q0 27.615-16.923 44.538t-44.769 16.923H552.615Zm93.231-92.231q25 0 43.346-18.346 18.347-18.346 18.347-43.577 0-25.769-18.347-43.615-18.346-17.846-43.346-17.846-25.769 0-44.115 17.846-18.346 17.846-18.346 43.615 0 25.231 18.346 43.577 18.346 18.346 44.115 18.346Z"/></svg>