<svg xmlns="http://www.w3.org/2000/svg" width="48" height="48" viewBox="0 -960 960 960"><path d="M592.641-200q-117.39 0-198.862-81.472-81.472-81.471-81.472-198.861 0-116.744 81.472-198.206Q475.251-760 592.641-760q116.744 0 198.205 81.461 81.462 81.462 81.462 198.206 0 117.39-81.462 198.861Q709.385-200 592.641-200Zm-.569-30.769q103.62 0 176.543-72.303 72.924-72.304 72.924-176.693 0-103.62-72.688-176.543t-176.308-72.923q-104.389 0-176.928 72.688-72.538 72.688-72.538 176.308 0 104.389 72.303 176.927 72.303 72.539 176.692 72.539Zm103.774-123.923 22-21.231-109.923-110.154-.231-141.615h-30.769v153.538l118.923 119.462ZM127.692-624.615v-30.77h144.615v30.77H127.692Zm-40 160v-30.77h184.615v30.77H87.692Zm40 160v-30.77h144.615v30.77H127.692ZM592.308-480Z"/></svg>