<svg xmlns="http://www.w3.org/2000/svg" width="48" height="48" viewBox="0 -960 960 960"><path d="M642.846-522.923v-123.385H518.692v-30.769h124.154v-124.154h30.77v124.154H797v30.769H673.616v123.385h-30.77ZM755-164.615q-101.231 0-206.731-54.616-105.5-54.615-191.5-140.23-86-85.616-140.615-190.731-54.616-105.116-54.616-206.347 0-18.23 12.616-30.846Q186.769-800 205-800h88.462q17.077 0 29.115 10.269 12.038 10.269 15.808 27.808l20.846 89.077q2.769 15.538-.885 28.192T345.154-624l-88.462 83.308q59.077 98.384 129.731 168.154Q457.077-302.769 552-250.923l85.769-89.539q10-11 21.846-15.115 11.847-4.115 25.616-1.115l75.154 16.769q17.308 3 27.692 15.769 10.385 12.769 10.385 31.077v85q0 18.231-12.616 30.847-12.615 12.615-30.846 12.615Z"/></svg>