<svg xmlns="http://www.w3.org/2000/svg" width="48" height="48" viewBox="0 96 960 960"><path d="M456.462 774.462q-75.231-9.616-125.847-65.539Q280 653 280 576q0-84.103 57.949-142.051Q395.897 376 480 376q77 0 132.923 50.231 55.923 50.23 65.539 125.692l-33.77-10q-11.705-58.615-57.416-96.885Q541.565 406.769 480 406.769q-70.385 0-119.808 49.423T310.769 576q0 61.615 38.654 107.654 38.654 46.038 96.5 57.808l10.539 33Zm48 160.307q-6.116 1-12.231 1.116Q486.115 936 480 936q-74.7 0-140.4-28.339-65.7-28.34-114.3-76.922-48.6-48.582-76.95-114.257Q120 650.806 120 576.134q0-74.673 28.339-140.41 28.34-65.737 76.922-114.365 48.582-48.627 114.257-76.993Q405.194 216 479.866 216q74.673 0 140.41 28.35t114.365 76.95q48.627 48.6 76.993 114.3Q840 501.3 840 576q0 5.923-.115 11.846-.116 5.923-1.116 11.846l-29.538-8.769V576q0-137.385-95.923-233.308T480 246.769q-137.385 0-233.308 95.923T150.769 576q0 137.385 95.923 233.308T480 905.231h14.923l9.539 29.538Zm285.769-7.23L598.462 735.001 561.539 846.77 480 576l270.77 81.539-111.769 36.923 192.538 191.769-41.308 41.308Z"/></svg>