<svg xmlns="http://www.w3.org/2000/svg" width="48" height="48"><path d="M18.95 32.45H29.1q.7 0 1.175-.475.475-.475.475-1.225v-16.9q0-.75-.475-1.225-.475-.475-1.225-.475H18.9q-.7 0-1.175.5-.475.5-.475 1.2V30.8q0 .7.475 1.175.475.475 1.225.475zm1.65-3.35V15.55h6.8V29.1zM24 42.6q-1.9-2.8-4.175-3.75-2.275-.95-2.525-1.05-4.4-1.8-7.3-6.025Q7.1 27.55 7.1 22.3q0-3.5 1.325-6.6 1.325-3.1 3.6-5.375Q14.3 8.05 17.4 6.725 20.5 5.4 24 5.4q3.5 0 6.6 1.325 3.1 1.325 5.375 3.6 2.275 2.275 3.6 5.375 1.325 3.1 1.325 6.6 0 5.25-2.9 9.475T30.7 37.8q-.25.1-2.525 1.05Q25.9 39.8 24 42.6zm0-4.95q1.2-1 2.575-1.75 1.375-.75 2.925-1.25 3.6-1.55 5.825-4.975T37.55 22.3q0-5.6-3.95-9.575Q29.65 8.75 24 8.75q-5.65 0-9.6 3.975-3.95 3.975-3.95 9.575 0 4 2.225 7.4 2.225 3.4 5.825 4.95 1.55.5 2.925 1.25 1.375.75 2.575 1.75zm0-14.45z"/></svg>