<svg xmlns="http://www.w3.org/2000/svg" width="48" height="48" viewBox="0 -960 960 960"><path d="M742.73-207.35q-7.35-7.34-7.35-17.27 0-9.92 7.35-17.26 7.35-7.35 17.27-7.35t17.27 7.35q7.35 7.34 7.35 17.26 0 9.93-7.35 17.27Q769.92-200 760-200t-17.27-7.35Zm1.89-91.11v-144.62h30.76v144.62h-30.76ZM130.15-547.31l-53.38-53.61Q159.31-678.23 262.92-719 366.54-759.77 480-759.77q113.46 0 217.08 40.77 103.61 40.77 186.15 118.08l-52.61 53.61q-71.93-65.92-162.2-101-90.27-35.07-188.42-35.07-98.15 0-188.42 35.07-90.27 35.08-161.43 101ZM440.5-216.5q-15.88-16.27-15.88-39.5t15.88-39.12Q456.38-311 480-311q23.62 0 39.5 15.88 15.88 15.89 15.88 39.12 0 23.23-15.88 39.5T480-200.23q-23.62 0-39.5-16.27ZM290.92-386.85l-50.23-51.23Q289-484 350.96-508.46q61.96-24.46 129.04-24.46 53.85 0 104.85 16.57 51 16.58 95 47.73-19.08 7.24-34.5 18.77-15.43 11.54-28.81 24.62-32.39-17.62-66.58-26.65-34.19-9.04-69.96-9.04-53.23 0-101.69 19.15t-87.39 54.92Z"/></svg>