<svg xmlns="http://www.w3.org/2000/svg" width="48" height="48" viewBox="0 96 960 960"><path d="M428.538 847.077q34.077 0 58.077-23.5t24-57.577V582.461h107.539v-52.307H479.846v178.538q-9.461-10.538-22.713-16.307-13.251-5.77-28.595-5.77-32.965 0-56.059 23.414-23.094 23.413-23.094 56.115 0 33.702 23.094 57.318 23.094 23.615 56.059 23.615ZM255.384 936q-23.057 0-39.221-16.163Q200 903.673 200 880.616V271.384q0-23.057 16.163-39.221Q232.327 216 255.384 216h334.077L760 386.539v494.077q0 23.057-16.163 39.221Q727.673 936 704.616 936H255.384Zm318.693-535.538h155.154L574.077 246.769v153.693Z"/></svg>