<svg xmlns="http://www.w3.org/2000/svg" width="48" height="48" viewBox="0 -960 960 960"><path d="M428.538-208.923q34.077 0 58.077-23.5t24-57.577v-183.539h107.539v-52.307H479.846v178.538q-9.461-10.538-22.713-16.307-13.251-5.77-28.595-5.77-32.965 0-56.059 23.414-23.094 23.413-23.094 56.115 0 33.702 23.094 57.318 23.094 23.615 56.059 23.615ZM255.384-120q-23.057 0-39.221-16.163Q200-152.327 200-175.384v-609.232q0-23.057 16.163-39.221Q232.327-840 255.384-840h334.077L760-669.461v494.077q0 23.057-16.163 39.221Q727.673-120 704.616-120H255.384Zm318.693-535.538h155.154L574.077-809.231v153.693Z"/></svg>