<svg xmlns="http://www.w3.org/2000/svg" width="48" height="48" viewBox="0 96 960 960"><path d="M206 698.077Q192.154 669 186.077 639.039 180 609.077 180 578q0-124.077 87.961-212.423Q355.923 277.231 480 277.231h72.231l-91.539-91.539 20.539-20.538 127.461 127.461-127.461 126.693-20.77-20.77L551 308h-71q-111.615 0-190.423 79.192Q210.769 466.385 210.769 578q0 25.154 4.731 50.385 4.731 25.23 12.731 47.461L206 698.077Zm272.308 290.231L350.846 860.846l127.462-126.692 19.769 19.769-90.769 91.538H480q111.615 0 190.423-79.192t78.808-190.807q0-25.154-4.231-50.385-4.231-25.231-13.462-47.462l22.231-22.231q13.077 29.077 19.654 59.039T780 575.462q0 124.077-87.961 212.423Q604.077 876.231 480 876.231h-72.692l90.769 91.538-19.769 20.539Z"/></svg>