<svg xmlns="http://www.w3.org/2000/svg" width="48" height="48" viewBox="0 -960 960 960"><path d="M438.769-350.615 546.154-458l107.385 107.385 23-22.231L568.154-480l107.154-107.154-22.231-22.231L546.154-502 438.769-609.385l-22.231 22.231L524.154-480 416.538-372.846l22.231 22.231ZM164.615-480l141.308-199.769q13-18.77 32.154-29.5Q357.231-720 380-720h360q22.693 0 39.039 16.346t16.346 39.038v369.232q0 22.692-16.346 39.038Q762.693-240 740-240H380q-22.769 0-41.539-11.5-18.769-11.5-32.538-30.269L164.615-480Z"/></svg>