<svg xmlns="http://www.w3.org/2000/svg" width="48" height="48" viewBox="0 0 48 48"><path d="M38 21.6q-1.05 0-1.775-.725-.725-.725-.725-1.775 0-1 .75-1.725.75-.725 1.75-.725t1.725.725q.725.725.725 1.725 0 1.05-.725 1.775Q39 21.6 38 21.6Zm-28 0q-1 0-1.725-.725-.725-.725-.725-1.775 0-1 .725-1.725Q9 16.65 10 16.65q1.05 0 1.775.725.725.725.725 1.725 0 1.05-.75 1.775Q11 21.6 10 21.6Zm8.5-1.75q.25-1.6-.075-2.8-.325-1.2-1.525-2.7-1.35-1.7-1.825-3.325Q14.6 9.4 14.9 7.15h1.25q-.2 2.2.15 3.5.35 1.3 1.5 2.75 1.35 1.75 1.8 3.25.45 1.5.2 3.2Zm5.6 0q.3-1.65-.05-2.85-.35-1.2-1.55-2.7-1.35-1.7-1.8-3.3-.45-1.6-.15-3.85h1.25q-.25 2 .125 3.4T23.5 13.4q1.3 1.7 1.75 3.2.45 1.5.2 3.25Zm5.65 0q.3-1.65-.05-2.85-.35-1.2-1.55-2.7-1.35-1.7-1.8-3.3-.45-1.6-.15-3.85h1.25q-.2 1.95.15 3.375t1.55 2.875q1.3 1.7 1.75 3.2.45 1.5.2 3.25ZM8.75 42q-1.1 0-1.925-.825T6 39.25V28h1.55v-1.2q0-1.25.85-2.125t2.15-.875q.75 0 1.4.325.65.325 1.2.875l1.6 1.9q.25.3.575.575.325.275.675.525h16.05q.3-.25.625-.525t.575-.575L34.9 25q.5-.55 1.15-.875.65-.325 1.4-.325 1.3 0 2.15.875.85.875.85 2.125V28H42v11.25q0 1.1-.825 1.925T39.25 42Zm-1.2-6.55h32.9v-5.9H7.55Zm1.2 5h30.5q.5 0 .85-.35t.35-.85V37H7.55v2.25q0 .5.35.85t.85.35Zm15.25-5ZM24 37Zm0 0v-1.55Z"/></svg>