<svg xmlns="http://www.w3.org/2000/svg" width="48" height="48" viewBox="0 96 960 960"><path d="M356.9 805.077q12.869 0 21.677-8.862 8.808-8.861 8.808-21.731 0-12.869-8.862-21.676Q369.661 744 356.792 744q-12.869 0-21.677 8.862-8.807 8.861-8.807 21.73 0 12.87 8.861 21.677 8.862 8.808 21.731 8.808Zm123.154 0q12.869 0 21.677-8.862 8.808-8.861 8.808-21.731 0-12.869-8.862-21.676Q492.815 744 479.946 744q-12.869 0-21.677 8.862-8.808 8.861-8.808 21.73 0 12.87 8.862 21.677 8.862 8.808 21.731 8.808Zm123.154 0q12.869 0 21.677-8.862 8.807-8.861 8.807-21.731 0-12.869-8.861-21.676Q615.969 744 603.1 744q-12.869 0-21.677 8.862-8.808 8.861-8.808 21.73 0 12.87 8.862 21.677 8.862 8.808 21.731 8.808ZM356.9 682.154q12.869 0 21.677-8.862t8.808-21.731q0-12.869-8.862-21.292-8.862-8.423-21.731-8.423-12.869 0-21.677 8.477-8.807 8.477-8.807 21.346t8.861 21.677q8.862 8.808 21.731 8.808Zm123.154 0q12.869 0 21.677-8.862t8.808-21.731q0-12.869-8.862-21.292-8.862-8.423-21.731-8.423-12.869 0-21.677 8.477t-8.808 21.346q0 12.869 8.862 21.677t21.731 8.808Zm123.154 0q12.869 0 21.677-8.862 8.807-8.862 8.807-21.731 0-12.869-8.861-21.292-8.862-8.423-21.731-8.423-12.869 0-21.677 8.477t-8.808 21.346q0 12.869 8.862 21.677t21.731 8.808ZM304.615 543.846h350.77v-9.077q0-72.692-50.962-124.038Q553.462 359.384 480 359.384t-124.423 51.347q-50.962 51.346-50.962 124.038v9.077ZM480 390.154ZM175.384 936q-23.23 0-39.307-16.077T120 880.616V271.384q0-23.23 16.077-39.307T175.384 216h609.232q23.23 0 39.307 16.077T840 271.384v609.232q0 23.23-16.077 39.307T784.616 936H175.384Z"/></svg>