<svg xmlns="http://www.w3.org/2000/svg" width="48" height="48"><path d="M16.55 43q-.65 0-1.1-.45-.45-.45-.45-1.1v-30.9q0-.65.45-1.1.45-.45 1.1-.45h4.05V5.75h6.8V9h4.05q.65 0 1.1.45.45.45.45 1.1v30.9q0 .65-.45 1.1-.45.45-1.1.45zm7.3-8.15q.45 0 .8-.325.35-.325.35-.775 0-.55-.35-.875-.35-.325-.8-.325-.5 0-.85.325t-.35.875q0 .45.35.775t.85.325zm-.75-5.4h1.5q0-1.35.675-2.25.675-.9 1.475-1.7.8-.8 1.45-1.65.65-.85.65-2.1 0-2.2-1.375-3.475T23.85 17q-1.75 0-2.975.9T19 20.2l1.45.55q.4-1.05 1.275-1.65.875-.6 2.125-.6 1.75 0 2.625.925t.875 2.225q0 1.15-.65 1.85-.65.7-1.45 1.5-.85.8-1.5 1.8t-.65 2.65z"/></svg>