<svg xmlns="http://www.w3.org/2000/svg" width="48" height="48" viewBox="0 0 48 48"><path d="m38.95 40-12.3-12.25 1.15-1.2L40.15 38.9Zm-27.3-2.95q-3.55-4.7-3.7-10.575-.15-5.875 3.1-10.725-.4 1.9-.075 4.025.325 2.125 1.2 4.225.875 2.1 2.125 4.1 1.25 2 2.6 3.7Zm6.3-6.3q-2.1-2.35-3.425-4.925-1.325-2.575-1.85-4.925-.525-2.35-.275-4.3.25-1.95 1.25-3 1.05-1.1 3-1.325 1.95-.225 4.35.325 2.4.55 5 1.85t4.85 3.4ZM31.9 16.8q-1.6-1.35-3.55-2.6-1.95-1.25-4.075-2.125T20 10.825q-2.15-.375-4.05.075 4.9-3.25 10.725-3.1 5.825.15 10.525 3.65Z"/></svg>