<svg xmlns="http://www.w3.org/2000/svg" width="48" height="48" viewBox="0 96 960 960"><path d="M215.384 753.231h37.077v-64.539h455.078v64.539h37.077v-146.77q0-14.153-10.808-31.961t-27.192-27.269v-55.693q0-26.615-16.577-43.192t-43.193-16.577H527.769q-17.538 0-29.538 6.923t-18.462 18.462q-6.461-11.539-18.846-18.462T431 431.769H313.154q-26.616 0-43.193 16.577-16.577 16.577-16.577 43.192v55.693Q237 556.692 226.192 574.5t-10.808 31.961v146.77Zm37.077-95.308v-40.461q0-17.462 11.27-28.731 11.269-11.269 28.73-11.269h375.078q17.461 0 28.73 11.269 11.27 11.269 11.27 28.731v40.461H252.461Zm31.693-111.231v-59.538q0-10 7.307-17.308 7.308-7.308 17.308-7.308h131.616q10 0 17.307 7.308Q465 477.154 465 487.154v59.538H284.154Zm211.615 0v-59.538q0-10 6.923-17.308t17.693-7.308h130.846q10 0 17.308 7.308 7.307 7.308 7.307 17.308v59.538H495.769ZM175.384 936q-23.23 0-39.307-16.077T120 880.616V271.384q0-23.23 16.077-39.307T175.384 216h609.232q23.23 0 39.307 16.077T840 271.384v609.232q0 23.23-16.077 39.307T784.616 936H175.384Z"/></svg>