<svg xmlns="http://www.w3.org/2000/svg" width="48" height="48" viewBox="0 -960 960 960"><path d="M770.231-256.615 257.384-769.462q30.924-37.461 71.501-65.961 40.577-28.5 90.624-44.577-4.233 93.192 26.818 181.328 31.052 88.137 97.75 154.364 66.385 66.192 152.808 99.075 86.423 32.882 180.038 28.777-16.077 48.829-43.038 88.873-26.962 40.045-63.654 70.968Zm17.538 161.077L680.077-202.461q-32.615 13.923-67.981 20.884-35.366 6.962-73.481 6.962-75.538 0-141.731-28.539-66.192-28.538-115.692-78.038t-78.038-115.692q-28.539-66.193-28.539-141.731 0-37.077 7.346-72.577t21.269-68.885L96.538-787.037l22.231-21.194 690.462 690.462-21.462 22.23Z"/></svg>