<svg xmlns="http://www.w3.org/2000/svg" width="48" height="48" viewBox="0 -960 960 960"><path d="M199.46-120v-536.77H120v-91.18q0-38 26.83-65.02Q173.67-840 212-840h536q37.82 0 64.91 26.98 27.09 26.97 27.09 65v91.25h-79.97V-120H199.46Zm30.77-30.77h499v-160.38h-499v160.38Zm0-191.15h499v-160.62H605.31v60.46q0 6.54-4.43 10.96-4.42 4.43-10.96 4.43-5.84 0-10.61-4.43-4.77-4.42-4.77-10.96v-60.46H230.23v160.62Zm0-191.39h344.31v-123.46H230.23v123.46Zm375.08 0h123.92v-123.46H605.31v123.46ZM150.77-687.54h658.46v-60.12q0-25.88-17.6-43.72-17.61-17.85-43.63-17.85H212q-26.02 0-43.63 17.49-17.6 17.5-17.6 43.36v60.84Zm658.46 0H150.77h658.46Z"/></svg>