<svg xmlns="http://www.w3.org/2000/svg" width="48" height="48" viewBox="0 -960 960 960"><path d="M160-160v-30.769h640V-160H160Zm0-150.384v-40.001h40v40.001h-40ZM160-460v-40h40v40h-40Zm0-150.385v-40h40v40h-40ZM160-760v-40h40v40h-40Zm150.384 300v-40h40.001v40h-40.001Zm0-300v-40h40.001v40h-40.001ZM460-310.384v-40.001h40v40.001h-40ZM460-460v-40h40v40h-40Zm0-150.385v-40h40v40h-40ZM460-760v-40h40v40h-40Zm150.385 300v-40h40v40h-40Zm0-300v-40h40v40h-40ZM760-310.384v-40.001h40v40.001h-40ZM760-460v-40h40v40h-40Zm0-150.385v-40h40v40h-40ZM760-760v-40h40v40h-40Z"/></svg>