<svg xmlns="http://www.w3.org/2000/svg" width="48" height="48" viewBox="0 -960 960 960"><path d="M135.385-135.385v-40h689.23v40h-689.23Zm0-162.692v-40h40v40h-40Zm324.615 0v-40h40v40h-40Zm324.615 0v-40h40v40h-40ZM135.385-460v-40h40v40h-40Zm162.692 0v-40h40v40h-40ZM460-460v-40h40v40h-40Zm162.692 0v-40h40v40h-40Zm161.923 0v-40h40v40h-40Zm-649.23-162.692v-40h40v40h-40Zm324.615 0v-40h40v40h-40Zm324.615 0v-40h40v40h-40Zm-649.23-161.923v-40h40v40h-40Zm162.692 0v-40h40v40h-40Zm161.923 0v-40h40v40h-40Zm162.692 0v-40h40v40h-40Zm161.923 0v-40h40v40h-40Z"/></svg>