<svg xmlns="http://www.w3.org/2000/svg" width="48" height="48" viewBox="0 -960 960 960"><path d="M235.385-160q-12.924 0-21.847-8.923-8.923-8.923-8.923-21.846v-377Q171-586.692 145.5-614.654 120-642.615 120-685.846q0-48.385 32.884-81.27Q185.769-800 234.154-800h491.692q48.385 0 81.27 32.884Q840-734.231 840-685.846q0 43.231-25.5 71.192-25.5 27.962-58.884 46.885v377q0 12.923-8.923 21.846Q737.769-160 724.846-160H235.385Zm232.076-122.846q6.154 6.154 12.654 6.154t12.654-6.154l146.154-144.615q6.154-6.154 6.154-12.654t-6.154-12.654L492.769-598.923q-4.923-4.923-12.654-4.923-7.73 0-12.654 4.923L322.846-452.769q-6.154 6.154-6.154 12.654t6.154 12.654l144.615 144.615ZM480-313.077 354.308-438.769l125.692-128 127.231 128L480-313.077Z"/></svg>