<svg xmlns="http://www.w3.org/2000/svg" width="48" height="48" viewBox="0 -960 960 960"><path d="M480.231-83.615 362.75-200H200v-162.75L82.153-480 200-597.25V-760h162.75l117.481-117.846L597.25-760H760v162.75L877.846-480 760-362.75V-200H597.25L480.231-83.615Zm-.185-230.077q69.584 0 118.538-48.385 48.955-48.384 48.955-117.969 0-69.584-48.955-118.538-48.954-48.955-118.538-48.955-69.585 0-117.969 48.955-48.385 48.954-48.385 118.538 0 69.585 48.385 117.969 48.384 48.385 117.969 48.385Zm.185 186.077 103.833-103.154h145.167v-144.718L833.615-480 729.103-584.513v-144.718H584.385L480.231-833.615 375.615-729.231H230.897v144.718L126.385-480l104.384 104.513v144.718h144.616l104.846 103.154Z"/></svg>