<svg xmlns="http://www.w3.org/2000/svg" width="48" height="48" viewBox="0 96 960 960"><path d="M326.077 896v-50.692L395.384 776h-220q-23.057 0-39.221-16.163Q120 743.673 120 720.616V311.384q0-23.057 16.163-39.221Q152.327 256 175.384 256h348.539v30.769H175.384q-9.23 0-16.923 7.692-7.692 7.693-7.692 16.923v409.232q0 9.23 7.692 16.923 7.693 7.692 16.923 7.692h609.232q9.23 0 16.923-7.692 7.692-7.693 7.692-16.923V616.231H840v104.385q0 23.057-16.163 39.221Q807.673 776 784.616 776h-220l69.538 69.308V896H326.077Zm314.769-222.154L472.461 505.462l22-22.001 131 132.308V256h30.77v359.769l131-132.308 22 22.001-168.385 168.384Z"/></svg>