<svg xmlns="http://www.w3.org/2000/svg" width="48" height="48" viewBox="0 -960 960 960"><path d="M303.54-404.02Q291-391.42 291-373.73q0 17.69 12.6 29.71Q316.19-332 333.89-332q17.69 0 29.71-12.08 12.02-12.07 12.02-29.77 0-17.69-12.08-30.23t-29.77-12.54q-17.69 0-30.23 12.6Zm495.95-55.33Q840-421.77 840-361.54v106.16q0 27.61-20.04 47.65t-47.65 20.04L840-120H547.69l67.69-67.69q-27.61 0-47.65-20.04t-20.04-47.65v-106.16q0-60.23 41.28-97.81 41.29-37.57 105.65-37.57 64.35 0 104.87 37.57ZM671.31-278.31q-7.85 7.85-7.85 19.08 0 11.23 7.85 19.08 7.84 7.84 18.69 7.84 10.85 0 19.08-7.84 8.23-7.85 8.23-19.08 0-11.23-8.23-19.08-8.23-7.84-19.08-7.84-10.85 0-18.69 7.84Zm-81.93-117.07q-3.15 8.23-4.73 16.3-1.57 8.08-1.57 17.54v33.85h221.54v-33.85q0-9.46-1.62-17.54-1.62-8.07-4.85-16.3H589.38ZM480.23-840q148.31 0 214.04 26.31Q760-787.38 760-728v153.23q-7.85-1.92-15.03-3.8-7.18-1.87-15.74-3.28v-127.53H230.77v203h283.38q-6.3 6.84-12.42 14.31-6.11 7.46-11.04 16.45H230.77v120q0 33.47 23.5 58.54Q277.77-272 312-272h149.54v30.77H302.77v67.31q0 6.48-4.78 10.2-4.77 3.72-13.07 3.72h1q-6.84 0-11.84-3.72t-5-10.2V-251q-24.39-6-46.73-36.42Q200-317.84 200-355.62V-728q0-58.08 67.27-85.04Q334.54-840 480.23-840Zm0 99.85h252.08-505.39 253.31Zm-253.31 0h505.39q-14.77-35.23-77-52.16-62.23-16.92-175.08-16.92-122.61 0-182.92 16.19-60.31 16.19-70.39 52.89Zm263.77 264.53Z"/></svg>