<svg xmlns="http://www.w3.org/2000/svg" width="48" height="48" viewBox="0 -960 960 960"><path d="M175.384-160q-23.057 0-39.221-16.163Q120-192.327 120-215.384v-169.462h294.077v50.769h132.308v-50.769H840v169.462q0 23.057-16.163 39.221Q807.673-160 784.616-160H175.384Zm269.462-204.846v-70.769h70.769v70.769h-70.769ZM120-415.615v-209.001q0-23.057 16.163-39.221Q152.327-680 175.384-680H360v-64.616q0-23.058 16.163-39.221Q392.327-800 415.384-800h129.232q23.057 0 39.221 16.163Q600-767.674 600-744.616V-680h184.616q23.057 0 39.221 16.163Q840-647.673 840-624.616v209.001H546.385v-50.77H414.077v50.77H120ZM390.769-680h178.462v-64.616q0-9.231-7.692-16.923-7.693-7.692-16.923-7.692H415.384q-9.23 0-16.923 7.692-7.692 7.692-7.692 16.923V-680Z"/></svg>