<svg xmlns="http://www.w3.org/2000/svg" width="48" height="48" viewBox="0 -960 960 960"><path d="m417.154-87.692-22.231-22.231L465-180H240v-30.769h226.23l-71.307-71.308 22.231-22.231 107.923 108.693L417.154-87.692ZM560-180v-30.769h160V-180H560Zm-320-96.615v-508.001q0-23.057 16.163-39.221Q272.327-840 295.384-840h369.232q23.057 0 39.221 16.163Q720-807.673 720-784.616v508.001H495.308l-78.154-77.616-78.385 77.616H240Zm30.769-130q46.616-21.462 102.707-33.731 56.091-12.269 106.346-12.269t106.654 12.269q56.399 12.269 102.755 33.731v-378.001q0-9.23-7.692-16.923-7.693-7.692-16.923-7.692H295.384q-9.23 0-16.923 7.692-7.692 7.693-7.692 16.923v378.001Zm208.996-117.847q-40.227 0-68.304-28.087-28.076-28.088-28.076-67.994 0-40.226 28.312-68.303 28.312-28.077 68.538-28.077 40.227 0 68.304 28.233 28.076 28.233 28.076 68.346t-28.312 67.998q-28.312 27.884-68.538 27.884Z"/></svg>