<svg xmlns="http://www.w3.org/2000/svg" width="48" height="48" viewBox="0 -960 960 960"><path d="M479.5-281.538q64.808 0 111.154-45.847Q637-373.231 637-438.423q0-65.192-46.346-111.154T479.5-595.539q-64.808 0-110.654 45.962Q323-503.615 323-438.423t45.846 111.038q45.846 45.847 110.654 45.847Zm.5-33.77-38.077-86.615-85.154-36.385 85.154-36.615L480-561.539l37.846 86.616L603-438.308l-85.154 36.385L480-315.308ZM175.384-160q-23.057 0-39.221-16.163Q120-192.327 120-215.384v-446.078q0-23 16.163-39.192 16.164-16.192 39.221-16.192h127.77L376.923-800h206.154l73.769 83.154h127.77q23 0 39.192 16.192T840-661.462v446.078q0 23.057-16.192 39.221Q807.616-160 784.616-160H175.384Zm609.232-30.769q10.769 0 17.692-6.923t6.923-17.692v-446.078q0-10-6.923-17.307-6.923-7.308-17.692-7.308H642.692l-73.769-83.154H391.077l-73.769 83.154H175.384q-10.769 0-17.692 7.308-6.923 7.307-6.923 17.307v446.078q0 10.769 6.923 17.692t17.692 6.923h609.232ZM480-438.538Z"/></svg>