<svg xmlns="http://www.w3.org/2000/svg" width="48" height="48" viewBox="0 -960 960 960"><path d="M175.384-200q-6.557 0-10.971-4.413Q160-208.827 160-215.384v-295.539l79.615-233.693q2.692-7.077 9.346-11.23Q255.615-760 263.385-760h196.846q-1.693 7.246-2.539 14.854-.846 7.607-1.846 15.915H268l-65 187.538h312.385q29.846 34.077 68.115 55.501 38.269 21.423 83.731 29.038-17 1.923-28.154 14.885-11.154 12.961-11.154 31.192 0 16.859 12.854 29.276 12.854 12.416 29.789 12.416 17.767 0 29.87-12.416 12.103-12.417 12.103-29.276 0-14.769-7.424-26.654-7.423-11.884-19.961-18.346 5.077.769 9.385.769h9.384q27.846 0 49.039-3.615 21.192-3.615 47.038-12.231v255.77q0 6.557-4.413 10.971Q791.173-200 784.616-200h-.231q-6.808 0-10.981-4.413-4.173-4.414-4.173-10.971v-66.308H190.769v66.308q0 6.557-4.413 10.971Q181.942-200 175.385-200h-.001Zm115.177-169.385q17.67 0 29.708-12.469 12.039-12.469 12.039-29.404 0-18.537-12.47-30.639Q307.369-454 290.434-454q-17.767 0-30.255 12.215-12.487 12.215-12.487 30.654 0 17.67 12.6 29.708 12.599 12.038 30.269 12.038Zm418.311-183.23q-65.026 0-110.641-45.626-45.616-45.626-45.616-111.538 0-64.375 45.646-109.606 45.645-45.231 111.054-45.231 65.07 0 110.185 45.116 45.116 45.115 45.116 110.5 0 65.385-45.359 110.885t-110.385 45.5Zm1.09-59.847q7.961 0 13.307-5.615 5.347-5.615 6.116-13.308 0-8.923-5.831-14.307-5.831-5.385-13.092-5.385-9.462.231-14.577 5.462-5.116 5.23-5.116 13.961 0 7.962 5.616 13.577 5.615 5.615 13.577 5.615ZM695.539-689h28.846v-112.231h-28.846V-689Z"/></svg>