<svg xmlns="http://www.w3.org/2000/svg" width="48" height="48" viewBox="0 -960 960 960"><path d="M606.539-121.308q-8.24 8.064-18.821 12.148-10.581 4.083-20.957 4.083-10.376 0-20.611-4.083-10.234-4.084-18.458-12.148l-60.538-59.538q-8-8-11.782-18.057-3.782-10.058-3.911-20.174-.23-10.231 3.654-20.231 3.885-10 11.654-18.461L482-275.692 149.923-747.769l123.769-123.77 502.231 502.001q8.231 8.23 12.731 18.846 4.5 10.615 4.5 20.846t-4.5 20.192q-4.5 9.962-12.731 18.193L606.539-121.308Zm-56.077-22q7.692 6.923 17.692 6.923t16.923-6.923l169.615-169.615q6.923-6.923 6.923-16.923 0-10-6.923-17.692L676-426.769 488.923-238.692q-7.692 7.692-7.692 18.077 0 10.384 7.692 17.307l61.539 60Z"/></svg>