<svg xmlns="http://www.w3.org/2000/svg" width="48" height="48" viewBox="0 -960 960 960"><path d="m667.23-171.54 134.08-134.31-21.85-21.07-112.23 112.46-57.46-57.69-21.08 22.07 78.54 78.54Zm-288.46-26.54v-403.61H332q-10.77 0-17.69 6.92-6.93 6.92-6.93 17.69v354.39q0 10.77 6.93 17.69 6.92 6.92 17.69 6.92h46.77Zm101.54 30.77H332q-23.06 0-39.22-16.16t-16.16-39.22v-354.39q0-23.05 16.16-39.22 16.16-16.16 39.22-16.16h234.08v-176.77h-35.54q-13.23 0-22-9.24T499.77-840h97.08v380.69q-5.54 3.46-15.5 9-9.97 5.54-15.27 10.39v-161.77H409.54v403.61h61.69q1 7.31 3.46 15.89 2.46 8.57 5.62 14.88Zm326.04-194.42Q852.08-316 852.08-250t-45.73 111.73q-45.73 45.73-111.73 45.73t-111.74-45.73Q537.15-184 537.15-250t45.73-111.73q45.74-45.73 111.74-45.73t111.73 45.73ZM394.15-400Zm-15.38 201.92v-403.61 403.61Zm30.77 0v-403.61 403.61Z"/></svg>