<svg xmlns="http://www.w3.org/2000/svg" width="48" height="48" viewBox="0 -960 960 960"><path d="M480-480Zm197-197.03q-27.77-27.79-27.77-67.61t27.8-67.59Q704.82-840 744.64-840t67.59 27.8Q840-784.41 840-744.59T812.2-677q-27.79 27.77-67.61 27.77T677-677.03ZM339.72-148.34q-65.73-28.34-114.36-76.92-48.63-48.58-76.99-114.26Q120-405.19 120-479.87q0-74.67 28.35-140.41 28.35-65.73 76.95-114.36 48.6-48.63 114.3-76.99Q405.3-840 480-840q28.15 0 54.83 4.62 26.67 4.61 52.79 12.3-3.98 6.2-6.69 13.73-2.71 7.54-4.85 14.58-23.59-6.46-47.41-10.46-23.83-4-48.67-4-137.76 0-233.5 95.92-95.73 95.93-95.73 233.31t95.92 233.31q95.93 95.92 233.31 95.92t233.31-95.73q95.92-95.74 95.92-233.5 0-24.84-4-48.67-4-23.82-10.46-47.41 7.04-2.14 14.49-5.22 7.44-3.07 13.82-6.32 7.69 26.12 12.3 52.79Q840-508.15 840-480q0 74.7-28.34 140.4t-76.92 114.3q-48.58 48.6-114.26 76.95Q554.81-120 480.13-120q-74.67 0-140.41-28.34ZM421-324.92l257.69-256.93q-8.54-2.69-16.4-6.69-7.86-4-14.91-9.15L421-371.31 304.08-488.23l-22.7 23.46L421-324.92Z"/></svg>