<svg xmlns="http://www.w3.org/2000/svg" width="48" height="48" viewBox="0 -960 960 960"><path d="M146.96-186.96q-36.19-36.19-36.19-88.42 0-52.24 36.19-88.43Q183.15-400 235.38-400q52.24 0 88.43 36.19Q360-327.62 360-275.38q0 52.23-36.19 88.42-36.19 36.19-88.43 36.19-52.23 0-88.42-36.19Zm489.85 0q-36.58-36.19-36.58-88.42 0-52.24 36.58-88.43Q673.38-400 725.23-400t88.04 36.19q36.19 36.19 36.19 88.43 0 52.23-36.19 88.42-36.19 36.19-88.04 36.19-51.85 0-88.42-36.19ZM439.58-397.27q-17.04-16.65-17.04-41.04 0-24.38 17.04-41.04Q456.62-496 480.62-496t41.03 16.65q17.04 16.66 17.04 41.04 0 24.39-17.04 41.04-17.03 16.65-41.03 16.65t-41.04-16.65Zm-47.39-238.92q-36.57-36.19-36.57-88.43 0-52.23 36.57-88.42 36.58-36.19 88.43-36.19 51.84 0 88.03 36.19 36.2 36.19 36.2 88.42 0 52.24-36.2 88.43Q532.46-600 480.62-600q-51.85 0-88.43-36.19Z"/></svg>