<svg xmlns="http://www.w3.org/2000/svg" width="48" height="48"><path d="M24 35.85q.95 0 1.65-.65t.8-1.65h-4.9q.1 1 .8 1.65.7.65 1.65.65zM15.7 30h16.6v-2h-2v-5.65q0-2.55-1.35-4.625t-3.7-2.575V13.3q0-.55-.35-.925T24 12q-.55 0-.9.375t-.35.925v1.85q-2.4.5-3.725 2.475Q17.7 19.6 17.7 22.1V28h-2zM24 42q-3.7 0-6.975-1.425Q13.75 39.15 11.3 36.7 8.85 34.25 7.425 31 6 27.75 6 24t1.425-7.025q1.425-3.275 3.875-5.7 2.45-2.425 5.7-3.85Q20.25 6 24 6t7.025 1.425q3.275 1.425 5.7 3.85 2.425 2.425 3.85 5.7Q42 20.25 42 24q0 3.7-1.425 6.975-1.425 3.275-3.85 5.725-2.425 2.45-5.7 3.875Q27.75 42 24 42z"/></svg>