<svg xmlns="http://www.w3.org/2000/svg" width="48" height="48" viewBox="0 -960 960 960"><path d="M680-339.231q-38.462 0-65.385-26.923-26.923-26.923-26.923-65.385 0-38.461 26.923-65.384 26.923-26.923 65.385-26.923t65.385 26.923q26.923 26.923 26.923 65.384 0 38.462-26.923 65.385-26.923 26.923-65.385 26.923ZM467.692-103.077v-88.307q0-13.743 6.559-25.849 6.559-12.107 18.364-19.305 26.088-15.431 54.484-26.393 28.395-10.961 57.824-17.454L680-180.538l74.308-99.847q29.803 6.493 58.118 17.454 28.316 10.962 54.728 26.393 11.846 7.153 18.115 19.115 6.27 11.962 7.039 25.269v89.077H467.692Zm-101.538-88.307V-160H215.751q-22.809 0-39.28-16.567T160-215.384v-529.232q0-22.25 16.567-38.817T215.384-800h529.232q22.25 0 38.817 16.567T800-744.616v169.309q-22.231-23.462-54.077-36.77-31.846-13.308-65.923-13.308-5.385 0-10 .385t-10 1.154v-26.923H300V-620h324.846q-44.923 14.769-78.269 47.615-33.346 32.846-49.654 77H300v30.77h190q-3.846 29.461.385 58.23 4.231 28.77 16.846 54.847-6.923 3.077-13.461 5.769-6.539 2.692-12.693 5.769H300v30.769h120.846q-26.231 21.539-40.461 53.276-14.231 31.738-14.231 64.571Z"/></svg>