<svg xmlns="http://www.w3.org/2000/svg" width="48" height="48" viewBox="0 96 960 960"><path d="M255.615 856q-73.384 0-124.5-51.5Q80 753 80 679.615q0-68.769 48.461-121.23Q176.923 505.923 247 503.923 258.077 417 319.231 359.692q61.154-57.308 145.615-63v345.154l-90.692-92.231-22.231 23 128.308 128.308 129.077-128.308-22.231-23-91.462 92.231V296.692q92.539 9.462 155.539 76.539 63 67.077 63 161.538v51.692h24.615q58.923-2.769 100.077 36.116Q880 661.461 880 720.846q0 55.923-39.615 95.539Q800.769 856 744.846 856H255.615Z"/></svg>