<svg xmlns="http://www.w3.org/2000/svg" width="48" height="48" viewBox="0 -960 960 960"><path d="M255.38-120q-23 0-39.19-16.16Q200-152.33 200-175.38v-609.24q0-23 16.19-39.19Q232.38-840 255.38-840H760v30.77H647.62v36.92q0 11.69-9.04 21.23-9.04 9.54-21.5 9.54H374.15q-11.69 0-20.73-9.54-9.04-9.54-9.04-21.23v-36.92h-89q-10.76 0-17.69 6.92-6.92 6.93-6.92 17.69v609.24q0 10.76 6.92 17.69 6.93 6.92 17.69 6.92h168q-35.69-20.61-57.34-53-21.66-32.38-21.66-82.31v-156.84h303.24v156.84q0 49.93-22.16 82.31-22.15 32.39-57.08 53H760V-120H255.38Zm261.63-448.69q8.91-8.69 8.91-21.46 0-12.77-8.91-21.47-8.91-8.69-21.63-8.69-12.71 0-21.62 8.69-8.91 8.7-8.91 21.47t8.91 21.46q8.91 8.69 21.62 8.69 12.72 0 21.63-8.69Z"/></svg>