<svg xmlns="http://www.w3.org/2000/svg" width="48" height="48" viewBox="0 96 960 960"><path d="M175.384 776q-23 0-39.192-16.192T120 720.616v-444.77q0-3.846.384-7.308.385-3.461 1.154-6.538l-46.307-46.308 22.23-22.231 775.462 775.462-22.231 22.231L635.538 776H175.384ZM840 836.923l-91.692-91.692h60.923V271.384q0-10.769-6.923-17.692t-17.692-6.923h-534.77L219.077 216h565.539q23.057 0 39.221 16.192Q840 248.384 840 271.384v565.539Zm-664.616-91.692h429.385L495.538 636H260v-30.769h204.769l-93.846-93.846H260v-30.77h80.154L150.769 291.231v429.385q0 10.769 6.923 17.692t17.692 6.923ZM639.077 636l-30.769-30.769H700V636h-60.923ZM514.462 511.385l-30.77-30.77H700v30.77H514.462ZM389.846 386.769 359.077 356H700v30.769H389.846Zm-12.077 131.462Zm139.769-3.77Z"/></svg>