<svg xmlns="http://www.w3.org/2000/svg" width="48" height="48" viewBox="0 -960 960 960"><path d="M433-185.846v-221.441l54.692-158.944q1.231-3.154 3.385-4.692 2.154-1.539 8.538-1.539h291.462q4.59 0 7.526 1.423 2.936 1.424 4.397 4.808l54.692 158.944v221.441q0 6.941-4.068 11.009-4.068 4.068-11.009 4.068h-3.795q-6.376 0-10.598-4.068T824-185.846v-55.769H466.692v55.769q0 6.941-4.452 11.009-4.453 4.068-10.625 4.068h-3.795q-6.376 0-10.598-4.068T433-185.846Zm36.846-246.231h351l-38.769-114.231H508.615l-38.769 114.231Zm55.539 127.539q14.613 0 24.883-10.271 10.27-10.27 10.27-24.883 0-13.845-10.27-24.115-10.27-10.27-24.883-10.27-14.614 0-24.884 10.27t-10.27 24.115q0 14.613 10.27 24.883 10.27 10.271 24.884 10.271Zm239.923 0q13.844 0 24.499-10.271 10.655-10.27 10.655-24.883 0-13.845-10.655-24.115-10.655-10.27-24.499-10.27-14.614 0-24.884 10.27t-10.27 24.115q0 14.613 10.27 24.883 10.27 10.271 24.884 10.271ZM184-180v-3.308l75.461-75.461q-59.307 0-108.23-24.885-48.923-24.884-48.923-76.577v-344.154q0-40.615 56.615-58.115T341.077-780Q461-780 520.808-761.269q59.807 18.73 59.807 56.884v65.77h-30.769v-70.846H133.077v292.846h233.769V-180H184Zm13.923-145.846q14.613 0 24.884-10.27 10.27-10.271 10.27-24.115 0-14.613-10.27-24.883-10.271-10.271-24.884-10.271-13.844 0-24.114 10.271-10.271 10.27-10.271 24.883 0 13.844 10.271 24.115 10.27 10.27 24.114 10.27Z"/></svg>