<svg xmlns="http://www.w3.org/2000/svg" width="48" height="48" viewBox="0 96 960 960"><path d="M86.154 874.462q-6.827 0-11.106-4.283t-4.279-11.115q0-6.833 4.279-11.102t11.106-4.269h787.692q6.827 0 11.106 4.282 4.279 4.283 4.279 11.116 0 6.832-4.279 11.102-4.279 4.269-11.106 4.269H86.154Zm89.23-80q-23.057 0-39.221-16.164Q120 762.135 120 739.077V329.846q0-23.058 16.163-39.221 16.164-16.164 39.221-16.164h609.232q23.057 0 39.221 16.164Q840 306.788 840 329.846v409.231q0 23.058-16.163 39.221-16.164 16.164-39.221 16.164H175.384Z"/></svg>