<svg xmlns="http://www.w3.org/2000/svg" width="48" height="48" viewBox="0 -960 960 960"><path d="M450.461-70.769V-160H215.384q-23.057 0-39.221-16.163Q160-192.327 160-215.384v-529.232q0-23.057 16.163-39.221Q192.327-800 215.384-800h235.077v-89.231h30.77v818.462h-30.77ZM190.769-232h259.692v-304.692L190.769-232ZM552-160v-327.308L769.231-232v-512.616q0-9.23-7.692-16.923-7.693-7.692-16.923-7.692H552V-800h192.616q23.057 0 39.221 16.163Q800-767.673 800-744.616v529.232q0 23.057-16.163 39.221Q767.673-160 744.616-160H552Z"/></svg>