<svg xmlns="http://www.w3.org/2000/svg" width="48" height="48" viewBox="0 -960 960 960"><path d="M834.923-103.077 728-210q-18.692 13.923-39.795 20.423-21.103 6.5-43.59 6.5-54.615 0-93.461-38.893-38.846-38.894-38.846-93.577 0-54.684 38.893-93.415 38.894-38.73 93.577-38.73 54.684 0 93.415 38.846 38.73 38.846 38.73 93.461 0 22.154-5.73 44.308-5.731 22.154-21.962 39.077l107.692 106.923-22 22ZM644.269-213.846q42.5 0 72.193-29.346 29.692-29.345 29.692-71.846 0-42.5-29.346-72.193-29.345-29.692-71.846-29.692-42.5 0-72.193 29.346-29.692 29.345-29.692 71.846 0 42.5 29.346 72.193 29.345 29.692 71.846 29.692ZM800-518.462h-30.769v-226.154q0-9.23-7.692-16.923-7.693-7.692-16.923-7.692h-86.154v75.385H301.538v-75.385h-86.154q-9.23 0-16.923 7.692-7.692 7.693-7.692 16.923v529.232q0 9.23 7.692 16.923 7.693 7.692 16.923 7.692h218.462V-160H215.384q-23.5 0-39.442-15.942T160-215.384v-529.232q0-23.5 15.942-39.442T215.384-800h202q3.154-23.462 20.654-39.423 17.5-15.962 41.962-15.962 24.842 0 42.152 15.962 17.31 15.961 20.464 39.423h202q23.5 0 39.442 15.942T800-744.616v226.154ZM480.135-760q13.788 0 22.98-9.327 9.193-9.328 9.193-23.116t-9.328-22.98q-9.327-9.193-23.115-9.193-13.788 0-22.98 9.328-9.193 9.327-9.193 23.115 0 13.788 9.328 22.981Q466.347-760 480.135-760Z"/></svg>