<svg xmlns="http://www.w3.org/2000/svg" width="48" height="48" viewBox="0 -960 960 960"><path d="M784.62-200H175.38q-23.05 0-39.22-16.16Q120-232.33 120-255.38v-449.24q0-23.05 16.16-39.22Q152.33-760 175.38-760h389.24v30.77H175.38q-9.23 0-16.92 7.69-7.69 7.69-7.69 16.92v449.24q0 9.23 7.69 16.92 7.69 7.69 16.92 7.69h609.24q9.23 0 16.92-7.69 7.69-7.69 7.69-16.92v-280.08H840v280.08q0 23.05-16.16 39.22Q807.67-200 784.62-200ZM272.46-348.85h222.92v-69.69H272.46v69.69Zm0-192.38h222.92v-69.69H272.46v69.69Zm344.62 192.38h70.46v-186.61h-70.46v186.61ZM150.77-230.77v-498.46 498.46Zm578.46-378.46v-80h-80V-720h80v-80H760v80h80v30.77h-80v80h-30.77Z"/></svg>