<svg xmlns="http://www.w3.org/2000/svg" width="48" height="48" viewBox="0 -960 960 960"><path d="M831.154-227.923 537.077-522.769h272.154v-80.539H455.769L299.846-760h484.77q23.23 0 39.307 16.077T840-704.616v449.232q0 7.153-2.461 14.077-2.462 6.923-6.385 13.384ZM150.769-522.769h242.769l-81.308-80.539H150.769v80.539ZM842.231-74.077 715.538-200H175.384q-23.23 0-39.307-16.077T120-255.384v-449.232q0-23.23 16.077-39.307T175.384-760H200l30.769 30.769h-44.462L75.231-840.308l22.23-22.231L863.692-96.308l-21.461 22.231Z"/></svg>