<svg xmlns="http://www.w3.org/2000/svg" width="48" height="48" viewBox="0 -960 960 960"><path d="M215.384-160q-22.442 0-38.913-16.471Q160-192.942 160-215.384v-529.232q0-22.442 16.471-38.913Q192.942-800 215.384-800h529.232q22.442 0 38.913 16.471Q800-767.058 800-744.616v529.232q0 22.442-16.471 38.913Q767.058-160 744.616-160H215.384Zm450.078-30.769h79.154q10.769 0 17.692-6.923t6.923-17.692v-79.154L665.462-190.769Zm-452.231 0h106.154l120-120h43.307l-120 120h108.462l120-120h43.308l-120 120h107.692l120-120h27.077v-433.847q0-10.769-6.923-17.692t-17.692-6.923H215.384q-10.769 0-17.692 6.923t-6.923 17.692v533.001l99.154-99.154h43.308l-120 120Zm81.615-234.769-21.231-21.231 151.462-151.462 84.615 84.616 156.231-156.231 20.462 21.231-176.693 178.461-84.615-84.615-130.231 129.231ZM190.769-215.384v-553.847 578.462-24.615Z"/></svg>