<svg xmlns="http://www.w3.org/2000/svg" width="48" height="48" viewBox="0 -960 960 960"><path d="M295.615-160q-22.442 0-38.913-16.471-16.471-16.471-16.471-38.913v-518.462H200v-30.77h154.154v-26.154h251.692v26.154H760v30.77h-40.231v518.462q0 23.057-16.163 39.221Q687.443-160 664.385-160h-368.77ZM689-733.846H271v518.462q0 10.769 7.308 17.692 7.307 6.923 17.307 6.923h368.77q9.231 0 16.923-7.692Q689-206.154 689-215.384v-518.462ZM395.461-273.692h30.77v-378.231h-30.77v378.231Zm138.308 0h30.77v-378.231h-30.77v378.231ZM271-733.846v543.077-543.077Z"/></svg>