<svg xmlns="http://www.w3.org/2000/svg" width="48" height="48" viewBox="0 -960 960 960"><path d="m736.692-595.077 19.616-20.385-72.923-73.394v-113.836h-28.077v123.022l81.384 84.593ZM668.924-528q-64.975 0-110.642-45.662-45.667-45.663-45.667-111.501 0-64.729 45.646-109.783Q603.906-840 669.315-840q65.447 0 110.374 44.927 44.927 44.927 44.927 110.688 0 65.385-45.359 110.885T668.924-528ZM254.068-292q17.511 0 29.529-12.258t12.018-29.769q0-17.511-12.258-30.05-12.257-12.538-29.769-12.538-17.511 0-30.05 12.778Q211-351.059 211-333.547q0 17.511 12.778 29.529T254.068-292Zm292.344 0q17.511 0 30.05-12.258Q589-316.516 589-334.027t-12.778-30.05q-12.779-12.538-30.29-12.538t-29.529 12.778q-12.018 12.778-12.018 30.29 0 17.511 12.258 29.529T546.412-292ZM205.923-120q-7.16 0-12.003-4.003t-4.843-9.92V-211q-26.77-6.538-47.923-38.346Q120-281.154 120-315.615V-688q0-58.993 75.5-84.651 75.5-25.657 251.962-25.657-12.539 25.846-19.923 54.404-7.385 28.558-7.385 59.519 0 4 .384 7.654.385 3.654.616 7.346H150.769v203h390.692q28.847 15.077 61.154 22.962 32.308 7.885 66.371 7.885 2.783 0 5.241.051 2.458.051 5.773-.513v120.385q0 34.461-21.154 66.269-21.153 31.808-47.923 38.346v77.077q0 5.917-4.843 9.92T594.077-120h1q-8.258 0-13.052-4.003-4.794-4.003-4.794-9.92v-67.308H222.769v67.308q0 5.917-4.794 9.92T204.923-120h1Z"/></svg>