<svg xmlns="http://www.w3.org/2000/svg" width="48" height="48" viewBox="0 96 960 960"><path d="M817.616 958.77 599.923 741.846H314.154V456.077L101.846 243l22.231-21.462 715 715.001-21.461 22.231ZM190.769 896q-12.115-.231-21.442-9.201Q160 877.828 160 865.231h30.769V896ZM160 781.846v-81.461h30.769v81.461H160Zm0-165.615v-81.462h30.769v81.462H160Zm0-164.616v-81.461h30.769v81.461H160ZM274.154 896v-30.769h81.461V896h-81.461ZM296 286.769l-18-18V256h77.615v30.769H296Zm48.923 424.308h224.231L344.923 486.846v224.231Zm300.923-68.154-30.769-30.769V440.923H443.846l-30.769-30.769h232.769v232.769ZM439.769 896v-30.769h81.462V896h-81.462Zm0-609.231V256h81.462v30.769h-81.462ZM604.385 896v-30.769h81.461V896h-81.461Zm0-609.231V256h81.461v30.769h-81.461ZM787.231 778l-18-18v-59.615H800V778h-12.769Zm-18-161.769v-81.462H800v81.462h-30.769Zm0-172.308v-81.461H800v81.461h-30.769Zm0-157.154V256q12.115.231 21.442 9.201Q800 274.172 800 286.769h-30.769Z"/></svg>