<svg xmlns="http://www.w3.org/2000/svg" width="48" height="48" viewBox="0 96 960 960"><path d="m376 879.077-21.231-21.231 104-104-104-104L376 628.615l104 104 104-104 21.231 21.231-104 104 104 104L584 879.077l-104-104-104 104Zm-40.077-384.616h288.154q7.692 0 13.846-4.23 6.154-4.231 9.231-11.923l22.615-63.847H290.231l22.615 63.847q3.077 7.692 9.231 11.923 6.154 4.23 13.846 4.23Zm0 30.77q-17.192 0-31.789-10.087-14.596-10.086-20.596-26.529L257 414.461h-41.616q-22.442 0-38.913-16.471Q160 381.519 160 359.077v-86.154h640v86.154q0 22.692-16.471 39.038-16.471 16.346-38.913 16.346H703l-28.461 74.847q-6.164 15.711-20.415 25.817-14.252 10.106-31.97 10.106H335.923Z"/></svg>