<svg xmlns="http://www.w3.org/2000/svg" width="48" height="48" viewBox="0 -960 960 960"><path d="M270.77-110.77v-738.46 738.46Zm210.15-596.92q10.85 0 18.7-7.46 7.84-7.47 7.84-18.7t-7.85-18.69q-7.86-7.46-18.3-7.46-11.23 0-18.69 7.46-7.47 7.46-7.47 18.69t7.47 18.7q7.46 7.46 18.3 7.46ZM557-80H295.38q-22.44 0-38.91-16.47Q240-112.94 240-135.38v-689.24q0-23.05 16.16-39.22Q272.33-880 295.38-880h371.08q23.04 0 39.21 16.47 16.18 16.47 16.18 38.91v266.16h-30.77v-266.16q0-10.76-6.93-17.69-6.92-6.92-17.69-6.92H295.38q-10.76 0-17.69 6.92-6.92 6.93-6.92 17.69v689.24q0 10.76 6.92 17.69 6.93 6.92 17.69 6.92h258.85q-.08-1.08-.67-1.41-.59-.33-1.18-1.67L557-80Zm86.38 0-10.07-81.15q-29.54-18.39-46.81-49.2-17.27-30.8-17.27-65.8t17.27-65.81q17.27-30.81 46.81-49.19l10.07-81.16h122.47l10.07 81.16q29.54 18.38 46.81 49.19Q840-311.15 840-276.15t-17.27 65.8q-17.27 30.81-46.81 49.2L765.85-80H643.38Zm61.06-91.54q43.87 0 74.33-30.29 30.46-30.28 30.46-74.15 0-43.87-30.29-74.33t-74.15-30.46q-43.87 0-74.33 30.29T600-276.33q0 43.87 30.29 74.33t74.15 30.46Z"/></svg>