<svg xmlns="http://www.w3.org/2000/svg" width="48" height="48" viewBox="0 -960 960 960"><path d="M515.384-542.923h30.77v-81.692h81.692v-30.77h-81.692v-81.692h-30.77v81.692h-81.692v30.77h81.692v81.692Zm-81.692 158.308h194.154v-30.77H433.692v30.77ZM316.923-221.538q-23.058 0-39.221-16.164-16.164-16.163-16.164-39.221v-547.693q0-23.057 16.164-39.221Q293.865-880 316.923-880h306.462L800-703.385v426.462q0 23.058-16.163 39.221-16.164 16.164-39.221 16.164H316.923Zm0-30.769h427.693q9.23 0 16.923-7.693 7.692-7.692 7.692-16.923v-413.538L608-849.231H316.923q-9.231 0-16.923 7.692-7.693 7.693-7.693 16.923v547.693q0 9.231 7.693 16.923 7.692 7.693 16.923 7.693ZM175.384-80q-23.057 0-39.221-16.163Q120-112.327 120-135.384v-522.847h30.769v522.847q0 9.23 7.692 16.923 7.693 7.692 16.923 7.692h401.847v30.77H175.384Zm116.923-172.307v-596.924 596.924Z"/></svg>