<svg xmlns="http://www.w3.org/2000/svg" width="48" height="48" viewBox="0 -960 960 960"><path d="M20-60v-784.615q0-22.443 16.471-38.914T75.385-900h280q22.442 0 38.913 16.471 16.471 16.471 16.471 38.914V-60H380v-84.615H50.77V-60H20Zm598.077 0v-226.846l88.154-83.769-33.846-177q-41.154 67.923-83.77 91.923-42.615 24-96.307 29.307v-30.769q56.769-4.615 86.461-25.808 29.693-21.192 54.154-60.884l40.539-65.846q14.863-21.909 37.2-26.339 22.338-4.431 47.338 5.8l182 75.616v146.846h-31v-126.077l-135.846-58.308L890.923-60h-31.231l-82.077-305.692-128.769 121.846V-60h-30.769ZM50.769-175.385H380v-669.23q0-10.77-6.923-17.693-6.923-6.923-17.692-6.923h-280q-10.77 0-17.693 6.923-6.923 6.923-6.923 17.693v669.23Zm111.923-276.692L281.538-520l-118.846-67.923v135.846ZM681.31-694q-27.772 0-46.195-18.694-18.423-18.694-18.423-45.731 0-27.037 18.344-45.844 18.343-18.808 45.73-18.808 27.388 0 46.196 18.694 18.807 18.694 18.807 45.731 0 27.037-18.704 45.844Q708.361-694 681.31-694ZM50.77-175.385H380 50.77Z"/></svg>