<svg xmlns="http://www.w3.org/2000/svg" width="48" height="48" viewBox="0 96 960 960"><path d="M340 676h30.769V551.385h200.154v64.231L651.539 536l-80.616-81.385v66H367.692q-11.769 0-19.731 7.873Q340 536.361 340 548v128Zm140.127 250.693q-10.589 0-20.907-4t-18.374-12L145.307 615.154q-8-7.968-12-18.203-4-10.236-4-20.824 0-10.589 4-20.907t12-18.374l295.539-295.539q7.968-8 18.203-12 10.236-4 20.824-4 10.589 0 20.907 4t18.374 12l295.539 295.539q8 7.968 12 18.203 4 10.236 4 20.824 0 10.589-4 20.907t-12 18.374L519.154 910.693q-7.968 8-18.203 12-10.236 4-20.824 4ZM314.154 741.846 463.077 890Q470 896.923 480 896.923q10 0 16.923-6.923L794 592.923Q800.923 586 800.923 576q0-10-6.923-16.923L496.923 262Q490 255.077 480 255.077q-10 0-16.923 6.923L166 559.077Q159.077 566 159.077 576q0 10 6.923 16.923l148.154 148.923ZM480 576Z"/></svg>