<svg xmlns="http://www.w3.org/2000/svg" width="48" height="48" viewBox="0 96 960 960"><path d="M480 642.615ZM187.538 814.462 131.23 608.231q-2.461-9.693 1.5-18.885 3.962-9.192 12.116-11.654L200 558.461V366.769q0-23.462 15.961-39.308 15.962-15.846 39.423-16.077h149.231v-120h150.77v120h149.231q23.211 0 39.298 16.087Q760 343.557 760 366.769v191.923l55.385 19q8.692 2.462 14.192 11.154T831.846 608l-59.384 206.462Q736.769 801 707.755 778.154q-29.013-22.846-67.524-65.077Q605.154 756 567.688 786 530.222 816 480 816t-87.688-30q-37.466-30-72.543-72.923-37.742 42.231-67.14 65.077-29.398 22.846-65.091 36.308ZM100 976v-30.769h60q42 0 83-13.192 41-13.193 77-37.577 36 24.769 77 36.769t83 12q42 0 83-12t77-36.769q36 24.384 77 37.577 41 13.192 83 13.192h60V976h-60q-41.769 0-81.769-10.115-40-10.116-78.231-30.116-38.231 20-79.231 30.116Q519.769 976 480 976q-39.769 0-80.769-10.115-41-10.116-79.231-30.116-38.231 20-78.185 30.116Q201.861 976 159.909 976h-59.91Zm130.769-428.077L480 467l249.231 81.154V366.769q0-10.769-6.923-17.692t-17.692-6.923H255.384q-10.769 0-17.692 6.923t-6.923 17.692v181.154Zm249.116 237.308q48.807 0 84.192-36 35.385-36 75.923-84.077 36.538 43.846 60.115 66.961 23.577 23.116 53.424 39.5l47.153-166.692L480 500 159.077 604.923l47.384 166.231q29.616-15.923 53.424-38.654 23.807-22.731 60.115-67.346 40.769 48.308 75.923 84.192 35.154 35.885 83.962 35.885Z"/></svg>