<svg xmlns="http://www.w3.org/2000/svg" width="48" height="48" viewBox="0 96 960 960"><path d="M850.692 991.154 645.077 785.539 519.154 910.693q-7.968 8-18.203 12-10.236 4-20.824 4-10.589 0-20.907-4t-18.374-12L145.307 615.154q-8-7.968-12-18.203-4-10.236-4-20.824 0-10.589 4-20.907t12-18.374l125.154-125.923-195.23-195.231 22.23-22.231 775.462 775.462-22.231 22.231ZM623.615 764.077 291.923 432.385 166 559.077Q159.077 566 159.077 576q0 10 6.923 16.923L463.077 890Q470 896.923 480 896.923q10 0 16.923-6.923l126.692-125.923Zm92.847-50.692L695 691.923l99-99Q800.923 586 800.923 576q0-10-6.923-16.923L496.923 262Q490 255.077 480 255.077q-10 0-16.923 6.923l-99 99-21.462-21.462 98.231-98.231q7.968-8 18.203-12 10.236-4 20.824-4 10.589 0 20.907 4t18.374 12l295.539 295.539q8 7.968 12 18.203 4 10.236 4 20.824 0 10.589-4 20.907t-12 18.374l-98.231 98.231ZM529.923 526.077Zm-72.154 72.154ZM340 676V547.986q0-11.64 7.961-19.505 7.962-7.866 19.731-7.866h56.923l30.77 30.77h-84.616V676H340Zm255.308-84.538L651.539 536l-80.616-81.385v66h-47.231l71.616 70.847Z"/></svg>