<svg xmlns="http://www.w3.org/2000/svg" width="48" height="48" viewBox="0 -960 960 960"><path d="M340-380h30.769v-124.615h200.154v64.231L651.539-520l-80.616-81.385v66H367.692q-11.769 0-19.731 7.873Q340-519.639 340-508v128Zm140.127 250.693q-10.589 0-20.907-4t-18.374-12L145.307-440.846q-8-7.968-12-18.203-4-10.236-4-20.824 0-10.589 4-20.907t12-18.374l295.539-295.539q7.968-8 18.203-12 10.236-4 20.824-4 10.589 0 20.907 4t18.374 12l295.539 295.539q8 7.968 12 18.203 4 10.236 4 20.824 0 10.589-4 20.907t-12 18.374L519.154-145.307q-7.968 8-18.203 12-10.236 4-20.824 4ZM314.154-314.154 463.077-166Q470-159.077 480-159.077q10 0 16.923-6.923L794-463.077Q800.923-470 800.923-480q0-10-6.923-16.923L496.923-794Q490-800.923 480-800.923q-10 0-16.923 6.923L166-496.923Q159.077-490 159.077-480q0 10 6.923 16.923l148.154 148.923ZM480-480Z"/></svg>