<svg xmlns="http://www.w3.org/2000/svg" width="48" height="48" viewBox="0 96 960 960"><path d="M320.189 362.154q10.503 0 18.234-7.92 7.731-7.92 7.731-18.423 0-10.503-7.92-18.234-7.92-7.731-18.423-7.731-10.503 0-18.234 7.92-7.731 7.92-7.731 18.423 0 10.503 7.92 18.234 7.92 7.731 18.423 7.731Zm120 0q10.503 0 18.234-7.92 7.731-7.92 7.731-18.423 0-10.503-7.92-18.234-7.92-7.731-18.423-7.731-10.503 0-18.234 7.92-7.731 7.92-7.731 18.423 0 10.503 7.92 18.234 7.92 7.731 18.423 7.731Zm39.757 429.231q52.9 0 90.169-35.821 37.27-35.82 37.27-87.325 0-25.162-8.577-47.739-8.577-22.577-26.269-39.5L480 488.461l-89.508 89.508Q373 596.231 362.308 619.335q-10.693 23.104-9.693 48.435 1.231 52.076 38.318 87.845 37.086 35.77 89.013 35.77Zm.217-27.77q-40.317 0-68.548-27.74-28.23-27.74-28.23-68.138 0-19.045 7.23-36.199 7.231-17.153 21-30.692L480 532.692l73.154 72.923q12.538 11.77 18 28.285 5.461 16.515 5.461 34.1 0 40.288-28.068 67.952-28.067 27.663-68.384 27.663ZM255.384 936q-23.057 0-39.221-16.163Q200 903.673 200 880.616V271.384q0-23.057 16.163-39.221Q232.327 216 255.384 216h449.232q23.057 0 39.221 16.163Q760 248.327 760 271.384v609.232q0 23.057-16.163 39.221Q727.673 936 704.616 936H255.384Zm0-30.769h449.232q9.23 0 16.923-7.692 7.692-7.693 7.692-16.923V271.384q0-9.23-7.692-16.923-7.693-7.692-16.923-7.692H255.384q-9.23 0-16.923 7.692-7.692 7.693-7.692 16.923v609.232q0 9.23 7.692 16.923 7.693 7.692 16.923 7.692Zm-24.615 0V246.769v658.462Z"/></svg>