<svg xmlns="http://www.w3.org/2000/svg" width="48" height="48" viewBox="0 96 960 960"><path d="M150.769 905.231V606.769v298.462Zm658.462 0V606.769v298.462Zm-49.258-440q20.912 0 35.085-14.147 14.173-14.146 14.173-35.057 0-20.912-14.146-35.085-14.146-14.173-35.058-14.173t-35.085 14.146q-14.173 14.146-14.173 35.058 0 20.911 14.146 35.084 14.146 14.174 35.058 14.174ZM759.946 496q-34.023 0-56.985-22.948Q680 450.104 680 416.181q0-33.258 22.948-56.72Q725.896 336 759.819 336q33.258 0 56.72 23.349Q840 382.698 840 416.054q0 34.023-23.349 56.984Q793.302 496 759.946 496Zm-279.88-70.769q28.319 0 48.742-19.924 20.423-19.923 20.423-49.374 0-28.318-20.203-48.741t-49.064-20.423q-29.349 0-49.272 20.203-19.923 20.202-19.923 49.064 0 29.348 19.923 49.271 19.923 19.924 49.374 19.924Zm-.02 30.769q-42.123 0-71.085-28.857Q380 398.287 380 356.248q0-41.325 28.856-70.787Q437.713 256 479.751 256q41.326 0 70.788 29.272Q580 314.544 580 355.953q0 42.124-29.272 71.085Q521.456 456 480.046 456ZM289.231 631q0 37.713 35.346 83.895 35.346 46.182 140.808 141.643L480 869.615l16.154-15.384q99.423-90.028 137.019-137.338 37.596-47.311 37.596-85.893 0-36.503-23.876-61.136-23.875-24.633-58.893-24.633-20.746 0-38.719 9.769-17.973 9.769-32.742 24.077l-39.616 42.769h6.154l-40.616-42.769Q427.692 564.769 409.885 555q-17.808-9.769-37.911-9.769-35.566 0-59.154 24.622-23.589 24.623-23.589 61.147Zm-30.77 0q0-45.308 35-80.923 35-35.616 78.539-35.616 28.191 0 53.737 14 25.547 14 43.885 36.462l10 11.538 10-12.307q19.107-21.693 44.397-35.693 25.289-14 53.981-14 42.539 0 78.039 35.71 35.5 35.709 35.5 80.829 0 46.846-36.577 95.654t-142.5 145.5L480 911.385l-40.923-36.923q-109.462-100.77-145.039-148.308-35.577-47.539-35.577-95.154Zm-58.488-165.769q20.912 0 35.085-14.147 14.173-14.146 14.173-35.057 0-20.912-14.146-35.085-14.146-14.173-35.058-14.173t-35.085 14.146q-14.173 14.146-14.173 35.058 0 20.911 14.146 35.084 14.146 14.174 35.058 14.174ZM483 936v-30.769h326.231V631.384q0-10-7.308-17.307-7.307-7.308-17.307-7.308H683.385V576h101.231q22.25 0 38.817 16.567T840 631.384V936H483Zm-332.231-30.769H483V936H120V631.596q0-22.654 16.288-39.125Q152.577 576 175.384 576h101.001v30.769H175.384q-10.769 0-17.692 7.308-6.923 7.307-6.923 17.307v273.847ZM199.946 496q-34.023 0-56.985-22.948Q120 450.104 120 416.181q0-33.258 22.948-56.72Q165.896 336 199.819 336q33.258 0 56.72 23.349Q280 382.698 280 416.054q0 34.023-23.349 56.984Q233.302 496 199.946 496ZM480 356Zm-280 60Zm560 0Z"/></svg>