<svg xmlns="http://www.w3.org/2000/svg" width="48" height="48"><path d="m42.25 44.75-8.5-8.55v.15q-.2 1.4-1.3 2.325-1.1.925-2.55.925h-7.85q-.85 0-1.65-.325-.8-.325-1.35-.975L8.15 26.8l1.3-1.2q.2-.15.475-.175.275-.025.525.075l5.8 3.3V18.75L4.1 6.65 5.2 5.5l38.1 38.15zM22.1 38.1h7.8q.95.05 1.625-.575T32.35 36v-1.15l-14.6-14.6v10.1H13.6l6.45 6.85q.4.45.925.675.525.225 1.125.225zm12-8.7-1.55-1.55V24.4h-3.5l-3.6-3.6h1.1v-12q0-.5.325-.85t.825-.35q.55 0 .875.35.325.35.325.85v13.7l.35.35h2.45V12.2q0-.5.325-.85t.825-.35q.55 0 .9.35t.35.85zM23.75 19.1l-2.35-2.4V7.1q0-.5.325-.85t.825-.35q.55 0 .875.35.325.35.325.85zm-5.15-5.15-2.35-2.4v-1.2q0-.45.325-.75t.825-.3q.55 0 .875.35.325.35.325.85zM29.05 24.4zm-4 3.15z"/></svg>