<svg xmlns="http://www.w3.org/2000/svg" width="48" height="48" viewBox="0 96 960 960"><path d="M845.231 990.769 674.924 820.462v2.308q-3.462 28.154-25.577 46.846-22.116 18.692-50.885 18.692H441.308q-17.616 0-33.244-6.753-15.627-6.753-27.526-19.785L163.23 631.769l25.924-23.923q3.384-3.154 9.153-3.654 5.77-.5 11.154 2.193l115.154 65.461V471.154L82.154 228.692l22-22.23 762.307 762.307-21.23 22Zm-403.693-133.23h156.924q18.308 1.538 32.115-11.116 13.808-12.653 16.731-30.499v-23.077L355.385 500.923v202h-83.539L401 839.77q8 8.769 18.323 13.269t22.215 4.5Zm240.001-173.307-30.769-30.77v-69.77H581l-71.538-71.538h21.307v-240q0-9.924 6.501-16.885 6.5-6.962 17.139-6.962 10.284 0 17.168 6.962 6.885 6.961 6.885 16.885V546l6.923 6.923h48.462V339.846q0-9.923 6.5-16.885 6.5-6.961 17.14-6.961 10.283 0 17.167 6.961 6.885 6.962 6.885 16.885v344.386ZM475.385 478.077l-47.693-47.692V238.307q0-9.923 6.5-16.884 6.5-6.962 17.14-6.962 10.284 0 17.168 6.962 6.885 6.961 6.885 16.884v239.77ZM372.308 375l-47.693-47.692V303q0-9.077 6.794-14.962 6.794-5.884 16.962-5.884 10.167 0 17.052 6.961 6.885 6.962 6.885 16.885v69ZM581 583.692Zm-80.154 63.462Z"/></svg>