<svg xmlns="http://www.w3.org/2000/svg" width="48" height="48" viewBox="0 -960 960 960"><path d="M340-104.615v-30.769h280v30.769H340Zm-13.846-101.539q-23.058 0-39.222-16.163-16.163-16.164-16.163-39.221v-547.693q0-23.058 16.163-39.221 16.164-16.164 39.222-16.164h307.692q23.058 0 39.222 16.164 16.163 16.163 16.163 39.221v547.693q0 23.057-16.163 39.221-16.164 16.163-39.222 16.163H326.154Zm-24.616-100v44.616q0 9.231 7.693 16.923 7.692 7.692 16.923 7.692h307.692q9.231 0 16.923-7.692 7.693-7.692 7.693-16.923v-44.616H301.538Zm0-30.769h356.924v-396.923H301.538v396.923Zm0-427.693h356.924v-44.615q0-9.231-7.693-16.923-7.692-7.692-16.923-7.692H326.154q-9.231 0-16.923 7.692-7.693 7.692-7.693 16.923v44.615Zm0 0v-69.23 69.23Zm0 458.462v69.231-69.231Z"/></svg>