<svg xmlns="http://www.w3.org/2000/svg" width="48" height="48" viewBox="0 -960 960 960"><path d="M295.384-120q-22.25 0-38.817-16.567T240-175.384v-609.232q0-22.25 16.567-38.817T295.384-840h369.232q22.25 0 38.817 16.567T720-784.616v609.232q0 22.25-16.567 38.817T664.616-120H295.384ZM480-436.923q13.038 0 21.135-8.096 8.096-8.096 8.096-21.135h-58.462q0 13.231 8.096 21.231 8.097 8 21.135 8Zm-135.385-53.846h270.77v-26.154h-38.462v-78.053q0-38.178-17.577-65.601-17.577-27.423-53.464-37.775v-11.582q0-11.096-7.575-18.12-7.575-7.023-18.307-7.023t-18.307 6.969q-7.575 6.969-7.575 17.98v11.51q-35.887 12.849-53.464 39.31-17.577 26.462-17.577 64.539v77.846h-38.462v26.154ZM480-220q31.096 0 53.24-22.144 22.145-22.144 22.145-53.241 0-31.096-22.145-53.24-22.144-22.144-53.24-22.144-31.096 0-53.24 22.144-22.145 22.144-22.145 53.24 0 31.097 22.145 53.241Q448.904-220 480-220Zm0-26.154q-20 0-34.615-14.615-14.616-14.616-14.616-35.116 0-19.73 14.616-34.23 14.615-14.5 35.115-14.5 19.731 0 34.231 14.375t14.5 34.855q0 20-14.375 34.616-14.375 14.615-34.856 14.615Z"/></svg>