<svg xmlns="http://www.w3.org/2000/svg" width="48" height="48" viewBox="0 -960 960 960"><path d="M357.258-190.769q-18.566 0-32.527-14.097-13.962-14.097-13.962-32.731t14.083-32.595q14.084-13.962 32.698-13.962 18.45 0 32.527 14.097 14.077 14.097 14.077 32.731t-14.165 32.595q-14.166 13.962-32.731 13.962Zm244.846 0q-18.566 0-32.527-14.097-13.962-14.097-13.962-32.731t14.083-32.595q14.084-13.962 32.698-13.962 18.45 0 32.527 14.097Q649-255.96 649-237.326t-14.165 32.595q-14.166 13.962-32.731 13.962ZM357.258-433.307q-18.566 0-32.527-13.82-13.962-13.819-13.962-32.962 0-18.614 14.083-32.609 14.084-13.995 32.698-13.995 18.45 0 32.527 14.084 14.077 14.083 14.077 32.698 0 19.142-14.165 32.873-14.166 13.731-32.731 13.731Zm244.846 0q-18.566 0-32.527-13.82-13.962-13.819-13.962-32.962 0-18.614 14.083-32.609 14.084-13.995 32.698-13.995 18.45 0 32.527 14.084Q649-498.526 649-479.911q0 19.142-14.165 32.873-14.166 13.731-32.731 13.731ZM357.258-675.846q-18.566 0-32.527-14.097-13.962-14.097-13.962-32.731t14.083-32.595q14.084-13.962 32.698-13.962 18.45 0 32.527 14.097 14.077 14.097 14.077 32.731t-14.165 32.595q-14.166 13.962-32.731 13.962Zm244.846 0q-18.566 0-32.527-14.097-13.962-14.097-13.962-32.731t14.083-32.595q14.084-13.962 32.698-13.962 18.45 0 32.527 14.097Q649-741.037 649-722.403t-14.165 32.595q-14.166 13.962-32.731 13.962Z"/></svg>