<svg xmlns="http://www.w3.org/2000/svg" width="48" height="48" viewBox="0 -960 960 960"><path d="M160-160v-124.15l360.08-360.08-78.93-78.92 21-21 99.7 98.92 147.38-147.39q3.27-3.25 7.44-5.2 4.18-1.95 8.07-1.95 3.9 0 8.16 1.85 4.25 1.84 8.72 5.3l51 51.77q3.25 3.7 5.2 7.77 1.95 4.08 1.95 8.16 0 4.07-1.95 8.25-1.95 4.17-5.2 7.44L644.46-560.31l79.69 80.46-21 21-163.53-163.92-348.85 348.08v83.92h101.77q5.69 8.54 10.46 16.12 4.77 7.57 11.15 14.65H160Zm450.21 80q-71.06 0-131.75-36.54t-97.23-97.31q36.54-60.77 97.25-97.3 60.71-36.54 131.77-36.54 71.83 0 132.13 36.54 60.31 36.53 97.62 97.3-36.08 61.77-97.02 97.81T610.21-80Zm47.1-86.75q19.07-19.05 19.07-47.07 0-28.03-19.05-47.1Q638.27-280 610.64-280q-27.64 0-47.1 19.06-19.46 19.05-19.46 47.07t19.44 47.1q19.44 19.08 47.07 19.08 27.64 0 46.72-19.06Zm-72.19-21.89q-10.27-10.18-10.27-25.12 0-14.93 10.17-25.2 10.18-10.27 25.5-10.27 15.33 0 25.21 10.18 9.89 10.18 9.89 25.11 0 14.94-9.8 25.21-9.79 10.27-25.11 10.27-15.33 0-25.59-10.18Z"/></svg>