<svg xmlns="http://www.w3.org/2000/svg" width="48" height="48" viewBox="0 -960 960 960"><path d="M485.846-564.384v-21.385l211.539-212.308 22.154 22.154-212.308 211.539h-21.385Zm263.385-242.001-22.154-21.385 23.077-23.076q5.385-5.385 10.154-6.924 4.769-1.538 10.154 3.847l4.923 4.923q4.615 5.384 3.077 10.038-1.539 4.654-6.154 10.27l-23.077 22.307ZM480-95.385Q328.231-230.077 254.115-345.269 180-460.461 180-552q0-140.769 90.731-224.385Q361.461-860 480-860q38.231 0 74.846 9 36.616 9 69.846 26L415.077-615.385v121.77h120.769l208.616-208.616q17.769 33 26.653 70.116Q780-595 780-552q0 91.539-74.115 206.731Q631.769-230.077 480-95.384Z"/></svg>