<svg xmlns="http://www.w3.org/2000/svg" width="48" height="48" viewBox="0 -960 960 960"><path d="M215.384-120q-23.057 0-39.221-16.163Q160-152.327 160-175.384v-538.462q0-23.058 16.163-39.222 16.164-16.163 39.221-16.163h82.693v-80h35.769v80h295.385v-80h33.462v80h81.923q23.057 0 39.221 16.163Q800-736.904 800-713.846v227.692h-30.769V-540H190.769v364.616q0 9.23 7.692 16.923 7.693 7.692 16.923 7.692h267.693V-120H215.384Zm353.847 0v-88.385l213.307-212.307q5.924-5.154 12.308-7.616 6.385-2.461 12.769-2.461 6.616 0 13.385 2.577t11.923 7.73l37 37.77q5.154 5.923 7.616 12.307Q880-364 880-357.615q0 6.384-2.577 12.884t-7.73 12.424L657.616-120h-88.385Zm238.384-199.385 37-38.23-37-37.77-38 38 38 38Z"/></svg>