<svg xmlns="http://www.w3.org/2000/svg" width="48" height="48" viewBox="0 -960 960 960"><path d="M255.384-120q-23.23 0-39.307-16.077T200-175.384v-609.232q0-23.23 16.077-39.307T255.384-840H580l180 180v146.615q-17 1.462-32.615 9.962-15.616 8.5-28.616 20.731L460-244.154V-120H255.384Zm290.77 0v-88.385l213.308-212.307q5.923-5.154 12.307-7.616 6.385-2.461 12.77-2.461 6.615 0 13.384 2.577 6.77 2.577 11.923 7.73l37 37.77q5.154 5.923 7.616 12.307 2.461 6.385 2.461 12.77 0 6.384-2.961 12.884-2.962 6.5-7.346 12.424L634.539-120h-88.385Zm238.385-199.385 37-38.23-37-37.77-38 38 38 38ZM560-640h169.231L560-809.231 729.231-640 560-809.231V-640Z"/></svg>