<svg xmlns="http://www.w3.org/2000/svg" width="48" height="48" viewBox="0 96 960 960"><path d="M479.062 896.769q-100.677 0-170.639-71.884Q238.461 753 238.461 650.381q0-67.535 22.039-137.458Q282.538 443 317.654 385.654q35.115-57.347 77.839-93.885 42.723-36.538 83.738-36.538 41.308 0 84.049 36.1 42.742 36.101 77.713 93.411 34.97 57.311 56.989 127.707Q720 582.846 720 650.381 720 753 649.87 824.885q-70.13 71.884-170.808 71.884Zm34.399-120.23q4.577 0 7.674-3.104 3.096-3.104 3.096-7.693 0-5.396-3.096-8.069-3.097-2.673-7.674-2.673-62.82 0-106.025-43.526-43.205-43.525-43.205-105.705 0-5.384-3.104-8.077-3.104-2.692-7.692-2.692-5.397 0-8.07 2.692-2.673 2.693-2.673 8.077 0 70.87 49.95 120.82 49.95 49.95 120.819 49.95Z"/></svg>