<svg xmlns="http://www.w3.org/2000/svg" width="48" height="48" viewBox="0 -960 960 960"><path d="M190.769-401.692v66.308q0 6.538-4.423 10.961T175.385-320h-.001q-6.538 0-10.961-4.423T160-335.384v-295.539l79.615-233.693q2.231-7.846 8.908-11.615T263.385-880h436.307q7.591 0 13.054 4.038 5.463 4.039 7.639 11.346L800-630.923v295.539q0 6.538-4.423 10.961T784.616-320h-.231q-6.539 0-10.962-4.423T769-335.384v-66.308H190.769ZM203-661.693h554l-65-187.538H268l-65 187.538Zm-12.231 30.77v198.462-198.462Zm99.656 141.538q17.806 0 29.844-12.469 12.039-12.469 12.039-29.788 0-18.153-12.47-30.255Q307.369-574 290.299-574q-17.904 0-30.255 12.215-12.352 12.215-12.352 30.269 0 18.055 12.464 30.093t30.269 12.038Zm380.05 0q17.677 0 29.87-12.469 12.194-12.469 12.194-29.788 0-18.153-12.306-30.255Q687.928-574 670.348-574q-17.579 0-30.002 12.215-12.423 12.215-12.423 30.269 0 18.055 12.854 30.093t29.698 12.038ZM512.923-53.846 315.846-155.692h129.539v-67.539l198.769 100.154H512.923v69.23ZM190.769-432.461h578.462v-198.462H190.769v198.462Z"/></svg>