<svg xmlns="http://www.w3.org/2000/svg" width="48" height="48" viewBox="0 -960 960 960"><path d="M480-125.615q-10.231 0-20.012-4.201-9.782-4.2-18.142-12.03l-300-300q-7.83-8.36-12.03-18.142-4.201-9.781-4.201-20.012t4.05-20.034q4.05-9.803 12.181-18.889l300-299.231q8.36-8.402 18.142-12.316 9.781-3.915 20.012-3.915t20.034 4.065q9.803 4.065 18.889 12.166l299.231 299.231q8.101 9.086 12.166 18.705 4.065 9.619 4.065 20.218 0 10.231-3.915 20.012-3.914 9.782-12.316 18.142l-299.231 300q-9.086 8.131-18.705 12.181-9.619 4.05-20.218 4.05Zm-15.385-307.462h30.77v-209.231h-30.77v209.231ZM480-348.461q8.538 0 14.269-5.731T500-368.461q0-8.539-5.731-14.27T480-388.462q-8.538 0-14.269 5.731T460-368.461q0 8.538 5.731 14.269T480-348.461Z"/></svg>