<svg xmlns="http://www.w3.org/2000/svg" width="48" height="48" viewBox="0 96 960 960"><path d="M464.615 837.462h30.77V710.154h127.307v-30.769H495.385V552.846h-30.77v126.539H338.077v30.769h126.538v127.308ZM255.384 936q-22.25 0-38.817-16.567T200 880.616V514.307q0-22.846 16.567-39.115 16.567-16.269 38.817-16.269h69.231v-87.539q0-64.931 45.273-110.157Q415.161 216 480.158 216q64.996 0 110.111 45.227 45.116 45.226 45.116 110.157v87.539h69.231q22.25 0 38.817 16.269T760 514.307v366.309q0 22.25-16.567 38.817T704.616 936H255.384Zm0-30.769h449.232q10.769 0 17.692-6.923t6.923-17.692V514.307q0-10.769-6.923-17.692t-17.692-6.923H255.384q-10.769 0-17.692 6.923t-6.923 17.692v366.309q0 10.769 6.923 17.692t17.692 6.923Zm100.001-446.308h249.23v-87.539q0-51.923-36.298-88.269-36.299-36.346-88.154-36.346t-88.317 36.346q-36.461 36.346-36.461 88.269v87.539ZM230.769 905.231V489.692v415.539Z"/></svg>