<svg xmlns="http://www.w3.org/2000/svg" width="48" height="48" viewBox="0 -960 960 960"><path d="M180-147.692v-190.77h600v190.77h-30.769v-160H210.769v160H180Zm15.312-270.769q-14.774 0-25.043-10.342T160-453.919q0-14.773 10.341-25.043 10.342-10.269 25.116-10.269t25.043 10.342q10.269 10.341 10.269 25.115t-10.341 25.043q-10.342 10.27-25.116 10.27Zm115.457 0v-333.847q0-22.25 16.567-38.817 16.568-16.568 38.818-16.568h227.692q22.25 0 38.818 16.568 16.567 16.567 16.567 38.817v333.847H310.769Zm453.774 0q-14.774 0-25.043-10.342t-10.269-25.116q0-14.773 10.342-25.043 10.341-10.269 25.115-10.269t25.043 10.342Q800-468.548 800-453.774t-10.341 25.043q-10.342 10.27-25.116 10.27Z"/></svg>