<svg xmlns="http://www.w3.org/2000/svg" width="48" height="48" viewBox="0 -960 960 960"><path d="M521.692-241.538v-39.231l178.539-182.539q35.538-36.538 52.192-63.231 16.654-26.692 16.654-57.692 0-47.384-29.616-74.961-29.615-27.577-78.23-27.577-36.462 0-64.462 15.807-28 15.808-43.077 45.5L524-638.923q20.769-39.231 55.5-59.385 34.731-20.154 81.731-20.154 62.538 0 100.884 38 38.347 38 38.347 96.231 0 36.385-18.231 68.231-18.231 31.846-57.077 72.231l-166 169.231.461 2.23h262.693v30.77H521.692Zm-144-187.693h-240V-460h240v30.769Z"/></svg>