<svg xmlns="http://www.w3.org/2000/svg" width="48" height="48" viewBox="0 -960 960 960"><path d="m764.62-295.23-474-474h59.69q6.23-43.62 37.46-73.92 31.23-30.31 74.31-30.31 42.07 0 73.69 30.31 31.61 30.3 38.08 73.92h137.46q22.31 0 37.81 15.5 15.5 15.5 15.5 38.58v145.46q34.92 11.07 55.88 39.88 20.96 28.81 20.96 68.73 0 38.39-20.96 66.93-20.96 28.53-55.88 40.92v58Zm67.15 210.69L84.54-831.77l22.23-21.46 746.46 746.46-21.46 22.23Zm-618.46-70.84q-21.31 0-37.31-16.39-16-16.38-16-38.69v-122.08q49.69-3.77 82.23-40.15 32.54-36.39 32.54-88.39 0-48.15-32.92-86.57-32.93-38.43-81.62-43.5v-185.77L780-155.38H213.31Z"/></svg>