<svg xmlns="http://www.w3.org/2000/svg" width="48" height="48" viewBox="0 -960 960 960"><path d="M320.5-322.19q-15.12-15.34-15.12-36.97 0-21.64 15.35-36.36 15.34-14.71 36.97-14.71 21.64 0 36.35 14.94 14.72 14.94 14.72 36.58 0 21.63-14.94 36.75-14.94 15.11-36.58 15.11-21.63 0-36.75-15.34Zm246.08 0q-15.12-15.34-15.12-36.97 0-21.64 15.34-36.36 15.34-14.71 36.98-14.71 21.64 0 36.35 14.94 14.72 14.94 14.72 36.58 0 21.63-14.94 36.75-14.94 15.11-36.58 15.11t-36.75-15.34ZM479.93-70.77q137.83 0 233.57-95.83 95.73-95.83 95.73-233.9 0-24.73-3.61-48.19-3.62-23.46-10.04-44.46-21.12 5-42.84 7.38-21.72 2.39-46.27 2.39-93.43 0-177.18-39.62T386.85-634.31q-32.47 78.69-94.04 138.04-61.58 59.35-142.04 89.94v6.33q0 137.87 95.66 233.55t233.5 95.68Zm-140.21 2.42Q273.99-96.7 225.36-145.3q-48.63-48.6-76.99-114.3Q120-325.3 120-400q0-15.77 1.31-31.27t4.69-29.96q-46.85-25.23-74.88-71.41-28.04-46.17-28.04-102.21 0-83 58-141t141-58q50.7 0 93.27 23.58 42.57 23.58 69.57 63.19 22.93-6.46 46.84-9.69Q455.67-760 480-760q74.7 0 140.4 28.34t114.3 76.92q48.6 48.58 76.95 114.26Q840-474.81 840-400.13q0 74.67-28.34 140.41-28.34 65.73-76.92 114.36-48.58 48.63-114.26 76.99Q554.81-40 480.13-40q-74.67 0-140.41-28.35Z"/></svg>