<svg xmlns="http://www.w3.org/2000/svg" width="48" height="48" viewBox="0 -960 960 960"><path d="M97.692-318.615q0-87.462 83.769-126.77 83.77-39.308 182.539-39.308 99.538 0 182.923 39.308t83.385 126.77H97.692Zm0 118.923v-34.154h532.616v34.154H97.692ZM123.846-80q-10.442 0-18.298-7.856-7.856-7.855-7.856-18.298v-8h532.616v8q0 10.443-7.471 18.298Q615.365-80 604.154-80H123.846Zm577.231 0v-244.23q0-89.296-67.039-149.533Q567-534 476.077-550.385l-20.077-145h186.539v-169.231h30.769v169.231h189L802.77-130.154q-2.313 22.481-18.118 36.318Q768.846-80 747.385-80h-46.308Z"/></svg>