<svg xmlns="http://www.w3.org/2000/svg" width="48" height="48" viewBox="0 -960 960 960"><path d="M200-140q-41.667 0-70.833-29.167Q100-198.333 100-240v-280q0-41.667 29.167-70.833Q158.333-620 200-620q24.692 0 45.269 11 20.577 11 35.27 29H340v-186.154h360V-580h69.231q37.82 0 64.295 26.474Q860-527.051 860-489.231V-180H280.539q-14.693 18-35.27 29-20.577 11-45.269 11Zm0-30.769q29.346 0 49.288-19.943 19.943-19.942 19.943-49.288v-280q0-29.346-19.943-49.288-19.942-19.943-49.288-19.943-29.346 0-49.288 19.943-19.943 19.942-19.943 49.288v280q0 29.346 19.943 49.288 19.942 19.943 49.288 19.943ZM370.769-580h298.462v-155.385H370.769V-580ZM300-210.769h529.231v-278.462q0-24.692-17.654-42.346-17.654-17.654-42.346-17.654H300v338.462ZM600-400q17 0 28.5-11.5T640-440q0-17-11.5-28.5T600-480q-17 0-28.5 11.5T560-440q0 17 11.5 28.5T600-400Zm120 0q17 0 28.5-11.5T760-440q0-17-11.5-28.5T720-480q-17 0-28.5 11.5T680-440q0 17 11.5 28.5T720-400ZM600-280q17 0 28.5-11.5T640-320q0-17-11.5-28.5T600-360q-17 0-28.5 11.5T560-320q0 17 11.5 28.5T600-280Zm120 0q17 0 28.5-11.5T760-320q0-17-11.5-28.5T720-360q-17 0-28.5 11.5T680-320q0 17 11.5 28.5T720-280Zm-350.769 0H520v-200H369.231v200ZM300-210.769v-338.462 338.462Z"/></svg>