<svg xmlns="http://www.w3.org/2000/svg" width="48" height="48" viewBox="0 -960 960 960"><path d="M464.615-140v-80h-80v-30.769h80v-128.923q-78.154-7.154-131.384-64.764Q280-502.065 280-580.173q0-83 58.346-141.413Q396.692-780 480-780q83.308 0 141.654 58.414Q680-663.173 680-580.276q0 78.018-53.231 135.724-53.23 57.706-131.384 64.86v128.923h80V-220h-80v80h-30.77Zm15.307-270.769q70.693 0 120.001-49.23 49.308-49.23 49.308-119.923 0-70.693-49.23-120.001-49.23-49.308-119.923-49.308-70.693 0-120.001 49.23-49.308 49.23-49.308 119.923 0 70.693 49.23 120.001 49.23 49.308 119.923 49.308Z"/></svg>