<svg xmlns="http://www.w3.org/2000/svg" width="48" height="48" viewBox="0 0 48 48"><path d="M24 42q-3.75 0-7.025-1.425-3.275-1.425-5.7-3.85-2.425-2.425-3.85-5.7Q6 27.75 6 24V9l10.55 7.95q1.7-2.65 3.575-5.125Q22 9.35 24 7.05q1.8 2.05 3.7 4.55 1.9 2.5 3.7 5.35L42 9v15q0 3.75-1.425 7.025-1.425 3.275-3.85 5.7-2.425 2.425-5.7 3.85Q27.75 42 24 42Zm0-1.55q6.9 0 11.675-4.775T40.45 24V12.1l-9.5 7.1q-2.1-3.4-3.55-5.5-1.45-2.1-3.4-4.4-1.95 2.3-3.475 4.5Q19 16 17.05 19.2l-9.5-7.1V24q0 6.9 4.775 11.675T24 40.45Zm0-15.6Z"/></svg>