<svg xmlns="http://www.w3.org/2000/svg" width="48" height="48" viewBox="0 96 960 960"><path d="M255.384 936q-23.057 0-39.221-16.163Q200 903.673 200 880.616V271.384q0-23.057 16.163-39.221Q232.327 216 255.384 216H580l180 180v293.846h-30.769V416H560V246.769H255.384q-9.23 0-16.923 7.692-7.692 7.693-7.692 16.923v609.232q0 9.23 7.692 16.923 7.693 7.692 16.923 7.692h378.462V936H255.384ZM878 956.231 735.385 813.616v135h-30.77V760.615h188.001v30.77h-136L899.231 934 878 956.231Zm-647.231-51V246.769v658.462Z"/></svg>