<svg xmlns="http://www.w3.org/2000/svg" width="48" height="48" viewBox="0 -960 960 960"><path d="M215.38-160q-23.05 0-39.22-16.16Q160-192.33 160-215.38v-529.24q0-23.05 16.16-39.22Q192.33-800 215.38-800h529.24q23.05 0 39.22 16.16Q800-767.67 800-744.62v529.24q0 23.05-16.16 39.22Q767.67-160 744.62-160H215.38ZM480-289.77q77.23-65.31 115.23-121.56 38-56.24 38-103.82 0-71.59-46.1-113.34-46.1-41.74-107.04-41.74-60.94 0-107.13 41.85-46.19 41.84-46.19 113.37 0 47.54 38.5 103.73 38.5 56.2 114.73 121.51Zm-31.81-193.79q-13.42-13.25-13.42-31.81 0-18.55 13.25-31.98 13.25-13.42 31.81-13.42 18.55 0 31.98 13.25 13.42 13.25 13.42 31.81t-13.25 31.98q-13.25 13.42-31.81 13.42-18.55 0-31.98-13.25Z"/></svg>