<svg xmlns="http://www.w3.org/2000/svg" width="48" height="48" viewBox="0 -960 960 960"><path d="M480-356.615q35.692 0 59.423-26.039 23.731-26.038 23.731-61.961 0-33-24.462-55.654-24.461-22.654-58.692-22.654t-58.692 22.654q-24.462 22.654-24.462 55.654 0 35.923 23.731 61.961 23.731 26.039 59.423 26.039ZM255.384-120q-23.057 0-39.221-16.163Q200-152.327 200-175.384v-609.232q0-23.057 16.163-39.221Q232.327-840 255.384-840h287.924L760-623.308v447.924q0 23.057-16.163 39.221Q727.673-120 704.616-120H255.384ZM480-480ZM255.384-150.769h476.001v-15.385L550.462-347.846Q532-335.077 515.717-330.461q-16.282 4.615-35.717 4.615-48.154 0-81.039-32.885-32.884-32.884-32.884-81.038 0-48.154 32.884-81.039 32.885-32.885 81.039-32.885t81.039 32.885q32.884 32.885 32.884 81.039 0 20.411-6.115 37.706-6.115 17.294-17.577 32.525l159 159.769v-399.616L529.385-809.231H255.384q-9.23 0-16.923 7.692-7.692 7.693-7.692 16.923v609.232q0 9.23 7.692 16.923 7.693 7.692 16.923 7.692Z"/></svg>