<svg xmlns="http://www.w3.org/2000/svg" width="48" height="48" viewBox="0 -960 960 960"><path d="M279.819-150.769q-43.665 0-74.05-30.513-30.384-30.513-30.384-74.103h-40.001q-22.25 0-38.817-16.567T80-310.769V-520h440v-144.616q0-22.25 16.567-38.817T575.384-720h89.231v-24.616q0-11.788 7.952-19.74 7.952-7.952 19.741-7.952h15.384q11.789 0 19.741 7.952t7.952 19.74V-720h36.231q16.807 0 31.596 10.552Q818-698.895 824-682.077l53.231 159.7q1.769 4.3 2.269 8.888.5 4.589.5 8.643v249.461h-95.385q0 43.59-30.565 74.103-30.566 30.513-74.231 30.513-43.665 0-74.05-30.513-30.384-30.513-30.384-74.103h-190.77q0 43.847-30.565 74.231-30.566 30.385-74.231 30.385Zm.181-30.769q31.654 0 52.75-21.097 21.096-21.096 21.096-52.365 0-31.269-21.096-52.75T280-329.231q-31.654 0-52.75 21.481T206.154-255q0 31.269 21.096 52.365 21.096 21.097 52.75 21.097Zm400 0q31.654 0 52.75-21.097 21.096-21.096 21.096-52.365 0-31.269-21.096-52.75T680-329.231q-31.654 0-52.75 21.481T606.154-255q0 31.269 21.096 52.365 21.096 21.097 52.75 21.097ZM550.769-520h294.693l-50-152.308q-3.077-7.692-9.616-12.307-6.538-4.616-14.23-4.616H575.384q-10.769 0-17.692 6.923t-6.923 17.692V-520Zm-470.77-40v-26.154H120v-107.692H80V-720h375.385v26.154h-40v107.692h40V-560H80Zm66.155-26.154h108.461v-107.692H146.154v107.692Zm134.615 0h108.462v-107.692H280.769v107.692Z"/></svg>