<svg xmlns="http://www.w3.org/2000/svg" width="48" height="48" viewBox="0 -960 960 960"><path d="M260-549.231h210.769V-580H260v30.769ZM172-200q-23.231 0-39.308-16.077-16.077-16.077-16.077-39.307v-449.232q0-23.23 16.077-39.307T172-760h616q24.769 0 41.231 18.769 16.462 18.769 14.923 43.538v9q-9.308-2.846-19.308-4.769t-20.231-1.923q-66.384 0-112.423 46.039-46.038 46.038-46.038 112.423 0 23.461 7.231 44.461 7.23 21 20.23 38.616H492.307v43.077H260V-380h232.307v49.077q-33.461 21.769-52.269 56.385Q421.231-239.923 420-200H172Zm406.461 58.462q24.077 0 40.5-16.539 16.423-16.538 16.423-40.384 0-24.077-16.423-40.5t-40.5-16.423q-23.846 0-40.384 16.423-16.539 16.423-16.539 40.5 0 23.846 16.539 40.384 16.538 16.539 40.384 16.539ZM804.615-480q24.077 0 40.5-16.539 16.423-16.538 16.423-40.384 0-24.077-16.423-40.5t-40.5-16.423q-23.846 0-40.384 16.423-16.539 16.423-16.539 40.5 0 23.846 16.539 40.384Q780.769-480 804.615-480ZM578.461-110.769q-36.769 0-62.231-25.461-25.461-25.462-25.461-62.231 0-32.616 20.577-56.616t51.731-30.154v-97.846h226.154v-67.077q-31.154-6.154-51.731-30.154t-20.577-56.615q0-36.77 25.462-62.231 25.461-25.462 62.23-25.462 36.77 0 62.231 25.462 25.462 25.461 25.462 62.231 0 32.615-20.577 56.615T820-450.154v97.846H593.846v67.077q31.154 6.154 51.731 30.154t20.577 56.616q0 36.769-25.462 62.231-25.461 25.461-62.231 25.461Z"/></svg>