<svg xmlns="http://www.w3.org/2000/svg" width="48" height="48" viewBox="0 -960 960 960"><path d="M520-100.769q-23.404 0-39.394-15.99-15.991-15.991-15.991-39.395v-85.077q-94.461-5.615-159.538-74.23Q240-384.077 240-480v-344.616q0-22.442 16.471-38.913Q272.942-880 295.384-880h369.232q22.442 0 38.913 16.471Q720-847.058 720-824.616V-480q0 95.923-65.077 164.539-65.077 68.615-159.538 74.23v85.077q0 10.77 6.923 17.693 6.923 6.923 17.692 6.923h204.616v30.769H520Zm34.615-314.616h124.073q5.235-15.846 7.889-31.807 2.654-15.962 2.654-32.808v-64.615H540v-30.77h149.231v-129.23H500v-30.77h189.231v-89.231q0-10.769-6.923-17.692t-17.692-6.923H295.384q-10.769 0-17.692 6.923t-6.923 17.692v329.231h110q28.213 0 52.222 10.385t41.701 30.154q17.385 19.461 37.885 29.461 20.5 10 42.038 10Z"/></svg>