<svg xmlns="http://www.w3.org/2000/svg" width="48" height="48" viewBox="0 -960 960 960"><path d="m693.308-145.077-1.154-29.538q-27.616-5.462-46.231-16.577-18.615-11.115-33.385-28.731l-25.846 14.616-19.615-26.308 24.154-18.462q-8.077-24.307-8.077-48.384t8.077-48.462l-24.154-18.462 19.615-26.538 25.846 13.846q14.77-17.385 33.385-28.115 18.615-10.731 46.231-16.193l1.154-30.538h30.769l2.154 30.538q27.615 5.462 46.231 16.193 18.615 10.73 33.384 28.115l25.847-13.846 19.615 26.538-24.154 18.462q8.077 24.308 8.077 48.385 0 24.077-8.077 48.461l24.154 18.462-19.615 26.308-25.847-14.616q-14.769 17.616-33.384 28.731-18.616 11.115-46.231 16.577l-2.154 29.538h-30.769Zm15.769-57.307q40.538 0 68.385-27.847 27.846-27.846 27.846-68.384 0-40.539-27.846-68.385-27.847-27.846-68.385-27.846-40.538 0-68.385 27.846-27.846 27.846-27.846 68.385 0 40.538 27.846 68.384 27.847 27.847 68.385 27.847Zm-558.308-28.385v-498.462V-530v-20.769 320ZM175.384-200q-23.057 0-39.221-16.192Q120-232.384 120-255.384v-449.232q0-23 16.163-39.192Q152.327-760 175.384-760h217.924l70.769 70.769h320.539q23 0 39.192 16.192Q840-656.846 840-633.846v120.923q-7.077-4.846-14.654-9T809.231-530v-103.846q0-10.77-6.923-17.693-6.923-6.923-17.692-6.923H452.154l-70.769-70.769H175.384q-10.769 0-17.692 6.923t-6.923 17.692v449.232q0 10.769 6.923 17.692t17.692 6.923h291.078q2.461 8.308 4.769 16 2.308 7.692 6.461 14.769H175.384Z"/></svg>