<svg xmlns="http://www.w3.org/2000/svg" width="48" height="48" viewBox="0 -960 960 960"><path d="M175.38-200q-23.23 0-39.3-16.19Q120-232.38 120-255.38v-449.24q0-23 16.08-39.19Q152.15-760 175.38-760h217.93l70.77 70.77h320.54q23 0 39.19 16.19Q840-656.85 840-633.85v172q-32.15-27.61-72.27-42.77-40.11-15.15-83.27-15.15-102.15 0-173.08 71.42-70.92 71.43-70.92 173.58 0 19.23 2.66 38.23 2.65 19 8.96 36.54h-276.7Zm396.2 34.27q-45.73-45.73-45.73-111.35 0-65.61 45.73-111.34 45.73-45.73 111.34-45.73 65.62 0 111.35 45.73Q840-342.69 840-277.08q0 65.62-45.73 111.35Q748.54-120 682.92-120q-65.61 0-111.34-45.73Zm95.96-9.81h30.77v-123.08h-30.77v123.08Zm29.38-169.08q6-6 6-14.38t-6-14q-6-5.62-14.38-5.62-8.39 0-14 5.62-5.62 5.62-5.62 14 0 8.38 5.62 14.38 5.61 6 14 6 8.38 0 14.38-6Z"/></svg>