<svg xmlns="http://www.w3.org/2000/svg" width="48" height="48" viewBox="0 -960 960 960"><path d="M170.769-200q-20.692 0-35.731-15.038Q120-230.077 120-250.769v-453.847q0-20.692 17.346-38.038Q154.692-760 175.384-760h217.924l70.769 70.769h320.539q16.077 0 29.192 8.885 13.115 8.884 19.269 21.884H451.154l-70.769-70.769H175.384q-10.769 0-17.692 6.923t-6.923 17.692v449.232q0 8.461 4.231 13.846 4.231 5.384 11.154 9.23l93.538-340h654.924l-92.385 334.77q-5.231 18.615-18.539 28.077Q790.385-200 770.769-200h-600Zm27.616-30.769h590.461l84-310.77H282.385l-84 310.77Zm0 0 84-310.77-84 310.77Zm-47.616-427.693v-70.769 70.769Z"/></svg>