<svg xmlns="http://www.w3.org/2000/svg" width="48" height="48" viewBox="0 -960 960 960"><path d="m834.616-232.077-25.385-25.384v-376.385q0-10.77-6.923-17.693-6.923-6.923-17.692-6.923H444.462l-70.77-70.769h-35.461L307.461-760h78.924l70.769 70.769h327.462q23 0 39.192 16.192Q840-656.846 840-633.846v378.462q0 5.692-1.346 11.769t-4.038 11.538Zm17.384 161L723.077-200H175.384q-23.057 0-39.221-16.192Q120-232.384 120-255.384v-449.232q0-23 16.163-39.192Q152.327-760 175.384-760h30.923l30.77 30.769h-61.693q-10.769 0-17.692 6.923t-6.923 17.692v449.232q0 10.769 6.923 17.692t17.692 6.923h516.924L114.461-807.846l22-22 736.77 736.77-21.231 22ZM443.077-480Zm130.769-13.846Z"/></svg>