<svg xmlns="http://www.w3.org/2000/svg" width="48" height="48" viewBox="0 -960 960 960"><path d="M438.538-112.307q-11.942 0-21.355-8.914-9.414-8.914-9.414-21.856v-233.846H261.538q-23.057 0-39.221-16.163-16.163-16.164-16.163-39.221v-281.462q0-38.308 27.077-66.116t66.384-27.808h454.231v375.386q0 23.057-16.163 39.221-16.164 16.163-39.221 16.163H552.231v233.846q0 12.942-9.414 21.856-9.413 8.914-21.355 8.914h-82.924ZM236.923-540.154h486.154v-236.769h-70.615v157.154h-30.77v-157.154h-84.846V-695h-30.769v-81.923H299.615q-27.384 0-45.038 18.452-17.654 18.452-17.654 44.702v173.615Z"/></svg>