<svg xmlns="http://www.w3.org/2000/svg" width="48" height="48" viewBox="0 -960 960 960"><path d="M851.461-64.846 795.538-120H643.385v-30.769h121.384L640.154-275.384H260v-56.001q0-16.498 8.077-29.364t21.231-22.02q40.692-26.769 91.153-39.885 50.462-13.115 94.77-13.038h4.615L150.769-764.769v121.384H120v-152.153l-44.77-44.77 22.231-22.231L872.923-87.077l-21.462 22.231ZM610.154-305.385l-97.693-97.692v-1.538q-72.615 0-124.615 14.154-52 14.153-98.615 42.461v42.615h320.923ZM580-584.615q0 22-8.846 40.692t-24.385 31.615l-22.461-23.231q11.615-7.769 18.269-20.73 6.654-12.962 6.654-28.346 0-29.347-19.943-49.289-19.942-19.942-49.288-19.942-15.385 0-28.346 6.654-12.962 6.654-20.731 18.269l-23.231-22.462q12.923-15.538 31.616-24.384Q458-684.616 480-684.616q40.769 0 70.385 29.616Q580-625.385 580-584.615Zm260 268v96.769l-30.769-30.769v-66H840ZM175.384-120q-23.057 0-39.221-16.163Q120-152.327 120-175.384v-141.231h30.769v141.231q0 9.23 7.692 16.923 7.693 7.692 16.923 7.692h141.231V-120H175.384Zm633.847-523.385v-141.231q0-9.23-7.692-16.923-7.693-7.692-16.923-7.692H643.385V-840h141.231q23.057 0 39.221 16.163Q840-807.673 840-784.616v141.231h-30.769Zm-331.616 61.154Zm34.846 276.846ZM316.615-840v30.769h-66L219.846-840h96.769Z"/></svg>