<svg xmlns="http://www.w3.org/2000/svg" width="48" height="48" viewBox="0 -960 960 960"><path d="M713.31-434.06q95.92-50.6 95.92-123.16 0-72.57-95.85-123.94-95.85-51.38-233.31-51.38-137.45 0-233.38 51.29-95.92 51.28-95.92 124.07 0 72.8 95.85 123.26 95.85 50.46 233.31 50.46 137.45 0 233.38-50.6Zm-65.46 55.75v122.93q0 22.25-16.27 38.81Q615.31-200 592.46-200H366.54q-22.85 0-39.12-16.57-16.27-16.56-16.27-38.81v-122.93q-85.84-26.38-138.5-73.27Q120-498.47 120-557.36q0-84.68 104.8-144.04 104.81-59.37 255.04-59.37 150.24 0 255.2 59.61Q840-641.54 840-557.55q0 59.34-52.65 106.6-52.66 47.26-139.5 72.64ZM480-557.62Zm-48 104.54h112.92V-480h-86.77v-180.38H432v207.3Z"/></svg>