<svg xmlns="http://www.w3.org/2000/svg" width="48" height="48" viewBox="0 -960 960 960"><path d="M175.62-120q-23.7 0-39.54-15.46-15.85-15.46-15.85-39.92v-609.24q0-23 15.85-39.19Q151.92-840 175.62-840h609.23q23 0 39.19 16.19 16.19 16.19 16.19 39.19v307.7H730.85l-70.47-200.31q-1.92-8.62-9.04-13.39-7.13-4.76-16.03-4.76H325.15q-7.84 0-15.04 4.76-7.2 4.77-10.03 13.39l-59.85 172v235.08q0 6.36 4.24 10.56 4.25 4.21 10.68 4.21h2.07q6.43 0 10.11-4.21 3.67-4.2 3.67-10.56v-68.62h119.77V-120H175.62Zm369 0q-27.62 0-47.66-20.04-20.04-20.04-20.04-47.65v-135.39q0-27.61 20.04-47.65t47.66-20.04h270.76q27.62 0 47.66 20.04 20.04 20.04 20.04 47.65v135.39q0 27.61-20.04 47.65T815.38-120H544.62Zm16.23-30.77h238.12q5.18-20.23 19.15-36.88 13.96-16.66 34.19-23.2v-89.07q-20.23-6.54-34.19-23.2-13.97-16.65-18.97-36.88H561.03q-5.18 20.23-19.15 36.88-13.96 16.66-34.19 23.2v89.07q20.23 6.54 34.19 23.2 13.97 16.65 18.97 36.88Zm87.42-72.88q-12.89-12.89-12.89-31.73 0-18.85 12.89-31.74Q661.15-300 680-300t31.73 12.88q12.89 12.89 12.89 31.74 0 18.84-12.89 31.73-12.88 12.88-31.73 12.88t-31.73-12.88ZM310.65-414q-7.73-7.92-7.73-18.42 0-10.5 7.92-18.23t18.43-7.73q10.5 0 18.23 7.92 7.73 7.91 7.73 18.42 0 10.5-7.92 18.23t-18.42 7.73q-10.51 0-18.24-7.92Zm-31.11-110.92 46.92-139.7H634l47.92 139.7H279.54Z"/></svg>