<svg xmlns="http://www.w3.org/2000/svg" width="48" height="48" viewBox="0 96 960 960"><path d="M475.692 683.692V468.308H506v215.384h-30.308Zm-201.692 0q-21.3 0-36.881-15.269t-15.581-37.192V520.769q0-21.923 15.581-37.192Q252.7 468.308 274 468.308h94q11.646 0 18.592 7.192 6.946 7.192 6.946 17.577v4.769H275.692q-9.231 0-16.923 7.692-7.692 7.693-7.692 16.923v107.078q0 9.23 7.692 16.923 7.692 7.692 16.923 7.692h62.923q9.231 0 16.923-7.692 7.693-7.693 7.693-16.923v-47.385h30.307v49.077q0 21.923-15.503 37.192-15.504 15.269-37.727 15.269H274Zm312.462 0V468.308h152v29.538H616.769v67.692H697v30.308h-80.231v87.846h-30.307Z"/></svg>