<svg xmlns="http://www.w3.org/2000/svg" width="48" height="48" viewBox="0 0 48 48"><path d="M23.05 40q-.45 0-.775-.175t-.675-.475l-8.65-8.75 1.25-1.2q.3-.3.675-.375.375-.075.825-.025l6.6 1.35v-19.8q0-1.1.7-1.825Q23.7 8 24.8 8q1.15 0 1.85.725.7.725.7 1.825v10.9h2.05q.25 0 .475.05.225.05.475.2l6.55 3.25q1.45.75 2.05 2.2.6 1.45.3 3l-1.35 8.3q-.15.65-.725 1.1-.575.45-1.325.45ZM9 18.75q-2.4 0-4.075-1.625Q3.25 15.5 3.25 13.1q0-1.5.55-2.475.55-.975 2.95-3.725L9 4l2.2 2.9q2.45 2.8 3 3.775.55.975.55 2.425 0 2.35-1.675 4T9 18.75Z"/></svg>