<svg xmlns="http://www.w3.org/2000/svg" width="48" height="48" viewBox="0 -960 960 960"><path d="M850.692-64.846 662.615-252.923v37.539h-560v-57.847q0-28.077 14.538-48.115 14.539-20.039 41.154-31.731 56.847-25.077 105.731-39.077 48.885-14 118.577-14 44.923 0 79.885 5.308 34.961 5.307 67.115 14.923L408.461-507.077q-6.461 1.231-12.923 1.731-6.461.5-12.923.5-49.846 0-82.615-32.769-32.77-32.77-32.77-82.616 0-6.461.5-12.923.5-6.461 1.731-12.923L75.231-840.308l22.23-22.231L872.923-87.077l-22.231 22.231Zm-180.538-331q37.461 6.461 72.077 17.23 34.615 10.77 61.077 23.847 24 12.615 39.039 34.577 15.038 21.961 15.038 49.269v53.231h-16l-119.77-120.539q-9.384-19.615-22.038-33.577-12.654-13.961-29.423-24.038Zm-287.539 20.461q-63.923 0-110.731 11.385-46.807 11.385-100.346 38-20.154 10.615-29.154 23.692t-9 29.077v27.077h498.462v-37.538l-47.615-48.385q-49-23.231-94.424-33.269-45.423-10.039-107.192-10.039Zm157.231-143.846q14.462-20.692 21.692-46.307 7.231-25.616 7.231-54.693 0-34.231-10.577-61.808-10.577-27.577-27.654-52.73 1.77.076 4.501-.385 2.73-.462 4.5-.462 50.615 0 83 32.385 32.384 32.385 32.384 83 0 46-28.5 77.616-28.5 31.615-72.961 37l-13.616-13.616Zm-51.384-52.154L464-595.077q2-5.462 2.615-12.077.616-6.615.616-13.077 0-35.923-24.347-60.269-24.346-24.346-60.269-24.346-6.461 0-12.692.615-6.231.616-12.462 2.616l-23.692-24.462q10.615-4.385 23.077-6.962 12.461-2.577 25.769-2.577 50.616 0 83 32.385 32.385 32.385 32.385 83 0 13.308-2.577 25.769-2.577 12.462-6.961 23.077ZM377.077-338.461v92.307-92.307Zm70.692-273.847-73.077-73.076q2.308 0 5.77-.77 3.461-.769 7.307-.769 25.385 0 43.461 18.077 18.077 18.077 18.077 43.461 0 3.846-.769 7.308-.769 3.461-.769 5.769Z"/></svg>