<svg xmlns="http://www.w3.org/2000/svg" width="48" height="48" viewBox="0 96 960 960"><path d="M40 799.077v-29.923q0-34.849 37.811-57.848 37.812-22.998 98.763-22.998 10.597 0 21.05.884 10.453.885 19.145 2.612-5.692 13.427-8.923 28.388-3.231 14.961-3.231 31.038v47.847H40Zm240 0v-45q0-49.616 55.475-78.846Q390.951 646 480.212 646q90.096 0 144.942 29.231Q680 704.461 680 754.077v45H280Zm475.385 0V751.23q0-16.077-2.731-31.038-2.731-14.961-9.192-28.388 9.461-1.727 20.006-2.612 10.545-.884 21.148-.884 61.577 0 98.48 22.998Q920 734.305 920 769.154v29.923H755.385ZM175.721 655.231q-21.356 0-36.615-15.322-15.26-15.323-15.26-36.986 0-21.308 15.322-36.423 15.322-15.116 36.986-15.116 21.307 0 36.807 15.116 15.5 15.115 15.5 36.856 0 21.355-15.5 36.615-15.5 15.26-37.24 15.26Zm608.462 0q-20.875 0-36.375-15.322-15.5-15.323-15.5-36.986 0-21.308 15.562-36.423 15.563-15.116 36.895-15.116 21.928 0 37.043 15.116 15.115 15.115 15.115 36.856 0 21.355-15.019 36.615-15.019 15.26-37.721 15.26ZM480.271 616q-36.425 0-62.194-25.577-25.77-25.577-25.77-62.116 0-37.269 25.577-62.481 25.577-25.211 62.116-25.211 37.269 0 62.481 25.133 25.212 25.134 25.212 62.288 0 36.425-25.134 62.194Q517.425 616 480.271 616Z"/></svg>