<svg xmlns="http://www.w3.org/2000/svg" width="48" height="48" viewBox="0 -960 960 960"><path d="M364.692-343.077q24.077 0 40.462-16.386t16.385-40.346q0-23.96-16.385-40.46t-40.346-16.5q-23.962 0-40.462 16.386-16.5 16.386-16.5 40.346 0 23.96 16.42 40.46t40.426 16.5Zm230.502 0q23.96 0 40.46-16.386t16.5-40.346q0-23.96-16.387-40.46-16.386-16.5-40.346-16.5-23.96 0-40.46 16.386t-16.5 40.346q0 23.96 16.387 40.46 16.386 16.5 40.346 16.5ZM479.886-550.846q23.96 0 40.46-16.385 16.5-16.384 16.5-40.346 0-23.961-16.386-40.461t-40.346-16.5q-23.96 0-40.46 16.419-16.5 16.42-16.5 40.427 0 24.077 16.386 40.461 16.386 16.385 40.346 16.385ZM480.4-120q-75.176 0-140.458-28.339-65.282-28.34-114.246-77.422-48.964-49.082-77.33-114.213Q120-405.106 120-479.982q0-74.875 28.339-140.453 28.34-65.578 77.422-114.206 49.082-48.627 114.213-76.993Q405.106-840 479.982-840q74.875 0 140.453 28.339 65.578 28.34 114.206 76.922 48.627 48.582 76.993 114.257Q840-554.806 840-480.4q0 75.176-28.339 140.458-28.34 65.282-76.922 114.062-48.582 48.78-114.257 77.33Q554.806-120 480.4-120Z"/></svg>