<svg xmlns="http://www.w3.org/2000/svg" width="48" height="48" viewBox="0 0 48 48"><path d="m8.85 28.35 3-3-3-3.05-3 3.05ZM36 28l3.25-5.25L42.5 28Zm-12-2q-1.8 0-3.1-1.275T19.6 21.6q0-1.85 1.275-3.1T24 17.25q1.85 0 3.125 1.25t1.275 3.1q0 1.8-1.275 3.1T24 26ZM2 35.15v-1.5q0-1.75 1.9-2.9t4.95-1.15q.5 0 1.025.05.525.05.975.15-.3.65-.45 1.4-.15.75-.15 1.55v2.4Zm12 0V32.9q0-2.5 2.775-3.95Q19.55 27.5 24 27.5q4.5 0 7.25 1.45T34 32.9v2.25Zm25.25-5.55q3.05 0 4.9 1.15Q46 31.9 46 33.65v1.5h-8.25v-2.4q0-.8-.125-1.55t-.475-1.4q.5-.1 1.025-.15.525-.05 1.075-.05Z"/></svg>