<svg xmlns="http://www.w3.org/2000/svg" width="48" height="48" viewBox="0 96 960 960"><path d="M684.154 955.769q-51.616 0-88.231-30.23-36.615-30.231-55.846-82-16.923-44.077-38.346-72.193-21.423-28.115-74.654-71.115-62.923-49.923-92.308-108.769-29.384-58.847-29.384-137.154 0-111.539 72.538-184.193Q450.461 197.461 562 197.461q105.692 0 177.423 64.654 71.731 64.654 79.808 166.347h-30.77q-8.076-88-71.653-144.116Q653.231 228.231 562 228.231q-95.385 0-160.615 65.346-65.231 65.346-65.231 160.731 0 72.769 32.231 129.884 32.23 57.116 90.307 101.5Q500 717 523.115 748.308q23.116 31.307 44.116 80.538 18.538 44.308 46.808 70.231Q642.308 925 684.154 925q36.538 0 64.731-23.231 28.192-23.231 37.807-58.231H819q-9.615 48.462-46.846 80.347-37.231 31.884-88 31.884ZM245.923 730.923q-50.077-56.846-77.615-128.038-27.539-71.193-27.539-150.27 0-78.846 27.192-151.423Q195.154 228.615 245.923 173l22.692 19.231Q221.231 246 196.385 312.192q-24.846 66.193-24.846 140.423 0 72.462 25.346 138.654 25.346 66.193 71.73 120.193l-22.692 19.461ZM562 535.769q-34.385 0-57.923-23.538-23.539-23.539-23.539-57.923 0-34.385 23.539-58.539 23.538-24.154 57.923-24.154 34.385 0 58.154 24.154 23.769 24.154 23.769 58.539 0 34.384-23.769 57.923-23.769 23.538-58.154 23.538Z"/></svg>