<svg xmlns="http://www.w3.org/2000/svg" width="48" height="48" viewBox="0 -960 960 960"><path d="M481-133.23Q372.923-241.538 303.038-315.308q-69.884-73.769-110.615-127.5-40.731-53.73-56.577-94.654Q120-578.385 120-620q0-83.539 58.231-141.769Q236.461-820 320-820q38.077 0 73.923 13.038 35.846 13.039 65 37.885L393.077-540h122.538l-35.23 344.539L608.923-620H486.154l59.461-178.154q21.154-10.923 44.808-16.385Q614.077-820 638.462-820q83.538 0 141.769 58.231 58.231 58.23 58.231 141.769 0 42.154-16.5 83.731-16.5 41.577-57.5 96.192-41 54.615-110 128-69 73.385-173.462 178.847Z"/></svg>