<svg xmlns="http://www.w3.org/2000/svg" width="48" height="48" viewBox="0 -960 960 960"><path d="M276.611-263.692q-39.906 0-68.259-28.311Q180-320.314 180-360.538v-289.308h30.769v289.308q0 27.384 19.346 46.73 19.347 19.347 46.801 19.347 27.455 0 46.616-19.347 19.16-19.346 19.16-46.73V-553q0-40.225 28.07-68.536 28.069-28.31 67.948-28.31 40.521 0 68.598 28.31 28.077 28.311 28.077 68.536v192.462q0 27.384 19.346 46.73 19.346 19.347 46.801 19.347 27.455 0 46.615-19.347 19.161-19.346 19.161-46.73v-233.924q0-39.615 27.468-67.5 27.468-27.884 67.916-27.884h110l-71.615-71.616 21.231-22.231 109.231 109.231-109.231 108.231-21.231-22.231 73.384-70.615H762.692q-27.403 0-46.009 18.606-18.606 18.605-18.606 46.009v233.924q0 40.224-28.312 68.535t-68.539 28.311q-39.906 0-68.258-28.311-28.353-28.311-28.353-68.535V-553q0-27.385-19.221-46.731t-46.231-19.346q-27.009 0-46.355 19.346-19.346 19.346-19.346 46.731v192.462q0 40.224-28.313 68.535-28.312 28.311-68.538 28.311ZM135.384-136q-22.442 0-38.913-16.471Q80-168.942 80-191.384v-281.155h800v281.155q0 22.442-16.471 38.913Q847.058-136 824.616-136H135.384Zm0-30.769h689.232q10.769 0 17.692-6.923t6.923-17.692v-250.385H110.769v250.385q0 10.769 6.923 17.692t17.692 6.923Zm689.232-275h24.615-738.462 713.847Z"/></svg>