<svg xmlns="http://www.w3.org/2000/svg" width="48" height="48" viewBox="0 96 960 960"><path d="M132.308 683.692V468.308h29.538v83.153h71.923v-83.153h29.539v215.384h-29.539V581h-71.923v102.692h-29.538Zm200.153 0V468.308h110.308v29.538h-80v53.615h80V581h-80v73.154h80v29.538H332.461Zm213.924 0-49.616-215.384h31.308l42.154 183.307 42.692-183.307h31.308l-50.385 215.384h-47.461Zm178.153 0q-12.615 0-20.23-8-7.616-8-7.616-19.846V496.154q0-11.846 7.616-19.846 7.615-8 20.23-8h75.308q11.846 0 19.846 8t8 19.846V521h-29.538v-23.154h-71.923v156.308h71.923v-20h29.538v21.692q0 11.846-8 19.846t-19.846 8h-75.308Z"/></svg>