<svg xmlns="http://www.w3.org/2000/svg" width="48" height="48" viewBox="0 -960 960 960"><path d="M237.529-60q-40.26 0-68.894-28.544Q140-117.088 140-157.348q0-40.261 28.428-68.533 28.428-28.273 69.039-28.273 12.071 0 23.604 2.885 11.533 2.884 22.775 8.654l115-142.154q-17.462-19.923-24.769-43.654Q366.769-452.154 371-478l-167.923-55.615q-12.692 23.461-35.104 37.077-22.413 13.615-51.196 13.615-39.636 0-68.207-28.341Q20-539.604 20-580.09q0-40.487 28.544-68.737 28.544-28.25 68.804-28.25 40.261 0 68.533 28.314 28.273 28.314 28.273 68.763 0 3.846-.385 6.615-.384 2.77-.384 5.077l168.153 58.154q12.616-23.539 32.731-38.615 20.116-15.077 48.039-20.539v-178.23q-38.231-7.154-58.808-35.308-20.577-28.154-20.577-60.395 0-39.49 28.34-68.124Q439.604-940 480.091-940q40.486 0 68.736 28.57 28.25 28.571 28.25 68.507 0 31.923-20.692 60.077-20.693 28.154-58.693 35.308v178.23q27.923 5.462 48.154 20.539 20.231 15.076 33.616 38.615l167.153-58.154q-.769-2.115-.769-5.077V-580q0-40.449 28.182-68.763 28.182-28.314 68.443-28.314 40.26 0 68.894 28.341Q940-620.396 940-579.91q0 40.487-28.57 68.737-28.571 28.25-68.207 28.25-28.535 0-51.187-14-22.651-14-35.113-36.692L589-478q5 25.846-2.577 49.962-7.577 24.115-25.269 42.5l115 142.923q10.231-5.77 22.269-8.654 12.039-2.885 23.672-2.885 41.549 0 69.727 28.182Q820-197.79 820-157.529q0 40.26-28.544 68.894Q762.912-60 722.652-60q-40.261 0-68.533-28.378-28.273-28.378-28.273-68.919 0-18.39 5.148-33.214 5.147-14.823 18.16-29.72l-115-143.692q-23.665 14.692-54.405 14.692-30.739 0-54.134-14.692L310.846-219.231q12.308 14.231 17.808 28.888 5.5 14.656 5.5 33.046 0 40.541-28.182 68.919T237.529-60ZM117.247-513.692q27.445 0 46.791-19.517 19.347-19.516 19.347-46.961t-19.517-46.791q-19.516-19.347-46.961-19.347t-46.792 19.517Q50.77-607.275 50.77-579.83t19.517 46.791q19.516 19.347 46.961 19.347Zm120 422.923q27.445 0 46.791-19.516 19.347-19.517 19.347-46.962 0-27.445-19.517-46.791-19.516-19.347-46.961-19.347t-46.792 19.517q-19.346 19.516-19.346 46.961t19.516 46.792q19.517 19.346 46.962 19.346ZM480.17-776.615q27.445 0 46.791-19.517 19.347-19.516 19.347-46.961t-19.517-46.792q-19.516-19.346-46.961-19.346t-46.791 19.516q-19.347 19.517-19.347 46.962 0 27.445 19.517 46.791 19.516 19.347 46.961 19.347ZM480.115-380q33.27 0 56.577-23.423Q560-426.846 560-460.115q0-33.27-23.431-56.577Q513.138-540 480-540q-33.154 0-56.577 23.431Q400-493.138 400-460q0 33.154 23.423 56.577Q446.846-380 480.115-380ZM723.093-90.77q27.445 0 46.792-19.515 19.346-19.517 19.346-46.962 0-27.445-19.516-46.791-19.517-19.347-46.962-19.347-27.445 0-46.791 19.517-19.347 19.516-19.347 46.961t19.517 46.792q19.516 19.346 46.961 19.346Zm120-422.922q27.445 0 46.792-19.517 19.346-19.516 19.346-46.961t-19.516-46.791q-19.517-19.347-46.962-19.347-27.445 0-46.791 19.517-19.347 19.516-19.347 46.961t19.517 46.791q19.516 19.347 46.961 19.347ZM480-842.923ZM117.077-580ZM480-460Zm362.923-120ZM237.077-157.077Zm485.846 0Z"/></svg>