<svg xmlns="http://www.w3.org/2000/svg" width="48" height="48" viewBox="0 -960 960 960"><path d="M107.154-477.461 307.692-750q76.539 42.846 137.423 111.192Q506-570.462 527.308-498.693q41.846-52.692 84.346-77.807 42.5-25.116 131.192-48.654 36.539-9.692 64.154-19.116 27.615-9.423 52.231-20.346v294.462L567.308-186.077q-16.462 9.462-34.539 15.077-18.077 5.616-38.769 5.616-24.923 0-49.346-9.231t-43.116-27.692L107.154-477.461Zm282 128.461q10.692 0 18.423-7.846 7.731-7.846 7.731-18.308 0-1.231-.5-3.846t-.731-3.846q3.769 2 7.769 3t8 1q10.693 0 18.423-7.846Q456-394.538 456-405t-7.846-18.308q-7.846-7.846-18.308-7.846-7 0-12.884 3.769-5.885 3.77-10.116 9.539L298.462-536.077q8.538-3.231 14.192-10.231t5.654-15.769q0-10.462-7.846-18.308-7.847-7.846-18.308-7.846-10.462 0-18.308 7.731T266-562.077q0 2.231.5 4.462.5 2.23.731 3.461-3.77-2-7.654-3-3.885-1-8.116-1-10.461 0-18.307 7.731-7.846 7.731-7.846 18.423 0 10.462 7.846 18.308t18.307 7.846q8 0 14.616-3.885 6.615-3.884 9.846-10.884l109.154 119q-9.539 1.461-15.808 8.961t-6.269 17.5q0 10.462 7.846 18.308T389.154-349Z"/></svg>