<svg xmlns="http://www.w3.org/2000/svg" width="48" height="48" viewBox="0 96 960 960"><path d="M480.235 770.616q80.996 0 137.688-56.928 56.693-56.928 56.693-137.923 0-80.996-56.928-137.688-56.928-56.693-137.923-56.693-80.996 0-137.688 56.928-56.693 56.928-56.693 137.923 0 80.996 56.928 137.688 56.928 56.693 137.923 56.693ZM480 740.615q-33.615 0-63.308-13.192-29.692-13.192-54-36.038h234.616q-24.308 22.846-54 36.038-29.693 13.192-63.308 13.192Zm-141.077-80q-8.769-16.307-14.538-33.615-5.77-17.308-7.77-35.615h326.77q-2 18.307-7.77 35.615-5.769 17.308-15.307 33.615H338.923Zm-22.308-100q2-18.307 7.77-35.615 5.769-17.308 15.307-33.615h281.385q8.769 16.307 14.538 33.615 5.77 17.308 7.77 35.615h-326.77Zm46.077-100q24.308-22.846 54-36.038 29.693-13.192 63.308-13.192 33.615 0 63.308 13.192 29.692 13.192 54 36.038H362.692ZM215.384 896q-22.442 0-38.913-16.471Q160 863.058 160 840.616V311.384q0-22.442 16.471-38.913Q192.942 256 215.384 256h529.232q22.442 0 38.913 16.471Q800 288.942 800 311.384v529.232q0 22.442-16.471 38.913Q767.058 896 744.616 896H215.384Zm0-30.769h529.232q10.769 0 17.692-6.923t6.923-17.692V311.384q0-10.769-6.923-17.692t-17.692-6.923H215.384q-10.769 0-17.692 6.923t-6.923 17.692v529.232q0 10.769 6.923 17.692t17.692 6.923Zm-24.615-578.462v578.462-578.462Z"/></svg>