<svg xmlns="http://www.w3.org/2000/svg" width="48" height="48"><path d="M10.75 40q-1.1 0-1.925-.825T8 37.25v-26.5q0-1.1.825-1.925T10.75 8h26.5q1.1 0 1.925.825T40 10.75v26.5q0 1.1-.825 1.925T37.25 40zM24 33.75q4.05 0 6.9-2.85 2.85-2.85 2.85-6.9 0-4.05-2.85-6.9-2.85-2.85-6.9-2.85-4.05 0-6.9 2.85-2.85 2.85-2.85 6.9 0 4.05 2.85 6.9 2.85 2.85 6.9 2.85zm-8.15-10.5q.1-1 .375-1.85.275-.85.775-1.65h14.05q.4.8.7 1.65.3.85.4 1.85zm1.1 5q-.4-.8-.7-1.65-.3-.85-.4-1.85h16.3q-.1 1-.375 1.85-.275.85-.775 1.65zm7.05 4q-1.6 0-3.1-.625t-2.75-1.875h11.7Q28.6 31 27.1 31.625t-3.1.625zm-5.85-14Q19.4 17 20.9 16.375t3.1-.625q1.6 0 3.1.625t2.75 1.875z"/></svg>