<svg xmlns="http://www.w3.org/2000/svg" width="48" height="48" viewBox="0 -960 960 960"><path d="M215.384-160q-23.057 0-39.221-16.163Q160-192.327 160-215.384v-529.232q0-23.057 16.163-39.221Q192.327-800 215.384-800h529.232q23.057 0 39.221 16.163Q800-767.673 800-744.616v529.232q0 23.057-16.163 39.221Q767.673-160 744.616-160H215.384Zm82.923-138.538h370.539L556.462-447.616 446.769-310.461l-71.461-87.77-77.001 99.693Zm41.738-286.077q14.801 0 25.07-10.315 10.27-10.314 10.27-25.115 0-14.801-10.315-25.07-10.314-10.27-25.115-10.27-14.801 0-25.07 10.315-10.27 10.314-10.27 25.115 0 14.801 10.315 25.07 10.314 10.27 25.115 10.27Z"/></svg>