<svg xmlns="http://www.w3.org/2000/svg" width="48" height="48" viewBox="0 96 960 960"><path d="m815.308 957.231-62.77-62.769q-3.076.769-6.538 1.154-3.461.384-7.308.384H215.384q-22.442 0-38.913-16.471Q160 863.058 160 840.616V317.308q0-3.847.384-6.923.385-3.077 1.923-6.154l-58.923-58.923 22.231-22.231L837.539 935l-22.231 22.231Zm-599.924-92h507.923L604.846 746.769H280l100-123.077L455.385 715l51.384-67.308-316-315.999v508.923q0 10.769 6.923 17.692t17.692 6.923ZM800 797.077l-30.769-30.769V311.384q0-10.769-6.923-17.692t-17.692-6.923H289.692L258.923 256h485.693q22.442 0 38.913 16.471Q800 288.942 800 311.384v485.693ZM532.461 529.539Zm-74.153 69.923Z"/></svg>