<svg xmlns="http://www.w3.org/2000/svg" width="48" height="48" viewBox="0 -960 960 960"><path d="M215.384-200q-23.23 0-39.307-16.077T160-255.384v-529.232q0-23.23 16.077-39.307T215.384-840h529.232q23.23 0 39.307 16.077T800-784.616v218.539q-7.077-3.692-14.769-7.538-7.692-3.847-16-7.616v-203.385q0-10.769-6.923-17.692t-17.692-6.923H215.384q-10.769 0-17.692 6.923t-6.923 17.692v380.154H360q13.615 29 36.192 49.616 22.577 20.615 53.346 27.846 1.077 9.077 3.231 16.769 2.154 7.693 4.154 15.77-35.462-5.231-65-25.731-29.538-20.5-45.923-53.5H190.769v118.308q0 10.769 6.923 17.692t17.692 6.923h270.924q6 8.308 11.576 15.615 5.577 7.308 12.501 15.154H215.384Zm0-30.769h-24.615 295.539-270.924Zm463.924 40-1.154-28.769q-26.846-6.231-45.846-16.962-19-10.73-34.539-29.115l-25.846 13.846-18.846-25.538L578-295.769q-9.615-24.385-9.615-48.039 0-23.653 9.615-48.807l-24.923-19.231 18.846-26.539 25.846 14.616q14.77-16.616 34.539-28.116 19.769-11.5 45.846-17.73l1.154-29h30.769l1.385 29q25.308 5.461 45.077 16.961 19.769 11.5 35.307 28.885l25.847-14.616 18.846 26.539-24.923 19.231q9.615 25.154 9.231 49.192-.385 24.039-10 47.654l25.692 18.462-18.846 25.538-25.847-13.846Q776.308-248 757.308-236.884q-19 11.115-45.846 17.346l-1.385 28.769h-30.769Zm15.385-58.077q40.153 0 68-27.846 27.846-27.846 27.846-68 0-40.154-27.846-68.385-27.847-28.231-68-28.231-40.924 0-68.77 28.231-27.846 28.231-27.846 68.385t27.846 68q27.846 27.846 68.77 27.846Z"/></svg>