<svg xmlns="http://www.w3.org/2000/svg" width="48" height="48" viewBox="0 -960 960 960"><path d="M617.54-440.92 464.46-594l181.31-180.54q16.23-16.23 39.15-16.23 22.93 0 39.16 16.23L797.62-701q16.23 16.23 16.11 40.5-.11 24.27-16.35 40.5L617.54-440.92Zm184.84 328.23L545.85-368.46 369.38-192q-16.69 16.69-43.26 16.69-26.58 0-44.04-16.69l-11.77-12.54-53.77 53.77h-90.39l98.47-98.46-7.08-7.85q-18.92-18.15-18.81-44.73.12-26.57 19.04-45.5l175-174.23-280.08-280.84 21.23-21.24 689.7 689.7-21.24 21.23Z"/></svg>