<svg xmlns="http://www.w3.org/2000/svg" width="48" height="48"><path d="m19.2 29.75 1.1-1.05-4.6-4.7 4.6-4.65-1.1-1.1L13.45 24zm9.6 0L34.55 24l-5.75-5.75-1.1 1.1L32.35 24l-4.65 4.7zM10.75 40q-1.1 0-1.925-.825T8 37.25v-26.5q0-1.1.825-1.925T10.75 8h9.9q-.3-1.5.725-2.75T24 4q1.65 0 2.65 1.25t.7 2.75h9.9q1.1 0 1.925.825T40 10.75v26.5q0 1.1-.825 1.925T37.25 40zM24 8.75q.65 0 1.15-.475.5-.475.5-1.125T25.15 6q-.5-.5-1.15-.5-.65 0-1.125.5T22.4 7.15q0 .65.475 1.125T24 8.75zm-13.25 29.7h26.5q.45 0 .825-.375.375-.375.375-.825v-26.5q0-.45-.375-.825-.375-.375-.825-.375h-26.5q-.45 0-.825.375-.375.375-.375.825v26.5q0 .45.375.825.375.375.825.375zM9.55 9.5v28.8V9.5z"/></svg>