<svg xmlns="http://www.w3.org/2000/svg" width="48" height="48" viewBox="0 -960 960 960"><path d="M215.384-120q-22.442 0-38.913-16.471Q160-152.942 160-175.384v-459.924q-17-4.461-28.5-19.471T120-689.231v-95.385q0-22.442 16.471-38.913Q152.942-840 175.384-840h609.232q22.442 0 38.913 16.471Q840-807.058 840-784.616v95.385q0 19.442-11.5 34.452-11.5 15.01-28.5 19.471v459.924q0 22.442-16.471 38.913Q767.058-120 744.616-120H215.384Zm-24.615-513.846v454.615q0 12.308 8.846 20.385 8.846 8.077 21.923 8.077h523.078q10.769 0 17.692-6.923t6.923-17.692v-458.462H190.769Zm-15.385-30.769h609.232q10.769 0 17.692-6.924 6.923-6.923 6.923-17.692v-95.385q0-10.769-6.923-17.692t-17.692-6.923H175.384q-10.769 0-17.692 6.923t-6.923 17.692v95.385q0 10.769 6.923 17.692 6.923 6.924 17.692 6.924Zm200.001 210h209.23V-480h-209.23v25.385ZM480-392.308Z"/></svg>