<svg xmlns="http://www.w3.org/2000/svg" width="48" height="48" viewBox="0 -960 960 960"><path d="M160-160v-30.769h80V-160h-80Zm0-152.692v-30.77h268.154v30.77H160Zm0-151.923v-30.77h640v30.77H160Zm0-152.693v-30.769h268.154v30.769H160Zm0-151.923V-800h80v30.769h-80ZM348.154-160v-30.769h80V-160h-80Zm-1.231-609.231V-800h80v30.769h-80ZM534.538-160v-30.769h77.308V-160h-77.308Zm-1.461-152.692v-30.77H800v30.77H533.077Zm0-304.616v-30.769H800v30.769H533.077Zm0-151.923V-800h80v30.769h-80ZM720-160v-30.769h80V-160h-80Zm0-609.231V-800h80v30.769h-80Z"/></svg>