<svg xmlns="http://www.w3.org/2000/svg" width="48" height="48" viewBox="0 -960 960 960"><path d="M395.81-231.19q-34.27-34.27-34.27-84.19H190.77q-12.46 0-21.62-9.16-9.15-9.15-9.15-21.61 0-130.47 87.35-226.47 87.34-96 217.27-100.84v-111.16h30.76v111.16q129.93 4.84 217.27 100.84 87.35 96 87.35 226.47 0 12.46-9.15 21.61-9.16 9.16-21.62 9.16H598.46q0 49.92-34.27 84.19-34.27 34.27-84.19 34.27-49.92 0-84.19-34.27ZM190.77-346.15h578.46q0-123.54-84.42-210.04-84.43-86.5-204.81-86.5t-204.81 86.5q-84.42 86.5-84.42 210.04Z"/></svg>