<svg xmlns="http://www.w3.org/2000/svg" width="48" height="48" viewBox="0 -960 960 960"><path d="M480-96.923 376.923-200H215.384q-23.057 0-39.221-16.192Q160-232.384 160-255.384v-529.232q0-23.057 16.163-39.221Q192.327-840 215.384-840h529.232q23 0 39.192 16.163Q800-807.673 800-784.616v529.232q0 23-16.192 39.192T744.616-200H583.077L480-96.923ZM215.384-230.769h174.77L480-140.923l89.846-89.846h174.77q10.769 0 17.692-6.923t6.923-17.692v-529.232q0-10.769-6.923-17.692t-17.692-6.923H215.384q-10.769 0-17.692 6.923t-6.923 17.692v529.232q0 10.769 6.923 17.692t17.692 6.923Zm-24.615-578.462v578.462-578.462Zm290.105 488.154q10.588 0 18.126-7.428 7.539-7.428 7.539-18.292 0-10.588-7.429-18.511-7.428-7.923-18.292-7.923-10.587 0-18.51 7.951-7.923 7.952-7.923 18.539 0 10.587 7.951 18.126 7.951 7.538 18.538 7.538Zm11.665-129.538q.769-24.847 10.384-41.654 9.616-16.808 32.029-39.991 28.663-28.663 40.894-50.702 12.231-22.038 12.231-47.73 0-46.847-31.195-74.77-31.195-27.923-75.867-27.923-41.481 0-71.44 21.423-29.96 21.423-44.652 51.347l30.692 13.538q13.231-24.154 32.431-39.038Q447.246-701 479.769-701q40.462 0 58.962 21.385 18.5 21.384 18.5 49.538 0 21.385-11 37.962-11 16.576-30.846 35.423-33.924 32.692-43.808 55.769-9.885 23.077-9.885 50.308h30.847Z"/></svg>