<svg xmlns="http://www.w3.org/2000/svg" width="48" height="48" viewBox="0 -960 960 960"><path d="M255.38-120q-22.44 0-38.91-16.47Q200-152.94 200-175.38v-609.24q0-22.44 16.47-38.91Q232.94-840 255.38-840h449.24q22.44 0 38.91 16.47Q760-807.06 760-784.62v609.24q0 22.44-16.47 38.91Q727.06-120 704.62-120H255.38Zm342.5-158.96q48.43-48.42 48.43-117.89 0-69.46-48.43-117.88-48.42-48.42-117.88-48.42t-117.88 48.42q-48.43 48.42-48.43 117.88 0 69.47 48.43 117.89 48.42 48.42 117.88 48.42t117.88-48.42ZM480-275.31q-24.22 0-47.13-8.77-22.91-8.77-39.49-26.3l172.85-172.85q17.77 16.54 26.54 39.25 8.77 22.72 8.77 47.13 0 50.45-35.55 86-35.54 35.54-85.99 35.54ZM312.64-692.62q15.13 0 25.17-10.59 10.04-10.6 10.04-24.97 0-15.13-10.22-25.17-10.21-10.03-24.96-10.03t-25.17 10.21q-10.42 10.21-10.42 24.96t10.6 25.17q10.59 10.42 24.96 10.42Zm151.48-10.59q10.03-10.6 10.03-25.35 0-14.75-10.21-24.79-10.21-10.03-24.96-10.03t-25.17 10.21q-10.43 10.21-10.43 24.96t10.6 25.17q10.6 10.42 25.35 10.42 14.75 0 24.79-10.59Z"/></svg>