<svg xmlns="http://www.w3.org/2000/svg" width="48" height="48" viewBox="0 -960 960 960"><path d="M466.077-297.077h30.769v-42.692h52.616q12.711 0 20.663-8.962 7.952-8.961 7.952-20.548v-97.058q0-12.586-7.952-21.432-7.952-8.846-20.663-8.846h-136v-92.846h164.615v-30.77h-81.231v-42.692h-30.769v42.692h-53.616q-11.846 0-20.807 8.962-8.962 8.961-8.962 21.548v96.058q0 12.586 8.962 20.202 8.961 7.615 20.807 7.615h134.847v95.307H382.692v30.77h83.385v42.692ZM175.384-200q-23.057 0-39.221-16.163Q120-232.327 120-255.384v-449.232q0-23.057 16.163-39.221Q152.327-760 175.384-760h609.232q23.057 0 39.221 16.163Q840-727.673 840-704.616v449.232q0 23.057-16.163 39.221Q807.673-200 784.616-200H175.384Z"/></svg>