<svg xmlns="http://www.w3.org/2000/svg" width="48" height="48" viewBox="0 0 48 48"><path d="m26.1 33.8 6.05-6.3q.45-.4.65-.975t.2-1.175q0-1.3-.875-2.2-.875-.9-2.125-.9-1 0-1.975.55-.975.55-1.925 1.95-.9-1.35-1.9-1.925-1-.575-2-.575-1.25 0-2.125.9t-.875 2.2q0 .6.2 1.175.2.575.6.975Zm.75 7.75q-.45.5-1.1.5-.65 0-1.1-.5L6.5 23.45q-.25-.3-.375-.6T6 22.25V7.55q0-.65.45-1.1Q6.9 6 7.55 6h14.7q.3 0 .6.1t.55.35L41.5 24.5q.5.55.525 1.225.025.675-.475 1.125Zm-14.2-27.1q.75 0 1.275-.55.525-.55.525-1.3 0-.7-.525-1.225-.525-.525-1.275-.525-.75 0-1.275.525-.525.525-.525 1.225 0 .75.525 1.3t1.275.55Z"/></svg>