<svg xmlns="http://www.w3.org/2000/svg" width="48" height="48" viewBox="0 0 48 48"><path d="M24 44q-6.1 0-11.175-3.6-5.075-3.6-7.475-9.05v7.25H3.8v-10h10v1.55H6.55q2 5.3 6.925 8.8Q18.4 42.45 24 42.45q3.65 0 6.9-1.325 3.25-1.325 5.725-3.675Q39.1 35.1 40.65 31.9q1.55-3.2 1.75-6.9h1.55q-.2 3.95-1.85 7.425-1.65 3.475-4.3 6.05-2.65 2.575-6.225 4.05Q28 44 24 44ZM4.05 23Q4.3 18.85 6 15.35t4.4-6.025Q13.1 6.8 16.6 5.4T24 4q6 0 11.175 3.6 5.175 3.6 7.475 9.2V9.4h1.55v10h-10v-1.55h7.25q-1.9-5.1-6.8-8.7-4.9-3.6-10.65-3.6-3.5 0-6.75 1.275t-5.75 3.6Q9 12.75 7.4 15.95 5.8 19.15 5.6 23ZM24 31l-2.15-4.85L17 24l4.85-2.2L24 16.95l2.2 4.85 4.85 2.2-4.85 2.15Z"/></svg>