<svg xmlns="http://www.w3.org/2000/svg" width="48" height="48" viewBox="0 0 48 48"><path d="m8.75 33.9 7.3-19.8h1.55l7.45 19.8h-1.7l-2.1-5.9h-8.9l-2.05 5.9Zm4.1-7.25h7.95l-3.95-10.9h-.05Zm20.55 7.7q-2.05 0-3.25-1.1-1.2-1.1-1.2-2.95 0-2.15 1.45-3.45 1.45-1.3 3.8-1.3 1 0 2.025.225t1.725.625v-1.2q0-2.15-.975-3.2-.975-1.05-2.925-1.05-1 0-1.9.325-.9.325-1.85.975l-.9-.95q1.15-.85 2.2-1.225 1.05-.375 2.4-.375 2.65 0 3.95 1.425 1.3 1.425 1.3 4.275v8.5h-1.3v-2.1h-.2q-.75 1.35-1.8 1.95-1.05.6-2.55.6Zm-.1-1.2q2.05 0 3.35-1.55 1.3-1.55 1.3-3.95-.6-.4-1.575-.625-.975-.225-1.925-.225-1.9 0-3.025.95T30.3 30.3q0 1.3.8 2.075.8.775 2.2.775Z"/></svg>