<svg xmlns="http://www.w3.org/2000/svg" width="48" height="48" viewBox="0 -960 960 960"><path d="M312.308-260h30.769v-84.615h84.615v-30.77h-84.615V-460h-30.769v84.615h-84.616v30.77h84.616V-260ZM520-392.308h220v-26.154H520v26.154Zm0 95.385h140v-26.154H520v26.154ZM175.384-120q-23.057 0-39.221-16.163Q120-152.327 120-175.384v-409.232q0-23.057 16.163-39.221Q152.327-640 175.384-640h238.462v-169.231q0-11.942 9.435-21.356Q432.715-840 444.687-840h70.841q11.972 0 21.299 9.413 9.327 9.414 9.327 21.356V-640h238.462q23.057 0 39.221 16.163Q840-607.673 840-584.616v409.232q0 23.057-16.163 39.221Q807.673-120 784.616-120H175.384Zm269.231-444.616h70.77v-244.615h-70.77v244.615Z"/></svg>