<svg xmlns="http://www.w3.org/2000/svg" width="48" height="48"><path d="M23.25 35.05h1.5v-6h6v-1.5h-6v-6h-1.5v6h-6v1.5h6zM8.75 42q-1.15 0-1.95-.8T6 39.25v-22.5q0-1.15.8-1.95t1.95-.8H18v-3.25q0-1.15.8-1.95t1.95-.8h6.5q1.15 0 1.95.8t.8 1.95V14h9.25q1.15 0 1.95.8t.8 1.95v22.5q0 1.15-.8 1.95t-1.95.8zm0-1.55h30.5q.45 0 .825-.375.375-.375.375-.825v-22.5q0-.45-.375-.825-.375-.375-.825-.375H8.75q-.45 0-.825.375-.375.375-.375.825v22.5q0 .45.375.825.375.375.825.375zM19.55 14h8.9v-3.25q0-.45-.375-.825-.375-.375-.825-.375h-6.5q-.45 0-.825.375-.375.375-.375.825zm-12 26.45v-24.9 24.9z"/></svg>