<svg xmlns="http://www.w3.org/2000/svg" width="48" height="48" viewBox="0 96 960 960"><path d="M160 296v-30.77h400V296H160Zm160 480h80V676h100v-80H400V496h-80v100H220v80h100v100ZM175.384 896q-23.057 0-39.221-16.163Q120 863.673 120 840.616V431.384q0-23.057 16.163-39.221Q152.327 376 175.384 376h369.232q23.057 0 39.221 16.163Q600 408.327 600 431.384v409.232q0 23.057-16.163 39.221Q567.673 896 544.616 896H175.384Zm0-30.769h369.232q9.23 0 16.923-7.692 7.692-7.693 7.692-16.923V431.384q0-9.23-7.692-16.923-7.693-7.692-16.923-7.692H175.384q-9.23 0-16.923 7.692-7.692 7.693-7.692 16.923v409.232q0 9.23 7.692 16.923 7.693 7.692 16.923 7.692ZM760 645.223q-35-16.069-57.5-51.852T680 511.356q0-56.996 27.769-96.176Q735.539 376 775.385 376q39.846 0 67.615 39.199 27.77 39.199 27.77 95.842 0 46.547-22.5 82.33t-57.5 51.852v235.393q0 6.577-4.431 10.98Q781.908 896 775.358 896q-6.589 0-10.973-4.404-4.385-4.403-4.385-10.98V645.223ZM775.562 616Q795 616 817.5 587.595 840 559.19 840 511.398t-22.677-76.211q-22.678-28.418-42.116-28.418t-41.937 28.405q-22.5 28.405-22.5 76.197t22.677 76.211Q756.125 616 775.562 616ZM360 636Zm415.385-124.616Z"/></svg>