<svg xmlns="http://www.w3.org/2000/svg" width="48" height="48" viewBox="0 -960 960 960"><path d="M264.615-384.615h30.77v-190.77h-30.77v190.77Zm200 0h30.77v-190.77h-30.77v190.77Zm200 0h30.77v-190.77h-30.77v190.77ZM175.384-270.769h609.232q9.23 0 16.923-7.692 7.692-7.693 7.692-16.923v-369.232q0-9.23-7.692-16.923-7.693-7.692-16.923-7.692H175.384q-9.23 0-16.923 7.692-7.692 7.693-7.692 16.923v369.232q0 9.23 7.692 16.923 7.693 7.692 16.923 7.692Zm-24.615 0v-418.462 418.462ZM224.615-160v-80h-49.231q-23.057 0-39.221-16.163Q120-272.327 120-295.384v-369.232q0-23.057 16.163-39.221Q152.327-720 175.384-720h49.231v-80h30.77v80h209.23v-80h30.77v80h209.23v-80h30.77v80h49.231q23.057 0 39.221 16.163Q840-687.673 840-664.616v369.232q0 23.057-16.163 39.221Q807.673-240 784.616-240h-49.231v80h-30.77v-80h-209.23v80h-30.77v-80h-209.23v80h-30.77Z"/></svg>