<svg xmlns="http://www.w3.org/2000/svg" width="48" height="48" viewBox="0 -960 960 960"><path d="m318.461-123.307-30.769-23.462v-157.846h-56.923q-22.25 0-38.817-16.568Q175.384-337.75 175.384-360v-309.231H160q-6.577 0-10.981-4.411-4.404-4.412-4.404-11.116t4.404-10.973Q153.423-700 160-700h127.692v-78.462h-36.923q-6.577 0-10.981-4.411-4.404-4.412-4.404-11.116t4.404-10.973q4.404-4.269 10.981-4.269h104.616q6.538 0 10.961 4.431 4.423 4.43 4.423 10.98 0 6.589-4.423 10.974-4.423 4.384-10.961 4.384h-36.924V-700h127.693q6.538 0 10.961 4.431 4.424 4.43 4.424 10.98 0 6.589-4.424 10.974-4.423 4.384-10.961 4.384h-15.385V-360q0 22.25-16.567 38.817-16.567 16.568-38.817 16.568h-56.924v181.308Zm338.285-21.308q-52.746 0-90.131-37.51-37.384-37.509-37.384-90.182v-280.001q0-52.673 37.561-90.183Q604.354-680 657.1-680q52.746 0 90.131 37.509 37.385 37.51 37.385 90.183v280.001q0 52.673-37.562 90.182-37.562 37.51-90.308 37.51Zm-425.977-190.77h144.616q10.769 0 17.692-6.923T400-360v-66.154h-86.923q-7.077 0-12.385-5.308-5.308-5.307-5.308-12.384t5.308-12.385q5.308-5.308 12.385-5.308H400v-81.538h-86.923q-7.077 0-12.385-5.308-5.308-5.307-5.308-12.384t5.308-12.385q5.308-5.308 12.385-5.308H400v-90.769H206.154V-360q0 10.769 6.923 17.692t17.692 6.923Zm426.539-313.846q-40.077 0-68.693 28.231Q560-592.769 560-552.308v24.616h193.846v-24.616q0-40.461-28.23-68.692-28.231-28.231-68.308-28.231ZM560-327.692h193.846v-169.231H560v169.231Zm96.923 152.308q40.462 0 68.693-28.568 28.23-28.567 28.23-68.355v-24.616H560v24.616q0 39.788 28.567 68.355 28.568 28.568 68.356 28.568Zm0-352.308Zm0 230.769Z"/></svg>