<svg xmlns="http://www.w3.org/2000/svg" width="48" height="48" viewBox="0 -960 960 960"><path d="M295.38-80q-22.44 0-38.91-16.47Q240-112.94 240-135.38v-689.24q0-23.23 16.08-39.3Q272.15-880 295.38-880h371.08q23.21 0 39.3 16.47 16.09 16.47 16.09 38.91v140.77q15.69-.07 26.92 10.03Q760-663.71 760-649.11v68.26q0 15.16-11.23 25.31-11.23 10.16-26.92 10.08v410.08q0 22.44-16.09 38.91Q689.67-80 666.46-80H295.38Zm169.24-240.31h30.76v-216.77h-30.76v216.77Zm30.42-278.71q6.42-6.41 6.42-15.04 0-9.4-6.54-15.44-6.54-6.04-15.54-6.04t-14.92 6.02q-5.92 6.02-5.92 15.04t6.4 15.44q6.41 6.42 15.04 6.42 8.64 0 15.06-6.4Z"/></svg>