<svg xmlns="http://www.w3.org/2000/svg" width="48" height="48" viewBox="0 96 960 960"><path d="M464.615 954v-56.538Q333.769 885.769 252 804t-93.462-212.615H102v-30.77h56.538Q170.231 429.769 252 348t212.615-93.92V198h30.77v55.769Q626.231 266.231 708 348q81.769 81.769 93.92 212.615H858v30.77h-55.769Q789.769 722.231 708 804q-81.769 81.769-212.615 93.462V954h-30.77ZM480 866.923q120.385 0 205.654-85.269Q770.923 696.385 770.923 576q0-120.385-85.269-205.654Q600.385 285.077 480 285.077q-120.385 0-205.654 85.269Q189.077 455.615 189.077 576q0 120.385 85.269 205.654Q359.615 866.923 480 866.923Zm0-175.538q-48.039 0-81.712-33.673T364.615 576q0-48.039 33.673-81.712T480 460.615q48.039 0 81.712 33.673T595.385 576q0 48.039-33.673 81.712T480 691.385Zm-.061-30.77q35.753 0 60.215-24.4 24.461-24.4 24.461-60.154 0-35.753-24.4-60.215-24.4-24.461-60.154-24.461-35.753 0-60.215 24.4-24.461 24.4-24.461 60.154 0 35.753 24.4 60.215 24.4 24.461 60.154 24.461ZM480 576Z"/></svg>