<svg xmlns="http://www.w3.org/2000/svg" width="48" height="48" viewBox="0 96 960 960"><path d="M797.693 591.154q-12.308 0-21.539-9.231-9.231-9.231-9.231-21.538V343.692q0-12.308 9.231-21.538 9.231-9.231 21.654-9.231t21.538 9.231q9.116 9.23 9.116 21.538v216.693q0 12.307-9.231 21.538t-21.538 9.231ZM301.869 896q-8.408 0-16.317-3.423-7.909-3.423-13.911-9.757L90.307 702.923l29.847-30.262q6.307-6.354 13.807-10.007 7.501-3.654 15.731-.962L280 691.23V316q0-25.077 17.461-42.539Q314.923 256 340 256t42.539 17.461Q400 290.923 400 316v204.615h38.308q4.231 0 7.917 1t7.237 3l127.769 56.77q28.615 12.538 40.5 42.631 11.885 30.094 6.115 61.83l-30.734 177.882q-1.804 14.503-13.454 23.388Q572.007 896 557.231 896H301.869Zm-3.254-30.769H565l33-192.077q3.077-16.154-1.538-34.231-4.616-18.077-23.077-25.769l-140.693-64.539h-63.461V316q0-13.154-8.082-21.192-8.083-8.039-21.308-8.039-13.226 0-21.149 8.039-7.923 8.038-7.923 21.192v412.077L145.231 692l-10.693 10.692 164.077 162.539Zm0 0h264.077-264.077Z"/></svg>