<svg xmlns="http://www.w3.org/2000/svg" width="48" height="48" viewBox="0 -960 960 960"><path d="M685-120q-14.231 0-26.577-12.731-12.346-12.73-12.346-26.192v-107.385q0-14.23 12.346-26.192 12.346-11.961 26.577-11.961h2.308v-40q0-30.616 20.423-52.154 20.423-21.539 50.808-21.539 30.384 0 50.692 21.539 20.308 21.538 20.308 52.154v40h2.538q13.548 0 25.735 11.961Q870-280.538 870-266.308v107.385q0 13.462-12.188 26.192Q845.625-120 832.077-120H685Zm33.077-184.461h81.692v-40q0-18.462-11.884-30.693-11.885-12.231-29.346-12.231-17.693 0-29.077 12.231-11.385 12.231-11.385 30.693v40ZM120-120l720-720v341.846h-81.461q-80.077 0-136.269 56.193-56.193 56.192-56.193 137.038V-120H120Z"/></svg>