<svg xmlns="http://www.w3.org/2000/svg" width="48" height="48" viewBox="0 -960 960 960"><path d="m720-339.077-30.769-30.769v-254.77q0-10.769-6.923-17.692t-17.692-6.923H403.692L372.923-680h14.769v-109.231q0-11.769 7.89-19.731 7.891-7.961 19.554-7.961h137.47q11.663 0 19.529 7.961Q580-801 580-789.231V-680h84.616q22.25 0 38.817 16.578Q720-646.843 720-624.578v285.501ZM623.077-436l-26.154-26.154V-580h26.154v144Zm-130-126.923-10-10.769V-580h10v17.077ZM413.846-680h140v-110.77h-140V-680ZM326.1-129.23q-13.1 0-21.908-8.847-8.808-8.846-8.808-21.923-22.25 0-38.817-16.567T240-215.384v-409.232q0-19.923 11.502-34.677 11.503-14.755 29.652-19.553l29.615 29.615h-15.385q-10.769 0-17.692 6.923t-6.923 17.692v409.232q0 10.769 6.923 17.692t17.692 6.923h369.232q10.769 0 17.692-6.923t6.923-17.692v-55.385L720-240v24.616q0 22.25-16.567 38.817T664.616-160q0 13.077-8.862 21.923-8.862 8.847-21.962 8.847t-21.907-8.847q-8.808-8.846-8.808-21.923H356.923q0 13.154-8.862 21.962-8.861 8.808-21.961 8.808Zm524.592 64.384L75.23-840.308l22.231-22.231L872.923-87.077l-22.231 22.231ZM336.923-260v-363.077l26.154 26.154V-260h-26.154Zm130-233.077 26.154 26.154V-260h-26.154v-233.077Zm130 130 26.154 26.154V-260h-26.154v-103.077Zm-47-146.846Zm-63.692 80.616Z"/></svg>