<svg xmlns="http://www.w3.org/2000/svg" width="48" height="48" viewBox="0 96 960 960"><path d="M850.692 991.154 755.538 896H175.384q-23.23 0-39.307-16.077T120 840.616V394.538q0-23.231 16.077-39.307 16.077-16.077 39.307-16.077h67.77l423.154 423.154h-44.462L75.231 215.692l22.23-22.231 775.462 775.462-22.231 22.231ZM840 835.693 622.154 619.077q1.077-31.846-9.269-57.5t-30.346-46.423q-20.77-20.77-46.116-30.5-25.346-9.731-57.808-9.116L322.307 319.231 376.923 256h206.154l73.769 83.154h127.77q23 0 39.192 16.192T840 394.538v441.155Zm-451.077-328.77q-25.769 20.923-39.539 50.115-13.769 29.193-13.769 60.885 0 60 42.193 102.192Q420 762.308 480 762.308q32.462 0 61.269-13.769 28.808-13.77 50.5-38.77l-22.231-21.461q-16.769 20.615-40.23 31.923-23.462 11.307-49.308 11.307-47.308 0-80.462-33.153-33.153-33.154-33.153-80.462 0-26.077 11.577-49.038 11.576-22.962 33.192-39.731l-22.231-22.231Z"/></svg>