<svg xmlns="http://www.w3.org/2000/svg" width="48" height="48" viewBox="0 96 960 960"><path d="M760 769.77 729.231 739V271.384q0-9.23-7.692-16.923-7.693-7.692-16.923-7.692h-273.77l-98.077 97.308-21.692-22.462L416.692 216h287.924q23.211 0 39.298 16.163Q760 248.327 760 271.384V769.77Zm69.077 213.461L264.308 417.462 230.769 451v429.616q0 9.23 7.692 16.923 7.693 7.692 16.923 7.692h449.232q9.23 0 16.923-7.692 7.692-7.693 7.692-16.923v-40.462L760 870.923v9.693q0 23.057-16.163 39.221Q727.673 936 704.616 936H255.384q-23.057 0-39.221-16.163Q200 903.673 200 880.616v-445.77L240.846 395 86.692 240.846l22-22 742.385 742.385-22 22ZM535 545.539Zm-32.923 108.153Z"/></svg>