<svg xmlns="http://www.w3.org/2000/svg" width="48" height="48" viewBox="0 0 48 48"><path d="M22.6 6.05q.35-.05.725-.05h1.4q.375 0 .725.05L25.3 7.6q-.35-.05-.675-.05h-1.2q-.275 0-.525.05ZM15 8.4q.65-.35 1.275-.625Q16.9 7.5 17.6 7.2l.5 1.5q-.6.2-1.15.425-.55.225-1.1.575Zm17.25 1.35q-.5-.35-1.05-.6t-1.15-.45l.5-1.5 1.3.6q.65.3 1.25.65Zm5.35 4.95q-.35-.55-.75-1-.4-.45-.75-.9l1-1.2q.45.55.925 1.125.475.575.875 1.175Zm-28.45-.8q.35-.55.8-1.125.45-.575.9-1.075l1.05 1.1q-.4.45-.775.925-.375.475-.675.975ZM6.2 21.3q.15-.7.3-1.425.15-.725.4-1.375l1.4.55q-.15.6-.3 1.175-.15.575-.25 1.175Zm34.05.2q-.05-.6-.2-1.175-.15-.575-.3-1.175l1.45-.5q.2.7.35 1.375.15.675.3 1.375Zm-.5 7.4q.15-.6.275-1.175.125-.575.275-1.175l1.5.1q-.15.7-.275 1.375-.125.675-.375 1.375Zm-32-2.3q.1.6.25 1.175.15.575.3 1.175l-1.4.55q-.25-.7-.4-1.4l-.3-1.4Zm28.4 8.5q.4-.45.775-.925.375-.475.725-1.025l1.3.8q-.4.6-.825 1.175-.425.575-.925 1.075ZM10.9 36.35q-.45-.5-.925-1.075Q9.5 34.7 9.1 34.1l1.4-.75q.3.5.7.975.4.475.75.925Zm19.2 2.9q.6-.2 1.15-.45.55-.25 1.05-.6l.85 1.3q-.6.35-1.25.65l-1.3.6ZM17.55 40.8q-.65-.25-1.275-.55-.625-.3-1.225-.65l.8-1.3q.55.35 1.075.6.525.25 1.125.45ZM24 42h-.675q-.375 0-.725-.05l.3-1.55q.35.05 1.1.05h.625q.325 0 .675-.05l.15 1.55q-.35.05-.725.05H24Zm2-7.25q-1.5 0-2.775-.875T21.5 31.45q-.2-.6-.475-1.125-.275-.525-.725-.975l-2.7-2.7q-1.15-1.15-1.75-2.6-.6-1.45-.6-3.05 0-3.3 2.25-5.525 2.25-2.225 5.5-2.225 3 0 5.175 1.9T30.7 19.9h-1.55q-.4-2.25-2.125-3.7Q25.3 14.75 23 14.75q-2.55 0-4.4 1.825Q16.75 18.4 16.75 21q0 1.25.5 2.425.5 1.175 1.45 2.125l2.7 2.7q.55.55.925 1.275.375.725.625 1.525.35.9 1.175 1.55.825.65 1.875.65 1.35 0 2.3-.975.95-.975.95-2.275h1.5q0 1.95-1.375 3.35Q28 34.75 26 34.75Zm1-8q-.7 0-1.225-.525Q25.25 25.7 25.25 25q0-.75.525-1.25t1.225-.5q.75 0 1.25.5t.5 1.25q0 .7-.5 1.225-.5.525-1.25.525Z"/></svg>