<svg xmlns="http://www.w3.org/2000/svg" width="48" height="48"><path d="M34.05 10.75q-1.7-1.35-3.75-2.2-2.05-.85-4.4-1.2V5.8q2.85.45 4.975 1.275Q33 7.9 35.25 9.5zm7.85 11h-1.55q-.3-2.25-1.125-4.275Q38.4 15.45 37 13.65l1.2-1.15q1.75 2.25 2.625 4.425T41.9 21.75zm-3.7 13.3L37 33.9q1.4-1.75 2.225-3.8.825-2.05 1.125-4.35h1.55q-.25 2.65-1.1 4.875-.85 2.225-2.6 4.425zm-12.15 6.7V40.2q2.3-.35 4.35-1.25t3.75-2.2l1.2 1.25Q33.1 39.6 31 40.425q-2.1.825-4.95 1.325zm-12.1-31-1.2-1.25Q15 7.9 17.125 7.075 19.25 6.25 22.1 5.8v1.55q-2.35.35-4.4 1.2-2.05.85-3.75 2.2zm-7.85 11q.2-2.65 1.075-4.825Q8.05 14.75 9.8 12.5l1.2 1.15q-1.4 1.8-2.225 3.825Q7.95 19.5 7.65 21.75zm3.7 13.3q-1.75-2.2-2.6-4.425-.85-2.225-1.1-4.875h1.55q.3 2.3 1.125 4.35T11 33.9zm12.15 6.7q-2.85-.5-4.95-1.325T12.65 38l1.2-1.25q1.7 1.3 3.75 2.2 2.05.9 4.35 1.25zm2.05-9q-3.65 0-6.2-2.55-2.55-2.55-2.55-6.2 0-3.65 2.55-6.2 2.55-2.55 6.2-2.55 3.65 0 6.2 2.55 2.55 2.55 2.55 6.2 0 3.65-2.55 6.2-2.55 2.55-6.2 2.55z"/></svg>