<svg xmlns="http://www.w3.org/2000/svg" width="48" height="48" viewBox="0 -960 960 960"><path d="M390.308-346.385h179.615v-31.384H430.539l139.384-179.769v-31.385H390.308v31.385h139.153L390.308-377.769v31.384ZM180-210.769v-30.77h81.692v-312.153q0-80.496 50.269-141.594 50.27-61.099 129.731-75.022v-28.231q0-16.91 10.496-26.878 10.495-9.968 27.577-9.968 17.081 0 27.812 9.968 10.731 9.968 10.731 26.878v28.231q79.461 13.923 129.846 75.022 50.385 61.098 50.385 141.594v312.153H780v30.77H180Zm300-278.077Zm0 393.462q-25.846 0-45.231-18.501-19.384-18.5-19.384-46.115h129.23q0 27.615-18.5 46.115-18.5 18.5-46.115 18.5ZM292.462-241.54h375.307v-312.153q0-78.616-54.461-133.308-54.462-54.692-133.077-54.692-78.616 0-133.192 54.692-54.577 54.692-54.577 133.308v312.153Z"/></svg>