<svg xmlns="http://www.w3.org/2000/svg" width="48" height="48" viewBox="0 -960 960 960"><path d="M340-300v-30.769h289.231L660-300H340Zm463.769 187.462-91.923-91.154q-48.923 41.077-108.681 62.385Q543.406-120 480-120q-74.7 0-140.4-28.35T225.3-225.3q-48.6-48.6-76.95-114.3Q120-405.3 120-480q0-63.406 21.307-123.165 21.308-59.758 62.385-108.681l-91.154-91.923 22.231-21.462 690.462 690.462-21.462 22.231Zm-23.615-167.154-22.231-22.231q25.154-40.154 38.231-85.393 13.077-45.238 13.077-92.684 0-137.865-95.683-233.548Q617.865-809.231 480-809.231q-47.181 0-92.552 13.077-45.371 13.077-85.525 38.231l-22.231-22.231q44.308-29.539 95.396-44.692Q426.175-840 480-840q74.7 0 140.4 28.35t114.3 76.95q48.6 48.6 76.95 114.3Q840-554.7 840-480q0 53.825-15.154 104.912-15.153 51.088-44.692 95.396Zm-89.769 53.769L225.923-690.385q-36.692 44.77-55.923 98.913Q150.769-537.329 150.769-480q0 137.865 95.683 233.548Q342.135-150.769 480-150.769q57.329 0 111.472-19.231 54.143-19.231 98.913-55.923ZM556.077-556.077Zm-135 135Zm89.077-128.846 102-101.231 22.692 23.462-101.231 101.231-23.461-23.462Z"/></svg>