<svg xmlns="http://www.w3.org/2000/svg" width="48" height="48" viewBox="0 -960 960 960"><path d="M255.384-135.384V-440H320v-162.616L193.384-729.231l126-125.231 21.231 21.231-103.23 104 113.384 113.385V-440h64.616v304.616H255.384Zm289.231 0V-440h64.616v-125.308q-44.308-6.384-74.462-40.938-30.154-34.554-30.154-80.672 0-50.544 34.654-86.429 34.654-35.884 85.347-35.884 50.692 0 85.346 35.916t34.654 86.007q0 46.508-30.154 81.062-30.154 34.554-74.462 40.938V-440h64.616v304.616H544.615Zm80.225-460.001q37.776 0 63.391-26.615 25.615-26.614 25.615-65.076 0-38.463-25.68-64.924-25.68-26.462-63.231-26.462-37.55 0-63.55 26.455t-26 64.692q0 38.238 25.84 65.084 25.84 26.846 63.615 26.846ZM286.154-166.154h98.461v-243.077h-98.461v243.077Zm289.231 0h98.461v-243.077h-98.461v243.077Zm-289.231 0h98.461-98.461Zm289.231 0h98.461-98.461Z"/></svg>