<svg xmlns="http://www.w3.org/2000/svg" width="48" height="48" viewBox="0 -960 960 960"><path d="M643.769-203.615q10.462 0 18.692-7.847 8.231-7.846 8.231-19.076 0-10.462-8.231-18.693-8.23-8.231-18.692-8.231-11.231 0-19.077 8.231-7.846 8.231-7.846 18.693 0 11.23 7.846 19.076 7.846 7.847 19.077 7.847Zm82.308 0q10.462 0 18.692-7.847Q753-219.308 753-230.538q0-10.462-8.231-18.693-8.23-8.231-18.692-8.231-11.231 0-19.077 8.231-7.846 8.231-7.846 18.693 0 11.23 7.846 19.076 7.846 7.847 19.077 7.847Zm82.308 0q10.461 0 18.692-7.847 8.231-7.846 8.231-19.076 0-10.462-8.231-18.693-8.231-8.231-18.692-8.231-11.231 0-19.077 8.231-7.846 8.231-7.846 18.693 0 11.23 7.846 19.076 7.846 7.847 19.077 7.847Zm-82.808 128q-63.654 0-108.654-45.5-45-45.5-45-108.423 0-65.359 44.99-110.257 44.99-44.898 109.164-44.898 63.923 0 109.039 44.898 45.115 44.898 45.115 110.257 0 62.923-45.115 108.423-45.116 45.5-109.539 45.5ZM300-620h360v-30.769H300V-620Zm180.769 460H215.384q-22.442 0-38.913-16.471Q160-192.942 160-215.384v-529.232q0-22.442 16.471-38.913Q192.942-800 215.384-800h529.232q22.442 0 38.913 16.471Q800-767.058 800-744.616v265.924q-18.077-5.308-36.615-8.616-18.539-3.307-37.308-3.307-21.692 0-42.385 3.807Q663-483 643.077-476.923v-18.462H300v30.77h309.385q-39.077 21.077-68.346 53.038-29.27 31.962-47.27 71.577H300v30.769h180.231q-4.539 18.385-7.192 37.154-2.654 18.769-2.654 38.154 0 15.923 2.154 37.308 2.153 21.384 8.23 36.615Z"/></svg>