<svg xmlns="http://www.w3.org/2000/svg" width="48" height="48" viewBox="0 96 960 960"><path d="M196.825 876q-74.594 0-125.71-51.231Q20 773.539 20 698.308q0-73.693 52.168-126.347 52.168-52.653 125.909-52.653 65.615 0 117.192 45.884 51.577 45.885 57.962 116.654h82.538l-90.461-255.077H300V396h154.154v30.769h-56.615l33.692 92.539h250.461l-73.307-198.693q-2.308-6.923-7.693-10.384-5.384-3.462-12.307-3.462h-85V276h82.077q17.846 0 32.038 9.461 14.192 9.462 20.654 26.847l76 207.769h48.769q73.326 0 125.201 51.59Q940 623.257 940 696.177q0 73.823-51.26 126.054-51.26 52.231-125.817 52.231-68.831 0-119.031-46.847-50.2-46.846-58.354-115H373.231q-6.385 70.462-57.962 116.924Q263.692 876 196.825 876Zm.252-30.769q53.131 0 94.527-35.616 41.396-35.615 52.627-97H222.923v-30.769h121.308Q333 620.692 291.615 586.154q-41.384-34.539-93.538-34.539-62.154 0-104.73 42.558-42.578 42.558-42.578 103.75 0 61.635 42.558 104.471 42.558 42.837 103.75 42.837Zm292.692-163.385h96q3.231-27.615 21.654-68.692 18.423-41.077 53.808-63.077h-219l47.538 131.769Zm273.289 163.385q61.25 0 103.711-42.837 42.462-42.836 42.462-104.113 0-61.742-42.558-104.204-42.558-42.462-103.75-42.462-9.384 0-19.154.385-9.769.385-18.384 2.692l41.307 113.77L738.385 679l-42.231-113.538q-39 19.307-59.269 56.846-20.27 37.538-20.27 75.615 0 61.635 42.597 104.471 42.596 42.837 103.846 42.837ZM197.615 697.923Zm565.308 0Z"/></svg>