<svg xmlns="http://www.w3.org/2000/svg" width="48" height="48" viewBox="0 -960 960 960"><path d="M256.923-269.231q-23.058 0-39.221-16.163-16.164-16.164-16.164-39.221V-730.77q0-23.057 16.164-39.221 16.163-16.163 39.221-16.163H475l49.231 49.23h280.385q23.057 0 39.221 16.164Q860-704.597 860-681.539v356.924q0 23.057-16.163 39.221-16.164 16.163-39.221 16.163H256.923Zm487.693 101.539H155.384q-23.057 0-39.221-16.163Q100-200.019 100-223.077v-443.077h30.769v443.077q0 9.231 7.692 16.923 7.693 7.693 16.923 7.693h589.232v30.769ZM353.231-404.846h353.538L598.615-549.308 494.769-418.692l-70.538-76.77-71 90.616Z"/></svg>