<svg xmlns="http://www.w3.org/2000/svg" width="48" height="48" viewBox="0 96 960 960"><path d="M175.384 896q-23.23 0-39.307-16.077T120 840.616V394.538q0-23 16.077-39.192t39.307-16.192h127.77L376.923 256h206.154l73.769 83.154h127.77q23 0 39.192 16.192T840 394.538v446.078q0 23.23-16.192 39.307T784.616 896H495.154V751.923q77.308-7.923 129.5-62.461 52.192-54.539 52.192-131.77h-30.769q0 64.693-47.808 113.808Q550.462 720.615 480 720.615T361.615 671.5q-47.923-49.115-47.923-113.808h-30.769q0 77.231 51.692 131.77 51.693 54.538 129.77 62.461V896H175.384ZM480 600.616q18.231 0 30.577-12.347 12.346-12.346 12.346-30.577V391.385q0-18.231-12.346-30.577-12.346-12.347-30.577-12.347t-30.692 12.347q-12.462 12.346-12.462 30.577v166.307q0 18.231 12.462 30.577 12.461 12.347 30.692 12.347Z"/></svg>