<svg xmlns="http://www.w3.org/2000/svg" width="48" height="48" viewBox="0 -960 960 960"><path d="M224.46-487.23 113.23-598.46l111.23-110.23 109.46 110.23-109.46 111.23ZM398.38-120v-189.77q-60.15-5.15-119.69-12.88T160-343.85l7.31-30.77q77.58 17.7 155.29 25.81 77.7 8.12 157.54 8.12 79.83 0 157.54-8.12 77.7-8.11 155.78-25.81l6.54 30.77q-59.15 13.47-118.68 21.24-59.53 7.78-119.7 12.69V-120H398.38Zm19.39-579.47q-25.46-25.63-25.46-62.23 0-36.61 25.62-62.07 25.63-25.46 62.23-25.46 36.61 0 62.07 25.62 25.46 25.63 25.46 62.23 0 36.61-25.62 62.07-25.63 25.46-62.23 25.46-36.61 0-62.07-25.62Zm16.5 265.46q-18.81-19.24-18.81-45.73t18.73-45.3q18.73-18.81 45.73-18.81 27 0 45.81 18.73 18.81 18.73 18.81 45.22t-18.73 45.81q-18.73 19.32-45.73 19.32-27 0-45.81-19.24Zm252.96-56.76-49.69-87.69 50.02-87.69h97.75L835-578.46l-50.03 87.69h-97.74Z"/></svg>