<svg xmlns="http://www.w3.org/2000/svg" width="48" height="48" viewBox="0 0 48 48"><path d="M22 22.3q-2.35 0-4.05-1.7-1.7-1.7-1.7-4.05 0-2.4 1.7-4.1 1.7-1.7 4.05-1.7 2.35 0 4.05 1.7 1.7 1.7 1.7 4.1 0 2.35-1.7 4.05-1.7 1.7-4.05 1.7Zm20.75 21.55-5.6-5.6q-1 .75-2.075 1.05-1.075.3-2.075.3-2.8 0-4.7-1.925Q26.4 35.75 26.4 33q0-2.8 1.925-4.7Q30.25 26.4 33 26.4q2.8 0 4.7 1.925Q39.6 30.25 39.6 33q0 1-.275 2.075-.275 1.075-1.075 2.075l5.6 5.6ZM33 38.1q2.15 0 3.625-1.475T38.1 33q0-2.15-1.475-3.625T33 27.9q-2.15 0-3.625 1.475T27.9 33q0 2.15 1.475 3.625T33 38.1Zm-8.7-10.3q-1.25 2.35-1.35 4.75-.1 2.4.95 4.7H8v-2.9q0-1.35.725-2.325.725-.975 2.025-1.675 2.1-1 5.775-1.975Q20.2 27.4 24.3 27.8Z"/></svg>