<svg xmlns="http://www.w3.org/2000/svg" width="48" height="48" viewBox="0 -960 960 960"><path d="M382.85-504.62q-13.71 0-23.86-11.26-10.14-11.27-8.45-25.2l13.69-106.15q5.69-42.39 38.92-69.89 33.23-27.5 76.85-27.5t76.85 27.5q33.23 27.5 38.92 69.89l13.69 106.15q1.69 13.93-8.45 25.2-10.15 11.26-23.86 11.26h-194.3Zm-2.54-30.76h199.38l-14.46-106.7q-4.23-31.15-28.65-51.46-24.43-20.31-56.58-20.31t-56.58 20.31q-24.42 20.31-28.65 51.46l-14.46 106.7Zm99.69 0Zm-280 320v-57.85q0-26.46 15.15-47.31 15.16-20.84 39.77-32.54 59.31-26.15 115.04-39.61 55.73-13.46 110.04-13.46 54.31 0 109.92 13.57 55.62 13.58 114.93 39.5 24.84 11.7 40 32.54Q760-299.69 760-273.23v57.85H200Zm30.77-30.77h498.46v-27.08q0-15.23-10.27-29.35-10.27-14.11-28.11-23.42-54-26.38-105.61-37.88-51.6-11.5-105.24-11.5-53.64 0-105.86 11.5T268.92-326q-17.84 9.31-28 23.42-10.15 14.12-10.15 29.35v27.08Zm249.23 0Z"/></svg>