<svg xmlns="http://www.w3.org/2000/svg" width="48" height="48" viewBox="0 -960 960 960"><path d="M398.12-538.35q-33.5-33.5-33.5-81.88 0-48.39 33.5-81.89t81.88-33.5q48.38 0 81.88 33.5 33.5 33.5 33.5 81.89 0 48.38-33.5 81.88-33.5 33.5-81.88 33.5-48.38 0-81.88-33.5Zm218.8 322.97v-169.39q22.17 6.19 44.29 14.5 22.11 8.31 43.64 17.19 24.3 11.7 39.73 32.97Q760-298.84 760-273.23v57.85H616.92Zm-243.07-95.39v-83.08q26.15-5.77 52.96-9.03 26.81-3.27 53.19-3.27t52.81 2.88q26.42 2.89 53.34 9.42v83.08h-212.3ZM200-215.38v-57.85q0-25.61 15.31-46.88 15.31-21.27 39.61-32.97 21.53-8.88 43.76-17.19 22.23-8.31 44.4-15.5v170.39H200Z"/></svg>