<svg xmlns="http://www.w3.org/2000/svg" width="48" height="48" viewBox="0 96 960 960"><path d="m554.769 705.154-21.231-22 107.385-107.385-107.385-108.154 21.231-22 108.154 108.154 107.385-108.154 22 22-107.385 108.154 107.385 107.385-22 22L662.923 597 554.769 705.154ZM255.384 976q-22.5 0-38.942-16.442T200 920.616V231.384q0-22.5 16.442-38.942T255.384 176h369.232q22.5 0 38.942 16.442T680 231.384v126.001h-30.769v-64.462H230.769v566.154h418.462v-64.462H680v125.634q0 23.059-16.442 39.405T624.616 976H255.384Z"/></svg>