<svg xmlns="http://www.w3.org/2000/svg" width="48" height="48" viewBox="0 -960 960 960"><path d="M842.231-74.077 715.538-200H175.384q-23.23 0-39.307-16.077T120-255.384v-449.232q0-23.23 16.077-39.307T175.384-760H200l30.769 30.769h-44.462L75.231-840.308l22.23-22.231L863.692-96.308l-21.461 22.231Zm-11.077-153.846L606.077-453.769h133.769q12.846 0 21.231-8.385 8.385-8.384 8.385-21.231v-176.23q0-12.847-8.385-21.231-8.385-8.385-21.231-8.385h-255q-13.615 0-22.384 9.539-8.77 9.538-7.231 23.154v51.923L299.846-760h484.77q23.23 0 39.307 16.077T840-704.616v449.232q0 7.153-2.461 14.077-2.462 6.923-6.385 13.384Z"/></svg>