<svg xmlns="http://www.w3.org/2000/svg" width="48" height="48" viewBox="0 -960 960 960"><path d="M295.384-809.231v246.462l78.308-46.692L452-562.769v-246.462H295.384ZM703.159-92.307q-65.159 0-110.39-45.842-45.231-45.842-45.231-111 0-65.159 46-110.39 46.001-45.23 114.693-45.23 62.342 0 107.056 45.457Q860-313.855 860-248.697q0 65.159-45.841 110.774-45.842 45.616-111 45.616Zm-33.39-84.616 101.462-73.538-101.462-72.77v146.308Zm-193-72.062q0 35.362 8.347 68.597 8.347 33.234 29.192 60.619H215.384q-22.25 0-38.817-16.183Q160-152.134 160-175.154v-609.462q0-22.25 16.567-38.817T215.384-840h449.232q22.25 0 38.817 16.567T720-784.616v309.77q-3.277-.231-6.17-.346-2.893-.116-5.402-.116-96.187 0-163.923 65.852t-67.736 160.471Z"/></svg>