<svg xmlns="http://www.w3.org/2000/svg" width="48" height="48" viewBox="0 -960 960 960"><path d="M480-121.54q-120.77-35.77-200.38-147.11Q200-380 200-518.92v-213.39l280-104.61 280 104.61v200h-30.77v-180L480-803.46l-249.23 90.67v193.87q0 125.61 70.19 227.65T480.2-153.54q27.26-8 59.15-26.46 31.88-18.46 55.11-38.38l18.92 23.76q-30.38 24.31-63.5 43.2-33.11 18.88-69.88 29.88Zm324.27-2.92q-4.27-4.46-4.27-11.11 0-6.66 4.46-10.93t11.11-4.27q6.66 0 10.93 4.46t4.27 11.11q0 6.66-4.46 10.93T815.2-120q-6.66 0-10.93-4.46ZM800-236.92v-209.23h30.77v209.23H800ZM480-481.23Zm59.54 59.78q24.84-24.37 24.84-60.28 0-34.42-25.05-59.27-25.04-24.85-59.53-24.85T420.46-541q-24.84 24.85-24.84 59.27 0 35.91 25.05 60.28 25.04 24.37 59.53 24.37t59.34-24.37ZM480-366.31q-48.38 0-81.77-33.38-33.38-33.39-33.38-81.66 0-48.27 33.33-81.77 33.34-33.5 81.66-33.5 48.31 0 81.81 33.5t33.5 81.89q0 18.69-6 35.85-6 17.15-15.92 31.84L694.69-295l-21.23 22-121.23-118.31q-15.92 11.77-34.27 18.39-18.34 6.61-37.96 6.61Z"/></svg>