<svg xmlns="http://www.w3.org/2000/svg" width="48" height="48" viewBox="0 96 960 960"><path d="m92.077 787-25.154-19.077L236.46 496.384l119.572 140 158.659-255.692 82.077 123.539q-7.538 2-15.231 4.192-7.692 2.192-15 4.346l-50.384-75.153-153.326 250.538-121.443-141L92.077 787Zm777.231 200.539L728.385 847.385q-18.693 14.231-39.731 21.461-21.039 7.231-43.962 7.231-56.218 0-95.801-39.618-39.584-39.617-39.584-95.884t39.618-95.767q39.618-39.501 95.885-39.501t95.767 39.584q39.5 39.583 39.5 95.801 0 23.693-7.731 45.116-7.73 21.423-22.5 40.025l141.693 139.475-22.231 22.231ZM644.551 845.308q43.834 0 74.295-30.321 30.462-30.321 30.462-74.154t-30.321-74.295q-30.321-30.461-74.154-30.461t-74.295 30.321q-30.461 30.32-30.461 74.154 0 43.833 30.321 74.294 30.32 30.462 74.153 30.462Zm67.218-337.231q-8.077-2.923-16-3.769-7.923-.846-15.692-2.077l187.846-297.77 25.154 19.077-181.308 284.539Z"/></svg>