<svg xmlns="http://www.w3.org/2000/svg" width="48" height="48" viewBox="0 -960 960 960"><path d="m791-352.692-23.846-23.846q42.615-45.616 66.961-98.663 24.346-53.048 24.346-120.346 0-68.068-24.346-121.184-24.346-53.115-66.961-98.731L791-839.308q46.82 48.449 73.679 109.032 26.86 60.584 26.86 134.796 0 74.213-26.885 134.501Q837.769-400.692 791-352.692ZM653.539-491.615l-23.847-23.846q15.693-16.924 24.154-36.731 8.462-19.808 8.462-43.423 0-25.154-8.462-44.577-8.461-19.423-24.154-36.347l23.847-23.846q18.307 20.308 30.076 47.039 11.77 26.731 11.77 57.731 0 29.461-11.77 56.577-11.769 27.115-30.076 47.423Zm-305.077 11.384q-49.5 0-82.443-32.942-32.942-32.942-32.942-82.442 0-50.27 32.942-82.827Q298.962-711 348.462-711t82.442 32.558q32.942 32.557 32.942 82.827 0 49.5-32.942 82.442-32.942 32.942-82.442 32.942Zm-280 289.462v-57.846q0-29.539 14.769-48.346 14.769-18.808 40.154-31.5 48.692-23.693 110.884-38.385 62.193-14.692 114.193-14.692t113.692 14.692q61.692 14.692 111.154 38.385 25.385 12.692 40.269 31.5 14.885 18.807 14.885 48.346v57.846h-560Zm30.769-30.769h498.461v-27.077q0-18.308-10.807-31.039-10.808-12.73-27.577-21.73-42.616-23.154-101.308-36.27-58.692-13.115-109.538-13.115-50.847 0-109.654 13.346Q180-324.077 137.385-301.384q-16.308 7.769-27.231 21.115-10.923 13.346-10.923 31.654v27.077ZM348.462-511q35.923 0 60.269-24.346 24.346-24.346 24.346-60.269t-24.346-60.27q-24.346-24.346-60.269-24.346t-60.27 24.346q-24.346 24.347-24.346 60.27t24.346 60.269Q312.539-511 348.462-511Zm0-84.615Zm0 374.077Z"/></svg>