<svg xmlns="http://www.w3.org/2000/svg" width="48" height="48" viewBox="0 -960 960 960"><path d="M110.769-80q-12.461 0-21.615-9.154Q80-98.308 80-110.769v-738.693q0-12.23 9.154-21.5 9.154-9.269 21.615-9.269h738.693q12.23 0 21.5 9.269 9.269 9.27 9.269 21.5v738.693q0 12.461-9.269 21.615-9.27 9.154-21.5 9.154H110.769Zm181.539-40 22-22.461-94.462-94.462h512.462v-190.769h-30.77v160H219.846l94.462-94.462-22-22.461L160-252.308 292.308-120Zm-64.616-412.308h30.77v-160h481.692l-94.462 94.462 22 22.461L800-707.692 667.692-840l-22 22.461 94.462 94.462H227.692v190.769Z"/></svg>