<svg xmlns="http://www.w3.org/2000/svg" width="48" height="48" viewBox="0 -960 960 960"><path d="M411-385.692ZM895.154-299l-157.308-53.461L746.615-381l157.308 52.692L895.154-299ZM900-464.615H746.846v-30.77H900v30.77Zm3.154-167.846-156.308 53.23-9.538-29.308 157.077-51.692 8.769 27.77Zm-617.924 204q-35.307 0-60.269-24.786Q200-478.033 200-513.344q0-17.656 6.881-32.898 6.882-15.242 18.58-26.758L320-668.539v-180.692h30.769v173q0 9.766-3.731 18.922-3.73 9.155-10.192 16.386l-90.154 89.154q-7.349 7.431-11.636 17.34-4.287 9.909-4.287 21.057 0 22.295 15.96 38.218 15.959 15.923 38.162 15.923 14.801 0 23.378-4.846t20.808-15.846q18.615-14.846 38.784-24.077 20.169-9.231 42.139-9.231 20.077 0 40.115 8.154 20.039 8.154 41.039 25.154 13 11 21.28 15.846 8.281 4.846 22.475 4.846 22.476 0 38.399-15.769 15.923-15.769 15.923-38.795 0-10.59-4.018-21.08-4.018-10.49-10.905-17.894l-90.154-89.154q-6.462-7.231-10.692-16.039-4.231-8.807-4.231-18.5v-172.769H500v179.692L595.539-574q12.384 11.615 18.423 27.196Q620-531.223 620-513.61q0 35.225-24.48 60.187-24.48 24.962-60.52 24.962-23 0-36.577-8.27-13.577-8.269-26.039-19.5-18.846-15.077-33.884-20.653-15.039-5.577-28.5-5.577-13.615 0-28.885 6.384-15.269 6.385-32.499 19.846-12.693 11.231-26.549 19.5-13.856 8.27-36.837 8.27Zm184.001 317.692v-170.923q0-10.903 4.231-19.875 4.23-8.971 10.692-15.433l90.154-89.923q6.887-7.171 10.905-16.732t4.018-20.317q0-8.105-2.095-15.839t-5.905-14.497l22-22Q611-485.462 615.5-472.077q4.5 13.385 4.5 27.846 0 16.77-6.455 31.834t-18.006 26.705L500-290.154v179.385h-30.769Zm-149.231 0v-179.385l-94.539-95.538q-11.698-11.641-18.58-26.705Q200-427.461 200-444.231q0-14.461 5-27.846t12.769-23.462l22.769 21.231q-4.384 6.923-7.077 14.092-2.692 7.168-2.692 16.128 0 10.642 4.346 20.173 4.346 9.531 11.577 16.992L336.846-317q6.718 6.242 10.321 15.457 3.602 9.215 3.602 19.851v170.923H320Zm90-531.154Z"/></svg>