<svg xmlns="http://www.w3.org/2000/svg" width="48" height="48" viewBox="0 96 960 960"><path d="M360 936v-56.923q-100.616-39.692-170.308-118.846T120 576q0-74.7 28.339-140.4 28.34-65.7 76.922-114.3 48.582-48.6 114.257-76.95Q405.194 216 479.866 216q74.673 0 140.41 28.35t114.365 76.95q48.627 48.6 76.993 114.3Q840 501.3 840 576q0 105.077-69.692 184.231T600 879.077V936H360Zm15.385-359.769h209.23V264.154q-25.077-9.077-50.904-13.231-25.826-4.154-53.711-4.154-27.885 0-53.711 4.154-25.827 4.154-50.904 13.06v312.248Zm-224.616 0h193.846V275.615q-86.538 38.923-140.192 119.658-53.654 80.735-53.654 180.958Zm464.616 0h193.846q0-101.149-53.654-181.421-53.654-80.272-140.192-119.195v300.616Z"/></svg>