<svg xmlns="http://www.w3.org/2000/svg" width="48" height="48" viewBox="0 -960 960 960"><path d="M513.231-120q-48.385 0-95.154-13.5Q371.307-147 332-174.692l21.231-22.462q36.615 24.539 76.307 35.462 39.693 10.923 83.693 10.923 119.692 0 203.615-83.923 83.923-83.923 83.923-203.616 0-118.923-83.923-203.23-83.923-84.308-203.615-84.308h-68.923l90.923 90.923-22.462 25.538-131.846-131.846 131.846-131.077 22.462 25.539-90.923 90.153h68.923q131.385 0 224.846 93.462 93.462 93.462 93.462 224.846 0 65.308-25.039 123.27-25.038 57.961-68.538 101.461T636.5-145.038Q578.539-120 513.231-120ZM263.538-266.154 88.461-441.231l175.077-174.308 174.308 174.308-174.308 175.077Z"/></svg>