<svg xmlns="http://www.w3.org/2000/svg" width="48" height="48" viewBox="0 96 960 960"><path d="M446.769 936q-65.308 0-123.269-25.038-57.962-25.039-101.462-68.539T153.5 740.962Q128.461 683 128.461 617.692q0-131.384 93.462-224.846 93.461-93.462 224.846-93.462h68.923l-90.923-90.153 22.462-25.539 131.846 131.077-131.846 131.846-22.462-25.538 90.923-90.923h-68.923q-119.692 0-203.615 84.308-83.923 84.307-83.923 203.23 0 119.693 83.923 203.616 83.923 83.923 203.615 83.923 44 0 83.693-10.923 39.692-10.923 76.307-35.462L628 881.308Q588.693 909 541.923 922.5 495.154 936 446.769 936Zm249.693-146.154L522.154 614.769l174.308-174.308 175.077 174.308-175.077 175.077Z"/></svg>