<svg xmlns="http://www.w3.org/2000/svg" width="48" height="48" viewBox="0 -960 960 960"><path d="m339.23-160-14.615-203.538q0-6.154-4.231-11.154-4.23-5-11.153-6.539-81-11.769-135.116-72.461Q120-514.385 120-596.154q0-90.897 63.557-154.295 63.558-63.397 154.135-63.397 82.539 0 143.616 53.731 61.077 53.73 72.846 135.5.769 6.153 5.384 10.769 4.616 4.615 11.539 4.615l224.154 13.846-96.154-96.154 22-22L853.846-580 721.077-446.461l-22-22.001 96.154-96.153-222.385-13.846q-18.385 0-32.692-11.962-14.308-11.962-17.308-30.885-10.308-69.769-62.462-115.769-52.153-46-122.692-46-78.077 0-132.5 54.423t-54.423 132.5q0 70.539 45.885 122.192Q242.538-422.308 312.051-412q19.18 3 31.257 17.308 12.077 14.307 12.077 32.692L370-160h-30.77Z"/></svg>