<svg xmlns="http://www.w3.org/2000/svg" width="48" height="48" viewBox="0 -960 960 960"><path d="M175.384-200q-23.23 0-39.307-16.192T120-255.384v-449.232q0-23 16.077-39.192T175.384-760h217.924l70.769 70.769h320.539q23 0 39.192 16.192Q840-656.846 840-633.846v378.462q0 23-16.192 39.192T784.616-200H175.384ZM313-349l163.231-163.231L454-534.462 312.769-393.231l-56.231-56.231-22 22L313-349Zm263 0 64-64 64 64 21.231-21.231-64-64 64-64L704-519.462l-64 64-64-64-21.231 21.231 64 64-64 64L576-349Z"/></svg>