<svg xmlns="http://www.w3.org/2000/svg" width="48" height="48" viewBox="0 -960 960 960"><path d="m313-349 163.231-163.231L454-534.462 312.836-393.231l-56.298-56.231-22 22L313-349Zm263 0 64-64 64 64 21.231-21.231-64-64 64-64L704-519.462l-64 64-64-64-21.231 21.231 64 64-64 64L576-349ZM175.384-200q-23.057 0-39.221-16.192Q120-232.384 120-255.384v-449.232q0-23 16.163-39.192Q152.327-760 175.384-760h217.924l70.769 70.769h320.539q23 0 39.192 16.192Q840-656.846 840-633.846v378.462q0 23-16.192 39.192T784.616-200H175.384Zm0-30.769h609.232q10.769 0 17.692-6.923t6.923-17.692v-378.462q0-10.77-6.923-17.693-6.923-6.923-17.692-6.923H452.154l-70.769-70.769H175.384q-10.769 0-17.692 6.923t-6.923 17.692v449.232q0 10.769 6.923 17.692t17.692 6.923Zm-24.615 0v-498.462 498.462Z"/></svg>