<svg xmlns="http://www.w3.org/2000/svg" width="48" height="48" viewBox="0 -960 960 960"><path d="M175.384-200q-23.057 0-39.221-16.163Q120-232.327 120-255.384v-449.232q0-23.057 16.163-39.221Q152.327-760 175.384-760h609.232q23.057 0 39.221 16.163Q840-727.673 840-704.616v449.232q0 23.057-16.163 39.221Q807.673-200 784.616-200H175.384Zm113.77-170.846h123.154q10.923 0 19.307-6.76Q440-384.365 440-395.385v-73.769q0-11.019-8.385-17.779-8.384-6.759-19.307-6.759H295.385v-64.693h113.846v18.539H440v-24.471q0-10.991-8.385-17.914-8.384-6.923-19.307-6.923H289.154q-11.02 0-17.779 7.039-6.76 7.038-6.76 17.73v73.77q0 11.019 6.76 17.778 6.759 6.76 17.779 6.76h120.077v64.462H295.385v-18.308h-30.77v24.471q0 10.991 6.76 17.798 6.759 6.808 17.779 6.808Zm230.846 0h127.692q19.231 0 33.462-14.231 14.231-14.231 14.231-33.461v-122.924q0-19.23-14.231-33.461-14.231-14.231-33.462-14.231H520v218.308Zm30.769-30.769v-156.77h101.539q4.615 0 8.461 3.847 3.846 3.846 3.846 8.461v132.154q0 4.615-3.846 8.461-3.846 3.847-8.461 3.847H550.769Z"/></svg>