<svg xmlns="http://www.w3.org/2000/svg" width="48" height="48"><path d="M24 32.8q-.45 0-.75-.325t-.3-.775q0-.45.3-.75t.75-.3q.45 0 .75.3t.3.75q0 .45-.3.775T24 32.8zm-.75-4.8V15.2h1.55V28zm-8.5 16q-1.15 0-1.95-.8t-.8-1.95V6.75q0-1.15.8-1.95t1.95-.8h18.5q1.15 0 1.95.8t.8 1.95v34.5q0 1.15-.8 1.95t-1.95.8zm-1.2-4.3v1.55q0 .45.375.825.375.375.825.375h18.5q.45 0 .825-.375.375-.375.375-.825V39.7zm0-1.55h20.9V9.85h-20.9zm0-29.85h20.9V6.75q0-.45-.375-.825-.375-.375-.825-.375h-18.5q-.45 0-.825.375-.375.375-.375.825zm0 0V5.55 8.3zm0 31.4v2.75-1.2z"/></svg>