<svg xmlns="http://www.w3.org/2000/svg" width="48" height="48" viewBox="0 -960 960 960"><path d="M267.154-187.692q-20.616 0-33.769-11.616-13.154-11.615-13.154-31.461 0-14.154 7.461-25.269 7.462-11.116 20.616-15.808l175.077-69.539v-171.846q-76.77 92.539-134.77 130.847-58 38.307-142.461 46.769v-31.539q61.077-3.846 114.769-34.192 53.692-30.346 98.692-85.039l56.462-62.692q6.923-9.692 18.115-15.769 11.193-6.077 24.116-6.077h43.384q12.923 0 24.231 6.077 11.308 6.077 19 15.769l55.692 62.692q46.462 53.462 99.308 84.423Q752.769-371 813.846-367.154v31.539q-84.23-8.462-142.346-46.769-58.115-38.308-134.885-130.847v171.846l175.077 69.539q13.154 4.692 20.616 15.808 7.461 11.115 7.461 25.269 0 19.846-13.154 31.461-13.153 11.616-33.769 11.616H398.308v-1.769q0-23.693 12.923-37 12.923-13.308 36.615-13.308h135.308q8.769 0 14.384-5.616 5.616-5.615 5.616-14.384t-5.616-14.385q-5.615-5.615-14.384-5.615H447.846q-40.154 0-64.615 24.692-24.462 24.692-24.462 65.616v1.769h-91.615ZM480-635.539q-26.923 0-45.731-18.807-18.808-18.808-18.808-45.731 0-26.923 18.808-45.731 18.808-18.808 45.731-18.808 26.923 0 45.731 18.808 18.808 18.808 18.808 45.731 0 26.923-18.808 45.731-18.808 18.807-45.731 18.807Z"/></svg>