<svg xmlns="http://www.w3.org/2000/svg" width="48" height="48" viewBox="0 -960 960 960"><path d="M248-240h116.308v-13H301l52.538-147h169.923L576-253h-60.308v13h159.385v-13h-31l-172-467h-25L280-253h-32v13Zm110.538-175L438-637.692 518.461-415H358.538ZM175.384-120q-23.057 0-39.221-16.163Q120-152.327 120-175.384v-609.232q0-23.057 16.163-39.221Q152.327-840 175.384-840h609.232q23.057 0 39.221 16.163Q840-807.673 840-784.616v609.232q0 23.057-16.163 39.221Q807.673-120 784.616-120H175.384Zm0-30.769h609.232q9.23 0 16.923-7.692 7.692-7.693 7.692-16.923v-609.232q0-9.23-7.692-16.923-7.693-7.692-16.923-7.692H175.384q-9.23 0-16.923 7.692-7.692 7.693-7.692 16.923v609.232q0 9.23 7.692 16.923 7.693 7.692 16.923 7.692Zm-24.615 0v-658.462 658.462Z"/></svg>