<svg xmlns="http://www.w3.org/2000/svg" width="48" height="48"><path d="m19.25 20.7-2.75-2.85h15.1l-2.85 2.85zM8 16.55l1.6-3.2h28.8l1.6 3.2zM11.25 12l1.5-3.1h22.5l1.5 3.1zM7.7 38 5.85 17.85h8.75L18.7 22h10.65l4.05-4.15h8.75L40.3 38zm13.8-1.85q.45 0 .775-.225t.525-.675h2.4q.15.45.525.675.375.225.775.225.55 0 .975-.425.425-.425.425-.975 0-.6-.425-1.025-.425-.425-.975-.425-.4 0-.775.25t-.525.7h-2.35q-.1-.15-.125-.225-.025-.075-.125-.175l1.15-2.2H24q.4 0 .775-.25t.525-.65h2.9q.2.45.525.675.325.225.775.225.55 0 .975-.425.425-.425.425-.975 0-.6-.425-1.025-.425-.425-.975-.425-.45 0-.775.25t-.525.7h-2.9q.05 0-.25-.45l1.25-2.15h.2q.55 0 .975-.425.425-.425.425-.975 0-.6-.425-1.025-.425-.425-.975-.425-.45 0-.775.25t-.525.7h-2.4q-.2-.45-.525-.7-.325-.25-.775-.25-.55 0-.975.425-.425.425-.425 1.025 0 .55.425.975.425.425.975.425.45 0 .775-.225t.525-.675h2.35q.1.1.15.225.05.125.15.225l-1.25 2.1H24q-.4 0-.775.25t-.525.7h-2.9q-.2-.45-.525-.7-.325-.25-.775-.25-.55 0-.975.425-.425.425-.425 1.025 0 .55.425.975.425.425.975.425.45 0 .775-.225t.525-.675h2.9q.05.1.25.4l-1.2 2.2q-.05-.05-.1-.05h-.15q-.55 0-.975.425-.425.425-.425 1.025 0 .55.425.975.425.425.975.425z"/></svg>