<svg xmlns="http://www.w3.org/2000/svg" width="48" height="48" viewBox="0 0 48 48"><path d="M6.55 28.25q-1.15 0-1.975-.825-.825-.825-.825-1.975V8.55q0-1.15.825-1.975Q5.4 5.75 6.55 5.75h34.9q1.15 0 1.975.825.825.825.825 1.975v16.9q0 1.15-.825 1.975-.825.825-1.975.825Zm.2 7.35-.1-1.8 34.7-1.8.1 1.75Zm-.15 4.95V38.8h34.8v1.75Zm15-18.7q3.15 0 6.075-1.025Q30.6 19.8 32.85 17.6q.3 1.5 1.575 2.325 1.275.825 2.825.975v-7.8q-1.55.2-2.875 1.025T32.85 16.45q-2.3-2.1-5.2-3.2-2.9-1.1-6.05-1.1-3.35 0-6.45 1.125T9.95 17q2.05 2.6 5.175 3.725T21.6 21.85Z"/></svg>