<svg xmlns="http://www.w3.org/2000/svg" width="48" height="48" viewBox="0 -960 960 960"><path d="M130.769-395.384q-22.442 0-38.913-16.472-16.472-16.471-16.472-38.913v-338.462q0-22.442 16.472-38.913 16.471-16.472 38.913-16.472h698.462q22.442 0 38.913 16.472 16.472 16.471 16.472 38.913v338.462q0 22.442-16.472 38.913-16.471 16.472-38.913 16.472H130.769Zm0-418.462q-10.769 0-17.692 6.923t-6.923 17.692v338.462q0 10.769 6.923 17.692t17.692 6.923h698.462q10.769 0 17.692-6.923t6.923-17.692v-338.462q0-10.769-6.923-17.692t-17.692-6.923H130.769Zm3.769 565.385-1.461-35.385 694.385-36.462 1.461 35.385-694.385 36.462Zm-2.23 99.769v-35.385h695.384v35.385H132.308Zm299.634-374.385q62.748 0 121.266-20.255 58.518-20.254 104.177-64.36 5.769 30.077 31.23 46.346 25.462 16.269 56.77 19.038v-155.384q-31.539 3.769-57.885 20.307-26.346 16.539-30.346 46.847-46.159-42.476-104.239-64.431-58.08-21.954-120.607-21.954-66.948 0-129.205 22.527-62.257 22.527-104.18 74.5Q240.077-567.923 302.6-545.5q62.523 22.423 129.342 22.423ZM106.154-813.846v387.692-387.692Z"/></svg>