<svg xmlns="http://www.w3.org/2000/svg" width="48" height="48" viewBox="0 -960 960 960"><path d="M315.269-9.23q-10.577 0-18.308-7.866-7.73-7.866-7.73-18.289 0-10.461 7.865-18.307 7.865-7.846 18.289-7.846 10.461 0 18.307 7.846 7.846 7.846 7.846 18.423 0 10.577-7.846 18.307-7.846 7.731-18.423 7.731Zm164.542 0q-10.503 0-18.234-7.92-7.731-7.92-7.731-18.424 0-10.503 7.92-18.234 7.92-7.73 18.423-7.73 10.503 0 18.234 7.92 7.731 7.919 7.731 18.422 0 10.504-7.92 18.234-7.92 7.731-18.423 7.731Zm164.616 0q-10.504 0-18.235-7.866-7.73-7.866-7.73-18.289 0-10.461 7.919-18.307 7.92-7.846 18.423-7.846 10.504 0 18.235 7.846 7.73 7.846 7.73 18.423 0 10.577-7.919 18.307-7.92 7.731-18.423 7.731ZM327.692-200q-23 0-39.192-16.192-16.193-16.192-16.193-39.192v-609.232q0-23.057 16.193-39.221Q304.692-920 327.692-920h304.616q23 0 39.192 16.163 16.193 16.164 16.193 39.221v609.232q0 23-16.193 39.192Q655.308-200 632.308-200H327.692Zm0-30.769h304.616q10.769 0 17.692-6.923t6.923-17.692V-300H303.077v44.616q0 10.769 6.923 17.692t17.692 6.923Zm-24.615-100h353.846v-458.462H303.077v458.462Zm0-489.231h353.846v-44.616q0-10.769-6.923-17.692t-17.692-6.923H327.692q-10.769 0-17.692 6.923t-6.923 17.692V-820Zm0 0v-69.231V-820Zm0 589.231V-300v69.231Z"/></svg>