<svg xmlns="http://www.w3.org/2000/svg" width="48" height="48" viewBox="0 -960 960 960"><path d="M451.385-389.154q-29.616-8-49.347-33.23-19.731-25.231-19.731-57.847 0-40.395 28.102-67.775 28.101-27.379 67.769-27.379 38.295 0 65.328 25.841t29.34 63.929q0 1.923-.115 4.346t-.346 5.115h-12.154q-4.803.769-9.44 1.154-4.637.385-9.406 1.385.461-1.923.577-3.462.115-1.538.115-4.461 0-25.924-18.817-44.5-18.817-18.577-45.538-18.577-26.722 0-45.684 18.778-18.961 18.779-18.961 45.356 0 23.002 14.154 40.511 14.154 17.509 35.538 22.816-4.331 5.679-6.704 13.07-2.373 7.392-4.68 14.93Zm26.307-91.077ZM413.384-120l-16.153-114.461q-22.077-7-48.462-21.693-26.384-14.692-44.692-31.538l-105.693 47.846-66.846-118.616 94.154-69.769q-2-12.077-3.269-25.5-1.269-13.423-1.269-25.115 0-11.692 1.269-25.116 1.269-13.423 3.269-27.807l-94.154-70.539 66.846-116.308 104.924 46.308q20.615-16.846 45.461-31.154 24.846-14.307 47.692-21.077L413.384-840h133.232l16.153 115.231q25.154 9.307 47.808 21.961 22.654 12.654 43.038 30.5l108.77-46.308 66.077 116.308-97.231 71.616q3.308 13.846 3.808 26.5t.5 23.961h-32.308q0-18.461-2-32.038-2-13.577-5.231-29.346l92.462-69-40-69.693-105.231 44.462q-19.154-21.385-49.692-40.039Q563-694.539 534.923-698l-13.644-111.231h-82.971l-12.462 110.462q-32.461 6.23-58.885 21.307-26.423 15.077-51.73 40.847l-103.693-43.693-40 69.693 90.923 66.692q-4.769 14.692-6.884 30.808-2.116 16.115-2.116 33.304 0 17.569 2.116 32.536 2.115 14.967 6.115 30.429l-90.154 67.461 40 69.693 102.923-43.693q24.462 24.905 56.424 41.03 31.961 16.124 67.423 24.124V-120h-24.924ZM566-120q-15.385 0-26.154-10.769t-10.769-26.154V-350q0-14.154 8.231-23.923 8.23-9.769 20.153-11.616L579.846-340h50.769l-25.384-50.769H656L681.385-340h50.769l-25.385-50.769h50.77L782.923-340h50.77l-25.385-50.769h22.308q15.384 0 26.153 10.769 10.77 10.769 10.77 26.154v196.923q0 15.385-10.77 26.154Q846-120 830.616-120H566Zm-1.538-35.385h267.692v-149.23H564.462v149.23Zm-86.77-324.846Z"/></svg>