<svg xmlns="http://www.w3.org/2000/svg" width="48" height="48" viewBox="0 -960 960 960"><path d="m413.384-120-16.153-114.461q-22.077-7-48.462-21.693-26.384-14.692-44.692-31.538l-105.693 47.846-66.846-118.616 94.154-69.769q-2-12.077-3.269-25.5-1.269-13.423-1.269-25.115 0-11.692 1.269-25.116 1.269-13.423 3.269-27.807l-94.154-70.539 66.846-116.308 104.924 46.308q20.615-16.846 45.461-31.154 24.846-14.307 47.692-21.077L413.384-840h133.232l16.153 115.231q25.154 9.307 47.808 21.961 22.654 12.654 43.038 30.5l108.77-46.308 66.077 116.308-101.077 76.154q0 1.539.385 3.077.384 1.539.384 3.077H563.972q-11.518-24.085-34.322-39.735-22.804-15.65-51.958-15.65-39.242 0-67.313 27.687-28.072 27.687-28.072 67.698 0 29.923 15.539 52.923 15.539 23 40.462 34.693V-120h-24.924Zm171.077 0q-21.923 0-36.346-14.807-14.423-14.808-14.423-35.962V-340q0-21.154 14.423-35.962 14.423-14.807 36.346-14.807h50.77l33.846-33.846h67.692l33.847 33.846h50.769q21.154 0 35.961 14.807 14.808 14.808 14.808 35.962v169.231q0 21.154-14.808 35.962Q842.539-120 821.385-120H584.461Zm118.462-67.692q27.923 0 47.808-19.885 19.885-19.884 19.885-47.808 0-27.923-19.885-47.807-19.885-19.885-47.808-19.885-28.692 0-48.192 19.885-19.5 19.884-19.5 47.807 0 27.924 19.5 47.808 19.5 19.885 48.192 19.885Z"/></svg>