<svg xmlns="http://www.w3.org/2000/svg" width="48" height="48" viewBox="0 -960 960 960"><path d="M60-455.615v-242.462h81.461v-186.538q0-7.039 4.181-11.212T156.873-900q7.05 0 11.204 4.173 4.154 4.173 4.154 11.212v186.538h81.461v242.462H60ZM141.46-60v-163.077q-34.769-9.154-58.115-34.808Q60-283.538 60-318.538v-106.308h193.692v106.308q0 35-23.23 60.653-23.231 25.654-58.231 34.808V-60h-30.77Zm241.693-395.615v-242.462h81.461v-186.538q0-7.039 4.181-11.212T480.027-900q7.05 0 11.204 4.173 4.154 4.173 4.154 11.212v186.538h81.461v242.462H383.154ZM464.615-60v-163.077q-34-9.154-57.73-34.808-23.731-25.653-23.731-60.653v-106.308h193.692v106.308q0 35-23.231 60.653-23.23 25.654-58.23 34.808V-60h-30.77Zm241.693-395.615v-242.462h81.461v-186.538q0-7.039 4.181-11.212T803.181-900q7.05 0 11.204 4.173 4.154 4.173 4.154 11.212v186.538H900v242.462H706.308ZM787.769-60v-163.077q-34-9.154-57.731-34.808-23.73-25.653-23.73-60.653v-106.308H900v106.308q0 35-23.346 60.653-23.346 25.654-58.115 34.808V-60h-30.77Z"/></svg>