<svg xmlns="http://www.w3.org/2000/svg" width="48" height="48" viewBox="0 -960 960 960"><path d="M580.061-384.615q23.554 0 39.439-15.946 15.885-15.946 15.885-39.5 0-23.554-15.928-39.439-15.928-15.885-39.457-15.885-12.967 0-23.522 5.116-10.555 5.115-18.247 14.577L394.385-548q1-3 1-6v-12.385q0-3.384-1-6.384l143.076-71.539q7.693 9.462 18.632 14.577 10.94 5.116 23.907 5.116 23.529 0 39.457-15.946t15.928-39.5q0-23.554-15.946-39.439-15.946-15.885-39.5-15.885-23.554 0-39.439 15.928-15.885 15.928-15.885 39.457v6q0 3 1 6.769l-143.076 71.539q-7.693-9.462-18.632-14.577-10.94-5.116-23.907-5.116-23.529 0-39.457 15.946t-15.928 39.5q0 23.554 15.928 39.439 15.928 15.885 39.457 15.885 12.967 0 23.907-5.5 10.939-5.5 18.632-14.962l143.076 72.308q-1 3.769-1 6.769v6q0 23.529 15.946 39.457t39.5 15.928ZM120-156.923v-627.693q0-23.057 16.163-39.221Q152.327-840 175.384-840h609.232q23.057 0 39.221 16.163Q840-807.673 840-784.616v449.232q0 23.057-16.163 39.221Q807.673-280 784.616-280H243.077L120-156.923Z"/></svg>