<svg xmlns="http://www.w3.org/2000/svg" width="48" height="48" viewBox="0 -960 960 960"><path d="M520-120q-23.06 0-39.22-16.16-16.16-16.17-16.16-39.22V-360q0-23.06 16.16-39.22T520-415.38h304.62q23.05 0 39.22 16.16Q880-383.06 880-360v184.62q0 23.05-16.16 39.22Q847.67-120 824.62-120H520Zm0-30.77h304.62q10.76 0 17.69-6.92 6.92-6.93 6.92-17.69v-96.93H495.38v96.93q0 10.76 6.93 17.69 6.92 6.92 17.69 6.92Zm-24.62-152.31h353.85V-360q0-10.77-6.92-17.69-6.93-6.93-17.69-6.93H520q-10.77 0-17.69 6.93-6.93 6.92-6.93 17.69v56.92ZM200-519.15v-213.39l280-104.61 280 104.61v231H520q-59.19 0-100.37 41.17-41.17 41.18-41.17 100.37v178.08q0 2.23.23 3.84.23 1.62 1.46 4.23-81.3-54.46-130.73-146.3Q200-412 200-519.15Z"/></svg>