<svg xmlns="http://www.w3.org/2000/svg" width="48" height="48" viewBox="0 -960 960 960"><path d="M255.62-132.21q-16-16.6-16-40.23 0-23.64 16.21-40.02 16.21-16.39 39.84-16.39 23.64 0 40.02 16.6 16.39 16.6 16.39 40.23 0 23.64-16.6 40.02-16.6 16.38-40.23 16.38-23.63 0-39.63-16.59Zm375.38 0q-16-16.6-16-40.23 0-23.64 16.21-40.02 16.21-16.39 39.85-16.39 23.63 0 40.02 16.6 16.38 16.6 16.38 40.23 0 23.64-16.6 40.02-16.59 16.38-40.23 16.38-23.63 0-39.63-16.59ZM214.23-780.23h520.61q26.04 0 39.18 21.38 13.13 21.39 1.13 43.93L664-512.69q-8.69 14.38-22.41 22.81-13.71 8.42-29.21 8.42H324l-54.46 100.15q-5.39 9.23 0 20 5.38 10.77 16.92 10.77h441v30.77H290.85q-33.54 0-48.58-24.15-15.04-24.16.11-52.23l64.77-116.47-150.46-316.61H84.85V-860h91.61l37.77 79.77Z"/></svg>