<svg xmlns="http://www.w3.org/2000/svg" width="48" height="48" viewBox="0 -960 960 960"><path d="M294.54-241.31 90.92-279.92q-5.84-.46-9.77-5.96-3.92-5.5-2.69-11.35 1.23-6.85 6.73-10.27t11.35-2.96l207.08 39.61-9.08 29.54ZM332-372.85l-237.54-65.3q-6.61-1.47-9.54-7.08-2.92-5.62-.69-12.23 1.46-5.85 6.69-8.77t11.08-1.46l238.31 65.31-8.31 29.53ZM124.85-110.46q-5.85-.46-10.12-5.23-4.27-4.77-3.81-11.62 1-5.84 5.89-10.11 4.88-4.27 10.96-3.81L461-110.77q36.31 3.77 66.23-17.15 29.92-20.93 39.69-56l48.93-177.7q2.77-10.3 2.65-20.46-.12-10.15-4.65-20.46l-93.7-183.38-6.77 156.77-302.3-156.23q-5.62-2.16-7.7-8.39-2.07-6.23 1.62-12.61 2.92-4.85 8.77-6.81t12.23.96l257.31 133.77 4-103.62q1-8.3 4.92-16.69 3.92-8.38 10.31-13.31 6.38-5.15 14.11-5.73 7.73-.57 15.58 2.12l7.08 1.15 102.61 201.31q7.23 13.92 7.85 29.85.61 15.92-3.62 31.07l-49.92 176.69q-12.69 45.08-52.04 72.97-39.34 27.88-86.65 22.88l-332.69-30.69ZM306-722.08q4.62-4.15 10.46-3.54 5.85.62 10 5.24l96.92 115.84q-.69 5.08-.8 10.16-.12 5.07.65 10.15l-39.31-20.54-81.15-96.08q-4.15-5.38-3.15-11.23 1-5.84 6.38-10Zm107.31-119.54q4.61-4.15 10.84-3.3 6.23.84 9.39 6.46l109.54 157.31q-9.31-2.16-18.96-2.43-9.66-.27-18.97 1.58l-96.77-139.38q-3.15-4.85-1.92-10.58t6.85-9.66Zm187.61-36.15q5.62-2.69 11.35-.5 5.73 2.19 8.42 8.04l111.54 268.31L803-679.46q6.15-7.16 14.27-10.62 8.11-3.46 16.73-3.23 9.38 1 18.04 5.31 8.65 4.31 13.58 11.69l3.38 5.85-56.62 219.54q-4.23 15.69-13.3 28-9.08 12.3-22 21L712.69-359q1.16-9 1.89-18.77t.27-18.77l43.38-29.77q8.77-5.77 15.42-14.42 6.66-8.65 9.43-18.96l54.46-211.16-115.08 126.08L592.62-858q-2.7-5.62 0-11.35 2.69-5.73 8.3-8.42ZM441.77-304.54Zm280.69-240.23Z"/></svg>