<svg xmlns="http://www.w3.org/2000/svg" width="48" height="48" viewBox="0 -960 960 960"><path d="M215.384-103.846q-6.846 0-11.115-4.269T200-119.231q0-6.846 4.269-11.115t11.115-4.269h140.001v-80H135.384q-6.846 0-11.115-4.269Q120-223.154 120-230t4.269-11.115q4.269-4.27 11.115-4.27h220.001v-79.999h-260q-6.847 0-11.116-4.27-4.27-4.269-4.27-11.115t4.27-11.116q4.27-4.269 11.115-4.269h260.001v-80H175.384q-6.846 0-11.115-4.269T160-451.538q0-6.847 4.269-11.116 4.269-4.269 11.115-4.269h287.154l-59.769-106.769q-4.923-7.616-4.077-17.231.846-9.615 8-15.231l21.539-19.231L666-448q18.692 14.462 28.654 34 9.961 19.539 9.961 42.462v172.307q0 39.847-27.769 67.616t-67.615 27.769H215.384Zm112.539-430.769-53.692-40.154q-5.616-4.154-6.347-10.27-.73-6.115 3.424-11.73 4.153-5.616 10.269-6.347 6.115-.73 10.961 3.424l42.847 31.615q1.538 9 4.846 17.231 3.308 8.231 7.923 16.231h-20.231Zm-54.769-198.462q4.154-5.616 10.269-6.731 6.115-1.115 10.962 3.039l85.692 64.846L365-658.154q-2.308 2.308-4.231 3.846-1.923 1.539-2.692 3.847l-82-60.616q-5.616-4.154-6.346-10.269-.731-6.116 3.423-11.731Zm553.615 235.538-63.692 85.078q-4.846-28.077-19.962-49.731-15.115-21.654-36.961-38.577L491.077-661l13.615-18.461-194-144.693q-5.615-4.154-6.846-9.885-1.231-5.73 2.923-11.346 4.154-5.615 10.269-6.346 6.116-.731 11.731 3.423l209.077 154.231 47.308-63.692-144.846-107.693q-5.616-4.154-5.962-9.884-.346-5.731 3.808-11.347 4.154-5.615 9.884-6.73 5.731-1.116 10.577 3.038l230.616 171.846 15.846-121.077q1.231-8.846 7.5-15.615t15.115-8l28.924-2.923 84.077 285.462q7.23 22.153 3.5 43.307-3.731 21.154-17.424 39.846Z"/></svg>