<svg xmlns="http://www.w3.org/2000/svg" width="48" height="48" viewBox="0 -960 960 960"><path d="M297.077-212.231h30.769v-47.692h-30.769v47.692Zm0-150.615h30.769v-139.846h-30.769v139.846Zm166.308 150.615h30.769v-141.538h-30.769v141.538Zm0-242.769h30.769v-47.692h-30.769V-455Zm170.461 242.769h30.77v-47.692h-30.77v47.692Zm0-150.615h30.77v-139.846h-30.77v139.846ZM255.384-120q-23.057 0-39.221-16.163Q200-152.327 200-175.384v-447.924L416.692-840h287.924q23.057 0 39.221 16.163Q760-807.673 760-784.616v609.232q0 23.057-16.163 39.221Q727.673-120 704.616-120H255.384Zm0-30.769h449.232q9.23 0 16.923-7.692 7.692-7.693 7.692-16.923v-609.232q0-9.23-7.692-16.923-7.693-7.692-16.923-7.692H430.615L230.769-609.635v434.251q0 9.23 7.692 16.923 7.693 7.692 16.923 7.692Zm0 0h-24.615 498.462-473.847Z"/></svg>