<svg xmlns="http://www.w3.org/2000/svg" width="48" height="48" viewBox="0 -960 960 960"><path d="M444.692-447.692h187.923q18.616 0 31.385-12.769 12.769-12.77 12.769-31.385 0-18.616-12.769-31.885Q651.231-537 632.615-537H606l-4.308-23.846q-2.495-25.944-23.199-44.087-20.703-18.144-47.545-18.144-22.333 0-40.102 11.077t-25.769 31l-6.615 15.461-18.77.77q-22.846.769-38.884 17.43-16.039 16.66-16.039 40.5 0 23.839 17.654 41.493 17.654 17.654 42.269 17.654ZM135.384-169.23q-23.057 0-39.22-16.164Q80-201.557 80-224.615V-650.77h30.769v426.155q0 9.231 7.692 16.923Q126.154-200 135.384-200h640.001v30.77H135.384Zm101.539-101.539q-23.058 0-39.221-16.163-16.164-16.164-16.164-39.222v-458.462q0-23.057 16.164-39.221Q213.865-840 236.923-840H480l40 40h304.616q23.057 0 39.221 16.163Q880-767.673 880-744.615v418.461q0 23.058-16.163 39.222-16.164 16.163-39.221 16.163H236.923Z"/></svg>