<svg xmlns="http://www.w3.org/2000/svg" width="48" height="48" viewBox="0 -960 960 960"><path d="M160-199.23q0-50.23 30.96-92.58 30.96-42.34 81.96-68.27-52.3-19.23-82.61-65.54Q160-471.92 160-529.46q0-96.62 71.27-163.58Q302.54-760 405.46-760q71.31 0 128.81 34.58 57.5 34.57 90.88 97.8 11-43.3 44.97-68.38 33.96-25.08 78.96-25.08 52.92 0 91.92 24.93 39 24.92 39 67.77 0 34.76-24.73 59.5-24.73 24.73-59.27 24.73h-29.08v178.38q0 70.23-49.92 118.39-49.92 48.15-120.38 48.15H160Zm168.62-181.92q58.07 0 99.23-33.08Q469-447.31 469-501.15q0-34.62-19.08-60.66-19.07-26.04-50-26.04-22.3 0-39.5 13.93-17.19 13.92-17.19 34h-30.77q0-32.77 26.62-55.73 26.61-22.97 62.38-22.97 43.62 0 70.96 34.08 27.35 34.08 27.35 81.69 0 36.16-16.85 67.5-16.84 31.35-46 54.2h102.54q32.85 0 56.27-23.04t23.42-56.35v-56.61q0-88.7-62.61-150.39-62.62-61.69-151.08-61.69-89.46 0-152.08 57.92-62.61 57.93-62.61 141.85 0 61.77 40.04 105.04t97.81 43.27Z"/></svg>