<svg xmlns="http://www.w3.org/2000/svg" width="48" height="48"><path d="m40.75 26.9-1.1-1.1q2.15-2.25 3.4-5.15 1.25-2.9 1.25-6 0-3.15-1.25-6.025Q41.8 5.75 39.65 3.5l1.1-1.15Q43.2 4.85 44.525 8q1.325 3.15 1.325 6.65 0 3.45-1.325 6.6Q43.2 24.4 40.75 26.9zm-7.1-7.1-1.1-1.1q.8-.85 1.25-1.875.45-1.025.45-2.175 0-1.1-.45-2.175-.45-1.075-1.25-1.925l1.1-1.05q1.05 1 1.575 2.375.525 1.375.525 2.775t-.55 2.75q-.55 1.35-1.55 2.4zM19.4 24q-2.45 0-4.1-1.65-1.65-1.65-1.65-4.15 0-2.5 1.65-4.125t4.1-1.625q2.5 0 4.15 1.625Q25.2 15.7 25.2 18.2t-1.65 4.15Q21.9 24 19.4 24zm-14 14.45v-2.9q0-1.45.75-2.4t2-1.55q2.45-1.2 5.55-1.95 3.1-.75 5.7-.75t5.7.75q3.1.75 5.55 1.95 1.3.6 2.025 1.55.725.95.725 2.4v2.9z"/></svg>