<svg xmlns="http://www.w3.org/2000/svg" width="48" height="48" viewBox="0 -960 960 960"><path d="M346.385-120q-109.616 0-188.001-74.974Q80-269.948 80-379.769h30.769q0 96.154 69.138 162.577t166.478 66.423V-120Zm0-130.769q-56.231 0-95.924-37.048-39.692-37.048-39.692-91.952h30.769q0 42.769 30.99 70.5t73.857 27.731v30.769Zm50.692-121.308q-23.058 0-39.221-16.163-16.164-16.164-16.164-39.221v-317.155q0-23.057 16.164-39.221Q374.019-800 397.077-800h166.077q23.058 0 39.221 16.163 16.164 16.164 16.164 39.221v317.155q0 23.057-16.164 39.221-16.163 16.163-39.221 16.163H397.077Zm0-30.769h166.077q10.769 0 17.692-6.923t6.923-17.692v-317.155q0-10.769-6.923-17.692t-17.692-6.923H397.077q-10 0-17.308 6.923-7.307 6.923-7.307 17.692v317.155q0 10.769 7.307 17.692 7.308 6.923 17.308 6.923Zm216.538 152.077v-30.769q42.77 0 73.808-27.941 31.039-27.941 31.039-70.29h30.769q0 54.654-39.651 91.827-39.65 37.173-95.965 37.173Zm0 130.769v-30.769q96.924 0 166.27-66.471t69.346-162.529H880q0 109.615-78.384 184.692Q723.231-120 613.615-120ZM397.077-402.846h-24.615 215.307-190.692Z"/></svg>