<svg xmlns="http://www.w3.org/2000/svg" width="48" height="48" viewBox="0 -960 960 960"><path d="M346.385-120q-109.616 0-188.001-75.077Q80-270.154 80-379.769h30.769q0 96.154 69.346 162.577t166.27 66.423V-120Zm0-130.769q-56.231 0-95.924-37.173-39.692-37.173-39.692-91.827h30.769q0 42.769 31.2 70.5t73.647 27.731v30.769Zm50.692-121.308q-23.058 0-39.221-16.163-16.164-16.164-16.164-39.221v-317.155q0-23.057 16.164-39.221Q374.019-800 397.077-800h166.077q23.058 0 39.221 16.163 16.164 16.164 16.164 39.221v317.155q0 23.057-16.164 39.221-16.163 16.163-39.221 16.163H397.077Zm216.538 121.308v-30.769q42.77 0 73.808-27.731 31.039-27.731 31.039-70.5h30.769q0 54.654-39.692 91.827-39.693 37.173-95.924 37.173Zm0 130.769v-30.769q96.924 0 166.27-66.263t69.346-162.737H880q0 109.615-78.384 184.692Q723.231-120 613.615-120Z"/></svg>