<svg xmlns="http://www.w3.org/2000/svg" width="48" height="48" viewBox="0 -960 960 960"><path d="M282.769-298.538v-30.77h30.77v30.77h-30.77Zm381.846 0v-30.77h140.001q10.769 0 17.692-7.307 6.923-7.308 6.923-17.308v-87.308q0-10-6.923-17.307-6.923-7.308-17.692-7.308H664.615v-195.616H860v30.77H695.385v134.077h109.231q23.057 0 39.221 16.163Q860-464.289 860-441.231v87.308q0 23.058-16.163 39.221-16.164 16.164-39.221 16.164H664.615Zm-273.615 0v-142.693q0-23.058 16.163-39.221 16.164-16.163 39.222-16.163H531q10.769 0 17.692-6.924 6.923-6.923 6.923-17.692v-84.846q0-10-6.923-17.308-6.923-7.307-17.692-7.307H391v-30.77h140q23.058 0 39.221 16.164 16.164 16.163 16.164 39.221v84.846q0 23.058-16.164 39.221-16.163 16.164-39.221 16.164h-84.615q-10 0-17.308 7.308-7.308 7.307-7.308 17.307v111.923h164.616v30.77H391Zm-217.231 0v-332.154h-73.77v-30.77h104.539v362.924h-30.769Z"/></svg>