<svg xmlns="http://www.w3.org/2000/svg" width="48" height="48" viewBox="0 -960 960 960"><path d="M664.271-569.231q-22.502 0-38.771-16.298-16.269-16.298-16.269-39.086V-800q0-22.789 16.281-39.087 16.281-16.298 39.144-16.298 22.806 0 39.075 16.298Q720-822.789 720-800v175.385q0 22.788-16.272 39.086-16.273 16.298-39.457 16.298ZM215.384-120q-22.25 0-38.817-16.567T160-175.384v-609.232q0-22.25 16.567-38.817T215.384-840H500v30.769H215.384q-10.769 0-17.692 6.923t-6.923 17.692v609.232q0 10.769 6.923 17.692t17.692 6.923h409.232q10.769 0 17.692-6.923t6.923-17.692v-80.001H680v79.687q0 22.756-16.567 39.227Q646.866-120 624.616-120H215.384ZM300-255.385v-40h240v40H300Zm0-120v-30.769h160v30.769H300Zm380 30.77h-30.769v-99.693q-73.692-5.615-126.846-56.925-53.154-51.31-53.154-123.382H500q0 64.307 48.885 106.769 48.884 42.461 115.159 42.461 67.418 0 116.302-42.39 48.885-42.39 48.885-106.84H860q0 72.846-52.654 123.769Q754.693-449.923 680-444.308v99.693Z"/></svg>