<svg xmlns="http://www.w3.org/2000/svg" width="48" height="48"><path d="M23.25 28V15.2h1.55V28zm.75 4.8q-.45 0-.75-.325t-.3-.775q0-.45.3-.75t.75-.3q.45 0 .75.3t.3.75q0 .45-.3.775T24 32.8zM14.75 44q-1.15 0-1.95-.8t-.8-1.95V6.75q0-1.15.8-1.95t1.95-.8h18.5q1.15 0 1.95.8t.8 1.95v34.5q0 1.15-.8 1.95t-1.95.8zm-1.2-5.85h20.9V9.85h-20.9zm0 1.55v1.55q0 .45.375.825.375.375.825.375h18.5q.45 0 .825-.375.375-.375.375-.825V39.7zm0-31.4h20.9V6.75q0-.45-.375-.825-.375-.375-.825-.375h-18.5q-.45 0-.825.375-.375.375-.375.825zm0-2.75V8.3 5.55zm0 36.9V39.7v2.75z"/></svg>