<svg xmlns="http://www.w3.org/2000/svg" width="48" height="48" viewBox="0 -960 960 960"><path d="M215.384-190.769h353.847v-200h200v-353.847q0-10.769-6.923-17.692t-17.692-6.923H215.384q-10.769 0-17.692 6.923t-6.923 17.692v529.232q0 10.769 6.923 17.692t17.692 6.923Zm0 30.769q-22.442 0-38.913-16.471Q160-192.942 160-215.384v-529.232q0-22.442 16.471-38.913Q192.942-800 215.384-800h529.232q22.442 0 38.913 16.471Q800-767.058 800-744.616v356.155L571.539-160H215.384Zm109.231-270.769v-30.77h150.77v30.77h-150.77Zm0-158.462V-620h310.77v30.769h-310.77ZM190.769-190.769v-578.462 578.462Z"/></svg>