<svg xmlns="http://www.w3.org/2000/svg" width="48" height="48" viewBox="0 -960 960 960"><path d="M595.385-403.077H840v-178.461H595.385v178.461Zm-30.77 90v-271.539q0-11.961 7.866-19.827 7.865-7.865 19.827-7.865h250.769q11.962 0 19.827 7.865 7.866 7.866 7.866 19.827V-400q0 11.962-7.866 19.827-7.865 7.865-19.827 7.865H623.846l-59.231 59.231ZM295.384-80q-22.442 0-38.913-16.47Q240-112.943 240-135.385v-689.232q0-22.442 16.471-38.913Q272.942-880 295.384-880h369.232q22.442 0 38.913 16.471Q720-847.058 720-824.616v126.001h-30.769v-64.462H270.769v566.154h418.462v-64.462H720v126.001q0 22.442-16.471 38.913Q687.058-80 664.616-80H295.384Zm-24.615-86.154v30.77q0 9.23 7.692 16.923 7.693 7.692 16.923 7.692h369.232q9.23 0 16.923-7.692 7.692-7.693 7.692-16.923v-30.77H270.769Zm0-627.692h418.462v-30.77q0-9.23-7.692-16.923-7.693-7.692-16.923-7.692H295.384q-9.23 0-16.923 7.692-7.692 7.693-7.692 16.923v30.77Zm0 0v-55.385 55.385Zm0 627.692v55.385-55.385Zm324.616-236.923v-178.461 178.461Z"/></svg>