<svg xmlns="http://www.w3.org/2000/svg" width="48" height="48" viewBox="0 96 960 960"><path d="M263.077 574.462h30.769v-30.77h-30.769v30.77Zm0 124.615h332.308v-30.769H263.077v30.769Zm403.077 0h30.769v-30.769h-30.769v30.769ZM364.615 574.462h332.308v-30.77H364.615v30.77ZM175.384 856q-23.057 0-39.221-16.163Q120 823.673 120 800.616V351.384q0-23.057 16.163-39.221Q152.327 296 175.384 296h609.232q23.057 0 39.221 16.163Q840 328.327 840 351.384v449.232q0 23.057-16.163 39.221Q807.673 856 784.616 856H175.384Z"/></svg>