<svg xmlns="http://www.w3.org/2000/svg" width="48" height="48" viewBox="0 -960 960 960"><path d="M215.38-160q-23.05 0-39.22-16.16Q160-192.33 160-215.38v-529.24q0-23.05 16.16-39.22Q192.33-800 215.38-800h408.93L800-624.31v408.93q0 23.05-16.16 39.22Q767.67-160 744.62-160H215.38Zm118.68-135.69q8.79-8.23 8.79-18.91t-8.79-19.46q-8.78-8.79-19.46-8.79-10.68 0-18.91 8.79-8.23 8.78-8.23 19.46 0 10.68 8.23 18.91t18.91 8.23q10.68 0 19.46-8.23Zm0-164.85q8.79-8.23 8.79-19.46t-8.79-19.46q-8.78-8.23-19.46-8.23-10.68 0-18.91 8.23T287.46-480q0 11.23 8.23 19.46t18.91 8.23q10.68 0 19.46-8.23Zm0-165.4q8.79-8.78 8.79-19.46 0-10.68-8.79-18.91-8.78-8.23-19.46-8.23-10.68 0-18.91 8.23t-8.23 18.91q0 10.68 8.23 19.46 8.23 8.79 18.91 8.79t19.46-8.79Zm270.32 21.56h164.85L604.38-769.23v164.85Z"/></svg>