<svg xmlns="http://www.w3.org/2000/svg" width="48" height="48" viewBox="0 -960 960 960"><path d="M739.769-613.846v-58.462q0-12.231 7.731-19.961Q755.231-700 767.462-700h77.154v-33.846H739.769V-760h103.308q12.231 0 19.962 7.731 7.731 7.73 7.731 19.961v30.769q0 12.231-7.731 19.962t-19.962 7.731h-77.154V-640H870.77v26.154H739.769ZM280.384-200l167.308-258.692-153.538-236.693h42.154l138.077 213.769h-.77l141.154-213.769h41.385L501.077-458.692 669.154-200H628L473.615-436.307h.77L321.538-200h-41.154Z"/></svg>