<svg xmlns="http://www.w3.org/2000/svg" width="48" height="48" viewBox="0 -960 960 960"><path d="M340-148.42q-65.69-28.43-114.42-77.16-48.73-48.73-77.16-114.42Q120-405.69 120-480.12q0-74.42 28.42-140 28.43-65.57 77.16-114.3 48.73-48.73 114.42-77.16Q405.69-840 480.12-840q74.42 0 140 28.42 65.57 28.43 114.3 77.16 48.73 48.73 77.16 114.3 28.42 65.58 28.42 140 0 74.43-28.42 140.12-28.43 65.69-77.16 114.42-48.73 48.73-114.3 77.16-65.58 28.42-140 28.42-74.43 0-140.12-28.42Zm120.88-326.31q34.74-34.73 34.74-84.42 0-49.7-34.74-84.43-34.73-34.73-84.03-34.73-49.31 0-84.04 34.73-34.73 34.73-34.73 84.43 0 49.69 34.73 84.42Q327.54-440 376.85-440q49.3 0 84.03-34.73Zm275.04 64.35q28.7-28.7 28.7-69.62t-28.7-69.62q-28.69-28.69-69.61-28.69-40.93 0-69.62 28.69Q568-520.92 568-480t28.69 69.62q28.69 28.69 69.62 28.69 40.92 0 69.61-28.69ZM480-150.77q79.08 0 146.46-34.38 67.39-34.39 113.62-92.47-18.7-5.23-36.66-8.57-17.96-3.35-37.11-3.35-62.69 0-127.19 35.19-64.5 35.2-102.5 100.89 10.92 1.23 21.57 1.96 10.66.73 21.81.73Zm-139.62-31.85q21.24-46.38 50-77.76 28.77-31.39 61.16-59.31-15.31-5.39-38.58-8.23-23.27-2.85-43.04-2.85-43.92 0-82.27 11.35-38.34 11.34-74.73 32.57 24.7 34.31 56.54 60.43 31.85 26.11 70.92 43.8Z"/></svg>