<svg xmlns="http://www.w3.org/2000/svg" width="48" height="48" viewBox="0 -960 960 960"><path d="M339.77-148.42q-65.69-28.43-114.31-77.04-48.61-48.62-77.04-114.31Q120-405.46 120-480q0-74.54 28.42-140.23 28.43-65.69 77.04-114.31 48.62-48.61 114.31-77.04Q405.46-840 480-840q74.54 0 140.23 28.42 65.69 28.43 114.31 77.04 48.61 48.62 77.04 114.31Q840-554.54 840-480q0 74.54-28.42 140.23-28.43 65.69-77.04 114.31-48.62 48.61-114.31 77.04Q554.54-120 480-120q-74.54 0-140.23-28.42Zm22.31-23.12 76.07-176.15q-31.07-10.69-54.42-33.43-23.35-22.73-34.5-55.26L170-364.08q27.92 67.93 77.38 117.62 49.47 49.69 114.7 74.92ZM349-523.38q9.08-32.54 32.69-54.62 23.62-22.08 54.69-32.77L364.08-790Q293.69-762.08 244-711.88q-49.69 50.19-74 116.19l179 72.31Zm207.15 119.53q31.54-31.53 31.54-76.15 0-44.62-31.54-76.15-31.53-31.54-76.15-31.54-44.62 0-76.15 31.54-31.54 31.53-31.54 76.15 0 44.62 31.54 76.15 31.53 31.54 76.15 31.54 44.62 0 76.15-31.54Zm42.54 232.31q65.16-26.46 114.23-75.65 49.08-49.19 75.54-114.89l-176.15-75.84q-10.39 32.77-33.73 55.5-23.35 22.73-54.43 33.19l74.54 177.69Zm12.08-353.61 177.69-73.54Q762-663.62 712.81-712.81 663.62-762 598.69-788.46l-73.31 177.69q28.77 11.46 51 33.04 22.24 21.58 34.39 52.58Z"/></svg>