<svg xmlns="http://www.w3.org/2000/svg" width="48" height="48" viewBox="0 -960 960 960"><path d="M480-108.461 347.461-241l22-22 95.154 95.923v-252.384q-69-8.616-116.807-57.424Q300-525.692 300-600q0-74.539 52.731-127.269Q405.461-780 480-780q74.539 0 127.269 52.731Q660-674.539 660-600q0 74.308-47.808 123.115-47.807 48.808-116.807 57.424v252.384L591.308-263l21.231 22L480-108.461Zm0-342.308q61.846 0 105.538-43.693Q629.231-538.154 629.231-600t-43.693-105.538Q541.846-749.231 480-749.231t-105.538 43.693Q330.769-661.846 330.769-600t43.693 105.538Q418.154-450.769 480-450.769ZM480-600Z"/></svg>