<svg xmlns="http://www.w3.org/2000/svg" width="48" height="48" viewBox="0 -960 960 960"><path d="m308.077-371.077 20.769-21.538-74.231-73.462h329.231l-74.231 73.462 21.539 21.538 109.615-110.385-109.615-109.615-21.539 20.769 74.231 73.462H254.615l74.231-73.462-20.769-20.769-110.385 109.615 110.385 110.385ZM194.615-200q-23.231 0-39.308-16.077-16.077-16.077-16.077-39.307v-449.232q0-23.23 16.077-39.307T194.615-760h449.231q23.231 0 39.308 16.077 16.077 16.077 16.077 39.307v201.924L820.77-624.231v287.693L699.231-458.077v202.693q0 23.23-16.077 39.307T643.846-200H194.615Z"/></svg>