<svg xmlns="http://www.w3.org/2000/svg" width="48" height="48" viewBox="0 -960 960 960"><path d="m392.308-306.154 23.461-23.923-93.769-94h315l-93.231 94 23.923 23.923 130.616-130.615-130.616-130.847-23.461 23.462L636-453.615H322.769l91.769-90.539-22.23-23.692-130.616 131.077 130.616 130.615ZM175.384-160q-23.23 0-39.307-16.077T120-215.384v-446.078q0-23 16.077-39.192t39.307-16.192h127.77L376.923-800h206.154l73.769 83.154h127.77q23 0 39.192 16.192T840-661.462v446.078q0 23.23-16.192 39.307T784.616-160H175.384Z"/></svg>