<svg xmlns="http://www.w3.org/2000/svg" width="48" height="48" viewBox="0 -960 960 960"><path d="M705.38-840q23.24 0 39.31 16.08 16.08 16.07 16.08 39.3v609.24q0 23.23-16.08 39.3Q728.62-120 705.38-120h-450q-23.23 0-39.3-16.08Q200-152.15 200-175.38v-609.24q0-23.23 16.08-39.3Q232.15-840 255.38-840h450Zm-95 190.38H352.15v337.47h258.23v-337.47Zm-30.76 30.77v200.08h-196.7v-200.08h196.7Zm-99.71 380.47q-8.61 0-15.3 6.54-6.69 6.55-6.69 15.16 0 10.14 6.55 16.53 6.54 6.38 15.15 6.38 10.15 0 16.53-6.24 6.39-6.24 6.39-16.39 0-8.61-6.24-15.3-6.24-6.68-16.39-6.68Zm.77-528.85q-8.61 0-15.3 6.16-6.69 6.16-6.69 15.54 0 10.15 6.55 16.53 6.54 6.38 15.15 6.38 10.15 0 16.53-6.24 6.39-6.24 6.39-16.39 0-9.37-6.24-15.68-6.25-6.3-16.39-6.3Z"/></svg>