<svg xmlns="http://www.w3.org/2000/svg" width="48" height="48" viewBox="0 -960 960 960"><path d="M520-140v-30.769h280V-140H520Zm124.615-101.538v-395.385q0-27.404-18.605-46.01-18.606-18.605-46.01-18.605H427.692v123.077q0 11.788-7.952 19.74-7.951 7.952-19.74 7.952H218.846q-15.97 0-23.947-12.346-7.976-12.346-1.746-26.577l77.539-177.385q6.462-15.462 20.277-24.192Q304.784-800 321.077-800h51.231q22.702 0 38.658 15.702 15.957 15.702 16.726 38.144v13.846H580q39.808 0 67.596 27.789 27.789 27.788 27.789 67.596v395.385h-30.77Z"/></svg>