<svg xmlns="http://www.w3.org/2000/svg" width="48" height="48" viewBox="0 -960 960 960"><path d="M280-55.385V-440h-93.846q-31.662 0-53.524-21.899-21.861-21.899-21.861-53.616 0-31.716 21.861-53.485 21.862-21.769 53.524-21.769H280v-58.462h-93.846q-31.662 0-53.524-21.899-21.861-21.899-21.861-53.616 0-31.716 21.861-53.485Q154.492-800 186.154-800H280v-104.615h30.769V-800h93.846q31.662 0 53.524 21.899Q480-756.202 480-724.485q0 31.716-21.861 53.485-21.862 21.769-53.524 21.769h-93.846v58.462h93.846q31.662 0 53.524 21.899Q480-546.971 480-515.255q0 31.717-21.861 53.486Q436.277-440 404.615-440h-93.846v384.615H280Zm324.615 0v-30.769h84.616v-334q-52.385-11.769-88.5-50.018Q564.615-508.42 564.615-560v-344.615h280.001V-560q0 51.615-36.116 89.846-36.115 38.231-88.5 50v334h84.616v30.77H604.615Zm-9.23-635.384h218.461v-183.077H595.385v183.077Z"/></svg>