<svg xmlns="http://www.w3.org/2000/svg" width="48" height="48" viewBox="0 96 960 960"><path d="M480.134 936Q405 936 339.263 908.276q-65.738-27.724-114.75-76.691-49.012-48.966-76.763-114.642Q120 651.268 120 576.134q0-74.903 27.734-140.641 27.735-65.737 76.72-114.749 48.984-49.012 114.684-76.878Q404.838 216 480 216q66.024 0 123.974 21.307Q661.923 258.615 708.539 296l-21.462 23q-42.462-35-94.751-53.615Q540.037 246.769 480 246.769q-138.077 0-233.654 95.577T150.769 576q0 138.077 95.577 233.654T480 905.231q138.077 0 233.654-95.577T809.231 576q0-30-4.885-57.956-4.884-27.955-13.884-54.506l22.923-23.692q12.923 31.615 19.769 65.772Q840 539.775 840 576q0 75.162-27.839 140.862-27.84 65.7-76.806 114.684-48.967 48.985-114.642 76.72Q555.037 936 480.134 936ZM421 731.077 281.384 591.231l22.693-23.462L421 684.692l395.539-395.538 23.692 22.692L421 731.077Z"/></svg>