<svg xmlns="http://www.w3.org/2000/svg" width="48" height="48" viewBox="0 -960 960 960"><path d="M175.384-120q-22.442 0-38.913-16.471Q120-152.942 120-175.384v-609.232q0-22.442 16.471-38.913Q152.942-840 175.384-840h311.539l-30.769 30.769h-280.77q-10.769 0-17.692 6.923t-6.923 17.692v609.232q0 10.769 6.923 17.692t17.692 6.923h409.232q10.769 0 17.692-6.923t6.923-17.692V-260H640v84.616q0 22.442-16.471 38.913Q607.058-120 584.616-120H175.384ZM260-264.615v-30.77h240v30.77H260Zm0-110.77v-30.769h160v30.769H260Zm329.231-25.384L457.692-532.308H340v-160h117.692l131.539-131.538v423.077ZM660-481.231V-748q39.846 20.23 59.154 60.538 19.308 40.308 19.308 75.154 0 34.847-21.154 74.077-21.154 39.231-57.308 57Zm0 143.539v-32q61.539-29.616 105.385-95.385 43.846-65.769 43.846-147.231 0-81.461-43.846-147.231Q721.539-825.308 660-854.923v-32q76.616 30.846 128.308 106.73Q840-704.308 840-612.308q0 92-51.692 167.885Q736.616-368.538 660-337.692Z"/></svg>