<svg xmlns="http://www.w3.org/2000/svg" width="48" height="48" viewBox="0 -960 960 960"><path d="M180-140v-680h30.769v70.769h138.462V-820h261.538v70.769h138.462V-820H780v680h-30.769v-70.769H610.769V-140H349.231v-70.769H210.769V-140H180Zm30.769-101.538h138.462V-380H210.769v138.462Zm0-169.231h138.462v-138.462H210.769v138.462Zm0-169.231h138.462v-138.462H210.769V-580Zm400 338.462h138.462V-380H610.769v138.462Zm0-169.231h138.462v-138.462H610.769v138.462Zm0-169.231h138.462v-138.462H610.769V-580ZM380-170.769h200v-618.462H380v618.462Zm0-618.462h200-200Z"/></svg>