<svg xmlns="http://www.w3.org/2000/svg" width="48" height="48" viewBox="0 -960 960 960"><path d="m762.462-293.307-22.231-22.231q13.154-26.462 21.077-58.308 7.923-31.846 7.923-66.385 0-120.538-84.346-204.884Q600.539-729.462 480-729.462q-32 0-65.885 7.423-33.884 7.424-58.807 21.577l-22.462-22.461q32.769-19.308 71.115-28.308 38.347-9 75.861-9 60.486 0 115.14 21.346 54.653 21.346 99.115 61.346l41-41.769 22 22-41.769 41.769Q758-610.385 779-554.731t21 114.5q0 37.693-9.269 76.193t-28.269 70.731ZM495.385-560.384v-65.693h-30.77v34.923l30.77 30.77ZM805.692-105.23l-104.769-104q-41.846 41.846-99.269 65.423Q544.231-120.231 480-120.231q-66.308 0-124.5-25.423-58.192-25.423-101.808-68.654-43.615-43.23-68.654-101.807Q160-374.692 160-440.15q0-61.85 21.961-118.004Q203.923-614.308 249-661.923L105.461-805.462l22.231-22.23 700.231 700.231-22.231 22.231ZM480-151q55.846 0 107.731-21 51.884-21 93.192-59.692L272.231-641.154Q232.769-600.846 211.769-549t-21 108.769q0 120.539 84.346 204.885Q359.462-151 480-151ZM375.385-869.231V-900h209.23v30.769h-209.23Zm100.923 432.693ZM547.769-508Z"/></svg>