<svg xmlns="http://www.w3.org/2000/svg" width="48" height="48" viewBox="0 -960 960 960"><path d="M115.296-260q-22.758 0-39.027-16.358Q60-292.715 60-315.473 60-339 76.264-354.885q16.264-15.884 38.889-15.884 6.771 0 13.694 1.654 6.923 1.653 14.154 5.192l208.461-208.462q-3.538-7.23-5.192-14.153-1.654-6.924-1.654-13.695 0-23.394 16.358-39.273 16.358-15.879 39.116-15.879 23.526 0 39.411 16.019 15.885 16.019 15.885 39.61 0 4.833-5.308 25.833l123.846 123.846q7.231-2.769 13.385-4.038 6.154-1.27 12.692-1.27t13.077 1.654q6.538 1.654 13 5.192l170-170q-3.539-6.461-5.192-13-1.654-6.538-1.654-13.309 0-23.394 16.358-39.273Q821.946-700 844.704-700q23.527 0 39.411 15.973Q900-668.054 900-644.527q0 22.758-15.879 39.027-15.879 16.269-39.273 16.269-6.771 0-13.309-1.654-6.539-1.653-13-5.192l-170 170q3.538 6.462 5.192 13 1.654 6.539 1.654 13.31 0 22.625-15.973 38.888-15.974 16.264-39.501 16.264-22.757 0-39.026-16.264-16.27-16.263-16.27-38.888 0-6.771 1.654-13.695 1.654-6.923 5.192-14.153L427.615-551.461q-7.23 3.538-14.153 5.192-6.924 1.654-13.712 1.654-4.827 0-25.827-5.308L165.462-341.461q2.769 7.23 4.038 13.384 1.269 6.154 1.269 12.925 0 22.625-15.973 38.889Q138.823-260 115.296-260Z"/></svg>