<svg xmlns="http://www.w3.org/2000/svg" width="48" height="48" viewBox="0 -960 960 960"><path d="M169-274.02q-73.69-74.03-73.69-179.77 0-105.75 73.7-179.83 73.7-74.07 178.99-74.07 48.47 0 91.2 16.61 42.72 16.62 76.11 46.08l40.61-39.85 20.46 20.47-39.07 40.61Q567.77-590.38 585-547q17.23 43.38 17.23 92.77 0 105.93-74.02 180.08T348.44-200Q242.69-200 169-274.02ZM781.23-200 678.38-302.85l22-22 65.47 65.47V-760h30.77v500.38l65.23-65.23 21.23 22L781.23-200Zm-506-578.46v-30.77h147.85v30.77H275.23Zm231.14 482.85q65.09-64.83 65.09-158.03 0-93.21-64.83-158.24-64.84-65.04-158.04-65.04-93.21 0-157.86 64.83-64.65 64.84-64.65 158.04 0 93.2 64.4 158.24t157.6 65.04q93.21 0 158.29-64.84ZM332.62-447.23h30.76v-144.54h-30.76v144.54Zm15.38-7Z"/></svg>