<svg xmlns="http://www.w3.org/2000/svg" width="48" height="48" viewBox="0 -960 960 960"><path d="M360-200q-117.25 0-198.625-81.339Q80-362.679 80-479.878q0-117.199 81.375-198.661Q242.75-760 360-760h240q117.25 0 198.625 81.339Q880-597.321 880-480.122q0 117.199-81.375 198.661Q717.25-200 600-200H360Zm0-30.769h240q103.846 0 176.539-72.597 72.692-72.598 72.692-176.308 0-103.711-72.692-176.634Q703.846-729.231 600-729.231H360q-103.846 0-176.539 72.597-72.692 72.598-72.692 176.308 0 103.711 72.692 176.634Q256.154-230.769 360-230.769Zm120.473-193.846q23.142 0 39.027-16.358 15.885-16.358 15.885-39.5T519.368-519.5q-16.016-15.885-39.457-15.885-22.757 0-39.026 16.017-16.27 16.016-16.27 39.457 0 22.757 16.358 39.026 16.358 16.27 39.5 16.27Zm-40.473-200h80q6.539 0 10.962-4.412t4.423-11.115q0-6.704-4.423-10.973-4.423-4.27-10.962-4.27h-80q-6.577 0-10.981 4.431t-4.404 10.981q0 6.588 4.404 10.973 4.404 4.385 10.981 4.385Zm0 320h80q6.539 0 10.962-4.412t4.423-11.115q0-6.704-4.423-10.973-4.423-4.27-10.962-4.27h-80q-6.577 0-10.981 4.431t-4.404 10.981q0 6.588 4.404 10.973 4.404 4.385 10.981 4.385Zm200.142-120q6.704 0 10.973-4.404 4.27-4.404 4.27-10.981v-80q0-6.539-4.431-10.962t-10.981-4.423q-6.588 0-10.973 4.423-4.385 4.423-4.385 10.962v80q0 6.577 4.412 10.981t11.115 4.404Zm-320 0q6.704 0 10.973-4.404 4.27-4.404 4.27-10.981v-80q0-6.539-4.431-10.962t-10.981-4.423q-6.588 0-10.973 4.423-4.385 4.423-4.385 10.962v80q0 6.577 4.412 10.981t11.115 4.404ZM480-480Z"/></svg>