<svg xmlns="http://www.w3.org/2000/svg" width="48" height="48" viewBox="0 0 48 48"><path d="M24 31.45q3.55 0 6-2.45t2.45-6q0-3.55-2.45-6t-6-2.45q-3.55 0-6 2.45t-2.45 6q0 3.55 2.45 6t6 2.45ZM23.25 45v-4h-4v-1.55h4v-6.4q-3.95-.5-6.6-3.325Q14 26.9 14 23q0-1.8.6-3.475t1.75-3.075L13 13.05l-2.8 2.8-1.1-1 2.8-2.8-6.35-6.4v6.9H4V3h9.55v1.55h-6.9l6.4 6.35 2.8-2.8 1.05 1.1-2.8 2.8 3.4 3.4q1.4-1.15 3.05-1.775T24 13q1.8 0 3.45.625 1.65.625 3.1 1.725l10.8-10.8h-6.9V3H44v9.55h-1.55v-6.9L31.65 16.5q1.1 1.4 1.725 3.05T34 23q0 3.9-2.65 6.725-2.65 2.825-6.6 3.325v6.4h4V41h-4v4Z"/></svg>