<svg xmlns="http://www.w3.org/2000/svg" width="48" height="48" viewBox="0 96 960 960"><path d="M215.384 896q-23.057 0-39.221-16.163Q160 863.673 160 840.616V400.334q0-10.027 1.461-17.834 1.462-7.808 7.154-13.731l49.846-62.923q6.462-5.923 15.039-7.885Q242.077 296 252.404 296h455.192q10.327 0 18.789 1.192 8.461 1.192 14.923 8.654l48.538 62.923q6.462 5.923 8.308 13.731Q800 390.307 800 400.334v440.282q0 23.057-16.163 39.221Q767.673 896 744.616 896H215.384ZM207 369.692h545l-35.085-42.923H242.231L207 369.692Zm-16.231 30.769v440.155q0 9.23 7.692 16.923 7.693 7.692 16.923 7.692h529.232q9.23 0 16.923-7.692 7.692-7.693 7.692-16.923V400.461H190.769Zm273.846 369.385h30.77V566.539L589.846 661l20.77-21.539L480 509.615 349.384 639.461 370.154 661l94.461-94.461v203.307Zm-273.846 95.385h578.462-578.462Z"/></svg>