<svg xmlns="http://www.w3.org/2000/svg" width="48" height="48" viewBox="0 96 960 960"><path d="M175.384 896q-23.057 0-39.221-16.163Q120 863.673 120 840.616V682.538q0-22.461 16.163-38.923 16.164-16.461 39.221-16.461h149.462q13.077 54.769 56.331 89.346 43.253 34.577 98.999 34.577 57.286 0 100.362-34.577 43.077-34.577 54.616-89.346h149.462q23.057 0 39.221 16.461Q840 660.077 840 682.538v158.078q0 23.057-16.163 39.221Q807.673 896 784.616 896H175.384Zm0-30.769h609.232q9.23 0 16.923-7.692 7.692-7.693 7.692-16.923V682.538q0-9.23-7.692-16.923-7.693-7.692-16.923-7.692H660.615Q638 714.154 589.731 748 541.462 781.846 480 781.846q-61.462 0-110.577-33.846-49.115-33.846-70.038-90.077H175.384q-9.23 0-16.923 7.692-7.692 7.693-7.692 16.923v158.078q0 9.23 7.692 16.923 7.693 7.692 16.923 7.692Zm525.308-345L678.461 498l111.154-111.154 22.231 22.231-111.154 111.154Zm-441.384 0L148.154 409.077l23-22.231L281.539 498l-22.231 22.231Zm205.307-108.77V257.538h30.77v153.923h-30.77Zm-289.231 453.77h-24.615 658.462-633.847Z"/></svg>