<svg xmlns="http://www.w3.org/2000/svg" width="48" height="48" viewBox="0 -960 960 960"><path d="m295.385-100-30.77-23.461v-181.154h-89.23q-13.827 0-22.298-8.471-8.472-8.472-8.472-22.299v-349.23H120q-6.788 0-11.087-4.31-4.298-4.31-4.298-11.115 0-6.806 4.298-11.075 4.299-4.27 11.087-4.27h144.615v-113.846H220q-6.788 0-11.087-4.309-4.298-4.31-4.298-11.116t4.298-11.075Q213.212-860 220-860h120q6.789 0 11.087 4.31 4.298 4.309 4.298 11.115t-4.298 11.075q-4.298 4.269-11.087 4.269h-44.615v113.846H440q6.789 0 11.087 4.31t4.298 11.115q0 6.806-4.298 11.075-4.298 4.27-11.087 4.27h-24.615v349.23q0 13.827-8.471 22.299-8.472 8.471-22.299 8.471h-89.23V-100Zm-120-235.385h209.23v-101.538H290q-5.231 0-9.154-3.956t-3.923-9.231q0-5.275 3.923-9.121t9.154-3.846h94.615v-93.846H290q-5.231 0-9.154-3.956t-3.923-9.231q0-5.275 3.923-9.121t9.154-3.846h94.615v-101.538h-209.23v349.23ZM580-100q-13.827 0-22.298-8.471-8.471-8.471-8.471-22.298v-282.923q0-29.36 11.461-47.18 11.462-17.82 22.923-30.282 13.616-14.615 19.616-24.846t6-24v-44.615h-24.616q-6.788 0-11.086-4.31t-4.298-11.115q0-6.806 4.404-11.075 4.403-4.27 10.98-4.27h200q6.789 0 11.087 4.31T800-599.96q0 6.806-4.298 11.075-4.298 4.27-11.087 4.27H760v44.505q0 13.648 6.346 24.341 6.346 10.692 19.962 25.308 12.231 12.461 22.961 29.384Q820-444.154 820-413.972v283.203q0 13.827-8.471 22.298Q803.058-100 789.231-100H580Zm0-278.462h209.231v-35.608q0-20.591-9.616-35.414-9.615-14.824-22.384-29.054-12.147-14.146-20.074-27.958-7.926-13.812-7.926-33.504v-44.615H640V-540q0 19.242-7.923 33.044-7.923 13.802-19.846 28.187-12.974 14.2-22.603 29.236Q580-434.498 580-413.692v35.23Zm0 247.693h209.231v-101.539H580v101.539Z"/></svg>