<svg xmlns="http://www.w3.org/2000/svg" width="48" height="48" viewBox="0 96 960 960"><path d="M58.461 673.308V477.923h30.77v195.385H58.46Zm110.769 84.154V394.538H200v362.924h-30.77Zm701.539-84.154V477.923h30.77v195.385h-30.77ZM760 757.462V394.538h30.77v362.924H760ZM335.384 896q-22.442 0-38.913-16.471Q280 863.058 280 840.616V311.384q0-22.442 16.471-38.913Q312.942 256 335.384 256h289.232q22.442 0 38.913 16.471Q680 288.942 680 311.384v529.232q0 22.442-16.471 38.913Q647.058 896 624.616 896H335.384Zm0-30.769h289.232q10.769 0 17.692-6.923t6.923-17.692V311.384q0-10.769-6.923-17.692t-17.692-6.923H335.384q-10.769 0-17.692 6.923t-6.923 17.692v529.232q0 10.769 6.923 17.692t17.692 6.923Zm-24.615 0V286.769v578.462Z"/></svg>