<svg xmlns="http://www.w3.org/2000/svg" width="48" height="48" viewBox="0 -960 960 960"><path d="M495.308-190.769H175.384q-23.23 0-39.307-16.077T120-246.154v-458.462q0-23.23 16.077-39.307T175.384-760h615.539q23.231 0 39.308 16.077 16.077 16.077 16.077 39.307v196.77h-30.769v-196.77q0-10.769-6.923-17.692t-17.693-6.923H175.384q-10.769 0-17.692 6.923t-6.923 17.692v458.462q0 10.77 6.923 17.693 6.923 6.923 17.692 6.923h319.924v30.769Zm-88-144.692v-279.847l214.538 139.923-214.538 139.924Zm314.231 207.769-1.154-28.769q-26.154-5.231-46-17.116-19.846-11.884-33.616-28.192l-25.077 14.616-20.384-27.077 24.923-18.462q-9.616-26.077-9.616-48.808 0-22.73 9.616-48.807l-24.923-18.462 20.384-28.077 25.077 15.385q13.77-15.847 33.616-27.847 19.846-12 46-17.23l1.154-29h30.769l1.385 29q26.153 5.23 46 17.23 19.846 12 33.615 27.077l25.077-14.615 20.385 28.077-24.924 18.462q9.616 26.077 9.616 48.423t-9.616 49.192l24.924 18.462-20.385 27.077-25.077-14.616q-13.769 16.308-33.615 28.192-19.847 11.885-46 17.116l-1.385 28.769h-30.769Zm15.384-58.077q40.154 0 68-27.846 27.846-27.846 27.846-68 0-40.154-27.846-68.385t-68-28.231q-40.923 0-68.769 28.231-27.846 28.231-27.846 68.385t27.846 68q27.846 27.846 68.769 27.846Z"/></svg>