<svg xmlns="http://www.w3.org/2000/svg" width="48" height="48" viewBox="0 -960 960 960"><path d="M692.321-512.385q-13.475 0-23.513-9.563-10.039-9.563-10.039-23.423 0-13.86 10.108-23.514 10.109-9.654 23.263-9.654 13.475 0 23.129 9.564 9.654 9.563 9.654 23.423 0 13.86-9.563 23.514-9.564 9.653-23.039 9.653ZM435.538-480ZM303.154-372.231v-90.923h-90.923v-30.769h90.923v-90.923h30.769v90.923h90.923v30.769h-90.923v90.923h-30.769ZM175.384-280q-23.057 0-39.221-16.163Q120-312.327 120-335.663v-288.953q0-23.23 15.992-39.307Q151.985-680 174.615-680H280l30.769 30.769H175.384q-9.23 0-16.923 7.692-7.692 7.693-7.692 16.923v289.232q0 9.23 7.692 16.923 7.693 7.692 16.923 7.692h429.385l-492.231-493 22.231-21.462 690.462 690.462-21.462 22.231L635.538-280H175.384ZM840-335.384q0 17.436-10.692 31.795-10.692 14.359-27 17.435l6.923 6.923v-345.385q0-9.23-7.692-16.923-7.693-7.692-16.923-7.692H410.615L379.846-680h404.77q23.057 0 39.221 16.163Q840-647.673 840-624.337v288.953ZM609.923-464.615Z"/></svg>