<svg xmlns="http://www.w3.org/2000/svg" width="48" height="48" viewBox="0 96 960 960"><path d="M262.923 691.692q53.769-5.692 108.038-9.153 54.27-3.462 109.039-3.462t109.039 3.462q54.269 3.461 108.038 9.153L563.385 524.077 451.692 662.308l-83.154-102.77-105.615 132.154ZM158.461 843.693Q143 847.539 131.5 839.885q-11.5-7.654-11.5-25.423V339.077q0-17.77 11.5-25.423 11.5-7.654 26.961-3.808 19.539 5.384 50.5 13.346 30.962 7.962 71.577 15.115 40.616 7.154 90.423 12.423Q420.769 356 480 356t108.654-5.27q49.423-5.269 90.039-12.423 40.615-7.153 71.192-15.115 30.577-7.962 50.115-13.346 15.462-3.846 27.731 3.808Q840 321.307 840 339.077v475.385q0 17.769-12.269 25.423T800 843.693q-19.538-5.385-50.115-13.347-30.577-7.961-71.192-15.884-40.616-7.923-90.039-13.192Q539.231 796 480 796q-59.231 0-109.039 5.27-49.807 5.269-90.423 13.192-40.615 7.923-71.577 15.884-30.961 7.962-50.5 13.347Z"/></svg>