<svg xmlns="http://www.w3.org/2000/svg" width="48" height="48" viewBox="0 -960 960 960"><path d="M215.384-160q-23.057 0-39.221-16.163Q160-192.327 160-215.384v-229.231h30.769v229.231q0 9.23 7.692 16.923 7.693 7.692 16.923 7.692h229.231V-160H215.384Zm300.001 0v-30.769h229.231q9.23 0 16.923-7.692 7.692-7.693 7.692-16.923v-229.231H800v229.231q0 23.057-16.163 39.221Q767.673-160 744.616-160H515.385ZM298.538-294.154l78-99.692 70.693 87.769 110.461-137.154 111.616 149.077h-370.77ZM160-515.385v-229.231q0-23.057 16.163-39.221Q192.327-800 215.384-800h229.231v30.769H215.384q-9.23 0-16.923 7.692-7.692 7.693-7.692 16.923v229.231H160Zm609.231 0v-229.231q0-9.23-7.692-16.923-7.693-7.692-16.923-7.692H515.385V-800h229.231q23.057 0 39.221 16.163Q800-767.673 800-744.616v229.231h-30.769Zm-155.374-56.923q-17.872 0-29.711-11.981-11.838-11.982-11.838-29.854 0-17.873 11.981-29.711 11.982-11.838 29.854-11.838 17.873 0 29.711 11.981 11.838 11.982 11.838 29.854t-11.981 29.711q-11.982 11.838-29.854 11.838Z"/></svg>