<svg xmlns="http://www.w3.org/2000/svg" width="48" height="48" viewBox="0 0 48 48"><path d="M39.25 32.75v-1.5h1.5v1.5Zm0-8v-1.5h3.5v1.5Zm0-8V15.2h5.5v1.55ZM15.1 40.4l-1.6-6.05q-2.7-1.4-4.35-4.15Q7.5 27.45 7.5 24t1.65-6.225Q10.8 15 13.5 13.65l1.6-6.05h8.8l1.6 6.05q2.7 1.35 4.35 4.125Q31.5 20.55 31.5 24q0 3.45-1.65 6.2t-4.35 4.15l-1.6 6.05Zm4.4-5.95q4.35 0 7.4-3.025Q29.95 28.4 29.95 24q0-4.35-3.025-7.4-3.025-3.05-7.425-3.05-4.35 0-7.4 3.025Q9.05 19.6 9.05 24q0 4.35 3.025 7.4 3.025 3.05 7.425 3.05Z"/></svg>