<svg xmlns="http://www.w3.org/2000/svg" width="48" height="48" viewBox="0 -960 960 960"><path d="m479.23-560.92-25.08 37.77q-19.38 29.84-24.46 40.84-5.07 11-5.07 27.85 0 23.61 15.88 39.5 15.88 15.88 39.5 15.88 23.62 0 39.5-15.88 15.88-15.89 15.88-39.5 0-16.08-5.46-28.62-5.46-12.54-24.84-40.07l-25.85-37.77Zm-164.31 246q-68-68-68-165.08 0-97.08 68-165.08 68-68 165.08-68 97.08 0 165.08 68 68 68 68 165.08 0 97.08-68 165.08-68 68-165.08 68-97.08 0-165.08-68Zm514.31-194.31V-540h-88.38q-13.31-60-50.2-106.58-36.88-46.57-89.96-73.42h228.54v-30.77H860v241.54h-30.77ZM100-209.23v-241.54h30.77V-420h88.38q13.31 60 50.2 106.58 36.88 46.57 89.96 73.42H130.77v30.77H100Z"/></svg>