<svg xmlns="http://www.w3.org/2000/svg" width="48" height="48" viewBox="0 -960 960 960"><path d="M449.385-489.539 700-740.693q5.154-5.153 11-5.153t11 5.153q5.154 5.154 5.154 11.001 0 5.846-5.154 11L471.385-468.077l-22-21.462Zm95.538 94.001 222.385-222.385q4.451-4.385 10.764-4.385t10.697 4.227q5.154 4.996 5.154 11t-5.154 11.158L565.385-373.308l-20.462-22.23ZM220.384-223.615q-80.23-80.231-79.961-191.847.269-111.615 81.269-192.615l115.846-115.077 31.231 32q13.539 13.538 20.654 30.692T396-626.231l152.231-152.462q4.451-4.384 10.764-4.384t11.467 4.437q4.384 5.207 4.384 11.5 0 6.294-4.384 10.678L382.846-568.846l-53.461 54.231 22.923 23.692q35.846 35.846 35.884 87.423.039 51.577-36.577 88.193l-10.846 10.846-20.461-22.231 10.076-11.616q27.308-27.307 27.039-65.423-.269-38.115-27.346-65.961l-25.462-25.462q-8.231-8.297-8.231-19.995 0-11.697 8.231-19.928l44.462-42.692q17.769-18.539 17.769-45.193 0-26.653-17.769-45.192l-11.539-11.538-93.846 93.077q-71.461 70.692-72.115 170-.654 99.307 70.038 170 71.693 72.461 172 73.192 100.308.731 171.77-70.731l214.077-214.077q4.451-4.385 10.764-4.385t11.467 4.227q4.384 4.996 4.384 11t-4.384 11.158L606.846-222.923q-80.231 81-192.846 80.269-112.615-.73-193.616-80.961Zm192.385-193.154ZM655.154-89.231 654.616-120q77.153 0 131.269-54.115Q840-228.231 840-305.384l30.77.538q0 88.928-63.344 152.272Q744.082-89.23 655.154-89.23ZM89.231-655.154q0-88.928 63.343-152.272 63.344-63.344 152.272-63.344l.538 30.77q-77.153 0-131.269 54.115Q120-731.769 120-654.616l-30.77-.538Z"/></svg>