<svg xmlns="http://www.w3.org/2000/svg" width="48" height="48" viewBox="0 96 960 960"><path d="M692.308 1003.69v-36.152q72.692-3.846 123.269-55.192Q866.154 861 871.538 788.308h35.385q-3.846 90.769-68.077 153.077-64.231 62.305-146.538 62.305ZM53.077 363.692q3.846-88.461 65-149.615 61.154-61.154 149.615-65v35.385Q195 188.308 144.423 239.654 93.846 291 88.462 363.692H53.077Zm146 513.231q-42.616-42.615-63.924-93.615-21.307-51-21.307-103.731 0-52.731 21.307-103.731 21.308-51 63.924-93.615l157.846-157.847q13.231-13.23 30.884-13.461 17.654-.231 31.116 13.231 13.231 13.23 13.231 30.884t-13.231 30.885L302.076 502.769q42.308 56.615 41.308 110.5t-35 98.885L330.23 734q38.693-51.846 41.5-109.462 2.808-57.615-30.807-116.923l255-255q13.462-13.461 31.269-13.461 17.808 0 31.27 13.461 13.23 13.231 13.461 30.654.231 17.423-13.461 31.115L461 511.846l21.615 21.846 253.693-254.461Q749.539 266 767.577 266q18.038 0 30.5 13.231 13.231 13.23 13.231 31.269 0 18.038-13.231 31.269L544.385 595.461l22.077 21.847 212.23-212.231q13.462-13.462 30.501-13.462 17.038 0 30.5 13.462 13.23 13.231 13.23 30.5t-13.23 30.5L599.231 706.308l21.077 22.077 156.231-155.462Q790.231 560 807.27 559.846q17.038-.154 29.5 13.077 13.23 13.231 13.461 30.269.231 17.039-13.461 30.731l-243.001 243q-42.615 42.616-93.615 63.923-51 21.308-103.731 21.308-52.731 0-103.731-21.308-51-21.307-93.615-63.923Z"/></svg>