<svg xmlns="http://www.w3.org/2000/svg" width="48" height="48" viewBox="0 -960 960 960"><path d="m715.462-571.461-22.001-22.462 69.078-68.616 22 22-69.077 69.078ZM100-184.615v-30.77h760v30.77H100Zm364.615-486.154v-95.385h30.77v95.385h-30.77Zm-220.077 99.077L175.692-641l22-22L267-593.692l-22.462 22Zm38.847 180.923h393.23q-21.307-62.539-74.692-100.5Q548.539-529.231 480-529.231t-121.923 37.962q-53.385 37.961-74.692 100.5ZM244.615-360q13.846-87 80.346-143.5T480-560q88.539 0 155.039 56.5 66.5 56.5 80.346 143.5h-470.77ZM480-390.769Z"/></svg>