<svg xmlns="http://www.w3.org/2000/svg" width="48" height="48" viewBox="0 96 960 960"><path d="M480 936q-55.231 0-108.154-17.307Q318.923 901.385 269.461 868l22.462-22.461q42.462 29.23 90.539 44.461 48.076 15.231 97.538 15.231 138.385 0 233.808-95.423T809.231 576q0-138.385-95.423-233.808T480 246.769q-138.385 0-233.808 95.423T150.769 576H120q0-74.539 28.423-140.115 28.423-65.577 77.154-114.308Q274.308 272.846 340 244.423 405.692 216 480 216q74.539 0 140.115 28.423 65.577 28.423 114.308 77.154 48.731 48.731 77.154 114.308Q840 501.461 840 576q0 74.308-28.423 140t-77.154 114.423q-48.731 48.731-114.308 77.154Q554.539 936 480 936ZM169.308 758.308l146.307-145.539 123.154 104.847 224.077-224.077v147.384h27.693V448.615H498.231v27.693h147.384L438.308 683.615 315.154 578.769 157.461 736.462q2.385 6.307 5.039 11.269t6.808 10.577ZM480 576Z"/></svg>