<svg xmlns="http://www.w3.org/2000/svg" width="48" height="48" viewBox="0 -960 960 960"><path d="M452.308-80q0-14.23 13.865-22.5 13.865-8.269 38.442-8.269v-243.462q-19.615-4-34.538-14.73-14.923-10.731-23.616-27.885l-104.922 65q-6.308 4.385-14.347 5.231-8.038.846-17.346-1.846l-180-51q-16.692-4.923-26.731-18.587Q93.077-411.711 93.077-429q0-21.846 14.577-36.423Q122.231-480 144.077-480h300.231q8.461-16.385 22.769-28.231 14.308-11.846 32.923-16.077v-139.308q0-7.769 3.038-15.461 3.039-7.693 9.654-13.308l137-128q12.89-12.934 29.984-14.813 17.093-1.879 31.665 7.351 17.934 11.363 23.258 32.1 5.324 20.738-5.445 38.04L575.308-503.846q18 10.692 26.5 35.327 8.5 24.635 1.808 46.827L727-391.077q8.539 2.461 14.885 6.692t9.731 11.308l91 164.769q8.846 15.462 6.487 32.235T833.769-147q-14.692 14.693-35.654 14.308-20.961-.385-36.423-15.077L551.538-357.923q-3.846 2.308-7.692 3.846-3.846 1.539-8.461 2.308v241q25 0 38.654 8.394Q587.692-93.981 587.692-80H452.308ZM200-764.615v-30.77h200v30.77H200ZM530.769-668v141q4.846 1.231 9.577 2.923t8.347 4.385l154.076-254.233q4.693-7.177 2.347-15.483-2.347-8.306-9.731-11.708-5.923-3.961-13.346-2.846-7.424 1.116-11.347 5.039L530.769-668Zm-450.77 63.385v-30.77H240v30.77H80Zm439.866 221.538q24.866 0 40.962-15.961 16.096-15.961 16.096-40.827t-15.961-40.962q-15.961-16.096-40.827-16.096t-40.962 15.961q-16.096 15.961-16.096 40.827t15.961 40.962q15.961 16.096 40.827 16.096ZM322-355.538l114.231-71.077q-2.693-5.539-2.808-11.308-.116-5.769 1.115-11.308h-290.25q-8.316 0-14.379 6.077-6.063 6.077-6.063 14.539 0 6.769 4.077 12.132Q132-411.121 138.154-409L322-355.538Zm401.308-5-131.154-32.154q-2.923 5.077-6.538 9.038-3.616 3.962-7.693 7.347l204.322 205.593q6.299 6.099 14.566 6.099 8.266 0 14.574-5.885 5.557-5.285 6.163-11.579.606-6.294-2.856-12.935l-91.384-165.524ZM160-164.615v-30.77h160v30.77H160ZM520-440Zm28.693-79.692Zm-114.155 70.461Zm143.385 72.924Z"/></svg>