<svg xmlns="http://www.w3.org/2000/svg" width="48" height="48" viewBox="0 -960 960 960"><path d="m720-139.08 98.38-98.38-18.69-18.69-66.23 67v-151.77h-26.15v151.77l-67-67-18.69 18.69L720-139.08ZM390.77-680h178.46v-64.62q0-10.77-6.92-17.69-6.93-6.92-17.69-6.92H415.38q-10.76 0-17.69 6.92-6.92 6.92-6.92 17.69V-680ZM609-129q-45.85-45.85-45.85-111T609-351q45.85-45.85 111-45.85T831-351q45.85 45.85 45.85 111T831-129q-45.85 45.85-111 45.85T609-129Zm-433.62-31q-23.23 0-39.3-16.08Q120-192.15 120-215.38v-409.24q0-23.23 16.08-39.3Q152.15-680 175.38-680H360v-64.62q0-23 16.08-39.19Q392.15-800 415.38-800h129.24q23.23 0 39.3 16.19Q600-767.62 600-744.62V-680h184.62q23.23 0 39.3 16.08Q840-647.85 840-624.62v192.7q-26.31-17.23-57.31-26.46-31-9.24-62.69-9.24-94 0-160.81 66.81T492.38-240q0 21.92 3.66 40.46Q499.69-181 508-160H175.38Z"/></svg>