<svg xmlns="http://www.w3.org/2000/svg" width="48" height="48" viewBox="0 0 48 48"><path d="M8.75 40q-1.15 0-1.95-.8T6 37.25v-20.5q0-1.15.8-1.95t1.95-.8H18v-3.25q0-1.15.8-1.95t1.95-.8h6.5q1.15 0 1.95.8t.8 1.95V14h9.25q1.15 0 1.95.8t.8 1.95v20.5q0 1.15-.8 1.95t-1.95.8Zm0-1.55h30.5q.45 0 .825-.375.375-.375.375-.825v-20.5q0-.45-.375-.825-.375-.375-.825-.375H8.75q-.45 0-.825.375-.375.375-.375.825v20.5q0 .45.375.825.375.375.825.375ZM19.55 14h8.9v-3.25q0-.45-.375-.825-.375-.375-.825-.375h-6.5q-.45 0-.825.375-.375.375-.375.825Zm-12 24.45v-22.9 22.9Z"/></svg>