<svg xmlns="http://www.w3.org/2000/svg" width="48" height="48" viewBox="0 -960 960 960"><path d="M335.38-241.54h289.24v-30.77H335.38v30.77Zm-40 121.54q-23.23 0-39.3-16.08Q240-152.15 240-175.38v-309.24q0-78.76 45.15-140.03 45.16-61.27 116-87.12v-12.85q0-33.23 22.81-57.38 22.81-24.15 56.04-24.15 33.23 0 56.42 24.15 23.2 24.15 23.2 57.38v12.85q70.07 25.85 115.23 87.12Q720-563.38 720-484.62v309.24q0 23.23-16.08 39.3Q687.85-120 664.62-120H295.38Zm136.54-600.31q8.85-1.77 22.81-3.04 13.96-1.27 25.27-1.27 11.31 0 25.27 1.27 13.96 1.27 23.58 3.04v-4.31q0-20.76-14.04-35.76-14.04-15-34.81-15-20.77 0-34.42 15-13.66 15-13.66 35.76v4.31Zm-14.38 317.23L480-450.62l62.46 47.54-23.38-77.15 62.46-44.54h-77.16L480-606.15l-24.38 81.38h-77.16l62.46 44.54-23.38 77.15Z"/></svg>