<svg xmlns="http://www.w3.org/2000/svg" width="48" height="48" viewBox="0 96 960 960"><path d="M603.578 683.692q6.499 0 10.691-4.493 4.193-4.494 4.193-11.276v-78.846l94.692 91.462q1.692 2.461 4.511 2.807 2.818.346 4.684.346 11.834 0 15.474-9.5 3.639-9.5-4.284-16.884l-86.308-82.846 86.846-80q7.154-7.559 4.231-16.857-2.923-9.297-14.308-9.297-3.712 0-5.904 1.23-2.192 1.231-4.404 2.923l-95.23 88.924v-79.077q0-5.502-4.415-9.751t-11.077-4.249q-6.662 0-10.97 4.275-4.308 4.276-4.308 10.725v185.615q0 5.82 4.527 10.295 4.526 4.474 11.359 4.474ZM292.154 499.077v169.846q0 5.82 4.415 10.295 4.415 4.474 11.077 4.474t10.969-4.493q4.308-4.494 4.308-11.276v-172q0-11.717-8.285-19.666-8.286-7.949-19.33-7.949h-74.385q-5.82 0-10.294 4.415-4.475 4.415-4.475 11.077t4.493 10.969q4.494 4.308 11.276 4.308h70.231Zm115.384 184.615h95.539q11.813 0 19.714-7.901 7.901-7.901 7.901-19.714V496.154q0-11.912-7.901-19.879-7.901-7.967-19.714-7.967h-95.539q-12.486 0-20.051 7.967-7.564 7.967-7.564 19.879v159.923q0 11.813 7.564 19.714 7.565 7.901 20.051 7.901Zm3.154-30.769V499.077h89.231v153.846h-89.231ZM215.384 896q-23.057 0-39.221-16.163Q160 863.673 160 840.616V311.384q0-23 16.163-39.192Q192.327 256 215.384 256h529.232q23 0 39.192 16.192T800 311.384v529.232q0 23.057-16.192 39.221Q767.616 896 744.616 896H215.384Zm0-30.769h529.232q10.769 0 17.692-6.923t6.923-17.692V311.384q0-10.769-6.923-17.692t-17.692-6.923H215.384q-10.769 0-17.692 6.923t-6.923 17.692v529.232q0 10.769 6.923 17.692t17.692 6.923Zm-24.615-578.462v578.462-578.462Z"/></svg>