<svg xmlns="http://www.w3.org/2000/svg" width="48" height="48" viewBox="0 96 960 960"><path d="M522.615 683.692q7.154 0 11.462-4.307 4.308-4.308 4.308-11.462v-78.846l94.692 91.462q1.692 2.461 4.538 2.807 2.846.346 4.77.346 11.384 0 14.807-9.5t-3.73-16.884l-86.308-82.846 86.846-80q7.923-7.154 4.615-16.654-3.307-9.5-14.692-9.5-3.462 0-6.038 1.23-2.577 1.231-5.039 2.923l-94.461 88.924v-79.077q0-5.385-4.308-9.693-4.308-4.307-11.462-4.307-6.384 0-10.692 4.307-4.308 4.308-4.308 10.693v185.615q0 6.154 4.308 10.462 4.308 4.307 10.692 4.307Zm-157 0q7.154 0 11.462-4.307 4.308-4.308 4.308-11.462V483.308q0-6.385-4.308-10.693-4.308-4.307-11.462-4.307h-62.461q-5.385 0-9.693 4.307-4.307 4.308-4.307 10.693 0 7.154 4.307 11.461 4.308 4.308 10.693 4.308h46.461v169.846q0 6.154 4.308 10.462 4.308 4.307 10.692 4.307ZM215.384 896q-23.23 0-39.307-16.077T160 840.616V311.384q0-23 16.077-39.192T215.384 256h529.232q23 0 39.192 16.192T800 311.384v529.232q0 23.23-16.192 39.307T744.616 896H215.384Z"/></svg>