<svg xmlns="http://www.w3.org/2000/svg" width="48" height="48" viewBox="0 -960 960 960"><path d="M276.615-300q-6.846 0-11.115-4.269t-4.269-11.116v-313.846h-65.846q-6.847 0-11.116-4.269Q180-637.769 180-644.615q0-6.847 4.269-11.116Q188.538-660 195.385-660h68.923q11.461 0 19.577 7.731 8.115 7.73 8.115 19.961v316.923q0 6.847-4.269 11.116Q283.462-300 276.615-300Zm209.616 0q-9.308 0-13.077-7.192-3.769-7.193.615-15.039l100.231-170-87-144q-5.154-8.846-1-16.308Q490.154-660 501.231-660q3.384 0 7.269 2.192 3.885 2.193 6.346 5.346l79 130.154 76.769-130.154q1.693-3.153 5.577-5.346 3.885-2.192 7.27-2.192 10.077 0 13.73 7.077 3.654 7.077-1.269 15.154l-83.769 145.538 99 168.462q5.154 8.846.615 16.308Q707.231-300 696.923-300q-3.384 0-7.654-2.192-4.269-2.193-5.961-5.346l-91-155.385-91.462 155.385q-1.692 3.153-6.077 5.346-4.384 2.192-8.538 2.192Z"/></svg>