<svg xmlns="http://www.w3.org/2000/svg" width="48" height="48" viewBox="0 -960 960 960"><path d="M298.462-547.692v-63h89.23q11.616 0 21.193-9.577 9.577-9.577 9.577-21.193v-60.077q0-11.615-9.577-21.192t-21.193-9.577H283.461q-7 0-11.384 4.263-4.385 4.263-4.385 11.077t4.385 11.122q4.384 4.308 11.384 4.308h104.231v63.23h-89.231q-11.615 0-21.192 9.577t-9.577 21.193v74.846q0 7 4.385 11.384 4.384 4.385 11.384 4.385h120q6.667 0 10.834-4.375 4.167-4.374 4.167-11.359 0-6.651-4.167-10.843t-10.834-4.192H298.462Zm270.692 30.769h89.231q11.615 0 21.192-9.577t9.577-21.192v-153.847q0-11.615-9.577-21.192t-21.192-9.577h-89.231q-11.616 0-21.192 9.577-9.577 9.577-9.577 21.192v153.847q0 11.615 9.577 21.192 9.576 9.577 21.192 9.577ZM566-547.692v-153.846h92.385v153.846H566ZM215.384-160q-23.057 0-39.221-16.163Q160-192.327 160-215.384v-529.232q0-23.057 16.163-39.221Q192.327-800 215.384-800h529.232q23.057 0 39.221 16.163Q800-767.673 800-744.616v529.232q0 23.057-16.163 39.221Q767.673-160 744.616-160H215.384Zm64.539-252.308h70.692v108.154q0 6.667 4.263 10.834 4.263 4.166 11.077 4.166t11.122-4.166q4.308-4.167 4.308-10.834v-108.154h73.846v168.847q0 7 4.263 11.384 4.263 4.385 11.077 4.385t11.121-4.385Q486-236.461 486-243.461v-171.924q0-10.923-8.385-19.307-8.384-8.385-19.307-8.385H276.846q-10.923 0-19.308 8.385-8.384 8.384-8.384 19.307v171.924q0 7 4.263 11.384 4.263 4.385 11.077 4.385t11.121-4.385q4.308-4.384 4.308-11.384v-168.847Zm310.692 123.154h92.308q10.923 0 19.308-8.384 8.384-8.385 8.384-19.308v-98.539q0-10.923-8.384-19.307-8.385-8.385-19.308-8.385h-108.44q-6.073 0-10.355 4.167-4.282 4.166-4.282 10.833v184.616q0 7 4.263 11.384 4.263 4.385 11.077 4.385t11.122-4.385q4.307-4.384 4.307-11.384v-45.693Zm0-30.769v-92.385h89.231v92.385h-89.231Z"/></svg>