<svg xmlns="http://www.w3.org/2000/svg" width="48" height="48" viewBox="0 96 960 960"><path d="M341.024 539.077h105.591q6.112 0 10.441-4.491 4.329-4.491 4.329-11.359 0-6.535-4.468-10.727t-11.302-4.192h-104.23v-63h89.23q11.616 0 21.193-9.577 9.577-9.577 9.577-21.193v-60.077q0-11.615-9.577-21.192t-21.193-9.577h-106q-5.793 0-9.896 4.379-4.104 4.38-4.104 11.077 0 6.698 4.25 11.006t10.75 4.308h105v63.23h-89.23q-12.385 0-21.577 9.577-9.193 9.577-9.193 21.193v59.846q0 12.384 8.808 21.577 8.808 9.192 21.601 9.192Zm274.278 0q6.698 0 11.006-4.468 4.307-4.468 4.307-11.301V354.636q0-12.559-9.192-21.751-9.192-9.193-21.577-9.193h-47.791q-5.278 0-9.474 4.379-4.196 4.38-4.196 11.077 0 6.698 4.25 11.006t10.75 4.308h46.461v169.846q0 6.111 4.379 10.44 4.38 4.329 11.077 4.329ZM215.384 896q-23.057 0-39.221-16.163Q160 863.673 160 840.616V311.384q0-23 16.163-39.192Q192.327 256 215.384 256h529.232q23 0 39.192 16.192T800 311.384v529.232q0 23.057-16.192 39.221Q767.616 896 744.616 896H215.384Zm49.226-67.692q6.698 0 11.005-4.468 4.308-4.468 4.308-11.301V643.692h70.692v109.154q0 5.793 4.38 9.897 4.379 4.103 11.077 4.103 6.697 0 11.005-4.25 4.308-4.25 4.308-10.75V643.692h73.846v169.847q0 6.111 4.379 10.44t11.077 4.329q6.698 0 11.005-4.468Q486 819.372 486 812.539V640.615q0-10.923-8.385-19.307-8.384-8.385-19.307-8.385H276.846q-10.923 0-19.308 8.385-8.384 8.384-8.384 19.307v172.924q0 6.111 4.379 10.44t11.077 4.329Zm310.692 0q6.698 0 11.006-4.468 4.307-4.468 4.307-11.301v-45.693h92.308q10.923 0 19.308-8.384 8.384-8.385 8.384-19.308v-98.539q0-10.923-8.384-19.307-8.385-8.385-19.308-8.385h-95.384q-11.77 0-19.731 7.962-7.962 7.961-7.962 19.73v172.924q0 6.111 4.379 10.44 4.38 4.329 11.077 4.329Zm15.313-184.616h89.231v92.385h-89.231v-92.385Z"/></svg>