<svg xmlns="http://www.w3.org/2000/svg" width="48" height="48" viewBox="0 -960 960 960"><path d="m546.15-466.92 93.93 90.46q1.23 2 10.07 4.15 10.62 0 14.81-10.38 4.19-10.39-3.73-17.54l-86.31-81.31 87.08-80q7.15-7.15 2.96-16.65-4.19-9.5-14.04-9.5-2.69 0-4.77 1.23-2.07 1.23-4.53 2.92l-95.47 88.92v-78.07q0-6.39-4.3-10.69-4.31-4.31-11.08-4.31-6.77 0-11.08 4.31-4.31 4.3-4.31 10.69v184.61q0 7.16 4.31 11.46 4.31 4.31 11.08 4.31 6.77 0 11.08-4.31 4.3-4.3 4.3-11.46v-78.84Zm-235.38 63.84v-63h92.15q11.7 0 19.77-7.57 8.08-7.58 8.08-20.04v-66.16q0-11.69-8.08-19.77-8.07-8.07-19.77-8.07H295.77q-7.15 0-11.46 4.31-4.31 4.3-4.31 11.07 0 6.77 4.31 11.08 4.31 4.31 11.46 4.31H400v63.23h-92.38q-11.7 0-19.66 7.96-7.96 7.96-7.96 19.65v78q0 7.16 4.31 11.46 4.31 4.31 11.46 4.31h120q6.38 0 10.69-4.31 4.31-4.3 4.31-11.07 0-6.77-4.31-11.08-4.31-4.31-10.69-4.31h-105ZM215.38-160q-23.23 0-39.3-16.08Q160-192.15 160-215.38v-529.24q0-23.23 16.08-39.3Q192.15-800 215.38-800h529.24q23.23 0 39.3 16.08Q800-767.85 800-744.62v529.24q0 23.23-16.08 39.3Q767.85-160 744.62-160H215.38Z"/></svg>