<svg xmlns="http://www.w3.org/2000/svg" width="48" height="48" viewBox="0 -960 960 960"><path d="M316.861-300q-6.63 0-10.9-4.423-4.269-4.423-4.269-10.962v-109.23H155.385q-6.539 0-10.962-4.423T140-440v-204.615q0-6.539 4.485-10.962T155.601-660q6.63 0 10.899 4.423 4.269 4.423 4.269 10.962v189.23h130.923v-189.23q0-6.539 4.485-10.962Q310.663-660 317.293-660t10.899 4.423q4.27 4.423 4.27 10.962v189.23h67.307q6.539 0 10.962 4.485 4.423 4.486 4.423 11.116t-4.423 10.899q-4.423 4.27-10.962 4.27h-67.307v109.23q0 6.539-4.486 10.962Q323.491-300 316.861-300ZM560-300q-22.25 0-38.817-16.567-16.568-16.568-16.568-38.818v-249.23q0-22.25 16.568-38.818Q537.75-660 560-660h244.615q6.539 0 10.962 4.485T820-644.4q0 6.631-4.423 10.9t-10.962 4.269H560q-10.769 0-17.692 6.923t-6.923 17.693v249.23q0 10.77 6.923 17.693 6.923 6.923 17.692 6.923h204.846q10.769 0 17.692-6.923t6.923-17.693v-110.461h-86.076q-6.539 0-10.962-4.485T688-481.447q0-6.63 4.423-10.899 4.423-4.269 10.962-4.269h101.23q6.539 0 10.962 4.423T820-481.231v125.846q0 22.25-15.87 38.818Q788.26-300 764.846-300H560Z"/></svg>