<svg xmlns="http://www.w3.org/2000/svg" width="48" height="48" viewBox="0 -960 960 960"><path d="m546.154-466.923 93.923 90.462q.776 2.181 10.077 4.153 10.615 0 14.808-10.384 4.192-10.385-3.731-17.539l-86.308-81.307 87.077-80q7.154-7.154 2.962-16.654-4.193-9.5-14.039-9.5-2.748 0-4.848 1.3-2.101 1.301-4.46 2.853l-95.461 88.924v-78.077q0-6.5-4.379-10.75-4.38-4.25-11.077-4.25-6.698 0-11.006 4.25-4.307 4.25-4.307 10.75v184.615q0 6.833 4.49 11.301 4.491 4.468 11.359 4.468 6.535 0 10.728-4.468 4.192-4.468 4.192-11.301v-78.846Zm-164.616 33.154v45.692q0 6.833 4.491 11.301t11.359 4.468q6.535 0 10.727-4.468 4.193-4.468 4.193-11.301v-45.692h34.23q6.5 0 10.75-4.379 4.25-4.38 4.25-11.077 0-6.698-4.25-11.006t-10.75-4.308h-34.23v-108.153q0-6.5-4.38-10.75-4.379-4.25-11.076-4.25-6.698 0-11.006 4.25t-4.308 10.75v108.153h-77.076v-108.153q0-6.5-4.491-10.75t-11.359-4.25q-6.535 0-10.727 4.25-4.193 4.25-4.193 10.75v123.923q0 6.5 4.25 10.75t10.75 4.25h92.846ZM215.384-160q-23.057 0-39.221-16.163Q160-192.327 160-215.384v-529.232q0-23.057 16.163-39.221Q192.327-800 215.384-800h529.232q23.057 0 39.221 16.163Q800-767.673 800-744.616v529.232q0 23.057-16.163 39.221Q767.673-160 744.616-160H215.384Z"/></svg>