<svg xmlns="http://www.w3.org/2000/svg" width="48" height="48" viewBox="0 0 48 48"><path d="M27.45 22.15h4.45q.6 0 1.075-.475t.475-1.075v-7.7q0-.55-.475-1.025Q32.5 11.4 31.9 11.4h-4.45q-.55 0-1.05.475t-.5 1.025v7.7q0 .6.5 1.075t1.05.475Zm-.15-1.55v-7.7h4.6v7.7ZM14 27.4h3.55v5.4q0 .3.2.525.2.225.55.225.35 0 .55-.225.2-.225.2-.525v-5.4h3.7v8.45q0 .3.225.525.225.225.575.225.3 0 .525-.225.225-.225.225-.525v-8.6q0-.55-.425-.975-.425-.425-.975-.425h-9.05q-.55 0-.975.425-.425.425-.425.975v8.6q0 .3.225.525.225.225.575.225.3 0 .525-.225.225-.225.225-.525Zm15.55 6.15h4.6q.55 0 .975-.425.425-.425.425-.975v-4.9q0-.55-.425-.975-.425-.425-.975-.425H29.4q-.6 0-1 .4t-.4 1v8.6q0 .3.225.525.225.225.525.225.35 0 .575-.225.225-.225.225-.525Zm0-1.55v-4.6H34V32Zm-18.8 8q-1.15 0-1.95-.8T8 37.25v-26.5q0-1.15.8-1.95t1.95-.8h26.5q1.15 0 1.95.8t.8 1.95v26.5q0 1.15-.8 1.95t-1.95.8Zm0-1.55h26.5q.45 0 .825-.375.375-.375.375-.825v-26.5q0-.45-.375-.825-.375-.375-.825-.375h-26.5q-.45 0-.825.375-.375.375-.375.825v26.5q0 .45.375.825.375.375.825.375Zm-1.2-28.9v28.9-28.9Zm10.2 7.9v3.15H14.5q-.3 0-.525.225-.225.225-.225.575 0 .3.225.525.225.225.525.225h5.25q.6 0 1.075-.475T21.3 20.6v-3q0-.55-.475-1.025-.475-.475-1.075-.475H15.3v-3.2h5.2q.35 0 .575-.225.225-.225.225-.525 0-.35-.225-.55-.225-.2-.575-.2h-5.35q-.6 0-1 .4t-.4.95v3.35q0 .55.4.95.4.4 1 .4Z"/></svg>