<svg xmlns="http://www.w3.org/2000/svg" width="48" height="48" viewBox="0 96 960 960"><path d="M531.27 683.692q6.499 0 10.692-4.493 4.192-4.494 4.192-11.276v-78.846l94.692 91.462q1.693 2.461 4.511 2.807 2.818.346 4.553.346 11.478 0 15.361-9.884 3.883-9.885-4.04-16.5l-86.308-82.846 86.846-80q8.693-6.385 5-16.27-3.692-9.884-15.077-9.884-3.711 0-5.903 1.23-2.193 1.231-4.404 2.923l-95.231 88.924v-79.077q0-5.502-4.415-9.751t-11.077-4.249q-6.662 0-10.97 4.275-4.307 4.276-4.307 10.725v185.615q0 5.82 4.526 10.295 4.527 4.474 11.359 4.474Zm-242.578 0h108.154q11.814 0 19.715-7.901t7.901-19.714v-66.154q0-11.813-7.901-19.714-7.901-7.901-19.715-7.901h-92.384v-63.231h105.23q5.82 0 10.295-4.527 4.475-4.526 4.475-11.359 0-6.499-4.494-10.691-4.494-4.192-11.276-4.192H301.308q-11.718 0-19.667 7.949-7.949 7.949-7.949 19.666v66.385q0 11.717 7.949 19.666t19.667 7.949h92.384v63h-106q-5.501 0-9.75 4.415-4.25 4.415-4.25 11.077t4.276 10.97q4.275 4.307 10.724 4.307ZM215.384 896q-23.057 0-39.221-16.163Q160 863.673 160 840.616V311.384q0-23 16.163-39.192Q192.327 256 215.384 256h529.232q23 0 39.192 16.192T800 311.384v529.232q0 23.057-16.192 39.221Q767.616 896 744.616 896H215.384Zm0-30.769h529.232q10.769 0 17.692-6.923t6.923-17.692V311.384q0-10.769-6.923-17.692t-17.692-6.923H215.384q-10.769 0-17.692 6.923t-6.923 17.692v529.232q0 10.769 6.923 17.692t17.692 6.923Zm-24.615-578.462v578.462-578.462Z"/></svg>