<svg xmlns="http://www.w3.org/2000/svg" width="48" height="48" viewBox="0 -960 960 960"><path d="M255.211-729.231q-24.162 0-40.648-17.044-16.486-17.044-16.486-40.692 0-23.649 16.53-40.649t40.692-17q24.162 0 41.162 17.045 17 17.044 17 40.692t-17.044 40.648q-17.044 17-41.206 17ZM120-587.308V-588q0-16.466 9.147-29.033 9.148-12.568 24.622-19.813 23.54-8.984 49.078-15.107 25.538-6.124 52.769-6.124 27.23 0 52.558 6.124 25.327 6.123 48.826 15.107 15.474 7.245 24.622 19.813 9.147 12.567 9.147 29.033v.692H120Zm584.442-141.923q-24.162 0-40.648-17.044-16.486-17.044-16.486-40.692 0-23.649 16.53-40.649t40.692-17q24.163 0 41.163 17.045 17 17.044 17 40.692t-17.045 40.648q-17.044 17-41.206 17ZM569.231-587.308V-588q0-16.466 9.147-29.033 9.148-12.568 24.622-19.813 23.54-8.984 49.078-15.107 25.538-6.124 52.769-6.124 27.23 0 52.558 6.124 25.327 6.123 48.826 15.107 15.474 7.245 24.622 19.813Q840-604.466 840-588v.692H569.231ZM301.923-84.615q-6.538 0-10.577-4.27-4.038-4.269-4.038-10.73v-116.923q0-6.154 4.038-10.193 4.039-4.038 10.192-4.038H380q4.923 0 9.192 3.807 4.27 3.808 4.27 8.885 0 5.385-4.27 9.423-4.269 4.039-9.192 4.039h-66.538v33.846h65q6 0 10.5 4.038 4.5 4.039 4.5 10.476v56.356q0 6.745-4.5 11.014-4.5 4.27-10.885 4.27h-76.154Zm11.539-26.154h53.846v-33.846h-53.846v33.846ZM639.89-84.615q-5.033 0-8.808-4.039-3.774-4.038-3.774-9.423v-106.538H600q-5.077 0-8.885-3.94-3.807-3.939-3.807-9.192t3.807-9.138q3.808-3.884 8.885-3.884h80q4.923 0 9.192 3.807 4.27 3.808 4.27 8.885 0 5.385-4.27 9.423-4.269 4.039-9.192 4.039h-26.538v106.538q0 5.385-4.27 9.423-4.269 4.039-9.302 4.039Zm-160 0q-5.033 0-8.808-4.039-3.774-4.038-3.774-9.423v-118.461q0-6.154 4.038-10.193 4.039-4.038 10.192-4.038H540q4.923 0 9.192 3.807 4.27 3.808 4.27 8.885 0 5.385-4.27 9.423-4.269 4.039-9.192 4.039h-46.538v33.846H520q4.923 0 9.192 3.807 4.27 3.808 4.27 8.885 0 5.385-4.27 9.423-4.269 4.039-9.192 4.039h-26.538v46.538q0 5.385-4.27 9.423-4.269 4.039-9.302 4.039ZM209.154-317.692l-72-71.769q-4.231-4.231-6.116-9.152-1.884-4.922-1.884-10.546 0-5.344 1.884-9.785 1.885-4.441 6.116-9.441l72-71.769q4.923-4.923 10.846-4.923t10.846 5.308q4.923 5.307 4.923 10.846 0 5.538-4.923 10.462l-53.923 54.153h606.923l-54.923-54.153q-4.154-4.224-4.038-10.112.115-5.889 4.324-11.581 4.978-4.923 10.846-4.923t10.791 4.923l72 71.769q4.231 5 6.116 9.775 1.884 4.774 1.884 10.231 0 5.456-1.884 10.071-1.885 4.616-6.116 8.847l-72 71.769q-4.923 4.923-10.846 4.923t-10.846-4.923q-4.923-4.923-4.923-10.462 0-5.538 4.923-10.461l53.923-54.923H176.923l54.154 54.923q4.154 4.154 4.038 10.077-.115 5.923-4.708 10.846-4.594 4.923-10.462 4.923-5.868 0-10.791-4.923Z"/></svg>