<svg xmlns="http://www.w3.org/2000/svg" width="48" height="48" viewBox="0 -960 960 960"><path d="M279.85-372.31h98.46q11.38 0 19.61-7.95 8.23-7.95 8.23-19.66v-66.16q0-11.71-8.23-19.66-8.23-7.95-19.61-7.95H283v-63.23h108.15q6.67 0 10.84-4.27 4.16-4.26 4.16-11.07 0-6.82-4.16-11.12-4.17-4.31-10.84-4.31h-111.3q-12.39 0-20 8.23-7.62 8.23-7.62 19.61v159.93q0 11.71 7.62 19.66 7.61 7.95 20 7.95Zm3.15-27.61v-66.16h92.38v66.16H283Zm220.69-67 93.16 90.46q2 2 10.84 4.15 10.62 0 14.43-10.38 3.8-10.39-3.35-17.54l-86.31-81.31 86.31-80q7.92-7.15 3.73-16.65-4.19-9.5-14.04-9.5-2.69 0-4.82 1.3-2.13 1.3-5.26 2.85l-94.69 88.92v-78.07q0-6.67-4.26-10.84-4.26-4.16-11.08-4.16-6.81 0-11.12 4.16-4.31 4.17-4.31 10.84v184.61q0 7 4.27 11.39 4.26 4.38 11.07 4.38 6.82 0 11.12-4.38 4.31-4.39 4.31-11.39v-78.84Zm173.08.84v46.34q0 5.89 4.61 10.51 4.62 4.61 10.77 4.61 6.16 0 10.77-4.61 4.62-4.62 4.62-10.51v-46.34h48q6.08 0 9.88-3.95 3.81-3.96 3.81-10.08t-3.81-9.85q-3.8-3.73-9.88-3.73h-48v-46.69q0-5.77-4.46-10.39-4.46-4.61-10.93-4.61-6.46 0-10.92 4.61-4.46 4.62-4.46 10.39v46.69H629q-6.08 0-9.88 3.62-3.81 3.62-3.81 9.96 0 6.34 4.07 10.19 4.08 3.84 9.85 3.84h47.54ZM215.38-160q-23.05 0-39.22-16.16Q160-192.33 160-215.38v-529.24q0-23.05 16.16-39.22Q192.33-800 215.38-800h529.24q23.05 0 39.22 16.16Q800-767.67 800-744.62v529.24q0 23.05-16.16 39.22Q767.67-160 744.62-160H215.38Z"/></svg>