<svg xmlns="http://www.w3.org/2000/svg" width="48" height="48" viewBox="0 -960 960 960"><path d="m363.384-556.923-57.615 163.231q-2.692 7.846 1.442 14.615 4.135 6.769 12.741 6.769 5.433 0 8.806-3.256 3.374-3.256 5.934-8.051l59.77-169.154q5.23-13.846-3.539-24.385-8.769-10.538-22.154-10.538H258.308q-6.782 0-11.276 4.415t-4.494 11.077q0 6.662 4.494 10.969 4.494 4.308 11.276 4.308h105.076Zm125.693 90L583-376.461q2 2 10.077 4.153 10.615 0 14.423-10t-4.115-17.154l-85.539-82.076 86.308-80.77q7.923-6.384 3.731-15.884-4.193-9.5-14.039-9.5-2.482 0-4.664 1.23-2.182 1.231-4.643 2.923l-95.462 88.924v-78.077q0-6.449-4.526-10.725-4.527-4.275-11.359-4.275-6.5 0-10.692 4.275-4.192 4.276-4.192 10.725v184.615q0 6.782 4.415 11.276 4.415 4.493 11.077 4.493t10.969-4.493q4.308-4.494 4.308-11.276v-78.846Zm187.692.846v45.833q0 6.706 4.462 11.167 4.461 4.462 10.923 4.462 6.461 0 10.923-4.462 4.462-4.461 4.462-11.167v-45.833h48q6.384 0 10.038-4.099t3.654-10.077q0-5.978-3.654-9.709-3.654-3.73-10.038-3.73h-48v-46.693q0-6.077-4.462-10.538-4.462-4.462-10.923-4.462-6.462 0-10.923 4.462-4.462 4.461-4.462 10.538v46.693H629q-6.385 0-10.038 3.621-3.654 3.62-3.654 9.818 0 6.198 4.023 10.187 4.023 3.989 9.9 3.989h47.538ZM215.384-160q-23.057 0-39.221-16.163Q160-192.327 160-215.384v-529.232q0-23.057 16.163-39.221Q192.327-800 215.384-800h529.232q23.057 0 39.221 16.163Q800-767.673 800-744.616v529.232q0 23.057-16.163 39.221Q767.673-160 744.616-160H215.384Zm0-30.769h529.232q9.23 0 16.923-7.692 7.692-7.693 7.692-16.923v-529.232q0-9.23-7.692-16.923-7.693-7.692-16.923-7.692H215.384q-9.23 0-16.923 7.692-7.692 7.693-7.692 16.923v529.232q0 9.23 7.692 16.923 7.693 7.692 16.923 7.692Zm-24.615-578.462v578.462-578.462Z"/></svg>