<svg xmlns="http://www.w3.org/2000/svg" width="48" height="48" viewBox="0 -960 960 960"><path d="M675.461-372.308q-12.615 0-20.23-8-7.616-8-7.616-19.846v-159.692q0-11.846 7.616-19.846 7.615-8 20.23-8h122.847q11.846 0 19.846 8t8 19.846v25.077q0 6.205-4.282 10.487T811.385-520q-6.616 0-11.462-5.077t-4.077-12v-21.077H677.154v156.308h118.692v-21.077q-.769-6.923 4.077-12T811.385-440q6.205 0 10.487 4.282t4.282 10.487v25.077q0 11.846-8 19.846t-19.846 8H675.461Zm-255.461 0q-12.039 0-19.865-7.827-7.827-7.826-7.827-19.865v-160q0-12.039 7.827-19.865 7.826-7.827 19.865-7.827h123q12.615 0 20.231 8 7.615 8 7.615 19.846v55.077q0 10.384-4.5 16.423-4.5 6.038-15.654 8.346 11.154 2.308 15.654 8.346 4.5 6.039 4.5 16.423v55.077q0 11.846-7.615 19.846-7.616 8-20.231 8H420Zm1.846-122.461h119.462v-63.385H421.846v63.385Zm0 92.923h119.462v-63.385H421.846v63.385Zm-273.195 29.538q-6.19 0-10.497-4.282-4.308-4.282-4.308-10.487v-172.769q0-11.846 8-19.846t19.846-8h122.847q12.615 0 20.23 8 7.616 8 7.616 19.846v172.769q0 6.205-4.272 10.487t-10.462 4.282q-6.189 0-10.497-4.282t-4.308-10.487v-60.692H163.385v60.692q0 6.205-4.272 10.487t-10.462 4.282Zm14.734-105.769h119.461v-80.077H163.385v80.077Z"/></svg>