<svg xmlns="http://www.w3.org/2000/svg" width="48" height="48" viewBox="0 -960 960 960"><path d="M242-251.154q56.846-36.923 113.346-57.423 56.5-20.5 124.654-20.5t124.769 20.5q56.616 20.5 113.462 57.423 43.231-47.077 67.115-104.385Q809.231-412.846 809.231-480q0-138.077-95.577-233.654T480-809.231q-138.077 0-233.654 95.577T150.769-480q0 67.154 24 124.461 24 57.308 67.231 104.385Zm237.814-213.461q-50.122 0-84.237-34.302-34.116-34.301-34.116-84.423t34.302-84.237q34.301-34.115 84.423-34.115t84.237 34.301q34.116 34.301 34.116 84.423t-34.302 84.237q-34.301 34.116-84.423 34.116ZM479.595-120q-74.685 0-140.506-28.038-65.821-28.039-114.532-77.154-48.711-49.116-76.634-114.264Q120-404.604 120-480.5q0-75.127 28.038-140.659 28.039-65.533 77.154-114.149 49.116-48.615 114.264-76.654Q404.604-840 480.5-840q75.127 0 140.659 28.038 65.533 28.039 114.149 76.654Q783.923-686.692 811.962-621 840-555.308 840-480.266q0 75.811-28.038 140.885-28.039 65.073-76.654 114.189-48.616 49.115-114.437 77.154Q555.05-120 479.595-120Z"/></svg>