<svg xmlns="http://www.w3.org/2000/svg" width="48" height="48" viewBox="0 -960 960 960"><path d="M457.769-457.769Zm22.231 307q58.538 0 113.808-19.269 55.269-19.27 99.5-58.885-46.231-35.308-100.5-54.654-54.27-19.346-112.808-19.346-58.538 0-113.192 18.577-54.654 18.577-99.346 55.423 43.461 39.615 98.73 58.885 55.27 19.269 113.808 19.269Zm83.923-517.077q33.154 33.154 35.116 77.615 1.961 44.462-25.424 81.077-6.923 8.385-14.115 9.308t-13.039-2.692q-6.153-4.923-5.269-12.154.885-7.231 6.039-12.616 22.538-26.077 20.769-60.538-1.769-34.462-25.308-58-24.307-24.308-58-25.692-33.692-1.385-61.307 20.153-3.847 4.154-10.847 4.424-7 .269-11.692-5.347-4.154-6.077-2.615-13.654 1.538-7.577 9.923-14.269 35.615-25.923 80.5-21.577 44.885 4.346 75.269 33.962ZM480-120q-74.539 0-140.231-28.423t-114.308-77.038q-48.615-48.616-77.038-114.308Q120-405.461 120-480q0-63.231 21.038-122.962 21.039-59.73 62.885-108.423L86.231-830.077q-4.385-3.615-4.654-10.346-.27-6.731 4.884-11.116 4.385-5.153 10.731-5.153t10.731 5.153l754 753.462q4.385 4.385 4.654 11.115.269 6.731-4.885 11.116-5.154 5.154-11 5.154t-11-5.154L225.154-690.154q-36.923 45.308-55.654 99.039-18.731 53.73-18.731 111.115 0 64.308 23.808 123.346 23.808 59.039 67.423 105.5 53.385-36.154 113.385-59.346 60-23.192 124.615-23.192 56.769 0 110.269 18.307 53.5 18.308 101.654 48.308l42.385 42.385q-50.846 51.615-116.808 78.154Q551.539-120 480-120Zm76.077-436.077ZM294.231-789.385q42.384-26.461 89.384-38.538Q430.615-840 480-840q71.539 0 137.615 27.307 66.077 27.308 116.924 78.154 50.846 50.847 78.154 116.924Q840-551.539 840-480q0 48.615-11.961 94.231-11.962 45.615-35.654 88-3.692 5.615-9.923 6.961-6.231 1.347-11.847-2.576-6.384-3.924-7.23-10.27-.846-6.346 2.846-11.961 21-38.231 32-79.577t11-84.808q0-137.385-95.923-233.308T480-809.231q-43.462 0-85.308 11-41.846 11-79.307 32.231-5.616 3.692-11.731 3.231-6.116-.462-11.039-5.846-4.923-4.616-4.461-10.847.461-6.231 6.077-9.923Z"/></svg>