<svg xmlns="http://www.w3.org/2000/svg" width="48" height="48" viewBox="0 -960 960 960"><path d="M215.38-160q-23.05 0-39.22-16.16Q160-192.33 160-215.38v-529.24q0-23.05 16.16-39.22Q192.33-800 215.38-800h297.77q10.02 0 16.01 9.5 5.99 9.5 1.07 19.88-6.46 16.24-10.08 33.23-3.61 17-3.61 35.93 0 76.74 54.09 130.83 54.09 54.09 130.83 54.09 18.93 0 35.93-3.61 16.99-3.62 33.23-10.08 11.31-4.69 20.35.88 9.03 5.58 9.03 16.2v297.77q0 23.05-16.16 39.22Q767.67-160 744.62-160H215.38Zm55.39-145.85h418.46L562.92-474 439.77-319.31l-81.69-97.84-87.31 111.3Zm430.48-296.84q-6.63 0-10.9-4.43-4.27-4.42-4.27-10.96v-67.77h-68q-6.54 0-10.96-4.48-4.43-4.49-4.43-11.12 0-6.63 4.43-10.9 4.42-4.27 10.96-4.27h68v-68q0-6.53 4.48-10.96 4.49-4.42 11.12-4.42 6.63 0 10.9 4.42 4.27 4.43 4.27 10.96v68h67.77q6.53 0 10.96 4.49 4.42 4.48 4.42 11.11 0 6.64-4.42 10.9-4.43 4.27-10.96 4.27h-67.77v67.77q0 6.54-4.49 10.96-4.48 4.43-11.11 4.43Z"/></svg>