<svg xmlns="http://www.w3.org/2000/svg" width="48" height="48" viewBox="0 -960 960 960"><path d="M471.92-747.54H364.85q-6.58 0-10.98-4.46-4.41-4.45-4.41-11.11 0-6.66 4.41-10.93 4.4-4.27 10.98-4.27h107.07v-106.07q0-6.58 4.31-10.99 4.3-4.4 10.73-4.4 6.42 0 11.08 4.4 4.65 4.41 4.65 10.99v106.07H608q6.58 0 10.98 4.46t4.4 11.12q0 6.65-4.4 10.92T608-747.54H502.69v106.08q0 6.58-4.83 10.98t-11.25 4.4q-6.43 0-10.56-4.4-4.13-4.4-4.13-10.98v-106.08ZM256.69-131.98q-16.38-16.6-16.38-39.85t16.59-39.63q16.6-16.39 40.24-16.39 23.63 0 40.01 16.6 16.39 16.6 16.39 39.85t-16.6 39.63q-16.6 16.39-40.23 16.39-23.63 0-40.02-16.6Zm377.43 0q-15.97-16.6-15.97-39.85t16.18-39.63q16.18-16.39 39.85-16.39t40.05 16.6q16.39 16.6 16.39 39.85t-16.6 39.63q-16.6 16.39-40.27 16.39-23.66 0-39.63-16.6ZM161.54-829.23h-55.69q-6.58 0-10.98-4.46-4.41-4.46-4.41-11.11 0-6.66 4.41-10.93 4.4-4.27 10.98-4.27h57.77q8.23 0 15.04 4.05 6.82 4.05 9.65 11.41l156.61 330.85h269.54q6.92 0 12.31-3.46 5.38-3.47 9.23-9.62l137.38-243.46q1.7-3.15 5.03-5.62 3.32-2.46 7.65-2.46 9.56 0 13.44 7.46 3.88 7.47.5 14.77L667.32-511.46q-8.86 13.61-22.57 22.42-13.71 8.81-29.05 8.81H327.15l-53.69 100.15q-6.15 9.23-.77 20 5.39 10.77 17.69 10.77h424.85q6.58 0 10.98 4.46 4.41 4.46 4.41 11.12 0 6.65-4.41 10.92-4.4 4.27-10.98 4.27H294q-30.74 0-46.56-25.38-15.82-25.39-1.9-51l64.77-116.46-148.77-317.85Z"/></svg>