<svg xmlns="http://www.w3.org/2000/svg" width="48" height="48" viewBox="0 -960 960 960"><path d="M480.4-120q-75.176 0-140.458-28.339-65.282-28.34-114.246-77.422-48.964-49.082-77.33-114.139Q120-404.957 120-479.748q0-74.791 28.449-140.528 28.45-65.737 77.22-114.365 48.77-48.627 114.316-76.993Q405.531-840 480-840q34.997 0 68.998 6.231 34.002 6.23 65.156 18.692 9.461 4 14.577 12.654 5.115 8.654 5.115 19.038V-760q0 23.017 16.184 39.201t39.201 16.184h54.615v67.692q0 18.171 12.453 30.624t30.624 12.453h11.462q10.231 0 18.835 6.021 8.604 6.021 11.857 16.44 5.462 21.809 8.192 44.474Q840-504.246 840-480q0 74.469-28.339 140.179-28.34 65.709-76.922 114.316-48.582 48.606-114.257 77.056Q554.806-120 480.4-120Zm-1.079-164.846q49.385 0 91.173-22.036 41.787-22.035 68.763-61.595 6.128-9.446.532-18.908-5.597-9.461-16.02-9.461h-287.62q-10.841 0-16.188 9.461-5.346 9.462.782 18.908 26.89 39.56 68.468 61.595 41.577 22.036 90.11 22.036ZM344.95-541.461q16.935 0 29.223-12.47 12.289-12.469 12.289-29.404 0-16.934-12.47-29.223-12.469-12.288-29.404-12.288-16.934 0-29.223 12.469-12.288 12.47-12.288 29.404 0 16.935 12.469 29.223 12.47 12.289 29.404 12.289Zm270.462 0q16.934 0 29.223-12.47 12.288-12.469 12.288-29.404 0-16.934-12.469-29.223-12.47-12.288-29.404-12.288-16.935 0-29.223 12.469-12.289 12.47-12.289 29.404 0 16.935 12.47 29.223 12.469 12.289 29.404 12.289Zm209.203-243.154h-69.23q-6.539 0-10.962-4.485Q740-793.586 740-800.216t4.423-10.899q4.423-4.27 10.962-4.27h69.23v-69.23q0-6.539 4.485-10.962Q833.586-900 840.216-900t10.899 4.423q4.27 4.423 4.27 10.962v69.23h69.23q6.539 0 10.962 4.485Q940-806.414 940-799.784t-4.423 10.899q-4.423 4.27-10.962 4.27h-69.23v69.23q0 6.539-4.485 10.962Q846.414-700 839.784-700t-10.899-4.423q-4.27-4.423-4.27-10.962v-69.23Z"/></svg>