<svg xmlns="http://www.w3.org/2000/svg" width="48" height="48" viewBox="0 -960 960 960"><path d="M141.154-589q-6.821 0-10.757-4.412-3.936-4.411-3.936-10.615 0-6.204 3.936-10.973 3.936-4.769 10.757-4.769h137.461q17.462 0 29.231 9.153 11.77 9.154 19.847 21.616H141.154Zm83.299 367.462q55.701 0 94.855-38.991t39.154-94.693q0-55.701-38.991-94.855t-94.693-39.154q-55.701 0-94.855 38.991t-39.154 94.693q0 55.701 38.991 94.855t94.693 39.154Zm558.063 0q35.792 0 61.253-25.286 25.462-25.285 25.462-61.846 0-35.791-25.285-61.253-25.285-25.461-61.077-25.461-36.561 0-62.023 25.285-25.461 25.285-25.461 61.076 0 36.562 25.285 62.023 25.285 25.462 61.846 25.462Zm-557.919-84.616q-20.52 0-34.866-14.364t-14.346-34.885q0-20.52 14.364-34.866t34.885-14.346q20.52 0 34.866 14.364t14.346 34.885q0 20.52-14.364 34.866t-34.885 14.346Zm557.761 115.385q-48.642 0-83.192-33.769-34.551-33.77-34.551-82.528t35.165-83.923q35.165-35.165 83.923-35.165 48.759 0 82.528 34.536Q900-357.082 900-308.461q0 48.62-34.5 83.156-34.5 34.536-83.142 34.536Zm-559.251 0q-68.261 0-115.684-48.15T60-355.385q0-68.315 48.038-116.465Q156.077-520 224.458-520t116.577 48.196q48.196 48.196 48.196 116.577T341.3-238.808q-47.931 48.039-118.193 48.039ZM414.923-340q-.538-3.654-.038-7.369.5-3.714.5-8.016 0-34.472-11.077-65.39-11.077-30.917-33.154-57.533h48.73q50.71 0 85.413-35.63Q540-549.568 540-598.538v-67.252l-45.154-44.749-46.615 46.616q-4.588 5.538-11.602 5.538t-11.475-5.538q-5.846-4.77-5.962-11.693-.115-6.923 4.654-11.692l117.846-118.615q5.077-4.77 11.846-4.77 6.77 0 11.539 4.627 5.538 5.116 5.538 11.937t-5.538 11.59l-46.846 47.616L563.384-689h214.981q23.789 0 39.635 15.942 15.846 15.942 15.846 39.442v190.693q-11.589-4.38-24.186-6.882-12.597-2.503-27.045-2.503-48.799 0-87.207 29.654Q657-393 641.016-340H414.923Z"/></svg>