<svg xmlns="http://www.w3.org/2000/svg" width="48" height="48" viewBox="0 -960 960 960"><path d="M460.23-189.23q-29.54 0-54.38-16.62Q381-222.46 371-250.23q-2.23-6.08 3.04-11.08t13.11-5q4.85 0 9 3.27 4.16 3.27 6.08 8.89 8.31 15.53 24.12 24.84 15.8 9.31 33.88 9.31 27.62 0 47.35-19.35 19.73-19.34 19.73-46.96 0-27.61-19.73-46.96t-47.35-19.35H115.38q-6.84 0-11.11-4.26Q100-361.15 100-368t4.27-11.12q4.27-4.26 11.11-4.26h344.85q41.08 0 69.46 28 28.39 28 28.39 68.69t-28.39 69.07q-28.38 28.39-69.46 28.39ZM115.38-574.15q-6.84 0-11.11-4.27T100-589.54q0-6.84 4.27-11.11t11.11-4.27h506.08q35.85 0 61.69-25.85Q709-656.62 709-692.85t-25.85-61.69Q657.31-780 621.46-780q-27.61 0-49.31 14.69-21.69 14.69-31 39.54-1.69 4.85-5.57 8.23-3.89 3.39-8.73 3.39-7.85 0-12.89-6.04-5.04-6.04-2.81-13.66 12.54-35 42.66-55.96 30.11-20.96 67.65-20.96 49.31 0 83.81 34.5t34.5 83.81q0 49.31-34.5 83.81t-83.81 34.5H115.38ZM780.77-267q-7.62 1.23-12.5-3.81-4.89-5.04-4.89-12.11 0-4.85 3.39-9.12 3.38-4.27 8.23-5.96 25.85-9.31 40.04-31 14.19-21.69 14.19-49.31 0-35.38-25.23-60.23-25.23-24.84-60.62-24.84h-628q-6.84 0-11.11-4.27T100-478.77q0-6.85 4.27-11.11 4.27-4.27 11.11-4.27h628q48.85 0 82.74 33.88Q860-426.38 860-378.31q0 38.54-21.35 69.54-21.34 31-57.88 41.77Z"/></svg>