<svg xmlns="http://www.w3.org/2000/svg" width="48" height="48" viewBox="0 -960 960 960"><path d="M160-704.616q0-39.743 27.82-67.564Q215.641-800 255.384-800H400q39.744 0 67.564 27.82 27.821 27.821 27.821 67.564v516.924q0 11.769-7.962 19.731Q479.462-160 467.692-160h-280q-11.769 0-19.731-7.961Q160-175.923 160-187.692v-516.924Zm264.615 373.847h40v-258.462h-40q-10.769 0-17.692 6.923T400-564.615v209.23q0 10.77 6.923 17.693 6.923 6.923 17.692 6.923Zm-233.846 140h273.846V-300h-40q-22.25 0-38.817-16.567-16.567-16.568-16.567-38.818v-209.23q0-22.25 16.567-38.818Q402.365-620 424.615-620h40v-84.29q0-27.729-18.605-46.335-18.606-18.606-46.01-18.606H255.384q-26.153 0-45.384 18.606t-19.231 46.009v513.847Zm482.584-250.846q-14.507 0-27.825-3.175t-27.066-7.056q-6.616-1.692-9.039-7.419-2.423-5.728-.731-11.698 1.693-5.268 7.728-8.076 6.035-2.807 11.811-1.115 11.769 3.769 23.514 5.769 11.746 2 23.601 2 14.782 0 30.334-4.884 15.551-4.885 31.089-15.423 20.905-13.144 41.523-18.918 20.617-5.775 38.887-5.775 13.019 0 27.363 2.116 14.345 2.115 28.689 6.346 6.754 1.439 9.608 7.681 2.854 6.242.257 12.972-2.112 6.462-8.45 9.289-6.338 2.827-12.954.366-12.538-3.77-22.357-5.885-9.819-2.115-21.489-2.115-16.591 0-33.778 5.161-17.187 5.162-36.683 19.146-17.692 11.693-36.273 16.193-18.581 4.5-37.759 4.5Zm.818-145.231q-13.555 0-27.517-2.5t-27.423-7.5q-6.246-1.33-9.123-7.242-2.877-5.912-.416-12.626 1.693-5.517 7.193-8.825 5.5-3.307 12.115-.846 13.539 3.231 24.638 6 11.098 2.769 20.901 2.769 15.512 0 30.718-4.384 15.205-4.385 31.512-15.923 21.462-13.462 41.794-19.077 20.333-5.616 38.964-5.616 13.55 0 27.512 2.5 13.961 2.5 28.423 6.731 6.246 1.187 9.123 7.055 2.877 5.868.474 12.659-2.402 6.391-8.461 9.339-6.059 2.947-11.906.486-13.538-3.231-24.359-5.616-10.821-2.384-20.628-2.384-15.937 0-33.475 4.884-17.537 4.885-37.845 20.193-14.602 9.092-33.665 14.507-19.062 5.416-38.549 5.416Zm.698 290.462q-14.253 0-28.231-2.5-13.978-2.5-27.407-7.5-6.616-1.693-10.192-7.039-3.577-5.346-1.116-12.06 1.692-5.517 8.112-8.709 6.42-3.193 12.965-1.5 12.365 3.89 23.556 6.214 11.191 2.324 22.079 2.324 15.453 0 30.593-4.442t31.541-15.865q19.733-13.199 42.28-18.946 22.548-5.747 39.892-5.747 12.553 0 26.723 2.116 14.17 2.115 27.798 6.346 6.764 1.582 9.382 7.753 2.618 6.17.925 12.986-1.692 6.415-8.076 9.607-6.385 3.192-12.231.731-13.923-3.561-25.02-6.165-11.096-2.604-20.844-2.604-17.059 0-35.367 6.269-18.308 6.269-35.846 18.808-13.484 9.153-32.408 14.538-18.923 5.385-39.108 5.385ZM464.615-190.769V-718.03v13.74-13.74 527.261Z"/></svg>