<svg xmlns="http://www.w3.org/2000/svg" width="48" height="48" viewBox="0 96 960 960"><path d="M249.837 783.693q-34.683 0-58.799-24.231-24.115-24.231-24.115-58.846h-21.539q-22.25 0-38.817-16.568Q90 667.481 90 645.231V371.385q0-14.597 10.394-24.991T125.385 336h508.692q10.906 0 20.79 4.197 9.883 4.197 16.826 10.726L852.77 521.231q8 7.23 12.615 17.816Q870 549.632 870 561.923v83.308q0 22.25-16.567 38.817-16.567 16.568-38.817 16.568h-9.231q0 34.846-24.278 58.961-24.279 24.116-58.962 24.116-34.683 0-58.799-24.231-24.115-24.231-24.115-58.846H333.077q0 34.461-24.278 58.769-24.279 24.308-58.962 24.308ZM570 519.077h234L649.385 373.692q-3.077-3.077-7.693-5-4.615-1.923-9.23-1.923H570v152.308Zm-224.615 0h193.846V366.769H345.385v152.308Zm-224.616 0h193.846V366.769H120.769v152.308Zm129.058 236.154q22.865 0 38.827-15.788 15.961-15.788 15.961-38.654 0-22.866-15.788-38.827Q273.039 646 250.173 646q-22.865 0-38.827 15.788-15.962 15.789-15.962 38.654 0 22.866 15.789 38.828 15.788 15.961 38.654 15.961Zm472.307 0q22.866 0 38.828-15.788 15.961-15.788 15.961-38.654 0-22.866-15.788-38.827Q745.347 646 722.481 646q-22.866 0-38.827 15.788-15.962 15.789-15.962 38.654 0 22.866 15.789 38.828 15.788 15.961 38.653 15.961Zm-576.75-85.385h25.462q8.538-22.154 30.962-37.231 22.423-15.076 48.192-15.076 25.769 0 47.038 13.923 21.27 13.923 32.885 38.384h313.516q8.253-21.384 30.676-36.846 22.424-15.461 48.193-15.461t47.038 14.307q21.269 14.308 32.885 38h12.385q10.769 0 17.692-6.923t6.923-17.692v-70.77q0-10.769-.769-16.153-.77-5.385-4.616-8.462H120.769v95.385q0 10.769 6.923 17.692t17.692 6.923Zm0-120h-24.615 718.462-693.847Z"/></svg>