<svg xmlns="http://www.w3.org/2000/svg" width="48" height="48" viewBox="0 -960 960 960"><path d="M752.231-299.231 323.538-725.616q31-15.769 65.539-24.961 34.538-9.192 74.615-9.192 66.539 0 125.347 24.807 58.807 24.808 102.654 67.808 43.846 43 69.384 101.192 25.539 58.193 24.539 124.193-.231 36.231-8 72.231-7.77 36-25.385 70.307ZM701-791.154q-4.385-4.385-4.654-10.731-.269-6.346 6.116-11.5 5.153-4.154 10.5-4.038 5.346.115 10.269 4.269l114.308 112.385q5.384 4.384 5.384 11.23 0 6.847-5.384 12.231-5.385 5.385-11.846 5.385-6.462 0-11.847-5.385L701-791.154ZM466.615-120q-66.307 0-124.384-25.307-58.077-25.308-101.077-68.924-43-43.615-67.923-102.307Q148.307-375.231 148.307-442q0-62.462 23.693-120.231Q195.692-620 240.461-667.077l-67.384-67.384-54.692 54.692q-5.154 4.384-11.616 4.654-6.461.269-11.615-4.885T90-691.731q0-6.577 5.154-11.731l54.461-54.461-54.385-54.385q-4.384-4.384-4.769-10.615-.384-6.231 4.77-10.616 5.153-5.154 11.115-5.154 5.962 0 11.115 5.154l718.616 719.078q4.385 4.384 4.385 10.615 0 6.23-4.385 10.615-5.154 5.154-11.5 5.154t-11.5-5.154L693.385-212.692q-41.154 42.308-100.077 67.5Q534.385-120 466.615-120Z"/></svg>