<svg xmlns="http://www.w3.org/2000/svg" width="48" height="48" viewBox="0 -960 960 960"><path d="M330.148-415.385q9.775 0 17.121-7.494 7.346-7.495 7.346-17.269 0-9.775-7.494-17.121-7.495-7.346-17.27-7.346-9.774 0-17.12 7.494-7.346 7.495-7.346 17.269 0 9.775 7.494 17.121 7.495 7.346 17.269 7.346Zm150 0q9.775 0 17.121-7.494 7.346-7.495 7.346-17.269 0-9.775-7.494-17.121-7.495-7.346-17.269-7.346-9.775 0-17.121 7.494-7.346 7.495-7.346 17.269 0 9.775 7.494 17.121 7.495 7.346 17.269 7.346Zm150 0q9.775 0 17.121-7.494 7.346-7.495 7.346-17.269 0-9.775-7.494-17.121-7.495-7.346-17.269-7.346-9.775 0-17.121 7.494-7.346 7.495-7.346 17.269 0 9.775 7.494 17.121 7.495 7.346 17.269 7.346ZM479.813-121.231q-66.352 0-124.544-24.923-58.192-24.923-101.692-68.154-43.5-43.23-68.539-101.682Q160-374.442 160-439.721q0-66.818 25.038-125.01 25.039-58.192 68.539-101.808 43.5-43.615 101.648-68.538Q413.374-760 479.725-760q65.583 0 123.775 24.923 58.192 24.923 101.808 68.538 43.615 43.616 68.538 101.531 24.923 57.916 24.923 125 0 65.547-24.923 124.008-24.923 58.462-68.538 101.692-43.616 43.231-101.764 68.154-58.149 24.923-123.731 24.923ZM106.384-678.769q-5.153-5.154-5.038-11 .115-5.847 5.269-11l114.077-112.385q4.385-4.154 10.731-4.039 6.346.116 11.269 5.039 5.154 4.385 4.654 10.615-.5 6.231-4.885 10.616L128.385-678.539q-5.154 4.154-11.501 4.424-6.346.269-10.5-4.654Zm746.77 0q-4.923 4.923-10.885 5.038-5.961.116-11.115-4.808L717.077-790.923q-4.385-3.385-4.885-10.116-.5-6.73 4.654-11.115 4.154-4.923 10.116-5.039 5.961-.115 11.115 4.039l114.077 112.385q4.385 4.153 5.269 10.5.885 6.346-4.269 11.5Z"/></svg>