<svg xmlns="http://www.w3.org/2000/svg" width="48" height="48" viewBox="0 96 960 960"><path d="M135.384 266q-6.577 0-10.98-4.458Q120 257.083 120 250.426t4.404-10.926q4.403-4.27 10.98-4.27h689.232q6.577 0 10.98 4.459Q840 244.147 840 250.804t-4.404 10.927Q831.193 266 824.616 266H135.384Zm212.915 650q-14.684 0-25.338-10.769-10.653-10.769-10.653-25.385V414.461q0-14.615 10.816-25.384 10.817-10.77 25.5-10.77 14.684 0 25.338 10.77 10.653 10.769 10.653 25.384v465.385q0 14.616-10.816 25.385Q362.982 916 348.299 916Zm263.077-240q-14.684 0-25.338-10.769-10.653-10.769-10.653-25.385V414.461q0-14.615 10.816-25.384 10.817-10.77 25.5-10.77 14.684 0 25.338 10.77 10.653 10.769 10.653 25.384v225.385q0 14.616-10.816 25.385Q626.059 676 611.376 676Z"/></svg>