<svg xmlns="http://www.w3.org/2000/svg" width="48" height="48" viewBox="0 -960 960 960"><path d="M135.384-120q-6.538 0-10.961-4.485T120-135.6q0-6.631 4.423-10.9t10.961-4.269h169.231v-43.077q0-11.769 7.962-19.731 7.961-7.962 19.731-7.962h295.384q11.77 0 19.731 7.962 7.962 7.962 7.962 19.731v43.077h169.231q6.538 0 10.961 4.485T840-135.169q0 6.631-4.423 10.9T824.616-120H135.384Zm196.924-618.461q-11.77 0-19.731-7.962-7.962-7.962-7.962-19.731v-43.077H135.384q-6.538 0-10.961-4.485T120-824.831q0-6.631 4.423-10.9T135.384-840h689.232q6.538 0 10.961 4.485T840-824.4q0 6.631-4.423 10.9t-10.961 4.269H655.385v43.077q0 11.769-7.962 19.731-7.961 7.962-19.731 7.962H332.308Z"/></svg>