<svg xmlns="http://www.w3.org/2000/svg" width="48" height="48" viewBox="0 96 960 960"><path d="M215.384 896q-23.057 0-39.221-16.163Q160 863.673 160 840.616V311.384q0-23.057 16.163-39.221Q192.327 256 215.384 256h529.232q23.057 0 39.221 16.163Q800 288.327 800 311.384v529.232q0 23.057-16.163 39.221Q767.673 896 744.616 896H215.384Zm0-30.769h529.232q10.769 0 17.692-6.923t6.923-17.692V311.384q0-10.769-6.923-17.692t-17.692-6.923H215.384q-10.769 0-17.692 6.923t-6.923 17.692v529.232q0 10.769 6.923 17.692t17.692 6.923Zm111.113-107.769q6.657 0 10.926-4.404t4.269-10.981V590.154q0-6.577-4.458-10.981t-11.115-4.404q-6.658 0-10.927 4.404-4.269 4.404-4.269 10.981v151.923q0 6.577 4.458 10.981t11.116 4.404Zm307.384 0q6.658 0 10.927-4.404 4.269-4.404 4.269-10.981V383.615q0-6.577-4.458-10.98-4.458-4.404-11.116-4.404-6.657 0-10.926 4.404-4.269 4.403-4.269 10.98v358.462q0 6.577 4.458 10.981t11.115 4.404Zm-153.692 0q6.657 0 10.926-4.404 4.27-4.404 4.27-10.981v-68.769q0-5.827-4.458-10.606-4.459-4.779-11.116-4.779t-10.926 4.779q-4.27 4.779-4.27 10.606v68.769q0 6.577 4.458 10.981 4.459 4.404 11.116 4.404Zm-.074-182.693q6.731 0 11-4.404 4.27-4.404 4.27-10.98v-41q0-6.171-4.385-10.278T479.885 504q-6.731 0-11 4.404-4.27 4.404-4.27 10.981v41.769q0 6.171 4.385 9.893 4.385 3.722 11.115 3.722ZM190.769 865.231V286.769v578.462Z"/></svg>