<svg xmlns="http://www.w3.org/2000/svg" width="48" height="48"><path d="M24 34.4q3.55 0 5.975-2.45T32.4 26q0-3.55-2.45-5.975T24 17.6q-3.55 0-5.975 2.45T15.6 26q0 3.55 2.45 5.975T24 34.4zm0-1.55q-2.85 0-4.85-2-2-2-2-4.85 0-2.85 2-4.85 2-2 4.85-2 2.85 0 4.85 2 2 2 2 4.85 0 2.85-2 4.85-2 2-4.85 2zM36 19.3q.55 0 .925-.4t.375-.9q0-.55-.4-.925T36 16.7q-.55 0-.925.4t-.375.9q0 .55.4.925t.9.375zM8.75 40q-1.15 0-1.95-.8T6 37.25v-22.3q0-1.2.8-2t1.95-.8h6.4l3.3-3.7q.15-.2.45-.325.3-.125.55-.125h9.1q.25 0 .55.125.3.125.45.325l3.3 3.7h6.4q1.15 0 1.95.8t.8 2v22.3q0 1.15-.8 1.95t-1.95.8zm30.5-1.55q.45 0 .825-.375.375-.375.375-.825v-22.3q0-.5-.375-.875t-.825-.375h-7.1l-3.7-4.15h-8.9l-3.7 4.15h-7.1q-.45 0-.825.375-.375.375-.375.875v22.3q0 .45.375.825.375.375.825.375zM24 26.1z"/></svg>