<svg xmlns="http://www.w3.org/2000/svg" width="48" height="48" viewBox="0 -960 960 960"><path d="M695-200.23q-16.39 0-27.66-11.65-11.26-11.65-11.26-28.04v-107.39q0-15.75 11.26-26.57 11.27-10.81 27.66-10.81h2.31v-40q0-30.86 20.42-52.28 20.42-21.41 50.81-21.41 30.38 0 50.69 21.41 20.31 21.42 20.31 52.28v40h2.54q15.66 0 26.79 10.81Q880-363.06 880-347.31v107.39q0 16.39-10.9 28.04-10.91 11.65-27.02 11.65H695Zm33.08-184.46h81.69v-40q0-17.46-12.11-30.19-12.1-12.74-29.23-12.74-17.12 0-28.74 12.74-11.61 12.73-11.61 30.19v40ZM439-214.41q-17.15-16.72-17.15-40.89 0-24.16 17.21-40.66 17.22-16.5 41.38-16.5 23.4 0 40.56 16.77 17.15 16.76 17.15 40.61 0 23.85-17.31 40.62-17.31 16.77-41 16.77T439-214.41Zm42-344.97q-74.43 0-143.48 22.11-69.06 22.12-128.44 66.81-9.39 6.38-20.23 6.15-10.85-.23-18.46-7.61-7.93-7.39-7.11-17.45.82-10.07 9.57-16.55 66.45-51.6 144.58-78.03 78.12-26.43 163.57-26.43 50.96 0 98.67 9.42t94.64 28.58q-14 6.76-26.5 15.42-12.5 8.65-23.58 19.5-35.08-11.62-70.87-16.77-35.79-5.15-72.36-5.15Zm-1 150.61q-42.42 0-83.25 11.5T320.92-363q-9.38 5.92-20.23 5.31-10.84-.62-19-8.77-7.38-7.39-6.88-17.23.5-9.85 9.11-15.77 43.16-29.16 93.31-45.12 50.15-15.96 102.77-15.96 23.41 0 45.5 3.38 22.09 3.39 44.12 8.62-4.16 12.08-7.35 24.27-3.19 12.19-6.19 24.5-18.85-4.38-37.88-6.69-19.02-2.31-38.2-2.31ZM277-676.81q-98.08 33.19-180.54 98.12-8.39 7.15-19.31 6.86-10.93-.29-18.51-7.33-7.79-6.27-7.29-17.06.5-10.78 8.11-17.16 90.39-72.08 197.73-109.35Q364.54-760 480.54-760q115.23 0 222.92 36.88 107.69 36.89 197.08 109.74 7.61 6.38 8.23 16.73.61 10.34-7.15 17.73-7.77 7.38-18.54 7.38t-19.54-7.15Q781.08-643.62 683-676.81T480-710q-104.92 0-203 33.19Z"/></svg>