<svg xmlns="http://www.w3.org/2000/svg" width="48" height="48" viewBox="0 -960 960 960"><path d="M780.15-463.62H515.38v-31.76h264.77L663.54-611.77q-4.39-4.38-4.77-10.61-.39-6.24 4.71-10.62 4.33-4.38 11.62-4 7.28.38 10.9 4.77l134.25 133.77q4.29 4.23 6.29 9.23t2 10.69q0 5.69-2 10.23t-6.23 8.77L684.77-324q-4.53 4.38-10.3 4.38-5.78 0-10.93-4.3-5.16-4.3-5.16-11.23 0-6.93 5.16-12.08l116.61-116.39Zm-602.3 0L297-345.46q4.38 4.38 4 10.61-.38 6.23-4.88 10.62-4.49 4.38-10.73 4.38t-9.85-4.38L139.49-459.51q-4.26-4.26-6.26-8.8-2-4.54-2-10.23t2-10.69q2-5 6.23-9.23L275-634q4.38-3.62 10.62-3.5 6.23.12 10.23 4.5 4.77 4.38 4.77 10.62 0 6.23-4.39 10.61L179.62-495.38h265v31.76H177.85Z"/></svg>