<svg xmlns="http://www.w3.org/2000/svg" width="48" height="48" viewBox="0 -960 960 960"><path d="M247.308-584.615 404.692-428q4.385 4.385 4.385 11.158t-3.993 11q-4.776 4.996-11.492 4.611-6.715-.384-10.9-4.769L207.923-580.538q-8.231-8.231-8.231-19.462t8.231-19.462L382.692-795q4.385-4.385 11-4.385 6.616 0 11 4.385 4.385 4.385 4.27 11-.116 6.615-4.27 11L248.077-615.385h436.538q22.443 0 38.914 16.471Q740-582.442 740-560v364.615q0 6.597-4.445 10.991Q731.111-180 724.44-180t-10.94-4.394q-4.269-4.394-4.269-10.991V-560q0-10.769-6.923-17.692t-17.693-6.923H247.308Z"/></svg>