<svg xmlns="http://www.w3.org/2000/svg" width="48" height="48" viewBox="0 96 960 960"><path d="m464.615 648.461-78.384-78.384q-4.385-4.385-10.231-4.385t-10.231 4.385q-4.384 4.384-4.384 10.359 0 5.974 4.384 10.103l95.539 95.538q8.23 9 19.461 9 11.231 0 19.462-9l95.538-95.538q4.385-4.129 4.385-10.103 0-5.975-4.385-10.359-4.384-4.385-10.743-4.385t-10.488 4.385l-78.384 78.384V461.077q0-6.808-4.296-11.096-4.297-4.289-11.116-4.289t-11.473 4.289q-4.654 4.288-4.654 11.096v187.384ZM480.134 936q-74.442 0-139.794-28.339-65.353-28.34-114.481-77.422-49.127-49.082-77.493-114.373Q120 650.575 120 576.134q0-74.673 28.339-140.41 28.34-65.737 77.422-114.365 49.082-48.627 114.373-76.993Q405.425 216 479.866 216q74.673 0 140.41 28.339 65.737 28.34 114.365 76.922 48.627 48.582 76.993 114.257Q840 501.194 840 575.866q0 74.442-28.339 139.794-28.34 65.353-76.922 114.481-48.582 49.127-114.257 77.493Q554.806 936 480.134 936Z"/></svg>