<svg xmlns="http://www.w3.org/2000/svg" width="48" height="48" viewBox="0 96 960 960"><path d="m491 690.231 94.769-94.769Q594 587.231 594 576t-8.231-19.462L490 460.769q-4.154-4.154-10.115-4.038-5.962.115-10.116 4.269-5.154 5.154-5.154 11t5.154 10.231l77.615 78.384H359q-5.846 0-10.115 4.412-4.27 4.412-4.27 11 0 6.819 4.289 11.088 4.288 4.27 11.096 4.27h187.384L468.769 670q-4.154 4.154-4.038 10.115.115 5.962 5.038 10.116 4.385 5.154 10.231 5.154t11-5.154ZM480.134 936Q405 936 339.263 908.276q-65.738-27.724-114.75-76.691-49.012-48.966-76.763-114.642Q120 651.268 120 576.134q0-74.903 27.724-140.641 27.724-65.737 76.691-114.749 48.966-49.012 114.642-76.878Q404.732 216 479.866 216q74.903 0 140.641 27.839 65.737 27.84 114.749 76.806 49.012 48.967 76.878 114.642Q840 500.963 840 575.866q0 75.134-27.839 140.871-27.84 65.738-76.806 114.75-48.967 49.012-114.642 76.763Q555.037 936 480.134 936Z"/></svg>