<svg xmlns="http://www.w3.org/2000/svg" width="48" height="48" viewBox="0 -960 960 960"><path d="M412.616-464.615H600q6.808 0 11.096-4.297 4.289-4.296 4.289-11.115t-4.289-11.088q-4.288-4.27-11.096-4.27H412.616L491-573.769q4.385-4.128 4.385-10.487T491-595q-4.385-4.385-10.744-4.385T469.769-595l-95.538 95.538Q366-491.231 366-480t8.231 19.462L469.769-365q4.385 4.385 10.616 4 6.23-.385 10.615-4.769 4.385-4.385 4.385-10.744T491-387l-78.384-77.615ZM480.134-120q-74.442 0-139.794-28.339-65.353-28.34-114.481-77.422-49.127-49.082-77.493-114.373Q120-405.425 120-479.866q0-74.673 28.339-140.41 28.34-65.737 77.422-114.365 49.082-48.627 114.373-76.993Q405.425-840 479.866-840q74.673 0 140.41 28.339 65.737 28.34 114.365 76.922 48.627 48.582 76.993 114.257Q840-554.806 840-480.134q0 74.442-28.339 139.794-28.34 65.353-76.922 114.481-48.582 49.127-114.257 77.493Q554.806-120 480.134-120Z"/></svg>