<svg xmlns="http://www.w3.org/2000/svg" width="48" height="48" viewBox="0 -960 960 960"><path d="M469.769-394.692q3.951 4.231 10.091 4.231 6.14 0 10.371-4.231l83.291-82.522q5.247-6.017 1.985-15.132-3.263-9.116-12.43-9.116H395.561q-8.1 0-11.215 9.116-3.115 9.115 2.901 15.132l82.522 82.522ZM480.134-120q-74.442 0-139.794-28.339-65.353-28.34-114.481-77.422-49.127-49.082-77.493-114.373Q120-405.425 120-479.866q0-74.673 28.339-140.41 28.34-65.737 77.422-114.365 49.082-48.627 114.373-76.993Q405.425-840 479.866-840q74.673 0 140.41 28.339 65.737 28.34 114.365 76.922 48.627 48.582 76.993 114.257Q840-554.806 840-480.134q0 74.442-28.339 139.794-28.34 65.353-76.922 114.481-48.582 49.127-114.257 77.493Q554.806-120 480.134-120Z"/></svg>