<svg xmlns="http://www.w3.org/2000/svg" width="48" height="48" viewBox="0 96 960 960"><path d="M126.154 816q-23 0-39.193-16.192-16.192-16.192-16.192-39.192V391.384q0-23 16.192-39.192Q103.154 336 126.154 336h369.231q23 0 39.192 16.192 16.193 16.192 16.193 39.192v369.232q0 23-16.193 39.192Q518.385 816 495.385 816H126.154Zm578.462 0q-6.847 0-11.116-4.269-4.269-4.269-4.269-11.115V350.384q0-5.846 4.384-10.115Q698 336 704.616 336q6.846 0 11.115 4.269T720 351.384v450.232q0 5.846-4.384 10.115-4.385 4.269-11 4.269Zm169.23 0q-6.846 0-11.115-4.269t-4.269-11.115V350.384q0-5.846 4.384-10.115 4.385-4.269 11-4.269 6.846 0 11.116 4.269 4.269 4.269 4.269 11.115v450.232q0 5.846-4.385 10.115-4.384 4.269-11 4.269ZM185.692 688.231h248.693q5.461 0 8.077-4.846 2.615-4.846-.616-10.077L378.462 588q-3.77-5-9.385-5t-9.385 5l-70.615 92.615-48.692-66.154q-3.77-4.23-9-4.23-5.231 0-8.231 4.23l-44.923 59.078q-3.231 5-.616 9.846 2.616 4.846 8.077 4.846Z"/></svg>