<svg xmlns="http://www.w3.org/2000/svg" width="48" height="48" viewBox="0 96 960 960"><path d="M462 687.385q8.231 9 19.077 9 10.846 0 19.846-9l97.462-97.462q5.154-5.154 5.038-11.5-.115-6.346-5.269-10.731-4.192-4.128-10.519-4.372-6.327-.243-11.481 4.141l-80.769 77.77v-182.77q0-6.807-4.297-11.096-4.296-4.288-11.115-4.288t-11.088 4.288q-4.27 4.289-4.27 11.096v182.77l-79.076-77.539q-5.154-4.384-11.481-4.256-6.327.128-10.52 4.256-5.153 4.385-5.153 10.731t5.153 11.5L462 687.385ZM215.384 896q-22.5 0-38.942-16.442T160 840.616V311.384q0-22.5 16.442-38.942T215.384 256h205q-8.846-29.616 9.693-54.808Q448.615 176 480.385 176q31.769 0 50.307 25.192 18.539 25.192 8.924 54.808h205q22.5 0 38.942 16.442T800 311.384v529.232q0 22.5-16.442 38.942T744.616 896H215.384ZM480 270.538q13.231 0 22.962-9.346 9.73-9.346 9.73-23.346 0-13.231-9.73-22.577-9.731-9.346-22.962-9.346t-22.577 9.346q-9.346 9.346-9.346 22.577 0 14 9.346 23.346T480 270.538Z"/></svg>