<svg xmlns="http://www.w3.org/2000/svg" width="48" height="48" viewBox="0 0 48 48"><path d="M20.45 24.25q.55 0 .925-.4t.375-.95q0-.5-.375-.9t-.925-.4q-.5 0-.9.4t-.4.95q0 .5.4.9t.9.4Zm-7.05 0q.5 0 .9-.4t.4-.95q0-.5-.4-.9t-.9-.4q-.55 0-.925.4t-.375.95q0 .5.375.9t.925.4Zm14.15 0q.5 0 .9-.4t.4-.95q0-.5-.4-.9t-.9-.4q-.55 0-.925.4t-.375.95q0 .5.375.9t.925.4Zm7.05 0q.55 0 .925-.4t.375-.95q0-.5-.375-.9t-.925-.4q-.5 0-.9.4t-.4.95q0 .5.4.9t.9.4ZM8.75 33.4h30.5q.45 0 .825-.4.375-.4.375-.85V13.7q0-.45-.375-.85-.375-.4-.825-.4H8.75q-.45 0-.825.4-.375.4-.375.85v18.45q0 .45.375.85.375.4.825.4ZM24 38.9q-4.85 0-7.925-.575T13 36.85V34.9H8.75q-1.15 0-1.95-.8T6 32.15V13.7q0-1.15.8-1.975.8-.825 1.95-.825h30.5q1.15 0 1.95.825T42 13.7v18.45q0 1.15-.8 1.95t-1.95.8H35v1.95q0 .9-3.075 1.475Q28.85 38.9 24 38.9ZM7.55 33.4V12.45 33.4Z"/></svg>