<svg xmlns="http://www.w3.org/2000/svg" width="48" height="48" viewBox="0 -960 960 960"><path d="M281.015-261.769q-6.631 0-10.9-4.423t-4.269-10.962v-316.692q0-6.538 4.485-10.961 4.485-4.424 11.115-4.424 6.631 0 10.9 4.424 4.269 4.423 4.269 10.961v316.692q0 6.539-4.485 10.962t-11.115 4.423Zm200.461 0q-6.63 0-10.899-4.423-4.269-4.423-4.269-10.962v-316.692q0-6.538 4.485-10.961 4.485-4.424 11.115-4.424 6.631 0 10.9 4.424 4.269 4.423 4.269 10.961v316.692q0 6.539-4.485 10.962t-11.116 4.423ZM154.538-680q-4.968 0-8.984-3.888-4.016-3.887-4.016-9.442 0-2.463 2.692-6.759 2.693-4.296 5.077-5.988l316.078-161.769q2.897-1.436 6.569-2.411 3.672-.974 8.046-.974 4.374 0 8.046.974 3.672.975 6.569 2.411l316.078 161.769q2.384 1.692 5.077 5.999 2.692 4.306 2.692 6.439 0 5.928-4.016 9.783Q810.43-680 806.231-680H154.538Zm2.385 519.769q-6.539 0-10.962-4.485t-4.423-11.115q0-6.63 4.423-10.9Q150.384-191 156.923-191h436.866q.519 7.846 1.634 15.039 1.115 7.192 3.269 15.73H156.923Zm506.462-221v-212.615q0-6.538 4.485-10.961 4.485-4.424 11.115-4.424 6.631 0 10.9 4.424 4.269 4.423 4.269 10.961v197.23l-30.769 15.385ZM800-30.769q-59-14.692-97.192-67.192-38.193-52.5-38.193-116.962v-69.154q0-7.615 4.5-14.538 4.5-6.924 11.731-10.154L788.538-363q5.055-2.231 11.374-2.231 6.319 0 12.319 2.231l107.692 54.231q6.462 3.23 10.962 10.154 4.5 6.923 4.5 14.538v69.154q0 64.462-38.193 116.962Q859-45.461 800-30.77Zm87.769-219.539q3.693-3.832 4.077-9.07.385-5.237-3.692-9.699t-9.385-4.462q-5.307 0-9 4.462l-95.384 95.385-38.847-38.847q-3.692-3.692-9-4.076-5.307-.385-9 3.307-4.461 4.602-4.461 9.455t4.461 9.315l37.992 37.992q4.393 4.392 9.167 6.392 4.775 2 10.231 2 5.457 0 10.072-2 4.615-2 8.846-6.231l93.923-93.923Z"/></svg>