<svg xmlns="http://www.w3.org/2000/svg" width="48" height="48" viewBox="0 -960 960 960"><path d="M131.461-280q-23.423 0-40.134-16.192-16.712-16.192-16.712-39.192v-449.232q0-23 16.164-39.192Q106.942-840 130-840h609.231q23 0 39.192 16.192 16.193 16.192 16.193 39.192v209.231h-30.77v-207.692l-313.231 207q-4 2-7.884 3-3.885 1-8.116 1-4.23 0-8.115-1t-7.115-3l-314-207v447.693q0 10.769 6.923 17.692T130-310.769h450.769V-280H131.461Zm303.154-323.154 316.924-206.077H117.692l316.923 206.077Zm335.077 481.616q-49.846 0-84-34.995-34.153-34.996-34.153-84.851v-200.154q0-27.524 19.177-46.839 19.177-19.315 47.5-19.315 27.323 0 46.477 19.315 19.153 19.315 19.153 46.839v187.692q0 6.827-4.282 11.106-4.283 4.279-11.116 4.279-6.833 0-11.102-4.279t-4.269-11.106v-188.801q0-15.968-9.885-27.545-9.884-11.577-25.269-11.577-15.384 0-25.5 11.577-10.115 11.577-10.115 27.192v202.846q0 37.616 25 64.923 25 27.308 62.769 27.308 35.769 0 60.154-26.577 24.384-26.577 24.384-63.961v-161.616q0-6.827 4.283-11.106 4.283-4.278 11.116-4.278 6.832 0 11.102 4.278 4.269 4.279 4.269 11.106v161.616q0 48.615-33.923 82.769t-81.77 34.154ZM105.385-783.077v7V-801v1.154-9.385 9.385-1.539 25.308-7 472.308-472.308Z"/></svg>