<svg xmlns="http://www.w3.org/2000/svg" width="48" height="48" viewBox="0 -960 960 960"><path d="M210.769-478q0 21.538 3.385 42.577 3.385 21.038 9.923 41.346 2.462 6.846.385 14.077t-6.693 13.385q-2.615 4.923-8.115 5.346-5.5.423-7.423-4.192-11.462-26.924-16.847-55.385Q180-449.308 180-478q0-124.077 87.961-212.423Q355.923-778.769 480-778.769h72.231l-81.77-81.769q-4.153-4.154-4.153-9.77 0-5.615 4.153-10.538Q475.385-885 481.115-885q5.731 0 9.885 4.154l98.231 98q8.231 8.231 8.231 19.077 0 10.846-8.231 19.077l-97.231 98q-4.154 4.154-10.385 4.154-6.23 0-11.154-4.154-4.153-4.923-4.153-10.77 0-5.846 4.153-10.769L551-748h-71q-111.615 0-190.423 79.192Q210.769-589.615 210.769-478Zm538.462-2.538q0-21.77-3-43.193t-10.308-41.73q-2.462-6.847-.885-13.693Q736.615-586 741-592.692q3.385-4.154 8.615-4.577 5.231-.423 7.154 3.423 11.462 26.923 17.346 55.769Q780-509.231 780-480.538q0 124.077-87.961 212.423Q604.077-179.769 480-179.769h-72.692l81 81.769q4.154 4.154 4.538 9.77.385 5.615-4.538 9.769-4.923 4.923-10.27 4.923-5.346 0-10.269-4.923l-97.461-97.231q-8.231-8.231-8.231-19.077 0-10.846 8.231-19.846l97.461-97.462q4.154-4.154 9.885-4.538 5.731-.385 10.654 4.538t4.923 10.269q0 5.347-4.923 10.27l-81 80.999H480q111.615 0 190.423-79.192t78.808-190.807Z"/></svg>