<svg xmlns="http://www.w3.org/2000/svg" width="48" height="48" viewBox="0 -960 960 960"><path d="M478.408-218.692q-5.047 0-10.458-1.115-5.412-1.116-9.642-4.347-44.77-27.461-94.77-41.653Q313.538-280 260-280q-31.231 0-61.346 5.231Q168.538-269.538 140-258q-21.769 8.693-40.885-4.846Q80-276.384 80-300.153v-385.078q0-14.846 8.192-26.769 8.192-11.923 21.5-16.923 35.231-15.539 73.308-23.308Q221.077-760 260-760q58.769 0 113.885 18.077Q429-723.846 480-693.846v445.231q50.231-33 106.615-47.577Q643-310.769 700-310.769q32.923 0 63.5 4.308 30.577 4.307 62.654 17.846 8.462 2.307 15.769 0 7.308-2.308 7.308-12.308v-430.385q3.278.625 6.139 2.082 2.861 1.457 5.707 3.38 9.231 5.23 14.077 14.387Q880-702.303 880-691.385v389.693q0 23.769-20.269 36.923-20.269 13.154-44.346 5.231-27.769-10.769-56.731-15.616Q729.692-280 700-280q-53.639 0-105.512 14.193-51.873 14.192-96.642 41.653-4 3.511-9.196 4.486-5.196.976-10.242.976Zm97.361-148q-7.231 6-16.115 2.5-8.885-3.5-8.885-13.5v-288.653q0-1.194 4-9.963l198.462-198.461q7-7 16.115-3.202 9.116 3.798 9.116 13.202v312.461q0 1.641-4.231 10.231L575.769-366.692ZM449.231-264v-412.077Q406-701.231 356.769-715.231q-49.231-14-96.769-14-41.615 0-75.577 8.077-33.962 8.077-59.039 18.225-6.153 2.308-10.384 6.539-4.231 4.23-4.231 10.384v385.852q0 10.77 7.308 12.693 7.307 1.923 15.769-1.154 24.231-10.077 55.5-16.116 31.269-6.038 71.154-6.038 57.577 0 107.192 14.115 49.615 14.116 81.539 32.654Zm0 0v-412.077V-264Z"/></svg>