<svg xmlns="http://www.w3.org/2000/svg" width="48" height="48" viewBox="0 -960 960 960"><path d="M150.769-707v156.231q0 6.538-4.485 10.961t-11.115 4.423q-6.631 0-10.9-4.423T120-550.769v-181.539q0-11.769 7.961-19.731Q135.923-760 147.692-760h181.539q6.538 0 10.961 4.485t4.423 11.115q0 6.631-4.423 10.9t-10.961 4.269H172l224.384 223.615q4.261 4.595 4.438 10.721.178 6.126-4.259 11.279-5.515 4.385-11.654 4.385-6.14 0-10.525-4.385L150.769-707Zm24.615 507q-23.057 0-39.221-16.163Q120-232.327 120-255.384v-173.847q0-6.538 4.485-10.961t11.115-4.423q6.631 0 10.9 4.423t4.269 10.961v173.847q0 10.769 6.923 17.692t17.692 6.923h280.001q6.538 0 10.961 4.485t4.423 11.115q0 6.631-4.423 10.9T455.385-200H175.384ZM824.4-449.231q-6.631 0-10.9-4.423t-4.269-10.961v-240.001q0-10.769-6.923-17.692t-17.692-6.923H450.769q-6.538 0-10.961-4.485t-4.423-11.115q0-6.631 4.423-10.9T450.769-760h333.847q23.057 0 39.221 16.163Q840-727.673 840-704.616v240.001q0 6.538-4.485 10.961t-11.115 4.423ZM584.615-200q-11.769 0-19.73-7.961-7.962-7.962-7.962-19.731v-107.693q0-11.769 7.962-19.73 7.961-7.962 19.73-7.962h227.693q11.769 0 19.731 7.962 7.961 7.961 7.961 19.73v107.693q0 11.769-7.961 19.731Q824.077-200 812.308-200H584.615Z"/></svg>