<svg xmlns="http://www.w3.org/2000/svg" width="48" height="48" viewBox="0 0 48 48"><path d="M7.55 12.65v7.8q0 .35-.225.575-.225.225-.575.225-.3 0-.525-.225Q6 20.8 6 20.45V11.4q0-.6.4-1t1-.4h9.05q.35 0 .575.225.225.225.225.575 0 .3-.225.525-.225.225-.575.225H8.6L19.8 22.7q.25.25.25.55 0 .3-.2.55-.3.25-.6.25t-.55-.25ZM8.75 38q-1.15 0-1.95-.8T6 35.25v-8.7q0-.35.225-.575.225-.225.575-.225.3 0 .525.225.225.225.225.575v8.7q0 .5.35.85t.85.35h14q.35 0 .575.225.225.225.225.575 0 .3-.225.525Q23.1 38 22.75 38ZM41.2 25.55q-.3 0-.525-.225-.225-.225-.225-.575v-12q0-.5-.35-.85t-.85-.35h-16.7q-.35 0-.575-.225-.225-.225-.225-.575 0-.3.225-.525Q22.2 10 22.55 10h16.7q1.15 0 1.95.8t.8 1.95v12q0 .35-.225.575-.225.225-.575.225ZM29.25 38q-.6 0-1-.4t-.4-1v-5.35q0-.6.4-1t1-.4H40.6q.6 0 1 .4t.4 1v5.35q0 .6-.4 1t-1 .4Z"/></svg>