<svg xmlns="http://www.w3.org/2000/svg" width="48" height="48" viewBox="0 -960 960 960"><path d="M378.58-259.73q8.8-8.81 8.8-21.73t-8.8-21.73q-8.81-8.81-21.73-8.81-12.93 0-21.73 8.81-8.81 8.81-8.81 21.73t8.81 21.73q8.8 8.81 21.73 8.81 12.92 0 21.73-8.81Zm123.15 0q8.81-8.81 8.81-21.73t-8.81-21.73Q492.92-312 480-312t-21.73 8.81q-8.81 8.81-8.81 21.73t8.81 21.73q8.81 8.81 21.73 8.81t21.73-8.81Zm123.15 0q8.81-8.81 8.81-21.73t-8.81-21.73q-8.8-8.81-21.73-8.81-12.92 0-21.73 8.81-8.8 8.81-8.8 21.73t8.8 21.73q8.81 8.81 21.73 8.81 12.93 0 21.73-8.81Zm-246.3-122.92q8.8-8.81 8.8-21.73 0-12.93-8.8-21.35-8.81-8.42-21.73-8.42-12.93 0-21.73 8.42-8.81 8.42-8.81 21.35 0 12.92 8.81 21.73 8.8 8.8 21.73 8.8 12.92 0 21.73-8.8Zm123.15 0q8.81-8.81 8.81-21.73 0-12.93-8.81-21.35-8.81-8.42-21.73-8.42t-21.73 8.42q-8.81 8.42-8.81 21.35 0 12.92 8.81 21.73 8.81 8.8 21.73 8.8t21.73-8.8Zm123.15 0q8.81-8.81 8.81-21.73 0-12.93-8.81-21.35-8.8-8.42-21.73-8.42-12.92 0-21.73 8.42-8.8 8.42-8.8 21.35 0 12.92 8.8 21.73 8.81 8.8 21.73 8.8 12.93 0 21.73-8.8Zm-263.3-267.77q-50.04 46.19-56.2 113.8-1.53 11 6.25 17.74 7.79 6.73 18.99 6.73h298.76q11.2 0 18.99-6.73 7.78-6.74 6.25-17.74-6.16-67.61-56.2-113.8-50.04-46.2-118.42-46.2t-118.42 46.2Zm213.46 19.07q40.81 34.5 48.81 88.43h-287.7q8-53.93 48.81-88.43 40.81-34.5 95.04-34.5 54.23 0 95.04 34.5ZM175.38-120q-23.05 0-39.22-16.16Q120-152.33 120-175.38v-609.24q0-23.05 16.16-39.22Q152.33-840 175.38-840h609.24q23.05 0 39.22 16.16Q840-807.67 840-784.62v609.24q0 23.05-16.16 39.22Q807.67-120 784.62-120H175.38Zm0-30.77h609.24q9.23 0 16.92-7.69 7.69-7.69 7.69-16.92v-609.24q0-9.23-7.69-16.92-7.69-7.69-16.92-7.69H175.38q-9.23 0-16.92 7.69-7.69 7.69-7.69 16.92v609.24q0 9.23 7.69 16.92 7.69 7.69 16.92 7.69Zm-24.61 0v-658.46 658.46Z"/></svg>