<svg xmlns="http://www.w3.org/2000/svg" width="48" height="48" viewBox="0 -960 960 960"><path d="M467.692-419.615v107.384q0 5.488 5.616 6.475 5.615.987 8.384-4.244l59.298-155.18q3.01-7.589-.99-13.32t-12-5.731h-35.692v-107.615q0-5.231-5.616-6.231-5.615-1-7.615 5L419.01-438.666q-3.01 7.589 1.048 13.32 4.057 5.731 12.173 5.731h35.461ZM343.205-120q-12.09 0-19.955-7.961-7.866-7.962-7.866-19.731v-612.924q0-11.019 7.962-19.355 7.961-8.337 19.731-8.337h69.231v-24q0-11.769 7.961-19.731Q428.231-840 440-840h80q11.769 0 19.731 7.961 7.961 7.962 7.961 19.731v24h69.39q11.803 0 19.668 8.337 7.866 8.336 7.866 19.355v612.924q0 11.769-7.962 19.731Q628.693-120 616.923-120H343.205Zm2.949-30.769h267.692v-607.539H346.154v607.539Zm0 0h267.692-267.692Z"/></svg>