<svg xmlns="http://www.w3.org/2000/svg" width="48" height="48" viewBox="0 -960 960 960"><path d="M662.69-227.31h-89.23q-6.54 0-10.96-4.33-4.42-4.33-4.42-10.73t4.42-11.05q4.42-4.66 10.96-4.66h89.23v-89.23q0-5.79 4.33-10.58 4.33-4.8 10.73-4.8t11.06 4.8q4.65 4.79 4.65 10.58v89.23h91.16q6.53 0 10.96 4.86 4.42 4.86 4.42 11.26 0 6.4-4.42 10.52-4.43 4.13-10.96 4.13h-91.16v91.93q0 6.53-4.85 10.96-4.86 4.42-11.26 4.42-6.4 0-10.53-4.42-4.13-4.43-4.13-10.96v-91.93ZM343.08-120q-11.77 0-19.73-7.96-7.97-7.96-7.97-19.73v-612.93q0-11.01 7.97-19.35 7.96-8.34 19.73-8.34h69.23v-24q0-11.77 7.96-19.73Q428.23-840 440-840h80q11.77 0 19.73 7.96 7.96 7.96 7.96 19.73v24h69.39q11.8 0 19.67 8.34 7.87 8.34 7.87 19.35v284.54q0 7.41-4.38 12.61-4.37 5.2-11.78 6.85-34.92 7.08-64.84 25.42-29.93 18.33-52.41 43.66-26.36 29.62-41.06 66.51-14.69 36.89-14.69 78.95 0 24.51 5.62 47.55 5.61 23.04 16.15 42.61 5.69 11-.96 21.46T458.15-120H343.08Z"/></svg>