<svg xmlns="http://www.w3.org/2000/svg" width="48" height="48" viewBox="0 -960 960 960"><path d="M480-411.077q17 0 28.5-11.885 11.5-11.884 11.5-28.115v-160q0-17-11.5-28.5t-28.5-11.5q-17 0-28.5 11.5t-11.5 28.5v160q0 16.231 11.5 28.115 11.5 11.885 28.5 11.885Zm0 160q17 0 28.5-11.885 11.5-11.884 11.5-28.115 0-17-11.5-28.5t-28.5-11.5q-17 0-28.5 11.5t-11.5 28.5q0 16.231 11.5 28.115 11.5 11.885 28.5 11.885ZM343.205-127.692q-12.09 0-19.955-7.962-7.866-7.961-7.866-19.73v-591.385q0-11.02 7.962-19.356 7.961-8.337 19.731-8.337h69.231v-29.384q0-11.77 7.961-19.731 7.962-7.962 19.731-7.962h80q11.769 0 19.731 7.962 7.961 7.961 7.961 19.731v29.384h69.231q11.77 0 19.731 8.337 7.962 8.336 7.962 19.356v591.385q0 11.769-7.962 19.73-7.961 7.962-19.731 7.962H343.205Z"/></svg>