<svg xmlns="http://www.w3.org/2000/svg" width="48" height="48" viewBox="0 -960 960 960"><path d="M161.54-280q-34.16 0-57.85-23.69Q80-327.38 80-361.54v-236.92q0-34.16 23.69-57.85Q127.38-680 161.54-680h510.54q11.54 0 15.57 10.81 4.04 10.81-4.57 18.65l-71.77 69h-13.62q-57.23 0-98.23 42.16-41 42.15-41 99.38v133.85q0 10.69-7.73 18.42Q443-280 432.31-280H161.54ZM560-344.62q-6.85 0-11.12-4.26-4.26-4.27-4.26-11.12v-80q0-23.23 16.07-39.31 16.08-16.07 39.31-16.07h226.38L749-573q-4.15-4.38-4.65-11t4.65-11q4.38-4.38 10.62-4.38 6.23 0 10.61 4.38l95.54 95.54Q874-491.23 874-480t-8.23 19.46L771.23-366q-5.15 5.15-11.11 5.15-5.97 0-11.12-5.15-5.15-5.15-5.15-11.38 0-6.24 5.15-10.62l77.38-76.62H600q-10.77 0-17.69 6.93-6.93 6.92-6.93 17.69v80q0 6.85-4.26 11.12-4.27 4.26-11.12 4.26Z"/></svg>