<svg xmlns="http://www.w3.org/2000/svg" width="48" height="48" viewBox="0 0 48 48"><path d="M24 27.6q.35 0 .55-.2.2-.2.2-.55V18.4q0-.35-.225-.575Q24.3 17.6 24 17.6q-.35 0-.55.225-.2.225-.2.575v8.45q0 .35.225.55.225.2.525.2Zm0 5.65q.5 0 .875-.375T25.25 32q0-.5-.375-.875T24 30.75q-.5 0-.875.375T22.75 32q0 .5.375.875t.875.375Zm-6.85 8.35q-.6 0-1-.4t-.4-.95v-29.6q0-.55.4-.95.4-.4 1-.4h3.45V7.8q0-.6.4-1t1-.4h4q.6 0 1 .4t.4 1v1.5h3.45q.6 0 1 .4t.4.95v29.6q0 .55-.4.95-.4.4-1 .4Zm.15-1.5h13.4V10.8H17.3Zm0 0h13.4Z"/></svg>