<svg xmlns="http://www.w3.org/2000/svg" width="48" height="48" viewBox="0 -960 960 960"><path d="M330.769-100q-13.077 0-21.923-8.846Q300-117.692 300-130.769v-618.462q0-13.077 8.846-21.923Q317.692-780 330.769-780h81.539v-37.058q0-11.846 7.952-19.702 7.951-7.856 19.74-7.856h80q11.789 0 19.74 7.952 7.952 7.952 7.952 19.741V-780h81.539q13.077 0 21.923 8.846Q660-762.308 660-749.231v618.462q0 13.077-8.846 21.923Q642.308-100 629.231-100H330.769ZM476.78-262.692q9.451 0 16.489-6.588 7.039-6.587 7.039-16.038 0-10.22-6.972-16.874-6.972-6.654-16.423-6.654-9.452 0-16.49 6.587-7.038 6.588-7.038 16.808 0 9.451 6.972 16.105t16.423 6.654Zm1.222-108.154q5.431 0 9.638-3.692 4.206-3.693 5.437-10.616 7.692-44.923 45.846-68.692 38.154-23.769 38.154-71.693 0-43.85-27.369-69.079-27.368-25.228-72.862-25.228-30.231 0-52.654 13.615-22.423 13.616-36.115 36.539-3.462 5.153-.909 11.51 2.552 6.357 8.74 8.311 4.938 2.333 10.63-.014 5.693-2.346 8.616-7.269 9.769-14.769 25.051-23.692 15.282-8.923 36.452-8.923 36.112 0 52.997 18.231 16.884 18.23 16.884 44.999 0 21-11.824 35.27-11.825 14.269-26.385 28.154-14.56 13.884-28.06 31.115-13.5 17.231-16.961 44.699-1.231 6.839 3.012 11.647t11.682 4.808Z"/></svg>