<svg xmlns="http://www.w3.org/2000/svg" width="48" height="48" viewBox="0 -960 960 960"><path d="M252.46-367.31h455.08v46.39q0 7.84 5.15 13 5.16 5.15 13.39 5.15t13.38-5.15q5.16-5.16 5.16-13v-128.62q0-14.15-10.81-31.96-10.81-17.81-27.19-27.27v-55.69q0-26.62-16.58-43.19-16.58-16.58-43.19-16.58H527.77q-17.54 0-29.54 6.92-12 6.93-18.46 18.46-6.46-11.53-18.85-18.46-12.38-6.92-29.92-6.92H313.15q-26.61 0-43.19 16.58-16.58 16.57-16.58 43.19v55.69q-16.38 9.46-27.19 27.27-10.81 17.81-10.81 31.96v128.62q0 7.84 5.16 13 5.15 5.15 13.38 5.15t13.39-5.15q5.15-5.16 5.15-13v-46.39Zm0-30.77v-40.46q0-17.46 11.27-28.73t28.73-11.27h375.08q17.46 0 28.73 11.27t11.27 28.73v40.46H252.46Zm31.69-111.23v-59.54q0-10 7.31-17.3 7.31-7.31 17.31-7.31h131.61q10 0 17.31 7.31 7.31 7.3 7.31 17.3v59.54H284.15Zm211.62 0v-59.54q0-10 6.92-17.3 6.93-7.31 17.69-7.31h130.85q10 0 17.31 7.31 7.31 7.3 7.31 17.3v59.54H495.77ZM175.38-120q-23.23 0-39.3-16.08Q120-152.15 120-175.38v-609.24q0-23.23 16.08-39.3Q152.15-840 175.38-840h609.24q23.23 0 39.3 16.08Q840-807.85 840-784.62v609.24q0 23.23-16.08 39.3Q807.85-120 784.62-120H175.38Z"/></svg>