<svg xmlns="http://www.w3.org/2000/svg" width="48" height="48" viewBox="0 -960 960 960"><path d="M481.231-242.846q70.384 0 135.769-23.346t119.308-68.269q6.384-5.154 7.384-13.27 1-8.115-5.153-13.038-5.385-4.923-12.77-4.539-7.384.385-13.769 4.539-8.538 7.307-18.115 13.231-9.577 5.923-19.654 11.461l-46.385-85.231v-96.846h37.923q5.462 0 9.693-3.846 4.23-3.846 4.23-10.077 0-5.462-4.23-9.692-4.231-4.231-9.693-4.231H446.385l-64.923-111.615q-4-6.231-10.231-9.847Q365-671.077 357-671.077h-67.769q-4.231 0-4.693 4.731-.461 4.731 4.539 5.423l13.692 3.308-54.538 61.384q-3.923 3.923-3.923 9.962 0 6.038 3.923 9.961l1.692 3.231q3.692 3.692 9.885 4.692 6.192 1 10.346-3.23l63.538-42.154v190.923L286-336.077q-10.308-5.538-20.5-12.077-10.192-6.538-18.731-13.846-6.154-4.923-13.154-4.308-7 .616-12.154 5.539-6.153 4.923-5.269 12.923.885 8 7.039 12.923Q278.385-289.769 344-266.308q65.615 23.462 137.231 23.462Zm0-34.385q-39.231 0-82-9.731-42.769-9.73-88.616-32.576l50.616-87.539q32.538 12.769 61.538 18.769 29 6 57.231 6t57.231-6q29-6 61.538-18.769l50.616 87.539q-45.847 21.846-87.654 32.076-41.808 10.231-80.5 10.231ZM175.384-120q-23.23 0-39.307-16.077T120-175.384v-609.232q0-23.23 16.077-39.307T175.384-840h609.232q23.23 0 39.307 16.077T840-784.616v609.232q0 23.23-16.077 39.307T784.616-120H175.384Z"/></svg>