<svg xmlns="http://www.w3.org/2000/svg" width="48" height="48" viewBox="0 96 960 960"><path d="M480 905.231q58.308 0 111-20.692 52.692-20.693 99-56.462-101.077-34.769-170.923-93.423T409.654 601.269q-39.577-74.731-50.308-160-10.731-85.269 6.423-173.038-95.615 37.923-154.923 121.884Q151.538 474.077 151.538 576q0 146.308 91.077 237.769Q333.692 905.231 480 905.231ZM480 936q-79.385 0-145.462-26.384Q268.461 883.231 221 835.385q-47.462-47.846-73.846-113.923Q120.769 655.385 120.769 576q0-117.846 68.731-211.116 68.731-93.269 173.577-128.269 18.308-5.769 28.769 4.192 10.462 9.962 5.308 30.808-18.538 86.539-6.077 170.692 12.462 84.154 52.692 154.924Q484 668 550.27 721.346q66.269 53.346 154.346 78.038 20.307 5.77 24.346 19.693Q733 833 718.308 845.308q-47 41.461-109.923 66.077Q545.462 936 480 936Zm-58.846-349.385Z"/></svg>