<svg xmlns="http://www.w3.org/2000/svg" width="48" height="48" viewBox="0 -960 960 960"><path d="M399.769-138.461q-40.032 0-67.593-27.561-27.561-27.561-27.561-67.593 0-40.032 27.561-67.209Q359.737-328 399.769-328q40.032 0 67.209 27.176 27.176 27.177 27.176 67.209 0 40.032-27.176 67.593-27.177 27.561-67.209 27.561ZM9.231-218.308v-30.769h185.538q5.692-72.769 56.269-126.038 50.577-53.27 120.577-59.577l-61.077-286.616q-2.307-7.692-9.23-13.077-6.923-5.384-13.846-5.384H170.461q-6.576 0-10.98-4.458-4.404-4.458-4.404-11.116 0-6.657 4.404-10.926 4.404-4.27 10.98-4.27h111.385q18.894 0 36.563 12.077 17.668 12.077 22.668 32.77l67.385 319.846h-8.693q-71.313 0-121.887 50.125t-50.574 122.106v15.307H9.231Zm764.615-43q-70.09 0-120.276-43.73-50.185-43.731-57.339-113.731H485l-4.154-30.77h115.437q3.409-30.769 22.563-71.615t55-60.615H451l-7.077-30.77h246l-68.498-193.615q-2.308-6.923-7.692-10.384Q608.348-820 601.425-820H485.461q-6.576 0-10.98-4.458-4.404-4.458-4.404-11.115 0-6.658 4.404-10.927 4.404-4.269 10.98-4.269h112.231q16.656 0 31.736 9.689 15.079 9.69 21.418 26.849L722.154-614h51.692q74.162 0 124.773 50.908 50.612 50.908 50.612 125.49 0 71.525-51.96 123.91-51.959 52.384-123.425 52.384ZM763-458q6.113-2.942 8.787-8.433 2.675-5.49-.018-11.105l-37.154-99.616-26.769 11.231 35.615 99.385q2.693 5.615 7.735 8.038 5.041 2.423 11.804.5Z"/></svg>