<svg xmlns="http://www.w3.org/2000/svg" width="48" height="48" viewBox="0 -960 960 960"><path d="M266.46-175.38q-14.33 0-23.6-7.62-9.28-7.61-11.81-21.99L142.54-754q-2-13.61 4.92-22.11 6.92-8.51 19.61-8.51h626.01q13.31 0 19.96 8.47 6.65 8.46 4.18 22.04l-23.9 145.21q-2.47 14.44-11.49 21.9-9.01 7.46-23.6 7.46H381.46q-.69 0-8.23 9.69l29.62 181.7q.77 2.77 8.46 7.69h136.37q3.39 0 8.47-7.69l21.44-131.02q1.72-11.83 8.92-17.56 7.2-5.73 19.05-5.73h148.21q13.31 0 19.96 8.46t4.97 21.15l-49.75 307.86q-2.53 14.38-11.8 21.99-9.28 7.62-23.61 7.62H266.46Z"/></svg>