<svg xmlns="http://www.w3.org/2000/svg" width="48" height="48" viewBox="0 -960 960 960"><path d="M254-150.77h452.23q6.92 0 10.39-6.15 3.46-6.16.38-12.31l-61.69-105h-50v18.69q0 6.58-4.41 10.98-4.4 4.41-10.98 4.41-5.84 0-10.61-4.41-4.77-4.4-4.77-10.98v-18.69H304.15l-60.92 105q-3.85 6.15 0 12.31 3.85 6.15 10.77 6.15Zm351.31-382.54h100.92q6.92 0 10.39-6.15 3.46-6.16.38-12.31l-61.69-105h-50v123.46Zm0 190.62h100.92q6.92 0 10.39-5.39 3.46-5.38.38-12.3l-61.69-105h-50v122.69Zm-351.31 0h320.54v-122.69H304.15l-60.92 105q-3.85 6.92 0 12.3 3.85 5.39 10.77 5.39Zm0-190.62h320.54v-123.46H304.15l-60.92 105q-3.85 6.15 0 12.31 3.85 6.15 10.77 6.15Zm.85 413.31q-22.45 0-38.92-16.47-16.47-16.47-16.47-38.91v-481.39h-51.77q-11.96 0-19.82-7.86-7.87-7.87-7.87-19.83V-748q0-38.59 26.7-65.3Q173.41-840 212-840h536q37.82 0 64.91 27.09Q840-785.82 840-748v63.54q0 11.96-7.87 19.83-7.86 7.86-19.82 7.86H760v481.39q0 22.44-16.47 38.91Q727.06-120 704.62-120H254.85Z"/></svg>