<svg xmlns="http://www.w3.org/2000/svg" width="48" height="48"><path d="M12 29.6q-.7 0-1.175-.475-.475-.475-.475-1.175 0-.7.475-1.175Q11.3 26.3 12 26.3q.7 0 1.175.475.475.475.475 1.175 0 .7-.475 1.175Q12.7 29.6 12 29.6zm0 8.05q-.7 0-1.175-.475Q10.35 36.7 10.35 36q0-.7.475-1.175.475-.475 1.175-.475.7 0 1.175.475.475.475.475 1.175 0 .7-.475 1.175-.475.475-1.175.475zm0-15.95q-.7 0-1.175-.475-.475-.475-.475-1.175 0-.7.475-1.175Q11.3 18.4 12 18.4q.7 0 1.175.475.475.475.475 1.175 0 .7-.475 1.175Q12.7 21.7 12 21.7zm-6-.65q-.4 0-.7-.275Q5 20.5 5 20.05q0-.45.3-.75T6 19q.45 0 .75.3t.3.75q0 .45-.3.725-.3.275-.75.275zm6-7.4q-.7 0-1.175-.475Q10.35 12.7 10.35 12q0-.7.475-1.175.475-.475 1.175-.475.7 0 1.175.475.475.475.475 1.175 0 .7-.475 1.175-.475.475-1.175.475zm30 7.4q-.45 0-.75-.275t-.3-.725q0-.45.3-.75T42 19q.4 0 .7.3.3.3.3.75t-.3.725q-.3.275-.7.275zm-14.05-7.4q-.7 0-1.175-.475Q26.3 12.7 26.3 12q0-.7.475-1.175.475-.475 1.175-.475.7 0 1.175.475.475.475.475 1.175 0 .7-.475 1.175-.475.475-1.175.475zm0-6.6q-.4 0-.7-.3-.3-.3-.3-.7 0-.45.3-.75t.7-.3q.45 0 .75.3t.3.75q0 .4-.3.7-.3.3-.75.3zM6 29q-.4 0-.7-.3-.3-.3-.3-.75t.3-.725q.3-.275.7-.275.45 0 .75.275t.3.725q0 .45-.3.75T6 29zm14.05 14q-.45 0-.75-.3t-.3-.75q0-.4.3-.7.3-.3.75-.3.4 0 .7.3.3.3.3.7 0 .45-.3.75t-.7.3zm0-35.95q-.45 0-.75-.3t-.3-.7q0-.45.3-.75t.75-.3q.4 0 .7.3.3.3.3.75 0 .4-.3.7-.3.3-.7.3zm0 6.6q-.7 0-1.175-.475Q18.4 12.7 18.4 12q0-.7.475-1.175.475-.475 1.175-.475.7 0 1.175.475.475.475.475 1.175 0 .7-.475 1.175-.475.475-1.175.475zm0 16.55q-.9 0-1.575-.65-.675-.65-.675-1.6 0-.9.65-1.575.65-.675 1.6-.675.9 0 1.575.675.675.675.675 1.575 0 .9-.675 1.575-.675.675-1.575.675zM36 29.6q-.7 0-1.175-.475-.475-.475-.475-1.175 0-.7.475-1.175Q35.3 26.3 36 26.3q.7 0 1.175.475.475.475.475 1.175 0 .7-.475 1.175Q36.7 29.6 36 29.6zm0 8.05q-.7 0-1.175-.475Q34.35 36.7 34.35 36q0-.7.475-1.175.475-.475 1.175-.475.7 0 1.175.475.475.475.475 1.175 0 .7-.475 1.175-.475.475-1.175.475zm0-15.95q-.7 0-1.175-.475-.475-.475-.475-1.175 0-.7.475-1.175Q35.3 18.4 36 18.4q.7 0 1.175.475.475.475.475 1.175 0 .7-.475 1.175Q36.7 21.7 36 21.7zm0-8.05q-.7 0-1.175-.475Q34.35 12.7 34.35 12q0-.7.475-1.175.475-.475 1.175-.475.7 0 1.175.475.475.475.475 1.175 0 .7-.475 1.175-.475.475-1.175.475zM42 29q-.45 0-.75-.3t-.3-.75q0-.45.3-.725.3-.275.75-.275.4 0 .7.275.3.275.3.725 0 .45-.3.75t-.7.3zm-14.05 8.65q-.7 0-1.175-.475Q26.3 36.7 26.3 36q0-.7.475-1.175.475-.475 1.175-.475.7 0 1.175.475.475.475.475 1.175 0 .7-.475 1.175-.475.475-1.175.475zM28.1 43q-.45 0-.75-.3t-.3-.75q0-.4.3-.7.3-.3.75-.3t.75.3q.3.3.3.7 0 .45-.3.75t-.75.3zm-8.05-20.7q-.9 0-1.575-.675-.675-.675-.675-1.575 0-.9.65-1.575.65-.675 1.6-.675.9 0 1.575.65.675.65.675 1.6 0 .9-.675 1.575-.675.675-1.575.675zm0 15.35q-.7 0-1.175-.475Q18.4 36.7 18.4 36q0-.7.475-1.175.475-.475 1.175-.475.7 0 1.175.475.475.475.475 1.175 0 .7-.475 1.175-.475.475-1.175.475zm7.9-7.45q-.9 0-1.575-.65-.675-.65-.675-1.6 0-.9.675-1.575.675-.675 1.575-.675.9 0 1.575.675.675.675.675 1.575 0 .9-.65 1.575-.65.675-1.6.675zm0-7.9q-.9 0-1.575-.675-.675-.675-.675-1.575 0-.9.675-1.575.675-.675 1.575-.675.9 0 1.575.65.675.65.675 1.6 0 .9-.65 1.575-.65.675-1.6.675z"/></svg>