<svg xmlns="http://www.w3.org/2000/svg" width="48" height="48" viewBox="0 -960 960 960"><path d="M321.88-299.8q4.27-4.41 4.27-10.97v-483.08q0-6.55-4.47-10.97-4.47-4.41-11.11-4.41-6.65 0-10.92 4.41-4.27 4.42-4.27 10.97v483.08q0 6.56 4.48 10.97 4.47 4.42 11.11 4.42 6.65 0 10.91-4.42ZM249.23-120q-37.18 0-63.2-26.03Q160-172.05 160-209.23v-541.54q0-37.18 26.03-63.2Q212.05-840 249.23-840H600q22.25 0 38.82 16.57 16.56 16.56 16.56 38.81V-320q0 22.25-16.56 38.82-16.57 16.56-38.82 16.56H249.23q-24.73 0-41.6 16.22-16.86 16.21-16.86 40.57 0 24.37 16.86 40.71 16.87 16.35 41.6 16.35h495.39q10.76 0 17.69-6.92 6.92-6.93 6.92-17.69v-569.24q0-6.55 4.47-10.97 4.47-4.41 11.12-4.41 6.64 0 10.91 4.41 4.27 4.42 4.27 10.97v569.24q0 22.25-16.57 38.81Q766.87-120 744.62-120H249.23Z"/></svg>