<svg xmlns="http://www.w3.org/2000/svg" width="48" height="48" viewBox="0 -960 960 960"><path d="m429.231-206.231-172.385 73.539q-27.692 11.462-52.269-5.115Q180-154.384 180-184.077v-499q0-23.058 16.163-39.221 16.164-16.164 39.221-16.164h387.693q23.231 0 39.423 16.164 16.193 16.163 16.193 39.221v499.231q0 30.951-24.577 46.783-24.577 15.833-52.27 4.371l-172.615-73.539Zm0-35.461 183.846 79.154q12.308 5.384 23.462-1.923 11.153-7.308 11.153-21.154v-497.462q0-9.231-7.692-16.923-7.692-7.693-16.923-7.693H235.384q-9.23 0-16.923 7.693-7.692 7.692-7.692 16.923v497.462q0 13.846 11.154 21.154 11.154 7.307 23.461 1.923l183.847-79.154Zm320 35.539v-578.463q0-9.231-7.692-16.923-7.693-7.692-16.923-7.692h-427.77V-840h427.77q23.057 0 39.221 16.163Q780-807.674 780-784.616v578.463h-30.769Zm-320-501.54H210.769h436.923-218.461Z"/></svg>