<svg xmlns="http://www.w3.org/2000/svg" width="48" height="48" viewBox="0 96 960 960"><path d="M270.769 828.077 480 738.923l209.231 89.154V308.692q0-9.231-7.692-16.923-7.693-7.692-16.923-7.692H295.384q-9.23 0-16.923 7.692-7.692 7.692-7.692 16.923v519.385Zm8.154 31.462q-13.901 6.231-26.412-1.938Q240 849.433 240 834.077V308.692q0-22.461 16.163-38.923 16.164-16.462 39.221-16.462h369.232q23.057 0 39.221 16.462Q720 286.231 720 308.692v525.385q0 15.356-12.511 23.524-12.511 8.169-26.412 1.938L480 772.923l-201.077 86.616Zm-8.154-575.462h418.462-418.462Z"/></svg>