<svg xmlns="http://www.w3.org/2000/svg" width="48" height="48" viewBox="0 -960 960 960"><path d="M779.811-610.385q-8.58 0-14.195-5.406Q760-621.197 760-630.176q0-8.978 5.804-14.593 5.805-5.616 14.385-5.616t14.196 5.801q5.615 5.8 5.615 14.375 0 9.363-5.804 14.594-5.804 5.23-14.385 5.23Zm0 150.385q-8.58 0-14.195-5.804Q760-471.609 760-480.189t5.804-14.196Q771.609-500 780.189-500t14.196 5.804Q800-488.391 800-479.811t-5.804 14.196Q788.392-460 779.811-460Zm0 149.616q-8.58 0-14.195-5.407Q760-321.197 760-330.175q0-8.979 5.804-14.594 5.805-5.616 14.385-5.616t14.196 5.801q5.615 5.8 5.615 14.375 0 9.363-5.804 14.594t-14.385 5.231ZM330.209-160q-9.363 0-14.594-5.804t-5.231-14.385q0-8.58 5.407-14.195Q321.197-200 330.175-200q8.979 0 14.594 5.804 5.616 5.805 5.616 14.385t-5.801 14.196q-5.8 5.615-14.375 5.615Zm149.602 0q-8.58 0-14.196-5.804Q460-171.608 460-180.189q0-8.58 5.804-14.195Q471.609-200 480.189-200t14.196 5.804Q500-188.391 500-179.811t-5.804 14.196Q488.391-160 479.811-160Zm150.398 0q-9.363 0-14.594-5.804-5.23-5.804-5.23-14.385 0-8.58 5.406-14.195Q621.197-200 630.176-200q8.978 0 14.593 5.804 5.616 5.805 5.616 14.385t-5.801 14.196q-5.8 5.615-14.375 5.615Zm149.602 0q-8.58 0-14.195-5.804Q760-171.608 760-180.189q0-8.58 5.804-14.195Q771.609-200 780.189-200t14.196 5.804Q800-188.391 800-179.811t-5.804 14.196Q788.392-160 779.811-160ZM160-175.384v-569.232q0-22.25 16.567-38.817T215.384-800h569.232q6.538 0 10.961 4.485T800-784.4q0 6.631-4.423 10.9t-10.961 4.269H215.384q-10.769 0-17.692 6.923t-6.923 17.692v569.232q0 6.538-4.485 10.961T175.169-160q-6.631 0-10.9-4.423T160-175.384Z"/></svg>