<svg xmlns="http://www.w3.org/2000/svg" width="48" height="48" viewBox="0 -960 960 960"><path d="M298.077-135.385v-40h40v40h-40Zm0-324.615v-40h40v40h-40ZM460-460v-40h40v40h-40Zm0 324.615v-40h40v40h-40ZM135.385-298.077v-40h40v40h-40Zm0 162.692v-40h40v40h-40Zm0-324.615v-40h40v40h-40Zm0-162.692v-40h40v40h-40ZM460-298.077v-40h40v40h-40Zm324.615-324.615v-40h40v40h-40Zm0 162.692v-40h40v40h-40Zm-629.23-324.615q-8.5 0-14.25-5.805-5.75-5.804-5.75-14.384 0-8.581 5.75-14.196t14.25-5.615h649.23q8.5 0 14.25 5.804t5.75 14.384q0 8.581-5.75 14.196-5.75 5.616-14.25 5.616h-649.23Zm629.23 486.538v-40h40v40h-40ZM622.692-135.385v-40h40v40h-40ZM460-622.692v-40h40v40h-40Zm324.615 487.307v-40h40v40h-40ZM622.692-460v-40h40v40h-40Z"/></svg>