<svg xmlns="http://www.w3.org/2000/svg" width="48" height="48" viewBox="0 96 960 960"><path d="M110.769 1056q-13.461 0-22.115-8.65Q80 1038.69 80 1025.23q0-12.92 9.038-21.96 9.039-9.04 21.962-9.04h738.231q13.461 0 22.115 8.65Q880 1011.54 880 1025q0 12.92-9.039 21.96-9.038 9.04-21.73 9.04H110.769Zm118.154-193.923q-12.231 0-19.962-7.731-7.73-7.731-7.73-19.962v-48.692q0-5.231 2-9.846 2-4.616 6.23-8.846l349.385-347.847 85.308 85.308-347.846 349.385q-4.231 4.231-9.231 6.231t-10.231 2h-47.923Zm450.77-397-85.308-83.77 50.923-51.692q11-11.462 25.769-11.962 14.769-.5 27.231 11.962l30.308 29.538q11.461 12.231 11.846 27.116.385 14.884-9.846 27.115l-50.923 51.693Z"/></svg>