<svg xmlns="http://www.w3.org/2000/svg" width="48" height="48" viewBox="0 -960 960 960"><path d="M206.231-694H752l-54.316-66.769q-3.846-3.846-8.846-6.154t-10.385-2.308h-398.53q-5.385 0-10.769 2.308-5.385 2.308-8.462 6.154L206.231-694Zm184.538 261.923L480-476.692l89.231 44.615v-231.154H390.769v231.154ZM215.384-160q-22.25 0-38.817-16.567T160-215.384v-449.77q0-8.729 3-17.838 3-9.108 9-16.624l63.538-79.461q7.231-9.17 18.702-15.047Q265.71-800 279.041-800H679.19q13.331 0 25.09 5.876 11.759 5.877 19.182 15.047l64.538 81q6 7.832 9 17.088t3 18.143v106.461q-9.769 0-16.346 1.616-6.577 1.615-14.423 3.538v-112H600v262.385l-12.538 12.308L480-442l-80.077 39.539q-14.231 7.231-27.077-.75Q360-411.192 360-427.154v-236.077H190.769v447.847q0 10.769 6.923 17.692t17.692 6.923h267.693V-160H215.384ZM600-663.231h169.231H600Zm-409.231 0h396.693-396.693Zm378.462 475.539v-50.231q0-4.462 2-9.462t6.196-9.19L782.46-460.579q5.984-5.983 12.358-8.087 6.373-2.103 12.61-2.103 6.803 0 13.436 2.577 6.632 2.577 12.059 7.73l37 37.77q5.154 5.923 7.616 12.307Q880-404 880-397.615q0 6.384-2.961 12.884-2.962 6.5-7.429 12.548L665.825-168.187Q661.616-164 656.616-162t-9.462 2h-50.231q-11.769 0-19.731-7.961-7.961-7.962-7.961-19.731Zm275.384-209.923-37-37.77 37 37.77Zm-240 202.23h38l138.693-138.922-18.77-19-18.23-19.539-139.693 139.461v38Zm157.923-157.922-18.23-19.539 37 38.539-18.77-19Z"/></svg>