<svg xmlns="http://www.w3.org/2000/svg" width="48" height="48" viewBox="0 -960 960 960"><path d="M290.769-304.615h138.462q6.538 0 10.961-4.485 4.423-4.486 4.423-11.116t-4.423-10.899q-4.423-4.27-10.961-4.27H290.769q-6.538 0-10.961 4.485-4.424 4.486-4.424 11.116t4.424 10.899q4.423 4.27 10.961 4.27Zm0-160h138.462q6.538 0 10.961-4.485 4.423-4.486 4.423-11.116t-4.423-10.899q-4.423-4.27-10.961-4.27H290.769q-6.538 0-10.961 4.485-4.424 4.486-4.424 11.116t4.424 10.899q4.423 4.27 10.961 4.27Zm378.246-190.77q-6.63 0-10.9 4.423-4.269 4.423-4.269 10.962v160q0 6.539 4.485 10.962t11.116 4.423q6.63 0 10.899-4.423 4.27-4.423 4.27-10.962v-160q0-6.539-4.486-10.962-4.485-4.423-11.115-4.423Zm-378.246 30.77h138.462q6.538 0 10.961-4.485 4.423-4.486 4.423-11.116t-4.423-10.899q-4.423-4.27-10.961-4.27H290.769q-6.538 0-10.961 4.485-4.424 4.486-4.424 11.116t4.424 10.899q4.423 4.27 10.961 4.27ZM172-160q-23.058 0-39.221-16.163-16.164-16.164-16.164-39.221v-529.232q0-23.057 16.164-39.221Q148.942-800 172-800h616q23.058 0 39.221 16.163 16.164 16.164 16.164 39.221v529.232q0 23.057-16.164 39.221Q811.058-160 788-160H172Zm0-30.769h616q9.231 0 16.923-7.692 7.692-7.693 7.692-16.923v-529.232q0-9.23-7.692-16.923-7.692-7.692-16.923-7.692H172q-9.231 0-16.923 7.692-7.692 7.693-7.692 16.923v529.232q0 9.23 7.692 16.923 7.692 7.692 16.923 7.692Zm-24.615 0v-578.462 578.462Zm522.062-113.846q6.63 0 10.899-4.485 4.27-4.486 4.27-11.116t-4.486-10.899q-4.485-4.27-11.115-4.27t-10.9 4.485q-4.269 4.486-4.269 11.116t4.485 10.899q4.485 4.27 11.116 4.27Z"/></svg>