<svg xmlns="http://www.w3.org/2000/svg" width="48" height="48" viewBox="0 96 960 960"><path d="M480.231 972.385 362.75 856H200V693.25L82.153 576 200 458.75V296h162.75l117.481-117.846L597.25 296H760v162.75L877.846 576 760 693.25V856H597.25L480.231 972.385ZM480 575.769Zm.231 352.616 103.833-103.154h145.167V680.513L833.615 576 729.103 471.487V326.769H584.385L480.231 222.385 375.615 326.769H230.897v144.718L126.385 576l104.384 104.513v144.718h144.616l104.846 103.154Zm-1.205-103.154q105.185 0 177.695-72.808 72.51-72.808 72.51-177.038 0-104.231-72.626-177.039-72.625-72.808-177.53-72.808-26.306 0-50.921 6.27-24.616 6.269-51.308 16.961 67.462 30.462 106.769 91.769 39.308 61.308 39.308 134.982 0 73.673-39.308 134.846-39.307 61.173-106.769 91.865 24.769 10.231 49.731 16.615 24.961 6.385 52.449 6.385Z"/></svg>