<svg xmlns="http://www.w3.org/2000/svg" width="48" height="48" viewBox="0 -960 960 960"><path d="M500-313.692q69.433 0 118.37-48.438 48.938-48.438 48.938-117.969 0-69.531-48.938-118.485-48.937-48.955-118.37-48.955-7.923 0-15.069.5-7.146.5-14.931 2.731-10.03 2.495-11.784 13.825-1.755 11.329 7.632 18.596 31.372 23.766 47.57 58.103 16.197 34.337 16.197 73.071 0 38.574-17.038 73.297-17.039 34.724-46.654 58.085-9.692 7.254-8.324 18.749 1.369 11.495 11.632 14.428 7.692 2 15.269 2.231 7.577.231 15.5.231ZM597.361-200l-78.207 77.693q-15.923 15.461-38.769 15.461-22.847 0-38.308-15.461L362.936-200H255.384q-22.25 0-38.817-16.567T200-255.384v-106.975l-78.154-78.718q-16.231-16.787-16.231-39.201t16.231-38.645L200-597.641v-106.975q0-22.25 16.567-38.817T255.384-760h106.975l78.718-78.923q16.181-15.462 39.398-15.462 23.217 0 38.679 16.462L597.361-760h107.255q22.25 0 38.817 16.567T760-704.616v106.975l78.923 78.718q15.462 16.787 15.462 39.201t-15.462 38.645L760-362.359v106.975q0 22.25-16.567 38.817T704.616-200H597.361Zm-117.13-280.231Zm0 352.616 103.75-103.154h145.25v-144.718L833.615-480 729.103-584.513v-144.718H584.385L480.231-833.615 375.615-729.231H230.897v144.718L126.385-480l104.384 104.513v144.718h144.616l104.846 103.154Z"/></svg>