<svg xmlns="http://www.w3.org/2000/svg" width="48" height="48" viewBox="0 -960 960 960"><path d="M363.39-200H255.384q-22.25 0-38.817-16.567T200-255.384V-363.39l-78.923-78.456q-15.462-15.379-15.462-38.113 0-22.733 15.462-38.964L200-597.056v-107.56q0-22.25 16.567-38.817T255.384-760H363.39l78.456-78.923q15.411-15.693 38.129-15.462 22.717.231 39.179 15.692L597.19-760h107.426q22.25 0 38.817 16.567T760-704.616v107.56l78.923 78.133q15.462 16.114 15.462 38.848 0 22.734-15.462 38.229L760-363.39v108.006q0 22.25-16.567 38.817T704.616-200H596.959l-77.574 77.462q-16.462 15.461-39.154 15.461-22.693 0-38.385-15.461L363.39-200Zm116.841-280.231Zm0 352.616 103.75-103.154h145.25v-144.718L833.615-480 729.103-584.513v-144.718H584.385L480.231-833.615 375.615-729.231H230.897v144.718L126.385-480l104.384 104.513v144.718h144.616l104.846 103.154Zm20.006-187.077q69.687 0 117.994-48.324 48.308-48.323 48.308-116.884 0-68.562-48.594-116.485t-117.72-47.923q-10.573 0-19.476 1.5-8.903 1.5-15.802 2.631-5.466 1.996-8.245 5.334-2.779 3.337-2.779 8.327 0 1.9 7.462 13.593 33.384 21.384 50.807 56.948 17.423 35.563 17.423 75.558 0 42.494-18.272 77.826-18.272 35.332-51.006 56.571-2.952 2.698-7.414 12.366 0 5.586 3.572 9.279 3.572 3.692 7.93 5.404 10.827 2.567 19.572 3.423 8.744.856 16.24.856Z"/></svg>