<svg xmlns="http://www.w3.org/2000/svg" width="48" height="48" viewBox="0 -960 960 960"><path d="M362.802-200H255.384q-22.25 0-38.817-16.567T200-255.384v-106.842l-78.154-78.851q-9-8.231-12.616-18.132-3.615-9.9-3.615-20.461 0-10.561 3.615-20.792 3.616-10.23 12.616-18.461L200-597.774v-106.842q0-22.25 16.567-38.817T255.384-760h106.842l78.851-78.923q8.231-8.231 18.433-11.847 10.203-3.615 20.775-3.615 10.571 0 20.626 3.927 10.054 3.926 18.243 12.535L597.361-760h107.255q22.25 0 38.817 16.567T760-704.616v106.842l78.923 78.851q8.231 8.231 11.847 18.132 3.615 9.9 3.615 20.461 0 10.561-3.615 20.792-3.616 10.23-11.847 18.461L760-362.226v106.842q0 22.25-16.567 38.817T704.616-200H597.361l-78.207 77.693q-8.189 8.13-18.1 11.796-9.911 3.665-20.483 3.665-10.571 0-20.381-3.665-9.809-3.666-18.113-11.796L362.802-200Z"/></svg>