<svg xmlns="http://www.w3.org/2000/svg" width="48" height="48" viewBox="0 -960 960 960"><path d="M375.38-485.68V-640q0-6.58-4.45-10.98-4.46-4.4-11.12-4.4-6.66 0-10.93 4.4-4.26 4.4-4.26 10.98v154.62q0 5.63 2 10.43t6.23 9.03L461.77-357q4.38 4.38 10.61 4 6.24-.38 10.62-4.77 4.38-4.38 4.38-10.61 0-6.24-4.38-10.62L375.38-485.68Zm513.85 5.56q0-79.88-40.65-147-40.66-67.11-109.96-105.57-6.47-2.74-8.89-8.68-2.42-5.94.17-12.88 2.02-6.29 9.25-7.98 7.23-1.69 13.62 2.23 76.38 42.85 121.81 117.04Q920-568.77 920-480.29q0 88.48-45.42 162.46-45.43 73.98-121.04 117.6-6.39 3.92-13.62 2.23-7.23-1.69-10.02-7.98-3.36-6.94-.56-13.27 2.81-6.33 9.28-9.29 69.3-37.69 109.96-104.69 40.65-67 40.65-146.89ZM235.27-185.65q-58.19-25.43-101.69-68.54-43.5-43.12-68.54-101.69Q40-414.46 40-480.79q0-66.34 25.04-124.35 25.04-58.01 68.54-101.51 43.5-43.5 101.69-68.54 58.19-25.04 124.73-25.04t124.73 25.04q58.19 25.04 101.69 68.54 43.5 43.5 68.54 101.51Q680-547.13 680-480.79q0 66.33-25.04 124.91-25.04 58.57-68.54 101.69-43.5 43.11-101.69 68.54-58.19 25.42-124.73 25.42t-124.73-25.42ZM360-191q120.15 0 204.69-84.19 84.54-84.18 84.54-205.04 0-120.15-84.54-204.69-84.54-84.54-204.31-84.54-121.12 0-205.37 84.54-84.24 84.54-84.24 204.3 0 121.13 84.19 205.38Q239.14-191 360-191Zm0-289.23Z"/></svg>