<svg xmlns="http://www.w3.org/2000/svg" width="48" height="48" viewBox="0 96 960 960"><path d="M354.154 896q-12.253 0-20.165-7.912-7.912-7.912-7.912-20.165 0-9.118 4.346-20.213t10.936-17.685L395.384 776h-220q-23.057 0-39.221-16.192Q120 743.616 120 720.616V311.384q0-23 16.163-39.192Q152.327 256 175.384 256h333.154q6.577 0 10.981 4.458t4.404 11.115q0 6.658-4.404 10.927-4.404 4.269-10.981 4.269H175.384q-10.769 0-17.692 6.923t-6.923 17.692v409.232q0 10.769 6.923 17.692t17.692 6.923h609.232q10.769 0 17.692-6.923t6.923-17.692v-89.001q0-6.576 4.458-10.98 4.458-4.404 11.115-4.404 6.658 0 10.927 4.404 4.269 4.404 4.269 10.98v89.001q0 23-16.192 39.192T784.616 776h-220l54.799 54.025q6.047 6.59 10.393 17.304 4.346 10.714 4.346 20.594 0 12.253-7.912 20.165Q618.33 896 606.077 896H354.154Zm286.559-232.615q-5.098 0-10.098-2.385-5-2.384-9.077-6.461L483.461 516.462q-4.384-4.385-4.769-10.616-.385-6.231 4.769-11t11-4.769q5.847 0 11 4.385l120 120.538V271.384q0-6.577 4.459-10.98Q634.378 256 641.035 256t10.927 4.404q4.269 4.403 4.269 10.98V615l120-120.538q4.384-4.154 10.615-4.27 6.231-.115 11.385 4.654t5.154 10.616q0 5.846-5.154 11L660.154 654.539q-4.077 4.077-8.896 6.461-4.818 2.385-10.545 2.385Z"/></svg>