<svg xmlns="http://www.w3.org/2000/svg" width="48" height="48" viewBox="0 -960 960 960"><path d="M149.231-120q-12.424 0-20.827-9.192Q120-138.384 120-150.769v-193.616q0-22.25 16.567-38.817t38.817-16.567h529.232q22.25 0 38.817 16.567T760-344.385v193.616q0 12.385-9.192 21.577Q741.616-120 729.231-120h-580Zm53.923-310.539v-151.23q0-22.846 16.567-39.116 16.567-16.269 38.817-16.269h166.077v-62.461q-17.692-11.693-28.961-25.893-11.269-14.2-11.269-33.315 0-11.946 4.276-22.365 4.276-10.419 11.828-17.87l29.28-30.481q1-.23 10.627-4.23 1.604 0 9.835 4.23l29.28 30.481q7.552 7.451 12.328 17.87t4.776 22.365q0 19.115-11.769 33.315t-29.461 25.893v62.461h166.077q22.25 0 38.817 16.269 16.567 16.27 16.567 39.116v151.23H203.154ZM784.4-642.692q-6.631 0-10.9-4.423-4.269-4.424-4.269-10.962v-69.231H700q-6.577 0-10.981-4.481t-4.404-11.106q0-5.874 4.424-10.528 4.423-4.654 10.961-4.654h69.231v-69.231q0-5.788 4.485-10.586 4.485-4.799 11.115-4.799 6.631 0 10.9 4.799Q800-833.096 800-827.308v69.231h69.231q6.538 0 10.962 4.856 4.423 4.856 4.423 11.116 0 6.259-4.423 10.528-4.424 4.269-10.962 4.269H800v69.231q0 6.577-4.485 10.981t-11.115 4.404Z"/></svg>