<svg xmlns="http://www.w3.org/2000/svg" width="48" height="48" viewBox="0 96 960 960"><path d="M174.384 871.385q-5.846 0-10.115-4.412-4.269-4.411-4.269-11 0-6.819 4.288-11.088 4.289-4.269 11.096-4.269h610.232q5.846 0 10.115 4.411 4.269 4.412 4.269 11 0 6.819-4.288 11.089-4.289 4.269-11.096 4.269H174.384Zm41-136.846q-22.5 0-38.942-16.058T160 679.154V472.846q0-23.269 16.442-39.327t38.942-16.058h529.232q22.5 0 38.942 16.058T800 472.846v206.308q0 23.269-16.442 39.327t-38.942 16.058H215.384Zm-41-423.155q-5.846 0-10.115-4.411-4.269-4.412-4.269-11 0-6.819 4.288-11.089 4.289-4.269 11.096-4.269h610.232q5.846 0 10.115 4.412 4.269 4.411 4.269 11 0 6.819-4.288 11.088-4.289 4.269-11.096 4.269H174.384Z"/></svg>