<svg xmlns="http://www.w3.org/2000/svg" width="48" height="48" viewBox="0 -960 960 960"><path d="M467.154-607.385q-8.231 0-12.731-7t.5-14.23l105.692-185.231q3.231-6.231 10.731-9.231t12.962-1.769q71.308 21.153 130.923 73.384 59.615 52.231 92.308 122.539 4 8.769-.116 15.154-4.115 6.384-14.654 6.384H467.154Zm-131.693 76.693-104.923-185.77q-4-5.461-2.884-13.461 1.115-8 5.346-12.231 52.154-47.692 115.538-72.769Q411.923-840 478.538-840q7.924 0 16.731.5 8.808.5 19.039.731 9.769.23 13.654 7.5 3.884 7.269-1.885 16.038L360.692-530.692q-4.231 8-12.615 8-8.385 0-12.616-8Zm-185.23 144.769q-7.231 0-13.616-4.885-6.384-4.884-7.615-12.115-5-21.538-7-40.231-2-18.692-2-35.615 0-58.308 17.307-111.116 17.308-52.807 49.924-100.192 5-7.231 12.115-6.616 7.115.616 12.115 8.616l159.77 280.923q4.23 7.231-.27 14.231t-12.73 7h-208Zm228.846 252.077q-75.923-22.923-135.962-76.308-60.038-53.384-91.192-123.461-4.769-9.539-.385-15.923 4.385-6.385 14.923-6.385H498q8.231 0 12.346 7.5t-.115 14.731L402-144.846q-3.231 6.231-10.346 8.846-7.116 2.616-12.577 2.154ZM483.385-120q-8.385 0-17.27-.5-8.884-.5-17.807-.961-9.77-1.77-13.27-8.654-3.5-6.885 1.5-15.654l165.616-279.692q4.231-8 12.231-8t12.23 8l103.616 181.384q4 6.231 2.5 14.231t-4.962 11.462q-51.923 47.692-114.807 73.038Q550.077-120 483.385-120ZM748-272.923 588.308-554.385q-5-7.23-.885-14.73 4.116-7.5 12.346-7.5h210q7.231 0 13.616 5.384 6.384 5.385 7.615 12.616 4.231 21.23 6.616 41.077Q840-497.692 840-480q0 58.385-17.307 110.539-17.308 52.153-49.924 98.538-5.769 8-12.769 7.385-7-.616-12-9.385Z"/></svg>