<svg xmlns="http://www.w3.org/2000/svg" width="48" height="48" viewBox="0 -960 960 960"><path d="M468.88-133.63q-4.26-4.41-4.26-10.99v-104.61H195.38q-6.57 0-10.98-4.46-4.4-4.46-4.4-11.11 0-6.66 4.4-10.93 4.41-4.27 10.98-4.27h569.24q6.57 0 10.98 4.46 4.4 4.46 4.4 11.11 0 6.66-4.4 10.93-4.41 4.27-10.98 4.27H495.38v104.61q0 6.58-4.45 10.99-4.46 4.4-11.12 4.4-6.66 0-10.93-4.4ZM347.1-487.84q7.9-7.92 7.9-18.43 0-10.5-8.07-18.23-8.08-7.73-18.81-7.73-10.74 0-18.08 7.92-7.35 7.92-7.35 18.42 0 10.51 7.52 18.24 7.53 7.73 18.26 7.73t18.63-7.92Zm303.08 0q7.9-7.92 7.9-18.43 0-10.5-8.08-18.23-8.07-7.73-18.81-7.73-10.73 0-18.07 7.92-7.35 7.92-7.35 18.42 0 10.51 7.52 18.24 7.52 7.73 18.26 7.73 10.73 0 18.63-7.92ZM244.27-333.63q-4.27-4.41-4.27-10.99v-225.23q0-4.7.5-9.35.5-4.65 2.39-8.51l50.88-144.6q5.23-16.24 19.44-26.58t32.17-10.34h269.24q17.96 0 32.17 10.34T667-732.31l50 144.23q2 4.23 2.5 8.88t.5 9.35v225.23q0 6.58-4.46 10.99-4.46 4.4-11.11 4.4-6.66 0-10.93-4.4-4.27-4.41-4.27-10.99v-68H270.77v68q0 6.58-4.46 10.99-4.46 4.4-11.11 4.4-6.66 0-10.93-4.4Zm34.27-265.14h403.15l-42.54-123.54q-2.3-7.69-8.46-11.92-6.15-4.23-14.61-4.23H343.92q-8.46 0-14.61 4.23-6.16 4.23-8.46 11.92l-42.31 123.54ZM270.77-568v124.62V-568Zm0 124.62h418.46V-568H270.77v124.62Z"/></svg>