<svg xmlns="http://www.w3.org/2000/svg" width="48" height="48" viewBox="0 -960 960 960"><path d="M606.54-121.31q-8 8-18.62 12.12-10.61 4.11-21.07 4.11-10.47 0-20.81-4.11-10.35-4.12-18.35-12.12l-60.54-59.54q-8-8-11.73-18-3.73-10-3.96-20.23-.23-10.23 3.66-20.23 3.88-10 11.65-18.46L482-275.69 149.92-747.77l123.77-123.77 502.23 502q8.23 8.23 12.73 18.85 4.5 10.61 4.5 20.84t-4.5 20.2q-4.5 9.96-12.73 18.19L606.54-121.31Zm-56.08-22q7.69 6.93 17.69 6.93t16.93-6.93l169.61-169.61q6.93-6.93 6.93-16.93t-6.93-17.69L676-426.77 488.92-238.69q-7.69 7.69-7.69 18.07 0 10.39 7.69 17.31l61.54 60Z"/></svg>