<svg xmlns="http://www.w3.org/2000/svg" width="48" height="48" viewBox="0 -960 960 960"><path d="M140-560q0 59.308 21.885 118.385Q183.769-382.538 227.846-333q4.923 4.923 6.308 11.192 1.384 6.27-3.539 11.193t-11.961 4.038q-7.039-.884-11.731-5.808-49.462-53.923-72.808-118.307Q110.769-495.077 110.769-560q0-64.923 23.346-129.308 23.346-64.384 72.808-118.307 4.692-4.924 11.615-5.924t11.847 3.154q4.153 4.923 3.269 11.693-.885 6.769-5.808 11.692-44.077 49.538-65.961 108.615Q140-619.308 140-560Zm132 0q0 33.846 12.615 70.077 12.616 36.231 36.693 66.461 3.692 5.154 4.192 11.308t-3.654 10.308q-4.923 4.923-11.192 4.423-6.27-.5-10.193-4.654-29.461-34.692-43.577-76.461-14.115-41.77-14.115-81.462t14.115-81.462q14.116-41.769 43.577-76.461 3.923-4.154 9.693-4.654 5.769-.5 10.692 4.423 4.923 4.154 4.539 10.308-.385 6.154-4.077 11.846Q297-667 284.5-630.769 272-594.538 272-560Zm117.154 329.231-24 74.077q-1.462 4.923-5.385 7.731t-9.077 2.808q-7.846 0-12.615-6.116-4.77-6.115-2.077-13.961l109.461-329.539q-18.538-9.692-28.269-27.539-9.731-17.846-9.731-36.692 0-30.308 21.116-51.423 21.115-21.116 51.423-21.116 30.308 0 51.423 21.116 21.116 21.115 21.116 51.423 0 18.846-9.347 36.308-9.346 17.461-28.653 27.923L624-166.23q2.693 7.076-2.077 13.577-4.769 6.5-12.615 6.5-5.154 0-8.693-2.693-3.538-2.692-5-7.846l-24.538-74.077H389.154Zm10.538-30.769h160.616L480-506.461l-80.308 244.923ZM688-560q0-32.308-13-68.923t-36.308-67.615q-3.692-5.154-4.077-11.308-.384-6.154 4.539-10.308 4.923-4.923 10.692-4.423 5.77.5 9.693 4.654 29.23 34.692 43.846 76.846 14.615 42.154 13.846 81.846 0 39.693-14.231 81.077-14.231 41.385-43.461 76.077-3.923 4.154-9.693 4.654-5.769.5-10.692-4.423-4.923-4.154-4.539-10.308.385-6.154 4.077-11.846Q663-453 675.5-489.231 688-525.462 688-560Zm132 0q0-59.308-21.885-118.385Q776.231-737.462 732.154-787q-4.923-4.923-6.308-11.192-1.384-6.27 3.539-11.193t11.961-4.038q7.039.884 11.731 5.808 48.692 53.923 72.423 118.307Q849.231-624.923 849.231-560q0 65.154-22.731 129.423t-73.192 118.192q-4.923 4.924-11.846 5.808-6.923.885-11.077-4.038-4.923-4.923-4.039-11.193.885-6.269 5.808-11.192 44.077-49.538 65.961-108.615Q820-500.692 820-560Z"/></svg>