<svg xmlns="http://www.w3.org/2000/svg" width="48" height="48" viewBox="0 -960 960 960"><path d="M581.38-180q-6.8 0-11.09-4.3-4.29-4.29-4.29-11.11 0-6.82 4.29-11.09t11.09-4.27h191.16L616.85-319.92q-4.74-4.25-6.41-10.32t2.3-10.75q3.2-5.46 9.38-6.73 6.19-1.28 11.57 1.87l156.69 109.7L724.23-416q-2.69-5.62.62-11.23 3.3-5.62 9.92-8.31 5.85-2.69 11.85.5t8.69 9.04l64.15 178.31 49.77-182.85q1.46-5.84 6.46-9.15 5-3.31 11.62-1.85 5.84 1.46 9.65 6.46 3.81 5 2.35 10.85l-60.46 223.77q-2.91 9.43-10.07 14.95-7.16 5.51-16.63 5.51H581.38ZM300-629.23h280q6.81 0 11.1-4.3 4.28-4.29 4.28-11.11 0-6.82-4.28-11.09Q586.81-660 580-660H300q-6.81 0-11.1 4.3-4.28 4.29-4.28 11.11 0 6.82 4.28 11.09 4.29 4.27 11.1 4.27Zm0 164.61h160q6.81 0 11.1-4.29 4.28-4.3 4.28-11.12 0-6.82-4.28-11.09-4.29-4.26-11.1-4.26H300q-6.81 0-11.1 4.29-4.28 4.3-4.28 11.12 0 6.82 4.28 11.09 4.29 4.26 11.1 4.26ZM231.54-300l-67.08 67.08q-7.23 7.23-15.84 3.8-8.62-3.42-8.62-12.26v-523.24q0-22.5 16.44-38.94Q172.88-820 195.38-820h489.24q22.5 0 38.94 16.44Q740-787.12 740-764.62V-579q0 8.26-5.73 13.86t-13.96 5.37q-48.16-.15-93.08 16.65-44.92 16.81-79.2 51.5-34.34 33.93-50.65 78.85-16.3 44.92-17.15 93.08.23 8.23-5.67 13.96T461-300H231.54Z"/></svg>