<svg xmlns="http://www.w3.org/2000/svg" width="48" height="48" viewBox="0 -960 960 960"><path d="M581.385-180q-6.558 0-10.972-4.472Q566-188.943 566-195.587t4.413-10.913q4.414-4.269 10.972-4.269h191.153L616.846-319.923q-4.737-4.242-6.407-10.313-1.67-6.072 2.299-10.757 3.2-5.455 9.211-6.731 6.011-1.276 11.743 1.878l156.692 109.692L724.231-416q-2.693-5.615.615-11.231 3.308-5.615 9.923-8.308 5.846-2.692 11.846.5 6 3.193 8.693 9.039l64.154 178.307 49.769-182.845q1.461-5.847 6.461-9.154 5-3.308 11.616-1.847 5.846 1.462 9.654 6.462 3.807 5 2.346 10.846l-60.462 223.77q-2.787 9.702-10.009 15.082Q821.615-180 812.154-180H581.385ZM300-629.231h280q6.558 0 10.971-4.471 4.414-4.472 4.414-11.116 0-6.644-4.414-10.913Q586.558-660 580-660H300q-6.558 0-10.971 4.472-4.414 4.471-4.414 11.115t4.414 10.913q4.413 4.269 10.971 4.269Zm0 164.616h160q6.558 0 10.971-4.472 4.414-4.472 4.414-11.115 0-6.644-4.414-10.913-4.413-4.27-10.971-4.27H300q-6.558 0-10.971 4.472-4.414 4.472-4.414 11.115 0 6.644 4.414 10.913 4.413 4.27 10.971 4.27ZM231.539-300l-67.078 67.077q-7.23 7.231-15.846 4.058Q140-232.038 140-241.384v-523.231q0-22.25 16.567-38.818Q173.135-820 195.385-820h489.23q22.25 0 38.818 16.567Q740-786.865 740-764.615V-579q0 8.256-5.679 13.859t-14.013 5.372q-48.154-.154-93.077 16.654-44.923 16.807-79.537 51.591-33.631 34.014-50.124 78.846-16.493 44.832-17.339 92.986.231 8.334-5.44 14.013T461-300H231.539Z"/></svg>