<svg xmlns="http://www.w3.org/2000/svg" width="48" height="48" viewBox="0 96 960 960"><path d="M421 684.692 315.308 578.231q-4.193-4.385-11.135-4-6.942.384-11.558 5-5.384 5.384-5.384 11.846t5.384 11.615l108.923 108.924q9 9 19.847 9 10.846 0 19.077-9l226.153-225.385q4.385-4.192 3.885-11.135-.5-6.942-4.885-11.327-5.153-5.384-11.73-5.384-6.577 0-11.962 5.384L421 684.692ZM480.134 936Q405 936 339.263 908.276q-65.738-27.724-114.75-76.691-49.012-48.966-76.763-114.642Q120 651.268 120 576.134q0-74.903 27.724-140.641 27.724-65.737 76.691-114.749 48.966-49.012 114.642-76.878Q404.732 216 479.866 216q74.903 0 140.641 27.839 65.737 27.84 114.749 76.806 49.012 48.967 76.878 114.642Q840 500.963 840 575.866q0 75.134-27.839 140.871-27.84 65.738-76.806 114.75-48.967 49.012-114.642 76.763Q555.037 936 480.134 936ZM480 576Zm0 329.231q138.077 0 233.654-95.577T809.231 576q0-138.077-95.577-233.654T480 246.769q-138.077 0-233.654 95.577T150.769 576q0 138.077 95.577 233.654T480 905.231Z"/></svg>