<svg xmlns="http://www.w3.org/2000/svg" width="48" height="48" viewBox="0 -960 960 960"><path d="M536.154-609.231q-6.539 0-10.962-4.485t-4.423-11.115q0-6.631 4.423-10.9T536.154-640h289.231q6.538 0 10.961 4.485t4.423 11.115q0 6.631-4.423 10.9t-10.961 4.269H536.154Zm0 289.231q-6.539 0-10.962-4.485t-4.423-11.115q0-6.631 4.423-10.9t10.962-4.269h289.231q6.538 0 10.961 4.485t4.423 11.115q0 6.631-4.423 10.9T825.385-320H536.154ZM214.077-558.846l-83.846-83.846q-4.385-4.385-4-10.616.384-6.231 4.769-10.615 4.384-4.385 10.743-4.27 6.359.116 10.488 4.27l80.538 81.077 163.385-163.385q4.524-3.615 11.07-3.885 6.545-.269 11.321 4.116 3.994 4.804 3.994 11.21 0 6.405-4.385 10.79L253-558.846q-8.371 8.231-19.532 8.231-11.16 0-19.391-8.231Zm0 289.231-83.846-83.846q-4.385-4.385-4-10.616.384-6.231 4.769-10.615 4.384-4.385 10.743-4.27 6.359.116 10.488 4.27l80.538 81.077L396.154-457q4.524-3.615 11.07-3.885 6.545-.269 11.321 4.116 3.994 4.804 3.994 11.21 0 6.405-4.385 10.79L253-269.615q-8.371 8.231-19.532 8.231-11.16 0-19.391-8.231Z"/></svg>