<svg xmlns="http://www.w3.org/2000/svg" width="48" height="48" viewBox="0 -960 960 960"><path d="M708.49-377.15q-19.72 0-36.33 9.65-16.6 9.66-26.93 26.58-3.46 5.46-.86 11.33 2.61 5.87 8.81 7.8 5.97 2.71 11.7.87 5.74-1.85 9.2-6.91 5.77-8.94 14.63-13.71 8.87-4.77 19.67-4.77 17.11 0 27.06 8.57 9.94 8.57 9.94 24.94 0 12.8-7 20.92-7 8.11-15 16.11-7.23 6.23-13.57 13.62-6.35 7.38-10.58 14.06-4 5.24-5 11.54-1 6.3-1 14.05 0 6.58 4.34 10.93 4.35 4.34 10.93 4.34t11.42-4.38q4.85-4.37 4.85-11.01 0-9.53 6.11-17.11 6.12-7.58 14.08-15.21 14.5-12.6 23.62-25.48 9.11-12.89 9.11-32.4 0-28.36-19.19-46.35-19.19-17.98-50.01-17.98ZM409.69-680h135.77q0-28.15-19.67-47.73t-48.33-19.58q-28.24 0-48 19.58-19.77 19.58-19.77 47.73Zm257.39 197.77V-680h35.23q22.25 0 38.82 16.57 16.56 16.56 16.56 38.81v142.93q-22.07-5.69-44.92-5.08-22.85.62-45.69 4.54ZM251.85-286.15q-22.25 0-38.82-16.57t-16.57-38.82v-283.08q0-22.25 16.57-38.81Q229.6-680 251.85-680h35.23v393.85h-35.23Zm64.07 0V-680h64.93q0-40.23 28.1-67.81 28.11-27.58 68.43-27.58 40.31 0 68.62 27.71 28.31 27.71 28.31 67.68H639v205.85q-64.15 20-106.58 70.73-42.42 50.73-48.57 117.27H315.92ZM724.65-143.5q6.58-6.58 6.58-15.65 0-9.08-6.4-15.66-6.4-6.57-16.21-6.57-9.05 0-15.45 6.39-6.4 6.4-6.4 15.45 0 9.82 6.58 16.22 6.57 6.4 15.65 6.4t15.65-6.58Zm-127.27-2.4q-45.84-45.9-45.84-111.85 0-65.94 45.9-111.79 45.9-45.84 111.84-45.84 65.95 0 111.8 45.89 45.84 45.9 45.84 111.85 0 65.95-45.9 111.79Q775.13-100 709.18-100t-111.8-45.9Zm-448.92-38.71q-6.56 0-10.97-4.48-4.41-4.47-4.41-11.11 0-6.65 4.41-10.92 4.41-4.26 10.97-4.26h336.77q.46 8.3 2.89 16.12 2.42 7.82 4.8 14.65H148.46Z"/></svg>