<svg xmlns="http://www.w3.org/2000/svg" width="48" height="48" viewBox="0 -960 960 960"><path d="M218.198-150.769q-11.718 0-19.573-7.952-7.856-7.952-7.856-19.74v-74.616q0-22.25 16.567-38.817 16.567-16.568 38.817-16.568h52.001l28.615-196.153h-76q-6.558 0-10.971-4.472-4.414-4.472-4.414-11.115 0-6.644 4.414-10.913 4.413-4.27 10.971-4.27h458.462q6.558 0 10.971 4.472 4.414 4.472 4.414 11.115 0 6.644-4.414 10.913-4.413 4.27-10.971 4.27h-76l28.615 196.153h51.82q22.623 0 39.094 16.568 16.471 16.567 16.471 38.817v74.616q0 11.788-7.904 19.74-7.904 7.952-19.623 7.952H218.198Zm121.186-420q-8.577 0-16.634-6-8.058-6-10.058-16.231l-37.385-169.77q-2-6.302.616-11.381 2.615-5.08 6.957-9.171 5.111-4.091 10.731-5.269 5.619-1.179 12.619 2.283 15.308 6.077 31.914 9.231 16.605 3.154 32.548 3.154 27.154 0 50.769-6 23.616-6 44.462-19.539 3.204-2.461 6.892-3.692 3.689-1.231 7.377-1.231 3.689 0 7.185 1.231 3.496 1.231 6.7 3.692 20.846 13.539 44.466 19.539 23.621 6 49.996 6 16.307 0 32.346-2.654 16.038-2.654 32.994-10.244 6.891-2.718 13.006-2.333Q673-788.77 678-784.77q4.231 4 6.462 10.052 2.231 6.051 1 11.948l-38.154 170.539q-2.769 10.231-10.442 15.846-7.673 5.616-16.25 5.616H339.384Z"/></svg>