<svg xmlns="http://www.w3.org/2000/svg" width="48" height="48" viewBox="0 -960 960 960"><path d="M175.384-200q-23.057 0-39.221-16.163Q120-232.327 120-255.384v-449.232q0-23.057 16.163-39.221Q152.327-760 175.384-760h609.232q23.057 0 39.221 16.163Q840-727.673 840-704.616v449.232q0 23.057-16.163 39.221Q807.673-200 784.616-200H175.384Zm320.001-30.769h289.231q9.23 0 16.923-7.692 7.692-7.693 7.692-16.923v-449.232q0-9.23-7.692-16.923-7.693-7.692-16.923-7.692H495.385v498.462Zm254.307-140.308q6.5 0 10.75-4.773 4.25-4.772 4.25-11.238 0-6.465-4.25-10.611-4.25-4.147-10.75-4.147H555.923q-6.833 0-11.301 4.227t-4.468 10.692q0 6.466 4.468 11.158 4.468 4.692 11.301 4.692h193.769Zm0-104.384q6.5 0 10.75-4.491t4.25-11.359q0-6.535-4.25-10.728-4.25-4.192-10.75-4.192H555.923q-6.833 0-11.301 4.379-4.468 4.38-4.468 11.077 0 6.698 4.468 11.006t11.301 4.308h193.769Zm0-104.385q6.5 0 10.75-4.379 4.25-4.38 4.25-11.077 0-6.698-4.25-11.006-4.25-4.307-10.75-4.307H555.923q-6.833 0-11.301 4.49-4.468 4.491-4.468 11.359 0 6.535 4.468 10.728 4.468 4.192 11.301 4.192h193.769Z"/></svg>