<svg xmlns="http://www.w3.org/2000/svg" width="48" height="48" viewBox="0 -960 960 960"><path d="M100-130.769v-235.385q0-8.989 4.965-16.293 4.964-7.303 13.343-11.015l144.384-63.627v-115.065q0-8.979 4.455-16.201 4.454-7.223 11.622-10.876l185.846-94.154v-102H400q-6.539 0-10.962-4.485t-4.423-11.115q0-6.63 4.423-10.9 4.423-4.269 10.962-4.269h64.615v-64.615q0-6.539 4.485-10.962 4.486-4.423 11.116-4.423t10.899 4.423q4.27 4.423 4.27 10.962v64.615H560q6.539 0 10.962 4.485t4.423 11.116q0 6.63-4.423 10.899-4.423 4.269-10.962 4.269h-64.615v102l185.846 94.154q7.168 3.653 12.007 10.876 4.839 7.222 4.839 16.201v115.065l143.615 63.627q8.379 3.712 13.343 11.015Q860-375.143 860-366.154v235.385q0 12.269-9.25 21.519-9.25 9.25-21.519 9.25H572.308q-11.77 0-19.731-7.961-7.962-7.962-7.962-19.731v-115.385q0-27.404-18.555-46.009-18.555-18.606-45.885-18.606-27.329 0-46.06 18.606-18.73 18.605-18.73 46.009v115.385q0 11.769-7.962 19.731Q399.462-100 387.692-100H130.769q-12.269 0-21.519-9.25-9.25-9.25-9.25-21.519Zm30.769 0h253.846v-112.769q0-40.074 27.842-67.96 27.842-27.887 67.615-27.887 39.774 0 67.543 27.887 27.77 27.886 27.77 67.96v112.769h253.846v-235.539L667.308-438.27v-133.268L480-667.154l-186.538 95.616v133.268l-162.693 71.962v235.539Zm349.335-307.308q17.511 0 30.05-12.258 12.538-12.258 12.538-29.769t-12.778-30.05q-12.778-12.538-30.29-12.538-17.511 0-29.529 12.778t-12.018 30.29q0 17.511 12.258 29.529t29.769 12.018ZM480-399.846Z"/></svg>