<svg xmlns="http://www.w3.org/2000/svg" width="48" height="48" viewBox="0 -960 960 960"><path d="M438.769-140q-61.692 0-116.423-23.384-54.731-23.385-95.154-63.808-40.423-40.423-63.808-95.154Q140-377.077 140-438.769q0-110.239 69.538-193.966t178.846-104.804q12-1.846 20.346 6.039 8.347 7.884 9.775 19.971.11 11.144-7.659 19.76-7.769 8.615-18.769 10.461-86.923 18.231-142.769 86.347-55.847 68.115-55.847 156.192 0 102.795 71.257 174.051 71.256 71.257 174.051 71.257 90.077 0 158.539-56.116 68.461-56.115 86.692-143.5 1.846-10.769 9.731-18.269 7.884-7.5 18.822-6.685 11.293 1.493 18.678 9.724 7.385 8.23 5.538 19.769-20.307 108.769-104.077 178.654Q548.923-140 438.769-140ZM682.33-873.846q79.401 0 135.343 55.683 55.943 55.683 55.943 135.231 0 79.547-56.046 135.74Q761.525-491 681.977-491q-79.547 0-135.378-56.234-55.83-56.234-55.83-136.051 0-79.401 55.872-134.981t135.689-55.58Zm-.522 329.384q56.884 0 97.615-40.73 40.731-40.731 40.731-97.616 0-56.884-40.731-97.615-40.731-40.731-97.615-40.731-56.885 0-97.231 40.731t-40.346 97.615q0 56.885 40.346 97.616 40.346 40.73 97.231 40.73Zm.884-138.461ZM441.308-440.077Z"/></svg>