<svg xmlns="http://www.w3.org/2000/svg" width="48" height="48" viewBox="0 -960 960 960"><path d="m575.385-455.615-221.616-84.693H224.077q8.461-59.231 49.923-102.231 41.461-43 110.615-53.153v-128.923H340q-6.846 0-11.115-4.27-4.27-4.269-4.27-11.115t4.27-11.115q4.269-4.27 11.115-4.27h180q16.462 0 32.308 3.5t29.538 8.731q5.769 2.154 7.116 8.962 1.346 6.807-3.962 12.884-2.692 4.231-8.077 5.462-5.385 1.231-9.538-1-11.539-4-23.193-5.885-11.654-1.884-24.192-1.884H415.385v128.923q73.615 9.384 116.807 60.73Q575.385-583.615 575.385-520v64.385ZM81.538-181.692v-237.077q0-14.231 9.808-24.039 9.808-9.808 24.039-9.808h49.384q14.231 0 24.039 9.808 9.807 9.808 9.807 24.039v237.077q0 14.231-9.807 24.038-9.808 9.808-24.039 9.808h-49.384q-14.231 0-24.04-9.808-9.807-9.807-9.807-24.038Zm451.308 76.231-302.461-89.385v-257.77h91.461q5.769 0 10.116.616 4.346.615 9.346 2.615l226.538 83.539q23.847 8.692 39.462 30.038 15.615 21.346 15.615 40.5 0 5.693-2.692 8.385t-8.385 2.692h-33.769q-32.154 0-59.462-3.769-27.307-3.769-52.846-12.539l-64.384-20.538q-5.231-2-9.962.115-4.731 2.116-6.731 7.347-2.769 5.23.116 10.73 2.884 5.5 8.884 7.5l63.308 21q24.462 8.077 55.115 12.193 30.654 4.115 69.5 4.115H752q39.308 0 56.731 19.577 17.423 19.577 17.423 56.654l-262.385 77.154q-6.461 1.231-15.461 1.231t-15.462-2Zm179.77-511.616q-23.077 0-39.462-16.384-16.385-16.385-16.385-40.231 0-16.154 10.808-41.308t34.116-60.154q1.769-1.231 10.923-5.692.769 0 11.692 5.461 22.308 34.77 33.615 59.77 11.308 25 11.308 41.923 0 23.846-16.384 40.231-16.385 16.384-40.231 16.384Z"/></svg>