<svg xmlns="http://www.w3.org/2000/svg" width="48" height="48" viewBox="0 96 960 960"><path d="M479.784 308.308q-6.63 0-10.899-4.424-4.27-4.423-4.27-10.961v-100q0-6.539 4.485-10.962 4.486-4.423 11.116-4.423t10.899 4.423q4.27 4.423 4.27 10.962v100q0 6.538-4.485 10.961-4.486 4.424-11.116 4.424Zm189.062 78.846q-4.384-4.385-4-10.562.385-6.177 4.769-11.438l69.154-70.923q4.759-5.154 11.303-5.154 6.544 0 11.865 5.321 4.986 4.986 4.986 10.833 0 5.846-5.154 11l-70.923 70.923q-5.153 5.154-11 5.154-5.846 0-11-5.154Zm94.231 204.231q-6.538 0-10.961-4.485-4.424-4.486-4.424-11.116t4.424-10.899q4.423-4.27 10.961-4.27h100q6.539 0 10.962 4.485 4.423 4.486 4.423 11.116t-4.423 10.899q-4.423 4.27-10.962 4.27h-100ZM479.784 974.462q-6.63 0-10.899-4.423-4.27-4.423-4.27-10.962v-99.231q0-6.538 4.485-10.961 4.486-4.423 11.116-4.423t10.899 4.423q4.27 4.423 4.27 10.961v99.231q0 6.539-4.485 10.962-4.486 4.423-11.116 4.423ZM269.923 387.154l-71.692-69.923q-5.154-4.656-5.154-11.251 0-6.596 5.21-11.749 5.097-4.385 11.456-4.385 6.359 0 10.488 4.385l71.692 71.692q4.385 4.128 4.385 10.487t-4.231 10.744q-4.909 4.154-11.455 4.154-6.545 0-10.699-4.154Zm470.616 470.615-70.924-70.923q-4.384-5.261-4.769-11.438-.384-6.177 3.846-10.562 4.25-4.154 10.626-4.154 6.375 0 11.528 4.923L762 835.539q4.385 4.384 4.335 10.7-.051 6.316-4.465 11.634-4.048 5.05-10.625 5.05-6.578 0-10.706-5.154ZM96.923 591.385q-6.539 0-10.962-4.485-4.423-4.486-4.423-11.116t4.423-10.899q4.423-4.27 10.962-4.27h100q6.538 0 10.961 4.485 4.424 4.486 4.424 11.116t-4.424 10.899q-4.423 4.27-10.961 4.27h-100ZM199 857.713q-4.385-5.097-4.769-11.328-.385-6.231 4-10.616l70.153-70.154q5.173-4.923 11.01-4.923t10.991 4.979q5.153 5.431 5.153 11.611 0 6.18-5.153 11.334l-69.154 69.153q-5.291 5.154-11.697 5.154-6.406 0-10.534-5.21ZM480.181 776q-83.258 0-141.72-58.28Q280 659.439 280 576.181q0-83.258 58.28-141.72Q396.561 376 479.819 376q83.258 0 141.72 58.28Q680 492.561 680 575.819q0 83.258-58.28 141.72Q563.439 776 480.181 776Z"/></svg>