<svg xmlns="http://www.w3.org/2000/svg" width="48" height="48" viewBox="0 -960 960 960"><path d="M169-306.33Q95.31-380.35 95.31-486.1q0-105.75 73.86-179.82Q243.04-740 348.56-740q105.52 0 179.59 74.02 74.08 74.03 74.08 179.77 0 105.75-74.02 179.83-74.02 74.07-179.77 74.07-105.75 0-179.44-74.02Zm337.37-21.58q65.09-64.84 65.09-158.04 0-93.2-64.83-158.24-64.84-65.04-158.04-65.04-93.21 0-157.86 64.84-64.65 64.83-64.65 158.03 0 93.21 64.4 158.24 64.4 65.04 157.6 65.04 93.21 0 158.29-64.83ZM364.15-489v-126.69q0-6.54-4.48-10.96-4.49-4.43-11.12-4.43-6.63 0-10.9 4.43-4.27 4.42-4.27 10.96v130q0 4.46 2 9.46 2 5 7 9.23l88.39 89.15q5.14 4.93 10.99 4.54 5.86-.38 10.78-4.79 4.92-4.4 4.92-10.92t-4.92-11.6L364.15-489ZM348-486.54Zm412.77 267.08L683-298.23q-5.15-4.19-5.15-10.52 0-6.33 4.77-11.1 4.76-4.77 11-4.77 6.23 0 10.61 4.39l60.62 60.61v-485q0-6.53 4.48-10.96 4.49-4.42 11.12-4.42 6.63 0 10.9 4.42 4.27 4.43 4.27 10.96v485.24l60.84-60.85q5.16-4.39 11-4.39 5.85 0 11 4.77 5.16 4.77 5.16 10.62t-5.16 11l-77.77 78.77q-9.27 8.23-20.1 8.23-10.82 0-19.82-8.23Z"/></svg>