<svg xmlns="http://www.w3.org/2000/svg" width="48" height="48" viewBox="0 -960 960 960"><path d="M449.23-428 151.46-130.23q-4.38 4.38-10.23 4-5.85-.39-10.23-4.77-4.38-4.38-4.38-10.74t4.38-10.49l297-297H215.38q-6.8 0-11.09-4.3-4.29-4.29-4.29-11.11 0-6.82 4.29-11.09t11.09-4.27h236.93q12.04 0 19.86 7.83 7.83 7.82 7.83 19.86v236.93q0 6.8-4.3 11.09-4.29 4.29-11.11 4.29-6.82 0-11.09-4.29t-4.27-11.09V-428ZM532-510.77h212.62q6.8 0 11.09 4.3 4.29 4.29 4.29 11.11 0 6.82-4.29 11.09T744.62-480H507.69q-12.04 0-19.86-7.83-7.83-7.82-7.83-19.86v-236.93q0-6.8 4.3-11.09 4.29-4.29 11.11-4.29 6.82 0 11.09 4.29t4.27 11.09V-532l297.77-297.77q4.13-4.38 10.49-4.38 6.35 0 10.74 4.38 4.38 4.39 4.38 10.74 0 6.36-4.38 10.49L532-510.77Z"/></svg>