<svg xmlns="http://www.w3.org/2000/svg" width="48" height="48" viewBox="0 -960 960 960"><path d="M819.308-96.461 712.231-204.846H254.154q-73.385 0-123.77-50.154Q80-305.154 80-378.538 80-453.154 130.5-501 181-548.846 247-550.846q.461-17.077 8.807-44.193Q264.154-622.154 276-640L131.769-784.231q-5.154-5.154-5.154-11t5.154-11q5.154-5.154 11-5.154t11 5.154l687.769 687.769q4.924 4.924 4.924 11.001 0 6.076-4.924 11-5.153 5.153-11.23 4.769-6.077-.385-11-4.77Zm12.384-137.846L348.307-714.539q36-22.846 65.962-31.73 29.962-8.885 64.5-8.885 97.923 0 166.654 69T714.154-520v49.461h24.615q58.923-1.769 100.077 36.154Q880-396.462 880-338.538q0 25.769-10.731 53.884-10.73 28.116-37.577 50.347Z"/></svg>