<svg xmlns="http://www.w3.org/2000/svg" width="48" height="48" viewBox="0 -960 960 960"><path d="M849.23-181.77v-582.85q0-10.76-6.92-17.69-6.93-6.92-17.69-6.92H135.38q-10.76 0-17.69 6.92-6.92 6.93-6.92 17.69v280q0 6.85-4.27 11.12t-11.12 4.27q-6.84 0-11.11-4.27T80-484.62v-280q0-22.69 16.35-39.03Q112.69-820 135.38-820h689.24q22.69 0 39.03 16.35Q880-787.31 880-764.62v533.08q0 16-8.15 29.35-8.16 13.34-22.62 20.42ZM277.38-457.62q-32.76-32.76-32.76-83 0-50.23 32.76-82.61 32.77-32.39 82.62-32.39t82.62 32.39q32.76 32.38 32.76 82.61 0 50.24-32.76 83-32.77 32.77-82.62 32.77t-82.62-32.77ZM112.31-135.38q-13.46 0-22.89-9.43Q80-154.23 80-167.69v-25.54q0-26.46 15.15-47.31 15.16-20.84 39.77-32.54 59.31-26.15 115.04-39.61 55.73-13.46 110.04-13.46 54.31 0 109.92 13.57 55.62 13.58 114.93 39.5 24.84 11.7 40 32.54Q640-219.69 640-193.23v25.54q0 13.46-9.42 22.88-9.43 9.43-22.89 9.43H112.31Z"/></svg>