<svg xmlns="http://www.w3.org/2000/svg" width="48" height="48" viewBox="0 -960 960 960"><path d="M450.846-272q-102.538 0-176.692-68.364Q200-408.728 200-509.308v-259.923q0-12.519 9.125-21.644Q218.25-800 230.769-800h503.616q43.604 0 74.61 28.923Q840-742.154 840-699.692q0 48.461-30.077 84.077Q779.846-580 734.385-580H694v70.692q0 99.616-71.461 168.462Q551.077-272 450.846-272ZM230.769-610.769h432.462v-158.462H230.769v158.462Zm463.231 0h40.385q33 0 53.923-26.962 20.923-26.961 20.923-61.961 0-29-22.611-49.27-22.61-20.269-52.043-20.269H694v158.462ZM215.384-160q-6.827 0-11.105-4.283Q200-168.565 200-175.398t4.279-11.102q4.278-4.269 11.105-4.269h529.232q6.827 0 11.105 4.283Q760-182.204 760-175.371t-4.279 11.102Q751.443-160 744.616-160H215.384Z"/></svg>