<svg xmlns="http://www.w3.org/2000/svg" width="48" height="48" viewBox="0 96 960 960"><path d="M212.308 723.692h50.769q-5.538-19.538-18.385-33-12.846-13.461-32.384-17.769v50.769Zm147.923 0q6.154 0 10.654-4.692t3.269-10.846q-5.693-58.539-46.731-99.577-41.038-41.038-99.577-46.731-6.154-1.231-10.846 2.808-4.692 4.038-4.692 10.558 0 6.096 4.086 10.922 4.086 4.826 11.452 6.02 45.231 5.692 77.769 38.231 32.539 32.538 38.231 77.769 1.121 7.366 5.484 11.452 4.362 4.086 10.901 4.086Zm112.804 0q6.042 0 10.349-4.307 4.308-4.308 4.077-11.231-5.692-104.923-80.192-179.423t-179.423-80.192q-6.923-.231-11.231 3.961-4.307 4.192-4.307 10.962 0 6.538 4.307 10.846 4.308 4.308 11.231 4.538 92.615 5.693 158.115 71.193 65.5 65.5 71.193 158.115.23 6.923 4.651 11.231 4.42 4.307 11.23 4.307ZM392.307 896q-12.038 0-19.865-7.827-7.827-7.827-7.827-19.865V816H175.384q-22.5 0-38.942-16.442T120 760.616V311.384q0-22.5 16.442-38.942T175.384 256h609.232q22.5 0 38.942 16.442T840 311.384v449.232q0 22.5-16.442 38.942T784.616 816H595.385v52.308q0 12.038-7.827 19.865Q579.731 896 567.693 896H392.307Z"/></svg>