<svg xmlns="http://www.w3.org/2000/svg" width="48" height="48" viewBox="0 -960 960 960"><path d="M713.077-177.461 506.231-384.077l30.077-30.077 206.846 206.846Q749-200.692 749-192.385q0 8.308-5.846 14.924-6.615 5.846-15.423 5.846t-14.654-5.846Zm-538.692 0q-5.847-6.616-5.847-15.424 0-8.807 5.847-14.653l254.076-254.077-116.999-117.77-1.231 1.231q-7.462 6.693-19.077 6.308-11.616-.385-19.077-7.846L256.769-595v73.462l-4.923 4.923q-6.231 6.23-14.846 6.23t-14.846-6.23L146.769-592q-7-6.231-7-14.846 0-8.616 7-14.846l4.923-5.693h73.693l-17.001-17q-9-8.23-9-19.846 0-11.615 9-19.846l60.77-61.539q13.154-12.384 28.154-17.615 15-5.231 33.615-5.231 17.847 0 33.231 6.192 15.385 6.193 27.769 19.347l-73.154 72.384 23.924 23.923q7.461 7.462 7.461 19.077 0 11.616-6.692 19.077l-1.462.693 116.308 116.307 125.077-125.077q-10.308-14.538-15.193-30.769-4.884-16.231-4.884-36 0-46.077 33.115-79.192 33.116-33.116 79.193-33.116 10.384 0 18.577 1.462 8.192 1.461 14.423 5.692l-76.539 75.769L704-640.769l76.539-75.77q3.461 6.462 5.423 15.27 1.961 8.807 1.961 19.192 0 46.077-33.115 79.192-33.115 33.116-79.192 33.116-19.539 0-33.693-3.654-14.154-3.654-27.461-14.039L204.231-177.231q-6.616 6.616-14.923 6.116-8.308-.5-14.923-6.346Z"/></svg>