<svg xmlns="http://www.w3.org/2000/svg" width="48" height="48" viewBox="0 96 960 960"><path d="M353.846 818.846q-22.885 0-39.904-16.086-17.019-16.087-17.019-39.298V295.769q0-23.212 17.019-39.298 17.019-16.087 39.904-16.087H700q22.25 0 38.818 16.183 16.567 16.183 16.567 39.202v467.693q0 22.25-16.567 38.817Q722.25 818.846 700 818.846H353.846ZM250.769 920.385q-22.25 0-38.818-16.567Q195.384 887.25 195.384 865V405.077q0-6.558 4.472-10.972 4.472-4.413 11.115-4.413 6.644 0 10.913 4.413 4.27 4.414 4.27 10.972V865q0 9.231 7.692 16.923 7.692 7.693 16.923 7.693h335.539q6.558 0 10.971 4.471 4.414 4.472 4.414 11.116 0 6.643-4.414 10.913-4.413 4.269-10.971 4.269H250.769Z"/></svg>