<svg xmlns="http://www.w3.org/2000/svg" width="48" height="48" viewBox="0 96 960 960"><path d="M215.384 889.693q-22.25 0-38.817-16.568Q160 856.558 160 834.308V313.077q0-22.25 15.211-38.818 15.212-16.567 32.173-16.567h201.231q3.923-23.462 21.039-39.423 17.115-15.962 42.346-15.962 23.692 0 41.192 15.962 17.5 15.961 21.424 39.423h202q22.25 0 38.817 16.567Q792 290.827 792 313.077v224.461h-30.769V313.077q0-10-7.308-17.308t-17.307-7.308H629.077v38.462q0 23.019-16.567 39.202-16.568 16.183-38.818 16.183H378.307q-23.019 0-39.201-16.183-16.183-16.183-16.183-39.202v-38.462H215.384q-10.769 0-17.692 7.308t-6.923 17.308v521.231q0 10 6.923 17.307 6.923 7.308 17.692 7.308h226.154v30.77H215.384Zm608.539 52.23L728 846q-20.769 15.231-41.269 21.077-20.5 5.846-42.116 5.846-55.192 0-93.75-38.644-38.557-38.645-38.557-93.962t38.644-93.663q38.645-38.346 93.962-38.346t93.663 38.557q38.346 38.558 38.346 93.75 0 24.508-7.384 47.024-7.385 22.515-20.308 36.361l96.692 95.923q4.385 4.385 4.77 10.616.384 6.231-4.77 11.384-4.128 4.385-10.487 4.385t-11.513-4.385Zm-179.308-99.769q43.154 0 72.347-29.192 29.192-29.193 29.192-72.347 0-43.153-29.192-72.346-29.193-29.192-72.347-29.192-43.153 0-72.346 29.192-29.192 29.193-29.192 72.346 0 43.154 29.192 72.347 29.193 29.192 72.346 29.192ZM480.135 296q13.788 0 22.98-9.327 9.193-9.328 9.193-23.116t-9.328-22.98q-9.327-9.193-23.115-9.193-13.788 0-22.98 9.328-9.193 9.327-9.193 23.115 0 13.788 9.328 22.981Q466.347 296 480.135 296Z"/></svg>