<svg xmlns="http://www.w3.org/2000/svg" width="48" height="48" viewBox="0 -960 960 960"><path d="M480.4-120q-75.176 0-140.294-28.339-65.119-28.34-114.247-77.422-49.127-49.082-77.493-114.213Q120-405.106 120-480.366q0-74.491 28.339-140.069 28.34-65.578 77.422-114.206 49.082-48.627 114.213-76.993Q405.106-840 480.366-840q74.491 0 140.069 28.339 65.578 28.34 114.206 76.922 48.627 48.582 76.993 114.257Q840-554.806 840-480.4q0 75.176-28.339 140.294-28.34 65.119-76.922 114.062-48.582 48.944-114.257 77.494Q554.806-120 480.4-120Zm.1-30.769q136.885 0 232.808-96.039 95.923-96.038 95.923-233.692 0-136.885-95.736-232.808Q617.76-809.231 480-809.231q-137.154 0-233.192 95.736Q150.769-617.76 150.769-480q0 137.154 96.039 233.192 96.038 96.039 233.692 96.039ZM480-480Zm-81.923 181.462h124.615q22.462 0 38.923-16.077 16.462-16.077 16.462-39.308v-87.308q0-23.231-16.462-39.308-16.461-16.076-38.923-16.076h-109.23v-134.077h149.23q5.789 0 10.587-4.472t4.798-11.115q0-6.644-4.798-10.913-4.798-4.27-10.587-4.27H410.385q-11.789 0-19.741 7.856t-7.952 20.217v139.47q0 12.361 7.952 20.217 7.952 7.856 19.741 7.856h112.307q10 0 17.308 7.308 7.308 7.307 7.308 17.307v87.308q0 10-7.308 17.308-7.308 7.307-17.308 7.307H398.077q-6.558 0-10.971 4.472-4.414 4.472-4.414 11.115 0 6.644 4.414 10.913 4.413 4.27 10.971 4.27Z"/></svg>