<svg xmlns="http://www.w3.org/2000/svg" width="48" height="48" viewBox="0 96 960 960"><path d="M600.216 716q6.63 0 10.899-4.423 4.27-4.423 4.27-10.962v-69.23h69.23q6.539 0 10.962-4.485Q700 622.414 700 615.784t-4.423-10.899q-4.423-4.27-10.962-4.27h-69.23v-69.23q0-6.539-4.485-10.962Q606.414 516 599.784 516t-10.899 4.423q-4.27 4.423-4.27 10.962v69.23h-69.23q-6.539 0-10.962 4.485Q500 609.586 500 616.216t4.423 10.899q4.423 4.27 10.962 4.27h69.23v69.23q0 6.539 4.485 10.962Q593.586 716 600.216 716ZM175.615 856q-23.058 0-39.221-16.192-16.163-16.192-16.163-39.091V382.052q0-22.899 16.163-39.091t39.221-16.192h241.923q11.059 0 21.08 3.948 10.022 3.948 18.843 12.513l22.77 23.539h304.615q23 0 39.193 16.192 16.192 16.193 16.192 39.193v378.462q0 23-16.192 39.192Q807.846 856 784.846 856H175.615Z"/></svg>