<svg xmlns="http://www.w3.org/2000/svg" width="48" height="48" viewBox="0 -960 960 960"><path d="M380.769-120q-58.077 0-99.423-40.192Q240-200.385 240-256.923q0-27.385 12.577-51.654 12.577-24.269 36.577-45.192 21.923-19.616 36.692-38.077 14.769-18.462 30.923-35.077-44.846-68.769-68.116-142.731-23.269-73.962-23.269-146.5 0-44.154 11-65.539 11-21.384 32.847-21.384 26.615 0 62.769 35.23 36.154 35.231 66.308 100.154 16.923 36.923 27.346 77.654 10.423 40.731 14.346 82.115 3.923-41.384 14.731-82.115 10.807-40.731 26.961-77.654 29.385-64.923 65.923-100.154 36.539-35.23 63.154-35.23 21.847 0 32.847 21.384 11 21.385 11 65.539 0 72.538-23.269 146.5-23.27 73.962-68.116 142.731 16.154 16.615 30.923 35.077 14.769 18.461 36.692 38.077 24 20.923 36.577 45.192Q720-284.308 720-256.923q0 56.538-41.346 96.731Q637.308-120 579.231-120q-37.308 0-68.269-12.307L480-144.615l-30.962 12.308Q418.077-120 380.769-120Zm3.077-30.769q18.539 0 41.539-5.885 23-5.884 45.153-16.884-9.461-5-17.307-15.077-7.846-10.077-7.846-17.539 0-8 9.961-12.846 9.962-4.846 24.654-4.846 13.923 0 23.5 5.231 9.577 5.23 9.577 12.461 0 7.462-7.846 17.539-7.846 10.077-17.308 15.077 22.154 11 45.154 16.884 23 5.885 41.538 5.885 46.924 0 80-31.154 33.077-31.154 33.077-75 0-22.769-12-42.615-12-19.847-36.538-40.616-11-9.231-19.885-19-8.884-9.769-14.5-17.615-36.615-48.154-59.615-60.308-23-12.154-65.923-12.154t-65.923 12.154q-23 12.154-59.616 60.308-5.615 7.846-14.5 17.615-8.884 9.769-19.884 19-24.539 20.769-36.539 40.616-12 19.846-12 42.615 0 43.846 33.077 75 33.077 31.154 80 31.154ZM420-290q-8 0-14-9t-6-21q0-12 6-21t14-9q8 0 14 9t6 21q0 12-6 21t-14 9Zm120 0q-8 0-14-9t-6-21q0-12 6-21t14-9q8 0 14 9t6 21q0 12-6 21t-14 9ZM378.538-450.077q17.154-15.385 34.577-22.192 17.423-6.808 40.5-8.27-3.461-44.077-13.923-89.115-10.461-45.039-29.461-85.346-21.462-47.77-49.154-79.27-27.693-31.5-55.308-40.192-4.923 11.923-7.269 25.846t-2.346 30.154q0 65.846 21.73 135.269 21.731 69.424 60.654 133.116Zm202.924 0q38.923-63.692 60.654-133.116 21.73-69.423 21.73-135.269 0-16.231-2.346-30.154-2.346-13.923-7.269-25.846-27.615 8.692-55.308 40.192-27.692 31.5-49.154 79.27-19 40.307-29.461 85.346-10.462 45.038-13.923 89.115 23.846 1.462 40.884 8.27 17.039 6.807 34.193 22.192Z"/></svg>