<svg xmlns="http://www.w3.org/2000/svg" width="48" height="48" viewBox="0 -960 960 960"><path d="M479.784-160q-6.63 0-10.899-4.423-4.27-4.423-4.27-10.961v-241.231h-189.23q-6.539 0-10.962-4.485Q260-425.586 260-432.216t4.423-10.899q4.423-4.27 10.962-4.27h184.692L251.308-776.308q-5.385-8.077-.807-15.885Q255.078-800 265.212-800q3.314 0 6.901 1.862 3.587 1.862 5.579 5.215L480-473.308l202.308-319.615q2.023-3.353 5.664-5.215 3.642-1.862 7.023-1.862 9.544 0 14.313 7.807 4.769 7.808-.616 15.885L499.923-447.385h184.692q6.539 0 10.962 4.486Q700-438.414 700-431.784t-4.423 10.9q-4.423 4.269-10.962 4.269h-189.23v241.231q0 6.538-4.485 10.961Q486.414-160 479.784-160Z"/></svg>