<svg xmlns="http://www.w3.org/2000/svg" width="48" height="48" viewBox="0 -960 960 960"><path d="M319.784-160q-6.63 0-10.899-4.423-4.27-4.423-4.27-10.961v-101.539h-69.23q-6.539 0-10.962-4.485T220-292.524q0-6.63 4.423-10.899 4.423-4.269 10.962-4.269h69.23v-123.077h-69.23q-6.539 0-10.962-4.485Q220-439.74 220-446.37t4.423-10.899q4.423-4.27 10.962-4.27h69.23v-310.769q0-11.769 7.962-19.731Q320.538-800 332.308-800h223.077q81.608 0 133.112 51.552Q740-696.896 740-615.217q0 81.678-51.503 133.063-51.504 51.385-133.112 51.385h-220v123.077h149.23q6.539 0 10.962 4.485T500-292.092q0 6.631-4.423 10.9t-10.962 4.269h-149.23v101.539q0 6.538-4.485 10.961Q326.414-160 319.784-160Zm15.601-301.539h220.297q68.087 0 110.818-42.736 42.731-42.736 42.731-111.11 0-68.384-42.731-111.115-42.731-42.731-110.818-42.731H335.385v307.692Z"/></svg>