<svg xmlns="http://www.w3.org/2000/svg" width="48" height="48" viewBox="0 96 960 960"><path d="M230.769 865.231h181.846q-8-79.385-52.461-158.385-44.462-79-129.385-100.769v259.154Zm0-553.847v234.77q84.923-21.77 129.269-100.885 44.346-79.115 52.346-158.5h-157q-10.769 0-17.692 6.923t-6.923 17.692ZM244.308 576Q336 602.692 386.192 688.885q50.193 86.192 58.193 176.346h71.23q8-90.154 58.077-176.346Q623.769 602.692 715.462 576 623 549.308 572.538 463.115q-50.461-86.192-57.692-176.346h-70.692q-8 90.154-58.077 176.346Q336 549.308 244.308 576Zm484.923-29.846v-234.77q0-10.769-6.923-17.692t-17.692-6.923h-158q8 79.385 52.846 158.5t129.769 100.885Zm0 319.077V605.846q-84.923 21.77-129.769 100.885-44.846 79.115-52.077 158.5h181.846ZM135.384 896q-6.577 0-10.98-4.458Q120 887.084 120 880.427q0-6.658 4.404-10.927 4.403-4.269 10.98-4.269H200V311.384q0-22.442 16.471-38.913Q232.942 256 255.384 256h449.232q22.442 0 38.913 16.471Q760 288.942 760 311.384v553.847h64.616q6.577 0 10.98 4.458Q840 874.147 840 880.804q0 6.658-4.404 10.927-4.403 4.269-10.98 4.269H135.384Zm95.385-584.616v-24.615 259.385-234.77Zm498.462 553.847V605.846v259.385Zm-498.462 0V606.077v259.154Zm498.462-319.077V286.769v259.385Z"/></svg>