<svg xmlns="http://www.w3.org/2000/svg" width="48" height="48" viewBox="0 -960 960 960"><path d="M200-190.769v-553.847q0-22.25 16.567-38.817T255.384-800h449.232q22.25 0 38.817 16.567T760-744.616v553.847h64.616q6.538 0 10.961 4.485T840-175.169q0 6.631-4.423 10.9T824.616-160H135.384q-6.538 0-10.961-4.485T120-175.6q0-6.631 4.423-10.9t10.961-4.269H200Zm30.769 0h161.923v-578.462H255.384q-10.769 0-17.692 6.923t-6.923 17.692v553.847Zm192.693 0h113.846v-578.462H423.462v578.462Zm144.615 0h161.154v-553.847q0-10.769-6.923-17.692t-17.692-6.923H568.077v578.462Zm-337.308 0v-578.462 578.462Zm498.462 0v-578.462 578.462Z"/></svg>