<svg xmlns="http://www.w3.org/2000/svg" width="48" height="48" viewBox="0 96 960 960"><path d="M370.385 896q-11.231 0-21.462-4.115-10.231-4.116-18.462-13.116l-153.23-153.23q-9-8.231-13.116-18.462Q160 696.846 160 685.615v-219.23q0-11.231 4.115-21.462 4.116-10.231 13.116-19.231l153.23-153.231q8.231-8.23 18.462-12.346Q359.154 256 370.385 256h219.23q11.231 0 21.462 4.115 10.231 4.116 19.231 12.346l153.231 153.231q8.23 9 12.346 19.231Q800 455.154 800 466.385v219.23q0 11.231-4.115 21.462-4.116 10.231-12.346 18.462l-153.231 153.23q-9 9-19.231 13.116Q600.846 896 589.615 896h-219.23ZM480 598l108.385 108.385q4.153 3.384 10 3.384 5.846 0 11-4.384 4.384-5.154 4.384-11 0-5.847-4.384-11L502 576l108.385-108.385q3.384-4.153 3.384-10 0-5.846-4.384-11-5.154-4.384-11-4.384-5.847 0-11 4.384L480 554 371.615 445.615q-4.153-3.384-10-3.384-5.846 0-11 4.384-4.384 5.154-4.384 11 0 5.847 4.384 11L458 576 349.615 684.385q-3.384 4.153-3.384 10 0 5.846 4.384 11 5.154 4.384 11 4.384 5.847 0 11-4.384L480 598Z"/></svg>