<svg xmlns="http://www.w3.org/2000/svg" width="48" height="48" viewBox="0 96 960 960"><path d="M215.384 896q-22.692 0-39.038-16.346Q160 863.308 160 840.616V311.384q0-22.692 16.346-39.038Q192.692 256 215.384 256h529.232q22.692 0 39.038 16.346Q800 288.692 800 311.384v529.232q0 22.692-16.346 39.038Q767.308 896 744.616 896H215.384Zm406.77-30.769h43.308l103.769-103.769v-16.231h-27.077l-120 120Zm-338.308-245q4.385 4.385 10.615 4.269 6.231-.115 10.616-4.269l120-119 65.154 65.154q4.231 4.231 8.846 6.115 4.615 1.885 10.615 1.885 5.231 0 9.846-1.885 4.616-1.884 8.847-6.115l147.769-148q4.154-4.385 4.269-11 .116-6.616-4.269-11Q671.769 392 665.539 392q-6.231 0-10.616 4.385l-145.231 146-65.923-65.154q-4.231-4.231-8.846-6.116-4.615-1.884-9.846-1.884-6 0-10.615 1.884-4.616 1.885-8.847 6.116l-121.769 121q-4.385 4.384-4.385 11 0 6.615 4.385 11Zm-78.462 245h7.847l120-120h-43.308l-99.154 99.154q2.308 7.153 5 11.577 2.692 4.423 9.615 9.269Zm309.078 0 120-120h-43.308l-120 120h43.308Zm-151.77 0 120-120h-43.307l-120 120h43.307Z"/></svg>