<svg xmlns="http://www.w3.org/2000/svg" width="48" height="48" viewBox="0 -960 960 960"><path d="M650.92-613.85q4.46-4.61 4.46-10.77v-112.3q0-6.16-4.46-10.77-4.46-4.62-10.92-4.62t-10.92 4.62q-4.46 4.61-4.46 10.77v112.3q0 6.16 4.46 10.77 4.46 4.62 10.92 4.62t10.92-4.62Zm3.08 83.23q6-6 6-14t-6-14q-6-6-14-6t-14 6q-6 6-6 14t6 14q6 6 14 6t14-6ZM175.38-180q-6.53 0-10.96-4.49-4.42-4.48-4.42-11.11 0-6.63 4.42-10.9 4.43-4.27 10.96-4.27h409.24q6.53 0 10.96 4.49 4.42 4.48 4.42 11.11 0 6.63-4.42 10.9-4.43 4.27-10.96 4.27H175.38Zm340.5-335.93q-51.26-51.31-51.26-124.11 0-72.81 51.31-124.08 51.31-51.26 124.11-51.26 72.81 0 124.08 51.31 51.26 51.31 51.26 124.11 0 72.81-51.31 124.08-51.31 51.26-124.11 51.26-72.81 0-124.08-51.31Zm-340.5 6.7q-6.53 0-10.96-4.49-4.42-4.48-4.42-11.11 0-6.63 4.42-10.9 4.43-4.27 10.96-4.27h194.54q6.54 0 10.96 4.31 4.43 4.31 4.43 10.81 0 6.11-4.8 10.88-4.8 4.77-10.59 4.77H175.38Zm0 164.61q-6.53 0-10.96-4.48-4.42-4.49-4.42-11.12 0-6.63 4.42-10.9 4.43-4.26 10.96-4.26h367.93q6.54 0 10.96 4.3 4.42 4.31 4.42 10.81 0 6.12-3.96 10.89-3.96 4.76-11.42 4.76H175.38Z"/></svg>