<svg xmlns="http://www.w3.org/2000/svg" width="48" height="48" viewBox="0 96 960 960"><path d="M778.769 900.692q11.462 0 18.808-7.846t7.346-17.923q0-11.077-7.846-18.808-7.846-7.73-18.308-7.73-10.461 0-18.307 7.74-7.847 7.74-7.847 18.414 0 10.461 7.847 18.307 7.846 7.846 18.307 7.846ZM478.308 936q-101.231 0-185.154-51.077T164.308 750.462L324 590.769l112.023 95.704q3.977 3.066 9.238 4.681 5.262 1.615 10.106 1.385 4.864 0 9.479-2 4.616-2 8.846-6l190.923-190.154V576q0 6.789 4.31 11.087t11.115 4.298q6.806 0 11.075-4.298 4.27-4.298 4.27-11.087V468.308q0-12.02-7.837-19.856-7.836-7.837-19.856-7.837H560q-6.789 0-11.087 4.31t-4.298 11.115q0 6.806 4.298 11.075 4.298 4.27 11.087 4.27h82.384L453.769 660.231l-113.517-94.979q-3.637-3.021-8.316-4.906-4.68-1.885-10.936-1.115-5 0-9.352 2.139-4.352 2.14-8.34 5.322L149.923 720.077q-15.462-33.154-22.692-69.692Q120 613.846 120 577.947q0-74.492 28.339-140.509 28.34-66.017 76.922-115.15 48.582-49.133 114.257-77.711Q405.194 216 479.866 216q74.673 0 140.41 28.62 65.737 28.621 114.365 77.828 48.627 49.207 76.993 114.876Q840 502.992 840 577.692v292.174q0 27.942-19.255 47.038Q801.491 936 774.154 936H478.308Z"/></svg>