<svg xmlns="http://www.w3.org/2000/svg" width="48" height="48" viewBox="0 96 960 960"><path d="M215.384 896q-22.442 0-38.913-16.471Q160 863.058 160 840.616V311.384q0-22.442 16.471-38.913Q192.942 256 215.384 256h529.232q22.442 0 38.913 16.471Q800 288.942 800 311.384v529.232q0 22.442-16.471 38.913Q767.058 896 744.616 896H215.384Zm450.078-30.769h79.154q10.769 0 17.692-6.923t6.923-17.692v-79.154L665.462 865.231Zm-452.231 0h106.154l120-120h43.307l-120 120h108.462l120-120h43.308l-120 120h107.692l120-120h27.077V311.384q0-10.769-6.923-17.692t-17.692-6.923H215.384q-10.769 0-17.692 6.923t-6.923 17.692v533.001l99.154-99.154h43.308l-120 120Zm70.582-244.666q-4.352-4.719-4.352-11.334 0-6.616 4.385-11l121.769-121q4.231-4.231 9.05-6.116 4.818-1.884 10.545-1.884 5.447 0 9.888 1.884 4.44 1.885 8.671 6.116l65.923 65.154 145.231-146q4.385-4.385 11-4.385 6.616 0 10.264 4.05 4.352 4.719 4.352 11.335 0 6.615-4.385 11l-147.769 148q-4.231 4.231-8.903 6.115-4.672 1.885-10.231 1.885t-10.174-1.885q-4.615-1.884-8.846-6.115l-65.154-65.154-120 119q-4.385 4.154-11.1 4.269-6.716.116-10.164-3.935Zm-93.044 220.051V286.769v578.462-24.615Z"/></svg>