<svg xmlns="http://www.w3.org/2000/svg" width="48" height="48" viewBox="0 96 960 960"><path d="M215.384 856q-23.057 0-39.221-16.163Q160 823.673 160 800.616V271.384q0-23.057 16.163-39.221Q192.327 216 215.384 216h529.232q23.057 0 39.221 16.163Q800 248.327 800 271.384v274.308q-6.647-.231-13.204-.346-6.557-.115-12.719-.115H549.231q-41.161 0-77.965 14.654-36.804 14.653-67.266 40.73h-99.385v110.77h26q-4.538 15.846-6.807 31.807-2.27 15.962-2.27 32.808 0 20.422 4.654 40.673 4.654 20.25 11.962 39.327h-122.77Zm89.231-384.615h110.77v-110.77h-110.77v110.77Zm240 0h110.77v-110.77h-110.77v110.77ZM560 896q-49.5 0-84.75-35.25T440 776q0-49.5 35.25-84.75T560 656h52.308q6.538 0 10.961 4.485t4.423 11.115q0 6.631-4.423 10.9t-10.961 4.269H560q-37.558 0-63.394 25.801-25.837 25.8-25.837 63.307 0 37.508 25.837 63.431 25.836 25.923 63.435 25.923h57.113q6.538 0 10.961 4.485 4.424 4.485 4.424 11.115 0 6.631-4.424 10.9Q623.692 896 617.154 896H560Zm15.385-104.615q-6.539 0-10.962-4.485Q560 782.414 560 775.784t4.423-10.899q4.423-4.27 10.962-4.27h209.23q6.539 0 10.962 4.485Q800 769.586 800 776.216t-4.423 10.899q-4.423 4.27-10.962 4.27h-209.23ZM743.077 896q-6.539 0-10.962-4.485t-4.423-11.115q0-6.631 4.423-10.9t10.962-4.269h57.334q37.147 0 62.983-25.801 25.837-25.8 25.837-63.307 0-37.508-25.837-63.431-25.836-25.923-63.394-25.923h-52.308q-6.538 0-10.961-4.485t-4.423-11.115q0-6.631 4.423-10.9T747.692 656H800q49.5 0 84.75 34.946T920 776.245q0 49.601-35.25 84.678T800 896h-56.923Z"/></svg>