<svg xmlns="http://www.w3.org/2000/svg" width="48" height="48" viewBox="0 96 960 960"><path d="M313.692 654.308q-13.154 0-21.961-9.193-8.808-9.192-8.808-21.577 0-13.153 8.808-21.961 8.807-8.808 21.577-8.808 12.769 0 21.961 8.808 9.193 8.808 9.193 21.577 0 12.769-9.193 21.961-9.192 9.193-21.577 9.193Zm167.77 0q-12.385 0-21.577-9.193-9.193-9.192-9.193-21.577 0-13.153 9.193-21.961 9.192-8.808 21.577-8.808 12.384 0 21.577 8.808 9.192 8.808 9.192 21.961 0 12.385-9.192 21.577-9.193 9.193-21.577 9.193Zm164.615 0q-12.385 0-21.577-9.193-9.192-9.192-9.192-21.577 0-13.153 9.192-21.961 9.192-8.808 21.577-8.808 12.385 0 21.577 8.808 9.192 8.808 9.192 21.961 0 12.385-9.192 21.577-9.192 9.193-21.577 9.193ZM215.384 936q-23.057 0-39.221-16.163Q160 903.673 160 880.616V342.154q0-23.058 16.163-39.222 16.164-16.163 39.221-16.163h82.693v-62.674q0-7.018 5.269-12.172 5.269-5.154 12.065-5.154 7.989 0 13.212 5.442 5.223 5.443 5.223 12.712v61.846h295.385v-64.756q0-6.475 4.837-10.859 4.836-4.385 11.728-4.385 7.22 0 12.058 5.058 4.839 5.057 4.839 11.558v63.384h81.923q23.057 0 39.221 16.163Q800 319.096 800 342.154v538.462q0 23.057-16.163 39.221Q767.673 936 744.616 936H215.384Zm0-30.769h529.232q10.769 0 17.692-6.923t6.923-17.692V516H190.769v364.616q0 10.769 6.923 17.692t17.692 6.923Z"/></svg>