<svg xmlns="http://www.w3.org/2000/svg" width="48" height="48" viewBox="0 96 960 960"><path d="M295.615 896q-23.058 0-39.221-16.163-16.163-16.164-16.163-39.221V322.154h-24.847q-6.538 0-10.961-4.485Q200 313.183 200 306.553t4.423-10.899q4.423-4.27 10.961-4.27h138.77q0-11.461 8.25-18.807 8.25-7.347 19.442-7.347h196.308q11.192 0 19.442 7.52 8.25 7.519 8.25 18.634h138.77q6.538 0 10.961 4.486Q760 300.355 760 306.985t-4.423 10.9q-4.423 4.269-10.961 4.269h-24.847v518.462q0 23.057-16.163 39.221Q687.443 896 664.385 896h-368.77Zm99.846-129.077q0 6.539 4.486 10.962 4.485 4.423 11.115 4.423t10.9-4.423q4.269-4.423 4.269-10.962V419.462q0-5.789-4.485-10.587-4.486-4.798-11.116-4.798t-10.899 4.798q-4.27 4.798-4.27 10.587v347.461Zm138.308 0q0 6.539 4.485 10.962 4.486 4.423 11.116 4.423t10.899-4.423q4.27-4.423 4.27-10.962V419.462q0-5.789-4.486-10.587-4.485-4.798-11.115-4.798t-10.9 4.798q-4.269 4.798-4.269 10.587v347.461Z"/></svg>