<svg xmlns="http://www.w3.org/2000/svg" width="48" height="48" viewBox="0 -960 960 960"><path d="M295.615-160q-22.25 0-38.817-16.567t-16.567-38.817v-518.462h-24.847q-6.538 0-10.961-4.485Q200-742.817 200-749.447t4.423-10.899q4.423-4.27 10.961-4.27h138.77q0-10.692 7.865-18.423 7.866-7.731 18.289-7.731h199.384q10.423 0 18.289 7.866 7.865 7.865 7.865 18.288h138.77q6.538 0 10.961 4.486Q760-755.645 760-749.015t-4.423 10.9q-4.423 4.269-10.961 4.269h-24.847v518.462q0 22.25-16.567 38.817T664.385-160h-368.77ZM689-733.846H271v518.462q0 10.769 7.308 17.692 7.307 6.923 17.307 6.923h368.77q10 0 17.307-6.923Q689-204.615 689-215.384v-518.462ZM411.062-273.692q6.63 0 10.9-4.423 4.269-4.423 4.269-10.962v-347.461q0-5.789-4.485-10.587-4.486-4.798-11.116-4.798t-10.899 4.798q-4.27 4.798-4.27 10.587v347.461q0 6.539 4.486 10.962 4.485 4.423 11.115 4.423Zm138.308 0q6.63 0 10.899-4.423 4.27-4.423 4.27-10.962v-347.461q0-5.789-4.486-10.587-4.485-4.798-11.115-4.798t-10.9 4.798q-4.269 4.798-4.269 10.587v347.461q0 6.539 4.485 10.962 4.486 4.423 11.116 4.423ZM271-733.846v543.077-543.077Z"/></svg>