<svg xmlns="http://www.w3.org/2000/svg" width="48" height="48" viewBox="0 -960 960 960"><path d="M295.615-160q-23.058 0-39.221-16.163-16.163-16.164-16.163-39.221v-518.462h-24.847q-6.577 0-10.98-4.458Q200-742.763 200-749.42t4.404-10.926q4.403-4.27 10.98-4.27h138.77q0-11.461 8.25-18.807 8.25-7.347 19.442-7.347h196.308q11.192 0 19.442 7.481t8.25 18.673h138.77q6.577 0 10.98 4.459Q760-755.699 760-749.042t-4.404 10.927q-4.403 4.269-10.98 4.269h-24.847v518.462q0 23.057-16.163 39.221Q687.443-160 664.385-160h-368.77ZM271-733.846v518.462q0 10.769 7.308 17.692 7.307 6.923 17.307 6.923h368.77q10 0 17.307-6.923Q689-204.615 689-215.384v-518.462H271Zm0 0v518.462q0 10.769 7.308 17.692 7.307 6.923 17.307 6.923H271v-543.077Zm209 294.615 99.077 99.308q5.615 5.385 12.385 5.385 6.769 0 12.538-5.385 4.616-4.615 5.116-11.885.5-7.269-5.116-12.038l-99.077-99.539L604-563.692q4.616-5.566 5.116-12.026.5-6.461-5.072-11.804Q598.615-593 591.605-593t-12.528 5.384L480-488.308l-98.846-99.308q-4.385-5.615-11.462-5.5-7.077.116-12.692 5.133-5.616 4.983-5.5 11.944.115 6.962 5.5 12.577l99.077 100.077L357-364.077q-5.385 5.385-5.385 11.962t5.428 12.149q5.572 6.197 12.149 6.197 6.577 0 11.962-6.154L480-439.231Z"/></svg>