<svg xmlns="http://www.w3.org/2000/svg" width="48" height="48" viewBox="0 96 960 960"><path d="M725.896 825.462q26.559 0 44.947-18.451 18.388-18.45 18.388-44.807 0-26.358-18.42-44.589-18.42-18.23-44.734-18.23-26.731 0-44.827 18.402-18.096 18.403-18.096 44.693 0 26.289 18.3 44.635 18.299 18.347 44.442 18.347Zm.038 126.077q31.605 0 58.681-14.731 27.077-14.731 45.077-40.193-24.461-14-50.141-21.73-25.681-7.731-53.308-7.731-27.628 0-53.858 7.731-26.231 7.73-49.923 21.73 17.087 25.549 44.478 40.236 27.39 14.688 58.994 14.688ZM215.384 896q-22.25 0-38.817-16.567T160 840.616V311.384q0-22.25 16.567-38.817T215.384 256h529.232q22.25 0 38.817 16.567T800 311.384v265.924q-7.846-2.616-15.654-4.539-7.807-1.923-15.115-4.154V311.384q0-9.23-7.692-16.923-7.693-7.692-16.923-7.692H215.384q-9.23 0-16.923 7.692-7.692 7.693-7.692 16.923v529.232q0 9.23 7.692 16.923 7.693 7.692 16.923 7.692h257.462q1.693 8.308 3.254 16.172 1.561 7.865 4.669 14.597H215.384Zm-24.615-73.656v42.887-578.462 281.846-3.23 256.959ZM300 731.601q0 6.63 4.423 10.899 4.423 4.269 10.962 4.269h164.441q3.636-7.538 6.713-15.23 3.076-7.693 7.23-15.539H315.385q-6.539 0-10.962 4.485T300 731.601Zm0-155.385q0 6.63 4.423 10.899 4.423 4.27 10.962 4.27h294q10.923-3.154 18.154-5.731 7.23-2.577 15.538-6.577v-4.615q-.115-5.59-4.769-9.718-4.654-4.129-10.616-4.129H315.385q-6.539 0-10.962 4.485Q300 569.586 300 576.216Zm0-155.385q0 6.63 4.423 10.9Q308.846 436 315.385 436h329.23q6.539 0 10.962-4.485T660 420.399q0-6.63-4.423-10.899-4.423-4.269-10.962-4.269h-329.23q-6.539 0-10.962 4.485T300 420.831Zm425.947 559.554q-64.054 0-109.039-45.644t-44.985-108.423q0-65.215 44.975-110.113 44.975-44.898 109.549-44.898 63.553 0 108.669 44.898 45.115 44.898 45.115 110.113 0 62.779-45.115 108.423Q790 980.385 725.947 980.385Z"/></svg>