<svg xmlns="http://www.w3.org/2000/svg" width="48" height="48" viewBox="0 -960 960 960"><path d="m452.308-129.615-264.616-153q-13.481-7.657-20.586-20.675Q160-316.308 160-330.769v-298.462q0-14.461 7.106-27.479 7.105-13.018 20.586-20.675l264.616-153q13.558-7.231 27.856-7.231 14.298 0 27.528 7.231l264.616 153q13.481 7.657 20.586 20.675Q800-643.692 800-629.231v298.462q0 14.461-7.106 27.479-7.105 13.018-20.586 20.675l-264.616 153q-13.558 7.231-27.856 7.231-14.298 0-27.528-7.231Zm12.307-341.846v313.615l4.616 2.385q5.384 3.076 10.769 3.076t10.769-3.076l4.616-2.385v-313.778L769.231-630v-4.615q0-3.847-1.923-7.693-1.923-3.846-5.769-6.154l-10.924-5.923L480-497.077 209.154-654.385l-10.693 5.58q-3.846 2.308-5.769 6.154t-1.923 7.692v5.19l273.846 158.308Z"/></svg>