<svg xmlns="http://www.w3.org/2000/svg" width="48" height="48" viewBox="0 96 960 960"><path d="M382.692 896q-6.577 0-10.981-4.458t-4.404-11.115q0-6.657 4.404-10.927 4.404-4.269 10.981-4.269h66.769V776H175.615q-22.442 0-38.913-16.471-16.471-16.471-16.471-38.913V311.384q0-22.442 16.471-38.913Q153.173 256 175.615 256h609.231q23.039 0 39.212 16.471 16.173 16.471 16.173 38.913v409.232q0 22.442-16.173 38.913Q807.885 776 784.846 776H511v89.231h67.539q6.577 0 10.98 4.458 4.404 4.458 4.404 11.116 0 6.657-4.404 10.926-4.403 4.269-10.98 4.269H382.692ZM175.615 745.231h609.231q10.77 0 17.693-6.923 6.923-6.923 6.923-17.692V311.384q0-10.769-6.923-17.692t-17.693-6.923H175.615q-10 0-17.307 6.923Q151 300.615 151 311.384v409.232q0 10.769 7.308 17.692 7.307 6.923 17.307 6.923Zm-24.615 0V286.769v458.462Z"/></svg>