<svg xmlns="http://www.w3.org/2000/svg" width="48" height="48" viewBox="0 0 48 48"><path d="M33.8 38.7h2.85q.55 0 .9-.35t.35-.9V11q0-.55-.35-.9t-.9-.35H33.8q-.55 0-.875.35-.325.35-.325.9v26.45q0 .55.325.9t.875.35Zm-19-11.45q.5 0 .875-.375T16.05 26q0-.5-.375-.875t-.875-.375q-.5 0-.85.375T13.6 26q0 .5.375.875t.825.375Zm0 6q.5 0 .875-.375T16.05 32q0-.5-.375-.875t-.875-.375q-.5 0-.85.375T13.6 32q0 .5.375.875t.825.375Zm.15-12.5h11.7q.6 0 1-.4t.4-.95v-2.8q0-.55-.4-.95-.4-.4-1-.4h-11.7q-.6 0-.975.4t-.375.95v2.8q0 .55.375.95.375.4.975.4Zm5.85 6.5q.5 0 .875-.375T22.05 26q0-.5-.375-.875t-.875-.375q-.5 0-.85.375T19.6 26q0 .5.375.875t.825.375Zm0 6q.5 0 .875-.375T22.05 32q0-.5-.375-.875t-.875-.375q-.5 0-.85.375T19.6 32q0 .5.375.875t.825.375Zm6-6q.5 0 .875-.375T28.05 26q0-.5-.375-.875t-.875-.375q-.5 0-.85.375T25.6 26q0 .5.375.875t.825.375Zm0 6q.5 0 .875-.375T28.05 32q0-.5-.375-.875t-.875-.375q-.5 0-.85.375T25.6 32q0 .5.375.875t.825.375Zm7 7q-.95 0-1.7-.575t-1-1.425H11.35q-1.1 0-1.925-.85T8.6 35.45V13q0-1.1.825-1.925t1.925-.825H31.1q.25-.85 1-1.425.75-.575 1.7-.575h2.85q1.1 0 1.925.825T39.4 11v26.45q0 1.1-.825 1.95-.825.85-1.925.85Z"/></svg>