<svg xmlns="http://www.w3.org/2000/svg" width="48" height="48" viewBox="0 96 960 960"><path d="M438 879.077 330.769 771.846 353 750.615l85 85 169-170 22.231 22.231L438 879.077ZM215.384 383.692h529.232q10.769 0 17.692-6.923t6.923-17.692v-55.385H190.769v55.385q0 10.769 6.923 17.692t17.692 6.923Zm120.539 110.769h288.154q7.692 0 13.846-4.23 6.154-4.231 9.231-11.923l22.615-63.847H290.231l22.615 63.847q3.077 7.692 9.231 11.923 6.154 4.23 13.846 4.23Zm0 30.77q-17.192 0-31.789-10.087-14.596-10.086-20.596-26.529L257 414.461h-41.616q-22.442 0-38.913-16.471Q160 381.519 160 359.077v-86.154h640v86.154q0 22.692-16.471 39.038-16.471 16.346-38.913 16.346H703l-28.461 74.847q-6.517 15.696-20.571 25.81-14.054 10.113-31.814 10.113H335.923ZM190.769 383.692v-80 80Z"/></svg>