<svg xmlns="http://www.w3.org/2000/svg" width="48" height="48" viewBox="0 96 960 960"><path d="M338.167 647.539q-14.706 0-25.09-10.262-10.385-10.263-10.385-25.033 0-14.705 10.294-25.09t25.5-10.385q14.437 0 24.706 10.294 10.27 10.295 10.27 25.5 0 14.437-10.262 24.706-10.263 10.27-25.033 10.27ZM480.09 772.154q-14.705 0-25.09-10.294t-10.385-25q0-14.706 10.294-25.091 10.295-10.384 25.501-10.384 14.436 0 24.705 10.294 10.27 10.294 10.27 25t-10.262 25.09q-10.262 10.385-25.033 10.385ZM338.167 896.769q-14.706 0-25.09-10.262-10.385-10.262-10.385-25.032 0-14.706 10.294-25.09Q323.28 826 338.486 826q14.437 0 24.706 10.294 10.27 10.294 10.27 25T363.2 886.385q-10.263 10.384-25.033 10.384Zm284.498-249.23q-15.588 0-25.473-10.262-9.884-10.263-9.884-25.033 0-14.705 9.911-25.09 9.912-10.385 25.5-10.385 14.82 0 25.089 10.294 10.269 10.295 10.269 25.5 0 14.437-10.296 24.706-10.297 10.27-25.116 10.27Zm.118 249.23q-15.539 0-25.507-10.178-9.968-10.179-9.968-24.616 0-15.206 9.911-25.59Q607.131 826 622.719 826q14.82 0 25.089 10.294 10.269 10.294 10.269 25t-10.262 25.091q-10.262 10.384-25.032 10.384Zm141.423-124.615q-14.437 0-24.706-10.294t-10.269-25q0-14.706 10.262-25.091 10.262-10.384 25.032-10.384 14.706 0 25.09 10.294 10.385 10.294 10.385 25t-10.294 25.09q-10.294 10.385-25.5 10.385Zm-569.231 0q-14.437 0-24.706-10.294T160 736.36q0-14.437 10.296-24.706 10.297-10.269 25.116-10.269 14.819 0 25.088 10.294t10.269 25q0 14.706-10.294 25.09-10.294 10.385-25.5 10.385Zm140.948-317.693h288.154q7.692 0 13.846-4.23 6.154-4.231 9.231-11.923l22.615-63.847H290.231l22.615 63.847q3.077 7.692 9.231 11.923 6.154 4.23 13.846 4.23Zm0 30.77q-17.283 0-31.834-10.087-14.551-10.086-20.551-26.529L257 374.461h-41.616q-22.25 0-38.817-16.567T160 319.077v-86.154h640v86.154q0 22.5-16.567 38.942t-38.817 16.442H703l-28.461 74.847q-6.018 15.903-20.374 25.913-14.355 10.01-32.011 10.01H335.923Z"/></svg>