<svg xmlns="http://www.w3.org/2000/svg" width="48" height="48" viewBox="0 -960 960 960"><path d="M341.538-221.538h356.924V-360H341.538v138.462Zm-83.077 30.769q-11.231 0-19.461-8.231-8.231-8.23-8.231-19.461v-144.616q0-11.019 8.231-19.356 8.23-8.336 19.461-8.336h443.078q11.019 0 19.356 8.336 8.336 8.337 8.336 19.356v36.923h12.483q11.863 0 19.69 7.952 7.827 7.952 7.827 19.741v15.384q0 11.789-7.952 19.741t-19.74 7.952h-12.308v36.923q0 11.788-7.952 19.74-7.952 7.952-19.74 7.952H258.461Zm31.77-467.693 22.615 63.847q3.077 7.692 9.231 11.923 6.154 4.23 13.846 4.23h288.154q7.692 0 13.846-4.23 6.154-4.231 9.231-11.923l22.615-63.847H290.231Zm45.692 110.77q-17.283 0-31.834-10.087-14.551-10.086-20.551-26.529L257-658.462h-41.616q-22.25 0-38.817-16.567T160-713.846V-800h640v86.154q0 22.5-16.567 38.942t-38.817 16.442H703l-28.461 74.847q-6.018 15.904-20.374 25.913-14.355 10.01-32.011 10.01H335.923Z"/></svg>