<svg xmlns="http://www.w3.org/2000/svg" width="48" height="48" viewBox="0 -960 960 960"><path d="M338.01-408.46q-14.7 0-25.09-10.18-10.38-10.18-10.38-25.12 0-14.7 10.29-25.09 10.3-10.38 25-10.38 15.71 0 25.59 10.29 9.89 10.3 9.89 25 0 14.94-9.8 25.21-9.79 10.27-25.5 10.27Zm143.08 124.61q-14.71 0-25.09-10.29-10.38-10.29-10.38-25t10.29-25.09q10.29-10.39 25-10.39 15.71 0 25.59 10.3 9.88 10.29 9.88 25 0 14.7-9.79 25.09-9.79 10.38-25.5 10.38ZM340.48-159.23q-14.71 0-25.1-10.18Q305-179.59 305-194.52q0-14.71 10.29-25.1 10.3-10.38 25-10.38 14.94 0 25.21 10.29 10.27 10.3 10.27 25 0 14.71-10.18 25.09-10.18 10.39-25.11 10.39Zm257.48-259.41q-10.27-10.18-10.27-25.12 0-14.7 10.18-25.09 10.18-10.38 25.12-10.38 14.93 0 25.2 10.29 10.27 10.3 10.27 25 0 14.94-10.18 25.21-10.18 10.27-25.11 10.27-14.94 0-25.21-10.18Zm-.77 249.23q-9.88-10.18-9.88-25.11 0-14.71 9.79-25.1Q606.9-230 622.22-230t25.59 10.29q10.27 10.3 10.27 25 0 14.71-10.18 25.09-10.18 10.39-25.5 10.39t-25.21-10.18Zm168.29-114.44q-14.94 0-25.21-10.29-10.27-10.29-10.27-25t10.18-25.09q10.18-10.39 25.11-10.39 14.71 0 25.09 10.3 10.39 10.29 10.39 25 0 14.7-10.29 25.09-10.3 10.38-25 10.38Zm-569.77 0q-14.94 0-25.21-10.29-10.27-10.29-10.27-25 0-14.94 10.18-25.21 10.18-10.27 25.5-10.27t25.21 10.3q9.88 10.29 9.88 25 0 14.7-10.29 25.09-10.3 10.38-25 10.38Zm140.21-273.07q-17.78 0-32.08-9.96-14.3-9.97-20.3-26.66L257-667.69h-41.62q-22.5 0-38.94-16.44Q160-700.58 160-723.08v-53.84q0-13.46 9.42-22.89 9.43-9.42 22.89-9.42h575.38q13.46 0 22.89 9.42 9.42 9.43 9.42 22.89v53.84q0 22.5-16.44 38.95-16.44 16.44-38.94 16.44H703l-28.46 74.84q-6.09 15.66-20.54 25.79-14.45 10.14-31.85 10.14H335.92Zm-45.69-110.77 22.62 63.84q3.07 7.7 9.23 11.93 6.15 4.23 13.84 4.23h288.16q7.69 0 13.84-4.23 6.16-4.23 9.23-11.93l22.62-63.84H290.23Z"/></svg>