<svg xmlns="http://www.w3.org/2000/svg" width="48" height="48" viewBox="0 -960 960 960"><path d="M233.692-480 355-358.692q4.385 4.524 4.654 10.685.269 6.161-4.626 11.253-5.264 5.093-11.185 5.27-5.92.176-11.074-4.977L208.692-460.538q-8.231-8.371-8.231-19.532t8.231-19.392l124.077-124.077q4.487-4.384 10.782-4.653 6.295-.27 11.449 4.994 4.795 5.264 4.974 11 .18 5.736-4.974 10.89L233.692-480ZM240-273.692h30.769v76.769h418.462v-76.769H720v138.308q0 23.057-16.163 39.22Q687.673-80 664.616-80H295.384q-23.057 0-39.221-16.163Q240-112.327 240-135.384v-138.308Zm30.769-418.462H240v-132.462q0-23.057 16.163-39.221Q272.327-880 295.384-880h369.232q23.057 0 39.221 16.163Q720-847.673 720-824.616v132.462h-30.769v-70.923H270.769v70.923ZM726.308-480 605-601.308q-4.385-4.524-4.654-10.685-.269-6.161 4.626-11.253 5.264-5.093 11.185-5.27 5.92-.176 11.074 4.977l124.077 124.077q8.231 8.371 8.231 19.532t-8.231 19.392L627.231-336.461q-4.487 4.384-10.782 4.653-6.295.27-11.449-4.994-4.795-5.264-4.974-11-.18-5.736 4.974-10.89L726.308-480Z"/></svg>