<svg xmlns="http://www.w3.org/2000/svg" width="48" height="48" viewBox="0 -960 960 960"><path d="M491-527.69ZM475.62-200H135.38q-6.53 0-10.96-4.48-4.42-4.49-4.42-11.12 0-6.63 4.42-10.9 4.43-4.27 10.96-4.27h340.24q6.53 0 10.96 4.49 4.42 4.48 4.42 11.11 0 6.63-4.42 10.9-4.43 4.27-10.96 4.27Zm-260.24-95.38q-23.05 0-39.22-16.17Q160-327.71 160-350.77v-353.85q0-23.05 16.16-39.22Q192.33-760 215.38-760h563.08q6.54 0 10.96 4.48 4.43 4.49 4.43 11.12 0 6.63-4.43 10.9-4.42 4.27-10.96 4.27H215.38q-9.23 0-16.92 7.69-7.69 7.69-7.69 16.92v353.85q0 9.23 7.69 16.92 7.69 7.7 16.92 7.7h260.24q6.53 0 10.96 4.48 4.42 4.49 4.42 11.12 0 6.63-4.42 10.9-4.43 4.27-10.96 4.27H215.38Zm601.54 51.53v-340q0-5.38-3.84-9.23-3.85-3.84-9.23-3.84H636.38q-4.61 0-8.84 3.84-4.23 3.85-4.23 9.23v340q0 5.39 4.23 9.23 4.23 3.85 8.84 3.85h167.47q5.38 0 9.23-3.85 3.84-3.84 3.84-9.23ZM634.46-200q-16.72 0-29.32-12.6-12.6-12.6-12.6-29.32v-344.62q0-16.4 12.6-28.77 12.6-12.38 29.32-12.38h172.08q16.4 0 28.77 12.38 12.38 12.37 12.38 28.77v344.62q0 16.72-12.38 29.32-12.37 12.6-28.77 12.6H634.46Zm85.63-287.69q11.37 0 19.22-8.04 7.84-8.03 7.84-18.74 0-10.61-7.83-18.84-7.84-8.23-19.9-8.23-9.65 0-17.88 8.22-8.23 8.22-8.23 19.51 0 10.43 8.42 18.27 8.41 7.85 18.36 7.85Zm.14 73.84Z"/></svg>