<svg xmlns="http://www.w3.org/2000/svg" width="48" height="48" viewBox="0 -960 960 960"><path d="M302.77-241.23v64.38q0 7.11-4.9 11.98T285.83-160q-7.14 0-11.95-4.87-4.8-4.87-4.8-11.98V-251q-24.39-6-46.73-36.42Q200-317.84 200-355.62V-728q0-58.44 67.25-85.22Q334.51-840 480.21-840q148.33 0 214.06 26.29Q760-787.42 760-728v372.38q0 37.78-22.35 68.2Q715.31-257 690.92-251v74.15q0 7.11-4.89 11.98-4.9 4.87-12.04 4.87-7.14 0-11.95-4.87t-4.81-11.98v-64.38H302.77Zm177.46-498.92h252.08-505.39 253.31ZM648-475.62H230.77h498.46H648Zm-417.23-30.76h498.46v-203H230.77v203ZM363.6-344.2q12.02-12.2 12.02-29.77t-12.2-30.11q-12.2-12.54-29.77-12.54t-30.11 12.72Q291-391.18 291-373.61t12.72 29.59Q316.44-332 334.01-332t29.59-12.2Zm292.86 0Q669-356.4 669-373.97t-12.72-30.11q-12.72-12.54-30.29-12.54T596.4-403.9q-12.02 12.72-12.02 30.29t12.2 29.59Q608.78-332 626.35-332t30.11-12.2ZM226.92-740.15h505.39q-14.77-35.23-77-52.16-62.23-16.92-175.08-16.92-122.61 0-182.92 16.19-60.31 16.19-70.39 52.89ZM312-272h336q34.23 0 57.73-25.08 23.5-25.07 23.5-58.54v-120H230.77v120q0 33.47 23.5 58.54Q277.77-272 312-272Z"/></svg>