<svg xmlns="http://www.w3.org/2000/svg" width="48" height="48" viewBox="0 96 960 960"><path d="M190.769 814.308v67.307q0 5.705-4.092 10.045T175.345 896q-6.961 0-11.153-4.487T160 880.615V585.077l79.615-233.693q2.692-7.077 9.346-11.23Q255.615 336 263.385 336h436.307q7.432 0 12.757 3.981 5.326 3.98 7.936 11.403L800 585.077v296.308q0 5.41-4.477 10.013Q791.046 896 784.199 896q-6.584 0-10.891-4.554Q769 886.891 769 880.385v-66.077H190.769ZM203 554.307h554l-65-187.538H268l-65 187.538Zm87.425 172.308q17.806 0 29.844-12.469 12.039-12.469 12.039-29.789 0-18.152-12.47-30.254Q307.369 642 290.299 642q-17.904 0-30.255 12.215-12.352 12.215-12.352 30.269 0 18.055 12.464 30.093t30.269 12.038Zm380.05 0q17.677 0 29.87-12.469 12.194-12.469 12.194-29.789 0-18.152-12.306-30.254Q687.928 642 670.348 642q-17.579 0-30.002 12.215-12.423 12.215-12.423 30.269 0 18.055 12.854 30.093t29.698 12.038Z"/></svg>