<svg xmlns="http://www.w3.org/2000/svg" width="48" height="48"><path d="M25.95 40.75q-.8.8-1.95.8t-1.95-.8l-14.8-14.8q-.8-.8-.8-1.95t.8-1.95l6.25-6.3L4.3 6.5q-.2-.2-.225-.525-.025-.325.275-.575.2-.25.525-.25t.525.25l37.7 37.7q.2.2.225.55.025.35-.225.55-.25.25-.55.25-.3 0-.55-.25l-9.75-9.7zm5.25-7.35-4-4.05L24.55 32q-.2.2-.525.225-.325.025-.575-.225-.25-.3-.225-.6.025-.3.225-.55l2.6-2.6-3.5-3.5h-6.3q-.35 0-.575-.225-.225-.225-.225-.525 0-.35.225-.55.225-.2.575-.2H21l-6.4-6.45-6.3 6.35q-.35.35-.35.85t.35.85L23.15 39.7q.35.35.85.35t.85-.35zm4.6-2.55-1.05-1.05 4.95-4.95q.35-.35.35-.85t-.35-.85L24.85 8.3q-.35-.35-.85-.35t-.85.35l-4.95 4.95-1.05-1.05 4.9-4.95q.8-.8 1.95-.8t1.95.8l14.8 14.8q.8.8.8 1.95t-.8 1.95zm-5.5-5.5.65-.7q.25-.3.275-.625.025-.325-.275-.575l-7.4-7.4q-.2-.2-.525-.225-.325-.025-.575.225-.35.35-.325.8.025.45.475.75zm-3.8-3.85zm-3.6 3.6z"/></svg>