<svg xmlns="http://www.w3.org/2000/svg" width="48" height="48" viewBox="0 -960 960 960"><path d="M420.538-404.154 338.846-70.692q-.461 4.846-4.558 7.769Q330.191-60 324.713-60q-8.328 0-13.213-5.23-4.885-5.231-2.654-12.308l115.923-570.77L293-593v112.231q0 6.596-4.445 10.99-4.444 4.394-11.115 4.394t-11.056-4.297Q262-473.979 262-481v-114.308q0-8.564 4.106-15.568 4.105-7.004 12.355-10.893l156.6-65.528q12.939-5.78 25.747-7.665 12.807-1.884 24.73.347 12.385 2.23 22.193 8.567 9.808 6.336 17.038 17.048l28.154 45.231q18.308 28.615 39.346 51.077 21.039 22.461 44.808 38.769 20.077 14.615 41.038 22.923 20.962 8.308 44.577 12.077 6.724 1.481 10.439 5.875t3.715 11.76q0 6.596-4.549 10.48-4.55 3.885-11.605 2.654-60.538-9.307-108.577-43.961-48.038-34.654-85.269-95.116l-42.615 196.616 82 84q3.461 3.782 5.577 9.087 2.115 5.305 2.115 10.605v231.538q0 6.597-4.445 10.99Q565.034-60 558.363-60t-10.94-4.394q-4.269-4.394-4.269-10.99v-210.001L420.538-404.154ZM540.08-758.615q-27.003 0-45.811-18.728t-18.808-45.731q0-27.003 18.729-45.811 18.728-18.807 45.73-18.807 27.003 0 45.811 18.728t18.808 45.73q0 27.003-18.729 45.811-18.728 18.808-45.73 18.808Z"/></svg>