<svg xmlns="http://www.w3.org/2000/svg" width="48" height="48" viewBox="0 -960 960 960"><path d="M213.31-104.62q-72.13 0-122.72-50.63Q40-205.89 40-277.87t50.64-122.44q50.64-50.46 122.61-50.46 71.98 0 122.44 50.52 50.46 50.52 50.46 122.33 0 72.12-50.52 122.71-50.52 50.59-122.32 50.59Zm100.77-71.82q41.3-41.06 41.3-101t-41.05-101.25Q273.27-420 213.33-420q-59.95 0-101.25 41.06-41.31 41.06-41.31 101t41.06 101.25q41.06 41.31 101 41.31t101.25-41.06Zm216.61-498.18L404.31-548l75.84 80.31q7.23 8 11.23 17.84 4 9.85 4 20.08v191.46q0 6.79-4.31 11.09-4.3 4.3-11.11 4.3t-11.08-4.3q-4.26-4.3-4.26-11.09v-182.26L322.69-528.85q-8.69-6.67-12.92-17.01-4.23-10.34-4.23-21.41 0-10.73 4.73-20.04 4.73-9.31 12.42-17l119.77-120.54q8.69-7.92 19.48-12.53 10.78-4.62 23.5-4.62 12.71 0 23.52 4.62 10.81 4.61 19.5 12.53l76.46 77.23q26.9 26.64 59.62 43.85 32.72 17.22 69.69 21.92 5.85 1.23 10.27 6.62 4.42 5.38 3.58 12-.85 6.61-6.23 10.65-5.39 4.04-12 2.81-42.93-5.23-81.08-25.08-38.15-19.84-68.85-50.53l-49.23-49.24Zm33.35-92.77q-16.5-16.47-16.5-40.35 0-23.88 16.5-40.38 16.5-16.5 39.96-16.5t40.35 16.47q16.88 16.47 16.88 40.35 0 23.88-16.88 40.38-16.89 16.5-40.35 16.5t-39.96-16.47Zm183.12 662.77q-72.13 0-122.72-50.63-50.59-50.64-50.59-122.62t50.64-122.44q50.64-50.46 122.61-50.46 71.98 0 122.44 50.64Q920-349.49 920-277.51q0 71.97-50.52 122.43-50.52 50.46-122.32 50.46Zm100.76-71.82q41.31-41.06 41.31-101t-41.06-101.25Q807.11-420 747.17-420t-101.25 41.06q-41.3 41.06-41.3 101t41.05 101.25q41.06 41.31 101 41.31 59.95 0 101.25-41.06Z"/></svg>