<svg xmlns="http://www.w3.org/2000/svg" width="48" height="48" viewBox="0 -960 960 960"><path d="M190.77-563.08v347.7q0 9.23 7.69 16.92 7.69 7.69 16.92 7.69h529.24q9.23 0 16.92-7.69 7.69-7.69 7.69-16.92v-347.7H190.77Zm289.17 290.7q-23.56 0-39.44-16.32-15.88-16.31-15.88-40.61 0-11.69 4.11-25.42 4.12-13.73 11.58-29.19 5.92-12.39 13.23-22.77 7.31-10.39 16-20.77 4.23-6.23 10.27-6.23 6.04 0 11.42 6.23 7.92 10.38 15.23 21.15 7.31 10.77 13.23 23.16 7.46 15.46 11.58 28.8 4.11 13.35 4.11 25.04 0 24.3-15.94 40.61-15.95 16.32-39.5 16.32Zm227.98-398.16q7.46-7.46 7.46-18.69t-7.46-18.69q-7.46-7.46-18.69-7.46t-18.69 7.46q-7.46 7.46-7.46 18.69t7.46 18.69q7.46 7.46 18.69 7.46t18.69-7.46ZM215.38-160q-23.05 0-39.22-16.16Q160-192.33 160-215.38v-529.24q0-23.05 16.16-39.22Q192.33-800 215.38-800h529.24q23.05 0 39.22 16.16Q800-767.67 800-744.62v529.24q0 23.05-16.16 39.22Q767.67-160 744.62-160H215.38Z"/></svg>