<svg xmlns="http://www.w3.org/2000/svg" width="48" height="48" viewBox="0 -960 960 960"><path d="M340-120.04q0-6.806 4.298-11.075 4.298-4.269 11.087-4.269h249.23q6.789 0 11.087 4.309 4.298 4.31 4.298 11.116 0 6.805-4.298 11.075-4.298 4.269-11.087 4.269h-249.23q-6.789 0-11.087-4.31Q340-113.234 340-120.04Zm-13.591-86.114q-23.313 0-39.477-16.163-16.163-16.164-16.163-39.221v-547.693q0-23.058 16.163-39.221 16.164-16.164 39.477-16.164h307.182q23.313 0 39.477 16.164 16.163 16.163 16.163 39.221v547.693q0 23.057-16.163 39.221-16.164 16.163-39.477 16.163H326.409Zm-24.871-130.769h356.924v-396.923H301.538v396.923Z"/></svg>