<svg xmlns="http://www.w3.org/2000/svg" width="48" height="48" viewBox="0 -960 960 960"><path d="M520-144.615q-6.539 0-10.962-4.485-4.423-4.486-4.423-11.116t4.423-10.899q4.423-4.27 10.962-4.27h191.154L555.461-284.538q-5.506-4.242-6.791-10.245-1.285-6.003 1.915-10.825 3.969-5.455 9.812-6.731 5.844-1.276 11.142 1.877L729-200.769l-66.154-179.846q-2.692-5.616.615-11.231 3.308-5.616 9.154-8.308 5.847-2.692 11.847.628 6 3.321 8.692 8.911l64.154 178.307 50.538-182.846q1.414-5.776 6.438-9.119 5.024-3.342 10.778-1.922 5.753 1.419 9.653 6.461 3.9 5.042 2.439 10.888l-62.769 232q-1.462 4.615-5.577 8.423-4.116 3.808-9.577 3.808H520ZM155.385-260q-6.539 0-10.962-4.485T140-275.6q0-6.631 4.423-10.9t10.962-4.269h268.692q.308 8.903.923 15.336T426.308-260H155.385Zm0-162.923q-6.539 0-10.962-4.485T140-438.524q0-6.63 4.423-10.899 4.423-4.269 10.962-4.269h355.307q-8.955 6.791-16.977 14.895-8.023 8.105-15.177 15.874H155.385Zm0-163.154q-6.539 0-10.962-4.485T140-601.677q0-6.631 4.423-10.9t10.962-4.269h529.23q6.539 0 10.962 4.485T700-601.246q0 6.631-4.423 10.9t-10.962 4.269h-529.23Zm0-163.154q-6.539 0-10.962-4.485T140-764.831q0-6.631 4.423-10.9T155.385-780h529.23q6.539 0 10.962 4.485T700-764.4q0 6.631-4.423 10.9t-10.962 4.269h-529.23Z"/></svg>