<svg xmlns="http://www.w3.org/2000/svg" width="48" height="48" viewBox="0 -960 960 960"><path d="M413.12-462.19q8.57-8.58 8.57-19.89 0-11.3-8.57-19.88-8.58-8.58-19.89-8.58t-19.88 8.58q-8.58 8.58-8.58 19.88 0 11.31 8.58 19.89 8.57 8.57 19.88 8.57 11.31 0 19.89-8.57Zm173.76 0q8.58-8.58 8.58-19.89 0-11.3-8.58-19.88-8.57-8.58-19.88-8.58-11.31 0-19.88 8.58-8.58 8.58-8.58 19.88 0 11.31 8.58 19.89 8.57 8.57 19.88 8.57 11.31 0 19.88-8.57ZM195.38-160q-6.84 0-11.11-4.27T180-175.38q0-6.85 3.5-12.27 3.5-5.43 11.88-3.12h27.54v-553.85q0-22.69 15.96-39.03Q254.85-800 278.31-800h189v609.23h26.15V-800h188.23q23.46 0 39.43 16.35 15.96 16.34 15.96 39.03v553.85h27.54q6.84 0 11.11 4.27t4.27 11.12q0 6.84-4.27 11.11T764.62-160H195.38Z"/></svg>