<svg xmlns="http://www.w3.org/2000/svg" width="48" height="48" viewBox="0 -960 960 960"><path d="M350.769-360v-409.231 578.462V-360ZM320-344.615h30.769v129.231q0 10.769 6.923 17.692t17.692 6.923h209.232q10.769 0 17.692-6.923t6.923-17.692v-529.232q0-10.769-6.923-17.692t-17.692-6.923H375.384q-10.769 0-17.692 6.923t-6.923 17.692v369.231H320v-369.231q0-22.25 16.567-38.817T375.384-800h209.232q22.25 0 38.817 16.567T640-744.616v529.232q0 22.25-16.567 38.817T584.616-160H375.384q-22.25 0-38.817-16.567T320-215.384v-129.231Zm160.115-229.231q10.577 0 18.308-7.846t7.731-18.423q0-10.577-7.866-18.308-7.865-7.731-18.288-7.731-10.462 0-18.308 7.866-7.846 7.865-7.846 18.288 0 10.462 7.846 18.308t18.423 7.846Zm304.474-50.769q-6.589 0-10.974-4.404-4.384-4.404-4.384-10.981v-160q0-6.539 4.411-10.962 4.412-4.423 11.116-4.423t10.973 4.423Q800-806.539 800-800v160q0 6.577-4.431 10.981-4.43 4.404-10.98 4.404Zm-553.82 280q-6.577 0-10.981-4.412t-4.404-11.115q0-6.704 4.404-10.973 4.404-4.27 10.981-4.27h260q6.539 0 10.962 4.431t4.423 10.981q0 6.588-4.423 10.973-4.423 4.385-10.962 4.385h-260Z"/></svg>