<svg xmlns="http://www.w3.org/2000/svg" width="48" height="48" viewBox="0 0 48 48"><path d="m43.5 32.55-1.1-1.1q1.5-1.5 2.275-3.45.775-1.95.775-4 0-2.1-.775-4.025Q43.9 18.05 42.4 16.55l1.1-1.1q1.65 1.7 2.575 3.9Q47 21.55 47 24t-.925 4.65q-.925 2.2-2.575 3.9Zm-5.35-4L37 27.45q.7-.7 1.075-1.575T38.45 24q0-1-.375-1.875T37 20.55l1.15-1.1q.9.95 1.375 2.1Q40 22.7 40 24q0 1.3-.475 2.45-.475 1.15-1.375 2.1ZM24 43q-3.75 0-6.375-2.625T15 34V14q0-3.75 2.625-6.375T24 5q3.75 0 6.375 2.625T33 14v20q0 3.75-2.625 6.375T24 43Zm0-1.55q3.15 0 5.3-2.15t2.15-5.3V14q0-3.15-2.15-5.3T24 6.55q-3.15 0-5.3 2.15T16.55 14v20q0 3.15 2.15 5.3t5.3 2.15Zm0-5.7q1.55 0 2.65-1.1 1.1-1.1 1.1-2.65 0-1.55-1.1-2.65-1.1-1.1-2.65-1.1-1.55 0-2.65 1.1-1.1 1.1-1.1 2.65 0 1.55 1.1 2.65 1.1 1.1 2.65 1.1Zm0-1.4q-1 0-1.675-.675T21.65 32q0-.95.675-1.65t1.675-.7q.95 0 1.65.675t.7 1.675q0 1-.675 1.675T24 34.35Zm0-14.6q1.55 0 2.65-1.1 1.1-1.1 1.1-2.65 0-1.55-1.1-2.65-1.1-1.1-2.65-1.1-1.55 0-2.65 1.1-1.1 1.1-1.1 2.65 0 1.55 1.1 2.65 1.1 1.1 2.65 1.1ZM24 24Z"/></svg>