<svg xmlns="http://www.w3.org/2000/svg" width="48" height="48" viewBox="0 -960 960 960"><path d="M479.933-275.385q12.644 0 22.471-8.5T515-304.615h-69.231q2 12.23 11.76 20.73 9.759 8.5 22.404 8.5Zm-132.241-49.23h264.616q4.923 0 9.192-3.94 4.269-3.939 4.269-9.192t-4.269-9.138q-4.269-3.884-9.192-3.884h-26.539v-93.549q0-41.131-21.307-75.989-21.308-34.857-61-44.155v-15.923q0-9.833-6.963-16.262-6.962-6.43-16.776-6.43t-16.115 6.43q-6.3 6.429-6.3 16.262v15.923q-40.462 9.298-61.385 44.123Q375-485.515 375-444.363v93.594h-27.308q-5.077 0-8.884 3.807-3.808 3.808-3.808 8.885 0 5.385 3.808 9.423 3.807 4.039 8.884 4.039ZM230.769-160q-12.269 0-21.519-9.25-9.25-9.25-9.25-21.519v-373.846q0-7.141 2.853-13.53 2.854-6.389 9.608-10.624l249.231-188.077q4.369-2.923 8.934-4.77 4.564-1.846 9.509-1.846t9.436 1.846q4.492 1.847 8.737 4.77l249.231 188.077q6.754 4.235 9.608 10.624 2.853 6.389 2.853 13.53v373.846q0 12.269-9.25 21.519-9.25 9.25-21.519 9.25H230.769Zm0-30.769h498.462v-375.539L480-750.692 230.769-566.308v375.539ZM480-472.923Z"/></svg>