<svg xmlns="http://www.w3.org/2000/svg" width="48" height="48" viewBox="0 -960 960 960"><path d="m508.692-855.846 316.154 188.615q7.77 5.154 11.462 13.268T840-638.385v423.001q0 23.057-16.163 39.221Q807.673-160 784.616-160H175.384q-23.057 0-39.221-16.163Q120-192.327 120-215.384v-423.001q0-7.464 3.807-15.578 3.808-8.114 11.347-13.268l316.154-188.615q13.707-7.231 28.93-7.231 15.224 0 28.454 7.231Zm-16.384 394.154 310.615-183.154-310.615-185.846q-6.154-3.847-12.308-3.847t-12.308 3.847L157.077-644.846l310.615 183.154q6.154 3.846 12.308 3.846t12.308-3.846Zm-40.77 25.154L150.769-614.692v399.308q0 10.769 6.923 17.692t17.692 6.923h609.232q10.769 0 17.692-6.923t6.923-17.692v-399.308L508.462-436.538q-12.811 7.231-28.252 7.231-15.441 0-28.672-7.231Zm56.924 245.769h300.769-658.462 357.693Z"/></svg>