<svg xmlns="http://www.w3.org/2000/svg" width="48" height="48" viewBox="0 -960 960 960"><path d="M480.134-120q-74.673 0-140.41-28.339-65.737-28.34-114.365-76.922-48.627-48.582-76.993-114.257Q120-405.194 120-479.866q0-74.673 28.35-140.41t76.95-114.365q48.6-48.627 114.3-76.993Q405.3-840 480-840h304.616q23 0 39.192 16.192T840-784.616V-480q0 74.7-28.339 140.4-28.34 65.7-76.922 114.3-48.582 48.6-114.257 76.95Q554.806-120 480.134-120Zm-.209-30.769q137.835 0 233.57-95.683Q809.231-342.135 809.231-480v-304.616q0-10.769-6.923-17.692t-17.692-6.923H480q-137.865 0-233.548 95.661-95.683 95.661-95.683 233.495 0 137.835 95.661 233.57 95.661 95.736 233.495 95.736ZM312.461-387.384h237.078v-83.154l122.923 83.154v-197.078l-122.923 83.154v-83.154H312.461v197.078ZM480-480Z"/></svg>