<svg xmlns="http://www.w3.org/2000/svg" width="48" height="48" viewBox="0 96 960 960"><path d="M380 471.385h304.615q6.539 0 10.962-4.485Q700 462.414 700 455.784t-4.423-10.899q-4.423-4.27-10.962-4.27H380q-6.538 0-10.962 4.485-4.423 4.486-4.423 11.116t4.423 10.899q4.424 4.27 10.962 4.27Zm0 160h304.615q6.539 0 10.962-4.485Q700 622.414 700 615.784t-4.423-10.899q-4.423-4.27-10.962-4.27H380q-6.538 0-10.962 4.485-4.423 4.486-4.423 11.116t4.423 10.899q4.424 4.27 10.962 4.27ZM279.915 477.462q9.085 0 15.316-6.146t6.231-15.231q0-9.085-6.146-15.316t-15.231-6.231q-9.085 0-15.316 6.146t-6.231 15.231q0 9.085 6.146 15.316t15.231 6.231Zm0 160q9.085 0 15.316-6.146t6.231-15.231q0-9.085-6.146-15.316t-15.231-6.231q-9.085 0-15.316 6.146t-6.231 15.231q0 9.085 6.146 15.316t15.231 6.231ZM392.307 896q-11.769 0-19.73-7.961-7.962-7.962-7.962-19.731V816H175.384q-22.25 0-38.817-16.567T120 760.616V311.384q0-22.25 16.567-38.817T175.384 256h609.232q22.25 0 38.817 16.567T840 311.384v449.232q0 22.25-16.567 38.817T784.616 816H595.385v52.308q0 11.769-7.962 19.731-7.961 7.961-19.73 7.961H392.307Z"/></svg>