<svg xmlns="http://www.w3.org/2000/svg" width="48" height="48" viewBox="0 -960 960 960"><path d="M65.938-300q-6.63 0-10.9-4.423-4.27-4.423-4.27-10.962v-209.23q0-6.539 4.486-10.962T66.37-540q6.63 0 10.9 4.423 4.268 4.423 4.268 10.962v209.23q0 6.539-4.485 10.962T65.938-300Zm110.769-120q-6.63 0-10.9-4.423-4.269-4.423-4.269-10.962v-209.23q0-6.539 4.485-10.962Q170.509-660 177.139-660t10.899 4.423q4.27 4.423 4.27 10.962v209.23q0 6.539-4.486 10.962Q183.337-420 176.707-420Zm151.216 300q-23.058 0-39.221-16.163-16.164-16.164-16.164-39.221v-609.232q0-23.057 16.164-39.221Q304.865-840 327.923-840h304.385q23.058 0 39.221 16.163 16.164 16.164 16.164 39.221v609.232q0 23.057-16.164 39.221Q655.366-120 632.308-120H327.923Zm329-86.154H303.308v30.77q0 9.23 7.692 16.923 7.692 7.692 16.923 7.692h304.385q9.231 0 16.923-7.692 7.692-7.693 7.692-16.923v-30.77ZM303.308-753.846h353.615v-30.77q0-9.23-7.692-16.923-7.692-7.692-16.923-7.692H327.923q-9.231 0-16.923 7.692-7.692 7.693-7.692 16.923v30.77ZM782.861-300q-6.63 0-10.899-4.423-4.27-4.423-4.27-10.962v-209.23q0-6.539 4.486-10.962Q776.663-540 783.293-540t10.9 4.423q4.269 4.423 4.269 10.962v209.23q0 6.539-4.485 10.962Q789.491-300 782.861-300ZM893.63-420q-6.63 0-10.899-4.423-4.269-4.423-4.269-10.962v-209.23q0-6.539 4.485-10.962T894.062-660q6.631 0 10.9 4.423t4.269 10.962v209.23q0 6.539-4.485 10.962T893.63-420ZM303.308-753.846v-55.385 55.385Zm0 547.692v55.385-55.385Zm0-30.769h353.615v-486.154H303.308v486.154Z"/></svg>