<svg xmlns="http://www.w3.org/2000/svg" width="48" height="48" viewBox="0 -960 960 960"><path d="M215.384-404.615q-6.538 0-10.961-4.486Q200-413.586 200-420.216t4.423-10.9q4.423-4.269 10.961-4.269h258.462q6.538 0 10.961 4.485 4.424 4.486 4.424 11.116t-4.424 10.899q-4.423 4.27-10.961 4.27H215.384Zm0-162.693q-6.538 0-10.961-4.481T200-582.895q0-5.874 4.423-10.528 4.423-4.654 10.961-4.654h423.077q6.539 0 10.962 4.856t4.423 11.116q0 6.259-4.423 10.528t-10.962 4.269H215.384Zm0-161.923q-6.538 0-10.961-4.485T200-744.831q0-6.631 4.423-10.9T215.384-760h423.077q6.539 0 10.962 4.485t4.423 11.115q0 6.631-4.423 10.9t-10.962 4.269H215.384Zm313.847 501.539v-50.231q0-4.462 2-9.462t6.196-9.19L742.46-500.579q5.984-5.983 12.358-8.087 6.373-2.103 12.61-2.103 6.803 0 13.436 2.577 6.632 2.577 12.059 7.73l37 37.77q5.154 5.923 7.616 12.307Q840-444 840-437.615q0 6.384-2.961 12.884-2.962 6.5-7.429 12.548L625.825-208.187Q621.616-204 616.616-202t-9.462 2h-50.231q-11.769 0-19.731-7.961-7.961-7.962-7.961-19.731Zm275.384-209.923-37-37.77 37 37.77Zm-240 202.23h38l138.693-138.922-18.77-19-18.23-19.539-139.693 139.461v38Zm157.923-157.922-18.23-19.539 37 38.539-18.77-19Z"/></svg>