<svg xmlns="http://www.w3.org/2000/svg" width="48" height="48" viewBox="0 96 960 960"><path d="M718.231 613.077V276H749v306.308l-30.769 30.769ZM220 885.231V276h30.769v609.231H220Zm249.231-481.692V276H500v127.539h-30.769Zm0 240.461V517.231H500V644h-30.769Zm0 241.231V757.692H500v127.539h-30.769Zm300.384-212.924 37.231 36.539-177.154 176.385h-37v-37.77l176.923-175.154Zm58.078 14.924-37.001-36.77 32.77-32.538q8.498-8.231 19.71-8.116 11.213.116 18.444 6.577l-.847.154q8.231 7.564 7.847 19.244-.385 11.679-9.385 19.91l-31.538 31.539Z"/></svg>