<svg xmlns="http://www.w3.org/2000/svg" width="48" height="48" viewBox="0 -960 960 960"><path d="M527.692-140q-11.769 0-19.731-7.961Q500-155.923 500-167.692v-12.077q0-5.298 2-10.264 2-4.967 6.119-9.086l198.266-198.266 51 51-198.3 198.3Q555-144 550.033-142q-4.966 2-10.264 2h-12.077ZM155.385-344.615q-6.539 0-10.962-4.485Q140-353.586 140-360.216t4.423-10.899q4.423-4.27 10.962-4.27h258.461q6.539 0 10.962 4.485 4.423 4.486 4.423 11.116t-4.423 10.899q-4.423 4.27-10.962 4.27H155.385Zm637.307-37.077-51-51 29-29q4.465-4.154 10.694-4.154 6.229 0 11.306 4.154l29 29q4.154 5.388 4.154 11.617 0 6.229-4.154 10.383l-29 29ZM155.385-507.308q-6.539 0-10.962-4.481T140-522.895q0-5.874 4.423-10.528 4.423-4.654 10.962-4.654h423.076q6.539 0 10.962 4.856 4.423 4.857 4.423 11.116 0 6.259-4.423 10.528t-10.962 4.269H155.385Zm0-161.923q-6.539 0-10.962-4.485T140-684.831q0-6.631 4.423-10.9T155.385-700h423.076q6.539 0 10.962 4.485t4.423 11.115q0 6.631-4.423 10.9t-10.962 4.269H155.385Z"/></svg>