<svg xmlns="http://www.w3.org/2000/svg" width="48" height="48" viewBox="0 -960 960 960"><path d="M479.864-104.615q-26.71 0-45.595-18.981-18.884-18.981-18.884-45.635h129.23q0 26.846-19.02 45.731-19.021 18.885-45.731 18.885ZM264.615-240v-327.846q0-78.481 49.116-139.279Q362.846-767.923 440-781.462V-800q0-16.667 11.64-28.334Q463.28-840 479.91-840q16.629 0 28.359 11.666Q520-816.667 520-800v18.923q33.154 6.462 61.346 21.615 28.193 15.154 51.193 38.308l-22.462 22.462q-25-25.154-58.315-39.462-33.316-14.307-71.762-14.307-76.538 0-130.577 54.038-54.038 54.038-54.038 130.577V-240h369.23v-224.769l30.77-30.77V-240h49.231q6.538 0 10.961 4.485T760-224.399q0 6.63-4.423 10.899-4.423 4.269-10.961 4.269H215.384q-6.538 0-10.961-4.485T200-224.831q0-6.631 4.423-10.9T215.384-240h49.231ZM480-496.615Zm51.615 54.846h-20.119q-5.368 0-9.74-4.269-4.371-4.27-4.371-9.962v-20.186q0-4.37 2-9.284 2-4.915 7-9.145l200-201.539L751-651.538 550.231-450q-4.231 4.231-9.206 6.231t-9.41 2Zm246.924-237.308 31.769-31.769q5.077-5.077 5.077-10.039 0-4.961-5.231-10.192l-24.692-25.462q-5-4.23-9.731-4.23t-9.039 4.307l-32.769 32.77 44.616 44.615Z"/></svg>