<svg xmlns="http://www.w3.org/2000/svg" width="48" height="48" viewBox="0 -960 960 960"><path d="M372.692-440h3q2.77 0 10.77-4l147.384-147.615-22.231-22.231L364-466.462q-1.539 1.539-4 10.77v3q0 6 3.346 9.346t9.346 3.346Zm191.847-182.308 23.153-23.153q2.231-2.231 2.231-5.962t-2.231-5.962l-10.307-10.307q-2.231-2.231-5.962-2.231t-5.962 2.231l-23.153 23.153 22.231 22.231ZM480-137.462q129.923-113.307 199.577-225.269Q749.231-474.692 749.231-552q0-121.846-77.808-199.538Q593.615-829.231 480-829.231t-191.423 77.693Q210.769-673.846 210.769-552q0 77.308 70.385 189.269Q351.538-250.769 480-137.462Zm0 30.847q-5.231 0-10.462-1.616-5.23-1.615-9.461-4.846-141.308-128.692-210.692-239.538Q180-463.461 180-552q0-140.769 90.731-224.385Q361.461-860 480-860t209.269 83.615Q780-692.769 780-552q0 88.539-69.385 199.385-69.384 110.846-210.692 239.538-3.461 3.231-8.577 4.846-5.115 1.616-11.346 1.616ZM480-552Z"/></svg>