<svg xmlns="http://www.w3.org/2000/svg" width="48" height="48" viewBox="0 96 960 960"><path d="M199.911 796q-39.706 0-67.501-27.81t-27.795-67.538q0-40.049 27.795-68.351Q160.205 604 199.911 604q32.166 0 61.243 19.846 29.077 19.846 35.538 59.692h256.154q5.692-73.538 57-126.423 51.308-52.884 121.769-58.961l-64.359-292.923q-2.308-8.462-9.231-13.462t-13.846-5H527.538q-6.538 0-10.961-4.485t-4.423-11.115q0-6.631 4.423-10.9T527.538 156h111.494q20.102 0 37.934 12.805Q694.799 181.61 700.077 204l68.615 319.846h-8.923q-73.909 0-125.493 51.878-51.584 51.877-51.584 126.199v12.385h-286q-6.461 40.307-35.538 61Q232.077 796 199.911 796Zm560.125 1.539q-40.049 0-68.35-27.81-28.301-27.81-28.301-67.539 0-40.049 28.047-68.35 28.048-28.302 68.116-28.302 40.067 0 67.952 28.048 27.885 28.047 27.885 68.115t-27.81 67.953q-27.81 27.885-67.539 27.885ZM519.923 1002.15 320.154 900.538h130.769v-69l199.769 102.616H519.923v67.996Z"/></svg>