<svg xmlns="http://www.w3.org/2000/svg" width="48" height="48" viewBox="0 -960 960 960"><path d="M521.54-122.85v46.31q0 7.46-6.62 11.46-6.61 4-14.08.63L347.46-143q-5-2.23-3.45-7.35 1.54-5.11 6.45-5.11H454v-46.08q0-7.46 6.62-11.08 6.61-3.61 14.08-.24l153.38 77.55q5 2.95 3.43 7.71-1.57 4.75-6.66 4.75H521.54ZM215.08-324.67q-28.62-29.05-28.62-69.48h-51.08q-11.78 0-19.74-8.34-7.95-8.34-7.95-19.36v-72.3q0-58.08 40-98.2 40-40.11 98.08-40.11h81.92q22.25 0 38.82 16.18t16.57 39.2v152.16h178.69l153.92-191.93v-115.69q0-10.77-6.92-17.69-6.92-6.92-17.69-6.92h-80.7q-6.55 0-10.97-4.48-4.41-4.47-4.41-11.11t4.41-10.91q4.42-4.27 10.97-4.27h80.7q23.02 0 39.2 16.18 16.18 16.18 16.18 39.2v105.36q0 10.56-3.01 18.84T735-592.92l-140.08 177.3q-7.35 8.99-19.02 15.23t-24.13 6.24H383.08q0 40.3-28.29 69.42-28.29 29.11-69.7 29.11-41.4 0-70.01-29.05Zm117.27-21.79q19.96-20.08 19.96-47.69H217.23q0 27.61 19.96 47.69t47.58 20.08q27.61 0 47.58-20.08ZM367.69-714H243.08q-6.56 0-10.97-4.47-4.42-4.47-4.42-11.12 0-6.64 4.42-10.91 4.41-4.27 10.97-4.27h124.61q6.56 0 10.97 4.47 4.42 4.47 4.42 11.12 0 6.64-4.42 10.91-4.41 4.27-10.97 4.27Zm316.62 390.1q-28.62-28.29-28.62-69.7 0-41.4 28.29-70.02 28.29-28.61 69.69-28.61 41.41 0 70.02 28.29 28.62 28.29 28.62 69.69t-28.29 70.02q-28.29 28.61-69.69 28.61-41.41 0-70.02-28.28Zm117.27-22.45q19.96-19.96 19.96-47.57 0-27.62-19.96-47.58-19.96-19.96-47.58-19.96-27.62 0-47.58 19.96-19.96 19.96-19.96 47.58 0 27.61 19.96 47.57 19.96 19.97 47.58 19.97 27.62 0 47.58-19.97Z"/></svg>