<svg xmlns="http://www.w3.org/2000/svg" width="48" height="48" viewBox="0 -960 960 960"><path d="M521.538-122.846v46.308q0 7.394-6.615 11.428-6.615 4.033-14.081.66L347.461-143q-5-2.231-3.454-7.346 1.545-5.116 6.454-5.116H454v-46.077q0-7.461 6.615-11.076 6.616-3.616 14.082-.243l153.38 77.55q5 2.948 3.605 7.705t-6.836 4.757H521.538ZM285.095-295.615q-41.403 0-70.018-29.116-28.616-29.115-28.616-69.423h-51.077q-11.769 0-19.73-8.336-7.962-8.337-7.962-19.356v-72.308q0-58.26 40-98.284 40-40.024 98.077-40.024h81.923q22.25 0 38.818 16.269 16.567 16.27 16.567 39.116v152.154h178.692l153.923-191.923v-115.693q0-10.769-6.923-17.692t-17.692-6.923h-80.692q-6.539 0-10.962-4.485T595-772.755q0-6.63 4.423-10.899 4.423-4.269 10.962-4.269h80.692q22.846 0 39.115 16.269 16.27 16.269 16.27 39.115v105.359q0 10.565-3.034 18.791-3.034 8.227-8.428 15.466L594.923-415.615q-7.349 8.989-19.02 15.225-11.672 6.236-24.134 6.236H383.077q0 40.308-28.29 69.423-28.289 29.116-69.692 29.116Zm67.213-129.308Zm-67.539 98.538q27.616 0 47.577-20.077 19.962-20.077 19.962-47.692H217.231q0 27.615 19.961 47.692 19.962 20.077 47.577 20.077ZM367.692-714H243.077q-6.539 0-10.962-4.485t-4.423-11.116q0-6.63 4.423-10.899 4.423-4.27 10.962-4.27h124.615q6.539 0 10.962 4.486 4.423 4.485 4.423 11.115t-4.423 10.9Q374.231-714 367.692-714Zm386.634 418.385q-41.403 0-70.018-28.29-28.616-28.29-28.616-69.692 0-41.403 28.29-70.018 28.29-28.616 69.692-28.616 41.403 0 70.018 28.29 28.616 28.289 28.616 69.692 0 41.403-28.29 70.018-28.289 28.616-69.692 28.616Zm-.326-30.77q27.615 0 47.577-19.961 19.961-19.962 19.961-47.577T801.577-441.5Q781.615-461.461 754-461.461T706.423-441.5q-19.961 19.962-19.961 47.577t19.961 47.577q19.962 19.961 47.577 19.961Zm-615.538-98.538h213.846v-152.154q0-10.769-6.923-17.692-6.924-6.923-17.693-6.923h-81.671q-44.656 0-76.108 31.589-31.451 31.589-31.451 75.949v69.231Z"/></svg>