<svg xmlns="http://www.w3.org/2000/svg" width="48" height="48"><path d="M8 28q0 4.75 2.75 8.375T17.8 41.4q-1.2-.95-1.875-2.35-.675-1.4-.675-2.95 0-1.3.5-2.5t1.45-2.2l4.8-4.7 4.85 4.7q.9 1 1.4 2.2.5 1.2.5 2.5 0 1.55-.675 2.95-.675 1.4-1.875 2.35 4.3-1.4 7.05-5.025Q36 32.75 36 28q0-3.15-1.275-5.95-1.275-2.8-3.575-4.75-.35-.3-.775-.275-.425.025-.825.325-.8.6-1.675.925-.875.325-1.825.325-2.35 0-4.15-1.6-1.8-1.6-1.8-3.55V12.2q0-.85-.8-1.25t-1.55.15q-4.55 3.35-7.15 7.85Q8 23.45 8 28zm14 .85-3.7 3.65q-.75.75-1.15 1.65-.4.9-.4 1.95 0 2.1 1.525 3.625T22 41.25q2.2 0 3.725-1.525T27.25 36.1q0-1.05-.425-1.95-.425-.9-1.125-1.65zm20.25-8.1q-.35 0-.575-.2-.225-.2-.225-.55 0-.35.225-.55.225-.2.575-.2.3 0 .525.2.225.2.225.55 0 .35-.225.55-.225.2-.525.2zm0-5.5q-.35 0-.575-.225-.225-.225-.225-.575v-6.7q0-.3.225-.525Q41.9 7 42.25 7q.3 0 .525.225.225.225.225.525v6.7q0 .35-.225.575-.225.225-.525.225z"/></svg>