<svg xmlns="http://www.w3.org/2000/svg" width="48" height="48" viewBox="0 -960 960 960"><path d="M403.846-453.384V-320q0 6.577 4.458 10.981t11.116 4.404q6.657 0 10.926-4.404T434.615-320v-133.384l123.308 71.076q5.615 2.923 11.513 1.351 5.897-1.573 8.654-7.846 3.525-4.735 1.679-10.966-1.846-6.231-6.692-9.154L450-480l123.077-71.077q4.846-2.923 6.692-8.769t-1.679-12.12q-3.064-5.434-8.808-7.042-5.744-1.607-11.359 1.316l-123.308 71.076V-640q0-6.577-4.458-10.981t-11.115-4.404q-6.658 0-10.927 4.404-4.269 4.404-4.269 10.981v133.384l-121.769-71.076q-6.385-2.923-12.128-1.316-5.744 1.608-8.808 7.042-3.526 6.274-2.081 11.979 1.445 5.706 7.863 8.91L388.461-480l-121.538 71.077q-6.418 3.204-7.863 8.91-1.445 5.705 2.081 11.21 2.756 6.273 8.654 7.846 5.897 1.572 12.282-1.351l121.769-71.076ZM194.615-200q-23.058 0-39.221-16.163-16.164-16.164-16.164-39.221v-449.232q0-23.057 16.164-39.221Q171.557-760 194.615-760h449.231q23.058 0 39.221 16.163 16.164 16.164 16.164 39.221v201.924l97.077-97.078q6.231-6.23 15.346-3.041 9.116 3.189 9.116 12.272v221.078q0 9.083-9.116 12.272-9.115 3.189-15.346-3.041l-97.077-97.847v202.693q0 23.057-16.164 39.221Q666.904-200 643.846-200H194.615Zm0-30.769h449.231q10.769 0 17.692-6.923t6.923-17.692v-449.232q0-10.769-6.923-17.692t-17.692-6.923H194.615q-10.769 0-17.692 6.923T170-704.616v449.232q0 10.769 6.923 17.692t17.692 6.923Zm-24.615 0v-498.462 498.462Z"/></svg>