<svg xmlns="http://www.w3.org/2000/svg" width="48" height="48" viewBox="0 96 960 960"><path d="M480 896q-66.539 0-124.731-25.038-58.192-25.039-101.692-68.539-43.5-43.5-68.539-101.692Q160 642.539 160 576q0-66.539 25.038-124.731 25.039-58.192 68.539-101.692 43.5-43.5 101.692-68.539Q413.461 256 480 256q66.539 0 124.731 25.038 58.192 25.039 101.692 68.539 43.5 43.5 68.539 101.692Q800 509.461 800 576q0 66.539-25.038 124.731-25.039 58.192-68.539 101.692-43.5 43.5-101.692 68.539Q546.539 896 480 896ZM190.769 576q0 104.308 66 183.654 66 79.346 168.154 98.961-48.385-50.692-73.962-122.192-25.577-71.5-25.577-155.038 0-88.923 28.77-163.885 28.769-74.961 82.307-127.192-106.769 15.769-176.23 96.654Q190.769 467.846 190.769 576Zm317 288.231q103.616-10.769 176.654-83.808 73.039-73.038 83.808-176.654L507.769 864.231ZM473 862l296-296q-.461-25.385-5.731-49.385-5.269-24-14.038-46.846L417.846 801.923q11.769 17.077 25.308 32.039Q456.692 848.923 473 862Zm-68.923-84.077 333.308-334.077q-9.539-17.846-21.077-34.423-11.539-16.577-25.616-31.885L371.231 698.539q5.769 20.615 13.923 40.346 8.154 19.73 18.923 39.038Zm-39.462-109.308 308.847-308.307q-16.308-14.077-33.77-25.5-17.461-11.423-36.307-20.193L356.923 560.308q-1.308 28.384.692 55.154 2 26.769 7 53.153Zm-4.154-148.076 217.001-216.77q-20.462-7.231-41.808-11.615-21.346-4.385-43.577-5.385-54.308 36.077-88.077 96.308-33.769 60.231-43.539 137.462Zm76-230.231Z"/></svg>