<svg xmlns="http://www.w3.org/2000/svg" width="48" height="48" viewBox="0 96 960 960"><path d="M816 932.231q-5.154 5.154-11.615 5.154-6.462 0-10.616-5.154l-80.923-79.923q-48.923 41.077-108.769 62.385Q544.231 936 481 936q-74.539 0-140.231-28.423t-114.308-77.038q-48.615-48.616-77.038-114.308Q121 650.539 121 576q0-63.231 21.307-123.077 21.308-59.846 62.385-108.769l-80.923-81.692q-4.385-4.385-3.885-10.731T124.769 241q4.154-4.154 10.615-4.154 6.462 0 11.616 4.154l669.769 670q3.616 4.385 3.116 10.731t-3.885 10.5Zm-34.846-155.923L572.231 567.385l76-138.385q5.769-9-2.115-17.385-7.885-8.384-17.885-2.615l-138.847 75.538-208.692-208.692q43.077-28.308 93.462-44.077Q424.538 216 481 216q74.769 0 140.462 27.923 65.692 27.923 114.692 76.923t76.923 114.692Q841 501.231 841 576q0 56.462-15.769 106.846-15.769 50.385-44.077 93.462Zm-446.385-32.385 174.692-95-97.23-97.231-97.462 172.231q-5.769 10 2.115 18.27 7.885 8.269 17.885 1.73Z"/></svg>