<svg xmlns="http://www.w3.org/2000/svg" width="48" height="48" viewBox="0 -960 960 960"><path d="M209.461-325.307q-14.231 10.23-29.077 2.5-14.846-7.731-14.846-24.962v-264.462q0-17.231 14.846-24.962 14.846-7.73 29.077 2.5l193.001 131.231q12.23 9 12.23 23.462t-12.23 23.462L209.461-325.307Zm358.539 0q-14.231 10.23-29.077 2.5-14.846-7.731-14.846-24.962v-264.462q0-17.231 14.846-24.962 14.846-7.73 29.077 2.5l193 131.231q12.231 9 12.231 23.462T761-456.538L568-325.307ZM196.307-480Zm358.539 0ZM196.307-354.231 382.692-480 196.307-606.538v252.307Zm358.539 0L741.231-480 554.846-606.538v252.307Z"/></svg>