<svg xmlns="http://www.w3.org/2000/svg" width="48" height="48" viewBox="0 -960 960 960"><path d="M792.769-123.769 715.538-200H255.384q-23.23 0-39.307-16.077T200-255.384v-90.693q0-6.596 4.444-10.99 4.445-4.395 11.116-4.395 6.671 0 10.94 4.395 4.269 4.394 4.269 10.99v90.693q0 9.23 7.692 16.923 7.693 7.692 16.923 7.692h429.385L531-384.538l-31.538 31.307q-4.231 5-8.731 7.385t-11.5 2.385q-6.188 0-9.555-2-3.368-2-8.603-7.235l-107.689-106.92q-5.154-5.153-4.538-12 .615-6.846 6.308-11.769 6.23-6.231 14.115-6.846 7.885-.615 15.346 3.692l60.769 60v-44.615L123.769-792.769q-5.154-5.154-5.154-11.142 0-5.988 5.207-10.984 4.452-4.259 10.738-4.259T146-815l669 669.231q4.154 5.234 4.154 11.54 0 6.306-4.452 10.59-5.207 5.024-11.493 5.024-6.286 0-10.44-5.154ZM760-298.923l-32.308-32.308v-14.077q0-8.384 5.193-13.038Q738.077-363 744.616-363q6.596 0 10.99 4.394Q760-354.211 760-347.615v48.692ZM592.154-453.615l-22.231-22.462 17.539-17.539q3.615-3.615 9.192-3.23 5.577.384 10.731 5.538t5.538 11.453q.385 6.299-3.23 8.701l-17.539 17.539Zm-96.769-110.846-30.77-30.77v-149.385q0-6.596 4.445-10.99T480.175-760q6.671 0 10.94 4.394 4.27 4.394 4.27 10.99v180.155Z"/></svg>