<svg xmlns="http://www.w3.org/2000/svg" width="48" height="48" viewBox="0 -960 960 960"><path d="M480.264-240.769q51.044 0 85.39-37.664Q600-316.096 600-367.692v-163.077q0-5.423-2.673-8.096t-8.096-2.673q-5.423 0-8.096 2.673t-2.673 8.096v163.077q0 42.769-27.981 74.077Q522.5-262.308 480-262.308q-42 0-70.231-31.307-28.231-31.308-28.231-74.077v-218.462q0-20.307 12.27-34.384 12.269-14.077 31.577-14.077 19.538 0 31.692 14.077t12.154 34.384v198.462q0 5.423 2.673 8.096t8.096 2.673q5.423 0 8.096-2.673t2.673-8.096v-198.462q0-28.215-18.846-49.108-18.847-20.892-46.116-20.892-28.038 0-46.922 20.892Q360-614.369 360-586.154v218.462q0 51.596 34.664 89.259 34.664 37.664 85.6 37.664ZM255.384-120q-23.23 0-39.307-16.077T200-175.384v-609.232q0-23.23 16.077-39.307T255.384-840h324.847L760-660.231v484.847q0 23.23-16.077 39.307T704.616-120H255.384Zm310.924-689.231V-674q0 11.212 8.24 19.452 8.24 8.24 19.452 8.24h135.231L566.308-809.231Z"/></svg>