<svg xmlns="http://www.w3.org/2000/svg" width="48" height="48" viewBox="0 -960 960 960"><path d="M587.615-547.308v162.385q0 6.577 4.458 10.981 4.459 4.404 11.116 4.404t10.926-4.404q4.27-4.404 4.27-10.981v-331.923q0-6.577-4.458-10.981-4.459-4.404-11.116-4.404t-10.926 4.404q-4.27 4.404-4.27 10.981v138.769H453.769v-138.769q0-6.577-4.458-10.981t-11.115-4.404q-6.658 0-10.927 4.404Q423-723.423 423-716.846V-575q0 11.962 7.865 19.827 7.866 7.865 19.827 7.865h136.923Zm-290.692 285.77q-23.058 0-39.221-16.164-16.164-16.163-16.164-39.221v-467.693q0-23.057 16.164-39.221Q273.865-840 296.923-840h467.693q23.057 0 39.221 16.163Q820-807.673 820-784.616v467.693q0 23.058-16.163 39.221-16.164 16.164-39.221 16.164H296.923Zm0-30.769h467.693q9.23 0 16.923-7.693 7.692-7.692 7.692-16.923v-467.693q0-9.23-7.692-16.923-7.693-7.692-16.923-7.692H296.923q-9.231 0-16.923 7.692-7.692 7.693-7.692 16.923v467.693q0 9.231 7.692 16.923 7.692 7.693 16.923 7.693ZM195.384-160q-23.057 0-39.221-16.163Q140-192.326 140-215.384v-483.078q0-6.577 4.458-10.981 4.458-4.403 11.115-4.403 6.658 0 10.927 4.403 4.269 4.404 4.269 10.981v483.078q0 9.231 7.692 16.923 7.693 7.692 16.923 7.692h483.078q6.577 0 10.981 4.458t4.404 11.116q0 6.657-4.404 10.926T678.462-160H195.384Zm76.924-649.231v516.924-516.924Z"/></svg>