<svg xmlns="http://www.w3.org/2000/svg" width="48" height="48" viewBox="0 -960 960 960"><path d="M255.615-200q-73.384 0-124.5-51.115Q80-302.231 80-375.615q0-71.154 49.423-120.962 49.423-49.808 121.346-49.808 67.231 0 115.692 42.577 48.462 42.577 54.616 108.116.461 6.615 5.115 11.154Q430.846-380 437.231-380q6.307 0 10.692-4.5t3.923-10.346q-5.615-74.231-60.731-127.846Q336-576.308 246.538-577.154q20.385-80.462 87-131.654Q400.154-760 480.231-760q98.154 0 166.038 70.577 67.885 70.577 67.885 168.192v51.692h24.615q60.923 0 101.077 37.616Q880-394.308 880-335.154q0 55.923-39.615 95.539Q800.769-200 744.846-200H255.615Z"/></svg>