<svg xmlns="http://www.w3.org/2000/svg" width="48" height="48" viewBox="0 -960 960 960"><path d="m494.462-413.769-55.231-65.846q-4.231-4.462-10.846-4.347-6.616.116-10.846 6.116l-41.462 53.769q-5 7.231-1.273 14.846 3.728 7.616 11.734 7.616h288.693q8.423 0 12.327-7.616 3.904-7.615-1.096-14.846l-77.77-105.615q-4.23-5.231-11.23-5.231t-11.231 5.231l-91.769 115.923ZM296.923-261.538q-23.058 0-39.221-16.164-16.164-16.163-16.164-39.221v-467.693q0-23.057 16.164-39.221Q273.865-840 296.923-840h467.693q23.057 0 39.221 16.163Q820-807.673 820-784.616v467.693q0 23.058-16.163 39.221-16.164 16.164-39.221 16.164H296.923ZM195.384-160q-23.057 0-39.221-16.163Q140-192.326 140-215.384v-483.078q0-6.827 4.282-11.106 4.283-4.278 11.116-4.278 6.833 0 11.102 4.278 4.269 4.279 4.269 11.106v483.078q0 9.231 7.692 16.923 7.693 7.692 16.923 7.692h483.078q6.827 0 11.106 4.283t4.279 11.115q0 6.833-4.279 11.102T678.462-160H195.384Z"/></svg>