<svg xmlns="http://www.w3.org/2000/svg" width="48" height="48" viewBox="0 -960 960 960"><path d="M437.692-280q-6.538 0-10.961-4.485t-4.423-11.115q0-6.631 4.423-10.9t10.961-4.269h83.847q6.538 0 10.961 4.485t4.423 11.115q0 6.631-4.423 10.9T521.539-280h-83.847Zm-150-184.615q-6.538 0-10.961-4.485-4.424-4.486-4.424-11.116t4.424-10.899q4.423-4.27 10.961-4.27h383.847q6.538 0 10.961 4.485 4.423 4.486 4.423 11.116t-4.423 10.899q-4.423 4.27-10.961 4.27H287.692ZM175.384-649.231q-6.538 0-10.961-4.485T160-664.831q0-6.631 4.423-10.9T175.384-680h609.232q6.538 0 10.961 4.485T800-664.4q0 6.631-4.423 10.9t-10.961 4.269H175.384Z"/></svg>