<svg xmlns="http://www.w3.org/2000/svg" width="48" height="48" viewBox="0 96 960 960"><path d="M480 699.385q34.692 0 58.923-23.847 24.231-23.846 24.231-59.307 0-34.693-24.231-58.923-24.231-24.231-58.923-24.231t-58.923 24.231q-24.231 24.23-24.231 58.923 0 35.461 24.231 59.307 24.231 23.847 58.923 23.847ZM255.384 936q-23.23 0-39.307-16.077T200 880.616V271.384q0-23.23 16.077-39.307T255.384 216h322.77L760 429.615v445.847l-189.769-189q11.462-15.231 17.577-32.385 6.115-17.154 6.115-37.846 0-48.154-32.884-81.039-32.885-32.885-81.039-32.885t-81.039 32.885q-32.884 32.885-32.884 81.039t32.884 81.038q32.885 32.885 81.039 32.885 19.154 0 35.577-4.615 16.423-4.616 34.115-16.616L752.308 910.77q-8 11.846-20.923 18.538Q718.462 936 704.616 936H255.384Z"/></svg>