<svg xmlns="http://www.w3.org/2000/svg" width="48" height="48" viewBox="0 96 960 960"><path d="M255.169 916q-6.631 0-10.9-4.423T240 900.615V323.692q0-11.769 7.961-19.731Q255.923 296 267.692 296h229.77q8.876 0 17.168 6.115 8.293 6.116 10.293 16.346l12.462 60.462h194.923q11.769 0 19.731 7.873Q760 394.67 760 406.309v251.398q0 10.889-7.961 19.13-7.962 8.24-19.731 8.24H586.461q-9.901 0-17.681-6-7.78-6-9.78-16.231l-13.231-60.461h-275v298.23q0 6.539-4.485 10.962T255.169 916ZM500 490.154Zm90.385 164.154h138.846V409.692h-219l-17.462-82.923h-222v244.846h302.154l17.462 82.693Z"/></svg>