<svg xmlns="http://www.w3.org/2000/svg" width="48" height="48" viewBox="0 -960 960 960"><path d="M104.615-464.615q-6.788 0-11.086-4.31T89.23-480.04q0-6.806 4.298-11.075 4.298-4.27 11.086-4.27H270.46q6.789 0 11.087 4.31t4.298 11.115q0 6.806-4.298 11.075-4.298 4.27-11.087 4.27H104.615Zm214.616-154.154-49-49q-3.385-3.868-3.385-9.857 0-5.989 4.552-11.311 4.987-4.217 10.833-4.217t11 4.385l49 49q4.154 4.064 4.154 10.34 0 6.275-4.987 10.86-5.321 4.954-11.167 4.954-5.847 0-11-5.154Zm160.742-55.385q-6.588 0-10.973-4.269-4.385-4.269-4.385-10.116v-167.846q0-5.846 4.412-10.115 4.412-4.27 11-4.27T491-866.5q4.385 4.269 4.385 10.115v167.846q0 5.847-4.412 10.116-4.412 4.269-11 4.269Zm138.596 55.552q-4.954-5.321-4.954-11.167 0-5.847 5.154-11l49-49q3.868-3.385 9.857-3.385 5.989 0 11.311 4.552 4.217 4.987 4.217 10.833t-4.385 11l-49 49q-4.064 4.154-10.34 4.154-6.275 0-10.86-4.987Zm70.97 153.987q-6.789 0-11.087-4.31t-4.298-11.115q0-6.806 4.298-11.075 4.298-4.27 11.087-4.27h165.846q6.788 0 11.086 4.31 4.299 4.31 4.299 11.115 0 6.806-4.299 11.075-4.298 4.27-11.086 4.27H689.539ZM480-408q-31.013 0-51.507-20.493Q408-448.987 408-480q0-31.013 20.493-51.507Q448.987-552 480-552q31.013 0 51.507 20.493Q552-511.013 552-480q0 31.013-20.493 51.507Q511.013-408 480-408Zm188.692 138.692-50.923-50.923q-4.154-4.064-4.154-10.34 0-6.275 4.987-10.86 5.321-4.954 11.167-4.954 5.847 0 11 5.154l50.923 50.923q4.154 3.868 4.154 9.857 0 5.99-5.321 11.311-4.986 4.986-10.833 4.986-5.846 0-11-5.154Zm-399.552-.167q-4.986-4.986-4.986-10.833 0-5.846 5.154-11l50.923-50.923q4.064-4.154 10.34-4.154 6.275 0 10.86 4.987 4.954 5.321 4.954 11.167 0 5.847-5.154 11l-50.923 50.923q-3.868 4.154-9.857 4.154-5.99 0-11.311-5.321ZM479.96-89.23q-6.806 0-11.075-4.299-4.27-4.298-4.27-11.086v-165.846q0-6.789 4.31-11.087t11.115-4.298q6.806 0 11.075 4.298 4.27 4.298 4.27 11.087v165.846q0 6.788-4.31 11.086T479.96-89.23Z"/></svg>