<svg xmlns="http://www.w3.org/2000/svg" width="48" height="48" viewBox="0 96 960 960"><path d="M420 936q-22.25 0-38.818-16.567-16.567-16.567-16.567-38.817V522.231L280 396.385v-51.308h400v51.308l-84.615 125.846v358.385q0 22.25-16.567 38.817Q562.25 936 540 936H420Zm59.733-233.692q15.113 0 25.498-10.118 10.384-10.117 10.384-25.231 0-15.113-10.117-25.497-10.118-10.385-25.231-10.385-15.113 0-25.498 10.118-10.384 10.117-10.384 25.23 0 15.114 10.117 25.498 10.118 10.385 25.231 10.385ZM280 314.308v-42.924q0-22.25 16.567-38.817T335.384 216h289.232q22.25 0 38.817 16.567T680 271.384v42.924H280Z"/></svg>