<svg xmlns="http://www.w3.org/2000/svg" width="48" height="48" viewBox="0 -960 960 960"><path d="M150.231-140q-6.808 0-11.096-4.296-4.289-4.296-4.289-11.116 0-6.819 4.289-11.088 4.288-4.269 11.096-4.269h649.231q6.807 0 11.096 4.296 4.288 4.296 4.288 11.115 0 6.82-4.288 11.089Q806.269-140 799.462-140H150.231Zm63.461-212.461q-9.231 3-18.346-.616-9.115-3.615-13.346-12.615l-65-112.616q-3.923-7.154-1.603-13.443 2.321-6.29 10.548-7.34 2.593-.14 5.918.392 3.324.531 5.752 2.622L204-439l232.923-61.769-154.615-259.462q-5.154-8.077-1.928-16.391 3.225-8.315 13.403-11.81 3.986-1.03 9.14.201t8.846 3.923l271 242.693 216.77-57.231q20.076-5.693 36.692 7.141 16.615 12.835 16.615 33.474 0 14.193-8.038 25.827-8.039 11.635-21.423 14.327L213.692-352.461Z"/></svg>