<svg xmlns="http://www.w3.org/2000/svg" width="48" height="48" viewBox="0 96 960 960"><path d="M155.154 916q-6.789 0-11.087-4.31-4.298-4.309-4.298-11.115t4.298-11.075q4.298-4.269 11.087-4.269h649.461q6.789 0 11.087 4.309Q820 893.85 820 900.656t-4.298 11.075Q811.404 916 804.615 916H155.154Zm609.538-207.154L160.461 541q-9.31-2.845-14.886-10.457Q140 522.931 140 514.308V379.846q0-6.179 4.846-9.705t12-2.328q2.308 1.066 4.231 2.953 1.923 1.888 3 4.157l28.317 85.601L424.385 526V228.769q0-11.615 7.5-17.384 7.5-5.77 19.115-3.077 3.154.461 6.077 3.269 2.923 2.808 4.154 6.731l110.227 348.079 217.081 61.69q14.384 3.461 22.923 14.983Q820 654.581 820 669.635q0 20.904-16.981 32.904-16.981 12-38.327 6.307Z"/></svg>