<svg xmlns="http://www.w3.org/2000/svg" width="48" height="48" viewBox="0 96 960 960"><path d="M653.385 537.538 574.923 616l19.769 22.154L637.846 595q-5.461 78.308-50.154 129.692Q543 776.077 480 776.077q-13.692 0-24.692-1.154t-23.462-4.615l-24.154 21q16.923 5.923 34.808 10.731 17.885 4.807 37.5 4.807 76.846 0 131.385-61.538 54.538-61.539 57.23-153.923L716 638.154 735.769 616l-82.384-78.462Zm-346.77 160.077 78.462-78.461-19-22.154-43.923 43.154q5.461-78.308 50.154-129.692Q417 459.077 480 459.077q13.692 0 24.692 1.154t23.462 4.615l24.154-21q-16.923-5.923-34.808-10.731-17.885-4.807-37.5-4.807-76.846 0-131.385 61.538-54.538 61.539-57.23 153.923L244 597l-19 22.154 81.615 78.461ZM175.384 896q-23.23 0-39.307-16.077T120 840.616V394.538q0-23 16.077-39.192t39.307-16.192h127.77L376.923 256h206.154l73.769 83.154h127.77q23 0 39.192 16.192T840 394.538v446.078q0 23.23-16.192 39.307T784.616 896H175.384Z"/></svg>