<svg xmlns="http://www.w3.org/2000/svg" width="48" height="48" viewBox="0 -960 960 960"><path d="M286.923-135.385v-152.307q0-11.77 7.962-19.731 7.961-7.962 19.73-7.962h152.308v-152.307q0-11.77 7.962-19.731 7.961-7.962 19.73-7.962h152.308v-152.307q0-11.77 7.962-19.731 7.961-7.962 19.73-7.962h152.308v-129.23q0-6.539 4.485-10.962T842.524-820q6.63 0 10.899 4.423 4.269 4.423 4.269 10.962v132.307q0 11.77-7.961 19.731-7.962 7.962-19.731 7.962H677.692v152.307q0 11.77-7.961 19.731-7.962 7.962-19.731 7.962H497.692v152.307q0 11.77-7.961 19.731-7.962 7.962-19.731 7.962H317.692v152.307q0 11.77-7.961 19.731-7.962 7.962-19.731 7.962H157.692q-6.538 0-10.961-4.485-4.423-4.486-4.423-11.116t4.423-10.899q4.423-4.27 10.961-4.27h129.231Z"/></svg>