<svg xmlns="http://www.w3.org/2000/svg" width="48" height="48" viewBox="0 -960 960 960"><path d="M247.538-459.846v-41.077q0-22.693 15.962-39.039 15.961-16.346 39.423-16.346h354.154q23.462 0 39.423 16.346 15.962 16.346 15.962 39.039v41.077q0 22.692-15.962 39.038-15.961 16.347-39.423 16.347H302.923q-23.462 0-39.423-16.347-15.962-16.346-15.962-39.038Zm218.308-326.308v-60q0-6.846 4.269-11.115 4.27-4.27 11.116-4.27t11.115 4.27q4.269 4.269 4.269 11.115v60q0 6.846-4.269 11.116-4.269 4.269-11.115 4.269t-11.116-4.269q-4.269-4.27-4.269-11.116Zm256 84.769 36-36q4.385-4.384 10.616-4.769 6.23-.385 11.384 4.769t5.154 11q0 5.847-5.154 11l-36 36Q739.462-675 733.231-675t-11.385-4.385q-4.384-5.154-4.384-11t4.384-11Zm-256 584.462v-60q0-6.846 4.269-11.115 4.27-4.27 11.116-4.27t11.115 4.27q4.269 4.269 4.269 11.115v60q0 6.846-4.269 11.115-4.269 4.27-11.115 4.27t-11.116-4.27q-4.269-4.269-4.269-11.115Zm292-107.923-36-36q-4.384-4.385-4.384-10.615 0-6.231 4.384-11.385Q727-288 732.846-288t11 5.154l36 36q4.385 4.384 4.769 10.615.385 6.231-4.769 11.385t-11 5.154q-5.846 0-11-5.154ZM216.154-679.385l-36-36q-4.385-4.384-4.77-10.615-.384-6.231 4.77-11.385t11-5.154q5.846 0 11 5.154l36 36q4.384 4.385 4.384 10.616 0 6.23-4.384 11.384Q233-675 227.154-675t-11-4.385Zm-36 432.539 36-36q4.384-4.385 10.615-4.769 6.231-.385 11.385 4.769 4.384 5.154 4.384 11t-4.384 11l-36 36q-4.385 4.385-10.616 4.769-6.23.385-11.384-4.769t-5.154-11q0-5.846 5.154-11Z"/></svg>