<svg xmlns="http://www.w3.org/2000/svg" width="48" height="48" viewBox="0 -960 960 960"><path d="M200-554q-16.85 2.77-32.18 6.41-15.33 3.64-32.44 8.44-6.82 1.46-11.1-3.08-4.28-4.53-4.28-11.85 0-4.91 3.61-10.22 3.62-5.3 12.77-7.62 84.6-21.52 170.73-29.49 86.14-7.97 172.92-7.97 86.77 0 173.38 8.29 86.61 8.3 171.21 29.4 8.53 2.46 11.96 7.2 3.42 4.74 3.42 10.65 0 6.81-4 11.6-4 4.78-11.15 3.32-17.11-4.03-32.94-7.67-15.83-3.64-31.91-6.41v110.92q0 6.79-4.31 11.09t-11.11 4.3q-6.81 0-11.08-4.3-4.27-4.3-4.27-11.09v-116.54q-61.92-9.84-124.11-14.92-62.2-5.08-125.12-5.08t-125.12 4.54q-62.19 4.54-124.11 14.46v117.54q0 6.79-4.31 11.09t-11.12 4.3q-6.8 0-11.07-4.3-4.27-4.3-4.27-11.09V-554Zm93.38 376.92 45.7-283.77q.24-4.77 4.6-8.45 4.36-3.69 9.36-4.21 6.86-1.03 11.33 4.44 4.48 5.47 4.01 12.84l-45.46 283.77q-.27 5.68-4.9 9.07-4.64 3.39-10.25 3.39-7.08 0-11.35-5.38-4.27-5.39-3.04-11.7Zm88.24-554.77 8.76-55.69q1.04-5.68 5.16-9.07 4.13-3.39 10.19-3.39 7.65 0 11.81 5.38 4.15 5.39 2.92 11.7l-9.31 56.46q-1.23 4.61-4.88 8.04-3.65 3.42-8.34 3.39-7.62 1.49-12.58-3.74-4.97-5.23-3.73-13.08Zm83 481.62v74.85q0 6.78 4.31 11.08 4.3 4.3 11.11 4.3t11.08-4.3q4.26-4.3 4.26-11.08v-74.85q0-6.79-4.31-11.09-4.3-4.3-11.11-4.3t-11.08 4.3q-4.26 4.3-4.26 11.09Zm0-153.69q0 6.79 4.31 11.08 4.3 4.3 11.11 4.3t11.08-4.3q4.26-4.29 4.26-11.08v-55.46q0-6.04-4.31-10.72-4.3-4.67-11.11-4.67t-11.08 4.67q-4.26 4.68-4.26 10.72v55.46Zm113.76-327.16q1.24 7.08-4.32 12.31-5.56 5.23-12.34 3.74-4.57.03-8.6-3.51-4.04-3.54-4.5-8.15l-8.54-56.23q-1.23-6.31 2.49-11.7 3.72-5.38 11.7-5.38 6.06 0 10.19 3.5 4.12 3.51 5.16 9.96l8.76 55.46Zm88 554q.47 6.31-3.42 11.7-3.88 5.38-10.77 5.38-6.36 0-10.72-3.5-4.35-3.51-5.39-9.96L591.38-456q-.46-7.21 4.54-12.76t12.08-4.32q4.62.23 8.65 4.16 4.04 3.92 4.5 8.54l45.23 283.3Z"/></svg>