<svg xmlns="http://www.w3.org/2000/svg" width="48" height="48" viewBox="0 -960 960 960"><path d="M480.027-473.077q6.819 0 11.088-4.289 4.27-4.288 4.27-11.096v-196.923q0-6.807-4.297-11.096-4.296-4.288-11.115-4.288t-11.088 4.288q-4.27 4.289-4.27 11.096v196.923q0 6.808 4.297 11.096 4.296 4.289 11.115 4.289ZM480-363.846q8.538 0 14.269-5.731T500-383.846q0-8.539-5.731-14.27-5.731-5.73-14.269-5.73t-14.269 5.73Q460-392.385 460-383.846q0 8.538 5.731 14.269T480-363.846Zm0 203.308q117.615-102.539 185.346-206.808 67.731-104.269 67.731-180.808 0-114.154-72.039-188Q589-810 480-810q-109 0-181.038 73.846-72.039 73.846-72.039 188 0 76.539 68.462 180.808Q363.846-263.077 480-160.538Zm0 25.923q-7.923 0-15.731-2.346T450-145q-32-29.538-75.616-74.038-43.615-44.5-83.307-98.039-39.693-53.538-67.308-112.846-27.615-59.308-27.615-118.231 0-126.923 82.654-209.385Q361.461-840 480-840t201.192 82.461q82.654 82.462 82.654 209.385 0 58.923-27.615 118.231-27.615 59.308-66.923 112.462-39.308 53.153-82.923 97.653-43.616 44.5-75.616 74.039-6.186 5.692-14.342 8.423T480-134.615Zm0-420.77Z"/></svg>