<svg xmlns="http://www.w3.org/2000/svg" width="48" height="48" viewBox="0 96 960 960"><path d="M480.202 582.923q6.644 0 10.913-4.414 4.27-4.413 4.27-10.971V370.615q0-6.557-4.472-10.971-4.472-4.413-11.115-4.413-6.644 0-10.913 4.413-4.27 4.414-4.27 10.971v196.923q0 6.558 4.472 10.971 4.472 4.414 11.115 4.414ZM480 692.154q8.538 0 14.269-5.731T500 672.154q0-8.539-5.731-14.27-5.731-5.73-14.269-5.73t-14.269 5.73Q460 663.615 460 672.154q0 8.538 5.731 14.269T480 692.154Zm0 226.384q129.923-113.307 199.577-225.269Q749.231 581.308 749.231 504q0-121.636-77.631-199.434-77.631-77.797-191.632-77.797-114 0-191.599 77.797-77.6 77.798-77.6 199.434 0 77.308 70.385 189.269Q351.538 805.231 480 918.538Zm.308 30.847q-5.539 0-10.77-1.616-5.23-1.615-9.461-4.846Q318.769 814.231 249.385 703.49 180 592.75 180 504q0-140.854 90.731-224.427Q361.461 196 480 196t209.269 83.573Q780 363.146 780 504q0 88.539-69.385 199.385-69.384 110.846-210.692 239.538-3.461 3.231-8.769 4.846-5.308 1.616-10.846 1.616ZM480 504Z"/></svg>