<svg xmlns="http://www.w3.org/2000/svg" width="48" height="48" viewBox="0 -960 960 960"><path d="M135.384-169.23q-22.25 0-38.817-16.568Q80-202.365 80-224.615v-446.154q0-6.558 4.471-10.972 4.472-4.413 11.116-4.413 6.644 0 10.913 4.413 4.269 4.414 4.269 10.972v446.154q0 10.769 6.923 17.692T135.384-200h627.693q6.558 0 10.971 4.472 4.414 4.471 4.414 11.115t-4.414 10.913q-4.413 4.27-10.971 4.27H135.384Zm101.539-101.539q-22.25 0-38.817-16.567-16.568-16.568-16.568-38.818v-458.462q0-22.25 16.568-38.817Q214.673-840 236.923-840h193.462q12.017 0 22.354 4.615 10.338 4.616 18.338 11.846L533.846-760h290.77q22.25 0 38.817 16.567T880-704.616v378.462q0 22.25-16.567 38.818-16.567 16.567-38.817 16.567H236.923Z"/></svg>