<svg xmlns="http://www.w3.org/2000/svg" width="48" height="48" viewBox="0 -960 960 960"><path d="M175.384-200q-23.057 0-39.221-16.192Q120-232.384 120-255.384v-449.232q0-23 16.163-39.192Q152.327-760 175.247-760h195.207q12.074 0 22.079 4.615 10.006 4.616 18.094 11.935l53.45 54.219h320.539q23 0 39.192 16.192Q840-656.846 840-633.846v378.462q0 23-16.192 39.192T784.616-200H175.384Zm380.001-95.385h113.846q17.949 0 30.513-12.564t12.564-30.512v-202.693h17.307q6.5 0 10.75-4.227t4.25-10.692q0-6.466-4.25-11.158-4.25-4.692-10.75-4.692h-81.923v-8.462q0-5.384-4.038-9.423-4.039-4.038-9.423-4.038h-43.077q-5.693 0-9.962 4.038-4.269 4.039-4.269 9.423v8.462h-81.154q-6.833 0-11.301 4.773Q480-562.378 480-555.912q0 6.465 4.468 10.611 4.468 4.147 11.301 4.147h16.539v202.693q0 17.948 12.564 30.512t30.513 12.564Zm-12.308-245.769h138.461v202.693q0 5.384-3.461 8.846-3.462 3.461-8.846 3.461H555.385q-5.385 0-8.847-3.461-3.461-3.462-3.461-8.846v-202.693Z"/></svg>