<svg xmlns="http://www.w3.org/2000/svg" width="48" height="48" viewBox="0 -960 960 960"><path d="M175.384-200q-23.057 0-39.221-16.192Q120-232.384 120-255.384v-449.232q0-23 16.163-39.192Q152.327-760 175.384-760h195.232q11.675 0 21.799 4.615 10.124 4.616 18.212 11.935l53.45 54.219h320.539q23 0 39.192 16.192Q840-656.846 840-633.846v378.462q0 23-16.192 39.192T784.616-200H175.384Zm0-30.769h609.232q10.769 0 17.692-6.923t6.923-17.692v-378.462q0-10.77-6.923-17.693-6.923-6.923-17.692-6.923H452.154l-63.846-63.846q-3.846-3.846-8.077-5.384-4.231-1.539-8.846-1.539H175.384q-10.769 0-17.692 6.923t-6.923 17.692v449.232q0 10.769 6.923 17.692t17.692 6.923Zm-24.615 0v-498.462 498.462Zm316.692-81.539h264.616v-5.153q0-33.539-34.808-52.731-34.807-19.193-97.884-19.193t-97.501 19.193Q467.461-351 467.461-317.461v5.153ZM599.69-463.231q23.156 0 40.041-16.386 16.884-16.386 16.884-40.346 0-23.96-16.805-40.46t-40.346-16.5q-23.541 0-40.041 16.386-16.5 16.386-16.5 40.346 0 23.96 16.396 40.46 16.397 16.5 40.371 16.5Z"/></svg>