<svg xmlns="http://www.w3.org/2000/svg" width="48" height="48" viewBox="0 -960 960 960"><path d="M558.461-292.308h113.847q17.948 0 30.513-12.564 12.564-12.564 12.564-30.513v-208.846h17.307q6.5 0 10.75-4.227t4.25-10.692q0-6.465-4.25-11.158-4.25-4.692-10.75-4.692h-81.923v-3q0-7.667-5.884-13.295-5.885-5.628-15.347-5.628h-28.307q-9.462 0-15.346 5.628Q580-585.667 580-578v3h-81.154q-6.833 0-11.301 4.773t-4.468 11.238q0 6.465 4.468 10.612 4.468 4.146 11.301 4.146h16.539v208.846q0 17.949 12.564 30.513t30.512 12.564Zm0-30.769q-5.384 0-8.846-3.461-3.461-3.462-3.461-8.847v-208.846h138.461v208.846q0 5.385-3.461 8.847-3.462 3.461-8.846 3.461H558.461ZM175.615-200q-23.058 0-39.221-16.192-16.163-16.192-16.163-39.091v-418.665q0-22.899 16.163-39.091t39.221-16.192h241.923q12.017 0 21.97 4.615 9.953 4.616 18.042 11.935l22.681 23.45h304.615q23 0 39.193 16.192 16.192 16.193 16.192 39.193v378.462q0 23-16.192 39.192Q807.846-200 784.846-200H175.615Z"/></svg>