<svg xmlns="http://www.w3.org/2000/svg" width="48" height="48"><path d="m42 44.2-2.35-2.3q-.15.05-.3.075Q39.2 42 39 42H8.85q-1.2 0-2.025-.825T6 39.15V9q0-.2.025-.35.025-.15.075-.3L4.3 6.5q-.2-.2-.225-.525Q4.05 5.65 4.3 5.4q.25-.25.55-.25.3 0 .55.25l37.7 37.7q.2.25.225.575.025.325-.225.525-.25.25-.55.25-.3 0-.55-.25zM8.8 40.45h29.45l-5.8-5.8q0 .25-.175.375t-.375.125q-.2 0-.325-.125t-.225-.275l-.65-1.85-3.8-3.85h-7.95L17 34.55q-.1.3-.325.45-.225.15-.525.15-.4 0-.625-.3-.225-.3-.125-.7l4.45-12.1-12.3-12.3v29.5q0 .45.375.825.375.375.875.375zm33.2-3.4-1.55-1.55V8.75q0-.45-.375-.825-.375-.375-.825-.375H12.5L10.95 6h28.2q1.2 0 2.025.825T42 8.85zm-22.5-9.4h5.85L21 23.3zm9.35-3.75-2.6-2.65-2.15-6.05h-.2l-.95 2.75-1.15-1.15 1.35-3.85q.1-.2.325-.375T24 12.4q.3 0 .525.175.225.175.325.375zm-5.95 1.2zm3.6-3.6z"/></svg>