<svg xmlns="http://www.w3.org/2000/svg" width="48" height="48"><path d="m42 44.2-2.35-2.3q-.15.05-.3.075Q39.2 42 39 42H8.85q-1.2 0-2.025-.825T6 39.15V9q0-.2.025-.35.025-.15.075-.3L4.3 6.5q-.2-.2-.225-.525Q4.05 5.65 4.3 5.4q.25-.25.55-.25.3 0 .55.25l37.7 37.7q.2.2.225.55.025.35-.225.55-.25.25-.55.25-.3 0-.55-.25zm0-7.15L28.85 23.9l-4-10.95q-.1-.2-.325-.375T24 12.4q-.35 0-.55.175-.2.175-.3.375L21.8 16.8 10.95 6h28.2q1.2 0 2.025.825T42 8.85zm-25.8-1.9q.25 0 .475-.15.225-.15.325-.45l1.95-5.5h7.95l-1.55-1.5h-5.9L21 23.2l-1.15-1.15-4.45 12.1q-.1.4.125.7.225.3.675.3zm10.05-13.9L24.1 15.2h-.2l-.95 2.75zm5.4 13.85q.25 0 .4-.15.15-.15.15-.35l-1.75-1.75.7 1.85q.05.15.2.275.15.125.3.125z"/></svg>