<svg xmlns="http://www.w3.org/2000/svg" width="48" height="48" viewBox="0 -960 960 960"><path d="M437-120q-11.942 0-21.356-9.038-9.413-9.039-9.413-21.731v-226.923H256.154q-24 0-40.077-16.164Q200-410.019 200-432.307v-274.539q0-37.991 27.68-65.572Q255.36-800 294.231-800h438.077q11.769 0 19.731 7.961Q760-784.077 760-772.308v340.001q0 22.288-16.625 38.451-16.625 16.164-40.298 16.164H553v226.923q0 12.692-9.413 21.731Q534.173-120 522.231-120H437ZM230.769-538.615h498.462v-230.616h-72.923v137.923q0 6.539-4.485 10.962t-11.116 4.423q-6.63 0-10.899-4.423-4.27-4.423-4.27-10.962v-137.923h-87.923v65q0 6.539-4.485 10.962t-11.115 4.423q-6.63 0-10.9-4.423-4.269-4.423-4.269-10.962v-65H294.231q-27.385 0-45.423 18.068-18.039 18.067-18.039 44.317v168.231Z"/></svg>