<svg xmlns="http://www.w3.org/2000/svg" width="48" height="48" viewBox="0 -960 960 960"><path d="M110.769 0q-12.692 0-21.73-9.154Q80-18.308 80-31q0-12.693 9.154-21.731Q98.308-61.77 111-61.77h738.231q12.692 0 21.73 8.654Q880-44.462 880-31q0 12.692-9.154 21.846T849 0H110.769Zm316.846-596.385 153.078 153.077-161.231 160.462q-16.693 17.462-43.27 17.462t-43.269-17.462l-13.308-12.538-36.538 36.538q-7.231 8-18.346 13t-22.346 5h-33.231q-8.462 0-11.577-9.115-3.116-9.116 3.115-15.347l74-74.769-7.846-7.846q-18.154-18.154-17.654-44.346.5-26.193 18.654-45.116l159.769-159Zm22.231-22.231 195.923-195.923Q662-830.77 684.539-830.77q22.538 0 38.769 16.231l74.308 74.308q16.23 16.231 16.115 40.116-.115 23.884-16.346 40.115L602.923-465.539 449.846-618.616Z"/></svg>