<svg xmlns="http://www.w3.org/2000/svg" width="48" height="48" viewBox="0 -960 960 960"><path d="M155.385-140q-6.539 0-10.962-4.485T140-155.601q0-6.63 4.423-10.899 4.423-4.269 10.962-4.269h649.23q6.539 0 10.962 4.485T820-155.169q0 6.631-4.423 10.9T804.615-140h-649.23Zm0-162.692q-6.539 0-10.962-4.482Q140-311.655 140-318.279q0-5.875 4.423-10.529t10.962-4.654h649.23q6.539 0 10.962 4.857Q820-323.749 820-317.49t-4.423 10.529q-4.423 4.269-10.962 4.269h-649.23Zm0-161.923q-6.539 0-10.962-4.485Q140-473.586 140-480.216t4.423-10.899q4.423-4.27 10.962-4.27h649.23q6.539 0 10.962 4.485Q820-486.414 820-479.784t-4.423 10.899q-4.423 4.27-10.962 4.27h-649.23Zm0-162.693q-6.539 0-10.962-4.481T140-642.895q0-5.874 4.423-10.528 4.423-4.654 10.962-4.654h649.23q6.539 0 10.962 4.856Q820-648.364 820-642.105q0 6.259-4.423 10.528t-10.962 4.269h-649.23Zm0-161.923q-6.539 0-10.962-4.485T140-804.831q0-6.631 4.423-10.9T155.385-820h649.23q6.539 0 10.962 4.485T820-804.4q0 6.631-4.423 10.9t-10.962 4.269h-649.23Z"/></svg>