<svg xmlns="http://www.w3.org/2000/svg" width="48" height="48" viewBox="0 -960 960 960"><path d="M450-809.231v413.846q0 6.577-4.485 10.981T434.399-380q-6.63 0-10.899-4.423-4.269-4.423-4.269-10.962V-580h-17.693q-56 0-94.923-37.615-38.923-37.616-38.923-92.27 0-54.654 37.346-92.384Q342.384-840 396.923-840h215.385q6.538 0 10.961 4.485 4.424 4.485 4.424 11.115 0 6.631-4.424 10.9-4.423 4.269-10.961 4.269h-64.616v413.846q0 6.539-4.485 10.962T532.092-380q-6.63 0-10.9-4.423-4.269-4.423-4.269-10.962v-413.846H450Zm-30.769 198.462v-198.462h-17.693q-42.769 0-72.923 28.319-30.154 28.32-30.154 71 0 42.681 30.154 70.912 30.154 28.231 72.923 28.231h17.693Zm0-99.231Zm322.154 501.692H174.154q-5.577-1.461-9.866-5.126Q160-217.099 160-224.088q0-5.431 3.819-10.21 3.819-4.779 9.565-4.779L739.846-256l-72.231-72.231q-5.153-5.154-5.153-11.384 0-6.231 5.153-11.385 5.154-5.154 11.385-5.154T690.385-351l90.154 90.154q8.23 8.58 8.23 20.021 0 11.44-8.23 19.671L689.616-131q-4.129 4.385-10.488 4.385T668.385-131Q664-135.384 664-141.743t4.385-10.488l73-56.077Z"/></svg>