<svg xmlns="http://www.w3.org/2000/svg" width="48" height="48" viewBox="0 -960 960 960"><path d="M570.769-490.769h178.462v-178.462H570.769v178.462Zm-360 0h178.462v-178.462H210.769v178.462Zm487 190.769q-10.384 0-15.961-8.577t-.731-18.269L741.384-460H570.769q-12.692 0-21.731-9.038Q540-478.077 540-490.769v-178.462q0-12.692 9.038-21.731Q558.077-700 570.769-700h178.462q12.692 0 21.731 9.038Q780-681.923 780-669.231v200.923q0 5.462-1.5 11.308t-2.961 11.077l-61.077 135.769q-1.923 4.846-6.27 7.5Q703.846-300 697.769-300Zm-360 0q-10.384 0-15.961-8.577t-.731-18.269L381.384-460H210.769q-12.692 0-21.731-9.038Q180-478.077 180-490.769v-178.462q0-12.692 9.038-21.731Q198.077-700 210.769-700h178.462q12.692 0 21.731 9.038Q420-681.923 420-669.231v200.923q0 5.462-1.5 11.308t-2.961 11.077l-61.077 135.769q-1.923 4.846-6.27 7.5Q343.846-300 337.769-300ZM300-580Zm360 0Z"/></svg>