<svg xmlns="http://www.w3.org/2000/svg" width="48" height="48" viewBox="0 -960 960 960"><path d="M90.77-140q-12.52 0-21.645-9.125T60-170.769v-85.616q0-5.516 2.792-11.838 2.793-6.321 6.746-10.392L140-349.792v-264.977L69.538-686q-3.953-4.071-6.745-10.393Q60-702.714 60-708.231v-96.384q0-6.789 4.31-11.087T75.425-820q6.806 0 11.075 4.298 4.27 4.298 4.27 11.087V-740H220v-64.615q0-6.789 4.31-11.087Q228.619-820 235.425-820t11.075 4.298q4.269 4.298 4.269 11.087V-740H380v-64.615q0-6.789 4.31-11.087Q388.619-820 395.425-820t11.075 4.298q4.269 4.298 4.269 11.087v96.384q0 5.517-2.592 11.838Q405.585-690.071 402-686l-71.231 71.231v84h298.462v-84L558.769-686q-3.953-4.071-6.746-10.393-2.792-6.321-2.792-11.838v-96.384q0-6.789 4.309-11.087Q557.85-820 564.656-820t11.075 4.298Q580-811.404 580-804.615V-740h129.231v-64.615q0-6.789 4.309-11.087Q717.85-820 724.656-820t11.075 4.298Q740-811.404 740-804.615V-740h129.231v-64.615q0-6.789 4.309-11.087Q877.85-820 884.656-820t11.075 4.298Q900-811.404 900-804.615v96.384q0 5.517-2.592 11.838-2.592 6.322-6.177 10.393L820-614.824v264.978l71.231 71.231q3.585 4.071 6.177 10.392Q900-261.901 900-256.385v85.616q0 12.519-9.125 21.644Q881.75-140 869.231-140H584.615v-100q0-43.173-30.765-73.894-30.765-30.721-74-30.721T406-313.894Q375.385-283.173 375.385-240v100H90.769Zm0-30.769h253.845V-240q0-56.846 39.77-96.115 39.769-39.27 95.615-39.27 56.846 0 96.115 39.27 39.27 39.269 39.27 96.115v69.231h253.846v-86.385l-80-79.84v-290.468L871-709.231H578.231L660-627.462V-500H300v-127.462l81.769-81.769H89l81.769 81.769v290.468l-80 79.84v86.385ZM480-440Z"/></svg>