<svg xmlns="http://www.w3.org/2000/svg" width="48" height="48" viewBox="0 -960 960 960"><path d="M135.384-373.748V-808q0-12.385 9.577-22.193Q154.538-840 166.154-840h476.692q11.846 0 21.423 9.692 9.577 9.692 9.577 22.308v314.462q0 12.384-9.577 22.192t-21.423 9.808H258.461l-97.846 97.846q-7.231 7.231-16.231 3.615-9-3.615-9-13.671Zm154.077 62.979q-11.615 0-21.307-9.808-9.693-9.807-9.693-22.192v-48h460.77l25.384 25.384V-720h49.231q11.616 0 21.193 9.808 9.577 9.807 9.577 22.423v463.86q0 9.987-9 13.987t-16.231-3.231l-97.616-97.616H289.461Z"/></svg>