<svg xmlns="http://www.w3.org/2000/svg" width="48" height="48" viewBox="0 0 48 48"><path d="M24 33.9q3.9 0 6.725-2.6 2.825-2.6 3.175-6.45 0-.25-.175-.425t-.475-.175q-.3 0-.475.15t-.225.45q-.3 3.3-2.775 5.525Q27.3 32.6 24 32.6q-3.6 0-6.1-2.5-2.5-2.5-2.5-6.1 0-3.6 2.5-6.1 2.5-2.5 6.1-2.5h.35l-2.15 2.15q-.2.15-.2.425t.2.475q.2.25.45.25t.5-.25l3.15-3.15q.2-.2.2-.525t-.2-.525L23.1 11q-.2-.15-.475-.175-.275-.025-.475.175-.2.25-.2.5t.2.45l2.1 2.15q-4.2 0-7.175 2.875Q14.1 19.85 14.1 24t2.9 7.025q2.9 2.875 7 2.875Zm0 8.1q-3.7 0-6.975-1.425Q13.75 39.15 11.3 36.7 8.85 34.25 7.425 31 6 27.75 6 24.05q0-3.8 1.425-7.075 1.425-3.275 3.875-5.7 2.45-2.425 5.7-3.85Q20.25 6 23.95 6q3.8 0 7.075 1.425 3.275 1.425 5.7 3.85 2.425 2.425 3.85 5.7Q42 20.25 42 24q0 3.7-1.425 6.975-1.425 3.275-3.85 5.725-2.425 2.45-5.7 3.875Q27.75 42 24 42Zm0-1.55q6.85 0 11.65-4.8 4.8-4.8 4.8-11.65 0-6.85-4.8-11.65-4.8-4.8-11.65-4.8-6.85 0-11.65 4.8-4.8 4.8-4.8 11.65 0 6.85 4.8 11.65 4.8 4.8 11.65 4.8ZM24 24Z"/></svg>