<svg xmlns="http://www.w3.org/2000/svg" width="48" height="48" viewBox="0 96 960 960"><path d="M501.654 997.539q-57.423 0-108.308-17.769Q342.461 962 304.5 929.193q-37.962-32.808-59.885-79.924-21.923-47.115-21.923-106.346V350.308q0-19.185 12.946-32.131 12.946-12.946 31.362-12.946 18.415 0 31.746 12.898t13.331 32.274v190.212q0 6.154 4.615 10.77Q321.307 556 327.461 556t10.77-4.615q4.615-4.616 4.615-10.77V238.014q0-19.476 12.946-32.283 12.946-12.808 31.362-12.808 18.415 0 31.746 12.946T432.231 238v311.846q0 6.154 4.615 10.769 4.615 4.616 10.769 4.616t10.77-4.616Q463 556 463 549.846V195.692q0-19.462 12.423-31.885 12.423-12.423 31.5-12.423 19.077 0 31.5 12.423 12.423 12.423 12.423 31.885v354.154q0 6.154 4.616 10.769 4.615 4.616 10.769 4.616T577 560.615q4.615-4.615 4.615-10.769V284.841q0-19.38 12.26-31.803 12.259-12.423 31.048-12.423 19.462 0 31.885 12.423 12.423 12.423 12.423 31.467v348.572q-69.615 20.154-111.116 61.538-41.5 41.385-55.884 105.77-1 6.495 2.747 11.824 3.748 5.33 11.253 5.33 4.939 0 9.95-3.69 5.012-3.69 6.05-9.157 11.077-52.615 47.231-91 36.154-38.384 96.384-53.307l3.847-1.539q7.923-3.538 14.115-10.923Q700 640.539 700 630.692v-91.077q0-18.415 12.716-31.131 12.715-12.715 31.13-12.715 18.416 0 31.131 12.715 12.716 12.716 12.716 31.131v203.308q0 59.231-23.27 106.346-23.269 47.116-62.577 80.308-39.307 33.193-91.038 50.577-51.731 17.385-109.154 17.385Z"/></svg>