<svg xmlns="http://www.w3.org/2000/svg" width="48" height="48" viewBox="0 -960 960 960"><path d="M381.246-200q-6.631 0-10.9-4.423t-4.269-10.962v-150.692H215.385q-6.539 0-10.962-4.485T200-381.677q0-6.631 4.423-10.9t10.962-4.269h153.769q11.769 0 19.731 7.961 7.961 7.962 7.961 19.731v153.769q0 6.539-4.485 10.962T381.246-200ZM215.385-563.154q-6.539 0-10.962-4.485T200-578.754q0-6.631 4.423-10.9t10.962-4.269h150.692v-150.692q0-6.539 4.485-10.962T381.677-760q6.631 0 10.9 4.423t4.269 10.962v153.769q0 11.769-7.961 19.731-7.962 7.961-19.731 7.961H215.385ZM578.323-200q-6.631 0-10.9-4.423t-4.269-10.962v-153.769q0-11.769 7.961-19.731 7.962-7.961 19.731-7.961h153.769q6.539 0 10.962 4.485T760-381.246q0 6.631-4.423 10.9t-10.962 4.269H593.923v150.692q0 6.539-4.485 10.962T578.323-200Zm12.523-363.154q-11.769 0-19.731-7.961-7.961-7.962-7.961-19.731v-153.769q0-6.539 4.485-10.962T578.754-760q6.631 0 10.9 4.423t4.269 10.962v150.692h150.692q6.539 0 10.962 4.485T760-578.323q0 6.631-4.423 10.9t-10.962 4.269H590.846Z"/></svg>