<svg xmlns="http://www.w3.org/2000/svg" width="48" height="48" viewBox="0 -960 960 960"><path d="m480.231-141.538-34.077-101.49H209.23q-29.153 0-48.423-19.259-19.269-19.26-19.269-48.4v-439.788q0-29.141 19.269-48.564 19.27-19.423 48.423-19.423h203.078l29.615 101.659H750.77q29.615 0 48.653 18.917 19.039 18.916 19.039 48.343v440.018q0 29.141-18.982 48.564-18.983 19.423-48.51 19.423H480.231ZM316.272-392.154q58.959 0 96.036-37.932t37.077-97.683V-542.5q0-4.962-1.715-8.423H313v51.769h76.154q-6.462 24.334-25.5 37.667-19.039 13.333-46.193 13.333-33.095 0-56.855-24.058-23.76-24.058-23.76-58.557 0-34.5 23.616-58.558t56.252-24.058q15.831 0 29.033 5.346 13.202 5.347 24.577 16.808l40.984-39.077q-16.923-18.154-42.357-28.615-25.433-10.462-53.093-10.462-56.858 0-97.051 40.692-40.192 40.693-40.192 97.924 0 57.231 40.588 97.923t97.069 40.692Zm226.595 16.693 18.748-17.924q-10.923-14.692-21.769-27.884-10.846-13.192-19.538-28.116l22.559 73.924Zm42.097-43.308q23.438-28.583 36.359-53.869 12.92-25.285 16.446-39.208H503.385l9.769 35.996h33.333q6.667 12.473 16.066 26.829t22.411 30.252Zm-70.887 243.385H750.77q15 0 24.423-9.745 9.423-9.746 9.423-24.152v-439.883q0-14.99-9.415-24.567-9.414-9.577-24.4-9.577H452.615l39.409 137.616h66.628v-35.849h34.579v35.849h123.923v33.846h-43.513q-7.487 31.846-24.41 62.612-16.923 30.766-40.077 57.28l92.077 90.525-24.385 24.506L584.769-368l-30.615 30.616 27.615 94.307-67.692 67.693Z"/></svg>