<svg xmlns="http://www.w3.org/2000/svg" width="48" height="48" viewBox="0 96 960 960"><path d="M155.384 816q-22.25 0-38.817-16.567T100 760.616V391.384q0-22.25 16.567-38.817T155.384 336h369.231q22.25 0 38.818 16.567Q580 369.134 580 391.384v369.232q0 22.25-16.567 38.817Q546.865 816 524.615 816H155.384Zm537.305-280q-14.304 0-23.497-9.192Q660 517.615 660 503.312V368.688q0-14.304 9.192-23.496Q678.385 336 692.689 336h134.623q14.304 0 23.496 9.192Q860 354.384 860 368.688v134.624q0 14.303-9.192 23.496Q841.616 536 827.312 536H692.689Zm-1.919-30.769h138.461V366.769H690.77v138.462Zm-535.386 280h369.231q10.77 0 17.693-6.923 6.923-6.923 6.923-17.692V391.384q0-10.769-6.923-17.692t-17.693-6.923H155.384q-10.769 0-17.692 6.923t-6.923 17.692v369.232q0 10.769 6.923 17.692t17.692 6.923Zm60-93.077h249.231q7.731 0 11.596-7.616 3.866-7.615-.365-14.846l-69.615-93.077q-4.231-5.23-11.231-5.23t-11.231 5.23L320 662.154l-43.769-58.539q-4.231-5.23-11.231-5.23t-11.231 5.23l-49.615 66.077q-4.231 7.231-.366 14.846 3.866 7.616 11.596 7.616ZM692.689 816q-14.304 0-23.497-9.192Q660 797.616 660 783.312V648.688q0-14.303 9.192-23.496Q678.385 616 692.689 616h134.623q14.304 0 23.496 9.192Q860 634.385 860 648.688v134.624q0 14.304-9.192 23.496Q841.616 816 827.312 816H692.689Zm-1.919-30.769h138.461V646.769H690.77v138.462Zm-560.001 0V366.769v418.462Zm560.001-280V366.769v138.462Zm0 280V646.769v138.462Z"/></svg>