<svg xmlns="http://www.w3.org/2000/svg" width="48" height="48" viewBox="0 -960 960 960"><path d="M480.287-778.077q8.944 0 17.023 3 8.079 3 15.613 8.231l224.616 170.384q11.442 7.673 16.952 19.077Q760-565.981 760-552.308v376.924q0 6.538-4.485 10.961T744.4-160q-6.631 0-10.9-4.423t-4.269-10.961v-376.924q0-6.154-2.692-11.154-2.693-5-7.308-8.846L494.615-741.923q-6.154-4.616-14.615-4.616t-14.615 4.616L240.769-572.308q-4.615 3.846-7.308 8.846-2.692 5-2.692 11.154v376.924q0 6.538-4.485 10.961T215.169-160q-6.631 0-10.9-4.423T200-175.384v-376.924q0-13.673 5.509-25.077 5.51-11.404 16.952-19.077l224.616-170.384q7.753-5.231 16.009-8.231t17.201-3ZM330.769-191.538h298.462v-133.846H330.769v133.846Zm0-164.616h298.462V-490H330.769v133.846Zm-3.077 195.385q-11.769 0-19.731-7.962-7.961-7.961-7.961-19.73v-304.616q0-11.769 7.961-19.731 7.962-7.961 19.731-7.961h304.616q11.769 0 19.731 7.961Q660-504.846 660-493.077v304.616q0 11.769-7.961 19.73-7.962 7.962-19.731 7.962H327.692Z"/></svg>