<svg xmlns="http://www.w3.org/2000/svg" width="48" height="48" viewBox="0 -960 960 960"><path d="M159.231-320q0-39.808 27.788-67.596 27.789-27.789 67.596-27.789h80q70.257 0 107.436-39.987 37.18-39.987 37.18-95.397 0-32-19.943-52.923-19.942-20.923-49.288-20.923-20.904 0-35.837-14.933-14.932-14.933-14.932-35.837v-169.23q0-6.558 4.685-10.972Q368.601-860 375.56-860q6.632 0 10.921 4.413 4.288 4.414 4.288 10.972v169.23q1.231 8.462 5.769 14.231 4.539 5.769 13.462 5.769 41.667 0 70.833 29.513Q510-596.359 510-550.769q0 68.392-46.073 117.273t-129.312 48.881h-80q-27.404 0-46.009 18.605Q190-347.404 190-320v204.615q0 6.558-4.472 10.972Q181.057-100 174.413-100t-10.913-4.413q-4.269-4.414-4.269-10.972V-320Zm130 160q0-39.808 27.788-67.596 27.789-27.789 67.597-27.789h160q93.992 0 159.303-65.311Q769.231-386.008 769.231-480v-40q0-91.846-61-158.231-61-66.384-150.539-66.384-27.644 0-48.053-20.702-20.408-20.702-20.408-47.76v-31.538q0-6.558 4.472-10.972Q498.174-860 504.818-860t10.913 4.413Q520-851.173 520-844.615v31.538q0 15.385 11.154 26.539 11.154 11.153 26.538 11.153 101.231 0 171.77 75.923Q800-623.539 800-520v40q0 105.951-74.717 180.668-74.717 74.717-180.667 74.717h-160q-27.404 0-46.01 18.605Q320-187.404 320-160v44.615q0 6.558-4.471 10.972Q311.057-100 304.413-100q-6.644 0-10.913-4.413-4.269-4.414-4.269-10.972V-160ZM190-100v-220q0-27.404 18.606-46.01 18.605-18.605 46.009-18.605h80q83.239 0 129.312-48.881Q510-482.377 510-550.769q0-45.59-31.539-75.103-31.538-29.513-89.153-29.513L390.769-860l-1.461 204.615q57.615 0 89.153 29.513Q510-596.359 510-550.769q0 68.392-46.073 117.273t-129.312 48.881h-80q-27.404 0-46.009 18.605Q190-347.404 190-320v220Z"/></svg>