<svg xmlns="http://www.w3.org/2000/svg" width="48" height="48" viewBox="0 -960 960 960"><path d="M113.657-800q-8.58 0-14.196-5.804-5.615-5.805-5.615-14.385t5.804-14.196Q105.454-840 114.035-840q8.58 0 14.196 5.804 5.615 5.804 5.615 14.385 0 8.58-5.804 14.195Q122.237-800 113.657-800Zm149.231 0q-8.58 0-14.196-5.804-5.615-5.805-5.615-14.385t5.804-14.196Q254.685-840 263.266-840q8.58 0 14.195 5.804 5.616 5.804 5.616 14.385 0 8.58-5.804 14.195Q271.468-800 262.888-800Zm144.615 0q-8.58 0-14.195-5.804-5.616-5.805-5.616-14.385t5.805-14.196Q399.301-840 407.881-840q8.581 0 14.196 5.804t5.615 14.385q0 8.58-5.804 14.195Q416.084-800 407.503-800Zm144.616 0q-8.58 0-14.196-5.804-5.615-5.805-5.615-14.385t5.804-14.196Q543.916-840 552.497-840q8.58 0 14.195 5.804 5.616 5.804 5.616 14.385 0 8.58-5.805 14.195Q560.699-800 552.119-800Zm144.615 0q-8.58 0-14.195-5.804-5.616-5.805-5.616-14.385t5.804-14.196Q688.532-840 697.112-840t14.196 5.804q5.615 5.804 5.615 14.385 0 8.58-5.804 14.195Q705.315-800 696.734-800Zm149.231 0q-8.58 0-14.196-5.804-5.615-5.805-5.615-14.385t5.804-14.196Q837.763-840 846.343-840t14.196 5.804q5.615 5.804 5.615 14.385 0 8.58-5.804 14.195Q854.546-800 845.965-800ZM113.657-650.769q-8.58 0-14.196-5.805-5.615-5.804-5.615-14.384 0-8.581 5.804-14.196t14.385-5.615q8.58 0 14.196 5.804 5.615 5.804 5.615 14.385 0 8.58-5.804 14.195-5.805 5.616-14.385 5.616Zm0 149.231q-8.58 0-14.196-5.805-5.615-5.804-5.615-14.384 0-8.581 5.804-14.196t14.385-5.615q8.58 0 14.196 5.804 5.615 5.804 5.615 14.385 0 8.58-5.804 14.195-5.805 5.616-14.385 5.616Zm149.231 0q-8.58 0-14.196-5.805-5.615-5.804-5.615-14.384 0-8.581 5.804-14.196t14.385-5.615q8.58 0 14.195 5.804 5.616 5.804 5.616 14.385 0 8.58-5.804 14.195-5.805 5.616-14.385 5.616Zm433.846 0q-8.58 0-14.195-5.805-5.616-5.804-5.616-14.384 0-8.581 5.804-14.196 5.805-5.615 14.385-5.615t14.196 5.804q5.615 5.804 5.615 14.385 0 8.58-5.804 14.195-5.804 5.616-14.385 5.616Zm149.231 0q-8.58 0-14.196-5.805-5.615-5.804-5.615-14.384 0-8.581 5.804-14.196 5.805-5.615 14.385-5.615t14.196 5.804q5.615 5.804 5.615 14.385 0 8.58-5.804 14.195-5.804 5.616-14.385 5.616Zm0-149.231q-8.58 0-14.196-5.805-5.615-5.804-5.615-14.384 0-8.581 5.804-14.196 5.805-5.615 14.385-5.615t14.196 5.804q5.615 5.804 5.615 14.385 0 8.58-5.804 14.195-5.804 5.616-14.385 5.616ZM596.923-131.538H441.846h155.077Zm-148.655 30.769q-18.689 0-36.055-7.231-17.367-7.23-31.063-20.804L229-280.538q-7.693-7.842-7.116-19.344.577-11.502 8.27-20.195 8.384-8.384 19.487-10.461 11.102-2.077 22.974 1.384L360-309.231v-335.384q0-6.539 4.485-10.962T375.6-660q6.631 0 10.9 4.423t4.269 10.962v340.769q0 13.811-10.461 22.252-10.462 8.44-23.693 4.44L250.077-304.23l152.538 153.846q8.539 9.538 20.746 14.192 12.207 4.654 25.024 4.654h148.538q44.154 0 74.385-30.231t30.231-74.385v-131.538q0-6.539 4.485-10.962t11.115-4.423q6.63 0 10.9 4.423 4.269 4.423 4.269 10.962v131.538q0 56.847-39.269 96.116-39.27 39.269-96.116 39.269H448.268Zm41.256-437.692q6.63 0 10.899 4.423 4.269 4.423 4.269 10.961v145.385q0 6.538-4.485 10.961-4.485 4.424-11.115 4.424-6.631 0-10.9-4.424-4.269-4.423-4.269-10.961v-145.385q0-6.538 4.485-10.961t11.116-4.423Zm113.692 60q6.63 0 10.899 4.423 4.27 4.423 4.27 10.961v85.385q0 6.538-4.485 10.961-4.486 4.424-11.116 4.424t-10.899-4.424q-4.27-4.423-4.27-10.961v-85.385q0-6.538 4.486-10.961 4.485-4.423 11.115-4.423Z"/></svg>