<svg xmlns="http://www.w3.org/2000/svg" width="48" height="48" viewBox="0 -960 960 960"><path d="M495.54-363.62q6.15-6.53 6.15-15.53t-6.15-15.54q-6.16-6.54-15.54-6.54-9.38 0-15.54 6.54-6.15 6.54-6.15 15.54t6.15 15.53q6.16 6.54 15.54 6.54 9.38 0 15.54-6.54Zm-4.42-97.88q4.26-4.27 4.26-11.12v-159.3q0-6.08-4.26-10.73-4.27-4.66-11.12-4.66t-11.12 4.66q-4.26 4.65-4.26 10.73v159.3q0 6.85 4.26 11.12 4.27 4.27 11.12 4.27t11.12-4.27Zm-21 334.19q-4.89-1-9.89-3-120.54-45.46-190.38-153.5Q200-391.85 200-519.15v-174.47q0-17.46 10.23-32.19 10.23-14.73 25.69-20.96l224.62-83.15q10.23-4 19.46-4t19.46 4l224.62 83.15q15.46 6.23 25.69 20.96T760-693.62v174.47q0 127.3-69.85 235.34-69.84 108.04-190.38 153.5-5 2-9.89 3-4.88 1-9.88 1-5 0-9.88-1Z"/></svg>