<svg xmlns="http://www.w3.org/2000/svg" width="48" height="48" viewBox="0 96 960 960"><path d="m479.769 590.539 76.154 77.153q5.385 5.385 11.962 5.385t11.961-5.385q5.385-5.384 5.385-12.23 0-6.847-5.385-11.462l-75.923-75.923 75.923-75.923Q585 487 585 480.423t-5.154-11.731q-5.154-5.154-11.615-4.769-6.462.385-10.846 4.769l-76.154 76.154-77.154-76.154q-5.385-5.384-11.962-5.384t-11.961 5.384q-5.385 5.385-5.385 12.231t5.385 11.462l76.154 75.923-76.154 76.153Q375 649.615 375 656.077t5.154 11.615q5.154 4.385 11.615 4.385 6.462 0 10.846-4.385l77.154-77.153ZM480 931.462q-4 0-7.5-.5t-5.731-1.5q-115.538-40-191.154-149.116Q200 671.231 200 536.846V362.384q0-17.461 10.231-32.192 10.23-14.731 25.692-20.961l224.615-83.154q10.231-4 19.462-4t19.462 4l224.615 83.154q15.462 6.23 25.692 20.961Q760 344.923 760 362.384v174.462q0 134.385-75.615 243.5Q608.769 889.462 494 929.462q-2.308.769-14 2Z"/></svg>