<svg xmlns="http://www.w3.org/2000/svg" width="48" height="48" viewBox="0 -960 960 960"><path d="M495.538-508.308q20.616-23.538 28.5-51.384 7.885-27.846 7.885-60.923t-7.885-60.539q-7.884-27.462-28.5-51 52.924-7.769 90.808 24.154 37.885 31.923 37.885 87.769 0 55.846-37.885 87.385-37.884 31.539-90.808 24.538Zm192.77 292.924q1.923-8.077 3.73-15.71 1.808-7.633 1.808-16.598v-23.231q0-37.017-15.231-68.393-15.231-31.376-55.385-51.377 97.616 14.308 140.347 44.001 42.731 29.692 42.731 75.769v23.231q0 13.211-9.25 22.76-9.25 9.548-23.058 9.548h-85.692Zm188.615-338.231H698.462q-6.539 0-10.962-4.486-4.423-4.485-4.423-11.115t4.423-10.899q4.423-4.27 10.962-4.27h178.461q6.539 0 10.962 4.485 4.423 4.486 4.423 11.116t-4.423 10.899q-4.423 4.27-10.962 4.27Zm-531.539 48.769q-49.884 0-82.442-32.942-32.558-32.943-32.558-82.827 0-49.885 32.558-82.443t82.442-32.558q49.885 0 82.827 32.558 32.943 32.558 32.943 82.443 0 49.884-32.943 82.827-32.942 32.942-82.827 32.942ZM67.692-247.692v-25.562q0-24.977 14.654-46.554t40.269-33.269q61.231-26.615 114.654-39.846 53.423-13.231 108.115-13.231 54.693 0 107.616 13.231t114.923 39.846q24.846 11.692 40 33.269 15.154 21.577 15.154 46.554v25.562q0 13.211-9.548 22.76-9.548 9.548-22.76 9.548H99.999q-13.21 0-22.759-9.548-9.548-9.549-9.548-22.76Zm278.077-287.923q35.923 0 60.269-24.347 24.346-24.346 24.346-60.269T406.038-680.5q-24.346-24.346-60.654-24.346-36.307 0-60.269 24.346-23.961 24.346-23.961 60.269t23.918 60.269q23.918 24.347 60.697 24.347ZM98.461-246.154h493.847v-27.077q0-15.098-9.539-29.164-9.538-14.066-28.846-23.605Q498-352.615 448.702-364q-49.297-11.385-103.318-11.385-54.02 0-103.202 11.385Q193-352.615 136.615-326q-18.846 9.308-28.5 23.423-9.654 14.116-9.654 29.346v27.077ZM345.77-620.231Zm0 374.077Z"/></svg>