<svg xmlns="http://www.w3.org/2000/svg" width="48" height="48" viewBox="0 -960 960 960"><path d="M741.31-219.46q27.92-28.69 27.92-68.23 0-41.08-27.92-69-27.93-27.93-69-27.93-41.08 0-69 27.93-27.93 27.92-27.93 69 0 41.07 27.93 69 27.92 27.92 69 27.92 41.07 0 69-28.69Zm100 117.08-87.39-87.16q-17.46 14.77-37.8 22.16-20.35 7.38-43.81 7.38-52.77 0-90.23-37.46t-37.46-90.23q0-53 37.46-90.35 37.46-37.34 90.23-37.34 53 0 90.34 37.34Q800-340.69 800-287.69q0 22.23-7.27 42.07-7.27 19.85-20.04 36.31l88.16 88.16q3.38 3.38 3.77 9 .38 5.61-3 9.77-4.16 4.92-10.16 4.53-6-.38-10.15-4.53Zm-707.93-113q-11.92 0-21.34-9.04-9.43-9.04-9.43-21.73v-27.08q0-28.08 14.54-48.12 14.54-20.03 41.16-31.73 56.84-25.07 105.73-39.07 48.88-14 118.58-14 20.46 0 38.8 1.96 18.35 1.96 37.04 5.34 10.39 1.7 15.62 11.2 5.23 9.5.3 18.88-8.46 18.46-12.19 39.42-3.73 20.97-3.73 41.66 0 11.07 1.46 21.92 1.46 10.85 4.39 21.69 1.92 11.16-4.16 19.93-6.07 8.77-17.23 8.77H133.38Zm489.16-322.24q-32.39 32.77-83 32.77-2.54 0-4.5-.34-1.96-.35-4.5-1.27 18.61-21.92 28.42-50.73 9.81-28.81 9.81-63.04 0-34.23-10.58-61.81-10.57-27.58-27.65-52.73 1.77.08 4.5-.38 2.73-.47 4.5-.47 50.61 0 83 32.39 32.38 32.38 32.38 82.61 0 50.24-32.38 83Zm-322.54 0q-32.77-32.76-32.77-83 0-50.23 32.77-82.61 32.77-32.39 83-32.39t82.62 32.39Q498-670.85 498-620.62q0 50.24-32.38 83-32.39 32.77-82.62 32.77-50.23 0-83-32.77Z"/></svg>