<svg xmlns="http://www.w3.org/2000/svg" width="48" height="48" viewBox="0 -960 960 960"><path d="M102.615-273.254q0-28.054 14.538-48.092 14.539-20.039 41.112-31.798 56.889-25.01 105.773-39.01 48.885-14 118.962-14t118.461 14q48.385 14 106.043 39.01 25.804 11.759 40.458 31.798 14.653 20.038 14.653 48.092v25.562q0 10.904-9.25 21.606-9.25 10.702-23.057 10.702H134.923q-13.212 0-22.76-9.548-9.548-9.549-9.548-22.76v-25.562Zm722.462 57.87h-96.462q1.154-8.077 2.962-15.71 1.808-7.633 1.808-16.598v-23.231q0-43.769-16.267-73.794-16.267-30.024-47.426-50.668Q707.154-388.154 742-378q34.846 10.154 61.339 23.249 23.738 12.828 38.892 34.797 15.154 21.97 15.154 49.031v23.231q0 13.211-9.548 22.76-9.548 9.548-22.76 9.548ZM383-504.846q-49.885 0-82.827-32.942-32.943-32.943-32.943-82.827 0-49.885 32.943-82.443 32.942-32.558 82.827-32.558t82.442 32.558Q498-670.5 498-620.615q0 49.884-32.558 82.827-32.557 32.942-82.442 32.942Zm271.923-115.769q0 49.884-32.557 82.827-32.558 32.942-82.718 32.942-2.648 0-4.609-.346-1.962-.346-4.501-1.269 18.863-21.741 28.547-50.735 9.684-28.994 9.684-63.13t-10.577-61.713q-10.577-27.577-27.654-52.73 1.77.076 4.501-.385 2.73-.462 4.5-.462 50.269 0 82.827 32.558 32.557 32.558 32.557 82.443ZM133.384-246.154h498.462v-27.077q0-16-8.731-29.077-8.73-13.077-28.884-23.692Q540.692-352.615 494-364q-46.693-11.385-111-11.385-64.308 0-111.116 11.385-46.807 11.385-100.346 38-20.154 10.615-29.154 23.692t-9 29.077v27.077Zm249.231-289.461q35.923 0 60.269-24.347 24.347-24.346 24.347-60.269T442.884-680.5q-24.346-24.346-60.269-24.346T322.346-680.5Q298-656.154 298-620.231t24.346 60.269q24.346 24.347 60.269 24.347Zm0 289.461Zm0-374.077Z"/></svg>