<svg xmlns="http://www.w3.org/2000/svg" width="48" height="48" viewBox="0 -960 960 960"><path d="M481.31-735.538q-27.772 0-46.195-18.694-18.423-18.695-18.423-45.731 0-27.037 18.344-45.845 18.343-18.807 45.731-18.807 27.387 0 46.195 18.694 18.807 18.694 18.807 45.73 0 27.037-18.704 45.845t-45.755 18.808ZM416.476-100q-6.63 0-10.899-4.423-4.269-4.423-4.269-10.962v-508.846Q339.461-604.769 304-566.077q-35.461 38.693-45.077 107.769-1.295 6.911-6.038 11.148-4.744 4.237-11.008 4.237-5.968 0-9.961-4.555-3.993-4.554-3.762-10.83 11.307-99.769 77.474-150.577 66.166-50.807 175.603-50.807 103.913 0 163.033-27.193Q703.385-714.077 711.385-806q1.255-6.789 5.446-11.087 4.192-4.298 10.988-4.298 6.796 0 11.066 4.385 4.269 4.384 3.269 11-5.462 79.692-50.5 122.885-45.038 43.192-128.577 51.654v516.076q0 6.539-4.485 10.962T547.477-100q-6.631 0-10.9-4.423t-4.269-10.962v-227.307H432.077v227.307q0 6.539-4.485 10.962T416.476-100Zm-190.245 0q-11.77 0-19.731-7.865-7.962-7.866-7.962-20.208v-136.085q0-12.342 7.962-20.207 7.961-7.866 19.731-7.866h17.077q11.769 0 19.73 7.866Q271-276.5 271-264.158v136.085q0 12.342-7.962 20.208-7.961 7.865-19.73 7.865h-17.077Z"/></svg>