<svg xmlns="http://www.w3.org/2000/svg" width="48" height="48" viewBox="0 -960 960 960"><path d="M137.88-398.35q-33.5-33.5-33.5-81.88 0-48.39 33.5-81.89t81.89-33.5q48.38 0 81.88 33.5 33.5 33.5 33.5 81.89 0 48.38-33.5 81.88-33.5 33.5-81.88 33.5-48.39 0-81.89-33.5Zm376.7 59.23q-57.96-57.9-57.96-141.31 0-83.42 57.78-141.5Q572.18-680 655.82-680q83.64 0 141.6 57.89 57.97 57.9 57.97 141.31 0 83.42-57.79 141.5-57.78 58.07-141.42 58.07-83.64 0-141.6-57.89Zm260.73-21.68q49.31-48.8 49.31-119.31t-49.31-119.81Q726-649.23 655.49-649.23q-70.5 0-119.3 49.31-48.81 49.3-48.81 119.81t48.81 119.31q48.8 48.8 119.3 48.8 70.51 0 119.82-48.8Z"/></svg>