<svg xmlns="http://www.w3.org/2000/svg" width="48" height="48" viewBox="0 -960 960 960"><path d="M215.38-197.08q-23.05 0-39.22-16.16Q160-229.4 160-252.46v-266.31q0-66.27 25.04-124.94 25.04-58.66 68.65-102.63 43.62-43.97 102.51-68.93 58.9-24.96 125.24-24.96 66.33 0 124.52 25.04t101.25 68.75q43.05 43.72 67.92 102.56Q800-585.04 800-518.77V-160q0 23.06-16.16 39.22-16.17 16.17-39.22 16.17h-248q-6.58 0-10.99-4.46-4.4-4.46-4.4-11.12 0-6.66 4.4-10.93 4.41-4.26 10.99-4.26h248q10.76 0 17.69-6.93 6.92-6.92 6.92-17.69v-37.08h-61.85q-23.03 0-39.21-16.47Q652-230.02 652-252.46v-124.46q0-22.45 16.17-38.92 16.18-16.47 39.21-16.47h61.85v-86.46q0-120.15-84.13-205.42-84.13-85.27-204.08-85.27-119.94 0-205.1 85.27-85.15 85.27-85.15 205.42v86.46h61.85q23.03 0 39.21 16.47Q308-399.37 308-376.92v124.46q0 22.44-16.17 38.91-16.18 16.47-39.21 16.47h-37.24Z"/></svg>