<svg xmlns="http://www.w3.org/2000/svg" width="48" height="48" viewBox="0 96 960 960"><path d="m794.769 800.308-145-144.231q7.308-14.692 20.5-24.885Q683.461 621 702.154 621H764v-86.462q0-119.384-84.308-205.038Q595.385 243.846 476 243.846q-47.154 0-93.577 16.077Q336 276 299.077 305.385l-21.693-23.231q33.462-28 85.385-48.539Q414.692 213.077 476 213.077q66.538 0 124.731 25.423 58.192 25.423 101.192 69.154 43 43.73 67.923 102.038Q794.769 468 794.769 534.538v265.77ZM491.385 948.693q-6.847 0-11.116-4.27Q476 940.154 476 933.308q0-6.077 4.269-10.731t11.116-4.654h253.846q4.615 0 9.231-1.538 4.615-1.539 8.461-5.385l-55.538-54.769h-5.231q-23.462 0-39.423-15.962-15.962-15.961-15.962-39.423v-6L230 378.846q-20.077 30.308-32.269 72.693-12.193 42.384-12.193 82.999V621h61.847q23.461 0 39.423 16.346 15.961 16.346 15.961 39.039v124.461q0 23.462-15.961 39.423-15.962 15.962-39.423 15.962h-37.231q-23.231 0-39.308-16.077-16.077-16.077-16.077-39.308V534.538q0-50.692 14.654-96.653 14.654-45.962 37.654-81.962L65 213.846q-4.385-4.384-4.654-10.615-.27-6.231 4.885-11.385 4.384-5.154 10.73-5.154 6.347 0 11.5 5.154l780.231 780.231q4.385 4.385 4.385 10.615 0 6.231-4.385 10.616-5.154 5.154-11.5 4.769-6.346-.385-12.269-5.538L782 930.077q-7.769 9.077-19.692 13.846-11.923 4.77-22.923 4.77h-248Z"/></svg>