<svg xmlns="http://www.w3.org/2000/svg" width="48" height="48" viewBox="0 -960 960 960"><path d="M794.769-255.692 764-286.461v-117.77h-61.846q-8.462 0-14.616 12.962-6.153 12.961-8.461 19.884l-29.308-28.538q7.308-14.692 20.414-24.885Q683.289-435 702.073-435H764v-86.462q0-119.384-84.308-205.038Q595.385-812.154 476-812.154q-47.154 0-93.577 16.077Q336-780 299.077-750.615l-21.693-23.231q33.462-28 85.385-48.539Q414.692-842.923 476-842.923q66.538 0 124.731 25.423 58.192 25.423 101.346 69.113Q745.23-704.698 770-646.406q24.769 58.292 24.769 124.944v265.77ZM491.385-107.307q-6.577 0-10.981-4.455Q476-116.216 476-122.867q0-5.902 4.404-10.556 4.404-4.654 10.981-4.654h253.846q4.615 0 9.231-1.538 4.615-1.539 8.461-5.385l-55.538-54.769h-5.231q-23.039 0-39.212-16.173-16.173-16.173-16.173-39.212v-6L230-677.154q-20.077 30.308-32.269 72.693-12.193 42.384-12.193 82.999V-435h61.847q23.038 0 39.211 16.471t16.173 38.914v124.461q0 23.039-16.173 39.212-16.173 16.173-39.211 16.173h-37.231q-23.058 0-39.222-16.163-16.163-16.164-16.163-39.222v-266.308q0-50.562 14.654-96.588 14.654-46.027 37.654-82.027L65-842.154q-4.385-4.524-4.654-10.685-.27-6.161 4.885-11.706 4.384-4.763 10.73-4.763 6.347 0 11.5 5.154l780.231 780.23q4.385 4.386 4.385 10.774 0 6.389-3.993 10.616-5.546 4.996-11.892 4.611-6.346-.385-12.269-5.538L782-125.923q-7.769 9.077-19.692 13.846-11.923 4.77-22.923 4.77h-248ZM210.154-230.538h37.231q10.769 0 17.692-6.923T272-255.154v-124.461q0-10-6.923-17.308t-17.692-7.308h-61.847v149.077q0 10.77 6.923 17.693 6.923 6.923 17.693 6.923Zm0 0h-24.616H272h-61.846ZM764-286.461Z"/></svg>