<svg xmlns="http://www.w3.org/2000/svg" width="48" height="48" viewBox="0 0 48 48"><path d="M22.05 21.2q.5 0 .875-.375t.375-.925q0-.5-.375-.85t-.875-.35q-.5 0-.9.35t-.4.9q0 .5.4.875t.9.375Zm.9 7.95 8.3-8.3q.2-.25.225-.575.025-.325-.225-.575-.25-.2-.55-.2-.3 0-.55.25l-8.3 8.3q-.25.25-.25.55 0 .3.25.55.25.2.55.2.3 0 .55-.2Zm8.1 1.05q.5 0 .875-.375t.375-.925q0-.5-.375-.85t-.875-.35q-.5 0-.9.35t-.4.9q0 .5.4.875t.9.375Zm6.2 6.7h-21.4q-1.15 0-1.95-.8t-.8-1.95V6.75q0-1.15.8-1.95t1.95-.8h14.2q.55 0 1.075.225.525.225.925.575l7.15 7.15q.35.4.575.925Q40 13.4 40 13.95v20.2q0 1.15-.8 1.95t-1.95.8Zm1.2-23.4H31.9q-.6 0-1.05-.425-.45-.425-.45-1.075V5.55H15.85q-.45 0-.85.375-.4.375-.4.825v27.4q0 .45.4.85.4.4.85.4h21.4q.45 0 .825-.4.375-.4.375-.85ZM8.75 44q-1.15 0-1.95-.8T6 41.25v-25.4q0-.3.225-.525.225-.225.575-.225.3 0 .525.225.225.225.225.525v25.4q0 .45.375.825.375.375.825.375H28.1q.3 0 .525.225.225.225.225.575 0 .3-.225.525Q28.4 44 28.1 44ZM14.6 5.55v7.95-7.95V35.4 5.55Z"/></svg>