<svg xmlns="http://www.w3.org/2000/svg" width="48" height="48" viewBox="0 0 48 48"><path d="M29 35.75q.75 0 1.25-.5t.5-1.25q0-.75-.5-1.25t-1.25-.5q-.75 0-1.25.5t-.5 1.25q0 .75.5 1.25t1.25.5ZM18.4 34.6q.2.25.525.25t.525-.25l10.2-10.2q.2-.2.2-.525t-.2-.525q-.2-.2-.525-.2t-.525.2L18.35 33.6q-.2.2-.2.5t.25.5Zm.6-8.85q.75 0 1.25-.5t.5-1.25q0-.75-.5-1.25t-1.25-.5q-.75 0-1.25.5t-.5 1.25q0 .75.5 1.25t1.25.5ZM12.75 42q-1.15 0-1.95-.8t-.8-1.95V8.75q0-1.15.8-1.95t1.95-.8h16.7L38 14.55v24.7q0 1.15-.8 1.95t-1.95.8ZM28.7 13.6V7.55H12.75q-.45 0-.825.375-.375.375-.375.825v30.5q0 .45.375.825.375.375.825.375h22.5q.45 0 .825-.375.375-.375.375-.825V15.2H30.3q-.65 0-1.125-.475T28.7 13.6ZM11.55 7.55v7.65-7.65 32.9-32.9Z"/></svg>