<svg xmlns="http://www.w3.org/2000/svg" width="48" height="48" viewBox="0 -960 960 960"><path d="M729.042-300q-6.657 0-10.927-4.404-4.269-4.404-4.269-10.981v-109.23h-109.23q-6.577 0-10.981-4.458-4.404-4.459-4.404-11.116t4.404-10.926q4.404-4.27 10.981-4.27h109.23v-109.23q0-6.577 4.458-10.981Q722.763-580 729.42-580t10.926 4.404q4.27 4.404 4.27 10.981v109.23h109.23q6.577 0 10.981 4.458 4.404 4.459 4.404 11.116t-4.404 10.926q-4.404 4.27-10.981 4.27h-109.23v109.23q0 6.577-4.459 10.981Q735.699-300 729.042-300ZM70-15v-152 152Zm369.75-171.154q-6.391 0-12.058-1.886-5.666-1.886-10.769-6.421-86-78.692-149.538-139.769-63.539-61.077-105.008-111.94-41.469-50.864-61.923-95.766Q80-586.839 80-632.231q0-73.846 50.5-126.192 50.5-52.346 124.885-52.346 54.692 0 101.575 29.395Q403.844-751.978 440-695q38.923-58.616 84.659-87.193 45.735-28.576 99.956-28.576 59.77 0 105.462 35.73 45.692 35.731 61.154 90.654 3.846 11.846-4.021 20.654-7.866 8.808-19.518 6.808-8.307-1.539-16.23-2.308-7.923-.769-16.231-.769-97.308 0-161.654 64.615Q509.231-530.769 509.231-440q0 34.308 10.769 68.115 10.769 33.808 31.539 60.193 6.461 9 5.961 19.961-.5 10.962-7.961 18.193l-86.462 78.307q-4.821 4.654-10.862 6.866-6.04 2.211-12.465 2.211Z"/></svg>