<svg xmlns="http://www.w3.org/2000/svg" width="48" height="48" viewBox="0 96 960 960"><path d="M800 782.231 273.769 256h470.847q23.23 0 39.307 16.077T800 311.384v470.847Zm15 178.846L749.692 896H215.384q-23.23 0-39.307-16.077T160 840.616V306.308l-65.077-65.077q-4.385-4.385-4.77-10.731-.384-6.346 4.77-11.5t11.115-5.154q5.962 0 11.116 5.154l720.077 720.077q4.384 4.385 4.769 10.615.385 6.231-4.769 11.385-4.385 5.154-10.731 5.154t-11.5-5.154ZM327.538 757.462h284.616l-96.923-96.923-68.462 85-59.461-73.308q-5-6-12-5.616-7 .385-11.231 6.385l-47.539 60.462q-5.231 8-1.615 16 3.615 8 12.615 8Z"/></svg>