<svg xmlns="http://www.w3.org/2000/svg" width="48" height="48" viewBox="0 -960 960 960"><path d="m245.54-653.69-51.46-51.23q-4.39-4.39-4.77-10.62-.39-6.23 4.77-10.61 5.15-5.16 11.11-5.16 5.96 0 11.12 5.16l51.23 51.23q3.38 4.38 3.88 10.61.5 6.23-3.88 11.39-5.16 4.38-11.39 4.27-6.23-.12-10.61-5.04ZM464.62-740v-73.85q0-6.84 4.26-11.11 4.27-4.27 11.12-4.27t11.12 4.27q4.26 4.27 4.26 11.11V-740q0 6.85-4.26 11.12-4.27 4.26-11.12 4.26t-11.12-4.26q-4.26-4.27-4.26-11.12Zm227.84 65.31 51.46-51.46q4.39-4.16 10.62-4.54 6.23-.39 11.38 4.77 5.16 5.15 5.16 11 0 5.84-5.16 11l-51.46 51.46q-4.38 4.38-11 4.77-6.61.38-11-4.77-5.15-5.16-5.15-11.12 0-5.96 5.15-11.11ZM400-175.38v-121.54L297.23-400.46q-8-7.23-12.61-17.96-4.62-10.73-4.62-21.96v-64.24q0-22.69 16.35-39.03Q312.69-560 335.38-560h289.24q22.69 0 39.03 16.35Q680-527.31 680-504.62v64.24q0 11.23-4.62 21.96-4.61 10.73-11.84 17.96L560-296.92v121.54q0 22.69-16.35 39.03Q527.31-120 504.62-120h-49.24q-22.69 0-39.03-16.35Q400-152.69 400-175.38Z"/></svg>