<svg xmlns="http://www.w3.org/2000/svg" width="48" height="48" viewBox="0 -960 960 960"><path d="M146.97-372.308q-6.447 0-10.555-4.184-4.107-4.185-4.107-10.585v-185.846q0-6.4 4.215-10.585 4.215-4.184 10.661-4.184 6.447 0 10.554 4.184 4.108 4.185 4.108 10.585v69.615h113.385v-69.615q0-6.4 4.215-10.585 4.215-4.184 10.661-4.184 6.447 0 10.555 4.184 4.107 4.185 4.107 10.585v185.846q0 6.4-4.215 10.585-4.215 4.184-10.661 4.184-6.447 0-10.555-4.184-4.107-4.185-4.107-10.585v-86.692H161.846v86.692q0 6.4-4.215 10.585-4.215 4.184-10.661 4.184Zm513.184 0q-11.143 0-19.494-8.352-8.352-8.351-8.352-19.494v-25.077q0-6.4 4.184-10.584Q640.677-440 647.077-440q6.523 0 11.415 5.077 4.893 5.077 4.123 12v21.077h115.539v-66.077H652.077q-8.864 0-14.317-5.453-5.452-5.453-5.452-14.316v-72.154q0-11.143 8.352-19.494 8.351-8.352 19.494-8.352h119.692q11.143 0 19.494 8.352 8.352 8.351 8.352 19.494v25.077q0 6.4-4.184 10.584Q799.323-520 792.923-520q-6.923 0-11.615-5.077-4.693-5.077-3.923-12v-21.077H661.846v66.077h126.077q8.864 0 14.317 5.453 5.452 5.453 5.452 14.316v72.154q0 11.143-8.352 19.494-8.351 8.352-19.494 8.352H660.154Zm-224.923 0q-11.77 0-19.731-7.961-7.962-7.962-7.962-19.731v-172.923q0-6.4 4.215-10.585 4.215-4.184 10.662-4.184 6.447 0 10.554 4.184 4.108 4.185 4.108 10.585v171.077h103.692q6.4 0 10.585 4.215 4.185 4.215 4.185 10.661 0 6.447-4.185 10.555-4.185 4.107-10.585 4.107H435.231Z"/></svg>