<svg xmlns="http://www.w3.org/2000/svg" width="48" height="48" viewBox="0 -960 960 960"><path d="M621.769-160v-340.846q0-14.231-6.23-27.539-6.231-13.307-16.462-20.538l-181-128v-91.539q0-12.307 9.163-21.923Q436.404-800 448.846-800h400.385q12.442 0 21.606 9.163Q880-781.673 880-769.231v578.462q0 12.442-9.163 21.606Q861.673-160 849.231-160H621.769ZM697-290.461h52.308v-52.308H697v52.308Zm0-164.616h52.308v-52.308H697v52.308Zm0-164.846h52.308v-52.308H697v52.308ZM80-187.692v-279q0-13.231 5.73-25.577 5.731-12.346 16.962-19.577l181-128.693q14.434-10.23 32.294-10.23t32.322 10.23l180 128.693q11.231 7.231 16.961 19.577Q551-479.923 551-466.692v279q0 11.981-7.856 19.836Q535.289-160 523.308-160H389.462v-194.077H241.769V-160H107.692q-11.98 0-19.836-7.856Q80-175.711 80-187.692Z"/></svg>