<svg xmlns="http://www.w3.org/2000/svg" width="48" height="48" viewBox="0 -960 960 960"><path d="M880-744.616v529.232q0 22.25-16.567 38.817T824.616-160H637.154q-6.538 0-10.962-4.485-4.423-4.485-4.423-11.115 0-6.631 4.423-10.9 4.424-4.269 10.962-4.269h187.462q10.769 0 17.692-6.923t6.923-17.692v-529.232q0-10.769-6.923-17.692t-17.692-6.923H473.461q-10.769 0-17.692 6.923t-6.923 17.692v70q0 6.539-4.856 10.962t-11.115 4.423q-6.26 0-10.529-4.423t-4.269-10.962v-69.23q0-23.038 16.331-39.596Q450.74-800 473.461-800h351.155q22.25 0 38.817 16.567T880-744.616ZM80-466.692q0-13.231 5.73-25.577 5.731-12.346 16.962-19.577l181-128.693q7.616-5.046 15.577-7.254Q307.231-650 315.538-650q8.308 0 16.582 2.207 8.274 2.208 16.188 7.254l180 128.693q11.231 7.231 16.961 19.577Q551-479.923 551-466.692v251.308q0 22.25-16.269 38.817T495.616-160h-67.77q-22.25 0-38.817-16.567-16.568-16.567-16.568-38.817v-124.847H258.769v124.847q0 22.25-16.269 38.817T203.385-160h-68.001q-22.25 0-38.817-16.567T80-215.384v-251.308Zm30.769.421v250.887q0 10.769 6.923 17.692t17.692 6.923h68.001q10.769 0 17.692-6.923T228-215.384v-123.308q0-13.808 9.548-23.058t22.76-9.25h110.615q13.808 0 23.058 9.25t9.25 23.058v123.308q0 10.769 7.308 17.692 7.307 6.923 17.307 6.923h67.77q10.769 0 17.692-6.923t6.923-17.692v-250.887q0-5.384-2.693-11.153-2.692-5.77-8.076-9.616L329.461-613.846q-6.153-4.616-13.461-4.616-7.308 0-14.231 4.616L121.538-487.04q-5.384 3.846-8.077 9.616-2.692 5.769-2.692 11.153Zm487.308-83.652ZM403.231-190.769V-371H228v180.231V-371h175.231v180.231Zm307.638-429.154h24.66q5.548 0 9.663-4.115 4.116-4.116 4.116-9.603V-658q0-5.692-4.116-9.962-4.115-4.269-9.602-4.269h-24.359q-5.693 0-9.962 4.161-4.269 4.16-4.269 9.708v24.661q0 5.547 4.161 9.663 4.16 4.115 9.708 4.115Zm0 164.846h24.66q5.548 0 9.663-4.093 4.116-4.092 4.116-9.549v-24.209q0-5.457-4.116-9.957-4.115-4.5-9.602-4.5h-24.359q-5.693 0-9.962 4.5T697-492.928v24.209q0 5.457 4.161 9.549 4.16 4.093 9.708 4.093Zm0 164.616h24.66q5.548 0 9.663-4.093 4.116-4.093 4.116-9.55v-24.208q0-5.457-4.116-9.957-4.115-4.5-9.602-4.5h-24.359q-5.693 0-9.962 4.5T697-328.312v24.208q0 5.457 4.161 9.55 4.16 4.093 9.708 4.093Z"/></svg>