<svg xmlns="http://www.w3.org/2000/svg" width="48" height="48" viewBox="0 -960 960 960"><path d="M210.769-266.154h538.462q41.461 0 70.731-29.269 29.269-29.269 29.269-70.731v-223.077q0-41.461-29.269-70.731-29.27-29.269-70.731-29.269H210.769q-41.461 0-70.731 29.269-29.269 29.27-29.269 70.731v223.077q0 41.462 29.269 70.731 29.27 29.269 70.731 29.269Zm0 30.77q-53.904 0-92.337-38.433Q80-312.25 80-366.154v-223.077q0-53.904 38.432-92.337Q156.865-720 210.769-720h538.462q53.904 0 92.337 38.432Q880-643.135 880-589.231v223.077q0 53.904-38.432 92.337-38.433 38.433-92.337 38.433H640q0 8.769-7.846 17.461-7.846 8.693-18.308 8.693H346.154q-10.462 0-18.308-8.693Q320-226.615 320-235.384H210.769ZM480-478.077Z"/></svg>