<svg xmlns="http://www.w3.org/2000/svg" width="48" height="48" viewBox="0 -960 960 960"><path d="M95.168-240q-6.63 0-10.899-4.423-4.27-4.423-4.27-10.961v-482.693q0-5.789 4.486-10.587 4.485-4.798 11.115-4.798 6.631 0 10.9 4.798t4.269 10.587v342.462h355.308V-640q0-12.269 9.25-21.519 9.25-9.25 21.519-9.25h270.462q46.485 0 79.589 33.103Q880-604.563 880-558.077v302.693q0 6.538-4.485 10.961T864.4-240q-6.631 0-10.9-4.423t-4.269-10.961v-109.462H110.769v109.462q0 6.538-4.485 10.961T95.168-240Zm180.126-239.769q-32.602 0-55.41-22.45-22.807-22.449-22.807-55.948 0-32.602 22.898-55.025 22.898-22.424 55.5-22.424 32.602 0 55.41 22.514 22.807 22.514 22.807 55.5 0 32.987-22.898 55.41-22.898 22.423-55.5 22.423Zm221.552 84.154h352.385v-162.462q0-33.793-24.065-57.858Q801.101-640 767.308-640H496.846v244.385ZM275.385-510.538q19.769 0 33.653-13.885 13.885-13.885 13.885-33.269 0-19.385-13.885-33.27-13.884-13.884-33.653-13.884-19.77 0-33.654 13.933-13.885 13.932-13.885 32.836 0 19.769 13.885 33.654 13.884 13.885 33.654 13.885Zm0-47.539ZM496.846-640v244.385V-640Z"/></svg>