<svg xmlns="http://www.w3.org/2000/svg" width="48" height="48" viewBox="0 -960 960 960"><path d="M480-512q65.923 0 107.654-52.338 41.731-52.337 41.731-121.97v-122.923h-298.77v122.923q0 69.633 41.731 121.97Q414.077-512 480-512Zm256.923 392H223.077q-6.539 0-10.962-4.485t-4.423-11.115q0-6.631 4.423-10.9t10.962-4.269h76.769v-123.154q0-73.846 42.269-131.962Q384.384-464 455.538-480q-71.154-16-113.423-74.615-42.269-58.616-42.269-131.693v-122.923h-76.769q-6.539 0-10.962-4.485t-4.423-11.115q0-6.631 4.423-10.9T223.077-840h513.846q6.539 0 10.962 4.485t4.423 11.115q0 6.631-4.423 10.9t-10.962 4.269h-76.769v122.923q0 73.077-42.384 131.693Q575.385-496 504.462-480q71.154 16 113.423 74.115 42.269 58.116 42.269 131.962v123.154h76.769q6.539 0 10.962 4.485t4.423 11.115q0 6.631-4.423 10.9T736.923-120Z"/></svg>