<svg xmlns="http://www.w3.org/2000/svg" width="48" height="48" viewBox="0 -960 960 960"><path d="M69.23-387.077v-185.846q0-6.4 4.216-10.585 4.215-4.184 10.661-4.184 6.447 0 10.555 4.184 4.107 4.185 4.107 10.585v67.154h121.154v-67.154q0-6.4 4.215-10.585 4.215-4.184 10.662-4.184 6.446 0 10.554 4.184 4.108 4.185 4.108 10.585v185.846q0 6.4-4.215 10.585-4.216 4.184-10.662 4.184-6.447 0-10.554-4.184-4.108-4.185-4.108-10.585v-88.384H98.769v88.384q0 6.4-4.215 10.585-4.215 4.184-10.662 4.184-6.446 0-10.554-4.184-4.107-4.185-4.107-10.585Zm296.847 0v-171.077h-62.154q-6.4 0-10.585-4.215-4.184-4.215-4.184-10.661 0-6.447 4.184-10.555 4.185-4.107 10.585-4.107h153.846q6.4 0 10.585 4.215 4.185 4.215 4.185 10.661 0 6.447-4.185 10.555-4.185 4.107-10.585 4.107h-62.154v171.077q0 6.4-4.215 10.585-4.215 4.184-10.661 4.184-6.447 0-10.554-4.184-4.108-4.185-4.108-10.585Zm209.231 0v-171.077h-62.154q-6.4 0-10.585-4.215-4.184-4.215-4.184-10.661 0-6.447 4.184-10.555 4.185-4.107 10.585-4.107H667q6.4 0 10.585 4.215 4.184 4.215 4.184 10.661 0 6.447-4.184 10.555-4.185 4.107-10.585 4.107h-62.154v171.077q0 6.4-4.215 10.585-4.215 4.184-10.661 4.184-6.447 0-10.555-4.184-4.107-4.185-4.107-10.585Zm146.154 0v-180.154q0-7.923 6.615-14.192t14.846-6.269h92.693q23.769 0 39.461 15.692t15.692 39.461v23.385q0 23.769-15.692 38.962Q859.385-455 835.616-455H751v67.923q0 6.4-4.215 10.585-4.215 4.184-10.661 4.184-6.447 0-10.555-4.184-4.107-4.185-4.107-10.585ZM751-484.539h85.616q9.23 0 16.923-7.692 7.692-7.692 7.692-16.923v-24.385q0-9.23-7.692-16.923-7.693-7.692-16.923-7.692H751v73.615Z"/></svg>