<svg xmlns="http://www.w3.org/2000/svg" width="48" height="48" viewBox="0 -960 960 960"><path d="M389.154-349q10.692 0 18.423-7.846 7.731-7.846 7.731-18.308 0-1.231-.5-3.846t-.731-3.846q3.769 2 7.769 3t8 1q10.693 0 18.423-7.846Q456-394.538 456-405t-7.846-18.308q-7.846-7.846-18.308-7.846-7 0-12.884 3.769-5.885 3.77-10.116 9.539L298.462-536.077q8.538-3.231 14.192-10.231t5.654-15.769q0-10.462-7.846-18.308-7.847-7.846-18.308-7.846-10.462 0-18.308 7.731T266-562.077q0 2.231.5 4.462.5 2.23.731 3.461-3.77-2-7.654-3-3.885-1-8.116-1-10.461 0-18.307 7.731-7.846 7.731-7.846 18.423 0 10.462 7.846 18.308t18.307 7.846q8 0 14.616-3.885 6.615-3.884 9.846-10.884l109.154 119q-9.539 1.461-15.808 8.961t-6.269 17.5q0 10.462 7.846 18.308T389.154-349Zm-282-128.461 18.384-25.308 296.231 279.538q15.308 14.308 34.231 21.462 18.923 7.154 39 7.154 15.538 0 29.615-3.654 14.077-3.654 26.846-11.654l307.77-194.308v34.077L567.308-186.077q-16.462 9.462-34.539 15.077-18.077 5.616-38.769 5.616-24.923 0-49.346-9.231t-43.116-27.692L107.154-477.461Zm182.384-247.693L307.692-750q76.539 42.846 137.423 111.192Q506-570.462 527.308-498.693q41.846-52.692 84.346-77.807 42.5-25.116 131.192-48.654 36.539-9.692 64.154-19.116 27.615-9.423 52.231-20.346V-634q-23.923 9.461-50.192 18.423-26.27 8.962-58.116 17.423-89.077 23.769-133.269 51.731-44.192 27.961-83.5 90.5-1.692 2.154-4.731 4.115-3.038 1.962-7.961 1.962-4.616 0-8.885-3.539-4.269-3.538-4.731-8.923-19.231-74.923-79.154-146.461-59.923-71.539-139.154-116.385Zm-164 222.385q65.847 62.384 147.347 139.384 81.5 77 148.884 140.154 15.308 14.308 34.231 21.462 18.923 7.154 39 7.154 15.538 0 29.615-3.654 14.077-3.654 26.846-11.654 71.924-46.462 154.808-98.308 82.885-51.846 152.962-96l-307.77 194.308q-12.769 8-26.846 11.654T495-194.615q-20.077 0-39-7.154t-34.231-21.462L125.538-502.769Z"/></svg>