<svg xmlns="http://www.w3.org/2000/svg" width="48" height="48" viewBox="0 -960 960 960"><path d="M215.38-160q-23.23 0-39.3-16.08Q160-192.15 160-215.38v-529.24q0-23.23 16.08-39.3Q192.15-800 215.38-800h202.93q10.61 0 17.19 8.88 6.58 8.89 2.65 19.27-4.92 16.16-7.38 32.16-2.46 16-2.46 33.38 0 92.93 63.07 156.39 63.08 63.46 156.77 63.46 18.39 0 33.27-2.35 14.89-2.34 28.81-6.27l65.62 65.85q10.3 10.31 17.23 20.65 6.92 10.35 6.92 26.96v166.24q0 23.23-16.08 39.3Q767.85-160 744.62-160H215.38Zm630.93-320.92L727.38-598.85q-19.46 14.77-37.26 20.5-17.81 5.73-41.97 5.73-56.92 0-95.3-38.38-38.39-38.38-38.39-95.31 0-56.92 38.39-95.31Q591.23-840 647.38-840q56.93 0 95.31 38.38 38.39 38.39 38.39 95.31 0 24.16-7.23 45.69-7.23 21.54-21.23 41.77l115.92 116.7q4.38 4.38 4.77 10.61.38 6.23-4.77 10.62-5.16 5.15-11.12 5.15-5.96 0-11.11-5.15ZM647.38-603.38q44.47 0 73.7-29.62 29.23-29.62 29.23-73.31 0-44.46-29.23-73.69-29.23-29.23-73.7-29.23-43.69 0-72.92 29.23-29.23 29.23-29.23 73.69 0 43.69 29.23 73.31 29.23 29.62 72.92 29.62ZM447-310.46l-55-67.39q-6.23-7.46-16.08-7.07-9.84.38-16.07 7.84L316.77-321q-6 7.23-2.27 14.85 3.73 7.61 11.96 7.61h313.69q8.23 0 12.23-7.61 4-7.62-1-14.85l-101.3-134.08q2.3 0 5 .77 2.69.77 5.77 1.54L447-310.46Z"/></svg>