<svg xmlns="http://www.w3.org/2000/svg" width="48" height="48"><path d="M16.4 33.05H32q.45 0 .65-.4t-.1-.8L28.4 26.4q-.25-.3-.6-.3t-.55.3l-4.9 6.1-3-3.7q-.25-.3-.6-.275-.35.025-.55.325l-2.35 3q-.25.4-.075.8t.625.4zM10.75 40q-1.15 0-1.95-.8T8 37.25v-26.5q0-1.15.8-1.95t1.95-.8h26.5q1.15 0 1.95.8t.8 1.95v26.5q0 1.15-.8 1.95t-1.95.8zm0-1.55h26.5q.45 0 .825-.375.375-.375.375-.825v-26.5q0-.45-.375-.825-.375-.375-.825-.375h-26.5q-.45 0-.825.375-.375.375-.375.825v26.5q0 .45.375.825.375.375.825.375zm-1.2-28.9v28.9-28.9z"/></svg>