<svg xmlns="http://www.w3.org/2000/svg" width="48" height="48" viewBox="0 -960 960 960"><path d="M537.616-61.538h-90.693q-12.142 0-19.994-8.352t-7.852-19.495V-303.23q0-12.142 7.852-19.994t19.994-7.852h29.462v-163q0-10.769-6.923-17.692t-17.693-6.923H191.538q-22.442 0-38.913-16.471-16.471-16.471-16.471-38.914v-136.846q0-23.039 16.471-39.212 16.471-16.173 38.913-16.173h49.154v-30.462q0-11.142 7.852-19.494t19.994-8.352H716q11.143 0 19.495 8.352 8.351 8.352 8.351 19.494v95.078q0 11.142-8.351 19.494-8.352 8.352-19.495 8.352H268.538q-12.142 0-19.994-8.352t-7.852-19.494v-33.847h-49.154q-10.769 0-17.692 6.924-6.923 6.923-6.923 17.692v136.846q0 10 6.923 17.308 6.923 7.307 17.692 7.307h260.231q23.039 0 39.212 16.174 16.173 16.173 16.173 39.211v163h30.462q12.142 0 19.994 7.852t7.852 19.994v213.846q0 11.143-7.852 19.495t-19.994 8.352Z"/></svg>