<svg xmlns="http://www.w3.org/2000/svg" width="48" height="48" viewBox="0 96 960 960"><path d="M215.384 896q-22.442 0-38.913-16.471Q160 863.058 160 840.616V317.308q0-3.847.384-6.923.385-3.077 1.923-6.154l-47.923-47.923q-5.154-5.154-4.654-11.116.5-5.961 4.918-10.781 5.121-5.488 10.967-5.488t11 5.154L826.308 924q4.385 4.385 4.385 10.616 0 6.23-4.385 11.441-5.154 5.097-10.93 4.713-5.776-.385-11.07-4.77l-51.77-51.538q-3.076.769-6.538 1.154-3.461.384-7.308.384H215.384Zm0-30.769h507.923L604.846 746.769H310.692q-9.231 0-13.231-8.115t1.231-16.115l70.077-84.847q4.231-5.769 11.115-5.769 6.885 0 11.885 5.231L455.385 715l51.384-67.308-316-315.999v508.923q0 10.769 6.923 17.692t17.692 6.923ZM800 797.077l-30.769-30.769V311.384q0-10.769-6.923-17.692t-17.692-6.923H289.692L258.923 256h485.693q22.442 0 38.913 16.471Q800 288.942 800 311.384v485.693ZM532.461 529.539Zm-74.153 69.923Z"/></svg>