<svg xmlns="http://www.w3.org/2000/svg" width="48" height="48" viewBox="0 -960 960 960"><path d="m447-310.46-55-67.39q-6.23-7.46-16.08-7.07-9.84.38-16.07 7.84L316.77-321q-6 7.23-2.27 14.85 3.73 7.61 11.96 7.61h313.69q8.23 0 12.23-7.61 4-7.62-1-14.85l-101.3-134.08q2.3 0 5.17.7 2.86.69 5.6 1.61L447-310.46ZM215.38-160q-23.05 0-39.22-16.16Q160-192.33 160-215.38v-529.24q0-23.05 16.16-39.22Q192.33-800 215.38-800h166.08q6.83 0 11.11 4.28 4.28 4.29 4.28 11.12 0 6.83-4.28 11.1t-11.11 4.27H215.38q-9.23 0-16.92 7.69-7.69 7.69-7.69 16.92v529.24q0 9.23 7.69 16.92 7.69 7.69 16.92 7.69h529.24q9.23 0 16.92-7.69 7.69-7.69 7.69-16.92v-189.7q0-6.82 4.28-11.1 4.29-4.28 11.12-4.28 6.83 0 11.1 4.28t4.27 11.1v189.7q0 23.05-16.16 39.22Q767.67-160 744.62-160H215.38ZM480-480Zm168.15-92.62q-57.17 0-95.43-38.29-38.26-38.29-38.26-95.31 0-57.01 38.39-95.4Q591.23-840 647.77-840t94.92 38.32q38.39 38.32 38.39 95.37 0 24.16-7.23 45.69-7.23 21.54-21.23 41.77l115.92 116.7q4.38 4.38 4.77 10.61.38 6.23-4.77 11-5.16 4.77-11.12 4.77-5.96 0-11.11-5.15L727.38-598.85q-19.46 14.77-37.26 20.5-17.81 5.73-41.97 5.73Zm-.38-30.76q44.08 0 73.31-29.62 29.23-29.62 29.23-73.69 0-44.08-29.23-73.31-29.23-29.23-73.31-29.23T574.46-780q-29.23 29.23-29.23 73.31 0 44.07 29.23 73.69 29.23 29.62 73.31 29.62Z"/></svg>