<svg xmlns="http://www.w3.org/2000/svg" width="48" height="48" viewBox="0 96 960 960"><path d="M215.384 896q-23.057 0-39.221-16.163Q160 863.673 160 840.616V311.384q0-23.057 16.163-39.221Q192.327 256 215.384 256h529.232q23.057 0 39.221 16.163Q800 288.327 800 311.384v529.232q0 23.057-16.163 39.221Q767.673 896 744.616 896H215.384ZM479.92 773q33.542 0 62.141-16.769 28.599-16.77 43.554-46.923 5.231-10.231 16.077-14 10.847-3.77 22.625-3.77h144.914V311.384q0-10.769-6.923-17.692t-17.692-6.923H215.384q-10.769 0-17.692 6.923t-6.923 17.692v380.154h145.462q11.23 0 22.077 3.77 10.846 3.769 16.077 14 14.917 30.153 43.455 46.923Q446.379 773 479.92 773Z"/></svg>