<svg xmlns="http://www.w3.org/2000/svg" width="48" height="48" viewBox="0 -960 960 960"><path d="M301.538-465.846h357.154q6.827 0 11.106-4.283t4.279-11.115q0-6.833-4.279-11.102t-11.106-4.269H301.538q-6.827 0-11.106 4.282-4.278 4.283-4.278 11.116 0 6.832 4.278 11.102 4.279 4.269 11.106 4.269ZM215.384-160q-23.057 0-39.221-16.163Q160-192.327 160-215.384v-529.232q0-23.057 16.163-39.221Q192.327-800 215.384-800h529.232q23.057 0 39.221 16.163Q800-767.673 800-744.616v529.232q0 23.057-16.163 39.221Q767.673-160 744.616-160H215.384Z"/></svg>