<svg xmlns="http://www.w3.org/2000/svg" width="48" height="48" viewBox="0 -960 960 960"><path d="M724.08-774.54 797.62-701q16.23 16.23 16.11 40.5-.11 24.27-16.35 40.5L628.54-451.15q-4.56 3.61-10.82 4-6.26.38-11.41-4-4.39-5.51-4.39-11.56 0-6.06 4.39-10.44l168.31-168.31q6.92-6.92 6.92-17.69 0-10.77-6.92-17.7l-73.47-73.46q-6.92-6.92-17.69-6.92-10.77 0-17.69 6.92L497.46-582.77q-4.49 4.39-10.67 4.77-6.17.38-11.33-4.98-4.38-4.6-4.38-10.66 0-6.07 4.38-11.36l170.31-169.54q16.23-16.23 39.15-16.23 22.93 0 39.16 16.23Zm88.69 651.23q-4.99 4.77-11 4.77-6 0-10.39-4.38L545.85-368.46 369.38-192.77q-16.69 17.46-43.26 17.46-26.58 0-43.27-17.46l-13.31-12.54L233-168.77q-7.23 8-18.2 13-10.97 5-22.49 5h-33.23q-8.6 0-11.65-9.11-3.05-9.12 3.19-15.35l74-74.77-7.85-7.85q-18.15-18.15-18.04-44.34.12-26.19 19.04-45.12l175-174.23-269.08-269.84q-4.38-3.42-4.77-9.6-.38-6.17 4.61-11.64 4.23-5.15 10.08-5.15t11.31 5.15l667.7 667.7q4.38 4.52 4.76 10.68.39 6.16-4.61 10.93ZM233.92-285.38l75 75q6.93 7.69 16.93 7.69t16.92-7.69l181.08-180.31L415-500.31 233.92-319.23q-6.92 6.92-6.92 16.92 0 10 6.92 16.93Zm307.46-231.7Zm-72.46 71.7Z"/></svg>