<svg xmlns="http://www.w3.org/2000/svg" width="48" height="48" viewBox="0 -960 960 960"><path d="M215.384-160q-23.057 0-39.221-16.163Q160-192.327 160-215.384v-529.232q0-23.057 16.163-39.221Q192.327-800 215.384-800h529.232q23.057 0 39.221 16.163Q800-767.673 800-744.616v529.232q0 23.057-16.163 39.221Q767.673-160 744.616-160H215.384Zm110.708-376.615q-6.631 0-10.9 4.423t-4.269 10.961v207.308q0 6.538 4.485 10.962 4.485 4.423 11.116 4.423 6.63 0 10.899-4.423 4.269-4.424 4.269-10.962v-207.308q0-6.538-4.485-10.961t-11.115-4.423Zm153.692-124.847q-6.63 0-10.899 4.423-4.27 4.424-4.27 10.962v332.154q0 6.538 4.485 10.962 4.486 4.423 11.116 4.423t10.899-4.423q4.27-4.424 4.27-10.962v-332.154q0-6.538-4.485-10.962-4.486-4.423-11.116-4.423Zm153.693 248q-6.631 0-10.9 4.798-4.269 4.799-4.269 10.587v84.154q0 6.538 4.485 10.962 4.485 4.423 11.115 4.423 6.631 0 10.9-4.423 4.269-4.424 4.269-10.962v-84.154q0-5.788-4.485-10.587-4.485-4.798-11.115-4.798Z"/></svg>