<svg xmlns="http://www.w3.org/2000/svg" width="48" height="48" viewBox="0 96 960 960"><path d="M326.497 757.462q6.657 0 10.926-4.404t4.269-10.981V534.769q0-6.577-4.458-10.981-4.458-4.403-11.115-4.403-6.658 0-10.927 4.403-4.269 4.404-4.269 10.981v207.308q0 6.577 4.458 10.981t11.116 4.404Zm153.692 0q6.657 0 10.926-4.404 4.27-4.404 4.27-10.981V409.923q0-6.577-4.458-10.981-4.459-4.404-11.116-4.404t-10.926 4.404q-4.27 4.404-4.27 10.981v332.154q0 6.577 4.458 10.981 4.459 4.404 11.116 4.404Zm153.692 0q6.658 0 10.927-4.404 4.269-4.404 4.269-10.981v-84.154q0-5.827-4.458-10.606t-11.116-4.779q-6.657 0-10.926 4.779t-4.269 10.606v84.154q0 6.577 4.458 10.981t11.115 4.404ZM215.384 896q-23.057 0-39.221-16.163Q160 863.673 160 840.616V311.384q0-23.057 16.163-39.221Q192.327 256 215.384 256h529.232q23.057 0 39.221 16.163Q800 288.327 800 311.384v529.232q0 23.057-16.163 39.221Q767.673 896 744.616 896H215.384Zm0-30.769h529.232q10.769 0 17.692-6.923t6.923-17.692V311.384q0-10.769-6.923-17.692t-17.692-6.923H215.384q-10.769 0-17.692 6.923t-6.923 17.692v529.232q0 10.769 6.923 17.692t17.692 6.923Zm-24.615 0V286.769v578.462Z"/></svg>