<svg xmlns="http://www.w3.org/2000/svg" width="48" height="48" viewBox="0 -960 960 960"><path d="m313.692-480 81.539-82.308q4.384-3.615 4.769-10.346.385-6.731-4.769-11.885-4.385-4.384-10.731-4.384t-11.5 5.154l-84.308 84.307q-8.231 8.231-8.231 19.462t8.231 19.462L373-376.231q4.385 4.385 11.115 4.77 6.731.384 11.116-4 5.154-5.154 5.154-11 0-5.847-5.154-11.001L313.692-480Zm333.616 0-82.539 82.538q-4.384 4.385-4.769 10.616-.385 6.231 4.769 11.385 4.385 4.384 10.731 4.384t11.5-5.154l84.539-84.307q9-8.231 9-19.462t-9-19.462l-84.308-84.307q-4.385-4.385-10.616-4.77-6.23-.384-11.384 4-4.385 5.154-4.385 11.5 0 6.347 4.385 10.731L647.308-480ZM215.384-160q-22.692 0-39.038-16.346Q160-192.692 160-215.384v-529.232q0-22.692 16.346-39.038Q192.692-800 215.384-800h205q-8.846-29.616 9.693-54.808Q448.615-880 480-880q32.154 0 50.692 25.192 18.539 25.192 8.924 54.808h205q22.692 0 39.038 16.346Q800-767.308 800-744.616v529.232q0 22.692-16.346 39.038Q767.308-160 744.616-160H215.384ZM480-785.462q13.231 0 22.962-9.346 9.73-9.346 9.73-23.346 0-13.231-9.73-22.577-9.731-9.346-22.962-9.346t-22.577 9.346q-9.346 9.346-9.346 22.577 0 14 9.346 23.346T480-785.462Z"/></svg>