<svg xmlns="http://www.w3.org/2000/svg" width="48" height="48" viewBox="0 96 960 960"><path d="M480 896q-115.846 0-197.923-79.417Q200 737.165 200 621.769q0-59.617 22.307-108.231 22.308-48.614 59.385-87.846l178.96-174.962q4.117-4.115 8.835-6.115 4.718-2 10.616-2 5.897 0 10.512 2 4.616 2 8.733 6.115l178.96 174.962q37.077 39.232 59.385 89Q760 564.459 760 621.769q0 115.165-81.577 194.698T480 896Zm0-30.769V275.385L302.461 449.923q-35.23 34.462-53.461 77.692-18.231 43.231-18.231 94.43 0 100.57 73.039 171.878Q376.846 865.231 480 865.231Z"/></svg>