<svg xmlns="http://www.w3.org/2000/svg" width="48" height="48" viewBox="0 -960 960 960"><path d="M80-480q0-47.539 18.308-91.615 18.307-44.077 52.153-77.924 56.308-56.307 133.654-68.769 77.346-12.461 148.269 23.923 5.077 3.231 7.347 9.885Q442-677.846 438-672q-3.231 5.846-9.5 7.231-6.269 1.384-12.116-2.616Q355.307-699 288.577-687.846q-66.731 11.154-115.885 59.538-29.461 29.462-45.692 67.923-16.231 38.462-16.231 80.385 0 41.692 16.231 79.769 16.231 38.077 45.692 67.539 49.154 49.154 115.885 60.423 66.73 11.269 127.807-20.346 5.847-4 12.116-2.616 6.269 1.385 10.269 7.231 3.231 6.616 1.462 12.885-1.77 6.269-7.616 9.5-70.923 37.384-148.384 24.423-77.462-12.962-133.77-69.269-33.846-33.847-52.154-77.924Q80-432.461 80-480Zm800 0q0 47.539-18.307 91.615-18.308 44.077-52.154 77.924-56.308 56.307-134.154 69.269-77.846 12.961-148-23.654-5.846-4-7.616-10.654-1.769-6.654 1.462-12.5 4-5.846 10.269-7.231 6.269-1.384 12.116 2.616Q604.693-261 671.923-272.269q67.231-11.269 116.385-60.423 28.692-29.462 44.807-67.539 16.116-38.077 16.116-79.769 0-41.692-16.116-80.269-16.115-38.577-44.807-68.039-49.154-48.384-116.385-59.538-67.23-11.154-128.307 20.461-5.847 4-12.116 2.616-6.269-1.385-10.269-7.231-3.231-5.846-1.462-12.5 1.77-6.654 7.616-9.885 70.154-37.384 148-24.423 77.846 12.962 134.154 69.269 33.846 33.847 52.154 77.924Q880-527.539 880-480ZM480-315.923q-5.769 0-11.038-2.269-5.27-2.269-9.5-7.038-28.001-32.539-43.731-71.654Q400-436 400-480t15.731-83.116q15.73-39.115 43.731-71.654 4.23-4.769 9.5-7.038 5.269-2.269 11.038-2.269t11.038 2.269q5.27 2.269 9.5 7.038 28.001 32.539 43.731 71.654Q560-524 560-480t-15.731 83.116q-15.73 39.115-43.731 71.654-4.23 4.769-9.5 7.038-5.269 2.269-11.038 2.269Z"/></svg>