<svg xmlns="http://www.w3.org/2000/svg" width="48" height="48" viewBox="0 -960 960 960"><path d="M193.08-355.62q-6.87 0-11.51-4.81-4.65-4.82-4.65-11.19v-8.61q0-3 .85-5.81.85-2.81 3.54-4.73L240-448v-321.23h-29.23q-6.54 0-10.96-4.49-4.43-4.48-4.43-11.11 0-6.63 4.43-10.9 4.42-4.27 10.96-4.27h215.69q11.6 0 16.65 9.96 5.04 9.96-1.57 19.58-17.39 28.92-26.58 60.39-9.19 31.47-9.19 65.22 0 63.06 30.81 116.88 30.8 53.82 83.34 85.43 12.93 6.54 22.27 17.17 9.35 10.64 9.35 24.77v15.54q0 12.59-8.91 21.02-8.91 8.42-21.09 8.42H375.38v197.54q0 6.54-4.48 10.97-4.49 4.42-11.12 4.42-6.63 0-10.9-4.42-4.26-4.43-4.26-10.97v-197.54H193.08ZM645.69-800q64.57 0 109.56 44.9 44.98 44.9 44.98 109.87 0 64.14-44.97 109.22-44.97 45.09-109.54 45.09-64.57 0-109.18-45.09-44.62-45.08-44.62-109.22 0-64.97 44.6-109.87Q581.13-800 645.69-800Zm.39 28.08q-26.73 0-44.83 18.4-18.1 18.4-18.1 44.69t18.3 44.64q18.3 18.34 44.45 18.34 26.56 0 44.94-18.45 18.39-18.45 18.39-44.8 0-26.36-18.42-44.59-18.42-18.23-44.73-18.23Zm.1 168.54q-23.63 0-45.33 5.34-21.7 5.35-42.93 15.35-6.23 3-7.73 9.61-1.5 6.62 3.5 12.62 18.23 19.46 42.08 30.08 23.85 10.61 50.31 10.61t50.3-10.61q23.85-10.62 42.08-30.08 5-5 3.5-12.12-1.5-7.11-7.73-10.11-21.23-10-43.12-15.35-21.89-5.34-44.93-5.34Z"/></svg>