<svg xmlns="http://www.w3.org/2000/svg" width="48" height="48" viewBox="0 -960 960 960"><path d="M135.169-260q-6.631 0-10.9-4.423T120-275.385v-409.23q0-6.539 4.485-10.962T135.6-700q6.631 0 10.9 4.423t4.269 10.962v409.23q0 6.539-4.485 10.962T135.169-260Zm178.062-204.615 164.692 164.692q4.385 3.682 4.769 10.764.385 7.082-4.611 11.122-4.227 3.96-10.615 3.96-6.389 0-10.774-4.384L274.348-460.806q-3.963-3.963-6.348-8.917t-2.385-10.615q0-5.662 2.385-10.277 2.385-4.616 6.348-8.579l181.575-182.345q4.128-4.384 10.487-4.384t10.945 4.217q4.184 3.783 4.568 10.014.385 6.23-4 10.615L314-495.385h510.616q6.538 0 10.961 4.485Q840-486.414 840-479.784t-4.423 10.899q-4.423 4.27-10.961 4.27H313.231Z"/></svg>