<svg xmlns="http://www.w3.org/2000/svg" width="48" height="48" viewBox="0 -960 960 960"><path d="M480-484.231q-6 0-10.615-2.384-4.616-2.385-8.847-6.616L278.692-675.077q-4.384-4.385-4.769-10.615-.385-6.231 4.769-11.385t11-5.154q5.846 0 11 5.154L480-517l179.308-180.077q4.384-4.385 10.615-4.385t11.385 4.385q5.154 5.154 5.154 11t-5.154 11L499.462-493.231q-4.231 4.231-8.847 6.616Q486-484.231 480-484.231Zm0 243.77q-6 0-10.615-2-4.616-2-8.847-6.231L278.692-430.538q-4.384-4.385-4.769-10.616-.385-6.231 4.769-11.385 5.154-5.153 11-5.153t11 5.153L480-272.462l179.308-180.077q4.384-4.384 10.615-4.769 6.231-.384 11.385 4.769 5.154 5.154 5.154 11.001 0 5.846-5.154 11L499.462-248.692q-4.231 4.231-8.847 6.231-4.615 2-10.615 2Z"/></svg>