<svg xmlns="http://www.w3.org/2000/svg" width="48" height="48" viewBox="0 96 960 960"><path d="M120 736V594.307q0-23.639 15.942-40.127 15.942-16.488 39.442-16.488h27.539V431.384q0-22.25 16.183-38.817Q235.288 376 258.307 376h443.155q22.25 0 38.817 16.567t16.567 38.817v106.308h27.77q22.25 0 38.817 16.567Q840 570.827 840 593.077V736h-30.615L799 806.231q-1.21 4.269-3.85 7.019-2.641 2.75-5.542 2.75-4.762 0-7.373-2.884-2.611-2.885-3.235-6.347L767.846 736H192.385L181 806.231q-.441 4.269-3.081 7.019t-6.311 2.75q-3.993 0-6.604-2.884-2.61-2.885-4.004-6.347L150.615 736H120Zm375.385-198.308h230.692V431.384q0-10.769-7.308-17.692-7.307-6.923-17.307-6.923H495.385v130.923Zm-261.693 0h230.923V406.769H258.307q-10.769 0-17.692 6.923t-6.923 17.692v106.308Z"/></svg>