<svg xmlns="http://www.w3.org/2000/svg" width="48" height="48" viewBox="0 -960 960 960"><path d="M354.62-330q-6.56 0-10.98-4.47-4.41-4.47-4.41-11.12 0-6.64 4.41-10.91 4.42-4.27 10.98-4.27h106.15q6.56 0 10.97 4.47 4.41 4.47 4.41 11.12 0 6.64-4.41 10.91-4.41 4.27-10.97 4.27H354.62Zm-20.77 210q-72.15 0-123-49.65Q160-219.31 160-290.77v-363.08q-27.62 0-46.88-18.88-19.27-18.89-19.27-46.5v-54.62q0-27.28 19.43-46.72Q132.71-840 160-840h346.92q27.61 0 47.27 19.43 19.66 19.44 19.66 46.72v54.62q0 27.61-19.66 46.5-19.66 18.88-47.27 18.88v114.62q0 22.25-16.56 38.82-16.57 16.56-38.82 16.56h-96.92q-6.56 0-10.98-4.47-4.41-4.47-4.41-11.11 0-6.65 4.41-10.92 4.42-4.27 10.98-4.27h121.53v-139.23H190.77v363.08q0 59.1 41.85 99.55 41.86 40.45 101.43 40.45 24.72 0 46.8-7.69 22.07-7.69 40.3-21.62 4.16-4.15 10.66-3.57 6.5.57 9.52 5.96 4.29 6.38 2.36 13.38-1.93 6.99-7.61 11.54-22.16 15.39-47.55 24.08-25.39 8.69-54.68 8.69Zm400.69-92.24q33.92-33.79 33.92-83 0-49.22-33.78-83.14-33.78-33.93-83-33.93t-83.14 33.78q-33.92 33.79-33.92 83 0 49.22 33.78 83.15 33.78 33.92 83 33.92t83.14-33.78Zm-83 64.55q-61.6 0-104.65-43.08-43.04-43.08-43.04-104.73 0-61.65 43.08-104.62 43.07-42.96 104.73-42.96 61.65 0 104.61 43.05 42.96 43.04 42.96 104.65 0 25.81-8.77 49.63-8.77 23.83-24.54 43.52l100.62 100.61q4.38 4.39 4.38 10.24 0 5.84-4.38 10.23-4.39 4.38-10.75 4.38-6.35 0-10.48-4.38L744.69-181q-19.69 15.77-43.52 24.54-23.82 8.77-49.63 8.77Z"/></svg>