<svg xmlns="http://www.w3.org/2000/svg" width="48" height="48" viewBox="0 -960 960 960"><path d="m704.69-302.31-22.23-22.23L802.15-480 617.92-720q-3.07-4.62-8.46-6.92-5.38-2.31-11.54-2.31H282.38L251.62-760h346.3q13.48 0 25.08 5.22 11.6 5.22 19.85 16.47L840.23-480 704.69-302.31Zm-529.31 71.54h442.08L150.77-697.46v442.08q0 10.76 6.92 17.69 6.93 6.92 17.69 6.92ZM841.62-6.62l-207-205.07q-4.16 4.84-10.24 8.27Q618.31-200 612-200H175.38q-22.44 0-38.91-16.47Q120-232.94 120-255.38v-449.24q0-5.09 1.12-10.12 1.11-5.03 3.11-10.03L8.31-839.92l23-22 832.54 833.3-22.23 22ZM542.38-527.38Zm-158.15 63.15Z"/></svg>