<svg xmlns="http://www.w3.org/2000/svg" width="48" height="48" viewBox="0 -960 960 960"><path d="M85.77-277.15q-3.23-6.56-1.62-12.36 1.62-5.8 7.08-9.26 15.77-10 30.42-22.27 14.66-12.27 28.66-24.63v-127.02H96.46q-5.95 0-9.94-3.89-3.98-3.88-3.98-9.69t3.98-9.65q3.99-3.85 9.94-3.85h67.92q5.39 0 9.43 4.04t4.04 9.42v137.35q23 27.42 55.27 41.04 32.26 13.61 68.03 13.61 48.69 0 97.54-.23 48.85-.23 98.31-3 6.46-1 9.46 3.12 3 4.11 1.77 10.8-2 6.47-8.23 11.7-6.23 5.23-11.92 5.23-47.46 2-94.7.5-47.23-1.5-93.92-1.5-38.77 0-74.38-14.77-35.62-14.77-61.62-42.77-13.77 13.77-28.27 26.65-14.5 12.89-30.04 24.89-4.46 3.46-10.69 2.73-6.23-.73-8.69-6.19Zm386.08-64.77q-29.54-15.46-57.27-35.89-27.73-20.42-50.5-46.19l5.38 91.62q.77 6.46-3.73 10.57-4.5 4.12-10.58 4.12-6.07 0-9.53-3.46-3.47-3.47-4.24-9.93L336-426.77q-22.31 27.54-44.88 48.23-22.58 20.69-50.35 38.39-5.23 3.46-11.19 2.34-5.96-1.11-9.81-5.57-3.85-4.47-3.35-9.58.5-5.12 5.96-7.58 30.41-15.39 54.17-36.27 23.76-20.88 46.3-48.65h-78.62q-5.69 0-9.96-4.27Q230-454 230-459.69V-547q0-5.38 4.27-9.42t9.96-4.04H337v-45.77H223.46q-6.23 0-9.84-3.27-3.62-3.26-3.62-9.57 0-6.31 3.73-9.93t9.96-3.62H337v-35.23q0-5.63 3.88-9.39 3.89-3.76 9.7-3.76 5.8 0 9.65 3.76 3.85 3.76 3.85 9.39v35.23h123.45q5.32 0 8.93 3.62 3.62 3.62 3.62 9.93t-3.62 9.57q-3.61 3.27-8.93 3.27H364.08v45.77h99.54q5.38 0 9.42 4.04t4.04 9.42v86.31q0 5.69-4.04 9.96-4.04 4.27-9.42 4.27h-87.39q23.77 26.77 53.12 47.11Q458.69-379 491-363.54q5.32 2.33 6.39 7.51 1.07 5.18-3.47 9.65-3.92 4.46-10.38 5.69-6.46 1.23-11.69-1.23ZM255.62-472.15H336v-62.39h-80.38v62.39Zm107.46 0H450v-62.39h-86.92v62.39ZM158.54-603.92q-12-14.71-26-27.86-14-13.14-30-24.91-4.46-2.46-4.85-7.19-.38-4.74 4.1-8.86 3.87-3.57 9.37-3.95 5.51-.39 9.99 2.84 15.23 12 29.62 25.39 14.38 13.38 28.38 27.38 4.23 4.5 3.85 9.44-.38 4.95-4.85 8.79-4.46 3.85-10.3 3.62-5.85-.23-9.31-4.69Zm522.38 308.54q33.19 0 67.83-17.7 34.63-17.69 65.25-49.54v-141q-30.54 5.54-54.85 11.58-24.3 6.04-48.92 13.58-54.61 18.31-80.77 45.29-26.15 26.99-26.15 62.35 0 34.05 21.26 54.74 21.26 20.7 56.35 20.7Zm-1.69 27.92q-47.85 0-77.27-28.69-29.42-28.7-29.42-75.31 0-44.62 32.46-76.96 32.46-32.35 98.08-54.66 17.38-6 44.77-11.72 27.38-5.72 66.15-13.35v-10q0-60.62-19.65-91.35-19.66-30.73-70.73-30.73-24.02 0-48.47 7.65-24.46 7.66-50.38 22.89-5.39 3.46-10.77 1.73t-8.85-6.12q-2.69-6.15-.96-11.54 1.73-5.38 7.12-8.84 28.72-16.58 57.36-25.25 28.64-8.67 55.89-8.67 63.13 0 91.67 39.03 28.54 39.04 28.54 109.35v250.08q0 6.03-3.73 9.75-3.73 3.71-9.79 3.71h-.63q-5.67 0-9.2-3.4-3.52-3.39-4.27-8.6l-3-41.62q-31.53 30.31-67.27 46.46-35.73 16.16-67.65 16.16Z"/></svg>