<svg xmlns="http://www.w3.org/2000/svg" width="48" height="48" viewBox="0 0 48 48"><path d="M16.05 25.05h4.1v-5h-4.1Zm-8.6 9.35h-1.7q-.25 0-.425-.15T5.1 33.9q-.05-.35.125-.6t.525-.25h1.4q.3 0 .475-.225T7.8 32.3v-6.25l-1.95.8q-.25.1-.5-.075t-.3-.425q-.05-.2.075-.4t.325-.3l2.35-.85v-4.65H6.3q-.25 0-.45-.175t-.2-.475q0-.3.175-.5t.475-.2h1.5v-3.85q0-.25.2-.475.2-.225.45-.225.35 0 .525.225.175.225.175.475v3.85h.9q.35 0 .525.2.175.2.175.5t-.175.475q-.175.175-.525.175h-.9v4.2l1.6-.6q.25-.1.5.075t.25.475q-.05.2-.125.325t-.275.175l-1.95.8v7.1q0 .7-.475 1.2t-1.225.5Zm8.6-8q-.25 2.45-1.35 4.55-1.1 2.1-2.95 3.55-.25.2-.55.15-.3-.05-.5-.3-.15-.25-.075-.55.075-.3.325-.45 1.6-1.3 2.55-3.075.95-1.775 1.15-3.875h-2.6q-.25 0-.45-.225t-.2-.475q0-.25.2-.45t.45-.2h2.65v-5h-1.9q-.25 0-.475-.2-.225-.2-.225-.5 0-.25.225-.475.225-.225.475-.225H23q.25 0 .45.2t.2.5q0 .25-.2.45T23 20h-1.5v5h2.3q.3 0 .475.2t.175.5q0 .25-.175.475-.175.225-.475.225h-2.3v7.35q0 .3-.2.475t-.45.175q-.35 0-.525-.175-.175-.175-.175-.475V26.4Zm4-7.75q-.2-.1-.25-.325-.05-.225.1-.425l.7-1q.35-.5.65-1.05.1-.2.35-.3.25-.1.45-.05.25.05.35.275.1.225 0 .425-.35.65-.7 1.175t-.75 1.075q-.15.2-.425.25-.275.05-.475-.05Zm-4.85-.7q-.35-.55-.65-1.025-.3-.475-.65-.975-.2-.15-.125-.4.075-.25.325-.3.2-.15.5-.05.3.1.45.3.3.45.625.95.325.5.625 1 .1.2.05.425-.05.225-.25.275-.25.1-.5.025-.25-.075-.4-.225Zm18.85 15.3q1.7 0 3.4-.9t3.25-2.45v-7.1q-1.55.3-2.75.6t-2.45.7q-2.7.9-4.025 2.25-1.325 1.35-1.325 3.1 0 1.7 1.05 2.75t2.85 1.05Zm-.1 1.4q-2.4 0-3.85-1.45-1.45-1.45-1.45-3.75 0-2.25 1.6-3.875t4.9-2.725q.85-.3 2.225-.6t3.325-.65v-.5q0-3.05-.975-4.575Q38.75 15 36.2 15q-1.25 0-2.45.375-1.2.375-2.5 1.125-.3.2-.575.125-.275-.075-.475-.275-.1-.3 0-.6t.35-.45q1.45-.85 2.875-1.275 1.425-.425 2.825-.425 3.15 0 4.575 1.95Q42.25 17.5 42.25 21v12.5q0 .3-.2.5t-.45.2h-.1q-.25 0-.425-.175t-.225-.425l-.15-2.1q-1.55 1.5-3.35 2.325-1.8.825-3.4.825Z"/></svg>