<svg xmlns="http://www.w3.org/2000/svg" width="48" height="48" viewBox="0 -960 960 960"><path d="M395.81-231.19q-34.27-34.27-34.27-84.19H190.77q-12.12 0-21.44-9.33-9.33-9.33-9.33-21.44 0-130.47 87.35-226.47 87.34-96 217.27-100.84v-95.77q0-6.81 4.29-11.1 4.3-4.29 11.12-4.29 6.82 0 11.09 4.29 4.26 4.29 4.26 11.1v95.77q129.93 4.84 217.27 100.84 87.35 96 87.35 226.47 0 12.11-9.33 21.44-9.32 9.33-21.44 9.33H598.46q0 49.92-34.27 84.19-34.27 34.27-84.19 34.27-49.92 0-84.19-34.27ZM190.77-346.15h578.46q0-123.54-84.42-210.04-84.43-86.5-204.81-86.5t-204.81 86.5q-84.42 86.5-84.42 210.04Z"/></svg>