<svg xmlns="http://www.w3.org/2000/svg" width="48" height="48" viewBox="0 -960 960 960"><path d="M173.846-353.846h252.308v-252.308H173.846v252.308Zm-3.077 30.769q-11.769 0-19.731-7.961-7.961-7.962-7.961-19.731v-258.462q0-11.769 7.961-19.731 7.962-7.961 19.731-7.961h258.462q11.769 0 19.731 7.961 7.961 7.962 7.961 19.731v113.846h364.616q6.538 0 10.961 4.485 4.423 4.486 4.423 11.116t-4.423 10.899q-4.423 4.27-10.961 4.27H456.923v113.846q0 11.769-7.961 19.731-7.962 7.961-19.731 7.961H170.769ZM300-480Z"/></svg>