<svg xmlns="http://www.w3.org/2000/svg" width="48" height="48" viewBox="0 -960 960 960"><path d="M423.65-376.22q42.5-42.38 42.5-103.66 0-61.27-42.37-103.77-42.38-42.5-103.66-42.5-61.27 0-103.77 42.37-42.5 42.38-42.5 103.66 0 61.27 42.37 103.77 42.38 42.5 103.66 42.5 61.27 0 103.77-42.37ZM320-303.08q-73.85 0-125.38-51.54-51.54-51.53-51.54-125.38t51.54-125.38q51.53-51.54 125.38-51.54 69.69 0 119.88 46.65 50.2 46.65 55.81 114.89h325.85q6.83 0 11.1 4.28 4.28 4.28 4.28 11.11 0 6.84-4.28 11.11-4.27 4.26-11.1 4.26H495.69q-5.61 68.24-55.81 114.89-50.19 46.65-119.88 46.65ZM320-480Z"/></svg>