<svg xmlns="http://www.w3.org/2000/svg" width="48" height="48" viewBox="0 -960 960 960"><path d="M236.134-260q6.596 0 10.616 4.412 4.019 4.412 4.019 11.115 0 6.704-4.723 10.973-4.722 4.27-11.412 4.27-6.596 0-10.615-4.412-4.02-4.412-4.02-11.115 0-6.704 4.723-10.973 4.722-4.27 11.412-4.27Zm122.746 0q5.774 0 10.177 4.412 4.404 4.412 4.404 11.115 0 6.704-5.069 10.973-5.07 4.27-11.065 4.27-6.597 0-10.616-4.412-4.019-4.412-4.019-11.115 0-6.704 4.738-10.973 4.738-4.27 11.45-4.27Zm121.336 0q6.63 0 10.899 4.485 4.27 4.486 4.27 11.116t-4.723 10.899q-4.722 4.27-11.412 4.27-6.596 0-10.615-4.412-4.02-4.412-4.02-11.115 0-6.704 4.485-10.973 4.486-4.27 11.116-4.27Zm123.28 0q5.774 0 10.177 4.412 4.404 4.412 4.404 11.115 0 6.704-4.856 10.973-4.856 4.27-11.115 4.27-6.26 0-10.529-4.486-4.269-4.485-4.269-11.115t4.738-10.899q4.738-4.27 11.45-4.27Zm121.336 0q6.63 0 10.899 4.485 4.27 4.486 4.27 11.116t-4.486 10.899q-4.485 4.27-11.115 4.27t-10.9-4.486q-4.269-4.485-4.269-11.115t4.485-10.899q4.486-4.27 11.116-4.27ZM343.077-361.538q5.846 0 10.115 4.411 4.269 4.412 4.269 11.116t-4.423 10.973q-4.423 4.269-10.961 4.269H234.384q-5.846 0-10.115-4.412-4.27-4.411-4.27-11.115 0-6.704 4.423-10.973 4.424-4.269 10.962-4.269h107.693Zm191.385 0q5.116 0 9.75 4.411 4.634 4.412 4.634 11.116t-4.798 10.973q-4.798 4.269-10.586 4.269H425.538q-5.846 0-10.115-4.412-4.269-4.411-4.269-11.115 0-6.704 4.423-10.973 4.423-4.269 10.961-4.269h107.924Zm191.154 0q5.846 0 10.115 4.411 4.27 4.412 4.27 11.116t-4.423 10.973q-4.424 4.269-10.962 4.269H616.154q-5.846 0-10.115-4.412-4.27-4.411-4.27-11.115 0-6.704 4.424-10.973 4.423-4.269 10.961-4.269h108.462ZM430.231-463.077q5.846 0 10.115 4.412 4.269 4.411 4.269 11.115 0 6.704-4.423 10.973-4.423 4.27-10.961 4.27H234.384q-5.846 0-10.115-4.412-4.27-4.412-4.27-11.116 0-6.703 4.423-10.973 4.424-4.269 10.962-4.269h194.847Zm295.385 0q5.846 0 10.115 4.412 4.27 4.411 4.27 11.115 0 6.704-4.423 10.973-4.424 4.27-10.962 4.27H529.769q-5.846 0-10.115-4.412t-4.269-11.116q0-6.703 4.423-10.973 4.423-4.269 10.961-4.269h194.847ZM712.308-730.77q11.77 0 19.731 7.962 7.962 7.961 7.962 19.731v141.539q0 11.769-7.962 19.73-7.961 7.962-19.731 7.962H247.692q-11.77 0-19.731-7.962-7.962-7.961-7.962-19.73v-141.539q0-11.77 7.962-19.731 7.961-7.962 19.731-7.962h464.616Z"/></svg>