<svg xmlns="http://www.w3.org/2000/svg" width="48" height="48" viewBox="0 -960 960 960"><path d="M231.69-217.65q-4.61-1.89-8.82-6.78L131-315.08q-4.92-4.38-4.15-10.46.77-6.08 4.79-11.17 4.71-4.39 10.46-4.07 5.75.32 9.13 3.7l75.69 72.16v-443.77q0-6.54 4.49-10.96 4.48-4.43 11.11-4.43 6.63 0 10.9 4.43 4.27 4.42 4.27 10.96v443.77l75.46-72.16q3.97-3.38 9.91-3.38 5.94 0 10.12 3.45 4.59 3.83 4.47 10.3-.11 6.48-4.27 10.86l-91.72 91.28q-4.12 4.03-9.08 6.42-4.95 2.38-10.61 2.38-5.66 0-10.28-1.88Zm282.69-18.27q-6.53 0-10.96-4.49-4.42-4.48-4.42-11.11 0-6.63 4.42-10.9 4.43-4.27 10.96-4.27h310.24q6.53 0 10.96 4.48 4.42 4.49 4.42 11.12 0 6.63-4.42 10.9-4.43 4.27-10.96 4.27H514.38Zm0-227.93q-6.53 0-10.96-4.48-4.42-4.49-4.42-11.12 0-6.63 4.42-10.9 4.43-4.27 10.96-4.27h310.24q6.53 0 10.96 4.49 4.42 4.48 4.42 11.12 0 6.63-4.42 10.89-4.43 4.27-10.96 4.27H514.38Zm0-227.92q-6.53 0-10.96-4.48-4.42-4.49-4.42-11.12 0-6.63 4.42-10.9 4.43-4.27 10.96-4.27h310.24q6.53 0 10.96 4.49 4.42 4.48 4.42 11.11 0 6.63-4.42 10.9-4.43 4.27-10.96 4.27H514.38Z"/></svg>