<svg xmlns="http://www.w3.org/2000/svg" width="48" height="48" viewBox="0 0 48 48"><path d="M9.55 38.45V9.55v28.9Zm1.2 1.55q-1.15 0-1.95-.8T8 37.25v-26.5q0-1.15.8-1.95t1.95-.8h26.5q1.15 0 1.95.8t.8 1.95V28.2q-.4-.15-.75-.25t-.8-.2v-17q0-.45-.375-.825-.375-.375-.825-.375h-26.5q-.45 0-.825.375-.375.375-.375.825v26.5q0 .45.375.825.375.375.825.375H25.3q0 .4.05.8t.1.75Zm5-7.05q.6 0 .975-.375t.375-.975q0-.55-.375-.925t-.975-.375q-.55 0-.925.375t-.375.975q0 .55.375.925t.925.375Zm0-7.65q.6 0 .975-.375T17.1 24q0-.55-.375-.925t-.975-.375q-.55 0-.925.375T14.45 24q0 .55.375.925t.925.375Zm0-7.6q.6 0 .975-.375t.375-.975q0-.55-.375-.925t-.975-.375q-.55 0-.925.375t-.375.975q0 .55.375.925t.925.375Zm16.55 7.05q.35 0 .55-.225.2-.225.2-.525 0-.35-.2-.55-.2-.2-.55-.2H23q-.35 0-.575.225-.225.225-.225.525 0 .35.225.55.225.2.575.2Zm0-7.6q.35 0 .55-.225.2-.225.2-.575 0-.3-.2-.525-.2-.225-.55-.225H23q-.35 0-.575.225-.225.225-.225.575 0 .3.225.525.225.225.575.225ZM27 32.4q.3-.45.6-.8.3-.35.65-.75H23q-.35 0-.575.225-.225.225-.225.575 0 .3.225.525.225.225.575.225Zm8.3 6.6h-5.2q-.35 0-.575-.225-.225-.225-.225-.575 0-.3.225-.525.225-.225.575-.225h5.2v-5.2q0-.35.225-.575.225-.225.575-.225.3 0 .525.225.225.225.225.575v5.2h5.25q.3 0 .525.225.225.225.225.575 0 .3-.225.525Q42.4 39 42.1 39h-5.25v5.25q0 .3-.225.525Q36.4 45 36.05 45q-.3 0-.525-.225-.225-.225-.225-.525Z"/></svg>