<svg xmlns="http://www.w3.org/2000/svg" width="48" height="48" viewBox="0 96 960 960"><path d="M480.222 756.231q9.547 0 16.393-6.619 6.847-6.618 6.847-16.074V598.692h134.076q9.456 0 16.074-6.683 6.619-6.683 6.619-16.231 0-9.547-6.619-16.393-6.618-6.847-16.074-6.847H503.462V418.462q0-9.456-7.159-16.074-7.158-6.619-16.706-6.619-9.547 0-15.918 6.619-6.371 6.618-6.371 16.074v134.076H322.462q-9.456 0-16.074 7.159-6.619 7.158-6.619 16.706 0 9.547 6.619 15.918 6.618 6.371 16.074 6.371h134.846v134.846q0 9.456 6.683 16.074 6.683 6.619 16.231 6.619ZM215.384 896q-23.057 0-39.221-16.163Q160 863.673 160 840.616V311.384q0-23.057 16.163-39.221Q192.327 256 215.384 256h529.232q23.057 0 39.221 16.163Q800 288.327 800 311.384v529.232q0 23.057-16.163 39.221Q767.673 896 744.616 896H215.384Z"/></svg>