<svg xmlns="http://www.w3.org/2000/svg" width="48" height="48" viewBox="0 -960 960 960"><path d="M481.643-761.308q-19.566 0-33.605-13.875Q434-789.059 434-807.719q0-14.338 6.461-26.771 6.462-12.433 30.001-39.433 4.038-4.231 10.903-4.231 6.866 0 11.097 4.231 22.769 27 29.615 39.433t6.846 26.771q0 18.66-13.857 32.536-13.858 13.875-33.423 13.875Zm-196.001 0q-18.956 0-33.107-13.875-14.151-13.876-14.151-32.536 0-14.204 6.462-26.704t30-39.5q4.039-4.231 10.519-4.231 6.481 0 10.712 4.231 23.538 27 30 39.433 6.461 12.433 6.461 26.771 0 18.66-13.969 32.536-13.97 13.875-32.927 13.875Zm390.77 0q-18.957 0-33.107-13.875-14.151-13.876-14.151-32.536 0-14.204 6.461-26.704 6.462-12.5 30-39.5 4.039-4.231 10.52-4.231 6.48 0 10.711 4.231 23.539 27 30 39.433 6.462 12.433 6.462 26.771 0 18.66-13.97 32.536-13.969 13.875-32.926 13.875ZM190.769-161.692v66.308q0 6.41-4.608 10.897Q181.552-80 174.968-80t-10.776-4.487Q160-88.974 160-95.385v-286.307q0-4.667.5-9.334.5-4.666 2.28-8.739l69.758-203.081q5.15-16.522 19.726-26.838Q266.84-640 284.154-640h391.692q17.314 0 31.89 10.316t19.726 26.838l69.758 203.081q1.78 4.073 2.28 8.739.5 4.667.5 9.334v286.308q0 6.41-4.608 10.897Q790.783-80 784.199-80t-10.891-4.554Q769-89.11 769-95.615v-66.077H190.769ZM203-421.693h554l-58.846-171.384q-3.077-7.692-9.615-11.923-6.539-4.231-14.231-4.231H285.692q-7.692 0-14.231 4.231-6.538 4.231-9.615 11.923L203-421.693Zm87.425 172.308q17.806 0 29.844-12.469 12.039-12.469 12.039-29.789 0-18.152-12.47-30.254Q307.369-334 290.299-334q-17.904 0-30.255 12.215-12.352 12.215-12.352 30.269 0 18.055 12.464 30.093t30.269 12.038Zm380.05 0q17.677 0 29.87-12.469 12.194-12.469 12.194-29.789 0-18.152-12.306-30.254Q687.928-334 670.348-334q-17.579 0-30.002 12.215-12.423 12.215-12.423 30.269 0 18.055 12.854 30.093t29.698 12.038Z"/></svg>