<svg xmlns="http://www.w3.org/2000/svg" width="48" height="48" viewBox="0 96 960 960"><path d="M295.384 916q-6.807 0-11.096-4.296Q280 907.408 280 900.588q0-6.819 4.288-11.088 4.289-4.269 11.096-4.269h169.231V606.616l-283.154-311.77q-2.692-2.923-5.154-8.733-2.461-5.81-2.461-10.113 0-8.433 5.784-14.216Q185.414 256 193.846 256h572.308q8.432 0 14.216 5.548 5.784 5.548 5.784 14.452 0 4.615-2.461 10.269-2.462 5.654-5.154 8.577l-283.154 311.77v278.615h169.231q6.807 0 11.096 4.296Q680 893.823 680 900.642q0 6.82-4.288 11.089Q671.423 916 664.616 916H295.384Zm-5.153-547.308h379.538l76.846-80.231h-533.23l76.846 80.231ZM480 578.538l161.692-179.076H318.308L480 578.538Zm0 0Z"/></svg>