<svg xmlns="http://www.w3.org/2000/svg" width="48" height="48" viewBox="0 -960 960 960"><path d="M547.308-370.539H398.077q-6.577 0-10.981 4.459-4.404 4.458-4.404 11.115t4.404 10.927q4.404 4.269 10.981 4.269h68v27.308q0 6.576 4.458 10.98 4.458 4.404 11.115 4.404 6.658 0 10.927-4.404 4.269-4.404 4.269-10.98v-27.308h52.616q12.019 0 20.317-8.808t8.298-20.929v-96.603q0-12.122-8.298-21.314t-20.317-9.192h-136v-92.846h149.23q5.827 0 10.606-4.459 4.779-4.458 4.779-11.115t-4.779-10.927q-4.779-4.269-10.606-4.269h-65.846v-27.308q0-6.576-4.458-10.98-4.458-4.404-11.115-4.404-6.658 0-10.927 4.404-4.269 4.404-4.269 10.98v27.308h-53.616q-11.959 0-20.864 8.808-8.905 8.808-8.905 21.669v95.831q0 11.798 8.808 19.937 8.808 8.14 20.961 8.14h134.847v95.307ZM175.384-200q-23.057 0-39.221-16.163Q120-232.327 120-255.384v-449.232q0-23.057 16.163-39.221Q152.327-760 175.384-760h609.232q23.057 0 39.221 16.163Q840-727.673 840-704.616v449.232q0 23.057-16.163 39.221Q807.673-200 784.616-200H175.384Zm0-30.769h609.232q9.23 0 16.923-7.692 7.692-7.693 7.692-16.923v-449.232q0-9.23-7.692-16.923-7.693-7.692-16.923-7.692H175.384q-9.23 0-16.923 7.692-7.692 7.693-7.692 16.923v449.232q0 9.23 7.692 16.923 7.693 7.692 16.923 7.692Zm-24.615 0v-498.462 498.462Z"/></svg>