<svg xmlns="http://www.w3.org/2000/svg" width="48" height="48" viewBox="0 96 960 960"><path d="M232.307 902.154q-12.269 0-21.519-9.25-9.25-9.25-9.25-21.519V414.154q0-12.269 9.25-21.519 9.25-9.25 21.519-9.25h150.847V260.231q0-3.84.941-6.767.941-2.927 2.219-5.738 1.278-2.812 2.982-5.423 1.704-2.61 4.165-5.072l67.077-63.539q7.602-8 19.532-8t19.392 8l67.077 63.539q4.384 4.923 7.346 10.491 2.961 5.569 2.961 12.509v285.307h150.847q12.269 0 21.519 9.549 9.25 9.548 9.25 21.221v295.077q0 12.269-9.25 21.519-9.25 9.25-21.519 9.25H232.307Zm0-30.769h132.154V739.231H232.307v132.154Zm0-162.923h132.154V576.308H232.307v132.154Zm0-162.924h132.154V414.154H232.307v131.384Zm181.616 325.847h132.154V739.231H413.923v132.154Zm0-162.923h132.154V576.308H413.923v132.154Zm0-162.924h132.154V414.154H413.923v131.384Zm0-162.153h132.154V251.231H413.923v132.154Zm181.616 488h132.154V739.231H595.539v132.154Zm0-162.923h132.154V576.308H595.539v132.154Z"/></svg>