<svg xmlns="http://www.w3.org/2000/svg" width="48" height="48" viewBox="0 -960 960 960"><path d="M480-160.538q117.615-102.539 185.346-206.808 67.731-104.269 67.731-180.808 0-113.826-71.83-187.836Q589.417-810 480-810q-109.417 0-181.247 74.01-71.83 74.01-71.83 187.836 0 76.539 68.462 180.808Q363.846-263.077 480-160.538Zm-.058 25.923q-7.865 0-15.673-2.346T450-145q-32-29.538-75.616-74.038-43.615-44.5-83.307-98.039-39.693-53.538-67.308-112.846-27.615-59.308-27.615-118.231 0-126.923 82.654-209.385Q361.461-840 480-840t201.192 82.461q82.654 82.462 82.654 209.385 0 58.923-27.615 118.231-27.615 59.308-66.923 112.462-39.308 53.153-82.923 97.653-43.616 44.5-75.616 74.039-6.186 5.692-14.399 8.423-8.214 2.731-16.428 2.731Zm.058-420.77Zm.286 60q24.868 0 42.291-17.709T540-555.671q0-24.868-17.709-42.291t-42.577-17.423q-24.868 0-42.291 17.709T420-555.099q0 24.868 17.709 42.291t42.577 17.423Z"/></svg>