<svg xmlns="http://www.w3.org/2000/svg" width="48" height="48" viewBox="0 -960 960 960"><path d="M480-398.538ZM175.384-120q-23.057 0-39.221-16.163Q120-152.327 120-175.384v-446.078q0-23 16.163-39.192 16.164-16.192 39.221-16.192h127.77l69.538-79.231q2.693-2.692 5.406-4.154 2.714-1.462 6.998-1.462 10.096 0 13.731 8.924 3.635 8.923-2.442 16.23l-62.616 71.77q-7.231 9.461-18.277 14.077-11.047 4.615-23.877 4.615H175.384q-10.769 0-17.692 7.308-6.923 7.307-6.923 17.307v446.078q0 10.769 6.923 17.692t17.692 6.923h609.232q10.769 0 17.692-6.923t6.923-17.692v-135.77q0-5.827 4.458-10.606t11.115-4.779q6.658 0 10.927 4.779Q840-316.981 840-311.154v135.77q0 23.057-16.192 39.221Q807.616-120 784.616-120H175.384ZM480-253.923q40.546 0 74.811-20.038 34.266-20.039 52.651-55.577 4.153-8.532 3.653-16.42-.5-7.888-7.653-12.273-5.616-3.384-11.847-.038-6.23 3.346-8.846 9.961-14.231 29.923-42.017 46.77-27.787 16.846-60.752 16.846-47.785 0-80.815-33.031-33.031-33.031-33.031-80.815 0-23.265 8.154-42.71 8.154-19.444 22.461-34.983 14.308-15.538 33.885-25.038 19.577-9.5 42.654-11.192 6.615.307 11.307-4.924 4.693-5.23 5.385-12.346.692-7.115-3.654-11.308-4.346-4.192-11.962-5.269-29.23 1.923-55.115 13.731t-44.115 31.731q-19 20.692-29.385 46.769-10.385 26.077-10.385 55.539 0 60 42.308 102.307Q420-253.923 480-253.923Zm240.109-684.539q-82.263 0-145.071 57.558-62.807 57.558-62.807 156.424 0 91.82 63.884 162.534Q640-491.231 700.769-433.923q3.968 4 9.099 6 5.132 2 9.747 2 5.385 0 10.527-2 5.141-2 9.089-6Q800-491.231 863.885-561.946q63.884-70.714 63.884-162.534 0-98.866-62.698-156.424-62.699-57.558-144.962-57.558ZM720-455.231Q604.642-562.657 573.821-619.912 543-677.166 543-723.923q0-89.536 56.301-136.268 56.302-46.732 120.847-46.732 64.544 0 120.698 46.628Q897-813.667 897-724.328q0 46.546-30.937 104.176Q835.127-562.522 720-455.231Zm0-225.846Zm-52.077 35.154 19.692-64.539-53.846-43.615h65.308L720-818.385l21.59 64.308h64.641l-53.014 43.979 20.502 64.175-53.782-39.687-52.014 39.687Z"/></svg>