<svg xmlns="http://www.w3.org/2000/svg" width="48" height="48" viewBox="0 96 960 960"><path d="M147.615 936q-11.717 0-19.666-7.949T120 908.385v-248q0-11.718 7.949-19.667 7.949-7.949 19.666-7.949h135.308V411.385q0-81.616 57.096-138.501Q397.115 216 480 216h166.077q80.737 0 137.33 57.115Q840 330.231 840 411.385v509.231q0 6.596-4.444 10.99Q831.111 936 824.44 936q-6.671 0-10.94-4.394-4.269-4.394-4.269-10.99V817.923H593.693v90.462q0 11.923-9.308 19.769Q575.077 936 562.923 936H147.615Zm446.078-148.846h215.538V411.385q0-68.587-47.731-116.601-47.731-48.015-115.423-48.015H479.5q-68.492 0-117.15 47.846t-48.658 116.77v221.384h249.231q12.154 0 21.462 7.846t9.308 19.77v126.769ZM435.385 468.692q-6.597 0-10.991-4.444Q420 459.803 420 453.132q0-5.901 4.394-10.555t10.991-4.654h252.154q6.596 0 10.99 4.829 4.394 4.83 4.394 10.731 0 6.671-4.394 10.94-4.394 4.269-10.99 4.269H435.385ZM344.539 774q5.384 3.846 11.923 3.846 6.538 0 12.692-3.846l193.769-110.461H150.769L344.539 774Zm-193.77 131.231h412.154V697L384.538 798.923q-5.936 3.637-13.003 5.818-7.066 2.182-14.493 2.182-7.427 0-14.628-2.182-7.202-2.181-13.26-5.818L150.769 697v208.231Zm0-241.692V676.3v-.385 25.778V697v208.231V697v4.693-25.847q0-3.692 0 0v-12.307Z"/></svg>