<svg xmlns="http://www.w3.org/2000/svg" width="48" height="48" viewBox="0 -960 960 960"><path d="M719.742-259.769q26.56 0 44.947-18.45 18.388-18.451 18.388-44.808 0-26.358-18.42-44.588-18.42-18.231-44.734-18.231-26.73 0-44.827 18.403Q657-349.041 657-322.751t18.3 44.636q18.3 18.346 44.442 18.346Zm.039 126.077q31.604 0 58.681-14.731 27.077-14.731 45.077-40.192-24.462-14-50.142-21.731-25.68-7.731-53.308-7.731-27.627 0-53.858 7.731-26.231 7.731-49.923 21.731 17.088 25.548 44.478 40.236 27.39 14.687 58.995 14.687ZM355.385-597.077h249.23v-86.373q0-52.858-36.346-89.32-36.346-36.461-88.269-36.461-51.923 0-88.269 36.461-36.346 36.462-36.346 89.32v86.373ZM255.384-120q-23 0-39.192-16.192T200-175.384v-366.309q0-23 16.192-39.192t39.192-16.192h69.231v-86.077q0-66.442 45-111.644Q414.615-840 480-840t110.385 45.202q45 45.202 45 111.644v86.077h69.231q23 0 39.192 16.192T760-541.693v40.539q0 7.577-4.707 11.365Q750.586-486 744.937-486q-5.648 0-10.677-3.846t-5.029-11.539v-40.308q0-10.769-6.923-17.692t-17.692-6.923H255.384q-10.769 0-17.692 6.923t-6.923 17.692v366.309q0 10.769 6.923 17.692t17.692 6.923h265.693q6.538 0 10.962 4.485 4.423 4.485 4.423 11.115 0 6.631-4.423 10.9Q527.615-120 521.077-120H255.384Zm464.539 21.693q-65.154 0-111-45.847Q563.077-190 563.077-254.769t45.846-111Q654.769-412 719.923-412t111 46.202q45.847 46.202 45.847 110.644 0 65.154-45.847 111-45.846 45.847-111 45.847ZM230.769-335.54v184.771-415.539 230.768Z"/></svg>