<svg xmlns="http://www.w3.org/2000/svg" width="48" height="48" viewBox="0 -960 960 960"><path d="M255.38-120q-23 0-39.19-16.19Q200-152.38 200-175.38v-366.31q0-23 16.19-39.19 16.19-16.2 39.19-16.2h69.24v-86.07q0-66.39 45-111.62Q414.62-840 480-840t110.38 45.23q45 45.23 45 111.62v86.07h69.24q23 0 39.19 16.2Q760-564.69 760-541.69v37.07q0 10.62-7.58 17.35-7.57 6.73-18.27 6.27-.61 0-1.84-.12-1.23-.11-3.08-.11-101.08-4.23-169 64.65-67.92 68.89-67.92 161.43 0 19.69 6.57 48.5 6.58 28.8 18.74 53.96 5.46 11.23-.66 21.96Q510.85-120 498.62-120H255.38Zm353.54-24.15Q563.08-190 563.08-254.77q0-64.77 45.84-111 45.85-46.23 111-46.23 65.16 0 111 46.23 45.85 46.23 45.85 111 0 64.77-45.85 110.62-45.84 45.84-111 45.84-65.15 0-111-45.84ZM355.38-597.08h249.24v-86.07q0-53.16-36.35-89.62-36.35-36.46-88.27-36.46-51.92 0-88.27 36.46-36.35 36.46-36.35 89.62v86.07Zm409.35 318.96q18.35-18.34 18.35-44.8 0-26.46-18.35-44.7-18.35-18.23-44.81-18.23-26.23 0-44.57 18.73Q657-348.38 657-322.92q0 26.46 18.23 44.8 18.23 18.35 44.69 18.35 26.46 0 44.81-18.35Zm13.73 129.7q27.08-14.73 45.08-40.2-24.46-14-50.31-21.73t-53.31-7.73q-27.46 0-53.69 7.73-26.23 7.73-49.92 21.73 17.23 25.47 44.69 40.2 27.46 14.73 58.92 14.73t58.54-14.73Z"/></svg>