<svg xmlns="http://www.w3.org/2000/svg" width="48" height="48" viewBox="0 -960 960 960"><path d="M494.846-160q-6.577 0-10.981-4.458-4.403-4.458-4.403-11.115 0-6.658 4.403-10.927 4.404-4.269 10.981-4.269h249.77q9.23 0 16.923-7.692 7.692-7.693 7.692-16.923v-529.232q0-9.23-7.692-16.923-7.693-7.692-16.923-7.692h-249.77q-6.577 0-10.981-4.458-4.403-4.458-4.403-11.115 0-6.658 4.403-10.927Q488.269-800 494.846-800h249.77q23.057 0 39.221 16.163Q800-767.673 800-744.616v529.232q0 23.057-16.163 39.221Q767.673-160 744.616-160h-249.77Zm37.846-304.615H176.154q-6.577 0-10.981-4.458-4.404-4.459-4.404-11.116t4.404-10.926q4.404-4.27 10.981-4.27H532.23l-81.634-81.769q-4.352-4.385-4.621-10.615-.269-6.231 4.852-11.385t10.898-4.769q5.776.384 11.198 4.769l99.923 99.923q8.231 9 8.231 19.881t-8.231 19.042l-99.692 99.693q-3.416 4.384-9.593 4.595-6.177.21-12.03-4.826-4.762-5.154-4.762-11.115 0-5.962 5.154-11.116l80.769-81.538Z"/></svg>