<svg xmlns="http://www.w3.org/2000/svg" width="48" height="48" viewBox="0 96 960 960"><path d="M398.077 757.462h124.615q22.462 0 38.923-16.077 16.462-16.077 16.462-39.308v-78.538q0-23.924-11.423-35.193-11.423-11.269-23.731-13.577 12.308-2.307 23.731-12.346 11.423-10.038 11.423-34.192v-78.308q0-23.231-16.462-39.308-16.461-16.077-38.923-16.077H397.077q-5.846 0-10.116 4.445-4.269 4.445-4.269 11.115 0 6.671 4.394 10.94 4.395 4.27 10.991 4.27h124.615q10 0 17.308 7.307 7.308 7.308 7.308 17.308v84.846q0 10.769-7.308 17.692-7.308 6.924-17.308 6.924h-60.307q-5.846 0-10.116 4.829Q448 569.043 448 574.945q0 6.67 4.394 10.94 4.395 4.269 10.991 4.269h59.307q10 0 17.308 7.308 7.308 7.307 7.308 17.307v87.308q0 10-7.308 17.308-7.308 7.307-17.308 7.307H397.077q-5.846 0-10.116 4.445-4.269 4.445-4.269 11.115 0 6.671 4.394 10.94 4.395 4.27 10.991 4.27ZM215.384 896q-23.23 0-39.307-16.077T160 840.616V311.384q0-23 16.077-39.192T215.384 256h529.232q23 0 39.192 16.192T800 311.384v529.232q0 23.23-16.192 39.307T744.616 896H215.384Z"/></svg>