<svg xmlns="http://www.w3.org/2000/svg" width="48" height="48" viewBox="0 96 960 960"><path d="M97.692 716q-11.77 0-19.73-7.961Q70 700.077 70 688.308V451.385q0-6.539 4.485-10.962T85.6 436q6.63 0 10.9 4.423 4.269 4.423 4.269 10.962v233.846h106.077q6.539 0 10.962 4.485t4.423 11.115q0 6.631-4.423 10.9T206.846 716H97.692Zm242.938 0q-6.63 0-10.899-4.423-4.27-4.423-4.27-10.962V466.769h-66.307q-6.539 0-10.962-4.485t-4.423-11.115q0-6.631 4.423-10.9T259.154 436h163.384q6.539 0 10.962 4.485t4.423 11.115q0 6.631-4.423 10.9t-10.962 4.269h-66.307v233.846q0 6.539-4.485 10.962Q347.26 716 340.63 716Zm198.678 0q-11.77 0-19.731-7.961-7.962-7.962-7.962-19.731V463.692q0-11.769 7.962-19.731Q527.538 436 539.308 436h109.154q6.538 0 10.961 4.485t4.423 11.115q0 6.631-4.423 10.9t-10.961 4.269H542.385v93.846h106.077q6.538 0 10.961 4.485 4.423 4.486 4.423 11.116t-4.423 10.899q-4.423 4.27-10.961 4.27H542.385v93.846h106.077q6.538 0 10.961 4.485t4.423 11.115q0 6.631-4.423 10.9T648.462 716H539.308Zm293.399-42.923q-6.63 0-10.899-4.423-4.27-4.423-4.27-10.962v-66.307h-66.307q-6.539 0-10.962-4.485-4.423-4.486-4.423-11.116t4.423-10.899q4.423-4.27 10.962-4.27h66.307v-66.307q0-6.539 4.486-10.962 4.485-4.423 11.115-4.423t10.9 4.423q4.269 4.423 4.269 10.962v66.307h66.307q6.539 0 10.962 4.485Q930 569.586 930 576.216t-4.423 10.899q-4.423 4.27-10.962 4.27h-66.307v66.307q0 6.539-4.485 10.962t-11.116 4.423Z"/></svg>