<svg xmlns="http://www.w3.org/2000/svg" width="48" height="48" viewBox="0 96 960 960"><path d="M295.384 896q-22.25 0-38.817-16.567T240 840.616V431.384q0-23.403 16.332-39.394Q272.663 376 295.384 376H380V266.769q0-11.769 7.865-19.731 7.866-7.961 20.208-7.961h143.854q12.342 0 20.208 7.961Q580 255 580 266.769V376h84.616q22.25 0 38.817 16.567T720 431.384v409.232q0 22.25-16.567 38.817T664.616 896q0 13.077-8.862 21.923-8.862 8.847-21.962 8.847t-21.907-8.847q-8.808-8.846-8.808-21.923H356.923q0 13.154-8.862 21.962-8.861 8.808-21.961 8.808-13.1 0-21.908-8.847-8.808-8.846-8.808-21.923Zm110.77-520h147.692V265.23H406.154V376Zm-110.77 489.231h369.232q10.769 0 17.692-6.923t6.923-17.692V431.384q0-10.769-6.923-17.692t-17.692-6.923H295.384q-10.769 0-17.692 6.923t-6.923 17.692v409.232q0 10.769 6.923 17.692t17.692 6.923Zm41.539-82.308q0 5.744 3.657 9.41 3.656 3.667 9.384 3.667t9.421-3.667q3.692-3.666 3.692-9.41V489.077q0-5.744-3.657-9.41-3.656-3.667-9.384-3.667t-9.421 3.667q-3.692 3.666-3.692 9.41v293.846Zm130 0q0 5.744 3.657 9.41 3.656 3.667 9.384 3.667t9.421-3.667q3.692-3.666 3.692-9.41V489.077q0-5.744-3.657-9.41-3.656-3.667-9.384-3.667t-9.421 3.667q-3.692 3.666-3.692 9.41v293.846Zm130 0q0 5.744 3.657 9.41 3.656 3.667 9.384 3.667t9.421-3.667q3.692-3.666 3.692-9.41V489.077q0-5.744-3.657-9.41-3.656-3.667-9.384-3.667t-9.421 3.667q-3.692 3.666-3.692 9.41v293.846Zm-326.154 82.308V406.769v458.462Z"/></svg>