<svg xmlns="http://www.w3.org/2000/svg" width="48" height="48" viewBox="0 -960 960 960"><path d="M797.615-118.461 697.846-219Q654-170.23 596.769-140.192 539.539-110.154 480-110.154q0-60.538 29.923-117.269Q539.846-284.154 588.615-328l-98.923-98.923q-31.846 4.077-55.231-17.308-23.384-21.384-23.384-53.23l-1.539-2.308q-7.077 5.692-15.846 8.884-8.769 3.193-20.308 3.193-29.138 0-48.646-19.508t-19.508-48.646q0-11.686 3.693-21.766 3.692-10.08 10.077-19.234L134.461-781.385q-4.384-4.384-4.654-11.115-.269-6.731 4.885-11.885 5.154-4.384 11-4.384t10.231 4.384l663.923 663.693q4.385 3.615 4.27 10.346-.116 6.731-4.5 11.885-5.154 4.384-11.001 4.384-5.846 0-11-4.384ZM515-145.154q49.539-12.769 89.769-37.038 40.231-24.269 71.616-58.269l-66.077-66.077q-34 31.384-58.269 72.115-24.27 40.731-37.039 89.269ZM754.385-306l-78.539-78.538q16.919-7.888 33.729-13.252 16.81-5.364 34.041-9.595 7.923-1.23 14.202 1.116 6.278 2.346 11.259 7.038 4.693 4.981 7.039 11.26t1.115 14.202q-3.461 17.231-9.231 34.231-5.769 17-13.615 33.538ZM586.556-487.692q-5.556 0-10.056-.962-4.5-.961-8.654-3.654l-35.615-35.077q25.077-13.538 39.346-37.192 14.269-23.654 14.269-54.5 0-44.923-30.461-75-30.462-30.077-75.385-30.077-30.077 0-54.115 14.269-24.039 14.269-36.808 38.577l-61.385-61.154q8.385-7.846 20.385-12.538 12-4.693 25.265-4.693 12.112 0 21.567 3.462 9.455 3.461 16.168 10.154v-6.385q0-31.077 19.911-50.154t49.077-19.077q29.166 0 49.012 19.077t19.846 50.154v6.385q6.704-6.693 16.149-10.154 9.445-3.462 21.544-3.462 29.23 0 48.692 19.508t19.462 48.646q0 20.846-11.026 38.346-11.025 17.5-29.128 24.116 18.103 7.385 29.128 24.885 11.026 17.5 11.026 38.025 0 29.552-19.525 49.013-19.526 19.462-48.689 19.462ZM515-145.154Zm-35 35q0-100.307-80.615-189.346-80.616-89.039-181.539-105.654-7.154-1.231-13.841 1.115-6.688 2.347-10.731 7.039-4.813 3.923-7.159 10.731-2.346 6.807-1.115 13.961 16.615 100.924 105.769 181.539Q379.923-110.154 480-110.154Zm-35-35q-88.462-23.692-147.231-82.077Q239-285.615 216.077-374.846q88.461 23.692 146.846 82.577Q421.307-233.385 445-145.154Zm0 0Z"/></svg>