<svg xmlns="http://www.w3.org/2000/svg" width="48" height="48" viewBox="0 0 48 48"><path d="M24 23.1q3.6 0 6.7 1.275t5.8 3.675q.35.35.375.8.025.45-.325.85-.35.35-.8.3-.45-.05-.8-.4-2.45-2.1-5.225-3.2Q26.95 25.3 24 25.3q-2.95 0-5.725 1.1-2.775 1.1-5.225 3.2-.35.35-.8.4-.45.05-.8-.3-.35-.4-.325-.85.025-.45.375-.8 2.7-2.4 5.8-3.675Q20.4 23.1 24 23.1Zm0-12q6.15 0 11.5 2.25T45 19.5q.35.35.375.825.025.475-.275.875-.4.35-.925.25-.525-.1-.925-.45-3.95-3.6-8.825-5.65Q29.55 13.3 24 13.3q-5.55 0-10.425 2.05Q8.7 17.4 4.75 21q-.4.35-.925.45-.525.1-.875-.25t-.325-.85q.025-.5.375-.85 4.15-3.9 9.5-6.15Q17.85 11.1 24 11.1Zm-1.55 27.35L19.6 37.2q-.25-.1-.25-.375t.25-.375l2.85-1.25 1.15-2.8q.15-.2.4-.2t.4.2l1.15 2.8 2.9 1.25q.2.1.2.375t-.2.375l-2.9 1.25-1.15 2.7q-.15.2-.4.2t-.4-.2Z"/></svg>