<svg xmlns="http://www.w3.org/2000/svg" width="48" height="48" viewBox="0 96 960 960"><path d="M175.384 856q-23.057 0-39.221-16.163Q120 823.673 120 800.616V351.384q0-23.057 16.163-39.221Q152.327 296 175.384 296h609.232q23.057 0 39.221 16.163Q840 328.327 840 351.384v449.232q0 23.057-16.163 39.221Q807.673 856 784.616 856H175.384Zm633.847-505.769L496 559.923q-4 2-7.885 3.5-3.884 1.5-8.115 1.5t-8.115-1.5q-3.885-1.5-7.116-3.5l-314-209.692v450.385q0 10.769 6.923 17.692t17.692 6.923h609.232q10.769 0 17.692-6.923t6.923-17.692V350.231ZM480 534.769l315.231-208H165.769l314.231 208ZM150.769 350.231V358v-23.51 1.266-8.987 8.385-1.682V358v-7.769 475-475Z"/></svg>