<svg xmlns="http://www.w3.org/2000/svg" width="48" height="48" viewBox="0 -960 960 960"><path d="M780-752.31v147.69q0 6.81-4.3 11.1-4.29 4.29-11.11 4.29-6.82 0-11.09-4.29t-4.27-11.1v-121.61L532.92-511.69q21 29 34.04 62.46T580-380q0 83.64-58.16 141.82Q463.68-180 380.07-180q-83.61 0-141.84-58.16Q180-296.32 180-379.93q0-83.61 58.18-141.84Q296.36-580 380-580q36 0 68.46 13.42 32.46 13.43 62.23 33.66L727-749.23H604.62q-6.81 0-11.1-4.3-4.29-4.29-4.29-11.11 0-6.82 4.29-11.09t11.1-4.27h147.69q12.04 0 19.86 7.83 7.83 7.82 7.83 19.86ZM260.08-499.8q-49.31 49.43-49.31 119.92 0 70.5 49.43 119.8 49.43 49.31 119.92 49.31 70.5 0 119.8-49.43 49.31-49.43 49.31-119.92 0-70.5-49.43-119.8-49.43-49.31-119.92-49.31-70.5 0-119.8 49.43Z"/></svg>