<svg xmlns="http://www.w3.org/2000/svg" width="48" height="48" viewBox="0 -960 960 960"><path d="M400-507.308q-49.846 0-82.616-32.384-32.769-32.385-32.769-83 0-49.847 32.769-82.616 32.77-32.769 82.616-32.769t82.616 32.769q32.769 32.769 32.769 82.616 0 50.615-32.769 83-32.77 32.384-82.616 32.384ZM120-249.384v-25.539q0-28.077 14.038-47.615 14.039-19.539 40.885-32.231 58.923-26.616 109.269-39.846Q334.539-407.846 400-407.846h8.423q4.192 0 8.423-.769-2.923 8.615-4.384 15.577-1.462 6.961-2.693 15.961H400q-61.846 0-110.808 10.962-48.961 10.961-100.269 38.423-22.154 11.077-30.154 24.038-8 12.962-8 28.731v27.077h259.769q1.924 8 5.077 15.962 3.154 7.961 7 14.807H152.308q-13.462 0-22.885-9.423Q120-235.923 120-249.384Zm540.154 43.307-3.923-39.153q-19.308-3.462-37.193-13.347-17.884-9.884-29.884-24.192l-34.923 11.846q-3.385 1.231-6.539.154-3.154-1.077-4.077-4.231l-2.154-3.077q-1.923-2.615-1.576-6.384.346-3.77 3.269-5.923l30.692-24.847Q568-329.615 568-349.461q0-19.846 5.846-35l-29.923-26.385q-2.923-1.923-3.654-5.038-.731-3.116 1.192-6.27l1.385-3.538q2.462-3.154 5.5-4.116 3.039-.961 6.423.27l34.385 12.615q11.231-15.077 29.5-24.577 18.269-9.5 37.577-12.962l3.923-38.384q.461-4.616 3.615-7.654 3.154-3.039 7-3.039h1.847q3.846 0 7.384 3.039 3.539 3.038 3.231 7.654l3.923 38.384Q705.693-451 723.962-441.5t30.269 23.808l34.154-12.616q3.385-.461 5.769.616 2.385 1.077 4.846 4.231l2.154 2.307q1.923 3.385 1.193 6.385-.731 3-3.654 5.923l-29.923 25.615q6.615 15.924 6.615 35.385 0 19.462-6.615 34.615l30.692 24.847q2.923 1.923 3.654 5.807.731 3.885-1.962 6.27l-1.384 3.538q-1.693 3.154-4.347 4.115-2.653.962-6.038-.269l-35.154-11.846q-12.769 14.308-30.654 24.192-17.884 9.885-36.423 13.347l-3.923 38.384q.308 4.616-3.231 7.654-3.538 3.039-7.384 3.039h-1.847q-3.846 0-7-3.039-3.154-3.038-3.615-6.885Zm10.769-71.077q32.154 0 52.231-20.461 20.077-20.462 20.077-51.846 0-32.154-20.077-52.231-20.077-20.077-52.231-20.077-31.384 0-51.846 20.077-20.462 20.077-20.462 52.231 0 31.384 20.462 51.846 20.462 20.461 51.846 20.461ZM400-538.077q35.923 0 60.269-23.962 24.346-23.961 24.346-60.653 0-35.923-24.346-60.27-24.346-24.346-60.269-24.346t-60.269 24.346q-24.346 24.347-24.346 60.27 0 36.692 24.346 60.653 24.346 23.962 60.269 23.962Zm0-84.615Zm10.538 374.846Z"/></svg>