<svg xmlns="http://www.w3.org/2000/svg" width="48" height="48" viewBox="0 -960 960 960"><path d="M254-177.31q24.31-23.07 53.12-53 28.8-29.92 54.88-64.61 26.08-34.7 43.35-71.76 17.27-37.06 17.27-72.24 0-75.49-47.4-123.13T254-609.69q-73.82 0-121.22 47.65-47.4 47.66-47.4 123.17 0 35.55 17.27 72.4 17.27 36.85 43.35 71.55 26.08 34.69 54.88 64.61 28.81 29.93 53.12 53ZM130.77-120q-5.39 0-8.08-2.7-2.69-2.7-2.69-8.1 0-5.39 2.69-8.07 2.69-2.67 8.08-2.67h116.77q-28.23-25.46-64.85-62.58-36.61-37.11-67.84-81.11-26-35.46-43.12-75.35-17.11-39.88-17.11-78.11 0-87.13 57.34-144.45 57.35-57.32 142.12-57.32 84.77 0 142.04 57.32 57.26 57.32 57.26 144.45 0 38.23-17.11 78.11-17.12 39.89-43.12 75.35-31.23 44.23-68.34 81.35-37.12 37.11-65.35 62.34h569.77q5.39 0 8.08 2.7 2.69 2.7 2.69 8.1 0 5.39-2.69 8.07-2.69 2.67-8.08 2.67H130.77Zm464-460.15Zm-19.15 258.34q-5.62-3.11-9.85-9.34l-28.54-44.16q-4.15-6.84-1.58-11.95 2.57-5.1 7.73-8.28 5.39-2.15 11.62-1.54 6.23.62 10.38 7.46l23.08 37.77 33.62-54.46q4.09-5.95 10.52-9.2 6.43-3.26 13.94-3.26h162.69v-365.85q0-10.76-6.92-17.69-6.93-6.92-17.69-6.92H405.46q-10 0-17.31 6.92-7.3 6.93-7.3 17.69v80.31q0 6.56-4.48 10.97-4.48 4.42-11.13 4.42-6.62 0-10.89-3.89-4.27-3.88-4.27-11.5v-80.31q0-23.23 16.07-39.3Q382.23-840 405.46-840h379.16q23.23 0 39.3 16.08Q840-807.85 840-784.62v341.24q0 23.23-16.08 39.3Q807.85-388 784.62-388h-136.7l-36 56.85q-4.23 6.23-10.23 9.34-6 3.12-13.23 3.12t-12.84-3.12Zm-321.44-76.42q21.01 0 35.76-14.55 14.75-14.55 14.75-36.32 0-21.01-14.93-36.15-14.94-15.13-35.94-15.13-21.01 0-35.76 15.09-14.75 15.09-14.75 36.32 0 22 14.93 36.37 14.94 14.37 35.94 14.37Zm-.18-50.69Zm340.77-106.62 53.46 33.08q4.23 2 8.35-.8 4.11-2.79 2.11-6.43l-14.15-62.69 48.23-41.77q4-2.23 2.42-6.44-1.58-4.2-5.88-5.03l-63.93-5.81-25.65-59.12q-1.73-4.22-5.46-4.22t-5.46 4.22l-25.65 59.12-63.93 5.81q-5.07.83-6.27 5.03-1.19 4.21 2.81 6.44L544-592.38l-14.92 62.69q-1.23 3.64 2.5 6.43 3.73 2.8 8.73.8l54.46-33.08Z"/></svg>