<svg xmlns="http://www.w3.org/2000/svg" width="48" height="48" viewBox="0 -960 960 960"><path d="M158.154-305Q138.923-346.461 128-389.815q-10.923-43.354-10.923-88.723 0-74.931 28.339-140.631 28.34-65.7 77.537-114.916Q272.15-783.3 337.826-811.65 403.502-840 478.405-840t140.64 28.339q65.737 28.34 114.98 77.537 49.243 49.197 77.609 114.873Q840-553.575 840-478.672t-28.35 140.64q-28.35 65.737-77.565 114.98-49.216 49.243-114.916 77.609-65.7 28.366-140.631 28.366-45.369 0-88.723-10.923T305-158.154l-157.884 44.645q-15.962 5.048-27.309-6.298-11.346-11.347-6.298-27.309L158.154-305Zm305-156.461v107.769q0 6.538 4.485 10.961t11.115 4.423q6.631 0 10.9-4.423t4.269-10.961v-107.769h108.769q5.789 0 10.587-4.486 4.798-4.485 4.798-11.115t-4.798-10.9q-4.798-4.269-10.587-4.269H493.923v-108q0-6.538-4.485-10.961t-11.115-4.423q-6.631 0-10.9 4.423t-4.269 10.961v108h-108q-6.539 0-10.962 4.485-4.423 4.486-4.423 11.116t4.423 10.899q4.423 4.27 10.962 4.27h108Z"/></svg>