<svg xmlns="http://www.w3.org/2000/svg" width="48" height="48" viewBox="0 96 960 960"><path d="M140.769 751.616q-12.231-8.077-21.5-19.839Q110 720.015 110 705.462V378.615q0-9.482 3.846-16.241t14-12.22l289.923-145q3.154-1.462 6.962-2.193 3.807-.73 7.126-.73 3.318 0 7.076 1.23 3.759 1.231 7.452 2.693l280.769 144q6.692 3.923 12.615 13.577t7.385 18.346h-25.539L431.692 233.769 140.769 378.615v373.001ZM291.538 896q-23.058 0-39.221-16.192-16.164-16.192-16.164-39.192V508.231q0-23 16.164-39.193 16.163-16.192 39.221-16.192h503.078q23 0 39.192 16.192Q850 485.231 850 508.231v332.385q0 23-16.192 39.192T794.616 896H291.538Zm252.397-241q-4.296 0-7.154-1-2.858-1-6.32-2.231L266.923 519.154v321.462q0 10.769 6.923 17.692t17.692 6.923h503.078q10.769 0 17.692-6.923t6.923-17.692V519.154L555.692 651.769q-.769 0-11.757 3.231Zm-.474-34 263.616-132.769q-3.077-2.308-6.923-3.462-3.846-1.154-8.462-1.154H294.461q-3.846 0-8.077 1.154-4.23 1.154-7.307 3.462L543.461 621ZM266.923 519.154v4.154-39.693 39.693-4.154 346.077-346.077Z"/></svg>