<svg xmlns="http://www.w3.org/2000/svg" width="48" height="48" viewBox="0 -960 960 960"><path d="m431.15-289.69-93.38 58.84q-7.23 4.23-14.35.3-7.11-3.94-7.11-12.53V-360q0-8.59 7.11-12.52 7.12-3.94 14.35.29l93.38 58.85q5.47 3.34 5.47 11.4t-5.47 12.29ZM520-587.31q-42.95 0-73.01-29.9-30.07-29.9-30.07-72.61 0-42.72 30.07-73.18 30.06-30.46 73.01-30.46h20q5.74 0 9.41 4.17 3.67 4.18 3.67 9.39 0 5.21-3.67 8.9-3.67 3.69-9.41 3.69h-20q-32.05 0-54.49 22.6-22.43 22.6-22.43 54.89 0 32.28 22.43 54.32 22.44 22.04 54.49 22.04h20q5.74 0 9.41 4.17 3.67 4.18 3.67 9.39 0 5.21-3.67 8.9-3.67 3.69-9.41 3.69h-20Zm160 0h-20q-5.74 0-9.41-3.65-3.67-3.66-3.67-8.87 0-5.21 3.67-9.42t9.41-4.21h20q32.05 0 54.49-22.1 22.43-22.11 22.43-54.39 0-32.29-22.43-54.82-22.44-22.54-54.49-22.54h-20q-5.74 0-9.41-3.65-3.67-3.66-3.67-8.87 0-5.21 3.67-9.42t9.41-4.21h20q42.95 0 73.01 30.4 30.07 30.39 30.07 73.11 0 42.71-30.07 72.68-30.06 29.96-73.01 29.96Zm-30-90H550q-5.74 0-9.41-3.65-3.67-3.66-3.67-8.87 0-5.21 3.67-9.42t9.41-4.21h100q5.74 0 9.41 4.17 3.67 4.18 3.67 9.39 0 5.21-3.67 8.9-3.67 3.69-9.41 3.69Zm-23.92 236.54v-40h198.54q10.76 0 17.69-6.92 6.92-6.93 6.92-17.69v-315.39q0-10.77-6.92-17.69-6.93-6.92-17.69-6.92H375.38q-10.76 0-17.69 6.92-6.92 6.92-6.92 17.69v316.92H320v-316.92q0-22.25 16.57-38.82 16.56-16.56 38.81-16.56h449.24q22.25 0 38.81 16.56Q880-843.02 880-820.77v324.62q0 22.25-16.57 38.81-16.56 16.57-38.81 16.57H626.08ZM135.38-83.85q-22.25 0-38.81-16.56Q80-116.98 80-139.23v-324.62q0-22.25 16.57-38.81 16.56-16.57 38.81-16.57h449.24q22.25 0 38.81 16.57Q640-486.1 640-463.85v324.62q0 22.25-16.57 38.82-16.56 16.56-38.81 16.56H135.38Zm0-30.77h449.24q10.76 0 17.69-6.92 6.92-6.92 6.92-17.69v-324.62q0-10.77-6.92-17.69-6.93-6.92-17.69-6.92H135.38q-10.76 0-17.69 6.92-6.92 6.92-6.92 17.69v324.62q0 10.77 6.92 17.69 6.93 6.92 17.69 6.92ZM600-663.46ZM360-301.92Z"/></svg>