<svg xmlns="http://www.w3.org/2000/svg" width="48" height="48" viewBox="0 -960 960 960"><path d="M796.462-120.769 636.923-279.308l-54 54.231q-3.692 4.692-10 5.077-6.308.385-11.769-5.077-4.462-4.461-4.462-10.269t4.462-11.269l54-54.462L410.769-506.23v223.153q0 49.923-33.884 82.654-33.885 32.731-81.501 32.731-47.615 0-81.5-32.346Q180-232.384 180-283.077q0-48.385 33.5-81.885 33.5-33.5 81.884-33.5 29.077 0 51.154 11.077T380-362.308V-537L137.923-779.077q-4.385-4.385-4.885-10.615-.5-6.231 4.654-10.616 5.154-5.154 11.115-5.154 5.962 0 11.116 5.154l658.539 657.539q4.384 4.385 4.769 10.615.385 6.231-4.769 11.385t-11 5.154q-5.847 0-11-5.154Zm19.076-125.077L551.154-509.692l1.154-1.154q7.461-7.462 18.307-7.462 10.846 0 19.077 7.462l103.385 103.384v-145q0-18.461 16.961-25.192 16.962-6.731 30.193 6.5l76.692 76.692q8.231 8.231 7.846 19.077-.384 10.847-9.384 19.847l-85.462 84.692 87.769 86.231q7.462 7.461 7.462 18.307 0 10.847-7.462 18.308l-2.154 2.154Zm-94-158L795-475l-73.462-74.231v145.385ZM410.769-650.615 380-681.385v-83.231q0-12.23 7.731-19.961 7.73-7.731 19.961-7.731h137.077q12.231 0 19.962 7.731t7.731 19.961v34.231q0 12.231-7.731 19.962t-19.962 7.731h-134v52.077Z"/></svg>