<svg xmlns="http://www.w3.org/2000/svg" width="48" height="48" viewBox="0 -960 960 960"><path d="m183.077-801.539-7.693 36.77-93.307-93.308q-4.385-4.384-4.654-10.731-.27-6.346 4.885-11.5 5.153-5.154 11-5.154 5.846 0 11 5.154l724.923 723.923q4.384 4.385 4.269 11.116-.115 6.731-5.269 11.115-5.154 5.154-11 5.154T807-134.154L688.077-252.308h-59.154l25.923 25.693q4.231 4.231 6.231 9.346t2 10.346v19.231q0 12.231-7.731 19.961-7.73 7.731-19.961 7.731h-310.77q-12.231 0-19.961-7.731-7.731-7.73-7.731-19.961v-19.462q0-6 2-10.615t6.231-8.846l25.692-25.693H175.384q-23.23 0-39.307-16.077Q120-284.461 120-307.692v-436.924q0-22.461 16.192-39.692t46.885-17.231ZM784.846-800q23 0 39.193 16.192 16.192 16.192 16.192 39.192v433.77q0 19.231-16.962 25.962-16.961 6.73-30.192-6.5L329.846-752.846q-13.231-13.231-6-30.193Q331.077-800 349.538-800h435.308Z"/></svg>