<svg xmlns="http://www.w3.org/2000/svg" width="48" height="48" viewBox="0 -960 960 960"><path d="m675.54-415.46-22-22.23q5.15-10.16 7.73-21.04 2.58-10.89 2.58-22.5 0-20.43-7.08-39.29t-21.15-33.63q-5.7-3.31-4-9.7 1.69-6.38 5.3-9.69 3.62-3.31 10.35-3.73 6.73-.42 12.65 5.89 16.88 18.81 25.79 41.86 8.91 23.06 8.91 48.06 0 17.14-4.89 34.3-4.88 17.16-14.19 31.7Zm78.61 80.08-21.77-23q17.54-27.39 27.2-58.35 9.65-30.95 9.65-63.5 0-42.77-14.77-80.96-14.77-38.19-43.54-69.43-5.15-4.61-3.69-10.73 1.46-6.11 6.46-9.65t11.43-3.67q6.43-.13 13.11 7.67 29.16 35.23 45.46 78.34Q800-525.55 800-480.52q0 39.51-11.58 76.67-11.57 37.16-34.27 68.47Zm82.54 252.53-770-776.3q-4.15-4.39-4.65-10.62-.5-6.23 4.65-11.38 5.16-5.16 11-5.16 5.85 0 11 5.16l770.23 776.3q4.39 4.39 4.66 10.62.27 6.23-4.89 11.38-5.15 5.16-11 5.16-5.84 0-11-5.16ZM288.46-880h376.16q22.44 0 38.91 16.47Q720-847.06 720-824.62v52.31q0 6.58-4.46 10.98-4.46 4.41-11.11 4.41-6.66 0-10.93-4.41-4.27-4.4-4.27-10.98v-52.31q0-10.76-6.92-17.69-6.93-6.92-17.69-6.92H240q6.15-13.06 19.16-21.91 13.01-8.86 29.3-8.86Zm210.99 164.85q8.01-7.47 8.01-18.7t-8.01-18.69q-8.02-7.46-18.7-7.46-10.67 0-18.13 7.46-7.47 7.46-7.47 18.69t7.47 18.7q7.46 7.46 18.13 7.46 10.68 0 18.7-7.46ZM295.38-80q-22.44 0-38.91-16.47Q240-112.94 240-135.38v-593.24l30.77 31v562.24q0 10.76 6.92 17.69 6.93 6.92 17.69 6.92h370q10.77 0 17.31-6.92 6.54-6.93 6.54-17.69V-276L720-245v109.62q0 22.44-16.47 38.91Q687.06-80 664.62-80H295.38Zm146.24-324.46Zm69.23-154.46Z"/></svg>