<svg xmlns="http://www.w3.org/2000/svg" width="48" height="48" viewBox="0 -960 960 960"><path d="m615.615-440.154-30.769-30.769v-241.539l-80.307 80.308Q500.385-628 494.423-628t-11.115-5.154q-5.154-4.385-5.154-10.731t5.154-11.5l97.461-97.462q4.231-4.23 9.231-6.615t10.231-2.385q6 0 10.615 2.385 4.616 2.385 8.846 6.615l99.231 98.462q4.154 4.154 4.269 10.5.116 6.346-5.038 10.731Q713-628 707.038-628q-5.961 0-11.115-5.154l-80.308-79.308v272.308ZM783.692-127.23 369.539-540.615v323.846l81.846-81.077q3.384-3.385 9.846-3.5 6.461-.116 10.846 4.269 5.154 5.154 5.154 11.116 0 5.961-5.154 11.115l-98.462 98.462q-4.23 4.23-8.846 6.23-4.615 2-10.615 2-5.231 0-9.846-2-4.616-2-8.847-6.23l-99.23-99.231q-4.154-4.154-4.154-10.231t5.154-11.231q4.384-4.385 10.73-4.769 6.347-.385 10.731 4.769l80.077 80.308v-354.385L124.692-785.231q-4.154-4.154-3.769-10 .384-5.846 4.769-11 5.154-5.154 11-5.154t11 5.154l658.231 658q4.154 4.154 4.154 10 0 5.847-5.154 11.001-4.384 5.153-10.615 5.153t-10.616-5.153Z"/></svg>