<svg xmlns="http://www.w3.org/2000/svg" width="48" height="48" viewBox="0 -960 960 960"><path d="m836.69-82.85-770-776.3q-4.15-4.39-4.65-10.62-.5-6.23 4.65-11.38 5.16-5.16 11-5.16 5.85 0 11 5.16l770.23 776.3q4.39 4.39 4.66 10.62.27 6.23-4.89 11.38-5.15 5.16-11 5.16-5.84 0-11-5.16ZM288.46-880h376.16q22.25 0 38.81 16.57Q720-846.87 720-824.62v140.77q14.92-.07 26.54 10.19 11.61 10.26 11.61 24.76v68.05q0 15.46-11.61 25.46-11.62 10.01-26.54 9.93v158q0 7.69-4.71 11.54-4.7 3.84-10.35 3.84-5.65 0-10.68-4.28-5.03-4.29-5.03-11.1v-437.16q0-10.76-6.92-17.69-6.93-6.92-17.69-6.92H240q6.15-13.06 19.16-21.91 13.01-8.86 29.3-8.86Zm192.52 172.31q10.79 0 18.64-7.52 7.84-7.51 7.84-18.69 0-11.18-7.91-18.64-7.91-7.46-18.3-7.46-11.17 0-18.63 7.52-7.47 7.51-7.47 18.69 0 11.17 7.52 18.64 7.51 7.46 18.31 7.46ZM295.38-80q-22.25 0-38.81-16.57Q240-113.13 240-135.38v-593.24l30.77 31v562.24q0 10.76 6.92 17.69 6.93 6.92 17.69 6.92h370q10.77 0 17.31-6.92 6.54-6.93 6.54-17.69V-276L720-245v109.62q0 22.25-16.57 38.81Q686.87-80 664.62-80H295.38Zm146.24-324.46Zm104.69-124.69Z"/></svg>