<svg xmlns="http://www.w3.org/2000/svg" width="48" height="48" viewBox="0 -960 960 960"><path d="M832.308-454.769q0 48.692-25.077 77.115-25.077 28.423-64.846 28.423-21.769 0-48.769-10.961-27-10.962-42.462-27.192L350.231-684.462q-10.077-73 49.807-110.423 59.885-37.423 131.347-37.423 36.384 0 57.884 21.269 21.5 21.27 21.5 52.347 0 21.384-9.192 40.23-9.192 18.847-26.269 31-23.693 14.693-39.731 43.847-16.038 29.153-21.885 66.076 10.462 3.077 17.116 6.924 6.654 3.846 11.269 9.692l104.231-39.154q14.692-5.231 27.5-7.962 12.807-2.73 26.731-2.73 60.23 0 96 45.077 35.769 45.077 35.769 110.923ZM431.692-127.692q-36.384 0-59.423-22.039-23.038-22.038-23.038-53.346 0-21.384 9.192-40.115t26.269-30.116q22.769-14.769 38.423-41.346 15.654-26.577 23.423-67.577-8.692-3.538-15.346-7.384-6.654-3.846-13.038-8.462l-104.462 37.154q-14.692 5.231-28 8.462-13.307 3.23-27.231 3.23-60.692 0-95.73-43.846-35.039-43.846-35.039-112.154 0-51.769 25.5-78.654 25.5-26.884 65.808-26.884 25.307 0 55.115 10.5 29.808 10.5 45.577 29.038L60.846-830.077q-4.385-3.615-4.77-10.346-.384-6.731 4.77-11.116 4.385-5.153 10.73-5.153 6.347 0 10.732 5.153L836.539-98.077q4.384 4.385 4.384 11t-4.384 11q-4.385 4.385-10.731 4.385t-10.731-4.385L610-281.154q.769 3.847 1.154 7.693.385 3.846.385 7.692 1.384 58.154-47.347 98.115-48.73 39.962-132.5 39.962Z"/></svg>