<svg xmlns="http://www.w3.org/2000/svg" width="48" height="48"><path d="M21.45 41.6q-1.95 0-2.975-1.15-1.025-1.15-1.025-2.6 0-1 .425-1.95t1.375-1.55q1.1-.8 1.9-2.15.8-1.35 1.2-3.3-.4-.15-.725-.325-.325-.175-.725-.475l-5.2 1.85q-.75.25-1.425.425t-1.375.175q-2.55 0-4.525-2.325Q6.4 25.9 6.4 21.45q0-1.95 1.125-2.975Q8.65 17.45 10.1 17.45q1.05 0 2 .425t1.55 1.375q.8 1.1 2.175 1.925Q17.2 22 19.1 22.35q.15-.4.325-.775.175-.375.475-.675l-1.85-5.2q-.25-.7-.425-1.4t-.175-1.35q0-3 2.65-4.775Q22.75 6.4 26.55 6.4q1.95 0 2.975 1.125Q30.55 8.65 30.55 10.1q0 .95-.425 1.925Q29.7 13 28.75 13.65q-1.25.85-2 2.3Q26 17.4 25.7 19.1q.4.2.75.35.35.15.65.5L32.3 18q.75-.25 1.4-.4.65-.15 1.35-.15 3.3 0 4.925 2.825T41.6 26.55q0 1.95-1.2 2.975-1.2 1.025-2.7 1.025-.95 0-1.85-.425-.9-.425-1.5-1.375-.8-1.1-2.15-1.9-1.35-.8-3.3-1.25-.15.45-.35.8-.2.35-.5.7l1.9 5.2q.25.7.425 1.325t.175 1.225q-.05 2.6-2.35 4.675-2.3 2.075-6.75 2.075zm2.55-14q1.5 0 2.55-1.05Q27.6 25.5 27.6 24q0-1.5-1.05-2.55Q25.5 20.4 24 20.4q-1.5 0-2.55 1.05Q20.4 22.5 20.4 24q0 1.5 1.05 2.55Q22.5 27.6 24 27.6z"/></svg>