<svg xmlns="http://www.w3.org/2000/svg" width="48" height="48" viewBox="0 -960 960 960"><path d="M461.692-718.923v-51.846q0-6.847 4.269-11.116 4.27-4.269 11.116-4.269t11.115 4.269q4.27 4.269 4.27 11.116v51.615q41.923 3.461 73.73 29.654 31.808 26.192 44.962 66.654 1.154 6.615-3.077 12.077-4.231 5.461-10.846 6.615-6.616 1.923-12.192-2.308-5.577-4.23-6.731-10.846-12.231-31.769-39.231-51.654-27-19.884-60.231-19.884-25.461 0-49.577 9.077-24.115 9.077-41.038 28.077-3.616 6.692-9.847 8.615-6.23 1.923-12.923-.923-7.461-3.615-9.384-9.846t.923-12.923q20.769-22.231 47.615-35.577 26.846-13.347 57.077-16.577Zm307.154 577.846-159.461-159.23q-19.693 25.615-50.885 42.153-31.192 16.539-66.038 17v50.385q0 6.846-4.27 11.115-4.269 4.27-11.115 4.27t-11.116-4.27q-4.269-4.269-4.269-11.115v-52.154Q415-249.154 385.769-277q-29.231-27.846-45.154-71.615-2.692-6.616.116-12.731 2.807-6.115 9.423-8.039 5.846-1.923 11.307 1.27 5.462 3.192 7.385 9.807 15.462 39.308 43.962 62.693 28.5 23.384 71.807 23.384 32.154 0 59.346-13.423 27.193-13.423 42.962-37.115L141.077-768.615q-4.385-4.385-4.77-10.731-.384-6.347 4.77-11.5Q146.23-796 152.192-796q5.962 0 11.115 5.154l627.77 627.769q4.385 4.385 4.769 10.616.385 6.231-4.769 11.384-4.384 5.154-10.731 5.154-6.346 0-11.5-5.154Z"/></svg>