<svg xmlns="http://www.w3.org/2000/svg" width="48" height="48" viewBox="0 96 960 960"><path d="M592 716.231h123.308q6.577 0 10.981-4.404t4.404-10.981V451.154q0-6.577-4.404-10.981t-10.981-4.404H592q-6.577 0-10.981 4.404t-4.404 10.981v249.692q0 6.577 4.404 10.981T592 716.231Zm15.385-30.77V466.539h92.538v218.922h-92.538Zm-248.77 30.77H480q6.577 0 10.981-4.404t4.404-10.981V451.154q0-6.577-4.404-10.981T480 435.769H358.615q-5.788 0-10.586 4.404t-4.798 10.981v249.692q0 6.577 4.798 10.981t10.586 4.404ZM374 685.461V466.539h90.615v218.922H374Zm-129.092 30.77q6.63 0 10.9-4.423 4.269-4.423 4.269-10.962V451.154q0-6.539-4.485-10.962t-11.116-4.423q-6.63 0-10.899 4.423-4.27 4.423-4.27 10.962v249.692q0 6.539 4.486 10.962 4.485 4.423 11.115 4.423ZM175.384 856q-22.25 0-38.817-16.567T120 800.616V351.384q0-22.25 16.567-38.817T175.384 296h609.232q22.25 0 38.817 16.567T840 351.384v449.232q0 22.25-16.567 38.817T784.616 856H175.384Zm0-30.769h609.232q10.769 0 17.692-6.923t6.923-17.692V351.384q0-10.769-6.923-17.692t-17.692-6.923H175.384q-10.769 0-17.692 6.923t-6.923 17.692v449.232q0 10.769 6.923 17.692t17.692 6.923Zm-24.615 0V326.769v498.462Z"/></svg>