<svg xmlns="http://www.w3.org/2000/svg" width="48" height="48" viewBox="0 -960 960 960"><path d="M135.196-566.154q-6.658 0-10.927-4.404Q120-574.962 120-581.539v-123.077q0-23.057 16.163-39.221Q152.327-760 175.384-760h609.232q23.057 0 39.221 16.163Q840-727.673 840-704.616v123.077q0 6.577-4.458 10.981t-11.115 4.404q-6.658 0-10.927-4.404-4.269-4.404-4.269-10.981v-123.077q0-9.23-7.692-16.923-7.693-7.692-16.923-7.692H175.384q-9.23 0-16.923 7.692-7.692 7.693-7.692 16.923v123.077q0 6.577-4.458 10.981t-11.115 4.404ZM175.384-200q-23.057 0-39.221-16.163Q120-232.327 120-255.384v-123.077q0-6.577 4.458-10.981t11.115-4.404q6.658 0 10.927 4.404 4.269 4.404 4.269 10.981v123.077q0 9.23 7.692 16.923 7.693 7.692 16.923 7.692h609.232q9.23 0 16.923-7.692 7.692-7.693 7.692-16.923v-123.077q0-6.577 4.458-10.981t11.115-4.404q6.658 0 10.927 4.404Q840-385.038 840-378.461v123.077q0 23.057-16.163 39.221Q807.673-200 784.616-200H175.384Zm224.523-104.615q4.247 0 8.078-2.077 3.83-2.077 5.938-6.231L560-605.077l66.077 132.154q2.083 4.154 5.865 6.231t8.058 2.077h184.616q6.577 0 10.98-4.458Q840-473.532 840-480.189t-4.404-10.926q-4.403-4.27-10.98-4.27H649.769l-75.846-151.461q-3.528-6.539-13.995-6.539-10.467 0-13.851 6.539L400-354.923l-66.077-132.154q-2.083-4.154-5.865-6.231T320-495.385H135.384q-6.577 0-10.98 4.458Q120-486.468 120-479.811t4.404 10.926q4.403 4.27 10.98 4.27h174.847l75.846 151.692q2.07 4.154 5.826 6.231 3.757 2.077 8.004 2.077ZM480-480Z"/></svg>