<svg xmlns="http://www.w3.org/2000/svg" width="48" height="48" viewBox="0 -960 960 960"><path d="M362.31-200q-13.68 0-25.08-5.31-11.4-5.3-19.08-16.38L145.46-446.31q-11.23-14.91-11.23-33.53t11.23-33.85l172.46-224.62q7.68-11.08 19.08-16.38 11.4-5.31 25.08-5.31h422.77q22.84 0 39.11 16.57 16.27 16.56 16.27 38.81v449.24q0 22.25-16.27 38.81Q807.69-200 784.85-200H362.31Zm0-30.77h422.54q10.77 0 17.69-6.92 6.92-6.93 6.92-17.69v-449.24q0-10.76-6.92-17.69-6.92-6.92-17.69-6.92H362.31q-6.16 0-11.16 2.31-5 2.3-8.84 6.92L170.38-495.38Q165-488.46 165-480t5.38 15.38L342.31-240q3.84 4.62 8.84 6.92 5 2.31 11.16 2.31ZM393.08-449q13.19 0 22.29-8.71 9.09-8.71 9.09-22.29 0-13.58-9.26-22.29-9.26-8.71-21.74-8.71-13.58 0-22.67 8.71-9.1 8.71-9.1 22.29 0 13.58 9.1 22.29 9.09 8.71 22.29 8.71Zm145.46 0q13.58 0 22.29-8.71 8.71-8.71 8.71-22.29 0-13.58-8.71-22.29-8.71-8.71-21.91-8.71-13.19 0-22.29 8.71-9.09 8.71-9.09 22.29 0 13.58 9.26 22.29 9.26 8.71 21.74 8.71ZM684-449q13.19 0 22.29-8.71 9.09-8.71 9.09-22.29 0-13.58-9.25-22.29-9.26-8.71-21.75-8.71-13.57 0-22.67 8.71-9.09 8.71-9.09 22.29 0 13.58 9.09 22.29Q670.81-449 684-449Zm-197.54-31Z"/></svg>