<svg xmlns="http://www.w3.org/2000/svg" width="48" height="48" viewBox="0 0 48 48"><path d="M22 33.6q-.25 0-.425-.175t-.275-.375q-.6-1.6-1.425-2.775Q19.05 29.1 18.25 28q-1.05-1.35-1.85-2.75t-.8-3.5q0-2.6 1.875-4.475Q19.35 15.4 22 15.4q2.65 0 4.525 1.875Q28.4 19.15 28.4 21.75q0 2.1-.8 3.5T25.75 28q-.8 1.1-1.625 2.275Q23.3 31.45 22.7 33.05q-.1.25-.275.4-.175.15-.425.15Zm0-9.7q.9 0 1.5-.625t.6-1.525q0-.9-.6-1.5t-1.5-.6q-.9 0-1.5.6t-.6 1.5q0 .9.6 1.525.6.625 1.5.625Zm.05 16.2q-6.7 0-11.375-4.7T6 24q0-3.35 1.25-6.275Q8.5 14.8 10.675 12.6T15.8 9.15q2.95-1.25 6.25-1.25 3.35 0 6.3 1.25 2.95 1.25 5.125 3.45t3.425 5.125Q38.15 20.65 38.15 24v3.05l3.95-3.95q.25-.2.55-.225.3-.025.5.175.3.25.275.575-.025.325-.275.525l-4.8 4.8q-.4.45-.95.45-.55 0-1-.45l-4.8-4.8q-.15-.2-.2-.525-.05-.325.2-.575.25-.2.575-.175.325.025.525.225l3.9 3.9v-3q0-6-4.25-10.275T22.05 9.45q-6 0-10.25 4.275T7.55 24q-.05 6 4.2 10.275t10.3 4.275q2.6 0 4.875-.85t4.175-2.35q.3-.2.6-.2t.55.2q.3.25.3.575 0 .325-.25.525-2.2 1.75-4.825 2.7-2.625.95-5.425.95Z"/></svg>