<svg xmlns="http://www.w3.org/2000/svg" width="48" height="48" viewBox="0 0 48 48"><path d="M14.85 34.9q-1.15 0-1.95-.8t-.8-1.95V28.1q0-.35.2-.575.2-.225.55-.225.35 0 .55.225.2.225.2.575v4.05q0 .45.4.85.4.4.85.4h23.4q.45 0 .825-.4.375-.4.375-.85V11.1H13.6v5.3q0 .3-.225.525-.225.225-.525.225-.35 0-.55-.225-.2-.225-.2-.525V8.75q0-1.15.8-1.95t1.95-.8h23.4q1.15 0 1.95.8t.8 1.95v23.4q0 1.15-.8 1.95t-1.95.8ZM9.75 40q-1.15 0-1.95-.8T7 37.25V13.1q0-.35.225-.575.225-.225.575-.225.3 0 .525.225.225.225.225.575v24.15q0 .45.375.825.375.375.825.375H33.9q.35 0 .575.225.225.225.225.575 0 .3-.225.525Q34.25 40 33.9 40ZM28.9 23H12.85q-.35 0-.55-.225-.2-.225-.2-.575 0-.3.2-.525.2-.225.55-.225H28.9l-5.05-5.15q-.2-.2-.2-.5t.2-.55q.25-.2.55-.2.3 0 .55.2l5.95 6q.4.45.4 1t-.4.95l-6 6q-.2.25-.525.225-.325-.025-.525-.275-.25-.2-.225-.5.025-.3.225-.5Z"/></svg>