<svg xmlns="http://www.w3.org/2000/svg" width="48" height="48" viewBox="0 0 48 48"><path d="M16.95 25.85q-1.15 0-1.975-.825-.825-.825-.825-1.975V8.95q0-1.15.825-1.975.825-.825 1.975-.825h14.1q1.15 0 1.975.825.825.825.825 1.975v14.1q0 1.15-.825 1.975-.825.825-1.975.825Zm-.05-1.55h14.2q.5 0 .85-.35t.35-.85V8.9q0-.5-.35-.85t-.85-.35H16.9q-.5 0-.85.35t-.35.85v14.2q0 .5.35.85t.85.35Zm15.4 9.55V32.3h1.55v1.55Zm-18.15 0V32.3h1.55v1.55Zm9.1 8V40.3h1.5v1.55ZM24 16Zm8.3 25.85V40.3h1.55q0 .65-.475 1.1-.475.45-1.075.45Zm-16.6 0q-.6 0-1.075-.475T14.15 40.3h1.55Z"/></svg>