<svg xmlns="http://www.w3.org/2000/svg" width="48" height="48" viewBox="0 -960 960 960"><path d="M120-548.154q0-126.923 82.654-209.385Q285.308-840 403.846-840q118.539 0 201.193 82.461 82.654 82.462 82.654 209.385 0 12.154-.731 24.039-.731 11.884-4.193 23.5-46.307 10.615-81.654 37.23-35.346 26.616-58.269 63.77-22.154 37.154-29.269 81.038-7.115 43.885 4.5 88.5-18.462 19.462-37.654 37.923-19.192 18.462-38.885 37.693-8 7.23-17.73 11.23-9.731 4-19.962 4t-19.961-4q-9.731-4-17.731-11.23-36.616-34.154-79.846-79.423-43.231-45.27-79.847-96.77-36.615-51.5-61.538-107.346Q120-493.846 120-548.154Zm283.846 163.539q42.539 0 78.654-19 36.115-19 60.346-50.539-30.923-20.615-65.538-30.923-34.616-10.308-73.462-10.308-38.846 0-73.461 10.308-34.616 10.308-65.539 30.923 24.231 31.539 60.346 50.539 36.116 19 78.654 19Zm0-200q23.616 0 39.5-16.27 15.885-16.269 15.885-39.115 0-23.615-15.885-39.5-15.884-15.885-39.5-15.885-22.846 0-39.115 15.885-16.27 15.885-16.27 39.5 0 22.846 16.27 39.115 16.269 16.27 39.115 16.27Zm406.615 314.769H613.154q-6.846 0-11.116-4.269-4.269-4.269-4.269-11.116 0-6.846 4.269-11.115 4.27-4.269 11.116-4.269h197.307l-76.615-77.616q-4.154-4.384-4.654-11-.5-6.615 3.885-11 4.385-4.384 11-4 6.615.385 11 4.77l94.769 94.769q8.231 8.231 8.231 19.461 0 11.231-8.231 19.462l-95.538 95.538q-4.385 4.385-10.231 4.385t-11-4.385q-4.385-4.384-3.885-11 .5-6.615 3.885-11l77.384-77.615Z"/></svg>