<svg xmlns="http://www.w3.org/2000/svg" width="48" height="48" viewBox="0 -960 960 960"><path d="M184.615-120q-22.25 0-38.817-16.567-16.568-16.567-16.568-38.817v-609.232q0-22.25 16.568-38.817Q162.365-840 184.615-840h329.231q22.25 0 38.818 16.567 16.567 16.567 16.567 38.817v609.232q0 22.25-16.567 38.817Q536.096-120 513.846-120H184.615ZM160-481.923q16.923-17.77 39.582-27.923Q222.241-520 249.231-520h200q26.99 0 49.649 10.154 22.658 10.153 39.582 27.923v-302.693q0-10.769-6.923-17.692-6.924-6.923-17.693-6.923H184.615q-10.769 0-17.692 6.923T160-784.616v302.693Zm189.081-122.692q-23.466 0-39.35-16.035-15.885-16.034-15.885-39.5t16.034-39.35q16.035-15.885 39.5-15.885 23.466 0 39.351 16.035 15.884 16.034 15.884 39.5 0 23.465-16.034 39.35-16.034 15.885-39.5 15.885ZM184.615-150.769h329.231q10.769 0 17.693-6.923 6.923-6.923 6.923-17.692V-400q0-37.558-25.837-63.394-25.837-25.837-63.394-25.837h-200q-37.558 0-63.395 25.837Q160-437.558 160-400v224.616q0 10.769 6.923 17.692t17.692 6.923Zm149.231-153.846V-240q0 6.538 4.485 10.962 4.485 4.423 11.116 4.423 6.63 0 10.899-4.423 4.269-4.424 4.269-10.962v-64.615h64.616q6.538 0 10.961-4.485 4.423-4.486 4.423-11.116t-4.423-10.899q-4.423-4.27-10.961-4.27h-64.616V-400q0-6.539-4.485-10.962t-11.115-4.423q-6.63 0-10.9 4.423-4.269 4.423-4.269 10.962v64.615h-64.615q-6.539 0-10.962 4.485-4.423 4.486-4.423 11.116t4.423 10.899q4.423 4.27 10.962 4.27h64.615ZM184.615-150.769H160h378.462-353.847Zm564-228.057q-4.769-4.518-4.384-11.115.384-6.597 4.769-10.982l63.692-63.692H655.385q-6.539 0-10.962-4.485Q640-473.586 640-480.216t4.423-10.899q4.423-4.27 10.962-4.27h157.307L749-560.077q-4.385-3.415-4.769-9.977-.385-6.561 4.384-11.254 4.91-4.384 11.455-4 6.546.385 10.93 4.769l81.077 81.077q8.231 8.371 8.231 19.532t-8.231 19.392l-81.846 81.846q-4.594 4.384-10.72 4.384t-10.896-4.518Z"/></svg>