<svg xmlns="http://www.w3.org/2000/svg" width="48" height="48" viewBox="0 96 960 960"><path d="M572.809 683.692q6.499 0 10.691-4.493 4.192-4.494 4.192-11.276v-45.692H683q11.814 0 19.714-7.565 7.901-7.564 7.901-20.051v-98.461q0-11.912-7.901-19.879-7.9-7.967-19.714-7.967h-98.385q-11.961 0-19.827 7.865-7.865 7.865-7.865 19.827v171.923q0 6.782 4.527 11.276 4.526 4.493 11.359 4.493Zm14.883-92.231v-92.384h92.154v92.384h-92.154Zm-323.046 92.231q6.662 0 10.969-4.493 4.308-4.494 4.308-11.276V499.077h72.385v108.154q0 6.449 4.526 10.724 4.527 4.276 11.359 4.276 6.499 0 10.692-4.276 4.192-4.275 4.192-10.724V499.077h72.154v168.846q0 6.782 4.415 11.276 4.415 4.493 11.077 4.493t10.969-4.493Q486 674.705 486 667.923V496.154q0-11.912-7.901-19.879-7.901-7.967-19.714-7.967H276.769q-12.486 0-20.051 7.967-7.564 7.967-7.564 19.879v171.769q0 6.782 4.415 11.276 4.415 4.493 11.077 4.493ZM215.384 896q-23.057 0-39.221-16.163Q160 863.673 160 840.616V311.384q0-23 16.163-39.192Q192.327 256 215.384 256h529.232q23 0 39.192 16.192T800 311.384v529.232q0 23.057-16.192 39.221Q767.616 896 744.616 896H215.384Zm529.232-609.231H215.384q-10.769 0-17.692 6.923t-6.923 17.692v529.232q0 10.769 6.923 17.692t17.692 6.923h529.232q10.769 0 17.692-6.923t6.923-17.692V311.384q0-10.769-6.923-17.692t-17.692-6.923ZM215.384 865.231q-10.769 0-17.692-6.923t-6.923-17.692V311.384q0-10.769 6.923-17.692t17.692-6.923q-10.769 0-17.692 6.923t-6.923 17.692v529.232q0 10.769 6.923 17.692t17.692 6.923Z"/></svg>