<svg xmlns="http://www.w3.org/2000/svg" width="48" height="48" viewBox="0 -960 960 960"><path d="M344.656-619.538q-7.425 0-13.348-5.883-5.923-5.883-5.923-13.308 0-8.425 5.882-13.848Q337.15-658 344.575-658q7.656 0 13.464 5.383 5.807 5.382 5.807 13.807 0 7.425-5.767 13.349-5.767 5.923-13.423 5.923Zm-109.231 0q-7.425 0-13.348-5.883-5.923-5.883-5.923-13.308 0-8.425 5.882-13.848Q227.919-658 235.344-658q7.656 0 13.464 5.383 5.807 5.382 5.807 13.807 0 7.425-5.767 13.349-5.767 5.923-13.423 5.923Zm380 317.538q-7.425 0-13.348-5.498-5.923-5.498-5.923-13.692 0-7.656 5.882-13.464 5.883-5.808 13.308-5.808 7.656 0 13.464 5.768 5.807 5.767 5.807 13.423 0 8.194-5.767 13.733Q623.081-302 615.425-302Zm52.344-214.231q-4.923-4.384-4.654-10.615.27-6.231 4.654-10.616l85.923-85.923H450q-6.808 0-11.096-4.296-4.289-4.296-4.289-11.115t4.289-11.089q4.288-4.269 11.096-4.269h302.923l-85.154-85.154q-5.154-5.154-5.154-11t5.321-11.167q4.218-4.987 10.064-4.987t11 5.154l102.811 102.811q4.497 4.497 6.382 9.215 1.884 4.718 1.884 10.615 0 5.129-1.884 9.744-1.885 4.615-6.116 8.846L689-516.231q-4.385 4.385-11 4.385t-10.231-4.385ZM271-198.692 168.189-301.503q-4.497-4.497-6.381-9.215-1.885-4.718-1.885-10.615 0-5.129 1.885-9.744 1.884-4.615 6.381-9.881L271-443q5.154-5.154 11-5.154T293-443q3.385 4.385 3.885 10.615.5 6.231-3.885 10.616l-85.923 85.154H510q6.808 0 11.096 4.296 4.289 4.296 4.289 11.115t-4.289 11.089q-4.288 4.269-11.096 4.269H207.077l85.154 85.154q5.154 5.154 5.154 11t-4.552 11.167q-4.987 4.987-10.833 4.987t-11-5.154ZM724.656-302q-7.425 0-13.348-5.498-5.923-5.498-5.923-13.692 0-7.656 5.882-13.464 5.883-5.808 13.308-5.808 7.656 0 13.464 5.768 5.807 5.767 5.807 13.423 0 8.194-5.767 13.733Q732.312-302 724.656-302Z"/></svg>