<svg xmlns="http://www.w3.org/2000/svg" width="48" height="48" viewBox="0 -960 960 960"><path d="M513.85-227.77 433-434.54l-207.54-82.38q-9.23-3.23-13.35-10.85-4.11-7.61-4.11-15.46 0-7.85 4.11-14.85 4.12-7 13.35-11L397-633.31 180.54-849.77q-4.39-4.38-4.77-10.73-.39-6.35 4.77-11.5 4.38-4.38 10.73-4.38 6.35 0 11.5 4.38L872-202.77q3.62 4.39 4 11 .38 6.62-4 11-5.15 5.15-11.5 5.15t-10.73-5.15L631-399.31l-65 171.54q-4 9.23-11 13.35-7 4.11-14.85 4.11-7.84 0-15.46-4.11-7.61-4.12-10.84-13.35Zm242.34-508.5q2.5 7.73-1.5 15.96l-67.61 177.39q-6 13.46-20.85 16.96-14.85 3.5-25.08-6.73l-110-110q-10.23-10.23-7.11-25.08 3.11-14.85 16.58-20.85l178.15-67.61q8.23-4 15.96-1.5t13.35 8.11q5.61 5.62 8.11 13.35Z"/></svg>