<svg xmlns="http://www.w3.org/2000/svg" width="48" height="48" viewBox="0 -960 960 960"><path d="M818.05-227.615q-6.819 0-11.088-4.289-4.27-4.288-4.27-11.096v-279.923q0-6.808 4.297-11.096 4.296-4.289 11.115-4.289 6.05 0 10.704 4.289 4.654 4.288 4.654 11.096V-243q0 6.808-4.681 11.096-4.681 4.289-10.731 4.289Zm-.243 96.923q-9.884 0-16.153-6.384-6.269-6.384-6.269-15.269 0-8.886 6.384-15.924t16.038-7.038q8.116 0 15.155 6.923Q840-161.46 840-152.345q0 9.115-6.924 15.384-6.923 6.269-15.269 6.269Zm-401.345-33.385-277.001-277q-17-17.769-17-39.423 0-21.654 17-38.654l278.001-278q17-17 38.038-16.616 21.039.385 38.808 16.616l206.846 205.308v57.692L467.692-767.616Q461.539-773 455.385-773q-6.154 0-12.308 5.384L168.538-492.308q-6.153 6.154-6.153 12.308t6.153 12.308l274.539 274.538Q449.231-187 455.385-187t12.307-6.154l233.462-232.692v56.692L494.539-164.077q-18 16.462-39.154 16.731-21.154.269-38.923-16.731Zm19.461-173.153L312.475-460.678q-8.091-8.091-8.091-19.322t8.231-19.462l123.448-123.447Q444.154-631 455.385-631t19.461 8.23l123.448 123.448q8.091 8.091 8.091 19.322t-8.231 19.462L474.706-337.091Q466.616-329 455.385-329q-11.231 0-19.462-8.23Z"/></svg>