<svg xmlns="http://www.w3.org/2000/svg" width="48" height="48" viewBox="0 96 960 960"><path d="M265 652h24V500h-17l-45 32 13 19 25-18v119Zm57 1h100v-23h-66v-2l39-40q12-12 18-24t6-24q0-20-13.5-32T371 496q-18 0-31 9t-18 25l21 10q4-10 11-15t17-5q11 0 17.5 5.5T395 541q0 12-17 31l-56 58v23Zm141-1q8 0 13-5t5-13q0-8-5-13t-13-5q-8 0-13 5t-5 13q0 8 5 13t13 5Zm0-81q8 0 13-5t5-13q0-8-5-13t-13-5q-8 0-13 5t-5 13q0 8 5 13t13 5Zm92 85q23 0 37-13t14-33q0-14-7-23.5T580 572v-1q10-5 15.5-13.5T601 538q0-17-14-29.5T553 496q-17 0-29.5 8.5T505 528l22 9q4-9 10.5-13.5T553 519q11 0 17 5.5t6 13.5q0 10-7.5 16.5T550 561h-12v23h13q14 0 21.5 5.5T580 606q0 11-8 18.5t-20 7.5q-11 0-17.5-6T524 607l-23 9q6 19 20 29.5t34 10.5Zm125 0q22 0 37.5-15t15.5-37q0-20-13-34.5T687 555q-2 0-16 4l-1-1 35-48-20-14-39 56q-12 17-16 28t-4 21q0 23 15.5 39t38.5 16Zm-1-23q-12 0-20.5-8.5T650 604q0-12 8.5-20.5T679 575q12 0 20.5 8.5T708 604q0 12-8.5 20.5T679 633ZM480.134 936q-74.442 0-139.794-28.339-65.353-28.34-114.481-77.422-49.127-49.082-77.493-114.373Q120 650.575 120 576.134q0-74.442 28.339-139.794 28.34-65.353 77.422-114.481 49.082-49.127 114.373-77.493Q405.425 216 479.866 216q74.442 0 139.794 28.339 65.353 28.34 114.481 77.422 49.127 49.082 77.493 114.373Q840 501.425 840 575.866q0 74.442-28.339 139.794-28.34 65.353-77.422 114.481-49.082 49.127-114.373 77.493Q554.575 936 480.134 936Z"/></svg>