<svg xmlns="http://www.w3.org/2000/svg" width="48" height="48" viewBox="0 -960 960 960"><path d="M798.462-459.846q-12.308 0-21.539-9.231-9.231-9.231-9.231-21.538v-216.693q0-12.538 9.231-21.654 9.231-9.115 21.539-9.115 12.538 0 21.654 9.115 9.115 9.116 9.115 21.654v216.693q0 12.307-9.115 21.538-9.116 9.231-21.654 9.231ZM299-156q-7.769 0-15.077-3.423T271-169.231L120-320.769q-9.09-9.385-9.506-20.846-.417-11.462 6.169-21.154 6.722-9.154 17.254-11.616 10.533-2.461 21.083-.769l129.142 25.769v-395.846q0-22.154 14.378-36.462Q312.899-796 335.154-796q21.385 0 36.077 14.307 14.692 14.308 14.692 36.462v218.462h40.616q5.615 0 9.769 1.115t9.308 3.808l130.787 65.077q28.52 14.308 40.905 43.461 12.385 29.154 6.846 60.539l-28.308 165.384q-1.923 13.616-13.613 22.501Q570.543-156 555.846-156H299Z"/></svg>