<svg xmlns="http://www.w3.org/2000/svg" width="48" height="48" viewBox="0 96 960 960"><path d="M495.385 593.154 613 710.769q4.385 4.192 4.385 10.523 0 6.331-3.994 10.866-4.878 4.996-11.524 4.611-6.647-.384-11.098-4.769L484.077 625.308q-10.231-10.231-14.846-22.077-4.616-11.846-4.616-25.077V428.308q0-6.539 4.485-10.962 4.486-4.423 11.116-4.423t10.899 4.423q4.27 4.423 4.27 10.962v164.846Zm-15.169-346.385q6.63 0 10.899 4.423 4.27 4.423 4.27 10.962V316q0 6.538-4.485 10.961-4.486 4.424-11.116 4.424t-10.899-4.424q-4.27-4.423-4.27-10.961v-53.846q0-6.539 4.485-10.962 4.486-4.423 11.116-4.423Zm329.015 329.447q0 6.63-4.423 10.899-4.423 4.27-10.962 4.27H740q-6.538 0-10.961-4.485-4.424-4.486-4.424-11.116t4.424-10.899q4.423-4.27 10.961-4.27h53.846q6.539 0 10.962 4.485 4.423 4.486 4.423 11.116ZM480.216 820.615q6.63 0 10.899 4.424 4.27 4.423 4.27 10.961v53.846q0 6.539-4.485 10.962-4.486 4.423-11.116 4.423t-10.899-4.423q-4.27-4.423-4.27-10.962V836q0-6.538 4.485-10.961 4.486-4.424 11.116-4.424ZM235.385 576.216q0 6.63-4.424 10.899-4.423 4.27-10.961 4.27h-53.846q-6.539 0-10.962-4.485-4.423-4.486-4.423-11.116t4.423-10.899q4.423-4.27 10.962-4.27H220q6.538 0 10.961 4.485 4.424 4.486 4.424 11.116ZM480.4 936q-75.176 0-140.458-28.339-65.282-28.34-114.246-77.422-48.964-49.082-77.33-114.213Q120 650.894 120 576.018q0-74.875 28.339-140.453 28.34-65.578 77.422-114.206 49.082-48.627 114.213-76.993Q405.106 216 479.982 216q74.875 0 140.453 28.339 65.578 28.34 114.206 76.922 48.627 48.582 76.993 114.257Q840 501.194 840 575.6q0 75.176-28.339 140.458-28.34 65.282-76.922 114.062-48.582 48.78-114.257 77.33Q554.806 936 480.4 936Zm-.285-30.769q137.27 0 233.193-96.039 95.923-96.038 95.923-233.307 0-137.27-95.683-233.193T480 246.769q-137.154 0-233.192 95.683Q150.769 438.135 150.769 576q0 137.154 96.039 233.192 96.038 96.039 233.307 96.039ZM480 576Z"/></svg>