<svg xmlns="http://www.w3.org/2000/svg" width="48" height="48" viewBox="0 96 960 960"><path d="M548.385 855.231q-5 5.231-10.846 8.962-5.847 3.73-12.308 3.73-6.462 0-13.192-1.73-6.731-1.731-12.193-6.731L369.923 750.693q-42.308-35.077-60.462-86.231-18.154-51.154-9.461-104.924l-47.539-40.077q-5.23-4.23-7.846-9.961Q242 503.769 241 497.308q-1-6.462.615-12.808 1.616-6.346 5.846-11.577l14.923-18.462h-93.153v123.847q0 12.269-9.25 21.519-9.251 9.25-21.52 9.25v-340q12.693 0 21.731 9.25 9.039 9.25 9.039 21.519v123.846h119.307L356.231 341q5-5.231 10.846-7.962t12.308-3.731q7.23-1 13.692.731 6.461 1.731 11.692 6.731l46.539 39.077q51.769-19.154 105.538-9.692 53.77 9.461 96.077 44.538l129.923 108.769q5.231 5 8.962 10.847 3.731 5.846 3.731 12.307 0 6.462-1.731 12.808T787.077 567L548.385 855.231Z"/></svg>