<svg xmlns="http://www.w3.org/2000/svg" width="48" height="48" viewBox="0 -960 960 960"><path d="M227.692-283.077q-6.788 0-11.087-4.309-4.298-4.31-4.298-11.116t4.298-11.075q4.299-4.269 11.087-4.269h247.077L160.384-628.231q-4.128-4.384-4.256-11-.128-6.615 4.256-11.134 4.129-4.251 10.488-4.251t10.743 4.385l298.154 297.385 214-213q-6-12.539-9.115-23.5-3.115-10.962-3.115-19.22 0-28.91 19.716-48.634 19.716-19.723 48.615-19.723 28.9 0 48.746 19.716 19.846 19.716 19.846 48.615 0 28.9-19.86 48.746Q778.741-540 749.633-540q-6.094 0-13.748-1.769-7.654-1.769-17.156-6.308L485.231-313.846h247.077q6.788 0 11.087 4.31 4.298 4.309 4.298 11.115t-4.298 11.075q-4.299 4.269-11.087 4.269H227.692Z"/></svg>