<svg xmlns="http://www.w3.org/2000/svg" width="48" height="48" viewBox="0 0 48 48"><path d="M10.75 40q-1.15 0-1.95-.8T8 37.25v-26.5q0-1.15.8-1.95t1.95-.8H21.4q.3 0 .525.225.225.225.225.575 0 .3-.225.525-.225.225-.525.225H10.75q-.45 0-.825.375-.375.375-.375.825v26.5q0 .45.375.825.375.375.825.375h26.5q.45 0 .825-.375.375-.375.375-.825V26.6q0-.3.225-.525.225-.225.575-.225.3 0 .525.225.225.225.225.525v10.65q0 1.15-.8 1.95t-1.95.8Zm21.7-24.45h-5.2q-.35 0-.575-.225-.225-.225-.225-.575 0-.3.225-.525Q26.9 14 27.25 14h5.2V8.75q0-.3.225-.525Q32.9 8 33.25 8q.3 0 .525.225.225.225.225.525V14h5.25q.3 0 .525.225.225.225.225.575 0 .3-.225.525-.225.225-.525.225H34v5.2q0 .35-.225.575-.225.225-.575.225-.3 0-.525-.225-.225-.225-.225-.575Z"/></svg>