<svg xmlns="http://www.w3.org/2000/svg" width="48" height="48" viewBox="0 -960 960 960"><path d="m441.538-301.846 98.693-98.692q8.231-8.371 8.231-19.532t-8.231-19.392l-99.693-98.923q-2.923-2.923-7.077-3.307-4.153-.385-7.846 3.307-3.692 3.693-3.692 7.462 0 3.769 3.692 7.461L528.308-420 425.846-317.538q-2.923 3.812-3.308 7.906-.384 4.094 3.308 7.786 3.692 3.692 7.846 3.692t7.846-3.692ZM175.384-160q-23.057 0-39.221-16.163Q120-192.327 120-215.384v-415.309q0-23.057 16.163-39.221 16.164-16.163 39.221-16.163h189.231v-58.539q0-23 16.164-39.192Q396.942-800 420-800h120q23.058 0 39.221 16.192 16.164 16.192 16.164 39.192v58.539h189.231q23.057 0 39.221 16.163Q840-653.75 840-630.693v415.309q0 23.057-16.163 39.221Q807.673-160 784.616-160H175.384Zm220.001-526.077h169.23v-58.539q0-10.769-6.923-17.692T540-769.231H420q-10.769 0-17.692 6.923t-6.923 17.692v58.539Z"/></svg>