<svg xmlns="http://www.w3.org/2000/svg" width="48" height="48" viewBox="0 96 960 960"><path d="m441.538 754.154 98.693-98.692q8.231-8.371 8.231-19.532t-8.231-19.392l-99.693-98.923q-2.923-2.923-7.077-3.307-4.153-.385-7.846 3.307-3.692 3.693-3.692 7.462 0 3.769 3.692 7.461L528.308 636 425.846 738.462q-2.923 3.812-3.308 7.906-.384 4.094 3.308 7.786 3.692 3.692 7.846 3.692t7.846-3.692ZM175.384 896q-23.057 0-39.221-16.163Q120 863.673 120 840.616V425.307q0-23.057 16.163-39.221 16.164-16.163 39.221-16.163h189.231v-58.539q0-23 16.164-39.192Q396.942 256 420 256h120q23.058 0 39.221 16.192 16.164 16.192 16.164 39.192v58.539h189.231q23.057 0 39.221 16.163Q840 402.25 840 425.307v415.309q0 23.057-16.163 39.221Q807.673 896 784.616 896H175.384Zm220.001-526.077h169.23v-58.539q0-10.769-6.923-17.692T540 286.769H420q-10.769 0-17.692 6.923t-6.923 17.692v58.539ZM175.384 865.231h609.232q10.769 0 17.692-6.923t6.923-17.692V425.307q0-10-6.923-17.307-6.923-7.308-17.692-7.308H175.384q-10.769 0-17.692 7.308-6.923 7.307-6.923 17.307v415.309q0 10.769 6.923 17.692t17.692 6.923Zm-24.615 0h24.615q-10.769 0-17.692-6.923t-6.923-17.692V425.307q0-10 6.923-17.307 6.923-7.308 17.692-7.308h-24.615v464.539Z"/></svg>