<svg xmlns="http://www.w3.org/2000/svg" width="48" height="48" viewBox="0 96 960 960"><path d="M255.384 896q-22.25 0-38.817-16.567T200 840.616V503.692q0-13.673 5.509-25.077 5.51-11.404 16.952-19.077l224.616-170.384q13.895-11.231 32.64-11.231t33.206 11.231l224.616 170.384q11.442 7.673 16.952 19.077Q760 490.019 760 503.692v336.924q0 22.25-16.567 38.817T704.616 896H255.384Zm-24.615-30.769h498.462V491.385L480 302.538 230.769 491.385v373.846Zm113.846-121.539h270.77v34.231q0 6.846 4.846 11.692 4.846 4.847 12.077 4.847t12.077-4.847q4.846-4.846 4.846-12.076V659.077q0-27.923-19.885-47.808-19.884-19.884-47.807-19.884H478.077q-6.769 0-10.885 4.115-4.115 4.115-4.115 10.115v104.231H344.615V574.461q0-7.23-4.846-12.076-4.846-4.847-12.077-4.847t-12.077 4.847q-4.846 4.846-4.846 12.076v203.078q0 7.23 4.846 12.076 4.846 4.847 12.077 4.847t12.077-4.847q4.846-4.846 4.846-11.692v-34.231Zm59.339-50.769q17.815 0 30.007-12.301 12.193-12.3 12.193-30.115 0-17.815-12.301-30.007t-30.115-12.192q-17.815 0-30.007 12.3-12.193 12.301-12.193 30.116 0 17.814 12.301 30.007 12.301 12.192 30.115 12.192ZM230.769 865.231h498.462-498.462Z"/></svg>