<svg xmlns="http://www.w3.org/2000/svg" width="48" height="48"><path d="m38 33-1.55-1.55v-15.7q0-2.15-1.525-3.675T31.25 10.55h-15.3q-.25 0-.3.05L14.4 9.4q.25-.05.675-.2.425-.15.925-.2V6.75q0-.7.525-1.225Q17.05 5 17.8 5q.7 0 1.225.525.525.525.525 1.225V9h8.9V6.75q0-.7.525-1.225Q29.5 5 30.25 5q.7 0 1.225.525Q32 6.05 32 6.75V9q2.4.25 4.2 2.1 1.8 1.85 1.8 4.65zm-5.4-5.4-2.25-2.3h1.4q.3.1.55.325.25.225.3.575zM12.75 42.25q-1.1 0-1.925-.825T10 39.45v-23.7q0-.55.175-1.45.175-.9.425-1.45l-4.45-4.5q-.25-.2-.25-.525t.2-.575q.25-.2.625-.2t.575.2L40.75 40.7q.2.25.2.575 0 .325-.2.575-.25.25-.55.25-.3 0-.55-.25L38 40.2q-.3.85-1.025 1.45-.725.6-1.725.6zm0-1.55h22.7q.6 0 .975-.475T36.7 38.9L24.55 26.75H16.1q-.35 0-.575-.225Q15.3 26.3 15.3 26q0-.35.225-.55.225-.2.575-.2H23L11.75 14q-.1.3-.15.65-.05.35-.05.7v24.1q0 .55.35.9t.85.35zm13.6-19.4zm-2.15 5.1z"/></svg>