<svg xmlns="http://www.w3.org/2000/svg" width="48" height="48" viewBox="0 -960 960 960"><path d="M742.539-287.385q-7.231 2.231-15.346 1.231-8.116-1-14.347-7.231L456.308-549.923q-6.231-6.231-7.231-14.346-1-8.116 1.231-15.347 3-7.23 9.615-12.346 6.616-5.115 15.077-5.115h129.615v-87.308q0-51.692-37.846-88.269-37.846-36.577-91.538-36.577-50.154 0-85.039 30.731-34.884 30.73-43.038 81.961-.923 6.846-5.039 11.654-4.115 4.808-9.73 5.115-7.847-.461-12.654-4.807-4.808-4.347-4.116-10.962 5.77-61.923 51.5-103.192Q412.846-840 475.231-840q66.384 0 113.269 45.615 46.885 45.615 46.885 110v87.308h69.231q23.461 0 39.423 15.961Q760-565.154 760-541.693v229.616q0 8.462-5.5 15.077t-11.961 9.615ZM255.384-120q-23.461 0-39.423-15.961Q200-151.923 200-175.384v-366.309q0-23.076 15.654-38.23 15.653-15.154 36.269-16.385L19.308-828.923q-4.385-4.385-4.27-10.616.116-6.23 5.27-11.384 4.384-5.154 10.615-5.154 6.23 0 10.616 5.154L852.846-39.615Q857.231-35.231 857.5-29q.269 6.23-4.884 11.385-5.154 5.154-11 5.154-5.847 0-11.001-5.154L725.539-123.461q-7.539 2.769-15.731 3.115-8.192.346-20.577.346H255.384Zm185.924-287.154q-8.693 8.692-13.039 19.115-4.346 10.424-4.346 22.577 0 25.077 16.5 41.462t40.808 16.385q12.154 0 22.846-4.231t18.615-12.923l-81.384-82.385Z"/></svg>