<svg xmlns="http://www.w3.org/2000/svg" width="48" height="48" viewBox="0 -960 960 960"><path d="M798.923-76.077 556.154-318.615H131.923q-13.242 0-21.852-10.5T105-352.077q9.769-30.846 32.384-55.5 22.616-24.654 55.923-41.769 33.308-17.116 76.77-26.231 43.461-9.116 93.923-9.116 20.692 0 39.5 1.231t35.731 4.231v44.462L45.461-830.077q-4.384-3.682-4.769-10.379-.384-6.698 4.822-11.083 4.438-5.153 10.731-5.153 6.294 0 10.678 5.153L821.154-98.077q4.385 4.385 4.769 11 .385 6.615-4.822 11-5.206 5.154-11.115 5.154t-11.063-5.154ZM114.769-199.692q-7.489 0-12.283-4.418-4.794-4.417-4.794-12.686 0-7.5 4.794-12.275t12.283-4.775h498.462q8.258 0 12.667 4.802 4.41 4.802 4.41 12.302 0 8.269-4.41 12.659-4.409 4.391-12.667 4.391H114.769Zm0 119.692q-7.489 0-12.283-4.802t-4.794-12.302q0-8.269 4.794-12.659 4.794-4.391 12.283-4.391h498.462q8.258 0 12.667 4.418 4.41 4.417 4.41 12.686 0 7.5-4.41 12.275Q621.489-80 613.231-80H114.769ZM799.77-241.769q-7.231 2.231-15.405.663-8.174-1.568-14.057-7.663L489-530.077q-6.572-6.671-10.017-14.682-3.445-8.01-5.445-17.472L460-664.693q-2-12.153 6.65-21.423 8.65-9.269 21.811-9.269h154.078v-153.846q0-6.558 4.471-10.971 4.472-4.414 11.116-4.414 6.643 0 10.913 4.414 4.269 4.413 4.269 10.971v153.846h158.308q12.346 0 21.019 9.173 8.673 9.173 6.673 21.519l-41.077 399.232q-1 9.23-6.5 14.961t-11.961 8.731Z"/></svg>