<svg xmlns="http://www.w3.org/2000/svg" width="48" height="48"><path d="M43.1 44.2q-.25.25-.55.25-.3 0-.55-.25l-7.4-7.35h-.05v2.1q.1.4-.175.725Q34.1 40 33.7 40q-.35 0-.6-.25t-.25-.55v-3.25h-17.7v3.2q0 .35-.25.6t-.6.25q-.35 0-.6-.25t-.25-.6v-3.7q-1.2-.3-2.325-1.825Q10 32.1 10 30.2v-18L4.3 6.5q-.2-.2-.225-.525-.025-.325.275-.575.2-.25.525-.25t.525.25l37.7 37.7q.2.2.225.525.025.325-.225.575zm-5.65-11.7-9.8-9.8h8.8V12.55H17.5L12.65 7.7q1.7-.85 4.525-1.275Q20 6 24 6q7.45 0 10.725 1.325Q38 8.65 38 11.6v18.6q0 .6-.125 1.175-.125.575-.425 1.125zM16.7 31.4q.85 0 1.475-.625.625-.625.625-1.475 0-.9-.625-1.525-.625-.625-1.525-.625-.85 0-1.475.65-.625.65-.625 1.5 0 .9.65 1.5t1.5.6zm-5.15-8.7h8.9l-8.9-8.95z"/></svg>