<svg xmlns="http://www.w3.org/2000/svg" width="48" height="48" viewBox="0 -960 960 960"><path d="M480.4-120q-75.176 0-140.458-28.339-65.282-28.34-114.246-77.422-48.964-49.082-77.33-114.213Q120-405.106 120-479.982q0-74.875 28.339-140.453 28.34-65.578 77.422-114.206 49.082-48.627 114.213-76.993Q405.106-840 479.982-840q74.875 0 140.453 28.339 65.578 28.34 114.206 76.922 48.627 48.582 76.993 114.257Q840-554.806 840-480.4q0 75.176-28.339 140.458-28.34 65.282-76.922 114.062-48.582 48.78-114.257 77.33Q554.806-120 480.4-120Zm-.285-30.769q137.27 0 233.193-96.039 95.923-96.038 95.923-233.307 0-137.27-95.683-233.193T480-809.231q-137.154 0-233.192 95.683Q150.769-617.865 150.769-480q0 137.154 96.039 233.192 96.038 96.039 233.307 96.039Zm38.951-113.846q-32.22 0-56.926-19.634-24.707-19.633-35.294-50.366-4.913-10.366-9.235-20.181-4.323-9.814-11.842-17.204L355-423q-23.037-23.011-36.711-52.509-13.674-29.497-13.674-62.767 0-65.57 45.381-111.339 45.38-45.77 110.21-45.77 44.948 0 82.735 23.543 37.786 23.543 56.982 63.996 4.154 7.308.125 15.269-4.028 7.962-14.151 7.962-5.151 0-8.892-2.52-3.742-2.519-4.928-7.019-16.856-32.604-46.579-51.533-29.722-18.928-65.637-18.928-52.015 0-88.246 36.116-36.23 36.116-36.23 88.423 0 26.153 9.654 49.911 9.653 23.757 27.961 41.934L428-395q11.705 11.6 18.592 26.428 6.886 14.829 11.793 29.957 6.538 19.615 23.909 31.423 17.37 11.807 38.034 11.807 17.484 0 32.695-9.514 15.211-9.515 24.054-25.178 1.461-3.154 4.745-4.231t7.298-1.077q9.188 0 13.572 7.193 4.385 7.192.231 14.269-12.461 23.154-35.07 36.231-22.608 13.077-48.787 13.077Zm21.006-160q14.774 0 25.043-10.342 10.27-10.342 10.27-25.115 0-14.774-10.342-25.043-10.342-10.27-25.115-10.27-14.774 0-25.043 10.342-10.27 10.342-10.27 25.115 0 14.774 10.342 25.043 10.342 10.27 25.115 10.27Z"/></svg>