<svg xmlns="http://www.w3.org/2000/svg" width="48" height="48" viewBox="0 -960 960 960"><path d="M464.27-136.96q-7.81-2.35-14.27-8.04-32-29.54-75.62-74.04-43.61-44.5-83.3-98.04-39.7-53.54-67.31-112.84-27.62-59.31-27.62-118.23 0-126.93 82.66-209.39Q361.46-840 480-840q118.54 0 201.19 82.46 82.66 82.46 82.66 209.39 0 58.92-27.62 118.23-27.61 59.3-66.92 112.46-39.31 53.15-82.93 97.65-43.61 44.5-75.61 74.04-6.46 5.69-14.65 8.42-8.2 2.73-16.12 2.73-7.92 0-15.73-2.34Zm32.88-218.27q7.54-7.15 7.54-16.77t-7.54-17.15q-7.53-7.54-17.15-7.54-9.62 0-16.77 7.54-7.15 7.53-7.15 17.15 0 9.62 7.15 16.77t16.77 7.15q9.62 0 17.15-7.15Zm-16.15-103q6.15 0 10.46-5.08 4.31-5.07 4.31-11.46 0-8 4-17.77t12.54-18.54q5.77-7.3 13.81-14.07 8.03-6.77 16.57-14.31 20.16-18.92 28.62-36.89 8.46-17.96 8.46-40.88 0-37.39-28.42-62.58Q522.92-705 484.54-705q-28.92 0-53.46 13.19t-39.77 37.58q-3.46 5.15-2 11.19 1.46 6.04 7 9.5t11.57 1.89q6.04-1.58 9.5-6.5 10.54-17.77 28.58-27.16 18.04-9.38 38.58-9.38 26.08 0 45.27 16.42Q549-641.85 549-616.77q0 18.54-8.38 32.69-8.39 14.16-30.7 35.23-6.15 5.7-13.65 13.31-7.5 7.62-13.27 15.39-8 11-12 21.23t-4 20.46q0 7.38 3.81 13.81 3.81 6.42 10.19 6.42Z"/></svg>