<svg xmlns="http://www.w3.org/2000/svg" width="48" height="48" viewBox="0 -960 960 960"><path d="M155.385-464.615q-6.539 0-10.962-4.485Q140-473.586 140-480.216t4.423-10.899q4.423-4.27 10.962-4.27h649.23q6.539 0 10.962 4.485Q820-486.414 820-479.784t-4.423 10.899q-4.423 4.27-10.962 4.27h-649.23Zm0 195.384q-6.539 0-10.962-4.485T140-284.831q0-6.63 4.423-10.9Q148.846-300 155.385-300h409.23q6.539 0 10.962 4.485T580-284.399q0 6.63-4.423 10.899-4.423 4.269-10.962 4.269h-409.23Zm0-390.769q-6.539 0-10.962-4.485T140-675.601q0-6.63 4.423-10.899 4.423-4.269 10.962-4.269h649.23q6.539 0 10.962 4.485T820-675.169q0 6.63-4.423 10.9Q811.154-660 804.615-660h-649.23Z"/></svg>