<svg xmlns="http://www.w3.org/2000/svg" width="48" height="48" viewBox="0 -960 960 960"><path d="M215.384-209.231q-6.788 0-11.086-4.309Q200-217.85 200-224.656t4.298-11.075Q208.596-240 215.384-240h49.231v-327.846q0-78.481 49.116-139.279Q362.846-767.923 440-781.462V-800q0-16.667 11.64-28.334Q463.28-840 479.91-840q16.629 0 28.359 11.666Q520-816.667 520-800v18.538q77.154 13.539 126.269 74.337 49.116 60.798 49.116 139.279V-240h49.231q6.788 0 11.086 4.31Q760-231.381 760-224.575t-4.298 11.075q-4.298 4.269-11.086 4.269H215.384ZM480-496.615Zm-.136 392q-26.71 0-45.595-18.981-18.884-18.981-18.884-45.635h129.23q0 26.846-19.02 45.731-19.021 18.885-45.731 18.885ZM295.385-240h369.23v-327.846q0-76.539-54.038-130.577Q556.538-752.461 480-752.461t-130.577 54.038q-54.038 54.038-54.038 130.577V-240ZM163.634-569.846q-7.403 0-11.673-4.769-4.269-4.77-4.038-11.616 2.923-61.769 27.326-116.654 24.403-54.886 65.213-96.731 5.384-5.923 12.5-6.577 7.115-.653 11.269 3.808 4.923 5.231 4.346 12.346-.577 7.116-5.962 11.5-36.153 38.308-58.076 86.308-21.924 48-24.847 103.462-1.23 7.077-4.943 13-3.712 5.923-11.115 5.923Zm633.276 0q-7.602 0-11.487-5.923t-5.115-13q-2.923-55.462-24.462-103.077-21.538-47.616-57.692-85.923-5.656-5.084-6.867-12.235-1.21-7.15 3.713-11.996t12.038-3.808q7.116 1.039 12.5 6.962 40.81 41.844 65.213 96.345 24.403 54.501 27.326 116.27.231 6.846-4.071 11.616-4.302 4.769-11.096 4.769Z"/></svg>