<svg xmlns="http://www.w3.org/2000/svg" width="48" height="48" viewBox="0 96 960 960"><path d="M480.216 637.231q6.63 0 10.899-4.423 4.27-4.423 4.27-10.962V454.461q0-6.538-4.485-10.961-4.486-4.423-11.116-4.423t-10.899 4.423q-4.27 4.423-4.27 10.961v167.385q0 6.539 4.485 10.962 4.486 4.423 11.116 4.423Zm-.301 91.077q9.085 0 15.316-6.146t6.231-15.231q0-9.085-6.146-15.316-6.146-6.23-15.231-6.23t-15.316 6.145q-6.231 6.146-6.231 15.231t6.146 15.316q6.146 6.231 15.231 6.231Zm-284.53 116.923q-6.539 0-10.962-4.485Q180 836.26 180 829.63t4.423-10.899q4.423-4.27 10.962-4.27h66.307V502.308q0-76.616 49.885-139.654 49.884-63.039 130.115-76.962v-28.231q0-16.91 10.496-26.878 10.495-9.968 27.577-9.968 17.081 0 27.812 9.968 10.731 9.968 10.731 26.878v28.231q80.231 13.923 130.231 76.962 50 63.038 50 139.654v312.153h66.076q6.539 0 10.962 4.486Q780 823.432 780 830.062t-4.423 10.9q-4.423 4.269-10.962 4.269h-569.23ZM480 567.154Zm0 393.461q-25.846 0-45.231-18.5-19.384-18.5-19.384-46.115h129.23q0 27.615-18.5 46.115-18.5 18.5-46.115 18.5ZM292.462 814.461h375.307V502.308q0-77.866-54.433-132.933-54.434-55.067-133.755-55.067-77.427 0-132.273 55.067-54.846 55.067-54.846 132.933v312.153Z"/></svg>