<svg xmlns="http://www.w3.org/2000/svg" width="48" height="48" viewBox="0 -960 960 960"><path d="M195.385-210.769q-6.539 0-10.962-4.485Q180-219.74 180-226.37t4.423-10.899q4.423-4.27 10.962-4.27h66.307v-312.153q0-76.616 49.885-139.654 49.884-63.039 130.115-76.962v-28.231q0-16.91 10.496-26.878 10.495-9.968 27.577-9.968 17.081 0 27.812 9.968 10.731 9.968 10.731 26.878v28.231q80.231 13.923 130.231 76.962 50 63.038 50 139.654v312.153h66.076q6.539 0 10.962 4.486Q780-232.568 780-225.938t-4.423 10.9q-4.423 4.269-10.962 4.269h-569.23ZM480-488.846Zm0 393.462q-25.846 0-45.231-18.501-19.384-18.5-19.384-46.115h129.23q0 27.615-18.5 46.115-18.5 18.5-46.115 18.5ZM292.462-241.54h375.307v-312.153q0-77.866-54.496-132.933-54.496-55.067-132.692-55.067t-133.158 55.067q-54.961 55.067-54.961 132.933v312.153Z"/></svg>