<svg xmlns="http://www.w3.org/2000/svg" width="48" height="48" viewBox="0 -960 960 960"><path d="M355.385-300q-6.539 0-10.962-4.485T340-315.6q0-6.631 4.423-10.9t10.962-4.269h273.846L660-300H355.385ZM480-120q-74.7 0-140.4-28.35T225.3-225.3q-48.6-48.6-76.95-114.3Q120-405.3 120-480q0-63.406 21.307-123.165 21.308-59.758 62.385-108.681l-80.154-80.923q-4.384-4.554-4.769-10.816-.385-6.261 4.822-11.415 4.437-4.385 10.577-4.385T145.769-815L815-145.769q3.616 4.734 4 11.175.385 6.44-4.052 10.825-5.515 5.154-11.654 5.154-6.14 0-10.525-5.154l-80.923-79.923q-48.923 41.077-108.681 62.385Q543.406-120 480-120Zm210.385-105.923L225.923-690.385q-36.692 44.77-55.923 98.913Q150.769-537.329 150.769-480q0 137.865 95.683 233.548Q342.135-150.769 480-150.769q57.329 0 111.472-19.231 54.143-19.231 98.913-55.923ZM556.077-556.077Zm-135 135Zm202.758-219.007q4.934 4.993 4.934 11.698 0 6.704-5.154 11.925l-78.769 78.769q-4.184 4.384-11.246 4.769-7.062.385-11.831-4.609-4.769-4.993-4.769-11.73 0-6.738 4.385-11.892l78.769-78.769q4.594-4.385 11.67-4.769 7.077-.385 12.011 4.608ZM294.231-789.385q41.558-25.692 88.971-38.154Q430.614-840 480-840q74.357 0 139.756 28.038 65.398 28.039 114.783 77.423 49.384 49.385 77.423 114.783Q840-554.357 840-480q0 48.797-11.961 94.822-11.962 46.024-35.654 87.409-3.456 5.615-9.805 6.961-6.349 1.347-12.187-2.576-5.838-3.924-6.846-10.27t2.684-11.961q21-38.313 32-79.234 11-40.92 11-85.151 0-137.865-95.683-233.548Q617.865-809.231 480-809.231q-44.231 0-85.651 11-41.421 11-78.964 32.231-5.616 3.692-11.731 3.231-6.116-.462-11.039-5.462t-4.461-11.231q.461-6.231 6.077-9.923Z"/></svg>