<svg xmlns="http://www.w3.org/2000/svg" width="48" height="48" viewBox="0 -960 960 960"><path d="M662.46-211.3q8.23-7.68 8.23-18.69 0-11.01-8.23-19.24-8.23-8.23-19.24-8.23-11.01 0-18.69 8.23-7.68 8.23-7.68 19.24 0 11.01 7.68 18.69 7.68 7.68 18.69 7.68 11.01 0 19.24-7.68Zm82.31 0q8.23-7.68 8.23-18.69 0-11.01-8.23-19.24-8.23-8.23-19.24-8.23-11.01 0-18.69 8.23-7.69 8.23-7.69 19.24 0 11.01 7.69 18.69 7.68 7.68 18.69 7.68 11.01 0 19.24-7.68Zm82.31 0q8.23-7.68 8.23-18.69 0-11.01-8.23-19.24-8.23-8.23-19.24-8.23-11.02 0-18.7 8.23t-7.68 19.24q0 11.01 7.68 18.69 7.68 7.68 18.7 7.68 11.01 0 19.24-7.68ZM725.95-75.62q-64.06 0-109.04-45.64-44.99-45.64-44.99-108.42 0-65.22 44.98-110.11 44.97-44.9 109.55-44.9 63.55 0 108.67 44.9 45.11 44.89 45.11 110.11 0 62.78-45.11 108.42Q790-75.62 725.95-75.62ZM315.38-620h329.24q6.57 0 10.98-4.46 4.4-4.46 4.4-11.11 0-6.66-4.4-10.93-4.41-4.27-10.98-4.27H315.38q-6.57 0-10.98 4.46-4.4 4.46-4.4 11.11 0 6.66 4.4 10.93 4.41 4.27 10.98 4.27Zm-100 460q-22.44 0-38.91-16.47Q160-192.94 160-215.38v-529.24q0-22.44 16.47-38.91Q192.94-800 215.38-800h529.24q22.44 0 38.91 16.47Q800-767.06 800-744.62v234.08q0 12.2-9.46 19.83-9.46 7.63-21.69 4.94-10.85-2.42-21.27-3.63-10.43-1.22-21.5-1.22-21.33 0-42.3 3.94t-40.7 9.76v-4.62q0-5.84-4.77-9.84t-10.62-4H315.38q-6.57 0-10.98 4.45-4.4 4.46-4.4 11.12 0 6.66 4.4 10.93 4.41 4.26 10.98 4.26h294q-39.07 21.08-68.34 53.04-29.27 31.96-47.27 71.58H315.38q-6.57 0-10.98 4.46-4.4 4.46-4.4 11.11 0 6.66 4.4 10.93 4.41 4.27 10.98 4.27h164.85q-4.54 18.38-7.19 37.15-2.66 18.77-2.66 38.16 0 9.27.7 20.6.69 11.32 2.61 22.94 1.69 11.46-5.49 20.92T449.69-160H215.38Z"/></svg>