<svg xmlns="http://www.w3.org/2000/svg" width="48" height="48" viewBox="0 -960 960 960"><path d="M130-760q-6.539 0-10.962-4.485t-4.423-11.116q0-6.63 4.423-10.899 4.423-4.27 10.962-4.27h369.231q6.538 0 10.962 4.486 4.423 4.485 4.423 11.115t-4.423 10.9Q505.769-760 499.231-760H130Zm184.914 480q16.086 0 27.894-12.019 11.807-12.019 11.807-27.981v-60h60q15.962 0 27.981-12.106 12.019-12.107 12.019-28.193 0-16.086-12.019-27.893Q430.577-460 414.615-460h-60v-60q0-15.962-12.106-27.981Q330.403-560 314.317-560t-27.894 12.019Q274.615-535.962 274.615-520v60h-60q-15.961 0-27.98 12.106-12.02 12.107-12.02 28.193 0 16.086 12.02 27.893Q198.654-380 214.615-380h60v60q0 15.962 12.107 27.981Q298.828-280 314.914-280ZM130-160q-23.058 0-39.221-16.163-16.164-16.164-16.164-39.221v-409.232q0-23.057 16.164-39.221Q106.942-680 130-680h369.231q23.058 0 39.221 16.163 16.164 16.164 16.164 39.221v409.232q0 23.057-16.164 39.221Q522.289-160 499.231-160H130Zm0-30.769h369.231q9.231 0 16.923-7.692 7.692-7.693 7.692-16.923v-409.232q0-9.23-7.692-16.923-7.692-7.692-16.923-7.692H130q-9.231 0-16.923 7.692-7.692 7.693-7.692 16.923v409.232q0 9.23 7.692 16.923 7.692 7.692 16.923 7.692Zm632.077-187.765q-4.385-5.304-4.385-11.539 0-6.235 4.385-10.619l65.461-63.923H669q-6.171 0-10.278-4.426t-4.107-10.5q0-6.074 4.385-10.459t10.231-4.385h158.077l-63.923-63.153q-5.154-5.154-5.539-11.001-.385-5.846 4.822-11 4.437-4.384 10.962-4.384 6.524 0 11.985 4.384l81.078 80.308q8.23 9 8.23 19.881t-8.23 19.042l-81.616 81.616q-4.451 5.154-10.995 5.154t-12.005-4.996ZM314.615-420Z"/></svg>