<svg xmlns="http://www.w3.org/2000/svg" width="48" height="48" viewBox="0 -960 960 960"><path d="M330.28-576.92q-6.82-6.99-6.82-17.27 0-10.27 7-17.62 6.99-7.34 17.27-7.34 10.27 0 17.62 7.52 7.34 7.52 7.34 17.79 0 10.28-7.52 17.1-7.52 6.82-17.79 6.82-10.28 0-17.1-7Zm264.62 0q-6.82-6.99-6.82-17.27 0-10.27 6.99-17.62 7-7.34 17.27-7.34 10.28 0 17.62 7.52 7.35 7.52 7.35 17.79 0 10.28-7.52 17.1-7.53 6.82-17.8 6.82t-17.09-7ZM480-120q-116.85 0-198.42-82.8Q200-285.61 200-403.38v-191.16q0-106.75 83.69-176.1Q367.38-840 480-840q107.23 0 193.62 67.43Q760-705.13 760-594.54v417.62q0 10.42-7.87 18.29-7.86 7.86-18.28 7.86h-4.62q-69.85 0-119.54-49.69Q560-250.15 560-320v-18.46q0-7.69-4.85-11.54-4.84-3.85-10.35-3.85T534.26-350q-5.03 3.85-5.03 11.54V-320q0 61.62 33.42 111 33.43 49.38 86.04 73.08 7.23 2.46 5.73 9.19-1.5 6.73-6.96 6.73H480Zm.06-260.85q99.45 0 174.31-59.46t74.86-154.23q0-40.83-15.22-75.45-15.22-34.63-42.09-61.63-72.59 3.21-124.56 52.97-51.98 49.76-51.98 122.03 0 6.58-4.45 10.99-4.46 4.4-11.12 4.4-6.66 0-10.93-4.4-4.26-4.41-4.26-10.99 0-72.55-52.39-122.62-52.38-50.07-125.92-51.61-25.93 26.86-40.73 61.59-14.81 34.72-14.81 74.72 0 94.77 74.92 154.23 74.92 59.46 174.37 59.46Z"/></svg>