<svg xmlns="http://www.w3.org/2000/svg" width="48" height="48" viewBox="0 -960 960 960"><path d="M702.308-193.077q-49.431 0-83.562-34.13-34.131-34.131-34.131-83.562t34.131-83.562q34.131-34.131 83.562-34.131t83.561 34.131Q820-360.2 820-310.769t-34.131 83.562q-34.13 34.13-83.561 34.13ZM473.846-295.384H196.923q-6.539 0-10.962-4.486-4.423-4.485-4.423-11.115t4.423-10.9q4.423-4.269 10.962-4.269h276.923q6.539 0 10.962 4.485 4.423 4.486 4.423 11.116t-4.423 10.899q-4.423 4.27-10.962 4.27ZM257.692-531.538q-49.431 0-83.561-34.131Q140-599.8 140-649.231t34.131-83.562q34.13-34.13 83.561-34.13 49.431 0 83.562 34.13 34.131 34.131 34.131 83.562t-34.131 83.562q-34.131 34.131-83.562 34.131Zm505.385-102.308H486.154q-6.539 0-10.962-4.485-4.423-4.486-4.423-11.116t4.423-10.899q4.423-4.27 10.962-4.27h276.923q6.539 0 10.962 4.486 4.423 4.485 4.423 11.115t-4.423 10.9q-4.423 4.269-10.962 4.269Z"/></svg>