<svg xmlns="http://www.w3.org/2000/svg" width="48" height="48" viewBox="0 -960 960 960"><path d="M385.96-426.69q-30.58-29.85-30.58-74.54 0-44.15 30.58-73.89 30.58-29.73 74.66-29.73 44.07 0 73.42 29.73 29.34 29.74 29.34 73.89 0 44.69-29.34 74.54-29.35 29.84-73.42 29.84-44.08 0-74.66-29.84ZM175.38-200q-23.23 0-39.3-16.08Q120-232.15 120-255.38v-449.24q0-23.23 16.08-39.3Q152.15-760 175.38-760h609.24q23.23 0 39.3 16.08Q840-727.85 840-704.62v484.54q0 18.46-16.96 25.2-16.96 6.73-30.19-6.5l-222.31-224q14-20.47 18.81-37.97 4.8-17.5 4.8-37.88 0-55.85-38.88-95.12-38.89-39.27-95.04-39.27-55.38 0-95.5 39.27-40.11 39.27-40.11 95.12 0 56.38 40.11 95.77 40.12 39.38 95.5 39.38 26.23 0 48.69-8.77 22.46-8.77 41.16-26.77l153 154.47q13.23 13.23 6.5 30.19T684.38-200h-509Z"/></svg>