<svg xmlns="http://www.w3.org/2000/svg" width="48" height="48" viewBox="0 -960 960 960"><path d="M480.497-120q-12.728 0-21.651-8.736-8.923-8.735-8.923-21.572v-124.846H247.769q-17.231 0-25.077-14.461-7.846-14.462 1.615-28.692L369-530.692h-31.616q-17.525 0-25.609-14.846-8.083-14.846 2.148-28.308l142.615-205.001q3.882-5.552 10.626-8.506 6.745-2.955 12.836-2.955t12.836 2.955q6.744 2.954 10.626 8.506l142.615 205.001q10.231 13.462 2.148 28.308-8.084 14.846-24.84 14.846H592l143.693 212.385q9.461 14.23 1.615 28.692-7.846 14.461-25.077 14.461H510.308v125.077q0 12.837-8.542 21.457-8.542 8.62-21.269 8.62ZM254.461-305.923h173.616H345h270-82.077 173.616-452.078Zm0 0h452.078L532.923-561.462H615L480-753.615 345-561.462h83.077L254.461-305.923Z"/></svg>