<svg xmlns="http://www.w3.org/2000/svg" width="48" height="48" viewBox="0 -960 960 960"><path d="M423.42-344.41q4.27-4.42 4.27-10.97v-249.24q0-6.55-4.47-10.97-4.47-4.41-11.11-4.41-6.65 0-10.92 4.41-4.27 4.42-4.27 10.97v249.24q0 6.55 4.47 10.97 4.48 4.41 11.12 4.41 6.64 0 10.91-4.41Zm135.39 0q4.27-4.42 4.27-10.97v-249.24q0-6.55-4.47-10.97-4.48-4.41-11.12-4.41-6.64 0-10.91 4.41-4.27 4.42-4.27 10.97v249.24q0 6.55 4.47 10.97 4.47 4.41 11.11 4.41 6.65 0 10.92-4.41ZM480.4-120q-75.18 0-140.29-28.34-65.12-28.34-114.25-77.42-49.13-49.08-77.49-114.21Q120-405.11 120-480.37q0-74.49 28.34-140.07 28.34-65.57 77.42-114.2 49.08-48.63 114.21-76.99Q405.11-840 480.37-840q74.49 0 140.07 28.34 65.57 28.34 114.2 76.92 48.63 48.58 76.99 114.26Q840-554.81 840-480.4q0 75.18-28.34 140.29-28.34 65.12-76.92 114.07-48.58 48.94-114.26 77.49Q554.81-120 480.4-120Z"/></svg>