<svg xmlns="http://www.w3.org/2000/svg" width="48" height="48" viewBox="0 96 960 960"><path d="M197.077 876q-74.846 0-125.962-51.231Q20 773.539 20 697.923q0-73.308 52-125.962 52-52.653 126.077-52.653 65.615 0 117.192 45.884 51.577 45.885 57.962 116.654h82.538l-90.461-255.077h-49.923q-6.847 0-11.116-4.269Q300 418.231 300 411.385q0-6.847 4.269-11.116Q308.538 396 315.385 396h123.384q6.846 0 11.116 4.269 4.269 4.269 4.269 11.116 0 6.846-4.269 11.115-4.27 4.269-11.116 4.269h-41.23l33.692 92.539h250.461l-73.307-198.693q-2.308-6.923-7.693-10.384-5.384-3.462-12.307-3.462h-69.616q-6.846 0-11.115-4.269t-4.269-11.115q0-6.847 4.269-11.116Q511.923 276 518.769 276h66.693q17.846 0 32.038 9.461 14.192 9.462 20.654 26.847l76 207.769h48.769q74.077 0 125.577 51.384Q940 622.846 940 695.923q0 74.077-51.5 126.308-51.5 52.231-125.577 52.231-68.923 0-119.077-46.847-50.154-46.846-58.308-115H373.231q-6.385 70.462-57.962 116.924Q263.692 876 197.077 876Zm0-30.769q53.384 0 94.654-35.616 41.269-35.615 52.5-97H238.308q-6.847 0-11.116-4.269-4.269-4.269-4.269-11.115t4.269-11.116q4.269-4.269 11.116-4.269h105.923Q333 620.692 291.615 586.154q-41.384-34.539-93.538-34.539-62.154 0-104.73 42.462-42.578 42.462-42.578 103.846 0 61.385 42.462 104.346 42.461 42.962 103.846 42.962Zm292.692-163.385h96q3.231-27.615 21.654-68.692 18.423-41.077 53.808-63.077h-219l47.538 131.769Zm273.154 163.385q61.385 0 103.846-42.962 42.462-42.961 42.462-104.346 0-61.384-42.462-103.846-42.461-42.462-103.846-42.462-9.384 0-19.154.385-9.769.385-18.384 2.692l35.923 99.616q2.461 5.615.154 11.615-2.308 6-9.154 7.923-5.616 1.693-11.116-.731-5.5-2.423-8.192-8.038l-36.846-99.615q-39 19.307-59.269 56.846-20.27 37.538-20.27 75.615 0 61.385 42.462 104.346 42.462 42.962 103.846 42.962Z"/></svg>