<svg xmlns="http://www.w3.org/2000/svg" width="48" height="48" viewBox="0 -960 960 960"><path d="M294.506-170.769h370.725q8.461 0 14.615-4.616Q686-180 688.308-187.692l125.307-374.693q2.308-7.692 0-15.769-2.307-8.077-9.23-12.692L493.846-807.538q-6.154-4.616-13.846-4.616t-13.846 4.616L155.615-590.846q-6.923 4.615-9.23 12.692-2.308 8.077 0 15.769l125.044 374.693q2.308 7.692 8.461 12.307 6.154 4.616 14.616 4.616Zm.032 30.769q-17.961 0-32.557-10.412-14.596-10.413-20.596-27.511L117.077-554.154q-6-16.692-.28-34 5.721-17.308 20.972-28.615l311.308-216.154q14.461-10.231 30.923-10.231 16.462 0 30.923 10.231l311.308 216.154q15.251 11.307 20.972 28.615 5.72 17.308.489 34L718.615-177.923q-6 17.098-20.596 27.511Q683.423-140 666.231-140H294.538ZM480-492.231Z"/></svg>