<svg xmlns="http://www.w3.org/2000/svg" width="48" height="48" viewBox="0 -960 960 960"><path d="M175.384-160q-23.23 0-39.307-16.077T120-215.384v-446.078q0-23.231 16.077-39.307 16.077-16.077 39.307-16.077h127.77l57.307-65.231q7.231-8.692 18.077-13.308Q389.385-800 401.846-800h156.308q12.461 0 23.308 4.615 10.846 4.616 18.077 13.308l57.307 65.231h127.77q23.23 0 39.307 16.077Q840-684.693 840-661.462v446.078q0 23.23-16.077 39.307T784.616-160H495.154v-144.077Q567.462-311 618.462-361t57.154-121.077q.461-6.384-3.539-11.308-4-4.923-10.615-4.923-6.385 0-10.885 4.308t-5.731 9.923q-5.923 63.308-52.884 106Q545-335.385 480-335.385q-64.769 0-112.115-42.576-47.347-42.577-53.731-105.654-.462-5.846-4.846-10.27-4.385-4.423-11-4.423-6.616 0-11.001 4.923-4.384 4.924-3.153 11.308 6.153 71.077 56.654 120.693 50.5 49.615 123.577 57.307V-160H175.384ZM480-455.384q17.769 0 30.346-12.577 12.577-12.577 12.577-30.347v-166.307q0-17.77-12.577-30.347-12.577-12.577-30.346-12.577-18 0-30.577 12.462-12.577 12.462-12.577 30.462v166.307q0 18 12.577 30.462T480-455.384Z"/></svg>