<svg xmlns="http://www.w3.org/2000/svg" width="48" height="48" viewBox="0 -960 960 960"><path d="M480-504.846q-49.846 0-82.616-32.769-32.769-32.77-32.769-82.616 0-50.615 32.769-83 32.77-32.385 82.616-32.385t82.616 32.385q32.769 32.385 32.769 83 0 49.846-32.769 82.616-32.77 32.769-82.616 32.769ZM200-247.692v-25.539q0-26.461 15.154-47.307 15.153-20.847 39.769-32.539 59.308-26.154 115.038-39.615Q425.692-406.154 480-406.154t109.923 13.577q55.616 13.577 114.923 39.5 24.847 11.692 40 32.539Q760-299.692 760-273.231v25.539q0 13.461-9.423 22.885-9.423 9.423-22.885 9.423H232.308q-13.462 0-22.885-9.423Q200-234.231 200-247.692Z"/></svg>