<svg xmlns="http://www.w3.org/2000/svg" width="48" height="48" viewBox="0 -960 960 960"><path d="M397.38-537.62q-32.76-32.76-32.76-83 0-50.23 32.76-82.61 32.77-32.39 82.62-32.39t82.62 32.39q32.76 32.38 32.76 82.61 0 50.24-32.76 83-32.77 32.77-82.62 32.77t-82.62-32.77ZM200-247.69v-25.54q0-26.46 15.15-47.31 15.16-20.84 39.77-32.54 59.31-26.15 115.04-39.61 55.73-13.46 110.04-13.46 54.31 0 109.92 13.57 55.62 13.58 114.93 39.5 24.84 11.7 40 32.54Q760-299.69 760-273.23v25.54q0 13.46-9.42 22.88-9.43 9.43-22.89 9.43H232.31q-13.46 0-22.89-9.43-9.42-9.42-9.42-22.88Zm30.77 1.54h498.46v-27.08q0-15.23-10.27-29.35-10.27-14.11-28.11-23.42-54-26.38-105.47-37.88-51.46-11.5-105.38-11.5-53.92 0-106 11.5T268.92-326q-17.84 9.31-28 23.42-10.15 14.12-10.15 29.35v27.08Zm309.5-313.81q24.35-24.35 24.35-60.27t-24.35-60.27q-24.35-24.35-60.27-24.35t-60.27 24.35q-24.35 24.35-24.35 60.27t24.35 60.27q24.35 24.34 60.27 24.34t60.27-24.34ZM480-620.23Zm0 374.08Z"/></svg>