<svg xmlns="http://www.w3.org/2000/svg" width="48" height="48" viewBox="0 -960 960 960"><path d="M663.385-550.461q-6.539 0-10.962-4.486Q648-559.432 648-566.062t4.423-10.9q4.423-4.269 10.962-4.269h165.846q6.538 0 10.962 4.485 4.423 4.485 4.423 11.116 0 6.63-4.423 10.899-4.424 4.27-10.962 4.27H663.385ZM360-504.846q-49.5 0-82.442-32.942-32.943-32.943-32.943-82.827 0-49.885 32.943-82.443Q310.5-735.616 360-735.616q49.5 0 82.442 32.558 32.943 32.558 32.943 82.443 0 49.884-32.943 82.827Q409.5-504.846 360-504.846ZM107.692-215.384q-11.77 0-19.73-7.962Q80-231.307 80-243.077v-30.154q0-25 14.423-46.577 14.423-21.577 40.5-33.269 62.692-27.615 116.753-40.346 54.06-12.731 108.115-12.731 54.055 0 108.209 12.731t116.846 40.346q26.077 12.692 40.616 33.769Q640-298.231 640-273.231v30.154q0 11.77-7.961 19.731-7.962 7.962-19.731 7.962H107.692Zm3.077-30.77h498.462v-27.077q0-15.23-10.154-29.346-10.154-14.115-28.231-23.423-57.154-26.846-106.682-38.115-49.528-11.27-104.164-11.27t-104.664 11.27Q205.308-352.846 148.923-326q-18.846 9.308-28.5 23.423-9.654 14.116-9.654 29.346v27.077ZM360-535.615q35.923 0 60.269-24.347 24.346-24.346 24.346-60.269T420.269-680.5Q395.923-704.846 360-704.846T299.731-680.5q-24.346 24.346-24.346 60.269t24.346 60.269q24.346 24.347 60.269 24.347Zm0-84.616Zm0 244.846Z"/></svg>