<svg xmlns="http://www.w3.org/2000/svg" width="48" height="48" viewBox="0 -960 960 960"><path d="m646.846-409.307-22.231-22.231q20-24.77 37.27-48.539 17.269-23.769 39.884-60.846l-87.692-82.539Q603-633 600-646.423q-3-13.423 0-28.962l19.077-86.538q3.769-17.539 15.808-27.808Q646.923-800 664-800h88.462q19 0 31.731 12.615 12.73 12.616 12.73 30.846 0 85.077-41.461 178.347Q714-484.923 646.846-409.307ZM207.384-164.384q-18.384 0-33-12.616-14.615-12.615-14.615-31.846v-84.231q0-18.308 10.385-31.077 10.384-12.769 27.692-15.769l73.616-16q14.538-3.769 27.153.731 12.616 4.5 23.385 15.5l83.462 88.769q34.615-17.462 70.961-43.769Q512.769-321 555-356.308L128.846-782.692q-4.385-4.385-4.769-10.231-.385-5.846 4.769-11t11.615-5.154q6.462 0 11.616 5.154l658.308 658.539q4.384 4.384 4.269 10.615-.115 6.231-5.269 11.385-5.154 4.154-11 4.269-5.846.115-11-4.269L576.462-334.077q-97.77 84.693-189.924 127.193-92.154 42.5-179.154 42.5Z"/></svg>