<svg xmlns="http://www.w3.org/2000/svg" width="48" height="48" viewBox="0 -960 960 960"><path d="M798.769-116.231 715-200H579.231q-11.77 0-19.731-7.961-7.962-7.962-7.962-19.731v-135.769L230.769-684v437.846h196.539q9.455 0 16.073 6.71 6.619 6.71 6.619 16.295 0 9.906-6.619 16.527Q436.763-200 427.308-200H143.461q-9.775 0-16.618-6.841Q120-213.683 120-223.457q0-9.774 6.843-16.235 6.843-6.462 16.618-6.462H200v-468.615l-72.308-72.308q-4.385-4.385-4.654-10.731-.269-6.346 4.885-11.5t11-5.154q5.846 0 11 5.154L821-138.461q4.385 4.384 4.654 10.73.269 6.347-4.885 11.5-5.154 5.154-11 5.154t-11-5.154Zm42-113L810-260v-352.308H582.308v134l-30.77-30.769v-106.308q0-11.769 7.962-19.731 7.961-7.961 19.731-7.961h233.846q11.769 0 19.731 7.961 7.961 7.962 7.961 19.731v386.154Zm-509.154-500L300.846-760h483.77q6.538 0 10.961 4.485T800-744.4q0 6.631-4.423 10.9t-10.961 4.269H331.615Zm364.539 360.462Z"/></svg>