<svg xmlns="http://www.w3.org/2000/svg" width="48" height="48" viewBox="0 -960 960 960"><path d="M784.513-504.692q-5.286 0-9.421-4.221-4.135-4.222-5.707-10.702-13.231-105.308-88.27-180.731Q606.077-775.769 500-789q-6.615-.461-10.385-4.822-3.769-4.36-3.769-10.793 0-6.779 4.231-11.197 4.231-4.419 11.385-3.188 118.54 12.481 201.934 95.839 83.395 83.357 96.758 202.853 1.231 7.154-3.546 11.385t-12.095 4.231Zm-165.741 0q-5.21 0-9.876-3.423-4.665-3.423-6.127-8.27-10.769-38.846-38.577-67.423-27.807-28.577-66.653-39.346-4.847-1.461-8.27-5.411-3.423-3.95-3.423-9.557 0-7.493 5-11.878t12.077-2.154q47.803 11.047 82.978 46.023 35.176 34.977 47.638 83.593 1.461 7.846-2.74 12.846-4.2 5-12.027 5Zm131.613 340.077q-101.231 0-206.731-54.616-105.5-54.615-191.5-140.23-86-85.616-140.616-190.731-54.615-105.116-54.615-206.347 0-18.626 12.417-31.044Q181.758-800 200.384-800h88.462q16.987 0 29.071 10.269 12.083 10.269 15.852 27.808l20.846 89.077q2.77 15.538-.884 28.192t-12.995 20.525l-88.659 83.437q59.077 98.384 129.731 168.154 70.654 69.769 165.577 121.615l85.769-89.539q10-11 21.846-15.115t25.615-1.115l75.155 16.769q17.62 3.375 27.848 16.034 10.228 12.658 10.228 30.812v85q0 18.627-12.417 31.044-12.418 12.418-31.044 12.418ZM235.923-568 320-646.154q3.077-3.077 4.231-8.461 1.154-5.385.384-10l-20.692-92.308q-.769-6.154-5-9.231t-10.385-3.077h-90.846q-4.615 0-7.692 3.077t-3.077 7.692q-.769 39.77 12 87.808 12.769 48.038 37 102.654Zm516.385 373.385q4.615 0 7.692-3.077t3.077-7.692v-89.308q0-6.154-3.077-10.385t-9.231-5l-78.384-15.615q-4.616-1.539-8.077-.385-3.462 1.154-7.308 5l-81.308 84.539q41.77 21.307 91.308 31.384 49.539 10.077 85.308 10.539Zm-176.616-41.923ZM235.923-568Z"/></svg>