<svg xmlns="http://www.w3.org/2000/svg" width="48" height="48" viewBox="0 -960 960 960"><path d="m662.923-459-97.154 97.154q-4.384 4.385-10.615 4.769-6.231.385-10.615-4.769-5.154-5.154-5.154-11t5.154-11l96.384-96.385-96.384-97.154q-5.154-4.384-5.154-10.615t5.154-11.385q4.384-4.384 10.23-4.384 5.847 0 11 4.384l97.154 97.154 96.385-97.154q4.384-4.384 10.615-4.384t11.385 4.384q5.154 5.154 5.154 11 0 5.847-5.154 11l-96.385 97.154 96.385 96.385q4.385 4.384 4.769 10.615.385 6.231-4.769 11.385t-11 5.154q-5.846 0-11-5.154L662.923-459ZM255.384-80q-22.692 0-39.038-16.346Q200-112.692 200-135.384v-689.232q0-22.692 16.346-39.038Q232.692-880 255.384-880h369.232q22.692 0 39.038 16.346Q680-847.308 680-824.616V-714q0 6.846-4.269 11.115-4.269 4.27-11.115 4.27-6.847 0-11.116-4.27-4.269-4.269-4.269-11.115v-49.077H230.769v566.154h418.462V-246q0-6.846 4.269-11.115 4.269-4.27 11.116-4.27 6.846 0 11.115 4.27Q680-252.846 680-246v110.616q0 22.692-16.346 39.038Q647.308-80 624.616-80H255.384Z"/></svg>