<svg xmlns="http://www.w3.org/2000/svg" width="48" height="48" viewBox="0 96 960 960"><path d="M347.692 737.693h264.616v-5.154q0-33.539-34.423-51.154-34.423-17.616-97.885-17.616t-97.885 17.616Q347.692 699 347.692 732.539v5.154Zm132.194-150.924q23.96 0 40.46-16.386t16.5-40.346q0-23.96-16.386-40.46t-40.346-16.5q-23.96 0-40.46 16.386t-16.5 40.346q0 23.96 16.386 40.46t40.346 16.5ZM175.384 896q-23.057 0-39.221-16.163Q120 863.673 120 840.616V394.538q0-23 16.163-39.192 16.164-16.192 39.221-16.192h127.77l57.307-65.231q8-8.692 18.278-13.308Q389.016 256 401.846 256h156.308q12.83 0 23.107 4.615 10.278 4.616 18.278 13.308l57.307 65.231h127.77q23 0 39.192 16.192T840 394.538v446.078q0 23.057-16.192 39.221Q807.616 896 784.616 896H175.384Zm609.232-30.769q10.769 0 17.692-6.923t6.923-17.692V394.538q0-10-6.923-17.307-6.923-7.308-17.692-7.308H175.384q-10.769 0-17.692 7.308-6.923 7.307-6.923 17.307v446.078q0 10.769 6.923 17.692t17.692 6.923h609.232Zm-609.232 0q-10.769 0-17.692-6.923t-6.923-17.692V394.538q0-10 6.923-17.307 6.923-7.308 17.692-7.308-10.769 0-17.692 7.308-6.923 7.307-6.923 17.307v446.078q0 10.769 6.923 17.692t17.692 6.923Z"/></svg>