<svg xmlns="http://www.w3.org/2000/svg" width="48" height="48" viewBox="0 -960 960 960"><path d="M335.307-293.692H633.77q10 0 13.615-8.385 3.615-8.384-1.615-14.846l-81.231-106.231q-4.231-6-11.231-6t-11.231 6l-95.539 120.231-59.23-68.231q-5.296-5.231-12.148-4.846-6.852.385-11.083 5.615l-40.21 53.574q-5.021 7.119-1.406 15.119 3.616 8 12.846 8ZM175.384-160q-23.057 0-39.221-16.163Q120-192.327 120-215.384v-446.078q0-23 16.163-39.192 16.164-16.192 39.221-16.192h127.77l57.307-65.231q8-8.692 18.662-13.308Q389.785-800 401.846-800h156.308q12.061 0 22.723 4.615 10.662 4.616 18.662 13.308l57.307 65.231h127.77q23 0 39.192 16.192T840-661.462v446.078q0 23.057-16.192 39.221Q807.616-160 784.616-160H175.384Zm609.232-30.769q10.769 0 17.692-6.923t6.923-17.692v-446.078q0-10-6.923-17.307-6.923-7.308-17.692-7.308H175.384q-10.769 0-17.692 7.308-6.923 7.307-6.923 17.307v446.078q0 10.769 6.923 17.692t17.692 6.923h609.232ZM480-438.538Z"/></svg>