<svg xmlns="http://www.w3.org/2000/svg" width="48" height="48" viewBox="0 -960 960 960"><path d="M255.384-120q-23.23 0-39.307-16.077T200-175.384v-609.232q0-23.23 16.077-39.307T255.384-840h449.232q23.23 0 39.307 16.077T760-784.616v609.232q0 23.23-16.077 39.307T704.616-120H255.384Zm194.154-155.077-55.923-64.308q-4.23-4.461-10.73-4.077-6.5.385-10.731 4.847l-44 57.615q-6 7.231-2.385 14.846 3.615 7.616 13.615 7.616h290.078q8.23 0 12.23-7.616 4-7.615-1-13.846l-79.769-105.846q-4.231-6-10.846-6t-11.615 6l-88.924 110.769Zm51.847-534.154v214.846q0 8 6.615 11.731t13.077.5l44.615-25.769q6.231-4 13.731-4t13.962 4L637-582.154q7.231 3.231 14.346-.5 7.116-3.731 7.116-11.731v-214.846H501.385Z"/></svg>