<svg xmlns="http://www.w3.org/2000/svg" width="48" height="48" viewBox="0 -960 960 960"><path d="M581.308-177.615q8 3 15 2t13-5q5.231-4 8.731-10.5t3.5-14.009v-120.715q0-12.172-7.827-20.089-7.827-7.918-19.866-7.918H367.308q-17.707 0-28.794 10.866-11.087 10.867-13.437 25.211-3.231 14.077 3.192 28.539 6.423 14.461 23.962 21.384l229.077 90.231Zm172.307-327q18.946 0 32.666 13.613Q800-477.389 800-458q0 16.077-9.157 27.856-9.157 11.78-24.458 15.606l-114.077 29.923h-285q-31.231 0-53.116 21.884-21.885 21.885-21.885 53.116 0 21.539 13.154 39 13.154 17.462 33.846 28.308l44.615 17.692h-196.23q-12.038 0-19.865-7.827Q160-240.269 160-252.307v-92.308q0-66.846 46.577-113.423T320-504.615h433.615ZM400-800q49.5 0 84.75 35.25T520-680q0 49.5-35.25 84.75T400-560q-49.5 0-84.75-35.25T280-680q0-49.5 35.25-84.75T400-800Z"/></svg>