<svg xmlns="http://www.w3.org/2000/svg" width="48" height="48" viewBox="0 96 960 960"><path d="M361.846 523.539h53.385q12.532 0 20.92-8.388 8.388-8.387 8.388-20.92v-53.385q0-12.532-8.388-20.92-8.388-8.387-20.92-8.387h-67.693q-6 0-10.5 4.5t-4.5 10.5v163.868q0 5.362 4.616 9.978Q341.769 605 347.462 605q5.692 0 10.038-4.777t4.346-10.377v-66.307Zm0-29.308v-53.385h53.385v53.385h-53.385ZM566.385 605q12.692 0 21-8.714 8.307-8.715 8.307-20.594V440.846q0-12.532-8.307-20.92-8.308-8.387-21-8.387h-63.616q-6.461 0-10.73 4.5-4.27 4.5-4.27 10.5V590q0 6 4.27 10.5 4.269 4.5 10.73 4.5h63.616Zm-49.308-29.308V440.846h49.308v134.846h-49.308Zm161.539-52.153h45.615q5.292 0 9.838-4.393 4.546-4.392 4.546-10.761 0-6.77-4.546-10.462t-9.838-3.692h-45.615v-53.385h45.615q5.292 0 9.838-3.692 4.546-3.692 4.546-10.462 0-6.769-4.546-10.961t-9.838-4.192h-59.923q-6.462 0-10.731 4.5t-4.269 10.5v163.868q0 5.362 4.307 9.978Q657.923 605 664.231 605q5.692 0 10.038-4.777 4.347-4.777 4.347-10.377v-66.307ZM296.923 794.462q-23.058 0-39.221-16.164-16.164-16.163-16.164-39.221V271.384q0-23.057 16.164-39.221Q273.865 216 296.923 216h467.693q23.057 0 39.221 16.163Q820 248.327 820 271.384v467.693q0 23.058-16.163 39.221-16.164 16.164-39.221 16.164H296.923Zm0-30.769h467.693q10.769 0 17.692-6.924 6.923-6.923 6.923-17.692V271.384q0-10.769-6.923-17.692t-17.692-6.923H296.923q-10.769 0-17.692 6.923t-6.923 17.692v467.693q0 10.769 6.923 17.692 6.923 6.924 17.692 6.924ZM195.384 896q-23.057 0-39.221-16.163Q140 863.674 140 840.616V357.538q0-6.577 4.458-10.981 4.458-4.403 11.115-4.403 6.658 0 10.927 4.403 4.269 4.404 4.269 10.981v483.078q0 10.769 6.923 17.692t17.692 6.923h483.078q6.577 0 10.981 4.458t4.404 11.116q0 6.657-4.404 10.926T678.462 896H195.384Zm76.924-649.231v516.924-516.924Z"/></svg>