<svg xmlns="http://www.w3.org/2000/svg" width="48" height="48" viewBox="0 -960 960 960"><path d="M175.384-200q-23.23 0-39.307-16.077T120-255.384v-449.232q0-23.23 16.077-39.307T175.384-760h609.232q23.23 0 39.307 16.077T840-704.616v449.232q0 23.23-16.077 39.307T784.616-200H175.384Zm100.308-161.692q5.923 0 10.385-4.462 4.461-4.461 4.461-11.154v-203.615q0-7.462-4.961-12.423-4.962-4.962-12.654-4.962-3.231 0-7.077 1.116-3.846 1.115-6.846 3.115l-48.231 33.769q-4.692 3.462-6.192 9.539t2.731 11.538q3.461 4.693 9.307 5.423 5.846.731 10.539-1.961l32.923-22.385v180.846q0 6.693 4.461 11.154 4.462 4.462 11.154 4.462Zm132.385 0h113.615q6.462 0 10.808-4.346 4.346-4.347 4.346-10.808 0-6.462-4.346-10.808T521.692-392h-92.307l.769-3.538q14.769-12 30.884-27.27 16.116-15.269 32.962-33.653 17.923-18.462 26.846-35.424 8.923-16.961 8.923-39.884 0-28.923-19.692-47.731-19.692-18.808-50.846-18.808-19.154 0-35.5 7.731t-26.577 20.962q-5.231 6.461-2.616 13.807 2.616 7.346 10.308 10.808 4.462 2.231 9.923.731 5.462-1.5 10.154-5.962 7-8.307 15.769-12.577 8.77-4.269 18.539-4.269 18.769 0 29.538 10.385 10.769 10.384 10.769 26.692 0 16.154-7.307 27.731-7.308 11.577-23.539 27.346-23.077 25.154-38.961 40.038-15.885 14.885-33.577 32.116-4.231 2.461-6.731 8.192t-2.5 10.962q0 9.461 6.231 15.692t14.923 6.231Zm278.231 0q32.154 0 52.961-17.5 20.808-17.5 20.808-49.885 0-25-12.615-39.846-12.616-14.846-34.385-16.846v-1q19.769-3.693 29.269-16.039 9.5-12.346 9.5-33.577 0-28.461-18.807-45.192-18.808-16.731-47.731-16.731-20.077 0-33.654 8.154-13.577 8.154-23.5 19.077-5.231 5.462-3.616 12.154 1.616 6.692 9.077 10.154 3.462 1.231 7.924.346 4.461-.885 7.923-4.346 7-6.769 16.153-10.654 9.154-3.885 19.693-3.885 15.769 0 26.038 9.27 10.269 9.269 10.269 24.269 0 17-12.269 25.692t-31.269 8.692q-6.231 0-8.962 3.962-2.73 3.961-2.73 11.192 0 5.693 3.5 10.539t9.961 4.846q21.308 0 35.654 10 14.346 10 14.346 28.231 0 18-12.654 29.423-12.653 11.423-30.884 11.423-12.539 0-24.423-6-11.885-6-19.885-18.539-2.692-3.692-7.154-5.307-4.461-1.616-8.923-.385-6.461 2.231-9.192 8.962-2.731 6.73.5 12.423 10.231 17.461 27.961 27.192 17.731 9.731 41.116 9.731Z"/></svg>