<svg xmlns="http://www.w3.org/2000/svg" width="48" height="48" viewBox="0 -960 960 960"><path d="M480-230q-118.92-96.85-179.46-192.54Q240-518.23 240-602.31q0-104.54 67.73-171.11Q375.46-840 480-840t172.27 66.58Q720-706.85 720-602.31q0 84.08-60.54 179.77Q598.92-326.85 480-230Zm-.09-305.38q26.94 0 45.82-19.03 18.89-19.02 18.89-45.73 0-26.71-19.03-45.59-19.02-18.89-45.96-18.89-26.71 0-45.48 19.03-18.77 19.02-18.77 45.73 0 26.71 18.91 45.59 18.91 18.89 45.62 18.89ZM240-120v-30.77h480V-120H240Z"/></svg>