<svg xmlns="http://www.w3.org/2000/svg" width="48" height="48" viewBox="0 0 48 48"><path d="M7.95 20.85q-.85 0-1.25-.7t.05-1.4l6.15-10.7q.4-.75 1.175-.75t1.175.75l6.15 10.7q.45.7.05 1.4t-1.25.7Zm6.2 20.2q-2.95 0-5-2.05T7.1 34q0-2.95 2.05-5t5-2.05q2.95 0 4.975 2.05 2.025 2.05 2.025 5t-2.025 5q-2.025 2.05-4.975 2.05Zm0-1.55q2.25 0 3.875-1.6T19.65 34q0-2.3-1.625-3.9t-3.875-1.6q-2.3 0-3.9 1.6T8.65 34q0 2.3 1.6 3.9t3.9 1.6ZM8.2 19.3H20L14.1 9.1Zm20.2 21.75q-.55 0-.95-.4-.4-.4-.4-1v-11.3q0-.6.4-1t.95-.4h11.35q.55 0 .95.4.4.4.4 1v11.3q0 .6-.4 1t-.95.4Zm.2-1.55h11v-11h-11ZM14.1 14.2Zm.05 19.8Zm19.95 0ZM33 13.4l-5.45-5.45q-.2-.2-.2-.5t.2-.55q.2-.2.55-.2.35 0 .55.2l5.45 5.4 5.45-5.4q.2-.25.525-.25t.525.25q.25.2.25.5t-.25.5l-5.45 5.5 5.45 5.5q.25.2.25.5t-.25.5q-.2.25-.525.25t-.525-.25l-5.45-5.4-5.5 5.4q-.2.25-.525.25t-.525-.25q-.25-.2-.25-.5t.25-.5Z"/></svg>