<svg xmlns="http://www.w3.org/2000/svg" width="48" height="48" viewBox="0 -960 960 960"><path d="M263.15-389.15q-13.46 9.23-28.3 1.58Q220-395.22 220-412.62v-134.76q0-17.4 14.85-25.05 14.84-7.65 28.3 1.58L363-503.46q12.46 9.2 12.46 23.56T363-456.54l-99.85 67.39Zm290.35 44.74q-4.27-4.42-4.27-10.97v-249.24q0-6.55 4.47-10.97 4.47-4.41 11.12-4.41 6.64 0 10.91 4.41 4.27 4.42 4.27 10.97v249.24q0 6.55-4.47 10.97-4.47 4.41-11.12 4.41-6.64 0-10.91-4.41Zm160 0q-4.27-4.42-4.27-10.97v-249.24q0-6.55 4.47-10.97 4.47-4.41 11.12-4.41 6.64 0 10.91 4.41 4.27 4.42 4.27 10.97v249.24q0 6.55-4.47 10.97-4.47 4.41-11.12 4.41-6.64 0-10.91-4.41Z"/></svg>