<svg xmlns="http://www.w3.org/2000/svg" width="48" height="48" viewBox="0 -960 960 960"><path d="M155.385-669.461q-6.539 0-10.962-4.486Q140-678.432 140-685.062t4.423-10.9q4.423-4.269 10.962-4.269h406.077q6.538 0 10.961 4.485t4.423 11.116q0 6.63-4.423 10.899-4.423 4.27-10.961 4.27H155.385Zm0 161.923q-6.539 0-10.962-4.486Q140-516.509 140-523.139t4.423-10.9q4.423-4.269 10.962-4.269h406.077q6.538 0 10.961 4.485 4.423 4.486 4.423 11.116t-4.423 10.899q-4.423 4.27-10.961 4.27H155.385Zm0 162.692q-6.539 0-10.962-4.485T140-360.447q0-6.63 4.423-10.899 4.423-4.269 10.962-4.269h242.923q6.538 0 10.961 4.485t4.423 11.115q0 6.63-4.423 10.9-4.423 4.269-10.961 4.269H155.385ZM643-238.461l-90.615-90.616q-5.154-4.384-5.154-10.677 0-6.293 5.154-10.885 5.153-4.592 11-4.707 5.846-.116 11 4.038l78.384 78.923 166.308-166.307q4.654-4.385 10.814-4.385t11.417 4.385q5.154 5.153 5.154 11.115 0 5.962-5.154 11.116l-178 178q-4.923 4.923-10.539 4.923-5.615 0-9.769-4.923Z"/></svg>