<svg xmlns="http://www.w3.org/2000/svg" width="48" height="48" viewBox="0 -960 960 960"><path d="M150.769-669.231q-6.538 0-10.962-4.485-4.423-4.485-4.423-11.115 0-6.631 4.423-10.9Q144.231-700 150.769-700h406.077q6.539 0 10.962 4.485t4.423 11.115q0 6.631-4.423 10.9t-10.962 4.269H150.769Zm0 161.923q-6.538 0-10.962-4.481-4.423-4.481-4.423-11.106 0-5.874 4.423-10.528 4.424-4.654 10.962-4.654h406.077q6.539 0 10.962 4.856 4.423 4.857 4.423 11.116 0 6.259-4.423 10.528t-10.962 4.269H150.769Zm0 162.693q-6.538 0-10.962-4.485-4.423-4.486-4.423-11.116t4.423-10.899q4.424-4.27 10.962-4.27h242.923q6.539 0 10.962 4.485 4.423 4.486 4.423 11.116t-4.423 10.899q-4.423 4.27-10.962 4.27H150.769Zm522.154 171.077q-7.077 4.846-14.769 1.211-7.693-3.634-7.693-12.442v-191.693q0-8.038 7.693-12.057 7.692-4.02 14.769 1.596l136.308 94.692q6.385 4.41 6.385 12.128T809.231-269l-136.308 95.462Z"/></svg>