<svg xmlns="http://www.w3.org/2000/svg" width="48" height="48" viewBox="0 -960 960 960"><path d="M306.445-623.077q-22.984 0-39.33-16.442-16.346-16.443-16.346-38.943v-75.385q0-22.5 16.442-38.942 16.443-16.442 38.943-16.442h347.401q22.984 0 39.33 16.442 16.346 16.442 16.346 38.942v75.385q0 22.5-16.442 38.943-16.443 16.442-38.943 16.442H306.445Zm4.324-30.769h338.462q13 0 22.269-7.731 9.269-7.731 6.962-21.5v-66.154q0-11.923-8.654-20.577-8.654-8.654-20.577-8.654H310.769q-11.923 0-20.577 8.654-8.654 8.654-8.654 20.577v66.154q-2.307 13.769 6.962 21.5t22.269 7.731ZM206.153-150.769q-22.5 0-38.942-16.442t-16.442-38.942V-260h658.462v53.847q0 22.692-16.442 39.038-16.442 16.346-38.942 16.346H206.153Zm-55.384-135.385L262.553-553.69q6.601-15.541 20.515-24.772 13.913-9.23 29.778-9.23h334.308q15.865 0 29.778 9.23 13.914 9.231 20.515 24.772l111.784 267.536H150.769Zm198.462-64.615h40q6.154 0 10.769-4.615 4.615-4.616 4.615-10.77T400-376.923q-4.615-4.615-10.769-4.615h-40q-6.154 0-10.77 4.615-4.615 4.615-4.615 10.769t4.615 10.77q4.616 4.615 10.77 4.615Zm0-70.769h40q6.154 0 10.769-4.616 4.615-4.615 4.615-10.769T400-447.692q-4.615-4.616-10.769-4.616h-40q-6.154 0-10.77 4.616-4.615 4.615-4.615 10.769t4.615 10.769q4.616 4.616 10.77 4.616Zm0-70.77h40q6.154 0 10.769-4.615t4.615-10.769q0-6.154-4.615-10.77-4.615-4.615-10.769-4.615h-40q-6.154 0-10.77 4.615-4.615 4.616-4.615 10.77t4.615 10.769q4.616 4.615 10.77 4.615ZM460-350.769h40q6.154 0 10.769-4.615 4.616-4.616 4.616-10.77t-4.616-10.769q-4.615-4.615-10.769-4.615h-40q-6.154 0-10.769 4.615-4.616 4.615-4.616 10.769t4.616 10.77q4.615 4.615 10.769 4.615Zm0-70.769h40q6.154 0 10.769-4.616 4.616-4.615 4.616-10.769t-4.616-10.769q-4.615-4.616-10.769-4.616h-40q-6.154 0-10.769 4.616-4.616 4.615-4.616 10.769t4.616 10.769q4.615 4.616 10.769 4.616Zm0-70.77h40q6.154 0 10.769-4.615 4.616-4.615 4.616-10.769t-4.616-10.77q-4.615-4.615-10.769-4.615h-40q-6.154 0-10.769 4.615-4.616 4.616-4.616 10.77t4.616 10.769q4.615 4.615 10.769 4.615Zm110.769 141.539h40q6.154 0 10.77-4.615 4.615-4.616 4.615-10.77t-4.615-10.769q-4.616-4.615-10.77-4.615h-40q-6.154 0-10.769 4.615t-4.615 10.769q0 6.154 4.615 10.77 4.615 4.615 10.769 4.615Zm0-70.769h40q6.154 0 10.77-4.616 4.615-4.615 4.615-10.769t-4.615-10.769q-4.616-4.616-10.77-4.616h-40q-6.154 0-10.769 4.616-4.615 4.615-4.615 10.769T560-426.154q4.615 4.616 10.769 4.616Zm0-70.77h40q6.154 0 10.77-4.615 4.615-4.615 4.615-10.769t-4.615-10.77q-4.616-4.615-10.77-4.615h-40q-6.154 0-10.769 4.615-4.615 4.616-4.615 10.77T560-496.923q4.615 4.615 10.769 4.615Z"/></svg>