<svg xmlns="http://www.w3.org/2000/svg" width="48" height="48" viewBox="0 -960 960 960"><path d="M680-579.769v165q0 11-3.884 20.5-3.885 9.5-10.116 15.961l-.154 1.385-281.539-281.539v-126.154q0-6.846 4.27-11.115Q392.846-800 399.692-800t11.116 4.269q4.269 4.269 4.269 11.115v149.462h129.846v-149.462q0-6.846 4.269-11.115 4.27-4.269 11.116-4.269t11.115 4.269q4.27 4.269 4.27 11.115v164.847l-15.385-15.385h64.308q22.692 0 39.038 16.346Q680-602.462 680-579.769ZM439.692-160q-12.231 0-19.961-7.731-7.731-7.73-7.731-19.961v-77.231L296-387q-7.231-7.231-11.616-17.346Q280-414.461 280-425.461v-154.308q0-16.539 9.692-29.039t29.077-16.346v44.769l-230-230Q84.385-814.769 84-821q-.385-6.231 4.77-11.385 5.153-5.154 11-5.154 5.845 0 10.999 5.154l720.308 720.308q4.385 4.385 4.769 10.615.385 6.231-4.769 11.385-4.385 5.154-10.615 5.154-6.231 0-10.616-5.154L590.769-309.154 548-264.923v77.231q0 12.231-7.731 19.961-7.73 7.731-19.961 7.731h-80.616Z"/></svg>