<svg xmlns="http://www.w3.org/2000/svg" width="48" height="48" viewBox="0 96 960 960"><path d="M299.784 675.539q-6.63 0-10.899-4.424-4.27-4.423-4.27-10.961v-27.308h-89.23q-6.539 0-10.962-4.485T180 617.246q0-6.631 4.423-10.9t10.962-4.269h193.846V470.923H206.385q-10.039 0-18.212-7.807Q180 455.31 180 443.769V303.615q0-11.115 7.5-18.634 7.5-7.52 18.654-7.52h78.461v-26.538q0-6.538 4.485-10.962 4.486-4.423 11.116-4.423t10.899 4.423q4.27 4.424 4.27 10.962v26.538h89.23q6.539 0 10.962 4.486Q420 286.432 420 293.062t-4.423 10.9q-4.423 4.269-10.962 4.269H210.769v131.923h182.846q11.214 0 18.8 7.384 7.585 7.385 7.585 19v140.154q0 11.154-7.519 18.654t-18.635 7.5h-78.461v27.308q0 6.538-4.485 10.961-4.486 4.424-11.116 4.424Zm257.878 221.077q-5.662 0-10.277-2-4.616-2-8.847-6.231L426.692 776.539q-4.384-4.385-4.769-10.616-.385-6.231 4.769-11.385 5.154-5.153 11-5.153t11 5.153L558 863.846 780.846 641q4.385-4.385 10.616-4.769 6.23-.385 11.384 4.769T808 652q0 5.846-5.154 11L577.263 888.584q-4.032 4.032-8.986 6.032-4.954 2-10.615 2Z"/></svg>