<svg xmlns="http://www.w3.org/2000/svg" width="48" height="48" viewBox="0 96 960 960"><path d="M788 934.385 102.846 249.231l22-22.001L810 912.385l-22 22Zm35.077-214.923L701.539 597.923v105.616L480 482v-30.615q0-24.231-17.116-41.347-17.115-17.115-41.346-17.115-6.769 0-13.423 1t-13.192 3L294 296h352.154q23.231 0 39.308 16.077 16.077 16.077 16.077 39.307v201.924l121.538-121.539v287.693ZM196.923 856q-23.231 0-39.308-16.077-16.077-16.077-16.077-39.307V351.384q0-20.153 12.616-35.077 12.615-14.923 32-18.769h9L700 802.385v9Q696.154 830 681.231 843q-14.923 13-35.077 13H437.231V744.769q35-3.692 65.769-20.538 30.769-16.846 51.769-45.077l-24.538-24.539q-19.308 26-47.731 40.231-28.423 14.231-60.962 14.231-52.307 0-90.769-34.616-38.461-34.615-41.538-86.153h-36.154q4.615 62.384 47.615 106.23 43 43.847 105.154 50.231V856H196.923Zm166.154-346.538V576q0 24.231 17.115 41.346 17.116 17.116 41.346 17.116 13.308 0 25.731-4.77 12.423-4.769 21.192-14.846L363.077 509.462Z"/></svg>