<svg xmlns="http://www.w3.org/2000/svg" width="48" height="48" viewBox="0 -960 960 960"><path d="M296.711-115.384q-24 0-40.201-16.415-16.202-16.414-16.202-40.413 0-22.865 16.414-39.249 16.414-16.385 40.413-16.385 24 0 40.202 16.597 16.202 16.597 16.202 39.846 0 23.249-16.415 39.634-16.414 16.385-40.413 16.385Zm377.077 0q-23.682 0-39.658-16.415-15.976-16.414-15.976-40.413 0-22.865 16.178-39.249 16.179-16.385 39.846-16.385 23.668 0 40.053 16.597 16.385 16.597 16.385 39.846 0 23.249-16.415 39.634-16.414 16.385-40.413 16.385Zm-512.25-713.847h-55.692q-6.538 0-10.962-4.485-4.423-4.485-4.423-11.115 0-6.631 4.424-10.9Q99.308-860 105.846-860h57.659q8.341 0 15.31 4 6.97 4 9.493 11.461l156.615 330.847h269.539q6.923 0 12.307-3.462 5.385-3.461 9.231-9.615l137.385-243.462q1.692-3.154 5.109-5.615 3.417-2.462 7.593-2.462 9.529 0 13.413 7.462 3.885 7.461.5 14.769L667.319-511.461q-8.857 13.615-22.603 22.423-13.746 8.807-29.019 8.807H327.154l-53.692 100.154q-6.154 9.231-.77 20 5.385 10.769 17.693 10.769h424.846q6.538 0 10.962 4.485 4.423 4.486 4.423 11.116t-4.423 10.899q-4.424 4.27-10.962 4.27H294q-30.74 0-46.562-25.385-15.823-25.385-1.9-51l64.77-116.462-148.77-317.846ZM480-581.692q-10.219 0-15.956-6.237-5.736-6.236-5.736-15.456 0-10.219 5.736-16.34 5.737-6.121 15.956-6.121t15.956 6.121q5.736 6.121 5.736 15.956 0 9.834-5.736 15.956-5.737 6.121-15.956 6.121ZM479.784-700q-6.63 0-10.899-4.423-4.27-4.423-4.27-10.962v-169.23q0-6.539 4.485-10.962Q473.586-900 480.216-900t10.899 4.423q4.27 4.423 4.27 10.962v169.23q0 6.539-4.485 10.962Q486.414-700 479.784-700Z"/></svg>