<svg xmlns="http://www.w3.org/2000/svg" width="48" height="48" viewBox="0 -960 960 960"><path d="M740.38-421.38H311.15q-63 0-107.07-43.54Q160-508.46 160-570.69q0-62.46 44.08-106 44.07-43.54 107.07-43.54 6.08 0 10.73 4.27 4.66 4.27 4.66 11.11 0 6.85-4.66 11.12-4.65 4.27-10.73 4.27-50.3 0-85.34 34.5-35.04 34.5-35.04 84.27 0 49.54 35.04 84.04 35.04 34.5 85.34 34.5h429.23l-150.76-149.7q-5.16-4.38-4.66-11 .5-6.61 4.89-10.23 4.38-4.38 10.61-4.38 6.23 0 10.62 4.38L779.77-457q8.23 8.23 8.23 19.85 0 11.61-8.23 19.84L611.08-250.46q-4.39 4.38-10.73 4.38-6.35 0-10.73-4.38-5.16-4.39-5.16-11 0-6.62 5.16-11l150.76-148.92Z"/></svg>