<svg xmlns="http://www.w3.org/2000/svg" width="48" height="48" viewBox="0 -960 960 960"><path d="m460.615-417.231.462 20.77q-.033 6.222 3.931 9.726 3.963 3.504 9.729 3.504h9.605q5.565 0 9.467-3.504 3.903-3.504 3.883-9.726l1.231-20.77Q516.308-420 532.25-428.74q15.942-8.739 26.904-22.26l18.461 8.462q5 2 9.872.804t7.869-5.89l4.69-8.068q2.8-4.077 1.787-9.098-1.012-5.02-4.674-8.377l-14.928-11.987q7.308-18.872 7.308-38.743 0-19.872-7.308-38.488l14.928-11.218q3.662-4.126 4.674-9.146 1.013-5.02-1.735-9.467l-4.734-7.107q-3.005-4.516-7.877-6.097-4.872-1.58-9.872 1.189l-18.461 7.692q-11.41-13.076-27.244-21.538-15.833-8.462-32.987-11.462l-1.231-21.538q-.099-5.709-3.984-9.47-3.885-3.761-9.536-3.761h-8.975q-5.825 0-9.905 3.761-4.081 3.761-4.215 9.47l-.462 21.538q-17.923 3-33.756 11.462-15.833 8.462-27.244 21.538l-18.461-7.692q-5-2.769-10-1.049-5 1.72-7.8 5.588l-4.631 7.846q-2.031 4.077-1.018 9.097 1.013 5.02 4.675 9.146l14.928 11.218q-8.077 18.872-8.077 38.744t8.077 38.487l-14.928 11.987q-3.662 3.357-4.675 8.377-1.013 5.021 1.018 9.098l4.69 8.068q2.997 4.694 7.869 5.89 4.872 1.196 9.872-.804L399.615-451q10.962 13.521 26.904 22.26 15.942 8.74 34.096 11.509Zm19.227-26.923q-33.688 0-56.496-23.088-22.807-23.088-22.807-56.07 0-33.688 22.735-56.496 22.735-22.807 56.038-22.807t56.496 22.735Q559-557.145 559-523.842t-23.088 56.496q-23.088 23.192-56.07 23.192ZM280-270.461q-57-52-88.5-116.885T160-520.556q0-133.102 93.333-226.273Q346.667-840 480-840q108.077 0 195.346 65.807 87.27 65.808 113.193 169.962l42.935 170.246q2.988 13.293-4.858 23.639T804.539-400H720v144.616q0 22.25-16.567 38.817T664.616-200H560v64.616q0 6.538-4.485 10.961T544.4-120q-6.631 0-10.9-4.423t-4.269-10.961v-67.312q0-12.342 7.961-20.208 7.962-7.865 19.731-7.865h107.693q10.769 0 17.692-6.923t6.923-17.692v-147.693q0-11.769 7.961-19.731 7.962-7.961 19.731-7.961h83.231L759-597.692q-23.231-94.693-101.923-153.116Q578.385-809.231 480-809.231q-120.538 0-204.885 83.586-84.346 83.587-84.346 203.954 0 62.682 25.555 118.172 25.556 55.49 71.599 98.136l22.846 21.768v148.231q0 6.538-4.485 10.961T295.169-120q-6.631 0-10.9-4.423T280-135.384v-135.077Zm215.462-194.154Z"/></svg>