<svg xmlns="http://www.w3.org/2000/svg" width="48" height="48" viewBox="0 -960 960 960"><path d="M160-543.077v-229.231q0-11.769 7.961-19.731Q175.923-800 187.692-800h229.231q11.769 0 19.731 7.961 7.961 7.962 7.961 19.731v229.231q0 11.769-7.961 19.731-7.962 7.961-19.731 7.961H187.692q-11.769 0-19.731-7.961Q160-531.308 160-543.077Zm30.769-3.077h223.077v-223.077H190.769v223.077ZM160-187.692v-229.231q0-11.769 7.961-19.731 7.962-7.961 19.731-7.961h229.231q11.769 0 19.731 7.961 7.961 7.962 7.961 19.731v229.231q0 11.769-7.961 19.731Q428.692-160 416.923-160H187.692q-11.769 0-19.731-7.961Q160-175.923 160-187.692Zm30.769-3.077h223.077v-223.077H190.769v223.077Zm324.616-352.308v-229.231q0-11.769 7.961-19.731Q531.308-800 543.077-800h229.231q11.769 0 19.731 7.961Q800-784.077 800-772.308v229.231q0 11.769-7.961 19.731-7.962 7.961-19.731 7.961H543.077q-11.769 0-19.731-7.961-7.961-7.962-7.961-19.731Zm30.769-3.077h223.077v-223.077H546.154v223.077ZM728.769-160v-71.231H800V-160h-71.231ZM515.385-373.154v-71.461h71.23v71.461h-71.23Zm71.23 70.462v-70.462h71.462v70.462h-71.462Zm-71.23 71.461v-71.461h71.23v71.461h-71.23ZM586.615-160v-71.231h71.462V-160h-71.462Zm71.462-71.231v-71.461h70.692v71.461h-70.692Zm0-141.923v-71.461h70.692v71.461h-70.692Zm70.692 70.462v-70.462H800v70.462h-71.231Z"/></svg>