<svg xmlns="http://www.w3.org/2000/svg" width="48" height="48" viewBox="0 -960 960 960"><path d="M135.169-690.846q-6.631 0-10.9-4.423T120-706.231v-106.077q0-11.769 7.961-19.731Q135.923-840 147.692-840h106.077q6.539 0 10.962 4.485t4.423 11.115q0 6.631-4.423 10.9t-10.962 4.269h-103v103q0 6.539-4.485 10.962t-11.115 4.423ZM147.692-120q-11.769 0-19.731-7.961Q120-135.923 120-147.692v-106.077q0-6.539 4.485-10.962t11.115-4.423q6.631 0 10.9 4.423t4.269 10.962v103h103q6.539 0 10.962 4.485t4.423 11.115q0 6.631-4.423 10.9T253.769-120H147.692Zm558.539 0q-6.539 0-10.962-4.485t-4.423-11.115q0-6.631 4.423-10.9t10.962-4.269h103v-103q0-6.539 4.485-10.962t11.115-4.423q6.631 0 10.9 4.423T840-253.769v106.077q0 11.769-7.961 19.731Q824.077-120 812.308-120H706.231ZM824.4-690.846q-6.631 0-10.9-4.423t-4.269-10.962v-103h-103q-6.539 0-10.962-4.485t-4.423-11.115q0-6.631 4.423-10.9T706.231-840h106.077q11.769 0 19.731 7.961Q840-824.077 840-812.308v106.077q0 6.539-4.485 10.962t-11.115 4.423ZM681.077-228v-49.923H731V-228h-49.923Zm0-99.846v-49.923H731v49.923h-49.923Zm-49.154 49.923v-49.923h49.154v49.923h-49.154ZM582-228v-49.923h49.923V-228H582Zm-49.923-49.923v-49.923H582v49.923h-49.923Zm99.846-99.846v-49.923h49.154v49.923h-49.154ZM582-327.846v-49.923h49.923v49.923H582Zm-49.923-49.923v-49.923H582v49.923h-49.923Zm27.515-154.539q-11.784 0-19.65-7.971-7.865-7.972-7.865-19.756v-144.45q0-11.034 7.972-19.275 7.971-8.24 19.756-8.24h143.68q11.784 0 19.65 8.346Q731-715.307 731-704.272v144.449q0 11.785-7.971 19.65-7.972 7.865-19.757 7.865h-143.68ZM255.515-228q-11.034 0-19.275-8.346-8.24-8.347-8.24-19.382v-144.449q0-11.785 8.346-19.65 8.347-7.865 19.382-7.865h144.449q11.785 0 19.65 7.971 7.865 7.972 7.865 19.756v144.45q0 11.034-7.971 19.275-7.972 8.24-19.756 8.24h-144.45Zm0-304.308q-11.034 0-19.275-7.971-8.24-7.972-8.24-19.756v-144.45q0-11.034 8.346-19.275 8.347-8.24 19.382-8.24h144.449q11.785 0 19.65 8.346 7.865 8.347 7.865 19.382v144.449q0 11.785-7.971 19.65-7.972 7.865-19.756 7.865h-144.45Zm3.254 273.539h138.154v-138.154H258.769v138.154Zm0-304.308h138.154v-138.154H258.769v138.154Zm304.077 0h137.385v-138.154H562.846v138.154Z"/></svg>