<svg xmlns="http://www.w3.org/2000/svg" width="48" height="48" viewBox="0 -960 960 960"><path d="m883.385-235.385-110-110q-3.847-4.736-4.231-11.137-.385-6.401 4.197-11.786 5.728-4.615 12.035-4.615 6.306 0 10.922 4.615L910-254.846q9 8.371 9 19.531 0 11.161-9 19.392L796.308-102.231q-4.737 4.616-11.138 5-6.401.385-11.401-5.183t-5-11.602q0-6.033 4.616-11.369l110-110ZM392.492-160q-12.146 0-20.011-7.961-7.866-7.962-7.866-19.731V-240H175.384q-23.057 0-39.221-16.163Q120-272.327 120-295.384v-449.232q0-23.057 16.163-39.221Q152.327-800 175.384-800h609.232q23.057 0 39.221 16.163Q840-767.673 840-744.616v247.77q0 6.538-4.485 10.961t-11.115 4.423q-6.631 0-10.9-4.423t-4.269-10.961v-247.77q0-9.23-7.692-16.923-7.693-7.692-16.923-7.692H175.384q-9.23 0-16.923 7.692-7.692 7.693-7.692 16.923v449.232q0 9.23 7.692 16.923 7.693 7.692 16.923 7.692h492.154q6.539 0 10.962 4.485t4.423 11.115q0 6.631-4.423 10.9T667.538-240h-62.922v52.308q0 11.769-7.962 19.731Q588.692-160 576.923-160H392.492Zm71.893-349v109.231q0 6.538 4.485 10.961t11.115 4.423q6.63 0 10.9-4.423 4.269-4.423 4.269-10.961V-509h109.231q6.538 0 10.961-4.485t4.423-11.116q0-6.63-4.423-10.899-4.423-4.269-10.961-4.269H495.154V-649q0-6.539-4.485-10.962t-11.116-4.423q-6.63 0-10.899 4.423-4.269 4.423-4.269 10.962v109.231H355.154q-6.539 0-10.962 4.485t-4.423 11.115q0 6.631 4.423 10.9T355.154-509h109.231ZM150.769-270.769v-498.462 498.462Z"/></svg>