<svg xmlns="http://www.w3.org/2000/svg" width="48" height="48" viewBox="0 -960 960 960"><path d="M396.923-194.307q-10.231 0-18.962-7.231-8.73-7.231-8.73-20.461v-98.232h-11.539q-97.538 1.539-167.615-61.884Q120-445.538 120-540q0-92.077 63.961-155.654Q247.923-759.231 340-759.231h93.769l-79.077-79.308q-4.154-4.384-4.654-10.615t4.654-11.385q4.385-5.154 10.231-5.154t11 5.154l98 97.231q4.231 4.231 6.231 8.846 2 4.616 2 10.616t-2 10.615q-2 4.615-6.231 8.846l-98 97.231q-4.385 4.385-10.615 4.769-6.231.385-10.616-4.769-5.154-5.154-5.038-11 .115-5.846 5.038-11l79.077-79.308H340q-78.385 0-133.808 55.039Q150.769-618.385 150.769-540q0 81.231 59.885 135.231 59.884 54 142.423 54H400v120.385l120.615-120.385h99.616q79.154 0 134.461-55.039Q810-460.846 810-540.231q0-79.154-55.423-134.077T620-729.231q-6.846 0-11.115-4.269-4.27-4.269-4.27-11.116 0-6.846 4.27-11.115Q613.154-760 620-760q91.846 0 156.308 63.961 64.461 63.962 64.461 155.808 0 91.308-64.346 155.77Q712.077-320 620.231-320h-86.154L416.384-202.538q-4.23 4.231-9.346 6.231-5.115 2-10.115 2Z"/></svg>