<svg xmlns="http://www.w3.org/2000/svg" width="48" height="48" viewBox="0 96 960 960"><path d="m243.077 776-75.923 75.924q-13.231 13.23-30.193 6.199Q120 851.092 120 832.462V271.384q0-23 16.163-39.192Q152.327 216 175.384 216h609.232q23 0 39.192 16.192T840 271.384v218.462h-30.769V271.384q0-10.769-6.923-17.692t-17.692-6.923H175.384q-10.769 0-17.692 6.923t-6.923 17.692v529.231l55.384-55.384h412.155V776H243.077Zm-92.308-30.769v55.384-553.846 498.462ZM761.385 776h-14.036q-12.041 0-19.772-7.865-7.731-7.866-7.731-19.827V613.692q0-9.654 6.417-15.981 6.417-6.326 16.204-6.326h25.658q11.491 0 17.683 8.769t3.5 19.692l-27.846 105.385h44q11.373 0 17.417 8.846 6.044 8.846 2.583 19.077l-45.077 136.154q-1.923 7.923-10.462 6.876-8.538-1.047-8.538-9.568V776Z"/></svg>