<svg xmlns="http://www.w3.org/2000/svg" width="48" height="48" viewBox="0 -960 960 960"><path d="M524-80q-75.539 0-141.731-28.538-66.192-28.539-115.692-78.039t-78.039-115.692Q160-368.461 160-444q0-103.539 54.038-190.693Q268.077-721.847 361-766.462q14.693-7.308 29.077 0 14.385 7.308 14.692 22.769 3 82.616 35.808 157.193 32.808 74.577 91.962 133.731 59.154 58.384 133.846 91.692 74.692 33.308 157.308 36.308 15.461.307 22.269 16.076 6.808 15.77-.5 31.231-44.615 91.923-131.654 144.693Q626.769-79.999 524-79.999Z"/></svg>