<svg xmlns="http://www.w3.org/2000/svg" width="48" height="48" viewBox="0 -960 960 960"><path d="M175.384-120q-22.442 0-38.913-16.471Q120-152.942 120-175.384v-444.847q0-25.846 17.692-45.808Q155.384-686 180-695.539l397.154-160.769q6.385-2.462 11.978.088 5.594 2.549 7.637 7.989 2.462 6.385-.115 11.654-2.577 5.269-7.961 7.961L219.847-680h564.769q22.442 0 38.913 16.471Q840-647.058 840-624.616v449.232q0 22.442-16.471 38.913Q807.058-120 784.616-120H175.384Zm-24.615-373.846h518.462v-49.42q0-6.657 4.458-10.926 4.458-4.27 11.115-4.27 6.658 0 10.927 4.404Q700-549.654 700-543.077v49.231h109.231v-130.77q0-10.769-6.923-17.692t-17.692-6.923H175.384q-10.769 0-17.692 6.923t-6.923 17.692v130.77Zm163.116 267.769q34.577 0 58.73-24.423 24.154-24.424 24.154-59 0-34.577-24.423-58.731-24.424-24.154-59-24.154-34.577 0-58.731 24.424-24.154 24.424-24.154 59t24.424 58.73q24.424 24.154 59 24.154Z"/></svg>