<svg xmlns="http://www.w3.org/2000/svg" width="48" height="48" viewBox="0 -960 960 960"><path d="M415.308-293.461q17.692 0 30.23-12.077 12.539-12.077 12.539-29.77 0-17.692-12.597-30.23-12.598-12.539-30.29-12.539t-29.711 12.597q-12.018 12.598-12.018 30.29t12.077 29.71q12.077 12.019 29.77 12.019Zm-279.924-21.924V-680q0-65 65.423-92.885 65.424-27.884 210.731-27.884 20.847 0 47.077.615 26.231.615 41.154 1.077-14.308 27.692-18.423 63.962-4.115 36.269-.731 67.423H166.154v194.23H658q2.923-7.153 16.077-5.461 13.154 1.692 21.308 1.692v163.385q0 42.846-30.5 78.346Q634.385-200 580-200l49.769 33.77q8.231 5.23 5.116 14.961-3.116 9.731-13.346 9.731H209.23q-10.23 0-13.346-9.731Q192.769-161 201-166.23L250.769-200q-54.385 0-84.885-36.269-30.5-36.269-30.5-79.116Zm569.231-229.23q-66.846 0-113.423-46.577t-46.577-113.423q0-66.847 46.577-113.424 46.577-46.577 113.423-46.577 66.847 0 113.424 46.577 46.577 46.577 46.577 113.424 0 66.846-46.577 113.423t-113.424 46.577Zm5.374-143.154q5.703 0 9.55-4.331 3.846-4.331 3.846-9.773v-86.946q0-5.443-4.066-9.774-4.066-4.33-10-4.33-5.319 0-9.55 4.33-4.23 4.331-4.23 9.774v86.946q0 5.442 4.373 9.773 4.374 4.331 10.077 4.331Zm-.527 78.231q8.061 0 14.492-6.431 6.431-6.431 6.431-14.493 0-8.061-6.431-14.107-6.431-6.046-14.492-6.046-8.062 0-14.108 6.046-6.046 6.046-6.046 14.107 0 8.062 6.046 14.493 6.046 6.431 14.108 6.431Z"/></svg>