<svg xmlns="http://www.w3.org/2000/svg" width="48" height="48" viewBox="0 -960 960 960"><path d="M135.692-438.769 320-623.077v-121.539q0-22.5 16.442-38.942T375.384-800h209.232q22.5 0 38.942 16.442T640-744.616v121.539l183.308 184.308H135.692ZM175.384-200q-22.5 0-38.942-16.442T120-255.384V-408h720v152.616q0 22.5-16.442 38.942T784.616-200H175.384Zm237.693-105.538h133.846q5.744 0 9.41-3.657Q560-312.851 560-318.58q0-4.958-3.667-9.035-3.666-4.077-9.41-4.077H413.077q-5.744 0-9.41 4.041-3.667 4.041-3.667 9 0 5.728 3.667 9.42 3.666 3.693 9.41 3.693Z"/></svg>