<svg xmlns="http://www.w3.org/2000/svg" width="48" height="48" viewBox="0 -960 960 960"><path d="m734.462-386.308-33.923-127-30 111.308q-.231 1.692-1.577 3.269-1.347 1.577-2.808 2.808l-52-52.769L582-569.462q-2.231-8.153 1.577-13.192 3.808-5.038 12.192-5.038 4.923 0 9.231 3.077 4.308 3.076 6.308 8l37.384 140.153 35.154-138.461q1.231-5.154 5.769-8.962 4.539-3.807 9.924-3.807 5.923 0 10.192 3.807 4.269 3.808 6.269 8.962l35.616 138.461 35.923-139.923q2-4.923 6.307-8.115 4.308-3.192 9.231-3.192 8.385 0 12.577 5.038 4.192 5.039 1.962 13.192l-48.077 183.154q-1.231 6.154-6.385 10.077t-11.538 3.923q-6.385 0-11.154-3.923-4.77-3.923-6-10.077Zm-474.77 3.616-29.846-69.846h-68v65.461q0 6.154-4.308 10.462-4.307 4.307-10.461 4.307t-10.462-4.307q-4.307-4.308-4.307-10.462V-560q0-12.231 7.73-19.962 7.731-7.73 19.962-7.73h89.385q23.769 0 39.346 15.577 15.577 15.576 15.577 38.576v26.078q0 17.692-11.616 32.423-11.615 14.73-33.23 19.038l28.615 64.231q2.692 8.384-1 13.923-3.692 5.538-12.308 5.538-4.692 0-9.269-2.961-4.577-2.962-5.808-7.423Zm-97.846-100.154h87.539q9.23 0 16.923-7.692Q274-498.231 274-507.461v-26.078q0-9.23-7.692-16.923-7.693-7.692-16.923-7.692h-87.539v75.308ZM834.769-83.692 120.692-796.54l22.231-22.23L856-105.692l-21.231 22ZM358.615-391.308l50.231-146.154 22.846 22.847L416-462.846h68.231l28 28.769H406.615l-16.923 49.462q-2 5.692-6.807 9-4.808 3.307-10.731 3.307-7.385 0-11.577-5.423t-1.962-13.577Z"/></svg>