<svg xmlns="http://www.w3.org/2000/svg" width="48" height="48" viewBox="0 0 48 48"><path d="M14.8 40.05q-1.4-.05-2.625-.725Q10.95 38.65 9.85 37.4 8 35.35 7 32.35T6 26.1q0-3.75 1.4-7.05t3.85-5.75q2.45-2.45 5.725-3.875Q20.25 8 24 8q3.75 0 7.025 1.425 3.275 1.425 5.7 3.875 2.425 2.45 3.85 5.725Q42 22.3 42 26.05q0 3.2-1.025 6.2t-2.825 5.1q-1.15 1.35-2.4 2.025-1.25.675-2.65.675-.7 0-1.375-.175T30.4 39.4L27.6 38q-.85-.45-1.775-.65-.925-.2-1.875-.2t-1.85.2q-.9.2-1.7.65l-2.8 1.4q-.7.35-1.375.525-.675.175-1.425.125Zm.05-1.55q.5 0 1.025-.125Q16.4 38.25 16.9 38l2.8-1.4q1-.5 2.05-.75 1.05-.25 2.2-.25 1.15 0 2.225.25 1.075.25 2.075.75L31.1 38q.5.25 1 .375t1 .125q1 0 1.975-.5.975-.5 1.925-1.55 1.65-1.9 2.55-4.625.9-2.725.9-5.725 0-6.95-4.775-11.75T24 9.55q-6.9 0-11.675 4.85T7.55 26.25q0 3 .95 5.7t2.6 4.55q.95 1.05 1.85 1.525.9.475 1.9.475ZM24 24Zm-9.4-.55q-.4 0-.625-.375-.225-.375-.075-.775 1.2-3.2 3.95-5.125Q20.6 15.25 24 15.25q3.4 0 6.125 1.95t3.925 5.1q.15.4-.025.775t-.625.375q-.3 0-.525-.175-.225-.175-.325-.475-.25-1.05-.875-1.925T30.25 19.25l-5.65 7.2q-.2.25-.5.3-.3.05-.5-.1-.3-.15-.375-.475-.075-.325.125-.575l5.75-7.3q-1.15-.7-2.45-1.125-1.3-.425-2.65-.425-2.9 0-5.3 1.65t-3.35 4.4q-.1.3-.3.475-.2.175-.45.175Z"/></svg>