<svg xmlns="http://www.w3.org/2000/svg" width="48" height="48" viewBox="0 96 960 960"><path d="M101.538 816q-11.884 0-21.327-9.442-9.442-9.443-9.442-21.327V366.769q0-11.885 9.442-21.327Q89.654 336 101.538 336H520q11.885 0 21.327 9.442 9.443 9.442 9.443 21.327v418.462q0 11.885-9.443 21.327Q531.885 816 520 816H101.538Zm602.862 0q-6.631 0-10.9-4.423t-4.269-10.961V351.384q0-6.538 4.485-10.961T704.831 336q6.631 0 10.9 4.423T720 351.384v449.232q0 6.538-4.485 10.961T704.4 816Zm169.23 0q-6.63 0-10.899-4.423-4.269-4.423-4.269-10.961V351.384q0-6.538 4.485-10.961T874.062 336q6.63 0 10.9 4.423 4.269 4.423 4.269 10.961v449.232q0 6.538-4.485 10.961T873.63 816Zm-772.092-64.308q45.924-30.461 98.962-47.615 53.039-17.154 110.269-17.154 57.231 0 110.27 17.154 53.038 17.154 98.961 47.615V366.769H101.538v384.923Zm209.399-137.769q-40.88 0-69.485-28.438-28.606-28.438-28.606-69.317 0-40.88 28.438-69.486 28.438-28.605 69.318-28.605 40.879 0 69.485 28.438 28.605 28.438 28.605 69.317 0 40.88-28.438 69.486-28.438 28.605-69.317 28.605Z"/></svg>