<svg xmlns="http://www.w3.org/2000/svg" width="48" height="48" viewBox="0 -960 960 960"><path d="M371.923-579.231q5.769 2.231 11.5 1.116 5.731-1.116 8.731-6.116l68.692-111.692-50.538-83.385q-9.693-16.154-29.116-16.154-19.423 0-29.115 16.154l-75.385 125.385q-3 5.769-1.5 11.5 1.5 5.73 7.269 8.73l89.462 54.462Zm340.77 237.693-67.924-111.924q-3-5-1.5-11.115t7.27-9.115L742-527.154q5.77-3 11.885-1.385 6.115 1.616 8.346 6.616L809-444.077q8.693 14.692 9.962 32.731 1.269 18.038-6.962 32.731-8.461 16.923-25.269 27-16.808 10.077-35.961 10.077h-38.077ZM590.154-129.846l-99.923-99.923Q486-234 486-240t4.231-10.231l99.923-99.923q7-7 16.115-3.115 9.116 3.884 9.116 13.115v32.462h160.769l-48.769 98.308q-9.462 16.923-25.769 27-16.308 10.077-35.462 10.077h-50.769v32.461q0 9.231-9.116 13.116-9.115 3.884-16.115-3.116Zm-302.539-42.461q-16.154 0-30.346-8.577t-20.654-23.27q-6.461-13.692-6.346-28.5.115-14.807 7.577-27.5l28.615-47.538h131.616q6 0 10.115 4.115 4.116 4.116 4.116 10.116v106.154q0 6.769-4.116 10.884-4.115 4.116-10.115 4.116H287.615ZM204-268.615l-55-110q-8.231-14.923-7.347-32.731.885-17.808 10.347-32.731l12.923-22.385-27-16.615q-8.231-5-7.116-14.346 1.116-9.346 10.346-12.116l136.693-34.307q6-2 11.5 1.5t7.5 9.5l33.538 136.923q1 4.231-.5 7.846-1.5 3.616-4.615 6.116-3.115 2.5-7.231 3-4.115.5-8.884-1.731l-28-16.846L204-268.615Zm441.923-293.693-136.692-34.308Q500-599.385 498.5-608.731t7.5-14.346l28-16.616-105.769-175.692h119.461q17.923 0 33.347 8.962 15.423 8.961 24.884 23.884l44.308 73.923 26.231-16.846q4-3 8.5-2.5t7.615 3.116q3.116 2.615 5 7 1.885 4.384.885 8.615l-33.539 135.923q-2 6-7.5 9.5t-11.5 1.5Z"/></svg>