<svg xmlns="http://www.w3.org/2000/svg" width="48" height="48" viewBox="0 0 48 48"><path d="M5.95 23.95q0-3.45 1.3-6.6 1.3-3.15 3.65-5.7.2-.3.55-.325.35-.025.6.175.25.25.2.625-.05.375-.3.625-2.15 2.3-3.3 5.175T7.5 23.9q0 3.15 1.175 5.975Q9.85 32.7 11.95 35.05q.25.3.325.675.075.375-.175.625t-.625.2q-.375-.05-.575-.3-2.35-2.55-3.65-5.7-1.3-3.15-1.3-6.6ZM19 34.75q-.75 0-1.25-.5t-.5-1.25q0-.75.5-1.25t1.25-.5q.75 0 1.25.5t.5 1.25q0 .75-.5 1.25t-1.25.5Zm8.95-10q-.35 0-.55-.2-.2-.2-.2-.55v-3.7L24 22.15q-.3.2-.6.125-.3-.075-.45-.425-.15-.25-.075-.55.075-.3.375-.45L26.4 19l-3.15-1.85q-.35-.15-.4-.45-.05-.3.1-.6.15-.3.45-.375.3-.075.6.125l3.2 1.85V14q0-.35.2-.55.2-.2.55-.2.35 0 .55.2.2.2.2.55v3.7l3.2-1.85q.3-.2.6-.125.3.075.45.375.15.3.075.6t-.325.45L29.5 19l3.2 1.85q.3.15.35.45.05.3-.1.55-.15.35-.45.425-.3.075-.6-.125l-3.2-1.85V24q0 .35-.2.55-.2.2-.55.2Zm14.05-.8q0 3.45-1.3 6.6-1.3 3.15-3.6 5.7-.25.25-.6.3-.35.05-.6-.2t-.2-.625q.05-.375.25-.625 2.2-2.3 3.35-5.175t1.15-6.025q0-3.1-1.175-5.95T36 12.75q-.25-.25-.3-.625-.05-.375.2-.625.25-.2.6-.175.35.025.6.325 2.3 2.55 3.6 5.7 1.3 3.15 1.3 6.6Z"/></svg>