<svg xmlns="http://www.w3.org/2000/svg" width="48" height="48" viewBox="0 -960 960 960"><path d="M355.385-506.077h249.23q6.577 0 10.981-4.458T620-521.65q0-6.658-4.404-10.927-4.404-4.269-10.981-4.269h-249.23q-6.577 0-10.981 4.458T340-521.273q0 6.658 4.404 10.927 4.404 4.269 10.981 4.269ZM175.384-240q-23.057 0-39.221-16.163Q120-272.327 120-295.384v-449.232q0-23.057 16.163-39.221Q152.327-800 175.384-800h609.232q23.057 0 39.221 16.163Q840-767.673 840-744.616v449.232q0 23.057-16.163 39.221Q807.673-240 784.616-240H595.385v52.308q0 11.961-7.866 19.827Q579.654-160 567.693-160H392.307q-11.961 0-19.826-7.865-7.866-7.866-7.866-19.827V-240H175.384Zm0-30.769h609.232q9.23 0 16.923-7.692 7.692-7.693 7.692-16.923v-449.232q0-9.23-7.692-16.923-7.693-7.692-16.923-7.692H175.384q-9.23 0-16.923 7.692-7.692 7.693-7.692 16.923v449.232q0 9.23 7.692 16.923 7.693 7.692 16.923 7.692Zm-24.615 0v-498.462 498.462Z"/></svg>