<svg xmlns="http://www.w3.org/2000/svg" width="48" height="48" viewBox="0 -960 960 960"><path d="M175.384-240q-6.538 0-10.961-4.485T160-255.6q0-6.631 4.423-10.9t10.961-4.269h609.232q6.538 0 10.961 4.485T800-255.169q0 6.631-4.423 10.9T784.616-240H175.384Zm0-150.077q-6.538 0-10.961-4.485T160-405.677q0-6.631 4.423-10.9t10.961-4.269h609.232q6.538 0 10.961 4.485T800-405.246q0 6.631-4.423 10.9t-10.961 4.269H175.384Zm0-149.077q-6.538 0-10.961-4.485T160-554.754q0-6.631 4.423-10.9t10.961-4.269h609.232q6.538 0 10.961 4.485T800-554.323q0 6.631-4.423 10.9t-10.961 4.269H175.384Zm0-150.077q-6.538 0-10.961-4.485T160-704.831q0-6.631 4.423-10.9T175.384-720h609.232q6.538 0 10.961 4.485T800-704.4q0 6.631-4.423 10.9t-10.961 4.269H175.384Z"/></svg>