<svg xmlns="http://www.w3.org/2000/svg" width="48" height="48" viewBox="0 -960 960 960"><path d="M418.77-327.69H308.31q-6.99 0-11.38-4.43-4.39-4.42-4.39-11.07 0-6.66 4.39-10.96 4.39-4.31 11.38-4.31h109.84v-64.23h-75.12q-8.26 0-13.34-4.69-5.07-4.7-5.07-12.62 0-7.92 5.07-13 5.08-5.08 13.34-5.08h75.12v-63.69H308.31q-6.99 0-11.38-4.42-4.39-4.43-4.39-11.08t4.39-10.96q4.39-4.31 11.38-4.31h110.23q13.84 0 22.11 8.42t8.27 20.97v166.07q0 12.55-8.42 20.97-8.42 8.42-21.73 8.42Zm135 0q-17.16 0-29.43-12.27-12.26-12.26-12.26-29.42v-141.47q0-17.16 12.26-29.42 12.27-12.27 29.43-12.27H626q17.16 0 29.43 12.27 12.26 12.26 12.26 29.42v141.47q0 17.16-12.26 29.42-12.27 12.27-29.43 12.27h-72.23Zm-1.69-30.77h75.61q4.62 0 6.93-2.31 2.3-2.31 2.3-6.92v-144.85q0-4.61-2.3-6.92-2.31-2.31-6.93-2.31h-75.61q-4.62 0-6.93 2.31-2.3 2.31-2.3 6.92v144.85q0 4.61 2.3 6.92 2.31 2.31 6.93 2.31ZM355.27-144.92q-58.19-24.93-101.81-68.54-43.61-43.62-68.54-101.81Q160-373.46 160-440q0-6.6 4.44-10.99 4.45-4.39 11.12-4.39 6.67 0 10.94 4.39t4.27 10.99q0 120.74 84.42 204.99 84.43 84.24 204.81 84.24t204.81-84.24q84.42-84.25 84.42-204.99 0-120.74-83.08-204.99-83.07-84.24-203.46-84.24h-22.77l58.93 58.92q4.38 4.39 4.77 11 .38 6.62-4.38 11-5.55 5.16-11.39 5.16-5.85 0-10.23-5.16l-78.08-78.84q-8.23-8.23-8.23-19.08 0-10.85 8.23-19.85l79.84-78.3q4.16-4.16 10.5-4.54 6.35-.39 10.85 3.77 4.58 4.92 4.19 10.88-.38 5.96-4.54 10.89L457-760h23q66.54 0 124.73 24.92 58.19 24.93 101.81 68.54 43.61 43.62 68.54 101.81Q800-506.54 800-440t-24.92 124.73q-24.93 58.19-68.54 101.81-43.62 43.61-101.81 68.54Q546.54-120 480-120t-124.73-24.92Z"/></svg>