<svg xmlns="http://www.w3.org/2000/svg" width="48" height="48" viewBox="0 -960 960 960"><path d="M840-438.85v276.93q0 18.23-11.85 30.07Q816.31-120 798.85-120H521.92q-18.23 0-30.07-11.85Q480-143.69 480-161.92v-276.93q0-17.46 11.85-29.3Q503.69-480 521.92-480h276.93q17.46 0 29.3 11.85Q840-456.31 840-438.85ZM510.77-150.77h298.46v-298.46L510.77-150.77ZM480-769.23q-120.38 0-204.81 84.42-84.42 84.43-84.42 204.81 0 88.69 46.96 159.04Q284.69-250.62 360-216.77v-118.61q0-6.85 4.27-11.12t11.11-4.27q6.85 0 11.12 4.27t4.27 11.12v147.69q0 12.23-7.73 19.96T363.08-160h-147.7q-6.84 0-11.11-4.27T200-175.38q0-6.85 4.27-11.12t11.11-4.27h129.47q-81.47-39.54-133.16-116.61Q160-384.46 160-480q0-66.54 25.04-124.73t68.54-101.69q43.5-43.5 101.69-68.54Q413.46-800 480-800q106.85 0 188.42 61.35Q750-677.31 782.46-580.69q2.46 5.84-.46 11.34t-9.15 7.58q-6.23 2.08-11.47-1.23-5.23-3.31-7.69-9.15-29-85.85-103.54-141.47-74.53-55.61-170.15-55.61Z"/></svg>