<svg xmlns="http://www.w3.org/2000/svg" width="48" height="48" viewBox="0 -960 960 960"><path d="M295.615-160q-23.058 0-39.221-16.163-16.163-16.164-16.163-39.221v-518.462h-24.847q-6.577 0-10.98-4.458Q200-742.763 200-749.42t4.404-10.926q4.403-4.27 10.98-4.27h138.77q0-11.461 8.25-18.807 8.25-7.347 19.442-7.347h196.308q11.192 0 19.442 7.481t8.25 18.673h138.77q6.577 0 10.98 4.459Q760-755.699 760-749.042t-4.404 10.927q-4.403 4.269-10.98 4.269h-24.847v518.462q0 23.057-16.163 39.221Q687.443-160 664.385-160h-368.77ZM271-733.846v518.462q0 10.769 7.308 17.692 7.307 6.923 17.307 6.923h368.77q10 0 17.307-6.923Q689-204.615 689-215.384v-518.462H271Zm0 0v518.462q0 10.769 7.308 17.692 7.307 6.923 17.307 6.923H271v-543.077Zm193.615 175.769v186q0 6.577 4.458 10.981 4.459 4.404 11.116 4.404t10.926-4.404q4.27-4.404 4.27-10.981v-186l80.538 82q5.154 5.154 11.115 5.654 5.962.5 11.116-4.654t5.154-11q0-5.846-5.154-11L499.462-596q-8.231-9-19.462-9t-19.462 9l-98.692 98.923q-5.154 5.154-5.038 11 .115 5.846 5.153 11 5.039 5.154 11.001 4.654 5.961-.5 11.115-5.654l80.538-82Z"/></svg>