<svg xmlns="http://www.w3.org/2000/svg" width="48" height="48" viewBox="0 -960 960 960"><path d="M150.77-784.62v271.16l130.61-109.08q15.47-13.46 36.43-12.96t36.42 14.96l69.15 64.46q7.7 6.93 17.7 6.54 10-.38 16.92-7.31l99.62-99.38q15.46-15.46 36.92-16.46t37.92 12.46l176.77 147.77v-272.16q0-10.76-6.92-17.69-6.93-6.92-17.69-6.92H175.38q-10.76 0-17.69 6.92-6.92 6.93-6.92 17.69ZM234.31-200h-61.23q-6.58 0-10.98-4.46-4.41-4.46-4.41-11.11 0-6.66 4.41-10.93 4.4-4.27 10.98-4.27h152.46q6.58 0 10.98 4.46t4.4 11.11q0 6.66-4.4 10.93T325.54-200h-60.46v64.62q0 6.57-4.46 10.98-4.46 4.4-11.12 4.4-6.65 0-10.92-4.4-4.27-4.41-4.27-10.98V-200Zm230.31-135.38H324.08q-6.58 0-10.98-4.46-4.41-4.46-4.41-11.12 0-6.66 4.41-10.92 4.4-4.27 10.98-4.27h311.07q6.58 0 10.98 4.45 4.41 4.46 4.41 11.12 0 6.66-4.41 10.93-4.4 4.27-10.98 4.27H495.38v200q0 6.57-4.45 10.98-4.46 4.4-11.12 4.4-6.66 0-10.93-4.4-4.26-4.41-4.26-10.98v-200ZM694.92-200h-61.46q-6.58 0-10.98-4.46t-4.4-11.11q0-6.66 4.4-10.93t10.98-4.27h153.46q6.58 0 10.98 4.46 4.41 4.46 4.41 11.11 0 6.66-4.41 10.93-4.4 4.27-10.98 4.27h-61.23v64.62q0 6.57-4.46 10.98-4.45 4.4-11.11 4.4-6.66 0-10.93-4.4-4.27-4.41-4.27-10.98V-200ZM175.38-335.38q-23.05 0-39.22-16.17Q120-367.71 120-390.77v-393.85q0-23.05 16.16-39.22Q152.33-840 175.38-840h609.24q23.05 0 39.22 16.16Q840-807.67 840-784.62v393.85q0 23.06-16.16 39.22-16.17 16.17-39.22 16.17h-14.08q-6.58 0-10.98-4.41-4.41-4.4-4.41-10.98 0-6.85 3.5-12.27t11.89-3.11h14.08q10.76 0 17.69-6.93 6.92-6.92 6.92-17.69v-82.15L612.69-636.54q-7.69-6.15-16.92-5.77-9.23.39-16.15 7.31l-99.39 99.38q-16.23 16.24-38.31 16.85-22.07.62-38.54-14.85l-70.15-64.46q-7.69-6.92-16.92-6.92t-16.16 6.15L150.77-472.92v82.15q0 10.77 6.92 17.69 6.93 6.93 17.69 6.93h13.31q6.58 0 10.98 4.4 4.41 4.4 4.41 10.98 0 6.85-3.5 12.27t-11.89 3.12h-13.31ZM480-809.23Z"/></svg>