<svg xmlns="http://www.w3.org/2000/svg" width="48" height="48" viewBox="0 -960 960 960"><path d="M387.692-120q-11.769 0-19.731-8.024Q360-136.049 360-147.912v-29.011q-100.385-39.692-170.193-118.846Q120-374.923 120-480q0-74.7 28.339-140.4 28.34-65.7 76.922-114.3 48.582-48.6 114.257-76.95Q405.194-840 479.866-840q74.673 0 140.41 28.35t114.365 76.95q48.627 48.6 76.993 114.3Q840-554.7 840-480q0 105.077-69.807 184.231Q700.385-216.615 600-176.923v29.011q0 11.863-7.961 19.888Q584.077-120 572.308-120H387.692Zm-12.307-359.769h209.23v-312.077q-25.961-9.077-52.115-13.231-26.154-4.154-52.308-4.154t-52.5 4.154q-26.346 4.154-52.307 13.06v312.248Zm-224.616 0h193.846v-300.616q-88.769 40.693-141.307 121.546-52.539 80.853-52.539 179.07Zm464.616 0h193.846q0-98-52.539-178.962-52.538-80.961-141.307-121.654v300.616Z"/></svg>