<svg xmlns="http://www.w3.org/2000/svg" width="48" height="48" viewBox="0 -960 960 960"><path d="M433.923-200q-22.442 0-38.913-16.471-16.472-16.471-16.472-38.913v-92.154q0-22.443 16.472-38.914 16.471-16.471 38.913-16.471h92.154q22.442 0 38.913 16.471 16.472 16.471 16.472 38.914v92.154q0 22.442-16.472 38.913Q548.519-200 526.077-200h-92.154Zm0-30.769h92.154q10 0 17.308-6.923 7.307-6.923 7.307-17.692v-92.154q0-10-7.307-17.308-7.308-7.308-17.308-7.308h-92.154q-10 0-17.308 7.308-7.307 7.308-7.307 17.308v92.154q0 10.769 7.307 17.692 7.308 6.923 17.308 6.923ZM110.769-487.077q-4.963 3.385-11.02 2.539-6.057-.847-10.21-5.462-4.155-5.385-3.364-11.421.79-6.037 6.286-9.81l354.616-264.846q8.082-5.231 16.496-7.846 8.414-2.616 16.427-2.616t16.427 2.616q8.414 2.615 16.496 7.846L661.846-665v-61.923q0-13.91 10.002-23.494Q681.851-760 695.041-760q13.959 0 23.459 9.583 9.5 9.584 9.5 23.494v110.461l140.539 105.231q5.325 3.773 6.086 9.81.76 6.036-3.394 11.421-4.154 4.615-10.211 5.462-6.057.846-11.02-2.539L494.615-751.154q-6.154-4.615-14.615-4.615t-14.615 4.615L110.769-487.077ZM480-301.461Z"/></svg>