<svg xmlns="http://www.w3.org/2000/svg" width="48" height="48" viewBox="0 -960 960 960"><path d="M320-140q-6.846 0-11.115-4.269-4.27-4.269-4.27-11.116v-209.692q0-6.154-4.615-11.154t-10.769-6.538q-80.231-11-134.731-72.192Q100-516.154 100-600q0-91.539 64.231-155.769Q228.461-820 320-820q83.846 0 145.039 54.115 61.192 54.116 72.192 135.116 1.538 6.154 6.538 10.769t11.154 4.615h237.231l-84.385-85.153q-5.154-4.385-5.154-10.616t5.154-11.385q4.385-5.153 10.231-5.153t11 5.153l103.077 103.077q4.231 4.231 6.616 8.847Q841.077-606 841.077-600t-2.384 10.615q-2.385 4.616-6.616 8.847L729-477.461q-5.154 5.153-11.385 5.153-6.23 0-10.615-5.153-5.154-5.154-4.769-11 .384-5.847 5.538-11.001l84.385-85.153H557.462q-17.693 0-33.116-12.193-15.423-12.192-18.423-30.653-9.538-69-62.077-115.385Q391.308-789.231 320-789.231q-78.077 0-133.654 55.577T130.769-600q0 71.308 45.5 124.115 45.5 52.808 116.039 62.346 19.154 3 31.115 17.308 11.962 14.308 11.962 33.462v207.384q0 6.847-4.27 11.116Q326.846-140 320-140Z"/></svg>