<svg xmlns="http://www.w3.org/2000/svg" width="48" height="48" viewBox="0 -960 960 960"><path d="M175.384-200q-23.23 0-39.307-16.192T120-255.384v-449.232q0-23 16.077-39.192T175.384-760h195.232q11.23 0 21.576 4.615 10.347 4.616 18.347 11.846l53.538 54.308h320.539q23 0 39.192 16.192Q840-656.846 840-633.846v378.462q0 23-16.192 39.192T784.616-200H175.384Zm137.385-193.231-45.23-45.231q-4.385-4.384-11.001-4.769-6.615-.385-11 4.769-5.153 4.385-5.153 10.616t5.153 11.384l48 48.001q8.231 8.23 19.462 8.23t19.462-8.23l132.769-132.77q4.384-4.384 4.769-11.115.385-6.731-4.769-11.116-5.154-5.154-11.116-5.154-5.961 0-11.115 5.154L312.769-393.231ZM640-455.462l-53.769-53.769q-4.385-4.385-10.231-4.385t-10.231 4.385q-4.384 4.385-4.384 10.616 0 6.23 4.384 10.615l53 53.769L565-380.462q-4.385 4.385-4 10.231.385 5.846 4.769 10.231 4.385 4.385 10.616 4.385 6.23 0 10.615-4.385l53-53 53.769 53.769q4.385 4.385 10.616 4 6.23-.384 10.615-4.769t4.385-10.615q0-6.231-4.385-10.616l-53.769-53L715-488q4.385-4.385 4.385-10.615 0-6.231-4.385-10.616t-10.615-4.385q-6.231 0-10.616 4.385L640-455.462Z"/></svg>