<svg xmlns="http://www.w3.org/2000/svg" width="48" height="48" viewBox="0 -960 960 960"><path d="M480-322.615q65.154 0 111-46.231 45.846-46.231 45.846-110.616 0-65.153-45.846-111-45.846-45.846-111-45.846t-111 45.846q-45.846 45.847-45.846 111 0 64.385 45.846 110.616 45.846 46.231 111 46.231Zm13.923-161.154 65.923 63q4.462 4.231 4.962 10.692.5 6.462-4.731 10.923-4.231 4.231-10.192 4.731-5.962.5-10.423-4.5l-68.308-65.385q-4.231-4.23-6.346-8.961Q462.692-478 462.692-484v-98.154q0-6.692 4.462-11.154 4.461-4.461 11.154-4.461 6.692 0 11.154 4.461 4.461 4.462 4.461 11.154v98.385ZM480-126.307q-5 0-9.885-1-4.884-1-9.884-3-120.539-45.462-190.385-153.501Q200-391.846 200-519.154v-174.462q0-17.461 10.231-32.192 10.23-14.731 25.692-20.961l224.615-83.154q10.231-4 19.462-4t19.462 4l224.615 83.154q15.462 6.23 25.692 20.961Q760-711.077 760-693.616v174.462q0 127.308-69.846 235.346-69.846 108.039-190.385 153.501-5 2-9.884 3-4.885 1-9.885 1Z"/></svg>