<svg xmlns="http://www.w3.org/2000/svg" width="48" height="48" viewBox="0 -960 960 960"><path d="M580-52.77q-7.09 0-11.238-4.457-4.147-4.459-4.147-11.116t4.404-10.926q4.404-4.27 10.981-4.27 120.742 0 204.602-83.859 83.859-83.86 83.859-204.602 0-6.577 4.459-10.981 4.458-4.404 11.115-4.404t10.927 4.404q4.269 4.404 4.269 10.981 0 66.538-25.039 124.678-25.038 58.139-68.153 101.331-43.116 43.191-101.308 68.206Q646.538-52.769 580-52.769Zm0-116.922q-7.09 0-11.238-4.458-4.147-4.459-4.147-11.116t4.404-10.926q4.404-4.27 10.981-4.27 71.538 0 121.538-50t50-121.538q0-6.577 4.459-10.981 4.458-4.404 11.115-4.404t10.927 4.404q4.269 4.404 4.269 10.981 0 84.615-58.846 143.462Q664.615-169.692 580-169.692Zm-334.973 73.77q-10.078 0-19.822-3.347-9.744-3.346-16.974-10.577L53.615-264.461q-7.23-7.231-10.577-16.737-3.346-9.506-3.346-19.782 0-10.02 3.314-19.28 3.315-9.259 10.61-16.894l122.538-122.538q14.692-14.693 35.961-14.693 21.27 0 35.962 14.693l65.538 64.769L373.692-455l-64.769-64.769q-14.692-15.111-14.692-36.44 0-21.329 14.692-36.022l49.615-49.615q15.139-14.693 36.185-14.693 21.046 0 35.739 14.693l64.769 64.769 60.846-60.846-64.769-64.769q-14.693-15.139-14.693-36.57 0-21.43 14.693-36.123l122.538-122.538q7.539-7.462 16.577-11.193 9.039-3.73 19.116-3.73T669.077-910q9.462 2.846 17.692 11.077l154.616 154.615q7.331 6.983 10.627 17.061 3.296 10.079 3.296 20.215 0 10.032-3.462 19.609-3.461 9.577-10.692 16.808L718.615-548.077Q701-530.461 682.269-530.461q-18.73 0-36.346-17.616l-64.769-64.769L520.308-552l64.769 64.769q14.692 15.139 14.577 36.569-.115 21.431-14.808 36.124l-48.615 48.615q-15.139 14.692-36.57 15.077-21.43.385-36.123-14.308l-64.769-64.769-60.077 60.077 64.77 65.538q14.692 14.693 14.692 35.962 0 21.269-14.692 35.961L280.923-109.846q-7.635 7.294-16.894 10.609-9.26 3.314-19.002 3.314ZM232-130.309q5.385 5.385 13.077 5.385t13.077-5.385l50.153-49.384-183.846-183.846-49.384 50.154q-5.385 5.384-5.385 13.076 0 7.693 5.385 13.077L232-130.308Zm101.615-75.461L383-255.923q5.385-5.385 5.385-13.077T383-282.077L226.077-439q-5.385-5.385-13.077-5.385T199.923-439l-50.154 49.385 183.846 183.846Zm335.308-363.77q5.385 5.385 13.077 5.385t13.077-5.385l50.154-49.384L561.385-802.77 512-752.615q-5.385 5.384-5.385 13.076 0 7.693 5.385 13.077l156.923 156.923Zm102.385-74.692 49.384-50.154q5.385-4.615 5.385-12.692t-5.385-13.462L663.769-877.462q-5.384-5.384-13.461-5.384t-12.692 5.384l-50.154 49.385 183.846 183.846Z"/></svg>