<svg xmlns="http://www.w3.org/2000/svg" width="48" height="48" viewBox="0 96 960 960"><path d="M215.384 896q-22.25 0-38.817-16.567T160 840.616V311.384q0-22.25 16.567-38.817T215.384 256h436.462q6.155 0 11.733 2.592t9.498 6.177l118.154 118.154q3.585 3.92 6.177 9.498Q800 397.999 800 404.154v253L561.384 896h-346Zm264.2-141.154q30.019 0 51.448-21.013 21.43-21.013 21.43-51.032 0-30.019-21.014-51.448-21.013-21.43-51.032-21.43-30.019 0-51.448 21.013-21.43 21.014-21.43 51.033 0 30.018 21.014 51.448 21.013 21.429 51.032 21.429Zm-184.277-279h240.138q12.132 0 19.998-8.336 7.865-8.337 7.865-19.356v-56.847q0-11.769-7.962-19.73-7.961-7.962-19.73-7.962H295.478q-12.132 0-19.997 7.962-7.866 7.961-7.866 19.73v56.847q0 11.019 7.962 19.356 7.961 8.336 19.73 8.336Zm325.676 497.077q-6.598 0-10.714-4.269-4.115-4.269-4.115-10.731v-.652q0-.907 4-10.656l199.385-199.384 22.307 21.538-199.24 200.002q-1.375 1.383-10.73 4.152h-.893Zm235.325-227.846-21.539-22.308 32.654-33.423q5.423-4.654 8.769-4.654 3.347 0 8.577 4.462l3.924 4.692q5.23 4.462 5.23 9.039t-5.192 9.769l-32.423 32.423Z"/></svg>