<svg xmlns="http://www.w3.org/2000/svg" width="48" height="48" viewBox="0 -960 960 960"><path d="M256.154-160q-19.462 0-35.852-12.879-16.39-12.88-21.995-31.275-25-89.077-40.388-148.073-15.389-58.996-23.672-99.682-8.284-40.686-11.265-69.939Q120-551.101 120-580q0-75.273 52.363-127.637Q224.727-760 300-760h220q27-36 63.5-58t76.5-22q8.333 0 14.167 5.874Q680-828.252 680-819.86q0 2.014-.731 3.783-.73 1.769-1.192 4.462-4.769 12.538-9.423 28.923-4.654 16.384-9.731 45.538L776.077-620h36.231q11.788 0 19.74 7.952 7.952 7.952 7.952 19.74v161.616q0 9.66-5.115 17.06-5.116 7.401-14.346 9.632l-85.772 28.759-52.536 175.318q-6.046 17.779-20.186 28.851T628.846-160h-53.462q-22.25 0-38.817-16.567T520-215.384V-240H360v24.616q0 22.25-16.567 38.817T304.616-160h-48.462ZM640-529.231q12.385 0 21.577-9.192 9.192-9.192 9.192-21.577 0-12.385-9.192-21.577-9.192-9.192-21.577-9.192-12.385 0-21.577 9.192-9.192 9.192-9.192 21.577 0 12.385 9.192 21.577 9.192 9.192 21.577 9.192Zm-135.385-100q6.558 0 10.972-4.471Q520-638.174 520-644.818q0-6.644-4.413-10.913Q511.173-660 504.615-660h-169.23q-6.558 0-10.972 4.472Q320-651.057 320-644.413t4.413 10.913q4.414 4.269 10.972 4.269h169.23Z"/></svg>