<svg xmlns="http://www.w3.org/2000/svg" width="48" height="48" viewBox="0 -960 960 960"><path d="M255.384-120q-22.25 0-38.817-16.567T200-175.384v-138.462h30.769v138.462q0 10.769 6.923 17.692t17.692 6.923h449.232q10.769 0 17.692-6.923t6.923-17.692v-138.462H760v138.462q0 22.25-16.567 38.817T704.616-120H255.384ZM200-784.616q0-22.25 16.567-38.817T255.384-840h311.385q12.017 0 21.97 4.615 9.953 4.616 17.953 11.846l136.847 136.847q7.23 8 11.846 17.953 4.615 9.953 4.615 21.97v160.615h-30.769v-169.384H601.448q-10.89 0-19.131-8.248-8.24-8.248-8.24-19.137v-126.308H255.384q-10.769 0-17.692 6.923t-6.923 17.692v298.462H200v-298.462Zm681.539 400.001H78.462q-6.539 0-10.962-4.485-4.423-4.486-4.423-11.116t4.423-10.899q4.423-4.27 10.962-4.27h803.077q6.538 0 10.961 4.485 4.423 4.486 4.423 11.116t-4.423 10.899q-4.423 4.27-10.961 4.27ZM480-486.154Zm0 172.308Z"/></svg>