<svg xmlns="http://www.w3.org/2000/svg" width="48" height="48" viewBox="0 -960 960 960"><path d="M195.384-107.692v-95.385q0-13.212 9.549-22.76 9.548-9.548 22.759-9.548H280V-400h-52.308q-13.211 0-22.759-9.548-9.549-9.548-9.549-22.76v-95.384q0-13.212 9.549-22.76Q214.481-560 227.692-560H280v-164.615h-52.308q-13.211 0-22.759-9.548-9.549-9.548-9.549-22.76v-95.385q0-13.211 9.549-22.76 9.548-9.548 22.759-9.548h135.385q13.212 0 22.76 9.548 9.548 9.549 9.548 22.76v95.385q0 13.212-9.548 22.76-9.548 9.548-22.76 9.548h-52.308V-560h52.308q13.212 0 22.76 9.548 9.548 9.548 9.548 22.76v32.307h209.23v-32.307q0-13.212 9.548-22.76 9.548-9.548 22.76-9.548h135.385q13.211 0 22.76 9.548 9.548 9.548 9.548 22.76v95.384q0 13.212-9.548 22.76-9.549 9.548-22.76 9.548H636.923q-13.212 0-22.76-9.548-9.548-9.548-9.548-22.76v-32.307h-209.23v32.307q0 13.212-9.548 22.76-9.548 9.548-22.76 9.548h-52.308v164.615h52.308q13.212 0 22.76 9.548 9.548 9.548 9.548 22.76v95.385q0 13.211-9.548 22.76-9.548 9.548-22.76 9.548H227.692q-13.211 0-22.759-9.549-9.549-9.548-9.549-22.759Z"/></svg>