<svg xmlns="http://www.w3.org/2000/svg" width="48" height="48" viewBox="0 -960 960 960"><path d="M167.69-260.88v-441.86q0-14.55 12.35-22.98 12.34-8.43 26.58-2.43L638.23-543q7.11 3.59 9.05 9.37 1.95 5.78-.82 11.47-2.77 5.68-8.08 8.31-5.3 2.62-13.15-.3l-426.77-179.7v168l106 25.39q8 2.17 12 7.97 4 5.81 4 12.7t-4.5 12.6q-4.5 5.7-12.5 7.42l-105 24.39v167.76l239.16-100.69q7.07-2.92 12.72.01 5.65 2.92 8.16 8.39 2.81 4.76.74 11.04-2.06 6.28-9.93 9.87L206.62-235.69q-14.24 6.77-26.58-1.4-12.35-8.17-12.35-23.79Zm399.46 80.48q-45.61-45.01-45.61-110.54 0-64.36 45.67-109.79 45.66-45.42 109.76-45.42 64.11 0 109.72 45.29 45.62 45.3 45.62 110.32 0 65.36-45.67 110.26-45.67 44.9-109.77 44.9T567.15-180.4Zm123.7-116.74v-98.32q0-5.85-4.47-10.46-4.46-4.62-10.92-4.62t-11.04 4.92q-4.57 4.91-4.57 11.47v99.84q0 4.46 2 9.85 2 5.38 6.23 9.61l65.38 65.39q4.25 3.69 11.05 4.08 6.8.38 11.64-4.58 4.85-4.96 4.73-11.66-.11-6.69-5.34-11.15l-64.69-64.37ZM397.92-481.23Z"/></svg>