<svg xmlns="http://www.w3.org/2000/svg" width="48" height="48" viewBox="0 -960 960 960"><path d="M455.154-541.461h80.231v31.23q0 5.25 4.115 6.741 4.115 1.49 8.365-2.76l40.266-40.265q4.331-4.331 4.331-10.513 0-6.182-4.231-10.049l-40.36-40.36q-4.256-4.256-8.371-2.765-4.115 1.49-4.115 6.74v31.231h-80.231q-41.411 0-69.859 28.449-28.449 28.449-28.449 69.859v69.231q0 6.577 4.458 10.98 4.458 4.404 11.116 4.404 6.657 0 10.926-4.404 4.269-4.403 4.269-10.98v-69.231q0-28.415 19.562-47.977 19.561-19.561 47.977-19.561Zm-369 359.923q-6.577 0-10.981-4.458t-4.404-11.116q0-6.657 4.404-10.926t10.98-4.269h787.693q6.577 0 10.981 4.458t4.404 11.115q0 6.657-4.404 10.927-4.404 4.269-10.981 4.269H86.154Zm89.23-80q-23.057 0-39.221-16.164Q120-293.865 120-316.923v-409.231q0-23.058 16.163-39.221 16.164-16.164 39.221-16.164h609.232q23.057 0 39.221 16.164Q840-749.212 840-726.154v409.231q0 23.058-16.163 39.221-16.164 16.164-39.221 16.164H175.384Zm0-30.77h609.232q9.23 0 16.923-7.692 7.692-7.692 7.692-16.923v-409.231q0-9.231-7.692-16.923-7.693-7.692-16.923-7.692H175.384q-9.23 0-16.923 7.692-7.692 7.692-7.692 16.923v409.231q0 9.231 7.692 16.923 7.693 7.692 16.923 7.692Zm-24.615 0v-458.461 458.461Z"/></svg>