<svg xmlns="http://www.w3.org/2000/svg" width="48" height="48" viewBox="0 0 48 48"><path d="M8.75 38q-1.15 0-1.95-.8T6 35.25v-22.5q0-1.15.8-1.95t1.95-.8h30.5q1.15 0 1.95.8t.8 1.95v22.5q0 1.15-.8 1.95t-1.95.8Zm26.65-7.15h-7.1q-.3 0-.525-.225-.225-.225-.225-.525 0-.3.225-.525.225-.225.525-.225h7.1q.3 0 .525.225.225.225.225.575 0 .3-.225.5t-.525.2Zm0-6.15h-7.1q-.3 0-.525-.225-.225-.225-.225-.575t.225-.55q.225-.2.525-.2h7.1q.3 0 .525.225.225.225.225.575 0 .3-.225.525-.225.225-.525.225ZM7.55 21.55v13.7q0 .45.375.825.375.375.825.375h30.5q.45 0 .825-.375.375-.375.375-.825v-16.8H28.3q-.3 0-.525-.225-.225-.225-.225-.525 0-.35.225-.55.225-.2.525-.2h12.15v-4.2q0-.45-.375-.825-.375-.375-.825-.375h-16v8.6q0 .55-.4.975-.4.425-1 .425Z"/></svg>