<svg xmlns="http://www.w3.org/2000/svg" width="48" height="48" viewBox="0 96 960 960"><path d="M522.154 821.923 232.538 532.308q-8-8-12.846-19.577-4.846-11.577-4.846-22.577 0-11 4.846-22.192 4.846-11.193 12.846-19.193l122.154-122.692q8-7.231 19.577-12.193 11.577-4.961 22.577-4.961 11 0 22.577 4.961Q431 318.846 439 326.077l289.616 290.384q8 8 12.461 19.193 4.462 11.192 4.462 22.192t-4.462 22.577Q736.616 692 728.616 700L605.692 821.923q-7.23 8-18.807 12.962-11.577 4.961-22.577 4.961-11 0-22.577-4.961-11.577-4.962-19.577-12.962Zm24.461-19.769q6.924 6.923 17.693 6.923 10.769 0 17.692-6.923l125.846-126.616q6.923-6.923 6.923-17.692t-6.923-17.692L414.538 346.615q-6.923-6.923-17.692-6.923t-17.692 6.923L252.538 472.462q-6.923 6.923-6.923 17.692t6.923 17.692l294.077 294.308Zm-67.924 214.076q-88.703 0-167.466-33.076-78.764-33.077-138.148-90.615Q113.692 835 78.423 757.731q-35.27-77.269-38.193-165.885-.23-6.615 3.94-10.615 4.169-4 10.445-4 6.282 0 11.218 4.269T71 593.385q6.385 163.307 123.923 276.807 117.538 113.5 281.923 113.654l-139-138.23q-4.385-4.385-4.654-11.116-.269-6.731 4.885-11.5t11.5-4.769q6.346 0 10.731 5.154l158.384 157.846q11.077 11.846 7.8 21.989-3.278 10.15-17.877 11.78-8.461 1-15.538 1.12-7.077.11-14.386.11Zm426.694-438.999q-6.282 0-11.218-4.654T889 560.308Q882.615 397 765.808 283.385 649 169.769 484.616 168.615l137.769 137.769q4.384 4.385 4.769 10.616.385 6.231-4.769 11.385-5.154 5.153-11.116 5.153-5.961 0-11.115-5.153L442.308 170.769q-11.847-11.846-8.618-21.904 3.228-10.058 18.695-11.865 7.666-1 14.564-1h11.899q88.793 0 168.137 33.502 79.343 33.503 138.833 91.231 59.49 57.728 95.259 135.498Q916.846 474 919.769 561.846q.231 6.615-3.938 11-4.17 4.385-10.446 4.385ZM480.692 574Z"/></svg>