<svg xmlns="http://www.w3.org/2000/svg" width="48" height="48" viewBox="0 -960 960 960"><path d="M260-124.615q-22.25 0-38.818-16.567Q204.615-157.75 204.615-180v-600q0-22.25 16.567-38.818Q237.75-835.385 260-835.385h440q22.25 0 38.818 16.567Q755.385-802.25 755.385-780v600q0 22.25-16.567 38.818Q722.25-124.615 700-124.615H260Zm360.027-320q14.819 0 25.088-10.297 10.27-10.296 10.27-25.115 0-14.819-10.297-25.088-10.296-10.27-25.115-10.27-14.819 0-25.088 10.297-10.27 10.296-10.27 25.115 0 14.819 10.297 25.088 10.296 10.27 25.115 10.27Z"/></svg>