<svg xmlns="http://www.w3.org/2000/svg" width="48" height="48" viewBox="0 -960 960 960"><path d="M480-440q-16.077 0-28.039-11.961Q440-463.923 440-480t11.961-28.039Q463.923-520 480-520t28.039 11.961Q520-496.077 520-480t-11.961 28.039Q496.077-440 480-440ZM214.692-236.692q-44.231-48.385-69.461-110.269Q120-408.846 120-480q0-70.385 25.231-132.654 25.23-62.269 69.461-110.654 4.154-5.154 10.5-5.154t11.5 5.154q4.154 4.154 4.269 10.5.116 6.346-4.038 10.962-40.077 45-63.115 101.154Q150.769-544.538 150.769-480q0 64.538 22.923 121.077 22.923 56.538 63.231 100.769 4.154 4.616 4.423 10.577.269 5.962-4.885 11.116-4.384 4.384-11 4.653-6.615.27-10.769-4.884Zm113-113.231q-22.231-26.154-34.961-59.423Q280-442.615 280-480t12.731-70.654q12.73-33.269 34.961-59.423 4.154-5.385 10.885-5 6.731.385 11.115 4.769 4.154 4.154 4.769 10.5.616 6.346-3.538 11.193-18.308 22.769-29.231 50.423-10.923 27.654-10.923 58.192t10.423 58.192q10.423 27.654 28.731 50.423 4.923 4.847 4.808 10.808-.116 5.962-5.27 11.116-5.153 5.153-11.384 5.038-6.231-.115-10.385-5.5Zm282.847.462q-4.154-4.154-4.885-10.616-.731-6.461 3.423-11.308 18.308-22.769 29.231-50.423 10.923-27.654 10.923-58.192t-10.423-58.192q-10.423-27.654-28.731-50.423-4.923-4.847-4.808-10.808.116-5.962 5.27-11.116 5.153-5.153 11.384-5.038 6.231.115 10.385 5.5 22.231 26.154 34.961 59.423Q680-517.385 680-480t-12.731 70.539q-12.73 33.153-34.961 59.538-4.154 5.385-10.385 5.5-6.231.115-11.384-5.038Zm113 113q-4.154-4.154-4.385-10.616-.231-6.461 3.923-11.077 40.077-45 63.115-101.154Q809.231-415.462 809.231-480q0-64.538-22.923-120.692-22.923-56.154-63.231-101.154-4.154-4.616-4.423-10.577-.269-5.962 4.885-11.116 4.384-4.384 11-4.653 6.615-.27 10.769 4.884 44.231 48.385 69.461 110.654Q840-550.385 840-480q0 70.385-25.231 132.654-25.23 62.269-69.461 110.654-4.154 5.154-10.769 4.884-6.616-.269-11-4.653Z"/></svg>