<svg xmlns="http://www.w3.org/2000/svg" width="48" height="48" viewBox="0 -960 960 960"><path d="M480.35-418.54q-49.97 0-93.08 23.23-43.12 23.23-70.58 64.62-4.92 8.38-.57 15.88 4.34 7.5 12.73 7.5 3.89 0 6.94-1.69 3.06-1.69 4.75-5.38 23.23-35 60.46-54.31Q438.23-388 480.62-388q42.38 0 79.11 19.54t59.96 55.08q2.69 2.92 5.63 4.5 2.94 1.57 6.83 1.57 8.39 0 12.97-7.38 4.57-7.39-.35-13.77-26.69-42.39-70.81-66.23-44.11-23.85-93.61-23.85Zm135.06-122.92q17.44 0 29.47-12.22 12.04-12.22 12.04-29.65 0-17.44-12.22-29.48t-29.65-12.04q-17.43 0-29.47 12.22t-12.04 29.66q0 17.43 12.22 29.47t29.65 12.04Zm-270.46 0q17.43 0 29.47-12.22t12.04-29.65q0-17.44-12.22-29.48t-29.65-12.04q-17.44 0-29.47 12.22-12.04 12.22-12.04 29.66 0 17.43 12.22 29.47t29.65 12.04Zm-5.23 393.12q-65.73-28.34-114.36-76.92-48.63-48.58-76.99-114.26Q120-405.19 120-479.87q0-74.67 28.34-140.41 28.34-65.73 76.92-114.36 48.58-48.63 114.26-76.99Q405.19-840 479.87-840q74.67 0 140.41 28.34 65.73 28.34 114.36 76.92 48.63 48.58 76.99 114.26Q840-554.81 840-480.13q0 74.67-28.34 140.41-28.34 65.73-76.92 114.36-48.58 48.63-114.26 76.99Q554.81-120 480.13-120q-74.67 0-140.41-28.34ZM480-480Zm233.31 233.31q95.92-95.93 95.92-233.31t-95.92-233.31Q617.38-809.23 480-809.23t-233.31 95.92Q150.77-617.38 150.77-480t95.92 233.31q95.93 95.92 233.31 95.92t233.31-95.92Z"/></svg>