<svg xmlns="http://www.w3.org/2000/svg" width="48" height="48" viewBox="0 -960 960 960"><path d="M480-272.31q30.92 0 59-11.73t51.77-32.42q5.92-4.92 6.31-12.54.38-7.62-5.54-12.54-5.92-4.92-13.04-4.54-7.12.39-13.27 5.31-18.54 14.54-40.23 23.31-21.69 8.77-45 8.77t-45-8.77q-21.69-8.77-40.23-23.31-6.15-4.92-13.27-5.31-7.12-.38-13.04 4.54-5.92 4.92-5.54 12.54.39 7.62 6.31 12.54Q392.92-296 421-284.15q28.08 11.84 59 11.84ZM339.72-148.34q-65.73-28.34-114.36-76.92-48.63-48.58-76.99-114.26Q120-405.19 120-479.87q0-74.67 28.34-140.41 28.34-65.73 76.92-114.36 48.58-48.63 114.26-76.99Q405.19-840 479.87-840q74.67 0 140.41 28.34 65.73 28.34 114.36 76.92 48.63 48.58 76.99 114.26Q840-554.81 840-480.13q0 74.67-28.34 140.41-28.34 65.73-76.92 114.36-48.58 48.63-114.26 76.99Q554.81-120 480.13-120q-74.67 0-140.41-28.34ZM480-480Zm233.31 233.38q95.92-95.85 95.92-233.31 0-137.45-95.85-233.38-95.85-95.92-233.31-95.92-137.45 0-233.38 95.85-95.92 95.85-95.92 233.31 0 137.45 95.85 233.38 95.85 95.92 233.31 95.92 137.45 0 233.38-95.85ZM343.84-492.31q29.15 0 52.08-18.04 22.93-18.03 35.39-45.96 2.69-6.4-.23-13.16-2.93-6.76-9.93-8.99-6.77-2.23-13.92 1.34-7.15 3.58-9.85 9.97-7.76 16.07-21.73 27.77-13.96 11.69-31.8 11.69-17.85 0-31.87-11.79-14.02-11.78-21.67-27.9-2.69-6.39-9.46-9.85-6.77-3.46-13.19-1.23-7.35 2.23-10.16 9.24-2.81 7-.12 14.14 12.47 27.16 34.89 44.96 22.42 17.81 51.57 17.81Zm272.31 0q29.14 0 52.07-18.04 22.93-18.03 35.4-45.96 2.69-6.4-.24-13.16-2.92-6.76-9.92-8.99-6.77-2.23-13.92 1.34-7.16 3.58-9.85 9.97-7.77 16.07-21.73 27.77-13.96 11.69-31.81 11.69-17.84 0-31.86-11.79-14.03-11.78-21.67-27.9-2.7-6.39-9.47-9.85-6.77-3.46-13.18-1.23-7.35 2.23-10.16 9.24-2.81 7-.12 14.14 12.46 27.16 34.89 44.96 22.42 17.81 51.57 17.81Z"/></svg>