<svg xmlns="http://www.w3.org/2000/svg" width="48" height="48"><path d="M15.7 47.55q-.55 0-.925-.4t-.375-.95q0-.5.375-.9t.925-.4q.5 0 .9.4t.4.95q0 .5-.4.9t-.9.4zm8.3 0q-.55 0-.925-.4t-.375-.95q0-.5.4-.9t.9-.4q.55 0 .925.4t.375.95q0 .5-.4.9t-.9.4zm8.2 0q-.5 0-.9-.4t-.4-.95q0-.5.4-.9t.95-.4q.5 0 .9.4t.4.95q0 .5-.4.9t-.95.4zm-8.25-10.2q-.3-.1-.5-.425-.2-.325-.2-.625V21.85l-9.9 9.9q-.2.2-.525.225-.325.025-.525-.225-.25-.25-.25-.55 0-.3.2-.55L22.95 20 12.25 9.35q-.2-.2-.2-.525t.25-.575q.2-.25.5-.25t.55.25l9.9 9.9V3.7q0-.3.2-.6t.5-.45q.35-.1.675-.05.325.05.575.3l7.55 7.5q.2.25.325.475.125.225.125.525 0 .3-.125.525-.125.225-.325.425L25.1 20l7.65 7.65q.2.2.325.425.125.225.125.525 0 .3-.125.525-.125.225-.325.475l-7.55 7.5q-.25.25-.6.325-.35.075-.65-.075zm.85-19.2 6.75-6.75-6.75-6.7zm0 17.15 6.75-6.7-6.75-6.75z"/></svg>