<svg xmlns="http://www.w3.org/2000/svg" width="48" height="48" viewBox="0 -960 960 960"><path d="M765.48-120H567.127q-14.05 0-23.627-9.504-9.577-9.505-9.577-23.555v-198.353q0-14.05 9.504-23.627 9.505-9.576 23.555-9.576h198.353q14.05 0 23.627 9.509 9.577 9.51 9.577 23.567v66.154l54.002-54.002q3.921-3.921 8.036-2.474 4.116 1.447 4.116 7.036v164.948q0 5.589-4.116 7.079-4.115 1.491-8.036-2.43l-54.002-54.003v66.154q0 14.058-9.505 23.568Q779.53-120 765.48-120ZM559.077-502.231q-4.846 3.693-11.077 2.616t-9.923-5.923q-11-15.924-26.087-27.5-15.087-11.577-34.478-11.577-26.512 0-45.474 18.564-18.961 18.565-18.961 45.82 0 18.93 11.308 34.734 11.307 15.805 28.692 24.574 5.615 2.692 7.654 8.808 2.038 6.115-.654 11.731-2.692 4.846-8.692 6.769t-11.847-.539q-25.923-10.923-41.577-34.614-15.654-23.691-15.654-51.463 0-40.154 27.501-67.654 27.5-27.5 67.192-27.5 27.979 0 50.605 14.346 22.626 14.347 35.011 37.808 3.461 5.616 2.384 11.462t-5.923 9.538ZM426.461-120q-6.529 0-11.064-4.73-4.534-4.729-5.474-11.885l-12.692-97.846q-22.077-7-48.462-21.693-26.384-14.692-44.692-31.538l-87.539 40q-7.846 2.923-15.692.731-7.846-2.193-12-9.808l-48.769-84.769q-4.154-7.616-2.483-14.958 1.671-7.342 8.867-12.735l79.231-59q-2-12.077-3.269-25.5-1.269-13.423-1.269-25.115 0-11.692 1.269-25.116 1.269-13.423 3.269-27.807l-79.231-59q-7.475-5.27-8.622-13.058-1.147-7.788 3.007-15.404l48-82.462q4.346-7.165 12.096-9.582 7.75-2.418 15.596.506l86.77 38.461q20.615-16.846 45.461-31.154 24.846-14.307 47.692-21.077l14.231-97.307q1.675-7.782 8.193-12.968Q425.404-840 433.308-840h93.384q7.904 0 14.423 5.186 6.518 5.186 8.193 12.968l13.461 97.077q25.154 9.307 47.808 21.961 22.654 12.654 43.038 30.5L745-710.769q7.077-2.924 14.743-.506 7.665 2.417 11.95 9.582l48.23 83.231q4.154 7.616 2.529 15.516t-8.913 12.177l-91.616 66.846q-5.384 3.923-10.615 2.808-5.231-1.116-9-5.731-4.539-4.616-3.808-10.846.731-6.231 6.116-10.385l83.846-62.538-40-69.693-105.231 44.462q-19.154-21.385-49.692-40.039Q563-694.539 534.923-698l-13.644-111.231h-82.971l-12.462 110.462q-32.461 6.23-58.885 21.307-26.423 15.077-51.73 40.847l-103.693-43.693-40 69.693 90.923 66.692q-4.769 14.692-6.884 30.808-2.116 16.115-2.116 33.677 0 17.196 2.116 32.163 2.115 14.967 6.115 30.429l-90.154 67.461 40 69.693 102.923-43.693q24.462 25.231 56.424 41.193 31.961 15.961 67.423 23.961v125.154q0 6.064-3.346 9.57-3.347 3.507-8.501 3.507Zm52.77-360.231Zm0 0Z"/></svg>