<svg xmlns="http://www.w3.org/2000/svg" width="48" height="48" viewBox="0 -960 960 960"><path d="M369.538-60q-12.303 0-20.921-8.617Q340-77.234 340-89.538v-460.924q0-12.304 8.617-20.921Q357.235-580 369.538-580h220.924q12.304 0 20.921 8.617Q620-562.766 620-550.462v460.924q0 12.303-8.617 20.92Q602.766-60 590.462-60H369.538Zm110.208-350.308q11.993 0 20.97-8.895 8.976-8.894 8.976-20.769 0-11.874-9.103-21.028-9.103-9.154-20.416-9.154-12.153 0-21.24 9.087-9.087 9.087-9.087 21.24 0 11.313 9.277 20.416t20.623 9.103Zm.219-338.923q-37.148 0-70.941 11.116-33.793 11.115-63.562 32.346-5.305 4.154-11.691 4.038-6.386-.115-11.54-5.269-5.154-5.357-4.27-11.601.885-6.245 6.27-11.168 34.099-25.44 73.959-37.835Q438.05-780 480.191-780q42.141 0 81.81 12.396 39.669 12.395 73.768 37.835 5.489 4.524 6.322 11.069.832 6.546-4.322 11.7-5.154 5.154-11.884 5.269-6.731.116-12.116-4.807-29.656-20.462-63.156-31.577-33.499-11.116-70.648-11.116Zm.035-160q-67.858 0-131.26 22.98-63.403 22.98-116.048 66.02-5.663 4.34-12.87 4.362-7.207.023-11.591-4.362-5.154-5.154-3.885-12.269 1.269-7.115 7.423-12.039 57.154-46.384 125.444-70.923Q405.502-940 480-940q73.301 0 141.703 24.99 68.401 24.991 124.528 72.241 5.489 5.2 7.475 11.907 1.986 6.708-3.167 11.862-4.385 5.154-11.616 4.154T725.308-821q-51.77-43.231-114.654-65.731-62.885-22.5-130.654-22.5ZM370.769-90.769h218.462v-458.462H370.769v458.462Zm0 0h218.462-218.462Z"/></svg>