<svg xmlns="http://www.w3.org/2000/svg" width="48" height="48" viewBox="0 96 960 960"><path d="M156.819 996q-6.819 0-11.088-4.288-4.27-4.289-4.27-11.097V832.923q-34.769-9.154-58.115-34.808Q60 772.462 60 737.462V631.154h193.692v106.308q0 35-23.23 60.653-23.231 25.654-58.231 34.808v148.692q0 5.847-4.412 10.116-4.411 4.269-11 4.269Zm323.154 0q-6.819 0-11.088-4.288-4.27-4.289-4.27-11.097V832.923q-34-9.154-57.73-34.808-23.731-25.653-23.731-60.653V631.154h193.692v106.308q0 35-23.231 60.653-23.23 25.654-58.23 34.808v148.692q0 5.847-4.412 10.116-4.412 4.269-11 4.269Zm323.154 0q-6.819 0-11.089-4.288-4.269-4.289-4.269-11.097V832.923q-34-9.154-57.731-34.808-23.73-25.653-23.73-60.653V631.154H900v106.308q0 35-23.346 60.653-23.346 25.654-58.115 34.808v148.692q0 5.847-4.412 10.116-4.412 4.269-11 4.269ZM60 600.385v-214.77q0-11.269 7.827-19.48 7.827-8.212 19.865-8.212h53.769V171.385q0-7.039 4.181-11.212T156.873 156q7.05 0 11.204 4.173 4.154 4.173 4.154 11.212v186.538H226q11.269 0 19.481 8.212 8.211 8.211 8.211 19.48v214.77H60Zm323.154 0v-214.77q0-11.269 7.827-19.48 7.827-8.212 19.865-8.212h53.769V171.385q0-7.039 4.181-11.212T480.027 156q7.05 0 11.204 4.173 4.154 4.173 4.154 11.212v186.538h53.769q12.038 0 19.865 8.212 7.827 8.211 7.827 19.48v214.77H383.154Zm323.154 0v-214.77q0-11.269 8.211-19.48 8.212-8.212 19.481-8.212h53.769V171.385q0-7.039 4.181-11.212T803.181 156q7.05 0 11.204 4.173 4.154 4.173 4.154 11.212v186.538h53.769q12.038 0 19.865 8.212 7.827 8.211 7.827 19.48v214.77H706.308Z"/></svg>