<svg xmlns="http://www.w3.org/2000/svg" width="48" height="48" viewBox="0 -960 960 960"><path d="M718.539-128.384q-6.385 2.461-12.154-1.731-5.77-4.192-6.231-11.039-1.231-6.384 2.077-12.384t9.692-8.693q40.308-13.923 65.885-48.692 25.577-34.769 25.577-78.308 0-43.538-25.193-78.307-25.192-34.77-65.5-48.693-6.615-2.692-9.807-8.692-3.193-6-1.962-12.385.462-6.846 6.346-11.038 5.885-4.193 13.039-1.731 52.846 15.846 85.654 60.308 32.807 44.461 32.807 100.538t-33.307 100.539q-33.308 44.461-86.923 60.308Zm-100.001-1.77q-19.23-6.461-35.846-16.692-16.615-10.231-30.846-24.461-14.231-14.231-24.846-31.731t-16.308-37.5q-2.692-5.616.731-11.385t11.038-7.231q6.385-1.461 12.385 2.116t7.923 10.192q5 14.846 12.77 28.038 7.769 13.193 19.076 24.5 10.539 10.539 23.731 18.808 13.192 8.269 27.269 13.269 7.385 2.693 10.577 8.308 3.193 5.615.962 12-2.231 7.616-7.616 11.039-5.384 3.423-11 .73Zm28.385-98.384q-4 2-7.615 0-3.616-2-3.616-6.231v-108.923q0-4.231 3.616-6.231 3.615-2 7.615 0l83.539 55.462q3.23 2 3.23 5.23 0 3.231-3.23 5.231l-83.539 55.462Zm-124.462-92.308q-7.615-1.462-11.038-7.231t-.731-11.385q5.693-19.23 16.308-36.346 10.615-17.115 24.846-31.346 14.231-15 31.615-25.231 17.385-10.23 37.385-16.692 5.615-2.692 11.385.731 5.769 3.423 7.231 11.038 1.461 6.385-1.731 12.385-3.193 6-10.577 8.692-14.846 5-28.039 12.885-13.192 7.885-24.5 19.192-11.307 11.308-19.076 24.116-7.77 12.807-12.77 27.653-1.923 6.616-7.923 9.808t-12.385 1.731ZM434.846-120q-7.846 0-15.385-5.154-7.538-5.153-8.769-13l-13.461-96.307q-22.077-7-48.462-21.693-26.384-14.692-44.692-31.538l-87.539 40q-7.846 2.923-15.692.731-7.846-2.193-12-9.808l-48.769-84.769q-4.154-7.616-2.577-15.077 1.577-7.462 8.961-12.616l79.231-59q-2-12.077-3.269-25.5-1.269-13.423-1.269-25.5 0-11.307 1.269-24.731 1.269-13.423 3.269-27.807l-79.231-59q-7.384-5.154-8.577-13-1.192-7.846 2.962-15.462l48-82.462q4.154-6.846 12-9.423t15.692.347l86.77 38.461q20.615-16.846 45.461-31.154 24.846-14.307 47.692-21.077l14.231-97.307q1.231-7.847 7.616-13 6.384-5.154 14.23-5.154h94.924q7.846 0 14.23 5.154 6.385 5.153 7.616 13l13.461 97.077q25.154 9.307 47.808 21.961 22.654 12.654 43.038 30.5l90.616-38.461q7.846-2.924 15.577-.347t11.885 9.423l48.23 83.231q4.154 7.616 2.577 15.577-1.577 7.962-8.961 12.116l-65.616 48.384q-4.384 4.154-10.615 4.308-6.231.154-11.154-4.231-5.154-5.615-4.692-12.846.461-7.231 6.077-11.154l60.923-44.307-40-69.693-105.231 44.462q-19.154-21.385-49.692-40.039Q563-694.539 534.923-698l-13.231-111.231h-83.384l-12.462 110.462q-32.461 6.23-58.885 21.307-26.423 15.077-51.73 40.847l-103.693-43.693-40 69.693 90.923 66.692q-4.769 14.692-6.884 30.808-2.116 16.115-2.116 33.884 0 16.231 2.116 31.577 2.115 15.346 6.115 30.808l-90.154 67.461 40 69.693 102.923-43.693q20.77 20.77 43.616 35.116t49.077 22.577q3 34.615 14.192 65.615 11.192 31 29.346 57.923 4.154 7.154 1.346 14.654-2.807 7.5-9.653 7.5h-7.539ZM480-480Zm0 0Zm-2.308-95.385q-39.384 0-67.384 27.616-28.001 27.615-28.001 67.769 0 19.923 7.116 37.077 7.115 17.154 21.115 31.077 5.154 5.846 12.116 5.923 6.961.077 11.807-4.846 4.616-4.923 4.462-11.154-.154-6.231-5.077-10.385-10-9-15.384-21.615-5.385-12.615-5.385-26.077 0-26.692 18.961-45.654 18.962-18.961 45.654-18.961 14 0 26.116 5.384 12.115 5.385 21.346 15.385 3.385 4.923 9.885 4.961 6.5.039 11.423-4.577 4.923-5.615 4.73-12.461-.192-6.846-5.807-12.231-13.693-12.462-31.116-19.846-17.423-7.385-36.577-7.385Z"/></svg>