<svg xmlns="http://www.w3.org/2000/svg" width="48" height="48" viewBox="0 -960 960 960"><path d="M316.888-9.23q-10.503 0-18.234-7.92-7.731-7.92-7.731-18.424 0-10.503 7.92-18.234 7.919-7.73 18.423-7.73 10.503 0 18.234 7.92 7.731 7.919 7.731 18.422 0 10.504-7.92 18.234-7.92 7.731-18.423 7.731Zm162.896 0q-10.233 0-17.97-7.847-7.737-7.846-7.737-18.308 0-10.461 7.873-18.307 7.873-7.846 18.308-7.846 10.434 0 18.28 7.92 7.847 7.919 7.847 18.422 0 10.504-7.759 18.234-7.759 7.731-18.842 7.731Zm163.181 0q-10.503 0-18.234-7.92Q617-25.07 617-35.574q0-10.503 7.92-18.234 7.919-7.73 18.423-7.73 10.503 0 18.234 7.92 7.731 7.919 7.731 18.422 0 10.504-7.92 18.234-7.92 7.731-18.423 7.731ZM480-450.693q-31.013 0-51.007-21.237Q409-493.167 409-524.385v-244.846q0-29.359 20.435-50.064Q449.869-840 479.941-840t50.566 20.705Q551-798.59 551-769.231v244.846q0 31.218-19.993 52.456-19.994 21.237-51.007 21.237Zm0-194.154ZM479.811-140q-6.657 0-10.926-4.404-4.27-4.404-4.27-10.981v-129.846q-90.176-7.728-154.357-71.094-64.181-63.367-69.797-152.213-.461-6.847 4.039-11.347 4.5-4.5 11.577-4.5 5.372 0 9.647 4.539 4.276 4.538 5.507 10.923 5.615 81 65.846 136.423T480-317.077q82.692 0 142.923-55.423 60.231-55.423 65.846-136.423 1.129-6.571 5.201-11.016 4.072-4.446 10.366-4.446 6.895 0 11.28 4.5 4.384 4.5 3.923 11.347-5.616 88.846-69.797 152.213-64.181 63.366-154.357 71.094v129.846q0 6.577-4.458 10.981Q486.468-140 479.811-140ZM480-481.462q17.231 0 28.731-12.346t11.5-30.888v-244.535q0-17-11.567-28.5-11.566-11.5-28.664-11.5t-28.664 11.5q-11.567 11.5-11.567 28.5v244.535q0 18.542 11.5 30.888T480-481.462Z"/></svg>