<svg xmlns="http://www.w3.org/2000/svg" width="48" height="48" viewBox="0 96 960 960"><path d="m687.539 928.308-1.154-28.769q-26.154-5.231-46-17.116-19.846-11.884-33.616-28.192l-25.077 14.616-20.384-27.077 24.923-18.462q-9.616-26.077-9.616-48.808 0-22.73 9.616-48.807l-24.923-18.462 20.384-28.077 25.077 15.385q13.77-15.847 33.616-27.847 19.846-12 46-17.23l1.154-29h30.769l1.385 29q26.153 5.23 46 17.23 19.846 12 33.615 27.077l25.077-14.615 20.385 28.077-24.924 18.462q9.616 26.077 9.616 48.423t-9.616 49.192l24.924 18.462-20.385 27.077-25.077-14.616q-13.769 16.308-33.615 28.192-19.847 11.885-46 17.116l-1.385 28.769h-30.769Zm15.384-58.077q40.154 0 68-27.846 27.846-27.846 27.846-68 0-40.154-27.846-68.385t-68-28.231q-40.923 0-68.769 28.231-27.846 28.231-27.846 68.385t27.846 68q27.846 27.846 68.769 27.846Zm-177.615 66.538q-75.539 0-142-28.538-66.462-28.538-116.077-78.038-49.616-49.501-78.424-116.078Q160 647.539 160 572q0-116.769 67.231-210.577 67.231-93.808 177.385-130.808-4.154 93.385 28.692 179.808 32.846 86.423 99.231 152.808 6.307 6.307 12.846 11.5 6.538 5.192 13.538 10.807-45.154 32.539-70.5 82.193-25.346 49.654-25.346 106.654 0 45.308 16.192 86.846 16.193 41.538 46.039 75.538Z"/></svg>