<svg xmlns="http://www.w3.org/2000/svg" width="48" height="48" viewBox="0 96 960 960"><path d="M200 536.609V362.384q0-17.957 10.017-32.323t25.906-20.83l224.615-83.154q10.231-4 19.462-4t19.462 4l224.615 83.154q15.889 6.464 25.906 20.83Q760 344.427 760 362.384v174.225q0 127.545-69.846 235.584-69.846 108.038-190.368 153.5-4.32 2-9.393 3t-10.393 1q-5.32 0-10.393-1t-9.393-3q-120.522-45.462-190.368-153.5Q200 664.154 200 536.609Zm280 364.853Q588.846 866.539 659.039 764.5q70.192-102.038 70.192-227.654V361.615q0-7.692-4.231-13.846t-11.923-9.231l-224.616-84.153q-3.846-1.539-8.461-1.539t-8.461 1.539l-224.616 84.153q-7.692 3.077-11.923 9.231t-4.231 13.846v175.231q0 125.616 70.192 227.654Q371.154 866.539 480 901.462Zm-83.077-179.308h166.154q11.769 0 19.731-7.962 7.961-7.961 7.961-19.73V568.308q0-11.77-7.961-19.731-7.962-7.962-19.731-7.962h-11.538v-40q0-29.923-20.424-50.346-20.423-20.423-50.346-20.423t-50.346 20.423Q410 470.692 410 500.615v40h-13.077q-11.769 0-19.731 7.962-7.961 7.961-7.961 19.731v126.154q0 11.769 7.961 19.73 7.962 7.962 19.731 7.962Zm39.231-181.539v-40q0-18.461 13.077-30.807 13.077-12.347 31.538-12.347 18.462 0 31.539 12.407 13.077 12.407 13.077 30.747v40h-89.231ZM480 577.538Z"/></svg>