<svg xmlns="http://www.w3.org/2000/svg" width="48" height="48" viewBox="0 -960 960 960"><path d="M480-610.461 241.385-424.308q19.692 79.693 67.884 144.731 48.192 65.039 115.346 101.269v-129.384q0-11.981 7.856-19.837t19.837-7.856h55.384q11.981 0 19.837 7.856t7.856 19.837v129.384q67.154-36.23 115.346-101.269 48.192-65.038 67.884-144.731L480-610.461Zm-249.231-83.924v175.231q0 13.416 1.385 30.516 1.384 17.099 3.384 30.869L480-648.539l244.462 190.77q2-13.77 3.384-30.869 1.385-17.1 1.385-30.516v-175.231q0-7.692-4.231-13.846t-11.923-9.231l-224.616-84.153q-3.846-1.539-8.461-1.539t-8.461 1.539l-224.616 84.153q-7.692 3.077-11.923 9.231t-4.231 13.846ZM480-126.307q-5.32 0-10.265-1-4.944-1-9.504-3-120.539-45.462-190.385-153.501Q200-391.846 200-519.26v-174.356q0-17.718 10.106-32.354 10.105-14.636 25.817-20.799l224.615-83.154q10.231-4 19.462-4t19.462 4l224.615 83.154q15.712 6.163 25.817 20.799Q760-711.334 760-693.616v174.356q0 127.414-69.846 235.452-69.846 108.039-190.385 153.501-4.56 2-9.504 3-4.945 1-10.265 1Z"/></svg>