<svg xmlns="http://www.w3.org/2000/svg" width="48" height="48" viewBox="0 96 960 960"><path d="M466.154 639.539q0 8.72 7.5 13.36 7.5 4.64 15.5-.36l111.615-71.001q7-3.73 7-12.255t-7-13.745l-111.615-71q-8-5-15.5-.36t-7.5 13.36v142.001Zm-330.77 264.154q-23.057 0-39.22-16.193Q80 871.308 80 848.308v-359.77q0-6.577 4.458-10.98 4.458-4.404 11.115-4.404 6.658 0 10.927 4.404 4.269 4.403 4.269 10.98v359.77q0 10.769 6.923 17.692t17.692 6.923h547.462q6.577 0 10.981 4.459 4.404 4.458 4.404 11.115t-4.404 10.926q-4.404 4.27-10.981 4.27H135.384Zm101.539-101.539q-23.058 0-39.221-16.192-16.164-16.192-16.164-39.192V391.077q0-23.039 16.471-39.212 16.472-16.173 38.914-16.173h176.615v-64.308q0-23 16.193-39.192Q445.923 216 468.923 216h123.693q23.057 0 39.221 16.192Q648 248.384 648 271.384v64.308h176.616q22.442 0 38.913 16.173Q880 368.038 880 391.077V746.77q0 23-16.192 39.192t-39.192 16.192H236.923Zm207.385-466.462h172.923v-64.308q0-10.769-6.923-17.692t-17.692-6.923H468.923q-10.769 0-17.692 6.923t-6.923 17.692v64.308ZM236.923 771.385h587.693q10.769 0 17.692-6.923t6.923-17.692V391.077q0-10.77-6.923-17.693-6.923-6.923-17.692-6.923H236.923q-10.769 0-17.692 6.923t-6.923 17.693V746.77q0 10.769 6.923 17.692t17.692 6.923Zm-24.615 0V366.461v404.924Z"/></svg>