<svg xmlns="http://www.w3.org/2000/svg" width="48" height="48" viewBox="0 -960 960 960"><path d="M695.385-286.15V-380q0-6.154-4.616-10.769-4.615-4.616-10.769-4.616t-10.769 4.616q-4.616 4.615-4.616 10.769v100.477q0 .215 3.231 10.215l68.293 67.149q4.857 4.544 11.114 4.544 6.257 0 10.67-4.462 4.462-4.461 4.462-10.783 0-6.322-4.462-11.063l-62.538-62.227ZM388.758-604.615q-23.143 0-39.027-16.017-15.885-16.016-15.885-39.457 0-22.757 16.016-39.027 16.017-16.269 39.457-16.269 22.758 0 39.027 16.358 16.269 16.358 16.269 39.5T428.258-620.5q-16.358 15.885-39.5 15.885Zm291.198 500q-72.802 0-124.071-51.313-51.27-51.313-51.27-124.115 0-72.803 51.313-124.072 51.313-51.27 124.116-51.27 72.802 0 124.071 51.313 51.27 51.313 51.27 124.115 0 72.803-51.313 124.072-51.313 51.27-124.116 51.27ZM224.615-120q-23.5 0-39.442-15.942-15.943-15.942-15.943-39.442v-609.232q0-22.25 15.943-38.817Q201.115-840 224.615-840h329.231q22.25 0 38.818 16.567 16.567 16.567 16.567 38.817v253.231q-8.233 1.808-16.096 4.624-7.862 2.816-14.904 5.453v-263.308q0-10.769-7.308-17.692t-17.307-6.923H224.615q-10.769 0-17.692 6.923T200-784.616v302.923q16.923-17.769 39.582-28.038Q262.241-520 289.231-520h200q14.82 0 28.718 4.807 13.897 4.808 26.128 14.501-49.077 28.461-80 72.73-30.923 44.27-41.769 97.962h-17.693v-70q0-6.539-4.485-10.962t-11.115-4.423q-6.63 0-10.9 4.423-4.269 4.423-4.269 10.962v64.615h-64.615q-6.539 0-10.962 4.485-4.423 4.486-4.423 11.116t4.423 10.899q4.423 4.27 10.962 4.27h64.615V-240q0 6.538 4.423 10.962 4.423 4.423 10.962 4.423 8.384 0 13.807-6.193 5.424-6.192 3.885-15.346V-300h9.231q-2.308 49.231 13.846 96.731 16.154 47.5 49.231 83.269H224.615Z"/></svg>