<svg xmlns="http://www.w3.org/2000/svg" width="48" height="48" viewBox="0 -960 960 960"><path d="M387.539-553.231 196.077-745.462q-5.154-4.384-5.154-10.73 0-6.347 5.154-10.731 3.696-4.154 9.634-4.154 5.939 0 10.058 4.154L409-574.692l-21.461 21.461Zm218.307 377.847q-6.538 0-10.961-4.486-4.424-4.485-4.424-11.115t4.424-10.9q4.423-4.269 10.961-4.269h127.308L553-386.077l21.231-22.231 179.846 179.385v-126.231q0-6.538 4.485-10.961 4.485-4.424 11.115-4.424 6.631 0 10.9 4.424 4.269 4.423 4.269 10.961v152.077q0 11.769-7.961 19.731-7.962 7.962-19.731 7.962H605.846Zm-411.538-18.808q-5.154-5.039-5.154-11 0-5.962 5.154-11.116l538.538-537.769h-127q-6.538 0-10.961-4.485-4.424-4.485-4.424-11.115 0-6.631 4.424-10.9 4.423-4.269 10.961-4.269h151.308q11.769 0 19.731 7.961 7.961 7.962 7.961 19.731v151.308q0 6.538-4.485 10.961-4.485 4.424-11.115 4.424-6.631 0-10.9-4.424-4.269-4.423-4.269-10.961v-126L216.308-194.077q-5.144 4.923-10.995 4.923-5.852 0-11.005-5.038Z"/></svg>