<svg xmlns="http://www.w3.org/2000/svg" width="48" height="48" viewBox="0 -960 960 960"><path d="M110.769-80q-12.115 0-21.442-9.327T80-110.769v-738.693q0-11.884 9.327-21.327 9.327-9.442 21.442-9.442h738.693q11.884 0 21.327 9.442 9.442 9.443 9.442 21.327v738.693q0 12.115-9.442 21.442Q861.346-80 849.462-80H110.769Zm597.539-150.769H592.154q-6.808 0-11.096 4.296-4.289 4.296-4.289 11.116 0 6.819 4.289 11.088Q585.346-200 592.154-200h140.154q12.038 0 19.865-7.827Q760-215.654 760-227.692v-137.616q0-6.807-4.296-11.096-4.296-4.288-11.115-4.288-6.82 0-11.089 4.288-4.269 4.289-4.269 11.096v111.769L567.077-415.231 545.846-393l162.462 162.231ZM728.794-707v112.308q0 6.807 4.436 11.096 4.437 4.288 11.413 4.288 6.819 0 11.088-4.288Q760-587.885 760-594.692v-137.616q0-12.038-7.827-19.865Q744.346-760 732.308-760H592.154q-6.808 0-11.096 4.296-4.289 4.296-4.289 11.115 0 6.82 4.289 11.089 4.288 4.269 11.096 4.269h115.077L213.767-236.488q-4.075 4.934-4.075 10.901 0 5.968 4.385 11.201 5.154 4.463 11.384 4.579 6.231.115 10.717-4.38L728.794-707ZM388.077-550.692l22.231-21.462-174-173.769q-4.385-4.385-10.616-4.385t-10.615 4.258q-4.385 4.259-4.77 10.41-.384 6.151 4 10.409l173.77 174.539Z"/></svg>