<svg xmlns="http://www.w3.org/2000/svg" width="48" height="48" viewBox="0 -960 960 960"><path d="M371-849.231q-6.846 0-11.115-4.269-4.27-4.269-4.27-11.116 0-6.846 4.27-11.115Q364.154-880 371-880h218q6.846 0 11.115 4.269 4.27 4.269 4.27 11.115 0 6.847-4.27 11.116-4.269 4.269-11.115 4.269H371ZM481.231-120Q414.692-120 356-145.423q-58.692-25.423-101.923-68.769-43.231-43.346-68.654-102.039Q160-374.923 160-441.462q0-66.307 25.038-124.384 25.039-58.077 68.539-101.193 43.5-43.115 101.692-68.038Q413.461-760 479.769-760q64.462 0 117.27 21.731 52.807 21.73 99.5 61.653l41.923-41.153q4.384-4.385 11.23-4.77 6.847-.384 11.231 4.77 5.154 5.153 4.654 11.615-.5 6.462-4.884 10.846l-41.924 41.923Q758-606.923 779-554.846t21 115.077q0 66.308-25.307 124.5-25.308 58.192-68.808 101.692-43.5 43.5-101.693 68.539Q546-120 481.231-120ZM480-150.769q120.385 0 204.808-84.423Q769.231-319.615 769.231-440q0-120.385-84.423-204.808Q600.385-729.231 480-729.231q-120.385 0-204.808 84.423Q190.769-560.385 190.769-440q0 120.385 84.423 204.808Q359.615-150.769 480-150.769Zm15.846-358.308h219.077q7.231 0 11.346-5.615 4.116-5.616 1.885-12.847-17.231-52.538-53.962-91.307-36.73-38.769-87.807-61.769-5-2-9.731-.5t-7.731 6.5l-84.538 144.076q-4.231 7.231-.5 14.347 3.73 7.115 11.961 7.115Zm-70.231 22.231 112-190.231q3.231-6.231.5-13.231-2.73-7-9.961-8.231-54.769-10.538-108.654 1.808t-97.115 46.346q-4.231 4-5.616 8.616-1.384 4.615 1.616 8.846l82.769 146.077q4.231 7.231 12.231 7.231t12.23-7.231Zm-30.846 88.769q9 0 12.731-6.231 3.731-6.23-.5-13.461L301-605.308q-4-6.23-11.231-7.115-7.231-.885-12.231 5.115-34.307 40.462-49.577 92.731-15.269 52.269-9.038 105.039 1 5 4.231 8.23 3.231 3.231 9.231 3.231h162.384Zm79.077 49.539q4.231-7.231.385-13.847Q470.385-369 462.385-369H246.538q-7.23 0-11.846 5.615-4.615 5.616-1.615 12.847 15.692 50.769 54.692 90.807 39 40.039 87.769 60.808 5 2 10.116 0 5.115-2 7.346-7l80.846-142.615ZM556.077-391q-4.231-7.231-11.846-7.231-7.616 0-11.846 7.231L425.077-202.692q-3.231 7-.5 13.615 2.731 6.616 9.962 7.616 52.769 9.538 105.538-3.193t97.846-44.731q4.231-4 4.846-8.346.616-4.346-2.384-9.346L556.077-391Zm-6.308-67.538 109.539 185.846q3.231 6.23 10.461 7.115 7.231.885 12.231-4.346 34-40 49.808-92.654 15.807-52.654 10.038-105.192-1-6-4.615-9.116-3.616-3.115-8.846-3.115H561.231q-8.231 0-11.962 7.115-3.73 7.116.5 14.347Z"/></svg>