<svg xmlns="http://www.w3.org/2000/svg" width="48" height="48" viewBox="0 -960 960 960"><path d="M764.4-120q-6.631 0-10.9-4.423t-4.269-10.961V-240H644.615q-6.538 0-10.961-4.485t-4.423-11.115q0-6.631 4.423-10.9t10.961-4.269h104.616v-104.615q0-6.539 4.485-10.962t11.115-4.423q6.631 0 10.9 4.423T780-375.384v104.615h104.615q6.539 0 10.962 4.485T900-255.169q0 6.631-4.423 10.9T884.615-240H780v104.616q0 6.538-4.485 10.961T764.4-120Zm-577.785 0q-13.231 0-20.461-8.731-7.231-8.73-7.231-18.371 0-5.59 2-10.705 2-5.116 6.06-9.176l626.034-626.034q4.06-4.06 9.682-6.445 5.621-2.384 10.361-2.384 9.479 0 18.209 7.615Q840-786.616 840-774.154v277.539q0 12.083-9.577 20.041-9.577 7.959-21.807 5.267-11.847-3.154-23.308-4.731-11.462-1.577-20.693-1.577-92.52 0-157.375 64.855t-64.855 157.376q0 26.384 6.577 52.692t19.73 50q5.693 11-.365 21.846T550.154-120H186.615Z"/></svg>