<svg xmlns="http://www.w3.org/2000/svg" width="48" height="48" viewBox="0 -960 960 960"><path d="M658.385-402 638-422.385q23.615-29.692 36.808-64.461Q688-521.615 688-560q0-37.769-11.885-72.654-11.884-34.884-36.423-63.115-4.692-4.923-5.192-11.577t3.654-10.808q4.923-4.923 11.077-4.423t10.846 6.192q28.231 32.923 42.692 73.077 14.462 40.154 14.462 84.077 0 43.77-15 84.077-15 40.308-43.846 73.154ZM540.077-520.308l-99.769-99.769q8.153-6.615 18.5-9.538 10.346-2.924 21.192-2.924 30.308 0 51.423 21.116 21.116 21.115 21.116 51.423 0 10.846-2.924 21.077-2.923 10.231-9.538 18.615ZM750.385-310l-21.154-20.385q43.154-47.923 66.961-106.576Q820-495.615 820-560q0-63.769-23.038-122.154-23.039-58.384-65.577-105.615-4.923-4.154-5.423-10.923-.5-6.77 4.423-11.693 4.154-4.154 10.692-2.923 6.539 1.231 11.462 6.154Q799-756.231 824.116-692.577 849.231-628.923 849.231-560q0 70.539-25.5 134.846-25.5 64.308-73.346 115.154Zm42.384 186.231L495.385-420.154v249.385q0 6.846-4.27 11.115-4.269 4.27-11.115 4.27t-11.115-4.27q-4.27-4.269-4.27-11.115v-280.154l-181.23-181.231q-6.308 17.923-8.847 35.577Q272-578.923 272-560q0 37.769 11.885 72.769 11.884 35 36.423 64 4.692 4.154 5.192 10.693.5 6.538-3.654 10.692-4.923 4.923-11.077 4.038-6.154-.884-10.846-5.807-27.462-32.154-42.308-72.308T242.769-560q0-24.538 4.269-47.962 4.269-23.423 15.346-45.192l-75.846-76.615q-23.923 38.846-35.23 81.731Q140-605.154 140-560q0 63.769 23.038 122.154 23.039 58.384 65.577 105.615 4.923 4.154 5.423 10.923.5 6.77-3.653 10.923-4.924 4.924-11.462 3.693-6.539-1.231-11.462-6.154Q161-363.769 135.884-427.423 110.769-491.077 110.769-560q0-50.538 13.154-99.462 13.154-48.923 40.769-91.384l-41.923-41.923q-4.385-4.385-4.385-10.731t4.385-11.5q5.154-4.385 11.5-4.385T145-815l670 669.231q3.616 4.385 4 11 .385 6.615-4 11-5.154 5.154-11.5 5.154t-10.731-5.154Z"/></svg>