<svg xmlns="http://www.w3.org/2000/svg" width="48" height="48" viewBox="0 -960 960 960"><path d="M186.615-120q-19.231 0-25.961-16.961-6.731-16.962 6.5-30.193l290.615-290.615-294.692-294.692q-4.385-4.385-4.77-11.116-.384-6.731 4.77-11.115 4.384-5.154 10.731-5.154 6.346 0 11.5 5.154L857-103q4.385 4.385 4.769 10.615Q862.154-86.154 857-81q-4.385 5.154-10.731 5.154T834.769-81l-39.231-39H186.615ZM840-219.846 529.923-529.923l262.923-262.923q13.231-13.231 30.193-6.5Q840-792.616 840-774.154v554.308Z"/></svg>