<svg xmlns="http://www.w3.org/2000/svg" width="48" height="48" viewBox="0 -960 960 960"><path d="M749.231-240H644.615q-6.538 0-10.961-4.485t-4.423-11.115q0-6.631 4.423-10.9t10.961-4.269h104.616v-104.615q0-6.539 4.485-10.962t11.115-4.423q6.631 0 10.9 4.423T780-375.384v104.615h104.615q6.539 0 10.962 4.485T900-255.169q0 6.631-4.423 10.9T884.615-240H780v104.616q0 6.538-4.485 10.961T764.4-120q-6.631 0-10.9-4.423t-4.269-10.961V-240ZM186.615-120q-18.389 0-25.541-16.961-7.151-16.962 6.08-30.193l625.692-625.692q13.231-13.231 30.193-6.248Q840-792.111 840-774.154v311.385q-7.077-3.385-14.509-5.654-7.431-2.269-16.26-4.731V-766L194-150.769h374.539q4.153 8.538 9.23 16.318Q582.846-126.671 589-120H186.615ZM194-150.769 809.231-766Q701.539-658.307 624.039-580.423q-77.5 77.885-144.808 144.808-67.308 66.923-133.348 132.963L194-150.769Z"/></svg>