<svg xmlns="http://www.w3.org/2000/svg" width="48" height="48" viewBox="0 0 48 48"><path d="m7.85 40.15 32.3-32.3q.55-.55 1.2-.25.65.3.65 1v16.25q-.35-.15-.725-.275-.375-.125-.825-.225V9.7L9.7 40.45h18.75q.2.45.45.825.25.375.55.725H8.65q-.75 0-1.025-.675-.275-.675.225-1.175ZM37.45 36h-5.2q-.35 0-.575-.225-.225-.225-.225-.575 0-.3.225-.525.225-.225.575-.225h5.2v-5.2q0-.35.225-.575.225-.225.575-.225.3 0 .525.225.225.225.225.575v5.2h5.25q.3 0 .525.225.225.225.225.575 0 .3-.225.525-.225.225-.525.225H39v5.25q0 .3-.225.525Q38.55 42 38.2 42q-.3 0-.525-.225-.225-.225-.225-.525ZM9.7 40.45 40.45 9.7q-5.35 5.4-9.225 9.275t-7.25 7.225Q20.6 29.55 17.3 32.85l-7.6 7.6Z"/></svg>