<svg xmlns="http://www.w3.org/2000/svg" width="48" height="48" viewBox="0 96 960 960"><path d="M481.502 685.154q6.806 0 11.075-4.298 4.269-4.298 4.269-11.087V482.231q0-6.789-4.31-11.087-4.309-4.298-11.115-4.298t-11.075 4.298q-4.269 4.298-4.269 11.087v187.538q0 6.789 4.31 11.087 4.309 4.298 11.115 4.298Zm112.223 0q6.814 0 11.121-4.385 4.308-4.384 4.308-11.384v-68.616H723q11.615 0 21.192-9.692t9.577-21.308v-71.923q0-11.615-9.577-21.308-9.577-9.692-21.192-9.692H606.077q-12.019 0-19.856 7.837-7.836 7.836-7.836 19.855v174.847q0 7 4.263 11.384 4.263 4.385 11.077 4.385ZM609.154 570v-72.385H723V570H609.154ZM221 685.154h129.615q11.616 0 21.193-9.692 9.577-9.693 9.577-21.308V592q0-12.385-9.577-22.077-9.577-9.692-21.193-9.692H236.769v-62.616h128.846q7 0 11.385-4.263t4.385-11.077q0-6.814-4.385-11.121-4.385-4.308-11.385-4.308H236.769q-12.384 0-21.577 9.692Q206 486.231 206 497.846V560q0 12.385 9.192 21.692Q224.385 591 236.769 591h113.846v63.385H221q-6.667 0-10.833 4.263Q206 662.911 206 669.725t4.167 11.121q4.166 4.308 10.833 4.308ZM175.384 856q-23.057 0-39.221-16.163Q120 823.673 120 800.616V351.384q0-23.057 16.163-39.221Q152.327 296 175.384 296h609.232q23.461 0 39.423 16.163Q840 328.327 840 351.384v449.232q0 23.057-15.961 39.221Q808.077 856 784.616 856H175.384Z"/></svg>