<svg xmlns="http://www.w3.org/2000/svg" width="48" height="48" viewBox="0 -960 960 960"><path d="M481.677-370.846q6.631 0 10.9-4.423t4.269-10.962v-187.538q0-6.539-4.485-10.962t-11.115-4.423q-6.631 0-10.9 4.423t-4.269 10.962v187.538q0 6.539 4.485 10.962t11.115 4.423Zm112.164 0q6.698 0 11.005-4.468 4.308-4.468 4.308-11.301v-68.616H723q11.615 0 21.192-9.692t9.577-21.308v-71.923q0-11.615-9.577-21.308-9.577-9.692-21.192-9.692H591.846q-5.385 0-9.423 4.269-4.038 4.27-4.038 9.962v188.308q0 6.833 4.379 11.301t11.077 4.468Zm-372.841 0h129.615q11.616 0 21.193-9.692 9.577-9.693 9.577-21.308V-464q0-12.385-9.577-22.077-9.577-9.692-21.193-9.692H236.769v-62.616h128.846q6.834 0 11.302-4.379t4.468-11.077q0-6.698-4.468-11.005-4.468-4.308-11.302-4.308H236.769q-12.384 0-21.577 9.692Q206-569.769 206-558.154V-496q0 12.385 9.192 21.692Q224.385-465 236.769-465h113.846v63.385H221q-6.5 0-10.75 4.379T206-386.159q0 6.698 4.25 11.005 4.25 4.308 10.75 4.308ZM609.154-486v-72.385H723V-486H609.154Zm-433.77 286q-23.057 0-39.221-16.163Q120-232.327 120-255.384v-449.232q0-23.057 16.163-39.221Q152.327-760 175.384-760h609.232q23.057 0 39.221 16.163Q840-727.673 840-704.616v449.232q0 23.057-16.163 39.221Q807.673-200 784.616-200H175.384Zm0-30.769h609.232q9.23 0 16.923-7.692 7.692-7.693 7.692-16.923v-449.232q0-9.23-7.692-16.923-7.693-7.692-16.923-7.692H175.384q-9.23 0-16.923 7.692-7.692 7.693-7.692 16.923v449.232q0 9.23 7.692 16.923 7.693 7.692 16.923 7.692Zm-24.615 0v-498.462 498.462Z"/></svg>