<svg xmlns="http://www.w3.org/2000/svg" width="48" height="48" viewBox="0 -960 960 960"><path d="M240-390.77q-34.08 0-57.04-22.96T160-470.77v-113.61q0-6.68 4.47-11.15 4.47-4.47 11.15-4.47h473.61q-1.54-29.92 12.85-53.5 14.38-23.58 43.54-33.81l155.61-52.46q5.95-1.69 11.51 1.12 5.57 2.8 7.26 8.72 1.69 5.92-.8 11.61-2.48 5.68-8.2 7.09L715.38-659q-15.98 5.08-25.68 19t-9.7 31.54v137.69q0 33.08-22.96 56.54T600-390.77H240Zm173.85 215.39v-80q0-10.77-6.93-17.7Q400-280 389.23-280H135.38q-6.57 0-10.98-4.46-4.4-4.46-4.4-11.11 0-6.66 4.4-10.93 4.41-4.27 10.98-4.27h253.85q22.44 0 38.91 16.47 16.48 16.47 16.48 38.92v80q0 6.57-4.46 10.98-4.46 4.4-11.12 4.4-6.66 0-10.92-4.4-4.27-4.41-4.27-10.98Zm101.53 0v-80q0-22.45 16.48-38.92 16.47-16.47 38.91-16.47h253.85q6.57 0 10.98 4.46 4.4 4.46 4.4 11.11 0 6.66-4.4 10.93-4.41 4.27-10.98 4.27H570.77q-10.77 0-17.69 6.92-6.93 6.93-6.93 17.7v80q0 6.57-4.45 10.98-4.46 4.4-11.12 4.4-6.66 0-10.93-4.4-4.27-4.41-4.27-10.98Z"/></svg>