<svg xmlns="http://www.w3.org/2000/svg" width="48" height="48" viewBox="0 -960 960 960"><path d="M284.588-295.384q-6.819 0-11.088-4.289-4.27-4.288-4.27-11.096v-338.462q0-6.808 4.297-11.096 4.296-4.289 11.115-4.289t11.089 4.289Q300-656.039 300-649.231v338.462q0 6.808-4.296 11.096-4.297 4.289-11.116 4.289Zm363.028-29.923-193.77-131.231q-12.231-9.086-12.231-23.505 0-14.419 12.231-23.419l193.77-131.231q13.461-10.23 28.307-2.5 14.847 7.731 14.847 24.962v264.462q0 17.231-14.847 24.962-14.846 7.73-28.307-2.5ZM660-480Zm0 125.769v-252.307L474.385-480 660-354.231Z"/></svg>