<svg xmlns="http://www.w3.org/2000/svg" width="48" height="48" viewBox="0 -960 960 960"><path d="M280-120v-156.154q-36-14.461-65.116-39.154-29.115-24.692-50.5-56.346Q143-403.308 131.5-441.077 120-478.846 120-520q0-141.077 100.782-230.539Q321.564-840 479.936-840t259.218 89.461Q840-661.077 840-520q0 41.154-11.5 78.923t-32.884 69.423q-21.385 31.654-50.5 56.346Q716-290.615 680-276.014V-120H280Zm30.769-30.769h70.769v-70.77h52.308v70.77h92.308v-70.77h52.308v70.77h70.769v-144.692q36.231-11.77 65.731-33.77 29.5-22 50.616-51.382 21.116-29.382 32.384-65.097 11.269-35.714 11.269-74.44 0-129.054-90.923-209.067-90.923-80.014-238.129-80.014-147.205 0-238.307 80.098-91.103 80.098-91.103 209.287 0 38.769 11.269 74.31 11.268 35.541 32.384 64.923 21.116 29.382 50.616 51.382 29.5 22 65.731 33.77v144.692ZM427.692-360h104.616L480-464.615 427.692-360Zm-87.406-104.615q24.868 0 42.291-17.709T400-524.901q0-24.868-17.709-42.291t-42.577-17.423q-24.868 0-42.291 17.709T280-524.329q0 24.867 17.709 42.291 17.709 17.423 42.577 17.423Zm280 0q24.868 0 42.291-17.709T680-524.901q0-24.868-17.709-42.291t-42.577-17.423q-24.868 0-42.291 17.709T560-524.329q0 24.867 17.709 42.291 17.709 17.423 42.577 17.423ZM480-150.769Z"/></svg>