<svg xmlns="http://www.w3.org/2000/svg" width="48" height="48" viewBox="0 0 48 48"><path d="M41.6 18.35q-.35 0-.575-.225-.225-.225-.225-.625-.15-2-.95-3.775-.8-1.775-2.1-3.125l-.95 1.5-1 1.775q-.55.975-1.2 1.675-.4.35-.95.35-.55 0-.95-.4-.4-.35-.375-.9.025-.55.375-.95.65-.65 1.625-1.225.975-.575 1.775-1.025l1.55-.95Q36.25 9 34.35 8.1q-1.9-.9-4.05-1-.35 0-.525-.225-.175-.225-.175-.525 0-.35.25-.6t.6-.15q4.75.3 8.1 3.575 3.35 3.275 3.75 8.075.1.45-.125.775t-.575.325ZM24.15 42q-3.8 0-7.1-1.425t-5.775-3.9Q8.8 34.2 7.375 30.9 5.95 27.6 5.95 23.8q0-5.4 2.925-9.9t7.875-6.65q.25-.1.525-.1t.475.15q.2.1.325.35.125.25.075.6.1 4.35 1.75 8.2 1.65 3.85 4.7 6.9 3 3 6.875 4.675Q35.35 29.7 39.7 29.8q.3-.05.55.1.25.15.4.35.15.2.15.45t-.1.5q-2.15 4.9-6.65 7.85-4.5 2.95-9.9 2.95Z"/></svg>