<svg xmlns="http://www.w3.org/2000/svg" width="48" height="48"><path d="M26.6 25.2q-.5 0-.85-.35T25.4 24q0-.5.35-.85t.85-.35q.5 0 .875.35t.375.85q0 .5-.375.85t-.875.35zm-10.35 0q-.55 0-.9-.35T15 24q0-.5.35-.85t.9-.35q.5 0 .85.35t.35.85q0 .5-.35.85t-.85.35zm15.5 0q-.5 0-.85-.35t-.35-.85q0-.5.35-.85t.85-.35q.55 0 .9.35T33 24q0 .5-.35.85t-.9.35zm-10.35 0q-.5 0-.875-.35T20.15 24q0-.5.375-.85t.875-.35q.5 0 .85.35t.35.85q0 .5-.35.85t-.85.35zM6.75 36q-1.15 0-1.95-.8T4 33.25v-18.5q0-1.15.8-1.95t1.95-.8h34.5q1.15 0 1.95.8t.8 1.95v18.5q0 1.15-.8 1.95t-1.95.8zm1.55-1.55v-20.9H6.75q-.45 0-.825.375-.375.375-.375.825v18.5q0 .45.375.825.375.375.825.375zm1.55 0h28.3v-20.9H9.85zm29.85 0h1.55q.45 0 .825-.375.375-.375.375-.825v-18.5q0-.45-.375-.825-.375-.375-.825-.375H39.7zM8.3 13.55H5.55 8.3zm31.4 0h2.75-1.2z"/></svg>