<svg xmlns="http://www.w3.org/2000/svg" width="48" height="48" viewBox="0 -960 960 960"><path d="M215.384-160q-22.442 0-38.913-16.471Q160-192.942 160-215.384v-529.232q0-22.442 16.471-38.913Q192.942-800 215.384-800h529.232q22.442 0 38.913 16.471Q800-767.058 800-744.616v529.232q0 22.442-16.471 38.913Q767.058-160 744.616-160H215.384Zm164.442-360.846q10.174 0 20.449 4.115 10.274 4.116 19.417 12.346l101.385 102.154q7.692 7.692 18.461 7.692 10.77 0 17.693-8.461l212-237.923v-103.693q0-10.769-6.923-17.692t-17.692-6.923H215.384q-10.769 0-17.692 6.923t-6.923 17.692v390.308l150.077-150.077q8.342-8.23 18.517-12.346 10.175-4.115 20.463-4.115Zm156.447 158.615q-10.394 0-20.186-4.087t-17.779-12.374L397.692-479.308Q390-487 379.615-487q-10.384 0-17.307 7.692L190.769-306.769v91.385q0 10.769 6.923 17.692t17.692 6.923h529.232q10.769 0 17.692-6.923t6.923-17.692v-379.385L578.385-380.692q-8.231 9.231-19.462 13.846t-22.65 4.615Z"/></svg>