<svg xmlns="http://www.w3.org/2000/svg" width="48" height="48" viewBox="0 -960 960 960"><path d="M450.231-128.231Q326-153.307 240.423-248.769q-85.577-95.462-101.269-242.539-.231-7.154 1.615-12.961 1.846-5.808 6.538-10.27 4.693-4.461 11-6.423 6.308-1.961 13.231.039 143.923 22.461 228.039 116.154 84.115 93.692 85.731 247.846.769 7.154-2.462 12.846-3.231 5.693-8.154 10.154-4.692 4.231-10.615 5.577t-13.846.115Zm29.538-212.385q-21.231-38.769-48.192-75.961Q404.615-453.77 367-474.616q-.308-64 26.154-144.692Q419.615-700 460-760.539q3.692-6.692 9-9.538 5.308-2.847 11-2.847t11.5 2.847q5.808 2.846 9.269 8.769Q541.385-700 567.346-618.423 593.308-536.846 593-473.077q-35.077 17.769-66.346 58.038-31.269 40.269-46.885 74.423Zm38.154 213.232q1.154-46.231-5.192-91.808-6.346-45.577-17.423-80.5 28.077-78.77 101.808-140.616 73.73-61.846 192.115-80.615 7.154-2 13.346-.039 6.193 1.962 10.885 6.423 4.692 4.462 7.038 10.27 2.346 5.807 1.116 12.961Q805.385-348 727.693-258.384q-77.693 89.615-209.77 131Z"/></svg>