<svg xmlns="http://www.w3.org/2000/svg" width="48" height="48" viewBox="0 -960 960 960"><path d="M463.538-126.307q-58.23-10.462-116.769-39.039-58.538-28.577-105.269-77.692-46.731-49.116-75.654-120.039Q136.923-434 136.923-530.385v-6.923q0-9.461 6.577-16.038t16.038-6.577h5.385q43 0 103.384 23.192 60.385 23.192 99.462 55.192 3.385-69 28.462-145.038 25.077-76.039 64.923-135.347 7.692-11.692 18.846-11.692t18.846 11.692q39.846 59.308 64.923 136.116Q588.846-549 592.231-480q36.769-28.462 95.615-53.039 58.847-24.577 105.693-26.884l9.231-.77q8.692-.769 15.269 5.808t5.807 15.269l-.769 10.77q-5.384 76.384-26.231 140Q776-325.231 738.5-275.346t-91.423 86.539q-53.923 36.653-124.462 58.653-12.538 4.308-29.538 5.462t-29.539-1.615ZM498-152.538Q487-326 394.5-416.615 302-507.231 167.923-528.923h-.385.385Q179.384-350.231 274.769-260.5T498-152.538q1 1-.5.5t.5-.5Zm-99.154-304.847q23 20 44.577 50.385 21.577 30.384 36.346 57.154 12.462-27.539 35.423-57.539 22.962-30 45.962-50 2.692-65.461-20.116-136.846-22.807-71.385-61.038-140-.231-.231 0 .385.231.615 0-.385-38.462 68.846-61.154 139.615-22.692 70.77-20 137.231ZM496.077-312q12 34.923 19.846 67.654 7.846 32.731 12.846 79.423 50.846-18.538 96.846-47.423 46-28.885 81.193-72.577 35.192-43.692 58-103.692 22.808-60 27.269-140.308 0-1.231 0 0-102.923 14.692-183.154 73.961Q528.692-395.692 496.077-312Z"/></svg>