<svg xmlns="http://www.w3.org/2000/svg" width="48" height="48" viewBox="0 0 48 48"><path d="M24 24q-2.5 0-4.125-1.65T18.25 18.2q0-2.5 1.625-4.125T24 12.45q2.5 0 4.125 1.625T29.75 18.2q0 2.5-1.625 4.15Q26.5 24 24 24ZM10 35.55q0-1.45.75-2.4t2-1.55q2.45-1.2 5.55-1.95 3.1-.75 5.7-.75t5.675.75q3.075.75 5.575 1.95 1.25.6 2 1.55.75.95.75 2.4v1.3q0 .65-.475 1.125t-1.125.475H11.6q-.65 0-1.125-.475T10 36.85Zm1.55 1.35h24.9v-1.35q0-.9-.525-1.525-.525-.625-1.375-1.075-2.15-1.2-5.075-1.85-2.925-.65-5.475-.65t-5.475.675Q15.6 31.8 13.45 32.95q-.8.35-1.35 1.025-.55.675-.55 1.575ZM24 22.45q1.8 0 3.025-1.225Q28.25 20 28.25 18.2q0-1.8-1.225-3T24 14q-1.8 0-3.025 1.2-1.225 1.2-1.225 3t1.225 3.025Q22.2 22.45 24 22.45ZM8.15 8.2q-1.2 1.25-2.8 1.925-1.6.675-3.4.675-.35 0-.55-.225-.2-.225-.2-.525 0-.35.2-.55.2-.2.55-.2 1.55 0 2.85-.575T7.1 7.1q1-1 1.55-2.3.55-1.3.5-2.85 0-.35.225-.575.225-.225.525-.225.35 0 .575.225.225.225.225.575 0 1.85-.675 3.45T8.15 8.2Zm4.5 4.5q-2.05 2.05-4.775 3.225Q5.15 17.1 1.95 17.1q-.35 0-.55-.225-.2-.225-.2-.575 0-.3.2-.525.2-.225.55-.225 2.85 0 5.275-1.075Q9.65 13.4 11.5 11.55q1.85-1.85 2.925-4.3Q15.5 4.8 15.5 1.95q0-.35.225-.575.225-.225.575-.225.3 0 .55.225.25.225.25.575 0 3.15-1.2 5.9-1.2 2.75-3.25 4.85Zm22.65 0q-2.05-2.1-3.225-4.825Q30.9 5.15 30.85 1.95q0-.35.25-.575.25-.225.55-.225.35 0 .575.225.225.225.225.575 0 2.85 1.075 5.3 1.075 2.45 2.925 4.3 1.85 1.85 4.3 2.925Q43.2 15.55 46 15.55q.35 0 .55.225.2.225.2.575 0 .3-.2.525-.2.225-.55.225-3.15 0-5.875-1.175T35.3 12.7Zm4.45-4.5q-1.2-1.2-1.875-2.8-.675-1.6-.725-3.45 0-.35.225-.575.225-.225.575-.225.3 0 .55.225.25.225.25.575 0 1.5.55 2.825.55 1.325 1.55 2.325 1 1 2.325 1.575Q44.5 9.25 46 9.25q.35 0 .55.225.2.225.2.575t-.2.55q-.2.2-.55.2-1.85 0-3.425-.7Q41 9.4 39.75 8.2ZM24 18.2Zm0 18.7Z"/></svg>