<svg xmlns="http://www.w3.org/2000/svg" width="48" height="48" viewBox="0 -960 960 960"><path d="M480-480.23q-49.5 0-82.44-32.77t-32.94-83q0-50.23 32.76-82.62Q430.15-711 480-711t82.62 32.38q32.76 32.39 32.76 82.62 0 50.23-32.94 83T480-480.23ZM200-248.62q0-29.53 14.77-48.34 14.77-18.81 40.15-31.5 48.7-23.69 110.89-38.39Q428-381.54 480-381.54t113.69 14.69q61.69 14.7 111.16 38.39 25.38 12.69 40.27 31.5Q760-278.15 760-248.62v25.54q0 13.21-9.55 22.76t-22.76 9.55H232.31q-13.21 0-22.76-9.55T200-223.08v-25.54Zm30.77 27.08h498.46v-27.08q0-18.77-10.81-31.27-10.8-12.49-27.57-21.49-42.62-23.16-101.31-36.27-58.69-13.12-109.54-13.12-50.85 0-109.65 13.35-58.81 13.34-101.43 36.04-16.3 7.76-27.23 21.18-10.92 13.41-10.92 31.58v27.08ZM480-511q35.92 0 60.27-24.35 24.35-24.34 24.35-60.27 0-35.92-24.35-60.26-24.35-24.35-60.27-24.35t-60.27 24.35q-24.35 24.34-24.35 60.26 0 35.93 24.35 60.27Q444.08-511 480-511ZM163.26-795.8q-24.64 24.77-56.38 38.48-31.75 13.7-67.88 13.7-6.54 0-10.96-4.48-4.42-4.49-4.42-11.12 0-6.63 4.42-10.9 4.42-4.27 10.96-4.27 30.85 0 56.77-11.5t46.13-31.81q20.21-20.31 31.23-46.16 11.02-25.85 9.48-56.91 0-6.79 4.65-11.59 4.65-4.79 11.23-4.79 6.59 0 11.24 4.79 4.65 4.8 4.65 11.59 0 36.68-13.67 68.92-13.68 32.23-37.45 56.05Zm-6.21 154.03Q102.56-618.23 39-618.23q-6.54 0-10.96-4.49-4.42-4.48-4.42-11.11 0-6.63 4.42-10.9Q32.46-649 39-649q57.04 0 105.38-21.42 48.34-21.42 85.63-58.27 37.3-36.85 58.53-86.08 21.23-49.23 21.23-106 0-6.79 4.65-11.59 4.64-4.79 11.23-4.79 6.58 0 11.23 4.79 4.66 4.8 4.66 11.59 0 62.68-23.54 117.61t-65 96.39q-41.46 41.46-95.95 65Zm484.66-160.92q-23.48-54.46-24.25-118.08 0-6.79 4.65-11.59 4.65-4.79 11.23-4.79t11.24 4.79q4.65 4.8 4.65 11.59 0 56.56 21.12 105.76 21.12 49.21 58.28 86.19 37.16 36.97 86.26 58.28Q864-649.23 920-649q6.54 0 10.96 4.48 4.42 4.49 4.42 11.12 0 6.63-4.42 10.9-4.42 4.27-10.96 4.27-63.4 0-117.75-23.54t-95.71-65q-41.35-41.46-64.83-95.92Zm115.68-49.39q-13.61-31.71-14.54-68.69 0-6.79 4.64-11.59 4.65-4.79 11.23-4.79 6.59 0 11.24 4.79 4.66 4.8 4.66 11.59 0 30.08 11.11 56.39 11.12 26.3 31.35 46.53 20.23 20.23 46.54 31.73 26.3 11.5 56.38 11.5 6.54 0 10.96 4.49 4.42 4.48 4.42 11.11 0 6.64-4.42 10.9-4.42 4.27-10.96 4.27-37.01 0-68.74-14.01-31.72-14.02-55.99-38.27-24.27-24.25-37.88-55.95ZM480-595.62Zm0 374.08Z"/></svg>