<svg xmlns="http://www.w3.org/2000/svg" width="48" height="48" viewBox="0 -960 960 960"><path d="M903.03-559.69q-4.26 0-7.16-1.71-2.91-1.7-5.41-4.37-19.63-21.05-30.04-47.1Q850-638.92 850-667.46q0-28 11.04-55.16 11.04-27.15 30.88-47.46 2.29-2.32 4.85-3.73 2.55-1.42 6.12-1.42 6.88 0 11.15 4.64 4.27 4.63 4.27 10.83 0 3.61-1.09 6.16-1.09 2.55-3.3 4.98-16.46 16.52-24.81 37.88-8.34 21.36-8.34 43.51 0 22.92 8.96 43.66 8.96 20.75 24.19 37.49 2.44 2.52 3.41 5.35.98 2.82.98 5.39 0 7.11-4.44 11.38-4.44 4.27-10.84 4.27Zm-142.54 142q-3.03 0-6.05-1.21-3.02-1.2-5.52-3.64-48.38-50.08-74.42-112.73-26.04-62.65-26.04-132.19 0-69.54 26.66-132.31 26.65-62.77 75.26-112.85 2.53-2.55 4.96-3.46 2.44-.92 5.24-.92 6.88 0 11.65 4.33 4.77 4.32 4.77 11.18 0 2.8-1.23 5.73-1.23 2.94-3.15 5.38-43.47 45.15-68.43 102.57-24.96 57.43-24.96 120.43 0 63 24.46 120.46 24.46 57.46 67.93 102.61 2.43 2.52 3.41 5.34.97 2.82.97 5.63 0 6.88-4.33 11.26-4.32 4.39-11.18 4.39Zm-372.03-62.54q-49.5 0-82.44-32.77t-32.94-83q0-50.23 32.77-82.62Q338.62-711 388.46-711q49.85 0 82.62 32.38 32.77 32.39 32.77 82.62 0 50.23-32.95 83-32.94 32.77-82.44 32.77Zm-280 257.15v-25.54q0-29.53 14.77-48.34 14.77-18.81 40.15-31.5 48.7-23.69 110.89-38.39 62.19-14.69 114.19-14.69t113.69 14.69q61.7 14.7 111.16 38.39 25.38 12.69 40.27 31.5 14.88 18.81 14.88 48.34v25.54q0 13.46-9.42 22.89-9.42 9.42-22.89 9.42H140.77q-13.46 0-22.89-9.42-9.42-9.43-9.42-22.89Zm30.77 1.54h498.46v-27.08q0-18.3-10.81-31.03-10.8-12.73-27.57-21.73-42.62-23.16-101.31-36.27-58.69-13.12-109.54-13.12-50.84 0-109.65 13.35-58.81 13.34-101.43 36.04-16.3 7.76-27.23 21.11-10.92 13.35-10.92 31.65v27.08Zm309.5-313.81q24.35-24.34 24.35-60.27 0-35.92-24.35-60.26-24.35-24.35-60.27-24.35t-60.27 24.35q-24.34 24.34-24.34 60.26 0 35.93 24.34 60.27Q352.54-511 388.46-511t60.27-24.35Zm-60.27-60.27Zm0 374.08Z"/></svg>