<svg xmlns="http://www.w3.org/2000/svg" width="48" height="48" viewBox="0 96 960 960"><path d="M283 645.308q-12.385 0-21.577-8.808-9.192-8.808-9.192-21.962 0-13.153 9.192-21.961 9.192-8.808 21.577-8.808 12.385 0 21.577 8.808 9.192 8.808 9.192 21.961 0 13.154-9.192 21.962T283 645.308Zm500.616 132.231-26.924-32.308h27.924q10.769 0 17.692-6.923t6.923-17.692V271.384q0-10.769-6.923-17.692t-17.692-6.923H257.231L226.461 216h558.155q23 0 39.192 16.192T840 271.384v449.232q0 24.23-15.961 39.807-15.962 15.577-40.423 17.116ZM400.385 389.923l-11.693-11.692v-3.693q0-6.577 4.404-10.98 4.404-4.404 10.981-4.404h283.462q6.576 0 10.98 4.458 4.404 4.458 4.404 11.115 0 6.658-4.404 10.927-4.404 4.269-10.98 4.269H400.385Zm120 120-30.77-30.769h197.924q6.576 0 10.98 4.458 4.404 4.458 4.404 11.115 0 6.658-4.404 10.927-4.404 4.269-10.98 4.269H520.385ZM243.077 776l-75.923 75.924q-13.231 13.23-30.193 6.199Q120 851.092 120 832.462V253.923l-56.077-56.077q-4.154-4.153-4.654-10.5-.5-6.346 4.423-11.269 5.154-5.385 11.116-5.385 5.961 0 11.115 5.154l754.539 754.539q4.384 4.384 4.654 10.615.269 6.231-4.942 11.321-5.097 4.987-10.943 5.102-5.846.116-11-5.038L642.615 776H243.077Zm-92.308-491.308v539.385l78.846-78.846h381.462L150.769 284.692ZM507.461 496Zm-126.538 18.846ZM283 525.308q-12.385 0-21.577-8.808-9.192-8.808-9.192-21.962 0-13.153 9.192-21.961 9.192-8.808 21.577-8.808 12.385 0 21.577 8.808 9.192 8.808 9.192 21.961 0 13.154-9.192 21.962T283 525.308Z"/></svg>