<svg xmlns="http://www.w3.org/2000/svg" width="48" height="48"><path d="m12.3 34-3.85 3.8q-.65.65-1.475.3-.825-.35-.825-1.3V7.9l-2.8-2.8q-.25-.2-.275-.525Q3.05 4.25 3.3 4q.25-.2.55-.225.3-.025.6.225l37.7 37.7q.25.25.225.55-.025.3-.275.55-.2.25-.525.275-.325.025-.525-.275l-8.8-8.8zm27 .1L26.05 20.7h8.4q.35 0 .575-.225.225-.225.225-.575 0-.3-.225-.525-.225-.225-.575-.225H24.5l-4.4-4.45h14.35q.35 0 .575-.225.225-.225.225-.575 0-.3-.225-.525-.225-.225-.575-.225h-13.6q-.3 0-.525.225-.225.225-.225.575v.75L11.45 6h27.9q1.1 0 1.95.8.85.8.85 1.95v22.5q0 1.2-.8 1.975-.8.775-2.05.875zm-25.05-6.65q.65 0 1.1-.425.45-.425.45-1.125 0-.65-.45-1.075-.45-.425-1.1-.425-.6 0-1.075.425T12.7 25.95q0 .65.475 1.075.475.425 1.075.425zm0-6q.65 0 1.1-.425.45-.425.45-1.125 0-.65-.45-1.075-.45-.425-1.1-.425-.6 0-1.075.425T12.7 19.95q0 .65.475 1.075.475.425 1.075.425z"/></svg>