<svg xmlns="http://www.w3.org/2000/svg" width="48" height="48" viewBox="0 -960 960 960"><path d="M680-298.538q-6.538 0-10.961-4.485-4.424-4.486-4.424-11.116t4.424-10.899q4.423-4.27 10.961-4.27h124.616q10.769 0 17.692-7.307 6.923-7.308 6.923-17.308v-87.308q0-10-6.923-17.307-6.923-7.308-17.692-7.308H692.308q-11.769 0-19.731-7.865-7.962-7.866-7.962-20.208v-139.47q0-12.342 7.962-20.207 7.962-7.866 19.731-7.866h152.308q6.538 0 10.961 4.485Q860-652.491 860-645.861t-4.423 10.899q-4.423 4.27-10.961 4.27H695.385v134.077h109.231q23.057 0 39.221 16.163Q860-464.289 860-441.231v87.308q0 23.058-16.163 39.221-16.164 16.164-39.221 16.164H680Zm-109 0H418.692q-11.019 0-19.356-7.962Q391-314.461 391-326.231v-115q0-23.058 16.163-39.221 16.164-16.163 39.222-16.163H531q10.769 0 17.692-6.924 6.923-6.923 6.923-17.692v-84.846q0-10-6.923-17.308-6.923-7.307-17.692-7.307H406.385q-6.539 0-10.962-4.485Q391-639.663 391-646.293t4.423-10.899q4.423-4.27 10.962-4.27H531q23.058 0 39.221 16.164 16.164 16.163 16.164 39.221v84.846q0 23.058-16.164 39.221-16.163 16.164-39.221 16.164h-84.615q-10 0-17.308 7.308-7.308 7.307-7.308 17.307v111.923H571q6.539 0 10.962 4.485 4.423 4.486 4.423 11.116t-4.423 10.899q-4.423 4.27-10.962 4.27Zm-273.062 0q-6.63 0-10.9-4.485-4.269-4.486-4.269-11.116t4.485-10.899q4.485-4.27 11.116-4.27 6.63 0 10.899 4.485 4.27 4.486 4.27 11.116t-4.486 10.899q-4.485 4.27-11.115 4.27ZM173.769-630.692h-66.077q-6.538 0-10.961-4.485-4.423-4.486-4.423-11.116t4.423-10.899q4.423-4.27 10.961-4.27h68.773q12.343 0 20.208 7.962 7.865 7.961 7.865 19.731v319.846q0 6.538-4.485 10.962-4.485 4.423-11.115 4.423t-10.9-4.423q-4.269-4.424-4.269-10.962v-316.769Z"/></svg>