<svg xmlns="http://www.w3.org/2000/svg" width="48" height="48" viewBox="0 -960 960 960"><path d="M506-202.923q-11.692 0-19.769-8.077-8.077-8.077-8.077-19.769v-153.846q0-11.693 8.077-19.769 8.077-8.077 19.769-8.077h93.846q10.923 0 19.385 8.077 8.461 8.076 8.461 19.769v153.846q0 11.692-8.461 19.769-8.462 8.077-19.385 8.077H506Zm1.692-29.538h90.462v-150.462h-90.462v150.462ZM715.538-92.308q-11.846 0-19.846-8t-8-19.846v-66.769q0-12.615 8-20.231 8-7.615 19.846-7.615h99.539v-63.385H702.462q-6.206 0-10.488-4.272-4.282-4.272-4.282-10.461 0-6.19 4.282-10.498 4.282-4.307 10.488-4.307h114.307q11.846 0 19.846 8t8 19.846v66.769q0 12.615-8 20.231-8 7.615-19.846 7.615h-99.538v63.385h112.615q6.205 0 10.487 4.272t4.282 10.461q0 6.19-4.282 10.498-4.282 4.307-10.487 4.307H715.538Zm-315.23-725.385q4.692 0 9.692 2t9.231 5.231q65.231 59.077 124 123.347Q602-622.846 640.005-543.596q7.765 13.442-.812 26.289-8.577 12.846-23.025 12.846h-174.63q-22.5 0-38.942 16.442t-16.442 38.942v296.154q0 12.462-10.757 21.577-10.757 9.115-25.166 9.115-109.616 0-169.924-83.961Q120-290.154 120-408q0-125.947 84.577-221.32 84.577-95.373 176.961-181.142 4.231-3.231 8.77-5.231 4.538-2 10-2Z"/></svg>