<svg xmlns="http://www.w3.org/2000/svg" width="48" height="48" viewBox="0 -960 960 960"><path d="M164.69-240q-24.92 0-38.73-17.42-13.81-17.43-10.11-41.66l46.46-321.15q5.69-41.46 37.57-70.62Q231.77-720 274-720h413q41.46 0 73.35 29.15 31.88 29.16 38.34 70.62l45.46 321.15q3.7 24.23-10.11 41.66Q820.23-240 796.08-240q-14.54 0-24.39-4.04-9.84-4.04-17.77-11.96L645.31-364.62H314.69L206.08-256q-7.93 7.92-17.77 11.96-9.85 4.04-23.62 4.04Zm16.46-35.54L301-395.38h358l119.85 119.84q3.46 2.69 15.69 6.69 9.77 0 15.04-7.46t4.04-17.23l-45.7-322.84q-5-31.16-28.73-52-23.73-20.85-52.19-20.85H273q-28.46 0-52.19 20.85-23.73 20.84-27.96 52l-46.47 322.84q-1.23 9.77 4.04 17.23 5.27 7.46 15.81 7.46 5.46 0 14.92-6.69Zm530.7-181.84q9.69-9.7 9.69-22.62 0-12.92-9.69-22.62-9.7-9.69-22.62-9.69-12.92 0-22.61 9.69-9.7 9.7-9.7 22.62 0 12.92 9.7 22.62 9.69 9.69 22.61 9.69t22.62-9.69ZM629.54-582q10.08-9.69 10.08-22.62 0-12.92-10.08-22.61t-22.62-9.69q-12.54 0-22.23 9.69-9.69 9.69-9.69 22.61 0 12.93 9.69 22.62 9.69 9.69 22.23 9.69 12.54 0 22.62-9.69ZM480-478.77Zm-162.31-48.15V-470q0 6.38 4.31 10.69t11.08 4.31q6.77 0 11.07-4.31 4.31-4.31 4.31-10.69v-56.92h56.92q6.39 0 11.08-4.31t4.69-11.08q0-6.77-4.69-11.07-4.69-4.31-11.08-4.31h-56.92v-56.93q0-6.38-4.31-11.07-4.3-4.69-11.07-4.69-6.77 0-11.08 4.69-4.31 4.69-4.31 11.07v56.93h-56.92q-6.39 0-10.69 4.31-4.31 4.3-4.31 11.07 0 6.77 4.31 11.08 4.3 4.31 10.69 4.31h56.92Z"/></svg>