<svg xmlns="http://www.w3.org/2000/svg" width="48" height="48" viewBox="0 -960 960 960"><path d="M164.692-240q-24.923 0-38.731-17.423-13.807-17.423-10.115-41.654l46.461-321.154q5.693-41.461 37.577-70.615Q231.769-720 274-720h413q41.462 0 73.346 29.154 31.885 29.154 38.347 70.615l45.461 321.154q3.692 24.231-10.115 41.654Q820.231-240 796.077-240q-14.538 0-24.385-4.038-9.846-4.039-17.769-11.962L645.308-364.615H314.692L206.077-256q-7.923 7.923-17.769 11.962Q178.461-240 164.692-240Zm16.462-35.538L301-395.385h358l119.846 119.847q3.462 2.692 15.693 6.692 9.769 0 15.038-7.462 5.269-7.461 4.038-17.23l-45.692-322.847q-5-31.154-28.731-52-23.73-20.846-52.192-20.846H273q-28.462 0-52.192 20.846-23.731 20.846-27.962 52l-46.461 322.847q-1.231 9.769 4.038 17.23 5.269 7.462 15.808 7.462 5.461 0 14.923-6.692Zm508.077-172.154q12.923 0 22.615-9.693 9.693-9.692 9.693-22.615 0-12.923-9.693-22.615-9.692-9.693-22.615-9.693-12.923 0-22.616 9.693-9.692 9.692-9.692 22.615 0 12.923 9.692 22.615 9.693 9.693 22.616 9.693Zm-81.923-124.616q12.154 0 22.231-9.692 10.076-9.692 10.076-22.615 0-12.924-10.076-22.616-10.077-9.692-22.231-9.692-12.923 0-22.616 9.692Q575-617.539 575-604.615q0 12.923 9.692 22.615 9.693 9.692 22.616 9.692Zm-361.539 45.385h35.692q15.231 0 25.731 11.269 10.5 11.269 10.5 30.346 0 12.154 9.077 21.231 9.077 9.077 22 9.077h-.307v-35.692q0-15.231 11.384-25.731 11.385-10.5 30.462-10.5 12.923 0 21.884-9.077 8.962-9.077 8.962-22v.308h-36.462q-15.23 0-25.73-11.385t-10.5-30.462q0-12.923-8.962-21.884-8.962-8.962-21.885-8.962h.077v36.462q0 15.231-11.269 25.731-11.269 10.5-30.346 10.5-12.154 0-21.231 8.961-9.077 8.962-9.077 21.885v-.077ZM480-478.769Z"/></svg>