<svg xmlns="http://www.w3.org/2000/svg" width="48" height="48" viewBox="0 -960 960 960"><path d="m503.615-115.692-7.461-373.077-200.538-55.846H52.308q-6.539 0-10.962-4.485-4.423-4.486-4.423-11.116t4.423-10.899q4.423-4.27 10.962-4.27h235.307l293.769-207.153q4.616-3.154 10.033-2.168 5.418.986 9.929 5.481 3.423 4.764 3.192 11.706-.23 6.942-5.846 10.904L431.846-637.846l139.308 50.154L863.462-768q4.153-2.692 9.072-1.717 4.918.975 9.154 5.401 4.235 4.085 3.588 10.061-.647 5.975-6.199 9.409L567.846-516.231l-30.461 401.308q-.928 6.364-6.056 10.644t-11.894 4.28q-6.02 0-10.716-4.543-4.695-4.543-5.104-11.15ZM247.772-655.461q-27.311 0-45.964-18.575-18.654-18.574-18.654-45.884 0-27.311 18.574-45.965 18.574-18.654 45.885-18.654 27.31 0 45.964 18.575 18.654 18.574 18.654 45.884 0 27.311-18.574 45.965-18.575 18.654-45.885 18.654Z"/></svg>