<svg xmlns="http://www.w3.org/2000/svg" width="48" height="48" viewBox="0 -960 960 960"><path d="M668.769-778.615q-27.692 0-46.115-18.808-18.423-18.808-18.423-45.731 0-26.923 18.423-45.731 18.423-18.808 46.115-18.808 26.923 0 45.731 18.808 18.808 18.808 18.808 45.731 0 26.923-18.808 45.731-18.808 18.808-45.731 18.808ZM430.308-610.923q-27.693 0-46.116-18.808t-18.423-45.731q0-26.923 18.423-45.731Q402.615-740 430.308-740q26.923 0 45.731 18.807 18.807 18.808 18.807 45.731 0 26.923-18.807 45.731-18.808 18.808-45.731 18.808Zm123.615 182.538q-41.231-6.538-79.077-23.307t-65.154-44.077l-46.23-43.923-130.923 130.923 96.307 95.846v197.538q0 6.847-4.269 11.116-4.269 4.27-11.115 4.27-6.847 0-11.116-4.27-4.269-4.269-4.269-11.116V-299l-102.923-95.846v138.615L58.077-118.923q-4.923 5.154-11 5.154t-11.23-5.154q-4.924-4.923-4.924-10.885 0-5.961 4.923-11.115L167.461-273l-49.615-132.923q-4.923-15.077-1.692-32 3.231-16.923 15.384-29.077l133.693-133.923q8.461-8.462 18-12.923 9.538-4.462 21-4.462 11.461 0 21 4.462 9.538 4.461 18 12.923l83.231 78.231q30.384 28.923 61.615 44.077 31.231 15.153 67.846 19.692 5.846 1.231 10.116 5.769 4.269 4.539 4.269 10.385 0 6.846-5.269 11.231-5.27 4.384-11.116 3.153ZM851.385-113l-74.77-309.308-124.846 99.462v207.461q0 6.847-4.269 11.116-4.269 4.27-11.115 4.27-6.847 0-11.116-4.27Q621-108.538 621-115.385v-232l89.231-85-39.923-210.538q-42.308 54-82.846 89-40.539 35-90.616 46.538-6.769-4.923-15.423-11.038-8.654-6.116-14.808-11.962 46.539-7.23 91.923-39.192 45.385-31.961 71.923-75.885l39.462-65.461q13.154-21.846 33.154-27.923 20-6.077 42.385 4.615l173.23 73.077q7.231 3.231 11.847 10.346 4.615 7.116 4.615 15.346v112.77q0 6.846-4.269 11.115-4.27 4.269-11.116 4.269t-11.115-4.269q-4.269-4.269-4.269-11.115v-110.462l-130.308-55.538 109.846 569.384q2.231 8.077-2.923 13.693Q875.846-100 867.539-100q-5.385 0-10.154-3.808-4.77-3.807-6-9.192Z"/></svg>