<svg xmlns="http://www.w3.org/2000/svg" width="48" height="48" viewBox="0 -960 960 960"><path d="M160-362.896q0-3.104 1.577-6.296 1.577-3.193 5.269-5.885l32.692-23.154Q216-410.462 236.12-408.946q20.12 1.515 34.265 15.177l197.461 191.461q6.923 6.154 15.769 6.539 8.846.384 16.539-5l146-117.077q7.944-5.778 15.818-8.62 7.874-2.842 18.105-2.842h104.539q6.596 0 10.99 4.445T800-313.748q0 6.671-4.394 10.94-4.394 4.27-10.99 4.27h-104.77q-3.846 0-8.077 1.154-4.23 1.153-7.307 4.23l-144.77 115.539q-16.461 13.231-36.923 12.231-20.461-1-35.923-15.462L249.154-371.538q-6.154-6.154-15-7.308t-16.539 4.231l-33.692 25.461q-7.308 4.847-15.616.586-8.307-4.26-8.307-14.328Zm0-252.873q0-2.885 1.846-6.577t4.769-5.116l105.154-77.923q16.462-12.231 37.351-10.711 20.889 1.52 35.034 15.942l126.692 126.692q6.154 6.154 15 6.923 8.846.77 16.539-4.615l273.692-197.923q7.308-5.616 15.616-.97Q800-765.402 800-755.335q0 3.873-1.461 6.681-1.462 2.808-4.385 5.5L520.462-546Q504-533.769 483.88-535.289q-20.12-1.52-34.265-15.942L322.154-678.692q-6.154-6.154-15-6.923-8.846-.77-16.539 4.615l-106.692 77.923q-7.308 5.616-15.616 1.421Q160-605.851 160-615.769Z"/></svg>