<svg xmlns="http://www.w3.org/2000/svg" width="48" height="48" viewBox="0 96 960 960"><path d="m480 680.154 103.539 79.154q8.23 6.231 16.73.115 8.5-6.115 6.27-16.346L566 613.615l100.911-71.039Q676 536 673.385 526q-2.616-10-13.542-10H534.846L494 381.538q-3.723-11-13.861-11-10.139 0-13.37 11L424.923 516H299.927Q289 516 286 526t6.089 16.576l101.68 71.039-40.308 129.693q-2.23 11 6.27 16.615 8.5 5.616 16.73-.615L480 680.154ZM480.134 936Q405 936 339.263 908.276q-65.738-27.724-114.75-76.691-49.012-48.966-76.763-114.642Q120 651.268 120 576.134q0-74.903 27.724-140.641 27.724-65.737 76.691-114.749 48.966-49.012 114.642-76.878Q404.732 216 479.866 216q74.903 0 140.641 27.839 65.737 27.84 114.749 76.806 49.012 48.967 76.878 114.642Q840 500.963 840 575.866q0 75.134-27.839 140.871-27.84 65.738-76.806 114.75-48.967 49.012-114.642 76.763Q555.037 936 480.134 936ZM480 576Zm0 329.231q138.077 0 233.654-95.577T809.231 576q0-138.077-95.577-233.654T480 246.769q-138.077 0-233.654 95.577T150.769 576q0 138.077 95.577 233.654T480 905.231Z"/></svg>