<svg xmlns="http://www.w3.org/2000/svg" width="48" height="48" viewBox="0 -960 960 960"><path d="M135.169-260q-6.631 0-10.9-4.423T120-275.385v-409.23q0-6.539 4.485-10.962T135.6-700q6.631 0 10.9 4.423t4.269 10.962v409.23q0 6.539-4.485 10.962T135.169-260Zm645.985-204.615H270.538q-6.538 0-10.961-4.485-4.423-4.486-4.423-11.116t4.423-10.899q4.423-4.27 10.961-4.27h509.847L617.231-661.077q-4.385-4.385-4-10.231.384-5.846 4.435-9.629 4.462-4.217 10.821-4.217t10.744 4.385l181.575 181.575q3.963 3.963 6.348 8.917t2.385 10.615q0 5.662-2.385 10.277-2.385 4.616-6.348 8.579L638.462-278.461q-4.193 4.384-10.524 4.384-6.331 0-10.865-3.993-4.996-4.007-4.611-11.089.384-7.082 4.769-10.764l163.923-164.692Z"/></svg>