<svg xmlns="http://www.w3.org/2000/svg" width="48" height="48" viewBox="0 -960 960 960"><path d="M494-184.615q-61.077 0-110.115-28.808-49.039-28.808-76.885-79.192-3.385-7.077-.962-14 2.423-6.924 9.193-10.077 5.846-1.923 12.038.269 6.193 2.192 9.808 7.5 24 40.384 63.615 65.115 39.616 24.731 93.308 24.731 55.846 0 99.154-30.077 43.307-30.077 43.307-89.154 0-29.923-8.73-52.73-8.731-22.808-24.962-42.808h39.385q13.231 16.846 21 41t7.769 54.538q0 71.077-51.461 112.385Q568-184.615 494-184.615Zm-378.615-320q-6.847 0-11.116-4.27-4.27-4.269-4.27-11.115t4.27-11.115q4.269-4.27 11.116-4.27h729.23q6.847 0 11.116 4.27Q860-526.846 860-520t-4.269 11.115q-4.269 4.27-11.116 4.27h-729.23Zm200.384-101.539q-1.231-3.385-1.846-7.154t-.615-7.923q-6.923-63 39.461-110.038 46.385-47.039 125.846-47.039 48.077 0 84.116 17.654 36.038 17.654 62.5 52.577 4.615 6.077 2.577 13.615-2.039 7.539-9.808 11.693-4.846 1.923-11.423.231-6.577-1.693-9.885-6.77-18.769-23.846-48.846-39.192-30.077-15.346-70-15.346-65.154 0-101.307 37.077-36.154 37.077-29.231 86.769 0 3.385.231 6.923.23 3.538 1.461 6.923h-33.231Z"/></svg>