<svg xmlns="http://www.w3.org/2000/svg" width="48" height="48" viewBox="0 96 960 960"><path d="M315.385 265.231q-6.789 0-11.087-4.31T300 249.805q0-6.805 4.298-11.075 4.298-4.269 11.087-4.269h329.23q6.789 0 11.087 4.31T660 249.886q0 6.806-4.298 11.075-4.298 4.27-11.087 4.27h-329.23ZM190.538 376q-6.788 0-11.086-4.31t-4.298-11.115q0-6.806 4.298-11.075 4.298-4.27 11.086-4.27h578.924q6.788 0 11.086 4.31t4.298 11.116q0 6.805-4.298 11.075Q776.25 376 769.462 376H190.538Zm-15.154 560q-23.057 0-39.221-16.163Q120 903.673 120 880.616V511.384q0-23.057 16.163-39.221Q152.327 456 175.384 456h609.232q23.057 0 39.221 16.163Q840 488.327 840 511.384v369.232q0 23.057-16.163 39.221Q807.673 936 784.616 936H175.384Zm291.693-151.461 97.769-65.077q12.462-9.086 12.462-23.505 0-14.419-12.462-23.419l-97.769-65.077q-14.231-10-29.077-2.077-14.846 7.923-14.846 24.77v131.923q0 16.846 14.846 24.769 14.846 7.923 29.077-2.307Z"/></svg>