<svg xmlns="http://www.w3.org/2000/svg" width="48" height="48" viewBox="0 -960 960 960"><path d="M767.462-613.846q-11.769 0-19.731-7.962-7.962-7.961-7.962-19.731v-30.769q0-11.769 7.962-19.731Q755.693-700 767.462-700h77.154v-33.846h-92.154q-5.077 0-8.885-3.94-3.808-3.939-3.808-9.192t3.808-9.138q3.808-3.884 8.885-3.884h90.615q11.769 0 19.731 7.961 7.962 7.962 7.962 19.731v30.769q0 11.77-7.962 19.731-7.962 7.962-19.731 7.962h-77.154V-640h92.154q5.077 0 8.885 3.808 3.808 3.807 3.808 8.884 0 5.385-3.808 9.423-3.808 4.039-8.885 4.039h-90.615ZM312.303-200q-10.258 0-14.858-9.269-4.599-9.269.247-18.039l150-231.384-135.231-209.154q-5.615-8.769-.987-18.154t14.895-9.385q4.739 0 8.491 2.017 3.751 2.016 6.294 6.522l133.231 205.23h-.77l135.539-205.999q2.413-4.14 6.386-5.955 3.973-1.815 8.494-1.815 11.098 0 15.647 9.385 4.55 9.385-1.066 18.154L501.077-458.692l150.769 231.384q5.616 8.77.784 18.039Q647.798-200 638.135-200q-4.358 0-8.325-2.016-3.968-2.017-6.656-6.522L473.615-436.307h.77L327.154-208.538q-2.416 4.505-6.394 6.522-3.977 2.016-8.457 2.016Z"/></svg>