<svg xmlns="http://www.w3.org/2000/svg" width="48" height="48" viewBox="0 -960 960 960"><path d="M870-191.54H515.46q-7.31 0-11.34-4.88-4.04-4.89-4.04-10.5 0-5.62 4.04-10.5 4.03-4.89 11.34-4.89H870q6.85 0 11.12 4.27 4.26 4.27 4.26 11.12 0 6.84-4.26 11.11-4.27 4.27-11.12 4.27Zm-482.31-54.15q-26.61 27.38-62.19 41.15t-73.12 13.77h-24q-15 0-30.07-3.46-15.08-3.46-28.7-9.39-9.53-2.69-14.69-10.8-5.15-8.12-5.15-17.89 0-6.46 2.34-12.54 2.35-6.07 7.58-11.3l151.23-151q8.23-8.23 19.46-8.23 11.24 0 19.47 8.23l56.07 56.07q8.62 8.62 13.93 19.31 5.3 10.69 5.3 23t-4.92 23.5q-4.92 11.19-13.54 19.81l-19 19.77Zm97.77-150.54Q477.23-388 466-388t-19.46-8.23l-54.16-54.15q-8.23-8.24-8.23-19.47 0-11.23 8.23-19.46l263.39-263.38q4.69-4.7 10-6.93 5.31-2.23 11.23-2.23 5.92 0 11.12 2.23 5.19 2.23 9.88 6.93l50.85 50.84q4.69 4.7 6.92 9.5 2.23 4.81 2.23 11.12t-2.23 11.61q-2.23 5.31-6.92 10L485.46-396.23Z"/></svg>