<svg xmlns="http://www.w3.org/2000/svg" width="48" height="48" viewBox="0 96 960 960"><path d="M580.154 614.154 680.308 514q8.231-8.231 8.231-19.077 0-10.846-8.231-19.846L579.385 373.923q-3.832-4.154-9.724-2.077t-11.905 3.013q-4.987 4.987-4.987 11.064t5.154 11.231l82 82H454.385q-5.846 0-10.116 4.296Q440 487.746 440 494.565q0 6.82 4.288 11.089 4.289 4.269 11.097 4.269h184.538l-83 83q-4.384 4.245-4.384 10.161 0 5.916 5.551 11.237 3.987 4.987 10.449 4.987 6.461 0 11.615-5.154ZM380.846 781.462q4.063 4.384 10.454 4.384 6.392 0 11.944-5.552 3.987-3.986 3.987-10.448 0-6.461-4.154-11.615l-83-82h185.538q5.846 0 10.116-4.296Q520 667.638 520 660.819t-4.288-11.088q-4.289-4.27-11.097-4.27H320.077l83-82.999q4.384-4.245 4.384-10.161 0-5.916-4.551-11.238-4.987-4.217-11.449-4.217-6.461 0-10.615 4.385L279.692 641.385q-8.231 9-8.231 19.846t8.231 19.077l101.154 101.154ZM480.134 936q-74.442 0-139.794-28.339-65.353-28.34-114.481-77.422-49.127-49.082-77.493-114.373Q120 650.575 120 576.134q0-74.442 28.339-139.794 28.34-65.353 77.422-114.481 49.082-49.127 114.373-77.493Q405.425 216 479.866 216q74.442 0 139.794 28.339 65.353 28.34 114.481 77.422 49.127 49.082 77.493 114.373Q840 501.425 840 575.866q0 74.442-28.339 139.794-28.34 65.353-77.422 114.481-49.082 49.127-114.373 77.493Q554.575 936 480.134 936Z"/></svg>