<svg xmlns="http://www.w3.org/2000/svg" width="48" height="48" viewBox="0 -960 960 960"><path d="M440.23-260q-6.54 0-10.96-4.49-4.42-4.48-4.42-11.11 0-6.63 4.42-10.9 4.42-4.27 10.96-4.27h161.23q6.54 0 10.96 4.49 4.43 4.48 4.43 11.11 0 6.63-4.43 10.9Q608-260 601.46-260H440.23Zm-198.46-51.15 368.72-368.62q4.37-4.38 10.56-4.65 6.2-.27 10.96 4.72 4.76 5 4.76 10.85t-4.39 10.54L261.13-287.15q-8.98 8.23-19.83 8.23-10.85 0-18.99-8.23L54.46-455.19q-4.38-4.45-4.65-10.58-.27-6.12 4.34-10.87 4.61-4.74 10.62-4.74 6 0 11.15 4.38l165.85 165.85Zm359.69-116.16q-6.54 0-10.96-4.33-4.42-4.33-4.42-10.73t4.42-11.05q4.42-4.66 10.96-4.66h161.92q6.54 0 10.97 4.86 4.42 4.86 4.42 11.26 0 6.4-4.42 10.52-4.43 4.13-10.97 4.13H601.46Zm161.92-166.54q-6.53 0-10.96-4.48-4.42-4.49-4.42-11.12 0-6.63 4.42-10.9 4.43-4.27 10.96-4.27h161.24q6.53 0 10.96 4.49 4.42 4.48 4.42 11.12 0 6.63-4.42 10.89-4.43 4.27-10.96 4.27H763.38Z"/></svg>