<svg xmlns="http://www.w3.org/2000/svg" width="48" height="48" viewBox="0 -960 960 960"><path d="M479.867-119.692q-5.867 0-10.482-2-4.616-2-8.847-6.231L358.461-230q-4.384-4.385-4.769-11.158-.384-6.773 4.378-11 4.776-4.996 10.722-4.996t10.9 5.154l84.923 84.923v-252.384q-69-8.616-116.807-57.424Q300-525.692 300-600q0-74.539 52.731-127.269Q405.461-780 480-780q74.539 0 127.269 52.731Q660-674.539 660-600q0 74.308-47.808 123.115-47.807 48.808-116.807 57.424v252.384L580.308-252q4.384-4.385 10.715-4.769 6.331-.385 10.516 4.769 5.153 5.154 5.153 11t-5.153 11L499.462-127.923q-4.231 4.231-8.98 6.231-4.749 2-10.615 2Zm-.102-331.077q62.081 0 105.773-43.457 43.693-43.457 43.693-105.539 0-62.081-43.457-105.773-43.457-43.693-105.539-43.693-62.081 0-105.773 43.457-43.693 43.457-43.693 105.539 0 62.081 43.457 105.773 43.457 43.693 105.539 43.693ZM480-600Z"/></svg>