<svg xmlns="http://www.w3.org/2000/svg" width="48" height="48" viewBox="0 -960 960 960"><path d="M600-300q-74.308 0-123.115-47.808-48.808-47.807-57.424-116.807H167.077L252-380.462q5.154 4.385 4.769 10.616-.384 6.231-4.769 10.615-5.154 5.154-11.385 5.539-6.23.384-11.384-4.769L127.154-460.538q-4.231-4.231-5.846-8.847Q119.692-474 119.692-480t1.616-10.615q1.615-4.616 5.846-8.847L230-602.308q5.154-5.154 11.385-4.769 6.23.385 10.615 5.538 4.385 4.385 4.769 10.231.385 5.846-4.769 11l-84.923 84.923h252.384q8.616-69 57.424-116.807Q525.692-660 600-660q74.539 0 127.269 52.231Q780-555.539 780-480q0 74.308-52.731 127.154Q674.539-300 600-300Zm0-30.769q61.846 0 105.538-43.808Q749.231-418.385 749.231-480q0-62.077-43.693-105.654Q661.846-629.231 600-629.231t-105.538 43.577Q450.769-542.077 450.769-480q0 61.615 43.693 105.423Q538.154-330.769 600-330.769ZM600-480Z"/></svg>