<svg xmlns="http://www.w3.org/2000/svg" width="48" height="48" viewBox="0 -960 960 960"><path d="M330.209-760q-9.363 0-14.594-5.804-5.231-5.805-5.231-14.385t5.407-14.196Q321.197-800 330.175-800q8.979 0 14.594 5.804 5.616 5.804 5.616 14.385 0 8.58-5.801 14.195-5.8 5.616-14.375 5.616Zm300 0q-9.363 0-14.594-5.804-5.23-5.805-5.23-14.385t5.406-14.196Q621.197-800 630.176-800q8.978 0 14.593 5.804 5.616 5.804 5.616 14.385 0 8.58-5.801 14.195-5.8 5.616-14.375 5.616ZM179.811-610.385q-8.58 0-14.196-5.406Q160-621.197 160-630.176q0-8.978 5.804-14.593 5.804-5.616 14.385-5.616 8.58 0 14.195 5.801 5.616 5.8 5.616 14.375 0 9.363-5.804 14.594-5.805 5.23-14.385 5.23Zm600 0q-8.58 0-14.195-5.406Q760-621.197 760-630.176q0-8.978 5.804-14.593 5.805-5.616 14.385-5.616t14.196 5.801q5.615 5.8 5.615 14.375 0 9.363-5.804 14.594-5.804 5.23-14.385 5.23Zm-600 300.001q-8.58 0-14.196-5.407Q160-321.197 160-330.175q0-8.979 5.804-14.594 5.804-5.616 14.385-5.616 8.58 0 14.195 5.801 5.616 5.8 5.616 14.375 0 9.363-5.804 14.594-5.805 5.231-14.385 5.231Zm600 0q-8.58 0-14.195-5.407Q760-321.197 760-330.175q0-8.979 5.804-14.594 5.805-5.616 14.385-5.616t14.196 5.801q5.615 5.8 5.615 14.375 0 9.363-5.804 14.594t-14.385 5.231ZM330.209-160q-9.363 0-14.594-5.804t-5.231-14.385q0-8.58 5.407-14.195Q321.197-200 330.175-200q8.979 0 14.594 5.804 5.616 5.805 5.616 14.385t-5.801 14.196q-5.8 5.615-14.375 5.615Zm300 0q-9.363 0-14.594-5.804-5.23-5.804-5.23-14.385 0-8.58 5.406-14.195Q621.197-200 630.176-200q8.978 0 14.593 5.804 5.616 5.805 5.616 14.385t-5.801 14.196q-5.8 5.615-14.375 5.615Zm-264.44-150.384q-22.846 0-39.115-16.27-16.27-16.269-16.27-39.115V-595q0-22.25 16.27-38.817 16.269-16.568 39.115-16.568H595q22.25 0 38.817 16.568Q650.385-617.25 650.385-595v229.231q0 22.846-16.568 39.115-16.567 16.27-38.817 16.27H365.769Zm0-30.77H595q10 0 17.308-6.923 7.307-6.923 7.307-17.692V-595q0-10-7.307-17.308Q605-619.615 595-619.615H365.769q-10.769 0-17.692 7.307Q341.154-605 341.154-595v229.231q0 10.769 6.923 17.692t17.692 6.923ZM480-480Z"/></svg>