<svg xmlns="http://www.w3.org/2000/svg" width="48" height="48" viewBox="0 -960 960 960"><path d="M549.538-793q-81 50.923-127.423 133.101-46.423 82.179-46.423 178.437 0 100.862 50.427 185.737 50.427 84.876 138.035 133.494 6.385 3.154 9.577 9.885T573.385-140q-3.539 6.385-11.312 7.077-7.772.692-14.842-2.461-93.385-53.077-147.846-145.039-54.462-91.962-54.462-199.269 0-99.364 47-186.913t130.154-142.626h-167q-6.577 0-10.981-4.458t-4.404-11.115q0-6.658 4.404-10.927Q348.5-840 355.077-840h197.538q11.962 0 19.827 7.865 7.866 7.866 7.866 19.827V-614q0 6.577-4.458 10.981-4.459 4.404-11.116 4.404t-10.926-4.404q-4.27-4.404-4.27-10.981v-179Z"/></svg>