<svg xmlns="http://www.w3.org/2000/svg" width="48" height="48" viewBox="0 -960 960 960"><path d="M840-812.308v64.154q0 6-2 10.616-2 4.615-6.231 8.846L614-510.154Q609.616-505 603-505q-6.615 0-11-4.384-5.154-5.154-5.154-11.501 0-6.346 5.154-10.73l217.231-218v-59.616h-59.616L531.154-592q-4.385 4.154-10.616 4.654-6.23.5-11.384-4.654-4.154-4.154-4.039-10.615.116-6.462 4.269-10.616l219.308-218.538q4.231-4.231 8.846-6.231 4.616-2 10.616-2h64.154q12.231 0 19.961 7.731 7.731 7.73 7.731 19.961ZM165.923-127.077l-39.616-39.615q-9-8.231-9-19.462t9-19.461l125.539-125.539-80.077-80.077q-3.615-3.615-3.615-7.923 0-4.307 3.615-7.923l10.462-10.462Q197.692-453 220.269-453q22.577 0 39.039 15.461l36.923 37.462L345-448.846q4.384-4.385 10.731-4.77 6.346-.384 11.269 4.77 4.154 4.923 4.038 11-.115 6.077-5.038 11l-48 48 59.615 60.385 48-48.77q4.385-3.615 11.116-4 6.731-.384 11.115 4Q453-362.077 453-355.615q0 6.461-5.154 11.615l-47.769 47.769 36.692 36.154q15.462 16.462 15.462 39.039T436.769-183l-10.461 10.462q-3.616 3.615-7.923 3.615-4.308 0-7.924-3.615l-80.076-80.077-125.539 125.538q-8.231 9-19.461 9-11.231 0-19.462-9Zm661.308-254.231q8.769-38.846-3-75.846-11.769-37-30.154-71.077-30.615 25.539-55.077 54.654-24.461 29.115-32.461 68.962-7.769 38.076 3.5 74.461t29.654 70.462q32.153-23 55.461-52.885 23.308-29.885 32.077-68.731ZM200.692-619.692q26.231 26.231 62.616 29.577 36.384 3.346 66.077-17.5l-40.077-39.077q-27.231-27.769-63.539-31.269-36.307-3.5-66.846 17.269l41.769 41ZM280-818.615 155.154-695.539q38.615-18.692 81.077-11.846 42.461 6.846 74.308 38.693l39.307 40.077q21.846-29.693 19.654-66.693t-29.192-64L280-818.615Zm532.615 694.231L349.846-586.923q-38.461 29.616-87.423 27.039-48.962-2.577-83.962-37.577l-62.077-63.077q-4.23-4.231-6.23-8.847-2-4.615-2-10.615t2-10.615q2-4.616 6.23-8.847l144.154-143.923q4.231-4.231 8.847-6.231 4.615-2 10.615-2t10.615 2.385q4.616 2.385 8.847 6.615l62.077 62.077q35.769 35.77 38.23 84.847 2.462 49.077-28.692 87.538L689.462-290q-12.231-29.692-15.962-60.385-3.731-30.692 2.5-61.615 9.462-44.769 37.539-80.769 28.077-36 64.846-60.924 10-6 21.115-3.5 11.116 2.5 17.346 12.5 24.077 37.077 36.731 80.654t3.193 87.577q-8.693 46.308-37.808 83.077-29.116 36.77-69.423 61.924l85.077 85.076Q839-142 839.385-135.384q.384 6.615-4.769 11-4.385 4.384-11 4.384-6.616 0-11.001-4.384ZM288.154-670.308Z"/></svg>