<svg xmlns="http://www.w3.org/2000/svg" width="48" height="48" viewBox="0 -960 960 960"><path d="M210.769-475.462q0 65.402 28.654 120.509t105.269 115.876v-117.846q0-6.539 4.485-10.962 4.486-4.423 11.116-4.423t10.899 4.423q4.27 4.423 4.27 10.962v143.077q0 11.769-7.962 19.731-7.961 7.961-19.731 7.961H204.692q-6.538 0-10.961-4.485t-4.423-11.115q0-6.631 4.423-10.9t10.961-4.269h117.692q-77.076-64.154-109.73-123.885Q180-400.538 180-475.74q0-85.645 44.577-159.529 44.577-73.885 123.115-112.808 6.385-2.692 12.27-.885 5.884 1.808 8.077 7.423 2.961 6.385.386 12.521-2.576 6.135-8.733 8.787-65.846 32.77-107.384 98.892-41.539 66.123-41.539 145.877ZM764.606-469q-6.736 0-11.209-4.279-4.474-4.279-3.628-11.106-1.231-60.538-30.192-116.615-28.962-56.077-102.808-119.154v117.077q0 6.539-4.485 10.962t-11.115 4.423q-6.631 0-10.9-4.423T586-603.077v-143.077q0-11.769 7.961-19.731 7.962-7.961 19.731-7.961h143.077q6.539 0 10.962 4.485t4.423 11.115q0 6.631-4.423 10.9t-10.962 4.269H638.077Q718.769-674 749.539-608.192q30.769 65.807 31.23 123.577-.769 6.846-5.099 11.23Q771.341-469 764.606-469ZM643.231-90.77q-13.923 0-25.423-11.05-11.5-11.05-11.5-25.646V-234.48q0-14.596 11.5-25.597 11.5-11 25.423-11h4.846v-39.769q0-30.385 20.423-51.193 20.423-20.807 50.808-20.807 30.384 0 51.192 20.807 20.808 20.808 20.808 51.193v39.769h4.077q15.038 0 25.211 11.045 10.173 11.044 10.173 25.632v106.954q0 14.588-11.115 25.632-11.115 11.045-25.808 11.045H643.231Zm35.615-180.307h81.692v-39.769q0-17.462-11.884-29.346-11.885-11.885-29.346-11.885-17.462 0-28.962 11.885-11.5 11.884-11.5 29.346v39.769Z"/></svg>