<svg xmlns="http://www.w3.org/2000/svg" width="48" height="48" viewBox="0 -960 960 960"><path d="M330.38-270.38q-24.43 0-41.83-16.95-17.4-16.94-17.4-41.52v-452.69q0-24.58 17.4-41.52Q305.95-840 330.38-840h451.16q24.11 0 41.29 17.17Q840-805.65 840-781.54v452.69q0 24.12-17.17 41.29-17.18 17.18-41.29 17.18H330.38Zm0-30.77h451.16q11.54 0 19.61-7.7 8.08-7.69 8.08-20v-343.46H563.08q-11.77 0-19.73-7.85-7.97-7.85-7.97-19.46v-109.61h-205q-12.3 0-20.38 8.08-8.08 8.07-8.08 19.61v452.69q0 12.31 8.08 20 8.08 7.7 20.38 7.7Zm-28.46-508.08v508.08-508.08ZM140.58-720q-8.58 0-14.2-6-5.61-5.99-5.61-14.19 0-8.19 5.8-14 5.81-5.81 14.39-5.81 8.58 0 14.19 6 5.62 5.99 5.62 14.19 0 8.19-5.81 14-5.8 5.81-14.38 5.81Zm136 594.2q-5.43-5.81-5.43-14.39 0-8.58 5.6-14.19 5.6-5.62 14.03-5.62 8.42 0 14.4 5.8 5.97 5.81 5.97 14.39 0 8.58-6.15 14.19-6.15 5.62-14.58 5.62-8.42 0-13.84-5.8Zm150 0q-5.81-5.81-5.81-14.39 0-8.58 6-14.19 5.99-5.62 14.19-5.62 8.19 0 14 5.8 5.81 5.81 5.81 14.39 0 8.58-6 14.19-5.99 5.62-14.19 5.62t-14-5.8Zm150 0q-5.43-5.81-5.43-14.39 0-8.58 5.6-14.19 5.6-5.62 14.03-5.62 8.42 0 14.4 5.8 5.97 5.81 5.97 14.39 0 8.58-6.15 14.19-6.15 5.62-14.57 5.62-8.43 0-13.85-5.8Zm-436-444.58q-8.58 0-14.2-5.6-5.61-5.6-5.61-14.03 0-8.42 5.8-14.4 5.81-5.97 14.39-5.97 8.58 0 14.19 6.15 5.62 6.15 5.62 14.57 0 8.43-5.81 13.85-5.8 5.43-14.38 5.43Zm0 150.38q-8.58 0-14.2-6-5.61-5.99-5.61-14.19 0-8.19 5.8-14 5.81-5.81 14.39-5.81 8.58 0 14.19 6 5.62 5.99 5.62 14.19 0 8.19-5.81 14-5.8 5.81-14.38 5.81Zm0 149.62q-8.58 0-14.2-5.6-5.61-5.6-5.61-14.03 0-8.42 5.8-14.4 5.81-5.97 14.39-5.97 8.58 0 14.19 6.15 5.62 6.15 5.62 14.57 0 8.43-5.81 13.85-5.8 5.43-14.38 5.43Zm0 150.38q-8.58 0-14.2-5.8-5.61-5.81-5.61-14.39 0-8.58 5.8-14.19 5.81-5.62 14.39-5.62 8.58 0 14.19 5.8 5.62 5.81 5.62 14.39 0 8.58-5.81 14.19-5.8 5.62-14.38 5.62Zm586-5.8q-5.81-5.81-5.81-14.39 0-8.58 6-14.19 5.99-5.62 14.19-5.62 8.19 0 14 5.8 5.81 5.81 5.81 14.39 0 8.58-6 14.19-5.99 5.62-14.19 5.62t-14-5.8Z"/></svg>