<svg xmlns="http://www.w3.org/2000/svg" width="48" height="48" viewBox="0 -960 960 960"><path d="M480-458.769 583.769-355q4.385 4.385 10.616 4 6.23-.385 10.615-4.769 4.385-4.385 4.385-10.616 0-6.23-4.385-10.615L501.231-480 605-583.769q4.385-4.385 4.385-10.616 0-6.23-4.385-10.615t-10.615-4.385q-6.231 0-10.616 4.385L480-501.231 376.231-605q-4.385-4.385-10.231-4.385T355.769-605q-4.384 4.385-4.384 10.615 0 6.231 4.384 10.616l103 103.769L355-376.231q-4.385 4.385-4 10.231.385 5.846 4.769 10.231 4.385 4.384 10.616 4.384 6.23 0 10.615-4.384l103-103Zm351.923 280.461H646.308q-6.577 0-10.981-4.458t-4.404-11.115q0-6.657 4.404-10.927 4.404-4.269 10.981-4.269h185.615l-75.846-78.384q-4.154-4.385-4.269-10.462-.116-6.077 4.269-10.769 4.385-4.385 10.615-4.385 6.231 0 10.616 4.385l94.769 95.538q8.231 8.371 8.231 19.532t-8.231 19.391l-95.538 95.539q-4.385 4.384-10.616 4-6.231-.385-10.615-4.77-4.385-4.384-4.27-10.23.116-5.847 4.27-10.231l76.615-78.385Zm-641.154-12.461v-578.462 578.462ZM215.384-160q-23.057 0-39.221-16.163Q160-192.327 160-215.384v-529.232q0-23.057 16.163-39.221Q192.327-800 215.384-800h529.232q23.057 0 39.221 16.163Q800-767.673 800-744.616v318.308q0 6.827-4.458 10.606t-11.115 3.779q-6.658 0-10.927-4.404-4.269-4.404-4.269-10.981v-317.308q0-9.23-7.692-16.923-7.693-7.692-16.923-7.692H215.384q-9.23 0-16.923 7.692-7.692 7.693-7.692 16.923v529.232q0 9.23 7.692 16.923 7.693 7.692 16.923 7.692h318.308q6.577 0 10.981 4.458t4.404 11.115q0 6.658-4.404 10.927Q540.269-160 533.692-160H215.384Z"/></svg>