<svg xmlns="http://www.w3.org/2000/svg" width="48" height="48" viewBox="0 0 48 48"><path d="M14.85 34.9q-1.15 0-1.95-.8t-.8-1.95V8.75q0-1.15.8-1.95t1.95-.8h23.4q1.15 0 1.95.8t.8 1.95v23.4q0 1.15-.8 1.95t-1.95.8Zm0-1.5h23.4q.45 0 .825-.4.375-.4.375-.85V14.1H27.9q-.6 0-.975-.4t-.375-1V7.55h-11.7q-.45 0-.85.375-.4.375-.4.825v23.4q0 .45.4.85.4.4.85.4ZM9.75 40q-1.15 0-1.95-.8T7 37.25V13.1q0-.35.225-.575.225-.225.575-.225.3 0 .525.225.225.225.225.575v24.15q0 .45.375.825.375.375.825.375H33.9q.35 0 .575.225.225.225.225.575 0 .3-.225.525Q34.25 40 33.9 40ZM13.6 7.55V33.4 7.55Z"/></svg>