<svg xmlns="http://www.w3.org/2000/svg" width="48" height="48" viewBox="0 -960 960 960"><path d="M723.154-83.154q65.154 0 111-45.846Q880-174.846 880-240t-45.846-111q-45.846-45.846-111-45.846t-111 45.846q-45.847 45.846-45.847 111t45.847 111q45.846 45.846 111 45.846Zm13.923-160.384 65.643 63.139q4.742 4.091 5.242 10.168.5 6.077-4.731 10.539-4.231 5-10.692 4.731-6.462-.27-9.924-3.731l-68.307-65.385q-4.231-3.782-6.346-9.087-2.116-5.305-2.116-10.605v-98.682q0-6.934 4.462-11.395 4.461-4.462 11.154-4.462 6.692 0 11.153 4.462 4.462 4.461 4.462 11.391v98.917ZM175.384-200q-23.057 0-39.221-16.163Q120-232.327 120-255.384v-449.232q0-23.057 16.163-39.221Q152.327-760 175.384-760h609.232q23.057 0 39.221 16.163Q840-727.673 840-704.616v242.539q0 6.577-4.458 10.981t-11.115 4.404q-6.658 0-10.927-4.379-4.269-4.379-4.269-11.006v-136.384h-230.77q-11.961 0-19.827-7.866-7.865-7.865-7.865-19.827v-103.077H175.384q-9.23 0-16.923 7.692-7.692 7.693-7.692 16.923v449.232q0 9.23 7.692 16.923 7.693 7.692 16.923 7.692h305.77q5.827 0 10.605 4.458 4.779 4.458 4.779 11.115 0 6.658-4.779 10.927Q486.981-200 481.154-200h-305.77Zm-24.615-55.384v-473.847 498.462-24.615Z"/></svg>