<svg xmlns="http://www.w3.org/2000/svg" width="48" height="48" viewBox="0 0 48 48"><path d="M36.15 43.85q-3.25 0-5.55-2.3T28.3 36q0-3.25 2.3-5.55t5.55-2.3q3.25 0 5.55 2.3T44 36q0 3.25-2.3 5.55t-5.55 2.3Zm.7-8.05v-4.9q0-.35-.225-.575-.225-.225-.575-.225-.3 0-.525.225-.225.225-.225.575v4.9q0 .3.1.55.1.25.3.45l3.45 3.25q.15.2.475.2.325 0 .525-.25.25-.2.225-.5-.025-.3-.225-.55ZM8.75 38H25q-.1-.35-.125-.75-.025-.4-.025-.8H8.75q-.45 0-.825-.375-.375-.375-.375-.825v-22.5q0-.45.375-.825.375-.375.825-.375h18.8v5.15q0 .6.375 1t.975.4h11.55v7.3q.45.15.825.35.375.2.725.4v-13.4q0-1.15-.8-1.95t-1.95-.8H8.75q-1.15 0-1.95.8T6 12.75v22.5q0 1.15.8 1.95t1.95.8Zm-1.2-2.75v1.2-24.9 23.7Z"/></svg>