<svg xmlns="http://www.w3.org/2000/svg" width="48" height="48" viewBox="0 -960 960 960"><path d="M310.77-120h221.54v-183.38H255.38v128q0 22.25 16.57 38.81Q288.52-120 310.77-120Zm252.31 0h221.54q22.25 0 38.81-16.57Q840-153.13 840-175.38v-128H563.08V-120ZM135.17-272.46q-6.63 0-10.9-4.42-4.27-4.43-4.27-10.97v-496.77q0-23.05 16.16-39.22Q152.33-840 175.38-840h496.77q6.54 0 10.97 4.48 4.42 4.49 4.42 11.12 0 6.63-4.42 10.9-4.43 4.27-10.97 4.27H175.38q-10.76 0-17.69 6.92-6.92 6.93-6.92 17.69v496.77q0 6.54-4.49 10.97-4.48 4.42-11.11 4.42Zm120.21-61.69h276.93v-185.7H255.38v185.7Zm307.7 0H840v-185.7H563.08v185.7Zm-307.7-216.47H840v-98.61q0-22.25-16.57-38.82-16.56-16.57-38.81-16.57H310.77q-22.25 0-38.82 16.57t-16.57 38.82v98.61Z"/></svg>