<svg xmlns="http://www.w3.org/2000/svg" width="48" height="48" viewBox="0 96 960 960"><path d="M375.384 896q-22.25 0-38.817-16.567T320 840.616V471.384q0-22.25 16.567-38.817T375.384 416h369.232q22.25 0 38.817 16.567T800 471.384v369.232q0 22.25-16.567 38.817T744.616 896H375.384Zm15.308-330.923h338.616q16.442 0 28.182-11.713 11.741-11.714 11.741-28.116v-38.461q0-16.402-11.741-28.21-11.74-11.808-28.182-11.808H390.692q-16.442 0-28.182 11.713-11.741 11.714-11.741 28.116v38.461q0 16.402 11.741 28.21 11.74 11.808 28.182 11.808Zm109.154 151.077h120.308V595.846H499.846v120.308Zm0 149.077h120.308V746.923H499.846v118.308ZM350.769 716.154h118.308V595.846H350.769v120.308Zm300.154 0h118.308V595.846H650.923v120.308ZM375.384 865.231h93.693V746.923H350.769v93.693q0 10.769 6.923 17.692t17.692 6.923Zm275.539 0h93.693q10.769 0 17.692-6.923t6.923-17.692v-93.693H650.923v118.308ZM215.384 736q-22.25 0-38.817-16.567T160 680.616V311.384q0-22.25 16.567-38.817T215.384 256h369.232q22.25 0 38.817 16.567T640 311.384v69.231h-30.769v-69.231q0-10.769-6.923-17.692t-17.692-6.923H215.384q-10.769 0-17.692 6.923t-6.923 17.692v369.232q0 10.769 6.923 17.692t17.692 6.923h69.231V736h-69.231Z"/></svg>