<svg xmlns="http://www.w3.org/2000/svg" width="48" height="48" viewBox="0 -960 960 960"><path d="M280-70.77V-440h-93.846q-31.677 0-53.531-21.841t-21.854-53.616q0-31.774 21.854-53.543t53.531-21.769H280v-58.462h-93.846q-31.677 0-53.531-21.841t-21.854-53.616q0-31.774 21.854-53.543T186.154-800H280v-89.231q0-6.538 4.485-10.961t11.115-4.423q6.631 0 10.9 4.423t4.269 10.961V-800h93.846q31.662 0 53.524 21.849Q480-756.302 480-724.659q0 31.659-21.861 53.544-21.862 21.884-53.524 21.884h-93.846v58.462h93.846q31.662 0 53.524 21.849Q480-547.071 480-515.428q0 31.659-21.861 53.544Q436.277-440 404.615-440h-93.846v369.23q0 6.54-4.485 10.962-4.485 4.423-11.115 4.423-6.631 0-10.9-4.423T280-70.769Zm-93.846-399.999h218.461q18.385 0 31.5-13.154 13.116-13.154 13.116-31.462 0-18.384-13.116-31.499Q423-560 404.615-560H186.154q-18.308 0-31.462 13.116-13.154 13.115-13.154 31.384t13.154 31.5q13.154 13.231 31.462 13.231Zm0-209.231h218.461q18.385 0 31.5-13.154 13.116-13.154 13.116-31.461 0-18.385-13.116-31.5-13.115-13.116-31.5-13.116H186.154q-18.308 0-31.462 13.116-13.154 13.115-13.154 31.384t13.154 31.5Q167.846-680 186.154-680ZM689.231-86.154v-334q-53.693-12.538-89.154-50.923-35.462-38.384-35.462-88.923v-316.923q0-11.769 7.962-19.731 7.961-7.961 19.731-7.961h224.615q11.77 0 19.731 7.961 7.962 7.962 7.962 19.731v317.358q0 49.364-35.462 88.119-35.461 38.754-89.154 51.292v334h69.231q6.538 0 10.962 4.485 4.423 4.485 4.423 11.116 0 6.63-4.423 10.9-4.424 4.268-10.962 4.268H620q-6.538 0-10.962-4.485-4.423-4.485-4.423-11.115t4.423-10.9q4.424-4.269 10.962-4.269h69.231Zm15.534-364.615q44.927 0 77.004-32.183 32.077-32.183 32.077-77.048v-109.231H595.385v109.381q0 44.927 32.226 77.004 32.227 32.077 77.154 32.077Zm-109.38-240h218.461v-183.077H595.385v183.077Zm-453.847 220V-560v89.231Zm0-209.231v-89.231V-680Zm563.077 10.769Z"/></svg>