<svg xmlns="http://www.w3.org/2000/svg" width="48" height="48" viewBox="0 -960 960 960"><path d="M680.27-668.33q4.11-3.94 4.11-10.54v-83.82q0-5.39-4.23-9.66-4.23-4.27-10.69-4.27-6.46 0-10.19 4.39-3.73 4.38-3.73 10.9v82.66q0 6.52 4.23 10.4 4.23 3.89 10.31 3.89 6.07 0 10.19-3.95Zm-10.31 80.48q7.96 0 13.31-5.61 5.35-5.62 6.11-13.69 0-8.54-5.83-13.93-5.83-5.38-13.09-5.38-9.46.23-14.58 5.46-5.11 5.23-5.11 13.58 0 8.34 5.61 13.96 5.62 5.61 13.58 5.61Zm-39.3 298.47q17.8 0 29.84-12.47t12.04-29.79q0-18.15-12.47-30.26Q647.6-374 630.53-374q-17.9 0-30.26 12.21-12.35 12.22-12.35 30.27 0 18.06 12.47 30.1 12.46 12.04 30.27 12.04Zm-380.23 0q17.8 0 29.84-12.47t12.04-29.79q0-18.15-12.47-30.26Q267.37-374 250.3-374q-17.9 0-30.26 12.21-12.35 12.22-12.35 30.27 0 18.06 12.47 30.1 12.46 12.04 30.27 12.04ZM668.92-528q-64.97 0-110.64-45.66-45.66-45.67-45.66-111.5 0-64.73 45.64-109.79Q603.91-840 669.32-840q65.44 0 110.37 45.12 44.93 45.11 44.93 110.5 0 65.38-45.36 110.88T668.92-528ZM134.97-120q-6.59 0-10.78-4.49-4.19-4.48-4.19-10.89v-286.31q0-4.67.5-9.34.5-4.66 2.46-8.62l76.66-224.97q2.69-7.07 9.34-11.23 6.66-4.15 14.42-4.15H363v-45.31q0-7.42 5.53-13.32 5.53-5.91 13.7-5.91h21.85q11.44 0 18.45 9 7.01 8.99 5.32 20.16-1.93 9.3-2.5 18.95-.58 9.65-.58 19.2.77 11.68-6.66 19.84t-18.57 8.16H228l-65 187.54h387.15q2.58 0 6.87.84 4.29.85 7.48 2.93 26.04 14.07 53.08 20.5 27.04 6.42 55.88 6.42 13.48 0 27.47-1.35 13.99-1.34 27.15-5.57 12.23-3.23 22.07 3.41 9.85 6.64 9.85 18.28v280.85q0 6.41-4.61 10.89-4.61 4.49-11.19 4.49-6.58 0-10.78-4.49-4.19-4.48-4.19-10.89v-66.31H150.77v66.31q0 6.41-4.61 10.89-4.61 4.49-11.19 4.49Z"/></svg>