<svg xmlns="http://www.w3.org/2000/svg" width="48" height="48" viewBox="0 -960 960 960"><path d="M150.769-232.461v-206.924 206.924Zm479.887-56.924q17.806 0 29.844-12.469 12.039-12.469 12.039-29.789 0-18.152-12.47-30.254Q647.6-374 630.529-374q-17.903 0-30.254 12.215-12.352 12.215-12.352 30.269 0 18.055 12.464 30.093t30.269 12.038Zm-380.231 0q17.806 0 29.844-12.469 12.039-12.469 12.039-29.789 0-18.152-12.47-30.254Q267.369-374 250.299-374q-17.904 0-30.255 12.215-12.352 12.215-12.352 30.269 0 18.055 12.464 30.093t30.269 12.038ZM668.924-528q-64.975 0-110.642-45.662-45.667-45.663-45.667-111.501 0-64.729 45.646-109.783Q603.906-840 669.315-840q65.447 0 110.374 44.927 44.927 44.927 44.927 110.688 0 65.385-45.359 110.885T668.924-528Zm1.153-136.385q5.769 0 10.039-3.945 4.269-3.945 4.269-10.538v-83.824q0-5.385-4.385-9.654-4.384-4.27-10.538-4.27t-10.039 4.385q-3.884 4.385-3.884 10.901v82.66q0 6.516 4.384 10.401 4.385 3.884 10.154 3.884Zm-.115 76.539q7.961 0 13.307-5.615 5.347-5.616 6.116-13.693 0-8.538-5.831-13.923-5.831-5.384-13.092-5.384-9.462.23-14.577 5.461-5.116 5.231-5.116 13.577t5.616 13.962q5.615 5.615 13.577 5.615ZM120-421.692q0-4.667.5-9.334.5-4.666 2.462-8.62l76.653-224.97q2.692-7.077 9.346-11.23Q215.615-680 223.385-680H363v-24.805q0-11.849 7.961-19.676 7.962-7.827 19.731-7.827h21q7.039 0 11.327 5.308 4.289 5.307 3.391 12.45-.948 8.088-1.295 15.45-.346 7.361-.346 14.523v12.485q.77 9.967-4.875 16.414-5.645 6.447-14.817 6.447H228l-65 187.538h338.692q6.539 0 10.962 4.486 4.423 4.485 4.423 11.115t-4.423 10.9q-4.423 4.269-10.962 4.269H150.769v198.462h578.462v-191q0-6.539 4.485-10.962t11.115-4.423q6.631 0 10.9 4.423T760-423.461v288.076q0 6.411-4.608 10.898Q750.783-120 744.199-120t-10.776-4.487q-4.192-4.487-4.192-10.898v-66.307H150.769v66.307q0 6.411-4.608 10.898Q141.552-120 134.968-120t-10.776-4.487Q120-128.974 120-135.385v-286.307Z"/></svg>