<svg xmlns="http://www.w3.org/2000/svg" width="48" height="48" viewBox="0 -960 960 960"><path d="m326.769-681.539 130.769-175.692q4.231-6 10.231-8.615 6-2.616 12.231-2.616t12.231 2.616q6 2.615 10.231 8.615l130.769 175.692H326.769Zm-66.769 160v-103.23q-41-9.231-70.231-32.154-29.231-22.923-42-59.154-2.692-7.077 1.308-12.692 4-5.616 12.538-5.616 4.385 0 9.039 2.923t6.346 7.77q12.308 28.615 38.538 48.461 26.231 19.846 58.847 19.846h411.23q32.616 0 58.847-19.846 26.23-19.846 38.538-48.461 1.692-4.847 6.077-7.77 4.385-2.923 9.538-2.923 8.308 0 12.308 5.616 4 5.615 1.308 12.692-12 35.462-41.231 58.769-29.231 23.308-71 32.539v103.23H260Zm-49.231 421.54q-12.692 0-21.731-9.039Q180-118.077 180-130.769v-334q-41-6.923-70.231-31-29.23-24.077-42-60.308-2.692-7.077 1.308-12.692 4-5.616 12.538-5.616 4.385 0 9.039 2.923t6.346 7.77q12.308 28.615 38.538 48.461 26.231 19.846 58.847 19.846h571.23q32.616 0 58.847-19.846 26.23-19.846 38.538-48.461 1.692-4.847 6.077-7.77 4.385-2.923 9.538-2.923 8.308 0 12.693 5.616 4.384 5.615 1.692 12.692-11.231 35.462-41.231 59.539-30 24.077-71.769 31.769v334q0 12.692-9.038 21.731Q761.923-100 749.231-100H544.615v-140q0-27.154-18.73-45.885-18.731-18.73-45.885-18.73-27.154 0-45.885 18.73-18.73 18.731-18.73 45.885v140H210.769Z"/></svg>