<svg xmlns="http://www.w3.org/2000/svg" width="48" height="48" viewBox="0 -960 960 960"><path d="M506.154-667.693v-50.347q0-22.007 15.023-36.599 15.023-14.593 36.169-14.593h50.347v50.347q0 21.146-14.593 36.169-14.592 15.023-36.599 15.023h-50.347ZM282.781-467.692q-37.111 0-63.793-26.682-26.681-26.681-26.681-63.793v-91.064h91.065q37.111 0 63.792 26.681 26.682 26.681 26.682 63.793v91.065h-91.065ZM640-130q-37.189 0-70.748-12.779-33.558-12.78-60.329-35.144L451-119.231q-4.385 4.385-10.5 4.385t-11.269-4.385q-4.385-5.154-4.385-11.269t4.385-10.5l58.692-57.923q-22.364-26.838-35.144-60.479Q440-293.042 440-330q0-83.083 58.333-141.657Q556.667-530.231 640-530.231h199.462v200.226q0 83.082-58.349 141.544Q722.764-130 640-130Zm0-30.769q70.89 0 119.56-49.78 48.671-49.779 48.671-119.682v-169H640.559q-70.375 0-120.083 48.851-49.707 48.851-49.707 120.38 0 31.007 10.539 58.427 10.538 27.419 28.846 50.419L629.231-341q5.154-5.154 10.884-5.154 5.731 0 10.885 5.154t5.154 10.885q0 5.73-5.154 10.884L531.154-200.154q23 18.308 50.239 28.846 27.239 10.539 58.607 10.539Zm.769-170Z"/></svg>