<svg xmlns="http://www.w3.org/2000/svg" width="48" height="48" viewBox="0 -960 960 960"><path d="M175.38-120q-22.44 0-38.91-16.47Q120-152.94 120-175.38v-609.24q0-22.44 16.47-38.91Q152.94-840 175.38-840h216.16q6.59 0 10.99 4.44 4.39 4.45 4.39 11.12 0 6.67-4.39 10.94-4.4 4.27-10.99 4.27H175.38q-10.76 0-17.69 6.92-6.92 6.93-6.92 17.69v609.24q0 10.76 6.92 17.69 6.93 6.92 17.69 6.92h409.24q10.76 0 17.69-6.92 6.92-6.93 6.92-17.69v-73.85q0-6.6 4.45-10.99 4.44-4.4 11.11-4.4 6.67 0 10.94 4.4 4.27 4.39 4.27 10.99v73.85q0 22.44-16.47 38.91Q607.06-120 584.62-120H175.38Zm100-144.62q-6.59 0-10.99-4.44-4.39-4.44-4.39-11.12 0-6.67 4.39-10.94 4.4-4.26 10.99-4.26h209.24q6.59 0 10.99 4.44 4.39 4.44 4.39 11.12 0 6.67-4.39 10.94-4.4 4.26-10.99 4.26H275.38Zm0-110.76q-6.59 0-10.99-4.45-4.39-4.44-4.39-11.11 0-6.68 4.39-10.94 4.4-4.27 10.99-4.27h129.24q6.59 0 10.99 4.44 4.39 4.45 4.39 11.12 0 6.67-4.39 10.94-4.4 4.27-10.99 4.27H275.38Zm87.7-156.93q-9.43 0-16.25-6.82-6.83-6.83-6.83-16.25v-113.85q0-9.42 6.83-16.25 6.82-6.83 16.25-6.83h94.61l94.39-94.38q3.46-3.46 7.14-4.69 3.68-1.24 7.7-1.24 8.91 0 15.61 6.2 6.7 6.19 6.7 14.57v318.31q0 9.16-6.7 15.35-6.7 6.19-15.61 6.19-4.46 0-7.92-1.23t-6.92-4.69l-94.39-94.39h-94.61Zm375.38-80q0 33.31-13.81 63.12-13.8 29.81-39.57 49.73-7.23 7.08-16.16 3.18-8.92-3.9-8.92-14.87v-206.47q0-9.76 9.04-14 9.04-4.23 16.27 2.08 26.77 21.16 39.96 52.31 13.19 31.15 13.19 64.92Zm70.77 0q0-72.92-35.35-135.65-35.34-62.73-98.19-98.81-6.38-2.69-9.07-8.81-2.7-6.11 0-11.37 3.46-5.97 10.07-7.51 6.62-1.54 12.23 1.15 71.39 40 111.23 110.04Q840-693.22 840-612.3t-39.85 150.95q-39.84 70.04-111.23 110.04-5.61 2.69-12.23 1.16-6.61-1.54-10.07-7.51-2.7-5.26 0-11.38 2.69-6.11 9.07-8.81 62.85-36.07 98.19-98.8 35.35-62.73 35.35-135.66Z"/></svg>