<svg xmlns="http://www.w3.org/2000/svg" width="48" height="48" viewBox="0 -960 960 960"><path d="M780-160H180q-6.539 0-10.962-4.485t-4.423-11.115q0-6.631 4.423-10.9T180-190.769h600q6.539 0 10.962 4.485t4.423 11.115q0 6.631-4.423 10.9T780-160ZM464.615-585.615 387-509q-4.385 3.385-10.462 4.269-6.077.885-11.705-4.436-4.987-4.987-4.987-10.833T365-531l95.538-95.539q8.371-8.23 19.532-8.23t19.392 8.23L595-531q4.385 4.385 4.769 10.615.385 6.231-4.936 11.552-4.987 4.987-10.833 4.487T573-509l-77.615-76.615V-320q0 6.539-4.485 10.962-4.486 4.423-11.116 4.423t-10.899-4.423q-4.27-4.423-4.27-10.962v-265.615ZM780-769.231H180q-6.539 0-10.962-4.485t-4.423-11.115q0-6.631 4.423-10.9T180-800h600q6.539 0 10.962 4.485t4.423 11.115q0 6.631-4.423 10.9T780-769.231Z"/></svg>