<svg xmlns="http://www.w3.org/2000/svg" width="48" height="48" viewBox="0 -960 960 960"><path d="M439.769-160v-30.769h81.462V-160h-81.462Zm0-609.231V-800h81.462v30.769h-81.462ZM604.385-160v-30.769h81.461V-160h-81.461Zm0-609.231V-800h81.461v30.769h-81.461Zm136 304.616H450.154q-6.539 0-10.962-4.485-4.423-4.486-4.423-11.116t4.423-10.899q4.423-4.27 10.962-4.27h290.231L664.539-573q-4.154-4.385-4.654-11t3.684-10.799q4.585-4.586 11.2-4.201 6.616.385 11 4.769l94.77 94.769q8.23 8.371 8.23 19.532t-8.23 19.392L685-365q-4.384 4.385-10.231 4.385-5.846 0-11.167-4.519-4.987-4.251-4.487-10.866.5-6.615 4.654-11l76.616-77.615ZM242.923-190.769v-578.462h-67.539q-6.538 0-10.961-4.485T160-784.831q0-6.631 4.423-10.9T175.384-800h164.847q6.538 0 10.961 4.485t4.423 11.115q0 6.631-4.423 10.9t-10.961 4.269h-66.539v578.462h66.539q6.538 0 10.961 4.485t4.423 11.115q0 6.631-4.423 10.9T340.231-160H175.384q-6.538 0-10.961-4.485T160-175.6q0-6.631 4.423-10.9t10.961-4.269h67.539Zm526.308-578.462V-800q11.942 0 21.356 9.413Q800-781.173 800-769.231h-30.769Zm0 609.231v-30.769H800q0 12.461-9.413 21.615Q781.173-160 769.231-160Z"/></svg>