<svg xmlns="http://www.w3.org/2000/svg" width="48" height="48" viewBox="0 -960 960 960"><path d="M746.077-675.231q11.292 0 20.108-8.846Q775-692.923 775-703.385q0-12.061-8.815-20.492-8.816-8.431-20.108-8.431t-20.108 8.604q-8.815 8.604-8.815 20.319 0 10.462 8.815 19.308 8.816 8.846 20.108 8.846Zm-165.914 0q11.36 0 20.176-8.846 8.815-8.846 8.815-19.308 0-12.061-8.815-20.492-8.816-8.431-20.176-8.431-11.359 0-19.723 8.604-8.363 8.604-8.363 20.319 0 10.462 8.363 19.308 8.364 8.846 19.723 8.846Zm17.476 140.616h130.059q13.148 0 18.495-8.731 5.346-8.731-1.424-17.192-13-15.385-34.652-23.577-21.653-8.193-47.194-8.193-26.116 0-48.25 8.193-22.134 8.192-34.365 23.577-7.539 8.461-1.252 17.192 6.286 8.731 18.583 8.731ZM297.642-120.231q-82.681 0-140.162-58.333Q100-236.897 100-318.077v-178.539q0-22.25 16.567-38.817T155.384-552h283.385q22.846 0 39.116 16.567 16.269 16.567 16.269 38.817v178.539q0 81.18-56.915 139.513-56.916 58.333-139.597 58.333ZM297.304-151q68.696 0 117.388-49.423 48.693-49.423 48.693-117.278v-178.915q0-9.999-6.924-17.307-6.923-7.308-17.692-7.308H155.384q-10.769 0-17.692 7.308t-6.923 17.307v178.915q0 67.855 48.92 117.278Q228.608-151 297.304-151Zm365.619-258q-31.133 0-62.259-8.884Q569.539-426.769 549-442l1.539-35.462q23.228 15.77 51.167 26.731 27.939 10.962 61.217 10.962 68.602 0 117.455-47.096 48.853-47.097 48.853-114.827v-182.924q0-10.769-6.923-17.692t-17.692-6.923H519.769q-10.769 0-17.692 6.923t-6.923 17.692v178.231h-30.769v-178.231q0-22.25 16.269-38.817T519.769-840h284.847q22.25 0 38.817 16.567T860-784.616v182.924q0 80.179-57.48 136.436Q745.039-409 662.923-409Zm-447.702 18.385q11.36 0 19.723-8.383 8.364-8.383 8.364-19.771 0-11.716-8.364-20.319-8.363-8.604-19.723-8.604t-20.175 8.518q-8.815 8.519-8.815 20.108t8.815 20.02q8.815 8.431 20.175 8.431Zm165.713 0q11.589 0 20.02-8.383t8.431-19.771q0-11.716-8.383-20.319-8.383-8.604-19.771-8.604-11.716 0-20.32 8.518-8.603 8.519-8.603 20.108t8.518 20.02q8.519 8.431 20.108 8.431Zm-82.54 145q26.529 0 48.914-8.577 22.384-8.577 34.389-23.962 6.995-8.461.495-16.808-6.5-8.346-18.527-8.346H233.58q-12.196 0-18.696 8.346-6.5 8.347.207 16.808 12.293 16.154 34.648 24.346 22.355 8.193 48.655 8.193Zm-1.317-91Zm365.231-288Z"/></svg>