<svg xmlns="http://www.w3.org/2000/svg" width="48" height="48" viewBox="0 -960 960 960"><path d="M411.621-380.384h134.148l26 75.384q1.923 5.321 5.673 7.66 3.75 2.34 9.359 2.34 9.199 0 13.853-6.846t1.961-14.923l-96.307-277.308q-3.231-6.154-8.519-10.231-5.289-4.077-11.543-4.077h-14.747q-6.807 0-11.845 4.077-5.039 4.077-7.5 10.453l-97.308 277.547q-3.461 7.846 1.692 14.577 5.154 6.731 13.41 6.731 5.966 0 10.009-3.308 4.043-3.307 6.274-8.461l25.39-73.615Zm10.456-30.308 57.154-166.077 56.154 166.077H422.077Zm-31.308-458.539q-6.577 0-10.981-4.458-4.403-4.458-4.403-11.115 0-6.658 4.403-10.927Q384.192-900 390.769-900h178.462q6.577 0 10.981 4.458 4.403 4.458 4.403 11.115 0 6.658-4.403 10.927-4.404 4.269-10.981 4.269H390.769Zm89.231 749q-66.308 0-124.5-25.423-58.192-25.423-101.808-68.654-43.615-43.23-68.654-101.807Q160-374.692 160-440.615q0-65.924 25.038-124.116 25.039-58.192 68.654-101.808 43.616-43.615 101.808-68.654 58.192-25.038 124.5-25.038 60.846 0 116 21.731t98.846 60.961l30-30.769q4.385-4.385 10.616-4.769 6.231-.385 11.384 4.769 5.154 5.154 5.154 11t-5.154 11l-30.769 30.769q37.539 40 60.731 94.308Q800-506.923 800-440.231q0 65.539-25.038 124.116-25.039 58.577-68.654 101.807-43.616 43.231-101.808 68.654-58.192 25.423-124.5 25.423ZM479.891-151q120.494 0 204.917-84.314 84.423-84.315 84.423-204.808t-84.314-204.917q-84.315-84.423-204.808-84.423-120.494 0-204.917 84.315-84.423 84.314-84.423 204.807 0 120.494 84.314 204.917Q359.398-151 479.891-151ZM480-440Z"/></svg>