<svg xmlns="http://www.w3.org/2000/svg" width="48" height="48" viewBox="0 96 960 960"><path d="M358.077 777.692q27.307 18.001 58.115 27.385Q447 814.462 480 814.462q99.436 0 168.949-69.513T718.462 576q0-84.923-52.039-149.962Q614.385 361 534.457 344.447q-14.226-3.063-24.342 5.783Q500 359.077 500 373.307v210.56L353.769 733.308q-10.231 11-9.231 24.346t13.539 20.038ZM480.134 936Q405 936 339.263 908.276q-65.738-27.724-114.75-76.691-49.012-48.966-76.763-114.642Q120 651.268 120 576.134q0-74.903 27.724-140.641 27.724-65.737 76.691-114.749 48.966-49.012 114.642-76.878Q404.732 216 479.866 216q74.903 0 140.641 27.839 65.737 27.84 114.749 76.806 49.012 48.967 76.878 114.642Q840 500.963 840 575.866q0 75.134-27.839 140.871-27.84 65.738-76.806 114.75-48.967 49.012-114.642 76.763Q555.037 936 480.134 936Z"/></svg>