<svg xmlns="http://www.w3.org/2000/svg" width="48" height="48" viewBox="0 -960 960 960"><path d="M535.692-299.461q12.654 0 21.712-7.693 9.058-7.692 9.058-20.692v-95.308q0-5.102-2.577-8.743t-7.347-8.334q4.77-5.461 7.347-9.819 2.577-4.358 2.577-8.258v-91.923q0-14.231-9.039-22.5Q548.385-581 535.692-581H409.154q-6.539 0-10.962 4.485t-4.423 11.115q0 6.631 4.423 10.9t10.962 4.269h126.538v94.616h-86.538q-6.539 0-10.962 4.485t-4.423 11.115q0 6.63 4.423 10.9 4.423 4.269 10.962 4.269h86.538v94.615H409.154q-6.539 0-10.962 4.485-4.423 4.486-4.423 11.116t4.423 10.899q4.423 4.27 10.962 4.27h126.538Zm-144.923-569.77q-6.538 0-10.961-4.485t-4.423-11.115q0-6.631 4.423-10.9T390.769-900h178.462q6.538 0 10.961 4.485t4.423 11.115q0 6.631-4.423 10.9t-10.961 4.269H390.769Zm89.231 749q-65.948 0-124.32-25.423t-101.988-68.654q-43.615-43.23-68.654-101.987Q160-375.052 160-440.615q0-65.563 25.038-123.936 25.039-58.372 68.654-101.988 43.616-43.615 101.988-68.654 58.372-25.038 124.32-25.038 60.846 0 116 21.731t98.846 60.961l30-30.769q4.385-4.385 10.616-4.769 6.231-.385 11.384 4.769 5.154 5.154 5.154 11t-5.154 11l-30.769 30.769q37.539 40 60.731 94.308Q800-506.923 800-440.231q0 65.179-25.038 123.936-25.039 58.757-68.654 101.987-43.616 43.231-101.988 68.654-58.372 25.423-124.32 25.423ZM479.891-151q120.494 0 204.917-84.314 84.423-84.315 84.423-204.808t-84.314-204.917q-84.315-84.423-204.808-84.423-120.494 0-204.917 84.315-84.423 84.314-84.423 204.807 0 120.494 84.314 204.917Q359.398-151 479.891-151ZM480-440Z"/></svg>