<svg xmlns="http://www.w3.org/2000/svg" width="48" height="48" viewBox="0 96 960 960"><path d="M162.308 426.769q-6.539 0-10.962-4.485t-4.423-11.115q0-6.631 4.423-10.9T162.308 396h500q6.538 0 10.961 4.485t4.423 11.115q0 6.631-4.423 10.9t-10.961 4.269h-500Zm0 164.616q-6.539 0-10.962-4.485-4.423-4.486-4.423-11.116t4.423-10.899q4.423-4.27 10.962-4.27h500q6.538 0 10.961 4.485 4.423 4.486 4.423 11.116t-4.423 10.899q-4.423 4.27-10.961 4.27h-500Zm0 164.615q-6.539 0-10.962-4.485t-4.423-11.115q0-6.631 4.423-10.9t10.962-4.269h500q6.538 0 10.961 4.485t4.423 11.115q0 6.631-4.423 10.9T662.308 756h-500Zm629.231 6.154q-9.154 0-15.347-6.192Q770 749.769 770 740.615q0-9.153 6.192-15.346 6.193-6.192 15.347-6.192 9.153 0 15.346 6.192 6.192 6.193 6.192 15.346 0 9.154-6.192 15.347-6.193 6.192-15.346 6.192Zm0-329.231q-9.154 0-15.347-6.192Q770 420.538 770 411.385q0-9.154 6.192-15.347 6.193-6.192 15.347-6.192 9.153 0 15.346 6.192 6.192 6.193 6.192 15.347 0 9.153-6.192 15.346-6.193 6.192-15.346 6.192Zm0 164.616q-9.154 0-15.347-6.193Q770 585.154 770 576t6.192-15.346q6.193-6.193 15.347-6.193 9.153 0 15.346 6.193 6.192 6.192 6.192 15.346t-6.192 15.346q-6.193 6.193-15.346 6.193Z"/></svg>