<svg xmlns="http://www.w3.org/2000/svg" width="48" height="48" viewBox="0 96 960 960"><path d="M280 776q-83.333 0-141.667-58.28Q80 659.439 80 576.181q0-83.258 58.333-141.72Q196.667 376 280 376h400q83.333 0 141.667 58.28Q880 492.561 880 575.819q0 83.258-58.333 141.72Q763.333 776 680 776H280Zm399.991-109q38.213 0 65.111-26.274Q772 614.453 772 576.149q0-38.303-26.749-64.726Q718.502 485 680.29 485q-38.213 0-64.636 26.274-26.423 26.273-26.423 64.577 0 38.303 26.274 64.726Q641.778 667 679.991 667Z"/></svg>