<svg xmlns="http://www.w3.org/2000/svg" width="48" height="48" viewBox="0 -960 960 960"><path d="M273.077-584.615h189.231q4.769 0 8.923-4.187t4.154-9q0-4.813-4.154-8.89-4.154-4.077-8.923-4.077H273.077q-4.769 0-8.923 4.187-4.154 4.186-4.154 9 0 4.813 4.154 8.89 4.154 4.077 8.923 4.077Zm0-84.616h189.231q4.769 0 8.923-4.187 4.154-4.186 4.154-9 0-4.813-4.154-8.89-4.154-4.077-8.923-4.077H273.077q-4.769 0-8.923 4.187t-4.154 9q0 4.813 4.154 8.89 4.154 4.077 8.923 4.077ZM630.77-552.307v-175.386h33.846q22.25 0 38.817 16.568Q720-694.558 720-672.308v16.923h72.308q6.539 0 10.962 4.431t4.423 10.981q0 6.588-4.423 10.973-4.423 4.385-10.962 4.385H720v16.923q0 22.25-16.567 38.817-16.567 16.568-38.817 16.568H630.77ZM447.693-410h-150.77v-77.692h-41.538q-49.501 0-84.751-35.25-35.25-35.25-35.25-84.75v-64.616q0-49.5 35.25-84.75t84.751-35.25h289.231q22.25 0 38.817 16.567Q600-759.173 600-736.923v193.846q0 22.25-16.567 38.818-16.567 16.567-38.817 16.567h-96.923V-410ZM274.23-247.692q-17.467 0-29.695-12.227-12.228-12.228-12.228-29.696v-48.461q0-17.148 12.228-29.151t29.695-12.003h196.924q17.148 0 29.151 12.003t12.003 29.151v48.461q0 17.468-12.003 29.696-12.003 12.227-29.151 12.227H274.23Z"/></svg>