<svg xmlns="http://www.w3.org/2000/svg" width="48" height="48" viewBox="0 -960 960 960"><path d="M280-504.615h400q6.539 0 10.962-4.485 4.423-4.486 4.423-11.116t-4.423-10.899q-4.423-4.27-10.962-4.27H280q-6.539 0-10.962 4.485-4.423 4.486-4.423 11.116t4.423 10.899q4.423 4.27 10.962 4.27Zm0 160h240q6.539 0 10.962-4.485 4.423-4.486 4.423-11.116t-4.423-10.899q-4.423-4.27-10.962-4.27H280q-6.539 0-10.962 4.485-4.423 4.486-4.423 11.116t4.423 10.899q4.423 4.27 10.962 4.27ZM175.615-200q-23.058 0-39.221-16.192-16.163-16.192-16.163-39.091v-418.665q0-22.899 16.163-39.091t39.221-16.192h251.923q5.961 0 12.06 2.592 6.1 2.592 10.259 6.265l30.374 31.143h304.615q23 0 39.193 16.192 16.192 16.193 16.192 39.193v378.462q0 23-16.192 39.192Q807.846-200 784.846-200H175.615Z"/></svg>