<svg xmlns="http://www.w3.org/2000/svg" width="48" height="48" viewBox="0 -960 960 960"><path d="M458.846-120q-33.615 0-64.077-13.538-30.461-13.539-50-39.616L164.538-412.231q-3.923-5.153-3.923-11.538 0-6.385 4.154-11.308l2.462-1.692q7.077-8.077 17.384-10.039 10.308-1.961 20.231 2.654l132.077 63v-321.923q0-6.539 4.485-10.962t11.116-4.423q6.63 0 10.899 4.423 4.269 4.423 4.269 10.962v326.511q0 15.86-12.961 23.79-12.962 7.93-26.423 1.469L202.923-412 372-190.154q15.459 20.616 38.549 30 23.09 9.385 48.297 9.385h165q44.154 0 74.769-30.231 30.616-30.231 30.616-74.384v-146.154q0-28.116-19.019-47.135-19.02-19.019-47.135-19.019H493.846q-6.538 0-10.961-4.485-4.424-4.486-4.424-11.116t4.424-10.899q4.423-4.27 10.961-4.27h169.231q40.385 0 68.654 28.27Q760-441.923 760-401.538v146.099q0 56.901-39.774 96.17T623.846-120h-165Zm7.616-204.615Zm-.86-297.693q-6.833 0-11.102-4.349-4.269-4.35-4.269-10.779 0-2.526 1.692-8.334 7.769-12.769 11.769-27.254 4-14.485 4-30.531 0-47.766-33.701-81.336-33.701-33.571-81.846-33.571t-81.683 33.656q-33.539 33.655-33.539 81.734 0 15.764 4 30.149 4 14.384 11.769 27.153.616 2.044 1.154 3.679.539 1.634.539 4.769 0 6.407-4.412 10.711-4.412 4.303-11.424 4.303-3.934 0-7.6-2.077-3.667-2.077-5.27-6.069-10.064-16.085-14.795-34.655-4.73-18.569-4.73-38.625 0-60.343 42.802-102.92t103.352-42.577q60.55 0 103.352 42.577 42.802 42.577 42.802 103.288 0 19.749-4.935 38.42-4.934 18.671-13.988 34.33-2.281 4.154-5.898 6.231-3.618 2.077-8.039 2.077Z"/></svg>