<svg xmlns="http://www.w3.org/2000/svg" width="48" height="48" viewBox="0 -960 960 960"><path d="M765.69-194.16q43.54-43.4 43.54-105.84v-84.62H510.77V-300q0 62.44 43.34 105.84 43.33 43.39 105.69 43.39 62.35 0 105.89-43.39ZM510.77-415.38h133.85v-153.16q-60.16 7.16-96.93 50.35-36.77 43.19-36.92 102.81Zm164.61 0h133.85q-.15-59.62-36.92-102.81-36.77-43.19-96.93-50.35v153.16ZM532.46-172.46Q480-224.92 480-300v-120q0-75.08 52.46-127.54Q584.92-600 660-600q75.08 0 127.54 52.46Q840-495.08 840-420v120q0 75.08-52.46 127.54Q735.08-120 660-120q-75.08 0-127.54-52.46ZM175.38-200q-23.05 0-39.22-16.16Q120-232.33 120-255.38v-449.24q0-23.05 16.16-39.22Q152.33-760 175.38-760h649.24q6.57 0 10.98 4.46 4.4 4.46 4.4 11.11 0 6.66-4.4 10.93-4.41 4.27-10.98 4.27H175.38q-10.76 0-17.69 6.92-6.92 6.93-6.92 17.69v449.24q0 10.76 6.92 17.69 6.93 6.92 17.69 6.92h203.08q6.58 0 10.98 4.46 4.41 4.46 4.41 11.11 0 6.66-4.41 10.93-4.4 4.27-10.98 4.27H175.38Zm-24.61-30.77v-498.46 498.46Z"/></svg>