<svg xmlns="http://www.w3.org/2000/svg" width="48" height="48" viewBox="0 -960 960 960"><path d="M568.268-120q-18.689 0-36.055-7.231-17.367-7.23-31.063-20.804L349-299.769q-8.103-8.231-7.782-19.077.32-10.846 7.551-19.077l1.085-1.085q8.684-8.684 19.787-10.761 11.102-2.077 22.974 1.384L480-328.462v-295.384q0-6.539 4.411-10.962 4.412-4.423 11.116-4.423t10.973 4.423q4.269 4.423 4.269 10.962v236.923h83.154v-155.385q0-6.538 4.412-10.961 4.411-4.423 11.115-4.423 6.704 0 10.973 4.423 4.269 4.423 4.269 10.961v155.385h82.923v-95.385q0-6.538 4.412-10.961t11.115-4.423q6.704 0 10.973 4.423 4.27 4.423 4.27 10.961v95.385h83.154q0-6.539 4.411-10.962 4.412-4.423 11.116-4.423 6.703 0 10.973 4.423 4.269 4.423 4.269 10.962v131.539q0 56.846-39.269 96.115Q773.769-120 716.923-120H568.268ZM175.384-240q-23.057 0-39.221-16.163Q120-272.327 120-295.384v-449.232q0-23.057 16.163-39.221Q152.327-800 175.384-800h569.232q23.057 0 39.221 16.163Q800-767.673 800-744.616v131.539q0 6.538-4.485 10.962-4.485 4.423-11.115 4.423-6.631 0-10.9-4.423-4.269-4.424-4.269-10.962v-131.539q0-9.23-7.692-16.923-7.693-7.692-16.923-7.692H175.384q-9.23 0-16.923 7.692-7.692 7.693-7.692 16.923v449.232q0 9.23 7.692 16.923 7.693 7.692 16.923 7.692h86.077q6.539 0 10.962 4.485t4.423 11.115q0 6.631-4.423 10.9T261.461-240h-86.077Z"/></svg>