<svg xmlns="http://www.w3.org/2000/svg" width="48" height="48" viewBox="0 -960 960 960"><path d="M200-355.38V-720q0-34.08 18.62-57.27 18.61-23.19 54.26-36.92 35.66-13.73 88.08-19.77Q413.38-840 480-840q66.77 0 118.81 5.92 52.04 5.93 87.84 19.66 35.81 13.73 54.58 36.8Q760-754.54 760-720v364.62q0 48.23-33.58 81.8Q692.85-240 644.62-240l50.61 50.62q8.08 8.07 3.88 18.73Q694.92-160 682.56-160q-3.25 0-6.44-1.23-3.2-1.23-5.84-3.87l-74.9-74.9H364.62l-74.9 74.9q-2.64 2.64-5.84 3.87-3.19 1.23-6.44 1.23-12.08 0-16.42-10.65-4.33-10.66 3.75-18.73L315.38-240q-48.23 0-81.8-33.58Q200-307.15 200-355.38Zm30.77-158.08h235.54v-194.23H230.77v194.23Zm266.31 0h232.15v-194.23H497.08v194.23ZM367.46-345.62Q380-357.77 380-375.24t-12.53-30.16q-12.53-12.68-29.77-12.68-17.24 0-29.78 12.68-12.54 12.69-12.54 30.16t12.53 29.62q12.53 12.16 29.77 12.16 17.24 0 29.78-12.16Zm284.62 0q12.54-12.15 12.54-29.62t-12.53-30.16q-12.53-12.68-29.77-12.68-17.24 0-29.78 12.68Q580-392.71 580-375.24t12.53 29.62q12.53 12.16 29.77 12.16 17.24 0 29.78-12.16Z"/></svg>