<svg xmlns="http://www.w3.org/2000/svg" width="48" height="48" viewBox="0 -960 960 960"><path d="M200-275.385v-370.923q0-70.769 67.423-92.461 67.423-21.693 195.423-22.924l30.462-62.923H298.846q-6.833 0-11.301-4.49-4.468-4.491-4.468-11.359 0-6.535 4.468-10.728 4.468-4.192 11.301-4.192h363.077q6.5 0 10.75 4.379 4.25 4.38 4.25 11.077 0 6.698-4.25 11.006-4.25 4.307-10.75 4.307H527.154l-30 63.07q116 1.084 189.423 22.982T760-646.308v370.923q0 48.231-33.577 81.808Q692.846-160 644.615-160l50.616 50.615q8.077 8.077 3.669 18.731Q694.491-80 682.736-80q-3.428 0-6.642-1.23-3.214-1.231-5.879-3.939L595.384-160H364.616l-74.831 74.831q-2.772 2.708-6.15 3.938Q280.258-80 277.119-80q-11.572 0-15.999-10.654-4.428-10.654 3.649-18.731L315.385-160q-48.231 0-81.808-33.577Q200-227.154 200-275.385Zm281.837 18.308q17.511 0 29.53-12.778 12.018-12.778 12.018-30.29 0-17.511-12.258-29.529t-29.77-12.018q-17.511 0-30.049 12.258-12.539 12.258-12.539 29.769t12.778 30.05q12.779 12.538 30.29 12.538Zm-251.068-180H729v-195H230.769v195Z"/></svg>