<svg xmlns="http://www.w3.org/2000/svg" width="48" height="48" viewBox="0 -960 960 960"><path d="M480.124-330.769q69.953 0 119.53-49.702 49.577-49.701 49.577-119.653 0-69.953-49.702-119.53-49.701-49.577-119.653-49.577-69.953 0-119.53 49.702-49.577 49.701-49.577 119.653 0 69.953 49.702 119.53 49.701 49.577 119.653 49.577Zm-.34 270.77q-6.63 0-10.899-4.424-4.27-4.423-4.27-10.962V-140H400q-6.539 0-10.962-4.485t-4.423-11.116q0-6.63 4.423-10.899 4.423-4.269 10.962-4.269h64.615v-128.692q-82.461-10.154-133.538-66.42Q280-422.147 280-499.875q0-33.587 12.235-68.182 12.234-34.595 34.842-63.405l-67.385-67.384-46 46.769q-4.375 3.385-9.726 3.385-5.351 0-9.936-4.184-4.953-4.585-4.953-10.762 0-6.177 4.384-10.67l45-45L110.769-847v122.385q0 6.538-4.485 10.961t-11.115 4.423q-6.63 0-10.9-4.423Q80-718.077 80-724.615v-147.693q0-11.769 7.962-19.731Q95.923-900 107.692-900h147.693q6.538 0 10.961 4.485t4.423 11.115q0 6.631-4.423 10.9t-10.961 4.269H133l127.692 127.692 46-46q4.346-4.153 10.096-4.538 5.751-.385 10.67 4.535 4.619 4.619 4.619 10.796t-4.385 10.669l-45.769 45.769 68.385 68.385q31.229-25.769 65.114-36.923Q449.308-700 480-700t64.654 11q33.961 11 66.038 36.077L827-869.231H704.615q-6.538 0-10.961-4.485t-4.423-11.115q0-6.631 4.423-10.9T704.615-900h147.693q11.769 0 19.731 7.961Q880-884.077 880-872.308v147.693q0 6.538-4.485 10.961t-11.115 4.423q-6.631 0-10.9-4.423t-4.269-10.961V-847L632.923-629.923q23 29 35.039 62.731Q680-533.462 680-499.875q0 77.728-51.077 133.994-51.077 56.266-133.538 66.42v128.692H560q6.539 0 10.962 4.485t4.423 11.115q0 6.631-4.423 10.9T560-140h-64.615v64.615q0 6.539-4.485 10.962Q486.414-60 479.784-60Z"/></svg>