<svg xmlns="http://www.w3.org/2000/svg" width="48" height="48" viewBox="0 -960 960 960"><path d="M316.923-611.615H135.384q-6.596 0-10.99-4.445T120-627.175q0-6.671 4.394-10.94 4.394-4.27 10.99-4.27h181.539v-174.384l-80.538 79q-5.154 4.384-11 4.769-5.847.385-11.392-4.769-4.762-4.385-4.378-10.616.385-6.231 4.769-10.615l98.462-98.462q8.231-8.231 19.462-8.231 11.23 0 19.461 8.231L450.231-759q4.384 4.384 4.769 10.615.385 6.231-4.378 10.616-4.776 4.384-11.007 4.384-6.23 0-11.384-4.384l-80.539-79v442.231q0 9.23 7.693 16.923 7.692 7.692 16.923 7.692h452.308q6.596 0 10.99 4.445Q840-341.034 840-334.363t-4.394 10.94q-4.394 4.269-10.99 4.269H643.077v175.923l80.538-79q5.154-4.384 11-4.769 5.847-.385 11.392 4 4.762 5.154 4.378 11.385-.385 6.231-4.769 10.615l-98.462 98.462q-8.231 8.23-19.462 8.23-11.23 0-19.461-8.23L509.769-201q-4.384-4.384-4.769-10.615-.385-6.231 4.378-11.385 4.776-3.615 11.007-3.615 6.23 0 11.384 4.384l80.539 79v-175.923h-240q-23.693 0-39.539-15.846t-15.846-39.538v-237.077Zm295.385 190.923V-587q0-9.231-7.693-16.923-7.692-7.692-16.923-7.692H418.461v-30.77h169.231q23.693 0 39.539 15.846 15.846 15.847 15.846 39.539v166.308h-30.769Z"/></svg>