<svg xmlns="http://www.w3.org/2000/svg" width="48" height="48" viewBox="0 -960 960 960"><path d="M738.46-309q-68.92-.77-116.73-43.73-47.81-42.96-57.96-115.27h-130q-6.56 0-10.97-4.47-4.42-4.47-4.42-11.12 0-6.64 4.42-10.91 4.41-4.27 10.97-4.27h130q2.23-34.69 22.69-72.73 20.46-38.04 54.85-59.04H340.85q-6.56 0-10.98-4.47-4.41-4.47-4.41-11.12 0-6.64 4.41-10.91 4.42-4.27 10.98-4.27h314.69l-68.85-191.77q-2.31-7.69-8.84-11.92-6.54-4.23-14.23-4.23h-99q-6.56 0-10.98-4.47-4.41-4.47-4.41-11.12 0-6.64 4.41-10.91 4.42-4.27 10.98-4.27h99q18.1 0 32.35 10.09T616-863.62l71.77 202.31h46.08q78.53 0 129.27 49.69 50.73 49.7 50.73 127.24 0 72.77-51.69 124.08-51.69 51.3-123.7 51.3Zm.09-30.77q59.6 0 102.07-42.53 42.46-42.52 42.46-102.08 0-62.16-41.23-104.16t-103.27-42q-9.58 0-20.77 1.66-11.19 1.65-18.35 3.96l36.92 97.38q2.7 5.62.02 11.31t-8.78 8.23q-5.62 2.46-11.17-.22t-8.37-8.55l-35.62-98.38q-37.77 19.92-58.19 56.03-20.42 36.12-20.42 74.74 0 60.96 42.23 102.78 42.24 41.83 102.47 41.83ZM310.86-58.46q-40.12 0-67.68-27.5-27.56-27.5-27.56-67.66 0-7.61.76-13.57.77-5.96 2.31-12.81H66.15q-6.55 0-10.97-4.47-4.41-4.47-4.41-11.12 0-6.64 4.41-10.91 4.42-4.27 10.97-4.27h168.54q13-17.31 32.85-27.27 19.84-9.96 43.37-9.96 21.01 0 40.74 8.85 19.73 8.84 35.2 28.38h103.92q10.77 0 17.69-6.92 6.92-6.93 6.92-17.69v-69.24q0-10.76-6.92-17.69-6.92-6.92-17.69-6.92H66.15q-6.55 0-10.97-4.47-4.41-4.47-4.41-11.12 0-6.64 4.41-10.91Q59.6-360 66.15-360h69.23v-140H66.15q-6.55 0-10.97-4.47-4.41-4.47-4.41-11.12 0-6.64 4.41-10.91 4.42-4.27 10.97-4.27h218.08q8.3 0 14.64 3.91 6.33 3.9 9.82 10.32L399.23-360h91.54q22.25 0 38.82 16.57 16.56 16.56 16.56 38.81v69.24q0 22.25-16.56 38.81Q513.02-180 490.77-180h-87.92q1.53 6.85 2.3 12.81.77 5.96.77 13.57 0 40.16-27.47 67.66t-67.59 27.5ZM166.15-360h197.7l-80.47-140H166.15v140ZM310.77-89.23q26.15 0 45.27-18.73 19.11-18.73 19.11-45.66 0-26.15-19.11-44.88-19.12-18.73-45.27-18.73-26.15 0-45.27 18.73-19.12 18.73-19.12 44.88 0 26.93 19.12 45.66 19.12 18.73 45.27 18.73ZM283.46-270Z"/></svg>