<svg xmlns="http://www.w3.org/2000/svg" width="48" height="48" viewBox="0 -960 960 960"><path d="M120-480q0-74.539 28.423-140.231t77.038-114.308q48.616-48.615 114.308-77.038Q405.461-840 480-840q137.769 0 239.192 88.846t119.962 222.307q.154 7.616-4.308 12.577-4.461 4.962-11.186 4.389-7.506-1.888-12.121-7.85-4.616-5.962-5.539-13.346-13.539-85.539-67.462-153.808-53.923-68.269-135.384-101.346v18.769q0 34.231-23.616 58.693-23.615 24.461-57.846 24.461h-83.154v83.154q0 16.575-12.346 28.172-12.346 11.597-29.346 11.597h-81.461V-480h60q11.98 0 19.836 7.856 7.856 7.856 7.856 19.836v94.231h-46.231L159-555.154q-3.462 18.462-5.846 37.359-2.385 18.898-2.385 37.795 0 128.789 86.346 223.51t216.193 104.029q7.06.141 11.645 5.186 4.585 5.044 4.585 12.16 0 6.346-5.295 10.115-5.294 3.769-12.628 3.308-139.538-10.769-235.577-113.423Q120-337.769 120-480Zm712.846 334.846L702.923-273.307q-17.923 14.23-39.346 21.461-21.423 7.231-43.142 7.231-56.399 0-96.11-39.618-39.71-39.618-39.71-95.885t39.618-95.767q39.618-39.5 95.885-39.5t95.767 39.71q39.5 39.711 39.5 96.11 0 22.488-7.731 44.296t-22.5 39.961l129.692 128.154q5.154 4.385 5.269 10.616.116 6.23-5.038 11.384-4.385 4.385-10.731 4.385t-11.5-4.385ZM619.859-275.385q43.833 0 74.295-30.32 30.461-30.321 30.461-74.154t-30.32-74.295q-30.321-30.461-74.154-30.461t-74.295 30.32q-30.461 30.321-30.461 74.154t30.32 74.295q30.321 30.461 74.154 30.461Z"/></svg>