<svg xmlns="http://www.w3.org/2000/svg" width="48" height="48" viewBox="0 -960 960 960"><path d="M219.38-543.38 304.54-459q4.38 5.15 4.38 11t-4.77 11q-4.77 5.15-10.61 5.15-5.85 0-11-5.15L179.46-540.08q-8.23-8.23-8.23-19.07 0-10.85 8.23-19.08l103.08-103.08q4.38-4.38 10.61-4.77 6.23-.38 11 4.77 4.77 5.16 4.77 11 0 5.85-4.38 11l-85.16 85.16h386q22.7 0 39.04 15.96 16.35 15.96 16.35 39.42v303.39q0 6.84-4.27 11.11T645.38-200q-6.84 0-11.11-4.27T630-215.38v-303.39q0-10.77-6.92-17.69-6.93-6.92-17.7-6.92h-386Z"/></svg>