<svg xmlns="http://www.w3.org/2000/svg" width="48" height="48" viewBox="0 -960 960 960"><path d="M420-469.231q12.385 0 21.577-9.192 9.192-9.192 9.192-21.577 0-12.385-9.192-21.577-9.192-9.192-21.577-9.192-12.385 0-21.577 9.192-9.192 9.192-9.192 21.577 0 12.385 9.192 21.577 9.192 9.192 21.577 9.192Zm120 0q12.385 0 21.577-9.192 9.192-9.192 9.192-21.577 0-12.385-9.192-21.577-9.192-9.192-21.577-9.192-12.385 0-21.577 9.192-9.192 9.192-9.192 21.577 0 12.385 9.192 21.577 9.192 9.192 21.577 9.192Zm-240 0q12.385 0 21.577-9.192 9.192-9.192 9.192-21.577 0-12.385-9.192-21.577-9.192-9.192-21.577-9.192-12.385 0-21.577 9.192-9.192 9.192-9.192 21.577 0 12.385 9.192 21.577 9.192 9.192 21.577 9.192Zm360 0q12.385 0 21.577-9.192 9.192-9.192 9.192-21.577 0-12.385-9.192-21.577-9.192-9.192-21.577-9.192-12.385 0-21.577 9.192-9.192 9.192-9.192 21.577 0 12.385 9.192 21.577 9.192 9.192 21.577 9.192ZM223.846-240l-20.923 55.077q-.333 1.473-2.237 2.429-1.903.956-3.504.956h-1.592q-2.236 0-4.298-2.139-2.061-2.138-2.061-4.477V-240h-13.847q-22.25 0-38.817-16.567T120-295.384v-409.232q0-22.25 16.567-38.817T175.384-760h609.232q22.25 0 38.817 16.567T840-704.616v409.232q0 22.295-16.567 38.894-16.567 16.599-38.817 16.599h-13.847v52.737q0 2.729-1.432 4.173-1.432 1.443-4.145 1.443h-2.346q-2 0-3.731-1.059-1.73-1.059-1.807-3.095L737.923-240H223.846Z"/></svg>