<svg xmlns="http://www.w3.org/2000/svg" width="48" height="48" viewBox="0 96 960 960"><path d="M460.539 552.308 528 378.923h4l69 173.385H460.539ZM296.923 794.462q-23.058 0-39.221-16.164-16.164-16.163-16.164-39.221V271.384q0-23.057 16.164-39.221Q273.865 216 296.923 216h467.693q23.057 0 39.221 16.163Q820 248.327 820 271.384v467.693q0 23.058-16.163 39.221-16.164 16.164-39.221 16.164H296.923Zm0-30.769h467.693q10.769 0 17.692-6.924 6.923-6.923 6.923-17.692V271.384q0-10.769-6.923-17.692t-17.692-6.923H296.923q-10.769 0-17.692 6.923t-6.923 17.692v467.693q0 10.769 6.923 17.692 6.923 6.924 17.692 6.924ZM195.384 896q-23.057 0-39.221-16.163Q140 863.674 140 840.616V357.538q0-6.577 4.458-10.981 4.458-4.403 11.115-4.403 6.658 0 10.927 4.403 4.269 4.404 4.269 10.981v483.078q0 10.769 6.923 17.692t17.692 6.923h483.078q6.577 0 10.981 4.458t4.404 11.116q0 6.657-4.404 10.926T678.462 896H195.384Zm76.924-649.231v516.924-516.924Zm125.077 438.462q3.455 0 6.74-2.037 3.284-2.036 4.567-5.579l41.693-100.076h160l40.923 99.307q1.231 4.462 4.981 6.423 3.75 1.962 8.865 1.962 6.923 0 11-6.308t1.615-13.231L551.308 356.538q-3.523-6.487-8.569-10.051-5.047-3.564-11.97-3.564-6.923 0-12.354 3.18-5.431 3.179-8.184 9.666L385.308 667.231q-3.231 6.154.955 12.077 4.187 5.923 11.122 5.923Z"/></svg>