<svg xmlns="http://www.w3.org/2000/svg" width="48" height="48" viewBox="0 -960 960 960"><path d="M450.385-478.461h160l40.923 99.307q1.231 4.462 4.981 6.423 3.75 1.962 8.865 1.962 7.548 0 11.697-6.308 4.149-6.308.918-13.231L540.616-726.461q-.462-1.154-2.505-2.731-2.043-1.577-3.803-1.577h-6.69q-2.387 0-4.31 1.577-1.923 1.577-2.385 2.731L384.538-388.769q-3.23 6.154.985 12.077 4.216 5.923 11.79 5.923 3.764 0 7.258-2.421 3.493-2.421 4.891-5.964l40.923-99.307Zm10.154-25.231L528-677.077h4l69 173.385H460.539ZM296.923-261.538q-23.058 0-39.221-16.164-16.164-16.163-16.164-39.221v-467.693q0-23.057 16.164-39.221Q273.865-840 296.923-840h467.693q23.057 0 39.221 16.163Q820-807.673 820-784.616v467.693q0 23.058-16.163 39.221-16.164 16.164-39.221 16.164H296.923Zm0-30.769h467.693q9.23 0 16.923-7.693 7.692-7.692 7.692-16.923v-467.693q0-9.23-7.692-16.923-7.693-7.692-16.923-7.692H296.923q-9.231 0-16.923 7.692-7.692 7.693-7.692 16.923v467.693q0 9.231 7.692 16.923 7.692 7.693 16.923 7.693ZM195.384-160q-23.057 0-39.221-16.163Q140-192.326 140-215.384v-483.078q0-6.577 4.458-10.981 4.458-4.403 11.115-4.403 6.658 0 10.927 4.403 4.269 4.404 4.269 10.981v483.078q0 9.231 7.692 16.923 7.693 7.692 16.923 7.692h483.078q6.577 0 10.981 4.458t4.404 11.116q0 6.657-4.404 10.926T678.462-160H195.384Zm76.924-649.231v516.924-516.924Z"/></svg>