<svg xmlns="http://www.w3.org/2000/svg" width="48" height="48" viewBox="0 -960 960 960"><path d="M684.588-140q-6.819 0-11.088-4.288-4.269-4.289-4.269-11.097v-447.538q0-77.865-54.265-132.087-54.265-54.221-132.193-54.221-78.696 0-132.427 54.221-53.731 54.222-53.731 132.087v236.307L381-451q4.128-4.385 10.103-4.385 5.974 0 11.128 4.77 5.154 4.769 5.154 10.615t-5.154 11L300.916-326.916q-5.224 4.455-9.942 6.455t-9.846 2q-5.897 0-10.513-2-4.615-2-9.07-6.455L159.461-429q-5.153-5.154-5.153-11t5.153-11q5.154-5.154 11-5.154 5.847 0 11.001 5.154l84.384 84.384v-236.307q0-91.667 62.679-154.372Q391.204-820 482.833-820q91.629 0 154.398 62.705Q700-694.59 700-602.923v447.538q0 6.808-4.296 11.097Q691.408-140 684.588-140Z"/></svg>