<svg xmlns="http://www.w3.org/2000/svg" width="48" height="48" viewBox="0 -960 960 960"><path d="m107.154-477.461 18.384-25.308 296.231 279.538q15.308 14.308 34.231 21.462 18.923 7.154 39 7.154 15.538 0 29.615-3.654 14.077-3.654 26.846-11.654l307.77-194.308v34.077L567.308-186.077q-16.462 9.462-34.539 15.077-18.077 5.616-38.769 5.616-24.923 0-49.346-9.231t-43.116-27.692L107.154-477.461Zm414.384 195.153q10.693 0 18.423-7.846 7.731-7.846 7.731-18.307 0-4.539-11.846-22.539l146.923-91.308q1.462 9.77 9.346 16.423Q700-399.231 710-399.231q10.692 0 18.423-7.846 7.731-7.846 7.731-18.308 0-11.461-8.115-19.192-8.116-7.731-19.577-6.962h-3.347q-1.346 0-2.576.231 3.461-4.231 4.692-8.077 1.231-3.846 1.231-9.077 0-10.692-7.731-18.423-7.731-7.73-18.423-7.73-10.462 0-18.308 7.73-7.846 7.731-7.846 18.423 0 4.462 13 23.231l-148.385 91q-2-9.461-9.346-16.077-7.346-6.615-17.577-6.615-10.461 0-18.308 7.731-7.846 7.73-7.846 18.423 0 11.231 8.616 19.077 8.615 7.846 20.615 7.077h2.192q.962 0 2.193-.231-3.462 3.231-4.693 7.461-1.23 4.231-1.23 8.924 0 10.461 7.846 18.307 7.846 7.846 18.307 7.846Zm-232-442.846L307.692-750q76.539 42.846 137.423 111.192Q506-570.462 527.308-498.693q41.846-52.692 84.346-77.807 42.5-25.116 131.192-48.654 36.539-9.692 64.154-19.116 27.615-9.423 52.231-20.346V-634q-23.923 9.461-50.192 18.423-26.27 8.962-58.116 17.423-89.077 23.769-133.269 51.731-44.192 27.961-83.5 90.5-1.692 2.154-4.731 4.115-3.038 1.962-7.961 1.962-4.616 0-8.885-3.539-4.269-3.538-4.731-8.923-19.231-74.923-79.154-146.461-59.923-71.539-139.154-116.385Zm-164 222.385q65.847 62.384 147.347 139.384 81.5 77 148.884 140.154 15.308 14.308 34.231 21.462 18.923 7.154 39 7.154 15.538 0 29.615-3.654 14.077-3.654 26.846-11.654 71.924-46.462 154.808-98.308 82.885-51.846 152.962-96l-307.77 194.308q-12.769 8-26.846 11.654T495-194.615q-20.077 0-39-7.154t-34.231-21.462L125.538-502.769Z"/></svg>