<svg xmlns="http://www.w3.org/2000/svg" width="48" height="48" viewBox="0 -960 960 960"><path d="M215.384-160q-23.057 0-39.221-16.163Q160-192.327 160-215.384v-439.924q0-8.86 1.461-17.045 1.462-8.186 7.154-14.878l49.846-62.923q6.462-5.923 15.27-7.885 8.807-1.961 18.5-1.961h455.538q9.693 0 18.77 1.576 9.077 1.577 14.769 8.27l48.538 62.923q6.462 5.923 8.308 14.493t1.846 17.43v439.924q0 23.057-16.163 39.221Q767.673-160 744.616-160H215.384ZM207-686.308h545l-35.085-42.923H242.231L207-686.308Zm8.384 495.539h529.232q9.23 0 16.923-7.692 7.692-7.693 7.692-16.923v-440.155H190.769v440.155q0 9.23 7.692 16.923 7.693 7.692 16.923 7.692Zm264.805-111.077q6.657 0 10.926-4.404 4.27-4.404 4.27-10.981V-503l82 82q4.384 4.385 10.73 4.654 6.347.269 11.5-4.885 5.154-5.154 5.154-11.115 0-5.962-5.154-11.116l-100.153-99.923q-4.231-4.231-9.083-6.231-4.851-2-10.615-2t-10.379 2q-4.616 2-8.847 6.231L360.385-443.231q-4.385 4.385-4.27 10.616.116 6.23 4.885 11.384t11.115 5.154q6.347 0 11.5-5.154l81-81.769v185.769q0 6.577 4.458 10.981 4.459 4.404 11.116 4.404Zm-289.42 111.077v-464.77 464.77Z"/></svg>