<svg xmlns="http://www.w3.org/2000/svg" width="48" height="48" viewBox="0 -960 960 960"><path d="M480-858.615 365-743.616q-5.154 4.385-11 4.385t-11-5.154q-3.615-5.154-4-11.115-.385-5.962 4-11.116l117.769-117.769q8.231-8.231 19.462-8.231t19.461 8.231l118.539 118.539q4.384 4.384 4.269 10.73-.115 6.347-4.5 11.5-5.154 5.154-11 4.77-5.846-.385-11-4.77L480-858.615Zm0 200L365-543.616q-5.154 4.385-11 4.385t-11-5.154q-3.615-5.154-4-11.115-.385-5.962 4-11.116l117.769-117.769q8.231-8.231 19.462-8.231t19.461 8.231l118.539 118.539q4.384 4.384 4.269 10.73-.115 6.347-4.5 11.5-5.154 5.154-11 4.77-5.846-.385-11-4.77L480-658.615Zm1 358.23 115.231-115.23q4.384-4.385 10.615-4.769 6.231-.385 11.385 4 5.154 5.153 5.154 11 0 5.846-5.154 11l-118 118q-9 9-19.846 9-10.847 0-19.077-9L343-394.154q-5.154-4.384-5.154-10.615T343-415.384q5.154-5.154 11-4.77 5.846.385 11 4.77l116 114.999Zm0 200 115.231-115.23q4.384-4.385 10.615-4.769 6.231-.385 11.385 4 5.154 5.153 5.154 11 0 5.846-5.154 11l-118 118q-9 9-19.846 9-10.847 0-19.077-9L343-194.154q-5.154-4.384-5.154-10.615T343-215.384q5.154-5.154 11-4.77 5.846.385 11 4.77l116 114.999Z"/></svg>