<svg xmlns="http://www.w3.org/2000/svg" width="48" height="48" viewBox="0 96 960 960"><path d="M480 936q-75.162 0-140.862-27.734-65.7-27.735-114.684-76.72-48.985-48.984-76.72-114.684Q120 651.162 120 576q0-67.231 21.923-125.692 21.923-58.462 61.769-106.154L86.23 225.923q-4.384-3.615-4.653-10.346-.27-6.731 4.884-11.116 5.154-5.153 11.116-5.153 5.961 0 11.115 5.153l753.231 753.462q4.385 4.385 4.769 11 .385 6.616-4.769 11-5.154 5.154-11.115 5.154-5.962 0-11.116-5.154L711.846 852.308q-47.692 39.846-106.154 61.769Q547.231 936 480 936Zm0-30.769q60.385 0 113.615-19.731 53.231-19.731 96.77-54.654L505.692 646.154l-65.23 65.231q-8.077 9-19 9.115-10.924.116-19.154-8.115L292.615 602.462q-4.384-4.385-4.654-11.347-.269-6.961 4.885-12.115t11.731-5.154q6.577 0 11.731 5.154L421 684.692l62-62-257.846-257.077q-34.923 43.539-54.654 96.77-19.731 53.23-19.731 113.615 0 138.077 95.577 233.654T480 905.231Zm300.154-128.923-22.231-22.231q24.154-38.923 37.731-83.555Q809.231 625.89 809.231 576q0-138.077-95.577-233.654T480 246.769q-49.615 0-94.385 13.577-44.769 13.577-83.692 37.731l-22.231-22.231q42.42-28.154 93.126-44T480 216q74.931 0 140.631 27.85t114.685 76.834q48.984 48.985 76.834 114.685T840 576q0 56.476-15.846 107.182t-44 93.126ZM578.077 574.769l-23.692-23.461 87.769-87.77q4.384-4.384 11.231-4.769 6.846-.384 12.23 4.769Q671 468.923 671 475.385q0 6.461-5.385 11.846l-87.538 87.538Zm-48.154-48.692Zm-72.154 72.154Z"/></svg>