<svg xmlns="http://www.w3.org/2000/svg" width="48" height="48" viewBox="0 -960 960 960"><path d="M465.846-453.769v187.923q0 6.846 4.269 11.116 4.27 4.269 11.116 4.269t11.115-4.269q4.269-4.27 4.269-11.116v-187.923l81 81.769q1.462 1.462 7.308-.846t10.962-4q5.115-1.692 7.577-1.577 2.461.115-3.847 6.423 5.154-5.154 4.654-11t-4.884-11l-99.923-98.462q-4.231-4.23-9.231-6.23t-10.231-2q-5.231 0-10.231 2t-9.231 6.23l-98.923 99.693q-4.384 4.384-4.769 10.615-.385 6.231 4 11.385 5.154 4.385 11.385 4.385t10.615-4.385l83-83ZM255.384-120q-23.23 0-39.307-16.077T200-175.384v-609.232q0-23.23 16.077-39.307T255.384-840h311.385q11.231 0 21.577 4.615 10.346 4.616 18.346 11.846l136.847 136.847q7.23 8 11.846 18.346Q760-658 760-646.769v471.385q0 23.23-16.077 39.307T704.616-120H255.384Zm318.693-563.231q0 11.462 8.115 19.577 8.116 8.116 19.577 8.116h127.462L574.077-809.231v126Z"/></svg>