<svg xmlns="http://www.w3.org/2000/svg" width="48" height="48" viewBox="0 96 960 960"><path d="M480 940.616q-24.308 0-40.462-15.77-16.153-15.769-16.153-40.846 0-18.923 11-34.231 11-15.307 30.23-21.692V710.154H332q-23.231 0-39.308-16.077-16.077-16.077-16.077-39.308v-92.077q-18.461-5.154-29.846-19.961-11.385-14.808-11.385-34.731 0-23.769 15.616-40.5 15.615-16.731 38.23-18.577L118.154 277.846Q114 273.692 114 267.731q0-5.962 5.154-11.116 4.384-4.384 10.73-4.384 6.347 0 11.501 4.384l669.769 669.77q3.385 4.154 3.5 10.5.115 6.346-4.269 10.731-5.154 5.153-11.5 5.153t-10.731-5.153L550.461 710.154h-55.076v117.923q19.23 6.385 30.23 22.308t11 33.615q0 25.077-16.153 40.846-16.154 15.77-40.462 15.77ZM671.846 688l-19.231-19.231V563.846h-26.23q-6 0-10.116-4.115-4.115-4.116-4.115-10.116v-84q0-6 4.115-10.115 4.116-4.116 10.116-4.116h84q6 0 10.115 4.116 4.116 4.115 4.116 10.115v84q0 6-4.116 10.116-4.115 4.115-10.115 4.115h-27v90.923q0 9.923-3.192 18.346Q677 681.539 671.846 688ZM332 679.385h132.615v-54.308L350.308 510q-1.923 19.462-14 33.577-12.077 14.115-28.923 19.115v92.077q0 9.231 7.692 16.923 7.692 7.693 16.923 7.693Zm163.385-167.846-30.77-30.77V340.923h-30.769q-10 0-13.615-8-3.616-8 1.615-15.231L468 255.615q5-6 12.385-5.615 7.384.384 11.615 5.615l46.154 62.077q5.231 7.231 1.615 15.231-3.615 8-13.615 8h-30.769v170.616Z"/></svg>