<svg xmlns="http://www.w3.org/2000/svg" width="48" height="48" viewBox="0 -960 960 960"><path d="M577.38-700q-6.8 0-11.09-4.3-4.29-4.29-4.29-11.11 0-6.82 4.29-11.09t11.09-4.27h261.85q6.81 0 11.1 4.3 4.29 4.29 4.29 11.11 0 6.82-4.29 11.09t-11.1 4.27H577.38Zm0 150.77q-6.8 0-11.09-4.3-4.29-4.29-4.29-11.11 0-6.82 4.29-11.09t11.09-4.27h261.85q6.81 0 11.1 4.3 4.29 4.29 4.29 11.11 0 6.82-4.29 11.09t-11.1 4.27H577.38Zm0 150.77q-6.8 0-11.09-4.3-4.29-4.29-4.29-11.11 0-6.82 4.29-11.09t11.09-4.27h261.85q6.81 0 11.1 4.3 4.29 4.29 4.29 11.11 0 6.82-4.29 11.09t-11.1 4.27H577.38Zm-325.73-43.63q-25.03-25.24-25.03-62.96t24.85-63.14q24.86-25.43 62.96-25.43 38.11 0 63.15 25.25 25.04 25.24 25.04 62.96t-24.86 63.14q-24.86 25.42-62.96 25.42-38.11 0-63.15-25.24ZM105.38-233.85v-12.92q0-11.83 5.93-22.8 5.92-10.97 16.31-16.43 41.15-25.85 88.5-39.81 47.34-13.96 98.5-13.96 51.15 0 98.38 14.69 47.23 14.7 89.38 39.08 8.62 6.92 15.04 17.16 6.43 10.24 6.43 22.07v12.92q0 12.04-7.83 19.87-7.83 7.83-19.87 7.83H133.08q-12.04 0-19.87-7.83-7.83-7.83-7.83-19.87Zm27.31-20.23v17.16h363.85v-17.16q-41.31-25.23-89.23-40.07Q359.38-309 314.62-309q-44.77 0-92.81 14.85-48.04 14.84-89.12 40.07ZM355.46-464q16.39-16.38 16.39-40.85 0-24.46-16.39-41.23-16.38-16.77-40.84-16.77-24.47 0-40.85 16.77-16.39 16.77-16.39 41.23 0 24.47 16.39 40.85 16.38 16.38 40.85 16.38 24.46 0 40.84-16.38Zm-40.84-40.85Zm0 267.93Z"/></svg>