<svg xmlns="http://www.w3.org/2000/svg" width="48" height="48" viewBox="0 -960 960 960"><path d="M464.615-784.615H320q-6.539 0-10.962-4.486-4.423-4.485-4.423-11.115t4.423-10.899q4.423-4.27 10.962-4.27h320q6.539 0 10.962 4.485 4.423 4.486 4.423 11.116t-4.423 10.899q-4.423 4.27-10.962 4.27H495.385v123.077q0 6.538-4.485 10.961-4.486 4.423-11.116 4.423t-10.899-4.423q-4.27-4.423-4.27-10.961v-123.077ZM180-183.615V-381q0-6.539 4.485-10.962t11.116-4.423q6.63 0 10.899 4.456 4.269 4.455 4.269 11.042v.887h173.846v-169.231h-1q-6.538 0-10.961-4.485t-4.423-11.115q0-6.631 4.423-10.9T383.615-580h192.77q6.538 0 10.961 4.485t4.423 11.116q0 6.63-4.455 10.899-4.456 4.269-11.042 4.269h-.887V-380h173.846v-1q0-6.539 4.485-10.962t11.115-4.423q6.631 0 10.9 4.423T780-381v197.385q0 6.538-4.485 10.961t-11.115 4.423q-6.631 0-10.9-4.455t-4.269-11.042v-.887H210.769v.906q0 6.94-4.485 11.209-4.485 4.269-11.115 4.269-6.631 0-10.9-4.423T180-183.615Z"/></svg>