<svg xmlns="http://www.w3.org/2000/svg" width="48" height="48" viewBox="0 -960 960 960"><path d="M307.308-216.846q-39.77-8.769-67.193-11.731-27.423-2.961-57.423-2.961h-17.308q-9.923 0-16.884-6.962-6.962-6.961-6.962-16.885 0-9.923 6.962-16.884 6.961-6.962 16.884-6.962h17.308q30 0 57.423-2.961 27.423-2.962 67.193-11.731v77.077Zm387.999 1.461H342.692v-80h272.615L94.923-815.769q-4.385-4.385-4.77-10.616-.384-6.23 4.77-10.615 5.154-5.154 11.615-5.154 6.462 0 10.847 5.154L838-116.923q4.385 4.385 4.385 10.615 0 6.231-4.385 11.385-5.154 5.154-11.5 5.154t-10.731-5.154L695.307-215.385Zm121.77-23.076-57.693-56.924h34.462q16.385-.769 28.193 11.808 11.807 12.577 11.807 28.192 0 7.924-4.653 12.193-4.654 4.269-12.116 4.731ZM420-235.385q8 0 14-6t6-14q0-8-6-14t-14-6q-8 0-14 6t-6 14q0 8 6 14t14 6Zm398.846-118.076q-7.153 0-11.461-4.308-4.308-4.308-4.308-10.693v-79.615q0-64.692-42.769-106.692t-108-46.154q-6.385-1.231-11.077-5.539-4.692-4.307-4.692-10.692 0-5.923 4.576-10.846 4.577-4.923 10.962-5.846 25.308-4.923 41.462-25.808 16.153-20.885 16.153-49.115 0-27.77-15.769-49.654-15.769-21.885-41.077-27.577-7.154-1.693-11.731-6.885-4.576-5.192-4.576-11.346 0-6.385 4.038-10.308 4.039-3.923 9.423-3.461 41.154 5.923 65.808 37.423 24.654 31.5 24.654 71.808 0 29.461-11.616 51.384-11.615 21.923-31.846 33.539 56.539 14.538 96.693 61.654 40.153 47.115 40.153 114.115v79.615q0 6.385-4.307 10.693-4.308 4.308-10.693 4.308Zm-73.461 0q-6.385 0-10.693-4.308-4.307-4.308-4.307-10.693v-38.692q0-38.923-24.885-62.538-24.885-23.616-56.038-23.616h-67.154q-3.616 0-11.731-.846-8.116-.846-12.962-3.769l-74.692-73.923q-3.385-7.539-4.731-18.654t-1.346-15.962q0-41.077 26.192-69.423 26.193-28.346 65.039-33.269 6.154-.462 10.577 3.461 4.423 3.924 4.423 10.308 0 5.923-4.692 11.231-4.693 5.308-11.077 6-26.308 4.692-43 23.808-16.693 19.115-16.693 47.115 0 32.692 21.77 57.923 21.769 25.231 53.692 25.231h66.385q48.077 0 79.884 34.692 31.808 34.693 31.808 80.231v40.692q0 6.385-4.692 10.693-4.693 4.308-11.077 4.308Z"/></svg>