<svg xmlns="http://www.w3.org/2000/svg" width="48" height="48" viewBox="0 -960 960 960"><path d="m438.231-418.154-82.077-82.077q-3.616-4.385-10.462-4.769-6.846-.385-12 4.769t-5.154 11.616q0 6.461 5.154 10.846l84.385 84.615q8.231 8.231 19.077 8.231 10.846 0 19.077-8.231l169.077-169.077q4.384-4.384 4.769-10.731.385-6.346-4.769-11.269-4.154-4.154-10.616-4.038-6.461.115-10.615 5.038L438.231-418.154ZM480-126.307q-5 0-9.885-1-4.884-1-9.884-3-120.539-45.462-190.385-153.501Q200-391.846 200-519.154v-174.462q0-17.461 10.231-32.192 10.23-14.731 25.692-20.961l224.615-83.154q10.231-4 19.462-4t19.462 4l224.615 83.154q15.462 6.23 25.692 20.961Q760-711.077 760-693.616v174.462q0 127.308-69.846 235.346-69.846 108.039-190.385 153.501-5 2-9.884 3-4.885 1-9.885 1Z"/></svg>