<svg xmlns="http://www.w3.org/2000/svg" width="48" height="48"><path d="M8.6 28.55q-.35 0-.55-.225-.2-.225-.2-.575 0-.3.2-.525.2-.225.5-.225H21.3q.35 0 .55.225.2.225.2.525 0 .35-.2.575-.2.225-.5.225zm0 7.45q-.35 0-.55-.225-.2-.225-.2-.525 0-.35.2-.575.2-.225.5-.225H21.3q.35 0 .55.225.2.225.2.575 0 .3-.2.525-.2.225-.5.225zm0-15q-.35 0-.55-.225-.2-.225-.2-.525 0-.35.2-.575.2-.225.5-.225H21.3q.35 0 .55.225.2.225.2.575 0 .3-.2.525-.2.225-.5.225zm0-7.45q-.35 0-.55-.225-.2-.225-.2-.575 0-.3.2-.525.2-.225.5-.225H21.3q.35 0 .55.225.2.225.2.525 0 .35-.2.575-.2.225-.5.225zM30.05 36q-.6 0-.975-.4t-.375-1V13.4q0-.6.375-1t.975-.4h8.75q.6 0 .975.4t.375 1v21.2q0 .6-.375 1t-.975.4z"/></svg>