<svg xmlns="http://www.w3.org/2000/svg" width="48" height="48" viewBox="0 -960 960 960"><path d="M498.31-200q-6.58 0-10.98-4.46-4.41-4.46-4.41-11.11 0-6.66 4.41-10.93 4.4-4.27 10.98-4.27h145.54q10.77 0 17.69-6.92 6.92-6.93 6.92-17.69v-449.24q0-10.76-6.92-17.69-6.92-6.92-17.69-6.92H194.62q-10.77 0-17.7 6.92-6.92 6.93-6.92 17.69v135.16q0 6.58-4.46 10.98t-11.11 4.4q-6.66 0-10.93-4.4t-4.27-10.98v-135.16q0-23.05 16.16-39.22Q171.56-760 194.62-760h449.23q23.05 0 39.22 16.16 16.16 16.17 16.16 39.22v201.93l97.08-97.08q6.23-6.23 15.34-3.04 9.12 3.19 9.12 12.27v221.08q0 9.08-9.12 12.27-9.11 3.19-15.34-3.04l-97.08-97.85v202.7q0 23.05-16.16 39.22Q666.9-200 643.85-200H498.31Zm-367.23-5.46q-45.23-45.22-45.23-110.15t45.23-110.16Q176.31-471 240.85-471q64.53 0 110.15 45.1 45.62 45.1 45.62 110.69 0 64.76-45.62 109.87t-110.15 45.11q-64.54 0-109.77-45.23Zm109.65-16.16q7.96 0 13.69-5.61 5.73-5.62 5.73-14.08T254.32-255q-5.83-5.23-13.09-5.23-8.46 0-14.08 5.23-5.61 5.23-5.61 13.69 0 8.46 5.61 14.08 5.62 5.61 13.58 5.61Zm.12-76.53q6.07 0 10.19-3.75 4.11-3.74 4.11-10.57v-82.85q0-6.83-4.23-10.95-4.23-4.11-10.69-4.11-6.46 0-10.19 4.23-3.73 4.23-3.73 11.05v82.66q0 6.82 4.23 10.56 4.23 3.73 10.31 3.73ZM419.23-480Z"/></svg>