<svg xmlns="http://www.w3.org/2000/svg" width="48" height="48"><path d="m39.9 29.95-4.8-4.85v5.3l-1.55-1.55v-16.1q0-.5-.35-.85t-.9-.35H16.25L14.7 10h17.6q1.15 0 1.975.8.825.8.825 1.95v10.1l4.8-4.8q.35-.35.8-.15.45.2.45.7v10.8q0 .5-.45.7-.45.2-.8-.15zm-1.05 11.4L34.6 37q-.35.45-.975.725Q33 38 32.3 38H9.85q-1.15 0-1.95-.8t-.8-1.95V12.8q0-.85.275-1.375T8.1 10.6L5.65 8.15q-.2-.2-.2-.5t.25-.55q.25-.25.55-.25.3 0 .55.25L40 40.3q.2.25.175.525-.025.275-.225.525-.25.3-.575.3-.325 0-.525-.3zm-29-4.9H32.6q.35 0 .55-.125.2-.125.35-.325L9.1 11.5q-.2.1-.35.4-.15.3-.15.6v22.75q0 .5.35.85t.9.35zM25 20.25zm-3.75 3.45z"/></svg>