<svg xmlns="http://www.w3.org/2000/svg" width="48" height="48" viewBox="0 -960 960 960"><path d="M175.38-280q-23.05 0-39.22-16.16Q120-312.33 120-335.66v-288.96q0-23.23 15.99-39.3Q151.98-680 174.62-680H280l307.77 307.77h-43.69L123.54-792.77q-4.39-4.49-4.77-10.78-.39-6.3 4.38-11.07 4.77-4.76 10.97-4.76 6.19 0 11.65 4.38L815-145.77q3.62 4.74 4 11.18.38 6.44-4 10.82-5.46 5.15-11.65 5.15-6.2 0-10.58-5.15L635.54-280H175.38Zm614-8.12q-12.46-1.11-22.69-11.34L427-632.85q-6.47-6.13-7.35-14.29-.88-8.17 1.73-15.01 2.62-6.85 8.66-12.35t15.65-5.5h338.93q23.05 0 39.22 16.16Q840-647.67 840-624.34v288.96q0 15.51-7.21 26.44-7.22 10.93-19.08 16.43-11.86 5.51-24.33 4.39ZM668.81-568.98q-10.04 9.57-10.04 23.43t9.95 23.51q9.95 9.66 23.42 9.66 13.48 0 23.13-9.57 9.65-9.56 9.65-23.42 0-13.86-9.56-23.51-9.56-9.66-23.04-9.66-13.47 0-23.51 9.56ZM303.15-463.15v75.53q0 6.79 4.31 11.09t11.12 4.3q6.8 0 11.07-4.3 4.27-4.3 4.27-11.09v-75.53h75.54q6.79 0 11.09-4.31t4.3-11.12q0-6.8-4.3-11.07-4.3-4.27-11.09-4.27h-75.54v-75.54q0-6.79-4.31-11.09t-11.11-4.3q-6.81 0-11.08 4.3-4.27 4.3-4.27 11.09v75.54h-75.53q-6.79 0-11.09 4.31t-4.3 11.11q0 6.81 4.3 11.08 4.3 4.27 11.09 4.27h75.53Z"/></svg>