<svg xmlns="http://www.w3.org/2000/svg" width="48" height="48" viewBox="0 -960 960 960"><path d="M777-132.615 113.846-795.769q-4.385-4.385-4.769-10.616-.385-6.231 4.769-11.384 5.154-5.154 11-5.154t11 5.154L799-154.615q4.385 4.385 4.77 10.615.384 6.231-4.77 11.385-5.153 5.154-11 5.154-5.846 0-11-5.154ZM425.692-484.154ZM195.154-758.462l29.231 29.231h-27.462q-10.769 0-17.692 6.923-6.924 6.923-6.924 17.692v449.232q0 10.769 6.924 17.692 6.923 6.923 17.692 6.923h449.231q10.769 0 17.692-6.923t6.923-17.692v-27.462L700-253.615v9q-3.846 18.442-18.909 31.529Q666.029-200 646.154-200H196.923q-23.058 0-39.221-16.163-16.164-16.164-16.164-39.221v-449.232q0-19.875 12.616-34.937 12.615-15.063 32-18.909h9Zm88.384 412.001v-6.385q0-32.923 37.692-53.269 37.693-20.347 98.001-20.347 60.307 0 98 20.347 37.692 20.346 37.692 53.269v6.385H283.538Zm418.001-111.616v71.923q0 6.539-4.486 10.962-4.485 4.423-11.115 4.423t-10.9-4.423q-4.269-4.423-4.269-10.962v-318.462q0-10.769-6.923-17.692t-17.692-6.923H321.385q-7.693 0-11.539-4.707T306-744.294q0-5.649 3.846-10.677Q313.692-760 321.385-760h324.769q23.058 0 39.221 16.163 16.164 16.164 16.164 39.221v201.924l97.314-97.315q5.993-5.993 15.109-2.772 9.115 3.221 9.115 12.24v221.078q0 9.019-9.115 12.24-9.116 3.221-15.109-2.772l-97.314-98.084Zm-201.385-96.538Z"/></svg>