<svg xmlns="http://www.w3.org/2000/svg" width="48" height="48" viewBox="0 -960 960 960"><path d="m798.616-360.23-97.077-97.847v105.616L294-760h352.154q23.231 0 39.308 16.077 16.077 16.077 16.077 39.307v201.924l97.077-97.078q6.23-6.23 15.346-3.115 9.115 3.115 9.115 12.346v221.078q0 9.231-9.115 12.346-9.116 3.115-15.346-3.115ZM777-132.615 113.846-795.769q-4.385-4.385-4.769-10.616-.385-6.231 4.769-11.384 5.154-5.154 11-5.154t11 5.154L799-154.615q4.385 4.385 4.77 10.615.384 6.231-4.77 11.385-5.153 5.154-11 5.154-5.846 0-11-5.154ZM195.154-758.462 700-253.615v9Q696.154-226 681.231-213q-14.923 13-35.077 13H196.923q-23.231 0-39.308-16.077-16.077-16.077-16.077-39.307v-449.232q0-20.153 12.616-35.077 12.615-14.923 32-18.769h9Zm88.384 412.001h271.385v-6.385q0-32.923-37.692-53.269-37.693-20.347-98-20.347-60.308 0-98.001 20.347-37.692 20.346-37.692 53.269v6.385Z"/></svg>