<svg xmlns="http://www.w3.org/2000/svg" width="48" height="48" viewBox="0 -960 960 960"><path d="M194.385-390.461q-5.847 0-10.116-4.412-4.269-4.412-4.269-11 0-6.819 4.288-11.089 4.289-4.269 11.097-4.269h570.23q5.847 0 10.116 4.796Q780-411.638 780-405.819q0 6.819-4.288 11.088-4.289 4.27-11.097 4.27h-570.23Zm0 150.769q-5.847 0-10.116-4.412-4.269-4.411-4.269-11 0-6.819 4.288-11.088 4.289-4.27 11.097-4.27h570.23q5.847 0 10.116 4.797Q780-260.869 780-255.05q0 6.819-4.288 11.089-4.289 4.269-11.097 4.269h-570.23Zm0-299.077q-5.847 0-10.116-4.796Q180-548.362 180-554.181q0-6.819 4.288-11.088 4.289-4.27 11.097-4.27h570.23q5.847 0 10.116 4.412 4.269 4.412 4.269 11 0 6.819-4.288 11.089-4.289 4.269-11.097 4.269h-570.23Zm0-150.769q-5.847 0-10.116-4.797Q180-699.131 180-704.95q0-6.819 4.288-11.089 4.289-4.269 11.097-4.269h570.23q5.847 0 10.116 4.412 4.269 4.411 4.269 11 0 6.819-4.288 11.088-4.289 4.27-11.097 4.27h-570.23Z"/></svg>