<svg xmlns="http://www.w3.org/2000/svg" width="48" height="48" viewBox="0 -960 960 960"><path d="m451.077-188.538-204.616-119.77q-12.428-8.512-19.56-21.157-7.132-12.644-7.132-26.996v-239.308q0-14.353 7.132-26.997t19.56-21.157l205.616-121q13.483-7.231 28.049-7.231 14.566 0 27.797 7.231l205.616 121q12.428 8.513 19.56 21.157 7.132 12.644 7.132 26.997v239.308q0 14.352-7.01 26.996-7.009 12.645-20.682 21.157l-206.077 119.77q-13.811 8-27.983 8-14.171 0-27.402-8ZM135.169-669.461q-6.631 0-10.9-4.424Q120-678.308 120-684.846v-99.77q0-22.25 16.567-38.817T175.384-840h99.77q6.538 0 10.961 4.485 4.424 4.485 4.424 11.115 0 6.631-4.424 10.9-4.423 4.269-10.961 4.269h-99.77q-10.769 0-17.692 6.923t-6.923 17.692v99.77q0 6.538-4.485 10.961-4.485 4.424-11.115 4.424ZM175.384-120q-22.25 0-38.817-16.567T120-175.384v-99.77q0-6.538 4.485-10.961 4.485-4.424 11.115-4.424 6.631 0 10.9 4.424 4.269 4.423 4.269 10.961v99.77q0 10.769 6.923 17.692t17.692 6.923h99.77q6.538 0 10.961 4.485 4.424 4.485 4.424 11.115 0 6.631-4.424 10.9Q281.692-120 275.154-120h-99.77Zm609.232 0h-99.77q-6.538 0-10.961-4.485-4.424-4.485-4.424-11.115 0-6.631 4.424-10.9 4.423-4.269 10.961-4.269h99.77q10.769 0 17.692-6.923t6.923-17.692v-99.77q0-6.538 4.485-10.961 4.485-4.424 11.115-4.424 6.631 0 10.9 4.424Q840-281.692 840-275.154v99.77q0 22.25-16.567 38.817T784.616-120Zm24.615-564.846v-99.77q0-10.769-6.923-17.692t-17.692-6.923h-99.77q-6.538 0-10.961-4.485-4.424-4.485-4.424-11.115 0-6.631 4.424-10.9Q678.308-840 684.846-840h99.77q22.25 0 38.817 16.567T840-784.616v99.77q0 6.538-4.485 10.961-4.485 4.424-11.115 4.424-6.631 0-10.9-4.424-4.269-4.423-4.269-10.961Zm-543.846 65.461-14.616 9.539v20.077l213.846 121.308v251.692L480-207.231l15.385-9.538v-251.692l214.076-121.308v-20.077l-14.846-9.539L480-495.539 265.385-619.385Z"/></svg>