<svg xmlns="http://www.w3.org/2000/svg" width="48" height="48" viewBox="0 -960 960 960"><path d="M397.615-692.308q0-11.769 7.962-19.731Q413.539-720 425.308-720h347q11.769 0 19.731 7.961Q800-704.077 800-692.308v171.154q0 11.769-7.961 19.731-7.962 7.961-19.731 7.961h-347q-11.769 0-19.731-7.961-7.962-7.962-7.962-19.731v-171.154ZM187.692-240q-11.769 0-19.731-7.961Q160-255.923 160-267.692v-424.616q0-11.769 7.961-19.731Q175.923-720 187.692-720h156.077q11.769 0 19.731 7.961 7.962 7.962 7.962 19.731v424.616q0 11.769-7.962 19.731Q355.538-240 343.769-240H187.692Zm584.616-227.308q11.769 0 19.731 8.337Q800-450.635 800-439.615v171.923q0 11.769-7.961 19.731Q784.077-240 772.308-240H640.077q-11.769 0-19.731-7.961-7.961-7.962-7.961-19.731v-171.923q0-11.02 7.961-19.356 7.962-8.337 19.731-8.337h132.231Zm-374.693 27.693q0-11.02 7.962-19.356 7.962-8.337 19.731-8.337h133.231q11.769 0 19.73 8.337 7.962 8.336 7.962 19.356v171.923q0 11.769-7.962 19.731-7.961 7.961-19.73 7.961H425.308q-11.769 0-19.731-7.961-7.962-7.962-7.962-19.731v-171.923Z"/></svg>