<svg xmlns="http://www.w3.org/2000/svg" width="48" height="48" viewBox="0 -960 960 960"><path d="M652.539-493.462q-23.058 0-39.221-16.163-16.164-16.164-16.164-39.221v-115.77q0-23.057 16.164-39.221Q629.481-720 652.539-720h91.307q23.058 0 39.222 16.163 16.163 16.164 16.163 39.221v115.77q0 23.057-16.163 39.221-16.164 16.163-39.222 16.163h-91.307Zm-214.616 0q-23.058 0-39.221-16.163-16.164-16.164-16.164-39.221v-115.77q0-23.057 16.164-39.221Q414.865-720 437.923-720h85.154q23.058 0 39.221 16.163 16.164 16.164 16.164 39.221v115.77q0 23.057-16.164 39.221-16.163 16.163-39.221 16.163h-85.154Zm-221 0q-23.058 0-39.221-16.163-16.164-16.164-16.164-39.221v-115.77q0-23.057 16.164-39.221Q193.865-720 216.923-720h91.308q22.461 0 38.923 16.163 16.461 16.164 16.461 39.221v115.77q0 23.057-16.461 39.221-16.462 16.163-38.923 16.163h-91.308Zm0 253.462q-23.058 0-39.221-16.163-16.164-16.164-16.164-39.221v-116.539q0-22.462 16.164-38.923 16.163-16.462 39.221-16.462h91.308q22.461 0 38.923 16.462 16.461 16.461 16.461 38.923v116.539q0 23.057-16.461 39.221Q330.692-240 308.231-240h-91.308Zm221 0q-23.058 0-39.221-16.163-16.164-16.164-16.164-39.221v-116.539q0-22.462 16.164-38.923 16.163-16.462 39.221-16.462h85.154q23.058 0 39.221 16.462 16.164 16.461 16.164 38.923v116.539q0 23.057-16.164 39.221Q546.135-240 523.077-240h-85.154Zm214.616 0q-23.058 0-39.221-16.163-16.164-16.164-16.164-39.221v-116.539q0-22.462 16.164-38.923 16.163-16.462 39.221-16.462h91.307q23.058 0 39.222 16.462 16.163 16.461 16.163 38.923v116.539q0 23.057-16.163 39.221Q766.904-240 743.846-240h-91.307Z"/></svg>