<svg xmlns="http://www.w3.org/2000/svg" width="48" height="48" viewBox="0 96 960 960"><path d="M150.769 856q-12.269 0-21.519-9.25-9.25-9.25-9.25-21.519V326.769q0-12.269 9.25-21.519 9.25-9.25 21.519-9.25h658.462q12.269 0 21.519 9.25 9.25 9.25 9.25 21.519v498.462q0 12.269-9.25 21.519-9.25 9.25-21.519 9.25H150.769Zm509.154-381.462h149.308V326.769H659.923v147.769Zm0 172.154h149.308V505.308H659.923v141.384ZM150.769 825.231h478.385V326.769H150.769v498.462Zm509.154 0h149.308V677.462H659.923v147.769Z"/></svg>