<svg xmlns="http://www.w3.org/2000/svg" width="48" height="48" viewBox="0 -960 960 960"><path d="M479.765-390.308q-45.996 0-77.727-31.966-31.73-31.966-31.73-77.961 0-45.996 31.966-77.727 31.966-31.73 77.961-31.73 45.996 0 77.727 31.966 31.73 31.966 31.73 77.961 0 45.996-31.966 77.727-31.966 31.73-77.961 31.73ZM480-240q-121.549 0-223.775-63.846Q154-367.692 96.695-474.041q-2.85-6.054-4.35-12.39-1.5-6.336-1.5-13.453 0-7.116 1.5-13.531 1.5-6.416 4.35-12.544Q154-632.308 256.225-696.154 358.451-760 480-760q117.231 0 215.885 58.731 98.654 58.73 158.5 158.5 2.923 5.615 1.846 11.73-1.077 6.116-6.692 8.808-5.616 2.693-12.116.731-6.5-1.962-9.423-7.577-55.461-92.462-147.775-146.308Q587.911-729.231 480-729.231q-117.386 0-214.924 62.039Q167.538-605.154 115.846-500q51.692 105.154 149.23 167.192Q362.614-270.769 480-270.769q15.231 0 30.795-1 15.564-1 29.974-3.769 5.846-.462 10.616 3.206 4.769 3.668 4.769 9.581 0 6.495-4.394 12.208-4.395 5.712-10.991 5.774Q525.962-242 510.385-241T480-240Zm0-118.461q22.808 0 44.289-7.116 21.48-7.115 38.403-19.577 8.77-25.538 22.27-47.231 13.5-21.692 33.577-39.384 1.23-7.231 2.115-14.116.885-6.884.885-14.115 0-58.269-41.722-99.904t-100.116-41.635q-58.393 0-99.817 41.722-41.423 41.722-41.423 100.116 0 58.393 41.635 99.817 41.635 41.423 99.904 41.423ZM476.231-500Zm190.308 340.769q-13.039 0-21.712-8.673t-8.673-21.711v-108.462q0-12.461 10.731-20.654 10.73-8.192 25.423-8.192v-42.692q0-26.947 19.454-46.359 19.454-19.411 47.231-19.411 27.007 0 45.93 19.411 18.923 19.412 18.923 46.359v42.692q14.693 0 25.423 8.192Q840-310.538 840-298.077v108.462q0 13.038-8.673 21.711-8.673 8.673-20.942 8.673H666.539Zm31.923-167.692h79.231v-42.605q0-17.549-10.605-28.626-10.605-11.077-28.154-11.077-18.318 0-29.395 11.015-11.077 11.014-11.077 28.601v42.692Z"/></svg>