<svg xmlns="http://www.w3.org/2000/svg" width="48" height="48" viewBox="0 -960 960 960"><path d="M271-350.769q-62.18 0-105.705-43.473-43.526-43.473-43.526-105.577t43.473-105.758q43.473-43.654 105.577-43.654 62.873 0 106.143 43.526Q420.231-562.18 420.231-500q0 35.271-15.039 66.789-15.038 31.519-44.192 51.673h238.231q-29.154-20.385-44.193-51.484Q540-464.122 540-500q0-62.18 43.473-105.705 43.473-43.526 105.577-43.526t105.873 43.473q43.77 43.473 43.77 105.577T795.1-394.423q-43.593 43.654-105.869 43.654H271Zm-.022-30.769q50.422 0 84.453-34.329 34.03-34.329 34.03-84.046 0-49.718-34.009-84.133-34.009-34.416-84.046-34.416-50.037 0-84.452 34.329-34.416 34.329-34.416 84.046 0 49.718 34.348 84.133 34.347 34.416 84.092 34.416Zm418.166 0q49.718 0 84.133-34.329 34.415-34.329 34.415-84.046 0-49.718-34.328-84.133-34.329-34.416-84.046-34.416-49.718 0-84.133 34.329-34.416 34.329-34.416 84.046 0 49.718 34.329 84.133 34.329 34.416 84.046 34.416Z"/></svg>