<svg xmlns="http://www.w3.org/2000/svg" width="48" height="48" viewBox="0 -960 960 960"><path d="m176.23-197.846 75.462-169.231q6.462-15.462 20.24-24.192Q285.71-400 302.077-400h84.846l66.538-165.077q6.231-15.462 20.154-25.192Q487.538-600 504.846-600h144q18.81 0 33.097 11.231 14.288 11.23 19.288 29.692l105.231 369.231q7.231 26.692-8.846 48.269Q781.539-120 753.846-120H226.615q-29.692 0-46.269-24.692-16.577-24.692-4.116-53.154Zm50.385 47.077h527.231q12.308 0 19.231-10 6.923-10 3.846-21.538L672.692-551.539q-3.077-8.461-9.615-13.076-6.538-4.616-14.231-4.616H504.615q-7.692 0-13.846 4.231t-9.231 11.154l-73.45 184.615H302.077q-7.692 0-13.462 3.846-5.769 3.846-8.846 10.769l-75.462 169.232q-5.384 12.307 1.539 23.461 6.923 11.154 20.769 11.154Zm339.462-623.077v-80q0-6.597 4.444-10.991 4.445-4.394 11.116-4.394 6.671 0 10.94 4.394 4.269 4.394 4.269 10.991v80q0 6.596-4.445 10.99-4.444 4.394-11.115 4.394t-10.94-4.394q-4.269-4.394-4.269-10.99Zm172 71.923q-4.385 4.384-11 4.384-6.616 0-11-4.384-4.385-4.385-4.385-10.616 0-6.23 4.385-10.615l58-57q4.384-4.385 10.115-4.385t10.885 4.385q4.385 4.385 4.385 10.615 0 6.231-4.385 10.616l-57 57Zm-313.231 0-57-58q-4.385-4.385-4.385-10.116 0-5.73 4.385-10.115t10.615-4.385q6.231 0 10.616 4.385l57.769 57q4.385 4.385 4.385 10.615 0 6.231-4.385 10.616-4.385 4.384-11 4.384t-11-4.384Zm329 551.154H204.307h572.616-23.077Z"/></svg>