<svg xmlns="http://www.w3.org/2000/svg" width="48" height="48" viewBox="0 -960 960 960"><path d="M753.85-120H226.62q-29.7 0-46.27-24.69-16.58-24.69-4.12-53.16l75.46-169.23q6.46-15.46 20.19-24.19 13.74-8.73 30.2-8.73h84.84l66.54-165.08q6.23-15.46 20.08-25.19 13.84-9.73 31.31-9.73h144q18.46 0 32.92 11.23t19.46 29.69l105.23 369.23q7.23 26.7-8.84 48.27Q781.54-120 753.85-120ZM566.08-773.85v-80q0-6.84 4.27-11.11t11.11-4.27q6.85 0 11.12 4.27t4.27 11.11v80q0 6.85-4.27 11.12t-11.12 4.27q-6.84 0-11.11-4.27t-4.27-11.12Zm150 50.7 57.77-57q4.38-4.39 10.61-4.27 6.23.11 10.62 4.27 4.38 3.61 4.38 10.61t-4.38 10.62l-57.77 57q-4.39 4.15-10.62 3.88-6.23-.27-10.61-4.65-4.39-4.39-4.39-10.23 0-5.85 4.39-10.23Zm-290.46 20.46-57.77-57q-4.39-4.39-4.27-10.62.11-6.23 4.27-9.84 4.38-5.16 11-5.16 6.61 0 11 5.16l57 57.77q4.15 4.38 4.27 10.23.11 5.84-4.27 9.46-4.39 4.38-10.62 4.38-6.23 0-10.61-4.38Z"/></svg>