<svg xmlns="http://www.w3.org/2000/svg" width="48" height="48" viewBox="0 -960 960 960"><path d="m176.23-197.846 75.462-169.231q6.462-15.462 20.229-24.192Q285.689-400 302.077-400h84.846l66.538-165.077q6.231-15.462 20.136-25.192Q487.503-600 504.846-600h144.319q18.143 0 32.604 11.231 14.462 11.23 19.462 29.692l105.231 369.231q7.231 26.692-9.021 48.269Q781.189-120 753.846-120H226.615q-29.692 0-46.269-24.692-16.577-24.692-4.116-53.154Zm389.847-576v-80q0-6.808 4.296-11.097 4.296-4.288 11.115-4.288 6.82 0 11.089 4.288 4.269 4.289 4.269 11.097v80q0 6.807-4.296 11.096-4.296 4.288-11.115 4.288-6.82 0-11.089-4.288-4.269-4.289-4.269-11.096Zm172 71.923q-4.316 4.384-10.966 4.384-6.65 0-11.034-4.329-4.385-4.33-4.385-10.616 0-6.285 4.385-10.67l58-57q4.128-4.385 9.987-4.385t11.013 4.385q4.385 4.385 4.385 10.744t-4.385 10.487l-57 57Zm-313.231 0-57-58q-4.385-4.385-4.256-10.244.128-5.859 4.256-9.987 4.128-4.385 10.487-4.385t10.744 4.385l57.769 57q4.385 4.316 4.385 10.581t-4.33 10.65q-4.33 4.384-11 4.384t-11.055-4.384Z"/></svg>