<svg xmlns="http://www.w3.org/2000/svg" width="48" height="48" viewBox="0 -960 960 960"><path d="M320-240q-100.286 0-170.143-69.814T80-479.853q0-100.224 69.857-170.186Q219.714-720 320-720h320q100.286 0 170.143 69.814T880-480.147q0 100.224-69.857 170.186Q740.286-240 640-240H320Zm26.923-226.923V-390q0 5.744 3.657 9.41 3.656 3.667 9.384 3.667t9.421-3.667q3.692-3.666 3.692-9.41v-76.923H450q5.744 0 9.41-3.657 3.667-3.656 3.667-9.384t-3.667-9.421q-3.666-3.692-9.41-3.692h-76.923V-570q0-5.744-3.657-9.41-3.656-3.667-9.384-3.667t-9.421 3.667q-3.692 3.666-3.692 9.41v76.923H270q-5.744 0-9.41 3.657-3.667 3.656-3.667 9.384t3.667 9.421q3.666 3.692 9.41 3.692h76.923Zm290-90V-390q0 5.744 3.657 9.41 3.656 3.667 9.384 3.667t9.421-3.667q3.692-3.666 3.692-9.41v-165.385q0-12.038-7.827-19.865-7.827-7.827-19.865-7.827H590q-5.744 0-9.41 3.657-3.667 3.656-3.667 9.384t3.667 9.421q3.666 3.692 9.41 3.692h46.923Z"/></svg>