<svg xmlns="http://www.w3.org/2000/svg" width="48" height="48"><path d="M23.5 31.4q-.75 0-1.325-.575T21.6 29.5q0-.75.575-1.325T23.5 27.6q.75 0 1.325.575T25.4 29.5q0 .75-.575 1.325T23.5 31.4zM9.2 27.55q.4-4.6 3.875-8.3 3.475-3.7 8.475-4.05v1.55q-4.05.5-7.2 3.65-3.15 3.15-3.6 7.15zm-6.55 0v-.2q.25-3.7 1.925-7t4.25-5.825q2.575-2.525 5.85-4.1Q17.95 8.85 21.55 8.65v1.55q-3.35.25-6.375 1.7T9.8 15.65q-2.35 2.3-3.85 5.325Q4.45 24 4.15 27.4v.15zM23.5 37.1q-3.1 0-5.35-2.25-2.25-2.25-2.25-5.35 0-3.15 2.225-5.375T23.5 21.9q2.1 0 3.85 1.05t2.85 2.9h16.35v7.3h-3.4v4h-7.3v-4H30.2q-1.1 1.95-2.9 2.95-1.8 1-3.8 1zm13.9-1.5h4.2v-4H45v-4.2H29.2q-.7-1.75-2.225-2.85-1.525-1.1-3.475-1.1-2.55 0-4.3 1.775T17.45 29.5q0 2.5 1.775 4.275Q21 35.55 23.5 35.55q1.8 0 3.4-1.05 1.6-1.05 2.3-2.9h8.2z"/></svg>