<svg xmlns="http://www.w3.org/2000/svg" width="48" height="48" viewBox="0 0 48 48"><path d="M14 26.15q.9 0 1.525-.625.625-.625.625-1.525 0-.9-.625-1.525Q14.9 21.85 14 21.85q-.9 0-1.525.625-.625.625-.625 1.525 0 .9.625 1.525.625.625 1.525.625ZM14 34q-4.15 0-7.075-2.925T4 24q0-4.15 2.925-7.075T14 14q3.75 0 6.375 2.25t3.375 5.45H36.3V34h-.75q-.55 0-.975-.4-.425-.4-.425-1v-6.3h-10.4q-.75 3.2-3.375 5.45T14 34Zm27.9.45q-.45 0-.825-.375-.375-.375-.375-.875 0-.45.375-.825.375-.375.875-.375.45 0 .825.375.375.375.375.875t-.375.85q-.375.35-.875.35Zm0-4.9q-.3 0-.525-.225-.225-.225-.225-.575v-7.6q0-.3.225-.525.225-.225.575-.225.3 0 .525.225.225.225.225.525v7.6q0 .35-.225.575-.225.225-.575.225Z"/></svg>