<svg xmlns="http://www.w3.org/2000/svg" width="48" height="48" viewBox="0 -960 960 960"><path d="M280-280q-83.333 0-141.667-58.28Q80-396.561 80-479.819q0-83.258 58.333-141.72Q196.667-680 280-680q63.385 0 114.192 35.192 50.808 35.192 70.654 92.577h359.77q22.25 0 38.817 16.567Q880-519.096 880-496.846v33.692q0 22.25-16.567 38.818-16.567 16.567-38.817 16.567h-36.77v72.385q0 22.25-16.182 38.817Q755.481-280 732.462-280H708q-22.25 0-38.817-16.567-16.568-16.567-16.568-38.817v-72.385H464.846Q445-350.384 394.192-315.192 343.385-280 280-280Zm0-30.769q68.692 0 111.115-43.539 42.424-43.538 50.298-84.23h244.433v103.154q0 10.769 6.923 17.692t17.692 6.923h22.001q10.769 0 17.692-6.923t6.923-17.692v-103.154h67.539q10.769 0 17.692-7.308t6.923-17.308v-33.692q0-10-6.923-17.308t-17.692-7.308H441.539q-8-40.692-50.424-84.23Q348.692-649.231 280-649.231q-70.385 0-119.808 49.423T110.769-480q0 70.385 49.423 119.808T280-310.769Zm0-125.846q17.846 0 30.615-12.77 12.77-12.769 12.77-30.615 0-17.846-12.77-30.615-12.769-12.77-30.615-12.77-17.846 0-30.615 12.77-12.77 12.769-12.77 30.615 0 17.846 12.77 30.615 12.769 12.77 30.615 12.77ZM280-480Z"/></svg>