<svg xmlns="http://www.w3.org/2000/svg" width="48" height="48" viewBox="0 -960 960 960"><path d="M284.231-366.769q46.846-4.462 95.154-7.308 48.307-2.846 100.615-2.846 52.077 0 100.5 2.846t95.269 7.308q6.924 1 9.654-3.462 2.731-4.461-1.73-10.923L575.385-516.923q-5-6-12-6t-11.231 6L451.692-393.692l-71.923-88.539q-4.231-6-11.231-6T357.308-483l-81.001 101.077q-4.461 5.692-1.73 10.923 2.73 5.231 9.654 4.231Zm-125.77 154.462Q143-208.461 131.5-216.115q-11.5-7.654-11.5-25.423v-475.385q0-17.77 11.5-25.423 11.5-7.654 26.961-3.808 40.077 10 122.077 28.077T480-700q118.462 0 199.193-17.693 80.73-17.692 120.807-28.461 15.462-3.846 27.731 3.808Q840-734.693 840-716.923v475.385q0 17.769-12.269 25.423T800-212.307q-40.077-10.77-120.807-29.231Q598.462-260 480-260q-117.462 0-199.462 18.462-82 18.461-122.077 29.231Zm-7.692-29.308q80.462-25.154 162.885-37.154 82.423-12 166.346-12t166.346 12q82.423 12 162.885 37.154v-475q-80.462 24.923-162.885 36.153Q563.923-669.231 480-669.231t-166.346-11.231q-82.423-11.23-162.885-36.153v475ZM480-479.231Z"/></svg>