<svg xmlns="http://www.w3.org/2000/svg" width="48" height="48" viewBox="0 -960 960 960"><path d="M467.5-259.73q-5.81-5.81-5.81-14.19 0-8.39 5.81-14.2 5.81-5.8 14.19-5.8 8.39 0 14.19 5.8 5.81 5.81 5.81 14.2 0 8.38-5.81 14.19-5.8 5.81-14.19 5.81-8.38 0-14.19-5.81Zm-1.19-94.42v-139.54l30.77 30.77v108.77q0 6.84-4.27 11.11t-11.12 4.27q-6.84 0-11.11-4.27t-4.27-11.11Zm27.04-414.66q6.11 3.5 10.34 9.96l221.46 382.39q3.39 6.84 1.2 12.08-2.2 5.23-7.58 7.92-5.38 2.69-11.12 1.69-5.73-1-9.11-8.08L480-738.46l-48.15 83.08q-4.16 6.84-10.27 7.46-6.12.61-10.73-2.08-5.39-2.69-7.58-8.31-2.19-5.61 1.96-12.46l51.08-88.08q4.23-6.46 10.34-9.96 6.12-3.5 13.35-3.5 7.23 0 13.35 3.5ZM162.46-190.77h562.31L369.08-546.46 162.46-190.77Zm646.62 83.31L755.54-160H157.38q-16.23 0-24.46-13.85-8.23-13.84 0-28.07l213.7-367-240.16-240.16q-4.38-4.38-4.65-10.73-.27-6.34 4.88-11.5 5.16-5.15 11.12-5.15 5.96 0 11.11 5.15l701.62 702.62q4.38 3.61 4.77 10.23.38 6.61-4.39 11.38-4.77 4.77-11.11 4.77-6.35 0-10.73-5.15ZM546.92-368.62Zm13.39-130.69Z"/></svg>