<svg xmlns="http://www.w3.org/2000/svg" width="48" height="48" viewBox="0 -960 960 960"><path d="M715.379-648.462q-29.61 0-52.494-23.001Q640-694.465 640-724.218q0-34.705 21.615-69.282 21.616-34.577 42.539-61.962 3.788-5.231 11.009-5.231 7.222 0 11.452 5.231 20.923 27.385 42.539 61.858 21.615 34.474 21.615 69.758 0 29.607-22.89 52.496-22.89 22.888-52.5 22.888ZM255.384-120q-56.846 0-96.115-34.654T120-246.154v-197.538q0-24.345 11.451-45.674t32.395-35.019L474-724.231q4.846-3.384 11.115-2.577 6.269.808 11.193 5.731 11.737 11.856 10.484 25.851-1.254 13.995-9.946 28.149l-74.384 124h322.154q6.557 0 10.971 4.421Q760-534.235 760-527.665q0 6.588-4.413 10.973-4.414 4.384-10.971 4.384H416.923q-16.56 0-24.626-13.961-8.067-13.962.164-28.192l81.462-134.077L181.461-498q-14.846 8.539-22.769 22.862-7.923 14.324-7.923 31.446v197.538q0 43.279 30.774 69.332 30.774 26.053 73.841 26.053h449.232q6.557 0 10.971 4.421Q720-141.927 720-135.357q0 6.588-4.413 10.973Q711.173-120 704.616-120H255.384Zm569.232-261.538H535.384q-6.557 0-10.971-4.472Q520-390.482 520-397.125q0-6.644 4.413-10.913 4.414-4.27 10.971-4.27h289.232q6.557 0 10.971 4.422 4.413 4.421 4.413 10.99 0 6.588-4.413 10.973-4.414 4.385-10.971 4.385Zm-40 130.769H535.384q-6.557 0-10.971-4.472Q520-259.712 520-266.356t4.413-10.913q4.414-4.269 10.971-4.269h249.232q6.557 0 10.971 4.421 4.413 4.421 4.413 10.99 0 6.589-4.413 10.973-4.414 4.385-10.971 4.385Zm-449.232-85.385Z"/></svg>