<svg xmlns="http://www.w3.org/2000/svg" width="48" height="48" viewBox="0 -960 960 960"><path d="M344.85-809.23h110.3-110.3Zm0 658.46h110.3-110.3Zm364.38-173.85v-30.76h60v30.76h-60Zm0-140v-30.76h100v30.76h-100Zm0-140v-31.76h135.39v31.76H709.23ZM321.38-120l-41.61-152.54q-53.46-28.08-86.62-83.46Q160-411.38 160-480t33.15-124.12q33.16-55.5 86.62-83.34L321.38-840h157.24l41.61 152.54q53.46 27.84 86.62 83.34Q640-548.62 640-480t-33.15 124q-33.16 55.38-86.62 83.46L478.62-120H321.38Zm78.52-150.77q87.48 0 148.41-60.82 60.92-60.82 60.92-148.31 0-87.48-60.82-148.41-60.82-60.92-148.31-60.92-87.48 0-148.41 60.82-60.92 60.82-60.92 148.31 0 87.48 60.82 148.41 60.82 60.92 148.31 60.92ZM317.62-704q22.23-7 42.19-10.88 19.96-3.89 40.19-3.89 20.23 0 40.19 3.89Q460.15-711 482.38-704l-27.5-105.23H344.85L317.62-704Zm27.5 553.23h110.03L482.38-256q-21.88 6.77-42.01 10.27-20.14 3.5-40.37 3.5-20.23 0-40.37-3.5-20.13-3.5-42.01-10.27l27.5 105.23Z"/></svg>