<svg xmlns="http://www.w3.org/2000/svg" width="48" height="48" viewBox="0 -960 960 960"><path d="M480.15-399.077q23.465 0 39.35-15.99 15.885-15.991 15.885-39.394 0-15.976-5.462-28.565-5.461-12.589-24.846-40.128l-13.846-21.308q-5.385-6.23-11.808-6.23t-10.654 6.23l-14.598 20.952q-19.402 30.202-24.479 41.202-5.077 11-5.077 28.16 0 22.717 16.035 38.894 16.034 16.177 39.5 16.177Zm-.233 152.154q-96.994 0-164.994-68.083-68-68.082-68-165.077 0-96.994 68.083-164.994 68.082-68 165.077-68 96.994 0 164.994 68.083 68 68.082 68 165.077 0 96.994-68.083 164.994-68.082 68-165.077 68Zm349.314-277.692V-540h-88.385q-13.076-58.769-49.461-105.846Q655-692.923 600.692-720h228.539v-15.385q0-6.538 4.485-10.961 4.485-4.424 11.116-4.424 6.63 0 10.899 4.424Q860-741.923 860-735.385v210.77q0 6.538-4.485 10.961t-11.115 4.423q-6.631 0-9.746-5.192t-5.423-10.192ZM100-224.615v-210.77q0-6.538 4.485-10.961t11.115-4.423q6.631 0 10.9 4.423t4.269 10.961V-420h88.385q13.076 58.769 49.461 105.846Q305-267.077 359.308-240H130.769v15.385q0 6.538-4.485 10.961-4.485 4.424-11.116 4.424-6.63 0-10.899-4.424-4.27-4.423-4.27-10.961Z"/></svg>