<svg xmlns="http://www.w3.org/2000/svg" width="48" height="48" viewBox="0 0 48 48"><path d="M14.55 42.25q-1.1 0-1.95-.85-.85-.85-.85-1.95V35q0-1.1.85-1.925t1.95-.825h1.2v-10.5h-1.2q-1.1 0-1.95-.825-.85-.825-.85-1.925v-4.45q0-1.1.85-1.95.85-.85 1.95-.85h7.05v-3.2h-1.45q-.3 0-.525-.225Q19.4 8.1 19.4 7.75q0-.3.225-.525Q19.85 7 20.15 7h7.7q.3 0 .525.225.225.225.225.575 0 .3-.225.525-.225.225-.525.225H26.4v3.2h7.05q1.1 0 1.95.85.85.85.85 1.95V19q0 1.1-.85 1.925t-1.95.825h-1.2v10.5h1.2q1.1 0 1.95.825.85.825.85 1.925v4.45q0 1.1-.85 1.95-.85.85-1.95.85Zm0-1.55h18.9q.55 0 .9-.35t.35-.9V35q0-.55-.35-.9t-.9-.35H30.7v-12h-2.45q-.35 0-.575-.225-.225-.225-.225-.525 0-.35.225-.55.225-.2.575-.2h5.2q.55 0 .9-.35t.35-.9v-4.45q0-.55-.35-.9t-.9-.35h-18.9q-.55 0-.9.35t-.35.9V19q0 .55.35.9t.9.35h2.75v12h2.45q.35 0 .575.225.225.225.225.525 0 .35-.225.55-.225.2-.575.2h-5.2q-.55 0-.9.35t-.35.9v4.45q0 .55.35.9t.9.35ZM24 27Z"/></svg>