<svg xmlns="http://www.w3.org/2000/svg" width="48" height="48" viewBox="0 -960 960 960"><path d="M120-408q0-56.544 26.538-113.349 26.539-56.805 65.691-109.183 39.152-52.379 84.808-98.462 45.655-46.083 83.732-81.468 3.968-3.231 9.099-5.231 5.132-2 10.132-2t9.747 2q4.747 2 8.715 5.231 39.077 36.616 83.384 80.962 44.308 44.346 83.154 94.884Q622.154-587 649.423-532.731q27.27 54.269 30.577 110.962 0 6.846-4.297 11.231-4.297 4.384-11.318 4.384-6.516 0-10.72-4.384-4.203-4.385-4.434-11-2.769-39.539-20.731-80.693-17.961-41.154-46.269-84.231-31.462-46.153-77.269-96.077Q459.154-732.462 400-786.154 277.615-675.692 214.192-579.808 150.769-483.923 150.769-408q0 47.846 14.039 89.346 14.038 41.5 39.654 74.962v.674q0 4.939-3.462 7.786-3.462 2.848-7.615 5.078-4.924 2.231-9.347.847-4.423-1.385-8.346-5.308-27-35.308-41.346-79.269Q120-357.846 120-408Zm280-106.538Zm-96.923 391.615q-12.142 0-19.994-7.852t-7.852-19.994v-153.846q0-12.143 7.852-19.994 7.852-7.852 19.994-7.852h93.846q12.142 0 19.994 7.852 7.852 7.851 7.852 19.994v153.846q0 12.142-7.852 19.994t-19.994 7.852h-93.846Zm1.692-29.538h90.462v-150.462h-90.462v150.462Zm217.077-50.462v68.154q0 6.554-4.107 10.662Q513.631-120 507.077-120q-6.554 0-10.662-4.107-4.107-4.108-4.107-10.662v-180.154q0-8.231 6.615-14.346 6.615-6.116 14.846-6.116h107.616q17.692 0 30.538 12.847 12.846 12.846 12.846 30.538v47.231q0 17-12.038 29.115-12.039 12.116-29.808 13.27L648-142.231q3.462 8.154-1.284 15.193Q641.971-120 633.462-120q-4.924 0-8.5-2.846-3.577-2.846-5.808-6.769l-29.539-73.308h-67.769Zm242.923 0v68.154q0 6.554-4.107 10.662Q756.554-120 750-120q-6.554 0-10.662-4.107-4.107-4.108-4.107-10.662v-180.154q0-8.231 6.615-14.346 6.615-6.116 14.846-6.116h107.616q17.692 0 30.538 12.847 12.846 12.846 12.846 30.538v45.693q0 17.692-12.846 30.538t-30.538 12.846h-99.539Zm-242.923-29.538h99.539q5.384 0 9.615-3.462 4.231-3.461 4.231-8.846V-292q0-5.384-4.231-9.615t-9.615-4.231h-99.539v73.385Zm242.923 0h99.539q5.384 0 9.615-4.231t4.231-9.615V-292q0-5.384-4.231-9.615t-9.615-4.231h-99.539v73.385Z"/></svg>