<svg xmlns="http://www.w3.org/2000/svg" width="48" height="48" viewBox="0 -960 960 960"><path d="M300.115-366.154q10.577 0 18.308-7.846t7.731-18.423q0-10.577-7.866-18.308-7.865-7.731-18.288-7.731-10.462 0-18.308 7.866-7.846 7.865-7.846 18.288 0 10.462 7.846 18.308t18.423 7.846Zm60-120q10.577 0 18.308-7.846t7.731-18.423q0-10.577-7.866-18.308-7.865-7.731-18.288-7.731-10.462 0-18.308 7.866-7.846 7.865-7.846 18.288 0 10.462 7.846 18.308t18.423 7.846Zm0 240q10.577 0 18.308-7.846t7.731-18.423q0-10.577-7.866-18.308-7.865-7.731-18.288-7.731-10.462 0-18.308 7.866-7.846 7.865-7.846 18.288 0 10.462 7.846 18.308t18.423 7.846Zm60-120q10.577 0 18.308-7.846t7.731-18.423q0-10.577-7.866-18.308-7.865-7.731-18.288-7.731-10.462 0-18.308 7.866-7.846 7.865-7.846 18.288 0 10.462 7.846 18.308t18.423 7.846Zm0-240q10.577 0 18.308-7.846t7.731-18.423q0-10.577-7.866-18.308-7.865-7.731-18.288-7.731-10.462 0-18.308 7.866-7.846 7.865-7.846 18.288 0 10.462 7.846 18.308t18.423 7.846Zm60 120q10.577 0 18.308-7.846t7.731-18.423q0-10.577-7.866-18.308-7.865-7.731-18.288-7.731-10.462 0-18.308 7.866-7.846 7.865-7.846 18.288 0 10.462 7.846 18.308t18.423 7.846Zm0 240q10.577 0 18.308-7.846t7.731-18.423q0-10.577-7.866-18.308-7.865-7.731-18.288-7.731-10.462 0-18.308 7.866-7.846 7.865-7.846 18.288 0 10.462 7.846 18.308t18.423 7.846Zm60-120q10.577 0 18.308-7.846t7.731-18.423q0-10.577-7.866-18.308-7.865-7.731-18.288-7.731-10.462 0-18.308 7.866-7.846 7.865-7.846 18.288 0 10.462 7.846 18.308t18.423 7.846Zm0-240q10.577 0 18.308-7.846t7.731-18.423q0-10.577-7.866-18.308-7.865-7.731-18.288-7.731-10.462 0-18.308 7.866-7.846 7.865-7.846 18.288 0 10.462 7.846 18.308t18.423 7.846Zm60 120q10.577 0 18.308-7.846t7.731-18.423q0-10.577-7.866-18.308-7.865-7.731-18.288-7.731-10.462 0-18.308 7.866-7.846 7.865-7.846 18.288 0 10.462 7.846 18.308t18.423 7.846Zm0 240q10.577 0 18.308-7.846t7.731-18.423q0-10.577-7.866-18.308-7.865-7.731-18.288-7.731-10.462 0-18.308 7.866-7.846 7.865-7.846 18.288 0 10.462 7.846 18.308t18.423 7.846Zm60-120q10.577 0 18.308-7.846t7.731-18.423q0-10.577-7.866-18.308-7.865-7.731-18.288-7.731-10.462 0-18.308 7.866-7.846 7.865-7.846 18.288 0 10.462 7.846 18.308t18.423 7.846ZM480-120q-111.125 0-195.563-77.717Q200-275.434 200-408.036q0-83.656 64.487-183.129 64.488-99.473 195.597-218.529 3.803-3.628 9.139-5.698 5.336-2.07 10.672-2.07t10.748 2.07q5.413 2.07 9.273 5.696 131.109 119.012 195.597 218.348Q760-492.012 760-408.036q0 132.602-84.437 210.319Q591.125-120 480-120Z"/></svg>