<svg xmlns="http://www.w3.org/2000/svg" width="48" height="48" viewBox="0 -960 960 960"><path d="M278.077-269.846q-53.769 0-85.808 25.231-32.038 25.231-76.115 35.923-6.616 2.231-11.385-1.038-4.77-3.27-4.77-9.347 0-6.846 4.655-11.846 4.654-5 11.5-7.692 41.307-12.923 71.269-37.077 29.962-24.154 90.654-24.154 32.385 0 56.846 10.577 24.462 10.577 46.731 23.269 22.269 12.692 45.423 22.885 23.154 10.192 52.923 10.192 29.769 0 52.923-10.192 23.154-10.193 45.423-22.885 22.269-12.692 46.731-23.269 24.461-10.577 57.615-10.577 59.923 0 89.27 24.154 29.346 24.154 71.653 37.077 6.847 2.692 11.616 7.577Q860-226.154 860-219.077q0 6.077-4.885 9.347-4.884 3.269-11.5 1.038-44.077-10.692-76-35.923-31.923-25.231-84.923-25.231-29.23 0-52.5 10.577-23.269 10.577-45.923 22.885-22.654 12.307-47.384 22.884-24.731 10.577-56.885 10.577-32.154 0-56.885-10.577-24.73-10.577-47.384-22.884-22.654-12.308-45.923-22.885-23.27-10.577-51.731-10.577Zm0-152.923q-53.769 0-85.808 25.615-32.038 25.616-76.115 36.308-6.616 2.231-11.385-1.423-4.77-3.654-4.77-9.731 0-6.846 4.655-11.846 4.654-5 11.5-7.692 41.307-12.924 71.269-36.693Q217.385-452 278.077-452q32.385 0 56.846 10.577 24.462 10.577 46.731 22.885 22.269 12.307 45.423 22.884 23.154 10.577 52.923 10.577 29.769 0 52.923-10.577 23.154-10.577 45.423-22.884 22.269-12.308 46.731-22.885Q649.538-452 682.692-452q59.923 0 89.27 23.769 29.346 23.769 71.653 36.693 6.847 2.692 11.616 7.577Q860-379.077 860-372q0 5.846-5.385 9.116-5.384 3.269-11 1.807-44.077-11.923-76-36.807-31.923-24.885-84.923-24.885-29.23 0-52.384 10.577t-45.539 23.269q-22.384 12.692-47.5 23.269-25.115 10.577-57.269 10.577-32.154 0-56.885-10.577-24.73-10.577-47.384-23.269-22.654-12.692-45.923-23.269-23.27-10.577-51.731-10.577Zm0-152.154q-53.769 0-85.808 25.231-32.038 25.231-76.115 36.692-6.616 1.462-11.385-1.808-4.77-3.269-4.77-9.346 0-6.846 4.77-11.615 4.769-4.77 11.385-6.693 41.307-12.461 71.269-37.461 29.962-25 90.654-25 32.385 0 56.846 10.577 24.462 10.577 46.731 23.269 22.269 12.692 45.423 23.269 23.154 10.577 52.923 10.577 29.769 0 52.923-10.577 23.154-10.577 45.423-23.269 22.269-12.692 46.731-23.269 24.461-10.577 57.615-10.577 59.923 0 89.27 25 29.346 25 71.653 37.461 6.847 1.923 11.616 6.693Q860-531 860-524.154q0 6.077-4.885 9.346-4.884 3.27-11.5 1.808-44.077-11.461-76-36.692-31.923-25.231-84.923-25.231-29.23 0-52.5 10.577-23.269 10.577-45.923 22.884-22.654 12.308-47.384 22.885Q512.154-508 480-508q-32.154 0-56.885-10.577-24.73-10.577-47.384-22.885-22.654-12.307-45.923-22.884-23.27-10.577-51.731-10.577Zm0-152.154q-53.769 0-85.808 25.231-32.038 25.231-76.115 35.923-6.616 2.231-11.385-1.039-4.77-3.269-4.77-10.115 0-6.077 4.655-11.462 4.654-5.384 11.5-7.307 41.307-13.693 71.269-37.462 29.962-23.769 90.654-23.769 32.385 0 56.846 10.577 24.462 10.577 46.731 22.884 22.269 12.308 45.423 22.885 23.154 10.577 52.923 10.577 29.769 0 52.923-10.577 23.154-10.577 45.423-22.885 22.269-12.307 46.731-22.884 24.461-10.577 57.615-10.577 59.923 0 89.27 23.769 29.346 23.769 71.653 37.462 6.847 1.923 11.616 6.807Q860-684.154 860-677.077q0 6.846-4.885 10.115-4.884 3.27-11.5 1.039-44.077-10.692-76-35.923-31.923-25.231-84.923-25.231-29.23 0-52.5 10.192-23.269 10.193-45.923 22.885-22.654 12.692-47.384 23.269-24.731 10.577-56.885 10.577-32.154 0-56.885-10.577-24.73-10.577-47.384-23.269-22.654-12.692-45.923-22.885-23.27-10.192-51.731-10.192Z"/></svg>