<svg xmlns="http://www.w3.org/2000/svg" width="48" height="48" viewBox="0 -960 960 960"><path d="M479.784-100q-6.63 0-10.899-4.423-4.27-4.423-4.27-10.962v-77.23q0-6.539 4.485-10.962Q473.586-208 480.216-208t10.899 4.423q4.27 4.423 4.27 10.962v77.23q0 6.539-4.485 10.962Q486.414-100 479.784-100ZM115.385-464.615q-6.539 0-10.962-4.485Q100-473.586 100-480.216t4.423-10.899q4.423-4.27 10.962-4.27h77.23q6.539 0 10.962 4.485Q208-486.414 208-479.784t-4.423 10.899q-4.423 4.27-10.962 4.27h-77.23Zm652 0q-6.539 0-10.962-4.485Q752-473.586 752-480.216t4.423-10.899q4.423-4.27 10.962-4.27h77.23q6.539 0 10.962 4.485Q860-486.414 860-479.784t-4.423 10.899q-4.423 4.27-10.962 4.27h-77.23Zm-47.847 256.923-53.846-53.616q-4.153-3.831-4.269-10.454-.115-6.623 4.47-11.609 4.953-5.321 10.915-5.321 5.961 0 11.115 5.154l54.616 53.846q3.384 3.867 3.884 10.357.5 6.489-4.821 11.81-4.987 4.217-10.948 4.217-5.962 0-11.116-4.384Zm-501.244-.167q-4.217-4.987-4.217-11.333 0-6.347 4.384-11.5l53.616-53.616q3.832-3.384 10.454-3.5 6.623-.115 11.609 4.47 5.321 4.953 5.321 10.915 0 5.962-5.153 11.115l-53.846 54.616q-4.31 3.384-10.578 3.384-6.269 0-11.59-4.551ZM480-328q-63.462 0-107.731-44.269Q328-416.538 328-480q0-43.615 21.384-79.154 21.385-35.538 58.616-55.923v-126.462q0-12.692 9.336-21.731 9.337-9.038 21.433-9.038h82.462q12.096 0 21.433 9.038Q552-754.231 552-741.539v126.462q37.231 20.385 58.616 55.923Q632-523.615 632-480q0 63.462-44.269 107.731Q543.462-328 480-328Zm-41.231-295.769q9.475-3.77 20.103-5.27 10.628-1.5 21.128-1.5t21.128 1.5q10.628 1.5 20.103 5.27v-117.77h-82.462v117.77Zm41.349 265q50.113 0 85.613-35.618t35.5-85.731q0-50.113-35.618-85.613t-85.731-35.5q-50.113 0-85.613 35.618t-35.5 85.731q0 50.113 35.618 85.613t85.731 35.5ZM480-480Z"/></svg>