<svg xmlns="http://www.w3.org/2000/svg" width="48" height="48" viewBox="0 -960 960 960"><path d="M479.784-809.231q-6.63 0-10.899-4.423-4.27-4.423-4.27-10.961v-60q0-6.539 4.485-10.962Q473.586-900 480.216-900t10.899 4.423q4.27 4.423 4.27 10.962v60q0 6.538-4.485 10.961-4.486 4.423-11.116 4.423Zm0 749.231q-6.63 0-10.899-4.423-4.27-4.423-4.27-10.962v-60q0-6.538 4.485-10.961 4.486-4.423 11.116-4.423t10.899 4.423q4.27 4.423 4.27 10.961v60q0 6.539-4.485 10.962Q486.414-60 479.784-60Zm344.831-404.615q-6.538 0-10.961-4.485-4.423-4.486-4.423-11.116t4.423-10.899q4.423-4.27 10.961-4.27h60q6.539 0 10.962 4.485Q900-486.414 900-479.784t-4.423 10.899q-4.423 4.27-10.962 4.27h-60Zm-749.23 0q-6.539 0-10.962-4.485Q60-473.586 60-480.216t4.423-10.899q4.423-4.27 10.962-4.27h60q6.538 0 10.961 4.485 4.423 4.486 4.423 11.116t-4.423 10.899q-4.423 4.27-10.961 4.27h-60Zm643.14-255.245q-4.987-3.915-4.987-10.566 0-6.651 5.154-11.497l34.539-33.769q4.154-4.154 10.231-4.27 6.077-.115 10.846 5.039t4.769 11.115q0 5.962-4.385 10.347l-34.769 34.769q-4.019 4.154-10.048 4.154t-11.35-5.322ZM186.308-185.308q-5.154-5.153-5.154-11.115 0-5.962 5.154-11.116l33.769-33.769q3.769-4.154 10.038-4.269 6.27-.115 11.648 4.684 4.929 4.4 4.929 10.916t-5.154 10.9l-34.769 34.769q-4.22 4.154-10.148 3.77-5.929-.385-10.313-4.77Zm566.153 0-34.769-34.538q-4.154-3-4.269-9.654-.115-6.654 5.42-12.366 4.433-4.596 10.513-4.596t11.336 5.154l34.77 34.769q3.384 4.154 3.5 10.116.115 5.962-4.27 11.115-5.153 4.385-11.115 4.385-5.962 0-11.116-4.385ZM219.308-719.692l-34.77-33.769q-3.384-4.154-3.5-10.231-.115-6.077 4.654-11.231t10.731-4.769q5.962.384 11.116 4.769l34.769 34.769q4.154 3 4.269 9.539.115 6.538-4.871 11.123-5.019 4.954-11.397 4.954-6.377 0-11.001-5.154Zm260.697 432.385q-80.928 0-136.813-55.881-55.885-55.88-55.885-136.807 0-80.928 55.881-137.197 55.88-56.27 136.807-56.27 80.928 0 137.197 56.425 56.27 56.425 56.27 137.032 0 80.928-56.425 136.813-56.425 55.885-137.032 55.885Zm-.21-30.77q68.158 0 115.528-46.78 47.369-46.78 47.369-114.938t-47.303-115.528q-47.304-47.369-115.462-47.369t-115.004 47.303q-46.846 47.304-46.846 115.462t46.78 115.004q46.78 46.846 114.938 46.846ZM480-480Z"/></svg>