<svg xmlns="http://www.w3.org/2000/svg" width="48" height="48" viewBox="0 -960 960 960"><path d="M259.827-221.538q-11.442 0-19.866-8.597-8.423-8.596-8.423-20.038t8.597-19.866q8.596-8.423 20.038-8.423t19.866 8.597q8.423 8.596 8.423 20.038t-8.597 19.866q-8.596 8.423-20.038 8.423Zm120 124.615q-11.442 0-19.866-8.596-8.423-8.597-8.423-20.039 0-11.442 8.597-19.865 8.596-8.423 20.038-8.423t19.866 8.596q8.423 8.597 8.423 20.039 0 11.442-8.597 19.865-8.596 8.423-20.038 8.423Zm120-124.615q-11.442 0-19.866-8.597-8.423-8.596-8.423-20.038t8.597-19.866q8.596-8.423 20.038-8.423t19.866 8.597q8.423 8.596 8.423 20.038t-8.597 19.866q-8.596 8.423-20.038 8.423Zm240 0q-11.442 0-19.866-8.597-8.423-8.596-8.423-20.038t8.597-19.866q8.596-8.423 20.038-8.423t19.866 8.597q8.423 8.596 8.423 20.038t-8.597 19.866q-8.596 8.423-20.038 8.423Zm-120 124.615q-11.442 0-19.866-8.596-8.423-8.597-8.423-20.039 0-11.442 8.597-19.865 8.596-8.423 20.038-8.423t19.866 8.596q8.423 8.597 8.423 20.039 0 11.442-8.597 19.865-8.596 8.423-20.038 8.423ZM295.385-389.231q-80.71 0-138.048-57.289Q100-503.809 100-584.45q0-76.089 52.654-132.319 52.654-56.231 133.577-63 29.692-56 79.884-88.116Q416.308-900 480.098-900q86.287 0 145.864 57.115 59.577 57.116 69.73 142.116 79 3.23 121.654 49.269Q860-605.462 860-544.681q0 64.681-45.385 110.066-45.384 45.384-110 45.384h-409.23Z"/></svg>