<svg xmlns="http://www.w3.org/2000/svg" width="48" height="48" viewBox="0 -960 960 960"><path d="M666.077-579.538q-6 0-10.615-2-4.616-2-8.847-6.231L510.461-724.923q-8.23-8.231-7.346-17.693.885-9.461 10.346-15.692 32.77-20.077 71.924-32.423 39.153-12.346 80.692-12.346 41.769 0 80.192 12.461 38.424 12.462 71.193 32.77 9.231 6.23 10.231 16.192t-7.231 18.192L685.539-588.538q-4.231 4.23-9.231 6.615t-10.231 2.385ZM755-164.615q-101.231 0-206.731-54.616-105.5-54.615-191.5-140.23-86-85.616-140.615-190.731-54.616-105.116-54.616-206.347 0-18.23 12.616-30.846Q186.769-800 205-800h88.462q17.077 0 29.115 10.269 12.038 10.269 15.808 27.808l20.846 89.077q2.769 15.538-.885 28.192T345.154-624l-88.462 83.308q59.077 98.384 129.731 168.154Q457.077-302.769 552-250.923l85.769-89.539q10-11 21.846-15.115 11.847-4.115 25.616-1.115l75.154 16.769q17.308 3 27.692 15.769 10.385 12.769 10.385 31.077v85q0 18.231-12.616 30.847-12.615 12.615-30.846 12.615Z"/></svg>