<svg xmlns="http://www.w3.org/2000/svg" width="48" height="48" viewBox="0 -960 960 960"><path d="M656.459-176.923q-15.305 0-26.036-10.544-10.731-10.545-10.731-26.133v-107.133q0-15.178 10.616-25.838 10.615-10.66 26.308-10.66h4.076V-397q0-29.979 21.047-50.989Q702.786-469 732.432-469q29.645 0 50.568 21.011 20.923 21.01 20.923 50.989v39.769H808q15.808 0 25.596 10.551 9.789 10.55 9.789 26.146v107.194q0 15.186-10.603 25.801-10.603 10.616-26.278 10.616H656.459Zm35.003-180.308h81.692V-397q0-17.461-11.5-29.346-11.5-11.885-29.346-11.885t-29.346 11.885q-11.5 11.885-11.5 29.346v39.769ZM458-199.692 83.923-573q-5.154-5.318-7.346-11.517-2.193-6.199-2.193-12.398 0-7.316 3.193-13.998 3.192-6.683 9.577-11.856 88.692-66.77 184.73-102Q367.923-760 480-760q112.077 0 208.115 35.231 96.039 35.23 184.731 102 6.385 5.181 9.577 11.874 3.193 6.693 3.193 14.033 0 6.477-2.193 12.521-2.192 6.044-7.346 11.341L834-530.923q-8.531-2.85-15.793-6.135-7.262-3.285-15.053-5.788l53.461-53.462q-82.384-63.384-177.576-98.154Q583.846-729.231 480-729.231q-103.846 0-199.039 34.769-95.192 34.77-177.576 98.154L480-218.923l32.154-32.154q2.406 7.949 5.203 15.359t6.489 14.949l-21.077 21.077q-5.154 5.154-10.945 6.846-5.792 1.692-12.001 1.692-6.208 0-11.823-1.692t-10-6.846Zm22-274.385Z"/></svg>