<svg xmlns="http://www.w3.org/2000/svg" width="48" height="48" viewBox="0 -960 960 960"><path d="M763.231-10.77q-13.923 0-25.423-11.115-11.5-11.115-11.5-25.807v-106.462q0-14.692 11.5-25.808 11.5-11.115 25.423-11.115h4.846v-39.769q0-30.385 20.423-51.193 20.423-20.807 50.808-20.807 30.384 0 51.192 20.807 20.808 20.808 20.808 51.193v39.769h4.077q14.692 0 25.038 11.115 10.346 11.116 10.346 25.808v106.462q0 14.692-11.115 25.807-11.115 11.116-25.808 11.116H763.231Zm35.615-180.307h81.692v-39.769q0-17.462-11.884-29.346-11.885-11.885-29.346-11.885-17.462 0-28.962 11.885-11.5 11.884-11.5 29.346v39.769ZM228.692-366.462q-6.846-6.077-7.346-15.346t6.577-15.885q53.769-49.615 116.615-75.192Q407.385-498.462 480-498.462q72.615 0 135.462 25.577 62.846 25.577 116.615 75.192 6.308 5.847 6.308 15 0 9.154-7.077 16.231-6.846 6.847-15.616 6.847-8.769 0-14.307-6.616Q652-409.692 596.192-431.769 540.385-453.846 480-453.846q-60.385 0-116.192 22.077Q308-409.692 258.615-366.231q-6.307 5.846-14.692 6.231-8.385.385-15.231-6.462ZM58.922-536.231q-6.845-6.077-6.96-15.846-.116-9.769 6.96-15.616 83.309-78.153 190.501-124.461Q356.615-738.462 480-738.462t230.577 46.308q107.192 46.308 190.5 124.461 7.077 5.847 7.077 15.5 0 9.654-7.077 15.962-6.846 6.846-15.731 6.462-8.884-.385-15.192-6.231-80.693-74.077-179.385-115.962Q592.077-693.846 480-693.846q-112.077 0-210.769 41.884Q170.539-610.077 89.846-536q-6.308 5.846-15.192 6.231-8.885.384-15.731-6.462ZM480-137q-25.231 0-43.385-18.154-18.154-18.154-18.154-43.385 0-25.23 18.154-43.384T480-260.077q25.231 0 43.385 18.154 18.154 18.154 18.154 43.384 0 25.231-18.154 43.385Q505.231-137 480-137Z"/></svg>