<svg xmlns="http://www.w3.org/2000/svg" width="48" height="48" viewBox="0 0 48 48"><path d="M23.05 38.2 3.95 19.1q-.45-.45-.4-1.075Q3.6 17.4 4.1 17q4.35-3.4 9.325-5.2Q18.4 10 24 10q5.55 0 10.55 1.8 5 1.8 9.35 5.2.5.4.55 1.025.05.625-.4 1.075l-2.8 2.8q-.9-.3-1.85-.425-.95-.125-1.85-.125-4.45.1-7.625 3.275T26.65 32.25q0 .9.125 1.85.125.95.425 1.85l-2.25 2.25q-.4.4-.95.4-.55 0-.95-.4Zm10.2.85q-.6 0-1-.4t-.4-1v-9.6q0-.6.4-1t1-.4h4.3q.6 0 .975.4t.375 1v3.9h3.95q.6 0 1 .4t.4 1v4.3q0 .6-.4 1t-1 .4Zm.35-1.8h3.55v-3.5H33.6Zm0-5.3h3.55V28.4H33.6Zm5.3 5.3h3.55v-3.5H38.9Z"/></svg>