<svg xmlns="http://www.w3.org/2000/svg" width="48" height="48" viewBox="0 -960 960 960"><path d="M665.456-579.538q-5.379 0-9.994-2.385-4.616-2.385-8.678-6.42L511.923-722.692q-8.231-8.231-7.346-18.193.884-9.961 10.346-16.192 32.769-20.077 71.192-33.039 38.423-12.961 80.077-12.961 41.654 0 80.077 12.461 38.424 12.462 71.193 32.77 9.405 6.118 10.318 16.136.913 10.018-7.318 18.248l-135.4 135.4q-3.754 3.754-8.99 6.139-5.236 2.385-10.616 2.385Zm.621-33.001 124-124.769q-33.923-17.615-63.962-26.307-30.038-8.693-59.923-8.693-29.884 0-60.423 8.808-30.538 8.808-63.692 26.192l124 124.769ZM755-164.615q-101.231 0-206.731-54.616-105.5-54.615-191.5-140.23-86-85.616-140.615-190.731-54.616-105.116-54.616-206.347 0-18.626 12.418-31.044Q186.373-800 205-800h88.462q16.987 0 29.07 10.269 12.083 10.269 15.853 27.808l20.846 89.077q2.769 15.538-.885 28.192t-12.994 20.525l-88.66 83.437q59.077 98.384 129.731 168.154Q457.077-302.769 552-250.923l85.769-89.539q10-11 21.846-15.115 11.847-4.115 25.616-1.115l75.154 16.769q17.62 3.375 27.848 16.034 10.229 12.658 10.229 30.812v85q0 18.627-12.418 31.044-12.417 12.418-31.044 12.418ZM240.538-568l84.077-78.154q3.077-3.077 4.231-8.461 1.154-5.385.385-10l-20.693-92.308q-.769-6.154-5-9.231-4.23-3.077-10.384-3.077h-90.846q-4.616 0-7.693 3.077t-3.077 7.692q-.769 39.77 12 87.808 12.77 48.038 37 102.654Zm516.385 373.385q4.616 0 7.692-3.077 3.077-3.077 3.077-7.692v-89.308q0-6.154-3.077-10.385-3.076-4.231-9.23-5L677-325.692q-4.615-1.539-8.077-.385-3.461 1.154-7.308 5l-81.307 84.539q41.769 21.307 91.307 31.384 49.539 10.077 85.308 10.539Zm-176.615-41.923ZM240.538-568Zm425.539-44.539Z"/></svg>