<svg xmlns="http://www.w3.org/2000/svg" width="48" height="48" viewBox="0 -960 960 960"><path d="M496.461-400q-16.077 0-28.038-11.961-11.962-11.962-11.962-28.039t11.962-28.039Q480.384-480 496.461-480q16.847 0 28.424 11.961 11.577 11.962 11.577 28.039t-11.577 28.039Q513.308-400 496.461-400Zm-145.538 97.308q-25.231-27.385-39.846-62.154-14.616-34.769-14.616-75.154 0-83.333 58.281-141.667Q413.022-640 496.28-640q84.028 0 142.105 58.333Q696.462-523.333 696.462-440q0 39.615-14.231 74.769t-39.462 62.539q-3.824 4.384-10.835 4.769-7.011.385-11.277-4.769-4.006-4.099-4.139-10.357-.133-6.259 4.02-11.874 21.308-23 33.231-52.183 11.923-29.182 11.923-62.894 0-70.385-49.038-119.808-49.039-49.423-120.193-49.423-70.384 0-119.807 49.423T327.231-440q0 33.538 11.923 62.808 11.923 29.269 33.23 52.269 4.923 5.615 5.308 11.462.385 5.846-4 11-5.154 5.153-12.049 4.653-6.896-.5-10.72-4.884Zm-113 113q-47.231-49.385-74.346-113.154Q136.461-366.615 136.461-440q0-74.7 28.35-140.4t77.335-114.3q48.985-48.6 114.3-76.95T496.461-800q88.832 0 163.763 38.961 74.93 38.962 124.545 104.193 5.077 7.769.539 15.346-4.539 7.577-12.21 7.577-6.806 0-10.529-2.692-3.723-2.693-6.646-6.077-45.462-58.923-112.891-92.731-67.429-33.808-146.571-33.808-137.384 0-233.307 95.923T167.231-440q0 67.538 24.807 125.692 24.808 58.154 68.116 102.385 4.153 5.385 4.538 11.346.385 5.962-3.904 11.019-4.481 4.481-11.596 4.366-7.115-.116-11.269-4.5ZM801.05-313.923q-6.819 0-11.088-4.288-4.269-4.289-4.269-11.097v-199.999q0-6.808 4.296-11.097 4.296-4.288 11.115-4.288t11.089 4.288q4.269 4.289 4.269 11.097v199.999q0 6.808-4.296 11.097-4.297 4.288-11.116 4.288Zm.297 109.693q-8.116 0-15.154-6.54-7.039-6.539-7.039-15.653 0-9.115 6.924-15.769t15.269-6.654q9.884 0 16.153 6.769 6.27 6.768 6.27 15.654 0 8.885-6.384 15.539t-16.039 6.654Z"/></svg>