<svg xmlns="http://www.w3.org/2000/svg" width="48" height="48" viewBox="0 -960 960 960"><path d="M480-146.231q-22.923 0-39.923-17-17-17-17-39.923 0-22.923 17-39.923 17-17 39.923-17 22.923 0 39.923 17 17 17 17 39.923 0 22.923-17 39.923-17 17-39.923 17Zm-.048-307.615q-59.337 0-114.76 21.692T261.385-368q-7.308 6.615-16.462 7.615t-16.231-5.945q-7.077-6.439-6.461-16.093.615-9.654 7.692-16.27 53.769-48.615 116-74.192Q408.154-498.462 480-498.462t134.077 25.577q62.231 25.577 116 74.192 7.077 6.616 7.692 15.816.616 9.201-6.461 16.415-7.077 7.077-16.231 6.077-9.154-1-16.462-7.615-48.384-42.462-103.855-64.154-55.471-21.692-114.808-21.692Z"/></svg>