<svg xmlns="http://www.w3.org/2000/svg" width="48" height="48" viewBox="0 -960 960 960"><path d="M157.692-140q-5.846 0-10-4.769t-2.923-10.616Q156.538-235 175.808-326.038q19.269-91.039 45.961-163.731 23.692-64.385 48.808-97.308Q295.692-620 320-620q19.231 0 38.962 23.692 19.73 23.692 39.73 68.615 20 44.924 38.154 109.616 18.154 64.692 34 147.461 12-128.307 29.731-229Q518.308-600.308 539.769-673 562-744.923 587.231-782.462 612.462-820 640-820q31.692 0 59.731 45.654 28.038 45.654 51.731 134.731 28.461 105.923 44.153 238Q811.308-269.538 818-157.154q.231 7.616-4.423 12.385t-11.5 4.769q-7.846 0-14.231-5.038-6.385-5.039-8.846-11.885-11.231-41.077-27.885-79.769-16.654-38.693-35.192-71-21.538-35-41.346-55.116-19.808-20.115-34.577-21.807-11.231 1.692-27 14.154-15.769 12.461-37.385 47.846-20.076 32.307-38.269 73.923-18.192 41.615-31.731 88-2.692 9.615-9.846 15.154-7.154 5.538-15 5.538t-13.884-6.423q-6.039-6.423-8.039-15.269-12.308-82.769-30-157.808-17.692-75.038-37-133.807-19.308-58.77-37.961-95.77-18.654-37-33.885-41.692-18.692 5.538-39.192 42.731-20.5 37.192-40.039 97.961Q222.231-392 205.154-316.5t-29.615 161.115q-1.231 6.847-6.116 11.116Q164.538-140 157.692-140Zm342-95.462q31.385-85.923 68.039-132.923 36.654-47 72.269-47 35.846 0 74.731 48.385Q753.615-318.616 783-235.462q-8.769-115.307-23.577-213.269-14.808-97.961-33.885-171.5-19.077-73.538-41.153-118-22.077-44.461-44.385-51.23-21.846 6.077-42.808 49.807-20.961 43.731-39.807 117.269-18.846 74.308-33.77 172-14.923 97.692-23.923 214.923Z"/></svg>