<svg xmlns="http://www.w3.org/2000/svg" width="48" height="48" viewBox="0 -960 960 960"><path d="M646.629-588.525 516.692-718.462q-11.923-11.923-7.615-24.884 4.307-12.962 16.642-19.84 32.289-19.866 68.439-29.878 36.15-10.013 72.198-10.013 36.721 0 72.458 10.069t68.918 29.439q12.417 7.253 16.035 20.219 3.618 12.965-7.305 23.888l-130.84 130.896q-8.393 8.258-19.585 8.258-11.191 0-19.408-8.217Zm19.448-24.014 124-124.769Q756.385-755.692 725.81-764q-30.575-8.308-59.733-8.308-28.231 0-58.654 8.423-30.423 8.423-65.346 26.577l124 124.769Zm0 0ZM755.769-160Q659-160 553.5-211.384 448-262.769 355.384-355.769q-92.615-93-144-198.116Q160-659 160-755.769q0-18.956 12.417-31.594Q184.835-800 203.461-800h88.252q17.287 0 28.826 10.384 11.538 10.385 16.307 27.693l20.775 88.718q2.071 15.897-1.582 28.551-3.654 12.654-12.652 20.88l-89.002 83.082q27.538 47.846 58.077 88.154 30.538 40.307 64.769 75.076 37.769 38.77 81.077 70.654 43.307 31.885 94.461 59.731l86.539-88.769q10-11 21.621-14.616 11.622-3.615 25.84-1.615l75.154 16.769q17.308 3.231 27.693 16.486Q800-305.568 800-288.462v85.001q0 18.626-12.637 31.044Q774.725-160 755.769-160ZM239-568l84.077-78.154q3.077-3.077 4.231-8.461 1.153-5.385.384-10L307-756.923q-.769-6.154-5-9.231t-10.385-3.077h-90.077q-4.615 0-7.692 3.077t-3.077 7.692q-.308 41.231 12.346 88.885T239-568Zm343.615 335.308q41 21.307 90.539 31.769 49.538 10.462 85.308 10.923 4.615 0 7.692-3.077t3.077-7.692v-89.308q0-6.154-3.077-10.384-3.077-4.231-9.231-5l-78.385-16.385q-4.615-.769-8.076.385-3.462 1.153-7.308 4.23l-80.539 84.539ZM239-568Zm343.615 335.308Z"/></svg>