<svg xmlns="http://www.w3.org/2000/svg" width="48" height="48" viewBox="0 -960 960 960"><path d="M480.234-199.615q-10.465 0-20.311-3.615-9.846-3.616-17.08-10.85L103.384-554.308q-8.23-7.461-12.846-18.307-4.615-10.847-4.615-22.077 0-13.231 5.721-24.977 5.722-11.746 17.048-20.716 82-57.846 175.757-88.731Q378.205-760 479.872-760t195.551 30.884q93.885 30.885 175.691 88.539 11.194 8.423 17.463 20.039 6.269 11.615 6.269 24.846 0 11.23-4.56 22.054-4.559 10.823-12.901 19.33l-33.231 33.231q-4.61 4.859-10.536 6.43-5.926 1.57-12.156-.43-13.231-3.23-26.667-4.615-13.436-1.385-27.256-1.385-90.075 1.231-152.922 64.463-62.848 63.232-64.078 152.537 0 13.821 1.384 27.257 1.385 13.436 4.616 26.666 1.23 6.231-.224 12.513-1.455 6.282-5.776 10.18l-13.154 13.154q-7.462 7.461-17.074 11.077-9.612 3.615-20.077 3.615Zm176.594 22.692q-15.674 0-26.405-10.5-10.731-10.501-10.731-26.023v-107.441q0-15.112 10.616-25.728 10.615-10.616 26.308-10.616h4.076V-397q0-29.979 21.047-50.989Q702.786-469 732.816-469q29.261 0 50.184 21.011 20.923 21.01 20.923 50.989v39.769H808q15.808 0 25.596 10.501 9.789 10.5 9.789 26.023v107.441q0 15.112-10.603 25.727-10.603 10.616-26.278 10.616H656.828Zm34.634-180.308h81.692V-397q0-17.461-11.5-29.346-11.5-11.885-28.961-11.885-18.231 0-29.731 11.885T691.462-397v39.769Z"/></svg>