<svg xmlns="http://www.w3.org/2000/svg" width="48" height="48" viewBox="0 -960 960 960"><path d="M755.182-175.384q-6.643 0-10.913-4.414Q740-184.211 740-190.769v-104.615H635.385q-6.558 0-10.972-4.472Q620-304.328 620-310.971q0-6.644 4.413-10.913 4.414-4.27 10.972-4.27H740v-104.615q0-6.558 4.472-10.971 4.471-4.414 11.115-4.414t10.913 4.414q4.269 4.413 4.269 10.971v104.615h104.616q6.557 0 10.971 4.472 4.413 4.472 4.413 11.115 0 6.644-4.413 10.913-4.414 4.27-10.971 4.27H770.769v104.615q0 6.558-4.471 10.971-4.472 4.414-11.116 4.414Zm-274.948-24.231q-10.465 0-20.311-3.615-9.846-3.616-17.08-10.85L103.384-554.308q-8.23-7.461-12.846-18.307-4.615-10.847-4.615-22.077 0-13.231 5.721-24.977 5.722-11.746 17.048-20.716 82-57.846 175.757-88.731Q378.205-760 479.872-760t195.551 30.884q93.885 30.885 175.691 88.539 11.194 8.423 17.463 20.039 6.269 11.615 6.269 24.846 0 11.23-4.56 22.054-4.559 10.823-12.901 19.33l-33.231 33.231q-4.61 4.859-10.536 6.43-5.926 1.57-12.156-.43-13.231-3.23-26.667-4.615-13.436-1.385-27.256-1.385-90.075 1.231-152.922 64.463-62.848 63.232-64.078 152.537 0 13.821 1.384 27.257 1.385 13.436 4.616 26.666 1.23 6.231-.224 12.513-1.455 6.282-5.776 10.18l-13.154 13.154q-7.462 7.461-17.074 11.077-9.612 3.615-20.077 3.615Z"/></svg>