<svg xmlns="http://www.w3.org/2000/svg" width="48" height="48" viewBox="0 -960 960 960"><path d="M740-295.384H635.385q-6.539 0-10.962-4.485Q620-304.355 620-310.985t4.423-10.899q4.423-4.27 10.962-4.27H740v-104.615q0-6.538 4.485-10.962 4.485-4.423 11.116-4.423 6.63 0 10.899 4.423 4.269 4.424 4.269 10.962v104.615h104.616q6.538 0 10.961 4.485 4.423 4.486 4.423 11.116t-4.423 10.899q-4.423 4.27-10.961 4.27H770.769v104.615q0 6.539-4.485 10.962t-11.115 4.423q-6.63 0-10.9-4.423Q740-184.23 740-190.769v-104.615Zm-282 95.692L83.923-573q-5.154-5.318-7.346-11.517-2.193-6.199-2.193-12.398 0-7.316 3.193-13.998 3.192-6.683 9.577-11.856 88.692-66.77 184.73-102Q367.923-760 480-760q112.077 0 208.115 35.231 96.039 35.23 184.731 102 6.385 5.181 9.577 11.874 3.193 6.693 3.193 14.033 0 6.477-2.193 12.521-2.192 6.044-7.346 11.341l-50.769 50.77q-8.077-1.924-15.934-3.446-7.857-1.522-15.528-2.708h-4.385l67.154-67.924q-82.384-63.384-177.576-98.154Q583.846-729.231 480-729.231q-103.846 0-199.039 34.769-95.192 34.77-177.576 98.154L480-218.923l57.769-57.769v4.384q1.186 7.671 2.709 15.528 1.522 7.857 3.445 15.934l-41.154 41.154q-5.154 5.154-10.945 6.846-5.792 1.692-12.001 1.692-6.208 0-11.823-1.692t-10-6.846Zm22-274.385Z"/></svg>