<svg xmlns="http://www.w3.org/2000/svg" width="48" height="48" viewBox="0 -960 960 960"><path d="M256.923-216.923h446.154v-247.692H256.923v247.692ZM255.384-160q-22.442 0-38.913-16.471Q200-192.942 200-215.384v-529.232q0-22.442 16.471-38.913Q232.942-800 255.384-800h449.232q22.442 0 38.913 16.471Q760-767.058 760-744.616v529.232q0 22.442-16.471 38.913Q727.058-160 704.616-160H255.384Zm1.539-335.385h192.308v-17.307q0-5.385 4.269-9.424 4.269-4.038 9.961-4.038h33.847q5.384 0 9.423 4.038 4.038 4.039 4.038 9.424v17.307h192.308v-223.077q0-10.769-6.923-17.692t-17.692-6.923H281.538q-10.769 0-17.692 6.923t-6.923 17.692v223.077Zm-1.539 304.616h449.232q10.769 0 17.692-6.923t6.923-17.692v-529.232q0-10.769-6.923-17.692t-17.692-6.923H255.384q-10.769 0-17.692 6.923t-6.923 17.692v529.232q0 10.769 6.923 17.692t17.692 6.923Z"/></svg>