<svg xmlns="http://www.w3.org/2000/svg" width="48" height="48" viewBox="0 96 960 960"><path d="M452.308 976q0-14.231 13.865-22.5t38.442-8.269V696.923q3.923.462 7.621.808 3.697.346 7.764.346 28.923 0 50.885-17.731 21.961-17.731 28.115-45.115v-2.077l128 31.769q8.308 2.461 14.769 6.692 6.462 4.231 9.847 11.308l91 164.769q8.846 15.462 6.487 32.235T833.769 909q-14.692 14.693-35.654 14.308-20.961-.385-36.423-15.077L552.308 697.846q-3.846 2.308-8.077 3.462-4.231 1.154-8.846 2.692v241.231q25 0 38.654 8.394 13.653 8.394 13.653 22.375H452.308Zm-147.693-84.615H175.384q-6.538 0-10.961-4.485Q160 882.414 160 875.784t4.423-10.899q4.423-4.27 10.961-4.27h129.231q6.539 0 10.962 4.486Q320 869.586 320 876.216t-4.423 10.9q-4.423 4.269-10.962 4.269Zm5.231-163.846-180-51q-16.692-4.923-26.731-18.587Q93.077 644.289 93.077 627q0-21.846 14.577-36.423Q122.231 576 144.077 576H451q-5.923 8.615-9.5 18.364-3.577 9.748-3.577 21.636 0 11.462 3.231 21.615 3.231 10.154 9.231 18.77l-108.846 67.769q-6.308 4.154-14.347 5.115-8.038.962-17.346-1.73Zm210.226-54.616q-23.687 0-40.341-16.581-16.654-16.582-16.654-40.27 0-23.687 16.581-40.341 16.582-16.654 40.27-16.654 23.687 0 40.341 16.581 16.654 16.582 16.654 40.27 0 23.687-16.581 40.341-16.582 16.654-40.27 16.654Zm52.697-115.692q-9.461-10.846-23.192-17.077-13.731-6.231-29.702-6.231-5.49 0-10.106.462-4.615.461-9.769 2.153V392.384q0-7.769 3.038-15.461 3.039-7.693 9.654-13.308l137-128q12.89-12.934 29.984-14.698 17.093-1.764 31.665 7.236 17.934 11.249 23.258 31.779 5.324 20.529-5.445 38.683L572.769 557.231ZM224.615 451.385H95.385q-6.539 0-10.962-4.486Q80 442.414 80 435.784t4.423-10.9q4.423-4.269 10.962-4.269h129.23q6.539 0 10.962 4.485Q240 429.586 240 436.216t-4.423 10.899q-4.423 4.27-10.962 4.27Zm160-160H215.384q-6.538 0-10.961-4.486Q200 282.414 200 275.784t4.423-10.9q4.423-4.269 10.961-4.269h169.231q6.539 0 10.962 4.485Q400 269.586 400 276.216t-4.423 10.899q-4.423 4.27-10.962 4.27Z"/></svg>