<svg xmlns="http://www.w3.org/2000/svg" width="48" height="48" viewBox="0 -960 960 960"><path d="M150.769-190.769v-458.462 458.462ZM175.384-160q-23.057 0-39.221-16.163Q120-192.327 120-215.384v-409.232q0-23.057 16.163-39.221Q152.327-680 175.384-680H360v-64.616q0-23 16.163-39.192Q392.327-800 415.384-800h129.232q23.057 0 39.221 16.192Q600-767.616 600-744.616V-680h184.616q23.057 0 39.221 16.163Q840-647.673 840-624.616v167q0 6.527-4.458 10.456-4.458 3.929-11.115 3.929-6.658 0-10.927-4.404-4.269-4.404-4.269-10.981v-166q0-10.769-6.923-17.692t-17.692-6.923H175.384q-10.769 0-17.692 6.923t-6.923 17.692v409.232q0 10.769 6.923 17.692t17.692 6.923h318.77q6.577 0 10.981 4.458 4.403 4.458 4.403 11.115 0 6.658-4.403 10.927Q500.731-160 494.154-160h-318.77Zm215.385-520h178.462v-64.616q0-10.769-6.923-17.692t-17.692-6.923H415.384q-10.769 0-17.692 6.923t-6.923 17.692V-680ZM720-83.154q-65.154 0-111-45.846-45.846-45.846-45.846-111T609-351q45.846-45.846 111-45.846T831-351q45.846 45.846 45.846 111T831-129q-45.846 45.846-111 45.846Zm13.923-160.384v-98.917q0-6.93-4.461-11.391-4.462-4.462-11.154-4.462-6.693 0-11.154 4.462-4.462 4.461-4.462 11.395v98.682q0 5.3 2.116 10.605 2.115 5.305 6.346 9.087l68.308 65.385q3.461 3.461 9.923 3.731 6.461.269 10.692-4.731 5.231-4.462 4.731-10.434-.5-5.972-4.962-10.412l-65.923-63Z"/></svg>