<svg xmlns="http://www.w3.org/2000/svg" width="48" height="48" viewBox="0 -960 960 960"><path d="M395.385-686.077h169.23v-58.539q0-10.769-6.923-17.692T540-769.231H420q-10.769 0-17.692 6.923t-6.923 17.692v58.539ZM720-83.154q-65.615 0-111.231-45.615Q563.154-174.385 563.154-240t45.615-111.231Q654.385-396.846 720-396.846t111.231 45.615Q876.846-305.615 876.846-240t-45.615 111.231Q785.615-83.154 720-83.154ZM789.385-149 811-170.615l-77.077-72.626v-115.067h-31.231v125.776L789.385-149ZM508-160H175.384q-22.25 0-38.817-16.567T120-215.384v-415.309q0-22.25 16.567-38.817t38.817-16.567h189.231v-58.539q0-22.25 16.567-38.817Q397.75-800 420-800h120q22.25 0 38.818 16.567 16.567 16.567 16.567 38.817v58.539h189.231q22.25 0 38.817 16.567T840-630.693v198.77q-26.307-17.231-57.095-26.462-30.788-9.231-62.905-9.231-95.157 0-161.386 66.229-66.23 66.229-66.23 161.387 0 20.462 4.154 40.462 4.154 20 11.462 39.538Z"/></svg>