<svg xmlns="http://www.w3.org/2000/svg" width="48" height="48" viewBox="0 0 48 48"><path d="M13.05 32h-8.9q-.3 0-.525-.225-.225-.225-.225-.525v-14.5q0-.3.225-.525Q3.85 16 4.15 16h7.9l2.8-2.8q.55-.55 1.325-.875Q16.95 12 17.85 12h20q.3 0 .525.225.225.225.225.575 0 .3-.225.525-.225.225-.525.225h-9v4.9h13q.3 0 .525.25.225.25.225.55 0 .3-.225.525-.225.225-.525.225h-13v5h15q.3 0 .525.225.225.225.225.575 0 .3-.225.5t-.525.2h-15v4.95h11q.3 0 .525.225.225.225.225.575 0 .3-.225.525-.225.225-.525.225h-17.2L24 35.75q.65 1.2.375 2.5T23.2 40.5l-.25.2q-.25.25-.575.25-.325 0-.575-.2Z"/></svg>