<svg xmlns="http://www.w3.org/2000/svg" width="48" height="48" viewBox="0 96 960 960"><path d="M636.391 699.391V452.609h213.218v86.782h-54.218v-32H690.609v137.218h104.782v-32h54.218v86.782H636.391Zm-259.782 0V452.609h176.5q16.813 0 27.048 10.234 10.234 10.235 10.234 27.157v48.609q0 17.911-10.234 27.651Q569.922 576 553 576q16.922 0 27.157 9.74 10.234 9.74 10.234 27.651V662q0 16.922-10.234 27.157-10.235 10.234-27.048 10.234h-176.5ZM431.391 552h104.218v-44.609H431.391V552Zm0 92.609h104.218V600H431.391v44.609Zm-321 54.782V452.609h213.218v246.782h-54.218v-77H164.609v77h-54.218Zm54.218-131.782h104.782v-60.218H164.609v60.218Z"/></svg>