<svg xmlns="http://www.w3.org/2000/svg" width="48" height="48" viewBox="0 -960 960 960"><path d="M483.13-741.913q-33.024 0-56.12-23.196-23.097-23.196-23.097-56.327 0-32.566 23.456-56.022 23.455-23.456 56.022-23.456 32.566 0 56.044 23.456 23.478 23.456 23.478 56.022 0 33.131-23.262 56.327-23.263 23.196-56.521 23.196ZM692.609-80v-209h-286v-322.391q0-32.36 22.413-54.441 22.413-22.081 54.108-22.081 20.74 0 36.457 7.586 15.717 7.587 37.868 32.622 40.154 42.617 94.11 75.9 53.957 33.282 115.783 36.978v66.783q-48.739-.565-102.664-23.29-53.925-22.724-104.075-62.492v176.217h205V-80h-73Zm-300.233 6.218q-85.357 0-143.671-58.314-58.314-58.315-58.314-143.671 0-69.929 51.478-129.972 51.479-60.044 134.74-68.479v74.743q-51.739 4.258-81.979 42.019-30.239 37.761-30.239 81.268 0 55.927 36.334 92.949 36.333 37.021 91.884 37.021 43.359 0 81.505-30.521Q512.26-207.261 516.26-259h75.131q-7.434 82.826-68.261 134.022-60.826 51.196-130.754 51.196Z"/></svg>