<svg xmlns="http://www.w3.org/2000/svg" width="48" height="48" viewBox="0 -960 960 960"><path d="M423.98-759.07q-23.2-23.38-23.2-56.02 0-32.65 23.12-56.13 23.11-23.48 56.02-23.48 32.91 0 56.1 23.38 23.2 23.38 23.2 56.02 0 32.65-23.12 56.13-23.11 23.47-56.02 23.47-32.91 0-56.1-23.37Zm-53.22 642.88q-10.2-10.32-10.2-25.9v-461.6q-62.04-4.7-114.69-11.98-52.65-7.29-100.78-17.29-19.6-4-26.35-17.19-6.74-13.2-4.46-26.74 2.28-13.54 13.07-22.96 10.79-9.41 28-6.41 75.41 16.56 155.86 24.06 80.45 7.5 168.79 7.5 92.29 0 172.67-7.78 80.38-7.78 153.11-24.35 16.65-3.56 27.23 5.32 10.59 8.89 13.36 22.4 2.76 13.5-3.59 27.26-6.34 13.76-26.17 18.89-47 10-99.94 17-52.93 7-116.67 12.27v461.6q0 15.58-10.65 25.9-10.65 10.32-26.02 10.32t-25.85-10.32Q527-126.51 527-142.09V-378.3h-94v236.21q0 15.58-10.65 25.9-10.65 10.32-26.02 10.32t-25.57-10.32Zm409.61-343.55q-12.41-12.3-12.41-30.39t12.41-30.78q12.42-12.7 30.68-12.7 18.25 0 30.95 12.59 12.7 12.58 12.7 30.67 0 18.09-12.7 30.5-12.7 12.42-30.96 12.42t-30.67-12.31Zm0 170.67q-12.41-12.42-12.41-30.67 0-17.69 12.41-30.39 12.42-12.7 30.68-12.7 18.25 0 30.95 12.53 12.7 12.54 12.7 30.4 0 18.42-12.7 30.84-12.7 12.41-30.96 12.41t-30.67-12.42Zm0 170.9q-12.41-12.3-12.41-30.39t12.41-30.79q12.42-12.69 30.68-12.69 18.25 0 30.95 12.59t12.7 30.68q0 18.08-12.7 30.49t-30.96 12.41q-18.26 0-30.67-12.3Z"/></svg>