<svg xmlns="http://www.w3.org/2000/svg" width="48" height="48" viewBox="0 -960 960 960"><path d="M481.931-393.087q59.765 0 100.613-40.289 40.847-40.29 40.847-100.468 0-60.179-40.779-100.537-40.779-40.358-100.543-40.358-59.531 0-100.213 40.29-40.682 40.289-40.682 100.468 0 60.178 40.406 100.536 40.407 40.358 100.351 40.358ZM105.869-105.869v-748.827h748.827v748.827H105.869Zm79.218-79.218h589.826v-46.609q-60-53.739-133.353-85.978-73.353-32.239-161.456-32.239-88.104 0-161.56 32.804-73.457 32.804-133.457 86.543v45.479Z"/></svg>