<svg xmlns="http://www.w3.org/2000/svg" width="48" height="48" viewBox="0 -960 960 960"><path d="M185.09-230.57q60-53.73 133.35-86.54 73.35-32.8 161.46-32.8 88.1 0 161.56 32.24 73.45 32.23 133.45 85.97v-543.21H185.09v544.34ZM582.54-453.3q40.85-40.78 40.85-100.54 0-59.77-40.78-100.33-40.78-40.57-100.54-40.57-59.77 0-100.61 40.5-40.85 40.49-40.85 100.26 0 59.76 40.78 100.61t100.54 40.85q59.77 0 100.61-40.78ZM105.87-105.87V-854.7H854.7v748.83H105.87Zm323.39-395.05q-21.87-22.19-21.87-53.03 0-30.83 22.07-52.7 22.07-21.87 52.74-21.87t52.54 22.07q21.87 22.07 21.87 52.74t-22.07 52.82q-22.07 22.15-52.74 22.15t-52.54-22.18Zm50.74-2.6ZM229.22-185.09h501.69q-61.43-51.87-122.67-74.95Q547-283.13 480-283.13t-127.67 23.09q-60.68 23.08-123.11 74.95Z"/></svg>