<svg xmlns="http://www.w3.org/2000/svg" width="48" height="48" viewBox="0 -960 960 960"><path d="M446.609-403.782h66.782v-120h120V-590h-120v-120h-66.782v120h-120v66.218h120v120ZM480-170.305q130.174-117.608 192.543-210.739 62.37-93.13 62.37-172.652 0-114.809-73.794-188.013-73.794-73.204-181.034-73.204-107.241 0-181.119 73.204-73.879 73.204-73.879 188.013 0 79.522 63.87 172.37Q352.826-288.479 480-170.305Zm0 104.436Q312.217-206.826 229.043-325.456q-83.174-118.631-83.174-228.24 0-155.494 100.761-248.247Q347.392-894.696 480-894.696q132.366 0 233.531 92.753 101.165 92.753 101.165 248.247 0 109.609-83.456 228.24Q647.783-206.826 480-65.869ZM480-560Z"/></svg>