<svg xmlns="http://www.w3.org/2000/svg" width="48" height="48" viewBox="0 96 960 960"><path d="M770.739 405.391V314.87h-90.522v-67.066h90.522V157.13h66.783v90.674h91.522v67.066h-91.522v90.521h-66.783Zm-668.26 584.74q-32.507 0-55.863-23.356Q23.26 943.42 23.26 910.913V408.087q0-31.74 23.356-55.762 23.356-24.021 55.863-24.021H241l79.218-93.218h266.999v79.784H356.696l-79.217 93.217h-175v502.826h669.26V506.174h79.784v404.739q0 32.507-24.022 55.862-24.022 23.356-55.762 23.356h-669.26ZM436.891 830q72.5 0 121.5-49t49-121.5q0-72.5-49-121t-121.5-48.5q-72.5 0-121 48.5t-48.5 121q0 72.5 48.5 121.5t121 49Zm0-60q-47.5 0-78.5-31.5t-31-79q0-47.5 31-78.5t78.5-31q47.5 0 79 31t31.5 78.5q0 47.5-31.5 79t-79 31.5Zm.5-110Z"/></svg>