<svg xmlns="http://www.w3.org/2000/svg" width="48" height="48" viewBox="0 -960 960 960"><path d="M285.087-613.782h389.826v-60H285.087v60ZM727.913-31.956q-78 0-133-55.217-55-55.218-55-131.783 0-77.435 55-133.217 55-55.783 133-55.783 77 0 132.5 55.783 55.5 55.782 55.5 133.217 0 76.565-55.5 131.783-55.5 55.217-132.5 55.217Zm-21.218-53.217h45.435v-110h110v-46.001h-110v-110h-45.435v110h-110v46.001h110v110Zm-600.826-19v-748.828h748.827v422.915q-28.956-18.652-60.808-27.479-31.851-8.826-65.975-8.826-14 0-27 1.5t-26 4.5v-48.479H285.087v60h343.435q-36.458 16.844-65.349 43.983-28.891 27.138-47.912 60.93H285.087v60h203.652q-4.696 16.392-6.761 32.783-2.065 16.392-2.065 33.783 0 30.23 7.162 58.37 7.162 28.141 20.664 54.848h-401.87Z"/></svg>