<svg xmlns="http://www.w3.org/2000/svg" width="48" height="48" viewBox="0 -960 960 960"><path d="M445.609-284h66.782v-123.609H635v-67.782H512.391V-598h-66.782v122.609H323v67.782h122.609V-284ZM479-67.869q-76.826 0-144.87-29.13-68.043-29.131-118.804-79.609-50.761-50.479-80.109-118.522-29.348-68.044-29.348-145.603 0-77.559 29.348-145.37 29.348-67.81 80.109-118.789 50.761-50.978 118.804-80.391 68.044-29.413 144.87-29.413 76.826 0 144.87 29.413 68.043 29.413 119.022 80.391 50.978 50.979 80.391 118.789 29.413 67.811 29.413 145.37T823.283-295.13q-29.413 68.043-80.397 118.658-50.985 50.614-119.022 79.609Q555.826-67.87 479-67.87ZM479-439ZM207.782-885.088l47.088 47.087L79-668.13l-46.523-47.088 175.305-169.87Zm542.436 0 175.87 169.87-47.087 47.088L703.13-838.001l47.088-47.087ZM478.947-147.087q122.792 0 208.379-85.535 85.587-85.534 85.587-208.325 0-122.792-85.535-208.379-85.534-85.587-208.325-85.587-122.792 0-208.379 85.535-85.587 85.534-85.587 208.325 0 122.792 85.535 208.379 85.534 85.587 208.325 85.587Z"/></svg>