<svg xmlns="http://www.w3.org/2000/svg" width="48" height="48" viewBox="0 96 960 960"><path d="M793.174 799.391 282.956 291.434q40.435-24.435 85.413-36.783 44.979-12.347 93.674-12.347 77.261 0 146.587 28.913 69.327 28.913 121.305 78.891 51.978 49.979 82.109 118.022 30.13 68.044 29.13 146.87-1 47.565-13.282 94.978-12.283 47.413-34.718 89.413Zm68.87-406.521-175.87-176.871 50.087-44.087 176.305 169.87-50.522 51.088Zm-30.088 638.48L705.739 906.262q-45 39.434-107.848 61.652-62.848 22.217-129.848 22.217-77.391 0-144.935-29.413-67.543-29.413-117.522-80.391-49.978-50.979-79.109-119.805-29.13-68.826-29.13-147.652 0-65.131 20.717-122.131 20.718-57 63.587-111.565l-49.739-50.304-58.435 57.869-49.522-49.522 58.435-58.435L22 218.957l49.782-50.348L881.74 981.565l-49.783 49.785Z"/></svg>