<svg xmlns="http://www.w3.org/2000/svg" width="48" height="48" viewBox="0 -960 960 960"><path d="M105.87-105.87V-295h73v116.13H295v73H105.87Zm559.13 0v-73h116.13V-295h73.57v189.13H665ZM266.65-266.65Q178.87-354.43 178.87-480t87.78-213.35q87.78-87.78 213.35-87.78t213.35 87.78q87.78 87.78 87.78 213.35t-87.78 213.35Q605.57-178.87 480-178.87t-213.35-87.78Zm213.12 8.56q92.48 0 157.31-64.84t64.83-156.84q0-92.48-64.72-157.31t-157.08-64.83q-92.36 0-157.19 64.72t-64.83 157.08q0 92.36 64.84 157.19t156.84 64.83ZM105.87-665v-189.7H295v73.57H178.87V-665h-73Zm675.26 0v-116.13H665v-73.57h189.7V-665h-73.57ZM480-480Z"/></svg>