<svg xmlns="http://www.w3.org/2000/svg" width="48" height="48" viewBox="0 -960 960 960"><path d="M761-148q-16.13 0-27.7-10.28-11.56-10.28-11.56-25.98 0-15.13 11.06-25.2 11.07-10.06 28.2-10.06 16.13 0 27.48 10.35 11.35 10.34 11.35 24.91 0 15.7-10.85 25.98Q778.13-148 761-148Zm-30.7-89.65v-18.13q0-16.13 7.29-27.7 7.28-11.56 25.98-26.13 14.56-11.56 21.13-20.41 6.56-8.85 6.56-17.41 0-13-8.06-20.35-8.07-7.35-23.2-7.35-14.13 0-23.2 7.35-9.06 7.35-16.06 23.91l-52.39-14.56q13.43-35.27 36.41-50.9 22.98-15.63 58.24-15.63 40.26 0 63.96 19.42 23.69 19.41 23.69 53.11 0 18.13-10.35 34.76-10.34 16.63-30.47 31.19-11.57 9.13-16.85 16.63-5.28 7.5-5.28 17.07v15.13h-57.4ZM114.57-535.96 24.7-628.52q92.13-88.96 209.23-137.07Q351.04-813.7 480-813.7q128.96 0 246.07 48.11 117.1 48.11 209.23 137.07l-89.87 92.56Q771-606.09 676.96-644.78q-94.03-38.7-196.78-38.7t-196.96 38.7Q189-606.09 114.57-535.96Zm170 174.83-83.44-86.13q57.13-52.96 128.84-81.5Q401.68-557.3 480-557.3q63.13 0 123.04 19.34 59.92 19.35 111.48 54.35-17.56 3.75-33.3 10.51-15.74 6.75-29.67 15.88-14.16 10.26-27.03 22.03-12.87 11.77-23.22 26.02-28.6-13.18-59.31-20.05-30.71-6.87-61.99-6.87-54.57 0-104.57 19.13-50 19.13-90.86 55.83ZM480-159.87l-104.74-109q21.7-17.39 48.11-27.87 26.42-10.48 56.63-10.48 23.41 0 43.96 6.31 20.56 6.3 38.3 18.04-2.83 8.91-2.26 17.67.56 8.77 4.52 17.11L480-159.87Z"/></svg>