<svg xmlns="http://www.w3.org/2000/svg" width="48" height="48" viewBox="0 96 960 960"><path d="M480.069 785.044q16.192 0 28.105-11.951t11.913-28.097q0-16.866-11.982-28.496-11.983-11.63-28.174-11.63-16.192 0-28.105 11.59-11.913 11.591-11.913 28.174 0 16.584 11.982 28.497 11.983 11.913 28.174 11.913Zm-34.46-130.304h66.782V367.521h-66.782V654.74Zm-339.74 297.087V202.999h270.087q8.392-35.565 37.087-57.782 28.696-22.218 66.957-22.218 38.261 0 66.957 22.218 28.695 22.217 37.087 57.782h270.652v748.828H105.869ZM480 263.522q15.96 0 27.176-11.216 11.215-11.216 11.215-26.893 0-15.677-11.215-27.175Q495.96 186.739 480 186.739q-15.96 0-27.176 11.461-11.215 11.461-11.215 26.93 0 15.96 11.215 27.176Q464.04 263.522 480 263.522Z"/></svg>