<svg xmlns="http://www.w3.org/2000/svg" width="48" height="48" viewBox="0 -960 960 960"><path d="M105.87-105.87V-854.7h270.09q8.39-35 37.08-57.5 28.7-22.5 66.96-22.5 38.26 0 66.96 22.5 28.69 22.5 37.08 57.5H854.7v748.83H105.87Zm79.22-79.22h589.82v-589.82H185.09v589.82Zm100-100h266.78v-60H285.09v60Zm0-164.91h389.82v-60H285.09v60Zm0-164.91h389.82v-60H285.09v60Zm221.95-190.05q11.35-11.34 11.35-27.04t-11.35-27.04Q495.7-870.39 480-870.39t-27.04 11.35Q441.61-847.7 441.61-832t11.35 27.04q11.34 11.35 27.04 11.35t27.04-11.35ZM185.09-185.09v-589.82 589.82Z"/></svg>