<svg xmlns="http://www.w3.org/2000/svg" width="48" height="48" viewBox="0 -960 960 960"><path d="M105.869-105.869v-748.827h270.087q8.392-35 37.087-57.5 28.696-22.5 66.957-22.5 38.261 0 66.957 22.5 28.695 22.5 37.087 57.5h270.652v748.827H105.869Zm179.218-179.218H551.87v-60H285.087v60Zm0-164.913h389.826v-60H285.087v60Zm0-164.913h389.826v-60H285.087v60ZM480-793.609q15.96 0 27.176-11.215Q518.391-816.04 518.391-832q0-15.96-11.215-27.176Q495.96-870.391 480-870.391q-15.96 0-27.176 11.215Q441.609-847.96 441.609-832q0 15.96 11.215 27.176Q464.04-793.609 480-793.609Z"/></svg>