<svg xmlns="http://www.w3.org/2000/svg" width="48" height="48" viewBox="0 96 960 960"><path d="M198.999 819.522v-339H272v339h-73.001Zm248.783 0v-339h72.436v339h-72.436ZM65.869 433.523v-76.741L480 121.999l414.696 234.783v76.741H65.869Zm169.61-79.784h489.042L480 213.044 235.479 353.739ZM65.869 945.74v-79.219h508.479q2 16.261 4.347 37.262 2.348 21 10.609 41.957H65.869ZM688 637.782v-157.26h73.001v120.477L688 637.782Zm112 424.438q-71.261-17.57-118.174-82.046-46.913-64.478-46.913-143.304V732.043L800 649.782l165.087 82.261V836.87q0 78.826-46.913 143.304Q871.261 1044.65 800 1062.22Zm-21.565-125.655 145.956-145.956-28.565-28.566L778.435 880l-64.087-64.087-28 28 92.087 92.652ZM235.479 353.739h489.042-489.042Z"/></svg>