<svg xmlns="http://www.w3.org/2000/svg" width="48" height="48" viewBox="0 96 960 960"><path d="M27 830.131V161.304h828.827v319.783h-79.784V314.088l-334.913 217-334.912-217v436.825h487.564v79.218H26.999Zm414.13-376.044 334.913-213H106.218l334.912 213Zm354.261 540.566q-59.956 0-100.782-42.826-40.827-42.826-40.827-102.783v-224q0-35.849 25.347-61.316 25.347-25.467 62.022-25.467 35.675 0 60.371 25.467 24.696 25.467 24.696 61.316v230H760v-233q0-11-4.5-19.5t-14.5-8.5q-10 0-15.5 8.5t-5.5 19.5v229q0 34.795 20.848 60.593 20.848 25.798 54.613 25.798 31.766 0 51.262-24.63 19.495-24.631 19.495-57.761V654.652h66.783v200.392q0 57.957-39.827 98.783-39.826 40.826-97.783 40.826ZM106.218 241.087v509.826-509.826Z"/></svg>