<svg xmlns="http://www.w3.org/2000/svg" width="48" height="48" viewBox="0 -960 960 960"><path d="M437.13-212.09h86.74v-177.17h56.87v-225.48H379.26v225.4h57.87v177.25ZM317.68-98q-75.59-32.13-131.57-88.11Q130.13-242.09 98-317.68q-32.13-75.6-32.13-162.37 0-86.78 32.13-162.32 32.13-75.54 88.09-131.55 55.95-56.01 131.56-88.39 75.6-32.39 162.39-32.39 86.79 0 162.33 32.42 75.54 32.41 131.52 88.39 55.98 55.98 88.39 131.52 32.42 75.54 32.42 162.33t-32.39 162.39q-32.38 75.61-88.39 131.56Q717.91-130.13 642.37-98q-75.54 32.13-162.32 32.13-86.77 0-162.37-32.13Zm199.69-560.96q15.5-15.21 15.5-37.08 0-21.87-15.5-37.37-15.5-15.5-37.37-15.5-21.87 0-37.37 15.5-15.5 15.5-15.5 37.37 0 21.87 15.5 37.08 15.5 15.22 37.37 15.22 21.87 0 37.37-15.22Z"/></svg>