<svg xmlns="http://www.w3.org/2000/svg" width="48" height="48" viewBox="0 -960 960 960"><path d="M256.48-745.48v560.39-560.39Zm197.74 639.61H176.69v-639.61h-52.6v-79.22h213.3v-40.17h266.65v40.17h213.31v79.22h-52.61v192.13q-16.83-8.52-38.76-13.5-21.94-4.98-40.46-5.98v-172.65H256.48v560.39h156.43q4.48 17 16.92 40.76 12.43 23.77 24.39 38.46ZM352.09-266h35.08q0-80.4 16.98-119.59t17.55-39.76V-665h-69.61v399Zm168.65-262q13.69-9.7 33.52-18.33 19.83-8.63 36.65-14.25V-665h-70.17v137Zm-3.94 391.51q-62.63-63.15-62.63-153.11 0-89.97 62.63-152.88t152.6-62.91q89.96 0 153.39 62.91 63.43 62.91 63.43 152.88 0 89.96-63.43 153.11-63.43 63.14-153.39 63.14-89.97 0-152.6-63.14Zm217.33-53.86 32.52-32.52-75.13-75.25v-114.14h-46.78v132.52l89.39 89.39Z"/></svg>