<svg xmlns="http://www.w3.org/2000/svg" width="48" height="48" viewBox="0 -960 960 960"><path d="M152.65-105.87q-50.24 0-84.92-34.68-34.69-34.69-34.69-84.93 0-39.04 22.5-69.5 22.5-30.45 57.5-42.72v-284.6q-35-12.27-57.5-42.66-22.5-30.4-22.5-69.37 0-50.71 34.75-85.54 34.74-34.83 85.06-34.83T238-819.77q34.83 34.93 34.83 85.51 0 38.87-22.79 69.28-22.78 30.41-57.21 42.68v102.69h247.56V-622.3q-35-12.27-57.5-42.66-22.5-30.4-22.5-69.37 0-50.71 34.83-85.54Q430.04-854.7 480-854.7t84.78 34.93q34.83 34.93 34.83 85.51 0 38.87-22.5 69.28-22.5 30.41-57.5 42.68v102.69h248.13V-622.3q-35-12.27-57.5-42.66-22.5-30.4-22.5-69.37 0-50.71 34.63-85.54 34.62-34.83 84.78-34.83 50.15 0 84.98 34.85 34.83 34.85 34.83 85.33 0 38.99-22.5 69.4-22.5 30.42-57.5 43.02v181.71H519.61v102.69q35 12.27 57.5 42.66 22.5 30.4 22.5 69.37 0 50.71-34.83 85.26-34.82 34.54-84.78 34.54t-84.78-34.68q-34.83-34.69-34.83-84.93 0-39.04 22.5-69.5 22.5-30.45 57.5-42.72v-102.69H192.83v102.69q34.43 12.27 57.21 42.66 22.79 30.4 22.79 69.37 0 50.71-34.85 85.26-34.85 34.54-85.33 34.54Z"/></svg>