<svg xmlns="http://www.w3.org/2000/svg" width="48" height="48" viewBox="0 -960 960 960"><path d="M481.13-135.694q-48-37.435-104.282-60.131Q320.565-218.521 260-218.521q-55.261 0-122.131 25.957t-110.87 59.653v-609.48q50.261-28.435 107.522-45.283 57.261-16.848 124.349-16.848 58.565 0 114.63 15T480-743.391v520.131q51-33 107-50.631 56-17.63 113-17.63 36 0 78.5 7.565t81.5 29.565v-521.957q20.218 6.13 39.696 15.478 19.478 9.348 33.305 18.479v609.48q-44-33.696-110.87-59.653T700-218.521q-60 0-115.435 22.696T481.13-135.694ZM540-316.26v-367.131l260-262.827v400.566L540-316.26Z"/></svg>