<svg xmlns="http://www.w3.org/2000/svg" width="48" height="48" viewBox="0 96 960 960"><path d="M480 1001q-77.556 0-145.592-29.6-68.036-29.601-118.94-80.326-50.903-50.725-80.251-118.714-29.348-67.988-29.348-145.49h79.218q0 123.304 85.707 208.826 85.708 85.522 209.109 85.522 123.401 0 209.206-85.453 85.804-85.453 85.804-208.895h79.783q0 77.392-29.555 145.506-29.555 68.115-80.483 118.795-50.928 50.68-118.997 80.255Q557.592 1001 480 1001ZM105.869 626.87q0-77.391 29.348-145.435t80.251-119.051q50.904-51.008 118.94-80.609Q402.444 252.174 480 252.174q68.13 0 128.544 22.5 60.413 22.5 106.978 63.065l56.087-56.087 52.175 51.609-56.088 56.087q36.566 41.131 61.783 99.261 25.217 58.131 25.217 138.261h-79.783q0-123.304-85.707-209.108-85.708-85.805-209.109-85.805-123.401 0-209.206 85.736-85.804 85.736-85.804 209.177h-79.218ZM346.999 196v-73.001h266.002V196H346.999ZM480 331.957q-114.393 0-197.24 74.609-82.847 74.608-95.542 185.652h158.695l58.044 109.999 149.26-300.782L657.87 592.218h115.478q-13.261-111.044-96.108-185.652-82.847-74.609-197.24-74.609Zm0 589.261q114.393 0 196.74-74.109 82.347-74.108 95.608-183.586H614.652l-58.609-110L407.348 853.74 302.13 663.523H188.218q12.695 109.478 95.042 183.586 82.347 74.109 196.74 74.109Zm.097 0q-123.401 0-209.206-85.425-85.804-85.424-85.804-208.826 0-123.401 85.707-209.205 85.708-85.805 209.109-85.805 123.401 0 209.206 85.708 85.804 85.707 85.804 209.108 0 123.401-85.707 208.923-85.708 85.522-209.109 85.522ZM480 627.87Z"/></svg>