<svg xmlns="http://www.w3.org/2000/svg" width="48" height="48" viewBox="0 -960 960 960"><path d="M23.04-225.87V-734.7h687.44l-216.13 79.79H102.83v349.82h497.6q17.13 23.22 37.68 43.53 20.54 20.3 45.5 35.69H23.04Zm79.79-79.22v-349.82 349.82Zm642.82 46q-80.95-29.13-136.13-127.13-55.17-98-55.17-213.21 32.87 2.26 77.85-17.59 44.97-19.85 113.45-67.5 67.92 47.65 112.89 67.5 44.98 19.85 78.42 17.59 0 115.21-55.18 213.21-55.17 98-136.13 127.13Zm0-73.34q45-26.13 77.42-83.61 32.41-57.48 43.54-126.61-26.57-8.57-55.91-23.91-29.35-15.35-65.05-37.48v271.61Z"/></svg>