<svg xmlns="http://www.w3.org/2000/svg" width="48" height="48" viewBox="0 0 48 48"><path d="M40.05 42.5 26.55 29l2.95-3.05 13.55 13.5Zm-29.2-2.65 6.7-6.75q-2-2.2-3.8-4.675-1.8-2.475-3.15-4.95-1.35-2.475-2.075-4.8Q7.8 16.35 8 14.45 4.45 20.3 5.15 27.325q.7 7.025 5.7 12.525Zm8.75-8.8 12-12q-2.65-2.65-5.65-4.575-3-1.925-5.75-2.925-2.75-1-4.975-1.025Q13 10.5 11.85 11.7q-1.05 1.15-.975 3.325.075 2.175 1.125 4.85t3 5.6q1.95 2.925 4.6 5.575ZM33.7 17l6.65-6.7q-5.55-5.05-12.7-5.75-7.15-.7-13 3.05 1.95-.25 4.375.45t4.95 2.025Q26.5 11.4 29.025 13.2T33.7 17Z"/></svg>