<svg xmlns="http://www.w3.org/2000/svg" width="48" height="48" viewBox="0 -960 960 960"><path d="M231.521-65.869V-263.21l88-82.615-31.869-184.348h-188v-324.522h286.696v-40h185.218v40h163.826l-87 508.87 88 82.615v197.342H231.521Zm44-535.044-30.869-182.478h-73.696v182.478h104.565Zm208.376 406.565q18.416 0 30.934-12.475 12.517-12.475 12.517-30.916 0-17.791-12.475-30.591t-30.916-12.8q-18.442 0-30.917 12.8-12.475 12.8-12.475 30.874 0 18.074 12.458 30.591t30.874 12.517ZM383.696-388.479h199.956l68.305-394.912H315.391l68.305 394.912Zm-80.87 251.87h362.261v-96.739l-90.739-84.391H393.565l-90.739 84.391v96.739Zm181.131-90.565Z"/></svg>