<svg xmlns="http://www.w3.org/2000/svg" width="48" height="48" viewBox="0 -960 960 960"><path d="M105.869-781.696v-73h72.435v73h-72.435Zm168.957 0v-73h73v73h-73Zm168.956 0v-73h72.436v73h-72.436Zm168.957 0v-73h73.001v73h-73.001Zm168.957 0v-73h73v73h-73ZM105.869-612.739v-72.435h72.435v72.435h-72.435Zm337.913 0v-72.435h72.436v72.435h-72.436Zm337.914 0v-72.435h73v72.435h-73ZM105.869-443.782v-72.436h748.827v72.436H105.869Zm0 169.522v-73.001h72.435v73.001h-72.435Zm337.913 0v-73.001h72.436v73.001h-72.436Zm337.914 0v-73.001h73v73.001h-73ZM105.869-105.869v-72.435h72.435v72.435h-72.435Zm168.957 0v-72.435h73v72.435h-73Zm168.956 0v-72.435h72.436v72.435h-72.436Zm168.957 0v-72.435h73.001v72.435h-73.001Zm168.957 0v-72.435h73v72.435h-73Z"/></svg>