<svg xmlns="http://www.w3.org/2000/svg" width="48" height="48" viewBox="0 -960 960 960"><path d="M481-13.173 343.739-145.87h-197.87v-197.87L10.173-480 145.87-616.261v-198.435h197.87L481-950.392l135.261 135.696h198.435v198.435L950.392-480 814.696-343.739v197.87H616.261L481-13.173Zm.045-277.914q79.259 0 134.564-55.349 55.304-55.35 55.304-134.609 0-79.259-55.35-134.564-55.349-55.304-134.608-55.304-79.259 0-134.564 55.35-55.304 55.349-55.304 134.608 0 79.259 55.349 134.564 55.35 55.304 134.609 55.304ZM481-481Zm0 356.695 102.264-100.782h151.649v-152.131L838.26-480 734.913-583.348v-151.565H583.348L481-838.26 377.218-734.913H225.087v151.565L122.305-480l102.782 102.782v152.131h151.131L481-124.305ZM480-481Z"/></svg>