<svg xmlns="http://www.w3.org/2000/svg" width="48" height="48" viewBox="0 -960 960 960"><path d="M383.348-145.087q137.379 0 234.646-96.304Q715.261-337.696 715.261-480t-98.087-238.609q-98.087-96.304-235.826-96.304-17.174 0-37.326 2t-30.021 4.435q62.869 70.304 97.152 154.659 34.282 84.354 34.282 173.623 0 89.268-34.282 174.123-34.283 84.854-96.152 153.551 9.869 2.435 28.739 4.935 18.869 2.5 39.608 2.5Zm5 79.218q-62.587 0-121.316-18.087Q208.304-102.043 166.521-126q89.695-67.13 144.413-158 54.718-90.87 54.718-195.783 0-104.913-55.218-196.5T165.521-833q41.217-23.957 101.033-42.827 59.816-18.869 122.794-18.869 83.758 0 157.336 31.913 73.578 31.913 129.056 87.391 55.478 55.479 87.109 130.944 31.63 75.466 31.63 163.37 0 87.904-31.959 163.672-31.96 75.768-87.152 132.132-55.193 56.365-129.062 87.885-73.869 31.52-157.958 31.52ZM445.435-479Z"/></svg>