<svg xmlns="http://www.w3.org/2000/svg" width="48" height="48" viewBox="0 -960 960 960"><path d="M404.304-411.043q12.713 0 26.291-1.935 13.579-1.935 27.014-6.37l166.565 168.131L705.826-329l-168-168.565q3.304-12.305 6.304-25.022 3-12.717 3-26.717 0-59.131-41.847-100.979-41.848-41.847-100.979-41.847-17.942 0-37.297 6.413-19.355 6.413-34.79 15.978l84.043 82.478-48.347 45.348-81.39-80.478q-10.219 15.434-15.849 34.695-5.631 19.261-5.631 38.392 0 58.229 40.283 98.245 40.283 40.016 98.978 40.016Zm75.774 345.174q-85.469 0-161.013-32.348-75.544-32.348-132.022-88.826-56.478-56.478-88.826-131.944-32.348-75.466-32.348-160.935 0-86.469 32.348-162.013 32.348-75.544 88.737-131.552 56.39-56.008 131.897-88.609 75.507-32.6 161.024-32.6 86.516 0 162.127 32.557 75.61 32.557 131.576 88.49 55.966 55.933 88.542 131.499T894.696-480q0 85.547-32.6 161.082-32.601 75.534-88.609 131.944-56.008 56.409-131.474 88.757-75.466 32.348-161.935 32.348ZM480-145.087q139.739 0 237.326-97.732Q814.913-340.551 814.913-480q0-139.739-97.587-237.326-97.587-97.587-237.609-97.587-139.021 0-236.826 97.587-97.804 97.587-97.804 237.609 0 139.021 97.732 236.826Q340.551-145.087 480-145.087ZM480-480Z"/></svg>