<svg xmlns="http://www.w3.org/2000/svg" width="48" height="48" viewBox="0 -960 960 960"><path d="M140-723.435h304.652H140Zm87.087 294.131h-82 522.915-440.915Zm-3.957 281.435v82H121.869v-121.174q-26.565-15-41.283-44.218-14.717-29.217-14.717-65.782v-406.044q0-81.285 93.696-116.143 93.696-34.858 319.609-34.858-12.261 18.193-20.981 38.187-8.721 19.995-13.541 41.031-156.522 2-223.587 13.435t-81.065 38h293.913q-.869 15 .044 30t3.478 30H145.087v174.131h388.262q27.391 23.13 61.348 38.413 33.957 15.282 70.479 21.587H145.087v113.217q0 36 24.5 62.5t57.5 26.5h345.826q33 0 57.5-26.5t24.5-62.5v-122.914q20.087 4.261 39.609 5.109 19.522.848 40.174-1.717v138.566q0 36.565-15 65.782-15 29.218-41 44.218v121.174H576.87v-82H223.13Zm480.754-364.827q-79.753 0-135.47-55.728-55.718-55.728-55.718-135.762 0-78.51 56-134.51 56-56 135-56 79.435 0 135.218 55.782 55.782 55.783 55.782 135.218 0 80-55.812 135.5-55.813 55.5-135 55.5Zm-19.71-166.088h43.479v-143h-43.479v143Zm22.022 95.74q11.196 0 18.827-6.848 7.63-6.848 7.63-19.109 0-11.695-7.73-19.108-7.731-7.414-18.227-7.414-12.695 1-19.608 8.414-6.914 7.413-6.914 18.608 0 11.761 7.131 18.609 7.13 6.848 18.891 6.848ZM248.885-274.261q22.376 0 38.659-16.059 16.282-16.059 16.282-39 0-22.376-16.341-38.658-16.342-16.283-38.718-16.283-22.941 0-38.941 16.341-16 16.342-16 38.718 0 22.941 16.059 38.941 16.059 16 39 16Zm302.913 0q22.376 0 38.658-16.059 16.283-16.059 16.283-39 0-22.376-16.341-38.658-16.342-16.283-38.718-16.283-22.941 0-38.941 16.341-16 16.342-16 38.718 0 22.941 16.059 38.941 16.059 16 39 16Z"/></svg>