<svg xmlns="http://www.w3.org/2000/svg" width="48" height="48" viewBox="0 -960 960 960"><path d="M367.54-321.72q16.29-15.95 16.29-38.72 0-22.78-16.35-39.06-16.34-16.28-39.11-16.28-22.78 0-38.66 16.34-15.88 16.34-15.88 39.12 0 22.77 15.94 38.65 15.94 15.89 38.72 15.89 22.77 0 39.05-15.94ZM521.52-65.87l85.09-84.86q-35.1 0-60.09-25.12-25-25.12-25-60.29v-138.67q0-75.85 51.76-123.43 51.77-47.59 134.59-47.59t134.82 47.57Q894.7-450.7 894.7-374.8v138.76q0 35.23-25.02 60.09-25.01 24.87-60.13 24.87l85.15 85.21H521.52Zm212.96-146.06q11.26-10.98 11.26-26.09t-11.26-26.37q-11.26-11.26-26.37-11.26-15.11 0-26.37 11.26-11.26 11.26-11.26 26.37 0 15.11 11.26 26.09 11.26 10.97 26.37 10.97 15.11 0 26.37-10.97Zm-137.7-120.9h222.65v-42.21q0-11.61-2.28-22.18-2.28-10.56-6.28-20.69H605.1q-4.44 10.13-6.38 20.69-1.94 10.57-1.94 22.18v42.21ZM201.87-96.82v-120.05q-29.57-17.24-42.78-48.91-13.22-31.68-13.22-66.18v-402.08q0-80.93 79.89-118.81 79.89-37.89 255.42-37.89 173.8 0 253.66 37.4 79.86 37.4 79.86 119.3v154.95q-18.39-7.08-38.1-11.8-19.71-4.72-41.69-5.85v-98.22H225.09v173h296.52q-29.91 29.18-45 67.43-15.09 38.26-15.09 79.44v196.27H303.13v82H201.87Z"/></svg>