<svg xmlns="http://www.w3.org/2000/svg" width="48" height="48" viewBox="0 -960 960 960"><path d="M586-73.782q-15.393 0-25.805-10.43-10.413-10.428-10.413-25.844 0-15.417 10.413-25.789 10.412-10.373 25.805-10.373h124.651l-101.042-71.13q-12.261-8.695-15.327-23.239-3.065-14.543 5.348-26.804t22.783-15.327q14.37-3.065 26.978 5.066l102.608 70.695-43.217-116.782q-5.565-13.826 1.603-27.276 7.168-13.449 21.354-19.203 14.826-5.565 28.652.783 13.827 6.348 18.827 21.174l41.217 116.782 33.347-119.217q3.566-13.826 16.327-21.456 12.761-7.631 27.087-4.066 14.326 3.566 21.956 15.827 7.631 12.261 4.066 27.087L853.994-73.782H586ZM185.087-145.87q-32.507 0-55.862-23.356-23.356-23.355-23.356-55.862v-529.826q0-32.74 23.356-56.262 23.355-23.521 55.862-23.521H245v-60h74.609v60h240.782v-60H635v60h59.913q32.74 0 56.262 23.521 23.521 23.522 23.521 56.262v300.87q-20.652-4.827-40.174-5.109-19.522-.283-39.609 2.848V-570H185.087v344.913h305.869q-1.696 20.087 1.587 39.609 3.283 19.522 9.413 39.609H185.087Zm0-484.131h509.826v-124.913H185.087V-630Zm0 0v-124.913V-630Z"/></svg>