<svg xmlns="http://www.w3.org/2000/svg" width="48" height="48" viewBox="0 -960 960 960"><path d="M105.87-65.87V-834.7h139.24v-60h74.5v60h320.78v-60h74.72v60H854.7v385.09q-18.53-9.82-38.33-15.96-19.8-6.13-41.46-8.6V-570H185.09v424.91h320.13q6.56 22.66 18.52 42.53 11.96 19.86 28.04 36.69H105.87ZM605.13-95.5Q549.91-151 549.91-229t55.22-133.5q55.22-55.5 133.5-55.5t133.78 55.5q55.5 55.5 55.5 133.5t-55.5 133.5Q816.91-40 738.63-40t-133.5-55.5Zm191.78-28.54 31.96-32.53-75.57-75.67v-114.15h-45.78v130.36l89.39 91.99Z"/></svg>