<svg xmlns="http://www.w3.org/2000/svg" width="48" height="48" viewBox="0 -960 960 960"><path d="M65.869-65.869v-788.827h134.696v-80h243.957v80h130.174v92.435h320v603.957h-320v92.435H65.869Zm79.218-79.218H501.13v-93.001h313.783v-444.389H501.13v-92.436H145.087v629.826Zm226.434-153.001h66.783v-66.783h-66.783v66.783Zm0-257.606h66.783v-66.783h-66.783v66.783Zm158.305 257.606h66.783v-66.783h-66.783v66.783Zm0-257.606h66.783v-66.783h-66.783v66.783ZM688.13-298.088h66.783v-66.783H688.13v66.783Zm0-257.606h66.783v-66.783H688.13v66.783ZM322.826-460Z"/></svg>