<svg xmlns="http://www.w3.org/2000/svg" width="48" height="48" viewBox="0 -960 960 960"><path d="m627.218-167.956 69-68 68 68 32.044-31.479-69-69L798.827-340l-32.044-32.044-70 70-70.565-70-31.479 31.479 70 70-70 70.565 32.479 32.044Zm-513.436 21.522V-393.13L435.001-480l-321.219-88.87v-244.696L817.35-514.913q-21.827-1.696-43.892-3.391Q751.392-520 696.218-520q-96.435 0-167.718 63.717-71.282 63.718-81.282 160.153 0 2.26.282 4.239.283 1.978.848 4.239L113.782-146.434ZM696.218-80q-77.435 0-133.718-55.5Q506.218-191 506.218-269q0-79 56.282-135 56.283-56 133.718-56 78 0 134 56t56 135q0 78-56 133.5t-134 55.5Z"/></svg>