<svg xmlns="http://www.w3.org/2000/svg" width="48" height="48" viewBox="0 -960 960 960"><path d="m531.22-25.87-119.8-218.96H83.13L25.87-531.39q-8.57-45.13 20.27-79.76 28.83-34.63 74.12-34.63 33.76 0 60.36 20.5t36.73 53.06l59.17 209.44h160.26L595.65-55.87l-64.43 30ZM98.2-704.22q-31.46 0-53.31-21.64-21.85-21.65-21.85-53.11 0-30.9 21.65-53.31Q66.33-854.7 97.8-854.7q31.46 0 53.59 22.21 22.13 22.21 22.13 53.11 0 31.47-21.93 53.31-21.92 21.85-53.39 21.85ZM688.83-485.3 483.56-691l205.27-203.7 55.56 55.57-108.52 108.52H894.7v78.65H635.74l108.65 111.09-55.56 55.57Z"/></svg>