<svg xmlns="http://www.w3.org/2000/svg" width="48" height="48" viewBox="0 96 960 960"><path d="M482 860.522 600.522 743 482.565 625.478 435.478 672l39.043 39.043q-25.173-.695-48.847-10.13-23.674-9.435-42.413-28.174-19.435-19.435-29.652-44.869-10.218-25.435-10.218-50.87 0-16.435 4.5-34t13.066-34.13l-48.522-47.957q-18.131 27.261-26.979 56.391-8.847 29.131-8.847 58.696 0 39.13 15 76.413 15 37.283 45.13 66.848 27.87 28.435 62.456 42.935 34.587 14.5 71.457 16.065L435.478 814 482 860.522Zm166.13-169.435q17.566-27.261 26.414-56.391 8.847-29.131 8.847-58.696 0-39.13-14.782-76.63-14.783-37.5-44.348-67.631-28.435-27.869-63.239-42.152-34.804-14.283-71.109-15.413L524.522 338 478 291.478 359.478 409l117.957 117.522L524.522 480l-39.478-40.043q24.174 1.695 48.782 11.348 24.609 9.652 42.913 27.956 19.435 19.435 29.652 44.869 10.218 25.435 10.218 50.87 0 16.435-4.5 34t-13.066 33.565l49.087 48.522ZM480 990.131q-85.391 0-160.935-32.348t-132.022-88.826q-56.478-56.478-88.826-132.022Q65.869 661.391 65.869 576q0-86.391 32.348-161.935t88.826-131.522q56.478-55.978 132.022-88.609 75.544-32.63 160.935-32.63 86.391 0 161.935 32.63 75.544 32.631 131.522 88.609 55.978 55.978 88.609 131.522 32.63 75.544 32.63 161.935 0 85.391-32.63 160.935-32.631 75.544-88.609 132.022-55.978 56.478-131.522 88.826Q566.391 990.131 480 990.131Zm0-79.218q139.739 0 237.326-97.804Q814.913 715.304 814.913 576q0-139.739-97.587-237.326Q619.739 241.087 480 241.087q-139.304 0-237.109 97.587Q145.087 436.261 145.087 576q0 139.304 97.804 237.109Q340.696 910.913 480 910.913ZM480 576Z"/></svg>