<svg xmlns="http://www.w3.org/2000/svg" width="48" height="48" viewBox="0 -960 960 960"><path d="M318.75-98.22q-75.66-32.34-131.92-88.61-56.27-56.26-88.61-131.72-32.35-75.47-32.35-161.54 0-86.08 32.35-161.27 32.34-75.2 88.54-131.6 56.19-56.4 131.72-89.07Q394.02-894.7 480-894.7q39.75 0 77.2 7.07 37.45 7.06 72.15 20.63-11.19 19.27-17.16 40.98-5.97 21.72-5.97 45.85 0 39.73 16.02 73.32 16.02 33.59 44.19 57.15l-246 246-115.47-114.91-56.31 56.31 171.78 172.78L741-610.09q8.87 1.94 18.92 2.9 10.05.97 20.25.97 24.41 0 45.84-5.78 21.43-5.78 40.99-17.35 13.57 34.7 20.63 72.24 7.07 37.54 7.07 77.39 0 85.55-32.65 161.13-32.66 75.57-89.03 131.8-56.38 56.23-131.61 88.57-75.24 32.35-161.12 32.35-85.88 0-161.54-32.35Zm380.6-601.35q-33.13-33.34-33.13-80.82 0-47.48 33.35-80.89 33.34-33.42 80.82-33.42 47.48 0 80.89 33.47 33.42 33.46 33.42 81.11 0 47.64-33.47 80.77-33.46 33.13-81.11 33.13-47.64 0-80.77-33.35Z"/></svg>