<svg xmlns="http://www.w3.org/2000/svg" width="48" height="48" viewBox="0 -960 960 960"><path d="M70.39-53.999v-328.783l165.001-72.866v-130.757l205-104.812v-82.565h-80v-79.219h80v-80h79.218v80h80v79.219h-80v82.565l205 104.812v130.757l165 72.866v328.783h-363V-267.39h-93.218v213.391h-363Zm79.219-79.783h204.564v-216.261h252.219v216.261h203.999v-201l-165-73.197v-133.368L480-626.694l-165.391 85.347v133.368l-165 73.197v201Zm330.45-278.217q22.941 0 38.941-16.059 16-16.059 16-39 0-22.376-16.059-38.659-16.059-16.282-39-16.282T441-505.658q-16 16.342-16 38.718 0 22.941 16.059 38.941 16.059 16 39 16ZM480-380.738Z"/></svg>