<svg xmlns="http://www.w3.org/2000/svg" width="48" height="48" viewBox="0 96 960 960"><path d="M839.783 1024.04 645.87 830.131H65.869V250.13l-48.913-48.348 47.522-47.522 822.827 822.262-47.522 47.518Zm54.913-134.605L755.609 750.913h59.304V241.087H245.784l-79.219-79.783h728.131v728.131ZM145.087 750.913h421.565L471.739 656H240v-60h171.739l-70-70H240v-60h41.739L145.087 329.348v421.565ZM660.696 656l-60-60H720v60h-59.304Zm-130-130-60-60H720v60H530.696Zm-130-130-60-60H720v60H400.696ZM355.87 540.13ZM500.696 496Z"/></svg>