<svg xmlns="http://www.w3.org/2000/svg" width="48" height="48" viewBox="0 -960 960 960"><path d="M561.43-525.13h258.96v-181.48H561.43v181.48Zm130.48-37L588.04-640v-40l102.87 77.87L793.78-680v40l-101.87 77.87ZM0-113.78v-732.44h960v732.44H0Zm604-72.44h283v-587.56H73v587.56h7q44-68.43 112.5-108.72Q261-335.22 342-335.22q81.57 0 149.78 40.28Q560-254.65 604-186.22ZM428.18-439.24q35.52-35.85 35.52-87.26 0-51.41-35.5-87.26-35.5-35.85-87.26-35.85-51.77 0-87.61 35.85-35.85 35.85-35.85 87.26 0 51.41 35.8 87.26 35.8 35.85 87.59 35.85 51.79 0 87.31-35.85ZM172.39-186.22h336.96q-34.35-35.67-77.72-56.11-43.37-20.45-90.74-20.45t-91.06 20.11q-43.7 20.1-77.44 56.45Zm127.73-299.54q-16.42-16.15-16.42-40.8 0-24.66 16.42-40.74 16.43-16.09 40.74-16.09 24.31 0 40.47 16.09 16.15 16.08 16.15 40.74 0 24.65-16.15 40.8-16.16 16.15-40.47 16.15t-40.74-16.15ZM480-480Z"/></svg>