<svg xmlns="http://www.w3.org/2000/svg" width="48" height="48" viewBox="0 96 960 960"><path d="M479.925 649.782q35.901 0 61.097-25.738 25.196-25.739 25.196-61.38 0-35.641-25.121-61.044-25.121-25.404-61.022-25.404-35.901 0-61.097 25.471-25.196 25.47-25.196 61.237 0 35.534 25.121 61.196t61.022 25.662ZM313.782 822.218h332.436V793q0-25.625-14.131-47.639-14.13-22.013-38.261-32.579-26.565-11-54.979-17-28.415-6-58.847-6-30.432 0-58.847 6-28.414 6-54.414 17-24.696 10.566-38.826 32.579-14.131 22.014-14.131 47.639v29.218ZM145.869 990.131V161.304h421.349l247.478 247.648v581.179H145.869Zm79.218-79.218h509.826V444.159L531.499 241.087H225.087v669.826Zm0 0V241.087v669.826Z"/></svg>