<svg xmlns="http://www.w3.org/2000/svg" width="48" height="48" viewBox="0 -960 960 960"><path d="M0-113.78v-732.44h960v732.44H0Zm604-72.44h283v-587.56H73v587.56h7q44-68.43 112.5-108.72Q261-335.22 342-335.22q81.57 0 149.78 40.28Q560-254.65 604-186.22ZM428.13-439.24q35.57-35.85 35.57-87.26 0-51.41-35.57-87.26-35.56-35.85-87.26-35.85t-87.54 35.85q-35.85 35.85-35.85 87.26 0 51.41 35.85 87.26 35.84 35.85 87.54 35.85t87.26-35.85ZM172.39-186.22h336.96q-34.31-35.78-77.76-56.17-43.46-20.39-90.76-20.39-47.31 0-91 20.11-43.7 20.1-77.44 56.45Zm127.73-299.54q-16.42-16.15-16.42-40.75t16.42-40.74q16.43-16.14 40.74-16.14 24.31 0 40.47 16.14 16.15 16.14 16.15 40.74t-16.15 40.75q-16.16 16.15-40.47 16.15t-40.74-16.15ZM480-480Zm205.87-3.78h48.48v-72.18l62.17 35.87 24.52-41.34-62.17-36.31 62.17-36.3-24.52-41.92-62.17 35.87v-72.17h-48.48v72.17l-61.61-35.87-24.52 41.92 62.17 36.3-62.17 36.31 24.52 41.34 61.61-35.87v72.18Z"/></svg>