<svg xmlns="http://www.w3.org/2000/svg" width="48" height="48" viewBox="0 -960 960 960"><path d="M148.695-113.782v-401l-80.608 61.739-43.914-58.175 124.522-95.093v-119.516h73.001v63.478l257.739-195.739 455.827 347.87-43.914 57.175-80.608-61.739v401H148.695Zm73.001-72.436h219.825v-160h73.001v160h223.217v-384.173l-258.304-196.87-257.739 196.657v384.386Zm-73.001-589.609q1.131-55.044 39.873-93.827 38.741-38.783 92.659-38.783 25.483 0 42.585-17.826t17.102-41.783h73.566q-1.696 54.374-40.021 93.492t-93.076 39.118q-24.233 0-41.677 17.201-17.445 17.201-17.445 42.408h-73.566Zm73.001 589.609h516.043-516.043Z"/></svg>