<svg xmlns="http://www.w3.org/2000/svg" width="48" height="48" viewBox="0 96 960 960"><path d="M798.848 930.348q16.674 0 26.87-10.978 10.195-10.979 10.195-25.24 0-16.561-11.261-26.389t-25.239-9.828q-13.978 0-25.239 9.828-11.261 9.828-11.261 26.389 0 14.261 11.261 25.24 11.261 10.978 24.674 10.978ZM476 990.131q-114.391 0-204.338-54.362-89.947-54.361-138.706-131.899l178.043-178.608 132.566 112 187.217-186.217v77.565h73V426H500.607v73.001h78.131L439.999 638.739l-131.791-112L97.716 736.435Q81.87 703 73.87 661.348t-8-81.381q0-85.793 32.348-162.119 32.348-76.327 88.573-133.439 56.225-57.112 131.805-90.109 75.579-32.996 161.483-32.996 85.904 0 161.37 33.13 75.465 33.131 131.726 90.109 56.261 56.978 88.892 133.305 32.63 76.326 32.63 162.214v410.069H476Z"/></svg>