<svg xmlns="http://www.w3.org/2000/svg" width="48" height="48" viewBox="0 -960 960 960"><path d="M680.258-879.522q68.105 0 116.184 48.134 48.08 48.134 48.08 116.47 0 10.918-1.5 29.418t-4.5 43.065l-55 403q-5.565 42.131-37.816 65.761-32.25 23.631-68.861 23.631-21.975 0-42.823-9.283t-35.413-30.47l-107-155.93q-2-1.317-5.047-3.317-3.046-2-7.374-2-1.058 0-12.797 7.304l-104 151q-14.565 22.13-36.474 32.413-21.908 10.283-44.928 10.283-36.685 0-68.315-23.631-31.631-23.63-36.631-66.761l-54-402q-3.565-24.565-4.782-42.973-1.218-18.409-1.218-29.354 0-68.499 47.871-116.629 47.871-48.131 115.683-48.131 36.988 0 59.387 9.5t42.455 21.065q19.361 10.793 41.142 20.114 21.781 9.321 57.317 9.321 35.537 0 57.404-9.321 21.867-9.321 41.304-20.114 20.133-11.565 42.835-21.065 22.701-9.5 58.817-9.5Zm-.407 79.784q-18.068 0-32.372 5.304-14.305 5.304-29.478 14.608-33.696 19.131-64.022 29.609-30.327 10.479-73.979 10.479t-73.479-10.479q-29.826-10.478-63.522-29.609-15.173-9.304-29.978-14.608-14.804-5.304-33.054-5.304-35.184 0-60.227 24.76-25.044 24.761-24.478 59.978.565 10.261 1.282 25.357.718 15.095 3.152 33.382l53.305 386.477q1.565 13.542 11.456 20.597 9.891 7.055 20.413 7.055 6.826 0 13.243-3.652 6.417-3.652 11.626-9.956l90.826-133.304q13.695-20.391 35.135-30.805 21.439-10.413 44.348-10.413t43.859 10.645q20.95 10.644 35.094 31.138l91.695 134.608q4.152 6.87 10.88 9.804 6.728 2.935 13.033 2.935 10.043 0 19.999-7.521 9.957-7.522 11.957-19.131l53.691-388.298q2.463-20.733 3.473-35.825Q764.738-707 764.738-715q0-35.302-24.718-60.02-24.718-24.718-60.169-24.718ZM480-521.218Z"/></svg>