<svg xmlns="http://www.w3.org/2000/svg" width="48" height="48" viewBox="0 -960 960 960"><path d="M771.349-193.55v-126.146h-48.218v140.522l102.392 94.392 30.956-31.522-85.13-77.246ZM480-523.044 226.001-670.696l-40.914 23.531v39.47L480-436.956l294.913-171.739v-38.47l-41.914-23.531L480-523.044ZM105.869-266.521v-426.976L480-908.392l374.696 214.913v278.349q-25-13-52.054-18.935Q775.587-440 746.957-440q-102 0-176 73.5t-74 177.5q0 15.391 2.522 28.847 2.522 13.456 7.565 26.977l19.478 108.83-420.653-242.175ZM746.957 0q-78 0-134-55.5t-56-133.5q0-79 56-135t134-56q78 0 134 56t56 135q0 78-56 133.5t-134 55.5Z"/></svg>