<svg xmlns="http://www.w3.org/2000/svg" width="48" height="48" viewBox="0 -960 960 960"><path d="M328.33-128.33q-62.46-62.45-62.46-151.93 0-51.87 22.72-98.57 22.71-46.69 68.28-70.39V-771q0-51.45 35.96-87.57 35.95-36.13 87.04-36.13 51.08 0 87.45 36.13Q603.7-822.45 603.7-771v321.78q45 23.85 68 70.53 23 46.67 23 98.69 0 89.22-62.87 151.67-62.87 62.46-151.96 62.46t-151.54-62.46Zm107.76-385.54h87.82v-51.87H480v-43.52h43.91v-82.48H480v-43.02h43.91V-771q0-18.56-12.71-31.24-12.71-12.67-31.32-12.67-18.62 0-31.21 12.67-12.58 12.68-12.58 31.24v257.13Z"/></svg>