<svg xmlns="http://www.w3.org/2000/svg" width="48" height="48" viewBox="0 -960 960 960"><path d="M265.09-104.52v-750.96 750.96Zm237.45-614.02q9.85-9.85 9.85-23.55 0-13.69-9.85-23.54-9.84-9.85-23.54-9.85t-23.54 9.85q-9.85 9.85-9.85 23.54 0 13.7 9.85 23.55 9.84 9.84 23.54 9.84t23.54-9.84Zm90.85 692.67H185.87V-934.7h586.26v369.61h-79.22v-290.39H265.09v750.96h296.13q4.69 5.95 9.67 12.35 4.98 6.39 11.37 11.78l11.13 54.52Zm61 0-17.56-88.96q-38.57-24.69-60.35-64.6-21.78-39.92-21.78-86.05 0-46.13 21.78-86.04 21.78-39.91 60.35-64.61l17.56-88.96h159.26l18.13 88.96q38.57 24.7 60.35 64.61t21.78 86.04q0 46.13-21.78 86.05-21.78 39.91-60.35 64.6l-18.13 88.96H654.39Zm153.96-165.56q30.3-30.31 30.3-74.05 0-43.74-30.3-74.04-30.31-30.31-74.04-30.31-43.74 0-74.05 30.31-30.3 30.3-30.3 74.04 0 43.74 30.3 74.05 30.31 30.3 74.05 30.3 43.73 0 74.04-30.3Z"/></svg>