<svg xmlns="http://www.w3.org/2000/svg" width="48" height="48" viewBox="0 -960 960 960"><path d="M778.304-105.869q-108 0-227.826-57.913T325.891-326.239Q221.13-429.652 163.499-548.071q-57.63-118.419-57.63-229.668v-76.957h247.219l46.218 208.783-128.871 122.957q25.829 40.561 53.023 75.345 27.194 34.785 56.952 65.108 33.72 33.72 70.764 62.394 37.043 28.674 78.391 51.282l127.174-130.044 197.957 44.417v248.585h-76.392ZM473.783-646.87v-35.826h86v-50.174h-86v-121.826h121.826v35.826h-86v50.174h86v121.826H473.783Zm173.826 0v-207.826h35.261v207.826h-35.261Zm87.261 0v-207.826h121.826v122.052h-86v85.774H734.87Zm35.826-121.826h50.174v-50.174h-50.174v50.174Z"/></svg>