<svg xmlns="http://www.w3.org/2000/svg" width="48" height="48" viewBox="0 -960 960 960"><path d="M839.783-31.956 661.044-210.13 480-29.086 29.086-480 210.13-661.044 23.739-848l47.522-47.522L887.305-79.478l-47.522 47.522ZM604.478-267.261 534.87-337.87 480-283l-43-43 55.435-54.87L421.739-450H283v-60h78.739l-94.478-94.478L143.348-480 480-143.348l124.478-123.913Zm151.045-37.348-57.132-57.131L816.652-480 480-816.652 361.74-698.391l-57.131-57.132L480-930.914 930.914-480 755.523-304.609ZM616.348-444.348 652-480 455-677l-35.652 35.652 197 197Zm-98-99ZM435.87-435.87Z"/></svg>