<svg xmlns="http://www.w3.org/2000/svg" width="48" height="48" viewBox="0 96 960 960"><path d="M479.261 990.131q-85.623 0-161.359-32.729-75.735-32.728-131.612-88.472-55.877-55.743-88.236-131.32-32.359-75.576-32.359-161.506t32.513-161.541q32.512-75.61 88.652-131.859 56.139-56.248 131.634-88.824 75.495-32.576 161.332-32.576 134.207 0 242.235 77.239Q830.088 315.782 875.653 442H752.609v442.479q-56.041 51.118-126.542 78.385-70.502 27.267-146.806 27.267ZM479.944 746q70.882 0 120.382-49.618 49.5-49.617 49.5-120.5 0-70.882-49.617-120.382-49.618-49.5-120.5-49.5-70.883 0-120.383 49.618-49.5 49.617-49.5 120.5 0 70.882 49.618 120.382t120.5 49.5Zm-.118-130q-16.435 0-28.217-11.5-11.783-11.5-11.783-28.5t11.783-28.5q11.782-11.5 28.217-11.5 17 0 28.5 11.5t11.5 28.5q0 17-11.5 28.5t-28.5 11.5Zm372.968 361.479q-17.642 0-29.544-11.935-11.902-11.934-11.902-29.576 0-17.642 11.934-29.544 11.934-11.903 29.576-11.903 17.642 0 29.545 11.935 11.902 11.934 11.902 29.576 0 17.642-11.934 29.544-11.935 11.903-29.577 11.903ZM813.609 829V502h73v327h-73Z"/></svg>