<svg xmlns="http://www.w3.org/2000/svg" width="48" height="48" viewBox="0 -960 960 960"><path d="M287.118-633.957q20.882 0 35.382-14.618 14.5-14.618 14.5-35.5 0-20.882-14.618-35.382-14.617-14.5-35.5-14.5-20.882 0-35.382 14.617-14.5 14.618-14.5 35.5 0 20.883 14.618 35.383 14.617 14.5 35.5 14.5Zm0 442.827q20.882 0 35.382-14.617 14.5-14.618 14.5-35.5 0-20.883-14.618-35.383-14.617-14.5-35.5-14.5-20.882 0-35.382 14.618-14.5 14.617-14.5 35.5 0 20.882 14.618 35.382 14.617 14.5 35.5 14.5ZM105.869-496.826v-373.828h748.827v373.828H105.869Zm0 442.827v-374.827h748.827v374.827H105.869Z"/></svg>