<svg xmlns="http://www.w3.org/2000/svg" width="48" height="48" viewBox="0 -960 960 960"><path d="M432.652-442.652q15.755 0 26.552-11.261Q470-465.174 470-479.722q0-16.114-10.796-27.153-10.797-11.038-26.552-11.038-15.392 0-26.653 11.038-11.261 11.039-11.261 27.153 0 14.548 11.261 25.809 11.261 11.261 26.653 11.261Zm-167 336.218v-79.218l266.435-46.565v-486.739l-266.435-43v-77.653l345.653 60.078v612.532l-345.653 60.565Zm-159.783.565v-79.783h80v-653.957h588.262v653.957h80v79.783H105.869Zm159.783-79.783h428.696v-574.739l-428.696-.565v575.304Z"/></svg>