<svg xmlns="http://www.w3.org/2000/svg" width="48" height="48" viewBox="0 -960 960 960"><path d="M280-65.869v-247.304H105.869v-170.045L442.26-626.913v-37.29q-37-9.623-59.652-40.406-22.652-30.782-22.652-69.913 0-50.073 35.402-85.124 35.403-35.05 85.642-35.05t85.924 35.05q35.685 35.051 35.685 85.124h-72.435q0-19.304-14.702-32.956-14.702-13.652-34.522-13.652t-34.472 13.462q-14.652 13.463-14.652 33.364 0 21.602 14.953 36.561 14.953 14.96 36.221 14.96h36.218v93.609l335.478 146.956v169.045H680.565v247.304H280Zm-101.696-320.87H280v-47.609h400.565v47.609h101.696v-45L483-566.304 178.304-431.843v45.104ZM352.435-138.87h255.13v-223.042h-255.13v223.042Zm0-223.042h255.13-255.13Z"/></svg>