<svg xmlns="http://www.w3.org/2000/svg" width="48" height="48" viewBox="0 -960 960 960"><path d="M280.052-404.739q16.209 0 27.122-11.139 10.913-11.138 10.913-27.174 0-16.035-10.965-26.948t-27.174-10.913q-16.209 0-27.122 10.933-10.913 10.934-10.913 27.097 0 15.753 10.965 26.948 10.965 11.196 27.174 11.196Zm0-160q16.209 0 27.122-11.139 10.913-11.138 10.913-27.174 0-16.035-10.965-26.948t-27.174-10.913q-16.209 0-27.122 10.933-10.913 10.934-10.913 27.097 0 15.753 10.965 26.948 10.965 11.196 27.174 11.196Zm85.035 155.304H720v-66.783H365.087v66.783Zm0-160H720v-66.783H365.087v66.783Zm-42.435 463.566v-80H65.869v-668.827h828.827v668.827H637.913v80H322.652Z"/></svg>