<svg xmlns="http://www.w3.org/2000/svg" width="48" height="48" viewBox="0 96 960 960"><path d="M365.087 489.391H720v-66.782H365.087v66.782Zm0 160H720v-66.782H365.087v66.782Zm-85.035-155.304q16.209 0 27.122-10.965t10.913-27.174q0-16.209-10.965-27.122t-27.174-10.913q-16.209 0-27.122 10.965t-10.913 27.174q0 16.209 10.965 27.122t27.174 10.913Zm0 160q16.209 0 27.122-10.965t10.913-27.174q0-16.209-10.965-27.122t-27.174-10.913q-16.209 0-27.122 10.965t-10.913 27.174q0 16.209 10.965 27.122t27.174 10.913Zm42.6 302.827v-86.783H65.869V201.304h828.827v668.827H637.913v86.783H322.652ZM145.087 790.913h669.826V281.087H145.087v509.826Zm0 0V281.087v509.826Z"/></svg>