<svg xmlns="http://www.w3.org/2000/svg" width="48" height="48" viewBox="0 0 48 48"><path d="M7.1 27.55q-1.75-1.75-2.625-4.075T3.6 18.55q0-5.4 3.5-9.175Q10.6 5.6 15.7 5.6q2.35 0 4.475.875Q22.3 7.35 24 9q1.65-1.65 3.775-2.525T32.25 5.6q5.15 0 8.65 3.775t3.5 9.125q0 2.6-.875 4.925Q42.65 25.75 40.9 27.5l-16.95 17Zm8.6-18.2q-3.55 0-5.95 2.7-2.4 2.7-2.4 6.45 0 1.05.175 2t.575 1.85h10.4l2.95 3.8 3.9-10.05h.7l4.75 6.25h9.1q.35-.9.55-1.85.2-.95.2-2 0-3.75-2.4-6.475-2.4-2.725-6-2.725-1.7 0-3.225.725-1.525.725-2.725 1.925l-1.6 1.75h-1.45l-1.6-1.75q-1.2-1.2-2.75-1.9t-3.2-.7Zm8.1 29.45 13.35-12.9H29.5l-2.95-3.8-3.9 9.95H22l-4.8-6.15h-6.4Zm.2-14.75Z"/></svg>