<svg xmlns="http://www.w3.org/2000/svg" width="48" height="48" viewBox="0 -960 960 960"><path d="M105.869-65.869v-768.827h139.244v-60h74.496v60h320.782v-60h74.722v60h139.583v331.87h-79.783V-570H185.087v424.913h312.652v79.218h-391.87ZM185.087-630h589.826v-124.913H185.087V-630Zm0 0v-124.913V-630ZM557.739-65.869v-134.87l271.479-270.479 133.87 133.87-270.479 271.48h-134.87Zm308.479-271.479-37-37 37 37Zm-240 203h38L783.522-254.52l-18-19.068-19-18.064-120.304 119.169v38.135Zm139.304-139.304-19-18 37 37-18-19Z"/></svg>