<svg xmlns="http://www.w3.org/2000/svg" width="48" height="48" viewBox="0 -960 960 960"><path d="M353.391-433.391h50.218l139.782-140.218-49.782-49.782-140.218 139.782v50.218Zm223-173.218 35-35-49.782-49.782-35 35 49.782 49.782ZM480-170.305q130.174-117.608 192.543-210.739 62.37-93.13 62.37-172.652 0-115.174-74.087-188.195Q586.739-814.913 480-814.913q-106.739 0-180.826 73.022-74.087 73.021-74.087 188.195 0 79.522 63.87 172.37Q352.826-288.479 480-170.305Zm0 104.436Q312.217-206.826 229.043-325.456q-83.174-118.631-83.174-228.24 0-155.652 101.022-248.326T480-894.696q132.087 0 233.392 92.674 101.304 92.674 101.304 248.326 0 109.609-83.456 228.24Q647.783-206.826 480-65.869ZM480-560Z"/></svg>