<svg xmlns="http://www.w3.org/2000/svg" width="48" height="48" viewBox="0 -960 960 960"><path d="M480.283-60.782q-34.95 0-59.878-24.994-24.927-24.994-24.927-60.093h169.609q0 35.261-25.044 60.174Q515-60.782 480.283-60.782ZM145.869-185.869v-79.218h74.913v-289.869q0-88.914 51.478-160.588 51.478-71.674 138.131-90.558v-88.594h139.218v88.891q34.174 7.326 61.848 24.035 27.673 16.708 48.978 40.943l-59.827 60.392q-21.696-24.907-52.978-39.714-31.282-14.807-67.63-14.807-75 0-127.5 52.783Q300-629.391 300-554.956v289.869h360V-443.26l79.784-79.784v257.957h74.912v79.218H145.869ZM480-499.739Zm2.956 84.957v-63.001l253.306-253.871 63 63.566-252.74 253.306h-63.566Zm343.437-279.871 55.087-55.653-63.001-62.435-55.652 55.087 63.566 63.001Z"/></svg>