<svg xmlns="http://www.w3.org/2000/svg" width="48" height="48" viewBox="0 -960 960 960"><path d="M429.39-279.48q14.96-14.95 14.96-36.56 0-43.22-27.7-84.85-27.69-41.63-75.35-74.07v158.92q0 21.61 15.31 36.56 15.3 14.96 36.56 14.96t36.22-14.96Zm174 0q15.31-14.95 15.31-36.56v-158.92q-47.66 32.44-75.35 74.07-27.7 41.63-27.7 84.85 0 21.61 14.96 36.56 14.96 14.96 36.22 14.96 21.26 0 36.56-14.96ZM77.13-120.87l-24.09-72.26q41.13-17 66.7-51.83 25.56-34.82 25.56-77.08v-462.63q-17.3-22.63-32.17-46.29-14.87-23.65-27.3-49.95l70.13-30.79q44 100.13 131.09 157.98 87.1 57.85 192.9 57.85 105.79 0 192.94-57.85 87.15-57.85 131.15-157.98l70.13 30.79q-12.43 25.87-27.3 49.74-14.87 23.87-32.17 46.5v462.63q0 42.04 25.56 76.98 25.57 34.93 66.7 52.49l-24.09 71.7q-64.09-25.26-103.76-77.54-39.68-52.29-39.68-123.63v-389q-55 43.43-121.21 66.93Q552-620.61 480-620.61t-137.93-23.22q-65.94-23.21-121.5-67.21v389q0 66.82-39.4 121.37-39.39 54.54-104.04 79.8Zm315.7-72.35q-51.23 0-86.75-35.68-35.51-35.69-35.51-87.16v-254.37l57.39 14.69q49.3 12.44 88.39 42.24 39.08 29.8 63.65 71.98 24.57-42.18 63.65-71.98 39.09-29.8 88.39-42.24l57.39-14.69v254.58q0 51.5-35.51 87.07-35.52 35.56-86.75 35.56-25.63 0-47.78-9.89-22.16-9.9-39.39-27.72-17.23 17.82-39.39 27.72-22.15 9.89-47.78 9.89Zm174.34-122.82Zm-174.34 0Z"/></svg>