<svg xmlns="http://www.w3.org/2000/svg" width="48" height="48" viewBox="0 -960 960 960"><path d="M77.13-120.869 53.043-193.13q41.13-17 66.695-51.87 25.566-34.87 25.566-77.043V-784.87q-17.305-22.435-32.174-46.087-14.87-23.652-27.304-49.956l70.131-30.783q44 100.13 131.152 157.978Q374.261-695.87 480-695.87q105.739 0 192.891-57.848 87.152-57.848 131.152-157.978l70.131 30.783q-12.434 25.869-27.304 49.739-14.869 23.869-32.174 46.304v462.827q0 42.173 25.566 77.043 25.565 34.87 66.695 52.435l-24.087 71.696q-64.087-25.261-103.761-77.543-39.674-52.283-39.674-123.631v-389q-55 43.434-121.218 66.934Q552-620.609 480-620.609q-72 0-137.935-23.217t-121.5-67.217v389q0 66.826-39.391 121.37-39.392 54.543-104.044 79.804Zm315.696-72.348q-51.13 0-86.696-35.565-35.565-35.566-35.565-87.261v-254.392l57.392 14.696q49.304 12.435 88.391 42.239 39.087 29.804 63.652 71.978 24.565-42.174 63.652-71.978 39.087-29.804 88.391-42.239l57.392-14.696v254.392q0 51.695-35.565 87.261-35.566 35.565-86.696 35.565-25.87 0-48.022-9.87Q497-212.956 480-230.826q-17 17.87-39.152 27.739-22.152 9.87-48.022 9.87Z"/></svg>