<svg xmlns="http://www.w3.org/2000/svg" width="48" height="48" viewBox="0 -960 960 960"><path d="M105.869-65.869v-768.827h139.244v-60h74.496v60h320.782v-60h74.722v60h139.583v375.826h-79.783V-570H185.087v424.913h300.825v79.218H105.869ZM760 18.088q-74.242 0-130.099-45.218-55.858-45.217-71.553-111.956h86.87q11.87 33.26 42.615 55.608Q718.577-61.131 760-61.131q53.551 0 91.406-37.854 37.854-37.855 37.854-91.406 0-53.752-37.891-91.224-37.891-37.471-91.369-37.471-25.251 0-46.6 8.267-21.349 8.268-36.704 23.254h51.217v79.784H541.912v-186.001h79.218v47.956q27.239-24.245 62.803-38.644 35.564-14.4 76.067-14.4 86.914 0 147.697 60.791 60.782 60.791 60.782 147.439 0 86.647-60.782 147.687Q846.914 18.087 760 18.087ZM185.087-630h589.826v-124.913H185.087V-630Zm0 0v-124.913V-630Z"/></svg>