<svg xmlns="http://www.w3.org/2000/svg" width="48" height="48" viewBox="0 96 960 960"><path d="M480 1030.13q22.435 0 44.304-2.43 21.87-2.44 44.305-6.87 91.652 67.56 202.391 43.95 110.74-23.61 169.001-122.128 44-75.13 32.543-159.695-11.456-84.566-73.76-146.522v-1.87q61.739-57 71.565-146.37 9.825-89.369-30.914-160.543-35.304-59.609-101.5-95.631-66.195-36.022-141.022-29.283-34.261-55.869-91.456-88.652Q548.261 81.304 480 81.304t-125.457 32.782q-57.195 32.783-90.891 88.652-75.392-6.739-141.587 29.283-66.196 36.022-101.5 95.631-40.74 71.174-30.914 160.543 9.826 89.37 72.13 146.37v1.87q-62.869 61.956-74.325 146.522-11.457 84.565 33.109 159.695Q78.26 1041.17 189 1064.78q110.739 23.61 202.806-43.95 22.02 4.43 43.89 6.87 21.869 2.43 44.304 2.43Zm0-79.217q-139.549 0-236.948-97.117-97.4-97.117-97.4-237.231 0-120.043 73.609-210.565 73.609-90.521 186.652-116.217-1 6-1 11.5v11.5q2.826 97.837 72.256 165.853Q546.598 546.652 645 546.652q44.435 0 81.587-13.934 37.152-13.935 66.152-37.805 10.87 28.87 16.804 59.674 5.935 30.804 5.935 61.978 0 140.114-97.682 237.231Q620.114 950.913 480 950.913ZM356.036 714.13q-23.34 0-39.123-16.008-15.783-16.007-15.783-39.347t16.008-39.123q16.008-15.782 39.348-15.782t39.123 16.008q15.782 16.007 15.782 39.347t-16.008 39.123q-16.007 15.782-39.347 15.782Zm248.478 0q-23.34 0-39.123-16.008-15.782-16.007-15.782-39.347t16.007-39.123q16.008-15.782 39.348-15.782t39.406 16.008q16.065 16.007 16.065 39.347t-16.291 39.123q-16.29 15.782-39.63 15.782Z"/></svg>