<svg xmlns="http://www.w3.org/2000/svg" width="48" height="48"><path d="M15.5 40.5V6.65h21.3V17.5h8v23zM2.55 42.8H14V15.2H2.55zM19.5 17.5h13.35v-6.9H19.5zm12.15 10.65q.85 0 1.425-.575.575-.575.575-1.425 0-.85-.575-1.425-.575-.575-1.425-.575-.85 0-1.425.575-.575.575-.575 1.425 0 .85.575 1.425.575.575 1.425.575zm5.7 0q.85 0 1.425-.575.575-.575.575-1.425 0-.85-.575-1.425-.575-.575-1.425-.575-.85 0-1.425.575-.575.575-.575 1.425 0 .85.575 1.425.575.575 1.425.575zm-5.7 5.7q.85 0 1.425-.575.575-.575.575-1.425 0-.85-.575-1.425-.575-.575-1.425-.575-.85 0-1.425.575-.575.575-.575 1.425 0 .85.575 1.425.575.575 1.425.575zm5.7 0q.85 0 1.425-.575.575-.575.575-1.425 0-.85-.575-1.425-.575-.575-1.425-.575-.85 0-1.425.575-.575.575-.575 1.425 0 .85.575 1.425.575.575 1.425.575zm-16.35 0h7v-9.7h-7z"/></svg>