<svg xmlns="http://www.w3.org/2000/svg" width="48" height="48" viewBox="0 96 960 960"><path d="M479.905 698.913q34.834 0 58.421-23.492 23.587-23.492 23.587-58.326t-23.492-58.421q-23.492-23.587-58.326-23.587t-58.421 23.492q-23.587 23.492-23.587 58.326t23.492 58.421q23.492 23.587 58.326 23.587ZM225.087 990.131q-32.507 0-55.862-23.356-23.356-23.355-23.356-55.862V241.087q0-32.74 23.356-56.262 23.355-23.521 55.862-23.521h373.131l216.478 247.603v497.137L608.913 701.391q13-16 19.5-37t6.5-47.391q0-65.391-44.761-110.152Q545.391 462.087 480 462.087q-65.391 0-109.87 44.761-44.478 44.761-44.478 110.435t44.478 109.869q44.479 44.196 109.889 44.196 25.807 0 45.59-4.435 19.782-4.434 39.217-17.565L786.218 970.74q-10.827 9.13-24.283 14.261-13.457 5.13-27.022 5.13H225.087Z"/></svg>