<svg xmlns="http://www.w3.org/2000/svg" width="48" height="48" viewBox="0 -960 960 960"><path d="M414-274.087q14 11 29 16t31 5q31 0 56-19.5t30-55.5q5-49-31-73.5t-56-62.5q-5 16-5.5 27t3.5 27q3 20 8 34.5t1 33.5q-5 21-22.5 40.5t-43.5 27.5ZM65.869-65.869v-828.827h828.827v828.827H65.869ZM480-205.087q53 0 89.5-36.5t36.5-89.5q0-24.131-10.5-43.131T569-403.087q-42-26-66.5-65.5t-35.5-69.5q-54 35-84 87t-30 117q0 74.957 38 101.978 38 27.022 89 27.022Zm-334.913 60h88.695v-60h93.739Q307.217-228.826 297-260.413q-10.218-31.588-10.218-73.861 0-46.248 13.283-88.531 13.283-42.282 40.065-80.347 26.783-38.066 66.131-71.761 39.348-33.696 91.478-62.392 13.087 59.653 39.283 99.674 26.196 40.022 68.935 76.891 36.826 30.827 51.543 60.957 14.718 30.131 14.718 68.696 0 37.435-12.152 70.5-12.153 33.065-35.587 55.5h101.739v60h88.695v-669.826H145.087v669.826Zm334.913-60Z"/></svg>