<svg xmlns="http://www.w3.org/2000/svg" width="48" height="48" viewBox="0 96 960 960"><path d="M414 781.913q14 11 29.5 16t30.5 5q32 0 57-20t29-55q5-49-31-73.5t-56-62.5q-5 15-4.5 26t2.5 28q3 20 8 34.5t1 33.5q-5 23-23 41.5t-43 26.5ZM65.869 990.131V161.304h828.827v828.827H65.869Zm79.218-79.218h88.695v-60h93.739Q307.217 827.174 297 795.587q-10.218-31.588-10.218-73.861 0-46.248 13.283-88.531 13.283-42.282 40.065-80.347 26.783-38.066 66.131-71.761 39.348-33.696 91.478-62.392 13.087 59.653 39.283 99.674 26.196 40.022 68.935 76.891 36.826 30.827 51.543 60.957 14.718 30.131 14.718 68.696 0 37.435-12.152 70.5-12.153 33.065-35.587 55.5h101.739v60h88.695V241.087H145.087v669.826Z"/></svg>