<svg xmlns="http://www.w3.org/2000/svg" width="48" height="48" viewBox="0 -960 960 960"><path d="M480-65.869q-87.826 0-163.645-31.678-75.819-31.677-131.475-87.333-55.656-55.656-87.333-131.475Q65.869-392.174 65.869-480q0-87.391 31.678-162.928 31.677-75.536 87.333-131.475 55.656-55.938 131.475-88.116Q392.174-894.696 480-894.696q87.391 0 162.928 32.177 75.536 32.178 131.475 88.116 55.938 55.939 88.116 131.475Q894.696-567.391 894.696-480q0 87.826-32.177 163.645-32.178 75.819-88.116 131.475-55.939 55.656-131.475 87.333Q567.391-65.869 480-65.869ZM294-513.478l56-57 56 57L446.522-554l-57-56 57-56L406-706.522l-56 57-56-57L253.478-666l57 56-57 56L294-513.478Zm185.896 368.391q142.843 0 238.93-95.804Q814.913-336.696 814.913-480q0-71.435-25.399-132.283-25.399-60.848-70.905-106.326L241.391-241.391q45.665 45.506 106.478 70.905 60.813 25.399 132.027 25.399ZM562-258.478 468.478-352 508-392.522l54 54 100-99L701.522-398 562-258.478Z"/></svg>