<svg xmlns="http://www.w3.org/2000/svg" width="48" height="48"><path d="M28 41.8q-.75 0-1.275-.525Q26.2 40.75 26.2 40q0-.75.525-1.275Q27.25 38.2 28 38.2h6.25l-5.05-3.55q-.65-.45-.8-1.175-.15-.725.3-1.325.4-.65 1.125-.8.725-.15 1.325.25l5.15 3.55-2.15-5.85q-.3-.7.075-1.35.375-.65 1.075-.95.75-.3 1.425.025t.925 1.075l2.05 5.85 1.7-6q.15-.75.775-1.1.625-.35 1.375-.15.75.15 1.125.775t.175 1.375l-3.1 11.6q-.15.55-.625.95-.475.4-1.125.4zm10.65-31.3H12.3V6.55h26.35zm-26.35 9v-3.95h26.35v3.95zm0 9v-3.95h14.25q-1.05.75-1.8 1.775t-1.3 2.175zm0 5H22q.05.1.025.25T22 34q0 .9.175 1.775.175.875.475 1.675H12.3zm-3-23H5.35V6.55H9.3zm-3.95 9v-3.95H9.3v3.95zm0 9v-3.95H9.3v3.95zm0 5H9.3v3.95H5.35z"/></svg>