<svg xmlns="http://www.w3.org/2000/svg" width="48" height="48" viewBox="0 -960 960 960"><path d="M80 0v-134.001h800V0H80Zm508.913-487.566-56.304-56.435-56.435-56.304-162.781 162.782 113.304 112.739 162.216-162.782Zm-55.607-170.435 55.869 57.434 57.435 55.87 161.694-161.694-112.739-113.305-162.259 161.695Zm-386.697 418 125.087-124.522-44.217-44.217v-56.132l220.347-220.347 226.567 226.001L454.48-239.305h-57.131l-47.653-48.218-48.087 47.522h-155Zm301.217-445.218L698-935.393l225.436 226.002-249.043 250.173-226.567-226.001Z"/></svg>