<svg xmlns="http://www.w3.org/2000/svg" width="48" height="48" viewBox="0 -960 960 960"><path d="M560-123.782q-15.431 0-25.824-10.36-10.394-10.359-10.394-25.739t10.394-25.858q10.393-10.479 25.824-10.479h124.651l-101.042-71.13q-12.261-8.695-15.327-23.239-3.065-14.543 5.348-26.804t22.957-15.327q14.543-3.065 26.804 5.066l102.608 70.695-43.217-116.782q-5.565-13.826 1.603-27.276 7.168-13.449 21.354-19.203 14.826-5.565 28.652 1.066 13.827 6.63 18.827 20.891l41.217 116.782 33.347-119.217q3.566-14.826 15.827-21.956 12.261-7.131 27.087-3.566 14.826 3.566 22.456 15.827 7.631 12.261 4.066 27.087l-62 232q-3.566 11.695-12.761 19.609-9.196 7.913-22.457 7.913H560Zm-453.001-86.825v-79.784h79.219v79.784h-79.219Zm139.219 0v-79.784H440.26q1.696 22.653 3.392 39.457 1.696 16.805 9.783 40.327H246.218ZM106.999-390.173v-79.218h79.219v79.218h-79.219Zm139.219 0v-79.218H531.13Q510.738-454 495.325-433.413q-15.413 20.587-25.859 43.24H246.218ZM106.999-569.609v-79.783h79.219v79.783h-79.219Zm139.219 0v-79.783h526.783v79.783H246.218Zm-139.219-180v-79.784h79.219v79.784h-79.219Zm139.219 0v-79.784h526.783v79.784H246.218Z"/></svg>