<svg xmlns="http://www.w3.org/2000/svg" width="48" height="48" viewBox="0 0 48 48"><path d="m42 46.4-1.65-1.7H32.4v-3.95h3.95l-4.5-4.55H11.8v-4q0-1.1.525-1.95.525-.85 1.425-1.55 1.6-1.25 3.925-1.925Q20 26.1 21.55 25.95l-14.3-14.3v3.95H3.3V7.7L1.2 5.6l2.35-2.4 40.8 40.85ZM30.25 17.75q0 1.55-.7 2.825-.7 1.275-1.85 2.075l-8.55-8.6q.8-1.1 2.05-1.775 1.25-.675 2.8-.675 2.6 0 4.425 1.8 1.825 1.8 1.825 4.35Zm14.5 14.65v7.25L40.8 35.7v-3.3ZM3.3 44.7V32.4h3.95v8.35h8.35v3.95Zm37.45-29.1V7.25H32.4v-4h12.35V15.6ZM15.6 3.25V7.2h-3.3L8.35 3.25Z"/></svg>