<svg xmlns="http://www.w3.org/2000/svg" width="48" height="48" viewBox="0 -960 960 960"><path d="M183.022-319.26q-65.805 0-110.914-44.795Q27-408.849 27-475q0-66.522 45.11-111.413 45.108-44.892 110.913-44.892 66.804 0 111.413 44.892 44.609 44.891 44.609 111.696 0 65.804-44.609 110.63-44.609 44.827-111.413 44.827Zm-.283-73.001q38.668 0 60.986-22.036 22.318-22.035 22.318-60.703 0-38.668-22.318-60.703-22.318-22.036-60.986-22.036-38.668 0-60.703 22.036Q100-513.668 100-475q0 38.668 22.036 60.703 22.035 22.036 60.703 22.036Zm502.282 159.609q-102.325 0-174.804-72.653-72.478-72.653-72.478-174.728 0-102.076 72.653-174.978 72.653-72.902 174.728-72.902 102.312 0 175.096 72.769 72.785 72.769 72.785 175.011 0 102.242-72.828 174.862-72.827 72.619-175.152 72.619Z"/></svg>