<svg xmlns="http://www.w3.org/2000/svg" width="48" height="48" viewBox="0 -960 960 960"><path d="m540.04-179.96-52.17-52.74q47.61-47.6 74.69-110.93 27.09-63.33 27.09-136.37t-27.09-136.37q-27.08-63.33-74.69-111.5l52.17-52.17q58.44 57.87 91.66 134.52 33.21 76.65 33.21 165.52T631.7-314.48q-33.22 76.65-91.66 134.52Zm-83.3-83.87L404-316q31.17-31.74 49.26-73.85 18.09-42.11 18.09-90.15 0-48.04-18.09-90.15Q435.17-612.26 404-644l52.74-52.74q41.43 42 65.65 97.15 24.22 55.16 24.22 119.59t-24.22 119.59q-24.22 55.15-65.65 96.58Zm-83.87-83.3-52.74-52.74q15.74-15.74 24.33-36.13 8.58-20.39 8.58-44t-8.58-44q-8.59-20.39-24.33-36.13l52.74-52.74q25.43 26 40.43 59.94 15 33.93 15 72.93 0 39-15 72.93-15 33.94-40.43 59.94ZM164.74-152.65v-655.26H240V-550q29 0 49.5 20.5T310-480q0 29-20.5 49.5T240-410v257.35h-75.26Z"/></svg>