<svg xmlns="http://www.w3.org/2000/svg" width="48" height="48" viewBox="0 96 960 960"><path d="M770.566 783.957 480 493.391V266.783L367.044 379.87l-57.131-56.566L480 155.651 715.609 387.26q47.696 46.131 73.392 110.74 25.695 64.609 25.695 124.565 0 43.696-12.565 88.044t-31.565 73.348Zm44.478 234.133L681.087 884.131q-44.435 32.87-94.782 49.435Q535.957 950.131 480 950.131q-137.652 0-235.892-95.457-98.239-95.456-98.239-233.109 0-52.13 16.282-103.109 16.283-50.978 53.718-99.543L38.912 241.956l47.522-47.522 776.132 776.132-47.522 47.524ZM480 870.913V682.044L274.13 475.609q-28.304 35.87-38.673 73.326-10.37 37.456-10.37 72.63 0 104.739 75.087 177.044Q375.261 870.913 480 870.913Z"/></svg>