<svg xmlns="http://www.w3.org/2000/svg" width="48" height="48" viewBox="0 -960 960 960"><path d="M227.76-427.76q-21.98-21.98-21.98-52.24t21.98-52.24q21.98-21.98 52.24-21.98t52.24 21.98q21.98 21.98 21.98 52.24t-21.98 52.24q-21.98 21.98-52.24 21.98t-52.24-21.98ZM280-227q-105.09 0-179.04-73.96Q27-374.91 27-480q0-105.09 73.96-179.04Q174.91-733 280-733q76.52 0 133.91 36.26t88.39 107.52h353.74L975.83-470 799.78-307.96l-88.56-65.13-87.44 63.44-77.26-61.13H502.3q-25 61.69-81.89 102.74Q363.52-227 280-227Zm0-73q59.7 0 108.98-39.91 49.28-39.92 62.15-103.31h121.35l51.74 43.31 88-63 82 60.87 78.21-68.26-45.91-46.48H451.13q-10.3-58.26-59.15-100.74Q343.13-660 280-660q-75 0-127.5 52.5T100-480q0 75 52.5 127.5T280-300Z"/></svg>