<svg xmlns="http://www.w3.org/2000/svg" width="48" height="48" viewBox="0 -960 960 960"><path d="M140-260v-440 440Zm-79.218 79.218v-599.002h839.002v356.958q-17.392-14.522-37.365-26.357-19.973-11.835-42.419-18.078V-700H140v440h343.739q-2.13 10.261-2.413 19.756-.283 9.495-.283 19.804 0 10.31.283 20.136.283 9.827 2.413 19.522H60.782ZM300-385v60h202.435q7-17 16.848-31.5Q529.13-371 540.13-385H300Zm-97-125v60h60v-60h-60Zm124 0v60h60v-60h-60Zm123 0v60h60v-60h-60Zm124 0v60h44.826q3.87-1.435 7.812-3.68l7.362-4.19V-510h-60Zm123 0v33.565q10.13-2 20.693-2.782 10.562-.783 21.959-.783 4.305 0 8.892-.283 4.586-.282 8.456.153V-510h-60ZM203-635v60h60v-60h-60Zm124 0v60h60v-60h-60Zm123 0v60h60v-60h-60Zm124 0v60h60v-60h-60Zm123 0v60h60v-60h-60Zm42.652 574.74-55.565-56.131 63.39-64.391H580.043V-260h167.434l-63.39-64.391 55.565-56.131 160.132 160.131L739.652-60.26Z"/></svg>