<svg xmlns="http://www.w3.org/2000/svg" width="48" height="48" viewBox="0 -960 960 960"><path d="M312.65-300v-71.3h115.09q-6.7 16.82-9.26 34.65-2.57 17.82-3.57 36.65H312.65Zm5.65 234.13q-88.65 0-150.54-62.46-61.89-62.45-61.89-151.67v-345.87h-81.7V-894.7H613v268.83h-81.7v121.17q-15.78 8.7-28.58 20.44-12.81 11.74-23.07 25.96h-167v-71.31h143.39v-94.56H181.13V-280q0 57.43 39.87 98.15 39.87 40.72 97.3 40.72 34.87 0 64.53-16.15 29.65-16.15 48.08-43.02 7.13 19.39 16.89 36.5 9.77 17.1 23.16 33.37-29.13 30.56-68.33 47.56-39.2 17-84.33 17Zm427.44-152.91q29.17-29.18 29.17-71.22t-29.17-71.22q-29.17-29.17-71.22-29.17-42.04 0-70.93 29.17Q574.7-332.04 574.7-290t28.89 71.22q28.89 29.17 70.93 29.17 42.05 0 71.22-29.17ZM878.52-29.87 769.83-138.56q-22 13.86-45.66 21.02-23.65 7.15-49.65 7.15-74.95 0-127.28-52.33-52.33-52.32-52.33-127.28 0-74.96 52.33-127.28 52.33-52.33 127.56-52.33 75.24 0 127.57 52.33Q854.7-364.96 854.7-290q0 25.43-7.44 49.37-7.43 23.93-21.3 45.93L934.65-86l-56.13 56.13Z"/></svg>