<svg xmlns="http://www.w3.org/2000/svg" width="48" height="48" viewBox="0 -960 960 960"><path d="M360-110.434 303.434-166l64.956-64.956h-30.174q-114.304-4.522-191.065-89.066Q70.391-404.565 70.391-520q0-119.957 83.326-204.783T357-809.609h246q119.957 0 203.283 84.826T889.609-520q0 120.391-82.63 205-82.631 84.609-201.892 84.609v-79.218q86.348 0 145.826-61.457Q810.391-432.522 810.391-520q0-87.609-59.674-149Q691.043-730.391 604-730.391H356q-87.043 0-146.717 61.391-59.674 61.391-59.674 149 0 81.391 52.761 141.086 52.76 59.696 133.02 63.652h27.217L303.869-374 360-430.131l160.131 159.566L360-110.434Z"/></svg>