<svg xmlns="http://www.w3.org/2000/svg" width="48" height="48"><path d="m35.1 30-2.95-2.95q1.45-2.25 2.275-4.15.825-1.9.825-4.4 0-4.8-3.225-8.025Q28.8 7.25 24 7.25q-2.5 0-4.625.95T15.8 10.7l-2.75-2.8Q15 5.8 17.875 4.525T24 3.25q6.4 0 10.825 4.425Q39.25 12.1 39.25 18.5q0 3.15-1.175 6.075Q36.9 27.5 35.1 30zm-7.75-7.8q.65-.55 1.15-1.525.5-.975.5-2.175 0-2.1-1.45-3.55Q26.1 13.5 24 13.5q-1.2 0-2.125.475T20.3 15.15zm14.2 23.7L31.1 35.45q-1.2 1.6-2.5 3.6t-2.15 3.85q-.4.75-1 1.275-.6.525-1.45.525t-1.45-.525q-.6-.525-1-1.275-1.25-2.6-3.35-5.375t-3.8-5.075q-3.65-4.7-4.625-8.075Q8.8 21 8.8 18.5q0-1.3.175-2.45.175-1.15.525-2.2l-7.9-7.9L4 3.6l39.9 39.9zM24 38.8q.8-1.45 1.85-3.05 1.05-1.6 2.35-3.2L13.25 17.6q-.35 2 .25 4.675t4.45 7.775q2.35 3.1 3.775 5.125Q23.15 37.2 24 38.8zm-2.75-13.15zm2.4-7.05z"/></svg>