<svg xmlns="http://www.w3.org/2000/svg" width="48" height="48" viewBox="0 96 960 960"><path d="M142.826 1000.31q-32.74 0-56.262-23.526-23.521-23.522-23.521-56.262V430.696q0-32.507 23.521-55.862 23.522-23.356 56.262-23.356h132.956L371 244.695h72.217q-5.826 18.957-8.957 40.246-3.13 21.288-3.13 40.682 0 24.764 5.348 52.006 5.348 27.241 17.478 53.067h-311.13v489.826h669.826V660.393q16.4-16.657 37.914-38.327 21.515-21.671 41.304-45.326v343.782q0 32.74-23.652 56.262-23.653 23.526-55.566 23.526H142.826Zm324.913-139.701q63.174 0 123.543-44.239 60.37-44.239 55.5-139.543-18-16.435-39.434-35.37-21.435-18.934-41.435-38.934 13 16.434 18.5 36.717 5.5 20.283 5.5 44.283-2.261 49.739-38.268 83.412-36.006 33.674-83.94 33.674-53.031 0-88.999-36.25-35.967-36.25-35.967-88.919 0-49.901 34.804-85.953 34.805-36.052 81.717-37.747 29 0 54 11.282 25 11.283 47 32.718-20.565-26.131-38.5-50.5-17.934-24.37-35.204-50.37-91.643-3.435-147.73 46.824-56.087 50.259-56.087 133.915 0 79 52.717 132 52.718 53 132.283 53ZM720 660.61q115.057-97.339 171.963-181.238 56.907-83.899 56.907-155.029 0-108.343-68.932-171.452-68.933-63.109-159.979-63.109t-159.938 63.109Q491.13 216 491.13 324.343q0 71.13 56.907 155.029Q604.943 563.271 720 660.61Zm0-96.088q-101.485-95.619-128.677-153.879-27.193-58.26-27.193-86.258 0-78.703 49.718-120.435 49.717-41.732 106.435-41.732 56.717 0 106.152 41.483 49.435 41.484 49.435 120.546 0 27.84-27.193 86.181Q821.485 468.77 720 564.522Zm-59-151.304 22-73-60-49h73l24-72 24 72h73l-60 49 23 73-60-45-59 45ZM477.739 675.609ZM720 340.218Z"/></svg>