<svg xmlns="http://www.w3.org/2000/svg" width="48" height="48" viewBox="0 96 960 960"><path d="M766.001 815.479q27.916 0 47.458-19.559 19.542-19.559 19.542-47.5t-19.559-46.941q-19.559-19-47.5-19t-46.941 19.25q-19 19.25-19 46.75 0 27.916 19.25 47.458 19.25 19.542 46.75 19.542Zm0 133q35 0 63-15.5t46-42.5q-25-14-52-22.5t-57-8.5q-30 0-57 8.5t-52 22.5q18 27 46.282 42.5 28.283 15.5 62.718 15.5ZM359.609 406.173h234.564v-80.564q0-53.044-33.834-87.087-33.834-34.043-83.597-34.043-49.528 0-83.33 34.043-33.803 34.043-33.803 87.087v80.564ZM142.477 989.001V406.173h137.914v-80.564q0-86.28 56.56-143.597 56.56-57.317 139.522-57.317 82.962 0 139.94 57.696 56.978 57.696 56.978 143.218v80.564h137.914v170.175q-16.957-3.565-37.175-3.717-20.217-.152-42.609 2.109v-88.783h-509.26v423.825h308.348q6.435 20.957 16.696 40.675 10.261 19.717 26.087 38.544H142.477Zm623.524 29.479q-79 0-136-57.001-57-57-57-136t57-136q57-57 136-57t136 57q57 57 57 136t-57 136q-57 57.001-136 57.001Zm-543.74-532.523v423.825-423.825Z"/></svg>