<svg xmlns="http://www.w3.org/2000/svg" width="48" height="48" viewBox="0 -960 960 960"><path d="M443.782-274.609h72.436v-165.173h165.173v-72.436H516.218v-165.173h-72.436v165.173H278.609v72.436h165.173v165.173Zm36.399 208.74q-85.836 0-161.402-32.507-75.566-32.508-131.718-88.639-56.152-56.131-88.672-131.63-32.52-75.499-32.52-161.34 0-85.841 32.63-161.385 32.631-75.543 88.609-131.522 55.979-55.978 131.516-88.891 75.538-32.913 161.423-32.913t161.376 32.913q75.49 32.913 131.469 88.891 55.978 55.979 88.891 131.537 32.913 75.558 32.913 161.467v414.02H480.181Z"/></svg>