<svg xmlns="http://www.w3.org/2000/svg" width="48" height="48" viewBox="0 -960 960 960"><path d="M184.173-104.173v-632.219h162.826v-163.392h266.002v163.392h163.391v632.219h-79.595q0 20.886-14.536 35.53-14.536 14.644-35.262 14.644-20.956 0-35.283-14.644-14.326-14.644-14.326-35.53H363.175q0 20.957-14.644 35.566Q333.887-54 313.001-54q-20.646 0-35.128-14.644t-14.482-35.53h-79.218Zm222.045-632.219h147.564V-840H406.218v103.608ZM263.391-183.391h433.218v-473.218H263.391v473.218Zm63.218-53.218h53v-366.782h-53v366.782Zm127.173 0h52.436v-366.782h-52.436v366.782Zm126.609 0h53v-366.782h-53v366.782Zm-317 53.218v-473.218 473.218Z"/></svg>