<svg xmlns="http://www.w3.org/2000/svg" width="48" height="48" viewBox="0 -960 960 960"><path d="M65.87-99.09v-219.08H894.7v219.08H65.87ZM417.24-405.7q-21.76 22-76.33 22-54.56 0-74.32-22-19.76-22-60.76-22t-63.2 22q-22.2 22-76.76 22v-75.26q33 0 59.19-22 26.2-22 80.77-22 54.56 0 74.32 22 19.76 22 60.76 22t62.76-22q21.76-22 76.33-22 54.57 0 76.33 22 21.76 22 63.04 22t60.76-22q19.48-22 74.33-22 54.84 0 80.76 22 25.91 22 59.48 22v75.26q-54.57 0-76.48-22-21.92-22-63.2-22t-61.04 22q-19.76 22-74.61 22-54.85 0-76.61-22-21.76-22-62.76-22t-62.76 22ZM65.87-566.48v-50.74q0-103.91 110.93-173.52 110.94-69.61 303.2-69.61 192.83 0 303.76 69.61Q894.7-721.13 894.7-617.22v50.74H65.87Z"/></svg>