<svg xmlns="http://www.w3.org/2000/svg" width="48" height="48" viewBox="0 -960 960 960"><path d="M820.697-259.565 685.566-394.696q40.261-22.434 85.587-33.869Q816.479-440 866.001-440q0 48.957-11.717 94.566-11.717 45.608-33.587 85.869Zm66.652 161.13-46.957 46.958L737.479-154.39q-52.391 46.696-117.978 73.543Q553.913-53.999 480-53.999q0-74.478 26.565-140.066 26.565-65.587 73.261-117.978l-64.043-63.478q-7.565 2-15.696 3-8.13 1-16.13 1-40.392 1.13-73.066-21.783t-47.239-61.305q-6.565 0-13.348.5t-13.348.5q-51.391 0-87.652-36.261-36.261-36.26-36.261-87.652 0-20.261 6.847-38.739 6.848-18.479 18.979-35.174L67.477-823.392l46.957-46.957L887.349-98.434ZM480-948.261q39.826 0 71.087 22.913 31.261 22.913 45.826 60.174 6 0 12.783-.5 6.783-.5 13.348-.5 51.391 0 87.152 36.261t35.761 88.218q0 22.13-8.565 43.043t-23.13 39.044q14.565 18.13 23.13 38.761 8.565 20.63 8.565 43.326 0 49.131-32.934 84.544-32.935 35.413-81.5 38.239h-6L494.13-585.131q26.74-4.435 44.609-25.804 17.87-21.37 17.87-48.674 0-32.304-22.153-54.457-22.152-22.152-54.456-22.152-27.304 0-48.674 17.87-21.369 17.869-25.804 44.043L250.391-828.871q21.13-22.435 51.413-29.804 30.283-7.37 61.848-6.5 14-37.261 45.261-60.174 31.261-22.913 71.087-22.913Zm0 894.263q0-79.609-30.565-149.979-30.565-70.37-83.109-122.631-52.544-52.261-122.631-82.826Q173.608-440 93.999-440q0 79.609 30.565 149.696 30.565 70.088 83.109 122.631 52.543 52.544 122.631 83.11Q400.391-54 480-54Z"/></svg>