<svg xmlns="http://www.w3.org/2000/svg" width="48" height="48" viewBox="0 96 960 960"><path d="M204.826 750.913h610.087V416.044q23.011-5.565 42.984-17.457 19.973-11.891 36.799-28.544v380.87q0 31.507-24.021 55.362-24.022 23.856-55.762 23.856H225.869l-160 160V241.087q0-31.74 23.356-55.762 23.355-24.021 55.862-24.021h434.174q-7.957 18.522-11.652 39.109-3.696 20.587-1.566 40.674H145.087v569.564l59.739-59.738Zm-59.739-509.826v509.826-509.826Zm614.928 104.392q-47.711 0-80.841-33.417-33.131-33.418-33.131-81.156 0-47.08 33.282-80.493Q712.606 117 760.151 117q47.545 0 80.958 33.464 33.413 33.465 33.413 80.827 0 47.361-33.398 80.775-33.398 33.413-81.109 33.413Z"/></svg>