<svg xmlns="http://www.w3.org/2000/svg" width="48" height="48" viewBox="0 -960 960 960"><path d="M814.478-54.478 618.304-249.652 567.218-196l-33.261-33.826 51.086-53.087-155.434-154.869v177.391q0 66.392-46.326 111.305Q336.957-104.173 270-104.173t-113.283-46.326q-46.326-46.327-46.326-113.283 0-66.957 46.326-113.283 46.326-46.326 114.413-46.326 20.913 0 43.218 6.586 22.304 6.587 36.043 18.326v-119.086L64.478-802.478 112-850l749 749-46.522 46.522Zm6.87-179.783L538.391-518.218l28.827-28.826 119 118.435v-193.739h23.261L851.74-479.522l-108 107.435 108 108-30.392 29.826Zm-91.739-185.348 60.478-59.913-60.478-61.608v121.521Zm-300-196.782-79.218-79.218v-160.783h263.393v154.783H429.609v85.218Z"/></svg>