<svg xmlns="http://www.w3.org/2000/svg" width="48" height="48" viewBox="0 -960 960 960"><path d="M185.87-25.87V-934.7h586.26v217.35h42.57v184.31h-42.57v151.78H411.26v355.39H185.87Zm428.96-17.04L470.69-185.48l144.14-142.56 55.56 55.56-86.43 87 86.43 87-55.56 55.57Zm174.17 0-55.57-55.57 86.44-87-86.44-87L789-328.04l144.13 142.56L789-42.91ZM502.54-718.54q9.85-9.85 9.85-23.55 0-13.69-9.85-23.54-9.84-9.85-23.54-9.85t-23.54 9.85q-9.85 9.85-9.85 23.54 0 13.7 9.85 23.55 9.84 9.84 23.54 9.84t23.54-9.84Z"/></svg>