<svg xmlns="http://www.w3.org/2000/svg" width="48" height="48" viewBox="0 -960 960 960"><path d="M244.87-144.52v-670.96 670.96ZM667.35-25.87q-24.7 0-47.33-9t-37.63-29.26L382-315.52l63.7-65.7 187 60.74v-346.13h79.21l169.35 169.35v316.3q0 65.46-45.19 110.28-45.2 44.81-110.46 44.81h-58.26Zm-501.13-40V-894.7h545.69v228.09H632.7v-148.87H244.87v670.96h273.91l62.31 78.65H166.22Zm296.61-614.77q9.35-9.69 9.35-24.04 0-14.36-9.35-23.71-9.35-9.35-23.71-9.35-14.36 0-24.04 9.35-9.69 9.35-9.69 23.71 0 14.35 9.69 24.04 9.68 9.68 24.04 9.68t23.71-9.68ZM668.91-96.61h56.7q35.87 0 60.11-25.01 24.24-25.01 24.24-59.34v-282.39L709.09-564.78h-.57v354.17L498.83-288l134.83 175.54q6.08 7.98 15.71 11.92 9.63 3.93 19.54 3.93Z"/></svg>