<svg xmlns="http://www.w3.org/2000/svg" width="48" height="48" viewBox="0 0 48 48"><path d="M7.6 28q0 4.8 2.45 8.675Q12.5 40.55 16.5 42.6q-1.25-1.35-1.9-3.05-.65-1.7-.65-3.6 0-2 .75-3.775t2.25-3.225L24 22l7.15 6.95q1.45 1.45 2.175 3.225.725 1.775.725 3.775 0 1.9-.65 3.6-.65 1.7-1.9 3.05 4-2 6.45-5.9 2.45-3.9 2.45-8.7 0-4.55-2.325-8.45-2.325-3.9-6.175-6.1l-1.1 1.35q-.6.75-1.3 1.075-.7.325-1.45.325-1.4 0-2.525-.975T24.4 12.6V5.3l-2.625 1.55Q19.15 8.4 16 11.325q-3.15 2.925-5.775 7.125Q7.6 22.65 7.6 28Zm16.4-.45-4.3 4.25q-.9.85-1.35 1.9-.45 1.05-.45 2.25 0 2.5 1.8 4.25t4.3 1.75q2.55 0 4.325-1.75 1.775-1.75 1.775-4.25 0-1.2-.475-2.25T28.3 31.8Z"/></svg>