<svg xmlns="http://www.w3.org/2000/svg" width="48" height="48" viewBox="0 -960 960 960"><path d="M573.043-621.87q-14-32.304-39.152-50.173-25.152-17.87-59.456-17.87-28.174 0-49.63 9.652-21.457 9.652-36.761 26.826l-55.566-55.566q21-24 47.37-37.717 26.369-13.717 57.934-18.283v-88h72.436v87.566q40.304 2.173 79.326 32.478 39.022 30.305 59.022 78.87l-75.523 32.217ZM804.87-48.652 618.522-234.434q-22 19.869-49.652 29.587-27.652 9.717-58.652 12.282v85.566h-72.436v-86.566q-54.739-6.304-96.695-47.478-41.957-41.174-58.522-97.435l76.392-26.652q14 49.869 44.652 73.456 30.652 23.587 76.391 23.587 22.609 0 44.565-5.652 21.956-5.652 34.695-19.391L49.652-803.87l46.957-47.521L852.39-95.609l-47.52 46.957Z"/></svg>