<svg xmlns="http://www.w3.org/2000/svg" width="48" height="48" viewBox="0 -960 960 960"><path d="M720.391-30.39v-130.001h-130v-79.218h130v-130h79.218v130h130v79.218h-130v130h-79.218ZM185.087-185.088v-589.826 589.826Zm-79.218 79.218v-748.827h748.827v426.087h-79.783v-346.304H185.087v589.826h346.304v79.219H105.869Zm374.013-378.044q49.118 0 83.618-34.382 34.5-34.382 34.5-83.5t-34.382-83.618q-34.383-34.5-83.5-34.5-49.118 0-83.618 34.383-34.5 34.382-34.5 83.5 0 49.117 34.382 83.617 34.383 34.5 83.5 34.5Zm-82.882-98v-40h40v40h-40Zm63 0v-40h40v40h-40Zm63 0v-40h40v40h-40Z"/></svg>