<svg xmlns="http://www.w3.org/2000/svg" width="48" height="48" viewBox="0 -960 960 960"><path d="M480.532-263.609q73.097 0 122.978-49.714 49.881-49.715 49.881-123.544 0-74.263-49.881-123.894-49.881-49.63-122.978-49.63-74.662 0-124.293 49.497-49.63 49.498-49.63 123.761 0 73.829 49.63 123.677 49.631 49.847 124.293 49.847Zm.089-71.304q-44.553 0-73.63-29.239-29.078-29.239-29.078-72.848 0-44.609 29.078-73.63 29.077-29.022 73.63-29.022 43.553 0 72.792 29.022 29.239 29.021 29.239 73.63 0 43.609-29.239 72.848-29.239 29.239-72.792 29.239ZM65.869-105.869v-661.827h213.783l78.652-87h243.392l79.217 87h213.783v661.827H65.869Zm414.696-79.218h334.348v-502.826H646.13l-77.521-87h-88.044v589.826Z"/></svg>