<svg xmlns="http://www.w3.org/2000/svg" width="48" height="48" viewBox="0 -960 960 960"><path d="M370.235-433.913q20.008 0 33.169-13.27 13.161-13.27 13.161-32.886 0-19.617-13.238-32.818-13.239-13.2-32.809-13.2-20.291 0-33.492 13.27-13.2 13.27-13.2 32.886 0 19.617 13.2 32.818 13.201 13.2 33.209 13.2Zm156.16 0q20.291 0 33.492-13.27 13.2-13.27 13.2-32.886 0-19.617-13.2-32.818-13.201-13.2-33.209-13.2-20.009 0-33.17 13.27-13.16 13.27-13.16 32.886 0 19.617 13.238 32.818 13.239 13.2 32.809 13.2Zm156.805 0q20.008 0 33.209-13.27 13.2-13.27 13.2-32.886 0-19.617-13.239-32.818-13.238-13.2-32.808-13.2-20.291 0-33.209 13.27-12.918 13.27-12.918 32.886 0 19.617 12.878 32.818 12.878 13.2 32.887 13.2ZM312.348-185.869 104.173-480l208.175-294.696h544.044v588.827H312.348Zm41.174-79.218h423.087v-429.826H353.522L202.913-480l150.609 214.913Zm423.087 0v-429.826 429.826Z"/></svg>