<svg xmlns="http://www.w3.org/2000/svg" width="48" height="48" viewBox="0 -960 960 960"><path d="M443.782-28.434v-75q-138.13-14.565-232.239-108.674-94.109-94.109-108.109-231.674h-75v-72.436h75q14.565-138.13 108.674-232.239 94.109-94.109 231.674-108.109v-75h72.436v75q137.565 14 231.674 108.109 94.109 94.109 108.674 232.239h75v72.436h-75q-14 137.565-108.109 231.674-94.109 94.109-232.239 108.674v75h-72.436Zm36.121-152.653q123.401 0 211.206-87.707 87.804-87.708 87.804-211.109 0-123.401-87.707-211.206-87.708-87.804-211.109-87.804-123.401 0-211.206 87.707-87.804 87.708-87.804 211.109 0 123.401 87.707 211.206 87.708 87.804 211.109 87.804ZM480-330q-63 0-106.5-43.5T330-480q0-63 43.5-106.5T480-630q63 0 106.5 43.5T630-480q0 63-43.5 106.5T480-330Zm-.205-73.001q32.553 0 54.878-22.12 22.326-22.121 22.326-54.674t-22.12-54.878q-22.121-22.326-54.674-22.326t-54.878 22.12q-22.326 22.121-22.326 54.674t22.12 54.878q22.121 22.326 54.674 22.326ZM480-480Z"/></svg>