<svg xmlns="http://www.w3.org/2000/svg" width="48" height="48" viewBox="0 -960 960 960"><path d="m744.305-309.913-67.566-67.566L780.26-481 474.609-786.652 370.522-683.13l-67.566-68.566 172.087-172.088L915.392-481 744.305-309.913ZM476.174-38.651 32.694-482.565l174.653-174.087-157.26-158.261L96.608-862l764 764-47.653 46.522L649.13-215.304 476.174-38.651Zm-1.565-136.697L580.565-281.87l-41.609-41.608L474.609-258 251.043-481.565l64.913-64.348-41.608-41.608-105.957 105.956 306.218 306.217ZM635.13-418.522l-223-223L474.609-704l223 223-62.479 62.478Z"/></svg>