<svg xmlns="http://www.w3.org/2000/svg" width="48" height="48" viewBox="0 96 960 960"><path d="M480.106 875.609q82.882 0 141.192-58.385Q679.609 758.838 679.609 676V476q0-82.838-58.416-141.224-58.417-58.385-141.299-58.385t-141.192 58.385Q280.391 393.162 280.391 476v200q0 82.838 58.416 141.224 58.417 58.385 141.299 58.385Zm.012-79.218q-50.444 0-85.476-34.949-35.033-34.949-35.033-85.442V476q0-50.493 34.915-85.442 34.915-34.949 85.358-34.949 50.444 0 85.476 34.949 35.033 34.949 35.033 85.442v200q0 50.493-34.915 85.442-34.915 34.949-85.358 34.949Zm.057-320.782q12.825 0 21.325-8.675 8.5-8.676 8.5-21.5 0-12.825-8.675-21.325-8.676-8.5-21.5-8.5-12.825 0-21.325 8.676-8.5 8.675-8.5 21.5 0 12.824 8.675 21.324 8.676 8.5 21.5 8.5ZM185.087 1030.13q-33.257 0-56.237-22.98-22.981-22.98-22.981-56.237V201.087q0-33.49 22.981-56.637 22.98-23.146 56.237-23.146h589.826q33.49 0 56.637 23.146 23.146 23.147 23.146 56.637v749.826q0 33.257-23.146 56.237-23.147 22.98-56.637 22.98H185.087Zm0-79.217h589.826V201.087H185.087v749.826Zm0 0V201.087v749.826Z"/></svg>