<svg xmlns="http://www.w3.org/2000/svg" width="48" height="48" viewBox="0 -960 960 960"><path d="M159.478-237.564q-34.913 0-59.174-24.575-24.26-24.575-24.26-58.904v-338.504q0-34.802 24.305-59.345 24.305-24.544 59.217-24.544 34.347 0 58.891 24.044 24.544 24.043 24.544 58.435 34.13-56.348 92.816-90.956 58.686-34.609 129.27-34.609 53.2 0 101.231 20.065 48.03 20.066 85.659 57.694L884.305-477 511.087-104.348 278.261-335.174q-11.255-10.42-19.888-22.34-8.633-11.92-15.372-24.963v61.434q0 34.329-24.588 58.904-24.588 24.575-58.935 24.575Zm124.088-285.314q0 35.617 13.919 69.437 13.918 33.821 39.865 59.269L511.087-219.87 767.217-477 593.48-651.302q-25.937-25.382-59.04-39.301-33.103-13.918-68.831-13.918-76.13 0-129.087 52.873-52.956 52.873-52.956 128.77Zm241.825 60.182Z"/></svg>