<svg xmlns="http://www.w3.org/2000/svg" width="48" height="48" viewBox="0 96 960 960"><path d="m142.956 944.479 32.565-377.044q5.458-79.367 47.838-142.988 42.38-63.621 108.337-99.752V496q0 62.668 42.818 105.486Q417.332 644.304 480 644.304q62.106 0 105.205-42.818T628.304 496V324.695q65.957 36.131 108.337 99.752 42.38 63.621 47.838 142.988l32.13 377.044H142.956ZM480 584.304q-37.668 0-62.986-25.318-25.318-25.318-25.318-62.986V336q0-37.435 25.318-62.87 25.318-25.434 62.986-25.434 37.668 0 62.986 25.318 25.318 25.318 25.318 62.986v160q0 37.435-25.318 62.87-25.318 25.434-62.986 25.434Z"/></svg>