<svg xmlns="http://www.w3.org/2000/svg" width="48" height="48" viewBox="0 -960 960 960"><path d="M723-303.87h84v-39q0-17-12.5-29.5t-29.5-12.5q-17 0-29.5 12.5t-12.5 29.5v39ZM480-87.22 0-600q97.43-95.7 220.15-151.52Q342.87-807.35 480-807.35q137.13 0 259.85 55.83Q862.57-695.7 960-600L839.48-471.56q-17.87-6.87-36.76-10.09-18.9-3.22-37.72-3.22-91 0-155 64t-64 155q0 22.83 4.41 45.59 4.42 22.76 14.11 43.46L480-87.22Zm162-18.65v-198h41v-39q0-33.43 24-57.72 24-24.28 58-24.28t58 24.28q24 24.29 24 57.72v39h41v198H642ZM165.05-532.78q67.65-53.78 147.6-84.68 79.96-30.89 167.35-30.89t167.35 30.89q79.95 30.9 147.6 84.68l52.74-57.83q-80.47-61.48-173.46-99.22-93-37.73-194.22-37.73-101.23 0-194.23 37.73-93 37.74-172.91 99.22l52.18 57.83Z"/></svg>