<svg xmlns="http://www.w3.org/2000/svg" width="48" height="48" viewBox="0 -960 960 960"><path d="m839.783-31.956-73.565-73v31.174h-53.217v-84.956L23.739-848l47.522-47.522L887.305-79.478l-47.522 47.522Zm-53.782-242.739-71.87-72.435v-54h-54l-62.13-61.566V-705q0-82.391 51.956-131.805 51.957-49.413 136.044-49.413v611.523ZM489.784-576.304l-73.566-67.609v-242.305h73.566v309.914ZM351.218-708.913l-72.436-73.566v-103.739h72.436v177.305ZM213.782-847.479l-39.869-38.739h39.869v38.739Zm65 773.697v-366.87q-54.826-10.435-96.413-56.174-41.587-45.739-41.587-109.392v-219.783l73 73v146.783h65v-81.783L345-621.218v15h15l97.435 96.87q-19.826 27.131-47.239 45.196-27.413 18.065-58.978 23.5v366.87h-72.436Z"/></svg>