<svg xmlns="http://www.w3.org/2000/svg" width="48" height="48" viewBox="0 96 960 960"><path d="M874.522 1022.87 770.435 918.348q-15.772 9.87-35.473 15.522-19.701 5.652-40.44 5.652-63.233 0-106.899-43.652-43.666-43.652-43.666-106.866 0-63.213 43.735-106.63 43.735-43.417 107.065-43.417 62.765 0 106.265 43.5t43.5 106.5q0 22.913-6.152 42.978t-18.022 37.5L923.87 972.957l-49.348 49.913ZM694.647 868.782q33.621 0 56.378-23.048 22.757-23.048 22.757-56.902 0-33.622-22.943-56.379-22.944-22.757-56.652-22.757t-56.599 22.944q-22.892 22.944-22.892 56.652t23.048 56.599q23.048 22.891 56.903 22.891ZM100.782 985.609V724.13q0-46.942 32.424-79.602 32.423-32.659 79.837-32.659h99.783q67.982 0 89.947-23.108 21.965-23.109 21.965-58.63 0-34.402-18.637-54.462-18.638-20.06-45.319-20.06-25 0-42.5-17.5t-17.5-42.5V166.391h279.002v90q113.695 3.957 196.847 86.631 83.153 82.674 83.153 196.935v91.392q-32.566-34.914-75.088-53.653-42.522-18.739-90.174-18.739-95.435 0-161.87 65.304-66.434 65.304-68.695 159.609-.566 21.087 2.848 41.391 3.413 20.305 10.804 38.827h-64.783q-14.217 0-23.63 9.625-9.412 9.624-9.412 23.417v88.479H100.782Z"/></svg>