<svg xmlns="http://www.w3.org/2000/svg" width="48" height="48" viewBox="0 96 960 960"><path d="M698.913 932.262 844.13 788.044l-48.217-47.653-97 95-39-39-47.653 48.653 86.653 87.218ZM245.087 442.218h469.826v-60H245.087v60Zm482.326 581.822q-77.5 0-132.5-55.213-55-55.218-55-131.783 0-77.87 54.99-133.435t133.01-55.565q77 0 132.5 55.565t55.5 133.435q0 76.565-55.5 131.783-55.5 55.213-133 55.213Zm-621.544-25.865V202.999h748.827v420.35q-28.956-16.653-60.283-25.479-31.326-8.826-63.935-8.826V547.13H245.087v60h383.435q-36.627 17.048-65.379 44.046-28.752 26.998-47.882 60.867H245.087v60h244.087q-4.696 16.392-6.761 33.066-2.065 16.674-2.065 34.631 0 32.391 8.478 63.935 8.478 31.543 26.435 59.239L480 998.175l-62.261-62.182-62.826 62.182-62.261-62.182-63.392 62.182-62.261-62.182-61.13 62.182Z"/></svg>