<svg xmlns="http://www.w3.org/2000/svg" width="48" height="48" viewBox="0 -960 960 960"><path d="M363.782-316.609H430v-326.782h-66.218v326.782Zm166.218 0h66.218v-326.782H530v326.782Zm-49.922 250.74q-85.469 0-161.006-32.395-75.536-32.395-131.975-88.833-56.438-56.439-88.833-131.897-32.395-75.459-32.395-160.928 0-86.469 32.395-162.006 32.395-75.536 88.745-131.504 56.349-55.968 131.849-88.616 75.5-32.648 161.017-32.648 86.516 0 162.12 32.604 75.603 32.604 131.529 88.497t88.549 131.452Q894.696-566.584 894.696-480q0 85.547-32.648 161.075-32.648 75.527-88.616 131.896-55.968 56.37-131.426 88.765-75.459 32.395-161.928 32.395Z"/></svg>