<svg xmlns="http://www.w3.org/2000/svg" width="48" height="48" viewBox="0 -960 960 960"><path d="M486.391-483.478v-393.959h372.262v280.828H604.522L486.391-483.478Zm304.652 376.479q-124.826.565-248.152-60.066-123.326-60.63-221.305-158.891-97.978-98.261-159.109-222.087-61.13-123.827-61.13-248.087 0-13.827 1.282-29.783 1.283-15.957 3.848-28.783h242.524l46.783 208.218-128.871 121.957q52.609 85.086 115.609 147.586 62.999 62.5 141.955 105.978l127.175-130.044 197.957 46.217v243.089q-12.826 1.565-29.065 3.13-16.24 1.566-29.501 1.566Z"/></svg>