<svg xmlns="http://www.w3.org/2000/svg" width="48" height="48" viewBox="0 -960 960 960"><path d="M65.87-23.04V-98.3H894.7v75.26H65.87ZM145.3-158.3v-220.74q-42.39-96.09-57.95-152.59-15.57-56.5-15.57-111.81 0-54.04 13.94-121.43 13.93-67.39 41.63-128.91 11.13-23.7 29.32-36.9 18.2-13.19 41.03-13.19 27.56 0 42.13 18.91 14.56 18.92 16.26 56.18l4.52 140.61q2.26 42.87 20.39 80.45 18.13 37.59 47.91 65.18 29.79 27.58 68.5 43.23 38.72 15.66 82.59 15.66 85.52 0 145.24 10.87 59.72 10.87 99.15 32.74 45.65 24.69 67.7 64.71 22.04 40.03 22.04 93.68v163.35H395.09v-49.44q0-39.7 27.41-67.76 27.41-28.07 67.11-28.07h126.82v-66.78H489.61q-67.52 0-114.41 47.54-46.9 47.55-46.9 115.07v49.44h-183Zm216.33-469.33q-48.98-48.98-48.98-118.65 0-69.68 48.98-118.66 48.98-48.97 118.37-48.97 69.39 0 118.65 48.97 49.26 48.98 49.26 118.66 0 69.67-49.26 118.65-49.26 48.98-118.65 48.98-69.39 0-118.37-48.98Z"/></svg>