<svg xmlns="http://www.w3.org/2000/svg" width="48" height="48" viewBox="0 0 48 48"><path d="M43.15 47.05.8 4l2.35-2.35 42.4 43.1Zm-33.8-36.7 3.95 4V38.2h21.45l3.85 3.9.05 4.55H9.35ZM13.3 41.2v1.5h21.4v-1.5Zm.5-32.95V6.8h20.9V5.3H13.8v2.95l-3.85-3.8v-3.1h28.7V12.3H34.7V9.8H15.35Zm-.5 32.95v1.5-1.5Zm24.65-11.05-2.1-2.1q.85-.8 1.275-1.9.425-1.1.425-2.25t-.4-2.275q-.4-1.125-1.25-1.925l2.05-2.1q1.25 1.25 1.925 2.875t.675 3.375q0 1.75-.675 3.4t-1.925 2.9Zm4.2 4.2-2.05-2.1q1.65-1.65 2.575-3.8.925-2.15.925-4.5 0-2.4-.975-4.55t-2.875-3.6l2.3-2.3q2.2 2.05 3.375 4.75 1.175 2.7 1.175 5.7t-1.15 5.675q-1.15 2.675-3.3 4.725ZM34.7 5.3v1.5Z"/></svg>