<svg xmlns="http://www.w3.org/2000/svg" width="48" height="48" viewBox="0 96 960 960"><path d="M163.087 952.523 10.13 800.13q86.826-112.391 208.609-169.869 121.782-57.479 261.826-57.479 140.044 0 261.544 57.479 121.5 57.478 208.326 169.869L797.478 952.523 638.565 834.435V671.391Q598.26 656.522 559 650.87q-39.261-5.652-78.435-5.652t-78.999 5.652q-39.826 5.652-79.565 20.521v163.044L163.087 952.523Zm4.131-97.958 77.347-55.913v-98.304q-37.304 18.435-70.108 43.522-32.805 25.087-62.544 53.391l55.305 57.304Zm625.13-1 56.869-57.435q-29.739-31.304-64.826-55.108-35.087-23.804-72.826-44.674v96.304l80.783 60.913ZM479.565 524.26 274.783 317.043v112.956h-73.001v-238h238.001v73H323.392L481.13 420.738l231-232 51.479 51.478L479.565 524.26Zm232 172.088Zm-467 4Z"/></svg>