<svg xmlns="http://www.w3.org/2000/svg" width="48" height="48" viewBox="0 -960 960 960"><path d="M484.13-273.3ZM112.65-152.65v-167.57q0-86.17 60.5-146.93 60.5-60.76 146.85-60.76h429q41.01 0 69.96 28.45 28.95 28.46 28.95 69.51 0 33.39-20.41 59.78t-52.24 35.52l-70.39 20.22v173.82q0 21.56-9.86 38.35-9.86 16.78-25.73 27.99-16.12 11.13-35.67 13.57-19.54 2.44-39.57-6.95l-206.95-85H112.65Zm516.96-140H381.78q-10.89 0-18.33 7.3-7.45 7.31-9.45 16.61-1.43 8.78 3.4 18.24 4.83 9.45 15.64 13.98l256.57 102.69v-158.82Zm-441.7 64.74h104.52q-5.43-7.56-8.36-17.33-2.94-9.78-2.94-19.76 0-42.59 29.99-72.75 30-30.16 72.36-30.16h228.95l121.83-33.22q11.8-3.29 15.92-11.23 4.12-7.94 2.69-16.97-1.44-9.02-8.45-16.17-7.01-7.15-18.03-7.15H319.84q-54.97 0-93.45 38.75-38.48 38.76-38.48 94.13v91.86Zm93.72-389.01q-48.98-49-48.98-118.37 0-69.36 49.01-118.62 49-49.27 118.37-49.27 69.36 0 118.62 49.13 49.26 49.12 49.26 118.65t-49.12 118.51q-49.12 48.98-118.65 48.98t-118.51-49.01Zm184-52.99q27.02-26.74 27.02-65.35t-27.02-65.63q-27.02-27.02-65.63-27.02t-65.35 27.02q-26.74 27.02-26.74 65.63t26.74 65.35q26.74 26.73 65.35 26.73t65.63-26.73Zm18.5 396.61ZM400-735.26Z"/></svg>