<svg xmlns="http://www.w3.org/2000/svg" width="48" height="48"><path d="M24 32.4q.9-1.65 1.95-3.1 1.05-1.45 2.25-3 2.1-2.8 3.525-4.95Q33.15 19.2 33.15 16q0-3.85-2.675-6.5T24 6.85q-3.8 0-6.475 2.65T14.85 16q0 3.2 1.425 5.35Q17.7 23.5 19.85 26.3q1.15 1.55 2.2 3 1.05 1.45 1.95 3.1zm0 6.8q-.75 0-1.325-.425T21.85 37.6q-1.1-3.45-2.975-5.925-1.875-2.475-3.65-4.8-1.775-2.325-3.05-4.825T10.9 16q0-5.55 3.775-9.35T24 2.85q5.55 0 9.325 3.8Q37.1 10.45 37.1 16q0 3.55-1.275 6.075-1.275 2.525-3.05 4.825Q31 29.2 29.15 31.675q-1.85 2.475-3 5.925-.25.7-.825 1.15-.575.45-1.325.45zm0-20.15q1.3 0 2.2-.9.9-.9.9-2.15 0-1.3-.925-2.2-.925-.9-2.175-.9-1.3 0-2.2.925-.9.925-.9 2.175 0 1.25.925 2.15.925.9 2.175.9zM9.5 45.3h29v-4h-29zM24 16z"/></svg>