<svg xmlns="http://www.w3.org/2000/svg" width="48" height="48" viewBox="0 -960 960 960"><path d="M105.869-64.869v-829.827h668.827v415.957q-17.456-4.261-39.609-5.109-22.152-.848-40.174 2.848v-333.913H462V-542l-96-59-96 59v-272.913h-84.913v670.826H491.87q3.565 19.087 15.739 41.739 12.174 22.653 26.826 37.48H105.869ZM728-40q-81 0-136.5-55.5T536-232q0-81 55.5-136.5T728-424q81 0 136.5 55.5T920-232q0 81-55.5 136.5T728-40Zm-49-100 143-92-143-92v184ZM270-814.913h192-192Zm-84.913 0h509.826H477h14.87-306.783Z"/></svg>