<svg xmlns="http://www.w3.org/2000/svg" width="48" height="48" viewBox="0 -960 960 960"><path d="m829.392-43.477-96.696-96.696v41.652H227.869v-185.348h-162v-377.132h145.435L43.477-829.392l46.957-46.957L876.35-90.434l-46.957 46.957ZM307.087-174.913h345.826v-44.478L537.611-334.128H307.087v159.215Zm469.48-109.217h118.129v-378.566H399.13L776.567-284.13ZM369.13-692.696l-162.565-162h526.131v162H369.13Zm382.871 200.261q-13.922 0-23.657-9.975t-9.735-23.416q0-13.922 9.735-23.657t23.374-9.735q13.639 0 23.657 9.735 10.017 9.735 10.017 23.374t-9.975 23.657q-9.975 10.017-23.416 10.017Z"/></svg>