<svg xmlns="http://www.w3.org/2000/svg" width="48" height="48" viewBox="0 0 48 48"><path d="M33.45 38.5q2.1 0 3.55-1.425 1.45-1.425 1.45-3.575 0-2.1-1.45-3.575t-3.5-1.475q-2.15 0-3.6 1.475-1.45 1.475-1.45 3.575 0 2.15 1.425 3.575Q31.3 38.5 33.45 38.5Zm10.25 8-5.45-5.45q-1.1.7-2.275 1.05-1.175.35-2.475.35-3.75 0-6.4-2.6-2.65-2.6-2.65-6.35 0-3.7 2.65-6.35 2.65-2.65 6.4-2.65 3.65 0 6.3 2.65t2.65 6.35q0 1.35-.375 2.525Q41.7 37.2 41 38.25l5.4 5.45ZM5.3 44.7V3.25h22.05l11.4 11.4v8.05q-1.25-.55-2.575-.875Q34.85 21.5 33.5 21.5q-2.05 0-3.85.575-1.8.575-3.3 1.675h-12.4v3.3h9.4q-.8 1.15-1.225 2.475-.425 1.325-.575 2.725h-7.6v3.3h7.7q.65 3.2 2.725 5.65t5.175 3.5Zm20-28.15h9.45l-9.45-9.3 9.45 9.3-9.45-9.3Z"/></svg>