<svg xmlns="http://www.w3.org/2000/svg" width="48" height="48" viewBox="0 -960 960 960"><path d="M185.087-814.913v287.348V-530v384.913-669.826 186-186ZM279-418.87h187.826q12.131-19.26 27.352-35.649 15.222-16.388 34.127-30.568H279v66.217Zm0 170h153.739q-2.223-16.695-2.981-33.391-.758-16.696 1.372-32.826H279v66.217ZM105.869-65.869v-828.827h441.349l227.478 227.478v161.348q-19.087-9.26-39.174-14.543-20.087-5.283-40.609-7.152v-101.348h-189v-186H185.087v669.826h300.869q19.435 27.217 46.16 47.138 26.726 19.92 59.754 32.08H105.869ZM669.267-190q42.82 0 71.494-28.614t28.674-71.434q0-42.821-28.51-71.777-28.511-28.957-71.18-28.957-42.908 0-71.717 28.73-28.81 28.729-28.81 71.717 0 42.987 28.614 71.661T669.267-190ZM873.609-30.26 764.913-138.955q-21.565 12.869-45.326 20.521-23.762 7.652-49.978 7.652-75.239 0-127.707-52.244-52.467-52.245-52.467-127.165 0-74.921 52.467-127.365Q594.37-470 669.609-470q75.004 0 127.307 52.303 52.302 52.302 52.302 127.306 0 26.369-7.934 50.275-7.935 23.906-20.805 45.029L929.175-86.391 873.609-30.26Z"/></svg>