<svg xmlns="http://www.w3.org/2000/svg" width="48" height="48" viewBox="0 -960 960 960"><path d="M65.869-53.999V-705.87l547.696-221.131 20.695 52.086-376.522 152.089h636.958v668.827H65.869Zm79.218-79.783h669.826v-302.087H145.087v302.087Zm169.009-58.478q40.817 0 68.817-28.466 28-28.466 28-68.717 0-40.817-28.183-68.817-28.183-28-69-28t-68.817 28.183q-28 28.183-28 69 0 40.251 28.183 68.534 28.183 28.283 69 28.283ZM145.087-495.869H660v-57.174h60v57.174h94.913v-147.174H145.087v147.174Zm0 362.087v-302.087 302.087Z"/></svg>