<svg xmlns="http://www.w3.org/2000/svg" width="48" height="48" viewBox="0 -960 960 960"><path d="M377.13-145.087H582.3v-56l35.004-14.435q67.076-28.843 110.973-70.943 43.896-42.1 65.027-93.751H166.696q20.566 51.651 64.946 94.189 44.38 42.538 110.054 70.505l35.434 14.435v56Zm-78.087 79.218v-83.652q-101.548-40.782-164.144-125.348-62.595-84.566-69.03-184.566h80v-351.87l748.827-83.391v56.783l-478.478 53.469v88.922h478.478v56.783H416.218v179.304h478.478q-6.565 100-70.347 184.522-63.783 84.522-164.392 125.392v83.652H299.043Zm10.392-629.653h50v-82.565l-50 6v76.565Zm-106.783 0h50v-71l-50 6v65Zm106.783 236.087h50v-179.304h-50v179.304Zm-106.783 0h50v-179.304h-50v179.304ZM480-380.216Z"/></svg>