<svg xmlns="http://www.w3.org/2000/svg" width="48" height="48" viewBox="0 -960 960 960"><path d="M145.87-138.52v-109.15q0-41.67 21.16-72.19 21.17-30.51 54.75-46.36 68.13-30.56 131.31-45.85 63.18-15.28 126.91-15.28 26.73 0 52.46 3 25.72 3 51.89 8.19v78.46q-26.31-5.43-51.99-7.65-25.68-2.21-52.36-2.21-56.43 0-109.37 11.43-52.93 11.43-113.38 39.65-14.16 6.84-23.16 21.07-9 14.22-9 29.89v27.78h359.26v79.22H145.87Zm79.22-79.22h359.26-359.26Zm136.62-316.45q-45.84-45.84-45.84-118.17 0-72.34 45.84-118.29 45.84-45.96 118.17-45.96 72.34 0 118.58 45.96 46.24 45.95 46.24 118.29 0 72.33-46.24 118.17t-118.58 45.84q-72.33 0-118.17-45.84Zm179.12-57.47q24.08-24.09 24.08-61.1 0-37.02-23.97-60.83-23.97-23.8-60.82-23.8-36.86 0-60.95 23.82-24.08 23.83-24.08 60.85t23.97 61.09q23.97 24.06 60.82 24.06 36.86 0 60.95-24.09ZM480-652.48ZM724.35-17.09v-187.26h-80v-231.3h228.69l-80 160h79.57L724.35-17.09Z"/></svg>