<svg xmlns="http://www.w3.org/2000/svg" width="48" height="48" viewBox="0 -960 960 960"><path d="M529.087-65.304q-65.826 0-129.087-19.065-63.261-19.065-111.957-60.761l56.131-58.696q40.305 33 86.457 46.152 46.152 13.152 98.456 13.152 119.739 0 205.326-85.304Q820-315.13 820-435.435q0-118.043-83.326-203.065-83.326-85.021-201.369-87.848h-40.304l74.39 74.391-53.043 53.044-167.044-167.044 167.044-167.044 53.043 52.479-74.956 74.956h40.305q150.522 1.696 257.783 110.653 107.261 108.956 107.261 259.478 0 75.826-29.631 143.153-29.63 67.326-80.391 117.804-50.761 50.479-117.805 79.827-67.044 29.347-142.87 29.347Zm-273.305-141.13-235-235.001 235-235 234.436 235-234.436 235.001Zm0-100.088L386.13-437.435 255.782-568.348 124.87-437.435l130.912 130.913Zm0-130.913Z"/></svg>