<svg xmlns="http://www.w3.org/2000/svg" width="48" height="48" viewBox="0 96 960 960"><path d="m557.761 699.391-68.109-246.782h57.783l41.174 155.521 41.739-155.521h57.782l-68.195 246.782h-62.174Zm-521.152 0V452.609H237.39v160.782h-35.304l34 86h-59.348l-34-86H91.391v86H36.608ZM91.39 558.609h91.218v-51.218H91.391v51.218Zm631.22 140.782V452.609h200.782v160.782h-146v86H722.61Zm54.782-140.782h91.218v-51.218h-91.218v51.218ZM282.609 699.391v-54.782h120v-41.218h-120V452.609h174.782v54.782h-120v41.218h120v150.782H282.609Z"/></svg>