<svg xmlns="http://www.w3.org/2000/svg" width="48" height="48" viewBox="0 -960 960 960"><path d="M480-300.435q78.158 0 134.448-56.242 56.291-56.242 56.291-134.166T614.38-625.058q-56.358-56.29-134.448-56.29t-134.098 56.256q-56.008 56.256-56.008 134.2 0 77.945 56.008 134.201T480-300.435Zm74-84.652-102.391-94.18v-140.734h48.782v125.696l85.131 77.696L554-385.087ZM479.964-66.304q-146.122-36.588-240.109-168.1-93.986-131.513-93.986-288.412V-770.87L480-895.696l334.696 124.845V-523q0 156.969-94.304 288.538-94.305 131.57-240.428 168.158Zm.036-81.218q112.174-40.826 183.543-143.783 71.37-102.956 71.37-231.529v-192.209L480-811.348 225.087-714.77v191.673q0 128.836 71.37 231.792Q367.826-188.348 480-147.522Zm0-331.913Z"/></svg>