<svg xmlns="http://www.w3.org/2000/svg" width="48" height="48" viewBox="0 -960 960 960"><path d="M605.13-135.5Q549.91-191 549.91-269t55.22-133.5q55.22-55.5 133.5-55.5t133.78 55.5q55.5 55.5 55.5 133.5t-55.5 133.5Q816.91-80 738.63-80t-133.5-55.5Zm191.78-28.54 31.96-32.53-75.57-75.67v-114.15h-45.78v130.36l89.39 91.99ZM238.09-578.91h358v-143h-358v143ZM105.87-105.87V-874.7h583.35L854.7-709.34v219.73q-27.7-13.69-56.18-21.04T739.35-518q-56.59 0-104.73 23.22-48.14 23.21-83.14 62.65-15.13-11.7-33.04-18.83-17.91-7.13-38.44-7.13-43 0-73.5 30.5t-30.5 73.5q0 44.7 32.76 76.05 32.76 31.34 78.59 29.65h4q3 39.65 18.32 76.39 15.33 36.74 42.11 66.13H105.87Z"/></svg>