<svg xmlns="http://www.w3.org/2000/svg" width="48" height="48" viewBox="0 -960 960 960"><path d="M833.001-44.955V-701.87q0-36.87-25.17-62.022t-62.004-25.152h-44.913v56.348q0 11.832-8.292 19.72-8.292 7.889-19.317 7.889H429.521q-15.652 0-22.696-15.805-7.043-15.804-1.348-28.326l81.088-173.044q6.804-14.897 20.715-23.84t32.459-8.943h103.87q24.236 0 40.771 17.769 16.534 17.77 16.534 42.405v26.609h44.913q70.348 0 118.653 48.022 48.304 48.022 48.304 118.37v656.915h-79.783ZM510.913-784.87H621.13v-90.956h-70.304l-39.913 90.956ZM173.043-44.955q-53.477 0-89.652-36.11-36.175-36.112-36.175-89.493v-113.003q0-34.309 25.109-64.39 25.108-30.082 70.152-38.528v-92.391q0-32.677 23.437-55.948 23.436-23.27 56.347-23.27h329.26q32.911 0 56.347 23.27 23.437 23.271 23.437 55.948v92.391q45.044 8.427 69.87 37.583 24.826 29.157 24.826 65.114v113.103q0 53.433-36.147 89.579-36.147 36.145-89.114 36.145H173.043Zm49.218-433.915v111.609q19.187 17.296 30.724 38.169 11.537 20.873 11.537 45.31V-260H509.26v-23.782q0-24.437 11.537-45.31t30.724-38.169V-478.87h-329.26Zm-49.218 354.697H600.74q19.617 0 32.547-14.495 12.931-14.494 12.931-32.114v-112.855q0-12.317-8.104-20.666t-20.62-8.349q-12.515 0-20.765 8.349t-8.25 20.666v102.855H185.304v-102.855q0-12.317-8.084-20.666t-21.312-8.349q-12.409 0-20.659 8.349-8.25 8.349-8.25 20.666v112.855q0 17.62 13.213 32.114 13.213 14.495 32.831 14.495ZM509.26-260H264.522 509.26ZM222.261-478.87h329.26-329.26Zm-36.957 354.697h403.175-403.175Z"/></svg>