<svg xmlns="http://www.w3.org/2000/svg" width="48" height="48" viewBox="0 -960 960 960"><path d="M577.522-359.348h172.957v-235.087H577.522v235.087Zm53.391-53.956v-126.609h66.174v126.609h-66.174Zm-421.392 53.956h172.957v-53.956H264.609v-39.87h117.869v-141.261H209.521v53.957h117.87v39.869h-117.87v141.261Zm235.87-157.434h69.218v-69.609h-69.218v69.609Zm0 149.391h69.218V-437h-69.218v69.609ZM53.999-133.999v-685.785H267.39v-86.217h73.001v86.217h279.218v-86.217h73.566v86.217h212.826v685.785H53.999Zm391.392-532.61h69.218v-69.609h-69.218v69.609Zm0 449.61h69.218v-69.61h-69.218v69.61Z"/></svg>