<svg xmlns="http://www.w3.org/2000/svg" width="48" height="48" viewBox="0 0 48 48"><path d="M24 34.95q3.4 0 6.2-1.85 2.8-1.85 4-5H13.8q1.25 3.15 4.025 5Q20.6 34.95 24 34.95ZM15.05 21.6l2.3-2.3 2.3 2.3 2.05-2-4.35-4.35L13 19.6Zm13.35 0 2.3-2.3 2.3 2.3 2.05-2-4.35-4.35-4.35 4.35ZM24 44.7q-4.3 0-8.075-1.625Q12.15 41.45 9.35 38.65q-2.8-2.8-4.425-6.575Q3.3 28.3 3.3 24q0-4.3 1.625-8.075Q6.55 12.15 9.35 9.35q2.8-2.8 6.575-4.45Q19.7 3.25 24 3.25q4.3 0 8.075 1.625 3.775 1.625 6.6 4.45 2.825 2.825 4.45 6.6Q44.75 19.7 44.75 24q0 4.3-1.65 8.075-1.65 3.775-4.45 6.575-2.8 2.8-6.575 4.425Q28.3 44.7 24 44.7ZM24 24Zm0 16.75q7 0 11.875-4.875T40.75 24q0-7-4.875-11.875T24 7.25q-7 0-11.875 4.875T7.25 24q0 7 4.875 11.875T24 40.75Z"/></svg>