<svg xmlns="http://www.w3.org/2000/svg" width="48" height="48" viewBox="0 -960 960 960"><path d="M622.61-529.61q24.13 0 40.76-16.63T680-587q0-24.13-16.63-40.76t-41.04-16.63q-23.85 0-40.2 16.56-16.35 16.57-16.35 40.76 0 24.2 16.3 40.83t40.53 16.63Zm-284.94 0q23.85 0 40.2-16.56 16.35-16.57 16.35-40.76 0-24.2-16.3-40.83t-40.53-16.63q-24.13 0-40.76 16.63T280-587q0 24.13 16.63 40.76t41.04 16.63ZM358.5-379.5Q304-342 278-280h60.91q20.87-39.17 59.11-60.48 38.23-21.3 83.19-21.3 43.96 0 81.77 21.8 37.8 21.81 59.67 59.98H682q-25-63-80-100t-122-37q-67 0-121.5 37.5ZM318.63-98.22q-75.54-32.34-131.8-88.61-56.27-56.26-88.61-131.72-32.35-75.47-32.35-161.37 0-85.91 32.35-161.45 32.34-75.54 88.52-131.83 56.17-56.29 131.68-88.9 75.5-32.6 161.45-32.6 85.96 0 161.57 32.58T773.3-773.3q56.24 56.25 88.82 131.86 32.58 75.61 32.58 161.57 0 85.95-32.6 161.45-32.61 75.51-88.9 131.68-56.29 56.18-131.75 88.52-75.47 32.35-161.37 32.35-85.91 0-161.45-32.35ZM480-480Zm237.33 237.33q97.58-97.59 97.58-237.33t-97.58-237.33Q619.74-814.91 480-814.91t-237.33 97.58Q145.09-619.74 145.09-480t97.58 237.33q97.59 97.58 237.33 97.58t237.33-97.58Z"/></svg>