<svg xmlns="http://www.w3.org/2000/svg" width="48" height="48" viewBox="0 -960 960 960"><path d="M701.197-65.869q-88.37 0-150.827-62.185-62.457-62.185-62.457-150.544 0-88.359 62.43-150.533 62.43-62.174 151.136-62.174 88.088 0 150.262 62.174 62.174 62.174 62.174 150.533 0 88.359-62.174 150.544-62.174 62.185-150.544 62.185Zm-6.543-75.522q36.521 1 63.717-16.065 27.196-17.065 51.326-45.892-36.261-7-65.379-21.319-29.119-14.319-47.242-45.476-18.292-31.157-15.792-63.985 2.5-32.829 14.63-67.09-41.826 7.435-74.305 27.913-32.478 20.479-46.608 60.175-11.566 34.26-5.9 65.306 5.665 31.046 27.595 58.607 18.696 23.696 43.109 35.261 24.413 11.565 54.849 12.565ZM375.565-65.869 354.999-196.39q-18.173-6.304-34.565-15.608-16.391-9.305-31.13-21.609l-121.956 56.261L61.347-364.522l111.391-81.261q-1.434-9.325-1.934-17.108-.5-7.784-.5-17.109 0-9.325.5-17.109.5-7.783 1.934-17.108L61.347-596.043l106.001-186.045 123.087 55.696q14.174-11.739 30.518-20.82t34.046-14.832l20.556-132.652h208.88l20.566 131.652q18.173 6.87 34.764 15.366 16.591 8.495 30.931 21.286l122.522-55.696 105.435 186.045-74.303 52.26q-28.827-14.826-59.676-21.174-30.849-6.348-63.195-6.348-29.098 0-57.158 5.761-28.06 5.761-54.712 17.718-18.12-28.823-47.476-45.498Q512.777-610 478.669-610q-54.365 0-92.082 38-37.717 38-37.717 92 0 37.194 20.043 67.858 20.044 30.664 52.435 48.084-6.435 19.884-9.935 40.188-3.5 20.305-3.5 41.044 0 62.087 23.595 118.162 23.594 56.075 68.884 98.795H375.565Z"/></svg>