<svg xmlns="http://www.w3.org/2000/svg" width="48" height="48"><path d="M6 46.15V37.6H1.85V12.1H6V3.5q0-.8.425-1.225.425-.425 1.225-.425t1.225.425Q9.3 2.7 9.3 3.5v8.6h4.15v25.5H9.3v8.55zm16.35 0V37.6H18.2V12.1h4.15V3.5q0-.8.425-1.225Q23.2 1.85 24 1.85t1.225.425q.425.425.425 1.225v8.6h4.15v25.5h-4.15v8.55zm16.35 0V37.6h-4.15V12.1h4.15V3.5q0-.8.425-1.225.425-.425 1.225-.425t1.225.425Q42 2.7 42 3.5v8.6h4.15v25.5H42v8.55zM5.15 15.4v8.9h5v-8.9zm16.35 0v8.9h5v-8.9zm16.35 0v8.9h5v-8.9zM5.15 34.5h5v-6.9h-5zm16.35 0h5v-6.9h-5zm16.35 0h5v-6.9h-5zm-30.2-8.55zm16.35 0zm16.35 0zM5.15 24.3h5-5zm16.35 0h5-5zm16.35 0h5-5zm-32.7 3.3h5zm16.35 0h5zm16.35 0h5z"/></svg>