<svg xmlns="http://www.w3.org/2000/svg" width="48" height="48" viewBox="0 96 960 960"><path d="M480 512.478ZM185.087 910.131q-32.507 0-55.862-23.356-23.356-23.355-23.356-55.862V241.087q0-32.74 23.356-56.262 23.355-23.521 55.862-23.521h589.826q32.74 0 56.262 23.521 23.521 23.522 23.521 56.262v265.522q-18.522-9.696-38.609-15.044-20.087-5.348-41.174-8.217V241.087H185.087v544.347q60.131-54.435 134.348-87.239 74.217-32.804 162.913-32.108-5.13 15.695-8.261 31.826-3.13 16.13-3.13 34.391-64.696 1.435-124.544 24.652Q286.565 780.174 235 824.739v6.174h252.696q7.09 22.543 17.871 42.185 10.781 19.642 25.738 37.033H185.087Zm296.929-306.652q7.984 0 15.201-.5 7.218-.5 14.653-2.5 19-29.957 44.913-54.283 25.913-24.326 58.304-40.022 3.87-10.304 6.087-21.308 2.217-11.003 2.217-22.779 0-59.792-40.779-100.309-40.779-40.517-100.543-40.517-59.765 0-100.613 40.497-40.847 40.496-40.847 100.261 0 59.764 40.804 100.612 40.804 40.848 100.603 40.848Zm-.082-66.218q-30.804 0-52.673-22.219-21.87-22.218-21.87-53.021t21.936-52.673q21.936-21.869 52.739-21.869 30.804 0 52.673 21.936 21.87 21.936 21.87 52.739 0 30.803-21.937 52.955-21.935 22.152-52.738 22.152Zm216.718 407.783-6.13-50.261q-18.304-5.435-38.174-16.652-19.869-11.218-31.739-24.087l-43.696 21.13-40.652-63.609 40.261-31.13q-6.131-20.591-5.848-38.882.283-18.292 5.848-39.031l-40.261-31.131 40.652-64.043 43.696 20.565q11.87-10.87 31.739-22.304 19.87-11.435 38.174-16.87l6.13-51.261h70.691l6.049 51.261q18.87 5.435 38.739 16.87 19.87 11.434 31.739 22.304l44.261-20.565 40.087 64.043-39.695 31.131q5.565 21.146 5.282 38.956-.282 17.811-5.282 38.957l39.695 31.13-40.087 63.609-44.261-21.13q-11.869 12.869-31.739 24.087-19.869 11.217-38.739 16.652l-6.049 50.261h-70.691ZM733.74 839.87q42.205 0 70.689-28.153 28.484-28.152 28.484-70.456t-28.504-70.456q-28.505-28.153-70.739-28.153-42.235 0-70.387 28.223-28.152 28.222-28.152 70.456t28.202 70.386q28.201 28.153 70.407 28.153Z"/></svg>