<svg xmlns="http://www.w3.org/2000/svg" width="48" height="48" viewBox="0 -960 960 960"><path d="M375.565-65.869 354.999-196.39q-15.608-5.304-34.065-15.891-18.456-10.587-31.63-21.326l-121.956 56.261L61.347-364.522l111.391-81.261q-1.434-7.304-1.934-17.108-.5-9.805-.5-17.109 0-7.304.5-17.109.5-9.804 1.934-17.108L61.347-596.043l106.001-186.045 123.087 55.696q12.608-10.174 30.782-20.478 18.174-10.304 33.782-15.174l20.566-132.652h208.87l20.566 131.652q15.608 5.87 34.282 15.674 18.674 9.804 31.413 20.978l122.522-55.696 105.435 186.045-111.957 79.826q1.435 8.304 2.218 18.108.782 9.805.782 18.109 0 8.304-.782 17.609-.783 9.304-2.218 17.608l111.957 80.261-106.001 187.175-122.522-56.261q-13.173 10.739-30.847 21.543-17.674 10.805-34.282 15.674L584.435-65.869h-208.87ZM478.87-350q54 0 92-38t38-92q0-54-38-92t-92-38q-54 0-92 38t-38 92q0 54 38 92t92 38Z"/></svg>