<svg xmlns="http://www.w3.org/2000/svg" width="48" height="48" viewBox="0 -960 960 960"><path d="M823.001-560.391q-15.957 0-27.783-11.826-11.827-11.826-11.827-27.783 0-16.957 11.827-28.283 11.826-11.326 27.783-11.326 16.956 0 28.565 11.326 11.609 11.326 11.609 28.283 0 15.957-11.609 27.783t-28.565 11.826ZM392.652-55.694v-159.131L278.087-99.695l-51.61-51.609 166.175-165.609v-74.608h-74.609L151.869-225.912l-50.479-51.044 114-114.565h-158v-73.001h158l-114-114.565 50.479-51.609 166.174 166.174h74.609v-74.608L226.477-705.305l51.61-51.044 114.565 114.565v-158.565h73v158.565l114.566-114.565 51.044 51.044-165.61 166.175v74.608h335.827v73.001h-159.13l115.13 114.565-51.609 51.044-165.609-165.609h-74.609v74.608l165.61 165.609-51.044 51.61-114.566-115.131v159.13h-73ZM783.391-699.61v-209.784h79.784v209.784h-79.784Z"/></svg>