<svg xmlns="http://www.w3.org/2000/svg" width="48" height="48" viewBox="0 -960 960 960"><path d="M76.56-425.26q-6.13-13.26-8.41-26.3-2.28-13.05-2.28-28.44 0-53.65 36.79-90.61t90.21-36.96q25.13 0 47.21 9.5 22.08 9.5 39.88 25.5l284.6-163.39q-1.43-7.43-2.65-15.37-1.21-7.93-1.21-15.8 0-53.04 36.99-90.3 36.98-37.27 90.04-37.27 53.05 0 90.01 37.28 36.96 37.27 36.96 90.32 0 53.06-36.88 90.01-36.87 36.96-90.41 36.96-24.62 0-46.71-9.57-22.09-9.56-39.79-25.13L237.3-472.65q-3.13-.57-6.56-1.13-3.43-.57-6.39-.57-41.83 0-79.58 13.04-37.74 13.04-68.21 36.05Zm611.1 359.39q-53.05 0-90.01-36.81-36.95-36.82-36.95-89.62 0-8 4.43-30.05l-97.78-57.04q-6-30.35-19.11-58.85t-32.2-52.02l185.31 105.22q17.71-16.17 39.51-25.5 21.8-9.33 46.85-9.33 53.59 0 90.29 36.84t36.7 90.33q0 53.48-36.99 90.16-36.99 36.67-90.05 36.67ZM90.06-90.06q-55.71-55.72-55.71-133.89 0-78.16 55.71-134.28 55.72-56.12 133.89-56.12 78.16 0 134.28 56.12 56.12 56.12 56.12 134.28 0 78.17-56.12 133.89-56.12 55.71-134.28 55.71-78.17 0-133.89-55.71Zm133.72-99.68 68 67.44 32.05-32.05-68.44-68.15 71-71.28-32.04-32.05-69.72 69.44-70.28-70-32.05 32.04 69.44 69.72-70 70.28 33.61 33.05 68.43-68.44Z"/></svg>