<svg xmlns="http://www.w3.org/2000/svg" width="48" height="48" viewBox="0 -960 960 960"><path d="M480-66.304q-146.087-36.588-240.109-168.041Q145.869-365.799 145.869-523v-247.87L480-895.696 814.696-770.87V-523q0 157.201-94.304 288.655Q626.087-102.892 480-66.304Zm0-513.261L243.348-395.782q20.87 64.652 61.848 118.347 40.978 53.695 95.195 91.261v-173.435h159.218v173.435q54.217-37.566 95.195-91.261 40.978-53.695 61.848-118.347L480-579.565Zm0-231.783-254.913 96.305v185.26q0 10.739 1 23.478t2.435 22.913L480-679.435l251.478 196.043q1.435-10.174 2.435-22.913t1-23.478v-185.26L480-811.348Z"/></svg>