<svg xmlns="http://www.w3.org/2000/svg" width="48" height="48" viewBox="0 -960 960 960"><path d="M65.869-145.869v-331.87h589.044v-82.479l261.305-90.087 24.652 75.653-206.174 69.435v359.348H65.869Zm94.608-411.87q1.044-40.261-6.391-69.174-7.435-28.913-36.696-75.261-23.739-39.131-30.891-72.761-7.152-33.631-1.587-79.761h72.827q-3.869 39.261 6.044 70.152 9.913 30.892 39.608 77.805 20.913 35.304 27.848 69.652 6.935 34.348 2.065 79.348h-72.827Zm178.479 0q1.043-40.261-6.391-69.174-7.435-28.913-36.696-75.261-23.739-39.131-30.891-72.761-7.152-33.631-1.587-79.761h72.827q-3.87 39.261 5.543 70.152 9.413 30.892 39.109 77.805 20.913 35.304 28.348 69.652 7.434 34.348 2.565 79.348h-72.827Zm182.435 0Q522.435-598 515-626.913q-7.435-28.913-36.696-75.261-23.739-39.131-30.608-72.761-6.87-33.631-1.87-79.761h73.392q-3.869 39.261 5.261 70.152 9.131 30.892 39.392 77.805 20.913 35.304 28.065 69.652 7.152 34.348 2.848 79.348h-73.393Z"/></svg>