<svg xmlns="http://www.w3.org/2000/svg" width="48" height="48" viewBox="0 -960 960 960"><path d="M181.607-423.391q10.392-15.957 15.587-30.805 5.196-14.848 5.196-35.413 0-35-20-74.37-20-39.369-20-70.63 0-13.261 3.131-29.457 3.13-16.196 13.695-32.326h65.262q-9.696 16.261-14.391 32.674-4.696 16.413-4.696 29.109 0 34.565 20 71.152t20 73.848q0 21.13-4.348 36.543-4.348 15.414-12.478 29.675h-66.958Zm266.783 0q10.392-15.957 15.587-30.805 5.196-14.848 5.196-35.413 0-35.565-20-74.37-20-38.804-20-70.63 0-13.261 3.131-29.457 3.13-16.196 13.695-32.326h65.262q-9.696 16.261-14.674 32.674t-4.978 29.109q0 34.565 20 71.152t20 73.848q0 21.13-4.348 36.543-4.348 15.414-12.479 29.675H448.39Zm-133.391 0q10.391-15.957 15.587-30.805 5.196-14.848 5.196-35.413 0-35.565-20-74.37-20-38.804-20-70.63 0-13.261 3.13-29.457 3.131-16.196 13.696-32.326h65.262q-9.696 16.261-14.392 32.674t-4.696 29.109q0 34.565 20 71.152t20 73.848q0 21.13-4.348 36.543-4.347 15.414-12.478 29.675h-66.957Zm75.001 353q-103.957 0-187.609-72.457-83.653-72.456-92-174.848-1.435-17.391 9.891-29.652 11.327-12.261 29.718-12.261h440.956l44.435-424.521q5-44.392 38.826-74.936 33.826-30.543 79.783-30.543 49.957 0 84.783 34.826T873.609-770q0 9.565-1.565 29.435-1.565 19.87-3.565 30.305l-78.219-10.261 2.066-21.522q2.065-21.522 2.065-27.957 0-17.043-11.674-28.717T754-810.391q-16.043 0-27.217 10.457-11.174 10.456-13.174 25.499l-46 445Q656.044-219.478 577-144.934q-79.043 74.543-187 74.543Z"/></svg>