<svg xmlns="http://www.w3.org/2000/svg" width="48" height="48" viewBox="0 -960 960 960"><path d="M274.348-92.868V-240.87h418.087v148H274.348ZM224.173-309.87 182.29-509.276q-.943-1.874-.943-8.799v-256.838q0-33.913 22.522-56.848 22.521-22.935 57.261-22.935h355.304q33.914 0 56.849 22.935 22.935 22.935 22.935 56.848v114.086q2.826-13.739 12.609-21.261 9.782-7.521 25.217-7.521 19.646 0 32.127 12.326 12.482 12.326 12.482 32.283v127q0 7-.956 8.871l-42.131 199.26H224.173ZM336.13-562.913h205.304v-134H336.13v134Z"/></svg>