<svg xmlns="http://www.w3.org/2000/svg" width="48" height="48" viewBox="0 0 48 48"><path d="M9.45 40.65q-3.3 0-5.6-2.325t-2.4-5.675q0-.5.05-.975t.2-.975l4.2-16.8q.75-2.9 3.075-4.725Q11.3 7.35 14.25 7.35h19.5q2.95 0 5.275 1.825T42.15 13.9l4.2 16.8q.1.5.175 1 .075.5.075 1 0 3.35-2.35 5.65-2.35 2.3-5.7 2.3-2.3 0-4.25-1.2-1.95-1.2-2.95-3.25l-1.4-2.9q-.15-.35-.475-.5-.325-.15-.725-.15h-9.5q-.4 0-.725.15-.325.15-.475.5l-1.4 2.9q-1 2.05-2.95 3.25-1.95 1.2-4.25 1.2Zm.15-3.95q1.1 0 2.05-.6.95-.6 1.45-1.65l1.4-2.85q.65-1.35 1.925-2.125Q17.7 28.7 19.25 28.7h9.5q1.55 0 2.8.8 1.25.8 2 2.1l1.4 2.85q.5 1.05 1.45 1.65.95.6 2.05.6 1.7 0 2.9-1.15t1.25-2.8q0-.35-.15-1.1l-4.2-16.75q-.4-1.55-1.625-2.575Q35.4 11.3 33.75 11.3h-19.5q-1.6 0-2.85 1t-1.65 2.6l-4.2 16.75q0 .05-.15 1.05 0 1.7 1.225 2.85Q7.85 36.7 9.6 36.7ZM27 21.5q.65 0 1.075-.425.425-.425.425-1.075 0-.65-.425-1.075Q27.65 18.5 27 18.5q-.65 0-1.075.425Q25.5 19.35 25.5 20q0 .65.425 1.075.425.425 1.075.425Zm4-4q.65 0 1.075-.425.425-.425.425-1.075 0-.65-.425-1.075Q31.65 14.5 31 14.5q-.65 0-1.075.425Q29.5 15.35 29.5 16q0 .65.425 1.075.425.425 1.075.425Zm0 8q.65 0 1.075-.425.425-.425.425-1.075 0-.65-.425-1.075Q31.65 22.5 31 22.5q-.65 0-1.075.425Q29.5 23.35 29.5 24q0 .65.425 1.075.425.425 1.075.425Zm4-4q.65 0 1.075-.425.425-.425.425-1.075 0-.65-.425-1.075Q35.65 18.5 35 18.5q-.65 0-1.075.425Q33.5 19.35 33.5 20q0 .65.425 1.075.425.425 1.075.425Zm-18 3.25q.55 0 .9-.35t.35-.9v-2.25h2.25q.55 0 .9-.35t.35-.9q0-.55-.35-.9t-.9-.35h-2.25V16.5q0-.55-.35-.9t-.9-.35q-.55 0-.9.35t-.35.9v2.25H13.5q-.55 0-.9.35t-.35.9q0 .55.35.9t.9.35h2.25v2.25q0 .55.35.9t.9.35Zm7-.75Z"/></svg>