<svg xmlns="http://www.w3.org/2000/svg" width="48" height="48" viewBox="0 -960 960 960"><path d="M726.391-520q-85.652 0-146.021-60.37Q520-640.739 520-726.391q0-85.653 60.37-146.131 60.369-60.479 146.021-60.479 85.653 0 146.131 60.479 60.479 60.478 60.479 146.131 0 85.652-60.479 146.021Q812.044-520 726.391-520ZM134.948-135.13q-13.383-9-20.666-23.446-7.283-14.447-7.283-30.989v-577.861q0-35.053 23.802-59.183 23.801-24.131 58.927-24.131H467.87q-15.131 25.566-22.631 56.863-7.5 31.298-7.5 67.659 0 57.163 22.827 110.714 22.827 53.552 62.564 92.374l-388.182 388Zm343.922 28.131v-225.507q0-44.769 27.317-79.534 27.317-34.766 72.074-42.699 33.337-8.565 71.195-11.348 37.857-2.783 76.762-2.783 36.789 0 67.373 2.283 30.583 2.283 57.149 8.791v268.256q0 35.048-24.214 58.794-24.214 23.747-58.853 23.747H478.87Z"/></svg>