<svg xmlns="http://www.w3.org/2000/svg" width="48" height="48" viewBox="0 96 960 960"><path d="M276.609 985.609V740.001h-73.827q-41.417 0-71.709-28.218-30.291-28.218-30.291-69.53 0-31.775 16.267-58.968 16.268-27.192 45.907-39.286L442.26 427.391v-36.913q-37.254-8.869-60.062-39.935-22.807-31.065-22.807-69.065 0-50.239 35.802-85.207 35.803-34.967 85.807-34.967 50.004 0 85.807 34.967 35.802 34.968 35.802 85.207h-73q0-19.869-14.543-33.239-14.542-13.369-34.126-13.369-19.583 0-34.066 13.524-14.483 13.525-14.483 33.084 0 21.559 14.766 36.084 14.765 14.525 35.56 14.525 15.321 0 25.911 10.45 10.59 10.45 10.59 25.333v57.26l277.826 118.869q29.639 12.094 46.189 39.286 16.551 27.193 16.551 58.968 0 41.312-30.457 69.53-30.457 28.218-72.109 28.218h-73.827v245.608H276.609Zm73-293.782h260.782-260.782ZM202.556 667h74.053v-47.609h406.782V667h73.827q11.565 0 20.282-7.377 8.718-7.377 8.718-18.181 0-8.877-4.718-16.034-4.717-7.157-13.282-11.408L483.037 488 191.856 614q-8.115 3.874-13.094 11.22-4.98 7.345-4.98 15.222 0 10.804 8.437 18.681Q190.655 667 202.556 667Zm147.053 245.609h260.782V691.827H349.609v220.782Z"/></svg>