<svg xmlns="http://www.w3.org/2000/svg" width="48" height="48" viewBox="0 96 960 960"><path d="M309 438.391q13.922 0 23.657-9.734 9.734-9.735 9.734-23.657t-9.734-23.657q-9.735-9.734-23.657-9.734t-23.657 9.734q-9.734 9.735-9.734 23.657t9.734 23.657q9.735 9.734 23.657 9.734Zm0 171q13.922 0 23.657-9.734 9.734-9.735 9.734-23.657t-9.734-23.657q-9.735-9.734-23.657-9.734t-23.657 9.734q-9.734 9.735-9.734 23.657t9.734 23.657q9.735 9.734 23.657 9.734Zm0 171q13.922 0 23.657-9.734 9.734-9.735 9.734-23.657t-9.734-23.657q-9.735-9.734-23.657-9.734t-23.657 9.734q-9.734 9.735-9.734 23.657t9.734 23.657q9.735 9.734 23.657 9.734Zm-203.131 169.74V201.304H642L854.696 414v536.131H105.869ZM597.13 458.87h177.783L597.13 281.087V458.87Z"/></svg>