<svg xmlns="http://www.w3.org/2000/svg" width="48" height="48" viewBox="0 -960 960 960"><path d="M57.39-138.521v-110.261q0-37.392 20.261-69.566t55.653-47.87q61.695-27.565 126.575-44.348 64.879-16.782 131.642-16.782 38.653 0 77.023 5.797 38.369 5.797 76.457 14.16v56.956q-47.827 17-80.718 58.109-32.892 41.109-32.892 93.066v60.739h-374Zm434.001 0v-60.609q0-25.718 12.414-47.816 12.413-22.097 35.239-34.793 37.13-19.065 76.761-28.033 39.63-8.967 81.196-8.967 42.13 0 81.978 9 39.848 9 75.978 28 22.827 11.696 35.522 34.109 12.696 22.412 12.696 48.5v60.609H491.391Zm205.61-234q-43.437 0-73.523-30.087-30.087-30.086-30.087-73.522 0-44.002 30.087-74.089 30.086-30.086 73.523-30.086 44.002 0 74.088 30.086 30.086 30.087 30.086 74.089 0 43.436-30.086 73.522-30.086 30.087-74.088 30.087Zm-305.48-115.827q-68.652 0-116.392-47.74-47.739-47.739-47.739-116.391 0-69.218 47.739-116.675 47.74-47.457 116.392-47.457 68.653 0 116.675 47.457 48.022 47.457 48.022 116.675 0 68.652-48.022 116.391-48.022 47.74-116.675 47.74Z"/></svg>