<svg xmlns="http://www.w3.org/2000/svg" width="48" height="48" viewBox="0 96 960 960"><path d="M173 690.044 30.39 546.87l44.045-43.479 64.956 64.956q-3.87-23.478-5.739-47.456-1.87-23.978-1.87-52.891 0-85.13 27.413-161.674 27.414-76.544 78.24-139.935l45.609 43.479Q240.913 265 217.566 331.065 194.218 397.13 194.218 468q0 26.609 1.934 52.434 1.935 25.826 5.805 52.565l70.173-69.608 43.479 43.479L173 690.044Zm463.478 293L343.39 863.522l27.131-80.174 159.87-30.566-164.782-371.303q-12.131-25.827-2.566-50.588 9.566-24.761 35.392-36.891 26.391-12.13 51.152-2.065 24.761 10.065 36.892 35.891l94.043 211.087 51.565-23.565 256.174 11.434 83 307.87-334.783 148.392Z"/></svg>