<svg xmlns="http://www.w3.org/2000/svg" width="48" height="48" viewBox="0 -960 960 960"><path d="M750-656.001v-43.783q0-37.695 26.761-64.456 26.761-26.761 64.457-26.761 37.695 0 64.739 26.761 27.044 26.761 27.044 64.456v43.783H750Zm-723 0v-43.783q0-37.695 27.043-64.456 27.044-26.761 64.739-26.761 37.696 0 64.457 26.761Q210-737.479 210-699.784v43.783H27Zm0 542.219v-506.002h183v506.002H27Zm219.218 0v-549.393L480-861.479l233.782 198.304v549.393H560V-400H400v286.218H246.218Zm503.782 0v-506.002h183.001v506.002H750ZM480.059-505Q503-505 519-521.059q16-16.059 16-39T518.941-599q-16.059-16-39-16T441-598.941q-16 16.059-16 39T441.059-521q16.059 16 39 16Z"/></svg>