<svg xmlns="http://www.w3.org/2000/svg" width="48" height="48" viewBox="0 -960 960 960"><path d="M634.504-276.826q22.67 0 38.452-15.75 15.783-15.75 15.783-38.25 0-23.334-16.033-39.667-16.032-16.333-37.967-16.333-23.899 0-39.949 16.264-16.051 16.265-16.051 39.5 0 23.236 15.982 38.736 15.982 15.5 39.783 15.5Zm-385.913 0q22.67 0 38.453-15.75 15.782-15.75 15.782-38.25 0-23.334-16.032-39.667-16.033-16.333-37.968-16.333-23.898 0-39.949 16.264-16.051 16.265-16.051 39.5 0 23.236 15.982 38.736 15.982 15.5 39.783 15.5Zm455.293-235.87q-79.753 0-135.47-55.728-55.718-55.728-55.718-135.762 0-78.51 56-134.51 56-56 135-56 79.435 0 135.218 55.782 55.782 55.783 55.782 135.5 0 79.718-55.812 135.218-55.813 55.5-135 55.5Zm-19.71-166.088h43.479v-143h-43.479v143Zm22.022 95.74q11.196 0 18.827-6.791 7.63-6.792 7.63-19.166 0-11.695-7.73-19.108-7.731-7.414-18.227-7.414-12.695 1-19.608 8.414-6.914 7.413-6.914 18.891 0 11.478 7.074 18.326 7.074 6.848 18.948 6.848ZM65.869-65.869v-370.957l99.037-297.87h164.703v-79.783h144.479q-12.288 25.397-18.84 53.375-6.552 27.979-6.552 57.408 0 12.824 1.631 24.826 1.63 12 4.891 23.957H221.957L169.218-494h381.783q35.435 23.669 75.544 34.573 40.108 10.904 82.021 10.904 27.859 0 54.495-4.087 26.635-4.086 51.635-16.086v402.827H718.87v-84H161.13v84H65.869Z"/></svg>