<svg xmlns="http://www.w3.org/2000/svg" width="48" height="48" viewBox="0 -960 960 960"><path d="M149.127-113.782q-52.959 0-89.522-36.563-36.562-36.563-36.562-89.522t36.601-89.655q36.602-36.696 89.616-36.696 9.87 0 19.174 1.435t18.582 4.87l162.853-222.392q-16.609-20.304-26.348-44.936-9.739-24.632-9.739-52.759 0-69.024 48.556-117.621 48.556-48.597 117.522-48.597 68.966 0 117.662 48.597Q646.218-749.024 646.218-680q0 27.925-9.457 52.658-9.456 24.733-26.065 45.037l162.288 223.392q9.278-4.435 18.256-5.87 8.978-1.435 19.5-1.435 53.014 0 89.616 36.563 36.601 36.563 36.601 89.522t-36.562 89.655q-36.563 36.696-89.522 36.696-52.96 0-89.655-36.602-36.696-36.601-36.696-89.616 0-20.901 6.369-38.755 6.37-17.854 18.239-33.288L550.826-529.348q-7.344 3.87-15.128 6.087-7.785 2.218-16.089 3.652v160.783q37.87 12.261 62.239 44.653 24.37 32.391 24.37 74.173 0 53.015-36.563 89.616-36.563 36.602-89.522 36.602t-89.655-36.602Q353.782-186.985 353.782-240q0-41.78 24.087-74.455t62.522-44.371v-160.783q-8.304-1.434-16.089-3.652-7.784-2.217-15.128-6.087L250.87-312.609q11.304 15.435 18.239 33.587 6.934 18.152 6.934 39.022 0 53.015-36.978 89.616-36.978 36.602-89.938 36.602Z"/></svg>