<svg xmlns="http://www.w3.org/2000/svg" width="48" height="48" viewBox="0 -960 960 960"><path d="M400-319.869 344.434-376l63.391-64.391H92.868v-79.218h314.957L344.434-584 400-640.131 560.131-480 400-319.869Zm387.913 227v-774.263h79.219v774.264h-79.219ZM611.826-787.912v-79.219h88.087v79.219h-88.087Zm0 695.045v-79.784h88.087v79.784h-88.087ZM435.739-787.913v-79.219h88.087v79.219h-88.087Zm0 695.045v-79.784h88.087v79.784h-88.087ZM260.652-787.913v-79.219h88.087v79.219h-88.087Zm0 695.045v-79.784h88.087v79.784h-88.087ZM92.868-787.913v-79.219h79.784v79.219H92.868Zm0 695.045v-79.784h79.784v79.784H92.868Z"/></svg>