<svg xmlns="http://www.w3.org/2000/svg" width="48" height="48" viewBox="0 -960 960 960"><path d="m798.696-235.173-58.826-58.262q14.739-23.776 24.891-58.95 10.152-35.174 10.152-76.745 0-123.441-85.697-209.177-85.696-85.736-209.082-85.736-41.004 0-76.677 9.652-35.674 9.653-59.152 25.392l-59.262-59.262q42.745-27.565 92.944-41.565 50.199-14 102.013-14 70.261 0 130.261 22.5t105.261 63.065l56.087-56.087 52.175 51.609-56.088 56.087q45 48.435 66 109.348t21 127.975q0 52.46-13.782 101.808-13.783 49.348-42.218 92.348ZM516.218-516.521V-632.26h-60v54.608l60 61.131ZM805.739-37.912 709.087-134q-47.829 38-104.545 58.5T479.73-55q-77.404 0-145.306-29.63-67.903-29.631-118.881-80.326-50.978-50.696-80.326-118.749-29.348-68.054-29.348-145.628 0-61.363 18.5-118.059t60.5-111.391L52.478-791.173 100-838.13 853.261-85.434l-47.522 47.522Zm-325.469-96.87q50.034 0 93.647-14.463 43.612-14.462 81.039-42.885L244.13-604.086q-28.739 37.435-43.891 82.891-15.152 45.457-15.152 92.065 0 123.442 85.815 208.895 85.815 85.453 209.368 85.453ZM346.999-860v-73.001h266.002V-860H346.999Zm103.044 461.392Zm92.044-92.044Z"/></svg>