<svg xmlns="http://www.w3.org/2000/svg" width="48" height="48" viewBox="0 -960 960 960"><path d="M279.957-150.391q-46.131 0-81.479-33.217-35.348-33.218-40.608-81.783H72.521v-295h104.783L99.13-642l-41 41-44-44 125-125 44 44-41 41 74.261 79.261 68.233-203.87h397.289l73.914 242.13h135.478v303.219h-85.348q-5.261 48.565-40.892 81.217-35.63 32.652-81.019 32.652-42.981 0-75.775-28.717-32.793-28.718-41.923-71.283H397.479q-9.131 42.565-42.327 71.283-33.195 28.717-75.195 28.717Zm1.956-420.218H450.13v-166H337.391l-55.478 166Zm228.217 0h168.783l-50.478-166H510.13v166Zm-230.173 354q25.434 0 42.717-17 17.283-17 17.283-43t-17.283-43q-17.283-17-42.717-17-26 0-43 17t-17 43q0 26 17 43t43 17Zm403.913 0q25.434 0 42.717-17 17.283-17 17.283-43t-17.283-43q-17.283-17-42.717-17-26 0-43 17t-17 43q0 26 17 43t43 17Z"/></svg>