<svg xmlns="http://www.w3.org/2000/svg" width="48" height="48" viewBox="0 -960 960 960"><path d="M633.782-20.782 472.173-181.26l51.609-51.61 73.217 73.783v-137.304H363.001q-30.967 0-51.984-20.643Q290-337.676 290-369.392v-221.781H73.782v-72.436H290v-137.304l-73.782 73.783-50.479-51.61 160.479-161.044L487.827-778.74l-51.609 51.61-73.217-73.783v431.521h523.217v73.001H670v137.304l73.782-73.783 51.044 51.61L633.782-20.782Zm-36.783-408.61v-161.781H423.001v-72.436h173.998q30.967 0 51.984 20.675Q670-622.26 670-591.173v161.781h-73.001Z"/></svg>