<svg xmlns="http://www.w3.org/2000/svg" width="48" height="48" viewBox="0 96 960 960"><path d="M65.869 910.131V241.304h828.827v374.175q-14.956-9.957-36.978-17.718-22.022-7.761-42.805-12.038V394.088L480 611.088l-334.913-217v436.825H526q0 21.348 3.63 41.522 3.631 20.174 11.022 37.696H65.869ZM480 534.087l334.913-213H145.087l334.913 213ZM773 1016q-77.605 0-132.302-54Q586 908 586 829.986q0-78.014 54.698-133Q695.395 642 773 642q77.605 0 132.302 54.986Q960 751.972 960 829.986 960 908 905.302 962q-54.697 54-132.302 54ZM660 849.391h226v-46.782H660v46.782Zm-514.913-18.478v16.675-17.24.565Z"/></svg>