<svg xmlns="http://www.w3.org/2000/svg" width="48" height="48" viewBox="0 -960 960 960"><path d="M535.39-706.22v-73.56h361v73.56h-361Zm0 166.22v-73h361v73h-361Zm0 166.22v-72.44h361v72.44h-361Zm-312.33-66.56q-36.89-37.34-36.89-93.83 0-56.48 37.03-93.66Q260.22-665 316.71-665q56.48 0 93.69 37.14t37.21 93.79q0 56.66-37.34 93.86Q372.93-403 316.44-403q-56.48 0-93.38-37.34ZM64.17-134v-78.84q0-22.55 10.64-42.4 10.64-19.85 28.58-28.5 46.13-33.13 101.24-49.19Q259.74-349 316.52-349T428-331.43q54.7 17.56 102.39 47.69 16.95 11.71 28.08 30.17 11.14 18.46 11.14 40.73V-134H64.17Zm67.44-84v11h370v-11q-39-26-90-42t-95-16q-44 0-95.5 16t-89.5 42Zm227-274.28q16-16.29 16-42 0-25.72-16-41.72t-42-16q-26 0-42 16t-16 41.72q0 25.71 16 42 16 16.28 42 16.28t42-16.28Zm-42-41.72Zm0 327Z"/></svg>