<svg xmlns="http://www.w3.org/2000/svg" width="48" height="48" viewBox="0 -960 960 960"><path d="M225.782-311.782h348.436v-23.827q0-47.188-46.696-74.789Q480.826-438 400-438q-80.826 0-127.522 27.602-46.696 27.601-46.696 74.789v23.827ZM399.93-493q36.766 0 60.114-23.278 23.347-23.278 23.347-60.043 0-36.766-23.277-59.831-23.278-23.066-60.044-23.066t-60.114 22.995q-23.347 22.996-23.347 59.762 0 36.765 23.277 60.113Q363.164-493 399.93-493ZM65.869-145.869v-668.827h668.827V-525l160-160v410l-160-160v289.131H65.869Z"/></svg>