<svg xmlns="http://www.w3.org/2000/svg" width="48" height="48" viewBox="0 -960 960 960"><path d="M600.5-379.5Q650-429 650-500t-49.5-120.5Q551-670 480-670t-120.5 49.5Q310-571 310-500t49.5 120.5Q409-330 480-330t120.5-49.5ZM407-427q-29.96-29.96-29.96-73T407-573q29.96-29.96 73-29.96T553-573q29.96 29.96 29.96 73T553-427q-29.96 29.96-73 29.96T407-427ZM208.09-273.96Q86.7-360.91 27-500q59.7-139.09 181.09-226.04Q329.48-813 480-813q150.52 0 271.91 86.96Q873.3-639.09 933-500q-59.7 139.09-181.09 226.04Q630.52-187 480-187q-150.52 0-271.91-86.96Z"/></svg>