<svg xmlns="http://www.w3.org/2000/svg" width="48" height="48" viewBox="0 0 48 48"><path d="M38 34.1v-3.95h4v3.95Zm0-8.1v-4h6.15v4Zm0-8.15v-4h8.35v4ZM13.55 45.3 11 36q-2.8-1.8-4.5-4.95Q4.8 27.9 4.8 24t1.7-7.075Q8.2 13.75 11 12l2.55-9.3h11.9l2.6 9.3q2.8 1.75 4.5 4.925 1.7 3.175 1.7 7.075 0 3.9-1.7 7.05T28.05 36l-2.6 9.3Zm5.95-10.55q4.5 0 7.625-3.125T30.25 24q0-4.5-3.125-7.625T19.5 13.25q-4.5 0-7.625 3.125T8.75 24q0 4.5 3.125 7.625T19.5 34.75ZM15.4 10q1.05-.3 2.075-.45Q18.5 9.4 19.5 9.4q1.05 0 2.075.15Q22.6 9.7 23.6 10l-.85-3.65H16.3Zm.9 31.65h6.45L23.6 38q-1 .25-2.025.4-1.025.15-2.075.15-1 0-2.025-.15T15.4 38Zm-.9-35.3h8.2-8.2Zm.9 35.3h-.9 8.2-.85Z"/></svg>