<svg xmlns="http://www.w3.org/2000/svg" width="48" height="48" viewBox="0 96 960 960"><path d="M686.218 1029q102.261 0 174.522-72.166 72.261-72.167 72.261-174.616h-66.783q0 75-52.5 127.5t-127.5 52.5V1029ZM26.999 369.782h66.783q0-75 52.5-127.5t127.5-52.5v-66.783q-102.261 0-174.522 72.167Q27 267.333 27 369.782Zm111.175 548.044Q37.217 816.87 37.217 675t101.522-242.827l221.044-221.044 84.435 84.435 176.565-176.565 87.391 87.391 56.435-56.435L900.784 286.13l-43 43 92.087 91.522-83 83 85.565 86.13-328.044 328.044Q522.435 1019.78 380.783 1019.28q-141.653-.5-242.609-101.454Zm51.044-51.044q40 39.435 89.5 59.218 49.5 19.782 101 19.782T481 926q49.783-19.783 89.218-59.218l276.565-276.565-42-42-163 163-43-43.565 248-248-42-42-218.565 218.565-43-42.435 261.565-261.463-42-42.051-262.565 262.463-42-42.104 205.565-205.359-42-42.051-286.409 286.565q21.032 52 13.015 105.5t-46.085 95.5l-42.086-42q32.619-37 32.619-85t-32.619-85l141.565-141.471-42-42.094L189.33 485.67Q149.783 525.217 130 575q-19.782 49.782-19.782 101.282t19.782 101q19.783 49.5 59.218 89.5Z"/></svg>