<svg xmlns="http://www.w3.org/2000/svg" width="48" height="48" viewBox="0 -960 960 960"><path d="M241.044-347.956 169-419.435q63-63 142.5-101.782Q391-560 480-560t168.5 38.5Q728-483 791-420l-72.044 72.044q-49.304-48.174-110.043-78.609Q548.174-456.999 480-456.999t-128.913 30.434q-60.739 30.435-110.043 78.609Zm-169-169L0-589q96-98 219.5-154.5T480-800q137 0 260.5 56.5T960-589l-72.044 72.044q-84.869-79.739-188.826-129.891Q595.174-696.999 480-696.999q-115.174 0-219.13 50.152-103.957 50.152-188.826 129.891ZM480-109 332-258q29-29 67.5-45.5T480-320q42 0 80.5 16.5T628-258L480-109Z"/></svg>