<svg xmlns="http://www.w3.org/2000/svg" width="48" height="48" viewBox="0 -960 960 960"><path d="M642-105.87v-198h41v-39q0-33.43 24-57.72 24-24.28 58-24.28t58 24.28q24 24.29 24 57.72v39h41v198H642Zm81-198h84v-39q0-18.43-11.5-30.22-11.5-11.78-30.5-11.78t-30.5 11.78Q723-361.3 723-342.87v39ZM480-87.22 0-600q98.43-96.26 220.15-151.8Q341.87-807.35 480-807.35q138.13 0 259.85 55.55Q861.57-696.26 960-600L845.09-473.35q-14.96-13.34-28.98-25.87-14.02-12.53-28.98-25.87l60-64.95q-81.91-64.05-172.98-100.79-91.07-36.73-194.22-36.73t-194.15 36.73q-91 36.74-172.91 100.79L480-204.26l51.52-52.09q13.61 14.87 27 28.42 13.39 13.54 27 27.84L480-87.22Zm0-378.69Z"/></svg>