<svg xmlns="http://www.w3.org/2000/svg" width="48" height="48" viewBox="0 -960 960 960"><path d="M653.26-561.6q-12.35-12.68-12.35-31.04t12.35-30.71q12.35-12.35 30.71-12.35t30.76 12.35q12.4 12.35 12.4 30.71t-12.4 31.04q-12.4 12.69-30.76 12.69t-30.71-12.69Zm-60.95-82.18-42.53-43.52q27.13-27.14 61.51-42.77 34.37-15.63 73.04-15.63 38.67 0 72.74 15.63 34.06 15.63 61.19 42.77l-41.95 43.52q-19-18.73-42.5-29.43t-49.5-10.7q-26.57 0-49.79 10.56-23.21 10.57-42.21 29.57ZM778.3-105.87q-108 0-227.82-57.91-119.83-57.92-224.09-162.18Q221.13-429.65 163.5-548.07q-57.63-118.42-57.63-229.67v-76.96h247.22l46.22 208.79-128.87 122.95q25.82 40.56 53.02 75.35 27.19 34.78 56.95 65.11 33.72 33.72 70.76 62.39 37.05 28.67 78.39 51.28l127.18-130.04 197.96 44.42v248.58h-76.4ZM231.83-594.78l80.43-78.05-22.43-102.08H186.22q-1.13 35.17 9.8 79.06 10.94 43.89 35.81 101.07Zm370.69 365.26q37.05 17.3 82.5 29.02 45.46 11.72 89.89 14.28v-104.64l-94.52-19.97-77.87 81.31ZM231.83-594.78Zm370.69 365.26Z"/></svg>