<svg xmlns="http://www.w3.org/2000/svg" width="48" height="48" viewBox="0 -960 960 960"><path d="M794-134.478 825.522-166l-85.696-77.349v-126.042h-48.217v140.521L794-134.478ZM386.218-727.913h187.564v-100H386.218v100ZM720-47q-79 0-136-57t-57-136q0-79 57-136t136-57q79 0 136 57t57 136q0 79-57 136T720-47ZM65.869-105.869v-622.044h241.13v-179.219h346.002v179.219h241.695v304.783q-36.715-33.408-80.879-51.639Q769.652-493 720-493q-104 0-178.5 74.5T467-240q0 39.522 9.478 70.196 9.479 30.674 29.435 63.935H65.869Z"/></svg>