<svg xmlns="http://www.w3.org/2000/svg" width="48" height="48" viewBox="0 96 960 960"><path d="M275.694 1009.35q-8.261 0-14.174-5.91-5.913-5.917-5.913-14.178V853.435q0-7.695 5.913-13.891t14.174-6.196h106.305v43.566h-86.217v30h66.13q8.261 0 14.174 5.913t5.913 14.174v62.261q0 8.261-5.913 14.178-5.913 5.91-14.174 5.91h-86.218Zm176.305 0V833.348h109.219v43.566H495v30h46.218v42.436H495v60h-43.001Zm186.002 0V876.914h-43.392v-43.566h129.784v43.566h-43.392v132.436h-43Zm-342.219-42.436h46.608v-30h-46.608v30ZM200 787.566 70.956 658.522 200 529.478l41.783 41.783-53.87 53.869h584.739l-54.435-53.869L760 529.478l129.044 129.044L760 787.566l-41.783-41.783 54.435-53.87H187.913l53.87 53.87L200 787.566ZM70.39 483.261v-23.174q0-23.373 13.07-43.698t35.583-30.346q25.644-11.087 53.299-16.827 27.655-5.739 57.722-5.739 30.066 0 57.678 5.739 27.612 5.74 53.215 16.827 22.514 10.021 35.583 30.346 13.069 20.325 13.069 43.698v23.174H70.391Zm500.001 0v-23.174q0-23.373 13.069-43.698t35.583-30.346q25.644-11.087 53.299-16.827 27.655-5.739 57.722-5.739 30.066 0 57.678 5.739 27.612 5.74 53.215 16.827 22.514 10.021 35.583 30.346 13.069 20.325 13.069 43.698v23.174H570.391ZM229.956 311.304q-34.644 0-59.605-24.943-24.96-24.943-24.96-59.501 0-35.122 25.005-59.949 25.004-24.826 59.648-24.826 34.644 0 59.605 24.778 24.96 24.778 24.96 60.066 0 34.722-25.005 59.548-25.004 24.827-59.648 24.827Zm500 0q-34.644 0-59.605-24.943-24.96-24.943-24.96-59.501 0-35.122 25.005-59.949 25.004-24.826 59.648-24.826 34.644 0 59.605 24.778 24.96 24.778 24.96 60.066 0 34.722-25.005 59.548-25.004 24.827-59.648 24.827Z"/></svg>