<svg xmlns="http://www.w3.org/2000/svg" width="48" height="48" viewBox="0 96 960 960"><path d="M520 696h50v-90l83.878 90h65.557L608 576l111.435-120h-65.557L570 546v-90h-50v240Zm-208.609 0h58l65-192q6-18.462-7-33.231-13-14.769-31-14.769h-137v50h117l-65 190ZM185.087 950.131q-32.507 0-55.862-23.356-23.356-23.355-23.356-55.862V281.087q0-32.74 23.356-56.262 23.355-23.521 55.862-23.521h589.826q32.74 0 56.262 23.521 23.521 23.522 23.521 56.262v589.826q0 32.507-23.521 55.862-23.522 23.356-56.262 23.356H185.087Zm0-79.218h589.826V281.087H185.087v589.826Zm0-589.826v589.826-589.826Z"/></svg>