<svg xmlns="http://www.w3.org/2000/svg" width="48" height="48" viewBox="0 -960 960 960"><path d="M673.218-356.609q-16.682 0-26.754-10.234-10.073-10.235-10.073-27.157v-172q0-16.922 10.073-27.157 10.072-10.234 26.754-10.234h139q16.922 0 27.156 10.234 10.235 10.235 10.235 27.157v49.391h-54.218v-32H690.609v137.218h104.782v-32h54.218v49.232q0 16.855-10.235 27.203-10.234 10.347-27.156 10.347h-139Zm-296.609 0v-246.782h176.5q16.813 0 27.048 10.234 10.234 10.235 10.234 27.157v48.609q0 17.911-10.234 27.651Q569.922-480 553-480q16.922 0 27.157 9.74 10.234 9.74 10.234 27.651V-394q0 16.922-10.234 27.157-10.235 10.234-27.048 10.234h-176.5ZM431.391-504h104.218v-44.609H431.391V-504Zm0 92.609h104.218V-456H431.391v44.609Zm-321 54.782v-209.48q0-16.833 10.235-27.068 10.234-10.234 27.156-10.234h139q16.682 0 26.754 10.234 10.073 10.235 10.073 27.035v209.513h-54.218v-77H164.609v77h-54.218Zm54.218-131.782h104.782v-60.218H164.609v60.218Z"/></svg>