<svg xmlns="http://www.w3.org/2000/svg" width="48" height="48" viewBox="0 -960 960 960"><path d="M688.695-145.869v-120h-120v-66.218h120v-120h66.783v120h120v66.218h-120v120h-66.783Zm-244.913-120H280q-89.28 0-151.706-62.413-62.425-62.412-62.425-151.546 0-89.134 62.425-152.001Q190.72-694.696 280-694.696h163.782v79.783h-163.54q-56.738 0-95.947 39.069-39.208 39.069-39.208 95.609 0 56.539 39.208 95.844 39.209 39.304 95.947 39.304h163.54v79.218Zm-128.391-180.74v-66.782h308.304v66.782H315.391ZM894.696-480h-79.783q0-56.304-39.279-95.609-39.279-39.304-95.392-39.304h-164.59v-79.783H680q89.099 0 151.898 62.798Q894.696-569.099 894.696-480Z"/></svg>