<svg xmlns="http://www.w3.org/2000/svg" width="48" height="48" viewBox="0 -960 960 960"><path d="M261.17-105.87q-50.82 0-94.05-24.87-43.24-24.88-69.12-68.78-24.7-43.26-25.48-92.94-.78-49.67 25.48-92.37l32.65-55.56h193l193.83 334.52H261.17Zm-84.21-413.74 140.87-241.87q25.69-43.26 68.52-68.24Q429.17-854.7 480-854.7q49.83 0 92.37 24.98 42.54 24.98 68.24 68.24l45.22 76.13-95.22 165.74H176.96ZM743.39-25.87v-120h-120v-70.74h120v-120h71.31v120h120v70.74h-120v120h-71.31ZM601.26-382.52l130.31-224.61 94.52 163.35q-60.44-10.26-119 4.91-58.57 15.17-105.83 56.35Z"/></svg>