<svg xmlns="http://www.w3.org/2000/svg" width="48" height="48" viewBox="0 -960 960 960"><path d="M145.087-145.869q-32.507 0-55.862-23.356-23.356-23.355-23.356-55.862v-509.826q0-32.74 23.356-56.262 23.355-23.521 55.862-23.521h669.826q32.74 0 56.262 23.521 23.521 23.522 23.521 56.262v232.783H145.087v277.043H537.87v79.218H145.087Zm0-495.261h669.826v-93.783H145.087v93.783ZM777.739-83.957v-113.782H663.957v-64.522h113.782v-113.782h64.522v113.782h113.782v64.522H842.261v113.782h-64.522Zm-632.652-141.13v-509.826 509.826Z"/></svg>