<svg xmlns="http://www.w3.org/2000/svg" width="48" height="48" viewBox="0 -960 960 960"><path d="M505.305-299.435q-42.349 42.826-102.697 42.826-60.347 0-103.173-42.714-42.261-42.394-42.261-102.275 0-59.881 42.261-102.707L455.826-661.13q42.811-42.261 103.21-42.261 60.399 0 103.225 42.149 42.261 42.541 42.261 102.631T662.261-456.26L505.305-299.435Zm-152.41-53.584q17.757 17.757 45.866 21.649 28.109 3.891 52.804-20.804l52.391-53.956-97.826-97.826L352.74-451q-20.739 20.801-20.739 48.944 0 28.143 20.894 49.037Zm256.061-253.807q-18.478-17.912-46.586-21.804-28.109-3.891-52.24 20.804l-53.521 53.956L555-455.479 608.956-509q20.174-20.936 19.956-49.011-.217-28.076-19.956-48.815ZM185.087-105.869q-32.677 0-55.948-23.27-23.27-23.271-23.27-55.948v-589.826q0-32.91 23.27-56.347 23.271-23.436 55.948-23.436h190.869q8.392-35 37.087-57.5 28.696-22.5 66.957-22.5 38.261 0 66.957 22.5 28.695 22.5 37.087 57.5h190.869q32.91 0 56.347 23.436 23.436 23.437 23.436 56.347v589.826q0 32.677-23.436 55.948-23.437 23.27-56.347 23.27H185.087Zm0-79.218h589.826v-589.826H185.087v589.826ZM480-793.609q15.96 0 27.176-11.215Q518.391-816.04 518.391-832q0-15.96-11.215-27.176Q495.96-870.391 480-870.391q-15.96 0-27.176 11.215Q441.609-847.96 441.609-832q0 15.96 11.215 27.176Q464.04-793.609 480-793.609ZM185.087-185.087v-589.826 589.826Z"/></svg>