<svg xmlns="http://www.w3.org/2000/svg" width="48" height="48" viewBox="0 96 960 960"><path d="M471.391 835.218q-105.609-3.304-178.109-78.239-72.5-74.935-72.5-181.202 0-108.056 75.369-183.808 75.37-75.753 183.849-75.753 105.837 0 180.876 73.066 75.038 73.066 78.908 179.675L663.218 545q-10.435-66.826-61.696-111.022-51.261-44.196-121.762-44.196-77.36 0-131.669 54.196-54.309 54.196-54.309 131.873 0 69.775 44.196 121.071 44.196 51.296 110.457 62.296l22.956 76ZM521.087 1000q-10.272 1-20.261 1.5-9.989.5-20.826.5-88.087 0-165.873-33.424-77.786-33.426-135.531-91.172-57.746-57.745-91.172-135.531Q54 664.087 54 576q0-88.087 33.425-165.873 33.426-77.786 91.172-135.531 57.745-57.746 135.531-91.172Q391.913 149.999 480 149.999q88.087 0 165.873 33.425 77.786 33.426 135.531 91.172 57.746 57.745 91.172 135.531Q906.001 487.913 906.001 576q0 10.884-.5 21.203-.5 10.319-1.5 20.449l-71-21.579V576q0-146.889-103.096-249.945-103.097-103.056-250.044-103.056-146.948 0-249.905 103.096-102.957 103.097-102.957 250.044 0 146.948 103.056 249.905T480 929.001h19.696L521.087 1000Zm306.131 9L653.136 834.609l-50.31 152.131L480 576l410.74 122.826-152.131 50.31 174.392 174.082L827.218 1009Z"/></svg>