<svg xmlns="http://www.w3.org/2000/svg" width="48" height="48" viewBox="0 96 960 960"><path d="M623.391 898.001H309.609q-32.663 0-55.941-23.278-23.277-23.277-23.277-55.941V364h73v461h320v73.001ZM449.327 338q-36.848 0-62.327-25.285-25.478-25.286-25.478-61.793 0-36.74 25.492-62.331 25.493-25.592 62.291-25.592 37.024 0 62.121 25.381t25.097 62.022q0 36.641-25.174 62.12Q486.176 338 449.327 338Zm214.064 638V785h-245q-30.937 0-52.968-21.737-22.032-21.738-22.032-52.263V490.348q0-43.001 30.841-73.674Q405.072 386 449.192 386q43.374 0 74.417 30.674 31.044 30.673 31.044 73.674v188.434h99.956q30.938 0 52.969 21.738 22.031 21.737 22.031 52.262V976h-66.218Z"/></svg>