<svg xmlns="http://www.w3.org/2000/svg" width="48" height="48" viewBox="0 96 960 960"><path d="M562.304 942.218v-109L609.999 646H339.784q-43.098 0-72.942-30.172-29.843-30.171-29.843-72.612V202.999h239.219v256.783h199.086q32.667 0 55.638 22.971 22.971 22.971 23.971 55.638L667.782 837.13h73.023q21.361 0 36.039 14.881 14.677 14.88 14.677 37.985 0 23.104-14.032 37.663-14.033 14.559-35.034 14.559H562.304Zm-95.305-153.217H173.782q-33.49 0-56.637-23.278-23.146-23.277-23.146-55.941V202.999h73V716h300v73.001Z"/></svg>