<svg xmlns="http://www.w3.org/2000/svg" width="48" height="48"><path d="M17.8 34.3h12.4q.85 0 1.45-.575t.6-1.475V11.6q0-.85-.6-1.45t-1.45-.6H17.8q-.85 0-1.45.6t-.6 1.45v20.65q0 .9.6 1.475.6.575 1.45.575zm2.1-4.1V13.7h8.25v16.5zM24 46.7q-2.35-3.4-5.15-4.575-2.8-1.175-3.05-1.275-5.35-2.2-8.9-7.35-3.55-5.15-3.55-11.55 0-4.3 1.625-8.05Q6.6 10.15 9.4 7.35t6.55-4.45Q19.7 1.25 24 1.25q4.3 0 8.05 1.65 3.75 1.65 6.55 4.45 2.8 2.8 4.425 6.55t1.625 8.05q0 6.35-3.55 11.525-3.55 5.175-8.9 7.375-.25.1-3.05 1.275Q26.35 43.3 24 46.7zm0-6.05q1.45-1.2 3.125-2.15t3.625-1.55q4.35-1.8 7.075-5.975Q40.55 26.8 40.55 21.95q0-6.85-4.85-11.7T24 5.4q-6.85 0-11.7 4.825T7.45 21.95q0 4.85 2.725 9.025Q12.9 35.15 17.3 36.95q1.9.6 3.575 1.55 1.675.95 3.125 2.15zM24 23z"/></svg>