<svg xmlns="http://www.w3.org/2000/svg" width="48" height="48" viewBox="0 96 960 960"><path d="m840 781.435-26.699-58.736L754.565 696l58.736-26.699L840 610.565l26.699 58.736L925.435 696l-58.736 26.699L840 781.435ZM640 733l-49.062-107.938L483 576l107.938-49.062L640 419l49.062 107.938L797 576l-107.938 49.062L640 733Zm200-191.565-26.699-58.736L754.565 456l58.736-26.699L840 370.565l26.699 58.736L925.435 456l-58.736 26.699L840 541.435ZM266.218 1029q-32.678 0-55.948-23.27-23.271-23.27-23.271-55.948V202.218q0-32.678 23.271-55.948 23.27-23.271 55.948-23.271h427.564q32.678 0 55.948 23.271 23.271 23.27 23.271 55.948V342h-79.219v-49.782H266.218v567.564h427.564V810h79.219v139.782q0 32.678-23.271 55.948-23.27 23.27-55.948 23.27H266.218Zm0-109.218v30h427.564v-30H266.218Zm0-687.564h427.564v-30H266.218v30Zm0 0v-30 30Zm0 687.564v30-30Z"/></svg>