<svg xmlns="http://www.w3.org/2000/svg" width="48" height="48" viewBox="0 -960 960 960"><path d="M508.17-284.24q11.92-11.59 11.92-28.18 0-16.58-11.99-28.49-11.98-11.92-28.17-11.92t-28.1 11.88q-11.92 11.87-11.92 28.45 0 16.59 11.99 28.22 11.98 11.63 28.17 11.63t28.1-11.59Zm-62.56-118.15h66.78v-287.22h-66.78v287.22ZM185.09-105.87q-32.68 0-55.95-23.27-23.27-23.27-23.27-55.95v-589.82q0-32.91 23.27-56.35 23.27-23.44 55.95-23.44h190.87q8.39-35 37.08-57.5 28.7-22.5 66.96-22.5 38.26 0 66.96 22.5 28.69 22.5 37.08 57.5h190.87q32.91 0 56.35 23.44 23.44 23.44 23.44 56.35v589.82q0 32.68-23.44 55.95-23.44 23.27-56.35 23.27H185.09Zm0-79.22h589.82v-589.82H185.09v589.82Zm321.95-619.87q11.35-11.34 11.35-27.04t-11.35-27.04Q495.7-870.39 480-870.39t-27.04 11.35Q441.61-847.7 441.61-832t11.35 27.04q11.34 11.35 27.04 11.35t27.04-11.35ZM185.09-185.09v-589.82 589.82Z"/></svg>