<svg xmlns="http://www.w3.org/2000/svg" width="48" height="48" viewBox="0 -960 960 960"><path d="M334.13-135.22q-68.04-29.34-118.8-80.11-50.77-50.76-80.11-118.8-29.35-68.04-29.35-145.87 0-44.26 10.85-86.8 10.84-42.55 30.98-80.74 20.13-38.2 48.04-71.11 27.91-32.92 61.91-57.35l278.18 278.17-47.09 48.09-226.61-226.04q-37.3 40.87-57.17 90.67Q185.09-535.3 185.09-480q0 123.3 85.8 209.11 85.81 85.8 209.11 85.8 123.3 0 209.11-85.8 85.8-85.81 85.8-209.11 0-114.61-76.74-199.13t-190.78-94.78v100h-66.78V-854.7H478q77.83 0 146.37 29.63t119.52 80.4q50.98 50.76 80.89 118.8Q854.7-557.83 854.7-480t-29.63 145.87q-29.63 68.04-80.4 118.8-50.76 50.77-118.8 80.11-68.04 29.35-145.87 29.35t-145.87-29.35Zm-95.19-317.24Q227.09-464.3 227.09-482t11.85-29.54q11.84-11.85 29.54-11.85 17.69 0 29.54 11.85 11.85 11.84 11.85 29.54t-11.85 29.54q-11.85 11.85-29.54 11.85-17.7 0-29.54-11.85Zm209.52 212.52q-11.85-11.84-11.85-29.54 0-17.69 11.85-29.54 11.84-11.85 29.54-11.85t29.54 11.85q11.85 11.85 11.85 29.54 0 17.7-11.85 29.54-11.84 11.85-29.54 11.85t-29.54-11.85Zm212.52-212.52Q649.13-464.3 649.13-482t11.85-29.54q11.85-11.85 29.54-11.85 17.7 0 29.54 11.85 11.85 11.84 11.85 29.54t-11.85 29.54q-11.84 11.85-29.54 11.85-17.69 0-29.54-11.85Z"/></svg>