<svg xmlns="http://www.w3.org/2000/svg" width="48" height="48" viewBox="0 -960 960 960"><path d="M264.52-65.87q-32.5 0-55.86-23.35-23.36-23.36-23.36-55.87v-422.82q0-32.74 23.36-56.26 23.36-23.53 55.86-23.53h430.96q32.5 0 55.86 23.53 23.36 23.52 23.36 56.26v422.82q0 32.51-23.36 55.87-23.36 23.35-55.86 23.35H264.52Zm0-79.22h430.96v-422.82H264.52v422.82Zm179.83-48.04h71.3v-49.48h-71.3v49.48Zm0-85.96h71.3q0-19.87 9.32-37.16 9.32-17.29 20.86-34.58 9.87-16.43 18.52-33.21t8.65-35.23q0-37.03-27.78-61.9-27.79-24.87-65.22-24.87t-64.72 24.97Q388-456.1 388-419.61q0 18.62 7.87 35.77 7.87 17.14 18.3 33.01 9.87 17 20.03 34.3 10.15 17.3 10.15 37.44ZM228.43-712.22q0-24.95 17.85-42.22 17.84-17.26 43.33-17.26h382.35q24.83 0 42.22 17.14t17.39 42.34H228.43Zm43.13-123q0-24.95 17.39-42.22 17.39-17.26 42.22-17.26h297.66q25.49 0 43.33 17.14T690-835.22H271.56ZM480-357Z"/></svg>