<svg xmlns="http://www.w3.org/2000/svg" width="48" height="48" viewBox="0 96 960 960"><path d="M268.463 430.999q-32.246 0-55.159-22.834-22.913-22.833-22.913-55.457 0-32.623 22.928-55.536 22.929-22.913 55.174-22.913 32.246 0 55.442 22.901 23.195 22.9 23.195 55.107 0 32.905-23.211 55.819-23.211 22.913-55.456 22.913ZM192.043 1002q-20.256 0-36.149-13.555Q140 974.889 140 955.218q-33.257 0-56.238-22.98-22.98-22.981-22.98-56.238V596.216H190.39v-24.402q0-39.163 27.826-66.989 27.826-27.826 67.162-27.826 21.979 0 42.512 8.658t35.544 25.559l52 59q7 8 14.218 14.5 7.217 6.5 15.782 11.5H720V276.054q0-19.1-12.5-32.686-12.5-13.586-31.5-13.586-9.317 0-18.376 1.718-9.059 1.717-15.494 8.152l-45.782 45.782q6.696 21.307-.761 42.589-7.457 21.281-21.544 40.107L455.086 254.173q19.261-14.885 42-22.16 22.74-7.275 45.262 1.42l52-51q15.654-16.396 37.127-24.415 21.473-8.019 44.525-8.019 51.703 0 87.743 36.935 36.041 36.935 36.041 88.848v320.434h100V876q0 33.257-23.147 56.238-23.147 22.98-56.637 22.98 0 19.671-15.894 33.227Q788.213 1002 766.782 1002H192.043ZM140 876h680V676H140v200Zm680 0H140h680Z"/></svg>