<svg xmlns="http://www.w3.org/2000/svg" width="48" height="48" viewBox="0 -960 960 960"><path d="M342.261-145.087Zm-39.609 79.218q-17.272 0-28.723-11.451-11.452-11.451-11.452-28.158v-685.044q0-16.636 11.452-28.405 11.451-11.769 28.723-11.769h87.739v-64h179.218v64h88.304q16.707 0 28.158 11.769 11.452 11.769 11.452 28.405v324.521q-20.522-2.261-40.61-.543-20.087 1.717-39.174 7.848v-292.217H342.261v605.826h133.347q10.13 23.217 24.391 43.022 14.261 19.805 33.349 36.196H302.652Zm345 0V-193.13H524.826v-79.783h122.826v-122.261h79.218v122.261h127.826v79.783H726.87v127.261h-79.218Z"/></svg>