<svg xmlns="http://www.w3.org/2000/svg" width="48" height="48" viewBox="0 -960 960 960"><path d="M442.652-399.043h75.261v-255.262h-75.261v255.262Zm37.57 156.783q15.614 0 26.653-10.979 11.038-10.978 11.038-26.592 0-15.614-11.163-26.652-11.164-11.039-27.028-11.039-15.113 0-26.092 11.164-10.978 11.163-10.978 27.027 0 15.114 10.978 26.092 10.979 10.979 26.592 10.979ZM302.932-65.869q-17.552 0-29.003-11.451-11.452-11.451-11.452-28.158v-685.044q0-16.636 11.452-28.405 11.451-11.769 28.723-11.769h87.739v-64h179.218v64h88.304q16.707 0 28.158 11.769 11.452 11.769 11.452 28.405v685.044q0 16.707-11.452 28.158-11.451 11.45-28.158 11.45H302.932Zm39.329-79.218h275.478v-605.826H342.261v605.826Zm0 0h275.478-275.478Z"/></svg>