<svg xmlns="http://www.w3.org/2000/svg" width="48" height="48" viewBox="0 96 960 960"><path d="M480 1029 175.652 800.348q-15.18-11.433-22.481-28.986-7.302-17.552-7.302-37.71V236.565q0-31.913 23.356-55.566 23.355-23.652 55.862-23.652h509.826q32.74 0 56.262 23.652 23.521 23.653 23.521 55.566v497.087q0 20.161-7.16 37.716-7.16 17.556-23.188 28.98L480 1029Zm0-99.305 254.913-195.992V236.565H225.087v497.087L480 929.695Zm-42-233.13 230.522-229.956-48.087-46.522-183.435 184-99.565-99.566-45.957 47.088L438 696.565Zm42-460H225.087h509.826H480Z"/></svg>