<svg xmlns="http://www.w3.org/2000/svg" width="48" height="48" viewBox="0 -960 960 960"><path d="M619.609-519.609v-250h190.782q32.507 0 55.862 23.356 23.356 23.355 23.356 55.862v170.782h-270Zm-470 329.218q-32.507 0-55.863-23.356-23.355-23.355-23.355-55.862v-420.782q0-32.507 23.355-55.862 23.356-23.356 55.863-23.356h390.782v579.218H149.609Zm155.749-230q24.99 0 42.316-17.793Q365-455.977 365-479.967q0-24.99-17.293-42.316-17.293-17.326-42.283-17.326-23.99 0-41.816 17.293-17.826 17.293-17.826 42.283 0 23.99 17.793 41.816 17.793 17.826 41.783 17.826Zm314.251 230v-250h270v170.782q0 32.507-23.356 55.862-23.355 23.356-55.862 23.356H619.609Z"/></svg>