<svg xmlns="http://www.w3.org/2000/svg" width="48" height="48" viewBox="0 -960 960 960"><path d="M607.725-35.694q-27.16 0-46.402-18.888t-19.242-46.2h-481.3v-79.783h80.001v-678.653h678.436v678.653h80v79.783H670.652q0 26.965-18.448 46.026-18.449 19.062-44.479 19.062Zm-387.16-647.219h351.609v-96.522H220.565v96.522Zm422.348 0h96.522v-96.522h-96.522v96.522ZM220.565-515.652h351.609v-96.522H220.565v96.522Zm422.348 0h96.522v-96.522h-96.522v96.522ZM220.565-347.826h351.609v-96.522H220.565v96.522Zm422.348 0h96.522v-96.522h-96.522v96.522ZM220.565-180.565h351.609v-96.522H220.565v96.522Zm422.348 0h96.522v-96.522h-96.522v96.522Z"/></svg>