<svg xmlns="http://www.w3.org/2000/svg" width="48" height="48" viewBox="0 96 960 960"><path d="M479.922 990.131q-85.904 0-161.37-32.63-75.465-32.631-131.726-88.892-56.261-56.261-88.61-131.804Q65.87 661.261 65.87 574.87q0-85.261 32.52-160.719t88.67-131.521q56.152-56.062 131.632-88.694 75.481-32.632 161.32-32.632 85.84 0 161.249 32.6 75.409 32.601 131.509 88.609 56.099 56.008 89.012 131.552 32.913 75.544 32.913 160.805 0 86.391-32.576 162.024-32.576 75.632-88.824 131.688-56.249 56.056-131.859 88.803-75.611 32.746-161.515 32.746Zm.078-79.218q140.114 0 237.513-97.682 97.4-97.682 97.4-238.361 0-56.765-18.739-110.078t-53.913-97.052L272.305 837.13q42.335 37.271 96.302 55.527Q422.575 910.913 480 910.913ZM218.739 782.565 687.13 313.609q-44.408-35.85-97.134-54.186Q537.271 241.087 480 241.087q-140.114 0-237.513 97.045-97.4 97.044-97.4 236.738 0 57.621 19.901 110.954 19.901 53.333 53.751 96.741Z"/></svg>