<svg xmlns="http://www.w3.org/2000/svg" width="48" height="48" viewBox="0 -960 960 960"><path d="M849.609-328.826h-40v145.999q0 22.309-10.043 39.72-10.044 17.411-27.001 27.955-16.956 10.543-37.544 12.609-20.587 2.065-40.109-8.196L101.001-407.477q-22.338-11.077-33.039-30.662t-10.701-40.676q0-20.837 10.701-40.261 10.701-19.424 33.039-30.447L694.912-845.13q19.604-10.261 40.066-8.447 20.461 1.815 37.61 12.125 16.934 10.148 26.978 27.559 10.043 17.411 10.043 39.72v144.564h40v79.218H690.391v-79.218h40v-142.564l-199.217 97.825q29.739 43.435 47.109 91.83Q595.652-534.122 595.652-480q0 56-17.869 104.456-17.87 48.457-48.609 92.326l200.217 99.391v-144.999h-39v-80.783h159.218v80.783Zm-392.392 9.13q25.609-34.609 42.13-74.689 16.522-40.079 16.522-85.615 0-45.806-16.022-84.25-16.021-38.445-42.195-73.619L136.479-478.435l320.738 158.739Z"/></svg>