<svg xmlns="http://www.w3.org/2000/svg" width="48" height="48" viewBox="0 96 960 960"><path d="M360.565 735.435q-17 0-28.5-11.46-11.5-11.459-11.5-28.399v-79.717q16.435 0 28.218-11.46Q360.565 592.94 360.565 576t-11.782-28.399q-11.783-11.46-28.218-11.46v-79.717q0-16.94 11.5-28.399 11.5-11.46 28.5-11.46h238.87q17 0 28.5 11.46 11.5 11.459 11.5 28.399v79.717q-16.435 0-28.218 11.46Q599.435 559.06 599.435 576t11.782 28.399q11.783 11.46 28.218 11.46v79.717q0 16.94-11.5 28.399-11.5 11.46-28.5 11.46h-238.87Zm119.435-60q8 0 14-5.718 6-5.717 6-14.282 0-8-6-13.718Q488 636 480 636t-14 5.717q-6 5.718-6 13.718 0 8.565 6 14.282 6 5.718 14 5.718ZM480 596q8 0 14-6t6-14q0-8-6-14t-14-6q-8 0-14 6t-6 14q0 8 6 14t14 6Zm0-80q8 0 14-5.717 6-5.718 6-13.718 0-8.565-6-14.282-6-5.718-14-5.718t-14 5.718q-6 5.717-6 14.282 0 8 6 13.718Q472 516 480 516Zm-213.782 513q-32.479 0-55.849-23.37-23.37-23.369-23.37-55.848V202.218q0-32.479 23.37-55.849 23.37-23.37 55.849-23.37h427.564q32.479 0 55.849 23.37 23.37 23.37 23.37 55.849v747.564q0 32.479-23.37 55.848-23.37 23.37-55.849 23.37H266.218Zm0-169.218h427.564V292.218H266.218v567.564Z"/></svg>