<svg xmlns="http://www.w3.org/2000/svg" width="48" height="48" viewBox="0 -960 960 960"><path d="M105.869-105.869v-79.218h79.218v79.218h-79.218Zm0-167.261v-79.783h79.218v79.783h-79.218Zm0-167.261v-79.218h79.218v79.218h-79.218Zm0-167.261v-79.783h79.218v79.783h-79.218Zm0-167.261v-79.783h748.827v79.783H105.869ZM273.13-105.869v-79.218h79.783v79.218H273.13Zm0-334.522v-79.218h79.783v79.218H273.13Zm167.261 334.522v-79.218h79.218v79.218h-79.218Zm0-167.261v-79.783h79.218v79.783h-79.218Zm0-167.261v-79.218h79.218v79.218h-79.218Zm0-167.261v-79.783h79.218v79.783h-79.218Zm167.261 501.783v-79.218h79.783v79.218h-79.783Zm0-334.522v-79.218h79.783v79.218h-79.783Zm167.261 334.522v-79.218h79.783v79.218h-79.783Zm0-167.261v-79.783h79.783v79.783h-79.783Zm0-167.261v-79.218h79.783v79.218h-79.783Zm0-167.261v-79.783h79.783v79.783h-79.783Z"/></svg>