<svg xmlns="http://www.w3.org/2000/svg" width="48" height="48" viewBox="0 96 960 960"><path d="M896.392 409.174q-17.612-14.641-37.926-27.216-20.314-12.575-41.857-21.654V236h-660v-79.784h660q32.478 0 56.131 23.522Q896.392 203.26 896.392 236v173.174ZM96.835 835.218q-14.267 0-23.465-9.734-9.197-9.735-9.197-23.462V429.196q0-14.476 9.197-23.836Q82.568 396 96.835 396h207.112q13.517 0 23.089 9.36 9.573 9.36 9.573 23.836v372.826q0 13.727-9.573 23.462-9.572 9.734-23.089 9.734H96.835Zm569.208 64.739V693.261q-9.565-6.468-14.782-16.082-5.218-9.614-5.218-21.668 0-18.813 12.631-31.423 12.63-12.61 30.911-12.61 19.314 0 32.126 12.61 12.811 12.61 12.811 31.423 0 12.054-5.283 21.283-5.282 9.228-14.717 16.324v206.839h-48.479Zm-75.304-129.566q-25.565-22.13-40.13-51.888-14.566-29.757-14.566-62.593 0-63.853 45.242-109.142 45.242-45.29 108.772-45.29 64.073 0 109.269 45.237Q844.522 591.951 844.522 656q0 33.392-13.848 63.327-13.848 29.934-39.413 52.064l-35.218-34.217q18.435-15.435 29.218-36.56 10.782-21.125 10.782-44.597 0-44.492-30.696-75.276t-75.064-30.784q-43.587 0-74.674 30.87-31.087 30.87-31.087 75.579 0 23.218 10.717 43.776 10.718 20.557 28.152 36.557l-32.652 33.652Zm-71 71.435q-39.565-36.13-61.63-84.53-22.066-48.4-22.066-101.456 0-106.452 73.899-180.407 73.898-73.955 179.836-73.955 106.918 0 180.831 73.909 73.913 73.91 73.913 180.613 0 53.13-22.131 101.196-22.13 48.065-61.13 83.63l-33.087-33.087q32.304-29 50.087-68.435Q896.043 699.87 896.043 656q0-86.086-59.919-146.065-59.92-59.978-145.903-59.978-84.96 0-145.33 59.978Q484.522 569.914 484.522 656q0 43.87 17.717 83.304 17.718 39.435 50.587 67.87l-33.087 34.652Zm-389.348-72.825h140V462.218h-140v306.783Zm0 0h140-140Z"/></svg>