<svg xmlns="http://www.w3.org/2000/svg" width="48" height="48" viewBox="0 -960 960 960"><path d="M253.782-105.869v-73L307-232.652H145.087q-32.507 0-55.862-23.356-23.356-23.355-23.356-55.862v-463.043q0-32.74 23.356-56.262 23.355-23.521 55.862-23.521h366.477v79.783H145.087v463.043h669.826v-127.695h79.783v127.695q0 32.507-23.521 55.862-23.522 23.356-56.262 23.356H652l54.218 53.783v73H253.782Zm377.175-254.827L424.391-567.262l55.566-55.566 111.391 110.391v-342.259h79.218v342.259l111.391-110.391 55.566 55.566-206.566 206.566Z"/></svg>