<svg xmlns="http://www.w3.org/2000/svg" width="48" height="48" viewBox="0 -960 960 960"><path d="M360-320h240q17 0 28.5-11.5T640-360v-160q0-17-11.5-28.5T600-560h-40v-41.04q0-15.84-11.56-27.4Q536.88-640 521.04-640h-81.52q-16.4 0-27.96 11.56Q400-616.88 400-601.04V-560h-40q-17 0-28.5 11.5T320-520v160q0 17 11.5 28.5T360-320Zm79.52-240v-41.04h81.52V-560h-81.52ZM320-185.87q-122.53 0-208.33-85.82-85.8-85.83-85.8-208.39 0-122.57 85.8-208.31 85.8-85.74 208.33-85.74h320q122.53 0 208.33 85.82 85.8 85.83 85.8 208.39 0 122.57-85.8 208.31-85.8 85.74-208.33 85.74H320Zm0-79.78h320q88.52 0 151.43-62.81 62.92-62.8 62.92-151.54t-62.92-151.54Q728.52-694.35 640-694.35H320q-88.52 0-151.43 62.81-62.92 62.8-62.92 151.54t62.92 151.54q62.91 62.81 151.43 62.81ZM480-480Z"/></svg>