<svg xmlns="http://www.w3.org/2000/svg" width="48" height="48" viewBox="0 -960 960 960"><path d="M360-320h240q17 0 28.5-11.5T640-360v-160q0-17-11.5-28.5T600-560h-40v-41.043q0-15.837-11.56-27.397Q536.88-640 521.043-640h-81.521q-16.402 0-27.962 11.56Q400-616.88 400-601.043V-560h-40q-17 0-28.5 11.5T320-520v160q0 17 11.5 28.5T360-320Zm79.522-240v-41.043h81.521V-560h-81.521ZM320-185.869q-122.533 0-208.332-85.823-85.8-85.824-85.8-208.392t85.8-208.308Q197.467-774.131 320-774.131h320q122.533 0 208.332 85.823 85.799 85.824 85.799 208.392t-85.799 208.308Q762.533-185.869 640-185.869H320Z"/></svg>