<svg xmlns="http://www.w3.org/2000/svg" width="48" height="48" viewBox="0 96 960 960"><path d="M360 736h240q17 0 28.5-11.5T640 696V536q0-17-11.5-28.5T600 496h-40v-41.043q0-15.682-11.638-27.319Q536.725 416 521.043 416h-81.521q-16.402 0-27.962 11.638Q400 439.275 400 454.957V496h-40q-17 0-28.5 11.5T320 536v160q0 17 11.5 28.5T360 736Zm79.522-240v-41.043h81.521V496h-81.521ZM320 870.131q-122.533 0-208.332-85.823-85.8-85.824-85.8-208.392t85.8-208.308Q197.467 281.869 320 281.869h320q122.533 0 208.332 85.823 85.799 85.824 85.799 208.392t-85.799 208.308Q762.533 870.131 640 870.131H320Zm0-79.783h320q88.954 0 151.651-62.606 62.697-62.607 62.697-151.432 0-88.826-62.697-151.742T640 361.652H320q-88.954 0-151.651 62.606-62.697 62.607-62.697 151.432 0 88.826 62.697 151.742T320 790.348ZM480 576Z"/></svg>