<svg xmlns="http://www.w3.org/2000/svg" width="48" height="48" viewBox="0 96 960 960"><path d="M783.957 409.87v-90h-90v-73.001h90v-90h73v90h90v73.001h-90v90h-73ZM105.869 989.001q-24.914 0-42.349-17.464-17.435-17.463-17.435-41.755V730.001q0-26.976 17.06-48.293t42.94-26.969h27V488.001q0-32.664 23.147-55.941 23.147-23.278 56.637-23.278h172.26v-54.391q-20-14.888-30.5-32.682-10.5-17.794-10.5-43.381 0-16.285 5.783-31.48 5.782-15.196 17.478-26.892l57.348-59.783 57.349 59.783q11.695 11.696 17.978 26.892 6.283 15.195 6.283 31.48 0 25.334-11 43.279-11 17.945-31 32.784v54.391h172.825q32.664 0 55.941 23.278 23.277 23.277 23.277 55.941v166.738h27q25.881 5.652 42.941 26.969 17.059 21.317 17.059 48.293v199.781q0 24.292-17.463 41.755-17.463 17.464-41.755 17.464H105.869Zm107-338.219h424.304V488.001H212.869v162.781Zm-87 259h598.304V730.001H125.869v179.781Zm87-259h424.304-424.304Zm-87 259h598.304-598.304Zm617.522-259H106.085h637.306Z"/></svg>