<svg xmlns="http://www.w3.org/2000/svg" width="48" height="48" viewBox="0 -960 960 960"><path d="M319.218-287.782q-27.315 0-46.767-19.452Q253-326.685 253-354v-238.999q0-27.548 19.222-47.166 19.222-19.617 46.996-19.617H358l30-30h187l30 30h38.782q27.774 0 46.996 19.617Q710-620.547 710-592.999V-354q0 27.315-19.451 46.766-19.452 19.452-46.767 19.452H319.218Zm0-66.218h324.564v-238.999H319.218V-354Zm162.149-61.609q23.503 0 39.872-16.833 16.37-16.834 16.37-40.472 0-23.173-16.737-39.825-16.737-16.652-40.239-16.652-23.503 0-39.872 16.949-16.37 16.95-16.37 40.239 0 23.29 16.737 39.942t40.239 16.652ZM362.652-944.934q29.609-8.086 59.247-11.576Q451.538-960 482.13-960q93 0 176.718 33.5 83.717 33.5 147.935 92.681Q871-774.638 912-694.57q41 80.069 49 172.57h-73.001q-6-73.478-37.173-137.021-31.174-63.544-81-111.783Q720-819.043 655.087-849.26q-64.913-30.217-137.825-36.478l66.956 66.956-46.957 47.522-174.609-173.674ZM598.348-15.098Q568.986-6.98 539.597-3.49T479.87 0q-94 0-177.5-33.5t-147.741-92.575q-64.24-59.075-105.435-139Q8-345-1-438h73.91q6.09 73.478 37.264 137.021 31.174 63.544 81 111.783Q241-140.957 305.913-110.74q64.913 30.217 137.825 36.478l-66.956-66.956 46.957-48.087L598.348-15.098ZM482-473.782Z"/></svg>