<svg xmlns="http://www.w3.org/2000/svg" width="48" height="48" viewBox="0 -960 960 960"><path d="M635.914-72.999q-11.641 10.957-25.806 16.522-14.164 5.566-30.223 5.566-16.059 0-30.792-5.566-14.733-5.565-25.876-16.522l-72.782-72.912q-11.392-10.827-17.671-23.012-6.279-12.186-7.677-24.467-2.131-12.131 1.369-24.957t12.196-26.783l14.304-18.739L91.911-773.392l162.784-162.219 565.784 564.785q11.827 11.826 17.74 26.116 5.913 14.289 5.913 29.348 0 15.624-5.913 30.233-5.913 14.608-17.74 26.435L635.914-72.999ZM510.522-320.565l122.043-123.044-377.87-379.304-59.347 58.217 315.174 444.131Zm68.261 192 186.13-186.695-74.217-73.217-185.695 186.13 73.782 73.782Zm-68.261-192 122.043-123.044-122.043 123.044Z"/></svg>