<svg xmlns="http://www.w3.org/2000/svg" width="48" height="48" viewBox="0 0 48 48"><path d="M21.3 40.7q0-3.7-1.4-7.025t-3.825-5.8q-2.425-2.475-5.725-3.9-3.3-1.425-7-1.425v-11.3q0-1.6 1.175-2.8Q5.7 7.25 7.3 7.25h33.5q1.6 0 2.8 1.2 1.2 1.2 1.2 2.8v25.5q0 1.55-1.2 2.75t-2.8 1.2Zm-6.3 0q0-4.9-3.4-8.375-3.4-3.475-8.25-3.475v-3q3 0 5.675 1.175t4.675 3.2q2 2.025 3.15 4.725Q18 37.65 18 40.7Zm-6.3 0q0-2.3-1.55-3.925t-3.8-1.625v-3q3.5 0 5.925 2.5T11.7 40.7Zm20.75-17 8.35-4.75-8.35-4.8-8.3 4.8Zm0 6.55 5.7-3.35v-4.55l-5.7 3.25-5.65-3.25v4.55Z"/></svg>