<svg xmlns="http://www.w3.org/2000/svg" width="48" height="48" viewBox="0 -960 960 960"><path d="m671.609-560.522 166.783-95.957-166.783-95.956-166.218 95.956 166.218 95.957Zm0 129.913 113.392-66.261v-91.348l-113.392 65.696-112.826-65.696v91.348l112.826 66.261Zm-604.74 284.74v-110.783q44.681 0 75.732 32.218 31.051 32.217 31.051 78.565H66.869Zm206.783 0q0-86.921-60.261-148.852T66.869-356.652v-66.218q113.73 0 193.365 81.271 79.636 81.271 79.636 195.73h-66.218Zm166.218 0q0-77.261-29.131-146.022-29.13-68.761-79.826-120.239-50.696-51.479-118.74-81.109Q144.13-522.87 66.869-522.87v-66.217q91.218 0 171.261 34.913 80.044 34.913 139.587 95.239 59.544 60.326 93.957 141.19 34.413 80.863 34.413 171.876H439.87Zm166.217 0q0-111.957-42.196-210.848-42.195-98.892-115.239-172.935-73.043-74.044-171.253-116.739-98.21-42.696-210.53-42.696v-45.826q0-33.49 22.98-56.637 22.981-23.146 56.238-23.146h669.826q33.49 0 56.637 23.146 23.146 23.147 23.146 56.637v509.826q0 33.257-23.146 56.237-23.147 22.981-56.637 22.981H606.087Z"/></svg>