<svg xmlns="http://www.w3.org/2000/svg" width="48" height="48" viewBox="0 -960 960 960"><path d="M356.78-161.78q-123.13-28.26-203.63-127.39T72.65-520q0-153.39 106.98-260.65Q286.61-887.91 440-887.91t260.65 107.26Q807.91-673.39 807.91-520q0 41.3-8.37 79.83-8.37 38.52-24.67 72.26H518q-69.39 0-117.37 49.26-47.98 49.26-47.98 118.65 0 9.7.78 19.39.79 9.7 3.35 18.83ZM507-400.26 559.74-453l-81.83-82.39v-182.52h-75.26v213.3L507-400.26Zm13 307.61h240q44.83 0 76.37-31.26 31.54-31.26 31.54-76.09t-31.54-76.37q-31.54-31.54-76.37-31.54H520q-44.83 0-76.09 31.54-31.26 31.54-31.26 76.37 0 44.83 31.26 76.09Q475.17-92.65 520-92.65Zm-21.5-85.85Q490-187 490-200t8.5-21.5Q507-230 520-230t21.5 8.5Q550-213 550-200t-8.5 21.5Q533-170 520-170t-21.5-8.5Zm120 0Q610-187 610-200t8.5-21.5Q627-230 640-230t21.5 8.5Q670-213 670-200t-8.5 21.5Q653-170 640-170t-21.5-8.5Zm120 0Q730-187 730-200t8.5-21.5Q747-230 760-230t21.5 8.5Q790-213 790-200t-8.5 21.5Q773-170 760-170t-21.5-8.5Z"/></svg>