<svg xmlns="http://www.w3.org/2000/svg" width="48" height="48" viewBox="0 -960 960 960"><path d="M824.131-382.652v-195.261h112.826v195.261H824.131Zm-593.072 120q-81.443 0-144.73-47.978Q23.043-358.609 23.043-420v-120q0-61.871 63.286-109.892 63.287-48.021 144.73-48.021 32.028 0 60.593 6.782 28.565 6.783 68.13 23.783 12 6 22.032 9.5 10.031 3.5 18.434 5.717 8.404 2.218 15.65 3.218t15.302 1h352.931v335.261H431.2q-8.056 0-15.302 1.283-7.246 1.282-15.746 3.5-8.5 2.217-18.435 5.717-9.935 3.5-21.935 9.5-39.565 17-68.13 23.5-28.565 6.5-60.593 6.5ZM79.913-461.043h38.478q7.696 0 13.609-5.631 5.913-5.63 5.913-13.326 0-7.696-5.913-13.609t-13.609-5.913H79.913q-7.696 0-13.326 5.913-5.63 5.913-5.63 13.326 0 7.979 5.63 13.609 5.63 5.631 13.326 5.631Z"/></svg>