<svg xmlns="http://www.w3.org/2000/svg" width="48" height="48" viewBox="0 96 960 960"><path d="m562.609 1013.22-304.218-87.306V560.652h90.044l256.695 97.13q33.957 12.696 53.218 42.805 19.261 30.109 19.261 66.065h-77q-30.566 0-61.414-2.565-30.847-2.565-59.847-12l-70.739-23.435-13.957 40.436 78.147 26.565q26.244 8.435 54.244 11.217 28 2.783 56 2.783h195.566q41.956 0 76.478 18.543 34.522 18.544 34.522 57.087v28.544l-327 99.393ZM24.173 980.653V560.652h160.218v420.001H24.173Zm674.262-540.176-24.709-53.921-52.378-23.731 52.378-24.731 24.709-52.356 24.732 52.356 52.356 24.731-52.356 23.731-24.732 53.921Zm109.036 186.218q-32.166 0-54.579-22.13-22.413-22.131-22.413-54.957 0-21.696 16.063-56.062t61.024-98.113q45.391 62.957 61.239 97.718 15.848 34.761 15.848 56.457 0 32.826-22.508 54.957-22.508 22.13-54.674 22.13ZM364.13 494.434H193.477q8.87-63.391 53.283-109.218 44.413-45.826 107.413-60.956v-84.478h-60v-79.783h219.574q30.731 0 60.688 10.761 29.956 10.761 58.044 29.717l-57.001 57.566q-15.696-9.13-31.044-13.695-15.347-4.566-30.652-4.566h-80.391v84.478q69.566 16.261 114.783 70.796 45.217 54.536 45.217 124.552v62.391L364.13 494.434Z"/></svg>