<svg xmlns="http://www.w3.org/2000/svg" width="48" height="48"><path d="M15.4 29.95h3.85q1.35 0 2.225-.875t.875-2.225v-.65h-2.8v1.1H15.1v-6.6h4.45v1.1h2.8v-.65q0-1.35-.875-2.225t-2.225-.875H15.4q-1.35 0-2.25.875-.9.875-.9 2.225v5.7q0 1.35.9 2.225t2.25.875zm13.4 0h3.85q1.35 0 2.25-.875.9-.875.9-2.225v-.65h-2.85v1.1H28.5v-6.6h4.45v1.1h2.85v-.65q0-1.35-.9-2.225t-2.25-.875H28.8q-1.35 0-2.225.875T25.7 21.15v5.7q0 1.35.875 2.225t2.225.875zM9.25 40.7q-1.6 0-2.775-1.175Q5.3 38.35 5.3 36.75v-25.5q0-1.65 1.175-2.825Q7.65 7.25 9.25 7.25h29.5q1.65 0 2.825 1.175Q42.75 9.6 42.75 11.25v25.5q0 1.6-1.175 2.775Q40.4 40.7 38.75 40.7z"/></svg>