<svg xmlns="http://www.w3.org/2000/svg" width="48" height="48"><path d="m42 46.4-5.7-5.7H9.25q-1.6 0-2.775-1.175Q5.3 38.35 5.3 36.75v-25.5q0-.35.05-.7t.2-.65L1.2 5.6l2.35-2.4 40.8 40.85zm.75-8.8-8.7-8.55q.75-.15 1.25-.75t.5-1.45v-.65h-2.1v.75H32l-3.4-3.35v-2.9h4.35v1.1h2.85v-.65q0-1.35-.9-2.225t-2.25-.875H28.8q-1.05 0-1.8.65t-.9 1.65v.75L12.35 7.25h26.4q1.6 0 2.8 1.2 1.2 1.2 1.2 2.8zM15.4 29.95h3.85q1.15 0 2.025-.75t.975-1.9v-.65l-.45-.45h-2.25v1.1H15.1v-6.05h1.75l-2.8-2.75q-.75.3-1.275 1-.525.7-.525 1.65v5.7q0 1.35.9 2.225t2.25.875z"/></svg>