<svg xmlns="http://www.w3.org/2000/svg" width="48" height="48" viewBox="0 -960 960 960"><path d="M185.087-145.869q-32.507 0-55.862-23.356-23.356-23.355-23.356-55.862v-509.826q0-32.74 23.356-56.262 23.355-23.521 55.862-23.521h589.826q32.74 0 56.262 23.521 23.521 23.522 23.521 56.262v509.826q0 32.507-23.521 55.862-23.522 23.356-56.262 23.356H185.087ZM284.696-361h122.782q16.707 0 28.158-11.451t11.451-28.158v-35.782H390.87v22h-89v-131.218h89v22h56.217v-35.782q0-16.707-11.451-28.158T407.478-599H284.696q-16.706 0-28.158 11.451-11.451 11.451-11.451 28.158v158.782q0 16.707 11.451 28.158Q267.99-361 284.696-361Zm268.826 0h122.782q15.956 0 27.783-11.826 11.826-11.826 11.826-27.783v-35.782H659.13v22h-89v-131.218h89v22h56.783v-35.782q0-15.957-11.826-27.783Q692.26-599 676.304-599H553.522q-15.957 0-27.783 11.826t-11.826 27.783v158.782q0 15.957 11.826 27.783T553.522-361Z"/></svg>