<svg xmlns="http://www.w3.org/2000/svg" width="48" height="48" viewBox="0 -960 960 960"><path d="M168.13-151.521v-66.218h116.435q-64-49.696-99.653-110.196-35.652-60.5-35.652-148.5 0-107.03 65.218-197.646 65.218-90.615 183.262-122.92v81.219q-71 22.608-119.848 88.76t-48.848 150.587q0 61.517 26.087 111.454 26.087 49.937 84.695 88.241V-390h66.218v238.479H168.13Zm441.479 14.131q-55.04 0-94.02-38.816-38.98-38.815-38.98-94.266 0-51.325 34.413-89.144t84.674-42.645q19.261-36.565 54.736-58.848 35.476-22.282 79.203-22.282 57.599 0 99.439 35.347 41.84 35.348 49.275 85.783h2q43.13 3.391 72.978 35.37 29.848 31.978 29.848 75.605 0 46.74-33.222 80.318-33.223 33.578-80.344 33.578h-260ZM726.982-520q-11.026-49.304-36.42-88.663-25.395-39.359-66.823-74.597V-570h-66.783v-238.479h238.479v66.218H678.001q49 43.261 85.297 102.761Q799.596-580 807.74-520h-80.758ZM609.609-210.391h260q17 0 28.5-11.5t11.5-28.5q0-16.435-11.5-28.217-11.5-11.783-28.5-11.783h-50v-30q0-37.435-26-63.717-26-26.283-64-26.283-37.435 0-63.717 24.5-26.283 24.5-26.283 55.5h-30q-25 0-42.5 17.5t-17.5 42.5q0 25 17.5 42.5t42.5 17.5Zm120-100Z"/></svg>