<svg xmlns="http://www.w3.org/2000/svg" width="48" height="48" viewBox="0 96 960 960"><path d="M423.946 840.522q-121.074 0-208.902-85.307-87.828-85.308-87.828-202.694v-286.13q0-30.063 22.317-52.38 22.317-22.317 52.379-22.317H741q63.238 0 107.902 44.921t44.664 108.468q0 63.546-44.664 108.492-44.664 44.947-107.641 44.947h-21.218v53.999q0 118.04-87.628 203.021-87.628 84.98-208.469 84.98ZM206.999 419.304h433.826V271.478H206.999v147.826Zm513.044 0H741q30.797 0 52.355-21.546 21.558-21.546 21.558-52.326t-21.558-52.367Q771.797 271.478 741 271.478h-20.957v147.826ZM127.216 960.306v-79.784h661.697v79.784H127.216Z"/></svg>