<svg xmlns="http://www.w3.org/2000/svg" width="48" height="48" viewBox="0 -960 960 960"><path d="M407.35-175.78v-228.7l57.56-170.26q3.13-10.39 12.52-17.93 9.4-7.55 24.92-7.55h303q15.02 0 23.83 6.63 8.81 6.63 13.6 18.85l57.57 170.26v228.7q0 14.65-10.57 24.82-10.56 10.18-24.43 10.18h-15.78q-14.66 0-24.55-10.18-9.89-10.17-9.89-24.82v-33.7H492.57v33.7q0 14.65-10.29 24.82-10.28 10.18-24.15 10.18h-15.78q-14.65 0-24.83-10.18-10.17-10.17-10.17-24.82Zm66-257h361l-38-115h-285l-38 115Zm-13 40v132-132Zm67 106q16.43 0 27.72-10.89 11.28-10.88 11.28-27.72 0-16.83-11.28-28.11-11.29-11.28-28-11.28-16.72 0-27.72 11.28t-11 28.11q0 16.84 11 27.72 11 10.89 28 10.89Zm253 0q16.43 0 27.72-10.89 11.28-10.88 11.28-27.72 0-16.83-11.28-28.11-11.29-11.28-28-11.28-16.72 0-27.72 11.28t-11 28.11q0 16.84 11 27.72 11 10.89 28 10.89Zm-629.92 146v-22.98l64.92-63.5q-63.13 0-109.41-38.62-46.29-38.62-46.29-98.51v-329.7q0-74.08 55.31-99.89 55.3-25.8 217.26-25.8 150.48 0 211.37 27.68 60.89 27.68 60.89 98.01v63.87h-78.09v-71.91H139.43V-432h237.92v291.22H150.43Zm80.16-182.61q12.98-13.25 12.98-32.8 0-19.55-12.86-32.24-12.86-12.7-32.24-12.7-19.38 0-32.36 12.59t-12.98 32.35q0 19.55 12.86 32.8 12.86 13.26 32.24 13.26 19.38 0 32.36-13.26Zm229.76 62.61h387v-132h-387v132Z"/></svg>