<svg xmlns="http://www.w3.org/2000/svg" width="48" height="48" viewBox="0 0 48 48"><path d="m8.7 43.3-.35-2.6q-.3-.15-.55-.3-.25-.15-.7-.45L4.6 41l-2.05-3.6 2.15-1.55V34.4l-2.15-1.6 2.05-3.55 2.5 1q.75-.5.9-.575l.35-.175.35-2.6h4.05l.35 2.65q.15.1 0 0t-.2-.125q-.05-.025.225.125t1.225.7l2.5-1 2.05 3.55-2.1 1.55q.05.45.025 1t-.175.7q.05.1.125.1h.175l12.85-6.6-2 3.6.2.2-9.65 4.9-1.5 2.75-2.5-1.05q-.75.45-.9.55-.15.1-.35.2l-.35 2.6Zm2-11.7q-1.4 0-2.45 1.05Q7.2 33.7 7.2 35.1q0 1.45 1.05 2.5t2.45 1.05q1.45 0 2.5-1.05t1.05-2.5q0-1.4-1.05-2.45-1.05-1.05-2.5-1.05Zm9.15-12.55-.3-2.55q-.3-.2-.575-.35-.275-.15-.525-.35l-.1.05V29.8l-1.1-1.85-1.45.6v-12.3l-2.05-3.05 2.05-1.6v-1.45L13.7 8.6 15.75 5l2.5 1.05q.8-.55.95-.625.15-.075.3-.125l.35-2.6h4.05l.35 2.6q.25.15.525.3t.725.45L28 5l2.05 3.6-2.15 1.55v1.4l2.15 1.65L28 16.75l-2.5-1q-.75.45-.9.525-.15.075-.35.225l-.35 2.55Zm2.05-11.7q-1.45 0-2.5 1.05t-1.05 2.45q0 1.45 1.05 2.5t2.5 1.05q1.4 0 2.45-1.05 1.05-1.05 1.05-2.5 0-1.4-1.05-2.45-1.05-1.05-2.45-1.05ZM35.25 43.3l-.35-2.6q-.25-.15-.525-.3t-.725-.45L31.2 41l-2.1-3.6 2.1-1.55V34.4l-2.1-1.55 2.1-3.6 2.45 1q.3-.3.575-.45.275-.15.325-.2l.15-.6-12-8.9h2.1l.2-1.45 11.15 8.25h3.2l.3 2.65q.15.1 0 0t-.175-.125q-.025-.025.225.125t1.2.7l2.5-1 2.05 3.55-2.1 1.55v1.45l2.1 1.6L43.4 41l-2.5-1.05q-.75.45-.9.55-.15.1-.35.2l-.3 2.6Zm2.05-11.7q-1.45 0-2.5 1.05t-1.05 2.45q0 1.45 1.05 2.5t2.5 1.05q1.4 0 2.45-1.05 1.05-1.05 1.05-2.5 0-1.4-1.05-2.45-1.05-1.05-2.45-1.05Z"/></svg>