<svg xmlns="http://www.w3.org/2000/svg" width="48" height="48" viewBox="0 0 48 48"><path d="M10.25 31.45h3.85q-.2-1.55-1.275-2.65-1.075-1.1-2.575-1.2Zm6.1 0h2.75q0-3.7-2.575-6.275T10.25 22.6v2.75q2.55 0 4.325 1.775Q16.35 28.9 16.35 31.45Zm5 0h2.75q0-2.85-1.1-5.375t-2.975-4.4q-1.875-1.875-4.4-2.975-2.525-1.1-5.375-1.1v2.75q4.65 0 7.875 3.225Q21.35 26.8 21.35 31.45Zm-5.2 11.3V38.4h-8.9q-1.6 0-2.775-1.175Q3.3 36.05 3.3 34.45V9.25q0-1.65 1.175-2.825Q5.65 5.25 7.25 5.25h33.5q1.65 0 2.825 1.175Q44.75 7.6 44.75 9.25v25.2q0 1.6-1.175 2.775Q42.4 38.4 40.75 38.4H31.9v4.35Z"/></svg>