<svg xmlns="http://www.w3.org/2000/svg" width="48" height="48" viewBox="0 -960 960 960"><path d="M185.087-105.869q-32.507 0-55.862-23.356-23.356-23.355-23.356-55.862v-589.826q0-32.74 23.356-56.262 23.355-23.521 55.862-23.521h589.826q32.74 0 56.262 23.521 23.521 23.522 23.521 56.262v589.826q0 32.507-23.521 55.862-23.522 23.356-56.262 23.356H185.087Zm0-79.218h589.826v-589.826L185.087-185.087Zm543.392-128.87H495.696v-56.783h232.783v56.783ZM218.348-608.87h76v76h56.782v-76h76v-56.782h-76v-76h-56.782v76h-76v56.782Z"/></svg>