<svg xmlns="http://www.w3.org/2000/svg" width="48" height="48" viewBox="0 0 48 48"><path d="M18.85 43.65V36.7H2.7v-3.6h15.85q1.6 0 2.775 1.15 1.175 1.15 1.175 2.8v6.6Zm6.65 0v-6.6q0-1.65 1.15-2.8t2.85-1.15h15.8v3.6H29.15v6.95ZM10.7 30.1q-2.5 0-4.275-1.775Q4.65 26.55 4.65 24v-9.75h38.7V24q0 2.55-1.775 4.325Q39.8 30.1 37.3 30.1Zm0-3.65h26.6q1.05 0 1.75-.7t.7-1.75v-6.05H8.3V24q0 1.05.675 1.75t1.725.7Zm-6.05-14.2v-3.6H17.9v-2.3q0-.85.575-1.425.575-.575 1.425-.575h8.2q.85 0 1.425.575.575.575.575 1.425v2.3h13.25v3.6Zm3.65 14.2v-8.5 8.5Z"/></svg>