<svg xmlns="http://www.w3.org/2000/svg" width="48" height="48" viewBox="0 -960 960 960"><path d="M389.609-313.782H567.13q17.604 0 26.542-11.125 8.937-11.125 8.937-27.528v-77.522h-73v43.739H429.391v-187.564h100.218v44.739h73v-77.918q0-16.996-8.937-28.126-8.938-11.131-26.542-11.131H389.609q-17.039 0-25.128 11.59-8.09 11.59-8.09 28.628v253q0 17.038 8.09 28.128 8.089 11.09 25.128 11.09Zm90.469 247.913q-85.469 0-161.006-32.395-75.536-32.395-131.975-88.833-56.438-56.439-88.833-131.897-32.395-75.459-32.395-160.928 0-86.469 32.395-162.006 32.395-75.536 88.745-131.504 56.349-55.968 131.849-88.616 75.5-32.648 161.017-32.648 86.516 0 162.12 32.604 75.603 32.604 131.529 88.497t88.549 131.452Q894.696-566.584 894.696-480q0 85.547-32.648 161.075-32.648 75.527-88.616 131.896-55.968 56.37-131.426 88.765-75.459 32.395-161.928 32.395Z"/></svg>