<svg xmlns="http://www.w3.org/2000/svg" width="48" height="48" viewBox="0 -960 960 960"><path d="M439.783-145.869H145.087q-32.478 0-55.848-23.37-23.37-23.37-23.37-55.848v-509.826q0-32.478 23.37-56.131 23.37-23.652 55.848-23.652h669.826q32.478 0 56.131 23.652 23.652 23.653 23.652 56.131v232.783h-51.783 4.522L604.218-259.479 482.87-381.957 343-242.652l96.783 96.783Zm164.435 80L428-242.652l54.87-54.305 121.348 122.478L839.13-409.391l53.871 54.739L604.218-65.869ZM145.087-641.13v139h669.826v-139H145.087Z"/></svg>