<svg xmlns="http://www.w3.org/2000/svg" width="48" height="48" viewBox="0 96 960 960"><path d="M438 967.654 295.869 825.523 353 769.957l85 85 169-170 57.131 56.566L438 967.654ZM168.13 264.13v60h623.74v-60H168.13Zm130.609 139.218 18 60h327.155l17.367-60H298.739Zm18 139.784q-27.413 0-48.816-16.43-21.402-16.429-28.533-43.093l-23.304-80.261H168.13q-33.257 0-56.238-22.981-22.98-22.98-22.98-56.237V184.346h782.742V324.13q0 33.507-23.147 56.362-23.147 22.856-56.637 22.856h-47.956l-26.043 82.131q-7.336 25.805-29.04 41.729t-48.874 15.924H316.739ZM168.13 264.13v60-60Z"/></svg>