<svg xmlns="http://www.w3.org/2000/svg" width="48" height="48" viewBox="0 0 48 48"><path d="M23.75 15.65v-1.8h4.3v-2.5h-4.3v-6.1h6.1v1.8h-4.3v2.5h4.3v6.1Zm8.7 0V5.25h1.8v10.4Zm4.4 0V5.25h6.05v6.1h-4.3v4.3Zm1.75-6.1h2.55v-2.5H38.6Zm1.2 33.1q-6.25 0-12.4-3.05t-11.075-7.95Q11.4 26.75 8.35 20.575 5.3 14.4 5.3 8.2q0-1.25.85-2.1.85-.85 2.05-.85h7q1.2 0 1.975.675Q17.95 6.6 18.2 7.8l1.35 5.85q.2 1.05-.025 1.875T18.7 16.9l-5.15 4.85q2.65 4.3 5.8 7.425t7.1 5.275l4.9-5q.7-.75 1.575-1.025.875-.275 1.875-.025l5.35 1.25q1.2.3 1.875 1.125T42.7 32.8v6.9q0 1.25-.85 2.1-.85.85-2.05.85Zm-28.2-24.4 4-3.9-1.1-5.1H9.3q-.05 1.8.5 3.975t1.8 5.025Zm18.5 18.2q1.9.9 4.175 1.475 2.275.575 4.425.725V33.4L34 32.35Zm-18.5-18.2Zm18.5 18.2Z"/></svg>