<svg xmlns="http://www.w3.org/2000/svg" width="48" height="48" viewBox="0 -960 960 960"><path d="M305.565-195.261h63.565v-271.217q29-5.131 50.914-28.995 21.913-23.865 21.913-53.713v-157.771q0-10.565-8.048-17.913-8.048-7.348-18.496-7.348-10.848 0-18.196 7.348-7.347 7.348-7.347 17.543v120.936h-24.261v-120.936q0-10.195-7.348-17.543-7.348-7.348-18.196-7.348-10.848 0-18.196 7.348-7.348 7.348-7.348 17.543v120.936H283.26v-120.936q0-10.195-7.348-17.543-7.347-7.348-18.195-7.348-10.848 0-18.196 7.348-7.348 7.348-7.348 17.913v157.771q0 29.848 21.696 53.713 21.696 23.864 51.696 28.995v271.217Zm268.261 0h63.001v-259.782q34.435-15.696 54.717-52.608 20.283-36.912 20.283-86.479 0-59.907-29.853-98.998-29.853-39.09-74.022-39.09-44.169 0-73.147 39.09-28.979 39.091-28.979 98.998 0 52.362 17.718 88.376 17.717 36.015 50.282 50.711v259.782ZM145.087-65.869q-32.507 0-55.862-23.356-23.356-23.355-23.356-55.862v-669.826q0-32.74 23.356-56.262 23.355-23.521 55.862-23.521h669.826q32.74 0 56.262 23.521 23.521 23.522 23.521 56.262v669.826q0 32.507-23.521 55.862-23.522 23.356-56.262 23.356H145.087Zm0-79.218h669.826v-669.826H145.087v669.826Zm0 0v-669.826 669.826Z"/></svg>