<svg xmlns="http://www.w3.org/2000/svg" width="48" height="48" viewBox="0 -960 960 960"><path d="M225.869-100.782v-47.348l60-40q-59.565-5.652-99.783-52.087-40.217-46.435-40.217-108.827v-373.782q0-89.97 80.674-132.051 80.674-42.08 253.241-42.08 178.804 0 256.858 40.628t78.054 133.503v373.782q0 62.392-40.5 108.827-40.5 46.435-99.5 52.087l60 40v47.348H225.869Zm-.782-441.957H454v-155H225.087v155Zm423.043 60H225.087h509.826-86.783Zm-134.13-60h220.913v-155H514v155ZM337.885-315q22.376 0 38.659-16.059 16.282-16.059 16.282-39T376.485-409q-16.342-16-38.718-16-22.941 0-38.941 16.059-16 16.059-16 39T298.885-331q16.059 16 39 16Zm284.913 0q22.376 0 38.658-16.059 16.283-16.059 16.283-39T661.398-409q-16.342-16-38.718-16-22.941 0-38.941 16.059-16 16.059-16 39T583.798-331q16.059 16 39 16ZM311.87-257.826h336.26q36.412 0 61.597-26.762 25.186-26.762 25.186-64.456v-133.695H225.087v133.695q0 37.694 25.186 64.456 25.185 26.762 61.597 26.762ZM480-817.739q-120 0-173 15.5t-76 44.5h495.913q-18.565-27-74.804-43.5-56.239-16.5-172.109-16.5Zm0 60h246.913H231h249Z"/></svg>