<svg xmlns="http://www.w3.org/2000/svg" width="48" height="48" viewBox="0 96 960 960"><path d="M480 646.87ZM140.173 852.043 74.652 622.175q-6.261-21.044.779-38.702Q82.47 565.815 98.739 560l47.13-16.043V316q0-30.363 21.651-51.182 21.651-20.819 52.48-21.819h135.869v-120h248.827v120H740q30.417 0 52.557 21.444 22.139 21.444 22.139 51.557v228.957L862.826 560q12.696 4.565 21.022 20.935 8.326 16.37 1.5 40.24l-64.956 230.868q-54.783-4.434-101.087-26.739Q673 803 641 771.13q-32 36-72.685 58.457-40.684 22.456-88.315 22.456t-88.315-22.456Q351 807.13 319 771.13q-32 31.87-78.305 54.174-46.304 22.305-100.522 26.739ZM80 1029v-79.218h80q42 0 83-13t77-37q36 24 77 36t83 12q42 0 83-12t77-36q36 24 77 37t83 13h80V1029h-80q-41 0-81-10.22-40-10.21-79-30.779-39 20.569-80 30.779-41 10.22-80 10.22t-80-10.22q-41-10.21-80-30.779-39 20.569-78.802 30.779-39.802 10.22-81.594 10.22H80Zm145.087-509.13L480 438.13l254.913 82.74V322.218H225.087V519.87Zm254.467 272.173q52.576 0 95.968-41 43.391-41 64.478-72.043 15.391 22.087 47.869 51.434 32.479 29.348 69.809 50.348l49.104-173.912L480 501.13 152.218 606.87l49.739 173.043Q235.826 762.043 271 731q35.174-31.044 49-52 21.521 31.478 63.119 72.261 41.598 40.782 96.435 40.782Z"/></svg>