<svg xmlns="http://www.w3.org/2000/svg" width="48" height="48" viewBox="0 -960 960 960"><path d="M341-61.347q-49.13 0-86.978-28.5-37.848-28.501-53.979-74.066-16 29.957-41.261 46.153-25.261 16.195-60.087 16.195-49.26 0-81.957-34.695-32.695-34.696-32.695-81.957 0-52.957 33.891-83.718 33.892-30.761 85.414-29.5-18.566-20-28.283-46.782-9.718-26.783-9.718-54.348 0-40.826 21.196-75.522 21.196-34.696 60.587-55.261 5.566 15.261 14.761 32.804 9.196 17.544 17.761 30.805-20.565 12.435-31.782 30.587Q136.652-451 136.652-430q0 57.739 48.5 72.109 48.5 14.369 91.239 22.804l13.827 23.522q-10.87 29.913-19.218 53.26-8.348 23.348-8.348 45.175 0 31.739 23.522 56.108 23.522 24.37 55.826 24.37 38.739 0 64.109-33.087 25.369-33.087 41.304-78.326 15.935-45.239 24.652-92.044 8.717-46.804 14.152-73.239l68.74 19.392q-9.566 43.565-21.848 100.283-12.283 56.717-35.348 107.369-23.065 50.652-60.413 85.804Q400-61.347 341-61.347Zm51.912-311.697q-32.564-29.26-65.89-59.804-33.326-30.543-60.674-63.543T221.674-564.5q-17.326-35.109-17.326-74.5 0-62.261 43.695-105.957Q291.739-788.652 354-788.652q8.435 0 16.152.5 7.718.5 14.587 1.934-10.696-18.13-15.544-32.109-4.847-13.978-4.847-28.239 0-48.261 33.695-81.957 33.696-33.695 81.957-33.695 48.261 0 81.957 33.695 33.695 33.696 33.695 81.957 0 13.261-4.347 27.739-4.348 14.479-16.044 33.175 6.869-1.435 14.587-2.218 7.717-.782 16.152-.782 60.391 0 101.87 39.326 41.478 39.326 46.348 97.283-16.827-2.131-35.935-1.348-19.109.782-34.805 2.782-4.435-28.869-25.304-47.804-20.87-18.935-52.174-18.935-37.565 0-60.196 23.609-22.63 23.609-52.978 59.391h-26.087q-30.782-36.651-53.695-59.825Q390.13-717.348 354-717.348q-33.739 0-56.043 22.305-22.305 22.304-22.305 56.043 0 25.696 16.109 53.239 16.109 27.544 40.957 55.479 24.848 27.934 54.326 54.912 29.478 26.979 56.216 51.413l-50.348 50.913ZM618-60.347q-23.696 0-47.174-7.848-23.478-7.848-44.609-23.544 9.131-14.261 19.109-31.805 9.978-17.543 15.544-33.369 13.434 12.695 28.5 18.761 15.065 6.065 30.065 6.065 33.304 0 56.108-24.652 22.805-24.652 22.805-56.391 0-22.261-8.848-45.609-8.848-23.348-18.152-52.826l12.695-22.957q43.739-8 92.022-22.369 48.283-14.37 48.283-72.109 0-41.739-30.587-61.543-30.587-19.805-67.891-19.805-48.218 0-108.262 18.261-60.043 18.261-114.564 35.913l-17.826-68.739q60.738-19.913 122.586-38.326t117.5-18.413q66.826 0 118.587 39.63Q895.652-502.391 895.652-430q0 27-9.717 53.283-9.717 26.282-27.717 46.282 49.956-1.261 84.631 30 34.674 31.261 34.674 83.218 0 47.261-32.696 81.957-32.696 34.695-81.957 34.695-33.826 0-60.37-16.478-26.543-16.478-41.543-46.435-17.131 46.13-54.979 74.63-37.848 28.5-87.978 28.5Z"/></svg>