<svg xmlns="http://www.w3.org/2000/svg" width="48" height="48" viewBox="0 -960 960 960"><path d="M829.392-43.477 727.609-144.695q-52.307 37.713-114.806 58.27-62.5 20.556-132.652 20.556-87.977 0-163.796-31.678-75.819-31.677-131.475-87.333-55.656-55.656-87.333-131.475-31.678-75.819-31.678-163.796 0-70.152 20.556-132.652 20.557-62.499 58.27-114.806L43.477-829.392l46.957-46.957L876.35-90.434l-46.957 46.957ZM271.521-449.61H422.13l-66.101-66.782h-84.508v66.782Zm548.871 208.74L611.088-449.609h76.825v-66.782H544.87l-304-304.001q50.565-34.87 110.748-54.587Q411.802-894.696 480-894.696q87.584 0 163.143 32.104t131.452 87.997q55.893 55.893 87.997 131.452T894.696-480q0 68.198-19.717 128.382-19.717 60.183-54.587 110.748Z"/></svg>