<svg xmlns="http://www.w3.org/2000/svg" width="48" height="48"><path d="m41.9 46.9-3.2-3.2q-.9.85-1.975 1.275-1.075.425-2.225.425H21.65q-1.25 0-2.4-.5t-2-1.45L3 28.35l2.2-2.1q.45-.45 1.075-.475.625-.025 1.225.275l6 3.35V18.55L2.2 7.25 4.55 4.9l39.7 39.7zm-1.35-10.2L26.1 22.2h2.3V5.75q0-1 .675-1.675T30.75 3.4q1 0 1.675.675T33.1 5.75v16.8h2.75V10q0-1 .675-1.675t1.725-.675q1 0 1.65.675.65.675.65 1.675zm-14.9-14.9-4.7-4.75V3.6q0-.95.675-1.65t1.675-.7q1 0 1.675.7t.675 1.65zm-7.45-7.45-4.55-4.6v-2.6q.1-.75.75-1.2.65-.45 1.45-.45 1 0 1.675.7t.675 1.7z"/></svg>