<svg xmlns="http://www.w3.org/2000/svg" width="48" height="48" viewBox="0 -960 960 960"><path d="M67-743.87v-189.131h189.13V-860H140v116.13H67Zm753 0V-860H703.87v-73.001h189.131v189.131H820ZM67-27v-189.13h73V-100h116.13v73H67Zm636.87 0v-73H820v-116.13h73.001V-27H703.87ZM273.001-233h413.998v-493.998H273.001V-233Zm0 79.219q-31.377 0-55.298-23.921-23.921-23.921-23.921-55.298v-493.998q0-31.377 23.921-55.298 23.921-23.921 55.298-23.921h413.998q31.377 0 55.298 23.921 23.921 23.921 23.921 55.298V-233q0 31.377-23.921 55.298-23.921 23.921-55.298 23.921H273.001Zm94.738-413.957h225.087v-65.087H367.739v65.087Zm0 120h225.087v-65.087H367.739v65.087Zm0 120h225.087v-65.087H367.739v65.087ZM273.001-233v-493.998V-233Z"/></svg>