<svg xmlns="http://www.w3.org/2000/svg" width="48" height="48" viewBox="0 96 960 960"><path d="M67 312.13V122.999h189.13V196H140v116.13H67Zm753 0V196H703.87v-73.001h189.131V312.13H820ZM67 1029V839.87h73V956h116.13v73H67Zm636.87 0v-73H820V839.87h73.001V1029H703.87ZM273.001 902.218q-31.377 0-55.298-23.921-23.921-23.921-23.921-55.298V329.001q0-31.377 23.921-55.298 23.921-23.921 55.298-23.921h413.998q31.377 0 55.298 23.921 23.921 23.921 23.921 55.298v493.998q0 31.377-23.921 55.298-23.921 23.921-55.298 23.921H273.001Zm94.738-413.957h225.087v-65.087H367.739v65.087Zm0 120h225.087v-65.087H367.739v65.087Zm0 120h225.087v-65.087H367.739v65.087Z"/></svg>