<svg xmlns="http://www.w3.org/2000/svg" width="48" height="48" viewBox="0 96 960 960"><path d="M347.348 696V283.348v585.304V696Zm-79.783 39.609h79.783v133.043h265.304V283.348H347.348v373.043h-79.783V283.348q0-33.49 23.146-56.637 23.147-23.146 56.637-23.146h265.304q33.49 0 56.637 23.146 23.146 23.147 23.146 56.637v585.304q0 33.49-23.146 56.637-23.147 23.146-56.637 23.146H347.348q-33.49 0-56.637-23.146-23.146-23.147-23.146-56.637V735.609Zm212.935-240q16.457 0 27.783-11.826t11.326-28.283q0-16.457-11.451-27.783T480 416.391q-15.957 0-27.783 11.451T440.391 456q0 15.957 11.826 27.783t28.283 11.826Zm334.587-40q-15.957 0-27.783-11.826T775.478 416V256q0-16.707 11.826-28.158t28.283-11.451q16.457 0 27.783 11.451T854.696 256v160q0 15.957-11.451 27.783t-28.158 11.826ZM190 735.609q-15.957 0-27.783-11.826T150.391 695.5q0-16.457 11.826-27.783T190 656.391h290q16.707 0 28.158 11.451T519.609 696q0 15.957-11.451 27.783T480 735.609H190Z"/></svg>