<svg xmlns="http://www.w3.org/2000/svg" width="48" height="48" viewBox="0 -960 960 960"><path d="M432.652-442.652q15.755 0 26.552-11.261Q470-465.174 470-479.722q0-16.114-10.796-27.153-10.797-11.038-26.552-11.038-15.392 0-26.653 11.038-11.261 11.039-11.261 27.153 0 14.548 11.261 25.809 11.261 11.261 26.653 11.261Zm-167 336.218v-79.218l266.435-46.78v-446.741q0-17.652-10.609-30.566-10.609-12.913-27.001-14.913l-228.825-37.304v-77.653l247.913 42.608q42.739 7.261 70.24 40.675 27.5 33.413 27.5 76.153v513.066l-345.653 60.673Zm-159.783.565v-79.783h80v-574.739q0-33.857 23.304-56.537 23.305-22.681 56.479-22.681h428.696q34.097 0 56.94 22.681 22.843 22.68 22.843 56.537v574.739h80v79.783H105.869Zm159.783-79.783h428.696v-574.739l-428.696-.565v-1 576.304Z"/></svg>