<svg xmlns="http://www.w3.org/2000/svg" width="48" height="48" viewBox="0 -960 960 960"><path d="M105.87-105.87v-188.35l371.35-371.35L404.09-737l62.48-61.35 91.43 92 131.26-132.39q7.26-7.26 16.09-11.11 8.82-3.85 17.65-3.85 8.83 0 17.65 4.42 8.83 4.41 17.09 11.67l79.87 79.87q7.26 8.26 11.67 17.09 4.42 8.82 4.42 17.65 0 8.83-3.85 17.65-3.85 8.83-11.11 16.09L705.22-557.43l48.26 47.69-57.96 57.96-165.04-158.35L185.09-265.3v80.21h114.95q9.7 21.52 20.96 41.68 11.26 20.15 25.09 37.54H105.87Zm528.31 82.83q-91.96 0-167.79-48.68Q390.57-120.39 355-204.35q35.57-83.39 111.39-132.06 75.83-48.68 167.79-48.68 91.95 0 167.78 48.68 75.82 48.67 111.95 132.06-34.13 84.96-110.95 133.13-76.83 48.18-168.78 48.18Zm67.1-113.92q27.42-27.13 27.42-67.1 0-39.98-27.42-67.11-27.41-27.13-67.1-27.13-39.7 0-66.83 27.13-27.13 27.13-27.13 67.11 0 39.97 27.13 67.1 27.13 27.13 66.83 27.13 39.69 0 67.1-27.13Zm-105.43-28.5q-15.63-15.63-15.63-38.6 0-22.98 15.63-38.61 15.63-15.63 38.61-15.63 22.98 0 38.61 15.63 15.63 15.63 15.63 38.61 0 22.97-15.63 38.6-15.63 15.63-38.61 15.63-22.98 0-38.61-15.63Z"/></svg>