<svg xmlns="http://www.w3.org/2000/svg" width="48" height="48" viewBox="0 96 960 960"><path d="M200.391 918.61v-79.219h63.261l80.043-262.868q7.696-25.218 28.217-41.175 20.522-15.957 47.436-15.957h121.304q26.914 0 47.436 15.957 20.521 15.957 28.217 41.175l80.043 262.868h63.261v79.219H200.391Zm147.61-79.219h263.998l-72.63-240.781H420.348l-72.347 240.781Zm92.39-446.782V192.825h79.218v199.784h-79.218Zm257.61 108.739-56.566-56.566 141.566-141.131 55.566 56.131-140.566 141.566Zm58.391 194.261v-79.218h199.219v79.218H756.392ZM261.999 501.348 121.433 359.782l55.566-56.131L319.13 444.782l-57.131 56.566ZM4.389 695.609v-79.218h199.784v79.218H4.389Z"/></svg>