<svg xmlns="http://www.w3.org/2000/svg" width="48" height="48" viewBox="0 96 960 960"><path d="M477.782 641.218h63.566l253.306-253.306-63.566-63.566-253.306 253.871v63.001Zm343.437-279.871-63.566-63.001 39-39q7.679-7.261 16.362-7.261 8.682 0 16.508 7.261l28.131 28.696q8.826 8.113 8.826 18.079 0 9.965-8.826 18.791l-36.435 36.435ZM480.585 990.131q34.676 0 59.589-24.761 24.913-24.761 24.913-59.761H395.478q0 35.261 24.933 59.892 24.933 24.63 60.174 24.63ZM135.694 868.435v-79.783h89.088V498.479q0-90.088 52.761-160.74 52.761-70.652 136.848-88.783v-26.174q0-27.286 19.21-45.23 19.21-17.944 46.565-17.944 27.356 0 46.4 17.944 19.043 17.944 19.043 45.23v26.307q34.739 5.302 60.478 21.823 25.739 16.522 52.174 41.826L417.782 553.217v148.001h148.566l170.436-170.436v257.87h88.087v79.783H135.694Z"/></svg>