<svg xmlns="http://www.w3.org/2000/svg" width="48" height="48" viewBox="0 -960 960 960"><path d="M480-84.522q83.269-79.664 129.939-148.723 46.67-69.059 46.67-121.087 0-75.479-51.653-128.878Q553.304-536.609 480-536.609T355.044-483.21q-51.653 53.399-51.653 128.878 0 49.767 46.388 120.056Q396.166-163.988 480-84.522Zm0 96.957Q354.478-94.52 292.434-185.63q-62.043-91.109-62.043-168.31 0-106.451 72.967-181.06Q376.326-609.609 480-609.609q103.674 0 176.642 74.471Q729.609-460.667 729.609-354q0 77.261-62.043 168.652Q605.522-93.956 480 12.435Zm.251-309.434q26.401 0 44.576-18.425 18.174-18.425 18.174-44.827 0-26.401-18.425-44.576-18.425-18.174-44.827-18.174-26.401 0-44.576 18.425-18.174 18.425-18.174 44.827 0 26.401 18.425 44.576 18.425 18.174 44.827 18.174ZM332.565-659.956 280.956-711q41.392-42.391 92.554-63.805 51.163-21.413 107.773-21.413 55.413 0 106.929 21.4 51.517 21.399 93.397 63.818l-51.044 51.044q-30.695-30.696-69.695-47.261-39-16.565-79.587-16.565t-79.587 16.565q-39 16.565-69.131 47.261Zm-112-113L167.956-823q64.392-63.391 145.104-98.305 80.713-34.913 168.339-34.913 87.625 0 168.722 34.913Q731.218-886.391 795.609-823l-52.044 51.044q-54.13-54.131-120.108-82.978-65.979-28.848-142.348-28.848-71.848 0-139.348 28.202-67.5 28.203-121.196 82.624ZM480-360Z"/></svg>