<svg xmlns="http://www.w3.org/2000/svg" width="48" height="48" viewBox="0 -960 960 960"><path d="M358.96-75.48v-535.74q-95-22.82-152.5-90.87-57.5-68.04-57.5-157.3h73q0 77.43 59.93 130.72 59.94 53.28 145.24 53.28h96.61q39.69 0 59.67 6.78 19.98 6.78 49.68 32.48l188.52 175.96L769-407.56 590.22-575.35v499.87h-72.44V-335h-85.82v259.52h-73Zm59.6-685.39q-22.91-23.48-22.91-55.74 0-33.39 22.91-56.59 22.92-23.19 56.03-23.19t56.3 23.19q23.2 23.2 23.2 56.59 0 32.26-23.2 55.74-23.19 23.48-56.3 23.48t-56.03-23.48Z"/></svg>