<svg xmlns="http://www.w3.org/2000/svg" width="48" height="48" viewBox="0 0 48 48"><path d="M24 42.65q-3.85 0-7.25-1.475t-5.925-4q-2.525-2.525-4-5.925T5.35 24q0-3.85 1.475-7.25t4-5.925q2.525-2.525 5.925-4T24 5.35q3.85 0 7.25 1.475t5.925 4q2.525 2.525 4 5.925T42.65 24q0 3.85-1.475 7.25t-4 5.925q-2.525 2.525-5.925 4T24 42.65Zm2.15-4.35q4.8-.5 8.225-3.925T38.3 26.15L26.15 38.3ZM23.1 38l15.55-15.45q-.1-.9-.325-1.75t-.525-1.7L21 35.85q.5.65 1 1.175t1.1.975Zm-3.25-4.25L36.8 16.8q-.4-.65-.825-1.25-.425-.6-.925-1.2L18.6 30.8q.2.75.5 1.475.3.725.75 1.475Zm-1.8-5.65L33.4 12.7q-.65-.5-1.275-.9-.625-.4-1.275-.75L17.65 24.2q0 1.05.1 2t.3 1.9Zm.05-7.7 10.45-10.3q-.95-.35-1.925-.525-.975-.175-1.975-.225-2.7 1.45-4.375 4.325Q18.6 16.55 18.1 20.4Z"/></svg>