<svg xmlns="http://www.w3.org/2000/svg" width="48" height="48" viewBox="0 -960 960 960"><path d="M150.39-99.65v-239.78h659.22v239.78h-79.22v-160H229.61v160h-79.22Zm-1.62-309.78q-25.21 0-42.53-17.25-17.33-17.24-17.33-42.28 0-25.04 17.47-42.37 17.47-17.32 42.82-17.32 25.13 0 42.31 17.36 17.19 17.36 17.19 42.56 0 25.21-17.37 42.25-17.36 17.05-42.56 17.05Zm120.49 10V-781.7q0-33.49 22.98-56.63 22.98-23.15 56.24-23.15h263.04q33.49 0 56.64 23.15 23.14 23.14 23.14 56.63v382.27H269.26Zm499.37-27.25q-17.33-17.24-17.33-42.28 0-25.04 17.37-42.37 17.36-17.32 42.56-17.32 25.21 0 42.53 17.36 17.33 17.36 17.33 42.56 0 25.21-17.36 42.25-17.36 17.05-42.57 17.05-25.2 0-42.53-17.25Z"/></svg>