<svg xmlns="http://www.w3.org/2000/svg" width="48" height="48" viewBox="0 0 48 48"><path d="M41.65 18.95 39 16.3l1.9-1.9-7.3-7.3L31.7 9 29 6.3l1.5-1.5q1.25-1.25 3.05-1.25 1.8 0 3.05 1.25l6.55 6.55q1.25 1.3 1.25 3.075 0 1.775-1.25 3.025Zm-24.1 24.2q-1.3 1.25-3.1 1.25t-3.05-1.25L4.15 35.9q-.95-1-.95-2.375t.95-2.375L6.35 29 9 31.65 7.15 33.6l7.25 7.25L16.35 39 19 41.65Zm19.4-16.25 3.65-3.65L24.75 7.4l-3.65 3.65L36.95 26.9Zm-13.7 13.7 3.7-3.65-15.9-15.9-3.65 3.7L23.25 40.6Zm.5-12.2 4.7-4.7-4.15-4.15-4.7 4.7Zm1.8 15.15q-.95.95-2.3.95-1.35 0-2.3-.95L4.4 27.05q-.95-.95-.925-2.3.025-1.35.975-2.3L8.7 18.1q1-1 2.375-1t2.325 1l3.5 3.5 4.75-4.7-3.55-3.55q-.95-.95-.95-2.3 0-1.35 1-2.3l4.3-4.35q.95-.95 2.3-.95 1.35 0 2.35.95l16.5 16.5q.95.95.95 2.325 0 1.375-.95 2.325l-4.35 4.3q-.95 1-2.3 1-1.35 0-2.3-1l-3.55-3.5-4.7 4.75 3.5 3.5q.95 1 .975 2.35.025 1.35-.975 2.35Z"/></svg>