<svg xmlns="http://www.w3.org/2000/svg" width="48" height="48" viewBox="0 96 960 960"><path d="M481 1033.22 344.067 900.532H155.383V712.156L19.783 576l135.685-136.17V250.818h188.376L481 114.652l135.178 136.146h189.024v189.024L941.348 576 805.193 711.933v188.684H616.156L481 1033.22Zm0-111.134 102.14-100.55h142.795V678.55L828.651 576 725.747 472.86V330.065H583.281L481 227.349 377.45 330.065H234.464v142.654L131.914 576l102.782 102.782v142.522h141.522L481 922.086Zm0 0L376.218 821.304H234.696V678.782L131.914 576l102.55-103.14V330.065H377.45L481 227.349l102.14 102.904h142.795v142.466L828.651 576 725.935 678.55v142.986H583.281L481 922.086Zm-1-100.13 73.601-72.046h100.707V649.046L727.521 576l-73.363-73.601V401.692H553.779L480 328.479l-73.046 73.213H306.09v100.529L233.044 576l73.046 73.046V749.91h98.864L480 821.956Z"/></svg>