<svg xmlns="http://www.w3.org/2000/svg" width="48" height="48" viewBox="0 96 960 960"><path d="M190.782 918.61V741.827h-90v-79.218h90v-87h-90v-79.218h90V360.348l123-123.001 82.827 83.957L481 237.347l83.391 83.391 82.827-83.391 123.566 123.001v136.043h89v79.218h-89v87h89v79.218h-89V918.61H190.782ZM270 496.391h86.999v-103.13l-43.217-43.217L270 393.524v102.867Zm166.218 0h87.564v-103.13L480 350.044l-43.782 43.48v102.867Zm167.783 0H690v-103.13l-43.782-43.217-42.217 43.272v103.075ZM270 662.609h86.999v-87H270v87Zm166.218 0h87.564v-87h-87.564v87Zm167.783 0H690v-87h-85.999v87ZM270 839.391h86.999v-97.564H270v97.564Zm166.218 0h87.564v-97.564h-87.564v97.564Zm167.783 0H690v-97.564h-85.999v97.564Z"/></svg>