<svg xmlns="http://www.w3.org/2000/svg" width="48" height="48" viewBox="0 -960 960 960"><path d="M106.218-145.869q-32.507 0-55.863-23.356-23.356-23.355-23.356-55.862v-509.826q0-32.74 23.356-56.262 23.356-23.521 55.863-23.521h747.564q32.664 0 55.941 23.521 23.278 23.522 23.278 56.262v509.826q0 32.507-23.278 55.862-23.277 23.356-55.941 23.356H106.218ZM137.913-357h45.186v-170l112.988 170h45.826v-246h-45v170L184.609-603h-46.696v246Zm242.217 0h154.74v-46.13H430.13v-52.66h104.74v-45.404H430.13v-54.676h104.74V-603H380.13v246Zm239.522 0h170q14.45 0 24.225-9.487 9.775-9.488 9.775-23.513v-213H775.26v196h-50.173v-155h-45v155h-45.609v-196h-47.826v213q0 14.025 9.487 23.513Q605.627-357 619.652-357Z"/></svg>