<svg xmlns="http://www.w3.org/2000/svg" width="48" height="48" viewBox="0 -960 960 960"><path d="M252.13-145.869q-93.087 0-159.109-65.07T27-369.017q0-78.113 54.773-131.179 54.772-53.065 133.152-53.065t133.141 48.283q54.76 48.282 54.76 124.978h66.218q-1.696-89.783-70.827-163.174-69.13-73.392-190.74-76.87 31.218-84.826 108.588-139.739 77.37-54.913 164.71-54.913 114.861 0 194.717 83.347 79.856 83.348 84.943 197.479v24q77.392 6.783 124.979 57.147t47.587 124.72q0 75.351-53.392 128.743Q826.218-145.869 751-145.869H252.13Z"/></svg>