<svg xmlns="http://www.w3.org/2000/svg" width="48" height="48" viewBox="0 -960 960 960"><path d="M185.087-105.869q-32.507 0-55.862-23.356-23.356-23.355-23.356-55.862V-352h79.218v166.913H352v79.218H185.087Zm422.913 0v-79.218h166.913V-352h79.783v166.913q0 32.507-23.521 55.862-23.522 23.356-56.262 23.356H608ZM105.869-608v-166.913q0-32.74 23.356-56.262 23.355-23.521 55.862-23.521H352v79.783H185.087V-608h-79.218Zm669.044 0v-166.913H608v-79.783h166.913q32.74 0 56.262 23.521 23.521 23.522 23.521 56.262V-608h-79.783ZM479.867-361.869q-50.519 0-84.259-33.739-33.739-33.74-33.739-84.259t33.739-84.674q33.74-34.155 84.259-34.155t84.674 34.155q34.155 34.155 34.155 84.674 0 50.519-34.155 84.259-34.155 33.739-84.674 33.739Z"/></svg>