<svg xmlns="http://www.w3.org/2000/svg" width="48" height="48" viewBox="0 96 960 960"><path d="M820 446V316H690v-73.001h123.782q32.507 0 55.863 23.356t23.356 55.863V446H820Zm-753 0V322.218q0-32.507 23.355-55.863 23.356-23.356 55.863-23.356H270V316H140v130H67Zm623 463.001V836h130V706h73.001v123.782q0 32.507-23.356 55.863t-55.863 23.356H690Zm-543.782 0q-32.507 0-55.863-23.356t-23.356-55.863V706H140v130h130v73.001H146.218ZM200 776V376h560v400H200Zm73.001-73.001h413.998V449.001H273.001v253.998Zm0 0V449.001v253.998Z"/></svg>