<svg xmlns="http://www.w3.org/2000/svg" width="48" height="48" viewBox="0 96 960 960"><path d="M546.749 625.609q-33.537 0-56.644-23.24-23.106-23.241-23.106-56.369V319.782q0-33.361 23.241-56.768 23.24-23.406 56.369-23.406h106.642q33.537 0 56.644 23.406 23.106 23.407 23.106 56.768V546q0 33.128-23.241 56.369-23.24 23.24-56.369 23.24H546.749Zm-.531-79.218h107.564v-227H546.218v227ZM372 819.391q-26.171 0-47.638-15.344-21.466-15.344-28.406-41.438L190.391 407.913V239.608h79.218v170.913l102.285 329.087h357.715v79.783H372ZM310.391 958.61v-79.219h419.218v79.219H310.391Zm235.827-639.219h107.564-107.564Z"/></svg>