<svg xmlns="http://www.w3.org/2000/svg" width="48" height="48" viewBox="0 96 960 960"><path d="M175.478 969.915q-32.74 0-56.262-23.522t-23.522-56.262V364h79.784v526.131h526.131v79.784H175.478Zm158.131-163.784q-29.829 0-51.98-22.151-22.151-22.151-22.151-51.98h74.131v74.131ZM259.478 644v-96h74.131v96h-74.131Zm0-184v-96h74.131v96h-74.131Zm0-184q0-29.667 22.151-52.182 22.151-22.514 51.98-22.514V276h-74.131Zm162.131 530.131V732h96v74.131h-96Zm0-530.131v-74.696h96V276h-96Zm184 530.131V732h96v74.131h-96Zm0-530.131v-74.696h96V276h-96Zm184 530.131V732h74.697q0 29.652-22.317 51.892-22.317 22.239-52.38 22.239Zm0-162.131v-96h74.697v96h-74.697Zm0-184v-96h74.697v96h-74.697Zm0-184v-74.696q30.232 0 52.464 22.514 22.233 22.515 22.233 52.182h-74.697Z"/></svg>