<svg xmlns="http://www.w3.org/2000/svg" width="48" height="48" viewBox="0 96 960 960"><path d="M137.087 910.131q-32.507 0-55.862-23.356-23.356-23.355-23.356-55.862V321.087q0-32.74 23.356-56.262 23.355-23.521 55.862-23.521h685.826q32.74 0 55.979 23.239 23.239 23.239 23.804 55.979H599.955q-49.476 0-84.258 30.478-34.783 30.478-41.001 74.826v20h-231.87v70.739H460V634.87H242.826v71.304H463v5.653q11 68.075 50.87 119.624 39.869 51.55 99.478 78.68H137.087ZM773.175 1016.7q-33.49 0-56.637-23.149-23.147-23.147-23.147-56.637v-57.478q-74.695-13.261-124.043-71.079Q520 750.538 520 671.827V460.306q0-32.664 23.093-55.941 23.093-23.278 56.691-23.278h263.042q32.664 0 55.941 23.278 23.278 23.277 23.278 55.941v211.521q0 78.711-49.566 136.53-49.565 57.818-123.826 71.079v62h130v75.264H773.175Zm28.13-379.96h70.478V451.349H590.262V556.74h51.043q31.685 0 59.907 14.262 28.222 14.263 48.05 39.433 9.717 12.87 22.981 19.587 13.263 6.718 29.062 6.718Z"/></svg>