<svg xmlns="http://www.w3.org/2000/svg" width="48" height="48" viewBox="0 -960 960 960"><path d="M439.826-65.869q-29.829 0-51.98-21.485-22.151-21.485-22.151-52.081v-188.13H224.522q-31.694 0-55.174-23.479-23.479-23.479-23.479-55.174v-279.825q0-70.827 47.696-119.74t119.523-48.913h501.608v448.478q0 31.695-23.239 55.174t-55.979 23.479H594.87v188.13q0 30.596-22.151 52.081-22.151 21.485-51.98 21.485h-80.913ZM224.522-557.39h510.956v-218.087h-56.565v156.869h-60.565v-156.869h-72.131v83.304h-60.565v-83.304H313.088q-39.914 0-64.24 25.261-24.326 25.261-24.326 64.174v128.652Z"/></svg>