<svg xmlns="http://www.w3.org/2000/svg" width="48" height="48" viewBox="0 96 960 960"><path d="M24.173 955.218V769.26l80-80V435.782l-80-80V196.216H96.61v80h93.782v-80h73v80h93.218v-80h73v159.566l-82.826 83.392v70.608h263.608v-74l-80-80V196.216h73v80h93.218v-80h73v80h93.782v-80h73.001v159.566l-80 80V689.26l80 80v185.958H560.391V819.391q0-34.036-23.177-57.213-23.178-23.177-57.214-23.177t-57.214 23.177q-23.177 23.177-23.177 57.213v135.827H24.173ZM103.391 876h217v-56.609q0-66.956 46.826-113.282Q414.043 659.782 480 659.782q66.957 0 113.283 46.327 46.326 46.326 46.326 113.282V876h217v-73.826l-80-80V409.652l60.434-59.87H629.74l59.869 59.87v172.566H270.391V409.652l59.869-59.87H122.957l60.434 59.87v312.522l-80 80V876ZM480 612.609Z"/></svg>