<svg xmlns="http://www.w3.org/2000/svg" width="48" height="48" viewBox="0 -960 960 960"><path d="M205.09-236.04v-80.16q0-28.15 18.06-49.67 18.07-21.52 44.2-35.09 54.17-27.87 114.35-37.58 60.17-9.72 120.34-.98-3 12.13-5.06 24.92-2.07 12.8-2.07 25.17 0 46.65 21.85 87.52t61.54 65.87H205.09ZM449.61-480q-52.7 0-88.61-35.91-35.91-35.92-35.91-88.61 0-51.23 35.91-87.59 35.91-36.37 88.61-36.37 51.22 0 87.59 36.37 36.37 36.36 36.37 87.59 0 52.69-36.37 88.61Q500.83-480 449.61-480ZM145.09-65.87q-32.51 0-55.87-23.35-23.35-23.36-23.35-55.87V-312h79.22v166.91H312v79.22H145.09ZM65.87-648v-166.91q0-32.74 23.35-56.26 23.36-23.53 55.87-23.53H312v79.79H145.09V-648H65.87ZM648-65.87v-79.22h166.91V-312h79.79v166.91q0 32.51-23.53 55.87-23.52 23.35-56.26 23.35H648ZM814.91-648v-166.91H648v-79.79h166.91q32.74 0 56.26 23.53 23.53 23.52 23.53 56.26V-648h-79.79ZM652.65-236.04v-56.92q-45.82-8.56-76.02-44.72-30.2-36.16-30.2-85.71h48.48q0 35.13 24.04 60.11 24.04 24.98 58.2 24.98 34.15 0 58.22-25 24.06-24.99 24.06-60.09h48.48q0 49.52-30.47 85.69-30.48 36.18-76.31 44.74v56.92h-48.48Zm-13.52-157.18q-15.35-15.49-15.35-37.91v-72.65q0-22.43 15.35-37.91 15.35-15.48 37.71-15.48t38.04 15.48q15.69 15.48 15.69 37.91v72.65q0 22.42-15.69 37.91-15.68 15.48-38.04 15.48t-37.71-15.48Z"/></svg>