<svg xmlns="http://www.w3.org/2000/svg" width="48" height="48" viewBox="0 96 960 960"><path d="M489.63 1069q-73.674 0-138.309-23.45-64.635-23.44-112.631-67.017-47.996-43.576-75.539-105.598-27.544-62.022-27.544-138.24V321.782q0-23.916 16.913-40.502 16.913-16.585 40.457-16.585t40.174 16.585q16.631 16.586 16.631 40.502v221.217h40V205.174q0-23.917 16.704-40.502t40.383-16.585q23.261 0 39.891 16.585 16.631 16.585 16.631 40.502V556h40V152.522q0-23.261 16.704-39.892Q476.799 96 500.478 96q23.261 0 39.892 16.704Q557 129.408 557 153.087V556h40V237.044q0-23.679 16.234-40.383 16.234-16.704 39.957-16.704 23.722 0 40.07 16.704t16.348 40.383v405.043q-81.696 18.391-128.848 72.311Q533.609 768.319 530.609 846h40q3-66.565 52.848-119.022 49.848-52.457 132.935-54.152h-6.783V495.74q0-23.917 15.913-39.502 15.913-15.586 39.457-15.586t39.174 15.586q15.631 15.585 15.631 39.502v238.955q0 76.7-30.044 138.763-30.044 62.064-80.784 105.459-50.741 43.393-117.696 66.743Q564.304 1069 489.63 1069Z"/></svg>