<svg xmlns="http://www.w3.org/2000/svg" width="48" height="48" viewBox="0 -960 960 960"><path d="m480-802.96-100-133h200l-100 133ZM717.61-363.5q97.87-50.02 97.87-121.12 0-71.09-97.77-121.47-97.77-50.39-237.61-50.39-139.84 0-237.71 50.39-97.87 50.38-97.87 121.47 0 71.1 97.77 121.12 97.77 50.02 237.61 50.02 139.84 0 237.71-50.02Zm-32.31 94.85v123.56q0 33.26-23.27 56.24-23.28 22.98-55.94 22.98H352.91q-33.49 0-56.63-22.98-23.15-22.98-23.15-56.24v-123.56Q180-301.91 122.93-358.4q-57.06-56.49-57.06-126.1 0-104.28 120.46-177.24 120.45-72.96 293.53-72.96 173.09 0 293.96 73.21Q894.7-588.29 894.7-484.7q0 70.07-57.63 126.93-57.63 56.86-151.77 89.12ZM480-484.7ZM430.3-380h114.87v-39.61h-76.39v-168.22H430.3V-380Z"/></svg>