<svg xmlns="http://www.w3.org/2000/svg" width="48" height="48" viewBox="0 -960 960 960"><path d="M355.042-152.652q-136.955 0-232.499-95.298-95.544-95.298-95.544-232.087T122.58-712.37q95.581-95.543 232.37-95.543t232.333 95.414q95.543 95.414 95.543 232.37 0 136.955-95.414 232.216t-232.37 95.261Zm-.365-72.435q105.975 0 180.279-74.352 74.304-74.351 74.304-180.326 0-105.974-74.069-180.561t-180.043-74.587q-105.974 0-180.561 74.352Q100-586.21 100-480.235q0 105.974 74.352 180.561 74.351 74.587 180.325 74.587ZM318.13-346.609h73v-193.782h80v-53h-233v53h80v193.782Zm463.609-306.478-47.193-105.199-104.634-46.628 104.634-47.193 47.193-104.634 46.451 104.634 104.811 47.193-104.811 46.628-46.451 105.199Zm0 649.263-47.193-104.634-104.634-47.193 104.634-46.628 47.193-105.199 46.451 105.199 104.811 46.628-104.811 47.193L781.739-3.824ZM354.913-480Z"/></svg>