<svg xmlns="http://www.w3.org/2000/svg" width="48" height="48" viewBox="0 -960 960 960"><path d="M323.523-396.609h64.355q13.751 0 22.937-9.734Q420-416.078 420-430v-43.391h-36.218v40h-57.173v-93.218H418q0-14.261-8.944-25.521-8.944-11.261-22.165-11.261h-63.109q-14.672 0-24.031 9.359-9.36 9.36-9.36 24.032v100q0 14.672 9.36 24.032 9.359 9.359 23.772 9.359Zm138.086 0h36.782v-166.782h-36.782v166.782Zm78.391 0h36.218v-53.782h70v-36.218h-70v-40h90v-36.782H540v166.782Zm-354.913 290.74q-32.507 0-55.862-23.356-23.356-23.355-23.356-55.862v-589.826q0-32.74 23.356-56.262 23.355-23.521 55.862-23.521h589.826q32.74 0 56.262 23.521 23.521 23.522 23.521 56.262v589.826q0 32.507-23.521 55.862-23.522 23.356-56.262 23.356H185.087Z"/></svg>