<svg xmlns="http://www.w3.org/2000/svg" width="48" height="48" viewBox="0 -960 960 960"><path d="M53.999-128.346v-79.219h250.174q-21.13-93.826-90.609-166-69.478-72.174-159.565-95.87 21.13-5 41.76-7.782Q116.39-480 139.087-480q145.305 0 243.109 100.913Q480-278.173 480-128.346H53.999Zm486.001 0q0-43.696-8.283-78.87-8.282-35.174-21.978-70.131Q552-372.695 637.935-426.348 723.87-480 820.914-480q22.696 0 43.326 2.783 20.631 2.782 41.761 7.782-87.826 23.696-159.935 98.001-72.109 74.304-89.674 163.869h249.609v79.219H540Zm-56.87-204.87q-11.826-81.653 9.609-153.588 21.435-71.935 66.478-126.022 45.044-54.087 109.849-86.479 64.804-32.391 140.283-35.522-59.392 37.261-112.848 104.261-53.457 67.001-67.588 140.523-46.826 22.695-86.217 65.565-39.392 42.87-59.566 91.262Zm-62.695-82.783q-17.696-17.261-39.522-34.805-21.826-17.544-35.392-25.544 3.566-13.695 5.348-31.587 1.783-17.891 1.783-27.456 0-81.088-25.696-153.61-25.696-72.522-72.522-131.913 74.522 29.696 133.044 95Q446-660.609 470.261-572.435q-19.696 34.261-33.326 75.718-13.631 41.457-16.5 80.718Z"/></svg>