<svg xmlns="http://www.w3.org/2000/svg" width="48" height="48" viewBox="0 -960 960 960"><path d="M185.087-105.869q-32.507 0-55.862-23.356-23.356-23.355-23.356-55.862v-589.826q0-32.74 23.356-56.262 23.355-23.521 55.862-23.521h589.826q32.74 0 56.262 23.521 23.521 23.522 23.521 56.262v589.826q0 32.507-23.521 55.862-23.522 23.356-56.262 23.356H185.087Zm0-79.218H329.26V-329.26H185.087v144.173Zm223.392 0h143.042V-329.26H408.479v144.173Zm222.826 0h143.608V-329.26H631.305v144.173ZM185.087-408.479H329.26v-143.042H185.087v143.042Zm223.392 0h143.042v-143.042H408.479v143.042Zm222.826 0h143.608v-143.042H631.305v143.042ZM185.087-631.305H329.26v-143.608H185.087v143.608Zm223.392 0h143.042v-143.608H408.479v143.608Zm222.826 0h143.608v-143.608H631.305v143.608Z"/></svg>