<svg xmlns="http://www.w3.org/2000/svg" width="48" height="48" viewBox="0 -960 960 960"><path d="M782.088-50.042q-7.696 0-14.674-2.848-6.979-2.848-13.109-8.978L503.826-312.347q-6.13-6.13-8.978-13.109Q492-332.434 492-340.13t2.848-14.957q2.848-7.261 8.978-13.391l86.131-86.131q6.13-6.13 13.109-9.261 6.978-3.13 15.239-3.13 7.696 0 14.674 3.13 6.978 3.131 13.109 9.261l250.479 251.044q6.13 6.131 9.261 12.827 3.13 6.695 3.13 14.956 0 7.696-3.413 14.957-3.413 7.261-8.978 12.826l-86.131 86.13q-6.13 6.131-13.109 8.98-6.978 2.847-15.239 2.847Zm.565-86.131 39.609-39.609L617.74-380.869l-39.609 39.609 204.522 205.087ZM177.477-50.607q-7.695 0-15.174-2.565-7.478-2.566-13.609-8.696L63.564-147q-6.13-5.565-8.696-12.761-2.565-7.195-2.565-15.456 0-7.696 2.565-14.957 2.565-7.261 8.696-13.392L301.565-441h90.087l36.304-36.304-181.783-181.783h-60.391l-136.87-136.87 112-112.001 136.87 136.87v60.392l181.783 181.783 131.696-131.696-69.826-69.826 56-55.435h-113l-23.087-23.653 142.696-143.261 23.652 24.217v112.435l56-56 180.871 181.436q16.13 16.695 25.761 37.891 9.63 21.196 9.63 44.892 0 23.391-8.761 45t-23.022 38.87l-90.087-90.087-59.392 59.391-54.826-54.826-220.609 220.609v89.652L205.26-61.868q-6.13 6.13-12.826 8.696-6.696 2.565-14.957 2.565Zm0-85.566L383.13-341.26v-39.609h-39.609L137.869-175.782l39.608 39.609Zm0 0-39.608-39.609 20.304 19.305 19.304 20.304Zm605.176 0 39.609-39.609-39.609 39.609Z"/></svg>