<svg xmlns="http://www.w3.org/2000/svg" width="48" height="48" viewBox="0 -960 960 960"><path d="M438.435-230.565q-67.696 0-115.805-48.782-48.109-48.783-60.5-118.479-100-1.565-168.13-72.304-68.131-70.739-68.131-171.174 0-28.956 20.326-49.565 20.326-20.609 49.848-20.609h178.652v-64h-83.13v-79.218h245.479v79.218h-83.131v64h151.783q16.522 0 31.414 6.413 14.891 6.413 25.718 17.805l329.607 332.738q42.827 43.392 43.044 103.913.217 60.522-44.174 102.914-41.826 42.957-102.131 42.957-60.304 0-102.696-42.957l-81.304-82.87H438.435Zm1.043-166.695h-82.869q-.608 35.782 22.718 61.912 23.325 26.13 59.108 26.13h88.086l-87.043-88.042Z"/></svg>