<svg xmlns="http://www.w3.org/2000/svg" width="48" height="48" viewBox="0 0 48 48"><path d="M34.6 20.95 18.1 4.5q1.15-.6 2.625-1.075T24 2.95q5.05 0 8.625 3.55t3.575 8.65q0 1.55-.4 3.075-.4 1.525-1.2 2.725Zm-1 7.95-3.3-3.35q-1.35.8-3 1.25-1.65.45-3.3.45-5.05 0-8.6-3.525t-3.55-8.575q0-1.55.425-3.2.425-1.65 1.325-3.1l-3-2.95 2.35-2.35 23 23Zm7.95 14.55V39.8h-3.7V37h3.7v-3.65h2.75V37H48v2.8h-3.7v3.65Zm-15.2 1.05V31.95h7.15q1.3 0 2.025.7.725.7.725 2v2.45q0 1-.525 1.675T34.2 39.85l2 4.65h-3.05l-1.65-4.05h-2.45v4.05Zm2.7-6.7h4.5v-3.15h-4.5ZM0 44.5V31.95h2.7v4.4h4.35v-4.4h2.7V44.5h-2.7v-5.6H2.7v5.6Zm13.15 0V31.95h7q1.3 0 2 .7t.7 2v7.1q0 1.35-.7 2.05-.7.7-2 .7Zm2.7-2.75h4.3v-7.1h-4.3Zm25.7 1.7V39.8h-3.7V37h3.7v-3.65h2.75V37H48v2.8h-3.7v3.65Zm-15.2 1.05V31.95h7.15q1.3 0 2.025.7.725.7.725 2v2.45q0 1-.525 1.675T34.2 39.85l2 4.65h-3.05l-1.65-4.05h-2.45v4.05Zm2.7-6.7h4.5v-3.15h-4.5ZM0 44.5V31.95h2.7v4.4h4.35v-4.4h2.7V44.5h-2.7v-5.6H2.7v5.6Zm13.15 0V31.95h7q1.3 0 2 .7t.7 2v7.1q0 1.35-.7 2.05-.7.7-2 .7Zm2.7-2.75h4.3v-7.1h-4.3Z"/></svg>