<svg xmlns="http://www.w3.org/2000/svg" width="48" height="48" viewBox="0 0 48 48"><path d="M29 36.6q1.1 0 1.85-.775T31.6 34q0-1.1-.75-1.85T29 31.4q-1.05 0-1.825.75-.775.75-.775 1.85 0 1.05.775 1.825.775.775 1.825.775Zm-10.1-.25L31.35 23.9l-2.25-2.25L16.65 34.1Zm.1-9.75q1.1 0 1.85-.775T21.6 24q0-1.1-.75-1.85T19 21.4q-1.05 0-1.825.75-.775.75-.775 1.85 0 1.05.775 1.825.775.775 1.825.775Zm-7.75 18.1q-1.6 0-2.775-1.175Q7.3 42.35 7.3 40.75V7.25q0-1.65 1.175-2.825Q9.65 3.25 11.25 3.25h18.1l11.4 11.4v26.1q0 1.6-1.175 2.775Q38.4 44.7 36.75 44.7ZM27.3 16.55v-9.3H11.25v33.5h25.5v-24.2Zm-16.05-9.3v9.3-9.3 33.5-33.5Z"/></svg>