<svg xmlns="http://www.w3.org/2000/svg" width="48" height="48" viewBox="0 -960 960 960"><path d="M474.782-60.825q-137.826-137.13-220.435-222.957-82.609-85.826-126.37-144-43.76-58.174-57.174-101.234-13.413-43.061-13.413-94.797 0-96.666 66.405-164.622 66.405-67.957 163.204-67.957 49.805 0 95.008 19.445 45.203 19.446 81.689 53.034L409.609-560h109.695l-46.565 392.044L591.26-596.609H477.739l69.87-230.653q28.956-15.13 60.696-22.13 31.739-7 64.696-7 96.522 0 163.348 67.957 66.826 67.956 66.826 165.14 0 49.42-13.761 91.814-13.761 42.394-58.718 101.351-44.956 58.957-129.326 145.348Q617-198.39 474.782-60.825Zm-71.305-182.437 29.174-245.998H312.652l62.825-261.914q-20.869-10.435-43.009-17.935-22.139-7.5-45.94-7.5-62.423 0-106.171 44.871-43.748 44.871-43.748 108.347 0 32.666 12.5 66.181 12.5 33.514 42.869 76.666 30.37 43.153 81.761 100.109 51.391 56.956 129.738 137.173Zm175.568-28.174Q706.609-393.305 765-477.866q58.391-84.56 58.391-145.874 0-63.035-43.611-107.952t-106.779-44.917q-15.145 0-30.29 2.516-15.145 2.515-29.71 6.789l-31.478 99.956h108.521L579.045-271.436Zm110.999-395.912ZM312.652-489.26Z"/></svg>