<svg xmlns="http://www.w3.org/2000/svg" width="48" height="48" viewBox="0 -960 960 960"><path d="M259.22-70.83q56 0 103.76-31 47.76-31 68.89-83.69 15.87-39.61 47.76-82.13 31.89-42.52 66.94-72.26 57.3-47.57 90.36-115.57 33.07-68 33.07-146.51 0-117.14-82.61-200.03t-199-82.89q-109.61 0-190.17 71.82-80.57 71.83-94.61 177.87h81.48q12.91-72.56 70.04-121.24 57.13-48.67 133.26-48.67 83.22 0 142.81 59.58 59.58 59.59 59.58 143.81 0 63.1-31.78 119.16-31.78 56.06-87.52 98.93-29.61 23.3-57.52 61.78-27.92 38.48-48.35 84.65-14.44 35.31-41.84 60.96-27.41 25.65-64.64 25.65-45.87 0-66.46-30.43-20.58-30.44-20.58-70.57 0-31.7 17.58-57.78 17.59-26.09 41.55-48.22L282.04-312l98.7-162.39q53.48 4.61 94.02-31.63t40.54-91.72q0-51.88-36.11-87.83-36.12-35.95-88.23-35.95-56.58 0-93.2 41.56-36.63 41.57-29.72 97.05L116.39-462.57l57.78 50.44q-37.74 33.52-59.52 73.76t-21.78 86.59q0 73.27 43.45 127.11 43.46 53.84 122.9 53.84Zm478.17-209.69q59.7-68.52 91.05-151.48 31.34-82.97 31.34-173.74 0-91.69-31.84-175.63-31.85-83.93-90.55-147.46l-58 53.57q49.31 52.69 74.96 121.96Q780-684.04 780-605.74q0 74.73-25.93 144.56-25.94 69.83-75.24 125.53l58.56 55.13ZM268.57-411.04l-52.53-45.05 78.44-64.74q5.43 7.44 12.43 13.44 7 6 14.44 11l-52.78 85.35Zm122.67-129.13q-24.2 0-40.74-16.55-16.54-16.54-16.54-40.74 0-24.19 16.56-40.74 16.57-16.54 40.44-16.54 24.47 0 41.02 16.57 16.54 16.57 16.54 40.43 0 24.48-16.54 41.02-16.55 16.55-40.74 16.55ZM268.7-466.44Zm122.26-131.3Z"/></svg>