<svg xmlns="http://www.w3.org/2000/svg" width="48" height="48" viewBox="0 96 960 960"><path d="m388.348 985.609-70-123h-135L91.26 699l69-123-69-123 92.088-163.609h135l70-123h183.304l70 123h135.566L869.305 453l-69 123 69 123-92.087 163.609H641.652l-70 123H388.348Zm254.87-448.218h88.13L780.26 453l-48.912-84.391h-88.13L594.305 453l48.913 84.391Zm-207 121h88.13L573.26 576l-48.912-82.391h-88.13L387.305 576l48.913 82.391Zm-.566-244h88.696L572.695 330l-48.347-84.391h-88.696L387.305 330l48.347 84.391Zm-205.434 123h88.13L367.26 453l-48.912-84.391h-88.13L181.305 453l48.913 84.391Zm0 246h88.13L367.26 699l-49.912-84.391h-88.13L180.305 699l49.913 84.391Zm205.434 123h88.696L572.695 822l-48.347-84.391h-88.696L387.305 822l48.347 84.391Zm207.566-123h88.13L780.26 699l-48.912-84.391h-88.13L597.305 699l45.913 84.391Z"/></svg>