<svg xmlns="http://www.w3.org/2000/svg" width="48" height="48" viewBox="0 96 960 960"><path d="M262.609 399.042q-30.795 0-51.311-20.848t-20.516-51.261q0-30.413 20.516-51.544 20.516-21.13 51.311-21.13 30.794 0 51.593 21.13Q335 296.52 335 326.933q0 30.413-20.798 51.261-20.799 20.848-51.593 20.848ZM140 990.131q-32.942 0-56.08-23.138-23.138-23.139-23.138-56.08V588.304h133.87v-62.783q0-33.676 23.226-57.164 23.227-23.489 56.837-23.489 21.415 0 38.611 9.131 17.196 9.13 31.892 24.826l60.391 69.087q9.696 10.696 21.424 20.798 11.729 10.102 26.533 19.594h446.218v322.609q0 32.941-23.305 56.08-23.304 23.138-56.479 23.138H140Zm615.001-508.827 2.695-18.218q3-40-8.545-63-11.546-23-32.728-53-24.292-34-34.792-70.717-10.5-36.718-5.935-72.283l2.131-15.218h66.435l-2.13 20.218q-2.565 35.069 4.717 57.132 7.283 22.063 30.283 52.12 25 32.092 38.282 72.703 13.283 40.61 8.718 75.045l-2.131 15.218h-67Zm-173.001 0 2.13-18.218q3-40-8.5-63t-32.5-53q-24-34-34.782-70.717-10.783-36.718-6.218-72.283l2.58-15.218h67.117l-2.131 20.218q-2.565 35 4.718 57 7.282 22 30.282 52 24.435 32.565 37.718 73.065 13.282 40.5 9.282 74.935l-2.579 15.218H582Zm98 429.609h110V668.087H680v242.826Zm-170 0h110V668.087H510v242.826Zm-170 0h110V668.087H340v242.826Zm-170 0h110V668.087H170v242.826Z"/></svg>