<svg xmlns="http://www.w3.org/2000/svg" width="48" height="48" viewBox="0 96 960 960"><path d="M27 875.218V261.391h73V665h359.218V346.391H775q65.175 0 111.588 46.412 46.413 46.413 46.413 111.588v370.827H860v-131H100v131H27Zm246.657-264.827q-47.826 0-80.437-32.478t-32.611-80.304q0-47.827 32.478-80.022 32.478-32.196 80.304-32.196 47.827 0 80.022 32.063 32.196 32.062 32.196 79.889 0 47.826-32.063 80.437-32.062 32.611-79.889 32.611ZM532.784 665H860V504.585q0-35.256-24.969-60.225T775 419.391H532.784V665ZM273.391 543.609q19 0 32.5-13.5t13.5-32.5q0-19-13.5-32.5t-32.5-13.5q-19 0-32.5 13.5t-13.5 32.5q0 19 13.5 32.5t32.5 13.5Zm0-46Zm259.393-78.218V665 419.391Z"/></svg>