<svg xmlns="http://www.w3.org/2000/svg" width="48" height="48" viewBox="0 -960 960 960"><path d="M598.33-575.67q48.58-48.59 48.58-118.33v-120.91H313.09V-694q0 69.74 48.58 118.33 48.59 48.58 118.33 48.58t118.33-48.58ZM145.87-65.87v-79.22h88V-267q0-69.3 37.46-126.74 37.45-57.43 100.06-86.26-62.61-29.83-100.06-87.26Q233.87-624.7 233.87-694v-120.91h-88v-79.79H814.7v79.79h-88V-694q0 69.3-37.46 126.74-37.46 57.43-100.06 87.26 62.6 28.83 100.06 86.26Q726.7-336.3 726.7-267v121.91h88v79.22H145.87Z"/></svg>