<svg xmlns="http://www.w3.org/2000/svg" width="48" height="48" viewBox="0 96 960 960"><path d="m839.783 1024.04-33.913-33.909H145.869v-79.218h96V789.197q0-68.501 33.956-126.719Q309.782 604.261 371.39 576q-41.47-21.046-71.17-56.023-29.699-34.978-43.873-79.369L23.739 208l47.522-47.522 816.044 816.044-47.522 47.518Zm-255.13-444.083-59.435-60.001q51.912-14.565 82.804-58.774 30.891-44.209 30.891-99.182V241.087H321.087v75.304l-45.303-45.304v-30h-30l-79.219-79.783h648.131v79.783h-96V362q0 70-35.369 129.565-35.37 59.565-98.674 88.392ZM321.087 910.913h317.826v-87.769L443.261 627.522q-55.87 13.435-89.022 58.872Q321.087 731.832 321.087 789v121.913Zm397.609 0h30l-30-30v30Z"/></svg>