<svg xmlns="http://www.w3.org/2000/svg" width="48" height="48" viewBox="0 96 960 960"><path d="M580.118 806Q601 806 615.5 791.382q14.5-14.617 14.5-35.5Q630 735 615.382 720.5q-14.617-14.5-35.5-14.5Q559 706 544.5 720.618q-14.5 14.617-14.5 35.5Q530 777 544.618 791.5q14.617 14.5 35.5 14.5ZM378 800l246-246-42-42-246 246 42 42Zm2.118-194Q401 606 415.5 591.382q14.5-14.617 14.5-35.5Q430 535 415.382 520.5q-14.617-14.5-35.5-14.5Q359 506 344.5 520.618q-14.5 14.617-14.5 35.5Q330 577 344.618 591.5q14.617 14.5 35.5 14.5Zm99.824 384.131q-143.025 0-238.549-98.05Q145.869 794.032 145.869 648q0-103.341 82.891-225.388Q311.652 300.565 480 157.347q168.348 143.218 251.522 265.265Q814.696 544.659 814.696 648q0 146.032-95.864 244.081-95.865 98.05-238.89 98.05Zm.019-79.218q109.778 0 182.365-75.054t72.587-188.181q0-75.852-65.087-173.808Q604.739 375.913 480 263.348 355.261 375.913 290.174 473.87q-65.087 97.956-65.087 173.808 0 113.127 72.548 188.181 72.547 75.054 182.326 75.054ZM480 573.739Z"/></svg>