<svg xmlns="http://www.w3.org/2000/svg" width="48" height="48" viewBox="0 0 48 48"><path d="m15 17.3 1.35-3.05 3.05-1.35-3.05-1.4-1.35-3-1.35 3-3.05 1.4 3.05 1.35Zm18-3.65q1.15 0 1.95-.8t.8-1.95q0-1.15-.8-1.95T33 8.15q-1.15 0-1.95.8t-.8 1.95q0 1.15.8 1.95t1.95.8ZM9.65 46.85v-4.6q0-1.85 1-3.45t2.75-2.4q2.5-1.15 5.175-1.725Q21.25 34.1 24 34.1t5.425.575Q32.1 35.25 34.6 36.4q1.75.8 2.775 2.4 1.025 1.6 1.025 3.45v4.6ZM24 32.1q-3.05 0-5.2-2.175-2.15-2.175-2.15-5.225t2.15-5.225Q20.95 17.3 24 17.3q3.05 0 5.225 2.175T31.4 24.7q0 3.05-2.15 5.225T24 32.1ZM7.25 28.6q-1.65 0-2.8-1.15t-1.15-2.8V5.15q0-1.65 1.15-2.8t2.8-1.15h33.5q1.65 0 2.825 1.15 1.175 1.15 1.175 2.8v19.5q0 1.65-1.175 2.8T40.75 28.6H33.6q.45-.9.625-1.9.175-1 .175-2.05-.05-4.3-3.075-7.325Q28.3 14.3 24 14.3q-4.3 0-7.325 3.025-3.025 3.025-3.025 7.325-.05 1.05.125 2.05.175 1 .625 1.9Z"/></svg>