<svg xmlns="http://www.w3.org/2000/svg" width="48" height="48" viewBox="0 96 960 960"><path d="M431 937.827H185.087q-32.507 0-55.862-23.522-23.356-23.522-23.356-56.262V286.218q0-32.507 21.152-55.863 21.153-23.356 40.066-23.356H353.26q9.261-36.13 39.421-59.195 30.16-23.066 69.319-23.066 38.261 0 68.587 23.066 30.326 23.065 40.718 59.195h185.608q32.74 0 56.262 23.356 23.521 23.356 23.521 55.863V483h-79.783V286.218h-106v130H291.087v-130h-106v571.825H431v79.784Zm189-32.914L453.782 738.696l54.305-54.87L620 795.738l233.913-233.912 54.305 54.87L620 904.913ZM480 276q17 0 28.5-11.5T520 236q0-17-11.5-28.5T480 196q-17 0-28.5 11.5T440 236q0 17 11.5 28.5T480 276Z"/></svg>