<svg xmlns="http://www.w3.org/2000/svg" width="48" height="48" viewBox="0 -960 960 960"><path d="M73.782-27v-73H120q29.87 0 60.37-10.783 30.5-10.782 59.63-39.347 29.13 28.565 59.63 39.347Q330.13-100 360-100q28.87 0 60.37-11.565 31.5-11.565 59.63-39.131 29.565 28.566 59.848 39.348Q570.13-100.565 600-100.565q28.87 0 60.37-11.283 31.5-11.282 59.63-38.848 28.13 27.566 59.63 39.131Q811.13-100 840-100h46.218v73H840q-29 0-59.5-8.5T720-66.433Q690-44 659.5-35.5T600-27q-29 0-59.5-8.5T480-66.434Q450-44 419.5-35.5T360-27q-29 0-59.5-8.5T240-66.434Q210-44 179.5-35.5T120-27H73.782ZM360-196.564q-33 0-64.435-16.87-31.435-16.87-55.565-44.74-13 12.87-30.152 25.804-17.152 12.935-33.022 23.935-40.13-8.565-92.13-24.043-52-15.479-100.523-33.74 57.522-23.261 145.414-45.956 87.891-22.696 158.891-35.261l54.304-175.044q8.566-30.261 37.109-42.674 28.544-12.413 56.935 1.718L540-509.131l115.913-61.174 67.739-157.478-20-53 51.957-112.913 120.87 54.087-50.957 113.479-53 20-150.913 352.26q90.435 11.565 192.131 37.261 101.695 25.696 162.087 50.391-49.653 18.261-101.088 34.022-51.435 15.761-91.565 23.761Q766.739-220 749.87-232.652 733-245.304 720-258.174q-24.13 27.87-55.565 44.739Q633-196.565 600-196.565t-64.435-16.87Q504.13-230.304 480-258.174q-24.13 27.87-55.565 44.739Q393-196.565 360-196.565ZM565.043-360l43.522-104.781L540-429.565l-72.043-34.609-30.913 101.173h48.043q19.043 0 38 .5 18.956.5 41.956 2.5ZM480-607q-32.826 0-56.022-23.478-23.196-23.478-23.196-56.305 0-32.261 23.196-55.739Q447.174-766 480-766q32.826 0 56.022 23.478 23.196 23.478 23.196 55.739 0 32.827-23.196 56.305T480-607.001Z"/></svg>