<svg xmlns="http://www.w3.org/2000/svg" width="48" height="48"><path d="M12.85 46v-7.6H10.5q-1.95 0-3.325-1.4Q5.8 35.6 5.8 33.65q0-1.95 1.375-3.325Q8.55 28.95 10.5 28.95h2.35V26.1H5.8v-9.4h7.05v-2.85H10.5q-1.95 0-3.325-1.375Q5.8 11.1 5.8 9.15q0-1.95 1.375-3.325Q8.55 4.45 10.5 4.45h2.35V2h2.3v2.45h2.35q1.95 0 3.35 1.375 1.4 1.375 1.4 3.325 0 1.95-1.4 3.325-1.4 1.375-3.35 1.375h-2.35v2.85h7.1v9.4h-7.1v2.85h2.35q1.95 0 3.35 1.375 1.4 1.375 1.4 3.325 0 1.95-1.4 3.35-1.4 1.4-3.35 1.4h-2.35V46zm20 0v-7.6H30.5q-1.95 0-3.325-1.4-1.375-1.4-1.375-3.35 0-1.95 1.375-3.325Q28.55 28.95 30.5 28.95h2.35V26.1H25.8v-9.4h7.05v-2.85H30.5q-1.95 0-3.325-1.375Q25.8 11.1 25.8 9.15q0-1.95 1.375-3.325Q28.55 4.45 30.5 4.45h2.35V2h2.3v2.45h2.35q1.95 0 3.35 1.375 1.4 1.375 1.4 3.325 0 1.95-1.4 3.325-1.4 1.375-3.35 1.375h-2.35v2.85h7.1v9.4h-7.1v2.85h2.35q1.95 0 3.35 1.375 1.4 1.375 1.4 3.325 0 1.95-1.4 3.35-1.4 1.4-3.35 1.4h-2.35V46zM10.5 10.85h7q.75 0 1.25-.5t.5-1.2q0-.7-.5-1.2t-1.25-.5h-7q-.7 0-1.2.5t-.5 1.2q0 .7.5 1.2t1.2.5zm20 0h7q.75 0 1.25-.5t.5-1.2q0-.7-.5-1.2t-1.25-.5h-7q-.7 0-1.2.5t-.5 1.2q0 .7.5 1.2t1.2.5zM8.8 23.1h10.45v-3.4H8.8zm20 0h10.45v-3.4H28.8zM10.5 35.4h7q.75 0 1.25-.525t.5-1.225q0-.7-.5-1.2t-1.25-.5h-7q-.7 0-1.2.5t-.5 1.2q0 .7.5 1.225.5.525 1.2.525zm20 0h7q.75 0 1.25-.525t.5-1.225q0-.7-.5-1.2t-1.25-.5h-7q-.7 0-1.2.5t-.5 1.2q0 .7.5 1.225.5.525 1.2.525zM16.65 10.85H10.1q-.55 0-.925-.5T8.8 9.15q0-.75.375-1.225.375-.475.925-.475h6.55q.55 0 .925.475t.375 1.225q0 .7-.375 1.2t-.925.5zm20 0H30.1q-.55 0-.925-.5t-.375-1.2q0-.75.375-1.225.375-.475.925-.475h6.55q.55 0 .925.475t.375 1.225q0 .7-.375 1.2t-.925.5zM17.95 23.1H8.8v-3.4h9.15zm20 0H28.8v-3.4h9.15zm-21.3 12.3H10.1q-.55 0-.925-.525T8.8 33.65q0-.7.375-1.2t.925-.5h6.55q.55 0 .925.5t.375 1.2q0 .7-.375 1.225-.375.525-.925.525zm20 0H30.1q-.55 0-.925-.525T28.8 33.65q0-.7.375-1.2t.925-.5h6.55q.55 0 .925.5t.375 1.2q0 .7-.375 1.225-.375.525-.925.525z"/></svg>