<svg xmlns="http://www.w3.org/2000/svg" width="48" height="48" viewBox="0 -960 960 960"><path d="M447.76-732.24q21.98-21.98 52.24-21.98t52.24 21.98q21.98 21.98 21.98 52.24t-21.98 52.24q-21.98 21.98-52.24 21.98t-52.24-21.98q-21.98-21.98-21.98-52.24t21.98-52.24ZM490 15.83 327.96-160.22l65.13-88.56-63.44-87.44 61.13-77.26v-38.78q-61.69-31.44-102.74-87.83Q247-596.48 247-680q0-105.09 73.96-179.04Q394.91-933 500-933q105.09 0 179.04 73.96Q753-785.09 753-680q0 76.52-36.26 132.41t-107.52 95.33v348.3L490 15.83ZM320-680q0 59.7 39.91 111.98 39.92 52.28 103.31 65.15v115.35l-43.31 51.74 63 88-60.87 81.43 68.26 78.22 46.48-45.91v-369.39q68.26-16.18 105.74-64.81Q680-616.87 680-680q0-75-52.5-127.5T500-860q-75 0-127.5 52.5T320-680Z"/></svg>