<svg xmlns="http://www.w3.org/2000/svg" width="48" height="48" viewBox="0 -960 960 960"><path d="M140-180.782q-32.507 0-55.863-23.855Q60.782-228.493 60.782-260v-440q0-30.712 21.391-53.552 21.392-22.84 51.044-25.666h45.043L570.478-385H300v60h295.609q-2.565 11-4.63 21.5-2.066 10.5-2.066 21.5v101.218H140ZM831.956-22.956 21.999-835.348l49.783-50.348L881.74-72.739l-49.783 49.783ZM203-510v60h60v-60h-60Zm124 0v60h60v-60h-60ZM203-635v60h60v-60h-60Zm371 60h60v-60h-60v60Zm123 0h60v-60h-60v60ZM268.304-779.784H820q32.74 0 56.262 23.522T899.784-700v302.74q-28.353-29.088-65.525-43.501-37.172-14.413-77.259-12.152V-510h-60v72.609q-15.739 6.435-28.78 14.977-13.041 8.542-25.307 20.066L603-442.261h31V-510h-57.739v38.174L470.826-577.261H510V-635h-57.739v39.174L268.304-779.784Zm626.392 626.393-84.391-84.391v-80.607q0-20.112-11.783-33.187-11.782-13.076-30.217-13.076-19.164 0-30.037 11.868-10.872 11.868-11.963 31.567l-34.696-34.696q10-23 30.065-37 20.066-14 46.631-14 35.565 0 59.978 25.516 24.413 25.516 24.413 62.745v40h.266q14.734 0 28.234 13.783 13.5 13.782 13.5 29.348v82.13ZM682.913-65.869q-15 0-28.5-14.181-13.5-14.182-13.5-29.515v-126.119q0-14.837 11.87-28.12 11.869-13.283 26.869-14.848h-2.826l154.956 155.956v56.827H682.913Z"/></svg>