<svg xmlns="http://www.w3.org/2000/svg" width="48" height="48" viewBox="0 -960 960 960"><path d="M495.609-343.74q41 0 70-28.172t29-68.697v-249.513h116v-60.226h-156v233.608q-10.435-9-26.115-14-15.68-5-32.885-5-39 0-66 27.5t-27 66.5q0 40 27 69t66 29ZM274.696-195.478q-32.507 0-55.862-23.356-23.356-23.355-23.356-55.862v-549.826q0-32.74 23.356-56.262 23.355-23.522 55.862-23.522h549.826q32.74 0 56.262 23.522t23.522 56.262v549.826q0 32.507-23.522 55.862-23.522 23.356-56.262 23.356H274.696ZM135.478-55.694q-32.74 0-56.262-23.522t-23.522-56.262v-629.044h79.784v629.044h629.044v79.784H135.478Z"/></svg>