<svg xmlns="http://www.w3.org/2000/svg" width="48" height="48" viewBox="0 96 960 960"><path d="M640 744.695q70.478 0 119.869-48.974Q809.26 646.747 809.26 576q0-70.478-49.391-119.869Q710.478 406.74 640 406.74q-70.478 0-119.587 49.391Q471.305 505.522 471.305 576q0 70.478 48.974 119.587Q569.253 744.695 640 744.695Zm0 79.784q-93.13 0-161.761-59.935-68.63-59.935-82.457-148.935H70.391v-79.218h325.391q13.827-89 82.457-148.935Q546.87 327.521 640 327.521q103.91 0 176.194 72.295 72.285 72.294 72.285 176.217 0 103.924-72.285 176.185Q743.91 824.479 640 824.479ZM640 576Z"/></svg>