<svg xmlns="http://www.w3.org/2000/svg" width="48" height="48" viewBox="0 -960 960 960"><path d="M640.696-180.869v72.391q0 19.522-15.108 31.066-15.109 11.543-35.066 11.543H108.478q-17.957 0-30.283-12.326T65.87-108.478v-307.044q0-17.957 12.326-30.566 12.326-12.608 30.283-12.608H231.87V-650q0-102.652 72.457-173.674Q376.782-894.696 480-894.696h173q100.652 0 171.174 72.022T894.696-650v584.131h-79.783v-115H640.696Zm0-79.218h174.217V-650q0-68.304-46.804-116.609Q721.304-814.913 653-814.913H480q-69.739 0-119.326 47.587Q311.087-719.739 311.087-650v191.304h279.435q19.957 0 35.066 11.826 15.108 11.826 15.108 31.348v155.435ZM400-576.13v-60h326v60H400Zm-47 316.391 207.913-119.174H145.087L353-259.739Zm0 55L145.087-323.913v178.826h415.826v-178.826L353-204.739ZM145.087-378.913v233.826-233.826Z"/></svg>