<svg xmlns="http://www.w3.org/2000/svg" width="48" height="48" viewBox="0 -960 960 960"><path d="M151.521-400q0-106.944 52.544-191.081 52.544-84.137 115.781-142.543 63.237-58.407 115.935-89.174l52.698-30.768V-708q0 33.079 22.376 52.3 22.376 19.221 50.122 19.221 14.762 0 28.868-6.34 14.106-6.341 25.937-20.833l21.957-27.653q77.257 44.77 123.998 122.407 46.742 77.637 46.742 168.91 0 96.375-49 174.008-49 77.632-129.566 118.067 24.869-26.997 38.13-61.242 13.262-34.244 13.262-71.439 0-40.745-14.848-76.146-14.848-35.402-43.431-63.902L480-520.088 338.652-380.74q-29.696 28.696-44.544 64.286-14.848 35.59-14.848 75.978 0 36.911 12.979 71.214 12.979 34.302 37.848 61.349-80.566-40.437-129.566-118.072-49-77.636-49-174.015ZM480-408.956l86.348 84.839q16.869 16.943 26.021 38.35 9.152 21.407 9.152 44.941 0 49.479-35.556 84.5T479.9-121.305q-50.509 0-85.965-35.021t-35.456-84.5q0-23.739 8.918-45.119 8.919-21.379 26.821-38.098L480-408.956Z"/></svg>