<svg xmlns="http://www.w3.org/2000/svg" width="48" height="48" viewBox="0 -960 960 960"><path d="M479.717-583.001q32.587 0 54.739-23.215 22.153-23.216 22.153-53.457 0-32.24-22.198-54.393-22.197-22.152-54.411-22.152-30.87 0-53.739 22.198-22.87 22.197-22.87 54.411 0 30.214 22.87 53.411 22.869 23.197 53.456 23.197Zm.283 211.48q-38.893 0-70.338-22.913-31.445-22.914-46.01-60.175-6.565 0-13.413.5t-13.283.5q-51.266 0-87.59-36.276-36.323-36.276-36.323-87.475 0-21.292 8.565-42.206 8.565-20.913 24.696-40.043-15.131-19.131-23.696-39.902-8.565-20.772-8.565-42.347 0-51.432 36.108-87.875 36.109-36.442 87.084-36.442 6.286 0 13.069.5 6.783.5 13.348.5 14.565-37.261 45.995-60.174 31.431-22.913 70.305-22.913 38.874 0 70.635 22.913 31.761 22.913 46.594 60.174 6.298 0 12.798-.5t13.065-.5q51.292 0 87.103 36.419 35.81 36.418 35.81 87.817 0 21.373-8.065 42.286t-23.63 40.044q14.565 19.13 23.13 39.975 8.565 20.845 8.565 42.294 0 51.12-35.81 87.426-35.811 36.305-87.103 36.305-6.565 0-13.022-.5-6.456-.5-13.109-.5-14.565 37.261-46.184 60.175-31.62 22.913-70.729 22.913Zm0 317.522q0-79.609 30.565-149.979 30.565-70.37 82.826-122.631 52.261-52.261 122.631-82.826Q786.392-440 866.001-440q0 79.609-30.565 149.696-30.565 70.088-83.109 122.631-52.543 52.544-122.631 83.11Q559.609-54 480-54Zm0 0q0-79.609-30.565-149.979-30.565-70.37-83.109-122.631-52.544-52.261-122.631-82.826Q173.608-440 93.999-440q0 79.609 30.565 149.696 30.565 70.088 83.109 122.631 52.543 52.544 122.631 83.11Q400.391-54 480-54Z"/></svg>