<svg xmlns="http://www.w3.org/2000/svg" width="48" height="48" viewBox="0 -960 960 960"><path d="M520-101.869q-74.652 0-144.174-28.826t-119.218-78.914l56.566-57.131q41.696 41.522 96.043 63.588Q463.565-181.087 520-181.087q123.304 0 211.109-88.087Q818.913-357.261 818.913-480q0-123.304-87.804-211.109Q643.304-778.913 520-778.913q-121.609 0-210.261 87.239t-88.652 209.413v15.739l70-70L337.609-490 181.478-333.869 25.347-490l46.522-46.522 70 70v-15.739q0-77.696 29.348-146.239 29.348-68.544 80.826-119.74 51.478-51.195 120.305-80.826 68.826-29.63 147.652-29.63t147.652 29.63q68.827 29.631 120.305 81.109 51.478 51.478 81.109 120.305 29.63 68.826 29.63 147.652 0 158.783-109.956 268.457Q678.783-101.869 520-101.869ZM440-325q-14 0-24.5-10.5T405-360v-120q0-14 11.5-24.5T445-515v-45q0-31 22-53t53-22q31 0 53 22t22 53v45q17 0 28.5 10.5T635-480v120q0 14-10.5 24.5T600-325H440Zm35-190h90v-45q0-19-13-32t-32-13q-19 0-32 13t-13 32v45Z"/></svg>