<svg xmlns="http://www.w3.org/2000/svg" width="48" height="48"><path d="M13.15 42.8q-1.65 0-2.8-1.15t-1.15-2.8V15.2q0-1.7 1.175-2.85Q11.55 11.2 13.2 11.2h4.15V5q0-1 .925-1.5T20.3 3h7.4q1.1 0 2.025.5.925.5.925 1.5v6.2h4.2q1.65 0 2.8 1.15t1.15 2.8v23.7q0 1.65-1.15 2.8t-2.8 1.15q0 1.05-.725 1.775-.725.725-1.775.725-1.05 0-1.775-.725-.725-.725-.725-1.775h-11.7q0 1.05-.725 1.775-.725.725-1.775.725-1.05 0-1.775-.725-.725-.725-.725-1.775zm7.15-31.6h7.4V6h-7.4zm-3.95 24.95H19v-18.3h-2.65zm6.35 0h2.6v-18.3h-2.6zm6.3 0h2.65v-18.3H29z"/></svg>