<svg xmlns="http://www.w3.org/2000/svg" width="48" height="48" viewBox="0 0 48 48"><path d="M24.3 27.8q-2 0-3.35-1.35t-1.35-3.4v-.45q-.5.45-1.15.725-.65.275-1.4.275-2.05 0-3.4-1.35t-1.35-3.4q0-1.4.775-2.575.775-1.175 1.975-1.675-1.2-.55-1.975-1.75-.775-1.2-.775-2.55 0-2.1 1.35-3.425Q15 5.55 17.05 5.55q.75 0 1.4.25.65.25 1.15.7v-.45q0-2 1.35-3.35t3.35-1.35q2.05 0 3.4 1.35t1.35 3.35v.45q.35-.35.8-.55.45-.2 1.05-.25l-2.3 6.35q-.65-1.1-1.75-1.775-1.1-.675-2.55-.675-2.1 0-3.5 1.425T19.4 14.6q0 2.1 1.4 3.5t3.5 1.4q.6 0 1.15-.15.55-.15 1-.4.2 1.05 1.075 1.8t2.125.75h5.85q-.6 1-1.6 1.55t-2.25.55q-.8 0-1.45-.275-.65-.275-1.15-.725v.45q0 2.05-1.35 3.4t-3.4 1.35Zm5.6-9.75 6.85-18.2h3.15l6.9 18.2h-3.65L41.3 13.1h-6l-1.85 4.95Zm6.25-7.85h4.4l-2-5.9h-.45ZM24 45.3q0-4 1.525-7.5t4.15-6.125q2.625-2.625 6.125-4.15Q39.3 26 43.3 26q0 4-1.525 7.5t-4.15 6.125Q35 42.25 31.5 43.775 28 45.3 24 45.3Zm0 0q0-4-1.525-7.5t-4.15-6.125Q15.7 29.05 12.2 27.525 8.7 26 4.7 26q0 4 1.525 7.5t4.15 6.125Q13 42.25 16.5 43.775 20 45.3 24 45.3Z"/></svg>