<svg xmlns="http://www.w3.org/2000/svg" width="48" height="48" viewBox="0 96 960 960"><path d="M633 985.044 465.782 817.261l54.305-54.305L633 875.304l238.913-238.348 54.305 54.305L633 985.044ZM478 522.782l328.913-201.695H149.087L478 522.782Zm0 73.001L145.087 390.088v428.825h236.782l79.218 79.218h-316q-32.507 0-55.862-23.356-23.356-23.355-23.356-55.862V321.087q0-32.74 23.356-56.262 23.355-23.521 55.862-23.521h666.826q32.74 0 56.262 23.521 23.521 23.522 23.521 56.262v210.085l-79.783 79.219V390.088L478 595.783Zm1 11.261Zm-1-84.262Zm1 73.001Z"/></svg>