<svg xmlns="http://www.w3.org/2000/svg" width="48" height="48" viewBox="0 -960 960 960"><path d="M88.346-796.957v-79.784h525.22v79.784H88.346Zm209.219 542.784h106.783v-102.826h103.391v-106.783H404.348v-102.827H297.565v102.827H194.173v106.783h103.392v102.826ZM125.304-83.824q-32.74 0-56.262-23.356T45.52-163.043v-494.696q0-31.913 23.522-55.566 23.522-23.652 56.262-23.652h451.305q32.74 0 56.261 23.652 23.522 23.653 23.522 55.566v494.696q0 32.507-23.522 55.863-23.521 23.356-56.261 23.356H125.304Zm0-79.219h451.305v-494.696H125.304v494.696Zm676.175-248.826q-37.826-19.261-61.456-61.058-23.631-41.798-23.631-96.508 0-70.348 36.121-118.935 36.12-48.587 88.739-48.587 52.62 0 88.859 48.587t36.239 118.935q0 54.71-23.63 96.508-23.631 41.797-61.457 61.058v288.436q0 15.956-11.451 27.783-11.451 11.826-28.109 11.826-15.907 0-28.065-11.826-12.159-11.827-12.159-27.783v-288.436Zm39.892-69.261q13.587 0 29.391-24.026 15.805-24.026 15.805-64.117 0-40.091-15.918-64.279-15.917-24.187-28.995-24.187-13.87 0-29.957 24.13-16.086 24.129-16.086 64.399 0 40.27 16.086 64.175 16.087 23.905 29.674 23.905Zm-490.415 70.739Zm490.698-159.044Z"/></svg>