<svg xmlns="http://www.w3.org/2000/svg" width="48" height="48" viewBox="0 -960 960 960"><path d="m312.304-201.304 132-82-132-82v164Zm219.392-479.348h140v-40h-140v40Zm-428.87 657.61q-33.49 0-56.637-23.147-23.146-23.147-23.146-56.637v-361.522q0-32.663 23.146-55.94 23.147-23.278 56.637-23.278h511.522q32.663 0 55.94 23.278 23.278 23.277 23.278 55.94v361.522q0 33.49-23.278 56.637-23.277 23.146-55.94 23.146H102.826Zm650.74-373.392v-67.856q0-45.58-26.261-81.036-26.261-35.457-67.087-49.283h22.608q43.714 0 74.313-30.987 30.6-30.987 30.6-75.174 0-44.187-30.929-74.774-30.93-30.586-75.114-30.586h-40v40h40q27.942 0 46.992 19.082 19.051 19.083 19.051 46.344 0 27.921-19.051 47.008-19.05 19.087-46.992 19.087h-40v40q-6.276 0-12.981-4.479-6.705-4.478-14.367-4.478h-52.652v-31.043h-40q-27.942 0-46.71-19.165-18.768-19.166-18.768-46.545t18.768-46.595q18.768-19.216 46.71-19.216h40v-40h-40q-43.949 0-74.714 30.717-30.764 30.717-30.764 74.761 0 34.173 19.239 60.695t49.847 36.391h-218.87v-254.173q0-32.663 23.147-55.941 23.147-23.277 56.637-23.277h511.521q32.663 0 55.941 23.277 23.277 23.278 23.277 55.941v381.521q0 33.49-23.277 56.637-23.278 23.147-55.941 23.147H753.566Z"/></svg>