<svg xmlns="http://www.w3.org/2000/svg" width="48" height="48" viewBox="0 -960 960 960"><path d="m306.609-35.564-75.262-56.305v-167.217h-53.608q-33.49 0-56.637-22.981-23.147-22.98-23.147-56.237v-349.609h-10q-15.391 0-26.37-10.979-10.978-10.978-10.978-26.592 0-15.614 10.979-26.652 10.978-11.039 26.37-11.039h143.391v-71.521h-30q-15.392 0-26.37-10.979-10.978-10.978-10.978-26.592 0-15.614 10.978-26.652 10.978-11.039 26.234-11.039h135.398q15.745 0 26.829 11.164 11.084 11.163 11.084 27.027 0 15.114-11.084 26.092-11.084 10.979-26.829 10.979h-30v71.521H450q15.746 0 26.83 11.164 11.083 11.163 11.083 27.027 0 15.114-11.083 26.092-11.084 10.979-26.83 10.979h-10v349.609q0 33.257-23.277 56.237-23.278 22.981-55.941 22.981h-54.173v223.522ZM691.022-81.13q-70.804 0-120.913-49.795Q520-180.719 520-251.87v-320q0-71.087 50.109-121.196 50.109-50.109 120.913-50.109 70.805 0 120.914 50.109 50.109 50.109 50.109 121.196v320q0 71.151-50.109 120.945Q761.827-81.13 691.022-81.13ZM173.217-334.349h191.521v-71.521h-80.39q-15.844 0-27.727-11.858-11.883-11.859-11.883-27.67 0-15.812 11.883-27.751 11.883-11.939 27.727-11.939h80.39v-51.522h-80.39q-15.844 0-27.727-11.858-11.883-11.859-11.883-27.67 0-16.037 11.883-28.146 11.883-12.109 27.727-12.109h80.39v-71.521H173.217v353.565Zm422.045 1.173h191.521V-491.13H595.262v157.955Z"/></svg>