<svg xmlns="http://www.w3.org/2000/svg" width="48" height="48" viewBox="0 -960 960 960"><path d="M863 8.18 15.56-853.26l47.09-46.52L910.52-38.35 863 8.18ZM479-708.7q13.7 0 23.54-9.84 9.85-9.85 9.85-23.55 0-13.69-9.85-23.54-9.84-9.85-23.54-9.85t-23.54 9.85q-9.85 9.85-9.85 23.54 0 13.7 9.85 23.55 9.84 9.84 23.54 9.84ZM266.22-27q-32.92 0-56.07-23.15T187-106.22v-665.65L773-177.3v71.08q0 31.79-22.87 55.5Q727.26-27 694.35-27H266.22ZM773-269.43 194.35-852.09q-.57-32.48 23.15-56.69Q241.22-933 274.7-933h419.08q32.92 0 56.07 23.15T773-853.78v137.56q18.57 5.26 30.57 20.68 12 15.41 12 35.11v71.73q0 20.13-12 36.11T773-531.91v262.48Z"/></svg>