<svg xmlns="http://www.w3.org/2000/svg" width="48" height="48" viewBox="0 -960 960 960"><path d="M265.65-25.87q-33.74 0-56.76-22.85-23.02-22.86-23.02-56.37v-749.82q0-32.74 23.52-56.26 23.52-23.53 56.26-23.53h426.7q33.74 0 56.76 23.03 23.02 23.02 23.02 56.76v137.35q18 5.47 30.28 20.89 12.29 15.41 12.29 34.54v72.3q0 20.13-12.29 35.83-12.28 15.7-30.28 21v427.91q0 33.51-23.02 56.37-23.02 22.85-56.76 22.85h-426.7ZM376.22-193h206.13q16.64 0 27.84-11.33 11.2-11.32 11.2-28.56t-11.04-28.29q-11.05-11.04-28-11.04H376.22q-16.89 0-28.25 11.33-11.36 11.32-11.36 28.23t11.32 28.28Q359.26-193 376.22-193Z"/></svg>