<svg xmlns="http://www.w3.org/2000/svg" width="48" height="48" viewBox="0 -960 960 960"><path d="M863.001-18.956 15.565-880.392l47.087-46.522L910.523-65.478l-47.522 46.522ZM186.999-753.48l79.219 80.218v477.043h429.043l76.74 77.74v12.826q1 33.174-22.564 55.913Q725.872-27 692.782-27H266.218q-32.664 0-55.941-23.278-23.278-23.277-23.278-55.941V-753.48Zm79.219 617.261v30h427.564v-30H266.218Zm506.783-717.564V-291l-79.219-79.784v-392.998H307.218L199.435-871.001v-2q1.695-26.13 22.022-43.065 20.326-16.935 47.022-16.935h425.303q32.664 0 55.941 23.356 23.278 23.356 23.278 55.863Zm-497.174 30h417.955v-30H275.827v30Zm-9.609 687.564v30-30Zm9.609-687.564v-30 30Z"/></svg>