<svg xmlns="http://www.w3.org/2000/svg" width="48" height="48" viewBox="0 96 960 960"><path d="M785 1056.57 516.218 788.348v193.87h-72.436V796.827L301 939.044 248.956 888l183.957-183.957-80.956-80.956L172 803.044 118.956 753l140.217-140.782H73.783v-72.436h193.869L27.999 300.13l46.957-47.522 757.566 756.432L785 1056.57Zm8-249.526L575.564 589.608l-71.782.435-36.825-37.26v-71.782L252.956 267 304 213.956l139.782 140.217V169.782h72.436v184.391L660 210.956 711.044 263 516.218 457.261v82.521h82.521L790 347.956 842.044 399 701.827 539.782h184.391v72.436H701.827L843.044 755 793 807.044Z"/></svg>