<svg xmlns="http://www.w3.org/2000/svg" width="48" height="48" viewBox="0 -960 960 960"><path d="M787.259-440.391H328.087v-79.218h459.172l-89.565-90.131 56.566-55.435L939.435-480 754.26-294.825l-56.566-55.435 89.565-90.131ZM533.085-579.609v-195.304H185.087v589.826h347.998v-195.304h79.218v195.304q0 33.257-23.278 56.237-23.277 22.981-55.94 22.981H185.087q-33.257 0-56.237-22.981-22.981-22.98-22.981-56.237v-589.826q0-33.49 22.981-56.637 22.98-23.146 56.237-23.146h347.998q32.663 0 55.94 23.146 23.278 23.147 23.278 56.637v195.304h-79.218Z"/></svg>