<svg xmlns="http://www.w3.org/2000/svg" width="48" height="48" viewBox="0 -960 960 960"><path d="M145.087-145.869q-32.507 0-55.862-22.804-23.356-22.805-23.356-55.284v-510.956q0-32.74 23.356-56.262 23.355-23.521 55.862-23.521l74 152h130l-74-152h89l74 152h130l-74-152h89l74 152h130l-74-152h101.826q32.74 0 56.262 23.521 23.521 23.522 23.521 56.262v210.478q-36.826-21.826-80.348-17.109Q770.826-536.826 739-505L497.739-265.739v119.87H145.087Zm412.652 40v-134.87L781-463q10.203-10.496 22.674-15.161 12.471-4.665 25.544-4.665 13.13 0 25.853 5.348T877.87-462l37 37q10.031 10.13 14.929 22.638 4.897 12.507 4.897 25.014 0 13.261-5.347 26.175-5.348 12.913-15.479 23.043L692.609-105.869h-134.87Zm275.435-236.435 33.044-35.044-37-37-34.044 34.044 38 38Z"/></svg>