<svg xmlns="http://www.w3.org/2000/svg" width="48" height="48" viewBox="0 -960 960 960"><path d="M494-317.63q26-26.5 26-63.5v-214.61h108v-72H484v212.61q-10-7-25.5-11.5t-28.5-4.5q-37.8 0-63.9 26.5t-26.1 63.5q0 37 26.14 63.5t64 26.5q37.86 0 63.86-26.5ZM145.09-145.87q-32.51 0-55.87-23.35-23.35-23.36-23.35-55.87v-509.82q0-32.74 23.35-56.26 23.36-23.53 55.87-23.53h669.82q32.74 0 56.26 23.53 23.53 23.52 23.53 56.26v509.82q0 32.51-23.53 55.87-23.52 23.35-56.26 23.35H145.09Zm0-79.22h669.82v-509.82H145.09v509.82Zm0 0v-509.82 509.82Z"/></svg>