<svg xmlns="http://www.w3.org/2000/svg" width="48" height="48" viewBox="0 -960 960 960"><path d="M147.173-497.566q-20.391 0-35.087-14.978-14.696-14.979-14.696-34.805t14.696-34.522q14.696-14.696 35.087-14.696 19.412 0 34.315 14.555 14.903 14.554 14.903 34.663 0 19.826-14.762 34.805-14.762 14.978-34.456 14.978ZM97.706-60.782v-208.044H53.999V-432.13q0-15.646 12.695-26.128t30.7-10.482h99.66q18.076 0 30.402 10.482t12.326 26.128v163.304h-42.391V-140h379.87v-246.957H505.87q-70.902 0-121.016-48.082-50.115-48.082-50.115-117.049 0-48.826 27.5-93.087t79.196-64.087q9.261-72.261 60.495-117.892 51.234-45.63 118.44-45.63 67.437 0 118.056 45.63 50.619 45.631 60.88 117.892 51.13 19.826 78.913 64.087 27.782 44.261 27.782 93.087 0 68.967-50.801 117.049-50.8 48.082-121.33 48.082h-77.391V-140h211v79.218H97.706ZM505.87-466.175h228q36.304 0 64.326-24.587 28.022-24.587 28.022-61.187 0-31.322-21.413-55.317-21.414-23.996-50.414-36.561l-32.043-13.851.565-28.192q.465-46.453-30.017-76.792t-72.708-30.339q-42.225 0-72.548 30.744-30.323 30.743-29.813 76.952l.424 27.682-33.598 13.231q-29.565 11.435-50.13 36.318-20.566 24.883-20.566 56.125 0 36.6 27.805 61.187 27.804 24.587 64.108 24.587Zm115-163.913Z"/></svg>