<svg xmlns="http://www.w3.org/2000/svg" width="48" height="48" viewBox="0 -960 960 960"><path d="M480-19.651 354.348-145.87H185.087q-32.507 0-55.862-23.856-23.356-23.855-23.356-55.362v-589.826q0-32.74 23.356-56.262 23.355-23.521 55.862-23.521h589.826q31.74 0 55.762 23.521 24.021 23.522 24.021 56.262v589.826q0 31.507-24.021 55.362-24.022 23.856-55.762 23.856H606.218L480-19.651ZM185.087-225.087h201.772L480-131.913l93.739-93.174h201.174v-589.826H185.087v589.826ZM480-517Zm-.464 188.13q82.029 0 136.812-57.339Q671.13-443.548 671.13-520v-191.13H479.435q-77.637 0-134.384 54.395-56.747 54.395-56.747 137.17 0 28 9 54.782 9 26.783 25.435 52.783l-21.435 20.87q-10.13 9.462-9.848 22.079.283 12.616 9.848 22.181 9.566 9.566 22.131 9.872 12.565.306 22.13-9.872l20.087-19.434q26.348 18 55.45 27.717 29.101 9.717 58.434 9.717Zm1.334-62.26q-16.74 0-34.522-5.799-17.783-5.798-34.522-14.071L524.13-523.87q9.566-9.631 9.566-22.381 0-12.749-9.566-22.879-9.565-9.566-21.847-9.566-12.283 0-21.848 9.566L367.13-455.261q-7.434-17.917-11.434-34.893-4-16.976-4-29.933 0-55.613 38.661-92.198 38.66-36.585 90.208-36.585h128.87V-520q0 53.272-37.634 91.071T480.87-391.13Zm-24.174-110Z"/></svg>