<svg xmlns="http://www.w3.org/2000/svg" width="48" height="48" viewBox="0 96 960 960"><path d="M480.218 875.609q-81.898 0-140.862-58.965Q280.391 757.68 280.391 676V476q0-82.838 58.47-141.224 58.47-58.385 141.427-58.385t141.139 58.385Q679.609 393.162 679.609 476v200q0 81.68-58.322 140.644-58.322 58.965-141.069 58.965Zm.097-79.218q50.294 0 85.185-35.114 34.891-35.114 34.891-85.277V476q0-50.493-35.031-85.442-35.032-34.949-85.076-34.949-50.045 0-85.36 34.949T359.609 476v200q0 50.163 35.206 85.277 35.206 35.114 85.5 35.114ZM480 475.609q-12 0-21-9t-9-21.5q0-12.5 9-21t21.5-8.5q12.5 0 21 8.625t8.5 21.375q0 12-8.625 21t-21.375 9ZM185.087 1030.13q-32.677 0-55.948-23.27-23.27-23.27-23.27-55.947V201.087q0-32.91 23.27-56.347 23.271-23.436 55.948-23.436h589.826q32.91 0 56.347 23.436 23.436 23.437 23.436 56.347v749.826q0 32.677-23.436 55.947-23.437 23.27-56.347 23.27H185.087Zm0-79.217h589.826V201.087H185.087v749.826Z"/></svg>