<svg xmlns="http://www.w3.org/2000/svg" width="48" height="48" viewBox="0 -960 960 960"><path d="M480.031-65.869q-85.857 0-161.338-32.507-75.48-32.508-131.632-88.639-56.152-56.131-88.672-131.63-32.52-75.499-32.52-161.34 0-85.841 32.63-161.385 32.631-75.543 88.609-131.522 55.979-55.978 131.516-88.891 75.538-32.913 161.423-32.913t161.376 32.913q75.49 32.913 131.469 88.891 55.978 55.979 88.891 131.516 32.913 75.538 32.913 161.423t-32.913 161.376q-32.913 75.49-88.891 131.469-55.979 55.978-131.491 88.609-75.513 32.63-161.37 32.63Zm-.355-79.218q139.063 0 237.15-97.763 98.087-97.762 98.087-236.826 0-139.063-97.763-237.15-97.762-98.087-236.826-98.087-139.063 0-237.15 97.763-98.087 97.762-98.087 236.826 0 139.063 97.763 237.15 97.762 98.087 236.826 98.087Zm.324-60q-113.739 0-194.326-80.587Q205.087-366.261 205.087-480q0-113.739 80.587-194.326Q366.261-754.913 480-754.913q113.739 0 194.326 80.587Q754.913-593.739 754.913-480q0 113.739-80.587 194.326Q593.739-205.087 480-205.087Zm.237-79.784q80.589 0 138.023-57.389 57.434-57.388 57.434-137.977T618.188-618.26q-57.506-57.434-138.26-57.434-80.754 0-137.905 57.506-57.152 57.506-57.152 138.26 0 80.754 57.389 137.905 57.388 57.152 137.977 57.152Z"/></svg>