<svg xmlns="http://www.w3.org/2000/svg" width="48" height="48" viewBox="0 -960 960 960"><path d="m814.696-251.522-79.783-80.349v-238.172H496.175l-79.218-79.784h180.042v-82.564q0-49.638-35.723-84.384-35.724-34.746-86.227-34.746-50.279 0-85.229 34.592-34.95 34.593-34.95 83.548v21.468L288-778.784q11.261-67.173 63.525-109.847 52.264-42.674 123.91-42.674 83.743 0 142.263 57.478 58.52 57.479 58.52 140.305v83.695h58.695q33.49 0 56.637 23.147 23.146 23.147 23.146 56.637v318.521ZM877.74 27.044 772.959-77.652q-7.915 4.696-17.06 7.674-9.145 2.979-20.986 2.979H225.087q-33.257 0-56.237-23.278-22.981-23.277-22.981-55.941v-423.825q0-30.146 18.826-51.139 18.826-20.992 41.261-23.558L-14-864.13l47.522-47.088 891.174 891.74-46.956 46.522ZM705.478-146.218 535.565-315.13q-11 10.434-24.239 15.717-13.239 5.283-28.761 5.283-32 0-53.5-21.283t-21.5-52.59q0-16.127 5.5-29.91 5.5-13.783 16.5-24.217L281.218-570.043h-56.131v423.825h480.391ZM494.13-358.13Zm120.914-93.61Z"/></svg>