<svg xmlns="http://www.w3.org/2000/svg" width="48" height="48" viewBox="0 96 960 960"><path d="m814.696 816.174-79.783-79.219V241.087H429.261l-95.391 94.826-57.566-57.566 117.044-117.043h341.565q33.49 0 56.637 23.521 23.146 23.522 23.146 56.262v575.087Zm48.261 226.866L249.913 429.565l-24.826 23.696v457.652h509.826v-88.392l79.783 79.302v11.351q0 31.843-23.521 54.4-23.522 22.557-56.262 22.557H225.087q-32.507 0-55.862-23.356-23.356-23.355-23.356-55.862V414.782l44.913-43.348L29.956 210.608l45.957-46.522 833.566 832.436-46.522 46.518ZM538.391 540.434Zm-44.304 133.305Z"/></svg>