<svg xmlns="http://www.w3.org/2000/svg" width="48" height="48" viewBox="0 96 960 960"><path d="M480.017 727.043q14.983 0 25.983-11.017t11-26q0-14.983-11.017-25.983t-26-11Q465 653.043 454 664.06t-11 26q0 14.983 11.017 25.983t26 11ZM455 605.87h50q0-12.133.5-22.023t6.146-18.456q3.919-8 11.617-15.282 7.698-7.283 24.867-23.152 21.87-19.435 31.935-38.37 10.065-18.935 10.065-45.541 0-45.785-29.913-71.372-29.913-25.587-76.862-25.587-38.92 0-69.638 21.375Q383 388.837 371.435 421.88L417 440.087q6.87-18.304 24.587-32.435 17.717-14.13 41.851-14.13 26.127 0 40.845 14.565 14.717 14.565 14.717 37 0 17.405-8.565 30.203-8.565 12.797-26.963 29.8Q486 521.171 476.5 531.564T463 551.613q-4 9.344-6 21.713-2 12.37-2 32.544Zm25 382.565Q314.478 847.479 232.434 726.87q-82.043-120.609-82.043-222.944 0-154.633 99.434-246.084T480 166.391q130.741 0 230.175 91.451t99.434 246.084q0 102.335-82.043 222.944Q645.522 847.479 480 988.435Z"/></svg>