<svg xmlns="http://www.w3.org/2000/svg" width="48" height="48" viewBox="0 96 960 960"><path d="M480.283 990.131q-34.95 0-59.878-24.828-24.927-24.829-24.927-59.694h169.609q0 35.261-25.044 59.892-25.043 24.63-59.76 24.63ZM766.609 616V489.391H640v-66.782h126.609V296h66.782v126.609H960v66.782H833.391V616h-66.782ZM135.694 868.435v-79.783h89.088V498.479q0-87.653 51.478-159.24t138.131-90.518v-25.939q0-27.239 19.302-45.207 19.303-17.967 46.307-17.967t46.307 17.967q19.302 17.968 19.302 45.207v25.946q20.702 4.048 44.503 15.073t36.671 22.459q-32.957 36.131-51.066 77.709-18.108 41.578-18.108 92.031 0 88.342 49.63 147.106 49.631 58.764 129.545 82.416v103.13h88.087v79.783H135.694Z"/></svg>