<svg xmlns="http://www.w3.org/2000/svg" width="48" height="48" viewBox="0 96 960 960"><path d="M135.694 868.435v-79.783h89.088V498.479q0-87.653 51.478-159.24t138.131-90.518v-25.939q0-27.239 19.067-45.207 19.068-17.967 46.307-17.967t46.542 17.967q19.302 17.968 19.302 45.207v26.024q23.87 4.363 50.5 16.974 26.631 12.611 45.065 29.046l-29.13 29.13-29.131 29.131q-21.435-16.304-48.49-24.456-27.056-8.152-54.814-8.152-74.609 0-125.109 51.5t-50.5 126.5v290.173h353V661.001h79.784v127.651h88.087v79.783H135.694Zm344.589 121.696q-34.95 0-59.878-24.828-24.927-24.829-24.927-59.694h169.609q0 35.261-25.044 59.892-25.043 24.63-59.76 24.63ZM766.609 616V489.391H640v-66.782h126.609V296h66.782v126.609H960v66.782H833.391V616h-66.782ZM481 554.565Z"/></svg>