<svg xmlns="http://www.w3.org/2000/svg" width="48" height="48" viewBox="0 -960 960 960"><path d="M803.175-324.869 747.609-382l57.826-58.391H653.566v-78.218h150.869l-57.826-57.826 56.566-57.131 153.566 154.631-153.566 154.066ZM45.52-796.957v-79.784h525.785v79.784H45.52Zm209.784 542.784h106.217v-102.826h103.392v-106.783H361.521v-102.827H255.304v102.827H151.912v106.783h103.392v102.826ZM82.477-83.824q-32.507 0-55.862-23.356-23.356-23.356-23.356-55.863v-494.696q0-31.913 23.356-55.566 23.355-23.652 55.862-23.652h451.871q31.913 0 55.565 23.652 23.653 23.653 23.653 55.566v494.696q0 32.507-23.653 55.863-23.652 23.356-55.565 23.356H82.478Zm0-79.219h451.871v-494.696H82.478v494.696Zm226.218-247.348Z"/></svg>