<svg xmlns="http://www.w3.org/2000/svg" width="48" height="48" viewBox="0 -960 960 960"><path d="M102.83-225.09v-589.82 589.82Zm754.91 80v-589.82 589.82Zm-548.2-299.26q-14.98 0-25.17-10.48-10.2-10.48-10.2-25.45 0-14.98 10.48-25.18 10.48-10.19 25.46-10.19t25.17 10.48q10.2 10.48 10.2 25.45 0 14.98-10.48 25.18-10.48 10.19-25.46 10.19Zm170.18 0q-14.98 0-25.18-10.48-10.19-10.48-10.19-25.45 0-14.98 10.48-25.18 10.48-10.19 25.45-10.19 14.98 0 25.18 10.48 10.19 10.48 10.19 25.45 0 14.98-10.48 25.18-10.48 10.19-25.45 10.19Zm170.74 0q-14.98 0-25.18-10.48-10.19-10.48-10.19-25.45 0-14.98 10.48-25.18 10.48-10.19 25.45-10.19 14.98 0 25.18 10.48 10.19 10.48 10.19 25.45 0 14.98-10.48 25.18-10.48 10.19-25.45 10.19ZM609.78-65.87q-33.49 0-56.63-22.98Q530-111.83 530-145.09v-195.3h79.78v195.3h247.96v-589.82H609.78v115.3H530v-115.3q0-33.49 23.15-56.64 23.14-23.15 56.63-23.15h247.96q32.66 0 55.94 23.15t23.28 56.64v589.82q0 33.26-23.28 56.24-23.28 22.98-55.94 22.98H609.78Zm-506.95-80q-33.49 0-56.64-22.98t-23.15-56.24v-589.82q0-33.49 23.15-56.64t56.64-23.15h247.95q32.67 0 55.94 23.15Q430-848.4 430-814.91v195.3h-79.22v-195.3H102.83v589.82h247.95v-115.3H430v115.3q0 33.26-23.28 56.24-23.27 22.98-55.94 22.98H102.83Zm630.65-469.91q11.96 0 20.78-8.83 8.83-8.82 8.83-21.06 0-12.24-8.83-21.07-8.82-8.83-20.78-8.83t-20.78 8.83q-8.83 8.83-8.83 21.07t8.83 21.06q8.82 8.83 20.78 8.83Zm-506.96-83.13q11.96 0 20.78-8.83 8.83-8.82 8.83-20.78t-8.83-20.78q-8.82-8.83-20.78-8.83t-20.78 8.83q-8.83 8.82-8.83 20.78t8.83 20.78q8.82 8.83 20.78 8.83Z"/></svg>