<svg xmlns="http://www.w3.org/2000/svg" width="48" height="48" viewBox="0 96 960 960"><path d="M435.652 942.218q-17 0-32.283-6.783-15.282-6.783-27.413-18.913L181.521 714.478l35.956-39.218q12.131-13.261 28.674-15.478 16.544-2.217 35.501 1.913l116.261 27.261V282.218q0-29.015 18.679-47.616Q435.271 216 464.396 216q29.126 0 47.822 18.602 18.695 18.601 18.695 47.616v230.956h36q11 0 19 1.5t17.566 6.5l157.347 78.608q26.261 13.696 37.979 38.392 11.717 24.696 7.717 54.087l-27.696 180q-5.392 31.089-30.457 50.523-25.065 19.434-56.326 19.434H435.652ZM418.13 876h281l43-249-183-91h-55V316q0-18-11-29t-29-11q-18 0-29 11t-11 29v399l-154-33-23 23 171 171Zm0 0-171-171 23-23 154 33V316q0-18 11-29t29-11q18 0 29 11t11 29v220h55l183 91-43 249h-281Z"/></svg>