<svg xmlns="http://www.w3.org/2000/svg" width="48" height="48" viewBox="0 96 960 960"><path d="M426.13 942.218q-18.226 0-34.309-6.783-16.082-6.783-28.212-18.913L153.652 706l60.07-62.553q15.017-15.099 34.166-22.882 19.148-7.783 39.938-2.783l70.087 16.305V316q0-44.611 30.731-75.415 30.732-30.803 75.24-30.803 44.507 0 75.768 30.803 31.261 30.804 31.261 75.415v165.782h19.217q5.566 0 10.979 2 5.413 2 10.413 4l147.435 72q25.695 12.696 38.326 38.718 12.63 26.023 7.63 54.63l-36 218q-5.459 31.647-30.232 51.367-24.774 19.721-56.551 19.721h-256Zm-8-66.218h281l43-249-183-91h-55V316q0-18-11-29t-29-11q-18 0-29 11t-11 29v399l-154-33-23 23 171 171Zm0 0h281-281Z"/></svg>