<svg xmlns="http://www.w3.org/2000/svg" width="48" height="48" viewBox="0 96 960 960"><path d="M365.782 738.391H432V413.609h-66.218v324.782Zm162.218 0h66.218V413.609H528v324.782Zm-382.913 171.74q-32.507 0-55.862-23.356-23.356-23.355-23.356-55.862V321.087q0-32.74 23.356-56.262 23.355-23.521 55.862-23.521h669.826q32.74 0 56.262 23.521 23.521 23.522 23.521 56.262v509.826q0 32.507-23.521 55.862-23.522 23.356-56.262 23.356H145.087Zm0-79.218h669.826V321.087H145.087v509.826Zm0 0V321.087v509.826Z"/></svg>