<svg xmlns="http://www.w3.org/2000/svg" width="48" height="48" viewBox="0 -960 960 960"><path d="M197.391-156.609q-82.921 0-140.156-57.734Q0-272.078 0-355q0-81.565 58.168-139.478 58.168-57.913 140.223-57.913 69.305 0 124.567 45.5 55.262 45.5 67.26 115.5h43.652l-79.461-225.218H280v-66.782h194.218v66.782h-50.305l24.085 64.218h208.654l-69.584-184.218H484.609v-66.782h99q25.13 0 42.761 11.565 17.63 11.565 25.723 34.76l75.01 204.675h35.506q82.301 0 139.846 57.034Q960-438.324 960-356.746q0 82.442-57.006 140.724-57.006 58.283-140.385 58.283-72.168 0-126.932-47.435-54.764-47.435-67.329-119.435h-178.13q-12.001 72-65.849 120-53.847 48-126.978 48Zm0-66.782q45.23 0 79.198-29.093 33.968-29.092 46.15-72.125H206v-66.782h117.87Q311.304-433 276.616-459.304q-34.689-26.305-78.225-26.305-54.318 0-93.246 38.189-38.927 38.189-38.927 92.154 0 54.726 38.427 93.3 38.428 38.575 92.746 38.575Zm303.752-168h68.205q3.434-21.305 14.369-47.326 10.935-26.022 28.674-46.892H470.913l30.23 94.218Zm261.466 168q54.318 0 92.746-38.575Q893.782-300.54 893.782-355q0-54.304-37.869-91.891-37.87-37.587-88.783-38.152h-14.869l37.869 111.304-62.217 20.696-42.435-110.305q-27.17 16.758-40.324 46.213Q632-387.68 632-355.113q0 54.667 38.265 93.194 38.265 38.528 92.344 38.528ZM195.826-355Zm566.783.565Z"/></svg>