<svg xmlns="http://www.w3.org/2000/svg" width="48" height="48" viewBox="0 0 48 48"><path d="M14 21.3q-3 0-5.15-2.125Q6.7 17.05 6.7 14q0-3 2.15-5.15Q11 6.7 14 6.7q3.05 0 5.175 2.15T21.3 14q0 3.05-2.125 5.175T14 21.3Zm0-3.95q1.4 0 2.375-.975.975-.975.975-2.375 0-1.35-.975-2.325Q15.4 10.7 14 10.7q-1.35 0-2.325.975Q10.7 12.65 10.7 14q0 1.4.975 2.375.975.975 2.325.975ZM34 41.3q-3.05 0-5.175-2.15T26.7 34q0-3.05 2.125-5.175T34 26.7q3 0 5.15 2.125Q41.3 30.95 41.3 34q0 3-2.15 5.15Q37 41.3 34 41.3Zm0-4q1.35 0 2.325-.975.975-.975.975-2.325 0-1.4-.975-2.375-.975-.975-2.325-.975-1.4 0-2.375.975-.975.975-.975 2.375 0 1.35.975 2.325.975.975 2.375.975Zm-23.9 3.4-2.8-2.8L37.9 7.3l2.8 2.8Z"/></svg>