<svg xmlns="http://www.w3.org/2000/svg" width="48" height="48" viewBox="0 0 48 48"><path d="M24.75 24.5V7.55q0-.95.75-1.575t1.7-.625h13.75q.95 0 1.675.625.725.625.725 1.575v9.35q0 1.05-.7 1.775-.7.725-1.7.725h-10.9Zm14.6 18.15q-6.25 0-12.4-3.05T15.9 31.65q-4.9-4.9-7.975-11.075Q4.85 14.4 4.85 8.2q0-1.25.85-2.1.85-.85 2.1-.85h7q1.2 0 1.975.675Q17.55 6.6 17.8 7.8l1.35 5.85q.2 1.05-.025 1.85t-.875 1.4l-5.15 4.85q2.65 4.3 5.825 7.425Q22.1 32.3 26.05 34.45l4.85-5q.75-.75 1.6-1.025.85-.275 1.85-.025l5.35 1.25q1.2.3 1.9 1.125t.7 2.025v6.9q0 1.25-.85 2.1-.85.85-2.1.85Z"/></svg>