<svg xmlns="http://www.w3.org/2000/svg" width="48" height="48" viewBox="0 -960 960 960"><path d="M557.74-105.87v-134.87L781-463q10.13-10.13 22.54-14.98 12.42-4.85 25.68-4.85 13.13 0 25.82 5.35 12.7 5.35 22.83 15.48l37 37q10.13 10.13 14.98 22.54 4.85 12.42 4.85 25.11 0 13.26-5.35 26.18-5.35 12.91-15.48 23.04L692.61-105.87H557.74Zm-411.87-32.65v-109.26q0-41.39 20.98-72.07 20.98-30.67 54.93-46.37 68.13-30.56 131.33-45.85Q416.3-427.35 480-427.35q39.7 0 78.39 6.28 38.7 6.29 77.83 17.85L497.74-265.74v127.22H145.87Zm687.3-203.78 33.05-35.05-37-37-34.05 34.05 38 38ZM363.61-536.09q-47.74-47.74-47.74-116.67 0-68.94 47.74-116.39 47.74-47.46 116.39-47.46t116.67 47.46q48.03 47.45 48.03 116.39 0 68.93-48.03 116.67-48.02 47.74-116.67 47.74t-116.39-47.74Z"/></svg>