<svg xmlns="http://www.w3.org/2000/svg" width="48" height="48" viewBox="0 -960 960 960"><path d="M737.913-418.088v-126.608H611.305v-66.783h126.608v-126.609h66.783v126.609h126.609v66.783H804.696v126.608h-66.783Zm-376.898-70.26q-72.332 0-118.174-45.842-45.842-45.842-45.842-118.174 0-72.333 45.842-118.29 45.842-45.957 118.174-45.957 72.333 0 118.573 45.957 46.239 45.957 46.239 118.29 0 72.332-46.239 118.174-46.24 45.842-118.573 45.842ZM26.999-138.521v-109.261q0-39.128 19.872-70.622 19.871-31.494 56.042-47.814 76.13-33.565 136.02-47.348 59.89-13.782 121.915-13.782 63.109 0 122.804 13.782 59.696 13.783 135.261 47.348 36.171 16.672 56.543 47.654 20.371 30.981 20.371 70.653v109.39H26.999Z"/></svg>