<svg xmlns="http://www.w3.org/2000/svg" width="48" height="48" viewBox="0 -960 960 960"><path d="M158.27-491.22q-39.24 0-66.1-27.21-26.87-27.2-26.87-66.26 0-39.05 26.97-66.18Q119.24-678 158.29-678q39.54 0 66.38 26.99 26.85 26.99 26.85 66.21t-26.89 66.4q-26.88 27.18-66.36 27.18Zm126.25-202.6q-26.87-26.95-26.87-65.98t26.95-66.16q26.95-27.13 65.98-27.13t66.16 26.89q27.13 26.89 27.13 66.36 0 39.24-27.21 66.11-27.21 26.86-66.24 26.86-39.02 0-65.9-26.95Zm258.74-.02q-27.13-26.96-27.13-66.02 0-39.53 27.11-66.38 27.1-26.85 66.36-26.85 39.02 0 66.17 27.23 27.14 27.22 27.14 66.28t-27.29 65.88q-27.3 26.83-66.26 26.83-38.97 0-66.1-26.97Zm258.45 202.62q-39.54 0-66.38-27.32-26.85-27.32-26.85-66.54 0-39.22 26.89-66.07Q762.25-678 801.73-678q39.24 0 66.1 27.21 26.87 27.2 26.87 66.26 0 39.05-26.97 66.18-26.97 27.13-66.02 27.13ZM262.04-65.96q-44.26 0-72.67-32.92-28.41-32.92-28.41-78.47 0-43.39 26.91-76.74 26.91-33.34 55.91-64.98 21.44-23.76 41-48.26 19.57-24.5 37.7-51.63 29.75-44.98 66.74-83.62 36.99-38.64 90.73-38.64 53.75 0 91.25 38.82t67.89 84.44q17.67 26.12 36.51 50.91 18.85 24.79 40.62 47.92 29 31.7 55.91 65.04 26.91 33.35 26.91 76.74 0 45.55-28.41 78.47t-72.67 32.92q-55.41 0-108.98-9.28-53.57-9.28-108.98-9.28-55.41 0-108.98 9.28-53.57 9.28-108.98 9.28Z"/></svg>