<svg xmlns="http://www.w3.org/2000/svg" width="48" height="48" viewBox="0 -960 960 960"><path d="m134.87-127.912-93.435-93.435q-12.957-12.957-12.74-32.87.218-19.913 12.74-33.305 84.826-94.304 196.152-143.391Q348.913-480 480-480q131.087 0 242.978 48.522Q834.87-382.957 919.13-287.522q11.957 13.392 12.175 33.305.217 19.913-12.175 32.87l-94 93.435q-9.695 10.261-29.782 10.978-20.088.718-33.044-9.109l-108.348-80.478q-8.261-6.13-12.109-14.391-3.848-8.261-3.848-17.522v-142.957q-39.739-14.869-79.282-20.521-39.543-5.653-78.717-5.653t-78.717 5.653q-39.543 5.652-79.282 20.521v142.957q0 9.261-3.848 17.522t-11.544 14.391l-108.913 80.478Q183.435-115.347 165-115.782q-18.435-.434-30.13-12.13Zm346.956-401.306L283.827-729.652v112.956h-73.001v-238h238.001v73H331.871L482.826-632.74l219.695-220.695L754-801.391 481.826-529.218Z"/></svg>