<svg xmlns="http://www.w3.org/2000/svg" width="48" height="48" viewBox="0 96 960 960"><path d="m734.087 489.435-49.044-53.044 74.609-75.173H528.261v-72.436h231.391l-73.609-74.173 52.044-51.044L899.523 325 734.087 489.435Zm61.478 459.566q-124.826 0-247.87-61.131-123.043-61.13-221.304-159.109-98.261-97.978-159.392-221.304-61.13-123.327-61.13-247.587 0-24.653 16.957-41.61 16.956-16.956 41.609-16.956h140q23.609 0 39.196 13.174 15.587 13.174 20.848 37.652l27 116.957q3.696 21.348-.782 37.37-4.479 16.022-17.001 27.413L270.87 531.479q52.609 85.086 115.891 147.586 63.282 62.5 142.238 105.978l97.827-99.696q14.522-14.957 31.761-20.587 17.239-5.631 37.022-.935l107.13 24.869q24.044 5.827 37.718 22.349 13.674 16.522 13.674 41V889.87q0 25.217-16.957 42.174-16.956 16.957-41.609 16.957Z"/></svg>