<svg xmlns="http://www.w3.org/2000/svg" width="48" height="48" viewBox="0 96 960 960"><path d="m758.87 699-42-42q17-16.435 25.718-37.884 8.717-21.448 8.717-45.116 0-23.201-8.217-45.383Q734.87 506.435 717.87 490l41-42q25 25 38.718 57.378 13.717 32.378 13.717 67.5T797.449 641q-13.855 33-38.579 58Zm84 84-41-42q33.385-33.234 51.692-76.117Q871.87 622 871.87 574.5q0-47.5-19.5-90.5t-57.5-72l46-46q43.966 41.171 67.483 95.086Q931.87 515 931.87 575t-23 113.553q-23 53.552-66 94.447Zm-576.652 246q-32.678 0-55.948-23.27-23.271-23.27-23.271-55.948V202.218q0-32.678 23.271-55.948 23.27-23.271 55.948-23.271h427.564q32.678 0 55.948 23.271 23.271 23.27 23.271 55.948V342h-79.219v-49.782H266.218v567.564h427.564V810h79.219v139.782q0 32.678-23.271 55.948-23.27 23.27-55.948 23.27H266.218Z"/></svg>