<svg xmlns="http://www.w3.org/2000/svg" width="48" height="48" viewBox="0 -960 960 960"><path d="M579.609-373.044q75.565-4 134.283-56.5 58.717-52.5 65.717-130.5-75 0-137 54.783-62 54.782-63 132.217Zm0 0q-1.435-77.435-62.935-132.217-61.5-54.783-137.065-54.783 7 78 66 130.5t134 56.5Zm0-134q21 0 34-13t13-34v-10l10 3q25 8 41.5 4t24.5-18q8.565-14 7.065-34-1.5-20-25.065-31l-11-5 11-6q23-12 24.783-30.717 1.782-18.718-6.783-33.283-8-14-25-17.717-17-3.718-41 3.943l-10 2.774v-10q0-21-13-34t-34-13q-21 0-34.5 13t-13.5 34v10l-10.103-3q-25.154-7.435-41.025-3.717-15.872 3.717-24.747 17.717-9.125 14-6.842 33 2.282 19 24.717 31l11 6-11 5q-23 11.097-24.5 31.331t6.5 33.669q8.565 14.565 25.283 18.283 16.717 3.717 40.717-4.283l10-3v10q0 21 13.5 34t34.5 13Zm.265-91q-20.265 0-33.765-13.235t-13.5-33.5q0-20.265 13.518-33.765 13.517-13.5 33.5-13.5 20.547 0 33.765 13.518 13.217 13.517 13.217 33.5 0 20.547-13.235 33.765-13.235 13.217-33.5 13.217Zm94.517 405.131h126.957q3.956 26.783-11.935 47.218-15.892 20.435-42.109 23.566L212.87-57.825q-33.137 4.13-58.461-15.457-25.323-19.587-30.019-52.5L60.955-612.477q-4.13-32.914 16.117-59.439 20.248-26.525 52.841-30.606l64.565-7v80.218l-54.739 6 63.304 487.826 471.348-57.435Zm-340.695-60q-32.507 0-55.862-23.522-23.356-23.521-23.356-56.261v-491.261q0-32.507 23.356-55.862 23.355-23.356 55.862-23.356h491.826q32.74 0 56.262 23.356 23.522 23.355 23.522 55.862v491.261q0 32.74-23.522 56.261-23.522 23.522-56.262 23.522H333.696Zm0-79.783h491.826v-491.261H333.696v491.261ZM203.043-135.478Zm376.566-443.131Z"/></svg>