<svg xmlns="http://www.w3.org/2000/svg" width="48" height="48" viewBox="0 -960 960 960"><path d="M145.087-145.869q-32.507 0-55.862-23.356-23.356-23.355-23.356-55.862v-509.826q0-32.74 23.356-56.262 23.355-23.521 55.862-23.521h669.826q32.74 0 56.262 23.521 23.521 23.522 23.521 56.262v297.174h-79.783v-297.174H145.087v509.826H601.13v79.218H145.087Zm422.174-228.608L425.652-516.086v100.174h-73V-641.13H577.87v73H476.696l141.609 141.609-51.044 52.044Zm210.287 229.173q-47.66 0-82.039-34.096-34.379-34.096-34.379-82.522 0-48.426 34.45-82.121 34.449-33.696 82.734-33.696 48.049 0 82.216 33.679 34.166 33.68 34.166 82.439 0 47.926-34.327 82.122-34.328 34.195-82.821 34.195Z"/></svg>