<svg xmlns="http://www.w3.org/2000/svg" width="48" height="48" viewBox="0 -960 960 960"><path d="M391.305-628.695v-226.001h384.173q32.507 0 55.863 23.521 23.355 23.522 23.355 56.262v146.218H391.305ZM185.087-105.869q-32.507 0-55.862-23.356-23.356-23.355-23.356-55.862v-383.608h225.436v462.826H185.087Zm-79.218-522.826v-146.218q0-32.74 23.356-56.262 23.355-23.521 55.862-23.521h146.218v226.001H105.869Zm418.74 562.826-155.13-155.13 155.13-155.131 48.087 47.522-75.347 74.217h114.433q40.523 0 67.175-26.701 26.652-26.702 26.652-66.907v-114.087l-74.217 74.217-47.522-47.522 155.131-155.13 155.695 155.13-48.087 47.522-74.217-74.217v114.087q0 67.794-46.798 114.093-46.799 46.298-113.593 46.298H497.349l75.347 74.217-48.087 47.522Z"/></svg>