<svg xmlns="http://www.w3.org/2000/svg" width="48" height="48" viewBox="0 -960 960 960"><path d="M442.913-294q20 0 40.5-5.5t39.5-17.5l110 110 40-40-111-111q11-17 15.5-36t4.5-39q0-59-40-99t-99-40q-59 0-99 40t-40 99q0 59 40 99t99 40Zm0-60q-34 0-56.5-22.5t-22.5-56.5q0-34 22.5-56.5t56.5-22.5q34 0 56.5 22.5t22.5 56.5q0 34-22.5 56.5t-56.5 22.5ZM225.087-65.869q-32.507 0-55.862-23.356-23.356-23.355-23.356-55.862v-669.826q0-32.74 23.356-56.262 23.355-23.521 55.862-23.521h362.131l227.478 227.478v522.131q0 32.507-23.521 55.862-23.522 23.356-56.262 23.356H225.087Zm320.826-563.044h189l-189-186v186Z"/></svg>