<svg xmlns="http://www.w3.org/2000/svg" width="48" height="48" viewBox="0 -960 960 960"><path d="M362.782-105.869v-131.566L225.869-388.348v-216.13q0-28.443 18.413-49.591 18.413-21.149 45.805-23.41l73.565 73.566h-58.565v183.649L442-269.647v84.56h76v-84.261l41.087-45.522L62.478-811.478 109-858.565l750 750-46.522 47.087-187.782-187.216-26.912 29.912v112.913H362.782Zm342.219-241.13-50.088-50.088v-206.826H448.087L333.521-718.479v-136.217h79.784v171H547.26v-171h79.219v210.609l-39.609-39.609h68.043q33.49 0 56.637 23.429 23.146 23.429 23.146 56.919v223.17l-29.695 33.179ZM553-498.435Zm-115.13 61.783Z"/></svg>