<svg xmlns="http://www.w3.org/2000/svg" width="48" height="48" viewBox="0 -960 960 960"><path d="M324-274h60v-45h48q16 0 25.5-12t9.5-27v-114.745q0-16.255-9.5-27.755T432-512H297v-69h170v-60h-83v-45h-60v45h-48q-16 0-27.5 12T237-600.883v113.766Q237-471 248.5-461.5T276-452h131v73H237v60h87v45Zm326-35 60-60H590l60 60Zm-60-272h120l-60-60-60 60ZM145.087-145.869q-32.507 0-55.862-23.356-23.356-23.355-23.356-55.862v-509.826q0-32.74 23.356-56.262 23.355-23.521 55.862-23.521h669.826q32.74 0 56.262 23.521 23.521 23.522 23.521 56.262v509.826q0 32.507-23.521 55.862-23.522 23.356-56.262 23.356H145.087Zm0-79.218h669.826v-509.826H145.087v509.826Zm0 0v-509.826 509.826Z"/></svg>