<svg xmlns="http://www.w3.org/2000/svg" width="48" height="48" viewBox="0 -960 960 960"><path d="M105.869-65.869v-685.785h137.913v-185.303h472.436v185.303h138.478v685.785H105.869Zm217.132-685.785h313.433v-106.085H323.001v106.085ZM480-224.522q76.696 0 130.609-53.683 53.913-53.683 53.913-130.373 0-76.031-53.913-130.227T480-593.001q-76.696 0-130.326 54.13-53.631 54.129-53.631 130.608 0 76.48 53.631 130.111 53.63 53.63 130.326 53.63Zm45.435-106 31.956-32.522-54.565-54.565v-93.131h-46.217v111.392l68.826 68.826Z"/></svg>