<svg xmlns="http://www.w3.org/2000/svg" width="48" height="48" viewBox="0 -960 960 960"><path d="M631.043-152.261h48.479V-289.26h-48.479v136.999Zm23.634-175.999q9.776 0 17.311-7.362 7.534-7.361 7.534-17.176 0-10.38-7.696-17.661-7.696-7.28-16.826-7.28-10.696 0-17.326 7.696-6.631 7.695-6.631 17.394 0 9.699 6.429 17.044 6.429 7.345 17.205 7.345Zm-469.59-486.653v290.478-4 383.348-669.826 186-186ZM279-418.87h165.973q13.027-19.26 29.596-35.649 16.57-16.388 35.518-30.568H279v66.217Zm0 170h123q-2-15.695-1.783-32.608.218-16.913 3.348-33.609H279v66.217ZM185.087-65.869q-32.507 0-55.862-23.356-23.356-23.355-23.356-55.862v-669.826q0-32.74 23.356-56.262 23.355-23.521 55.862-23.521h362.131l227.478 227.478v166.87q-19.087-9.391-39.174-15.522-20.087-6.13-40.609-8.565v-104.478h-189v-186H185.087v669.826h251.652q13.148 24.186 31.249 44.442t41.535 34.776H185.087ZM655-469q80.51 0 137.255 56.745Q849-355.51 849-275q0 80.51-56.745 137.255Q735.51-81 655-81q-80.51 0-137.255-56.745Q461-194.49 461-275q0-80.51 56.745-137.255Q574.49-469 655-469Z"/></svg>