<svg xmlns="http://www.w3.org/2000/svg" width="48" height="48" viewBox="0 -960 960 960"><path d="M554.305-356.957q16.595 0 28.798-12.203 12.202-12.202 12.202-28.797 0-16.596-12.202-28.798-12.203-12.202-28.798-12.202-17.161 0-29.08 12.202-11.92 12.202-11.92 28.798 0 16.595 11.92 28.797 11.919 12.203 29.08 12.203Zm-25-118.652h47q1.435-23.913 8.783-38.761 7.347-14.848 30.521-37.587 26.435-25.181 37.218-44.986 10.782-19.804 10.782-45.448 0-46.448-31.217-75.224-31.218-28.776-82.844-28.776-38.504 0-68.504 20.217-30 20.217-43.435 57.217l45 19q11-24.434 27.383-37.434 16.384-13 39.747-13 30.213 0 48.542 16.717 18.328 16.717 18.328 42.152 0 19.708-9 34.951-9 15.244-32 32.614-29.174 27.305-37.739 45.935-8.565 18.631-8.565 52.413ZM274.696-195.478q-32.507 0-55.862-23.356-23.356-23.355-23.356-55.862v-549.826q0-32.74 23.356-56.262 23.355-23.522 55.862-23.522h549.826q32.74 0 56.262 23.522t23.522 56.262v549.826q0 32.507-23.522 55.862-23.522 23.356-56.262 23.356H274.696Zm0-79.218h549.826v-549.826H274.696v549.826ZM135.478-55.694q-32.74 0-56.262-23.522t-23.522-56.262v-629.044h79.784v629.044h629.044v79.784H135.478Zm139.218-768.828v549.826-549.826Z"/></svg>