<svg xmlns="http://www.w3.org/2000/svg" width="48" height="48" viewBox="0 -960 960 960"><path d="M106.218-185.869q-32.507 0-55.863-23.356-23.356-23.355-23.356-55.862v-429.826q0-32.74 23.356-56.262 23.356-23.521 55.863-23.521h429.825q32.74 0 56.262 23.521 23.522 23.522 23.522 56.262v429.826q0 32.507-23.522 55.862-23.522 23.356-56.262 23.356H106.218Zm0-131.218q49-32 102.956-48t111.956-16q58 0 111.957 16 53.956 16 102.956 48v-377.826H106.218v377.826Zm214.912-4q-53 0-98.456 13.5t-86.456 42.5h369.825q-43-29-89.456-42.5-46.457-13.5-95.457-13.5Zm0-107.913q-46 0-78.5-32.5t-32.5-78.5q0-46 32.5-78.5t78.5-32.5q46 0 78.5 32.5t32.5 78.5q0 46-32.5 78.5t-78.5 32.5Zm-.5-53q24.5 0 41.5-16.5t17-41q0-24.5-16.916-41.5-16.917-17-41.084-17-25 0-41.5 16.917-16.5 16.916-16.5 41.083 0 25 16.5 41.5t41 16.5Zm387.283 296.131v-588.827h66.783v588.827h-66.783Zm158.305 0v-588.827h66.783v588.827h-66.783ZM321.13-540Zm0 274.913Z"/></svg>