<svg xmlns="http://www.w3.org/2000/svg" width="48" height="48" viewBox="0 -960 960 960"><path d="M106.22-185.87q-32.51 0-55.86-23.35Q27-232.58 27-265.09v-429.82q0-32.74 23.36-56.26 23.35-23.53 55.86-23.53h429.82q32.74 0 56.27 23.53 23.52 23.52 23.52 56.26v429.82q0 32.51-23.52 55.87-23.53 23.35-56.27 23.35H106.22Zm0-131.22q49-32 102.95-48 53.96-16 111.96-16 58 0 111.96 16 53.95 16 102.95 48v-377.82H106.22v377.82Zm214.91-4q-53 0-98.46 13.5-45.45 13.5-86.45 42.5h369.82q-43-29-89.45-42.5-46.46-13.5-95.46-13.5Zm-78.5-140.41q-32.5-32.5-32.5-78.5t32.5-78.5q32.5-32.5 78.5-32.5t78.5 32.5q32.5 32.5 32.5 78.5t-32.5 78.5q-32.5 32.5-78.5 32.5t-78.5-32.5Zm78.5-20.5q24 0 41-16.5t17-41.5q0-24-17-41t-41-17q-25 0-41.5 17t-16.5 41q0 25 16.5 41.5t41.5 16.5Zm386.78 296.13V-774.7h66.79v588.83h-66.79Zm158.31 0V-774.7H933v588.83h-66.78ZM321.13-540Zm0 274.91Z"/></svg>