<svg xmlns="http://www.w3.org/2000/svg" width="48" height="48" viewBox="0 96 960 960"><path d="M834 1036.04 693.218 894.696l-57 55.435h-311.87L105.869 732.218V419.782l57-56L19.956 222l46.522-46.522 814.044 814.044L834 1036.04Zm-48.304-235.388-272.305-272.87V360.087h-66.782v101.478L255.348 270.304l69-69h311.87l218.478 218.478v312.436l-69 68.434ZM480 784.609q14.565 0 25.913-9.369 11.348-9.37 13.609-23.37 0-6.869-2.217-12.587-2.218-5.717-7.783-10.717L494.26 713.87q-5-5.566-10.434-7.783-5.435-2.217-12.305-2.217-14 2.26-23.369 13.608-9.37 11.348-9.37 25.913 0 16.827 12.196 29.022 12.196 12.196 29.022 12.196Z"/></svg>