<svg xmlns="http://www.w3.org/2000/svg" width="48" height="48" viewBox="0 96 960 960"><path d="M600.391 941.652V694q0-26.391 15.761-46.218 15.761-19.826 42.152-23.391 65.609-7.455 108.848-55.26 43.239-47.805 43.239-113.171 0-71.003-49.632-120.677-49.632-49.674-120.605-49.674-65.433 0-113.852 44.062-48.42 44.062-55.693 109.025-3.565 23.956-24.891 40.435-21.327 16.478-44.718 16.478H207.001l90 90L242 641.175 56.825 456 242 270.825l55.566 55.566-90.565 90h187.651q13.261-91 83.278-150.5 70.017-59.5 162.07-59.5 103.674 0 176.642 72.967Q889.609 352.326 889.609 456q0 92.053-59.217 162.07-59.218 70.017-150.783 83.278v240.304h-79.218Z"/></svg>