<svg xmlns="http://www.w3.org/2000/svg" width="48" height="48" viewBox="0 -960 960 960"><path d="M185.087-105.869q-32.507 0-55.862-23.356-23.356-23.355-23.356-55.862v-204q0-32.74 23.356-56.262 23.355-23.522 55.862-23.522h415.651v-146.042h79.784v146.042h93.826q32.74 0 56.261 23.522 23.522 23.522 23.522 56.262v204q0 32.507-23.522 55.862-23.521 23.356-56.261 23.356H185.087Zm102.105-139.218q17.895 0 29.895-12.106 12-12.105 12-29.999 0-17.895-12.105-29.895t-30-12q-17.895 0-29.895 12.105t-12 30q0 17.895 12.106 29.895 12.105 12 29.999 12Zm139.522 0q17.895 0 29.895-12.106 12-12.105 12-29.999 0-17.895-12.106-29.895-12.105-12-30-12-17.894 0-29.894 12.105t-12 30q0 17.895 12.105 29.895t30 12Zm139.521 0q17.895 0 29.895-12.106 12-12.105 12-29.999 0-17.895-12.105-29.895-12.106-12-30-12-17.895 0-29.895 12.105t-12 30q0 17.895 12.105 29.895t30 12Zm-6.453-424.174-44.956-44.888q24-24.634 56.127-39.199 32.127-14.565 69.395-14.565 37.267 0 69.394 14.565 32.128 14.565 56.693 39.13l-44.957 44.957q-14.565-13.435-35.954-22.652-21.388-9.217-44.676-9.217t-45.177 9.217q-21.889 9.217-35.889 22.652Zm-88.956-88.957-47.957-48.522q33-34.13 90.543-61.043 57.544-26.913 127.218-26.913t127.218 26.913q57.543 26.913 90.543 61.043l-47.956 48.522q-25.781-28.467-69.964-49.081-44.183-20.614-100.117-20.614-55.649 0-99.588 20.63-43.94 20.631-69.94 49.065Z"/></svg>