<svg xmlns="http://www.w3.org/2000/svg" width="48" height="48" viewBox="0 96 960 960"><path d="M214.679 936q-42.766 0-71.831-29.278-29.066-29.278-29.066-72.043 0-42.766 28.995-71.831 28.996-29.066 71.761-29.066 42.766 0 72.114 28.995Q316 791.773 316 834.538q0 42.766-29.278 72.114Q257.444 936 214.679 936Zm489.103 0q0-122-46.5-229.5T530.782 519q-80-80-187.5-126.5t-229.5-46.5V242.999q143.261 0 269.305 54.348 126.043 54.348 220.239 148.544 94.196 94.196 148.544 220.522Q806.218 792.739 806.218 936H703.782Zm-244.783 0q0-155.174-95.117-254.478t-250.1-99.304V479.782q97.658 0 179.66 34.671 82.002 34.67 141.609 95.778 59.608 61.107 93.278 144.609Q562 838.342 562 936H458.999Z"/></svg>