<svg xmlns="http://www.w3.org/2000/svg" width="48" height="48" viewBox="0 -960 960 960"><path d="M556.609 3.61v-79.783q132.913 0 226.348-92.978t93.435-226.24h79.219q0 82.913-31.428 155.401-31.428 72.488-85.524 126.605-54.097 54.117-126.558 85.556-72.461 31.44-155.492 31.44Zm0-139.783v-79.218q69 0 124.5-55.5t55.5-124.5h79.783q0 103.478-78.029 181.348-78.03 77.87-181.754 77.87Zm-344.25 93.39q-13.896 0-27.218-5.052-13.322-5.053-22.533-14.773l-170-170.001q-9.696-9.695-14.761-22.819-5.065-13.123-5.065-26.812 0-13.847 4.987-26.369 4.988-12.521 14.839-22.565L137.39-475.391q19.957-19.874 49.066-19.85 29.109.023 49.5 19.85l60.043 60.043 36.435-35.87-60.608-60.608q-19.827-20.706-19.827-49.169 0-28.463 19.827-48.397l68.782-68.782q20.323-19.827 49.249-19.827 28.925 0 49.317 19.827l60.608 60.608 35.87-36.435-60.043-60.608q-19.827-20.323-19.827-49.249 0-28.926 19.827-49.317l144.217-144.217q10.552-10.696 23.32-16.044 12.767-5.348 26.463-5.348 13.695 0 26.391 4.848 12.696 4.848 23.391 15.544l170 170q9.976 10.316 14.901 23.194 4.926 12.879 4.926 26.793 0 13.751-5.566 26.817-5.565 13.066-15.456 22.908L744.174-544.609q-26.09 26.391-49.414 26.391-23.325 0-49.151-26.391L585-605.218l-35.87 37.044 60.044 60Q629-487.707 628.5-458.571q-.5 29.136-20.326 48.962l-67.783 67.783Q519.924-322 490.788-322q-29.136 0-48.962-19.826l-60.044-60.609-36.434 36.478 60.608 60.566q19.826 20.099 19.826 49.419 0 29.32-19.826 49.146L261.174-62.608q-10.073 9.85-22.632 14.838-12.559 4.988-26.183 4.988Zm.032-68.608L262.999-162l-170-170-50.608 50.609 170 170ZM305.999-205l51.174-50.609-170-170L135.999-375l170 170Zm389.392-389.392L746-645.001l-170-170-50.609 50.609 170 170ZM789-688.001l50.609-50.608-170-170L619-858.001l170 170Z"/></svg>