<svg xmlns="http://www.w3.org/2000/svg" width="48" height="48" viewBox="0 -960 960 960"><path d="M614.218-359.348q-14.566 0-25.631-11.185t-11.065-25.51v-161.696q0-14.565 11.185-25.631 11.186-11.065 25.511-11.065h99.565q14.565 0 25.63 11.186 11.066 11.185 11.066 25.51v161.696q0 14.565-11.186 25.63-11.185 11.065-25.51 11.065h-99.565Zm16.695-53.956h66.174v-126.609h-66.174v126.609Zm-421.392 53.956v-104.565q0-14.565 11.186-25.63 11.185-11.066 25.51-11.066h81.174v-39.869h-117.87v-53.957h136.521q14.306 0 25.371 11.186 11.065 11.185 11.065 25.51v67.869q0 15.131-11.185 25.914-11.186 10.782-25.511 10.782h-81.173v39.87h117.869v53.956H209.521Zm235.87-157.434v-69.609h69.218v69.609h-69.218Zm0 149.391V-437h69.218v69.609h-69.218ZM133.782-133.999q-32.74 0-56.262-23.521Q54-181.042 54-213.782V-740q0-32.74 23.521-56.262 23.522-23.522 56.262-23.522H267.39v-86.217h73.001v86.217h279.218v-86.217h73.566v86.217h133.043q32.74 0 56.262 23.522Q906.001-772.74 906.001-740v526.218q0 32.74-23.521 56.262-23.522 23.521-56.262 23.521H133.782Zm3.217-83h308.392v-69.61h69.218v69.61h308.392v-519.219H514.609v69.609h-69.218v-69.609H136.999v519.219Zm0 0v-519.219 519.219Z"/></svg>