<svg xmlns="http://www.w3.org/2000/svg" width="48" height="48" viewBox="0 -960 960 960"><path d="M185.087-185.087v79.218q-33.257 0-56.237-22.981-22.981-22.98-22.981-56.237h79.218Zm-79.218-88.043v-79.783h79.218v79.783h-79.218Zm0-167.261v-79.218h79.218v79.218h-79.218Zm0-167.261v-79.783h79.218v79.783h-79.218Zm79.218-167.261h-79.218q0-33.49 22.981-56.637 22.98-23.146 56.237-23.146v79.783Zm88.043 669.044v-79.218h79.783v79.218H273.13Zm0-669.044v-79.783h79.783v79.783H273.13Zm167.261 669.044v-79.218h79.218v79.218h-79.218Zm0-669.044v-79.783h79.218v79.783h-79.218Zm167.261 669.044v-79.218h79.783v79.218h-79.783Zm0-669.044v-79.783h79.783v79.783h-79.783Zm167.261 589.826h79.783q0 33.257-23.146 56.237-23.147 22.981-56.637 22.981v-79.218Zm0-88.043v-79.783h79.783v79.783h-79.783Zm0-167.261v-79.218h79.783v79.218h-79.783Zm0-167.261v-79.783h79.783v79.783h-79.783Zm0-167.261v-79.783q33.49 0 56.637 23.146 23.146 23.147 23.146 56.637h-79.783Z"/></svg>