<svg xmlns="http://www.w3.org/2000/svg" width="48" height="48" viewBox="0 96 960 960"><path d="M303.713 1056q-15.192 0-25.387-9.98-10.196-9.99-10.196-25.18 0-14.19 10.305-24.884 10.304-10.696 25.496-10.696 14.192 0 24.565 10.805 10.374 10.805 10.374 24.995 0 15.19-10.483 25.07-10.483 9.87-24.674 9.87Zm176.783 0q-15.192 0-25.387-9.98-10.196-9.99-10.196-25.18t10.305-25.384q10.304-10.196 25.496-10.196 15.192 0 25.065 10.305 9.873 10.305 9.873 25.495 0 15.19-9.982 25.07-9.983 9.87-25.174 9.87Zm176.783 0q-15.192 0-25.105-9.98-9.913-9.99-9.913-25.18 0-14.19 9.983-24.884 9.982-10.696 25.174-10.696 15.191 0 25.104 10.805 9.913 10.805 9.913 24.995 0 15.19-9.982 25.07-9.983 9.87-25.174 9.87ZM313.001 902.218q-31.507 0-55.363-23.856-23.856-23.856-23.856-55.363V169.001q0-32.507 23.856-55.863t55.363-23.356h333.998q31.507 0 55.363 23.356 23.856 23.356 23.856 55.863v653.998q0 31.507-23.856 55.363-23.856 23.856-55.363 23.856H313.001Zm0-199.219h333.998V289.001H313.001v413.998Z"/></svg>