<svg xmlns="http://www.w3.org/2000/svg" width="48" height="48" viewBox="0 -960 960 960"><path d="M599.78-65.87q-32.74 0-56.26-23.35Q520-112.58 520-145.09v-175.69q0-31.92 23.52-55.57T599.78-400h257.96q31.91 0 55.56 23.65 23.66 23.65 23.66 55.57v175.69q0 32.51-23.66 55.87-23.65 23.35-55.56 23.35H599.78Zm0-79.22h257.96v-175.69H599.78v175.69ZM375.29-65.87 355-196.39q-15.84-5.36-34.18-15.92-18.34-10.56-31.52-21.3l-121.95 56.26-106-187.17 111.39-81.26q-1.44-7.23-1.94-17.09-.5-9.85-.5-17.08 0-7.23.5-17.09.5-9.85 1.94-17.18L61.35-596.04l106-186.05 123.23 55.7q12.46-10.18 30.64-20.48 18.17-10.3 33.78-15.17l20.55-132.66h208.89L605-763.04q15.73 5.81 34.35 15.64 18.61 9.83 31.35 21.01l122.52-55.7 105.43 186.05-111.95 79.82q.43 7.18 1.21 17.83.79 10.65.79 16.82H607.87q-.57-53.43-38.18-90.93-37.62-37.5-90.82-37.5-54.57 0-92.28 38-37.72 38-37.72 92 0 42 24.28 75.57 24.28 33.56 62.28 46.74v291.82h-60.14Z"/></svg>