<svg xmlns="http://www.w3.org/2000/svg" width="48" height="48" viewBox="0 -960 960 960"><path d="M110.565-26.434v-173.957q-34.566-13-59.348-44.071-24.783-31.072-24.783-68.581v-91.739H266v91.739q0 37.509-24.565 68.581-24.565 31.071-59.565 43.996v174.032h-71.305Zm333.783 0v-173.957q-34.566-13-59.631-44.071-25.065-31.072-25.065-68.581v-91.739h239.566v91.739q0 37.509-24.283 68.581-24.283 31.071-59.283 43.996v174.032h-71.304Zm333.782 0v-173.957q-35.13-13-59.913-44.071-24.782-31.072-24.782-68.581v-91.739h240.131v91.739q0 37.509-25.065 68.581-25.066 31.071-59.631 43.996v174.032h-70.74ZM26.434-475.522v-249.087h84.131v-173.87q0-16.162 9.596-25.624 9.597-9.463 25.957-9.463t26.056 9.463q9.696 9.462 9.696 25.624v173.87H266v249.087H26.434Zm333.218 0v-249.087h84.696v-173.87q0-16.162 9.71-25.624 9.711-9.463 26.239-9.463 16.529 0 25.942 9.463 9.413 9.462 9.413 25.624v173.87h83.566v249.087H359.652Zm333.783 0v-249.087h84.695v-173.87q0-16.162 9.319-25.624 9.319-9.463 25.848-9.463 16.529 0 26.051 9.463 9.522 9.462 9.522 25.624v173.87h84.696v249.087H693.435Z"/></svg>