<svg xmlns="http://www.w3.org/2000/svg" width="48" height="48" viewBox="0 -960 960 960"><path d="M110.565-26.434v-173.957q-34.566-13-59.348-44.071-24.783-31.072-24.783-68.581v-411.566h84.131v-173.87q0-16.162 9.596-25.624 9.597-9.463 25.957-9.463t26.056 9.463q9.696 9.462 9.696 25.624v173.87H266v411.566q0 37.509-24.565 68.581-24.565 31.071-59.565 43.996v174.032h-71.305Zm333.783 0v-173.957q-34.566-13-59.631-44.071-25.065-31.072-25.065-68.581v-411.566h84.696v-173.87q0-16.162 9.71-25.624 9.711-9.463 26.239-9.463 16.529 0 25.942 9.463 9.413 9.462 9.413 25.624v173.87h83.566v411.566q0 37.509-24.283 68.581-24.283 31.071-59.283 43.996v174.032h-71.304Zm333.782 0v-173.957q-35.13-13-59.913-44.071-24.782-31.072-24.782-68.581v-411.566h84.695v-173.87q0-16.162 9.319-25.624 9.319-9.463 25.848-9.463 16.529 0 26.051 9.463 9.522 9.462 9.522 25.624v173.87h84.696v411.566q0 37.509-25.065 68.581-25.066 31.071-59.631 43.996v174.032h-70.74ZM97.739-653.87v178.348h97.521V-653.87H97.739Zm333.218 0v178.348h97.521V-653.87h-97.521Zm333.783 0v178.348h98.086V-653.87H764.74ZM146.277-267q20.81 0 34.896-13.87 14.087-13.869 14.087-32.371v-91.541H97.739v91.541q0 18.502 14.217 32.371Q126.173-267 146.277-267Zm333.217 0q20.81 0 34.897-13.87 14.087-13.869 14.087-32.371v-91.541h-97.521v91.541q0 18.502 14.217 32.371Q459.391-267 479.494-267Zm333.724 0q20.304 0 34.956-13.87 14.652-13.869 14.652-32.371v-91.541H764.74v91.541q0 18.502 14.087 32.371Q792.913-267 813.218-267ZM146.217-439.87Zm333.218 0Zm333.783 0Z"/></svg>