<svg xmlns="http://www.w3.org/2000/svg" width="48" height="48" viewBox="0 96 960 960"><path d="M482.391 583.13Zm-4.173 167.435q14.217-68.217 59.804-119.434t111.63-73.652q-9.912-62.478-57.456-104.979Q544.652 410 480 410q-70.833 0-120.417 50Q310 510 310 580q0 70.151 48.978 119.989 48.979 49.837 119.24 50.576Zm-333.131 80.348V328.087v229.436-14.609 287.999Zm0 79.218q-32.507 0-55.862-23.356-23.356-23.355-23.356-55.862V328.087q0-32.74 23.356-56.262 23.355-23.521 55.862-23.521h138.522l79.217-93.218h234.913l78.652 93.218h138.522q32.74 0 56.262 23.521 23.521 23.522 23.521 56.262v269.219q-17.956-13.827-37.544-23.805-19.587-9.978-42.239-15.978V328.087H145.087v502.826H477.13q1.174 20.522 4.904 40.242 3.73 19.719 12.009 38.976H145.087Zm553.788 100.349-5.614-50.261q-18.87-5.435-38.739-16.652-19.87-11.217-31.739-24.087l-43.696 21.131-40.652-63.61 40.261-31.13q-5.566-20.63-5.283-38.957.283-18.326 5.283-38.956l-40.261-31.13 40.652-64.044 43.696 20.565q11.869-10.87 31.739-22.304 19.869-11.435 38.739-16.87l5.614-51.261h70.691l6.565 51.261q18.304 5.435 38.174 16.87 19.869 11.434 32.304 22.304l43.696-20.565 40.087 64.044-39.696 31.13q6.131 21.096 5.848 38.852-.282 17.757-5.848 39.061l39.696 31.13-40.087 63.61-43.696-21.131q-12.435 12.87-32.304 24.087-19.87 11.217-38.174 16.652l-6.565 50.261h-70.691Zm35.038-105.174q42.206 0 70.69-28.153 28.484-28.152 28.484-70.456t-28.505-70.456q-28.504-28.152-70.739-28.152-42.234 0-70.386 28.222-28.152 28.222-28.152 70.456t28.202 70.386q28.201 28.153 70.406 28.153Z"/></svg>