<svg xmlns="http://www.w3.org/2000/svg" width="48" height="48" viewBox="0 -960 960 960"><path d="M479.771-398.782q-33.597 0-57.576-23.808-23.978-23.807-23.978-57.239t23.83-57.41q23.829-23.979 57.292-23.979 33.696 0 57.787 23.6 24.092 23.6 24.092 57.522t-23.925 57.618q-23.925 23.696-57.522 23.696Zm-.45 292.913q-155.292 0-264.762-109.415Q105.088-324.699 105.869-481h78.653q.651 122.909 86.432 209.411t208.481 86.502q123.653 0 209.283-85.813 85.63-85.813 85.63-209.005 0-123.191-85.63-209.099-85.63-85.909-209.283-85.909-63.662 0-120.396 26.826t-100.038 73.739h92.129V-607H131.26v-218.74h66.783v99.783q54.696-60.87 127.638-94.805 72.942-33.934 153.514-33.934 78.174 0 146.446 29.63 68.272 29.631 118.887 80.356 50.614 50.725 80.108 118.838 29.495 68.114 29.495 145.981 0 77.866-29.63 145.835-29.631 67.969-80.109 118.73-50.479 50.761-118.847 80.109-68.369 29.348-146.224 29.348Z"/></svg>