<svg xmlns="http://www.w3.org/2000/svg" width="48" height="48" viewBox="0 -960 960 960"><path d="M353.48-27q-19.96 0-33.78-13.83-13.83-13.82-13.83-33.78v-484q0-19.96 13.83-33.78 13.82-13.83 33.78-13.83h253.04q19.89 0 34.03 13.83 14.15 13.82 14.15 33.78v484q0 19.96-14.15 33.78Q626.41-27 606.52-27H353.48ZM480-385q17 0 29.5-12.22 12.5-12.21 12.5-29.5Q522-445 510-458t-30-13q-18 0-31 13t-13 31q0 18 13 30t31 12ZM324-676l-42-42q40-40 91-61t107-21q56 0 107 21t91 61l-42 42q-32-31-72-47.5T480-740q-44 0-84 16.5T324-676ZM210-789l-42-43q63-61 143.5-94.5T480-960q88 0 168.5 33.5T790-830l-43 42q-53-54-122.5-83T480-900q-76 0-146 28.5T210-789Zm175.09 682.78h189.82V-527H385.09v420.78Zm0 0h189.82-189.82Z"/></svg>