<svg xmlns="http://www.w3.org/2000/svg" width="48" height="48" viewBox="0 -960 960 960"><path d="M230-240h196v-64.522h-74.826l32.413-88.217H565.26l33.609 88.217H529V-240h201v-64.522h-41.753L528.218-720h-98.697L272.565-304.522H230V-240Zm177.913-219.522 60.826-164.086h11.696l61.825 164.086H407.913ZM145.087-65.869q-32.507 0-55.862-23.356-23.356-23.355-23.356-55.862v-669.826q0-32.74 23.356-56.262 23.355-23.521 55.862-23.521h669.826q32.74 0 56.262 23.521 23.521 23.522 23.521 56.262v669.826q0 32.507-23.521 55.862-23.522 23.356-56.262 23.356H145.087Zm0-79.218h669.826v-669.826H145.087v669.826Zm0 0v-669.826 669.826Z"/></svg>