<svg xmlns="http://www.w3.org/2000/svg" width="48" height="48" viewBox="0 -960 960 960"><path d="M145.478-145.869q-32.832 0-56.22-23.389-23.39-23.388-23.39-56.22v-459.609h79.219v460h580v79.218H145.478Zm179.218-179.218q-32.831 0-56.22-23.389-23.389-23.389-23.389-56.22v-346.783q0-33.362 23.389-56.768 23.389-23.407 56.22-23.407h351.957l-79.218 79.784H324.871v346.999h490.042v-264.085l79.783-79.218v343.478q0 32.831-23.406 56.22-23.406 23.389-56.768 23.389H324.696Zm230-177.479q-25.102 0-45.573-11.543-20.471-11.544-33.471-32.501 14.566 2.826 26.761-6.543 12.196-9.37 12.196-25.2 0-23.652 16.737-40.585 16.736-16.933 41.192-16.933 24.455 0 41.133 16.891 16.678 16.89 16.678 41.02 0 31.773-21.873 53.583-21.873 21.811-53.78 21.811Zm125.218-117.391-64.913-64.914 168.782-167.913q5.87-5.565 14.544-5.565t14.693 5.454l35.353 35.918q6.019 6.122 6.019 14.796t-6.13 13.876L679.914-619.957Z"/></svg>