<svg xmlns="http://www.w3.org/2000/svg" width="48" height="48" viewBox="0 -960 960 960"><path d="M337.609-65.869q-128.339 0-219.192-89.628-90.852-89.629-90.852-218.416h75.261q0 97.174 68.475 165.261 68.474 68.087 166.308 68.087v74.696Zm0-146.218q-67.848 0-115.555-47.088-47.706-47.089-47.706-114.738h74.696q0 36.314 26.125 61.722 26.126 25.408 62.44 25.408v74.696Zm57.131-159.914q-32.74 0-56.262-23.521-23.522-23.522-23.522-56.262v-320.868q0-32.74 23.522-56.262Q362-852.435 394.74-852.435h171.52q32.74 0 56.262 23.521 23.522 23.522 23.522 56.262v320.868q0 32.74-23.522 56.262Q599-372.001 566.26-372.001H394.74Zm228.217 159.914v-74.696q36.347 0 62.456-25.408 26.108-25.408 26.108-61.722h74.697q0 67.649-47.66 114.738-47.659 47.088-115.601 47.088Zm0 146.218v-74.696q97.833 0 166.307-68.016 68.475-68.017 68.475-165.332h75.262q0 128.512-90.853 218.278-90.853 89.766-219.191 89.766Z"/></svg>