<svg xmlns="http://www.w3.org/2000/svg" width="48" height="48" viewBox="0 -960 960 960"><path d="M860-18.96 653.65-225.87H225.87l-160 160v-760.22h80.48L449.43-523h-93.47L35.09-843.87l45.52-48.52L907.52-65.48 860-18.96Zm-26.3-215.39L534.04-533H726v-60H474.04l-60-60H726v-60H381v26.96L172.35-894.7h642q31.48 0 55.63 24.16 24.15 24.15 24.15 55.63v509.82q0 27.52-17.5 48.57-17.5 21.04-42.93 22.17ZM301.5-414.5Q313-426 313-443t-11.5-28.5Q290-483 273-483t-28.5 11.5Q233-460 233-443t11.5 28.5Q256-403 273-403t28.5-11.5Zm0-120Q313-546 313-563t-11.5-28.5Q290-603 273-603t-28.5 11.5Q233-580 233-563t11.5 28.5Q256-523 273-523t28.5-11.5Z"/></svg>