<svg xmlns="http://www.w3.org/2000/svg" width="48" height="48" viewBox="0 0 48 48"><path d="M12.55 27.85q-.85 0-1.425-.575-.575-.575-.575-1.425 0-.85.575-1.425.575-.575 1.425-.575.85 0 1.425.575.575.575.575 1.425 0 .85-.575 1.425-.575.575-1.425.575ZM40.6 36.3l-3.55-3.55h2.6V7.25h-28.1l-4-4h32.1q1.55 0 2.775 1.2 1.225 1.2 1.225 2.8v25.5q0 1.35-.875 2.425Q41.9 36.25 40.6 36.3Zm-21-20.95-1.65-1.65v-1.35H35.2v3Zm6 6-3-3h12.6v3Zm16.3 25.7L31.6 36.7H10.2l-8 8V7.3L.65 5.8l2.3-2.4L44.3 44.75ZM6.15 11.25v24.5l3-3H27.6ZM24.3 20Zm-7.4 2Zm-4.35-.15q-.85 0-1.425-.575-.575-.575-.575-1.425 0-.85.575-1.425.575-.575 1.425-.575.85 0 1.425.575.575.575.575 1.425 0 .85-.575 1.425-.575.575-1.425.575Z"/></svg>