<svg xmlns="http://www.w3.org/2000/svg" width="48" height="48" viewBox="0 -960 960 960"><path d="m436.348-20.782-19-393.913-165.826-95.696-16.739 57.261 80.261 139.391-62.305 36.783-97.087-165.479 47.696-169.087L435.26-745.13 324.956-856 376-907.044 554.74-729.87l-144.435 82.435 87.261 67.305 319.13-283.566 45.349 47.044L529.784-453.26l-20 432.478h-73.436ZM178.869-673.609q-32.826 0-56.305-23.478-23.478-23.478-23.478-56.304 0-32.827 23.478-56.022 23.479-23.196 56.305-23.196 32.261 0 55.739 23.196 23.479 23.195 23.479 56.022 0 32.826-23.479 56.304-23.478 23.478-55.739 23.478Z"/></svg>