<svg xmlns="http://www.w3.org/2000/svg" width="48" height="48" viewBox="0 96 960 960"><path d="M189 909.001q-66.218 0-112.281-46.729-46.064-46.728-47.72-113.326 0-9.511 1-19.359 1-9.848 3.566-19.413l84-336.565q15.13-57.957 61.654-94.283Q225.743 242.999 285 242.999h390q59.257 0 105.781 36.327 46.524 36.326 62.22 94.283l84 336q2 10.13 3.5 20.207 1.5 10.076 1.5 20.158 0 66.636-47.165 112.831-47.165 46.196-113.845 46.196-45.948 0-85.057-23.979-39.108-23.978-58.804-65.37l-28-58q-3.304-6.608-9.776-9.63-6.472-3.021-14.354-3.021H385q-7.882 0-14.354 3.021-6.472 3.022-9.776 9.63l-28 58q-19.696 41.392-58.849 65.37-39.154 23.979-85.021 23.979ZM540.175 526q12.825 0 21.325-8.675 8.5-8.676 8.5-21.5 0-12.825-8.675-21.325-8.676-8.5-21.5-8.5-12.825 0-21.325 8.675-8.5 8.676-8.5 21.5 0 12.825 8.675 21.325 8.676 8.5 21.5 8.5Zm80-80q12.825 0 21.325-8.675 8.5-8.676 8.5-21.5 0-12.825-8.675-21.325-8.676-8.5-21.5-8.5-12.825 0-21.325 8.675-8.5 8.676-8.5 21.5 0 12.825 8.675 21.325 8.676 8.5 21.5 8.5Zm0 160q12.825 0 21.325-8.675 8.5-8.676 8.5-21.5 0-12.825-8.675-21.325-8.676-8.5-21.5-8.5-12.825 0-21.325 8.675-8.5 8.676-8.5 21.5 0 12.825 8.675 21.325 8.676 8.5 21.5 8.5Zm80-80q12.825 0 21.325-8.675 8.5-8.676 8.5-21.5 0-12.825-8.675-21.325-8.676-8.5-21.5-8.5-12.825 0-21.325 8.675-8.5 8.676-8.5 21.5 0 12.825 8.675 21.325 8.676 8.5 21.5 8.5Zm-360.059 65Q351 591 358 583.917q7-7.084 7-17.917v-45h45q10.833 0 17.917-7.116 7.083-7.117 7.083-18Q435 485 427.917 478q-7.084-7-17.917-7h-45v-45q0-10.833-7.116-17.917-7.117-7.083-18-7.083Q329 401 322 408.083q-7 7.084-7 17.917v45h-45q-10.833 0-17.917 7.116-7.083 7.117-7.083 18Q245 507 252.083 514q7.084 7 17.917 7h45v45q0 10.833 7.116 17.917 7.117 7.083 18 7.083Z"/></svg>