<svg xmlns="http://www.w3.org/2000/svg" width="48" height="48" viewBox="0 -960 960 960"><path d="M547.348-55.564q-121.609 0-201.827-85.209-80.217-85.209-80.217-204.531v-25.956q-93.479-13.827-156.349-83.988-62.87-70.161-62.87-166.622v-239.609h135.262v-43.957h79.783v167.697h-79.783v-43.957h-55.478v159.826q0 73.261 51.478 123.609 51.479 50.348 125.045 50.348t125.304-50.348q51.739-50.348 51.739-123.609v-159.826h-56.044v43.957h-79.218v-167.697h79.218v43.957h135.262v239.609q0 95.348-61.457 165.218-61.456 69.87-152.674 84.261v27.087q0 85.989 57.373 147.973 57.373 61.983 145.619 61.983 82.53 0 142.313-61.13 59.782-61.131 59.782-148.826v-73.044q-37.261-12.826-61.174-44.968-23.913-32.143-23.913-73.499 0-52.11 36.074-88.387 36.075-36.277 88.34-36.277t88.622 36.277q36.357 36.277 36.357 88.387 0 41.356-23.913 73.499-23.913 32.142-61.174 44.968v73.044q0 120.861-82.436 205.301-82.435 84.44-199.044 84.44Z"/></svg>