<svg xmlns="http://www.w3.org/2000/svg" width="48" height="48" viewBox="0 -960 960 960"><path d="M507.466-144.173q-82.574 0-149.412-42.913-66.837-42.913-96.402-120.262l80.87-34.087q20 51.957 65.968 80.957 45.968 29 98.19 29 51.581 0 78.342-25.991 26.76-25.99 26.76-68.922 0-23.565-11.478-50.478t-34.131-49.74H666q17.957 24.131 26.087 49.392 8.131 25.261 8.131 50.631 0 81.535-52.435 131.974-52.435 50.439-140.317 50.439ZM76.608-486.609v-66.782h806.783v66.782H76.609ZM475.13-820.696q68.261 0 121.522 32.413 53.261 32.413 78.392 92.975l-82.001 33.351q-14.565-35.695-46.5-53.565-31.934-17.869-72.31-17.869-46.972 0-74.979 24-28.007 24-28.036 66 0 8 1 15t3 15h-87.566q-2-8-3-16t-1-16q-.565-81.479 53.543-128.392 54.109-46.913 137.935-46.913Z"/></svg>