<svg xmlns="http://www.w3.org/2000/svg" width="48" height="48" viewBox="0 -960 960 960"><path d="M652.715-57.39q-24.54 0-42.04-17.677t-17.5-42.5q0-24.258 17.677-42.041 17.677-17.782 42.5-17.782 24.258 0 42.04 17.959 17.783 17.96 17.783 42.5t-17.96 42.04q-17.959 17.5-42.5 17.5Zm-412.892 0Q215-57.39 197.5-75.067t-17.5-42.5q0-24.258 17.677-42.041 17.677-17.782 42.5-17.782t42.323 17.959q17.5 17.96 17.5 42.218 0 24.823-17.677 42.323t-42.5 17.5Zm30.437-180q-32.217 0-45.261-28.653-13.044-28.652 7.913-53.174l424.184-500.348q18.224-21.143 46.626-35.768 28.402-14.625 58.653-14.625 60.252 0 101.939 42.218 41.687 42.219 41.687 101.956v35.61h-79.783v-35.61q0-26.907-18.535-45.649-18.535-18.741-45.134-18.741-14.789 0-26.288 7.152t-23.521 21.456l-29.565 34.181v410.776q0 32.678-23.436 55.948-23.437 23.271-56.348 23.271H270.26Zm145.697-345.828-221.61-221.044q41.652-32.088 99.305-50.131 57.652-18.044 116.739-18.044 51.291 0 102.994 14.479 51.703 14.478 100.355 41.435L415.957-583.218Z"/></svg>