<svg xmlns="http://www.w3.org/2000/svg" width="48" height="48" viewBox="0 -960 960 960"><path d="m137.87-139.91-23-7q-32.57-14-44.07-48t7.07-67l60-136v258Zm186 78q-34 0-58-24t-24-58v-207l92 262q1.43 8 5.43 14t10.57 13h-26Zm206.65-15.52q-27.22 10.69-55.59-4.29-28.37-14.98-40.06-44.19l-191-519q-12.26-29.22 2-56.31 14.26-27.08 44.91-39.35l318-115q28.65-9.69 56.31 4.57 27.65 14.26 39.91 43.91l191 513.57q8.13 30.65-4.41 59.74-12.55 29.08-43.2 40.35l-317.87 116Zm-51.39-507.11q11.26-10.98 11.26-25.52 0-14.55-11.26-25.81-11.26-11.26-25.8-11.26-14.55 0-25.53 11.26-10.97 11.26-10.97 25.81 0 14.54 10.97 25.52 10.98 10.98 25.53 10.98 14.54 0 25.8-10.98Zm30.13 429.32 308.39-113.17-187.61-509.39-308.39 112.17 187.61 510.39ZM321.65-665.61l308.39-112.17-308.39 112.17Z"/></svg>