<svg xmlns="http://www.w3.org/2000/svg" width="48" height="48" viewBox="0 -960 960 960"><path d="M210.216-185.304 46.086-349.435l56.304-55.174 69.913 70.478v-306.912q0-72.348 50.087-122.718 50.087-50.37 122.436-50.37 72.348 0 122.435 50.37t50.087 122.718v282.217q0 40.13 28.565 68.413 28.566 28.283 68.696 28.283 40.131 0 68.979-28.283 28.847-28.283 28.847-68.413v-307.043l-70.478 70.478-55.739-55.739 163.566-163.566 164.131 164.131-55.74 55.174-70.478-70.478v307.043q0 72.348-50.37 122.153-50.37 49.804-122.718 49.804-72.348 0-122.435-49.804-50.087-49.805-50.087-122.153v-282.217q0-40.131-28.566-68.979-28.565-28.848-68.695-28.848-40.131 0-68.696 28.848-28.565 28.848-28.565 68.979v306.912l70.478-70.478 55.739 55.739-163.566 163.566Z"/></svg>