<svg xmlns="http://www.w3.org/2000/svg" width="48" height="48" viewBox="0 0 48 48"><path d="M3.7 13.8q1.25-4.45 6.7-8.275T24.05 1.7q4.7 0 9.125 1.7T41.2 7.95v-4h3.15v10.1H34.2v-3.1h5.6Q36.5 8.2 32.4 6.5q-4.1-1.7-8.35-1.7-7 0-11.425 3-4.425 3-5.675 6Zm17.9 32.5q-.9 0-1.675-.325t-1.375-.925L8.85 34.9l1.8-1.95q.6-.65 1.425-.75.825-.1 1.775.1l5.85 1.35V13.3q0-1.45.925-2.375T23 10q1.45 0 2.375.925T26.3 13.3v11.55h1.8q.6 0 1 .075t.85.325l7.85 3.95q1.35.65 1.925 1.9t.375 2.7l-1.4 9q-.25 1.6-1.5 2.55-1.25.95-2.85.95Zm-.9-3.3h14.05l2.15-12.45L27.75 26H25V15q0-.9-.55-1.45Q23.9 13 23 13q-.9 0-1.45.55Q21 14.1 21 15v19.95l-7.7-1.65-1.15 1.15Zm0 0-8.55-8.55 1.15-1.15 7.7 1.65V15q0-.9.55-1.45Q22.1 13 23 13q.9 0 1.45.55.55.55.55 1.45v11h2.75l9.15 4.55L34.75 43Z"/></svg>