<svg xmlns="http://www.w3.org/2000/svg" width="48" height="48" viewBox="0 96 960 960"><path d="M173 690.044 30.39 546.87l44.045-43.479 64.956 64.956q-3.87-23.478-5.739-47.456-1.87-23.978-1.87-52.891 0-85.13 27.413-161.674 27.414-76.544 78.24-139.935l45.609 43.479Q240.913 265 217.566 331.065 194.218 397.13 194.218 468q0 26.609 1.934 52.434 1.935 25.826 5.805 52.565l70.173-69.608 43.479 43.479L173 690.044Zm430.652 279.869L343.39 863.522l16.565-49.783q5.566-17.391 19.544-26.174 13.978-8.783 33.5-12.348l117.392-22.435-164.782-371.303q-12.131-25.827-2.566-50.588 9.566-24.761 35.392-36.891 26.391-12.13 51.152-2.065 24.761 10.065 36.892 35.891l94.043 211.087 33-15q10.565-5 18.283-6.783 7.717-1.782 18.282-.782l175.783 7.434q29.26 1.435 49.608 19.479 20.348 18.043 28.913 46.304l48.305 175.565q8.565 30.696-6.631 58.675-15.195 27.978-43.891 41.108L668.913 969.044q-15.565 7-32.348 7.217-16.783.218-32.913-6.348Z"/></svg>