<svg xmlns="http://www.w3.org/2000/svg" width="48" height="48" viewBox="0 96 960 960"><path d="m179.999 701.435-26.956-58.478L94.563 616l58.48-26.957 26.956-58.478 26.957 58.478L265.435 616l-58.479 26.957-26.957 58.478Zm143.392 249.001-40.652-87.001-87.566-41.217 87.566-40.653 40.652-87 40.653 87 87.001 40.653-87.001 41.217-40.653 87.001Zm0-413.001-40.652-87.565-87.566-40.088 87.566-41.217 40.652-87.001 40.653 87.001 87.001 41.217-87.001 40.088-40.653 87.565Zm466.002 452.696q-131.74-53.391-210.762-169Q499.609 705.522 499.609 576q0-87.609 40.109-174.782 40.108-87.174 110.021-155.609h-157.26v-79.218h296.914V462.74h-79.784V299.567q-60.521 58.608-95.369 132.477Q579.393 505.913 579.393 576q0 98.174 58 189.761 58 91.587 152 138.021v86.349Zm23.608-169.218V719.782H711.87v-60h101.131V558.087h60v101.695h101.695v60H873.001v101.131h-60Z"/></svg>