<svg xmlns="http://www.w3.org/2000/svg" width="48" height="48"><path d="M27.45 23.85q2.55 0 4.325-1.775Q33.55 20.3 33.55 17.8q0-2.55-1.75-4.325-1.75-1.775-4.3-1.775t-4.325 1.775Q21.4 15.25 21.4 17.8q0 2.5 1.775 4.275 1.775 1.775 4.275 1.775zm-13.7 14.4q-1.65 0-2.825-1.175Q9.75 35.9 9.75 34.25V6.75q0-1.65 1.175-2.8T13.75 2.8h27.5q1.65 0 2.8 1.15t1.15 2.8v27.5q0 1.65-1.15 2.825-1.15 1.175-2.8 1.175zm-7 6.95q-1.65 0-2.8-1.15t-1.15-2.8v-28.5h3.95v28.5h28.5v3.95zm7-10.95h27.5q-2.45-3.35-6.025-5.325T27.5 26.95q-4.15 0-7.75 1.975-3.6 1.975-6 5.325z"/></svg>