<svg xmlns="http://www.w3.org/2000/svg" width="48" height="48" viewBox="0 -960 960 960"><path d="m280.087-348 40-40-65-65h289.826l-65 65 40 40 135-135-135-135-40 40 65 65H255.087l65-65-40-40-135 135 135 135Zm-135 202.131q-32.507 0-55.862-23.356-23.356-23.355-23.356-55.862v-509.826q0-32.74 23.356-56.262 23.355-23.521 55.862-23.521h509.826q32.74 0 56.262 23.521 23.521 23.522 23.521 56.262V-525l160-160v410l-160-160v209.913q0 32.507-23.521 55.862-23.522 23.356-56.262 23.356H145.087Zm0-79.218h509.826v-509.826H145.087v509.826Zm0 0v-509.826 509.826Z"/></svg>