<svg xmlns="http://www.w3.org/2000/svg" width="48" height="48" viewBox="0 -960 960 960"><path d="m366-319.478 114-114 114 114L640.522-366l-114-114 114-114L594-640.522l-114 114-114-114L319.478-594l114 114-114 114L366-319.478ZM185.087-185.087v-589.826 589.826-6.435 6.435Zm0 79.218q-32.507 0-55.862-23.356-23.356-23.355-23.356-55.862v-589.826q0-32.74 23.356-56.262 23.355-23.521 55.862-23.521h589.826q32.74 0 56.262 23.521 23.521 23.522 23.521 56.262v403.653q-19.256-6.696-39.259-9.479-20.002-2.782-40.524-2.087v-392.087H185.087v589.826h385.304q-1.826 20.522.109 40.242 1.935 19.719 7.5 38.976H185.087Zm598.522 90.74-49.913-49.348 67.347-68.913H627.957v-70.74h173.086l-67.347-68.347 49.913-49.914 153.348 153.914L783.609-15.129Z"/></svg>