<svg xmlns="http://www.w3.org/2000/svg" width="48" height="48" viewBox="0 -960 960 960"><path d="M774.913-106.869H185.087q-32.507 0-55.862-23.356-23.356-23.355-23.356-55.862v-588.826q0-32.74 23.356-56.262 23.355-23.521 55.862-23.521h589.826q32.74 0 56.262 23.521 23.521 23.522 23.521 56.262v588.826q0 32.507-23.521 55.862-23.522 23.356-56.262 23.356ZM185.087-637.87h589.826v-137.043H185.087v137.043Zm127.174 60H185.087v391.783h127.174V-577.87Zm335.478 0v391.783h127.174V-577.87H647.739Zm-60 0H372.261v391.783h215.478V-577.87Z"/></svg>