<svg xmlns="http://www.w3.org/2000/svg" width="48" height="48" viewBox="0 96 960 960"><path d="M648.782 1029v-79.218h45V292.218H266.218V561h-79.219V202.218q0-32.507 23.356-55.863t55.863-23.356h427.564q32.507 0 55.863 23.356t23.356 55.863v747.564q0 32.507-23.356 55.858-23.356 23.36-55.863 23.36h-45Zm-461.783 0V867.218q67.459 0 114.621 47.162 47.162 47.162 47.162 114.62H186.999Zm215 0q0-89.999-62.5-152.499t-152.5-62.5v-66.783q116.845 0 199.314 82.375T468.782 1029h-66.783Zm120 0q0-139.434-97.642-237.217-97.642-97.782-237.358-97.782v-66.783q83.227 0 156.306 31.776 73.08 31.776 127.506 86.209 54.427 54.433 86.199 127.549 31.772 73.116 31.772 156.248h-66.783Z"/></svg>