<svg xmlns="http://www.w3.org/2000/svg" width="48" height="48" viewBox="0 0 48 48"><path d="M7.45 42.3q-2.65 0-4.475-1.825Q1.15 38.65 1.15 36q0-2.65 1.825-4.475Q4.8 29.7 7.45 29.7q.5 0 .975.075T9.35 30l8.15-11.1q-.85-1.05-1.325-2.275Q15.7 15.4 15.7 14q0-3.45 2.425-5.875T24 5.7q3.45 0 5.875 2.425T32.3 14q0 1.4-.475 2.625T30.55 18.9l8.1 11.15q.45-.2.9-.275.45-.075 1-.075 2.65 0 4.475 1.825Q46.85 33.35 46.85 36q0 2.65-1.825 4.475Q43.2 42.3 40.55 42.3q-2.65 0-4.475-1.825Q34.25 38.65 34.25 36q0-1.05.3-1.95.3-.9.9-1.65l-7.9-10.85q-.4.2-.775.3-.375.1-.775.15v8.05q1.85.6 3.075 2.225T30.3 36q0 2.65-1.825 4.475Q26.65 42.3 24 42.3q-2.65 0-4.475-1.825Q17.7 38.65 17.7 36q0-2.1 1.2-3.725T22 30.05V22q-.4-.05-.775-.15-.375-.1-.775-.3l-7.9 10.8q.55.8.9 1.7.35.9.35 1.95 0 2.65-1.85 4.475Q10.1 42.3 7.45 42.3Z"/></svg>