<svg xmlns="http://www.w3.org/2000/svg" width="48" height="48" viewBox="0 -960 960 960"><path d="m699.652-324.956-55-56.131 58.869-59.304h-263.13v-79.218h263.13l-58.869-59.304 55-55.566L854.696-480 699.652-324.956ZM105.869-105.869v-748.827h246.479v748.827H105.869Zm334.522 0v-79.218h79.218v79.218h-79.218Zm0-669.044v-79.783h79.218v79.783h-79.218Zm167.261 669.044v-79.218h79.783v79.218h-79.783Zm0-669.044v-79.783h79.783v79.783h-79.783Zm167.261 669.044v-79.218h79.783v79.218h-79.783Zm0-669.044v-79.783h79.783v79.783h-79.783Z"/></svg>