<svg xmlns="http://www.w3.org/2000/svg" width="48" height="48" viewBox="0 -960 960 960"><path d="M440.391-774.913v-79.783h79.218v79.783h-79.218Zm0 669.044v-79.218h79.218v79.218h-79.218ZM272.565-774.913v-79.783h79.783v79.783h-79.783Zm0 669.044v-79.218h79.783v79.218h-79.783ZM105.869-774.913v-79.783h79.218v79.783h-79.218Zm0 167.261v-79.218h79.218v79.218h-79.218Zm0 167.261v-79.218h79.218v79.218h-79.218Zm0 167.826v-79.783h79.218v79.783h-79.218Zm0 166.696v-79.218h79.218v79.218h-79.218Zm501.783 0v-79.218h83.13v-589.826h-83.13v-79.783h247.044v79.783h-84.695v589.826h84.695v79.218H607.652Z"/></svg>