<svg xmlns="http://www.w3.org/2000/svg" width="48" height="48" viewBox="0 -960 960 960"><path d="M480-58.565q-14.957 0-29.325-5.97-14.369-5.971-26.241-17.247L81.782-424.434q-11.276-11.872-17.247-26.241-5.97-14.368-5.97-29.325 0-14.957 5.97-29.655 5.971-14.699 17.247-25.911l342.652-342.652q11.872-11.941 26.241-17.579 14.368-5.638 29.325-5.638 14.957 0 29.655 5.638 14.699 5.638 25.911 17.579l342.652 342.652q11.941 11.212 17.579 25.911 5.638 14.698 5.638 29.655t-5.638 29.325q-5.638 14.369-17.579 26.241L535.566-81.782q-11.212 11.276-25.911 17.247-14.698 5.97-29.655 5.97Z"/></svg>