<svg xmlns="http://www.w3.org/2000/svg" width="48" height="48" viewBox="0 0 48 48"><path d="M3.65 28.7q-1.5 0-2.575-1.075Q0 26.55 0 25.05V12.2q0-.65.225-1.25T1 9.8L10.75 0l1.5 1.6q.3.35.475.65.175.3.175.75v.45l-1.45 6.65h9.95q1.2 0 2.025.825t.825 2.025v2.3q0 .4-.075.775T24 16.6l-4.25 9.95q-.5 1.15-1.4 1.65-.9.5-2.4.5Zm12.7-3.65 4.3-9.8V13.8H7.35L8.7 7.25 3.65 12.4v12.65ZM37.25 48l-1.5-1.6q-.3-.35-.475-.65-.175-.3-.175-.75v-.45l1.5-6.7h-10q-1.2 0-2.025-.8t-.825-2v-2.3q0-.4.075-.775T24 31.4l4.25-10q.5-1.15 1.4-1.625.9-.475 2.4-.475h12.3q1.5 0 2.575 1.075Q48 21.45 48 22.95v12.8q0 .7-.225 1.3-.225.6-.775 1.15Zm-5.6-25.05-4.3 9.8v1.45h13.3l-1.35 6.55 5.05-5.15V22.95Zm-28 2.1V12.4L8.7 7.25 7.35 13.8h13.3v1.45l-4.3 9.8H3.65Zm40.7-2.1V35.6l-5.05 5.15 1.35-6.55h-13.3v-1.45l4.3-9.8h12.7Z"/></svg>