<svg xmlns="http://www.w3.org/2000/svg" width="48" height="48" viewBox="0 -960 960 960"><path d="M318.69-98.38q-75.48-32.5-131.63-88.64-56.15-56.13-88.67-131.58-32.52-75.45-32.52-161.34T98.5-641.37q32.63-75.54 88.61-131.52 55.98-55.98 131.47-88.89Q394.07-894.7 480-894.7q85.93 0 161.42 32.92 75.49 32.91 131.47 88.89 55.98 55.98 88.89 131.47Q894.7-565.93 894.7-480q0 85.93-32.92 161.42-32.91 75.49-88.89 131.47-55.98 55.98-131.44 88.61-75.47 32.63-161.37 32.63-85.91 0-161.39-32.51Zm121.7-49.97v-663.3q-126.35 16.82-210.82 110.5-84.48 93.67-84.48 221.15t84.48 220.65q84.47 93.18 210.82 111Zm79.22 0q36.87-4 70.89-16.85 34.02-12.84 66.89-30.71H519.61v47.56Zm0-104.74h206.96q14.17-17 27.67-34 13.5-17 24.5-36.43H519.61v70.43Zm0-128.17h279.16q8.6-16.44 10.35-34.15 1.76-17.72 2.79-35.72h-292.3v69.87Zm0-127.61h292.3q-1-18-2.71-35.72-1.72-17.71-10.29-34.15h-279.3v69.87Zm0-127.61h259.13q-10-19.43-24-36.43l-28-34H519.61v70.43Zm0-128.17h137.78q-32.87-17.31-66.89-30.65-34.02-13.35-70.89-16.35v47ZM440.39-480Z"/></svg>