<svg xmlns="http://www.w3.org/2000/svg" width="48" height="48" viewBox="0 96 960 960"><path d="m782.13 915.391 44.261-44.826-328.217-329.37q17.304-23.717 26.739-52.593 9.435-28.875 9.435-60.602 0-79.097-54.942-135.592-54.942-56.495-134.319-58.756-9.869 0-24.021 1.783-14.153 1.783-23.457 5.217l124.565 125.13-144.826 143.827-124.13-124.696q-4 8.767-5 22.239-1 13.473-1 25.239 1.13 79.989 57.194 134.69 56.063 54.701 135.38 54.701 31.464 0 60.942-9.244 29.479-9.244 53.027-26.364L782.13 915.391Zm-56.696 43.566L441.087 673.609q-23.639 10.208-48.458 15.691-24.818 5.483-51.518 5.483-111.555 0-189.224-77.62-77.67-77.619-77.67-188.864 0-42.864 11.935-81.299 11.934-38.435 38.196-75.957l153 153 59.261-58.261-153-154q37.391-26.13 76.108-38.348 38.718-12.217 80.49-12.217 111.054 0 188.815 77.67Q606.783 316.556 606.783 428q0 26.5-5.152 52.491t-15.457 49.596l283.348 283.347q23.468 23.34 24.125 55.627.658 32.287-22.56 56.505l-31.956 32.391q-23.595 24.457-56.82 24.837-33.224.38-56.877-23.837ZM350.043 437.478Z"/></svg>