<svg xmlns="http://www.w3.org/2000/svg" width="48" height="48" viewBox="0 -960 960 960"><path d="M337-966.7q89.74 0 152.59 62.81 62.85 62.82 62.85 152.5 0 29.52-7.89 56.5-7.88 26.99-21.51 51.06l-42.34-24.52q11.35-18.23 17.3-39.09 5.96-20.87 5.96-43.82 0-69.6-48.59-118.28-48.59-48.68-118.64-48.68-69.48 0-118.08 48.6-48.61 48.6-48.61 118.08 0 23.11 5.57 44.08 5.56 20.98 16.69 39.11l-42.35 25.09q-13.69-24.39-21.04-51.58-7.35-27.19-7.35-56.42 0-89.74 62.85-152.59Q247.26-966.7 337-966.7Zm0 88.48q51.54 0 89.25 36.93 37.71 36.92 37.71 90.03 0 17.52-4.85 33.65t-12.41 29.26l-43.35-23.95q5-8.57 8.06-18.2 3.07-9.63 3.07-20.76 0-32.96-23.05-55.72-23.04-22.76-55.43-22.76-33.24 0-55.86 22.76-22.62 22.76-22.62 55.72 0 11.13 2.31 20.82 2.31 9.68 7.26 18.14l-37.79 22.95q-9.13-13.69-13.69-29.67-4.57-15.98-5.57-32.24 1.44-51.54 38.02-89.25 36.59-37.71 88.94-37.71Zm95 812.35q-36.57 0-69.41-14.85-32.84-14.85-54.77-43.45L85.74-407.52l35.69-32.61q18.53-16.13 43.26-19.07 24.74-2.93 47.27 8.76l87.13 45.09v-346.91q0-15.83 10.76-26.59t26.6-10.76q15.85 0 26.59 10.76t10.74 26.59v224.35H665.3q61.87 0 105.64 43.48 43.76 43.47 43.76 105.34v155.87q0 65.83-46.05 111.59-46.04 45.76-111.87 45.76H432Z"/></svg>