<svg xmlns="http://www.w3.org/2000/svg" width="48" height="48" viewBox="0 -960 960 960"><path d="M336.88-966.7q89.86 0 152.71 62.7 62.85 62.7 62.85 152.5 0 29.63-7.89 56.61-7.88 26.99-21.51 51.06l-42.34-24.52q11.43-17.89 17.34-38.93 5.92-21.03 5.92-43.98 0-69.1-48.84-118.03-48.84-48.93-118.39-48.93-68.98 0-117.83 48.85-48.86 48.85-48.86 117.83 0 23.53 5.57 44.29 5.56 20.77 16.69 38.9l-42.35 25.09q-13.69-24.39-21.04-51.63-7.35-27.24-7.35-56.51 0-89.6 62.73-152.45 62.73-62.85 152.59-62.85Zm.3 88.48q51.36 0 89.07 36.93 37.71 36.92 37.71 89.71 0 18.27-4.85 34.19-4.85 15.91-12.41 29.04l-43.35-23.95q5-8.57 8.06-18.2 3.07-9.63 3.07-20.43 0-32.97-23.11-55.89-23.1-22.92-55.37-22.92-33.24 0-55.86 22.92-22.62 22.92-22.62 55.89 0 10.8 2.31 20.49 2.31 9.68 7.26 18.14l-37.79 22.95q-9.13-13.69-13.69-29.67-4.57-15.98-5.57-32.24 1.44-51.54 37.82-89.25t89.32-37.71ZM432-65.87q-36.57 0-69.41-14.85-32.84-14.85-54.77-43.45L85.74-407.52l35.69-32.61q18.53-16.13 43.26-19.07 24.74-2.93 47.27 8.76l87.13 45.09v-346.91q0-15.58 10.93-26.46 10.94-10.89 26.61-10.89t26.41 10.89q10.74 10.88 10.74 26.46v224.35h291.38q62.01 0 105.78 43.48 43.76 43.47 43.76 105.34v155.87q0 65.83-46.05 111.59-46.04 45.76-111.87 45.76H432Z"/></svg>