<svg xmlns="http://www.w3.org/2000/svg" width="48" height="48" viewBox="0 -960 960 960"><path d="M145.087-185.869q-32.507 0-55.862-23.356-23.356-23.355-23.356-55.862v-509.826q0-32.74 23.356-56.262 23.355-23.521 55.862-23.521h629.826q32.74 0 56.262 23.521 23.521 23.522 23.521 56.262v178.304h-79.783v-178.304H145.087v509.826h72.477l79.349 79.218H145.087Zm397.173 120q-23.278 0-44.617-8.444t-37.905-25.252L257.651-302.087l31.282-30.995q14.059-14.014 32.411-18.618 18.351-4.604 37.612.961l73.521 20.174v-311.522q0-15.392 10.95-25.805 10.951-10.412 26.333-10.412 15.143 0 25.43 10.412 10.288 10.413 10.288 25.805v258.479h67v-136.783q0-15.392 10.59-25.805t25.85-10.413q15.261 0 25.628 10.413t10.367 25.805v136.783h66v-69.825q0-15.393 10.951-25.806 10.95-10.412 26.332-10.412 15.143 0 25.431 10.412 10.287 10.413 10.287 25.806v69.825h67q0-15.392 10.661-25.805t26.027-10.413q15.366 0 25.557 10.413Q923.35-399 923.35-383.608v161.521q0 66.025-45.097 111.121-45.097 45.097-111.121 45.097H542.26Z"/></svg>