<svg xmlns="http://www.w3.org/2000/svg" width="48" height="48" viewBox="0 -960 960 960"><path d="M145.869-266.218V-654q0-97.73 71.065-129.931 71.065-32.2 232.066-34.765l31.435-64.305H273.782v-50h412.436v50H540.435L511-818.696q136.174 2.565 219.935 34.561T814.696-654v387.782q0 66.643-45.304 114.344-45.305 47.701-110.522 49.962l67.348 67.913v20h-82.436l-86.783-86.783H403.001l-86.783 86.783h-82.436v-20l67.348-67.913q-65.217-2.261-110.239-49.962-45.022-47.701-45.022-114.344ZM483-241.739q23 0 39-16t16-39q0-22.435-16-38.717-16-16.283-39-16.283t-39 16.283q-16 16.282-16 38.717 0 23 16 39t39 16ZM225.087-468.913h508.826v-155H225.087v155Z"/></svg>