<svg xmlns="http://www.w3.org/2000/svg" width="48" height="48" viewBox="0 0 48 48"><path d="M36.75 31.5q-2.9-2.95-4.5-6.425-1.6-3.475-1.6-8.125 0-4.6 1.575-8.025Q33.8 5.5 36.6 2.55l2.65 2.6q-2.4 2.5-3.65 5.2t-1.25 6.6q0 3.95 1.3 6.65t3.65 5.25Zm7.05-7.4q-1.3-1.35-2.075-3.2-.775-1.85-.775-3.9 0-2 .75-3.875T43.75 9.9l2.6 2.6q-.85.95-1.3 2.05-.45 1.1-.45 2.45t.45 2.45q.45 1.1 1.3 2.05Zm-25.75 1.1q-3.6 0-5.9-2.3-2.3-2.3-2.3-5.95 0-3.6 2.3-5.9 2.3-2.3 5.9-2.3 3.6 0 5.925 2.3 2.325 2.3 2.325 5.9 0 3.65-2.3 5.95-2.3 2.3-5.95 2.3ZM1.35 42.7v-5.45q0-2.2 1.15-3.7t2.65-2.25q2.55-1.3 6.175-2.175 3.625-.875 6.725-.875 3.1 0 6.7.875t6.2 2.125q1.5.8 2.675 2.3 1.175 1.5 1.175 3.7v5.45Z"/></svg>