<svg xmlns="http://www.w3.org/2000/svg" width="48" height="48" viewBox="0 96 960 960"><path d="M480 990.131q-85.846 0-161.38-32.348-75.533-32.348-131.794-88.609-56.261-56.261-88.61-131.794Q65.87 661.846 65.87 576q0-85.826 32.348-161.37 32.348-75.543 88.609-131.804 56.261-56.261 131.794-88.892 75.534-32.63 161.38-32.63 85.826 0 161.315 32.507 75.49 32.507 131.928 88.946 56.439 56.438 88.946 131.928Q894.696 490.174 894.696 576q0 85.846-32.63 161.38-32.631 75.533-88.892 131.794-56.261 56.261-131.804 88.609-75.544 32.348-161.37 32.348Zm-.1-173.001q101.013 0 171.121-70.009Q721.13 677.112 721.13 576.1q0-101.013-70.009-171.121Q581.112 334.87 480.1 334.87q-101.013 0-171.121 70.009Q238.87 474.888 238.87 575.9q0 101.013 70.009 171.121Q378.888 817.13 479.9 817.13Z"/></svg>