<svg xmlns="http://www.w3.org/2000/svg" width="48" height="48"><path d="M24.8 23.75q-.95 0-1.6-.65-.65-.65-.65-1.6 0-.95.65-1.6.65-.65 1.6-.65.95 0 1.6.65.65.65.65 1.6 0 .95-.65 1.6-.65.65-1.6.65zm0-12.65q-.95 0-1.6-.65-.65-.65-.65-1.6 0-.95.65-1.6.65-.65 1.6-.65.95 0 1.6.65.65.65.65 1.6 0 .95-.65 1.6-.65.65-1.6.65zm4.05 6.35q-.95 0-1.6-.65-.65-.65-.65-1.6 0-.95.65-1.6.65-.65 1.65-.65.9 0 1.575.65.675.65.675 1.6 0 .95-.675 1.6-.675.65-1.625.65zm2.25 6.3q-.95 0-1.575-.65t-.625-1.6q0-.95.625-1.6.625-.65 1.625-.65.9 0 1.575.65.675.65.675 1.6 0 .95-.675 1.6-.675.65-1.625.65zm0-12.65q-.95 0-1.575-.65t-.625-1.6q0-.95.625-1.6.625-.65 1.625-.65.9 0 1.575.65.675.65.675 1.6 0 .95-.675 1.6-.675.65-1.625.65zm4.1 6.35q-1 0-1.625-.65t-.625-1.6q0-.95.65-1.6.65-.65 1.6-.65.95 0 1.6.65.65.65.65 1.6 0 .95-.65 1.6-.65.65-1.6.65zm2.25 6.3q-1 0-1.625-.65t-.625-1.6q0-.95.65-1.6.65-.65 1.6-.65.95 0 1.6.65.65.65.65 1.6 0 .95-.65 1.6-.65.65-1.6.65zm0-12.65q-1 0-1.625-.65t-.625-1.6q0-.95.65-1.6.65-.65 1.6-.65.95 0 1.6.65.65.65.65 1.6 0 .95-.65 1.6-.65.65-1.6.65zm4.05 6.35q-.95 0-1.6-.65-.65-.65-.65-1.6 0-.95.65-1.6.65-.65 1.6-.65.95 0 1.625.65t.675 1.6q0 .95-.675 1.6-.675.65-1.625.65zm2.3 6.3q-1 0-1.65-.65-.65-.65-.65-1.6 0-.95.675-1.6.675-.65 1.625-.65t1.6.65q.65.65.65 1.6 0 .95-.65 1.6-.65.65-1.6.65zm0-12.65q-1 0-1.65-.65-.65-.65-.65-1.6 0-.95.675-1.6.675-.65 1.625-.65t1.6.65q.65.65.65 1.6 0 .95-.65 1.6-.65.65-1.6.65zm-4.45 31.55q-6.25 0-12.4-3.05T15.9 31.65q-4.9-4.9-7.975-11.075Q4.85 14.4 4.85 8.2q0-1.25.85-2.1.85-.85 2.1-.85h7q1.2 0 1.975.675Q17.55 6.6 17.8 7.8l1.35 5.85q.2 1.05-.025 1.875T18.25 16.9l-5.15 4.85q2.65 4.3 5.825 7.425Q22.1 32.3 26.05 34.45l4.85-5q.75-.75 1.6-1.025.85-.275 1.85-.025l5.35 1.25q1.2.3 1.9 1.125t.7 2.025v6.9q0 1.25-.85 2.1-.85.85-2.1.85z"/></svg>