<svg xmlns="http://www.w3.org/2000/svg" width="48" height="48" viewBox="0 -960 960 960"><path d="M416.678-454.913q19.192 0 32.387-12.982 13.196-12.983 13.196-32.174 0-19.192-13.305-32.105-13.305-12.913-32.496-12.913-19.192 0-32.065 12.982-12.874 12.983-12.874 32.174 0 19.192 12.983 32.105 12.982 12.913 32.174 12.913Zm126.862 0q19.192 0 32.065-12.982 12.874-12.983 12.874-32.174 0-19.192-12.983-32.105-12.982-12.913-32.174-12.913t-32.387 12.982q-13.196 12.983-13.196 32.174 0 19.192 13.305 32.105 13.305 12.913 32.496 12.913Zm-253.189 0q18.736 0 31.931-12.982 13.196-12.983 13.196-32.174 0-19.192-13.156-32.105-13.156-12.913-32.174-12.913t-31.931 12.982q-12.913 12.983-12.913 32.174 0 19.192 12.951 32.105 12.951 12.913 32.096 12.913Zm379.501 0q19.018 0 31.931-12.982 12.913-12.983 12.913-32.174 0-19.192-12.951-32.105-12.951-12.913-32.096-12.913-18.736 0-31.931 12.982-13.196 12.983-13.196 32.174 0 19.192 13.156 32.105 13.156 12.913 32.174 12.913ZM160.391-106.999v-90.74l-14.173 11.87q-33.479 0-56.914-22.856-23.435-22.855-23.435-56.362v-469.261q0-33.74 22.856-56.761 22.855-23.022 56.362-23.022h669.826q33.74 0 56.762 23.022 23.021 23.021 23.021 56.761v469.261q0 33.74-23.717 56.479-23.718 22.739-56.631 22.739l-14.739-11.87v90.74h-39.957l-25.338-78.87H226.218l-25.87 78.87h-39.957Z"/></svg>