<svg xmlns="http://www.w3.org/2000/svg" width="48" height="48" viewBox="0 96 960 960"><path d="m480 611.088 334.913-217v-73.001L480 534.087l-334.913-213v73.001l334.913 217ZM773 1016q-77.605 0-132.302-54Q586 908 586 829.986q0-78.014 54.698-133Q695.395 642 773 642q77.605 0 132.302 54.986Q960 751.972 960 829.986 960 908 905.302 962q-54.697 54-132.302 54ZM660 849.391h226v-46.782H660v46.782Zm-514.913 60.74q-33.257 0-56.237-22.981-22.981-22.98-22.981-56.237V321.087q0-33.49 22.98-56.637 22.981-23.146 56.238-23.146h669.826q33.49 0 56.637 23.146 23.146 23.147 23.146 56.637v294.392q-27.826-16.957-58.783-25.218Q804.957 582 772.651 582q-102.521 0-174.021 72.804-71.5 72.805-72.63 176.109-.565 20.087 3.38 39.892 3.946 19.804 11.272 39.326H145.087Z"/></svg>