<svg xmlns="http://www.w3.org/2000/svg" width="48" height="48" viewBox="0 0 48 48"><path d="m41.45 45.85-13.8-13.8H25.8v5q1 .6 1.55 1.575t.55 2.075q0 1.65-1.15 2.8T24 44.65q-1.65 0-2.775-1.15T20.1 40.7q0-1.1.55-2.05.55-.95 1.55-1.55v-5.05h-7.1q-1.5 0-2.575-1.075Q11.45 29.9 11.45 28.4v-5.25q-1-.55-1.55-1.475T9.35 19.6q0-1.15.6-2.15t1.6-1.5l-9.4-9.4L4.5 4.2l39.3 39.3Zm-5.8-15.3-3.4-3.35v-4.65H30.8V15.7h7.85v7.8h-2.1v4.9q0 .6-.25 1.175-.25.575-.65.975ZM15.1 28.4h7.1v-1.85l-5.3-5.25q-.25.6-.725 1.075T15.1 23.1v5.3Zm10.7-7.6-3.6-3.65V11.4h-3.05l-.75-.75 5.6-7.6 6.15 8.35H25.8Z"/></svg>