<svg xmlns="http://www.w3.org/2000/svg" width="48" height="48" viewBox="0 -960 960 960"><path d="m313.391-53.782-66.782-49.522v-180.478h-50.391q-30.218 0-51.327-21.109-21.109-21.109-21.109-51.327v-307.564h-10q-14.695-1.131-24.043-11.327Q80.39-685.304 80.39-700q0-15.826 10.195-26.022 10.196-10.196 26.023-10.196h130v-80.391H220q-15.826 0-26.022-10.478-10.196-10.478-10.196-26.304 0-15.827 10.196-26.022 10.196-10.196 26.022-10.196h120q15.826 0 26.022 10.196 10.196 10.195 10.196 26.022 0 15.826-10.196 26.304-10.196 10.478-26.022 10.478h-26.609v80.391h130q15.827 0 26.022 10.196 10.196 10.196 10.196 26.022 0 14.696-9.348 24.891-9.348 10.196-24.043 11.327h-10v307.564q0 30.218-21.109 51.327-21.109 21.109-51.327 21.109h-50.391v230ZM196.218-356.218h167.564v-70.391H290q-9.696 0-16.544-6.847-6.847-6.848-6.847-16.544 0-9.696 6.847-16.544 6.848-6.847 16.544-6.847h73.782v-73.218H290q-9.696 0-16.544-6.847-6.847-6.848-6.847-16.544 0-9.696 6.847-16.544 6.848-6.847 16.544-6.847h73.782v-70.391H196.218v307.564ZM603.391-70.391q-30.217 0-51.609-21.391-21.391-21.392-21.391-51.609V-406q0-32.565 8-50.196 8-17.63 21.565-31.065 24.653-22.826 30.653-33.544 6-10.717 6-22.586v-30h-10q-14.696-1.131-23.761-11.327-9.066-10.195-9.066-24.891 0-15.826 10.696-26.305 10.696-10.478 25.522-10.478h200q15.826 0 26.022 10.478 10.196 10.479 10.196 26.305 0 14.696-9.066 24.891-9.065 10.196-23.761 11.327h-10v30q0 10.869 7.5 23.586 7.5 12.718 32.153 35.544 14.13 13.435 20.348 29.565 6.217 16.131 6.217 48.696v262.609q0 30.217-21.391 51.609-21.392 21.391-51.609 21.391H603.391Zm0-313h173.218V-406q0-16.87-9.718-31.152-9.717-14.283-21.152-27.587-15.565-19.565-22.348-34.152-6.782-14.587-6.782-37.718v-36.782h-53.218v36.782q0 21.566-6.282 36.435-6.283 14.87-21.848 34.435-10.87 13.869-21.37 28.087-10.5 14.217-10.5 31.652v22.609Zm0 240h173.218v-73.218H603.391v73.218Z"/></svg>