<svg xmlns="http://www.w3.org/2000/svg" width="48" height="48" viewBox="0 0 48 48"><path d="M25.25 14.35h9.55v-5.6h-9.55v5.6ZM8 35.2q1.2 0 2-.8t.8-2q0-1.15-.8-1.975-.8-.825-2-.825t-1.975.825q-.775.825-.775 1.975 0 1.2.8 2t1.95.8Zm16 7.1q-3.6 0-6.85-1.075Q13.9 40.15 11.2 38.1q-.7.45-1.525.65T8 38.95q-2.75 0-4.65-1.9-1.9-1.9-1.9-4.65 0-1.35.55-2.55.55-1.2 1.45-2.1-.45-1.2-.775-2.45-.325-1.25-.425-2.55l3.65-.4q.15.95.35 1.9.2.95.5 1.8.3-.05.625-.125T8 25.85q2.75 0 4.65 1.925 1.9 1.925 1.9 4.625 0 .8-.2 1.55t-.55 1.45q1.8 1.25 3.9 2.025 2.1.775 4.45.975V27.6q0-.95-.625-1.55-.625-.6-1.525-.6-3.3 0-5.575-2.3-2.275-2.3-2.275-5.55 0-3.3 2.275-5.6T20 9.7h1.6V8.2q.25-1.35 1.325-2.275Q24 5 25.4 5h9.2q1.4 0 2.475.925Q38.15 6.85 38.4 8.2v1.5H40q.8 0 1.35.55t.55 1.35q0 .75-.55 1.3t-1.35.55h-1.6v1.5q-.25 1.35-1.325 2.25-1.075.9-2.475.9h-9.2q-1.4 0-2.475-.9-1.075-.9-1.325-2.25v-1.5H20q-1.7 0-2.9 1.2t-1.2 2.95q0 1.7 1.2 2.9t2.9 1.2q2.5 0 4.2 1.7 1.7 1.7 1.7 4.15V38.4q4.4-.45 8-2.875 3.6-2.425 5.75-6.175l-2.4-1.15 1.7-3.4 2.2 1.15q.3-.85.525-1.75.225-.9.325-1.85l3.75.4q-.15 1.25-.45 2.5-.3 1.25-.75 2.4l2.2 1.05-1.7 3.4L43 31.05q-2.85 5.1-7.9 8.175Q30.05 42.3 24 42.3Zm1.25-27.95v-5.6 5.6ZM8 32.4Z"/></svg>