<svg xmlns="http://www.w3.org/2000/svg" width="48" height="48" viewBox="0 -960 960 960"><path d="M364.131-225.087h450.782v-126.261H364.131v126.261ZM145.087-608.652h147.739v-126.261H145.087v126.261Zm0 187h147.739v-115.696H145.087v115.696Zm0 196.565h147.739v-126.261H145.087v126.261Zm219.044-196.565h450.782v-115.696H364.131v115.696Zm0-187h450.782v-126.261H364.131v126.261ZM145.087-145.869q-32.507 0-55.862-23.356-23.356-23.355-23.356-55.862v-509.826q0-32.74 23.356-56.262 23.355-23.521 55.862-23.521h669.826q32.74 0 56.262 23.521 23.521 23.522 23.521 56.262v509.826q0 32.507-23.521 55.862-23.522 23.356-56.262 23.356H145.087Z"/></svg>