<svg xmlns="http://www.w3.org/2000/svg" width="48" height="48" viewBox="0 -960 960 960"><path d="m438.391-163.043-207-121.652q-18.296-11.252-28.453-29.678-10.156-18.426-10.156-39.279v-242.304q0-20.853 10.156-39.28 10.157-18.426 28.453-29.677l208-124.217q18.522-10.827 40.609-10.827 22.087 0 40.609 10.827l208 124.217q18.297 11.251 28.453 29.677 10.156 18.427 10.156 39.28v242.304q0 20.853-10.419 39.279-10.419 18.426-29.19 29.678l-210 121.652q-18.85 11.391-39.773 11.391-20.923 0-39.445-11.391ZM450-249.001v-208.907L273.001-559.956v203.936L450-249.001Zm60 0L687.999-356.02v-203.936L510-457.908v208.907ZM65.869-692.13v-122.783q0-33.49 22.98-56.637 22.981-23.146 56.238-23.146H267.87v73.566h-129v129H65.869ZM267.87-65.869H145.087q-33.257 0-56.237-22.98-22.981-22.981-22.981-56.238V-267.87h73.001v129h129v73.001Zm424.26 0v-73.001h129v-129h73.566v122.783q0 33.257-23.146 56.237-23.147 22.981-56.637 22.981H692.13Zm129-626.261v-129h-129v-73.566h122.783q33.49 0 56.637 23.146 23.146 23.147 23.146 56.637v122.783H821.13ZM480-512.304l177.565-102.652L480-717.173 302.435-614.956 480-512.304Zm0 23.869Zm0-23.869Zm30 54.565Zm-60 0Z"/></svg>