<svg xmlns="http://www.w3.org/2000/svg" width="48" height="48" viewBox="0 96 960 960"><path d="M653.913 586.695q-49.261-43.696-93.456-85.109-44.196-41.413-77.609-80.826t-52.978-76.609q-19.566-37.196-19.566-72.457 0-55.956 37.826-93.783 37.827-37.826 93.783-37.826 29.435 0 58.653 15.37 29.217 15.369 53.347 41.108 24.131-25.739 53.348-41.108 29.218-15.37 58.652-15.37 55.957 0 94.066 37.826 38.109 37.827 38.109 93.783 0 35.261-19.848 72.457-19.848 37.196-53.261 76.609-33.413 39.413-77.609 80.826t-93.457 85.109Zm-91.87 426.525-304.217-87.306V560.652h89.478l257.261 97.13q30.392 11.131 51.435 36.74 21.044 25.608 21.044 72.13h-77.001q-49.565 0-71.782-3-22.218-3-49.479-11.565l-70.739-23.435-13.956 40.436 77.826 26.565q21.304 6.87 51.782 10.435 30.479 3.565 58.783 3.565h195.565q64.348 0 87.675 18.891 23.326 18.891 23.326 56.457v28.826l-327.001 99.393Zm-539-32.567V560.652H183.26v420.001H23.043Z"/></svg>