<svg xmlns="http://www.w3.org/2000/svg" width="48" height="48" viewBox="0 0 48 48"><path d="M32.7 24.55q-2.45-2.2-4.675-4.275-2.225-2.075-3.9-4.05-1.675-1.975-2.65-3.825-.975-1.85-.975-3.6 0-2.8 1.9-4.7 1.9-1.9 4.7-1.9 1.45 0 2.925.775Q31.5 3.75 32.7 5.05q1.2-1.3 2.65-2.075Q36.8 2.2 38.3 2.2q2.8 0 4.7 1.9 1.9 1.9 1.9 4.7 0 1.75-1 3.6t-2.65 3.825q-1.65 1.975-3.875 4.05Q35.15 22.35 32.7 24.55Zm-4.6 21.3L12.9 41.5V23.25h4.45l12.9 4.85q1.5.55 2.55 1.825 1.05 1.275 1.05 3.625H30q-2.5 0-3.6-.15t-2.45-.6l-3.55-1.15-.7 2L23.6 35q1.05.35 2.575.525 1.525.175 2.925.175h9.8q3.2 0 4.375.925 1.175.925 1.175 2.825v1.45Zm-26.95-1.6v-21h8v21Z"/></svg>