<svg xmlns="http://www.w3.org/2000/svg" width="48" height="48" viewBox="0 -960 960 960"><path d="M443.473-326.609q-47.902 0-96.014 13.935-48.111 13.935-93.111 39.935l14.573 127.652h422.861l17-141.522h-18q-34.739-.565-66.275-6.347-31.537-5.783-82.014-19.653-25.011-7-49.317-10.5t-49.703-3.5Zm-198.951-31.479q46.435-22.869 97.189-35.304 50.755-12.435 101.724-12.435 31.333 0 61.58 4.283 30.246 4.282 58.376 12.282 49.152 13.435 75.57 18.435 26.418 5 54.778 5.565h22.739l49.174-449.651H194.348l50.174 456.825Zm24.261 292.22q-30.073 0-53.207-20.018-23.134-20.016-26.011-49.94l-83.696-758.87h748.827l-83.695 758.87q-3.443 29.924-26.157 49.94-22.714 20.017-53.062 20.017H268.783Zm174.628-79.219h248.371-422.999 174.628Z"/></svg>