<svg xmlns="http://www.w3.org/2000/svg" width="48" height="48" viewBox="0 -960 960 960"><path d="M443.609-508.74 710-774.13q10.644-10.696 24.931-10.696t24.982 10.655q10.696 10.655 10.414 24.674-.283 14.019-10.414 24.715L492.392-457.826l-48.783-50.914ZM548.74-403.609l237.39-236.826q10.198-10.13 24.925-10.13 14.728 0 25.424 10.627 10.695 10.627 10.695 24.391 0 13.765-10.695 24.46L598.088-352.13l-49.348-51.479ZM180.869-180.912q-94.957-94.957-96.87-228.175-1.913-133.217 92.478-227.609l133.871-134.435 39.739 39.739q15.025 14.877 23.839 34.809 8.813 19.931 9.248 37.887l164.13-164.565q10.763-10.696 25.208-10.696 14.445 0 25.14 10.466 10.696 10.466 10.696 25.118 0 14.651-10.696 25.46L397.479-573.304l-55.956 57.086 18.086 17.522q43.131 43.663 42.761 104.723-.369 61.06-44.065 104.755l-9.826 9.827-49.349-50.914 10.392-9.826q23.304-23.304 22.674-54.826-.631-31.522-22.935-53.826L269.609-489q-12.391-12.119-12.391-28.429 0-16.311 12.391-28.137l42.434-41.999q16.435-17 15.87-41.652-.565-24.653-17.565-41.653l-83.957 84.522q-74.131 73.566-71.935 177.261 2.196 103.696 76.326 177.827 74 74 177 75.5t176.44-71.941l243.952-243.386q10.875-10.695 25.264-10.695 14.388 0 24.801 10.538 10.413 10.537 10.413 24.617t-10.13 24.889L635.261-178.477Q540.87-84.086 408.348-85.021q-132.522-.934-227.479-95.891Zm225.479-224.914ZM686.739-23.608l1-79.218q70.435 0 120.217-49.5 49.783-49.5 49.783-120.5l78.653-1q0 103.764-73.227 176.991-73.227 73.227-176.426 73.227ZM23.608-686.739q0-103.199 73.104-176.426 73.104-73.227 177.114-73.227l-1 78.653q-71 0-120.5 49.783-49.5 49.782-49.5 120.217l-79.218 1Z"/></svg>