<svg xmlns="http://www.w3.org/2000/svg" width="48" height="48" viewBox="0 96 960 960"><path d="M440.391 1002V858h79.218v144h-79.218ZM53.999 615.609v-79.218H198v79.218H53.999Zm708.001 0v-79.218h144.001v79.218H762Zm-9.999 288.958L651.348 803.348l56.565-56.566 100.654 101.219-56.566 56.566Zm-544.002 0-56.566-56.566 101.219-101.219 56.566 56.566-101.219 101.219ZM480 764.218q-78.391 0-133.305-54.913-54.913-54.914-54.913-133.432 0-49.311 20.435-89.505 20.435-40.194 59.565-65.759V209.782h216.436v210.681q38.565 25.946 59.282 66.094 20.718 40.148 20.718 89.407 0 78.427-54.913 133.341Q558.391 764.218 480 764.218Zm-42-367.436q11-3.054 21-4.58 10-1.527 21-1.527t21 1.527q10 1.526 21 4.58V276h-84v120.782Z"/></svg>