<svg xmlns="http://www.w3.org/2000/svg" width="48" height="48" viewBox="0 96 960 960"><path d="M198.999 982.218V676h-50V448q0-29 21.5-50.5t50.242-21.5h117.517Q367 376 388.5 397.5 410 419 410 448v228h-50v306.218H198.999Zm80.603-654q-33.211 0-56.407-22.976-23.196-22.976-23.196-56.022t23.116-56.242q23.117-23.196 56.328-23.196t56.384 22.976Q359 215.734 359 248.78t-23.094 56.242q-23.093 23.196-56.304 23.196Zm350.398 654V749.001H523.739L612 429.522q7.781-25.288 29.151-39.405Q662.522 376 690.218 376q27.695 0 49.349 14.117 21.653 14.117 29.434 39.405l88.826 319.479H751.001v233.217H630Zm60.557-654q-33.211 0-56.384-22.976Q611 282.266 611 249.22t23.094-56.242q23.093-23.196 56.304-23.196t56.407 22.976q23.196 22.976 23.196 56.022t-23.116 56.242q-23.117 23.196-56.328 23.196Z"/></svg>