<svg xmlns="http://www.w3.org/2000/svg" width="48" height="48" viewBox="0 -960 960 960"><path d="M723-303.869h84v-39q0-18.435-11.5-30.217-11.5-11.783-30.5-11.783t-30.5 11.783Q723-361.304 723-342.869v39ZM480-87.216 0-600q98.435-96.261 220.152-151.805Q341.87-807.348 480-807.348t259.848 55.543Q861.565-696.261 960-600L839.478-471.565q-17.459-6.726-36.176-10.015-18.719-3.289-38.302-3.289-91.25 0-155.125 63.875T546-265.869q0 23.957 4.413 46.435 4.413 22.479 14.109 42.609L480-87.215Zm199.739-18.653q-16.124 0-26.931-10.41Q642-126.689 642-142.643V-266.53q0-15.954 10.808-26.646 10.807-10.693 26.931-10.693H683v-39q0-33.26 24.124-57.63 24.124-24.37 58-24.37 33.876 0 57.876 24.37t24 57.63v39h3.826q15.559 0 26.366 10.693Q888-282.484 888-266.53v123.887q0 15.954-10.808 26.364-10.807 10.41-26.366 10.41H679.739Z"/></svg>