<svg xmlns="http://www.w3.org/2000/svg" width="48" height="48" viewBox="0 -960 960 960"><path d="M737.739-97.39v-111.521H626.218v-79.219h111.521v-111.521h79.218v111.521h111.522v79.219H816.957v111.52h-79.218ZM480-87.216 0-600q98.435-96.261 220.152-151.805Q341.87-807.348 480-807.348t259.848 55.543Q861.565-696.261 960-600L830.087-459.348q-14.957-13.34-28.978-25.869-14.022-12.53-28.979-25.87l74.999-78.956q-81.913-64.044-172.979-100.783-91.065-36.739-194.216-36.739-103.151 0-194.151 36.739-90.999 36.739-172.912 100.783L480-204.261l51.521-52.087q13.608 14.868 27.001 28.414 13.392 13.546 27 27.848L480-87.216Zm0-378.697Z"/></svg>