<svg xmlns="http://www.w3.org/2000/svg" width="48" height="48" viewBox="0 96 960 960"><path d="M684.306 506.521q-18.696 0-31.044-12.63-12.348-12.631-12.348-30.761 0-18.131 12.348-30.479 12.348-12.347 31.044-12.347 18.13 0 30.478 12.347 12.348 12.348 12.348 30.479 0 18.13-12.348 30.761-12.348 12.63-30.478 12.63Zm-92-94.869-42.522-43.522q27.13-26.565 61.478-42.196 34.348-15.63 73.044-15.63 38.695 0 72.761 15.63 34.065 15.631 61.195 42.196l-41.956 43.522q-19-19-42.5-29.565-23.5-10.566-49.5-10.566-26.566 0-49.783 10.566-23.217 10.565-42.217 29.565Zm-77-79-42.522-42.522q42.565-42.565 96.695-66.196 54.131-23.63 114.827-23.63 60.13 0 114.261 23.63 54.13 23.631 96.695 66.196l-41.956 42.522q-34-34-77.5-52.565-43.5-18.566-91.5-18.566t-91.283 19.066q-43.283 19.065-77.717 52.065Zm280.259 616.349q-124.826 0-247.87-61.131-123.043-61.13-221.304-159.109-98.261-97.978-159.392-221.304-61.13-123.327-61.13-247.587 0-24.653 16.957-41.61 16.956-16.956 41.609-16.956h140q23.609 0 39.196 13.174 15.587 13.174 20.848 37.652l27 116.957q3.696 21.348-.782 37.37-4.479 16.022-17.001 27.413L270.87 531.479q52.609 85.086 115.891 147.586 63.282 62.5 142.238 105.978l97.827-99.696q14.522-14.957 31.761-20.587 17.239-5.631 37.022-.935l107.13 24.869q24.044 5.827 37.718 22.349 13.674 16.522 13.674 41V889.87q0 25.217-16.957 42.174-16.956 16.957-41.609 16.957Z"/></svg>