<svg xmlns="http://www.w3.org/2000/svg" width="48" height="48" viewBox="0 -960 960 960"><path d="M413.608-23.043q0-28.391 20.451-48.717t50.289-22.587v-247.131q8.13 3.13 17.245 5.196 9.115 2.065 18.69 2.065 44.312 0 74.906-30.478 30.594-30.479 30.594-75.331 0-3.67-.283-7.018-.282-3.347-.282-7.043l123.478 29.304q17.157 3.812 31.274 14.754t23.248 26.638l91 164q15.565 29.124 11 61.171-4.566 32.046-27.5 55.8-28.609 29.203-69.077 29.203-40.467 0-69.163-29.261l-183.826-184.26v192.39q30.088 2.261 50.414 22.73 20.326 20.47 20.326 48.575H413.608Zm-299.26-101.305v-71.304h211.304v71.304H114.348Zm169.956-159.434-180-51q-31.26-8.566-51.174-34.729-19.913-26.164-19.913-59.269 0-40.866 28.475-69.435Q90.168-526.783 131-526.783h327.739q-20.696 14.565-32.609 37.11t-11.913 49.419q0 25.96 10.663 47.509 10.662 21.55 29.555 36.224l-100.478 64.173q-15.191 9.131-33.074 11.631-17.883 2.5-36.579-3.065Zm236.03-90.74q-27.638 0-46.725-19.083t-19.087-46.344q0-27.921 19.083-47.007 19.083-19.087 46.344-19.087 27.921 0 47.007 19.035 19.087 19.036 19.087 46.674 0 27.638-19.035 46.725-19.036 19.087-46.674 19.087Zm99.014-102.913q-11.565-30.391-38.043-49.37-26.479-18.978-61.029-18.978-13.198 0-24.874 2.565-11.676 2.566-22.185 7.696V-689q0-18.431 7.065-34.694 7.066-16.263 20.196-28.393l137-128q24.702-23.777 57.46-27.019 32.758-3.242 60.674 13.852 33.923 22.074 44.047 61.229 10.124 39.155-10.441 73.416l-169.87 281.174Zm-585-126.913v-71.304h211.304v71.304H34.348Zm120-160v-71.304h251.304v71.304H154.348Z"/></svg>