<svg xmlns="http://www.w3.org/2000/svg" width="48" height="48" viewBox="0 -960 960 960"><path d="M145.087-185.087V-648.13v463.043-20.337 20.337Zm0 79.218q-32.507 0-55.862-23.356-23.356-23.355-23.356-55.862V-648.13q0-32.74 23.356-56.262 23.355-23.521 55.862-23.521h161.912v-100q0-31.507 23.356-55.363 23.356-23.856 55.863-23.856h187.564q32.507 0 55.863 23.856t23.356 55.363v100h161.912q32.74 0 56.262 23.521 23.521 23.522 23.521 56.262v225q-17.294-16.175-37.212-29.088-19.919-12.912-42.571-21.478V-648.13H145.087v463.043h328.348q4 21.652 12.261 41.457 8.261 19.804 20.217 37.761H145.087Zm241.131-622.044h187.564v-100H386.218v100ZM720-47q-79 0-136-57t-57-136q0-79 57-136t136-57q79 0 136 57t57 136q0 79-57 136T720-47Zm19.826-196.349v-126.042h-48.217v140.297L794-134.478 825.522-166l-85.696-77.349Z"/></svg>