<svg xmlns="http://www.w3.org/2000/svg" width="48" height="48" viewBox="0 0 48 48"><path d="m21.65 45-9.8-9.85H1.15V31.2h12.3L21.3 39l-3.25-6.8h22.8q.85 0 1.425.575.575.575.575 1.425 0 .85-.575 1.4-.575.55-1.425.55H24.3l.8 1.7q.5 1.45.15 2.875T23.8 43.1ZM1.15 16.5v-3.95h10.4l2.25-2.3q.85-.8 1.925-1.25Q16.8 8.55 18 8.55h20.85q.85 0 1.425.575.575.575.575 1.425 0 .85-.575 1.4-.575.55-1.425.55H17.9q-.35 0-.625.125T16.7 13l-3.55 3.5Zm0 7.35Zm26.8 4.5V24.4h16.9q.85 0 1.425.575.575.575.575 1.425 0 .85-.575 1.4-.575.55-1.425.55Zm0-8.05v-3.95h14.9q.85 0 1.425.575.575.575.575 1.425 0 .8-.575 1.375t-1.425.575Z"/></svg>