<svg xmlns="http://www.w3.org/2000/svg" width="48" height="48" viewBox="0 -960 960 960"><path d="M194-217q56-54 128.396-86 72.397-32 157.5-32Q565-335 637.5-303 710-271 766-217v-549H194v549Zm286.5-213q47.5 0 80.5-33t33-80.5q0-47.5-33-80.5t-80.5-33q-47.5 0-80.5 33t-33 80.5q0 47.5 33 80.5t80.5 33ZM172-172v-616h616v616H172Zm37-22h543v-6q-60-57-129.076-85T480-313q-73 0-142 27.5T209-202v8Zm272-258q-38.5 0-65.25-26.75T389-543.5q0-38 26.75-64.75T480.5-635q38 0 64.75 26.958Q572-581.083 572-544q0 38.5-26.958 65.25Q518.083-452 481-452Zm-1-40Z"/></svg>