<svg xmlns="http://www.w3.org/2000/svg" width="48" height="48" viewBox="0 -960 960 960"><path d="M280-378h400v-22H280v22Zm0-102h128v-28h-80q29-37 67-62.5t85-25.5q56 0 100.5 32t64.5 84h30q-21-64-74.5-104T480-624q-52 0-96 27t-76 69v-80h-28v128Zm200.174 348Q408-132 344.942-159.391q-63.059-27.392-110.575-74.848-47.515-47.457-74.941-110.435Q132-407.652 132-479.826q0-72.174 27.391-135.732 27.392-63.559 74.848-110.574 47.457-47.016 110.435-74.442Q407.652-828 479.826-828q72.174 0 135.732 27.391 63.559 27.392 110.574 74.348 47.016 46.957 74.442 110.435Q828-552.348 828-480.174q0 72.174-27.391 135.232-27.392 63.059-74.348 110.575-46.957 47.515-110.435 74.941Q552.348-132 480.174-132Z"/></svg>