<svg xmlns="http://www.w3.org/2000/svg" width="48" height="48" viewBox="0 -960 960 960"><path d="M305-632h350v-22H305v22ZM172-172v-616h616v232q-17-27-47-44t-66-17q-57 0-102.5 35T512-491H305v22h205q-4 32 4.5 62.5T542-350q-13 5-25.5 10.5T492-328H305v22h146q-22 21-32.5 49T408-199v27H172Zm330 0v-29q0-17 8-30t23-19q33-15 68.5-22.5T675-280q37 0 72.5 7.5T818-250q14 6 22 19t8 30v29H502Zm122.5-227.5Q603-421 603-450.5t21.5-51q21.5-21.5 51-21.5t50.5 21.5q21 21.5 21 51t-21 51Q705-378 675.5-378t-51-21.5Z"/></svg>