<svg xmlns="http://www.w3.org/2000/svg" width="48" height="48" viewBox="0 -960 960 960"><path d="M426.5-478.69q7.5-7.7 7.5-17.5 0-9.81-7.69-17.31-7.7-7.5-17.5-7.5-9.81 0-17.31 7.69-7.5 7.7-7.5 17.5 0 9.81 7.69 17.31 7.7 7.5 17.5 7.5 9.81 0 17.31-7.69Zm-142 0q7.5-7.7 7.5-17.5 0-9.81-7.69-17.31-7.7-7.5-17.5-7.5-9.81 0-17.31 7.69-7.5 7.7-7.5 17.5 0 9.81 7.69 17.31 7.7 7.5 17.5 7.5 9.81 0 17.31-7.69ZM551.19-471q9.81 0 17.31-7.69 7.5-7.7 7.5-17.5 0-9.81-7.69-17.31-7.7-7.5-17.5-7.5-9.81 0-17.31 7.69-7.5 7.7-7.5 17.5 0 9.81 7.69 17.31 7.7 7.5 17.5 7.5Zm159.31-7.69q7.5-7.7 7.5-17.5 0-9.81-7.69-17.31-7.7-7.5-17.5-7.5-9.81 0-17.31 7.69-7.5 7.7-7.5 17.5 0 9.81 7.69 17.31 7.7 7.5 17.5 7.5 9.81 0 17.31-7.69ZM154-290h652v-412H154v412Zm326 102q-97 0-155.5-11T266-228v-40H132v-456h696v456H694v40q0 18-58.5 29T480-188ZM154-290v-412 412Z"/></svg>