<svg xmlns="http://www.w3.org/2000/svg" width="48" height="48" viewBox="0 -960 960 960"><path d="M172.94-172q-37.94 0-64.44-26.54T82-263q0-35.16 23-60.58T162-354v-252q-34-5-57-30.42T82-697q0-37.92 26.56-64.46Q135.12-788 173.06-788t64.44 26.54Q264-734.92 264-697q0 35.16-23 60.58T184-606v115h285v-115q-34-5-57-30.42T389-697q0-37.92 26.56-64.46Q442.12-788 480.06-788t64.44 26.54Q571-734.92 571-697q0 35.16-23 60.58T491-606v115h286v-115q-34-5-57-30.42T697-697q0-37.92 26.56-64.46Q750.12-788 788.06-788t64.44 26.54Q879-734.92 879-697q0 35.16-23 60.58T799-606v137H491v115q34 5 57 30.42T571-263q0 37.92-26.56 64.46Q517.88-172 479.94-172t-64.44-26.54Q389-225.08 389-263q0-35.16 23-60.58T469-354v-115H184v115q34 5 57 30.42T264-263q0 37.92-26.56 64.46Q210.88-172 172.94-172Z"/></svg>