<svg xmlns="http://www.w3.org/2000/svg" width="48" height="48" viewBox="0 -960 960 960"><path d="M252-172v-557h-41v-22h145v-25h243v25h144v22h-41v175q-5-1-12.143-1H676q-27 0-59.073 6.818Q584.855-541.364 561-529v-119h-22v131q-40 24-74 67t-49 87v-285h-22v372h12q1 24.898 7.5 52.949T429-172H252Zm424.24 84Q595-88 538-145.108q-57-57.108-57-138.132 0-81.855 57.444-138.807Q595.887-479 676.707-479q81.234 0 138.264 57.396Q872-364.208 872-282.774q0 81.019-57.26 137.896Q757.481-88 676.24-88ZM742-197l20-20-72-71.613V-397h-28v120l80 80Z"/></svg>