<svg xmlns="http://www.w3.org/2000/svg" width="48" height="48" viewBox="0 0 48 48"><path d="M29.75 10.1q-.45 0-.8-.35-.35-.35-.35-.8 0-.45.35-.8.35-.35.8-.35.45 0 .8.35.35.35.35.8 0 .45-.35.8-.35.35-.8.35Zm-.15 30.1q-.45 0-.8-.35-.35-.35-.35-.8 0-.45.35-.8.35-.35.8-.35.45 0 .8.35.35.35.35.8 0 .45-.35.8-.35.35-.8.35Zm8-23.7q-.45 0-.8-.35-.35-.35-.35-.8 0-.45.35-.8.35-.35.8-.35.45 0 .8.35.35.35.35.8 0 .45-.35.8-.35.35-.8.35Zm-.15 17.45q-.45 0-.8-.35-.35-.35-.35-.8 0-.45.35-.8.35-.35.8-.35.45 0 .8.35.35.35.35.8 0 .45-.35.8-.35.35-.8.35Zm2.65-8.8q-.45 0-.8-.35-.35-.35-.35-.8 0-.45.35-.8.35-.35.8-.35.45 0 .8.35.35.35.35.8 0 .45-.35.8-.35.35-.8.35ZM24 41.4q-3.6 0-6.775-1.375Q14.05 38.65 11.7 36.3q-2.35-2.35-3.725-5.525Q6.6 27.6 6.6 24q0-3.6 1.375-6.775Q9.35 14.05 11.7 11.7q2.35-2.35 5.525-3.725Q20.4 6.6 24 6.6v1.1q-6.8 0-11.55 4.725Q7.7 17.15 7.7 24q0 6.8 4.725 11.55Q17.15 40.3 24 40.3Zm0-14.85q-1.1 0-1.825-.725Q21.45 25.1 21.45 24q0-.4.075-.75t.275-.65l-3.75-3.8.75-.75 3.8 3.75q.3-.15 1.4-.35 1.1 0 1.825.725.725.725.725 1.825t-.725 1.825q-.725.725-1.825.725Z"/></svg>