<svg xmlns="http://www.w3.org/2000/svg" width="48" height="48" viewBox="0 -960 960 960"><path d="M480.17-132q-72.17 0-135.73-27.39-63.56-27.39-110.57-74.35-47.02-46.96-74.44-110.43Q132-407.65 132-479.83q0-72.17 27.39-135.73 27.39-63.56 74.35-110.57 46.96-47.02 110.43-74.44Q407.65-828 479.83-828q72.17 0 135.73 27.39 63.56 27.39 110.57 74.35 47.02 46.96 74.44 110.43Q828-552.35 828-480.17q0 72.17-27.39 135.73-27.39 63.56-74.35 110.57-46.96 47.02-110.43 74.44Q552.35-132 480.17-132ZM703-242q4-4 7.5-7.36 3.5-3.37 7.5-7.64L257-718q-4.27 4-7.64 7.5Q246-707 242-703l461 461Z"/></svg>