<svg xmlns="http://www.w3.org/2000/svg" width="48" height="48" viewBox="0 96 960 960"><path d="M230.735 722q16.598 0 27.432-11.485Q269 699.029 269 683.265q0-16.598-11-27.432Q247 645 230.5 645T203 656q-11 11-11 27.5t11.485 27.5q11.486 11 27.25 11Zm377.677 0q16.274 0 27.431-11.485Q647 699.029 647 683.265q0-16.598-11.323-27.432Q624.353 645 608.176 645 592 645 581 656t-11 27.5q0 16.5 11.485 27.5 11.486 11 26.927 11ZM733 530V366L633 466l-18-18 112-112-112-112 18-18 100 100V142h8l108 108-86 86 86 86-108 108h-8Zm26-228 52-52-52-52v104Zm0 172 52-52-52-52v104ZM111 884V584l83-236h385v22H210l-67 194h436v22h148v298h-16v-81H127v81h-16Z"/></svg>