<svg xmlns="http://www.w3.org/2000/svg" width="48" height="48" viewBox="0 -960 960 960"><path d="M296-336v-288h83l37-37h129l37 37h83v288H296Zm22-22h325v-244H318v244Zm162-78q19 0 31.5-12.5t12.5-31q0-18.5-12.5-31.5T480-524q-18 0-31 13t-13 31.5q0 18.5 13 31t31 12.5Zm-58-470q14-2 28.5-2H478q83 0 157.5 29.5T768-797q58 52 95 123t45 153h-22q-7-78-42.5-145.5T752-783q-56-49-127.5-76.5T474-887l86 86-16 16-122-121ZM538-54q-14 2-28 2h-28q-83 0-157.5-29.5T192-163q-58-52-95-123T52-439h22q8 78 43.5 145.5t91 116.5q55.5 49 127 76.5T487-73l-87-86 16-16L538-54Zm-57-426Z"/></svg>