<svg xmlns="http://www.w3.org/2000/svg" width="48" height="48" viewBox="0 -960 960 960"><path d="M340-685q-39.167 0-66.583-27.237Q246-739.473 246-779.382q0-39.91 27.417-67.264Q300.833-874 340-874q36 0 62.5 24.5T436-790h278v22h-40v83h-22v-83H436q-7 36-33.43 59.5T340-685Zm.053-22q29.997 0 51.472-21.518Q413-750.035 413-780.018 413-810 391.482-831q-21.517-21-51.5-21Q310-852 289-830.76t-21 50.813q0 29.997 21.24 51.472T340.053-707Zm-10.378 416q10.325 0 17.825-7.693t7.5-17.5q0-9.807-7.688-17.307-7.688-7.5-17.487-7.5Q319-341 312-333.307t-7 17.5q0 9.807 7.175 17.307 7.176 7.5 17.5 7.5Zm301 0q10.325 0 17.825-7.693t7.5-17.5q0-9.807-7.688-17.307-7.688-7.5-17.487-7.5Q620-341 613-333.307t-7 17.5q0 9.807 7.175 17.307 7.176 7.5 17.5 7.5ZM252-150v-236l62.652-180H645l63 180v236h-22v-82H274v82h-22Zm27-249h402l-50-145H329l-50 145Z"/></svg>