<svg xmlns="http://www.w3.org/2000/svg" width="48" height="48" viewBox="0 -960 960 960"><path d="M469-144v-120H186v-22h588v22H491v120h-22ZM347.28-480.69q7.72-7.7 7.72-17.5 0-9.81-7.89-17.31-7.9-7.5-18-7.5-10.11 0-17.11 7.69-7 7.7-7 17.5 0 9.81 7.18 17.31 7.17 7.5 17.28 7.5 10.1 0 17.82-7.69Zm301 0q7.72-7.7 7.72-17.5 0-9.81-7.89-17.31-7.9-7.5-18-7.5-10.11 0-17.11 7.69-7 7.7-7 17.5 0 9.81 7.18 17.31 7.17 7.5 17.28 7.5 10.1 0 17.82-7.69ZM252-568l63-180h330l63 180v236h-22v-82H274v82h-22v-236Zm27-13h402l-50-145H329l-50 145Z"/></svg>