<svg xmlns="http://www.w3.org/2000/svg" width="48" height="48" viewBox="0 -960 960 960"><path d="M414.5-279Q383-301 368-336h236q-15 35-46.5 57T486-257q-40 0-71.5-22Zm-35-163q-7.5-7-7.5-16t7.5-16q7.5-7 16.5-7t16 7q7 7 7 16t-7 16q-7 7-16 7t-16.5-7Zm180.5 0q-7-7-7-16t7-16q7-7 16-7t16 7q7 7 7 16t-7 16q-7 7-16 7t-16-7Zm-74 310q-63 0-117.5-23.5T273-220q-41-41-64.5-95.5T185-433q0-29 5.5-57.5T206-544l20 4q-10 25-15 51.5t-5 54.5q0 117 81.5 198.5T486-154q117 0 198.5-81.5T766-434q0-22-3-42.5t-9-40.5q-75-5-138-39t-107-90l20-10q40 48 95.5 79T746-539q-21-52-59-91.5T598-692l23-11q75 37 121 109t46 161q0 63-23.5 117.5T700-220q-41 41-96 64.5T486-132ZM221-557l390-150q-35-45-85.5-68T419-798q-90 0-146.5 73T221-557Zm-21 32q-2-10-1.5-19t.5-19q0-80 38.5-146T341-804q-1-2-1.5-5t-.5-5q0-10 6.5-16.5T362-837q9 0 15.5 5.5T386-817q7-1 15.5-2t17.5-1q63 0 119 28t95 78l153-58 8 20-594 227Zm216-106Z"/></svg>