<svg xmlns="http://www.w3.org/2000/svg" width="48" height="48" viewBox="0 -960 960 960"><path d="M106-106v-279l162-71v-134l201-102v-108h-80v-22h80v-80h22v80h80v22h-80v108l202 102v134l161 71v279H549v-207H411v207H106Zm22-22h261v-207h182v207h261v-242l-161-71.65V-575l-191-97-190 97v133.35L128-370v242Zm352.118-314Q496-442 507.5-453.118q11.5-11.117 11.5-27Q519-496 507.206-507.5 495.412-519 479.529-519q-15.882 0-26.705 11.794Q442-495.412 442-479.529q0 15.882 11.118 26.705 11.117 10.824 27 10.824ZM480-401Z"/></svg>