<svg xmlns="http://www.w3.org/2000/svg" width="48" height="48" viewBox="0 -960 960 960"><path d="M154-194q-34-34-34-83t34-83q34-34 83-34t83 34q34 34 34 83t-34 83q-34 34-83 34t-83-34Zm486.5 0Q606-228 606-277t34.5-83q34.5-34 83-34t82.5 34q34 34 34 83t-34 83q-34 34-82.5 34t-83-34ZM442-400.5Q426-416 426-439t16-38.5q16-15.5 38.5-15.5t38.5 15.5q16 15.5 16 38.5t-16 38.5Q503-385 480.5-385T442-400.5ZM397.5-640Q363-674 363-723t34.5-83q34.5-34 83-34t82.5 34q34 34 34 83t-34 83q-34 34-82.5 34t-83-34Z"/></svg>