<svg xmlns="http://www.w3.org/2000/svg" width="48" height="48" viewBox="0 96 960 960"><path d="M196 862v-22h134q-81-69-112.5-128.5T186 581q0-90 50-166.5T370 304v23q-72 32-117 101.5T208 581q0 66 29 121.5T347 825V689h22v173H196Zm404 8q-38 0-66-28t-28-66q0-38 25.5-65t69.5-29q14-36 44.5-58t74.5-22q48 0 83.5 32t40.5 88h17q31 0 52 21.5t21 51.5q0 31-21.5 53T860 870H600Zm148-348q-12-50-38.5-91.5T614 328v135h-22V290h173v22H630q72 63 101 112.5t39 97.5h-22ZM600 848h260q21 0 36.5-15.5T912 796q0-21-15.5-36.5T860 744h-38v-18q0-42-30-72t-72-30q-42 0-70.5 24.5T619 707v-3h-19q-30 0-51 21t-21 51q0 30 21 51t51 21Zm120-112Z"/></svg>