<svg xmlns="http://www.w3.org/2000/svg" width="48" height="48" viewBox="0 -960 960 960"><path d="M172-172v-616h256q2-20 16.5-34t35.5-14q21.5 0 35.75 14T532-788h256v273h-22v-251H640v71H320v-71H194v572h241v22H172Zm308.18-582q12.82 0 21.32-8.68 8.5-8.67 8.5-21.5 0-12.82-8.68-21.32-8.67-8.5-21.5-8.5-12.82 0-21.32 8.68-8.5 8.67-8.5 21.5 0 12.82 8.68 21.32 8.67 8.5 21.5 8.5ZM812-132 706-238q-18 13-37.78 19.5Q648.43-212 627-212q-49.75 0-85.37-35.68Q506-283.35 506-333.18q0-49.82 35.68-85.32 35.67-35.5 85.5-35.5 49.82 0 85.32 35.62Q748-382.75 748-333q0 21-5.5 42T721-254l107 106-16 16ZM626.59-234Q668-234 697-262.59t29-70Q726-374 697.41-403t-70-29Q586-432 557-403.41t-29 70Q528-292 556.59-263t70 29Z"/></svg>