<svg xmlns="http://www.w3.org/2000/svg" width="48" height="48"><path d="M2.6 38.4V9.6h42.8v28.8zm1.1-1.1h3.2q2.1-2.4 4.8-3.825 2.7-1.425 5.85-1.425 3.1 0 5.8 1.425 2.7 1.425 4.85 3.825h16.1V10.7H3.7zm13.85-8.85q1.95 0 3.3-1.35 1.35-1.35 1.35-3.3 0-2-1.35-3.35t-3.3-1.35q-2 0-3.35 1.35t-1.35 3.35q0 1.95 1.35 3.3 1.35 1.35 3.35 1.35zm11-6h12.8v-8.8h-12.8zm6.4-1.9L30 16.9v-1.7l4.95 3.5 4.95-3.5v1.7zM8.55 37.3h18q-1.8-2-4.125-3.075Q20.1 33.15 17.55 33.15q-2.6 0-4.925 1.05-2.325 1.05-4.075 3.1zm9-9.95q-1.5 0-2.55-1.05-1.05-1.05-1.05-2.55 0-1.45 1.05-2.5t2.55-1.05q1.45 0 2.5 1.05t1.05 2.5q0 1.5-1.05 2.55-1.05 1.05-2.5 1.05zM24 24z"/></svg>