<svg xmlns="http://www.w3.org/2000/svg" width="48" height="48" viewBox="0 -960 960 960"><path d="M571-511h256v-176H571v176Zm128-40-99-71v-34l99 71 99-71v34l-99 71ZM52-192v-576h856v576H52Zm513-22h321v-532H74v532h63q43-46 96.98-75.5Q287.96-319 351-319q62 0 116.5 29.5T565-214ZM417.5-415.5Q445-443 445-482t-27.5-66.5Q390-576 350.5-576T284-548.5Q257-521 257-482t27 66.5q27 27.5 66.5 27.5t67-27.5ZM170-214h361q-35-39-81.81-61t-98.5-22q-51.69 0-98.74 21.92Q204.9-253.15 170-214Zm130-216.96q-21-20.97-21-51Q279-512 299.96-533q20.97-21 51-21Q381-554 402-533.04q21 20.97 21 51Q423-452 402.04-431q-20.97 21-51 21Q321-410 300-430.96ZM480-480Z"/></svg>