<svg xmlns="http://www.w3.org/2000/svg" width="48" height="48" viewBox="0 0 48 48"><path d="M42.85 44.4 4.5 6.1l.8-.8 38.3 38.3Zm-20.8-7.75q-2.8 0-4.7-1.9-1.9-1.9-1.9-4.7 0-2.8 1.9-4.7 1.9-1.9 4.7-1.9h1.4l1.1 1.1h-2.5q-2.3 0-3.9 1.6t-1.6 3.9q0 2.3 1.6 3.9t3.9 1.6h13.5l4.65 4.65q-.5.25-1.025.375-.525.125-1.075.125-1.8 0-3.125-1.15t-1.475-2.9Zm20.45.65-5.65-5.6q.3-.1.6-.15.3-.05.65-.05 1.9 0 3.25 1.325T42.7 36.1q0 .3-.05.625t-.15.575ZM29.05 23.85l-.9-.9q1.5-.55 2.425-1.925.925-1.375.925-3.075 0-2.3-1.6-3.9t-3.9-1.6h-8.35l-.9-1.1H26q2.8 0 4.7 1.9 1.9 1.9 1.9 4.7 0 1.95-.975 3.525T29.05 23.85ZM9.9 16.5q-1.9 0-3.25-1.325T5.3 11.9q0-1.35.7-2.425Q6.7 8.4 7.8 7.8l6.25 6.25q-.6 1.1-1.725 1.775Q11.2 16.5 9.9 16.5Z"/></svg>