<svg xmlns="http://www.w3.org/2000/svg" width="48" height="48" viewBox="0 96 960 960"><path d="m694 909-16-15 92-93H479v-22h291l-92-93 16-15 119 119-119 119ZM197 607v-46h46v46h-46Zm212.889 0Q368 607 338.5 577.421 309 547.843 309 506V346q0-41.843 29.611-71.421Q368.222 245 410.111 245 452 245 481.5 274.579 511 304.157 511 346v160q0 41.843-29.611 71.421Q451.778 607 409.889 607Zm302 0Q670 607 640.5 577.421 611 547.843 611 506V346q0-41.843 29.611-71.421Q670.222 245 712.111 245 754 245 783.5 274.579 813 304.157 813 346v160q0 41.843-29.611 71.421Q753.778 607 711.889 607Zm-302.124-22q33.652 0 56.443-22.625Q489 539.75 489 506V346q0-33.75-22.556-56.375Q443.887 267 410.235 267t-56.443 22.625Q331 312.25 331 346v160q0 33.75 22.556 56.375Q376.113 585 409.765 585Zm302 0q33.652 0 56.443-22.625Q791 539.75 791 506V346q0-33.75-22.556-56.375Q745.887 267 712.235 267t-56.443 22.625Q633 312.25 633 346v160q0 33.75 22.556 56.375Q678.113 585 711.765 585Z"/></svg>