<svg xmlns="http://www.w3.org/2000/svg" width="48" height="48" viewBox="0 -960 960 960"><path d="M172-172v-616h616v301q-6-1-11.5-2t-10.5-3v-274H194v572h274q1 6 1.5 11.5T472-172H172Zm22-64v42-572 274-3 259Zm112-82h171q3-5 5.5-10.5T488-340H306v22Zm0-151h299q10-2 15.5-4t11.5-6v-12H306v22Zm0-151h348v-22H306v22ZM724.48-86q-60.52 0-102.5-42.69Q580-171.37 580-230.19 580-291 621.98-333t102.5-42Q784-375 826-333q42 42 42 102.81 0 58.82-42 101.5Q784-86 724.48-86ZM768-249.06q18-18.06 18-44T767.96-337q-18.04-18-43.96-18-26 0-44 18.26-18 18.27-18 43.5Q662-267 679.76-249q17.77 18 44 18Q750-231 768-249.06Zm13 127.56q27-14.5 45-39.5-24-13-49.5-20t-52.5-7q-27 0-52.5 7T622-161q17 25 44 39.5t57.5 14.5q30.5 0 57.5-14.5Z"/></svg>