<svg xmlns="http://www.w3.org/2000/svg" width="48" height="48" viewBox="0 -960 960 960"><path d="M724-86q-60 0-102-42.5T580-230q0-61 42-103t102-42q60 0 102 42t42 103q0 59-42 101.5T724-86ZM306-620h348v-22H306v22Zm166 448H172v-616h616v301q-16-3-32-5.5t-32-2.5q-24 0-47 4.5T632-479v-12H306v22h299q-40 22-69.5 55T488-340H306v22h171q-5 20-8 40.5t-3 41.5q0 12 1 32t5 32Zm296-77q18-18 18-44t-18-44q-18-18-44-18t-44 18.5Q662-318 662-293q0 26 18 44t44 18q26 0 44-18Zm13 127.5q27-14.5 45-39.5-25-13-50.5-19.5T724-187q-26 0-51.5 6.5T622-161q17 25 44.5 39.5T724-107q30 0 57-14.5Z"/></svg>