<svg xmlns="http://www.w3.org/2000/svg" width="48" height="48" viewBox="0 -960 960 960"><path d="m656-168-130-76v-151l130-76 132 76v151l-132 76Zm-88-224 89 52 89-52-89-51-89 51Zm102 188 93-53v-114l-93 57v110Zm-119-53 94 54v-110l-94-56v112ZM325-543.5q-30-29.5-30-75t30-75.5q30-30 75-30t75 30q30 30 30 75.5t-30 75Q445-514 400-514t-75-29.5ZM132-233v-47q0-26 13-43t38-29q55-25 102-38t115-13h7.5q3.5 0 7.5-1-2 7-3 12t-2 11h-10q-63 0-110 10.5T194-333q-24 12-32 24.5t-8 28.5v25h257q1 5 3 11t4 11H132Zm327-326.5q24-23.5 24-59T459-678q-24-24-59-24t-59 24q-24 24-24 59.5t24 59q24 23.5 59 23.5t59-23.5ZM400-619Zm11 364Z"/></svg>