<svg xmlns="http://www.w3.org/2000/svg" width="48" height="48" viewBox="0 -960 960 960"><path d="M252-92v-776h459v310H560l-13 127q-30 30-46.5 69.59-16.5 39.6-16.5 83.5Q484-235 501-193t47 72l3 29H252Zm230.07-612q9.93 0 17.43-7.07t7.5-18q0-10.93-7.57-17.93t-17.5-7Q471-754 464-746.93t-7 18q0 10.93 7.07 17.93t18 7ZM645-92l-8-80q-27-17-43-45.5T578-278q0-32 16-60.5t43-45.5l8-80h116l8 80q27 17 43 45.5t16 60.5q0 32-16 60.5T769-172l-8 80H645Zm58-83q43 0 73-30t30-73q0-43-30-73t-73-30q-43 0-73 30t-30 73q0 43 30 73t73 30Z"/></svg>