<svg xmlns="http://www.w3.org/2000/svg" width="48" height="48" viewBox="0 -960 960 960"><path d="M611-613v-151h26v151h-26Zm-131 0v-25h72v-38h-72v-88h98v26h-72v36h72v89h-98Zm191 0v-151h99v88h-73v63h-26Zm26-89h47v-36h-47v36Zm47 524q-95 1-196-52T363.5-365.5Q280-448 227-549t-53-196q0-10 1-21.5t1.814-21.5H329l34 147-107 98q60 100 131 170t168 123l102-109 129 28v150.094Q777-180 765.156-179q-11.844 1-21.156 1ZM244-562l94-85-27-119H196q-5 48 10.5 101T244-562Zm331 321q36 19 92 32t97 9v-114l-99-20-90 93ZM244-562Zm331 321Z"/></svg>