<svg xmlns="http://www.w3.org/2000/svg" width="48" height="48" viewBox="0 -960 960 960"><path d="M480-112q-25 0-42.5-17.5T420-172h120q0 25-17.5 42.5T480-112ZM212-212v-22h60v-335q0-77 49-136t125-71v-52h68v52q19 3 35.5 9.5T582-752l-16 17q-20-10-41.5-15t-44.5-5q-77 0-131.5 54.5T294-569v335h372v-181l22-22v203h60v22H212Zm82-22v-335q0-77 54.5-131.5T480-755q23 0 44.5 5t41.5 15L398-570v212h211l57-57v181H294Zm198-218v-78l231-230 77 78-230 230h-78Zm268-230-37-38 37 38ZM520-480h38l144-144-19-19-18-20-145 145v38Zm163-163-18-20 37 39-19-19Z"/></svg>