<svg xmlns="http://www.w3.org/2000/svg" width="48" height="48" viewBox="0 0 48 48"><path d="M24 41.4q-3.6 0-6.775-1.375Q14.05 38.65 11.7 36.3q-2.35-2.35-3.725-5.525Q6.6 27.6 6.6 24V10.2l10.1 7.6q1.75-2.7 3.6-5.175Q22.15 10.15 24 7.95q1.65 1.95 3.5 4.425 1.85 2.475 3.75 5.425l10.15-7.6V24q0 3.6-1.375 6.775Q38.65 33.95 36.3 36.3q-2.35 2.35-5.525 3.725Q27.6 41.4 24 41.4Zm0-1.1q6.8 0 11.55-4.725Q40.3 30.85 40.3 24V12.4l-9.4 7.05q-2.15-3.5-3.575-5.6Q25.9 11.75 24 9.55 22.1 11.8 20.6 14t-3.5 5.45L7.7 12.4V24q0 6.85 4.725 11.575T24 40.3Zm0-15.4Z"/></svg>