<svg xmlns="http://www.w3.org/2000/svg" width="48" height="48" viewBox="0 -960 960 960"><path d="M390-158q-23 0-38.5-15.5T336-212v-14h288v14q0 23-15.5 38.5T570-158H390Zm-54-105v-206h288v206H336Zm0-243q9-35 39.5-65.5T460-612v-11q-17-4-30.5-15.5T410-662l-99-29q-3 0-4-2t-1-7q0-4 1-6.5t4-3.5l98-28q10-19 29-30.5t42-11.5q15 0 28 4.5t24 14.5l57-17q13-4 24 4.5t11 21.5v100q0 14-12 22t-25 2l-48-18q-8 8-17.5 13.5T500-622v10q49 8 82.5 39.5T624-506H336Zm144-148q18 0 32-14t14-32q0-20-14-33t-32-13q-19 0-32.5 13.5T434-700q0 19 13.5 32.5T480-654Z"/></svg>