<svg xmlns="http://www.w3.org/2000/svg" width="48" height="48" viewBox="0 96 960 960"><path d="M720 834q-8.5 0-13.25-4.75T702 816q0-8.5 4.75-13.75T720 797q8.5 0 13.75 5.25T739 816q0 8.5-5.25 13.25T720 834ZM280 956q-8.5 0-13.25-5.25T262 937.5q0-8 4.75-13.25T280 919q8.5 0 13.75 5.25T299 937.5q0 8-5.25 13.25T280 956Zm-40-128q-4.95 0-8.475-3.535-3.525-3.535-3.525-8.29 0-4.754 3.525-8.964Q235.05 803 240 803h360q4.65 0 8.825 4.246 4.175 4.245 4.175 9 0 4.754-4.175 8.254T600 828H240Zm160 122q-4.95 0-8.475-3.535-3.525-3.535-3.525-9t3.525-8.965Q395.05 925 400 925h280q4.65 0 8.825 3.535 4.175 3.535 4.175 9t-4.175 8.965Q684.65 950 680 950H400ZM297 704q-78.864 0-134.932-56.02Q106 591.96 106 513.165 106 438 157.5 383.5 209 329 289 322q29.091-56.066 78.545-88.033Q417 202 479.615 202 565 202 624 259q59 57 68 142 79 3 120.5 48T854 553.329Q854 616 809.958 660 765.917 704 703 704H297Zm0-22h406q53.26 0 91.13-38T832 553q0-53-37.87-91T703 424h-34v-11q0-77.725-55.683-133.362Q557.635 224 480.059 224q-57.061 0-103.944 30.833Q329.232 285.667 306 338l-2.143 6h-9.028q-68.568 2.371-117.699 51.219Q128 444.067 128 512.816q0 69.955 49.493 119.57Q226.986 682 297 682Zm183-229Z"/></svg>