<svg xmlns="http://www.w3.org/2000/svg" width="48" height="48" viewBox="0 96 960 960"><path d="M561 760h112q16.75 0 28.875-12.125T714 719V509h30v-25h-93v-18h-68v18h-93v25h30v210q0 16.75 12.125 28.875T561 760Zm0-25q-7 0-11.5-4.5T545 719V509h144v210q0 7-4.5 11.5T673 735H561ZM186 844q-22.775 0-38.387-15.5Q132 813 132 790V402q0-23 15.613-38.5Q163.225 348 186 348h260l34 34h294q23 0 38.5 15.5T828 436v354q0 23-15.5 38.5T774 844H186Zm0-22h588q14 0 23-9t9-23V436q0-14-9-23t-23-9H471l-34-34H186q-13 0-22.5 9t-9.5 23v388q0 14 9.5 23t22.5 9Zm-32 0V370v452Z"/></svg>