<svg xmlns="http://www.w3.org/2000/svg" width="48" height="48"><path d="m14 34.2 4.9-8.5q-.55.25-1.25.375t-1.35.125q-2.65 0-4.425-1.825T10.1 20q0-2.65 1.775-4.425T16.3 13.8q2.55 0 4.375 1.775Q22.5 17.35 22.5 20q0 .9-.225 1.7-.225.8-.625 1.5l-6.35 11zm17.4 0 4.9-8.5q-.55.25-1.25.375t-1.35.125q-2.65 0-4.425-1.825T27.5 20q0-2.7 1.775-4.45T33.7 13.8q2.55 0 4.375 1.775Q39.9 17.35 39.9 20q0 .9-.225 1.7-.225.8-.625 1.5l-6.35 11zm-15.1-9.1q2.1 0 3.6-1.475T21.4 20q0-2.1-1.475-3.6T16.3 14.9q-2.1 0-3.6 1.475T11.2 20q0 2.1 1.475 3.6t3.625 1.5zm17.4 0q2.1 0 3.6-1.475T38.8 20q0-2.1-1.475-3.6T33.7 14.9q-2.1 0-3.6 1.475T28.6 20q0 2.1 1.475 3.6t3.625 1.5z"/></svg>