<svg xmlns="http://www.w3.org/2000/svg" width="48" height="48" viewBox="0 -960 960 960"><path d="M711-433.07q95-50.08 95-122.5Q806-628 711.1-679q-94.91-51-231-51Q344-730 249-679.22t-95 123.5Q154-483 248.9-433q94.91 50 231 50Q616-383 711-433.07ZM640-385v173H319v-173q-84-25-135.5-69.59-51.5-44.6-51.5-101.33Q132-636 233.5-692.5 335-749 480-749t246.5 56.5Q828-636 828-555.92q0 56.73-51.5 101.83Q725-409 640-385ZM480-556Zm-60 107h25v-86h41l49 86h27l-54-95.82q20-8.18 30.5-20.68T549-598q0-29-18.5-44T472-657h-52v208Zm25-111v-72h27q27 0 39 8.5t12 26.52q0 18.96-11.5 27.97Q500-560 473-560h-28Z"/></svg>