<svg xmlns="http://www.w3.org/2000/svg" width="48" height="48" viewBox="0 -960 960 960"><path d="M132-132v-696h696v696H132Zm22-22h652v-652H154v652Zm176.193-256q9.807 0 17.307-7.693 7.5-7.693 7.5-17.5t-7.693-17.307q-7.693-7.5-17.5-7.5t-17.307 7.693q-7.5 7.693-7.5 17.5t7.693 17.307q7.693 7.5 17.5 7.5Zm301 0q9.807 0 17.307-7.693 7.5-7.693 7.5-17.5t-7.693-17.307q-7.693-7.5-17.5-7.5t-17.307 7.693q-7.5 7.693-7.5 17.5t7.693 17.307q7.693 7.5 17.5 7.5ZM252-269h22v-82h412v82h22v-236l-62.652-180H315l-63 180v236Zm28-249 49-145h302l50 145H280Zm-6 145v-123h412v123H274ZM154-154v-652 652Z"/></svg>