<svg xmlns="http://www.w3.org/2000/svg" width="48" height="48" viewBox="0 -960 960 960"><path d="M432-428q-12.562 0-19.781-9Q405-446 407-458l8-51q4-24 23-39.5t42.23-15.5Q504-564 523-548.5q19 15.5 23 39.5l8 51q2 12-5.219 21T529-428h-97Zm-4-22h105l-8.8-55.667Q521-522 508.96-532t-28.5-10q-16.46 0-28.351 10.21Q440.217-521.581 437-506l-9 56Zm-264.881 56.097Q149-394 138.795-399.641q-10.206-5.642-12.995-18.539-1.8-5.82-.3-10.82t3.5-10.333q0 .666-1-2.667-2-1-5.8-14.059Q121-463 123.556-469.1q2.555-6.1 7.444-11.176 1 0 1-1.069 1.31-10.477 9.432-18.066Q149.553-507 162.478-507 161-507 173-506h2q2-2.5 6.967-4.25 4.966-1.75 8.866-1.75 7.238 0 12.203 2 4.964 2 8.073 6.375.622 0 .933.313.311.312.933.312 7.955.875 14.356 4.991 6.4 4.116 9.669 12.342v8.12q0 3.316-1 6.547 0 1 1 3 4.067 4.151 6.033 8.755Q245-454.642 245-448.533q0-.467-3 11.533v3q2 4 1 9 0 12.235-10.801 21.666-10.8 9.431-24.373 9.431h-44.707ZM777.274-391Q758-391 744-405.005q-14-14.006-14-33.365 0-7.039 2.654-13.27T738-464l-16.684-14.152Q715-483 719.098-489.5q4.098-6.5 10.198-6.5h47.667q19.663 0 33.35 13.687Q824-468.627 824-449.408v11.649Q824-419 810.274-405q-13.725 14-33 14ZM52-262v-23q0-33.639 36.555-56.32Q125.11-364 184.427-364q10.129 0 20.351 1T223-360.273q-5 12.273-8 26.452-3 14.179-3 29.12V-262H52Zm240 0v-39q0-45 52.168-71t136.108-26Q565-398 616.5-372q51.5 26 51.5 71v39H292Zm485-102q59.8 0 95.4 22.68Q908-318.639 908-285v23H748v-42.701q0-14.941-2.5-29.12t-8.5-26.361Q746-362 756.186-363q10.185-1 20.814-1Zm-297.183-12Q402-376 356-354.5T313-297v13h334v-13q3-36-42.5-57.5T479.817-376Zm.183 92Zm1-212Z"/></svg>