<svg xmlns="http://www.w3.org/2000/svg" width="48" height="48" viewBox="0 96 960 960"><path d="M270 934 122 785l568-568 149 148-569 569Zm422 0L499 741l147-147 193 193-147 147ZM481.175 663q12.4 0 21.113-8.675 8.712-8.676 8.712-21.5 0-12.4-8.888-20.612Q493.224 604 480.825 604q-12.4 0-20.613 8.388Q452 620.776 452 633.175q0 12.825 8.388 21.325t20.787 8.5Zm-58-58q12.825 0 21.325-8.675 8.5-8.676 8.5-21.5 0-12.825-8.675-21.325-8.676-8.5-21.5-8.5-12.825 0-21.325 8.675-8.5 8.676-8.5 21.5 0 12.825 8.675 21.325 8.676 8.5 21.5 8.5Zm116 0q12.4 0 21.112-8.675 8.713-8.676 8.713-21.5 0-12.825-8.675-21.325-8.676-8.5-21.5-8.5-12.4 0-20.612 8.675-8.213 8.676-8.213 21.5 0 12.825 8.388 21.325t20.787 8.5ZM316 556 124 363l146-146 193 192-147 147Zm165.175-9q12.4 0 21.113-8.675 8.712-8.676 8.712-21.5 0-12.825-8.675-21.325-8.676-8.5-21.5-8.5-12.4 0-20.613 8.675-8.212 8.676-8.212 21.5 0 12.825 8.388 21.325t20.787 8.5Z"/></svg>