<svg xmlns="http://www.w3.org/2000/svg" width="48" height="48" viewBox="0 -960 960 960"><path d="M336.5-336.5Q278-395 278-480t58.5-144Q395-683 480-683t144 59q59 59 59 144t-59 143.5Q565-278 480-278t-143.5-58.5ZM469-299v-155L360-346q23 21 50.5 33t58.5 14Zm22 0q30-3 57.5-14.5T600-345L491-453v154Zm124-61q21-24 32.5-51.5T661-469H507l108 109ZM507-491h154q-2-30-13.5-58T615-600L507-491Zm-16-15 109-108q-24-21-51-33t-58-14v155Zm3.5 40.5Q500-471 500-480t-5.5-14.5Q489-500 480-500t-14.5 5.5Q460-489 460-480t5.5 14.5Q471-460 480-460t14.5-5.5ZM469-507v-154q-30 2-58 13.5T360-615l109 108Zm-170 16h154L345-600q-21 24-32.5 51.5T299-491Zm46 131 108-109H298q3 30 15 57.5t32 51.5ZM172-172v-616h616v616H172Zm22-22h572v-572H194v572Zm0 0v-572 572Z"/></svg>