<svg xmlns="http://www.w3.org/2000/svg" width="48" height="48" viewBox="0 -960 960 960"><path d="m120-550 162-279 162 279H120Zm67.5 366Q148-223 148-279.57 148-337 187.5-376q39.5-39 96-39t95.5 39q39 39 39 96t-39 96q-39 39-95.5 39t-96-39ZM363-200q33-33 33-80t-33-80q-33-33-80-33t-80 33q-33 33-33 80t33 80q33 33 80 33t80-33ZM159-572h247L282-785 159-572Zm388 427v-270h270v270H547Zm22-22h226v-226H569v226Zm113-383q-31-24-59.5-47T572-643.5Q550-667 537-691t-13-50q0-33 21-54t54-21q21.99 0 42.49 11.5Q662-793 682-769q20-24 41-35.5t43-11.5q31.62 0 52.81 22.6T840-738q0 25-13 48.5T792-643q-22 23-50.5 46T682-550Zm0-28q73-55 104.5-92.5T818-739q0-23.69-15.11-39.34Q787.79-794 765-794q-13.9 0-27.93 9.12Q723.03-775.76 697-751l-15 15-15-15q-25.67-26.36-39.83-34.68Q613-794 599-794q-23.79 0-38.39 14.16Q546-765.69 546-741q0 33 31.5 70.5T682-578Zm0-108Zm-399 7Zm0 399Zm399 0Z"/></svg>