<svg xmlns="http://www.w3.org/2000/svg" width="48" height="48" viewBox="0 -960 960 960"><path d="M132-132v-318l433-168H132v-210h695v356L467-341h360v209H132Zm22-22h651v-165H154v165Zm651-486v-166H154v166h651ZM155-341h248l402-147v-130H626L155-436v95Zm110-365.79q-7-6.79-7-16t6.79-16.21q6.79-7 16-7t16.21 6.79q7 6.79 7 16T297.21-707q-6.79 7-16 7T265-706.79Zm2 486q-7-6.79-7-16t6.79-16.21q6.79-7 16-7t16.21 6.79q7 6.79 7 16T299.21-221q-6.79 7-16 7T267-220.79Zm37.5-177.52q-6.5-6.32-6.5-15.83t6.31-16.69q6.32-7.17 15.83-7.17t16.69 6.99q7.17 6.99 7.17 16.5t-6.99 16.01q-6.99 6.5-16.5 6.5t-16.01-6.31ZM464-706.99q-7-6.99-7-16.5t6.79-16.01q6.79-6.5 16-6.5t16.21 6.31q7 6.32 7 15.83t-6.79 16.69q-6.79 7.17-16 7.17T464-706.99Zm0 252.2q-7-6.79-7-16t6.79-16.21q6.79-7 16-7t16.21 6.79q7 6.79 7 16T496.21-455q-6.79 7-16 7T464-454.79Zm0 234q-7-6.79-7-16t6.79-16.21q6.79-7 16-7t16.21 6.79q7 6.79 7 16T496.21-221q-6.79 7-16 7T464-220.79Zm149-290.52q-7-6.32-7-15.83t6.79-16.69q6.79-7.17 16-7.17t16.21 6.99q7 6.99 7 16.5t-6.79 16.01q-6.79 6.5-16 6.5T613-511.31Zm47-195.68q-7-6.99-7-16.5t6.79-16.01q6.79-6.5 16-6.5t16.21 6.31q7 6.32 7 15.83t-6.79 16.69q-6.79 7.17-16 7.17T660-706.99Zm0 486.2q-7-6.79-7-16t6.79-16.21q6.79-7 16-7t16.21 6.79q7 6.79 7 16T692.21-221q-6.79 7-16 7T660-220.79Z"/></svg>