<svg xmlns="http://www.w3.org/2000/svg" width="48" height="48" viewBox="0 -960 960 960"><path d="M188-253v81h-16v-298l82-238h159v-55h139v55h154l82 238v298h-16v-81H188Zm15-239h554l-68-194H271l-68 194Zm88.824 158Q308-334 319-345.485q11-11.486 11-27.25 0-16.598-11.485-27.432Q307.029-411 291.588-411q-16.274 0-27.431 11T253-372.5q0 16.5 11.324 27.5 11.323 11 27.5 11Zm377.294 0q15.98 0 26.931-11.485Q707-356.971 707-372.735q0-16.598-11.118-27.432-11.117-10.833-27-10.833Q653-411 641.5-400 630-389 630-372.5t11.985 27.5q11.986 11 27.133 11Z"/></svg>