<svg xmlns="http://www.w3.org/2000/svg" width="48" height="48" viewBox="0 -960 960 960"><path d="M480-174 150-670q72-55 156-86.5T480-788q90 0 174 31.5T810-670L480-174Zm0-39 301-452q-67-45-143.67-73-76.67-28-157.33-28-81.04 0-157.02 28T179-665l301 452ZM366.26-600.94q9.74-8.94 9.74-22.77 0-13.82-9.68-23.55-9.67-9.74-23.5-9.74-13.82 0-22.82 9.68-9 9.67-9 23.5 0 13.82 8.94 22.82t22.77 9q13.82 0 23.55-8.94Zm137 208.47q9.74-9.47 9.74-23t-9.68-23.03q-9.67-9.5-23.5-9.5-13.82 0-22.82 9.47t-9 23q0 13.53 8.94 23.03 8.94 9.5 22.77 9.5 13.82 0 23.55-9.47ZM481-213Z"/></svg>