<svg xmlns="http://www.w3.org/2000/svg" width="48" height="48" viewBox="0 96 960 960"><path d="M218.765 850Q177 850 148.5 821.25T120 749.912H76V308h580v142h79l149 200v100h-57q0 42.5-29.235 71.25-29.236 28.75-71 28.75Q685 850 656.5 821.25T628 750H319q0 43-29.235 71.5-29.236 28.5-71 28.5ZM220 828q32 0 54.5-23.57t22.5-55q0-31.43-22.5-53.93T220 673q-32 0-55 22.5t-23 53.93q0 31.43 23 55T220 828ZM98 728h21q6-31 35.041-54 29.041-23 65.143-23 34.102 0 63.959 22.5Q313 696 319 728h315V330H98v398Zm630 100q32 0 54.5-23.57t22.5-55q0-31.43-22.5-53.93T728 673q-32 0-55 22.5t-23 53.93q0 31.43 23 55T728 828Zm-72-182h199L722 472h-66v174ZM366 529Z"/></svg>