<svg xmlns="http://www.w3.org/2000/svg" width="48" height="48" viewBox="0 -960 960 960"><path d="M480-262q51 0 89-31.5t47-80.5q-6-5.289-12.5-11.144Q597-391 591-396q1 3 1.5 6t.5 6q-5 43-36.457 71.5T480-284q-49 0-82-33t-33-81.5q0-48.5 31.5-81.5t79.5-34q4 0 7.5 1t7.5 2q-4.909-6.27-10.284-12.627Q475.341-529.985 472-537q-56 3-92.5 42.5T343-399q0 58 39.5 97.5T480-262Zm-98-486h34q-1 5.25-1 10.75V-726h-23l-74 82H154v490h652v-202q5.667-5.131 11.333-10.689Q823-372.247 828-377v245H132v-534h176l74-82Zm-17 349h115-115Zm355-15q125.404-114.816 165.202-177.427Q925-654.037 925-721q0-97.488-61.896-154.244Q801.209-932 720.104-932 639-932 577-875.219q-62 56.782-62 154.312 0 66.492 39.798 129.291Q594.596-528.816 720-414Zm0-29Q600.65-553.968 568.825-610.836 537-667.704 537-720q0-92.536 58.301-140.768Q653.603-909 720.301-909 787-909 845-860.872t58 140.467q0 51.989-31.975 109.321T720-443Zm-50-202 19-62-52-42h63.25L720-811l20.617 62H803l-50.918 42.473L771.835-645l-51.917-38.093L670-645Zm50-31Z"/></svg>