<svg xmlns="http://www.w3.org/2000/svg" width="48" height="48" viewBox="0 96 960 960"><path d="M321 811h108v-27h-80v-54h80V623H321v27h80v53h-80v108Zm290 0h27V623h-27v80h-53v-80h-27v107h80v81Zm-466 99V528q-27-19-37-49t0-62l38-126q8-25 25-37t42-12h530q25 0 43 11.5t25 35.5l41 128q10 32-.5 63T814 530v380H145Zm423-385q43 0 65-23t19-47l-29-191H491v179q0 33 22.5 57.5T568 525Zm-182 0q36 0 59.5-24t23.5-58V264H336l-29 195q-2 18 19 42t60 24Zm-179 0q30 0 52-20.5t26-50.5l27-190H210q-17 0-27.5 7.5T168 294l-38 128q-12 37 9.5 70t67.5 33Zm545 0q39 0 64.5-30.5T829 422l-39-130q-4-15-14.5-21.5T748 264H647l27 190q5 30 26.5 50.5T752 525Z"/></svg>