<svg xmlns="http://www.w3.org/2000/svg" width="48" height="48" viewBox="0 -960 960 960"><path d="M212-132v-696h536v696H212Zm22-22h492v-652H234v652Zm246.24-86q65.67 0 111.715-46.285Q638-332.571 638-398.24q0-65.67-46.285-111.715Q545.429-556 479.76-556q-65.67 0-111.715 46.285Q322-463.429 322-397.76q0 65.67 46.285 111.715Q414.571-240 480.24-240Zm-.225-33q-25.365 0-48.381-9-23.017-9-39.634-27l177.175-177Q587-469 596-446.145q9 22.856 9 48.145 0 53-36 89t-88.985 36ZM315.018-688Q330-688 341-699.013q11-11.012 11-25.987 0-16-11.018-26.5-11.017-10.5-26-10.5Q300-762 289-751.5t-11 26q0 15.5 11.018 26.5 11.017 11 26 11ZM439-688q16 0 26.5-11.013Q476-710.025 476-725q0-16-10.5-26.5t-26-10.5q-15.5 0-26.5 10.5t-11 26q0 15.5 11.013 26.5 11.012 11 25.987 11ZM234-154v-652 652Z"/></svg>