<svg xmlns="http://www.w3.org/2000/svg" width="48" height="48" viewBox="0 -960 960 960"><path d="M212-132v-454h123v-84q0-62.08 42-104.04Q419-816 480-816t103 41.96q42 41.96 42 104.04v84h123v110q-3 0-9.5-1t-12.5-1q-102-7-169 60.5T490-260q0 23 12.5 67.5T532-132H212Zm498 18q-61 0-103.5-42.5t-42.5-103q0-60.5 42.5-103.5T710-406q61 0 103.5 42.96T856-260q0 61-42.5 103.5T710-114ZM357-586h246v-84.38Q603-722 567-758q-36-36-87-36t-87 36q-36 36-36 87.62V-586Zm352.76 323Q736-263 754-281.06q18-18.06 18-44T753.96-369q-18.04-18-43.96-18-26 0-44 18.26-18 18.27-18 43.5Q648-299 665.76-281q17.77 18 44 18Zm.33 124q30.91 0 57.41-14.5Q794-168 812-193q-24-14-49.28-21.5-25.29-7.5-52.5-7.5-27.22 0-53.22 7.5T608-193q16.81 25.11 44 39.56Q679.19-139 710.09-139Z"/></svg>