<svg xmlns="http://www.w3.org/2000/svg" width="48" height="48" viewBox="0 96 960 960"><path d="M357 470h246v-84q0-51.667-35.823-87.833Q531.353 262 480.176 262 429 262 393 298.167 357 334.333 357 386v84Zm353 472q-61 0-103.5-42.5T564 796q0-61 42.5-103.5T710 650q61 0 103.5 42.5T856 796q0 61-42.5 103.5T710 942Zm68-58 20-19-75-72.613V680h-29v122.393L778 884Zm-566 40V470h123v-84q0-61.17 42.173-103.585Q419.346 240 480.173 240T583 282.415Q625 324.83 625 386v84h123v110q-11-2.5-21.5-2.75T705 577q-90 2-152.5 66T490 796.331Q490 832 498 866t34 58H212Z"/></svg>