<svg xmlns="http://www.w3.org/2000/svg" width="48" height="48" viewBox="0 0 48 48"><path d="M24 35.3q-3.4 0-6.725-.3-3.325-.3-6.675-.65V30.5q-2.25-.6-3.65-2.4-1.4-1.8-1.4-4.1t1.425-4.075Q8.4 18.15 10.6 17.55v-5q3.35.35 6.675.65 3.325.3 6.725.3 3.4 0 6.725-.325 3.325-.325 6.675-.625v5q2.2.6 3.625 2.375Q42.45 21.7 42.45 24q0 2.3-1.425 4.075Q39.6 29.85 37.4 30.5v3.85q-3.35.3-6.675.625Q27.4 35.3 24 35.3Zm0-5.85q2.15 0 4.225-.275 2.075-.275 4.125-.825v-1.1q-2.05.55-4.125.825-2.075.275-4.225.275-2.1 0-4.2-.275t-4.1-.825l-.05 1.15q2.05.55 4.125.8t4.225.25Zm-13.4-.05V18.6q-1.75.6-2.85 2.075T6.65 24q0 1.85 1.1 3.325T10.6 29.4Zm26.8 0q1.75-.6 2.85-2.075T41.35 24q0-1.85-1.1-3.325T37.4 18.6ZM24 21.55q2.15 0 4.225-.275Q30.3 21 32.35 20.45v-1.1q-2.05.55-4.125.825-2.075.275-4.225.275-2.1 0-4.2-.275t-4.1-.825l-.05 1.15q2.05.55 4.125.8t4.225.25Z"/></svg>