<svg xmlns="http://www.w3.org/2000/svg" width="48" height="48" viewBox="0 -960 960 960"><path d="m353-167-22-43q-13.548-28.16-23.774-63.637Q297-309.115 297-340q0-34.898 10.638-68.378Q318.275-441.857 334-474q17-35 30-70.941 13-35.94 13-75.059 0-28.082-6-55.541Q365-703 352-729l-26-54 18-10 27 55q13.548 28.16 20.774 57.637Q399-650.885 399-620q0 35.838-10.638 69.338Q377.725-517.162 362-486q-17 36-30 71.425T319-340q0 28.082 6 55.541Q331-257 344-232l27 55-18 10Zm-142 0-28-55q-13.548-28.16-20.774-57.637Q155-309.115 155-340q0-34.898 10.637-67.878Q176.275-440.857 192-474q17-35 30-70.941 13-35.94 13-75.059 0-28.425-5.5-56.212Q224-704 210-729l-29-52 21-12 27 55q13.548 28.16 20.774 57.637Q257-650.885 257-620q0 35.838-10.637 69.338Q235.725-517.162 220-486q-17 36-30 71.425T177-340q0 28.082 6 55.541Q189-257 202-232l27 55-18 10Zm314-150v211h-22v-748h22v210l162-160 16 16-178 178v119h119l177-177 15 15-158 162h210v22H678l159 162-15 15-178-177H525v119l178 178-15 15-163-160Z"/></svg>