<svg xmlns="http://www.w3.org/2000/svg" width="48" height="48" viewBox="0 -960 960 960"><path d="m523-136 181-314 180 314H523Zm179.857-20q5.143 0 9.143-3.571 4-3.572 4-9 0-5.429-4-8.929t-9.143-3.5q-5.143 0-8.5 3.4T691-169q0 5.6 3.357 9.3 3.357 3.7 8.5 3.7ZM691-232h25v-149h-25v149ZM132-132v-186h22v164h164v22H132Zm0-510v-186h186v22H154v164h-22Zm301 410q-77-14-132-69t-69-132h20.913Q267-364 316-315.5t117 62.587V-232ZM232-527q14-77 69-132t132-69v20.913Q364-693 315.5-644.5T252.913-527H232Zm248 98q-21 0-36-15t-15-36.463Q429-501 444-516t36.463-15Q501-531 516-515.987q15 15.012 15 35.987 0 21-15.013 36-15.012 15-35.987 15Zm227.087-98Q693-596 644.5-644.5T527-707.087V-728q77 14 132 69t69 132h-20.913ZM806-642v-164H642v-22h186v186h-22Z"/></svg>