<svg xmlns="http://www.w3.org/2000/svg" width="48" height="48" viewBox="0 -960 960 960"><path d="M232-433h20.913Q267-364 316-315.5t117 62.587V-232q-77-14-132-69t-69-132Zm201-295v20.913Q364-693 315.5-644.5T252.913-527H232q14-77 69-132t132-69Zm47.463 197Q501-531 516-515.987q15 15.012 15 35.987 0 21-15.013 36-15.012 15-35.987 15-21 0-36-15t-15-36.463Q429-501 444-516t36.463-15Zm226.624 98H728q-14 77-69 132t-132 69v-20.913Q596-267 644.5-316t62.587-117ZM527-728q77 14 132 69t69 132h-20.913Q693-596 644.5-644.5T527-707.087V-728Zm-395 86v-186h186v22H154v164h-22Zm186 510H132v-186h22v164h164v22Zm324 0v-22h164v-164h22v186H642Zm164-510v-164H642v-22h186v186h-22Z"/></svg>