<svg xmlns="http://www.w3.org/2000/svg" width="48" height="48" viewBox="0 96 960 960"><path d="m523 920 181-314 180 314H523Zm179.857-20q5.143 0 9.143-3.571 4-3.572 4-9 0-5.429-4-8.929t-9.143-3.5q-5.143 0-8.5 3.4T691 887q0 5.6 3.357 9.3 3.357 3.7 8.5 3.7ZM691 824h25V675h-25v149ZM232 583h20.913Q267 652 316 700.5t117 62.587V784q-77-14-132-69t-69-132Zm201-295v20.913Q364 323 315.5 371.5T252.913 489H232q14-77 69-132t132-69Zm47.463 197Q501 485 516 500.013q15 15.012 15 35.987 0 21-15.013 36-15.012 15-35.987 15-21 0-36-15t-15-36.463Q429 515 444 500t36.463-15ZM527 288q77 14 132 69t69 132h-20.913Q693 420 644.5 371.5T527 308.913V288Zm-395 86V188h186v22H154v164h-22Zm186 510H132V698h22v164h164v22Zm488-510V210H642v-22h186v186h-22Z"/></svg>