<svg xmlns="http://www.w3.org/2000/svg" width="48" height="48" viewBox="0 -960 960 960"><path d="M261-126v-22h208v-204H360q-62 0-105-43t-43-105q0-51 35-89t83-59q8-80 48-120t102-40q62 0 102 40t48 120q49 19 83.5 58t34.5 90q0 62-43 105t-105 43H491v204h211v22H261Zm99-248h240q52.17 0 89.08-36.96Q726-447.92 726-500.15 726-545 695.5-578 665-611 622-627l-13-5.09-1-16.91q-7-70-41-103.5T480-786q-53 0-87 33.5T352-649l-1 16.91-21 9.09q-40 16-68 47.87-28 31.88-28 75.13 0 52.17 36.92 89.08Q307.83-374 360-374Zm120-206Z"/></svg>