<svg xmlns="http://www.w3.org/2000/svg" width="48" height="48" viewBox="0 96 960 960"><path d="M314 884q-58.93 0-100.465-41.535Q172 800.93 172 742V410q0-58.93 41.535-100.465Q255.07 268 314 268h332q58.93 0 100.465 41.535Q788 351.07 788 410v332q0 58.93-41.535 100.465Q704.93 884 646 884H314Zm166.059-141Q543 743 587 698.941t44-107Q631 529 586.941 485t-107-44Q417 441 373 485.059t-44 107Q329 655 373.059 699t107 44Zm.026-22q-53.485 0-91.285-37.716-37.8-37.715-37.8-91.2 0-53.484 37.716-91.284 37.715-37.8 91.199-37.8 53.485 0 91.285 37.715 37.8 37.716 37.8 91.201 0 53.484-37.715 91.284-37.716 37.8-91.2 37.8Zm-.015-330q10.93 0 17.93-7.07t7-18q0-10.93-7.208-17.93-7.207-7-17.862-7-10.93 0-17.93 7.208-7 7.207-7 17.862 0 10.93 7.07 17.93t18 7Z"/></svg>