<svg xmlns="http://www.w3.org/2000/svg" width="48" height="48" viewBox="0 96 960 960"><path d="M572 542 413 383q11-10 28.5-16t40.5-6q47 0 79 32.5t32 80.5q0 19-6 39.5T572 542ZM248 806q58-39 111-59.5T480 726q61 0 110.5 15.5T668 774L482 588q-51-2-82-32.5T368 475L243 350q-39 43-64 99t-25 127q0 70 24.5 125.5T248 806Zm473-9q35-41 60-95.5T806 576q0-136-95-231t-231-95q-68 0-123.5 23T259 334l462 463ZM480 924q-73 0-136.5-27T233 823q-47-47-74-110.5T132 576q0-73 27-136.5T233 329q47-47 110.5-74T480 228q73 0 136.5 27T727 329q47 47 74 110.5T828 576q0 73-27 136.5T727 823q-47 47-110.5 74T480 924Zm0-22q59 0 115-21.5T696 822q-43-34-103-54t-113-20q-53 0-110.5 18.5T265 822q44 37 100 58.5T480 902Zm0-77Z"/></svg>