<svg xmlns="http://www.w3.org/2000/svg" width="48" height="48" viewBox="0 96 960 960"><path d="M856 984 704 832v23q1 18-11.3 31.5T663 900H197q-16.917 0-28.958-12.042Q156 875.917 156 859V529q0-16.917 12.042-28.958Q180.083 488 197 488h83l38-43L90 218l16-16 766 766-16 16ZM202 878h456q10 0 17-7t7-17v-44L544 672q1 4 1 7.5v7.5q2 50-32 85.5T430 808q-48 0-81-33t-33-81q0-49 35.5-83t85.5-32h7.5q3.5 0 7.5 1L334 462l-44 48h-88q-10 0-17 7t-7 17v320q0 10 7 17t17 7Zm502-181-22-22V534q0-10-7-17t-17-7H552l-48-54h-39l-26-24h92l51 56h81q16.917 0 28.958 12.042Q704 512.083 704 529v168Zm36-239V341h-17V232h80l-37 83h45l-71 143Zm-58 217Zm-174-39Zm-78.235 150Q469 786 495.5 759.235q26.5-26.764 26.5-65Q522 655 495.735 628.5q-26.264-26.5-65.5-26.5Q392 602 365 628.265q-27 26.264-27 65.5Q338 732 364.765 759q26.764 27 65 27Z"/></svg>