<svg xmlns="http://www.w3.org/2000/svg" width="48" height="48" viewBox="0 -960 960 960"><path d="M479.823-112Q455-112 437.5-129.625T420-172h120q0 25-17.677 42.5t-42.5 17.5ZM212-212v-22h60v-335q0-76.826 49-135.913Q370-764 446-776v-52h68v52.043q18 2.957 35 8.892T581-752q-4.469 4.078-7.734 8.539Q570-739 566-735q-19-10-40.676-15-21.677-5-45.324-5-77 0-131.5 54.5T294-569v335h372v-150q6 2 11.167 3.53 5.166 1.531 10.833 2.47v144h60v22H212Zm268-283Zm271 29v-123H628v-22h123v-123h22v123h123v22H773v123h-22Z"/></svg>