<svg xmlns="http://www.w3.org/2000/svg" width="48" height="48" viewBox="0 96 960 960"><path d="m682 894 108-69-108-68v137ZM280 436h400v-22H280v22Zm444.481 534q-60.52 0-102.5-42.687Q580 884.625 580 825.813 580 765 621.981 723q41.98-42 102.5-42Q784 681 826 723q42 42 42 102.813 0 58.812-42 101.5Q784 970 724.481 970ZM172 912V268h616v301q-38-10-75.821-8.5Q674.359 562 638 575v-10H280v22h325q-40 22-69.5 55T488 716H280v22h199q-6 19-9 38.5t-3 40.5q0 20 2.5 40t7.5 40l-8 8-41-25.079L376 912l-52-32.079L272 912l-52-32.079L172 912Z"/></svg>