<svg xmlns="http://www.w3.org/2000/svg" width="48" height="48" viewBox="0 96 960 960"><path d="M621 851h52v-52h-52v52Zm77 0h52v-52h-52v52Zm77 0h52v-52h-52v52Zm-50.519 119q-60.52 0-102.5-42.687Q580 884.625 580 825.813 580 765 621.981 723q41.98-42 102.5-42Q784 681 826 723q42 42 42 102.813 0 58.812-42 101.5Q784 970 724.481 970ZM306 436h348v-22H306v22Zm166 448H172V268h616v301q-16-3-32-5.5t-32-2.5q-23.525 0-46.888 4.667Q653.75 570.333 632 577v-12H306v22h299q-40 22-69.5 55T488 716H306v22h171q-5 20-8 40.5t-3 41.5q0 12 1 32t5 32Z"/></svg>