<svg xmlns="http://www.w3.org/2000/svg" width="48" height="48"><path d="M8.6 22.55V36.7q0 1.15.775 1.925.775.775 1.925.775h25.4q1.15 0 1.925-.775.775-.775.775-1.925V22.55h-8.15v8.7h-14.5v-8.7zm9.25 7.6h12.3v-7.6h-12.3zm-9.25-8.7h30.8V11.3q0-1.15-.775-1.925Q37.85 8.6 36.7 8.6H11.3q-1.15 0-1.925.775Q8.6 10.15 8.6 11.3zm7.3-5.1q-.5 0-.875-.375t-.375-.875q0-.5.375-.875t.875-.375q.5 0 .875.375t.375.875q0 .5-.375.875t-.875.375zm8 0q-.5 0-.875-.375t-.375-.875q0-.5.375-.875t.875-.375q.5 0 .875.375t.375.875q0 .5-.375.875t-.875.375zm8 0q-.5 0-.875-.375t-.375-.875q0-.5.375-.875t.875-.375q.5 0 .875.375t.375.875q0 .5-.375.875t-.875.375z"/></svg>