<svg xmlns="http://www.w3.org/2000/svg" width="48" height="48" viewBox="0 -960 960 960"><path d="M480-132q-72.21 0-135.22-27.391-63.01-27.392-110.49-74.848-47.48-47.457-74.885-110.435Q132-407.652 132-479.826q0-72.174 27.391-135.732 27.392-63.559 74.848-110.574 47.457-47.016 110.435-74.442Q407.652-828 479.826-828q72.174 0 135.732 27.405 63.559 27.405 110.574 74.385 47.016 46.98 74.442 110.49Q828-552.21 828-480q0 28-4.5 54.5T811-373q-5-2-9.5-4.5T792-383q7-23 10.5-47t3.5-50q0-136-95-231t-231-95q-136 0-231 95t-95 231q0 136 95 231t231 95q57 0 107.966-18.105Q638.932-190.211 681-223q3 4 6.5 8t7.5 8q-45 35-99.427 55Q541.146-132 480-132Zm278.056-134q-8.056 0-14.556-6.444-6.5-6.443-6.5-14.5Q737-296 743.444-302q6.443-6 14.5-6 8.056 0 14.556 5.944 6.5 5.943 6.5 15 0 8.056-6.444 14.556-6.443 6.5-14.5 6.5ZM635-309 470-475.021V-684h22v199l159 160-16 16Z"/></svg>