<svg xmlns="http://www.w3.org/2000/svg" width="48" height="48" viewBox="0 -960 960 960"><path d="M703.5-132q-60.935 0-102.718-41.783Q559-215.565 559-276.5t41.83-102.717Q642.66-421 703-421q61.435 0 103.218 41.83Q848-337.34 848-277q0 61.435-41.782 103.217Q764.435-132 703.5-132Zm63.5-57 20-20-72-72.193V-389h-28v119l80 81Zm-595 17v-616h256q2-20 16.5-34t35.5-14q21.495 0 35.748 14Q530-808 532-788h256v309q-7-1-11.516-2.48T766-485v-281H640v71H320v-71H194v572h307q2 6 4.5 11t6.5 11H172Zm308.175-582q12.825 0 21.325-8.675 8.5-8.676 8.5-21.5 0-12.825-8.675-21.325-8.676-8.5-21.5-8.5-12.825 0-21.325 8.675-8.5 8.676-8.5 21.5 0 12.825 8.675 21.325 8.676 8.5 21.5 8.5Z"/></svg>