<svg xmlns="http://www.w3.org/2000/svg" width="48" height="48" viewBox="0 0 48 48"><path d="M36.6 40.45q1.95 0 3.325-1.375Q41.3 37.7 41.3 35.75q0-2-1.375-3.375T36.6 31q-2 0-3.375 1.375T31.85 35.75q0 1.95 1.375 3.325Q34.6 40.45 36.6 40.45Zm-.55 2.35v-1.25q-1.45-.25-2.375-.775T32 39.3l-1.1.6-.7-.9 1-.75q-.5-1.3-.5-2.525 0-1.225.5-2.525l-1-.75.7-.9 1.1.65q.7-1 1.65-1.525.95-.525 2.4-.775v-1.25h1.1v1.25q1.45.25 2.4.775T41.2 32.2l1.1-.65.7.9-1 .75q.5 1.3.5 2.525 0 1.225-.5 2.525l1 .75-.7.9-1.1-.6q-.75.95-1.675 1.475-.925.525-2.375.775v1.25ZM6.6 41.4 41.4 6.6v18.45q-1.2-.5-2.375-.8-1.175-.3-2.475-.3-4.9 0-8.375 3.475Q24.7 30.9 24.7 35.8q0 1.25.4 2.875t1.1 2.725Z"/></svg>