<svg xmlns="http://www.w3.org/2000/svg" width="48" height="48" viewBox="0 96 960 960"><path d="m132 924 696-696v369q-5-2-10.5-5t-11.5-5V281L185 902h328q3 6 5 11.5t6 10.5H132Zm53-22 621-621Q666 422 496 591.5T185 902Zm536 50v-25q-29-5-47.5-15.5T640 882l-22 12-14-18 20-15q-10-26-10-50.5t10-50.5l-20-15 14-18 22 13q14-20 33-30.5t48-15.5v-25h22v25q29 5 48 15.5t33 30.5l22-13 14 18-20 15q10 26 10 50.5T840 861l20 15-14 18-22-12q-15 19-33.5 29.5T743 927v25h-22Zm11-47q39 0 66.5-27.5T826 811q0-40-27.5-67.5T732 716q-40 0-67.5 27.5T637 811q0 39 27.5 66.5T732 905Z"/></svg>