<svg xmlns="http://www.w3.org/2000/svg" width="48" height="48" viewBox="0 -960 960 960"><path d="m704-383-15-16q19-15 30.5-35.767Q731-455.533 731-480.5q0-24.5-11.44-45.562Q708.12-547.125 689-563l15-15q22 18 35.5 42.959 13.5 24.96 13.5 54Q753-452 739.5-427 726-402 704-383Zm78 77-16-15q32.385-32.234 49.192-73.735Q832-436.235 832-480.618 832-525 814.5-566.5 797-608 764-638l17-17q35.966 35.171 54.483 79.909Q854-530.353 854-480q0 49-18.5 94.138Q817-340.724 782-306ZM252-92v-776h456v174h-22v-67H274v562h412v-67h22v174H252Zm22-85v63h412v-63H274Zm0-606h412v-63H274v63Zm0 0v-63 63Zm0 606v63-63Z"/></svg>