<svg xmlns="http://www.w3.org/2000/svg" width="48" height="48" viewBox="0 0 48 48"><path d="M8.6 39.4V8.6h30.8v30.8Zm1.1-1.1h28.6V13.7H9.7Zm14.3-7q-2.95 0-5.35-1.45-2.4-1.45-3.7-3.85 1.3-2.4 3.7-3.875 2.4-1.475 5.35-1.475 2.95 0 5.35 1.475Q31.75 23.6 33.1 26q-1.35 2.4-3.75 3.85-2.4 1.45-5.35 1.45Zm0-3.45q-.75 0-1.3-.575T22.15 26q0-.75.575-1.3T24 24.15q.75 0 1.3.575T25.85 26q0 .75-.575 1.3T24 27.85Zm0 1.25q1.3 0 2.2-.925.9-.925.9-2.175 0-1.3-.925-2.2-.925-.9-2.175-.9-1.3 0-2.2.925-.9.925-.9 2.175 0 1.3.925 2.2.925.9 2.175.9Z"/></svg>