<svg xmlns="http://www.w3.org/2000/svg" width="48" height="48" viewBox="0 -960 960 960"><path d="M480.17-132q-72.17 0-135.73-27.39-63.56-27.39-110.57-74.35-47.02-46.96-74.44-110.43Q132-407.65 132-479.83q0-72.17 27.39-135.73 27.39-63.56 74.35-110.57 46.96-47.02 110.43-74.44Q407.65-828 479.83-828q72.17 0 135.73 27.39 63.56 27.39 110.57 74.35 47.02 46.96 74.44 110.43Q828-552.35 828-480.17q0 72.17-27.39 135.73-27.39 63.56-74.35 110.57-46.96 47.02-110.43 74.44Q552.35-132 480.17-132ZM439-156v-79q-34.17 0-57.59-24Q358-283 358-317v-41L162-554q-3 18-5.5 36.57-2.5 18.58-2.5 37.65Q154-356 235-263.5T439-156Zm282-104q41-45 63-101.9 22-56.91 22-118.48 0-100.61-55-184.11Q696-748 602-785v19.35Q602-732 578.59-708q-23.42 24-57.59 24h-82v82q0 17.42-12 28.71T398.35-562H317v82h245q17.42 0 28.71 12T602-439v122h40.58q27.42 0 49 15.89Q713.16-285.21 721-260Z"/></svg>