<svg xmlns="http://www.w3.org/2000/svg" width="48" height="48" viewBox="0 -960 960 960"><path d="M80-252v-456h456v456H80Zm22-80q45-30 97-47.5T308-397q57 0 109 17.5t97 47.5v-354H102v354Zm206-43q-52 0-103.5 17T106-307v33h409v-33q-46-32-99.5-50T308-375Zm-66.5-98.5Q214-501 214-540t27.5-66.5Q269-634 308-634t66.5 27.5Q402-579 402-540t-27.5 66.5Q347-446 308-446t-66.5-27.5ZM308-467q30.5 0 51.75-21.25T381-540q0-30.5-21.25-51.75T308-613q-30.5 0-51.75 21.25T235-540q0 30.5 21.25 51.75T308-467Zm378 215v-456h22v456h-22Zm172 0v-456h22v456h-22ZM308-540Zm3 266Z"/></svg>