<svg xmlns="http://www.w3.org/2000/svg" width="48" height="48" viewBox="0 -960 960 960"><path d="M479-156 227-411q-2-1-3-2l-2-2h31l227 227 258-258q34-33 51-73t17-81q-1-72-44.66-121.5T655.189-771Q620-771 588-756.5 556-742 532-715l-52 56-52-56q-25.273-26.816-57.636-40.908Q338-770 304-770q-57 0-98.5 42T155-625h-21q8-71 55.5-119T304-792q39 0 75.5 16t65.5 47l35 37 33-35q30-32 67-48.5t75-16.5q72 0 122.5 56T828-600q0 46-19 89.5T755-432L479-156Zm-3-353H135v-22h500q29.25 0 49.125-19.825 19.875-19.824 19.875-49Q704-629 684.125-649 664.25-669 635-669q-15 0-29 6.5T581-645l-23-6q14-19 34.048-29.5Q612.095-691 635-691q37.75 0 64.375 26.677Q726-637.647 726-599.823 726-562 699.375-535.5 672.75-509 635-509h-97q13 13 20.5 30.45T566-440q0 37.75-26.625 64.375T475-349q-22.905 0-42.952-10.5Q412-370 398-389l23-6q11 11 25 17.5t29 6.5q29.25 0 49.125-19.825 19.875-19.824 19.875-49Q544-469 524.625-489 505.25-509 476-509Zm5 30Z"/></svg>