<svg xmlns="http://www.w3.org/2000/svg" width="48" height="48" viewBox="0 -960 960 960"><path d="M791-774 638-490h-60L293-774h498ZM298-126q-21 0-36-14.762-15-14.763-15-37.238t15-37.238Q277-230 298-230t36.5 14.762Q350-200.475 350-178t-15.5 37.238Q319-126 298-126Zm521 14L603-329H201l114-190-90-188-112-111 17-16 705 706-16 16ZM581-351 442-490H323.314L244-351h337Zm85.336 225Q646-126 630.5-140.762 615-155.525 615-178t15.5-37.238Q646-230 666.336-230q20.337 0 36 14.762Q718-200.475 718-178t-15.664 37.238Q686.673-126 666.336-126Z"/></svg>