<svg xmlns="http://www.w3.org/2000/svg" width="48" height="48" viewBox="0 -960 960 960"><path d="m617-253 55-54v-53 53l-55 54Zm131 0-54-55v-52 52l54 55ZM480-480ZM132-585v-163h696v286h-22v-264H154v141h-22Zm0 373v-163h22v141h264v22H132ZM525-92q-11.25 0-19.125-7.875T498-119v-118.958L547-364q2.16-8.192 9.58-13.096T572-382h100v-106h22v106h98q7.758 0 14.979 4.827Q814.2-372.346 817-365l51 127.042V-119q0 11.25-7.75 19.125T841-92h-92q-11.25 0-19.125-7.875T722-119v-55h22v60h102v-120l-50-126H694v52l54 55-16 16-49.5-50-49.5 50-16-16 55-54v-53H568l-48 126v120h102v-60h22v51.176q0 12.991-9.458 21.907Q625.083-92 613-92h-88Zm158-145ZM132-469v-22h74l74 147 167-335h-15l110 222q-4.931.875-10.098 3.512-5.166 2.636-9.902 4.488l-83-166-168 335h15l-93-189h-61Z"/></svg>