<svg xmlns="http://www.w3.org/2000/svg" width="48" height="48" viewBox="0 -960 960 960"><path d="M132-332v-296h696v296H132Zm100-137h178v-22H232v22Zm337.368 16q11.632 0 19.132-7.868 7.5-7.869 7.5-19.5 0-11.632-7.868-19.132-7.869-7.5-19.5-7.5-11.632 0-19.132 7.868-7.5 7.869-7.5 19.5 0 11.632 7.868 19.132 7.869 7.5 19.5 7.5Zm120 0q11.632 0 19.132-7.868 7.5-7.869 7.5-19.5 0-11.632-7.868-19.132-7.869-7.5-19.5-7.5-11.632 0-19.132 7.868-7.5 7.869-7.5 19.5 0 11.632 7.868 19.132 7.869 7.5 19.5 7.5Z"/></svg>