<svg xmlns="http://www.w3.org/2000/svg" width="48" height="48" viewBox="0 -960 960 960"><path d="M539-100v-320h320v320H539Zm48-48h224v-26q-20-25-49-39.5T699-228q-34 0-63.5 14.5T587-174v26Zm112-112q20 0 34-14t14-34q0-20-14-34t-34-14q-21 0-34.5 14T651-308q0 20 13.5 34t34.5 14ZM421-132l-15-111q-23-7-51-22.5T308-299l-102 46-59-105 90-67q-2-13-3.5-27t-1.5-27q0-12 1.5-26t3.5-30l-90-68 59-102 101 44q22-18 48-33t50-22l16-112h118l15 112q27 10 50 23t45 32l106-44 58 102-99 75q0 2 .5 4t.5 4H552.202q-11.056-19.7-30.629-32.35Q502-565 477-565q-34.857 0-59.929 24.571Q392-515.857 392-480q0 26 13 46t34 31v271h-18Z"/></svg>