<svg xmlns="http://www.w3.org/2000/svg" width="48" height="48" viewBox="0 -960 960 960"><path d="M483-132q-73.091 0-137.045-27.5Q282-187 234-235t-75.5-111.955Q131-410.909 131-484q0-108 59.5-196.5T350-809q0 92 34 176t99 149q65 65 149 99t176 34q-40 100-128.5 159.5T483-132Zm0-22q92 0 169-48t122-128.277q-87-8.029-166-43.156-79-35.128-140.5-97.348Q405-532 370-610t-42-165q-80 44-127.5 121.5T153-484q0 138.333 95.833 234.167Q344.667-154 483-154Zm-16-317Zm236-186-27.625-62.375L613-747l62.688-28.312L703-837l28.312 61.688L793-747l-61.688 27.312L703-657Z"/></svg>