<svg xmlns="http://www.w3.org/2000/svg" width="48" height="48" viewBox="0 -960 960 960"><path d="M208-417q-27 0-45.5-18.708Q144-454.417 144-481q0-26.583 18.708-45.292Q181.417-545 208-545v-167h208q0-26.583 18.708-45.292Q453.417-776 480-776q26.583 0 45.292 18.708Q544-738.583 544-712h208v167q26.583 0 45.292 18.708Q816-507.583 816-481q0 26.583-18.708 45.292Q778.583-417 752-417v245H208v-245Zm147.235-60Q367-477 375-485.235q8-8.236 8-20Q383-517 374.765-525q-8.236-8-20-8Q343-533 335-524.765q-8 8.236-8 20Q327-493 335.235-485q8.236 8 20 8Zm250 0Q617-477 625-485.235q8-8.236 8-20Q633-517 624.765-525q-8.236-8-20-8Q593-533 585-524.765q-8 8.236-8 20Q577-493 585.235-485q8.236 8 20 8ZM344-308h272v-22H344v22Z"/></svg>