<svg xmlns="http://www.w3.org/2000/svg" width="48" height="48" viewBox="0 -960 960 960"><path d="M642-780q26 0 44-18.5t18-43.5q0-26-18-44t-44-18q-25 0-43.5 18T580-842q0 25 18.5 43.5T642-780Zm76 700L213-188q-40-8-70-32.5T97-280q-1-1-1-4-1-4 2.5-8t6.5-5q4 0 7.5 2.5t4.5 5.5q15 30 41 52.5t59 28.5l41 7 153-100-44-189 135-219H347l-73 120-19-12 81-130h212q20 0 32 11t16 21l21 47q22 49 65 82t99 38v22q-60-4-108-39t-85-103L474-473l143 111 39 247 66 14q7 2 15 2.5t15 .5q25 0 49.5-9.5T845-134q-1 1 7-3 4-1 7.5 1.5t4.5 7.5q0 3-1 6t-3 5q-21 21-49.5 31T752-76q-8 0-16.5-1T718-80Zm-85-39-35-226-181-128 21 180-149 99 344 75Z"/></svg>