<svg xmlns="http://www.w3.org/2000/svg" width="48" height="48" viewBox="0 96 960 960"><path d="M250 879 129 758l121-121 17 17-92 92h610l-92-92 17-17 121 121-121 121-17-17 92-91H175l92 91-17 17ZM126 505v1q0-14.027 8.469-24.716Q142.939 470.595 157 464q23.078-9.522 48.32-15.261Q230.562 443 257.281 443q26.719 0 51.2 5.739Q332.963 454.478 357 464q14.061 6.595 22.531 17.284Q388 491.973 388 506v-1H126Zm446 0v1q0-13.956 8.408-24.586Q588.816 470.784 604 464q23.078-9.522 47.603-15.261Q676.128 443 702.846 443q26.719 0 51.918 5.739Q779.963 454.478 803 464q14.061 6.595 22.531 17.284Q834 491.973 834 506v-1H572ZM257.124 367Q235 367 219.5 351.456q-15.5-15.545-15.5-37Q204 293 219.544 277.5q15.545-15.5 37.668-15.5 22.124 0 36.956 15.544 14.832 15.545 14.832 37Q309 336 294.124 351.5q-14.876 15.5-37 15.5Zm445.664 0q-22.124 0-36.956-15.544-14.832-15.545-14.832-37Q651 293 665.876 277.5q14.876-15.5 37-15.5Q725 262 740.5 277.544q15.5 15.545 15.5 37Q756 336 740.456 351.5 724.911 367 702.788 367Z"/></svg>