<svg xmlns="http://www.w3.org/2000/svg" width="48" height="48"><path d="M24 19.1q-2.15 0-3.7-1.55-1.55-1.55-1.55-3.7 0-2.15 1.55-3.7Q21.85 8.6 24 8.6q2.15 0 3.7 1.55 1.55 1.55 1.55 3.7 0 2.15-1.55 3.7-1.55 1.55-3.7 1.55zM13.85 39.4q-2.15 0-3.7-1.55-1.55-1.55-1.55-3.7 0-2.15 1.55-3.7 1.55-1.55 3.7-1.55 2.15 0 3.7 1.55 1.55 1.55 1.55 3.7 0 2.15-1.55 3.7-1.55 1.55-3.7 1.55zm20.3 0q-2.15 0-3.7-1.55-1.55-1.55-1.55-3.7 0-2.15 1.55-3.7 1.55-1.55 3.7-1.55 2.15 0 3.7 1.55 1.55 1.55 1.55 3.7 0 2.15-1.55 3.7-1.55 1.55-3.7 1.55z"/></svg>