<svg xmlns="http://www.w3.org/2000/svg" width="48" height="48" viewBox="0 -960 960 960"><path d="M150.761-435Q132-435 119-448.239t-13-32Q106-499 119.239-512t32-13Q170-525 183-511.761t13 32Q196-461 182.761-448t-32 13ZM219-205l-16-16 138-138 16 17-138 137Zm123-399L205-741l16-16 137 137-16 16Zm137.761 498Q461-106 448-119.239t-13-32Q435-170 448.239-183t32-13Q499-196 512-182.761t13 32Q525-132 511.761-119t-32 13Zm0-658Q461-764 448-777.239t-13-32Q435-828 448.239-841t32-13Q499-854 512-840.761t13 32Q525-790 511.761-777t-32 13ZM618-604l-16-16 139-137 16 16-139 137Zm123 399L603-342l16-17 138 138-16 16Zm67.761-230Q790-435 777-448.239t-13-32Q764-499 777.239-512t32-13Q828-525 841-511.761t13 32Q854-461 840.761-448t-32 13Z"/></svg>