<svg xmlns="http://www.w3.org/2000/svg" width="48" height="48" viewBox="0 -960 960 960"><path d="M675-438q-29 0-50.5-21.5T603-511q0-29 21.5-50.5T675-583q30 0 51 21.5t21 50.5q0 30-21 51.5T675-438ZM502-232v-29q0-17 7.833-30.03Q517.667-304.06 533-310q33.133-15 68.566-22.5Q637-340 675-340q36.974 0 72.487 7.5T818-310q14.333 5.94 22.167 18.97Q848-278 848-261v29H502ZM380-512q-44.55 0-74.775-30.225Q275-572.45 275-617q0-45.55 30.225-75.275Q335.45-722 380-722q44.55 0 74.775 29.725Q485-662.55 485-617q0 44.55-30.225 74.775Q424.55-512 380-512ZM112-232v-44q0-27 13.5-47t35.5-28q55-26 108.81-38.5Q323.621-402 380-402h46v13q-2.706 2.667-3.853 4.833Q421-382 421-380q-21 30-27 58.5t-6 67.5v22H112Z"/></svg>