<svg xmlns="http://www.w3.org/2000/svg" width="48" height="48" viewBox="0 -960 960 960"><path d="M675.5-438q-29.98 0-51.24-21.26T603-510.5q0-29.98 21.42-51.24T675-583q30.48 0 51.24 21.42T747-511q0 30.48-20.76 51.74T675.5-438ZM502-232v-29q0-17 7.833-30.03Q517.667-304.06 533-310q33.133-15 68.566-22.5Q637-340 675.5-340q36.474 0 71.987 7.5T818-310q14.25 6.3 22.125 19.15Q848-278 848-261v29H502ZM380-512q-44.55 0-74.775-30.225Q275-572.45 275-617.5q0-45.05 30.225-74.775Q335.45-722 380-722q44.55 0 74.775 29.725Q485-662.55 485-617.5q0 45.05-30.225 75.275Q424.55-512 380-512Zm0-105ZM112-232v-47q0-23.538 13.5-43.269Q139-342 162.667-351q54.333-25 107.79-38 53.456-13 109.229-13 20.314 0 38.314.5t37 3.5q-4.75 4.25-9.5 10t-9.5 10q-13-.5-27-1.25t-29-.75q-52.657 0-104.328 10.5Q224-359 174-332q-15 8-27.5 21.5T134-279v25h254v22H112Zm276-22Zm-8-280q35 0 59-24t24-59q0-35-24-59t-59-24q-35 0-59 24t-24 59q0 35 24 59t59 24Z"/></svg>