<svg xmlns="http://www.w3.org/2000/svg" width="48" height="48" viewBox="0 -960 960 960"><path d="M703-611v-55q0-37 21.96-59.5t59.5-22.5Q822-748 844-725.5t22 59.5v55H703Zm-609 0v-55q0-37 22.12-59.5T176-748q37.35 0 59.18 22.5Q257-703 257-666v55H94Zm0 437v-412h163v412H94Zm188 0v-424l198-171 198 171v424H544v-210H416v210H282Zm421 0v-412h163v412H703ZM507.5-533.06q11.5-11.06 11.5-27t-11.74-27.44Q495.53-599 479.59-599q-15.94 0-26.77 11.74Q442-575.53 442-559.59q0 15.94 11.06 26.77 11.06 10.82 27 10.82t27.44-11.06Z"/></svg>