<svg xmlns="http://www.w3.org/2000/svg" width="48" height="48" viewBox="0 -960 960 960"><path d="M681-521.18q-7-7.17-7-16 0-8.82 7.18-15.82 7.17-7 16-7 8.82 0 15.82 7.18 7 7.17 7 16 0 8.82-7.18 15.82-7.17 7-16 7-8.82 0-15.82-7.18ZM686-646v-142h22v142h-22ZM360-172q-59.53 0-101.27-41.74Q217-255.47 217-315q0-42.1 23-76.55Q263-426 300-447v-281q0-26.33 17.26-43.17Q334.53-788 359.76-788q25.24 0 42.74 16.83Q420-754.33 420-728v281q37 21 59.5 55.45T503-315q-1 59.53-42.73 101.26Q418.53-172 360-172Zm-38-396h76v-160q0-16-11.2-27T360-766q-15.6 0-26.8 11.2Q322-743.6 322-728v160Z"/></svg>