<svg xmlns="http://www.w3.org/2000/svg" width="48" height="48" viewBox="0 0 48 48"><path d="M18.5 20.3q1-1.35 2.425-2.1 1.425-.75 3.075-.75 1.65 0 3.075.75 1.425.75 2.425 2.1l10.6-5.95L24 5.5 7.9 14.35Zm4.95 21.85v-11.5q-2.55-.4-4.275-2.25-1.725-1.85-1.725-4.4 0-.7.15-1.35.15-.65.4-1.35L7.3 15.2v17.95Zm.55-12.7q2.3 0 3.875-1.575Q29.45 26.3 29.45 24t-1.575-3.875Q26.3 18.55 24 18.55t-3.875 1.575Q18.55 21.7 18.55 24t1.575 3.875Q21.7 29.45 24 29.45Zm.55 12.7 16.15-9V15.2L30 21.3q.25.7.4 1.35.15.65.15 1.35 0 2.55-1.725 4.4-1.725 1.85-4.275 2.25Z"/></svg>