<svg xmlns="http://www.w3.org/2000/svg" width="48" height="48" viewBox="0 -960 960 960"><path d="M279-186q-43 0-70.5-33T185-296h-65v-224h102l-91-91-40 40-16-17 96-96 17 16-41 40 95 97 59-177h354l62 187h123v225h-65q4 44-23.5 77T682-186q-41.465 0-68.732-29.5Q586-245 587-286H373q2 41-26 70.5T279-186Zm-18-334h206v-166H317l-56 166Zm228 0h205l-54-166H489v166ZM369-308h222q9-29 34.5-47.5T682-374q28 0 51.5 15.5T768-317h50v-181H142v181h50q11-27 34.817-42T279-374q31 0 56.5 18.5T369-308Zm-90.035 100q29.535 0 50.785-21.215Q351-250.43 351-279.965t-21.215-50.785Q308.57-352 279.035-352t-50.785 21.215Q207-309.57 207-280.035t21.215 50.785Q249.43-208 278.965-208ZM682-208q28.5 0 50.25-21.215t21.75-50.75q0-29.535-21.75-50.785Q710.5-352 681.5-352t-50.25 21.215Q610-309.57 610-280.035t21.225 50.785Q652.45-208 682-208ZM480-403Z"/></svg>