<svg xmlns="http://www.w3.org/2000/svg" width="48" height="48" viewBox="0 -960 960 960"><path d="M480.174-132Q408-132 344.442-159.391q-63.559-27.392-110.575-74.348-47.015-46.957-74.441-110.435Q132-407.652 132-479.826q0-72.174 27.405-135.732 27.405-63.559 74.385-110.574 46.98-47.016 110.49-74.442Q407.79-828 480-828h11v322q9 5 13 11.769t4 14.352q0 10.879-8.5 19.379Q491-452 480-452t-19.5-8.5q-8.5-8.5-8.5-19.261 0-7.5 4-13.869 4-6.37 13-12.37v-140q-66 4-110.5 52T314-480q0 69 48.5 117.5T480-314q69 0 117.5-48.5T646-480q0-38-15-69.5T590-604l16-16q29 26 45.5 62.021T668-480q0 78.333-54.765 133.167Q558.471-292 480.235-292 402-292 347-346.833 292-401.667 292-480q0-76 51.5-129.5T469-668v-138q-132 4-223.5 98.5T154-480q0 136 95 231t231 95q136 0 231-95t95-231q0-71-27.5-132T703-717l16-16q51 48 80 112.895 29 64.894 29 139.806 0 72.299-27.391 135.857-27.392 63.559-74.348 110.575-46.957 47.015-110.435 74.441Q552.348-132 480.174-132Z"/></svg>