<svg xmlns="http://www.w3.org/2000/svg" width="48" height="48" viewBox="0 -960 960 960"><path d="M754-172q-98 0-201-49T360-360q-89-90-138.5-193.5T172-754v-34h154l34 148-107 98q30 51 61 93t63 74q36 37 79.5 68.5T557-244l102-107 129 26v153h-34ZM242-562l94-85-27-119H194q-2 44 10.5 95T242-562Zm336 327q36 20 86.5 31T766-193v-115l-99-20-89 93ZM242-562Zm336 327ZM420.5-460.5Q412-469 412-480t8.5-19.5Q429-508 440-508t19.5 8.5Q468-491 468-480t-8.5 19.5Q451-452 440-452t-19.5-8.5Zm0-240Q412-709 412-720t8.5-19.5Q429-748 440-748t19.5 8.5Q468-731 468-720t-8.5 19.5Q451-692 440-692t-19.5-8.5Zm80 120Q492-589 492-600t8.5-19.5Q509-628 520-628t19.5 8.5Q548-611 548-600t-8.5 19.5Q531-572 520-572t-19.5-8.5Zm40 120Q532-469 532-480t8.5-19.5Q549-508 560-508t19.5 8.5Q588-491 588-480t-8.5 19.5Q571-452 560-452t-19.5-8.5Zm0-240Q532-709 532-720t8.5-19.5Q549-748 560-748t19.5 8.5Q588-731 588-720t-8.5 19.5Q571-692 560-692t-19.5-8.5Zm80 120Q612-589 612-600t8.5-19.5Q629-628 640-628t19.5 8.5Q668-611 668-600t-8.5 19.5Q651-572 640-572t-19.5-8.5Zm40 120Q652-469 652-480t8.5-19.5Q669-508 680-508t19.5 8.5Q708-491 708-480t-8.5 19.5Q691-452 680-452t-19.5-8.5Zm0-240Q652-709 652-720t8.5-19.5Q669-748 680-748t19.5 8.5Q708-731 708-720t-8.5 19.5Q691-692 680-692t-19.5-8.5Zm80 120Q732-589 732-600t8.5-19.5Q749-628 760-628t19.5 8.5Q788-611 788-600t-8.5 19.5Q771-572 760-572t-19.5-8.5Zm40 120Q772-469 772-480t8.5-19.5Q789-508 800-508t19.5 8.5Q828-491 828-480t-8.5 19.5Q811-452 800-452t-19.5-8.5Zm0-240Q772-709 772-720t8.5-19.5Q789-748 800-748t19.5 8.5Q828-731 828-720t-8.5 19.5Q811-692 800-692t-19.5-8.5Z"/></svg>