<svg xmlns="http://www.w3.org/2000/svg" width="48" height="48" viewBox="0 -960 960 960"><path d="M92.5-132.62Q66-159.24 66-198.12 66-237 92.62-263.5q26.62-26.5 65.5-26.5 38.88 0 65.38 26.62 26.5 26.62 26.5 65.5 0 38.88-26.62 65.38-26.62 26.5-65.5 26.5-38.88 0-65.38-26.62Zm115.53-15.88Q228-169 228-198.53q0-29.52-19.97-49.5Q188.05-268 158.53-268q-29.53 0-50.03 19.97Q88-228.05 88-198.53q0 29.53 20.5 50.03t50.03 20.5q29.52 0 49.5-20.5ZM297-106q4-6 7-12t6-10h114v-312q0-44.26-32.37-76.63T315-549H129v187q-4 0-11 2t-11 3v-214h121v-167q0-65.12 45.42-110.56T383.93-894q48.07 0 86.57 25.5Q509-843 527-799l283.02 671H894v22H670v-22h117L506-789q-16-39-48.5-61t-73.08-22Q328-872 289-833t-39 95v167h64.9q55.1 0 93.1 37.76 38 37.76 38 93.24v334H297Zm-21-233Z"/></svg>