<svg xmlns="http://www.w3.org/2000/svg" width="48" height="48" viewBox="0 96 960 960"><path d="M591 884q-22.775 0-38.388-15.612Q537 852.775 537 830V322q0-22.775 15.612-38.388Q568.225 268 591 268h111q22.775 0 38.388 15.612Q756 299.225 756 322v508q0 22.775-15.612 38.388Q724.775 884 702 884H591Zm-32-562v508q0 12 10 22t22 10h111q12 0 22-10t10-22V322q0-12-10-22t-22-10H591q-12 0-22 10t-10 22ZM258 884q-22.775 0-38.387-15.612Q204 852.775 204 830V322q0-22.775 15.613-38.388Q235.225 268 258 268h111q22.775 0 38.388 15.612Q423 299.225 423 322v508q0 22.775-15.612 38.388Q391.775 884 369 884H258Zm-32-562v508q0 12 10 22t22 10h111q12 0 22-10t10-22V322q0-12-10-22t-22-10H258q-12 0-22 10t-10 22Zm508-32H559h175Zm-333 0H226h175Z"/></svg>