<svg xmlns="http://www.w3.org/2000/svg" width="48" height="48" viewBox="0 96 960 960"><path d="m606 597-20-20q14-62-31-101t-96-26l-20-20q8-3 18-5t23-2q56 0 94.5 38.5T613 556q0 13-2 24t-5 17Zm126 123-17-14q41-31 73-68.5t52-81.5q-50-104-146-165t-211-61q-33 0-65.5 5.5T358 349l-17-17q31-12 68.5-18t72.5-6q121 0 226.5 67.5T864 556q-22 47-54.5 87.5T732 720Zm63 202L643 770q-24 13-67 23.5T480 804q-124 0-228-67.5T96 556q24-53 65-100.5t88-80.5L132 259l16-16 662 662-15 17ZM264 391q-38 25-80.5 71T120 556q50 104 146.5 165T482 782q44 0 87.5-8.5T629 756l-82-82q-10 6-30.5 10.5T480 689q-56 0-94.5-38.5T347 556q0-15 4.5-35t10.5-32l-98-98Zm273 140Zm-90 46Z"/></svg>