<svg xmlns="http://www.w3.org/2000/svg" width="48" height="48" viewBox="0 -960 960 960"><path d="M480.353-367Q535-367 574-406.353q39-39.353 39-94T573.647-594q-39.353-39-94-39T386-593.647q-39 39.353-39 94T386.353-406q39.353 39 94 39Zm-.765-24Q434-391 402.5-422.912q-31.5-31.912-31.5-77.5t31.912-77.088q31.912-31.5 77.5-31.5t77.088 31.912q31.5 31.912 31.5 77.5T557.088-422.5q-31.912 31.5-77.5 31.5Zm.555 139Q356-252 253-319.5T96-500q54-113 156.857-180.5t227-67.5Q604-748 707-680.5T864-500q-54 113-156.857 180.5t-227 67.5ZM480-500Zm-.169 226Q596-274 692.5-335 789-396 840-500q-51-104-147.331-165-96.332-61-212.5-61Q364-726 267.5-665 171-604 120-500q51 104 147.331 165 96.332 61 212.5 61Z"/></svg>