<svg xmlns="http://www.w3.org/2000/svg" width="48" height="48" viewBox="0 -960 960 960"><path d="M660-292v-125H457q-18 56-68 90.5T280-292q-78.33 0-133.17-54.76Q92-401.53 92-479.76 92-558 146.83-613q54.84-55 133.17-55 59 0 109 34.5t68 90.5h301v22H439q-8-40-49.5-82.5T280-646q-69 0-117.5 48.5T114-480q0 69 48.5 117.5T280-314q68 0 109.5-42.5T439-439h245v125h74v22h-98ZM280-444q14.5 0 25.25-10.75T316-480q0-14.5-10.75-25.25T280-516q-14.5 0-25.25 10.75T244-480q0 14.5 10.75 25.25T280-444Zm0-36Zm530 193.04q-7-6.97-7-16 0-9.04 6.96-16.04 6.97-7 16-7 9.04 0 16.04 6.96 7 6.97 7 16 0 9.04-6.96 16.04-6.97 7-16 7-9.04 0-16.04-6.96Zm5-85.04v-171h22v171h-22Z"/></svg>