<svg xmlns="http://www.w3.org/2000/svg" width="48" height="48" viewBox="0 96 960 960"><path d="M280 764q-78.333 0-133.167-54.765Q92 654.471 92 576.235 92 498 146.833 443 201.667 388 280 388q59 0 109 34.5t68 90.5h411v126h-88v125H660V639H457q-18 56-68 90.5T280 764Zm0-22q68 0 109.5-42.5t49.594-82.5H684v125h74V617h88v-82H439q-8-40-49.5-82.5T280 410q-69.225 0-117.613 48.341Q114 506.681 114 575.841 114 645 162.387 693.5 210.775 742 280 742Zm0-130q14.5 0 25.25-10.75T316 576q0-14.5-10.75-25.25T280 540q-14.5 0-25.25 10.75T244 576q0 14.5 10.75 25.25T280 612Zm0-36Z"/></svg>