<svg xmlns="http://www.w3.org/2000/svg" width="48" height="48" viewBox="0 -960 960 960"><path d="M132-212v-146h22v124h124v22H132Zm254-139 43-225-140 61v126h-22v-142l162-66q21-9 31.5-12t19.5-3q13 0 24.5 7t19.28 18.56L552-541l-1.5-1.5-1.5-1.5q-42 34-66 84t-22 109h-75Zm110-346.96q-18-17.95-18-44Q478-768 495.96-786q17.95-18 44-18Q566-804 584-786.04q18 17.95 18 44Q602-716 584.04-698q-17.95 18-44 18Q514-680 496-697.96ZM132-762v-146h146v22H154v124h-22Zm674 0v-124H682v-22h146v146h-22ZM700.64-214Q640-214 597.5-256.55T555-360q0-61.49 42.55-103.24Q640.09-505 701-505q61.49 0 103.24 41.86Q846-421.28 846-359.64q0 60.64-41.86 103.14T700.64-214ZM688-343h27v-103h-27v103Zm14 74q7 0 12.5-5.5T720-288q0-8-5.5-13t-12.5-5q-8 0-13.5 5t-5.5 13q0 8 5.5 13.5T702-269Z"/></svg>