<svg xmlns="http://www.w3.org/2000/svg" width="48" height="48" viewBox="0 -960 960 960"><path d="M382.616-513.462H543v-227.691H382.616v40.384h120v58.615h-74.923v30.308h74.923v58h-120v40.384ZM241.078-218.847h40.383v-187.307h61.847v125.076h40.384v-125.076h66.924v187.307H491v-227.691H241.078v227.691Zm316.845 0h40.384v-62.231h120v-165.46H557.923v227.691Zm40.384-102.614v-84.693h79.616v84.693h-79.616Zm-458.306 181.46v-679.998h679.998v679.998H140.001Zm45.384-45.384h589.23v-589.23h-589.23v589.23Zm0 0v-589.23 589.23Z"/></svg>