<svg xmlns="http://www.w3.org/2000/svg" width="48" height="48" viewBox="0 -960 960 960"><path d="M491.847-513.462h40.384v-62.231h30.462v-40.383h-30.462v-125.077h-40.384v125.077h-84.693v-125.077H366.77v165.46h125.077v62.231ZM241.078-218.847h40.383v-187.307h61.847v125.076h40.384v-125.076h66.924v187.307H491v-227.691H241.078v227.691Zm316.845 0h40.384v-62.231h120v-165.46H557.923v227.691Zm40.384-102.614v-84.693h79.616v84.693h-79.616Zm-458.306 181.46v-679.998h679.998v679.998H140.001Zm45.384-45.384h589.23v-589.23h-589.23v589.23Zm0 0v-589.23 589.23Z"/></svg>