<svg xmlns="http://www.w3.org/2000/svg" width="48" height="48" viewBox="0 96 960 960"><path d="M480 955.229q-128.769-33.538-214.384-150.73-85.615-117.192-85.615-268.96V309.232L480 196.925l299.999 112.307v258.076q-10.539-4.692-22.885-8.846-12.345-4.154-22.499-5.769V340.462L480 246.77l-254.615 93.692v195.077q0 74.461 23.731 137.499 23.73 63.039 61.538 111.539 37.808 48.5 84.385 80.692 46.577 32.192 92.654 45.423l1.154-.385q4.461 7.385 12.615 17.384 8.153 10 13.461 15.308-8.616 4.615-17.654 7.115T480 955.229Zm209.223.77q-70.776 0-120.768-50.308-49.992-50.307-49.992-120.153 0-71.634 49.982-121.855 49.982-50.22 121.278-50.22 70.276 0 120.584 50.22 50.307 50.221 50.307 121.855 0 69.846-50.307 120.153-50.308 50.308-121.084 50.308Zm-13.916-47.692h30.308V801h107.307v-30.308H705.615V663.385h-30.308v107.307H568V801h107.307v107.307ZM480 578.539Z"/></svg>