<svg xmlns="http://www.w3.org/2000/svg" width="48" height="48" viewBox="0 96 960 960"><path d="M480 576ZM330.231 725.153q28.154 28.154 66.461 28.461 38.308.308 66.461-27.845l67.001-67.001-132.922-132.922-67.001 67.001Q303.078 620 303.078 659q0 39 27.153 66.153Zm299.538-298.306q-28.154-27.154-66.461-27.961-38.308-.808-66.461 27.345l-67.616 67.616 132.922 132.922 67.616-67.616Q657.922 531 657.422 493q-.5-38-27.653-66.153ZM140.001 915.999V236.001h262.693q-1.924-32.307 20.845-56.153 22.769-23.847 56.461-23.847 34.077 0 56.846 23.847 22.769 23.846 20.46 56.153h262.693v679.998H140.001ZM480 264.77q13.615 0 23.731-9.923 10.115-9.923 10.115-23.923 0-13.616-10.115-23.539-10.116-9.923-23.731-9.923-13.615 0-23.538 9.923t-9.923 23.539q0 14 9.923 23.923 9.923 9.923 23.538 9.923Z"/></svg>