<svg xmlns="http://www.w3.org/2000/svg" width="48" height="48" viewBox="0 -960 960 960"><path d="M479.768-314.232q-34.615 34.231-82.96 34.038-48.346-.192-82.576-34.038-33.846-34.23-34.038-82.268-.193-48.038 34.038-82.268l166-167q34.23-34.231 82.96-34.231t82.961 34.231q34.23 34.23 34.038 82.268-.192 48.038-34.038 82.268l-166.385 167Zm-133.922-32.614q23 23 52.577 21.769 29.577-1.231 48.731-20.769l67-68.001-100.307-100.307-68.001 67Q324.385-426.077 324.385-397t21.461 50.154Zm268.308-266.308q-23-23-52.577-21.769-29.577 1.231-48.731 20.769l-67 68.001 100.307 100.307 68.001-67q21.461-21.077 20.961-50.154t-20.961-50.154ZM140.001-140.001v-679.998h262.693q-1.924-32.307 20.845-56.153 22.769-23.847 56.461-23.847 34.077 0 56.846 23.847 22.769 23.846 20.46 56.153h262.693v679.998H140.001Zm45.384-45.384h589.23v-589.23h-589.23v589.23ZM480-791.23q13.615 0 23.731-9.923 10.115-9.923 10.115-23.923 0-13.616-10.115-23.539-10.116-9.923-23.731-9.923-13.615 0-23.538 9.923t-9.923 23.539q0 14 9.923 23.923 9.923 9.923 23.538 9.923ZM185.385-185.385v-589.23 589.23Z"/></svg>