<svg xmlns="http://www.w3.org/2000/svg" width="48" height="48" viewBox="0 -960 960 960"><path d="M122.231-594v-45.383h164.076L343.845-594H122.231Zm104.936 373.231q54.91 0 93.487-38.437t38.577-93.346q0-54.91-38.437-93.487t-93.346-38.577q-54.91 0-93.487 38.437t-38.577 93.346q0 54.91 38.437 93.487t93.346 38.577Zm556.503 0q33.484 0 57.215-23.555 23.731-23.554 23.731-57.423 0-33.484-23.555-57.215-23.554-23.731-57.038-23.731-33.869 0-57.6 23.554-23.731 23.555-23.731 57.039 0 33.869 23.554 57.6 23.555 23.731 57.424 23.731Zm-556.313-72.309q-24.818 0-42.241-17.373t-17.423-42.192q0-24.818 17.373-42.241t42.192-17.423q24.818 0 42.241 17.373t17.423 42.192q0 24.818-17.373 42.241t-42.192 17.423Zm556.347 117.692q-52.295 0-89.345-35.884-37.051-35.885-37.051-88.264 0-52.378 38.082-90.461 38.083-38.082 90.461-38.082 52.379 0 88.264 37.036 35.884 37.035 35.884 89.31 0 52.274-37 89.31-36.999 37.035-89.295 37.035Zm-558.151 0q-73.63 0-124.591-51.862T50.001-352.693q0-73.582 51.769-125.444 51.769-51.862 125.406-51.862t125.538 51.9q51.9 51.901 51.9 125.538t-51.715 125.406q-51.715 51.769-127.346 51.769ZM431.46-330.001q.231-4.23.731-8.884t.5-13.647q.385-36.21-11.846-70.339t-37.769-64.282h37.366q46.355 0 77.957-32.65 31.602-32.65 31.602-77.966v-85.804l-47.077-46.195-59.846 59.846-21.693-20.692 142-142 20.693 20.692-60.462 60.462 47.077 47.461h301.229v264.537q-16.308-7.923-32.577-12.307-16.269-4.385-33.653-4.385-54.23 0-96.153 33.654-41.923 33.654-57.923 92.499H431.46Z"/></svg>