<svg xmlns="http://www.w3.org/2000/svg" width="48" height="48" viewBox="0 -960 960 960"><path d="M480-747.922q-15.502 0-25.751-10.523T444-783.922q0-15.502 10.249-25.751T480-819.922q15.502 0 25.751 10.249T516-784.114q0 15.309-10.249 25.75-10.249 10.442-25.751 10.442Zm0-127.385q-15.502 0-25.751-10.442Q444-896.19 444-911.499q0-15.31 10.249-25.751T480-947.691q15.502 0 25.751 10.523T516-911.692q0 15.502-10.249 25.943-10.249 10.442-25.751 10.442ZM344.001-111.541q-53.723-32.991-83.823-88.11-30.099-55.119-31.714-119.196 1-73.076 41.422-133.23 40.423-60.153 106.269-91.46v-119.384q0-9.644 6.524-16.168 6.524-6.524 16.168-6.524h162.306q9.644 0 16.168 6.524 6.524 6.524 6.524 16.168v119.384q65.846 31.922 105.961 91.768 40.115 59.846 41.73 132.922-1 64.077-31.379 118.895-30.38 54.817-84.158 88.411H344.001Zm13.384-45.383h245.23q39.076-28.846 61.307-70.896 22.231-42.049 22.231-91.159 0-57.634-30.769-105.827-30.769-48.194-82.692-73.04l-34.231-16.308V-640.23H421.539v126.076l-34.231 16.308Q335.385-473 304.616-424.682q-30.769 48.319-30.769 106.102 0 48.414 22.231 90.612 22.231 42.198 61.307 71.044Zm-89.694-678.383q-15.501 0-25.75-10.442-10.249-10.441-10.249-25.75 0-15.31 10.249-25.751t25.75-10.441q15.502 0 25.751 10.523t10.249 25.476q0 15.502-10.249 25.943-10.249 10.442-25.751 10.442Zm424.618 0q-15.502 0-25.751-10.442-10.249-10.441-10.249-25.75 0-15.31 10.249-25.751t25.751-10.441q15.501 0 25.75 10.523t10.249 25.476q0 15.502-10.249 25.943-10.249 10.442-25.75 10.442Zm-338.463 87.385q-15.502 0-25.751-10.523t-10.249-25.477q0-15.502 10.249-25.751t25.751-10.249q15.501 0 25.75 10.249t10.249 25.559q0 15.309-10.249 25.75-10.249 10.442-25.75 10.442Zm252.308 0q-15.501 0-25.75-10.523t-10.249-25.477q0-15.502 10.249-25.751t25.75-10.249q15.502 0 25.751 10.249t10.249 25.559q0 15.309-10.249 25.75-10.249 10.442-25.751 10.442ZM480-318.847Z"/></svg>