<svg xmlns="http://www.w3.org/2000/svg" width="48" height="48" viewBox="0 -960 960 960"><path d="M827.69-299.925 378.924-463.693l82.153-225.305L910.612-525.23 827.69-299.925ZM488.23-631.23l-51.154 140.384L488.23-631.23Zm300.999 439.689L95.31-444.385l15-42.153 693.919 251.844-15 43.153ZM265.693-511.847q-42.852 0-72.387-29.727-29.535-29.728-29.535-72.195 0-42.467 29.535-72.195 29.535-29.727 72.387-29.727 42.467 0 72.194 29.727 29.728 29.728 29.728 72.195 0 42.467-29.728 72.195-29.727 29.727-72.194 29.727Zm-.226-45.384q24.187 0 40.476-16.241 16.288-16.241 16.288-40.25 0-24.008-16.245-40.297-16.245-16.288-40.259-16.288-24.38 0-40.476 16.241t-16.096 40.25q0 24.009 16.062 40.297 16.062 16.288 40.25 16.288Zm171.609 66.385 363.846 132.384 50.999-140.615L488.23-631.23l-51.154 140.384ZM266.078-613.384Z"/></svg>