<svg xmlns="http://www.w3.org/2000/svg" width="48" height="48" viewBox="0 -960 960 960"><path d="M709.999-326.154q-63.692 0-108.769-45.077Q556.154-416.308 556.154-480q0-63.692 45.076-108.769 45.077-45.077 108.769-45.077 63.692 0 108.769 45.077Q863.845-543.692 863.845-480q0 63.692-45.077 108.769-45.077 45.077-108.769 45.077Zm0-40.384q17.695 0 34.348-4.962Q761-376.461 774.923-387L616.999-544.924q-9.923 14.924-15.192 30.93-5.27 16.007-5.27 33.379 0 47.015 33.043 80.546 33.042 33.531 80.419 33.531Zm94-48.538q10.308-15.308 14.885-31.325 4.577-16.016 4.577-33.599 0-47.377-33.042-80.419-33.043-33.043-80.42-33.043-17.694 0-34.347 4.962-16.653 4.961-30.576 14.5l158.923 158.924ZM220.001-60.001V-900h519.998v193.692h-45.384v-60.231h-429.23v573.076h429.23v-60.231h45.384v193.692H220.001Zm45.384-88.077v42.693h429.23v-42.693h-429.23Zm0-663.844h429.23v-42.693h-429.23v42.693Zm0 0v-42.693 42.693Zm0 663.844v42.693-42.693Z"/></svg>