<svg xmlns="http://www.w3.org/2000/svg" width="48" height="48" viewBox="0 96 960 960"><path d="m840 520.922-20.072-44.85L775.078 456l44.85-20.072L840 391.078l20.072 44.85L904.922 456l-44.85 20.072L840 520.922ZM640 719.153l-44.88-98.273L496.847 576l98.273-44.88L640 432.847l44.88 98.273L783.153 576l-98.273 44.88L640 719.153Zm200 41.769-20.072-44.85L775.078 696l44.85-20.072L840 631.078l20.072 44.85L904.922 696l-44.85 20.072L840 760.922ZM265.385 950.615h429.23v-42.693h-429.23v42.693Zm0-706.537h429.23v-42.693h-429.23v42.693Zm-45.384 751.921V156.001h519.998v193.692h-45.384v-60.231h-429.23v573.076h429.23v-60.231h45.384v193.692H220.001Zm45.384-751.921v-42.693 42.693Zm0 706.537v-42.693 42.693Z"/></svg>