<svg xmlns="http://www.w3.org/2000/svg" width="48" height="48" viewBox="0 96 960 960"><path d="M290.001 761.384h254.921V716H290.001v45.384Zm0-162.692h379.998v-45.384H290.001v45.384Zm0-162.692h379.998v-45.384H290.001V436Zm-150 479.999V236.001h262.693q-1.924-32.307 20.845-56.153 22.769-23.847 56.653-23.847 33.885 0 56.654 23.847 22.769 23.846 20.46 56.153h262.693v679.998H140.001ZM480 264.77q13.615 0 23.731-9.923 10.115-9.923 10.115-23.923 0-13.616-10.115-23.539-10.116-9.923-23.731-9.923-13.615 0-23.538 9.923t-9.923 23.539q0 14 9.923 23.923 9.923 9.923 23.538 9.923Z"/></svg>