<svg xmlns="http://www.w3.org/2000/svg" width="48" height="48" viewBox="0 -960 960 960"><path d="M140-140v-680h264.31q-7-34.31 16.38-63.04 23.39-28.73 59.31-28.73t59.31 28.73q23.38 28.73 16.38 63.04H820v680H140Zm361.5-678.19q8.5-8.5 8.5-21.31 0-12.81-8.5-21.5t-21.5-8.69q-13 0-21.5 8.69t-8.5 21.5q0 12.81 8.5 21.31 8.5 8.5 21.5 8.5t21.5-8.5Zm71.19 371.04Q610-484.46 610-538.42q0-53.96-37.31-91.27Q535.38-667 481.42-667q-53.96 0-91.27 37.31-37.3 37.31-37.3 91.27 0 53.96 37.3 91.27 37.31 37.3 91.27 37.3 53.96 0 91.27-37.3Zm-387.3 261.76h589.22V-217q-58.46-55.23-133.11-88.77T480-339.31q-86.85 0-161.5 33.54T185.39-217v31.61Z"/></svg>