<svg xmlns="http://www.w3.org/2000/svg" width="48" height="48" viewBox="0 -960 960 960"><path d="M409.798-482.692q11.663 0 19.779-8.297 8.115-8.298 8.115-19.962t-8.297-19.779q-8.298-8.115-19.962-8.115t-19.779 8.297q-8.115 8.298-8.115 19.962t8.297 19.779q8.298 8.115 19.962 8.115Zm-140.77 0q11.664 0 19.779-8.297 8.116-8.298 8.116-19.962t-8.298-19.779q-8.297-8.115-19.961-8.115-11.664 0-19.779 8.297-8.116 8.298-8.116 19.962t8.298 19.779q8.297 8.115 19.961 8.115Zm281.539 0q11.664 0 19.779-8.297 8.115-8.298 8.115-19.962t-8.297-19.779q-8.298-8.115-19.962-8.115-11.663 0-19.779 8.297-8.115 8.298-8.115 19.962t8.297 19.779q8.298 8.115 19.962 8.115Zm140.769 0q11.664 0 19.779-8.297 8.116-8.298 8.116-19.962t-8.298-19.779q-8.297-8.115-19.961-8.115-11.664 0-19.779 8.297-8.116 8.298-8.116 19.962t8.298 19.779q8.297 8.115 19.961 8.115ZM480-170.77q-98.231 0-164.115-12.538-65.884-12.539-65.884-31.154v-36.308h-150v-519.997h759.998v519.997h-150v36.308q0 18.615-65.884 31.154Q578.231-170.77 480-170.77Z"/></svg>