<svg xmlns="http://www.w3.org/2000/svg" width="48" height="48" viewBox="0 -960 960 960"><path d="M500.27-298.58q8.58-8.57 8.58-20.07t-8.58-20.08q-8.58-8.58-20.27-8.58t-20.08 8.58q-8.38 8.58-8.38 20.08 0 11.5 8.38 20.07Q468.31-290 480-290q11.69 0 20.27-8.58Zm-43.58-110.34h45.39v-261.85h-45.39v261.85ZM140-140v-680h262.69q-1.92-32.31 20.85-56.15Q446.31-900 480-900q34.08 0 56.85 23.85 22.76 23.84 20.46 56.15H820v680H140Zm45.39-45.39h589.22v-589.22H185.39v589.22Zm318.34-615.76q10.12-9.93 10.12-23.73 0-13.81-10.12-23.73-10.11-9.93-23.73-9.93-13.62 0-23.54 9.93-9.92 9.92-9.92 23.73 0 13.8 9.92 23.73 9.92 9.92 23.54 9.92t23.73-9.92ZM185.39-185.39v-589.22 589.22Z"/></svg>