<svg xmlns="http://www.w3.org/2000/svg" width="48" height="48" viewBox="0 -960 960 960"><path d="M130.001-90v-376.935l62-182.756q8.417-27.085 34.054-38.158 25.638-11.073 51.56.773l169.539 74.385h88.23v45.384h-99.153l-122.154-53.308-58.693 177.462v353.152H130.001Zm181.155-672.461q-28.695 0-48.771-20.177-20.077-20.178-20.077-48.512 0-28.695 19.997-48.772 19.997-20.077 48.5-20.077 28.502 0 48.772 19.998 20.269 19.997 20.269 48.499 0 28.503-20.178 48.772-20.177 20.269-48.512 20.269Zm66.152 515.151v-45.384h452.691v45.384H377.308Zm386.627-92.691q-22.398 0-38.167-15.679-15.769-15.679-15.769-38.077 0-22.398 15.679-38.167 15.678-15.769 38.076-15.769t38.168 15.679q15.769 15.678 15.769 38.076t-15.679 38.167q-15.679 15.77-38.077 15.77Zm-306.627-7.308v-120h-80v-45.384h125.384v80h129.231v-80h45.384v165.384H457.308Z"/></svg>