<svg xmlns="http://www.w3.org/2000/svg" width="48" height="48" viewBox="0 -960 960 960"><path d="M213.847-112.31v-532.306h532.306v532.306H213.847Zm239.615-65.307h53.076v-37.692h-53.076v37.692Zm-.769-78.077h54.614q1.924-31.308 16.847-54.682 14.923-23.373 32.384-44.453 17.462-22.865 31.423-45.327 13.961-22.461 13.961-51.692 0-50.511-35.307-86.217-35.308-35.705-86.307-35.705-51 0-86.615 35.705-35.615 35.706-35.615 86.217 0 29.231 13.961 51.666 13.961 22.436 31.423 44.506 17.461 22.058 32.384 45.366 14.923 23.308 16.847 54.616ZM255.386-711.923v-40.384h449.228v40.384H255.386Zm40.384-107.692v-40.384h368.46v40.384H295.77Z"/></svg>