<svg xmlns="http://www.w3.org/2000/svg" width="48" height="48" viewBox="0 -960 960 960"><path d="M211.809-266.77q20.884 0 36.653-15.769 15.769-15.769 15.769-36.653 0-20.885-15.769-36.654-15.769-15.769-36.653-15.769-20.885 0-36.654 15.769-15.769 15.769-15.769 36.654 0 20.884 15.769 36.653 15.769 15.769 36.654 15.769Zm161.933-180.153q14.961 0 25.187-10.121 10.226-10.12 10.226-25.081t-10.121-25.187q-10.121-10.226-25.082-10.226t-25.186 10.12q-10.226 10.121-10.226 25.082t10.12 25.187q10.121 10.226 25.082 10.226Zm0-162.846q14.961 0 25.187-10.121t10.226-25.081q0-14.798-10.121-25.298-10.121-10.5-25.082-10.5t-25.186 10.395q-10.226 10.395-10.226 25.192t10.12 25.105q10.121 10.308 25.082 10.308Zm-161.933 16.923q20.884 0 36.653-15.77 15.769-15.769 15.769-36.653 0-20.885-15.769-36.654-15.769-15.769-36.653-15.769-20.885 0-36.654 15.769-15.769 15.769-15.769 36.654 0 20.884 15.769 36.653 15.769 15.77 36.654 15.77Zm0 162.846q20.884 0 36.653-15.577 15.769-15.577 15.769-36.461 0-20.885-15.769-36.654-15.769-15.769-36.653-15.769-20.885 0-36.654 15.769-15.769 15.769-15.769 36.654 0 20.884 15.769 36.461Q190.924-430 211.809-430Zm161.933 149.154q14.961 0 25.187-10.232 10.226-10.231 10.226-25.355 0-14.961-10.121-25.187t-25.082-10.226q-14.961 0-25.186 10.165-10.226 10.165-10.226 25.192 0 15.027 10.12 25.335 10.121 10.308 25.082 10.308Zm329.643-16.308q9 0 15.616-6.615 6.615-6.616 6.615-15.616T719.001-335q-6.616-6.615-15.616-6.615T687.77-335q-6.615 6.615-6.615 15.615t6.615 15.616q6.615 6.615 15.615 6.615Zm0-325.692q9 0 15.616-6.615 6.615-6.616 6.615-15.616t-6.615-15.615q-6.616-6.615-15.616-6.615t-15.615 6.615q-6.615 6.615-6.615 15.615t6.615 15.616q6.615 6.615 15.615 6.615Zm0 162.846q9 0 15.616-6.615 6.615-6.616 6.615-15.616t-6.615-15.615q-6.616-6.615-15.616-6.615t-15.615 6.615q-6.615 6.615-6.615 15.615t6.615 15.616Q694.385-460 703.385-460ZM537.588-609.769q14.961 0 25.187-10.121t10.226-25.081q0-14.798-10.166-25.298-10.165-10.5-25.192-10.5-15.027 0-25.334 10.395-10.308 10.395-10.308 25.192t10.231 25.105q10.232 10.308 25.356 10.308Zm0 162.846q14.961 0 25.187-10.121 10.226-10.12 10.226-25.081t-10.166-25.187q-10.165-10.226-25.192-10.226-15.027 0-25.334 10.12-10.308 10.121-10.308 25.082t10.231 25.187q10.232 10.226 25.356 10.226Zm0 166.077q14.961 0 25.187-10.232 10.226-10.231 10.226-25.355 0-14.961-10.166-25.187-10.165-10.226-25.192-10.226-15.027 0-25.334 10.165-10.308 10.165-10.308 25.192 0 15.027 10.231 25.335 10.232 10.308 25.356 10.308ZM140.001-140.001v-679.998h679.998v679.998H140.001Z"/></svg>