<svg xmlns="http://www.w3.org/2000/svg" width="48" height="48" viewBox="0 -960 960 960"><path d="M318.078-309.231h44.614l40.077-110.539h157.077l41.077 110.539h43.769l-147-383.153h-32.999L318.078-309.231Zm97.383-149.307 62.347-164.923h4.807l63.924 164.923H415.461ZM480.615-56.31 354.462-180H180.001v-174.461L54.079-480l125.922-125.538v-174.461h174.461l126.153-125.922 124.923 125.922h174.461v174.461L905.921-480 779.999-354.462v174.461H605.538L480.615-56.31Zm0-63.998 105.917-105.077h148.083v-147.859L841.307-480 734.551-586.756v-147.859H586.692L480.615-841.307 373.308-734.615H225.449v147.859L118.693-480l106.692 106.756v147.859h147.308l107.922 105.077Zm0-360.307Z"/></svg>