<svg xmlns="http://www.w3.org/2000/svg" width="48" height="48" viewBox="0 -960 960 960"><path d="M459.62-530.08ZM301.69-225.39v-383.07h-196.3v383.07h196.3ZM60-180v-473.84h287.08V-180H60Zm143.77-323.84q11.31 0 19.92-8.52 8.62-8.52 8.62-19.87 0-11.31-8.61-19.92-8.61-8.62-20.5-8.62-10.97 0-19.39 8.61t-8.42 20.5q0 10.97 8.51 19.39 8.52 8.43 19.87 8.43ZM636.92-84.62v-202.69q-9-4.78-14.5-13.43-5.5-8.64-5.5-19.26 0-15.35 10.79-25.94 10.78-10.6 25.26-10.6 15.93 0 26.48 10.6Q690-335.35 690-320q0 10.62-5 19.04t-15 13.61v202.73h-33.08Zm-77-125.53q-24.61-21-38.81-49.63-14.19-28.63-14.19-60.22 0-61.36 43.23-103.95t103.55-42.59q61.22 0 103.76 42.59Q800-381.36 800-320q0 31.81-13.39 61.02-13.38 29.21-38 50.21l-24-23.38q19.83-16.3 31.07-39.15 11.24-22.85 11.24-48.89 0-47.58-32.9-80.42-32.91-32.85-80.56-32.85-46.54 0-80 32.9Q540-367.65 540-320q0 25.03 11.77 47.55 11.77 22.53 30.54 39.3l-22.39 23Zm-70.61 72q-39.77-34.62-61.08-82.52-21.31-47.9-21.31-99.33 0-103.36 72.09-174.95 72.09-71.59 174.52-71.59 103.39 0 174.93 71.59T900-320q0 51.87-21 99.24-21 47.38-60.77 81.61l-22.23-23q34.77-29.39 52.85-70.51 18.07-41.12 18.07-87.34 0-89.65-61.89-151.56-61.9-61.9-151.54-61.9-88.57 0-151.03 61.9Q440-409.65 440-320q0 46.15 18.58 87.31 18.57 41.15 53.34 70.92l-22.61 23.62ZM100-734.61V-780h764.61v220.08q-10.53-10.31-21.57-18.7Q832-587 819.23-594.46v-140.15H100Zm103.85 317.69Z"/></svg>