<svg xmlns="http://www.w3.org/2000/svg" width="48" height="48" viewBox="0 -960 960 960"><path d="M480-140.001q-59.615 0-110.615-28.693-50.999-28.692-76.845-81.307H177.694v-45.383h95.077q-8.539-29.077-8.731-58.975-.192-29.898-.192-60.103h-86.77v-45.384h86.77q0-31.692.115-63.269.115-31.578 10.423-61.501h-96.692v-45.383h117.692q14.769-28.385 38.346-49.193 23.577-20.807 52.346-34.038l-77.384-76.385 29.999-29.614 90.923 90.923q25.817-8.462 51.754-8.462 25.937 0 51.63 8.462l91.307-90.923 29.999 29.614-76.384 76.385q28.769 13.231 50.918 34.52 22.148 21.289 38.005 48.711h116.077v45.383h-97.308q11.308 29.923 10.615 61.501-.692 31.577-.692 63.269h87.385v45.384h-87.385q0 30.205.115 60.103.116 29.898-8.423 58.975h95.693v45.383H668.076q-25.231 53.615-76.488 81.807Q540.331-140.001 480-140.001Zm.034-45.384q70.427 0 120.273-49.483 49.847-49.483 49.847-120.055V-520q0-70.572-49.881-120.055-49.88-49.483-120.307-49.483-70.427 0-120.273 49.483Q309.846-590.572 309.846-520v165.077q0 70.572 49.881 120.055 49.88 49.483 120.307 49.483Zm-73.88-144.616h147.692v-45.383H406.154v45.383Zm0-169.538h147.692v-45.383H406.154v45.383ZM480-437.154h.308H480h.308H480h.308H480h.308H480Z"/></svg>