<svg xmlns="http://www.w3.org/2000/svg" width="48" height="48" viewBox="0 -960 960 960"><path d="M457.308-104.617v-120H170.001v-45.384h619.998v45.384H502.692v120h-45.384ZM326.906-491.461q11.863 0 19.979-8.297Q355-508.056 355-519.72t-8.296-19.779q-8.295-8.115-19.956-8.115-12.055 0-19.979 8.297-7.923 8.298-7.923 19.962t8.099 19.779q8.098 8.115 19.961 8.115Zm306.539 0q11.862 0 19.978-8.297 8.115-8.298 8.115-19.962t-8.295-19.779q-8.296-8.115-19.957-8.115-12.055 0-19.978 8.297-7.923 8.298-7.923 19.962t8.098 19.779q8.099 8.115 19.962 8.115ZM220.001-597.537l71.482-207.076h376.901l71.615 207.076v272.921h-45.384v-85.692h-429.23v85.692h-45.384v-272.921Zm57.768-30.845h405.077l-44.462-130.847H321.616l-43.847 130.847Z"/></svg>