<svg xmlns="http://www.w3.org/2000/svg" width="48" height="48" viewBox="0 -960 960 960"><path d="m696.23-588.46-3.08-39.08q-14.69-2.61-25.65-9.38-10.96-6.77-18.35-15.54l-33.07 17.07-23.62-37.53 31-22q-5.77-12.93-5.77-29.31t5.77-29.31l-31-22 23.62-37.54L649.15-796q7.77-8.77 17.93-15.54 10.15-6.77 26.07-9.38l3.08-39.08h45.61l3.08 39.08q15.54 3 25.69 9.57 10.16 6.58 17.93 15.35l33.07-17.08 23.62 37.54-31 22q5.77 12.93 5.77 29.12t-5.77 29.5l31 22-23.62 37.53-33.07-17.07q-7.77 8.77-18.54 15.54t-25.08 9.38l-3.08 39.08h-45.61Zm69.04-89.35q18.81-18.8 18.81-46.42t-18.81-46.42q-18.81-18.81-46.42-18.81-27.62 0-46.43 18.81-18.81 18.8-18.81 46.42t18.81 46.42Q691.23-659 718.85-659q27.61 0 46.42-18.81ZM286.69-321.69q20.31 0 34.89-13.77 14.57-13.77 14.57-34.08 0-20.69-14.57-35.08Q307-419 286.69-419q-20.3 0-34.07 14.38-13.77 14.39-13.77 35.08 0 20.31 13.77 34.08t34.07 13.77Zm386 0q20.31 0 34.69-13.77 14.39-13.77 14.39-34.08 0-20.69-14.39-35.08Q693-419 672.69-419q-20.31 0-34.27 14.38-13.96 14.39-13.96 35.08 0 20.31 13.96 34.08t34.27 13.77Zm46.16-150.77q26.3 0 51.69-3.27Q795.92-479 820-488.08V-140h-55.38v-82.85H195.38V-140H140v-336.92L231-740h237.31q-.62 7.23-.73 14.04-.12 6.81.27 14.04 0 4.54.3 8.65.31 4.12.93 8.66H263l-60 176.77h372.62q30.69 22.92 67.73 34.15 37.03 11.23 75.5 11.23Z"/></svg>