<svg xmlns="http://www.w3.org/2000/svg" width="48" height="48" viewBox="0 96 960 960"><path d="M436.77 875.999q0-70.156-26.083-131.832-26.084-61.675-71.731-107.806-45.647-46.131-107.063-72.747-61.416-26.615-131.276-26.615V276.001h759.997v599.998H436.77Zm-126.154 0q0-88.385-61.237-150.615-61.238-62.231-148.762-62.231v-80.771q60.99 0 113.671 23.27 52.681 23.269 91.972 62.921t62.209 93.065q22.918 53.412 22.918 114.361h-80.771Zm-126.154 0q0-35.692-24.583-61.192t-59.262-25.5v-80.77q69.308.384 116.962 49.254 47.654 48.87 47.654 118.208h-80.771Z"/></svg>