<svg xmlns="http://www.w3.org/2000/svg" width="48" height="48" viewBox="0 96 960 960"><path d="m588.077 565.692 153.076-88.153-153.076-88.154L435 477.539l153.077 88.153Zm0 120.846 108.077-62.461v-79.769l-108.077 63.231L480 544.308v79.769l108.077 62.461ZM184.462 875.999q0-35.692-24.551-61.192t-59.294-25.5v-80.77q69.308.384 116.962 49.124 47.654 48.739 47.654 118.338h-80.771Zm126.154 0q0-88.385-61.151-150.615-61.151-62.231-148.848-62.231v-80.771q60.923 0 113.637 23.27 52.715 23.269 92.055 62.905 39.339 39.636 62.209 93.077 22.869 53.441 22.869 114.365h-80.771Zm126.154 0q0-70.363-26.083-131.935-26.084-61.572-71.731-107.703-45.647-46.131-107.029-72.747-61.382-26.615-131.31-26.615V276.001h759.997v599.998H436.77Z"/></svg>