<svg xmlns="http://www.w3.org/2000/svg" width="48" height="48" viewBox="0 -960 960 960"><path d="m442.769-440-86.46-86.46q16.769-18.384 38.884-29.615 22.115-11.23 47.576-11.23 25.461 0 47.576 11.23 22.115 11.231 38.884 29.615L442.769-440ZM288.465-100.001 859.999-671.92v571.919H288.465Zm436.612-45.384h89.538v-416.922l-89.538 89.538v327.384Zm-425.692-437.23-32.384-32.384q33.846-37.23 79.307-58.038 45.462-20.807 96.461-20.807 50.615 0 95.692 20.423 45.076 20.422 78.538 57.653l-32.384 33.153q-28.231-29.307-64.692-47-36.462-17.692-77.154-17.692-41.076 0-77.923 17.692-36.846 17.693-65.461 47Zm-91.846-92.231-32.384-32.769q52.23-55.384 121.846-83.884 69.615-28.5 145.768-28.5 75.769 0 145.192 28.693 69.423 28.692 121.269 83.691l-32.384 32.769q-47.769-46.692-107.5-72.846-59.731-26.154-126.577-26.154t-127.153 26.154q-60.308 26.154-108.077 72.846Z"/></svg>