<svg xmlns="http://www.w3.org/2000/svg" width="48" height="48" viewBox="0 -960 960 960"><path d="M480-309.54q-70.681 0-120.571-49.889Q309.54-409.319 309.54-480t49.889-120.571Q409.319-650.46 480-650.46t120.571 49.889Q650.46-550.681 650.46-480t-49.889 120.571Q550.681-309.54 480-309.54ZM140.001-140.001v-214.307h45.384v168.923h168.923v45.384H140.001Zm465.691 0v-45.384h168.923v-168.923h45.384v214.307H605.692ZM140.001-605.692v-214.307h214.307v45.384H185.385v168.923h-45.384Zm634.614 0v-168.923H605.692v-45.384h214.307v214.307h-45.384Z"/></svg>