<svg xmlns="http://www.w3.org/2000/svg" width="48" height="48" viewBox="0 -960 960 960"><path d="M583.69-170q-9.92 0-16.31-6.39-6.38-6.38-6.38-16.3 0-9.93 6.38-16.31 6.39-6.38 16.31-6.38h168.08l-136.85-96.08q-7.3-5.46-9.42-14.58-2.11-9.11 3.35-16.42 5.07-7.69 14.19-9.62 9.11-1.92 16.81 3.16l137.84 95.84L719.62-411q-3.85-8.31.8-16.62 4.66-8.3 13.96-12.15 8.93-3.84 17.43.5 8.5 4.35 12.34 13.27l56.08 157.16 44.39-160.93q2.23-8.92 9.73-13.58 7.5-4.65 16.8-2.42 8.93 2.23 14.08 9.73t2.92 16.42L840.92-170H583.69ZM282.31-624.62h315.38V-670H282.31v45.38Zm0 167.31h195.38v-45.38H282.31v45.38ZM130-184.23V-830h620v271.85q-8.85-1.23-17.69-1.54-8.85-.31-17.7-.31-94.23 0-164.42 70.5Q480-419 480-325.39q0 8.85.31 17.7.31 8.84 1.54 17.69H235.77L130-184.23Z"/></svg>