<svg xmlns="http://www.w3.org/2000/svg" width="48" height="48" viewBox="0 0 48 48"><path d="m16 9.6-1.55-4.7L16 4.4l1.55 4.7Zm7.15-2.25v-4.7h1.7v4.7ZM32 9.6l-1.55-.5L32 4.4l1.55.5Zm11.35 35.95.25-2.25-12.3-1.9-2.25-7.4 1.9-3.55 1.85 5.9 2.15-.7-5.2-16.4 1.35-.75 9 17.1h4.7v-2.25h-3.35L32 15.45l-5 2.75 2.95 9.15-3.35 6.5 2.95 9.55Zm-10.55-9.2-2.85-9 2.85 9Zm2.15-.7Zm-30.3 9.9L4.4 43.3l12.3-1.9 2.25-7.4-1.9-3.55-1.85 5.9-2.15-.7 5.2-16.4-1.35-.75-9 17.1H3.2v-2.25h3.35L16 15.45l5 2.75-2.95 9.15 3.35 6.5-3 9.55Zm10.55-9.2 2.85-9-2.85 9Zm-2.15-.7Z"/></svg>