<svg xmlns="http://www.w3.org/2000/svg" width="48" height="48" viewBox="0 -960 960 960"><path d="M703.462-493.462h33.076v-77.692l67.308 38.538 16.538-28.23L753.076-600l67.308-39.154-16.538-28.23-67.308 38.538v-77.692h-33.076v77.692l-67.308-38.538-16.538 28.23L686.924-600l-67.308 39.154 16.538 28.23 67.308-38.538v77.692ZM19.386-147.694v-664.612H940v664.612H19.386Zm318.031-254.998q45.814 0 77.122-31.262 31.307-31.262 31.307-77.076 0-46.199-31.262-77.507-31.262-31.307-77.077-31.307-46.198 0-77.506 31.262-31.307 31.262-31.307 77.461 0 45.814 31.262 77.122 31.262 31.307 77.461 31.307ZM95.54-193.078h483.844q-44.231-63.999-106.538-98.345-62.307-34.346-135.384-34.346-73.461 0-136.076 34.346-62.615 34.346-105.846 98.345Z"/></svg>