<svg xmlns="http://www.w3.org/2000/svg" width="48" height="48" viewBox="0 -960 960 960"><path d="m730.15-134.23-32-32 81.31-80.92h-272v-45.39h272l-81.31-80.92 32-32 135.62 135.61-135.62 135.62ZM820-569.54h-45.39v-205.07h-85.38v82.69H270.77v-82.69h-85.38v589.22h247.15V-140H140v-680h259.69q5.08-29.23 27.58-48.46T480-887.69q30.42 0 52.83 19.23 22.4 19.23 27.48 48.46H820v250.46ZM505.81-780.35q10.34-10.34 10.34-25.8t-10.34-25.81q-10.35-10.35-25.81-10.35-15.46 0-25.81 10.35-10.34 10.35-10.34 25.81 0 15.46 10.34 25.8Q464.54-770 480-770q15.46 0 25.81-10.35Z"/></svg>