<svg xmlns="http://www.w3.org/2000/svg" width="48" height="48" viewBox="0 -960 960 960"><path d="M784-330.615q-22.361 0-43.411-5.115-21.05-5.116-41.666-13.5-18.769-7.616-38.529-14-19.76-6.385-40.394-6.385-22.747 0-43.412 6.615-20.665 6.616-39.895 16.846l-16.154-36.768q23.461-12.231 48.356-19.654 24.894-7.423 51.105-7.423 22.313 0 43.317 5.308 21.004 5.307 41.695 13.307 18.834 8 38.594 14.193 19.76 6.192 40.394 6.192 22.716 0 43.543-6.345 20.827-6.344 40.149-16.732l16.154 37.154q-23.462 12.23-48.548 19.269-25.087 7.038-51.298 7.038ZM784-211q-22.361 0-43.411-5.116-21.05-5.115-41.666-13.5-18.769-7.615-38.529-14Q640.634-250 620-250q-22.747 0-43.412 6.615t-39.895 16.846l-16.154-36.768q23.461-12.231 48.356-19.654 24.894-7.423 51.105-7.423 22.313 0 43.317 5.307 21.004 5.308 41.695 13.308 18.834 8 38.594 14.192 19.76 6.193 40.394 6.193 22.716 0 43.543-6.345 20.827-6.345 40.149-16.732l16.154 37.153q-23.462 12.231-48.548 19.269Q810.211-211 784-211Zm0 119.614q-22.361 0-43.411-5.115t-41.666-13.5q-18.769-7.615-38.529-14-19.76-6.385-40.394-6.385-22.747 0-43.412 6.616-20.665 6.615-39.895 16.846l-16.154-36.769q23.461-12.231 48.356-19.654 24.894-7.423 51.105-7.423 22.313 0 43.317 5.308t41.695 13.308q18.834 8 38.594 14.192T784-131.77q22.716 0 43.543-6.344 20.827-6.345 40.149-16.732l16.154 37.153q-23.462 12.23-48.548 19.269-25.087 7.038-51.298 7.038ZM447.307-161.77q-112.153-11.769-189.729-94.422Q180.001-338.847 180.001-455q0-62.481 23.847-114.893 23.846-52.413 63.999-94.452L480-872.306l212.153 208.153q34.153 34.923 56.423 77.692 22.269 42.769 28.653 92.768H505q-23.846 0-40.769 16.924-16.924 16.923-16.924 40.769v274.229Z"/></svg>