<svg xmlns="http://www.w3.org/2000/svg" width="48" height="48" viewBox="0 -960 960 960"><path d="M480-505.54 211.08-661.69l-25.31 14v23.3L480-454.46 774.61-625v-22.69l-26.3-14L480-505.54Zm-340 219v-386.92l340-195.46 340 195.46V-424q-21.54-9.92-44.92-14.69-23.39-4.77-47.77-4.77-100.85 0-173.31 72.15-72.46 72.16-72.46 174.23 0 21.93 3.54 41.73 3.54 19.81 10.61 39.12l19.39 45.92L140-286.54ZM727.31-78.85q8 0 13.61-5.31 5.62-5.3 5.62-13.92 0-8.61-5.62-13.92-5.61-5.31-13.61-5.31-8.62 0-13.93 5.31-5.3 5.31-5.3 13.92 0 8.62 5.3 13.92 5.31 5.31 13.93 5.31Zm-17.69-78.46H745v-159.23h-35.38v159.23Zm-104.2 82q-50.8-50.31-50.8-121.77 0-71.69 50.8-122.5 50.81-50.8 121.89-50.8 71.07 0 121.88 50.8Q900-268.77 900-197.08q0 71.46-50.81 121.77T727.31-25q-71.08 0-121.89-50.31Z"/></svg>