<svg xmlns="http://www.w3.org/2000/svg" width="48" height="48" viewBox="0 -960 960 960"><path d="M626.999-626.538v-184.229h30.308v184.229h-30.308Zm-155.614 0v-29.923H552v-47.23h-80.615v-107.076h110.922v30.307h-80.614v46.461h80.614v107.461H471.385Zm230.998 0v-184.229H813.69v107.076h-80.999v77.153h-30.308Zm30.308-107.461h50.692v-46.461h-50.692v46.461Zm42.077 591.69q-111.615.384-224.614-56.615-113-57-204.192-147.808-91.192-90.807-148.499-204.114-57.308-113.307-57.308-224.922 0-10.615 1-22.423 1-11.808 2.429-21.808h189.108l37.692 172.845-113.153 110.308q57.538 95.692 127.615 165.077 70.077 69.384 161.539 119.308l111.23-116.385 160.999 35.385v188.245q-9.615.907-21.575 1.907-11.959 1-22.271 1Zm-540.614-435.69 86.001-83.154-24.539-113.462H185.539q-1.923 42.462 11.423 91.462t37.192 105.154Zm354.384 346.845q39.077 19 90.154 31.384 51.077 12.385 94.538 12.077v-109.692l-101.461-20.616-83.231 86.847ZM234.154-577.999Zm354.384 346.845Z"/></svg>