<svg xmlns="http://www.w3.org/2000/svg" width="48" height="48" viewBox="0 -960 960 960"><path d="M71.386-407.846q-26.384-41.847-38.884-84.385-12.5-42.538-12.5-83.769 0-101.538 71.23-172.768 71.23-71.231 172.768-71.231 61.846 0 117.769 28.693 55.923 28.692 98.231 80.231 42.308-51.539 98.231-80.231Q634.154-819.999 696-819.999q101.538 0 172.768 71.231 71.231 71.23 71.231 172.768 0 40.077-12.5 82.115-12.5 42.039-38.885 85.039-8.077-8.539-17.884-14.538-9.808-6-19.961-10.462 21.923-37.308 32.884-72.654 10.962-35.346 10.962-69.5 0-82.692-57.961-140.654Q778.692-774.615 696-774.615q-52.307 0-106.577 32.115Q535.154-710.384 480-640.153 424.846-710.384 370.577-742.5 316.307-774.615 264-774.615q-82.692 0-140.654 57.961Q65.385-658.692 65.385-576q0 34.539 10.962 70.269 10.961 35.731 32.5 72.27-10.154 4.846-19.769 11.154-9.615 6.307-17.692 14.461ZM20.002-99.232v-41.461q0-36.692 39.884-60.307 39.884-23.616 103.192-23.616 12.231 0 22.846.693 10.615.692 20.461 2.692-6.846 15.077-10.461 31.23-3.615 16.154-3.615 34.231v56.538H20.001Zm239.999 0v-54.999q0-57.308 60.923-91.923T480-280.769q99.153 0 159.576 34.615 60.423 34.615 60.423 91.923v54.999H260.001Zm507.69 0v-56.538q0-18.077-3.115-34.231-3.115-16.153-10.346-31.23 10.231-2 20.846-2.692 10.615-.693 22.231-.693 63.923 0 103.307 23.616 39.385 23.615 39.385 60.307v41.46H767.691ZM163.078-256.154q-25.538 0-43.346-17.808-17.807-17.807-17.807-43.345 0-25.154 17.807-42.962 17.808-17.807 43.346-17.807 25.153 0 43.153 17.807 18 17.808 18 42.962 0 25.538-18 43.345-18 17.808-43.153 17.808Zm634.229 0q-25.154 0-43.154-17.808-17.999-17.807-17.999-43.345 0-25.154 17.999-42.962 18-17.807 43.154-17.807 25.538 0 43.345 17.807 17.808 17.808 17.808 42.962 0 25.538-17.808 43.345-17.807 17.808-43.345 17.808ZM480-310.769q-43.076 0-73.461-30.384-30.384-30.384-30.384-73.461 0-44.076 30.384-73.96 30.385-29.884 73.461-29.884 44.076 0 73.961 29.884 29.884 29.884 29.884 73.96 0 43.077-29.884 73.461-29.885 30.384-73.961 30.384Z"/></svg>