<svg xmlns="http://www.w3.org/2000/svg" width="48" height="48"><path d="m34.35 37.25 1.7 1.65q-2.2 1.6-4.7 2.65-2.5 1.05-5.2 1.35v-2.25q2.25-.3 4.35-1.15 2.1-.85 3.85-2.25zM42.95 26q-.35 2.7-1.375 5.2T38.9 35.85l-1.65-1.6q1.4-1.8 2.25-3.9.85-2.1 1.15-4.35zm-3.9-13.9q1.6 2.2 2.575 4.675.975 2.475 1.325 5.175h-2.3q-.3-2.25-1.15-4.375-.85-2.125-2.25-3.875zM21.9 5.05V7.3q-6.3.9-10.425 5.625Q7.35 17.65 7.35 23.95q0 6.3 4.1 11.025 4.1 4.725 10.4 5.675v2.25q-3.6-.4-6.675-2.025Q12.1 39.25 9.85 36.7t-3.525-5.825Q5.05 27.6 5.05 23.95q0-7.35 4.8-12.75T21.9 5.05zm4.25 0q2.7.35 5.175 1.375Q33.8 7.45 36.05 9.1l-1.6 1.7q-1.9-1.35-3.975-2.25-2.075-.9-4.325-1.25zM24 33.3 14.7 24l1.6-1.6 6.55 6.55V14.7h2.3v14.25l6.55-6.6L33.3 24z"/></svg>