<svg xmlns="http://www.w3.org/2000/svg" width="48" height="48" viewBox="0 96 960 960"><path d="M352.604 880.614q-23.334 0-40.276-17.03-16.942-17.031-16.942-40.365 0-23.334 17.03-40.276 17.031-16.942 40.365-16.942 23.334 0 40.276 17.03 16.942 17.031 16.942 40.365 0 23.334-17.03 40.276-17.031 16.942-40.365 16.942Zm254.615 0q-23.334 0-40.276-17.03-16.942-17.031-16.942-40.365 0-23.334 17.03-40.276 17.031-16.942 40.365-16.942 23.334 0 40.276 17.03 16.942 17.031 16.942 40.365 0 23.334-17.03 40.276-17.031 16.942-40.365 16.942ZM352.604 633.307q-23.334 0-40.276-17.031-16.942-17.03-16.942-40.365 0-23.334 17.03-40.276 17.031-16.942 40.365-16.942 23.334 0 40.276 17.031 16.942 17.03 16.942 40.365 0 23.334-17.03 40.276-17.031 16.942-40.365 16.942Zm254.615 0q-23.334 0-40.276-17.031-16.942-17.03-16.942-40.365 0-23.334 17.03-40.276 17.031-16.942 40.365-16.942 23.334 0 40.276 17.031 16.942 17.03 16.942 40.365 0 23.334-17.03 40.276-17.031 16.942-40.365 16.942ZM352.604 385.999q-23.334 0-40.276-17.03-16.942-17.031-16.942-40.365 0-23.334 17.03-40.276 17.031-16.942 40.365-16.942 23.334 0 40.276 17.03 16.942 17.031 16.942 40.365 0 23.334-17.03 40.276-17.031 16.942-40.365 16.942Zm254.615 0q-23.334 0-40.276-17.03-16.942-17.031-16.942-40.365 0-23.334 17.03-40.276 17.031-16.942 40.365-16.942 23.334 0 40.276 17.03 16.942 17.031 16.942 40.365 0 23.334-17.03 40.276-17.031 16.942-40.365 16.942Z"/></svg>