<svg xmlns="http://www.w3.org/2000/svg" width="48" height="48" viewBox="0 96 960 960"><path d="M290.001 965.999V719.307h-160V584.77l329.538-142.385v-51.616q-36.231-7.692-59.538-36.269-23.308-28.577-23.308-65.807 0-42.923 30.692-72.808 30.692-29.884 73.834-29.884 42.319 0 73.011 29.936 30.692 29.935 30.692 72.756H538.77q0-24.078-16.985-40.693-16.985-16.616-41.116-16.616-23.746 0-41.169 16.491-17.424 16.49-17.424 40.818 0 25.257 17.449 42.706 17.448 17.448 42.706 17.448h22.691v93.538l325.077 143v133.922h-160v246.692H290.001Zm45.383-294.615h289.232-289.232Zm-160 2.54h114.617v-47.923h379.998v47.923h114.617V617L482.231 481.461 175.384 617.384v56.54Zm160 246.692h289.232V671.384H335.384v249.232Z"/></svg>