<svg xmlns="http://www.w3.org/2000/svg" width="48" height="48" viewBox="0 96 960 960"><path d="M657.308 391.386v-200h45.384v200h-45.384ZM680 521.385q-10.269 0-17.634-7.365Q655 506.654 655 496.385q0-10.269 7.366-17.634 7.365-7.365 17.634-7.365t17.634 7.365Q705 486.116 705 496.385t-7.366 17.635q-7.365 7.365-17.634 7.365Zm95.383 392.306q-111.614.384-224.614-56.615-112.999-57-203.999-147.808-91-90.807-148.499-204.114-57.5-113.307-57.5-224.922 0-10.615 1-22.423 1-11.808 3-21.808h188.536L371 408.846 257.846 519.154q57.539 95.692 127.616 165.077Q455.539 753.615 547 803.539l111.615-116.385 160.614 35.385v188.152q-9.615 1-21.615 2-12 1-22.231 1ZM234.77 478.001l86-83.154-24.539-113.462H186.539q-1.923 42.462 11.231 91.462t37 105.154Zm354.768 346.845q38.692 19 89.769 31.384 51.077 12.385 94.539 12.077V758.615l-101.462-20.616-82.846 86.847ZM234.77 478.001Zm354.768 346.845Z"/></svg>