<svg xmlns="http://www.w3.org/2000/svg" width="48" height="48" viewBox="0 -960 960 960"><path d="M480-99.617Q329.001-230.463 253.539-343.154q-75.461-112.692-75.461-206.923 0-138.46 89.577-224.191Q357.231-859.999 480-859.999q34.769 0 67.538 7.462 32.769 7.461 62.922 21.769L400.846-620.769v142.154H543l209.768-209.384q14.077 30.692 21.615 65.23 7.539 34.539 7.539 72.692 0 94.231-75.461 206.923Q630.999-230.463 480-99.617Zm-6.076-452.076v-38.691l230.768-231.153 39.075 39.076-231.152 230.768h-38.691Zm300.69-261.999-39.076-38.691 41.692-41.692 39.075 39.076-41.691 41.307Z"/></svg>