<svg xmlns="http://www.w3.org/2000/svg" width="48" height="48" viewBox="0 -960 960 960"><path d="M509.23-260.23h15.39V-291h-15.39q-60.58 0-102.6-42.21-42.01-42.21-42.01-102.41V-451h-30.77v15.38q0 72.86 51.26 124.12 51.26 51.27 124.12 51.27Zm-214.27 43.92q-75.73-76.69-75.73-186.5 0-72.27 23.77-146.23t61.58-134.38q37.81-60.42 84.17-98.69 46.36-38.27 90.87-38.27 45.15 0 91.27 38.05t83.86 98.45q37.73 60.41 61.49 134.61Q740-475.08 740-402.81q0 109.81-75.82 186.5-75.81 76.69-184.65 76.69t-184.57-76.69Zm347.35-21.97q66.92-67.89 66.92-164.24 0-64.25-21.54-132.63-21.54-68.39-55.48-124.8t-74.54-93.04q-40.59-36.62-78.05-36.62-37.47 0-78.24 36.34-40.76 36.35-74.53 92.73-33.77 56.39-55.31 125.08T250-402.69q0 96.52 66.92 164.41 66.93 67.89 162.7 67.89 95.76 0 162.69-67.89ZM479.62-480Z"/></svg>