<svg xmlns="http://www.w3.org/2000/svg" width="48" height="48" viewBox="0 96 960 960"><path d="M195.456 805.999q-43.17 0-73.159-29.97-29.988-29.971-29.988-73.115 0-43.145 29.988-73.529Q152.286 599 195.456 599q35.083 0 65.121 20.423 30.038 20.423 37.269 58.347h248.078q6.846-72.77 57-125.462 50.154-52.692 121.384-62.23l-65.692-298.694H504.078v-45.383h192.614l83.153 380.922h-15.461q-72.842 0-124.19 51.642t-51.348 124.896v19.692h-291q-7.231 39.154-37.269 61-30.038 21.846-65.121 21.846Zm569.15.77q-43.145 0-73.529-29.971-30.384-29.97-30.384-73.115 0-43.144 30.162-73.529 30.163-30.384 73.308-30.384 43.144 0 73.336 30.162 30.192 30.163 30.192 73.308 0 43.144-29.97 73.336-29.97 30.193-73.115 30.193ZM521.461 1009.08 307.078 899.769h140.384V825.77l214.383 110.307H521.461v73.003Z"/></svg>