<svg xmlns="http://www.w3.org/2000/svg" width="48" height="48" viewBox="0 -960 960 960"><path d="M262-323.85q-59.46 0-90.69-15.92-31.23-15.92-57.85-60.15-15.77-26.16-25.88-60.27-10.12-34.12-17.96-63.66H43.85l21.38-91.07q51.39-10.62 96.69-15.62 45.31-5 88.85-5 56 0 104.73 8.85 48.73 8.84 81.35 30.54h87.3q29.77-22.23 80.24-31.12 50.46-8.88 105.84-8.88 42.92 0 88.04 5.3 45.11 5.31 96.5 15.93l21.38 91.07h-25.77q-7.84 29.54-17.96 63.47-10.11 33.92-25.88 60.46-25.23 43.23-57.16 59.65-31.92 16.42-91.38 16.42-61.46 0-102-27.23t-62.54-84.07q-6-16-8.81-32-2.8-16-7.8-32-4-12.77-13.73-19.23-9.74-6.47-23.12-6.47-12.77 0-22.12 6.77-9.34 6.77-14.34 18.93-5 16-8.69 31.8-3.7 15.81-8.7 32.2-17 58.84-59.65 85.07-42.65 26.23-104.5 26.23Zm0-33.46q83.08 0 113.08-52.46t30-123.69q0-28.62-23.43-39.81-23.42-11.19-50.88-18.42-33.92-8.77-71.15-9.89-37.24-1.11-71.39 3.89-31.08 4.61-50 19.88T119.31-538q0 29.38 5 56.08 5 26.69 15 50.07 19.38 42.39 44.77 58.47 25.38 16.07 77.92 16.07Zm436 0q52.54 0 78.54-16.38 26-16.39 43.77-58.16 10-23 15.19-50.19 5.19-27.19 5.19-56.96 0-25.54-18.92-40.81-18.92-15.27-51-18.88-33.77-4.39-70.89-3.08-37.11 1.31-70.65 10.08-27.46 7.23-50.88 18.23-23.43 11-23.43 40 0 70.84 30 123.5 30 52.65 113.08 52.65Z"/></svg>