<svg xmlns="http://www.w3.org/2000/svg" width="48" height="48" viewBox="0 -960 960 960"><path d="M480.302-230.385q54.852 0 92.274-39.394 37.423-39.395 37.423-94.067v-156.925h-30.768v156.925q0 42.384-28.366 72.538Q522.5-261.154 480-261.154q-42.087 0-70.659-30.154-28.572-30.154-28.572-72.538v-219.231q0-19.039 11.832-31.635 11.831-12.596 30.171-12.596 18.69 0 30.267 12.596 11.577 12.596 11.577 31.635v204.616h30.768v-204.616q0-30.861-20.962-52.931-20.962-22.069-51.499-22.069-30.538 0-51.73 22.069-21.192 22.07-21.192 52.931v219.231q0 54.672 37.987 94.067 37.988 39.394 92.314 39.394ZM180.001-100.001v-759.998h400.614l199.384 199.384v560.614H180.001Zm380.153-714.614v174.461h174.461L560.154-814.615Z"/></svg>