<svg xmlns="http://www.w3.org/2000/svg" width="48" height="48" viewBox="0 -960 960 960"><path d="M180.001-100.001v-759.998h405.075l194.923 226.307v464.307L585.614-363.77q12.231-15.615 18.539-34.762 6.307-19.147 6.307-40.853 0-54.903-37.778-92.681-37.779-37.779-92.682-37.779t-92.682 37.779q-37.778 37.778-37.778 92.681 0 54.904 37.778 92.682 37.779 37.779 92.682 37.779 20.809 0 38.905-4.808Q537-318.54 556.23-330.924l222.846 222.845v8.078H180.001Zm299.902-254.307q-35.134 0-60.057-25.02-24.923-25.019-24.923-60.153t25.02-60.057q25.02-24.923 60.154-24.923t60.057 25.019q24.923 25.02 24.923 60.154t-25.02 60.057q-25.02 24.923-60.154 24.923Z"/></svg>