<svg xmlns="http://www.w3.org/2000/svg" width="48" height="48"><path d="M22.85 22.15h2.3V12.5h-2.3zM24 28.2q.5 0 .875-.375t.375-.875q0-.5-.375-.875T24 25.7q-.5 0-.875.375t-.375.875q0 .5.375.875T24 28.2zm0 13.75q-.55 0-.95-.3-.4-.3-.65-.95-.95-2.3-2.25-4.5t-3.65-5.25q-2.45-3.15-3.975-6.05T11 18q0-5.45 3.775-9.225Q18.55 5 24 5q5.45 0 9.225 3.775Q37 12.55 37 18q0 4.3-1.675 7.2-1.675 2.9-3.825 5.75-2.45 3.2-3.725 5.325T25.6 40.7q-.25.6-.675.925-.425.325-.925.325zm0-3.4q1.2-2.45 2.425-4.4 1.225-1.95 3.275-4.6 2.15-2.85 3.6-5.35 1.45-2.5 1.45-6.2 0-4.45-3.15-7.6-3.15-3.15-7.6-3.15-4.45 0-7.6 3.15-3.15 3.15-3.15 7.6 0 3.7 1.45 6.2t3.6 5.35q2.05 2.65 3.275 4.6Q22.8 36.1 24 38.55zM24 18z"/></svg>