<svg xmlns="http://www.w3.org/2000/svg" width="48" height="48" viewBox="0 -960 960 960"><path d="M171.925-137.308q-42.756 0-72.724-29.968Q69.233-197.244 69.233-240q0-23.806 10.5-45.057 10.5-21.25 29.5-36.481v-188.461h85.77v-230H468l179.846 420.23q6.23 13.846 10.538 28.838T662.692-260q0 50.78-35.956 86.736T540-137.308q-37.994 0-69.459-22-31.464-22-45.541-58H272.155q-7.692 34.615-35.846 57.307-28.154 22.693-64.384 22.693Zm552.689-40v-612.691h45.384v567.307h120.769v45.384H724.614Zm-552.865-5.384q24.253 0 40.868-16.44 16.616-16.44 16.616-40.693 0-24.252-16.44-40.868-16.44-16.615-40.693-16.615-24.252 0-40.868 16.44-16.616 16.44-16.616 40.693 0 24.252 16.441 40.868 16.44 16.615 40.692 16.615Zm368.133 0q32.195 0 54.811-22.498 22.615-22.498 22.615-54.692 0-32.195-22.498-54.811-22.498-22.615-54.692-22.615-32.195 0-54.811 22.498-22.615 22.498-22.615 54.692 0 32.195 22.498 54.811 22.498 22.615 54.692 22.615ZM361.848-383.307h191.998q5 0 9.808 1.154t9.424 3.462L439.001-694.615H240.386v184.616l121.462 126.692Z"/></svg>