<svg xmlns="http://www.w3.org/2000/svg" width="48" height="48" viewBox="0 -960 960 960"><path d="M286.77-318.847v-40.384h123.308v-60.231h-87.77v-42.076h87.77v-60.847H286.77v-39.384h163.691v242.922H286.77Zm223.769 0v-242.922h163.307v242.922H510.539Zm40.383-40.384h82.54v-163.154h-82.54v163.154Zm-70.9 259.23q-70.791 0-132.637-26.462-61.846-26.461-108.153-72.769-46.308-46.307-72.769-108.131-26.462-61.824-26.462-132.615 0-70.791 26.462-132.637 26.461-61.846 72.769-108.153 46.307-46.308 108.138-72.769 61.831-26.462 132.63-26.462h21.769l-76.076-76.076 30.999-31 128.152 127.768-127.383 127.768-30.999-30.615 72.077-72.461H480q-123.107 0-208.861 85.742-85.754 85.742-85.754 208.832 0 123.09 85.742 208.873 85.742 85.783 208.832 85.783 123.09 0 208.873-85.754Q774.615-316.893 774.615-440h45.384q0 70.769-26.462 132.615-26.461 61.846-72.769 108.153-46.307 46.308-108.131 72.769-61.824 26.462-132.615 26.462Z"/></svg>