<svg xmlns="http://www.w3.org/2000/svg" width="48" height="48" viewBox="0 96 960 960"><path d="M220.001 816.766V702.768q0-15.029 6.42-27.804 6.419-12.775 18.503-21.041 48.692-35.692 111.933-56.423 63.241-20.731 123.153-20.731 59.913 0 123.143 20.731 63.231 20.731 111.923 56.423 11.769 8.307 18.346 21.069 6.577 12.762 6.577 27.776v113.998H220.001Zm45.384-45.383h429.23V695.46q-46.461-33.846-103.423-53.576Q534.231 622.153 480 622.153q-54.231 0-111.192 19.231-56.962 19.23-103.423 53.076v76.923ZM480 535.231q-57.749 0-98.874-41.125-41.125-41.124-41.125-98.874 0-57.749 41.125-98.874 41.125-41.124 98.874-41.124 57.749 0 98.874 41.124 41.125 41.125 41.125 98.874 0 57.75-41.125 98.874-41.125 41.125-98.874 41.125Zm-.061-45.384q39.753 0 67.215-27.4 27.461-27.4 27.461-67.154 0-39.753-27.4-67.214-27.4-27.462-67.154-27.462-39.753 0-67.215 27.4-27.461 27.4-27.461 67.154 0 39.753 27.4 67.215 27.4 27.461 67.154 27.461ZM480 771.383Zm0-376.151ZM60.002 330.308V156.001h174.306v45.384H105.385v128.923H60.001Zm174.306 665.691H60.002V821.692h45.383v128.923h128.923v45.384Zm491.384 0v-45.384h128.923V821.692h45.384v174.307H725.692Zm128.923-665.691V201.385H725.692v-45.384h174.307v174.307h-45.384Z"/></svg>