<svg xmlns="http://www.w3.org/2000/svg" width="48" height="48" viewBox="0 -960 960 960"><path d="M100.62-100v-760h759.99v760H100.62Zm206.96-307.84q-8.12-8.29-8.12-19.96 0-11.66 8.3-19.78 8.3-8.11 19.96-8.11t19.78 8.3q8.12 8.29 8.12 19.96 0 11.66-8.3 19.78-8.3 8.11-19.96 8.11-11.67 0-19.78-8.3Zm306.54 0Q606-416.13 606-427.8q0-11.66 8.3-19.78 8.3-8.11 19.96-8.11t19.78 8.3q8.11 8.29 8.11 19.96 0 11.66-8.29 19.78-8.3 8.11-19.97 8.11-11.66 0-19.77-8.3Zm-393.5-97.78v272.93H266v-85.7h429.23v85.7h45.38v-272.93L669-712.69H292.23l-71.61 207.07Zm58.15-30.84 43.46-130.85H639l44.46 130.85H278.77Z"/></svg>