<svg xmlns="http://www.w3.org/2000/svg" width="48" height="48" viewBox="0 -960 960 960"><path d="M331.62-140v-85.08H94.31V-820h760v162.69h-45.39v-117.3H139.69v504.15h337.23V-140h-145.3Zm311.99-220.85q25.08-25.07 60.39-25.07t60.58 25.07q25.26 25.08 25.26 60.58t-25.26 60.58q-25.27 25.07-60.58 25.07t-60.39-25.07q-25.07-25.08-25.07-60.58t25.07-60.58Zm222.08-248.38V-140H542.31v-469.23h323.38Zm-200.61 52.82q-16.47 16.52-16.47 39.12 0 22.6 16.52 38.87 16.52 16.27 39.12 16.27 22.6 0 38.86-16.33 16.27-16.32 16.27-38.92t-16.32-39.06q-16.32-16.46-38.92-16.46t-39.06 16.51Zm128.5 345.77q35.19-35.33 35.19-89.58 0-54.24-35.14-89.63-35.14-35.38-89.58-35.38t-89.63 35.33q-35.19 35.33-35.19 89.58 0 54.24 35.14 89.63 35.14 35.38 89.58 35.38 54.43 0 89.63-35.33Z"/></svg>