<svg xmlns="http://www.w3.org/2000/svg" width="48" height="48" viewBox="0 -960 960 960"><path d="m841.847-52.924-171.54-171.54v36.77H70.31v-75.922q0-31.538 16.27-55.807 16.268-24.269 45.555-37.149 64.943-28.504 118.635-42.504 53.692-14 119.539-14 36.462 0 67.193 4.154 30.731 4.153 59.808 11.461l-98.079-98.078q-7.23 1.615-14.461 2.115-7.231.5-14.461.5-57.75 0-95.221-37.471-37.47-37.471-37.47-95.22 0-7.231.5-14.461.5-7.231 2.115-14.462L50.617-844.154l32.615-32.614L874.46-85.538l-32.614 32.614ZM647.079-408.922q53.229 7.231 100.536 20.115 47.307 12.885 79.537 29.423 29 15.307 45.769 40.599 16.769 25.293 16.769 56.323v73.614h-25.999L724.307-328.616q-11.692-27.307-31.268-47.038-19.576-19.73-45.96-33.268Zm-276.77 41.229q-60.462 0-108.616 11.192-48.154 11.193-110.922 40.5-17.077 8.308-26.077 22.347-9 14.038-9 30.038v30.538h509.23v-36.769l-55.308-55.692q-53.999-23.615-98.461-32.885-44.461-9.269-100.846-9.269Zm167.614-146.923q15.231-21.846 22.846-50.153 7.616-28.308 7.616-60.846 0-39.615-11.539-70.653-11.538-31.038-32.076-58.115 6.384-1.462 14.499-2.692 8.115-1.231 14.499-1.231 58.134 0 95.413 37.278 37.278 37.279 37.278 95.413 0 56.095-35.999 92.855-36 36.759-91.23 39.451l-21.307-21.307Zm-48.692-49.077-35.23-34.845q2-6.231 2.807-13.039.808-6.807.808-14.038 0-37.461-24.923-62.384-24.923-24.923-62.384-24.923-7.231 0-13.846.807-6.616.808-13.231 2.808l-34.846-35.23q13.308-6.692 29.086-10.231 15.777-3.538 32.837-3.538 58.134 0 95.412 37.278Q503-683.749 503-625.615q0 17.059-3.539 32.837-3.538 15.778-10.23 29.085ZM370.539-233.078ZM399.693-655Z"/></svg>