<svg xmlns="http://www.w3.org/2000/svg" width="48" height="48" viewBox="0 0 48 48"><path d="M1 35.6v-2.1q0-1.85 2-3.025Q5 29.3 8.15 29.3q.55 0 1.075.05.525.05 1.075.1-.3.8-.5 1.625t-.2 1.675v2.85Zm12 0v-2.75q0-1.45.8-2.6.8-1.15 2.25-2 1.5-.9 3.525-1.325Q21.6 26.5 24 26.5q2.45 0 4.475.425 2.025.425 3.475 1.325 1.5.85 2.275 2Q35 31.4 35 32.85v2.75Zm25.4 0v-2.85q0-.9-.175-1.7-.175-.8-.525-1.6.6-.05 1.125-.1t1.025-.05q3.2 0 5.175 1.175Q47 31.65 47 33.5v2.1ZM8.15 27.75q-1.25 0-2.15-.9-.9-.9-.9-2.2 0-1.25.9-2.125t2.15-.875q1.25 0 2.15.875.9.875.9 2.175 0 1.25-.875 2.15-.875.9-2.175.9Zm31.7 0q-1.25 0-2.15-.925-.9-.925-.9-2.125 0-1.3.9-2.175.9-.875 2.15-.875 1.3 0 2.175.875.875.875.875 2.175 0 1.25-.875 2.15-.875.9-2.175.9ZM24 25q-2.15 0-3.675-1.525T18.8 19.8q0-2.2 1.525-3.7T24 14.6q2.2 0 3.7 1.5t1.5 3.7q0 2.15-1.5 3.675T24 25Z"/></svg>