<svg xmlns="http://www.w3.org/2000/svg" width="48" height="48" viewBox="0 -960 960 960"><path d="M370.31-233.08Zm-300 45.39v-75.93q0-31.53 16.27-55.8 16.27-24.27 45.55-37.15 64.95-28.51 118.64-42.51 53.69-14 119.54-14 35.46 0 67.04 4.47 31.57 4.46 65.73 14.61-6.18 9.3-11.01 19.23-4.84 9.92-8.69 20.46-28.84-8.31-55.73-10.84-26.89-2.54-57.34-2.54-60.46 0-108.62 11.19-48.15 11.19-110.92 40.5-17.08 8.31-26.08 22.35-9 14.03-9 30.03v30.54h358.77q2.85 12.16 7.23 23.5 4.39 11.35 10.08 21.89H70.31ZM275-530.31q-37.38-37.38-37.38-95.5 0-58.11 37.38-95.3 37.39-37.2 95.5-37.2 58.12 0 95.31 37.2Q503-683.92 503-625.81q0 58.12-37.19 95.5-37.19 37.39-95.31 37.39-58.11 0-95.5-37.39Zm374.18 0q-37.28 37.39-95.41 37.39-6.77 0-14.5-.93-7.73-.92-14.5-3.38 21.43-23.37 32.52-56.12 11.09-32.75 11.09-72.31 0-39.57-11.53-70.61-11.54-31.04-32.08-58.11 6.38-1.46 14.5-2.7 8.11-1.23 14.5-1.23 58.13 0 95.41 37.2 37.28 37.19 37.28 95.3 0 58.12-37.28 95.5Zm-216.49-32.92q24.93-24.92 24.93-62.38 0-37.47-24.93-62.39-24.92-24.92-62.38-24.92T307.92-688Q283-663.08 283-625.61q0 37.46 24.92 62.38 24.93 24.92 62.39 24.92t62.38-24.92Zm-62.38-62.38Zm377.34 412.88q26.96-27.35 26.96-66.12 0-39.54-26.96-66.5t-66.44-26.96q-39.49 0-66.5 27.02-27.02 27.01-27.02 66.5 0 39.48 27.02 66.44 27.01 26.96 66.5 26.96 39.48 0 66.44-27.34ZM681.15-140q-57.44 0-98.14-40.69t-40.7-98.12q0-58.04 40.69-98.46 40.69-40.42 98.11-40.42 58.04 0 98.47 40.39Q820-336.9 820-278.85q0 22.59-6.89 43.03-6.88 20.43-19.27 37.67l99.47 99.07-28.77 29.16-99.08-98.85q-18.23 14.38-39.15 21.58-20.93 7.19-45.16 7.19Z"/></svg>