<svg xmlns="http://www.w3.org/2000/svg" width="48" height="48" viewBox="0 -960 960 960"><path d="M480-481.615q68.048 0 117.37-49.039 49.322-49.038 49.322-117.461T597.37-765.577Q548.048-814.615 480-814.615t-117.37 49.038q-49.322 49.039-49.322 117.462t49.322 117.461q49.322 49.039 117.37 49.039Zm.091 45.383q-88.584 0-150.375-61.508-61.792-61.509-61.792-150.092 0-88.584 61.701-150.375 61.701-61.792 150.284-61.792 88.584 0 150.375 61.701 61.792 61.701 61.792 150.285 0 88.583-61.701 150.182-61.701 61.599-150.284 61.599ZM480-647.923ZM834.077-98.539v-80h-80v-39.768h80v-80h39.769v80h80v39.768h-80v80h-39.769ZM531.231-86.154V-321.77H713.23v144.461h-44.154l38.231 91.154h-43.384l-35.384-86.692h-58.155v86.692h-39.153Zm39.153-125.461h103.693V-283H570.384v71.385ZM6.154-86.155v-235.614h38.769v85.077H146.77v-85.077h39.153v235.615H146.77v-111.769H44.923v111.769H6.154Zm262.231 0v-235.614h159.384l19.385 19.385v196.845l-19.385 19.385H268.385Zm38.769-38.768h101.231V-283H307.154v158.077Z"/></svg>