<svg xmlns="http://www.w3.org/2000/svg" width="48" height="48" viewBox="0 -960 960 960"><path d="M302.924-260.001q-58.514 0-99.603-41.077-41.089-41.077-41.089-100.307V-562q0-44.252 27.692-77.779 27.692-33.527 71.077-41.758 54.676-10.365 109.008-14.606 54.331-4.24 110.007-4.24t110.484 4.115q54.807 4.116 109.115 14.731 43.384 8.231 71.076 41.702 27.692 33.472 27.692 77.835v160.615q0 59.23-41.009 100.307-41.01 41.077-99.682 41.077H617.23q-11.102 0-22.512-2-11.411-2-21.641-5.616l-62.308-20.461q-14.769-5-30.269-5-15.5 0-30.269 5l-62.692 20.461q-11.231 3.616-22.334 5.616-11.102 2-22.82 2h-39.461Zm0-45.384h39.461q8.404 0 15.587-1.5 7.182-1.5 15.182-3.5 27.077-8.615 53.298-18.346 26.22-9.731 54.23-9.731 27.779 0 54.113 9.678 26.333 9.678 52.666 18.399 7.385 2 14.635 3.5t15.134 1.5h40.462q39.769 0 67.538-28.397Q753-362.178 753-401.385V-562q0-27.883-17.27-48.826-17.269-20.943-44.423-26.328-51.957-10.529-105.093-14.188Q533.077-655 480-655q-53.237 0-105.833 3.829t-104.859 14.017q-27.154 5.339-44.423 26.392Q207.616-589.71 207.616-562v160.615q0 39.207 27.733 67.603 27.733 28.397 67.575 28.397Zm-242.922-96v-160.999h32.691v160.999H60.002Zm807.305 0v-160.999h32.692v160.999h-32.692Zm-564.383 96q-39.842 0-67.575-28.397-27.733-28.396-27.733-67.603V-562q0-27.71 17.269-48.762 17.269-21.053 44.423-26.392 52.263-10.188 104.859-14.017Q426.763-655 480-655q53.178 0 106.204 3.616 53.026 3.615 105.103 14.23 27.154 5.385 44.423 26.328Q753-589.883 753-562v160.615q0 39.207-27.77 67.603-27.769 28.397-67.538 28.397H617.23q-7.884 0-15.134-1.5t-14.635-3.5q-26.394-8.721-52.788-18.399t-54.058-9.678q-27.986 0-54.185 9.731t-53.276 18.346q-8 2-15.182 3.5-7.183 1.5-15.587 1.5h-39.461Z"/></svg>