<svg xmlns="http://www.w3.org/2000/svg" width="48" height="48" viewBox="0 -960 960 960"><path d="M458.5-523.01q9.58-9.69 9.58-23.36 0-13.68-9.7-23t-23.11-9.32q-13.42 0-23 9.44t-9.58 23.11q0 13.68 9.7 23.25 9.7 9.58 23.11 9.58 13.42 0 23-9.7Zm-16.11 182.24L641-539l-32.61-32.62L409.77-373l32.62 32.23Zm196.11-2.24q9.58-9.69 9.58-23.36 0-13.68-9.7-23t-23.11-9.32q-13.42 0-23 9.44t-9.58 23.11q0 13.68 9.7 23.25 9.7 9.58 23.11 9.58 13.42 0 23-9.7ZM230.77-190.77V-900h384.92L820-695.69v504.92H230.77ZM593-676.23v-178.38H276.16v618.45h498.45v-440.07H593ZM100-60v-628.61h45.39v583.22h462.22V-60H100Zm176.16-794.61v178.38-178.38 618.45-618.45Z"/></svg>