<svg xmlns="http://www.w3.org/2000/svg" width="48" height="48" viewBox="0 -960 960 960"><path d="M481-108.617Q359.463-230.77 284.771-309.154q-74.692-78.385-115.808-132.5-41.115-54.115-55.038-94.077-13.924-39.962-13.924-84.269 0-87.769 61.116-148.884 61.115-61.115 148.884-61.115 41.538 0 80.461 14.769t69.999 42.692l-63.923 222.539h121.769l-40.614 363.768 127.769-423.77H483.077l65.23-195.075q23.077-12.462 48.654-18.693 25.577-6.23 52.269-6.23 87.769 0 148.884 61.115Q859.229-707.769 859.229-620q0 44.077-14 84.115-14 40.039-55 94.847-41 54.807-115 132.999Q601.23-229.847 481-108.617Z"/></svg>