<svg xmlns="http://www.w3.org/2000/svg" width="48" height="48" viewBox="0 -960 960 960"><path d="m398.616-90-69.231-122.231H195.154l-81.999-145.538L181.77-480l-68.615-122.231 81.999-145.538h134.231l69.231-122.23h162.768l69.231 122.23h134.231l81.999 145.538L778.23-480l68.615 122.231-81.999 145.538H630.615l-69.231 122.23H398.616Zm232.999-412.076h107.693l57.077-100.155-57.077-100.154H631.615l-57.462 100.154 57.462 100.155Zm-205.077 121h106.924L590.924-480l-57.462-98.924H426.538L369.076-480l57.462 98.924Zm0-243.231h106.924l57.846-100.539-57.462-99.77H426.154l-57.462 99.77 57.846 100.539ZM221.692-502.076h107.693l57.077-100.155-57.077-100.154H221.692L164.23-602.231l57.462 100.155Zm0 244.461h107.693l57.077-100.154-58.077-100.155H220.692l-57.077 100.155 58.077 100.154Zm204.462 122.231h107.692l57.462-100.155-57.846-100.154H426.538l-57.846 100.154 57.462 100.155Zm205.461-122.231h107.308l57.462-100.154-57.462-100.155H631.615l-55.231 100.155 55.231 100.154Z"/></svg>