<svg xmlns="http://www.w3.org/2000/svg" width="48" height="48" viewBox="0 -960 960 960"><path d="M180.001-180.001v-396.923l-92.846 69.769L60-543.231l420.384-317.383 419.998 317.383-23.999 32.538q-39.077-23.769-84.307-26.538Q746.846-540 700-517.77q-60.077-27.538-116.577-16.384t-101.654 55.923Q437-433.077 425.846-376.769 414.692-320.462 442.23-260q-9.076 20-13.576 39.999-4.5 20-4.039 40H180.001ZM700-86.231q-44.769 30.769-88.769 29.115Q567.231-58.77 533-93q-34.23-34.231-35.884-78.539-1.654-44.307 29.115-88.461-30.769-44.769-29.115-88.769 1.654-44 35.884-78.231 34.231-34.23 78.539-35.884 44.307-1.654 88.461 29.115 44.769-30.769 88.769-29.115 44 1.654 78.231 35.884 34.23 34.231 35.884 78.539 1.654 44.307-29.115 88.461 30.769 44.769 29.115 88.769-1.654 44-35.884 78.23-34.231 34.231-78.539 35.885Q744.154-55.462 700-86.23Zm0-140.308q13.923 0 23.692-9.769T733.461-260q0-13.923-9.769-23.692T700-293.461q-13.923 0-23.692 9.769T666.539-260q0 13.923 9.769 23.692T700-226.539Z"/></svg>