<svg xmlns="http://www.w3.org/2000/svg" width="48" height="48" viewBox="0 -960 960 960"><path d="M269.846-610.46q-25.538 0-43.038-17.5-17.499-17.5-17.499-43.038 0-25.538 17.499-43.038 17.5-17.5 43.038-17.5 25.539 0 43.038 17.5 17.5 17.5 17.5 43.038 0 25.538-17.5 43.038-17.499 17.5-43.038 17.5ZM100.771-100.001v-340.306H218.54v-66q0-25.615 17.846-43.769 17.845-18.154 43.46-18.154 16.308 0 29.692 6.654 13.385 6.654 24.462 18.731l55.461 61.692q8.769 9.769 20.423 19.923 11.654 10.154 27.808 20.923h421.537v340.306H100.771Zm645.46-455.383 1-14.308q2.231-35.769-9.269-58.384-11.5-22.616-32.116-49.923-22.461-30.538-33.73-63.5-11.27-32.961-7.654-65.653l1-12.847h41.691l-1 16.693q-1.615 31.538 6.346 53.154 7.962 21.615 29.808 48.538 23.846 28.923 36.846 64.807 13 35.884 9.769 68.576l-1.384 12.847h-41.307Zm-160 0 1-14.308q2.231-35.769-9.269-58.384-11.5-22.616-32.116-49.923-22.461-30.538-33.73-63.5-11.27-32.961-7.654-65.653l1-12.847h41.691l-1 16.693q-1.615 31.538 6.154 53.154 7.769 21.615 30 48.538 23.846 29.307 36.846 65.384 13 36.076 9.769 67.999l-1.384 12.847h-41.307Zm80.691 409.999h118.847v-249.538H666.922v249.538Zm-164.23 0h118.847v-249.538H502.692v249.538Zm-164.231 0h118.847v-249.538H338.461v249.538Zm-164.23 0h118.847v-249.538H174.231v249.538Z"/></svg>