<svg xmlns="http://www.w3.org/2000/svg" width="48" height="48" viewBox="0 0 48 48"><path d="M40.65 26.4q-.3 2.7-1.925 5.6-1.625 2.9-4.125 5.25T28.975 41q-3.125 1.4-6.275 1.2-1.45-.3-3.275-1T15.8 39.5q-1.8-1-3.4-2.15Q10.8 36.2 9.85 35q-1.1-1.25-2.125-3.375T6 27.1q-.7-2.4-1.025-4.75Q4.65 20 5 18.25q.7-3.55 3.675-5.85 2.975-2.3 6.275-3.85 3-1.45 6.425-2.125T28.35 6.2q1.6.15 3.125.675t2.975 1.35q1.45.825 2.775 1.925t2.425 2.35q.55 1.2 1.05 2.8.5 1.6.75 3.45t.1 3.8q-.15 1.95-.9 3.85ZM20.7 35.15q2.3 0 3.825-1.65 1.525-1.65 1.525-3.7 0-.95-.4-1.85-.4-.9-1.25-1.7-1.15-1.05-1.95-2.35T21.3 21q-.4-1.9-1.85-3.025Q18 16.85 16.2 16.85q-2.1 0-3.725 1.625T10.85 22.2q0 1.8.75 4.025.75 2.225 2.075 4.2Q15 32.4 16.8 33.775t3.9 1.375Zm0-2.3q-1.45 0-2.8-1.2-1.35-1.2-2.425-2.875-1.075-1.675-1.7-3.5T13.15 22.2q0-1.15.95-2.1.95-.95 2.1-.95.85 0 1.75.575t1.2 1.775q.5 2 1.35 3.525.85 1.525 2.4 2.975.45.4.65.875t.2 1.025q0 1.1-.85 2.025-.85.925-2.2.925Zm11.8-7.7q.5 0 .825-.35.325-.35.325-.8v-1.9l1.7.85q.45.25.9.15t.7-.55q.25-.4.175-.875-.075-.475-.475-.625L34.55 20l2.1-1.05q.4-.15.45-.625.05-.475-.2-.925-.2-.4-.65-.45-.45-.05-.9.15l-1.7.85V16q0-.5-.325-.825-.325-.325-.825-.325-.45 0-.8.325-.35.325-.35.825v2l-1.7-.9q-.45-.25-.9-.15t-.7.5q-.2.4-.125.875.075.475.475.675l1.9.8-1.75 1.2q-.4.3-.55.725-.15.425.1.825.25.45.675.55.425.1.875-.15l1.7-.9V24q0 .45.35.8.35.35.8.35Z"/></svg>