<svg xmlns="http://www.w3.org/2000/svg" width="48" height="48" viewBox="0 -960 960 960"><path d="M251.077-304.616q55.154 0 106.423 12.885 51.27 12.885 101.424 39.423v-417.384q-45-31.923-98.847-48.808-53.846-16.884-109-16.884-39.154 0-75.654 8.73-36.5 8.731-70.038 23.116v425.922q28.692-13.615 68.384-20.307 39.693-6.693 77.308-6.693Zm253.23 52.308q50.385-26.538 99.923-39.423 49.539-12.885 104.693-12.885 37.615 0 77.923 6.385t67.769 16.769v-422.076q-31.308-16.616-68.923-24.231-37.615-7.615-76.769-7.615-55.154 0-107.577 16.884-52.424 16.885-97.039 48.808v417.384Zm-22.692 67.691q-51-35.692-109.846-54.846-58.846-19.154-120.692-19.154-50.077 0-104.807 17.231-54.73 17.23-86.269 35.384v-528.92q37.385-20.923 88.384-33.384 51-12.462 102.692-12.462 62.231 0 120.769 17.385 58.539 17.384 109.769 52.384 50.231-35 108.154-52.384 57.923-17.385 119.154-17.385 51.692 0 102.499 12.769 50.808 12.769 88.577 33.077v528.92q-30.923-18.769-85.961-35.692Q759-258.617 708.923-258.617q-61.846 0-119.269 19.462-57.423 19.461-108.039 54.538ZM282.154-493.846Z"/></svg>