<svg xmlns="http://www.w3.org/2000/svg" width="48" height="48" viewBox="0 -960 960 960"><path d="M185.385-225.385h290.154q6 12.154 12.539 23.307 6.538 11.154 15 22.077H140.001v-679.998h679.998v290.461q-10.539-4.846-21.885-9.269-11.345-4.423-23.499-7.808v-228h-589.23v404.385H355q16.308 29 40.039 49.807 23.73 20.808 54.115 28.423-.461 12.539 1.115 23.884 1.577 11.346 3.577 22.885-36.23-5.616-67.692-26.116-31.461-20.5-50.153-53.5H185.385v139.462Zm0 0h290.154-290.154Zm502.768 69.998-3.077-38.384q-24.923-6.615-43.923-17.731-19-11.115-33.769-26.808l-33.923 16.923-26.922-39.768L578-285.385q-7.308-21.693-7.308-44.77T578-375.309l-31.461-24.615 26.922-40.768 33.923 17.307q14.385-14.308 33.769-25.808 19.385-11.5 43.923-18.115l3.077-38.999h45.384l3.692 38.999q24.154 6.231 43.538 17.731 19.385 11.5 34.154 26.192l33.923-17.307 26.922 40.768-31.461 24.615q7.308 22.077 7.116 45.346-.192 23.27-7.5 44.578l31.845 24.23-26.922 39.768-33.923-16.923q-14.769 15.308-33.769 26.616t-43.923 17.923l-3.692 38.384h-45.384Zm22.692-76.537q42.077 0 70.5-28.423 28.423-28.423 28.423-70.5t-28.423-70.692q-28.423-28.616-70.5-28.616-42.461 0-70.884 28.616-28.424 28.615-28.424 70.692t28.424 70.5q28.423 28.423 70.884 28.423Z"/></svg>