<svg xmlns="http://www.w3.org/2000/svg" width="48" height="48" viewBox="0 -960 960 960"><path d="M197.69-140q-23.53 0-40.61-17.08T140-197.69v-156.62h45.39v156.62q0 4.61 3.84 8.46 3.85 3.84 8.46 3.84h156.62V-140H197.69Zm564.62 0H605.69v-45.39h156.62q4.61 0 8.46-3.84 3.84-3.85 3.84-8.46v-156.62H820v156.62q0 23.53-17.08 40.61T762.31-140ZM140-762.31q0-23.53 17.08-40.61T197.69-820h156.62v45.39H197.69q-4.61 0-8.46 3.84-3.84 3.85-3.84 8.46v156.62H140v-156.62Zm680 0v156.62h-45.39v-156.62q0-4.61-3.84-8.46-3.85-3.84-8.46-3.84H605.69V-820h156.62q23.53 0 40.61 17.08T820-762.31Zm-318.69 493.4q9.46-9.3 9.46-22.58 0-13.28-9.49-22.55-9.49-9.27-22.77-9.27t-22.55 9.3q-9.27 9.3-9.27 22.58 0 13.28 9.3 22.54 9.3 9.27 22.58 9.27 13.28 0 22.74-9.29Zm-48.85-129.48h43.92q.77-26.3 10.08-44.76 9.31-18.47 34.15-43.31 30.85-30.85 43.58-54.81 12.73-23.96 12.73-50.5 0-48.08-32.63-78.54-32.63-30.46-83.37-30.46-45 0-78.73 21.19-33.73 21.2-50.73 61.58l41.85 17.77q14-25.62 36.61-40.73 22.62-15.12 50.09-15.12 32.55 0 52.77 18.35Q553-619.38 553-591.08q0 19.23-10.42 36.97-10.43 17.73-35.27 41.19-31.46 30.84-43.16 54.57-11.69 23.73-11.69 59.96Z"/></svg>