<svg xmlns="http://www.w3.org/2000/svg" width="48" height="48" viewBox="0 -960 960 960"><path d="m535.54-184.46-31.62-31.62q51-51 79.89-118.77 28.88-67.77 28.88-145.15 0-77.38-28.88-145.15-28.89-67.77-79.89-118.77l31.62-31.62q57.46 57.08 90 132.66 32.54 75.57 32.54 162.88t-32.54 162.88q-32.54 75.58-90 132.66Zm-83.85-83.85-32-32q34.77-34.38 54.66-80.46 19.88-46.08 19.88-99.23 0-53.15-19.88-99.23-19.89-46.08-54.66-80.46l32-32q40.46 40.84 64.19 94.92 23.73 54.08 23.73 116.77t-23.73 116.77q-23.73 54.08-64.19 94.92Zm-83.84-83.84-31.62-31.62q18.77-18.77 29.16-43.42 10.38-24.66 10.38-52.81 0-28.15-10.38-52.81-10.39-24.65-29.16-43.42l31.62-31.62q24.84 24.85 39.07 57.62 14.23 32.77 14.23 70.23t-14.23 70.23q-14.23 32.77-39.07 57.62ZM195-170v-620h45.38v247.31q25.93.38 44.12 18.58 18.19 18.19 18.19 44.11 0 25.92-18.19 44.11-18.19 18.2-44.12 18.58V-170H195Z"/></svg>