<svg xmlns="http://www.w3.org/2000/svg" width="48" height="48" viewBox="0 -960 960 960"><path d="M267.309-220.001v-502.998l-102.692-137h543.074v117.307h94.615q23.5 0 40.596 17.096Q859.999-708.5 859.999-685v210q0 23.5-17.097 40.596-17.096 17.096-40.596 17.096h-94.615v197.307H267.309Zm440.382-242.691h94.615q5.385 0 8.847-3.462 3.462-3.461 3.462-8.846v-210q0-5.385-3.462-8.846-3.462-3.462-8.847-3.462h-94.615v234.616Zm-197.69 127.306h82.306v-409.228h-82.306v409.228Zm-370 235.385v-45.384h679.998v45.384H140.001Z"/></svg>