<svg xmlns="http://www.w3.org/2000/svg" width="48" height="48" viewBox="0 -960 960 960"><path d="M267.309-223.079v-499.92l-102.692-137h543.074v127.308h94.615q23.5 0 40.596 17.096 17.097 17.096 17.097 40.596v214.615q0 23.5-17.097 40.596-17.096 17.096-40.596 17.096h-94.615v179.613H267.309Zm440.382-224.996h94.615q5.385 0 8.847-3.462 3.462-3.462 3.462-8.847v-214.615q0-5.385-3.462-8.847-3.462-3.461-8.847-3.461h-94.615v239.232Zm-197.69 109.612h82.306v-406.151h-82.306v406.151Zm-370 238.462v-45.384h679.998v45.384H140.001Z"/></svg>