<svg xmlns="http://www.w3.org/2000/svg" width="48" height="48" viewBox="0 -960 960 960"><path d="M280-376.386q43.422 0 73.518-30.096 30.096-30.096 30.096-73.518t-30.096-73.518Q323.422-583.614 280-583.614t-73.518 30.096Q176.386-523.422 176.386-480t30.096 73.518q30.096 30.096 73.518 30.096Zm0 111q-89.999 0-152.306-62.308Q65.386-390.001 65.386-480q0-89.999 62.308-152.306Q190.001-694.614 280-694.614q77.307 0 130.191 42.462 52.885 42.461 71.269 105.614h355.155l64.922 65.307-110.076 122.152-88.768-70.537-79.384 71.691-64.461-57.153H481.46q-15.154 65-70.884 107.346-55.73 42.346-130.576 42.346Z"/></svg>