<svg xmlns="http://www.w3.org/2000/svg" width="48" height="48" viewBox="0 0 48 48"><path d="M5 43V17h38v26Zm10.5-5.4h17v-2.85h-17Zm-5.15-6.2h2.8v-2.8h-2.8Zm6.15 0h2.8v-2.8h-2.8Zm6.1 0h2.8v-2.8h-2.8Zm6.15 0h2.8v-2.8h-2.8Zm6.1 0h2.8v-2.8h-2.8Zm-24.5-6.2h2.8v-2.8h-2.8Zm6.15 0h2.8v-2.8h-2.8Zm6.1 0h2.8v-2.8h-2.8Zm6.15 0h2.8v-2.8h-2.8Zm6.1 0h2.8v-2.8h-2.8Zm-22-13.15v-8.3h2.3V7.9q1.55-1.9 3.8-3.025t4.9-1.125q3.85 0 6.85 2.325 3 2.325 4 5.975h-2.4q-.95-2.75-3.225-4.375Q26.8 6.05 23.9 6.05q-2.25 0-4.175 1-1.925 1-3.125 2.7h4.55v2.3Z"/></svg>