<svg xmlns="http://www.w3.org/2000/svg" width="48" height="48" viewBox="0 -960 960 960"><path d="M483.67-346.463q37.176 0 63.291-25.631 26.115-25.631 26.115-62.752V-683H684.46v-56.154H537.692v238.539q-10.231-9.385-24.204-14.769-13.973-5.385-29.796-5.385-35.667 0-60.295 24.844-24.627 24.845-24.627 61.423 0 35.809 24.621 61.924 24.621 26.115 60.279 26.115ZM220.771-230.771v-629.228h629.227v629.228H220.771Zm45.383-45.384h538.46v-538.46h-538.46v538.46ZM110.002-120.003v-616.918h45.384v571.535h571.535v45.383H110.002Zm156.152-694.612v538.46-538.46Z"/></svg>