<svg xmlns="http://www.w3.org/2000/svg" width="48" height="48" viewBox="0 -960 960 960"><path d="m98.39-100 156.3-384.85v-130.69h-189L207.04-860h140.58l140.84 244.46H299.08v130.69L455.15-100h-48.61L299.46-362.7V-100h-45.38v-261.08L146.62-100H98.39Zm582.48-150.54q-49.33 0-85.64-31.11-36.31-31.12-46.61-79.58h-91.93q0-55.31 27.62-103.62 27.61-48.3 73.69-81.66 4.62-40.57 31.85-72.1 27.23-31.54 68.46-38.47V-860h45.38v202.92q40.85 6.93 68 38.51 27.14 31.58 32.08 71.88 45.69 33.54 73.81 81.27 28.11 47.74 28.11 104.19h-93.92q-10.69 48.46-46.58 79.58-35.88 31.11-84.32 31.11ZM509.69-406.61h341.23q-9.38-27.77-26.04-53.66-16.65-25.88-41.11-43.58l-22.92-16.07-3.23-27.77q-3.39-28.54-25.74-47.81-22.34-19.27-51.38-19.27-29.04 0-51.25 19.08-22.2 19.09-24.48 47.61l-3.62 28.16-22.54 15.69q-25.84 17.69-42.5 43.77-16.65 26.08-26.42 53.85ZM143.31-660.92h267.54l-89.39-153.69h-88.68l-89.47 153.69Zm537.41 364.61q28.36 0 50.28-18.65 21.92-18.66 32.92-46.27H598.08q10.23 27.61 32.11 46.27 21.88 18.65 50.53 18.65Zm-.72-110.3ZM276.39-660.92Z"/></svg>