<svg xmlns="http://www.w3.org/2000/svg" width="48" height="48" viewBox="0 -960 960 960"><path d="M741.538-307.924 704.077-345q48.308-10.385 79.807-47.231 31.5-36.846 31.5-85.538 0-56.462-39.846-96.308-39.846-39.846-96.307-39.846H530.77v-45.383h148.461q75.307 0 128.422 53.115 53.115 53.115 53.115 128.422 0 56.615-33.308 102.191-33.307 45.577-85.922 67.654ZM594-455.078l-45.384-45.383h77.153v45.383H594Zm228.078 385.23L74.924-817l32.615-32.614 747.153 747.153-32.614 32.615ZM440.384-298.462H280.769q-75.307 0-128.422-53.115Q99.232-404.693 99.232-480q0-68.923 44.692-120.076 44.693-51.154 111.77-59.384h10l43.307 43.306h-28.232q-56.461 0-96.307 39.847-39.846 39.846-39.846 96.307 0 56.461 39.846 96.307 39.846 39.847 96.307 39.847h159.615v45.383ZM334.616-457.308v-45.384h87.847l44.999 45.384H334.616Z"/></svg>