<svg xmlns="http://www.w3.org/2000/svg" width="48" height="48" viewBox="0 -960 960 960"><path d="M829-685.385q0-79.846-55.508-135.384-55.507-55.539-135.415-55.539v-38.307q95.384 0 162.307 66.859 66.923 66.858 66.923 162.371H829ZM92.693-140.001v-594.921H287.77l73.385-85.077h236.957v75.692q41.504 0 70.196 28.658T697-645.385h155.69v505.384H92.693ZM737-685.385q0-41.538-28.658-70.23-28.659-28.692-70.264-28.692v-38.308q56.845 0 97.037 40.192 40.192 40.192 40.192 97.038H737ZM472.692-279.847q66.615 0 111.961-45.346 45.346-45.346 45.346-111.961 0-67.23-45.346-112.268-45.346-45.039-111.961-45.039-67.231 0-112.269 45.039-45.038 45.038-45.038 112.268 0 66.615 45.038 111.961 45.038 45.346 112.269 45.346Z"/></svg>