<svg xmlns="http://www.w3.org/2000/svg" width="48" height="48" viewBox="0 -960 960 960"><path d="M480-437.769Zm341.076-233q0-79.846-55.251-136.499-55.25-56.654-135.056-56.654v-36.077q95.384 0 162.307 66.859 66.923 66.859 66.923 162.371h-38.923Zm-92 0q0-41.538-28.351-70.23-28.351-28.692-69.956-28.692v-38.307q57.211 0 97.22 40.192t37.163 97.037h-36.076ZM100.001-140.001v-594.921h195.077l73.384-85.077h222.307v45.384h-201.23l-73.385 85.077H145.385v504.153h669.23v-445.384h45.384v490.768H100.001Zm379.691-140.462q66.923 0 112.269-45.345 45.346-45.346 45.346-112.269t-45.346-111.961q-45.346-45.038-112.269-45.038-66.922 0-111.961 45.038Q322.693-505 322.693-438.077t45.038 112.269q45.039 45.345 111.961 45.345Zm0-45.383q-48.077 0-79.846-32.077-31.769-32.077-31.769-80.154t31.769-79.846q31.769-31.77 79.846-31.77 48.077 0 80.154 31.77 32.077 31.769 32.077 79.846 0 48.077-32.077 80.154t-80.154 32.077Z"/></svg>