<svg xmlns="http://www.w3.org/2000/svg" width="48" height="48" viewBox="0 -960 960 960"><path d="M140.001-100.001v-45.384h71.846v-143.308Q178.386-296.77 159.194-322q-19.193-25.231-19.193-59.384v-308.614h189.46v308.614q0 31.153-19.384 57.884-19.385 26.73-52.846 34.807v143.308h72.23v45.384h-189.46Zm45.384-385.921h98.693v-158.692h-98.693v158.692Zm49.154 154.076q19.769 0 34.654-14.884 14.885-14.885 14.885-34.654v-59.155h-98.693v59.155q0 19.769 14.692 34.654 14.693 14.884 34.462 14.884Zm238.539 231.845v-474.306l125.231-55.077v-230.615h133.613v229l128.077 55.307v475.691H473.078Zm170.614-669.845h42.846v-44.769h-42.846v44.769ZM518.461-457.307h296.154v-91.847l-128.077-49.615v-125.693h-42.846v119.385l-125.231 55.946v91.824Zm0 311.922h296.154v-110.693H518.461v110.693Zm0-156.076h296.154v-110.463H518.461v110.463ZM234.539-440.539Zm283.922 139.078v-110.463 110.463Z"/></svg>