<svg xmlns="http://www.w3.org/2000/svg" width="48" height="48" viewBox="0 -960 960 960"><path d="M180-100v-760h600v760H180Zm427.69-167.32q52.46-52.56 52.46-127.7 0-75.13-52.55-127.59-52.55-52.47-127.69-52.47t-127.6 52.56q-52.46 52.55-52.46 127.69t52.55 127.6q52.55 52.46 127.69 52.46t127.6-52.55ZM480-279.15q-23.61 0-45.67-8.39-22.06-8.38-38.64-25.15l165.93-165.93q17.38 15.77 25.77 37.9 8.38 22.12 8.38 45.8 0 48.23-33.77 82-33.76 33.77-82 33.77ZM308.6-700.31q13.79 0 23.05-9.63 9.27-9.64 9.27-23.43 0-13.78-9.37-23.05-9.37-9.27-23.23-9.27-13.86 0-23.32 9.37-9.46 9.38-9.46 23.23 0 13.86 9.64 23.32 9.63 9.46 23.42 9.46Zm153.28-9.63q9.2-9.64 9.2-23.5t-9.38-23.05q-9.37-9.2-23.23-9.2-13.85 0-23.32 9.37-9.46 9.38-9.46 23.23 0 13.86 9.64 23.32t23.49 9.46q13.86 0 23.06-9.63Z"/></svg>