<svg xmlns="http://www.w3.org/2000/svg" width="48" height="48" viewBox="0 -960 960 960"><path d="M180.001-140.001v-449.998L480-815.767l299.999 225.768v449.998H180.001Zm300.094-237.307q42.828 0 72.712-29.98 29.885-29.979 29.885-72.807t-29.98-72.712q-29.979-29.885-72.807-29.885t-72.712 29.98q-29.885 29.979-29.885 72.807t29.98 72.712q29.979 29.885 72.807 29.885Zm-254.71 191.923h503.538v-1.154q-1.616-13.142-3.462-26.071-1.846-12.929-12.705-20.787-50.372-39.373-110.268-60.103-59.897-20.731-124.45-20.731-62.483 0-121.645 20.615Q297.231-273 247.244-234.124q-10.859 8.354-16.359 21.091-5.5 12.737-5.5 26.879v.769Z"/></svg>