<svg xmlns="http://www.w3.org/2000/svg" width="48" height="48" viewBox="0 -960 960 960"><path d="M480.187-492.693q26.89 0 45.851-19.148Q545-530.99 545-557.879q0-26.89-19.149-45.851-19.149-18.962-46.038-18.962-26.89 0-45.851 19.149Q415-584.394 415-557.505q0 26.89 19.149 45.851t46.038 18.961ZM480-99.617Q329.001-230.463 253.539-343.154q-75.461-112.692-75.461-206.923 0-138.46 89.577-224.191Q357.231-859.999 480-859.999t212.345 85.731q89.577 85.731 89.577 224.191 0 94.231-75.461 206.923Q630.999-230.463 480-99.617Z"/></svg>