<svg xmlns="http://www.w3.org/2000/svg" width="48" height="48" viewBox="0 -960 960 960"><path d="M829.999-521.714v391.713H129.001v-392.461q-27.616-22.077-37-55.153-9.385-33.077 1.23-66.923l57.955-185.461h655.275l60.308 185.461q10.615 33.846.73 67.307-9.884 33.462-37.5 55.517Zm-260.768-20.978q34.385 0 55.154-20.538 20.769-20.539 17.154-46.385L615-784.616H502.692v170.385q0 28.833 19.067 50.186 19.068 21.353 47.472 21.353Zm-185.077 0q30.914 0 52.034-20.853 21.12-20.853 21.12-50.686v-170.385H344.615l-26.539 176.54q-3.23 22.846 15.924 44.115 19.154 21.269 50.154 21.269Zm-180.846 0q26.308 0 45.539-18.038 19.231-18.039 22.615-44.347l26.385-179.539H184.384L138-634q-10.77 33.308 8.577 62.308 19.346 29 56.731 29Zm552.384 0q34.693 0 55.885-27.731Q832.77-598.154 821.616-634l-46.385-150.616H661.769l26.384 179.539q3.769 26.308 22.731 44.347 18.962 18.038 44.808 18.038ZM319.154-238.846h114.153v-33.769h-80v-49.078h80v-113.768H319.154v33.768h80v46.328h-80v116.519Zm287.539 0h33.768v-196.615h-33.768v80h-46.232v-80h-33.768v113.768h80v82.847Z"/></svg>