<svg xmlns="http://www.w3.org/2000/svg" width="48" height="48" viewBox="0 96 960 960"><path d="M520 918.845q-64.384 0-125.153-24.077-60.769-24.077-106.846-66.384l32.615-32.615Q361.479 832 412.432 852.73 463.385 873.461 520 873.461q123.077 0 210.269-87.384Q817.461 698.692 817.461 576t-87.384-210.077Q642.692 278.539 520 278.539t-210.077 87.384Q222.539 453.308 222.539 576v39.155l77.308-77.308 31.615 31.615-131.615 131.999-132-131.999 32-31.615 77.308 77.693V576q0-71.112 26.769-133.594 26.77-62.482 73.385-109.097 46.615-46.615 109.097-73.385Q448.888 233.155 520 233.155t133.594 26.769q62.482 26.77 109.097 73.385 46.615 46.615 73.385 109.155 26.769 62.54 26.769 133.72 0 142.743-99.856 242.702T520 918.845ZM406.154 727.538V539.461h40v-45.769q0-30.553 21.66-52.392 21.659-21.839 52.23-21.839 30.571 0 52.379 21.839 21.808 21.839 21.808 52.392v45.769h40v188.077H406.154Zm68.077-188.077h91.923V493.78q0-19.473-13.297-32.857-13.297-13.385-32.769-13.385-19.473 0-32.665 13.322t-13.192 32.832v45.769Z"/></svg>