<svg xmlns="http://www.w3.org/2000/svg" width="48" height="48" viewBox="0 -960 960 960"><path d="M274.616-140.001h-57.692v-572.306h159.231v-147.692H584.23v147.692h158.846v572.306h-57.692v4.615q0 14.692-10.347 25.038-10.346 10.347-25.038 10.347t-25.038-10.347q-10.346-10.346-10.346-25.038v-4.615h-269.23v4.615q0 14.692-10.346 25.038-10.346 10.347-25.038 10.347t-25.038-10.347q-10.347-10.346-10.347-25.038v-4.615Zm-12.308-45.384h435.384v-481.539H262.308v481.539Zm113.847-70.001h45.383v-341.537h-45.383v341.537Zm162.691 0h45.384v-341.537h-45.384v341.537ZM421.538-712.307h117.308v-102.308H421.538v102.308ZM480-426.154Z"/></svg>