<svg xmlns="http://www.w3.org/2000/svg" width="48" height="48" viewBox="0 -960 960 960"><path d="M687.19-740.02q-29.88-29.86-29.88-72.8 0-42.95 29.86-72.83 29.86-29.89 72.81-29.89 42.94 0 72.83 29.87 29.88 29.86 29.88 72.8 0 42.95-29.86 72.83-29.86 29.89-72.81 29.89-42.94 0-72.83-29.87ZM100-118.46V-860h483.54q-3.23 10.54-5.04 22.19-1.81 11.66-1.58 23.2.85 29.92 8.97 56.38Q594-731.77 610-709.38H250V-664h406.15q22.31 16.54 48.5 25.19 26.2 8.66 55.35 8.66 27.23 0 52.54-8.12 25.3-8.11 47.46-24.11v402.48H241.54L100-118.46Zm150-418.23h460v-45.39H250v45.39Zm0 127.3h294.92v-45.38H250v45.38Z"/></svg>