<svg xmlns="http://www.w3.org/2000/svg" width="48" height="48" viewBox="0 -960 960 960"><path d="M250.001-409.385h294.921v-45.384H250.001v45.384Zm0-127.308h459.998v-45.383H250.001v45.383Zm0-127.307h406.151v.384q-14.076-9.461-25.422-20.807-11.345-11.346-20.73-24.961H250.001V-664Zm-150 545.536v-741.535h483.538q-3.231 10.539-5.038 22.192-1.808 11.654-1.577 23.192H145.385v589.999l76.308-80.769h592.922v-333.614q12.563-3.462 23.512-9.462 10.949-5.999 21.872-13.922v402.484h-618.46L100.001-118.464Zm45.384-683.842v524.615-536.924 12.309Zm614.52 92.153q-42.828 0-72.712-29.98-29.885-29.979-29.885-72.807t29.98-72.712q29.979-29.885 72.807-29.885t72.712 29.98q29.885 29.979 29.885 72.807t-29.98 72.712q-29.979 29.885-72.807 29.885Z"/></svg>