<svg xmlns="http://www.w3.org/2000/svg" width="48" height="48" viewBox="0 96 960 960"><path d="M315.154 845.307V680.153l133.154 82.385-133.154 82.769ZM520 469.846q-44.391 0-75.465-31.081-31.073-31.082-31.073-75.484 0-44.05 31.073-75.281 31.074-31.23 75.465-31.23h36.538v33.076H520q-30.609 0-52.035 21.419-21.427 21.418-21.427 52.016 0 30.95 21.427 52.219 21.426 21.27 52.035 21.27h36.538v33.076H520Zm123.462 0V436.77H680q30.609 0 52.035-21.243 21.427-21.242 21.427-52t-21.427-52.219Q710.609 289.846 680 289.846h-36.538V256.77H680q44.391 0 75.465 31.257 31.073 31.258 31.073 75.5 0 44.242-31.073 75.281-31.074 31.038-75.465 31.038h-36.538Zm-110-90V346.77h133.076v33.076H533.462Zm106.075 250.768v-59.998h215.078V203.308h-509.23v355.768h-45.384V157.925h599.998v472.689H639.537ZM60.001 994.075v-462.69H660v462.69H60.001Zm45.384-45.383h509.23V576.769h-509.23v371.923ZM600 386.77ZM360 762.538Z"/></svg>