<svg xmlns="http://www.w3.org/2000/svg" width="48" height="48" viewBox="0 -960 960 960"><path d="M198.616-679.691q-12.076-13.462-16.499-30.346-4.423-16.885-4.423-34.577 0-44.153 30.692-75.153 30.692-31 74.845-31 44.539 0 75.038 31 30.5 31 30.5 75.153 0 17.692-4.423 34.577-4.423 16.884-16.115 30.346H198.616Zm59.693 570.458v-142.691h-30.923l-37.692-385.229h187.075l-37.692 385.229h-35.384v97.308h193.615v-696.151h284.998v741.534h-45.383v-696.151H542.692v696.151H258.309Zm9.999-188.075h30.231l28-294.461h-86.231l28 294.461Zm30.231-294.461h-58.231 86.231-28Z"/></svg>