<svg xmlns="http://www.w3.org/2000/svg" width="48" height="48" viewBox="0 0 48 48"><path d="M7.9 39q-1.2 0-2.05-.85Q5 37.3 5 36.1V11.9q0-1.2.85-2.05Q6.7 9 7.9 9h32.2q1.2 0 2.05.85.85.85.85 2.05v24.2q0 1.2-.85 2.05-.85.85-2.05.85Zm3-5.9h18.2V14.9H10.9Zm24.7 0q.6 0 1-.4t.4-1q0-.6-.4-1t-1-.4q-.6 0-1 .425t-.4.975q0 .6.425 1t.975.4Zm-22.45-2.25v-13.7h13.7v13.7ZM35.6 25.4q.6 0 1-.425T37 24q0-.6-.4-1t-1-.4q-.6 0-1 .425t-.4.975q0 .6.425 1t.975.4Zm0-7.7q.6 0 1-.425t.4-.975q0-.6-.4-1t-1-.4q-.6 0-1 .4t-.4 1q0 .6.425 1t.975.4Z"/></svg>