<svg xmlns="http://www.w3.org/2000/svg" width="48" height="48" viewBox="0 -960 960 960"><path d="M614.54-431.46v-240.85h53.84L820-520.69v294.3l-45.39-45.38v-229.46L663.77-611.69l-3.85 225.61-45.38-45.38Zm21.31 371.84q-21.85 0-41.81-8.23t-33.81-25.46L367.46-329.85l47.77-47.84 269.85 109.07 123 122.62q-16.62 38.15-51.62 62.27-35 24.11-79.15 24.11h-41.46Zm-21.31-612.69v-142.3H231.77L185-860h474.92v187.69h-45.38ZM636.85-105h40.46q22.07 0 40.77-8.73 18.69-8.73 32.84-23.81l-83-83-234.77-102.38 159.31 197.23q7.77 10.54 19.81 15.61 12.04 5.08 24.58 5.08ZM422.46-648.69Zm38.38 220.07ZM872.92-82.15l-32.61 32.61-614.92-614.54v518.69H517L554.31-100H180v-609.46L48.69-840.77l32.62-32.61L872.92-82.15Zm-432.8-599.81q8.11-8.12 8.11-19.96 0-11.85-8.11-19.96Q432-730 420.15-730q-11.84 0-19.96 8.12-8.11 8.11-8.11 19.96 0 11.84 8.11 19.96 8.12 8.11 19.96 8.11 11.85 0 19.97-8.11Z"/></svg>