<svg xmlns="http://www.w3.org/2000/svg" width="48" height="48" viewBox="0 -960 960 960"><path d="M499.81-722.1q8.42-8.26 8.42-19.85 0-11.59-8.45-19.82T479.93-770q-11.39 0-19.62 8.26t-8.23 19.84q0 11.59 8.25 19.82 8.26 8.23 19.66 8.23 11.39 0 19.82-8.25ZM220-60v-840h519.92v203.08H780v155.69h-40.08v115.54q-18.15-9.16-38.1-14.43-19.95-5.27-41.82-5.27-78.9 0-134.64 55.44-55.74 55.44-55.74 134.33 0 70.93 46.07 122.96 46.08 52.04 113.54 60.89L656.84-60H220Zm575 0-88.69-87.31q-10.23 4.62-22.03 7.12-11.79 2.5-24.28 2.5-48.67 0-82.99-34.22-34.32-34.21-34.32-83.11 0-16.67 4.4-32.25 4.4-15.57 12.68-28.42l68.77 68.15 38.54-38.92-69.16-68.39q13.85-8.23 29.52-12.65 15.68-4.42 32.56-4.42 48.61 0 82.96 34.2 34.35 34.21 34.35 82.72 0 13-2.7 24.73-2.69 11.73-7.3 22.35L855-120l-60 60Z"/></svg>