<svg xmlns="http://www.w3.org/2000/svg" width="48" height="48" viewBox="0 -960 960 960"><path d="M312.88-71.54q-12.03 0-20.15-8.12-8.11-8.12-8.11-19.96 0-11.23 8.12-19.65 8.12-8.42 19.95-8.42 11.23 0 19.66 8.42 8.42 8.42 8.42 19.46 0 12.04-8.42 20.15-8.43 8.12-19.47 8.12Zm147.16-8.12q-8.12-8.12-8.12-19.96 0-11.84 8.13-19.96 8.12-8.11 19.96-8.11 11.84 0 19.95 8.12 8.12 8.12 8.12 19.96 0 11.84-8.13 19.95-8.12 8.12-19.96 8.12-11.84 0-19.95-8.12Zm167.31 0q-8.12-8.12-8.12-19.96 0-11.23 8.12-19.65 8.12-8.42 19.96-8.42 11.84 0 19.96 8.42 8.11 8.42 8.11 19.46 0 12.04-8.12 20.15-8.12 8.12-19.96 8.12-11.84 0-19.95-8.12ZM499.72-722.1q8.51-8.26 8.51-19.85 0-11.59-8.53-19.82-8.54-8.23-19.85-8.23-11.31 0-19.54 8.26-8.23 8.26-8.23 19.84 0 11.59 8.25 19.82 8.26 8.23 19.57 8.23 11.32 0 19.82-8.25ZM256.77-220v-680h447.07v158.31h28.93v125.23h-28.93V-220H256.77Z"/></svg>