<svg xmlns="http://www.w3.org/2000/svg" width="48" height="48" viewBox="0 -960 960 960"><path d="M856.152-439.386q0 49.846-28.538 77.308-28.538 27.462-67.923 27.462-21.385 0-45.885-9.231-24.5-9.231-40.731-25.847L335.616-705.229q-3.538-68.001 53.654-109.462 57.193-41.461 144.422-41.461 43.692 0 67.692 25.884 24 25.884 24 60.423 0 23.692-10.347 45.615-10.346 21.923-30.884 35.999-24.846 15.846-40.115 44.423-15.269 28.577-19.193 62.039 6.231 1.539 9.809 3.462 3.577 1.923 5.885 5.846l109.615-41.076q15.846-5.616 29.999-8.731 14.154-3.116 29.616-3.116 70.614 0 108.499 56.038 37.884 56.038 37.884 129.96ZM829.154-52.924 624.999-258.079q.385 1.924.577 3.847.192 1.923.192 3.846-1.307 60.077-52.922 103.308-51.616 43.23-145 43.23-43.691 0-68.46-26.269-24.77-26.269-24.77-61.422 0-23.692 10.347-45.308 10.346-21.615 30.884-35.307 22.384-14.385 37.461-39.423 15.077-25.039 22.462-66.039-4.846-2.769-8.424-4.692-3.577-1.923-7.269-4.231l-110.231 39.076q-15.846 5.616-30.499 9.231-14.654 3.616-30.116 3.616-61.846 0-103.614-49.423-41.769-49.423-41.769-136.575 0-51.385 28-78.077 28-26.693 67.153-26.693 24.154 0 50.309 8.193 26.154 8.192 42.154 25.577l-253.54-252.54 32.615-32.614 791.229 791.23-32.614 32.614Z"/></svg>