<svg xmlns="http://www.w3.org/2000/svg" width="48" height="48" viewBox="0 -960 960 960"><path d="M140-647.23v-173.38h246.54v173.38H140Zm63.54 395.65q-31.31-31.59-31.31-76.19H93.85v-257.15h292.69v211.77h169.85l150.46-188.08v-139.54H585v-45.38h167.23v199.76l-173 218.62H386.54q0 44.54-31.26 76.15Q324.01-220 279.43-220t-75.89-31.58Zm119.38-32.34q18.23-18.54 18.23-43.85H217.62q0 25.31 18.23 43.85 18.23 18.53 43.54 18.53 25.3 0 43.53-18.53Zm360.23 32.66q-31.3-31.27-31.3-75.85T683.11-403q31.26-31.31 75.84-31.31 44.59 0 75.9 31.26 31.3 31.27 31.3 75.85t-31.26 75.89Q803.63-220 759.04-220q-44.58 0-75.89-31.26Zm119.39-32.36q18.23-18.23 18.23-43.53 0-25.31-18.23-43.54T759-388.92q-25.31 0-43.54 18.23t-18.23 43.54q0 25.3 18.23 43.53T759-265.39q25.31 0 43.54-18.23Z"/></svg>