<svg xmlns="http://www.w3.org/2000/svg" width="48" height="48" viewBox="0 -960 960 960"><path d="M478.08-412.85Zm153.07-1.23ZM100-180v-600h76.16l179.68 179.69H145.39v374.92h346.15V-180H100Zm760-600v179.69H448.77L269.46-780h69.77l67.23 137.39-3.07-3.08h128.84L466.69-780h121.93l65.53 134.31h127.31L715.92-780H860Zm-7.69 389.69-37-37.38 37 37.38Zm-62.54 130.23L684.69-364.77l130.62-130.61L920-390.31 789.77-260.08Zm-177.46 72.39h38l26.46-26.47-38-38-26.46 26.47v38ZM872.15-84l-32.23 32.61-129.61-129.23-40 40.62H564.62v-105.69l40.61-40L51.39-839.92 84-872.15 872.15-84Z"/></svg>