<svg xmlns="http://www.w3.org/2000/svg" width="48" height="48" viewBox="0 -960 960 960"><path d="M287.77-180.001 140.001-327.77 287.77-475.153l31.614 31.999-93.077 92.693h296.386v45.383H226.307l93.077 93.077-31.614 32Zm324.943-123.154q-9.713 0-17.174-7.249-7.461-7.248-7.461-17.345 0-10.328 7.441-17.482t17.153-7.154q10.328 0 17.482 7.134 7.153 7.133 7.153 17.461 0 10.097-7.133 17.366-7.134 7.269-17.461 7.269Zm114.615 0q-9.713 0-17.174-7.249-7.461-7.248-7.461-17.345 0-10.328 7.441-17.482t17.153-7.154q10.328 0 17.482 7.134 7.153 7.133 7.153 17.461 0 10.097-7.133 17.366-7.134 7.269-17.461 7.269ZM672.23-484.847l-31.614-31.614 93.462-93.078H437.307v-45.383h296.386l-93.077-93.077 31.614-32L819.999-632.23 672.23-484.847ZM232.713-607.615q-9.713 0-17.174-7.442-7.461-7.441-7.461-17.153 0-10.712 7.441-17.674 7.441-6.961 17.153-6.961 10.328 0 17.482 6.941 7.153 6.941 7.153 17.653 0 9.713-7.133 17.174-7.134 7.462-17.461 7.462Zm114.615 0q-9.713 0-17.174-7.442-7.461-7.441-7.461-17.153 0-10.712 7.441-17.674 7.441-6.961 17.153-6.961 10.328 0 17.482 6.941 7.153 6.941 7.153 17.653 0 9.713-7.133 17.174-7.134 7.462-17.461 7.462Z"/></svg>