<svg xmlns="http://www.w3.org/2000/svg" width="48" height="48" viewBox="0 -960 960 960"><path d="M169.244-465.922q-15.936 0-27.974-11.949-12.039-11.949-12.039-27.884 0-15.936 11.949-27.974t27.885-12.038q15.935 0 27.974 11.949 12.038 11.948 12.038 27.884 0 15.935-11.949 27.974-11.949 12.038-27.884 12.038ZM133.847-90.001v-169.845H98.463v-176.229h141.383v176.229h-34.769v124.462h377.616v-253.77h-88.308q-58.461 0-99.461-39.192t-41-94.499q0-43.308 27.116-82.038 27.115-38.731 74.807-56.116 3.923-67.692 49.231-109.499 45.307-41.808 102.153-41.808 57.845 0 102.845 41.808 45 41.807 49.538 109.499 47.692 17.385 74.808 56.116 27.115 38.73 27.115 82.038 0 55.307-41.307 94.499-41.308 39.192-99.769 39.192h-92.385v253.77h207.923v45.383H133.847Z"/></svg>