<svg xmlns="http://www.w3.org/2000/svg" width="48" height="48"><path d="M24 40.75q1.4 0 2.775-.25t2.675-.7q-1.45-1.45-2.225-3.325-.775-1.875-.775-4.025 0-.65.075-1.3t.225-1.25q-1.4-.65-2.1-2.225-.7-1.575-.7-3.675 0-2.75 1.2-4.55 1.2-1.8 3.5-1.8 2 0 3.175 1.375Q33 20.4 33.3 22.55q.9-.3 1.8-.475t1.85-.175q.95 0 1.875.175t1.875.475q-.25-3.25-1.675-6.025-1.425-2.775-3.675-4.85-2.25-2.075-5.175-3.25Q27.25 7.25 24 7.25q-3.45 0-6.5 1.325t-5.325 3.6q-2.275 2.275-3.6 5.3Q7.25 20.5 7.25 24q0 3.45 1.325 6.5t3.6 5.325q2.275 2.275 5.325 3.6 3.05 1.325 6.5 1.325zm3.2-12.25q.75-1.7 1.95-3.075Q30.35 24.05 32 23.2q-.15-1.95-1.05-3.05-.9-1.1-2.3-1.1-1.55 0-2.45 1.325-.9 1.325-.9 3.625 0 1.8.525 2.925.525 1.125 1.375 1.575zM37 43q-1.45 0-2.85-.4-1.4-.4-2.65-1.2-1.75.8-3.675 1.2Q25.9 43 24 43q-3.95 0-7.4-1.5t-6.025-4.075Q8 34.85 6.5 31.4T5 24q0-3.95 1.5-7.4t4.075-6.025Q13.15 8 16.6 6.5T24 5q3.9 0 7.35 1.475Q34.8 7.95 37.375 10.5q2.575 2.55 4.075 6T43 23.85q2.1 1.45 3.325 3.725 1.225 2.275 1.225 4.875 0 4.4-3.075 7.475Q41.4 43 37 43zm0-2.3q3.45 0 5.85-2.4 2.4-2.4 2.4-5.85 0-3.45-2.4-5.875T37 24.15q-3.45 0-5.85 2.425-2.4 2.425-2.4 5.875t2.4 5.85q2.4 2.4 5.85 2.4zM14 30.05V28.4q1.35-1.15 2.325-1.975Q17.3 25.6 18.2 24.8q1.3-1.15 1.775-1.9.475-.75.475-1.7 0-1-.7-1.575T18 19.05q-1.15 0-1.8.525-.65.525-.95 1.325l-1.3-.55q.45-1.15 1.5-1.925 1.05-.775 2.6-.775 1.7 0 2.725 1.1 1.025 1.1 1.025 2.4 0 1.2-.525 2.2-.525 1-1.775 2.1-.55.55-1.55 1.4-1 .85-1.95 1.7l.05.1h5.9v1.4z"/></svg>