<svg xmlns="http://www.w3.org/2000/svg" width="48" height="48" viewBox="0 0 48 48"><path d="m30.5 19.35-5.2-5.25q-1.6-1.55-3.6-2.45-2-.9-4.2-.9-3.15 0-5.725 1.6-2.575 1.6-4.025 4.3 1.45-2.7 4.025-4.3 2.575-1.6 5.725-1.6 2.2 0 4.2.9t3.6 2.45Zm-29 15.5V.6h3.15q1.3 0 2.2.9.9.9.9 2.25V8.8q1.3-2.7 3.85-4.375 2.55-1.675 5.75-1.675H30.5v16.6l3.8 3.75-15.5 15.5-9-8.95q-.6-.6-1.125-1.275-.525-.675-.925-1.425v4.8q0 1.3-.9 2.2-.9.9-2.2.9ZM17.35 5q-3.55 0-6 2.575t-2.4 6.175q0 .25.025.475.025.225.075.475 1.55-1.8 3.725-2.875T17.5 10.75q2.2 0 4.2.9t3.6 2.45l2.95 2.95V5ZM8.8 21.9q0 1.75.675 3.3.675 1.55 1.925 2.85l7.4 7.4L31.1 23.1l-7.5-7.5q-1.25-1.25-2.825-1.925Q19.2 13 17.5 13q-3.7 0-6.2 2.625T8.8 21.9Zm30.4 9.35h-5.05v-2.3h5.05Zm-4.85 8.9L30.8 36.6l1.6-1.55 3.55 3.5Zm-9.6 3.25v-5H27v5Zm-4.8-19.2Z"/></svg>