<svg xmlns="http://www.w3.org/2000/svg" width="48" height="48" viewBox="0 -960 960 960"><path d="M919.999-321.462q-27.615 0-47.077-19.461-19.461-19.462-19.461-47.077v-160q0-27.923 19.461-47.231 19.462-19.307 47.077-19.307h26.538v293.076h-26.538Zm-401.153-187.73q0 35.961-13.435 68.882-13.436 32.922-39.411 59.078L309.232-224.464 54.312-478l156.767-158.153q26.157-25.975 59.078-39.41 32.922-13.436 68.883-13.436 75.518 0 127.662 52.144 52.144 52.144 52.144 127.663ZM679-367l-22.615-23 59.462-59.462H573.462v-33.076h147.769L657-546.769l23-22.615 101.384 100.999L679-367Z"/></svg>