<svg xmlns="http://www.w3.org/2000/svg" width="48" height="48" viewBox="0 -960 960 960"><path d="m779.999-272.694-45.384-45.384v-329.229q0-40.587-28.361-68.948-28.361-28.361-68.859-28.361H313.27q-3.039 0-4.424.77l-36.691-36.692q5-1.615 12.462-4 7.461-2.384 15.384-3.384v-82.077h85.384v80h189.23v-80h85.384v82.077q49.461 7.076 84.73 45.845 35.27 38.77 35.27 94.77v374.613ZM666.922-385.771l-76.921-76.921h76.921v76.921Zm141.462 299L86.771-808.384l32.615-32.23 721.613 721.228-32.615 32.615ZM477.463-462.692v45.384H293.078v-45.384h184.385Zm50.383-62.155Zm-48 109.307ZM217.078-742.922l31.999 31.999q-11.231 12.385-17.461 28.776-6.231 16.391-6.231 34.918v504.152h509.23v-82.308l45.384 45.384v82.307H180.001v-549.763q0-28.084 10.077-52.352 10.077-24.267 27-43.113Z"/></svg>