<svg xmlns="http://www.w3.org/2000/svg" width="48" height="48" viewBox="0 -960 960 960"><path d="M841.847-52.924 496.538-398.233v-65.229l243.461 243.461v80h-57.693q0 15.038-10.18 25.211-10.181 10.173-25.231 10.173-15.05 0-25.203-10.173-10.154-10.173-10.154-25.211H348.462q0 15.076-10.181 25.23-10.18 10.154-25.23 10.154t-25.204-10.173q-10.153-10.173-10.153-25.211h-57.693v-560.767h38.847l18.845 18.461v65.229L50.617-844.154l32.615-32.614L874.46-85.538l-32.614 32.614ZM496.538-398.233l-33.076-33.076v181.308h33.076v-148.232Zm-130-130-33.076-33.076v311.308h33.076v-278.232Zm41.924-171.766h148.461v-115.384H408.462v115.384ZM739.999-312.54 626.538-426.001v-163.998h-33.076v130.922l-96.924-95.385v-35.537h-24.999v10.153L351.002-699.999h24.384v-148.46h214.613v148.46h150v387.459Zm-146.537-20.922v83.461h33.076v-83.461h-33.076Z"/></svg>