<svg xmlns="http://www.w3.org/2000/svg" width="48" height="48" viewBox="0 96 960 960"><path d="M841.847 1003.08 496.538 657.767v-65.229l243.461 243.461v80h-57.693q0 15.038-10.18 25.211-10.181 10.173-25.231 10.173-15.05 0-25.203-10.173-10.154-10.173-10.154-25.211H348.462q0 15.076-10.181 25.23-10.18 10.154-25.23 10.154t-25.204-10.173q-10.153-10.173-10.153-25.211h-57.693V355.232h38.847l18.845 18.461v65.229L50.617 211.846l32.615-32.614L874.46 970.461l-32.614 32.619ZM496.538 657.767l-33.076-33.076v181.308h33.076V657.767Zm-130-130-33.076-33.076v311.308h33.076V527.767Zm41.924-171.766h148.461V240.617H408.462v115.384ZM739.999 743.46 626.538 629.999V466.001h-33.076v130.922l-96.924-95.385v-35.537h-24.999v10.153L351.002 356.001h24.384v-148.46h214.613v148.46h150V743.46Zm-146.537-20.922v83.461h33.076v-83.461h-33.076Z"/></svg>