<svg xmlns="http://www.w3.org/2000/svg" width="48" height="48" viewBox="0 -960 960 960"><path d="M220.96-128.89q-15.57-15.82-15.57-38.27 0-22.46 15.81-38.03 15.82-15.58 38.27-15.58 22.45 0 38.03 15.81 15.58 15.82 15.58 38.27 0 22.46-15.82 38.03-15.81 15.58-38.27 15.58-22.45 0-38.03-15.81Zm433.5-268.34L476.39-576.31l162.38-190.15q17.08-20.08 40.15-31.81Q702-810 728.69-810q45.62 0 77.12 31.5 31.49 31.5 31.49 77.12V-680h-45.38v-21.38q0-26.39-18.41-44.81-18.42-18.42-44.82-18.42-17.38 0-32.15 8.69t-25.77 22.31l-16.31 19.46v316.92Zm-35.75 56.07 65.9 65.77H220.16l184.38-214.84L47.16-847.62l32.61-32.61L877.54-82.46l-32.23 32.61-291.69-291.31h65.09Zm-11.64 228.08q-22.46 0-38.03-15.81-15.58-15.82-15.58-38.27 0-22.46 15.82-38.03 15.81-15.58 38.26-15.58 22.46 0 38.03 15.81 15.58 15.82 15.58 38.27 0 22.46-15.81 38.03-15.82 15.58-38.27 15.58ZM439.85-612.85 272.16-780.54q32.38-15.15 67.8-22.3 35.42-7.16 71.43-7.16 42.4 0 83.63 9.89 41.22 9.88 79.52 28.27L439.85-612.85Z"/></svg>