<svg xmlns="http://www.w3.org/2000/svg" width="48" height="48" viewBox="0 -960 960 960"><path d="M302.38-221.62V-140h-59.84v-101q-26.69-11-44.62-41.19Q180-312.39 180-348.31v-366.46L50.62-844.15l32.61-32.62L874.46-85.54l-32.61 32.62-189.39-189.39h65.23V-140h-60.07v-81.62H302.38ZM307-267h321.16l-206.7-206.31H225.39v120q0 34.23 23.5 60.27Q272.39-267 307-267Zm457.61-20.92-30-36.08v-149.31H579.23l-45.38-45.38h200.76v-188H345.85l-45.39-45.39h435.69q-19.38-30.61-84.5-46.57-65.11-15.96-171.03-15.96-80 0-133 6.42T264-788.54l-31-31q36.08-20.54 97.27-30.5T480.62-860q157.15 0 228.26 30.16Q780-799.69 780-733v384.69q0 16.16-3.85 31.31-3.84 15.15-11.54 29.08Zm-400.38-48.16q14.08-14.07 14.08-34.38 0-20.31-14.08-34.58t-34.38-14.27q-20.31 0-34.58 14.27T281-370.46q0 20.31 14.27 34.38Q309.54-322 329.85-322q20.3 0 34.38-14.08ZM225.39-518.69h150.69l-150.69-150.7v150.7Zm75.07-233.39h435.69-435.69Zm121 278.77Zm157.77 0Z"/></svg>