<svg xmlns="http://www.w3.org/2000/svg" width="48" height="48" viewBox="0 -960 960 960"><path d="M480-100q-124.92 0-212.46-87.61T180-400.69v-198.08q0-113.72 89.85-187.47Q359.69-860 480-860q117.61 0 208.81 72.79Q780-714.41 780-598.77V-100H480Zm0-45.39h124.77q-37-28.46-58.58-71.19-21.57-42.73-21.57-93.42v-31.31q-11.16 2-22.12 2.39-10.96.38-22.31.38-74.42 0-140.38-31.61-65.96-31.62-112.19-88.39l-2.23 57.85q0 105.96 74.07 180.63T480-145.39ZM570-310q0 67.92 48.35 116.27 48.34 48.34 116.26 48.34l-2.23-312.77q-31.93 39.59-72.93 66.26-40.99 26.67-89.45 40.67V-310ZM457.31-559.31q0-73.23-52.19-123.54-52.2-50.3-124.97-51.07-25.87 26.94-40.32 61.19-14.44 34.26-14.44 73.96 0 95.89 76.74 155.37 76.74 59.48 177.93 59.48 101.19 0 177.87-59.48t76.68-155.37q0-40.42-14.85-74.48-14.86-34.06-41.3-61.06-72.29 2.1-124.03 52.31-51.74 50.22-51.74 122.69h-45.38ZM321.89-579.3q-7.66-7.83-7.66-19.38 0-11.55 7.84-19.47 7.83-7.93 19.38-7.93 11.55 0 19.47 8.1 7.93 8.1 7.93 19.65 0 11.55-8.1 19.21t-19.65 7.66q-11.55 0-19.21-7.84Zm277.31 0q-7.66-7.83-7.66-19.38 0-11.55 7.83-19.47 7.84-7.93 19.39-7.93t19.47 8.1q7.92 8.1 7.92 19.65 0 11.55-8.1 19.21-8.09 7.66-19.64 7.66t-19.21-7.84ZM327.38-771.92q50.62 12.07 90.5 43.19Q457.77-697.61 480-654q21.85-44.23 61.62-74.85 39.77-30.61 90-43.07-33.16-20.46-71.59-31.58-38.43-11.11-80.05-11.11-41.61 0-80.72 11.11-39.11 11.12-71.88 31.58ZM780-145.39H524.62 780Zm-300 0q-106.47 0-180.54-74.67t-74.07-180.63h2.23Q226-294.23 300-219.81q74.01 74.42 180 74.42h124.77H480ZM570-310q0 67.92 47.85 116.27 47.84 48.34 114.53 48.34h2.23q-67.92 0-116.26-48.34Q570-242.08 570-310Zm-90.62-344Z"/></svg>