<svg xmlns="http://www.w3.org/2000/svg" width="48" height="48" viewBox="0 -960 960 960"><path d="M60-177.69V-860h368.85v247.31h-73.47q-55.25 0-93.97 38.69-38.72 38.7-38.72 93.93 0 55.22 38.83 94.19 38.83 38.96 94.25 38.96h73.08v169.23H60Zm199.19-535.93q6.2-6.24 6.2-14.58t-6.24-14.53q-6.24-6.19-14.77-6.19t-14.53 6.23q-6 6.24-6 14.58t6.04 14.53q6.05 6.2 14.58 6.2 8.53 0 14.72-6.24Zm44.5 252.84q-7.92-8.08-7.92-19.38 0-11.3 8.08-19.22 8.09-7.93 19.39-7.93t19.22 8.09q7.92 8.08 7.92 19.38 0 11.3-8.08 19.22-8.09 7.93-19.38 7.93-11.3 0-19.23-8.09Zm156.93 0q-7.93-8.08-7.93-19.38 0-11.3 8.09-19.22 8.08-7.93 19.38-7.93 11.3 0 19.22 8.09 7.93 8.08 7.93 19.38 0 11.3-8.09 19.22-8.08 7.93-19.38 7.93-11.3 0-19.22-8.09ZM531.15-100v-246.92h73.08q55.26 0 93.98-38.7 38.71-38.7 38.71-93.92 0-55.23-38.71-94.19-38.72-38.96-93.98-38.96h-73.08v-169.62H900V-100H531.15Zm86-360.78q-7.92-8.08-7.92-19.38 0-11.3 8.09-19.22 8.08-7.93 19.38-7.93 11.3 0 19.22 8.09 7.93 8.08 7.93 19.38 0 11.3-8.09 19.22-8.08 7.93-19.38 7.93-11.3 0-19.23-8.09Zm113.2-173.73q6.19-6.04 6.19-14.57 0-8.53-6.24-14.73-6.24-6.19-14.77-6.19T701-663.76q-6 6.23-6 14.77 0 8.53 6.04 14.53 6.05 6 14.58 6 8.53 0 14.73-6.05Z"/></svg>