<svg xmlns="http://www.w3.org/2000/svg" width="48" height="48" viewBox="0 -960 960 960"><path d="M98.89-426.19Q76.54-448.54 76.54-480t22.35-53.81q22.34-22.34 53.8-22.34 31.46 0 53.81 22.34 22.35 22.35 22.35 53.81t-22.35 53.81q-22.35 22.34-53.81 22.34t-53.8-22.34Zm80.5-27.12q11.15-11.15 11.15-26.69 0-15.54-11.15-26.69-11.16-11.16-26.7-11.16T126-506.69q-11.15 11.15-11.15 26.69 0 15.54 11.15 26.69 11.15 11.16 26.69 11.16 15.54 0 26.7-11.16Zm136.99 27.12q-22.15-22.35-22.15-53.81t22.15-53.81q22.16-22.34 53.81-22.34 31.66 0 54 22.34 22.35 22.35 22.35 53.81t-22.35 53.81q-22.34 22.34-54 22.34-31.65 0-53.81-22.34Zm80.7-27.12q11.15-11.15 11.15-26.69 0-15.54-11.15-26.69-11.16-11.16-26.89-11.16t-26.88 11.16q-11.16 11.15-11.16 26.69 0 15.54 11.16 26.69 11.15 11.16 26.88 11.16 15.73 0 26.89-11.16Zm137.96 27.12q-22.35-22.35-22.35-53.81t22.35-53.81q22.34-22.34 54-22.34 31.65 0 53.81 22.34Q665-511.46 665-480t-22.15 53.81q-22.16 22.34-53.81 22.34-31.66 0-54-22.34Zm80.88-27.12q11.16-11.15 11.16-26.69 0-15.54-11.16-26.69-11.15-11.16-26.88-11.16-15.73 0-26.89 11.16Q551-495.54 551-480q0 15.54 11.15 26.69 11.16 11.16 26.89 11.16t26.88-11.16Zm137.58 27.12q-22.35-22.35-22.35-53.81t22.35-53.81q22.35-22.34 53.81-22.34t53.8 22.34q22.35 22.35 22.35 53.81t-22.35 53.81q-22.34 22.34-53.8 22.34-31.46 0-53.81-22.34Z"/></svg>