<svg xmlns="http://www.w3.org/2000/svg" width="48" height="48" viewBox="0 96 960 960"><path d="M170.387 956.383q21.461-57.001 45.346-154.807 23.884-97.807 23.884-225.191t-23.884-225.191q-23.885-97.807-45.346-154.808h619.226q-21.461 57.001-45.73 154.808-24.269 97.807-24.269 225.191t24.269 225.191q24.269 97.806 45.73 154.807H170.387ZM725.307 911q-27.077-81.231-39.077-165.193-12-83.961-12-169.422 0-85.462 12-169.423 12-83.962 39.077-165.192H235.308Q261.77 323 273.385 406.962 285 490.923 285 576.385q0 85.461-11.615 169.422Q261.77 829.769 235.308 911h489.999ZM480 576.385Z"/></svg>