<svg xmlns="http://www.w3.org/2000/svg" width="48" height="48" viewBox="0 -960 960 960"><path d="M73.849-187.694v-468.458h45.383v423.074h647.689v45.384H73.849Zm110.768-110.769v-476.92h701.534v476.92H184.617Zm132.306-45.383q0-36.135-25.394-61.529-25.394-25.394-61.528-25.394v86.923h86.922Zm436.923 0h86.922v-86.923q-36.231 0-61.576 25.394-25.346 25.394-25.346 61.529Zm-218.462-93.078q41.923 0 70.961-29.038 29.038-29.038 29.038-70.961 0-41.922-29.038-70.96-29.038-29.038-70.961-29.038-41.922 0-70.96 29.038-29.038 29.038-29.038 70.96 0 41.923 29.038 70.961 29.038 29.038 70.96 29.038ZM230.001-643.077q36.134 0 61.528-25.394t25.394-61.528h-86.922v86.922Zm610.767 0v-86.922h-86.922q0 36.23 25.394 61.576 25.394 25.346 61.528 25.346Z"/></svg>