<svg xmlns="http://www.w3.org/2000/svg" width="48" height="48" viewBox="0 -960 960 960"><path d="M504.847-513.386v-305.613h314.382v222.383H591.538l-86.691 83.23Zm45.383-260.229V-642v-131.615Zm0 131.615h223.616v-131.615H550.23V-642Zm225.153 499.691q-111.614.384-224.614-56.615-112.999-57-203.999-147.808-91-90.807-148.499-204.114-57.5-113.307-57.5-224.922 0-10.615 1-22.423 1-11.808 3-21.808h188.536L371-647.154 257.846-536.846q57.539 95.692 127.616 165.077Q455.539-302.385 547-252.461l111.615-116.385 160.614 35.385v188.152q-9.615 1-21.615 2-12 1-22.231 1ZM234.77-577.999l86-83.154-24.539-113.462H186.539q-1.923 42.462 11.231 91.462t37 105.154Zm354.768 346.845q38.692 19 89.769 31.384 51.077 12.385 94.539 12.077v-109.692l-101.462-20.616-82.846 86.847ZM234.77-577.999Zm354.768 346.845Z"/></svg>