<svg xmlns="http://www.w3.org/2000/svg" width="48" height="48" viewBox="0 96 960 960"><path d="M440 549.076q-54.519 0-93.605-39.086-39.086-39.086-39.086-93.605 0-55.134 39.086-93.912 39.086-38.779 93.605-38.779 55.134 0 93.913 38.779 38.778 38.778 38.778 93.912 0 54.519-38.778 93.605-38.779 39.086-93.913 39.086Zm436.46 455.384L750.692 878.306q-21.846 16.231-44.808 22.539-22.961 6.307-45.805 6.307-63.386 0-107.309-44.013-43.922-44.013-43.922-107.23 0-63.216 44.013-107.139 44.013-43.922 107.23-43.922 63.216 0 107.139 43.986Q811.152 692.821 811.152 756q0 22.923-6.115 45.884-6.115 22.962-22.731 44.808L908.459 972.46l-31.999 32ZM660 861.769q45.077 0 75.423-30.346 30.346-30.346 30.346-75.423t-30.346-75.423Q705.077 650.231 660 650.231t-75.423 30.346Q554.231 710.923 554.231 756t30.346 75.423q30.346 30.346 75.423 30.346ZM474.77 644.308q-31.076 53.461-30.038 113.537Q445.77 817.921 478 868.306H140.001v-75.922q0-32 15.962-54.73 15.961-22.731 45.5-38.192Q245.77 678 320.501 657.885q74.73-20.115 154.269-13.577Z"/></svg>