<svg xmlns="http://www.w3.org/2000/svg" width="48" height="48" viewBox="0 -960 960 960"><path d="M480-581.539q-55.519 0-94.105-38.586-38.586-38.586-38.586-94.105 0-55.518 38.586-94.104 38.586-38.587 94.105-38.587 55.519 0 94.105 38.587 38.586 38.586 38.586 94.104 0 55.519-38.586 94.105-38.586 38.586-94.105 38.586Zm-79.999 415.383q-18.154 0-30.808-12.654t-12.654-30.808q0-18.153 12.654-30.807t30.86-12.654h100.948l-41.615 86.923h-59.385Zm-220 45.384v-232.43q0-30.798 16.654-55.452 16.654-24.653 44.808-37.5 56.958-25.908 116.468-41.223 59.51-15.315 122.069-15.315 32.769 0 64.923 4.577t62.923 13.346l-85.999 186.306H400.001q-37.364 0-63.105 25.745-25.741 25.746-25.741 63.115 0 37.37 25.741 63.1 25.741 25.731 63.105 25.731h-220Zm472.998 0v-350.843q16.231 5.615 32.462 11.731 16.23 6.115 32.461 13.73 28.154 12.462 45.115 37.348 16.962 24.886 16.962 55.575v174.767q0 23.75-16.972 40.721-16.971 16.971-40.721 16.971h-69.307Z"/></svg>