<svg xmlns="http://www.w3.org/2000/svg" width="48" height="48" viewBox="0 -960 960 960"><path d="M385.81-531.42q-38.5-38.5-38.5-94.19 0-55.7 38.5-94.2t94.19-38.5q55.69 0 94.19 38.5t38.5 94.2q0 55.69-38.5 94.19T480-492.92q-55.69 0-94.19-38.5ZM180-187.69v-75.93q0-30.3 16.66-55.19 16.65-24.88 44.8-37.73 56.93-25.46 116.54-41 59.61-15.54 122.07-15.54 62.47 0 121.51 15.85 59.03 15.85 116.34 40.69 28.16 12.85 45.12 37.73Q780-293.92 780-263.62v75.93H180Zm362.08-376.04q25.23-25.42 25.23-61.88 0-36.85-25.23-62.08-25.23-25.23-62.08-25.23-36.85 0-62.08 25.23-25.23 25.23-25.23 62.08 0 36.46 25.23 61.88T480-538.31q36.85 0 62.08-25.42Zm86.38 219.96v110.69h106.15v-30.54q0-17-10.15-30.69Q714.31-308 698.92-316q-17.77-8.39-35.04-15.08-17.27-6.69-35.42-12.69Zm-251.54-12.77v56.15h206.16v-56.15q-25.39-5.77-51.14-8.46-25.75-2.69-52.04-2.69-26.28 0-51.94 2.69-25.65 2.69-51.04 8.46ZM225.39-233.08h106.15v-111.69q-18.15 6.38-35.92 13.38-17.77 7-35.16 15.39-15.38 8-25.23 21.69-9.84 13.69-9.84 30.69v30.54Zm403.07 0H331.54h296.92ZM480-625.61Z"/></svg>