<svg xmlns="http://www.w3.org/2000/svg" width="48" height="48" viewBox="0 -960 960 960"><path d="M480-68.464 367.847-180.617H140.001v-679.997h679.998v679.997H592.153L480-68.464ZM185.385-258q58.461-54.846 133.012-88.384 74.55-33.539 161.499-33.539 86.95 0 161.604 33.539Q716.154-312.846 774.615-258v-557.23h-589.23V-258Zm296.038-207.462q53.961 0 91.269-37.035 37.307-37.036 37.307-91.349t-37.307-91.348q-37.308-37.036-91.269-37.036-53.961 0-91.269 37.036-37.307 37.035-37.307 91.348t37.307 91.349q37.308 37.035 91.269 37.035ZM224.999-226h510.386v-7.846q-56.307-50.616-121.029-75.655Q549.634-334.539 480-334.539q-69.308 0-134 25.038-64.693 25.039-121.001 74.885V-226Zm256.616-284.845q-34.808 0-59.096-24.097-24.289-24.096-24.289-58.904 0-34.808 24.289-58.904 24.288-24.096 58.904-24.096t58.904 24.096q24.289 24.096 24.289 58.904 0 34.808-24.369 58.904-24.369 24.097-58.632 24.097ZM480-536.923Z"/></svg>