<svg xmlns="http://www.w3.org/2000/svg" width="48" height="48" viewBox="0 -960 960 960"><path d="M159.539-145.54 34.309-270.77l26-29.23q82.384-88.462 192.538-134.231Q363-480 480-480q116.384 0 226.461 46.154Q816.538-387.693 899.307-300l26.384 29.23-125.23 125.23-142.537-106.846v-150.923Q613.231-420.078 568-427.347q-45.231-7.269-88-7.269t-88 7.269q-45.231 7.269-89.924 24.038v150.923L159.539-145.54Zm93.308-239.308q-44.385 20.924-84.27 49.924t-71.885 60.923l65.462 67.078 90.693-67.539v-110.386Zm450.46-3.23v108.385l93.924 71.77 66.847-65.693Q829-308.539 789.039-336.347q-39.962-27.808-85.732-51.731Zm-450.46 3.23Zm450.46-3.23ZM479.769-531.462 271.462-742v130.846h-45.384v-208.845h209.23v45.384H301.23l179.539 177.924 222.923-223.923 32.614 32.615-256.537 256.537Z"/></svg>