<svg xmlns="http://www.w3.org/2000/svg" width="48" height="48" viewBox="0 -960 960 960"><path d="M587.615-553.23v-193h43.846v-39.452q0-31.009 20.8-52.663 20.8-21.654 51.738-21.654 30.461 0 51.5 21.683 21.038 21.683 21.038 52.753v39.205h43.462v193.128H587.615Zm74.769-193h83.846v-39q0-18.74-12.39-31.293-12.389-12.553-29.226-12.553-17 0-29.615 12.606-12.615 12.606-12.615 31.24v39Zm107.615 606.229q-104.153 0-215.768-53.616-111.615-53.615-209.115-150.999-97.5-97.384-151.307-209.192-53.808-111.807-53.808-216.191v-50h191.537l37.692 173.23-113.153 110.923q28.769 47.307 58.846 87.154Q345-408.846 377-376.846q36 36.385 77.962 67.885 41.961 31.5 92.808 59.423L659-365.153l160.999 33.999v191.153h-50ZM234-577.999l86.001-83.154-24.539-113.462H185.385q-.769 40.308 11.115 88.846 11.885 48.539 37.5 107.77Zm356.307 349.153q39.077 19.384 88.039 31 48.961 11.615 96.269 12.846v-110.078l-101.461-20.615-82.847 86.847ZM234-577.999Zm356.307 349.153Z"/></svg>