<svg xmlns="http://www.w3.org/2000/svg" width="48" height="48" viewBox="0 -960 960 960"><path d="M225.386-639.616v-209.613h509.228v209.613H225.386ZM270.77-685h418.46v-118.845H270.77V-685ZM110.771-126.927v-119.614h738.458v119.614H110.771Zm0-147.691 147.692-332.306h443.074l147.692 332.306H110.771Zm216.153-73.076h75.384v-35.385h-75.384v35.385Zm0-75.385h75.384v-35.384h-75.384v35.384Zm0-75.384h75.384v-35.384h-75.384v35.384Zm115.384 150.769h75.384v-35.385h-75.384v35.385Zm0-75.385h75.384v-35.384h-75.384v35.384Zm0-75.384h75.384v-35.384h-75.384v35.384Zm115.384 150.769h75.384v-35.385h-75.384v35.385Zm0-75.385h75.384v-35.384h-75.384v35.384Zm0-75.384h75.384v-35.384h-75.384v35.384Z"/></svg>