<svg xmlns="http://www.w3.org/2000/svg" width="48" height="48" viewBox="0 -960 960 960"><path d="M808.384-86.771 698.383-196.388v56.387H261.617V-311.77H111.541v-321.614h149.846l-174.616-175 32.615-32.23 721.228 721.228-32.23 32.615ZM307-185.385h346v-56.386L515.463-379.693H307v194.308ZM741.153-311.77 419.155-633.384h429.304v321.614H741.153Zm-42.77-349.69H391.079L245.234-807.69h453.149v146.23Zm27.731 169.614q13.347 0 23.116-9.776t9.769-22.923q0-13.148-9.774-22.917-9.774-9.769-22.918-9.769-13.539 0-23.116 9.776t-9.577 22.923q0 13.147 9.577 22.917 9.577 9.769 22.923 9.769Z"/></svg>