<svg xmlns="http://www.w3.org/2000/svg" width="48" height="48" viewBox="0 -960 960 960"><path d="M130.001-90v-620h127.307v-200h445.384v200h127.307v619.998H130.001Zm172.691-620h354.616v-154.617H302.692V-710ZM480-223.307q73.676 0 125.184-51.509Q656.693-326.324 656.693-400q0-73.676-51.509-125.184Q553.676-576.693 480-576.693q-73.676 0-125.184 51.509Q303.307-473.676 303.307-400q0 73.676 51.509 125.184Q406.324-223.307 480-223.307Zm46-105.77-63.692-63.692v-104.923h35.384v90.546L550.923-354 526-329.077Z"/></svg>