<svg xmlns="http://www.w3.org/2000/svg" width="48" height="48" viewBox="0 96 960 960"><path d="M130.001 965.999V346.001h127.307v-200h445.384v200h127.307v619.998H130.001Zm172.691-619.998h354.616V191.384H302.692v154.617ZM480 832.693q73.676 0 125.184-51.509Q656.693 729.676 656.693 656q0-73.676-51.509-125.184Q553.676 479.307 480 479.307q-73.676 0-125.184 51.509Q303.307 582.324 303.307 656q0 73.676 51.509 125.184Q406.324 832.693 480 832.693Zm46-105.77-63.692-63.692V558.308h35.384v90.546L550.923 702 526 726.923Z"/></svg>