<svg xmlns="http://www.w3.org/2000/svg" width="48" height="48" viewBox="0 -960 960 960"><path d="M247.693-407.693h105.691l239.307-239.923-105.075-104.691-239.923 238.923v105.691Zm276.923-239.538-37-37.385 37 37.385ZM295.384-455.384v-38l120.079-119.463 18.615 18.769 18.385 19-119.079 119.694h-38Zm138.694-138.694 18.385 19-37-37.769 18.615 18.769Zm16.692 186.385h261.537v-45.383H496.154l-45.384 45.383ZM100.001-118.464v-741.535h759.998v599.998h-618.46L100.001-118.464Zm121.692-186.921h592.922v-509.23h-669.23v589.999l76.308-80.769Zm-76.308 0v-509.23 509.23Z"/></svg>