<svg xmlns="http://www.w3.org/2000/svg" width="48" height="48"><path d="m21.5 18-1.6-1.6 4.55-4.5h-8.8q-.35 1.4-1.35 2.4t-2.4 1.35v16.7q1.7.4 2.775 1.75t1.075 3.15q0 2.05-1.45 3.525t-3.55 1.475q-2.05 0-3.525-1.475T5.75 37.25q0-1.8 1.1-3.15 1.1-1.35 2.8-1.75v-16.7q-1.7-.4-2.8-1.75-1.1-1.35-1.1-3.15 0-2.05 1.475-3.525T10.75 5.75q1.8 0 3.15 1.1 1.35 1.1 1.75 2.8h8.8L19.9 5.1l1.6-1.6 7.3 7.25zM37.25 5.75q2.05 0 3.525 1.475t1.475 3.525q0 2.1-1.475 3.55-1.475 1.45-3.525 1.45-2.1 0-3.55-1.45-1.45-1.45-1.45-3.55 0-2.05 1.45-3.525t3.55-1.475zm-26.5 34.2q1.2 0 1.975-.775.775-.775.775-1.925 0-1.2-.775-1.975-.775-.775-1.975-.775-1.15 0-1.925.775-.775.775-.775 1.975 0 1.15.775 1.925.775.775 1.925.775zm0-26.45q1.2 0 1.975-.775.775-.775.775-1.975 0-1.15-.775-1.925-.775-.775-1.975-.775-1.15 0-1.925.775-.775.775-.775 1.925 0 1.2.775 1.975.775.775 1.925.775zm26.5 0q1.15 0 1.925-.775.775-.775.775-1.975 0-1.15-.775-1.925-.775-.775-1.925-.775-1.2 0-1.975.775-.775.775-.775 1.925 0 1.2.775 1.975.775.775 1.975.775zm-26.5 26.35q-1.1 0-1.85-.75t-.75-1.85q0-1.1.75-1.875.75-.775 1.85-.775t1.875.775q.775.775.775 1.875t-.775 1.85q-.775.75-1.875.75zm0-26.45q-1.1 0-1.85-.775t-.75-1.875q0-1.1.75-1.85t1.85-.75q1.1 0 1.875.75.775.75.775 1.85t-.775 1.875q-.775.775-1.875.775zm26.5 0q-1.1 0-1.875-.775-.775-.775-.775-1.875t.775-1.85q.775-.75 1.875-.75t1.85.75q.75.75.75 1.85t-.75 1.875q-.75.775-1.85.775zm-5.6 11.05 3.5 3.4.1-.05v.15h.15l-.05.05 3.45 3.45-10.7 10.8H21v-7.1zm8.55 5.6-7.15-7 1.55-1.5q.8-.85 2.025-.85 1.225 0 2.075.9l2.95 2.95q.85.9.85 2.075 0 1.175-.9 2.025z"/></svg>