<svg xmlns="http://www.w3.org/2000/svg" width="48" height="48" viewBox="0 96 960 960"><path d="M55.386 835.999V316.001h519.997v519.998H55.386Zm262.844-45.384Zm-217.461-42.769q47.462-31.23 102.231-47.807 54.769-16.577 112.384-16.577 57.616 0 112.385 16.577 54.769 16.577 102.23 47.807V361.385h-429.23v386.461Zm593.846 88.153V316.001h45.384v519.998h-45.384Zm164.616 0V316.001h45.383v519.998h-45.383ZM315.384 620.461q-43.307 0-73.884-30.577-30.577-30.577-30.577-73.884t30.577-73.884q30.577-30.577 73.884-30.577 43.308 0 73.885 30.577 30.576 30.577 30.576 73.884t-30.576 73.884q-30.577 30.577-73.885 30.577Zm0-104.461ZM118.845 790.615h393.078q-44.154-31.308-94.885-46.539-50.731-15.231-101.461-15.231-53.193 0-103.266 15.039-50.073 15.038-93.466 46.731ZM315.077 579.77q26.807 0 45.442-18.327t18.635-45.135q0-26.808-18.6-45.443-18.599-18.635-45.17-18.635-27.115 0-45.442 18.6-18.327 18.599-18.327 45.17 0 27.116 18.327 45.443 18.327 18.327 45.135 18.327Z"/></svg>