<svg xmlns="http://www.w3.org/2000/svg" width="48" height="48" viewBox="0 -960 960 960"><path d="M347.39-126.46q-61.85-26.46-108.16-72.77-46.31-46.31-72.77-108.16Q140-369.23 140-440h45.39q0 122.69 85.96 208.65 85.96 85.96 208.65 85.96 122.69 0 208.65-85.96 85.96-85.96 85.96-208.65 0-122.69-84.03-208.65-84.04-85.96-206.73-85.96h-22.39l71.46 71.46-32 31.61-127.38-127.77 128.15-127.76 31.39 30.99L457-780h23q70.77 0 132.61 26.46 61.85 26.46 108.16 72.77 46.31 46.31 72.77 108.16Q820-510.77 820-440q0 70.77-26.46 132.61-26.46 61.85-72.77 108.16-46.31 46.31-108.16 72.77Q550.77-100 480-100q-70.77 0-132.61-26.46Zm-60.62-192.39v-40.38h123.31v-60.23h-87.77v-42.08h87.77v-60.84H286.77v-39.39h163.69v242.92H286.77Zm223.77 0v-242.92h163.31v242.92H510.54Zm40.38-40.38h82.54v-163.15h-82.54v163.15Z"/></svg>