<svg xmlns="http://www.w3.org/2000/svg" width="48" height="48" viewBox="0 96 960 960"><path d="M180.001 955.999V196.001h372.152l227.846 227.846v532.152H180.001Zm45.384-45.384h509.23V444.308L531.692 241.385H225.385v669.23Zm256.23-117.539q73.385 0 123.923-50.73 50.538-50.731 50.538-124.308 0-73.576-50.538-124.114Q555 443.385 481.615 443.385q-45.384 0-80.653 19.962-35.269 19.962-57.346 45.577V438.77h-36.923v136.614h138.23v-36.538h-73.077q15.231-23.384 45.792-39.23 30.562-15.847 63.977-15.847 58.462 0 96.269 38 37.808 38 37.808 96.462 0 58.461-37.808 96.769-37.807 38.307-96.414 38.307-46.865 0-82.514-25.807-35.648-25.808-49.648-66.423h-41.384q18 61.538 64.691 96.769 46.692 35.23 109 35.23Zm-256.23 117.539v-669.23 669.23Z"/></svg>