<svg xmlns="http://www.w3.org/2000/svg" width="48" height="48" viewBox="0 -960 960 960"><path d="m166.154-133.847-31.999-31.999 414.999-415q-22-49.154-10.577-97.769t54.5-92.077q40-39.384 101.115-54 61.115-14.615 101.73 25.616 40.847 40.846 25.423 101.345-15.423 60.5-57.038 103.115-40.231 40.462-88.038 52.692-47.808 12.231-94.5-7.538l-73.924 73.923 310.077 309.693-31.999 31.999-310.077-309.308-309.692 309.308Zm125.385-346.384L176.77-594.616q-47.154-47.538-50.116-111.768-2.961-64.231 38.885-116.307l234.23 234.23-108.23 108.23Z"/></svg>