<svg xmlns="http://www.w3.org/2000/svg" width="48" height="48" viewBox="0 -960 960 960"><path d="m497.77-260.771 14.769-47.999q60.922-11.384 101.499-59.153 40.577-47.77 40.577-112.077 0-72.692-50.961-123.654Q552.692-654.615 480-654.615q-64.923 0-112.192 40.384-47.269 40.385-58.654 101.692l-48.383 15q7.308-86.23 69.769-144.345 62.461-58.115 149.46-58.115 91.922 0 155.961 64.038Q699.999-571.922 699.999-480q0 86.999-58.308 149.46-58.307 62.461-143.921 69.769ZM154.386-94.233l-60.153-60.153 181.77-181.385-131.383-43.461L480-480 379.232-144.62l-43.461-131.383-181.385 181.77Z"/></svg>