<svg xmlns="http://www.w3.org/2000/svg" width="48" height="48" viewBox="0 96 960 960"><path d="M440.615 616.385q48.077 48.461 105.846 83.884 57.769 35.424 124.461 56.193-36.846 39.999-86.192 61.115-49.346 21.115-103.73 21.115-108.923 0-185.807-76.885Q218.308 684.923 218.308 576q0-54.384 21.115-103.73 21.116-49.346 61.115-86.192 20.769 66.692 56.193 124.461 35.423 57.769 83.884 105.846Zm274.769 77.307q-11.153-3.231-22.691-6.577-11.539-3.346-22.077-7.808 12.846-23.615 19.769-49.846 6.923-26.23 6.923-53.461 0-91.077-63.115-154.193Q571.077 358.692 480 358.692q-27.231 0-53.461 6.73-26.231 6.731-49.846 19.577-3.847-10.538-7-21.384-3.154-10.846-6.385-21.999 27.077-13.846 56.846-21.077 29.769-7.231 60.846-7.231 108.923 0 185.807 76.885Q743.692 467.077 743.692 576q0 31.077-7.231 60.846-7.231 29.769-21.077 56.846ZM457.308 221.385V113.694h45.384v107.691h-45.384Zm0 816.925V930.615h45.384v107.695h-45.384Zm289.845-696.849-32.614-32.614 75.383-74.769 32.615 32-75.384 75.383ZM170.078 917.922l-32.615-32 75.384-75.383 32.614 32.614-75.383 74.769Zm664.537-319.23v-45.384h107.691v45.384H834.615Zm-816.921 0v-45.384h107.691v45.384H17.694Zm772.228 319.845-75.383-75.384 32.614-32.614 74.769 75.383-32 32.615ZM212.847 341.461l-74.769-75.383 32-32.615 75.383 75.384-32.614 32.614Z"/></svg>