<svg xmlns="http://www.w3.org/2000/svg" width="48" height="48" viewBox="0 -960 960 960"><path d="M570.001-42.385V-87.77q122.692 0 208.461-85.769Q864.231-259.308 864.231-382h45.384q0 70.769-26.769 132.615-26.77 61.845-72.577 107.653-45.808 45.807-107.653 72.576-61.846 26.77-132.615 26.77Zm0-118.462v-45.383q69 0 122.384-53.385 53.385-53.384 53.385-122.384h45.383q0 88.461-66.346 154.806-66.345 66.346-154.806 66.346Zm-72.693-152.308L393.385-416.463l-48.539 48.54 104.307 103.307L233.539-49.002-8.229-290.155 208-505.769l103.308 104.308L359.847-450 256.54-553.693 397.307-694.46l103.308 103.923 48.924-48.924-103.308-104.308 216.23-216.229 241.153 241.153-216.23 216.229-104.307-103.308L534.153-557l103.692 103.308-140.537 140.537ZM57-289.155l176.54 176.539 58.616-58.231L115.231-347.77l-58.23 58.615Zm269.308 83.77L384.539-264 208-440.539l-58.615 58.231 176.923 176.923Zm171-171.769 76.308-75.923L396.692-630l-75.923 76.307 176.539 176.539Zm13.153-366.615L687-567.23l58.615-58.231-176.923-176.924-58.231 58.616Zm269.692 84.155 58.231-58.616-176.539-176.539-58.615 58.231 176.923 176.924ZM447.385-503.769Z"/></svg>