<svg xmlns="http://www.w3.org/2000/svg" width="48" height="48" viewBox="0 96 960 960"><path d="M140.001 915.999V236.001h533.768l146.23 146.23v261.847l-45.384 45.383V402.648L653.307 281.385H185.385v589.23h408.692l-45.384 45.384H140.001Zm339.764-133.078q36.536 0 62.5-25.729 25.965-25.729 25.965-62.265t-25.73-62.501q-25.729-25.964-62.265-25.964t-62.5 25.729q-25.965 25.729-25.965 62.265t25.73 62.501q25.729 25.964 62.265 25.964ZM250.309 473.923h326.844V346.309H250.309v127.614ZM598.078 994.46v-36.153l215.691-215.691 36.153 35.768L634.23 994.46h-36.152Zm277.074-240.922-35.768-36.153 45.385-45.769 35.922 35.768-45.539 46.154ZM185.385 870.615v-589.23 589.23Z"/></svg>