<svg xmlns="http://www.w3.org/2000/svg" width="48" height="48" viewBox="0 -960 960 960"><path d="M140.001-140.001v-679.998h533.768l146.23 146.23v261.847L548.693-140.001H140.001Zm339.673-133.078q36.627 0 62.591-25.639 25.965-25.638 25.965-62.265 0-36.626-25.639-62.591-25.639-25.964-62.265-25.964-36.627 0-62.591 25.638-25.965 25.639-25.965 62.266 0 36.626 25.639 62.591 25.639 25.964 62.265 25.964ZM250.309-582.077h326.844v-127.614H250.309v127.614ZM598.078-61.54v-36.153l215.691-215.691 36.153 35.768L634.23-61.54h-36.152Zm277.074-240.922-35.768-36.153 45.769-46.154 36.153 36.153-46.154 46.154Z"/></svg>