<svg xmlns="http://www.w3.org/2000/svg" width="48" height="48" viewBox="0 -960 960 960"><path d="M140.001-140.001v-679.998h533.768l146.23 146.23v110.846l-45.384 45.768v-136.152L653.307-774.615H185.385v589.23h266.153v-.385 45.769H140.001Zm45.384-634.614v589.23-589.23ZM524.616-60.001v-105.692l250.691-249.691 104.691 105.076L630.307-60.002H524.616Zm287.691-250.307-37-37.385 37 37.385Zm-240 202.615h38l129.847-130.462-18.385-19-18.615-18.769-130.847 130.231v38Zm149.462-149.462-18.615-18.769 37 37.769-18.385-19Zm-471.46-324.922h326.844v-127.614H250.309v127.614ZM480-273.079q13.615 0 26.038-3t23.423-9.615l25.153-25.769q7-10.615 10.308-23.423 3.308-12.807 3.308-26.423 0-36.634-25.73-62.431-25.729-25.798-62.265-25.798t-62.5 25.729q-25.965 25.729-25.965 62.265t25.798 62.501q25.798 25.964 62.432 25.964Z"/></svg>