<svg xmlns="http://www.w3.org/2000/svg" width="48" height="48" viewBox="0 0 48 48"><path d="M34.2 40.75q-2.75 0-4.65-1.9-1.9-1.9-1.9-4.65 0-2.75 1.9-4.65 1.9-1.9 4.65-1.9 2.75 0 4.65 1.9 1.9 1.9 1.9 4.65 0 2.75-1.9 4.65-1.9 1.9-4.65 1.9ZM13.8 34.4q-2.75 0-4.65-1.9-1.9-1.9-1.9-4.65 0-2.75 1.9-4.65 1.9-1.9 4.65-1.9 2.75 0 4.65 1.9 1.9 1.9 1.9 4.65 0 2.75-1.9 4.65-1.9 1.9-4.65 1.9Zm8.1-15.9q-2.75 0-4.65-1.9-1.9-1.9-1.9-4.65 0-2.75 1.9-4.65 1.9-1.9 4.65-1.9 2.75 0 4.65 1.9 1.9 1.9 1.9 4.65 0 2.75-1.9 4.65-1.9 1.9-4.65 1.9Z"/></svg>