<svg xmlns="http://www.w3.org/2000/svg" width="48" height="48" viewBox="0 -960 960 960"><path d="M528-51.002q-95.216 0-178.531-35.96-83.315-35.962-145.622-98.577-62.308-62.616-98.269-146.123Q69.616-415.169 69.616-510H115q0 81.539 30.346 154.385 30.347 72.846 82.847 128.038 52.5 55.193 123.885 88.962 71.385 33.769 152.077 37.922L364.539-240.309l32.615-32.614 212.229 212.23q-20.307 4.846-39.422 7.268-19.116 2.423-41.961 2.423ZM616.23-600v-190.769h41v-41.615q0-31.077 21.346-52.423t52.423-21.346q31.462 0 52.808 21.346t21.346 52.423v41.615h40.846V-600H616.23Zm74.769-190.769h80v-41.615q0-17.615-11.192-28.808-11.192-11.192-28.808-11.192-17.615 0-28.807 11.192-11.193 11.193-11.193 28.808v41.615Zm28.154 298.846 32.614-32.615 92.846 92.846-232.229 231.613-395.075-395.46 231.844-230.613 91.923 90.307-32.999 32.23-58.924-58.539-166.615 166.615 329.846 330.846 167-166.999-60.231-60.231Zm-187.077-21.692Z"/></svg>