<svg xmlns="http://www.w3.org/2000/svg" width="48" height="48" viewBox="0 -960 960 960"><path d="M480-522.308q-45.769 0-77.884-32.115t-32.115-77.884q0-45.769 32.115-77.884T480-742.306q45.769 0 77.884 32.115t32.115 77.884q0 45.769-32.115 77.884T480-522.308ZM250.001-297.694v-65.999q0-22.538 11.692-39.038 11.692-16.5 38.307-30.807 42-22.385 87.192-33.269 45.193-10.885 92.808-10.885 47.615 0 92.808 10.885Q618-455.923 660-433.538q26.23 14.307 38.115 30.807 11.884 16.5 11.884 39.038v65.999H250.001ZM862-639.692q-31.616-75.615-89.654-133.654Q714.307-831.384 639.692-863l17.615-41.537q85.077 36.385 147.461 98.384 62.384 62 100.154 148.846L862-639.692Zm-764 0-42.537-17.615q37-86.462 99.076-148.346 62.077-61.884 148.154-98.884L320.308-862q-77.462 32.231-133.769 88.539Q130.231-717.154 98-639.692Zm204.308 584.23q-84.692-35.616-147.845-99.154-63.154-63.539-99-148.462L98-320.923q32.231 76.846 88.846 133.769Q243.462-130.231 320.923-98l-18.615 42.537Zm354.614 0L639.692-98q75.615-31.616 133.154-89.154Q830.384-244.693 862-320.308l42.537 17.615q-36.385 85.077-99.346 148.038-62.961 62.961-148.269 99.192Z"/></svg>