<svg xmlns="http://www.w3.org/2000/svg" width="48" height="48" viewBox="0 0 48 48"><path d="M23.95 26.8q-1.15 0-1.975-.825-.825-.825-.825-1.975 0-1.15.825-2 .825-.85 1.975-.85 1.15 0 2 .85.85.85.85 2t-.85 1.975q-.85.825-2 .825Zm0 14.2q-6.9 0-11.825-4.8Q7.2 31.4 7 24.5h2.25q.25 5.95 4.5 10.1 4.25 4.15 10.2 4.15 6.15 0 10.45-4.3 4.3-4.3 4.3-10.45 0-6.15-4.3-10.45-4.3-4.3-10.45-4.3-3.25 0-6.125 1.4T12.75 14.5h5v2.25h-9v-9h2.3v5.2q2.5-2.8 5.85-4.375Q20.25 7 23.95 7q3.55 0 6.65 1.35Q33.7 9.7 36 12q2.3 2.3 3.625 5.375Q40.95 20.45 40.95 24t-1.325 6.625Q38.3 33.7 36 36t-5.4 3.65Q27.5 41 23.95 41Z"/></svg>