<svg xmlns="http://www.w3.org/2000/svg" width="48" height="48" viewBox="0 -960 960 960"><path d="M675.384-100.001q-76.461 0-130.537-54.077-54.077-54.077-54.077-130.538 0-76.461 54.077-130.537 54.076-54.077 130.537-54.077 76.461 0 130.538 54.077 54.077 54.076 54.077 130.537 0 76.461-54.077 130.538-54.077 54.077-130.538 54.077Zm-5.615-65.615q31.307 1 55.077-14.539 23.769-15.538 44.845-39.23-31.307-6.231-56.692-18.769-25.384-12.539-41.23-39.231-15.846-26.692-13.538-55.192 2.307-28.5 12.538-58.192-36.308 7.615-64.115 24.577-27.808 16.961-40.038 51.884Q556.385-285 561-258.116q4.616 26.885 24.077 50.961 15.846 20.077 36.923 30.5 21.077 10.423 47.769 11.039Zm-269.076 65.615-18.077-120.231q-23.307-8-44.923-20.154-21.615-12.154-40.154-28.462l-111.846 50.923-79.922-141.306 101.077-74.384q-2-11.769-2.885-22.808-.885-11.038-.885-23.192t.885-23.385q.885-11.231 2.885-23.385l-101.077-74.769 79.922-140.152 111.461 50.154q18.924-15.539 40.347-27.885 21.423-12.347 44.731-19.731l18.461-121.231h158.614l18.077 120.615q22.923 8.385 44.154 20.231 21.231 11.847 39.769 28.001l113.384-50.154 79.538 140.152-84.769 61.461q-22.538-8.922-46.115-13.076-23.576-4.154-47.961-4.154-26.077 0-50.462 5.039-24.385 5.038-48.077 15.346-15.308-26.153-41.461-41.153-26.154-15-56.538-15-46.692 0-79.691 32.807-33 32.808-33 79.884 0 30 15 55.653 15 25.654 40.538 41.346-10.077 24.846-14.154 51.27-4.077 26.423-4.077 53.654 1.154 50.077 19.577 95.807 18.422 45.73 52.883 82.269h-75.229Z"/></svg>