<svg xmlns="http://www.w3.org/2000/svg" width="48" height="48" viewBox="0 -960 960 960"><path d="M330-50v-540h300v540H330Zm150-354.15q14.12 0 24.98-10.82 10.87-10.83 10.87-24.89 0-15.06-10.47-26.14-10.46-11.08-25.29-11.08-14.84 0-26 11.17-11.17 11.16-11.17 26 0 14.83 11.14 25.29 11.14 10.47 25.94 10.47ZM328.62-686l-32-32q37.69-35.38 84.84-53.69Q428.62-790 480-790q51.38 0 98.54 18.31 47.15 18.31 84.84 53.69l-32 32q-31.61-28.31-70.26-43.46-38.66-15.16-81.12-15.16-42.46 0-81.12 15.16-38.65 15.15-70.26 43.46ZM214.23-799l-31.61-33q60.69-56.77 137.34-87.38Q396.62-950 480-950q83 0 159.65 30.81 76.66 30.81 135.73 89.19l-31.84 32q-53.39-51.69-121.58-79.15-68.2-27.47-141.81-27.47-74.61 0-143.27 27.16-68.65 27.15-122.65 78.46ZM375.38-95.38h209.24v-449.24H375.38v449.24Zm0 0h209.24-209.24Z"/></svg>