<svg xmlns="http://www.w3.org/2000/svg" width="48" height="48" viewBox="0 -960 960 960"><path d="m685.54-215.46 30.61 33.23q-41.92 34.31-91.65 53.88-49.73 19.58-102.88 26.35v-45.39q45.76-6.38 87.5-23.5 41.73-17.11 76.42-44.57Zm173.07-222.92q-6.84 54.61-27.8 103.84-20.97 49.23-53.66 91.08l-32.61-31q26.61-35.23 44.04-76.16 17.42-40.92 24.03-87.76h46Zm-81.07-277.77q36.07 48.84 53.57 92.46 17.5 43.61 27.5 102.07h-46q-6.61-46.84-24.03-87.46-17.43-40.61-44.04-76.46l33-30.61ZM437.77-858v45.39q-125.08 17-208.04 111.57-82.96 94.58-82.96 221.04 0 125.69 82.96 220.46 82.96 94.77 208.04 112.15V-102q-143.92-17-240.15-124.73Q101.39-334.46 101.39-480q0-145.92 96.23-253.65Q293.85-841.38 437.77-858Zm86.23 0q50.92 7.62 99.69 27.27 48.77 19.65 92.46 52.96l-29.23 34q-38.23-27-79.96-44.31-41.73-17.3-82.96-24.53V-858Zm-33.27 596.73q5.12-2.81 7.73-8.42l3.62-8.23q23.69-44.16 59.8-75.47 36.12-31.3 63.81-72.84 13.85-21.08 21.77-46.35 7.92-25.27 7.92-51.96 0-72.84-50.57-124.42-50.58-51.58-122.81-52.58-70.85-1-122.81 48.77-51.96 49.77-54.57 121-1.62 29.69 6.11 56.39 7.73 26.69 23.19 49.15 27.7 41.54 64.62 72.34 36.92 30.81 59.38 75.97l3.62 8.23q2.61 5.61 7.73 8.42 5.11 2.81 10.73 2.81t10.73-2.81Zm-62.81-212.81q-21.77-21.77-21.77-52.07 0-30.31 21.77-52.08T480-600q30.31 0 52.08 21.77t21.77 52.08q0 30.3-21.77 52.07T480-452.31q-30.31 0-52.08-21.77Z"/></svg>