<svg xmlns="http://www.w3.org/2000/svg" width="48" height="48" viewBox="0 96 960 960"><path d="M676 931.615 644.385 900l84-84-84-84L676 700.385l84 84 84-84L875.615 732l-83 84 83 84L844 931.615l-84-83-84 83Zm-575.999 24.384 759.998-759.998v431.383q-10.539-5.923-21.577-11.308-11.038-5.384-23.807-9.161V304.999L208.999 910.615h357.308q6.596 12.915 15.49 24.188t19.048 21.196H100.001Zm108.998-45.384 605.616-605.616-189.154 189.154q-78.308 78.308-143.77 143.962-65.461 65.654-128.961 128.962-63.5 63.307-143.731 143.538Z"/></svg>