<svg xmlns="http://www.w3.org/2000/svg" width="48" height="48" viewBox="0 -960 960 960"><path d="M480-148.464 28.464-600q93.999-85.538 208.883-132.768Q352.231-779.999 480-779.999q127.769 0 242.653 47.231Q837.537-685.538 931.536-600l-110.69 110.691q-16.616-5.231-34.231-8.039-17.615-2.807-34.846-2.192-87.693 1.615-149.039 63.154-61.346 61.538-62.961 148.846-.616 17.231 2 34.846 2.615 17.616 8.23 34.231L480-148.464Zm190.23-20-31.614-31.614 84-84-84-84 31.614-31.615 84 84 84-84 32.615 31.615-84 84 83 84-31.615 31.614-84-83-84 83Z"/></svg>