<svg xmlns="http://www.w3.org/2000/svg" width="48" height="48" viewBox="0 -960 960 960"><path d="M604.997-776.308q28.695 0 48.772-20.189 20.077-20.19 20.077-48.5 0-28.695-19.997-48.772-19.998-20.077-48.693-20.077-28.31 0-48.579 19.997-20.269 19.998-20.269 48.693 0 28.31 20.189 48.579 20.19 20.269 48.5 20.269ZM290-2.308q-9.461 0-16.654-7.192-7.192-7.192-7.192-17.039 0-9.461 7.192-16.653 7.193-7.193 16.654-7.193t16.846 7.193q7.385 7.192 7.385 16.653 0 9.847-7.385 17.039Q299.461-2.308 290-2.308Zm340 0q-9.461 0-16.654-7.192-7.192-7.192-7.192-17.039 0-9.461 7.192-16.653 7.193-7.193 16.654-7.193t16.846 7.193q7.385 7.192 7.385 16.653 0 9.847-7.385 17.039Q639.461-2.308 630-2.308ZM270.081-93.462q-40.991 0-79.151-18.423t-60.776-51.5q-2-2.948-2.807-5.23-.808-2.282-.808-5.254 0-6.438 4.413-11.477 4.413-5.038 11.943-5.038 4.413 0 8.144 1.807 3.73 1.808 5.346 4.654 14.538 23.154 40.423 37.039Q222.693-133 251-128.154l134.693-163.077-70.923-195.23 131.231-210.847H313.769l-73 118.769-38.691-23.692 87.768-140.461H508q22.049 0 35.395 12.138 13.346 12.138 18.143 22.939l21 47.615q21.385 48.385 64.693 80.77 43.307 32.384 99.307 36.154v45.383q-63.077-2.769-115.384-38.577-52.308-35.808-88.692-96.654l-96.155 152.54 176.385 115.615v238.231h34.231q32.353 0 60.331-15.193 27.977-15.192 46.361-41.807 3.063-3.231 5.971-5.039 2.908-1.807 7.347-1.807 6.451 0 11.49 4.952 5.038 4.953 5.038 11.278 0 2.923-.808 5.308-.807 2.384-2.807 5.461-22.616 33.077-57.346 51.5-34.731 18.423-75.577 18.423H270.081Zm39.456-33.076h267.771v-206.155L392.076-446.308l46.923 161.615-129.462 158.155Z"/></svg>