<svg xmlns="http://www.w3.org/2000/svg" width="48" height="48" viewBox="0 -960 960 960"><path d="M739.999-100.001H100.001v-401.695L469.77-739.922l42.076 43.999-88.615 144.385h356.768v45.384H500.001v90h359.998v45.384H500.001v90.001h319.998v45.383H500.001v90.001h239.998v45.384ZM633.78-658.077q-21.856 0-37.241-15.45-15.384-15.451-15.384-37.308 0-21.856 15.45-37.241 15.451-15.384 37.307-15.384 21.857 0 37.242 15.45 15.384 15.451 15.384 37.307 0 21.857-15.45 37.242-15.451 15.384-37.308 15.384Zm66.125-151.922q-17.828 0-30.212-12.48-12.385-12.479-12.385-30.307t12.48-30.212q12.479-12.385 30.307-12.385t30.212 12.48q12.385 12.479 12.385 30.307t-12.48 30.212q-12.479 12.385-30.307 12.385Zm120.359 155.384q-26.188 0-44.38-18.311-18.193-18.312-18.193-44.5t18.312-44.38q18.311-18.193 44.499-18.193 26.189 0 44.381 18.312 18.192 18.311 18.192 44.499 0 26.189-18.311 44.381-18.312 18.192-44.5 18.192Z"/></svg>