<svg xmlns="http://www.w3.org/2000/svg" width="48" height="48" viewBox="0 -960 960 960"><path d="M214.001-100.001v-317l182.462 182.076q33.153-40.23 58.537-85.922t25.384-98.307q0-45.768-17.385-87.23-17.384-41.461-49.307-73.768l-119.23-118.077 14.616-14.616h179.307l152.922-152.923 70 69.615q37.231 37.231 56.462 85.384 19.23 48.154 19.846 100.615-.616 52.462-19.846 100.616-19.231 48.153-56.462 85.384l-87.308 86.923v237.23H214.001Zm179.308-201.923-195.615-195.23q-8.846-8.846-13.27-20.384-4.423-11.539-4.423-24 0-12.462 4.423-24.115 4.424-11.654 13.27-20.5l71.999-72.615 112 110.615q26.231 26.231 39.769 59.384Q435-455.615 435-419.154q0 31.539-10.576 62.154-10.577 30.615-31.115 55.076Z"/></svg>