<svg xmlns="http://www.w3.org/2000/svg" width="48" height="48" viewBox="0 -960 960 960"><path d="M457.31-457.39h45.38v-124.3h-45.38v124.3ZM217.62-220v-45.39h131.61V-220H217.62Zm392.53 0v-45.39h131.62V-220H610.15ZM280.79-457.39q26.67 0 44.67-17.91t18-43.84q0-25.94-18-44.05-18-18.12-43.97-18.12-25.98 0-44.35 17.99-18.37 17.98-18.37 43.58 0 26.12 18.22 44.24 18.22 18.11 43.8 18.11Zm397.55.39q26.46 0 44.56-18.17 18.1-18.18 18.1-44.04 0-25.87-18.1-44.17-18.1-18.31-44.23-18.31-26.13 0-44.63 18.1-18.5 18.11-18.5 43.97 0 25.87 18.45 44.24Q652.43-457 678.34-457ZM100-339.08V-700h760v360.92H100Zm45.39-45.38h669.22v-270.15H145.39v270.15ZM480-519.54Z"/></svg>