<svg xmlns="http://www.w3.org/2000/svg" width="48" height="48" viewBox="0 96 960 960"><path d="M335.538 839.846h439.077V201.385H335.538v638.461ZM290.77 885.23V156.001h529.229V885.23H290.77Zm264.501-473.385q30.017 0 50.757-20.352 20.74-20.353 20.74-51.077 0-29.249-20.833-49.678-20.834-20.43-50.596-20.43-29.249 0-49.679 20.475-20.429 20.474-20.429 49.724 0 30.723 20.428 51.031 20.429 20.307 49.612 20.307ZM556 761.692q53.643 0 91.206-37.615 37.562-37.616 37.562-92.384 0-54.769-37.562-92.385-37.563-37.615-91.206-37.615-54.213 0-92.722 37.615-38.508 37.616-38.508 92.385 0 54.768 38.508 92.384 38.509 37.615 92.722 37.615Zm-1.509-45.384q-35.261 0-59.799-24.611-24.539-24.611-24.539-59.769 0-35.159 24.507-60.005 24.506-24.846 59.638-24.846 35.453 0 60.27 24.611t24.817 59.769q0 35.159-24.817 60.005-24.817 24.846-60.077 24.846Zm-22.798 279.691H180.001V286.771h45.384v663.844h306.308v45.384ZM335.538 839.846V201.385v638.461Z"/></svg>