<svg xmlns="http://www.w3.org/2000/svg" width="48" height="48" viewBox="0 96 960 960"><path d="M176.848 362V226.078l136.307 68.153L176.848 362Zm509.997 0V226.078l136.307 68.153L686.845 362Zm-237.768-34.076V192.001L585 260.155l-135.923 67.769Zm-26.385 633.844q-72.538-3-132.307-12.731-59.769-9.73-102.423-24.384-42.653-14.654-66.461-33.231-23.807-18.576-23.807-39.268V507.539q0-23.076 29.384-42.846 29.385-19.769 80.692-34.73 51.308-14.962 121.23-23.692 69.923-8.731 151-8.731t151 8.731q69.922 8.73 121.23 23.692 51.307 14.961 80.692 34.73 29.384 19.77 29.384 42.846v344.615q0 20.692-23.807 39.268-23.808 18.577-66.461 33.231-42.654 14.654-102.423 24.384-59.769 9.731-132.307 12.731V794.845H422.692v166.923ZM480 572.155q98.154 0 180.385-15.846t146.539-46.385q-23.385-27.077-108.847-47.039Q612.616 442.924 480 442.924q-132.616 0-218.077 19.961-85.462 19.962-108.847 47.039 64.308 30.539 142.115 46.385Q372.999 572.155 480 572.155ZM377.308 912.539V749.462h205.384v163.077q87.308-5.385 146.962-22.847 59.654-17.461 87.269-39.077V554.769q-62.001 29.077-150.346 45.924Q578.231 617.539 480 617.539t-186.577-16.846q-88.345-16.847-150.346-45.924v295.846q27.615 21.616 84.961 39.077 57.346 17.462 149.27 22.847ZM480 733.154Z"/></svg>