<svg xmlns="http://www.w3.org/2000/svg" width="48" height="48" viewBox="0 -960 960 960"><path d="M846.231-41.847 733.846-154.618H55.386v-45.383h633.076l-44.461-44.077H105.078v-526.998h12.309l-72.694-72.309L77.308-876 878.846-74.462l-32.615 32.615ZM396.462-492.386l-35.999-35.999q-6.923 10.615-11.231 24.654-4.308 14.038-4.308 28.27v87.307h45.383v-87.692q0-5.001 1.539-9.04 1.539-4.038 4.616-7.5Zm403.153 247.231L551.231-495.77l62.999-64.153-81.537-81.537v58.845h-68.307L239.695-806.306h615.842v561.151h-55.922Z"/></svg>