<svg xmlns="http://www.w3.org/2000/svg" width="48" height="48" viewBox="0 -960 960 960"><path d="M140-140v-680h680v407q-10.7-7.02-22.28-12.32-11.59-5.31-23.11-9.99v-183.92H502.69v194.31q-18.92 8.69-36.88 20.27-17.96 11.57-34.19 25.42H185.39v193.84h157.38q8.08 12.77 16.46 23.81T376.31-140H140Zm45.39-284.61h271.92v-194.62H185.39v194.62Zm0-240h589.22v-110H185.39v110ZM480-480Zm0 0Zm0 0Zm0 0ZM650.36-79.23q-79.28 0-146.13-40.77-66.84-40.77-102.61-111.15 35.77-70.39 102.62-111.16 66.85-40.77 146.38-40.77 79.92 0 146.57 40.77Q863.84-301.54 900-230.65q-34.54 70.88-102.26 111.15-67.72 40.27-147.38 40.27Zm.2-45.39q60.13 0 111.79-28.92 51.65-28.92 86.03-77.61-34.38-48.7-85.98-77.62t-111.73-28.92q-59.75 0-111.59 28.92-51.85 28.92-85.85 77.62 34 48.69 85.79 77.61 51.79 28.92 111.54 28.92Zm-.02-63.84q-17.85 0-30.23-12.46-12.39-12.46-12.39-30.31 0-17.85 12.46-30.23 12.46-12.39 30.31-12.39 18.23 0 30.42 12.46 12.2 12.46 12.2 30.31 0 17.85-12.27 30.23-12.26 12.39-30.5 12.39Z"/></svg>