<svg xmlns="http://www.w3.org/2000/svg" width="48" height="48" viewBox="0 -960 960 960"><path d="M438.385-774.615v-45.384h82.23v45.384h-82.23Zm0 634.614v-45.384h82.23v45.384h-82.23ZM271.077-774.615v-45.384h82.231v45.384h-82.231Zm0 634.614v-45.384h82.231v45.384h-82.231ZM140.001-774.615v-45.384h45.384v45.384h-45.384Zm0 634.614v-45.384h45.384v45.384h-45.384Zm466.691 0v-45.384h83.462v-589.23h-83.462v-45.384h213.307v45.384h-84.462v589.23h84.462v45.384H606.692ZM275.616-344.385 140.001-480l135.615-135.615L307.615-584l-80.308 81.308h308.308v45.384H227.307L307.615-376l-31.999 31.615Z"/></svg>