<svg xmlns="http://www.w3.org/2000/svg" width="48" height="48" viewBox="0 -960 960 960"><path d="M149-260.04q-79.84-80.04-79.84-194.38 0-114.35 79.84-194.39 79.85-80.03 194-80.03 50.69 0 95.58 16.8 44.88 16.81 80.57 47.04l43.31-42.92 31.23 31.23-42.54 43.31Q582.38-597.69 600-552q17.61 45.69 17.61 97.38 0 114.54-80.03 194.58Q457.54-180 343.19-180 228.85-180 149-260.04ZM786.61-180 670.69-295.92l32-32 61.23 61.23V-780h45.39v512.69l60.61-60.61 31.62 32L786.61-180ZM260.62-799.23v-45.38h165.92v45.38H260.62Zm59.69 361.61h45.38v-163.76h-45.38v163.76Z"/></svg>