<svg xmlns="http://www.w3.org/2000/svg" width="48" height="48" viewBox="0 -960 960 960"><path d="M133.463-290.001v-45.383h540.383v45.383H133.463Zm0-167.307v-45.384h540.383v45.384H133.463Zm0-167.308v-45.383h540.383v45.383H133.463Zm667.218 337.692q-10.989 0-18.335-7.433Q775-301.791 775-312.78q0-10.989 7.433-18.335 7.434-7.346 18.423-7.346 10.989 0 18.335 7.433 7.346 7.434 7.346 18.423 0 10.989-7.433 18.335-7.434 7.346-18.423 7.346Zm0-167.307q-10.989 0-18.335-7.434T775-480.088q0-10.989 7.433-18.335 7.434-7.346 18.423-7.346 10.989 0 18.335 7.434t7.346 18.423q0 10.989-7.433 18.335-7.434 7.346-18.423 7.346Zm0-167.308q-10.989 0-18.335-7.433Q775-636.406 775-647.395q0-10.989 7.433-18.335 7.434-7.346 18.423-7.346 10.989 0 18.335 7.433 7.346 7.434 7.346 18.423 0 10.989-7.433 18.335-7.434 7.346-18.423 7.346Z"/></svg>