<svg xmlns="http://www.w3.org/2000/svg" width="48" height="48" viewBox="0 -960 960 960"><path d="M363.77-99.39 126.23-401.46 172-447.23l141.39 86.77v-300h45.38v181.69h90v-251.38h45.38v251.38h285.23v379.38H363.77ZM156.61-597.08q-2.07-10.23-2.76-20.09t-.69-20.56q0-108.53 76.51-185.7 76.51-77.18 186.69-77.18 109.23 0 186.05 77.16 76.82 77.17 76.82 185.68 0 9.23-1.5 23.15l-1.5 13.93-45-4.46 1.31-12.36q1.31-12.36 1.31-20.26 0-90.25-63.67-153.85-63.66-63.61-153.98-63.61-90.43 0-154.05 63.63-63.61 63.63-63.61 153.91 0 8.82.5 17.23.5 8.4 2.11 16.31l-44.54 7.07Z"/></svg>