<svg xmlns="http://www.w3.org/2000/svg" width="48" height="48" viewBox="0 -960 960 960"><path d="M180.001-347.693V-720q0-37.538 18.808-64.384 18.808-26.846 56.385-43.461 37.576-16.615 94.038-24.384 56.461-7.77 130.768-7.77 76.384 0 132.653 7.462 56.269 7.461 93.428 24.016t55.539 43.154q18.379 26.598 18.379 65.367v372.307q0 53.615-37.039 90.653-37.038 37.039-90.653 37.039l60 60v20h-49.614l-80-80H377.307l-80 80h-49.614v-20l60-60q-53.615 0-90.653-37.039-37.039-37.038-37.039-90.653Zm45.384-181.537h234.769v-174.616H225.385v174.616Zm280.153 0h229.077v-174.616H505.538v174.616ZM336.449-324.231q20.128 0 34.339-13.988Q385-352.206 385-372.531q0-20.326-14.176-34.667-14.175-14.34-34.384-14.34t-34.478 14.251q-14.269 14.251-14.269 34.577 0 20.325 14.231 34.402 14.231 14.077 34.525 14.077Zm287.308 0q20.127 0 34.339-13.988 14.211-13.987 14.211-34.312 0-20.326-14.175-34.667-14.175-14.34-34.384-14.34t-34.479 14.251Q575-393.036 575-372.71q0 20.325 14.231 34.402 14.231 14.077 34.526 14.077Z"/></svg>