<svg xmlns="http://www.w3.org/2000/svg" width="48" height="48" viewBox="0 -960 960 960"><path d="M633.846-61.54 493.385-202.001l31.999-31.614 85.77 85v-157.463H361.155q-24.846 0-41.269-16.423t-16.423-41.269v-245.538H100.001v-45.383h203.462v-156.694l-85.77 85-31.999-31.614 140.46-140.461 140.461 140.461-31.999 31.614-85.77-85v447.615q0 4.616 3.847 8.462 3.846 3.847 8.462 3.847h498.844v45.383H656.537v157.463l85.77-85 31.999 31.614L633.846-61.54Zm-22.692-355.306v-180.153q0-4.616-3.847-8.462-3.846-3.847-8.462-3.847H414.231v-45.383h184.614q24.846 0 41.269 16.423t16.423 41.269v180.153h-45.383Z"/></svg>