<svg xmlns="http://www.w3.org/2000/svg" width="48" height="48" viewBox="0 -960 960 960"><path d="M180.001-265.385v-509.23h-90v-45.384h135.384v509.23H840v45.384H180.001Zm53.557 163.076q-23.018 0-38.48-16.139-15.461-16.138-15.461-38.653 0-22.515 15.425-38.477 15.426-15.961 38.69-15.961 22.946 0 39.03 16.138 16.085 16.139 16.085 38.654 0 22.515-16.136 38.476-16.135 15.962-39.153 15.962Zm69.135-285.768V-582.69h194.614v194.613H302.693Zm45.384-45.383h103.846v-103.847H348.077v103.847Zm234.616 45.383V-582.69h194.614v194.613H582.693Zm45.384-45.383h103.846v-103.847H628.077v103.847Zm156.709 331.151q-22.478 0-38.247-16.139-15.769-16.138-15.769-38.653 0-22.515 15.946-38.477 15.946-15.961 38.424-15.961t38.669 16.138Q840-179.262 840-156.747q0 22.515-16.368 38.476-16.368 15.962-38.846 15.962ZM348.077-433.46h103.846-103.846Zm280 0h103.846-103.846Z"/></svg>