<svg xmlns="http://www.w3.org/2000/svg" width="48" height="48" viewBox="0 -960 960 960"><path d="M257.771-332.232h303.69v-13.692q0-54.922-54.698-70.614-54.699-15.692-97.076-15.692-42.378 0-97.147 15.692-54.769 15.692-54.769 70.614v13.692Zm151.845-163.461q30.384 0 50.192-19.807 19.807-19.807 19.807-50.192 0-30.384-19.807-50.192-19.808-19.807-50.192-19.807t-50.192 19.807q-19.807 19.808-19.807 50.192 0 30.385 19.807 50.192 19.808 19.807 50.192 19.807ZM109.618-180.001v-599.998h599.997v266.154l140.767-140.768v348.842L709.615-446.539v266.538H109.618Zm45.383-45.384h509.23v-509.23h-509.23v509.23Zm0 0v-509.23 509.23Z"/></svg>