<svg xmlns="http://www.w3.org/2000/svg" width="48" height="48" viewBox="0 -960 960 960"><path d="M851.536-305.771 710.769-446.539v108.307l-45.384-45.383v-351h-351l-45.383-45.384h441.767v266.154l140.767-140.768v348.842Zm-33.538 231.46L70.925-821.384l32-31.999L849.997-106.31l-31.999 31.999Zm-327.92-484.996Zm-78.231 78.23ZM177.078-779.229l44.615 44.614h-65.538v509.23h509.23v-65.537l44.614 44.614v66.307H110.771v-599.228h66.307Zm80.693 446.997v-13.692q0-39.461 41.346-62.883 41.346-23.423 110.499-23.423 69.153 0 110.499 23.423 41.346 23.422 41.346 62.883v13.692h-303.69Z"/></svg>