<svg xmlns="http://www.w3.org/2000/svg" width="48" height="48" viewBox="0 96 960 960"><path d="M257.771 723.768h303.69v-13.692q0-54.922-54.769-70.614-54.769-15.692-97.076-15.692-42.307 0-97.076 15.692-54.769 15.692-54.769 70.614v13.692Zm151.845-163.461q30.384 0 50.192-19.807 19.807-19.807 19.807-50.192 0-30.384-19.807-50.192-19.808-19.807-50.192-19.807t-50.192 19.807q-19.807 19.808-19.807 50.192 0 30.385 19.807 50.192 19.808 19.807 50.192 19.807ZM109.618 875.999V276.001h599.997v266.154l140.767-140.768v348.842L709.615 609.461v266.538H109.618Z"/></svg>