<svg xmlns="http://www.w3.org/2000/svg" width="48" height="48" viewBox="0 -960 960 960"><path d="M90-175.233v-44.999q26.847-3.384 46.078-15.423 19.23-12.038 38.653-24.807 19.423-12.769 43.077-22.616 23.654-9.846 58.731-9.846 34.692 0 59.922 11.539 25.231 11.538 47.116 25.384 21.884 13.846 44.461 25.192 22.577 11.346 51.962 11.346t51.962-11.346q22.577-11.346 44.461-25.192 21.885-13.846 47.116-25.384 25.23-11.539 60.307-11.539 34.692 0 58.038 9.846 23.346 9.847 43.077 22.616 19.731 12.769 38.961 24.807 19.231 12.039 46.077 15.423v44.999q-30.769-2.769-52.538-14.308-21.769-11.538-41.692-24.499-19.923-12.962-41.308-23.423-21.384-10.462-50.615-10.462-29.615 0-52.5 11.539-22.885 11.538-44.962 25.192t-47.192 25.192Q514.077-174.464 480-174.464t-59.192-11.538q-25.115-11.538-47.192-25.192t-44.962-25.192q-22.885-11.539-52.115-11.539-29.616 0-51.308 10.462-21.692 10.461-41.308 23.423-19.615 12.961-41.384 24.499-21.769 11.539-52.538 14.308Zm0-164.076v-44.999q26.847-3.769 46.078-15.615 19.23-11.846 38.653-24.808 19.423-12.961 43.077-22.615Q241.462-457 276.539-457q34.692 0 59.922 11.539 25.231 11.538 47.116 25.192 21.884 13.654 44.461 25.192 22.577 11.538 51.962 11.538t51.962-11.538q22.577-11.538 44.461-25.192 21.885-13.654 47.116-25.192Q648.769-457 683.846-457q34.692 0 58.038 9.654 23.346 9.654 43.077 22.615 19.731 12.962 38.961 24.808 19.231 11.846 46.077 15.615v44.999q-30.769-4.385-52.538-16.231-21.769-11.846-41.692-24.499-19.923-12.654-41.308-22.5-21.384-9.846-50.615-9.846-29.615 0-52.192 11.538t-44.77 25.384q-22.192 13.847-47.5 25.385Q514.077-338.54 480-338.54t-59.192-11.538q-25.115-11.538-47.192-25.385-22.077-13.846-44.962-25.384t-52.115-11.538q-29.616 0-51.308 10.653-21.692 10.654-41.308 23.616-19.615 12.961-41.384 24.499-21.769 11.539-52.538 14.308Zm0-164.461v-44.614q26.847-3.154 46.078-14.692 19.23-11.539 38.653-24.5t43.077-23.423q23.654-10.461 58.731-10.461 34.692 0 59.922 11.538 25.231 11.538 47.116 25.385 21.884 13.846 44.461 25.384 22.577 11.538 51.962 11.538t51.962-11.538q22.577-11.538 44.461-25.384 21.885-13.847 47.116-25.385 25.23-11.538 60.307-11.538 34.692 0 58.038 10.461 23.346 10.462 43.077 23.423 19.731 12.961 38.961 24.5 19.231 11.538 46.077 14.692v44.614q-30.769-2.384-52.538-13.923-21.769-11.538-41.692-24.692-19.923-13.154-41.308-23.615-21.384-10.461-50.615-10.461-29.615 0-52.5 11.538t-44.962 25.192q-22.077 13.654-47.192 25.192Q514.077-503 480-503t-59.192-11.539q-25.115-11.538-47.192-25.192t-44.962-25.192q-22.885-11.538-52.115-11.538-29.616 0-51.308 10.461t-41.308 23.615q-19.615 13.154-41.384 24.692-21.769 11.539-52.538 13.923Zm0-164.076v-44.999q26.847-3.769 46.078-15.615 19.23-11.846 38.653-24.615 19.423-12.769 43.077-22.615 23.654-9.846 58.731-9.846 34.692 0 59.922 11.538 25.231 11.538 47.116 25.192 21.884 13.654 44.461 25.192 22.577 11.539 51.962 11.539t51.962-11.539q22.577-11.538 44.461-25.192 21.885-13.654 47.116-25.192 25.23-11.538 60.307-11.538 34.692 0 58.038 9.846 23.346 9.846 43.077 22.615 19.731 12.769 38.961 24.615 19.231 11.846 46.077 15.615v44.999q-30.769-2.769-52.538-14.307-21.769-11.539-41.692-24.5-19.923-12.962-41.308-23.423-21.384-10.461-50.615-10.461-29.615 0-52.5 11.346t-44.962 25.192q-22.077 13.846-47.192 25.384-25.115 11.539-59.192 11.539t-59.192-11.539q-25.115-11.538-47.192-25.384t-44.962-25.192q-22.885-11.346-52.115-11.346-29.616 0-51.308 10.461t-41.308 23.423q-19.615 12.961-41.384 24.5-21.769 11.538-52.538 14.307Z"/></svg>