<svg xmlns="http://www.w3.org/2000/svg" width="48" height="48" viewBox="0 -960 960 960"><path d="M479.987-659.999q23.205 0 38.917-15.697 15.711-15.698 15.711-38.904 0-23.206-15.698-38.917-15.698-15.712-38.904-15.712-23.205 0-38.917 15.698-15.711 15.698-15.711 38.904 0 23.206 15.698 38.917 15.698 15.711 38.904 15.711ZM170.694-140.001l74.23-519.998h151.077q-8-12.076-12-25.688-4-13.611-4-28.927 0-41.922 29.038-70.96 29.039-29.038 70.961-29.038t70.961 29.038q29.038 29.038 29.038 70.96 0 15.462-4 29-4 13.539-12 25.615h151.077l74.23 519.998H170.694Z"/></svg>