<svg xmlns="http://www.w3.org/2000/svg" width="48" height="48" viewBox="0 -960 960 960"><path d="M769.999-140.001q-104.153 0-215.768-53.616-111.615-53.615-209.307-150.999Q247.616-442 193.809-553.808q-53.808-111.807-53.808-216.191v-50h191.537l37.692 173.23-113.153 110.923q28.769 47.307 58.846 87.154Q345-408.846 377-376.846q36 36.385 77.962 67.885 41.961 31.5 92.808 59.423L659-365.153l160.999 33.999v191.153h-50ZM234-577.999l86.001-83.154-24.539-113.462H185.385q-.769 40.308 11.115 88.846 11.885 48.539 37.5 107.77Zm356.307 349.153q39.077 19.384 88.039 31 48.961 11.615 96.269 12.846v-110.078l-101.461-20.615-82.847 86.847ZM234-577.999Zm356.307 349.153ZM660-525.999q-14.692 0-25.038-10.346t-10.346-25.038q0-14.692 10.346-25.038T660-596.767q14.692 0 25.038 10.346t10.346 25.038q0 14.692-10.346 25.038T660-525.999ZM565.692-626.23l-29.538-31.692q25.616-23.307 57.33-36.653t66.653-13.346q34.94 0 66.517 13.346 31.576 13.346 57.192 36.653l-29.538 31.692q-20.246-18.396-44.123-28.121-23.878-9.725-50.263-9.725-26.385 0-50.206 9.725t-44.024 28.121Zm-78.538-80.923-30.692-30.692q41.615-40.077 93.846-61.423Q602.539-820.614 660-820.614q57.461 0 109.692 21.346 52.231 21.346 93.846 61.423l-30.307 30.692q-35.56-33.694-80.245-51.655-44.686-17.961-93.221-17.961-48.534 0-92.769 18.158-44.234 18.158-79.842 51.458Z"/></svg>