<svg xmlns="http://www.w3.org/2000/svg" width="48" height="48" viewBox="0 -960 960 960"><path d="M441.155-60.002v-45.383h56.153v-234.231q-17.308-4-31.269-12.616-13.962-8.616-23.808-22.693L324.462-301.54 66.54-375.001v-124.998h371.614q9.231-13.692 22.385-23.615 13.154-9.923 29.462-14.695V-702.46l197.306-183.845 105.383 67.153-193.538 317.229q13 11.846 19.001 31.164 6 19.318 3.153 37.914l140.616 34.384 130.076 233.614L804-78.387 550.769-329.464q-1.923 1.154-3.846 1.924-1.923.769-4.231 1.154v221.001h56.153v45.384h-157.69ZM180.001-767.306v-45.384H400v45.384H180.001Zm355.383 84.308v141q7.923 1.615 15.538 4.462 7.615 2.846 13.923 6.692L731.306-806.97l-41.153-21.797-154.769 145.769ZM60.002-607.307v-45.384H240v45.384H60.001Zm459.93 225.768q25.183 0 41.856-16.605 16.673-16.606 16.673-41.789 0-25.182-16.605-41.855-16.606-16.673-41.788-16.673-25.183 0-41.856 16.605-16.673 16.606-16.673 41.789 0 25.182 16.605 41.855 16.606 16.673 41.788 16.673ZM317-349.77l104.616-64.539q-3.846-9.769-4.153-20.153-.308-10.384 1.307-20.153H111.924v44.769L317-349.77Zm415.153-9.999-123.077-29.077q-4.462 8.538-10.769 15.768-6.308 7.231-13.846 12.923l218.385 218.539 31.845-31.753-102.538-186.4Zm-592.152 212.46v-45.384H320v45.384H140.001ZM520-440Zm44.845-90.845Zm-146.075 76.23Zm165.691 94.46Z"/></svg>