<svg xmlns="http://www.w3.org/2000/svg" width="48" height="48" viewBox="0 -960 960 960"><path d="M385.39-700h189.22v-94.61H385.39V-700ZM596.5-116.5q-51.42-51.42-51.42-123.5t51.42-123.5q51.42-51.42 123.5-51.42t123.5 51.42q51.42 51.42 51.42 123.5T843.5-116.5Q792.08-65.08 720-65.08T596.5-116.5ZM100-140v-560h240v-140h280v140h240v266.54q-30.16-22.62-66.15-34.73-36-12.12-73.85-12.12-99 0-169.65 70.66Q479.69-339 479.69-240q0 28.46 5.58 51.23Q490.85-166 503-140H100Zm620 4q8.62 0 14.73-5.62 6.12-5.61 6.12-14.84t-6.12-15.04q-6.11-5.81-14.73-5.81-9.23 0-15.04 5.81-5.81 5.81-5.81 15.04t5.81 14.84Q710.77-136 720-136Zm-16.08-80.39h31.54V-344h-31.54v127.61Z"/></svg>