<svg xmlns="http://www.w3.org/2000/svg" width="48" height="48" viewBox="0 -960 960 960"><path d="M343.308-513.462h40.384v-227.691H281.078v40.384h62.23v187.307Zm139 0h124.999q12.847 0 24.116-11.269t11.269-24.115v-156.923q0-12.846-11.269-24.115-11.269-11.269-24.116-11.269H482.308v40.384h120v58.615h-83.847v30.308h83.847v58h-120v40.384Zm-241.23 294.615h40.383v-187.307h61.847v125.076h40.384v-125.076h66.924v187.307H491v-193.846q0-12.461-10.693-23.153-10.692-10.692-23.153-10.692H274.923q-12.461 0-23.153 10.692-10.692 10.692-10.692 23.153v193.846Zm316.845 0h40.384v-62.231h86.154q12.462 0 23.154-10.692t10.692-23.153v-97.77q0-12.461-10.692-23.153-10.692-10.692-23.154-10.692H557.923v227.691Zm40.384-102.614v-84.693h79.616v84.693h-79.616Zm-400.613 181.46q-23.616 0-40.654-17.039-17.039-17.038-17.039-40.654v-564.612q0-23.616 17.039-40.654 17.038-17.039 40.654-17.039h564.612q23.616 0 40.654 17.039 17.039 17.038 17.039 40.654v564.612q0 23.616-17.039 40.654-17.038 17.039-40.654 17.039H197.694Z"/></svg>