<svg xmlns="http://www.w3.org/2000/svg" width="48" height="48" viewBox="0 -960 960 960"><path d="M517.692-366.154h40.384v-92.308L649-366.154h55.999L591.46-480.769l113.539-113.077h-55.23l-91.693 91.539v-91.539h-40.384v227.692Zm-242.692 0h160.384v-40.384h-120v-58.001h89.077q13.181 0 22.052-8.525 8.871-8.526 8.871-21.782v-68.077q0-13.181-8.871-22.052t-22.052-8.871H275v40.384h120v58.616h-89.692q-12.919 0-21.613 8.694Q275-477.458 275-464.539v98.385Zm-77.306 226.153q-23.529 0-40.611-17.082-17.082-17.082-17.082-40.611v-564.612q0-23.529 17.082-40.611 17.082-17.082 40.611-17.082h564.612q23.529 0 40.611 17.082 17.082 17.082 17.082 40.611v564.612q0 23.529-17.082 40.611-17.082 17.082-40.611 17.082H197.694Zm0-45.384h564.612q4.616 0 8.463-3.846 3.846-3.847 3.846-8.463v-564.612q0-4.616-3.846-8.463-3.847-3.846-8.463-3.846H197.694q-4.616 0-8.463 3.846-3.846 3.847-3.846 8.463v564.612q0 4.616 3.846 8.463 3.847 3.846 8.463 3.846Zm-12.309-589.23v589.23-589.23Z"/></svg>