<svg xmlns="http://www.w3.org/2000/svg" width="48" height="48" viewBox="0 96 960 960"><path d="M241.078 837.153h40.383V649.846h61.847v125.076h40.384V649.846h66.924v187.307H491V643.307q0-12.461-10.693-23.153-10.692-10.692-23.153-10.692H274.923q-12.461 0-23.153 10.692-10.692 10.692-10.692 23.153v193.846ZM400 550.231h160.384v-40.384h-120V448H525q12.846 0 24.115-11.269 11.269-11.269 11.269-24.115v-62.385q0-12.846-11.269-24.115-11.269-11.269-24.115-11.269H400v40.384h120v62.462h-84.615q-13.231 0-24.308 11.269T400 453.077v97.154Zm157.923 286.922h40.384v-62.231h86.154q12.462 0 23.154-10.692t10.692-23.153v-97.77q0-12.461-10.692-23.153-10.692-10.692-23.154-10.692H557.923v227.691Zm40.384-102.614v-84.693h79.616v84.693h-79.616Zm-400.613 181.46q-23.616 0-40.654-17.039-17.039-17.038-17.039-40.654V293.694q0-23.616 17.039-40.654 17.038-17.039 40.654-17.039h564.612q23.616 0 40.654 17.039 17.039 17.038 17.039 40.654v564.612q0 23.616-17.039 40.654-17.038 17.039-40.654 17.039H197.694Z"/></svg>