<svg xmlns="http://www.w3.org/2000/svg" width="48" height="48"><path d="M6.5 33.5v-2.25h9.65q.25 0 .425-.175t.175-.475v-4.85q0-.25-.175-.425t-.425-.175H6.6v-2.3h9.55q.25 0 .425-.175t.175-.425V17.4q0-.3-.175-.475t-.425-.175H6.5V14.5h9.65q1.2 0 2.025.85T19 17.4v4q0 1-.55 1.775-.55.775-1.55.875.95.05 1.525.8T19 26.6v4q0 1.2-.825 2.05-.825.85-2.025.85zm35-10.7v7.8q0 1.2-.825 2.05-.825.85-2.025.85h-10.9q-1.2 0-2.05-.85-.85-.85-.85-2.05V17.4q0-1.2.85-2.05.85-.85 2.05-.85H38.8q.95 0 1.7.65t1 1.6H27.75q-.25 0-.425.175t-.175.475v13.2q0 .3.175.475t.425.175h10.9q.25 0 .425-.175t.175-.475v-5.55h-5.1V22.8z"/></svg>