<svg xmlns="http://www.w3.org/2000/svg" width="48" height="48" viewBox="0 -960 960 960"><path d="M382.616-513.462h125q12.846 0 24.115-11.269Q543-536 543-548.846v-57.923q0-12.846-11.269-24.115-11.269-11.27-24.115-11.27H423v-58.615h120v-40.384H382.616v129.307h120v58h-120v40.384ZM241.078-218.847h40.383v-187.307h61.847v125.076h40.384v-125.076h66.924v187.307H491v-193.846q0-12.461-10.693-23.153-10.692-10.692-23.153-10.692H274.923q-12.461 0-23.153 10.692-10.692 10.692-10.692 23.153v193.846Zm316.845 0h40.384v-62.231h86.154q12.462 0 23.154-10.692t10.692-23.153v-97.77q0-12.461-10.692-23.153-10.692-10.692-23.154-10.692H557.923v227.691Zm40.384-102.614v-84.693h79.616v84.693h-79.616Zm-400.613 181.46q-23.529 0-40.611-17.082-17.082-17.082-17.082-40.611v-564.612q0-23.529 17.082-40.611 17.082-17.082 40.611-17.082h564.612q23.529 0 40.611 17.082 17.082 17.082 17.082 40.611v564.612q0 23.529-17.082 40.611-17.082 17.082-40.611 17.082H197.694Zm0-45.384h564.612q4.616 0 8.463-3.846 3.846-3.847 3.846-8.463v-564.612q0-4.616-3.846-8.463-3.847-3.846-8.463-3.846H197.694q-4.616 0-8.463 3.846-3.846 3.847-3.846 8.463v564.612q0 4.616 3.846 8.463 3.847 3.846 8.463 3.846Zm-12.309-589.23v589.23-589.23Z"/></svg>