<svg xmlns="http://www.w3.org/2000/svg" width="48" height="48" viewBox="0 -960 960 960"><path d="M242.616-366.154h129.896q13.027 0 21.757-8.694Q403-383.543 403-396.462v-166.461q0-13.181-8.694-22.052t-21.613-8.871h-99.769q-13.256 0-21.782 8.871t-8.526 22.052v68.077q0 13.256 8.526 21.782 8.526 8.525 21.782 8.525h89.692v58.001h-120v40.384ZM283-494.846v-68.692h79.616v68.692H283Zm186.462 128.692h40.384v-92.308l90.923 92.308h56L543.23-480.769l113.539-113.077h-55.23l-91.693 91.539v-91.539h-40.384v227.692Zm206.923-36.154h35.384v-62.231h62.846v-30.307h-62.846v-62.846h-35.384v62.846h-62.231v30.307h62.231v62.231ZM197.694-140.001q-23.529 0-40.611-17.082-17.082-17.082-17.082-40.611v-564.612q0-23.529 17.082-40.611 17.082-17.082 40.611-17.082h564.612q23.529 0 40.611 17.082 17.082 17.082 17.082 40.611v564.612q0 23.529-17.082 40.611-17.082 17.082-40.611 17.082H197.694Zm0-45.384h564.612q4.616 0 8.463-3.846 3.846-3.847 3.846-8.463v-564.612q0-4.616-3.846-8.463-3.847-3.846-8.463-3.846H197.694q-4.616 0-8.463 3.846-3.846 3.847-3.846 8.463v564.612q0 4.616 3.846 8.463 3.847 3.846 8.463 3.846Zm-12.309-589.23v589.23-589.23Z"/></svg>