<svg xmlns="http://www.w3.org/2000/svg" width="48" height="48" viewBox="0 -960 960 960"><path d="M697-621.461h56.154v-56.154H697v56.154Zm32.223 561.46q-70.776 0-120.768-50.308-49.992-50.307-49.992-120.153 0-71.634 49.982-121.855 49.982-50.22 121.278-50.22 70.276 0 120.584 50.22 50.307 50.221 50.307 121.855 0 69.846-50.307 120.153-50.308 50.307-121.084 50.307Zm-13.916-47.692h30.308V-215h107.307v-30.308H745.615v-107.307h-30.308v107.307H608V-215h107.307v107.307Zm184.692-304.77q-33.462-34.307-78.108-52.576t-92.353-18.269q-25.538 0-50.077 4.884-24.539 4.885-48.077 14.27v-75.076L411.539-693.46v-126.539h488.46v407.536ZM60.001-140.001v-362.691l253.307-180.922 252.691 180.922v78.923Q523.691-388 500.692-337.073q-23 50.928-23 106.611 0 24.294 4.861 46.204 4.862 21.911 13.6 44.257H390.231v-207.538H236.385v207.538H60.002Z"/></svg>