<svg xmlns="http://www.w3.org/2000/svg" width="48" height="48" viewBox="0 -960 960 960"><path d="M157.694-180.001q-23.529 0-40.611-17.082-17.082-17.082-17.082-40.611v-484.612q0-23.529 17.082-40.611 17.082-17.082 40.611-17.082h644.612q23.529 0 40.611 17.082 17.082 17.082 17.082 40.611v210.921H145.385v273.691q0 4.616 3.846 8.463 3.847 3.846 8.463 3.846h370.921v45.384H157.694Zm-12.309-443.844h669.23v-98.461q0-4.616-3.846-8.463-3.847-3.846-8.463-3.846H157.694q-4.616 0-8.463 3.846-3.846 3.847-3.846 8.463v98.461ZM784.616-90.001v-120h-120v-45.383h120v-120h45.383v120h120v45.383h-120v120h-45.383ZM145.385-225.385v-509.23 509.23Z"/></svg>