<svg xmlns="http://www.w3.org/2000/svg" width="48" height="48" viewBox="0 96 960 960"><path d="M145.385 544.615h669.23v-112.46h-669.23v112.46Zm639.231 421.384v-120h-120v-45.383h120v-120h45.383v120h120v45.383h-120v120h-45.383Zm-626.922-90q-23.529 0-40.611-17.082-17.082-17.082-17.082-40.611V333.694q0-23.529 17.082-40.611 17.082-17.082 40.611-17.082h644.612q23.529 0 40.611 17.082 17.082 17.082 17.082 40.611v281.537h-75.383q-76.935 0-131.16 54.225-54.225 54.225-54.225 131.16v75.383H157.694Z"/></svg>