<svg xmlns="http://www.w3.org/2000/svg" width="48" height="48" viewBox="0 -960 960 960"><path d="M480.187-492.693q26.89 0 45.851-19.148Q545-530.99 545-557.879q0-26.89-19.149-45.851-19.149-18.962-46.038-18.962-26.89 0-45.851 19.149Q415-584.394 415-557.505q0 26.89 19.149 45.851t46.038 18.961ZM480-99.617Q329.001-230.463 253.539-343.154q-75.461-112.692-75.461-206.923 0-138.46 89.577-224.191Q357.231-859.999 480-859.999q17.769 0 34.538 2.231t32.922 5.273v138.958h126.077v126.077h106.142q1.012 9.145 1.627 18.332.616 9.186.616 19.051 0 94.231-75.461 206.923Q630.999-230.463 480-99.617Zm248.923-543.229v-126.077H602.846v-45.383h126.077v-125.693h45.383v125.693h125.693v45.383H774.306v126.077h-45.383Z"/></svg>