<svg xmlns="http://www.w3.org/2000/svg" width="48" height="48" viewBox="0 -960 960 960"><path d="M143.077-594q-9.148 0-14.997-6.705-5.849-6.706-5.849-15.808 0-9.101 5.849-15.986 5.849-6.884 14.997-6.884h143.23q20.46 0 35.73 13.076Q337.306-613.23 343.845-594H143.077Zm84.09 373.231q54.91 0 93.487-38.437t38.577-93.346q0-54.91-38.437-93.487t-93.346-38.577q-54.91 0-93.487 38.437t-38.577 93.346q0 54.91 38.437 93.487t93.346 38.577Zm556.503 0q33.484 0 57.215-23.555 23.731-23.554 23.731-57.423 0-33.484-23.555-57.215-23.554-23.731-57.038-23.731-33.869 0-57.6 23.554-23.731 23.555-23.731 57.039 0 33.869 23.554 57.6 23.555 23.731 57.424 23.731Zm-556.313-72.309q-24.818 0-42.241-17.373t-17.423-42.192q0-24.818 17.373-42.241t42.192-17.423q24.818 0 42.241 17.373t17.423 42.192q0 24.818-17.373 42.241t-42.192 17.423Zm579.181-133.383q14 3.846 23.359 7.971 9.358 4.124 22.025 12.182v-239.999q0-24.75-16.471-41.221-16.472-16.471-41.221-16.471H550.693l-47.077-47.461 60.462-60.462-20.693-20.692L402.001-691.23l21.077 21.308 59.846-59.846 47.077 46.195v85.804q0 45.316-31.674 77.966-31.673 32.65-77.712 32.65h-77.077q12.769 11.692 20.153 21.23 7.385 9.538 17.077 24.153h39.847q63.846 0 109.308-46.348 45.461-46.349 45.461-109.651v-60.846H794.23q5.385 0 8.846 3.654 3.462 3.654 3.462 8.654v219.846Zm-145.46 96.46q4.846-16.23 9.587-25.74Q675.407-365.251 684-376H403.384q1.23 13.412 1.23 22.814 0 9.403-1.23 23.185h257.694Zm123.076 154.615q-52.846 0-89.846-36.256-37-36.255-37-88.051 0-53.484 37.45-90.934 37.45-37.45 90.934-37.45 51.796 0 88.051 37.036 36.256 37.035 36.256 89.31 0 53.346-36.5 89.845-36.499 36.5-89.345 36.5Zm-558.601 0q-73.63 0-124.591-51.862T50.001-352.693q0-73.582 51.769-125.444 51.769-51.862 125.406-51.862t125.538 51.9q51.9 51.901 51.9 125.538t-51.715 125.406q-51.715 51.769-127.346 51.769Zm384.523-341.921Z"/></svg>