<svg xmlns="http://www.w3.org/2000/svg" width="48" height="48"><path d="M24 43q-3.9 0-7.375-1.5t-6.05-4.075Q8 34.85 6.5 31.375 5 27.9 5 24t1.5-7.375q1.5-3.475 4.075-6.05Q13.15 8 16.625 6.5 20.1 5 24 5t7.375 1.5q3.475 1.5 6.05 4.075Q40 13.15 41.5 16.625 43 20.1 43 24t-1.5 7.375q-1.5 3.475-4.075 6.05Q34.85 40 31.375 41.5 27.9 43 24 43zm0-11.6q3.15 0 5.4-2.15 2.25-2.15 2.25-5.25 0-3.2-2.225-5.425Q27.2 16.35 24 16.35q-3.1 0-5.25 2.25T16.6 24q0 3.1 2.15 5.25T24 31.4zm0-5.4q-.85 0-1.425-.575Q22 24.85 22 24q0-.85.575-1.425Q23.15 22 24 22q.85 0 1.425.575Q26 23.15 26 24q0 .85-.575 1.425Q24.85 26 24 26z"/></svg>