<svg xmlns="http://www.w3.org/2000/svg" width="48" height="48" viewBox="0 0 48 48"><path d="M11.65 34.75 18.6 24l-6.95-10.75L18.6 24l-1.075 1.675-2.375 3.7q-1.3 2.025-2.4 3.7l-1.1 1.675ZM7.55 37l8.35-13-8.35-13H29q1.1 0 2.05.55.95.55 1.6 1.45l7.9 11.1-.55.8q-.5-.2-1-.3-.5-.1-.9-.2l-7.7-10.65q-.15-.2-.4-.35-.25-.15-.55-.15h-17.8L18.6 24l-6.95 10.75H24.4q-.1.55-.1 1.1t.05 1.15Zm27.55 3.45 6.35-6.2-1.7-1.7-4.65 4.55-1.9-1.95-1.7 1.7Zm1.35 4.65q-3.55 0-6.05-2.525t-2.5-6.025q0-3.6 2.5-6.1 2.5-2.5 6.1-2.5 3.5 0 6.025 2.5 2.525 2.5 2.525 6.1 0 3.5-2.525 6.025Q40 45.1 36.45 45.1Z"/></svg>