<svg xmlns="http://www.w3.org/2000/svg" width="48" height="48" viewBox="0 -960 960 960"><path d="M73.849-259.001q7.615-97.923 60.206-181.248 52.59-83.324 139.254-132.597L204.463-691.46q-3.384-8.616-.884-17.039 2.5-8.423 10.115-13.038 8.231-4.615 17.769-1.808 9.538 2.808 14.077 11.126l68.307 117.297Q393.231-628.809 480-628.809q86.769 0 166.153 33.887l68.922-117.297q4.924-8.318 14.27-11.126 9.346-2.807 17.961 1.808 7.615 4.615 10.731 13.538 3.115 8.923-1.5 16.539l-69.846 118.614q86.664 49.273 139.254 132.597 52.591 83.325 60.206 181.248H73.849ZM295.44-360.539q18.407 0 32.253-13.708t13.846-32.5q0-18.407-13.9-32.253t-32.307-13.846q-18.408 0-32.254 13.9-13.846 13.9-13.846 32.307 0 18.792 13.9 32.446 13.901 13.654 32.308 13.654Zm369.228 0q18.408 0 32.254-13.708 13.846-13.708 13.846-32.5 0-18.407-13.9-32.253-13.901-13.846-32.308-13.846t-32.253 13.9q-13.846 13.9-13.846 32.307 0 18.792 13.9 32.446 13.9 13.654 32.307 13.654Z"/></svg>