<svg xmlns="http://www.w3.org/2000/svg" width="48" height="48" viewBox="0 -960 960 960"><path d="M229.846-175.386q-22.807 0-38.634-15.826-15.826-15.827-15.826-38.634 0-22.808 15.826-38.634 15.827-15.827 38.634-15.827 22.808 0 38.634 15.827 15.827 15.826 15.827 38.634 0 22.807-15.827 38.634-15.826 15.826-38.634 15.826Zm0-250.153q-22.807 0-38.634-15.827-15.826-15.827-15.826-38.634 0-22.807 15.826-38.634 15.827-15.827 38.634-15.827 22.808 0 38.634 15.827 15.827 15.827 15.827 38.634 0 22.807-15.827 38.634-15.826 15.827-38.634 15.827Zm0-250.154q-22.807 0-38.634-15.827-15.826-15.826-15.826-38.634 0-22.807 15.826-38.634 15.827-15.826 38.634-15.826 22.808 0 38.634 15.826 15.827 15.827 15.827 38.634 0 22.808-15.827 38.634-15.826 15.827-38.634 15.827Zm250.154 0q-22.807 0-38.634-15.827-15.827-15.826-15.827-38.634 0-22.807 15.827-38.634 15.827-15.826 38.634-15.826 22.807 0 38.634 15.826 15.827 15.827 15.827 38.634 0 22.808-15.827 38.634-15.827 15.827-38.634 15.827Zm250.154 0q-22.808 0-38.634-15.827-15.827-15.826-15.827-38.634 0-22.807 15.827-38.634 15.826-15.826 38.634-15.826 22.807 0 38.634 15.826 15.826 15.827 15.826 38.634 0 22.808-15.826 38.634-15.827 15.827-38.634 15.827ZM480.159-425.539q-22.351 0-38.485-15.975-16.135-15.975-16.135-38.327 0-22.351 15.975-38.485 15.975-16.135 38.327-16.135 22.351 0 38.485 15.975 16.135 15.975 16.135 38.327 0 22.351-15.975 38.485-15.975 16.135-38.327 16.135Zm44.457 250.153v-105.691L741.769-497.23q7.462-7.462 16.111-10.5 8.65-3.039 17.299-3.039 9.436 0 18.252 3.539 8.816 3.538 16.029 10.615l37 37.385q7.077 7.461 10.308 16.153 3.231 8.692 3.231 17.384 0 8.693-3.731 17.692-3.731 9-10.333 16.462L630.307-175.386H524.616Zm287.691-250.307-37-37.384 37 37.384Zm-240 202.616h38l129.847-130.462-18.385-19-18.615-18.77-130.847 130.232v38Zm149.462-149.462-18.615-18.77 37 37.77-18.385-19Z"/></svg>