<svg xmlns="http://www.w3.org/2000/svg" width="48" height="48" viewBox="0 -960 960 960"><path d="M197.694-140.001q-23.75 0-40.721-16.972-16.972-16.971-16.972-40.721v-564.612q0-23.75 16.972-40.721 16.971-16.972 40.721-16.972h205q-1.924-32.307 20.845-56.153 22.769-23.847 56.653-23.847 33.885 0 56.654 23.847 22.769 23.846 20.46 56.153h205q23.75 0 40.721 16.972 16.972 16.971 16.972 40.721v564.612q0 23.75-16.972 40.721-16.971 16.972-40.721 16.972H197.694Zm92.307-154.615h254.921V-340H290.001v45.384Zm0-162.692h379.998v-45.384H290.001v45.384Zm0-162.692h379.998v-45.384H290.001V-620ZM480-791.23q13.615 0 23.731-9.923 10.115-9.923 10.115-23.923 0-13.616-10.115-23.539-10.116-9.923-23.731-9.923-13.615 0-23.538 9.923t-9.923 23.539q0 14 9.923 23.923 9.923 9.923 23.538 9.923Z"/></svg>