<svg xmlns="http://www.w3.org/2000/svg" width="48" height="48" viewBox="0 96 960 960"><path d="M238.925 804.615V461.384h45.384v343.231h-45.384Zm221.229 0V461.384h45.384v343.231h-45.384ZM110.771 395.999v-37.23L480 157.694l369.229 201.075v37.23H110.771Zm0 519.384V870h476.153q1.23 10.922 2.538 21.768 1.308 10.846 5.384 23.615H110.771Zm564.92-255.997V461.384h45.384v175.31l-45.384 22.692ZM800 1040.61q-64-15.84-105.846-73.341-41.845-57.5-41.845-127.73v-94.308L800 671.386l147.691 73.845v94.308q0 70.23-41.845 127.73Q864 1024.77 800 1040.61Zm-23.308-113.072 132.384-132.384-23-23.384-109.384 109.384-53.615-53.615-22.999 23 76.614 76.999Z"/></svg>