<svg xmlns="http://www.w3.org/2000/svg" width="48" height="48" viewBox="0 -960 960 960"><path d="M285.69-284.69q-37 31.3-76.81 28-39.8-3.31-68.92-28-29.11-24.7-38.65-63.35-9.54-38.65 15.15-79.81l81.62-136.23q-26.23-19.46-41.85-49.25-15.61-29.78-15.61-64.96 0-58.77 41.76-100.55 41.76-41.77 101.08-41.77 58.91 0 100.69 41.77 41.77 41.78 41.77 100.69t-41.77 100.68q-41.78 41.78-100.69 41.78-11.95 0-23.52-1.89-11.57-1.88-21.94-5.65l-83.23 139.08Q140-380 145.75-356.55q5.76 23.45 23.36 38.1 17.61 14.65 41.44 16.36 23.84 1.71 45.76-16.45l418.38-357.38q36.16-31.31 76.24-28.66 40.09 2.66 69.62 27.25 29.02 24.68 39.04 63.85t-14.67 80.71l-81.38 136.23q26.23 19.85 41.65 49.51 15.42 29.65 15.42 64.57 0 58.91-42.12 100.68Q736.37-140 677.21-140q-59.47 0-100.49-41.98-41.03-41.97-41.03-100.67 0-58.69 41.11-100.48 41.11-41.79 100.35-41.79 11.56 0 22.82 1.57 11.26 1.58 22.03 5.35l83.23-138.46q14.77-24.54 9.2-47.78-5.58-23.24-23.16-37.92-17.58-14.69-41.42-16.57-23.85-1.89-45.77 16.65L285.69-284.69Zm-2.07-296.39q40 0 68.46-28.62 28.46-28.62 28.46-68.8 0-40.19-28.62-68.46-28.62-28.27-68.81-28.27t-68.65 28.45Q186-718.33 186-677.99q0 39.99 28.57 68.45 28.56 28.46 69.05 28.46Zm393.62 395.69q40.42 0 69.21-28.62 28.78-28.62 28.78-68.8 0-40.19-28.83-68.46-28.82-28.27-69.3-28.27-40.49 0-68.25 28.45-27.77 28.46-27.77 68.79 0 39.99 27.71 68.45t68.45 28.46ZM283.46-678.15Zm394.69 395.69Z"/></svg>