<svg xmlns="http://www.w3.org/2000/svg" width="48" height="48" viewBox="0 -960 960 960"><path d="M479.231-185.386q-48.385-35.693-104-55.154Q319.615-260.001 260-260.001q-36.615 0-71.922 8.115-35.308 8.115-68.077 23.884-21.384 9.846-40.692-2.923-19.307-12.77-19.307-36.154v-433.535q0-12.923 6.846-23.885 6.846-10.962 19-15.962 40.615-19.769 84.653-29.653 44.038-9.885 89.499-9.885 58.385 0 113.692 16.539Q429-746.921 480-716.921v475.613q50.615-33 106.808-48.539Q643-305.385 700-305.385q34.461 0 68.692 5.077 34.23 5.077 74.384 23.999 4.231 1.154 7.885 0t3.654-6.154v-467.689q6.538 2.461 12.769 5.115 6.23 2.653 12.153 6.115 9.615 5.615 15.039 14.923 5.423 9.308 5.423 20.308v435.842q0 23.385-19.885 35.962-19.885 12.577-42.423 3.116-32.385-15.385-67.115-23.308-34.73-7.922-70.576-7.922-60 0-116.385 18.884-56.384 18.884-104.384 55.731Zm66.154-150.461v-340.307L789.23-919.999v370.461L545.385-335.847Z"/></svg>