<svg xmlns="http://www.w3.org/2000/svg" width="48" height="48" viewBox="0 -960 960 960"><path d="M237.694-100.001q-23.596 0-40.645-16.707-17.048-16.707-17.048-39.832v-482.69q0-52.615 34-91.423 34-38.807 86-46.884v-82.462h85.384v80h189.23v-80h85.384v82.462q52 8.077 86 46.884 34 38.808 34 91.423v482.69q0 23.125-17.048 39.832-17.049 16.707-40.645 16.707H237.694Zm0-45.384h484.612q5.385 0 8.847-3.269 3.462-3.27 3.462-7.886v-482.69q0-39.923-28.308-67.654-28.308-27.731-69-27.731H322.693q-40.245 0-68.777 27.731-28.531 27.731-28.531 67.654v482.69q0 4.616 3.462 7.886 3.462 3.269 8.847 3.269ZM621.539-335.77h45.383v-123.845H293.078v45.384h328.461v78.461ZM480-440Z"/></svg>