<svg xmlns="http://www.w3.org/2000/svg" width="48" height="48" viewBox="0 96 960 960"><path d="m443.384 717.691 109.692-109.692 109.693 109.692 32.999-32.614L585.076 576l109.076-109.077-32.614-32.614-108.462 109.692-109.692-109.692-32.614 32.614L521.077 576 410.77 685.077l32.614 32.614ZM142.309 576l155.153-219.383q13-18.385 31.533-29.5 18.532-11.116 41.031-11.116h389.973q23.596 0 40.644 17.048 17.048 17.049 17.048 40.645v404.612q0 23.596-17.048 40.645-17.048 17.048-40.644 17.048H370.001q-22.385 0-40.77-11.5-18.384-11.5-31.769-29.885L142.309 576Zm56.537 0L342.9 780.614q3.077 4.231 8.269 7.116 5.193 2.885 10.963 2.885h397.867q4.615 0 8.462-3.846 3.846-3.847 3.846-8.463V373.694q0-4.616-3.846-8.463-3.847-3.846-8.462-3.846H362.078q-5.77 0-10.962 2.885-5.193 2.885-8.27 7.116L198.846 576Zm573.461 0V361.385v429.23V576Z"/></svg>