<svg xmlns="http://www.w3.org/2000/svg" width="48" height="48" viewBox="0 -960 960 960"><path d="M345.46-388.61q61.08 1 103.31-42.81Q491-475.23 491-537.6q0-32.25-14.58-61.09-14.57-28.85-38.73-52-40.38-39-90.5-61.96-50.11-22.96-106.5-22.96-42.38 0-68.84 21.48t-26.46 61.29q0 61.53 22.34 117.8 22.35 56.27 67.5 98.66 22.77 20.77 50.92 34.27 28.16 13.5 59.31 13.5Zm336-280.54L583.23-767l211.54-100.54 14.46 138.39-127.77 60Zm92.11 83.03q-12.8-3.11-22.26-12.57l-24.23-24.46 88.15-41.77 3.77 34.15q1.23 13.31-4.12 24.69-5.34 11.39-16.92 17.23-11.58 5.85-24.39 2.73ZM100-652.84q0-61.08 38.62-94.62Q177.23-781 240.76-781q65.24 0 124.05 26.12 58.81 26.11 103.5 72.57 28.84 30.23 47.04 66.93 18.19 36.69 18.19 78.07 0 33.12-10.27 63.64-10.27 30.52-29.42 56.9L778.38-132l-32 32-283.15-283.15q-25 20.77-55.19 30.65-30.19 9.89-62.58 10.27-40.46 0-76.61-16.73-36.16-16.73-65-44.19-51.23-49.46-77.54-114.27Q100-582.23 100-652.84Zm218.31 90.92Z"/></svg>