<svg xmlns="http://www.w3.org/2000/svg" width="48" height="48" viewBox="0 -960 960 960"><path d="M460.31-563.85h212.61v-45.38H460.31v45.38Zm0 212.69h212.61v-45.38H460.31v45.38Zm-78.12-204.26q13.19-13.19 13.19-30.93 0-17.73-13.12-30.92-13.12-13.19-31.11-13.19-18 0-31 13.19t-13 30.92q0 17.74 13.05 30.93 13.04 13.19 30.92 13.19 17.88 0 31.07-13.19Zm0 212.69q13.19-13.19 13.19-30.92 0-17.74-13.12-30.93-13.12-13.19-31.11-13.19-18 0-31 13.19t-13 30.93q0 17.73 13.05 30.92 13.04 13.19 30.92 13.19 17.88 0 31.07-13.19ZM197.69-140q-23.53 0-40.61-17.08T140-197.69v-564.62q0-23.53 17.08-40.61T197.69-820h564.62q23.53 0 40.61 17.08T820-762.31v564.62q0 23.53-17.08 40.61T762.31-140H197.69Zm0-45.39h564.62q4.61 0 8.46-3.84 3.84-3.85 3.84-8.46v-564.62q0-4.61-3.84-8.46-3.85-3.84-8.46-3.84H197.69q-4.61 0-8.46 3.84-3.84 3.85-3.84 8.46v564.62q0 4.61 3.84 8.46 3.85 3.84 8.46 3.84Zm-12.3-589.22v589.22-589.22Z"/></svg>