<svg xmlns="http://www.w3.org/2000/svg" width="48" height="48" viewBox="0 -960 960 960"><path d="M242.11-647.31q-9.72 0-16.11-6.58-6.38-6.58-6.38-16.3 0-9.73 6.58-16.12 6.58-6.38 16.31-6.38 9.72 0 16.11 6.58 6.38 6.58 6.38 16.31 0 9.72-6.58 16.11-6.58 6.38-16.31 6.38ZM400-115.39q-57.92-.38-98.96-41.23Q260-197.46 260-255.39v-240q0-91.66 64.17-155.83 64.16-64.16 155.83-64.16h73q60.54 0 103.77 40.61t43.23 100q0 40.43-21.5 74.27-21.5 33.84-58.35 51.42-37 17.69-58.57 51.9Q540-362.97 540-322.39v67q0 58.54-40.73 99.46Q458.54-115 400-115.39ZM332.5-720q-9.73 0-16.11-6.52-6.39-6.53-6.39-16.17v-38.46q0-9.65 6.58-16.17 6.58-6.52 16.31-6.52 9.73 0 16.11 6.52 6.39 6.52 6.39 16.17v38.46q0 9.64-6.59 16.17-6.58 6.52-16.3 6.52Zm112.3-40q-9.72 0-16.11-6.52-6.38-6.53-6.38-16.17v-38.46q0-9.65 6.58-16.17 6.58-6.52 16.31-6.52 9.72 0 16.11 6.52 6.38 6.52 6.38 16.17v38.46q0 9.64-6.58 16.17-6.58 6.52-16.31 6.52Zm112.31 0q-9.73 0-16.11-6.52-6.38-6.53-6.38-16.17v-58.46q0-9.65 6.58-16.17 6.58-6.52 16.3-6.52 9.73 0 16.11 6.52 6.39 6.52 6.39 16.17v58.46q0 9.64-6.58 16.17-6.58 6.52-16.31 6.52Zm130.06 36.15q-16.63 0-28.44-11.9-11.81-11.91-11.81-28.48v-55.38q0-16.57 11.95-28.48T687.45-860q16.63 0 28.43 11.91 11.81 11.91 11.81 28.48v55.38q0 16.57-11.95 28.48-11.94 11.9-28.57 11.9Z"/></svg>