<svg xmlns="http://www.w3.org/2000/svg" width="48" height="48" viewBox="0 -960 960 960"><path d="M277.69-100q-23.61 0-40.65-17.04T220-157.69v-406.08q0-23.61 17.04-40.65t40.65-17.04h404.62q23.61 0 40.65 17.04T740-563.77v406.08q0 23.61-17.04 40.65T682.31-100H277.69Zm175-105.46h54.62v-36h-54.62v36Zm.39-76.62h53.84q0-20.61 8.39-38.81 8.38-18.19 19.61-35.19 9.85-15.46 18.58-31.61 8.73-16.16 8.73-34.23 0-33.77-24.23-57.27t-58-23.5q-34.15 0-58.08 23.31Q398-456.08 398-421.92q0 18.07 8.42 34.23 8.43 16.15 18.27 31.61 10.62 17 19.5 35.19 8.89 18.2 8.89 38.81ZM259.69-700.23q0-17.54 12.5-29.27t30.04-11.73H658q17.92 0 29.92 11.73t12 29.27H259.69ZM299.39-819q0-17.54 12.19-29.27T341.31-860h277.38q17.16 0 29.66 11.73 12.49 11.73 12.49 29.27H299.39Z"/></svg>