<svg xmlns="http://www.w3.org/2000/svg" width="48" height="48" viewBox="0 -960 960 960"><path d="M839.84-312.69q-11.3 0-19.22-8.09-7.93-8.08-7.93-19.38 0-11.3 8.09-19.22 8.08-7.93 19.38-7.93 11.3 0 19.22 8.09 7.93 8.08 7.93 19.38 0 11.3-8.09 19.22-8.08 7.93-19.38 7.93Zm-22.53-117.69v-232.31h45.38v232.31h-45.38ZM810.77-260h-665q-35.45 0-60.61-25.16Q60-310.32 60-345.77v-268.46q0-35.45 25.16-60.61Q110.32-700 145.77-700h598.46v45.39H145.77q-17.17 0-28.78 11.6-11.6 11.61-11.6 28.78v268.46q0 17.17 11.6 28.78 11.61 11.6 28.78 11.6h603.08q7.07 19.08 24.03 31.85 16.96 12.77 37.89 13.54Zm-705.38-45.39v-349.22 349.22Z"/></svg>