<svg xmlns="http://www.w3.org/2000/svg" width="48" height="48" viewBox="0 96 960 960"><path d="M480.067 955.999q-78.836 0-148.204-29.92-69.369-29.92-120.682-81.21-51.314-51.291-81.247-120.629-29.933-69.337-29.933-148.173t29.92-148.204q29.92-69.369 81.21-120.682 51.291-51.314 120.629-81.247 69.337-29.933 148.173-29.933t148.204 29.92q69.369 29.92 120.682 81.21 51.314 51.291 81.247 120.629 29.933 69.337 29.933 148.173t-29.92 148.204q-29.92 69.369-81.21 120.682-51.291 51.314-120.629 81.247-69.337 29.933-148.173 29.933ZM480 910.615q140.067 0 237.341-97.274T814.615 576q0-61.417-21.769-117.785-21.77-56.369-61.308-102.754L259.461 827.538q45.385 40.538 102.078 61.808Q418.233 910.615 480 910.615ZM229.078 796.539l471.461-471.461q-45.616-40.539-102.302-62.116Q541.552 241.385 480 241.385q-140.067 0-237.341 97.274T145.385 576q0 61.767 22.385 118.461 22.384 56.693 61.308 102.078Z"/></svg>