<svg xmlns="http://www.w3.org/2000/svg" width="48" height="48" viewBox="0 -960 960 960"><path d="M145.385-225.385v-509.23 509.23Zm12.309 45.384q-23.529 0-40.611-17.082-17.082-17.082-17.082-40.611v-484.612q0-23.529 17.082-40.611 17.082-17.082 40.611-17.082h249.459l65.385 65.385h329.768q23.529 0 40.611 17.082 17.082 17.082 17.082 40.611v158.612q-10.539-5.692-22.077-7.922-11.538-2.231-23.307-2.616v-148.074q0-4.616-3.846-8.463-3.847-3.846-8.463-3.846H454.077l-65.385-65.385H157.694q-5.385 0-8.847 3.462-3.462 3.462-3.462 8.847v484.612q0 4.616 3.846 8.463 3.847 3.846 8.463 3.846h333.459l.385-.385v45.769H157.694Zm406.922 80v-105.692l217.153-216.153q7.462-7.461 16.154-10.5 8.692-3.038 17.384-3.038 9.308 0 18.192 3.538 8.885 3.539 15.961 10.615l37 37.385q7.077 7.461 10.308 16.153 3.231 8.693 3.231 17.385 0 8.692-3.731 17.692t-10.333 16.461L670.307-100.001H564.616Zm287.691-250.307-37-37.385 37 37.385Zm-240 202.615h38l129.847-130.462-18.385-19-18.615-18.769-130.847 130.231v38Zm149.462-149.462-18.615-18.769 37 37.769-18.385-19Z"/></svg>