<svg xmlns="http://www.w3.org/2000/svg" width="48" height="48" viewBox="0 -960 960 960"><path d="M127.693-127.693v-49.999h704.614v49.999H127.693Zm0-163.846v-49.999h49.999v49.999h-49.999Zm327.307 0v-49.999h50v49.999h-50Zm327.308 0v-49.999h49.999v49.999h-49.999ZM127.693-455v-50h49.999v50h-49.999Zm163.846 0v-50h49.999v50h-49.999ZM455-455v-50h50v50h-50Zm163.846 0v-50h50v50h-50Zm163.462 0v-50h49.999v50h-49.999ZM127.693-618.846v-50h49.999v50h-49.999Zm327.307 0v-50h50v50h-50Zm327.308 0v-50h49.999v50h-49.999ZM127.693-782.308v-49.999h49.999v49.999h-49.999Zm163.846 0v-49.999h49.999v49.999h-49.999Zm163.461 0v-49.999h50v49.999h-50Zm163.846 0v-49.999h50v49.999h-50Zm163.462 0v-49.999h49.999v49.999h-49.999Z"/></svg>