<svg xmlns="http://www.w3.org/2000/svg" width="48" height="48" viewBox="0 -960 960 960"><path d="M140.001-140.001v-50h50v50h-50Zm0-157.692v-50h50v50h-50Zm0-159.615v-45.384h679.998v45.384H140.001Zm0-155.384v-49.999h50v49.999h-50Zm0-157.307v-50h50v50h-50Zm157.692 629.998v-50h50v50h-50Zm0-629.998v-50h50v50h-50ZM455-140.001v-50h50v50h-50Zm0-157.692v-50h50v50h-50Zm0-314.999v-49.999h50v49.999h-50Zm0-157.307v-50h50v50h-50Zm157.692 629.998v-50h49.999v50h-49.999Zm0-629.998v-50h49.999v50h-49.999Zm157.307 629.998v-50h50v50h-50Zm0-157.692v-50h50v50h-50Zm0-314.999v-49.999h50v49.999h-50Zm0-157.307v-50h50v50h-50Z"/></svg>