<svg xmlns="http://www.w3.org/2000/svg" width="48" height="48" viewBox="0 -960 960 960"><path d="M80 0v-91.382h800V0H80Zm145.385-289.461h40.538l389.846-389.846-20.076-20.461-20.462-20.077-389.846 389.461v40.923Zm-45.384 45.384v-104.537L662.078-830.69q7.076-7.077 15.576-10.115 8.5-3.039 16.969-3.039 8.084 0 16.73 3.039 8.646 3.038 15.108 10.115l40.153 39.769q6.692 6.461 10.231 15.14 3.538 8.678 3.538 17.181 0 8.37-3.597 16.931-3.597 8.561-10.172 15.516l-482.46 482.076H180.001Zm552.153-515.075-38.693-38.693 38.693 38.693Zm-76.385 79.845-20.076-20.461-20.462-20.077 40.538 40.538Z"/></svg>