<svg xmlns="http://www.w3.org/2000/svg" width="48" height="48" viewBox="0 -960 960 960"><path d="M197.694-140.001q-23.529 0-40.611-17.082-17.082-17.082-17.082-40.611v-564.612q0-23.529 17.082-40.611 17.082-17.082 40.611-17.082h564.612q23.529 0 40.611 17.082 17.082 17.082 17.082 40.611v564.612q0 23.529-17.082 40.611-17.082 17.082-40.611 17.082H197.694Zm-12.309-197.691h589.23v-424.614q0-4.616-3.846-8.463-3.847-3.846-8.463-3.846H197.694q-4.616 0-8.463 3.846-3.846 3.847-3.846 8.463v424.614Zm0 45.383v94.615q0 4.616 3.846 8.463 3.847 3.846 8.463 3.846h564.612q4.616 0 8.463-3.846 3.846-3.847 3.846-8.463v-94.615h-589.23Zm0 0v106.924-106.924Z"/></svg>