<svg xmlns="http://www.w3.org/2000/svg" width="48" height="48" viewBox="0 -960 960 960"><path d="M197.694-140.001q-23.529 0-40.611-17.082-17.082-17.082-17.082-40.611v-564.612q0-23.529 17.082-40.611 17.082-17.082 40.611-17.082h564.612q23.529 0 40.611 17.082 17.082 17.082 17.082 40.611v564.612q0 23.529-17.082 40.611-17.082 17.082-40.611 17.082H197.694Zm29.922-285.921 168.923-168.923 167.307 167.307 167.923-167.923 42.846 42.846v-209.691q0-5.385-3.462-8.847-3.462-3.462-8.847-3.462H197.694q-5.385 0-8.847 3.462-3.462 3.462-3.462 8.847v294.153l42.231 42.231Zm-29.922 240.537h564.612q5.385 0 8.847-3.462 3.462-3.462 3.462-8.847v-290.307l-42.846-42.846-167.923 167.923-167.307-167.307-168.923 168.538-42.231-41.846v205.845q0 5.385 3.462 8.847 3.462 3.462 8.847 3.462Zm-12.309 0v-302.616 45.384-331.998 589.23Z"/></svg>