<svg xmlns="http://www.w3.org/2000/svg" width="48" height="48" viewBox="0 -960 960 960"><path d="M472-336.385 503.615-368 382.692-488.948v-173.744h-45.384v191.615L472-336.385Zm253.077 171.999v-51.845q77.846-36.615 123.692-107.462 45.846-70.846 45.846-156.422 0-85.962-45.846-157.308-45.846-71.346-123.692-106.961v-51.845q96.307 41.23 155.614 126.302 59.308 85.072 59.308 189.345 0 104.274-59 189.619-59 85.346-155.922 126.577Zm-365.055 23.769q-70.791 0-132.637-26.961-61.846-26.962-107.846-72.769-46-45.808-72.768-107.824Q20-410.187 20-480.593q0-70.791 26.77-132.637 26.769-61.846 72.768-107.846 46-46 107.824-72.769 61.824-26.769 132.615-26.769 70.791 0 132.637 26.769 61.846 26.769 107.846 72.769 45.999 46 72.768 107.824 26.77 61.824 26.77 132.615 0 70.406-26.77 132.444-26.769 62.038-72.768 107.846-46 45.807-107.824 72.769-61.824 26.961-132.615 26.961Z"/></svg>