<svg xmlns="http://www.w3.org/2000/svg" width="48" height="48" viewBox="0 -960 960 960"><path d="M472-336.39 503.61-368 382.69-488.82v-173.87h-45.38v191.61L472-336.39Zm253.08 172v-51.84q77.84-36.62 123.69-107.46 45.84-70.85 45.84-156.43 0-85.96-45.84-157.3-45.85-71.35-123.69-106.96v-51.85q96.3 41.23 155.61 126.3Q940-584.86 940-480.58q0 104.27-59 189.62-59 85.34-155.92 126.57Zm-497.69-3.19q-61.85-26.96-107.85-72.77-46-45.8-72.77-107.84Q20-410.23 20-480.81q0-70.57 26.77-132.42 26.77-61.85 72.77-107.85 46-46 107.85-72.76 61.84-26.77 132.61-26.77 70.77 0 132.61 26.77 61.85 26.76 107.85 72.76 46 46 72.77 107.85Q700-551.38 700-480.81q0 70.58-26.77 132.62-26.77 62.04-72.77 107.84-46 45.81-107.85 72.77-61.84 26.96-132.61 26.96-70.77 0-132.61-26.96Z"/></svg>