<svg xmlns="http://www.w3.org/2000/svg" width="48" height="48" viewBox="0 -960 960 960"><path d="m713.078-133-263.77-265.001q-23.385 9.154-46.962 14.923-23.577 5.77-49.115 5.77-93.538 0-159.231-65.192-65.692-65.193-65.692-159.115 0-27.154 6.462-53.192 6.461-26.038 18.769-49.346L296.615-562.23l100.463-96.001-144.385-145.153q23.308-12.308 48.654-19.462 25.346-7.153 51.884-7.153 95.153 0 161.961 66.807 66.807 66.808 66.807 161.577 0 26.308-5.577 49.884-5.577 23.577-15.115 46.193l264.385 263.769q9.461 9.462 9.461 23.616 0 14.153-9.461 23.615l-66.769 62.307q-9.461 9.461-22.923 9.077-13.461-.385-22.922-9.846Z"/></svg>