<svg xmlns="http://www.w3.org/2000/svg" width="48" height="48" viewBox="0 96 960 960"><path d="M503.461 830.23q-11.884 0-20.173-8.481Q475 813.268 475 801.384V634.076q0-11.499 8.288-19.98 8.289-8.481 20.173-8.481h171.154q11.499 0 19.98 8.481t8.481 19.98v60.385l76.923-43.307v133.537l-76.923-43.307v60q0 11.884-8.481 20.365-8.481 8.481-19.98 8.481H503.461Zm-323.46 85.769V466.001L480 240.617l299.999 225.384v99.229h-45.384v-76.537L480 297.539 225.385 488.693v381.922h554.614v45.384H180.001ZM480 582.154Z"/></svg>