<svg xmlns="http://www.w3.org/2000/svg" width="48" height="48" viewBox="0 0 48 48"><path d="M16.35 32.5q-1.2 0-2.025-.85T13.5 29.6V18.4q0-1.2.825-2.05.825-.85 2.025-.85h1.95l1.65-1.65h8.2l1.65 1.65h1.95q1.2 0 2.05.85.85.85.85 2.05v11.2q0 1.2-.85 2.05-.85.85-2.05.85Zm0-2.3h15.4q.25 0 .425-.175t.175-.425V18.4q0-.25-.175-.425t-.425-.175h-15.4q-.25 0-.425.175t-.175.425v11.2q0 .25.175.425t.425.175Zm7.7-3.5q1.1 0 1.875-.775.775-.775.775-1.925 0-1.1-.775-1.875-.775-.775-1.925-.775-1.1 0-1.875.8-.775.8-.775 1.9 0 1.1.8 1.875.8.775 1.9.775ZM19.5 1.45q1.1-.25 2.225-.35Q22.85 1 24 1q4.45 0 8.475 1.6Q36.5 4.2 39.6 7.025q3.1 2.825 5.075 6.65T47.05 21.9h-2.3q-.3-3.9-2.025-7.275-1.725-3.375-4.45-5.85-2.725-2.475-6.25-3.95T24.55 3.2l4 4-1.65 1.65Zm9.05 45.1q-1.1.25-2.225.35-1.125.1-2.275.1-4.45 0-8.45-1.6-4-1.6-7.125-4.425-3.125-2.825-5.1-6.65Q1.4 30.5.95 26.1h2.3q.35 3.9 2.075 7.275 1.725 3.375 4.45 5.85 2.725 2.475 6.25 3.95T23.5 44.8l-4-4 1.6-1.65ZM24.1 24Z"/></svg>