<svg xmlns="http://www.w3.org/2000/svg" width="48" height="48" viewBox="0 96 960 960"><path d="M452.077 459h343.077q-27.231-73.23-87.847-130.115Q646.692 272 569.846 251.77L452.077 459Zm-88 82.231L537.308 243.77q-11.615-1-28.346-1.693-16.731-.692-28.962-.692-70.461 0-129.692 25.615-59.231 25.616-106.077 70.846l119.846 203.385ZM155.385 661.077H392L223.154 361.539q-38 45-57.884 99.73Q145.385 516 145.385 576q0 21 2.192 43.038 2.193 22.039 7.808 42.039ZM391.923 899.23 511.539 693H165.462q27.231 73.23 87.923 130.115Q314.077 880 391.923 899.23ZM480 910.615q70.461 0 130-25.615 59.538-25.616 105.769-70.846L596.538 610.769 423.461 907.461q12.231 1.385 28.077 2.269 15.847.885 28.462.885Zm257.846-120.154q33.23-41.615 55-98.615 21.769-57 21.769-115.846 0-21.615-2.192-43.346-2.193-21.731-7.193-42.346H569l168.846 300.153ZM480 576Zm0 379.999q-78.154 0-147.499-29.962-69.346-29.961-120.962-81.576-51.615-51.616-81.576-120.962Q100.001 654.154 100.001 576q0-78.769 29.962-147.807 29.961-69.038 81.576-120.654 51.616-51.615 120.962-81.576Q401.846 196.001 480 196.001q78.769 0 147.807 29.962 69.038 29.961 120.654 81.576 51.615 51.616 81.576 120.654Q859.999 497.231 859.999 576q0 78.154-29.962 147.499-29.961 69.346-81.576 120.962-51.616 51.615-120.654 81.576Q558.769 955.999 480 955.999Z"/></svg>