<svg xmlns="http://www.w3.org/2000/svg" width="48" height="48" viewBox="0 -960 960 960"><path d="M457.31-104.62v-120H170V-270h620v45.38H502.69v120h-45.38ZM346.8-499.76q8.2-8.3 8.2-19.96t-8.38-19.78q-8.37-8.11-20.15-8.11t-19.7 8.29q-7.92 8.3-7.92 19.96 0 11.67 8.09 19.78 8.1 8.12 19.88 8.12t19.98-8.3Zm306.54 0q8.2-8.3 8.2-19.96t-8.38-19.78q-8.37-8.11-20.15-8.11t-19.7 8.29q-7.93 8.3-7.93 19.96 0 11.67 8.1 19.78 8.1 8.12 19.88 8.12t19.98-8.3ZM220-597.54l62.92-182q3.85-11.3 13.04-18.19 9.19-6.88 20.5-6.88h327.08q11.31 0 20.5 6.88 9.19 6.89 13.04 18.19l62.92 182V-344q0 8.43-5.41 13.91-5.4 5.47-13.8 5.47h-6.97q-8.4 0-13.8-5.47-5.41-5.48-5.41-13.91v-66.31H265.39V-344q0 8.43-5.41 13.91-5.4 5.47-13.8 5.47h-6.97q-8.4 0-13.8-5.47Q220-335.57 220-344v-253.54Zm57.77-30.84h405.08l-44.47-130.85H321.62l-43.85 130.85ZM265.39-583v127.31V-583Zm0 127.31h429.22V-583H265.39v127.31Z"/></svg>