<svg xmlns="http://www.w3.org/2000/svg" width="48" height="48" viewBox="0 -960 960 960"><path d="M480-470ZM261.54-180q-37.69 0-67.89-22.54-30.19-22.54-46.8-56.62H20v-225.53q0-23.62 17.04-40.66 17.04-17.03 40.65-17.03h56.93l63.61-176.77q7.23-18.31 23.31-29.58t36-11.27h297.15q16.69 0 30.77 8.04 14.08 8.04 23.31 22.73l49.92 84.77-31 36.07-63.54-106.22H245.92L166.62-497H77.69q-5.38 0-8.84 3.65-3.46 3.66-3.46 8.66v180.15h119.53v4.77q0 30.62 22.35 52.5t54.88 21.88q31.93 0 54.08-21.88 22.16-21.88 22.16-52.5v-4.77h283.84v4.77q0 30.62 22.65 52.5 22.66 21.88 54.58 21.88 31.92 0 54.08-21.88 22.15-21.88 22.15-52.5v-4.77h119.54v-185.15q0-5-3.27-8.66-3.27-3.65-8.27-3.65l-171-14.92 36.85-42.54 132 10.69q23.61 2 41.04 20.92Q940-508.92 940-485.31v226.15H812.77q-16.23 34.7-46.42 56.93-30.2 22.23-67.7 22.23t-67.69-22.54q-30.19-22.54-46.81-56.62H375.46q-16.23 34.7-46.42 56.93Q298.85-180 261.54-180ZM400-399l23.38-23-40.84-41.46h224.92L843.38-739l-25-21.38-225.84 263.84h-210L423.38-538 400-561l-81 81 81 81Z"/></svg>