<svg xmlns="http://www.w3.org/2000/svg" width="48" height="48" viewBox="0 -960 960 960"><path d="M480.62-480Zm-380 213.31q34.68 0 59.26 25.41T184.46-180h-83.84v-86.69Zm0-147.69q96.72 0 164.12 68.65 67.41 68.65 67.41 165.73h-45.38q0-78.12-54.15-133.37-54.16-55.25-132-55.63v-45.38Zm0-155.39q80.46 0 150.81 30.76 70.36 30.75 122.89 83.64 52.54 52.88 82.88 124.03 30.34 71.16 30.34 151.34h-45.39q0-71.16-26.65-134-26.65-62.85-72.96-109.65-46.31-46.81-108.47-73.77-62.16-26.96-133.45-26.96v-45.39ZM802.92-180H589.85q0-11.16-.62-22.69-.62-11.54-1.85-22.7h215.54q5.39 0 8.85-3.46t3.46-8.84v-252.23Q828-495 839.04-501.08q11.04-6.07 21.57-13.61v277q0 23.59-16.9 40.64Q826.82-180 802.92-180Zm-702.3-492.08v-50.23q0-23.59 17.04-40.64Q134.71-780 158.31-780h330.92q-3.46 10.54-4.88 21.89-1.43 11.34-2.43 23.5H158.31q-5 0-8.66 3.46-3.65 3.46-3.65 8.84v52.7q-11.15-1.24-22.56-1.85-11.41-.62-22.82-.62Zm504.8 75.72q-50.8-50.21-50.8-122.27 0-71.48 50.83-122.19 50.83-50.72 121.88-50.72t121.86 50.58Q900-790.38 900-718.23q0 71.9-50.83 121.99-50.84 50.09-121.89 50.09t-121.86-50.21ZM727-614.85q8.92 0 15.04-5.61 6.11-5.62 6.11-14.85t-6.21-15.04q-6.22-5.8-14.44-5.8-9.42 0-15.23 5.8-5.81 5.81-5.81 15.04t5.81 14.85q5.81 5.61 14.73 5.61Zm-15.77-80.38h31.54v-127.61h-31.54v127.61Z"/></svg>