<svg xmlns="http://www.w3.org/2000/svg" width="48" height="48"><path d="M24 32.5q-3.55 0-6.025-2.475Q15.5 27.55 15.5 24q0-3.55 2.475-6.025Q20.45 15.5 24 15.5q3.55 0 6.025 2.475Q32.5 20.45 32.5 24q0 3.55-2.475 6.025Q27.55 32.5 24 32.5zm0-2.25q2.65 0 4.45-1.8 1.8-1.8 1.8-4.45 0-2.65-1.8-4.45-1.8-1.8-4.45-1.8-2.65 0-4.45 1.8-1.8 1.8-1.8 4.45 0 2.65 1.8 4.45 1.8 1.8 4.45 1.8zM9.9 41q-1.2 0-2.05-.85Q7 39.3 7 38.1v-7.8h2.25v7.8q0 .25.2.45t.45.2h7.8V41zm20.4 0v-2.25h7.8q.25 0 .45-.2t.2-.45v-7.8H41v7.8q0 1.2-.85 2.05-.85.85-2.05.85zM7 17.7V9.9q0-1.2.85-2.05Q8.7 7 9.9 7h7.8v2.25H9.9q-.25 0-.45.2t-.2.45v7.8zm31.75 0V9.9q0-.25-.2-.45t-.45-.2h-7.8V7h7.8q1.2 0 2.05.85.85.85.85 2.05v7.8zM24 24z"/></svg>