<svg xmlns="http://www.w3.org/2000/svg" width="48" height="48" viewBox="0 -960 960 960"><path d="M482.385-208.462 587.538-313 482.385-417.538 448.847-384l49.154 49.154q-37.231.616-68.539-9.961t-52.693-31.962q-21.154-21.154-32.039-48.308-10.884-27.154-10.884-54.308 0-17 4.115-34T349.692-546l-35.538-33.999Q299.846-556.922 293-531.583q-6.846 25.339-6.846 51.583 0 36.825 14.423 72.682 14.423 35.856 42.462 64.087 28.038 28.231 68.077 42.154 40.039 13.923 82.27 14.538L448.847-242l33.538 33.538Zm163.846-171.539q14.307-23.077 21.153-48.416 6.846-25.339 6.846-51.583 0-36.765-14.115-73.046-14.115-36.281-42.346-64.338-27.846-28.231-68.267-41.846-40.421-13.616-82.503-13.616L511.538-718 478-751.538 372.847-647 478-542.462 511.538-576l-49.77-49.77q36.616 0 68.847 10.885 32.231 10.885 53.114 31.797 20.883 20.913 31.846 48.1 10.964 27.186 10.964 54.373 0 17-4.115 34-4.116 17-11.731 32.615l35.538 33.999Zm-166.164 280q-78.221 0-147.397-29.92-69.176-29.92-120.989-81.71-51.814-51.791-81.747-120.936-29.933-69.146-29.933-147.366 0-78.836 29.92-148.204 29.92-69.369 81.71-120.682 51.791-51.314 120.936-81.247 69.146-29.933 147.366-29.933 78.836 0 148.204 29.92 69.369 29.92 120.682 81.21 51.314 51.291 81.247 120.629 29.933 69.337 29.933 148.173 0 78.221-29.92 147.397-29.92 69.176-81.21 120.989-51.291 51.814-120.629 81.747-69.337 29.933-148.173 29.933ZM480-145.385q139.692 0 237.154-97.769Q814.615-340.923 814.615-480q0-139.692-97.461-237.154Q619.692-814.615 480-814.615q-139.077 0-236.846 97.461Q145.385-619.692 145.385-480q0 139.077 97.769 236.846T480-145.385ZM480-480Z"/></svg>