<svg xmlns="http://www.w3.org/2000/svg" width="48" height="48" viewBox="0 -960 960 960"><path d="M480-480Zm204.5-204.57q-29.89-29.96-29.89-72.81t29.96-72.73Q714.53-860 757.38-860t72.73 29.96Q860-800.08 860-757.23t-29.96 72.73q-29.96 29.89-72.81 29.89t-72.73-29.96ZM331.86-129.92q-69.37-29.92-120.68-81.21-51.31-51.29-81.25-120.63Q100-401.1 100-479.93q0-78.84 29.93-148.21 29.92-69.37 81.22-120.68t120.65-81.25Q401.15-860 480-860q30.08 0 58.67 4.81 28.6 4.81 56.64 13.65-5.92 9.36-9.78 20.31-3.85 10.96-5.99 21.85-24.35-7.23-49.14-11.23t-50.4-4q-140.07 0-237.34 97.46-97.27 97.46-97.27 237.15t97.46 237.15q97.46 97.46 237.15 97.46t237.15-97.27q97.46-97.27 97.46-237.34 0-25.61-4-50.4t-11.23-49.14q10.89-2.14 21.8-6.18 10.91-4.04 20.36-9.59 8.84 28.04 13.65 56.64Q860-510.08 860-480q0 78.85-29.92 148.2t-81.21 120.65q-51.29 51.3-120.63 81.22Q558.9-100 480.07-100q-78.84 0-148.21-29.92ZM421-311.46l273.84-273.46q-12.76-3.85-23.69-9.85-10.93-6-21.46-14.08L421-380.15 302.54-498.61l-33.85 34.23L421-311.46Z"/></svg>