<svg xmlns="http://www.w3.org/2000/svg" width="48" height="48" viewBox="0 -960 960 960"><path d="M250-202.308 561.231-110l246.076-76.846q.77-21.923-13.384-34.269t-32.846-12.346H560.155q-17.924 0-35.924-2.308t-35.692-8.462L396-272.461l15.539-46.384 90.538 32q13.308 5.154 28.846 6.769 15.539 1.616 34.617 1.231h40.999q0-22.154-12.462-36.885-12.461-14.73-30.923-21.961l-220.308-83-2.307-.577q-.77-.192-1.924-.192H250v219.152ZM68.079-100.001v-366.843h269.152q5 0 10.115 1t10.115 2.615l220.693 82.385q31.076 11.308 53.345 37.692t22.269 64.307h107.309q44.077 0 71.499 30.846 27.423 30.845 27.423 72.999v22.153l-294.538 90.23L250-154.308V-100H68.079Zm45.384-45.384h90.153V-421.46h-90.153v276.075ZM590-456.768l-45.384-16.846v-44.077q0-57.462-39.923-97.578-39.923-40.115-97.385-40.115-51.385 0-88.5 32.154-37.116 32.154-47.731 81h-46.23q9.231-60.23 52.077-102.923 42.846-42.692 107.692-54.769v-114.693h-60v-45.384h202.692q24.538 0 48.154 6.462 23.615 6.461 44.307 19.384l-33.999 33.615q-13.231-6.846-28.039-10.462-14.807-3.615-30.423-3.615H430v114.693q71.308 11.692 115.654 63.615Q590-584.384 590-518.076v61.308Zm-182.692-60.308Zm348.383-68.078q-26.538 0-45.23-18.692-18.692-18.692-18.692-45.615 0-34.692 20.346-66.192 20.346-31.499 43.576-64.346 23.616 32.847 43.962 64.154 20.346 31.308 20.346 66.384 0 26.923-18.693 45.615-18.692 18.692-45.615 18.692Z"/></svg>