<svg xmlns="http://www.w3.org/2000/svg" width="48" height="48" viewBox="0 0 48 48"><path d="m34.2 17.95-1.1-2.5-2.45-1.1 2.45-1.1 1.1-2.45 1.15 2.45 2.4 1.1-2.4 1.1Zm5.6 8.9q-1.35 0-2.275-.925Q36.6 25 36.6 23.65q0-1.9 1.05-3.45 1.05-1.55 2.15-3.1 1.05 1.55 2.125 3.1T43 23.65q0 1.35-.95 2.275-.95.925-2.25.925ZM29.15 25.1 17.9 20.8h-7q.45-3.1 2.675-5.2 2.225-2.1 5.275-2.7V7.15h-3v-2.3H26q1.25 0 2.4.325t2.2.975l-1.7 1.7q-.65-.35-1.375-.525Q26.8 7.15 26 7.15h-4.85v5.75q3.4.55 5.7 3.125 2.3 2.575 2.3 5.975ZM27.9 43.5l-15.75-4.55V24.2h4.9l12.5 4.65q1.3.5 2.025 1.725.725 1.225.725 2.625h-2.4q-1.55 0-3.05-.075-1.5-.075-2.95-.625l-3.65-1.25-.5 1.35 3.9 1.35q1.25.4 2.6.525T29 34.6h9.6q1.55 0 2.8 1.025 1.25 1.025 1.25 2.575v.75ZM3.05 41.65V24.2H9.8v17.45Z"/></svg>