<svg xmlns="http://www.w3.org/2000/svg" width="48" height="48" viewBox="0 -960 960 960"><path d="M480-111.695q-72.076 0-123.191-51.115-51.115-51.115-51.115-122.94 0-71.825 51.115-122.999Q407.924-459.923 480-459.923t123.191 51.174q51.115 51.174 51.115 122.999 0 71.825-51.115 122.94Q552.076-111.695 480-111.695Zm0-45.383q53.461 0 91.192-37.491 37.731-37.49 37.731-91.047 0-53.718-37.731-91.321-37.731-37.602-91.192-37.602-53.461 0-91.192 37.549-37.731 37.55-37.731 91.193 0 53.642 37.731 91.18 37.731 37.539 91.192 37.539ZM268.385-501.001 109.233-660.922q76.769-66.307 172.06-106.538Q376.585-807.69 480-807.69q103.415 0 198.707 40.23 95.291 40.231 172.06 106.538L691.615-501.001Q647-538.924 593.733-560.616 540.467-582.308 480-582.308q-60.307 0-113.846 21.692-53.538 21.692-97.769 59.615Zm3-61.614q48.692-31.615 100.792-48.346 52.101-16.73 107.885-16.73 55.784 0 108.438 15.615t100.115 49.077l94.692-94.692q-65.231-49.077-143.23-76.846-78-27.769-160.077-27.769t-159.769 27.769q-77.692 27.769-143.538 76.846l94.692 95.076ZM480-627.691Zm0 342.075Z"/></svg>