<svg xmlns="http://www.w3.org/2000/svg" width="48" height="48" viewBox="0 96 960 960"><path d="M479.762 798.692q93.161 0 158.045-65.147 64.885-65.147 64.885-157.307 0-93.161-64.855-158.045-64.856-64.885-157.792-64.885-92.352 0-157.545 64.855-65.192 64.856-65.192 157.792 0 92.352 65.147 157.545 65.147 65.192 157.307 65.192Zm-.029-45.384q-72.81 0-124.926-52.169-52.115-52.168-52.115-125.214 0-73.618 52.169-125.425 52.168-51.808 125.214-51.808 73.618 0 125.425 51.883 51.808 51.882 51.808 125.692 0 72.81-51.883 124.926-51.882 52.115-125.692 52.115ZM464.055 592q7.132 7.076 16 7.076T496 592l56-56q7.076-7.147 7.076-16.035T551.945 504q-7.132-7.076-16-7.076T520 504l-56 56q-7.076 7.147-7.076 16.035T464.055 592ZM197.694 915.999q-23.529 0-40.611-17.082-17.082-17.082-17.082-40.611V293.694q0-23.529 17.082-40.611 17.082-17.082 40.611-17.082h564.612q23.529 0 40.611 17.082 17.082 17.082 17.082 40.611v564.612q0 23.529-17.082 40.611-17.082 17.082-40.611 17.082H197.694Z"/></svg>