<svg xmlns="http://www.w3.org/2000/svg" width="48" height="48" viewBox="0 -960 960 960"><path d="M480.308-257.308q92.615 0 157.499-65.192 64.885-65.193 64.885-157.808t-64.984-157.499Q572.724-702.692 480-702.692q-92.307 0-157.5 64.984Q257.308-572.724 257.308-480q0 92.307 65.192 157.5 65.193 65.192 157.808 65.192Zm0-45.384q-73.385 0-125.501-52.031Q302.692-406.755 302.692-480q0-73.693 52.031-125.5Q406.755-657.308 480-657.308q73.693 0 125.5 51.808 51.808 51.807 51.808 125.192 0 73.385-51.808 125.501-51.807 52.115-125.192 52.115ZM464-464q7.077 7.076 16 7.076T496-464l56-56q7.076-7.077 7.076-16T552-552q-7.077-7.076-16-7.076T520-552l-56 56q-7.076 7.077-7.076 16T464-464ZM197.694-140.001q-23.529 0-40.611-17.082-17.082-17.082-17.082-40.611v-564.612q0-23.529 17.082-40.611 17.082-17.082 40.611-17.082h564.612q23.529 0 40.611 17.082 17.082 17.082 17.082 40.611v564.612q0 23.529-17.082 40.611-17.082 17.082-40.611 17.082H197.694Zm0-45.384h564.612q4.616 0 8.463-3.846 3.846-3.847 3.846-8.463v-564.612q0-4.616-3.846-8.463-3.847-3.846-8.463-3.846H197.694q-4.616 0-8.463 3.846-3.846 3.847-3.846 8.463v564.612q0 4.616 3.846 8.463 3.847 3.846 8.463 3.846Zm-12.309-589.23v589.23-589.23Z"/></svg>