<svg xmlns="http://www.w3.org/2000/svg" width="48" height="48"><path d="M9.9 41q-1.25 0-2.075-.825Q7 39.35 7 38.1V9.55q0-1.25.825-2.075Q8.65 6.65 9.9 6.65h10q-.05-1.7 1.125-2.975Q22.2 2.4 24 2.4t2.975 1.275Q28.15 4.95 28.1 6.65h10q1.25 0 2.075.825Q41 8.3 41 9.55V38.1q0 1.25-.825 2.075Q39.35 41 38.1 41zm0-2.25h28.2q.25 0 .45-.2t.2-.45V9.55q0-.25-.2-.425t-.45-.175h-3.65v4.1h-20.9v-4.1H9.9q-.25 0-.45.175t-.2.425V38.1q0 .25.2.45t.45.2zM24 9.05q.85 0 1.525-.65.675-.65.675-1.5 0-.9-.675-1.55T24 4.7q-.9 0-1.525.65-.625.65-.625 1.55 0 .85.625 1.5T24 9.05z"/></svg>