<svg xmlns="http://www.w3.org/2000/svg" width="48" height="48" viewBox="0 -960 960 960"><path d="M140.001-256.155v-49.999h50v49.999h-50Zm0-156.154v-49.999h50v49.999h-50Zm0-156.153v-49.999h50v49.999h-50Zm156.154 468.461v-50h49.999v50h-49.999Zm55.384-153.846q-23.529 0-40.61-17.082-17.082-17.081-17.082-40.61v-490.767q0-23.529 17.082-40.611 17.081-17.082 40.61-17.082h370.767q23.529 0 40.611 17.082 17.082 17.082 17.082 40.611v490.767q0 23.529-17.082 40.61-17.082 17.082-40.611 17.082H351.539Zm100.77 153.846v-50h49.999v50h-49.999Zm-262.308 0q-20.327 0-35.163-14.837-14.837-14.836-14.837-35.163h50v50Zm418.461 0v-50h49.999q0 20.769-14.836 35.384-14.836 14.616-35.163 14.616ZM140.001-724.616q0-20.326 14.837-35.163 14.836-14.836 35.163-14.836v49.999h-50Z"/></svg>