<svg xmlns="http://www.w3.org/2000/svg" width="48" height="48" viewBox="0 96 960 960"><path d="M180.001 915.999V526.538l-83.615 64-27.153-36.076L180 470.001V362.54h45.384v72.231L480 241.002l410.767 314.075-27.153 35.461-83.615-64v389.461H520.385v-220.77h-80.77v220.77H180.001Zm0-604.613q0-40.231 27.308-68.384 27.307-28.154 69.999-28.154 24.462 0 38.193-15.192 13.73-15.192 13.73-35.962h45.384q0 39.615-26.807 68.077-26.808 28.461-70.5 28.461-23.846 0-37.885 14.884-14.038 14.885-14.038 36.27h-45.384Z"/></svg>