<svg xmlns="http://www.w3.org/2000/svg" width="48" height="48" viewBox="0 -960 960 960"><path d="M417.614-180.001h-259.92q-23.616 0-40.654-17.039-17.039-17.038-17.039-40.654v-484.612q0-23.616 17.039-40.654 17.038-17.039 40.654-17.039h644.612q23.616 0 40.654 17.039 17.039 17.038 17.039 40.654v210.921h-34.308L591.846-277.54 468.307-401.463 332.23-265.386l85.384 85.385Zm174.232 70.768L435.693-265.386 468.307-298l123.539 123.538 236.923-236.923 31.999 33.23-268.922 268.922ZM145.385-623.845v112.46h669.23v-112.46h-669.23Z"/></svg>