<svg xmlns="http://www.w3.org/2000/svg" width="48" height="48" viewBox="0 -960 960 960"><path d="M197.694-140.001q-23.846 0-40.77-16.923-16.923-16.924-16.923-40.77v-564.612q0-23.846 16.923-40.77 16.924-16.923 40.77-16.923h564.612q23.846 0 40.77 16.923 16.923 16.924 16.923 40.77v564.612q0 23.846-16.923 40.77-16.924 16.923-40.77 16.923H197.694Zm426.383-45.384h57.153l93.385-93.385v-26.615h-30.538l-120 120ZM287.924-409.77l135.615-134.615 87.307 87.307 192.845-194.229-31.23-31.615-161.615 161.615-87.307-87.308-167.23 167.23 31.615 31.615Zm-95.231 224.385h20.922l120-120h-57.152l-91.078 91.078q1.154 9.076 2.5 15.038 1.346 5.961 4.808 13.884Zm332.537 0 120-120h-57.153l-120 120h57.153Zm-156.384 0 120-120h-57.153l-120 120h57.153Z"/></svg>