<svg xmlns="http://www.w3.org/2000/svg" width="48" height="48" viewBox="0 -960 960 960"><path d="M480-100.001q-78.154 0-147.307-29.962-69.154-29.961-120.961-81.269-51.808-51.307-81.769-120.653-29.962-69.346-29.962-147.5 0-147.614 98.615-256.037 98.615-108.423 249.307-121.961v71.613q-120.385 12.923-198.347 100.885-77.961 87.962-77.961 205.5 0 128.231 90.077 218.001Q351.769-171.615 480-171.615q75.077 0 141.577-34.038 66.501-34.039 110.731-93.039l61.46 36.768q-56.077 77.231-137.807 119.577Q574.23-100.001 480-100.001Zm345.46-221.308-61.459-34.383q11.615-28.692 18-60.346 6.384-31.654 6.384-63.962 0-118.693-78.615-206.77-78.616-88.077-196.462-99.615v-71.614q146.999 11 246.845 119.5t99.846 255.653q0 42.307-8.731 82.73t-25.808 78.807Z"/></svg>