<svg xmlns="http://www.w3.org/2000/svg" width="48" height="48" viewBox="0 -960 960 960"><path d="m718.61-114.39-32-31.61 80.31-81.31h-287.3v-45.38h287.3L686.61-354l32-31.62L854.23-250 718.61-114.39ZM125-443.46v-79.23h79.23v79.23H125Zm178.12-36.61q-36.58-36.61-36.58-88.39v-160q0-51.79 36.62-88.39 36.62-36.61 88.42-36.61 51.81 0 88.38 36.61 36.58 36.6 36.58 88.39v160q0 51.78-36.62 88.39t-88.42 36.61q-51.81 0-88.38-36.61Zm337.69 0q-36.58-36.61-36.58-88.39v-160q0-51.79 36.62-88.39 36.62-36.61 88.42-36.61 51.81 0 88.38 36.61 36.58 36.6 36.58 88.39v160q0 51.78-36.62 88.39t-88.42 36.61q-51.81 0-88.38-36.61Zm-192.96-31.84q23.3-23.06 23.3-56.55v-160q0-33.49-23.07-56.56-23.07-23.06-56.31-23.06-33.23 0-56.54 23.06-23.31 23.07-23.31 56.56v160q0 33.49 23.08 56.55 23.07 23.06 56.3 23.06 33.24 0 56.55-23.06Zm337.69 0q23.31-23.06 23.31-56.55v-160q0-33.49-23.08-56.56-23.07-23.06-56.3-23.06-33.24 0-56.55 23.06-23.31 23.07-23.31 56.56v160q0 33.49 23.08 56.55 23.07 23.06 56.3 23.06 33.24 0 56.55-23.06Z"/></svg>