<svg xmlns="http://www.w3.org/2000/svg" width="48" height="48" viewBox="0 -960 960 960"><path d="M729.448-229.769q27.321 0 46.244-18.946t18.923-46.154q0-27.208-18.939-45.823-18.939-18.615-46.138-18.615-26.615 0-45.538 19.024-18.923 19.025-18.923 45.346 0 27.322 18.525 46.245 18.524 18.923 45.846 18.923Zm.126 129.538q32.195 0 60.233-15.115 28.039-15.116 46.039-41.347-25.231-14-51.571-22.115-26.34-8.115-54.654-8.115-28.314 0-54.929 8.115-26.615 8.115-51.461 22.115 17.544 26.275 45.846 41.368 28.302 15.094 60.497 15.094Zm.149 41.922q-71.276 0-121.268-50.572-49.992-50.571-49.992-119.96 0-71.389 49.992-121.697 49.992-50.307 121.268-50.307 70.276 0 120.584 50.307 50.307 50.308 50.307 121.697 0 69.389-50.307 119.96-50.308 50.572-120.584 50.572ZM290.001-620h379.998v-45.384H290.001V-620Zm205.383 479.999h-297.69q-23.75 0-40.721-16.972-16.972-16.971-16.972-40.721v-564.612q0-23.75 16.972-40.721 16.971-16.972 40.721-16.972h564.612q23.75 0 40.721 16.972 16.972 16.971 16.972 40.721v297.459q-21.539-9.154-44.308-13.807-22.769-4.654-46.153-4.654-17.664 0-34.649 2.718-16.986 2.718-33.352 7.128v-29.23H290.001v45.384h326.691q-37.539 19.538-66.423 49.769-28.885 30.231-46.885 67.539H290.001v45.384h195.614q-3.769 15.692-5.846 31.577-2.077 15.885-2.077 32.577 0 22.461 4.077 46.153 4.076 23.693 13.615 44.308Z"/></svg>