<svg xmlns="http://www.w3.org/2000/svg" width="48" height="48" viewBox="0 -960 960 960"><path d="M687-173.309q8.923 0 15.038-5.615 6.116-5.616 6.116-14.846 0-9.231-6.216-15.039-6.215-5.807-14.438-5.807-9.423 0-15.231 5.807-5.808 5.808-5.808 15.039 0 9.23 5.808 14.846 5.808 5.615 14.731 5.615Zm-15.769-80.384h31.538v-127.614h-31.538v127.614ZM451.154-852.691q13.943-7.615 29.01-7.615 15.067 0 28.682 7.615l282.306 163q13.866 8.04 21.356 21.483 7.491 13.442 7.491 28.593v129.999q-28.923-16.769-62.456-26.269t-70.194-9.5q-16.4 0-32.355 2.192-15.956 2.193-30.533 5.577L774.615-625v-17.307q0-1.923-1.346-3.847-1.347-1.923-4.424-3.846l-20.537-11.692L480-505.538 211.077-661.692l-19.922 11.532q-3.077 1.924-4.424 3.847-1.346 1.923-1.346 3.846v18.082l271.923 157.154v54.23q-18.221 29.658-28.149 63.889t-9.928 72.034q0 50.231 17.23 94 17.231 43.769 47.846 78.845-8.538 2.847-17.269 1.731-8.731-1.115-16.653-5.192L168.848-270.309q-13.866-8.04-21.356-21.483-7.491-13.442-7.491-28.593v-319.23q0-15.151 7.491-28.593 7.49-13.443 21.356-21.483l282.306-163Zm236.128 748.074q-71.051 0-121.858-50.207-50.808-50.206-50.808-122.268 0-71.481 50.834-122.194 50.833-50.713 121.883-50.713 71.051 0 121.858 50.58 50.808 50.581 50.808 122.726 0 71.896-50.834 121.986-50.833 50.09-121.883 50.09Z"/></svg>