<svg xmlns="http://www.w3.org/2000/svg" width="48" height="48" viewBox="0 -960 960 960"><path d="M745.615-200.775v-119.148H709v130.398l93.23 87.37 23.923-23.817-80.538-74.803ZM473.846-813.384 211.077-661.692 480-505.538l268.308-156.154-262.154-151.692q-3.077-1.538-6.154-1.538t-6.154 1.538ZM140.001-320.385v-319.23q0-15.151 7.443-28.511 7.442-13.361 21.404-21.565l282.306-163q7.615-4.615 14.299-6.115 6.684-1.5 14.423-1.5t15.047 1.5q7.308 1.5 13.923 6.115l282.306 163q13.962 8.204 21.404 21.565 7.443 13.36 7.443 28.511v185.768h-45.384V-625l-294 171.538-295.23-170.923v304.384q0 3.077 1.539 5.77 1.538 2.692 4.615 4.616l290 167.615v51.691l-312.691-180q-13.962-8.204-21.404-21.565-7.443-13.36-7.443-28.511ZM727.282-25.002q-71.051 0-121.858-50.206-50.808-50.207-50.808-122.269 0-71.481 50.834-122.194 50.833-50.713 121.883-50.713 71.051 0 121.858 50.581 50.808 50.58 50.808 122.725 0 71.897-50.834 121.986-50.833 50.09-121.883 50.09ZM480-476.846Z"/></svg>