<svg xmlns="http://www.w3.org/2000/svg" width="48" height="48" viewBox="0 0 48 48"><path d="M5 41V23.9q0-1.2.85-2.05Q6.7 21 7.9 21h10.6v3q0 2.3 1.6 3.9t3.9 1.6q2.3 0 3.9-1.6t1.6-3.9v-3h10.6q1.2 0 2.05.85.85.85.85 2.05V41Zm19-16.25q-.5 0-.825-.3-.325-.3-.325-.8 0-5.3 1.225-10.35t5.175-8.5q.35-.3.825-.25.475.05.775.4.25.35.25.8 0 .45-.4.75-3.65 3.05-4.6 7.7-.95 4.65-.95 9.45 0 .5-.325.8-.325.3-.825.3ZM11.5 30.9q.6 0 1-.4t.4-1q0-.6-.4-1t-1-.4q-.6 0-1 .4t-.4 1q0 .6.4 1t1 .4Zm2 5q.6 0 1-.4t.4-1q0-.6-.4-1t-1-.4q-.6 0-1 .4t-.4 1q0 .6.4 1t1 .4Zm23-5q.6 0 1-.4t.4-1q0-.6-.4-1t-1-.4q-.6 0-1 .4t-.4 1q0 .6.4 1t1 .4Z"/></svg>