<svg xmlns="http://www.w3.org/2000/svg" width="48" height="48" viewBox="0 -960 960 960"><path d="M786.768-295.002 658.46-423.925V-535.23H547.155l-41.001-40.385H658.46v-118.229H490.693v103.152l-33.847-34.462v-68.69h-68.69l-126.77-126.155h465.536q23 0 40.346 17.347 17.346 17.346 17.346 40.346v68.462h56.154v45.383h-56.154v131.154h56.154v45.383h-56.154v131.539h56.154v45.383h-54Zm-555.997 28.846h221.075v-169.998H230.771v169.998Zm-62.616-554.227L784.23-204.309q-2 25.693-17.616 45-15.615 19.308-39.692 19.308H169.617q-23.616 0-40.654-17.039-17.038-17.038-17.038-40.654v-564.612q0-22.462 15.884-38.577 15.885-16.116 40.346-19.5Zm322.538 322.538v231.689H658.46v-63.922L490.693-497.845ZM294.694-693.844h-63.923v217.305h221.075v-60.153L294.694-693.844ZM856.308-67.385l-791.23-791.23 32.23-32.615L888.924-100l-32.615 32.615Z"/></svg>