<svg xmlns="http://www.w3.org/2000/svg" width="48" height="48" viewBox="0 0 48 48"><path d="M14.3 39H7.9q-1.2 0-2.05-.85Q5 37.3 5 36.1V11.9q0-1.2.85-2.05Q6.7 9 7.9 9H40v2.25H7.9q-.3 0-.475.175t-.175.475v24.2q0 .3.175.475t.475.175h6.4Zm5.5 0v-3.05q-.9-.75-1.45-1.775Q17.8 33.15 17.8 32q0-1.2.55-2.225Q18.9 28.75 19.8 28v-3.05h6.05V28q.9.75 1.45 1.775.55 1.025.55 2.225 0 1.15-.55 2.175t-1.45 1.775V39Zm3-3.65q1.4 0 2.4-.975t1-2.375q0-1.4-.975-2.4t-2.375-1q-1.4 0-2.4.975t-1 2.375q0 1.4.975 2.4t2.375 1ZM41.6 39h-8.85q-.6 0-1-.425t-.4-.975V20.75q0-.6.4-1t1-.4h8.85q.6 0 1 .4t.4 1V37.6q0 .55-.4.975-.4.425-1 .425Zm-8-2.25h7.15V21.6H33.6Z"/></svg>