<svg xmlns="http://www.w3.org/2000/svg" width="48" height="48" viewBox="0 -960 960 960"><path d="M157.69-180q-23.53 0-40.61-17.08T100-237.69v-484.62q0-23.53 17.08-40.61T157.69-780h648.46q23.38 0 40.15 16.16 16.78 16.15 17.54 39.46v6.53q-10.61-4.23-21.22-6.65-10.6-2.42-21.72-2.42H620.23q-45.08 0-78.69 31.5-33.62 31.5-37.08 75.04v81.92H324.15L297-441.77q-21.36 23.83-33.87 54.04-12.51 30.2-12.51 65 0 34.81 12.5 65.08Q275.62-227.39 297-204l6.69 24h-146Zm462.54 0q-17.36 0-30.41-13.05t-13.05-30.41v-387.31q0-17.2 13.05-30.14 13.05-12.93 30.41-12.93h200.54q17.2 0 30.14 12.93 12.93 12.94 12.93 30.14v387.31q0 17.36-12.93 30.41Q837.97-180 820.77-180H620.23Zm-240.07 0-18.24-62.92q-17.41-13.88-27.82-34.62-10.41-20.73-10.41-45.17t10.41-45.16q10.41-20.72 27.82-34.59l18.24-62.93H473l18.23 62.93q17.23 13.87 27.54 34.61 10.31 20.73 10.31 45.18 0 24.44-10.31 45.15-10.31 20.72-27.54 34.6L473-180h-92.84Zm46.23-73.08q30.84 0 50.23-20.38Q496-293.84 496-322.67q0-28.83-20.73-49.23-20.73-20.41-48.69-20.41-27.96 0-48.89 19.89-20.92 19.9-20.92 49.74 0 29.83 19.89 49.72 19.9 19.88 49.73 19.88Zm294.15-250.76q11.69 0 20.11-8.52 8.43-8.52 8.43-19.87 0-11.31-8.42-19.92-8.42-8.62-20.21-8.62-11.07 0-19.68 8.61-8.62 8.61-8.62 20.02 0 11.45 8.71 19.87 8.71 8.43 19.68 8.43Z"/></svg>