<svg xmlns="http://www.w3.org/2000/svg" width="48" height="48" viewBox="0 -960 960 960"><path d="M195.384-222.848v60.155q0 9.644-6.524 16.168-6.523 6.524-16.167 6.524h-10q-9.644 0-16.168-6.524-6.524-6.524-6.524-16.168v-309.768l82.308-244.846q3.846-10.538 12.923-16.615 9.077-6.077 20.461-6.077h450.153q11.215 0 19.628 5.991 8.412 5.99 12.217 16.701l82.308 244.846v309.768q0 9.644-6.524 16.168-6.524 6.524-16.168 6.524h-10.615q-10.057 0-16.067-6.524-6.009-6.524-6.009-16.168v-60.155H195.384ZM203-517.845h554l-60-176.77H263l-60 176.77Zm-17.615 45.384v204.23-204.23Zm102.71 150.768q20.52 0 34.289-14.109 13.77-14.11 13.77-34.019 0-20.743-14.11-34.961T288.149-419q-20.618 0-34.96 14.24-14.342 14.24-14.342 34.884 0 20.645 14.364 34.414 14.364 13.769 34.884 13.769Zm384.642 0q20.505 0 34.768-14.109 14.264-14.11 14.264-34.019 0-20.743-14.285-34.961T672.792-419q-20.407 0-34.369 14.24-13.961 14.24-13.961 34.884 0 20.645 14.302 34.414 14.302 13.769 33.973 13.769Zm-487.352 53.462h589.23v-204.23h-589.23v204.23Z"/></svg>