<svg xmlns="http://www.w3.org/2000/svg" width="48" height="48" viewBox="0 96 960 960"><path d="m291.463 1006 117.923-587.155L293 468v130.307h-45.999V437.231l182.384-76.769q13.615-6 27.769-7.692 14.154-1.692 27.615.923 14.692 2.615 25.846 9.846T529.384 382l35.077 55.615q33.692 53 80.385 82.808 46.692 29.808 100.076 32.116v45.383q-68.461-4.307-121.192-35.885-52.73-31.577-93.807-93.654l-40.308 174.31 90.846 87.615V1006h-45.383V773.307L419.769 664.922 338.077 1006h-46.614ZM540 299.692q-28.461 0-48.615-20.154-20.154-20.153-20.154-48.615 0-28.461 20.154-48.615 20.154-20.154 48.615-20.154 28.461 0 48.615 20.154 20.154 20.154 20.154 48.615 0 28.462-20.154 48.615-20.154 20.154-48.615 20.154Z"/></svg>