<svg xmlns="http://www.w3.org/2000/svg" width="48" height="48" viewBox="0 -960 960 960"><path d="M456.921-102.694q-76.153-3.846-141.46-34.154-65.307-30.308-113.345-80.846-48.038-50.538-75.076-117.769-27.039-67.23-27.039-144.537 0-79.769 29.154-149.115t80.461-120.653q51.308-51.308 120.654-80.769 69.346-29.462 149.73-29.462 79.769 0 149.115 29.462 69.346 29.461 120.653 80.769 51.308 51.307 80.769 120.653Q859.999-559.769 859.999-480q0 6.077-.308 12.346t-1.308 12.346q-9.538-6.077-21.384-12.577t-22.384-11.346q.385-141.923-96.154-238.653Q621.923-814.615 480-814.615q-67.154 0-124.154 22.846-57 22.847-98.615 60.231L526-463.154q-9.923 4.847-19.038 10.308-9.116 5.461-18.423 11.153L227.462-702.769q-37.384 41.461-59.731 99.423Q145.385-545.385 145.385-480q0 120.769 71.808 209.961Q289-180.847 401-154.539q11.538 12.769 26.73 27.153 15.192 14.385 29.191 24.692ZM680-145.385q62.461 0 117.731-30.961Q853-207.308 887.461-260q-34.461-52.692-89.73-83.654-55.27-30.961-117.731-30.961-62.461 0-117.731 30.961Q507-312.692 472.539-260q34.461 52.692 89.73 83.654 55.27 30.961 117.731 30.961Zm0 45.384q-86.769 0-156.114-44.731Q454.54-189.462 422.309-260q32.231-70.538 101.577-115.268Q593.231-419.999 680-419.999t156.114 44.731Q905.46-330.538 937.691-260q-32.231 70.538-101.577 115.268Q766.769-100.001 680-100.001Zm0-103.845q-23.077 0-39.615-16.539-16.539-16.538-16.539-39.615 0-23.461 16.539-39.807 16.538-16.347 39.615-16.347 23.461 0 39.807 16.347 16.347 16.346 16.347 39.807 0 23.077-16.347 39.615-16.346 16.539-39.807 16.539Z"/></svg>