<svg xmlns="http://www.w3.org/2000/svg" width="48" height="48" viewBox="0 -960 960 960"><path d="M310.001-383.463h33.076v-125.383h-33.076v46.153h-60v33.077h60v46.153Zm87.691-46.153h312.307v-33.077H397.692v33.077Zm219.231-101.538h33.076v-46.153h60v-33.077h-60v-46.153h-33.076v125.383Zm-366.922-46.153h312.307v-33.077H250.001v33.077Zm97.308 437.306v-80H157.694q-23.529 0-40.611-17.082-17.082-17.082-17.082-40.611v-484.612q0-23.529 17.082-40.611 17.082-17.082 40.611-17.082h644.612q23.529 0 40.611 17.082 17.082 17.082 17.082 40.611v484.612q0 23.529-17.082 40.611-17.082 17.082-40.611 17.082H612.691v80H347.309ZM157.694-265.385h644.612q4.616 0 8.463-3.846 3.846-3.847 3.846-8.463v-484.612q0-4.616-3.846-8.463-3.847-3.846-8.463-3.846H157.694q-4.616 0-8.463 3.846-3.846 3.847-3.846 8.463v484.612q0 4.616 3.846 8.463 3.847 3.846 8.463 3.846Zm-12.309 0v-509.23 509.23Z"/></svg>