<svg xmlns="http://www.w3.org/2000/svg" width="48" height="48" viewBox="0 96 960 960"><path d="M290.367 360.54q-17.828 0-30.213 12.48-12.384 12.479-12.384 30.307t12.48 30.212q12.479 12.385 30.307 12.385t30.212-12.48q12.385-12.479 12.385-30.307t-12.48-30.213q-12.479-12.384-30.307-12.384Zm0 385.536q-17.828 0-30.213 12.48-12.384 12.479-12.384 30.307t12.48 30.213q12.479 12.384 30.307 12.384t30.212-12.48q12.385-12.479 12.385-30.307t-12.48-30.212q-12.479-12.385-30.307-12.385ZM170.924 248.925H788.53q13.969 0 22.719 8.723 8.75 8.722 8.75 23.417v238.396q0 17.041-8.75 27.867t-22.719 10.826H170.924q-13.423 0-22.173-10.826-8.75-10.826-8.75-27.867V281.065q0-14.695 8.75-23.417 8.75-8.723 22.173-8.723Zm0 384.921H784.46q14.231 0 24.885 11.505 10.654 11.505 10.654 26.061v233.201q0 18.846-10.654 28.962-10.654 10.115-24.885 10.115H175.54q-15.231 0-25.385-10.115-10.154-10.116-10.154-28.962V671.412q0-14.556 8.347-26.061 8.346-11.505 22.576-11.505Z"/></svg>