<svg xmlns="http://www.w3.org/2000/svg" width="48" height="48" viewBox="0 96 960 960"><path d="M709.538 721.999 677.539 690l184.306-183.922 31.615 32-183.922 183.921Zm-65.769-65L388.233 401.078l183.921-183.921 255.921 255.536-184.306 184.306Zm181.848 338.385L564.539 734.306 434.001 864.46H67.695V763.307q0-19.538 11.077-34.153 11.077-14.615 27.999-21.846 21.232-8.693 48.078-22.654 26.846-13.962 54.461-37.347l39.692 39.692q4.616 4.616 11.385 4.616t11.769-5q5-5 5.192-11.577.193-6.577-4.807-11.577L236.464 626q6.846-5.846 14.923-14.116 8.077-8.269 15.923-17.345L303.771 631q5.385 5.384 11.769 5 6.385-.385 11.385-5.77 4.385-4.384 4.692-11.461.308-7.077-4.692-12.077l-40-40.385q8.231-8.692 15.193-19.191 6.961-10.5 9.961-18.962l45.076 46.307q5 5 11.577 5.193 6.577.192 11.577-4.808t5.193-11.692q.192-6.693-4.962-11.847L69.078 239.845l31.999-32.614 756.154 756.154-31.614 31.999Z"/></svg>