<svg xmlns="http://www.w3.org/2000/svg" width="48" height="48" viewBox="0 -960 960 960"><path d="M277.69-100q-23.53 0-40.61-17.08T220-157.69v-644.62q0-23.53 17.08-40.61T277.69-860h250.54q11.74 0 22.61 4.26 10.88 4.26 18.85 12.36l153.46 154.77q7.62 8 12.23 18.31 4.62 10.32 4.62 22.38v490.23q0 23.53-17.08 40.61T682.31-100H277.69Zm179.62-714.61H277.69q-5.38 0-8.84 3.65t-3.46 8.65v644.62q0 5.38 3.46 8.84t8.84 3.46h404.62q5 0 8.65-3.46 3.65-3.46 3.65-8.84v-418.39H558.77q-42.47 0-71.97-30.05-29.49-30.06-29.49-72.95v-135.53Zm45.38 0v135.53q0 24.13 15.97 40.88 15.98 16.74 40.11 16.74h135.84v-31.08L533.62-814.61h-30.93ZM388.46-236.85q-9.66 0-16.18-6.56-6.51-6.57-6.51-16.31 0-9.74 6.51-16.13 6.52-6.38 16.18-6.38h103.92q9.67 0 16.18 6.57 6.52 6.56 6.52 16.3 0 9.74-6.52 16.13-6.51 6.38-16.18 6.38H388.46Zm0-141.15q-9.66 0-16.18-6.57-6.51-6.56-6.51-16.3 0-9.75 6.51-16.13 6.52-6.38 16.18-6.38h182.69q9.67 0 16.18 6.56 6.51 6.57 6.51 16.31 0 9.74-6.51 16.12-6.51 6.39-16.18 6.39H388.46Z"/></svg>