<svg xmlns="http://www.w3.org/2000/svg" width="48" height="48" viewBox="0 96 960 960"><path d="M90 307.538V146.001h161.923v45.383H135.384v116.154H90.001Zm734.616 0V191.384H708.462v-45.383h161.537v161.537h-45.383ZM90.001 1006V844.077h45.383v116.539h116.539V1006H90.001Zm618.461 0v-45.384h116.154V844.077h45.383V1006H708.462ZM255.384 828.307q0 4.616 3.847 8.462 3.846 3.847 8.462 3.847h424.614q4.616 0 8.462-3.847 3.847-3.846 3.847-8.462V323.693q0-4.616-3.847-8.462-3.846-3.847-8.462-3.847H267.693q-4.616 0-8.462 3.847-3.847 3.846-3.847 8.462v504.614Zm12.309 57.692q-23.529 0-40.611-17.081-17.081-17.082-17.081-40.611V323.693q0-23.529 17.081-40.611 17.082-17.081 40.611-17.081h424.614q23.529 0 40.611 17.081 17.081 17.082 17.081 40.611v504.614q0 23.529-17.081 40.611-17.082 17.081-40.611 17.081H267.693Zm109.615-407.307h205.384v-45.384H377.308v45.384Zm0 120h205.384v-45.384H377.308v45.384Zm0 120h205.384v-45.384H377.308v45.384ZM255.384 828.307V311.384v529.232-12.309Z"/></svg>