<svg xmlns="http://www.w3.org/2000/svg" width="48" height="48" viewBox="0 -960 960 960"><path d="M94.617-136.924v-699.999h372.69v163.462h398.077v536.537H94.616ZM140-182.308h118.463V-300.77H140v118.462Zm0-163.846h118.463v-118.078H140v118.078Zm0-163.461h118.463v-118.463H140v118.463Zm0-163.846h118.463v-118.078H140v118.078Zm163.846 491.153h118.078V-300.77H303.846v118.462Zm0-163.846h118.078v-118.078H303.846v118.078Zm0-163.461h118.078v-118.463H303.846v118.463Zm0-163.846h118.078v-118.078H303.846v118.078Zm163.461 491.153H820v-445.77H467.307v118.463H555v45.383h-87.693v118.078H555v45.384h-87.693v118.462Zm193.847-281.924v-45.383h45.384v45.383h-45.384Zm0 163.462v-45.384h45.384v45.384h-45.384Z"/></svg>