<svg xmlns="http://www.w3.org/2000/svg" width="48" height="48" viewBox="0 -960 960 960"><path d="M437.154-102.001q-71.769-7.616-133.307-40.077-61.538-32.462-106.538-83.577-45-51.115-70.461-116.653-25.462-65.538-25.462-138.307 0-146.923 95.923-255.153 95.922-108.231 240.845-123.461v45.383q-125.692 18.231-208.538 112.5-82.846 94.269-82.846 220.731 0 126.076 82.346 220.538 82.346 94.461 208.038 112.692v45.384ZM480-293.847 294.232-479.615l32.23-32.615 130.846 130.846v-284.769h45.384v284.769l131.231-131.231L666.153-480 480-293.847Zm43.231 191.846v-45.384q44.846-6 86.576-22.731 41.731-16.73 77.347-45.346l33.999 33.23q-43.692 32.308-93.731 53.384-50.038 21.077-104.191 26.847Zm165.307-642.383Q651.307-771 609.884-789.115q-41.423-18.115-86.653-24.731v-45.383q54.153 7 103.691 27.769 49.539 20.769 94.231 53.461l-32.615 33.615Zm89.23 500.921-32.614-31.614q28.23-36.231 44.846-77.962 16.615-41.73 22.615-86.961h45.999q-6.615 54.154-27.077 104.192-20.461 50.038-53.769 92.345Zm34.847-277.768q-6-45.23-22.615-87.269-16.616-42.038-44.846-77.654l36.23-31.768q31.538 43.692 50.999 93.423 19.462 49.73 26.231 103.268h-45.999Z"/></svg>