<svg xmlns="http://www.w3.org/2000/svg" width="48" height="48" viewBox="0 -960 960 960"><path d="m480-896.152 357.922 213.538q12.384 7.077 17.23 18.883 4.847 11.807 4.847 23.039v442.998q0 23.529-17.082 40.611-17.082 17.082-40.611 17.082H157.694q-23.529 0-40.611-17.082-17.082-17.082-17.082-40.611v-442.998q0-11.232 5.154-23.039 5.154-11.806 16.923-18.883L480-896.152ZM480-454l329.461-193.923L480-845.692 150.539-647.923 480-454Zm0 50.46L145.385-600.847v403.153q0 5.385 3.462 8.847 3.462 3.462 8.847 3.462h644.612q5.385 0 8.847-3.462 3.462-3.462 3.462-8.847v-403.153L480-403.54Zm0 218.155h334.615-669.23H480Z"/></svg>