<svg xmlns="http://www.w3.org/2000/svg" width="48" height="48" viewBox="0 96 960 960"><path d="M168.078 965.996q-39.807 0-68.172-28.365-28.365-28.365-28.365-68.172V670q0-20.118 8.048-38.024 8.049-17.907 22.721-31.975l254.613-241.537 30.846 32.461q5.461 6.077 5.769 14.269.308 8.192-3.538 14.885L323.769 537.54h391.537q12.53 0 20.918 9.211 8.389 9.211 8.389 22.815 0 13.435-9.158 22.627-9.157 9.192-22.765 9.192H449.23v57.692h337.306q13.607 0 22.765 9.144 9.157 9.143 9.157 22.73t-9.157 22.779q-9.158 9.192-22.765 9.192H449.23v57.692h300.383q13.608 0 22.765 9.144 9.158 9.143 9.158 22.73t-9.158 22.779q-9.157 9.192-22.765 9.192H449.23v57.692h226.537q13.608 0 22.765 9.144 9.158 9.143 9.158 22.73t-9.158 22.779q-9.157 9.192-22.765 9.192H168.078Zm.003-45.383h235.765V582.924H284.231v-92.769L134.309 631.231q-4.945 4.519-11.165 14.998-6.22 10.48-6.22 24.771v198.459q0 20.769 15.193 35.961 15.192 15.193 35.964 15.193Zm443.304-480.382 1.846-14.385q3.076-26.615-7-51.038-10.077-24.423-28.693-43.654-25.077-26.076-39.23-58.499-14.154-32.423-8.847-67.731l1.645-12.384h41.508l-1.846 18.23q-2.461 25.616 6.423 47.923 8.885 22.308 26.885 40.923 26.077 26.077 39.5 59.885 13.423 33.807 10.961 69.73l-.888 11h-42.264Zm152.307 0 1.846-14.385q3.077-25.871-7.039-50.974-10.115-25.102-28.654-43.718-25.692-26.692-39.23-58.692-13.539-31.999-8.846-67.538l1.645-12.384h41.507l-1.846 18.23q-2.461 24.385 6.731 47.616 9.193 23.23 26.577 41.23 25.077 26.077 39.308 59.885 14.23 33.807 11.154 69.73l-.888 11h-42.265ZM260.385 705.384Z"/></svg>