<svg xmlns="http://www.w3.org/2000/svg" width="48" height="48" viewBox="0 -960 960 960"><path d="M655-534.615v-49.999h50v49.999h-50Zm2.308-129.999v-200h45.384v200h-45.384Zm117.691 522.305q-111.615 0-224.615-57.308-112.999-57.307-203.999-148.115-90.999-90.807-148.307-203.614-57.307-112.807-57.307-224.422 0-18.615 12.807-31.423 12.808-12.808 31.423-12.808H299.23q15.539 0 26.808 9.885t14.654 26.654l23.923 107.537q2.385 14.769-.692 26.846T352.076-629l-94.23 92.154q57.539 95.692 127.616 165.077Q455.539-302.385 547-252.461l90.385-93.769q10-11 22.423-15.308 12.423-4.308 25.807-1.308l97.076 21.385q16.154 3 26.346 15.384 10.192 12.385 10.192 29.539v109.998q0 18.615-12.807 31.423-12.808 12.808-31.423 12.808Z"/></svg>