<svg xmlns="http://www.w3.org/2000/svg" width="48" height="48" viewBox="0 -960 960 960"><path d="M480-480Zm-379.999-95.77v-146.582q0-23.483 17.082-40.565 17.082-17.082 40.611-17.082h644.612q23.529 0 40.611 17.082 17.082 17.082 17.082 40.611V-480h-45.384v-242.306q0-4.616-3.846-8.463-3.847-3.846-8.463-3.846H157.694q-4.616 0-8.463 3.846-3.846 3.847-3.846 8.463v146.536h-45.384Zm57.693 395.769q-23.529 0-40.611-17.082-17.082-17.082-17.082-40.565V-384.23h45.384v146.536q0 4.616 3.846 8.463 3.847 3.846 8.463 3.846H439v45.384H157.694ZM720-76.924 652.847-134q-74.308-63.924-97.038-93.308-22.731-29.385-22.731-61.496 0-40.139 28.195-69.129 28.196-28.989 68.727-28.989 22.027 0 41.936 10.077 19.909 10.076 36.525 29.615L720-336.845l10.77-10.001q16-19.538 36.231-29.807 20.23-10.269 42.999-10.269 39.65 0 68.286 28.989 28.636 28.99 28.636 69.129 0 32.111-23.731 62.111-23.73 30-102.115 97.154L720-76.924Zm0-60.153 32.385-28q67.538-57.538 88.346-80.654 20.808-23.115 20.808-43.115 0-21.308-15.462-37-15.462-15.693-36.077-15.693-12.484 0-22.626 5-10.143 5-21.528 16.385L720-276.923l-46.846-43.231q-11.385-11.385-21.649-16.385-10.265-5-21.318-5-21.572 0-36.649 15.693-15.077 15.692-15.077 37.077 0 19.167 26.539 49.006 26.538 29.84 82.154 75.456L720-137.077ZM279.953-297.308q-7.03 0-12.299-2.846-5.269-2.846-9.115-8.923l-72.923-148.231h-85.615v-45.384H200q6.237 0 11.624 3.553 5.387 3.552 7.837 9.216L280-370.46l139.539-279.463q2.772-5.692 8.431-8.23 5.658-2.539 11.883-2.539 6.224 0 11.877 2.539 5.654 2.538 8.346 8.23l73.308 147.231h129.308v45.384H520q-7.201 0-12.533-2.846t-7.928-8.923L439-588.54 299.461-309.077q-2.897 6.077-8.157 8.923-5.261 2.846-11.351 2.846ZM720-239.615Z"/></svg>