<svg xmlns="http://www.w3.org/2000/svg" width="48" height="48" viewBox="0 -960 960 960"><path d="M298.539-491.923v-349.999q0-9.904 6.58-16.298 6.581-6.394 16.308-6.394t16.111 6.524q6.385 6.524 6.385 16.168v349.999h-45.384Zm157.538 0v-389.999q0-9.904 6.58-16.298 6.58-6.394 16.308-6.394 9.727 0 16.111 6.524 6.385 6.524 6.385 16.168v389.999h-45.384Zm158.538 186.461v-496.46q0-9.644 6.58-16.168 6.58-6.524 16.307-6.524 9.728 0 16.112 6.524 6.385 6.524 6.385 16.168v470.307l-45.384 26.153ZM282.693-100h261.614q11.147 0 21.381-4.385 10.234-4.384 19.004-12.538l244.616-246.001-3.462-2.692q-3.077-2.308-6.924-2.501-3.846-.192-6.923 1.731L472.23-166.924 346.153-334.616H185.385v138.077q1.539 40.308 29.233 68.423Q242.313-100 282.693-100Zm0 45.383q-59.923 0-101.307-41.384-41.385-41.384-41.385-101.171V-380h228.844l113.539 152.308 177.615-103.923 118.077-69q15.231-8.616 33.154-7.423 17.923 1.192 31.538 11.423l49.384 36.691L617.05-84.821q-14.974 14.974-33.687 22.59-18.712 7.614-39.171 7.614H282.693ZM185.385-380h-45.384v-381.922q0-9.664 6.581-16.178 6.58-6.514 16.307-6.514 9.727 0 16.112 6.524 6.384 6.524 6.384 16.168V-380Zm0-111.923h429.23-429.23ZM282.693-100h-97.308 399.307-301.999Z"/></svg>