<svg xmlns="http://www.w3.org/2000/svg" width="48" height="48" viewBox="0 -960 960 960"><path d="M718.615-439.462v-350.537h45.384v305.154l-45.384 45.383ZM190.002-165.385v-624.614h45.384v624.614h-45.384Zm264.614-482.846v-141.768H500v141.768h-45.384Zm0 241.231v-141.384H500V-407h-45.384Zm0 241.615v-141.768H500v141.768h-45.384Zm322.691-234.46 47.615 45.769-189.076 188.691h-47v-47.384l188.461-187.076Zm71.538 21.461-47-46.384 32.385-31.769q8.749-8.615 20.605-8.308 11.856.308 19.472 7.539l6.076 7.076q8.616 8.282 8.423 20.372-.192 12.089-9.192 20.705l-30.769 30.769Z"/></svg>