<svg xmlns="http://www.w3.org/2000/svg" width="48" height="48" viewBox="0 96 960 960"><path d="M640 955.999q-62 0-93.807-21.347-31.808-21.346-53.884-44.422-20.539-21.924-40.539-38.078-20-16.153-52.77-16.153-41.923 0-93.653-14.731-51.731-14.731-97.154-47.923-45.423-33.192-76.499-86.346Q100.617 633.846 100.001 557q-1.23-156.23 78.077-258.614Q257.385 196.001 399 196.001q65.23 0 110.961 18.77 45.73 18.769 78.923 47.653 33.192 28.885 56.73 63.884 23.538 35 44 67.692 13.538 22.308 26.885 41.308 13.346 19.001 29.269 34.924 57.308 57.307 85.769 99.615Q859.999 612.154 859.999 697q0 111.153-68.346 185.076Q723.307 955.999 640 955.999ZM480.256 681.384q43.59 0 74.359-31.026 30.769-31.025 30.769-74.614 0-43.59-31.026-74.359-31.025-30.769-74.614-30.769-43.59 0-74.359 31.026-30.769 31.025-30.769 74.614 0 43.59 31.026 74.359 31.025 30.769 74.614 30.769Z"/></svg>