<svg xmlns="http://www.w3.org/2000/svg" width="48" height="48" viewBox="0 -960 960 960"><path d="m291.08-46.15-36.47-26.77 99.93-138.62h-97.69q7.15-93.69 28.61-181.88 21.46-88.2 52.16-157.43 30.3-69.61 65.53-111.15 35.23-41.54 70.93-41.54 24.92 0 41.84 18.69 16.93 18.7 35.39 57.93 23.46 47.92 59.77 77.23 36.3 29.31 89.38 50.92 6.23-6.31 14.65-9.35 8.43-3.03 17.35-3.03 22.62 0 40.27 17.34 17.65 17.35 17.65 39.58v408.08h-28.07v-408.08q0-11.62-8.62-20.23-8.61-8.62-20.23-8.62-11.61 0-20.23 8.62-8.62 8.61-8.62 20.23v23.46h-28.07v-29.15q-44.23-17-88.27-52.47-44.04-35.46-69.19-75.61L479-446.92l99.46 219.61v181.16h-45.38v-165.39h-122l-120 165.39Zm235.15-711.77q-28.08 0-48.42-20.16-20.35-20.15-20.35-48.61 0-4.08 3.62-20.46-9.23-4-14.85-12.43-5.61-8.42-5.61-18.65 0-14.23 9.73-24.15 9.73-9.93 24.34-9.93 10.23 0 18.66 5.62 8.42 5.61 12.42 14.84 4.61-1.61 10.23-2.61 5.62-1 10.23-1 28.46 0 48.62 20.35Q595-854.77 595-826.69q0 28.46-20.15 48.61-20.16 20.16-48.62 20.16Z"/></svg>