<svg xmlns="http://www.w3.org/2000/svg" width="48" height="48" viewBox="0 -960 960 960"><path d="M195.456-250.001q-42.978 0-73.063-30.066-30.084-30.067-30.084-73.019 0-43.113 30.084-73.513Q152.478-457 195.456-457q35.083 0 65.121 20.423 30.038 20.423 37.269 58.347h248.078q6.846-72.77 57-125.462 50.154-52.692 121.384-62.23l-63.769-289.462q-1.154-4.231-4.616-6.732-3.462-2.5-6.923-2.5H504.078v-45.383h135.768q23.671 0 43.359 14.402 19.688 14.403 25.333 38.597l71.307 327.923h-15.461q-72.842 0-124.19 51.642t-51.348 124.896v19.692h-291q-7.231 39.154-37.269 61-30.038 21.846-65.121 21.846Zm569.15.77q-43.113 0-73.513-30.067-30.4-30.067-30.4-73.019 0-43.112 30.185-73.513 30.185-30.4 73.307-30.4t73.314 30.185q30.192 30.185 30.192 73.307t-30.066 73.314q-30.067 30.193-73.019 30.193ZM521.461-46.924 307.078-156.23h140.384v-73.999l214.383 110.307H521.461v73Z"/></svg>