<svg xmlns="http://www.w3.org/2000/svg" width="48" height="48" viewBox="0 96 960 960"><path d="M231.539 824.461h225.384V659.077H231.539v165.384Zm0-211.538h225.384V327.539H231.539v285.384Zm271.538 211.538h225.384V539.077H503.077v285.384Zm0-331.538h225.384V327.539H503.077v165.384ZM197.694 915.999q-23.529 0-40.611-17.082-17.082-17.082-17.082-40.611V293.694q0-23.529 17.082-40.611 17.082-17.082 40.611-17.082h564.612q23.529 0 40.611 17.082 17.082 17.082 17.082 40.611v68.462h56.153v45.383h-56.153v145.769h56.153v45.384h-56.153v145.769h56.153v45.383h-56.153v68.462q0 23.529-17.082 40.611-17.082 17.082-40.611 17.082H197.694Z"/></svg>