<svg xmlns="http://www.w3.org/2000/svg" width="48" height="48" viewBox="0 0 48 48"><path d="M13 43v-8.05q-2.85-2.6-4.425-5.975Q7 25.6 7 22q0-7.1 4.95-12.05Q16.9 5 24 5q5.85 0 10.425 3.475Q39 11.95 40.4 17.5l2.45 9.75q.15.65-.275 1.2-.425.55-1.125.55H37v7.1q0 1.2-.85 2.05-.85.85-2.05.85H29v4h-2.25v-6.25h7.35q.3 0 .475-.175t.175-.475v-9.35h5.6l-2.15-8.7q-1.2-4.8-5.175-7.8-3.975-3-9.025-3-6.15 0-10.45 4.25-4.3 4.25-4.3 10.4 0 3.15 1.3 6t3.65 5.05l1.05 1V43Zm11.8-17.85ZM19.15 43h2.3l1.2-11.85h6.5v-2.3H22.9l.4-3.9q.1-1.1.925-1.85.825-.75 1.925-.75h7.05V20.1h-7q-2.05 0-3.5 1.325-1.45 1.325-1.65 3.275Z"/></svg>