<svg xmlns="http://www.w3.org/2000/svg" width="48" height="48"><path d="M8.5 41.3V31.05h31V41.3h-2.25v-8h-26.5v8zm.65-14q-.9 0-1.525-.625Q7 26.05 7 25.15q0-.9.625-1.525Q8.25 23 9.15 23q.9 0 1.5.625t.6 1.525q0 .9-.625 1.525Q10 27.3 9.15 27.3zm5.6.25V9.7q0-1.2.875-2.05.875-.85 2.025-.85h12.7q1.15 0 2.025.85t.875 2.05v17.85zm24.1-.25q-.9 0-1.5-.625t-.6-1.525q0-.9.625-1.525Q38 23 38.85 23q.9 0 1.525.625.625.625.625 1.525 0 .9-.625 1.525-.625.625-1.525.625zm-21.8-2.05h13.9V9.7q0-.3-.175-.45-.175-.15-.425-.15h-12.7q-.25 0-.425.15t-.175.45zm0 0h13.9z"/></svg>