<svg xmlns="http://www.w3.org/2000/svg" width="48" height="48"><path d="M19.15 36.25 17.5 34.6l4.9-4.85-4.9-4.85 1.65-1.65 4.85 4.9 4.85-4.9 1.65 1.65-4.9 4.85 4.9 4.85-1.65 1.65-4.85-4.9zM9.9 43q-1.2 0-2.05-.85Q7 41.3 7 40.1V11.15q0-1.15.85-2.025T9.9 8.25h3.7v-3.5h2.5v3.5H32v-3.5h2.45v3.5h3.65q1.2 0 2.05.875Q41 10 41 11.15V40.1q0 1.2-.85 2.05-.85.85-2.05.85zm0-2.25h28.2q.25 0 .45-.2t.2-.45V20.25H9.25V40.1q0 .25.2.45t.45.2zM9.25 18h29.5v-6.85q0-.25-.2-.425t-.45-.175H9.9q-.25 0-.45.175t-.2.425zm0 0v-7.45V18z"/></svg>