<svg xmlns="http://www.w3.org/2000/svg" width="48" height="48" viewBox="0 96 960 960"><path d="M576.385 955.999v-45.384h185.921q4.616 0 8.463-3.846 3.846-3.847 3.846-8.463V501.001h-589.23v201.537h-45.384V319.079q0-23.529 17.082-40.611 17.082-17.082 40.611-17.082h73.846v-70h50.384v70h317.691v-70h49.229v70h73.462q23.529 0 40.611 17.082 17.082 17.082 17.082 40.611v579.227q0 23.529-17.082 40.611-17.082 17.082-40.611 17.082H576.385ZM320 1031.61 288.385 1000l119.924-121.308h-351v-45.384h351L288.385 712 320 680.385 495.615 856 320 1031.61ZM185.385 455.618h589.23V319.079q0-4.616-3.846-8.463-3.847-3.846-8.463-3.846H197.694q-4.616 0-8.463 3.846-3.846 3.847-3.846 8.463v136.539Zm0 0V306.77v148.848Z"/></svg>