<svg xmlns="http://www.w3.org/2000/svg" width="48" height="48" viewBox="0 -960 960 960"><path d="m382.923-235.309-32.614-32.615L448.001-365l-97.692-97.077 32.614-32.615L480-397l97.077-97.692 32.614 32.615L511.999-365l97.692 97.076-32.614 32.615L480-333.001l-97.077 97.692ZM197.694-100.001q-23.529 0-40.611-17.082-17.082-17.082-17.082-40.611v-579.227q0-23.529 17.082-40.611 17.082-17.082 40.611-17.082h73.846v-70h50.384v70h317.691v-70h49.229v70h73.462q23.529 0 40.611 17.082 17.082 17.082 17.082 40.611v579.227q0 23.529-17.082 40.611-17.082 17.082-40.611 17.082H197.694Zm0-45.384h564.612q4.616 0 8.463-3.846 3.846-3.847 3.846-8.463v-397.305h-589.23v397.305q0 4.616 3.846 8.463 3.847 3.846 8.463 3.846Zm-12.309-454.997h589.23v-136.539q0-4.616-3.846-8.463-3.847-3.846-8.463-3.846H197.694q-4.616 0-8.463 3.846-3.846 3.847-3.846 8.463v136.539Zm0 0V-749.23v148.848Z"/></svg>