<svg xmlns="http://www.w3.org/2000/svg" width="48" height="48" viewBox="0 -960 960 960"><path d="m808.384-86.771-93.461-93.077q-48.462 37.539-107.885 58.693Q547.615-100.001 480-100.001q-80 0-149.346-29.154-69.345-29.154-120.845-80.654t-80.654-120.845Q100.001-400 100.001-480q0-67.615 21.154-127.038t58.693-107.885l-93.077-93.461 32.615-32.23 721.228 721.228-32.23 32.615ZM275.309-272.463 504.231-390.54 396.616-498.154 275.309-272.463Zm516.767 11.615L576.615-476.309l108.692-207.767L475.693-577.23 260.848-792.076q46.538-32.154 101.73-50.038Q417.77-859.999 480-859.999q79.384 0 148.73 29.462 69.346 29.461 120.846 80.961t80.961 120.846q29.462 69.346 29.462 148.73 0 62.23-17.885 117.422-17.884 55.192-50.038 101.73Z"/></svg>