<svg xmlns="http://www.w3.org/2000/svg" width="48" height="48" viewBox="0 -960 960 960"><path d="M185.385-140.001q-18.509 0-31.946-13.438-13.438-13.437-13.438-31.946v-172.538q38.231-8.462 64.346-37 26.115-28.539 26.115-67.308 0-38.769-26.115-67.115-26.115-28.346-64.346-37.192v-176.385q0-9.458 3.688-17.525 3.687-8.067 10.081-14.089l31.615 31.614v144.232q41.611 17.047 66.036 54.381 24.424 37.335 24.424 82.422 0 44.322-24.499 81.797-24.5 37.475-65.961 54.321v140.385h140.001q17.615-41.076 54.836-65.768 37.221-24.692 81.845-24.692 44.625 0 82.078 24.682 37.452 24.682 54.931 65.778h143.847l31.614 31.615q-6.022 6.394-14.089 10.081-8.067 3.688-17.525 3.688H566.538q-8.846-38.231-37.192-64.346-28.346-26.115-67.115-26.115-38.769 0-67.308 26.115-28.538 26.115-37 64.346H185.385ZM784.46-268.464l-45.384-45.365v-85.785h23.46q24.77-1.539 41.155-19.078 16.385-17.538 16.385-42.116 0-24.577-16.385-42.116-16.385-17.539-41.155-19.077h-23.46v-217.075H524.847v-25.691q-1.538-24.77-19.077-41.155-17.539-16.384-42.116-16.384-24.578 0-42.116 16.384-17.539 16.385-19.078 41.155v25.691h-88.631l-45.365-45.384h89.305q13.308-36.538 41.039-59.884 27.731-23.346 64.846-23.346t64.846 23.346q27.73 23.346 41.038 59.884h169.538q17.971 0 31.678 13.706 13.706 13.707 13.706 31.678v169.538q36.538 13.308 58.769 42.461 22.23 29.154 22.23 66.269 0 37.115-22.23 63.731-22.231 26.615-58.769 39.923v88.69Zm23.924 181.693L86.771-808.384l32.615-32.23 721.228 721.228-32.23 32.615ZM526.462-526.462Zm-62.308 62.308Z"/></svg>