<svg xmlns="http://www.w3.org/2000/svg" width="48" height="48" viewBox="0 -960 960 960"><path d="M152.001-140.001q-23.528 0-40.61-17.082t-17.082-40.611v-564.612q0-23.529 17.082-40.611 17.082-17.082 40.61-17.082h655.998q23.528 0 40.61 17.082t17.082 40.611v564.612q0 23.529-17.082 40.611-17.082 17.082-40.61 17.082H152.001Zm58-150h179.998v-59.998H210.001v59.998ZM582-374.232 765.768-558 723-600.768l-141 142-57-57L483.232-473 582-374.232Zm-371.999-75.769h179.998v-59.998H210.001v59.998Zm0-160h179.998v-59.998H210.001v59.998Z"/></svg>