<svg xmlns="http://www.w3.org/2000/svg" width="48" height="48" viewBox="0 96 960 960"><path d="m480 908.46-31.769-28.923q-103.075-94.428-170.268-162.56T171.117 596.038q-39.654-52.808-55.385-95.373-15.731-42.566-15.731-85.357 0-82.294 55.5-137.8 55.5-55.507 137.192-55.507 55.846 0 103.576 28.154Q444 278.309 480 332.002q40.461-55.923 86.829-82.962 46.368-27.039 100.478-27.039 81.692 0 137.192 55.507 55.5 55.506 55.5 137.8 0 42.791-15.731 85.357-15.731 42.565-55.341 95.29-39.609 52.725-106.846 120.939-67.237 68.215-170.312 162.643L480 908.46Zm0-60.153q99.719-91.285 164.121-156.481 64.401-65.197 102.332-114.088 37.931-48.892 53.047-86.933 15.115-38.042 15.115-75.353 0-64.221-41.615-106.144-41.616-41.923-105.468-41.923-51.139 0-94.028 30.538-42.889 30.539-74.889 90.231H460.77q-31.77-59.077-74.651-89.923-42.881-30.846-93.651-30.846-63.468 0-105.275 41.923-41.808 41.923-41.808 106.443 0 37.252 15.177 75.497t52.846 87.383q37.669 49.138 102.708 113.984Q381.154 757.461 480 848.307Zm0-290.461Z"/></svg>