<svg xmlns="http://www.w3.org/2000/svg" width="48" height="48" viewBox="0 -960 960 960"><path d="M217.308-170.001v-167.307h-67.306v-45.384h67.306v-114.616h-67.306v-45.384h67.306v-140.384L320-785.768l80 80 81-80 80 80 80-80 102.692 102.692v140.384h66.306v45.384h-66.306v114.616h66.306v45.384h-66.306v167.307H217.308Zm45.384-372.691h114.616v-121.539L320-721.539l-57.308 57.308v121.539Zm160 0h114.616v-121.539L480-721.539l-57.308 57.308v121.539Zm161 0h113.616v-121.539L640-721.539l-56.308 56.693v122.154Zm-321 160h114.616v-114.616H262.692v114.616Zm160 0h114.616v-114.616H422.692v114.616Zm161 0h113.616v-114.616H583.692v114.616Zm-321 167.308h114.616v-121.924H262.692v121.924Zm160 0h114.616v-121.924H422.692v121.924Zm161 0h113.616v-121.924H583.692v121.924Z"/></svg>