<svg xmlns="http://www.w3.org/2000/svg" width="48" height="48" viewBox="0 0 48 48"><path d="M8.45 29.8h6.95q.9 0 1.6-.7.7-.7.7-1.6v-7q0-.9-.7-1.6-.7-.7-1.6-.7H8.45Zm2-2v-7.6h4.95q.1 0 .2.1t.1.2v7q0 .1-.1.2t-.2.1Zm12.4 2H25l3.7-11.6h-2l-2.65 9.05-2.9-9.05H19.4Zm7.65 0h2v-4.35h3.15l1.7 4.35h2.05l-1.75-4.5q.95-.15 1.525-.775t.575-1.375V20.5q0-.9-.7-1.6-.7-.7-1.6-.7H30.5Zm2-6.35V20.2h4.95q.1 0 .2.1t.1.2v2.65q0 .1-.1.2t-.2.1ZM5.9 39q-1.2 0-2.05-.85Q3 37.3 3 36.1V11.9q0-1.2.85-2.05Q4.7 9 5.9 9h36.2q1.2 0 2.05.85.85.85.85 2.05v24.2q0 1.2-.85 2.05-.85.85-2.05.85Zm0-2.25h36.2q.3 0 .475-.175t.175-.475V11.9q0-.3-.175-.475t-.475-.175H5.9q-.3 0-.475.175t-.175.475v24.2q0 .3.175.475t.475.175Zm-.65 0v-25.5 25.5Z"/></svg>