<svg xmlns="http://www.w3.org/2000/svg" width="48" height="48" viewBox="0 -960 960 960"><path d="M382.154-394.77h80.461q23.98 0 40.836-17.082 16.856-17.082 16.856-40.611v-185.844q0-23.529-16.856-40.611Q486.595-696 462.615-696h-57.922q-23.529 0-40.611 17.082Q347-661.836 347-638.307v57.922q0 23.528 17.082 40.61t40.611 17.082h70.23v70.23q0 5.385-3.654 8.847-3.654 3.462-8.654 3.462h-80.461v45.384Zm92.769-173.307h-70.23q-5.386 0-8.847-3.462-3.462-3.461-3.462-8.846v-57.922q0-5.386 3.462-8.847 3.461-3.462 8.847-3.462h57.922q5 0 8.654 3.462 3.654 3.461 3.654 8.847v70.23Zm-196.46 337.306q-23.529 0-40.611-17.082-17.081-17.082-17.081-40.611v-513.842q0-23.529 17.081-40.611 17.082-17.082 40.611-17.082h513.843q23.528 0 40.61 17.082t17.082 40.611v513.842q0 23.529-17.082 40.611-17.082 17.082-40.61 17.082H278.463ZM167.694-120.003q-23.528 0-40.61-17.082-17.082-17.081-17.082-40.61v-559.226h45.384v559.226q0 4.616 3.846 8.462 3.847 3.847 8.462 3.847h559.227v45.383H167.694Zm489.075-319.229h45.383v-85.077h82.231v-45.383h-82.231v-82.231h-45.383v82.231h-82.231v45.383h82.231v85.077Z"/></svg>