<svg xmlns="http://www.w3.org/2000/svg" width="48" height="48" viewBox="0 -960 960 960"><path d="M237.69-100q-23.61 0-40.65-17.04T180-157.69v-644.62q0-23.61 17.04-40.65T237.69-860h347.39L780-633.69v464.3L585.61-363.77q12.23-15.62 18.54-34.69 6.31-19.08 6.31-40.92 0-55.08-37.69-92.77T480-569.84q-55.08 0-92.77 37.69t-37.69 92.77q0 55.07 37.69 92.76 37.69 37.7 92.77 37.7 21.08 0 39.04-4.81t37.19-17.19l203.15 203.53q-12.61 13.31-29.57 20.35-16.97 7.04-35.12 7.04h-457Zm182.16-279.23q-24.93-24.92-24.93-60.15 0-35.24 24.93-60.16 24.92-24.92 60.15-24.92t60.15 24.92q24.93 24.92 24.93 60.16 0 35.23-24.93 60.15-24.92 24.92-60.15 24.92t-60.15-24.92Z"/></svg>