<svg xmlns="http://www.w3.org/2000/svg" width="48" height="48" viewBox="0 -960 960 960"><path d="M350.539-140.001H197.877q-23.779 0-40.828-17.097-17.048-17.096-17.048-40.596v-564.612q0-23.5 17.097-40.596 17.096-17.097 40.596-17.097h152.845v45.384H197.694q-5.385 0-8.847 3.462-3.462 3.462-3.462 8.847v564.612q0 5.385 3.462 8.847 3.462 3.462 8.847 3.462h152.845v45.384ZM458.924-40v-872.307h45.383V-40h-45.383Zm153.768-100.001v-50h49.999v50h-49.999Zm0-629.998v-50h49.999v50h-49.999Zm157.307 629.998v-50h50q0 20.769-14.837 35.384-14.836 14.616-35.163 14.616Zm0-157.692v-50h50v50h-50Zm0-157.307v-50h50v50h-50Zm0-157.692v-49.999h50v49.999h-50Zm0-157.307v-50q20.327 0 35.163 14.837 14.837 14.836 14.837 35.163h-50Z"/></svg>