<svg xmlns="http://www.w3.org/2000/svg" width="48" height="48"><path d="M7 26.3v-4.15h2.25v4.15zm0 8.3v-4.15h2.25v4.15zM9.25 41q-.9 0-1.575-.675Q7 39.65 7 38.75h2.25zM7 18.05V13.9h2.25v4.15zM30 41v-2.25h4.15V41zm-12.7-7.4q-1.2 0-2.05-.85-.85-.85-.85-2.05V9.9q0-1.2.85-2.05Q16.1 7 17.3 7h20.8q1.2 0 2.05.85.85.85.85 2.05v20.8q0 1.2-.85 2.05-.85.85-2.05.85zm0-2.3h20.8q.25 0 .45-.175t.2-.425V9.9q0-.25-.2-.45t-.45-.2H17.3q-.25 0-.425.2t-.175.45v20.8q0 .25.175.425t.425.175zm4.4 9.7v-2.25h4.15V41zm-8.3 0v-2.25h4.15V41z"/></svg>