<svg xmlns="http://www.w3.org/2000/svg" width="48" height="48" viewBox="0 -960 960 960"><path d="M157.694-180.001q-23.616 0-40.654-17.347-17.039-17.346-17.039-40.346v-484.612q0-23 17.039-40.346 17.038-17.347 40.654-17.347h249.459l65.385 65.385h329.768q23 0 40.346 17.347 17.347 17.346 17.347 40.346v419.227q0 23-17.347 40.346-17.346 17.347-40.346 17.347H157.694Zm357.614-130.615L596-367.77l80.076 57.154-30.307-97.538 80.076-67.23h-97.538L596-571.307l-32.923 95.923h-97.922l80.461 67.23-30.308 97.538Z"/></svg>