<svg xmlns="http://www.w3.org/2000/svg" width="48" height="48" viewBox="0 -960 960 960"><path d="m852.306-210.54-37.691-37.691v-408.69q0-5.385-3.462-8.847-3.462-3.462-8.847-3.462H450.23l-65.385-65.385h-56.229l-45.383-45.384h120.458l65.385 65.385h333.23q23 0 40.346 17.347 17.347 17.346 17.347 40.346v419.227q0 6.846-1.923 13.885-1.924 7.038-5.77 13.269Zm4.694 161L726.538-180.001H157.694q-23.529 0-40.611-17.347-17.082-17.346-17.082-40.346v-484.612q0-23 17.082-40.346 17.082-17.347 40.611-17.347h32.461l45.384 45.384h-77.845q-5.385 0-8.847 3.462-3.462 3.462-3.462 8.847v484.612q0 5.385 3.462 8.847 3.462 3.462 8.847 3.462h523.461L85.233-820.922l31.999-31.999L888.614-81.539 857-49.54ZM426.54-480Zm145.383-11.923Z"/></svg>