<svg xmlns="http://www.w3.org/2000/svg" width="48" height="48" viewBox="0 -960 960 960"><path d="M260-854.61q-48.92 0-81.77 49.46-32.84 49.46-32.84 125.15 0 71.08 22.03 127.27 22.04 56.19 39.12 79.04L329.38-501q14.39-36.46 29.81-87.08 15.42-50.61 15.42-91.92 0-67.38-31.11-121-31.12-53.61-83.5-53.61Zm55 549.22q25.69 0 42.65-19.15 16.96-19.15 16.96-48.46 0-19.23-9.38-41.69-9.38-22.46-23.08-43.31l-116.76 25.85q-.62 48.38 21.5 87.57Q269-305.39 315-305.39Zm385-349.22q-52.38 0-83.5 53.61-31.11 53.62-31.11 121 0 41.92 15.92 92.23T631.62-301l120.69 29q21.54-33.08 41.92-84.35 20.38-51.27 20.38-123.65 0-75.69-32.84-125.15-32.85-49.46-81.77-49.46Zm-55 549.22q45.23 0 67.42-39.3 22.19-39.31 22.19-85.39l-115.99-28.31q-10.77 18.16-22 41.01-11.23 22.84-11.23 44.38 0 29.31 17.15 48.46 17.15 19.15 42.46 19.15ZM315-260q-65.46 0-101.04-49.69-35.57-49.7-33.96-117.62l-21.08-35.84q-15.61-24.31-37.26-82.77Q100-604.39 100-680q0-94.54 45.42-157.27Q190.85-900 260-900q73.08 0 116.54 67.42Q420-765.15 420-680q0 55.31-16.19 105.65-16.2 50.35-29.73 82.27l13 21.47q9.92 16.69 21.42 43.92Q420-399.46 420-373q0 48.54-29.73 80.77T315-260ZM645-60q-45.54 0-75.27-32.23Q540-124.46 540-173q0-26.46 11.5-53.69 11.5-27.23 21.42-43.92l13-21.47q-13.15-31.54-29.53-82.07Q540-424.69 540-480q0-85.15 43.46-152.58Q626.92-700 700-700q69.15 0 114.58 62.73Q860-574.54 860-480q0 75.61-21.46 133.38-21.46 57.77-37.46 82.85l-21.08 33q.61 62.15-31.96 116.46Q715.46-60 645-60Z"/></svg>