<svg xmlns="http://www.w3.org/2000/svg" width="48" height="48" viewBox="0 -960 960 960"><path d="M316.847-100.001v-152.078H37.695l182.076-264.768h-91.153L360-845.382l120 170.385 120-170.385 231.382 328.535h-90.153l181.076 264.768H643.768v152.078h-86.921v-152.078H403.768v152.078h-86.921Zm334.689-197.461h183.463L653.307-562.231H740L600-761.307l-89.616 128.462 80.998 115.998h-90.153l150.307 219.385Zm-525.92 0h469.383L413.307-562.231H500L360-761.307 220-562.231h87.308L125.616-297.462Zm0 0h181.692H220h280-86.693 181.692-469.383Zm525.92 0H501.229h90.153-80.998H740h-86.693 181.692-183.463Zm-94.689 45.383h86.921-86.921Zm126.073 0Z"/></svg>