<svg xmlns="http://www.w3.org/2000/svg" width="48" height="48" viewBox="0 -960 960 960"><path d="M140.001-290.001v-379.998h45.384v167.307h194.616v-167.307h45.384v379.998h-45.384v-167.307H185.385v167.307h-45.384Zm394.614 0v-45.383h227.691q5.385 0 8.847-3.462 3.462-3.462 3.462-8.847V-445q0-5.385-3.462-8.846-3.462-3.462-8.847-3.462H534.615v-212.691h285.384v45.383h-240v121.924h182.307q23.5 0 40.596 17.096Q819.999-468.5 819.999-445v97.307q0 23.5-17.097 40.596-17.096 17.096-40.596 17.096H534.615Z"/></svg>