<svg xmlns="http://www.w3.org/2000/svg" width="48" height="48" viewBox="0 -960 960 960"><path d="M739.15-176.16 637-253.92q-7.69-6.47-9-15.66-1.31-9.19 4.15-17.27 6.36-9.07 16.3-10.5 9.93-1.42 18.63 5.04l96.3 73.92-40.77-123.3q-3.23-9.7 1.12-18.77 4.35-9.08 14.31-11.92 9.8-3.85 19 1.3 9.19 5.16 12.42 14.85l36.38 110.92 29.62-115.15q2.23-8.69 9.92-14.04 7.69-5.35 17-4.12 11.08.85 16.81 9.93 5.73 9.07 3.11 20.15l-50.84 198.85q-2 9.61-9.85 15.61t-18.01 6H619.08q-10.23 0-17.04-6.82-6.81-6.83-6.81-17.08 0-10.64 6.81-17.41t17.04-6.77h120.07ZM254.08-139q-48.05 0-81.26-32.98-33.2-32.98-33.2-80.71 0-47.28 33.2-80.06 33.21-32.79 81.26-33.4-47.44.61-80.95-32.18-33.51-32.79-33.51-80.08 0-47.9 33.2-81.28 33.21-33.39 81.26-33.39-48.05 0-81.26-32.38-33.2-32.39-33.2-79.8 0-48.36 33.07-81.55Q205.77-820 253.89-820q47.5 0 80.38 33.27 32.88 33.27 33.27 81.19 0-47.3 32.9-80.57 32.89-33.27 80.33-33.27h225.29q47.4 0 80.67 33.27T820-705.44q0 47.07-33.27 79.72-33.27 32.64-80.58 32.64 54.62-.38 88.27 41.5 33.66 41.89 22.73 94.66-13.84-4.23-27.98-5.85-14.13-1.62-28.25-1.62-98.69 0-162.5 67-63.81 66.99-63.81 162.47 0 24.07 5.43 47.07 5.42 23 17.88 48.23h-77.15q-47.31 0-80.46-32.88-33.16-32.89-32.77-80.19-.39 47.92-33.06 80.8Q301.81-139 254.08-139Zm.23-498.46q28.46 0 48.15-20.31 19.7-20.31 19.7-48.58 0-28.26-19.62-48.26-19.61-20-48.15-20-29.16 0-49.27 19.63Q185-735.35 185-706.15q0 29.07 20.31 48.88 20.31 19.81 49 19.81Zm192.84-1h293.23V-774H447.15v135.54Zm-79.61 385.77q0-47.28 33.09-80.87T481-366.15q-47.28-1-80.37-33.67-33.09-32.66-33.09-79.8 0 47.14-33.09 79.8-33.1 32.67-80.37 33.67 47.27-1 80.37 32.59 33.09 33.59 33.09 80.87Zm0-226.93q0-47.41 33.09-80.43 33.09-33.03 80.37-33.03-47.28 0-80.37-32.67t-33.09-79.79q0 47.12-33.09 79.79-33.1 32.67-80.37 32.67 47.27 0 80.37 33.03 33.09 33.02 33.09 80.43Z"/></svg>