<svg xmlns="http://www.w3.org/2000/svg" width="48" height="48" viewBox="0 -960 960 960"><path d="M50-130.001v-142.922l80.001-80v-261.462l-80-80v-135.614h45.383v80h114.617v-80h45.383v80h114.617v-80h45.383v135.614l-80 80v79.001h289.232v-79.001l-80-80v-135.614h45.383v80h114.617v-80h45.383v80h114.617v-80h45.383v135.614l-80 80v261.462l80 80v142.922H577.308V-240q0-40.587-28.383-68.947-28.382-28.361-69-28.361-40.618 0-68.925 28.361-28.308 28.36-28.308 68.947v109.999H50.001Zm45.384-45.383h241.924V-240q0-59.923 41.885-101.307Q421.077-382.692 480-382.692q59.923 0 101.307 41.385Q622.692-299.923 622.692-240v64.616h241.924v-78.693l-80-80V-633.23l71.385-71.386H598.614l71.385 71.386v143.229H290.001V-633.23l71.385-71.386H103.999l71.385 71.386v299.153l-80 80v78.693ZM480-440Z"/></svg>