<svg xmlns="http://www.w3.org/2000/svg" width="48" height="48" viewBox="0 96 960 960"><path d="M471.846 689.846V462.154H511v227.692h-39.154Zm-217.845 0q-18.3 0-30.765-12.385-12.466-12.385-12.466-30.847V505.386q0-18.462 12.466-30.847 12.465-12.385 30.765-12.385H363q13.473 0 21.621 8.346 8.148 8.346 8.148 21.039v9.384H261.847q-4.616 0-8.462 3.846-3.846 3.847-3.846 8.462v125.538q0 4.615 3.846 8.462 3.846 3.846 8.462 3.846h79.46q4.616 0 8.463-3.846 3.846-3.847 3.846-8.462v-59.692h39.153v67.537q0 18.462-12.427 30.847-12.427 12.385-31.189 12.385h-95.152Zm333.23 0V462.154H749.23v38.769H626.384v63.846h80.615v39.153h-80.615v85.924h-39.153Z"/></svg>