<svg xmlns="http://www.w3.org/2000/svg" width="48" height="48" viewBox="0 0 48 48"><path d="M24 23.9q3.4 0 5.875-2.45t2.475-5.85q0-3.45-2.475-5.9T24 7.25q-3.4 0-5.875 2.45t-2.475 5.9q0 3.4 2.475 5.85Q20.6 23.9 24 23.9Zm0 2.3q-4.4 0-7.5-3.075-3.1-3.075-3.1-7.525 0-4.4 3.075-7.5Q19.55 5 24 5q4.4 0 7.5 3.075 3.1 3.075 3.1 7.525t-3.075 7.525Q28.45 26.2 24 26.2Zm17.7 16.85v-4h-4V37.1h4v-4h2v4h4v1.95h-4v4Zm-15.15.65V31.9h6.5q1.15 0 1.875.7.725.7.725 1.85v1.85q0 1-.55 1.725-.55.725-1.65 1.125l1.9 4.55H33.2l-1.75-4.35H28.5v4.35Zm1.95-6.3h4.6q.2 0 .4-.175t.2-.425v-2.35q0-.2-.2-.4t-.4-.2h-4.6ZM.3 43.7V31.9h1.95v4.25h5.1V31.9H9.3v11.8H7.35v-5.6h-5.1v5.6Zm13.1 0V31.9h6.4q1.1 0 1.825.725.725.725.725 1.825v6.7q0 1.1-.725 1.825-.725.725-1.825.725Zm1.95-1.95h4.45q.25 0 .425-.2t.175-.4v-6.7q0-.2-.175-.4t-.425-.2h-4.45ZM24 15.6Z"/></svg>