<svg xmlns="http://www.w3.org/2000/svg" width="48" height="48" viewBox="0 -960 960 960"><path d="m222.77-121.85-101.31-101.3q-17.84-16.36-17.84-40.95 0-24.59 17.84-41.21l536.69-536.3q16.97-17.23 40.95-16.93 23.98.31 41.21 16.93l100.92 100.92q16.61 17.35 16.92 41.33.31 23.98-16.92 40.82L304.92-121.85Q288.19-104 263.59-104q-24.59 0-40.82-17.85Zm279.31-156.84 182.69-182.69 156.07 156.46q17.62 17.45 17.62 41.57t-17.23 40.96L738-119.16q-16.62 16.62-39.73 15.08-23.12-1.54-39.73-18.15L502.08-278.69Zm5.65-110.26q10.04-10.11 10.04-25.5 0-15.4-10.11-25.24-10.1-9.85-25.5-9.85-15.39 0-25.43 9.91-10.04 9.92-10.04 25.31 0 15.4 10.11 25.43 10.1 10.04 25.5 10.04 15.39 0 25.43-10.1Zm-93.28-57.74q15.4 0 25.24-10.11 9.85-10.1 9.85-25.5 0-15.39-9.91-25.43-9.92-10.04-25.31-10.04-15.4 0-25.43 10.11-10.04 10.1-10.04 25.5 0 15.39 10.1 25.43 10.11 10.04 25.5 10.04Zm135.08 0q15.39 0 25.43-10.11Q585-466.9 585-482.3q0-15.39-10.11-25.43-10.1-10.04-25.5-10.04-15.39 0-25.43 10.11-10.04 10.1-10.04 25.5 0 15.39 10.11 25.43 10.1 10.04 25.5 10.04Zm-269.84-54.54-159.3-158.92q-16.23-16.62-17.43-38.73-1.19-22.12 15.43-38.35l104.38-104.38q16.97-17.23 40.94-17.23 23.98 0 41.21 17.23l156.46 156.07-181.69 184.31Zm228.04-22.8q10.04-10.1 10.04-25.5 0-15.39-10.11-25.43-10.1-10.04-25.5-10.04-15.39 0-25.43 10.11-10.04 10.1-10.04 25.5 0 15.39 10.11 25.43 10.1 10.04 25.5 10.04 15.39 0 25.43-10.11Z"/></svg>