<svg xmlns="http://www.w3.org/2000/svg" width="48" height="48" viewBox="0 0 48 48"><path d="M21.8 22.35q.65 0 1.125-.5t.475-1.15q0-.7-.475-1.175-.475-.475-1.175-.475-.65 0-1.125.475T20.15 20.7q0 .7.475 1.175.475.475 1.175.475Zm.3 8.6 9.95-9.9-1.65-1.65-9.9 9.95Zm8.7.4q.65 0 1.125-.5t.475-1.15q0-.7-.475-1.175-.475-.475-1.175-.475-.65 0-1.125.475T29.15 29.7q0 .7.475 1.175.475.475 1.175.475Zm7.3 7.1H14.4q-1.15 0-2-.85-.85-.85-.85-2V5.9q0-1.2.85-2.05.85-.85 2-.85h16.4L41 13.2v22.4q0 1.15-.85 2-.85.85-2.05.85ZM29.65 14.2V5.25H14.4q-.2 0-.4.2t-.2.45v29.7q0 .2.2.4t.4.2h23.7q.25 0 .45-.2t.2-.4V14.2ZM7.9 45q-1.2 0-2.05-.85Q5 43.3 5 42.1V13.55h2.25V42.1q0 .25.2.45t.45.2h22.5V45Zm5.9-39.75v8.95-8.95V36.2 5.25Z"/></svg>