<svg xmlns="http://www.w3.org/2000/svg" width="48" height="48" viewBox="0 96 960 960"><path d="M594.615 638.692v-45.384h299.999v45.384H594.615ZM440 909.075l-86.612-77.844Q271.771 757 215.656 701.384q-56.116-55.615-90.77-101.577-34.654-45.962-49.77-86.423Q60.003 472.922 60.003 430q0-85.154 57.422-142.269Q174.847 230.616 260 230.616q52.385 0 99 24.193 46.615 24.192 81 69.962 34.385-45.77 81-69.962 46.615-24.193 99-24.193 78.846 0 132.499 49.193 53.654 49.192 63.807 117.807-16.461-6.231-34.076-9.538-17.616-3.308-35.77-3.308-96.384 0-164.114 67.231-67.731 67.23-67.731 163.999 0 46.615 18.115 89.076 18.115 42.461 51.5 74.308-20.154 18.153-48.154 43.115-28 24.961-51.923 46.885L440 909.075Z"/></svg>