<svg xmlns="http://www.w3.org/2000/svg" width="48" height="48" viewBox="0 -960 960 960"><path d="M481-108.617Q359.463-230.77 284.771-309.154q-74.692-78.385-115.808-132.5-41.115-54.115-55.038-93.967-13.924-39.851-13.924-84.639 0-87.558 61.091-148.649 61.091-61.09 148.909-61.09 41.645 0 80.514 14.769 38.87 14.769 69.946 42.692l-63.923 222.539h121.769l-40.614 363.768 127.769-423.77H483.077l65.23-195.075q23.148-12.462 48.61-18.693 25.462-6.23 52.313-6.23 87.818 0 148.909 61.09 61.09 61.091 61.09 148.909 0 44.009-14 84.082-14 40.072-54.941 94.88-40.942 54.807-115 132.999Q601.23-229.847 481-108.617Zm-44.23-107.844 31.616-288.155H336.155l72.231-251.692q-23.154-11.769-47.664-20.038-24.509-8.27-50.721-8.27-68.506 0-116.561 48.055Q145.385-688.506 145.385-620q0 33.051 13.462 67.257 13.461 34.205 46.465 79.878 33.003 45.674 89.269 106.962 56.266 61.288 142.189 149.442Zm98.305-11.076q150.77-149.078 214.771-238.694 64-89.615 64-154.171 0-67.818-48.055-116.016-48.055-48.198-116.561-48.198-16.487 0-32.59 3.385-16.103 3.385-31.256 8.769l-38.308 117.078h117L535.075-227.537Zm129.001-427.847ZM336.155-504.616Z"/></svg>