<svg xmlns="http://www.w3.org/2000/svg" width="48" height="48"><path d="m30.6 32.2-7.75-7.75v-9.6h2.3v8.7l7.05 7.05zm-23.7.25q-.8-1.7-1.275-3.55-.475-1.85-.575-3.75H7.3q.1 1.6.525 3.15.425 1.55 1.075 3zm-1.85-9.6q.1-1.9.575-3.75t1.325-3.6l1.95 1.15q-.7 1.45-1.1 3.025-.4 1.575-.5 3.175zm8.5 17.1q-1.7-1.1-3.1-2.475Q9.05 36.1 8 34.45l2-1.15q.9 1.35 2.1 2.55 1.2 1.2 2.55 2.1zM10 14.65l-1.95-1.1Q9.1 11.9 10.5 10.5q1.4-1.4 3.05-2.45l1.1 2q-1.35.9-2.55 2.075Q10.9 13.3 10 14.65zm12.85 28.3q-1.9-.1-3.75-.575t-3.6-1.325l1.15-1.95q1.45.7 3.025 1.1 1.575.4 3.175.5zM16.65 8.9 15.5 6.95q1.75-.85 3.6-1.325t3.75-.575V7.3q-1.6.1-3.175.5-1.575.4-3.025 1.1zm8.5 34.05V40.7q1.6-.1 3.175-.5 1.575-.4 3.025-1.1l1.15 1.95q-1.75.85-3.6 1.325t-3.75.575zm6.2-34.05q-1.45-.7-3.025-1.1-1.575-.4-3.175-.5V5.05q1.9.1 3.75.55 1.85.45 3.6 1.35zm3.1 31.05-1.1-2q1.35-.9 2.525-2.075Q37.05 34.7 37.95 33.35l2 1.1q-1.05 1.65-2.45 3.025-1.4 1.375-3.05 2.475zm3.5-25.3q-.9-1.4-2.075-2.55-1.175-1.15-2.525-2.05l1.1-2q1.65 1.1 3.025 2.45t2.425 3zm2.75 8.2q-.1-1.65-.525-3.2-.425-1.55-1.125-3.05l2-1.15q.9 1.75 1.35 3.6.45 1.85.55 3.8zm.35 9.65-1.95-1.15q.7-1.45 1.1-3.025.4-1.575.5-3.175h2.25q-.1 1.9-.575 3.75t-1.325 3.6z"/></svg>