<svg xmlns="http://www.w3.org/2000/svg" width="48" height="48" viewBox="0 96 960 960"><path d="m644.152 708.307 160.076-137.999 63.46 5.461-172.46 147.384 51.615 225.229-54.768-33.461-47.923-206.614Zm-84.538-261.69-51.23-121.307 23.922-58.152 77.769 183.92-50.461-4.461ZM271.462 839.845 420 750.461l148.538 90.384-39.308-169.153 130.692-113.461L487.538 543 420 383.847 352.462 542l-172.384 15.231L310.77 671.077l-39.308 168.768Zm-68.46 94.613 57.307-246.766L68.849 521.77l252.614-21.922L420 267.158l98.537 232.69L771.15 521.77 579.691 687.692l57.307 246.766L420 803.537 203.002 934.458ZM420 631.769Z"/></svg>