<svg xmlns="http://www.w3.org/2000/svg" width="48" height="48" viewBox="0 -960 960 960"><path d="M577.692-458.078h166.922v-45.383H577.692v45.383Zm0-115.384h166.922v-45.383H577.692v45.383ZM215.386-333.847h292.305v-12.077q0-37.769-38.461-60.614-38.461-22.846-107.691-22.846-69.231 0-107.692 22.846-38.461 22.845-38.461 60.614v12.077Zm146.136-162.461q26.939 0 45.939-18.983 19-18.982 19-45.922 0-26.94-18.983-45.94-18.983-19-45.922-19-26.94 0-45.94 18.983-19 18.983-19 45.923t18.983 45.939q18.983 19 45.923 19ZM157.694-180.001q-23.529 0-40.611-17.082-17.082-17.082-17.082-40.611v-484.612q0-23.529 17.082-40.611 17.082-17.082 40.611-17.082h644.612q23.529 0 40.611 17.082 17.082 17.082 17.082 40.611v484.612q0 23.529-17.082 40.611-17.082 17.082-40.611 17.082H157.694Z"/></svg>