<svg xmlns="http://www.w3.org/2000/svg" width="48" height="48" viewBox="0 -960 960 960"><path d="m358.77-428.001 79.076-63.538 79.692 63.538-29.923-103.538 80.076-61.153h-97.076l-32.769-93.769-32.154 93.769h-96.461l78.846 61.153-29.307 103.538Zm311.999 288q-15.039 0-25.212-10.173t-10.173-25.212v-313.845q0-15.039 10.173-25.212t25.212-10.173h155.384q15.038 0 25.211 10.173 10.173 10.173 10.173 25.212v313.845q0 15.039-10.173 25.212t-25.211 10.173H670.769Zm0-60.77h155.384v-263.075H670.769v263.075Zm-349.23 60.77v-45.384h94.231v-114.616H156.155q-23 0-40.346-17.347-17.346-17.346-17.346-40.346v-404.612q0-23 17.538-40.346 17.539-17.347 40.154-17.347h563.997q22.616 0 40.462 17.347 17.846 17.346 17.846 40.26v205.084H670.769q-28.616 0-48.347 19.73-19.73 19.731-19.73 48.347v189.23H461.153v114.616h94.231v45.384H321.539Z"/></svg>