<svg xmlns="http://www.w3.org/2000/svg" width="48" height="48" viewBox="0 -960 960 960"><path d="M669.23-140.001q-14.692 0-25.038-10.347-10.346-10.346-10.346-25.038v-315.921q0-14.693 10.346-25.039 10.346-10.346 25.038-10.346h155.384q14.692 0 25.038 10.346 10.347 10.346 10.347 25.039v315.921q0 14.692-10.347 25.038-10.346 10.347-25.038 10.347H669.23Zm0-60.77h155.384v-265.151H669.23v265.151Zm-307.691-228.23L440-490.539l78.461 61.538-28.692-98.692 79.461-64.384h-98.538L440-686.461l-30.692 94.384H310.77l79.461 64.384-28.692 98.692Zm-38.462 289v-45.384h94.231v-114.616H157.694q-23.846 0-40.77-16.923-16.923-16.924-16.923-40.77v-404.612q0-23.846 16.923-40.77 16.924-16.923 40.77-16.923h563.997q24.461 0 41.385 16.923 16.923 16.924 16.923 40.77v170.229H669.23q-42.385 0-71.577 29.193-29.192 29.192-29.192 71.577v191.306H462.692v114.616h94.231v45.384H323.077Z"/></svg>