<svg xmlns="http://www.w3.org/2000/svg" width="48" height="48" viewBox="0 96 960 960"><path d="M117.694 915.999q-23.53 0-40.61-17.082Q60 881.835 60 858.306V333.694q0-23.529 17.082-40.611 17.082-17.082 40.611-17.082h724.612q23.529 0 40.611 17.082 17.082 17.082 17.082 40.611v524.612q0 23.529-17.082 40.611-17.082 17.082-40.611 17.082H117.694Zm189.999-129.307h344.614v-52.846H307.693v52.846ZM191.616 646.307h75.845v-75.229h-75.845v75.229Zm167.308 0h75.845v-75.229h-75.845v75.229Zm166.307 0h75.845v-75.229h-75.845v75.229Zm167.308 0h75.845v-75.229h-75.845v75.229ZM191.616 481.231h75.845v-74.615h-75.845v74.615Zm167.308 0h75.845v-74.615h-75.845v74.615Zm166.307 0h75.845v-74.615h-75.845v74.615Zm167.308 0h75.845v-74.615h-75.845v74.615Z"/></svg>