<svg xmlns="http://www.w3.org/2000/svg" width="48" height="48"><path d="M40.1 33H7.9q-1.2 0-2.05-.85Q5 31.3 5 30.1V9.9q0-1.2.85-2.05Q6.7 7 7.9 7h32.2q1.2 0 2.05.85.85.85.85 2.05v20.2q0 1.2-.85 2.05-.85.85-2.05.85zM22.6 15.2h2.8v-2.8h-2.8zm0 6.2h2.8v-2.8h-2.8zm-6.25-6.2h2.85v-2.8h-2.85zm0 6.2h2.85v-2.8h-2.85zm-6.25 0h2.85v-2.8H10.1zm0-6.2h2.85v-2.8H10.1zm6.25 12.4h15.3v-2.85h-15.3zm12.5-6.2h2.8v-2.8h-2.8zm0-6.2h2.8v-2.8h-2.8zm6.2 6.2h2.85v-2.8h-2.85zm0-6.2h2.85v-2.8h-2.85zM24 44.85l-6.6-6.65h13.25z"/></svg>