<svg xmlns="http://www.w3.org/2000/svg" width="48" height="48" viewBox="0 -960 960 960"><path d="M145.385-265.385v-429.23 429.23Zm61.461-186.538H263v-56.154h-56.154v56.154Zm122.847 0h56.153v-56.154h-56.153v56.154Zm122.23 0h56.154v-56.154h-56.154v56.154Zm122.846 0h56.154v-56.154h-56.154v56.154ZM206.846-575.769H263v-56.154h-56.154v56.154Zm122.847 0h56.153v-56.154h-56.153v56.154Zm122.23 0h56.154v-56.154h-56.154v56.154Zm122.846 0h56.154v-56.154h-56.154v56.154Zm122.231 0h56.154v-56.154H697v56.154Zm0 113.845q13.752-2.959 27.222-4.133t28.932-.021v-41.999H697v46.153ZM310.001-328.462h255.46q4.384-15.461 10.307-29.192t14.384-26.961H310.001v56.153ZM157.694-220.001q-23.529 0-40.611-17.347-17.082-17.346-17.082-40.346v-404.612q0-23.529 17.082-40.611 17.082-17.082 40.611-17.082h644.612q23.529 0 40.611 17.082 17.082 17.082 17.082 40.611v259.305q-9.748-9.923-21.181-16.615-11.434-6.692-24.203-12.592v-230.098q0-4.616-3.846-8.463-3.847-3.846-8.463-3.846H157.694q-4.616 0-8.463 3.846-3.846 3.847-3.846 8.463v404.612q0 4.616 3.846 8.463 3.847 3.846 8.463 3.846h402.535v45.384H157.694Zm507.305 120q-14.615 0-27.538-13.206t-12.923-27.256v-114.692q0-14.615 12.923-27.346 12.923-12.73 27.538-12.73h1.154v-40q0-33.308 21.962-56.577 21.961-23.269 54.653-23.269t54.346 23.269q21.654 23.269 21.654 56.577v40h1.769q13.615 0 26.539 12.73 12.923 12.731 12.923 27.346v114.692q0 14.05-12.923 27.256-12.924 13.206-26.539 13.206H664.999Zm36.538-195.23h82.847v-40q0-18.781-11.693-31.622-11.692-12.84-30.23-12.84-18.539 0-29.731 12.783-11.193 12.782-11.193 31.679v40Z"/></svg>