<svg xmlns="http://www.w3.org/2000/svg" width="48" height="48" viewBox="0 0 48 48"><path d="M4.5 45.5v-2.25H6q1.65 0 3.175-.575T12 40.95q1.25 1.1 2.825 1.675 1.575.575 3.275.625 1.55 0 3.025-.55Q22.6 42.15 24 40.95q1.3 1.15 2.825 1.725 1.525.575 3.175.575t3.125-.55Q34.6 42.15 36 40.95q1.4 1.2 2.875 1.75t3.125.55h1.5v2.25H42q-1.65 0-3.15-.475T36 43.6q-1.35.95-2.825 1.425Q31.7 45.5 30 45.5q-1.65 0-3.15-.475T24 43.6q-1.3.9-2.8 1.4-1.5.5-3.1.5-1.7 0-3.25-.5T12 43.6q-1.35.95-2.825 1.425Q7.7 45.5 6 45.5ZM18 38.25q-1.15 0-2.375-.425T13.5 36.7q.7-.6 1.75-1.375t1.85-1.375l-3.4-6.6q-.4-.75-.625-1.625-.225-.875-.225-1.725v-8q0-1.3.925-2.225T16 12.85h6q2 0 3.8-.65 1.8-.65 3.3-1.9l1.6 1.65q-1.8 1.6-4 2.4-2.2.8-4.7.8h-3.65v8.7h6.1l3.5 3.95q3.5-1.5 6.05-2.225 2.55-.725 4.3-.725 1.35 0 2.1.45t.75 1.35q0 1.95-2.95 5.025T30.3 37.9q-.3.15-.55.225-.25.075-.5.075-1.4 0-2.75-.75t-2.5-2.1q-1.25 1.45-2.8 2.175-1.55.725-3.2.725Zm1.25-5.8q1.1-.65 3.1-1.775T25.8 28.8l-2.45-2.65-6.6.5ZM16 9.45q-1.4 0-2.425-1.025T12.55 6q0-1.4 1.025-2.425T16 2.55q1.4 0 2.425 1.025T19.45 6q0 1.4-1.025 2.425T16 9.45Zm16.7-.4-1.2-1.2 5.55-5.55h2.35Z"/></svg>