<svg xmlns="http://www.w3.org/2000/svg" width="48" height="48" viewBox="0 -960 960 960"><path d="M329.616-315.001v-45.384h94.23Q420-349.846 418-338.501q-2 11.346-3 23.5h-85.384Zm-2.692 215q-77.615 0-132.269-54.077-54.654-54.077-54.654-131.307v-361.539q-30.307 0-51.692-21.192-21.384-21.192-21.384-51.499v-67.307q0-30.308 21.385-51.692 21.384-21.385 51.691-21.385h373.46q30.308 0 51.884 21.385 21.577 21.384 21.577 51.692v67.307q0 30.307-21.577 51.499-21.576 21.192-51.884 21.192v156.539q-5.923 4.692-11.23 9.308-5.308 4.615-11 9.153H329.616v-45.383h138.462v-129.617H185.385v361.539q0 58.718 41.41 99.359 41.411 40.641 100.129 40.641 32.538 0 60.345-13.923 27.808-13.923 46.808-37.307 4.846 11.868 10.423 22.164 5.576 10.297 12.884 21.22-25.692 24.999-58.791 39.114-33.099 14.116-71.669 14.116Zm333.704-79.23q47.679 0 80.641-32.82 32.961-32.821 32.961-80.501 0-47.679-32.82-80.641-32.821-32.961-80.501-32.961-47.679 0-80.641 32.82-32.961 32.821-32.961 80.501 0 47.679 32.821 80.641 32.82 32.961 80.5 32.961ZM864.769-57.078 755.845-166q-20.846 15.385-44.978 23.769-24.132 8.385-50.098 8.385-66.218 0-112.532-46.348-46.314-46.349-46.314-112.615 0-66.267 46.348-112.497 46.349-46.231 112.615-46.231 66.267 0 112.497 46.314 46.231 46.314 46.231 112.531 0 25.967-8.385 50.099-8.384 24.132-23.769 44.978L896.383-88.692l-31.614 31.614Z"/></svg>