<svg xmlns="http://www.w3.org/2000/svg" width="48" height="48" viewBox="0 -960 960 960"><path d="M150.771-220.001 317.838-480 150.771-739.999h429.151q22.384 0 41.154 11.116 18.769 11.115 31.769 28.884L809.229-480 651.306-259.232q-13 17-31.139 28.115-18.14 11.116-40.245 11.116H150.771Zm82.691-45.384h355.383q5.769 0 10.77-2.693 5-2.692 8.462-7.308L753.307-480l-145.23-204.614q-3.462-4.616-8.078-7.308-4.615-2.693-11.154-2.693H233.462L372.385-480 233.462-265.385ZM372.385-480 233.462-694.615 372.385-480 233.462-265.385 372.385-480Z"/></svg>