<svg xmlns="http://www.w3.org/2000/svg" width="48" height="48" viewBox="0 0 48 48"><path d="M34.6 32.6q1.65 0 3.3-.8t3.05-2.3v-6.55q-1.5.2-2.65.475-1.15.275-2.25.625-2.65.85-3.925 2.1T30.85 29.1q0 1.6 1.025 2.55 1.025.95 2.725.95Zm-.35 2q-2.55 0-4.1-1.5-1.55-1.5-1.55-3.95 0-2.4 1.65-4.025 1.65-1.625 5.1-2.725.95-.3 2.35-.575 1.4-.275 3.25-.575V21q0-2.9-.95-4.35-.95-1.45-3.45-1.45-1.3 0-2.675.475-1.375.475-3.075 1.575l-.95-1.7q1.65-1.1 3.45-1.725 1.8-.625 3.6-.625 3.3 0 4.8 2.05T43.2 21v13.15h-1.9l-.25-2.6q-1.55 1.5-3.35 2.275-1.8.775-3.45.775Zm-28.85.35q-.3-.35-.575-.675-.275-.325-.575-.575 3.5-1.6 5.6-4.725Q11.95 25.85 13 21.9H4.4v-1.6h8.95q.35-1.7.525-3.425.175-1.725.175-3.475h1.7q0 1.75-.175 3.475T15.1 20.3h10.2v1.6h-9.45q1.3 4 3.7 7.1 2.4 3.1 5.95 4.55-.4.4-.675.725-.275.325-.525.675-3.6-1.7-6.05-4.8-2.45-3.1-3.8-7.1-1.15 4.05-3.325 7.175Q8.95 33.35 5.4 34.95Z"/></svg>