<svg xmlns="http://www.w3.org/2000/svg" width="48" height="48" viewBox="0 -960 960 960"><path d="M137.308-100.001v-45.384h285.384v45.384H137.308ZM680-146.54q-26.307 0-44.884-18.769t-18.577-45.076H489.617q-12.231 0-20.539-8.962-8.307-8.961-8.307-21.807-.462-83.307 57.269-140.999 57.73-57.691 139.268-65.614v-385.307h45.384v385.307q82.538 7.923 139.96 65.614 57.423 57.692 56.962 140.999 0 12.846-8.308 21.807-8.307 8.962-20.538 8.962H743.846q0 26.307-18.577 45.076Q706.692-146.54 680-146.54Zm-422.692-63.461V-520H91.618q-14.616 0-23.231-11.423-8.616-11.423-4.616-25.038l70.615-262.305q2.615-9.616 9.923-15.423 7.307-5.808 17.923-5.808h236.536q10.616 0 17.923 5.808 7.308 5.807 9.923 15.423l70.615 262.305q4 13.615-4.615 25.038Q483.998-520 469.383-520H302.692v309.999h-45.384Z"/></svg>