<svg xmlns="http://www.w3.org/2000/svg" width="48" height="48" viewBox="0 -960 960 960"><path d="M150.385-140.001q-23.528 0-40.61-17.082t-17.082-40.611V-677.23q0-23 17.082-40.346 17.082-17.346 40.61-17.346h137.384l73.385-85.077h236.923v45.384H382.23l-73.384 85.077H150.385q-5.385 0-8.846 3.654-3.462 3.654-3.462 8.654v479.536q0 5.385 3.462 8.847 3.461 3.462 8.846 3.462h644.613q5.385 0 8.847-3.462 3.462-3.462 3.462-8.847v-447.691h45.383v447.691q0 23.529-17.346 40.611-17.346 17.082-40.346 17.082H150.385ZM829-685.385q0-79.846-55.361-135.384-55.361-55.539-135.562-55.539v-38.307q95.384 0 162.307 66.923 66.923 66.923 66.923 162.307H829Zm-92.001 0q0-41.538-28.661-70.23-28.661-28.692-70.261-28.692v-38.308q56.845 0 97.037 40.192 40.192 40.192 40.192 97.038h-38.307ZM472.692-437.154Zm-.308 157.307q66.923 0 112.269-45.346 45.346-45.346 45.346-112.269 0-66.922-45.346-111.96-45.346-45.039-112.269-45.039t-111.961 45.039q-45.038 45.038-45.038 111.96 0 66.923 45.038 112.269 45.038 45.346 111.961 45.346Zm0-45.384q-48.077 0-79.846-32.077-31.769-32.077-31.769-80.154t31.769-79.846q31.769-31.769 79.846-31.769 48.077 0 80.154 31.769t32.077 79.846q0 48.077-32.077 80.154t-80.154 32.077Z"/></svg>