<svg xmlns="http://www.w3.org/2000/svg" width="48" height="48" viewBox="0 -960 960 960"><path d="M157.694-100.001q-23.616 0-40.654-17.039-17.039-17.038-17.039-40.654v-644.612q0-23.616 17.039-40.654 17.038-17.039 40.654-17.039h644.612q23.616 0 40.654 17.039 17.039 17.038 17.039 40.654v644.612q0 23.616-17.039 40.654-17.038 17.039-40.654 17.039H157.694Zm112.768-152.923h419.076q32.385 0 46.384-17.077 14-17.077 14-43.307v-162.308q0-26.077-15.615-46.307-15.616-20.231-37.231-28.538v-40.231q0-42.769-30.115-72.692-30.115-29.922-72.5-29.922H365.539q-42.385 0-72.5 29.922-30.115 29.923-30.115 72.692v40.846q-21.615 8.307-37.231 28.538-15.615 20.231-15.615 46.308v161.692q0 32 16.884 46.192 16.885 14.192 43.5 14.192Zm0-40.384q-8.385 0-14.193-5.808-5.807-5.807-5.807-14.192v-162.308q0-18.615 11.5-30.115t30.115-11.5q18.231 0 29.731 11.5t11.5 30.115v86.308h293.384v-86.308q0-18.615 11.5-30.115t29.731-11.5q18.615 0 30.115 11.5t11.5 30.115v162.308q0 8.385-5.807 14.192-5.808 5.808-14.193 5.808H270.462Zm103.23-136.384V-475q0-33.769-20.808-54.961-20.807-21.193-49.576-22.808v-37.923q0-27 17.808-44.615 17.807-17.615 44.423-17.615h228.922q26.616 0 44.423 17.615 17.808 17.615 17.808 44.615v37.923q-28.769 1.615-49.576 22.808-20.808 21.192-20.808 54.961v45.308H373.692Z"/></svg>