<svg xmlns="http://www.w3.org/2000/svg" width="48" height="48" viewBox="0 96 960 960"><path d="m529.307 532.769-86.076-86.076q7.462-6.077 16.654-9.731T480 433.308q25.798 0 44.245 18.447T542.692 496q0 10.923-3.654 20.115-3.654 9.192-9.731 16.654Zm312.54 470.311L644.231 805.46Q610.462 844.653 570 885.326q-40.461 40.673-90 82.981-156.384-136.073-233.192-252.306Q170.001 599.769 170.001 504q0-39.923 8.259-75.335 8.259-35.411 22.587-66.589l-150.23-150.23 32.23-32.999 791.614 791.614-32.614 32.619ZM713.154 716.23q38.922-58.722 57.884-111.514Q789.999 551.923 789.999 504q0-145.427-93.615-231.713t-216.447-86.286q-59.869 0-115.03 21.436t-98.137 62.409l31.615 32q35.281-33.775 81.361-52.119Q425.825 231.384 480 231.384q111.702 0 188.159 76.451T744.616 504q0 37.231-16.308 82.423T679.539 683l33.615 33.23ZM480 907.77q38.616-34.462 71.27-67.885 32.654-33.424 60.346-67.039L235.308 396.537q-9.462 24.462-14.693 51.113T215.384 504q0 76.154 67.693 181.385Q350.769 790.616 480 907.77Zm-56.538-323.079Zm66-92.153Z"/></svg>