<svg xmlns="http://www.w3.org/2000/svg" width="48" height="48" viewBox="0 -960 960 960"><path d="M552.81-407.15q29.88-29.84 29.88-72.8 0-42.97-29.84-72.86-29.84-29.88-72.8-29.88-42.97 0-72.86 29.84-29.88 29.84-29.88 72.8 0 42.97 29.84 72.86 29.84 29.88 72.8 29.88 42.97 0 72.86-29.84ZM225.39-185.39h503.53v-1.15q0-13.76-3.15-26.69-3.16-12.92-13.16-21.31-51.23-38.85-110.62-59.27-59.4-20.42-123.76-20.42-63.08 0-122.04 20.61-58.96 20.62-108.65 59.5-11.15 8.35-16.65 21.09-5.5 12.73-5.5 26.88v.76ZM180-140v-450l300-225.38L780-590v450H180Z"/></svg>