<svg xmlns="http://www.w3.org/2000/svg" width="48" height="48" viewBox="0 -960 960 960"><path d="M480.07-100q-82.68 0-154.07-32.31-71.38-32.31-122.95-87.19-51.56-54.88-79.34-128.59-27.79-73.71-23.09-155.29H147q-5.08 72.69 18.5 137.5 23.58 64.8 69.31 114.19 45.73 49.38 108.88 78.34 63.14 28.96 136.31 28.96 139.69 0 237.15-97.46 97.46-97.46 97.46-237.15t-97.46-237.15Q619.69-813.61 480-813.61q-101.15 0-181.85 53.23-80.69 53.23-120.77 138.53h125.54v45.39H100V-780h45.39v120.93Q194-749.69 281.92-804.84 369.85-860 480-860q78.85 0 148.2 29.92t120.65 81.21q51.3 51.29 81.22 120.63Q860-558.9 860-480.07q0 78.84-29.92 148.21t-81.21 120.68q-51.29 51.31-120.63 81.25Q558.9-100 480.07-100ZM400-328.46q-14.17 0-24.01-9.84-9.84-9.83-9.84-24.01v-120q0-14.17 11.5-24.2t28.5-10.03v-45.77q0-30.43 21.71-52.33t52.14-21.9q30.43 0 52.33 21.9t21.9 52.33v45.77q16.62 0 28.31 10.03 11.69 10.03 11.69 24.2v120q0 14.18-10.03 24.01-10.03 9.84-24.2 9.84H400Zm34.23-188.08h91.92v-45.62q0-19.53-13.38-32.92-13.39-13.38-32.77-13.38-19.38 0-32.58 13.38-13.19 13.39-13.19 32.92v45.62Z"/></svg>