<svg xmlns="http://www.w3.org/2000/svg" width="48" height="48" viewBox="0 96 960 960"><path d="M373.847 768.23h212.691v-45.384H419.23V609.385q0-5 3.462-8.654 3.462-3.655 8.847-3.655h97.307q23.23 0 40.461-17.081 17.231-17.082 17.231-40.611v-97.922q0-23.529-17.231-40.61-17.231-17.082-40.461-17.082H373.847v45.384h154.999q5 0 8.654 3.654t3.654 8.654v97.922q0 5.385-3.654 8.847-3.654 3.462-8.654 3.462h-97.307q-23.529 0-40.611 17.082-17.081 17.081-17.081 40.61V768.23ZM197.694 915.999q-23.529 0-40.611-17.082-17.082-17.082-17.082-40.611V293.694q0-23.529 17.082-40.611 17.082-17.082 40.611-17.082h564.612q23.529 0 40.611 17.082 17.082 17.082 17.082 40.611v564.612q0 23.529-17.082 40.611-17.082 17.082-40.611 17.082H197.694Zm0-45.384h564.612q4.616 0 8.463-3.846 3.846-3.847 3.846-8.463V293.694q0-4.616-3.846-8.463-3.847-3.846-8.463-3.846H197.694q-4.616 0-8.463 3.846-3.846 3.847-3.846 8.463v564.612q0 4.616 3.846 8.463 3.847 3.846 8.463 3.846Zm-12.309-589.23v589.23-589.23Z"/></svg>