<svg xmlns="http://www.w3.org/2000/svg" width="48" height="48" viewBox="0 96 960 960"><path d="M373.847 768.23h154.999q23.23 0 40.461-17.038 17.231-17.039 17.231-40.654V609.385q0-23.615-17.231-40.654-17.231-17.038-40.461-17.038H419.23V429.154h167.308V383.77H373.847v213.306h154.999q5 0 8.654 3.655 3.654 3.654 3.654 8.654v101.153q0 5-3.654 8.654t-8.654 3.654H373.847v45.384ZM197.694 915.999q-23.616 0-40.654-17.039-17.039-17.038-17.039-40.654V293.694q0-23.616 17.039-40.654 17.038-17.039 40.654-17.039h564.612q23.616 0 40.654 17.039 17.039 17.038 17.039 40.654v564.612q0 23.616-17.039 40.654-17.038 17.039-40.654 17.039H197.694Z"/></svg>