<svg xmlns="http://www.w3.org/2000/svg" width="48" height="48" viewBox="0 -960 960 960"><path d="M457.308-288.385h45.384v-166.077h165.692v-45.384H502.692v-165.692h-45.384v165.692H291.616v45.384h165.692v166.077Zm22.468 188.384q-78.484 0-147.875-29.92-69.39-29.92-120.72-81.21-51.33-51.291-81.255-120.629-29.925-69.337-29.925-148.173t29.92-148.204q29.92-69.369 81.21-120.682 51.291-51.314 120.629-81.247 69.337-29.933 148.173-29.933t148.204 29.925q69.369 29.925 120.682 81.225 51.314 51.3 81.247 120.65Q859.999-558.85 859.999-480v306.04q0 30.688-21.636 52.323-21.635 21.636-52.305 21.636H479.776Zm.187-45.384q140.104 0 237.378-97.237 97.274-97.236 97.274-237.341 0-140.104-97.237-237.378-97.236-97.274-237.341-97.274-140.104 0-237.378 97.237-97.274 97.236-97.274 237.341 0 140.104 97.237 237.378 97.236 97.274 237.341 97.274ZM480-477.154Z"/></svg>