<svg xmlns="http://www.w3.org/2000/svg" width="48" height="48" viewBox="0 -960 960 960"><path d="M277.694-140.001q-23.596 0-40.645-17.097-17.048-17.096-17.048-40.596v-439.613q0-26.182 18.255-44.437t44.437-18.255h87.308v-119.614q0-12.846 10.025-20.846 10.026-8 23.82-8h152.308q13.794 0 23.82 8 10.025 8 10.025 20.846v119.614h92.307q23.5 0 40.596 17.097 17.097 17.096 17.097 40.596v444.612q0 23.5-17.097 40.596-17.096 17.097-40.596 17.097 0 14.692-10.346 25.038t-25.038 10.346q-14.692 0-25.038-10.346t-10.346-25.038H348.462q0 14.692-10.346 25.038t-25.038 10.346q-14.692 0-25.038-10.346t-10.346-25.038Zm125.383-559.998h153.846l-.769-115.384H403.846l-.769 115.384Zm-69.615 449.998h33.076v-339.998h-33.076v339.998Zm130 0h33.076v-339.998h-33.076v339.998Zm130 0h33.076v-339.998h-33.076v339.998Z"/></svg>