<svg xmlns="http://www.w3.org/2000/svg" width="48" height="48" viewBox="0 -960 960 960"><path d="M100.001-558.385v-32.307q0-100.153 93.461-160.883Q286.923-812.306 480-812.306t286.538 60.731q93.461 60.73 93.461 160.883v32.307H100.001Zm46.23-45.383h667.538q.462-71.308-87.846-117.231Q637.616-766.922 480-766.922q-157.616 0-246.731 45.923-89.115 45.923-87.038 117.231Zm-46.23 212.152V-437q33.385 0 55.962-21.423 22.577-21.423 72.538-21.423t67.653 21.423Q313.847-437 352.924-437q39.076 0 58.192-21.423 19.115-21.423 68.884-21.423 49.769 0 68.884 21.423Q568-437 607.076-437q39.077 0 56.385-21.423t67.269-21.423q49.961 0 72.775 21.423Q826.318-437 859.999-437v45.384q-49.769 0-69.5-21.423t-58.808-21.423q-39.076 0-56.961 21.423-17.885 21.423-67.654 21.423-49.769 0-68.884-21.423-19.115-21.423-58.192-21.423t-58.192 21.423q-19.115 21.423-68.884 21.423-49.769 0-67.462-21.423-17.692-21.423-56.769-21.423t-58.857 21.423q-19.78 21.423-69.835 21.423Zm57.693 251.615q-23.529 0-40.611-17.082-17.082-17.082-17.082-40.611v-113.383h759.998v113.383q0 23.529-17.082 40.611-17.082 17.082-40.611 17.082H157.694Zm0-45.384h644.612q4.616 0 8.463-3.846 3.846-3.847 3.846-8.463v-68h-669.23v68q0 4.616 3.846 8.463 3.847 3.846 8.463 3.846Zm0-80.309h-12.309 669.23-656.921Zm-11.463-338.074h667.538-667.538Z"/></svg>