<svg xmlns="http://www.w3.org/2000/svg" width="48" height="48" viewBox="0 -960 960 960"><path d="M480-60.002q-117 0-219.654-68.884-102.654-68.885-156.884-166.194v141.231H58.078v-219.998h219.999v45.383H136.846q45.615 91.232 142.038 157.156Q375.307-105.385 480-105.385q75.692 0 142.884-28.269t117.731-77.461q50.538-49.192 80.923-116 30.384-66.807 32.692-142.884h45.384q-1.923 85.23-35.654 159.845T773.499-179.77q-56.731 55.769-132.307 87.769-75.577 32-161.192 32ZM60.386-490q2.693-87.153 36.808-161.961 34.115-74.807 91.23-130.191 57.116-55.384 132.115-86.615 75-31.231 159.461-31.231 115.846 0 219.654 69.078 103.808 69.077 156.884 167.539V-806.15h45.384v219.998H681.923v-45.383h141.231q-44.461-89.309-140.576-156.194Q586.462-854.615 480-854.615q-74.154 0-141.346 27.884-67.192 27.885-117.923 76.692-50.73 48.808-81.692 115.615-30.961 66.808-33.269 144.423H60.386ZM480-322.694l-48.615-108.691L322.694-480l108.691-49.615L480-638.306l49.615 108.691L638.306-480l-108.691 48.615L480-322.694Z"/></svg>