<svg xmlns="http://www.w3.org/2000/svg" width="48" height="48" viewBox="0 0 48 48"><path d="m11.9 30.3-2.35-2.35q3.15-3.2 6.725-4.8 3.575-1.6 7.725-1.6 4.15 0 7.725 1.625Q35.3 24.8 38.45 27.95L36.1 30.3q-2.8-2.8-5.85-4.1-3.05-1.3-6.25-1.3t-6.25 1.3q-3.05 1.3-5.85 4.1Zm-8.5-8.45L1.1 19.5q4.4-4.5 10.275-7.225Q17.25 9.55 24 9.55t12.625 2.725Q42.5 15 46.9 19.5l-2.3 2.35q-4.3-4.1-9.475-6.525Q29.95 12.9 24 12.9t-11.125 2.425Q7.7 17.75 3.4 21.85ZM24 43l-1.85-4.2-4.5-1.9 4.5-1.95L24 30.6l1.85 4.35 4.5 1.95-4.5 1.9Z"/></svg>