<svg xmlns="http://www.w3.org/2000/svg" width="48" height="48" viewBox="0 -960 960 960"><path d="m237.77-353.923-46.845-47.229q63.461-63.462 134.96-95.769 71.5-32.308 154.115-32.308 82.615 0 154.115 32.5 71.499 32.5 134.96 95.577l-46.845 47.229q-56.384-56.384-117.422-82.192Q543.769-461.922 480-461.922q-63.769 0-124.808 25.807-61.038 25.808-117.422 82.192ZM68.385-523.307 21.54-570.152q88.769-90 206.307-144.538Q345.385-769.229 480-769.229t252.153 54.539q117.538 54.538 206.307 144.538l-46.845 46.845q-85.308-82.077-189.038-130.346Q598.846-701.922 480-701.922t-222.577 48.269q-103.73 48.269-189.038 130.346ZM480-100.001l-37.23-83.692-89.384-38.461L442.77-261 480-348.152 517.23-261l89.384 38.846-89.384 38.461L480-100.001Z"/></svg>