<svg xmlns="http://www.w3.org/2000/svg" width="48" height="48" viewBox="0 -960 960 960"><path d="M759.977-710.153q-42.9 0-72.784-29.907-29.885-29.907-29.885-72.808 0-42.9 29.907-72.784 29.907-29.885 72.808-29.885 42.9 0 72.784 29.907 29.885 29.907 29.885 72.808 0 42.9-29.907 72.784-29.907 29.885-72.808 29.885ZM100.001-118.464v-683.842q0-23.529 17.082-40.611 17.082-17.082 40.611-17.082h425.845q-3.231 10.539-5.038 22.192-1.808 11.654-1.577 23.192 1.307 78.077 54.576 131.269 53.269 53.193 128.5 53.193 27.23 0 52.538-8.115 25.307-8.116 47.461-24.115v344.689q0 23.529-17.082 40.611-17.082 17.082-40.611 17.082H241.539L100.001-118.464Z"/></svg>