<svg xmlns="http://www.w3.org/2000/svg" width="48" height="48" viewBox="0 96 960 960"><path d="M759.977 345.847q-42.9 0-72.784-29.907-29.885-29.907-29.885-72.808 0-42.9 29.907-72.784 29.907-29.885 72.808-29.885 42.9 0 72.784 29.907 29.885 29.907 29.885 72.808 0 42.9-29.907 72.784-29.907 29.885-72.808 29.885ZM100.001 937.536V253.694q0-23 17.082-40.346 17.082-17.347 40.611-17.347h425.845q-3.231 10.539-5.038 22.192-1.808 11.654-1.577 23.192.846 29.923 8.961 56.385Q594 324.231 610 346.616H250.001V392h406.151q22.308 16.539 48.501 25.193 26.193 8.654 55.347 8.654 27.23 0 52.538-8.115 25.307-8.116 47.461-24.115v344.689q0 23-17.347 40.346-17.346 17.347-40.346 17.347H241.539L100.001 937.536Zm150-418.229h459.998v-45.383H250.001v45.383Zm0 127.308h294.921v-45.384H250.001v45.384Z"/></svg>