<svg xmlns="http://www.w3.org/2000/svg" width="48" height="48" viewBox="0 -960 960 960"><path d="M140.001-769.999v-45.384h439.998v45.384H140.001ZM315-275h90v-100h100v-90H405v-100h-90v100H215v90h100v100ZM157.694-140.001q-23.529 0-40.611-17.082-17.082-17.082-17.082-40.611v-444.612q0-23.529 17.082-40.611 17.082-17.082 40.611-17.082h404.612q23.529 0 40.611 17.082 17.082 17.082 17.082 40.611v444.612q0 23.529-17.082 40.611-17.082 17.082-40.611 17.082H157.694Zm612.305-278.387q-35-16.534-57.5-53.426-22.5-36.891-22.5-85.507 0-59.998 29.885-101.338 29.884-41.34 72.807-41.34t72.807 41.35q29.885 41.349 29.885 101.17 0 48.774-22.5 85.665-22.5 36.892-57.5 53.426v255.695q0 9.288-6.403 15.99t-16.302 6.702q-9.294 0-15.987-6.702-6.692-6.702-6.692-15.99v-255.695Z"/></svg>