<svg xmlns="http://www.w3.org/2000/svg" width="48" height="48" viewBox="0 -960 960 960"><path d="m672.153-392.156-33.384-33.769q15.23-19.461 22.538-46.049 7.307-26.588 7.307-54.718h45.384q0 38.692-10.961 72.653-10.962 33.96-30.884 61.883ZM451.769-612.54Zm84.306 84.691-41.076-40.461V-774q0-17.261-11.787-28.938-11.788-11.677-29.213-11.677t-29.02 11.677Q413.384-791.261 413.384-774v122.69L368-696.693V-774q0-36.089 24.984-61.044t61.115-24.955q36.131 0 61.207 24.955 25.077 24.955 25.077 61.044v221.152q0 4.538-.923 12.307t-3.385 12.692ZM431.307-130.001v-141.385q-100.23-9.077-168.768-82.076-68.538-73-68.538-173.23h45.383q0 89.077 62.962 150.115 62.961 61.038 151.653 61.038 41.377 0 78.838-15.03 37.461-15.03 66.24-41.97l32.614 32.23q-30.615 29.461-70.146 47.119-39.531 17.657-84.854 21.804v141.385h-45.384Zm392 39.23L52.54-861.156l29.153-29.153L852.076-119.54l-28.769 28.768Z"/></svg>