<svg xmlns="http://www.w3.org/2000/svg" width="48" height="48" viewBox="0 96 960 960"><path d="m439.001 714.23 162.691-163.076-32.614-32.615-130.077 130.462L301 510.615h97.308v-45.384H221.155v172.691h45.384v-96.538L439.001 714.23ZM167.31 875.999q-23.616 0-40.654-17.039-17.038-17.038-17.038-40.654V333.694q0-23.616 17.038-40.654 17.038-17.039 40.654-17.039h484.612q23.616 0 40.654 17.039 17.039 17.038 17.039 40.654v208.461l140.767-140.768v348.842L709.615 609.461v208.845q0 23.616-17.039 40.654-17.038 17.039-40.654 17.039H167.31Z"/></svg>