<svg xmlns="http://www.w3.org/2000/svg" width="48" height="48" viewBox="0 -960 960 960"><path d="M774.999-18.848 502.692-291.155v201.154h-45.384v-201.154l-154 153.616-32.615-32 177.308-177.307-101.155-101.155-174.461 174.462-33.23-31.384 152-152.385H90.001v-45.384h201.154L59.463-734.384l32.614-32.615L807.615-51.462 775-18.847Zm16.078-251.845L604.462-457.308h-94.847l-52.307-52.307v-94.847L273.539-788.231l32-33.23 151.769 151.616v-200.154h45.384v200.154l154.615-153.846 32 32.614-186.615 186.615v101.77h101.77l184.384-184.384 32.615 31.999-151.616 152.385h200.154v45.384H669.845l152.616 154-31.384 32.615Z"/></svg>