<svg xmlns="http://www.w3.org/2000/svg" width="48" height="48" viewBox="0 0 48 48"><path d="M36.85 45.5v-6.35H30.5v-2.3h6.35V30.5h2.3v6.35h6.35v2.3h-6.35v6.35ZM24 23.3q2.3 0 3.925-1.625t1.625-3.925q0-2.3-1.625-3.925T24 12.2q-2.3 0-3.925 1.625T18.45 17.75q0 2.3 1.625 3.925T24 23.3Zm-3.1-4.55q-.4 0-.7-.3-.3-.3-.3-.7 0-.4.3-.7.3-.3.7-.3.4 0 .7.3.3.3.3.7 0 .4-.3.7-.3.3-.7.3Zm3.1 0q-.4 0-.7-.3-.3-.3-.3-.7 0-.4.3-.7.3-.3.7-.3.4 0 .7.3.3.3.3.7 0 .4-.3.7-.3.3-.7.3Zm3.1 0q-.4 0-.7-.3-.3-.3-.3-.7 0-.4.3-.7.3-.3.7-.3.4 0 .7.3.3.3.3.7 0 .4-.3.7-.3.3-.7.3ZM9.9 41q-1.2 0-2.05-.85Q7 39.3 7 38.1V9.9q0-1.2.85-2.05Q8.7 7 9.9 7h28.2q1.2 0 2.05.85.85.85.85 2.05v17.45q-.7-.25-1.475-.375-.775-.125-1.525-.125-4.65 0-7.9 3.25T26.85 38q0 .75.125 1.5t.375 1.5Z"/></svg>