<svg xmlns="http://www.w3.org/2000/svg" width="48" height="48" viewBox="0 -960 960 960"><path d="M157.69-180q-23.61 0-40.65-17.04T100-237.69v-484.62q0-23.84 17.12-40.77Q134.23-780 158.08-780h18.08l409.45 409.46-94.07 94.08V-180H157.69Zm473.46-234.08L269.46-780h69.93l67.07 137.39-3.07-3.08h128.84L466.69-780h121.93l65.53 134.31h127.31L715.92-780h86.39q23.61 0 40.65 17.04T860-722.31v183.08q-34.92-13.08-67.27-8.39-32.35 4.7-59.5 31.85L631.15-414.08Zm184.16 62.39 37-38.62-37-37.38-38 38 38 38Zm-25.54 91.61L684.69-364.77l97.08-97.08q7.46-7.07 16.15-10.3 8.69-3.23 17.39-3.23 9.3 0 18.19 3.53 8.88 3.54 15.96 10.62l37 37.38q7.08 7.47 10.31 16.16Q900-399 900-390.31t-3.54 17.69q-3.54 9-10.62 16.46l-96.07 96.08ZM872.15-84l-32.23 32.61-129.61-129.23-40 40.62H564.62v-105.69l40.61-40L51.39-839.92 84-872.15 872.15-84Z"/></svg>