<svg xmlns="http://www.w3.org/2000/svg" width="48" height="48" viewBox="0 -960 960 960"><path d="m127-233.693-31.999-32.615L376-548.076l162.692 163.692 147.462-165.231q-61.538-71.308-138.577-112.154-77.038-40.847-168.423-40.847-71.231 0-135.577 25.039-64.346 25.038-117.346 69.73l-32-32.23q59.693-51.769 131.923-79.845 72.231-28.077 153-28.077 97.307 0 183.269 43.5 85.961 43.5 153.115 121.269l119.231-134.461 30.999 33.23-122.846 139.076q33.231 49.846 54.808 111.846 21.577 62 31.961 127.154h-45.383q-6.769-50.693-25.231-101.462-18.462-50.769-48-101.462L540.538-318.924 376-483.462 127-233.693Z"/></svg>