<svg xmlns="http://www.w3.org/2000/svg" width="48" height="48" viewBox="0 -960 960 960"><path d="M808.846-220.308v-326.845h45.383v326.845h-45.383Zm22.691 118.46q-12.076 0-20.461-8.385-8.384-8.384-8.384-20.076 0-11.308 8.384-20.077 8.385-8.769 20.461-8.769 10.923 0 19.692 8.769 8.77 8.769 8.77 20.077 0 11.692-8.77 20.076-8.769 8.385-19.692 8.385Zm-364.032-13.077q-10.417 0-20.846-4.616-10.429-4.615-19.429-13L120.232-439.539q-8.384-9-12.692-19.728-4.308-10.728-4.308-21.653 0-11.311 4.308-21.541 4.308-10.231 12.692-18.616L428.23-829.075q8.615-8.115 19.106-12.365 10.49-4.25 20.971-4.25 10.865 0 21.163 4t18.683 12.615l219.922 219.153v83.844L473.846-780.307q-3.077-2.692-6.155-2.692-3.077 0-6.154 2.692L167.769-486.154q-3.077 3.077-3.077 6.154t3.077 6.154l293.768 293.768q3.077 3.077 6.154 3.077 3.078 0 6.155-3.077l254.229-253.844v82.844L508.768-132.541q-9.366 8.616-19.913 13.116-10.548 4.5-21.35 4.5Zm.186-172.462L275.078-480l192.613-192.613L660.305-480 467.691-287.387Z"/></svg>