<svg xmlns="http://www.w3.org/2000/svg" width="48" height="48" viewBox="0 -960 960 960"><path d="M366.924-148.464q-59.019 0-101.048-42.028-42.028-42.029-42.028-101.047v-339.23q0-75.307 52.874-128.037 52.875-52.73 127.894-52.73h150.768q75.307 0 128.038 52.73 52.73 52.73 52.73 128.037v339.23q0 59.018-42.028 101.047-42.029 42.028-101.048 42.028H366.924Zm0-45.383h226.152q41.048 0 69.371-28.322 28.322-28.322 28.322-69.37v-339.23q0-56.076-39.654-95.73t-95.731-39.654H404.616q-56.077 0-95.731 39.654-39.654 39.654-39.654 95.73v339.23q0 41.048 28.323 69.37 28.322 28.322 69.37 28.322Zm-.193-258.076q12.039 0 20.154-8.423T395-479.808q0-12.038-8.12-20.153-8.12-8.116-19.956-8.116-11.231 0-19.654 8.12-8.423 8.121-8.423 19.957 0 11.231 8.423 19.654t19.461 8.423Zm113.077 0q12.038 0 20.153-8.423 8.116-8.423 8.116-19.462 0-12.038-8.12-20.153-8.121-8.116-19.957-8.116-11.231 0-19.654 8.12-8.423 8.121-8.423 19.957 0 11.231 8.423 19.654t19.462 8.423Zm113.076 0q12.038 0 20.154-8.423 8.115-8.423 8.115-19.462 0-12.038-8.12-20.153-8.12-8.116-19.957-8.116-11.23 0-19.653 8.12Q565-491.836 565-480q0 11.231 8.423 19.654t19.461 8.423ZM480-480Z"/></svg>