<svg xmlns="http://www.w3.org/2000/svg" width="48" height="48" viewBox="0 -960 960 960"><path d="M480.04-377.308q77.909 0 130.281-54.923Q662.692-487.154 662.692-560v-182.692H480q-73.859 0-128.276 52.378-54.416 52.378-54.416 130.297 0 27.863 9.577 54.94 9.577 27.077 27.346 54.231L308-425q-7.076 7.147-7.076 16.035T308.055-393q7.132 7.076 16 6.884 8.868-.192 15.945-7.269l25.615-23.846q25.616 19.153 55.577 29.538 29.962 10.385 58.848 10.385Zm-.04-45.384q-20.077 0-41.539-7.538-21.462-7.539-40.231-20.001L518-570q7.076-7.128 7.076-16.526 0-9.397-7.131-16.474-7.132-7.076-16-7.076T486-603L365.231-482.23q-9.539-19.385-16.039-40.039-6.5-20.654-6.5-37.815 0-60.028 41.077-98.626 41.077-38.598 96.231-38.598h137.308V-560q0 56.725-40.115 97.016-40.116 40.292-97.193 40.292Zm0 314.228L368.462-220.001H197.694q-23.529 0-40.611-17.347-17.082-17.346-17.082-40.346v-564.612q0-23.529 17.082-40.611 17.082-17.082 40.611-17.082h564.612q23 0 40.346 17.082 17.347 17.082 17.347 40.611v564.612q0 23-17.347 40.346-17.346 17.347-40.346 17.347H591.538L480-108.464Z"/></svg>