<svg xmlns="http://www.w3.org/2000/svg" width="48" height="48"><path d="M40.7 23.35q-.85 0-1.45-.6t-.6-1.4V9.45q0-.85.6-1.45t1.45-.6q.85 0 1.425.6.575.6.575 1.45v11.9q0 .8-.575 1.4-.575.6-1.425.6zm-20.7 0q-2.8 0-4.725-1.925Q13.35 19.5 13.35 16.7q0-2.75 1.925-4.675Q17.2 10.1 20 10.1t4.725 1.925Q26.65 13.95 26.65 16.7q0 2.8-1.925 4.725Q22.8 23.35 20 23.35zM5 38.6v-3.8q0-1.5.825-2.75t2.225-1.9q2.85-1.25 5.85-2.025 3-.775 6.1-.775 3.15 0 6.1.8 2.95.8 5.8 2 1.4.65 2.25 1.9.85 1.25.85 2.75v3.8z"/></svg>