<svg xmlns="http://www.w3.org/2000/svg" width="48" height="48" viewBox="0 0 48 48"><path d="M28.7 41.2q-1.2 0-2-.325T25.15 40V7.95q.75-.55 1.55-.875.8-.325 1.9-.325 2.35 0 4.05 1.7 1.7 1.7 1.75 4.05v.35q2.75.25 4.725 2.3Q41.1 17.2 41.1 20.1q0 1.15-.325 2.2-.325 1.05-.925 1.9.5.95.775 1.95t.275 2q0 2.95-1.8 4.95t-4.5 2.3q-.2 2.3-1.875 4.05T28.7 41.2Zm-9.35 0q-2.4 0-4.1-1.75-1.7-1.75-1.85-4.05-2.7-.3-4.5-2.375Q7.1 30.95 7.1 28q0-1.05.25-2t.75-1.8q-.6-.9-.9-1.925-.3-1.025-.3-2.175 0-2.85 1.925-4.9 1.925-2.05 4.675-2.35v-.35q.05-2.4 1.75-4.075 1.7-1.675 4.1-1.675 1.1 0 1.925.3t1.575.9V40q-.75.55-1.575.875-.825.325-1.925.325Z"/></svg>