<svg xmlns="http://www.w3.org/2000/svg" width="48" height="48" viewBox="0 96 960 960"><path d="M147.693 925.999q-23.5 0-40.596-17.096-17.096-17.096-17.096-40.596V240.233L147 297.232l66-67 67 67 67-67 66 67 67-67 67 67 66-67 67 67 67-67 66 67 56.999-56.999v628.074q0 23.5-17.096 40.596-17.096 17.096-40.596 17.096H147.693Zm0-45.383h309.615V591.384H135.384v276.923q0 5.385 3.462 8.847 3.462 3.462 8.847 3.462Zm354.999 0h309.615q5.385 0 8.847-3.462 3.462-3.462 3.462-8.847V758.692H502.692v121.924Zm0-167.308h321.924V591.384H502.692v121.924ZM135.384 546.001h689.232V402.153H135.384v143.848Z"/></svg>