<svg xmlns="http://www.w3.org/2000/svg" width="48" height="48"><path d="m42.7 48.3-5.45-5.5q-.35.1-.7.15-.35.05-.8.05H11.9q-1.25 0-2.075-.825Q9 41.35 9 40.1v-20q0-1.05.75-1.925t1.9-.925L-.15 5.45l1.65-1.6L44.35 46.7zM39 36.7 19.5 17.2h10.85v-4.55q0-2.6-1.85-4.5T24 6.25q-2.65 0-4.5 1.9t-1.85 4.5v2.65L15.3 13q-.2-3.7 2.375-6.35Q20.25 4 24 4q3.6 0 6.125 2.55t2.525 6.1v4.55h3.45q1.25 0 2.075.85.825.85.825 2.05zm-15-3.2q.75 0 1.45-.3t1.25-1l-4.8-4.7q-.6.55-.95 1.225T20.6 30.2q0 1.35.975 2.325.975.975 2.425.975z"/></svg>