<svg xmlns="http://www.w3.org/2000/svg" width="48" height="48"><path d="m42.1 45.35-5.7-5.7q-.35.6-.925.975Q34.9 41 34.1 41q0 .75-.5 1.25t-1.25.5q-.75 0-1.25-.5T30.6 41H17.4q0 .75-.5 1.25t-1.25.5q-.75 0-1.25-.5T13.9 41q-1.2 0-2.05-.85Q11 39.3 11 38.1V16.15q0-.4.1-.775t.3-.675L2.55 5.8l1.6-1.65L43.7 43.7zM16.65 35.5V19.95l-3.2-3.25q-.1.1-.15.2-.05.1-.05.25V38.1q0 .3.175.475t.475.175h20.2q.25 0 .425-.175t.175-.475v-.15l-3.2-3.15v.7h-1.85v-2.55l-4.8-4.85v7.4h-1.7v-9.05l-4.8-4.85v13.9zM37 32.35l-2.25-2.25V15.9q0-.3-.175-.475t-.475-.175H19.9l-2.6-2.6h1.2V7q0-.6.4-1t1.05-.4h8.1q.65 0 1.05.4t.4 1v6h4.6q1.2 0 2.05.85.85.85.85 2.05zm-5.65-5.65-1.7-1.65V18.5h1.7zm-6.5-6.4L23.6 19v-.5h1.25zm-4.7-7.3h7.7V7.25h-7.7zm7.15 9.7zm-3.2 4.65z"/></svg>