<svg xmlns="http://www.w3.org/2000/svg" width="48" height="48" viewBox="0 -960 960 960"><path d="m859.999-193.54-45.384-44.384V-677.23q0-5-3.462-8.654t-8.847-3.654h-158.46l-73.385-85.077H389.539l-51.385 59.846-31.999-31.615 62.307-73.615h223.076l73.384 85.077h137.384q23 0 40.346 17.346 17.347 17.346 17.347 40.346v483.69ZM634.076-418.463 461.309-591.23q36.461-3.538 70.46 6.577 34 10.116 60 35.731 25.615 25.999 36.23 60.191 10.615 34.192 6.077 70.268Zm-165.075-7.307ZM576-476.539ZM225.078-734.922l45.384 45.384H157.694q-4.616 0-8.463 3.846-3.846 3.847-3.846 8.462v479.536q0 5.385 3.462 8.847 3.462 3.462 8.847 3.462h551.692L50.617-844.154l32.615-32.614L874.46-85.538l-32.614 32.614-87.078-87.077H157.694q-23.616 0-40.654-17.039-17.039-17.038-17.039-40.654V-677.23q0-23.615 17.039-40.653 17.038-17.039 40.654-17.039h67.384Zm150.385 182.384 32.614 32.614q-19.308 16.385-29.346 37.616-10.039 21.231-10.039 45.769 0 46.154 32.577 78.731 32.577 32.577 78.731 32.577 23.433 0 45.409-10.154t38.361-28.461l32.614 32.23q-22.846 25-52.973 38.384-30.127 13.385-63.411 13.385-65.416 0-111.054-45.638-45.637-45.637-45.637-111.054 0-32.899 13.384-63.218 13.385-30.32 38.77-52.781Z"/></svg>