<svg xmlns="http://www.w3.org/2000/svg" width="48" height="48" viewBox="0 -960 960 960"><path d="M480.017-336.539q12.29 0 21.56-9.094 9.269-9.094 9.269-21.384 0-12.291-9.286-21.56-9.286-9.269-21.577-9.269-12.29 0-21.367 9.286-9.077 9.286-9.077 21.577 0 12.29 9.094 21.367 9.093 9.077 21.384 9.077ZM460-453.616h40.384q0-14.23 1.077-23.884t6.462-18.039q4.769-8 12.154-16.154 7.384-8.153 24.615-24.384 21.462-19.231 30.577-37.962 9.115-18.73 9.115-43.576 0-41.619-27.923-67.002Q528.538-710 484.124-710q-36.047 0-65.124 19.079-29.076 19.079-40.846 50.767l36.538 14.923q9.154-20.385 27.539-33 18.384-12.615 41.938-12.615 25.985 0 42.908 14.961Q544-640.923 544-616.385q0 18.174-8.192 31.549t-28.489 32.662q-15.934 14.328-25.242 25.02-9.307 10.693-13.307 21.03-4.77 9.817-6.77 22.163t-2 30.345Zm20 365.923Q323.616-223.539 246.808-339.885 170.001-456.231 170.001-552q0-145.384 93.615-231.692Q357.231-869.999 480-869.999q122.769 0 216.384 86.307Q789.999-697.384 789.999-552q0 95.769-76.807 212.115Q636.384-223.539 480-87.693Z"/></svg>