<svg xmlns="http://www.w3.org/2000/svg" width="48" height="48"><path d="M8.5 37.75v-2.3h4.15V20q0-.9.15-1.775.15-.875.35-1.575l-8.4-8.4 1.6-1.6 35.35 35.4-1.6 1.55-5.9-5.85zm26.9-6.65-2.3-2.25V20q0-3.8-2.625-6.475T24.1 10.85q-1.75 0-3.425.6-1.675.6-2.975 1.95l-1.6-1.6q1.3-1.3 2.7-2 1.4-.7 2.85-1V7.35q0-.95.675-1.6Q23 5.1 24 5.1t1.675.65q.675.65.675 1.6V8.8q3.75.7 6.4 3.825Q35.4 15.75 35.4 20zM23.5 27zm.5 16.6q-1.5 0-2.55-1.05Q20.4 41.5 20.4 40h7.2q0 1.5-1.05 2.55Q25.5 43.6 24 43.6zm-9.1-8.15h17L15.05 18.6q-.1.25-.125.45-.025.2-.025.45zM25.45 21.2z"/></svg>