<svg xmlns="http://www.w3.org/2000/svg" width="48" height="48" viewBox="0 -960 960 960"><path d="M170.001-205.385v-45.384h82.846v-309.077q0-79.307 49.692-144.076 49.692-64.769 130.308-80.231v-28.615q0-19.955 13.38-32.439 13.38-12.484 33.538-12.484 20.158 0 33.773 12.484 13.615 12.484 13.615 32.439v28.683q25 4.52 49.539 15.88 24.538 11.36 43.923 27.59l-16.308 16.308L588-708q-22.385-17.231-50.692-26.038-28.308-8.808-57.599-8.808-76.526 0-129.003 53.284-52.476 53.283-52.476 129.716v309.077h364.155v-155.308h45.384v155.308h82.23v45.384H170.001ZM480-87.693q-30.307 0-51.307-21-21-21-21-51.307h144.614q0 30.307-21 51.307-21 21-51.307 21ZM777.308-450v-127.307H650.001v-45.384h127.307v-127.307h45.384v127.307h127.307v45.384H822.692V-450h-45.384Zm-296.693-47Z"/></svg>