<svg xmlns="http://www.w3.org/2000/svg" width="48" height="48" viewBox="0 -960 960 960"><path d="m849.999-74.233-97.462-97.692q-15.846 10.615-34.807 16.923-18.962 6.308-40.423 6.308-56.461 0-95.73-39.269-39.269-39.269-39.269-95.73 0-56.846 39.269-95.923 39.269-39.076 95.73-39.076 56.461 0 95.73 39.076 39.269 39.077 39.269 95.923 0 22.846-7.385 43.577-7.385 20.73-20.385 37.576l97.077 97.077-31.614 31.23ZM677.307-194.078q37.615 0 63.615-26t26-63.615q0-37.616-26-63.616t-63.615-26q-37.616 0-63.616 26t-26 63.616q0 37.615 26 63.615t63.616 26ZM139.617-90.001V-320q0-42.923 29.884-72.807 29.885-29.885 72.808-29.885h80q72.692 0 105-36.462 32.308-36.461 32.308-86.231 0-32-18.846-51.962-18.847-19.961-45.77-19.961-23.077 0-39.23-16.154-16.154-16.154-16.154-39.231v-197.306h200.382v68.46l18.847 18.847q106.615 0 183.884 77.462 77.269 77.461 77.269 185.23v65.384q-30.847-25.462-66.539-38.615-35.692-13.154-76.153-13.154-92.923 0-157.808 64.884-64.884 64.885-64.884 157.808 0 16 2.769 33.808 2.77 17.807 7.539 32.577h-67.616q-24.077 0-40.693 16.615-16.615 16.616-16.615 40.693v70H139.617Z"/></svg>