<svg xmlns="http://www.w3.org/2000/svg" width="48" height="48" viewBox="0 -960 960 960"><path d="M638.385-201.308q11.231 0 19.846-8.423t8.615-20.038q0-11.231-8.615-19.846-8.615-8.616-19.846-8.616-11.615 0-20.038 8.616-8.423 8.615-8.423 19.846 0 11.615 8.423 20.038t20.038 8.423Zm91.153 0q11.231 0 19.846-8.423Q758-218.154 758-229.769q0-11.231-8.616-19.846-8.615-8.616-19.846-8.616-11.615 0-20.038 8.616-8.423 8.615-8.423 19.846 0 11.615 8.423 20.038t20.038 8.423Zm91.153 0q11.231 0 19.846-8.423 8.616-8.423 8.616-20.038 0-11.231-8.616-19.846-8.615-8.616-19.846-8.616-11.615 0-20.038 8.616-8.423 8.615-8.423 19.846 0 11.615 8.423 20.038t20.038 8.423ZM729.038-58.309q-70.576 0-120.576-50.5-49.999-50.499-49.999-119.96 0-71.896 49.989-121.986 49.99-50.09 121.086-50.09 70.461 0 120.769 50.09 50.307 50.09 50.307 121.986 0 69.461-50.307 119.96-50.308 50.5-121.269 50.5ZM290.001-620h379.998v-45.384H290.001V-620Zm205.383 479.999h-297.69q-23.596 0-40.645-17.048-17.048-17.049-17.048-40.645v-564.612q0-23.596 17.048-40.645 17.049-17.048 40.645-17.048h564.612q23.596 0 40.645 17.048 17.048 17.049 17.048 40.645v297.459q-21.539-9.154-44.308-13.807-22.769-4.654-46.153-4.654-17.846 0-34.693 2.654-16.846 2.654-33.308 7.192v-29.23H290.001v45.384h326.691q-37.539 19.538-66.423 49.769-28.885 30.231-46.885 67.539H290.001v45.384h195.614q-3.769 15.692-5.846 31.577-2.077 15.885-2.077 32.577 0 22.461 4.077 46.153 4.076 23.693 13.615 44.308Z"/></svg>