<svg xmlns="http://www.w3.org/2000/svg" width="48" height="48" viewBox="0 -960 960 960"><path d="M197.694-140.001q-23.529 0-40.611-17.082-17.082-17.082-17.082-40.611v-564.612q0-23.529 17.082-40.611 17.082-17.082 40.611-17.082h564.612q23.529 0 40.611 17.082 17.082 17.082 17.082 40.611v74.999h-45.384v-74.999q0-4.616-3.846-8.463-3.847-3.846-8.463-3.846H197.694q-4.616 0-8.463 3.846-3.846 3.847-3.846 8.463v564.612q0 4.616 3.846 8.463 3.847 3.846 8.463 3.846h564.612q4.616 0 8.463-3.846 3.846-3.847 3.846-8.463v-74.999h45.384v74.999q0 23.529-17.082 40.611-17.082 17.082-40.611 17.082H197.694Zm481.843-164.384L647.923-336l119.923-121.308H394.539v-45.384h373.307L647.923-624l31.614-31.615L855.152-480 679.537-304.385Z"/></svg>