<svg xmlns="http://www.w3.org/2000/svg" width="48" height="48" viewBox="0 96 960 960"><path d="M385.385 513.77 480 466.462l94.615 47.308V281.385h-189.23V513.77ZM280 765.999v-59.998h200v59.998H280Zm-82.306 150q-23.529 0-40.611-17.082-17.082-17.082-17.082-40.611V293.694q0-23.529 17.082-40.611 17.082-17.082 40.611-17.082h564.612q23.529 0 40.611 17.082 17.082 17.082 17.082 40.611v564.612q0 23.529-17.082 40.611-17.082 17.082-40.611 17.082H197.694Zm-12.309-634.614v589.23-589.23Zm12.309 589.23h564.612q4.616 0 8.463-3.846 3.846-3.847 3.846-8.463V293.694q0-4.616-3.846-8.463-3.847-3.846-8.463-3.846H619.999v305.921L480 517.307l-139.999 69.999V281.385H197.694q-4.616 0-8.463 3.846-3.846 3.847-3.846 8.463v564.612q0 4.616 3.846 8.463 3.847 3.846 8.463 3.846Z"/></svg>