<svg xmlns="http://www.w3.org/2000/svg" width="48" height="48" viewBox="0 0 48 48"><path d="M22.85 10.05v-7h2.3v7Zm11.8 4.9-1.6-1.65L38 8.35 39.6 10Zm3.3 10.2v-2.3h7v2.3Zm.1 14.45-4.95-4.95L34.75 33l4.95 4.95Zm-24.7-24.65-5-5L10 8.4l4.95 4.95Zm-.75 23.9h8.6q1.75 0 2.975-1.225T25.4 34.65q0-1.8-1.175-3.05-1.175-1.25-2.975-1.25h-2l-.75-1.8q-.8-1.8-2.45-2.875Q14.4 24.6 12.4 24.6q-2.95 0-5 2.025T5.35 31.6q0 3.05 2.1 5.15 2.1 2.1 5.15 2.1Zm0 2.25q-3.95 0-6.725-2.775Q3.1 35.55 3.1 31.6q0-3.85 2.7-6.575t6.6-2.725q2.75 0 5.05 1.6t3.3 4.2q2.8 0 4.825 1.85Q27.6 31.8 27.6 34.8q-.15 2.65-1.975 4.475Q23.8 41.1 21.2 41.1Zm14.95-6.65q-.1-.6-.225-1.15-.125-.55-.225-1.1 2.55-1 4.1-3.225Q32.75 26.75 32.75 24q0-3.65-2.55-6.2-2.55-2.55-6.2-2.55-3.3 0-5.775 2.175Q15.75 19.6 15.4 22.85q-.6-.15-1.2-.25l-1.2-.2q.6-4.1 3.75-6.75Q19.9 13 24 13q4.6 0 7.8 3.2T35 24q0 3.55-2.05 6.4-2.05 2.85-5.4 4.05ZM24.05 24Z"/></svg>