<svg xmlns="http://www.w3.org/2000/svg" width="48" height="48" viewBox="0 -960 960 960"><path d="M480-100q-21.08 0-39.3-7.8-18.21-7.81-32.39-22.12-32.39-32-56.19-41.7-23.81-9.69-69.2-9.69-42.64 0-72.12-29.49-29.49-29.48-29.49-72.12 0-45-9.72-69.03t-41.67-56.36q-14.46-14.46-22.19-32.65-7.73-18.18-7.73-38.96 0-20.77 7.73-39.04t22.19-32.73q31.95-32.12 41.67-55.69 9.72-23.56 9.72-69.08 0-43.26 29.49-72.74 29.48-29.49 72.12-29.49 45 0 69-9.5t56.39-41.89q13.84-14.07 32.23-22 18.38-7.92 39.27-7.92 20.88 0 39.15 7.73t32.73 22.19q32.12 31.95 55.69 41.67 23.56 9.72 69.08 9.72 43.26 0 72.74 29.49 29.49 29.48 29.49 72.74 0 45 9.72 68.72t41.67 56.05q14.46 14.46 22.19 32.65 7.73 18.18 7.73 38.96 0 20.77-7.73 39.04t-22.19 32.73q-32.39 32.39-41.89 55.89t-9.5 69.5q0 42.64-29.49 72.12-29.48 29.49-72.74 29.49-45 0-68.69 9.5-23.69 9.5-56.08 41.89-13.84 14.07-32.23 22Q501.08-100 480-100Zm99.61-238.54q17.47 0 29.66-12.19 12.19-12.19 12.19-29.86 0-17.66-12.19-30.23-12.19-12.56-29.66-12.56-17.86 0-30.43 12.56-12.56 12.57-12.56 30.23 0 17.67 12.56 29.86 12.57 12.19 30.43 12.19Zm-201.15-8.31 234.69-233.69-32.61-32.61-233.69 234.69 31.61 31.61Zm32.36-202.33q12.56-12.57 12.56-30.43 0-17.47-12.56-29.66-12.57-12.19-30.23-12.19-17.67 0-29.86 12.19-12.19 12.19-12.19 29.66 0 17.86 12.19 30.43 12.19 12.56 29.86 12.56 17.66 0 30.23-12.56Z"/></svg>