<svg xmlns="http://www.w3.org/2000/svg" width="48" height="48" viewBox="0 -960 960 960"><path d="M565.58-398.81q38.8-21.5 63.42-57.27-32.46-23.3-69.98-34.96-37.53-11.65-79.24-11.65-41.7 0-79.01 11.65-37.31 11.66-69.77 34.96 24.62 35.77 63.42 57.27 38.81 21.5 85.58 21.5 46.77 0 85.58-21.5Zm-85.49-178.5q26.22 0 44.41-18.47 18.19-18.47 18.19-44.31 0-26.22-18.28-44.41-18.28-18.19-44.5-18.19-25.83 0-44.22 18.28-18.38 18.28-18.38 44.5 0 25.83 18.47 44.22 18.47 18.38 44.31 18.38ZM480-99.62Q329-230.46 253.54-343.15q-75.46-112.7-75.46-206.93 0-138.46 89.57-224.19Q357.23-860 480-860t212.35 85.73q89.57 85.73 89.57 224.19 0 94.23-75.46 206.93Q631-230.46 480-99.62Z"/></svg>