<svg xmlns="http://www.w3.org/2000/svg" width="48" height="48" viewBox="0 -960 960 960"><path d="M480-452.309q-57.922 0-98.961-41.038-41.038-41.038-41.038-98.96v-124.999q0-21.923 15.193-37.307 15.192-15.385 37.115-15.385 13.461 0 25.038 6.231t18.807 17.307q7.231-11.076 18.808-17.307 11.577-6.231 25.038-6.231t25.038 6.231q11.577 6.231 18.808 17.307 7.23-11.076 18.807-17.307 11.577-6.231 25.038-6.231 21.923 0 37.115 15.385 15.193 15.384 15.193 37.307v124.999q0 57.922-41.038 98.96-41.039 41.038-98.961 41.038ZM180.001-147.694v-75.922q0-32.23 17.077-56.153 17.077-23.923 44.385-36.769 63.153-28.077 121.768-42.308 58.615-14.23 116.769-14.23t116.461 14.538q58.308 14.538 121.461 42 27.923 12.846 45 36.769t17.077 56.153v75.922H180.001Z"/></svg>