<svg xmlns="http://www.w3.org/2000/svg" width="48" height="48" viewBox="0 -960 960 960"><path d="M730.46-367.001 698.846-399q17.769-16.231 27.731-37.305 9.961-21.074 9.961-45.118 0-23.577-9.631-45.216-9.631-21.64-27.446-38.207l30.999-31.615q23.846 22.308 37.654 51.832 13.808 29.525 13.808 62.308 0 32.782-13.808 62.705-13.808 29.923-37.654 52.615Zm81.692 81.308-31.383-31.615q33-32.849 50.73-75.201 17.731-42.351 17.731-88.652 0-46.3-18.731-88.723-18.73-42.423-54.807-71.808l34.845-34.845q40.889 38.863 62.483 89.248 21.594 50.384 21.594 106.674 0 55.769-21.27 106.085-21.269 50.316-61.192 88.837ZM277.694-60.002q-23.596 0-40.645-17.047-17.048-17.048-17.048-40.645v-724.612q0-23.596 17.048-40.645 17.049-17.048 40.645-17.048h404.612q23.596 0 40.645 17.048 17.048 17.049 17.048 40.645v135.999h-45.384v-60.231h-429.23v573.076h429.23v-60.231h45.384v135.999q0 23.597-17.048 40.645-17.049 17.048-40.645 17.048H277.694Zm-12.309-88.076v30.384q0 4.616 3.846 8.463 3.847 3.846 8.463 3.846h404.612q4.616 0 8.463-3.846 3.846-3.847 3.846-8.463v-30.384h-429.23Zm0-663.844h429.23v-30.384q0-4.616-3.846-8.463-3.847-3.846-8.463-3.846H277.694q-4.616 0-8.463 3.846-3.846 3.847-3.846 8.463v30.384Zm0 0v-42.693 42.693Zm0 663.844v42.693-42.693Z"/></svg>