<svg xmlns="http://www.w3.org/2000/svg" width="48" height="48" viewBox="0 96 960 960"><path d="m808.384 969.229-54.384-54q-1.539.385-3.269.577-1.731.193-3.655.193H197.694q-23.616 0-40.654-17.039-17.039-17.038-17.039-40.654V308.924q0-1.924.193-3.655.192-1.73.577-3.269l-54-54.384 32.615-32.23 721.228 721.228-32.23 32.615Zm11.615-146.154-45.384-45.384V293.694q0-5.385-3.462-8.847-3.462-3.462-8.847-3.462h-95.46v351.538q0 7.692-4.154 14.038t-9.846 8.961L533.769 536.846V281.385H426.231v147.922L232.925 236.001h529.381q23 0 40.346 17.347 17.347 17.346 17.347 40.346v529.381Zm-622.305 47.54h145.46V662.538H322.77q-12.366 0-20.991-8.625t-8.625-20.99V454.384l-107.769-107.77v511.692q0 5.385 3.462 8.847 3.462 3.462 8.847 3.462Zm178.537 0h207.538V744.614L426.615 587.46q.385 17.769.693 46.424.308 28.654-30.693 28.654h-20.384v208.077Zm240.615 0h92.54l-92.54-92.925v92.925Z"/></svg>