<svg xmlns="http://www.w3.org/2000/svg" width="48" height="48" viewBox="0 0 48 48"><path d="M16.6 25.95h1.65v-4.1h2.55q.7 0 1.175-.475.475-.475.475-1.175v-2.55q0-.7-.475-1.175Q21.5 16 20.8 16h-4.2Zm1.65-5.75v-2.55h2.55v2.55Zm6.35 5.75h4.1q.7 0 1.175-.475.475-.475.475-1.175v-6.65q0-.7-.475-1.175Q29.4 16 28.7 16h-4.1Zm1.7-1.65v-6.65h2.4v6.65Zm6.6 1.65h1.65v-4.1h2.75V20.2h-2.75v-2.55h2.75V16h-4.4Zm-19 10.5q-1.15 0-2-.85-.85-.85-.85-2V7.9q0-1.2.85-2.05.85-.85 2-.85h25.7q1.2 0 2.05.85.85.85.85 2.05v25.7q0 1.15-.85 2-.85.85-2.05.85Zm0-2.25h25.7q.25 0 .45-.2t.2-.4V7.9q0-.25-.2-.45t-.45-.2H13.9q-.2 0-.4.2t-.2.45v25.7q0 .2.2.4t.4.2ZM8.4 42q-1.2 0-2.05-.85-.85-.85-.85-2.05V11.15h2.25V39.1q0 .25.2.45t.45.2h27.95V42Zm4.9-34.75V34.2 7.25Z"/></svg>