<svg xmlns="http://www.w3.org/2000/svg" width="48" height="48"><path d="M11.9 43q-1.2 0-2.05-.85Q9 41.3 9 40.1V7.9q0-1.2.85-2.05Q10.7 5 11.9 5h17.35L39 14.75V40.1q0 1.2-.85 2.05-.85.85-2.05.85zm16.25-27.25h8.6l-8.6-8.5zm3.5 21.05 1.55-1.5-5.65-5.65q.6-.8.85-1.75t.25-1.95q0-2.75-1.875-4.6Q24.9 19.5 22.15 19.5q-2.7 0-4.575 1.85t-1.875 4.6q0 2.75 1.875 4.6 1.875 1.85 4.575 1.85 1 0 2-.275t1.9-.925zm-9.5-6.65q-1.75 0-2.95-1.225Q18 27.7 18 25.95q0-1.8 1.2-3t2.95-1.2q1.8 0 3 1.2t1.2 3q0 1.75-1.2 2.975t-3 1.225z"/></svg>