<svg xmlns="http://www.w3.org/2000/svg" width="48" height="48" viewBox="0 -960 960 960"><path d="M202.693-130.001q-42.923 0-72.807-29.884-29.885-29.885-29.885-72.808v-178.076l103.385-268.23q12.384-32.154 40.192-51.577 27.808-19.423 61.577-19.423 42.385 0 72.077 29.307 29.692 29.308 27.769 71.693v57.538l-97.846 98.231 37.23 37.23 112.923-112.923v-301.076h45.384v301.076L615.615-456l37.23-37.23-97.846-98.231v-57.538q-1.923-42.385 27.961-71.693 29.885-29.307 71.885-29.307 34.154 0 61.769 19.423 27.616 19.423 39.616 51.577l103.769 268.23v178.076q0 42.923-29.885 72.808-29.884 29.884-72.807 29.884H622.692q-42.923 0-72.808-29.884Q520-189.77 520-232.693v-72.692l19.846-162.154L480-528.385l-61.231 60.846L440-305.385v72.692q0 42.923-30.077 72.808-30.077 29.884-72.615 29.884H202.693Z"/></svg>