<svg xmlns="http://www.w3.org/2000/svg" width="48" height="48" viewBox="0 -960 960 960"><path d="m90.539-259.001-37.077-27.538 178.769-285.768 119.572 140 159.043-256.846 95.538 142.768q-11.769 2-23.115 5.346-11.346 3.346-22.499 7.423l-47.693-72.077-152.941 249.769-121.443-141L90.539-259.001Zm782.615 204.77L735.692-191.31q-19.846 14.615-42.615 22.231-22.77 7.615-47.231 7.615-63.525 0-108.108-44.617-44.583-44.617-44.583-108.192 0-63.574 44.617-108.073 44.618-44.5 108.192-44.5 63.574 0 108.073 44.583 44.5 44.583 44.5 108.108 0 24.846-8.115 47.808-8.116 22.961-22.5 43.486L905.768-86.846l-32.614 32.614ZM645.705-206.847q44.987 0 76.218-31.09t31.231-76.077q0-44.987-31.09-76.218-31.09-31.23-76.077-31.23-44.987 0-76.218 31.089-31.23 31.09-31.23 76.077 0 44.987 31.089 76.218 31.09 31.231 76.077 31.231Zm70.679-332.616q-11.538-4.462-23.499-5.885-11.961-1.423-24.346-3.038l200.922-317.383 37.076 27.538-190.153 298.768Z"/></svg>