<svg xmlns="http://www.w3.org/2000/svg" width="48" height="48" viewBox="0 96 960 960"><path d="M454.385 679.307h45.384V552h127.307v-45.384H499.769V379.309h-45.384v127.307H327.078V552h127.307v127.307Zm331.23 301.307-35.076-34.46 122.846-122.847-121.846-122.23 34.076-34.461 157.307 156.691-157.307 157.307Zm-450.615-64v-80.615H155.386q-23.529 0-40.611-17.082-17.081-17.082-17.081-40.611V294.309q0-23.529 17.081-40.611 17.082-17.081 40.611-17.081h644.613q23.528 0 40.61 17.081 17.082 17.082 17.082 40.611v279.46H682.154V835.87h-72.54v80.744H335Z"/></svg>