<svg xmlns="http://www.w3.org/2000/svg" width="48" height="48" viewBox="0 -960 960 960"><path d="M456.693-376.693h45.383V-504h127.308v-45.384H502.076v-127.307h-45.383v127.307H329.385V-504h127.308v127.307Zm331.23 301.307-35.076-34.46 122.846-122.847-121.846-122.23 34.076-34.461L945.23-232.693 787.923-75.386ZM347.309-140v-80H157.694q-23.529 0-40.611-17.082-17.082-17.082-17.082-40.611v-484.612q0-23.529 17.082-40.611 17.082-17.082 40.611-17.082h644.612q23.529 0 40.611 17.082 17.082 17.082 17.082 40.611v280.075H684.461v262.4h-67.154V-140H347.309Z"/></svg>