<svg xmlns="http://www.w3.org/2000/svg" width="48" height="48"><path d="M12.65 13H40.1q1.2 0 2.05.85.85.85.85 2.05v24.2q0 1.2-.85 2.05-.85.85-2.05.85H7.9q-1.2 0-2.05-.85Q5 41.3 5 40.1V16.2q0-1.2.825-2.1.825-.9 1.925-1.35l22.7-9.15.7 1.95zm-5.4 12.15V40.1q0 .25.2.45t.45.2h32.2q.25 0 .45-.2t.2-.45V25.15zm0-2.25h26v-3.1h2.25v3.1h5.25v-7q0-.25-.2-.45t-.45-.2H7.9q-.25 0-.45.2t-.2.45zm8.6 14.35q1.85 0 3.15-1.3 1.3-1.3 1.3-3.2 0-1.9-1.3-3.2-1.3-1.3-3.2-1.3-1.9 0-3.2 1.325-1.3 1.325-1.3 3.225 0 1.85 1.325 3.15 1.325 1.3 3.225 1.3zm-8.6-12.1v15.6-.65z"/></svg>