<svg xmlns="http://www.w3.org/2000/svg" width="48" height="48" viewBox="0 -960 960 960"><path d="m796-328.848-36.922-36.922q45.307-48.308 70.23-101.581 24.923-53.274 24.923-125.923 0-73.033-24.923-126.341-24.923-53.308-70.23-101.615L796-858.152q51.409 53.224 80.589 117.765 29.179 64.541 29.179 147.147t-29.192 146.999Q847.384-381.848 796-328.848ZM657.769-469.309l-36.922-36.922q16.846-18.462 26.077-39.616 9.23-21.153 9.23-47.461 0-27.077-9.23-48.038-9.231-20.961-26.077-39.423l36.922-36.922q22.153 24.154 36.038 56.269 13.884 32.115 13.884 68.114 0 35.23-13.884 67.538-13.885 32.307-36.038 56.461Zm-303.539 8.692q-57.749 0-95.22-37.471-37.471-37.47-37.471-95.22 0-58.134 37.471-95.412 37.471-37.279 95.22-37.279 57.75 0 95.221 37.279 37.47 37.278 37.47 95.412 0 57.75-37.47 95.22-37.471 37.471-95.221 37.471ZM54.232-155.387v-75.922q0-33.769 16.884-56.422 16.885-22.654 44.577-36.5 49.846-24.846 115.692-40.692t122.845-15.846q57 0 122.346 15.846t115.576 40.692q27.693 13.846 44.885 36.5 17.192 22.653 17.192 56.422v75.922H54.232Zm45.383-45.384h509.23v-30.538q0-17.154-9.654-30.269-9.654-13.116-26.038-22.116-45.308-25.076-105.154-38.384T354.23-335.386q-53.923 0-114.076 13.923Q180-307.54 134.693-283.694q-15.154 7.385-25.116 21.308t-9.962 31.077v30.538ZM354.23-506q37.462 0 62.385-24.923 24.923-24.923 24.923-62.385 0-37.461-24.923-62.384-24.923-24.923-62.385-24.923-37.461 0-62.384 24.923-24.923 24.923-24.923 62.384 0 37.462 24.923 62.385Q316.769-506 354.23-506Zm0-87.308Zm0 392.537Z"/></svg>