<svg xmlns="http://www.w3.org/2000/svg" width="48" height="48" viewBox="0 -960 960 960"><path d="M145.385-286.231v88.537q0 4.616 3.846 8.463 3.847 3.846 8.463 3.846h644.612q4.616 0 8.463-3.846 3.846-3.847 3.846-8.463v-88.537h-669.23Zm12.309-412.998h137.693q-5-9-8.577-21.539-3.577-12.538-3.577-23.7 0-39.739 27.711-67.25 27.711-27.51 66.595-27.51 25.51 0 47.52 13.071t34.808 33.082l19.72 29.847 19.721-29.847q13.692-20.769 34.657-33.461 20.964-12.692 45.702-12.692 40.332 0 67.947 27.308 27.615 27.307 27.615 67.975 0 10.254-3.077 21.254-3.077 11-8.462 23.462h138.616q23.529 0 40.611 17.081 17.082 17.082 17.082 40.611v443.843q0 23.529-17.082 40.611-17.082 17.082-40.611 17.082H157.694q-23.529 0-40.611-17.082-17.082-17.082-17.082-40.611v-443.843q0-23.529 17.082-40.611 17.082-17.081 40.611-17.081Zm-12.309 319.46h669.23v-261.768q0-4.616-3.846-8.462-3.847-3.847-8.463-3.847H550.999l93.076 129.769-36.076 27.153-128.768-177.998-128.768 177.998-36.077-27.153 93.462-129.769H157.694q-4.616 0-8.463 3.847-3.846 3.846-3.846 8.462v261.768Zm232.722-314.999q20.509 0 35.047-14.491 14.539-14.491 14.539-35 0-20.508-14.491-35.047-14.491-14.538-35-14.538t-35.047 14.491q-14.539 14.491-14.539 35 0 20.508 14.492 35.047 14.491 14.538 34.999 14.538Zm201.584 0q21.027 0 35.591-14.491 14.563-14.491 14.563-35 0-20.508-14.563-35.047-14.564-14.538-35.591-14.538-19.692 0-34.307 14.491-14.615 14.491-14.615 35 0 20.508 14.615 35.047 14.615 14.538 34.307 14.538Z"/></svg>