<svg xmlns="http://www.w3.org/2000/svg" width="48" height="48" viewBox="0 0 48 48"><path d="M10.7 37.45q-2.65-2.75-4.175-6.225Q5 27.75 5 23.95q0-3.85 1.475-7.325T10.7 10.45L12.35 12q-2.45 2.4-3.775 5.475Q7.25 20.55 7.25 23.95q0 3.35 1.375 6.4Q10 33.4 12.35 35.85Zm8.3-2.3q-.9 0-1.525-.625Q16.85 33.9 16.85 33q0-.9.625-1.525.625-.625 1.525-.625.9 0 1.525.625.625.625.625 1.525 0 .9-.625 1.525-.625.625-1.525.625Zm7.8-10V20.9l-3.6 2.15-1.1-1.95 3.6-2.1-3.6-2.1 1.1-1.95 3.6 2.15v-4.25h2.3v4.25l3.6-2.15 1.1 1.95-3.6 2.1 3.6 2.1-1.1 1.95-3.6-2.15v4.25Zm10.5 12.3-1.65-1.6q2.4-2.35 3.75-5.425 1.35-3.075 1.35-6.475 0-3.4-1.375-6.475Q38 14.4 35.65 12l1.65-1.55q2.65 2.7 4.175 6.2T43 23.95q0 3.85-1.475 7.35-1.475 3.5-4.225 6.15Z"/></svg>