<svg xmlns="http://www.w3.org/2000/svg" width="48" height="48" viewBox="0 0 48 48"><path d="m30.25 35.55 3-2.95V30v2.6l-3 2.95Zm8.15 0-2.9-2.95V30v2.6ZM24 24ZM5 19.2v-7.3q0-1.2.85-2.05Q6.7 9 7.9 9h32.2q1.2 0 2.05.85.85.85.85 2.05v12.45h-2.25V11.9q0-.25-.2-.45t-.45-.2H7.9q-.25 0-.45.2t-.2.45v7.3ZM7.9 39q-1.2 0-2.05-.85Q5 37.3 5 36.1v-7.3h2.25v7.3q0 .25.2.45t.45.2h12.45V39Zm6.1-5.85q-.35 0-.625-.15t-.425-.45l-3.65-7.4H5v-2.3h5q.3 0 .575.175.275.175.375.475l3.05 6 7-14q.1-.3.4-.425.3-.125.6-.125t.575.125q.275.125.425.425l4.5 9.05q-.6.05-1.15.3-.55.25-1 .6L22 18.55l-7.05 14q-.1.3-.375.45-.275.15-.575.15ZM25.8 45q-.85 0-1.45-.6t-.6-1.45V36.2l2.5-6.7q.3-.8 1-1.275.7-.475 1.5-.475h4.5v-4.5h2.25v4.5h4.4q.8 0 1.5.475t1 1.225L45 36.2v6.75q0 .85-.6 1.45t-1.45.6H38.7q-.85 0-1.45-.6t-.6-1.45v-2.6h2.25v2.4h3.85V36.6L40.2 30h-4.7v2.6l2.9 2.95-1.6 1.6-2.45-2.45-2.5 2.45-1.6-1.6 3-2.95V30h-4.8L26 36.6v6.15h3.8v-2.4h2.3v2.5q0 .9-.65 1.525-.65.625-1.5.625Zm8.55-8.65Z"/></svg>