<svg xmlns="http://www.w3.org/2000/svg" width="48" height="48" viewBox="0 -960 960 960"><path d="M104.617-232.31v-45.384h750.766v45.384H104.617Zm28.077-107.691v-7.769q0-143.076 86.769-232.883 86.769-89.808 215.153-112.423v-28.461q0-19.461 12.962-32.422 12.961-12.962 32.422-12.962t32.422 12.962q12.962 12.961 12.962 32.422v28.461q127.999 22.615 214.961 112.423 86.961 89.807 86.961 232.883v7.769H132.694Zm48.384-45.384h597.844q-11.692-118.384-98.461-190.884-86.769-72.5-201.076-72.5-114.692 0-200.654 72.5-85.961 72.5-97.653 190.884Zm298.922 0Z"/></svg>