<svg xmlns="http://www.w3.org/2000/svg" width="48" height="48" viewBox="0 -960 960 960"><path d="M307.694-140.001v-221.23q0-3.077-2.308-5.577t-5.385-3.27q-86-11-143-74.384t-57-149.384q0-94.23 66.154-160.191 66.154-65.962 160.384-65.962 86 0 149.576 56.808 63.577 56.807 74.577 142.807.769 3.077 3.077 5.385t5.385 2.308h214.539l-93.077-93.077 31.614-31.999 147.769 147.768L712.23-442.231l-31.614-31.999 93.077-93.077h-212.77q-21.077 0-37.038-12.731-15.961-12.731-18.346-33.192-9.154-68.616-59.577-115-50.423-46.385-119.423-46.385-75.385 0-128.269 52.692-52.885 52.693-52.885 128.077 0 69 46.077 119.116 46.077 50.115 115.077 59.269 20.461 3 33.5 18.654 13.038 15.653 13.038 36.73v220.076h-45.383Z"/></svg>