<svg xmlns="http://www.w3.org/2000/svg" width="48" height="48" viewBox="0 96 960 960"><path d="M684.846 679.615q-8.692-2.846-12.462-12.154-3.769-9.307.077-18 7.231-17.23 10.923-37.115 3.693-19.885 3.693-42.961 0-80.154-59.654-140.808-59.654-60.654-141.808-60.654-20 0-40.615 3.5-20.615 3.5-40.231 11.5-9.307 3.846-17.56-.033-8.252-3.88-12.153-13.154-3.901-9.274.739-18.049 4.641-8.776 12.975-12.686 23.461-9.231 47.548-13.038 24.088-3.808 50.297-3.808 102.324 0 174.085 72.884 71.76 72.885 71.76 174.266 0 29.78-3.115 51.929-3.115 22.15-12.346 45.227-3.846 9.692-13.654 13.231-9.807 3.538-18.499-.077ZM480 829.845q-105.076 0-179.461-74.3-74.384-74.301-74.384-179.604 0-37.018 10.923-74.825 10.923-37.808 35-70.885 2.846-3.846 7.796-6.884 4.949-3.038 10.819-3.038 6.077 0 11.846 3.538t8.615 8.615q54.461 98.923 135.269 177.923 80.807 79 178.73 133.076 5.462 3.231 8.76 7.823 3.298 4.592 3.394 10.792 0 6.077-2.603 10.991-2.602 4.913-7.32 8.855-33.077 24.077-70.482 36-37.405 11.923-76.902 11.923Zm-.013-631.922q-9.294 0-15.987-6.702-6.692-6.701-6.692-15.99v-46.538q0-9.904 6.706-16.298 6.705-6.394 15.999-6.394 9.91 0 16.294 6.394 6.385 6.394 6.385 16.298v46.538q0 9.289-6.398 15.99-6.398 6.702-16.307 6.702Zm0 848.077q-9.294 0-15.987-6.7-6.692-6.7-6.692-15.99v-46.541q0-9.904 6.706-16.298 6.705-6.394 15.999-6.394 9.91 0 16.294 6.394 6.385 6.394 6.385 16.298v46.541q0 9.29-6.398 15.99-6.398 6.7-16.307 6.7Zm264.244-735.231q-6.692-7.076-6.692-16.499 0-9.423 6.692-16.5l32.615-32.616q7.693-6.692 17.308-6.884 9.615-.192 16.692 6.884 7.076 7.077 6.576 16.5t-7.576 16.5l-32.616 32.615q-7.077 6.692-16.5 6.692t-16.499-6.692ZM150.154 905.846q-7.076-7.077-7.076-16.5t7.076-16.5l32.616-32.615q7.077-6.077 15.884-5.885 8.808.193 15.559 6.242 6.751 6.049 7.5 16 .748 9.95-5.944 16.642l-32.615 32.616q-7.077 7.076-16.5 7.076t-16.5-7.076Zm730.615-307.154q-9.289 0-15.99-6.706-6.702-6.705-6.702-15.999 0-9.91 6.702-16.294 6.701-6.385 15.99-6.385h46.538q9.904 0 16.298 6.398 6.394 6.398 6.394 16.307 0 9.294-6.394 15.987-6.394 6.692-16.298 6.692h-46.538Zm-840.769 0q-9.288 0-15.99-6.706-6.702-6.705-6.702-15.999 0-9.91 6.702-16.294 6.702-6.385 15.99-6.385h46.539q9.904 0 16.298 6.398 6.394 6.398 6.394 16.307 0 9.294-6.394 15.987-6.394 6.692-16.298 6.692H40Zm736.846 307.154-32.615-32.616q-7.077-7.077-6.192-15.692.884-8.615 6.576-15.692 6.462-5.692 16-7 9.538-1.307 16.615 5.385l32.616 32.615q6.692 6.832 6.192 16.07t-6.577 15.93q-6.077 6.692-15.966 7.192-9.89.5-16.649-6.192ZM182.77 310.769l-32.616-32.615q-7.076-7.077-6.384-15.5.692-8.423 6.769-15.5 6.077-7.076 15.807-7.884 9.731-.808 16.808 5.884l32.615 32.616q6.692 7.077 6.692 16.5t-6.692 16.499q-7.076 6.692-16.499 6.692-9.423 0-16.5-6.692Z"/></svg>