<svg xmlns="http://www.w3.org/2000/svg" width="48" height="48" viewBox="0 -960 960 960"><path d="M237.694-100.001q-23.5 0-40.596-17.097-17.097-17.096-17.097-40.596v-154.229h45.384v154.229q0 5.385 3.462 8.847 3.462 3.462 8.847 3.462h484.612q5.385 0 8.847-3.462 3.462-3.462 3.462-8.847v-154.229h45.384v154.229q0 23.5-17.097 40.596-17.096 17.097-40.596 17.097H237.694Zm-57.693-388.076v-314.229q0-23.5 17.097-40.596 17.096-17.097 40.596-17.097h347.537l194.768 194.768v177.154h-45.384V-644.77H562.539v-169.845H237.694q-5.385 0-8.847 3.462-3.462 3.462-3.462 8.847v314.229h-45.384ZM51.539-377.308v-45.384h856.922v45.384H51.539ZM480-488.077Zm0 176.154Z"/></svg>