<svg xmlns="http://www.w3.org/2000/svg" width="48" height="48" viewBox="0 -960 960 960"><path d="M508.769-233.847v-40.384h105.077v-100.615h40.384v140.999H508.769ZM305.77-577.846v-148.307h147.692v40.384H346.154v107.923H305.77ZM277.694-60.001q-23.529 0-40.611-17.082-17.082-17.082-17.082-40.611v-724.612q0-23.529 17.082-40.611 17.082-17.082 40.611-17.082h404.612q23.529 0 40.611 17.082 17.082 17.082 17.082 40.611v724.612q0 23.53-17.082 40.61Q705.835-60 682.306-60H277.694Zm-12.309-88.077v30.384q0 4.616 3.846 8.463 3.847 3.846 8.463 3.846h404.612q4.616 0 8.463-3.846 3.846-3.847 3.846-8.463v-30.384h-429.23Zm0-45.384h429.23v-573.076h-429.23v573.076Zm0-618.46h429.23v-30.384q0-4.616-3.846-8.463-3.847-3.846-8.463-3.846H277.694q-4.616 0-8.463 3.846-3.846 3.847-3.846 8.463v30.384Zm0 0v-42.693 42.693Zm0 663.844v42.693-42.693Z"/></svg>