<svg xmlns="http://www.w3.org/2000/svg" width="48" height="48" viewBox="0 -960 960 960"><path d="m626.462-360.231 25.845-26.23-93.769-93.77q10.615-17 17.346-33.618 6.731-16.619 6.731-37.112 0-52.192-35.923-88.115-35.923-35.923-88.307-35.923-52.385 0-88.115 35.947-35.731 35.948-35.731 87.974 0 52.188 35.731 88.171 35.73 35.983 88.115 35.983 22.086 0 39.62-6.923 17.533-6.923 36.115-17.923l92.342 91.539ZM458.429-467.307q-34.41 0-58.958-24.617-24.548-24.617-24.548-59.185 0-34.41 24.565-58.958 24.566-24.548 59.061-24.548 34.836 0 59.259 24.556 24.423 24.556 24.423 59.038 0 34.483-24.617 59.098-24.617 24.616-59.185 24.616ZM157.694-250.77q-23.529 0-40.611-17.082-17.082-17.081-17.082-40.61v-444.613q0-23.529 17.082-40.61 17.082-17.082 40.611-17.082h644.612q23.529 0 40.611 17.082 17.082 17.081 17.082 40.61v444.613q0 23.529-17.082 40.61-17.082 17.082-40.611 17.082H157.694Zm0-45.384h644.612q4.616 0 8.463-3.846 3.846-3.846 3.846-8.462v-444.613q0-4.616-3.846-8.462-3.847-3.847-8.463-3.847H157.694q-4.616 0-8.463 3.847-3.846 3.846-3.846 8.462v444.613q0 4.616 3.846 8.462 3.847 3.846 8.463 3.846Zm-12.309 0v-469.23 469.23Zm-90 145.383v-45.384h849.229v45.384H55.386Z"/></svg>