<svg xmlns="http://www.w3.org/2000/svg" width="48" height="48" viewBox="0 96 960 960"><path d="M610.001 729.846h143.845V586.001h-33.077v110.768H610.001v33.077ZM206.154 485.999h33.077V375.231h110.768v-33.077H206.154v143.845Zm141.155 430v-80H157.694q-23.616 0-40.654-17.039-17.039-17.038-17.039-40.654V293.694q0-23.616 17.039-40.654 17.038-17.039 40.654-17.039h644.612q23.616 0 40.654 17.039 17.039 17.038 17.039 40.654v484.612q0 23.616-17.039 40.654-17.038 17.039-40.654 17.039H612.691v80H347.309Z"/></svg>