<svg xmlns="http://www.w3.org/2000/svg" width="48" height="48" viewBox="0 -960 960 960"><path d="m684.461-339.539-31.999-32 87.385-86.385H490.001v-45.383h249.846l-87.385-86.385 31.999-31.999 141.076 141.076-141.076 141.076ZM277.694-60.002q-23.596 0-40.645-17.047-17.048-17.048-17.048-40.645v-724.612q0-23.596 17.048-40.645 17.049-17.048 40.645-17.048h404.612q23.596 0 40.645 17.048 17.048 17.049 17.048 40.645v135.999h-45.384v-60.231h-429.23v573.076h429.23v-60.231h45.384v135.999q0 23.597-17.048 40.645-17.049 17.048-40.645 17.048H277.694Zm-12.309-88.076v30.384q0 4.616 3.846 8.463 3.847 3.846 8.463 3.846h404.612q4.616 0 8.463-3.846 3.846-3.847 3.846-8.463v-30.384h-429.23Zm0-663.844h429.23v-30.384q0-4.616-3.846-8.463-3.847-3.846-8.463-3.846H277.694q-4.616 0-8.463 3.846-3.846 3.847-3.846 8.463v30.384Zm0 0v-42.693 42.693Zm0 663.844v42.693-42.693Z"/></svg>