<svg xmlns="http://www.w3.org/2000/svg" width="48" height="48" viewBox="0 -960 960 960"><path d="M620.71-537.23q20.21 0 33.98-13.86 13.77-13.86 13.77-34.08 0-20.21-13.86-33.98-13.86-13.77-34.08-13.77-20.21 0-33.98 13.86-13.77 13.86-13.77 34.07 0 20.22 13.86 33.99 13.86 13.77 34.08 13.77Zm-281.23 0q20.21 0 33.98-13.86 13.77-13.86 13.77-34.08 0-20.21-13.86-33.98-13.86-13.77-34.08-13.77-20.21 0-33.98 13.86-13.77 13.86-13.77 34.07 0 20.22 13.86 33.99 13.86 13.77 34.08 13.77Zm253.56 231.31q51.65-33 76.27-89h-42.39q-23 39.23-62.04 60.73-39.03 21.5-84.26 21.5-45.85 0-85.2-21.19-39.34-21.2-61.34-61.04h-43.39q25.23 56 76.58 89 51.35 33 112.73 33t113.04-33Zm-261.18 176q-69.37-29.92-120.68-81.21-51.31-51.29-81.25-120.63Q100-401.1 100-479.93q0-78.84 29.92-148.21t81.21-120.68q51.29-51.31 120.63-81.25Q401.1-860 479.93-860q78.84 0 148.21 29.92t120.68 81.21q51.31 51.29 81.25 120.63Q860-558.9 860-480.07q0 78.84-29.92 148.21t-81.21 120.68q-51.29 51.31-120.63 81.25Q558.9-100 480.07-100q-78.84 0-148.21-29.92Z"/></svg>