<svg xmlns="http://www.w3.org/2000/svg" width="48" height="48" viewBox="0 0 48 48"><path d="M31.05 21.15q.95 0 1.65-.7t.7-1.7q0-1-.7-1.7t-1.65-.7q-1 0-1.7.7t-.7 1.7q0 1 .7 1.7t1.7.7Zm-14.1 0q1 0 1.7-.7t.7-1.7q0-1-.7-1.7t-1.7-.7q-.95 0-1.65.7t-.7 1.7q0 1 .7 1.7t1.65.7ZM24 34.35q3.05 0 5.65-1.65 2.6-1.65 3.8-4.45h-2.1q-1.15 1.95-3.1 3.025Q26.3 32.35 24 32.35q-2.25 0-4.225-1.05-1.975-1.05-3.075-3.05h-2.15q1.25 2.8 3.825 4.45Q20.95 34.35 24 34.35ZM24 43q-3.95 0-7.425-1.5Q13.1 40 10.55 37.45 8 34.9 6.5 31.425 5 27.95 5 24q0-3.95 1.5-7.425Q8 13.1 10.55 10.55 13.1 8 16.575 6.5 20.05 5 24 5q3.95 0 7.425 1.5Q34.9 8 37.45 10.55 40 13.1 41.5 16.575 43 20.05 43 24q0 3.95-1.5 7.425Q40 34.9 37.45 37.45 34.9 40 31.425 41.5 27.95 43 24 43Z"/></svg>