<svg xmlns="http://www.w3.org/2000/svg" width="48" height="48" viewBox="0 -960 960 960"><path d="M100-300v-360h760v360H100Zm124.62-157.31h203.84v-45.38H224.62v45.38Zm378.03-2.21q8.12-8.36 8.12-20.73 0-12.37-8.37-20.48-8.36-8.12-20.73-8.12-12.36 0-20.48 8.37-8.11 8.36-8.11 20.73 0 12.37 8.36 20.48 8.37 8.12 20.73 8.12 12.37 0 20.48-8.37Zm120 0q8.12-8.36 8.12-20.73 0-12.37-8.37-20.48-8.36-8.12-20.73-8.12-12.36 0-20.48 8.37-8.11 8.36-8.11 20.73 0 12.37 8.36 20.48 8.37 8.12 20.73 8.12 12.37 0 20.48-8.37Z"/></svg>