<svg xmlns="http://www.w3.org/2000/svg" width="48" height="48" viewBox="0 -960 960 960"><path d="M100.001-300.001v-359.998h759.998v359.998H100.001Zm45.384-45.384h669.23v-269.23h-669.23v269.23Zm79.231-111.923h203.845v-45.384H224.616v45.384Zm357.556 6.154q12.366 0 20.481-8.365 8.116-8.365 8.116-20.731 0-12.365-8.365-20.481-8.365-8.115-20.731-8.115-12.366 0-20.481 8.365-8.116 8.365-8.116 20.731 0 12.365 8.365 20.481 8.365 8.115 20.731 8.115Zm120 0q12.366 0 20.481-8.365 8.116-8.365 8.116-20.731 0-12.365-8.365-20.481-8.365-8.115-20.731-8.115-12.366 0-20.481 8.365-8.116 8.365-8.116 20.731 0 12.365 8.365 20.481 8.365 8.115 20.731 8.115ZM145.385-345.385v-269.23 269.23Z"/></svg>