<svg xmlns="http://www.w3.org/2000/svg" width="48" height="48" viewBox="0 -960 960 960"><path d="M457.31-497.46v-349.46h45.38v349.46h-45.38Zm22.19 251.69q-121.19 0-206.38-84.8-85.2-84.81-85.2-206.89 0-72.92 34.35-135.54 34.35-62.61 95.27-107.54l32.61 32.23q-53.23 37.62-85.03 92.12-31.81 54.5-31.81 118.66 0 102.3 72.23 174.34T480-291.15q102.23 0 174.46-72.04t72.23-174.34q0-64.55-30.81-121.78-30.8-57.23-84.42-89l32.23-32.23q61.15 42.46 94.77 106.5 33.62 64.04 33.62 136.61 0 121.66-85.5 206.66t-207.08 85ZM312.69-3q-15.11 0-25.56-10.44-10.44-10.44-10.44-25.94 0-15.12 10.44-25.56 10.45-10.44 25.56-10.44 15.5 0 25.75 10.44t10.25 25.56q0 15.5-10.25 25.94Q328.19-3 312.69-3ZM480-3q-15.5 0-25.75-10.65Q444-24.31 444-39.19q0-14.89 10.25-25.54Q464.5-75.38 480-75.38q15.12 0 25.56 10.65T516-39.19q0 14.88-10.44 25.54Q495.12-3 480-3Zm167.31 0q-15.5 0-25.75-10.65-10.25-10.66-10.25-25.54 0-14.89 10.25-25.54 10.25-10.65 25.75-10.65 15.11 0 25.56 10.65 10.44 10.65 10.44 25.54 0 14.88-10.44 25.54Q662.42-3 647.31-3Z"/></svg>