<svg xmlns="http://www.w3.org/2000/svg" width="48" height="48" viewBox="0 96 960 960"><path d="M457.308 558.539v-349.46h45.384v349.46h-45.384Zm22.368 251.691q-121.4 0-206.576-84.84-85.176-84.841-85.176-206.935 0-72.839 34.346-135.454 34.346-62.615 95.269-107.538l32.615 32.23q-53.231 37.615-85.038 92.115-31.808 54.5-31.808 118.838 0 102.124 72.327 174.162Q377.962 764.846 480 764.846q102.038 0 174.365-72.038 72.327-72.038 72.327-174.398 0-64.486-30.808-121.717-30.807-57.231-84.423-89l32.23-32.23q61.154 42.461 94.769 106.527 33.616 64.067 33.616 136.561 0 121.68-85.5 206.679-85.5 85-206.9 85ZM312.885 1053q-15.31 0-25.751-10.44t-10.441-25.75q0-15.31 10.523-25.753 10.523-10.441 25.477-10.441 15.501 0 25.75 10.523 10.249 10.521 10.249 25.481 0 15.5-10.249 25.94-10.249 10.44-25.558 10.44ZM480 1053q-15.502 0-25.751-10.44T444 1016.81q0-15.31 10.249-25.753 10.249-10.441 25.559-10.441 15.309 0 25.75 10.523Q516 1001.66 516 1016.62q0 15.5-10.523 25.94Q494.954 1053 480 1053Zm167.307 0q-15.501 0-25.75-10.44t-10.249-25.75q0-15.31 10.249-25.753 10.249-10.441 25.558-10.441 15.31 0 25.751 10.523 10.441 10.521 10.441 25.481 0 15.5-10.523 25.94-10.523 10.44-25.477 10.44Z"/></svg>