<svg xmlns="http://www.w3.org/2000/svg" width="48" height="48" viewBox="0 -960 960 960"><path d="M431.38-834.14q-20.15-20.13-20.15-48.61t20.14-48.63q20.13-20.16 48.61-20.16t48.64 20.14q20.15 20.14 20.15 48.61 0 28.48-20.14 48.64Q508.5-814 480.02-814t-48.64-20.14Zm-43.46 631.83v-499.42q-63.38-4.96-125.27-14.08-61.88-9.11-115.34-22.34l11.15-45.39q78.08 19.23 157.96 27.85 79.89 8.61 163.58 8.61 83.69 0 163.58-8.61 79.88-8.62 158.34-27.85l10.77 45.39q-53.46 13.23-115.27 22.3-61.82 9.08-125.34 14.16v499.38h-45.39v-243.61h-93.38v243.61h-45.39ZM293.54-14.12Q284-23.62 284-38.54q0-14.92 9.54-24.46 9.54-9.54 24.23-9.54 14.69 0 24.42 9.5 9.73 9.5 9.73 24.43 0 14.92-9.73 24.46-9.73 9.53-24.42 9.53-14.69 0-24.23-9.5Zm162.84 0q-9.53-9.5-9.53-24.42 0-14.92 9.5-24.46 9.5-9.54 24.42-9.54 14.92 0 24.46 9.5 9.54 9.5 9.54 24.43 0 14.92-9.5 24.46-9.5 9.53-24.43 9.53-14.92 0-24.46-9.5Zm162.85 0q-9.54-9.5-9.54-24.42 0-14.92 9.5-24.46 9.51-9.54 24.43-9.54t24.46 9.5q9.53 9.5 9.53 24.43 0 14.92-9.5 24.46-9.5 9.53-24.42 9.53-14.92 0-24.46-9.5Z"/></svg>