<svg xmlns="http://www.w3.org/2000/svg" width="48" height="48" viewBox="0 0 48 48"><path d="M9.9 41q-1.2 0-2.05-.85Q7 39.3 7 38.1V9.9q0-1.2.85-2.05Q8.7 7 9.9 7h28.2q1.2 0 2.05.85.85.85.85 2.05v28.2q0 1.2-.85 2.05-.85.85-2.05.85ZM24 34q.75 0 1.25-.525t.5-1.225q0-.75-.5-1.275-.5-.525-1.25-.525t-1.25.525q-.5.525-.5 1.275 0 .7.5 1.225.5.525 1.25.525Zm-8 0q.75 0 1.25-.525t.5-1.225q0-.75-.5-1.275-.5-.525-1.25-.525t-1.25.525q-.5.525-.5 1.275 0 .7.5 1.225.5.525 1.25.525Zm16 0q.75 0 1.25-.525t.5-1.225q0-.75-.5-1.275-.5-.525-1.25-.525t-1.25.525q-.5.525-.5 1.275 0 .7.5 1.225.5.525 1.25.525Z"/></svg>