<svg xmlns="http://www.w3.org/2000/svg" width="48" height="48" viewBox="0 -960 960 960"><path d="M680-60q-92.05 0-156.33-63.95-64.28-63.95-64.28-155.96t64.25-156.05Q587.9-500 679.91-500q91.63 0 155.86 63.98Q900-372.05 900-280q0 21.56-3.85 40.93-3.84 19.38-10.92 37.53-1.23-1.23-1.65-1.96-.43-.73-1.66-1.96L849.77-238q2.23-9.85 3.54-20.69 1.3-10.85 1.3-21.31 0-72.69-51.26-123.65-51.27-50.96-123.97-50.96-72.69 0-123.65 50.96-50.96 50.96-50.96 123.65t50.96 123.65q50.96 50.96 123.65 50.96 10.47 0 21.62-1.3 11.15-1.31 21-3.93l32.54 32.93q.84 1.23 1.57 1.65.73.42 1.97 1.65-18.27 6.77-37.49 10.58Q701.38-60 680-60Zm157.77-62.23q-7.08 7.07-16 6.57t-15.62-6.57L704.62-222.77q-4.73 2.38-24.62 5.15-25.85 0-44.12-18.25-18.26-18.25-18.26-44.07 0-25.83 18.25-44.14 18.25-18.3 44.07-18.3 25.83 0 44.14 18.26 18.3 18.27 18.3 44.12 0 4.11-5.15 24.62l100.54 101.15q7.07 7.08 7.07 16.5t-7.07 15.5ZM180-521.08v-225.69l300-112.31 300 112.31v192.15q-24.39-8.92-49.31-13.69-24.93-4.77-50.69-4.77-121.92 0-207.81 85.58-85.88 85.58-85.88 207.5 0 44.78 13.46 86 13.46 41.23 38.92 77-114.07-46.77-186.38-158.73Q180-387.69 180-521.08Z"/></svg>