<svg xmlns="http://www.w3.org/2000/svg" width="48" height="48" viewBox="0 96 960 960"><path d="M480 709.153q83.23-75.999 106.807-105.999 23.577-30 23.577-60.625 0-29.719-21.075-50.701-21.075-20.981-50.925-20.981-17.846 0-33.056 7.067-15.21 7.067-25.328 19.01-10.231-11.943-25.673-19.01-15.442-7.067-32.711-7.067-29.692 0-50.846 20.961-21.154 20.962-21.154 50.707 0 15.355 4.255 28.532 4.256 13.178 18.154 30.911 13.899 17.734 39.523 42.769 25.625 25.035 68.452 64.426Zm0 245.461q-130.384-35.769-215.191-155.192Q180.001 680 180.001 534.923V309.232L480 196.925l299.999 112.307v225.691q0 145.077-84.808 264.499Q610.384 918.845 480 954.614Zm0-47.384Q591.923 870.769 663.269 767q71.346-103.769 71.346-232.077V340.846L480 245.154l-254.615 95.692v194.077q0 128.308 71.346 232.077T480 907.23Zm0-330.845Z"/></svg>