<svg xmlns="http://www.w3.org/2000/svg" width="48" height="48" viewBox="0 0 48 48"><path d="M24 24.35Zm8.5 18.15-1.55-1.6 4.2-4.2-4.2-4.2 1.55-1.55 4.2 4.2 4.2-4.2 1.6 1.55-4.15 4.2 4.15 4.2-1.6 1.6-4.2-4.15Zm-6.4-4L24 40.6 1.4 18q4.7-4.3 10.45-6.65Q17.6 9 24 9t12.15 2.35Q41.9 13.7 46.6 18l-8.1 8.1q-.45-.1-.875-.125-.425-.025-.925-.025h-.625q-.325 0-.625.05l7.75-7.75q-4.2-3.3-9.025-5.15Q29.35 11.25 24 11.25q-5.35 0-10.175 1.85Q9 14.95 4.8 18.25L24 37.5l2-2.05q-.05.3-.05.625v.625q0 .5.025.925.025.425.125.875Z"/></svg>