<svg xmlns="http://www.w3.org/2000/svg" width="48" height="48" viewBox="0 96 960 960"><path d="m692.615 694.922-31-31 202.692-203.076q-84.692-65.692-181.038-102.577Q586.923 321.385 480 321.385q-37.307 0-73.115 4.423-35.807 4.423-70.5 13.885l-37.46-37.461q43.999-13.308 89.137-19.769 45.137-6.462 91.938-6.462 127.769 0 242.653 47.231Q837.537 370.462 931.536 456L692.615 694.922ZM480 845.538l102.154-102.154-360.845-360.846q-32.869 15.929-64.281 35.542-31.412 19.612-61.335 42.766L480 845.538Zm348.153 143.844L613.154 774.383 480 907.536 28.464 456q35.935-33.13 75.275-60.373 39.34-27.242 82.34-48.319L66.233 227.462l32.614-32.614 761.921 761.92-32.615 32.614ZM499 501.307Zm-97.461 61.462Z"/></svg>