<svg xmlns="http://www.w3.org/2000/svg" width="48" height="48" viewBox="0 96 960 960"><path d="M285.539 853.384h45.384v-53.846h-45.384v53.846Zm0-153.308h45.384V547.154h-45.384v152.922Zm170.154 153.308h45.383V697.616h-45.383v155.768Zm0-252.384h45.383v-53.846h-45.383V601Zm176.23 252.384h45.384v-53.846h-45.384v53.846Zm0-153.308h45.384V547.154h-45.384v152.922ZM237.694 955.999q-23.529 0-40.611-17.082-17.082-17.082-17.082-40.611V423.847l227.846-227.846h314.459q23.529 0 40.611 17.082 17.082 17.082 17.082 40.611v644.612q0 23.529-17.082 40.611-17.082 17.082-40.611 17.082H237.694Zm0-45.384h484.612q4.616 0 8.463-3.846 3.846-3.847 3.846-8.463V253.694q0-4.616-3.846-8.463-3.847-3.846-8.463-3.846H428.308l-202.923 202.86v454.061q0 4.616 3.846 8.463 3.847 3.846 8.463 3.846Zm0 0h-12.309 509.23-496.921Z"/></svg>