<svg xmlns="http://www.w3.org/2000/svg" width="48" height="48" viewBox="0 -960 960 960"><path d="M309.846-526.846q14.693 0 25.039-10.347 10.346-10.346 10.346-25.038t-10.346-25.038q-10.346-10.346-25.039-10.346-15.076 0-25.23 10.346t-10.154 25.038q0 14.692 10.154 25.038 10.154 10.347 25.23 10.347Zm172.385 0q14.692 0 25.038-10.347 10.346-10.346 10.346-25.038t-10.346-25.038q-10.346-10.346-25.038-10.346t-25.038 10.346q-10.347 10.346-10.347 25.038t10.347 25.038q10.346 10.347 25.038 10.347Zm167.307 0q14.692 0 25.038-10.347 10.346-10.346 10.346-25.038t-10.346-25.038q-10.346-10.346-25.038-10.346T624.5-587.269q-10.346 10.346-10.346 25.038t10.346 25.038q10.346 10.347 25.038 10.347ZM100.001-118.464v-683.842q0-23.529 17.082-40.611 17.082-17.082 40.611-17.082h644.612q23.529 0 40.611 17.082 17.082 17.082 17.082 40.611v484.612q0 23.529-17.082 40.611-17.082 17.082-40.611 17.082H241.539L100.001-118.464Zm121.692-186.921h580.613q4.616 0 8.463-3.846 3.846-3.847 3.846-8.463v-484.612q0-4.616-3.846-8.463-3.847-3.846-8.463-3.846H157.694q-4.616 0-8.463 3.846-3.846 3.847-3.846 8.463v577.69l76.308-80.769Zm-76.308 0v-509.23 509.23Z"/></svg>