<svg xmlns="http://www.w3.org/2000/svg" width="48" height="48" viewBox="0 -960 960 960"><path d="M752-66.154q-8 0-17.115-1-9.116-1-18.116-3l-505-108q-41.23-8.616-73.384-34.654-32.154-26.038-50.615-64.731-.385-.384-1.616-6.461-.384-6.461 4.962-11.692t11.423-5.615q5.23 0 9.038 2.807 3.808 2.808 6.038 7.039 16.231 31.23 42.539 53.423 26.307 22.192 58.077 28.807l29.923 5.77 150.539-100.616-34.923-159.077q-2.385-11.231-.5-25.961 1.884-14.731 7.73-23.962l115.001-184.231H353.769l-73 118.769-38.691-23.692 87.768-140.461H548q21.846 0 35.384 12.231 13.539 12.231 18.154 22.846l21 47.615q21.385 48.385 64.693 80.77 43.307 32.384 99.307 36.154v45.383q-63.077-2.769-115.384-38.385-52.308-35.615-88.692-96.846l-96.155 152.54L625.615-370l39.615 255.615 58.001 12.154q7 2 14.384 2.5 7.385.5 14.385.5 24.385 0 49.192-9.807 24.808-9.808 44.423-28.039.231-.23 10.692-4.23 7.077-.385 12.116 4.576 5.038 4.962 5.423 12.423 0 3.615-1.616 7.231-1.615 3.615-4.23 5.615-24.077 22.846-54.731 34.077-30.654 11.23-61.269 11.23Zm-134.384-57.769-33.769-219.231-153.309-108.924 20.384 167.693-140.385 94.077 307.079 66.385Zm27.461-652.385q-28.077 0-48.423-20.346t-20.346-48.423q0-28.461 20.346-48.615 20.346-20.154 48.423-20.154 28.461 0 48.615 20.154 20.154 20.154 20.154 48.615 0 28.077-20.154 48.423t-48.615 20.346Z"/></svg>