<svg xmlns="http://www.w3.org/2000/svg" width="48" height="48" viewBox="0 0 48 48"><path d="M14.95 41q-4.15 0-7.05-2.9Q5 35.2 5 31.05q0-3.95 2.7-6.825t6.7-3.075q.2 0 .375.025t.375.075l-7.3-14.7H19.6L24 15.3l4.4-8.75h11.75L32.9 21.1q.15-.05.325-.05h.375q4 .25 6.7 3.1T43 31q0 4.2-2.9 7.1Q37.2 41 33 41q-.5 0-1.025-.05-.525-.05-1.025-.2 2.6-1.3 3.825-4.025Q36 34 36 31q0-5.05-3.475-8.525Q29.05 19 24 19q-5.05 0-8.525 3.475Q12 25.95 12 31q0 3 1.2 5.7t3.85 4.05q-.55.15-1.05.2-.5.05-1.05.05Zm9.05-.25q-4.05 0-6.9-2.85-2.85-2.85-2.85-6.9 0-4.05 2.85-6.9 2.85-2.85 6.9-2.85 4.05 0 6.9 2.85 2.85 2.85 2.85 6.9 0 4.05-2.85 6.9-2.85 2.85-6.9 2.85ZM24 36l1.55-3.45L29 31l-3.45-1.55L24 26l-1.55 3.45L19 31l3.45 1.55Z"/></svg>