<svg xmlns="http://www.w3.org/2000/svg" width="48" height="48" viewBox="0 96 960 960"><path d="M133.847 241.385v-45.384h114.231v45.384H133.847Zm-29.614 713.844h353.075V798.692H135.54l-31.307 156.537Zm130.536-497.69-32.614-31.615 80.769-80.769 32.614 31.615-80.769 80.769Zm-90.306 295.769h312.845V595.617H176.155l-31.692 157.691ZM480 361.77q-68.615 0-115.961-48.462-47.346-48.461-50.192-117.691h332.306q-2.846 69.23-50.192 117.691Q548.615 361.77 480 361.77Zm-22.692 178.076v-114.23h45.384v114.23h-45.384Zm45.384 415.383h352.691l-31.308-156.537H502.692v156.537Zm0-201.921h312.46L783.46 595.617H502.692v157.691Zm223.308-296-81.154-81.154 31.615-31.614 82.154 80.153L726 457.308Zm-14.078-215.923v-45.384h114.231v45.384H711.922Z"/></svg>