<svg xmlns="http://www.w3.org/2000/svg" width="48" height="48" viewBox="0 -960 960 960"><path d="M486.924-100.771q-67.08-7.593-133.54-37.642-66.459-30.05-119.998-84.357-53.538-54.307-87.884-135.076-34.346-80.769-37.038-189.635l-.77-34.748 33.769.769q48 1.154 108.192 22.423 60.193 21.27 102.731 53.27 5.692-83.462 41.075-174.034Q428.844-770.373 480-833.997q51.156 63.624 86.539 154.581t41.075 174.418q41.385-29.231 100.808-52.269 59.423-23.039 109.345-24.193l34.539-.769-.77 35.517q-1.538 98.097-30.884 174.827t-78.46 131.999q-49.115 55.268-114.846 89.922-65.73 34.654-140.422 49.193ZM493-146.77q-11-180.615-104.965-273.701-93.966-93.087-233.572-114.99 12.23 186.846 109.448 279.051Q361.128-164.204 493-146.77Zm-13.615-221.152q13.23-26.769 36.961-56.769 23.731-30 46.731-50 3.846-67.231-20-137.615Q519.231-682.691 480-754.614q-39.231 71.923-63.077 142.308-23.846 70.384-20 137.615 23 20 45.539 50.192 22.538 30.193 36.923 56.577Zm58.999 206.46q49.308-17.769 95.615-45.961 46.308-28.193 82.654-72.231 36.346-44.039 60.5-107.038 24.154-63 28.384-148.769-104.461 15.846-185.076 74.731-80.616 58.884-115.923 143.572 12 36.62 20.423 72.235 8.423 35.615 13.423 83.461Zm-58.999-206.46Zm58.999 206.46ZM493-146.77ZM504.538-317Zm-17.614 216.229Z"/></svg>