<svg xmlns="http://www.w3.org/2000/svg" width="48" height="48" viewBox="0 -960 960 960"><path d="M844.614-60.31 645.307-260.001H241.539L100.001-118.464v-699.074H152l290.692 290.692h-64.614L54.461-850.463l31.384-33.23L877.23-92.309 844.614-60.31Zm-43.308-198.922L521.538-539.539h192.923v-45.383H476.155l-73.463-74.617h311.769v-45.383H384.846v27.537L202.233-859.999h600.073q23 0 40.346 17.347 17.347 17.346 17.347 40.346v484.612q0 23.616-16.731 40.654-16.731 17.039-41.962 17.808ZM278-406.846q14.693 0 25.039-10.347 10.346-10.346 10.346-25.038t-10.346-25.038Q292.693-477.615 278-477.615q-14.692 0-25.038 10.346t-10.346 25.038q0 14.692 10.346 25.038 10.346 10.347 25.038 10.347Zm0-120q14.693 0 25.039-10.347 10.346-10.346 10.346-25.038t-10.346-25.038Q292.693-597.615 278-597.615q-14.692 0-25.038 10.346t-10.346 25.038q0 14.692 10.346 25.038 10.346 10.347 25.038 10.347Z"/></svg>