<svg xmlns="http://www.w3.org/2000/svg" width="48" height="48" viewBox="0 -960 960 960"><path d="M277.69-260.31h404.62q5.38 0 8.84-3.46t3.46-8.85v-529.69q0-5.38-3.46-8.84t-8.84-3.46H277.69q-5.38 0-8.84 3.46t-3.46 8.84v529.69q0 5.39 3.46 8.85t8.84 3.46ZM480-458.62q59.23 0 100.38-41 41.16-41.01 41.16-98.96 0-59.42-41.16-101.07-41.15-41.66-100.07-41.66-58.92 0-100.19 41.66-41.27 41.65-41.27 100.57 0 58.93 41.25 99.69 41.26 40.77 99.9 40.77Zm.1-45.38q-39.48 0-67.68-27.83-28.19-27.83-28.19-66.94 0-40.16 28.06-68.46 28.06-28.31 67.54-28.31 39.49 0 67.91 28.22 28.41 28.22 28.41 68.27 0 39.67-28.28 67.36Q519.58-504 480.1-504Zm.21 170.08q11.15 0 19.07-7.86 7.93-7.86 7.93-19.45 0-10.85-8.06-19.08-8.05-8.23-19.25-8.23-11.23 0-19.27 8.23t-8.04 19.39q0 11.53 8.04 19.27 8.04 7.73 19.58 7.73ZM638.15-100H322.08v-45.39h39.46q32.74 0 57.91-19.73 25.17-19.73 34.4-49.8H277.69q-23.53 0-40.61-17.09Q220-249.09 220-272.62v-529.69q0-23.53 17.08-40.61T277.69-860h404.62q23.53 0 40.61 17.08T740-802.31v529.69q0 23.53-17.08 40.61-17.08 17.09-40.61 17.09H506.15q9.23 30.07 34.32 49.8 25.09 19.73 58.38 19.73h39.3V-100ZM480-598.77Z"/></svg>