<svg xmlns="http://www.w3.org/2000/svg" width="48" height="48" viewBox="0 -960 960 960"><path d="M444.46-330.69q29.77 14.46 59.92 3.3 30.16-11.15 37.39-42.3 25-94.62 49.38-187.12 24.39-92.5 49.54-187.11-55.77 79.31-111.73 158.04-55.96 78.73-113.5 157.65-17.92 24.54-8.65 54 9.27 29.46 37.65 43.54ZM195.08-180q-13.77 0-25.43-6.19-11.65-6.2-19.73-18.35-24.46-44.69-37.19-94Q100-347.85 100-400.15q0-77.16 30.58-146 30.58-68.85 83.19-120.77 52.62-51.92 121.65-82.5Q404.46-780 481.62-780q78.76 0 147.61 29.96 68.85 29.96 120.15 81.89 51.31 51.92 80.96 120.96Q860-478.15 860-399.38q0 51.92-13.23 100.53-13.23 48.62-37.69 92.77-6.7 12.54-19.04 19.31-12.35 6.77-25.12 6.77H195.08Z"/></svg>