<svg xmlns="http://www.w3.org/2000/svg" width="48" height="48" viewBox="0 -960 960 960"><path d="M340.001-147.694q-17.615 0-28.807-11.193-11.193-11.192-11.193-28.807v-86.538h361.536v86.538q0 17.615-11.192 28.807-11.193 11.193-28.808 11.193H340.001Zm395.382-508.461v136.809q0 6.038-1.385 8.807l-28.307 134.538q-3.616 15.077-14.385 24.115-10.769 9.038-26 9.038H293.924q-15.23 0-25.999-9.038-10.77-9.038-14.385-24.115l-27.538-133.768q-1.385-2.77-1.385-8.808v-246.807q0-24.846 16.423-41.269t41.397-16.423h331.665q24.974 0 41.397 16.423t16.423 41.269v109.229q0-14.038 8.757-22.788 8.758-8.75 23.193-8.75 14.049 0 22.78 8.75 8.731 8.75 8.731 22.788Zm-384.228 85.847h194.614v-105.921H351.155v105.921Z"/></svg>