<svg xmlns="http://www.w3.org/2000/svg" width="48" height="48" viewBox="0 -960 960 960"><path d="m570.92-393.46-92.7 92.35q-9.22 9.19-23.08 9.19-13.85 0-22.91-9.23l-328-327.62q-9.23-9.61-9.61-21.24-.39-11.63 8.84-20.91l94.23-93.85q9.23-9.61 22.04-11.84 12.81-2.24 22.42 7.38l329.16 329.15q9.23 9.23 9.04 23.12-.2 13.88-9.43 23.5Zm-115.38 51 74.08-74.08-307.77-307.77-74.08 74.08 307.77 307.77ZM747.85-96.69l-176-176 33.23-33.23 176 175.61-33.23 33.62Zm-83.77-566.77q-34.23-34.23-34.23-83.85 0-49.61 34.23-83.84 34.23-34.23 84.09-34.23 49.86 0 83.84 34.23Q866-796.92 866-747.31q0 49.62-33.99 83.85-33.98 34.23-83.84 34.23-49.86 0-84.09-34.23Zm135.46-32.4q21.08-21.25 21.08-51.42 0-30.18-21.08-51.45Q778.46-820 748.17-820t-51.61 21.25q-21.33 21.24-21.33 51.42 0 30.18 21.33 51.45 21.32 21.27 51.61 21.27t51.37-21.25Zm-51.62-51.45ZM338.69-533.38Z"/></svg>