<svg xmlns="http://www.w3.org/2000/svg" width="48" height="48" viewBox="0 -960 960 960"><path d="m570.922-393.462-92.691 92.307q-9.231 9.231-23 9.231t-23-9.231L103.463-628.769q-9.231-9.616-9.231-21.269 0-11.654 9.366-21.021l93.959-93.574q9.367-9.751 22.559-11.982 13.192-2.23 22.807 7.385l327.999 329.538q9.231 9.231 9.231 22.923 0 13.692-9.231 23.307ZM747.846-96.693l-176-176 33.23-33.23 176 175.615-33.23 33.615Zm.147-532.538q-49.685 0-83.916-34.161-34.23-34.161-34.23-83.846 0-49.684 34.16-83.915 34.161-34.231 83.846-34.231 50.069 0 84.108 34.161 34.038 34.161 34.038 83.846 0 49.684-33.968 83.915-33.969 34.231-84.038 34.231Z"/></svg>