<svg xmlns="http://www.w3.org/2000/svg" width="48" height="48" viewBox="0 0 48 48"><path d="M10.8 19.85q1.7 0 3.35.675 1.65.675 2.95 1.825l19.2 18.4H38q1.15 0 1.95-.8t.8-1.95q0-.5-.1-1.1-.1-.6-.7-1.15L30.9 26.7l-3.7-11.15-5.6 1.35q-1.1.3-1.975-.375T18.75 14.7V8.75L16.4 7.6 7.95 18.95q-.2.2-.325.425-.125.225-.225.475Zm0 2.3H7.15q.15.6.45 1.15.3.55.8.95L25.1 39.5q.7.6 1.5.925.8.325 1.7.325H33l-17.45-16.7q-.95-.95-2.2-1.425-1.25-.475-2.55-.475ZM28.3 43q-1.3 0-2.5-.475t-2.2-1.375L7.35 26.4q-2-1.85-2.25-4.5t1.4-4.85l7.7-10.3q.65-.85 1.7-1.125 1.05-.275 2.05.225l1.4.7q.8.4 1.225 1.125Q21 8.4 21 9.25v5.5l4.95-1.3q1.15-.3 2.175.275t1.425 1.725l3.3 10 8.7 8.65q.85.85 1.15 1.825.3.975.3 2.075 0 2.1-1.45 3.55Q40.1 43 38 43Z"/></svg>