<svg xmlns="http://www.w3.org/2000/svg" width="48" height="48" viewBox="0 96 960 960"><path d="M157.694 795.999q-23.529 0-40.611-17.082-17.082-17.082-17.082-40.611V413.694q0-23 17.082-40.346 17.082-17.347 40.611-17.347h644.612q23.529 0 40.611 17.347 17.082 17.346 17.082 40.346v324.612q0 23.529-17.082 40.611-17.082 17.082-40.611 17.082H157.694Zm0-45.384h644.612q4.616 0 8.463-3.846 3.846-3.847 3.846-8.463V413.694q0-4.616-3.846-8.463-3.847-3.846-8.463-3.846H677.307v159.229h-45.384V401.385H502.692v159.229h-45.384V401.385H328.077v159.229h-45.384V401.385H157.694q-4.616 0-8.463 3.846-3.846 3.847-3.846 8.463v324.612q0 4.616 3.846 8.463 3.847 3.846 8.463 3.846Zm124.999-190.001h45.384-45.384Zm174.615 0h45.384-45.384Zm174.615 0h45.384-45.384ZM480 576Z"/></svg>