<svg xmlns="http://www.w3.org/2000/svg" width="48" height="48" viewBox="0 -960 960 960"><path d="M137.986-431.923q-19.524 0-33.755-14.323-14.23-14.322-14.23-33.846 0-19.523 14.322-33.754 14.323-14.231 33.846-14.231 19.524 0 33.755 14.323 14.23 14.322 14.23 33.846 0 19.523-14.322 33.754-14.323 14.231-33.846 14.231Zm71.168 253.999-32.614-32.615 159.537-159.537 32.615 32.999-159.538 159.153Zm127.308-414.384L177.924-750.846l32.615-32.614 158.537 158.537-32.614 32.615ZM479.908-90.001q-19.523 0-33.754-14.322-14.231-14.323-14.231-33.846 0-19.524 14.323-33.755 14.322-14.23 33.846-14.23 19.523 0 33.754 14.322 14.231 14.323 14.231 33.846 0 19.524-14.323 33.755-14.322 14.23-33.846 14.23Zm0-683.845q-19.523 0-33.754-14.322-14.231-14.323-14.231-33.846 0-19.524 14.323-33.755 14.322-14.23 33.846-14.23 19.523 0 33.754 14.322 14.231 14.323 14.231 33.846 0 19.524-14.323 33.755-14.322 14.23-33.846 14.23Zm143.63 181.538-32.614-32.615L750.23-783.46l32.615 32.614-159.307 158.538ZM750.23-178.54 591.308-337.077l32.615-32.999 158.922 158.922-32.615 32.614Zm71.601-253.383q-19.524 0-33.755-14.323-14.23-14.322-14.23-33.846 0-19.523 14.322-33.754 14.323-14.231 33.846-14.231 19.524 0 33.755 14.323 14.23 14.322 14.23 33.846 0 19.523-14.322 33.754-14.323 14.231-33.846 14.231Z"/></svg>