<svg xmlns="http://www.w3.org/2000/svg" width="48" height="48" viewBox="0 -960 960 960"><path d="M754.384-180.001v-64.231q0-12.615 8.115-20.731 8.115-8.115 20.731-8.115h84.076v-36.923H754.384v-28.077h112.153q12.615 0 20.73 8.116 8.116 8.115 8.116 20.731v35.384q0 12.615-8.116 20.731-8.115 8.115-20.73 8.115H782.46v36.923h112.923v28.077H754.384Zm-496.69-72.308 176.153-274.845-162.768-252.845h64.075l136.539 213.385h-.385l138.077-213.385h63.691L509.538-527.154l176.538 274.845H623L471.308-487.463h.385L320.769-252.309h-63.075Z"/></svg>