<svg xmlns="http://www.w3.org/2000/svg" width="48" height="48" viewBox="0 -960 960 960"><path d="M807.69-85.465 713.154-180h-555.46q-23.529 0-40.611-16.856-17.082-16.856-17.082-40.837v-484.612q0-23.529 17.082-40.611 17.082-17.082 40.611-17.082h20.076l45.384 45.384h-65.46q-4.616 0-8.463 3.846-3.846 3.847-3.846 8.463v484.612q0 5.385 3.462 8.847 3.462 3.462 8.847 3.462h511.691L539.693-353.462H251.539v-45.383H495.31L71.772-822.384l31.614-31.614L839.69-117.464l-32 32Zm43.693-112.614-36.768-37.152v-487.075q0-5.385-3.462-8.847-3.462-3.462-8.847-3.462H316.462l-45.383-45.384h531.227q23 0 40.346 17.347 17.347 17.346 17.347 40.346v485.13q0 10.591-2 20.113-2 9.523-6.616 18.984ZM575.307-475.77l-45.383-45.383h178.537v45.383H575.307Zm-323.768 0v-45.383h45.384v45.383h-45.384Zm314-9.769Zm-152.076 4.231Z"/></svg>