<svg xmlns="http://www.w3.org/2000/svg" width="48" height="48" viewBox="0 0 48 48"><path d="m24.05 29.95-6.1-6.1 15.6-15.6q.45-.4 1.05-.4.6 0 1 .4l4.05 4.05q.4.4.4 1t-.4 1.05Zm0-3.25 13.4-13.4-2.85-2.85-13.4 13.4Zm-.2 13.5 2.3-2.25h18v2.25Zm-13.05.05q-1.85 0-3.575-.65T4.15 37.75l11.75-11.7 4.45 4.45q.6.6.925 1.325.325.725.325 1.525 0 .8-.325 1.55t-.875 1.3l-.95.95q-1.45 1.5-3.425 2.3-1.975.8-4.025.8Zm0-2.3H12q1.65 0 3.175-.625t2.675-1.775l1-1q.5-.5.425-1.225-.075-.725-.575-1.275l-2.8-2.8-8.25 8.2q.7.25 1.525.375t1.625.125ZM37.45 13.3l-2.85-2.85 2.85 2.85ZM15.9 29.25Z"/></svg>