<svg xmlns="http://www.w3.org/2000/svg" width="48" height="48" viewBox="0 -960 960 960"><path d="M552.46-408.77q29.23-29.23 29.23-70.42t-29.23-70.42q-29.23-29.24-70.42-29.24t-70.23 29.24q-29.04 29.23-29.04 70.42t29.04 70.42q29.04 29.23 70.23 29.23 41.19 0 70.42-29.23ZM675-300.46q33.77-36.08 51.77-82.43 18-46.34 18-96.49 0-49.77-18-96.12T675-658.31l-32.61 32.62q26.69 31 41.84 68.23 15.16 37.23 15.16 78.08 0 40.84-15.16 78.26-15.15 37.43-41.84 68.04L675-300.46Zm-385.54 0 32.62-32.62q-27.08-30.61-42.04-68.04-14.96-37.42-14.96-78.26 0-40.85 14.96-78.08t42.04-68.23l-32.62-32.62q-34.15 36.46-51.96 82.81-17.81 46.35-17.81 96.12 0 50.15 17.81 96.49 17.81 46.35 51.96 82.43ZM157.69-180q-23.84 0-40.77-16.92Q100-213.85 100-237.69v-484.62q0-23.84 16.92-40.77Q133.85-780 157.69-780h644.62q23.84 0 40.77 16.92Q860-746.15 860-722.31v484.62q0 23.84-16.92 40.77Q826.15-180 802.31-180H157.69Z"/></svg>