<svg xmlns="http://www.w3.org/2000/svg" width="48" height="48"><path d="m29 27.1 7.2-7.2-7.15-7.2-1.65 1.6 4.4 4.45H22V21h9.8l-4.4 4.45zm-10 8.5 1.65-1.65-4.45-4.4H26v-2.3h-9.8l4.45-4.4L19 21.2l-7.2 7.2zm5 7.4q-3.9 0-7.375-1.5t-6.05-4.075Q8 34.85 6.5 31.375 5 27.9 5 24t1.5-7.375q1.5-3.475 4.075-6.05Q13.15 8 16.625 6.5 20.1 5 24 5t7.375 1.5q3.475 1.5 6.05 4.075Q40 13.15 41.5 16.625 43 20.1 43 24t-1.5 7.375q-1.5 3.475-4.075 6.05Q34.85 40 31.375 41.5 27.9 43 24 43zm0-19zm0 16.75q6.9 0 11.825-4.925Q40.75 30.9 40.75 24q0-6.9-4.925-11.825Q30.9 7.25 24 7.25q-6.9 0-11.825 4.925Q7.25 17.1 7.25 24q0 6.9 4.925 11.825Q17.1 40.75 24 40.75z"/></svg>