<svg xmlns="http://www.w3.org/2000/svg" width="48" height="48" viewBox="0 -960 960 960"><path d="M370.001-290.001q-78.85 0-134.425-55.558-55.575-55.558-55.575-134.384t55.575-134.441q55.575-55.615 134.425-55.615 78.153 0 128.307 49.153 50.154 49.154 61.461 118.154h213.924l-92.462-92.462 31.999-31.614L859.999-480 713.23-333.232l-31.999-31.999 92.462-92.077H559.769q-11.307 69-61.461 118.154-50.154 49.153-128.307 49.153Zm.045-45.383q60.263 0 102.417-42.199 42.153-42.2 42.153-102.462 0-60.263-42.199-102.417t-102.462-42.154q-60.262 0-102.416 42.199-42.154 42.2-42.154 102.462 0 60.263 42.199 102.417t102.462 42.154ZM370.001-480Z"/></svg>