<svg xmlns="http://www.w3.org/2000/svg" width="48" height="48" viewBox="0 96 960 960"><path d="M50 959.845v-40.384h105.847q-65.385-73-105.616-160.307Q10.001 671.846 10.001 576q0-95.846 39.307-183.154 39.308-87.307 104.308-160.692H50V191.77h180.384v180.384H190V253.923q-67.693 75.231-103.654 153.423Q50.384 485.539 50.384 576t35.962 168.346Q122.307 822.231 190 898.077V779.461h40.384v180.384H50Zm560.231-13.615-236.538-96.461 14.077-37.615q4.23-10.923 13.153-17.692t20.846-9l122.462-26.077-166-373.692q-10.23-21.461-1.807-42.23t29.884-30.615q21.462-10.231 42.038-1.693 20.577 8.539 30.808 30l93.384 209.384 35.308-16.154q7.692-3.846 13.961-4.769t13.577-.308l164.306 7.231q29.308 1.615 50.154 20.192 20.847 18.578 29.231 47.27l46.154 168.461q5.692 21.307-4.539 40.576-10.23 19.269-30.691 28.576L657.46 945.384q-11.153 5.076-23.422 5.192-12.269.115-23.807-4.346Z"/></svg>