<svg xmlns="http://www.w3.org/2000/svg" width="48" height="48" viewBox="0 -960 960 960"><path d="M100.001-100.001v-32.692h95.693q-61.231-74.538-97.692-162.269Q61.54-382.693 61.54-479.808q0-96.73 36.462-184.461 36.461-87.73 97.692-162.653h-95.693v-33.077h167.307v167.692h-32.692v-129.154q-63.461 73.077-101.923 159.308-38.461 86.23-38.461 182.345t38.461 182.154q38.462 86.038 101.923 158.73v-128.384h32.692v167.307H100.001ZM646-146.771q-18.461 7.231-38.923 6.423-20.461-.807-39.307-10.038L306.539-271.309l7-21.769q4.231-14.769 15.326-23.934 11.096-9.165 26.904-10.681l113.617-10.692-117-319.231q-3.846-9.307.533-17.288 4.38-7.981 13.654-11.462 8.889-3.864 17.186.315 8.296 4.179 12.164 13.436L533-297.463l-145.694 13.539 199.925 93q10.154 4.77 21.692 4.77 11.539 0 22.077-3.385l148.615-54.538q40.923-14.769 59.385-53.808 18.461-39.039 3.692-79.962l-60.077-163.999q-3.846-9.308.116-17.423 3.961-8.115 13.269-11.961 9.307-3.846 17.615.115 8.307 3.961 12.153 13.269l59.077 164q21.846 59.153-4.04 114.946-25.887 55.793-85.19 77.36L646-146.771Zm-74.922-267.845-57.616-157.692q-3.846-9.308.534-17.096 4.379-7.789 13.653-11.654 8.89-3.865 16.878.507 7.989 4.372 11.857 13.243L613.615-430l-42.537 15.384Zm113.384-41.846L641.231-575.77q-3.846-9.307.341-17.46t13.461-11.961q9.274-3.424 17.274.537 8 3.962 11.462 13.269l44.23 120.308-43.537 14.615Zm.23 109.769Z"/></svg>