<svg xmlns="http://www.w3.org/2000/svg" width="48" height="48" viewBox="0 -960 960 960"><path d="M470.769-100.001q-20.502 0-38.943-7.616-18.441-7.615-33.672-22.461l-203.384-203 13.846-18.153q8.692-12.154 22.346-16.923 13.653-4.769 28.422-.923l110.617 28.308V-680q0-9.663 6.566-16.177 6.567-6.515 16.308-6.515 9.74 0 16.125 6.515 6.384 6.514 6.384 16.177v292.693h76.232v-157.309q0-9.663 6.566-16.177 6.567-6.514 16.308-6.514 9.74 0 16.125 6.514 6.384 6.514 6.384 16.177v157.309H613v-117.309q0-9.663 6.567-16.177 6.566-6.514 16.307-6.514t16.125 6.514q6.385 6.514 6.385 16.177v117.309h76.231v-37.309q0-9.663 6.567-16.177 6.566-6.514 16.307-6.514t16.125 6.514q6.385 6.514 6.385 16.177v174.615q0 62.154-43.923 106.077-43.923 43.923-106.077 43.923h-159.23ZM100.001-686.922q50.154-96.538 148.654-149.999t222.884-53.461q96.461 0 184.653 32.961t170.73 96.961v-99.539h33.077v173.077H686.922v-33.077h136.077Q742.076-788.614 654.08-822.96q-87.995-34.346-182.541-34.346-108.461 0-195.654 43.884-87.192 43.885-138.576 126.5h-37.308Z"/></svg>