<svg xmlns="http://www.w3.org/2000/svg" width="48" height="48" viewBox="0 0 48 48"><path d="M8.85 21.6q-.3-.3-.3-.775 0-.475.3-.825l5.8-5.75-3-3-1.45 1.45q-.35.35-.825.35T8.6 12.7q-.35-.3-.35-.775 0-.475.35-.825l4.5-4.5q.35-.35.8-.35.45 0 .8.35.35.35.35.825t-.35.775l-1.45 1.5 2.95 2.95 5.8-5.8q.35-.3.825-.3t.825.3q.3.35.3.8 0 .45-.3.8l-1.5 1.5 4.3 4.3-5.1 5q-.3.35-.3.825t.3.775q.3.35.8.35t.8-.35l5.05-5 4.5 4.45-5.05 5.05q-.35.35-.35.825t.35.825q.3.3.775.275.475-.025.775-.325l5.1-5.05 3.8 3.8q.9.85.875 2.05-.025 1.2-.875 2.05l-2.25 2.25 8.15 8.15h-3.2l-6.55-6.55-2.25 2.25q-.8.85-2 .85t-2.1-.85L11.95 20.15 10.5 21.6q-.35.35-.825.35t-.825-.35Z"/></svg>