<svg xmlns="http://www.w3.org/2000/svg" width="48" height="48" viewBox="0 -960 960 960"><path d="M317.693-257.693q-24.591 0-42.103-17.284-17.512-17.283-17.512-41.947v-483.844q0-24.663 17.512-41.947 17.512-17.284 42.103-17.284h483.075q24.433 0 41.831 17.4 17.4 17.398 17.4 41.831v483.844q0 24.433-17.4 41.832-17.398 17.399-41.831 17.399H317.693Zm0-45.384h483.075q5.769 0 9.808-3.846 4.039-3.847 4.039-10.001v-339.231H527.693v-158.46h-210q-6.154 0-10.193 4.039t-4.039 9.808v483.844q0 6.154 4.039 10.001 4.039 3.846 10.193 3.846Zm-14.232-511.538v511.538-511.538Zm-45.383 714.614v-50h49.999v50h-49.999ZM150.385-729.999h-49.999q0-20.327 14.836-35.163 14.837-14.837 35.163-14.837v50Zm265 629.998v-50h49.999v50h-49.999Zm157.692 0v-50h49.999v50h-49.999Zm-422.692-50v50q-20.326 0-35.163-14.837-14.836-14.836-14.836-35.163h49.999Zm-49.999-107.692v-50h49.999v50h-49.999Zm0-157.307v-50h49.999v50h-49.999Zm0-157.692v-49.999h49.999v49.999h-49.999Zm629.998 422.691h49.999q0 20.327-14.836 35.163-14.836 14.837-35.163 14.837v-50Z"/></svg>