<svg xmlns="http://www.w3.org/2000/svg" width="48" height="48" viewBox="0 -960 960 960"><path d="M157.69-180q-23.59 0-40.64-17.05T100-237.69v-484.62q0-23.59 17.05-40.64T157.69-780h644.62q23.59 0 40.64 17.05T860-722.31v160H535.39v-172.3h-377.7q-5.38 0-8.84 3.46t-3.46 8.84v484.62q0 5.38 3.46 8.84t8.84 3.46h286.54V-180H157.69Zm-12.3-45.39v-329.99 54.07-233.3 509.22ZM868-100 759.54-208.46Q739.69-193 716.31-186.5q-23.39 6.5-47.46 6.5-62.73 0-106.94-44.26-44.22-44.25-44.22-107.03 0-62.79 44.26-106.9 44.25-44.12 107.04-44.12 62.78 0 106.89 44.22Q820-393.88 820-331.15q0 24.07-6.12 48.15-6.11 24.08-22.73 42.54L900-132l-32 32ZM743.77-256.07q30.84-30.69 30.84-74.93 0-44.23-30.68-75.08-30.69-30.84-74.93-30.84-44.23 0-75.08 30.69-30.84 30.69-30.84 74.92 0 44.23 30.69 75.08 30.69 30.84 74.92 30.84 44.23 0 75.08-30.68Z"/></svg>