<svg xmlns="http://www.w3.org/2000/svg" width="48" height="48" viewBox="0 96 960 960"><path d="M520 925.999v-45.383h299.999v45.383H520ZM207.155 475.231h181.307V293.694q0-5.385-3.462-8.847-3.461-3.462-8.846-3.462H299.54q-3.846 0-6.731 1.923t-4.424 5.385l-81.23 186.538ZM647.307 825.23V417.539q0-24.328-16.49-40.818-16.491-16.491-40.818-16.491H433.846v131.538q0 12.26-8.294 20.553-8.293 8.293-20.552 8.293H181.926q-16.288 0-24.875-12.923t-1.971-27.538l91.768-209.69q7.231-16.231 21.412-25.346 14.181-9.116 31.28-9.116h76.614q23.639 0 40.473 16.707t17.219 40.216v21.923h156.153q42.788 0 72.74 29.952 29.952 29.951 29.952 72.74V825.23h-45.384ZM207.155 475.231h181.307-181.307Z"/></svg>