<svg xmlns="http://www.w3.org/2000/svg" width="48" height="48" viewBox="0 -960 960 960"><path d="M197.694-185.385h564.612q5.385 0 8.847-3.462 3.462-3.462 3.462-8.847v-364.614L562.308-774.615H197.694q-5.385 0-8.847 3.462-3.462 3.462-3.462 8.847v564.612q0 5.385 3.462 8.847 3.462 3.462 8.847 3.462Zm0 45.384q-23.596 0-40.645-17.048-17.048-17.049-17.048-40.645v-564.612q0-23.596 17.048-40.645 17.049-17.048 40.645-17.048h383.46l238.845 238.845v383.46q0 23.596-17.048 40.645-17.049 17.048-40.645 17.048H197.694Zm91.691-167.923h381.23v-45.384h-381.23v45.384Zm0-149.384h381.23v-45.384h-381.23v45.384Zm0-149.384h251.768v-45.384H289.385v45.384Zm-104 421.307v-589.23 589.23Z"/></svg>