<svg xmlns="http://www.w3.org/2000/svg" width="48" height="48" viewBox="0 96 960 960"><path d="M367.693 191.384v-45.383h224.614v45.383H367.693Zm89.615 447.385h45.384V421.462h-45.384v217.307ZM480 955.383q-70.154 0-131.999-26.961-61.846-26.962-108.154-73.077-46.307-46.115-73.076-108.153-26.77-62.038-26.77-132 0-69.961 26.77-131.807 26.769-61.846 73.076-108.153 46.308-46.308 108.154-73.077Q409.846 275.386 480 275.386q63.923 0 121 22.115 57.076 22.116 101.922 61.731l46-46.384 31.999 31.999-46.384 46.384q36.769 40 61.115 95.654 24.347 55.654 24.347 128.5 0 69.769-26.77 131.807-26.769 62.038-73.076 108.153-46.308 46.115-108.154 73.077Q550.154 955.383 480 955.383ZM479.946 910q122.746 0 208.708-85.907 85.961-85.907 85.961-208.654 0-122.746-85.907-208.708-85.907-85.961-208.654-85.961-122.746 0-208.708 85.907-85.961 85.907-85.961 208.653 0 122.747 85.907 208.708Q357.199 910 479.946 910ZM480 616Z"/></svg>