<svg xmlns="http://www.w3.org/2000/svg" width="48" height="48" viewBox="0 96 960 960"><path d="M133.463 765.999v-45.383h540.383v45.383H133.463Zm0-167.307v-45.384h540.383v45.384H133.463Zm0-167.308v-45.383h540.383v45.383H133.463Zm667.218 337.692q-10.989 0-18.335-7.433Q775 754.209 775 743.22q0-10.989 7.433-18.335 7.434-7.346 18.423-7.346 10.989 0 18.335 7.433 7.346 7.434 7.346 18.423 0 10.989-7.433 18.335-7.434 7.346-18.423 7.346Zm0-167.307q-10.989 0-18.335-7.434T775 575.912q0-10.989 7.433-18.335 7.434-7.346 18.423-7.346 10.989 0 18.335 7.434t7.346 18.423q0 10.989-7.433 18.335-7.434 7.346-18.423 7.346Zm0-167.308q-10.989 0-18.335-7.433Q775 419.594 775 408.605q0-10.989 7.433-18.335 7.434-7.346 18.423-7.346 10.989 0 18.335 7.433 7.346 7.434 7.346 18.423 0 10.989-7.433 18.335-7.434 7.346-18.423 7.346Z"/></svg>