<svg xmlns="http://www.w3.org/2000/svg" width="48" height="48" viewBox="0 -960 960 960"><path d="M754.23-314q-70.462-.384-119.616-44.115-49.153-43.731-61.23-114.885H415.693l-26.538-45.383h184.229q2.615-30.847 18.846-63.116 16.231-32.27 42.924-53.27H321.231l-27.538-45.383h366.076l-61.924-176.386q-1.154-3.847-4.423-5.962-3.27-2.116-7.116-2.116h-141.69v-45.383h141.69q18.846 0 33.769 10.73 14.923 10.731 20.923 27.962l66.385 191.155h39.539q82.769 0 136.384 50.846 53.615 50.846 53.615 132.615 0 75.307-53.884 128.999Q829.152-314 754.23-314Zm0-45.383q55.846 0 96.577-40.731t40.731-96.577q0-59.078-39.116-98.578-39.115-39.5-98.192-39.5-5.231 0-15.078 1.077-9.846 1.077-13.923 2.231l41.154 110.769-42.153 15.385-41-111.77q-32.385 21.462-49.347 52.77-16.962 31.308-16.962 67.616 0 57.461 40.116 97.385 40.115 39.923 97.193 39.923ZM295.386-49.231q-42.308 0-72.192-29.885-29.885-29.884-29.885-72.192 0-5.308.385-9.539t1.154-9.154H25.386v-209.998h87.308v-130H25.386v-45.384h265.845l103.385 175.384h95.769q23.846 0 40.769 16.923 16.923 16.924 16.923 40.77v94.613q0 23.846-16.923 40.769t-40.769 16.923h-94.461q.769 4.923 1.154 9.154.384 4.231.384 9.539 0 42.308-29.884 72.192-29.885 29.885-72.192 29.885ZM158.078-380h183.847l-76.231-130H158.078v130ZM295.386-94.615q23.077 0 39.885-16.616 16.808-16.615 16.808-40.077 0-23.077-16.808-39.693-16.808-16.615-39.885-16.615-23.077 0-39.885 16.615-16.808 16.616-16.808 39.693 0 23.462 16.808 40.077 16.808 16.616 39.885 16.616Z"/></svg>