<svg xmlns="http://www.w3.org/2000/svg" width="48" height="48" viewBox="0 96 960 960"><path d="M461.537 576q-14.692 0-25.038-10.346t-10.346-25.038q0-14.692 10.346-25.038 10.346-10.347 25.038-10.347t25.038 10.347q10.346 10.346 10.346 25.038t-10.346 25.038Q476.229 576 461.537 576Zm0-240q-14.692 0-25.038-10.346t-10.346-25.038q0-14.692 10.346-25.038 10.346-10.347 25.038-10.347t25.038 10.347q10.346 10.346 10.346 25.038t-10.346 25.038Q476.229 336 461.537 336Zm80 120q-14.692 0-25.038-10.346t-10.346-25.038q0-14.692 10.346-25.038 10.346-10.347 25.038-10.347t25.038 10.347q10.346 10.346 10.346 25.038t-10.346 25.038Q556.229 456 541.537 456Zm40 120q-14.692 0-25.038-10.346t-10.346-25.038q0-14.692 10.346-25.038 10.346-10.347 25.038-10.347t25.038 10.347q10.346 10.346 10.346 25.038t-10.346 25.038Q596.229 576 581.537 576Zm0-240q-14.692 0-25.038-10.346t-10.346-25.038q0-14.692 10.346-25.038 10.346-10.347 25.038-10.347t25.038 10.347q10.346 10.346 10.346 25.038t-10.346 25.038Q596.229 336 581.537 336Zm80 120q-14.692 0-25.038-10.346t-10.346-25.038q0-14.692 10.346-25.038 10.346-10.347 25.038-10.347t25.038 10.347q10.346 10.346 10.346 25.038t-10.346 25.038Q676.229 456 661.537 456Zm40 120q-14.692 0-25.038-10.346t-10.346-25.038q0-14.692 10.346-25.038 10.346-10.347 25.038-10.347t25.038 10.347q10.346 10.346 10.346 25.038t-10.346 25.038Q716.229 576 701.537 576Zm0-240q-14.692 0-25.038-10.346t-10.346-25.038q0-14.692 10.346-25.038 10.346-10.347 25.038-10.347t25.038 10.347q10.346 10.346 10.346 25.038t-10.346 25.038Q716.229 336 701.537 336Zm80 120q-14.692 0-25.038-10.346t-10.346-25.038q0-14.692 10.346-25.038 10.346-10.347 25.038-10.347t25.038 10.347q10.346 10.346 10.346 25.038t-10.346 25.038Q796.229 456 781.537 456Zm40 120q-14.692 0-25.038-10.346t-10.346-25.038q0-14.692 10.346-25.038 10.346-10.347 25.038-10.347t25.038 10.347q10.346 10.346 10.346 25.038t-10.346 25.038Q836.229 576 821.537 576Zm0-240q-14.692 0-25.038-10.346t-10.346-25.038q0-14.692 10.346-25.038 10.346-10.347 25.038-10.347t25.038 10.347q10.346 10.346 10.346 25.038t-10.346 25.038Q836.229 336 821.537 336Zm-46.538 577.691q-111.615 0-224.615-57.308-112.999-57.307-203.999-148.115-90.999-90.807-148.307-203.614-57.307-112.807-57.307-224.422 0-18.615 12.807-31.423 12.808-12.808 31.423-12.808H299.23q15.539 0 26.808 9.885t14.654 26.654l23.923 107.537q2.385 14.769-.692 26.846T352.076 427l-94.23 92.154q57.539 95.692 127.616 165.077Q455.539 753.615 547 803.539l90.385-93.769q10-11 22.423-15.308 12.423-4.308 25.807-1.308l97.076 21.385q16.154 3 26.346 15.384 10.192 12.385 10.192 29.539V869.46q0 18.615-12.807 31.423-12.808 12.808-31.423 12.808Z"/></svg>