<svg xmlns="http://www.w3.org/2000/svg" width="48" height="48"><path d="M35.35 21.25 33.7 19.6l6.15-6.15 1.65 1.65zm-12.5-5.7v-8.5h2.3v8.5zm-10.2 5.7L6.5 15.1l1.65-1.65 6.15 6.15zM7.9 38.75h32.2q.25 0 .45-.2t.2-.45v-9.3q0-.25-.2-.45t-.45-.2h-7.2q-1 2.85-3.4 4.575T24 34.45q-3.1 0-5.575-1.725T15.1 28.15H7.9q-.25 0-.45.2t-.2.45v9.3q0 .25.2.45t.45.2zm0 2.25q-1.2 0-2.05-.85Q5 39.3 5 38.1v-9.3q0-1.15.85-2.025T7.9 25.9h9q.3 2.7 2.325 4.5Q21.25 32.2 24 32.2q2.8 0 4.8-1.8t2.3-4.5h9q1.2 0 2.05.875.85.875.85 2.025v9.3q0 1.2-.85 2.05-.85.85-2.05.85zm0-2.25h-.65 33.5-.65z"/></svg>