<svg xmlns="http://www.w3.org/2000/svg" width="48" height="48" viewBox="0 -960 960 960"><path d="M513.85-653.08h172.3q5.39 0 8.85-3.46t3.46-8.85v-92.3q0-5.39-3.46-8.85t-8.85-3.46h-172.3q-5.39 0-8.85 3.46t-3.46 8.85v92.3q0 5.39 3.46 8.85t8.85 3.46ZM203.27-284.42q15.96-15.97 15.96-38.66 0-22.69-15.96-38.65-15.96-15.96-38.65-15.96-22.7 0-38.66 15.96Q110-345.77 110-323.08q0 22.69 15.96 38.66 15.96 15.96 38.66 15.96 22.69 0 38.65-15.96ZM480-139.62q-76.18 0-143.48-25.57-67.29-25.58-120.91-72.2-11.69 6.85-24.19 10.58-12.5 3.73-26.8 3.73-41.93 0-70.96-29.04-29.04-29.03-29.04-70.96 0-22.09 9.15-41.04 9.15-18.96 23.85-32.88-10.16-25.54-17.23-52.08-7.08-26.53-10.47-54.46l44.77-4.84q2.39 23.46 8.23 46.03 5.85 22.58 14.39 43.27 6.23-2 13.04-3 6.82-1 14.27-1 41.92 0 70.96 29.04 29.03 29.04 29.03 70.96 0 15.34-4.19 28.86-4.19 13.53-11.81 25.99 42.7 36.31 95.7 57.6 53.01 21.29 113 25.02v-205.93q0-24.32-16.49-40.82-16.49-16.49-40.82-16.49-59.92 0-101.31-41.38-41.38-41.38-41.38-101.31 0-59.92 41.38-101.31 41.39-41.38 101.31-41.38h56.16v-23.46q0-23.6 17.04-40.64 17.05-17.05 40.65-17.05h172.3q23.6 0 40.65 17.05 17.04 17.04 17.04 40.64v23.46h36.93q9.67 0 16.18 6.56t6.51 16.31q0 9.75-6.51 16.13-6.51 6.38-16.18 6.38h-36.93v23.46q0 23.6-17.04 40.65-17.05 17.05-40.65 17.05h-172.3q-23.6 0-40.65-17.05-17.04-17.05-17.04-40.65v-23.46H400q-41.08 0-69.19 28.12-28.12 28.12-28.12 69.19 0 41.08 28.12 69.19 28.11 28.12 69.19 28.12 42.76 0 72.72 29.97 29.97 29.97 29.97 72.72v205.93q101.39-6.08 182.35-61.93Q766-303.38 808.85-390.92l-48.46-23.62 20.07-40.54 46.23 23.23q6-18.38 10.81-37.26 4.81-18.89 7.19-39.27l45.77 4.84q-3 23.85-8.72 47.07-5.73 23.21-14.13 45.09l42.77 20.76-20.46 40.54-39.77-20Q799-266.92 700.05-203.27 601.1-139.62 480-139.62Zm21.54-513.46V-770v116.92Zm-336.92 330Z"/></svg>