<svg xmlns="http://www.w3.org/2000/svg" width="48" height="48" viewBox="0 -960 960 960"><path d="M29.233-373.847v-212.691h45.383v212.691H29.233Zm115.384 86.077v-384.46h45.384v384.46h-45.384Zm740.767-86.077v-212.691h45.383v212.691h-45.383ZM769.999-287.77v-384.46h45.384v384.46h-45.384ZM317.694-140.001q-23.596 0-40.645-17.048-17.048-17.049-17.048-40.645v-564.612q0-23.596 17.048-40.645 17.049-17.048 40.645-17.048h324.612q23.596 0 40.645 17.048 17.048 17.049 17.048 40.645v564.612q0 23.596-17.048 40.645-17.049 17.048-40.645 17.048H317.694Zm0-45.384h324.612q5.385 0 8.847-3.462 3.462-3.462 3.462-8.847v-564.612q0-5.385-3.462-8.847-3.462-3.462-8.847-3.462H317.694q-5.385 0-8.847 3.462-3.462 3.462-3.462 8.847v564.612q0 5.385 3.462 8.847 3.462 3.462 8.847 3.462Zm-12.309 0v-589.23 589.23Z"/></svg>