<svg xmlns="http://www.w3.org/2000/svg" width="48" height="48" viewBox="0 -960 960 960"><path d="M257.771-332.232h303.69v-13.692q0-39.461-41.346-62.883-41.346-23.423-110.499-23.423-69.153 0-110.499 23.423-41.346 23.422-41.346 62.883v13.692Zm151.845-163.461q30.384 0 50.192-19.807 19.807-19.807 19.807-50.192 0-30.384-19.807-50.192-19.808-19.807-50.192-19.807t-50.192 19.807q-19.807 19.808-19.807 50.192 0 30.385 19.807 50.192 19.808 19.807 50.192 19.807ZM167.31-180.001q-23.529 0-40.611-17.082-17.081-17.082-17.081-40.611v-484.612q0-23.529 17.081-40.611 17.082-17.082 40.611-17.082h484.612q23.529 0 40.611 17.082 17.082 17.082 17.082 40.611v208.461l140.767-140.768v348.842L709.615-446.539v208.845q0 23.529-17.082 40.611-17.082 17.082-40.611 17.082H167.31Zm0-45.384h484.612q5.385 0 8.847-3.462 3.462-3.462 3.462-8.847v-484.612q0-5.385-3.462-8.847-3.462-3.462-8.847-3.462H167.31q-5.385 0-8.847 3.462-3.462 3.462-3.462 8.847v484.612q0 5.385 3.462 8.847 3.462 3.462 8.847 3.462Zm-12.309 0v-509.23 509.23Z"/></svg>