<svg xmlns="http://www.w3.org/2000/svg" width="48" height="48" viewBox="0 96 960 960"><path d="M342.692 875.999h459.614q23.5 0 40.596-17.097 17.097-17.096 17.097-40.596V705.46H342.692v170.539ZM100.001 446.54h197.307V276.001H157.694q-23.5 0-40.596 17.097-17.097 17.096-17.097 40.596V446.54Zm0 214.537h197.307V491.923H100.001v169.154Zm57.693 214.922h139.614V705.46H100.001v112.846q0 23.5 17.097 40.596 17.096 17.097 40.596 17.097Zm184.998-214.922h517.307V491.923H342.692v169.154Zm0-214.537h517.307V333.694q0-23.5-17.097-40.596-17.096-17.097-40.596-17.097H342.692V446.54Z"/></svg>