<svg xmlns="http://www.w3.org/2000/svg" width="48" height="48" viewBox="0 -960 960 960"><path d="M401.27-421.27q-32.12-32.11-32.12-78.73 0-46.62 32.12-78.73 32.11-32.12 78.73-32.12 46.62 0 78.73 32.12 32.12 32.11 32.12 78.73 0 46.62-32.12 78.73-32.11 32.12-78.73 32.12-46.62 0-78.73-32.12ZM480.13-220q-137.67 0-249.9-77.04Q118-374.08 61.54-500 118-625.92 230.19-702.96 342.39-780 480-780q134.15 0 244.11 72.96 109.97 72.96 168.43 194.35H751.92q-34.78 0-64.66 10.57-29.88 10.58-54.49 30.74 1.61-7.62 2.31-14.31.69-6.69.69-14.31 0-64.72-45.55-110.24-45.56-45.53-110.31-45.53-64.76 0-110.22 45.55-45.46 45.56-45.46 110.31 0 64.76 45.53 110.22 45.52 45.46 110.24 45.46 24.31 0 47.35-7.31 23.03-7.31 41.5-20.54-2.39 11.77-4.08 23.54t-1.69 23.92v96.39q-20.53 4.45-41.17 6.34-20.64 1.89-41.78 1.89Zm195.64 80.38q-13.52 0-23.11-9.58-9.58-9.59-9.58-23.11v-114.23q0-13.23 11.11-22.58 11.12-9.34 26.96-9.34v-43.85q0-29 20.71-49.69 20.7-20.69 49.92-20.69 29.22 0 49.68 20.69t20.46 49.69v43.85q15.85 0 26.96 9.34Q860-299.77 860-286.54v114.23q0 13.52-9.59 23.11-9.58 9.58-22.72 9.58H675.77Zm33.46-178.84h84.61v-43.85q0-18.23-11.84-30.27-11.85-12.04-30.27-12.04t-30.46 12.04q-12.04 12.04-12.04 30.27v43.85Z"/></svg>