<svg xmlns="http://www.w3.org/2000/svg" width="48" height="48" viewBox="0 -960 960 960"><path d="M558.307-180.001q-12.846 0-21.884-9.231-9.039-9.231-9.039-21.692v-156.923q0-12.846 9.039-21.885 9.038-9.038 21.884-9.038h96.923q12.461 0 21.692 9.038 9.231 9.039 9.231 21.885v156.923q0 12.461-9.231 21.692t-21.692 9.231h-96.923Zm7.846-38.769h81.231v-141.231h-81.231v141.231Zm167.693 118.769v-102.308q0-13.846 8.73-22.384 8.731-8.538 22.193-8.538h98.769v-55.693H733.846v-38.769h137.538q13.461 0 22.192 8.731 8.73 8.731 8.73 22.192v71.384q0 13.846-8.73 22.385-8.731 8.538-22.192 8.538h-98.77v55.693h129.692v38.769h-168.46Zm-551.845-80q-51.769 0-86.884-36.731Q60-253.463 60-305.462v-176.692q0-41.923 18.154-79.23 18.154-37.308 51.231-63.385L299.77-760.153q17.385-13.384 26.769-33.654 9.385-20.269 9.385-42.423v-63.153h45.383v63.153q0 22.154 9.577 42.423 9.577 20.27 26.962 33.654l170 135.384q33.076 26.077 50.923 63.385 17.846 37.307 17.846 79.23v28.384H516.692q-23.846 0-40.769 16.73Q459-420.309 459-396.078v191.23q-22.077-17.461-33.23-42.538-11.154-25.077-11.154-58.076v-398.076l-56-46.462-56.001 46.462v398.076q0 51.999-35.115 88.73t-85.499 36.731Z"/></svg>