<svg xmlns="http://www.w3.org/2000/svg" width="48" height="48" viewBox="0 -960 960 960"><path d="M640.31-260v-132.39H477.92q-22.92 59.7-75.07 96.04Q350.69-260 280-260q-91.67 0-155.83-64.14Q60-388.28 60-479.91q0-91.63 64.17-155.86Q188.33-700 280-700q70.69 0 122.85 36.35 52.15 36.34 75.07 96.04h277.62v45.38H445.77q-8-41.85-51.96-87.12-43.96-45.26-113.81-45.26-72.69 0-123.65 50.96-50.96 50.96-50.96 123.65t50.96 123.65q50.96 50.96 123.65 50.96 69.85 0 113.81-45.26 43.96-45.27 51.96-87.12h243.15v132.38h66.62V-260H640.31ZM280-424.31q23.42 0 39.56-16.13 16.13-16.14 16.13-39.56t-16.13-39.56q-16.14-16.13-39.56-16.13t-39.56 16.13q-16.13 16.14-16.13 39.56t16.13 39.56q16.14 16.13 39.56 16.13Zm0-55.69Zm559.84 216.7q-7.92-7.9-7.92-19.38 0-11.47 7.91-19.4 7.91-7.92 19.39-7.92 11.47 0 19.39 7.91 7.93 7.91 7.93 19.38 0 11.48-7.91 19.4-7.91 7.92-19.39 7.92-11.47 0-19.4-7.91Zm-3.3-101.32v-202.99h45.38v202.99h-45.38Z"/></svg>