<svg xmlns="http://www.w3.org/2000/svg" width="48" height="48" viewBox="0 -960 960 960"><path d="M660-525.999q-14.692 0-25.038-10.346t-10.346-25.038q0-15.077 10.346-25.231 10.346-10.153 25.038-10.153t25.038 10.153q10.346 10.154 10.346 25.231 0 14.692-10.346 25.038T660-525.999Zm-94.308-100.616-29.538-31.307q25.616-23.307 57.192-36.653 31.577-13.346 66.654-13.346t66.654 13.346q31.576 13.346 57.192 36.653l-29.538 31.307q-20.154-18.23-44.231-27.846Q686-664.076 660-664.076q-26 0-50.077 9.615-24.077 9.616-44.231 27.846Zm-78.538-80.923-30.692-30.307q41.615-40.077 93.846-61.423Q602.539-820.614 660-820.614q57.461 0 109.692 21.346 52.231 21.346 93.846 61.423l-30.307 30.307q-35.538-33.615-80-51.423T660-776.769q-48.769 0-92.923 18.116-44.154 18.115-79.923 51.115Zm287.845 565.229q-111.615 0-224.615-57.308-112.999-57.307-203.999-148.115-90.999-90.807-148.307-203.614-57.307-112.807-57.307-224.422 0-18.615 12.807-31.423 12.808-12.808 31.423-12.808H299.23q15.539 0 26.808 9.885t14.654 26.654l23.923 107.537q2.385 14.769-.692 26.846T352.076-629l-94.23 92.154q57.539 95.692 127.616 165.077Q455.539-302.385 547-252.461l90.385-93.769q10-11 22.423-15.308 12.423-4.308 25.807-1.308l97.076 21.385q16.154 3 26.346 15.384 10.192 12.385 10.192 29.539v109.998q0 18.615-12.807 31.423-12.808 12.808-31.423 12.808Z"/></svg>