<svg xmlns="http://www.w3.org/2000/svg" width="48" height="48" viewBox="0 -960 960 960"><path d="M392.693-709.537h174.614v-72.768q0-5.385-3.461-8.847-3.462-3.462-8.847-3.462H405.001q-5.385 0-8.847 3.462-3.461 3.462-3.461 8.847v72.768ZM720-65.078q-73.307 0-124.114-50.808Q545.078-166.693 545.078-240t50.808-124.114Q646.693-414.922 720-414.922t124.114 50.808Q894.922-313.307 894.922-240t-50.808 124.114Q793.307-65.078 720-65.078ZM791.692-144 816-168.308l-80.539-74.312v-119.534h-36.615v130.776L791.692-144ZM503-140.001H157.694q-23.5 0-40.596-17.097-17.097-17.096-17.097-40.596v-454.151q0-23.499 17.097-40.596 17.096-17.096 40.596-17.096h189.615v-72.768q0-23.5 17.096-40.596 17.096-17.096 40.596-17.096h149.998q23.5 0 40.596 17.096 17.096 17.096 17.096 40.596v72.768h189.615q23.5 0 40.596 17.096 17.097 17.097 17.097 40.596v218.384q-30.154-22.615-66.047-34.731-35.894-12.115-73.952-12.115-100.437 0-170.372 69.935Q479.693-340.437 479.693-240q0 26.23 6.077 51.23 6.077 25 17.23 48.769Z"/></svg>