<svg xmlns="http://www.w3.org/2000/svg" width="48" height="48" viewBox="0 -960 960 960"><path d="m390.385-420.462 34.077-109.382-89.231-66.925h109.354L480-709.999l34.415 113.23h110.354l-88.846 66.925L569-420.462 479.998-488l-89.613 67.538ZM262.848-70.772v-282.844q-43.077-43.154-62.962-96.846Q180.001-504.154 180.001-560q0-126.769 86.615-213.384Q353.231-859.999 480-859.999q126.769 0 213.384 86.615Q779.999-686.769 779.999-560q0 55.846-19.885 109.538t-62.962 96.846v282.844L480-140.168 262.848-70.771Zm217.107-234.613q106.737 0 180.699-73.916 73.961-73.916 73.961-180.654 0-106.737-73.916-180.699-73.916-73.961-180.654-73.961-106.737 0-180.699 73.916-73.961 73.916-73.961 180.654 0 106.737 73.916 180.699 73.916 73.961 180.654 73.961ZM308.231-133.231 480-186.308l171.769 53.077v-182.924q-38.077 29-82.731 42.577-44.653 13.577-89.038 13.577t-89.038-13.577q-44.654-13.577-82.731-42.577v182.924ZM480-225.001Z"/></svg>