<svg xmlns="http://www.w3.org/2000/svg" width="48" height="48" viewBox="0 -960 960 960"><path d="M536-536ZM435-435Zm45 286q53 0 104.196-17.017Q635.393-183.033 678-214q-43.659-29.65-94.33-48.825Q533-282 480-282t-103 19.5Q327-243 283-214q42.607 30.967 93.304 47.983Q427-149 480-149Zm102-341-57-57q13.364-5.057 19.682-15.371Q551-572.686 551-586q0-30.083-20.75-50.542Q509.5-657 480-657q-13 0-24 6.773-11 6.772-15 19.227l-57-56q18-21 43-31.5t53-10.5q60.171 0 101.586 41.414Q623-646.171 623-586q0 28-10.5 53T582-490Zm249 249-68-68q23-37.538 35.5-81.065T811-480q0-138-96.5-234.5T480-811q-46.12 0-89.06 12Q348-787 310-762l-69-69q53-36 113.5-55.5T480-906q88.227 0 165.823 33.37 77.597 33.37 135.517 91.29 57.92 57.92 91.29 135.517Q906-568.227 906-480q0 65-19.5 125.5T831-241ZM480-55q-88.074 0-165.537-33Q237-121 179-179T88-314.463Q55-391.926 55-480q0-68.186 21.239-132.658Q97.477-677.131 138-731L22-848l51-51L896-76l-51 51-641-640q-28 41-41.5 87.993-13.5 46.993-13.5 96.364 0 58.515 20.308 113.122Q189.615-312.915 226-266q56.902-39.071 120.958-63.036Q411.013-353 480-353q48 0 93.5 12t89.5 33l122 123q-60 62-139 96T480-55Z"/></svg>