<svg xmlns="http://www.w3.org/2000/svg" width="48" height="48"><path d="M22.15 24.4h3.75v-4.55h4.5V16.1h-4.5v-4.55h-3.75v4.55h-4.6v3.75h4.6zM24 45.15q-1 0-1.825-.575T20.85 42.85Q19.3 39.4 18 37.2t-3.25-4.85q-2.7-3.45-4.35-6.625Q8.75 22.55 8.75 18q0-6.35 4.425-10.825T24 2.7q6.35 0 10.825 4.45T39.3 18q0 4.85-1.85 8.075Q35.6 29.3 33.3 32.35q-2.1 2.7-3.375 4.875T27.15 42.85q-.45 1.1-1.3 1.7-.85.6-1.85.6zm0-6.65q1.3-2.75 2.55-4.8 1.25-2.05 3-4.3 2.1-2.8 3.55-5.275Q34.55 21.65 34.55 18q0-4.35-3.1-7.45-3.1-3.1-7.45-3.1t-7.45 3.1q-3.1 3.1-3.1 7.45 0 3.65 1.45 6.125t3.6 5.275q1.7 2.25 2.95 4.3 1.25 2.05 2.55 4.8zM24 18z"/></svg>