<svg xmlns="http://www.w3.org/2000/svg" width="48" height="48" viewBox="0 -960 960 960"><path d="M663-540v-128H535v-72h128v-128h71v128h128v72H734v128h-71ZM796-97q-127 1-252-61T319.026-320.086q-99.973-100.086-162-225.5Q95-671 95-797q0-15.938 1.5-34.969T101.432-866H368l51 223-138 125q50 79 108.066 136.529Q447.133-323.942 519-284l136-137 210 50.788v267.306Q850-101 830.469-99T796-97ZM234-601l80-75-22-96H191q-2 34.033 8.457 75.458Q209.914-655.118 234-601Zm371 365q36 18 79.5 29t85.5 14v-103l-88-20-77 80ZM234-601Zm371 365Z"/></svg>