<svg xmlns="http://www.w3.org/2000/svg" width="48" height="48" viewBox="0 96 960 960"><path d="M480 576Zm.404 425q-88.872 0-166.125-33.084-77.254-33.083-135.183-91.012-57.929-57.929-91.012-135.045Q55 664.744 55 575.872t33.183-166.359q33.183-77.488 90.661-134.969 57.477-57.482 135.179-91.013Q391.724 150 480 150q40.797 0 78.928 8.424Q597.06 166.849 633 181v101q-35-17-73-27t-79.526-10q-138.671 0-235.072 95.826Q149 436.651 149 575.34q0 138.689 96.477 235.174Q341.954 907 479.977 907T714.5 810.78Q811 714.559 811 576q0-29.522-5-58.261Q801 489 791 463h98q7 27.417 12 55.161T906 576q0 88.276-33.531 165.977-33.531 77.702-91.013 135.179-57.481 57.478-134.831 90.661Q569.276 1001 480.404 1001ZM793 404V303H692v-94h101V107h94v102h102v94H887v101h-94ZM620 529q24.5 0 42.25-17.75T680 469q0-24.5-17.75-42.25T620 409q-24.5 0-41.75 17.397T561 468.647q0 24.853 17.208 42.603Q595.417 529 620 529Zm-280 0q24.5 0 41.75-17.397t17.25-42.25q0-24.853-17.208-42.603Q364.583 409 340 409q-24.5 0-42.25 17.75T280 469q0 24.5 17.75 42.25T340 529Zm140 266q69 0 126-38.175T686 654H274q24 64.65 80.5 102.825T480 795Z"/></svg>