<svg xmlns="http://www.w3.org/2000/svg" width="48" height="48" viewBox="0 96 960 960"><path d="M104 457v-71h182l71 71H104Zm122.882 379q47.618 0 80.368-32.529 32.75-32.53 32.75-80Q340 676 307.368 643q-32.633-33-80.25-33-47.618 0-80.368 32.735-32.75 32.736-32.75 80.5Q114 771 146.632 803.5q32.633 32.5 80.25 32.5Zm561 11Q817 847 837 826.858q20-20.142 20-48.917Q857 750 836.824 729.5 816.647 709 787.823 709 759 709 738.5 729.559t-20.5 49Q718 807 738.382 827q20.383 20 49.5 20Zm-560.47-65Q203 782 186 764.441t-17-41.97q0-24.412 16.882-41.442Q202.765 664 227.176 664q24.412 0 41.618 17.088Q286 698.177 286 722.588 286 747 268.912 764.5t-41.5 17.5ZM788.05 930q-62.478 0-107.264-43.236Q636 843.529 636 781q0-62.529 46.236-108.764Q728.471 626 791 626q62.529 0 105.764 44.771Q940 715.543 940 778t-44.736 107.229Q850.529 930 788.05 930Zm-563.396 0q-86.199 0-145.426-60.442Q20 809.116 20 723.36q0-85.755 60.472-146.558Q140.945 516 226.894 516t146.528 60.68Q434 637.36 434 723.452q0 86.093-60.574 146.32Q312.852 930 224.654 930ZM462 759q1-6.538 1.5-13.534.5-6.995.5-21.834 0-46.103-17.5-91.367Q429 587 387 549h33q35 0 59.5-27.169T504 459V343.642L457 300l-59 59-34-35 153-153 35 34-60 60 48 46h353v320q-21-15-47.106-25-26.107-10-54.922-10Q718 596 669.5 643.5T606 759H462Z"/></svg>