<svg xmlns="http://www.w3.org/2000/svg" width="48" height="48" viewBox="0 -960 960 960"><path d="M235.647-200Q196-200 166.5-224.583 137-249.167 129-287H23v-496h667l247 248v248H831q-8 37.833-37.853 62.417-29.853 24.583-69 24.583T655.5-224.583Q626-249.167 618-287H342q-8 38-37.353 62.5t-69 24.5ZM594-560h181L647-689h-53v129Zm-238 0h178v-129H356v129Zm-239 0h179v-129H117v129Zm118.859 310Q261-250 278.5-267.359t17.5-42.5Q296-335 278.641-352.5t-42.5-17.5Q211-370 193.5-352.641t-17.5 42.5Q176-285 193.359-267.5t42.5 17.5Zm488 0Q749-250 766.5-267.359t17.5-42.5Q784-335 766.641-352.5t-42.5-17.5Q699-370 681.5-352.641t-17.5 42.5Q664-285 681.359-267.5t42.5 17.5Z"/></svg>