<svg xmlns="http://www.w3.org/2000/svg" width="48" height="48" viewBox="0 -960 960 960"><path d="M189-189v-582 171-21 432Zm93-261h254.01q-.01-15 1.49-30.5T544-510H282v60Zm0 166h204.29q16.71-13 35.21-23.5t39.5-17.93q1-4.57 1-8.57t-1-10H282v60ZM95-95v-771h771v387q-7-41-32.5-73T771-600.29V-771H189v582h248q-2 6-2.5 12.5t-.5 13.82V-95H95Zm533.5-276Q596-403 596-450t32.5-79q32.5-32 79-32t79 32q32.5 32 32.5 79t-32.5 79q-32.5 32-79 32t-79-32ZM494-95v-68.4q0-30.6 14-53.6t38-35q38-20 78.5-29t83-9q42.5 0 82 8.5T868-252q24 12 38.5 34.92Q921-194.15 921-163v68H494ZM282-617h325q15-13 33-21.5t39-12.5v-26H282v60Z"/></svg>