<svg xmlns="http://www.w3.org/2000/svg" width="48" height="48" viewBox="0 96 960 960"><path d="m148 495-36.817-82.183L29 376l82.183-37.817L148 257l37.817 81.183L268 376l-82.183 36.817L148 495Zm600-165-24.688-55.312L669 251l54.312-24.688L748 172l23.688 54.312L827 251l-55.312 23.688L748 330Zm103 205-23.688-55.312L772 456l55.312-24.688L851 377l24.688 54.312L930 456l-54.312 23.688L851 535ZM479.882 707Q425 707 388 667.917 351 628.833 351 573V327q0-52.833 37.618-90.417Q426.235 199 480.118 199 534 199 572 236.583q38 37.584 38 90.417v246q0 55.833-37.618 94.917Q534.765 707 479.882 707ZM439 1022V883q-120-13-199-101.118T161 573h83q0 97 69.201 164 69.202 67 167 67Q578 804 647 736.857 716 669.715 716 573h83q0 121-79 209T521 883v139h-82Z"/></svg>