<svg xmlns="http://www.w3.org/2000/svg" width="48" height="48" viewBox="0 0 48 48"><path d="M6.05 29.25q-.55 0-.95-.375-.4-.375-.4-.975 0-.55.375-.95.375-.4.975-.4.55 0 .95.375.4.375.4.975 0 .55-.375.95-.375.4-.975.4Zm0-7.8q-.55 0-.95-.375-.4-.375-.4-.975 0-.55.375-.95.375-.4.975-.4.55 0 .95.375.4.375.4.975 0 .55-.375.95-.375.4-.975.4ZM12 38.2q-.95 0-1.575-.6T9.8 36q0-.95.6-1.575T12 33.8q.95 0 1.575.6T14.2 36q0 .95-.6 1.575T12 38.2Zm0-8.1q-.95 0-1.575-.6T9.8 27.9q0-.95.6-1.575T12 25.7q.95 0 1.575.6t.625 1.6q0 .95-.6 1.575T12 30.1Zm0-7.8q-.95 0-1.575-.6T9.8 20.1q0-.95.6-1.575T12 17.9q.95 0 1.575.6t.625 1.6q0 .95-.6 1.575T12 22.3Zm0-8.1q-.95 0-1.575-.6T9.8 12q0-.95.6-1.575T12 9.8q.95 0 1.575.6T14.2 12q0 .95-.6 1.575T12 14.2Zm8.1 24q-.95 0-1.575-.6T17.9 36q0-.95.6-1.575t1.6-.625q.95 0 1.575.6T22.3 36q0 .95-.6 1.575t-1.6.625Zm0-24q-.95 0-1.575-.6T17.9 12q0-.95.6-1.575t1.6-.625q.95 0 1.575.6T22.3 12q0 .95-.6 1.575t-1.6.625Zm0 29.1q-.55 0-.95-.375-.4-.375-.4-.975 0-.55.375-.95.375-.4.975-.4.55 0 .95.375.4.375.4.975 0 .55-.375.95-.375.4-.975.4Zm0-35.9q-.55 0-.95-.375-.4-.375-.4-.975 0-.55.375-.95.375-.4.975-.4.55 0 .95.375.4.375.4.975 0 .55-.375.95-.375.4-.975.4Zm7.8 30.8q-.95 0-1.575-.6T25.7 36q0-.95.6-1.575t1.6-.625q.95 0 1.575.6T30.1 36q0 .95-.6 1.575t-1.6.625Zm0-24q-.95 0-1.575-.6T25.7 12q0-.95.6-1.575t1.6-.625q.95 0 1.575.6T30.1 12q0 .95-.6 1.575t-1.6.625Zm0-6.8q-.55 0-.95-.375-.4-.375-.4-.975 0-.55.375-.95.375-.4.975-.4.55 0 .95.375.4.375.4.975 0 .55-.375.95-.375.4-.975.4Zm.3 35.9q-.55 0-.95-.375-.4-.375-.4-.975 0-.55.375-.95.375-.4.975-.4.55 0 .95.375.4.375.4.975 0 .55-.375.95-.375.4-.975.4Zm7.8-5.1q-.95 0-1.575-.6T33.8 36q0-.95.6-1.575T36 33.8q.95 0 1.575.6T38.2 36q0 .95-.6 1.575T36 38.2Zm0-8.1q-.95 0-1.575-.6t-.625-1.6q0-.95.6-1.575T36 25.7q.95 0 1.575.6t.625 1.6q0 .95-.6 1.575T36 30.1Zm0-7.8q-.95 0-1.575-.6t-.625-1.6q0-.95.6-1.575T36 17.9q.95 0 1.575.6t.625 1.6q0 .95-.6 1.575T36 22.3Zm0-8.1q-.95 0-1.575-.6T33.8 12q0-.95.6-1.575T36 9.8q.95 0 1.575.6T38.2 12q0 .95-.6 1.575T36 14.2Zm5.95 15.05q-.55 0-.95-.375-.4-.375-.4-.975 0-.55.375-.95.375-.4.975-.4.55 0 .95.375.4.375.4.975 0 .55-.375.95-.375.4-.975.4Zm0-7.8q-.55 0-.95-.375-.4-.375-.4-.975 0-.55.375-.95.375-.4.975-.4.55 0 .95.375.4.375.4.975 0 .55-.375.95-.375.4-.975.4ZM16 31.25v-.2q0-2.55 2.525-3.475Q21.05 26.65 24 26.65q2.95 0 5.475.925Q32 28.5 32 31.05v.2Zm8-7.95q-1.5 0-2.575-1.075-1.075-1.075-1.075-2.575 0-1.5 1.075-2.575Q22.5 16 24 16q1.5 0 2.575 1.075 1.075 1.075 1.075 2.575 0 1.5-1.075 2.575Q25.5 23.3 24 23.3Z"/></svg>