<svg xmlns="http://www.w3.org/2000/svg" width="48" height="48" viewBox="0 96 960 960"><path d="M264.832 411Q231 411 207 387t-24-58.5q0-34.5 24.168-58.5t58-24Q299 246 323.5 270.119 348 294.237 348 328q0 35-24.668 59t-58.5 24ZM140 1022v-52H46V581h137v-22q0-42 30-72t72-30q24.941 0 48.191 9.933Q356.441 476.867 373 496l52 59q7 8 14 14.5t16 11.5h265V271.48q0-19.28-12.5-32.88Q695 225 676 225q-9 0-18 1.5t-15 7.5l-41 41q8 24.62-2.5 48.81T571 369L439 242q21-18 46.5-28.5t52.5-.5l52-51q15.877-17.471 38.439-24.735Q651 130 676 130q58 0 98.5 41.5T815 271v310h100v388.889h-95V1022H140Z"/></svg>