<svg xmlns="http://www.w3.org/2000/svg" width="48" height="48" viewBox="0 -960 960 960"><path d="M0-190v-72h158q6-73 57.5-130.5T338-462l-53-251H126v-72h217l82 387h-28q-69.65 0-118.825 48.913Q229-300.175 229-229v39H0Zm399.118 76q-48.535 0-81.826-33.174Q284-180.348 284-228.882q0-48.535 33.174-81.826Q350.348-344 398.882-344q48.535 0 81.826 33.174Q514-277.652 514-229.118q0 48.535-33.174 81.826Q447.652-114 399.118-114ZM399-186q18 0 30.5-12.5T442-229q0-18-12.5-30.5T399-272q-18 0-30.5 12.5T356-229q0 18 12.5 30.5T399-186Zm365-49q-72.398 0-128.699-45Q579-325 567-392h-84l-10-72h93.829Q572-491 583-514.5t30-40.5H449l-16-72h217l-50-147h-99v-72h149.312L724-630h40q83.02 0 139.51 56.782Q960-516.435 960-433q0 82-57 140t-139 58Zm0-70q52 0 88.5-37.114t36.5-88.991Q889-483 853.5-518 818-553 772-554h-18l39 110-67 23-40-108q-24 16-36 42.5t-12 55.419q0 51.867 37 88.974Q712-305 764-305Zm-365 76Zm364-200Z"/></svg>