<svg xmlns="http://www.w3.org/2000/svg" width="48" height="48" viewBox="0 -960 960 960"><path d="M10-135v-536h348v536H10Zm174-342q15.47 0 26.73-11Q222-499 222-514q0-15.47-11.27-26.73Q199.47-552 184-552q-15 0-26 11.27-11 11.26-11 26.73 0 15 11 26t26 11ZM665-55v-217.66q-9-6.51-14.5-16.42-5.5-9.92-5.5-22.79 0-20.56 14-33.84Q673-359 693-359q19.94 0 33.47 13.29Q740-332.43 740-311.87q0 12.87-5.5 22.37Q729-280 720-272v217h-55Zm-73-139q-26-23-41.5-53.34-15.5-30.34-15.5-63.82 0-64.84 46.16-111.34Q627.33-469 692.37-469q66.08 0 111.86 46.41Q850-376.19 850-311q0 35-14.5 65T795-193l-39-39q17-15 28-35.7 11-20.71 11-43.27 0-42.98-30-73Q735-414 693.5-414q-42.5 0-73 30.18T590-310.28q0 22.74 11 42.51T629-232l-37 38Zm-72 71q-40-37-62.5-85.44T435-311.28q0-107.91 74.88-182.82Q584.77-569 692.37-569 801-569 875.5-494.18 950-419.35 950-311q0 54-23 102.5T865-124l-37-37q31-29 49-68t18-82q0-84.26-59.08-143.63Q776.84-514 693.03-514 609-514 549.5-454.63T490-311q0 43 17.5 82t50.5 67l-38 39ZM55-731v-95h881v301q-49-50-111.5-77T693-629q-87.12 0-158.56 40T418-481v-250H55Z"/></svg>