<svg xmlns="http://www.w3.org/2000/svg" width="48" height="48" viewBox="0 -960 960 960"><path d="M501-104.62q-39-39.62-39-95.26 0-55.65 39.12-95.88Q540.24-336 595.88-336q55.65 0 95.88 40.35 40.24 40.36 40.24 96 0 55.65-40.35 95.15-40.36 39.5-96 39.5Q540-65 501-104.62Zm124.43-65.77q11.57-11.4 11.57-29.5 0-18.11-11.39-29.61-11.4-11.5-29-11.5-17.59 0-29.1 11.39-11.51 11.4-11.51 29.5 0 18.11 11.33 29.61 11.34 11.5 28.93 11.5 17.6 0 29.17-11.39Zm-130.6-314.82q-69.83-70.2-69.83-170 0-99.79 69.74-170.29 69.75-70.5 170-70.5Q765-896 835.5-825.59q70.5 70.41 70.5 170.5T835.59-485q-70.41 70-170.67 70-100.25 0-170.09-70.21ZM769-551.79q42-41.79 42-103.46 0-61.67-41.81-103.71Q727.37-801 665.7-801q-61.66 0-104.18 41.81Q519-717.37 519-655.7q0 61.66 42.33 103.68 42.33 42.02 104 42.02T769-551.79ZM236.34-229q-72.67 0-122-49.34Q65-327.67 65-399.84 65-472 114.45-521.5 163.89-571 235.9-571t121.56 49.58q49.54 49.57 49.54 121Q407-329 357.33-279t-120.99 50ZM290-345.3q22-22.29 22-54.42 0-32.12-22.46-54.7-22.46-22.58-54-22.58t-54.04 22.67q-22.5 22.67-22.5 54.5t22.3 54.33q22.29 22.5 54.5 22.5 32.2 0 54.2-22.3ZM597-200Zm68-456ZM236-400Z"/></svg>