<svg xmlns="http://www.w3.org/2000/svg" width="48" height="48" viewBox="0 -960 960 960"><path d="M715.187-524Q635-524 579.5-579.511 524-635.021 524-715.489 524-794 580-850t135-56q79 0 135 56t56 135.5q0 79.5-55.813 135-55.812 55.5-135 55.5ZM692-694h50v-143h-50v143Zm25.5 104q12.5 0 21-7.4T747-619q0-13-8.6-21.5T718-649q-14 1-22 9.5t-8 21.5q0 13 7.9 20.5t21.6 7.5ZM251.059-276Q273-276 289.5-292.059q16.5-16.059 16.5-39Q306-353 289.441-369.5q-16.559-16.5-39-16.5T212-369.441q-16 16.559-16 39T212.059-292q16.059 16 39 16Zm299 0Q572-276 588.5-292.059q16.5-16.059 16.5-39Q605-353 588.441-369.5q-16.559-16.5-39-16.5T511-369.441q-16 16.559-16 39T511.059-292q16.059 16 39 16ZM111-55v-129q-27-15-41.5-44T55-294v-413q0-84.763 100-122.881Q255-868 487-868q-21 32.575-33 72.033T442-715q0 13 1.5 26t4.5 26H149v175h402q36 23 76.5 34.5t82.283 11.5q9.217 0 18.424-.333 9.207-.334 17.793-1.667v150q0 37-15 66.146T690-184v129H576v-82H224v82H111Z"/></svg>