<svg xmlns="http://www.w3.org/2000/svg" width="48" height="48" viewBox="0 96 960 960"><path d="M253 773V401h105l30-30h187l30 30h105v372H253Zm228-130q23 0 38.5-15.5T535 588q0-23-15.5-38.5T481 534q-24 0-39 15.5T427 588q0 24 15 39.5t39 15.5ZM357 113q30-9 62.5-13t63.5-4q93 0 176.5 34T807 223q64 59 105 139t49 172h-83q-6-67-36.5-127.5t-78-107.5q-47.5-47-108-78T529 182l60 63-50 48-182-180Zm247 926q-30 9-62.5 13t-62.5 4q-94 0-177.5-34T154 929Q90 870 49 790T-1 618h84q6 67 36.5 127.5t78 107.5q47.5 47 108 78T432 970l-60-63 50-49 182 181Z"/></svg>