<svg xmlns="http://www.w3.org/2000/svg" width="48" height="48" viewBox="0 -960 960 960"><path d="m718-580-1-48q-10-2-17-6t-11-11l-40 22-39-64 40-24q-4-6.5-4-20t4-20l-40-26 40-62 40 23q4-6 10-10t17-6l1-48h76l1 49q10 1 15.9 5.1T822-816l39-23 40 62-40 26q3 7 3 20t-3 20l40 25-39 64-40-23q-5.16 6.4-11.58 10.7Q804-630 795-628l-1 48h-76Zm85-103q19-19 19-47t-19-47q-19-19-47.71-19-28.7 0-47 19Q690-758 690-730t18.29 47q18.3 19 47 19Q784-664 803-683ZM289-319q23 0 39.5-15.5T345-373q0-23-16.5-39.5T289-429q-23 0-38.5 16.5T235-373q0 23 15.5 38.5T289-319Zm382 0q23 0 39.5-15.5T727-373q0-23-16.5-39.5T671-429q-23 0-38.5 16.5T617-373q0 23 15.5 38.5T671-319Zm82.39-155q28.61 0 57.11-4.5T866-495v400H758v-84H202v84H95v-390l104-301h309q-5 14-6.5 27.78Q500-744.43 500-730q0 10.57.5 19.78Q501-701 503-691H265l-51 157h377q32 30 75 44.5t87.39 15.5Z"/></svg>