<svg xmlns="http://www.w3.org/2000/svg" width="48" height="48" viewBox="0 -960 960 960"><path d="M481-480Zm426 345H610q0-22.5-2.5-46t-7.5-48h212v-502H150v48q-24.5-5-48-7.5T56-693v-133h851v691Zm-851 0v-116q46.667 0 79.333 33.833Q168-183.333 168-135H56Zm212 0q0-88.66-62.18-152.33Q143.64-351 56-351v-71q117.643 0 200.321 84.195Q339-253.611 339-135h-71Zm171 0q0-79-30-149.5T327-408q-52-53-121.905-83.5Q135.189-522 56-522v-71q94.462 0 177.017 35.968 82.554 35.969 144.269 98.5Q439-396 474.5-312.444T510-135h-71Z"/></svg>