<svg xmlns="http://www.w3.org/2000/svg" width="48" height="48" viewBox="0 -960 960 960"><path d="M95-95v-257h94v163h163v94H95Zm513 0v-94h163v-163h95v257H608ZM95-608v-258h257v95H189v163H95Zm676 0v-163H608v-95h258v258h-95ZM479.726-318q-70.885 0-116.306-45.615Q318-409.23 318-480.115 318-551 363.615-597t116.5-46Q551-643 597-596.805q46 46.194 46 117.079 0 70.885-46.195 116.306Q550.611-318 479.726-318Zm.451-94Q508-412 528-432.177t20-48Q548-508 527.823-528t-48-20Q452-548 432-527.823t-20 48Q412-452 432.177-432t48 20ZM480-480Z"/></svg>