<svg xmlns="http://www.w3.org/2000/svg" width="48" height="48" viewBox="0 -960 960 960"><path d="M402-757h156q0-32-22.5-53.5T480.7-832q-32.3 0-55.5 21.5Q402-789 402-757Zm-117 95h-56v341h56v-341ZM59-72v-95h441q6 27 20 52.5T552-72H59Zm282-590v341h170q-10 19-16.5 45t-5.5 49H135v-530h201q1-61 42.5-102t101-41q61.42 0 103.96 41.04Q626-817.92 626-756.63h201V-475q-24-10-48-12.5t-47-2.5v-172h-56v180q-16.29 4.62-31.14 11.31Q630-464 620-458v-204H341Zm544 288q56 56 56 139T885-96q-56 56-139 56T607-96q-56-56-56-139t56-139q56-56 139-56t139 56ZM773-88.84q10-9.84 10-25.5t-9.84-25.16q-9.84-9.5-25.5-9.5t-25.16 9.64q-9.5 9.63-9.5 25Q713-99 722.64-89q9.63 10 25 10Q763-79 773-88.84ZM744.89-375q-28.89 0-52.39 18T660-311l47.34 22Q709-305.4 720-315.7t25.09-10.3q16.02 0 24.96 7.75Q779-310.5 779-296q0 10-7 19t-15 16q-6 5-16 14t-15 18.82q-4 8.36-5 15.56-1 7.21-1 16.15V-178h51v-13q0-11 6.5-21t15.5-17q15.53-13.94 26.77-28.47Q831-272 831-295.86q0-34.78-24.66-56.96Q781.67-375 744.89-375ZM285-662h56-56Zm0 0h-56 56Zm56 0h279-279Zm279 0h56-56Zm56 0h56-56Z"/></svg>