<svg xmlns="http://www.w3.org/2000/svg" width="48" height="48"><path d="M21.65 10.05V.85h4.7v9.2zM35.5 15.8l-3.35-3.35 6.55-6.5 3.35 3.3zm2.45 10.55v-4.7h9.2v4.7zm-16.3 20.8v-9.2h4.7v9.2zm-9.2-31.3L6 9.35l3.35-3.3 6.5 6.5zm26.3 26.2-6.6-6.55 3.3-3.3 6.6 6.35zM.85 26.35v-4.7h9.2v4.7zM9.4 42 6 38.65l6.5-6.5 1.7 1.65 1.75 1.65zM24 35.7q-4.9 0-8.3-3.425Q12.3 28.85 12.3 24q0-4.9 3.425-8.3Q19.15 12.3 24 12.3q4.9 0 8.3 3.425Q35.7 19.15 35.7 24q0 4.9-3.425 8.3Q28.85 35.7 24 35.7zm0-4.75q2.9 0 4.95-2.025Q31 26.9 31 24t-2.05-4.95Q26.9 17 24 17q-2.9 0-4.925 2.05T17.05 24q0 2.9 2.025 4.925T24 30.95zM24 24z"/></svg>