<svg xmlns="http://www.w3.org/2000/svg" width="48" height="48" viewBox="0 96 960 960"><path d="M691.882 706q-57.965 0-98.424-40.765-40.458-40.764-40.458-99Q553 508 593.559 467.5t98.5-40.5Q750 427 791 467.576t41 98.542q0 58.382-40.868 99.132Q750.265 706 691.882 706Zm.399-87q22.219 0 37.469-15.232Q745 588.535 745 566.018q0-22.518-15.232-37.268Q714.535 514 692.018 514q-22.518 0-37.268 15.031-14.75 15.03-14.75 37.25 0 22.219 15.031 37.469 15.03 15.25 37.25 15.25ZM433 1022V820q41-25 85.5-42.5T610 747l82 96 81-96q48 10 92 30t87 43.585V1022H433Zm87-87h137l-74-89q-17 5-33 12t-30 16.2V935Zm207 0h138l3-60q-15-10-32-17t-34-12l-75 89Zm-70 0Zm70 0Zm-354 29H95V193h771v276q-17-28-42-47t-53-34V287H189v582h184v95Zm-84-517h280q2-8 4.34-17.5 2.341-9.5 8.66-22.5v-20H289v60Zm0 161h209q-4-14-6-29t-1-31H289v60Zm0 161h118l110-49v-11H289v60Zm84 100H189V287h582v101q-17.966-10.118-37.483-15.559Q714 367 692 367q-82.585 0-140.792 58.208Q493 483.415 493 566q0 41.239 15 77.119Q523 679 549 707l-176 76v86Zm319-303Z"/></svg>