<svg xmlns="http://www.w3.org/2000/svg" width="48" height="48" viewBox="0 -960 960 960"><path d="M480.054-55Q392-55 314.5-88T179-179q-58-58-91-135.445-33-77.446-33-165.501Q55-568 88-645.5t90.843-135.553q57.843-58.052 135.362-91.5Q391.724-906 479.862-906t165.756 33.37q77.619 33.37 135.596 91.29 57.978 57.92 91.382 135.543Q906-568.173 906-479.917q0 88.193-33.447 165.677-33.448 77.483-91.5 135.362Q723-121 645.554-88q-77.445 33-165.5 33Zm-.067-94q65.867 0 127.06-25.306Q668.239-199.613 715-247.38L479.696-480.582V-811Q342-811 245.5-714.688 149-618.375 149-480t96.539 234.688Q342.078-149 479.987-149Z"/></svg>