<svg xmlns="http://www.w3.org/2000/svg" width="48" height="48" viewBox="0 96 960 960"><path d="m414 632-44-44q7.429-11 11.714-23.234 4.286-12.234 4.286-25 0-13.033-4.286-25.788Q377.429 501.222 370 491l44-44q18 18 26.5 42t8.5 50q0 26-8.5 50.5T414 632Zm88.766 88L459 676q26-28 39-63.558t13-72.5Q511 503 498 466.5 485 430 459 402l43.766-44Q538 394 555 441.147q17 47.147 17 98.853 0 50.168-17 97.084Q538 684 502.766 720ZM183.965 577Q146 577 119 549.757q-27-27.244-27-65.5Q92 446 119.035 419q27.036-27 65-27Q222 392 249 419.199t27 65.164q0 37.964-27.035 65.301-27.036 27.336-65 27.336ZM17 760v-30q0-25.206 14.408-47.211T70 649q26.078-10.522 54.603-16.761Q153.128 626 184.064 626t59.417 6.239Q271.963 638.478 299 649q24.286 11.784 38.143 33.789Q351 704.794 351 730v30H17Zm758.965-183Q738 577 711 549.757q-27-27.244-27-65.5Q684 446 711.035 419q27.036-27 65-27Q814 392 841 419.199t27 65.164q0 37.964-27.035 65.301-27.036 27.336-65 27.336ZM609 760v-30q0-25.206 13.857-47.211T662 649q26.078-10.522 54.603-16.761Q745.128 626 776.064 626t59.417 6.239Q863.963 638.478 890 649q24.184 11.784 38.592 33.789Q943 704.794 943 730v30H609Z"/></svg>