<svg xmlns="http://www.w3.org/2000/svg" width="48" height="48" viewBox="0 -960 960 960"><path d="m414-424-44-44q7-11 11.5-23.23 4.5-12.24 4.5-25 0-12.77-4.5-25.77T370-565l44-44q18 18 26.5 42t8.5 50q0 26-8.5 50.5T414-424Zm88.77 88L459-380q26-28 39-63.56t13-72.5q0-36.94-13-73.44T459-654l43.77-44Q538-662 555-614.5t17 98.12q0 50.63-17 97.5Q538-372 502.77-336ZM183.62-479Q146-479 119-506.38q-27-27.38-27-65Q92-610 119.17-637q27.18-27 64.5-27Q222-664 249-636.96q27 27.05 27 65.67 0 37.62-26.88 64.95Q222.24-479 183.62-479ZM17-296v-30q0-25.21 14.41-47.21Q45.82-395.22 70-407q26.08-10.52 54.6-16.76 28.53-6.24 59.46-6.24 30.94 0 59.42 6.24T299-407q24.18 11.78 38.09 33.79Q351-351.21 351-326v30H17Zm758.62-183Q738-479 711-506.38q-27-27.38-27-65Q684-610 711.17-637q27.18-27 64.5-27Q814-664 841-636.96q27 27.05 27 65.67 0 37.62-26.88 64.95Q814.24-479 775.62-479ZM609-296v-30q0-25.21 13.91-47.21Q636.82-395.22 662-407q26.08-10.52 54.6-16.76 28.53-6.24 59.46-6.24 30.94 0 59.42 6.24T890-407q24.18 11.78 38.59 33.79Q943-351.21 943-326v30H609Z"/></svg>