<svg xmlns="http://www.w3.org/2000/svg" width="48" height="48" viewBox="0 -960 960 960"><path d="M386-190q-103.036 0-191.131-52.369T58.653-387L35-433q-13-24-10-51.5T46-533l199-240q10.455-13.04 24.727-22.02Q284-804 299.5-807t31.5-.5q16 2.5 32 10.5l111 60 94-52q19-11 41-7.5t38.8 18.562q15.8 15.844 20 37.363Q672-719.056 663-699L539-410q-13.459 30-41.23 44Q470-352 438-359l-295-61q38 66 102.654 104.5T386-277h191q52 0 97.5-20t85.5-53h-35q-36-1-57.5-36T650-454l27-178q3.837-21.705 17.185-36.386 13.348-14.682 32.478-19.614 19.13-5 38.234 0Q784-683 799-666l115 134q16.727 19.769 20.864 46.385Q939-459 927-436l-15 31.748Q866-306 775.434-248 684.868-190 577-190H386Zm447-248 17-36-93-106-21 142h97Zm-693-73 319 68 106-244-91 49-159-85-175 212Zm212-72Zm441 109Z"/></svg>