<svg xmlns="http://www.w3.org/2000/svg" width="48" height="48" viewBox="0 -960 960 960"><path d="m741-228 77-76-57-81h-70q-9-25-12.5-46.5T675-479q0-26 3.5-47t12.5-47h70l57-81-77-76q-55 45-85.5 111T625-479q0 74 30.5 140T741-228ZM0-109v-742h960v742H0Zm614-82h263v-578H83v578h7q44-68 112.5-108.5T352-340q82 0 150 40.5T614-191ZM439.08-442.5Q475-479 475-531.5t-35.88-89q-35.88-36.5-89-36.5t-89.62 36.5Q224-584 224-531.5t36.42 89Q296.83-406 350-406t89.08-36.5ZM195-191h310q-33.08-30.8-72.5-48.9-39.42-18.1-82.46-18.1Q307-258 267-240.5 227-223 195-191Zm115.98-301.5Q295-508 295-531.61q0-23.62 15.98-39 15.98-15.39 39-15.39t38.52 15.39q15.5 15.38 15.5 39 0 23.61-15.5 39.11T349.98-477q-23.02 0-39-15.5ZM480-480Z"/></svg>