<svg xmlns="http://www.w3.org/2000/svg" width="48" height="48" viewBox="0 96 960 960"><path d="M480 1022q-92 0-173.413-34.711-81.414-34.71-142-95Q104 832 69 750.5 34 669 34 576.618q0-132.031 70.5-241.824Q175 225 297 170q-4 22-4 44.5t5 47.5q-85 49-133 133.554Q117 480.109 117 577q0 150.65 106.247 256.325Q329.493 939 480.247 939 631 939 737 833.325T843 577q0-97.896-48.5-181.948T661 262q5-27 6-48.5t-3-43.5q121 55 191.5 165T926 577q0 92-34.895 173.413-34.894 81.414-95.5 142Q735 953 653.5 987.5T480 1022Zm0-178q-112 0-189.5-77.875T213 577q0-65.55 29.5-121.775Q272 399 325 360q4 17 11.5 38l17.5 49q-27.956 24.582-42.978 58.291Q296 539 296 577q0 77.175 53.5 130.088Q403 760 480 760t130.5-52.912Q664 654.175 664 577q0-38-15-71.5T607 447q9-29 16-50t12-37q53 39 82.5 95.225Q747 511.45 747 577q0 111.25-77.5 189.125T480 844Zm-42-422q-40.383-106.103-50.692-145.052Q377 238 377 202q0-43.32 30.07-73.66Q437.141 98 480.07 98q42.93 0 73.43 30.34Q584 158.68 584 202q0 34.578-11 72.289T522 422h-84Zm41.832 232Q447 654 424.5 631.332t-22.5-55.5Q402 543 424.668 520.5t55.5-22.5Q513 498 535.5 520.668t22.5 55.5Q558 609 535.332 631.5t-55.5 22.5Z"/></svg>