<svg xmlns="http://www.w3.org/2000/svg" width="48" height="48" viewBox="0 96 960 960"><path d="M799.5 936q19.5 0 31-12.5T842 895q0-19.3-13-30.15Q816 854 800.5 854T772 864.85Q759 875.7 759 895q0 16 13 28.5t27.5 12.5ZM476 1001q-117 0-208.829-55.409Q175.342 890.182 126 813l175-176 133 112 182-181v78h83V426H478v83h79L430 637 298.37 525 85.96 736Q71 703 63 662t-8-82.058Q55 492 88 413.5q33-78.5 90.937-137.237 57.937-58.737 135.5-92.5T480.138 150q88.138 0 165.5 34T781 276.5q58 58.5 91.5 137T906 580.11V1001H476Z"/></svg>