<svg xmlns="http://www.w3.org/2000/svg" width="48" height="48" viewBox="0 96 960 960"><path d="M480 767q-15.429 0-25.714-10.286Q444 746.429 444 731q0-15.429 10.286-25.714Q464.571 695 480 695q14.429 0 25.214 10.286Q516 715.571 516 731q0 15.429-10.286 25.714Q495.429 767 480 767Zm-25-114q0-40 8-59.624 8-19.624 35-36.837 31-18.099 40-30.888 9-12.789 9-41.523 0-29.519-18-45.824Q511 422 479.5 422T430 442.323Q412 462.646 406 482l-48-16q15-41 45.853-66.5T480 374q50 0 84.5 29t34.5 81q0 34-13 54.5T538 585q-22 15-27.5 27t-5.5 41h-50Zm-278 386V113h606v926H177Zm94-184h418V297H271v558Z"/></svg>