<svg xmlns="http://www.w3.org/2000/svg" width="48" height="48" viewBox="0 -960 960 960"><path d="M655-657v-209h38v209h-38Zm-175 0v-37h86v-49h-86v-123h123v37h-86v49h86v123H480Zm265 0v-209h123v123h-86v86h-37Zm37-123h49v-49h-49v49Zm11 683q-127 1-252-61T316-320Q216-420 154.5-545.723 93-671.447 93-797q0-16 1.5-35t3.78-34H365l51 223-138 125q50 79 107.879 136.529Q443.759-323.942 516-284l136-137 210 50.788v267.306Q847-101 827.469-99T793-97ZM231-601l80-75-21-96H187q-1 34 10 75.5t34 95.5Zm371 365q36 18 80 29t86 14v-103l-88-20-78 80ZM231-601Zm371 365Z"/></svg>