<svg xmlns="http://www.w3.org/2000/svg" width="48" height="48" viewBox="0 -960 960 960"><path d="M310-415.41q12-12.41 12-30.01t-12.11-29.59q-12.1-11.99-30-11.99Q262-487 250-475.1q-12 11.91-12 29.5 0 17.6 12.11 30.1 12.1 12.5 30 12.5Q298-403 310-415.41Zm0-160q12-12.41 12-30.01t-12.11-29.59q-12.1-11.99-30-11.99Q262-647 250-635.1q-12 11.91-12 29.5 0 17.6 12.11 30.1 12.1 12.5 30 12.5Q298-563 310-575.41ZM369-409h351v-72H369v72Zm0-160h351v-72H369v72ZM317-95v-80H55v-691h851v691H644v80H317ZM149-269h662v-502H149v502Zm0 0v-502 502Z"/></svg>