<svg xmlns="http://www.w3.org/2000/svg" width="48" height="48" viewBox="0 96 960 960"><path d="M268.235 781Q219 781 183.5 747T146 664H68V376h321v216h154.875L690 407V271H567v-71h194v232L577 664H389q-1 49-36.473 83t-84.292 34ZM268 709q19 0 33-13.15T317 664h-98q1 19 15.5 32t33.5 13Zm-80-387v-71h201v71H188Zm582.353 459Q719 781 684 745.853q-35-35.147-35-86.5t34.647-86.853q34.647-35.5 86-35.5t86.853 35.147q35.5 35.147 35.5 86.5T856.853 745.5q-35.147 35.5-86.5 35.5Zm-.248-72q20.92 0 35.908-14.805Q821 679.389 821 658.895q0-20.495-15.088-35.195-15.087-14.7-36-14.7Q749 609 734.5 623.805q-14.5 14.806-14.5 35.3 0 20.495 14.805 35.195 14.806 14.7 35.3 14.7ZM519 1022 273 897h164v-82l245 123H519v84ZM318 592Zm-179 0h179V448H139v144Z"/></svg>