<svg xmlns="http://www.w3.org/2000/svg" width="48" height="48" viewBox="0 -960 960 960"><path d="M480-63q-86.755 0-162.66-32.528-75.905-32.527-132.595-89.217T95.527-317.34Q63-393.245 63-480q0-142 86.5-252.5T373-882v90q-101 34-164 119.365T146-480q0 138.837 97.615 236.419Q341.229-146 480.115-146 619-146 716.5-243.581 814-341.163 814-480q0-107.27-63-192.635T587-792v-90q137 39 223.5 149.5T897-480q0 86.755-32.527 162.66-32.528 75.905-89.218 132.595-56.69 56.69-132.595 89.218Q566.755-63 480-63Zm0-247L256-534l66-66 111 111v-404h94v404l111-111 66 66-224 224Z"/></svg>