<svg xmlns="http://www.w3.org/2000/svg" width="48" height="48"><path d="M24 45.25q-4.4 0-8.275-1.675t-6.75-4.55q-2.875-2.875-4.55-6.75Q2.75 28.4 2.75 24t1.675-8.275q1.675-3.875 4.55-6.75t6.75-4.575Q19.6 2.7 24 2.7t8.275 1.7q3.875 1.7 6.75 4.575t4.575 6.75Q45.3 19.6 45.3 24t-1.7 8.275q-1.7 3.875-4.575 6.75t-6.75 4.55Q28.4 45.25 24 45.25zm-10.55-10.7 14.6-6.45 6.45-14.6-14.6 6.45zM24 26q-.85 0-1.425-.575Q22 24.85 22 24q0-.85.575-1.425Q23.15 22 24 22q.85 0 1.425.575Q26 23.15 26 24q0 .85-.575 1.425Q24.85 26 24 26z"/></svg>