<svg xmlns="http://www.w3.org/2000/svg" width="48" height="48" viewBox="0 -960 960 960"><path d="m826-221-95-95v-70.42L783-403q14-5 23.5-21t9.5-33.31q0-16.23-9.51-30.76Q796.97-502.59 783-510l-52-24v-197H526l-11-68q-4.25-21.92-19.8-36.96T458.25-851q-21.3 0-37.74 15.1Q404.08-820.81 401-799l-11.79 68H315l-94-95h90q11.63-47.88 52.8-83.44Q404.97-945 457.44-945q57.56 0 99.39 35.49Q598.65-874.03 605-826h221v233q37 21 61 55.5t24 80.89q0 48.12-24 84.36Q863-336 826-320v99ZM94-95v-237q53.6-3 90.8-38.35Q222-405.7 222-456.7q0-52.3-37.4-88.28-37.4-35.99-88.6-35.96V-818l94 94v84q50 21 88.5 71.86T317-456.72q0 69.72-38.5 123.22T188-271.02V-189h536l94 94H94Zm473-386Zm-168 21ZM863 3-3-862l51-51L913-48 863 3Z"/></svg>