<svg xmlns="http://www.w3.org/2000/svg" width="48" height="48" viewBox="0 96 960 960"><path d="M482 902q-137 0-232.5-95.209Q154 711.581 154 575.5q0-136.919 95.5-232.709Q345 247 481.5 247t232 95.919Q809 438.837 809 575q0 136.581-95.628 231.791Q617.744 902 482 902Zm3-80q100 0 171.5-71.75T728 576q0-21-3.5-38T712 500q-37 6-52.278 8-15.278 2-26.555 2Q571 510 506.5 474.5T396.534 376Q376 441 334 487t-101 68q-2 118 72.418 192.5Q379.835 822 485 822Zm-81-183q-17 0-29-11.5t-12-29q0-17.5 12-30t29-12.5q17 0 29.5 12.713Q446 581.425 446 598q0 18-12.712 29.5Q420.575 639 404 639Zm153 1q-17 0-29.5-11.787Q515 616.425 515 598.5t12.5-30.213Q540 556 557 556t29.5 12.5Q599 581 599 598q0 18.425-12.5 30.213Q574 640 557 640ZM15 328V110h217v95H109v123H15Zm217 713H15V824h94v123h123v94Zm496 0v-94h123V824h95v217H728Zm123-713V205H728v-95h218v218h-95Z"/></svg>