<svg xmlns="http://www.w3.org/2000/svg" width="48" height="48" viewBox="0 96 960 960"><path d="M63 726v-94h189v-65h-73q-19.75 0-33.375-13.675Q132 539.649 132 519.825 132 500 145.625 486.5 159.25 473 179 473h73q38.775 0 66.388 27.613Q346 528.225 346 567v65h87V336q0-71 50.68-121t121.002-50q48.214 0 88.766 25.5Q734 216 757 258l37 71-85 43-38.421-70.885q-9.344-18.18-27.135-30.148Q625.653 259 604.377 259 572 259 549.5 281.167 527 303.333 527 336v296h87v-65q0-38.775 27.638-66.387Q669.275 473 709 473h72q19.625 0 33.812 13.675Q829 500.351 829 520.175 829 540 814.812 553.5 800.625 567 781 567h-72v65h188v94H63Zm174 227q-38.775 0-66.388-27.612Q143 897.775 143 859V726h94v133h486V726h94v140q0 36.4-25.3 61.7Q766.4 953 730 953H237Z"/></svg>