<svg xmlns="http://www.w3.org/2000/svg" width="48" height="48" viewBox="0 -960 960 960"><path d="M188.38-135.46q-38.83-38.46-38.83-94.54H17v-305h474v-248h149v-97h127v97h93l83 251v302H835q0 55.42-38.5 94.21Q758-97 703-97t-93.5-38.46Q571-173.92 571-230H414q0 56-39 94.5T281.6-97q-54.39 0-93.22-38.46ZM324-186.5q18-17.5 18-42.5-1-25-18.5-42.5t-42-17.5q-24.5 0-42 17.5t-17.5 42q0 24.93 17.3 42.71 17.3 17.79 42 17.79t42.7-17.5Zm421.5-.29Q763-204.57 763-230q0-24-17.5-41.5T703-289q-25 0-42 17.5T643-229q0 25 17.5 42.5T703-169q25 0 42.5-17.79ZM111-441v117h97q11-16 30.5-26.5t43-10.5q23.5 0 43 10.5T356-324h135v-117H111Zm475 117h43q12-16 31.58-26.5t42.5-10.5q22.92 0 42.42 10.5T777-324h72v-117H586v117Zm0-211h257l-51-153H586v153ZM17-575v-55h46v-98H17v-55h434v55h-46v98h46v55H17Zm101-55h89v-98h-89v98Zm144 0h88v-98h-88v98Zm229 189H111h380Zm95 0h263-263Z"/></svg>