<svg xmlns="http://www.w3.org/2000/svg" width="48" height="48" viewBox="0 -960 960 960"><path d="M188.38-135.46q-38.83-38.46-38.83-94.54H17v-305h474v-248h149v-97h127v97h93l83 251v302H835q0 55.42-38.5 94.21Q758-97 703-97t-93.5-38.46Q571-173.92 571-230H414q0 56-39 94.5T281.6-97q-54.39 0-93.22-38.46ZM324-186.25q18-17.25 18-42.75-1-25.5-18.5-42.75t-42-17.25q-24.5 0-42 17.25T222-229.5q0 25.43 17.3 42.96 17.3 17.54 42 17.54t42.7-17.25Zm421.5-.29Q763-204.07 763-230q0-24.5-17.5-41.75T703-289q-25 0-42 17.25T643-229q0 25.5 17.5 42.75T703-169q25 0 42.5-17.54ZM586-535h257l-51-153H586v153ZM17-575v-55h46v-98H17v-55h434v55h-46v98h46v55H17Zm101-55h89v-98h-89v98Zm144 0h88v-98h-88v98Z"/></svg>