<svg xmlns="http://www.w3.org/2000/svg" width="48" height="48"><path d="m10.45 37.15 5.1-8.7q-.25.05-.55.075-.3.025-.55.025-3.4-.3-5.625-2.775T6.6 20q0-3.65 2.55-6.175t6.2-2.525q3.6 0 6.125 2.525T24 20q0 1.05-.25 2.075Q23.5 23.1 23 24l-7.55 13.15zm19.4 0 5.05-8.7q-.25.05-.55.075-.3.025-.55.025-3.4-.3-5.6-2.775Q26 23.3 26 20q0-3.65 2.525-6.175T34.7 11.3q3.6 0 6.15 2.525Q43.4 16.35 43.4 20q0 1.05-.25 2.075Q42.9 23.1 42.4 24l-7.6 13.15zM15.3 23.55q1.5 0 2.525-1.025T18.85 20q0-1.45-1.025-2.5t-2.475-1.05q-1.5 0-2.525 1.025T11.8 20q0 1.45 1.025 2.5t2.475 1.05zm19.35 0q1.5 0 2.55-1.025Q38.25 21.5 38.25 20q0-1.45-1.025-2.5T34.7 16.45q-1.5 0-2.525 1.025T31.15 20q0 1.45 1.025 2.5t2.475 1.05z"/></svg>