<svg xmlns="http://www.w3.org/2000/svg" width="48" height="48" viewBox="0 96 960 960"><path d="M275 757v-55h121v-55h-82v-48h82v-56H275v-51h136.372q18.328 0 30.978 12.554Q455 517.108 455 535.667v177.666q0 18.559-12.65 31.113Q429.7 757 411.372 757H275Zm274 0q-18.7 0-31.35-12.506Q505 731.988 505 713.5v-181q0-18.487 12.65-30.994Q530.3 489 549 489h101q18.7 0 31.35 12.506Q694 514.013 694 532.5v181q0 18.488-12.65 30.994T650 757H549Zm15-55h71V543h-71v159Zm-83.662 304q-80.338 0-150.729-29.787-70.391-29.788-123.2-82.575Q153.6 840.85 123.8 770.694 94 700.538 94 620.206q0-80.75 30-150.978Q154 399 206.5 346.5T329.587 264Q400.175 234 481 234h21l-71-71 49-50 166 166-166 167-49-49 68-68h-18q-122.357 0-207.679 84.332Q188 497.663 188 619.51t84.941 206.669Q357.882 911 479.821 911q121.94 0 207.059-84.329Q772 742.343 772 620h94q0 81-29.76 150.989-29.759 69.989-82.5 122.5Q701 946 630.838 976q-70.162 30-150.5 30Z"/></svg>