<svg xmlns="http://www.w3.org/2000/svg" width="48" height="48" viewBox="0 -960 960 960"><path d="M101-367.8q-46-46.8-46-113t46.16-112.7q46.16-46.5 113-46.5t113.34 46.8q46.5 46.8 46.5 113t-46.66 112.7Q280.68-321 213.84-321T101-367.8Zm532 0q-46-46.8-46-113t46.16-112.7q46.16-46.5 113-46.5t113.34 46.8q46.5 46.8 46.5 113t-46.66 112.7Q812.68-321 745.84-321T633-367.8Zm159-67.14q19-18.94 19-46T792.06-527q-18.94-19-46-19T700-527.06q-19 18.94-19 46T699.94-435q18.94 19 46 19T792-434.94ZM367-633.8q-46-46.8-46-113t46.16-112.7q46.16-46.5 113-46.5t113.34 46.61Q640-812.78 640-746.84q0 66.35-46.66 113.1Q546.68-587 479.84-587T367-633.8Zm159-67.14q19-18.94 19-46T526.06-793q-18.94-19-46-19T434-793.06q-19 18.94-19 46T433.94-701q18.94 19 46 19T526-700.94ZM367-101.37q-46-46.37-46-113.16 0-66.78 46.59-113.13Q414.18-374 480.09-374T593-327.66q47 46.35 47 113.13 0 66.79-46.66 113.16Q546.68-55 479.84-55T367-101.37Zm159-66.57q19-18.94 19-46T526.06-260q-18.94-19-46-19T434-260.06q-19 18.94-19 46T433.94-168q18.94 19 46 19T526-167.94Z"/></svg>