<svg xmlns="http://www.w3.org/2000/svg" width="48" height="48" viewBox="0 -960 960 960"><path d="M479.384-150q18.459 0 35.902-2T550-158.263l-49.468-74.523H357v-40.881L439-356h82v-124h-81.333l-42.417-42v-82H307v-71.738L389-797q-104.082 29.822-171.541 116.35Q150-594.122 150-480h41.4v-82.818H357v82.485l-41.548 41.083V-316H194q44.384 74.923 119.248 120.462Q388.112-150 479.384-150Zm313.921-229Q801-403 805.5-428.288q4.5-25.288 4.5-52.124 0-115.336-69.983-203.536Q670.033-772.148 563-800v113.602l82.85 82.62V-522H693l100.305 143ZM480.404-55q-88.872 0-166.125-33.084-77.254-33.083-135.183-91.012-57.929-57.929-91.012-135.119Q55-391.406 55-480.362q0-88.957 33.084-166.285 33.083-77.328 90.855-134.809 57.772-57.482 135.036-91.013Q391.238-906 480.279-906q89.04 0 166.486 33.454 77.446 33.453 134.853 90.802 57.407 57.349 90.895 134.877Q906-569.34 906-480.266q0 89.01-33.531 166.247-33.531 77.237-91.013 134.86-57.481 57.623-134.831 90.891Q569.276-55 480.404-55Z"/></svg>