<svg xmlns="http://www.w3.org/2000/svg" width="48" height="48" viewBox="0 96 960 960"><path d="M480.235 823Q377 823 305 750.941q-72-72.059-72-175T305.059 400.5q72.059-72.5 175-72.5T655.5 400.265q72.5 72.264 72.5 175.5Q728 679 655.735 751q-72.264 72-175.5 72ZM452 747V643l-73 73q16.14 12.909 34.57 21.455Q432 746 452 747Zm56 0q21.067-1.68 38.567-10.32T581 716l-73-73v104Zm113-70q12-16 20.5-34t10.5-39H548l73 73Zm-73-129h103q-.68-21.067-9.32-39.067T620 475l-72 73Zm-40-40 73-72q-17.14-11.909-35.07-20.955Q528 406 508 405v103Zm-27.895 90Q489 598 496 591.395q7-6.606 7-15.5Q503 567 496.193 560t-16-7q-9.193 0-15.693 6.807t-6.5 16q0 9.193 6.605 15.693 6.606 6.5 15.5 6.5ZM452 508V405q-21.067-.32-39.067 8.82T379 436l73 72Zm-143 40h104l-73-73q-12.04 16.933-21.18 34.433T309 548Zm30 129 74-73H309q1.56 21.067 9.94 39.067 8.38 18 20.06 33.933ZM95 961V190h771v771H95Zm94-94h582V285H189v582Zm0 0V285v582Z"/></svg>