<svg xmlns="http://www.w3.org/2000/svg" width="48" height="48" viewBox="0 -960 960 960"><path d="M482-247q18 0 32-14t14-32.641q0-18.641-14-32Q500-339 481.5-339t-32 13.279q-13.5 13.279-13.5 32.58Q436-275 449.63-261T482-247Zm-43-146h74q0-24 6.5-45.5T557-486q29-22 41.5-48.21 12.5-26.209 12.5-57.908Q611-648 578.203-681.5 545.406-715 488-715q-52 0-93 28.5t-60 75.647L404-585q12-29 32.486-44 20.486-15 44.514-15 24.5 0 41.75 14.651Q540-614.697 540-590.316 540-572 528.5-553.5 517-535 497-519q-28 24-43 52.57T439-393Zm41.138 338Q392-55 314.513-88.084q-77.488-33.083-135.417-91.012T88.084-314.375Q55-391.724 55-479.862 55-569 88.084-646.487q33.083-77.488 90.855-134.969 57.772-57.482 135.195-91.013Q391.557-906 479.779-906q89.221 0 166.827 33.454 77.605 33.453 135.012 90.802 57.407 57.349 90.895 134.877Q906-569.34 906-480q0 88.276-33.531 165.747-33.531 77.471-91.013 135.278-57.481 57.808-134.831 90.891Q569.276-55 480.138-55Z"/></svg>