<svg xmlns="http://www.w3.org/2000/svg" width="48" height="48" viewBox="0 -960 960 960"><path d="M172-259h616q26.513 0 44.756-18.5Q851-296 851-322v-306q0-26.513-18.244-44.756Q814.513-691 788-691H172q-26 0-44.5 18.244Q109-654.513 109-628v306q0 26 18.5 44.5T172-259Zm83 124v-30h-83q-66.013 0-111.506-45.494Q15-255.988 15-322v-306q0-66 45.494-112Q105.987-786 172-786h616q66 0 112 46t46 112v305.725q0 66.763-46 112.019T788-165h-82v30H255Zm158.912-304Q428-439 439-449.32q11-10.319 11-25.575 0-14.505-10.695-25.305-10.694-10.8-25.7-10.8-14.58 0-24.592 10.695Q379-489.611 379-474.605q0 15.005 10.037 25.305 10.038 10.3 24.875 10.3Zm-131.017 0q14.505 0 25.305-10.32 10.8-10.319 10.8-25.575 0-14.505-10.695-25.305-10.694-10.8-25.7-10.8-15.005 0-25.305 10.695-10.3 10.694-10.3 25.7 0 15.005 10.32 25.305 10.319 10.3 25.575 10.3Zm263 0q14.08 0 24.592-10.32Q581-459.639 581-474.895q0-14.505-10.412-25.305-10.413-10.8-25-10.8Q531-511 520.5-500.305q-10.5 10.694-10.5 25.7 0 15.005 10.32 25.305 10.319 10.3 25.575 10.3ZM677-439q15.4 0 25.7-10.32 10.3-10.319 10.3-25.575 0-14.505-10.3-25.305Q692.4-511 677-511q-15.4 0-25.7 10.695-10.3 10.694-10.3 25.7 0 15.005 10.35 25.305Q661.7-439 677-439Zm-197-36Z"/></svg>