<svg xmlns="http://www.w3.org/2000/svg" width="48" height="48" viewBox="0 -960 960 960"><path d="m360-17-47-47v-238H95v-95l80-77v-313h-50v-94h359q-42 35-65 84.07-23 49.07-23 104.93 0 100 66.5 167.5T626-449v147H407v238l-47 47Zm151-543.2q-55-55.2-55-131.8 0-79.43 54.99-134.22 54.98-54.78 133-54.78Q722-881 777-826.22q55 54.79 55 134.22 0 76.6-54.99 131.8-54.98 55.2-133 55.2Q566-505 511-560.2Zm180.44-152.36Q711-732.12 711-760.06T691.46-807q-19.54-19-47.46-19-27.5 0-46.75 19.35-19.25 19.36-19.25 47 0 27.65 19 47.15t46.94 19.5q27.94 0 47.5-19.56ZM705.5-575.5Q734-591 753-618.3q-26-13.7-53.42-22.2-27.43-8.5-55.5-8.5-28.08 0-55.58 8.5T535-618.3q19 27.3 47.5 42.8Q611-560 644-560t61.5-15.5Z"/></svg>