<svg xmlns="http://www.w3.org/2000/svg" width="48" height="48" viewBox="0 96 960 960"><path d="M111 1015v-95h334v95H111Zm583.646-70Q654 945 624.5 915.688 595 886.375 595 845H440v-53q0-96.193 59.5-164.596Q559 559 648 542V146h94v396q90 17 149 85.404Q950 695.807 950 792v53H795q0 41.375-29.227 70.688Q736.546 945 694.646 945ZM231 845V526H6l106-390h333l106 390H325v319h-94Zm312-94h306q-14-53-56.5-87t-97.374-34Q640 630 598 664q-42 34-55 87ZM132 432h297l-52.847-201H186l-54 201Zm149-101Zm416 359Z"/></svg>