<svg xmlns="http://www.w3.org/2000/svg" width="48" height="48" viewBox="0 -960 960 960"><path d="M55-55v-186h851v186H55Zm851-662H55v-189h851v189ZM55-314v-170l414-161h437v211L580-314H55Zm216.8-483.5q6.2-5.5 6.2-13.8t-6.2-14.5q-6.2-6.2-14.5-6.2t-13.8 6.2q-5.5 6.2-5.5 14.5t5.5 13.8q5.5 5.5 13.8 5.5t14.5-5.5Zm1 664q6.2-5.5 6.2-13.8t-6.2-14.5q-6.2-6.2-14.5-6.2t-13.8 6.2q-5.5 6.2-5.5 14.5t5.5 13.8q5.5 5.5 13.8 5.5t14.5-5.5Zm35-266q6.2-5.5 6.2-13.8t-6.2-14.5q-6.2-6.2-14.5-6.2t-13.8 6.2q-5.5 6.2-5.5 14.5t5.5 13.8q5.5 5.5 13.8 5.5t14.5-5.5Zm186.2-398q6-5.5 6-14t-6-14.5q-6-6-14-6t-14 6q-6 6-6 14.5t6 14q6 5.5 14 5.5t14-5.5Zm8 341.5q6-6 6-14t-6-14q-6-6-14.5-6t-14 6q-5.5 6-5.5 14t5.5 14q5.5 6 14 6t14.5-6Zm-8 322.5q6-5.5 6-14t-6-14.5q-6-6-14-6t-14 6q-6 6-6 14.5t6 14q6 5.5 14 5.5t14-5.5Zm182.8-377.7q6.2-6.2 6.2-14.5t-6.2-13.8q-6.2-5.5-14.5-5.5t-13.8 5.5q-5.5 5.5-5.5 13.8t5.5 14.5q5.5 6.2 13.8 6.2t14.5-6.2Zm38.7-286.3q5.5-5.5 5.5-13.8t-5.5-14.5q-5.5-6.2-13.8-6.2t-14.5 6.2q-6.2 6.2-6.2 14.5t6.2 13.8q6.2 5.5 14.5 5.5t13.8-5.5Zm0 664q5.5-5.5 5.5-13.8t-5.5-14.5q-5.5-6.2-13.8-6.2t-14.5 6.2q-6.2 6.2-6.2 14.5t6.2 13.8q6.2 5.5 14.5 5.5t13.8-5.5Z"/></svg>