<svg xmlns="http://www.w3.org/2000/svg" width="48" height="48"><path d="M15 16.15V11.4h28.25v4.75zm0 10.2v-4.7h28.25v4.7zm0 10.25v-4.75h28.25v4.75zM7.3 16.3q-1.05 0-1.8-.725t-.75-1.825q0-1.05.75-1.8t1.8-.75q1.1 0 1.825.75.725.75.725 1.8 0 1.1-.725 1.825Q8.4 16.3 7.3 16.3zm0 10.25q-1.05 0-1.8-.75T4.75 24q0-1.05.75-1.8t1.8-.75q1.1 0 1.825.75.725.75.725 1.8t-.725 1.8q-.725.75-1.825.75zm0 10.2q-1.05 0-1.8-.725T4.75 34.2q0-1.05.75-1.8t1.8-.75q1.1 0 1.825.75.725.75.725 1.8 0 1.1-.725 1.825-.725.725-1.825.725z"/></svg>