<svg xmlns="http://www.w3.org/2000/svg" width="48" height="48" viewBox="0 -960 960 960"><path d="M480-320q4 0 13-8l3-6q16-32 44-55t48-52q11-17 16.5-35.5T610-515q0-53-38-89t-92-36q-54 0-92.5 36T349-515q0 20 6 38.5t17 35.5q20 29 47.5 52t43.5 55l3 6q1 2 14 8Zm-35.5-154.5Q430-489 430-510t14.5-35.5Q459-560 480-560t35.5 14.5Q530-531 530-510t-14.5 35.5Q501-460 480-460t-35.5-14.5ZM320-175q-126.79 0-215.89-89.15Q15-353.3 15-480.15T104.11-696q89.1-89 215.89-89h320q126.79 0 215.89 89.15Q945-606.7 945-479.85T855.89-264q-89.1 89-215.89 89H320Zm0-95h320q87.6 0 148.8-61Q850-392 850-480t-61.2-149q-61.2-61-148.8-61H320q-87.61 0-148.8 61Q110-568 110-480t61.2 149q61.19 61 148.8 61Zm160-210Z"/></svg>