<svg xmlns="http://www.w3.org/2000/svg" width="48" height="48" viewBox="0 -960 960 960"><path d="M360-510q0 57 38 99t82 78q44-36 82-78t38-99q0-50-35-85t-85-35q-50 0-85 35t-35 85Zm91.5 18.5Q440-503 440-520t11.5-28.5Q463-560 480-560t28.5 11.5Q520-537 520-520t-11.5 28.5Q497-480 480-480t-28.5-11.5ZM320-175q-126.79 0-215.89-89.15Q15-353.3 15-480.15T104.11-696q89.1-89 215.89-89h320q126.79 0 215.89 89.15Q945-606.7 945-479.85T855.89-264q-89.1 89-215.89 89H320Zm0-95h320q87.6 0 148.8-61Q850-392 850-480t-61.2-149q-61.2-61-148.8-61H320q-87.61 0-148.8 61Q110-568 110-480t61.2 149q61.19 61 148.8 61Zm160-210Z"/></svg>