<svg xmlns="http://www.w3.org/2000/svg" width="48" height="48" viewBox="0 -960 960 960"><path d="M869-514.601V-86H91v-425q-30-30-36-69.057T60-655l66-211h706l68 211q11 35 3.5 73T869-514.601ZM570-559q24.473 0 42.236-15.5Q630-590 626-614l-24-157h-83v156q0 23.212 14.375 39.606Q547.75-559 570-559Zm-187 0q23.327 0 40.663-15.894Q441-590.788 441-615v-156h-83l-24 157q-3 22 11.115 38.5Q359.231-559 383-559Zm-181.766 0Q222-559 237-574t17-35l25-162h-83l-44 139q-9 29.212 6 51.106Q173-559 201.234-559ZM758-559q28 0 43.5-21.5T808-632l-44-139h-82l24 162q2 20 16.9 35 14.9 15 35.1 15ZM318-222h118v-38h-80v-46h80v-118H318v38h80v42h-80v122Zm286 0h38v-202h-38v80h-42v-80h-38v118h80v84Z"/></svg>