<svg xmlns="http://www.w3.org/2000/svg" width="48" height="48" viewBox="0 -960 960 960"><path d="M480-55q-90.77 0-170.19-35.63-79.41-35.63-137.61-96Q114-247 82.5-328T56-499h96q-5 71 18.68 134.43 23.68 63.44 68 111.5Q283-205 345.5-176.5 408-148 480.33-148q138.05 0 234.36-96.13T811-478.82q0-138.56-96.18-234.87Q618.63-810 480-810q-88.58 0-162.68 42.96Q243.22-724.08 200-653h120v94H55v-267h93v86q57-76 143.07-121 86.06-45 188.93-45 88.34 0 165.88 33.37 77.54 33.37 135.46 91.29 57.92 57.92 91.29 135.46Q906-568.34 906-480q0 88.28-33.45 165.76-33.44 77.48-91.5 135.36Q723-121 645.59-88 568.19-55 480-55ZM365-325v-190h40v-45q0-30.94 22.04-52.97 22.05-22.03 53-22.03Q511-635 533-612.97T555-560v45h40v190H365Zm70-190h90v-44.91Q525-579 512.09-592q-12.91-13-32-13T448-592.06q-13 12.93-13 32.06v45Z"/></svg>