<svg xmlns="http://www.w3.org/2000/svg" width="48" height="48" viewBox="0 -960 960 960"><path d="M639.5-87Q583-143 583-224t56.5-137q56.5-56 137-56T913-361q56 56 56 137T913-87q-56 56-136.5 56t-137-56ZM850-115l35-35-86-78.39V-356h-54v144l105 97ZM367-662h215v-70.77q0-47.56-31.26-79.9Q519.47-845 474.24-845 429-845 398-812.67q-31 32.34-31 79.9V-662ZM586-57H129v-605h144v-71q0-86.34 58.26-146.67 58.26-60.33 143-60.33 84.74 0 143.24 60.33Q676-819.34 676-733v71h144v188q-13.5-2-28-3t-29 0q-102 4-171 77t-69 176q0 47.31 16.5 89.65Q556-92 586-57Z"/></svg>