<svg xmlns="http://www.w3.org/2000/svg" width="48" height="48" viewBox="0 -960 960 960"><path d="m523.5-268 135.901-137.291Q671-415 675.5-427.664q4.5-12.663 4.5-27.682 0-31.581-21.824-53.617Q636.353-531 605.436-531q-19.793 0-39.115 13-19.321 13-42.857 41-24.464-28-43.426-41-18.961-13-38.038-13-30.927 0-52.963 22.037Q367-486.927 367-455.346q0 15.019 4.5 27.682Q376-415 386.672-405.291L523.5-268ZM515-14 55-476v-430h431l460 457L515-14ZM252.882-658Q273-658 288-673.028q15-15.028 15-35.354t-14.882-35.472Q273.235-759 253.118-759 232-759 217-743.972q-15 15.028-15 35.354t14.882 35.472q14.883 15.146 36 15.146Z"/></svg>