<svg xmlns="http://www.w3.org/2000/svg" width="48" height="48" viewBox="0 -960 960 960"><path d="M248-272q53.566 0 104.283 12.5T452-222v-427q-45-30-97.619-46.5Q301.763-712 248-712q-38 0-74.5 9.5T100-679v434q31-14 70.5-20.5T248-272Zm264 50q50-25 98-37.5T712-272q38 0 78.5 6t69.5 16v-429q-34-18-71.822-25.5Q750.355-712 712-712q-54 0-104.5 16.5T512-649v427Zm-27.821 117Q432-142 372.326-165.5 312.651-189 248-189q-59.722 0-127.861 30Q52-129 17-109v-629.984Q63-767 124.091-781.5 185.182-796 246-796q64.314 0 124.157 17.5T482-724q51-36 110-54t122-18q60.818 0 122.409 15Q898-766 943-738.984V-109q-35-21-103.247-50.5T712-189q-63.224 0-119.933 24.5Q535.358-140 484.179-105ZM276-467Zm284-79v-48q33-14 67.5-21t72.5-7q26 0 51 4t49 10v44q-24-9-48.5-13.5T700-582q-38 0-73 9.5T560-546Zm0 220v-49q33-13.5 67.5-20.25T700-402q26 0 51 4t49 10v44q-24-9-48.5-13.5T700-362q-38 0-73 9t-67 27Zm0-110v-48q33-14 67.5-21t72.5-7q26 0 51 4t49 10v44q-24-9-48.5-13.5T700-472q-38 0-73 9.5T560-436Z"/></svg>