<svg xmlns="http://www.w3.org/2000/svg" width="48" height="48"><path d="m36.65 30.5-3.05-3.05q.85-1.15 1.225-2.55.375-1.4.375-3.05h4.15q0 2.3-.7 4.575-.7 2.275-2 4.075zm-7-6.9-4.45-4.45V9.6q0-.7-.525-1.225-.525-.525-1.275-.525-.8 0-1.275.525-.475.525-.475 1.225v6l-4.4-4.4V7.75q.5-1.85 2.2-3.225 1.7-1.375 3.95-1.375 2.7 0 4.6 1.875Q29.9 6.9 29.9 9.6v12.25q0 .3-.05.925t-.2.825zm11.5 21.55-9.7-9.7q-1.25.8-2.85 1.275-1.6.475-3.1.625v6.95h-4.15v-6.95q-5.9-.6-9.9-5t-4-10.5h4.15q0 4.85 3.45 8.2 3.45 3.35 8.35 3.35 1.6 0 2.875-.25t2.375-.85L1.55 5.2 3.9 2.9l39.75 39.75zM23.25 17.2z"/></svg>