<svg xmlns="http://www.w3.org/2000/svg" width="48" height="48" viewBox="0 -960 960 960"><path d="m733-350-61-61q17-23 24.5-51t7.5-61h83q0 46-14 91.5T733-350ZM465-616Zm128 128-89-89v-190.7q0-14.3-10.5-24.8t-26-10.5q-15.5 0-25 10.58Q433-781.85 433-768v120l-88-88v-69q10-37 44-64.5t79-27.5q53.83 0 91.92 37.58Q598-821.83 598-768v245q0 6.29-.81 18.53-.81 12.23-4.19 16.47ZM427-74v-139.1Q307-226 228-314t-79-209h83q0 97 70.06 164 70.07 67 165.94 67 44.49 0 85.25-16.5Q594-325 627-353l60 60q-36 34-81 54t-97 26v139h-82Zm400 13L32-856l46-46 795 795-46 46Z"/></svg>