<svg xmlns="http://www.w3.org/2000/svg" width="48" height="48" viewBox="0 -960 960 960"><path d="m304-16-87-65v-162h-41q-40.212 0-67.606-27.1Q81-297.2 81-337v-357H28v-87h189v-65h-73v-87h234v87h-74v65h190v87h-54v357q0 39.8-27.625 66.9Q384.75-243 346-243h-42v227Zm395.5-66q-74.5 0-127-51.944Q520-185.887 520-261v-320q0-75 52.5-127.5t127-52.5q74.5 0 127 52.5T879-581v320q0 75.113-52.5 127.056Q774-82 699.5-82ZM168-330h185v-65H233v-94h120v-45H233v-95h120v-65H168v364Zm531.411-344Q661-674 634-647.056T607-581v10h185v-10q0-39-27.089-66-27.088-27-65.5-27ZM607-351h185v-141H607v141Zm93.089 182Q738-169 765-196.062q27-27.063 27-64.938v-10H607v10q0 38 26.97 65t66.119 27ZM700-571Zm0 300Z"/></svg>