<svg xmlns="http://www.w3.org/2000/svg" width="48" height="48" viewBox="0 -960 960 960"><path d="M175-15v-167q70 0 118.5 48.82Q342-84.35 342-15H175Zm215 0q0-89-62.5-152T175-230v-72q118.58 0 202.79 84.04T462-15h-72Zm120 0q0-139-97.36-237T175-350v-72q84.28 0 158.22 32.61 73.94 32.6 129.26 87.43 55.31 54.82 87.42 128.82Q582-99.14 582-15h-72Zm-5.5-695.5Q515-721 515-736t-10.5-25.5Q494-772 479-772t-25.5 10.5Q443-751 443-736t10.5 25.5Q464-700 479-700t25.5-10.5ZM689-15q-17-92.91-62.5-177.45Q581-277 513.5-341.5 446-406 360-444t-185-38v-464h609v223h42v193h-42v515h-95Z"/></svg>