<svg xmlns="http://www.w3.org/2000/svg" width="48" height="48" viewBox="0 -960 960 960"><path d="M446.5-491.5Q433-505 433-525v-337q0-20 13.5-34t33.5-14q20 0 33.5 14t13.5 34v337q0 20-13.5 33.5T480-478q-20 0-33.5-13.5ZM330-123q-70-30-122.5-82.5T125-328q-30-70-30-150 0-64 20-123t60-108q13-17 34-18.5t37 12.5q13 13 13 32.5T248-647q-29 36-44 79.5T189-478q0 121 85 206t206 85q121 0 206-85t85-206q0-47-15-89.5T713-647q-12-17-12.5-35.5T714-715q17-15 39-13t36 20q39 49 58 108t19 122q0 80-30.5 150t-83 122.5Q700-153 630-123T480-93q-80 0-150-30Z"/></svg>