<svg xmlns="http://www.w3.org/2000/svg" width="48" height="48" viewBox="0 0 48 48"><path d="M24 24.1q-1 0-1.675-.675t-.675-1.675V4.9q0-1 .675-1.7T24 2.5q1 0 1.675.7t.675 1.7v16.85q0 1-.675 1.675T24 24.1Zm0 19.25q-4 0-7.5-1.5t-6.125-4.125Q7.75 35.1 6.25 31.6t-1.5-7.5q0-3.2 1-6.15t3-5.4q.65-.85 1.7-.925 1.05-.075 1.85.625.65.65.65 1.625t-.55 1.775q-1.45 1.8-2.2 3.975-.75 2.175-.75 4.475 0 6.05 4.25 10.3 4.25 4.25 10.3 4.25 6.05 0 10.3-4.25 4.25-4.25 4.25-10.3 0-2.35-.75-4.475-.75-2.125-2.15-3.975-.6-.85-.625-1.775-.025-.925.675-1.625.85-.75 1.95-.65 1.1.1 1.8 1 1.95 2.45 2.9 5.4t.95 6.1q0 4-1.525 7.5t-4.15 6.125Q35 40.35 31.5 41.85t-7.5 1.5Z"/></svg>