<svg xmlns="http://www.w3.org/2000/svg" width="48" height="48" viewBox="0 -960 960 960"><path d="M183.5-228Q148-262 146-311H68v-288h321v216h154.63L690-568v-136H567v-71h194v232L577-311H389q-1 49-36.26 83-35.27 34-84.5 34-49.24 0-84.74-34ZM318-383Zm-17 103.85q14-13.15 16-31.85h-98q1 19 15.5 32t33.5 13q19 0 33-13.15ZM188-653v-71h201v71H188Zm496 423.85q-35-35.14-35-86.5 0-51.35 34.65-86.85 34.64-35.5 86-35.5 51.35 0 86.85 35.15 35.5 35.14 35.5 86.5 0 51.35-35.15 86.85-35.14 35.5-86.5 35.5Q719-194 684-229.15Zm122-51.46q15-14.6 15-35.5 0-20.89-15.11-35.39-15.1-14.5-36-14.5-20.89 0-35.39 14.61-14.5 14.6-14.5 35.5 0 20.89 14.61 35.39 14.6 14.5 35.5 14.5Q791-266 806-280.61ZM139-383h179v-144H139v144Z"/></svg>