<svg xmlns="http://www.w3.org/2000/svg" width="48" height="48" viewBox="0 -960 960 960"><path d="M729-120q-79 0-135-56t-56-135q0-80 56-135.5T729-502q80 0 135.5 55.5T920-311q0 79-55.5 135T729-120Zm-21-170h47v-143h-47v143Zm24 106q13 0 22-8.5t9-22.5q0-14-9-23t-22-9q-14 0-22.5 9t-8.5 23q0 14 8.5 22.5T732-184ZM186-530h94q9 67 56.5 114T450-360v94q-105-10-179.5-84.5T186-530Zm264-324v94q-67 9-114 56t-56 114h-94q10-105 84.734-178.913Q345.468-842.826 450-854Zm30.023 207q36.543 0 61.76 25.385T567-560.009Q567-524 541.615-498.5T480.009-473Q444-473 418.5-498.351T393-560.023q0-36.543 25.351-61.76T480.023-647ZM510-854q105 10 178.913 84.734Q762.826-694.532 774-590h-94q-9-67-56-114t-114-56v-94ZM55-728v-258h257v95H149v163H55Zm257 593H55v-257h94v163h163v94Zm499-593v-163H648v-95h258v258h-95Z"/></svg>