<svg xmlns="http://www.w3.org/2000/svg" width="48" height="48" viewBox="0 -960 960 960"><path d="M303-791v-62q0-31.69 22.13-53.34Q347.25-928 378-928h204q31.69 0 53.34 21.66Q657-884.69 657-853v62h114q39.19 0 67.09 27.91Q866-735.19 866-696v64H95v-64q0-39.19 27.91-67.09Q150.81-791 190-791h113ZM190-82q-39.19 0-67.09-27.61Q95-137.22 95-176v-373h174v89q0 30.75 22.13 52.87Q313.25-385 344-385h272q31.69 0 53.34-22.13Q691-429.25 691-460v-89h175v373q0 38.78-27.91 66.39Q810.19-82 771-82H190Zm149-153.78q12-11.77 12-29.18 0-17.42-11.78-29.23Q327.45-306 310.04-306t-29.23 11.96q-11.81 11.97-11.81 29Q269-248 280.96-236q11.97 12 29 12Q327-224 339-235.78Zm170-.18q12-11.97 12-29Q521-282 509.04-294q-11.97-12-29-12Q463-306 451-294.04q-12 11.97-12 29Q439-248 450.96-236q11.97 12 29 12Q497-224 509-235.96Zm170 0q12-11.97 12-29Q691-282 679.04-294q-11.97-12-29-12Q633-306 621-294.04q-12 11.97-12 29Q609-248 620.96-236q11.97 12 29 12Q667-224 679-235.96ZM351-468v-81h258v81H351Zm35-323h188v-55H386v55Z"/></svg>