<svg xmlns="http://www.w3.org/2000/svg" width="48" height="48" viewBox="0 -960 960 960"><path d="M334.5-308.48q-32.5-32.48-32.5-79t32.34-79.02Q366.68-499 413-499q16 0 30 4t27 12v-166h181v99H525v162q0 46.74-32.48 79.37t-79 32.63q-46.52 0-79.02-32.48ZM480-55q-90.77 0-170.19-35.63-79.41-35.63-137.61-96Q114-247 82.5-328T56-499h96q-5 71 18.68 134.43 23.68 63.44 68 111.5Q283-205 345.5-176.5 408-148 480.33-148 618-148 714.5-244.32t96.5-234.5Q811-617 714.63-713.5T480-810q-88.58 0-162.68 42.96Q243.22-724.08 200-653h120v94H55v-267h93v86q57-76 143.07-121 86.06-45 188.93-45 88.34 0 165.88 33.4 77.54 33.41 135.46 91.39 57.92 57.97 91.29 135.59Q906-568 906-479.78t-33.45 165.66q-33.44 77.43-91.5 135.28Q723-121 645.59-88 568.19-55 480-55Z"/></svg>