<svg xmlns="http://www.w3.org/2000/svg" width="48" height="48" viewBox="0 96 960 960"><path d="M162.956 838Q125 838 99 811.469T73 748V383.411Q73 346 99.044 319.5t64-26.5Q200 293 226.5 319t26.5 63q35-52 91.73-84 56.729-32 124.27-32 54.122 0 102.561 20.5Q620 307 658.113 345.113L893 579 515 956 280 723q-9.143-7.667-15.571-16.833Q258 697 253 687v61q0 36.938-26.544 63.469Q199.911 838 162.956 838ZM294 533.216q0 33.784 13.472 66.697 13.471 32.913 38.573 57.132L515 827l247-248-168.955-169.955q-25.085-24.102-57.231-37.573Q503.668 358 469.722 358 396 358 345 408.917q-51 50.916-51 124.299ZM528 592Z"/></svg>