<svg xmlns="http://www.w3.org/2000/svg" width="48" height="48" viewBox="0 96 960 960"><path d="M226 953q-55 0-93.5-38.208Q94 876.583 94 822V399h94v423q0 15.725 11.188 26.362Q210.375 859 226.07 859q16.57 0 26.75-10.638Q263 837.725 263 822V331q0-55 38.706-93.5t94-38.5Q451 199 489 237.5t38 93.5v491q0 15.725 11.188 26.362Q549.375 859 565.07 859q16.57 0 26.75-10.638Q602 837.725 602 822V331q0-55 38.706-93.5t94-38.5Q790 199 828 237.5t38 93.5v422h-94V331q0-15.625-10.617-26.812Q750.765 293 735.07 293q-16.57 0-27.32 11.188Q697 315.375 697 331v491q0 54.583-38.5 92.792Q620 953 565 953t-93.5-38.208Q433 876.583 433 822V331q0-15.625-10.617-26.812Q411.765 293 396.07 293q-16.57 0-27.32 11.188Q358 315.375 358 331v491q0 54.583-38.5 92.792Q281 953 226 953Z"/></svg>