<svg xmlns="http://www.w3.org/2000/svg" width="48" height="48" viewBox="0 96 960 960"><path d="M479.788 993q-86.543 0-162.448-32.527-75.905-32.528-132.595-89.218-56.69-56.69-89.218-132.807Q63 662.332 63 575.788q0-86.543 32.528-162.448 32.527-75.905 89.217-132.595t132.807-89.218Q393.668 159 480.212 159q86.543 0 162.448 32.527 75.905 32.528 132.595 89.218 56.69 56.69 89.218 132.807Q897 489.668 897 576.212q0 86.543-32.527 162.448-32.528 75.905-89.218 132.595-56.69 56.69-132.807 89.218Q566.332 993 479.788 993Zm.038-94Q614 899 708.5 804.674q94.5-94.325 94.5-228.5Q803 442 708.674 347.5q-94.325-94.5-228.5-94.5Q346 253 251.5 347.326q-94.5 94.325-94.5 228.5Q157 710 251.326 804.5q94.325 94.5 228.5 94.5Zm.121-177Q419 722 376.5 679.447t-42.5-103.5Q334 515 376.553 472.5t103.5-42.5Q541 430 583.5 472.553t42.5 103.5Q626 637 583.447 679.5t-103.5 42.5Z"/></svg>