<svg xmlns="http://www.w3.org/2000/svg" width="48" height="48" viewBox="0 -960 960 960"><path d="M845-25 734-136v84H46v-555.316h173.092L241-630 22-848l51-51L896-76l-51 51ZM140-146h503v-82L530-340q3 61-38.905 104T389-193q-58 0-99-40.5T249-333q0-59 42.5-101T396-474l-38-39H140v367Zm248.471-118Q417-264 437-283.971q20-19.97 20-48.5Q457-361 437.235-381q-19.764-20-48.294-20-28.529 0-48.735 19.816T320-333.059q0 28.726 19.971 48.892Q359.941-264 388.471-264ZM737-335l-96-97v-98h-99L409-663h98.429L558-607h179v272Zm54-210v-187h-27v-177h149l-52 119h54L791-545ZM641-432Zm-141 62Z"/></svg>