<svg xmlns="http://www.w3.org/2000/svg" width="48" height="48" viewBox="0 -960 960 960"><path d="M78-552q0-89.135 36.5-169.067Q151-801 219-859l56 61q-55 46-84.5 110.543Q161-622.915 161-552H78Zm722 0q0-71-28-135.5T689-798l56-61q68 58 103 137.69T883-552h-83ZM117-178v-95h93v-278q0-92.085 53.5-167.542Q317-794 407-814v-95h146v95q91 20 145 95.458Q752-643.085 752-551v278h92v95H117Zm363-316Zm.5 439q-35.45 0-61.975-25.85T392-143h177q0 37-26.231 62.5Q516.537-55 480.5-55ZM304-273h353v-278q0-75-51-126.5T481-729q-75 0-126 51.5T304-551v278Z"/></svg>