<svg xmlns="http://www.w3.org/2000/svg" width="48" height="48" viewBox="0 -960 960 960"><path d="M480.5-46q-36.45 0-62.475-26.144Q392-98.287 392-135h177q0 37-26.231 63-26.232 26-62.269 26ZM135-175v-94h71v-279q0-92.693 53-168.347Q312-792 403-812.333V-906h154v94.484q21.923 3.683 40.778 12.143T635-779q-18.375 16.922-33.688 36.961Q586-722 577-699q-21-14-45.588-21.5T480-728q-75 0-127.5 53T300-548v279h360v-133q21 15 44.5 24.5t50.5 12.898V-269h71v94H135Zm345-323Zm284 58v-124H640v-72h124v-124h72v124h124v72H836v124h-72Z"/></svg>