<svg xmlns="http://www.w3.org/2000/svg" width="48" height="48" viewBox="0 -960 960 960"><path d="M440-216ZM95-122v-120.795q0-44.507 22.828-77.721Q140.656-353.73 177-371q69-31 133.469-46.5T440-433q27.25 0 53 2.5t53 7.5q-2 26.333 3 51.167Q554-347 565-325q-31-6-61.588-9.5T440-338q-56 0-108.5 11t-110.214 37.844Q207-282.441 198-268.425q-9 14.016-9 29.425v23h463v94H95ZM777 6l-64.846-64.406v-199.658Q664.6-272.018 634.8-311.369 605-350.72 605-402.47 605-465 648.641-509q43.642-44 106.329-44 62.687 0 106.858 44.324Q906-464.351 906-401.649 906-353 879-315.5T810-262l53 53-65 65 65 64-86 86Zm-22-387q17.575 0 30.287-12.596 12.713-12.597 12.713-30Q798-441 785.287-454 772.575-467 755-467t-30.287 13Q712-441 712-423.5t12.713 30Q737.425-381 755-381ZM439.518-513Q366-513 315.5-563.779q-50.5-50.778-50.5-124Q265-761 315.482-812q50.483-51 124-51Q513-863 564.5-811.806t51.5 124.01q0 73.228-51.482 124.012Q513.035-513 439.518-513Zm.19-94Q473-607 497-630.708t24-57Q521-721 497.292-745t-57-24Q407-769 383-744.907q-24 24.092-24 56.987 0 33.306 23.708 57.113 23.708 23.807 57 23.807Zm.292-81Z"/></svg>