<svg xmlns="http://www.w3.org/2000/svg" width="48" height="48" viewBox="0 -960 960 960"><path d="M705-80q-79.435 0-134.218-55.283Q516-190.565 516-269q0-78.435 54.782-133.717Q625.565-458 705-458q78.435 0 133.718 55.283Q894-347.435 894-269q0 78.435-55.282 133.717Q783.435-80 705-80Zm58.243-81L798-197l-76-76.198V-389h-51v133.716L763.243-161ZM95-95v-771h268q11-36 43.206-59.5T480-949q40 0 72.5 23.5T598-866h268v403q-22-15-45.516-25.98T771-504v-267h-55v102H244v-102h-55v582h282q7 25 21 50t33 44H95Zm385-690q17 0 28.5-11.5T520-825q0-16-11.5-28T480-865q-17 0-28.5 12T440-825q0 17 11.5 28.5T480-785Z"/></svg>