<svg xmlns="http://www.w3.org/2000/svg" width="48" height="48" viewBox="0 -960 960 960"><path d="M479.5-244Q414-244 354-222.5T240-155v6h480q-50-45-112.5-70t-128-25ZM189-204q58-53 131-82t160-29q87 0 159.5 28T771-206v-545H189v547Zm291-175q-59 0-100.5-41.5T338-521q0-59 41.5-100T480-662q59 0 100.5 41T622-521q0 59-41.5 100.5T480-379Zm.471-71Q509-450 529.5-471.176q20.5-21.177 20.5-50Q550-550 529.029-570.5q-20.97-20.5-49.5-20.5Q451-591 430.5-570.029q-20.5 20.97-20.5 49.5Q410-492 430.971-471q20.97 21 49.5 21ZM95-55v-791h150.2v-60H327v60h306v-60h82.2v60H866v791H95Zm385-466Zm0 372h240-480 240Z"/></svg>