<svg xmlns="http://www.w3.org/2000/svg" width="48" height="48" viewBox="0 -960 960 960"><path d="M480-563q-77 0-126-49.284t-49-125.512Q305-815 353.987-864q48.988-49 125.513-49 77.5 0 127 49T656-738.296q0 76.703-49.5 126Q557-563 480-563Zm-.168-94Q516-657 538.5-679.807t22.5-58.025Q561-774 538.668-796.5t-58-22.5Q445-819 422-796.5t-23 58.168q0 35.668 22.807 58.5T479.832-657ZM135-46v-258q0-45 22.172-77.329 22.172-32.329 59.828-49.766Q268-454 335.811-473.5 403.623-493 479.918-493q76.296 0 142.414 19.081Q688.45-454.839 742-431q39.125 17.123 61.562 49.562Q826-349 826-304v164q0 39.05-27.769 66.525Q770.463-46 731-46H401q-48.927 0-82.964-34.074Q284-114.147 284-163.128t34.036-82.927Q352.073-280 401-280h113l51-111q-21-4-41.969-5.5t-43.205-1.5q-67.85 0-122.338 14.5t-96.71 34.292Q248-342 238.5-328.017 229-314.033 229-300v254h-94Zm266-83h35l34-68h-69q-12.8 0-23.4 10.643-10.6 10.643-10.6 24T377.6-139q10.6 10 23.4 10Zm136-11h194v-160q0-14.033-9.5-27.808T698-349q-9.2-5.316-22.1-9.158Q663-362 647-369L537-140Zm-57-598Zm7 477Z"/></svg>