<svg xmlns="http://www.w3.org/2000/svg" width="48" height="48" viewBox="0 -960 960 960"><path d="M650-314H375q-26 0-42.5 16T312-260.74q-4 21.25 5.5 42.5Q327-197 353-188L609-87q8 4 15 2.5t13-5q6-3.5 9.5-10.3 3.5-6.81 3.5-15.2v-199ZM523-870.25q51 50.75 51 123T523.25-624.5q-50.75 50.5-123 50.5T277.5-624.54Q227-675.09 227-747.04 227-819 277.54-870q50.55-51 122.5-51Q472-921 523-870.25ZM777-534q31.45 0 54.23 20Q854-494 854-461.88q0 22.88-15.73 39.29Q822.54-406.17 800-400l-91 26H374.72q-51.88 0-88.3 36.5Q250-301 250-249q0 29.88 13 56.44T300-147H107v-173.39q0-88.61 62.04-151.11Q231.08-534 320-534h457Z"/></svg>