<svg xmlns="http://www.w3.org/2000/svg" width="48" height="48" viewBox="0 -960 960 960"><path d="M660.2-130.967 707-178l-84-83-46.033 45.8Q559-197 559.5-172.938q.5 24.063 17.438 42 16.937 15.938 41.5 16.438Q643-114 660.2-130.967ZM762-233l46.033-45.8Q826-297 825.5-321.062q-.5-24.063-18.438-42-16.937-16.938-41-16.938Q742-380 724.8-363.033L679-316l83 83ZM721-70q-42.61 43-102.805 43Q558-27 515-70q-42-42-42-102.695Q473-233.39 515-276l149-148q42.61-43 102.805-43Q827-467 870-424q42 42 42 102.695Q912-260.61 870-219L721-70ZM189-189v-582 582Zm240 94H95v-771h274q11-35 41-57.5t70-22.5q40 0 70 22.5t41 57.5h275v365q-23-14-46.5-20.5T771-528v-243H189v582h224q-2 24 2 47.5T429-95Zm51-696q17.467 0 29.233-11.767Q521-814.533 521-832t-11.767-29.233Q497.467-873 480-873t-29.233 11.767Q439-849.467 439-832t11.767 29.233Q462.533-791 480-791ZM289-611v-60h382v60H289Zm0 161v-60h357v23q-5 4-11 8.5t-11 8.5l-19 20H289Zm0 161v-60h215l-31 31q-7 7-12.5 14.5T450-289H289Z"/></svg>