<svg xmlns="http://www.w3.org/2000/svg" width="48" height="48" viewBox="0 -960 960 960"><path d="M95-55v-721h144v-174h482v174h145v721H95Zm238-721h293v-80H333v80ZM189-149h582v-532H189v532Zm290.707-65Q563-214 622-272.433t59-142.5Q681-497 622.293-556.5q-58.706-59.5-142-59.5Q397-616 338-556.567t-59 141.5Q279-331 337.707-272.5q58.706 58.5 142 58.5Zm.344-59q-59.465 0-100.758-41.364Q338-355.727 338-415.364 338-473 379.364-514.5q41.363-41.5 100.5-41.5Q539-556 580-514.465q41 41.535 41 99.414 0 59.465-41.278 100.758Q538.444-273 480.051-273ZM525-334l35-36-55-55v-94h-51v114l71 71Zm-45-81Z"/></svg>