<svg xmlns="http://www.w3.org/2000/svg" width="48" height="48" viewBox="0 0 48 48"><path d="M30.15 40.3h2.75v-6.35h-2.75Zm1.3-8.3q.6 0 1.025-.425.425-.425.425-.975 0-.6-.45-1t-.95-.4q-.6 0-.975.45t-.375 1q0 .55.35.95.35.4.95.4Zm-22-24.55v14.3-.2 19-33.1 9.3Zm4.5 19.65h8.35q.7-1.05 1.575-1.925t1.875-1.625h-11.8Zm0 8.5h6.15q-.1-.9-.075-1.775.025-.875.225-1.775h-6.3Zm-9.2 9.65V2.7H27.6l11.7 11.7v8.75q-1.15-.6-2.35-.95-1.2-.35-2.4-.45v-5H25.1v-9.3H9.45v33.1H21.8q.75 1.5 1.875 2.675Q24.8 44.4 26.2 45.25Zm28-20.7q4.05 0 6.875 2.825t2.825 6.875q0 4.05-2.825 6.875T32.75 43.95q-4.05 0-6.875-2.825T23.05 34.25q0-4.05 2.825-6.875t6.875-2.825Z"/></svg>