<svg xmlns="http://www.w3.org/2000/svg" width="48" height="48" viewBox="0 96 960 960"><path d="M226 1022q-58.917 0-99.458-40.542Q86 940.917 86 881.529V732h139V159l65.8 64 64.8-64 63.8 64 65.8-64 63.8 64 65-64 64 64 65-64 64 64 67-64v723q0 58.917-40.833 99.458Q792.333 1022 734 1022H226Zm508.5-95q19.5 0 32-12.557Q779 901.885 779 881.8V297H319v435h370v150q0 20 13 32.5t32.5 12.5ZM372 461v-60h221v60H372Zm0 134v-60h221v60H372Zm314-134q-12 0-21-9t-9-21q0-12 9-21t21-9q12 0 21 9t9 21q0 12-9 21t-21 9Zm0 129q-12 0-21-9t-9-21q0-12 9-21t21-9q12 0 21 9t9 21q0 12-9 21t-21 9ZM225 927h370V827H181v55q0 20 12.65 32.5T225 927Zm-44 0V827v100Z"/></svg>