<svg xmlns="http://www.w3.org/2000/svg" width="48" height="48" viewBox="0 -960 960 960"><path d="m96-403 334-486v486H96Zm159-83h92v-138l-92 138Zm247 83q24-80 30.5-138.5T539-670q0-72-8-140.5T498-953q59 25 120.5 77t113 124Q783-680 817-591t36 188H502Zm102-83h156q-15-75-57.5-155.5T610-776q6 26 8.5 55.5t2.5 50.136q0 42.245-5.5 93.804Q610-525 604-486ZM360-197q-33 0-64-16.567-31-16.566-56-42.433-19 18-43.5 32.5T151-203q-26-19-50-57.5T69-340h823q-9 41-33 79.5T809-203q-21-6-45.5-20.5T720-256q-25 25.867-56 42.433Q633-197 600-197t-64-16.567Q505-230.133 480-256q-25 25.867-56 42.433Q393-197 360-197ZM69-17v-83h51q30 0 59.5-11.5T240-152q31 29 61 40.5t59 11.5q30 0 60-11.5t59.982-40.5Q511-123 541-111.5t59 11.5q30 0 60-11t60-40q30 29 60 40t60 11h51v83h-51q-29 0-59.663-8.5Q749.674-34 720-56q-29.674 22-60.337 30.5Q629-17 600-17q-29 0-59.663-8.5Q509.674-34 480-56q-29.674 22-60.337 30.5Q389-17 360-17q-29 0-59.663-8.5Q269.674-34 240-56q-29.674 22-60.337 30.5Q149-17 120-17H69Zm278-469Zm256 0Z"/></svg>