<svg xmlns="http://www.w3.org/2000/svg" width="48" height="48" viewBox="0 -960 960 960"><path d="M189-189v-602 276-3 329ZM95-95v-791h599l172 171.79V-487q-22.17-12.29-45.58-19.14Q797-513 771-515.07V-672L652-791H189v602h321q7 27 22 51t35 43H95Zm516-40.5Q556-191 556-269t55-133.5Q666-458 744.5-458t134 55.5Q934-347 934-269t-55.5 133.5Q823-80 744.5-80T611-135.5Zm151-137.7V-389h-51v133.72L803.24-161 838-197l-76-76.2ZM242-575h358v-143H242v143Zm255 324q-1-3.94-1-8.88v-8.98q0-45.08 15.5-87.61T558-433q-17-13-36.98-21-19.99-8-41.02-8-43.33 0-73.67 30.33Q376-401.33 376-358q0 47 36 78.5t85 28.5Z"/></svg>