<svg xmlns="http://www.w3.org/2000/svg" width="48" height="48" viewBox="0 96 960 960"><path d="m697 579 68-67 121 123-256 255-440-439 257-256 117 117-67 66-50-50-123 123 306 306 122-122-55-56Zm-161.904 447q-99.035 0-186.565-37.5Q261 951 196.5 886t-102-152.5Q57 646 57 547h71q0 74 25.5 140T224 805.5q45 52.5 105 87T459 938L349 828l52-52 237 236.78q-22.899 6.22-48.986 9.72-26.088 3.5-53.918 3.5ZM633 445V245h41v-42q0-33 22.5-55.5T752 125q33 0 55.5 22.5T830 203v42h42v200H633Zm79-200h80v-42.105Q792 185 781 174t-29-11q-18 0-29 11t-11 28.895V245ZM541 543Z"/></svg>