<svg xmlns="http://www.w3.org/2000/svg" width="48" height="48" viewBox="0 -960 960 960"><path d="M446.5-553.49Q432-567.98 432-588.56t14.49-34.51Q460.98-637 481.56-637t35.01 13.92Q531-609.16 531-588.58t-14.42 35.08q-14.42 14.5-35 14.5t-35.08-14.49ZM654.93-539q-19.65 0-33.79-14.49T607-588.56q0-20.58 14.14-34.51T655.43-637q20.99 0 36.28 13.92 15.29 13.92 15.29 35T691.57-553q-15.42 14-36.64 14Zm177.95 0q-21.3 0-35.59-13.99Q783-566.98 783-588.06t14.41-35.01Q811.82-637 833.12-637q20.46 0 34.67 13.92t14.21 34.5q0 20.58-14.34 35.08-14.33 14.5-34.78 14.5ZM777-95q-108 0-230-59T318.5-319.5Q212-424 153.5-543.51 95-663.02 95-776v-90h272l51 224-138 126q24.16 37.15 49.58 69.07Q355-415 383.03-385.97 415-354 449-327.5t71 46.5l135-137 211 48.58V-95h-89Z"/></svg>