<svg xmlns="http://www.w3.org/2000/svg" width="48" height="48" viewBox="0 -960 960 960"><path d="M718-55v-445q17 0 33.5 3t32.5 7.818V-66q-16 5-32.348 8T718-55ZM606-86v-383.318Q621-478 637.37-485q16.369-7 34.63-11v437q-18.15-4-34.425-11T606-86Zm223 0v-383q50.2 28.974 80.6 79.697Q940-338.579 940-276.789 940-215 909.6-164.94 879.2-114.879 829-86Zm-268-33q-31-29-49-70.105-18-41.105-18-88.5t17.967-87.796Q529.933-405.802 561-437v318ZM366-55l-21-134q-16-5-30-13t-27-19l-125 58L47-368l114-83q-1-8.037-1.5-14.5-.5-6.463-.5-14.5 0-8.037.5-14.5.5-6.463 1.5-14.5L47-593l116-203 127 57q12-10 25.917-17.605Q329.833-764.211 345-769l20.983-137H594l21 136q16 6 30.353 12.955Q659.706-750.091 672-739l126-57 115 203-63 44q-31-17-64.041-24T718-580q-33.789 0-66.895 7.5Q618-565 587-550q-18.211-27.917-47.072-43.958Q511.067-610 477.644-610 423-610 385.5-572 348-534 348-480q0 38.882 22 70.441 22 31.559 57 48.533Q421-342 417.5-323q-3.5 19-3.5 38 0 66 25.205 125.594Q464.41-99.813 513-55H366Z"/></svg>