<svg xmlns="http://www.w3.org/2000/svg" width="48" height="48" viewBox="0 -960 960 960"><path d="M480-325q99-90 127-125.5t28-71.514Q635-557 609.5-582.5T550-608q-21 0-39.5 9T480-577q-11.556-13.125-30.143-22.062Q431.269-608 409.167-608 375-608 350-582.091t-25 59.783q0 18.308 4.932 33.601 4.932 15.294 21.5 36.5Q368-431 398.427-400.945 428.853-370.891 480-325Zm0 270Q329.231-92.81 232.116-227.304 135-361.798 135-523v-255.462L480-907l346 128.538V-523q0 161.202-97.616 295.696Q630.769-92.81 480-55Z"/></svg>