<svg xmlns="http://www.w3.org/2000/svg" width="48" height="48" viewBox="0 -960 960 960"><path d="M177-130h275-275ZM90-43v-875h548v379q-21.33 3.6-44.33 10.8-23 7.2-43.67 19.2v-322H177v265h373v57.11q-9 5.89-16.5 13.39Q526-488 518-479H177v349h274.9q28.1 32 52.76 53.07Q529.33-55.86 555-43H90Zm222.85-594.09Q292-658.18 292-688.8t21.42-51.41Q334.84-761 363.92-761T415-739.08q22 21.92 22 51t-20.94 50.58Q395.12-616 364.41-616q-30.7 0-51.56-21.09ZM323-200h77v-80q-2-8.5-2.5-18.34-.5-9.83-.5-21.39 0-12.77 1-24.77t5-22.5v-42h-80v65h-65v79h65v65Zm213 63.84q-59-59.16-59-144t59.16-144.34q59.16-59.5 144-59.5t144.34 59.37q59.5 59.36 59.5 144.5Q884-195 824.63-136q-59.36 59-144.5 59Q595-77 536-136.16ZM747-164l49-49-81-81.99V-415h-70v149.58L747-164Z"/></svg>