<svg xmlns="http://www.w3.org/2000/svg" width="48" height="48" viewBox="0 -960 960 960"><path d="M363.91-616Q334-616 313-637.09q-21-21.09-21-51Q292-717 313.09-739q21.09-22 51-22Q393-761 415-738.91q22 22.09 22 51Q437-658 414.91-637q-22.09 21-51 21ZM536-136.16q-59-59.16-59-144t59.16-144.34q59.16-59.5 144-59.5t144.34 59.37q59.5 59.36 59.5 144.5Q884-195 824.63-136q-59.36 59-144.5 59Q595-77 536-136.16ZM747-164l49-49-81-81.99V-415h-70v150l102 101ZM90-43v-875h548v379q-23 4-45.52 12.14Q569.97-518.71 550-508v-323H177v265.09h398V-521q-52 21-88.5 62T433-367h-30v-42h-80v65h-65v79h65v65h76v-80l20 10q4 67 39.5 129T555-43H90Z"/></svg>