<svg xmlns="http://www.w3.org/2000/svg" width="48" height="48" viewBox="0 -960 960 960"><path d="M265 12q-11-11-11-25.5T265-39q11-11 25-11t25 11q11 11 11 25.5T315 12q-11 11-25 11t-25-11Zm340 0q-11-11-11-25.5T605-39q11-11 25-11t25 11q11 11 11 25.5T655 12q-11 11-25 11t-25-11ZM270-84q-44 0-87-20.5T116-162q-4-4.33-5-9t-1-10q0-13 8.26-22 8.27-9 23.48-9 8.26 0 14.76 3t10.5 9q10 19 31.5 31t43.5 18l123-143-69-178 119-190h-91l-75 123-71-43 102-162h228q28.32 0 44.57 14.91Q568.82-714.19 576-700l21 48q19 45 63 75t101 33v82q-69-2-126-34.5T540-583l-70 111 171 113v212h24q27.57 0 49.78-14Q737-175 754-200q4.33-6 10-9t15-3q12 0 22 8.91 10 8.92 10 21.8 0 5.29-1.5 10.06-1.5 4.77-5.5 9.23-24 37-62.5 57.5T659-84H270Zm78-63h211v-167l-140-94 43 128-114 133Zm270.08-627Q584-774 559-798.92t-25-59Q534-893 558.92-918t59-25Q653-943 678-918.08t25 60Q703-824 678.08-799t-60 25Z"/></svg>