<svg xmlns="http://www.w3.org/2000/svg" width="48" height="48" viewBox="0 -960 960 960"><path d="M618.248-774Q653-774 678-798.748t25-59.5Q703-893 678.08-918q-24.921-25-59.673-25t-59.58 24.92Q534-893.159 534-858.407t24.748 59.58Q583.496-774 618.248-774ZM290 23q-14.4 0-25.2-11.014Q254 .97 254-13.714 254-28 264.8-39q10.8-11 25.2-11 14.4 0 25.2 10.929 10.8 10.928 10.8 25.5Q326 1 315.2 12 304.4 23 290 23Zm340 0q-14.4 0-25.2-11.014Q594 .97 594-13.714 594-28 604.8-39q10.8-11 25.2-11 14.4 0 25.2 10.929 10.8 10.928 10.8 25.5Q666 1 655.2 12 644.4 23 630 23ZM270-84q-44.647 0-87.382-20.625Q139.884-125.25 116-162q-4-4.333-5-9t-1-10.134q0-13.123 8.263-21.995Q126.526-212 141.464-212q8.536 0 15.036 3t10.5 9q10 19 31.5 31t43.5 18l123-143-69-178 119-190h-91l-75 123-71-43 102-162h228q27.968 0 44.393 14.907T576-700l21 48q19 45 63 75t101 33v82q-69-2-126-34.5T540-583l-70 111 171 113v212h24q27.57 0 50.024-14.042Q737.478-175.083 754-200q4.083-6 9.875-9t15.554-3q11.838 0 21.704 8.786Q811-194.429 811-181.42q0 5.42-1.5 10.266T804-162q-24 37-62.567 57.5T659-84H270Zm78-63h211v-167l-140-94 43 128-114 133Z"/></svg>