<svg xmlns="http://www.w3.org/2000/svg" width="48" height="48" viewBox="0 -960 960 960"><path d="M335-55q-130.906 0-223.953-91.547T18-370h87q0 95 66.708 162Q238.417-141 335-141v86Zm0-151q-68.5 0-116.75-47.417Q170-300.833 170-370h86q0 31.94 23.32 54.97Q302.64-292 335-292v86Zm-27-176v-480h345v480H308Zm87-87h172v-307H395v307Zm231 263v-86q32 0 55.5-23.24T705-370h86q0 68.917-48.125 116.458Q694.75-206 626-206Zm0 151v-86q96.167 0 163.083-67.083Q856-275.167 856-370h87q0 131.212-93.047 223.106T626-55ZM395-469h172-172Z"/></svg>