<svg xmlns="http://www.w3.org/2000/svg" width="48" height="48" viewBox="0 -960 960 960"><path d="M255-160v-783h611v783H255Zm305-477q33.75 0 57.38-23Q641-683 641-718q0-32.92-23.62-55.96Q593.75-797 560-797q-32.92 0-55.96 23.04T481-718q0 35 23.04 58T560-637Zm1.34 319q54.83 0 93.25-38.84Q693-395.69 693-452.34 693-509 654.24-548t-93.58-39q-56.49 0-96.07 39.22Q425-508.56 425-452.19q0 56.36 39.93 95.28Q504.86-318 561.34-318Zm-3.16-60Q527-378 506-399.62t-21-52.5Q485-483 506.35-505q21.36-22 52.53-22 31.18 0 52.65 22T633-452.41q0 30.59-21.82 52.5-21.83 21.91-53 21.91ZM528-17H112v-806h95v712h321v94Z"/></svg>