<svg xmlns="http://www.w3.org/2000/svg" width="48" height="48" viewBox="0 96 960 960"><path d="M480.314 529q-72.721 0-124.018-51.053Q305 426.895 305 355.204q0-73.229 51.341-124.717Q407.683 179 479.779 179 553 179 604.5 230.482 656 281.965 656 354.686t-51.482 123.518Q553.035 529 480.314 529Zm-.518-94Q514 435 537.5 411.549q23.5-23.45 23.5-56.381 0-34.218-23.296-57.693-23.297-23.475-57-23.475Q447 274 423 297.296q-24 23.297-24 57Q399 388 422.734 411.5t57.062 23.5ZM247.721 961Q175 961 123.5 909.659T72 786.221Q72 713 123.756 661.5T247.204 610q73.228 0 124.012 51.482Q422 712.965 422 785.686t-50.779 124.018Q320.442 961 247.721 961Zm-.889-94q34.218 0 57.693-23.734Q328 819.532 328 786.204 328 752 304.704 728.5q-23.297-23.5-57-23.5Q214 705 190.5 728.296q-23.5 23.297-23.5 57Q167 819 190.451 843q23.45 24 56.381 24Zm466.464 94q-72.728 0-124.012-51.341Q538 858.318 538 786.221 538 713 589.341 661.5T712.779 610Q786 610 837 661.482q51 51.483 51 124.204t-51.194 124.018Q785.612 961 713.296 961Zm-.5-94Q747 867 770.5 843.266t23.5-57.062Q794 752 770.319 728.5T713.332 705q-33.718 0-57.525 23.296-23.807 23.297-23.807 57Q632 819 655.734 843t57.062 24ZM480 355ZM247 786Zm466 0Z"/></svg>