<svg xmlns="http://www.w3.org/2000/svg" width="48" height="48" viewBox="0 96 960 960"><path d="M479 1001q-87 0-164.5-33.5t-135-91.5q-57.5-58-91-135T55 576.5Q55 488 88.5 411t91-135q57.5-58 135-92T479 150q88 0 165.5 34T780 276q58 58 92 134.906T906 576q0 88-34 165t-92 135q-58 58-135.5 91.5T479 1001Zm199.662-512L747 465l17-63q-33-51-81.312-87.901Q634.375 277.198 573 259l-64 42.404V369l169.662 120ZM282 489l170-120.333V301l-63.545-42q-61.546 18-110 55Q230 351 197 402l21 63 64 24Zm-53 311 59-7 38-64-60.018-184.897L196 520l-47 39q0 70 15.5 127.5T229 800Zm251 110q26 0 53-5.553 27-5.552 57-11.658L621 822l-32-54H372.338L340 822l33 70.789q25 6.106 53 11.658Q454 910 480 910ZM376.462 710H580l59-178-159-114-161 114 57.462 178ZM732 800q48-56 63.5-113.5T811 559l-47.323-33-68.451 18L636 729.294 672 793l60 7Z"/></svg>