<svg xmlns="http://www.w3.org/2000/svg" width="48" height="48" viewBox="0 96 960 960"><path d="M189 919q-71 0-119.805-49.596Q20.391 819.808 19 748.904 19 739 20 728.5t4-20.5l84-337q16-61 65.234-99.5Q222.468 233 285 233h390q62.532 0 111.766 38.5Q836 310 853 371l84 336q2 11 3.5 21.52t1.5 21.434q0 70.971-49.984 120.009Q842.032 919 770.984 919 722 919 680.5 893.5 639 868 618 824l-28-58q-2-4-5.758-5.5T575 759H385q-5.484 0-9.242 1.5Q372 762 370 766l-28 58q-21 44-62.579 69.5T189 919Zm351.175-393q12.825 0 21.325-8.675 8.5-8.676 8.5-21.5 0-12.825-8.675-21.325-8.676-8.5-21.5-8.5-12.825 0-21.325 8.675-8.5 8.676-8.5 21.5 0 12.825 8.675 21.325 8.676 8.5 21.5 8.5Zm80-80q12.825 0 21.325-8.675 8.5-8.676 8.5-21.5 0-12.825-8.675-21.325-8.676-8.5-21.5-8.5-12.825 0-21.325 8.675-8.5 8.676-8.5 21.5 0 12.825 8.675 21.325 8.676 8.5 21.5 8.5Zm0 160q12.825 0 21.325-8.675 8.5-8.676 8.5-21.5 0-12.825-8.675-21.325-8.676-8.5-21.5-8.5-12.825 0-21.325 8.675-8.5 8.676-8.5 21.5 0 12.825 8.675 21.325 8.676 8.5 21.5 8.5Zm80-80q12.825 0 21.325-8.675 8.5-8.676 8.5-21.5 0-12.825-8.675-21.325-8.676-8.5-21.5-8.5-12.825 0-21.325 8.675-8.5 8.676-8.5 21.5 0 12.825 8.675 21.325 8.676 8.5 21.5 8.5Zm-360.059 65Q351 591 358 583.917q7-7.084 7-17.917v-45h45q10.833 0 17.917-7.116 7.083-7.117 7.083-18Q435 485 427.917 478q-7.084-7-17.917-7h-45v-45q0-10.833-7.116-17.917-7.117-7.083-18-7.083Q329 401 322 408.083q-7 7.084-7 17.917v45h-45q-10.833 0-17.917 7.116-7.083 7.117-7.083 18Q245 507 252.083 514q7.084 7 17.917 7h45v45q0 10.833 7.116 17.917 7.117 7.083 18 7.083Z"/></svg>