<svg xmlns="http://www.w3.org/2000/svg" width="48" height="48" viewBox="0 -960 960 960"><path d="M461.138-55Q373-55 295.513-88.084q-77.488-33.083-135.154-90.949-57.665-57.866-91.012-135.417Q36-392 36-480.138q0-89.138 33.584-166.487 33.583-77.35 91.227-134.831 57.643-57.482 134.892-91.013Q372.952-906 460.976-906q89.024 0 166.63 33.454 77.605 33.453 135.012 90.802 57.407 57.349 90.895 134.877Q887-569.34 887-480q0 88.276-33.531 165.747-33.531 77.471-91.013 135.278-57.481 57.808-134.831 90.891Q550.276-55 461.138-55ZM759-335H355.865L297-276h425.218q10.782-13 19.44-28 8.658-15 17.342-31Zm32-117H473.351L413-392h368.054q3.946-15 6.446-29.5Q790-436 791-452Zm-9.943-116H590l-59 59h260q-1-16-3.5-30.5t-6.443-28.5ZM716-693l-68 67h111q-9-18-20-34.5T716-693ZM207-267l467-466.351q-43-36.31-97-56.979Q523-811 461-811q-137 0-234 96.5t-97 234.791q0 61.449 20.5 115.079Q171-311 207-267Zm254.058 118q57.913 0 109.273-18.5Q621.69-186 664-218H258q43.116 32 94.63 50.5Q404.144-149 461.058-149Z"/></svg>