<svg xmlns="http://www.w3.org/2000/svg" width="48" height="48" viewBox="0 -960 960 960"><path d="M312.62-87.58q-77.56-32.57-135.01-90.03-57.46-57.45-90.03-135.01Q55-390.18 55-480.04q0-89.86 32.5-167.41t89.95-135.04q57.45-57.48 135.07-90.5Q390.14-906 480.02-906t167.43 33q77.55 33 134.99 90.72 57.43 57.72 90.5 135Q906-570 906-480.07t-33.01 167.55q-33.02 77.62-90.5 135.07Q725-120 647.45-87.5 569.9-55 480.04-55T312.62-87.58ZM599-288.5Q657-272 709-240q48-47 75-109.35 27-62.36 27-130.53 0-138.5-96.5-234.81T480-811q-138 0-234.5 96.31T149-479.89q0 68.52 27.5 130.7Q204-287 252-240q52-32 109.73-48.5 57.73-16.5 118.5-16.5T599-288.5ZM391.5-233Q348-221 306-197q42 23 85.5 35.5T480-149q45 0 88.5-12.5T655-197q-43-24-86.5-36T480-245q-45 0-88.5 12ZM271.18-537q12.82 0 21.32-8.68 8.5-8.67 8.5-21.5 0-11.82-8.68-20.82-8.67-9-21.5-9-12.82 0-21.32 9.18-8.5 9.17-8.5 21 0 12.82 8.68 21.32 8.67 8.5 21.5 8.5ZM423.5-668.68q8.5-8.67 8.5-21.5 0-12.82-8.68-21.32-8.67-8.5-21.5-8.5-12.82 0-21.32 8.68-8.5 8.67-8.5 21.5 0 12.82 8.68 21.32 8.67 8.5 21.5 8.5 12.82 0 21.32-8.68ZM690.18-536q11.82 0 20.82-8.68 9-8.67 9-21.5 0-12.82-9.18-21.32-9.17-8.5-21-8.5-12.82 0-21.32 8.68-8.5 8.67-8.5 21.5 0 12.82 8.68 21.32 8.67 8.5 21.5 8.5ZM531.5-428.44Q553-449.89 553-480q0-15.05-6-29.53Q541-524 530-534l78-182-51-25-82 188q-29 2-48.5 23T407-480q0 30.11 21.42 51.56Q449.84-407 479.92-407t51.58-21.44ZM481-305Zm-1-221Zm0 281Z"/></svg>