<svg xmlns="http://www.w3.org/2000/svg" width="48" height="48" viewBox="0 96 960 960"><path d="M598.247 921q-143.754 0-245-100.5Q252 720 252 576.247q0-143.754 101.247-245Q454.493 230 598.247 230 742 230 842.5 331.247q100.5 101.246 100.5 245Q943 720 842.5 820.5T598.247 921ZM266 909Q151 890 84 793T17 576q0-120 67-217t182-117v95q-74 22-114.5 90T111 575.5q0 80.5 41 148.5t114 91v94Zm332-333Zm-.176 251Q701 827 775 753.176q74-73.823 74-176.999Q849 473 775.177 399q-73.824-74-177.001-74Q495 325 421 398.823q-74 73.824-74 177Q347 679 420.824 753q73.823 74 177 74Z"/></svg>