<svg xmlns="http://www.w3.org/2000/svg" width="48" height="48" viewBox="0 -960 960 960"><path d="M135-271v-383q0-103.675 71.5-138.338Q278-827 449-830l31-63H269v-50h422v50H540l-29 63q144 3 229.5 37.685Q826-757.631 826-654v383q0 72.521-49 125.761Q728-92 658-88l73 74V6h-92l-92-92H413L321 6h-92v-20l73-74q-70-4-118.5-57.239Q135-198.479 135-271Zm509-134H229h501-86ZM483-240q23 0 39-16t16-39q0-22-16-38.5T483-350q-23 0-39 16.5T428-295q0 23 16 39t39 16Zm-2-440h251-509 258ZM229-465h501v-155H229v155Zm86 281h329q36.267 0 61.133-24.75Q730-233.5 730-271v-134H229v134q0 37.5 25.367 62.25Q279.733-184 315-184Zm166-551q-123 0-185.5 14.5T223-680h509q-10-20-70.5-37.5T481-735Z"/></svg>