<svg xmlns="http://www.w3.org/2000/svg" width="48" height="48" viewBox="0 0 48 48"><path d="M24 42.9q-3.5 0-6.725-1.05-3.225-1.05-5.925-3-.75.45-1.6.65-.85.2-1.75.2-2.9 0-4.925-2.025T1.05 32.75q0-1.45.55-2.7.55-1.25 1.5-2.2-.45-1.2-.75-2.475-.3-1.275-.45-2.575l4.25-.45q.15.95.325 1.85.175.9.475 1.75.25-.05.525-.125T8 25.75q2.9 0 4.95 2.05Q15 29.85 15 32.75q0 .75-.2 1.5t-.5 1.4q1.65 1.1 3.55 1.8t4 .95V27.25q0-.75-.55-1.3T20 25.4q-3.4 0-5.775-2.375-2.375-2.375-2.375-5.775 0-3.4 2.375-5.8T20 9.05h1.25v-4.8h17.5v4.8h3.45v4.35h-3.45v4.8h-17.5v-4.8H20q-1.6 0-2.7 1.125t-1.1 2.725q0 1.6 1.1 2.7t2.7 1.1q2.65 0 4.425 1.775T26.2 27.25V38.4q4.1-.5 7.5-2.8 3.4-2.3 5.45-5.85l-2.3-1.1 1.95-3.9 2.15 1.1q.25-.85.475-1.725.225-.875.325-1.775l4.35.45q-.2 1.3-.5 2.575-.3 1.275-.7 2.425l2.25 1.1-1.95 3.9-2.15-1.1q-2.9 5.1-7.95 8.15Q30.05 42.9 24 42.9Z"/></svg>