<svg xmlns="http://www.w3.org/2000/svg" width="48" height="48" viewBox="0 96 960 960"><path d="M40 850V301h881v549H40Zm244-140h60V606h104v-60H344V442h-60v104H180v60h104v104Zm315.176-18Q618 692 631 678.824q13-13.177 13-32.001Q644 628 630.823 615q-13.176-13-31.999-13Q580 602 567 615.176q-13 13.177-13 32.001Q554 666 567.177 679q13.176 13 31.999 13Zm90-143Q708 549 721 535.823q13-13.176 13-31.999Q734 485 720.823 472q-13.176-13-31.999-13Q670 459 657 472.177q-13 13.176-13 31.999Q644 523 657.177 536q13.176 13 31.999 13Z"/></svg>