<svg xmlns="http://www.w3.org/2000/svg" width="48" height="48" viewBox="0 96 960 960"><path d="M782.211 379q-41.531 0-71.371-30Q681 319 681 276.731q0-24.35 15.993-55.898 15.993-31.547 35.219-59.414Q754.08 128.077 782 95q29.639 33.529 50.928 66.011Q852 189 868 220.638q16 31.638 16 56.362 0 42-29.519 72-29.518 30-72.27 30Zm-221.387 56q-24.324 0-42.574-17.887Q500 399.226 500 374.933q0-12.695 9.55-30.076T531 311q12.433-18.973 30-38 17.341 18.849 29.781 37.988Q603 327.238 612.5 344.609q9.5 17.371 9.5 30.655Q622 400 603.573 417.5 585.147 435 560.824 435ZM-15 1083V626.733L344 287l69 72-85 150h498v106H469v50h447v105H469v51h401v105H469v51h312v106H-15Zm83-84h319V592H252V489L68 662.306V999Zm159-255Z"/></svg>