<svg xmlns="http://www.w3.org/2000/svg" width="48" height="48" viewBox="0 -960 960 960"><path d="M97-260q-29-49-44-104T38-480q0-62 15-117t44-104l75 43q-23 40-35 84t-12 94q0 49 12.5 93t34.5 84l-75 43Zm767 0-76-43q22-40 35-84t13-93q0-50-12.5-94T788-658l76-43q28 49 43.5 104T923-480q0 61-15.5 116T864-260ZM362-20l-60-212q-57-37-92-102t-35-146q0-81 35-146.5T302-729l60-211h237l59 211q57 37 92.5 102.5T786-480q0 81-35.5 146T658-232L599-20H362Zm268-310q61-61 61-150t-61-150q-61-61-150-61t-150 61q-61 61-61 150t61 150q61 61 150 61t150-61Z"/></svg>