<svg xmlns="http://www.w3.org/2000/svg" width="48" height="48" viewBox="0 -960 960 960"><path d="M259.859-185q-23.339 0-40.099-16.803-16.76-16.803-16.76-40T219.901-282q16.901-17 40.24-17 23.339 0 40.099 17.007 16.76 17.007 16.76 40.5T300.099-201.5q-16.901 16.5-40.24 16.5Zm120 165q-23.339 0-40.099-17.007Q323-54.014 323-77.507T339.901-118q16.901-17 40.24-17 23.339 0 40.099 17.191Q437-100.618 437-76.859q0 23.339-16.901 40.099Q403.198-20 379.859-20Zm120-165q-23.339 0-40.099-16.803-16.76-16.803-16.76-40T459.901-282q16.901-17 40.24-17 23.339 0 40.099 17.007 16.76 17.007 16.76 40.5T540.099-201.5q-16.901 16.5-40.24 16.5Zm240 0q-23.339 0-40.099-16.803-16.76-16.803-16.76-40T699.901-282q16.901-17 40.24-17 23.339 0 40.099 17.007 16.76 17.007 16.76 40.5T780.099-201.5q-16.901 16.5-40.24 16.5Zm-120 165q-23.339 0-40.099-17.007Q563-54.014 563-77.507T579.901-118q16.901-17 40.24-17 23.339 0 40.099 17.191Q677-100.618 677-76.859q0 23.339-16.901 40.099Q643.198-20 619.859-20ZM290-374q-93.382 0-160.191-67.02T63-600.835Q63-685 121-751q58-66 145-75 35.358-56 90.744-89.5T480.191-949Q573-949 638-891t84 144q82 8 128.5 61.472T897-561.865Q897-484 842.458-429 787.917-374 710-374H290Zm0-95h420q39.06 0 66.03-26.761 26.97-26.76 26.97-65.5Q803-600 776.03-627q-26.97-27-66.03-27h-77v-47q0-63.987-44.484-108.494Q544.033-854 480.289-854q-46.191 0-84.4 24.812Q357.68-804.375 340-763l-12.286 29H289q-55.391 1.752-93.696 40.131Q157-655.49 157-601.476q0 54.547 38.693 93.512Q234.386-469 290-469Zm190-92Z"/></svg>