<svg xmlns="http://www.w3.org/2000/svg" width="48" height="48" viewBox="0 -960 960 960"><path d="M479.653-55q-71.288 0-136.47-22Q278-99 224-141l68-68q42 29 90.475 44.5Q430.95-149 480.359-149 620-149 715.5-244.491t95.5-235.5Q811-620 715.509-715.5t-235.5-95.5Q340-811 244.5-715.506 149-620.013 149-480H55q0-88.188 33.5-165.094Q122-722 180-780t135.083-92q77.084-34 164.5-34Q568-906 645.28-871.936q77.279 34.064 135 91.746Q838-722.508 872-645.316q34 77.191 34 165.562 0 88.113-34.064 165.445-34.064 77.333-91.5 134.821T645.62-88.5Q568.24-55 479.653-55ZM131-239l164.576-164L423-292l219-219v124h71v-241H472v71h124L421-383 294-494 97-296q8 17 15.5 30t18.5 27Zm349-241Z"/></svg>