<svg xmlns="http://www.w3.org/2000/svg" width="48" height="48" viewBox="0 96 960 960"><path d="M703 501q-20 0-33-13.5T657 455q0-20 13-33t33-13q19 0 32 13t13 33q0 19-13 32.5T703 501Zm-92-94-46-47q28-28 63.137-44.5 35.138-16.5 75-16.5Q743 299 777.5 315.5T840 360l-45 47q-19-19-42.269-30-23.268-11-49.731-11-27.463 0-50.231 11Q630 388 611 407Zm-77-79-46-46q43-43 98-68t117-25q61 0 116 25t98 68l-45 46q-34.021-34.079-77.697-53.039Q750.627 256 702.814 256q-47.814 0-91.397 19.421Q567.833 294.842 534 328Zm262 631q-127 1-252-61T319 736Q219 636 157 510.5T95 259q0-15.938 1.5-34.969T101.814 190H368l51 223-138 125q50 79 108 136.5T519 772l136-137 210 51v267.094Q850 955 830.469 957T796 959ZM234 455l80-75-22-96H191q-2 34 8.5 75.5T234 455Zm371 365q36 18 79.5 29t85.5 14V760l-88-20-77 80ZM234 455Zm371 365Z"/></svg>