<svg xmlns="http://www.w3.org/2000/svg" width="48" height="48" viewBox="0 96 960 960"><path d="m691 420 84-84 84 84 61-62-84-84 84-84-61-61-84 84-84-84-62 61 84 84-84 84 62 62ZM479.752 572Q511 572 533.5 549.748q22.5-22.252 22.5-53.5T533.748 442.5q-22.252-22.5-53.5-22.5T426.5 442.252q-22.5 22.252-22.5 53.5t22.252 53.748q22.252 22.5 53.5 22.5ZM480 998Q311 854 227 730.985q-84-123.015-84-227.116 0-157.714 101.681-251.292Q346.363 159 480.182 159q16.068 0 30.985 1.5 14.916 1.5 30.833 4.354V261q-15-4-31-6t-31-2q-102.262 0-172.631 70.312Q237 393.623 237 503.897q0 70.103 60.846 162.659T480 874q116-107 175.5-195T721 523q0-7-.5-14t-1.5-14h96q1 7 1 14v14q-7 101-90.5 219T480 998Zm0-495Z"/></svg>