<svg xmlns="http://www.w3.org/2000/svg" width="48" height="48" viewBox="0 -960 960 960"><path d="m691-636-62-62 84-84-84-84 62-61 84 84 84-84 61 61-84 84 84 84-61 62-84-84-84 84ZM479.752-484Q511-484 533.5-506.252q22.5-22.252 22.5-53.5T533.748-613.5q-22.252-22.5-53.5-22.5T426.5-613.748q-22.5 22.252-22.5 53.5t22.252 53.748q22.252 22.5 53.5 22.5ZM480-58Q311-202 227-325.015q-84-123.015-84-227.116 0-157.714 101.627-251.292Q346.253-897 480-897q32.658 0 60.829 5.5T599-876v270h213q2 19 3.5 36.086 1.5 17.085.5 36.914-7 101-90.5 219T480-58Z"/></svg>