<svg xmlns="http://www.w3.org/2000/svg" width="48" height="48" viewBox="0 96 960 960"><path d="M242.587 697.435q-10.908 0-18.063-7.207-7.154-7.206-7.154-18.228V505.435h-37.335q-10.979 0-18.257-7.2-7.278-7.201-7.278-18.213t7.189-18.234q7.19-7.223 18.186-7.223h56.69q13.563 0 22.499 8.936Q268 472.437 268 486v186q0 11.022-7.2 18.228-7.2 7.207-18.213 7.207Zm140.609 0q-13.563 0-22.499-8.936-8.936-8.936-8.936-22.585v-78.393q0-15.899 9.811-25.71Q371.383 552 387.28 552h96.481v-46.565H377.256q-11.289 0-18.392-7.2-7.103-7.201-7.103-18.213t7.103-18.234q7.103-7.223 18.332-7.223h122q15.609 0 25.522 9.811 9.912 9.811 9.912 25.71v74.393q0 15.899-9.912 25.71Q514.805 600 499.196 600H402.63v46.565h106.566q11.021 0 18.228 7.2 7.206 7.201 7.206 18.213t-7.206 18.234q-7.207 7.223-18.228 7.223h-126Zm244.869 0q-11.021 0-18.228-7.2-7.207-7.201-7.207-18.213t7.207-18.234q7.207-7.223 18.228-7.223H734.63V600.11h-68q-9.599 0-16.799-7.255Q642.63 585.6 642.63 576q0-9.6 7.201-16.8 7.2-7.2 16.799-7.2h68v-46.565H628.065q-11.021 0-18.228-7.2-7.207-7.201-7.207-18.213t7.207-18.234q7.207-7.223 18.228-7.223h122q15.813 0 25.624 9.811Q785.5 474.187 785.5 490v172q0 15.813-9.811 25.624-9.811 9.811-25.624 9.811h-122Z"/></svg>