<svg xmlns="http://www.w3.org/2000/svg" width="48" height="48" viewBox="0 96 960 960"><path d="M118.565 857.435q-17.145 0-29.17-12.214-12.025-12.213-12.025-29.456 0-17.243 12.025-29.222 12.025-11.978 29.17-11.978H332.37v-157.13H121.565q-17.145 0-29.17-12.214-12.025-12.213-12.025-29.456 0-17.243 12.025-29.222 12.025-11.978 29.17-11.978H332.37v-157.13H118.565q-17.145 0-29.17-12.214-12.025-12.213-12.025-29.456 0-17.243 12.025-29.222 12.025-11.978 29.17-11.978H332.37q34.608 0 58.619 24.17Q415 342.906 415 377.435v129.541q0 27.774-17.565 48.801T352.544 578q27.326 1.196 44.891 20.223Q415 617.25 415 645.024v129.541q0 34.529-24.011 58.7-24.011 24.17-58.619 24.17H118.565Zm466.065-82.87H800v-397.13H584.63v397.13Zm0 82.87q-34.608 0-58.619-24.17Q502 809.094 502 774.565v-397.13q0-34.529 24.011-58.7 24.011-24.17 58.619-24.17H800q34.609 0 58.62 24.17 24.01 24.171 24.01 58.7v397.13q0 34.529-24.01 58.7-24.011 24.17-58.62 24.17H584.63Z"/></svg>