<svg xmlns="http://www.w3.org/2000/svg" width="48" height="48" viewBox="0 -960 960 960"><path d="M202-397.37q-13.868 0-23.249-9.417-9.381-9.417-9.381-23.338 0-13.921 9.381-23.213 9.381-9.292 23.249-9.292h163.5v-105.935H199.804q-13.359 0-22.397-8.987-9.037-8.986-9.037-22.623 0-13.638 8.935-22.449 8.936-8.811 22.499-8.811H365.5V-737.37H202q-13.868 0-23.249-9.417-9.381-9.417-9.381-23.338 0-13.921 9.381-23.213 9.381-9.292 23.249-9.292h163.5q26.63 0 46.065 19.315T431-737.37v83.414q0 22.902-15.185 37.592-15.185 14.69-33.989 16.364 18.804 1.674 33.989 18.564Q431-564.546 431-542.044v79.414q0 26.63-19.435 45.945T365.5-397.37H202Zm394.5 0q-26.63 0-46.065-19.315T531-462.63v-274.74q0-26.63 19.435-45.945T596.5-802.63h135.13q26.897 0 46.318 19.315Q797.37-764 797.37-737.37v274.74q0 26.63-19.422 45.945-19.421 19.315-46.318 19.315H596.5Zm0-65.26h135.13v-274.74H596.5v274.74ZM141.694-80q-13.638 0-22.449-8.936-8.81-8.936-8.81-22.618v-125.011q0-13.36 8.986-22.397Q128.407-268 141.925-268t22.449 8.936q8.93 8.936 8.93 22.618v125.011q0 13.36-9.088 22.398Q155.128-80 141.694-80Zm122.865 0q-13.537 0-22.396-9.037-8.859-9.038-8.859-22.398v-125.369q0-13.258 8.987-22.227Q251.277-268 264.795-268q13.416 0 22.278 9.038 8.862 9.037 8.862 22.397v125.369q0 13.258-9.021 22.227Q277.894-80 264.559-80Zm122.656 0q-13.324 0-22.302-9.037-8.978-9.038-8.978-22.398v-125.369q0-13.258 9.08-22.227Q374.096-268 387.52-268q13.322 0 22.183 9.038 8.862 9.037 8.862 22.397v125.369q0 13.258-9.013 22.227Q400.539-80 387.215-80Zm122.731 0q-13.27 0-22.325-9.037-9.056-9.038-9.056-22.398v-125.369q0-13.258 9.038-22.227Q496.64-268 510-268h308.429q13.163 0 22.269 8.969 9.107 8.969 9.107 22.227v125.369q0 13.36-9.107 22.398Q831.592-80 818.424-80H509.946Z"/></svg>