<svg xmlns="http://www.w3.org/2000/svg" width="48" height="48" viewBox="0 -960 960 960"><path d="m570-450 77 82q2 2 17 8 16 0 22.5-15t-4.5-26l-74-79 74-80q11-11 4.5-25.5T664-600q-5 0-9 2t-8 6l-77 82v-65q0-11-7-18t-18-7q-11 0-18 7t-7 18v190q0 11 7 18t18 7q11 0 18-7t7-18v-65Zm-205.565 40h-95q-11 0-18 7t-7 18q0 11 7 18t18 7h112q14 0 23.5-9.5t9.5-23.5v-173q0-14-9.5-24t-23.5-10h-112q-11 0-18 7t-7 18q0 11 7 18t18 7h95v54h-57q-7 0-11.5 4.5t-4.5 11.5q0 7 5 12t12 5h56v53ZM182.152-114.022q-27.599 0-47.865-20.265-20.265-20.266-20.265-47.865v-595.696q0-27.697 20.265-48.033 20.266-20.337 47.865-20.337h595.696q27.697 0 48.033 20.337 20.337 20.336 20.337 48.033v595.696q0 27.599-20.337 47.865-20.336 20.265-48.033 20.265H182.152Z"/></svg>