<svg xmlns="http://www.w3.org/2000/svg" width="48" height="48" viewBox="0 -960 960 960"><path d="M815-447.609h-53.565q-13.36 0-22.398-8.986Q730-465.581 730-479.099t8.936-22.449q8.936-8.93 22.499-8.93H815v-53.565q0-13.223 9.088-22.329t22.522-9.106q13.333 0 22.177 9.106 8.843 9.106 8.843 22.329v53.565h53.566q13.359 0 22.397 9.088 9.037 9.088 9.037 22.522 0 13.638-8.935 22.448-8.936 8.811-22.499 8.811H877.63v53.805q0 13.258-9.013 22.227-9.013 8.968-22.337 8.968-13.323 0-22.302-8.936Q815-380.48 815-394.043v-53.566ZM431.065-277.37q-26.851 0-46.175-19.179-19.325-19.179-19.325-46.081v-269.239q0-26.852 19.325-46.176 19.324-19.325 46.175-19.325h213.978q13.868 0 23.25 9.466 9.381 9.465 9.381 23.458 0 13.903-9.381 23.24-9.382 9.337-23.25 9.337H431.065v269.239h181.109v-102.109h-43.783q-13.258 0-22.227-9.081-8.968-9.08-8.968-22.504 0-13.322 8.936-22.303 8.935-8.982 22.498-8.982h76.413q13.868 0 23.25 9.45 9.381 9.45 9.381 23.42v132.109q0 26.902-19.166 46.081-19.166 19.179-46.334 19.179H431.065ZM102.63-643.304V-465h94.74v-178.304q0-13.868 9.417-23.249 9.417-9.382 23.338-9.382 13.921 0 23.213 9.382 9.292 9.381 9.292 23.249v179.739h18q12.033 1.435 19.941 10.23 7.907 8.795 7.907 21.38 0 12.585-7.907 21.205-7.908 8.62-19.941 9.815h-18v89.739q0 13.868-9.417 23.25-9.417 9.381-23.338 9.381-13.921 0-23.213-9.381-9.292-9.382-9.292-23.25V-399.5H70.24q-13.946 0-23.408-9.297-9.462-9.298-9.462-23.333v-211.174q0-13.868 9.417-23.249 9.417-9.382 23.338-9.382 13.921 0 23.213 9.382 9.292 9.381 9.292 23.249Z"/></svg>