<svg xmlns="http://www.w3.org/2000/svg" width="48" height="48" viewBox="0 -960 960 960"><path d="M225.37-397.37q-26.798 0-46.149-19.315Q159.869-436 159.869-462.63v-274.74q0-26.63 19.352-45.945 19.351-19.315 46.149-19.315h173q13.867 0 23.249 9.417Q431-783.796 431-769.875q0 13.921-9.381 23.213-9.382 9.292-23.249 9.292h-173v104.74H365.5q26.63 0 46.065 19.315T431-567.37v104.74q0 26.63-19.435 45.945T365.5-397.37H225.37Zm0-65.26H365.5v-104.74H225.37v104.74Zm371.13 65.26q-26.63 0-46.065-19.315T531-462.63v-274.74q0-26.63 19.435-45.945T596.5-802.63h140.13q26.897 0 46.318 19.315Q802.37-764 802.37-737.37v274.74q0 26.63-19.422 45.945-19.421 19.315-46.318 19.315H596.5Zm0-65.26h140.13v-274.74H596.5v274.74ZM141.694-80q-13.638 0-22.449-8.936-8.81-8.936-8.81-22.618v-125.011q0-13.36 8.986-22.397Q128.407-268 141.925-268t22.449 8.936q8.93 8.936 8.93 22.618v125.011q0 13.36-9.088 22.398Q155.128-80 141.694-80Zm122.865 0q-13.537 0-22.396-9.037-8.859-9.038-8.859-22.398v-125.369q0-13.258 8.987-22.227Q251.277-268 264.795-268q13.416 0 22.278 9.038 8.862 9.037 8.862 22.397v125.369q0 13.258-9.021 22.227Q277.894-80 264.559-80Zm122.656 0q-13.324 0-22.302-9.037-8.978-9.038-8.978-22.398v-125.369q0-13.258 9.08-22.227Q374.096-268 387.52-268q13.322 0 22.183 9.038 8.862 9.037 8.862 22.397v125.369q0 13.258-9.013 22.227Q400.539-80 387.215-80Zm122.731 0q-13.27 0-22.325-9.037-9.056-9.038-9.056-22.398v-125.369q0-13.258 9.038-22.227Q496.64-268 510-268h308.429q13.163 0 22.269 8.969 9.107 8.969 9.107 22.227v125.369q0 13.36-9.107 22.398Q831.592-80 818.424-80H509.946Z"/></svg>