<svg xmlns="http://www.w3.org/2000/svg" width="48" height="48" viewBox="0 -960 960 960"><path d="m570-450 77.232 82q2.007 2 16.75 8 15.779 0 22.279-14.761T682-400.823l-74-79.086 74-80.33q10.761-10.927 4.38-25.344Q680-600 664-600q-4.789 0-8.805 2t-7.956 6l-77.12 82v-65q0-10.833-7.134-17.917Q555.852-600 544.943-600q-10.909 0-17.926 7.083Q520-585.833 520-575v190q0 10.833 7.116 17.917 7.117 7.083 18 7.083Q556-360 563-367.083q7-7.084 7-17.917v-65Zm-278.326 90h103q14.025 0 23.512-9.487 9.488-9.488 9.488-23.513v-173q0-14.45-9.488-24.225Q408.699-600 394.674-600h-103q-14.689 0-24.345 9.775-9.655 9.775-9.655 24.225v173q0 14.025 9.655 23.513Q276.985-360 291.674-360Zm16-136v-71h70v71h-70Zm0 103v-70h70v70h-70ZM182.152-114.022q-27.599 0-47.865-20.265-20.265-20.266-20.265-47.865v-595.696q0-27.697 20.265-48.033 20.266-20.337 47.865-20.337h595.696q27.697 0 48.033 20.337 20.337 20.336 20.337 48.033v595.696q0 27.599-20.337 47.865-20.336 20.265-48.033 20.265H182.152Zm0-68.13h595.696v-595.696H182.152v595.696Zm0-595.696v595.696-595.696Z"/></svg>