<svg xmlns="http://www.w3.org/2000/svg" width="48" height="48" viewBox="0 -960 960 960"><path d="M480.111-735.435q-31.307 0-53.524-22.216-22.217-22.216-22.217-53.413 0-31.197 22.106-53.534t53.413-22.337q31.307 0 53.524 22.254 22.217 22.254 22.217 53.504 0 31.152-22.106 53.447t-53.413 22.295ZM401.229-78.087q-13.993 0-23.165-9.462-9.173-9.462-9.173-23.408v-497.978H152.63q-13.867 0-23.249-9.417Q120-627.769 120-641.69q0-13.832 9.381-23.288 9.382-9.457 23.249-9.457h654.74q13.867 0 23.249 9.582Q840-655.272 840-641.44q0 13.831-9.381 23.168-9.382 9.337-23.249 9.337H591.348v497.978q0 13.946-9.501 23.408-9.5 9.462-23.544 9.462-13.943 0-23.199-9.462-9.256-9.462-9.256-23.408V-340h-91.696v229.043q0 13.946-9.465 23.408-9.466 9.462-23.458 9.462Z"/></svg>