<svg xmlns="http://www.w3.org/2000/svg" width="48" height="48" viewBox="0 -960 960 960"><path d="M222.96-257.63q62.76-39.76 124.02-59.9T480-337.67q71.76 0 133.76 20.38 62 20.38 124.28 59.66 43.53-54.24 61.67-108.15Q817.85-419.7 817.85-480q0-143.86-96.98-240.86-96.98-96.99-240.83-96.99-143.84 0-240.87 96.99-97.02 97-97.02 240.86 0 60.28 18.53 114.14t62.28 108.23Zm158.45-230.55q-39.84-39.86-39.84-98.46 0-58.6 39.84-98.58Q421.24-725.2 480-725.2q58.76 0 98.59 39.98 39.84 39.98 39.84 98.58t-39.84 98.46q-39.83 39.85-98.59 39.85-58.76 0-98.59-39.85ZM480-74.02q-84.96 0-159.06-31.93-74.11-31.92-129.06-87.33-54.95-55.4-86.4-129.43-31.46-74.04-31.46-157.26 0-84.23 31.98-158.3 31.98-74.08 87.32-128.91 55.33-54.84 129.39-86.94 74.05-32.1 157.29-32.1 84.24 0 158.29 32.1 74.06 32.1 128.89 86.94 54.84 54.83 86.94 128.89 32.1 74.05 32.1 158.29 0 83.24-32.1 157.29-32.1 74.06-86.94 129.39-54.83 55.34-128.89 87.32Q564.24-74.02 480-74.02Z"/></svg>