<svg xmlns="http://www.w3.org/2000/svg" width="48" height="48" viewBox="0 -960 960 960"><path d="M122.544-114.022q-30.203 0-44.689-25.489t.188-51.598L435.74-809.652q7.434-12.674 19.333-18.891 11.899-6.218 24.75-6.218 12.852 0 24.907 6.218 12.055 6.217 19.771 18.891l357.457 618.543q14.673 26.109.188 51.598-14.486 25.489-44.689 25.489H122.544Zm324.347-211.869V-276q0 13.916 9.632 23.512 9.632 9.597 23.772 9.597 14.14 0 23.596-9.597 9.457-9.596 9.457-23.512v-49.891H564q14.017 0 23.683-9.653 9.665-9.653 9.665-23.652 0-14-9.665-23.576-9.666-9.576-23.683-9.576h-50.652V-443q0-14.017-9.647-23.683-9.647-9.665-23.637-9.665-14.26 0-23.716 9.665-9.457 9.666-9.457 23.683v50.652h-50.413q-14.185 0-23.766 9.701-9.582 9.702-9.582 23.772 0 14.071 9.582 23.527 9.581 9.457 23.766 9.457h50.413Z"/></svg>