<svg xmlns="http://www.w3.org/2000/svg" width="48" height="48" viewBox="0 -960 960 960"><path d="M188.087-194.022q-14.424 0-24.245-9.871-9.82-9.871-9.82-24.369 0-14.499 9.82-24.195 9.821-9.695 24.245-9.695h43.782v-298.022q0-86.079 50.337-154.768 50.337-68.688 133.729-86.406v-20.565q0-26.893 18.636-45.599 18.635-18.706 45.429-18.706t45.429 18.706q18.636 18.706 18.636 45.599v20.565q83.392 17.478 133.848 86.25 50.457 68.772 50.457 154.924v298.022h43.543q14.394 0 24.349 9.871 9.956 9.871 9.956 24.37 0 14.498-9.956 24.194-9.955 9.695-24.349 9.695H188.087ZM480.12-71.869q-33.837 0-57.935-24.077t-24.098-58.076h164.065q0 33.957-24.098 58.055Q513.957-71.87 480.12-71.87Zm-31.077-378.218v52.326q0 13.127 8.915 22.161 8.915 9.035 22.217 9.035 13.303 0 22.162-9.035 8.859-9.034 8.859-22.161v-52.326h52.326q13.025 0 21.991-9.016 8.965-9.016 8.965-22.116 0-13.201-8.965-22.111-8.966-8.909-21.991-8.909h-52.326v-52.326q0-13.127-9.085-22.161-9.085-9.035-22.286-9.035-13.303 0-22.042 9.035-8.74 9.034-8.74 22.161v52.326h-52.565q-13.025 0-21.991 9.057-8.965 9.057-8.965 22.217 0 13.161 8.965 22.019 8.966 8.859 21.991 8.859h52.565Z"/></svg>