<svg xmlns="http://www.w3.org/2000/svg" width="48" height="48" viewBox="0 -960 960 960"><path d="M122.544-114.022q-30.273 0-44.724-25.489-14.45-25.489.224-51.598l357.695-618.543q7.434-12.674 19.382-18.891 11.949-6.218 24.751-6.218 12.802 0 24.857 6.218 12.055 6.217 19.771 18.891l357.457 618.543q14.673 26.109.223 51.598-14.451 25.489-44.724 25.489H122.544Zm26.717-66.456h661.717L480-753.304 149.261-180.478Zm297.63-145.413V-276q0 13.916 9.632 23.512 9.632 9.597 23.772 9.597 14.14 0 23.596-9.597 9.457-9.596 9.457-23.512v-49.891H564q14.017 0 23.683-9.653 9.665-9.653 9.665-23.652 0-14-9.665-23.576-9.666-9.576-23.683-9.576h-50.652V-443q0-14.017-9.647-23.683-9.647-9.665-23.637-9.665-14.26 0-23.716 9.665-9.457 9.666-9.457 23.683v50.652h-50.413q-14.185 0-23.766 9.701-9.582 9.702-9.582 23.772 0 14.071 9.582 23.527 9.581 9.457 23.766 9.457h50.413ZM480.239-359Z"/></svg>