<svg xmlns="http://www.w3.org/2000/svg" width="48" height="48" viewBox="0 -960 960 960"><path d="M320.761-322.482q32.34 32.243 75.739 32.743t75.739-31.739L534-383.239 382.761-534.478l-62 61.761q-31 31.101-31 75.237 0 44.136 31 74.998Zm318.478-316.235q-32.239-31.24-75.859-32.12-43.619-.88-75.619 31.359l-63 63L576-425.239l63.478-63.239q31.761-31.761 31.261-75-.5-43.239-31.5-75.239ZM182.152-114.022q-28.342 0-48.236-19.894t-19.894-48.236v-595.696q0-28.342 19.894-48.356 19.894-20.014 48.236-20.014h199.022q6.435-35 34.152-57.5 27.717-22.5 64.674-22.5 36.957 0 64.674 22.5 27.717 22.5 34.152 57.5h199.022q28.342 0 48.356 20.014 20.014 20.014 20.014 48.356v595.696q0 28.342-20.014 48.236t-48.356 19.894H182.152ZM480-795.565q14.829 0 25.632-10.803T516.435-832q0-14.829-10.803-25.632T480-868.435q-14.829 0-25.632 10.803T443.565-832q0 14.829 10.803 25.632T480-795.565Z"/></svg>