<svg xmlns="http://www.w3.org/2000/svg" width="48" height="48" viewBox="0 -960 960 960"><path d="M728.37-117.37q-28.337 0-48.354-20.01Q660-157.39 660-185.5V-410H333.87q-34.614 0-59.242-24.628T250-493.87V-845.5h228.37v252.87h209.478q31.293 0 53.397 22.033 22.103 22.033 22.103 53.227v297.848h67.848q21.645 0 36.54 14.791 14.894 14.791 14.894 36.405 0 21.717-14.894 36.337-14.895 14.619-36.54 14.619H728.37ZM182.87-274.5q-28.349 0-48.36-20.016-20.01-20.017-20.01-48.114v-470q0-13.946 9.512-23.408 9.513-9.462 23.415-9.462 13.903 0 23.238 9.462Q180-826.576 180-812.63V-340h347.37q13.778 0 23.204 9.51Q560-320.979 560-307.077q0 13.903-9.426 23.24-9.426 9.337-23.204 9.337h-344.5Z"/></svg>