<svg xmlns="http://www.w3.org/2000/svg" width="48" height="48" viewBox="0 -960 960 960"><path d="M481.869-274.5H140q-28.098 0-48.114-20.016-20.017-20.017-20.017-48.114v-470.24q0-13.945 9.513-23.288 9.512-9.342 23.532-9.342 13.782 0 23.119 9.342 9.337 9.343 9.337 23.288V-340h344.499q13.707 0 23.169 9.393t9.462 23.413q0 14.02-9.462 23.357t-23.169 9.337ZM606.478-410H342.63q-47.391 0-81.326-34.054-33.934-34.055-33.934-81.446v-285.935q0-14.424 9.82-24.244 9.821-9.821 24.245-9.821h160q14.424 0 24.244 9.821 9.821 9.82 9.821 24.244v218.805h124.978q21.796 0 39.692 11.478 17.895 11.478 27.374 30.674l145.043 298.804 58-26.239q19.239-8.478 39.098-3.239 19.859 5.239 31.098 25.478 11 19.478 3.775 39.889-7.225 20.41-26.775 29.785l-118.522 54.239q-12.674 5.718-26.228 1.239-13.555-4.478-19.272-17.152L606.478-410Z"/></svg>