<svg xmlns="http://www.w3.org/2000/svg" width="48" height="48" viewBox="0 -960 960 960"><path d="m383.935-470.869 62.609-172.544q9.195-26.348 35.184-37.782 25.99-11.435 52.338-2.24l279.717 101.174q60.913 21.957 87.869 80.489 26.957 58.533 5.239 120.446l-32.565 89.174q-5.478 13.674-17.532 19.772-12.055 6.098-25.729.619L404.087-427.848q-13.674-5.239-19.652-17.293-5.978-12.054-.5-25.728Zm403.261 319L86.935-407.782q-12.674-5.478-19.272-18.033-6.598-12.554-1.12-25.228 5.479-13.674 17.913-19.652 12.435-5.979 25.109-.74l701.261 255.153q13.674 5.478 19.392 17.532 5.717 12.055 1 25.49-5.479 13.673-18.033 20.271-12.555 6.598-25.989 1.12ZM260.152-487.717q-52.152 0-88.706-36.674-36.555-36.674-36.555-89.065 0-52.153 36.555-88.827 36.554-36.674 88.706-36.674t88.826 36.674q36.674 36.674 36.674 88.827 0 52.391-36.674 89.065t-88.826 36.674Z"/></svg>