<svg xmlns="http://www.w3.org/2000/svg" width="48" height="48" viewBox="0 -960 960 960"><path d="M202.609-222.152h506.239l95.326-515.696H554.109l-351.5 515.696ZM91.696-180.13l406.478-596.022q8.956-13.674 24.222-21.87 15.266-8.196 32.713-8.196h249.304q32.351 0 52.719 24.37 20.368 24.37 14.651 56.196L770.5-181.37q-2.239 12.435-12.043 19.892-9.805 7.456-22.022 7.456H106.609q-10.9 0-15.765-8.576-4.866-8.576.852-17.532Zm491.468-241.066q33.215 0 56.341-22.838 23.125-22.838 23.125-55.543 0-32.706-22.942-56.086-22.942-23.38-56.502-23.38-33.46 0-55.932 23.189-22.471 23.189-22.471 56.163t22.583 55.734q22.584 22.761 55.798 22.761ZM202.609-222.152h506.239-506.239Z"/></svg>