<svg xmlns="http://www.w3.org/2000/svg" width="48" height="48" viewBox="0 -960 960 960"><path d="M513.435-450.478v-158.087q0-13.514-8.859-22.475Q495.717-640 482-640t-22.576 8.859q-8.859 8.858-8.859 22.622v170.28q0 7.029 2.359 12.71 2.359 5.681 7.837 10.92l115.848 115.848q9.542 9.718 22.108 9.598 12.566-.12 22.044-9.68 9.717-9.56 9.717-22.155 0-12.594-9.717-22.154L513.435-450.478ZM479-76.022q-75.196 0-141.772-28.478t-116.032-78.196q-49.457-49.717-78.316-115.967-28.858-66.25-28.858-142.337 0-75.196 28.858-141.772 28.859-66.576 78.316-116.413 49.456-49.837 116.032-78.435T479-806.218q75.196 0 141.772 28.598t116.413 78.435q49.837 49.837 78.435 116.413T844.218-441q0 76.196-28.598 142.391-28.598 66.196-78.435 115.913-49.837 49.718-116.413 78.196Q554.196-76.022 479-76.022ZM64.386-689.674q-9.56-9.542-8.94-21.988.62-12.447 10.097-22.164l123.87-119.87q9.478-8.478 22.457-7.978 12.978.5 21.456 9.06 9.717 9.561 9.217 22.035-.5 12.475-10.217 22.035l-123.87 119.87q-9.56 8.717-22.535 8.217-12.974-.5-21.535-9.217Zm829.228 0q-8.561 8.717-21.535 9.217-12.975.5-22.535-8.217l-123.87-119.87q-9.717-8.56-10.217-21.535-.5-12.974 9.217-22.535 8.478-8.56 21.456-9.06 12.979-.5 22.612 8.133l123.954 119.954q9.478 8.6 9.978 21.518.5 12.917-9.06 22.395Z"/></svg>