<svg xmlns="http://www.w3.org/2000/svg" width="48" height="48" viewBox="0 -960 960 960"><path d="m787.304-258.565-499.13-498.174q40.761-24.761 84.598-36.62 43.837-11.859 91.554-11.859 75.957 0 143.652 28.098 67.696 28.098 118.533 76.935t80.315 115.413Q836.304-518.196 835.304-441q-1 47.239-13.119 93.837-12.12 46.598-34.881 88.598Zm-76.543-550.979q-9.478-9.478-8.978-22.456t11.978-22.696q9.717-8.239 21.696-7.859 11.978.381 20.456 9.098l124.87 119.87q10.478 9.478 10.478 22.957 0 13.478-10.478 23.956-10.479 10.478-24.076 10.478-13.598 0-24.077-10.478l-121.869-122.87ZM470.326-74.022q-75.435 0-141.511-28.597-66.076-28.598-114.913-78.435t-77.315-117.033q-28.478-67.196-28.478-144.391 0-64.479 20.88-121.479t64.402-111.239l-51.043-51.282-35.805 35.565q-9.478 9.478-22.837 8.978-13.358-.5-22.837-9.978-9.717-9.717-9.717-23.576t9.717-23.576l34.566-34.565-43.5-43.261q-9.718-9.718-9.718-22.435 0-12.717 9.718-22.435 9.717-9.717 23.054-9.717 13.337 0 23.054 9.717L860.61-97.196q9.717 9.718 9.597 22.555-.119 12.837-9.597 22.315-9.718 9.717-23.055 9.717t-22.815-9.717L707.043-158.543q-45 39.761-107.358 62.141-62.359 22.38-129.359 22.38Z"/></svg>