<svg xmlns="http://www.w3.org/2000/svg" width="48" height="48" viewBox="0 0 48 48"><path d="M42.6 44.3q-.75 0-1.225-.5-.475-.5-.475-1.2V5.4q0-.7.5-1.2t1.2-.5q.75 0 1.225.5.475.5.475 1.2v37.2q0 .7-.5 1.2t-1.2.5Zm-37.2 0q-.75 0-1.225-.5-.475-.5-.475-1.2V5.4q0-.7.5-1.2t1.2-.5q.75 0 1.225.5.475.5.475 1.2v37.2q0 .7-.5 1.2t-1.2.5Zm21.8-24.6q-.7 0-1.2-.5t-.5-1.2v-2q0-.7.5-1.2t1.2-.5H34q.7 0 1.2.5t.5 1.2v2q0 .7-.5 1.2t-1.2.5Zm-13.2 0q-.7 0-1.2-.5t-.5-1.2v-2q0-.7.5-1.2t1.2-.5h6.8q.7 0 1.2.5t.5 1.2v2q0 .7-.5 1.2t-1.2.5Zm13.2 14q-.7 0-1.2-.5t-.5-1.2v-2q0-.7.5-1.2t1.2-.5H34q.7 0 1.2.5t.5 1.2v2q0 .7-.5 1.2t-1.2.5Zm-13.2 0q-.7 0-1.2-.5t-.5-1.2v-2q0-.7.5-1.2t1.2-.5h6.8q.7 0 1.2.5t.5 1.2v2q0 .7-.5 1.2t-1.2.5Z"/></svg>