<svg xmlns="http://www.w3.org/2000/svg" width="48" height="48" viewBox="0 -960 960 960"><path d="M338.448-74.022q-22.577 0-38.262-15.769Q284.5-105.56 284.5-128.087v-535.695q0-22.528 15.803-38.297 15.804-15.769 38.38-15.769t38.262 15.769q15.685 15.769 15.685 38.297v535.695q0 22.527-15.803 38.296-15.803 15.77-38.379 15.77Zm282.869-240q-22.576 0-38.262-15.769-15.685-15.769-15.685-38.296v-295.695q0-22.528 15.803-38.297 15.803-15.769 38.379-15.769 22.577 0 38.262 15.769Q675.5-686.31 675.5-663.782v295.695q0 22.527-15.803 38.296-15.804 15.769-38.38 15.769Zm-513.23-503.826q-14.424 0-24.245-9.871-9.82-9.871-9.82-24.349 0-14.477 9.82-24.313 9.821-9.837 24.245-9.837h743.826q14.394 0 24.349 10.012 9.956 10.012 9.956 24.489 0 14.478-9.956 24.174-9.955 9.695-24.349 9.695H108.087Z"/></svg>