<svg xmlns="http://www.w3.org/2000/svg" width="48" height="48" viewBox="0 -960 960 960"><path d="m701.848-222.565-15.805-16.044q-9.478-9.478-22.695-9.358-13.218.119-22.696 9.597-9.717 9.718-9.717 22.316 0 12.598 9.717 22.315l43.044 43.043q7.826 7.718 18.326 7.718t18.217-7.718l100.804-99.043q9.718-9.696 9.718-22.805 0-13.108-9.718-22.826-9.478-9.478-22.695-9.478-13.218 0-22.696 9.478l-73.804 72.805Zm29 185.391q-78 0-133-55.38-55-55.381-55-131.62 0-77.761 55-133.38 55-55.62 133-55.62 77 0 132.5 55.62 55.5 55.619 55.5 133.38 0 76.239-55.5 131.62-55.5 55.38-132.5 55.38ZM173.326-194.022q-20.412 0-30.097-17.532-9.686-17.533 1.51-34.685l150-233.761-150-233.761q-11.196-17.152-1.51-34.804 9.685-17.653 30.097-17.653h425.391q23.913 0 43.587 12.218 19.674 12.217 33.631 30.891l172.978 242.37q8.957 12.674-.978 23.75t-24.37 4.402q-22.152-9.913-44.902-15.25t-46.62-5.337q-52.239-.239-97.587 19.761-45.348 20-79.369 54-37.239 38-55 83.641-17.761 45.642-16.239 96.642-.239 10.195-6.957 17.652-6.717 7.456-15.913 7.456H173.326Z"/></svg>