<svg xmlns="http://www.w3.org/2000/svg" width="48" height="48" viewBox="0 -960 960 960"><path d="M148.087-114.022q-14.424 0-24.245-9.82-9.82-9.821-9.82-24.245V-262.37q0-13.867 9.512-23.249Q133.046-295 146.949-295q13.903 0 23.238 9.381 9.335 9.382 9.335 23.249v82.848h82.848q13.867 0 23.249 9.466Q295-160.591 295-146.598q0 13.902-9.381 23.239-9.382 9.337-23.249 9.337H148.087Zm549.543 0q-13.867 0-23.249-9.512Q665-133.046 665-146.949q0-13.903 9.381-23.238 9.382-9.335 23.249-9.335h82.848v-82.848q0-13.867 9.501-23.249 9.5-9.381 23.544-9.381 13.853 0 23.274 9.381 9.421 9.382 9.421 23.249v114.283q0 14.424-9.956 24.245-9.955 9.82-24.349 9.82H697.63ZM480-180q-125 0-212.5-87.5T180-480q0-125 87.5-212.5T480-780q125 0 212.5 87.5T780-480q0 125-87.5 212.5T480-180ZM146.598-665q-13.902 0-23.239-9.381-9.337-9.382-9.337-23.249v-114.283q0-14.394 9.82-24.349 9.821-9.956 24.245-9.956H262.37q13.867 0 23.249 9.63 9.381 9.63 9.381 23.533t-9.381 23.24q-9.382 9.337-23.249 9.337h-82.848v82.848q0 13.867-9.466 23.249Q160.591-665 146.598-665Zm666.457 0q-13.903 0-23.24-9.381-9.337-9.382-9.337-23.249v-82.848H697.63q-13.867 0-23.249-9.501-9.381-9.5-9.381-23.544 0-13.853 9.381-23.274 9.382-9.421 23.249-9.421h114.283q14.394 0 24.349 9.956 9.956 9.955 9.956 24.349v114.283q0 13.867-9.63 23.249-9.63 9.381-23.533 9.381Z"/></svg>