<svg xmlns="http://www.w3.org/2000/svg" width="48" height="48" viewBox="0 -960 960 960"><path d="M505.065-480ZM173.326-194.022q-20.673 0-30.228-17.532-9.555-17.533 1.641-34.685l150-233.761-150-233.761q-11.196-17.152-1.641-34.804 9.555-17.653 30.228-17.653h425.391q23.913 0 43.587 12.218 19.674 12.217 33.631 30.891L818.413-522.63q9.196 12.913 6.194 25.913-3.003 13.001-13.389 19.649-10.196 7.133-23.751 6.514-13.554-.62-22.75-14.294l-154-213H235.978l116.457 180.304Q363.63-500.391 363.63-480t-11.195 37.544L235.978-262.152h215.761q14.424 0 24.245 9.871 9.82 9.871 9.82 24.37 0 14.498-9.82 24.194-9.821 9.695-24.245 9.695H173.326Zm528.522-28.543-15.805-16.044q-9.478-9.478-22.695-9.358-13.218.119-22.696 9.597-9.717 9.718-9.717 22.316 0 12.598 9.717 22.315l43.044 43.043q7.644 7.718 18.235 7.718t18.308-7.718l100.804-99.043q9.718-9.696 9.718-22.805 0-13.108-9.718-22.826-9.478-9.478-22.695-9.478-13.218 0-22.696 9.478l-73.804 72.805Zm28.5 185.391q-77.5 0-132.5-55.38-55-55.381-55-131.62 0-78.196 54.99-133.598 54.99-55.402 133.01-55.402 77 0 132.5 55.402t55.5 133.598q0 76.239-55.5 131.62-55.5 55.38-133 55.38Z"/></svg>