<svg xmlns="http://www.w3.org/2000/svg" width="48" height="48" viewBox="0 96 960 960"><path d="M480 981.5q-69.348 0-134.924-24.478-65.576-24.478-116.602-64.624-51.026-40.146-81.783-91.109-30.756-50.963-30.756-104.354V628.37q0-10.375 9.263-15.003t18.324 1.329l101.543 76.826q5.957 4.478 6.957 12.054 1 7.576-4.478 13.054l-45.283 45.283Q233.022 818 304.794 861.946q71.771 43.945 141.141 48.706V532.935H350q-14.674 0-24.37-9.696-9.695-9.695-9.695-24.369t9.695-24.37q9.696-9.696 24.37-9.696h95.935V394.63q-39.913-15.434-61.272-44.75-21.359-29.315-21.359-66.51 0-48.93 34.441-83.052 34.442-34.123 82.283-34.123 48.842 0 82.874 34.123 34.033 34.122 34.033 83.052 0 37.195-21.516 66.517-21.515 29.322-61.354 44.743v70.174H610q14.674 0 24.37 9.696 9.695 9.696 9.695 24.37 0 14.674-9.695 24.369-9.696 9.696-24.37 9.696h-95.935v377.717q69.37-4.761 141.141-48.706Q726.978 818 757.739 761.913l-45.283-45.283q-5.478-5.478-4.478-13.054 1-7.576 6.957-12.054l101.543-76.826q9.061-5.957 18.324-1.329 9.263 4.628 9.263 15.003v68.565q0 53.391-30.756 104.354-30.757 50.963-81.783 91.109-51.026 40.146-116.602 64.624Q549.348 981.5 480 981.5Zm.025-649.565q20.497 0 34.518-14.547 14.022-14.547 14.022-34.044 0-20.496-14.047-34.638-14.047-14.141-34.543-14.141-19.497 0-34.018 14.167-14.522 14.166-14.522 34.663 0 19.496 14.547 34.018 14.547 14.522 34.043 14.522Z"/></svg>