<svg xmlns="http://www.w3.org/2000/svg" width="48" height="48" viewBox="0 96 960 960"><path d="M488.206 981.5q-69.386 0-135.003-24.478-65.616-24.478-116.523-64.624-50.906-40.146-81.782-91.109-30.876-50.963-30.876-104.354V628.37q0-10.375 9.263-15.003 9.262-4.628 18.324 1.329l101.782 76.826q5.718 4.478 6.837 12.054 1.12 7.576-4.598 13.054l-45.282 45.283Q241.109 818 312.88 861.946q71.772 43.945 141.142 48.706V532.935h-95.696q-14.913 0-24.609-9.696-9.695-9.695-9.695-24.369t9.695-24.37q9.696-9.696 24.609-9.696h95.696V394.63q-39.674-15.434-61.153-44.75-21.478-29.315-21.478-66.51 0-48.93 34.441-83.052 34.442-34.123 82.522-34.123 48.682 0 82.675 34.123 33.993 34.122 33.993 83.052 0 37.195-21.516 66.517-21.515 29.322-61.115 44.743v70.174h95.935q14.674 0 24.37 9.696 9.695 9.696 9.695 24.37 0 14.674-9.695 24.369-9.696 9.696-24.37 9.696h-95.935v377.717q69.37-4.761 141.142-48.706Q735.304 818 766.065 761.913l-45.283-45.283q-5.717-5.478-4.597-13.054 1.119-7.576 6.837-12.054l101.728-76.826q9.078-5.957 18.36-1.329 9.281 4.628 9.281 15.003v68.565q0 53.391-30.876 104.354t-81.783 91.109q-50.906 40.146-116.522 64.624Q557.593 981.5 488.206 981.5Zm.145-649.565q20.258 0 34.399-14.547 14.141-14.547 14.141-34.044 0-20.496-14.166-34.638-14.167-14.141-34.424-14.141-19.736 0-34.138 14.167-14.402 14.166-14.402 34.663 0 19.496 14.427 34.018 14.428 14.522 34.163 14.522Z"/></svg>