<svg xmlns="http://www.w3.org/2000/svg" width="48" height="48" viewBox="0 -960 960 960"><path d="M771.91-218.02h-45.93q-14.43 0-24.25-9.87t-9.82-24.37q0-14.5 9.82-24.08 9.82-9.57 24.49-9.57h45.69v-46.18q0-14.18 9.87-24 9.88-9.82 24.49-9.82 14.62 0 24.2 9.7 9.57 9.7 9.57 24.12v46.18h46.18q14.18 0 24 9.87t9.82 24.37q0 14.5-9.7 24.07-9.7 9.58-24.12 9.58h-46.18v46.17q0 14.43-9.87 24.13t-24.37 9.7q-14.5 0-24.19-9.82-9.7-9.82-9.7-24.25v-45.93ZM310.78-658.71q-81.63 27.38-150.91 78.91-20.2 15.19-44.75 14.57-24.55-.62-42.48-19.3-17.23-17.71-16.11-41.88 1.12-24.18 20.32-39.37 86.29-67.56 189.17-103.5 102.87-35.94 213.78-35.94 110.92 0 213.93 35.94t189.42 103.5q19.2 15.19 20.32 39.37 1.12 24.17-16.11 41.88-17.93 18.68-42.48 19.3-24.55.62-44.75-14.57-69.28-51.53-150.91-78.91-81.64-27.38-169.22-27.38t-169.22 27.38Zm116.73 481.55q-21.58-21.67-21.58-52.49 0-30.83 21.67-52.4 21.66-21.58 52.49-21.58 30.82 0 52.4 21.66 21.58 21.67 21.58 52.49 0 30.83-21.67 52.4-21.66 21.58-52.49 21.58-30.82 0-52.4-21.66ZM480-440.65q-41.04 0-78.83 10.76-37.78 10.76-72.06 30.28-20.44 11.72-43.49 10.22t-38.83-17.91q-15.38-15.81-14.76-38.07.62-22.26 18.82-34.46 51.24-34.24 109.25-52.59 58.01-18.36 119.9-18.36 71.88 0 138.85 24.33 66.98 24.34 121.69 70.54-28.15 8.71-52.84 25.15-24.7 16.43-42.94 38.59-37-23.24-78.38-35.86Q525-440.65 480-440.65Z"/></svg>