<svg xmlns="http://www.w3.org/2000/svg" width="48" height="48" viewBox="0 -960 960 960"><path d="M811.91-218.02h-45.93q-14.51 0-24.29-9.87t-9.78-24.43q0-14.56 9.82-24.08 9.82-9.51 24.49-9.51h45.69v-46.18q0-14.27 9.87-24.04 9.88-9.78 24.55-9.78 14.68 0 24.2 9.66 9.51 9.66 9.51 24.16v46.18h46.18q14.27 0 24.04 9.87 9.78 9.87 9.78 24.43 0 14.55-9.66 24.07-9.65 9.52-24.16 9.52h-46.18v46.17q0 14.51-9.87 24.17-9.87 9.66-24.43 9.66-14.55 0-24.19-9.82t-9.64-24.25v-45.93Zm-725.56 64q-22.37 0-37.95-15.5-15.57-15.5-15.57-38.09v-127.15q0-22.35 15.63-37.97 15.64-15.62 38.01-15.62 22.38 0 37.95 15.62Q140-357.11 140-334.76v127.15q0 22.59-15.64 38.09-15.63 15.5-38.01 15.5Zm158.85-15.5q-15.46-15.5-15.46-38.09v-210.63q0-22.35 15.52-37.97 15.51-15.62 38.01-15.62 22.49 0 38.07 15.62 15.57 15.62 15.57 37.97v210.63q0 22.59-15.63 38.09-15.64 15.5-38.13 15.5-22.5 0-37.95-15.5Zm196.79 0q-15.58-15.5-15.58-38.09V-544.2q0-22.34 15.64-37.96 15.64-15.62 38.01-15.62 22.37 0 37.95 15.62 15.58 15.62 15.58 37.96v336.59q0 22.59-15.64 38.09-15.64 15.5-38.01 15.5-22.37 0-37.95-15.5ZM927.17-460.7q-25.91-10.47-52.82-13.12-26.92-2.64-54.35.32v-279.13q0-22.35 15.64-37.97 15.63-15.62 38.01-15.62 22.37 0 37.95 15.62 15.57 15.62 15.57 37.97v291.93Zm-303.84 201v-366.97q0-22.35 15.51-37.97 15.52-15.62 38.01-15.62 22.5 0 38.07 15.62 15.58 15.62 15.58 37.97v184.69q-47.59 27.72-76.74 76.09-29.15 48.37-30.43 106.19Z"/></svg>