<svg xmlns="http://www.w3.org/2000/svg" width="48" height="48" viewBox="0 96 960 960"><path d="M740 987H220q-28.104 0-48.117-20.083-20.014-20.084-20.014-48.287V727.957q0-28.098 19.891-48.114 19.891-20.017 48.24-20.017h520q28.448 0 48.409 20.017 19.961 20.016 19.961 48.114V918.63q0 28.203-20.084 48.287Q768.203 987 740 987Zm-45.935-164.304q20.641 0 34.603-13.987 13.962-13.987 13.962-34.663 0-20.676-13.962-34.698-13.962-14.022-34.603-14.022h-428.13q-20.641 0-34.603 13.92-13.962 13.919-13.962 34.495 0 20.678 13.962 34.816 13.962 14.139 34.603 14.139h428.13Zm-23.239-429.892L507.348 621.283q-5.789 6.717-12.674 10.195-6.885 3.479-14.77 3.479-7.884 0-14.709-3.479-6.825-3.478-12.304-10.195L289.174 392.804q-7.357-10.222-11.135-21.521-3.778-11.299-3.778-22.783-.239-80.631 61.333-132.065Q397.166 165 480.04 165q82.873 0 144.286 51.435 61.413 51.434 61.413 132.065 0 11.556-3.778 22.819t-11.135 21.485Z"/></svg>