<svg xmlns="http://www.w3.org/2000/svg" width="48" height="48" viewBox="0 -960 960 960"><path d="M222.15-74.02q-28.33 0-48.23-19.9t-19.9-48.23v-191.87q0-27.35 20.27-47.74 20.28-20.39 47.86-20.39h515.7q27.58 0 47.98 20.39 20.39 20.39 20.39 47.74v191.87q0 28.33-20.02 48.23t-48.35 19.9h-515.7Zm48.33-163.59h419.28q20.53 0 34.31-13.73 13.78-13.72 13.78-34.18T724.07-320q-13.78-14.02-34.31-14.02H270.48q-20.77 0-34.55 13.84-13.78 13.85-13.78 34.31t13.78 34.36q13.78 13.9 34.55 13.9Zm183.13-199.74L292.85-655.93q-8.68-11.44-11.89-24.57-3.22-13.12-.98-26.85 12-76.95 65.27-127.91 53.27-50.96 134.75-50.96 81.48 0 134.75 50.96 53.27 50.96 65.27 127.91 2.24 13.73-.98 26.85-3.21 13.13-11.89 24.57L506.63-437.35q-10.1 13.72-26.46 13.72-16.37 0-26.56-13.72ZM480-494.26l135.17-191.96q-1.91-54.98-41.03-93.31-39.13-38.32-94.2-38.32t-94.14 38.32q-39.06 38.33-40.97 93.31L480-494.26Zm0-161.67Z"/></svg>