<svg xmlns="http://www.w3.org/2000/svg" width="48" height="48" viewBox="0 96 960 960"><path d="m846.218 787.674-319-249.761q-22.87-18.152-51.838-14.054-28.967 4.098-45.88 27.967L311.761 716.13 166.456 600.739q-13.478-11-25.837-16.239-12.358-5.239-26.597-7.718V372.804q5.239 0 11.739 2.359 6.5 2.358 12.978 7.358l139.826 104.87 179.609-250.413q8.956-12.435 23.369-14.293 14.414-1.859 25.609 7.337l175 139.76h129.761q14.674 0 24.489 9.816 9.816 9.815 9.816 24.489v383.587ZM148.087 901.978q-14.674 0-24.37-9.695-9.695-9.696-9.695-24.37V646.826q6.239 0 13.239 1.38 7 1.381 13.478 6.859l183.022 146.587L463.13 609.239q8.957-12.196 23.25-13.935 14.294-1.739 25.49 7.218l334.348 261.152v4.239q0 14.674-9.816 24.37-9.815 9.695-24.489 9.695H148.087Z"/></svg>