<svg xmlns="http://www.w3.org/2000/svg" width="48" height="48" viewBox="0 -960 960 960"><path d="M480.086-324.043q73.329 0 124.6-51.317t51.271-124.626q0-72.576-51.73-123.154Q552.498-673.717 480-675.957v51.914q51.761 1 87.902 36.89 36.141 35.891 36.141 87.402 0 51.512-36.149 87.653-36.149 36.141-87.792 36.141-33.404 0-62.014-16.239t-45.61-45l-44.674 24.718q24 40.478 64.208 64.456 40.208 23.979 88.074 23.979ZM329.543-469.087q10.979 0 18.457-7.493 7.478-7.493 7.478-18.46 0-10.968-7.594-18.344-7.595-7.377-18.598-7.377t-18.362 7.459q-7.359 7.459-7.359 18.375 0 11.019 7.5 18.43 7.5 7.41 18.478 7.41Zm22.573-84.956q11.019 0 18.43-7.527t7.411-18.546q0-11.019-7.527-18.43t-18.546-7.411q-11.019 0-18.43 7.527t-7.411 18.546q0 11.019 7.527 18.43t18.546 7.411Zm59.196-56.435q11.019 0 18.43-7.527 7.41-7.527 7.41-18.546 0-11.019-7.5-18.43-7.5-7.41-18.478-7.41-10.978 0-18.337 7.526-7.359 7.527-7.359 18.546 0 11.02 7.459 18.43 7.459 7.411 18.375 7.411ZM480-78.261q-6.037 0-11.315-1.12-5.277-1.119-10.315-3.358-140.196-47-222.272-170.675-82.076-123.676-82.076-269.692v-194.22q0-21.887 12.19-39.565 12.19-17.677 32.071-25.327L456.13-878.5q12.196-4.478 23.87-4.478 11.674 0 23.87 4.478l257.847 96.282q19.881 7.65 32.191 25.327 12.31 17.678 12.31 39.565v194.22q0 146.016-82.196 269.692Q641.826-129.739 501.63-82.739q-5.038 2.24-10.315 3.359-5.278 1.12-11.315 1.12Zm0-66.652q113.804-39.196 185.826-143.62 72.022-104.424 72.022-234.397v-194.396L480-814.609 222.152-717.21v194.169q0 130.084 72.022 234.508T480-144.913Zm0-334.848Z"/></svg>