<svg xmlns="http://www.w3.org/2000/svg" width="48" height="48" viewBox="0 96 960 960"><path d="M479.677 731.957q72.532 0 124.406-51.17 51.874-51.169 51.874-123.456 0-70.259-43-122.534-43-52.275-109.24-51.036-11.072 0-18.395 6.859Q478 397.478 478 408.389q-.239 10.328 6.175 17.948 6.414 7.62 16.782 7.62 46.282 0 74.684 37.286 28.402 37.287 28.402 86.036 0 51.236-36.326 87t-87.512 35.764q-27.113 0-51.3-10.88-24.188-10.88-41.948-30.641-7.099-7.937-17.528-10.327-10.429-2.391-19.745 2.445-10.162 5.643-10.401 18.001-.24 12.359 8 21.563 24.69 29.406 59.352 45.579 34.662 16.174 73.042 16.174Zm-68.365-286.435q11.019 0 18.43-7.527 7.41-7.527 7.41-18.546 0-11.019-7.5-18.43-7.5-7.41-18.478-7.41-10.978 0-18.337 7.526-7.359 7.527-7.359 18.546 0 11.02 7.459 18.43 7.459 7.411 18.375 7.411Zm-59.196 56.435q11.019 0 18.43-7.527t7.411-18.546q0-11.019-7.527-18.43t-18.546-7.411q-11.019 0-18.43 7.527t-7.411 18.546q0 11.019 7.527 18.43t18.546 7.411Zm-22.573 84.956q10.979 0 18.457-7.493 7.478-7.493 7.478-18.46 0-10.968-7.594-18.344-7.595-7.377-18.598-7.377t-18.362 7.459q-7.359 7.459-7.359 18.375 0 11.019 7.5 18.43 7.5 7.41 18.478 7.41ZM480 978.978q-4.384 0-8.529-.619-4.145-.62-7.623-1.859-135.913-40.956-222.87-167.042Q154.022 683.372 154.022 533V338.674q0-21.777 12.19-39.509 12.19-17.733 32.071-25.383L456.13 177.5q12.435-4.478 23.87-4.478t23.87 4.478l257.847 96.282q19.881 7.65 32.191 25.383 12.31 17.732 12.31 39.509V533q0 150.372-87.077 276.458-87.076 126.086-223.015 167.064.504-.261-16.126 2.456Zm0-67.891q113.804-39.196 185.826-143.62 72.022-104.424 72.022-234.397V338.674L480 241.391 222.152 338.79v194.169q0 130.084 72.022 234.508T480 911.087Zm0-334.848Z"/></svg>