<svg xmlns="http://www.w3.org/2000/svg" width="48" height="48" viewBox="0 96 960 960"><path d="m502.435 706.5 106.869-106.63Q619.5 589.674 619.5 576q0-13.674-10.196-23.87L501.435 444.5q-9.315-9.435-23.43-8.935-14.114.5-23.309 9.845-10.196 10.345-10.196 23.989t10.196 23.84l48.695 48.696H357.565q-13.674 0-23.369 10.195Q324.5 562.326 324.5 576q0 14.674 9.696 24.37 9.695 9.695 24.369 9.695h144.826l-49.695 49.696Q444.5 669.076 445 683.19q.5 14.114 9.696 23.31 10.195 10.196 23.869 10.196t23.87-10.196ZM480.12 981.978q-86.316 0-160.508-30.998-74.193-30.998-128.893-85.699-54.701-54.7-85.699-128.893-30.998-74.192-30.998-160.508 0-85.315 30.941-159.403 30.942-74.088 85.699-128.893 54.757-54.805 128.95-86.303 74.192-31.499 160.508-31.499 85.315 0 159.416 31.468 74.102 31.467 128.916 86.268 54.815 54.801 86.29 128.883Q886.218 490.484 886.218 576q0 86.196-31.499 160.388-31.498 74.193-86.303 128.95-54.805 54.757-128.893 85.699-74.088 30.941-159.403 30.941Zm-.164-68.13q144.087 0 240.99-96.741 96.902-96.741 96.902-241.065 0-144.325-96.859-241.107-96.858-96.783-240.945-96.783t-240.99 96.741q-96.902 96.741-96.902 241.065 0 144.325 96.859 241.107 96.858 96.783 240.945 96.783ZM480 576Z"/></svg>