<svg xmlns="http://www.w3.org/2000/svg" width="48" height="48" viewBox="0 -960 960 960"><path d="M676.435-570.935H262.152v382.848q0 14.424-9.871 24.245-9.871 9.82-24.37 9.82-14.498 0-24.194-9.82-9.695-9.821-9.695-24.245v-382.848q0-28.098 19.89-48.114 19.891-20.016 48.24-20.016h413.283L540.891-773.609q-10.232-10.291-10.094-23.797.138-13.507 10.386-23.703 10.248-10.195 24.322-10.195 14.073 0 24.365 10.195l192.239 194q5.456 5.518 7.945 11.615 2.49 6.096 2.49 12.654 0 6.557-2.49 12.502-2.489 5.945-7.945 11.447l-191 191q-10.283 10.195-23.913 9.695-13.631-.5-24.197-10.695-10.064-10.196-9.945-24.446.12-14.25 10.316-24.533l133.065-133.065Z"/></svg>