<svg xmlns="http://www.w3.org/2000/svg" width="48" height="48" viewBox="0 0 48 48"><path d="M10.05 25.75 15 30.7q.5.5.5 1.2t-.5 1.2q-.5.5-1.2.5t-1.2-.5l-7.85-7.9q-.5-.5-.5-1.2t.5-1.2l7.85-7.85q.5-.5 1.225-.525.725-.025 1.225.475.5.5.5 1.2t-.5 1.25L10.1 22.3h10.2q.75 0 1.225.475Q22 23.25 22 24q0 .75-.475 1.225-.475.475-1.225.475Zm27.85-.05H27.7q-.75 0-1.225-.475Q26 24.75 26 24q0-.75.475-1.225.475-.475 1.225-.475h10.2l-4.95-4.95q-.5-.5-.475-1.175.025-.675.525-1.225.5-.5 1.2-.5t1.2.5l7.85 7.85q.5.5.5 1.2t-.5 1.2l-7.9 7.9q-.5.5-1.2.475-.7-.025-1.2-.525t-.5-1.2q0-.7.5-1.2Z"/></svg>