<svg xmlns="http://www.w3.org/2000/svg" width="48" height="48" viewBox="0 -960 960 960"><path d="M694.694-150.913q-48.131 0-77.913-29.837Q587-210.587 587-258.719q0-48.131 29.763-77.913 29.763-29.781 77.867-29.781 16.44 0 29.74 3.806 13.3 3.805 23.63 11.237v-183.174q0-14.424 9.821-24.244 9.82-9.821 24.244-9.821h70.805q14.035 0 23.333 9.348 9.297 9.348 9.297 23.458 0 14.02-9.297 23.357-9.298 9.337-23.333 9.337H802.5v244.327q0 48.195-29.837 78.032-29.837 29.837-77.969 29.837Zm-588.759 0q-14.424 0-24.245-9.821-9.82-9.82-9.82-24.244v-66.304q0-33.761 17.836-64.696 17.837-30.935 53.272-46.652 75.239-33 134.499-46.74 59.259-13.739 120.371-13.739 35.956 0 70.293 4.62 34.337 4.619 70.294 14.098 17.674 5.478 23.272 17.412 5.597 11.933 3.119 24.369t-12.674 20.273q-10.195 7.837-25.109 3.598-29.239-8-61.692-12-32.454-4-67.397-4-57.692 0-108.206 10.478T172.052-301.88q-16.023 7.921-24.038 22.28Q140-265.241 140-250.413v31.37h368.652q16.794 0 25.43 10.554 8.635 10.555 8.635 23.22 0 12.965-8.885 23.66-8.886 10.696-26.18 10.696H105.935Zm291.864-333.196q-68.679 0-112.304-43.625-43.626-43.625-43.626-112.305 0-68.679 43.626-112.353 43.625-43.674 112.304-43.674t112.353 43.674q43.674 43.674 43.674 112.353 0 68.68-43.674 112.305t-112.353 43.625Zm0-68.13q38.092 0 62.875-24.866 24.782-24.865 24.782-62.974 0-38.207-24.785-63.031-24.786-24.825-62.783-24.825-38.096 0-62.992 24.836Q310-678.264 310-640.197q0 38.165 24.853 63.061 24.854 24.897 62.946 24.897Zm.049-87.848Zm0 421.044Z"/></svg>