<svg xmlns="http://www.w3.org/2000/svg" width="48" height="48" viewBox="0 96 960 960"><path d="m342.174 759.696 130.869-59.674q3.24-2.239 6.837-2.12 3.598.12 6.837 2.12l131.348 59.674q9.957 5.478 18.294-2.978 8.337-8.457 4.098-19.653l-144.783-348q-4.478-9.956-15.674-9.956t-15.674 9.956l-144.783 348q-4.239 11.196 4.098 19.653 8.337 8.456 18.533 2.978ZM480 169.782q85.435 0 159.508 31.499 74.073 31.498 128.893 86.318 54.82 54.82 86.318 128.893Q886.218 490.565 886.218 576q0 86.196-31.499 160.388-31.498 74.193-86.318 128.893-54.82 54.701-128.893 85.699Q565.435 981.978 480 981.978q-86.196 0-160.388-30.998-74.193-30.998-128.893-85.699-54.701-54.7-85.699-128.893Q74.022 662.196 74.022 576q0-85.435 30.998-159.508 30.998-74.073 85.699-128.893 54.7-54.82 128.893-86.318Q393.804 169.782 480 169.782Z"/></svg>