<svg xmlns="http://www.w3.org/2000/svg" width="48" height="48" viewBox="0 -960 960 960"><path d="M373.5-621.5Q330-578 330-515t43.5 106.5Q417-365 480-365t106.5-43.5Q630-452 630-515t-43.5-106.5Q543-665 480-665t-106.5 43.5Zm106.44 193.87q-37.74 0-62.53-24.84-24.78-24.84-24.78-62.71 0-37.86 24.84-62.53 24.84-24.66 62.71-24.66 37.86 0 62.53 24.75 24.66 24.74 24.66 62.68 0 37.74-24.75 62.53-24.74 24.78-62.68 24.78Zm195.91 158.48q12-12 12-28t-12-28q-12-12-28-12t-28 12q-12 12-12 28t12 28q12 12 28 12t28-12Zm-521.83 127V-690q0-81.42 57.25-138.82 57.25-57.4 138.73-57.4h260q81.42 0 138.82 57.4 57.4 57.4 57.4 138.82v547.85q0 28.6-19.84 48.36-19.83 19.77-48.53 19.77h-515.7q-28.6 0-48.36-19.77-19.77-19.76-19.77-48.36Zm101.13 0h450.7q14 0 23-9t9-23q0-14-9-23.5t-23-9.5h-451.7q-14 0-23 9t-9 23q0 14 9.5 23.5t23.5 9.5Z"/></svg>