<svg xmlns="http://www.w3.org/2000/svg" width="48" height="48" viewBox="0 -960 960 960"><path d="M480-795.565q14.829 0 25.632-10.803T516.435-832q0-14.829-10.803-25.632T480-868.435q-14.829 0-25.632 10.803T443.565-832q0 14.829 10.803 25.632T480-795.565ZM730.348-37.652q-77.5 0-132.5-55.5t-55-131.5q0-78.196 54.99-133.598 54.99-55.402 133.01-55.402 77 0 132.5 55.402t55.5 133.598q0 76-55.5 131.5t-133 55.5Zm-548.196-76.37q-28.104 0-48.117-20.013-20.013-20.013-20.013-48.117v-595.696q0-28.202 20.013-48.286t48.117-20.084h199.022q6.435-35 34.152-57.5 27.717-22.5 64.674-22.5 36.957 0 64.674 22.5 27.717 22.5 34.152 57.5h199.022q28.202 0 48.286 20.084t20.084 48.286v290.522q0 15.411-12.794 23.879-12.794 8.469-27.707 2.751-17.652-5.739-36.762-8.728-19.111-2.989-38.107-2.989-14 0-27 1.5t-26 4.5v-10q-4-9.196-9-16.913-4-6.478-9.574-11.576Q653.701-510 647.756-510H312.22q-12.818 0-21.443 8.675-8.625 8.676-8.625 21.5 0 12.825 8.625 21.325t21.394 8.5h313.742q-36.239 17.522-64.859 45.424-28.619 27.902-46.858 62.424H312.152q-12.75 0-21.375 8.675-8.625 8.676-8.625 21.5 0 12.825 8.625 21.325t21.375 8.5h177.891q-3.717 14.195-5.456 28.774-1.739 14.578-1.739 29.965 0 18.066 2.894 35.49 2.893 17.424 7.628 33.88 4.239 14.913-4.405 27.467-8.644 12.554-23.422 12.554H182.152Zm531.065-91v91.37q0 8.196 5.932 13.413 5.932 5.217 13.842 5.217 7.909 0 13.198-5.817 5.289-5.817 5.289-13.813v-90.37h91.37q8.052 0 13.341-5.911 5.289-5.912 5.289-13.794 0-7.882-5.289-13.219t-13.341-5.337h-91.37v-91.369q0-8.052-5.289-13.341-5.289-5.29-13.198-5.29-7.91 0-13.842 5.29-5.932 5.289-5.932 13.341v91.369h-91.369q-8.052 0-13.342 5.32-5.289 5.32-5.289 13.271 0 7.95 5.889 13.81 5.89 5.86 13.742 5.86h90.369ZM312.221-617.848h335.558q12.819 0 21.444-8.675 8.625-8.676 8.625-21.5 0-12.825-8.625-21.325t-21.444-8.5H312.221q-12.819 0-21.444 8.676-8.625 8.675-8.625 21.5 0 12.824 8.625 21.324 8.625 8.5 21.444 8.5Z"/></svg>