<svg xmlns="http://www.w3.org/2000/svg" width="48" height="48" viewBox="0 -960 960 960"><path d="M506.05-287.85q11.1-10.96 11.1-26.06 0-15.09-11.08-26.19-11.08-11.1-26.05-11.1-14.98 0-26.07 11.09-11.1 11.08-11.1 26.17 0 15.09 11.08 26.07t26.05 10.98q14.98 0 26.07-10.96Zm-4.47-128.9q8.85-8.81 8.85-22.62v-213.22q0-13.52-8.85-22.5-8.86-8.98-22.58-8.98-13.72 0-22.58 8.82-8.85 8.81-8.85 22.62v213.22q0 13.52 8.85 22.5 8.86 8.98 22.58 8.98 13.72 0 22.58-8.82ZM182.15-114.02q-28.34 0-48.23-19.9-19.9-19.89-19.9-48.23v-595.7q0-28.34 19.9-48.35 19.89-20.02 48.23-20.02h199.02q6.44-35 34.16-57.5 27.71-22.5 64.67-22.5t64.67 22.5q27.72 22.5 34.16 57.5h199.02q28.34 0 48.35 20.02 20.02 20.01 20.02 48.35v595.7q0 28.34-20.02 48.23-20.01 19.9-48.35 19.9h-595.7Zm323.43-692.4q10.85-10.86 10.85-25.58 0-14.72-10.85-25.58-10.86-10.85-25.58-10.85-14.72 0-25.58 10.85-10.85 10.86-10.85 25.58 0 14.72 10.85 25.58 10.86 10.85 25.58 10.85 14.72 0 25.58-10.85Z"/></svg>