<svg xmlns="http://www.w3.org/2000/svg" width="48" height="48" viewBox="0 96 960 960"><path d="M480 260.913q14.829 0 25.632-10.803t10.803-25.512q0-14.71-10.803-25.632-10.803-10.923-25.632-10.923t-25.632 10.907q-10.803 10.907-10.803 25.528 0 14.829 10.803 25.632T480 260.913Zm250.348 757.917q-77.5 0-132.5-55.384-55-55.381-55-131.62 0-78.196 54.99-133.598 54.99-55.402 133.01-55.402 77 0 132.5 55.402t55.5 133.598q0 76.239-55.5 131.62-55.5 55.384-133 55.384Zm-221.305-76.134H182.152q-28.104 0-48.117-20.084-20.013-20.083-20.013-48.286V278.63q0-28.103 20.013-48.117 20.013-20.013 48.117-20.013h199.022q6.435-35.239 34.152-57.62Q443.043 130.5 480 130.5q36.957 0 64.674 22.38 27.717 22.381 34.152 57.62h199.022q28.202 0 48.286 20.013 20.084 20.014 20.084 48.117v335.218q-26.674-15.391-55.727-22.587-29.052-7.196-59.643-7.196-14 0-27 1.5t-26 4.5v-43.587H312.217q-12.815 0-21.44 8.676-8.625 8.675-8.625 21.5 0 12.824 8.625 21.324 8.625 8.5 21.394 8.5h313.742Q589.674 624 561.054 651.902q-28.619 27.902-46.858 62.424H312.152q-12.75 0-21.375 8.675-8.625 8.676-8.625 21.5 0 12.825 8.625 21.325t21.375 8.5h177.891q-3.717 14.435-5.456 28.87-1.739 14.434-1.739 29.869 0 29.52 6.491 56.426 6.492 26.906 19.704 53.205Zm204.174-91v91.13q0 8.148 5.932 13.509 5.932 5.361 13.842 5.361 7.909 0 13.198-5.961 5.289-5.961 5.289-13.909v-90.13h91.37q8.052 0 13.341-6.004t5.289-14.009q0-7.909-5.289-13.198-5.289-5.289-13.341-5.289h-91.37v-91.37q0-8.052-5.289-13.341t-13.198-5.289q-7.91 0-13.842 5.289t-5.932 13.341v91.37h-91.369q-8.052 0-13.342 5.32-5.289 5.319-5.289 13.27 0 7.95 5.889 13.93 5.89 5.98 13.742 5.98h90.369ZM312.152 438.63h335.696q12.75 0 21.375-8.675t8.625-21.5q0-12.825-8.625-21.325t-21.375-8.5H312.152q-12.75 0-21.375 8.676-8.625 8.675-8.625 21.5 0 12.824 8.625 21.324 8.625 8.5 21.375 8.5Z"/></svg>