<svg xmlns="http://www.w3.org/2000/svg" width="48" height="48" viewBox="0 -960 960 960"><path d="M182.152-114.022q-28.104 0-48.117-20.013-20.013-20.013-20.013-48.117v-595.696q0-28.202 20.013-48.286t48.117-20.084h199.022q6.435-35 34.152-57.5 27.717-22.5 64.674-22.5 36.957 0 64.674 22.5 27.717 22.5 34.152 57.5h199.022q28.202 0 48.286 20.084t20.084 48.286v595.696q0 28.104-20.084 48.117-20.084 20.013-48.286 20.013H182.152Zm0-68.13h595.696v-595.696H182.152v595.696Zm130.07-100h210.23q12.82 0 21.445-8.676 8.625-8.675 8.625-21.5 0-12.824-8.625-21.324-8.625-8.5-21.445-8.5h-210.23q-12.82 0-21.445 8.675-8.625 8.676-8.625 21.5 0 12.825 8.625 21.325t21.445 8.5ZM312.221-450h335.558q12.819 0 21.444-8.675 8.625-8.676 8.625-21.5 0-12.825-8.625-21.325t-21.444-8.5H312.221q-12.819 0-21.444 8.675-8.625 8.676-8.625 21.5 0 12.825 8.625 21.325t21.444 8.5Zm0-167.848h335.558q12.819 0 21.444-8.675 8.625-8.676 8.625-21.5 0-12.825-8.625-21.325t-21.444-8.5H312.221q-12.819 0-21.444 8.676-8.625 8.675-8.625 21.5 0 12.824 8.625 21.324 8.625 8.5 21.444 8.5ZM480-795.565q14.829 0 25.632-10.803T516.435-832q0-14.829-10.803-25.632T480-868.435q-14.829 0-25.632 10.803T443.565-832q0 14.829 10.803 25.632T480-795.565ZM182.152-182.152v-595.696 595.696Z"/></svg>