<svg xmlns="http://www.w3.org/2000/svg" width="48" height="48" viewBox="0 0 48 48"><path d="M20.5 23.55q.65 0 1.1-.45.45-.45.45-1.1 0-.7-.45-1.125-.45-.425-1.1-.425-.7 0-1.125.45-.425.45-.425 1.1 0 .7.45 1.125.45.425 1.1.425Zm-7 0q.65 0 1.1-.45.45-.45.45-1.1 0-.7-.45-1.125-.45-.425-1.15-.425-.65 0-1.1.45-.45.45-.45 1.1 0 .7.45 1.125.45.425 1.15.425Zm14 0q.7 0 1.125-.45.425-.45.425-1.1 0-.7-.45-1.125-.45-.425-1.1-.425-.65 0-1.1.45-.45.45-.45 1.1 0 .7.45 1.125.45.425 1.1.425Zm7.05 0q.65 0 1.1-.45.45-.45.45-1.1 0-.7-.45-1.125-.45-.425-1.15-.425-.65 0-1.1.45-.45.45-.45 1.1 0 .7.45 1.125.45.425 1.15.425ZM7.1 32.9h33.8V11.1H7.1v21.8ZM24 40.45q-5.2 0-8.7-.7-3.5-.7-3.5-1.75v-1.7H7.1q-1.35 0-2.375-1.025T3.7 32.9V11.1q0-1.4 1.025-2.4t2.375-1h33.8q1.4 0 2.4 1t1 2.4v21.8q0 1.35-1 2.375T40.9 36.3h-4.7V38q0 1.05-3.5 1.75t-8.7.7ZM7.1 32.9V11.1v21.8Z"/></svg>