<svg xmlns="http://www.w3.org/2000/svg" width="48" height="48" viewBox="0 -960 960 960"><path d="M426.88-190.565q41.689 0 71.122-28.72 29.433-28.721 29.433-70.476V-494.63h86q12.75 0 21.375-8.676 8.625-8.675 8.625-21.5 0-12.824-8.625-21.324-8.625-8.5-21.375-8.5h-96q-12.75 0-21.375 8.625t-8.625 21.282v159.006q-11.239-9.24-27.068-14.479-15.83-5.239-33.367-5.239-40.074 0-67.255 27.814-27.18 27.813-27.18 68.001 0 40.189 27.18 69.622 27.181 29.433 67.135 29.433ZM222.152-74.022q-27.599 0-47.865-20.265-20.265-20.266-20.265-47.865v-675.696q0-27.697 20.265-48.033 20.266-20.337 47.865-20.337h332.891q14.145 0 26.964 5.718 12.819 5.717 22.015 14.913l181.565 181.565q9.196 9.196 14.913 22.015 5.718 12.819 5.718 26.964v492.891q0 27.599-20.337 47.865-20.336 20.265-48.033 20.265H222.152Zm326.696-591.891v-151.935H222.152v675.696h515.696v-489.696H582.913q-14.424 0-24.245-9.82-9.82-9.821-9.82-24.245ZM222.152-817.848v186-186 675.696-675.696Z"/></svg>