<svg xmlns="http://www.w3.org/2000/svg" width="48" height="48" viewBox="0 96 960 960"><path d="M480.439 894.326q-6.97 0-13.802-1.619-6.833-1.62-12.311-5.859-43.761-28.761-92.848-45.261-49.087-16.5-101.446-16.5-41.554 0-81.456 11t-76.424 30.761q-23.63 12.196-45.641-1.209Q34.5 852.235 34.5 826.544V345.022q0-13.544 6.456-25.588 6.457-12.043 19.37-18.064 46.239-23.761 96.598-35.522t102.585-11.761q58.252 0 113.991 14.941 55.739 14.94 106.5 45.539v511.977q51-33 107-50.02 56-17.019 113-17.019 36 0 78.5 7.329t81.5 29.27V283.891q10.365 3.989 20.28 8.234 9.916 4.245 19.633 9.245 12.152 6.717 18.87 18.566 6.717 11.849 6.717 25.086v484.391q0 24.913-22.011 37.392-22.011 12.478-45.641.043-36.522-19.761-76.453-30.761-39.932-11-81.343-11-52.195 0-100.934 16.517-48.739 16.516-92.248 45.244-5.479 4.239-12.354 5.859-6.874 1.619-14.077 1.619Zm88.387-186.369q-8.956 6.956-18.891 2.853Q540 706.707 540 695.283v-313.84q0-2.195 4.478-11.356l225.696-226.652q7.956-7.957 18.891-3.777Q800 143.837 800 155.109v343.282q0 2.239-5.478 12.435L568.826 707.957ZM414.5 793.913V355.152q-32.804-18.282-76.248-26.924-43.443-8.641-78.252-8.641-47 0-87.5 9.761T100 354.163v441.663q35-17.239 75.5-26.739t85-9.5q43.318 0 81.996 9.017t72.004 25.309Zm0 0v-439 439Z"/></svg>