<svg xmlns="http://www.w3.org/2000/svg" width="48" height="48" viewBox="0 -960 960 960"><path d="M259.087-748.087v565.935-565.935ZM450.63-114.022H259.087q-27.698 0-48.034-20.265-20.336-20.266-20.336-47.865v-565.935h-.815q-13.859 0-23.554-9.821-9.696-9.82-9.696-24.244 0-13.674 9.886-23.87 9.887-10.196 24.179-10.196h152.218q0-14.673 9.82-24.489 9.821-9.815 24.245-9.815h187.761q14.424 0 24.244 9.955 9.821 9.955 9.821 24.349h152.218q14.424 0 24.244 9.872 9.821 9.871 9.821 24.369 0 14.499-9.821 24.194-9.82 9.696-24.244 9.696v191.478q-15.196-5.913-33.707-9.75-18.511-3.837-34.424-4.837v-176.891H259.087v565.935h156.761q4.202 13.538 14.655 33.975 10.454 20.438 20.127 34.155ZM388.583-665q-13.496 0-22.713 9.256-9.218 9.255-9.218 22.657v334.935q0 13.664 9.244 22.908Q375.14-266 388.804-266q0-79.016 15.837-116.943 15.837-37.927 16.076-38.166v-211.978q0-13.402-9.319-22.657Q402.079-665 388.583-665Zm133.46 137q12.718-8.717 30.872-16.705 18.154-7.987 33.433-13.313v-75.069q0-13.402-9.368-22.657Q567.613-665 554.045-665q-13.567 0-22.784 9.256-9.218 9.255-9.218 22.657V-528ZM668.464-76.609q-88.703 0-150.681-62.472-61.979-62.472-61.979-151.455 0-88.703 62.196-150.801 62.196-62.098 150.561-62.098 43.913 0 83.013 16.62 39.1 16.619 68.339 45.478 29.239 28.859 45.978 67.941t16.739 82.734q0 89.137-62.643 151.595-62.644 62.458-151.523 62.458ZM688.913-298.2v-91.56q0-8.478-6.41-14.837t-14.956-6.359q-8.547 0-15.025 6.359-6.479 6.359-6.479 14.837v95.283q0 6.282 2.359 12.234t7.837 11.396l62.249 62.249q6.512 6.512 14.99 6.512 8.479 0 14.837-6.512 6.359-6.513 6.479-14.957.119-8.444-6.359-14.931L688.913-298.2Z"/></svg>