<svg xmlns="http://www.w3.org/2000/svg" width="48" height="48" viewBox="0 -960 960 960"><path d="M345.04-154.02H222.15q-28.58 0-48.36-19.77-19.77-19.78-19.77-48.36v-122.89L66.8-432.26q-10.19-10.2-14.79-22.63-4.6-12.44-4.6-25.11t4.6-25.11q4.6-12.43 14.79-22.63l87.22-87.22v-122.89q0-28.58 19.77-48.48 19.78-19.89 48.36-19.89h122.89l87.22-86.98q10.2-10.19 23.13-14.79 12.94-4.6 25.61-4.6t25.11 5.1q12.43 5.1 22.63 15.29l86.22 85.98h122.89q28.58 0 48.48 19.89 19.89 19.9 19.89 48.48v122.89l86.98 87.22q10.19 10.2 14.79 22.63 4.6 12.44 4.6 25.11t-4.6 25.11q-4.6 12.43-14.79 22.63l-86.98 87.22v122.89q0 28.58-19.89 48.36-19.9 19.77-48.48 19.77H614.96L528.74-68.8q-10.2 9.43-22.63 14.41-12.44 4.98-25.11 4.98t-25.11-4.98q-12.43-4.98-22.63-14.41l-88.22-85.22ZM340-222.15h60V-400q26-6 43-27.5t17-49.5v-143q0-8-6-14t-14-6q-8 0-14 6t-6 14v131h-30v-131q0-8-6-14t-14-6q-8 0-14 6t-6 14v131h-30v-131q0-8-6-14t-14-6q-8 0-14 6t-6 14v143q0 28 17 49.5t43 27.5v177.85Zm220 0h60V-368q26-14 43-49.5t17-82.5q0-58-26.5-99T590-640q-38 0-64 41t-26 99q0 46 17 81.5t43 50.5v145.85Z"/></svg>