<svg xmlns="http://www.w3.org/2000/svg" width="48" height="48" viewBox="0 -960 960 960"><path d="M222-147.194q0 14.02-9.342 23.357-9.343 9.337-23.288 9.337H68.565q-14.424 0-24.244-9.821-9.821-9.82-9.821-24.244V-269.37q0-13.945 9.512-23.288Q53.525-302 67.545-302q14.02 0 23.238 9.342Q100-283.315 100-269.37V-180h89.37q13.945 0 23.288 9.393Q222-161.214 222-147.194ZM892.045-302q14.02 0 23.238 9.342 9.217 9.343 9.217 23.288v120.805q0 14.424-9.821 24.244-9.82 9.821-24.244 9.821H769.63q-13.945 0-23.288-9.512Q737-133.525 737-147.545q0-14.02 9.462-23.238Q755.924-180 769.87-180H859v-89.37q0-13.945 9.512-23.288Q878.025-302 892.045-302Zm-721.893 71q-6.717 0-11.935-5.217Q153-241.435 153-248.152v-464.935q0-6.717 5.217-11.815Q163.435-730 170.152-730h45.935q6.717 0 11.815 5.217Q233-719.565 233-712.848v464.935q0 6.717-5.098 11.815T216.087-231h-45.935ZM295-231q-9 0-15-6.238-6-6.237-6-14.554v-457.416q0-8.317 6-14.555Q286-730 295-730t15 6.237q6 6.238 6 14.555v457.416q0 8.317-6 14.554Q304-231 295-231Zm118.152 0q-6.717 0-11.935-5.217Q396-241.435 396-248.152v-464.935q0-6.717 5.217-11.815Q406.435-730 413.152-730h48.935q6.717 0 11.815 5.217Q479-719.565 479-712.848v464.935q0 6.717-5.098 11.815T462.087-231h-48.935Zm125 0q-6.717 0-11.935-5.217Q521-241.435 521-248.152v-464.935q0-6.717 5.217-11.815Q531.435-730 538.152-730h86.935q6.717 0 11.815 5.217Q642-719.565 642-712.848v464.935q0 6.717-5.098 11.815T625.087-231h-86.935ZM705-231q-9 0-15-6.238-6-6.237-6-14.554v-457.416q0-8.317 6-14.555Q696-730 705-730t15 6.237q6 6.238 6 14.555v457.416q0 8.317-6 14.554Q714-231 705-231Zm81 0q-7.6 0-13.3-5.7-5.7-5.7-5.7-13.3v-460.625q0-8.375 5.7-13.875T786-730q7.6 0 13.3 5.7 5.7 5.7 5.7 13.3v460.625q0 8.375-5.7 13.875T786-231ZM222-812.694q0 14.02-9.342 23.357Q203.315-780 189.37-780H100v89.37q0 13.945-9.393 23.288Q81.214-658 67.194-658t-23.357-9.462Q34.5-676.924 34.5-690.87v-120.565q0-14.424 9.82-24.244 9.821-9.821 24.245-9.821H189.37q13.945 0 23.288 9.393Q222-826.714 222-812.694Zm515-.351q0-14.02 9.462-23.238 9.462-9.217 23.408-9.217h120.565q14.424 0 24.244 9.821 9.821 9.82 9.821 24.244v120.805q0 13.945-9.393 23.288Q905.714-658 891.694-658t-23.357-9.462Q859-676.924 859-690.87V-780h-89.37q-13.945 0-23.288-9.512Q737-799.025 737-813.045Z"/></svg>