<svg xmlns="http://www.w3.org/2000/svg" width="48" height="48" viewBox="0 -960 960 960"><path d="M261.91-74.02q-27.6 0-47.86-20.27-20.27-20.26-20.27-47.86v-428.7q0-27.7 20.27-48.03 20.26-20.34 47.86-20.34h436.18q27.6 0 47.86 20.34 20.27 20.33 20.27 48.03v428.7q0 27.6-20.27 47.86-20.26 20.27-47.86 20.27H261.91Zm0-68.13h436.18v-428.7H261.91v428.7Zm208.61-50.33h19.84q9.07 0 15.55-6.69t6.48-16.02q0-8.92-6.45-15.4-6.46-6.48-15.46-6.48h-20.84q-9.07 0-15.55 6.45-6.48 6.44-6.48 15.43 0 8.99 6.75 15.85 6.76 6.86 16.16 6.86Zm-11.48-83.67h42.18q4.41 0 7.94-3.41 3.53-3.41 4.47-8.03 2.31-17.3 11.21-32.24 8.89-14.94 19.36-29.37 10.52-16.76 19.66-33.95 9.14-17.2 9.14-36.34 0-37.79-27.62-63.31-27.62-25.53-65.38-25.53-37.76 0-64.88 25.67Q388-457 388-419.83q0 19.17 8.52 36.64t19.28 33.99q9.32 14.45 18.79 29.38 9.47 14.94 11.78 32.23 1.66 4.62 5.09 8.03 3.44 3.41 7.58 3.41ZM480-357ZM263.17-708.63q-11.66 0-19.28-7.86-7.63-7.85-7.63-19.57t7.63-19.44q7.62-7.72 19.28-7.72h433.9q11.39 0 19.03 7.78 7.64 7.78 7.64 19.2 0 11.41-7.64 19.51-7.64 8.1-19.03 8.1h-433.9Zm42.24-123q-11.39 0-19.03-7.86-7.64-7.85-7.64-19.57t7.64-19.44q7.64-7.72 19.03-7.72h350.18q11.39 0 19.15 7.78 7.76 7.78 7.76 19.2 0 11.41-7.76 19.51-7.76 8.1-19.15 8.1H305.41Z"/></svg>