<svg xmlns="http://www.w3.org/2000/svg" width="48" height="48" viewBox="0 -960 960 960"><path d="M272.392-609.044q-31.066 0-52.925-21.877-21.858-21.878-21.858-52.956 0-30.797 21.819-52.775 21.819-21.979 52.815-21.979t52.974 21.899q21.979 21.899 21.979 52.815 0 30.917-21.869 52.895t-52.935 21.978ZM190.369-74.022q-18.943 0-33.7-12.097-14.756-12.098-14.756-30.055-28.098 0-47.995-20.013-19.896-20.014-19.896-48.117v-231.435q0-14.424 9.82-24.245 9.821-9.821 24.245-9.821h89.522v-25.881q0-36.64 26.076-62.597 26.076-25.956 62.89-25.956 20.002 0 38.344 7.717 18.342 7.717 32.299 23.152l51.76 57.742q6.761 7.784 14.261 14.184 7.5 6.4 15.249 11.639h299.36v-322.76q0-18.744-12.479-32.133-12.479-13.389-31.043-13.389-9.868 0-18.695 2.06t-15.588 8.701l-49.13 48.174q5.239 18.913.065 37.967-5.174 19.055-15.848 36.011L486.435-788.63q17.391-12.842 37.608-17.313 20.218-4.47 40.37 2.052l51.761-50.044q15.239-15.239 35.495-23.761 20.257-8.522 42.657-8.522 46.986 0 79.439 33.31 32.453 33.31 32.453 80.343v322.76h45.695q14.394 0 24.349 9.821 9.956 9.821 9.956 24.245v231.435q0 28.103-20.014 48.117-20.013 20.013-48.117 20.013 0 17.957-14.756 30.055-14.757 12.097-34.875 12.097H190.369Zm-48.217-110.522h675.696v-197.13H142.152v197.13Zm0 0h675.696-675.696Z"/></svg>