<svg xmlns="http://www.w3.org/2000/svg" width="48" height="48" viewBox="0 0 48 48"><path d="M10.65 23.2v3.95q-1 .65-1.5 1.35-.5.7-.5 1.5 0 .3.125.675.125.375.325.675l2.45.7h4.05q.3 0 .525.15.225.15.325.4l.1.35 2-.8.65-.1h7.5q.25 0 .425.075t.275.275l1.2 1.6 5.55-.8 2.05-2.9q.15-.15.3-.225.15-.075.4-.075h2.5v-.05q-.05-.85-.575-1.55-.525-.7-1.425-1.25V23.2q2.6 1.45 3.95 3.125t1.35 3.625V30l1.8 2.75q.1.15.125.35.025.2-.025.4l-1.75 5.25q-.1.25-.325.4-.225.15-.475.15h-5.8l.05.35q.1.3-.075.575-.175.275-.425.375l-4.25 1.7-.65.1H17.35q-.3 0-.5-.15t-.3-.4l-.3-.8-5.3 1.25q-.2.05-.4.025t-.35-.125l-6.55-4.75q-.2-.1-.275-.275Q3.3 37 3.3 36.75v-4.2q0-.25.1-.425t.35-.325L5.4 31q-.05-.3-.075-.525Q5.3 30.25 5.3 30q0-1.95 1.35-3.65t4-3.15Zm-3.1 13.15 1.9-1.9-2-1-1.05.5v1.6Zm3.75 2.7 3.9-.95-1.15-2.95h-.9l-3 2.95Zm7.65.25h6.25l1.4-2.8-1.05-1.35h-6.1l-1.75.75Zm9.85 0h1.85l2.15-.9-.35-1.8-2.35.35Zm7.15-3.1h4.5l.85-2.65-.3-.45h-2.95Zm-24.2-18.05q-1.1-1.6-1.775-3.35-.675-1.75-.675-3.65v-.825q0-.425.1-.825.1-.65.55-1.15.45-.5 1.1-.5.75 0 1.225.5.475.5.375 1.15-.05.4-.075.725-.025.325-.025.725 0 1.7.75 3.175.75 1.475 1.7 2.825 1.1 1.45 1.775 3.15.675 1.7.675 3.5 0 .25-.025.45t-.025.45q-.05.65-.475 1.15-.425.5-1.125.5t-1.225-.5q-.525-.5-.425-1.15.05-.25.05-.5v-.5q0-1.55-.775-2.825-.775-1.275-1.675-2.525Zm8.2 0q-1.1-1.6-1.775-3.35-.675-1.75-.675-3.65v-.825q0-.425.1-.825.1-.65.55-1.15.45-.5 1.1-.5.7 0 1.2.5t.4 1.15q-.05.4-.075.725-.025.325-.025.725 0 1.7.75 3.175.75 1.475 1.7 2.825 1.05 1.45 1.75 3.15t.7 3.5q0 .25-.025.45t-.025.45q-.05.65-.5 1.15-.45.5-1.1.5-.7 0-1.225-.5-.525-.5-.425-1.15.05-.25.05-.5v-.5q0-1.55-.775-2.825-.775-1.275-1.675-2.525Zm8.15 0q-1.1-1.6-1.775-3.35-.675-1.75-.675-3.65v-.825q0-.425.1-.825.1-.65.55-1.15.45-.5 1.1-.5.75 0 1.225.5.475.5.425 1.15-.05.4-.075.725-.025.325-.025.725 0 1.7.725 3.175Q30.4 15.6 31.4 16.95q1.05 1.45 1.75 3.15t.7 3.5q0 .25-.025.45t-.025.45q-.05.65-.5 1.15-.45.5-1.1.5-.75 0-1.275-.5-.525-.5-.425-1.15.05-.25.05-.5v-.5q0-1.55-.775-2.825Q29 19.4 28.1 18.15Z"/></svg>