<svg xmlns="http://www.w3.org/2000/svg" width="48" height="48" viewBox="0 0 48 48"><path d="M24 27.95q.7 0 1.175-.5.475-.5.475-1.15v-9q0-.7-.475-1.2T24 15.6q-.7 0-1.175.5-.475.5-.475 1.2v9q0 .65.475 1.15.475.5 1.175.5Zm0 7.65q.7 0 1.175-.5.475-.5.475-1.2t-.475-1.175Q24.7 32.25 24 32.25q-.65 0-1.15.475-.5.475-.5 1.225 0 .65.5 1.15.5.5 1.15.5Zm-8.65 8.8q-.75 0-1.225-.5-.475-.5-.475-1.2V8.5q0-.7.475-1.2t1.225-.5h4.45V5.3q0-.7.5-1.2t1.2-.5h5q.7 0 1.2.5t.5 1.2v1.5h4.45q.75 0 1.225.5.475.5.475 1.2v34.2q0 .7-.475 1.2t-1.225.5Zm1.7-3.4h13.9V10.2h-13.9Zm0 0h13.9Z"/></svg>