<svg xmlns="http://www.w3.org/2000/svg" width="48" height="48" viewBox="0 -960 960 960"><path d="M306.891-74.022q-14.913 0-24.609-9.695-9.695-9.696-9.695-24.37v-679.826q0-14.644 9.695-24.474 9.696-9.831 24.609-9.831h89.044v-29.695q0-14.644 9.695-24.474 9.696-9.831 24.37-9.831h100q14.674 0 24.37 9.831 9.695 9.83 9.695 24.474v29.695h89.283q14.674 0 24.37 9.831 9.695 9.83 9.695 24.474v376.456q-19.152 5.522-35.924 14.142-16.772 8.619-32.446 20.576v-377.109H340.957v611.696h206.065q5.077 19.319 13.466 35.972 8.389 16.652 21.121 32.158H306.891Zm34.066-68.13Zm413.521-14.63-60.13 59.369q-10.435 9.196-23.989 9.576-13.555.38-23.73-9.702-10.455-10.351-10.455-24.004t10.435-24.087l59.891-59.892-60.13-60.13q-10.435-10.196-10.316-23.87.12-13.674 10.555-24.108 10.195-10.196 23.869-10.196t23.87 10.196l60.13 60.13 60.131-60.13q10.255-10.236 23.899-10.097 13.644.14 23.819 10.315 10.217 10.216 9.836 23.89-.38 13.674-9.815 23.87l-59.13 60.13 59.13 60.131q9.435 10.195 9.815 23.821.381 13.627-9.815 23.918-10.323 10.196-23.934 9.815-13.61-.38-23.805-9.576l-60.131-59.369Z"/></svg>