<svg xmlns="http://www.w3.org/2000/svg" width="48" height="48" viewBox="0 -960 960 960"><path d="M659.522-199.043h-53.479q-10.587 0-15.489-8.696-4.902-8.696.816-17.652l93.195-148.196q3.478-5.478 9.696-3.859 6.217 1.62 6.217 8.277v87.973h53.479q10.587 0 15.489 8.816 4.902 8.815-.816 17.771l-93.195 149.196q-3.478 5.478-9.696 3.859-6.217-1.62-6.217-8.297v-89.192Zm-318.565 56.891Zm-34.066 68.13q-14.663 0-24.484-9.82-9.82-9.821-9.82-24.245v-679.826q0-14.394 9.82-24.349 9.821-9.956 24.484-9.956h89.044v-29.695q0-14.394 9.82-24.349 9.821-9.956 24.245-9.956h100q14.424 0 24.245 9.956 9.82 9.955 9.82 24.349v29.695h89.283q14.424 0 24.245 9.956 9.82 9.955 9.82 24.349v289.391q0 14.663-9.871 24.484-9.871 9.82-24.489 9.82t-24.314-9.82q-9.696-9.821-9.696-24.484v-255.326H340.957v611.696h161.347q14.394 0 24.349 9.871 9.956 9.871 9.956 24.37 0 14.498-9.956 24.194-9.955 9.695-24.349 9.695H306.891Z"/></svg>