<svg xmlns="http://www.w3.org/2000/svg" width="48" height="48" viewBox="0 -960 960 960"><path d="M306.891-74.022q-14.913 0-24.609-9.695-9.695-9.696-9.695-24.37v-679.826q0-14.674 9.695-24.489 9.696-9.816 24.609-9.816h89.044v-29.695q0-14.674 9.695-24.489 9.696-9.816 24.37-9.816h100q14.674 0 24.37 9.816 9.695 9.815 9.695 24.489v29.695h89.283q14.674 0 24.37 9.816 9.695 9.815 9.695 24.489v329.174q-1.913-.239-3.587-.359-1.674-.12-3.587-.12-90.869-.239-155.043 64.174Q461.022-330.63 461.022-239q0 49.913 20.456 92.467 20.457 42.555 55.131 72.511H306.891Zm34.066-487h278.086v-192.826H340.957v192.826Zm318.565 361.979h-53.479q-10.195 0-15.293-8.696-5.098-8.696.62-17.652l93.195-148.196q3.478-5.478 9.696-3.859 6.217 1.62 6.217 8.337v87.913h53.479q10.195 0 15.293 8.816 5.098 8.815-.62 17.771l-93.195 149.196q-3.478 5.478-9.696 3.859-6.217-1.62-6.217-8.337v-89.152Z"/></svg>