<svg xmlns="http://www.w3.org/2000/svg" width="48" height="48" viewBox="0 -960 960 960"><path d="M306.891-74.022q-14.663 0-24.484-9.82-9.82-9.821-9.82-24.245v-679.826q0-14.424 9.82-24.364 9.821-9.941 24.484-9.941h89.044v-29.695q0-14.424 9.82-24.364 9.821-9.941 24.245-9.941h100q14.424 0 24.245 9.941 9.82 9.94 9.82 24.364v29.695h89.283q14.424 0 24.245 9.941 9.82 9.94 9.82 24.364v305.826q0 9.161-7.002 15.791-7.002 6.63-16.346 7.6-40.152 3.283-75.424 19.907-35.271 16.624-62.612 43.94-30.29 30.501-47.649 70.034-17.358 39.532-17.358 85.815 0 35.239 10.88 66.859 10.88 31.619 29.641 57.858 8.957 12.913 2.5 26.587-6.456 13.674-21.13 13.674H306.891Zm34.066-559.826h278.086v-120H340.957v120Zm318.565 434.805h-53.479q-10.587 0-15.489-8.696-4.902-8.696.816-17.652l93.195-148.196q3.478-5.478 9.696-3.859 6.217 1.62 6.217 8.337v87.913h53.479q10.587 0 15.489 8.816 4.902 8.815-.816 17.771l-93.195 149.196q-3.478 5.478-9.696 3.859-6.217-1.62-6.217-8.337v-89.152Z"/></svg>