<svg xmlns="http://www.w3.org/2000/svg" width="48" height="48" viewBox="0 -960 960 960"><path d="M306.891-74.022q-14.663 0-24.484-9.82-9.82-9.821-9.82-24.245v-679.826q0-14.424 9.82-24.364 9.821-9.941 24.484-9.941h89.044v-29.695q0-14.424 9.82-24.364 9.821-9.941 24.245-9.941h100q14.424 0 24.245 9.941 9.82 9.94 9.82 24.364v29.695h89.283q14.424 0 24.245 9.941 9.82 9.94 9.82 24.364V-490q0 12.424-8.751 21.625-8.752 9.201-21.25 10.201-10.499 1-20.075 2.516-9.576 1.517-18.294 3.049v-301.239H340.957V-239h96.152q9.943 0 16.928 7.098 6.985 7.098 7.985 16.576 3 28.761 13.38 54.022t26.141 47.021q8.957 12.913 2.5 26.587-6.456 13.674-21.13 13.674H306.891Zm352.631-125.021h-53.479q-10.587 0-15.489-8.696-4.902-8.696.816-17.652l93.195-148.196q3.478-5.478 9.696-3.859 6.217 1.62 6.217 8.337v87.913h53.479q10.587 0 15.489 8.816 4.902 8.815-.816 17.771l-93.195 149.196q-3.478 5.478-9.696 3.859-6.217-1.62-6.217-8.337v-89.152Z"/></svg>