<svg xmlns="http://www.w3.org/2000/svg" width="48" height="48" viewBox="0 -960 960 960"><path d="M524.106-36.413q-84.768 0-158.94-32.284t-129.17-87.268q-54.998-54.984-87.291-129.137Q116.413-359.254 116.413-444q0-131.043 76.304-236.804 76.305-105.761 200.631-148.392 19.869-7.152 37.217 4.402 17.348 11.555 16.305 32.142-5.087 86.326 24.934 166.391 30.022 80.065 91.826 141.631 61.566 61.804 142.011 92.206 80.446 30.402 166.533 25.554 19.869-1.043 31.522 16.587 11.652 17.631 5.217 36.783-41.435 124.522-147.293 200.804-105.859 76.283-237.514 76.283Zm-.106-68.37q96.891 0 176.619-54.608Q780.348-214 830.109-298.413q-88.566-8.957-170.37-42.576-81.804-33.62-144.348-95.902-62.782-62.044-95.902-143.228-33.119-81.185-42.315-168.75-84.174 48-138.283 127.989-54.108 79.989-54.108 176.88 0 141.54 98.838 240.379Q382.46-104.783 524-104.783Zm-9.109-332.108Z"/></svg>