<svg xmlns="http://www.w3.org/2000/svg" width="48" height="48" viewBox="0 -960 960 960"><path d="M230-117.37q-14.118 0-23.374-9.241-9.256-9.242-9.256-23.339 0-14.096 9.256-23.388 9.256-9.292 23.374-9.292h175.37v-98.74h-15q-81.479-.956-137.24-57.653Q197.37-395.72 197.37-477q0-61.061 34.76-110.791 34.761-49.731 91.044-70.687-2 16.674 1.217 33.228 3.218 16.554 11.652 31.033-35.181 13.753-54.297 46.322T262.63-477q0 53.904 38.233 92.137T393-346.63h317q14.118 0 23.374 9.241 9.256 9.242 9.256 23.339 0 14.096-9.256 23.388-9.256 9.292-23.374 9.292H510.63v98.74H730q14.118 0 23.374 9.241 9.256 9.242 9.256 23.339 0 14.096-9.256 23.388-9.256 9.292-23.374 9.292H230Zm337.043-394.652-2-6-14.76 5q-12.856 5.479-24.483.12-11.626-5.359-16.865-18.554l-14.522-38.326q17.109-13.522 26.261-33.055 9.152-19.533 9.152-42.163 0-42.826-29.706-72.522-29.707-29.696-71.816-30.108l-10.282-28.848q-5.479-13.196.044-24.904 5.524-11.707 18.63-17.281l12.76-5-1-4q-5-13.641 1.098-26.881 6.098-13.239 24.163-19.674 13.908-5.239 27.049.381 13.142 5.619 18.43 19.619l2 5 12-4q11.717-4.239 23.674 1.024 11.956 5.263 17.195 17.172l94.153 244.5q5.239 13.196-.74 25.392-5.978 12.195-18.963 17.195l-13.732 5 2 5q5 14-1.718 26.859-6.717 12.859-24.304 19.054-13.239 5.24-25.859-.88-12.619-6.12-17.859-19.12ZM426-594.043q-21.598 0-36.277-14.68-14.68-14.679-14.68-36.277t14.68-36.397q14.679-14.799 36.277-14.799t36.397 14.849q14.799 14.849 14.799 36.347 0 21.598-14.849 36.277-14.849 14.68-36.347 14.68Z"/></svg>