<svg xmlns="http://www.w3.org/2000/svg" width="48" height="48" viewBox="0 -960 960 960"><path d="M457.043-774.717q-30.717 0-52.695-21.979-21.978-21.978-21.978-52.934 0-30.718 21.978-52.696 21.978-21.978 52.695-21.978 30.957 0 52.935 21.978 21.979 21.978 21.979 52.696 0 30.956-21.979 52.934-21.978 21.979-52.935 21.979Zm258.935 273.76q0 13.957-9.217 23.174-9.217 9.218-23.174 9.218h-44.326l218.891 376.5q3.718 6.195 1.478 14.13-2.239 7.935-8.434 11.652-6.435 3.718-14.49 1.24-8.054-2.479-11.532-8.674l-234.478-405.24q-41.283-9.76-84.707-39.065-43.424-29.304-66.663-63.869-11.283 32.087-17.304 69.554-6.022 37.467-4.261 69.467l96.761 136.522v216.826q0 13.957-9.218 23.174-9.217 9.218-23.174 9.218-13.956 0-23.174-9.218-9.217-9.217-9.217-23.174v-192.826l-78.782-86.63L360-220 257.043-82.804q-8.478 10.717-21.554 12.837-13.076 2.12-23.554-6.359-10.718-8.24-12.957-21.435-2.239-13.196 6.478-23.913l86.718-115.956-8.239-186.457q-2.239-51.717 5.38-110.196 7.62-58.478 23.859-102.956l-94.848 55.282v81q0 13.957-9.217 23.174-9.218 9.218-22.935 9.218-13.957 0-23.174-9.218-9.218-9.217-9.218-23.174v-99.239q0-9.195 4.359-17.032t12.315-12.555l142.435-82.456q20.348-11.913 38.381-17.87 18.032-5.956 34.706-5.956 24 0 42.62 11.619 18.619 11.62 28.337 33.62l28.391 59.956q19.478 41.805 75.75 69.663 56.272 27.859 122.511 27.859 13.957 0 23.174 9.218 9.217 9.217 9.217 23.173Z"/></svg>