<svg xmlns="http://www.w3.org/2000/svg" width="48" height="48" viewBox="0 96 960 960"><path d="M787.152 980.913 625.196 818.957 514.544 929.37q-9.756 9.787-18.341 14.111-8.585 4.323-17.29 4.323-13.622 0-21.985-8.324-8.363-8.325-8.363-22.306V651.109L277.957 821.957q-9.479 9.478-21.957 9.478-12.478 0-21.957-9.478-9.478-9.479-9.478-21.957 0-12.478 9.478-21.957l175-175.239L77.421 270.951Q68.24 262 68.24 250t9.24-21q9-9 20.88-9 11.88 0 21.119 9l709.636 709.871q9.038 9.042 9.038 21.042 0 12-9 21t-21 9q-12 0-21-9ZM511.435 842.652l67.608-67.609-67.608-67.608v135.217Zm25.761-279.695-44.153-45.153L608.087 404l-96.652-94.891v226.848l-62.87-62.631v-238.5q0-13.981 8.363-22.306 8.363-8.324 21.985-8.324 8.705 0 17.29 4.323 8.585 4.324 18.341 13.872L672.043 380.13q5.674 5.383 8.055 11.268 2.38 5.885 2.38 12.602 0 6.717-2.38 12.602-2.381 5.885-8.055 11.268L537.196 562.957Z"/></svg>