<svg xmlns="http://www.w3.org/2000/svg" width="48" height="48" viewBox="0 -960 960 960"><path d="M537.39-130.65q-2.98-4.65-1.74-11.26l37.81-262.79h-171.2q-21.25 0-30.51-18.65-9.27-18.65 3.4-35.8l271.09-369.61q4.48-5.48 9.19-6.48 4.72-1 10.08 1.12t8.34 6.77q2.98 4.65 1.98 11.26l-37.05 260.02h172.2q21.25 0 30.51 18.66 9.27 18.65-3.16 35.8L566.24-129.48q-4.48 5.72-9.7 6.72-5.21 1-10.69-1.12-5.48-2.12-8.46-6.77Zm-389.3-100.91q-14.43 0-24.25-9.88-9.82-9.87-9.82-24.37 0-14.49 9.82-24.19 9.82-9.7 24.25-9.7h262.82q16.92 0 25.37 10.52 8.46 10.51 8.46 23.37 0 12.85-8.46 23.55-8.45 10.7-25.61 10.7H148.09Zm-40-214.14q-14.43 0-24.25-9.87t-9.82-24.37q0-14.49 9.82-24.31 9.82-9.82 24.25-9.82H218.7q17.15 0 25.6 10.64 8.46 10.63 8.46 23.49 0 12.61-8.46 23.43-8.45 10.81-25.6 10.81H108.09Zm80-215.37q-14.43 0-24.25-9.87t-9.82-24.37q0-14.49 9.82-24.19 9.82-9.7 24.25-9.7h185.82q17.16 0 25.73 10.52 8.58 10.51 8.58 23.37 0 12.85-8.83 23.55-8.82 10.69-26.48 10.69H188.09Z"/></svg>