<svg xmlns="http://www.w3.org/2000/svg" width="48" height="48" viewBox="0 0 48 48"><path d="M7.15 40.3q-1.35 0-2.375-1.025T3.75 36.9V11q0-1.4 1.025-2.425T7.15 7.55H19.5q.7 0 1.35.275.65.275 1.1.775l2.1 2.1h16.9q1.4 0 2.4 1t1 2.4v7.65q0 .7-.5 1.2t-1.2.5q-.75 0-1.225-.5-.475-.5-.475-1.2V14.1H7.15v22.8H24.2q.7 0 1.2.5t.5 1.2q0 .75-.5 1.225-.5.475-1.2.475ZM37.5 30.1l1.6 1.5-8 8v2.5h2.5l7.95-8 1.6 1.6-7.65 7.6q-.45.45-1.1.725-.65.275-1.35.275H30.6q-.75 0-1.225-.5-.475-.5-.475-1.2v-2.45q0-.75.275-1.375T29.9 37.7Zm5.65 5.6-5.65-5.6 3.1-3.1q.5-.5 1.175-.5T43 27l3.2 3.2q.5.55.5 1.225t-.5 1.175Zm-36-21.6v23.35-.55Z"/></svg>