<svg xmlns="http://www.w3.org/2000/svg" width="48" height="48" viewBox="0 -960 960 960"><path d="M395.93-193.5 202.76-97.65q-16.91 8.95-32.83-.99-15.91-9.95-15.91-29.84v-522.95q0-28.1 19.89-48.12 19.89-20.02 48.24-20.02h347.57q28.1 0 48.11 20.02 20.02 20.02 20.02 48.12v522.95q0 19.89-15.92 29.84-15.91 9.94-33.06.99L395.93-193.5Zm-173.78 8.13 143.44-70.26q14.12-6.72 30.09-6.72 15.96 0 30.36 6.72l143.68 70.26v-466.06H222.15v466.06Zm549.57-50.52q-14.48 0-24.18-9.82-9.69-9.82-9.69-24.25v-548.89H313.04q-14.66 0-24.48-9.87t-9.82-24.35q0-14.48 9.82-24.31 9.82-9.84 24.48-9.84h424.81q28.45 0 48.41 19.96 19.96 19.96 19.96 48.41v548.89q0 14.43-10.01 24.25-10.02 9.82-24.49 9.82ZM222.15-651.43h347.57-347.57Z"/></svg>