<svg xmlns="http://www.w3.org/2000/svg" width="48" height="48" viewBox="0 -960 960 960"><path d="M641.913-695.478q-14.13 0-23.5-9.337t-9.37-23.415q0-14.079 9.37-23.414 9.37-9.334 23.5-9.334h180q14.13 0 23.5 9.334 9.37 9.335 9.37 23.414 0 14.078-9.37 23.415t-23.5 9.337h-180ZM480-233.304l-190.739 81.608q-34.065 14.674-64.652-5.742-30.587-20.417-30.587-56.91v-568.5q0-28.697 19.765-48.533 19.766-19.837 48.365-19.837h334.565q-23.239 26.24-35.456 56.882-12.218 30.643-12.218 65.988 0 67.145 42.642 117.431 42.641 50.287 106.163 62.482 18.674 3.196 33.946 3.196 15.271 0 34.424-3.196v334.087q0 36.493-30.707 56.91-30.707 20.416-64.772 5.742L480-233.304Z"/></svg>