<svg xmlns="http://www.w3.org/2000/svg" width="48" height="48" viewBox="0 96 960 960"><path d="M641.913 360.522q-14.028 0-23.449-9.337-9.421-9.337-9.421-23.415 0-14.079 9.421-23.414 9.421-9.334 23.449-9.334h180q14.13 0 23.5 9.334 9.37 9.335 9.37 23.414 0 14.078-9.37 23.415t-23.5 9.337h-180ZM241.761 924.696q-17.152 7.956-32.446-2.348-15.293-10.305-15.293-28.478V273.152q0-27.697 20.265-48.033 20.266-20.337 47.865-20.337h334.565q-23.478 26.31-35.576 56.731-12.098 30.422-12.098 66.139 0 67.145 42.642 117.431 42.641 50.287 106.163 62.482 18.674 3.196 33.946 3.196 15.271 0 34.424-3.196V893.87q0 18.173-15.414 28.478-15.413 10.304-32.326 2.348L480 822.696l-238.239 102Z"/></svg>