<svg xmlns="http://www.w3.org/2000/svg" width="48" height="48" viewBox="0 -960 960 960"><path d="m480-233.304-190.739 81.608q-34.065 14.674-64.652-5.516-30.587-20.191-30.587-57.136v-568.5q0-27.697 20.265-48.033 20.266-20.337 47.865-20.337h252.826q14.424 0 24.245 10.012 9.82 10.012 9.82 24.489 0 14.478-9.82 24.174-9.821 9.695-24.245 9.695H262.152v568.5L480-306.191l217.848 91.843v-296.826q0-14.394 9.871-24.349t24.349-9.955q14.477 0 24.313 9.955 9.837 9.955 9.837 24.349v296.826q0 36.945-30.707 57.136-30.707 20.19-64.772 5.516L480-233.304Zm0-549.544H262.152h286.891H480Zm219.043 87.37h-57.13q-13.97 0-23.42-9.513-9.45-9.512-9.45-23.415 0-13.903 9.462-23.238 9.462-9.334 23.408-9.334h57.13v-57.37q0-13.868 9.513-23.249 9.512-9.381 23.486-9.381t23.358 9.381q9.383 9.381 9.383 23.249v57.37h57.13q13.97 0 23.42 9.465 9.45 9.466 9.45 23.458 0 13.903-9.45 23.24-9.45 9.337-23.42 9.337h-57.13v57.369q0 14.036-9.514 23.333-9.514 9.298-23.577 9.298-13.975 0-23.312-9.462-9.337-9.462-9.337-23.408v-57.13Z"/></svg>