<svg xmlns="http://www.w3.org/2000/svg" width="48" height="48" viewBox="0 -960 960 960"><path d="M439.065-276.152h290.717q14.674 0 24.37-9.696 9.696-9.696 9.696-24.37v-189.869q0-14.674-9.696-24.37-9.696-9.695-24.37-9.695H439.065q-14.674 0-24.369 9.695-9.696 9.696-9.696 24.37v189.869q0 14.674 9.696 24.37 9.695 9.696 24.369 9.696Zm-296.913 122.13q-27.587 0-47.859-20.271-20.271-20.272-20.271-47.859v-515.696q0-27.587 20.271-47.978 20.272-20.392 47.859-20.392h675.696q27.587 0 47.978 20.392 20.392 20.391 20.392 47.978v515.696q0 27.587-20.392 47.859-20.391 20.271-47.978 20.271H142.152Z"/></svg>