<svg xmlns="http://www.w3.org/2000/svg" width="48" height="48" viewBox="0 -960 960 960"><path d="M765.5-481q0 81.435-30.217 153.75-30.218 72.315-82.294 127.272-52.076 54.956-121.75 88.315-69.674 33.359-149.348 36.641-14.913 1-25.609-8.695-10.695-9.696-10.695-25.37 0-8.956 3.978-15.793t10.696-11.316q78.478-59.761 116.195-154.021Q514.174-384.478 514.174-481q0-96.522-37.718-190.783-37.717-94.26-116.195-154.021-6.718-4.479-10.696-11.316-3.978-6.837-3.978-15.793 0-15.674 10.695-25.37 10.696-9.695 25.609-8.935 79.674 3.522 149.348 36.881t121.75 88.315q52.076 54.957 82.294 127.272Q765.5-562.435 765.5-481Z"/></svg>