<svg xmlns="http://www.w3.org/2000/svg" width="48" height="48" viewBox="0 -960 960 960"><path d="M391.43-492.48v-140.59q0-13.47-8.85-22.45-8.86-8.98-22.58-8.98-13.72 0-22.58 8.98-8.85 8.98-8.85 22.45v151.87q0 6.96 2.35 12.68 2.36 5.72 7.84 11.19l107.22 107.22q9.48 9.48 21.95 9.48 12.48 0 22.08-9.6 9.6-9.6 9.6-21.95 0-12.36-9.72-22.08l-98.46-98.22ZM891.87-481q0-74.7-36.75-138.61-36.75-63.91-99.21-102.95-11.71-8.68-15.59-21.85-3.89-13.18 2.31-26.61 6.2-13.2 20.63-17.44 14.44-4.24 26.39 3.96 77.65 49.24 124 129.18Q960-575.37 960-481q0 94.61-46.35 174.93-46.35 80.33-124 129.57-11.95 8.2-26.27 3.96-14.31-4.24-20.51-17.68-6.2-13.19-2.44-26.87 3.77-13.67 15.48-22.58 62.46-38.81 99.21-102.34 36.75-63.53 36.75-138.99ZM219.5-149.5q-65.5-28.5-114-77t-77-114Q0-406 0-481t28.5-140.5q28.5-65.5 77-114t114-77Q285-841 360-841t140.5 28.5q65.5 28.5 114 77t77 114Q720-556 720-481t-28.5 140.5q-28.5 65.5-77 114t-114 77Q435-121 360-121t-140.5-28.5Z"/></svg>