<svg xmlns="http://www.w3.org/2000/svg" width="48" height="48" viewBox="0 96 960 960"><path d="M225.456 861.978q-13.717 0-22.576-8.858-8.858-8.859-8.858-22.47V321.217q0-13.514 8.858-22.474 8.859-8.961 22.457-8.961t22.576 8.961q8.978 8.96 8.978 22.474V830.65q0 13.611-8.96 22.47-8.96 8.858-22.475 8.858Zm-159.521 0q-13.718 0-22.576-8.858-8.86-8.859-8.86-22.47V321.217q0-13.514 8.86-22.474 8.858-8.961 22.456-8.961 13.598 0 22.576 8.961 8.978 8.96 8.978 22.474V830.65q0 13.611-8.96 22.47-8.96 8.858-22.474 8.858Zm355.739 0q-26.698 0-47.534-20.765-20.836-20.766-20.836-47.365V358.152q0-26.697 20.836-47.533 20.836-20.837 47.534-20.837H857.37q26.599 0 47.364 20.837 20.766 20.836 20.766 47.533v435.696q0 26.599-20.766 47.365-20.765 20.765-47.364 20.765H421.674ZM509.043 699h264.98q8.738 0 12.738-8t-1-15.761l-69.522-92.282q-5.239-6.24-12.837-6.24t-12.837 6.24L619.522 676l-48.044-65.043q-5.239-6.24-12.956-6.24-7.718 0-12.718 6.24l-48.761 64.282q-4.76 7.836-.845 15.798Q500.114 699 509.043 699Z"/></svg>