<svg xmlns="http://www.w3.org/2000/svg" width="48" height="48" viewBox="0 -960 960 960"><path d="M698.218-667.37q8.478 0 13.576-5.478 5.097-5.478 5.097-14.196v-104.413q0-8.717-5.597-13.815-5.598-5.098-14.076-5.098-8.718 0-13.816 5.598-5.098 5.598-5.098 14.315v104.413q0 8.718 5.598 13.696t14.316 4.978Zm-2.813 163.152q-79.427 0-135.307-55.891-55.88-55.891-55.88-135.598 0-78.511 56-134.511t135-56q79.76 0 135.38 55.62 55.62 55.62 55.62 135.38 0 80-55.813 135.5t-135 55.5Zm2.313-73.608q10.217 0 17.195-6.359t6.978-17.315q0-10.718-7.078-17.315-7.078-6.598-16.595-6.598-11.718 1-17.816 7.598-6.098 6.597-6.098 16.815 0 10.456 6.479 16.815 6.478 6.359 16.935 6.359ZM247.255-272.957q22.702 0 38.821-16.058 16.12-16.059 16.12-39 0-22.702-16.179-38.822-16.178-16.12-38.88-16.12-22.941 0-38.941 16.179-16 16.178-16 38.88 0 22.941 16.059 38.941 16.058 16 39 16Zm305.847 0q22.702 0 38.822-16.058 16.119-16.059 16.119-39 0-22.702-16.178-38.822t-38.88-16.12q-22.942 0-38.942 16.179-16 16.178-16 38.88 0 22.941 16.059 38.941 16.059 16 39 16ZM176.311-74.022q-19.376 0-32.833-13.498-13.456-13.498-13.456-32.85v-68.956q-26.24-15-41.12-44.38-14.88-29.381-14.88-65.62v-400.826q0-73.392 70.76-104.729 70.761-31.337 258.674-37.054 23.109-1.478 35.761 18.152 12.653 19.631 4.413 42.218-7.282 20.565-11.304 42.271-4.022 21.707-4.022 44.033.24 12.454-8.11 21.977t-20.955 9.523H142.152v173.478h361.261q8.911 0 17.39 3.24 8.48 3.239 16.436 8.478 14.674 10.722 31.261 19.187 16.587 8.465 33.631 14.508 22.804 8.044 46.012 12.685 23.208 4.641 47.248 3.881 12.553.239 21.69 8.17t9.137 20.656v100.152q0 36.239-15 65.62-15 29.38-41 44.38v69.196q0 19.471-13.456 32.79-13.456 13.318-32.951 13.318-19.376 0-32.833-13.498-13.456-13.498-13.456-32.85v-35.652H222.478v35.892q0 19.471-13.336 32.79-13.336 13.318-32.831 13.318Z"/></svg>