<svg xmlns="http://www.w3.org/2000/svg" width="48" height="48" viewBox="0 96 960 960"><path d="M190 938.63q-14.118 0-23.374-9.256-9.256-9.256-9.256-23.374v-47.37h-1q-17 0-28-11t-11-28V706q0-14.118 9.256-23.374 9.256-9.256 23.374-9.256h47.37V366q0-65.241 47.745-108.936 47.746-43.694 114.794-43.694 64.048 0 108.385 44.272Q512.63 301.915 512.63 366v420q0 36.76 25.315 62.065 25.314 25.305 62.087 25.305 39.772 0 68.555-24.728Q697.37 823.915 697.37 786V478.63H650q-14.118 0-23.374-9.256-9.256-9.256-9.256-23.374V332.252q0-16.882 11-27.882t28-11h1V246q0-14.118 9.256-23.374 9.256-9.256 23.374-9.256h80q14.118 0 23.374 9.256 9.256 9.256 9.256 23.374v47.37h1q17 0 28 11t11 28V446q0 14.118-9.256 23.374-9.256 9.256-23.374 9.256h-47.37V786q0 65.24-47.745 108.935-47.746 43.695-114.794 43.695-64.048 0-108.385-44.272Q447.37 850.085 447.37 786V366q0-36.759-25.315-62.064-25.314-25.306-62.087-25.306-39.772 0-68.555 24.728Q262.63 328.085 262.63 366v307.37H310q14.118 0 23.374 9.256 9.256 9.256 9.256 23.374v113.748q0 16.882-11 27.882t-28 11h-1V906q0 14.118-9.256 23.374-9.256 9.256-23.374 9.256h-80Z"/></svg>