<svg xmlns="http://www.w3.org/2000/svg" width="48" height="48" viewBox="0 -960 960 960"><path d="M504.43-658.29q9.64 9.78 9.64 24.29v486.15q0 14.51-9.82 24.17-9.81 9.66-24.37 9.66-14.55 0-24.25-9.82t-9.7-24.25V-634q0-14.51 9.88-24.29 9.87-9.78 24.42-9.78 14.56 0 24.2 9.78ZM337.47-534.81q9.64 9.78 9.64 24.29v237.95q0 14.51-9.81 24.17-9.82 9.66-24.37 9.66-14.56 0-24.26-9.82-9.69-9.82-9.69-24.24v-237.72q0-14.51 9.87-24.29t24.43-9.78q14.55 0 24.19 9.78Zm332.8 0q9.51 9.78 9.51 24.29v237.95q0 14.51-9.69 24.17-9.69 9.66-24.25 9.66t-24.25-9.82q-9.7-9.82-9.7-24.24v-237.72q0-14.51 9.87-24.29t24.43-9.78q14.56 0 24.08 9.78ZM480-778.09q-49.28 0-91.22 24.17-41.93 24.18-67.39 66.64-32.96 55.19-87.53 85.79-54.58 30.6-119.01 30.6h-7q-14.51 0-24.17-9.87-9.66-9.87-9.66-24.43t9.82-24.08q9.82-9.51 24.25-9.51h6.83q46.25 0 85.63-22.14 39.38-22.15 61.91-61.43 34.94-58.2 92.77-91.03 57.82-32.84 124.89-32.84 67.08 0 124.79 32.84 57.71 32.83 91.63 91.03 23.47 39.36 62.93 61.46 39.47 22.11 85.44 22.11h7.24q14.51 0 24.29 9.69t9.78 24.25q0 14.56-9.78 24.25-9.78 9.7-24.29 9.7h-7.21q-64.46 0-119.04-30.6-54.57-30.6-87.29-85.79-25.48-42.46-67.73-66.64-42.24-24.17-90.88-24.17ZM123.72-367.35q-9.7-9.87-9.7-24.37 0-14.5 9.87-24.19 9.87-9.7 24.37-9.7 14.5 0 24.2 9.87 9.69 9.87 9.69 24.37 0 14.5-9.87 24.2-9.87 9.69-24.37 9.69-14.5 0-24.19-9.87Zm663.58 0q-9.69-9.87-9.69-24.37 0-14.5 9.87-24.19 9.87-9.7 24.49-9.7t24.31 9.87q9.7 9.87 9.7 24.37 0 14.5-9.87 24.2-9.87 9.69-24.49 9.69t-24.32-9.87Z"/></svg>