<svg xmlns="http://www.w3.org/2000/svg" width="48" height="48" viewBox="0 -960 960 960"><path d="M695.935-191.152H610q-14.424 0-24.245-9.871-9.82-9.871-9.82-24.489t9.82-24.314q9.821-9.696 24.245-9.696h85.935v-85.934q0-14.424 9.871-24.245 9.871-9.821 24.369-9.821 14.499 0 24.195 9.821 9.695 9.821 9.695 24.245v85.934H850q14.424 0 24.245 9.871 9.82 9.872 9.82 24.49 0 14.618-9.82 24.313-9.821 9.696-24.245 9.696h-85.935v85.696q0 14.663-9.871 24.483-9.871 9.821-24.369 9.821-14.499 0-24.195-9.82-9.695-9.821-9.695-24.484v-85.696Zm-513.783 37.13q-27.599 0-47.865-20.265-20.265-20.266-20.265-47.865v-535.696q0-27.697 20.265-48.033 20.266-20.337 47.865-20.337H245v-25.847q0-14.354 9.964-24.253 9.963-9.9 24.234-9.9 14.697 0 24.782 9.9 10.085 9.899 10.085 24.253v25.847h251.87v-25.847q0-14.354 9.963-24.253 9.964-9.9 24.235-9.9 14.696 0 24.782 9.9Q635-866.419 635-852.065v25.847h62.848q27.697 0 48.033 20.337 20.337 20.336 20.337 48.033v262.783q0 14.663-10.012 24.483-10.012 9.821-24.489 9.821-14.478 0-24.174-9.821-9.695-9.82-9.695-24.483V-570H182.152v347.848h279q14.394 0 24.349 9.871t9.955 24.37q0 14.498-9.955 24.194-9.955 9.695-24.349 9.695h-279Zm0-475.978h515.696v-127.848H182.152V-630Zm0 0v-127.848V-630Z"/></svg>