<svg xmlns="http://www.w3.org/2000/svg" width="48" height="48" viewBox="0 96 960 960"><path d="M350 782h178q14.45 0 24.225-9.775Q562 762.45 562 748v-54l56.891 29.087q8.957 4.717 17.033-.315Q644 717.739 644 708.174v-95.348q0-9.565-8.076-14.598-8.076-5.032-17.033-.554L562 627v-54q0-14.45-9.775-24.225Q542.45 539 528 539H350q-14.025 0-23.513 9.775Q317 558.55 317 573v175q0 14.45 9.487 24.225Q335.975 782 350 782ZM222.152 941.978q-28.098 0-48.114-20.016t-20.016-48.114V486.957q0-16.164 7.212-30.587 7.212-14.424 20.136-23.87l257.608-193.565q17.832-13.674 40.862-13.674t41.182 13.674L778.63 432.5q12.924 9.446 20.256 23.87 7.332 14.423 7.332 30.587v386.891q0 28.098-20.136 48.114t-48.234 20.016H222.152Z"/></svg>