<svg xmlns="http://www.w3.org/2000/svg" width="48" height="48" viewBox="0 -960 960 960"><path d="M194.022-822.63q0-27.698 20.265-48.034Q234.553-891 262.152-891h435.696q27.697 0 48.033 20.336 20.337 20.336 20.337 48.034v513.695q0 14.663-10.012 24.484-10.012 9.821-24.489 9.821-14.478 0-24.174-9.821-9.695-9.821-9.695-24.484V-822.63H262.152v513.695q0 14.663-9.871 24.484-9.871 9.821-24.37 9.821-14.498 0-24.194-9.821-9.695-9.821-9.695-24.484V-822.63Zm286.125 244.543q25.57 0 43.429-18.015 17.859-18.014 17.859-43.597 0-25.301-18.015-43.279-18.015-17.979-43.597-17.979t-43.42 18.156q-17.838 18.155-17.838 43.576t18.006 43.279q18.006 17.859 43.576 17.859Zm-73.038 425.739H225.217q-13.258 0-22.227-9.08-8.968-9.081-8.968-22.505 0-13.322 8.935-22.183 8.936-8.862 22.602-8.862h183.55l-35.848-35.848q-9.479-9.478-9.479-21.956 0-12.479 9.718-21.957 9.478-9.239 22.337-9.239t22.337 9.239l87.087 85.848q10.195 10.522 10.195 24.261 0 13.739-10.195 23.956l-87.087 87.087q-9.478 9.478-21.837 8.978T374.5-74.587q-9.718-9.659-9.718-22.666 0-13.008 9.718-22.486l32.609-32.609Zm187.435 0q-13.259 0-22.227-9.08-8.969-9.081-8.969-22.505 0-13.322 8.936-22.183 8.936-8.862 22.499-8.862h139.88q13.411 0 22.483 9.013 9.072 9.013 9.072 22.337t-9.072 22.302q-9.072 8.978-22.483 8.978H594.544ZM480-639.522Z"/></svg>