<svg xmlns="http://www.w3.org/2000/svg" width="48" height="48" viewBox="0 -960 960 960"><path d="M145.022-72.826q-28.098 0-48.114-20.016Q76.89-112.86 76.89-141.196v-634.26q0-28.098 20.017-48.234 20.016-20.136 48.114-20.136h57.608V-885.5q0-17 11.62-28.5t28.38-11.5h160q17 0 28.5 11.5t11.5 28.5v41.674h57.848q27.142 0 46.441 19.179 19.299 19.18 19.299 46.321v20h248.76q28.337 0 48.354 20.016 20.016 20.017 20.016 48.115v463.499q0 28.337-20.016 48.354-20.017 20.016-48.354 20.016h-248.76v20q0 26.902-19.299 46.201-19.299 19.3-46.441 19.3H145.022Zm254.761-211h25.934q6.718 0 11.816-5.098 5.097-5.098 5.097-12.054v-25.935q0-6.717-5.097-11.815-5.098-5.098-12.055-5.098h-25.695q-6.957 0-12.055 5.217-5.098 5.218-5.098 11.935v25.935q0 6.717 5.218 11.815 5.217 5.098 11.935 5.098Zm0-289h25.934q6.718 0 11.816-5.217 5.097-5.218 5.097-11.935v-25.935q0-6.717-5.097-11.815-5.098-5.098-12.055-5.098h-25.695q-6.957 0-12.055 5.217-5.098 5.218-5.098 11.935v25.935q0 6.717 5.218 11.815 5.217 5.098 11.935 5.098Zm157.369 289h25.935q6.717 0 11.815-5.098T600-300.978v-25.935q0-6.717-5.217-11.815-5.218-5.098-11.935-5.098h-25.935q-6.717 0-11.815 5.217Q540-333.391 540-326.674v25.935q0 6.717 5.217 11.815 5.218 5.098 11.935 5.098Zm0-289h25.935q6.717 0 11.815-5.217Q600-583.261 600-589.978v-25.935q0-6.717-5.217-11.815-5.218-5.098-11.935-5.098h-25.935q-6.717 0-11.815 5.217Q540-622.391 540-615.674v25.935q0 6.717 5.217 11.815 5.218 5.098 11.935 5.098Zm157.37 289h25.934q6.718 0 11.816-5.098 5.098-5.098 5.098-12.054v-25.935q0-6.717-5.218-11.815-5.217-5.098-11.935-5.098h-25.934q-6.718 0-11.816 5.217-5.097 5.218-5.097 11.935v25.935q0 6.717 5.097 11.815 5.098 5.098 12.055 5.098Zm0-289h25.934q6.718 0 11.816-5.217 5.098-5.218 5.098-11.935v-25.935q0-6.717-5.218-11.815-5.217-5.098-11.935-5.098h-25.934q-6.718 0-11.816 5.217-5.097 5.218-5.097 11.935v25.935q0 6.717 5.097 11.815 5.098 5.098 12.055 5.098Z"/></svg>