<svg xmlns="http://www.w3.org/2000/svg" width="48" height="48" viewBox="0 -960 960 960"><path d="M315.63-291.37q-26.956 0-44.793-17.836Q253-327.043 253-354v-246.5q0-26.956 17.837-44.913 17.837-17.957 44.793-17.957H358l20.043-19.804q5.24-5.478 10.957-7.837 5.717-2.359 12.674-2.359h159.652q6.957 0 12.674 2.359t11.196 7.837L605-663.37h42.37q26.956 0 44.793 17.957T710-600.5V-354q0 26.957-17.837 44.794-17.837 17.836-44.793 17.836H315.63ZM481-417.565q25.283 0 41.924-16.641 16.641-16.642 16.641-42.164 0-25.282-16.641-41.923-16.641-16.642-41.924-16.642-25.522 0-42.043 16.642-16.522 16.641-16.522 41.923 0 25.522 16.522 42.164 16.521 16.641 42.043 16.641ZM480.522 0Q304.478 0 171.576-111.043 38.674-222.087 5.717-391.891q-2.478-14.957 4.86-27.794 7.336-12.837 22.293-15.076 13.956-2 24.413 6.478 10.456 8.479 12.934 22.435 23 136.978 133.294 233.967 110.293 96.99 249.032 106.424l-50.217-50.456q-9.478-9.239-8.978-22.217.5-12.979 9.978-22.457 9.239-9.478 22.337-9.598 13.098-.119 22.576 9.359L577.63-30.435q5 5.24 3.5 12.598-1.5 7.359-8.739 9.359-22.717 5-46.434 6.739Q502.239 0 480.522 0Zm.956-960q176.044 0 308.446 111.663 132.402 111.663 164.359 280.989 2.478 15.196-4.359 27.533-6.837 12.337-21.794 14.337-13.195 2.239-24.032-6.739-10.837-8.979-13.076-21.935-23.24-136.978-133.413-233.967-110.174-96.99-249.152-106.424l50.456 50.217q9.239 9.478 9.239 22.456 0 12.979-9.239 22.457-9.478 9.478-22.576 9.598-13.098.119-22.576-9.359L383.609-929.565q-5.239-5.239-3.239-12.598 2-7.359 9.239-9.359 22.717-5 46.054-6.739Q459-960 481.478-960Z"/></svg>