<svg xmlns="http://www.w3.org/2000/svg" width="48" height="48" viewBox="0 96 960 960"><path d="M350 782h178q14.45 0 24.225-9.775Q562 762.45 562 748v-54l56.891 29.087q8.957 4.717 17.033-.295Q644 717.781 644 708.174v-95.348q0-9.607-8.076-14.618-8.076-5.012-17.033-.534L562 627v-54q0-14.45-9.775-24.225Q542.45 539 528 539H350q-14.025 0-23.513 9.775Q317 558.55 317 573v175q0 14.45 9.487 24.225Q335.975 782 350 782Zm-195.978 91.848V486.957q0-16.137 7.212-30.574 7.212-14.437 20.136-23.883l257.608-193.565q17.832-13.674 40.862-13.674t41.182 13.674L778.63 432.5q12.902 9.531 20.245 23.941 7.343 14.41 7.343 30.516v386.891q0 28.104-20.084 48.117-20.084 20.013-48.286 20.013H222.152q-28.104 0-48.117-20.013-20.013-20.013-20.013-48.117Zm68.13 0h515.696V482.957L480 295.63 222.152 483.036v390.812ZM480 584.239Z"/></svg>