<svg xmlns="http://www.w3.org/2000/svg" width="48" height="48" viewBox="0 -960 960 960"><path d="M222.152-114.022q-28.599 0-48.365-19.765-19.765-19.766-19.765-48.365v-386.891q0-15.862 7.258-30.528 7.259-14.666 19.85-23.929l257.848-193.565Q457.13-830.739 480-830.739q22.87 0 41.022 13.674L778.87-623.5q12.703 9.263 20.026 23.929 7.322 14.666 7.322 30.528v60q1.673 13.239-7.066 20.543-8.739 7.304-20.782 7.304H516.218q-26.944 0-45.733 18.86-18.789 18.859-18.789 45.662v170q0 26.704 18.789 45.613t45.667 18.909h255.761q14.644 0 24.474 9.695 9.831 9.696 9.831 24.37 0 14.674-9.831 24.37-9.83 9.695-24.474 9.695H222.152Zm294.066-97.652q-14.24 0-24.62-10.38-10.38-10.381-10.38-24.62v-170q0-14 10.38-24.5t24.62-10.5h175q14 0 24.5 10.5t10.5 24.5v55L781.109-393q8.956-5.478 17.032-.51 8.077 4.967 8.077 15.184v93.304q0 10.217-8.077 15.184-8.076 4.968-17.032-.51l-54.891-31.326v55q0 14.239-10.5 24.62-10.5 10.38-24.5 10.38h-175Z"/></svg>