<svg xmlns="http://www.w3.org/2000/svg" width="48" height="48" viewBox="0 96 960 960"><path d="M336.123 719.988q9.73 9.686 22.521 9.686t22.508-9.717L480 621.109l100.087 99.848q8.959 8.717 21.556 8.717 12.596 0 22.345-9.797 9.686-9.73 9.686-22.521t-9.717-22.508L525.109 576l99.848-100.087q8.717-8.959 8.717-21.556 0-12.596-9.797-22.345-9.73-9.686-22.401-9.686-12.672 0-22.389 9.717L480 530.891l-100.087-99.848q-8.959-8.717-21.556-8.717-12.596 0-22.345 9.797-9.686 9.73-9.686 22.401 0 12.672 9.717 22.389L434.891 576l-99.848 100.087q-8.717 8.959-8.717 21.556 0 12.596 9.797 22.345Zm-193.971 181.99q-27.599 0-47.865-20.265-20.265-20.266-20.265-47.865V318.152q0-27.697 20.265-48.033 20.266-20.337 47.865-20.337h675.696q28.447 0 48.408 20.337 19.962 20.336 19.962 48.033v515.696q0 27.599-19.962 47.865-19.961 20.265-48.408 20.265H142.152Zm0-68.13V318.152v515.696Zm0 0h675.696V318.152H142.152v515.696Z"/></svg>