<svg xmlns="http://www.w3.org/2000/svg" width="48" height="48" viewBox="0 -960 960 960"><path d="m699.91-209.35-44.04-44.04q-5.96-6.24-14.9-6.24-8.94 0-15.09 6.17-6.16 6.16-6.16 15.11t6.48 14.87l49.84 49.85q10.31 10.43 24.05 10.43t23.93-10.43l103.85-104.85q6.48-5.96 6.48-14.9 0-8.93-6.22-15.09t-15.16-6.16q-8.94 0-14.77 6.24l-98.29 99.04Zm-339.76 12.68v-404.7h-66v404.7h66Zm-66 68.37q-27.6 0-47.86-20.34-20.27-20.34-20.27-48.03v-404.7q0-27.6 20.27-47.86 20.26-20.27 47.86-20.27h276.7V-831h-56.87q-12.75 0-21.38-8.68-8.62-8.67-8.62-21.5 0-12.82 8.62-21.32 8.63-8.5 21.38-8.5h90.93q14.4 0 24.35 9.82 9.96 9.82 9.96 24.25v358.39q0 17.03-10.63 25.55-10.62 8.51-23.36 8.51-12.75 0-23.57-8.51-10.81-8.52-10.81-25.55v-102.83h-150.7v415.94h31.83q9.81 0 16.29 6.61 6.47 6.61 6.47 16.39 0 14.73-9.82 24.43t-24.25 9.7H294.15Zm570.31-245.04q56.45 56.62 56.45 137.55T864.46-98.41q-56.45 56.45-137.38 56.45-80.93 0-137.55-56.45-56.62-56.45-56.62-137.38 0-80.93 56.62-137.55 56.62-56.62 137.55-56.62t137.38 56.62Zm-474.31-26.18Zm-30 202.85v-404.7 404.7Zm60 11.24v-415.94 415.94Z"/></svg>