<svg xmlns="http://www.w3.org/2000/svg" width="48" height="48" viewBox="0 -960 960 960"><path d="M102.63-69q-27.599 0-47.864-20.836Q34.5-110.672 34.5-137.37v-424.934q0-14.424 9.871-24.245 9.871-9.821 24.37-9.821 14.498 0 24.194 9.821 9.695 9.821 9.695 24.245v424.934h572.305q14.424 0 24.244 9.872Q709-117.627 709-103.009t-9.821 24.314Q689.359-69 674.935-69H102.63Zm124.544-124.304q-27.599 0-47.865-20.836-20.266-20.836-20.266-47.534v-448.195q0-28.11 20.011-48.121 20.01-20.01 48.12-20.01h171.717v-79.37q0-26.599 20.766-47.364 20.766-20.766 47.365-20.766h150.5q26.599 0 47.365 20.766 20.765 20.765 20.765 47.364V-778H857.37q28.109 0 48.12 20.01 20.01 20.011 20.01 48.121v448.195q0 26.698-20.766 47.534-20.765 20.836-47.364 20.836H227.174ZM467.022-778h150.5v-79.37h-150.5V-778Z"/></svg>