<svg xmlns="http://www.w3.org/2000/svg" width="48" height="48" viewBox="0 96 960 960"><path d="m683.218 487.652 119.608-68.565q8.957-4.739 8.957-14.381t-8.957-15.206l-119.608-68.565q-7.596-4.479-16.853-4.479-9.256 0-17.213 4.479L529.544 389.5q-8.957 5.064-8.957 14.706t8.957 14.881l119.608 68.565q7.604 4.718 16.872 4.718 9.267 0 17.194-4.718Zm0 125.587 77.369-44.565q7.707-4.193 12.31-12.218 4.603-8.026 4.603-17.369V471.37l-94.282 54.521q-7.634 4.479-16.891 4.479-9.257 0-17.414-4.479L554.87 471.37v67.717q0 9.343 4.603 17.369 4.603 8.025 12.31 12.218l77.13 44.565q7.835 4.478 17.091 4.478 9.257 0 17.214-4.478ZM126.102 901.978q-22.363 0-37.722-15.574-15.358-15.574-15.358-38.096 0-22.243 15.574-37.721 15.574-15.478 38.096-15.478 22.243 0 37.721 15.713 15.478 15.714 15.478 38.076 0 22.363-15.713 37.722-15.714 15.358-38.076 15.358Zm182.757 0q-12.355 0-21.681-7.448t-11.526-20.269q-9.239-69.717-57.217-118.696-47.979-48.978-116.457-58.456-11.478-2-19.217-11.547-7.74-9.546-7.74-21.479 0-12.648 7.62-22.007 7.62-9.359 18.999-8.393 95.012 9.274 161.327 77.089 66.316 67.815 76.555 162.489 1.761 12.268-8.015 20.493-9.776 8.224-22.648 8.224Zm163.098 0q-12.479 0-21.976-8.171-9.498-8.172-10.459-20.307-11-135.674-104.576-231.989t-228.25-107.794q-13.39-.975-22.532-10.36t-9.142-22.217q0-13.336 11.217-22.314t25.935-7.739q157.151 13.499 267.49 126.04 110.338 112.541 122.488 271.134 1 14.379-7.971 24.048-8.971 9.669-22.224 9.669Zm131.195 0q0-109.674-41.217-206.467-41.218-96.794-112.913-169.131-71.696-72.337-168.075-114.434-96.38-42.098-205.925-42.098v-51.696q0-28.447 19.89-48.408 19.891-19.962 48.24-19.962h675.696q28.447 0 48.408 19.962 19.962 19.961 19.962 48.408v515.696q0 28.349-19.962 48.24-19.961 19.89-48.408 19.89H603.152Z"/></svg>