<svg xmlns="http://www.w3.org/2000/svg" width="48" height="48" viewBox="0 -960 960 960"><path d="m282.304-571.761 170.109-272.5q5.478-7.957 12.542-11.935 7.063-3.978 16.032-3.978 8.97 0 16.046 3.978 7.076 3.978 12.554 11.935l170.348 272.5q5.478 9.046 4.978 18.197t-4.858 17.108q-4.359 7.956-12.059 12.554-7.7 4.598-17.648 4.598H311.652q-10.076 0-17.872-4.675-7.796-4.675-11.835-12.477-4.358-7.942-4.858-17.055-.5-9.114 5.217-18.25ZM710.938-69q-76.392 0-128.143-51.835-51.752-51.836-51.752-128.185 0-76.35 51.724-128.263 51.723-51.913 128.185-51.913 76.461 0 128.255 51.885Q891-325.426 891-249.006q0 76.419-51.835 128.213Q787.329-69 710.938-69ZM106.13-128.304v-247.587q0-14.394 9.821-24.349 9.82-9.956 24.484-9.956h247.826q14.424 0 24.244 9.956 9.821 9.955 9.821 24.349v247.587q0 14.663-9.821 24.484-9.82 9.82-24.244 9.82H140.435q-14.664 0-24.484-9.82-9.821-9.821-9.821-24.484Zm604.976-9.066q46.959 0 79.242-32.367 32.282-32.367 32.282-79.326 0-46.959-32.367-79.361t-79.326-32.402q-46.959 0-79.361 32.487-32.402 32.486-32.402 79.445 0 46.959 32.487 79.242 32.486 32.282 79.445 32.282Zm-536.606-25h179.695v-179.456H174.5v179.456Zm198.565-425.304h215.87L481-762.456 373.065-587.674Zm107.935 0ZM354.195-341.826Zm356.827 92.848Z"/></svg>