<svg xmlns="http://www.w3.org/2000/svg" width="48" height="48" viewBox="0 96 960 960"><path d="m418 601 59 59q8.067 8 20.533 8Q510 668 519 660l131-131v48q0 12 8.625 20.5T680 606q12 0 21-8.625T710 576V456q0-12-9-21t-21-9H559q-12 0-20.5 9t-8.5 21.5q0 12.5 8.625 21T560 486h47L498 596l-59-59q-9-9-21.467-9-12.466 0-20.533 9L275 659q-9 9-9 21.526 0 12.527 9.391 20.632Q284 710 296.467 710q12.466 0 20.533-9l101-100ZM182.152 941.978q-27.599 0-47.865-20.265-20.265-20.266-20.265-47.865V278.152q0-27.697 20.265-48.033 20.266-20.337 47.865-20.337h595.696q27.697 0 48.033 20.337 20.337 20.336 20.337 48.033v595.696q0 27.599-20.337 47.865-20.336 20.265-48.033 20.265H182.152Zm0-68.13h595.696V278.152H182.152v595.696Zm0-595.696v595.696-595.696Z"/></svg>