<svg xmlns="http://www.w3.org/2000/svg" width="48" height="48" viewBox="0 -960 960 960"><path d="M211.957-222.152h536.325L480.239-435.109 211.957-222.152Zm195.956-468.891q-3.478 9.195-11.588 15.413-8.111 6.217-19.341 6.217-14.571 0-24.267-9.696-9.695-9.695-9.695-24.478v-6.848q0-3.478 2.21-6.903 17.708-39.88 54.349-64.38 36.641-24.5 80.658-24.5 60.696 0 103.576 42.384 42.881 42.384 42.881 103.073 0 50.156-31.957 88.393-31.956 38.238-80.674 53.194v24.652l358.479 279.326q6.717 5.479 10.195 12.324 3.479 6.845 3.479 14.769 0 14.69-9.816 24.386-9.815 9.695-24.489 9.695H108.326q-14.913 0-24.609-9.695-9.695-9.696-9.695-24.386 0-7.924 3.478-14.769t10.196-12.324l358.478-279.326v-53.087q0-13.644 9.634-23.854 9.635-10.211 23.192-10.211 33.246 0 56.286-22.783 23.04-22.782 23.04-56.184 0-32.163-22.902-54.685-22.902-22.522-55.124-22.522-23.583 0-43.104 12.761-19.522 12.761-29.283 34.044Z"/></svg>