<svg xmlns="http://www.w3.org/2000/svg" width="48" height="48" viewBox="0 -960 960 960"><path d="M584.027-499.609q-19.505 0-32.984-13.358-13.478-13.359-13.478-32.957T551.016-579q13.452-13.478 32.957-13.478 19.505 0 32.984 13.459 13.478 13.459 13.478 32.976 0 19.717-13.451 33.076-13.452 13.358-32.957 13.358Zm-209 0q-19.505 0-32.984-13.358-13.478-13.359-13.478-32.957T342.017-579q13.451-13.478 32.956-13.478 19.505 0 32.984 13.459 13.478 13.459 13.478 32.976 0 19.717-13.452 33.076-13.451 13.358-32.956 13.358ZM480-286q-56.717 0-103.315-30.478-46.598-30.479-72.12-80.674h350.87q-25.522 50.195-72.12 80.674Q536.717-286 480-286Zm0 171.978q-75.196 0-141.838-28.876-66.642-28.877-116.533-78.696-49.89-49.819-78.749-116.569-28.858-66.75-28.858-141.837 0-75.087 28.858-141.837 28.859-66.75 78.696-116.587 49.837-49.837 116.587-78.815 66.75-28.979 141.837-28.979 75.196 0 141.865 28.931 66.67 28.93 116.581 78.841 49.911 49.911 78.841 116.581Q846.218-555.196 846.218-480q0 75.196-28.979 141.891-28.978 66.696-78.869 116.515-49.89 49.819-116.532 78.696Q555.196-114.022 480-114.022Zm-.041-68.13q122.324 0 210.106-86.742 87.783-86.741 87.783-209.065t-86.254-213.606Q605.341-782.848 478-782.848q-10.641 0-17.283.12-6.641.119-17.282.641-1.761 8.478-3.261 19.478-1.5 11-1.5 19 0 23.967 15.751 39.788Q470.177-688 494.043-688q12 0 20-1.5t15-1.5q10.752 0 18.333 5.287 7.581 5.287 7.581 15.67 0 15.521-14.761 24.619-14.761 9.098-46.153 9.098-45.858 0-76.451-30.761Q387-697.848 387-743.609q0-5 .62-13.119.619-8.12 2.858-13.12-90.761 33-149.543 109.522Q182.152-583.804 182.152-482q0 122.341 87.742 211.094 87.741 88.754 210.065 88.754ZM480-482Z"/></svg>