<svg xmlns="http://www.w3.org/2000/svg" width="48" height="48" viewBox="0 0 48 48"><path d="M40.45 29.15v-10.3h6.15v10.3Zm-28.8 5.65q-3.85 0-7.05-2.325Q1.4 30.15 1.4 27.1v-6.2q0-3.05 3.2-5.375t7.05-2.325q2.2 0 3.7.5t2.8 1.05q.95.4 1.875.725.925.325 1.925.325H38.4v16.4H21.95q-1 0-1.925.325t-1.875.725q-1.3.55-2.8 1.05-1.5.5-3.7.5Zm0-4.1q1.5 0 2.675-.4 1.175-.4 2.175-.8 1.3-.55 2.575-.975 1.275-.425 2.875-.425H34.3v-8.2H21.95q-1.6 0-2.875-.425T16.5 18.5q-1-.4-2.175-.8-1.175-.4-2.675-.4-2.3 0-4.225 1.1Q5.5 19.5 5.5 20.9V23h1.05q.4 0 .7.3.3.3.3.7 0 .4-.3.7-.3.3-.7.3H5.5v2.1q0 1.4 1.925 2.5t4.225 1.1ZM5.5 24Z"/></svg>