<svg xmlns="http://www.w3.org/2000/svg" width="48" height="48" viewBox="0 96 960 960"><path d="M142.152 901.978q-27.599 0-47.865-20.265-20.265-20.266-20.265-47.865V318.152q0-27.697 20.265-48.033 20.266-20.337 47.865-20.337h675.696q27.697 0 48.033 20.337 20.337 20.336 20.337 48.033v515.696q0 27.599-20.337 47.865-20.336 20.265-48.033 20.265H142.152Zm306.413-68.13V318.152H142.152v515.696h306.413Zm62.87 0h306.413V318.152H511.435v515.696Zm70.195-355.283h167.783q10.69 0 18.062-7.359 7.373-7.358 7.373-18.396 0-12.062-7.49-19.469-7.49-7.406-18.945-7.406H580.63q-10.409 0-17.802 7.328-7.393 7.328-7.393 18.644 0 11.949 7.422 19.303 7.422 7.355 18.773 7.355Zm0 111.87h167.783q10.69 0 18.062-7.478 7.373-7.479 7.373-18.517 0-12.062-7.49-19.468-7.49-7.407-18.945-7.407H580.63q-10.409 0-17.802 7.478-7.393 7.479-7.393 18.517 0 12.062 7.422 19.468 7.422 7.407 18.773 7.407Zm0 111.63h167.783q10.69 0 18.062-7.328 7.373-7.328 7.373-18.644 0-11.949-7.49-19.303-7.49-7.355-18.945-7.355H580.63q-10.409 0-17.802 7.359-7.393 7.358-7.393 18.396 0 12.062 7.422 19.469 7.422 7.406 18.773 7.406ZM142.152 833.848V318.152v515.696Z"/></svg>