<svg xmlns="http://www.w3.org/2000/svg" width="48" height="48" viewBox="0 -960 960 960"><path d="M292.15-300H490q12.75 0 21.38-8.68 8.62-8.67 8.62-21.5 0-12.82-8.62-21.32-8.63-8.5-21.38-8.5H292.15q-12.75 0-21.37 8.68-8.63 8.67-8.63 21.5 0 12.82 8.63 21.32 8.62 8.5 21.37 8.5Zm354.2-351.38q-8.5 8.63-8.5 21.38v300q0 12.75 8.67 21.37 8.68 8.63 21.5 8.63 12.83 0 21.33-8.63 8.5-8.62 8.5-21.37v-300q0-12.75-8.68-21.38-8.67-8.62-21.5-8.62-12.82 0-21.32 8.62ZM292.15-450H490q12.75 0 21.38-8.68 8.62-8.67 8.62-21.5 0-12.82-8.62-21.32-8.63-8.5-21.38-8.5H292.15q-12.75 0-21.37 8.68-8.63 8.67-8.63 21.5 0 12.82 8.63 21.32 8.62 8.5 21.37 8.5Zm0-150H490q12.75 0 21.38-8.68 8.62-8.67 8.62-21.5 0-12.82-8.62-21.32-8.63-8.5-21.38-8.5H292.15q-12.75 0-21.37 8.68-8.63 8.67-8.63 21.5 0 12.82 8.63 21.32 8.62 8.5 21.37 8.5Zm-158 485.98q-27.6 0-47.86-20.27-20.27-20.26-20.27-47.86v-595.7q0-27.7 20.27-48.03 20.26-20.34 47.86-20.34h691.7q27.7 0 48.03 20.34 20.34 20.33 20.34 48.03v595.7q0 27.6-20.34 47.86-20.33 20.27-48.03 20.27h-691.7Z"/></svg>