<svg xmlns="http://www.w3.org/2000/svg" width="48" height="48" viewBox="0 96 960 960"><path d="M251 901.978q-90.078 0-153.29-62.902Q34.5 776.174 34.5 686.144q0-80.739 50.859-140.615 50.858-59.877 127.902-72.355 15.869-83.522 82.391-148.141 66.522-64.62 151.761-64.62 25.94 0 45.481 14.576T512.435 314v293.522l59.608-59.848q9.479-9.478 22.592-9.478 13.114 0 22.311 9.228 9.489 9.489 9.489 22.467 0 12.979-9.478 22.457L504.87 704.435q-5.383 5.435-11.235 7.815-5.852 2.38-12.635 2.38-6.783 0-12.635-2.38-5.852-2.38-11.235-7.815L345.043 592.348q-9.478-9.478-8.858-22.52.619-13.042 9.858-22.393 9.479-9.478 22.577-9.359 13.097.12 22.337 9.598l58.608 59.848V321.63q-84.326 12.196-132.13 75.979-47.805 63.782-47.805 138.543h-21.152q-60.108 0-102.978 42.358t-42.87 106.449q0 64.324 44.23 106.606 44.23 42.283 104.14 42.283h500q43.728 0 75.049-31.252Q857.37 771.345 857.37 727q0-44.043-31.403-75.446-31.402-31.402-75.347-31.402h-64.055v-85.674q0-67.163-32.067-115.299-32.068-48.136-83.063-77.353v-73.609q81.956 29 131.174 101.239 49.217 72.24 50.652 160.718v24q72.478-.087 122.359 48.942 49.88 49.029 49.88 124.841 0 71.311-51.604 122.666Q822.292 901.978 751 901.978H251Zm229-356.326Z"/></svg>