<svg xmlns="http://www.w3.org/2000/svg" width="48" height="48" viewBox="0 -960 960 960"><path d="M223.826-476.761q0 63.044 26.902 114.989 26.902 51.946 87.468 91.228v-88.26q0-13.479 8.858-22.337Q355.913-390 369.63-390q13.479 0 22.337 8.859 8.859 8.858 8.859 22.337v168.326q0 14.674-9.696 24.369-9.695 9.696-24.369 9.696H198.674q-13.478 0-22.337-8.978-8.859-8.979-8.859-22.457 0-13.478 8.859-22.337 8.859-8.858 22.576-8.858h92.826q-64-48.718-100.141-109.218-36.142-60.5-36.142-148.5 0-90.674 47.935-170.728 47.935-80.055 137.326-122.533 12.196-5.478 23.772.718 11.576 6.195 16.576 18.869 4.239 12.674-.358 24.75-4.598 12.076-16.794 17.794-61.043 31.282-100.565 93.185-39.522 61.902-39.522 137.945Zm380.239 326.326q-52.152 0-88.826-36.554-36.674-36.554-36.674-88.946 0-49.435 33.598-85.63 33.598-36.196 82.554-39.392 17.957-36.239 52.294-58.358 34.337-22.12 77.054-22.12 55.153 0 94.968 34.859 39.815 34.859 47.576 85.619h2q42.478 1.435 71.837 32.272t29.359 71.75q0 44.153-30.794 75.326-30.793 31.174-74.946 31.174h-260ZM732.174-520q-11-50.283-37.283-91.467-26.282-41.185-69.848-77.989v88.26q0 13.479-8.978 22.337Q607.087-570 593.609-570q-13.479 0-22.457-8.978-8.978-8.979-8.978-22.457v-168.087q0-14.674 9.696-24.369 9.695-9.696 24.608-9.696h167.848q13.478 0 22.457 8.859 8.978 8.858 8.978 22.337 0 13.478-8.978 22.456-8.979 8.978-22.457 8.978H670.5Q719.5-699 756.522-639.5 793.544-580 801.544-520h-69.37Z"/></svg>