<svg xmlns="http://www.w3.org/2000/svg" width="48" height="48" viewBox="0 -960 960 960"><path d="m448.565-469.152-62.239 62.478q-9.598 9.479-22.132 9.479-12.535 0-21.781-9.24-9.478-9.478-9.598-22.576-.119-13.098 9.359-22.576l113.717-114.717q10.37-10.196 24.196-10.196 13.826 0 24.022 10.196l114.717 114.956q9.478 9.479 9.359 22.076-.12 12.598-9.495 21.837-9.624 9.499-22.581 9.369-12.957-.129-22.196-9.608l-62.478-61.478v247h239.173q43.718 0 75.24-31.491Q857.37-285.134 857.37-329q0-44.043-31.491-75.446-31.491-31.402-75.357-31.402H685.37v-86.63q0-87.909-59.698-151.139-59.698-63.231-147.56-63.231-88.395 0-148.438 64.12-60.044 64.119-60.044 152.88h-21.152q-61.108 0-103.478 42.856-42.37 42.857-42.37 105.946 0 61.089 43.299 104.992 43.298 43.902 104.549 43.902H354.5q14.424 0 24.245 9.871 9.82 9.871 9.82 24.37 0 14.498-9.82 24.194-9.821 9.695-24.245 9.695H250.478q-88.473 0-152.225-63.596Q34.5-281.215 34.5-369.522q0-79.435 49.739-140.728 49.739-61.294 128.935-73.772 20.956-97.717 95.954-159.456 74.997-61.74 172.942-61.74 113.887 0 191.582 81.74 77.696 81.739 79.609 196.456v24q72.717.152 122.478 49.897Q925.5-403.381 925.5-328.522q0 71.611-51.793 123.056-51.794 51.444-123.185 51.444H516.935q-27.581 0-47.975-20.388-20.395-20.388-20.395-47.742v-247ZM480-445.935Z"/></svg>