<svg xmlns="http://www.w3.org/2000/svg" width="48" height="48" viewBox="0 96 960 960"><path d="M142.152 821.978q-28.104 0-48.117-20.013-20.013-20.013-20.013-48.117V278.152q0-28.202 20.013-48.286t48.117-20.084h675.696q28.202 0 48.286 20.084t20.084 48.286v475.696q0 28.104-20.084 48.117-20.084 20.013-48.286 20.013H142.152Zm-76.276 122.87q-13.504 0-22.44-9.088-8.936-9.088-8.936-22.522 0-13.435 8.936-22.347 8.936-8.913 22.44-8.913h828.248q13.504 0 22.44 9.062 8.936 9.061 8.936 22.456t-8.936 22.374q-8.936 8.978-22.44 8.978H65.876Z"/></svg>