<svg xmlns="http://www.w3.org/2000/svg" width="48" height="48" viewBox="0 -960 960 960"><path d="M480-74.456q-80.913 0-138.489-57.577-57.576-57.576-57.576-138.728 0-80.913 57.576-138.489Q399.087-466.826 480-466.826q80.913 0 138.489 57.576 57.576 57.576 57.576 138.489 0 81.152-57.576 138.728Q560.913-74.456 480-74.456Zm0-506.74q-53.761 0-103.641 19-49.881 19-92.12 52.283-9.717 8.239-21.815 7.359-12.098-.881-20.815-9.598L100.891-652.63q-11.195-11.435-10.576-26.609.62-15.174 12.815-24.37 81.24-65.717 176.576-105.717 95.337-40 200.294-40 104.957 0 200.294 40 95.336 40 176.576 105.717 12.195 9.196 12.815 24.37.619 15.174-10.576 26.609L718.391-512.152q-8.717 8.717-20.815 9.598-12.098.88-21.815-7.359-42.239-33.283-92.12-52.283-49.88-19-103.641-19Z"/></svg>