<svg xmlns="http://www.w3.org/2000/svg" width="48" height="48" viewBox="0 -960 960 960"><path d="M65.876-111.152q-13.504 0-22.44-9.088-8.936-9.088-8.936-22.522 0-13.435 8.936-22.347 8.936-8.913 22.44-8.913h828.248q13.504 0 22.44 9.062 8.936 9.061 8.936 22.456t-8.936 22.374q-8.936 8.978-22.44 8.978H65.876Zm76.276-122.87q-27.599 0-47.865-20.265-20.265-20.266-20.265-47.865v-475.696q0-27.697 20.265-48.033 20.266-20.337 47.865-20.337h675.696q27.697 0 48.033 20.337 20.337 20.336 20.337 48.033v475.696q0 27.599-20.337 47.865-20.336 20.265-48.033 20.265H142.152Zm0-68.13h675.696v-475.696H142.152v475.696Zm0 0v-475.696 475.696Z"/></svg>