<svg xmlns="http://www.w3.org/2000/svg" width="48" height="48" viewBox="0 -960 960 960"><path d="M480-74.456q-80.913 0-138.489-57.577-57.576-57.576-57.576-138.645 0-81.069 57.576-138.609Q399.087-466.826 480-466.826q80.913 0 138.489 57.539 57.576 57.54 57.576 138.609 0 81.069-57.576 138.645Q560.913-74.456 480-74.456Zm0-65.74q54.243 0 92.404-38.021 38.161-38.022 38.161-92.424 0-54.402-38.161-92.544-38.161-38.141-92.404-38.141-54.243 0-92.404 38.141-38.161 38.142-38.161 92.544 0 54.402 38.161 92.424 38.161 38.021 92.404 38.021Zm-241.826-375.63L97.891-655.87q-10.435-9.713-9.815-23.248.62-13.534 10.815-22.491 79.957-66.239 177.255-106.978 97.298-40.739 203.815-40.739t203.854 40.739q97.337 40.739 177.294 106.978 10.426 8.707 10.93 22.133.505 13.427-9.691 23.606L722.065-515.826q-9.28 9.177-23.781 10.186-14.501 1.01-26.675-7.708-41.761-31.043-89.576-49.446-47.814-18.402-102.065-18.402t-102.153 18.402q-47.902 18.403-89.424 49.446-12.174 8.718-26.675 7.708-14.501-1.009-23.542-10.186ZM266-580.413q51.239-31.522 104.439-48.902 53.2-17.381 109.683-17.381 56.4 0 110.639 15.821Q645-615.055 694-580.413l94.609-94.609q-65.761-50.522-145.655-79.663-79.893-29.141-162.945-29.141-83.052 0-162.694 29.141-79.641 29.141-146.163 79.663L266-580.413Zm213.761-66.283ZM480-270.761Z"/></svg>