<svg xmlns="http://www.w3.org/2000/svg" width="48" height="48" viewBox="0 -960 960 960"><path d="M480-74.456q-80.913 0-138.489-57.577-57.576-57.576-57.576-138.728 0-80.913 57.576-138.489Q399.087-466.826 480-466.826q80.913 0 138.489 57.576 57.576 57.576 57.576 138.489 0 81.152-57.576 138.728Q560.913-74.456 480-74.456Zm-241.826-441.37L97.891-655.87q-10.435-10.195-9.815-23.489.62-13.293 10.815-22.25 79.957-66.239 177.294-106.978Q373.522-849.326 480-849.326t203.815 40.739q97.337 40.739 177.294 106.978 10.195 8.957 10.815 22.25.62 13.294-9.576 23.489L722.065-515.826q-9.195 9.196-23.989 10.196-14.793 1-26.467-7.718-41.761-31.043-89.544-49.446Q534.283-581.196 480-581.196t-102.185 18.402q-47.902 18.403-89.424 49.446-11.674 8.718-26.467 7.718-14.794-1-23.75-10.196Z"/></svg>