<svg xmlns="http://www.w3.org/2000/svg" width="48" height="48" viewBox="0 -960 960 960"><path d="M380.695-318.456H108.087q-14.674 0-24.37-9.696-9.695-9.696-9.695-24.609 0-14.674 9.695-24.369 9.696-9.696 24.37-9.696h272.608l-93.065-93.065q-10.195-10.196-10.195-23.75 0-13.555 10.195-23.989 9.957-10.196 23.75-10.196 13.794 0 23.99 10.196l151 151q5.478 5.478 7.956 11.315 2.478 5.837 2.478 12.554 0 6.957-2.478 12.794-2.478 5.837-7.956 11.315l-151 150.761q-10.196 10.195-23.99 10.315-13.793.12-23.75-10.315-10.195-9.957-10.195-23.75 0-13.794 10.195-23.989l93.065-92.826Zm198.849-254.718 92.826 92.826q10.195 10.435 10.195 23.989 0 13.555-10.195 23.75-9.957 10.435-23.75 10.435-13.794 0-23.99-10.196l-151-151q-5.478-5.478-7.956-11.315-2.478-5.837-2.478-12.793 0-6.718 2.478-12.555t7.956-11.315l151-151q10.196-9.956 23.99-10.076 13.793-.12 23.75 10.076 10.195 10.196 10.195 23.989 0 13.794-10.195 23.75l-92.826 93.065h272.369q14.674 0 24.489 9.696 9.816 9.696 9.816 24.37 0 14.913-9.816 24.608-9.815 9.696-24.489 9.696H579.544Z"/></svg>