<svg xmlns="http://www.w3.org/2000/svg" width="48" height="48" viewBox="0 -960 960 960"><path d="M142.15-194.02q-27.6 0-47.86-20.27-20.27-20.26-20.27-47.86v-515.7q0-27.7 20.27-48.03 20.26-20.34 47.86-20.34h675.7q27.7 0 48.03 20.34 20.34 20.33 20.34 48.03v515.7q0 27.6-20.34 47.86-20.33 20.27-48.03 20.27h-184.5v45.93q0 14.43-9.96 24.25-9.95 9.82-24.35 9.82H360.96q-14.43 0-24.25-9.82t-9.82-24.25v-45.93H142.15Zm122.01-138.99q10.86-10.86 10.86-25.58 0-14.71-10.86-25.57t-25.57-10.86q-14.72 0-25.58 10.86-10.86 10.86-10.86 25.57 0 14.72 10.86 25.58 10.86 10.86 25.58 10.86 14.71 0 25.57-10.86Zm185.45 10.86q10.46 0 17.93-7.49 7.48-7.5 7.48-17.95 0-103.48-71.98-175.45-71.97-71.98-175.26-71.98-10.71 0-18.17 7.5-7.46 7.49-7.46 17.95 0 10.46 7.61 17.94t18.22 7.48q80.89 0 138.53 57.42 57.64 57.43 57.64 139.14 0 10.45 7.5 17.95 7.5 7.49 17.96 7.49Zm-100 0q10.46 0 17.93-7.49 7.48-7.5 7.48-17.95 0-61.37-42.96-104.4-42.96-43.03-104.24-43.03-10.75 0-18.21 7.5-7.46 7.49-7.46 17.95 0 10.46 7.49 17.94 7.5 7.48 17.95 7.48 40.04 0 68.3 28.15 28.26 28.15 28.26 68.04 0 10.89 7.5 18.35 7.5 7.46 17.96 7.46Z"/></svg>