<svg xmlns="http://www.w3.org/2000/svg" width="48" height="48" viewBox="0 -960 960 960"><path d="M654.109-99.935q-4.718 0-8.674-2.358-3.957-2.359-6.196-6.077l-99.043-167.565H414.435q-13.196 0-23.033-9.717-9.837-9.718-9.837-22.913 0-14.196 9.837-23.533 9.837-9.337 23.033-9.337h125.761l99.043-167.326q2.239-3.717 6.696-6.196 4.456-2.478 9.174-2.478 8.195 0 12.032 5.457 3.837 5.456 1.359 13.652l-46.282 156.891H750.63l25.283-33.804q2.239-2.478 5.957-4.337 3.717-1.859 6.434-1.859 8.196 0 12.033 5.576 3.837 5.576 1.598 12.772l-16 54.522 16 54.522q2.239 7.195-1.478 12.652-3.718 5.456-12.153 5.456-2.717 0-6.434-1.739-3.718-1.739-5.957-4.456l-25.283-33.805H622.218L668.5-119.043q2.478 8.195-1.739 13.652-4.217 5.456-12.652 5.456Zm-349.218-342.63q-8.195 0-12.032-5.457-3.837-5.456-1.359-13.891l46.282-156.652H209.37l-25.283 33.804q-2.239 2.478-5.957 4.337-3.717 1.859-6.434 1.859-8.196 0-12.033-5.576-3.837-5.576-1.359-12.772l16-54.522-16-54.522q-2.478-7.195 1.239-12.652 3.718-5.456 12.153-5.456 2.717 0 6.434 1.739 3.718 1.739 5.957 4.456l25.283 33.805h128.412L291.5-840.957q-2.478-8.195 1.739-13.652 4.217-5.456 12.652-5.456 4.718 0 8.674 2.239 3.957 2.239 6.196 6.196l99.282 167.565h125.522q14.196 0 23.533 9.217 9.337 9.218 9.337 23.413 0 13.196-9.337 23.033-9.337 9.837-23.533 9.837H420.043l-99.282 167.326q-2.239 3.956-6.696 6.315-4.456 2.359-9.174 2.359Z"/></svg>