<svg xmlns="http://www.w3.org/2000/svg" width="48" height="48" viewBox="0 -960 960 960"><path d="M740.478-144.935 517-367.174l60.826-61.065 223.478 223.478q12.718 13.014 12.718 30.061 0 17.048-12.718 29.885-12.717 12.837-30.413 12.837-17.695 0-30.413-12.957Zm-585.782.12q-12.718-12.837-12.718-30.533 0-17.695 12.718-30.413l261.478-261.478-107.718-107.478-2 2q-9 8.961-20.88 8.961-11.88 0-21.12-8.961l-20.369-20.37v91.978q0 11.435-10.815 15.413-10.816 3.979-18.772-3.978L96.022-608.152q-7.957-7.957-3.979-18.772 3.979-10.815 15.413-10.815h92.979l-23.174-23.174q-9.479-9.478-9.479-22.435 0-12.956 9.718-22.435l110.275-110.478q17.442-17.478 38.283-23.717 20.84-6.24 45.551-6.24 20.521 0 36.239 5.5 15.717 5.5 32.478 18.022 5.717 5.478 6.217 12.555.5 7.076-5.217 12.793l-94.043 93.931 26.76 26.798q9 9.019 9 21.047t-9 20.995l-3 3 104.718 104.751 122-121.761Q590-661.348 585.5-678.308q-4.5-16.96-4.5-35.801 0-54.031 39.299-93.45 39.3-39.419 93.331-39.419 8.345 0 15.326.724 6.981.725 12.343 2.668 6.806 3.392 8.265 10.695 1.458 7.304-4.02 12.782l-58.131 58.37q-5.478 5.521-5.478 12.456t5.478 12.413l48.217 48.218q5.24 5.478 12.261 5.478 7.022 0 12.609-5.478l56.13-56.37q5.718-5.717 14.521-4.642 8.804 1.075 12.435 8.809 2.182 6.562 2.787 13.504.605 6.942.605 15.242 0 54.196-39.576 93.413-39.576 39.218-93.812 39.218-17.72 0-30.481-2.381-12.761-2.38-23.522-7.141L214.761-143.935q-13.014 12.957-30.181 12.457t-29.884-13.337Z"/></svg>