<svg xmlns="http://www.w3.org/2000/svg" width="48" height="48" viewBox="0 -960 960 960"><path d="M172.826-175.022q-76.935-45.043-124.88-126.536Q0-383.05 0-481q0-98.326 48.326-179.13 48.326-80.805 125.022-125.609 22.869-13.87 41.261-4.533Q233-780.935 233-759.022q0 7.891-4.177 15.924-4.177 8.034-11.975 13.294Q148.63-692.521 108.5-626.007 68.37-559.493 68.37-481q0 79.696 40.13 146.109 40.13 66.412 108.348 103.695 7.798 5.179 11.975 13.152Q233-210.071 233-201.739q0 21.674-18.272 31.391-18.272 9.718-41.902-4.674ZM600-121q-75 0-140.5-28.5t-114-77q-48.5-48.5-77-114T240-481q0-75 28.5-140.5t77-114q48.5-48.5 114-77T600-841q75 0 140.5 28.5t114 77q48.5 48.5 77 114T960-481q0 75-28.5 140.5t-77 114q-48.5 48.5-114 77T600-121Zm1.175-207q13.638 0 22.449-8.936 8.811-8.936 8.811-22.499v-91.13h90.13q13.563 0 22.499-8.987Q754-468.538 754-482.175q0-13.638-8.936-22.449-8.936-8.811-22.499-8.811h-90.13v-90.13q0-13.563-8.987-22.499Q614.462-635 600.825-635q-13.638 0-22.449 8.936-8.811 8.936-8.811 22.499v90.13h-91.13q-13.563 0-22.499 8.987Q447-495.462 447-481.825q0 13.638 8.936 22.449 8.936 8.811 22.499 8.811h91.13v91.13q0 13.563 8.987 22.499Q587.538-328 601.175-328Z"/></svg>