<svg xmlns="http://www.w3.org/2000/svg" width="48" height="48" viewBox="0 96 960 960"><path d="m506.869 986.283-8.565-115.022-40.717-.239Q313.63 868.152 212.75 765.12 111.869 662.087 111.869 517.891q0-146.348 103.892-249.619Q319.652 165 467 165q72.674 0 134.728 26.217 62.055 26.218 108.131 73.294 46.076 47.076 72.293 111.13 26.218 64.055 26.218 139.729 0 139.26-81.24 266.271-81.239 127.011-220.261 204.642Zm-39.63-234.24q16.957 0 28.674-11.717 11.717-11.717 11.717-28.674 0-16.717-11.717-28.435-11.717-11.717-28.674-11.717-16.956 0-28.674 11.717-11.717 11.718-11.717 28.435 0 16.957 11.717 28.674 11.718 11.717 28.674 11.717Zm-2-137.673q10.478 0 18.576-7.479 8.098-7.478 10.815-19.435 3.24-13.76 12.74-26.641 9.5-12.88 28.304-31.445 27.239-27.479 38.359-49.979 11.119-22.5 11.119-49.217 0-46.196-30.619-75.794-30.62-29.598-83.055-29.598-35.717 0-65.695 16.098-29.979 16.098-48.457 44.576-6.717 9.718-2.239 20.294t16.196 15.576q8.717 3.239 18.554 0 9.837-3.239 16.793-12.196 10.761-15.521 26.664-22.663 15.902-7.141 34.706-7.141 29.043 0 45.446 13.783 16.402 13.782 16.402 37.065 0 18.282-11 37.663-11 19.38-38.283 47.663-20.761 21.761-30.119 36.619-9.359 14.859-11.598 35.098-1.239 10.957 6.598 19.055 7.837 8.098 19.793 8.098Z"/></svg>