<svg xmlns="http://www.w3.org/2000/svg" width="48" height="48"><path d="M9.1 41.65q-1.4 0-2.4-1t-1-2.45V9.35q0-1.4 1-2.425T9.1 5.9h8.95q.4-1.75 1.975-2.975Q21.6 1.7 23.55 1.7t3.55 1.225Q28.7 4.15 29.05 5.9H38q1.4 0 2.4 1.025t1 2.425v12.1H38V9.35h-5.3v3.2q0 1.4-.975 2.35-.975.95-2.425.95H17.85q-1.5 0-2.475-.95-.975-.95-.975-2.35v-3.2H9.1V38.2h12.35v3.45zm14.45-32.1q.95 0 1.65-.7t.7-1.65q0-.95-.7-1.65t-1.65-.7q-.95 0-1.65.7t-.7 1.65q0 .95.7 1.65t1.65.7zm19.3 35.7L38 40.4q-1 .8-2.25 1.125-1.25.325-2.6.325-3.65 0-6.175-2.55t-2.525-6.15q0-3.65 2.525-6.175t6.175-2.525q3.6 0 6.15 2.525 2.55 2.525 2.55 6.175 0 1.35-.325 2.6T40.4 38l4.85 4.85q.5.5.5 1.175t-.55 1.225q-.5.5-1.175.5t-1.175-.5zm-9.7-6.8q2.25 0 3.775-1.525t1.525-3.775q0-2.25-1.525-3.775T33.15 27.85q-2.25 0-3.775 1.5t-1.525 3.8q0 2.25 1.5 3.775t3.8 1.525z"/></svg>