<svg xmlns="http://www.w3.org/2000/svg" width="48" height="48" viewBox="0 -960 960 960"><path d="M67.37-117.37q-27.698 0-48.034-20.265Q-1-157.901-1-185.5v-589q0-27.599 20.336-47.865Q39.672-842.63 67.37-842.63h824.499q27.348 0 47.74 20.265Q960-802.099 960-774.5v589q0 27.599-20.391 47.865-20.392 20.265-47.74 20.265h-824.5Zm266.652-294.065q50.757 0 84.976-34.359 34.22-34.358 34.22-84.956 0-50.598-34.211-84.957-34.211-34.358-84.957-34.358-50.746 0-85.104 34.338-34.359 34.339-34.359 85.097 0 50.478 34.339 84.836 34.339 34.359 85.096 34.359Zm261.804-113.043h196.043q14.674 0 24.37-9.696 9.696-9.696 9.696-24.609V-674.5q0-14.674-9.696-24.37-9.696-9.695-24.37-9.695H595.826q-14.674 0-24.369 9.695-9.696 9.696-9.696 24.37v115.717q0 14.913 9.696 24.609 9.695 9.696 24.369 9.696ZM74.5-182.63h520q-45-74-112.5-112t-147.5-38q-80 0-148 38t-112 112Zm620.348-378.848L590.326-640v-40l103.522 78.522L797.37-680v40l-102.522 78.522Z"/></svg>