<svg xmlns="http://www.w3.org/2000/svg" width="48" height="48" viewBox="0 -960 960 960"><path d="M178.087-70.717q-27.698 0-48.034-20.336t-20.336-48.034v-566.782q0-14.424 9.871-24.245 9.871-9.821 24.489-9.821 14.619 0 24.314 9.821 9.696 9.821 9.696 24.245v566.782h437.782q14.424 0 24.245 9.871 9.821 9.871 9.821 24.489t-9.821 24.314q-9.821 9.696-24.245 9.696H178.087Zm128.131-128.37q-27.599 0-47.865-20.266-20.266-20.266-20.266-47.865v-555.695q0-27.698 20.266-48.034t47.865-20.336h435.695q27.698 0 48.034 20.336t20.336 48.034v555.695q0 27.599-20.336 47.865-20.336 20.266-48.034 20.266H306.218Zm0-68.131h435.695v-555.695H306.218v555.695Zm0 0v-555.695 555.695Z"/></svg>