<svg xmlns="http://www.w3.org/2000/svg" width="48" height="48" viewBox="0 -960 960 960"><path d="M766-114.5q-43.63 0-75.326-25.935-31.696-25.935-39.935-62.13H443q-66.789 0-110.612-43.858-43.823-43.857-43.823-110.695 0-66.599 43.823-110.458Q376.211-511.435 443-511.435h77q40.211 0 65.888-25.692 25.677-25.692 25.677-65.924 0-40.232-25.677-65.873-25.677-25.641-65.888-25.641H309.5q-9.478 36.195-40.674 62.13Q237.63-606.5 194-606.5q-50.132 0-84.816-34.688Q74.5-675.876 74.5-726.014q0-50.138 34.684-84.812T194-845.5q43.63 0 74.826 25.935 31.196 25.935 40.674 62.13H520q66.717 0 110.576 43.859Q674.435-669.717 674.435-603q0 66.717-43.859 110.576Q586.717-448.565 520-448.565h-77q-40.283 0-65.924 25.642-25.641 25.643-25.641 65.805 0 40.401 25.641 66.042T443-265.435h207.739q9.239-36.195 40.435-62.13Q722.37-353.5 766-353.5q50.132 0 84.816 34.688 34.684 34.688 34.684 84.826 0 50.138-34.684 84.812T766-114.5ZM194-672q23 0 38.5-15.5T248-726q0-23-15.5-38.5T194-780q-23 0-38.5 15.5T140-726q0 23 15.5 38.5T194-672Z"/></svg>