<svg xmlns="http://www.w3.org/2000/svg" width="48" height="48" viewBox="0 -960 960 960"><path d="M696.522-353.326q-18-7.761-37.381-13.88-19.38-6.12-39.141-6.12-15.522 0-30.902 4-15.381 4-30.381 10-10.717 4.478-21.434 1.12-10.718-3.359-14.957-13.837-5-10.718-.261-21.055t15.457-15.576q20.239-8.239 40.858-13.239 20.62-5 41.62-5 23 0 44.739 5.5 21.739 5.5 42.978 13.739 18 7.761 37.261 13.761 19.261 6 39.022 6 15.522 0 30.902-3.881 15.381-3.88 30.381-10.119 10.717-4.239 21.434-.881 10.718 3.359 14.957 13.837 5 10.718.261 21.055t-15.457 15.576q-20.239 8.239-40.858 13.12-20.62 4.88-41.62 4.88-23 0-44.739-5.38-21.739-5.381-42.739-13.62Zm0 130q-18-7.761-37.381-13.88-19.38-6.12-39.141-6.12-15.522 0-30.902 4-15.381 4-30.381 10-10.717 4.478-21.434 1.12-10.718-3.359-14.957-13.837-5-10.718-.261-21.055t15.457-15.576q20.239-8.239 40.858-13.239 20.62-5 41.62-5 23 0 44.739 5.5 21.739 5.5 42.978 13.739 18 7.761 37.261 13.761 19.261 6 39.022 6 15.522 0 30.902-3.881 15.381-3.88 30.381-10.119 10.717-4.239 21.434-.881 10.718 3.359 14.957 13.837 5 10.718.261 21.055t-15.457 15.576q-20.239 8.239-40.858 13.12-20.62 4.88-41.62 4.88-23 0-44.739-5.38-21.739-5.381-42.739-13.62Zm0 130q-18-7.761-37.5-13.88-19.5-6.12-39.022-6.12-15.522 0-30.902 4-15.381 4-30.381 10-10.717 4.478-21.434.74-10.718-3.74-14.957-13.457-5-10.718-.261-21.055t15.457-15.576q20.239-8.239 40.858-13.239 20.62-5 41.62-5 23 0 44.739 5.5 21.739 5.5 42.978 13.739 18 7.761 37.261 13.761 19.261 6 39.022 6 15.522 0 30.902-3.881 15.381-3.88 30.381-10.119 10.717-4.239 21.434-.881 10.718 3.359 14.957 13.837 5 10.718.261 21.055t-15.457 15.576q-20.239 8.24-40.858 13.12-20.62 4.88-41.62 4.88-23 0-44.739-5.38-21.739-5.38-42.739-13.62ZM249.935-682.544l193.761-190.76q7.717-7.957 17.413-11.435 9.695-3.479 18.891-3.479 9.196 0 18.891 3.479 9.696 3.478 17.413 11.435l193.761 190.76q28.522 28.283 49.544 62.446 21.021 34.163 32.261 72.967 6.674 20.153-6.761 37.185-13.435 17.033-36.066 17.033H516.457q-28.587 0-48.359 19.891-19.772 19.892-19.772 48.479v234.347q0 22.631-16.772 36.566-16.772 13.934-37.685 7.739-105.521-27.435-172.684-113.033t-67.163-195.837q0-67.196 25.478-125.011t70.435-102.772Z"/></svg>