<svg xmlns="http://www.w3.org/2000/svg" width="48" height="48" viewBox="0 -960 960 960"><path d="M142.152-154.022q-27.587 0-47.859-20.271-20.271-20.272-20.271-47.859v-515.696q0-27.587 20.271-47.978 20.272-20.392 47.859-20.392h675.696q27.587 0 47.978 20.392 20.392 20.391 20.392 47.978v203.283q0 10.239-6.761 21.065t-16.522 12.022q-30.239 2.63-49.587 28.695-19.348 26.066-41.022 47.74L600.63-254.587l-57.978-58.456q-27.195-26.957-66.63-27.196-39.435-.239-66.392 26.956-34.478 34.24-28.456 67.218 6.022 32.978 28.543 62.456 7.24 9.435 2.642 19.511-4.598 10.076-15.794 10.076H142.152Zm0-486.456v139h675.696v-139H142.152ZM600.63-169.587l213.696-213.456q9.957-9.957 23.891-9.577 13.935.381 23.892 10.337 9.195 9.957 9.576 23.511.38 13.555-9.576 23.511l-237.37 237.37q-5.478 5.478-11.315 7.837-5.837 2.358-12.794 2.358-5.717 0-12.054-2.358-6.337-2.359-11.815-7.837L451.63-223.261q-10.195-10.195-9.695-24.13.5-13.935 10.695-23.892 9.957-10.195 23.892-10.076 13.935.12 24.13 10.316l99.978 101.456Z"/></svg>