<svg xmlns="http://www.w3.org/2000/svg" width="48" height="48" viewBox="0 -960 960 960"><path d="M279.239-114.022q-17.674 0-30.489-12.695-12.815-12.696-12.815-30.609 0-10.957 6.598-23.533 6.597-12.576 15.554-19.054 43.717-32.478 68.022-72.141 24.304-39.663 24.304-86.033 0-12.283-1.38-23.924-1.381-11.641-4.142-23.924H270q-14.674 0-24.37-9.695-9.695-9.696-9.695-24.37 0-13.239 8.141-22.576t21.38-10.533h45.37q-38.283-53.282-51.587-95.021-13.304-41.74-13.304-83.783 0-89.674 62.195-151.989 62.196-62.316 151.87-62.316 58.913 0 107.228 25.098 48.316 25.098 78.033 69.533 7.957 12.435 2.5 26.109-5.457 13.674-20.131 19.391-10.956 4.478-22.771 1.478-11.816-3-20.772-14.434-21-27.761-53.663-43.283-32.663-15.522-70.424-15.522-60.326 0-103.13 42.185-42.805 42.185-42.805 103.75 0 38.283 14.805 75.902 14.804 37.62 63.043 101.946H530q14.674 0 24.37 9.695 9.695 9.696 9.695 24.37 0 14.674-9.695 24.37-9.696 9.695-24.37 9.695H413.783q3 12.283 4 24.924t1 22.924q0 51.326-21.924 96.37-21.924 45.043-56.685 79.565h217.913q30.522 0 55.522-12.761t41.956-42q7.718-13 19.696-16.641 11.978-3.642 24.935 2.597 11.434 5.718 16.174 18.251 4.739 12.532-.457 22.728-20.196 48.956-64.293 72.456-44.098 23.5-93.533 23.5H279.239Z"/></svg>