<svg xmlns="http://www.w3.org/2000/svg" width="48" height="48" viewBox="0 -960 960 960"><path d="M148.848-559q0 99.456 53.891 180.989 53.891 81.532 144.87 120.576 12.956 6.435 18.456 19.609 5.5 13.174-1.456 25.369-8.718 13.435-23.272 17.413-14.555 3.979-29.272-3.456-106.652-48.239-169.619-146.185-62.968-97.945-62.968-215.554 0-30.087 4.761-60.294Q89-650.739 99.043-680.065l-36.847 20.804q-11.479 6.479-23.218 2.305-11.739-4.174-18.217-16.131-6.957-12.435-3.598-25.989t15.793-20.272l121.24-70.239q12.195-6.717 25.869-3.359 13.674 3.359 20.631 15.794l69.761 120.239q6.717 12.435 3.358 26.109-3.358 13.674-15.793 20.391-12.435 6.717-26.109 3.359-13.674-3.359-20.391-15.794L174.5-685.565q-12.326 30.13-18.989 62.022-6.663 31.891-6.663 64.543ZM480-891.152q-53.174 0-102.087 16.685-48.913 16.685-90.804 49.054-12.913 8-27.087 6.543-14.174-1.456-20.891-13.891-7.718-13.196-4.479-28.75t15.913-23.554q49.848-36.087 107.957-55.272Q416.63-959.522 479-959.522q84.848 0 161.793 34.305 76.946 34.304 133.229 96.673v-43.369q0-13.478 10.054-21.62 10.054-8.141 24.25-8.141 14.674 0 24.37 9.696 9.695 9.695 9.695 24.369v140q0 14.913-9.695 24.609-9.696 9.696-24.37 9.696h-140q-14.913 0-24.609-9.696-9.695-9.696-9.695-24.609 0-14.674 9.695-24.369 9.696-9.696 24.609-9.696h72.804q-46.326-61.217-115-95.348-68.674-34.13-146.13-34.13Zm249.13 549.63q46.935-52.935 66.902-119.554 19.968-66.62 9.924-135.641-.804-14.674 8.131-25.631 8.935-10.956 22.609-10.956 15.674 0 26.75 11.576t12.358 28.011q7.044 77.174-14.239 150.087-21.282 72.913-69.652 133.282-43.043 53.522-99.609 89.022-56.565 35.5-123.369 50.456l36.326 20.805q11.478 6.478 13.261 19.674 1.782 13.195-4.935 25.152-6.957 12.435-20.13 15.413-13.174 2.978-25.609-3.978l-121.761-70q-12.435-6.718-15.913-20.511-3.478-13.794 3.478-26.229l70-119.76q6.718-12.435 20.511-15.914 13.794-3.478 26.228 3.479 12.196 6.717 15.174 19.891 2.979 13.174-3.739 25.37l-36.304 64.521q59.174-7.195 111.706-35.337 52.533-28.141 91.902-73.228Z"/></svg>