<svg xmlns="http://www.w3.org/2000/svg" width="48" height="48" viewBox="0 -960 960 960"><path d="M480.239-117.37q-152.229 0-257.549-105.2Q117.37-327.771 117.37-480q0-132.13 75.554-226.011 75.554-93.88 203.358-124.467 44.827-9.913 62.337 12.087 17.511 22 3.424 63.348-6.608 22.282-10.771 44.507-4.163 22.225-4.163 44.797 0 91.295 63.976 155.202 63.977 63.907 155.372 63.907 22.847 0 44.673-3.305 21.827-3.304 42.87-9.391 45.87-13.848 66.511 5.446 20.641 19.293 8.967 64.88-30.587 118.131-123.63 194.881-93.044 76.749-225.609 76.749Zm0-68.13q104.217 0 182.228-63.913 78.011-63.913 98.25-149.891-23.087 10.282-49.96 15.304t-53.387 4.544q-113.972-3.109-194.269-82.808-80.297-79.699-83.645-195.106 0-21.847 4.403-47.554 4.402-25.706 16.684-58.793-92.739 27.478-153.771 107.108Q185.739-576.978 185.739-480q0 122.885 85.808 208.693Q357.354-185.5 480.239-185.5Zm-6.391-289.109Z"/></svg>