<svg xmlns="http://www.w3.org/2000/svg" width="48" height="48" viewBox="0 -960 960 960"><path d="M450-544.07v-227.84q0-14.68 9.7-24.49 9.69-9.82 24.37-9.82h367.84q14.68 0 24.49 9.82 9.82 9.81 9.82 24.49v227.84q0 14.68-9.82 24.37-9.81 9.7-24.49 9.7H484.07q-14.68 0-24.37-9.7-9.7-9.69-9.7-24.37ZM74.02-188.09v-227.84q0-14.68 9.7-24.37 9.69-9.7 24.37-9.7h328.08q14.68 0 24.37 9.7 9.7 9.69 9.7 24.37v227.84q0 14.68-9.7 24.37-9.69 9.7-24.37 9.7H108.09q-14.68 0-24.37-9.7-9.7-9.69-9.7-24.37Zm0-355.98v-227.84q0-14.68 9.7-24.49 9.69-9.82 24.37-9.82h247.84q14.68 0 24.37 9.82 9.7 9.81 9.7 24.49v227.84q0 14.68-9.7 24.37-9.69 9.7-24.37 9.7H108.09q-14.68 0-24.37-9.7-9.7-9.69-9.7-24.37Zm444.11-34.06h299.96v-159.96H518.13v159.96ZM141.91-221.91h260.2v-159.96h-260.2v159.96Zm0-356.22h179.96v-159.96H141.91v159.96Zm376.22 0ZM402.11-381.87Zm-80.24-196.26ZM624.5-145.39l-15.28 7.76q-11.72 5.48-24.06 1.62-12.33-3.86-19.57-14.58l-4.24-6.71q-7.48-11.72-5.36-24.06 2.12-12.34 12.84-20.81l14.28-11.29q-6-19.52-6-40.42 0-20.9 6-40.42l-14.28-11.29q-10.48-8.48-12.72-21.31-2.24-12.84 5.24-24.56l4.24-6.71q7.24-11.48 19.45-14.84 12.22-3.36 24.18 1.88l15.28 7.52q16.28-13.52 34.3-24.16 18.03-10.64 38.55-16.4l3-21.05q2-11.71 10.6-20.31 8.59-8.6 20.55-8.6h7.96q11.71 0 20.93 7.86 9.22 7.86 11.22 19.81l1.76 22.29q20.52 5.76 38.66 16.4 18.14 10.64 34.43 24.16l16.04-7.52q11.72-5.24 23.93-1.88 12.22 3.36 19.46 14.84l4.48 6.71q7.48 11.48 4.86 24.44-2.62 12.95-13.34 21.43l-14.28 11.29q6 19.52 6 40.42 0 20.9-6 40.42l15.28 11.29q10.72 8.47 12.84 20.93 2.12 12.46-5.36 23.94l-4 6.71q-7.48 10.72-19.94 14.58-12.45 3.86-23.93-1.62l-16.04-7.76q-15.53 14.52-34.05 25.4-18.52 10.88-39.04 16.4l-1.76 21.29q-2 11.95-11.34 19.81-9.34 7.86-21.05 7.86h-7.72q-11.96 0-20.55-8.36-8.6-8.36-10.6-20.31l-3-20.29q-20.52-5.52-38.93-16.4-18.4-10.88-33.92-25.4Zm182.64-38.19q29.64-29.64 29.64-71.04 0-41.4-29.64-71.04-29.64-29.64-71.04-29.64-41.4 0-71.05 29.64-29.64 29.64-29.64 71.04 0 41.4 29.64 71.04 29.65 29.65 71.05 29.65t71.04-29.65Z"/></svg>