<svg xmlns="http://www.w3.org/2000/svg" width="48" height="48" viewBox="0 96 960 960"><path d="M735.935 831.935v-511.87H630q-14.424 0-24.245-9.871-9.82-9.871-9.82-24.369 0-14.499 9.82-24.195 9.821-9.695 24.245-9.695h105.935q28.098 0 48.114 20.016t20.016 48.114v511.87q0 28.098-20.016 48.114t-48.114 20.016H630q-14.424 0-24.245-9.871-9.82-9.871-9.82-24.369 0-14.499 9.82-24.195 9.821-9.695 24.245-9.695h105.935Zm-511.87 0H330q14.424 0 24.245 9.871 9.82 9.871 9.82 24.369 0 14.499-9.82 24.195-9.821 9.695-24.245 9.695H224.065q-28.098 0-48.114-20.016t-20.016-48.114v-511.87q0-28.098 20.016-48.114t48.114-20.016H330q14.424 0 24.245 9.871 9.82 9.871 9.82 24.369 0 14.499-9.82 24.195-9.821 9.695-24.245 9.695H224.065v511.87Z"/></svg>