<svg xmlns="http://www.w3.org/2000/svg" width="48" height="48" viewBox="0 -960 960 960"><path d="M186.43-194.02q-27.59 0-47.86-20.27-20.27-20.26-20.27-47.86V-675q-14.91 0-24.6-9.87-9.7-9.87-9.7-24.35 0-14.48 9.82-24.31 9.82-9.84 24.57-9.84h127.78v-11.55q0-14.39 9.53-23.92 9.52-9.53 24.06-9.53h74.28q14.28 0 23.93 9.66 9.66 9.65 9.66 23.93v11.41H515.5q14.42 0 24.24 10.01 9.83 10.01 9.83 24.49 0 14.48-9.83 24.17-9.82 9.7-24.24 9.7v412.85q0 27.6-20.34 47.86-20.33 20.27-48.03 20.27h-260.7Zm448.83-27.85q-13.26 0-22.23-9.03-8.96-9.04-8.96-22.43 0-13.4 8.93-22.28 8.94-8.89 22.44-8.89h84.96q13.4 0 22.47 9.06 9.06 9.06 9.06 22.46 0 13.39-9.06 22.25t-22.45 8.86h-85.16Zm.24-186.63q-13.56 0-22.5-9.03-8.93-9.04-8.93-22.44 0-13.4 8.93-22.4 8.94-9 22.5-9h175q13.36 0 22.4 9.18 9.03 9.17 9.03 22.57t-9.03 22.26q-9.04 8.86-22.4 8.86h-175Zm-.24-186.87q-13.26 0-22.23-9.13-8.96-9.13-8.96-22.45 0-13.32 8.96-22.19Q622-658 635.26-658H855.5q13.22 0 22.33 9.02 9.1 9.02 9.1 22.36 0 13.33-9.1 22.29-9.11 8.96-22.33 8.96H635.26Z"/></svg>