<svg xmlns="http://www.w3.org/2000/svg" width="48" height="48" viewBox="0 -960 960 960"><path d="m826.783-42.108-239.109-237.87H348.348q-28.448 0-48.409-19.961t-19.961-48.409v-239.326L50.869-816.783q-9.478-8.739-9.478-22.137t9.185-22.826q9.716-9.428 22.689-9.428 12.972 0 22.443 9.403l775.749 775.75q9.239 9.478 9.478 21.956.239 12.478-9.239 22.348-9.478 9.087-22.576 9.087t-22.337-9.478Zm-304.848-306.24L348.348-521.935v173.587h173.587Zm158.326-16.261-68.37-68.13v-179.152H432.739l-68.13-68.37h247.282q28.448 0 48.409 19.961t19.961 48.409v247.282ZM313.868-777.848q-14.367 0-24.128-9.963-9.762-9.964-9.762-24.37t9.964-24.221q9.963-9.816 24.369-9.816t24.222 10.006q9.815 10.006 9.815 24.474 0 14.367-10.006 24.129-10.005 9.761-24.474 9.761Zm165.957 0q-14.499 0-24.195-9.963-9.695-9.964-9.695-24.37t9.871-24.221q9.871-9.816 24.369-9.816 14.499 0 24.195 10.006 9.695 10.006 9.695 24.474 0 14.367-9.871 24.129-9.871 9.761-24.369 9.761Zm166.103 0q-14.406 0-24.222-9.963-9.815-9.964-9.815-24.37t10.006-24.221q10.006-9.816 24.474-9.816 14.367 0 24.129 10.006 9.761 10.006 9.761 24.474 0 14.367-9.963 24.129-9.964 9.761-24.37 9.761Zm165.81 0q-14.367 0-24.129-9.963-9.761-9.964-9.761-24.37t9.963-24.221q9.964-9.816 24.37-9.816t24.221 10.006q9.816 10.006 9.816 24.474 0 14.367-10.006 24.129-10.006 9.761-24.474 9.761ZM147.819-611.891q-14.406 0-24.102-10.006-9.695-10.006-9.695-24.474 0-14.367 9.915-24.129 9.915-9.761 24.25-9.761t24.15 9.963q9.815 9.964 9.815 24.37t-9.963 24.222q-9.964 9.815-24.37 9.815Zm663.919 0q-14.367 0-24.129-10.006-9.761-10.006-9.761-24.474 0-14.367 9.963-24.129 9.964-9.761 24.37-9.761t24.221 9.963q9.816 9.964 9.816 24.37t-10.006 24.222q-10.006 9.815-24.474 9.815ZM147.819-445.935q-14.406 0-24.102-9.871-9.695-9.871-9.695-24.369 0-14.499 9.915-24.195 9.915-9.695 24.25-9.695t24.15 9.871q9.815 9.871 9.815 24.369 0 14.499-9.963 24.195-9.964 9.695-24.37 9.695Zm663.919 0q-14.367 0-24.129-9.871-9.761-9.871-9.761-24.369 0-14.499 9.963-24.195 9.964-9.695 24.37-9.695t24.221 9.871q9.816 9.871 9.816 24.369 0 14.499-10.006 24.195-10.006 9.695-24.474 9.695ZM147.819-279.978q-14.406 0-24.102-9.964-9.695-9.963-9.695-24.369t9.915-24.222q9.915-9.815 24.25-9.815t24.15 10.006q9.815 10.005 9.815 24.474 0 14.367-9.963 24.128-9.964 9.762-24.37 9.762Zm663.919 0q-14.367 0-24.129-9.964-9.761-9.963-9.761-24.369t9.963-24.222q9.964-9.815 24.37-9.815t24.221 10.006q9.816 10.005 9.816 24.474 0 14.367-10.006 24.128-10.006 9.762-24.474 9.762ZM147.819-114.022q-14.406 0-24.102-9.915-9.695-9.915-9.695-24.25t9.915-24.15q9.915-9.815 24.25-9.815t24.15 9.963q9.815 9.964 9.815 24.37t-9.963 24.102q-9.964 9.695-24.37 9.695Zm166.049 0q-14.367 0-24.128-9.915-9.762-9.915-9.762-24.25t9.964-24.15q9.963-9.815 24.369-9.815t24.222 9.963q9.815 9.964 9.815 24.37t-10.006 24.102q-10.005 9.695-24.474 9.695Zm165.957 0q-14.499 0-24.195-9.915-9.695-9.915-9.695-24.25t9.871-24.15q9.871-9.815 24.369-9.815 14.499 0 24.195 9.963 9.695 9.964 9.695 24.37t-9.871 24.102q-9.871 9.695-24.369 9.695Zm166.103 0q-14.406 0-24.222-9.915-9.815-9.915-9.815-24.25t10.006-24.15q10.006-9.815 24.474-9.815 14.367 0 24.129 9.963 9.761 9.964 9.761 24.37t-9.963 24.102q-9.964 9.695-24.37 9.695Z"/></svg>