<svg xmlns="http://www.w3.org/2000/svg" width="48" height="48" viewBox="0 96 960 960"><path d="M376.826 984.848q-22.512 0-31.267-21.011-8.755-21.011 7.398-37.163l63.934-64.696H140q-27.216 0-46.597-19.381T74.022 796V276q0-27.147 19.38-46.682 19.382-19.536 46.598-19.536h680q27.147 0 46.682 19.536 19.536 19.535 19.536 46.682v520q0 27.216-19.536 46.597-19.535 19.381-46.682 19.381H543.348l63.695 64.696q16.153 16.152 7.398 37.163-8.755 21.011-31.267 21.011H376.826ZM142.152 700h675.696V278.152H142.152V700Zm0 0V278.152 700Z"/></svg>