<svg xmlns="http://www.w3.org/2000/svg" width="48" height="48" viewBox="0 96 960 960"><path d="m438 852.674 144.891-145.13q10.263-10.427 24.523-10.811 14.26-.385 24.456 9.939 10.195 10.324 10.195 24.489 0 14.165-10.195 24.361L462.109 925.283q-10.283 10.435-24.152 10.435-13.87 0-24.066-10.435l-85.761-85.761q-10.195-10.217-9.695-24t10.695-24.349q10.196-9.825 23.87-9.825 13.674 0 23.87 10.196l61.13 61.13ZM300.043 399.109l18 60h324.181l17.733-60H300.043Zm18 128.37q-22.847 0-40.989-13.658-18.141-13.658-24.619-35.756l-24.283-78.956h-53.174q-28.349 0-48.24-19.891-19.89-19.891-19.89-48.24v-128.37h746.544v128.37q0 28.599-19.961 48.365-19.962 19.766-48.409 19.766h-53.174l-28.326 81.478q-7.103 20.869-25.173 33.88-18.07 13.012-40.675 13.012H318.043Z"/></svg>