<svg xmlns="http://www.w3.org/2000/svg" width="48" height="48" viewBox="0 -960 960 960"><path d="m300.043-656.891 18 60h324.181l17.733-60H300.043Zm18 128.37q-22.847 0-40.989-13.658-18.141-13.658-24.619-35.756l-24.283-78.956h-53.174q-28.349 0-48.24-19.891-19.89-19.891-19.89-48.24v-60q0-28.447 19.89-48.409 19.891-19.961 48.24-19.961h610.044q28.447 0 48.409 19.961 19.961 19.962 19.961 48.409v60q0 28.349-19.961 48.24-19.962 19.891-48.409 19.891h-53.174l-28.326 81.478q-7.103 20.869-25.173 33.88-18.07 13.012-40.675 13.012H318.043ZM480-106.848q-88.957 0-170.294-33.837Q228.37-174.521 165.891-238q-5.478-5.239-7.598-11.264-2.119-6.026-2.119-12.25 0-13.607 9.098-23.079 9.098-9.472 22.968-9.472 7.564 0 13.043 2.359 5.478 2.358 10.717 7.358 53.6 54.126 122.845 83.542 69.245 29.415 144.916 29.415 76.491 0 145.859-28.902 69.368-28.901 123.38-83.055 3.906-3.989 9.765-6.733 5.858-2.745 12.442-2.745 13.358 0 22.988 9.608 9.631 9.608 9.631 22.931 0 6.425-2.744 12.284-2.745 5.858-6.734 10.003-63.718 62.479-144.554 96.815Q568.957-106.848 480-106.848Zm.063-164.543q-56.178 0-107.501-21-51.323-21-90.562-61.044-4.717-4.478-7.196-10.43-2.478-5.953-2.478-12.366 0-12.791 9.232-22.508 9.233-9.717 22.485-9.717 6.392 0 12.251 2.239 5.858 2.239 10.336 7.478 30.522 30.804 70.242 46.685 39.719 15.88 82.969 15.88 43.25 0 83.033-15.761t70.735-46.804q5.239-5.239 10.847-7.478 5.609-2.239 11.74-2.239 12.699 0 22.469 9.738 9.77 9.738 9.77 23.078 0 6.91-3.103 12.985-3.104 6.076-7.571 10.22-39.239 39.044-90.499 60.044-51.261 21-107.199 21Z"/></svg>