<svg xmlns="http://www.w3.org/2000/svg" width="48" height="48" viewBox="0 96 960 960"><path d="M262.63 923.37v30h434.74v-30H262.63Zm0-694.74h434.74v-30H262.63v30ZM194.5 351.435V198.63q0-26.599 20.766-47.364Q236.031 130.5 262.63 130.5h434.74q26.599 0 47.364 20.766Q765.5 172.031 765.5 198.63v152.805h-68.13V288.63H262.63v62.805H194.5Zm68.13 670.065q-26.599 0-47.364-20.27-20.766-20.261-20.766-47.86V788.565h68.13v74.805h434.74v-74.805h68.13V953.37q0 27.599-20.766 47.86-20.765 20.27-47.364 20.27H262.63Zm334.283-287.848q-8.967-9.478-9.342-22.076t9.103-22.076l113.5-113.5-113.5-113.5q-9.478-9.478-8.978-22.076t9.467-22.196q9.351-9.378 22.268-9.629 12.917-.251 22.156 8.988L776.13 552.13q5.435 5.383 7.816 11.369 2.38 5.985 2.38 12.634 0 6.65-2.38 12.502-2.381 5.852-7.816 11.235L641.587 734.413q-9.417 9.239-22.426 8.859-13.009-.381-22.248-9.62Zm-278.5.761L183.87 599.87q-5.435-5.383-7.816-11.369-2.38-5.985-2.38-12.634 0-6.65 2.38-12.502 2.381-5.852 7.816-11.235l134.543-134.543q9.417-9.239 22.426-8.859 13.009.381 22.487 9.62 8.728 9.478 9.103 22.076t-9.103 22.076L249.826 576l113.5 113.5q9.478 9.478 8.978 22.076t-9.228 22.196q-9.414 9.378-22.419 9.629-13.005.251-22.244-8.988ZM262.63 953.37v-30 30Zm0-754.74v30-30Z"/></svg>