<svg xmlns="http://www.w3.org/2000/svg" width="48" height="48" viewBox="0 -960 960 960"><path d="m249.826-480 113.5 113.5q9.478 9.478 9.098 22.076-.381 12.598-9.348 22.196-9.478 9.598-22.331 9.859-12.854.26-22.332-9.218L184.109-455.891q-10.196-10.37-10.196-24.196 0-13.826 10.196-24.022l134.304-134.304q9.545-9.478 22.49-9.098 12.945.381 22.423 9.859 8.967 9.478 9.223 22.076.255 12.598-9.223 22.076L249.826-480ZM194.5-267.435h68.13v74.805h434.74v-74.805h68.13v164.805q0 27.599-20.266 47.864Q724.969-34.5 697.37-34.5H262.63q-27.599 0-47.864-20.266Q194.5-75.03 194.5-102.63v-164.805Zm68.13-437.13H194.5V-857.37q0-27.599 20.266-47.864Q235.031-925.5 262.63-925.5h434.74q27.599 0 47.864 20.266Q765.5-884.969 765.5-857.37v152.805h-68.13v-62.805H262.63v62.805Zm0 571.935v30h434.74v-30H262.63Zm0-694.74h434.74v-30H262.63v30ZM710.174-480l-113.5-113.5q-9.478-9.478-9.098-22.076.381-12.598 9.348-22.196 9.478-9.598 22.331-9.859 12.854-.26 22.332 9.218l134.304 134.304q10.196 10.37 10.196 24.196 0 13.826-10.196 24.022L641.587-321.587q-9.545 9.478-22.49 9.098-12.945-.381-22.423-9.859-8.967-9.478-9.223-22.076-.255-12.598 9.223-22.076l113.5-113.5ZM262.63-827.37v-30 30Zm0 694.74v30-30Z"/></svg>