<svg xmlns="http://www.w3.org/2000/svg" width="48" height="48" viewBox="0 -960 960 960"><path d="M182.152-114.022q-27.587 0-47.859-20.271-20.271-20.272-20.271-47.859v-595.696q0-27.587 20.271-47.978 20.272-20.392 47.859-20.392h595.696q27.587 0 47.978 20.392 20.392 20.391 20.392 47.978v595.696q0 27.587-20.392 47.859-20.391 20.271-47.978 20.271H182.152ZM480-780v243.152q0 10.196 8.576 15.293 8.576 5.098 17.772-.38l54.739-32.891q8.717-5.478 16.913-5.478t16.913 5.478l54.978 32.891q8.957 5.478 17.533.38Q676-526.652 676-536.848V-780H480Z"/></svg>