<svg xmlns="http://www.w3.org/2000/svg" width="48" height="48" viewBox="0 -960 960 960"><path d="M262.39-34.02q-28.45 0-48.41-19.89-19.96-19.89-19.96-48.24v-755.7q0-27.7 20.34-48.03 20.33-20.34 48.03-20.34h433.22q28.45 0 48.41 19.96 19.96 19.96 19.96 48.41v261.63q0 14.43-9.82 24.25t-24.25 9.82h-83.3q-22.77 0-39.25 13.85-16.48 13.86-21.66 35.82l-12.24 62.33q-41.24 32.63-64.24 80.55-23 47.93-23 101.51 0 51.48 22.62 101.2 22.62 49.72 64.62 81.01 2.24 12.66 5.28 26.01 3.04 13.35 5.19 25.85H262.39ZM479-715.22q12.72 0 22.08-9.36 9.35-9.35 9.35-22.07t-9.35-22.08q-9.36-9.36-22.08-9.36-12.72 0-22.08 9.36-9.35 9.36-9.35 22.08 0 12.72 9.35 22.07 9.36 9.36 22.08 9.36Zm194.28 681.2q-12.21 0-21.75-7.36-9.53-7.35-12.31-19.75L627.7-120.7q-38.24-23.71-59.86-62.82-21.62-39.11-21.62-84.57 0-45.45 21.62-84.56t59.86-62.83l11.52-59.56q2.7-12.32 12.28-19.72 9.58-7.39 21.78-7.39h94q12.13 0 21.59 7.35 9.45 7.36 12.24 19.76l11.76 59.56q38.24 23.72 59.86 62.83 21.62 39.11 21.62 84.56 0 45.46-21.62 84.57-21.62 39.11-59.86 62.82l-11.76 59.57q-2.79 12.4-12.24 19.75-9.46 7.36-21.59 7.36h-94Zm46.86-126.46q45.19 0 76.47-31.14t31.28-76.33q0-45.18-31.14-76.46-31.14-31.29-76.33-31.29-45.18 0-76.46 31.15-31.29 31.14-31.29 76.32 0 45.19 31.15 76.47 31.14 31.28 76.32 31.28Z"/></svg>