<svg xmlns="http://www.w3.org/2000/svg" width="48" height="48" viewBox="0 -960 960 960"><path d="M813.913-59.891 655.826-216.978 528.739-89.891q-9.195 8.956-22.216 13.554-13.02 4.598-26.489 4.598-13.469 0-26.523-4.598-13.055-4.598-22.25-13.554l-341.37-341.37q-8.956-9.195-13.554-22.274-4.598-13.079-4.598-26.609 0-13.53 4.598-26.465t13.554-22.13l127.087-127.087L47-826.043q-9.24-9.306-8.859-22.49.38-13.184 9.698-22.424 9.317-9.239 22.456-9.239 13.14 0 22.379 9.239l766.152 766.914q9.239 9.521 9.239 22.217 0 12.696-9.317 21.935-9.317 9.239-22.456 9.239-13.14 0-22.379-9.24ZM607.087-265.957l-71.565-72.565L501-304q-9 9-21 8.5t-21-9.5q-9-9-9-21.5t9-21.5l33.761-33.522L422.946-450H313q-12.75 0-21.375-8.675-8.625-8.676-8.625-21.5 0-12.825 8.625-21.325T313-510h50.043l-97.086-97.087L139.109-480 480-139.109l127.087-126.848ZM888.5-480.03q0 13.465-4.598 26.487-4.598 13.022-13.793 22.282L769.283-330.435Q758.848-320 745.294-320.62q-13.555-.619-23.75-11.054-10.435-10.196-10.435-24.37 0-14.174 10.435-24.608L820.891-480 480-820.891 379.413-720.304q-10.435 10.434-23.989 9.815-13.554-.62-23.75-11.055-10.435-10.195-10.435-24.369t10.435-24.609l99.587-99.587q9.253-9.195 22.317-13.793 13.065-4.598 26.581-4.598 13.515 0 26.453 4.598 12.937 4.598 22.127 13.793l341.37 341.37q9.195 9.212 13.793 22.228 4.598 13.016 4.598 26.481Zm-276.391 39.921 20.087-20.087q8.043-9.092 7.804-20.517-.239-11.425-9-20.287L476-656q-8.761-8.761-20.283-8.88-11.521-.12-20.521 7.923-8.602 8.522-8.203 20.424.398 11.903 9.637 20.185l175.479 176.239Zm-86-86Zm-89.587 89.587Z"/></svg>