<svg xmlns="http://www.w3.org/2000/svg" width="48" height="48" viewBox="0 -960 960 960"><path d="M149.304-201.674 78.891-447.195q-4.956-15.827 1.141-29.957Q86.13-491.283 100.043-496l53.979-18.326V-740q0-27.391 19.293-45.946Q192.609-804.5 220-805.5h144.022v-85.935q0-14.424 9.82-24.244 9.821-9.821 24.245-9.821h163.826q14.424 0 24.364 9.821 9.941 9.82 9.941 24.244v85.935H740q27.141 0 46.679 19.179 19.539 19.18 19.539 46.321v226.674L861.196-496q11.717 4.239 18.413 17.511 6.695 13.272 1.5 30.294l-70.174 246.521q-40.674-4-76.489-20.402-35.816-16.402-65.533-39.685-6.478-4.522-13.414-6.522-6.935-2-14.098-1.76-7.401 0-14.213 2.842-6.811 2.841-12.623 8.158-28.715 25.13-62.76 41.25-34.044 16.119-71.805 16.119-37.761 0-71.805-16.119-34.045-16.12-62.76-41.25-5.925-5.317-12.872-8.158-6.946-2.842-13.994-2.842-7.286-.24-14.145 1.76t-13.098 6.522q-29.956 23.283-65.772 39.685-35.815 16.402-76.25 20.402ZM114.065-34.5q-14.424 0-24.244-9.871Q80-54.242 80-68.741q0-14.498 9.82-24.194 9.821-9.695 24.245-9.695H160q35.78 0 70.292-9.381 34.512-9.38 66.512-26.902 5-2.239 11.004-3.859 6.003-1.619 12.192-1.619t12.192 1.619q6.004 1.62 11.004 3.859 32 16.761 67.021 25.522 35.022 8.761 69.783 8.761t69.783-8.761q35.021-8.761 67.021-25.522 5-2.239 11.004-3.859 6.003-1.619 12.192-1.619t12.192 1.619q6.004 1.62 11.004 3.859 32 17.522 66.512 26.902Q764.22-102.63 800-102.63h45.935q14.424 0 24.244 9.87Q880-82.887 880-68.39q0 14.499-9.821 24.194-9.82 9.696-24.244 9.696H800q-41 0-81-10.38T640-75.5q-39 20.24-80 30.62-41 10.38-80 10.38t-80-10.38q-41-10.38-80-30.62-39 20.24-79 30.62-40 10.38-81 10.38h-45.935Zm108.087-500.978 236.457-76.087q10.353-3.478 21.47-3.478 11.117 0 21.551 3.478l236.218 77.087V-737.37H222.152v201.892Z"/></svg>