<svg xmlns="http://www.w3.org/2000/svg" width="48" height="48" viewBox="0 96 960 960"><path d="M182.152 941.978q-28.348 0-48.239-19.891t-19.891-48.239V278.152q0-28.348 19.891-48.359 19.891-20.011 48.239-20.011h595.696q28.348 0 48.359 20.011 20.011 20.011 20.011 48.359v595.696q0 28.348-20.011 48.239t-48.359 19.891H182.152Zm131.891-200.021q9.479 9.478 21.957 9.478 12.478 0 21.957-9.478L480 619.913l122.043 122.044q9.479 9.478 21.957 9.478 12.478 0 21.957-9.478 9.478-9.479 9.478-21.957 0-12.478-9.478-21.957L523.913 576l122.044-122.043q9.478-9.479 9.478-21.957 0-12.478-9.478-21.957-9.479-9.478-21.957-9.478-12.478 0-21.957 9.478L480 532.087 357.957 410.043q-9.479-9.478-21.957-9.478-12.478 0-21.957 9.478-9.478 9.479-9.478 21.957 0 12.478 9.478 21.957L436.087 576 314.043 698.043q-9.478 9.479-9.478 21.957 0 12.478 9.478 21.957Z"/></svg>