<svg xmlns="http://www.w3.org/2000/svg" width="48" height="48" viewBox="0 0 48 48"><path d="M24 44.6q-5.8 0-9.475-1.7t-3.675-4.4q0-1.45 1.3-2.75t3.6-2.15L17 36.8q-.85.25-1.6.725-.75.475-1.2.975.9 1.1 3.8 1.9 2.9.8 6 .8t6.025-.8q2.925-.8 3.875-1.9-.5-.45-1.225-.925-.725-.475-1.575-.775l1.15-3.2q2.3.85 3.6 2.175 1.3 1.325 1.3 2.725 0 2.7-3.675 4.4Q29.8 44.6 24 44.6Zm0-5.7q-.65 0-1.175-.375T22.1 37.5q-1.15-3.55-2.975-5.975Q17.3 29.1 15.55 26.85q-1.7-2.25-2.95-4.7-1.25-2.45-1.25-6 0-5.3 3.675-8.975T24 3.5q5.3 0 8.975 3.675t3.675 8.975q0 3.55-1.25 6t-2.95 4.7q-1.75 2.25-3.575 4.675Q27.05 33.95 25.9 37.5q-.2.65-.725 1.025-.525.375-1.175.375Zm0-19.7q1.25 0 2.15-.875.9-.875.9-2.175 0-1.25-.9-2.125T24 13.15q-1.25 0-2.15.875-.9.875-.9 2.125 0 1.3.9 2.175.9.875 2.15.875Z"/></svg>