<svg xmlns="http://www.w3.org/2000/svg" width="48" height="48" viewBox="0 -960 960 960"><path d="M341-64.609q-48.478 0-85.837-28.5t-52.837-73.739q-16 27.674-39.956 42.892-23.957 15.217-57.153 15.217-47.956 0-79.674-33.717-31.717-33.718-31.717-79.674 0-50.674 31.935-80.131 31.935-29.456 80.848-29.5-18.24-20-28.12-46.619-9.88-26.62-9.88-53.859 0-19.478 4.739-37.196 4.739-17.717 14.217-34.195 7.478-11.718 20.555-15.337 13.076-3.62 24.793 3.858 11.957 7.479 15.457 20.555t-3.979 24.793q-5.239 9-8.119 18.881-2.881 9.88-2.881 20.88 0 56.804 44.142 72.326 44.141 15.522 88.184 23.283 5.479 1 9.718 4.358 4.239 3.359 6.478 7.837 2.478 4.239 2.978 9.218.5 4.978-1.739 10.456-10.761 30.326-17.261 50.826t-6.5 39.218q0 33.043 24.663 58.065T342-129.391q35.043 0 59.326-26.544 24.283-26.543 40.424-64.848 16.141-38.304 26.022-81.228 9.88-42.924 16.119-76.445 2.239-13.957 13.337-21.316 11.098-7.358 24.055-4.119 13.956 4.239 20.554 16.695 6.598 12.457 3.359 27.414-9.239 44-22.098 95.902-12.859 51.902-35.598 96.184-22.739 44.283-57.739 73.685T341-64.609Zm276.761 1q-13.718-1-23.435-10.217-9.717-9.218-8.717-23.174 1-13.957 10.597-23.554 9.598-9.598 23.555-8.598 34.282 0 58.065-25.142 23.783-25.141 23.783-58.184 0-19.718-7.239-41.337-7.24-21.62-17.761-51.946-2-4.239-1.5-8.717.5-4.479 2.739-8.718t5.598-6.598q3.358-2.358 8.597-3.358 44.283-8 89.924-23.022 45.642-15.022 45.642-72.826 0-43.043-31.403-63.826-31.402-20.783-69.684-20.783-38.239 0-87.022 12.642-48.783 12.641-108 31.206-13.717 4.478-26.315-1t-15.837-18.435q-3.478-13.717 4.619-25.674 8.098-11.956 22.816-17.195 60.934-19.805 112.597-33.065 51.663-13.261 96.903-13.261 65.195 0 115.652 38.978Q892.391-500.435 892.391-430q0 27-9.88 53.12-9.881 26.119-27.881 46.119 47.674.044 80.229 30 32.554 29.957 32.554 79.631 0 45.956-31.717 79.674-31.718 33.717-79.674 33.717-32.196 0-57.272-15.337t-40.076-43.011q-16.478 45.478-53.957 73.978-37.478 28.5-86.956 28.5ZM374.152-393.783q-71.782-65.26-119.163-122-47.38-56.739-47.38-123.217 0-60.957 42.717-103.674Q293.043-785.391 354-785.391q8.522 0 16.641.5 8.12.5 15.402 2.261-9.717-17.479-14.076-30.316-4.358-12.837-4.358-25.793 0-46.957 32.717-79.674 32.717-32.718 79.674-32.718 46.957 0 79.674 32.718 32.717 32.717 32.717 79.674 0 11.956-3.858 25.293-3.859 13.337-14.576 31.055 7.76-1.761 15.402-2.381 7.641-.619 16.641-.619 27.957 0 51.935 9.478t43.456 25.717q10.479 8.957 11.598 21.794 1.12 12.837-7.837 23.554-8.956 10.718-21.793 11.218t-23.316-8.457q-10.521-8.761-24.021-13.641-13.5-4.881-30.022-4.881-35.761 0-57.12 19.837-21.358 19.837-53.206 57.446-3.239 4.478-7.837 6.217-4.598 1.739-9.076 1.739-4.239 0-8.218-1.739-3.978-1.739-7.217-6.217-32.609-38.37-53.587-57.826-20.978-19.457-55.739-19.457-35.043 0-58.326 23.283T272.391-639q0 44.043 41.163 92.326 41.163 48.283 108.707 108.304 11.478 9.718 12.858 23.555 1.381 13.837-8.097 23.315-10.718 10.717-26.055 9.456-15.337-1.26-26.815-11.739Z"/></svg>