<svg xmlns="http://www.w3.org/2000/svg" width="48" height="48" viewBox="0 -960 960 960"><path d="M480.04-74.02q-86.24 0-160.43-31-74.19-31-128.89-85.7-54.7-54.7-85.7-128.89-31-74.19-31-160.43 0-68.93 20.24-130 20.24-61.07 56.96-112.03l-75.93-75.89q-9.22-9.26-9.34-22.26-.12-13 9.38-22.34 9.5-9.33 22.46-9.33 12.95 0 22.43 9.24l722.43 722.43q9.24 9.24 9.24 21.96t-9.21 21.96q-9.46 9.47-22.34 9.47-12.88 0-22.38-9.5l-75.89-74.89q-50.96 36.72-112.03 56.96-61.07 20.24-130 20.24Zm-120-440.41h-52.19q-13.82 0-22.63 8.81-8.81 8.81-8.81 22.62 0 12.57 8.92 22t21.52 9.43h115.82l-62.63-62.86Zm410.63 232.65L600.65-451.57h56.28q11.57-1.67 18.99-10.29 7.43-8.62 7.43-21.14 0-12.57-8.85-22-8.86-9.43-21.59-9.43H537.78l-256-256.24q-15.91-15.68-13.19-37.81 2.71-22.13 22.11-31.61 41.56-22.56 89.33-34.34 47.78-11.79 99.97-11.79 85.43 0 159.51 31.5 74.07 31.5 128.89 86.32 54.82 54.82 86.32 128.89 31.5 74.08 31.5 159.51 0 52.11-11.79 99.42-11.78 47.32-34.34 89.88-9.24 19.63-31.37 22.35-22.13 2.72-38.05-13.43Z"/></svg>