<svg xmlns="http://www.w3.org/2000/svg" width="48" height="48" viewBox="0 -960 960 960"><path d="m732.37-302.26-47.978-47.979 215.13-215.131q17.87 19.109 17.25 48.479-.619 29.37-18.25 47.239L732.37-302.26Zm-77.891-77.892L606.5-428.13l167.391-167.153-200.478-200.478-167.391 167.152-47.739-47.739L525.435-842.5q19.675-19.631 48.001-19.631 28.325 0 47.956 19.631l248.217 247.217-215.13 215.131Zm136.26 309.848L566.37-294.913 446.739-176.521q-9.195 9.195-21.764 14.793-12.568 5.598-26.214 5.598H84.739q-28.11 0-48.12-20.011-20.01-20.01-20.01-48.12V-279.5q0-26.293 12.468-46.252 12.468-19.958 35.684-28.357 18.913-6 45.608-18.641 26.696-12.641 55.413-35.641l50.473 50.711q4.824 4.876 11.416 4.876 6.592 0 11.177-5 5-4.346 5-10.818 0-6.473-4.898-11.512l-45.972-46.991q8.239-7.027 18.239-16.549 10-9.522 19.239-20.761l46.057 45.817q5.291 5.053 11.473 5.053t11.057-5q4-4 4.5-10.739.5-6.739-4.246-11.509l-47.406-47.383q9.239-10.761 17.859-23.521 8.62-12.761 11.859-22.761l54.046 56.193q4.361 4.72 10.563 4.481 6.201-.239 11.492-5.239 5.051-4.761 5.051-11.381 0-6.619-3.971-10.595L73.174-787.109q-9.478-9.598-9.478-22.294t9.097-21.777q9.62-9.081 22.262-9.081 12.642 0 21.793 9.239l717.804 716.805q9.479 9.478 9.359 22.02-.12 12.542-9.359 21.893-9.478 9.478-21.956 9.478t-21.957-9.478ZM86.499-288.83v64.569h-.119 312.381l119.391-119.63L413.674-448.37 279.478-313.935q-20.674 20.674-56.445 20.674-35.772 0-55.207-20.435l-8.739-9.282q-21.544 12-38.685 19.761-17.141 7.761-33.902 14.387Zm431.653-55.061Zm.348-172.479Z"/></svg>