<svg xmlns="http://www.w3.org/2000/svg" width="48" height="48" viewBox="0 96 960 960"><path d="m819.935 1002.41-97.87-97.627q-50.956 36.717-112.023 56.956-61.068 20.239-130.002 20.239-86.236 0-160.428-30.998-74.193-30.998-128.893-85.699-54.701-54.7-85.699-128.893-30.998-74.192-30.998-160.429 0-68.933 20.239-130.001 20.239-61.067 56.956-112.023l-97.63-97.87 44.674-44.674 766.348 766.348-44.674 44.671ZM360.043 541.565h-52.195q-13.813 0-22.624 8.811-8.811 8.811-8.811 22.624 0 12.574 8.92 22.004 8.92 9.431 21.515 9.431h115.826l-62.631-62.87Zm450.892 272.913L600.652 604.435h56.283q11.565-1.674 18.989-10.294 7.424-8.619 7.424-21.141 0-12.574-8.853-22.004-8.852-9.431-21.582-9.431h-115.13l-296.261-296.5q50.239-35.522 110.317-55.402Q411.916 169.782 480 169.782q85.435 0 159.508 31.499 74.073 31.498 128.893 86.318 54.82 54.82 86.318 128.893Q886.218 490.565 886.218 576q0 68.084-19.881 128.161-19.88 60.078-55.402 110.317Z"/></svg>