<svg xmlns="http://www.w3.org/2000/svg" width="48" height="48" viewBox="0 96 960 960"><path d="M436.623 982.022q-22.632 0-45.236-9.837-22.605-9.837-38.365-26.837l-249.74-264.217q-9.434-10.238-9.315-24.271.12-14.034 10.315-23.469l16.522-16.521q8.717-8.479 20.174-8.718 11.457-.239 21.174 5.239l119.239 67.239V477.348L73.174 268.891q-9.478-9.598-9.478-22.294t9.097-21.777q9.62-9.081 22.262-9.081 12.642 0 21.793 9.239l724.5 723.74q9.478 9.478 9.478 22.076t-9.239 22.218q-9.239 9.098-21.956 8.598-12.718-.5-21.957-8.979L759 953.718q-14.956 12.913-34.36 20.608-19.404 7.696-40.575 7.696H436.623Zm.986-65.739h246.456q6.196 0 14.533-2.359t13.815-6.554L346.891 542.087v193.239H244.174l154.435 164.196q6.478 7.478 17.097 12.12 10.62 4.641 21.903 4.641Zm361.478-95.065-65.5-65.261V611.978H589.848l-68.37-68.13h19q12.474.348 20.52-8.109 8.045-8.456 8.045-19.456V219.782q0-18.311 12.598-30.71 12.597-12.398 30.652-12.398t30.511 12.398q12.457 12.399 12.457 30.71v297.963q0 12.451 8.093 20.592 8.094 8.141 20.711 8.141 12.522 0 20.783-8.093 8.261-8.094 8.261-20.711V301.935q0-18.073 12.439-30.591 12.44-12.518 30.81-12.518 18.055 0 30.392 12.399 12.337 12.398 12.337 30.71v519.283ZM511.435 533.565l-85.979-85.978v-269q0-17.996 12.478-30.552 12.478-12.557 30.652-12.557 18.175 0 30.512 12.557 12.337 12.556 12.337 30.552v354.978ZM367.609 389.739l-84.783-84.783v-52q.956-15.282 13.196-25.304 12.239-10.022 28.478-10.022 17.996 0 30.552 12.557 12.557 12.556 12.557 30.552v129Zm222.239 222.239Zm-57.696 115.131Z"/></svg>