<svg xmlns="http://www.w3.org/2000/svg" width="48" height="48" viewBox="0 96 960 960"><path d="M294.239 811.565q-6.956 0-12.674-2.239-5.717-2.239-11.195-7.717l-181.24-181q-10.195-10.196-9.695-25.37.5-15.174 9.695-24.369 11.196-11.196 24.37-10.696 13.174.5 23.37 10.696L294 728l48.739 48.739-24.63 24.87q-5.479 5.478-11.315 7.717-5.837 2.239-12.555 2.239Zm169.761-5.5q-6.717 0-12.554-2.358-5.837-2.359-11.316-7.837L258.891 614.63q-10.435-10.195-10.315-24.869.12-14.674 10.315-24.87 10.196-10.195 24.109-10.076 13.913.12 24.109 10.315L464 722.022 823.891 362.37q10.196-10.196 24.37-10.196 14.174 0 24.369 10.196 10.196 10.195 10.196 24.369t-10.196 24.37L487.87 795.87q-5.479 5.478-11.316 7.837-5.837 2.358-12.554 2.358Zm0-162.304-48.5-48.739 232.891-233.131q10.196-10.195 24.37-10.195 14.174 0 24.369 10.195 10.196 10.196 10.196 24.37 0 14.174-10.196 24.369L464 643.761Z"/></svg>