<svg xmlns="http://www.w3.org/2000/svg" width="48" height="48" viewBox="0 96 960 960"><path d="M369.196 607q14 0 24.5-10.5t10.5-24.5q0-14-10.5-24.5t-24.5-10.5q-14.239 0-24.62 10.5-10.38 10.5-10.38 24.5t10.38 24.5q10.381 10.5 24.62 10.5Zm220.847 0q14 0 24.5-10.5t10.5-24.5q0-14-10.5-24.5t-24.5-10.5q-14.239 0-24.619 10.5-10.381 10.5-10.381 24.5t10.381 24.5q10.38 10.5 24.619 10.5ZM159.022 941.978q-13.913 0-24.109-9.871-10.196-9.871-10.196-24.369 0-14.499 9.821-24.195 9.821-9.695 24.484-9.695V277.152q0-28.035 20.265-47.702 20.266-19.668 47.865-19.668H463.89v664.066H494V209.782h236.848q27.697 0 48.033 19.668 20.337 19.667 20.337 47.702v596.696q14.673 0 24.369 9.871t9.696 24.37q0 14.498-9.821 24.194-9.821 9.695-24.244 9.695H159.022Z"/></svg>