<svg xmlns="http://www.w3.org/2000/svg" width="48" height="48" viewBox="0 -960 960 960"><path d="M480.478-231.391q-81.152 0-146.945-47.337-65.794-47.337-89.99-125.011-3.478-11.717 2.761-22.674 6.239-10.957 19.435-14.674 12.957-3.478 25.152 3.261 12.196 6.739 17.913 20.696 19.239 54 66.218 87.119 46.978 33.12 105.456 33.12 75.957 0 129.294-53.337 53.337-53.337 53.337-129.533 0-57.239-32.881-104.598-32.88-47.358-86.88-66.837-14.957-5.717-21.076-17.913-6.12-12.195-2.402-25.152 3.717-12.957 15.032-19.076 11.316-6.12 23.033-2.163 76.196 24.435 123.435 89.37 47.239 64.934 47.239 146.369 0 103.587-72.391 175.979-72.392 72.391-175.74 72.391Zm0 162.63q-167.065 0-285.935-115.011-118.87-115.01-124.826-282.315-.239-12.956 8.978-22.174 9.218-9.217 22.414-10.217 13.195-1.239 23.532 8.598 10.337 9.837 11.337 24.032Q147.456-317.978 242.913-226q95.457 91.978 237.565 91.978 144.152 0 244.826-100.674t100.674-245.065q0-139.674-94.576-237.609-94.576-97.934-238.011-106.652-14.195-1.239-23.032-11.076t-8.598-24.033q0-12.956 9.217-21.674 9.218-8.717 22.174-8.478 83.152 2.478 155.826 35.935 72.674 33.457 126.37 88.772 53.696 55.315 84.794 128.609 31.097 73.293 31.097 156.206 0 85.391-32.337 160.305-32.337 74.913-87.891 130.467-55.554 55.554-130.467 87.891-74.914 32.337-160.066 32.337ZM378.456-501.674l-131.76-131-33.087 100.022q-4.479 12.434-17.033 11.934-12.554-.5-16.033-12.934l-96.087-321.5q-2.478-9.196 4.86-16.533 7.336-7.337 16.532-5.098l321.739 96.326q12.195 3.479 12.695 16.033.5 12.554-11.695 17.033l-100.261 33.087 132 131.76q17.478 17.479 17.478 40.435 0 22.957-17.478 40.435t-40.935 17.478q-23.456 0-40.935-17.478Z"/></svg>