<svg xmlns="http://www.w3.org/2000/svg" width="48" height="48" viewBox="0 96 960 960"><path d="M480.013 981.978q-84.209 0-158.258-31.926t-128.96-86.828q-54.91-54.901-86.842-128.958-31.931-74.058-31.931-158.26 0-84.202 31.978-158.278t86.815-128.913q54.837-54.837 128.904-86.935Q395.787 169.782 480 169.782h337.848q26.697 0 47.533 20.837 20.837 20.836 20.837 47.533V576q0 84.213-32.098 158.281-32.098 74.067-86.935 128.904T638.285 950q-74.063 31.978-158.272 31.978Zm-.013-68.13q141.418 0 239.633-98.215T817.848 576V238.152H480q-141.418 0-239.633 98.215T142.152 576q0 141.418 98.215 239.633T480 913.848ZM284 694h274v-87l126 87V460l-126 87v-87H284v234Zm196-118Z"/></svg>