<svg xmlns="http://www.w3.org/2000/svg" width="48" height="48" viewBox="0 -960 960 960"><path d="M352.63-278.565q-14.423 0-24.244-9.821t-9.821-24.244v-334.74q0-14.423 9.821-24.244t24.244-9.821H610q13.563 0 22.499 8.987 8.936 8.986 8.936 22.623 0 13.638-8.936 22.449-8.936 8.811-22.499 8.811H381.435v107.13H610q13.563 0 22.499 8.987 8.936 8.986 8.936 22.623 0 13.638-8.936 22.449-8.936 8.811-22.499 8.811H381.435v107.13H610q13.563 0 22.499 8.987 8.936 8.986 8.936 22.623 0 13.638-8.936 22.449-8.936 8.811-22.499 8.811H352.63Z"/></svg>