<svg xmlns="http://www.w3.org/2000/svg" width="48" height="48" viewBox="0 -960 960 960"><path d="M351.435-278.565q-13.946 0-23.408-9.462-9.462-9.462-9.462-23.408v-337.369q0-14.036 9.298-23.333 9.297-9.298 23.333-9.298H610q13.324 0 22.379 8.987 9.056 8.986 9.056 22.623 0 13.638-8.936 22.449-8.936 8.811-22.499 8.811H381.435v107.13H610q13.324 0 22.379 8.987 9.056 8.986 9.056 22.623 0 13.638-8.936 22.449-8.936 8.811-22.499 8.811H381.435v107.13H610q13.324 0 22.379 8.987 9.056 8.986 9.056 22.623 0 13.638-8.936 22.449-8.936 8.811-22.499 8.811H351.435Z"/></svg>