<svg xmlns="http://www.w3.org/2000/svg" width="48" height="48" viewBox="0 -960 960 960"><path d="M686.281-112.826q-47.303 0-80.379-33.169-33.076-33.17-33.076-80.418 0-46.674 33.208-80.13Q639.242-340 686.545-340t80.379 33.457Q800-273.087 800-226.033q0 47.055-33.208 80.131t-80.511 33.076ZM686.413-390q-9.674 0-16.631-6.957-6.956-6.956-6.956-16.734v-29.792q0-9.778 6.956-16.735 6.957-6.956 16.631-6.956t16.63 6.956Q710-453.261 710-443.483v29.792q0 9.778-6.957 16.734-6.956 6.957-16.63 6.957Zm0 327.174q9.674 0 16.63 6.957Q710-48.913 710-39.135v29.792q0 9.778-6.957 16.735-6.956 6.956-16.63 6.956t-16.631-6.956q-6.956-6.957-6.956-16.735v-29.792q0-9.778 6.956-16.734 6.957-6.957 16.631-6.957Zm114.391-278.967q-6.956-6.945-7.076-16.63-.119-9.686 7.076-16.642l22.239-22q6.805-6.718 16.316-6.837 9.511-.12 16.587 7.051 7.076 7.171 7.076 17t-6.957 16.808l-22 22q-7.195 7.195-16.75 6.695-9.554-.5-16.511-7.445ZM570.953-110.522q6.786 6.457 6.786 16.087 0 9.63-6.717 16.435l-22 22q-6.87 6.957-16.587 6.957-9.718 0-16.435-6.957-6.957-6.804-6.957-16.435 0-9.63 6.957-16.587l23-22q5.956-5.956 15.562-5.956 9.606 0 16.391 6.456ZM850-226.413q0-9.674 6.957-16.63Q863.913-250 873.691-250h29.792q9.778 0 16.735 6.957 6.956 6.956 6.956 16.63t-6.956 16.631q-6.957 6.956-16.735 6.956h-29.792q-9.778 0-16.734-6.956Q850-216.739 850-226.413Zm-327.174 0q0 9.674-6.957 16.631-6.956 6.956-16.734 6.956h-29.792q-9.778 0-16.735-6.956-6.956-6.957-6.956-16.631t6.956-16.63Q459.565-250 469.343-250h29.792q9.778 0 16.734 6.957 6.957 6.956 6.957 16.63Zm279.217 114.391q7.044-6.956 16.555-7.076 9.511-.119 16.467 7.076l22 22q6.718 6.87 6.718 16.468 0 9.598-6.578 16.554-6.74 7.196-16.472 7.196-9.733 0-16.69-7.196l-22-22q-7.222-6.804-7.209-16.315.014-9.511 7.209-16.707ZM570.161-342.043q-6.979 7.195-16.592 7.195T537-342.043l-21-21q-7.223-6.805-7.09-16.316t7.09-16.706q6.804-6.957 16.435-7.076 9.63-.12 16.587 7.076l21 21q6.717 6.869 6.837 16.467.119 9.598-6.698 16.555ZM182.152-74.022q-27.599 0-47.865-20.265-20.265-20.266-20.265-47.865v-615.696q0-27.697 20.265-48.033 20.266-20.337 47.865-20.337H245v-25.847q0-14.354 9.964-24.253 9.963-9.9 24.234-9.9 14.697 0 24.782 9.9 10.085 9.899 10.085 24.253v25.847h331.87v-25.847q0-14.354 9.963-24.253 9.964-9.9 24.235-9.9 14.696 0 24.782 9.9Q715-866.419 715-852.065v25.847h62.848q27.697 0 48.033 20.337 20.337 20.336 20.337 48.033v153.783q0 14.424-9.956 24.244Q826.307-570 811.913-570H182.152v427.848h126.609q14.424 0 24.244 9.871 9.821 9.871 9.821 24.37 0 14.498-9.821 24.194-9.82 9.695-24.244 9.695H182.152Zm0-555.978h595.696v-127.848H182.152V-630Zm0 0v-127.848V-630Z"/></svg>