<svg xmlns="http://www.w3.org/2000/svg" width="48" height="48" viewBox="0 -960 960 960"><path d="M555.696-108.087v-80.283q0-6.282 2.358-12.166 2.359-5.883 7.837-11.464l211.613-210.773q9.631-9.641 21.403-14.032 11.773-4.391 23.407-4.391 12.692 0 24.299 4.859 11.606 4.859 21.3 14.337l37 37q9.45 9.514 13.703 21.143 4.254 11.629 4.254 23.257 0 11.948-4.747 23.993-4.746 12.046-14.293 21.753L693.913-83.978q-5.535 5.478-11.421 7.717-5.885 2.24-12.449 2.24h-80.282q-14.424 0-24.245-9.821-9.82-9.821-9.82-24.245Zm303.587-232.522-37-37 37 37Zm-240 203h38l120.282-121.227-37-37.055-121.282 120.225v38.057ZM218.565-74.022q-27.599 0-47.865-20.265-20.265-20.266-20.265-47.865v-675.696q0-27.697 20.265-48.033 20.266-20.337 47.865-20.337h311.891q14.145 0 26.964 5.718 12.819 5.717 22.015 14.913L782-663.022q9.196 9.196 14.913 22.015 5.717 12.819 5.717 26.964v62.391q0 14.119-10.229 23.255-10.23 9.136-24.779 9.136-13.831 0-23.477-8.984-9.645-8.983-10.841-22.69v-46.913H548.326q-14.424 0-24.245-9.82-9.82-9.821-9.82-24.245v-185.935H218.565v675.696H461.63q14.424 0 24.245 9.871 9.821 9.871 9.821 24.37 0 14.498-9.821 24.194-9.821 9.695-24.245 9.695H218.565Zm0-68.13v-675.696 675.696Zm541-135.739-19-18 37 37-18-19Z"/></svg>