<svg xmlns="http://www.w3.org/2000/svg" width="48" height="48" viewBox="0 -960 960 960"><path d="M510-115.935q-14.424 0-24.245-9.82-9.82-9.821-9.82-24.245v-29q0-6.283 2.239-12.217 2.239-5.935 7.717-11.413L693.13-409.87l76.74 76.74-207.24 207.239q-5.478 5.478-11.413 7.717-5.934 2.239-12.217 2.239h-29ZM150-323.304q-14.424 0-24.245-9.871-9.82-9.871-9.82-24.609 0-14.499 9.82-24.194 9.821-9.696 24.245-9.696h242.63q14.424 0 24.365 9.871 9.94 9.871 9.94 24.37 0 14.737-9.94 24.433-9.941 9.696-24.365 9.696H150Zm662.87-52.826-76.74-76.74 29-29q9.507-9.195 24.026-9.195 14.518 0 23.714 9.195l29 29q9.195 9.507 9.195 24.026 0 14.518-9.195 23.714l-29 29ZM150-494.043q-14.424 0-24.245-9.872-9.82-9.871-9.82-24.369 0-14.499 9.82-24.194 9.821-9.696 24.245-9.696h410q14.424 0 24.245 9.871 9.82 9.871 9.82 24.37 0 14.498-9.82 24.194-9.821 9.696-24.245 9.696H150Zm0-170.501q-14.424 0-24.245-9.871-9.82-9.871-9.82-24.369 0-14.499 9.82-24.195 9.821-9.695 24.245-9.695h410q14.424 0 24.245 9.871 9.82 9.871 9.82 24.37 0 14.498-9.82 24.194-9.821 9.695-24.245 9.695H150Z"/></svg>