<svg xmlns="http://www.w3.org/2000/svg" width="48" height="48" viewBox="0 -960 960 960"><path d="M692.812-501.109q-12.855 0-23.671-8.456-10.815-8.457-10.815-25.609v-236.739q0-14.394 9.871-24.349 9.871-9.956 24.489-9.956T717-796.262q9.696 9.955 9.696 24.349v236.739q0 17.152-10.544 25.609-10.544 8.456-23.34 8.456Zm-538.79 313.022v-583.826q0-14.394 9.871-24.349 9.871-9.956 24.369-9.956 14.499 0 24.195 9.956 9.695 9.955 9.695 24.349v583.826q0 14.424-9.871 24.245-9.871 9.82-24.37 9.82-14.498 0-24.194-9.82-9.695-9.821-9.695-24.245Zm252.152-490.457v-93.369q0-14.394 9.871-24.349 9.871-9.956 24.37-9.956 14.498 0 24.194 9.956 9.695 9.955 9.695 24.349v93.369q0 14.424-9.871 24.245-9.871 9.821-24.369 9.821-14.499 0-24.194-9.821-9.696-9.821-9.696-24.245Zm0 245.109v-93.369q0-14.424 9.871-24.245 9.871-9.821 24.37-9.821 14.498 0 24.194 9.821 9.695 9.821 9.695 24.245v93.369q0 14.424-9.871 24.245-9.871 9.82-24.369 9.82-14.499 0-24.194-9.82-9.696-9.821-9.696-24.245Zm0 245.348v-93.369q0-14.394 9.871-24.35 9.871-9.955 24.37-9.955 14.498 0 24.194 9.955 9.695 9.956 9.695 24.35v93.369q0 14.424-9.871 24.245-9.871 9.82-24.369 9.82-14.499 0-24.194-9.82-9.696-9.821-9.696-24.245Zm187.891 34.065q-14.424 0-24.244-9.82Q560-173.663 560-188.087v-80.283q0-6.282 2.359-12.166 2.358-5.883 7.837-11.464l211.612-210.773q9.632-9.599 21.364-14.011 11.732-4.412 23.447-4.412 12.692 0 24.286 4.859Q862.5-511.478 872.218-502l37 37q9.478 9.478 13.717 21.076 4.239 11.598 4.239 23.315 0 11.957-4.746 24.002-4.746 12.046-14.293 21.753L698.218-163.978q-5.569 5.478-11.438 7.717-5.869 2.239-12.432 2.239h-80.283Zm269.522-266.587-37-37 37 37Zm-240 203h38L781.87-338.836l-18-19.028-19-18.027-121.283 120.225v38.057ZM763.87-357.891l-19-18 37 37-18-19Z"/></svg>