<svg xmlns="http://www.w3.org/2000/svg" width="48" height="48" viewBox="0 -960 960 960"><path d="M846.218-731.696q0 11.718-4.74 23.696-4.739 11.978-12.978 20.457L613.848-472.891q-10.196 10.435-24.109 10.435-13.913 0-24.109-10.435l-91.739-91.739q-9.956-10.196-10.076-23.99-.119-13.793 10.076-23.989l214.652-214.652q8.239-8.239 19.837-13.098 11.598-4.859 24.076-4.859 11.479 0 22.957 4.74 11.478 4.739 21.196 12.978l51.891 51.174q9.239 9.717 13.478 21.315 4.24 11.598 4.24 23.315ZM792.891-75.043 503.826-363.11 275.37-134.413q-9.435 9.196-22.37 14.794-12.935 5.597-26.609 5.597h-77.304q-14.674 0-24.37-9.695-9.695-9.696-9.695-24.37v-77.065q0-13.674 5.597-26.609 5.598-12.935 14.794-22.37l228.696-228.695L74.804-792.891q-9.239-9.239-9.478-21.957-.24-12.717 9.24-22.195 9.477-9.24 21.956-9.24 12.478 0 21.956 9.24l718.326 718.565q9.239 9.239 9.359 21.717.12 12.478-9.12 21.718-9.478 9.478-22.076 9.478-12.597 0-22.076-9.478Zm-57.717-617.892 40-39.761-41.239-41.478-40.239 40 41.478 41.239Z"/></svg>