<svg xmlns="http://www.w3.org/2000/svg" width="48" height="48" viewBox="0 -960 960 960"><path d="M154.02-552.72q0-150.71 96.38-240.91 96.38-90.2 223.86-92.35 24.52 0 47.66 3.5 23.15 3.5 45.67 10.5 13.67 3.76 20.87 15.7 7.19 11.93 3.43 25.61-4 13.91-15.81 20.99-11.82 7.07-25.49 3.07-18.76-6-37.67-8.5-18.9-2.5-38.66-2.5-106.13 1.91-179.12 75.72-72.99 73.8-72.99 189.17 0 76.92 64.52 173.02Q351.2-283.59 480-163.78q129.65-117.65 192.67-212.81 63.03-95.15 64.94-170.39 0-18-1.5-35t-1.5-33q-2.76-13.67 4.55-25.63 7.32-11.96 21.23-14.72 13.68-2.52 25.63 4.8 11.96 7.31 14.48 21.23 2 19.76 3.5 41 1.5 21.23 1.5 43-2.15 95.91-73.11 203.59-70.96 107.69-209.76 231.01-8.72 8.24-19.93 11.98-11.22 3.74-22.7 3.74-11.48 0-22.7-3.74-11.21-3.74-19.69-11.98-43.44-38.47-93.15-88.21-49.72-49.74-92.08-107.1-42.36-57.36-70.36-120.2-28-62.83-28-126.51Zm325.98 0Zm48.67 4.96L754.61-773.7q5.48-5.47 5.48-12.43t-5.48-12.44l-33.04-33.04q-5.48-5.48-12.44-5.48-6.96 0-12.43 5.48L470.76-605.67q-5.48 5.47-7.84 11.19-2.35 5.72-2.35 12.44v18.37q0 10.19 7.45 18.15 7.46 7.95 17.65 7.95h19.37q6.72 0 12.44-2.35 5.72-2.36 11.19-7.84Zm260.09-284.72Q794-827 801.08-827q7.07 0 12.55-5.48L832.15-851q8.48-8.72 8.48-20.2 0-11.47-8.48-19.95l-18-18q-8.24-8.24-19.83-8.48-11.6-.24-19.84 8l-19 19q-5.48 5.48-5.48 12.55 0 7.08 5.48 12.32l33.28 33.28Z"/></svg>