<svg xmlns="http://www.w3.org/2000/svg" width="48" height="48" viewBox="0 96 960 960"><path d="M272.8 776.435q-48.474 0-82.833-34.381-34.358-34.38-34.837-82.619h-43.934q-14.424 0-24.245-9.821-9.82-9.821-9.82-24.244V538q0-65.759 45.337-111.597 45.338-45.838 111.097-45.838h122.131q14.424 0 24.244 9.821 9.821 9.821 9.821 24.244v181.935h159.565l146.522-185V274.043h-91.482q-13.646 0-22.582-8.918-8.936-8.919-8.936-22.457t8.936-22.396q8.936-8.859 22.582-8.859h91.482q25.79 0 44.33 18.398 18.539 18.397 18.539 44.232v135.609q0 12.459-3.919 22.79t-10.994 19.471L599.913 633.087q-9.501 12.168-23.522 19.258-14.021 7.09-29.935 7.09H389.761q-.239 48.239-34.412 82.619-34.174 34.381-82.549 34.381Zm-.235-62.87q22.044 0 37.946-16.079 15.902-16.08 16.38-38.051H218.239q.239 22.043 16.261 38.087 16.022 16.043 38.065 16.043Zm-44-391.565q-13.563 0-22.499-8.986-8.936-8.987-8.936-22.624 0-13.536 8.936-22.278 8.936-8.742 22.499-8.742h130q13.462 0 22.329 8.918 8.867 8.919 8.867 22.457t-8.867 22.396Q372.027 322 358.565 322h-130Zm537.133 454.435q-48.981 0-83.22-34.095-34.239-34.096-34.239-83.077 0-48.98 33.976-83.339t82.956-34.359q48.981 0 83.34 34.095 34.359 34.096 34.359 83.077 0 48.98-34.096 83.339-34.095 34.359-83.076 34.359Zm-.238-62.87q22.503 0 38.641-16.095 16.138-16.094 16.138-38.495 0-22.401-16.162-38.471-16.162-16.069-38.663-16.069-22.501 0-38.523 16.095-16.021 16.094-16.021 38.495 0 22.401 16.094 38.471 16.095 16.069 38.496 16.069ZM519.761 1016.67 286.696 898.522h155.63v-78.196l232.826 116.913H519.761v79.431Z"/></svg>