<svg xmlns="http://www.w3.org/2000/svg" width="48" height="48" viewBox="0 -960 960 960"><path d="M519.761-118.761v51.848q0 9.378-8.076 14.265-8.076 4.887-17.033.648l-175.854-89.305q-5.994-3.26-4.707-9.717 1.286-6.456 8.148-6.456h120.087v-50.848q0-9.045 7.957-13.979 7.956-4.934 16.913-.695l176.13 88.326q5.717 3.187 4.022 9.55-1.696 6.363-8.739 6.363H519.761ZM272.8-279.565q-48.474 0-82.833-34.381-34.358-34.38-34.837-82.619h-43.934q-14.424 0-24.245-9.821-9.82-9.821-9.82-24.244V-518q0-65.759 45.337-111.597 45.338-45.838 111.097-45.838h88.065q28.098 0 48.115 20.017 20.016 20.016 20.016 48.114v147.869h159.565l146.761-185v-137.522h-91.804q-13.259 0-22.227-9.08-8.969-9.081-8.969-22.505 0-13.322 9.037-22.183 9.038-8.862 22.398-8.862h91.565q25.835 0 44.233 18.398 18.397 18.397 18.397 44.232v135.609q0 12.459-3.919 22.79t-10.755 19.232l-144.13 181.652q-9.501 12.168-23.642 19.139-14.141 6.97-29.815 6.97H389.761q-.239 48.239-34.412 82.619-34.174 34.381-82.549 34.381Zm54.33-179.87Zm-54.565 117q22.044 0 37.946-16.079 15.902-16.079 16.38-38.051H218.239q.239 22.043 16.261 38.087 16.022 16.043 38.065 16.043Zm86-391.565H228.326q-13.258 0-22.227-9.081-8.969-9.08-8.969-22.504 0-13.322 9.038-22.184 9.037-8.861 22.397-8.861h130q13.258 0 22.227 9.013 8.969 9.013 8.969 22.337 0 13.323-8.969 22.302Q371.823-734 358.565-734Zm407.133 454.435q-48.981 0-83.22-34.095-34.239-34.096-34.239-83.077 0-48.98 33.976-83.339t82.956-34.359q48.981 0 83.34 34.095 34.359 34.096 34.359 83.077 0 48.98-34.096 83.339-34.095 34.359-83.076 34.359Zm-.238-62.87q22.503 0 38.641-16.095 16.138-16.094 16.138-38.495 0-22.401-16.162-38.471-16.162-16.069-38.663-16.069-22.501 0-38.523 16.095-16.021 16.094-16.021 38.495 0 22.401 16.094 38.471 16.095 16.069 38.496 16.069Zm-625.699-117H327.13v-153.13h-93.476q-39.371 0-66.632 27.862-27.261 27.862-27.261 66.703v58.565Z"/></svg>