<svg xmlns="http://www.w3.org/2000/svg" width="48" height="48" viewBox="0 96 960 960"><path d="M190.983 817.435q-46.854 0-79.636-32.654t-32.782-79.576q0-46.922 32.714-79.781 32.714-32.859 79.705-32.859 38.255 0 69.475 20.881 31.219 20.88 39.737 57.119h234.978q7.522-72.478 57.478-126.054 49.957-53.576 122.196-66.098L653.07 197.435H526.065q-13.628 0-22.564-8.987-8.936-8.986-8.936-22.623 0-13.638 8.936-22.449 8.936-8.811 22.56-8.811h114.171q28.127 0 50.045 16.478 21.919 16.479 28.397 43.914l73.522 333.608h-23.674q-72.254 0-123.605 51.744Q593.565 632.053 593.565 705v28.435H300.196q-8.443 38.239-39.592 61.119-31.149 22.881-69.621 22.881Zm.042-62.87q20.258 0 34.899-14.666 14.641-14.667 14.641-34.924 0-20.258-14.666-34.899-14.667-14.641-34.924-14.641-20.258 0-34.899 14.666-14.641 14.667-14.641 34.924 0 20.258 14.666 34.899 14.667 14.641 34.924 14.641Zm578.18 62.87q-46.922 0-79.781-32.654-32.859-32.654-32.859-79.576 0-46.922 32.654-79.781 32.654-32.859 79.576-32.859 46.922 0 79.781 32.654 32.859 32.654 32.859 79.576 0 46.922-32.654 79.781-32.654 32.859-79.576 32.859Zm-.18-62.87q20.258 0 34.899-14.666 14.641-14.667 14.641-34.924 0-20.258-14.666-34.899-14.667-14.641-34.924-14.641-20.258 0-34.899 14.666-14.641 14.667-14.641 34.924 0 20.258 14.666 34.899 14.667 14.641 34.924 14.641Zm-244.59 263.585L288.5 897.565h154.065v-79.717L678.5 939.435H524.435v78.715ZM191 705Zm578 0Z"/></svg>