<svg xmlns="http://www.w3.org/2000/svg" width="48" height="48" viewBox="0 -960 960 960"><path d="M779.043-112.587h-633.26q-20.392 0-30.587-18.272-10.196-18.271 2.239-35.424l204.087-284.891q9.195-13.674 23.869-21.13 14.674-7.457 30.827-7.457h167.695L787-763.609q15.913-17.913 38.163-9.956 22.25 7.956 22.25 31.826v560.782q0 28.587-19.891 48.479-19.892 19.891-48.479 19.891ZM287.326-579.761 160.283-402.674q-8.957 11.435-22.131 14.174-13.174 2.739-24.37-5.978-11.434-8.957-14.173-22.75-2.74-13.794 5.978-24.99l126.804-177.565q9.196-13.435 24.489-20.891 15.294-7.457 31.446-7.457h165.696l163.804-190.565q9.196-11.195 22.989-12.435 13.794-1.239 24.989 7.957 11.196 9.196 12.435 23.489 1.239 14.294-7.956 25.489L506.478-603.63q-9.195 11.195-22.869 17.532t-29.587 6.337H287.326Z"/></svg>