<svg xmlns="http://www.w3.org/2000/svg" width="48" height="48" viewBox="0 -960 960 960"><path d="M454.326-131.935q-14.913 0-24.609-9.695-9.695-9.696-9.695-24.37v-210.717L238.109-270.978q-12.435 6.717-26.109 3.359-13.674-3.359-20.391-15.555l-25.913-44.348q-7.718-12.435-3.859-26.108 3.859-13.674 16.293-20.631L358.282-480 177.891-583.739q-12.435-6.957-16.293-20.511-3.859-13.554 3.858-26.228l25.914-44.109q6.717-12.435 20.51-15.794 13.794-3.358 25.99 3.359l182.152 103.739V-794q0-14.674 9.695-24.37 9.696-9.695 24.609-9.695h51.587q14.674 0 24.37 9.695 9.695 9.696 9.695 24.37v210.717L722.13-687.261q12.435-6.717 25.99-3.239 13.554 3.478 20.51 15.674l26.153 44.587q7.717 12.674 3.739 26.228-3.978 13.555-16.413 20.272L601.957-480l180.152 105.739q12.195 6.957 16.293 20.511 4.098 13.554-3.619 25.989l-26.153 44.587q-6.717 12.435-20.271 15.794-13.555 3.358-25.989-3.359L539.978-376.717V-166q0 14.674-9.695 24.37-9.696 9.695-24.37 9.695h-51.587Z"/></svg>