<svg xmlns="http://www.w3.org/2000/svg" width="48" height="48" viewBox="0 -960 960 960"><path d="M480-604.065q102.674 0 173.37 73.254Q724.065-457.557 724.065-354q0 46.478-21 93.717-21 47.24-52.739 90.218-31.739 42.978-68.741 81.04-37.001 38.06-69.672 66.851-7.478 6.24-15.378 8.978-7.9 2.74-16.535 2.74t-16.535-2.74q-7.9-2.739-15.139-8.978-32.956-28.956-69.935-66.935-36.978-37.978-68.717-80.956-31.739-42.978-52.739-90.218-21-47.239-21-93.597 0-103.794 70.695-176.99 70.696-73.195 173.37-73.195Zm.056 299.565q23.335 0 39.39-16.111 16.054-16.11 16.054-39.445t-16.111-39.39q-16.11-16.054-39.445-16.054t-39.39 16.111q-16.054 16.11-16.054 39.445t16.111 39.39q16.11 16.054 39.445 16.054Zm1.064-422.87q-34.403 0-65.924 10.5-31.522 10.5-58.283 30.261-10.956 8.479-24.413 8.359-13.457-.12-23.174-10.076-9.956-9.478-9.961-22.755-.005-13.278 11.066-21.822 35.373-29.01 79.3-44.369 43.926-15.358 91.46-15.358 47.534 0 91.341 15.358 43.807 15.359 79.381 44.359 10.957 8.478 10.957 21.793 0 13.316-9.697 23.137-9.738 9.853-23.314 9.853t-24.533-8.479q-26.522-19.761-58.163-30.261t-66.043-10.5Zm.203-160q-65.504 0-125.491 22-59.986 22-109.68 63.522-10.956 8.718-25.532 9.598-14.577.88-24.294-9.076-9.956-8.717-9.076-22.174.88-13.457 11.076-22.413 59.478-51 131.842-78.859 72.364-27.858 150.957-27.858 78.592 0 150.401 27.355 71.809 27.355 131.387 77.362 11.957 9.717 12.957 23.793 1 14.077-8.957 23.794-9.717 9.717-23.793 8.956-14.077-.76-25.794-9.478-49.761-41.522-110.13-64.022-60.368-22.5-125.873-22.5Z"/></svg>