<svg xmlns="http://www.w3.org/2000/svg" width="48" height="48" viewBox="0 -960 960 960"><path d="M364.174-110.717V-615.13q-87.522-19.196-143.902-78.316-56.381-59.119-64.859-137.597-1.239-12.029 8.523-19.211 9.761-7.181 23.152-7.181 11.912 0 22.441 6.973 10.53 6.973 12.384 19.179 10.478 68.044 68.12 112.946 57.641 44.902 136.445 44.902h98.565q38.718 0 57.555 6.62 18.837 6.619 47.554 31.337l160.761 150.761q10.957 9.956 10.957 23.413 0 13.456-9.957 23.532-9.956 10.076-22.913 10.076t-22.913-9.195L586.63-586.109v475.392q0 13.778-9.462 23.204t-23.293 9.426q-13.832 0-23.169-9.426-9.336-9.426-9.336-23.204V-335h-91.696v224.283q0 13.778-9.51 23.204-9.511 9.426-23.413 9.426-13.903 0-23.24-9.426-9.337-9.426-9.337-23.204Zm111.317-624.718q-31.404 0-53.502-22.248-22.098-22.247-22.098-53.413 0-31.404 22.018-53.622 22.019-22.217 53.423-22.217 31.404 0 53.612 22.166 22.208 22.166 22.208 53.624 0 31.12-22.128 53.415-22.128 22.295-53.533 22.295Z"/></svg>