<svg xmlns="http://www.w3.org/2000/svg" width="48" height="48" viewBox="0 -960 960 960"><path d="M445.3-71.87q-15.691 0-26.387-10.683t-10.696-26.382v-206.956q0-5.464.62-10.689.619-5.224 2.859-10.703l45.282-133.087q6.957-20.852 24.739-33.556Q499.5-516.63 521.63-516.63h251.174q22.018 0 39.977 12.823 17.958 12.824 24.676 33.677L882.5-337.283q2.239 5.479 2.978 10.703.74 5.225.74 10.689v206.956q0 15.7-10.819 26.382-10.819 10.684-26.489 10.684-15.671 0-26.367-10.684-10.695-10.683-10.695-26.382v-30.652h-329.5v30.652q0 15.7-10.678 26.382-10.678 10.684-26.37 10.684Zm21.417-284.5h361l-38-115h-285l-38 115Zm54 146q16.575 0 27.788-11.212 11.212-11.213 11.212-27.788 0-16.335-11.212-27.667-11.213-11.333-27.788-11.333-16.575 0-27.787 11.333-11.213 11.332-11.213 27.667 0 16.575 11.213 27.788 11.212 11.212 27.787 11.212Zm253 0q16.575 0 27.788-11.212 11.212-11.213 11.212-27.788 0-16.335-11.212-27.667-11.213-11.333-27.788-11.333-16.575 0-27.787 11.333-11.213 11.332-11.213 27.667 0 16.575 11.213 27.788 11.212 11.212 27.787 11.212ZM239.283-383.935v-75.63h75.869v75.63h-75.869Zm207-259v-75.63h75.63v75.63h-75.63Zm-207 413v-75.63h75.869v75.63h-75.869Zm0 154v-75.63h75.869v75.63h-75.869Zm-165.261 0v-481q0-28.098 19.89-48.114 19.891-20.016 48.24-20.016h138.87v-190.87q0-28.098 19.89-48.114 19.891-20.016 48.24-20.016h270.131q28.447 0 48.408 20.016 19.961 20.016 19.961 48.114v200h-68.369v-200H349.152v259h-207v481h-68.13Z"/></svg>