<svg xmlns="http://www.w3.org/2000/svg" width="48" height="48" viewBox="0 -960 960 960"><path d="M260.08-728.435q-31.276 0-53.493-22.257-22.217-22.257-22.217-53.294 0-31.275 22.137-53.612 22.138-22.337 53.413-22.337 31.276 0 53.493 22.257 22.217 22.258 22.217 53.533 0 31.036-22.137 53.373-22.138 22.337-53.413 22.337ZM695-495.935q-25.957 0-44.294-18.337-18.336-18.337-18.336-44.293 0-25.957 18.336-44.413 18.337-18.457 44.294-18.457 25.957 0 44.294 18.457 18.336 18.456 18.336 44.413 0 25.956-18.336 44.293-18.337 18.337-44.294 18.337ZM184.5-112.152V-367.37h-36.413q-14.185 0-23.886-9.701-9.701-9.701-9.701-23.886v-212.347q0-28.098 20.016-48.114 20.017-20.017 48.114-20.017h146.74q20.796 0 37.343 11.152 16.548 11.153 25.265 30.261L519.37-363.935l73.478-77.521q6.956-7.718 16.509-11.816 9.553-4.098 20.273-4.098h120.152q20.964 0 35.591 14.747Q800-427.877 800-406.913v133.609q0 13.239-8.022 22.576-8.021 9.337-21.978 7.424h-20v131.152q0 14.424-9.821 24.244-9.82 9.821-24.244 9.821h-71.87q-14.424 0-24.244-9.82Q610-97.729 610-112.153V-380.37l-53.109 56.827q-5 5-10.858 7.619-5.859 2.62-13.326 2.62h-36.939q-9.551 0-17.37-4.833-7.819-4.832-12.137-13.602L350-574.391v462.239q0 14.424-9.821 24.244-9.82 9.821-24.244 9.821h-97.37q-14.424 0-24.244-9.82-9.821-9.821-9.821-24.245Z"/></svg>