<svg xmlns="http://www.w3.org/2000/svg" width="48" height="48" viewBox="0 -960 960 960"><path d="M774.174-244.63v79.456q0 7.005 4.978 11.959t11.696 4.954q6.717 0 11.815-4.954t5.098-11.959v-119.761q0-6.717-5.074-11.815t-12.078-5.098H670.848q-6.718 0-11.696 4.978-4.978 4.979-4.978 11.696 0 6.718 5.002 11.815 5.002 5.098 11.672 5.098h79.695L647.652-165.37q-5.478 5.587-5.478 11.87 0 6.283 5.564 11.761 5.563 5.478 11.815 5.478 6.251 0 11.73-5.478L774.174-244.63ZM730.848-37.174q-78 0-133-55.38-55-55.381-55-131.62 0-77.761 55-133.38 55-55.62 133-55.62 77 0 132.5 55.62 55.5 55.619 55.5 133.38 0 76.239-55.5 131.62-55.5 55.38-132.5 55.38ZM312.221-617.37h335.558q13.069 0 21.569-8.5 8.5-8.5 8.5-21.5t-8.5-21.5q-8.5-8.5-21.569-8.5H312.221q-13.069 0-21.569 8.5-8.5 8.5-8.5 21.5t8.5 21.5q8.5 8.5 21.569 8.5ZM182.152-113.304q-28.354 0-48.242-19.959-19.888-19.958-19.888-48.411V-777.37q0-28.353 19.888-48.242 19.888-19.888 48.242-19.888h595.696q28.452 0 48.411 19.888 19.959 19.889 19.959 48.242v290.522q0 15.913-12.794 24.25t-27.707 2.381q-17.652-5.239-36.762-8.479-19.111-3.239-38.107-3.239-14 0-27 1.46-13 1.461-26 4.301v-10q.478-13.435-8.522-23.391-9-9.957-21.478-9.957H312.152q-13 0-21.5 8.5t-8.5 21.5q0 13 8.5 21.5t21.5 8.5h313.761Q589.674-432 561.054-404.098q-28.619 27.902-46.858 62.424H312.152q-13 0-21.5 8.5t-8.5 21.5q0 13 8.5 21.5t21.5 8.5h177.891q-3.717 14.435-5.456 28.87-1.739 14.434-1.739 29.869 0 18.283 2.84 35.59 2.841 17.308 7.682 33.78 4.239 14.913-4.337 27.587-8.577 12.674-23.49 12.674H182.152Z"/></svg>