<svg xmlns="http://www.w3.org/2000/svg" width="48" height="48" viewBox="0 96 960 960"><path d="m812.218 815.522-68.37-68.131V641h46.239q18.956 0 32.456-13.515 13.5-13.516 13.5-32.536 0-19.021-13.5-32.536t-32.456-13.515h-46.239V312.152H511.102v-49.195q0-19-13.515-32.5t-32.536-13.5q-19.02 0-32.536 13.5-13.515 13.5-13.515 32.5v49.195H308.609l-68.131-68.37h111.261q12.913-40.956 42.728-68.076 29.816-27.119 70.533-27.119t70.533 27.119q29.815 27.12 42.728 68.076H746q26.397 0 46.307 19.911 19.911 19.91 19.911 46.307v167.739q40.956 12.913 66.576 44.728 25.619 31.816 25.619 72.533t-25.619 69.033q-25.62 28.315-66.576 41.228v110.261Zm-283.87-283.87Zm269.701 448.114L75.304 258.022q-9.239-9.338-9.359-22.267-.12-12.929 9.437-22.407 9.455-9.479 22.456-9.479 13.002 0 22.379 9.479l722.435 722.435q9.239 9.282 9.359 21.858.12 12.577-9.436 22.055-9.557 9.478-22.337 9.478-12.781 0-22.189-9.408ZM436.761 619.239ZM180 941.978q-27.449 0-46.714-19.264-19.264-19.265-19.264-46.714V696.652q41.847-4.761 71.673-33.514 29.826-28.753 29.826-70.109 0-41.355-29.826-70.138-29.826-28.782-71.673-33.782V310.095q0-13.856 5.384-25.655 5.385-11.8 14.29-20.744l48.456 48.456v127.37q45.998 19.969 73.869 61.479 27.87 41.51 27.87 92.213 0 49.829-27.826 91.71-27.826 41.88-73.913 61.554v127.37h127.37q20.152-45.609 61.865-73.674 41.712-28.065 91.684-28.065 49.972 0 91.733 27.945 41.761 27.946 61.674 73.794h127.37l48.456 48.456q-8.944 8.905-20.744 14.29-11.799 5.384-25.655 5.384H566.891q-5-41.847-33.753-71.673t-70.109-29.826q-41.355 0-70.138 29.826-28.782 29.826-33.543 71.673H180Z"/></svg>