<svg xmlns="http://www.w3.org/2000/svg" width="48" height="48" viewBox="0 -960 960 960"><path d="M354.957-382.522q-23.24 0-38.859-15.619-15.62-15.62-15.62-38.859 0-23.239 15.62-38.859 15.619-15.619 38.859-15.619 23.239 0 38.858 15.619 15.62 15.62 15.62 38.859 0 23.239-15.62 38.859-15.619 15.619-38.858 15.619Zm251.086 0q-23.239 0-38.858-15.619-15.62-15.62-15.62-38.859 0-23.239 15.62-38.859 15.619-15.619 38.858-15.619 23.24 0 38.979 15.619 15.739 15.62 15.739 38.859 0 23.239-15.739 38.859-15.739 15.619-38.979 15.619Zm197.718-299.587q-5.478 0-9.576-1.858-4.098-1.859-6.337-7.337L758.761-758l-61.696-25.848q-5.478-2.239-7.837-6.456-2.358-4.218-2.358-9.696t2.358-9.696q2.359-4.217 7.837-6.456L758.761-841l29.087-66.696q2.239-5.478 6.337-7.337 4.098-1.858 9.576-1.858 5.717 0 9.815 2.358 4.098 2.359 6.337 7.837L847.761-841l61.695 24.848q5.718 2.239 8.077 6.456 2.358 4.218 2.358 9.696t-2.358 9.576q-2.359 4.098-8.077 6.337L847.761-758l-27.848 65.696q-2.239 5.478-6.337 7.837-4.098 2.358-9.815 2.358ZM480-142.152q141.804 0 239.826-98.663Q817.848-339.478 818.087-480q0-25.761-3.5-49.902-3.5-24.141-11.261-48.141-132.043 17.478-240.924-21.642-108.88-39.119-178.924-120.402-33.282 80.283-97.261 140.902-63.978 60.62-144.065 92.424 0 143.804 98.402 244.207Q338.957-142.152 480-142.152Zm0 68.13q-85.196 0-159.272-31.478t-128.913-86.315q-54.837-54.837-86.315-128.913Q74.022-394.804 74.022-480q0-84.717 31.239-158.674 31.239-73.956 85.956-128.913 54.718-54.957 128.913-86.674 74.196-31.717 159.87-31.957 44.87 0 81.924 7.718 37.054 7.717 86.576 27.196-11.348 6.956-17.804 20.793-6.457 13.837-6.457 30.511 0 23.913 12.337 43.489 12.337 19.576 36.054 29.815l39.218 16.609 18.608 44.217q10.479 22.479 29.316 34.435 18.837 11.957 43.989 11.957 15.674 0 28.13-5.576 12.457-5.576 21.413-16.446 17.196 43.717 25.055 79.87 7.859 36.152 7.859 81.63 0 84.435-31.598 158.63-31.598 74.196-86.674 129.033-55.076 54.837-129.152 86.576Q564.717-74.021 480-74.021Z"/></svg>