<svg xmlns="http://www.w3.org/2000/svg" width="48" height="48" viewBox="0 -960 960 960"><path d="M370.63-99.57q-44.7-44.82-44.7-109.47 0-55.44 34.39-96.68 34.38-41.24 85.61-53.19v-87.02H272.39q-28.45 0-48.41-20.02-19.96-20.02-19.96-48.12v-82.82h-75.69q-14.67 0-24.49-9.82-9.82-9.82-9.82-24.49v-220q0-14.42 9.82-24.24 9.82-9.82 24.49-9.82h220q14.42 0 24.24 9.82 9.82 9.82 9.82 24.24v220q0 14.67-9.82 24.49-9.82 9.82-24.24 9.82h-75.94v82.82h415.22v-87.26q-51.24-11.71-85.62-52.93t-34.38-96.94q0-64.55 44.78-109.3 44.79-44.76 109.37-44.76 64.59 0 109.4 44.76 44.82 44.75 44.82 109.3 0 55.72-34.38 96.94t-85.62 52.93v87.26q0 28.1-19.96 48.12-19.96 20.02-48.41 20.02H514.07v87.02q51.23 11.95 85.61 53.17 34.39 41.21 34.39 96.61 0 64.76-44.7 109.58Q544.67-54.74 480-54.74T370.63-99.57Zm411.79-590.71q25.19-25.02 25.19-60.63t-25.02-60.8q-25.02-25.18-60.63-25.18t-60.8 25.02q-25.18 25.02-25.18 60.63T661-690.45q25.02 25.19 60.63 25.19t60.79-25.02Zm-620.03 25.02h151.63v-151.63H162.39v151.63Zm378.24 517.13q25.3-25.02 25.3-60.63t-25.1-60.79q-25.1-25.19-60.63-25.19t-60.83 25.02q-25.3 25.02-25.3 60.63t25.1 60.8q25.1 25.18 60.63 25.18t60.83-25.02ZM238.33-741.2Zm483.58-10ZM480-209.04Z"/></svg>