<svg xmlns="http://www.w3.org/2000/svg" width="48" height="48" viewBox="0 -960 960 960"><path d="M532.935-445.37q13.956 0 23.174-9.597 9.217-9.598 9.217-22.794 0-5.282-9.761-24 12.239-.478 22.239-9.217t10-21.218q0-13.956-9.217-23.174-9.217-9.217-23.174-9.217-11.478 0-20.337 8t-10.337 19.239l-157.261-73.369q1-2.24 5-17.718 0-13.956-9.217-23.174-9.218-9.217-22.935-9.217-13.196 0-22.793 9.217-9.598 9.218-9.598 23.174 0 3.761 9.521 21.522-12.717.239-23.076 9.337-10.358 9.098-10.358 22.815 0 12.957 9.717 22.555 9.717 9.597 22.674 9.597 12.478 0 21.337-8.5t10.337-19.5L507.543-497q-1 1-7 19.239 0 13.196 9.718 22.794 9.717 9.597 22.674 9.597Zm193.13-191.26q18.239 29.478 28.479 63.195 10.239 33.718 10.239 70.435v371.782q0 21.392-14.913 36.305T713.326-80l-292.522-.24q-13.674 0-24.489-8.456-10.815-8.456-15.293-22.13-23.566-84.131-24.446-158.359-.88-74.228 3.88-117.989h-.5.5q-38.521-8.239-96.489-28.261Q206-435.456 147.913-474.782 133-484.5 130.522-501.413q-2.479-16.913 7.717-31.587l199.522-277.761q10.956-14.913 28.609-19.891 17.652-4.978 34.804 2.739l220.739 101.609q32.957 14.239 59.435 37.337 26.478 23.097 44.717 52.337Z"/></svg>