<svg xmlns="http://www.w3.org/2000/svg" width="48" height="48" viewBox="0 -960 960 960"><path d="M356.891-194.022q-119.548 0-202.883-83.253-83.334-83.253-83.334-202.685 0-119.431 83.302-202.844 83.302-83.414 202.804-83.414 119.503 0 202.677 83.414 83.173 83.413 83.173 202.844 0 119.432-83.145 202.685t-202.594 83.253Zm339.979-20.304q-17.631 6.913-31.402-3.737-13.772-10.651-13.772-30.372 0-8.717 6.239-17.054 6.239-8.337 14.956-11.294 66.37-20.478 107.337-77.543Q821.196-411.391 821.196-483q0-71.609-40.968-128.174-40.967-56.565-107.337-77.282-8.717-2.718-14.956-11.105-6.239-8.387-6.239-18.004 0-19.631 13.772-29.826 13.771-10.196 31.88-3.044 84.131 26.718 138.054 100.076Q889.326-577 889.326-483q0 94-54.043 167.359-54.044 73.358-138.413 101.315Z"/></svg>