<svg xmlns="http://www.w3.org/2000/svg" width="48" height="48" viewBox="0 -960 960 960"><path d="M514.07-674.67v136.52l-68.14-68.37v-88l-44 44-38.93-38.7 92.89-92.89q5.52-5.46 11.48-7.94 5.97-2.49 12.66-2.49t12.63 2.49q5.95 2.48 11.45 7.94l153.63 153.63q10.19 10.2 10.19 23.99t-10.19 23.75q-10.29 10.45-24.42 10.33-14.12-.13-24.32-10.33l-94.93-93.93Zm-68.14 157.74 68.14 68.13v99.58q0 14.68-9.7 24.37-9.7 9.7-24.37 9.7-14.67 0-24.37-9.7-9.7-9.69-9.7-24.37v-167.71Zm273.53 362.91H222.15q-27.6 0-47.86-20.27-20.27-20.26-20.27-47.86v-108.94q0-14.67 9.7-24.37 9.69-9.69 24.37-9.69 14.67 0 24.37 9.69 9.69 9.7 9.69 24.37v108.94h428.98L75.3-797.98q-9.23-9.24-9.35-22.22-.12-12.97 9.35-22.45 9.48-9.48 22.46-9.48t22.38 9.4l722.51 722.51q9.24 9.24 9.36 21.84.12 12.6-9.36 22.08-9.48 9.47-22.33 9.47-12.86 0-22.31-9.47l-78.55-77.72Zm86.76-88.7-63.11-63.42v-31q0-11.97 8.21-19.99 8.21-8.02 20.59-8.02 14.65 0 24.48 9.76t9.83 24.3v88.37Z"/></svg>