<svg xmlns="http://www.w3.org/2000/svg" width="48" height="48" viewBox="0 96 960 960"><path d="M222.152 981.978q-27.599 0-47.865-20.265-20.265-20.266-20.265-47.865V238.152q0-27.697 20.265-48.033 20.266-20.337 47.865-20.337h329.304q14.002 0 26.893 5.718 12.89 5.717 22.086 14.913l185.152 185.152q9.196 9.196 14.913 22.086 5.718 12.891 5.718 26.893v489.304q0 27.599-20.337 47.865-20.336 20.265-48.033 20.265H222.152Zm0-68.13h515.696V422H588.065q-14.424 0-24.244-9.821-9.821-9.82-9.821-24.244V238.152H222.152v675.696Zm0-675.696V422 238.152v675.696-675.696Zm258.112 595.696q58.497 0 99.116-41.125Q620 751.598 620 693.817V574.66q0-8.516-5.75-14.277-5.75-5.761-14.25-5.761t-14.25 5.761Q580 566.144 580 574.66v119.157q0 42.031-28.75 71.031-28.75 29-71.25 29-42 0-71-29.018-29-29.019-29-71.044V474.492q0-17.971 11.5-28.949 11.5-10.978 28.5-10.978 18 0 29 10.98t11 28.947v179.337q0 8.519 5.75 14.269t14.25 5.75q8.5 0 14.25-5.75t5.75-14.264V474.646q0-33.634-23.077-56.857-23.078-23.224-56.578-23.224-33.584 0-56.965 23.2-23.38 23.2-23.38 56.8v219.252q0 57.781 41.203 98.906 41.202 41.125 99.061 41.125Z"/></svg>