<svg xmlns="http://www.w3.org/2000/svg" width="48" height="48" viewBox="0 96 960 960"><path d="M457.63 713.935h141.435q25.913 0 44.392-18.359 18.478-18.359 18.478-44.511V543.37q0-25.914-18.478-44.392-18.479-18.478-44.392-18.478h-110V371.565h142.382q12.666 0 21.577-9.345 8.911-9.345 8.911-22.355 0-13.213-9.038-22.072-9.037-8.858-22.397-8.858H457.63q-13.258 0-22.226 8.936-8.969 8.935-8.969 22.544v171.52q0 13.359 8.969 22.397 8.968 9.038 22.226 9.038h141.435v107.695H456.63q-12.521 0-21.358 9.386t-8.837 22.457q0 13.07 8.969 22.048 8.968 8.979 22.226 8.979ZM266.218 857.913q-27.599 0-47.865-20.266-20.266-20.266-20.266-47.865V234.087q0-27.698 20.266-48.034t47.865-20.336h555.695q27.698 0 48.034 20.336t20.336 48.034v555.695q0 27.599-20.336 47.865-20.336 20.266-48.034 20.266H266.218Zm0-68.131h555.695V234.087H266.218v555.695ZM138.087 986.283q-27.698 0-48.034-20.336t-20.336-48.034V327.152q0-13.674 10.336-23.369 10.337-9.696 24.49-9.696 14.153 0 23.848 9.821 9.696 9.82 9.696 24.244v589.761h590.761q13.674 0 23.369 10.262 9.696 10.261 9.696 24.303 0 14.413-9.821 24.109-9.82 9.696-24.244 9.696H138.087Zm128.131-752.196v555.695-555.695Z"/></svg>