<svg xmlns="http://www.w3.org/2000/svg" width="48" height="48" viewBox="0 -960 960 960"><path d="M478.761-71.87q-54.804 0-98.098-37.184-43.293-37.185-55.402-101.62-65.935 20.848-118.87-4.25t-77.87-80.033q-24.695-45.369-14.934-98.424Q123.348-446.435 178-480q-56.652-34.804-65.533-87.717-8.88-52.913 16.294-98.044 25.173-54.456 78.347-79.435 53.174-24.978 118.392-3.891 12.109-64.435 55.402-101.859Q424.196-888.37 479-888.37t98.098 37.424q43.293 37.424 55.402 101.859 65.218-20.848 118.511 4.011 53.294 24.859 78.228 79.315 25.174 44.892 16.174 98.044-9 53.152-65.413 87.717 54.413 33.565 63.794 87.359 9.38 53.793-14.794 97.684-25.174 54.218-78.228 79.674-53.054 25.457-118.511 4.609-12.109 64.435-55.522 101.62t-97.978 37.185ZM479-313q69 0 117.5-48.5T645-480q0-70-48.5-118.5T479-647q-69 0-115.5 48.5T317-480q0 70 46.5 118.5T479-313Z"/></svg>