<svg xmlns="http://www.w3.org/2000/svg" width="48" height="48" viewBox="0 96 960 960"><path d="M457.63 713.935h141.435q25.913 0 44.392-18.359 18.478-18.359 18.478-44.511V543.37q0-25.914-18.478-44.392-18.479-18.478-44.392-18.478h-110V371.565h142.382q12.666 0 21.577-9.345 8.911-9.345 8.911-21.855 0-13.713-8.913-22.572-8.912-8.858-22.522-8.858H457.63q-13.508 0-22.351 8.811-8.844 8.81-8.844 22.669v171.52q0 13.609 8.844 22.522 8.843 8.913 22.351 8.913h141.435v107.695H456.63q-12.521 0-21.358 9.386t-8.837 21.957q0 13.57 8.844 22.548 8.843 8.979 22.351 8.979ZM266.218 857.913q-27.599 0-47.865-20.266-20.266-20.266-20.266-47.865V234.087q0-27.698 20.266-48.034t47.865-20.336h555.695q27.698 0 48.034 20.336t20.336 48.034v555.695q0 27.599-20.336 47.865-20.336 20.266-48.034 20.266H266.218Zm-128.131 128.37q-27.698 0-48.034-20.336t-20.336-48.034V327.152q0-13.674 10.336-23.369 10.337-9.696 23.99-9.696 14.653 0 24.348 9.696 9.696 9.695 9.696 24.369v589.761h590.761q13.674 0 23.369 10.262 9.696 10.261 9.696 23.803 0 14.913-9.696 24.609-9.695 9.696-24.369 9.696H138.087Z"/></svg>