<svg xmlns="http://www.w3.org/2000/svg" width="48" height="48" viewBox="0 96 960 960"><path d="M608.5 713.935q13.61 0 22.522-8.913 8.913-8.912 8.913-22.522V339.418q0-12.882-9.386-21.683-9.386-8.8-21.957-8.8-13.57 0-22.548 8.811-8.979 8.81-8.979 22.742V455.5h-110V339.487q0-12.951-9.311-21.752-9.31-8.8-22.004-8.8-13.592 0-22.453 8.811-8.862 8.81-8.862 22.669v146.52q0 13.609 8.844 22.522 8.843 8.913 22.351 8.913h141.435V683.5q0 12.625 9.413 21.53 9.412 8.905 22.022 8.905ZM266.218 857.913q-27.599 0-47.865-20.266-20.266-20.266-20.266-47.865V234.087q0-27.698 20.266-48.034t47.865-20.336h555.695q27.698 0 48.034 20.336t20.336 48.034v555.695q0 27.599-20.336 47.865-20.336 20.266-48.034 20.266H266.218Zm-128.131 128.37q-27.698 0-48.034-20.336t-20.336-48.034V327.152q0-13.674 10.336-23.369 10.337-9.696 23.99-9.696 14.653 0 24.348 9.696 9.696 9.695 9.696 24.369v589.761h590.761q13.674 0 23.369 10.262 9.696 10.261 9.696 23.803 0 14.913-9.696 24.609-9.695 9.696-24.369 9.696H138.087Z"/></svg>