<svg xmlns="http://www.w3.org/2000/svg" width="48" height="48" viewBox="0 96 960 960"><path d="M479.96 701.848q36.083 0 60.486-24.362 24.402-24.362 24.402-60.446 0-36.083-24.362-60.486-24.362-24.402-60.446-24.402-36.083 0-60.486 24.362-24.402 24.362-24.402 60.446 0 36.083 24.362 60.486 24.362 24.402 60.446 24.402Zm-257.808 280.13q-27.599 0-47.865-20.265-20.265-20.266-20.265-47.865V238.152q0-27.697 20.265-48.033 20.266-20.337 47.865-20.337h341.413q15.031 0 28.601 5.829 13.57 5.829 22.856 18.041l174.043 199.565q8.957 9.196 13.055 20.511 4.098 11.315 4.098 23.75v463.587l-201.87-201.712q12.761-15.918 19.38-36.918 6.62-21 6.62-45.435 0-63.435-43.457-106.891Q543.435 466.652 480 466.652t-106.772 43.457q-43.337 43.456-43.337 107.011 0 63.554 43.337 106.771 43.337 43.218 106.78 43.218 24.188 0 43.807-4.881 19.62-4.88 39.584-17.119L776.63 958.544q-15.152 11.956-35.282 17.695-20.131 5.739-36.044 5.739H222.152Z"/></svg>