<svg xmlns="http://www.w3.org/2000/svg" width="48" height="48" viewBox="0 -960 960 960"><path d="M414-271.152q41 32 89.5 16.5t56.5-70.5q5-49-31-73.5t-56-62.5q-5 16-5.5 27t3.5 27q3 20 8 34.5t1 33.5q-5 21-22.5 40.5t-43.5 27.5ZM142.152-74.022q-28.354 0-48.242-19.888-19.888-19.888-19.888-48.242v-675.696q0-28.452 19.888-48.411t48.242-19.959h675.696q28.452 0 48.411 19.959t19.959 48.411v675.696q0 28.354-19.959 48.242-19.959 19.888-48.411 19.888H142.152ZM480-202.152q53 0 89.5-36.5t36.5-89.5q0-23.478-10.5-42.478T569-400.152q-42-26-66.5-65.5t-35.5-69.5q-54 35-84 87t-30 117q0 72.674 38 100.837 38 28.163 89 28.163Zm-337.848 60h95.218v-25.935q0-14.674 9.695-24.37 9.696-9.695 24.37-9.695h60.978q-21.283-25.044-31.663-56.924-10.38-31.881-10.38-72.076 0-84.283 42.546-153.486 42.546-69.202 125.975-122.232 15.957-9.717 30.605-3.366 14.647 6.351 20.939 25.323 12.195 38.239 35.695 70.163t57.544 60.206q35.196 29.196 50.076 58.674 14.88 29.479 14.88 67.718 0 37.761-12.641 70.5t-36.402 55.5h68.978q14.674 0 24.37 9.695 9.695 9.696 9.695 24.37v25.935h95.218v-675.696H142.152v675.696Zm337.848-60Z"/></svg>