<svg xmlns="http://www.w3.org/2000/svg" width="48" height="48" viewBox="0 -960 960 960"><path d="M414-271.152q14 11 29 16t31 5q30.908 0 55.954-19.5t30.046-55.5q5-49-31-73.5t-56-62.5q-5 16-5.5 27t3.5 27q3 20 8 34.5t1 33.5q-5 21-22.5 40.5t-43.5 27.5Zm-339.978 129v-675.696q0-28.447 19.89-48.408 19.891-19.962 48.24-19.962h675.696q28.447 0 48.408 19.962 19.962 19.961 19.962 48.408v675.696q0 28.349-19.962 48.24-19.961 19.89-48.408 19.89H142.152q-28.349 0-48.24-19.89-19.89-19.891-19.89-48.24Zm406.037-60q52.941 0 89.441-36.75t36.5-89.25q0-23.478-10.5-42.478T569-400.152q-42-26-66.5-65.5t-35.5-69.5q-54 35-84 87t-30 117q0 72.674 38.118 100.837 38.117 28.163 88.941 28.163Zm-337.907 60h95.218v-26.11q0-14.499 9.82-24.195 9.821-9.695 24.245-9.695h60.978q-21.283-25.044-31.663-56.924-10.38-31.881-10.38-72.076 0-92.805 47.88-161.402 47.88-68.598 124.685-115.598 6.717-4.478 14.396-4.718 7.679-.239 14.674 2 6.995 2.24 12.593 7.598 5.598 5.359 8.315 13.076 15.913 48.044 33.478 75.489 17.566 27.446 57.283 60.163 35.196 29.196 50.076 58.674 14.88 29.479 14.88 67.718 0 38.112-12.641 70.675-12.641 32.564-36.402 55.325h68.978q14.424 0 24.245 9.82 9.82 9.821 9.82 24.245v25.935h95.218v-675.696H142.152v675.696Zm337.848-60Z"/></svg>