<svg xmlns="http://www.w3.org/2000/svg" width="48" height="48" viewBox="0 -960 960 960"><path d="M234.739-142.87v-119.239H200q-35.391 0-60.326-25.054-24.935-25.054-24.935-60.446v-80q0-35.152 24.935-60.206Q164.609-512.87 200-512.87h34.739v-119.239H190q-14.424 0-24.245-9.871-9.82-9.871-9.82-24.369 0-14.499 9.82-24.314 9.821-9.815 24.245-9.815h52.5q20.239-80.152 85.293-132.587Q392.848-885.5 480-885.5q87.152 0 152.207 52.435 65.054 52.435 85.293 132.587H770q14.424 0 24.245 9.99 9.82 9.991 9.82 24.49 0 14.498-9.82 24.194-9.821 9.695-24.245 9.695h-44.5v119.239H760q35.391 0 60.446 25.055 25.054 25.054 25.054 60.206v80q0 35.392-25.054 60.446-25.055 25.054-60.446 25.054h-34.5v119.239H770q14.424 0 24.245 9.871 9.82 9.872 9.82 24.37 0 14.499-9.82 24.194-9.821 9.696-24.245 9.696H190q-14.424 0-24.245-9.871-9.82-9.871-9.82-24.37 0-14.498 9.82-24.194 9.821-9.696 24.245-9.696h44.739ZM480-251.196q56.565 0 96.489-39.924 39.924-39.923 39.924-96.489 0-56.326-39.924-96.369-39.924-40.044-96.489-40.044-56.565 0-96.489 40.044-39.924 40.043-39.924 96.369 0 56.566 39.924 96.489 39.924 39.924 96.489 39.924Zm.235-63.587q-30.365 0-51.713-21.112-21.348-21.113-21.348-51.478 0-30.127 21.113-51.594 21.112-21.468 51.478-21.468 30.365 0 51.713 21.232 21.348 21.233 21.348 51.359 0 30.366-21.113 51.714-21.112 21.347-51.478 21.347Z"/></svg>