<svg xmlns="http://www.w3.org/2000/svg" width="48" height="48" viewBox="0 -960 960 960"><path d="M820-610v-130H690v-65.5h130q26.391 0 45.946 19.554Q885.5-766.391 885.5-740v130H820Zm-745.5 0v-130q0-26.391 19.554-45.946Q113.61-805.5 140-805.5h130v65.5H140v130H74.5ZM690-154.5V-220h130v-130h65.5v130q0 26.391-19.554 45.946Q846.391-154.5 820-154.5H690Zm-550 0q-26.391 0-45.946-19.554Q74.5-193.609 74.5-220v-130H140v130h130v65.5H140ZM694.5-280h-429q-26.851 0-46.176-19.324Q200-318.649 200-345.5v-269q0-26.851 19.324-46.176Q238.649-680 265.5-680h429q26.851 0 46.176 19.324Q760-641.351 760-614.5v269q0 26.851-19.324 46.176Q721.351-280 694.5-280Z"/></svg>