<svg xmlns="http://www.w3.org/2000/svg" width="48" height="48" viewBox="0 -960 960 960"><path d="M377.63-440h100.696l31.044 60.609q4.478 8.956 12.865 14.174Q530.622-360 539.957-360h145.978q14.674 0 24.369-9.696Q720-379.391 720-394.065v-171.87q0-14.674-9.696-24.369Q700.609-600 685.935-600h-84.261l-31.044-60.609q-4.478-8.956-12.865-14.174Q549.378-680 540.043-680H354.065q-14.674 0-24.369 9.696Q320-660.609 320-645.935v377.739q0 11.518 8.803 19.857Q337.606-240 349.435-240q11.725 0 19.96-8.803 8.235-8.803 8.235-20.666V-440ZM520-520ZM480.033-74.022q-83.468 0-157.541-31.878-74.073-31.879-129.393-87.199-55.32-55.32-87.199-129.36-31.878-74.04-31.878-157.508 0-84.468 31.878-158.541 31.879-74.073 87.161-128.906 55.283-54.832 129.341-86.818 74.057-31.986 157.545-31.986 84.488 0 158.589 31.968 74.102 31.967 128.916 86.768 54.815 54.801 86.79 128.883Q886.218-564.516 886.218-480q0 83.501-31.986 157.57-31.986 74.069-86.818 129.36-54.833 55.291-128.873 87.17-74.04 31.878-158.508 31.878Z"/></svg>