<svg xmlns="http://www.w3.org/2000/svg" width="48" height="48" viewBox="0 -960 960 960"><path d="M67.37-447.37q-14.196 0-23.533-9.336Q34.5-466.043 34.5-480t9.337-23.294q9.337-9.336 23.532-9.336H239.37q13.956 0 23.293 9.336Q272-493.957 272-480t-9.337 23.294q-9.337 9.336-23.293 9.336h-172ZM286.173-628l-39-39q-8.718-8.957-8.718-21.913 0-12.957 9.718-22.913 9.956-9.718 23.032-9.718 13.077 0 22.794 9.718l39 39q8.957 8.956 8.837 22.032-.12 13.077-9.837 22.794t-22.794 9.717q-13.076 0-23.032-9.717ZM480-688q-13.196 0-22.913-9.337t-9.717-22.293v-174q0-13.196 9.717-22.533Q466.804-925.5 480-925.5t22.913 9.337q9.717 9.337 9.717 22.533v174q0 12.956-9.717 22.293T480-688Zm148 60q-9.717-9.717-9.717-22.794 0-13.076 9.717-23.032l39-39q8.957-8.718 21.913-8.718 12.957 0 22.913 9.718 9.718 9.956 9.718 23.032 0 13.077-9.718 22.794l-39 39q-8.956 8.957-22.032 8.837-13.077-.12-22.794-9.837Zm92.63 180.63q-13.956 0-23.293-9.336Q688-466.043 688-480t9.337-23.294q9.337-9.336 23.293-9.336h172q14.196 0 23.533 9.336Q925.5-493.957 925.5-480t-9.337 23.294q-9.337 9.336-23.533 9.336h-172Zm-240.63 72q-44.196 0-74.413-30.217T375.37-480q0-44.196 30.217-74.413T480-584.63q44.196 0 74.413 30.217T584.63-480q0 44.196-30.217 74.413T480-375.37Zm191 132.196-44-44q-8.957-8.956-8.837-22.032.12-13.077 9.837-22.794t22.794-9.717q13.076 0 23.032 9.717l44 44q8.718 8.957 8.718 21.913 0 12.957-9.718 22.913-9.956 9.718-23.032 9.718-13.077 0-22.794-9.718Zm-427.826 0q-9.718-9.956-9.718-23.032 0-13.077 9.718-22.794l44-44q8.956-8.957 22.032-8.837 13.077.12 22.794 9.837t9.717 22.794q0 13.076-9.717 23.032l-44 44q-8.957 8.718-21.913 8.718-12.957 0-22.913-9.718ZM480-34.5q-13.957 0-23.294-9.337-9.336-9.337-9.336-23.532V-239.37q0-13.956 9.336-23.293Q466.043-272 480-272t23.294 9.337q9.336 9.337 9.336 23.293v172q0 14.196-9.336 23.533Q493.957-34.5 480-34.5Z"/></svg>