<svg xmlns="http://www.w3.org/2000/svg" width="48" height="48" viewBox="0 96 960 960"><path d="M820.337 932.098q-8.728 9.359-21.957 9.359-13.228 0-22.706-9.479L648.891 805.435v116.304q-2.152 25.468-21.437 43.451-19.286 17.984-45.497 17.984H406.5q-28.331 0-48.35-20.019-20.02-20.02-20.02-48.351V497.065L84.174 240.957q-9.24-9.479-9.24-21.867 0-12.388 9.479-22.047 9.478-9.478 22.457-9.478 12.978 0 22.456 9.478l691.261 691.261q9.478 9.479 8.978 21.957-.5 12.478-9.228 21.837ZM406.5 562.805v351.999h175.457V738.5L406.5 562.805Zm243.587 66.173-68.13-68.891v-41.609l90-131v-34.521H375.304l-60-60h356.653v-56H315.304v56l-65.261-66.261q3.196-24.435 22.276-41.153 19.079-16.717 44.181-16.717h355.457q28.103 0 48.117 20.013 20.013 20.014 20.013 48.118v167.152l-90 132v92.869Zm-155.739 21.674Zm0-179.174Z"/></svg>