<svg xmlns="http://www.w3.org/2000/svg" width="48" height="48" viewBox="0 -960 960 960"><path d="M234.02-761.85v-56q0-28.33 19.89-48.35 19.89-20.02 48.24-20.02h355.7q28.45 0 48.41 19.96 19.96 19.96 19.96 48.41v56h-492.2ZM514.45-341.3q14.4-14.11 14.4-34.44t-14.19-34.74q-14.18-14.41-34.44-14.41-20.26 0-34.67 14.23-14.4 14.23-14.4 34.57 0 20.33 14.19 34.61 14.18 14.28 34.44 14.28 20.26 0 34.67-14.1ZM324.02-142.15v-376.88l-78.56-114.75q-6.34-8.69-8.89-18.35-2.55-9.67-2.55-20.2v-29.52h492.2v29.52q0 10.49-2.68 20.13-2.67 9.64-8.76 18.42l-78.56 114.75v376.88q0 28.35-19.96 48.24t-48.41 19.89h-175.7q-28.35 0-48.24-19.89t-19.89-48.24Z"/></svg>