<svg xmlns="http://www.w3.org/2000/svg" width="48" height="48" viewBox="0 0 48 48"><path d="M3.7 38.6V27.7q0-.75.475-1.225Q4.65 26 5.4 26h14.95q.75 0 1.225.475.475.475.475 1.225v10.9q0 .75-.475 1.225-.475.475-1.225.475H5.4q-.75 0-1.225-.475Q3.7 39.35 3.7 38.6Zm0-18.3V9.4q0-.75.475-1.225Q4.65 7.7 5.4 7.7h14.95q.75 0 1.225.475.475.475.475 1.225v10.9q0 .75-.475 1.225Q21.1 22 20.35 22H5.4q-.75 0-1.225-.475Q3.7 21.05 3.7 20.3Zm3.4-1.7h11.55v-7.5H7.1Zm29.65 21.05q-.3 0-.6-.125t-.6-.425l-7.2-7.15q-.55-.55-.525-1.25.025-.7.525-1.2.55-.5 1.225-.5t1.175.5l4.3 4.25V9.4q0-.75.5-1.225.5-.475 1.2-.475.75 0 1.25.475t.5 1.225v24.35l4.3-4.25q.5-.45 1.175-.475.675-.025 1.175.475.55.55.55 1.225t-.55 1.175l-7.2 7.2q-.25.3-.55.425-.3.125-.65.125Z"/></svg>