<svg xmlns="http://www.w3.org/2000/svg" width="48" height="48" viewBox="0 -960 960 960"><path d="m480-111.978-104.239 30q-11.674 3.478-20.989-4.318-9.316-7.795-9.316-19.564 0-10.618 2.359-15.836 2.359-5.217 7.076-8.934l71.044-52.805v-244.782l-311.131 92.043q-15.674 4.478-28.228-5.098-12.554-9.576-12.554-25.445 0-12.761 4.478-20.696 4.478-7.935 11.435-12.413l336-197.522v-234.565q0-22.893 15.636-38.599 15.635-15.706 38.429-15.706 22.794 0 38.429 15.706 15.636 15.706 15.636 38.599v234.565l336 197.522q6.969 4.578 11.561 12.494 4.592 7.917 4.592 20.651 0 15.833-12.674 25.409-12.674 9.576-28.348 5.098l-311.131-92.043v244.782l71.044 52.805q4.717 3.717 7.195 8.953 2.479 5.236 2.479 15.844 0 11.756-9.435 19.545-9.435 7.788-21.109 4.31l-104.239-30Z"/></svg>