<svg xmlns="http://www.w3.org/2000/svg" width="48" height="48" viewBox="0 -960 960 960"><path d="M826.07-497.41 232.63-337.46q-22.63 5.72-43.38-2.86-20.75-8.57-32.95-27.96L59.78-528.33q-8.95-15.19-2.24-32.25 6.72-17.05 24.16-22.29l20.91-5.48q8.72-2.48 17.93-.74 9.22 1.74 15.94 7.22l102.28 86.52 158.31-43.56-175.09-233.13q-13.96-18.44-6.36-41.61 7.6-23.18 30.27-28.65l19.68-5.48q10.71-2.48 21.05-.12t18.81 9.83L599.67-592.3l183.76-50q30.44-7.24 56.49 8.59 26.06 15.84 34.3 46.51 8.24 29.44-5.74 55.49-13.98 26.06-42.41 34.3ZM147.85-114.02q-14.68 0-24.25-9.7-9.58-9.69-9.58-24.37 0-14.67 9.7-24.25 9.69-9.57 24.37-9.57h664.06q14.68 0 24.37 9.69 9.7 9.7 9.7 24.37 0 14.68-9.82 24.25-9.81 9.58-24.49 9.58H147.85Z"/></svg>