<svg xmlns="http://www.w3.org/2000/svg" width="48" height="48" viewBox="0 -960 960 960"><path d="M767.957-327.652 138.891-502.609q-11.195-3.239-18.032-12.434-6.837-9.196-6.837-20.631V-700.87q0-9.674 7.815-15.511t17.25-2.358l11.674 3.478q4.717 2 7.315 5.217 2.598 3.218 4.837 7.696l28.283 86.565 213.739 59.326v-293.456q0-13.674 10.576-22.131 10.576-8.456 24.25-5.217l14.674 3.478q7.717 2 12.815 6.718 5.098 4.717 7.576 12.435l110.522 348.565 214.761 61q20.195 5.239 33.152 21.815t12.957 37.772q0 30.152-24.174 48.228t-54.087 9.598Zm-619.87 213.63q-14.674 0-24.37-9.695-9.695-9.696-9.695-24.609 0-14.674 9.695-24.37 9.696-9.695 24.609-9.695h663.587q14.674 0 24.489 9.815 9.816 9.815 9.816 24.489 0 14.674-9.816 24.37-9.815 9.695-24.489 9.695H148.087Z"/></svg>