<svg xmlns="http://www.w3.org/2000/svg" width="48" height="48" viewBox="0 -960 960 960"><path d="M142.15-154.02q-27.6 0-47.86-20.77-20.27-20.76-20.27-47.36v-515.7q0-26.7 20.27-47.53 20.26-20.84 47.86-20.84h247.87q13.44 0 26.49 5.72 13.06 5.72 22.25 14.91l42.35 42.24h336.74q26.7 0 47.53 20.77 20.84 20.76 20.84 47.36v182.68q0 19.03-16.42 27.55-16.41 8.51-33.32-.44-25.52-12.77-53.28-18.65-27.77-5.88-56.29-5.88-58.48 0-108.59 24.74-50.12 24.74-85 65.6-34.89 40.86-50.65 94.64-15.76 53.78-6.28 110.94 2.48 15.67-6.6 27.84-9.07 12.18-24.75 12.18H142.15Zm447.38 55.61q-56.62-56.45-56.62-137.38 0-80.93 56.62-137.55 56.62-56.62 137.55-56.62t137.38 56.62q56.45 56.62 56.45 137.55T864.46-98.41q-56.45 56.45-137.38 56.45-80.93 0-137.55-56.45ZM676.04-171q10.29 10.2 24.16 10.2 13.87 0 24.06-10.2l103.13-104.61q6.24-6.29 6.24-14.86t-6.32-14.93q-6.33-6.36-15.08-6.48-8.75-.12-14.99 6.36l-97.09 98.32-43.32-43.56q-6.48-6.24-15.18-6.37-8.69-.13-15.07 6.19-6.38 6.31-6.5 15.16-.12 8.86 6.35 15.17L676.04-171Z"/></svg>