<svg xmlns="http://www.w3.org/2000/svg" width="48" height="48" viewBox="0 -960 960 960"><path d="M142.15-154.02q-27.58 0-47.86-20.77-20.27-20.78-20.27-47.36v-515.7q0-26.58 20.27-47.48 20.28-20.89 47.86-20.89h247.87q13.44 0 26.49 5.72 13.06 5.72 22.25 14.91L481-743.35h336.85q26.58 0 47.48 20.77 20.89 20.78 20.89 47.36v257.29q0 19.15-17.92 28.22-17.91 9.08-34.82-2.12-41.52-25.28-87.05-37.8-45.52-12.52-92.8-12.52-123.15 0-217.35 75.79-94.19 75.79-133.43 189.71-3.48 10.19-11.82 16.41-8.33 6.22-18.77 6.22H142.15ZM653.63-32.83q-78.48 0-146.46-36.97-67.97-36.98-107.69-102.22-5.72-8.48-7.96-16.82-2.24-8.33-2.24-17.53 0-8.96 2.36-18.41 2.36-9.46 7.84-18.42 39.72-65 107.57-101.97 67.86-36.98 146.58-36.98 78.72 0 146.58 36.98 67.86 36.97 107.81 101.97 5.48 8.72 7.84 17.56 2.36 8.84 2.36 18.03 0 9.2-1.86 18.15-1.86 8.96-7.34 17.44-38.95 66.24-107.81 102.72-68.86 36.47-147.58 36.47Zm65.32-109.34q26.59-26.48 26.59-65.32 0-38.84-26.59-65.31-26.6-26.48-65.32-26.48-38.72 0-65.2 26.48-26.47 26.47-26.47 65.31t26.47 65.32q26.48 26.47 65.2 26.47t65.32-26.47Zm-102.02-28.5q-14.97-14.98-14.97-36.82t14.97-36.81q14.98-14.98 36.82-14.98t36.82 14.98q14.97 14.97 14.97 36.81 0 21.84-14.97 36.82-14.98 14.97-36.82 14.97t-36.82-14.97Z"/></svg>