<svg xmlns="http://www.w3.org/2000/svg" width="48" height="48" viewBox="0 96 960 960"><path d="M222.152 941.978q-28.098 0-48.114-20.016t-20.016-48.114V486.957q0-16.164 7.212-30.587 7.212-14.424 20.136-23.87l257.608-193.565q17.832-13.674 40.862-13.674t41.182 13.674L778.63 432.5q12.924 9.446 20.256 23.87 7.332 14.423 7.332 30.587v386.891q0 28.098-20.136 48.114t-48.234 20.016H222.152ZM400 656v140q0 8 6 14t14 6q8 0 14-6t6-14V656q25 0 42.5-17.5T500 596V496q0-8-6-14t-14-6q-8 0-14 6t-6 14v100h-20V496q0-8-6-14t-14-6q-8 0-14 6t-6 14v100h-20V496q0-8-6-14t-14-6q-8 0-14 6t-6 14v100q0 25 17.5 42.5T400 656Zm180 160q8 0 14-6t6-14.237V491.957q0-6.318-4.5-10.518-4.5-4.2-10.739-4.2-29 0-46.881 24.046Q520 525.33 520 556.455v102.393q0 6.956 5.098 12.054T537.152 676H560v120q0 8 6 14t14 6Z"/></svg>