<svg xmlns="http://www.w3.org/2000/svg" width="48" height="48" viewBox="0 -960 960 960"><path d="M146.174-123.304q-47.388 0-80.368-32.861-32.98-32.86-32.98-80.248 0-23.383 9.543-44.517 9.544-21.135 26.87-37.135v-176.438q0-14.465 9.82-24.285 9.821-9.821 24.245-9.821h50V-732.63q0-14.395 9.821-24.35 9.821-9.955 24.484-9.955h231.304q20.975 0 38.216 11.054 17.241 11.055 25.197 29.968l171.196 402.391q7.239 15.957 12.217 32.683 4.978 16.727 4.978 34.426 0 55.275-39.028 94.192-39.028 38.917-94.08 38.917-39.21 0-72.203-21.881-32.993-21.88-49.71-58.119H254.387q-11.017 35.478-40.991 57.739-29.973 22.261-67.222 22.261Zm747.891-40H774.783q-14.424 0-24.245-9.821-9.821-9.821-9.821-24.245v-576.217q0-14.017 9.632-23.683 9.632-9.665 23.772-9.665 14.14 0 23.597 9.665 9.456 9.666 9.456 23.683v543.826h86.891q13.916 0 23.513 9.701 9.596 9.702 9.596 23.772 0 14.071-9.596 23.527-9.597 9.457-23.513 9.457Zm-748.144-25.022q20.535 0 34.438-13.794 13.902-13.794 13.902-34.185 0-20.391-13.787-34.412-13.786-14.022-34.167-14.022-20.655 0-34.557 13.842-13.902 13.842-13.902 34.304 0 20.463 13.768 34.365 13.769 13.902 34.305 13.902Zm391.479 0q28.382 0 48.339-19.693 19.957-19.693 19.957-48.304 0-28.612-19.833-48.514-19.833-19.902-48.165-19.902-28.611 0-48.513 19.813-19.902 19.812-19.902 48.424 0 28.611 19.867 48.393 19.868 19.783 48.25 19.783Zm-283.074-81.435h150.252q2.673-16.454 8.254-32.303 5.581-15.849 14.538-30.088H310.739l-123-130h-52.043v112.391h10.478q37.249 0 67.243 22.381 29.994 22.38 40.909 57.619Zm86.044-129.848h208.391L420.869-700.478H219.761v174.26L340.37-399.609Zm-29.631 67.457-19-20.5q-19-20.5-42.5-44.5t-42.5-44.5l-19-20.5h-52.043 52.043l123 130H427.37 310.739Z"/></svg>