<svg xmlns="http://www.w3.org/2000/svg" width="48" height="48" viewBox="0 0 48 48"><path d="m14.3 38.45 2.25 2.35q.45.45.45 1.125t-.45 1.175q-.45.55-1.175.55-.725 0-1.225-.55l-5.2-5.2q-.5-.5-.5-1.175t.5-1.225l5.2-5.15q.5-.45 1.2-.475.7-.025 1.25.525.5.5.5 1.175t-.5 1.125L14.25 35h19.5l-2.2-2.25q-.5-.5-.5-1.175t.5-1.225q.5-.5 1.2-.5t1.2.5l5.15 5.15q.5.55.5 1.225t-.5 1.175l-5.2 5.2q-.5.55-1.2.55t-1.25-.55q-.5-.5-.5-1.175t.5-1.175l2.35-2.3ZM11.5 23.7q-.75 0-1.225-.475Q9.8 22.75 9.8 22V5.4q0-.7.5-1.2t1.2-.5q.75 0 1.225.5.475.5.475 1.2V22q0 .75-.5 1.225-.5.475-1.2.475Zm12.5 0q-.75 0-1.225-.475Q22.3 22.75 22.3 22V5.4q0-.7.5-1.2t1.2-.5q.75 0 1.225.5.475.5.475 1.2V22q0 .75-.5 1.225-.5.475-1.2.475Zm12.5 0q-.75 0-1.225-.475Q34.8 22.75 34.8 22V5.4q0-.7.5-1.2t1.2-.5q.75 0 1.225.5.475.5.475 1.2V22q0 .75-.5 1.225-.5.475-1.2.475Z"/></svg>