<svg xmlns="http://www.w3.org/2000/svg" width="48" height="48" viewBox="0 -960 960 960"><path d="m321.913-937.087 326 326.761q24.674 24.467 24.674 60.204t-24.674 60.209L471.826-313.587q-24.669 24.435-57.823 24.435-33.155 0-57.829-24.435L180.326-489.913q-24.674-24.442-24.674-60.143t24.674-60.149l186.848-186.969-92.848-92.848q-9.956-10.207-9.576-23.658.38-13.45 10.337-23.798 9.717-9.565 23.413-9.446 13.696.12 23.413 9.837Zm92.326 186.978L218.826-555.174h390.348L414.239-750.109Zm341.255 476.522q-30.624 0-52.103-21.581-21.478-21.581-21.478-52.242 0-17.677 8.359-37.981 8.358-20.305 22.837-41.783 8.239-13.478 19.739-28.598 11.5-15.119 22.978-28.598 11.478 13.479 23.172 28.636t20.024 28.56q14.239 21.478 22.478 41.797 8.239 20.318 8.239 37.947 0 30.587-21.81 52.215-21.81 21.628-52.435 21.628ZM141.196 1q-25.27 0-43.233-18.334Q80-35.667 80-61.29q0-25.623 18.376-43.482 18.376-17.858 44.059-17.858h676.369q25.27 0 43.233 18.006Q880-86.618 880-61.288q0 25.331-18.376 43.81Q843.248 1 817.565 1H141.196Z"/></svg>