<svg xmlns="http://www.w3.org/2000/svg" width="48" height="48" viewBox="0 96 960 960"><path d="m762.739 781.913-51.696-51.935q11.283-22.717 19.044-54.206 7.761-31.489 7.761-54.533 0-49.761-21.642-98.282-21.641-48.522-56.88-82.522L480 263.109 362.587 381.522l-48.978-48.74L456.13 191.261q5.383-5.479 11.235-7.837 5.852-2.359 12.635-2.359 6.783 0 12.635 2.359 5.852 2.358 11.235 7.837l205.195 202.195q45.211 45.179 71.182 104.264 25.971 59.084 25.971 123.519 0 39.957-12 82.576-12 42.62-31.479 78.098Zm25.131 202.783L677.841 875.739q-39.167 32-90.906 49.12-51.739 17.119-107.039 17.119-134.171 0-230.023-93.248-95.851-93.247-95.851-227.723 0-57.964 16.88-107.203 16.88-49.239 53.12-91.956L71.304 269.13q-9.478-9.478-9.478-22.456t9.359-22.457q9.358-9.478 22.456-9.478 13.098 0 22.576 9.478l716.566 716.566q9.478 9.478 9.478 22.076t-9.478 21.956q-9.479 9.359-22.457 9.359-12.978 0-22.456-9.478ZM480 873.848q44.721 0 83.067-11.402 38.346-11.403 66.868-35.924L273.478 470.065q-23.282 27.805-37.304 65.368-14.022 37.563-14.022 85.567 0 106.341 75.902 179.595Q373.957 873.848 480 873.848Zm-27.913-237.935ZM557.435 535.37Z"/></svg>