<svg xmlns="http://www.w3.org/2000/svg" width="48" height="48" viewBox="0 -960 960 960"><path d="M68.565-34.5q-14.424 0-24.244-9.82Q34.5-54.142 34.5-68.566v-153q0-14.424 9.82-24.245 9.821-9.82 24.245-9.82H113.5v-448.74H68.565q-14.424 0-24.244-9.82-9.821-9.821-9.821-24.245v-153q0-14.424 9.82-24.244 9.821-9.821 24.245-9.821h153q14.424 0 24.245 9.821 9.82 9.82 9.82 24.244v44.935h448.74v-44.935q0-14.424 9.82-24.244 9.821-9.821 24.245-9.821h153q14.424 0 24.244 9.821 9.821 9.82 9.821 24.244v153q0 14.424-9.821 24.245-9.82 9.82-24.244 9.82H846.5v448.74h44.935q14.424 0 24.244 9.82 9.821 9.821 9.821 24.245v153q0 14.424-9.821 24.244-9.82 9.821-24.244 9.821h-153q-14.424 0-24.245-9.82-9.82-9.821-9.82-24.245V-113.5H255.63v44.935q0 14.424-9.82 24.244-9.821 9.821-24.245 9.821h-153ZM255.63-181.63h448.74v-39.935q0-14.424 9.82-24.245 9.821-9.82 24.245-9.82h39.935v-448.74h-39.935q-14.424 0-24.245-9.82-9.82-9.821-9.82-24.245v-39.935H255.63v39.935q0 14.424-9.82 24.245-9.821 9.82-24.245 9.82H181.63v448.74h39.935q14.424 0 24.245 9.82 9.82 9.821 9.82 24.245v39.935Zm91.718-126.761q-15.657 0-23.285-10.979-7.628-10.978-2.15-25.934l123.935-329.739q3.75-9.279 13.467-16.357 9.718-7.078 20.935-7.078 10.467 0 19.446 6.978 8.978 6.978 13.217 16.457l126.413 333.26q5.478 13.957-1.754 23.674-7.232 9.718-22.525 9.718-7.591 0-15.308-5.218-7.717-5.217-9.717-12.935l-32.087-87.695H406.587L374.5-327.065q-3 8.478-10.79 13.576-7.79 5.098-16.362 5.098Zm73-154h119.543L483-623.13h-7l-55.652 160.739ZM97.37-767H193v-95.63H97.37V-767ZM767-767h95.63v-95.63H767V-767Zm0 669.63h95.63V-193H767v95.63Zm-669.63 0H193V-193H97.37v95.63ZM767-767Zm0 574Zm-574 0Zm0-574Z"/></svg>