<svg xmlns="http://www.w3.org/2000/svg" width="48" height="48" viewBox="0 -960 960 960"><path d="M478.456-275.435q-14.663 0-24.483-9.871-9.821-9.871-9.821-24.369 0-14.499 9.821-24.195 9.82-9.695 24.483-9.695h341.827q14.424 0 24.244 9.871 9.821 9.871 9.821 24.37 0 14.498-9.821 24.194-9.82 9.695-24.244 9.695H478.456Zm-249.021-86.587L120.652-470.565q-5.478-5.115-5.478-12.253 0-7.139 5.478-12.617l109.783-104.783q8.956-8.195 18.771-3.936 9.816 4.259 9.816 15.61v214.088q0 11.934-10.816 16.282-10.815 4.348-18.771-3.848Zm-89.718 257.088q-14.424 0-24.244-9.872-9.821-9.871-9.821-24.369 0-14.499 9.821-24.314 9.82-9.815 24.244-9.815h680.566q14.424 0 24.244 9.99 9.821 9.991 9.821 24.49 0 14.498-9.821 24.194-9.82 9.696-24.244 9.696H139.717Zm0-682.001q-14.424 0-24.244-9.871-9.821-9.871-9.821-24.37 0-14.498 9.821-24.194 9.82-9.696 24.244-9.696h680.566q14.424 0 24.244 9.872 9.821 9.871 9.821 24.369 0 14.499-9.821 24.194-9.82 9.696-24.244 9.696H139.717Zm338.739 170.5q-14.663 0-24.483-9.871-9.821-9.871-9.821-24.37 0-14.498 9.821-24.313 9.82-9.816 24.483-9.816h341.827q14.424 0 24.244 9.991 9.821 9.991 9.821 24.489 0 14.499-9.821 24.195-9.82 9.695-24.244 9.695H478.456Zm0 170.5q-14.663 0-24.483-9.871-9.821-9.871-9.821-24.369 0-14.499 9.821-24.195 9.82-9.695 24.483-9.695h341.827q14.424 0 24.244 9.871 9.821 9.871 9.821 24.369 0 14.499-9.821 24.195-9.82 9.695-24.244 9.695H478.456Z"/></svg>