<svg xmlns="http://www.w3.org/2000/svg" width="48" height="48" viewBox="0 0 48 48"><path d="M7.5 44.3q-.7 0-1.15-.45-.45-.45-.45-1.15 0-.65.45-1.125T7.5 41.1h3.4v-1.4H9.4q-.65 0-1.075-.425Q7.9 38.85 7.9 38.2q0-.65.425-1.075Q8.75 36.7 9.4 36.7h1.5v-1.4H7.5q-.7 0-1.15-.45-.45-.45-.45-1.15 0-.65.45-1.125T7.5 32.1H12q.9 0 1.5.6t.6 1.5v1.9q0 .9-.6 1.5t-1.5.6q.9 0 1.5.6t.6 1.5v1.9q0 .9-.6 1.5t-1.5.6Zm-.3-14.2q-.5 0-.9-.4t-.4-.9v-4.2q0-.9.6-1.5t1.5-.6h2.9v-1.4H7.5q-.7 0-1.15-.45-.45-.45-.45-1.15t.45-1.15q.45-.45 1.15-.45H12q.9 0 1.5.6t.6 1.5v3.4q0 .9-.6 1.5t-1.5.6H9.1v1.4h3.4q.7 0 1.15.45.45.45.45 1.15t-.45 1.15q-.45.45-1.15.45Zm3.3-14.25q-.7 0-1.15-.45-.45-.45-.45-1.1V6.8H7.45q-.65 0-1.1-.45-.45-.45-.45-1.1 0-.65.45-1.1.45-.45 1.1-.45h3.4q.5 0 .875.375t.375.875v9.35q0 .65-.45 1.1-.45.45-1.15.45Zm9.75 21.9q-.7 0-1.2-.5t-.5-1.2q0-.75.5-1.225.5-.475 1.2-.475H40.6q.7 0 1.2.5t.5 1.2q0 .75-.5 1.225-.5.475-1.2.475Zm0-12.15q-.7 0-1.2-.5t-.5-1.2q0-.75.5-1.225.5-.475 1.2-.475H40.6q.7 0 1.2.5t.5 1.2q0 .75-.5 1.225-.5.475-1.2.475Zm0-12.15q-.7 0-1.2-.5t-.5-1.2q0-.75.5-1.225.5-.475 1.2-.475H40.6q.7 0 1.2.5t.5 1.2q0 .75-.5 1.225-.5.475-1.2.475Z"/></svg>