<svg xmlns="http://www.w3.org/2000/svg" width="48" height="48" viewBox="0 -960 960 960"><path d="M225.759-274.739q-14.498 0-24.194-9.821-9.696-9.82-9.696-24.483v-341.914q0-14.423 9.872-24.244 9.871-9.821 24.369-9.821 14.499 0 24.194 9.821Q260-665.38 260-650.957v136.892h171.869v-136.892q0-14.423 9.872-24.244 9.871-9.821 24.369-9.821 14.499 0 24.194 9.821Q500-665.38 500-650.957v341.914q0 14.663-9.871 24.483-9.871 9.821-24.37 9.821-14.498 0-24.194-9.821-9.696-9.82-9.696-24.483v-136.892H260v136.892q0 14.663-9.871 24.483-9.871 9.821-24.37 9.821Zm508.131 0q-14.499 0-24.194-9.821Q700-294.38 700-309.043v-307.848h-45.935q-14.424 0-24.244-9.871-9.821-9.871-9.821-24.37 0-14.498 9.821-24.194 9.82-9.696 24.244-9.696h80q14.424 0 24.365 9.821 9.94 9.821 9.94 24.244v341.914q0 14.663-9.991 24.483-9.991 9.821-24.489 9.821Z"/></svg>