<svg xmlns="http://www.w3.org/2000/svg" width="48" height="48" viewBox="0 -960 960 960"><path d="M479.896-114.022q-134.171 0-230.023-93.288-95.851-93.289-95.851-227.783 0-57.864 16.88-107.103t53.12-91.956L71.304-786.87q-9.478-9.478-9.598-22.456-.12-12.978 9.48-22.457 9.6-9.717 22.516-9.717 12.916 0 22.515 9.717l716.566 716.566q9.478 9.478 9.478 21.956t-9.478 21.957q-9.479 9.478-22.457 9.478-12.978 0-22.456-9.478L677.841-180.261q-39.167 32-90.906 49.12-51.739 17.119-107.039 17.119Zm.104-68.13q44.752 0 83.083-11.402 38.33-11.403 66.852-35.924L273.478-585.935q-23.282 27.805-37.304 65.38Q222.152-482.98 222.152-435q0 106.341 75.902 179.595Q373.957-182.152 480-182.152Zm-27.913-237.935Zm256.978-242.457q71.283 70.044 88.979 158.326 17.695 88.283-12.913 176.566-3.761 11.391-12.196 19.565-8.435 8.174-21.348 8.174-17.957 0-28.37-14.359-10.413-14.358-4.891-29.793 27.087-71.044 12.304-144.25-14.782-73.207-71.304-127.25L480-792.891l-93.543 94.543q-10.435 10.196-23.87 10.315-13.435.12-23.89-10.211-10.175-10.3-10.175-24.444 0-14.144 10.195-24.638l104.979-105.978q7.717-7.718 17.413-11.316 9.695-3.598 18.891-3.598 9.196 0 18.891 3.479 9.696 3.478 17.413 11.435l192.761 190.76Zm-138.869 94.066Z"/></svg>