<svg xmlns="http://www.w3.org/2000/svg" width="48" height="48" viewBox="0 -960 960 960"><path d="M294-113.304q-14.957 0-29.098-5.5-14.141-5.5-25.141-13.5-9.718-6.239-19.957-13.62-10.239-7.38-21.478-7.38-13.674 0-23.989-10.196-10.315-10.196-10.315-23.87 0-14.434 10.315-24.25 10.315-9.815 23.989-9.815 15.196 0 29.957 5.12 14.76 5.119 25.76 12.88 8.479 6.478 18.359 14.239 9.881 7.761 20.641 7.761 10.761 0 20.881-7.761 10.119-7.761 18.837-14.239 11.239-7.761 25.761-12.88 14.521-5.12 28.478-5.12 14.957 0 29.098 5.12 14.141 5.119 25.141 12.88 9.718 6.478 19.478 14.239 9.761 7.761 20.283 7.761 10.522 0 20.402-7.761 9.881-7.761 18.598-14.239 11-7.761 25.522-12.88 14.521-5.12 28.478-5.12 14.239 0 28.739 5.12 14.5 5.119 25.5 12.88 9.957 6.478 20.076 14.239 10.12 7.761 20.881 7.761 10.761 0 20.641-7.761 9.88-7.761 19.598-14.239 10.761-7.761 25.022-12.88 14.26-5.12 29.456-5.12 13.674 0 23.87 9.815 10.195 9.816 10.195 24.25 0 13.674-10.315 23.87-10.315 10.196-23.75 10.196-11.717 0-21.956 7.38-10.24 7.381-19.957 13.62-10.761 7.761-25.402 13.38-14.641 5.62-29.598 5.62-15.196 0-29.457-5.5-14.26-5.5-24.782-13.5-9.478-6.239-19.239-13.62-9.761-7.38-20.522-7.38-10.522 0-20.402 7.38-9.881 7.381-18.359 13.62-10.761 8-25.282 13.5-14.522 5.5-28.957 5.5-14.957 0-29.217-5.5-14.261-5.5-25.022-13.5-9.478-6.239-19.239-13.62-9.761-7.38-20.522-7.38t-20.522 7.38q-9.761 7.381-18.239 13.62-10.522 8-24.782 13.5-14.261 5.5-28.457 5.5Zm186-185.261q-102.674 0-173.37-70.315-70.695-70.316-70.695-171.75v-283q0-18.674 12.695-30.99 12.696-12.315 31.37-12.315 18.913 0 31.489 12.696 12.576 12.695 12.576 31.609v284q0 64.326 44.805 108.01 44.804 43.685 111.13 43.685t111.13-43.685q44.805-43.684 44.805-108.01v-285q0-18.674 12.695-30.99 12.696-12.315 31.37-12.315 18.913 0 31.489 12.696 12.576 12.695 12.576 31.609v282q0 101.434-70.695 171.75-70.696 70.315-173.37 70.315Z"/></svg>