<svg xmlns="http://www.w3.org/2000/svg" width="48" height="48" viewBox="0 -960 960 960"><path d="m762.739-274.087-449.13-449.131 130.087-130.086q7.717-7.718 17.413-11.316 9.695-3.598 18.891-3.598 9.196 0 18.891 3.479 9.696 3.478 17.413 11.435l192.761 190.76q45.196 45.196 71.174 103.392 25.979 58.195 25.979 125.391 0 39.718-12 81.957-12 42.239-31.479 77.717ZM480-114.022q-134.391 0-230.185-93.293Q154.022-300.609 154.022-435q0-57.957 16.88-107.196t53.12-91.956L71.304-786.87q-9.478-9.478-9.598-22.456-.12-12.978 9.598-22.457 9.478-9.717 22.337-9.717t22.576 9.717l716.566 716.566q9.478 9.478 9.478 21.956t-9.478 21.957q-9.479 9.478-22.457 9.478-12.978 0-22.456-9.478L677.913-180.261q-38.478 31.239-90.598 48.739-52.119 17.5-107.315 17.5Z"/></svg>