<svg xmlns="http://www.w3.org/2000/svg" width="48" height="48" viewBox="0 -960 960 960"><path d="M33.304-180v-72.196q0-13.595 5.588-26.542 5.587-12.946 14.804-22.197l59.608-59.609V-616.63L53.696-676q-9.217-9.298-14.804-22.306-5.588-13.008-5.588-26.672V-815.5q0-14.22 9.173-23.545 9.172-9.325 23.34-9.325t23.458 9.325q9.29 9.325 9.29 23.545v47.13h97.37v-47.13q0-14.22 9.337-23.545 9.337-9.325 23.532-9.325 14.196 0 23.413 9.325 9.218 9.325 9.218 23.545v47.13h97.13v-47.13q0-14.22 9.337-23.545 9.337-9.325 23.533-9.325 14.195 0 23.413 9.421 9.217 9.421 9.217 23.449v90.522q0 13.664-5.587 26.672-5.588 13.008-14.804 22.306l-60.804 60.888v72.482h273.065v-74L556.326-676q-9.216-9.298-14.804-22.306-5.587-13.008-5.587-26.672V-815.5q0-14.22 9.337-23.545 9.337-9.325 23.532-9.325 14.196 0 23.413 9.325 9.218 9.325 9.218 23.545v47.13h97.13v-47.13q0-14.22 9.337-23.545 9.337-9.325 23.533-9.325 14.195 0 23.413 9.325 9.217 9.325 9.217 23.545v47.13h97.37v-47.13q0-14.22 9.29-23.545 9.29-9.325 23.458-9.325t23.46 9.325q9.292 9.325 9.292 23.545v90.522q0 13.7-5.717 26.741Q915.5-685.196 906.304-676l-59.369 59.37v256.086l59.369 59.609q9.196 9.196 14.914 22.221 5.717 13.025 5.717 26.518V-180q0 28.599-19.836 48.365-19.836 19.766-48.534 19.766H600q-14.674 0-24.37-9.696-9.695-9.696-9.695-24.37v-92.63q0-36.323-24.806-61.129Q516.323-324.5 480-324.5q-36.323 0-61.129 24.806-24.806 24.806-24.806 61.129v92.63q0 14.674-9.695 24.37-9.696 9.696-24.37 9.696H101.435q-28.6 0-48.365-19.766Q33.304-151.401 33.304-180Zm68.131 0h224.5v-58.565q0-64.674 45.195-109.37Q416.326-392.63 480-392.63q64.674 0 109.37 44.695 44.695 44.696 44.695 109.37V-180h224.5v-72.196l-80-80v-309.913l60.761-60.521H623.544l60.521 60.521v164.739h-408.13v-164.739l60.521-60.521H120.674l60.761 60.521v309.913l-80 80V-180ZM480-441.435Z"/></svg>