<svg xmlns="http://www.w3.org/2000/svg" width="48" height="48" viewBox="0 96 960 960"><path d="M101.435 944.131q-28.104 0-48.117-20.014Q33.304 904.104 33.304 876v-71.957q0-14.001 5.478-26.892 5.479-12.89 14.674-22.086l59.848-59.609V439.37L53.456 380q-9.195-9.196-14.674-22.086-5.478-12.891-5.478-26.892V240.5q0-13.97 9.348-23.42 9.348-9.45 23.34-9.45 13.993 0 23.283 9.45 9.29 9.45 9.29 23.42v47.13h97.37V240.5q0-13.97 9.417-23.42 9.417-9.45 23.338-9.45 13.832 0 23.288 9.45 9.457 9.45 9.457 23.42v47.13h97.13V240.5q0-13.97 9.582-23.42 9.581-9.45 23.413-9.45 13.831 0 23.168 9.45t9.337 23.42v90.522q0 14.001-5.598 26.892-5.597 12.89-14.793 22.086l-60.804 60.888v72.482h273.065v-74L556.326 380q-9.196-9.196-14.793-22.086-5.598-12.891-5.598-26.892V240.5q0-13.97 9.417-23.42 9.417-9.45 23.338-9.45 13.832 0 23.288 9.45 9.457 9.45 9.457 23.42v47.13h97.13V240.5q0-13.97 9.582-23.42 9.581-9.45 23.413-9.45 13.831 0 23.168 9.45t9.337 23.42v47.13h97.37V240.5q0-13.97 9.465-23.42 9.466-9.45 23.458-9.45 13.993 0 23.285 9.45t9.292 23.42v90.522q0 14.001-5.598 26.892-5.598 12.89-14.793 22.086l-59.609 59.37v256.086l59.609 59.609q9.195 9.196 14.793 22.086 5.598 12.891 5.598 26.892V876q0 28.104-20.084 48.117-20.083 20.014-48.286 20.014h-292.63V817.435q0-36.323-24.806-61.129Q516.323 731.5 480 731.5q-36.323 0-61.129 24.806-24.806 24.806-24.806 61.129v126.696h-292.63Z"/></svg>