<svg xmlns="http://www.w3.org/2000/svg" width="48" height="48" viewBox="0 -960 960 960"><path d="M856.22-117.98q-5.96 0-12.3-2.36-6.33-2.36-11.81-7.83l-102.5-102.5H305.02q-28.59 0-48.36-19.9-19.77-19.89-19.77-48.47v-80h436.89q28.35 0 48.24-19.78 19.89-19.77 19.89-48.35v-276.66h80q28.59 0 48.48 19.9 19.89 19.89 19.89 48.47v503.42q0 15.91-10.81 24.99-10.82 9.07-23.25 9.07Zm-752.2-205.93q-12.67 0-23.49-9.08-10.81-9.08-10.81-24.99v-464.65q0-28.59 19.89-48.48Q109.5-891 138.09-891h475.69q28.35 0 48.24 19.89t19.89 48.48v315.46q0 28.58-19.89 48.35-19.89 19.78-48.24 19.78H232.59l-104.7 104.69q-5.72 5.72-11.93 8.08-6.22 2.36-11.94 2.36Z"/></svg>