<svg xmlns="http://www.w3.org/2000/svg" width="48" height="48" viewBox="0 -960 960 960"><path d="M803.565-154.022H622.63q-13.651 0-22.662-9.024t-9.011-22.696q0-13.671 9.011-22.769 9.011-9.098 22.662-9.098h180.935L753.674-267.5q-9.478-9.478-9.098-22.196.381-12.717 9.859-22.195 9.478-9.718 22.315-9.598 12.837.119 22.365 9.647l102.037 102.038q5.478 5.478 7.837 11.445 2.359 5.968 2.359 12.663 0 5.957-2.359 12.174-2.359 6.218-7.837 11.935L799.111-59.546q-9.763 9.764-22.457 9.644-12.693-.12-22.219-9.837-9.478-9.478-9.098-21.957.38-12.478 9.098-22.195l49.13-50.131Zm-661.413 0q-28.599 0-48.365-19.765-19.765-19.766-19.765-48.365v-515.696q0-28.697 19.765-48.533 19.766-19.837 48.365-19.837h675.696q28.697 0 48.533 19.837 19.837 19.836 19.837 48.533v295.761q0 15.951-12.794 24.508-12.794 8.557-27.707 3.079-16.508-4.869-33.797-7.076-17.29-2.206-34.522-2.206-102.918 0-174.68 71.597-71.761 71.598-71.761 174.316 0 10.043-6.989 16.945-6.989 6.902-16.859 6.902H142.152ZM480-524.848 184.739-711.217q-13.956-8.718-28.272-.68-14.315 8.038-14.315 24.593 0 7.538 3.739 12.986 3.739 5.449 9.218 9.688l306.5 197.608q8.956 5.718 18.391 5.718 9.435 0 18.391-5.718l306.5-197.608q5.479-4.239 9.218-9.674t3.739-12.957q0-16.478-14.315-24.576-14.316-8.098-28.272.62L480-524.848Z"/></svg>