<svg xmlns="http://www.w3.org/2000/svg" width="48" height="48" viewBox="0 0 48 48"><path d="M24 34.1q-2.9 0-5.25-1.475t-3.7-3.975q-.35-.65-.125-1.325.225-.675.925-.875.55-.25 1.175-.025t.925.775q.9 1.65 2.5 2.675T24 30.9q2.85 0 4.875-2.025T30.9 24q0-2.85-2.025-4.875T24 17.1q-1.3 0-2.45.45-1.15.45-2.1 1.35h1.15q.65 0 1.075.475.425.475.425 1.125 0 .7-.45 1.15-.45.45-1.15.45h-5q-.7 0-1.15-.45-.45-.45-.45-1.15v-5q0-.7.45-1.15.45-.45 1.15-.45t1.15.45q.45.45.45 1.15v1.1q1.45-1.3 3.225-2 1.775-.7 3.675-.7 4.2 0 7.15 2.95T34.1 24q0 4.2-2.95 7.15T24 34.1ZM9.1 42.3q-1.35 0-2.375-1.025T5.7 38.9v-6.8q0-.7.5-1.2t1.2-.5q.75 0 1.225.5.475.5.475 1.2v6.8h6.8q.7 0 1.2.5t.5 1.2q0 .75-.5 1.225-.5.475-1.2.475Zm23 0q-.7 0-1.2-.5t-.5-1.2q0-.75.5-1.225.5-.475 1.2-.475h6.8v-6.8q0-.7.5-1.2t1.2-.5q.75 0 1.225.5.475.5.475 1.2v6.8q0 1.35-1 2.375T38.9 42.3ZM7.4 17.6q-.75 0-1.225-.5-.475-.5-.475-1.2V9.1q0-1.4 1.025-2.4t2.375-1h6.8q.7 0 1.2.5t.5 1.2q0 .75-.5 1.225-.5.475-1.2.475H9.1v6.8q0 .7-.5 1.2t-1.2.5Zm33.2 0q-.75 0-1.225-.5-.475-.5-.475-1.2V9.1h-6.8q-.7 0-1.2-.5t-.5-1.2q0-.75.5-1.225.5-.475 1.2-.475h6.8q1.4 0 2.4 1t1 2.4v6.8q0 .7-.5 1.2t-1.2.5Z"/></svg>