<svg xmlns="http://www.w3.org/2000/svg" width="48" height="48" viewBox="0 -960 960 960"><path d="M146.174-163.065q-47.39 0-80.37-32.99-32.978-32.99-32.978-80.119v-275.739q0-26.269 18.54-44.808 18.54-18.54 44.808-18.54h228.804v-165.935q0-14.424 9.821-24.244 9.821-9.821 24.244-9.821h174.848q47.583 0 81.52 33.967 33.937 33.966 33.937 82.729v172.587h61v-51.631q0-13.153 5.207-25.678t14.184-21.822l39.326-40.326q12.435-12.435 29.826-9.956 17.392 2.478 25.109 18.63l119.935 231.087q8.717 17.152-1.408 33.326t-29.897 16.174H773.696q-26.269 0-44.808-18.54-18.54-18.539-18.54-44.808v-20h-61v96.653q20 16.651 30.619 39.14 10.62 22.489 10.62 47.555 0 47.129-32.99 80.119t-80.119 32.99q-37.478 0-66.5-21.88-29.023-21.881-40.652-56.881H253.308q-11.699 35-40.769 56.881-29.069 21.88-66.365 21.88Zm-.203-65.022q20.345 0 34.317-13.787 13.973-13.786 13.973-34.166 0-20.656-13.787-34.558-13.786-13.902-34.167-13.902-20.655 0-34.557 13.769-13.902 13.768-13.902 34.304t14.024 34.438q14.024 13.902 34.099 13.902Zm431.254 0q20.536 0 34.438-13.787 13.902-13.786 13.902-34.166 0-20.656-13.786-34.558-13.787-13.902-34.167-13.902-20.655 0-34.558 13.769-13.902 13.768-13.902 34.304t13.769 34.438q13.769 13.902 34.304 13.902Zm-252.247-81.435v-239.282H99.283v171.326q10.282-5.283 22.565-8.663 12.282-3.381 24.326-3.381 37.249 0 66.743 22.381 29.494 22.38 40.409 57.619h71.652Zm66.457 0h77.891q10.478-34.282 39.261-56.543 28.783-22.261 65.304-23.218h10v-70.239H391.435v150Zm471.239-131.674L785.37-586.587q-4.761 3.239-7.381 8.12-2.619 4.88-2.619 10.88v126.391h87.304Zm-471.239-84.782h192.456v-172.587q0-21.352-14.375-35.796-14.375-14.443-35.625-14.443H391.435v222.826Zm-66.457 216.456v-80 12.044-171.326 239.282Zm66.457 0v-150 150Z"/></svg>