<svg xmlns="http://www.w3.org/2000/svg" width="48" height="48" viewBox="0 -960 960 960"><path d="M719.57-439.71q98.52-51.36 98.52-124.09 0-72.72-98.52-124-98.53-51.29-239.57-51.29t-239.57 51.37q-98.52 51.36-98.52 124.08 0 72.73 98.52 124.01 98.53 51.28 239.57 51.28t239.57-51.36Zm-40.79 86.82v130.74q0 28.33-20.01 48.23-20.02 19.9-48.12 19.9h-262.3q-28.34 0-48.36-19.9-20.01-19.9-20.01-48.23v-130.74q-92.48-31.96-149.22-87.3-56.74-55.35-56.74-123.33 0-101.35 118.18-172.02 118.17-70.68 287.8-70.68t287.92 70.92q118.3 70.92 118.3 171.58 0 68.44-56.98 124.27-56.98 55.84-150.46 86.56ZM480-563.72Zm-15.13 69.65v-155.21q0-6.72-4.98-11.82-4.98-5.1-11.81-5.1-6.84 0-11.82 5.1t-4.98 11.82v172.13q0 6.72 5.22 11.93 5.22 5.22 11.93 5.22h82.46q6.94 0 11.43-5.1 4.48-5.1 4.48-11.93 0-6.84-5.09-11.94-5.1-5.1-11.82-5.1h-65.02Z"/></svg>