<svg xmlns="http://www.w3.org/2000/svg" width="48" height="48" viewBox="0 -960 960 960"><path d="M318.087-74.022q-67.8 0-115.932-48.133-48.133-48.132-48.133-115.932v-401.674q0-67.898 48.133-116.101 48.132-48.203 115.932-48.203h44.739v-47.848q0-14.644 9.696-24.474 9.695-9.831 24.348-9.831 14.653 0 24.489 9.831 9.837 9.83 9.837 24.474v47.848h97.847v-47.848q0-14.644 9.696-24.474 9.696-9.831 24.37-9.831 14.674 0 24.369 9.831 9.696 9.83 9.696 24.474v47.848h44.739q67.674 0 115.87 48.203 48.195 48.203 48.195 116.101v401.674q0 67.8-48.195 115.932-48.196 48.133-115.87 48.133H318.087Zm0-68.13h323.826q40.102 0 67.899-27.867 27.797-27.867 27.797-68.068v-401.674q0-40.2-27.797-68.067-27.797-27.868-67.899-27.868H318.087q-40.201 0-68.068 27.868-27.867 27.867-27.867 68.067v401.674q0 40.201 27.867 68.068 27.867 27.867 68.068 27.867Zm34.543-429h254.5q14.674 0 24.37-9.696 9.696-9.695 9.696-24.369t-9.696-24.37q-9.696-9.696-24.37-9.696h-254.5q-14.673 0-24.369 9.696t-9.696 24.37q0 14.674 9.696 24.369 9.696 9.696 24.369 9.696ZM480-263.087q33 0 56.5-23.38 23.5-23.381 23.5-55.527 0-21.093-9-35.473-9-14.381-37-46.62l-21.326-24.087q-5.777-5.717-12.704-5.717-6.927 0-12.644 5.717L446-424.087q-28 32.239-37 46.669t-9 35.331q0 32.239 23.5 55.62 23.5 23.38 56.5 23.38ZM222.152-735.696v593.544-593.544Z"/></svg>