<svg xmlns="http://www.w3.org/2000/svg" width="48" height="48" viewBox="0 -960 960 960"><path d="M479.09-358.57q10.9 0 18.06-7.13 7.15-7.14 7.15-18.06v-192.48q0-10.92-7.13-18.06-7.13-7.13-18.03-7.13-10.91 0-18.19 7.13-7.28 7.14-7.28 18.06v192.48q0 10.92 7.2 18.06 7.2 7.13 18.22 7.13Zm-203.18 0h84.28q15.12 0 25.14-10.05 10.02-10.05 10.02-24.9v-61.28q0-10.92-7.13-18.06-7.13-7.14-18.04-7.14T352-472.86q-7.28 7.14-7.28 18.06v45.37h-53.61v-141.14h78.8q11.02 0 18.23-7.2 7.21-7.2 7.21-18.21 0-11.01-7.21-18.23-7.21-7.22-18.23-7.22h-94q-15.5 0-25.47 10.08-9.96 10.09-9.96 25.35v172q0 15.26 9.96 25.35 9.97 10.08 25.47 10.08Zm308.45 0q11 0 18.16-7.2 7.15-7.21 7.15-18.23v-56.89h42.9q10.91 0 18.05-7.2 7.14-7.2 7.14-18.21 0-10.91-7.14-18.19-7.14-7.27-18.05-7.27h-42.9v-58.81h81.07q11.02 0 18.23-7.2 7.2-7.2 7.2-18.21 0-11.01-7.2-18.23-7.21-7.22-18.23-7.22H584.48q-11.23 0-18.33 7.2-7.11 7.21-7.11 18.23v192.24q0 10.92 7.11 18.06 7.1 7.13 18.21 7.13ZM182.15-114.02q-27.6 0-47.86-20.27-20.27-20.26-20.27-47.86v-595.7q0-27.7 20.27-48.03 20.26-20.34 47.86-20.34h595.7q27.7 0 48.03 20.34 20.34 20.33 20.34 48.03v595.7q0 27.6-20.34 47.86-20.33 20.27-48.03 20.27h-595.7Zm0-68.13h595.7v-595.7h-595.7v595.7Zm0 0v-595.7 595.7Z"/></svg>