<svg xmlns="http://www.w3.org/2000/svg" width="48" height="48"><path d="M44.55 18.45q-1.35-1.25-3.05-1.975-1.7-.725-3.65-.725h-23.1v-1.5q0-2.8 1.95-4.75 1.95-1.95 4.75-1.95h19q1.7 0 2.9 1.2t1.2 2.9zm-34.4 10.7q-2.8 0-4.75-1.95-1.95-1.95-1.95-4.75v-10.8q0-1.7 1.2-2.9t2.9-1.2h6.8Q13.1 8.9 12.375 10.6q-.725 1.7-.725 3.65v14.9zm-2.6 11.3q-1.7 0-2.9-1.2t-1.2-2.9v-6.8Q4.8 30.8 6.5 31.525q1.7.725 3.65.725h23.1v1.5q0 2.8-1.95 4.75-1.95 1.95-4.75 1.95zm26.1 0q1.25-1.35 1.975-3.05.725-1.7.725-3.65v-14.9h1.5q2.8 0 4.75 1.95 1.95 1.95 1.95 4.75v10.8q0 1.7-1.2 2.9t-2.9 1.2z"/></svg>