<svg xmlns="http://www.w3.org/2000/svg" width="48" height="48" viewBox="0 -960 960 960"><path d="M505.91-341.01q10.72-10.84 10.72-25.91 0-15.08-10.72-25.92-10.71-10.83-25.91-10.83t-25.91 10.83q-10.72 10.84-10.72 25.92 0 15.07 10.72 25.91 10.71 10.84 25.91 10.84t25.91-10.84Zm-3.33-133.46q8.85-8.86 8.85-22.57v-148.2q0-13.48-8.85-22.46-8.86-8.97-22.58-8.97-13.72 0-22.58 8.97-8.85 8.98-8.85 22.46v148.2q0 13.71 8.85 22.57 8.86 8.86 22.58 8.86 13.72 0 22.58-8.86ZM469.07-79.38q-5.22-1.12-10.7-3.36-140.2-47-222.27-170.65Q154.02-377.04 154.02-523v-194.33q0-21.63 12.32-39.4 12.31-17.77 31.94-25.49l257.85-96.28q12.2-4.48 23.87-4.48 11.67 0 23.87 4.48l257.85 96.28q19.63 7.72 32.06 25.49 12.44 17.77 12.44 39.4V-523q0 145.96-82.2 269.61-82.19 123.65-222.39 170.65-5.48 2.24-10.7 3.36-5.21 1.12-10.93 1.12t-10.93-1.12Z"/></svg>