<svg xmlns="http://www.w3.org/2000/svg" width="48" height="48" viewBox="0 -960 960 960"><path d="M184.41-114.022q-27.335 0-48.862-21.146-21.526-21.146-21.526-48.534v-592.835q0-27.248 21.526-48.464 21.527-21.217 48.862-21.217h592.18q27.195 0 48.411 21.217 21.217 21.216 21.217 48.464v592.835q0 27.388-21.217 48.534-21.216 21.146-48.411 21.146H184.41ZM437.478-524v85.522h84.283V-524h-84.283Zm-170.043 0v85.522h84.522V-524h-84.522Zm84.522 85.522v85.282h85.521v-85.282h-85.521Zm169.804 0v85.282h85.282v-85.282h-85.282Zm-339.609 0v85.282h85.283v-85.282h-85.283ZM607.043-524v85.522h85.403v85.282h85.402v-85.282h-85.402V-524h-85.403ZM266.935-353.196v85.522h-84.783v85.522h85.402v-85.522h84.736v85.522h84.735v-85.522h84.676v85.522h85.462v-85.522h85.462v85.522h85.223v-85.522h-85.402v-85.522h-85.323v85.522h-85.322v-85.522h-84.823v85.522h-85.021v-85.522h-85.022ZM777.848-524v85.522V-524Zm0 170.804v85.522-85.522Z"/></svg>