<svg xmlns="http://www.w3.org/2000/svg" width="48" height="48" viewBox="0 -960 960 960"><path d="M280.456-268.326v-423.587q0-13.868 9.513-23.249 9.512-9.382 23.486-9.382t23.358 9.382q9.383 9.381 9.383 23.249v423.587q0 13.97-9.514 23.42-9.514 9.45-23.578 9.45-13.974 0-23.311-9.462t-9.337-23.408ZM447.37-106.652v-746.696q0-13.97 9.417-23.42 9.417-9.45 23.338-9.45 13.921 0 23.213 9.45 9.292 9.45 9.292 23.42v746.696q0 14.035-9.417 23.333-9.417 9.297-23.338 9.297-13.921 0-23.213-9.297-9.292-9.298-9.292-23.333ZM114.022-430.239V-530q0-14.035 9.512-23.333 9.512-9.297 23.415-9.297 13.903 0 23.238 9.461 9.335 9.462 9.335 23.408V-430q0 14.035-9.466 23.333-9.465 9.297-23.458 9.297-13.902 0-23.239-9.461-9.337-9.462-9.337-23.408Zm499.782 161.913v-423.587q0-13.868 9.513-23.249 9.512-9.382 23.532-9.382 14.021 0 23.238 9.382 9.217 9.381 9.217 23.249v423.587q0 13.97-9.348 23.42-9.348 9.45-23.457 9.45-14.021 0-23.358-9.462t-9.337-23.408Zm166.674-161.913V-530q0-14.035 9.513-23.333 9.512-9.297 23.486-9.297t23.357 9.461q9.384 9.462 9.384 23.408V-430q0 14.035-9.514 23.333-9.514 9.297-23.578 9.297-13.974 0-23.311-9.461-9.337-9.462-9.337-23.408Z"/></svg>