<svg xmlns="http://www.w3.org/2000/svg" width="48" height="48" viewBox="0 96 960 960"><path d="M360.194 900.065q-14.498 0-24.194-9.82-9.696-9.821-9.696-24.245V729.696H190q-14.424 0-24.245-9.871-9.82-9.871-9.82-24.37 0-14.498 9.82-24.194 9.821-9.696 24.245-9.696h136.304v-171.13H190q-14.424 0-24.245-9.871-9.82-9.871-9.82-24.37 0-14.498 9.82-24.314 9.821-9.815 24.245-9.815h136.304V286q0-14.424 9.871-24.245 9.871-9.82 24.37-9.82 14.498 0 24.194 9.82 9.696 9.821 9.696 24.245v136.065h171.13V286q0-14.424 9.871-24.245 9.871-9.82 24.37-9.82 14.498 0 24.314 9.82 9.815 9.821 9.815 24.245v136.065H770q14.424 0 24.245 9.991 9.82 9.99 9.82 24.489 0 14.498-9.82 24.194-9.821 9.696-24.245 9.696H633.935v171.13H770q14.424 0 24.245 9.871 9.82 9.871 9.82 24.37 0 14.498-9.82 24.194-9.821 9.696-24.245 9.696H633.935V866q0 14.424-9.991 24.245-9.99 9.82-24.489 9.82-14.498 0-24.194-9.82-9.696-9.821-9.696-24.245V729.696h-171.13V866q0 14.424-9.871 24.245-9.871 9.82-24.37 9.82Zm34.241-238.5h171.13v-171.13h-171.13v171.13Z"/></svg>