<svg xmlns="http://www.w3.org/2000/svg" width="48" height="48" viewBox="0 -960 960 960"><path d="M475.913-489.348q27.435-33.435 40.533-69.109 13.098-35.674 13.098-81.75 0-46.315-13.449-82.19-13.449-35.876-40.66-68.429 78.869-15.566 136.489 26.228 57.62 41.793 57.62 124.511 0 83.1-57.859 124.941-57.859 41.842-135.772 25.798Zm200.804 338.435q6.913-16.674 12.37-33.206 5.457-16.533 5.457-34.924v-31.131q0-53.391-25.881-98.348-25.88-44.956-90.837-76.152 176.348 21.044 239.968 65.315 63.619 44.272 63.619 109.185v31.131q0 28.347-19.836 48.239-19.836 19.891-48.534 19.891H676.717Zm260.717-403.109H736.197q-12.979 0-21.479-8.5t-8.5-21.5q0-13 8.5-21.5t21.479-8.5h201.237q12.979 0 21.479 8.5t8.5 21.5q0 13-8.5 21.5t-21.479 8.5Zm-623.917 69.913q-68.68 0-112.305-43.625t-43.625-112.305q0-68.679 43.625-112.353 43.625-43.674 112.305-43.674 68.679 0 112.353 43.674 43.674 43.674 43.674 112.353 0 68.68-43.674 112.305t-112.353 43.625ZM-7.413-219.043v-32.327q0-36.615 19.249-66.578 19.25-29.963 51.86-44.682 72.717-32 129.934-46.24 57.218-14.239 119.935-14.239 62.957 0 119.674 14.12 56.718 14.119 128.957 46.359 32.674 14.478 52.511 44.413 19.837 29.934 19.837 66.847v32.327q0 28.347-19.836 48.239-19.837 19.891-48.534 19.891H60.717q-28.599 0-48.364-19.891-19.766-19.892-19.766-48.239Z"/></svg>