<svg xmlns="http://www.w3.org/2000/svg" width="48" height="48" viewBox="0 -960 960 960"><path d="M475.913-489.348q27.435-33.435 40.533-69.109 13.098-35.674 13.098-81.869 0-46.196-13.449-82.071-13.449-35.876-40.66-68.429 78.869-15.566 136.489 26.228 57.62 41.793 57.62 124.511 0 83.1-57.859 124.941-57.859 41.842-135.772 25.798Zm200.804 338.435q6.913-16.674 12.37-33.206 5.457-16.533 5.457-34.924v-31.131q0-53.391-25.881-98.348-25.88-44.956-90.837-76.152 176.348 21.044 239.968 65.315 63.619 44.272 63.619 109.185v31.131q0 28.097-19.961 48.114-19.961 20.016-48.409 20.016H676.717Zm130.218-403.189h-70.717q-12.75 0-21.375-8.652-8.625-8.653-8.625-21.443 0-12.791 8.625-21.268t21.375-8.477h70.717v-70.638q0-12.716 8.675-21.318 8.676-8.602 21.381-8.602t21.324 8.591q8.62 8.59 8.62 21.289v70.598h70.478q12.75 0 21.375 8.676 8.625 8.675 8.625 21.5 0 12.824-8.625 21.324-8.625 8.5-21.375 8.5h-70.478v70.55q0 12.678-8.795 21.303t-21.5 8.625q-12.705 0-21.205-8.602-8.5-8.602-8.5-21.318v-70.638Zm-493.418 69.993q-68.68 0-112.305-43.625t-43.625-112.305q0-68.679 43.625-112.353 43.625-43.674 112.305-43.674 68.679 0 112.353 43.674 43.674 43.674 43.674 112.353 0 68.68-43.674 112.305t-112.353 43.625ZM-7.413-219.043v-32.327q0-36.696 19.249-66.619 19.25-29.922 51.86-44.641 72.717-32 129.934-46.24 57.218-14.239 119.935-14.239 62.957 0 119.674 14.12 56.718 14.119 128.957 46.359 32.674 14.478 52.511 44.413 19.837 29.934 19.837 66.847v32.327q0 28.097-19.961 48.114-19.962 20.016-48.409 20.016H60.717q-28.349 0-48.24-20.016-19.89-20.017-19.89-48.114Z"/></svg>