<svg xmlns="http://www.w3.org/2000/svg" width="48" height="48" viewBox="0 -960 960 960"><path d="M397.065-482.63q-24.153 0-39.424-18.033t-10.793-41.142l14.282-86.173q8-43.957 41.293-72.174Q435.716-728.37 480-728.37q45.066 0 78.468 28.218 33.402 28.217 41.402 72.174l14.282 86.173q4.478 23.109-10.793 41.142-15.271 18.033-39.185 18.033H397.065Zm16.087-64.544h134.696l-11.522-69.848q-4-20.282-19.522-33.424-15.521-13.141-36.184-13.141-20.903 0-36.424 13.141-15.522 13.142-19.283 33.424l-11.761 69.848ZM138.701-409.888q-20.658.931-35.866-8.108-15.209-9.039-19.709-28.021-2.04-7.896-.42-16.135t4.62-15.812q0 1.156-1-3.701-.24-1.205-8.8-21.503-2.2-10.884 1.8-19.891 4-9.006 12-17.006l2.24-2q2.058-17.505 13.991-28.731 11.932-11.226 30.204-11.226 1 0 16.359 3l2.88-1q5-4 11.999-6.619 6.999-2.62 14.499-2.62 9.459 0 17.698 3.62 8.239 3.619 12.595 9.93.872 0 1.307.451.436.451 1.308.451 12.198.901 21.635 7.543 9.436 6.643 14.35 18.321 1.761 6.289 1.381 12.009-.381 5.72-2.381 11.11 0 1.761 1 3.239 6.051 6.354 9.645 13.951 3.594 7.596 3.594 15.766 0 2.718-5 18.43-1 1.905 0 4.049 1 4 1 14.45 0 18.591-15.688 32.322-15.689 13.731-37.904 13.731h-69.337Zm669.162-1.308q-29.58 0-50.559-21.184-20.978-21.184-20.978-51.028 0-10.701 3.509-20.324 3.509-9.624 8.73-18.094l-25.717-22.478q-8.239-8.24-3-18.479 5.239-10.239 15.902-10.239h71.964q29.742 0 50.851 21.11 21.109 21.11 21.109 50.85v18.169q0 29.741-21.116 50.719-21.115 20.978-50.695 20.978Zm-810.733 140V-293q0-40.721 42.706-65.295Q82.54-382.87 150.398-382.87q10.723 0 20.51.381 9.788.38 19.592 1.868-8.239 17.751-12.598 36.228-4.359 18.476-4.359 39.393v67.87H31.196q-14.424 0-24.245-9.821-9.82-9.821-9.82-24.245Zm240 0V-305q0-66.476 67.312-107.173t175.525-40.697q109.468 0 176.185 40.697Q722.87-371.476 722.87-305v33.804q0 14.424-9.821 24.245-9.821 9.821-24.245 9.821H271.196q-14.424 0-24.245-9.821-9.821-9.821-9.821-24.245ZM810-382.87q68.983 0 110.926 24.575Q962.87-333.721 962.87-293v21.804q0 14.424-9.821 24.245-9.821 9.821-24.245 9.821H786.457V-305q0-20.906-3.859-39.372T770.5-380.621q9.804-1.488 19.568-1.868 9.764-.381 19.932-.381ZM415.304-549.087l11.283-67.696q3.761-19.804 18.804-32.467 15.044-12.663 34.609-12.663 20.565 0 35.609 12.663 15.043 12.663 18.804 32.467l11.283 67.696H415.304Z"/></svg>