<svg xmlns="http://www.w3.org/2000/svg" width="48" height="48" viewBox="0 -960 960 960"><path d="M813.913-59.891 690.218-184.065q-.718 14.196-10.698 23.674-9.981 9.478-23.89 9.478H66.565q-14.674 0-24.37-9.696-9.695-9.695-9.695-24.369v-66.297q0-36.768 18.837-66.584 18.837-29.815 52.511-44.771 73.478-32 132.698-46.24 59.22-14.239 121.932-14.239 26.975 0 52.109 3 25.133 3 50.109 7.761l-75-75q-7.522 2-15.283 2.5-7.761.5-15.522.5-65.043-1.196-106.445-42.478-41.403-41.283-42.598-106.326 0-7.761.5-15.649.5-7.887 2.5-15.419L47-826.043q-8.478-8.479-8.478-22.077 0-13.597 9.488-22.826 8.23-8.489 21.827-8.489 13.598 0 22.837 8.478l766.152 766.914q8.478 8.478 8.478 22.076 0 13.597-8.488 22.086-9.229 9.229-22.446 9.229-13.218 0-22.457-9.24ZM633.087-423.913q67.087 8.239 125.652 23t95.848 34.283q34.717 18 53.815 48.413 19.098 30.413 19.098 68.043v64.674q0 12.455-9.402 19.934-9.402 7.479-24.708 6.762L736.565-315.891q-13.76-35.718-40.26-62.174-26.5-26.457-63.218-45.848ZM100.63-219.043h515.696v-37.674l-54.869-54.87q-59.718-25.195-104.772-34.174-45.055-8.978-98.207-8.978-56.761 0-105.902 10.761T132.63-301.935q-13.76 6-22.88 20.835t-9.12 30.687v31.37Zm439.914-292.631q16.956-23.956 25.315-56.152 8.359-32.196 8.359-69.413 0-45.695-12.537-80.908-12.538-35.214-36.942-64.493 11.239-3.208 24.677-5.328 13.438-2.119 24.855-2.119 67.381 0 110.218 42.847 42.837 42.848 42.837 110.033 0 68.381-45.771 111.935-45.772 43.555-113.925 40.685l-27.086-27.087Zm-47.914-47.674-50.543-51.086q2-6.479 3-13.468t1-14.75q-.717-36.962-24.783-61.09-24.065-24.128-61.152-24.606-7.522 0-14.641.881-7.12.88-13.881 3.119l-50.782-51.022q16.495-9.239 36.216-13.978 19.721-4.739 41.414-4.739 67.519 0 110.314 42.699 42.795 42.7 42.795 110.084 0 21.804-4.739 41.641t-14.218 36.315ZM358.466-219.043h257.86H100.63h257.836Zm29.012-446.696Z"/></svg>