<svg xmlns="http://www.w3.org/2000/svg" width="48" height="48" viewBox="0 -960 960 960"><path d="m150-402.152 83.913-81.913L150-567.739l-81.674 83.674L150-402.152Zm570.848-10L810-555.739l90.391 143.587H720.848ZM31.196-237.13q-14.674 0-24.37-9.696-9.696-9.696-9.696-24.37V-293q0-40.196 42.337-65.033Q81.804-382.87 150-382.87q10.326 0 20.63.381 10.305.38 19.87 1.902-8.239 17.717-12.598 36.674-4.359 18.956-4.359 39.913v66.87H31.196Zm240 0q-14.674 0-24.37-9.696-9.696-9.696-9.696-24.37V-304q0-66.435 67.218-107.652Q371.565-452.87 480-452.87q109.196 0 176.033 41.218Q722.87-370.435 722.87-304v32.804q0 14.674-9.696 24.37-9.696 9.696-24.37 9.696H271.196Zm515.261 0V-304q0-20.957-4.239-40.033-4.24-19.076-12.718-36.554 9.565-1.522 19.87-1.902 10.304-.381 20.63-.381 68.196 0 110.533 24.837T962.87-293v21.804q0 14.674-9.696 24.37-9.696 9.696-24.37 9.696H786.457ZM480-482.63q-51.196 0-87.033-35.837T357.13-605.5q0-51.196 35.837-87.033T480-728.37q51.196 0 87.033 35.837T602.87-605.5q0 51.196-35.837 87.033T480-482.63Z"/></svg>