<svg xmlns="http://www.w3.org/2000/svg" width="48" height="48" viewBox="0 -960 960 960"><path d="M479.761-33.065q-188.631 0-317.783-69.419Q32.826-171.903 32.826-273.293q0-36.511 15.76-68.37 15.762-31.859 47.283-59.098 30.522-26.478 73.044-45.598 42.522-19.119 95.565-28.402 12.64-2.717 23.438 5.251 10.798 7.969 13.345 21.184 2.239 13.674-6.62 24.609-8.859 10.935-22.532 13.891-39.087 6.522-70.584 18.53-31.497 12.007-54.199 30.079-22.446 19.043-34.288 40.714-11.842 21.67-11.842 47.177 0 68.043 113.521 120.087 113.522 52.043 265.01 52.043 151.966 0 265.641-52.043 113.675-52.044 113.675-120.053 0-25.443-11.902-47.543-11.902-22.1-34.467-40.382-23.702-18.072-54.699-30.46-30.997-12.388-70.323-18.91-13.674-2.956-22.532-14.011-8.859-11.054-6.381-23.62 1.479-13.304 12.294-21.162 10.815-7.859 24.489-5.381 44.283 8.283 84.804 24.022 40.522 15.739 70.522 38.217 38.283 27.239 57.304 62.098 19.022 34.859 19.022 77.098 0 102.404-129.06 171.333-129.06 68.928-318.353 68.928Zm-80.239-172.848q-14.913 0-24.489-9.696-9.577-9.695-9.577-24.609v-407.26H188.087q-13.913 0-23.989-9.696-10.076-9.695-10.076-24.369 0-13.674 10.076-23.87 10.076-10.196 23.989-10.196h583.826q13.913 0 24.109 10.196 10.196 10.196 10.196 23.87 0 14.674-10.196 24.369-10.196 9.696-24.109 9.696h-177.13v407.26q0 14.914-9.717 24.609-9.717 9.696-24.609 9.696-13.653 0-23.848-9.696-10.196-9.695-10.196-24.609v-167.108h-92.826v167.108q0 14.914-10.196 24.609-10.195 9.696-23.869 9.696ZM480-775.609q-30.799 0-52.932-22.276-22.133-22.276-22.133-53.109 0-31.071 22.133-53.147 22.133-22.077 52.932-22.077 30.799 0 53.052 22.107 22.252 22.107 22.252 53.109 0 30.763-22.252 53.078-22.253 22.315-53.052 22.315Z"/></svg>