<svg xmlns="http://www.w3.org/2000/svg" width="48" height="48" viewBox="0 96 960 960"><path d="M309.825 777.435q-13.638 0-22.449-8.936-8.811-8.936-8.811-22.499V406q0-13.563 8.987-22.499 8.986-8.936 22.623-8.936 13.638 0 22.449 8.936 8.811 8.936 8.811 22.558v138.506h277.13V406.059q0-13.622 8.987-22.558 8.986-8.936 22.623-8.936 13.638 0 22.449 8.936 8.811 8.936 8.811 22.499v340q0 13.563-8.987 22.499-8.986 8.936-22.623 8.936-13.638 0-22.449-8.936-8.811-8.936-8.811-22.558V607.435h-277.13v138.506q0 13.622-8.987 22.558-8.986 8.936-22.623 8.936Z"/></svg>