<svg xmlns="http://www.w3.org/2000/svg" width="48" height="48" viewBox="0 -960 960 960"><path d="M188.39-278.565q-13.536 0-22.278-8.936-8.742-8.936-8.742-22.499v-340q0-13.563 8.918-22.499 8.919-8.936 22.457-8.936t22.396 8.936Q220-663.563 220-650v138.565h266.5V-650q0-13.563 8.986-22.499 8.987-8.936 22.624-8.936 13.399 0 22.329 8.936 8.931 8.936 8.931 22.499v340q0 13.563-9.106 22.499-9.106 8.936-22.505 8.936-13.637 0-22.448-8.936T486.5-310v-138.565H220V-310q0 13.563-8.986 22.499-8.987 8.936-22.624 8.936Zm577.865-82.37q-13.538 0-22.396-8.936Q735-378.806 735-392.37v-56.195h-56.368q-13.534 0-22.398-8.987-8.864-8.986-8.864-22.623 0-13.638 8.901-22.449 8.901-8.811 22.414-8.811H735v-56.2q0-13.463 8.986-22.447 8.987-8.983 22.624-8.983 13.536 0 22.278 8.936 8.742 8.935 8.742 22.499v56.195h56.368q13.535 0 22.518 8.987 8.984 8.986 8.984 22.623 0 13.638-8.936 22.449-8.936 8.811-22.499 8.811H797.63v56.2q0 13.463-8.918 22.447-8.919 8.983-22.457 8.983Z"/></svg>