<svg xmlns="http://www.w3.org/2000/svg" width="48" height="48" viewBox="0 96 960 960"><path d="M188.043 729.544q-64.913 0-109.728-44.816Q33.5 639.913 33.5 575t44.815-109.848q44.815-44.935 109.728-44.935 64.914 0 109.848 44.935Q342.826 510.087 342.826 575t-44.935 109.728q-44.934 44.816-109.848 44.816Zm495.095 87.565q-100.765 0-171.43-70.725T441.043 575q0-100.659 70.725-171.504 70.725-70.844 171.384-70.844 100.759 0 171.554 70.844Q925.5 474.341 925.5 575q0 100.659-70.798 171.384-70.799 70.725-171.564 70.725Zm-.009-68.131q72.824 0 123.532-50.565Q857.37 647.848 857.37 575t-50.709-123.413q-50.708-50.565-123.532-50.565-72.825 0-123.39 50.565T509.174 575q0 72.848 50.565 123.413t123.39 50.565Z"/></svg>