<svg xmlns="http://www.w3.org/2000/svg" width="48" height="48" viewBox="0 96 960 960"><path d="m830.218 847.522-68.37-68.37V658.848h-82.5v38.043l-62.5-62.5q6.39-17.983 23.019-30.948 16.629-12.965 39.4-12.965h82.581v-62.5q0-122.804-86.402-211.706-86.403-88.902-209.362-88.902-50.948 0-99.44 17.641t-88.014 51.163l-49.739-49.979q44.283-38.239 105.342-62.717Q395.293 159 466.031 159q76.162 0 142.813 28.968 66.65 28.969 115.563 79.112 48.912 50.142 77.361 117.17 28.45 67.027 28.45 143.776v319.496ZM498.63 1013.63q-13.867 0-23.249-9.36Q466 994.905 466 981.064t9.381-23.029q9.382-9.187 23.249-9.187h258.805l-54-54h-26q-26.424 0-46.44-19.522-20.017-19.521-20.017-46.935v-26L201.484 392.609q-17.049 28-26.19 64.282-9.142 36.283-9.142 71.087v62.5h82.739q28.104 0 48.117 20.084 20.014 20.083 20.014 48.286v167.63q0 28.331-20.014 48.35-20.013 20.02-48.117 20.02h-82.739q-27.599 0-47.865-20.336-20.265-20.336-20.265-48.034v-298.5q0-53.717 13.978-102.772 13.978-49.054 36.739-85.054L45.479 236.891q-8.762-8.761-8.381-20.88.38-12.12 9.38-21.511 9-8.609 21.5-8.609t21.477 8.979L865.26 970.554q9 8.981 9 21.11 0 12.126-8.609 20.946-9.391 8.82-22.011 8.71-12.619-.12-22.097-9.6l-15.479-14.481q-8.195 6.961-19.869 11.671-11.674 4.72-24.348 4.72H498.63ZM166.152 826.478h82.739v-167.63h-82.739v167.63Zm0 0h82.739-82.739Zm595.696-47.326Z"/></svg>