<svg xmlns="http://www.w3.org/2000/svg" width="48" height="48" viewBox="0 -960 960 960"><path d="M812.225-241.674q-12.747 0-23.562-8.639-10.815-8.64-10.815-25.187v-113.522H663.565q-17.032 0-25.549-10.459-8.516-10.46-8.516-23.37t8.516-23.606q8.517-10.695 25.549-10.695h114.283v-66.087q0-122.628-86.402-211.619-86.403-88.99-209.362-88.99-50.948 0-99.44 17.642-48.492 17.641-88.014 51.163l-49.739-49.979q44.283-38 105.342-62.598 61.06-24.598 131.798-24.598 76.162 0 142.783 29.114 66.62 29.114 115.552 79.202 48.931 50.088 77.391 117.043 28.461 66.954 28.461 143.62v247.5q0 17.032-10.623 25.549-10.623 8.516-23.37 8.516ZM514.391-37.826q-13.64 0-23.016-9.439Q482-56.704 482-70.439t9.375-22.952q9.376-9.218 23.016-9.218h262.392l-51.892-51.413h-27.869q-28.349 0-48.24-19.89-19.891-19.891-19.891-48.24v-26.913L217.913-660.043q-17.239 28-26.5 64.89t-9.261 71.857v66.144h80.826q28.448 0 48.409 20.016t19.961 48.114v166.87q0 28.349-19.961 48.24-19.961 19.89-48.409 19.89h-80.826q-27.599 0-47.865-20.265-20.265-20.266-20.265-47.865v-301.087q0-53.478 14.217-103.609 14.217-50.13 37.696-86.37L62.674-816q-9-8.761-9-20.88 0-12.12 8.88-21.511 9.12-8.848 21.62-8.729 12.5.12 21.78 9.157L883.826-81.326q12.435 12.435 5.812 27.967-6.622 15.533-23.964 15.533H514.391ZM182.152-389.022v166.87h80.826v-166.87h-80.826Zm0 0h80.826-80.826Zm481.413 0h114.283-114.283Z"/></svg>