<svg xmlns="http://www.w3.org/2000/svg" width="48" height="48" viewBox="0 -960 960 960"><path d="M340-75.456q-28.349 0-48.24-19.891-19.891-19.891-19.891-48.24v-128.282H143.587q-28.349 0-48.24-19.891-19.89-19.891-19.89-48.24v-106.652h269.021l68.848 103.13q4 6.718 10.598 10.957 6.598 4.239 14.902 4.239 10.864 0 19.394-6.478 8.531-6.479 11.932-16.196l59.565-175.782 43.609 65.173q5 6.479 11.598 10.718 6.598 4.239 15.076 4.239h284.783V-340q0 28.349-19.961 48.24-19.961 19.891-48.409 19.891H688.37v128.282q0 28.349-19.961 48.24-19.961 19.89-48.409 19.89H340Zm90.283-355.609-43.37-66.174q-4.027-6.256-11.443-10.106-7.416-3.851-15.47-3.851H75.456V-620q0-28.448 19.891-48.409t48.24-19.961h128.282v-128.043q0-28.448 19.891-48.409T340-884.783h280q28.448 0 48.409 19.961t19.961 48.409v128.043h128.043q28.448 0 48.409 19.961T884.783-620v108.804H615.522l-68.609-103.13q-5-6.717-11.717-10.957-6.718-4.239-14.904-4.239-10.703 0-19.293 6.479-8.59 6.478-12.151 16.195l-58.565 175.783Z"/></svg>