<svg xmlns="http://www.w3.org/2000/svg" width="48" height="48" viewBox="0 -960 960 960"><path d="M432.522-491.674ZM33.782-627.391q0-92.772 62.213-157.114 62.211-64.343 153.766-64.343 56.83 0 105.176 25.783 48.346 25.782 84.824 75.826 42.478-52.805 89.299-77.207 46.821-24.402 100.623-24.402 78.795 0 134.111 52 55.315 52 70.51 127.478 3.196 13.435-4.351 24.593-7.546 11.158-21.032 14.131-13.486 2.972-24.553-4.466-11.067-7.439-14.238-20.953-8.521-53.087-45.184-88.75t-95.293-35.663q-51.689 0-92.856 30.043-41.167 30.044-64.732 77.326-5.478 9.435-14.382 15.272Q448.778-652 438.761-652q-10.196 0-18.511-5.717-8.315-5.718-13.554-15.392-23.326-47.521-64.168-77.445-40.841-29.924-92.913-29.924-65.137 0-106.3 43.93t-41.163 109.065q0 39.331 15.398 76.302 15.397 36.97 53.521 83.999 38.124 47.03 103.778 109.763 65.653 62.733 164.912 154.789l85.521-74.957q9.218-9.195 22.689-8.595 13.47.6 23.032 9.997 10.214 9.794 10.095 24.468-.12 14.674-11.316 23.869l-83.999 74.435q-9.957 8.957-22.142 12.935-12.184 3.978-24.13 3.978t-23.73-4.208q-11.783-4.208-21.042-13.466-54.761-50.565-117.815-106.794-63.055-56.228-117.044-116.25-53.989-60.021-90.043-123.403-36.055-63.381-36.055-126.77Zm684.979 221.456h-95.935q-14.424 0-24.245-9.871-9.82-9.871-9.82-24.369 0-14.499 9.82-24.195 9.821-9.695 24.245-9.695h95.935V-570q0-14.424 9.871-24.245 9.871-9.82 24.369-9.82 14.499 0 24.195 9.82 9.695 9.821 9.695 24.245v95.935h95.935q14.424 0 24.245 9.871 9.82 9.871 9.82 24.369 0 14.499-9.82 24.195-9.821 9.695-24.245 9.695h-95.935V-310q0 14.424-9.871 24.245-9.871 9.82-24.369 9.82-14.499 0-24.195-9.82-9.695-9.821-9.695-24.245v-95.935Z"/></svg>