<svg xmlns="http://www.w3.org/2000/svg" width="48" height="48" viewBox="0 -960 960 960"><path d="M180-607.04q0 64.562 20.043 125.703 20.044 61.141 60.087 112.859 8.718 12.674 8.859 27.467.141 14.794-10.815 24.989-10.957 10.196-26.011 8.316-15.054-1.881-23.726-14.127-47.285-61.623-71.926-134.058-24.642-72.435-24.642-151.152 0-77.24 23.642-150.555 23.641-73.315 71.88-134.228 8.718-11.957 24.152-13.457 15.435-1.5 26.392 8.457 10.956 9.196 10.435 23.88-.522 14.684-9.24 26.098-41.043 51.478-60.087 113.239Q180-671.848 180-607.04Zm386.065 96.997q-39 0-66-27t-27-66q0-39 27-67t66-28q39 0 67 28t28 67q0 39-28 66t-67 27ZM779-227.348q0-14.674 9.696-24.37 9.695-9.695 24.348-9.695 14.653 0 24.49 9.695 9.836 9.696 9.836 24.408-4 65.701-48.82 108.517-44.819 42.815-106.474 42.815-58.446 0-101.522-32.196-43.076-32.196-63.076-82.717-20-51.479-39.739-80.218-19.739-28.739-73.261-71.5-65.521-52.043-95-112.88Q290-516.326 290-603.043q0-121.645 77.196-199.475 77.195-77.83 198.848-77.83 119.653 0 198.99 75.853 79.336 75.852 83.336 193.517 0 14.674-9.836 24.369-9.837 9.696-24.49 9.696-14.653 0-24.348-9.696Q780-596.304 780-610.978q-4-88-63.685-144.5t-150.13-56.5q-88.446 0-148.13 60.358-59.685 60.358-59.685 148.577 0 71.282 27.761 122.706 27.76 51.424 92.878 100.424 38.404 28.522 61.665 62.402 23.261 33.881 44.5 83.881 17 42.239 43.603 65.76 26.604 23.522 63.049 23.522 33.565 0 58.37-23.522Q775-191.391 779-227.348Z"/></svg>