<svg xmlns="http://www.w3.org/2000/svg" width="48" height="48" viewBox="0 -960 960 960"><path d="M518-32.826q-75.391 0-120.924-62.196-45.533-62.195-45.533-142.467 0-80.272 45.533-142.468Q442.609-442.152 518-442.152t120.924 62.195q45.533 62.196 45.533 142.468 0 80.272-45.533 142.467Q593.391-32.826 518-32.826ZM211.543-480q0 94.478-11.739 187.337t-36.739 184.098q-4.092 15.047-16.486 23.98-12.394 8.933-26.221 3.694-14.315-5.24-19.913-18.555-5.597-13.315-1.358-28.511 23-86.76 34.5-174.521 11.5-87.761 11.5-177.905 0-90.143-11.5-178.021-11.5-87.879-34.5-174.639-4.24-15.196 1.358-28.511 5.598-13.316 19.663-18.555 13.827-5.239 26.221 3.6 12.394 8.84 16.736 24.074 24 91.239 36.239 184.598Q211.543-574.478 211.543-480Zm599.37.061q0 89.582 11.5 177.402t34.5 174.58q4.239 15.196-1.358 28.511-5.598 13.316-19.663 18.555-13.827 5.239-26.221-3.6-12.394-8.84-16.736-24.074-25-91.239-36.739-184.098Q744.457-385.522 744.457-480t12.239-187.837q12.239-93.359 36.239-184.598 4.092-15.047 16.486-23.98 12.394-8.933 26.221-3.694 14.315 5.239 19.913 18.555 5.597 13.315 1.358 28.511-23 86.84-34.5 174.646-11.5 87.806-11.5 178.458ZM485.78-164.263q9.503 8.567 22.22 8.567 12.717 0 22.196-9.478 14.478-14.168 22.098-33.053 7.619-18.885 7.619-39.262t-7.239-39.143q-7.239-18.765-21.478-33.172-8.544-9.479-21.729-9.479-13.184 0-22.663 8.479-9.717 8.717-10.217 22.315t8.217 23.315q.718.718 6.12 8.71 5.402 7.993 5.402 18.855 0 10.961-5.402 19.144-5.402 8.182-6.12 8.9-9.478 9.548-9.098 23.142.381 13.593 10.074 22.16ZM438-517.848q-75.391 0-120.924-62.195-45.533-62.196-45.533-142.468 0-80.272 45.533-142.467Q362.609-927.174 438-927.174t120.924 62.196q45.533 62.195 45.533 142.467 0 80.272-45.533 142.468Q513.391-517.848 438-517.848Zm31.196-131.348q9.717-8.717 10.217-22.315t-8.217-23.315q-4.761-5.761-8.022-12.939-3.261-7.177-3.261-14.865 0-7.605 3.261-14.825 3.261-7.219 8.022-12.98 8.717-9.548 8.717-22.771 0-13.222-9.696-22.531-9.528-8.567-22.231-8.567-12.703 0-22.182 9.478-14.478 14.478-21.978 33.182-7.5 18.703-7.5 39.014 0 20.394 7 39.175t21.478 33.259q9.479 9.479 22.196 9.479 12.717 0 22.196-8.479Z"/></svg>