<svg xmlns="http://www.w3.org/2000/svg" width="48" height="48" viewBox="0 -960 960 960"><path d="M519.761-32.826q-75.391 0-120.924-62.196-45.533-62.195-45.533-142.467 0-80.272 45.533-142.468 45.533-62.195 120.924-62.195t120.924 62.195q45.533 62.196 45.533 142.468 0 80.272-45.533 142.467-45.533 62.196-120.924 62.196ZM213.304-480q0 94.568-11.739 187.382-11.739 92.814-36.739 184.053-4.092 15.047-16.486 23.98-12.395 8.933-26.34 3.694-14.196-5.24-19.794-18.555-5.598-13.315-1.358-28.511 23-86.762 34.5-174.522 11.5-87.76 11.5-177.904 0-90.143-11.5-178.02-11.5-87.878-34.5-174.64-4.24-15.196 1.358-28.511 5.598-13.316 19.544-18.555 13.945-5.239 26.34 3.6 12.394 8.84 16.736 24.074 24 91.239 36.239 184.553Q213.304-574.568 213.304-480Zm599.37.061q0 89.582 11.5 177.401 11.5 87.819 34.5 174.581 4.239 15.196-1.239 28.511-5.478 13.316-19.543 18.555-14.066 5.239-26.511-3.62-12.446-8.859-16.446-24.054-25-91.239-36.859-184.053Q746.218-385.432 746.218-480q0-94.568 12.239-187.882 12.239-93.314 36.478-184.553 3.75-15.008 16.196-23.96 12.445-8.953 26.511-3.714 14.315 5.239 19.793 18.555 5.478 13.315 1.239 28.511-23 86.841-34.5 174.646-11.5 87.806-11.5 178.458ZM519.761-97.609q48.478 0 75.196-42.88 26.717-42.881 26.717-97.12 0-54-26.717-97-26.718-43-75.196-43-48.478 0-75.076 43-26.598 43-26.598 97.12 0 54.119 26.598 97 26.598 42.88 75.076 42.88Zm-32.196-66.684q9.478 8.597 22.196 8.597 12.717 0 22.341-9.478 14.333-14.239 21.952-33.095 7.62-18.856 7.62-39.241 0-20.384-7.239-39.139-7.239-18.756-21.239-33.155-8.522-9.479-21.837-9.479-13.316 0-22.794 8.598t-10.098 22.216q-.619 13.619 8.098 23.295.718.718 6.12 8.71 5.402 7.993 5.402 18.855 0 10.961-5.402 19.144-5.402 8.182-6.12 8.9-9.478 9.478-8.978 23.076t9.978 22.196Zm-47.804-353.555q-75.391 0-120.924-62.195-45.533-62.196-45.533-142.468 0-80.272 45.533-142.467 45.533-62.196 120.924-62.196t120.924 62.196q45.533 62.195 45.533 142.467 0 80.272-45.533 142.468-45.533 62.195-120.924 62.195Zm0-64.782q48.478 0 75.196-42.881 26.717-42.88 26.717-97.119 0-54-26.717-97-26.718-43-75.196-43-48.478 0-75.076 43-26.598 43-26.598 97.119 0 54.12 26.598 97 26.598 42.881 75.076 42.881Zm31.435-66.566q9.478-8.717 9.978-22.335.5-13.619-8.07-23.295-4.908-5.761-8.169-12.954-3.261-7.193-3.261-14.866 0-7.572 3.211-14.775t8.311-13.014q8.478-9.506 8.478-22.71 0-13.203-9.478-22.681-9.718-8.478-22.413-8.478-12.696 0-22.218 9.478-14.255 14.4-21.866 33.198-7.612 18.799-7.612 39.121 0 20.323 7.119 39.078 7.12 18.755 21.453 33.233 9.384 9.479 22.102 9.479 12.717 0 22.435-8.479Zm-31.435-73.434Zm80 485.021Z"/></svg>