<svg xmlns="http://www.w3.org/2000/svg" width="48" height="48" viewBox="0 -960 960 960"><path d="M309.63-115.935q-18.053 0-33.803-8.951-15.749-8.951-25.371-25.114L78.609-445.935q-9.196-16.241-9.196-34.229t9.196-33.901L250.456-810q9.622-16.163 25.371-25.114 15.75-8.951 33.803-8.951h340.979q17.962 0 33.638 8.951 15.675 8.951 25.536 25.114l171.608 295.935q9.196 16.241 9.196 34.229t-9.196 33.901L709.783-150q-9.861 16.163-25.536 25.114-15.676 8.951-33.638 8.951H309.63Zm-1.239-68.13h343.218L821.217-480 651.609-775.935H308.391L137.783-480l170.608 295.935ZM480-480Z"/></svg>