<svg xmlns="http://www.w3.org/2000/svg" width="48" height="48" viewBox="0 96 960 960"><path d="M321 904.609q-27.587 0-47.859-20.391-20.272-20.392-20.272-47.979v-67.848q0-14.674 9.696-24.369 9.696-9.696 24.37-9.696h92.087v-127q-37.283 2.283-74.924-11.337-37.642-13.619-67.163-42.141v-57.283h-49.044L82.739 391.652Q71.217 380.13 71.217 365.25t11.522-23.402q33.196-24.957 76.294-40.435 43.097-15.478 86.337-15.478 28.804 0 66.467 9.38 37.663 9.381 67.185 29.663v-43.761q0-14.674 9.695-24.369 9.696-9.696 24.37-9.696h398.826q14.674 0 24.489 9.696 9.816 9.695 9.816 24.369v512.174q0 46.392-32.414 78.805-32.413 32.413-78.804 32.413H321Zm126.152-170.283h210.935q14.674 0 24.37 9.696 9.695 9.695 9.695 24.369v25q0 19.283 11.902 31.066 11.903 11.782 30.946 11.782t30.946-11.782q11.902-11.783 11.902-31.066V315.522H447.152V373l220.587 220.587q6.478 6.478 10.337 12.837 3.859 6.358 3.859 15.076 0 13.478-8.979 22.456-8.978 8.979-22.456 8.979-8.718 0-14.957-3.859-6.239-3.859-12.478-10.098L514.37 530.043l-16.044 19.044Q486.043 563.37 474 570.891q-12.043 7.522-26.848 14.283v149.152ZM215.848 433.935h83.717v89.478q16.522 10.761 32.783 16.141 16.261 5.381 33.022 5.381 24.521 0 50.163-13.5 25.641-13.5 36.923-26.783l16.522-19.282-67.804-68.044q-32-32-71.641-50.38-39.642-18.381-84.163-18.381-26.522 0-47.805 6.381-21.282 6.38-43.565 17.141l61.848 61.848ZM321 836.239h317.022q-6.24-5.522-10.12-15.902-3.88-10.38-3.88-23.38H321v39.282Zm0 0v-39.282 39.282Z"/></svg>