<svg xmlns="http://www.w3.org/2000/svg" width="48" height="48" viewBox="0 -960 960 960"><path d="m689.065-358.565-65.674-65.925q2.522-6.51 8.055-11.01 5.532-4.5 13.032-4.5 9.134.239 16.192 6.779 7.058 6.539 7.091 15.786v8h102.804v-47.522H653.113q-14.926 0-24.737-9.81-9.811-9.811-9.811-24.754v-74.393q0-15.349 10.086-25.435 10.086-10.086 25.349-10.086h132q15.263 0 25.349 10.086T821.435-566v20.565q0 11.022-7.241 18.228Q806.954-520 795.88-520q-9.512 0-16.457-6.522-6.945-6.521-7.184-16.043v-8H669.435v47.522h117.452q14.926 0 24.737 9.81 9.811 9.811 9.811 24.754v74.393q0 15.349-10.086 25.435-10.086 10.086-25.349 10.086h-96.935Zm-545.043 0q-11.012 0-18.234-7.207-7.223-7.206-7.223-18.228v-192q0-11.022 7.2-18.228 7.201-7.207 18.213-7.207t18.234 7.207q7.223 7.206 7.223 18.228v63.565h95.13V-576q0-11.022 7.2-18.228 7.201-7.207 18.213-7.207t18.234 7.207q7.223 7.206 7.223 18.228v192q0 11.022-7.2 18.228-7.201 7.207-18.213 7.207t-18.234-7.207q-7.223-7.206-7.223-18.228v-77.565h-95.13V-384q0 11.022-7.2 18.228-7.201 7.207-18.213 7.207ZM819.935-53.348 53.348-819.935l44.913-44.674L864.609-98.261l-44.674 44.913Zm-425.37-305.217V-524.63l50.87 50.869v64.326h64.087l51.108 50.87H394.565Z"/></svg>