<svg xmlns="http://www.w3.org/2000/svg" width="48" height="48" viewBox="0 -960 960 960"><path d="M178.087-252.152h603.826q31.449 0 53.692-22.305 22.243-22.304 22.243-53.63v-293.826q0-31.449-22.243-53.692t-53.692-22.243H178.087q-31.326 0-53.63 22.243-22.305 22.243-22.305 53.692v293.826q0 31.326 22.305 53.63 22.304 22.305 53.63 22.305Zm95.935 68.13h-95.935q-60.791 0-102.428-41.637T34.022-328.087v-293.826q0-60.674 41.637-102.489 41.637-41.816 102.428-41.816h603.826q60.674 0 102.489 41.816 41.816 41.815 41.816 102.489v293.826q0 60.791-41.816 102.428-41.815 41.637-102.489 41.637h-95.695q0 13-8.745 21.5t-21.255 8.5H304.022q-12.75 0-21.375-8.625t-8.625-21.375ZM480-475Z"/></svg>