<svg xmlns="http://www.w3.org/2000/svg" width="48" height="48" viewBox="0 -960 960 960"><path d="M154.022-182.152v-386.891q0-16.164 7.092-30.587 7.092-14.424 20.016-23.87l257.848-193.565q17.832-13.674 40.862-13.674t41.182 13.674L778.87-623.5q12.924 9.446 20.136 23.87 7.212 14.423 7.212 30.587v386.891q0 28.337-20.017 48.234-20.016 19.896-48.353 19.896H595.5q-14.424 0-24.245-9.82-9.82-9.821-9.82-24.245V-367.37q0-14.423-9.821-24.244t-24.244-9.821h-94.74q-14.423 0-24.244 9.821t-9.821 24.244v219.283q0 14.424-9.82 24.245-9.821 9.82-24.245 9.82H222.152q-28.337 0-48.234-19.896-19.896-19.897-19.896-48.234Z"/></svg>