<svg xmlns="http://www.w3.org/2000/svg" width="48" height="48" viewBox="0 -960 960 960"><path d="M67.19-191.87q-14.02 0-23.35-9.46-9.34-9.46-9.34-23.41v-531.69q0-13.95 9.51-23.29 9.51-9.35 23.53-9.35 14.03 0 23.24 9.35 9.22 9.34 9.22 23.29V-391h355.63v-244.93q0-28.1 20.02-48.12 20.01-20.02 48.35-20.02h251q62.2 0 106.35 44.15 44.15 44.15 44.15 106.35v329.07q0 13.95-9.39 23.29-9.4 9.34-23.42 9.34-14.02 0-23.35-9.46-9.34-9.46-9.34-23.41v-98.13H100v98.37q0 13.95-9.39 23.29-9.4 9.34-23.42 9.34ZM193.9-478.9q-31.33-31.34-31.33-77.53 0-46.2 31.33-77.42 31.34-31.22 77.53-31.22 46.2 0 77.42 31.22t31.22 77.42q0 46.19-31.22 77.53-31.22 31.33-77.42 31.33-46.19 0-77.53-31.33Z"/></svg>