<svg xmlns="http://www.w3.org/2000/svg" width="48" height="48" viewBox="0 -960 960 960"><path d="m813.913-59.806-14.891-14.216H188.087q-14.424 0-24.245-9.87-9.82-9.872-9.82-24.37 0-14.499 9.82-24.195 9.821-9.695 24.245-9.695h53.935v-124.765q0-69.366 39.423-127.746 39.424-58.38 102.99-85.337-41.24-18.674-76.261-54.467-35.022-35.794-52.065-82.468L47-826.043q-9.24-9.306-9.24-22.371 0-13.064 9.532-22.543 9.53-9.478 22.337-9.478 12.806 0 22.276 9.467l766.921 766.925q9.239 9.478 9.239 22.076 0 12.597-9.531 22.076-9.403 9.239-22.273 9.239t-22.348-9.154ZM649.848-817.848H248.044q-17.153 0-25.609-10.677-8.457-10.677-8.457-23.25 0-12.812 8.457-23.627 8.456-10.816 25.609-10.816h523.869q14.394 0 24.349 10.012 9.956 10.012 9.956 24.489 0 14.478-9.956 24.174-9.955 9.695-24.349 9.695h-53.695v123.95q0 62.941-32.544 116.604-32.543 53.664-86.152 84.142-10.717 6.674-21.772 1.891-11.054-4.782-17.728-16.261-6.913-11.478-4.75-24.152 2.163-12.674 12.641-20.587 35.848-22.043 58.891-59.848 23.044-37.804 23.044-81.891v-123.848ZM310.152-142.152h339.696v-81.056L441.957-431.087q-56.522 13.761-94.163 59.811Q310.152-325.225 310.152-267v124.848Zm408.066 0h22l-22-22v22Z"/></svg>