<svg xmlns="http://www.w3.org/2000/svg" width="48" height="48" viewBox="0 96 960 960"><path d="M344 861.978q-46.891 0-73.065-19.88T207 822.218q-21.522 0-40.859 9.521-19.337 9.522-40.619 18.283-17.957 7.239-33.055-.859-15.097-8.098-15.097-29.054 0-8.718 6.597-17.174 6.598-8.457 21.555-13.696 20.717-6 41.674-19.261 20.956-13.261 58.804-13.261 47.891 0 74.446 20 26.554 20 62.554 20 36.761 0 64.435-20t72.565-20q47.891 0 74.065 20t63.935 20q35 0 61.554-20 26.555-20 74.446-20 36.848 0 58.304 12.261 21.457 12.261 45.174 20.261 10.957 4.239 18.055 11.457 7.097 7.217 7.097 19.413 0 20.195-14.717 28.793-14.717 8.598-31.435 1.12-21.521-8.761-41.739-18.402-20.217-9.642-41.739-9.642-36.761 0-63.315 20-26.555 20-72.685 20-46.652 0-72.946-20-26.293-20-64.054-20-36.761 0-63.054 20-26.294 20-72.946 20ZM228.326 695.283q-22.478 0-43.076-8.12t-36.837-24.598l-24.37-24.369q-9.717-9.718-9.717-22.913 0-13.196 9.717-22.913 9.957-9.957 23.153-9.457 13.195.5 22.913 9.457l24.369 23.13q7.283 7.522 15.924 10.902 8.641 3.38 17.924 3.38h59.044V449.283l-34.609 25.087q-10.478 8.956-23.674 6.097-13.196-2.858-21.913-13.815-8.957-10.717-6.218-23.913 2.74-13.196 13.696-21.674l244.957-179.717q4.478-3.479 9.695-5.218 5.218-1.739 10.696-1.739t10.696 1.739q5.217 1.739 9.695 5.218l244.957 179.717q11.196 8.478 13.696 21.554 2.5 13.077-5.979 24.033-8.478 12.196-21.793 14.196t-25.033-6.478l-33.609-25.087v180.499h59.044q10.283 0 18.424-3.38t15.663-10.902l24.13-24.13q9.957-8.957 23.152-8.837 13.196.119 22.914 9.837 9.717 9.717 9.717 22.913 0 13.195-9.717 22.913l-24.37 24.369q-16.478 16.478-36.957 24.598-20.478 8.12-42.956 8.12H228.326Zm219.044-65.501h65.26v-84.304h-65.26v84.304Z"/></svg>