<svg xmlns="http://www.w3.org/2000/svg" width="48" height="48" viewBox="0 -960 960 960"><path d="M480-94.02q-135.39 0-230.68-93.26-95.3-93.27-95.3-227.48 0-64.44 24.98-123.13 24.98-58.7 70.93-104.65l182.33-179.33q10.15-9.33 22.41-14.36 12.26-5.03 25.13-5.03t25.27 5.03q12.4 5.03 22.67 14.36l182.33 179.33q45.95 45.95 71.05 104.65 25.1 58.69 25.1 123.13 0 134.63-95.42 227.68Q615.39-94.02 480-94.02ZM222.15-414.76h515.7q0-50.28-19.38-96.04-19.38-45.77-54.14-80.53L480-772.89 295.67-591.33q-34.76 34.76-54.14 80.57-19.38 45.8-19.38 96Z"/></svg>