<svg xmlns="http://www.w3.org/2000/svg" width="48" height="48" viewBox="0 -960 960 960"><path d="m614.826-169.5 195.956-194.956q10.196-9.957 23.87-10.077 13.674-.119 23.87 10.077 10.195 10.195 10.195 23.869t-10.195 23.87L638.935-97.652q-5.478 5.478-11.435 7.837-5.956 2.359-12.674 2.359-6.956 0-12.674-2.36-5.717-2.358-11.195-7.836L479.391-209.217q-10.195-10.196-10.195-23.87 0-13.674 10.195-24.109 10.196-10.195 23.99-10.195 13.793 0 23.989 10.195l87.456 87.696Zm-392.674 15.478q-28.587 0-48.359-19.771-19.771-19.772-19.771-48.359v-328.283l-52.826 40.5Q90-501.217 76.685-503.337q-13.316-2.119-22.511-13.793-8.957-11.196-6.837-24.99 2.12-13.793 13.554-22.75l378.087-290.043q9.196-6.957 19.511-10.435 10.315-3.478 21.511-3.478t21.511 3.478q10.315 3.478 19.511 10.435L899.348-564.63q11.196 8.956 12.315 23.51 1.12 14.555-12.598 32.511-5.956 7.674-14.989 9.174-9.033 1.5-16.228-4.695l-1.957-1.196L614.826-254.5l-43.456-44.457q-28.435-28.195-67.989-28.195-39.555 0-67.751 28.195-34.63 34.392-27.673 74.327 6.956 39.934 37.869 70.608H222.152Z"/></svg>