<svg xmlns="http://www.w3.org/2000/svg" width="48" height="48" viewBox="0 -960 960 960"><path d="m747.22-829.7 111.04 111.29q19.63 19.63 19.13 51.48-.5 31.84-20.13 51.47L664.41-422.85q-10.19 10.2-24.25 10.2-14.05 0-24.25-10.2l-162.26-162.5q-10.19-10.19-10.07-24.37.12-14.17 10.31-24.37L649.26-829.7q19.63-19.63 48.86-19.63t49.1 19.63ZM836.8-74.8q-9.47 9.47-21.95 9.47-12.48 0-21.96-9.47L554.63-313.07 389.5-148.17q-21.15 21.15-58.24 21.15t-58.24-21.15l-11-11-24.04 24.28q-9.44 9.67-22.61 15.39-13.17 5.72-27.09 5.72h-85.15q-11.2 0-15.17-10.82-3.98-10.81 3.97-18.77l92.33-92.33-4-4q-24.39-24.39-23.77-61.12.62-36.72 25.01-61.11l162.13-162.14L74.8-792.89q-9.23-9.24-9.35-21.84-.12-12.6 9.35-22.07 9.48-9.48 21.84-9.48t21.84 9.48L836.8-118.48q9.24 9.24 9.36 21.72.12 12.48-9.36 21.96Z"/></svg>