<svg xmlns="http://www.w3.org/2000/svg" width="48" height="48" viewBox="0 -960 960 960"><path d="m94.717-570.739 152.348-273.74q5.478-8.956 13.079-12.934 7.602-3.979 16.533-3.979 8.932 0 16.508 3.979 7.576 3.978 13.054 12.934l152.109 273.74q5.717 8.649 5.098 17.656-.62 9.008-5.098 16.648-4.302 7.468-12.021 12.19-7.72 4.723-17.566 4.723H124.304q-9.896 0-17.656-4.77-7.76-4.77-12.085-12.315Q90-544.152 89.5-553.134q-.5-8.982 5.217-17.605Zm183.174 462.218q-68.869 0-117.543-48.674-48.674-48.674-48.674-117.305 0-68.63 48.674-117.304 48.674-48.674 117.543-48.674 68.631 0 117.185 48.674T443.63-274.5q0 68.631-48.554 117.305-48.554 48.674-117.185 48.674Zm243.544-34.066v-263.826q0-14.424 9.82-24.245 9.821-9.82 24.245-9.82h263.826q14.424 0 24.245 9.82 9.821 9.821 9.821 24.245v263.826q0 14.424-9.821 24.245-9.821 9.821-24.245 9.821H555.5q-14.424 0-24.245-9.821-9.82-9.821-9.82-24.245Zm144.348-395.326-60.718-51.957q-71.63-60.63-97.63-95.445-26-34.816-26-76.772 0-47.631 32.695-79.707 32.696-32.076 82.088-32.076 26.478 0 50.837 12.239 24.358 12.239 40.597 35.239 16-23 40.479-35.239 24.478-12.239 50.956-12.239 49.392 0 81.968 32.076t32.576 79.707q0 41.956-26 76.772-26 34.815-97.392 95.445l-60.956 51.957q-9.484 7.956-21.775 7.956-12.29 0-21.725-7.956Z"/></svg>