<svg xmlns="http://www.w3.org/2000/svg" width="48" height="48" viewBox="0 96 960 960"><path d="M824.993 752.435q-23.485 0-39.957-16.419-16.471-16.418-16.471-40.016V596q0-23.478 16.451-39.957 16.452-16.478 40.097-16.478 23.365 0 39.844 16.478 16.478 16.479 16.478 39.957v100q0 23.598-16.478 40.016-16.479 16.419-39.964 16.419Zm.041 150.261q-6.751 0-11.61-4.835-4.859-4.835-4.859-11.6v-49.565q-48.195-7.239-82.489-38.935-34.294-31.696-41.772-79.326-1.239-7.718 4.239-12.576Q694.022 701 701.725 701q5.253 0 10.231 3.859 4.979 3.858 6.218 10.337 7.136 38.155 37.231 64.012Q785.5 805.065 825 805.065q39.435 0 69.544-25.857 30.11-25.857 37.521-63.907 1-6.584 6.325-10.442Q943.714 701 949.534 701q7.564 0 12.482 4.837 4.919 4.837 3.919 12.62-7.717 47.608-42.011 79.304-34.294 31.696-82.489 38.935v49.565q0 6.765-4.825 11.6-4.824 4.835-11.576 4.835ZM388.717 552.174q-68.435-2.152-109.217-45.207-40.783-43.054-40.783-110.054t40.902-110.055q40.902-43.054 109.337-45.445 4.937 0 15.203 1.247 10.266 1.248 18.384 2.557-26.956 31.478-40.891 69.011-13.935 37.533-13.935 82.565 0 45.033 13.576 82.566 13.576 37.532 41.011 69.011-9.06 2.548-18.758 3.176-9.698.628-14.829.628ZM26.847 905.087V804.63q0-35.981 16.424-61.534 16.424-25.552 48.75-45.509 36.37-22.478 93.696-38.457 57.326-15.978 130.369-23.739-64.521 31.957-88.945 75.554-24.424 43.598-24.424 93.685v100.457H26.847Zm556.804-352.196q-65.444 0-110.689-45.24-45.245-45.241-45.245-110.685 0-65.445 45.241-110.738 45.24-45.294 110.684-45.294 65.445 0 110.858 45.34 45.413 45.34 45.413 110.687 0 65.447-45.409 110.688-45.409 45.242-110.853 45.242Zm-.004-68.13q37.092 0 62.494-25.854 25.402-25.853 25.402-61.945 0-37.093-25.353-62.495-25.354-25.402-62.446-25.402-36.092 0-61.994 25.446-25.902 25.445-25.902 62.442 0 36.096 25.853 61.952 25.854 25.856 61.946 25.856Zm-320.93 420.326V804.635q0-36.678 19.456-66.613 19.457-29.935 52.892-44.652 47-21 109.217-40.74 62.218-19.739 139.413-19.739 5.943 0 16.483.739 10.539.74 17.974.979-7.196 16.674-11.315 33.565-4.12 16.891-5.402 33.565-3.435-.239-8.818-.358-5.382-.12-8.922-.12-71.282 0-122.565 15.856-51.282 15.855-97.282 36.928-16 8.02-24.5 21.293t-8.5 30.01v31.609H637q10.761 18.152 27.435 36.163 16.674 18.011 38.587 31.967H262.717Zm320.978-508.174Zm0 304.348Z"/></svg>