<svg xmlns="http://www.w3.org/2000/svg" width="48" height="48" viewBox="0 0 48 48"><path d="M14.6 16.5q.1.25.375.25t.425-.25l.95-2.2 2.2-.95q.25-.1.25-.375t-.25-.425l-2.2-.95-.95-2.2q-.1-.25-.375-.25t-.425.25l-.95 2.2-2.2.95q-.25.15-.25.425t.25.375l2.2.95ZM33 13.7q1.15 0 1.95-.8t.8-1.95q0-1.15-.8-1.95T33 8.2q-1.15 0-1.95.8t-.8 1.95q0 1.15.8 1.95t1.95.8ZM11.55 46.35q-.75 0-1.225-.475-.475-.475-.475-1.225V42q0-1.8 1-3.35t2.65-2.3q2.45-1.15 5.1-1.725 2.65-.575 5.4-.575 2.75 0 5.4.575 2.65.575 5.1 1.725 1.65.75 2.65 2.3 1 1.55 1 3.35v2.65q0 .75-.475 1.225-.475.475-1.225.475ZM24 32.05q-2.95 0-5.05-2.1-2.1-2.1-2.1-5.1 0-2.95 2.1-5.05 2.1-2.1 5.05-2.1 2.95 0 5.05 2.1 2.1 2.1 2.1 5.05 0 3-2.075 5.1Q27 32.05 24 32.05Zm-16.9-3.8q-1.4 0-2.4-.975t-1-2.425V5.05q0-1.4 1-2.4t2.4-1h33.8q1.45 0 2.425 1 .975 1 .975 2.4v19.8q0 1.45-.975 2.425-.975.975-2.425.975h-7.35q.35-.75.5-1.625.15-.875.1-1.775 0-4.2-2.975-7.175Q28.2 14.7 24 14.7q-4.2 0-7.175 2.975-2.975 2.975-2.975 7.175-.05.9.1 1.775.15.875.5 1.625Z"/></svg>