<svg xmlns="http://www.w3.org/2000/svg" width="48" height="48" viewBox="0 -960 960 960"><path d="M762.739-274.326 480-557.065V-793.13L361.826-675.478l-48.978-48.74L456.13-864.739q5.479-5.479 11.316-7.837 5.837-2.359 12.554-2.359 6.717 0 12.554 2.359 5.837 2.358 11.316 7.837l206.195 202.195q46.718 45.479 71.435 108.294 24.718 62.815 24.718 120.489 0 42.718-12.24 86.576-12.239 43.859-31.239 72.859ZM787.87-71.304 678.152-180.022q-44.761 33.522-94.619 49.761Q533.674-114.022 480-114.022q-134.391 0-230.185-93.174-95.793-93.174-95.793-227.565 0-51.478 16.119-101.315 16.12-49.837 53.881-98.076L71.304-786.87q-9.478-9.478-9.478-22.456t9.478-22.457q9.24-9.478 22.337-9.478 13.098 0 22.576 9.478l716.566 716.566q9.478 9.478 9.478 22.076t-9.478 21.837q-9.479 9.478-22.457 9.478-12.978 0-22.456-9.478ZM480-182.152v-197.022L273.478-585.935q-29.282 36.522-40.304 75.446-11.022 38.924-11.022 75.728 0 106.044 75.902 179.326Q373.957-182.152 480-182.152Z"/></svg>