<svg xmlns="http://www.w3.org/2000/svg" width="48" height="48" viewBox="0 -960 960 960"><path d="M478.825-340.782q-14.499 0-24.195-9.821-9.695-9.821-9.695-24.245v-419.108l-64.37 64.369q-9.565 9.196-23.554 9.076-13.989-.119-24.316-10.204-9.826-10.085-9.826-24.37t10.196-24.48L455.13-901.63q5.479-5.718 11.497-7.957T479-911.826q6.355 0 12.373 2.239 6.018 2.239 11.497 7.957l123.304 123.304q9.196 9.196 9.576 23.25.381 14.054-9.754 24.25t-24.37 10.196q-14.235 0-24.43-10.196l-64.131-63.13v419.108q0 14.424-9.871 24.245-9.871 9.821-24.369 9.821ZM225.022-34.5q-27.599 0-47.865-20.266-20.266-20.265-20.266-47.864v-493.696q0-27.599 20.266-47.865 20.266-20.265 47.865-20.265h128q14.424 0 23.168 9.871 8.745 9.871 8.745 24.369 0 14.499-8.745 24.195-8.744 9.695-23.168 9.695h-128v493.696h509.956v-493.696h-129.76q-14.699 0-23.426-9.871-8.727-9.871-8.727-24.37 0-14.498 8.727-24.194 8.727-9.695 23.426-9.695h129.76q27.698 0 48.034 20.265 20.336 20.266 20.336 47.865v493.696q0 27.599-20.336 47.864Q762.676-34.5 734.978-34.5H225.022Z"/></svg>