<svg xmlns="http://www.w3.org/2000/svg" width="48" height="48" viewBox="0 -960 960 960"><path d="M859.024-726.218q14.487 0 24.427 9.872 9.941 9.871 9.941 24.369 0 14.499-9.956 24.194-9.955 9.696-24.349 9.696-21.25 0-35.625 14.495-14.375 14.494-14.375 35.744v162.587q0 51.448-37.891 84.909-37.892 33.461-90.239 33.461v64.157q0 14.332-9.821 24.153-9.821 9.82-24.245 9.82H108.087q-14.424 0-24.245-9.82-9.82-9.821-9.82-24.245v-94.304q0-67.913 48.133-116.229 48.132-48.315 115.932-48.315h374.5v-48.748q0-19.995-13.505-33.83-13.506-13.835-33.626-13.835H389.132q-10.328 0-18.349 3.261-8.022 3.261-14.544 9.783-5.478 5.478-11.435 8.456-5.956 2.978-13.913 2.978-14.849 0-24.957-10.108t-10.108-24.957q0-7.717 2.978-13.554 2.978-5.837 8.457-11.316 15.717-14.717 36.257-23.695 20.54-8.979 44.33-8.979h177.608q48.006 0 81.753 33.758 33.748 33.757 33.748 81.982v175.217q23 0 41.5-13.5t18.5-36.753v-162.573q0-49.181 34.575-83.656 34.576-34.475 83.492-34.475Z"/></svg>