<svg xmlns="http://www.w3.org/2000/svg" width="48" height="48" viewBox="0 96 960 960"><path d="M480 812.935q-8.239 0-15.717-3.179-7.479-3.18-13.718-8.06-49.195-44.196-71.195-98.033-22-53.837-22-127.543 0-73.707 22.5-127.544t71.695-97.794q6.135-5.239 13.12-8.358 6.985-3.12 15.324-3.12 8.578 0 15.934 3.12 7.357 3.119 13.492 8.358 49.195 43.196 71.195 97.033 22 53.837 22 128.424t-22.5 128.424q-22.5 53.837-71.754 97.061-6.18 5.211-13.011 8.211-6.83 3-15.365 3Zm163.826 49.043q-30.282 0-58.565-6.141-28.283-6.141-54.043-17.424 14.096-10.853 26.841-25.894 12.746-15.041 23.463-28.715 15.087 4.522 30.533 7.283 15.445 2.761 31.771 2.761 90.102 0 153.975-63.873Q861.674 666.102 861.674 576q0-91.043-63.873-154.446-63.873-63.402-153.975-63.402-16.326 0-31.652 2.261t-29.652 7.022q-10.144-14.358-23.758-29.673-13.614-15.314-27.546-24.936 25.449-11.534 53.91-17.289 28.46-5.755 58.698-5.755 118.696 0 202.337 83.301 83.642 83.301 83.642 202.801 0 118.746-83.642 202.42-83.641 83.674-202.337 83.674Zm-327.652 0q-118.696 0-202.337-83.641Q30.195 694.695 30.195 576q0-119.549 83.642-202.883 83.641-83.335 202.337-83.335 30.213 0 58.65 5.761 28.437 5.761 54.198 17.283-14.196 9.674-27.802 24.971-13.605 15.296-23.742 29.638-14.326-4.761-29.652-7.022t-31.652-2.261q-90.102 0-153.975 63.402-63.873 63.403-63.873 154.329 0 90.16 63.873 154.063 63.873 63.902 153.975 63.902 16.326 0 31.771-2.761 15.446-2.761 30.533-7.283 10.717 13.674 23.463 28.715 12.745 15.041 26.841 25.894-25.76 11.283-54.043 17.424-28.283 6.141-58.565 6.141Z"/></svg>