<svg xmlns="http://www.w3.org/2000/svg" width="48" height="48" viewBox="0 -960 960 960"><path d="m245.8-444.93 137.83 138.06q10.2 10.2 9.7 23.87-.5 13.67-10.7 23.87-10.2 10.2-24.37 10.2-14.17 0-24.37-10.2l-196-195.76q-5.48-5.48-7.96-11.44-2.47-5.95-2.47-12.67t2.47-12.67q2.48-5.96 7.96-11.44l197-196.76q10.2-10.2 24.37-10.2 14.17 0 24.37 10.2 10.2 10.2 10.2 24.37 0 14.17-10.2 24.37L244.8-512.07h533.05V-650q0-14.67 9.69-24.37 9.7-9.7 24.37-9.7 14.68 0 24.49 9.7 9.82 9.7 9.82 24.37v136.93q0 28.35-19.89 48.24-19.9 19.9-48.48 19.9H245.8Z"/></svg>