<svg xmlns="http://www.w3.org/2000/svg" width="48" height="48" viewBox="0 -960 960 960"><path d="M339.802-647.848q-13.324 0-22.302-9.037-8.978-9.038-8.978-22.398v-55.369q0-13.258 9.08-22.227 9.081-8.969 22.505-8.969 13.322 0 22.184 8.969 8.861 8.969 8.861 22.227v55.609q0 13.258-9.013 22.226-9.013 8.969-22.337 8.969Zm0 359.326q-13.324 0-22.302-9.037-8.978-9.038-8.978-22.398v-131.695q0-13.258 9.08-22.227 9.081-8.969 22.505-8.969 13.322 0 22.184 9.038 8.861 9.037 8.861 22.397v131.696q0 13.258-9.013 22.227-9.013 8.968-22.337 8.968Zm-117.65 214.5q-28.104 0-48.117-20.013-20.013-20.013-20.013-48.117v-675.696q0-28.202 20.013-48.286t48.117-20.084h515.696q28.202 0 48.286 20.084t20.084 48.286v675.696q0 28.104-20.084 48.117-20.084 20.013-48.286 20.013H222.152Zm0-68.13h515.696v-393.696H222.152v393.696Zm0-453.696h515.696v-222H222.152v222Z"/></svg>