<svg xmlns="http://www.w3.org/2000/svg" width="48" height="48" viewBox="0 96 960 960"><path d="M183.152 861.978q-26.599 0-47.365-20.765-20.765-20.766-20.765-47.365V378.152q0-15.459 3.239-24.643 3.239-9.183 7.478-16.879l-54.347-54.34q-9.566-9.638-9.566-22.055t9.478-22.018q9.6-9.478 22.018-9.478 12.417 0 22.134 9.478l699.74 698.74q9.478 9.6 9.478 22.017t-9.478 22.135q-9.601 9.478-22.018 9.478t-22.135-9.478L640.722 851.5q-4.809 5.239-17.885 7.859-13.076 2.619-24.794 2.619H183.152Zm538.587-108.065L257.848 289.782h340.195q27.922 0 45.853 11.218 17.93 11.217 33.365 32.891l142.804 202.087q12.674 18.092 12.555 39.872-.12 21.78-12.794 39.933l-98.087 138.13Z"/></svg>