<svg xmlns="http://www.w3.org/2000/svg" width="48" height="48" viewBox="0 -960 960 960"><path d="M216.736-280q-26.074 0-44.394-18.398-18.32-18.397-18.32-44.232v-303.305q0-14.424 9.871-24.244Q173.764-680 188.262-680q14.499 0 24.195 9.821 9.695 9.82 9.695 24.244v299.478h150.435v-299.478q0-14.424 9.871-24.244 9.871-9.821 24.37-9.821 14.498 0 24.194 9.821 9.695 9.82 9.695 24.244v303.305q0 25.835-18.327 44.232Q404.062-280 378.326-280h-161.59Zm363.032 0q-25.766 0-44.202-18.398-18.436-18.397-18.436-44.232v-10q0-12.583 8.401-20.933 8.4-8.35 21.057-8.35h13.392q10.995 0 18.258 7.319 7.262 7.318 7.262 18.137v10h152.348v-102.108H579.761q-25.835 0-44.233-18.398-18.398-18.398-18.398-44.233v-106.413q0-25.736 18.414-44.063Q553.957-680 579.814-680h163.667q25.759 0 44.248 18.328 18.489 18.327 18.489 44.063v10q0 12.511-8.625 21.017-8.625 8.505-21.073 8.505h-13.391q-10.894 0-18.087-7.319-7.194-7.318-7.194-18.137v-10H585.5v102.108h158.087q25.653 0 44.142 18.328 18.489 18.327 18.489 44.064v106.413q0 25.835-18.495 44.232Q769.229-280 743.463-280H579.768Z"/></svg>