<svg xmlns="http://www.w3.org/2000/svg" width="48" height="48" viewBox="0 0 48 48"><path d="M16.05 24.5h3.65v-4.65h-3.65Zm-8.8 10.55h-1.7q-.35 0-.625-.25t-.375-.6q-.1-.45.175-.8.275-.35.725-.35h.85q.3 0 .525-.25.225-.25.225-.6v-5.55l-1.4.55q-.4.15-.75-.075-.35-.225-.45-.625-.1-.35.1-.675.2-.325.5-.425l2-.7v-4.65H6q-.4 0-.7-.275Q5 19.5 5 19.05q0-.4.3-.7.3-.3.7-.3h1.05V14.8q0-.4.3-.7.3-.3.7-.3.4 0 .7.3.3.3.3.7v3.25h.75q.4 0 .7.3.3.3.3.7 0 .45-.275.725-.275.275-.725.275h-.7V24l1.35-.5q.4-.15.75.1t.35.75q0 .25-.125.45t-.375.3l-1.95.75v7.4q0 .75-.55 1.275-.55.525-1.3.525Zm8.7-8.55q-.3 2.5-1.25 4.65-.95 2.15-2.75 3.7-.35.25-.775.25-.425 0-.725-.35-.3-.3-.2-.725.1-.425.4-.725 1.4-1.25 2.225-3 .825-1.75 1.025-3.8h-1.7q-.4 0-.7-.3-.3-.3-.3-.7 0-.4.3-.7.3-.3.7-.3h1.85v-4.65H13q-.4 0-.7-.3-.3-.3-.3-.7 0-.45.3-.75t.7-.3h9.75q.45 0 .75.3t.3.7q0 .4-.3.7-.3.3-.75.3h-1v4.7h1.75q.45 0 .75.275t.3.725q0 .4-.3.7-.3.3-.75.3h-1.75v7.55q0 .4-.3.7-.3.3-.75.3-.4 0-.7-.3-.3-.3-.3-.7V26.5ZM20.1 18l-.15-.05q-.35-.15-.425-.475-.075-.325.125-.625.35-.5.65-.975.3-.475.6-1.025.2-.3.525-.425t.625-.025l.2.05q.3.1.45.425.15.325-.05.625-.3.55-.625 1.075-.325.525-.725 1.075-.2.3-.55.375-.35.075-.65-.025Zm-5.45-.85q-.4-.45-.75-.875t-.75-.825q-.25-.3-.15-.6t.4-.45l.2-.1q.35-.15.75-.075t.6.375q.35.4.65.8.3.4.65.85.2.25.125.575-.075.325-.325.525l-.15.05q-.3.2-.675.125-.375-.075-.575-.375Zm20.7 14.7q1.55 0 3.05-.725 1.5-.725 2.8-2.025v-5.85q-1.4.2-2.45.425-1.05.225-2.05.525-2.4.75-3.6 1.875-1.2 1.125-1.2 2.625 0 1.45.95 2.3.95.85 2.5.85Zm-.75 2.75q-2.7 0-4.325-1.55T28.65 28.9q0-2.5 1.725-4.2Q32.1 23 35.65 22q1.05-.3 2.425-.575 1.375-.275 3.125-.525 0-2.7-.875-4-.875-1.3-3.175-1.3-1.05 0-2.15.325-1.1.325-2.5 1.125-.55.3-1.1.15t-.8-.65q-.3-.55-.175-1.075.125-.525.675-.825 1.6-.85 3.275-1.35 1.675-.5 3.375-.5 3.5 0 5.1 2.15 1.6 2.15 1.6 6.1V32.8q0 .55-.375.95-.375.4-.925.4h-.25q-.5 0-.875-.35t-.475-.8l-.1-1.25q-1.5 1.4-3.325 2.125-1.825.725-3.525.725Z"/></svg>