<svg xmlns="http://www.w3.org/2000/svg" width="48" height="48" viewBox="0 -960 960 960"><path d="M142.152-182.152h180.065v-355.696H142.152v355.696Zm248.196 0h179.304v-595.696H390.348v595.696Zm247.435 0h180.065v-275.696H637.783v275.696Zm-563.761 0v-355.696q0-28.447 19.89-48.408 19.891-19.962 48.24-19.962h180.065v-171.63q0-28.447 20.017-48.408 20.016-19.962 48.114-19.962h179.304q28.098 0 48.114 19.962 20.017 19.961 20.017 48.408v251.63h180.065q28.447 0 48.408 19.962 19.962 19.961 19.962 48.408v275.696q0 28.349-19.962 48.24-19.961 19.89-48.408 19.89H142.152q-28.349 0-48.24-19.89-19.89-19.891-19.89-48.24Z"/></svg>