<svg xmlns="http://www.w3.org/2000/svg" width="48" height="48" viewBox="0 -960 960 960"><path d="M421.07-93.7q-24.22-24.69-24.22-60.6h166.3q0 35.91-24.22 60.6Q514.7-69 479.99-69q-34.71 0-58.92-24.7Zm-73.32-124.04q-13.7 0-22.56-8.95-8.86-8.96-8.86-22.45 0-13.5 8.91-22.49 8.91-8.98 22.52-8.98h264.72q13.51 0 22.35 8.98 8.84 8.99 8.84 22.49 0 13.49-8.84 22.45-8.84 8.95-22.35 8.95H347.75Zm-26.42-125.3Q253.89-387 213.96-453.01q-39.94-66-39.94-149.01 0-124.33 90.72-215.16Q355.47-908 479.93-908t215.37 90.82q90.92 90.83 90.92 215.16 0 82.91-39.44 148.97Q707.35-387 638.67-343.04H321.33Zm24.7-68.13h269.01q47.51-31.71 75.16-82.02 27.65-50.31 27.65-108.78 0-98.1-69.9-167.88-69.91-69.78-167.95-69.78-98.04 0-167.95 69.78-69.9 69.78-69.9 167.88 0 58.47 27.76 108.75 27.76 50.29 76.12 82.05Zm133.97 0Z"/></svg>