<svg xmlns="http://www.w3.org/2000/svg" width="48" height="48" viewBox="0 -960 960 960"><path d="M479.992-69q-34.709 0-58.927-24.695-24.217-24.696-24.217-60.609h166.304q0 35.913-24.226 60.609Q514.701-69 479.992-69ZM347.745-217.739q-13.696 0-22.557-8.905-8.862-8.906-8.862-22.505 0-13.497 8.913-22.478 8.912-8.982 22.522-8.982h264.717q13.508 0 22.352 8.983 8.844 8.982 8.844 22.482 0 13.499-8.844 22.452-8.844 8.953-22.352 8.953H347.745Zm-26.419-125.304Q253.891-387 213.956-453.005q-39.934-66.005-39.934-149.016 0-124.332 90.723-215.156Q355.468-908 479.93-908q124.461 0 215.374 90.823 90.914 90.824 90.914 215.155 0 82.913-39.435 148.968Q707.348-387 638.674-343.043H321.326Z"/></svg>