<svg xmlns="http://www.w3.org/2000/svg" width="48" height="48" viewBox="0 -960 960 960"><path d="M147.087-241.152q-13.674 0-23.37-9.991-9.695-9.99-9.695-24.489 0-14.498 9.82-24.194 9.821-9.696 24.245-9.696h664.826q13.674 0 23.489 9.991 9.816 9.991 9.816 24.25 0 14.738-9.941 24.433-9.94 9.696-24.364 9.696H147.087Zm-15.239 95.022q-7.569 0-12.698-5.196-5.128-5.195-5.128-13.369t5.576-13.75q5.576-5.577 13.25-5.577h695.304q7.569 0 12.817 5.196 5.249 5.196 5.249 13.131 0 8.174-5.696 13.869-5.696 5.696-13.37 5.696H131.848Zm16.239-220.761q-14.424 0-24.245-9.851-9.82-9.85-9.82-24.318v-24.603q0-14.467 9.82-24.163 9.821-9.696 24.245-9.696h663.826q14.424 0 24.364 9.851 9.941 9.85 9.941 24.318v24.842q0 14.468-9.941 24.044-9.94 9.576-24.364 9.576H148.087Zm0-150q-14.424 0-24.245-9.821-9.82-9.821-9.82-24.245v-228.848q0-14.424 9.82-24.244 9.821-9.821 24.245-9.821h663.826q14.424 0 24.364 9.821 9.941 9.82 9.941 24.244v228.848q0 14.424-9.941 24.245-9.94 9.821-24.364 9.821H148.087Z"/></svg>