<svg xmlns="http://www.w3.org/2000/svg" width="48" height="48" viewBox="0 96 960 960"><path d="M505.5 730.5h309.239V421.261H505.5V730.5Zm-34.304 68.37q-14.424 0-24.245-9.821-9.821-9.821-9.821-24.245V610.065H110q-14.424 0-24.245-9.871-9.82-9.871-9.82-24.369 0-14.499 9.82-24.195 9.821-9.695 24.245-9.695h327.13V387.196q0-14.424 9.821-24.245 9.821-9.821 24.245-9.821h377.608q14.424 0 24.245 9.821 9.821 9.821 9.821 24.245v377.608q0 14.424-9.821 24.245-9.821 9.821-24.245 9.821H471.196ZM660 576Z"/></svg>