<svg xmlns="http://www.w3.org/2000/svg" width="48" height="48" viewBox="0 -960 960 960"><path d="m597.348-443.652-64.544-64.783h70.522q14.424 0 24.364 9.821 9.94 9.821 9.94 24.244 0 13-8.38 21.74-8.38 8.739-20.902 8.978h-11ZM833.13-79.196q-9.478 9.718-22.456 9.718t-22.457-9.718L83.044-783.13q-9.479-9.479-9.598-22.457-.12-12.978 9.597-22.456 9.479-9.718 22.337-9.718 12.859 0 22.577 9.718L833.13-122.87q9.479 9.479 9.479 21.837 0 12.359-9.479 21.837ZM279.761-274.022q-85.631 0-145.805-60.174Q73.783-394.37 73.783-480q0-72.239 43.902-128.076 43.902-55.837 112.902-71.989l61.978 62.217h-12.804q-57.377 0-97.612 40.048-40.236 40.047-40.236 97.565t40.236 97.8q40.235 40.283 97.612 40.283h133.304q14.424 0 24.245 9.871 9.82 9.871 9.82 24.37 0 14.498-9.82 24.194-9.821 9.695-24.245 9.695H279.761Zm74.282-174.543q-13.467 0-22.451-9.034-8.983-9.034-8.983-22.576t8.983-22.401q8.984-8.859 22.451-8.859h46.848l62.87 62.87H354.043Zm366.479 140.456q-6.435-12.934-1.935-26.369t16.935-19.87q37.043-16.761 59.804-49.304 22.761-32.544 22.761-73.348 0-57.377-40.116-97.612-40.116-40.236-97.493-40.236H560.261q-14.424 0-24.245-9.871-9.82-9.871-9.82-24.37 0-14.498 9.82-24.313 9.821-9.816 24.245-9.816h119.978q85.631 0 145.805 60.294Q886.218-562.63 886.218-477q0 59.478-33.098 107.576-33.098 48.098-85.098 74.815-12.196 7.196-26.75 3.196-14.555-4-20.75-16.696Z"/></svg>