<svg xmlns="http://www.w3.org/2000/svg" width="48" height="48" viewBox="0 -960 960 960"><path d="M479.878-124.456q-16.273 0-31.326-7.397-15.052-7.397-25.248-23.43L109.413-629.5Q93.5-653.37 98.217-682.217q4.718-28.848 27.348-44.522 78.718-55.761 168.801-87.62Q384.449-846.218 480-846.218q95.551 0 185.634 31.74 90.083 31.739 168.801 87.5 22.844 15.558 27.455 44.583 4.61 29.025-11.303 52.895L536.935-155.283q-10.435 15.413-25.609 23.12-15.174 7.707-31.448 7.707Zm-112-438.631q23.687 0 39.926-16.389 16.239-16.39 16.239-40.076 0-23.687-16.269-40.046-16.27-16.359-39.957-16.359t-40.045 16.39q-16.359 16.389-16.359 40.076t16.389 40.045q16.39 16.359 40.076 16.359Zm112.153 211.652q23.686 0 40.045-16.27 16.359-16.269 16.359-39.956 0-23.687-16.39-40.046-16.389-16.358-40.076-16.358-23.686 0-40.045 16.389T423.565-407.6q0 23.687 16.39 39.926 16.389 16.239 40.076 16.239Z"/></svg>