<svg xmlns="http://www.w3.org/2000/svg" width="48" height="48" viewBox="0 -960 960 960"><path d="M480-392.935ZM142.152-69.717q-27.599 0-47.865-20.336-20.265-20.336-20.265-48.034v-508.695q0-26.599 20.265-47.365 20.266-20.766 47.865-20.766h141.739l66.565-78.326q5.24-5.478 11.363-8.718 6.124-3.239 13.79-3.239 22.608 0 31.815 19.99 9.206 19.989-6.424 36.902l-66.804 79.087q-9.168 11.717-22.412 17.076-13.245 5.359-28.61 5.359H142.152v508.695h675.696v-173.282q0-14.424 9.871-24.245 9.871-9.821 24.349-9.821 14.477 0 24.313 9.821 9.837 9.821 9.837 24.245v173.282q0 27.698-20.837 48.034-20.836 20.336-47.533 20.336H142.152ZM480-221.5q39.898 0 75-16.798 35.103-16.798 57.782-47.984 9.914-13 10.609-28.696.696-15.696-10.782-25.891-10.761-8.957-23.598-5.413-12.837 3.543-21.794 15.065-14.761 21.326-37.886 33.25-23.125 11.924-49.211 11.924-45.363 0-76.068-31.422-30.704-31.422-30.704-76.671 0-19.182 6.88-36.392 6.881-17.211 18.522-30.733 11.641-13.521 27.663-22.543 16.022-9.022 35.065-13.022 12.239-2.956 18.881-14.674 6.641-11.717 4.163-25.054-2.718-12.859-13.935-19.359-11.217-6.5-24.696-3.783-30 5.24-55.141 19.74-25.141 14.5-43.663 37.5-18.761 22.76-28.641 50.682-9.881 27.922-9.881 58.839 0 71.631 49.902 121.533Q408.37-221.5 480-221.5Zm239.94-741.13q-88.092 0-155.027 61.315Q497.978-840 497.978-734.396q0 90.748 69.098 169.801 69.098 79.052 130.054 134.769 5.153 4.478 11.153 6.717 6 2.24 11.837 2.24t11.967-2.24q6.13-2.239 10.783-6.717 60.956-55.717 130.054-134.769 69.098-79.053 69.098-169.801 0-105.604-66.995-166.919-66.995-61.315-155.087-61.315Zm.06 468.543q-101.811-95.619-129.166-154.042-27.356-58.423-27.356-86.593 0-79.184 49.881-120.916 49.88-41.732 106.761-41.732 56.88 0 106.641 41.568 49.761 41.566 49.761 120.788 0 28.166-27.356 86.67Q821.811-589.839 720-494.087Zm0-201.522Zm-59 49.239 22-73-60-49h73l24-72 24 72h73l-60 49 23 73-60-45-59 45Z"/></svg>