<svg xmlns="http://www.w3.org/2000/svg" width="48" height="48" viewBox="0 -960 960 960"><path d="M480.008-488.565q29.47 0 50.449-20.987 20.978-20.986 20.978-50.456 0-29.47-20.987-50.449-20.986-20.978-50.456-20.978-29.47 0-50.449 20.987-20.978 20.986-20.978 50.456 0 29.47 20.987 50.449 20.986 20.978 50.456 20.978Zm.432 399.674q-7.636 0-14.712-2.359t-12.793-7.076Q303.696-230.031 229.815-342.29q-73.88-112.259-73.88-209.71 0-151.859 97.719-241.962 97.719-90.103 226.324-90.103 128.605 0 226.346 90.103Q804.065-703.859 804.065-552q0 97.239-73.88 209.604-73.881 112.365-223.12 244.07-5.717 4.717-12.353 7.076t-14.272 2.36Z"/></svg>