<svg xmlns="http://www.w3.org/2000/svg" width="48" height="48" viewBox="0 -960 960 960"><path d="M360-510q0 57 38 99t82 78q44-36 82-78t38-99q0-50-35-85t-85-35q-50 0-85 35t-35 85Zm91.5 18.5Q440-503 440-520t11.5-28.5Q463-560 480-560t28.5 11.5Q520-537 520-520t-11.5 28.5Q497-480 480-480t-28.5-11.5ZM320-194.02q-119.34 0-202.66-83.33T34.02-480.04q0-119.35 83.32-202.64 83.32-83.3 202.66-83.3h320q119.34 0 202.66 83.33t83.32 202.69q0 119.35-83.32 202.64-83.32 83.3-202.66 83.3H320Zm0-68.37h320q90.95 0 154.28-63.28 63.33-63.29 63.33-154.33 0-91.04-63.33-154.33-63.33-63.28-154.28-63.28H320q-90.95 0-154.28 63.28-63.33 63.29-63.33 154.33 0 91.04 63.33 154.33 63.33 63.28 154.28 63.28ZM480-480Z"/></svg>