<svg xmlns="http://www.w3.org/2000/svg" width="48" height="48" viewBox="0 -960 960 960"><path d="M480-846.218q99.152 0 189.272 32.957 90.119 32.957 169.272 90.435 12.717 9.717 19.695 23.681 6.979 13.964 6.979 28.558 0 9.304-2.62 18.45-2.62 9.145-8.098 17.528L536.935-155.522q-10.435 15.174-25.661 23-15.225 7.826-31.447 7.826t-31.275-7.516q-15.052-7.516-25.248-23.31L105.5-634.609q-5.863-8.489-8.41-17.508-2.547-9.019-2.547-18.038 0-14.887 6.979-29.04 6.978-14.153 19.934-23.87 79.153-57.479 169.272-90.316 90.12-32.837 189.272-32.837Zm-.116 68.37q-91.406 0-166.21 31.142-74.804 31.141-151.326 76.663L480-190.826l317.891-479.217q-76.804-45.388-151.579-76.596-74.775-31.209-166.428-31.209ZM367.878-563.087q23.687 0 39.926-16.389 16.239-16.39 16.239-40.076 0-23.687-16.269-40.046-16.27-16.359-39.957-16.359t-40.045 16.39q-16.359 16.389-16.359 40.076t16.389 40.045q16.39 16.359 40.076 16.359Zm112.153 211.652q23.686 0 40.045-16.27 16.359-16.269 16.359-39.956 0-23.687-16.39-40.046-16.389-16.358-40.076-16.358-23.686 0-40.045 16.389T423.565-407.6q0 23.687 16.39 39.926 16.389 16.239 40.076 16.239ZM480-190.826Z"/></svg>