<svg xmlns="http://www.w3.org/2000/svg" width="48" height="48" viewBox="0 -960 960 960"><path d="M264.87-74.022q-25.993 0-45.823-17.032-19.83-17.033-22.308-43.142l-73.761-667.739q-3.478-34.147 19.253-59.215 22.731-25.068 56.834-25.068h561.87q34.103 0 56.834 25.068t19.253 59.215L763.5-134.196q-2.478 26.109-22.25 43.142-19.772 17.032-45.88 17.032h-430.5ZM216.63-580l48.24 437.848h430.5L743.609-580H216.63Zm-6.941-60H750.37l19.521-177.848H190.109L209.689-640ZM480-257.065q-18.804 0-31.967-12.663t-13.163-30.468q0-23.043 11.782-50.76 11.783-27.716 33.348-55.979 21.565 28.263 33.348 55.979 11.782 27.717 11.782 50.76 0 17.805-13.163 30.468T480-257.065Zm0 62.869q45 0 76.5-31t31.5-75q0-48.13-24.467-92.934-24.468-44.805-59.301-82.378-5.359-5.296-11.407-7.655t-12.845-2.359q-6.797 0-12.845 2.359-6.048 2.359-11.287 7.598-34.913 37.63-59.381 82.435Q372-348.326 372-300.196q0 44 31.5 75t76.5 31Zm-263.37 52.044h526.979H216.63Z"/></svg>