<svg xmlns="http://www.w3.org/2000/svg" width="48" height="48" viewBox="0 -960 960 960"><path d="M479.693-94.978q-11.171 0-22.41-3.74-11.239-3.738-19.674-11.978-43.435-38.478-93.153-88.217-49.717-49.739-92.076-107.098-42.358-57.359-70.358-120.195-28-62.837-28-126.511 0-152.325 98.354-242.913Q350.73-886.218 480-886.218q129.27 0 227.744 90.588 98.474 90.588 98.474 242.913 0 63.674-28.12 126.511-28.12 62.836-70.478 120.195-42.359 57.359-92.076 107.098-49.718 49.739-92.914 88.217-8.706 8.24-20.236 11.979-11.53 3.739-22.701 3.739Zm.396-393.348q29.868 0 50.846-20.947 20.978-20.947 20.978-50.816 0-29.868-21.067-50.846-21.066-20.978-50.935-20.978-29.868 0-50.726 21.067-20.859 21.066-20.859 50.935 0 29.868 20.947 50.726 20.947 20.859 50.816 20.859Z"/></svg>