<svg xmlns="http://www.w3.org/2000/svg" width="48" height="48" viewBox="0 96 960 960"><path d="m781.218 791.913-50.457-50.457q22.804-33.565 36.945-76.108 14.142-42.544 14.142-89.348 0-124.341-88.754-213.094Q604.341 274.152 480 274.152q-45.375 0-89.513 14.142-44.139 14.141-75.943 36.945l-49.457-49.457q35.522-29.76 84.783-46.521 49.26-16.761 97.5-21.867v-42.503q0-14.028 9.286-23.329 9.287-9.301 23.294-9.301t23.344 9.301q9.336 9.301 9.336 23.329V207.5q137.479 14.239 229.555 106.315T848.5 543.37h42.609q14.028 0 23.329 9.286 9.301 9.287 9.301 23.294t-9.301 23.344q-9.301 9.336-23.329 9.336h-42.503q-5.106 47-20.867 93.381-15.761 46.38-46.521 89.902ZM480.05 1019.74q-14.007 0-23.344-9.3-9.336-9.3-9.336-23.331V944.5q-137.479-14.239-229.555-106.315T111.5 608.63H68.891q-14.028 0-23.33-9.286-9.3-9.287-9.3-23.294t9.3-23.344q9.302-9.336 23.33-9.336h42.503q6.106-51.24 21.247-95.381t42.381-83.141L71.174 261.239q-9.478-9.478-8.978-22.576t9.978-22.457q9.478-9.358 22.576-9.358t22.576 9.239l722.587 723.587q9.239 9.413 9.239 22.163t-9.239 21.989q-9.377 9.478-22.576 9.478t-22.576-9.478L690.152 879.978q-39.761 28.522-83.38 43.522-43.62 15-94.142 21.106v42.503q0 14.031-9.286 23.331-9.287 9.3-23.294 9.3ZM480 877.848q43.427 0 82.942-11.902 39.514-11.903 76.754-35.424L225.478 416.304q-22.282 35-34.804 73.707-12.522 38.706-12.522 85.989 0 124.341 88.754 213.094Q355.659 877.848 480 877.848Z"/></svg>