<svg xmlns="http://www.w3.org/2000/svg" width="48" height="48" viewBox="0 -960 960 960"><path d="M447.37-66.891v-42.37Q309.891-123.5 217.576-215.815T111.261-445.37h-42.37q-13.868 0-23.249-9.417-9.381-9.417-9.381-23.338 0-13.921 9.381-23.213 9.381-9.292 23.25-9.292h42.369Q125.5-648.109 217.815-740.424T447.37-846.739v-42.37q0-13.868 9.417-23.249 9.417-9.381 23.338-9.381 13.921 0 23.213 9.381 9.292 9.381 9.292 23.249v42.37q137.24 14 229.555 106.315T848.739-510.63h42.37q13.868 0 23.249 9.417 9.381 9.417 9.381 23.338 0 13.921-9.381 23.213-9.381 9.292-23.249 9.292h-42.37q-14 137.24-106.315 229.555T512.63-109.261v42.37q0 13.868-9.417 23.249-9.417 9.381-23.338 9.381-13.921 0-23.213-9.381-9.292-9.381-9.292-23.25Zm32.589-109.261q124.324 0 213.106-88.742 88.783-88.741 88.783-213.065t-88.742-213.106q-88.741-88.783-213.065-88.783t-213.106 88.742q-88.783 88.741-88.783 213.065t88.742 213.106q88.741 88.783 213.065 88.783Z"/></svg>