<svg xmlns="http://www.w3.org/2000/svg" width="48" height="48" viewBox="0 96 960 960"><path d="M758.5 810.587q27.917 0 47.458-19.559 19.542-19.559 19.542-47.5t-19.542-46.941q-19.541-19-47.458-19-27.5 0-46.75 19.353t-19.25 47q0 27.647 19.25 47.147t46.75 19.5Zm-.214 133q33.214 0 62.214-15.5t47-42.5q-25.761-14-52.839-22.5-27.079-8.5-56.161-8.5-28.761 0-55.88 8.5-27.12 8.5-53.12 22.5 18 27 46.786 42.5t62 15.5ZM354.065 415.304h249.239v-87.739q0-55.326-35.949-91.652t-88.734-36.326q-52.684 0-88.62 36.326-35.936 36.326-35.936 91.652v87.739ZM563.935 981.5H220.957q-26.698 0-47.534-20.766-20.836-20.765-20.836-47.364V483.674q0-26.698 20.836-47.534t47.534-20.836h64.978v-87.739q0-83.233 55.66-139.791 55.66-56.557 136.913-56.557 81.253 0 137.09 56.718 55.837 56.717 55.837 139.63v87.739h64.978q26.698 0 47.534 20.836t20.836 47.534v88.435q-14.674-3.239-31.305-3.881-16.63-.641-37.065.316v-84.87H220.957V913.37h304.108q6.761 18.673 15.718 34.804 8.956 16.13 23.152 33.326Zm194.565 32.09q-79 0-136-57.003-57-57-57-136t57-136q57-57 136-57t136 57q57 57 57 136t-57 136q-57 57.003-136 57.003ZM220.957 483.674V913.37 483.674Z"/></svg>