<svg xmlns="http://www.w3.org/2000/svg" width="48" height="48" viewBox="0 -960 960 960"><path d="M535-277q25.91 0 44.27-18.36 18.36-18.36 18.36-44.27v-110.94q0-25.91-18.36-44.39-18.36-18.47-44.27-18.47H425v-106.94h141.41q13.5 0 22.36-8.95 8.86-8.96 8.86-22.46t-8.84-22.36q-8.84-8.86-22.36-8.86h-170q-14.67 0-24.36 9.7-9.7 9.69-9.7 24.37v164.3q0 14.67 9.7 24.37 9.69 9.69 24.36 9.69H535v110.94H393.57q-13.52 0-22.36 8.83-8.84 8.84-8.84 22.34t8.96 22.48q8.96 8.98 22.47 8.98H535ZM182.15-114.02q-27.6 0-47.86-20.27-20.27-20.26-20.27-47.86v-595.7q0-27.7 20.27-48.03 20.26-20.34 47.86-20.34h595.7q27.7 0 48.03 20.34 20.34 20.33 20.34 48.03v595.7q0 27.6-20.34 47.86-20.33 20.27-48.03 20.27h-595.7Z"/></svg>