<svg xmlns="http://www.w3.org/2000/svg" width="48" height="48" viewBox="0 -960 960 960"><path d="M447.37-443.37v134.17q0 13.87 9.46 23.25t23.3 9.38q13.83 0 23.16-9.38 9.34-9.38 9.34-23.25v-134.17H646.8q13.87 0 23.25-9.46t9.38-23.3q0-13.83-9.38-23.16-9.38-9.34-23.25-9.34H512.63V-642.8q0-13.87-9.46-23.25t-23.3-9.38q-13.83 0-23.16 9.38-9.34 9.38-9.34 23.25v134.17H313.2q-13.87 0-23.25 9.46t-9.38 23.3q0 13.83 9.38 23.16 9.38 9.34 23.25 9.34h134.17Zm32.22 369.35q-83.8 0-157.87-31.86-74.07-31.86-129.02-86.82-54.96-54.95-86.82-129.02-31.86-74.06-31.86-158.27 0-84.21 31.86-158.28 31.86-74.08 86.78-129.05 54.92-54.97 129-86.93 74.08-31.97 158.31-31.97t158.33 31.95q74.1 31.95 129.06 86.88 54.95 54.94 86.9 129.04 31.96 74.1 31.96 158.35v315.85q0 37.42-26.43 63.78-26.42 26.35-63.94 26.35H479.59Z"/></svg>