<svg xmlns="http://www.w3.org/2000/svg" width="48" height="48" viewBox="0 96 960 960"><path d="M71.435 738.63q-14.424 0-24.245-9.82-9.82-9.821-9.82-24.245v-260q0-13.461 8.918-22.328 8.919-8.867 22.457-8.867t22.396 8.867Q100 431.104 100 444.565V676h91.565q13.563 0 22.499 8.986Q223 693.973 223 707.61q0 13.536-8.936 22.278-8.936 8.742-22.499 8.742H71.435Zm253.955 0q-13.536 0-22.278-8.867-8.742-8.867-8.742-22.328V476h-52.805q-13.461 0-22.328-8.986-8.867-8.987-8.867-22.624 0-13.536 8.867-22.278 8.867-8.742 22.328-8.742h168q13.563 0 22.499 8.918Q441 431.207 441 444.745t-8.936 22.396Q423.128 476 409.565 476H357v231.435q0 13.461-8.986 22.328-8.987 8.867-22.624 8.867Zm203.045 0q-14.424 0-24.245-9.82-9.82-9.821-9.82-24.245v-257.13q0-14.424 9.82-24.245 9.821-9.82 24.245-9.82h120.13q13.563 0 22.499 8.918Q680 431.207 680 444.745t-8.936 22.396Q662.128 476 648.565 476H557v68.565h91.565q13.563 0 22.499 8.987Q680 562.538 680 576.175q0 13.638-8.936 22.449-8.936 8.811-22.499 8.811H557V676h91.565q13.563 0 22.499 8.986Q680 693.973 680 707.61q0 13.536-8.936 22.278-8.936 8.742-22.499 8.742h-120.13Zm318.82-47.195q-13.538 0-22.396-8.936Q816 673.563 816 660v-52.565h-52.565q-13.563 0-22.499-8.987Q732 589.462 732 575.825q0-13.638 8.936-22.449 8.936-8.811 22.499-8.811H816V492q0-13.563 8.986-22.499 8.987-8.936 22.624-8.936 13.536 0 22.278 8.936 8.742 8.936 8.742 22.499v52.565h52.805q13.461 0 22.328 8.987 8.867 8.986 8.867 22.623 0 13.638-8.867 22.449-8.867 8.811-22.328 8.811H878.63V660q0 13.563-8.918 22.499-8.919 8.936-22.457 8.936Z"/></svg>