<svg xmlns="http://www.w3.org/2000/svg" width="48" height="48" viewBox="0 -960 960 960"><path d="M157.37-350.239v-261.196q0-13.258 9.08-22.227 9.081-8.968 22.505-8.968 13.322 0 22.183 8.968Q220-624.693 220-611.435V-380h91.804q13.258 0 22.227 9.013Q343-361.974 343-348.65t-8.969 22.302q-8.969 8.978-22.227 8.978H190.239q-13.946 0-23.408-9.461-9.461-9.462-9.461-23.408ZM446.565-580h-53.804q-13.258 0-22.227-9.081-8.969-9.08-8.969-22.504 0-13.322 8.969-22.184 8.969-8.861 22.227-8.861h170.478q13.258 0 22.227 9.013 8.969 9.013 8.969 22.337 0 13.323-8.969 22.302Q576.497-580 563.239-580h-53.804v231.196q0 13.359-8.987 22.397-8.986 9.037-22.623 9.037-13.638 0-22.449-8.935-8.811-8.936-8.811-22.462V-580Zm211.87 229.761V-610q0-14.035 9.462-23.333 9.462-9.297 23.407-9.297H812.87q13.258 0 22.227 9.013 8.968 9.013 8.968 22.337 0 13.323-8.968 22.302Q826.128-580 812.87-580h-91.805v70h93q12.75 0 21.375 8.675 8.625 8.676 8.625 21.5 0 12.825-8.625 21.325t-21.375 8.5h-93v70h91.805q13.258 0 22.227 9.013 8.968 9.013 8.968 22.337t-8.968 22.302q-8.969 8.978-22.227 8.978H691.304q-13.945 0-23.407-9.461-9.462-9.462-9.462-23.408Z"/></svg>