<svg xmlns="http://www.w3.org/2000/svg" width="48" height="48" viewBox="0 -960 960 960"><path d="M191.804-317.37H70.239q-13.946 0-23.408-9.297Q37.37-335.965 37.37-350v-261.435q0-13.258 9.081-22.227 9.08-8.968 22.505-8.968 13.322 0 22.183 8.968Q100-624.693 100-611.435V-380h91.804q13.258 0 22.227 9.013Q223-361.974 223-348.65t-8.969 22.302q-8.969 8.978-22.227 8.978Zm133.846 0q-13.324 0-22.302-9.037-8.978-9.038-8.978-22.397V-580h-52.805q-13.258 0-22.227-9.081-8.968-9.08-8.968-22.504 0-13.322 8.968-22.184 8.969-8.861 22.227-8.861h168.239q13.258 0 22.227 9.013Q441-624.604 441-611.28q0 13.323-8.969 22.302Q423.062-580 409.804-580H357v231.435q0 13.258-9.013 22.227-9.013 8.968-22.337 8.968Zm323.154 0H527.239q-13.946 0-23.408-9.461-9.461-9.462-9.461-23.408V-610q0-14.035 9.461-23.333 9.462-9.297 23.408-9.297h121.565q13.258 0 22.227 9.013Q680-624.604 680-611.28q0 13.323-8.969 22.302Q662.062-580 648.804-580H557v68.565h91.565q13.36 0 22.398 8.987Q680-493.462 680-479.825q0 13.638-8.936 22.449-8.936 8.811-22.583 8.811H557V-380h91.804q13.258 0 22.227 9.013Q680-361.974 680-348.65t-8.969 22.302q-8.969 8.978-22.227 8.978ZM816-448.565h-52.565q-13.36 0-22.398-8.987Q732-466.538 732-480.175q0-13.638 8.936-22.449 8.936-8.811 22.499-8.811H816v-52.804q0-13.258 9.081-22.227 9.08-8.969 22.504-8.969 13.322 0 22.184 8.969 8.861 8.969 8.861 22.227v52.804h52.566q13.359 0 22.397 8.987 9.037 8.986 9.037 22.623 0 13.638-8.935 22.449-8.936 8.811-22.499 8.811H878.63v52.804q0 13.258-9.013 22.227-9.013 8.969-22.337 8.969-13.323 0-22.302-9.038Q816-382.64 816-396v-52.565Z"/></svg>