<svg xmlns="http://www.w3.org/2000/svg" width="48" height="48" viewBox="0 -960 960 960"><path d="M140.478-111.152q-27.839 0-47.148-19.379-19.308-19.378-19.308-47.317v-100.391q0-14.674 9.695-24.37 9.696-9.695 24.37-9.695h743.826q14.644 0 24.474 9.695 9.831 9.696 9.831 24.37v100.391q0 27.939-19.379 47.317-19.379 19.379-47.317 19.379H140.478ZM480-426.717q-41 0-61.457 22-20.456 22-74.695 22-54.239 0-72.746-22-18.507-22-59.406-22-33.628 0-52.195 16.141-18.566 16.141-52.61 24.233-13.195 2.626-23.032-6.331-9.837-8.956-9.837-23.323 0-14.368 9.843-25.14t23.026-16.233q21.072-8.904 43.036-22.354 21.964-13.45 61.769-13.45 54.239 0 72.748 22 18.509 22 59.413 22 40.904 0 61.404-22t74.739-22q54.239 0 74.696 22 20.456 22 61.576 22 41.119 0 59.456-22 18.337-22 72.876-22 39.997 0 61.99 13.402 21.993 13.402 42.754 22.402 13.435 5.479 23.152 16.238 9.718 10.759 9.718 25.13 0 14.611-9.957 23.328-9.957 8.717-22.913 6-34.044-8-52.663-24.022-18.62-16.021-51.902-16.021-41.239 0-59.696 22t-72.815 22q-54.359 0-74.815-22-20.457-22-61.457-22Zm0-421.892q74.957 0 148.033 14.881 73.076 14.88 130.413 45.76 57.337 30.881 92.554 78.62 35.218 47.739 35.218 113.696 0 14.674-9.831 24.369-9.83 9.696-24.474 9.696H108.087q-14.674 0-24.37-9.696-9.695-9.695-9.695-24.369 0-65.957 35.097-113.696 35.098-47.739 92.435-78.62 57.337-30.88 130.413-45.76Q405.043-848.609 480-848.609Z"/></svg>