<svg xmlns="http://www.w3.org/2000/svg" width="48" height="48" viewBox="0 -960 960 960"><path d="M804.718-266.739 677.739-393.717q31-17.522 64.12-28.163 33.119-10.642 68.837-14.881 7.956-1 14.793 1.739 6.837 2.739 12.316 8.218 5.239 5.478 7.597 12.315 2.359 6.837 1.359 14.793-3.761 35.761-14.141 68.479-10.381 32.717-27.902 64.478Zm-79.631 99.304Q674.652-121.717 612-95.359q-62.652 26.36-132 26.36 0-69.588 26.239-132.24 26.239-62.652 71.957-113.087l-66.326-66.087q-7.24 2-14.718 3t-15.478 1q-38.435.478-68.989-21.62-30.555-22.097-44.794-58.532-6.239 0-12.858.5-6.62.5-12.859.5-49.435 0-84.392-34.957-34.956-34.956-34.956-84.391 0-18.957 6.359-36.294 6.358-17.337 17.837-33.054L99.304-791.978q-9.239-9.24-8.859-22.218.38-12.978 9.859-22.456 9.478-9.479 21.957-9.479 12.478 0 21.956 9.479l709.435 708.435q9.239 9.239 8.859 22.337-.38 13.097-9.859 22.576-9.478 9.478-21.837 9.478-12.358 0-21.837-9.478l-83.891-84.131ZM480-931.957q38.196 0 68.152 22.098 29.957 22.098 44.196 58.054 6 0 12.619-.5 6.62-.5 12.859-.5 49.435 0 83.892 34.957 34.456 34.957 34.456 84.63 0 21.479-8.239 41.577-8.239 20.097-22.478 37.576 14.239 17.478 22.478 37.456 8.239 19.979 8.239 41.696 0 48.478-33.261 83.076-33.261 34.598-81.5 35.794h-6L493.478-576.978q28.044-4.761 46.565-26.783 18.522-22.022 18.522-50.304 0-33.283-22.641-55.924T480-732.63q-28.283 0-50.304 18.521-22.022 18.522-26.783 46.326L255.935-814.522q20.478-22.761 50.598-30.783 30.119-8.021 61.358-6.5 14-35.956 43.957-58.054 29.956-22.098 68.152-22.098ZM480-69q0-145.022-93.62-241.272-93.619-96.25-228.358-121.489-8.957-2-16.794 1.359t-13.554 9.076q-5.718 5.478-8.337 13.435-2.62 7.956-.62 16.913 26 135.217 120.131 228.598Q332.978-69 480-69Z"/></svg>