<svg xmlns="http://www.w3.org/2000/svg" width="48" height="48" viewBox="0 96 960 960"><path d="m808.978 972.696-75.891-75.891q-51.196 48.956-116.467 77.576Q551.348 1003 480 1003q0-72.587 28.239-137.359 28.239-64.771 76.957-115.967l-84.153-83.913q-45.608 9.565-78.01-20.239-32.403-29.805-33.12-76.131l-2.152-2.152Q378 575 366.239 580.022q-11.761 5.021-27.043 5.021-40.479 0-66.837-26.358Q246 532.326 246 492.087q0-16.522 5.761-31.663 5.761-15.141 16.282-27.902l-168.739-168.5q-9.239-9.24-8.859-22.218.38-12.978 9.859-22.456 9.478-9.479 21.957-9.479 12.478 0 21.956 9.479l709.435 708.435q9.239 9.239 8.859 22.337-.38 13.098-9.859 22.576-9.478 9.478-21.837 9.478-12.358 0-21.837-9.478Zm1.501-177.674-122.501-122.5q24.761-13.522 51.283-23.283 26.522-9.761 54.043-15 12.435-2.239 23.251 1.739 10.815 3.979 18.532 11.696 7.957 7.717 11.815 18.533 3.859 10.815 1.62 23.25-5 27.521-14.88 54.163-9.881 26.641-23.163 51.402ZM626.544 585.043q-10.761 0-19.903-2.38-9.141-2.38-16.902-7.38l-67.696-68.696q31.044-11.044 49.185-37.348 18.142-26.304 18.142-61.869 0-45.848-30.446-76.294-30.446-30.446-76.294-30.446-35.565 0-61.869 18.142-26.304 18.141-37.348 49.185L271.435 256.978q13-13.761 30-20.761t37.761-7q15.761 0 28.119 5 12.359 5 22.359 14.239v-9q0-40.239 26.359-66.597Q442.391 146.5 482.63 146.5q40.479 0 66.837 26.359 26.359 26.358 26.359 66.597v9q10-9.239 22.359-14.239 12.359-5 28.359-5 40.239 0 66.597 26.359 26.359 26.359 26.359 66.837 0 27.239-14.739 50.978t-39.978 33.979q25.239 10.239 39.978 33.739 14.739 23.5 14.739 50.978 0 40.239-26.359 66.598-26.358 26.358-66.597 26.358ZM480 1003q0-134.217-91-238.152-91-103.935-219.065-127.131-12.435-2.239-23.25 1.62-10.816 3.859-18.533 11.576-7.957 7.717-11.815 18.652-3.859 10.935-1.62 23.131Q137.674 821 242.228 912T480 1003Z"/></svg>