<svg xmlns="http://www.w3.org/2000/svg" width="48" height="48" viewBox="0 0 48 48"><path d="M24.15 27.8q-2.05 0-3.35-1.325-1.3-1.325-1.3-3.325v-.45q-.5.4-1.125.675t-1.425.275q-2 0-3.325-1.325Q12.3 21 12.3 19q0-1.35.75-2.525Q13.8 15.3 15 14.75q-1.2-.5-1.95-1.675T12.3 10.5q0-2 1.325-3.325Q14.95 5.85 16.95 5.85q.8 0 1.425.25t1.125.7v-.45q0-2 1.3-3.325Q22.1 1.7 24.15 1.7q2 0 3.325 1.325Q28.8 4.35 28.8 6.35v.45q.4-.35.925-.6t1.225-.3l-2.25 6q-.7-1.15-1.875-1.8-1.175-.65-2.675-.65-2.3 0-3.825 1.525Q18.8 12.5 18.8 14.75q0 2.3 1.525 3.825Q21.85 20.1 24.15 20.1q.55 0 1.075-.125.525-.125.975-.325.25.85.975 1.475.725.625 1.775.625h6.1q-.6.9-1.55 1.4-.95.5-2.15.5-.8 0-1.425-.275T28.8 22.7v.45q0 2-1.325 3.325Q26.15 27.8 24.15 27.8ZM34.7 13.45l-1.6 4.15q-.15.45-.525.725-.375.275-.875.275-.8 0-1.225-.675-.425-.675-.175-1.425l5.85-15.35q.15-.45.5-.675.35-.225.8-.225h1.05q.4 0 .75.225t.5.675L45.7 16.5q.3.75-.175 1.425t-1.275.675q-.5 0-.875-.275t-.525-.725l-1.6-4.15Zm.9-2.7h4.8l-2.2-6.3h-.45ZM24 44.55q-6.85 0-12.15-4.8-5.3-4.8-6.2-11.4-.15-1 .5-1.65.65-.65 1.65-.5 6.65.9 11.425 6.2T24 44.55Zm0 0q0-6.85 4.775-12.15 4.775-5.3 11.425-6.2 1-.15 1.65.5.65.65.5 1.65-.9 6.6-6.2 11.4-5.3 4.8-12.15 4.8Z"/></svg>