<svg xmlns="http://www.w3.org/2000/svg" width="48" height="48" viewBox="0 -960 960 960"><path d="M142.152-154.022q-27.599 0-47.865-20.265-20.265-20.266-20.265-47.865v-515.696q0-27.697 20.265-48.033 20.266-20.337 47.865-20.337h675.696q27.697 0 48.033 20.337 20.337 20.336 20.337 48.033v515.696q0 27.599-20.337 47.865-20.336 20.265-48.033 20.265H142.152Zm0-68.13h675.696v-515.696H142.152v515.696Zm0 0v-515.696 515.696ZM276.196-528q32.094 0 54.949-22.925Q354-573.851 354-606.043q0-32.095-22.884-54.95-22.884-22.855-55.02-22.855-32.135 0-55.039 22.884-22.905 22.885-22.905 55.02 0 32.135 22.925 55.04Q244.003-528 276.196-528Z"/></svg>