<svg xmlns="http://www.w3.org/2000/svg" width="48" height="48" viewBox="0 96 960 960"><path d="M105.217 437.435q-14.424 0-24.244-9.871-9.821-9.871-9.821-24.37 0-14.498 9.82-24.314 9.821-9.815 24.245-9.815h142.631q14.424 0 24.244 9.991 9.821 9.99 9.821 24.489 0 14.498-9.821 24.194-9.82 9.696-24.244 9.696H105.217Zm0 212.63q-14.424 0-24.244-9.871-9.821-9.871-9.821-24.369 0-14.499 9.82-24.195 9.821-9.695 24.245-9.695h142.631q14.424 0 24.244 9.871 9.821 9.871 9.821 24.369 0 14.499-9.821 24.195-9.82 9.695-24.244 9.695H105.217Zm715.131 185.174L682.544 697.674q-26 20-56.12 29.88-30.12 9.881-62.359 9.881-84.913 0-144.608-59.696-59.696-59.696-59.696-144.369 0-84.914 59.696-144.609 59.695-59.696 144.608-59.696 84.674 0 144.37 59.696 59.696 59.695 59.696 144.609 0 32.239-9.881 62.358-9.88 30.12-29.88 56.12l137.565 137.565q9.956 9.717 9.956 22.913t-9.956 22.913q-9.717 9.957-22.794 9.957-13.076 0-22.793-9.957ZM563.83 671.935q57.518 0 98.159-40.287 40.641-40.286 40.641-98.043 0-57.757-40.406-98.399-40.406-40.641-97.923-40.641-57.757 0-98.279 40.406T425.5 533.134q0 57.757 40.287 98.279 40.286 40.522 98.043 40.522ZM105.217 862.696q-14.424 0-24.244-9.871-9.821-9.871-9.821-24.37 0-14.498 9.82-24.194 9.821-9.696 24.245-9.696h337.37q14.424 0 24.244 9.871 9.821 9.871 9.821 24.37 0 14.498-9.821 24.194-9.82 9.696-24.244 9.696h-337.37Z"/></svg>