<svg xmlns="http://www.w3.org/2000/svg" width="48" height="48" viewBox="0 96 960 960"><path d="M479.348 576.652ZM51.891 962.087l57-203.793q-20-43.164-28.76-88.947-8.761-45.783-8.761-93.695 0-84.929 31.978-159.139 31.978-74.209 87.695-130.046 55.718-55.837 129.97-87.815 74.253-31.978 159.215-31.978 85.049 0 159.259 31.978 74.209 31.978 130.046 87.815 55.837 55.837 87.815 130.053 31.978 74.215 31.978 159.272 0 85.056-31.978 159.251-31.978 74.196-87.815 129.914-55.837 55.717-130.046 87.695-74.21 31.978-159.139 31.978-47.912 0-93.695-8.76-45.783-8.761-89.03-28.761l-203.71 57.001q-19.63 5.72-33.685-8.338-14.054-14.055-8.337-33.685Zm428.632-225.435q13.853 0 23.274-9.462 9.421-9.462 9.421-23.408v-91.26h92.26q13.97 0 23.42-9.501 9.45-9.5 9.45-23.544 0-13.853-9.45-23.274-9.45-9.421-23.42-9.421h-92.26v-92.26q0-13.97-9.63-23.42-9.63-9.45-23.533-9.45t-23.24 9.45q-9.337 9.45-9.337 23.42v92.26h-92.26q-13.946 0-23.408 9.63-9.462 9.63-9.462 23.533t9.462 23.24q9.462 9.337 23.408 9.337h92.26v91.26q0 13.946 9.501 23.408 9.5 9.462 23.544 9.462ZM137.696 918.304 271.63 881.5q5.24-2 9.704-3 4.465-1 10.014-1 11 0 20.739 2.119 9.739 2.12 19.978 6.12 35.723 14 72.911 22.38 37.188 8.381 75.439 8.381 141.799 0 241.29-99.408 99.491-99.408 99.491-241.326t-99.491-241.44q-99.491-99.522-241.357-99.522-141.966 0-241.407 99.284-99.441 99.283-99.441 242.05 0 38.437 5.5 75.997 5.5 37.561 25.261 71.321 7.239 14.407 7.859 30.302.619 15.894-3.62 30.612l-36.804 133.934Z"/></svg>