<svg xmlns="http://www.w3.org/2000/svg" width="48" height="48" viewBox="0 96 960 960"><path d="M523 657q12.75 0 21.375-8.675 8.625-8.676 8.625-21.5 0-12.825-8.625-21.325T523 597H270q-12.75 0-21.375 8.675-8.625 8.676-8.625 21.5 0 12.825 8.625 21.325T270 657h253Zm167-130q12.75 0 21.375-8.675 8.625-8.676 8.625-21.5 0-12.825-8.625-21.325T690 467H270q-12.75 0-21.375 8.675-8.625 8.676-8.625 21.5 0 12.825 8.625 21.325T270 527h420Zm69.882-186.413q-46.599 0-79.078-32.715-32.478-32.716-32.478-79.316 0-46.36 32.596-78.958T760.118 117q46.599 0 79.197 32.715 32.598 32.716 32.598 79.077 0 46.599-32.715 79.197-32.716 32.598-79.316 32.598Zm-525.86 481.391L131.957 924.043q-16.153 16.153-37.044 7.42-20.891-8.732-20.891-31.289V238.152q0-26.587 20.271-47.478 20.272-20.892 47.859-20.892h435.805q-5.674 15.914-8.392 33.566-2.717 17.652-1.239 34.804 1.761 27.283 9.902 52.185 8.142 24.902 23.663 46.663H270q-12.75 0-21.375 8.675-8.625 8.676-8.625 21.5 0 12.825 8.625 21.325T270 397h396.869q21.674 11.674 44.707 17.511T760 420.348q35.152 0 67.326-12.196 32.174-12.195 58.892-35.826v381.522q0 26.587-20.892 47.359-20.891 20.771-47.478 20.771H234.022Z"/></svg>