<svg xmlns="http://www.w3.org/2000/svg" width="48" height="48" viewBox="0 -960 960 960"><path d="M142.391-275.174q-26.587-4.761-47.478-23.152-20.891-18.391-20.891-44.978v-334.87q0-15.348 6.434-28.359 6.435-13.011 23.544-21.685l287.022-142.847q14.674-6.957 30.945-6.837 16.272.119 30.946 7.837l274.022 141.369q12.826 9.152 23.022 25.283 10.195 16.13 12.956 30.239h-77.109L422.326-809.891 142.391-670.087v394.913Zm98.131 161.152q-28.348 0-48.239-19.771-19.892-19.772-19.892-48.359v-392.652q0-28.587 19.892-48.478 19.891-19.892 48.239-19.892h577.326q28.587 0 48.478 19.892 19.892 19.891 19.892 48.478v392.652q0 28.587-19.892 48.359-19.891 19.771-48.478 19.771H240.522Zm288.782-263.804q7.957 0 15.294-1.739 7.337-1.739 14.293-5.217l242.718-118.5q8-3.761 12.358-11 4.359-7.239 4.359-15.479.239-16.478-13.978-25.217-14.218-8.739-28.696-1.739L529.065-438.543 282.718-556.717q-14.718-7-28.816 1.239-14.097 8.239-13.858 25.717.239 8.479 4.478 15.598 4.239 7.12 12.239 10.881l242.717 118.5q6.957 3.478 14.413 5.217 7.457 1.739 15.413 1.739Z"/></svg>