<svg xmlns="http://www.w3.org/2000/svg" width="48" height="48" viewBox="0 -960 960 960"><path d="M140.674-787.174q-14.424 0-24.245-9.871-9.821-9.871-9.821-24.349 0-14.477 9.821-24.314 9.821-9.836 24.245-9.836h431q14.424 0 24.245 10.012 9.82 10.011 9.82 24.489 0 14.478-9.82 24.173-9.821 9.696-24.245 9.696h-431Zm215.589 523.87q21.628 0 36.487-14.803 14.859-14.802 14.859-36.393v-50h50q21.311 0 36.373-14.956 15.061-14.957 15.061-36.596 0-21.64-15.061-36.479-15.062-14.839-36.373-14.839h-50v-50q0-21.59-14.977-36.393-14.976-14.802-36.604-14.802t-36.458 14.802q-14.831 14.803-14.831 36.393v50h-50q-21.591 0-36.513 14.949-14.922 14.948-14.922 36.576t14.922 36.486q14.922 14.859 36.513 14.859h50v50q0 21.591 14.948 36.393 14.948 14.803 36.576 14.803ZM133.782-104.695q-28.208 0-48.289-20.011-20.08-20.01-20.08-48.12v-486.217q0-28.11 20.08-48.121 20.081-20.01 48.289-20.01h444.783q28.209 0 48.289 20.01 20.081 20.011 20.081 48.121v486.217q0 28.11-20.081 48.12-20.08 20.011-48.289 20.011H133.782Zm689.631 0q-13.653 0-23.99-10.196-10.336-10.196-10.336-23.87v-281.261q-36.196-17.956-59.174-57.563-22.978-39.606-22.978-92.176 0-66.109 33.793-111.761 33.794-45.652 82.544-45.652t82.544 45.652q33.793 45.652 33.793 111.761 0 52.57-22.978 92.176-22.978 39.607-59.174 57.563v281.261q0 13.674-9.821 23.87-9.82 10.196-24.223 10.196Z"/></svg>