<svg xmlns="http://www.w3.org/2000/svg" width="48" height="48" viewBox="0 96 960 960"><path d="M737.739 911.022q-12.717 12.717-33.054 7.299-20.337-5.419-20.337-38.256V747.652l-104.01 104.01q-7.344 7.273-15.609 6.773-8.266-.5-15.381-7.755-7.239-7.254-7.239-16.118 0-8.864 7.239-16.062l124-123.881-125-124.88q-7.239-7.31-6.739-16.164.5-8.854 7.795-16.031 7.172-7 15.916-7 8.745 0 15.984 7l102.044 103.282v-133.13q0-32.598 20.456-37.897 20.457-5.299 33.174 7.179l85.652 85.652q5.479 5.718 7.837 11.444 2.359 5.727 2.359 12.502 0 6.774-2.359 12.545-2.358 5.77-7.837 11.249L738.5 694.5l84.13 84.13q5.479 5.718 7.837 11.403 2.359 5.685 2.359 12.467 0 6.998-2.359 12.695-2.358 5.696-7.837 11.175l-84.891 84.652Zm-12.717-261.435 63.326-63.087-63.326-63.087v126.174Zm1 216 63.326-63.087-63.326-63.087v126.174Zm-457.218 77.109q-64.677 0-109.371-44.694-44.694-44.695-44.694-109.372 0-64.676 44.694-109.371 44.694-44.694 109.371-44.694 24.554 0 47.103 6.902 22.549 6.903 38.832 20.946V277.435q0-28.453 19.888-48.411 19.889-19.959 48.243-19.959h107q29.674 0 50.369 20.696 20.696 20.695 20.696 50.528t-20.696 50.989q-20.695 21.157-50.369 21.157h-107V788.63q0 64.677-44.695 109.372-44.694 44.694-109.371 44.694Z"/></svg>