<svg xmlns="http://www.w3.org/2000/svg" width="48" height="48" viewBox="0 -960 960 960"><path d="M440-375.935v80q0 16.667 11.735 28.334 11.736 11.666 28.5 11.666 16.765 0 28.265-11.666 11.5-11.667 11.5-28.334v-80h80q16.667 0 28.333-11.735Q640-399.405 640-416.05q0-16.646-11.667-28.265-11.666-11.62-28.333-11.62h-80v-80q0-16.427-11.735-28.213-11.736-11.787-28.5-11.787-16.765 0-28.265 11.787-11.5 11.786-11.5 28.213v80h-80q-16.667 0-28.333 11.855Q320-432.225 320-415.58t11.667 28.145q11.666 11.5 28.333 11.5h80Zm-180 268.37q-28.104 0-48.117-20.084-20.014-20.083-20.014-48.286v-479q0-28.104 20.014-48.117 20.013-20.013 48.117-20.013h440q28.203 0 48.286 20.013 20.084 20.013 20.084 48.117v479q0 28.203-20.084 48.286-20.083 20.084-48.286 20.084H260Zm8.565-676.5q-14.424 0-24.244-9.871-9.821-9.872-9.821-24.49 0-14.618 9.821-24.313 9.82-9.696 24.244-9.696h422.87q14.424 0 24.244 9.871 9.821 9.871 9.821 24.489t-9.821 24.314q-9.82 9.696-24.244 9.696h-422.87Z"/></svg>