<svg xmlns="http://www.w3.org/2000/svg" width="48" height="48" viewBox="0 -960 960 960"><path d="M304.37-375.76q9.7-9.82 9.7-24.24v-160q0-14.42-9.88-24.24-9.87-9.83-24.37-9.83-14.49 0-24.19 9.83-9.7 9.82-9.7 24.24v160q0 14.42 9.88 24.24 9.87 9.83 24.37 9.83 14.49 0 24.19-9.83Zm200 0q9.7-9.82 9.7-24.24v-160q0-14.42-9.88-24.24-9.87-9.83-24.37-9.83-14.49 0-24.19 9.83-9.7 9.82-9.7 24.24v160q0 14.42 9.88 24.24 9.87 9.83 24.37 9.83 14.49 0 24.19-9.83Zm200 0q9.7-9.82 9.7-24.24v-160q0-14.42-9.88-24.24-9.87-9.83-24.37-9.83-14.49 0-24.19 9.83-9.7 9.82-9.7 24.24v160q0 14.42 9.88 24.24 9.87 9.83 24.37 9.83 14.49 0 24.19-9.83ZM142.15-194.02q-27.58 0-47.86-20.27-20.27-20.28-20.27-47.86v-435.7q0-27.58 20.27-47.98 20.28-20.39 47.86-20.39h63.78v-54.06q0-14.43 9.88-24.25 9.87-9.82 24.37-9.82 14.49 0 24.19 9.82 9.7 9.82 9.7 24.25v54.06h171.86v-54.06q0-14.43 9.88-24.25 9.87-9.82 24.37-9.82 14.49 0 24.19 9.82 9.7 9.82 9.7 24.25v54.06h171.86v-54.06q0-14.43 9.88-24.25 9.87-9.82 24.37-9.82 14.49 0 24.19 9.82 9.7 9.82 9.7 24.25v54.06h63.78q27.58 0 47.98 20.39 20.39 20.4 20.39 47.98v435.7q0 27.58-20.39 47.86-20.4 20.27-47.98 20.27h-63.78v54.3q0 14.43-9.88 24.25-9.87 9.82-24.37 9.82-14.49 0-24.19-9.82-9.7-9.82-9.7-24.25v-54.3H514.07v54.3q0 14.43-9.88 24.25-9.87 9.82-24.37 9.82-14.49 0-24.19-9.82-9.7-9.82-9.7-24.25v-54.3H274.07v54.3q0 14.43-9.88 24.25-9.87 9.82-24.37 9.82-14.49 0-24.19-9.82-9.7-9.82-9.7-24.25v-54.3h-63.78Z"/></svg>