<svg xmlns="http://www.w3.org/2000/svg" width="48" height="48" viewBox="0 -960 960 960"><path d="M232.13-141.478q-10.195-10.196-10.195-23.87 0-13.674 10.195-23.87l175-175q23.283-23.282 31.044-42.565 7.761-19.282 7.761-57.565v-250.173l-66.131 66.13q-10.195 10.196-23.989 10.196-13.793 0-23.75-10.196-10.196-10.196-10.196-23.87 0-13.674 10.196-23.869L456.13-820.196q5.479-5.717 11.316-7.576 5.837-1.858 12.554-1.858 6.717 0 12.554 1.858 5.837 1.859 11.316 7.576L627.935-696.13q10.196 10.195 10.196 23.869t-10.196 23.87q-10.196 10.196-23.87 10.196-13.674 0-23.869-10.196l-66.131-66.13v250.173q0 38.283 7.761 57.565 7.761 19.283 31.044 42.565l175 175q10.195 10.435 10.195 24.109 0 13.674-10.195 23.631-10.196 10.435-23.87 10.435-13.674 0-23.87-10.435L480-341.609 279.87-141.478q-10.196 10.435-23.87 10.315-13.674-.12-23.87-10.315Z"/></svg>