<svg xmlns="http://www.w3.org/2000/svg" width="48" height="48" viewBox="0 96 960 960"><path d="M480 641.131q-45.87 0-76.783-32.83-30.913-32.83-30.913-79.866V278.63q0-44.297 31.354-75.496 31.355-31.199 76.283-31.199 44.929 0 76.461 31.199 31.533 31.199 31.533 75.496v249.805q0 47.036-31.033 79.866-31.032 32.83-76.902 32.83ZM479.825 947q-13.782 0-23.119-9.462-9.336-9.462-9.336-23.407V810.044q-100.392-11-171.327-79.935-70.934-68.935-82.891-166.087-2-14.196 8.217-24.892 10.218-10.695 25.892-10.695 10.978 0 19.945 8.359 8.968 8.358 11.207 20.315 11.478 81.956 73.496 136.054 62.017 54.098 147.913 54.098 85.895 0 148.091-54.098 62.196-54.098 73.674-136.054 2.476-12.207 11.531-20.44 9.055-8.234 20.452-8.234 15.604 0 25.441 10.695 9.837 10.696 7.837 24.892-11.957 97.152-82.891 166.087-70.935 68.935-171.327 79.935v104.087q0 13.945-9.512 23.407T479.825 947Z"/></svg>