<svg xmlns="http://www.w3.org/2000/svg" width="48" height="48" viewBox="0 -960 960 960"><path d="M480.014-414.869q-45.884 0-76.797-32.87-30.913-32.87-30.913-79.826V-777.37q0-44.257 31.411-75.476 31.41-31.219 76.282-31.219 44.873 0 76.405 31.219 31.533 31.219 31.533 75.476v249.805q0 46.956-31.019 79.826-31.018 32.87-76.902 32.87ZM480-649.087Zm-32.63 507.218v-103.848q-98.631-11-170.685-79.413-72.055-68.413-83.772-168.805-2.239-13.81 7.071-23.72 9.31-9.91 23.413-9.91t23.559 9.837q9.457 9.837 11.935 24.032 12.718 81.718 76.286 133.337 63.568 51.62 144.462 51.62 82.318 0 145.535-51.62 63.217-51.619 76.174-133.337 2.239-14.195 11.871-24.032 9.632-9.837 23.652-9.837 14.02 0 23.118 10.03 9.098 10.029 7.098 23.839-11.956 99.153-83.391 168.066T512.63-245.717v103.848q0 13.969-9.417 23.419-9.417 9.45-23.338 9.45-13.921 0-23.213-9.45-9.292-9.45-9.292-23.419ZM480.025-483q17.401 0 28.471-13.087 11.069-13.088 11.069-31.478v-249.773q0-16.218-11.476-27.408-11.477-11.189-28.089-11.189t-28.089 11.189q-11.476 11.19-11.476 27.408v249.773q0 18.39 11.095 31.478Q462.624-483 480.025-483Z"/></svg>