<svg xmlns="http://www.w3.org/2000/svg" width="48" height="48" viewBox="0 -960 960 960"><path d="M183.283-694.63q-14.479-15.718-20.077-35.316-5.597-19.598-5.597-40.439 0-49.16 34.074-83.572 34.075-34.413 82.753-34.413 48.579 0 82.745 34.413 34.167 34.412 34.167 83.572 0 20.841-5.718 40.439-5.717 19.598-20.195 35.316H183.283ZM399.264-71.87q-66.173 0-113.414-46.615-47.241-46.616-47.241-113.885h-8.435q-12.339 0-22.619-8.966-10.279-8.967-11.207-21.621l-34.239-353.13q-2.24-15.206 8.206-26.375 10.446-11.168 25.859-11.168h156.609q15.515 0 25.79 11.184 10.275 11.185 8.275 26.359l-34.478 353.13q-1.168 12.654-11.327 21.621-10.16 8.966-22.499 8.966h-14.196q0 39 27.748 67 27.747 28 67 28 39.252 0 66.752-27.906 27.5-27.906 27.5-67.094V-730.5q0-66.184 45.686-112.027 45.685-45.843 111.803-45.843 66.117 0 111.944 45.843 45.828 45.843 45.828 112.027v626q0 14.035-9.466 23.333-9.465 9.298-23.458 9.298-13.992 0-23.164-9.298-9.173-9.297-9.173-23.333v-626q0-38.147-27.182-65.139-27.181-26.991-65.197-26.991-38.015 0-65.188 26.991-27.172 26.992-27.172 65.139v498.13q0 67.269-46.792 113.885T399.264-71.869Z"/></svg>