<svg xmlns="http://www.w3.org/2000/svg" width="48" height="48" viewBox="0 -960 960 960"><path d="M474.795-409.283q13.518 0 22.448-8.935 8.931-8.936 8.931-22.574v-197.056q0-13.36-9.088-22.397-9.088-9.038-22.522-9.038-13.638 0-22.449 8.936-8.811 8.936-8.811 22.574v197.056q0 13.359 8.987 22.397 8.986 9.037 22.504 9.037Zm122.869-61.913q13.519 0 22.449-8.936 8.93-8.935 8.93-22.498v-95.218q0-13.36-9.087-22.397-9.088-9.038-22.523-9.038-13.637 0-22.448 8.936t-8.811 22.499v95.218q0 13.563 8.986 22.498 8.986 8.936 22.504 8.936Zm-245.739-18.087q13.518 0 22.449-8.935 8.93-8.936 8.93-22.499v-77.131q0-13.36-9.088-22.397-9.088-9.038-22.522-9.038-13.638 0-22.449 8.936-8.81 8.936-8.81 22.499v77.131q0 13.359 8.986 22.397 8.986 9.037 22.504 9.037ZM234.739-74.739v-174.87q-57-52.717-88.5-122.934-31.5-70.218-31.5-147.457 0-152.292 106.501-258.896Q327.742-885.5 479.887-885.5q126.787 0 224.722 74.815t127.652 194.489L887.5-396.761q4.478 16.152-5.696 29.087-10.173 12.935-27.13 12.935H765.5v131.869q0 28.349-19.961 48.24-19.961 19.891-48.409 19.891H605.5v80h-68.37V-222.87h160v-200h113.283L766.37-599.283q-24-95.804-104.283-156.826-80.283-61.021-181.978-61.021-123.856 0-210.548 85.744-86.691 85.743-86.691 208.98 0 63.612 26.085 121.246 26.085 57.633 73.958 102.008l19.957 18.923v205.49h-68.131Zm262.022-371.196Z"/></svg>