<svg xmlns="http://www.w3.org/2000/svg" width="48" height="48" viewBox="0 -960 960 960"><path d="M474.795-409.283q13.518 0 22.448-8.935 8.931-8.936 8.931-22.574v-197.056q0-13.36-9.088-22.397-9.088-9.038-22.522-9.038-13.638 0-22.449 8.936-8.811 8.936-8.811 22.574v197.056q0 13.359 8.987 22.397 8.986 9.037 22.504 9.037Zm122.869-61.913q13.519 0 22.449-8.936 8.93-8.935 8.93-22.498v-95.218q0-13.36-9.087-22.397-9.088-9.038-22.523-9.038-13.637 0-22.448 8.936t-8.811 22.499v95.218q0 13.563 8.986 22.498 8.986 8.936 22.504 8.936Zm-245.739-18.087q13.518 0 22.449-8.935 8.93-8.936 8.93-22.499v-77.131q0-13.36-9.088-22.397-9.088-9.038-22.522-9.038-13.638 0-22.449 8.936-8.81 8.936-8.81 22.499v77.131q0 13.359 8.986 22.397 8.986 9.037 22.504 9.037ZM234.739-249.609q-57-52.717-88.5-122.934-31.5-70.218-31.5-147.457 0-152.292 106.501-258.896Q327.742-885.5 479.887-885.5q126.787 0 224.722 74.815t127.652 194.489L887.5-396.761q4.478 16.152-5.696 29.087-10.173 12.935-27.13 12.935H765.5v131.869q0 28.349-19.961 48.24-19.961 19.891-48.409 19.891H605.5v45.935q0 14.424-10.012 24.244-10.011 9.821-24.489 9.821-14.477 0-24.173-9.82-9.696-9.821-9.696-24.245v-80q0-14.424 9.821-24.245 9.821-9.821 24.245-9.821H697.13v-165.934q0-14.424 9.821-24.245 9.821-9.821 24.245-9.821h79.217L766.37-599.283q-24-95.804-104.283-156.826-80.283-61.021-181.978-61.021-123.856 0-210.548 85.744-86.691 85.743-86.691 208.98 0 63.612 26.085 121.246 26.085 57.633 73.958 102.008l19.957 19.046v171.302q0 14.424-9.871 24.244-9.872 9.821-24.37 9.821-14.499 0-24.194-9.82-9.696-9.821-9.696-24.245v-140.805Zm262.022-196.326Z"/></svg>