<svg xmlns="http://www.w3.org/2000/svg" width="48" height="48" viewBox="0 -960 960 960"><path d="M291.761-388.326h400.717q10.196 0 15.294-9.196 5.098-9.195-1.859-18.152L593.674-562.913q-5.791-6.957-13.711-6.837-7.92.12-13.637 6.837L454-414.065l-78.326-95.848q-5.791-6.957-13.711-6.957t-13.637 6.957l-70.239 94.239q-5.957 8.957-1.109 18.152 4.848 9.196 14.783 9.196Zm-57.739 154.304L132.196-132.196q-16.153 16.153-37.163 7.45-21.011-8.702-21.011-31.08v-662.022q0-27.697 20.265-48.033 20.266-20.337 47.865-20.337h675.696q27.697 0 48.033 20.337 20.337 20.336 20.337 48.033v515.696q0 27.599-20.337 47.865-20.336 20.265-48.033 20.265H234.022Zm-26-68.13h609.826v-515.696H142.152v587.565l65.87-71.869Zm-65.87 0v-515.696 515.696Z"/></svg>