<svg xmlns="http://www.w3.org/2000/svg" width="48" height="48" viewBox="0 -960 960 960"><path d="M262.39-34.02q-28.59 0-48.48-19.77-19.89-19.78-19.89-48.36v-755.7q0-27.58 20.39-47.98 20.39-20.39 47.98-20.39h433.22q28.59 0 48.48 19.89 19.89 19.9 19.89 48.48v144.74q18 3.96 30.12 18.56 12.12 14.59 12.12 33.07v73.28q0 19.48-12.12 34.2-12.12 14.72-30.12 18.67v433.18q0 28.58-19.89 48.36-19.89 19.77-48.48 19.77H262.39Zm97.79-286.22h239.58q17 0 28.5-11.48 11.5-11.47 11.5-28.44v-66.87q0-4.99-3.88-9.48t-9.12-5.49q-12-4-19.5-14.5t-7.5-23.5q0-13 7.5-23.5t19.5-14.5q5.24-1 9.12-5.5 3.88-4.5 3.88-9.49v-66.86q0-16.96-11.48-28.44-11.48-11.47-28.45-11.47H360.21q-16.97 0-28.47 11.48t-11.5 28.44v66.88q0 4.99 3.88 9.48t9.12 5.49q12 3.99 19.5 14.49t7.5 23.5q0 13-7.5 23.5t-19.5 14.5q-5.24 1-9.12 5.49-3.88 4.49-3.88 9.48v66.87q0 16.97 11.49 28.44 11.48 11.48 28.45 11.48ZM466-386.12q-6-5.88-6-14 0-8.12 6-14 6-5.88 14-5.88t14 5.88q6 5.88 6 14 0 8.12-6 14-6 5.88-14 5.88t-14-5.88Zm0-79.88q-6-6-6-14t6-14q6-6 14-6t14 6q6 6 6 14t-6 14q-6 6-14 6t-14-6Zm0-79.88q-6-5.88-6-14 0-8.12 6-14 6-5.88 14-5.88t14 5.88q6 5.88 6 14 0 8.12-6 14-6 5.88-14 5.88t-14-5.88Z"/></svg>