<svg xmlns="http://www.w3.org/2000/svg" width="48" height="48" viewBox="0 -960 960 960"><path d="M306.26-113.78q-28.45 0-48.41-20.02-19.96-20.02-19.96-48.11v-595.94q0-28.45 19.96-48.41 19.96-19.96 48.41-19.96h348.72q28.45 0 48.41 19.96 19.96 19.96 19.96 48.41v595.94q0 28.09-19.96 48.11t-48.41 20.02H306.26Zm194.82-530.56q9.35-9.36 9.35-22.07 0-12.72-9.35-22.08-9.36-9.36-22.08-9.36-12.72 0-22.08 9.36-9.35 9.36-9.35 22.08 0 12.71 9.35 22.07 9.36 9.36 22.08 9.36 12.72 0 22.08-9.36ZM-8.85-396.53v-167.04q0-13.26 9.18-22.34Q9.51-595 22.9-595q13.4 0 22.26 8.98 8.86 8.99 8.86 22.55v167.04q0 13.26-9.03 22.34Q35.95-365 22.55-365q-13.4 0-22.4-8.98-9-8.99-9-22.55Zm122.87 88.05v-343.09q0-13.26 9.18-22.34 9.18-9.09 22.57-9.09 13.4 0 22.26 8.98 8.86 8.99 8.86 22.5v343.09q0 13.26-9.03 22.34-9.04 9.09-22.44 9.09-13.4 0-22.4-8.98-9-8.99-9-22.5Zm792.2-88.05v-167.04q0-13.26 9.03-22.34 9.04-9.09 22.44-9.09 13.39 0 22.4 8.98 9 8.99 9 22.55v167.04q0 13.26-9.18 22.34-9.18 9.09-22.58 9.09-13.4 0-22.25-8.98-8.86-8.99-8.86-22.55Zm-122.87 88.05v-343.09q0-13.26 9.03-22.34 9.04-9.09 22.44-9.09 13.39 0 22.4 8.98 9 8.99 9 22.5v343.09q0 13.26-9.18 22.34-9.18 9.09-22.58 9.09-13.39 0-22.25-8.98-8.86-8.99-8.86-22.5Z"/></svg>