<svg xmlns="http://www.w3.org/2000/svg" width="48" height="48" viewBox="0 -960 960 960"><path d="M149.585-115.935q-14.498 0-24.074-9.701-9.576-9.701-9.576-24.079v-47.959q0-14.155 9.751-23.99 9.752-9.836 24.131-9.836t23.955 9.821q9.576 9.82 9.576 24.099v47.965q0 14.278-9.767 23.979-9.766 9.701-23.996 9.701Zm165 0q-14.367 0-23.889-9.716-9.522-9.716-9.522-24.11v-200.978q0-14.292 9.724-23.94 9.724-9.647 24.131-9.647 14.406 0 23.982 9.647 9.576 9.648 9.576 23.94v200.978q0 14.394-9.766 24.11-9.767 9.716-24.236 9.716Zm165.458 0q-14.239 0-23.934-9.701-9.696-9.701-9.696-24.125v-140.978q0-14.155 9.892-23.991 9.892-9.835 24.131-9.835 14.238 0 23.814 9.835 9.576 9.836 9.576 23.991v141.217q0 14.155-9.772 23.871-9.773 9.716-24.011 9.716Zm165.26 0q-14.499 0-24.075-9.701-9.576-9.701-9.576-24.125v-245.282q0-14.185 9.752-23.886 9.751-9.701 24.13-9.701t23.955 9.701q9.576 9.701 9.576 23.886v245.521q0 14.155-9.766 23.871-9.767 9.716-23.996 9.716Zm164.979 0q-14.239 0-23.815-9.701t-9.576-24.125v-365.282q0-14.185 9.752-23.886 9.751-9.701 23.99-9.701 14.238 0 23.835 9.701 9.597 9.701 9.597 23.886v365.521q0 14.155-9.772 23.871-9.773 9.716-24.011 9.716ZM559.62-497.804q-13.055 0-25.543-5.283-12.489-5.284-22.816-15.109L400-629.456 175.109-405.565q-10.263 10.195-24.557 9.715-14.294-.481-24.189-10.696-9.428-10.215-9.928-23.889t9.695-23.869l226.131-224.131q10.257-10.169 22.661-14.9 12.404-4.73 25.078-4.73t25.436 4.73q12.761 4.731 22.303 14.9L560-566.174l225.891-225.891q10.196-10.196 24.024-10.215 13.827-.019 23.722 10.196 9.428 10.214 9.928 23.888.5 13.674-9.695 23.87l-226.131 226.13q-9.225 10.217-22.145 15.304-12.92 5.088-25.974 5.088Z"/></svg>