<svg xmlns="http://www.w3.org/2000/svg" width="48" height="48" viewBox="0 -960 960 960"><path d="M479.5-265.565q73.217 0 122.576-49.359 49.359-49.359 49.359-122.456 0-73.098-49.359-122.077-49.359-48.978-122.456-48.978-73.098 0-122.077 48.959-48.978 48.958-48.978 121.976 0 73.217 48.959 122.576 48.958 49.359 121.976 49.359Zm0-64.783q-46.065 0-76.109-30.543-30.043-30.544-30.043-76.609t30.043-76.228q30.044-30.163 76.109-30.163t76.728 30.163q30.663 30.163 30.663 76.228t-30.663 76.609q-30.663 30.543-76.728 30.543ZM142.152-114.022q-27.599 0-47.865-20.265-20.265-20.266-20.265-47.865v-508.696q0-26.697 20.265-47.533 20.266-20.837 47.865-20.837h141.739l55.239-64.565q9.196-11.717 22.392-17.076 13.195-5.359 28.391-5.359h180.413q14.927 0 28.137 5.359 13.211 5.359 22.407 17.076l55.478 64.565h141.5q26.697 0 47.533 20.837 20.837 20.836 20.837 47.533v508.696q0 27.599-20.837 47.865-20.836 20.265-47.533 20.265H142.152ZM480-182.152h337.848v-508.696h-172.37l-74.913-87h-90.087L480-182.152Zm-336.413-.957V-690.13h172.609l73-85.805h181.608l73 85.805h172.609v507.021H143.587Z"/></svg>