<svg xmlns="http://www.w3.org/2000/svg" width="48" height="48" viewBox="0 -960 960 960"><path d="M698.565-698.565H352.63q-14.423 0-24.244-9.871t-9.821-24.37q0-14.498 9.821-24.314 9.821-9.815 24.244-9.815h380q14.424 0 24.365 9.94 9.94 9.941 9.94 24.365v380q0 14.423-9.991 24.244-9.99 9.821-24.489 9.821-14.498 0-24.194-9.821t-9.696-24.244v-345.935Zm-202.63 202.63H150q-14.424 0-24.245-9.871-9.82-9.871-9.82-24.369 0-14.499 9.82-24.195 9.821-9.695 24.245-9.695h380q14.424 0 24.245 9.82 9.82 9.821 9.82 24.245v380q0 14.424-9.871 24.245-9.871 9.82-24.369 9.82-14.499 0-24.195-9.82-9.695-9.821-9.695-24.245v-345.935Z"/></svg>