<svg xmlns="http://www.w3.org/2000/svg" width="48" height="48" viewBox="0 -960 960 960"><path d="M142.152-154.022q-27.587 0-47.859-20.271-20.271-20.272-20.271-47.859v-135.783q0-14.424 9.87-24.244Q93.765-392 108.263-392q14.499 0 24.195 9.821 9.695 9.82 9.695 24.244v135.783h135.783q14.424 0 24.244 9.871t9.82 24.37q0 14.498-9.821 24.194-9.82 9.695-24.244 9.695H142.152Zm-68.13-608.043v-135.783q0-27.587 20.271-47.978 20.272-20.392 47.859-20.392h135.783q14.424 0 24.244 9.991Q312-946.236 312-931.738q0 14.499-9.821 24.195-9.82 9.695-24.244 9.695H142.152v135.783q0 14.424-9.871 24.244Q122.41-728 107.911-728q-14.498 0-24.194-9.821-9.695-9.82-9.695-24.244Zm405.545 276.13q-30.241 0-51.937-21.758-21.695-21.758-21.695-52.307 0-30.913 21.758-52.489 21.758-21.576 52.307-21.576 30.913 0 52.489 21.576 21.576 21.576 21.576 52.922 0 30.241-21.576 51.937-21.576 21.695-52.922 21.695Zm338.281-276.13v-135.783H682.065q-14.424 0-24.244-9.871Q648-917.59 648-932.089q0-14.498 9.821-24.313 9.82-9.816 24.244-9.816h135.783q27.587 0 47.978 20.392 20.392 20.391 20.392 47.978v135.783q0 14.424-9.991 24.244Q866.236-728 851.738-728q-14.499 0-24.195-9.821-9.695-9.82-9.695-24.244ZM233.761-525.043q-15.411 0-23.999 14.173-8.588 14.174-3.392 29.848 19.478 73.087 72.402 125.87 52.924 52.782 126.25 72.261 15.913 5.195 29.826-3.5 13.913-8.696 13.913-25.481 0-11.802-7.859-21.519-7.859-9.718-19.576-13.435-55.369-14.522-95.217-54.728-39.848-40.207-54.609-95.337-4.196-12.196-14.591-20.174-10.396-7.978-23.148-7.978Zm1-60q-15.411 0-23.76-14.055-8.349-14.054-3.392-29.728 19.717-73.087 72.402-125.87 52.685-52.782 126.011-72.261 15.913-5.195 29.945 3.5Q450-814.761 450-797.976q0 11.802-7.859 21.52-7.858 9.717-19.576 13.434-55.369 14.522-95.217 54.729-39.848 40.206-54.848 95.336-3.956 12.196-14.352 20.055t-23.387 7.859Zm491.717 0q15.172 0 23.64-14.055 8.469-14.054 3.512-29.728-19.717-73.087-72.402-125.87-52.684-52.782-126.01-72.261-16.153-5.195-30.066 3.5-13.913 8.696-13.913 25.481 0 11.802 7.859 21.52 7.859 9.717 19.576 13.434 55.369 14.522 95.217 54.729 39.848 40.206 54.848 95.336 3.957 12.196 14.352 20.055 10.396 7.859 23.387 7.859ZM729.5-120Q650-120 594-175.867 538-231.735 538-311q0-80 55.867-135.5Q649.735-502 729-502q80 0 135.5 55.5t55.5 135q0 79.5-55.5 135.5t-135 56Zm2-73.13q10.457 0 17.554-6.598 7.098-6.598 7.098-17.555 0-10.956-7.198-17.674-7.197-6.717-16.954-6.717-10.957 0-17.554 6.717-6.598 6.718-6.598 17.674 0 10.957 6.598 17.555 6.597 6.598 17.054 6.598Zm.5-90.022q8.478 0 13.457-5.478 4.978-5.479 4.978-13.957v-105.13q0-8.479-5.478-13.457-5.479-4.978-13.957-4.978-8.478 0-13.457 5.478-4.978 5.478-4.978 13.957v105.13q0 8.478 5.478 13.457 5.479 4.978 13.957 4.978Z"/></svg>