<svg xmlns="http://www.w3.org/2000/svg" width="48" height="48" viewBox="0 0 48 48"><path d="M9.1 42.3q-1.35 0-2.375-1.025T5.7 38.9V9.1q0-1.4 1.025-2.4t2.375-1h29.8q1.4 0 2.4 1t1 2.4v29.8q0 1.35-1 2.375T38.9 42.3Zm14.9-9q1.75 0 3.175-.875Q28.6 31.55 29.5 30.05q.3-.55.925-.725.625-.175 1.275-.175h7.2V9.1H9.1v20.05h7.2q.65 0 1.275.175.625.175.925.725.9 1.5 2.325 2.375Q22.25 33.3 24 33.3Zm-1.5-12.15v-8q0-.65.425-1.075.425-.425 1.075-.425.65 0 1.075.425.425.425.425 1.075v8l3-2.95q.2-.25.55-.25.35 0 .7.05t.625.1q.275.05.225.1.45.45.45 1.075t-.45 1.075l-5.4 5.4q-.25.3-.55.425-.3.125-.65.125-.35 0-.65-.125-.3-.125-.55-.425l-5.4-5.4q-.2-.25-.25-.6-.05-.35.025-.7.075-.35.175-.625.1-.275.1-.225.45-.45 1.075-.45t1.075.45Z"/></svg>