<svg xmlns="http://www.w3.org/2000/svg" width="48" height="48" viewBox="0 -960 960 960"><path d="M304.783-75.456q-28.098 0-48.115-19.962-20.016-19.961-20.016-48.408v-350.196q0-28.447 20.016-48.408 20.017-19.961 48.115-19.961h350.434q28.098 0 48.115 19.961 20.016 19.961 20.016 48.408v350.196q0 28.447-20.016 48.408-20.017 19.962-48.115 19.962H304.783Zm-68.131-579.761v-68.131h68.131v68.131h-68.131Zm418.565 0v-68.131h68.131v68.131h-68.131ZM445.935-816.174v-68.37h68.13v68.37h-68.13Zm-209.283 0q0-27.697 20.266-48.034 20.266-20.336 47.865-20.336v68.37h-68.131Zm418.565 0v-68.37q27.599 0 47.865 20.336 20.266 20.337 20.266 48.034h-68.131Z"/></svg>