<svg xmlns="http://www.w3.org/2000/svg" width="48" height="48" viewBox="0 0 48 48"><path d="M3.15 42.15q-.7 0-1.2-.5t-.5-1.2V7.3q0-.75.5-1.225.5-.475 1.2-.475h25.2q.7 0 1.2.475t.5 1.225v33.15q0 .7-.5 1.2t-1.2.5h-9.4V32.9H12.6v9.25ZM10 25.7h3.35v-3.35H10Zm0-8.15h3.35v-3.4H10Zm8.15 8.15h3.35v-3.35h-3.35Zm0-8.15h3.35v-3.4h-3.35ZM32.05 24q0-.75.475-1.225Q33 22.3 33.75 22.3H40l-1.45-1.5q-.45-.55-.475-1.225-.025-.675.475-1.125.55-.55 1.225-.55t1.175.55l4.4 4.35q.5.5.5 1.2t-.5 1.2l-4.4 4.4q-.5.5-1.175.5t-1.225-.5q-.5-.5-.475-1.2.025-.7.475-1.2L40 25.7h-6.25q-.75 0-1.225-.475-.475-.475-.475-1.225Z"/></svg>