<svg xmlns="http://www.w3.org/2000/svg" width="48" height="48" viewBox="0 -960 960 960"><path d="M347.37-606.565q-14.392 0-24.946-10.674-10.555-10.674-10.555-24.826 0-15.392 10.555-25.566 10.554-10.174 24.946-10.174 15.152 0 25.206 10.174t10.054 25.566q0 14.152-10.054 24.826-10.054 10.674-25.206 10.674Zm-131.24 0q-14.152 0-24.706-10.674-10.555-10.674-10.555-24.826 0-15.392 10.555-25.566 10.554-10.174 24.706-10.174 15.391 0 25.565 10.174 10.174 10.174 10.174 25.566 0 14.152-10.174 24.826-10.174 10.674-25.565 10.674Zm396.5 324.13q-14.152 0-24.706-10.554t-10.554-24.946q0-15.152 10.554-25.326 10.554-10.174 24.706-10.174 15.392 0 25.566 10.174t10.174 25.326q0 14.392-10.174 24.946-10.174 10.554-25.566 10.554Zm44.131-211.695q-9.196-10.196-9.576-23.87-.381-13.674 9.576-23.63L723.13-608H476.935q-14.913 0-24.609-9.696-9.696-9.695-9.696-24.369t9.696-24.49q9.696-9.815 24.609-9.815H723.13L657-742.5q-10.196-10.196-10.196-23.87 0-13.674 9.957-23.869 10.196-10.196 23.869-10.196 13.674 0 23.87 10.196l124.305 124.304q5.478 5.478 7.337 11.196Q838-649.022 838-642.065q0 6.717-1.858 12.435-1.859 5.717-7.337 11.434L704.5-494.13q-10.196 10.195-23.87 10.315-13.673.119-23.869-10.315ZM255.5-170 131.435-294.065q-5.718-5.478-7.577-11.196Q122-310.978 122-317.935q0-6.717 1.858-12.435 1.859-5.717 7.577-11.434L255.5-465.87q10.196-10.195 23.87-10.315 13.673-.119 23.869 10.315 9.196 10.196 9.576 23.87.381 13.674-9.576 23.63L236.87-352h246.434q14.674 0 24.37 9.696 9.696 9.695 9.696 24.369t-9.696 24.37q-9.696 9.696-24.37 9.696H236.87l66.13 66.13q10.196 10.435 10.196 24.109 0 13.674-9.957 23.63-10.196 10.435-23.869 10.435-13.674 0-23.87-10.435Zm488.37-112.435q-14.391 0-24.946-10.554-10.554-10.554-10.554-24.946 0-15.152 10.554-25.326 10.555-10.174 24.946-10.174 15.152 0 25.206 10.174 10.055 10.174 10.055 25.326 0 14.392-10.055 24.946-10.054 10.554-25.206 10.554Z"/></svg>