<svg xmlns="http://www.w3.org/2000/svg" width="48" height="48" viewBox="0 -960 960 960"><path d="M405.109-408.456 126.956-516.174q-11.195-4.478-16.413-13.554-5.217-9.076-5.217-19.272 0-10.196 5.217-18.272 5.218-8.076 16.413-12.793l651.522-246.022q10.196-4.478 19.892-1.739 9.695 2.739 16.413 9.456 6.956 6.957 9.815 16.652 2.859 9.696-1.62 19.892L576.717-130.304q-4.478 11.435-12.554 16.652-8.076 5.217-18.272 5.217-10.435 0-19.511-5.217-9.076-5.217-13.554-16.652L405.109-408.456Zm136.782 168.717L731.5-734.848 237.63-545l219.935 84.087 84.326 221.174Zm-84.326-221.174Z"/></svg>