<svg xmlns="http://www.w3.org/2000/svg" width="48" height="48" viewBox="0 -960 960 960"><path d="M677.51-252.1q-21.58-21.66-21.58-52.49 0-30.82 21.67-52.4 21.66-21.58 52.49-21.58 30.82 0 52.4 21.67 21.58 21.66 21.58 52.49 0 30.82-21.67 52.4-21.66 21.58-52.49 21.58-30.82 0-52.4-21.67ZM575.93-63.5v-15.63q0-41.67 41.7-66.49 41.7-24.81 112.37-24.81t112.37 24.81q41.7 24.82 41.7 66.49v15.63H575.93Zm-37.52-523.59q24.22-24.45 24.22-58.56t-24.19-58.41q-24.18-24.31-58.41-24.31t-58.44 24.31q-24.22 24.3-24.22 58.41t24.19 58.56q24.18 24.46 58.41 24.46t58.44-24.46ZM480-480Zm-82.63 165.4q0 34.3 24.19 58.51 24.18 24.22 58.41 24.22t58.44-24.19q24.22-24.2 24.22-58.44 0-34.1-24.22-58.48-24.21-24.39-58.41-24.39-34.2 0-58.41 24.36-24.22 24.35-24.22 58.41Zm52.54 30.18q-12.28-12.05-12.28-29.99 0-17.8 12.2-30.13 12.19-12.33 30.08-12.33t30.18 12.21q12.28 12.21 12.28 29.97 0 17.99-12.2 30.16-12.19 12.16-30.08 12.16t-30.18-12.05ZM269-685.5q0-89.76 60.73-150.38 60.73-60.62 150.39-60.62 89.42 0 150.15 60.62Q691-775.26 691-685.5v171.43q0 14.43-9.87 24.25T656.76-480q-14.74 0-24.43-9.82-9.7-9.82-9.7-24.25V-685.5q0-60.55-42.34-101.71-42.33-41.16-100.29-41.16-57.96 0-100.29 41.16-42.34 41.16-42.34 101.71v411q0 48.96 31.48 88.17 31.48 39.22 78.43 50.46 12.04 2.77 20.2 12.11 8.15 9.35 8.15 21.7 0 17.5-13.43 27.15-13.44 9.65-29.59 6.17-71.81-16.62-117.71-72.81Q269-197.73 269-274.5v-411Z"/></svg>