<svg xmlns="http://www.w3.org/2000/svg" width="48" height="48" viewBox="0 -960 960 960"><path d="M188.087-114.022q-14.424 0-24.245-9.82-9.82-9.821-9.82-24.245v-115.935q0-14.424 9.82-24.244 9.821-9.821 24.245-9.821h307.848q14.424 0 24.244 9.821 9.821 9.82 9.821 24.244v115.935q0 14.424-9.821 24.245-9.82 9.82-24.244 9.82H188.087Zm435.978 0q-14.424 0-24.244-9.82Q590-133.663 590-148.087v-115.935q.239-13.434 10.315-23.75 10.076-10.315 23.75-10.315h147.848q14.424 0 24.364 9.821 9.941 9.82 9.941 24.244v115.935q0 14.424-9.941 24.245-9.94 9.82-24.364 9.82H624.065ZM188.087-358.087q-14.424 0-24.245-9.821-9.82-9.82-9.82-24.244v-115.935q0-14.424 9.82-24.245 9.821-9.82 24.245-9.82h147.848q14.424 0 24.244 9.82Q370-522.511 370-508.087v115.935q0 14.424-9.821 24.244-9.82 9.821-24.244 9.821H188.087Zm275.978 0q-14.424 0-24.244-9.821-9.821-9.82-9.821-24.244v-115.935q0-14.424 9.821-24.245 9.82-9.82 24.244-9.82h307.848q14.424 0 24.364 9.82 9.941 9.821 9.941 24.245v115.935q0 14.424-9.941 24.244-9.94 9.821-24.364 9.821H464.065ZM203.804-602.152q-12.391 0-16.511-11.555-4.119-11.554 6.316-19.271l245.13-184.087q9.73-6.718 20.094-10.076 10.365-3.359 21.364-3.359t21.228 3.478q10.23 3.478 19.597 10.196l244.174 184.087q10.195 7.717 6.076 19.152-4.12 11.435-16.511 11.435H203.804Z"/></svg>