<svg xmlns="http://www.w3.org/2000/svg" width="48" height="48" viewBox="0 -960 960 960"><path d="M480.013-74.022q-84.209 0-158.258-31.926t-128.96-86.828q-54.91-54.901-86.842-128.959-31.931-74.057-31.931-158.259 0-84.202 31.978-158.278t86.815-128.913q54.837-54.837 128.911-86.935 74.073-32.098 158.294-32.098 84.221 0 158.274 32.098 74.054 32.098 128.891 86.935 54.837 54.837 86.935 128.911 32.098 74.073 32.098 158.294 0 84.221-32.098 158.274-32.098 74.054-86.935 128.891-54.837 54.837-128.9 86.815-74.063 31.978-158.272 31.978Zm-.278-68.13q140.308 0 239.211-98.638 98.902-98.637 98.902-238.945T719.21-718.946q-98.637-98.902-238.945-98.902T241.054-719.21q-98.902 98.637-98.902 238.945t98.638 239.211q98.637 98.902 238.945 98.902Zm.265-60q-115.043 0-196.446-81.402Q202.152-364.957 202.152-480q0-115.043 81.402-196.446Q364.957-757.848 480-757.848q115.043 0 196.446 81.402Q757.848-595.043 757.848-480q0 115.043-81.402 196.446Q595.043-202.152 480-202.152Zm.202-68.37q86.494 0 148.004-61.594 61.511-61.593 61.511-148.086 0-86.494-61.643-148.004-61.644-61.511-148.207-61.511-86.563 0-147.954 61.643-61.391 61.644-61.391 148.207 0 86.563 61.594 147.954 61.593 61.391 148.086 61.391Z"/></svg>