<svg xmlns="http://www.w3.org/2000/svg" width="48" height="48" viewBox="0 -960 960 960"><path d="M186.696-78.522q-29.348 0-48.74-19.39-19.391-19.392-19.391-48.979h198.891Q209.608-198.239 150.5-293.424q-59.109-95.185-59.109-204.185 0-79.674 30.718-150.228 30.717-70.554 83.913-123.63 53.195-53.077 123.75-83.914Q400.326-886.218 480-886.218t150.228 30.837q70.555 30.837 123.75 83.914 53.196 53.076 83.913 123.63 30.718 70.554 30.718 150.228 0 109-59.109 204.185-59.108 95.185-166.956 146.533h199.13q0 29.587-19.511 48.978-19.511 19.391-48.859 19.391H186.696Zm397.5-266.369q50.434 0 76.011-38.696 25.576-38.696 25.576-96.413t-26.076-96.533q-26.077-38.815-75.511-38.815-50.674 0-75.631 38.815-24.956 38.816-24.956 96.533t24.956 96.413q24.957 38.696 75.631 38.696Zm0-34.305q-27.522 0-46.902-23.663-19.381-23.663-19.381-77.141 0-47.196 17-74.12 17-26.923 49.283-26.923 32.043 0 49.663 26.923 17.619 26.924 17.619 74.12 0 53.478-19.5 77.141-19.5 23.663-47.782 23.663Zm-160.87 28.305q6.717 0 11.935-5.098 5.217-5.098 5.217-12.054 0-6.718-5.217-11.935-5.218-5.218-11.935-5.218H321.63l-1-2.761q4.805-3.804.707-.206t-2.837 2.337q1.261-1.261 14.88-12.761 13.62-11.5 54.098-44.978 28.239-24.478 39.62-45.978 11.38-21.5 11.38-48.218 0-32.196-23.717-54.891-23.718-22.696-57.435-22.696-32.196 0-56.033 15.957-23.837 15.956-35.554 45.152-1.478 2.956-1 6.717 0 6.957 4.478 12.055 4.479 5.097 11.435 5.097 5.718 0 9.815-2.978 4.098-2.978 6.337-8.695 7.761-19 23.142-29 15.38-10 36.38-10 22.522 0 35.544 11.641 13.021 11.641 13.021 31.402 0 21.478-11.098 38.576-11.097 17.098-42.532 44.054 11-9-5.783 4.544-16.782 13.543-55.5 44.783l-16.043 13.804q-1.479 1.239-5.718 12.674v11.761q0 6.956 5.098 11.934 5.098 4.979 12.055 4.979h137.956Z"/></svg>