<svg xmlns="http://www.w3.org/2000/svg" width="48" height="48" viewBox="0 -960 960 960"><path d="M231.147-115.935q-48.734 0-83.049-33.992-34.316-33.991-34.316-82.551V-610q0-14.424 9.872-24.245 9.871-9.82 24.369-9.82 14.499 0 24.194 9.82 9.696 9.821 9.696 24.245v377.522q0 20.575 14.469 34.494t35.014 13.919q20.755 0 34.549-13.919t13.794-34.494v-494.044q0-48.976 34.32-83.26 34.319-34.283 83.348-34.283 49.028 0 82.843 34.283 33.815 34.284 33.815 83.26v494.044q0 20.575 14.469 34.494t35.014 13.919q20.755 0 34.549-13.919t13.794-34.494v-494.044q0-48.976 34.32-83.26 34.32-34.283 83.348-34.283t82.843 34.283q33.816 34.284 33.816 83.26V-350q0 14.424-9.872 24.245-9.871 9.82-24.369 9.82-14.499 0-24.194-9.82-9.696-9.821-9.696-24.245v-376.522q0-20.475-13.899-34.944-13.898-14.469-34.444-14.469-20.755 0-35.119 14.469t-14.364 34.944v494.044q0 48.56-34.114 82.551-34.114 33.992-82.848 33.992t-83.049-33.992q-34.315-33.991-34.315-82.551v-494.044q0-20.475-13.899-34.944-13.898-14.469-34.444-14.469-20.755 0-35.119 14.469t-14.364 34.944v494.044q0 48.56-34.114 82.551-34.114 33.992-82.848 33.992Z"/></svg>