<svg xmlns="http://www.w3.org/2000/svg" width="48" height="48" viewBox="0 0 48 48"><path d="M23.95 44.3q-4.2 0-7.9-1.6T9.6 38.35Q6.85 35.6 5.25 31.9q-1.6-3.7-1.6-7.9t1.6-7.9q1.6-3.7 4.35-6.45 2.75-2.75 6.45-4.35 3.7-1.6 7.95-1.6 4.2 0 7.95 1.625t6.525 4.425q2.775 2.8 4.325 6.575 1.55 3.775 1.5 7.975-1.5-1.3-3.35-1.9-1.85-.6-3.8-.6-.9 0-1.775.15-.875.15-1.725.4-.35-2.25-1.6-3.675-1.25-1.425-3.35-1.425-2.5 0-3.75 1.925T23.7 24q0 2.1.65 3.725t1.95 2.425q-.2.7-.275 1.425-.075.725-.075 1.525 0 3.1 1.425 5.725Q28.8 41.45 31.6 42.8q-1.85.75-3.75 1.125t-3.9.375Zm3-15.9q-.7-.55-1.125-1.625Q25.4 25.7 25.4 24q0-2.35.85-3.7t2.45-1.35q1.45 0 2.3 1.1.85 1.1 1 3-1.7.9-2.975 2.275Q27.75 26.7 26.95 28.4ZM37.2 40.9q-3.25 0-5.55-2.3t-2.3-5.55q0-3.25 2.3-5.525 2.3-2.275 5.55-2.275 3.2 0 5.5 2.275T45 33.05q0 3.25-2.3 5.55t-5.5 2.3ZM13.4 30.45H22v-1.7h-5.9l-.05-.15q.9-.85 1.875-1.6.975-.75 1.425-1.2 1.4-1.2 1.975-2.275.575-1.075.575-2.425 0-1.45-1.1-2.65t-2.95-1.2q-1.75 0-2.9.875T13.3 20.3l1.55.65q.3-.8 1-1.4.7-.6 1.95-.6 1.1 0 1.775.55.675.55.675 1.6 0 1.1-.6 1.95-.6.85-2.1 2.2-1 .85-1.925 1.55-.925.7-2.225 1.8Z"/></svg>