<svg xmlns="http://www.w3.org/2000/svg" width="48" height="48" viewBox="0 -960 960 960"><path d="M832.152-439.109q-21.913 0-37.989-16.076-16.076-16.076-16.076-37.989v-259q0-22.674 16.076-38.37 16.076-15.695 37.989-15.695 22.674 0 38.37 15.695 15.696 15.696 15.696 38.37v259q0 21.913-15.696 37.989-15.696 16.076-38.37 16.076ZM318.283-113.37q-17.24 0-32.359-6.619-15.12-6.62-26.598-18.098l-153.63-161.674Q91.5-314.717 91.38-333.794q-.12-19.076 10.598-32.032 11.718-13.957 27.748-17.957t34.317 0L279-357.826V-773.37q0-27.195 17.837-44.913Q314.674-836 341.989-836q27.076 0 44.794 17.717Q404.5-800.565 404.5-773.37v236.174h36q11.239 0 19.12 1.5 7.88 1.5 17.119 6.5l160.609 80.566q25.196 12.717 36.956 36.434 11.761 23.718 7.761 51.153l-26.717 180q-5 29.956-28.837 48.815-23.837 18.858-54.033 18.858H318.283Z"/></svg>