<svg xmlns="http://www.w3.org/2000/svg" width="48" height="48" viewBox="0 -960 960 960"><path d="M546-272.022q0 21.649 3.978 41.999 3.979 20.349 11.935 39.828l-37.283 37.282q-9.478 9.957-21.076 14.315-11.597 4.359-23.554 4.359-11.957 0-23.554-4.359-11.598-4.358-21.076-14.315L48.913-549.174q-9.478-9.559-14.098-21.748-4.62-12.188-4.62-24.257 0-14.06 5.86-27.032 5.858-12.971 17.575-23.137 91.718-75.282 199.305-116.522Q360.522-803.109 480-803.109t227.065 41.239q107.587 41.24 199.305 116.522 11.717 10.077 17.576 22.933 5.858 12.856 5.858 26.972 0 12.117-4.619 24.382-4.62 12.266-13.859 21.887l-68.239 69.435q-16.761-5.761-33.402-9.158-16.641-3.397-33.642-4.125-3.587 0-6.934.598-3.348.598-6.696 1.555l99.304-101.696Q778.63-656.652 681.88-695.696 585.13-734.739 480-734.739t-201.88 39.043q-96.75 39.044-179.598 103.131l185.239 190.022q42.13-34.283 92.12-53.566Q425.87-475.391 480-475.391q37.261 0 73.554 9.38 36.294 9.381 69.337 27.098-36.804 31.761-56.848 74.924Q546-320.826 546-272.022Zm135.043 158q-16.521 0-27.782-11.026T642-152.426v-120.952q0-16.352 11.261-27.498t27.782-11.146H683v-39q0-33.585 24.124-57.793 24.124-24.207 58-24.207 33.876 0 57.876 24.207 24 24.208 24 57.793v39h2.196q16.282 0 27.543 11.146T888-273.378v120.952q0 16.352-11.261 27.378t-27.543 11.026H681.043Zm41.957-198h84v-39q0-18.76-11.5-30.38-11.5-11.62-30.5-11.62t-30.5 11.62q-11.5 11.62-11.5 30.38v39Z"/></svg>