<svg xmlns="http://www.w3.org/2000/svg" width="48" height="48" viewBox="0 -960 960 960"><path d="M222.152-114.022q-28.348 0-48.239-19.891t-19.891-48.239v-386.891q0-15.914 7.337-30.587 7.337-14.674 20.011-23.87l257.608-193.565Q457.13-830.739 480-830.739q22.87 0 41.022 13.674L778.63-623.5q12.674 9.196 20.131 23.87 7.457 14.673 7.457 30.587v386.891q0 28.348-20.011 48.239t-48.359 19.891H222.152ZM320-300h320v40q0 8 6 14t14 6q8 0 14-6t6-14v-140q0-33-23.5-56.5T600-480H477.152q-6.956 0-12.054 5.098T460-462.848V-340H320v-160q0-8-6-14t-14-6q-8 0-14 6t-6 14v240q0 8 6 14t14 6q8 0 14-6t6-14v-40Zm70-60q21 0 35.5-14.5T440-410q0-21-14.5-35.5T390-460q-21 0-35.5 14.5T340-410q0 21 14.5 35.5T390-360Z"/></svg>