<svg xmlns="http://www.w3.org/2000/svg" width="48" height="48" viewBox="0 -960 960 960"><path d="M222.152-114.022q-28.092 0-48.111-20.019t-20.019-48.111v-386.891q0-16.191 7.212-30.601T181.37-623.5l257.608-193.565q17.832-13.674 40.862-13.674t41.182 13.674L778.63-623.5q12.902 9.531 20.245 23.914 7.343 14.383 7.343 30.543v386.891q0 28.092-20.139 48.111t-48.231 20.019H222.152Zm0-68.13h515.696v-386.891L480-762.37 222.152-569.043v386.891ZM320-300h320v40q0 8 6 14t14 6q8 0 14-6t6-14v-140q0-33-23.5-56.5T600-480H477.152q-6.956 0-12.054 5.098T460-462.848V-340H320v-160q0-8-6-14t-14-6q-8 0-14 6t-6 14v240q0 8 6 14t14 6q8 0 14-6t6-14v-40Zm70-60q21 0 35.5-14.5T440-410q0-21-14.5-35.5T390-460q-21 0-35.5 14.5T340-410q0 21 14.5 35.5T390-360ZM222.152-182.152h515.696-515.696Z"/></svg>