<svg xmlns="http://www.w3.org/2000/svg" width="48" height="48" viewBox="0 -960 960 960"><path d="m809.805-238.304-68.37-68.131V-655.5q0-36.323-24.806-61.129-24.806-24.806-61.129-24.806H306.435l-59.522-59.522q4.761-2 11.261-4 6.5-2 12.5-3v-30.413q.956-21.55 16.411-36.493 15.454-14.942 37.533-14.942 21.599 0 37.773 14.823 16.174 14.822 16.174 38.047v27.13h202.87v-27.13q0-23.225 16.291-38.047 16.292-14.823 37.772-14.823 22.816 0 38.561 15.839 15.746 15.839 15.746 38.466v30.891q50.76 9.152 85.38 50.826t34.62 98.283v417.196ZM677.848-370.022 577.152-470.478h71.413q12.033.717 20.299 8.983 8.266 8.267 8.984 20.299v71.174ZM530.435-517.435Zm289.5 464.087L53.348-819.935l44.913-44.674L864.609-98.261l-44.674 44.913ZM464.478-471.435v62.87H312.87q-13.36 0-22.398-8.987-9.037-8.986-9.037-22.623 0-13.638 8.936-22.449 8.936-8.811 22.499-8.811h151.608Zm11.283 72.913ZM196.826-766.044l47.978 47.979q-12 11.421-19.119 27.542-7.12 16.122-7.12 35.023v516.935h522.87v-82.87l67.652 67.653v20.239q-1.674 26.424-21.331 44.766-19.658 18.342-46.321 18.342h-522.87q-28.104 0-48.117-20.013-20.013-20.013-20.013-48.117V-655.5q0-33.388 12.597-61.607 12.598-28.219 33.794-48.937Z"/></svg>