<svg xmlns="http://www.w3.org/2000/svg" width="48" height="48" viewBox="0 -960 960 960"><path d="M866.783-181.609 459.935-588.218l-13.283-119.739q-2.239-15.673 7.944-26.608t26.121-10.935h166.696v-147.13q0-13.946 9.465-23.408 9.466-9.462 23.458-9.462 13.903 0 23.24 9.462 9.337 9.462 9.337 23.408v147.13h175.044q15.314 0 25.809 11.168 10.495 11.169 8.256 26.375l-55.239 526.348ZM68.978-171.522q-14.114 0-24.296-10.226Q34.5-191.974 34.5-206.154q0-14.079 10.182-24.321 10.181-10.242 24.535-10.242h538.805q14.114 0 24.296 10.345 10.182 10.346 10.182 24.526 0 14.079-10.182 24.202-10.182 10.122-24.296 10.122H68.978Zm0 137.022q-14.114 0-24.296-10.174Q34.5-54.848 34.5-69.368q0-14.178 10.13-24.253 10.132-10.075 24.587-10.075h538.805q14.114 0 24.296 10.227Q642.5-83.243 642.5-69.063q0 14.42-10.182 24.491Q622.136-34.5 608.022-34.5H68.978Zm747.805-22.76L569.043-304l-500.478.957q-15.102 0-24.464-10.316-9.362-10.315-6.645-23.75 12.196-83.848 83.598-141.391 71.402-57.543 217.446-57.543 25.63 0 49.761 2.239 24.13 2.239 46.522 5.956v89.587L47-826.043q-9.24-9.306-8.978-22.251.26-12.945 9.766-22.423 9.506-9.479 22.576-9.479t22.31 9.479l768.783 769.543q9.239 9.522 9.358 21.979.12 12.456-9.436 21.934-9.556 9.479-22.433 9.479-12.876 0-22.163-9.479Z"/></svg>