<svg xmlns="http://www.w3.org/2000/svg" width="48" height="48" viewBox="0 -960 960 960"><path d="M401.435-721.435h158.087v-118.326H401.435v118.326ZM299.761-71.63q-17.806 0-29.999-12.25-12.193-12.25-12.193-30.142-26.863 0-45.803-18.94-18.94-18.94-18.94-45.603v-467.848q0-27.109 15.913-47.261t36.022-23.956l522.174 541.695q-.957 25.707-19.677 43.81-18.721 18.103-44.628 18.103 0 17.957-12.336 30.174Q677.957-71.63 660.12-71.63t-30.055-12.25q-12.217-12.25-12.217-30.142H342.152q0 17.957-12.25 30.174-12.25 12.218-30.141 12.218Zm25.935-226.241v55.719q7.282 1.195 14.304-4.152 7.022-5.348 12.646-30.071 5.624-24.723 9.337-76.021 3.713-51.299 4.908-141.168 2.152-14.754-6.734-26.779-8.887-12.025-23.7-14.178v-55.957l-10.761 292.607Zm131.195 12.435 2.87 43.284q13.971 2.391 24.833-21.152 10.862-23.544 13.254-131.456 2.391-13.444-1.218-26.928-3.608-13.485-12.695-25.203l-16.283-47.848-10.761 209.303ZM587.848-262l8 19.848q11.733 2.391 21.268-8.522 9.536-10.913 11.927-52.277 2.153-5.209 2.066-11.314-.087-6.104-4.677-12.843l-27.823-37.153L587.848-262ZM813.913-60.13 47-826.043q-9.24-9.338-9.359-22.387-.12-13.048 9.437-22.527 9.455-9.478 22.456-9.478t22.38 9.478l766.912 766.914q9.239 9.521 9.359 21.978.119 12.456-9.437 21.935-9.455 9.478-22.456 9.478t-22.379-9.478Zm-46.739-221.566-132.87-132.869v-160.891q0-9.156-6.976-16.133-6.976-6.976-16.132-6.976-9.435 0-16.392 6.976-6.956 6.977-6.956 16.133v114.195l-266.87-266.63h34v-121.87q0-15.19 10.633-25.823 10.634-10.634 25.824-10.634h178.087q15.19 0 25.823 10.634 10.633 10.633 10.633 25.823v128.326h96.652q26.664 0 45.604 18.94 18.94 18.941 18.94 45.604v375.195Z"/></svg>