<svg xmlns="http://www.w3.org/2000/svg" width="48" height="48" viewBox="0 -960 960 960"><path d="M301.391-742.783q-10.195-10.282-10.195-24.152 0-13.87 10.195-24.065l74.587-74.587q9.196-9.196 22.266-14.913 13.07-5.718 26.713-5.718h312.891q28.697 0 48.533 20.337 19.837 20.336 19.837 48.033v497.609q0 22.762-21.131 31.512-21.13 8.749-37.044-7.404L301.391-742.783ZM222.152-74.022q-27.599 0-47.865-20.265-20.265-20.266-20.265-47.865v-466.891q0-13.777 5.207-26.752 5.207-12.976 15.423-22.227l19.718-18.717L57.13-813.978q-9.239-9.348-9.358-21.892-.12-12.543 9.12-21.897 9.238-9.603 21.956-9.483 12.717.119 22.195 9.359L875.131-84.044q9.478 9.598 9.478 22.136 0 12.538-9.478 22.017-9.351 9.239-21.774 9.239-12.422 0-21.9-9.24l-178.522-178.52 43.674-43.913 109.609 109.151v11.979q0 27.318-20.337 47.246-20.336 19.928-48.033 19.928H222.152Z"/></svg>