<svg xmlns="http://www.w3.org/2000/svg" width="48" height="48" viewBox="0 96 960 960"><path d="M480.017 729.326q14.983 0 25.983-11.017t11-26q0-14.983-11.017-25.983t-26-11q-14.983 0-25.983 11.017t-11 26q0 14.983 11.017 25.983t26 11ZM455 606.522h50q0-13.787.5-24.318.5-10.53 5.773-18.769 3.878-8.077 11.217-15.158 7.34-7.081 24.988-23.603 22.522-19.761 32.261-39.022 9.739-19.261 9.739-45.482 0-45.192-29.098-71.105-29.097-25.913-77.025-25.913-38.594 0-69.475 21.049-30.88 21.049-42.119 54.864L417 437.152q7.522-19.282 25.402-32.761 17.881-13.478 41.014-13.478 25.823 0 40.704 14.239Q539 419.391 539 442.262q0 17.295-8.239 30.093-8.239 12.797-27.289 30.452Q486 518.695 476.5 529.212q-9.5 10.517-13.5 20.289-4 9.173-6 22.195-2 13.021-2 34.826ZM480 891.5q130.933-119.407 193.434-216.605 62.501-97.198 62.501-170.972 0-115.97-74.099-189.914-74.099-73.944-181.782-73.944t-181.836 73.959q-74.153 73.959-74.153 189.951 0 73.829 64.007 170.908Q352.078 771.961 480 891.5Zm0 89.761Q317.087 842.587 236.511 723.768q-80.576-118.819-80.576-219.799 0-151.845 97.719-241.94 97.719-90.094 226.324-90.094 128.605 0 226.346 90.094 97.741 90.095 97.741 241.94 0 100.98-80.576 219.799T480 981.261ZM480 504Z"/></svg>