<svg xmlns="http://www.w3.org/2000/svg" width="48" height="48" viewBox="0 96 960 960"><path d="M222.152 981.978q-27.599 0-47.865-20.265-20.265-20.266-20.265-47.865V238.152q0-27.697 20.265-48.033 20.266-20.337 47.865-20.337h332.891q14.145 0 26.964 5.718 12.819 5.717 22.015 14.913l181.565 181.565q9.196 9.196 14.913 22.015 5.718 12.819 5.718 26.964v492.891q0 27.599-20.337 47.865-20.336 20.265-48.033 20.265H222.152Zm326.696-591.891V238.152H222.152v675.696h515.696V424.152H582.913q-14.424 0-24.245-9.82-9.82-9.821-9.82-24.245ZM222.152 238.152v186-186 675.696-675.696Z"/></svg>