<svg xmlns="http://www.w3.org/2000/svg" width="48" height="48" viewBox="0 -960 960 960"><path d="M681.63-194.022H188.087q-14.674 0-24.37-9.695-9.695-9.696-9.695-24.37 0-14.674 9.695-24.37 9.696-9.695 24.37-9.695h43.782v-298.022q0-35.391 8.837-69.543 8.837-34.153 27.75-65.066l27.696 134.609h20.087L92.174-784q-9.478-9.478-9.359-21.957.12-12.478 9.598-21.956 9.478-9.239 21.957-9.239 12.478 0 21.956 9.239l690.457 691.696q9.478 9.478 9.478 21.956 0 12.479-9.478 21.957-9.479 9.478-21.957 9.478-12.478 0-21.956-9.478L681.63-194.022Zm46.74-130.434L308.326-743.5q22.761-22.044 49.544-36.685 26.782-14.641 58.065-21.163v-20.565q0-26.913 18.695-45.609 18.696-18.696 45.37-18.696 26.674 0 45.37 18.696 18.695 18.696 18.695 45.609v20.565q83.392 17.239 133.848 86.131 50.457 68.891 50.457 155.043v235.718ZM480.239-71.869q-33.956 0-58.054-24.098t-24.098-58.055h164.065q0 33.957-24.098 58.055-24.097 24.098-57.815 24.098Z"/></svg>