<svg xmlns="http://www.w3.org/2000/svg" width="48" height="48" viewBox="0 -960 960 960"><path d="M417.957-344.109H555q11.667 0 19.833-8.029 8.167-8.03 8.167-19.5 0-11.471-8.5-19.971t-19.5-8.5h-95.522l112.609-142.695q5.563-6.402 8.238-14.001Q583-564.404 583-572.913q0-19.437-10.064-29.501t-29.893-10.064H406q-11.667 0-19.833 8.029-8.167 8.03-8.167 19.5 0 11.471 8.5 19.971t19.5 8.5h94.761L389.152-413.783q-5.563 6.402-8.358 14.001Q378-392.183 378-383.674q0 19.437 10.064 29.501t29.893 10.064Zm-233.83 149.37q-14.768 0-24.589-9.871-9.821-9.871-9.821-24.489t9.821-24.314q9.821-9.696 24.484-9.696h51.847v-299.304q0-84.412 50.457-153.054 50.456-68.642 133.609-86.459v-27.704q0-24.794 17.45-41.05 17.451-16.255 42.38-16.255 24.929 0 42.615 16.255 17.685 16.256 17.685 41.05v27.704q83.392 17.817 134.348 86.459 50.957 68.642 50.957 153.054v299.304h50.848q14.394 0 24.349 9.871t9.955 24.49q0 14.618-9.955 24.313-9.955 9.696-24.349 9.696H184.127ZM480.12-74.022q-32.825 0-57.429-24.062t-24.604-57.851h164.065q0 33.957-24.153 57.935T480.12-74.022ZM304-263.109h353v-299.304q0-75-51-126.5t-125.5-51.5q-74.5 0-125.5 51.5t-51 126.5v299.304Zm177-238.652Z"/></svg>