<svg xmlns="http://www.w3.org/2000/svg" width="48" height="48" viewBox="0 -960 960 960"><path d="M183.782-194.739q-14.423 0-24.244-9.871t-9.821-24.489q0-14.618 9.821-24.314t24.244-9.696h52.087v-299.304q0-84.391 50.337-153.044 50.337-68.652 133.729-86.469v-27.704q0-24.794 17.45-41.05 17.451-16.255 42.38-16.255 24.929 0 42.615 16.255 17.685 16.256 17.685 41.05v27.741q24.522 4.73 50.5 17.277 25.979 12.547 44.739 29.308l-24.728 24.728-24.728 24.728q-21.761-17.282-49.65-25.924-27.889-8.641-56.589-8.641-74.609 0-125.109 51.5t-50.5 126.5v299.304h353V-402.5h68.37v139.391h50.848q14.394 0 24.349 9.871t9.955 24.49q0 14.618-9.955 24.313-9.955 9.696-24.349 9.696H183.782ZM480.12-74.022q-33.825 0-57.929-24.062t-24.104-57.851h164.065q0 33.957-24.153 57.935T480.12-74.022ZM799.825-440q-13.638 0-22.449-8.936-8.811-8.936-8.811-22.499v-97.13h-97.13q-13.563 0-22.499-8.987Q640-586.538 640-600.175q0-13.638 8.936-22.449 8.936-8.811 22.499-8.811h97.13v-97.13q0-13.563 8.987-22.499Q786.538-760 800.175-760q13.638 0 22.449 8.936 8.811 8.936 8.811 22.499v97.13h97.13q13.563 0 22.499 8.987Q960-613.462 960-599.825q0 13.638-8.936 22.449-8.936 8.811-22.499 8.811h-97.13v97.13q0 13.563-8.987 22.499Q813.462-440 799.825-440ZM481-501.761Z"/></svg>