<svg xmlns="http://www.w3.org/2000/svg" width="48" height="48" viewBox="0 -960 960 960"><path d="M480.24-71.87q-33.96 0-58.06-24.1-24.09-24.1-24.09-58.05h164.06q0 33.95-24.1 58.05-24.09 24.1-57.81 24.1Zm248.33-495.5h-97.14q-13.22 0-22.33-9.03-9.1-9.04-9.1-22.46 0-13.42 8.98-22.4 8.99-8.98 22.45-8.98h97.14v-97.13q0-13.23 9.03-22.33 9.03-9.1 22.58-9.1 13.54 0 22.4 9.1 8.85 9.1 8.85 22.33v97.13h97.14q13.22 0 22.33 9.15 9.1 9.16 9.1 22.58 0 13.42-8.98 22.28-8.99 8.86-22.45 8.86h-97.14v97.13q0 13.23-9.03 22.33-9.03 9.11-22.58 9.11-13.54 0-22.4-8.99-8.85-8.98-8.85-22.45v-97.13ZM188.09-194.02q-14.43 0-24.25-9.87t-9.82-24.37q0-14.5 9.82-24.2 9.82-9.69 24.25-9.69h43.78v-298.02q0-86.16 50.34-154.81 50.33-68.65 133.72-86.37v-20.56q0-26.92 18.7-45.61 18.7-18.7 45.37-18.7 26.67 0 45.37 18.7 18.7 18.69 18.7 45.61v29.89q11.28 2.76 23.18 6.52t22.42 8.76q8.37 5.96 8.54 16.62.16 10.66-7.12 18.95-25.05 28.76-38.69 65.04-13.64 36.28-13.64 77.33 0 77.41 46.32 136.04 46.31 58.63 116.99 77.91 10.67 3.24 18.48 9.98 7.82 6.74 7.82 18.41v94.31h43.54q14.43 0 24.37 9.87 9.94 9.87 9.94 24.37 0 14.5-9.94 24.19-9.94 9.7-24.37 9.7H188.09Z"/></svg>