<svg xmlns="http://www.w3.org/2000/svg" width="48" height="48" viewBox="0 -960 960 960"><path d="M112.63-74.02q-27.6 0-47.86-20.27-20.27-20.26-20.27-47.86v-497.07q0-14.67 9.7-24.37 9.69-9.69 24.37-9.69 14.67 0 24.36 9.69 9.7 9.7 9.7 24.37v497.07H645q14.67 0 24.37 9.69 9.7 9.7 9.7 24.37 0 14.68-9.7 24.37-9.7 9.7-24.37 9.7H112.63Zm125.74-128.13q-26.42 0-46.08-19.54-19.66-19.54-19.66-45.96v-384.11q0-22.35 10.84-41.76 10.83-19.41 27.46-29.37l278.22-167.02q11.96-7.48 25.65-4.5 13.7 2.98 20.94 14.93 7.24 12.2 3.88 25.77-3.36 13.58-15.55 20.82l-277.9 169.98 297.9 193.98 292.82-190.59q12.68-8.48 26.23-7.86 13.55.62 25.75 6.46 12.2 5.83 19.41 17.11 7.22 11.28 7.22 27.03v349.13q0 26.42-19.59 45.96T850-202.15H238.37Zm298.65-441.72 163-163q9-9 21-8.5t21 9.5q9 9 9 21.5t-9 21.5L561.13-581.98q-10.28 10.2-24.15 10.2t-24.07-10.2l-70.89-70.89q-9-9-8.5-21.5t9.5-21.5q9-9 21.5-9t21.5 9l51 52Z"/></svg>