<svg xmlns="http://www.w3.org/2000/svg" width="48" height="48" viewBox="0 -960 960 960"><path d="M184.127-194.739q-15.018 0-24.714-9.696-9.696-9.695-9.696-24.489 0-14.793 9.696-24.489 9.696-9.696 24.609-9.696h51.847v-299.304q0-84.412 50.457-153.054 50.456-68.642 133.609-86.459v-27.704q0-24.894 17.636-41.099 17.635-16.206 42.429-16.206t42.429 16.206q17.636 16.205 17.636 41.099v27.704q83.392 17.817 134.348 86.459 50.957 68.642 50.957 153.054v299.304h50.848q14.644 0 24.474 9.696t9.83 24.489q0 14.794-9.83 24.489-9.83 9.696-24.474 9.696H184.127ZM480.12-74.022q-32.837 0-57.435-24.006-24.598-24.007-24.598-57.907h164.065q0 33.957-24.098 57.935-24.097 23.978-57.934 23.978Z"/></svg>