<svg xmlns="http://www.w3.org/2000/svg" width="48" height="48" viewBox="0 -960 960 960"><path d="M227.98-90.43q-57.25 0-97.4-40.13-40.15-40.12-40.15-97.35 0-57.22 40.13-97.54 40.12-40.31 97.35-40.31 57.22 0 97.54 40.32 40.31 40.33 40.31 97.46 0 21.3-6.52 41.31-6.52 20.02-18.57 36.78l-.24-21.78q32.77 14.76 68.29 22.14 35.52 7.38 71.2 7.38 131.58 0 227.8-87.09 96.21-87.09 108.41-215.69 2.48-14.68 11.85-24.87 9.38-10.2 23.76-10.2 14.47 0 24.35 10.32 9.89 10.31 8.41 24.75-13.2 156.19-128.63 263.55Q640.43-74.02 479.9-74.02q-45.74 0-90.08-10.26-44.34-10.26-86.34-30.02-16.99 11.93-35.92 17.9-18.93 5.97-39.58 5.97Zm252.07-252.03q-57 0-97.3-40.22-40.29-40.23-40.29-97.23 0-57 40.22-97.44 40.23-40.43 97.23-40.43 57 0 97.44 40.36 40.43 40.37 40.43 97.37 0 57-40.36 97.3-40.37 40.29-97.37 40.29Zm.03-475.39q-131.58 0-227.8 87.09-96.21 87.09-108.41 215.69-2.48 14.68-11.85 24.87-9.38 10.2-23.76 10.2-14.47 0-24.35-10.32-9.89-10.31-8.41-24.75 13.2-156.19 128.63-263.67Q319.57-886.22 480.1-886.22q45.74 0 90.08 10.38 44.34 10.38 86.34 29.91 16.96-11.2 36.02-17.04 19.06-5.83 39.72-5.83 56.6 0 96.57 40.03 39.97 40.04 39.97 96.73 0 56.69-40 97.13-40 40.43-96.84 40.43-56.85 0-97.17-40.32-40.31-40.32-40.31-97.46 0-21.21 6.52-41.15 6.52-19.94 18.57-36.94v22.02q-32.77-14.76-68.29-22.14-35.52-7.38-71.2-7.38Z"/></svg>