<svg xmlns="http://www.w3.org/2000/svg" width="48" height="48" viewBox="0 96 960 960"><path d="M630.848 860.826q12 0 21-8.88 9-8.881 9-21.12 0-12-9-21t-21-9q-12 0-21 9t-9 21q0 12.239 9 21.12 9 8.88 21 8.88Zm100 0q12 0 21-8.88 9-8.881 9-21.12 0-12-9-21t-21-9q-12 0-21 9t-9 21q0 12.239 9 21.12 9 8.88 21 8.88Zm100 0q12 0 21-8.88 9-8.881 9-21.12 0-12-9-21t-21-9q-12 0-21 9t-9 21q0 12.239 9 21.12 9 8.88 21 8.88Zm-100.5 158.004q-77.5 0-132.5-55.384-55-55.381-55-131.62 0-78.196 54.99-133.598 54.99-55.402 133.01-55.402 77 0 132.5 55.402t55.5 133.598q0 76.239-55.5 131.62-55.5 55.384-133 55.384Zm-418.196-580.2h335.696q12.75 0 21.375-8.675t8.625-21.5q0-12.825-8.625-21.325t-21.375-8.5H312.152q-12.75 0-21.375 8.676-8.625 8.675-8.625 21.5 0 12.824 8.625 21.324 8.625 8.5 21.375 8.5Zm196.891 504.066H182.152q-28.104 0-48.117-20.084-20.013-20.083-20.013-48.286V278.63q0-28.103 20.013-48.117 20.013-20.013 48.117-20.013h595.696q28.202 0 48.286 20.013 20.084 20.014 20.084 48.117v335.218q-26.674-15.391-55.727-22.587-29.052-7.196-59.643-7.196-14 0-27 1.46-13 1.461-26 4.301v-10q.478-13.435-8.522-23.391-9-9.957-21.478-9.957H312.152q-12.75 0-21.375 8.676-8.625 8.675-8.625 21.5 0 12.824 8.625 21.324 8.625 8.5 21.375 8.5h313.761Q589.674 624 561.054 651.902q-28.619 27.902-46.858 62.424H312.152q-12.75 0-21.375 8.675-8.625 8.676-8.625 21.5 0 12.825 8.625 21.325t21.375 8.5h177.891q-3.717 14.435-5.456 28.87-1.739 14.434-1.739 29.869 0 29.52 6.491 56.426 6.492 26.906 19.704 53.205Z"/></svg>