<svg xmlns="http://www.w3.org/2000/svg" width="48" height="48" viewBox="0 96 960 960"><path d="M576.652 526.131v89.978q0 13.674 9.965 23.13 9.965 9.457 23.391 9.457 14.427 0 23.883-9.397 9.457-9.397 9.457-24.305V446.717q0-14.674-9.696-24.369-9.695-9.696-24.369-9.696H440.006q-13.789 0-23.245 9.965-9.457 9.965-9.457 23.391 0 14.427 9.397 23.883 9.397 9.457 24.19 9.457h87.978l-207.26 207.261q-9.196 9.142-9.196 22.984 0 13.842 10.196 23.798 8.837 10.196 22.891 10.196 14.054 0 23.891-10.196l207.261-207.26ZM480.12 981.978q-86.316 0-160.508-30.998-74.193-30.998-128.893-85.699-54.701-54.7-85.699-128.893-30.998-74.192-30.998-160.508 0-85.315 30.941-159.403 30.942-74.088 85.699-128.893 54.757-54.805 128.95-86.303 74.192-31.499 160.508-31.499 85.315 0 159.416 31.468 74.102 31.467 128.916 86.268 54.815 54.801 86.29 128.883Q886.218 490.484 886.218 576q0 86.196-31.499 160.388-31.498 74.193-86.303 128.95-54.805 54.757-128.893 85.699-74.088 30.941-159.403 30.941ZM490 566Zm-10.044 347.848q144.087 0 240.99-96.741 96.902-96.741 96.902-241.065 0-144.325-96.859-241.107-96.858-96.783-240.945-96.783t-240.99 96.741q-96.902 96.741-96.902 241.065 0 144.325 96.859 241.107 96.858 96.783 240.945 96.783Z"/></svg>