<svg xmlns="http://www.w3.org/2000/svg" width="48" height="48" viewBox="0 96 960 960"><path d="M480 733.652q5.478 0 9.576-2.239 4.098-2.239 6.576-7.957l39.802-91.502 91.502-40.041q5.718-2.478 8.077-6.456 2.358-3.979 2.358-9.457 0-5.478-2.358-9.576-2.359-4.098-8.077-6.576l-91.502-39.802-39.802-91.502q-2.478-5.718-6.576-8.077-4.098-2.358-9.576-2.358-5.478 0-9.457 2.358-3.978 2.359-6.456 8.077l-40.041 91.502-91.502 39.802q-5.718 2.478-7.957 6.576-2.239 4.098-2.239 9.576 0 5.478 2.239 9.457 2.239 3.978 7.957 6.456l91.558 39.985 39.985 91.558q2.478 5.718 6.456 7.957 3.979 2.239 9.457 2.239ZM182.152 941.978q-27.599 0-47.865-20.265-20.265-20.266-20.265-47.865V278.152q0-27.697 20.265-48.033 20.266-20.337 47.865-20.337h595.696q27.697 0 48.033 20.337 20.337 20.336 20.337 48.033v595.696q0 27.599-20.337 47.865-20.336 20.265-48.033 20.265H182.152Zm0-68.13h595.696V278.152H182.152v595.696Zm0 0V278.152v595.696Z"/></svg>