<svg xmlns="http://www.w3.org/2000/svg" width="48" height="48" viewBox="0 96 960 960"><path d="M441.565 938.63q-17.239 0-32.359-6.619-15.119-6.62-26.597-18.098L228.978 752.239q-14.196-14.956-14.315-34.033-.12-19.076 10.598-32.032 11.717-13.957 27.793-17.957t34.272 0l114.957 25.957V278.63q0-27.195 17.837-44.913Q437.957 216 465.152 216q27.196 0 44.913 17.717 17.718 17.718 17.718 44.913v236.174h36q11.239 0 19.119 1.5 7.881 1.5 17.12 6.5L760.63 603.37q25.196 12.717 36.957 36.434 11.761 23.718 7.761 51.153l-26.718 180q-5 29.956-28.836 48.815-23.837 18.858-54.033 18.858H441.565Z"/></svg>