<svg xmlns="http://www.w3.org/2000/svg" width="48" height="48" viewBox="0 -960 960 960"><path d="M419.891-223.022H173.413q-20.391 0-30.468-18.152-10.076-18.152 2.12-35.304l152.696-220.544h-36.522q-18.622 0-27.55-16.119-8.928-16.12 2.311-31.359l215.652-306q5.024-7.074 12.799-10.994 7.774-3.919 15.549-3.919 7.775 0 15.549 3.919 7.775 3.92 12.799 10.994l215.891 306q11 15.239 2.072 31.359-8.928 16.119-27.55 16.119h-35.522l151.696 220.544q12.196 17.152 2.12 35.304-10.077 18.152-30.468 18.152H541.109v114.935q0 14.424-9.696 24.245-9.696 9.82-23.888 9.82h-53.811q-14.431 0-24.127-9.82-9.696-9.821-9.696-24.245v-114.935Z"/></svg>