<svg xmlns="http://www.w3.org/2000/svg" width="48" height="48" viewBox="0 -960 960 960"><path d="M440-219.043Zm-291.913 68.13q-14.424 0-24.245-9.821-9.82-9.82-9.82-24.244v-66.392q0-39.507 19.915-67.992 19.915-28.486 51.433-43.268 67.478-30.24 129.688-45.359 62.21-15.12 124.942-15.12 26.299 0 51.098 2.5t51.098 7.5q-2 17.964.337 35.569 2.337 17.605 7.25 33.518-27.196-5.239-54.399-7.978-27.204-2.739-55.384-2.739-56.761 0-110.022 11.761t-115.757 41.006q-14.069 6.932-23.069 21.316-9 14.384-9 30.243v31.37H642.87v68.13H148.087ZM751.63-20.891l-38.565-38.565q-5.478-5.205-7.837-11.12-2.358-5.916-2.358-12.51v-175.42Q658.152-272 629.674-309.183q-28.478-37.182-28.478-86.08 0-59.085 41.631-100.802 41.632-41.718 100.753-41.718t100.879 41.795q41.759 41.795 41.759 100.92 0 45.872-25.859 81.47t-65.576 50.837l38.282 38.283q5.239 5.223 5.239 12.427 0 7.203-5.239 12.442l-36.326 36.326q-5.478 5.159-5.478 12.275 0 7.117 5.478 12.595l36.326 36.087q5.239 5.223 5.239 12.427 0 7.203-5.239 12.443L776.5-20.891q-5.223 5.478-12.427 5.478-7.203 0-12.443-5.478Zm-8.043-354.022q17.138 0 28.928-11.762 11.789-11.763 11.789-28.859 0-17.096-11.789-28.955-11.79-11.859-28.928-11.859-17.137 0-28.927 11.859t-11.79 28.978q0 17.12 11.79 28.859t28.927 11.739ZM439.885-503.109q-65.515 0-110.689-45.24-45.174-45.241-45.174-110.685 0-65.445 45.169-110.738 45.17-45.294 110.685-45.294t110.928 45.34q45.414 45.34 45.414 110.687 0 65.447-45.409 110.688-45.409 45.242-110.924 45.242Zm-.022-68.13q36.18 0 62.083-25.765 25.902-25.765 25.902-61.946t-25.765-62.083q-25.765-25.902-61.946-25.902-36.18 0-62.083 25.857-25.902 25.857-25.902 61.943 0 36.184 25.765 62.04t61.946 25.856Zm.137-87.848Z"/></svg>