<svg xmlns="http://www.w3.org/2000/svg" width="48" height="48" viewBox="0 96 960 960"><path d="M593.131 867q-28.203 0-48.287-20.083-20.083-20.084-20.083-48.287V353.37q0-28.203 20.083-48.287Q564.928 285 593.131 285H702.63q28.203 0 48.287 20.083Q771 325.167 771 353.37v445.26q0 28.203-20.083 48.287Q730.833 867 702.63 867H593.131Zm-335.761 0q-28.203 0-48.287-20.083Q189 826.833 189 798.63V353.37q0-28.203 20.083-48.287Q229.167 285 257.37 285h109.499q28.203 0 48.287 20.083 20.083 20.084 20.083 48.287v445.26q0 28.203-20.083 48.287Q395.072 867 366.869 867H257.37Z"/></svg>