<svg xmlns="http://www.w3.org/2000/svg" width="48" height="48" viewBox="0 96 960 960"><path d="M286.706 871.935h386.185l131.087-391.261L480 255.022 156.022 480.674l130.684 391.261Zm-.836 68.13q-22.131 0-40.153-12.736-18.021-12.736-24.739-33.764l-130.087-391.5q-6.956-21.391.225-42.868 7.181-21.476 26.123-34.458l324.217-226.652q9.105-5.717 18.819-9.076 9.715-3.359 19.799-3.359 10.085 0 19.799 3.359 9.714 3.359 18.91 9.076l323.978 226.652q18.942 12.982 26.123 34.458 7.181 21.477.225 42.868l-130.087 391.5q-6.718 21.028-24.739 33.764-18.022 12.736-40.153 12.736H285.87ZM480 563.239Z"/></svg>