<svg xmlns="http://www.w3.org/2000/svg" width="48" height="48" viewBox="0 -960 960 960"><path d="M733.63-74.891q-22.521-6.522-41.043-17.902-18.522-11.381-32.043-23.902l-16.044 7.761q-11.717 5.239-23.554 1.5-11.837-3.74-19.316-14.696l-4.239-6.718q-7.478-11.478-5.358-23.934 2.119-12.457 12.837-20.935L619.152-185q-5-18.282-5-40.304 0-22.022 5-40.544L604.87-277.13q-10.479-8.478-12.718-21.315-2.239-12.837 5.239-24.555l4.239-6.717q7.479-11.478 19.696-14.837 12.218-3.359 23.935 1.88l15.283 7.761q13.521-11.522 32.043-22.782 18.522-11.261 41.043-18.022l1.761-21.044q2-11.717 11.218-20.195 9.217-8.479 20.935-8.479h7.956q11.718 0 20.435 7.859 8.717 7.859 10.717 19.576l3 22.283q22.283 6.761 40.805 18.022 18.521 11.26 32.043 22.782l15.283-7.522q11.717-5.478 23.815-2.119 12.098 3.359 19.337 14.837l4.717 6.717q7.479 11.718 5.239 24.674-2.239 12.957-12.956 21.196l-14.283 11.282q5.239 18.522 5.239 40.544T923.652-185l14.283 11.283q10.717 8.478 12.956 21.054 2.24 12.576-5.239 24.055l-4.239 7.478q-7.478 10.956-19.315 14.196-11.837 3.239-23.554-2.24l-16.044-7.521q-13.522 12.521-32.043 23.902-18.522 11.38-40.805 17.902l-3 21.044q-2 11.956-10.717 19.934-8.717 7.979-20.435 7.979h-7.956q-11.957 0-21.055-8.36-9.098-8.358-11.098-20.314l-1.761-20.283ZM771.022-125q43.282 0 71.924-28.761 28.641-28.76 28.641-72.043t-28.641-71.924q-28.642-28.641-71.924-28.641-43.283 0-72.044 28.641-28.76 28.641-28.76 71.924 0 43.283 28.76 72.043Q727.739-125 771.022-125ZM155.826-74.022q-22.869 0-31.326-21.01-8.457-21.011 7.696-37.164l695.847-695.847q15.914-15.914 37.044-7.457 21.131 8.457 21.131 31.326v284.478q0 13.674-10.196 23.37-10.196 9.696-24.109 9.696-13.674 0-23.87-9.696-10.195-9.696-10.195-23.609V-722.13L237.87-142.152h265.347q13.674 0 23.37 10.195 9.696 10.196 9.696 23.87 0 14.674-9.696 24.37-9.696 9.695-23.37 9.695H155.826Zm82.044-68.13L817.848-722.13 527.859-432.141 237.87-142.152Z"/></svg>