<svg xmlns="http://www.w3.org/2000/svg" width="48" height="48" viewBox="0 -960 960 960"><path d="M369.32-529.4q-45.3-45.3-45.3-110.81t45.3-110.68q45.29-45.18 110.68-45.18 65.39 0 110.8 45.18 45.42 45.17 45.42 110.68T590.8-529.4q-45.41 45.29-110.8 45.29T369.32-529.4Zm-215.3 310.36v-32.33q0-36.43 18.96-66.37 18.95-29.93 52.39-44.89 60.48-27.24 124.31-43.86 63.84-16.62 130.32-16.62 66.48 0 129.82 17 63.33 17 123.81 43.48 33.67 14.48 53.13 44.53 19.46 30.06 19.46 66.73v32.33q0 28.34-19.89 48.24-19.9 19.89-48.48 19.89h-515.7q-28.58 0-48.36-19.89-19.77-19.9-19.77-48.24Zm388.43-358.6q25.4-25.4 25.4-62.45 0-37.04-25.4-62.44-25.41-25.4-62.45-25.4-37.04 0-62.45 25.4-25.4 25.4-25.4 62.44 0 37.05 25.4 62.45 25.41 25.4 62.45 25.4 37.04 0 62.45-25.4Zm98.98 250.38v108.22h96.42v-31.37q0-16.76-9-30.14-9-13.38-24-21.38-16.05-7.53-31.59-13.55-15.54-6.02-31.83-11.78Zm-258.08-18.2v58.57h193.54v-58.57q-24.52-4.76-48.18-7.02-23.67-2.26-48.71-2.26t-48.71 2.26q-23.66 2.26-47.94 7.02Zm-161.2 126.42h96.42V-328.5q-16.29 5.76-32.33 12.4-16.04 6.64-32.09 14.17-15 8-23.5 21.38-8.5 13.38-8.5 30.14v31.37Zm419.28 0H318.57h322.86ZM480-640.09Z"/></svg>