<svg xmlns="http://www.w3.org/2000/svg" width="48" height="48" viewBox="0 -960 960 960"><path d="M107.13-32.83q-14.2 0-23.65-9.45-9.46-9.46-9.46-23.77 0-14.32 9.46-23.78 9.45-9.45 23.65-9.45h745.74q14.2 0 23.77 9.45 9.58 9.46 9.58 23.78 0 14.31-9.58 23.77-9.57 9.45-23.77 9.45H107.13Zm80.72-126.45q-14.68 0-24.37-9.7-9.7-9.69-9.7-24.37v-180.48q-40.43-93.15-55.67-149.65-15.24-56.5-15.24-112.78 0-56.33 14.26-121.76 14.26-65.44 40.98-124.35 10.48-22.72 27.69-34.93 17.22-12.22 38.42-12.22 27.24 0 41.48 18.1 14.23 18.09 14.95 54.05l1.92 135.07q.95 43.52 18.43 81.92t47.1 66.8q29.62 28.41 68.5 44.55 38.88 16.14 83.4 16.14 82.91 0 142.79 11.52 59.88 11.52 99.64 34.04 42.4 23.72 62.97 61.13 20.58 37.42 20.58 87.81v125.04q0 14.68-9.7 24.37-9.69 9.7-24.37 9.7H392.15v-42.26q0-38.72 26.6-66.46 26.6-27.74 65.32-27.74h108.76q13.47 0 22.45-8.86 8.98-8.86 8.98-22.57 0-13.72-8.86-22.58-8.86-8.86-22.57-8.86H484.07q-64.92 0-109.85 46.08-44.94 46.07-44.94 110.99v42.26H187.85Zm176.88-456.45q-47.84-47.84-47.84-115.39t47.84-115.39q47.84-47.84 115.27-47.84 67.43 0 115.39 47.84 47.96 47.84 47.96 115.39t-47.96 115.39Q547.43-567.89 480-567.89t-115.27-47.84Z"/></svg>