<svg xmlns="http://www.w3.org/2000/svg" width="48" height="48" viewBox="0 -960 960 960"><path d="M480-888.848q44.957 0 76.294 33.478 31.336 33.479 31.336 78.435v20.435q76.957 30.478 127.772 103.413Q766.218-580.152 766.218-490v121.304q0 22.87-21.131 31.326-21.13 8.457-37.044-7.695L392.522-660.348q-9.196-9.196-14.674-22.011t-5.478-26.011v-67.848q0-44.956 31.217-78.793T480-888.848Zm0 62.63q-20 0-32.5 15.12t-12.5 34.88v2q6-1 21.5-1.5t23.5-.5q9 0 24.5.5t20.5 1.5v-2q0-19.76-12.5-34.88-12.5-15.12-32.5-15.12Zm323.065 750.24L676.63-201.652h89.588v59.5q0 27.587-20.392 47.859-20.391 20.271-47.978 20.271H262.152q-27.587 0-47.859-20.271-20.271-20.272-20.271-47.859V-490q0-39.913 10.978-79.37 10.978-39.456 32.456-71.456L91.935-785.87q-9.479-9.478-9.359-22.456.12-12.978 9.598-22.457 9.478-9.717 22.337-9.717t22.576 9.717l710.891 710.892q9.479 9.478 9.359 22.076-.119 12.598-9.359 21.837Q838.5-66.5 825.402-66.5t-22.337-9.478ZM400-479.761h-78.804q-12.761.957-20.902 9.576-8.142 8.62-8.142 21.381 0 13.478 8.978 22.456 8.979 8.978 22.457 8.978h138.565L400-479.761Z"/></svg>