<svg xmlns="http://www.w3.org/2000/svg" width="48" height="48" viewBox="0 -960 960 960"><path d="M480-484.109q-65.391 0-110.685-45.293-45.293-45.294-45.293-110.685 0-65.631 45.293-110.805Q414.609-796.066 480-796.066t110.804 45.174q45.414 45.174 45.414 110.805 0 65.391-45.414 110.685Q545.391-484.109 480-484.109Zm161.435 333.196v-246.196q23.478 7 46.217 15.5 22.739 8.5 45.978 18.979 33.674 14.478 53.131 44.532 19.457 30.055 19.457 66.728v32.327q0 28.347-19.892 48.239-19.891 19.891-48.478 19.891h-96.413ZM383.348-286.891v-126.696q24.282-4.522 47.946-7.022 23.663-2.5 48.706-2.5 25.043 0 48.706 2.381 23.664 2.38 48.185 7.141v126.696H383.348Zm-229.326 67.848v-32.327q0-36.434 18.956-66.369 18.957-29.935 52.392-44.891 23.239-10.24 46.478-18.859 23.239-8.62 46.717-16.62v247.196h-96.413q-28.587 0-48.359-19.891-19.771-19.892-19.771-48.239Z"/></svg>