<svg xmlns="http://www.w3.org/2000/svg" width="48" height="48" viewBox="0 -960 960 960"><path d="M764.607-407.652q-13.637 0-22.448-9.038-8.811-9.037-8.811-22.397v-97.131h-97.13q-13.564 0-22.499-9.087-8.936-9.088-8.936-22.523 0-13.637 8.936-22.448 8.935-8.811 22.499-8.811h97.13v-97.131q0-13.563 8.986-22.498 8.987-8.936 22.505-8.936 13.518 0 22.448 8.936 8.931 8.935 8.931 22.498v97.131h97.13q13.36 0 22.397 8.986 9.038 8.986 9.038 22.505 0 13.518-9.038 22.448-9.037 8.93-22.397 8.93h-97.13v97.131q0 13.36-9.088 22.397-9.088 9.038-22.523 9.038Zm-403.411-76.457q-68.798 0-112.508-43.625-43.71-43.625-43.71-112.305 0-68.679 43.675-112.353 43.675-43.674 112.424-43.674 68.749 0 112.423 43.674 43.674 43.674 43.674 112.353 0 68.68-43.64 112.305-43.639 43.625-112.338 43.625ZM69.043-150.913q-14.424 0-24.244-9.821-9.82-9.82-9.82-24.244v-66.297q0-36.841 19.002-66.607 19.004-29.767 52.345-44.748 75.478-33.24 134.524-46.859 59.046-13.62 120.184-13.62 61.118 0 120.336 13.62 59.217 13.619 133.456 46.859 33.517 15.675 52.933 44.959 19.415 29.285 19.415 66.301v66.392q0 14.424-9.821 24.244-9.82 9.821-24.244 9.821H69.043Zm34.305-68.13h515.695v-31.37q0-15.859-8.119-30.243-8.12-14.384-24.881-21.279Q517-335.217 468.099-344.978q-48.901-9.761-107.022-9.761-57.642 0-106.903 10.261t-118.826 42.543q-15.239 6.895-23.62 21.279-8.38 14.384-8.38 30.243v31.37Zm257.72-333.196q38.171 0 63.073-24.866 24.902-24.865 24.902-62.974 0-38.207-24.865-63.031-24.865-24.825-62.974-24.825-38.291 0-63.074 24.836-24.782 24.835-24.782 62.902 0 38.165 24.774 63.061 24.774 24.897 62.946 24.897Zm.128-87.848Zm0 285.348Z"/></svg>