<svg xmlns="http://www.w3.org/2000/svg" width="48" height="48" viewBox="0 -960 960 960"><path d="M479.848-48.174q-6.556 0-12.398-2.358-5.841-2.36-11.32-7.838l-99.521-99.521H182.152q-27.599 0-47.865-20.336-20.265-20.336-20.265-48.034v-595.696q0-28.097 20.265-48.114 20.266-20.016 47.865-20.016h595.696q27.697 0 48.033 20.016 20.337 20.017 20.337 48.114v595.696q0 27.698-20.337 48.034-20.336 20.336-48.033 20.336H603.63L503.87-58.37q-5.517 5.479-11.492 7.837-5.975 2.36-12.53 2.36ZM182.152-267.848q60-54.043 134.821-87.707 74.82-33.663 162.923-33.663 88.104 0 163.028 33.424 74.924 33.424 134.924 87.707v-553.87H182.152v554.109Zm299.819-193.674q58.746 0 99.105-40.329 40.359-40.33 40.359-99.077 0-58.746-40.33-98.985t-99.076-40.239q-58.746 0-99.105 40.21t-40.359 98.956q0 58.747 40.33 99.106 40.33 40.358 99.076 40.358Zm-.055-62.63q-31.938 0-54.209-22.406-22.272-22.405-22.272-54.413 0-32.007 22.356-54.279 22.356-22.272 54.293-22.272 31.938 0 54.209 22.356 22.272 22.357 22.272 54.294 0 31.937-22.356 54.328-22.356 22.392-54.293 22.392ZM480-135.218l91.043-91.043H725v-7.565q-54-45.881-115.652-69.321-61.652-23.44-129.348-23.44-67 0-129 23.44t-116 69.321v7.565h154.196L480-135.218Zm0-409.565Z"/></svg>