<svg xmlns="http://www.w3.org/2000/svg" width="48" height="48" viewBox="0 96 960 960"><path d="M809.5 561.587q-11.478 0-20.337-8.239t-11.098-20.957q-14-102.282-87.141-175.424-73.141-73.141-175.424-87.38-12.717-2-20.956-10.978-8.24-8.979-8.24-21.696 0-13.478 9.359-22.718 9.359-9.239 22.837-7.239 127.239 14.479 217.478 104.837 90.24 90.359 104.957 217.598 2 13.478-7.359 22.837-9.358 9.359-24.076 9.359Zm-174.87 0q-10.239 0-19.217-6.859-8.978-6.859-12.456-18.337-9.761-33.087-34.066-57.391-24.304-24.304-57.391-34.065-11.478-3.718-18.337-11.696t-6.859-19.217q0-15.718 10.479-25.077 10.478-9.358 25.195-5.88 52.805 13.239 91.207 51.522 38.402 38.282 52.641 91.326 3.239 14.478-6.119 25.076-9.359 10.598-25.077 10.598ZM794.043 941.5q-122.956 0-244.652-60.478-121.695-60.478-218.532-157.315-96.837-96.837-157.196-218.533-60.359-121.696-60.359-244.652 0-21.392 14.555-36.066 14.554-14.674 36.184-14.674h139.522q18.065 0 30.957 11.055 12.891 11.054 16.848 30.641l26.521 122.174q2.718 17.109-.5 30.522-3.217 13.413-13.13 22.848l-101.196 99.565Q317.63 616.239 384.5 682.489q66.87 66.25 150.804 112.337l96.435-98.717q11.913-12.674 26.707-17.653 14.793-4.978 30.663-1.261l113.978 25.522q18.826 4.196 30.38 18.109 11.555 13.913 11.555 33.5v136.196q0 21.63-14.794 36.304-14.793 14.674-36.185 14.674Z"/></svg>