<svg xmlns="http://www.w3.org/2000/svg" width="48" height="48" viewBox="0 -960 960 960"><path d="M886.218-643.782v377.13q0 11.934-5.837 19.761-5.837 7.826-14.854 11.065-9.016 3.478-18.272 2.978-9.255-.5-18.212-8.696L534.456-516.609q-7.512-7.162-12.06-17.043-4.548-9.881-4.548-21.457v-88.673q0-14.424 9.82-24.245 9.821-9.821 24.245-9.821h300q14.394 0 24.349 9.821 9.956 9.821 9.956 24.245Zm-334.305 489.76q-14.424 0-24.245-9.82-9.82-9.821-9.82-24.245v-165.239L222.152-648.022v395.87h186.63q20.544 0 34.805 14.312 14.261 14.313 14.261 34.93 0 20.617-14.261 34.752-14.261 14.136-34.805 14.136H123.087q-20.544 0-34.805-14.362-14.26-14.362-14.26-35.358 0-20.238 14.081-34.324 14.082-14.086 34.506-14.086h31.413v-464.239L86.174-784q-9.478-9.478-8.859-22.457.62-12.978 10.098-22.337 9.478-9.358 21.957-9.358 12.478 0 21.956 9.239l717.087 716.326q9.478 9.478 8.978 22.337t-9.978 22.337q-9.659 9.718-22.166 9.718-12.508 0-21.747-9.718l-86.348-86.109H551.913Zm260-583.826H315.891q-17.152 0-25.608-10.677-8.457-10.677-8.457-23.25 0-12.812 8.457-23.627 8.456-10.816 25.608-10.816h496.022q14.394 0 24.349 10.012 9.956 10.012 9.956 24.489 0 14.478-9.956 24.174-9.955 9.695-24.349 9.695Z"/></svg>