<svg xmlns="http://www.w3.org/2000/svg" width="48" height="48" viewBox="0 96 960 960"><path d="M815.261 762.239q-8.478-8.239-8.739-20.859-.261-12.619 7.739-22.858 23.761-30.761 37.261-67.606 13.5-36.844 13.5-75.916 0-39.072-13.5-75.916-13.5-36.845-39.261-65.845-10.239-11-10.239-23.24 0-12.241 9.239-21.413 9.761-9.825 23.022-9.825t21.575 9.796q33.08 39.094 51.122 87.208 18.042 48.113 18.042 99.235 0 52.122-17.983 100.235-17.983 48.114-51.181 87.034-8.075 8.97-19.956 8.97-11.88 0-20.641-9Zm-87.159-87.159q-7.08-7.16-7.58-17.789-.5-10.63 5.5-20.769 9-13.761 13.88-29.683 4.881-15.922 4.881-32.839 0-16.917-4.881-33.339-4.88-16.422-13.88-30.422-6-9.9-6-20.03 0-10.129 8-18.209 9.761-9.761 23.38-9.38 13.62.38 21.381 11.141 15 22.056 23.5 47.114 8.5 25.059 8.5 52.125t-8.5 52.625q-8.5 25.558-23.5 47.614-7.522 10.761-21.261 11.141-13.739.381-23.42-9.3ZM262.63 1021.5q-28.353 0-48.242-19.89-19.888-19.887-19.888-48.24V198.63q0-28.353 19.888-48.242Q234.277 130.5 262.63 130.5h434.74q28.353 0 48.242 19.888Q765.5 170.277 765.5 198.63V342h-68.13v-53.37H262.63v574.74h434.74V810h68.13v143.37q0 28.353-19.888 48.24-19.889 19.89-48.242 19.89H262.63Z"/></svg>