<svg xmlns="http://www.w3.org/2000/svg" width="48" height="48" viewBox="0 -960 960 960"><path d="M833.783-46.13 44.696-848.978q-8.479-9.479-8.979-21.812-.5-12.333 8.979-21.956 9.478-9.624 21.956-9.624t21.957 9.718L878.457-90.043q9.478 9.478 8.978 21.956t-9.978 21.957q-9.479 9.478-21.957 9.478-12.478 0-21.717-9.478ZM194.5-741.087l68.13 69.13v479.327h431.327l70.543 71.543v18.696q1 28.458-19.388 48.175Q724.723-34.5 696.37-34.5H262.63q-28.347 0-48.239-19.891Q194.5-74.283 194.5-102.63v-638.457Zm101.631-26.283-96.37-96.13v-2q.717-25.478 19.413-42.739Q237.87-925.5 263.587-925.5H697.37q28.347 0 48.239 20.266Q765.5-884.969 765.5-857.37V-714h-68.13v-53.37H296.131ZM925.022-481q0 52-17.5 100t-50.5 86q-8 10-20 10t-21-9q-8-9-8.5-21t7.5-22q24-31 37-68t13-76q0-39-13-75t-39-65q-9-10-10-23.5t8-22.5q10-10 23.5-10t22.5 11q33 38 50.5 86t17.5 99Zm-120.239-2q0 35-13.937 68-13.936 33-38.824 58-4 4-9.5 6.5t-11.5 2.5q-12 0-21-9t-9-21q0-6 2.5-11.5t7.5-10.5q17-16.761 25.38-37.834 8.381-21.074 8.381-44.166 0-23-8.381-45.12-8.38-22.119-25.38-38.955-5-3.925-7-9.425-2-5.5-2-11.5 0-12 9-20.5t21-8.5q6 0 11.5 2t9.5 7q25 25 38.38 57 13.381 32 13.381 67Z"/></svg>