<svg xmlns="http://www.w3.org/2000/svg" width="48" height="48" viewBox="0 -960 960 960"><path d="M479.444-265.565q73.273 0 122.632-49.303 49.359-49.302 49.359-122.456t-49.303-122.133q-49.302-48.978-122.456-48.978t-122.133 48.902q-48.978 48.902-48.978 121.977 0 73.273 48.902 122.632 48.902 49.359 121.977 49.359Zm.056-64.783q-46.065 0-76.109-30.543-30.043-30.544-30.043-76.609t30.043-76.228q30.044-30.163 76.109-30.163t76.728 30.163q30.663 30.163 30.663 76.228t-30.663 76.609q-30.663 30.543-76.728 30.543ZM142.152-114.022q-27.599 0-47.865-20.265-20.265-20.266-20.265-47.865v-508.696q0-26.697 20.265-47.533 20.266-20.837 47.865-20.837h141.739l55.239-64.565q9.196-11.717 22.392-17.076 13.195-5.359 28.391-5.359h180.413q14.927 0 28.137 5.359 13.211 5.359 22.407 17.076l55.478 64.565h141.5q26.697 0 47.533 20.837 20.837 20.836 20.837 47.533v508.696q0 27.599-20.837 47.865-20.836 20.265-47.533 20.265H142.152Zm0-68.13h675.696v-508.696h-172.37l-74.913-87H389.913l-75.87 87H142.152v508.696ZM480-437Z"/></svg>