<svg xmlns="http://www.w3.org/2000/svg" width="48" height="48" viewBox="0 -960 960 960"><path d="M402.022-358.565q-11.012 0-18.234-7.207-7.223-7.206-7.223-18.228v-192q0-11.022 7.2-18.228 7.201-7.207 18.213-7.207t18.234 7.207q7.223 7.206 7.223 18.228v63.565h105.13V-576q0-11.022 7.2-18.228 7.201-7.207 18.213-7.207t18.234 7.207q7.223 7.206 7.223 18.228v192q0 11.022-7.2 18.228-7.201 7.207-18.213 7.207t-18.234-7.207q-7.223-7.206-7.223-18.228v-77.565h-105.13V-384q0 11.022-7.2 18.228-7.201 7.207-18.213 7.207Zm-258 0q-11.012 0-18.234-7.207-7.223-7.206-7.223-18.228v-186q0-13.563 8.936-22.499 8.936-8.936 22.568-8.936h120.496q21.435 0 36.152 14.718 14.718 14.717 14.718 36.152V-488q0 21.53-14.718 36.08-14.717 14.55-36.152 14.55h-101.13V-384q0 11.022-7.2 18.228-7.201 7.207-18.213 7.207ZM169.435-488h101.13v-62.565h-101.13V-488Zm514.587 129.435q-11.012 0-18.234-7.207-7.223-7.206-7.223-18.228v-186q0-13.563 8.936-22.499 8.936-8.936 22.569-8.936h120.495q21.435 0 36.152 14.718 14.718 14.717 14.718 36.152V-488q0 21.53-14.718 36.08-14.717 14.55-36.152 14.55h-101.13V-384q0 11.022-7.2 18.228-7.201 7.207-18.213 7.207ZM709.435-488h101.13v-62.565h-101.13V-488Z"/></svg>