<svg xmlns="http://www.w3.org/2000/svg" width="48" height="48" viewBox="0 96 960 960"><path d="M182.152 941.978q-27.599 0-47.865-20.265-20.265-20.266-20.265-47.865V278.152q0-26.697 20.265-47.533 20.266-20.837 47.865-20.837h595.696q26.697 0 47.533 20.837 20.837 20.836 20.837 47.533v595.696q0 27.599-20.837 47.865-20.836 20.265-47.533 20.265H182.152Zm0-68.13H334.13V667.435h-18.565q-13.563 0-22.499-8.936-8.936-8.936-8.936-22.533V278.152H182.152v595.696Zm443.718 0h151.978V278.152H675.87v357.814q0 13.597-8.936 22.533-8.936 8.936-22.499 8.936H625.87v206.413Zm-246.24 0h200.74V667.435h-18.566q-13.563 0-22.499-8.936-8.935-8.936-8.935-22.533V278.152H429.63v358.087q0 13.258-9.037 22.227-9.038 8.969-22.397 8.969H379.63v206.413Z"/></svg>