<svg xmlns="http://www.w3.org/2000/svg" width="48" height="48" viewBox="0 96 960 960"><path d="M477.913 788.848h266.869q14.424 0 24.245-9.821 9.821-9.821 9.821-24.245V565.913q0-14.424-9.821-24.245-9.821-9.82-24.245-9.82H477.913q-14.424 0-24.245 9.82-9.82 9.821-9.82 24.245v188.869q0 14.424 9.82 24.245 9.821 9.821 24.245 9.821Zm-335.761 113.13q-27.587 0-47.859-20.271-20.271-20.272-20.271-47.859V318.152q0-27.587 20.271-47.978 20.272-20.392 47.859-20.392h675.696q28.337 0 48.353 20.392 20.017 20.391 20.017 47.978v515.696q0 27.587-20.017 47.859-20.016 20.271-48.353 20.271H142.152Zm469.696-242.13Z"/></svg>