<svg xmlns="http://www.w3.org/2000/svg" width="48" height="48" viewBox="0 -960 960 960"><path d="M685.696-362.435 361.717-684.978l91.653-91.652q32.482-32.218 74.184-49.587 41.703-17.37 87.473-17.37 95.487 0 162.024 66.589Q843.587-710.41 843.587-615q0 45.702-17.37 87.417-17.369 41.714-49.587 74.213l-90.934 90.935Zm-88.587 88.587-90.479 90.239q-32.482 32.457-74.184 49.826-41.703 17.37-87.473 17.37-95.487 0-162.024-66.589Q116.413-249.59 116.413-345q0-45.702 17.37-87.417 17.369-41.714 49.826-74.213l90-90.24L86.012-784.706q-9.773-9.772-9.773-22.199 0-12.427 9.624-21.957 9.623-9.529 22.576-9.41 12.952.12 22.431 9.359l705.326 705.326q9.239 9.478 8.739 21.957-.5 12.478-9.978 21.837-9.479 9.358-21.957 9.358-12.478 0-21.957-9.478L597.109-273.848Z"/></svg>