<svg xmlns="http://www.w3.org/2000/svg" width="48" height="48" viewBox="0 96 960 960"><path d="M480 748.435q101.798-82.425 153.866-158.716 52.069-76.291 52.069-141.839 0-57.75-21.142-98.032-21.141-40.283-52.053-65.565Q581.829 259 545.86 247.5 509.892 236 480.09 236q-30.071 0-66.004 11.455-35.933 11.454-66.836 36.782-30.902 25.328-52.043 65.637-21.142 40.31-21.142 98.12 0 65.434 52.069 141.725Q378.202 666.01 480 748.435Zm0 86.522Q340.848 730.283 273.391 635.003q-67.456-95.279-67.456-186.797 0-69.126 24.881-121.509 24.88-52.383 64.307-87.864 39.426-35.482 88.227-53.342 48.8-17.861 96.625-17.861 47.824 0 96.647 17.861 48.823 17.86 88.251 53.342 39.428 35.481 64.31 87.897 24.882 52.416 24.882 121.685 0 91.708-67.456 186.788Q619.152 730.283 480 834.957ZM480.256 516q30.657 0 52.233-21.832 21.576-21.832 21.576-52.489 0-30.657-21.732-52.353t-52.25-21.696q-30.518 0-52.333 21.821-21.815 21.822-21.815 52.409 0 30.588 21.831 52.364Q449.598 516 480.256 516ZM205.935 984.131V916h548.13v68.131h-548.13ZM480 447.935Z"/></svg>