<svg xmlns="http://www.w3.org/2000/svg" width="48" height="48" viewBox="0 96 960 960"><path d="M542.043 647.5 422.391 527.848v69.174q0 13.868-9.465 23.249-9.466 9.381-23.458 9.381-13.903 0-23.24-9.381-9.337-9.381-9.337-23.249V449.587q0-14.424 9.821-24.245 9.821-9.82 24.245-9.82h147.434q13.868 0 23.25 9.417 9.381 9.417 9.381 23.338 0 13.832-9.381 23.288-9.382 9.457-23.25 9.457h-70.173L588.87 601.674q10.195 9.956 9.815 22.926-.381 12.969-9.711 23.304-10.048 9.813-23.511 9.683-13.463-.13-23.42-10.087Zm231.15 254.718q-46.125 0-79.42-33.176-33.295-33.175-33.295-79.913t33.325-79.455q33.325-32.717 80.003-32.717 46.578 0 79.495 32.758 32.917 32.759 32.917 79.83 0 46.238-33.033 79.455-33.033 33.218-79.992 33.218Zm-631.041-.24q-27.599 0-47.865-20.265-20.265-20.266-20.265-47.865V318.152q0-27.697 20.265-48.033 20.266-20.337 47.865-20.337h675.696q27.697 0 48.033 20.337 20.337 20.336 20.337 48.033v298.805h-68.37V318.152H142.152v515.696h458.326v68.13H142.152Z"/></svg>