<svg xmlns="http://www.w3.org/2000/svg" width="48" height="48" viewBox="0 96 960 960"><path d="M480 748.435q101.798-82.425 153.866-158.716 52.069-76.291 52.069-141.839 0-57.75-21.142-98.032-21.141-40.283-52.053-65.565Q581.829 259 545.86 247.5 509.892 236 480.09 236q-30.071 0-66.004 11.455-35.933 11.454-66.836 36.782-30.902 25.328-52.043 65.637-21.142 40.31-21.142 98.12 0 65.434 52.069 141.725Q378.202 666.01 480 748.435Zm.028 73.608q-7.768 0-15.072-1.978-7.304-1.978-13.26-6.695-125-97.718-185.381-187.621-60.38-89.903-60.38-177.894 0-69.086 24.881-121.313 24.88-52.228 64.307-87.709 39.426-35.482 88.227-53.342 48.8-17.861 96.625-17.861 47.824 0 96.647 17.861 48.823 17.86 88.251 53.342 39.428 35.481 64.31 87.709 24.882 52.227 24.882 121.313 0 87.991-60.38 177.894-60.381 89.903-185.381 187.621-5.717 4.717-13.244 6.695-7.527 1.978-15.032 1.978ZM480.256 516q30.657 0 52.233-21.832 21.576-21.832 21.576-52.489 0-30.657-21.732-52.353t-52.25-21.696q-30.518 0-52.333 21.821-21.815 21.822-21.815 52.409 0 30.588 21.831 52.364Q449.598 516 480.256 516ZM240 984.131q-14.424 0-24.245-9.871-9.82-9.872-9.82-24.37 0-14.499 9.82-24.194Q225.576 916 240 916h480q14.424 0 24.245 9.871 9.82 9.871 9.82 24.37 0 14.498-9.82 24.194-9.821 9.696-24.245 9.696H240Zm240-536.196Z"/></svg>