<svg xmlns="http://www.w3.org/2000/svg" width="48" height="48" viewBox="0 -960 960 960"><path d="M177.83-598.59 68-489.52q-6.96 7.19-16.39 7.07-9.44-.12-16.15-7.07-6.96-6.96-6.96-16.27 0-9.32 6.96-16.28l108.82-109.82H71.17q-9.43 0-16.39-6.96-6.95-6.95-6.95-16.39 0-9.43 6.95-16.27 6.96-6.84 16.39-6.84h119.05q14.67 0 24.37 9.7 9.69 9.69 9.69 24.37v119.04q0 9.44-6.95 16.39-6.96 6.96-16.28 6.96-9.31 0-16.27-6.96-6.95-6.95-6.95-16.39v-73.35Zm183.06-182.58H434q9.2 0 16.27 6.95 7.08 6.96 7.08 16.27 0 9.32-6.96 16.28-6.96 6.95-16.39 6.95H314.96q-14.68 0-24.37-9.69-9.7-9.7-9.7-24.37v-119.29q0-9.19 6.84-16.15 6.84-6.95 16.27-6.95t16.39 6.95q6.96 6.96 6.96 16.15v73.11l110.06-109.82q6.96-6.72 16.77-6.72 9.82 0 16.78 6.84 6.95 6.83 6.95 16.65 0 9.81-6.95 16.77L360.89-781.17ZM579-32.83q-22.24 0-42.84-8.24-20.6-8.23-36.6-24.47L303.59-262.96q-7.29-7.04-7.91-16.61-.62-9.56 4.43-18.6 12.43-18.87 33.04-26.33 20.61-7.46 42.72-1.02l92.65 25.76v-339.28q0-13.72 9.22-22.94t23.17-9.22q13.96 0 23.18 9.22 9.21 9.22 9.21 22.94v291.91h67v-153.59q0-13.95 9.1-23.17 9.1-9.22 23.06-9.22 13.95 0 23.17 9.22 9.22 9.22 9.22 23.17v153.59h66v-113.59q0-13.95 9.22-23.17 9.21-9.22 23.17-9.22t23.17 9.22q9.22 9.22 9.22 23.17v113.59h67v-33.59q0-13.95 9.1-23.17 9.1-9.22 23.05-9.22 13.96 0 23.18 9.22 9.21 9.22 9.21 23.17v185.5q0 67.2-47.59 114.8-47.6 47.59-114.8 47.59H579Z"/></svg>