<svg xmlns="http://www.w3.org/2000/svg" width="48" height="48" viewBox="0 -960 960 960"><path d="M142.15-153.78q-27.58 0-47.86-20.27-20.27-20.28-20.27-47.86v-270.72q0-14.67 9.7-24.37 9.69-9.7 24.37-9.7h258.04q28.59 0 48.48-19.89 19.89-19.89 19.89-48.24v-177.08q0-14.68 9.7-24.37 9.69-9.7 24.37-9.7h349.28q27.58 0 47.98 20.39 20.39 20.39 20.39 47.98v515.7q0 27.58-20.39 47.86-20.4 20.27-47.98 20.27h-675.7Zm377-401.13q-14.67 0-24.37 9.81-9.69 9.82-9.69 24.49v158.57q0 13.95 9.21 23.17 9.22 9.22 23.06 9.22 13.84 0 23.05-9.22 9.22-9.22 9.22-23.17v-81.98L674.8-318.85q9.72 9.72 22.56 9.72 12.84 0 22.55-9.72 9.72-9.72 9.72-23.17 0-13.46-9.72-23.18L594.98-490.13h82.98q13.95 0 23.17-9.22 9.22-9.22 9.22-23.17 0-13.96-9.22-23.18-9.22-9.21-23.17-9.21H519.15ZM108.09-586.7q-14.68 0-24.37-9.69-9.7-9.7-9.7-24.37v-151.15q0-14.68 9.7-24.49 9.69-9.82 24.37-9.82h232.34q14.68 0 24.37 9.82 9.7 9.81 9.7 24.49v151.15q0 14.67-9.7 24.37-9.69 9.69-24.37 9.69H108.09Z"/></svg>