<svg xmlns="http://www.w3.org/2000/svg" width="48" height="48" viewBox="0 0 48 48"><path d="M6.2 22q-.95 0-1.425-.85-.475-.85-.025-1.7l7.6-13.65q.45-.95 1.475-.95 1.025 0 1.475.95l7.6 13.65q.5.85 0 1.7t-1.45.85Zm7.7 20.55q-3.45 0-5.875-2.425T5.6 34.3q0-3.45 2.425-5.875T13.9 26q3.45 0 5.875 2.425T22.2 34.3q0 3.4-2.425 5.825Q17.35 42.55 13.9 42.55Zm13.9 0q-.75 0-1.25-.475t-.5-1.225V27.7q0-.75.5-1.225.5-.475 1.25-.475h13.15q.75 0 1.225.475.475.475.475 1.225v13.15q0 .75-.475 1.225-.475.475-1.225.475Zm4.2-30L27.3 7.9q-.55-.5-.55-1.2t.55-1.2q.5-.5 1.175-.475.675.025 1.225.475l4.65 4.65 4.8-4.75q.5-.5 1.175-.5t1.225.5q.5.5.5 1.2t-.5 1.2l-4.8 4.75 4.8 4.75q.5.5.5 1.2t-.5 1.2q-.55.5-1.225.5t-1.175-.5l-4.8-4.75-4.7 4.75q-.55.5-1.225.5t-1.175-.5q-.55-.5-.55-1.2t.55-1.2Z"/></svg>