<svg xmlns="http://www.w3.org/2000/svg" width="48" height="48" viewBox="0 -960 960 960"><path d="M480-160.022q-32 0-57.5 16t-39.5 42q-4 12.24-10.5 20.12-6.5 7.88-20.5 7.88h-89.848q-28.599 0-48.365-19.765-19.765-19.766-19.765-48.365v-675.696q0-28.697 19.765-48.533 19.766-19.837 48.365-19.837h89.773q10.075 0 17.575 5.5t10.5 14.5q11 31 39.5 48.5t60.5 17.5q32 0 60.5-17.5t39.5-48.5q3-9 10.5-14.5t17.5-5.5h89.848q28.697 0 48.533 19.837 19.837 19.836 19.837 48.533v675.696q0 28.599-19.837 48.365-19.836 19.765-48.533 19.765h-89.773q-14.075 0-20.075-7.88t-11-20.12q-14-26-40-42t-57-16Z"/></svg>