<svg xmlns="http://www.w3.org/2000/svg" width="48" height="48" viewBox="0 96 960 960"><path d="M381.565 466.022v219.956q0 20.631 17.652 30.707 17.653 10.076 34.805-1.12l172.869-111.217q16.152-10.179 16.152-28.339 0-18.161-16.152-28.357L434.022 436.435q-17.152-11.196-34.805-1-17.652 10.195-17.652 30.587Zm98.468 515.956q-83.468 0-157.514-31.946t-129.32-87.211q-55.274-55.265-87.226-129.3-31.951-74.034-31.951-157.495t31.998-157.534q31.998-74.073 87.199-129.273 55.2-55.201 129.251-87.319 74.05-32.118 157.53-32.118T637.53 201.9q74.051 32.118 129.251 87.319 55.201 55.2 87.319 129.251 32.118 74.05 32.118 157.53T854.1 733.53q-32.118 74.051-87.319 129.251-55.2 55.201-129.24 87.199-74.04 31.998-157.508 31.998Z"/></svg>