<svg xmlns="http://www.w3.org/2000/svg" width="48" height="48" viewBox="0 -960 960 960"><path d="M447.37-101.869v-299.348q-23.196-9.718-38.033-30.913-14.837-21.196-14.837-47.854 0-35.347 25.09-60.432 25.091-25.084 60.446-25.084t60.41 25.084q25.054 25.085 25.054 60.432 0 26.658-14.837 47.854-14.837 21.195-38.033 30.913v299.348q0 14.285-9.292 23.577Q494.046-69 480-69q-14.046 0-23.338-9.292-9.292-9.292-9.292-23.577ZM220.022-206.022q-9.718 9.718-24.413 9.479-14.696-.239-23.414-11.196-48.717-54.957-75.956-123.852Q68.999-400.485 68.999-480q0-85.077 32.338-160.147 32.337-75.071 87.891-130.625t130.642-87.891Q394.958-891 480.055-891q85.097 0 160.13 32.337t130.587 87.891q55.554 55.554 87.891 130.625Q891-565.077 891-480q0 79.515-27.239 148.409-27.239 68.895-75.956 123.852-8.718 10.957-23.533 11.576-14.815.62-24.585-9.15-9.665-9.665-8.785-23.741.881-14.076 10.598-25.272 39.761-45.478 61.881-102.837Q825.5-414.522 825.5-480q0-144.152-100.674-244.826T480-825.5q-144.152 0-244.826 100.674T134.5-480q0 65.478 22 122.957 22 57.478 62 102.956 9.717 11.196 10.478 24.772.761 13.576-8.956 23.293Zm115.204-115.204q-10.009 10.009-23.965 9.889-13.957-.119-22.674-10.837-26.478-32.717-41.598-72.275-15.12-39.557-15.12-85.551 0-103.627 72.244-175.998 72.244-72.372 175.859-72.372 103.615 0 176.006 72.372Q728.37-583.627 728.37-480q0 45.895-15.239 85.382-15.24 39.488-41.718 72.444-8.717 10.957-22.174 11.337-13.456.381-23.226-9.389-9.904-9.904-9.904-23.861 0-13.956 8.239-24.913 17.795-23 28.039-51 10.243-28 10.243-60 0-76.241-53.185-129.436-53.186-53.194-129.413-53.194-76.228 0-129.445 53.194Q297.37-556.241 297.37-480q0 32 10.243 59.963 10.244 27.962 28.039 51.037 8.239 10.957 8.739 24.533t-9.165 23.241Z"/></svg>