<svg xmlns="http://www.w3.org/2000/svg" width="48" height="48" viewBox="0 0 48 48"><path d="M24.65 8.4q0 1.5-1.05 2.575-1.05 1.075-2.6 1.075-.65 0-1.225-.225-.575-.225-1.075-.575-1.3.85-2.15 2.075-.85 1.225-.9 2.725H40.5q.75 0 1.275.575.525.575.425 1.375l-1.55 11.2q-.1.65-.6 1.075-.5.425-1.1.425H31.1v-3.35h6.6q.25-1.95.525-3.975.275-2.025.575-4.025H9.2q.3 2 .575 4.025.275 2.025.575 3.975h6.55v3.35H9.05q-.6 0-1.1-.425-.5-.425-.6-1.075L5.8 18q-.1-.8.425-1.375T7.5 16.05h4.85q.05-2.5 1.425-4.55t3.575-3.3q.1-1.5 1.125-2.5T21 4.7q1.5 0 2.575 1.075Q24.65 6.85 24.65 8.4Zm-5.8 30.95h10.3L30.5 25.7h-13l1.35 13.65ZM30.6 42.7H17.4q-.65 0-1.15-.45-.5-.45-.55-1.1l-1.5-15q-.1-1.5.925-2.65 1.025-1.15 2.525-1.15h12.7q1.5 0 2.525 1.15t.925 2.65l-1.5 15q-.05.65-.55 1.1-.5.45-1.15.45Z"/></svg>