<svg xmlns="http://www.w3.org/2000/svg" width="48" height="48" viewBox="0 -960 960 960"><path d="M182.152-114.022q-27.599 0-47.865-20.265-20.265-20.266-20.265-47.865v-595.696q0-27.697 20.265-48.033 20.266-20.337 47.865-20.337h595.696q27.697 0 48.033 20.337 20.337 20.336 20.337 48.033v595.696q0 27.599-20.337 47.865-20.336 20.265-48.033 20.265H182.152Zm0-68.13h595.696v-595.696H182.152v595.696Zm0-595.696v595.696-595.696Zm237.87 202.5h260.195q20.026 0 33.828-14.013 13.803-14.014 13.803-34.033 0-20.019-13.803-33.736-13.802-13.718-33.828-13.718H419.783q-20.026 0-33.828 13.838-13.803 13.837-13.803 33.857 0 20.019 13.962 33.912t33.908 13.893Z"/></svg>