<svg xmlns="http://www.w3.org/2000/svg" width="48" height="48"><path d="m39.15 44.2-8.85-8.85-1 1.15v4.1q0 .7-.5 1.2t-1.2.5h-7.2q-.7 0-1.2-.5t-.5-1.2v-4.5l-6.1-6.7q-.4-.45-.65-1.05-.25-.6-.25-1.25V16.75l-7.9-7.9q-.4-.45-.4-1.075T3.85 6.7q.5-.5 1.1-.5.6 0 1.1.5L41.4 42.05q.45.4.425 1.05-.025.65-.475 1.1-.45.45-1.075.45t-1.125-.45zM22.1 38.9h3.8v-4.15l1.8-2.05-12.6-12.55v6.9l7 7.7zm12.15-8.25L32.9 29.3V17.65H21.25l-4.35-4.3V7.4q0-.7.5-1.2t1.25-.5q.7 0 1.2.5t.5 1.2v6.85h7.3V7.4q0-.7.5-1.2t1.25-.5q.7 0 1.2.5t.5 1.2v6.85h2.1q1.3.1 2.2 1.1.9 1 .9 2.3v9.45q0 1-.5 1.7t-1.55 1.85zm-7.1-7.1zm-5.7 2.9z"/></svg>