<svg xmlns="http://www.w3.org/2000/svg" width="48" height="48" viewBox="0 -960 960 960"><path d="M355.632-287.609q13.614 0 22.795-9.439 9.182-9.439 9.182-23.174t-9.391-22.952q-9.391-9.217-23.054-9.217-13.664 0-22.882 9.439-9.217 9.439-9.217 23.174t9.426 22.952q9.426 9.217 23.141 9.217Zm124.59 0q13.735 0 22.952-9.439 9.217-9.439 9.217-23.174t-9.439-22.952q-9.439-9.217-23.174-9.217t-22.952 9.439q-9.217 9.439-9.217 23.174t9.439 22.952q9.439 9.217 23.174 9.217Zm124.736 0q13.614 0 22.795-9.439 9.182-9.439 9.182-23.174t-9.391-22.952q-9.391-9.217-23.054-9.217-13.664 0-22.881 9.439-9.218 9.439-9.218 23.174t9.426 22.952q9.426 9.217 23.141 9.217ZM438.239-507.848l-60.891-60.413q-9.438-9.717-22.415-9.717-12.976 0-22.694 9.704-9.717 9.705-10.217 23.174-.5 13.47 9.217 23.187l81.891 81.891q10.279 10.196 24.411 10.196 14.133 0 24.329-10.196l165.456-165.217q9.757-9.702 9.118-23.047-.64-13.344-10.255-23.062-9.615-9.717-22.652-9.717t-22.798 9.717l-142.5 143.5Zm42.06 433.826q-84.202 0-158.041-31.878-73.839-31.879-129.159-87.199-55.32-55.32-87.199-129.201-31.878-73.88-31.878-158.167t31.878-158.2q31.879-73.914 87.161-128.747 55.283-54.832 129.181-86.818 73.899-31.986 158.205-31.986 84.307 0 158.249 31.968 73.942 31.967 128.756 86.768 54.815 54.801 86.79 128.883 31.976 74.083 31.976 158.333 0 84.235-31.986 158.07t-86.818 128.942q-54.833 55.107-128.873 87.169-74.04 32.063-158.242 32.063Z"/></svg>