<svg xmlns="http://www.w3.org/2000/svg" width="48" height="48" viewBox="0 0 48 48"><path d="M9.15 42.3q-1.4 0-2.425-1.025T5.7 38.85V9.15q0-1.4 1.025-2.425T9.15 5.7h29.7q1.4 0 2.425 1.025T42.3 9.15v29.7q0 1.4-1.025 2.425T38.85 42.3ZM9 39h30V13H9v26Zm15-5.25q-4 0-7.15-2.15-3.15-2.15-4.6-5.6 1.45-3.45 4.6-5.6Q20 18.25 24 18.25t7.15 2.15q3.15 2.15 4.6 5.6-1.45 3.45-4.6 5.6Q28 33.75 24 33.75Zm0-5.25q-1.05 0-1.775-.725Q21.5 27.05 21.5 26q0-1.05.725-1.775Q22.95 23.5 24 23.5q1.05 0 1.775.725.725.725.725 1.775 0 1.05-.725 1.775-.725.725-1.775.725Zm0 1.5q1.7 0 2.85-1.15Q28 27.7 28 26q0-1.7-1.15-2.85Q25.7 22 24 22q-1.7 0-2.85 1.15Q20 24.3 20 26q0 1.7 1.15 2.85Q22.3 30 24 30Z"/></svg>