<svg xmlns="http://www.w3.org/2000/svg" width="48" height="48" viewBox="0 -960 960 960"><path d="M142.152-154.022q-27.587 0-47.859-20.271-20.271-20.272-20.271-47.859v-515.696q0-27.587 20.271-47.978 20.272-20.392 47.859-20.392h675.696q27.587 0 47.978 20.392 20.392 20.391 20.392 47.978v515.696q0 27.587-20.392 47.859-20.391 20.271-47.978 20.271H142.152ZM407-379H267q-12.75 0-21.375 8.675-8.625 8.676-8.625 21.5 0 12.825 8.625 21.325T267-319h57v15q0 12.75 8.675 21.375 8.676 8.625 21.5 8.625 12.825 0 21.325-8.625T384-304v-15h48q16 0 25.5-12t9.5-27v-114.745q0-16.255-9.5-27.755T432-512H297v-69h140q12.75 0 21.375-8.675 8.625-8.676 8.625-21.5 0-12.825-8.625-21.325T437-641h-53v-15q0-12.75-8.625-21.375T354-686q-13 0-21.5 8.5T324-656v15h-48q-16 0-27.5 12T237-600.883v113.766Q237-471 248.5-461.5T276-452h131v73Zm248.967 64.033 39.609-39.609q4.228-4.228 2.119-9.326-2.109-5.098-8.063-5.098h-78.765q-6.193 0-8.432 5.098-2.239 5.098 2.228 9.326l39.37 39.609q2.489 2.489 5.967 2.489 3.478 0 5.967-2.489ZM610.608-581h78.764q5.954 0 8.193-5.098t-1.989-9.565l-39.609-39.37q-2.489-2.489-5.967-2.489-3.478 0-5.967 2.489l-39.37 39.37q-4.467 4.467-2.358 9.565 2.109 5.098 8.303 5.098Z"/></svg>