<svg xmlns="http://www.w3.org/2000/svg" width="48" height="48" viewBox="0 -960 960 960"><path d="M797.98-76.3 655.85-217.43h68.37v38.39q0 28.09-19.96 48.11t-48.41 20.02h-351.7q-28.35 0-48.24-20.02t-19.89-48.11v-111.94h-93.87q-28.35 0-48.24-19.96t-19.89-48.41V-542q0-45.98 30.5-77.9 30.5-31.93 75.98-33.6h39.28L75.3-797.98q-9.23-9.34-9.35-22.27-.12-12.92 9.43-22.4 9.46-9.48 22.46-9.48t22.38 9.48l722.43 722.43q9.24 9.29 9.36 21.86.12 12.58-9.44 22.06-9.55 9.47-22.33 9.47-12.78 0-22.26-9.47ZM304.15-177.85h351.7v-39.58L517.07-355.98H304.15v178.13Zm94.33-476.37h376q47.39 0 79.56 32.4 32.18 32.39 32.18 79.82v188.63q0 24.19-19.27 39.33-19.28 15.15-46.97 15.15-19.76 6.22-46.61-.29-26.85-6.52-49.72-29.62L398.48-654.22Zm-29.76-30L264.41-788.04q-16.15-15.92-7.39-37.05 8.75-21.13 31.26-21.13h367.57q28.45 0 48.41 19.96 19.96 19.96 19.96 48.41v64.83q0 12.38-8.35 20.59-8.35 8.21-20.7 8.21H368.72Zm375.66 191.46q12.69 0 22.12-9.41 9.43-9.42 9.43-22.03 0-12.81-9.41-22.12t-22.02-9.31q-12.81 0-22.12 9.31t-9.31 22q0 12.7 9.31 22.13t22 9.43Z"/></svg>