<svg xmlns="http://www.w3.org/2000/svg" width="48" height="48" viewBox="0 -960 960 960"><path d="M381.587-665.761q4.841-2 10.022-3t11.021-1q23.57.478 40.35 17.147 16.781 16.668 16.781 39.984v25.043l-78.174-78.174ZM886.218-275l-160-160v113.63l-68.37-68.13v-348.348H309.5l-68.13-68.37h416.478q27.697 0 48.033 20.337 20.337 20.336 20.337 48.033V-525l160-160v410Zm-228.37 120.978H142.152q-27.599 0-47.865-20.265-20.265-20.266-20.265-47.865v-515.696q0-26.391 18.837-46.424 18.837-20.032 44.75-21.467h19l67.891 67.891h-82.348v515.696H369.37v-80.326q-64.087-11.718-105.413-60.723-41.327-49.006-41.327-114.169h60.718q0 48.489 33.853 82.69 33.854 34.202 82.799 34.202 31.325 0 57.782-15.359 26.457-15.359 42.661-42.076l43.318 43.478q-20.044 29-49.446 47.239-29.402 18.239-63.685 24.718v80.326h227.218V-304.5l67.891 67.891v19q-1.435 25.913-21.433 44.75t-46.458 18.837Zm237.174 86.696L850.63-23.413 441.674-432.609q-8.478 7.239-19.063 11.239-10.585 4-22.611 4-24.75 0-42.375-17.625T340-477.37v-56.913L35.413-839.109l43.913-43.913L895.022-67.326ZM397.761-477.761Zm85.913-85.913ZM369.37-222.152h61.26-61.26Z"/></svg>