<svg xmlns="http://www.w3.org/2000/svg" width="48" height="48" viewBox="0 -960 960 960"><path d="m446-417.897 1.761 27.909q.975 7.254 5.477 11.621Q457.74-374 464.635-374h28.802q6.594 0 11.203-4.367 4.61-4.367 5.599-11.621L512-417.897q12-2.028 22.472-8.527 10.472-6.499 18.63-14.576l27.985 9.283q5.717 2.239 11.435-.12 5.717-2.359 8.995-7.683l13.726-22.96q3.279-5.563 2.54-11.293-.74-5.73-6.144-10.589L593-498.929Q598-513 598-528q0-15-5-29l18.639-14.877q5.484-4.67 6.183-10.375.7-5.705-2.579-11.268l-13.726-22.96q-3.278-5.324-8.995-7.683-5.718-2.359-11.435-.12L553.102-615q-8.435-7.692-19.269-13.846Q523-635 512-638l-1.761-28.326q-.939-6.86-5.483-11.267Q500.213-682 493.604-682h-28.802q-6.896 0-11.494 4.407t-5.547 11.267L446-638.061q-11 3.061-21.833 9.215Q413.333-622.692 405-615l-28.087-9.283q-5.717-2.239-11.435.12-5.717 2.359-8.995 7.683l-13.487 22.96q-3.518 5.545-2.779 11.257.74 5.711 6.144 10.386L365-557q-5 14-5 29t5 29l-18.639 14.638q-5.404 4.859-6.144 10.589-.739 5.73 2.779 11.293l13.487 22.96q3.278 5.324 8.995 7.683 5.718 2.359 11.435.12L404.898-441q8.158 8.077 18.63 14.576Q434-419.925 446-417.897ZM479.118-458Q450-458 429.5-478.382q-20.5-20.383-20.5-49.5Q409-557 429.382-577.5q20.383-20.5 49.5-20.5Q508-598 528.5-577.618q20.5 20.383 20.5 49.5Q549-499 528.618-478.5q-20.383 20.5-49.5 20.5ZM234.739-249.609q-57-52.717-88.5-122.934-31.5-70.218-31.5-147.457 0-152.292 106.501-258.896Q327.742-885.5 479.887-885.5q126.787 0 224.722 74.815t127.652 194.489L887.5-396.761q4.478 16.152-5.696 29.087-10.173 12.935-27.13 12.935H765.5v131.869q0 28.349-19.961 48.24-19.961 19.891-48.409 19.891H605.5v45.935q0 14.424-10.012 24.244-10.011 9.821-24.489 9.821-14.477 0-24.173-9.82-9.696-9.821-9.696-24.245v-80q0-14.424 9.821-24.245 9.821-9.821 24.245-9.821H697.13v-165.934q0-14.424 9.821-24.245 9.821-9.821 24.245-9.821h79.217L766.37-599.283q-24-95.804-104.283-156.826-80.283-61.021-181.978-61.021-123.856 0-210.548 85.744-86.691 85.743-86.691 208.98 0 63.612 26.085 121.246 26.085 57.633 73.958 102.008l19.957 19.046v171.302q0 14.424-9.871 24.244-9.872 9.821-24.37 9.821-14.499 0-24.194-9.82-9.696-9.821-9.696-24.245v-140.805Zm262.022-196.326Z"/></svg>