<svg xmlns="http://www.w3.org/2000/svg" width="48" height="48" viewBox="0 -960 960 960"><path d="M182.152-817.848v290.609V-530v387.848-675.696 186-186Zm128.283 398.326h146.239q13.258 0 22.227-9.08 8.969-9.081 8.969-22.505 0-13.322-8.969-22.184-8.969-8.861-22.227-8.861H310.196q-13.258 0-22.227 9.013Q279-464.126 279-450.802t9.038 22.302q9.037 8.978 22.397 8.978Zm0 170h87.13q13.258 0 22.227-9.08 8.969-9.081 8.969-22.505 0-13.322-8.969-22.184-8.969-8.861-22.227-8.861h-87.369q-13.258 0-22.227 9.013Q279-294.126 279-280.802t9.038 22.302q9.037 8.978 22.397 8.978Zm-128.283 175.5q-27.599 0-47.865-20.265-20.265-20.266-20.265-47.865v-675.696q0-27.697 20.265-48.033 20.266-20.337 47.865-20.337h332.891q14.145 0 26.964 5.718 12.819 5.717 22.015 14.913l181.565 181.565q9.196 9.196 14.913 22.015 5.718 12.819 5.718 26.964v95.652q0 14.272-10.132 23.451-10.131 9.179-24.369 9.179-13.76 0-23.576-8.984-9.815-8.983-11.011-22.69v-93.413H542.913q-14.424 0-24.245-9.82-9.82-9.821-9.82-24.245v-151.935H182.152v675.696h304.63q14.508 0 24.167 9.871 9.66 9.871 9.66 24.37 0 14.498-9.66 24.194-9.659 9.695-24.167 9.695h-304.63ZM663.92-190q45.232 0 75.537-30.279 30.304-30.279 30.304-75.511t-30.235-75.655q-30.235-30.424-75.403-30.424-45.269 0-75.631 30.328-30.361 30.327-30.361 75.63 0 45.302 30.279 75.607Q618.689-190 663.92-190ZM891.832-68.065Q881.534-57.87 867.963-57.87q-13.572 0-23.767-10.196l-83.848-83.609q-21.239 13.522-45.427 21.663-24.187 8.142-50.856 8.142-72.627 0-123.465-50.779-50.839-50.779-50.839-123.32t50.873-123.287Q591.507-470 664.183-470q72.576 0 123.262 50.769 50.686 50.769 50.686 123.296 0 26.733-8.261 50.982t-21.783 45.301l83.848 83.848q10.196 10.195 10.196 23.87 0 13.673-10.299 23.869Z"/></svg>