<svg xmlns="http://www.w3.org/2000/svg" width="48" height="48" viewBox="0 -960 960 960"><path d="M182.152-74.022q-27.599 0-47.865-20.265-20.265-20.266-20.265-47.865v-615.696q0-27.697 20.265-48.033 20.266-20.337 47.865-20.337H245v-25.847q0-14.754 9.764-24.453 9.763-9.7 24.434-9.7 14.672 0 24.769 9.7 10.098 9.699 10.098 24.453v25.847h331.87v-25.847q0-14.754 9.763-24.453 9.764-9.7 24.435-9.7t24.769 9.7Q715-866.819 715-852.065v25.847h62.848q27.697 0 48.033 20.337 20.337 20.336 20.337 48.033v615.696q0 27.599-20.337 47.865-20.336 20.265-48.033 20.265H182.152Zm208.565-68.13q14.674 0 24.37-9.768 9.696-9.767 9.696-24.298V-243q0-7.435-7.957-21.87L338.5-356.957q-5.565-6.565-8.087-13.891-2.522-7.326-2.522-14.891 9.087 4.283 18.555 6.304 9.467 2.022 19.315 2.022 21.191 0 41.411-8.478 20.219-8.479 35.458-24.718 7.522-7.521 17.294-11.163 9.772-3.641 20.054-3.641 11.305 0 21.087 3.761 9.783 3.761 16.228 11.043 15.555 16.718 36.272 24.957 20.718 8.239 41.435 8.239 10.129 0 19.075-2.022 8.947-2.021 18.034-6.304 0 7.565-2.522 14.891t-8.087 13.891l-78.326 92.087q-3.273 5.227-5.496 10.457-2.222 5.23-2.222 11.413v66.782q0 14.531 9.749 24.298 9.748 9.768 24.25 9.768t24.317-9.768q9.815-9.767 9.815-24.298v-54.586l71.043-83.044q11.24-11.478 20.098-30.956 8.859-19.479 8.859-45.278 0-12.918-2.88-25.418-2.881-12.5-8.642-24.5 4.761-11 8.022-23.5t3.261-25.5q0-20.466-6.62-39.57-6.619-19.104-21.136-35.62l-72.244-85.006v-74.586q0-14.531-9.815-24.298-9.816-9.768-24.25-9.768-14.674 0-24.37 9.768-9.696 9.767-9.696 24.298V-637q0 6.993 2.218 12.67 2.217 5.678 5.978 9.448l80 94.991q5.522 7.043 8.663 14.783 3.141 7.74 3.141 16.119 0 17.076-11.667 30.141-11.667 13.065-29.506 13.065-6.848 0-14.105-2.512-7.257-2.513-13.591-9.053-17.711-17.717-40.096-27.076-22.385-9.359-46.249-9.359-23.863 0-46.248 9.359-22.385 9.359-40.103 27.076-5.508 6.301-12.851 8.933-7.344 2.632-15.007 2.632-18.12 0-29.566-13.244-11.445-13.245-11.445-30.952 0-8.304 2.761-16.086 2.76-7.783 9.043-14.826l80.239-94.239q3.239-5.24 5.598-10.465 2.359-5.226 2.359-11.405v-86.782q0-14.531-9.835-24.298-9.836-9.768-24.47-9.768-14.53 0-24.298 9.768-9.767 9.767-9.767 24.298v74.586l-71.043 83.044q-11.24 11.478-20.098 30.958-8.859 19.48-8.859 45.281 0 13.674 3 26.293 3 12.62 7.761 23.62-5.761 12-8.261 24.5-2.5 12.5-2.5 25.5 0 25.767 8.859 45.22 8.858 19.454 20.098 30.932l71.282 83.044v54.586q2.631 13.24 11.131 23.653 8.5 10.413 22.934 10.413Z"/></svg>