<svg xmlns="http://www.w3.org/2000/svg" width="48" height="48" viewBox="0 -960 960 960"><path d="M403.168-275q22.702 0 38.821-16.059 16.12-16.059 16.12-39T441.93-369q-16.178-16-38.88-16-22.941 0-38.941 16.059-16 16.059-16 39T364.168-291q16.058 16 39 16ZM76.891-303.826v-377.37q0-88.348 79.935-127.282 79.935-38.935 247.239-38.935 17.155 0 49.675 1.239 32.521 1.239 50.76 3.239-24.391 40.478-29.011 89.326-4.619 48.848 5.055 94.566H145.261v155h450.391q26 17.804 64.196 26.086 38.196 8.283 69.239 6.609v167.522q0 60.435-40.5 103.446-40.5 43.01-99.5 45.402l78.283 52.522q10.195 6.717 6.337 18.652-3.859 11.935-16.533 11.935H149.043q-12.673 0-16.652-11.935-3.978-11.935 6.457-18.652l78.043-52.522q-59-2.392-99.5-45.402-40.5-43.011-40.5-103.446ZM723.11-522.63q-83 0-141.5-58.5t-58.5-141.5q0-83 58.5-141.5t141.5-58.5q83 0 141.5 58.5t58.5 141.5q0 83-58.5 141.5t-141.5 58.5Zm7.88-177.718q7.489 0 12.968-5.435 5.478-5.434 5.478-13.06v-112.07q0-7.374-5.468-12.905-5.467-5.53-12.956-5.53t-12.968 5.53q-5.478 5.531-5.478 12.905v112.07q0 7.626 5.468 13.06 5.467 5.435 12.956 5.435Zm.011 94.022q10.557 0 18.354-7.798 7.798-7.798 7.798-18.354 0-10.557-7.798-18.355-7.797-7.797-18.354-7.797-10.557 0-18.354 7.797-7.798 7.798-7.798 18.355 0 10.556 7.798 18.354 7.797 7.798 18.354 7.798Z"/></svg>