<svg xmlns="http://www.w3.org/2000/svg" width="48" height="48" viewBox="0 -960 960 960"><path d="M403.109-275q22.761 0 38.88-16 16.12-16 16.12-39t-16.12-39q-16.119-16-38.88-16-23 0-39 16t-16 39q0 23 16 39t39 16ZM183.732-71.87q-11.645 0-19.243-7.605-7.598-7.606-7.598-18.984 0-6.802 3.859-14.019 3.859-7.218 9.576-11.457l46.565-31.043q-59-2.392-99.5-45.402-40.5-43.011-40.5-103.446v-377.37q0-88.348 79.935-127.282 79.935-38.935 247.239-38.935 17.155 0 49.675 1.239 32.521 1.239 50.76 3.239-10.956 18.478-15.413 31.131-4.457 12.652-9.467 34.761-11.04 0-37.576-1t-37.336-1q-94.838 0-161.099 13t-89.5 47h319q.239 17 2.217 30.739 1.978 13.739 5.218 29.261H145.261v155h450.391q13.522 9.043 28.385 14.578 14.862 5.536 36.92 10.878v34.544H145.261v140.217q0 36.036 23.797 62.333 23.797 26.297 58.833 26.297h350.196q35.036 0 58.953-26.297t23.917-62.333v-174.761q15.587 4.435 34.239 6.196 18.652 1.761 33.891 1.043v167.522q0 60.435-40.5 103.446-40.5 43.01-99.5 45.402l46.804 31.043q5.718 4.239 9.457 10.928 3.739 6.689 3.739 14.497 0 11.445-7.63 19.043-7.63 7.598-19.044 7.598H183.732Zm539.377-450.76q-83 0-141.5-58.5t-58.5-141.5q0-83 58.5-141.5t141.5-58.5q83 0 141.5 58.5t58.5 141.5q0 83-58.5 141.5t-141.5 58.5Zm-.034-162.392q8.751 0 15.11-6.215t6.359-14.981v-117.369q0-8.765-6.325-15.1-6.325-6.335-15.076-6.335-8.752 0-15.11 6.335-6.359 6.335-6.359 15.1v117.369q0 8.766 6.325 14.981 6.324 6.215 15.076 6.215Zm.034 85.022q8.956 0 15.554-6.598 6.598-6.598 6.598-15.554 0-8.957-6.598-15.674-6.598-6.718-15.674-6.718t-15.554 6.718q-6.478 6.717-6.478 15.674 0 8.956 6.502 15.554 6.502 6.598 15.65 6.598ZM578.087-444.043H145.261h515.696-82.87Zm-423.978-275h319-319Z"/></svg>