<svg xmlns="http://www.w3.org/2000/svg" width="48" height="48" viewBox="0 -960 960 960"><path d="M142.63-154.5q-28.1 0-48.11-20.02-20.02-20.01-20.02-48.11v-189.2q0-16.96 6.98-32.53t18.69-27.29l174.33-176v-129.72q0-28.1 20.02-48.11 20.01-20.02 48.11-20.02h274.74q28.1 0 48.11 20.02 20.02 20.01 20.02 48.11v129.72l179.85 181.28q9.13 9.27 14.64 21.95 5.51 12.67 5.51 26.79v195q0 28.1-20.02 48.11-20.01 20.02-48.11 20.02H142.63ZM480-777.37H342.63v129.2q0 13.84-5.48 26.57t-14.43 21.69L202.52-479h555.2l-120.2-120.67q-9.19-9.2-14.67-21.91t-5.48-26.83v-128.96H480ZM142.63-222.63h674.74v-188H142.63v188Zm267.8-72.57q-8.62 0-15.02-6.35-6.41-6.36-6.41-14.94 0-8.58 6.41-14.96 6.4-6.38 15.02-6.38H549.8q8.52 0 14.86 6.38t6.34 14.96q0 8.58-6.34 14.94-6.34 6.35-14.86 6.35H410.43Z"/></svg>