<svg xmlns="http://www.w3.org/2000/svg" width="48" height="48" viewBox="0 -960 960 960"><path d="M272.63-398.565h80.283q7.029 0 12.71-2.359 5.681-2.359 11.16-7.837l184.26-185.021q9.479-9.583 14.098-21.629 4.62-12.045 4.62-23.882 0-11.598-4.12-23.316-4.119-11.717-13.837-21.434l-37-36.761q-9.717-9.479-21.32-14.218-11.603-4.739-24.305-4.739-11.723 0-23.305 4.12-11.582 4.119-21.092 13.598l-186.021 185.26q-5.478 5.569-7.837 11.221-2.359 5.651-2.359 12.649v80.283q0 14.673 9.696 24.369t24.369 9.696Zm250.479-247.783-35.087 50.957-51.87-37.761 36.565-49.957 50.392 36.761Zm-84.522 247.783h252.776q13.072 0 21.572-8.5t8.5-21.5q0-13-8.5-21.5t-21.572-8.5H498.587l-60 60ZM234.022-234.022 132.196-132.196q-16.153 16.153-37.163 7.651-21.011-8.501-21.011-31.281v-662.022q0-27.697 20.265-48.033 20.266-20.337 47.865-20.337h675.696q27.697 0 48.033 20.337 20.337 20.336 20.337 48.033v515.696q0 27.599-20.337 47.865-20.336 20.265-48.033 20.265H234.022Z"/></svg>