<svg xmlns="http://www.w3.org/2000/svg" width="48" height="48" viewBox="0 -960 960 960"><path d="M118.57-384v-192.33q0-10.26 7.92-17.68t18.18-7.42H264q23.48 0 36.46 12.97 12.97 12.98 12.97 36.46v63q0 20.24-12 30.74t-28.76 12.74l23.53 54.04q5.23 11.72-2.18 22.32-7.42 10.59-20.02 10.59-8.24 0-14.1-4.23-5.86-4.24-9.1-11.72l-25.76-65.05h-55.61V-384q0 10.51-7.45 17.97-7.46 7.46-17.96 7.46t-17.98-7.46q-7.47-7.46-7.47-17.97Zm237.86-7.22 49.48-179.5q4-13.24 14.74-21.98 10.74-8.73 25.02-8.73h23.68q14.48 0 24.72 8.23 10.23 8.24 14.23 21.48l52.48 178q4 13.72-4.48 24.44-8.47 10.71-22.19 10.71-8.72 0-16.23-5.84-7.5-5.84-9.68-14.35l-12.05-38.17h-81.52l-9.8 39.41q-2.22 8.37-8.99 13.66-6.77 5.29-15.13 5.29-12.8 0-20.16-9.97-7.35-9.98-4.12-22.68Zm281.55 14.46-50-194.02q-3.24-11.7 4.7-21.18 7.95-9.47 20.66-9.47 8.55 0 15.18 5.34 6.64 5.35 8.85 13.61l31.52 121.85 29.28-123.57q2-8 7.62-12.62 5.62-4.61 13.86-4.61h10.96q8.04 0 13.66 4.11 5.62 4.12 7.62 12.12l32.52 124.57 28.52-120.85q2-8.24 8.91-14.1 6.9-5.85 15.53-5.85 12.48 0 20.46 9.97 7.97 9.98 4.97 21.7l-47 192.24q-2.23 8.48-9 13.72-6.76 5.23-15.36 5.23h-12.79q-8.54 0-15.89-5.41-7.34-5.41-9.54-13.78l-26.57-107.5-30.56 109.5q-2.21 8.37-8.42 12.78t-14.74 4.41h-12.7q-8.53 0-14.29-4.91-5.75-4.91-7.96-13.28Zm-209.35-88.17h53l-18.96-70.83h-15.08l-18.96 70.83Zm-259.2-22.64h93.14v-63h-93.14v63Z"/></svg>