<svg xmlns="http://www.w3.org/2000/svg" width="48" height="48" viewBox="0 -960 960 960"><path d="M514.065-216.478v148.391q0 14.674-9.695 24.37-9.696 9.695-24.37 9.695-14.674 0-24.37-9.695-9.695-9.696-9.695-24.37v-148.391l-32.805 32.804q-10.195 10.196-23.869 10.196t-23.87-9.957q-10.196-10.195-10.196-24.369t10.196-24.37l90.739-90.739q10.196-10.196 23.99-10.196 13.793 0 23.989 10.196l91.739 91.739q10.196 10.196 10.196 23.87 0 13.674-10.196 23.869-10.196 10.196-23.989 9.696-13.794-.5-23.75-9.696l-34.044-33.043ZM216.478-446.174H68.087q-14.674 0-24.37-9.696-9.695-9.695-9.695-24.369t9.695-24.37q9.696-9.695 24.37-9.695h148.391l-32.804-33.805q-9.196-10.195-9.696-23.869t9.457-23.87q10.195-10.196 23.869-10.196t23.87 10.196l91.739 91.739q10.196 10.196 10.196 23.989 0 13.794-10.196 23.99l-91.739 91.739q-10.196 10.196-23.87 9.696-13.674-.5-23.869-10.696-10.196-10.196-10.196-23.87 0-13.674 10.196-23.869l33.043-33.044Zm528.283.239 32.804 32.805q10.196 10.195 10.196 23.869t-9.956 23.87q-10.435 10.196-24.49 10.196-14.054 0-24.25-10.196l-90.739-90.739q-10.435-10.196-10.435-23.99 0-13.793 10.435-23.989l91.739-91.739q10.196-10.196 23.75-10.196 13.555 0 23.99 10.196Q788-585.652 787.5-571.859q-.5 13.794-9.695 23.75l-33.044 34.044h147.391q14.674 0 24.37 9.695 9.696 9.696 9.696 24.37 0 14.674-9.696 24.37-9.696 9.695-24.37 9.695H744.761ZM480-427.609q-22.196 0-37.294-15.097-15.097-15.098-15.097-37.294 0-22.196 15.097-38.413Q457.804-534.63 480-534.63q22.957 0 38.794 15.836Q534.63-502.957 534.63-480q0 22.196-16.217 37.294-16.217 15.097-38.413 15.097Zm-34.065-317.152v-147.391q0-14.674 9.695-24.37 9.696-9.696 24.37-9.696 14.674 0 24.37 9.696 9.695 9.696 9.695 24.37v147.391l34.044-33.044q10.195-9.195 23.869-9.576 13.674-.38 23.87 9.576 10.196 10.435 10.196 23.99 0 13.554-10.196 23.75l-91.739 91.739q-10.196 10.435-23.989 10.435-13.794 0-23.99-10.435l-91.739-91.739q-10.196-10.196-9.696-23.87.5-13.674 10.696-23.87 10.196-10.195 23.87-10.076 13.674.12 23.869 10.316l32.805 32.804Z"/></svg>