<svg xmlns="http://www.w3.org/2000/svg" width="48" height="48" viewBox="0 -960 960 960"><path d="M222.152-150.913q-28.587 0-48.359-19.891-19.771-19.892-19.771-48.239v-32.327q0-39.434 19.837-67.989 19.837-28.554 51.511-43.271 67.478-30.24 129.695-45.359 62.218-15.12 124.935-15.12 19.326 0 38.272 1.5 18.945 1.5 38.51 5.261 12.674 1.761 21.751 11.957 9.076 10.195 9.076 23.869v195.544q0 14.674-9.696 24.369-9.696 9.696-24.37 9.696H222.152ZM480-484.109q-68.63 0-112.304-43.674-43.674-43.674-43.674-112.304 0-68.631 43.674-112.305Q411.37-796.066 480-796.066t112.424 43.674q43.794 43.674 43.794 112.305 0 68.63-43.794 112.304Q548.63-484.109 480-484.109Zm247.609 276.5h-45.696q-14.913 0-24.609-9.695-9.695-9.696-9.695-24.609v-156.413q0-14.674 9.695-24.37 9.696-9.695 24.609-9.695h144.13q14.674 0 22.011 12.434 7.337 12.435 1.62 25.109l-61.848 122.457h34.978q14.674 0 22.631 13.054 7.956 13.054 0 25.728L743.522-56.739q-3.479 5.956-9.696 4.217-6.217-1.739-6.217-8.456V-207.61Z"/></svg>