<svg xmlns="http://www.w3.org/2000/svg" width="48" height="48" viewBox="0 -960 960 960"><path d="M925.5-603.674q0 80.547-24.5 142.871-24.5 62.324-69.5 116.324-10.239 12.24-25.217 13.24-14.979 1-25.979-10.24-11-11.175-10.739-26.446.261-15.271 10.5-27.51 35.761-44 54.881-92.443 19.119-48.442 19.119-115.858 0-66.938-18.761-115.319-18.76-48.38-54.521-92.278-10-12.199-10.261-27.509-.261-15.31 10.739-26.31 11-11 25.739-9.881 14.739 1.12 24.978 13.359 44.761 54 69.142 116 24.38 62 24.38 142Zm-202.391.177q0 31.823-9.5 60.703-9.5 28.881-26.113 54.642-7.909 12.239-22.029 13-14.119.76-25.119-10.24-11-11.192-12-25.485t6.761-27.71q7.521-13.522 12.163-29.915 4.641-16.394 4.641-34.924 0-18.053-4.641-34.335-4.642-16.283-12.163-29.804-7.761-13.24-6.642-27.718 1.12-14.478 12.359-25.602 11-11.115 25.267-10.242 14.266.873 22.211 13.127 16.283 25.761 25.544 54.459 9.261 28.699 9.261 60.044ZM360.597-447.218q-68.749 0-112.423-43.793Q204.5-534.805 204.5-603.484t43.625-112.304q43.625-43.625 112.305-43.625 68.679 0 112.472 43.625 43.794 43.625 43.794 112.304T473.14-491.011q-43.555 43.793-112.543 43.793ZM34.5-182.63v-31.848q0-40.631 20.674-68.446 20.674-27.815 50.674-42.815 51-26 121.815-43.239 70.815-17.24 132.815-17.24t132.316 17.12q70.315 17.12 121.554 42.88 30 15.24 51.174 43.174 21.174 27.935 21.174 68.566v31.848q0 28.697-19.836 48.533-19.836 19.836-48.534 19.836H102.63q-28.347 0-48.239-19.836Q34.5-153.933 34.5-182.63Z"/></svg>