<svg xmlns="http://www.w3.org/2000/svg" width="48" height="48" viewBox="0 -960 960 960"><path d="M780.572-341.211q-10.268-10.268-11.268-25.691-1-15.423 9.24-26.772 36.775-44.693 56.148-93.346 19.373-48.654 19.373-116.773 0-67.54-19.261-115.972-19.26-48.431-55.782-93.192-10-11.478-9.5-26.337.5-14.858 11.757-26.116 10.869-10.982 25.045-10.362 14.176.62 23.415 11.62 45 54 70.381 116.739 25.38 62.739 25.38 143.739 0 81.478-25.619 144.456-25.62 62.979-70.859 116.979-9.239 11.239-23.359 11.619-14.119.381-25.091-10.591ZM637.87-488.109q-8.813-8.704-10.287-22.232-1.474-13.529 6.047-25.768 8.761-14.698 13.522-31.246 4.761-16.548 4.761-36.08 0-19.265-4.761-35.796-4.761-16.53-13.282-31.052-7.522-12.239-6.142-25.739 1.381-13.5 10.62-22.5 11.478-11.717 27.837-11.098 16.359.62 24.598 14.098 15.282 24.761 23.804 53.332 8.522 28.571 8.522 58.924 0 30.353-8.762 58.924-8.762 28.572-24.356 53.196-8.165 13.754-24.377 14.254-16.213.5-27.744-11.217Zm-277.154 40.891q-68.868 0-112.542-43.793Q204.5-534.805 204.5-603.484t43.625-112.304q43.625-43.625 112.305-43.625 68.679 0 112.472 43.625 43.794 43.625 43.794 112.304T473.14-491.011q-43.555 43.793-112.424 43.793ZM68.566-114.261q-14.675 0-24.37-9.695-9.696-9.696-9.696-24.37v-66.152q0-40.631 20.674-68.446 20.674-27.815 50.674-42.815 51-26 121.815-43.239 70.815-17.24 132.815-17.24t132.316 17.12q70.315 17.12 121.554 42.88 30 15.24 51.174 43.174 21.174 27.935 21.174 68.566v66.152q0 14.674-9.696 24.37-9.696 9.695-24.37 9.695H68.565Zm34.064-68.369h515.696v-31.131q0-15.761-8.5-28.996-8.5-13.234-24.5-22.286-48-27-108.641-40.022-60.642-13.022-116.207-13.022-55.565 0-116.587 14.141-61.021 14.142-109.261 38.955-13.76 6.948-22.88 21.208-9.12 14.261-9.12 30.022v31.131Zm257.84-332.957q38.291 0 63.073-24.774 24.783-24.775 24.783-62.946 0-38.172-24.774-63.074t-62.946-24.902q-38.171 0-63.073 24.865-24.903 24.866-24.903 62.974 0 38.292 24.866 63.074 24.865 24.783 62.974 24.783Zm.008-87.848Zm0 420.805Z"/></svg>