<svg xmlns="http://www.w3.org/2000/svg" width="48" height="48" viewBox="0 96 960 960"><path d="M740.958 321.935q-32.632 0-55.827-23.327-23.196-23.327-23.196-56.028 0-32.702 23.238-55.859 23.238-23.156 55.869-23.156 32.632 0 55.828 23.238 23.196 23.238 23.196 55.869 0 32.632-23.238 55.947-23.238 23.316-55.87 23.316ZM664.065 483.63v-17.065q0-22.043-6.141-37.88-6.141-15.837-20.859-33.033 20.718-8.956 48.631-14.554Q713.609 375.5 741 375.5q29.397 0 56.385 5.859 26.987 5.858 52.289 16.38 21.165 9.501 33.278 28.025 12.114 18.524 12.114 40.801v17.065H664.065ZM219.118 321.935q-32.631 0-55.907-23.327-23.277-23.327-23.277-56.028 0-32.702 23.288-55.859 23.288-23.156 55.989-23.156 32.702 0 55.898 23.238 23.195 23.238 23.195 55.869 0 32.632-23.277 55.947-23.277 23.316-55.909 23.316ZM64.934 483.63v-17.065q0-22.277 12.114-40.801 12.113-18.524 33.278-28.025 25.302-10.522 52.289-16.38Q189.603 375.5 219 375.5q27.391 0 55.924 5.598 28.532 5.598 49.25 14.554-14.478 17.196-21.359 33.033-6.88 15.837-6.88 37.88v17.065h-231Zm415.024-161.695q-32.632 0-55.828-23.327-23.195-23.327-23.195-56.028 0-32.702 23.237-55.859 23.238-23.156 55.87-23.156t55.828 23.238q23.195 23.238 23.195 55.869 0 32.632-23.237 55.947-23.238 23.316-55.87 23.316ZM325.935 483.63v-17.065q0-22.277 12.125-40.801 12.126-18.524 33.266-28.025 25.317-10.522 52.32-16.38 27.003-5.859 56.418-5.859 29.414 0 56.374 5.859 26.96 5.858 52.236 16.38 21.14 9.501 33.266 28.025 12.125 18.524 12.125 40.801v17.065h-308.13Zm360.958 341.435q-32.632 0-55.947-23.237-23.316-23.238-23.316-55.87t23.327-55.828q23.327-23.195 56.029-23.195 32.701 0 55.858 23.237Q766 713.41 766 746.042t-23.238 55.828q-23.237 23.195-55.869 23.195ZM532.63 987v-17.304q0-22.068 12.246-40.696 12.245-18.629 33.385-27.891 25.317-10.761 52.201-16.62 26.883-5.859 56.417-5.859 29.534 0 56.494 5.859t52.236 16.62q21.164 9.262 33.278 27.891Q841 947.628 841 969.696V987H532.63ZM273.262 825.065q-32.632 0-55.947-23.237Q194 778.59 194 745.958t23.326-55.828q23.327-23.195 56.029-23.195 32.701 0 55.858 23.237 23.157 23.238 23.157 55.87t-23.238 55.828q-23.238 23.195-55.87 23.195ZM119 987v-17.304q0-22.068 12.113-40.696 12.114-18.629 33.278-27.891 25.317-10.761 52.32-16.62 27.003-5.859 56.537-5.859t56.375 5.859q26.84 5.859 52.116 16.62 21.14 9.262 33.385 27.891 12.246 18.628 12.246 40.696V987H119Zm360.867-263.782q-6.65 0-12.502-2.381-5.852-2.38-11.235-7.815l-74.043-74.044q-8.717-8.478-8.217-19.293t9.217-19.533q8.239-8.239 18.576-8.717 10.337-.478 19.294 7.522l31.413 32.413v-61.305q0-11.973 7.848-19.802 7.849-7.828 19.854-7.828 12.004 0 19.781 7.828 7.777 7.829 7.777 19.802v61.305l32.413-32.174q8.957-8 18.674-7.261 9.718.739 18.196 9.098 8.717 8.597 8.717 19.032t-8.717 18.913l-73.043 74.044q-5.383 5.435-11.369 7.815-5.985 2.381-12.634 2.381Z"/></svg>