<svg xmlns="http://www.w3.org/2000/svg" width="48" height="48" viewBox="0 -960 960 960"><path d="M479.28-154.02q-135.39 0-230.68-95.3-95.3-95.29-95.3-230.68t95.3-230.8q95.29-95.42 230.68-95.42 86.44 0 151.75 34.98 65.32 34.98 113.04 96.41v-99.95q0-13.48 8.85-22.46 8.86-8.98 22.46-8.98 13.6 0 22.58 8.98 8.97 8.98 8.97 22.46v197.35q0 14.67-9.81 24.36-9.82 9.7-24.49 9.7H575.04q-13.47 0-22.33-8.98-8.86-8.98-8.86-22.45 0-13.48 8.98-22.34 8.97-8.86 22.45-8.86h135.61q-38.24-59.04-96.28-95.45-58.04-36.4-135.33-36.4-108.04 0-182.94 74.9-74.91 74.91-74.91 182.95 0 108.04 74.91 182.95 74.9 74.9 182.94 74.9 73.09 0 136.65-38.07 63.57-38.06 95.81-102.91 6.43-12.2 19.49-18.05 13.05-5.86 25.73-.15 13.43 5.48 18.15 18.18 4.72 12.69-1 25.65-40.2 84.24-119.65 133.86-79.46 49.62-175.18 49.62Z"/></svg>