<svg xmlns="http://www.w3.org/2000/svg" width="48" height="48" viewBox="0 -960 960 960"><path d="M412.43-658.63q-12.75 0-21.37-8.68-8.63-8.67-8.63-21.5 0-12.82 8.63-21.32 8.62-8.5 21.37-8.5h167q12.75 0 21.38 8.67 8.62 8.68 8.62 21.5 0 12.83-8.62 21.33-8.63 8.5-21.38 8.5h-167ZM239-98.58q-21-21.21-21-51t21.21-50.79q21.21-21 51-21T341-200.16q21 21.22 21 51 0 29.79-21.21 50.79t-51 21Q260-77.37 239-98.58Zm404 0q-21-21.21-21-51t21.21-50.79q21.21-21 51-21T745-200.16q21 21.22 21 51 0 29.79-21.21 50.79t-51 21Q664-77.37 643-98.58ZM138.33-817.37H92q-13.87 0-23.25-9.46t-9.38-23.3q0-13.83 9.38-23.16 9.38-9.34 23.25-9.34h66.04q10.2 0 18.62 5.01 8.42 5 12.21 14.14L348.48-521.5h287.28l149.61-260.7q4.24-7.47 11.8-11.95 7.55-4.48 16.64-4.48 18.77 0 28.04 15.31 9.26 15.32.54 31.75L704.83-494.43q-11.48 19.47-29.51 31.45Q657.3-451 635.4-451H334.11l-54.33 101.37H736q13.87 0 23.25 9.46t9.38 23.3q0 13.83-9.38 23.16-9.38 9.34-23.25 9.34H284q-39.34 0-59.72-31.31-20.39-31.32-2.67-63.75L284.89-496 138.33-817.37Z"/></svg>