<svg xmlns="http://www.w3.org/2000/svg" width="48" height="48" viewBox="0 -960 960 960"><path d="M660.83-250.91 533.65-123.98q-9.08 9.2-22.83 9.58-13.75.38-23.95-9.7-10.2-10.31-10.2-24.97 0-14.66 9.96-24.41l125.7-125.69-126.7-126.94q-10.2-10.08-9.58-23.45.62-13.37 10.58-23.57 10.14-10.2 24.1-10.7 13.97-.5 23.92 9.46l126.18 126.94 126.93-126.94q9.96-9.96 24.01-9.46 14.06.5 24.01 10.58 10.2 10.08 10.2 23.51 0 13.44-10.2 23.63L709.09-299.17l126.69 126.93q10.2 10.2 10.2 24.13 0 13.94-10.2 24.01-10.19 10.08-24.13 9.58-13.93-.5-23.89-10.7L660.83-250.91Zm-537.11-536.9q-9.7-9.96-9.7-24.37t9.92-24.22q9.91-9.82 24.25-9.82 14.33 0 24.15 9.97 9.81 9.96 9.81 24.37 0 14.4-9.96 24.22-9.96 9.81-24.37 9.81t-24.1-9.96Zm166.07 0q-9.81-9.96-9.81-24.37t9.96-24.22q9.96-9.82 24.37-9.82t24.22 9.97q9.82 9.96 9.82 24.37 0 14.4-9.97 24.22-9.96 9.81-24.37 9.81-14.4 0-24.22-9.96Zm165.84 0q-9.7-9.96-9.7-24.37t9.88-24.22q9.87-9.82 24.37-9.82 14.49 0 24.19 9.97 9.7 9.96 9.7 24.37 0 14.4-9.88 24.22-9.87 9.81-24.37 9.81-14.49 0-24.19-9.96Zm166.08 0q-9.82-9.96-9.82-24.37t9.96-24.22q9.97-9.82 24.37-9.82 14.41 0 24.23 9.97 9.81 9.96 9.81 24.37 0 14.4-9.96 24.22-9.97 9.81-24.37 9.81-14.41 0-24.22-9.96Zm165.95 0q-9.81-9.96-9.81-24.37t9.96-24.22q9.96-9.82 24.37-9.82t24.22 9.97q9.82 9.96 9.82 24.37 0 14.4-9.97 24.22-9.96 9.81-24.37 9.81-14.4 0-24.22-9.96ZM289.79-123.94q-9.81-9.91-9.81-24.25 0-14.33 9.96-24.15 9.96-9.81 24.37-9.81t24.22 9.96q9.82 9.96 9.82 24.37t-9.97 24.1q-9.96 9.7-24.37 9.7-14.4 0-24.22-9.92ZM123.76-621.85q-9.74-9.97-9.74-24.37 0-14.41 9.92-24.23 9.91-9.81 24.25-9.81 14.33 0 25.94 10.95 11.61 10.94 11.61 25.32t-11.78 23.24q-11.79 8.86-26.12 8.86-14.34 0-24.08-9.96Zm-.04 166.04q-9.7-9.87-9.7-24.37 0-14.49 9.92-24.19 9.91-9.7 24.25-9.7 14.33 0 24.15 9.88 9.81 9.87 9.81 24.37 0 14.49-9.96 24.19-9.96 9.7-24.37 9.7t-24.1-9.88Zm0 165.87q-9.7-9.96-9.7-24.37t9.92-24.22q9.91-9.82 24.25-9.82 14.33 0 24.15 9.97 9.81 9.96 9.81 24.37 0 14.4-9.96 24.22-9.96 9.81-24.37 9.81t-24.1-9.96Zm0 166q-9.7-9.91-9.7-24.25 0-14.33 9.92-24.15 9.91-9.81 24.25-9.81 14.33 0 24.15 9.96 9.81 9.96 9.81 24.37t-9.96 24.1q-9.96 9.7-24.37 9.7t-24.1-9.92Zm663.94-497.91q-9.81-9.97-9.81-24.37 0-14.41 9.96-24.23 9.96-9.81 24.37-9.81t24.22 9.96q9.82 9.97 9.82 24.37 0 14.41-9.97 24.22-9.96 9.82-24.37 9.82-14.4 0-24.22-9.96Z"/></svg>