<svg xmlns="http://www.w3.org/2000/svg" width="48" height="48" viewBox="0 -960 960 960"><path d="M350-490.13h260q14.424 0 24.245-9.871 9.82-9.872 9.82-24.349 0-14.478-9.82-24.314Q624.424-558.5 610-558.5H350q-14.424 0-24.245 10.012-9.82 10.011-9.82 24.489 0 14.477 9.82 24.173 9.821 9.696 24.245 9.696ZM142.152-194.022q-27.599 0-47.865-20.265-20.265-20.266-20.265-47.865v-515.696q0-27.697 20.265-48.033 20.266-20.337 47.865-20.337h675.696q27.697 0 48.033 20.337 20.337 20.336 20.337 48.033v515.696q0 27.599-20.337 47.865-20.336 20.265-48.033 20.265h-184.5v45.935q0 14.424-9.955 24.245-9.955 9.82-24.35 9.82H360.957q-14.424 0-24.245-9.82-9.821-9.821-9.821-24.245v-45.935H142.152Zm0-68.13h675.696v-515.696H142.152v515.696Zm0 0v-515.696 515.696Z"/></svg>