<svg xmlns="http://www.w3.org/2000/svg" width="48" height="48" viewBox="0 96 960 960"><path d="M643.348 603.522h-35L257.196 253.37h522.543q31.022 0 44.098 23.652t-3.076 52.478L683.929 578.614q-5.864 10.712-14.625 17.451-8.76 6.739-25.956 7.457ZM287 977.63q-29.239 0-50.62-21-21.38-21-21.38-51t21.38-51q21.381-21 50.62-21 29.239 0 50.62 21 21.38 21 21.38 51t-21.38 51q-21.381 21-50.62 21Zm544.63 28.83L594.043 769.63H273.891q-39.87 0-58.848-29.054t1.218-62.25l71.195-117.239-86-185.565L64.13 237.957q-9.478-9.479-8.978-22.457.5-12.978 9.978-22.457 9.479-9.478 22.457-9.478 12.978 0 22.456 9.478l767.501 768.501q9.478 9.597 8.978 22.016-.5 12.418-9.978 21.9-9.479 9.47-22.592 9.97-13.114.5-22.322-8.97ZM528.304 704.37 430.174 603h-90.696l-62.043 101.37h250.869ZM688 977.63q-29 0-50.5-21t-21.5-51q0-30 21.5-51t50.5-21q29 0 50.5 21t21.5 51q0 30-21.5 51t-50.5 21Z"/></svg>