<svg xmlns="http://www.w3.org/2000/svg" width="48" height="48" viewBox="0 -960 960 960"><path d="M142.152-154.022q-27.599 0-47.865-20.265-20.265-20.266-20.265-47.865v-515.696q0-27.697 20.265-48.033 20.266-20.337 47.865-20.337h675.696q27.697 0 48.033 20.337 20.337 20.336 20.337 48.033v258.043q0 14.674-9.837 24.37-9.836 9.696-24.489 9.696t-24.349-9.696q-9.695-9.696-9.695-24.37v-170.217H142.152v427.87h292.543q14.674 0 24.37 9.695 9.696 9.696 9.696 24.37 0 14.674-9.696 24.37-9.696 9.695-24.37 9.695H142.152ZM757.609 5.022q-57.718 0-105.076-29.598-47.359-29.598-73.598-79.315-7.479-13.81-2.881-26.981 4.598-13.171 18.316-18.171 11.717-4.24 23.934 0 12.218 4.239 17.935 15.717Q654-99.804 686.283-79.783q32.282 20.022 71.422 20.022 56.947 0 97.349-40.241 40.402-40.242 40.402-97.326 0-57.085-40.402-97.368-40.402-40.282-97.445-40.282-25.664 0-48.843 8.924-23.179 8.924-41.983 26.293h22.978q13.239.718 21.739 9.985t8.5 22.457q0 13.906-9.253 23.123-9.254 9.218-23.138 9.218h-100q-13.957 0-23.055-9.25-9.098-9.251-9.098-23.142v-100q0-13.884 9.098-23.138 9.098-9.253 23.077-9.253 13.74 0 22.815 9.218 9.076 9.217 9.554 22.934v22.218q28.761-25.805 64.037-40.087 35.276-14.283 73.572-14.283 84.137 0 143.264 59.218Q960-281.326 960-197.25q0 84.076-59.127 143.174Q841.746 5.022 757.609 5.022Z"/></svg>