<svg xmlns="http://www.w3.org/2000/svg" width="48" height="48" viewBox="0 -960 960 960"><path d="m777.218-258.609-48.74-48.739 49.37-48.609v-248.096L604.053-777.848H355.957l-49.609 48.37-47.739-47.74 48.369-48.369q9.196-9.196 22.221-14.913 13.025-5.718 26.758-5.718h248.086q13.733 0 26.758 5.718 13.025 5.717 22.221 14.913l172.565 172.565q9.196 9.196 14.913 22.221 5.718 13.025 5.718 26.758v248.326q0 13.782-5.718 26.663-5.717 12.88-14.913 22.315l-48.369 48.13ZM511.435-524.63v-135.283q0-13.574-8.811-22.504-8.811-8.931-22.624-8.931-13 0-21.739 8.381-8.739 8.38-9.457 21.38v74.565l62.631 62.392ZM355.957-114.022q-13.914 0-26.848-5.478-12.935-5.478-22.131-14.674L134.413-306.739q-9.196-9.435-14.794-22.34-5.597-12.906-5.597-26.638v-248.326q0-13.733 5.597-26.758 5.598-13.025 14.794-22.221l36.609-35.608L47.13-812.043q-9.478-9.479-9.358-21.957.12-12.478 9.358-21.957 9.479-9.478 21.957-9.478 12.478 0 21.956 9.478L856.197-91.044q9.239 9.479 9.239 21.957 0 12.478-9.478 21.957-9.479 9.478-21.957 9.478-12.478 0-21.957-9.478L689.63-169.782l-36.847 36.608q-9.196 9.196-22.126 14.174-12.929 4.978-26.614 4.978H355.957Zm161.956-403.891ZM355.947-182.152h248.096l36.37-35.37-422.891-422.891-35.37 36.37v248.096l173.795 173.795ZM480-276.935q-15.285 0-26.458-11.172-11.172-11.173-11.172-26.458 0-15.286 11.172-26.458 11.173-11.173 26.458-11.173 15.285 0 26.458 11.173 11.172 11.172 11.172 26.458 0 15.285-11.172 26.458-11.173 11.172-26.458 11.172Zm-51.152-152.152Z"/></svg>