<svg xmlns="http://www.w3.org/2000/svg" width="48" height="48" viewBox="0 -960 960 960"><path d="M376.83-521q14.78-21.28 44.52-35.32 29.73-14.05 60.65-14.05 58.8 0 96.09 37.28 37.28 37.29 37.28 96.09 0 58.8-37.28 96.59-37.29 37.78-96.09 37.78-39.06 0-71.6-18.66-32.53-18.67-50.29-49.71-5-8-14.5-11.5t-17.26 1.5q-10 5-12.5 15.12t2.5 19.12q25.24 44.04 68.12 68.59 42.87 24.54 95.41 24.54 77.16 0 130.33-53.16 53.16-53.17 53.16-130.21t-53.28-130.21q-53.29-53.16-130.17-53.16-44.44 0-80.6 18.88-36.17 18.88-58.97 43.45v-48.08q0-8.95-6.55-15.41-6.55-6.47-15.62-6.47t-15.95 6.5q-6.88 6.5-6.88 15.5v103.89q0 10.26 7.85 18.19 7.86 7.92 18.02 7.92h106.13q9 0 15.5-7t6.5-16q0-9-6.5-15.5t-15.5-6.5h-52.52ZM222.15-74.02q-27.6 0-47.86-20.27-20.27-20.26-20.27-47.86v-675.7q0-27.7 20.27-48.03 20.26-20.34 47.86-20.34h312.89q13.65 0 26.72 5.72 13.07 5.72 22.26 14.91l201.57 201.57q9.19 9.19 14.91 22.26 5.72 13.07 5.72 26.72v472.89q0 27.6-20.34 47.86-20.33 20.27-48.03 20.27h-515.7Z"/></svg>