<svg xmlns="http://www.w3.org/2000/svg" width="48" height="48" viewBox="0 -960 960 960"><path d="M477.478-426.261 189.348-138.13q-10.435 10.195-24.109 10.195-13.674 0-23.63-10.195-10.435-10.196-10.435-23.87 0-13.674 10.435-23.87l397.087-397.326q-21.522-49.434-8.326-101.413 13.195-51.978 57.239-96.5 44.521-43.521 110.674-57.217 66.152-13.696 109.065 29.217 43.913 43.913 29.217 109.066-14.695 65.152-61.217 112.673-40.283 41.522-91.261 55.598-50.978 14.076-96.652-4.684L525.218-474l288.13 288.13q10.196 10.196 10.196 23.87 0 13.674-10.196 23.87-10.435 10.195-23.989 10.195-13.555 0-23.75-10.195L477.478-426.261Zm-190.826-43.065L168.609-587.37Q122.978-633 115.793-693.239q-7.184-60.239 25.816-113.391 8.956-13.196 24.25-15.196 15.293-2 27.489 10.196l218.043 217.565-124.739 124.739Z"/></svg>