<svg xmlns="http://www.w3.org/2000/svg" width="48" height="48" viewBox="0 96 960 960"><path d="M738.077 978.63q-13.993 0-23.285-9.381T705.5 946V658.63H656q-27.38 0-46.44-20.129-19.06-20.13-19.06-48.001V351q0-80.516 49.674-129.073T771 173.37V946q0 13.868-9.465 23.249-9.466 9.381-23.458 9.381Zm-423.202 0q-13.921 0-23.213-9.381-9.292-9.381-9.292-23.249V611.109q-53.196-10.761-91.848-54.055-38.653-43.293-38.653-103.955V206q0-13.868 9.348-23.249 9.348-9.381 23.341-9.381 13.903 0 23.357 9.381 9.455 9.381 9.455 23.249v247.37h65V206q0-13.868 9.417-23.249 9.417-9.381 23.338-9.381 13.921 0 23.213 9.381 9.292 9.381 9.292 23.249v247.37h65V206q0-13.868 9.63-23.249 9.63-9.381 23.533-9.381t23.24 9.381q9.337 9.381 9.337 23.249v247.099q0 60.662-38.772 103.955-38.772 43.294-91.968 54.055V946q0 13.868-9.417 23.249-9.417 9.381-23.338 9.381Z"/></svg>