<svg xmlns="http://www.w3.org/2000/svg" width="48" height="48" viewBox="0 -960 960 960"><path d="M348.565-74.5q-14.424 0-24.244-9.82-9.821-9.821-9.821-24.245v-37.848Q209.261-189.37 141.88-278.326 74.5-367.283 74.5-480q0-84.196 31.859-158.152 31.858-73.957 86.695-128.794 54.837-54.837 128.794-86.695Q395.804-885.5 480-885.5q84.196 0 158.152 31.859 73.957 31.858 128.794 86.695 54.837 54.837 86.695 128.794Q885.5-564.196 885.5-480q0 112.717-67.38 201.674-67.381 88.956-172.62 131.913v37.848q0 14.424-9.821 24.244-9.82 9.821-24.244 9.821h-262.87Zm45.5-408.565h171.87v-323.022q-21.544-5.522-43.087-8.402-21.544-2.881-42.848-2.881t-42.848 2.881q-21.543 2.88-43.087 8.402v323.022Zm-251.195 0h183.065v-295.957Q241.522-736.5 192.554-657.109q-48.967 79.392-49.684 174.044Zm491.195 0H817.13q-.717-94.652-49.684-174.044-48.968-79.391-133.381-121.913v295.957Z"/></svg>