<svg xmlns="http://www.w3.org/2000/svg" width="48" height="48" viewBox="0 -960 960 960"><path d="M480.239-692.957q-14.196 0-23.533-9.337-9.336-9.336-9.336-23.532v-127.761q0-14.196 9.336-23.413 9.337-9.218 23.533-9.218 14.196 0 23.413 9.337 9.218 9.337 9.218 23.533v127.761q0 14.196-9.218 23.413-9.217 9.217-23.413 9.217Zm206.087 89.283q-9.956-9.717-9.337-23.913.62-14.196 10.337-23.913l89.239-87.239q9.718-9.718 23.674-9.718 13.957 0 22.913 10.479 8.957 9.717 8.457 23.032-.5 13.316-9.457 22.033l-88 89q-9.717 9.717-23.793 9.837-14.076.119-24.033-9.598Zm-410.413-1q-8.956 10.717-22.533 10.717-13.576 0-23.293-9.956l-90-88q-9.957-9.957-10.457-23.533t9.696-23.532q9.717-9.718 23.794-9.479 14.076.239 23.793 9.957l89 90q8.957 8.717 8.957 21.413t-8.957 22.413ZM135.522-138.348l-93.761-93.761q-10.674-10.673-10.294-26.021.38-15.348 10.294-26.783 83.196-95.283 196.641-145.185Q351.848-480 480-480q128.152 0 241.837 49.663t196.641 145.424q9.674 11.435 10.055 26.783.38 15.348-10.055 26.021l-94 93.761q-8.717 8.957-25.869 9.837-17.153.881-27.827-7.315l-111.608-83.087q-6.957-5.478-10.315-12.435-3.359-6.956-3.359-14.913v-140.674q-41.044-15.521-82.87-21.663-41.826-6.141-82.63-6.141-40.804 0-82.63 6.141-41.826 6.142-82.87 21.663v140.674q0 7.957-3.359 14.913-3.358 6.957-10.076 12.435l-111.847 83.087q-12.957 9.717-27.968 8.957-15.011-.761-25.728-11.479Z"/></svg>