<svg xmlns="http://www.w3.org/2000/svg" width="48" height="48" viewBox="0 96 960 960"><path d="M525.304 984.065q-53.282 0-98.684-11.261-45.402-11.26-83.685-38.782-13.631-8.718-14.989-24.989-1.359-16.272 11.554-29.185 8.718-8.478 20.674-9.718 11.957-1.239 21.913 5 31.044 20.283 66.228 30.544 35.185 10.261 76.989 10.261 121.044 0 207.87-87.924Q820 740.087 820 620.239q0-120.326-86.272-208.098-86.271-87.771-199.902-90.402h-30.282l48.217 48.218q7.326 9.956 6.609 22.195-.718 12.239-10.435 21.957-9.957 9.956-23.631 9.956t-23.869-9.956l-104-104.239q-5.478-5.479-7.837-11.696T386.239 286q0-6.717 2.359-12.554 2.359-5.837 7.837-11.316l104-104q10.195-10.195 23.75-10.315 13.554-.119 23.75 10.315 9.717 9.718 10.076 22.794t-8.402 23.272l-48.217 48.217h30.282q72.565 1.674 137.228 31.533 64.663 29.858 113.305 79.597 48.641 49.74 77.402 115.859 28.761 66.12 28.761 140.837 0 149.196-106.337 256.511-106.337 107.315-256.729 107.315Zm-265.934-152q-6.957 0-12.674-2.358-5.718-2.359-11.196-7.837L55.739 642.109q-5.478-5.239-7.956-11.076-2.479-5.837-2.479-12.794 0-6.717 2.478-12.554 2.479-5.837 7.957-11.315L235.5 414.609q5.478-5.479 11.196-7.837 5.717-2.359 12.674-2.359 6.717 0 12.554 2.359 5.837 2.358 11.315 7.837L462.761 594.37q5.478 5.478 7.956 11.315 2.479 5.837 2.479 12.554 0 6.957-2.479 12.794-2.478 5.837-7.956 11.076L283.239 821.87q-5.478 5.478-11.315 7.837-5.837 2.358-12.554 2.358Z"/></svg>