<svg xmlns="http://www.w3.org/2000/svg" width="48" height="48" viewBox="0 96 960 960"><path d="m554.37 672.239-51-185q-3.24-11.717 4.206-22.196 7.445-10.478 19.708-10.478 8.759 0 15.658 5.274 6.899 5.273 9.058 13.683l38.565 141.456 38.805-141.456q2.108-8.41 8.724-13.683 6.617-5.274 15.588-5.274 12.56 0 20.058 10.098 7.499 10.098 4.26 22.576l-51 185q-3.239 12.718-13.453 18.957-10.214 6.239-22.956 6.239-12.743 0-22.863-6.239-10.119-6.239-13.358-18.957ZM64.022 697.435q-11.012 0-18.234-7.207-7.223-7.206-7.223-18.228V488.63q0-14.423 9.82-24.244 9.822-9.821 24.245-9.821h111.935q22.754 0 36.812 14.058 14.058 14.058 14.058 36.812v55.13q0 17.957-11 30.696t-26.522 18.217l21.283 53.044q5.478 12.956-2.318 23.935-7.796 10.978-21.847 10.978-8.27 0-14.129-4.239t-9.098-11.718l-27.875-70.043H89.435V672q0 11.022-7.2 18.228-7.2 7.207-18.213 7.207Zm25.413-136.87h95.13v-55.13h-95.13v55.13Zm660.587 136.87q-11.012 0-18.234-7.207-7.223-7.206-7.223-18.228V488.63q0-14.423 9.821-24.244t24.244-9.821h111.935q22.754 0 36.812 14.058 14.058 14.058 14.058 36.812v55.13q0 22.515-14.058 36.692-14.058 14.178-36.812 14.178h-95.13V672q0 11.022-7.2 18.228-7.201 7.207-18.213 7.207Zm25.413-136.87h95.13v-55.13h-95.13v55.13ZM310 697.435q-11.022 0-18.228-7.2-7.207-7.201-7.207-18.213t7.207-18.234q7.206-7.223 18.228-7.223h94.565v-45.13H318.63q-14.423 0-24.244-9.821t-9.821-24.244v-78.74q0-14.423 9.821-24.244t24.244-9.821H430q11.022 0 18.228 7.2 7.207 7.201 7.207 18.213t-7.207 18.234q-7.206 7.223-18.228 7.223h-94.565v45.13h85.935q14.423 0 24.244 9.821t9.821 24.244v78.74q0 14.423-9.821 24.244t-24.244 9.821H310Z"/></svg>