<svg xmlns="http://www.w3.org/2000/svg" width="48" height="48" viewBox="0 -960 960 960"><path d="M522.37-381.891 471.522-437.5l-15.044 75.978q-2.339 13.699-14.863 21.643-12.525 7.944-26.159 5.466l-93.13-19.522q-6.462-1.937-10.329-7.072-3.867-5.134-1.867-11.602 2-6.717 7.446-10.837 5.446-4.119 12.27-2.119l94.799 19.522 41.246-205.935L395-545.174v48.044q0 6.478-4.869 11.337-4.869 4.858-11.361 4.858-6.683 0-11.542-4.858-4.858-4.859-4.858-11.337v-48.326q0-11.073 6.199-19.663T385-577.043l106.326-38.522q14.239-5 26.674-.224 12.435 4.776 18.761 18.941 18.424 38.054 41.233 56.429 22.81 18.376 40.81 23.376 6.526 2.478 11.361 7.337 4.835 4.858 4.835 12.23 0 6.85-4.835 11.196-4.835 4.345-11.361 2.106-21-6-47.761-23.402-26.76-17.402-50.521-48.446l-18.283 104.413 43.804 46.566q4.5 5.777 6.729 11.365Q555-388.089 555-381.159v124.029q0 6.478-4.869 11.337-4.869 4.858-11.361 4.858-6.683 0-11.542-4.834-4.858-4.835-4.858-11.615v-124.507Zm7.75-256.674q-12.694 0-22.124-9.413-9.431-9.412-9.431-22.022 0-13.813 9.413-22.624 9.412-8.811 22.022-8.811 13.813 0 22.624 8.811 8.811 8.811 8.811 22.504 0 12.694-8.811 22.124-8.811 9.431-22.504 9.431ZM480.033-74.022q-83.468 0-157.541-31.878-74.073-31.879-129.393-87.199-55.32-55.32-87.199-129.36-31.878-74.04-31.878-157.508 0-84.468 31.878-158.541 31.879-74.073 87.161-128.906 55.283-54.832 129.341-86.818 74.057-31.986 157.545-31.986 84.488 0 158.589 31.968 74.102 31.967 128.916 86.768 54.815 54.801 86.79 128.883Q886.218-564.516 886.218-480q0 83.501-31.986 157.57-31.986 74.069-86.818 129.36-54.833 55.291-128.873 87.17-74.04 31.878-158.508 31.878Zm-.033-68.13q141.043 0 239.446-98.752Q817.848-339.656 817.848-480q0-141.043-98.402-239.446-98.403-98.402-239.566-98.402-140.163 0-238.945 98.402-98.783 98.403-98.783 239.566 0 140.163 98.752 238.945Q339.656-142.152 480-142.152Z"/></svg>