<svg xmlns="http://www.w3.org/2000/svg" width="48" height="48" viewBox="0 -960 960 960"><path d="M480-293.261q78.644 0 135.344-56.679 56.699-56.679 56.699-135.224 0-78.545-56.728-135.245-56.729-56.7-135.344-56.7t-135.195 56.685q-56.58 56.686-56.58 135.239 0 78.554 56.58 135.239T480-293.261Zm18.435-194.528 68.761 62.767q6.239 5.478 6.619 13.935.381 8.456-5.929 14.739-5.309 5.478-13.367 5.978-8.057.5-14.476-4.978l-75.282-69.282q-5.478-5.205-8.337-11.404-2.859-6.198-2.859-13.227v-100.785q0-9.785 6.325-16.119 6.324-6.335 15.956-6.335t16.111 6.335q6.478 6.334 6.478 16.1v102.276ZM480-78.261q-5.717 0-10.935-1.12-5.217-1.119-10.695-3.358-140.196-47-222.272-170.675Q154.022-377.09 154.022-523v-194.326q0-21.631 12.315-39.402 12.315-17.772 31.946-25.49L456.13-878.5q12.196-4.478 23.87-4.478 11.674 0 23.87 4.478l257.847 96.282q19.631 7.718 32.066 25.49 12.435 17.771 12.435 39.402V-523q0 145.91-82.196 269.586Q641.826-129.739 501.63-82.739q-5.478 2.24-10.695 3.359-5.218 1.12-10.935 1.12Z"/></svg>