<svg xmlns="http://www.w3.org/2000/svg" width="48" height="48" viewBox="0 0 48 48"><path d="M34.95 42.65q-3.25 0-5.475-2.25-2.225-2.25-2.225-5.45 0-3.25 2.225-5.475Q31.7 27.25 34.95 27.25q3.2 0 5.45 2.225t2.25 5.475q0 3.2-2.25 5.45t-5.45 2.25Zm-4.25-3.4q2.3 0 3.85-1.55 1.55-1.55 1.55-3.9 0-2.3-1.55-3.85-1.55-1.55-3.9-1.55-2.3 0-3.85 1.55-1.55 1.55-1.55 3.9 0 2.3 1.55 3.85 1.55 1.55 3.9 1.55Zm4.25-4.3Zm-17.6 1.15q-2.8 0-4.7-1.925-1.9-1.925-1.9-4.675t1.9-4.65q1.9-1.9 4.7-1.9 2.75 0 4.65 1.9 1.9 1.9 1.9 4.65 0 2.8-1.9 4.7-1.9 1.9-4.65 1.9Zm-4.3-3.4q1.8 0 3.05-1.25 1.25-1.25 1.25-3.05 0-1.8-1.25-3.05-1.25-1.25-3.05-1.25-1.8 0-3.05 1.25-1.25 1.25-1.25 3.05 0 1.8 1.25 3.05 1.25 1.25 3.05 1.25Zm0-4.3Zm9-9.45q-3.2 0-5.45-2.225t-2.25-5.475q0-3.2 2.25-5.45t5.45-2.25q3.25 0 5.475 2.25 2.225 2.25 2.225 5.45 0 3.25-2.225 5.475Q25.3 18.95 22.05 18.95Zm0-3.4q1.85 0 3.075-1.225t1.225-3.075q0-1.85-1.225-3.05Q23.9 7 22.05 7t-3.075 1.2q-1.225 1.2-1.225 3.05 0 1.85 1.225 3.075t3.075 1.225Zm0-4.3Z"/></svg>