<svg xmlns="http://www.w3.org/2000/svg" width="48" height="48" viewBox="0 96 960 960"><path d="M619.913 851.522q-13.478 0-27.033-5.218-13.554-5.217-24.989-16.652L249.587 511.109q-11.196-10.957-16.413-24.571-5.217-13.614-5.217-27.173 0-14.669 5.217-27.724 5.217-13.054 16.413-24.489l153.565-152.565q11.435-11.196 24.984-16.913 13.548-5.717 27.234-5.717 12.282 0 23.782 4.617t21.739 13.976l6 6v156.82q0 66.391 44.674 111.065 44.674 44.674 111.065 44.674h157.82l9 10q8.311 10.239 13.072 21.662 4.761 11.422 4.761 24.338 0 14.435-5.098 27.609-5.098 13.173-16.294 24.369L672.087 829.652q-11.196 11.435-24.393 16.652-13.197 5.218-27.781 5.218Zm-49.391 171.718q-9 1-17.761 1.5t-19.301.5q-95.049 0-179.396-34.881-84.347-34.881-148.347-95.642-64-60.76-103.619-142.141-39.62-81.38-45.62-175.141-1.239-12.478 7.74-21.837 8.978-9.359 22.633-9.359 12.617 0 21.95 8.79 9.332 8.79 10.547 22.406 11 147.652 113.511 253.619Q335.37 937.022 481.065 953.217l-103.022-103.26q-8.717-8.561-8.717-22.035 0-13.475 9.717-23.036 8.543-8.56 21.989-8.56 13.446 0 23.164 8.478l163.282 164.283q18.718 18.717 13.349 35.443-5.37 16.73-30.305 18.71Zm94.108-569.87q-15 0-27.5-12.5t-12.5-27.5v-120q0-15 12.5-27.5t27.5-12.5h1v-42q0-33 22.5-55.5t55.5-22.5q33 0 55.5 22.5t22.5 55.5v42h2q15 0 27.5 12.5t12.5 27.5v120q0 15-12.5 27.5t-27.5 12.5h-159Zm39-200h80v-42q0-18-11-29t-29-11q-18 0-29 11t-11 29v42Z"/></svg>