<svg xmlns="http://www.w3.org/2000/svg" width="48" height="48" viewBox="0 -960 960 960"><path d="M458-420q22 0 41.5-7.5T538-446l69 69q7 7 16 7t16-7q7-7 7-16t-7-16l-72-72q11-17 18.5-35.5T593-555q0-57-39-96t-96-39q-57 0-96 39t-39 96q0 57 39 96t96 39Zm0-50q-35 0-60-25t-25-60q0-35 25-60t60-25q35 0 60 25t25 60q0 35-25 60t-60 25ZM65.876-111.152q-13.659 0-22.517-8.96-8.86-8.961-8.86-22.475 0-13.616 8.86-22.525 8.858-8.91 22.517-8.91h828.248q13.659 0 22.517 8.882 8.859 8.882 8.859 22.457 0 13.574-8.859 22.553-8.858 8.978-22.517 8.978H65.876Zm76.276-122.87q-27.599 0-47.865-20.265-20.265-20.266-20.265-47.865v-475.696q0-27.697 20.265-48.033 20.266-20.337 47.865-20.337h675.696q27.697 0 48.033 20.337 20.337 20.336 20.337 48.033v475.696q0 27.599-20.337 47.865-20.336 20.265-48.033 20.265H142.152Z"/></svg>