<svg xmlns="http://www.w3.org/2000/svg" width="48" height="48" viewBox="0 -960 960 960"><path d="M458-420q22.086 0 41.543-7.5T538-446l69 69q7 7 16 7t16-6.588Q646-384 646-393t-7-16l-72-72q11-17 18.5-35.356T593-555q0-57-39-96t-96-39q-57 0-96 39.075-39 39.076-39 96Q323-498 362-459t96 39Zm.044-50Q423-470 398-494.956q-25-24.955-25-60Q373-590 397.969-615T458-640q35 0 60 24.956 25 24.955 25 60Q543-520 518.044-495q-24.955 25-60 25ZM65.876-111.152q-13.504 0-22.44-9.088-8.936-9.088-8.936-22.522 0-13.435 8.936-22.347 8.936-8.913 22.44-8.913h828.248q13.504 0 22.44 9.062 8.936 9.061 8.936 22.456t-8.936 22.374q-8.936 8.978-22.44 8.978H65.876Zm76.276-122.87q-27.599 0-47.865-20.265-20.265-20.266-20.265-47.865v-475.696q0-27.697 20.265-48.033 20.266-20.337 47.865-20.337h675.696q27.697 0 48.033 20.337 20.337 20.336 20.337 48.033v475.696q0 27.599-20.337 47.865-20.336 20.265-48.033 20.265H142.152Zm0-68.13h675.696v-475.696H142.152v475.696Zm0 0v-475.696 475.696Z"/></svg>