<svg xmlns="http://www.w3.org/2000/svg" width="48" height="48" viewBox="0 -960 960 960"><path d="m202.37-223.196 46-194.282q5-21.479 18.597-37.196 13.598-15.717 36.316-22.956l381.804-116.761 81.522-169.566q1-2.239 6.717-9.956l90.717-90.239q8.718-8.478 20.294-7.978t20.772 9.217q8.717 8.717 8.598 19.793-.12 11.077-7.598 19.794l-83.761 91.761-64.478 177.282q-2 5.479-5.098 8.957-3.098 3.478-7.576 6.717l-188 132-237.044 74.761-59.522 138.805q-1 2-1.619 3.478-.62 1.478-1.859 3.478l-93 123.761q-8.478 10.717-21.674 12.837-13.195 2.12-24.152-6.359-10.717-8.478-12.837-21.793-2.119-13.316 6.359-24.033l90.522-121.522ZM108.456-364.37q-30.956 0-53.413-22.217Q32.587-408.804 32.587-440q0-31.196 22.456-53.413Q77.5-515.63 108.456-515.63q31.196 0 53.533 22.217T184.326-440q0 31.196-22.337 53.413-22.337 22.217-53.533 22.217Zm222.631-171.978q-20.957 6.478-39.533-4.619-18.576-11.098-24.815-32.294-5.478-20.957 4.62-39.533 10.097-18.576 31.293-24.815l151.326-46.478q13.674-4.478 26.848 2.859t16.652 21.01l9.044 36.609q3.239 13.674-2.859 24.989-6.098 11.316-19.772 15.794l-152.804 46.478Z"/></svg>