<svg xmlns="http://www.w3.org/2000/svg" width="48" height="48" viewBox="0 96 960 960"><path d="M479.825 663.109q-12.825 0-21.325-8.625t-8.5-21.375V425.587q0-12.75 8.675-21.375 8.676-8.625 21.5-8.625 12.825 0 21.325 8.625t8.5 21.375v207.522q0 12.75-8.675 21.375-8.676 8.625-21.5 8.625Zm.193 103.543q-14.018 0-23.518-9.482-9.5-9.483-9.5-23.5 0-13.779 9.482-23.398 9.483-9.62 23.5-9.62 14.018 0 23.518 9.602t9.5 23.381q0 14.017-9.482 23.517-9.483 9.5-23.5 9.5ZM262.63 1021.5q-28.103 0-48.117-20.01-20.013-20.017-20.013-48.12V198.63q0-28.103 20.013-48.117Q234.527 130.5 262.63 130.5h434.74q28.103 0 48.117 20.013Q765.5 170.527 765.5 198.63v754.74q0 28.103-20.013 48.12-20.014 20.01-48.117 20.01H262.63Zm0-158.13h434.74V288.63H262.63v574.74Z"/></svg>