<svg xmlns="http://www.w3.org/2000/svg" width="48" height="48" viewBox="0 -960 960 960"><path d="M147.819-777.848q-14.406 0-24.102-9.963-9.695-9.964-9.695-24.37t9.915-24.221q9.915-9.816 24.25-9.816t24.15 10.006q9.815 10.006 9.815 24.474 0 14.367-9.963 24.129-9.964 9.761-24.37 9.761Zm166.049 0q-14.367 0-24.128-9.963-9.762-9.964-9.762-24.37t9.964-24.221q9.963-9.816 24.369-9.816t24.222 10.006q9.815 10.006 9.815 24.474 0 14.367-10.006 24.129-10.005 9.761-24.474 9.761Zm165.957 0q-14.499 0-24.195-9.963-9.695-9.964-9.695-24.37t9.871-24.221q9.871-9.816 24.369-9.816 14.499 0 24.195 10.006 9.695 10.006 9.695 24.474 0 14.367-9.871 24.129-9.871 9.761-24.369 9.761Zm166.103 0q-14.406 0-24.222-9.963-9.815-9.964-9.815-24.37t10.006-24.221q10.006-9.816 24.474-9.816 14.367 0 24.129 10.006 9.761 10.006 9.761 24.474 0 14.367-9.963 24.129-9.964 9.761-24.37 9.761Zm165.81 0q-14.367 0-24.129-9.963-9.761-9.964-9.761-24.37t9.963-24.221q9.964-9.816 24.37-9.816t24.221 10.006q9.816 10.006 9.816 24.474 0 14.367-10.006 24.129-10.006 9.761-24.474 9.761ZM147.819-611.891q-14.406 0-24.102-10.006-9.695-10.006-9.695-24.474 0-14.367 9.915-24.129 9.915-9.761 24.25-9.761t24.15 9.963q9.815 9.964 9.815 24.37t-9.963 24.222q-9.964 9.815-24.37 9.815Zm663.919 0q-14.367 0-24.129-10.006-9.761-10.006-9.761-24.474 0-14.367 9.963-24.129 9.964-9.761 24.37-9.761t24.221 9.963q9.816 9.964 9.816 24.37t-10.006 24.222q-10.006 9.815-24.474 9.815ZM147.819-445.935q-14.406 0-24.102-9.871-9.695-9.871-9.695-24.369 0-14.499 9.915-24.195 9.915-9.695 24.25-9.695t24.15 9.871q9.815 9.871 9.815 24.369 0 14.499-9.963 24.195-9.964 9.695-24.37 9.695Zm663.919 0q-14.367 0-24.129-9.871-9.761-9.871-9.761-24.369 0-14.499 9.963-24.195 9.964-9.695 24.37-9.695t24.221 9.871q9.816 9.871 9.816 24.369 0 14.499-10.006 24.195-10.006 9.695-24.474 9.695ZM147.819-279.978q-14.406 0-24.102-9.964-9.695-9.963-9.695-24.369t9.915-24.222q9.915-9.815 24.25-9.815t24.15 10.006q9.815 10.005 9.815 24.474 0 14.367-9.963 24.128-9.964 9.762-24.37 9.762Zm663.919 0q-14.367 0-24.129-9.964-9.761-9.963-9.761-24.369t9.963-24.222q9.964-9.815 24.37-9.815t24.221 10.006q9.816 10.005 9.816 24.474 0 14.367-10.006 24.128-10.006 9.762-24.474 9.762ZM147.819-114.022q-14.406 0-24.102-9.915-9.695-9.915-9.695-24.25t9.915-24.15q9.915-9.815 24.25-9.815t24.15 9.963q9.815 9.964 9.815 24.37t-9.963 24.102q-9.964 9.695-24.37 9.695Zm166.049 0q-14.367 0-24.128-9.915-9.762-9.915-9.762-24.25t9.964-24.15q9.963-9.815 24.369-9.815t24.222 9.963q9.815 9.964 9.815 24.37t-10.006 24.102q-10.005 9.695-24.474 9.695Zm165.957 0q-14.499 0-24.195-9.915-9.695-9.915-9.695-24.25t9.871-24.15q9.871-9.815 24.369-9.815 14.499 0 24.195 9.963 9.695 9.964 9.695 24.37t-9.871 24.102q-9.871 9.695-24.369 9.695Zm166.103 0q-14.406 0-24.222-9.915-9.815-9.915-9.815-24.25t10.006-24.15q10.006-9.815 24.474-9.815 14.367 0 24.129 9.963 9.761 9.964 9.761 24.37t-9.963 24.102q-9.964 9.695-24.37 9.695Zm165.81 0q-14.367 0-24.129-9.915-9.761-9.915-9.761-24.25t9.963-24.15q9.964-9.815 24.37-9.815t24.221 9.963q9.816 9.964 9.816 24.37t-10.006 24.102q-10.006 9.695-24.474 9.695Zm-463.39-165.956q-28.448 0-48.409-19.961t-19.961-48.409v-263.543q0-28.448 19.961-48.409t48.409-19.961h263.543q28.448 0 48.409 19.961t19.961 48.409v263.543q0 28.448-19.961 48.409t-48.409 19.961H348.348Zm0-68.37h263.543v-263.543H348.348v263.543Z"/></svg>