<svg xmlns="http://www.w3.org/2000/svg" width="48" height="48" viewBox="0 -960 960 960"><path d="M437.2-475.7ZM220.91-65.65h136q13.65 0 23.98-9.91 10.33-9.92 10.33-24.25 0-13.58-10.33-23.9-10.33-10.31-23.98-10.31h-136v-470.26l215.81-213.33L653-602.52v124.61q0 13.67 9.89 23.49 9.88 9.81 24.18 9.81 13.91 0 24.1-9.95 10.2-9.96 10.2-24.35v-122.61q0-12.68-6.1-26.11-6.1-13.44-15.29-22.39L483.22-865.83q-10.27-9.95-22.55-15.17-12.28-5.22-24.95-5.22-13.68 0-26.11 5.1-12.44 5.1-22.87 15.29L172.17-651.02q-10.19 10.19-14.79 23.13-4.6 12.93-4.6 25.61v468.74q0 27.87 20.01 47.88t48.12 20.01Zm216.17-552.92q-21.88 0-37-14.83-15.11-14.83-14.65-36.93-.47-20.76 14.39-35.52 14.86-14.76 37.38-14.76 21.76 0 36.88 14.76 15.12 14.76 14.4 35.52.72 22-14.4 36.88-15.12 14.88-37 14.88Zm91.77 553.16q-53.06 0-89.28-36.29t-36.22-89.45q0-49.33 33.36-85.08t82.79-39.94q17.96-37.48 52.53-58.98 34.58-21.5 76.9-21.5 50.71 0 92.68 26.26 41.98 26.26 50.5 74.22h2q43.72 1.91 71.98 35.73 28.26 33.83 28.26 79.53 0 47.45-30.23 81.48-30.22 34.02-75.27 34.02h-260Zm0-65.74h250q20 0 35-14.5t15-35.97q0-19.81-15-34.67-15-14.86-35-14.86h-40l1.67-8.09q.24-37.72-26.88-64.81-27.11-27.1-64.64-27.1-28.63 0-50.87 16.2T565.65-272l-6.8 20.85h-30q-25.5 0-42.75 17.47t-17.25 43q0 25.53 17.25 42.53t42.75 17Zm120 0Z"/></svg>