<svg xmlns="http://www.w3.org/2000/svg" width="48" height="48" viewBox="0 -960 960 960"><path d="M726-451H510q-12.75 0-21.375-8.675-8.625-8.676-8.625-21.5 0-12.825 8.625-21.325T510-511h216l-61-60q-9-8.25-9-20.625T665-613q9-9 21-9t21 9l107.891 107.891q10.196 10.37 10.196 24.196 0 13.826-10.196 24.022L707-349q-8.25 8.25-20.625 8.625T665-349q-9-9-9-21t9-21l61-60ZM262.63-34.5q-28.103 0-48.117-20.013Q194.5-74.527 194.5-102.63v-754.74q0-28.103 20.013-48.117Q234.527-925.5 262.63-925.5h434.74q28.103 0 48.117 20.013Q765.5-885.473 765.5-857.37V-714h-68.13v-53.37H262.63v574.74h434.74V-246h68.13v143.37q0 28.103-20.013 48.117Q725.473-34.5 697.37-34.5H262.63Zm0-98.13v30h434.74v-30H262.63Zm0-694.74h434.74v-30H262.63v30Zm0 0v-30 30Zm0 694.74v30-30Z"/></svg>