<svg xmlns="http://www.w3.org/2000/svg" width="48" height="48" viewBox="0 -960 960 960"><path d="M480-226.13q-105.978 0-179.924-73.946Q226.13-374.022 226.13-480q0-105.978 73.946-179.924Q374.022-733.87 480-733.87q105.978 0 179.924 73.946Q733.87-585.978 733.87-480q0 105.978-73.946 179.924Q585.978-226.13 480-226.13ZM818.761-480q0-44.043-10.641-84.206-10.642-40.164-29.924-75.685-6.479-12.435-4.239-26.25 2.239-13.816 14.434-21.533 11.957-8.478 25.392-4.239 13.435 4.239 20.913 16.435 24.761 44.239 37.641 92.858Q885.218-534 885.218-480q0 54-12.881 103.239-12.88 49.239-37.641 93.239-7.478 12.435-20.913 16.055-13.435 3.619-25.392-4.859-12.195-7.717-14.434-21.533-2.24-13.815 4.239-26.25 19.282-35.521 29.924-75.685 10.641-40.163 10.641-84.206Zm-678.283 0q0 44.043 10.642 84.206 10.641 40.164 29.923 75.685 6.479 12.435 4.24 26.25-2.24 13.816-14.435 21.533-11.957 8.478-25.892 4.859-13.934-3.62-20.413-16.055-24.76-44-37.641-93.239Q74.022-426 74.022-480q0-54 12.88-102.62 12.88-48.619 37.641-92.858 7.239-12.196 20.794-16.435 13.554-4.239 25.511 4.239 12.195 7.717 14.435 21.533 2.239 13.815-4.24 26.25-19.282 35.521-29.923 75.685-10.642 40.163-10.642 84.206Z"/></svg>