<svg xmlns="http://www.w3.org/2000/svg" width="48" height="48" viewBox="0 -960 960 960"><path d="M797.978-76.304 314.609-558.435q-8.239 17.478-12.739 37.718-4.5 20.239-4.5 40.717 0 29 8.26 55.38 8.261 26.381 24.022 48.381 8 11.956 7.5 25.652-.5 13.696-9.978 23.413-9.957 9.718-22.913 9.218-12.957-.5-21.674-11.218-23.478-30.956-37.098-69.293-13.62-38.337-13.62-81.533 0-35.435 9.098-67.37 9.098-31.934 25.815-59.13l-70.326-70.087q-29.478 42.478-45.717 91.935Q134.5-535.196 134.5-480q0 63.239 21.119 118.217 21.12 54.979 58.12 100.457 8.478 10.956 8.859 24.652.38 13.696-9.337 23.652-9.718 9.718-24.174 9.098-14.457-.619-24.174-12.337-45.718-53.195-70.815-120.25Q69-403.565 69-480q0-69.152 21.217-131.065 21.218-61.913 58.652-113.348l-73.565-73.565q-9.239-9.24-9.359-22.218-.12-12.978 9.36-22.456 9.477-9.479 22.456-9.479 12.978 0 22.456 9.479l722.435 722.435q9.239 9.239 9.239 21.956 0 12.718-9.239 21.957-9.478 9.478-22.337 9.478-12.858 0-22.337-9.478Zm14.544-163.631L765.218-287q28.521-42 44.402-90.5Q825.5-426 825.5-480q0-63.478-21.119-118.576-21.12-55.098-58.12-100.576-8.717-10.957-8.859-25.033-.141-14.076 9.576-23.793 9.718-9.718 24.674-8.718 14.957 1 23.674 12.718 45.718 54.434 70.696 121.369Q891-555.674 891-480q0 67.196-20.619 127.652-20.62 60.457-57.859 112.413ZM695.37-357.087l-49.022-49.022q7.761-16.282 12.022-35.326 4.26-19.043 4.26-38.565 0-29-8.26-55.5-8.261-26.5-24.022-48.5-8.239-11.957-7.739-25.533.5-13.576 10.217-23.293 9.718-9.718 22.913-9.218 13.196.5 21.674 11.218 23.478 30.956 37.218 69.413Q728.37-522.957 728.37-480q0 33.478-8.62 64.457-8.619 30.978-24.38 58.456Z"/></svg>