<svg xmlns="http://www.w3.org/2000/svg" width="48" height="48" viewBox="0 -960 960 960"><path d="M480-74.022q-84.196 0-158.391-31.858-74.196-31.859-129.033-87.196-54.837-55.337-86.696-129.38-31.858-74.043-31.858-157.511 0-84.468 31.858-158.544 31.859-74.076 86.732-128.926 54.873-54.849 129.032-86.815 74.16-31.966 158.356-31.966t157.855 31.948q73.66 31.947 129.032 86.765 55.372 54.817 87.352 128.903Q886.218-564.516 886.218-480q0 83.501-31.966 157.573t-87.315 129.38q-55.35 55.308-129.046 87.167Q564.196-74.022 480-74.022Zm0-68.13q140.283 0 239.065-98.741 98.783-98.741 98.783-239.065 0-141.325-98.783-239.607-98.782-98.283-238.945-98.283-141.163 0-239.566 98.241-98.402 98.241-98.402 239.565 0 140.325 98.373 239.107Q338.897-142.152 480-142.152Zm138.565-349.413q23.478 0 39.457-15.978Q674-523.522 674-547q0-13.085-5.38-24.043-5.381-10.957-15.142-19.435l8.326-4.044q8.239-3.9 10.359-12.088 2.12-8.187-2.88-16.506t-13.185-10.938q-8.185-2.62-16.489 2.38l-90.283 52.761q-8.304 5.088-10.63 14.001-2.326 8.912 4.869 21.586 2.761 5.669 9.141 7.095 6.381 1.427 12.142-1.573l-.239.239q3.478 20 18.647 33 15.169 13 35.309 13Zm-277.13 0q20.146 0 35.32-13t18.883-33l-.486-.239q5.761 3 12.171.802 6.411-2.199 12.068-12.23 4.239-8.315 2-16.498-2.239-8.183-10.478-13.183l-91.505-52.746q-7.495-4.254-16.093-2.515-8.598 1.739-12.598 9.962-5 8.224-2.38 16.957t10.859 12.733l7.565 4.044q-10 8.478-15.381 19.435Q286-560.085 286-547q0 23.478 15.978 39.457 15.979 15.978 39.457 15.978Zm138.462 52.413q-69.343 0-121.239 46.337-51.897 46.337-77.18 112.815h397.044q-26.044-65.717-77.663-112.435-51.62-46.717-120.962-46.717ZM480-480Z"/></svg>