<svg xmlns="http://www.w3.org/2000/svg" width="48" height="48" viewBox="0 96 960 960"><path d="M282.565 506.435q8.239 8.239 18.837 8.119 10.598-.119 19.076-8.358L347 479.674l26.761 26.522q7.68 8.239 18.557 8.239 10.878 0 19.117-8.12 8.239-8.119 8.359-18.956.119-10.837-8.12-19.076l-40.804-40.566q-5.479-5.478-11.376-7.837-5.898-2.358-12.638-2.358-6.695 0-12.471 2.358-5.776 2.359-11.255 7.837l-40.565 40.566q-8.239 7.984-8.239 18.948 0 10.965 8.239 19.204Zm267.034-.239q7.91 8.239 18.775 8.239 10.865 0 19.104-8.239l26.636-26.522 26.647 26.522q7.953 8.239 18.837 8.239 10.883 0 18.837-8.12 8.239-7.756 8.239-18.72 0-10.965-8.239-19.312l-40.565-40.566q-5.479-5.478-11.462-7.837-5.984-2.358-12.366-2.358-6.636 0-12.535 2.358-5.898 2.359-11.377 7.837l-40.565 40.566q-8.239 7.953-8.239 18.956t8.273 18.957Zm-69.3 475.782q-84.202 0-158.041-31.878-73.839-31.879-129.159-87.199-55.32-55.32-87.199-129.201-31.878-73.88-31.878-158.167t31.878-158.2q31.879-73.914 87.161-128.747 55.283-54.832 129.181-86.818 73.899-31.986 158.205-31.986 84.307 0 158.249 31.968 73.942 31.967 128.756 86.768 54.815 54.801 86.79 128.883 31.976 74.083 31.976 158.333 0 84.235-31.986 158.07t-86.818 128.942q-54.833 55.107-128.873 87.169-74.04 32.063-158.242 32.063ZM480 576Zm.364 337.848q140.679 0 239.082-98.727 98.402-98.726 98.402-239.565t-98.371-239.121q-98.37-98.283-238.989-98.283-140.799 0-239.568 98.241-98.768 98.241-98.768 239.08 0 140.838 98.766 239.607 98.767 98.768 239.446 98.768ZM480.12 795q56.88 0 107.26-26.988 50.381-26.988 79.381-74.773 8.717-12.956 1.601-22.674-7.116-9.717-22.128-9.717H313.639q-15.011 0-21.564 9.717-6.553 9.718 2.164 22.674 29.055 47.785 79.027 74.773Q423.239 795 480.12 795Z"/></svg>