<svg xmlns="http://www.w3.org/2000/svg" width="48" height="48" viewBox="0 -960 960 960"><path d="M624.57-531.57q22.97 0 39.2-15.97Q680-563.52 680-587t-16.23-39.46q-16.23-15.97-39.32-15.97-22.86 0-38.97 15.95t-16.11 39.45q0 23.51 16.09 39.49 16.09 15.97 39.11 15.97Zm-289.02 0q22.86 0 38.97-15.95t16.11-39.45q0-23.51-16.09-39.49-16.09-15.97-39.11-15.97-22.97 0-39.2 15.97Q280-610.48 280-587t16.23 39.46q16.23 15.97 39.32 15.97Zm44.88 194h201.14q10.91 0 18.17-7.57 7.26-7.57 7.26-18.95 0-11.39-6.96-18.37-6.96-6.97-18.47-6.97H379.43q-10.91 0-18.17 6.95-7.26 6.96-7.26 18.34 0 11.39 7.55 18.98 7.54 7.59 18.88 7.59Zm-58.7 231.69q-74.08-31.86-129.03-86.82-54.96-54.95-86.82-129-31.86-74.04-31.86-158.27t31.86-158.3q31.86-74.08 86.78-129.05 54.92-54.97 128.98-86.93 74.06-31.97 158.31-31.97t158.35 31.96q74.1 31.95 129.06 86.9 54.95 54.96 86.9 129.06 31.96 74.1 31.96 158.35t-31.97 158.31q-31.96 74.06-86.93 128.98-54.97 54.92-129.02 86.78-74.04 31.86-158.27 31.86t-158.3-31.86Z"/></svg>