<svg xmlns="http://www.w3.org/2000/svg" width="48" height="48" viewBox="0 0 48 48"><path d="M19.6 36q.85 0 1.625-.3t1.525-.7q.3-.2.6-.35.3-.15.65-.15.4 0 1.25.5.75.4 1.525.7.775.3 1.625.3 2.55 0 4.075-1.775Q34 32.45 34 29.5q0-3.65-2.475-5.6-2.475-1.95-7.125-1.95h-.8q-4.65 0-7.125 1.95Q14 25.85 14 29.5q0 2.95 1.525 4.725Q17.05 36 19.6 36Zm-.05-3.2q-1.15 0-1.775-.875t-.625-2.475q0-2.2 1.575-3.25 1.575-1.05 4.875-1.05h.75q3.3 0 4.85 1.05 1.55 1.05 1.55 3.25 0 1.6-.6 2.475t-1.75.875q-.6 0-1.65-.55-.65-.4-1.325-.675Q24.75 31.3 24 31.3t-1.45.275q-.7.275-1.35.675-.4.2-.8.375t-.85.175ZM20 16.2q.4-.6.3-1.225-.1-.625-.7-1.025-.6-.35-1.225-.225-.625.125-1.075.725-.9 1.15-2.025 2-1.125.85-2.425 1.45-.6.35-.875.95t-.025 1.25q.3.6.9.825.6.225 1.25-.075 1.75-.85 3.225-1.975T20 16.2Zm8.05 0q1.15 1.5 2.6 2.65 1.45 1.15 3.2 2 .6.3 1.25.075.65-.225.95-.825.25-.65-.05-1.275-.3-.625-.9-.925-1.3-.6-2.425-1.45-1.125-.85-1.975-1.95-.45-.6-1.075-.75-.625-.15-1.225.2-.55.4-.675 1.025-.125.625.325 1.225ZM24 44.3q-4.2 0-7.9-1.6t-6.45-4.35Q6.9 35.6 5.3 31.9 3.7 28.2 3.7 24t1.6-7.9q1.6-3.7 4.35-6.45Q12.4 6.9 16.1 5.3q3.7-1.6 7.9-1.6t7.9 1.6q3.7 1.6 6.45 4.35 2.75 2.75 4.35 6.45 1.6 3.7 1.6 7.9t-1.6 7.9q-1.6 3.7-4.35 6.45-2.75 2.75-6.45 4.35-3.7 1.6-7.9 1.6ZM24 24Zm0 16.9q7.05 0 11.975-4.925T40.9 24q0-7.05-4.925-11.975T24 7.1q-7.05 0-11.975 4.925T7.1 24q0 7.05 4.925 11.975T24 40.9Z"/></svg>