<svg xmlns="http://www.w3.org/2000/svg" width="48" height="48" viewBox="0 -960 960 960"><path d="M280.019-255.152h-24.823q-.479 0-7.196 8.063 0 1.893 7.196 7.089H358.63q.24 0 6.957-7.116 0-3.319-1.859-5.678-1.858-2.358-5.098-2.358h-55.717l47.413-139.587h152.283l48.13 139.587h-52.717q-.479 0-7.196 8.063 0 1.893 7.196 7.089H708.63q.24 0 6.957-7.116 0-3.319-1.859-5.678-1.858-2.358-5.098-2.358h-24.043L524.891-696.413q-3.478-10.674-12.913-17.13Q502.544-720 490.816-720h-25.055q-11.544 0-21.424 6.957-9.881 6.956-13.359 17.63L280.019-255.152Zm75.785-156.261 69.814-204.761 71.512 204.761H355.804ZM142.152-74.022q-27.599 0-47.865-20.265-20.265-20.266-20.265-47.865v-675.696q0-27.697 20.265-48.033 20.266-20.337 47.865-20.337h675.696q27.697 0 48.033 20.337 20.337 20.336 20.337 48.033v675.696q0 27.599-20.337 47.865-20.336 20.265-48.033 20.265H142.152Z"/></svg>