<svg xmlns="http://www.w3.org/2000/svg" width="48" height="48" viewBox="0 -960 960 960"><path d="M142.15-273.3q-28.35 0-48.24-19.9-19.89-19.89-19.89-48.23v-277.14q0-28.44 19.89-48.4 19.89-19.96 48.24-19.96h675.7q28.45 0 48.41 19.96 19.96 19.96 19.96 48.4v277.14q0 28.34-19.96 48.23-19.96 19.9-48.41 19.9h-675.7Zm112.94-175.27h158.26q13.26 0 22.35-9.03 9.08-9.03 9.08-22.58 0-13.54-9.08-22.4-9.09-8.85-22.35-8.85H255.02q-13.26 0-22.35 9.03-9.08 9.03-9.08 22.58 0 13.54 8.98 22.4 8.98 8.85 22.52 8.85Zm358.32-10.11q8.5-8.67 8.5-21.5 0-12.82-8.67-21.32-8.68-8.5-21.5-8.5-12.83 0-21.33 8.68-8.5 8.67-8.5 21.5 0 12.82 8.68 21.32 8.67 8.5 21.5 8.5 12.82 0 21.32-8.68Zm120 0q8.5-8.67 8.5-21.5 0-12.82-8.67-21.32-8.68-8.5-21.5-8.5-12.83 0-21.33 8.68-8.5 8.67-8.5 21.5 0 12.82 8.68 21.32 8.67 8.5 21.5 8.5 12.82 0 21.32-8.68Z"/></svg>