<svg xmlns="http://www.w3.org/2000/svg" width="48" height="48" viewBox="0 -960 960 960"><path d="M689.087-74.022q-85.391 0-145.565-60.054-60.174-60.054-60.174-145.446 0-85.152 60.174-145.206 60.174-60.055 145.565-60.055 85.152 0 145.207 60.055 60.054 60.054 60.054 145.206 0 85.392-60.054 145.446-60.055 60.054-145.207 60.054Zm90.152-116.869q5-5.239 2.5-12.479-2.5-7.239-9.5-8.239-26.956-4.761-49.934-19.858-22.979-15.098-37.457-39.816Q670.37-296 668.75-323.717q-1.619-27.718 7.62-53.196 2.239-7.239-2.381-12.859-4.619-5.619-11.619-3.858-69.152 12.478-94.25 78.271-25.098 65.794 20.098 122.229 35.956 45.195 94.51 46.315 58.555 1.119 96.511-44.076ZM419.326-74.021q-14.717 0-27.272-9.36-12.554-9.358-14.554-24.315l-15-94.239q-17.565-6.282-37.489-17.684-19.924-11.403-34.728-23.446l-85.761 40q-14.718 6.239-29.674 1.62-14.957-4.62-23.196-18.577L90.304-330.239q-8.478-13.478-4.859-28.315 3.62-14.837 16.337-24.316l79.761-59q-1.761-8.282-2.261-19.065-.5-10.782-.5-19.065 0-8.283.5-19.065.5-10.783 2.261-19.065l-79.761-58.761q-12.956-9.479-16.456-24.315-3.5-14.837 4.978-28.555l61.348-110.217q8.239-13.479 23.076-18.337 14.837-4.859 29.555 1.38l86.478 40q14.565-11.804 34.369-23.087 19.805-11.282 37.37-16.804l15-95.239q2-15.196 13.598-24.674 11.598-9.479 26.554-9.479h124.696q14.956 0 26.554 9.479 11.598 9.478 13.598 24.674l15 94.239q17.565 6.522 37.87 17.304 20.304 10.783 34.347 23.587l85.761-40q14.718-6.239 29.174-1.38 14.457 4.858 22.696 18.337l64.739 113.804q7.283 12.044 3.304 26.304-3.978 14.261-15.5 21.066l-56.934 39.891q-10.674 8.239-23.75 6.88-13.076-1.358-21.555-11.793-7.087-8.609-5.445-18.739 1.641-10.131 10.489-15.217l40.652-29.37-44.305-78.218-105.76 46q-23-26.478-52.479-44.336-29.478-17.859-64.717-22.62l-14-111.522h-84.174l-13.761 111.522q-34.478 6.761-64.456 24.12-29.979 17.358-53.218 42.836l-105.521-46-38.087 68.892 93.282 68.282q-4 17.239-6.619 34.098-2.62 16.859-2.62 34.098 0 17.239 2.62 34.217 2.619 16.979 6.619 33.979l-93.282 68.282 38.087 68.892 105.521-46q20.479 20.956 45.316 36.695 24.836 15.739 52.554 24.739 3 40 16.141 76.12 13.141 36.119 34.424 66.598 9.196 13.391 3.098 27.924-6.098 14.532-20.533 14.532h-18.152ZM480-480Zm0 0Zm-.478-130q-54.239 0-92.12 38-37.88 38-37.88 92 0 23 7.5 44t21.739 38.239q9.717 12.718 24.054 14.598 14.337 1.88 25.815-6.598 10.479-8.717 11.479-21.554 1-12.837-7.718-21.315-9.521-8.283-14.282-20.924-4.761-12.642-4.761-26.685.239-27.326 19.424-46.631 19.185-19.304 46.75-19.304 13.282 0 24.706 4.641 11.424 4.642 20.946 13.685 8.956 7.283 20.815 4.587 11.859-2.696 19.381-13.174 7.76-11.478 5.021-24.717-2.739-13.239-13.978-22.761-15.761-12.804-35.304-19.446Q501.565-610 479.522-610Z"/></svg>