<svg xmlns="http://www.w3.org/2000/svg" width="48" height="48" viewBox="0 96 960 960"><path d="M142.152 901.978q-27.587 0-47.859-20.271-20.271-20.272-20.271-47.859V325.152q0-27.587 20.271-47.978 20.272-20.392 47.859-20.392h143.413l75.631-89.63h237.847l75.392 89.63h143.413q27.587 0 47.978 20.392 20.392 20.391 20.392 47.978v258.131q-33.718-25.478-73.435-38.957-39.718-13.478-82.435-13.478-22.239 0-43.478 3.5-21.24 3.5-40.479 10.5-12.608-57.587-58.804-96.218Q541.391 410 480 410q-71 0-120.5 50T310 580q0 69.478 47.837 118.837 47.837 49.359 116.793 51.402-6.673 37.196-1.369 76.131 5.304 38.934 23.065 75.608H142.152Zm344.066-211.739q-48.153 2.631-82.185-29.967Q370 627.674 370 580q0-50 31-77.5t70-30.5q39-3 74.5 19t43.5 71q-33.13 23-58.674 58.728-25.543 35.729-43.13 78.837.63-1.195.826-3.826.196-2.63-1.804-5.5Zm210.978 300.348-5.239-48.956q-19.522-5.761-40.044-17.142-20.522-11.38-33.043-24.902l-42.718 20.479L538.761 862l38.956-30.478q-5.239-22.043-5.119-40.424.119-18.38 5.119-40.424l-38.956-30.478 37.391-58.826 42.718 20.239q12.521-11.522 33.043-23.283 20.522-11.761 40.044-17.521l5.239-49.957h64.543l6.239 49.957q19.283 5.76 39.805 17.521 20.521 11.761 33.282 23.283l42.718-20.239 37.152 58.826-38.717 30.478q5.478 22.283 5.358 40.424-.119 18.141-5.358 40.424L920.935 862l-37.152 58.066-42.718-20.479q-12.761 13.522-33.282 24.902-20.522 11.381-39.805 17.142l-6.239 48.956h-64.543Zm32.152-99.304q43.282 0 72.043-28.641 28.761-28.642 28.761-71.924 0-43.283-28.761-71.924-28.761-28.642-72.043-28.642-43.283 0-71.924 28.642-28.641 28.641-28.641 71.924 0 43.282 28.641 71.924 28.641 28.641 71.924 28.641Z"/></svg>