<svg xmlns="http://www.w3.org/2000/svg" width="48" height="48" viewBox="0 -960 960 960"><path d="M828.26-480 655.89-653.89q-9.43-10.44-9.69-24.11-.27-13.67 9.93-23.87 10.44-10.2 23.99-10.2 13.55 0 23.75 10.2l197.76 197.76q5.48 5.48 7.96 11.44 2.48 5.95 2.48 12.67t-2.48 12.67q-2.48 5.96-7.96 11.44L703.87-258.13q-10.2 10.2-23.87 10.2-13.67 0-23.87-10.2-10.43-10.2-10.05-23.87.38-13.67 9.81-24.11L828.26-480Zm-696.04 0 172.13 174.13q9.43 10.44 9.81 23.99.38 13.55-9.81 23.75-10.44 10.2-23.99 10.2-13.56 0-23.75-10.2l-198-197.76q-5.48-5.48-7.96-11.44-2.48-5.95-2.48-12.67t2.48-12.67q2.48-5.96 7.96-11.44l198-197.76q10.19-10.2 23.75-10.2 13.55 0 23.99 10.2 10.19 10.2 9.81 23.87-.38 13.67-9.81 24.11L132.22-480Zm164.12 25.58q-10.86-10.86-10.86-25.58 0-14.72 10.86-25.58 10.86-10.85 25.57-10.85 14.72 0 25.58 10.85 10.86 10.86 10.86 25.58 0 14.72-10.86 25.58-10.86 10.85-25.58 10.85-14.71 0-25.57-10.85Zm158.08 0q-10.85-10.86-10.85-25.58 0-14.72 10.85-25.58 10.86-10.85 25.58-10.85 14.72 0 25.58 10.85 10.85 10.86 10.85 25.58 0 14.72-10.85 25.58-10.86 10.85-25.58 10.85-14.72 0-25.58-10.85Zm158.21 0q-10.74-10.86-10.74-25.58 0-14.72 10.74-25.58 10.74-10.85 25.46-10.85 14.71 0 25.57 10.85 10.86 10.86 10.86 25.58 0 14.72-10.86 25.58-10.86 10.85-25.57 10.85-14.72 0-25.46-10.85Z"/></svg>