<svg xmlns="http://www.w3.org/2000/svg" width="48" height="48" viewBox="0 -960 960 960"><path d="M577.41-25.41q-25.69 0-43.67-17.99t-17.98-43.69v-287.7q0-25.43 17.98-43.53 17.99-18.09 43.68-18.09h287.72q25.43 0 43.52 18.07 18.1 18.08 18.1 43.6v287.68q0 25.69-18.08 43.67-18.07 17.98-43.59 17.98H577.41ZM435.76-251.15v177.13h-16.54q-14.61 0-27.17-9.36-12.55-9.36-14.55-24.32l-15-94.23q-17.66-6.31-37.54-17.7-19.87-11.39-34.68-23.44l-85.76 40q-14.69 6.24-29.61 1.65-14.93-4.59-23.26-18.6L90.3-330.24q-8.47-13.48-4.85-28.31 3.62-14.84 16.33-24.32l79.76-59q-1.76-8.25-2.26-19.05-.5-10.81-.5-19.06 0-8.25.5-19.05.5-10.81 2.26-19.1l-79.76-58.76q-12.95-9.48-16.45-24.32-3.5-14.83 4.97-28.55l61.44-110.26q8.15-13.44 22.99-18.3 14.84-4.85 29.55 1.39l86.48 40q14.57-11.81 34.37-23.09 19.8-11.28 37.37-16.81l15-95.13q2-15.3 13.64-24.78 11.63-9.48 26.51-9.48h124.7q14.9 0 26.54 9.46 11.65 9.46 13.61 24.69l15 94.24q17.62 6.5 37.9 17.3 20.27 10.79 34.32 23.6l85.76-40q14.72-6.24 29.17-1.39 14.46 4.86 22.7 18.34l64.74 113.81q6.8 11.32 4.5 23.67-2.31 12.35-12.15 19.87l-68.9 49.22q-11.19 7.95-24.13 7.33-12.93-.62-22.01-10.81-10.07-12.2-7.95-27.23 2.12-15.03 15.03-22.75l40.65-29.61-38.09-68.89-105.76 46q-23-26.48-52.46-44.34-29.47-17.86-64.8-22.62l-13.93-111.52h-84.2l-13.74 111.52q-34.45 6.76-64.44 24.12-29.99 17.36-53.23 42.84l-105.52-46-38.09 68.89 93.28 68.28q-4 17.24-6.62 34.05-2.62 16.8-2.62 34.15 0 17.24 2.62 34.22t6.62 33.98l-93.28 68.28 38.09 68.89 105.47-46q26.81 27.24 59.19 45.26 32.38 18.02 70.14 24.22Zm43.76-229.09Zm0-129.76q-54.24 0-92.12 38t-37.88 92q0 23 7.5 43.96 7.5 20.97 21.74 38.28 9.72 12.72 24.04 14.6 14.32 1.88 25.83-6.6 10.54-8.79 11.51-21.57.97-12.77-7.75-21.3-9.52-8.28-14.28-20.92-4.76-12.65-4.76-26.69.24-27.44 19.42-46.69 19.19-19.24 46.81-19.24 13.11 0 24.59 4.64t21 13.68q8.96 7.28 20.82 4.59 11.86-2.7 19.38-13.29 7.76-11.36 5.02-24.6-2.74-13.24-13.98-22.76-15.76-12.81-35.36-19.45-19.6-6.64-41.53-6.64Zm0 129.76ZM721.2-189.72q-31.01 0-60.41 10.1-29.4 10.1-54.58 31.01-15.73 12.52-23.09 23.82-7.36 11.3-7.36 22.9 0 7.29 4.71 11.89 4.71 4.59 12.01 4.59h262.96q5.08 0 8.2-4.65 3.12-4.65 3.12-11.87 0-11.44-7.23-22.82-7.22-11.38-22.96-23.89-25.2-20.88-54.74-30.98-29.55-10.1-60.63-10.1Zm.1-41.19q25.44 0 43.54-17.97 18.09-17.96 18.09-43.63 0-25.66-18.14-43.59-18.14-17.92-43.69-17.92-25.56 0-43.53 18.02-17.98 18.02-17.98 43.57 0 25.56 18 43.54t43.71 17.98Z"/></svg>