<svg xmlns="http://www.w3.org/2000/svg" width="48" height="48" viewBox="0 -960 960 960"><path d="M576.19-74.022q-25.19 0-42.81-17.57-17.619-17.572-17.619-42.742v-201.362q0-25 17.585-42.739 17.584-17.739 42.774-17.739h60.358l40.399-40.239h80.558l40.162 40.239h60.364q25.191 0 42.93 17.739t17.739 42.739v201.362q0 25.17-17.704 42.741-17.705 17.571-42.895 17.571H576.19Zm141.006-81.434q33.239 0 56.858-23.585 23.62-23.584 23.62-57.013t-23.62-57.014q-23.619-23.584-56.858-23.584-33.479 0-57.098 23.584-23.62 23.585-23.62 57.014t23.62 57.013q23.619 23.585 57.098 23.585ZM480-480Zm-.478-130q-54.239 0-92.12 38-37.88 38-37.88 92 0 43.239 24.239 76.359 24.239 33.119 62.478 46.88v-72.421q-9.804-8.166-16.348-22.59-6.543-14.424-6.543-28.248 0-27.437 19.341-46.796 19.342-19.358 46.755-19.358 17.599 0 32.121 8 14.522 8 23.044 21.761h68.869q-12.043-40.435-46.021-67.011Q523.478-610 479.522-610ZM435.761-74.022h-23.435q-12.667 0-22.366-7.956-9.699-7.957-11.699-20.631L362.5-201.935q-17.565-6.282-37.489-17.684-19.924-11.403-34.728-23.446l-91.326 42.522q-12.196 5.478-24.87 1.5-12.674-3.979-19.391-16.413L87.022-335.804q-6.957-11.495-3.598-23.925 3.358-12.43 13.554-20.336l84.565-61.805q-1.761-8.291-2.261-19.065-.5-10.774-.5-19.065 0-8.291.5-19.065.5-10.774 2.261-19.065l-84.565-61.805q-10.195-7.864-13.554-20.345-3.359-12.481 3.598-23.916l67.674-120.108q6.744-12.109 19.404-16.25 12.661-4.142 24.857 1.336l91.75 42.283q14.619-11.804 34.423-23.087 19.805-11.282 37.37-16.804l15.761-100.804q2-12.435 11.699-20.511 9.699-8.077 22.366-8.077h135.348q12.667 0 22.366 8.077 9.699 8.076 11.699 20.511l15.761 99.804q17.519 6.534 37.846 17.31 20.328 10.777 34.371 23.581l91.326-42.283q12.196-5.478 24.857-1.336 12.66 4.141 19.404 16.25l67.674 119.391q5.718 11.674 3.24 24.307-2.479 12.633-12.914 20.432l-87.478 63.761v1-1H709.31q-.745-7-2.104-14.92-1.358-7.92-3.836-16.624l93.76-68.521-38.087-68.892-105.76 46q-23-26.478-52.468-44.336-29.467-17.859-64.792-22.62l-13.936-111.522H437.89l-13.738 111.522q-34.452 6.761-64.444 24.12-29.991 17.358-53.23 42.836l-105.521-46-38.087 68.892 93.282 68.282q-4 17.239-6.619 34.098-2.62 16.859-2.62 34.098 0 17.239 2.62 34.217 2.619 16.979 6.619 33.979l-93.282 68.282 38.087 68.892 105.521-46q25.761 26.202 59.142 43.84 33.38 17.638 70.141 25.877v176.891Z"/></svg>