<svg xmlns="http://www.w3.org/2000/svg" width="48" height="48" viewBox="0 -960 960 960"><path d="M588.37-74.02q-27.59 0-47.98-20.27Q520-114.57 520-142.15v-189.72q0-27.35 20.39-47.74T588.37-400h270.67q27.35 0 47.74 20.39t20.39 47.74v189.72q0 27.58-20.39 47.86-20.39 20.27-47.74 20.27H588.37Zm-173.48 0q-14.72 0-25.05-9.6-10.34-9.6-12.58-24.55l-14.76-93.76q-17.57-6.29-37.49-17.69-19.92-11.4-34.73-23.45l-85.76 40q-14.72 6.48-29.67 1.74-14.96-4.74-23.2-18.69L90.3-330.24q-8.23-13.48-4.73-28.31 3.5-14.84 16.21-24.32l79.76-59q-1.76-8.28-2.26-19.06-.5-10.79-.5-19.07 0-8.28.5-19.07.5-10.78 2.26-19.06l-79.76-58.76q-12.95-9.72-16.45-24.44-3.5-14.71 4.97-28.43l61.35-110.22q8.24-13.48 23.08-18.34 14.84-4.85 29.55 1.39l86.48 40q14.57-11.81 34.37-23.09 19.8-11.28 37.37-16.81l15.24-95.24q2.24-14.95 13.72-24.55 11.47-9.6 26.43-9.6h124.46q14.72 0 26.19 9.6 11.48 9.6 13.96 24.55l15 94.24q17.57 6.53 37.87 17.31 20.3 10.78 34.35 23.59l86.24-40q14.71-6.24 29.05-1.39 14.34 4.86 22.58 18.34l62.34 110.22q8.24 13.72 4.24 28.05-4 14.34-15.95 24.82l-75.78 68.98q-14.2 11.71-29.02 17.69-14.81 5.98-31.77 8.98H608.52q-.24-53.76-37.74-91.26-37.5-37.5-91.26-37.5-54.24 0-92.12 38t-37.88 92q0 42 24.12 75.24 24.12 33.24 62.12 47v261.35q0 9.19-4.74 15.79t-16.13 6.6Z"/></svg>