<svg xmlns="http://www.w3.org/2000/svg" width="48" height="48" viewBox="0 -960 960 960"><path d="m729.935-257.609-56.283 57.261q-6.717 6.739-6.717 15.435 0 8.696 6.717 15.217 6.457 6.479 15.185 6.598 8.728.12 15.446-6.358L790-255.174q10.196-10.282 10.196-24.152 0-13.87-10.196-24.065l-85.956-85.957q-6.522-6.478-15.218-6.359-8.695.12-15.174 6.598-6.717 6.718-6.717 15.315 0 8.598 6.717 15.338l57.283 57.26H586.218q-9.005 0-15.459 6.479-6.455 6.478-6.455 15.315t6.598 15.315q6.598 6.478 15.316 6.478h143.717ZM688.968-74.022q-85.272 0-145.446-60.059-60.174-60.059-60.174-145.326t60.162-145.321q60.163-60.055 145.577-60.055 85.152 0 145.207 60.055 60.054 60.054 60.054 145.321t-60.054 145.326q-60.055 60.06-145.326 60.06Zm-269.642 0q-15.339 0-27.63-9.264-12.292-9.264-14.196-24.41l-15-94.239q-17.565-6.282-37.489-17.684-19.924-11.403-34.728-23.446l-85.761 40q-14.688 6.239-29.615 1.647-14.927-4.591-23.255-18.604L90.304-330.239q-8.478-13.478-4.859-28.315 3.62-14.837 16.337-24.316l79.761-59q-1.761-10.291-2.261-19.065-.5-8.774-.5-19.065 0-10.291.5-19.065.5-8.774 2.261-19.065l-79.761-58.761q-12.956-9.479-16.456-24.315-3.5-14.837 4.978-28.555l61.438-110.263q8.149-13.433 22.986-18.291 14.837-4.859 29.555 1.38l86.478 40q15.804-13.043 33.969-23.232 18.165-10.188 37.77-16.659l15-95.135q2-15.3 13.5-24.778 11.5-9.479 26.652-9.479h124.696q15.168 0 26.681 9.459 11.512 9.459 13.471 24.694l15 94.239q19.804 7.522 38.074 17.174 18.269 9.652 34.143 23.717l85.761-40q14.718-6.239 29.174-1.38 14.457 4.858 22.696 18.337l64.739 113.804q6.804 11.326 4.261 24.033-2.543 12.706-12.391 20.228l-46.565 32.043q-5.43 4-11.737 5.12t-12.829-.88q-23.152-9.435-47.643-14.043-24.491-4.608-49.922-5.349-26.913-1.522-53.087 4.576-26.174 6.098-51.609 14.25-17.264-29.631-47.068-46.717Q513.693-610 479.36-610q-54.077 0-91.958 37.88-37.88 37.881-37.88 91.881 0 35.717 17.837 66.315t49.271 48.12q-7.65 25.514-10.846 52.42-3.197 26.906-1.436 54.188 2 38.239 15.141 74.359t35.424 68.359q9.196 13.391 3.158 27.924-6.038 14.532-20.593 14.532h-18.152Z"/></svg>