<svg xmlns="http://www.w3.org/2000/svg" width="48" height="48" viewBox="0 -960 960 960"><path d="M464.64-74.02q-10.88 0-19.93-6.2-9.06-6.19-13.78-16.11-16.28-31.28-45.44-50.44-29.16-19.16-65.73-19.16-37.77 0-67.97 19.16-30.2 19.16-46.49 50.2-5.03 9.62-12.81 16.08-7.77 6.47-18.45 6.47h-25.95q-14.43 0-24.25-9.82t-9.82-24.25v-709.76h-10.76q-13.43 0-23.13-9.94t-9.7-24.36q0-13.68 9.71-23.87 9.7-10.2 24.12-10.2h751.48q13.67 0 23.87 10.32 10.19 10.31 10.19 24.49 0 14.17-9.95 23.87-9.96 9.69-23.63 9.69h-10v709.76q0 14.43-9.94 24.25t-24.37 9.82h-27.24q-10.91 0-19.03-6.4-8.12-6.41-13.23-15.91-15.04-31.28-45.08-50.44-30.05-19.16-66.85-19.16-37.2 0-67.05 19.52-29.84 19.52-46.13 50.32-5.27 9.26-13.31 15.67-8.03 6.4-18.91 6.4h-30.44ZM182.15-174.46q18.81-20.56 43.89-34.72 25.09-14.17 53.94-19.43v-589.24h-97.83v643.39Zm166.2-56.6q27.85 4.99 52.55 16.92 24.71 11.92 45.03 30.49v-634.2h-97.58v586.79Zm165.72 46.65q18.56-18.33 43.27-29.99 24.7-11.67 53.55-16.42v-587.03h-96.82v633.44Zm263.78 10.48v-643.92h-98.83v589.25q28.85 5.01 54.06 19.18 25.2 14.16 44.77 35.49ZM279.98-817.85h-97.83 97.83Zm165.95 0h-97.58 97.58Zm164.96 0h-96.82 96.82Zm166.96 0h-98.83 98.83Zm-263.78 0h-68.14 68.14Z"/></svg>