<svg xmlns="http://www.w3.org/2000/svg" width="48" height="48" viewBox="0 -960 960 960"><path d="M464.2-74.02q-10.92 0-19.73-6.2-8.82-6.19-13.54-16.11-16.28-31.28-45.44-50.44-29.16-19.16-65.73-19.16-37.8 0-67.99 19.16-30.18 19.16-46.47 50.2-4.95 9.44-12.77 15.99-7.81 6.56-18.49 6.56h-25.95q-14.68 0-24.37-9.7-9.7-9.69-9.7-24.37v-709.76h-10.76q-13.43 0-23.13-9.81-9.7-9.82-9.7-24.49 0-13.68 9.58-23.87 9.58-10.2 24.25-10.2h751.48q13.67 0 23.87 10.32 10.19 10.31 10.19 23.99 0 14.67-9.95 24.37-9.96 9.69-23.63 9.69h-10v709.76q0 14.68-9.82 24.37-9.81 9.7-24.49 9.7h-27.24q-10.91 0-19.1-6.32-8.2-6.31-13.16-15.99-15.04-31.28-45.08-50.44-30.05-19.16-66.85-19.16-37.57 0-67.23 19.52-29.66 19.52-45.95 50.32-4.95 9.44-13.15 15.75-8.19 6.32-19.11 6.32H464.2Zm49.87-743.83H445.7v587.26h68.37v-587.26Z"/></svg>