<svg xmlns="http://www.w3.org/2000/svg" width="48" height="48" viewBox="0 -960 960 960"><path d="M578.373-369.522q29.91 0 51.007-21.143 21.098-21.143 21.098-51.217 0-30.074-21.117-51.129-21.117-21.054-51.064-21.054-14.974 0-28.451 5.5-13.476 5.5-23.716 16.5L411.87-549.13q1-2.554 1-5.332v-11.03q0-2.85-1-5.551l114.5-57.131q10.177 11.239 23.52 16.739t28.425 5.5q29.843 0 51.003-21.143t21.16-51.217q0-30.074-21.186-51.129-21.186-21.054-51.096-21.054-29.909 0-50.966 20.801-21.056 20.802-21.295 50.155V-674q0 2.841 1 5.522L391.156-610.63q-10.206-10.785-23.359-16.273-13.153-5.488-27.768-5.488-29.947 0-51.184 21.302-21.236 21.303-21.236 51.218 0 29.914 21.265 51.088T340-487.609q14.625 0 27.788-5.488 13.162-5.488 23.368-16.273l115.779 57.848q-1 2.681-1 5.522v5.522q.239 29.353 21.384 50.155 21.145 20.801 51.054 20.801Zm-344.351 135.5L132.196-132.196q-16.153 16.153-37.163 7.45-21.011-8.702-21.011-31.08v-662.022q0-27.697 20.265-48.033 20.266-20.337 47.865-20.337h675.696q27.697 0 48.033 20.337 20.337 20.336 20.337 48.033v515.696q0 27.599-20.337 47.865-20.336 20.265-48.033 20.265H234.022Zm-26-68.13h609.826v-515.696H142.152v587.565l65.87-71.869Zm-65.87 0v-515.696 515.696Z"/></svg>