<svg xmlns="http://www.w3.org/2000/svg" width="48" height="48" viewBox="0 -960 960 960"><path d="M686.72-646.98q-23.81 0-44.98-9.24-21.17-9.24-37.89-24.48L264.48-491.61q-11.52 6.19-22.6 10.34-11.08 4.14-23.79 3.9-.25.1-.36-.07-.12-.17-.15-.17-29.29 0-52.73 6.62-23.43 6.62-49.48 20.38-7.72 4.48-15.32 2.86-7.59-1.62-13.19-7.22t-9.84-14.31q-4.24-8.72-3-18.92 3.24-46.91 37.68-79.22 34.43-32.32 81.82-32.32 24.48 0 45.96 9.5t38.19 25.5l294.07-168.93q-1.76-7.76-3.14-16.03-1.38-8.26-1.38-16.78 0-50.13 34.69-84.93 34.68-34.81 84.82-34.81 50.14 0 84.81 34.81 34.68 34.81 34.68 84.95 0 50.13-34.69 84.81-34.68 34.67-84.81 34.67Zm-.02 572.96q-50.13 0-84.81-34.62-34.67-34.61-34.67-84.64 0-8 4.76-32.33l-97-56.76q-11.2-6.72-14.44-18.53-3.24-11.82 3.36-23.01 6.6-11.2 18.53-14.56 11.94-3.36 23.14 2.12l99.04 56.52q16.72-15.47 37.42-24.33 20.71-8.86 44.69-8.86 50.37 0 84.93 34.62 34.57 34.61 34.57 85.06 0 50.21-34.69 84.76-34.69 34.56-84.83 34.56ZM93.49-93.49q-55.88-55.88-55.88-134t55.88-134.12q55.88-56 134-56t134.12 56q56 56 56 134.12t-56 134q-56 55.88-134.12 55.88t-134-55.88Zm133.88-105.05 55.09 54.84q5.39 5.72 13.25 5.22t13.57-6.22q5.72-5.71 5.72-13.41 0-7.69-5.72-13.41l-55.85-54.85 58.09-58.09q5.72-5.39 5.72-13.25t-5.72-13.57Q305.8-317 297.95-317q-7.86 0-13.49 5.72l-56.85 56.85-56.85-57.09q-5.63-5.72-12.99-5.72t-13.07 5.72q-5.72 5.72-5.72 13.57 0 7.86 5.72 13.49l55.84 56.85-56.08 55.85q-5.72 5.87-5.72 13.99 0 8.12 5.84 14.07 5.83 5.96 13.95 5.96t13.99-5.96l54.85-54.84Z"/></svg>