<svg xmlns="http://www.w3.org/2000/svg" width="48" height="48" viewBox="0 -960 960 960"><path d="M246.609-89.76 142.13-194q-10.195-10.304-10.195-24.043 0-13.739 10.195-23.935l104.479-104.239q10.239-10.196 23.891-10.196 13.652 0 23.717 10.038 10.327 9.958 9.946 23.71-.38 13.752-9.576 23.948l-45.782 46.543h521.434q14.424 0 24.245 10.012 9.82 10.011 9.82 24.489 0 14.478-9.82 24.173-9.821 9.696-24.245 9.696H248.805l45.782 46.782q9.466 10.092 9.592 23.698.125 13.607-9.899 23.563-10.221 10.196-23.848 10.196-13.628 0-23.823-10.196Zm-39.696-348.088q-21.201 0-36.209-15.008-15.008-15.008-15.008-36.209v-386.413q0-21.241 15.008-36.11t36.209-14.869h546.413q21.241 0 36.11 14.869 14.868 14.869 14.868 36.11v386.413q0 21.201-14.868 36.209-14.869 15.008-36.11 15.008H206.913ZM224.065-715.5h222.826v-142.826H224.065V-715.5Zm289.283 0h222.826v-142.826H513.348V-715.5Zm-66.457 209.282v-142.825H224.065v142.825h222.826Zm66.457 0h222.826v-142.825H513.348v142.825Z"/></svg>