<svg xmlns="http://www.w3.org/2000/svg" width="48" height="48" viewBox="0 -960 960 960"><path d="M501-330q35 0 68-14.5t59-42.5q6-7 5.5-11t-9.5-6q-39-8-74-31.5T492-497q-21-36-25-77.5t10-80.5q3-9-1-12t-14-1q-62 14-97.5 62.5T329-500q0 71 50 120.5T501-330ZM480-78.26q-5.717 0-10.935-1.12-5.217-1.12-10.695-3.359-140.196-47-222.272-170.652Q154.022-377.043 154.022-523v-194.326q0-21.631 12.315-39.402 12.315-17.772 31.946-25.49L456.13-878.5q12.196-4.478 23.87-4.478 11.674 0 23.87 4.478l257.847 96.282q19.631 7.718 32.066 25.49 12.435 17.771 12.435 39.402V-523q0 145.957-82.196 269.609Q641.826-129.739 501.63-82.739q-5.478 2.24-10.695 3.359-5.218 1.12-10.935 1.12Z"/></svg>