<svg xmlns="http://www.w3.org/2000/svg" width="48" height="48" viewBox="0 -960 960 960"><path d="M289.788-77.37Q260-77.37 239-98.582q-21-21.212-21-51t21.212-50.788q21.213-21 51-21 29.788 0 50.788 21.213 21 21.212 21 51 0 29.787-21.212 50.788-21.213 21-51 21Zm404 0Q664-77.37 643-98.582q-21-21.212-21-51t21.212-50.788q21.213-21 51-21 29.788 0 50.788 21.213 21 21.212 21 51 0 29.787-21.212 50.788-21.213 21-51 21ZM457.326-602.652q-9.717-10.021-9.717-23.065t9.717-22.762l51.326-51.326H360.478q-13.945 0-23.407-9.348t-9.462-23.34q0-13.992 9.462-23.283 9.462-9.29 23.407-9.29h148.174l-51.087-51.326q-9.717-9.478-9.847-22.691-.13-13.212 9.574-23.304 9.705-9.57 22.924-9.439 13.219.13 22.936 9.847l105.913 105.674q5.435 5.622 7.816 11.57 2.38 5.947 2.38 12.553 0 6.606-2.38 12.42-2.381 5.814-7.816 11.197L503.152-602.652q-9.717 9.717-22.913 9.717t-22.913-9.717ZM290-284.37q-41.72 0-63.034-35.315t-.357-71.75L286.891-501 138.326-817.37H92q-13.868 0-23.25-9.417-9.38-9.417-9.38-23.338 0-13.921 9.38-23.213 9.382-9.292 23.25-9.292h66.043q10.196 0 18.496 5.006 8.3 5.007 12.091 14.146L348.478-521.5h291.283L785.13-782.196q3.924-7.467 11.431-11.951 7.506-4.483 16.574-4.483 18.7 0 27.956 15.934 9.257 15.935.3 32.37L698.826-492.435q-9.532 17.156-25.357 26.796Q657.644-456 635.435-456H337.109l-60.326 106.37H736q13.868 0 23.249 9.417 9.381 9.417 9.381 23.338 0 13.921-9.381 23.213-9.381 9.292-23.249 9.292H290Z"/></svg>