<svg xmlns="http://www.w3.org/2000/svg" width="48" height="48" viewBox="0 -960 960 960"><path d="M286.788-78.37Q257-78.37 236-99.582q-21-21.212-21-51t21.212-50.788q21.213-21 51-21 29.788 0 50.788 21.213 21 21.212 21 51 0 29.787-21.212 50.788-21.213 21-51 21Zm400 0Q657-78.37 636-99.582q-21-21.212-21-51t21.212-50.788q21.213-21 51-21 29.788 0 50.788 21.213 21 21.212 21 51 0 29.787-21.212 50.788-21.213 21-51 21ZM206.674-803.63h582.139q26.123 0 39.753 23.63 13.63 23.63.195 47.5L697.826-496.435q-11.478 19.478-29.504 31.457Q650.297-453 628.402-453H327.109l-54.326 101.37H729q13.868 0 23.249 9.417 9.381 9.417 9.381 23.338 0 13.921-9.381 23.213-9.381 9.292-23.249 9.292H277q-43.913 0-63.13-29.434-19.218-29.435.739-65.631L277.891-498 127.326-817.37H81q-13.868 0-23.25-9.417-9.38-9.417-9.38-23.338 0-13.921 9.38-23.213 9.382-9.292 23.25-9.292h67.043q10.196 0 18.496 5.006 8.3 5.007 12.091 14.146l28.044 59.848Z"/></svg>