<svg xmlns="http://www.w3.org/2000/svg" width="48" height="48" viewBox="0 -960 960 960"><path d="M703.587-289.577V-380q0-9.674-6.957-16.63-6.956-6.957-16.63-6.957t-16.63 6.957q-6.957 6.956-6.957 16.63v102.722q0 1.235 4.478 12.43l69.553 68.157q7.208 7.278 16.599 7.278 9.392 0 16.587-7.196 6.957-7.043 6.957-16.554t-6.957-16.467l-60.043-59.947ZM376.085-611.435q-29.15 0-49.77-20.708-20.619-20.708-20.619-49.859 0-28.911 20.708-49.77 20.708-20.858 49.858-20.858 28.912 0 49.771 20.947 20.858 20.947 20.858 49.858 0 29.151-20.947 49.771-20.947 20.619-49.859 20.619ZM679.951-86.891q-80.386 0-136.723-56.456-56.337-56.456-56.337-136.772 0-80.316 56.456-136.772 56.456-56.457 136.772-56.457 80.316 0 136.772 56.505 56.457 56.505 56.457 136.892 0 80.386-56.505 136.723-56.505 56.337-136.892 56.337ZM181.196-71.152q-29.698 0-49.034-19.391-19.336-19.392-19.336-48.74v-681.434q0-28.209 19.336-48.29 19.336-20.08 49.034-20.08h389.956q28.208 0 48.289 20.08 20.081 20.081 20.081 48.29V-554.5q0 10.953-6.787 19.167-6.786 8.213-17.738 10.942-11.062 2.478-21.936 6.731-10.873 4.253-20.996 8.899V-822.63H179.283v295.521q19.521-15.804 44.339-25.065 24.817-9.261 52.791-9.261h310.761v46.522q-55.044 20.239-93.446 63.141t-55.402 97.707h-30v-38.522q0-13.641-9.439-23.016-9.439-9.375-23.174-9.375t-22.952 9.375q-9.218 9.375-9.218 23.016v44.022h-44.021q-13.641 0-23.016 9.439-9.376 9.439-9.376 23.174t9.376 22.833q9.375 9.097 23.016 9.097h44.021v44.261q0 13.707 9.376 22.93 9.375 9.222 23.016 9.222 13.239 0 22.098-8.619 8.858-8.62 9.097-21.62v-50h20q.24 48.239 16.408 95.359 16.168 47.119 48.31 83.359 9.674 11.913 4.456 24.945-5.217 13.033-18.13 13.033H181.196Z"/></svg>