<svg xmlns="http://www.w3.org/2000/svg" width="48" height="48" viewBox="0 -960 960 960"><path d="m394.087-522.087-223-223q-9.957-9.717-9.957-23.413t9.957-23.413q9.028-8.957 23.069-8.957 14.04 0 22.757 8.957l224 223-46.826 46.826ZM612-147.37q-13.707 0-23.169-9.512-9.461-9.512-9.461-23.293 0-13.782 9.461-23.119 9.462-9.336 23.169-9.336h88.304L521.087-391.326l45.826-46.587L748.37-258.696V-349q0-13.707 9.512-23.169 9.512-9.461 23.293-9.461 13.782 0 23.119 9.461 9.336 9.462 9.336 23.169v167.565q0 14.424-9.82 24.245-9.821 9.82-24.245 9.82H612Zm-441.913-22.217q-9.957-9.217-9.957-22.913t9.957-23.413L702.304-748.37H612q-13.707 0-23.169-9.512-9.461-9.512-9.461-23.293 0-13.782 9.461-23.119 9.462-9.336 23.169-9.336h167.565q14.424 0 24.245 9.82 9.82 9.821 9.82 24.245V-612q0 13.707-9.512 23.169-9.512 9.461-23.293 9.461-13.782 0-23.119-9.461-9.336-9.462-9.336-23.169v-89.304L215.913-169.087q-8.784 8.957-22.446 8.957-13.663 0-23.38-9.457Z"/></svg>