<svg xmlns="http://www.w3.org/2000/svg" width="48" height="48" viewBox="0 -960 960 960"><path d="M428.195-161.283 46.913-550.174q-9.478-9.717-14.217-22.793-4.74-13.076-3.5-25.794 1-12.956 6.487-25.183 5.488-12.226 15.947-21.165 91.957-76.282 199.924-117.141 107.968-40.859 228.515-40.859 130.279 0 237.083 44.076Q823.957-714.957 922.697-632q7.781 6 11.281 15 3.5 9 4.5 18 1.239 9-2.261 18.12-3.5 9.119-10.26 16.119-25.042-25.498-57.865-38.651-32.823-13.153-71.418-13.153-78.239 0-133.239 54.88-55 54.881-55 133.12 0 40.08 14.837 72.355 14.837 32.275 43.272 58.036L531.805-161.283q-10.914 11.392-24.424 16.587Q493.87-139.5 480-139.5q-13.87 0-27.5-5.196-13.631-5.195-24.305-16.587Zm368.718 17.979q-15.717 0-26.576-10.707t-10.859-26.456q0-15.75 10.827-26.609 10.826-10.859 26.576-10.859 15.749 0 26.608 10.836t10.859 26.599q0 15.763-10.859 26.479-10.859 10.717-26.576 10.717ZM917.065-446.37q0 31.24-12.739 53.479t-39.696 43.956q-22.282 18.283-31.043 31.663-8.761 13.381-11 33.142-1.239 10.478-8.182 17.337-6.943 6.858-17.465 6.858-10.744 0-17.603-6.954-6.859-6.954-5.859-17.481 2-31.239 11-52.358 9-21.12 35-40.12 25.761-18.761 34.881-33.38 9.119-14.62 9.119-33.142 0-25.521-16.914-41.543-16.913-16.022-44.173-16.022-23 0-39.141 9t-26.902 24.522q-6.478 8.239-15.837 10.978-9.359 2.739-17.837-2.38-9.717-5.359-12.957-16.337-3.239-10.978 1.974-19.388 17.169-29.048 45.282-45.537 28.114-16.488 65.156-16.488 48.262 0 81.599 31.119 33.337 31.12 33.337 79.076Z"/></svg>