<svg xmlns="http://www.w3.org/2000/svg" width="48" height="48" viewBox="0 -960 960 960"><path d="M771.259-66.847q-14.498 0-24.194-9.821-9.695-9.82-9.695-24.484v-85.696h-85.935q-14.424 0-24.245-9.871-9.82-9.871-9.82-24.608 0-14.499 9.82-24.195 9.821-9.695 24.245-9.695h85.935v-85.935q0-14.424 9.871-24.245 9.871-9.82 24.369-9.82 14.499 0 24.194 9.82 9.696 9.821 9.696 24.245v85.935h85.935q14.424 0 24.244 9.871 9.821 9.871 9.821 24.369 0 14.738-9.821 24.434-9.82 9.695-24.244 9.695H805.5v85.696q0 14.663-9.871 24.484-9.871 9.82-24.37 9.82Zm-615.433-7.175q-15.913 0-24.989-10.695-9.076-10.696-9.076-23.037 0-6.05 2.359-12.387 2.358-6.337 8.076-12.055l695.847-695.847q5.718-5.718 12.055-8.077 6.337-2.358 12.388-2.358 12.34 0 23.036 9.076 10.696 9.076 10.696 24.989v352.652q0 15.296-13.055 23.681-13.054 8.384-27.967 2.667-18-6.761-36-10.261-18-3.5-37.761-3.5-90.83 0-154.546 63.596-63.715 63.596-63.715 154.426 0 28.609 7.782 55.696 7.783 27.086 23.109 51.413 7.522 13.152.076 26.587-7.446 13.434-21.859 13.434H155.826Z"/></svg>