<svg xmlns="http://www.w3.org/2000/svg" width="48" height="48" viewBox="0 96 960 960"><path d="m827.587 1012.41-31.435-30.432H155.826q-22.869 0-31.326-21.011-8.457-21.01 7.696-37.163l302.652-302.891-311.979-311.978q-9.239-9.479-9.358-22.576-.12-13.098 9.358-22.577 9.479-9.239 22.457-9.239 12.978 0 22.456 9.239L872.5 968.5q9.239 9.239 9.359 21.837.119 12.593-9.359 22.073t-22.456 9.48q-12.979 0-22.457-9.48Zm58.631-116.432L523 532.761l305.043-304.804q16.153-16.153 37.164-7.577 21.011 8.577 21.011 31.446v644.152Z"/></svg>