<svg xmlns="http://www.w3.org/2000/svg" width="48" height="48" viewBox="0 -960 960 960"><path d="M480-468.848Zm262.152 297.587-60.13 59.37q-10.196 9.195-23.87 9.576-13.674.38-23.869-9.815-10.435-10.196-10.435-23.87 0-13.674 10.435-24.109L694.174-220l-60.131-60.13q-10.195-10.435-10.195-23.99 0-13.554 10.435-23.989 10.434-10.195 23.989-10.195 13.554 0 23.989 10.195l59.891 60.131 60.131-60.131q10.195-10.195 23.989-10.076 13.793.12 23.989 10.315 10.196 10.196 9.696 23.87-.5 13.674-9.696 23.87L790.891-220l59.37 60.13q9.196 10.196 9.576 23.87.381 13.674-9.815 23.87-10.196 10.195-23.87 9.815-13.674-.381-23.869-9.576l-60.131-59.37Zm-284.587 41.5L24.674-574.37q-9.957-10.195-9.717-25.01.239-14.816 11.195-24.011 96.805-84.761 210.305-132.239 113.5-47.479 243.543-47.479 129.239 0 243.543 47.598 114.305 47.598 210.544 132.12 10.717 9.195 10.956 24.011.24 14.815-9.717 25.01L792.935-429.826q-12.196-2.718-24.772-4.576-12.576-1.859-26.011-1.859-9.195 0-19.272.739-10.076.739-19.032 2.978l157.63-159.782q-84.848-66.326-179.598-104.37-94.75-38.043-201.88-38.043t-201.88 38.043q-94.75 38.044-179.598 104.37L480-202.957l48.891-48.652q-1.761 7.522-2.38 15.805-.62 8.282-.62 15.804 0 15.348 2.696 29.598 2.696 14.25 6.848 27.641l-33 33q-9.478 9.957-22.435 9.957-12.957 0-22.435-9.957Z"/></svg>