<svg xmlns="http://www.w3.org/2000/svg" width="48" height="48" viewBox="0 -960 960 960"><path d="M154.022-493.829q0-26.548 16.76-45.914 16.761-19.366 43.24-21.279h26v-136.826q0-28.202 20.013-48.286t48.117-20.084h342.696q28.202 0 48.286 20.084t20.084 48.286v136.826h27q24.989 1.913 42.494 20.734 17.506 18.821 17.506 44.215v174.595q0 19.5-14.081 33.478-14.08 13.978-33.593 13.978l-16.283 69q-1.874 6.439-6.919 10.513t-11.505 4.074h-9.674q-6.46 0-11.505-4.074-5.045-4.074-6.919-10.513l-16.231-69H281.492l-17.231 69q-1.874 6.439-6.919 10.513t-11.505 4.074h-9.674q-6.46 0-11.505-4.074-5.045-4.074-6.919-10.513l-16.283-69q-19.411 0-33.423-14.011-14.011-14.012-14.011-33.423v-172.373ZM510-556h140.848v-141.848H510V-556Zm-201.848 0H450v-141.848H308.152V-556Zm-86 213.848h515.696V-496H222.152v153.848Zm515.696 0H222.152h515.696Z"/></svg>