<svg xmlns="http://www.w3.org/2000/svg" width="48" height="48" viewBox="0 -960 960 960"><path d="M208.761-262.826v-434.348q0-14.424 9.871-24.245 9.871-9.82 24.369-9.82 14.499 0 24.195 9.82 9.695 9.821 9.695 24.245v434.348q0 14.424-9.871 24.245-9.871 9.82-24.37 9.82-14.498 0-24.194-9.82-9.695-9.821-9.695-24.245Zm489.022-3.239L429.522-451.652q-7.957-5.478-11.435-12.731-3.478-7.253-3.478-15.617t3.478-15.617q3.478-7.253 11.435-12.731l268.261-185.587q4.478-3.239 9.195-4.978 4.718-1.739 10.196-1.739 13.674 0 23.87 9.445 10.195 9.446 10.195 24.62v373.174q0 15.174-10.195 24.62-10.196 9.445-23.87 9.445-5.478 0-10.196-1.739-4.717-1.739-9.195-4.978ZM683.109-480Zm0 120.935v-241.87L508.087-480l175.022 120.935Z"/></svg>