<svg xmlns="http://www.w3.org/2000/svg" width="48" height="48" viewBox="0 -960 960 960"><path d="M236.174-76.413v-171.196q-35.044-16.239-64.424-43.478-29.38-27.239-50.62-62.978-21.239-35.739-32.978-77.978Q76.413-474.283 76.413-520q0-159.674 112.99-261.63 112.989-101.957 290.63-101.957T770.63-781.63Q883.587-679.674 883.587-520q0 45.717-11.739 87.957-11.739 42.239-32.978 77.978-21.24 35.739-50.62 62.978-29.38 27.239-64.424 43.478v171.196H236.174Zm68.37-64.783h52.826v64.783h61.753v-64.783h121.754v64.783h61.753v-64.783h52.826v-147q37-12.195 66.5-34.434 29.5-22.24 50.381-52.381 20.88-30.141 32-66.943 11.119-36.802 11.119-77.892 0-132.114-92.783-213.862-92.783-81.748-242.609-81.748-149.825 0-242.553 81.757-92.728 81.758-92.728 213.887 0 41.095 11 77.877 11 36.783 31.88 66.924 20.881 30.141 50.381 52.381 29.5 22.239 66.5 34.434v147Zm111.869-192.108h127.174L480-460.478l-63.587 127.174Zm-76.284-125.022q29.828 0 50.806-21.107 20.978-21.107 20.978-50.696 0-29.828-21.037-50.806-21.037-20.978-50.935-20.978-29.658 0-50.637 21.037-20.978 21.037-20.978 50.935 0 29.658 21.107 50.637 21.107 20.978 50.696 20.978Zm280 0q29.828 0 50.806-21.107 20.978-21.107 20.978-50.696 0-29.828-21.037-50.806-21.037-20.978-50.935-20.978-29.658 0-50.637 21.037-20.978 21.037-20.978 50.935 0 29.658 21.107 50.637 21.107 20.978 50.696 20.978Zm-315.585 317.13v-147q-37-12.195-66.5-34.434-29.5-22.24-50.381-52.381-20.88-30.141-31.88-66.943t-11-77.892q0-132.114 92.737-213.862 92.738-81.748 242.489-81.748 149.752 0 242.6 81.757 92.847 81.758 92.847 213.887 0 41.095-11.119 77.877-11.12 36.783-32 66.924-20.881 30.141-50.381 52.381-29.5 22.239-66.5 34.434v147H602.63v-60h-61.753v60H419.123v-60H357.37v60h-52.826Z"/></svg>