<svg xmlns="http://www.w3.org/2000/svg" width="48" height="48" viewBox="0 -960 960 960"><path d="M416.413-333.304h127.174L480-460.478l-63.587 127.174Zm-76.284-125.022q29.828 0 50.806-21.092 20.978-21.092 20.978-50.711 0-29.828-21.037-50.806-21.037-20.978-50.815-20.978t-50.757 21.037q-20.978 21.037-20.978 50.815t21.092 50.757q21.092 20.978 50.711 20.978Zm280 0q29.828 0 50.806-21.092 20.978-21.092 20.978-50.711 0-29.828-21.037-50.806-21.037-20.978-50.815-20.978t-50.757 21.037q-20.978 21.037-20.978 50.815t21.092 50.757q21.092 20.978 50.711 20.978ZM236.174-76.413v-171.196q-35.044-16.239-64.424-43.478-29.38-27.239-50.62-62.978-21.239-35.739-32.978-77.978-11.739-42.24-11.739-87.892 0-159.739 113.023-261.695 113.023-101.957 290.63-101.957 177.608 0 290.564 101.957 112.957 101.956 112.957 261.695 0 45.652-11.739 87.892-11.739 42.239-32.978 77.978-21.24 35.739-50.62 62.978-29.38 27.239-64.424 43.478v171.196H602.63v-124.783h-61.753v124.783H419.123v-124.783H357.37v124.783H236.174Z"/></svg>