<svg xmlns="http://www.w3.org/2000/svg" width="48" height="48" viewBox="0 -960 960 960"><path d="M693.652-935.739q27.599 0 47.865 20.391 20.266 20.391 20.266 47.739v449.718q0 14.423-10.196 24.244t-24.428 9.821q-14.233 0-23.75-9.62-9.518-9.62-9.518-24.206v-449.957H263.848q-14.478 0-24.272-9.871-9.793-9.871-9.793-24.548 0-14.677 9.82-24.194 9.821-9.517 24.484-9.517h429.565ZM555.913-541.957l-71.956-72.434q.239-27.805 20.76-47.968 20.522-20.163 48.805-20.163 29.287 0 50.143 20.857 20.857 20.856 20.857 50.143 0 28.283-20.283 48.805-20.282 20.521-48.326 20.76ZM326.348-686.043l107.609 107.369q-1.827 23.463-8.294 45.83-6.467 22.366-20.467 41.778-10.761 13.588-25.216 22.946-14.455 9.359-32.436 9.359-8.652 0-14.924-6.38-6.272-6.381-6.272-15.142v-205.76ZM142.152-187.848h592.805l-60-60H142.152v60Zm-34.065 68.131q-14.424 0-24.245-9.821-9.82-9.821-9.82-24.244v-94.066q0-28.447 19.89-48.408 19.891-19.962 48.24-19.962h464.435L266.348-656.217v229.999q0 14.478-9.871 24.272-9.871 9.794-24.429 9.794-14.557 0-24.074-9.821-9.518-9.821-9.518-24.245v-298.13L46.761-875.804q-9.478-9.479-9.478-22.457 0-12.978 9.478-22.456 9.6-9.479 22.517-9.479 12.918 0 22.635 9.479l770.5 770.739q9.239 9.555 8.859 22.495-.381 12.94-9.884 22.179-9.403 9.478-22.456 8.978-13.054-.5-22.346-9.892l-13.499-13.499h-695Zm330.348-68.131Zm23.761-448.065ZM399-524.804Z"/></svg>