<svg xmlns="http://www.w3.org/2000/svg" width="48" height="48" viewBox="0 -960 960 960"><path d="M141.5-376q-45 0-76-31.21T34.5-483q0-44.58 31.21-75.79Q96.92-590 141.5-590v-128.5q0-24 18-42t42-18H373q0-45 31-76t76-31q45 0 76 31.21t31 75.79h171.5q24 0 42 18t18 42V-590q45 0 76 31.21t31 75.79q0 44.58-31.21 75.79Q863.08-376 818.5-376v201.5q0 24-18 42t-42 18h-557q-24 0-42-18t-18-42V-376Zm232.27-113.53q11.86-12.09 11.86-29.46 0-17.36-12.09-29.22-12.1-11.86-29.34-11.86-17.24 0-29.22 12.1Q303-535.88 303-518.51q0 17.36 12.21 29.22 12.22 11.86 29.46 11.86 17.24 0 29.1-12.1Zm271.25 0Q657-501.62 657-518.99q0-17.36-12.21-29.22-12.22-11.86-29.46-11.86-17.24 0-29.1 12.1-11.86 12.09-11.86 29.46 0 17.36 12.09 29.22 12.1 11.86 29.34 11.86 17.24 0 29.22-12.1ZM346.07-285h268.1q13.26 0 22.23-9.13t8.97-22.45q0-13.32-8.97-22.19-8.97-8.86-22.23-8.86h-268.1q-13.36 0-22.4 9.01-9.04 9.02-9.04 22.34t9.04 22.3q9.04 8.98 22.4 8.98ZM209.63-182.63h540.74v-527.74H209.63v527.74ZM480-447Z"/></svg>