<svg xmlns="http://www.w3.org/2000/svg" width="48" height="48" viewBox="0 -960 960 960"><path d="M347.63-458.761q24.283 0 40.327-14.761 16.043-14.761 26.804-34.282l-88.413-88.413v115.934q0 8.761 6.261 15.142 6.261 6.38 15.021 6.38ZM108.087-119.717q-14.674 0-24.37-9.696-9.695-9.696-9.695-24.369v-94.066q0-28.587 19.771-48.478 19.772-19.892 48.359-19.892h464.435l-75.935-75.934h-298.13q-14.674 0-24.37-9.696-9.696-9.696-9.696-24.37v-298.13L46.761-875.804q-9.478-9.479-8.859-22.457.62-12.978 10.098-22.456 9.478-9.479 22.457-9.479 12.978 0 22.456 9.479l770.739 770.739q9.239 9.239 8.859 22.337-.38 13.098-9.859 22.337-9.478 9.478-22.337 8.978-12.858-.5-22.337-9.978l-13.652-13.413H108.087Zm595.522-274.305L556.391-541.478q27.805-.479 47.968-21.12 20.163-20.641 20.163-48.685 0-29-21-50.119-21-21.12-50-21.12-28.283 0-48.805 20.163-20.521 20.163-20.76 47.968L220.544-877.804q-16.153-16.153-7.457-37.044 8.696-20.891 31.565-20.891h449q27.587 0 47.859 20.391 20.272 20.391 20.272 47.739v449.478q0 22.87-21.011 31.566-21.011 8.695-37.163-7.457Z"/></svg>