<svg xmlns="http://www.w3.org/2000/svg" width="48" height="48" viewBox="0 96 960 960"><path d="M739.218 723.065 730 713.848v-98.913h52.63v108.13h-43.412ZM685 668.848l-53.913-53.913H685v53.913Zm142.63 54.217v-108.13h52.87v108.13h-52.87Zm-4.195 261.631L561.043 723.065H123.565q-22.793 0-38.43-15.636Q69.5 691.794 69.5 669q0-22.794 15.636-38.429 15.636-15.636 38.429-15.636h329.109L87.609 249.87q-9.479-9.479-8.979-22.457.5-12.978 9.979-22.456 9.623-9.718 22.576-9.218 12.952.5 22.576 9.218l734.61 735.849q9.694 9.694 9.694 22.021t-9.599 21.869q-9.6 9.717-23.016 9.717-13.416 0-22.015-9.717Zm-66.978-414.761q-11.5 0-18.979-7.463Q730 555.01 730 543.5v-29.326q0-41.884-24.5-66.061-24.5-24.178-59.5-24.178h-71q-55.196 0-92.413-42.37t-37.217-97.509q0-48.708 28.858-83.806 28.859-35.098 74.815-43.576 10.24-2 18.098 5 7.859 7 7.859 18.717 0 9.545-7.478 18.229-7.479 8.684-18.957 12.162-23.487 7.267-37.026 26.471Q498 256.458 498 284.065q0 35 21 61t56 26h71q55.674 0 96.152 38.076t40.478 92.794V543.5q0 11.51-7.336 18.972-7.336 7.463-18.837 7.463Zm97.631 0q-11.501 0-18.979-7.463-7.479-7.462-7.479-18.972v-73.446q0-68.641-41.418-114.402-41.418-45.761-106.668-54.478-11.718-2-19.316-9.669-7.598-7.669-7.598-19.073 0-9.171 7.098-17.769 7.098-8.598 18.816-13.315 18.065-6.094 30.415-20.564 12.351-14.469 17.432-33.523 2.479-10.479 10.218-16.837 7.739-6.359 17.11-6.359 11.765 0 20.273 8.452 8.508 8.451 6.269 19.983-5 23.239-16.478 40.359-11.479 17.119-27.718 30.641 57.761 18.326 101.098 74.344Q880.5 393.863 880.5 469.935V543.5q0 11.51-7.456 18.972-7.456 7.463-18.956 7.463Z"/></svg>