<svg xmlns="http://www.w3.org/2000/svg" width="48" height="48" viewBox="0 -960 960 960"><path d="M943.065-231.043q-13.761 29.391-41.456 47.25-27.696 17.858-60.652 17.858h-200q-14.674 0-24.37-9.695-9.696-9.696-9.696-24.37 0-14.674 9.696-24.37 9.696-9.695 24.37-9.695h91.195l-91.869-91.87h-165.5q0 66.479-45.174 113.239-45.174 46.761-108.652 46.761h-240q-35.135 0-54.6-23.195Q6.89-212.326 6.89-240.043q0-18.066 9.478-35.566 9.479-17.5 29.675-28.978l152.151-83.456-128.586-37.848q-24.957-7-34.435-28.457-9.478-21.456 2-45.413l19.196-37.152q11.46-23.888 38.165-38.14 26.704-14.251 52.661-11.012l295.565 31.761 131.891-97.848-40.174-36.413h-54.956q-14.286 0-23.458-9.457-9.173-9.456-9.173-23.413 0-13.956 9.173-23.293 9.172-9.337 23.458-9.337h67.435q6.804 0 12.478 2.358 5.674 2.359 11.152 6.598l273 254q17.957 16.718 24.696 32.055 6.739 15.337 6.739 29.054 0 37.761-27.739 66.239t-76.109 35.391l-41 2 98.348 92.305h10.03q11.578 0 21.263-4.917 9.685-4.916 15.924-13.931 7.435-7.804 16.131-14.478 8.695-6.674 19.087-6.674 18.434 0 28.771 13.572t3.337 29.45Zm-845.847-3.022h223.636q35.472 0 59.798-26.478t24.326-63.587l-114.782-35.326L93.218-254.065q-3 1.761-4.5 4.38-1.5 2.62-1.5 5.62 0 4 3 7t7 3Zm315.217-160H745.63q28.212 0 43.661-9.048 15.448-9.047 15.448-30.887L622.717-603.739 462.152-482.696l-337.804-37.76-19.565 38.13 307.652 88.261Zm42.326-105.457Z"/></svg>