<svg xmlns="http://www.w3.org/2000/svg" width="48" height="48"><path d="M11.5 30.2q-.9 0-1.5-.6t-.6-1.5q0-.9.6-1.5t1.5-.6q.9 0 1.5.6t.6 1.5q0 .9-.6 1.5t-1.5.6zm0-16.6q-.9 0-1.5-.6t-.6-1.5q0-.9.6-1.5t1.5-.6q.9 0 1.5.6t.6 1.5q0 .9-.6 1.5t-1.5.6zm6.25 25q-.9 0-1.5-.6t-.6-1.5q0-.9.6-1.5t1.5-.6q.9 0 1.5.6t.6 1.5q0 .9-.6 1.5t-1.5.6zm0-16.6q-.9 0-1.5-.6t-.6-1.5q0-.9.6-1.5t1.5-.6q.9 0 1.5.6t.6 1.5q0 .9-.6 1.5t-1.5.6zM24 30.2q-.9 0-1.5-.6t-.6-1.5q0-.9.6-1.5T24 26q.9 0 1.5.6t.6 1.5q0 .9-.6 1.5t-1.5.6zm0-16.6q-.9 0-1.5-.6t-.6-1.5q0-.9.6-1.5t1.5-.6q.9 0 1.5.6t.6 1.5q0 .9-.6 1.5t-1.5.6zm6.25 25q-.9 0-1.5-.6t-.6-1.5q0-.9.6-1.5t1.5-.6q.9 0 1.5.6t.6 1.5q0 .9-.6 1.5t-1.5.6zm0-16.6q-.9 0-1.5-.6t-.6-1.5q0-.9.6-1.5t1.5-.6q.9 0 1.5.6t.6 1.5q0 .9-.6 1.5t-1.5.6zm6.25 8.2q-.9 0-1.5-.6t-.6-1.5q0-.9.6-1.5t1.5-.6q.9 0 1.5.6t.6 1.5q0 .9-.6 1.5t-1.5.6zm0-16.6q-.9 0-1.5-.6t-.6-1.5q0-.9.6-1.5t1.5-.6q.9 0 1.5.6t.6 1.5q0 .9-.6 1.5t-1.5.6z"/></svg>