<svg xmlns="http://www.w3.org/2000/svg" width="48" height="48" viewBox="0 -960 960 960"><path d="M124.761-278.565q-19.957 0-28.315-12.718-8.36-12.717-1.12-30.674l133-329.282q5-12.478 18.098-21.337 13.098-8.859 27.815-8.859 13.478 0 26.457 8.859 12.978 8.859 18.217 21.337l131.522 328.804q7.239 18.196-1.359 31.033-8.598 12.837-28.793 12.837-8.24 0-15.218-5.359t-9.978-12.837l-31.761-80.804H181.478l-31.761 81.282q-3.239 7.24-9.978 12.479-6.739 5.239-14.978 5.239Zm77.674-153.87h140.174l-68.087-179.021h-4l-68.087 179.021Zm388.282 153.87q-17.717 0-30.695-12.978-12.979-12.979-12.979-30.696 0-8.239 3.5-18.859 3.5-10.619 8.74-16.859l218.608-268.608H592.478q-11.478 0-19.456-7.978-7.979-7.979-7.979-19.457 0-11.478 7.979-19.457 7.978-7.978 19.456-7.978h204q17.718 0 30.576 12.978 12.859 12.979 12.859 31.696 0 8.239-4 18.859-4 10.619-9.239 17.859l-215.13 266.608h202.934q11.479 0 19.457 7.978 7.978 7.979 7.978 19.457 0 11.478-7.978 19.457-7.978 7.978-19.457 7.978H590.717Zm-168.565-504q-11.435 0-15.652-10.815-4.217-10.816 3.978-19.011l57.087-57.087q1.239-1 12.435-5.479 2.239 0 12.435 5.479l57.326 57.087q7.956 8.195 3.859 19.011-4.098 10.815-15.533 10.815H422.152ZM480-85.043q-2.239 0-12.435-5.718l-57.087-56.848q-8.195-8.195-4.098-19.011 4.098-10.815 15.533-10.815h115.935q11.435 0 15.652 10.815 4.217 10.816-3.739 19.011l-57.326 56.848q-1.239 1.24-12.435 5.718Z"/></svg>