<svg xmlns="http://www.w3.org/2000/svg" width="48" height="48" viewBox="0 -960 960 960"><path d="M667.348-667.228q-46-46.12-73-103.381t-32.239-120.5q-1.239-13.956 8.519-24.174 9.759-10.217 23.88-10.217 13.949 0 23.166 9.478t11.696 23.674q5.239 50.804 27 96.348 21.761 45.543 58.043 81.826 36.283 36.283 81.707 58.043 45.424 21.761 96.228 26.761 14.196 2.479 23.674 11.824 9.478 9.345 9.478 23.402t-10.181 23.285q-10.182 9.229-23.971 7.989-63-5.239-120.5-31.685-57.5-26.445-103.5-72.673Zm130.187-129.183q-19.557-19.611-32.557-44.513-13-24.902-18-52.185-2.478-12.956 6.896-22.674 9.374-9.717 23.496-9.717 13.243 0 23.176 9.337 9.933 9.337 14.128 21.815 3.61 14.075 10.849 27.026 7.238 12.952 18.042 23.637 10.566 10.924 23.511 18.706 12.946 7.783 28.272 11.305 12.478 4.435 21.815 14.391 9.337 9.957 9.337 23.101 0 14.145-9.717 23.652-9.718 9.508-22.674 6.791-27.283-5-52.15-18.022-24.867-13.022-44.424-32.65ZM396.484-447.218q-68.799 0-112.424-43.793-43.625-43.794-43.625-112.473t43.625-112.304q43.625-43.625 112.304-43.625t112.473 43.625q43.793 43.625 43.793 112.304t-43.673 112.473q-43.674 43.793-112.473 43.793ZM70.434-182.63v-31.848q0-40.631 20.675-68.446 20.673-27.815 50.673-42.815 51-26 121.816-43.239 70.815-17.24 132.815-17.24t132.315 17.12q70.315 17.12 121.315 42.88 30 15.24 51.294 43.174 21.293 27.935 21.293 68.566v31.848q0 28.697-19.836 48.533-19.836 19.836-48.533 19.836H138.565q-28.599 0-48.365-19.836-19.765-19.836-19.765-48.533Zm68.131 0h515.696v-31.131q0-15.761-8.5-28.996-8.5-13.234-24.5-22.286-48-27-108.642-40.022-60.641-13.022-116.206-13.022-55.565 0-116.707 14.141-61.141 14.142-109.141 38.955-14 6.948-23 21.208-9 14.261-9 30.022v31.131Zm257.799-332.957q38.092 0 62.995-24.774 24.902-24.775 24.902-62.946 0-38.172-24.854-63.074-24.853-24.902-62.945-24.902t-62.995 24.865q-24.902 24.866-24.902 62.974 0 38.292 24.854 63.074 24.853 24.783 62.945 24.783Zm.049-87.848Zm0 420.805Z"/></svg>