<svg xmlns="http://www.w3.org/2000/svg" width="48" height="48" viewBox="0 -960 960 960"><path d="m692.348-429.456-72.935 133.021q-4.764 7.776-11.97 12.106Q600.238-280 591.818-280q-18.47 0-27.068-15.315-8.598-15.315-.12-30.75l88.131-160.413-81.413-147.457q-8.957-15.435-.62-30.75Q579.065-680 597.629-680q8.353 0 15.534 4.35 7.181 4.351 11.968 12.085L692.348-542.5l66.456-121.065q4.525-7.776 11.731-12.106Q777.741-680 786.16-680q18.47 0 27.307 15.315t.12 30.511l-81.652 147.696 89.13 161.413q8.479 15.435-.239 30.25Q812.109-280 793.447-280q-8.398 0-15.15-4.086-6.752-4.085-11.254-11.349l-74.695-134.021ZM408.804-277H269.043q-13.258 0-22.226-9.081-8.969-9.08-8.969-22.504 0-13.322 9.037-22.184 9.038-8.861 22.398-8.861h139.521v-110.935H269.283q-13.36 0-22.398-9.038-9.037-9.037-9.037-22.397v-169.804q0-13.258 8.969-22.227Q255.785-683 269.043-683h171.196q13.258 0 22.227 9.013 8.969 9.013 8.969 22.337t-8.969 22.302q-8.969 8.978-22.227 8.978H300.478v106.935h108.326q25.913 0 44.272 18.478 18.359 18.479 18.359 44.392v110.935q0 25.913-18.359 44.271Q434.717-277 408.804-277Zm-263.527 0q-13.538 0-22.397-9.081-8.858-9.08-8.858-22.504 0-13.322 8.986-22.184 8.986-8.861 22.504-8.861 13.417 0 22.278 9.013 8.862 9.013 8.862 22.337 0 13.323-9.02 22.302Q158.611-277 145.277-277Z"/></svg>