<svg xmlns="http://www.w3.org/2000/svg" width="48" height="48" viewBox="0 -960 960 960"><path d="M482-482ZM368.848-187.152 186.152-369.848q-7.761 42.718-5.761 95.544 2 52.826 9.522 80.63 29.478 7.761 83.685 11.141 54.206 3.381 95.25-4.619Zm74.478-10.522q62.478-12.478 116.859-40.359 54.38-27.88 94.213-67.713 38.689-38.45 65.95-90.95 27.261-52.5 41.739-120.217L516.913-762.087q-62.761 13.761-117.5 41.261-54.739 27.5-93.739 66.5-38.761 38.761-65.261 93.141-26.5 54.381-42.739 117.859l245.652 245.652Zm330.522-392.478q8-41.044 5.88-93.989-2.119-52.946-9.641-82.185-29.717-7.761-83.804-11.141-54.087-3.381-95.131 4.619l182.696 182.696ZM296-114.022q-54.957 0-98.772-7.858-43.815-7.859-55.772-19.576-11.956-12.674-19.695-56.25-7.739-43.577-7.739-98.294 0-126.435 36.358-235.13 36.359-108.696 103.076-175.414 66.957-66.956 175.576-103.315Q537.651-846.218 664-846.218q54.957 0 98.772 7.979 43.815 7.978 55.772 19.695 11.956 12.674 19.815 56.25 7.859 43.577 7.859 98.294 0 126.196-36.479 235.011-36.478 108.815-103.195 175.533-66.957 66.956-175.653 103.195Q422.196-114.022 296-114.022ZM347-389l224-224q9-9 21-9t21 9q9 9 9 21t-9 21L389-347q-9 9-21 9t-21-9q-9-9-9-21t9-21Z"/></svg>