<svg xmlns="http://www.w3.org/2000/svg" width="48" height="48" viewBox="0 -960 960 960"><path d="M211.63-347.13v95.3q0 6.48-2.12 12.2-2.12 5.72-7.36 10.96L71.46-93.39Q61.98-83.2 48.52-82.84q-13.45.36-23.65-9.12-10.44-9.47-10.79-22.67-.36-13.2 9.35-23.39l122.22-127.33-44.28-125.76q-8.24-22.96-3.76-43.79 4.48-20.84 20.48-36.84l133.13-136.04q10.24-10.48 23.83-16.6 13.6-6.12 27.08-6.12 13.48 0 27.08 6.24 13.59 6.24 23.83 16.48l84 79q42.76 38.76 72.21 50.3 29.45 11.55 73.25 11.55v65.5q-50.24 0-97.38-16.27-47.14-16.26-87.9-57.02l-35.09-35.32-108.98 109.69 87.15 82.05q5.96 5.47 8.56 11.93 2.6 6.46 2.6 13.65v189.89q0 14.2-9.22 23.42-9.22 9.21-23.41 9.21-14.2 0-23.54-9.33-9.33-9.34-9.33-23.54v-174.45l-74.33-69.61Zm459.61 57.46v186.84q0 14.2-9.34 23.42-9.33 9.21-23.41 9.21t-23.41-9.33q-9.34-9.34-9.34-23.54V-326.8q0-6.72 2.36-12.94t7.6-11.69l79.8-76-32.76-179.24q-39.52 52.8-72.69 76.96-33.16 24.17-69.44 33.45-16.72-8-33.86-19.5t-29.05-25.65q46.67-8.24 86.31-31.86 39.64-23.62 74.16-80.14l41-67q17.72-28.72 44.51-35.86 26.8-7.14 54.52 5.34l180.41 78.32q9.19 4.72 14.91 13.29 5.72 8.58 5.72 18.78v121.04q0 14.2-9.34 23.41-9.33 9.22-23.41 9.22t-23.41-9.34q-9.34-9.33-9.34-23.53v-100.09l-92.98-41.6 102.89 552.84q3 14.96-7.22 26.68-10.21 11.71-27.41 11.71-11.72 0-20.43-7.09-8.72-7.1-10.72-18.06L766.5-386.13l-95.26 96.46ZM393.27-641.79q-22.1-22.34-22.1-53.66 0-31.31 22.1-53.53 22.1-22.22 53.41-22.22 31.32 0 53.54 22.22 22.21 22.22 22.21 53.53 0 31.32-22.21 53.66-22.22 22.33-53.54 22.33-31.31 0-53.41-22.33Zm208.93-171.8Q579.98-835.8 579.98-867q0-31.2 22.22-53.41 22.21-22.22 53.53-22.22 31.31 0 53.53 22.22 22.22 22.21 22.22 53.41 0 31.2-22.22 53.41-22.22 22.22-53.53 22.22-31.32 0-53.53-22.22Z"/></svg>