<svg xmlns="http://www.w3.org/2000/svg" width="48" height="48" viewBox="0 96 960 960"><path d="m480 694 116.5 88.935q10.196 7.956 20.13.38 9.935-7.576 6.457-20.011L576 619l115.5-82.174q10.196-7.717 6.717-19.272Q694.739 506 682.304 506H541l-45.087-149.304Q492.435 344.5 480.5 344.5t-16.413 12.196L418 506H276.935q-12.674 0-16.152 11.554-3.479 11.555 6.717 19.272L383 619l-46.087 145.304q-3.478 12.435 6.457 19.511 9.934 7.076 20.13-.88L480 694Zm0 287.978q-86.196 0-160.391-30.978-74.196-30.978-128.913-85.696Q135.978 810.587 105 736.391 74.022 662.196 74.022 576q0-85.435 30.978-159.511t85.696-128.913q54.717-54.837 128.913-86.315Q393.804 169.782 480 169.782q85.435 0 159.511 31.479 74.076 31.478 128.913 86.315 54.837 54.837 86.315 128.913Q886.218 490.565 886.218 576q0 86.196-31.479 160.391-31.478 74.196-86.315 128.913Q713.587 920.022 639.511 951 565.435 981.978 480 981.978Z"/></svg>