<svg xmlns="http://www.w3.org/2000/svg" width="48" height="48" viewBox="0 96 960 960"><path d="M543.109 985.761q-116.066 0-192.696-81.37-76.631-81.369-76.631-194.674v-31.173q-88.587-12.196-148.358-79.298-59.772-67.102-59.772-158.268V241.217q0-14.424 9.82-24.364 9.821-9.94 24.245-9.94h92.631v-10q.717-13.468 10.469-22.571 9.751-9.103 23.532-9.103 14.499 0 24.314 9.821 9.815 9.82 9.815 24.244v83.587q0 13.913-9.99 23.989-9.991 10.077-24.49 10.077-13.781 0-23.357-8.984-9.576-8.984-10.293-22.69v-10h-58.326v165.695q0 71.957 50.337 121.815 50.337 49.859 122.532 49.859 71.957 0 122.413-49.859 50.457-49.858 50.457-121.815V275.283h-58.565v10q-.718 12.956-10.469 22.315-9.752 9.359-23.533 9.359-14.498 0-24.194-9.821t-9.696-24.245v-83.587q0-14.424 9.871-24.244 9.871-9.821 24.37-9.821 13.781 0 23.357 9.103 9.576 9.103 10.294 22.571v10h92.63q14.424 0 24.245 9.94 9.82 9.94 9.82 24.364v199.761q0 90.687-59.173 157.67-59.174 66.982-146.805 79.417v31.652q0 85.479 56.859 146.577 56.858 61.097 144.337 61.097v68.37Zm53.826-175.696q-14.424 0-24.245-9.871-9.82-9.871-9.82-24.369 0-14.499 9.82-24.195 9.821-9.695 24.245-9.695h166.63l-59.782-60.783q-9.718-10.195-9.598-23.63.119-13.435 10.315-23.392 10.196-10.195 23.989-10.195 13.794 0 23.75 10.195l118 117.761q10.196 10.196 10.196 24.109 0 13.913-10.196 24.109l-118 117.761q-9.956 10.195-23.75 10.195-13.793 0-23.989-10.195-10.196-9.957-10.315-23.892-.12-13.935 9.598-24.13l59.782-59.783h-166.63Z"/></svg>