<svg xmlns="http://www.w3.org/2000/svg" width="48" height="48" viewBox="0 -960 960 960"><path d="M182.152-182.152h395.696v-165.935q0-14.424 9.82-24.245 9.821-9.82 24.245-9.82h165.935v-395.696H182.152v595.696Zm0 68.13q-28.104 0-48.117-20.013-20.013-20.013-20.013-48.117v-595.696q0-28.202 20.013-48.286t48.117-20.084h595.696q28.202 0 48.286 20.084t20.084 48.286v390.218q0 14.144-5.718 26.963-5.717 12.819-14.913 22.015L621.348-134.413q-9.251 9.217-21.975 14.804-12.724 5.587-26.764 5.587H182.152Zm257.131-303.826H333.348q-13.258 0-22.227-9.08-8.969-9.081-8.969-22.505 0-13.322 9.038-22.184 9.037-8.861 22.397-8.861h105.696q13.258 0 22.227 9.013 8.968 9.013 8.968 22.337t-8.968 22.302q-8.969 8.978-22.227 8.978Zm187.369-162.63H333.348q-13.258 0-22.227-9.081-8.969-9.081-8.969-22.504 0-13.322 9.038-22.304 9.037-8.981 22.397-8.981h293.065q13.258 0 22.227 9.158 8.969 9.158 8.969 22.482t-8.969 22.277q-8.969 8.953-22.227 8.953Zm-444.5 398.326v-595.696 595.696Z"/></svg>