<svg xmlns="http://www.w3.org/2000/svg" width="48" height="48" viewBox="0 96 960 960"><path d="M182.152 941.978q-28.104 0-48.117-20.013-20.013-20.013-20.013-48.117V278.152q0-28.202 20.013-48.286t48.117-20.084h595.696q28.202 0 48.286 20.084t20.084 48.286v418.805L600.957 941.978H182.152Zm256.891-303.826q13.564 0 22.499-9.02 8.936-9.021 8.936-22.355 0-13.538-8.936-22.397-8.935-8.858-22.499-8.858H333.587q-13.563 0-22.499 8.986-8.936 8.986-8.936 22.504 0 13.417 8.936 22.279 8.936 8.861 22.499 8.861h105.456Zm187.255-162.63q13.678 0 22.614-9.088t8.936-22.523q0-13.434-8.936-22.346-8.936-8.913-22.614-8.913H333.702q-13.678 0-22.614 9.062-8.936 9.061-8.936 22.456t8.936 22.373q8.936 8.979 22.614 8.979h292.596Zm-48.45 398.326 200-200H611.913q-14.424 0-24.245 9.82-9.82 9.821-9.82 24.245v165.935Z"/></svg>