<svg xmlns="http://www.w3.org/2000/svg" width="48" height="48" viewBox="0 0 48 48"><path d="M24 32.5q3.05 0 6.625-1.075T40.7 27.45q.1-.5.125-1.025.025-.525.025-1.075 0-1.05-.775-1.625T38.35 23.4q-.75.3-1.675.6t-2.125.8q-3.35 1.35-5.725 1.925Q26.45 27.3 24 27.3q-2.55 0-4.95-.575-2.4-.575-5.9-1.975-1.25-.5-2-.775T9.7 23.4q-.95-.3-1.75.275t-.8 1.675q0 .5.025 1.05t.125 1.05q5.35 2.55 9.5 3.8T24 32.5Zm0 8.55q5.35 0 9.425-2.6 4.075-2.6 5.925-6.75-4.95 2.2-8.55 3.175-3.6.975-6.8.975-3.15 0-7-1.05t-8.4-3.15q1.8 4.25 5.85 6.825T24 41.05ZM24 20q-3.35 0-5.75-2.4t-2.4-5.75q0-3.4 2.4-5.775Q20.65 3.7 24 3.7t5.75 2.375q2.4 2.375 2.4 5.775 0 3.35-2.375 5.75T24 20Zm0-3.3q2.05 0 3.45-1.425 1.4-1.425 1.4-3.425 0-2.05-1.4-3.45Q26.05 7 24 7q-2.05 0-3.45 1.4-1.4 1.4-1.4 3.45 0 2 1.4 3.425Q21.95 16.7 24 16.7Zm0 27.65q-8.9 0-14.55-5.3T3.8 25.35q0-2.7 2.15-4.3 2.15-1.6 4.7-.8.8.25 1.675.575.875.325 2.075.825 3.2 1.3 5.275 1.825Q21.75 24 24 24q2.15 0 4.225-.5 2.075-.5 5.125-1.8 1.45-.55 2.325-.9.875-.35 1.725-.6 2.55-.7 4.675.9t2.125 4.25q0 3.95-1.575 7.425-1.575 3.475-4.3 6.05-2.725 2.575-6.4 4.05Q28.25 44.35 24 44.35Z"/></svg>