<svg xmlns="http://www.w3.org/2000/svg" width="48" height="48" viewBox="0 -960 960 960"><path d="M480-309.76q61.28 0 132.68-21.64 71.41-21.64 201.69-79.4 1.76-10.53 2.26-20.93.5-10.4.5-21.68 0-20.57-15.8-32.11-15.81-11.55-34.61-6.02-14.48 5.24-32.96 11.47-18.48 6.24-42.56 16.29-67.48 26.76-114.6 38.5-47.12 11.74-96.6 11.74-51.24 0-99.36-11.86t-117.6-39.38q-25.08-10.05-40.18-15.79-15.1-5.73-29.34-10.97-18.8-6.53-34.73 5.14-15.92 11.66-15.92 33.23 0 10.28.5 21.06t2.26 21.31q107.28 50.52 190.07 75.78 82.78 25.26 144.3 25.26Zm0 170.48q107.17 0 188.66-51.75t118.49-135.45q-99.65 44.09-171.62 63.63Q543.57-243.3 480-243.3q-62.57 0-139.91-21.05-77.35-21.04-168.48-62.37 36.24 84.7 117.23 136.07 80.99 51.37 191.16 51.37ZM364.73-607.84q-47.84-47.83-47.84-115.39 0-67.55 47.84-115.39T480-886.46q67.43 0 115.39 47.84 47.96 47.84 47.96 115.39 0 67.56-47.96 115.39Q547.43-560 480-560t-115.27-47.84Zm184-46.78q28.16-28.16 28.16-68.61 0-40.44-28.16-68.61Q520.57-820 480-820q-40.57 0-68.61 28.16-28.04 28.17-28.04 68.61 0 40.45 28.04 68.61 28.04 28.16 68.61 28.16t68.73-28.16ZM480-72.83q-178.43 0-291.01-106.07Q76.41-284.98 76.41-453.41q0-53.92 42.94-85.87 42.93-31.96 93.85-15.48 15.76 5 33.38 11.62 17.62 6.62 41.62 16.38 63.76 26 105.4 36.38Q435.24-480 480-480q42.52 0 84.16-9.88 41.64-9.88 102.41-35.88 29-11 46.85-18 17.86-7 34.62-12 50.92-14.72 93.23 17.36 42.32 32.07 42.32 84.99 0 79.71-31.36 148.93-31.36 69.22-85.84 120.7-54.48 51.48-128.07 81.21Q564.72-72.83 480-72.83Z"/></svg>