<svg xmlns="http://www.w3.org/2000/svg" width="48" height="48" viewBox="0 -960 960 960"><path d="M505.435-153.304q-67.718 0-126.435-31t-94.196-88q-7.717-13.196-3.337-27.631 4.381-14.435 18.576-22.152 14.957-8.478 31.533-3.619 16.576 4.858 27.294 19.576 26 34.521 64.521 53.282 38.522 18.761 81.805 18.761 44.326 0 77.13-26.804 32.804-26.805 32.804-69.131 0-12.239-3-24.717-3-12.478-7-24.957-5-16.195 2.718-30.652 7.717-14.456 23.913-19.456 14.956-5 29.174 3.098 14.217 8.097 20.695 23.293 6.761 17.239 10.881 35.359 4.119 18.119 4.119 36.119 0 76.196-56.739 127.413-56.739 51.218-134.456 51.218ZM110-488.565q-13.717 0-22.576-8.859T78.565-520q0-13.717 8.859-22.576T110-551.435h740q13.717 0 22.576 8.859T881.435-520q0 13.717-8.859 22.576T850-488.565H110Zm216.565-123.587q-15.956-.718-27.076-12.794-11.119-12.076-10.402-28.272.717-70.239 56.196-114.619 55.478-44.381 129.195-44.381 47.522 0 91.044 17.783 43.521 17.783 74 53.348 10.195 12.196 8.652 28.25-1.544 16.054-14.739 24.772-13.957 10.956-31.152 8.837-17.196-2.12-29.631-14.598-19.522-18.804-45.185-28.207-25.663-9.402-53.467-9.402-41.283 0-72.946 22.261-31.663 22.261-33.424 59.544-1.717 15.956-13.413 27.076-11.695 11.119-27.652 10.402Z"/></svg>