<svg xmlns="http://www.w3.org/2000/svg" width="48" height="48" viewBox="0 -960 960 960"><path d="M120-34.5h-10q-14.028 0-23.33-9.337-9.3-9.337-9.3-23.415t9.3-23.413Q95.973-100 110-100h10q25.286 0 49.686-7 24.401-7 48.401-24.761Q226.696-139 239.946-139q13.25 0 21.967 7.239 24 17.761 48.4 24.761t49.685 7q24.285 0 49.306-7.38 25.022-7.381 49.022-24.381Q467.804-138 480.5-138t21.413 6.239q24 17.761 48.401 24.641 24.4 6.881 49.686 6.881 24.286 0 49.306-7.261 25.02-7.261 48.781-24.261Q706.804-138 719.851-138q13.046 0 22.062 6.239 23.761 17 48.821 24.381Q815.795-100 840-100h10q14.028 0 23.329 9.335t9.301 23.413q0 14.078-9.301 23.415T850-34.5h-10q-29 0-59.539-8.5T720-74.26Q690.078-51.5 659.539-43 629-34.5 600-34.5T540.461-43Q509.922-51.5 480-74.26 450.078-51.5 419.539-43 389-34.5 360-34.5T300.461-43Q269.922-51.5 240-74.26 210.078-51.5 179.539-43 149-34.5 120-34.5Zm354.783-536.13L632.63-446.304v161q17.24 12.239 32.718 24.097 15.478 11.859 31.956 25.098-21.195 17.913-45.891 28.892-24.696 10.978-51.413 10.978-33.761 0-64.761-17.402-31-17.402-55.239-46.163-24.239 28.761-55.239 46.163-31 17.402-64.761 17.402h-4.936q-2.696 0-5.021-1.239-103.956-72.479-163.315-132.585Q127.37-390.17 127.37-431.87q0-26.57 21.885-35.1Q171.14-475.5 194-475.5q28.283 0 68.065 9.522 39.783 9.521 89.587 27.043L330.13-570.196q-4.239-23.948 1.761-43.909 6-19.96 24.674-32.156l100.261-67.174q-6.761-1-20.565-3.761-13.805-2.761-29.489-5.521-15.685-2.761-29.609-6.022Q363.239-732 356.478-733l-83.043 56.283q-10.957 7.717-24.016 5.922-13.06-1.796-20.543-13.696-7.746-11.9-5.506-24.857 2.239-12.956 13.956-20.674l93-63.761q5.678-3.279 11.955-4.998 6.277-1.719 12.915-.719l205.252 37.988q11.748 2.251 23.726 9.99 11.978 7.739 20.217 22.218l35 62q22.283 38.804 59.305 65.826 37.021 27.021 83.543 35.26 13.021 2.419 21.706 12.756 8.685 10.337 8.685 23.692 0 13.096-9.05 22.313-9.05 9.218-21.102 6.979-63.717-10-116.837-47.142-53.119-37.141-86.598-93.423l-104.26 70.413Zm-66.957 57.456 15.804 105.391q37.761 17.761 72.87 37.065 35.109 19.305 70.87 41.066v-73.783L407.826-513.174Zm276.239-245.13q-31.04 0-53.335-22.328-22.295-22.327-22.295-53.413 0-31.086 22.327-53.423 22.328-22.337 53.413-22.337 31.086 0 53.423 22.366 22.337 22.365 22.337 53.504 0 31.04-22.365 53.335-22.366 22.296-53.505 22.296Z"/></svg>