<svg xmlns="http://www.w3.org/2000/svg" width="48" height="48" viewBox="0 96 960 960"><path d="M563 536q-13 0-21.5 8.5T533 566v163l-63-63q-9-9-21.5-8.5T428 667q-9 8-9 21t9 22l114 114q9 9 21 9t21-9l115-114q9-9 9-21.5t-9-21.5q-9-9-22-9t-22 9l-62 62V565q0-12-9-20.5t-21-8.5Zm-174 80q13 0 21.5-8.5T419 586V423l63 63q9 9 21.5 8.5T525 486q8-9 8.5-21.5T525 443L410 328q-9-9-21-9t-21 9L253 443q-9 9-8.5 21.5T254 486q9 9 21.5 8.5T297 486l62-63v164q0 12 9 20.5t21 8.5Zm91.033 365.978q-83.468 0-157.514-31.946t-129.32-87.211q-55.274-55.265-87.226-129.3-31.951-74.034-31.951-157.495t31.998-157.534q31.998-74.073 87.199-129.273 55.2-55.201 129.251-87.319 74.05-32.118 157.53-32.118T637.53 201.9q74.051 32.118 129.251 87.319 55.201 55.2 87.319 129.251 32.118 74.05 32.118 157.53T854.1 733.53q-32.118 74.051-87.319 129.251-55.2 55.201-129.24 87.199-74.04 31.998-157.508 31.998ZM480 576Zm-.12 337.848q139.403 0 238.685-99.371 99.283-99.37 99.283-238.475 0-139.285-99.253-238.567Q619.342 238.152 480 238.152q-139.522 0-238.685 99.281-99.163 99.28-99.163 238.445t99.163 238.568q99.163 99.402 238.565 99.402Z"/></svg>