<svg xmlns="http://www.w3.org/2000/svg" width="48" height="48" viewBox="0 -960 960 960"><path d="M155.304-120.478q-61.283-78-95.946-169T24.695-480q0-99.522 34.663-190.522 34.663-91 95.946-169.239H89q-9.435 0-16.392-6.837-6.956-6.837-6.956-16.272 0-9.434 6.956-16.391 6.957-6.957 16.392-6.957h129.043q14.674 0 24.37 9.816 9.696 9.815 9.696 24.489v127.13q0 9.435-6.957 16.392-6.957 6.956-16.152 6.956-9.435 0-16.392-6.956-6.956-6.957-6.956-16.392v-101.999q-62.609 74.282-98.554 162.108Q71.152-576.848 71.152-480q0 96.848 35.946 184.674 35.945 87.826 98.554 162.108v-102.238q0-9.196 6.956-16.153 6.957-6.956 16.392-6.956 9.195 0 16.152 6.956 6.957 6.957 6.957 16.153v127.369q0 14.674-9.696 24.37-9.696 9.695-24.37 9.695H89q-9.435 0-16.392-6.837-6.956-6.837-6.956-16.271 0-9.435 6.956-16.392 6.957-6.956 16.392-6.956h66.304Zm486.631-12.457q-20.479 8.239-42.957 7.239-22.478-1-42.956-11.239L304.13-255.196q-8.804-4.283-12.945-12.706-4.142-8.424-1.62-17.989l-.478-1.283q5.717-22.109 22.348-36.141 16.63-14.033 39.739-15.794l95.891-7.043-116.761-319.283q-5-12.717.859-24.294 5.859-11.576 18.576-16.815 12.957-5 24.913.859 11.957 5.859 17.196 18.576l99.478 273.674 63-22.761-48.435-134.348q-5-12.956-1.141-29.413 3.859-16.456 16.576-21.696 12.957-5.239 24.413.74 11.457 5.978 16.696 18.695l52.195 144.109 62-22.761-38.195-106.348q-5.239-12.717.739-24.793 5.978-12.076 18.696-17.316 12.717-5 24.293.74 11.576 5.739 16.815 18.456l39.196 107.587 63-23-12.196-31.348q-5.239-12.717.62-24.793 5.859-12.076 18.815-17.315 12.718-5 24.674.858 11.957 5.859 17.196 18.576l62.913 174.261q23.239 63.957-4.739 124.294-27.978 60.337-91.935 83.815l-174.587 64.261Z"/></svg>