<svg xmlns="http://www.w3.org/2000/svg" width="48" height="48" viewBox="0 -960 960 960"><path d="M155.304-120.478q-61.283-78-95.946-169T24.695-480q0-99.522 34.663-190.522 34.663-91 95.946-169.239H89q-9.435 0-16.392-6.837-6.956-6.837-6.956-16.272 0-9.434 6.956-16.391 6.957-6.957 16.392-6.957h129.043q14.674 0 24.37 9.816 9.696 9.815 9.696 24.489v127.13q0 9.435-6.957 16.392-6.957 6.956-16.152 6.956-9.435 0-16.392-6.956-6.956-6.957-6.956-16.392v-101.999q-62.609 74.282-98.554 162.108Q71.152-576.848 71.152-480q0 96.848 35.946 184.674 35.945 87.826 98.554 162.108v-102.238q0-9.196 6.956-16.153 6.957-6.956 16.392-6.956 9.195 0 16.152 6.956 6.957 6.957 6.957 16.153v127.369q0 14.674-9.696 24.37-9.696 9.695-24.37 9.695H89q-9.435 0-16.392-6.837-6.956-6.837-6.956-16.271 0-9.435 6.956-16.392 6.957-6.956 16.392-6.956h66.304Zm486.631-12.457q-20.479 8.239-42.957 7.239-22.478-1-42.956-11.239L304.13-255.196q-8.804-4.283-12.945-12.706-4.142-8.424-1.62-17.989l-.478-1.283q5.717-22.109 22.348-36.141 16.63-14.033 39.739-15.794l95.891-7.043-116.761-319.283q-5-12.717.859-24.294 5.859-11.576 18.576-16.815 12.957-5 24.913.859 11.957 5.859 17.196 18.576l131.717 359.152q5.239 14.718-3.478 27.935-8.717 13.217-24.435 14.739L407.848-278l176.326 82.761q8.522 4 18.043 3.88 9.522-.12 18.283-2.88l173.587-63.501q38.283-13.76 55.304-50.184 17.022-36.424 3.261-74.707l-63.674-174.261q-5.239-12.717.62-24.793 5.859-12.076 18.815-17.315 12.718-5 24.674.858 11.957 5.859 17.196 18.576l62.913 174.261q23.239 63.957-4.739 124.294-27.978 60.337-91.935 83.815l-174.587 64.261ZM501.891-580.544q-5-12.956.859-24.413 5.859-11.456 18.576-16.696 12.957-5.239 24.413.74 11.457 5.978 16.696 18.695l48.717 133.674q5.239 12.196-.619 24.033-5.859 11.837-18.816 16.837-11.956 5.239-23.793-1.12-11.837-6.358-17.076-18.315l-48.957-133.435Zm136.544-6.674q-5.239-12.717.739-24.793 5.978-12.076 18.696-17.316 12.717-5 24.293.74 11.576 5.739 16.815 18.456l35.718 95.913q5 12.957-1.359 24.913-6.359 11.957-19.315 17.196-12.957 4.239-24.294-1.239t-16.576-18.196l-34.717-95.674Zm39.522 229.826Z"/></svg>