<svg xmlns="http://www.w3.org/2000/svg" width="48" height="48" viewBox="0 -960 960 960"><path d="M358.191-275.935q-85.017 0-144.593-59.695-59.576-59.696-59.576-144.37t59.634-144.37q59.635-59.695 144.431-59.695 82.43 0 134.791 50.5 52.361 50.5 67.318 119.5h195.999l-63.456-63.696q-10.435-10.435-10.435-23.989T692.5-625.5q10.196-10.435 23.87-10.435 13.673 0 24.108 10.435l121.631 121.63q5.456 5.518 7.826 11.362 2.369 5.844 2.369 12.535 0 6.69-2.369 12.515-2.37 5.825-7.826 11.328L740.478-334.5q-10.554 10.435-24.168 10.435-13.614 0-23.81-10.217-10.196-10.174-10.196-23.92 0-13.746 10.196-24.037l63.695-63.696H560.196q-14.957 69-67.287 119.5-52.33 50.5-134.718 50.5Z"/></svg>