<svg xmlns="http://www.w3.org/2000/svg" width="48" height="48" viewBox="0 -960 960 960"><path d="M479.971-279.848q-12.928 0-22.525-9.627-9.598-9.627-9.598-22.554 0-12.928 9.627-22.525 9.627-9.598 22.554-9.598 12.928 0 22.525 9.627 9.598 9.627 9.598 22.554 0 12.928-9.627 22.525-9.627 9.598-22.554 9.598Zm1.854-148.717q-13.638 0-22.449-8.936-8.811-8.936-8.811-22.453v-190.242q0-13.359 8.987-22.397 8.986-9.037 22.623-9.037 13.638 0 22.449 8.935 8.811 8.936 8.811 22.453V-460q0 13.36-8.987 22.397-8.986 9.038-22.623 9.038Zm-292.629-48.196q0 62.632 26.902 114.784 26.902 52.151 87.228 91.433v-88.26q0-13.258 9.081-22.227 9.08-8.969 22.504-8.969 13.322 0 22.303 8.969 8.982 8.969 8.982 22.227v168.326q0 14.424-9.956 24.244-9.955 9.821-24.349 9.821H164.089q-13.507 0-22.494-9.081-8.986-9.08-8.986-22.504 0-13.322 9.037-22.184 9.038-8.861 22.397-8.861h92.826q-63.76-48.718-99.902-109.218-36.141-60.5-36.141-148.5 0-90.913 47.935-170.848 47.935-79.935 137.326-122.413 11.956-5.478 23.533.218 11.576 5.695 16.076 18.369 4.739 12.435.11 25.131-4.629 12.695-16.763 18.413-61.018 31.184-100.433 93.179-39.414 61.994-39.414 137.951Zm583.282 16.804q0-62.543-27.021-114.619-27.022-52.076-87.348-91.598v88.261q0 13.497-9.013 22.466-9.014 8.969-22.337 8.969-13.563 0-22.422-8.969t-8.859-22.466v-168.11q0-14.401 9.821-24.222 9.821-9.82 24.245-9.82H797.63q13.259 0 22.227 9.08 8.969 9.081 8.969 22.505 0 13.322-8.969 22.183-8.968 8.862-22.227 8.862h-93.065q63.761 48.718 99.903 109.262 36.141 60.543 36.141 148.216 0 91.233-47.935 171.508T655.348-165.696q-11.957 5.479-23.533-.597-11.576-6.077-16.076-18.87-4.739-12.315-.141-25.131 4.598-12.815 16.793-18.532 61.044-31.283 100.566-93.247 39.521-61.964 39.521-137.884Z"/></svg>