<svg xmlns="http://www.w3.org/2000/svg" width="48" height="48" viewBox="0 96 960 960"><path d="m357.373 760.065-47.743 120.37q-3.478 9.195-12.181 14.413-8.703 5.217-17.947 5.217-17.089 0-26.285-13.772-9.195-13.772-3.239-29.728l44.761-112q9.717-24.195 30.665-38.413 20.947-14.217 47.161-14.217h73.37V541.696q-160.913-5.478-266.174-46.555Q74.5 454.065 74.5 397.435q0-60.87 117.956-103.185 117.957-42.315 287.548-42.315 169.344 0 287.42 42.315Q885.5 336.565 885.5 397.435q0 56.63-105.261 97.706-105.261 41.077-266.174 46.555v150.239h73.37q25.232 0 46.79 14.337t31.036 38.293l45 112q2.239 5.036-9.88 12.453-12.12 7.417-23.098 14.254-10.979 6.837-13.88 11.815-2.901 4.978 17.032 4.978 6.779 0-9.904-5.717-16.683-5.718-19.922-14.913l-47.044-119.37H357.373ZM480 474.565q105.514 0 197.051-21.163 91.536-21.163 139.101-55.967-47.565-34.805-139.101-56.087Q585.514 320.065 480 320.065q-105.514 0-197.051 21.283-91.536 21.282-139.101 56.087 47.565 34.804 139.101 55.967Q374.486 474.565 480 474.565Zm0-77.13Z"/></svg>