<svg xmlns="http://www.w3.org/2000/svg" width="48" height="48" viewBox="0 96 960 960"><path d="M609.37 1021.5v-68.13h88V288.63H262.63V604H194.5V198.63q0-27.599 20.266-47.864Q235.031 130.5 262.63 130.5h434.74q27.599 0 47.864 20.266Q765.5 171.031 765.5 198.63v754.74q0 27.599-20.266 47.86-20.265 20.27-47.864 20.27h-88Zm-414.87 0V906.63q48.04 0 81.455 33.415t33.415 81.455H194.5Zm202.448 0q-11.731 0-21.089-8.36-9.359-8.36-11.837-22.075-9.24-53.282-47.522-91.565-38.283-38.282-91.565-47.522-13.718-2.478-22.076-11.956-8.359-9.478-8.359-22.058 0-13.616 9.359-22.355 9.358-8.739 22.076-6.5 78.239 11 134.098 66.858 55.858 55.859 66.858 134.098 2.239 12.715-6.677 22.075t-23.266 9.36Zm120.087 0q-11.709 0-20.742-8.74-9.032-8.74-11.032-21.456-11.263-103.231-84.299-176.266-73.035-73.036-176.266-84.299-12.712-1.895-21.454-11.068-8.742-9.174-8.742-21.696 0-13.523 9.359-21.814 9.358-8.291 21.837-7.291 128.239 11.239 219.217 102.217 90.978 90.978 102.217 219.217 1 12.476-7.858 21.836-8.859 9.36-22.237 9.36Z"/></svg>