<svg xmlns="http://www.w3.org/2000/svg" width="48" height="48" viewBox="0 -960 960 960"><path d="M71.87-137.37v-355.26q0-14.395 9.87-24.35 9.872-9.955 24.37-9.955 14.499 0 24.194 9.955Q140-507.025 140-492.63v45.695h101.261l121.043-400.39v-45.305q0-14.395 9.871-24.35 9.871-9.955 24.37-9.955 14.498 0 24.194 9.955t9.696 24.35v45.695h98.13v-45.695q0-14.395 9.871-24.35 9.871-9.955 24.349-9.955t24.314 9.955q9.836 9.955 9.836 24.35v40.3l121.804 405.395H820v-45.695q0-14.395 9.871-24.35 9.871-9.955 24.349-9.955 14.477 0 24.314 9.955 9.836 9.955 9.836 24.35v355.26q0 28.448-19.961 48.41Q848.448-69 820-69H560q-14.424 0-24.245-9.82-9.82-9.821-9.82-24.484v-180h-91.87v180q0 14.663-9.82 24.484Q414.424-69 400-69H140q-28.349 0-48.24-19.96-19.89-19.962-19.89-48.41Zm265.76-389.565h284.74l-27.609-91.63H365.478l-27.848 91.63Zm48-160h188.74l-27.609-91.63H413.478l-27.848 91.63ZM140-137.37h225.935v-145.934q0-28.098 20.016-48.114 20.016-20.017 48.114-20.017h91.87q28.098 0 48.114 20.017 20.016 20.016 20.016 48.114v145.934H820v-241.195H715.826q-21.507 0-39.145-13.196t-24.355-33.869l-9.565-32.935H317.478l-9.804 32.935q-6.717 20.673-24.355 33.869-17.638 13.196-39.145 13.196H140v241.195Zm340-321.195Z"/></svg>