<svg xmlns="http://www.w3.org/2000/svg" width="48" height="48" viewBox="0 -960 960 960"><path d="M224.804-129.848q-6.956 0-12.434-2.358-5.479-2.359-11.196-7.837l-85.152-83.153q-11.718-11.478-11.098-23.674.619-12.195 11.098-22.913 9.717-9.478 23.413-9.478 13.695 0 23.413 9.478l29.087 29.326v-529.304q0-14.196 9.337-23.533 9.337-9.336 23.293-9.336 13.957 0 23.413 9.336 9.457 9.337 9.457 23.533v529.304l29.087-29.326q9.717-9.717 22.793-9.717 13.076 0 23.033 9.717 9.717 9.957 9.717 23.153 0 13.195-9.717 22.913l-83.674 83.674q-5.717 5.478-11.435 7.837-5.717 2.358-12.435 2.358Zm224.588-164.478q-17.392 5.717-29.566-2.359t-12.174-27.467q0-8.196 5.457-15.392 5.456-7.195 12.413-9.674l87.022-31.608v-198.348l-87.261-30.608q-7.196-2.24-12.413-10.196-5.218-7.957-5.218-15.913 0-18.152 11.935-25.609 11.935-7.457 28.848-1.739L814.022-526.87q13.956 5.24 23.793 19.435 9.837 14.196 9.837 29.392 0 14.956-9.837 28.771-9.837 13.816-23.793 18.816l-364.63 136.13ZM563.37-397.348l225.108-80.413v-4L563.37-562.174v164.826Z"/></svg>