<svg xmlns="http://www.w3.org/2000/svg" width="48" height="48" viewBox="0 -960 960 960"><path d="M457.42-123.89q-9.81-9.87-9.81-24.25t9.99-24.2q9.99-9.81 24.37-9.81t24.19 9.99q9.82 9.99 9.82 24.37t-9.99 24.07q-9.99 9.7-24.37 9.7t-24.2-9.87Zm-166.07 0q-9.7-9.87-9.7-24.25t9.87-24.2q9.87-9.81 24.37-9.81 14.5 0 24.2 9.99 9.69 9.99 9.69 24.37t-9.87 24.07q-9.87 9.7-24.37 9.7-14.5 0-24.19-9.87Zm-165.84 0q-9.81-9.87-9.81-24.25t9.99-24.2q9.99-9.81 24.37-9.81 14.37 0 24.19 9.99 9.82 9.99 9.82 24.37t-10 24.07q-9.99 9.7-24.37 9.7-14.37 0-24.19-9.87Zm331.91-663.95q-9.81-9.99-9.81-24.37t9.99-24.19q9.99-9.82 24.37-9.82t24.19 9.99q9.82 9.99 9.82 24.37t-9.99 24.2q-9.99 9.81-24.37 9.81t-24.2-9.99Zm-166.07 0q-9.7-9.99-9.7-24.37t9.87-24.19q9.87-9.82 24.37-9.82 14.5 0 24.2 9.99 9.69 9.99 9.69 24.37t-9.87 24.2q-9.87 9.81-24.37 9.81-14.5 0-24.19-9.99Zm-165.84 0q-9.81-9.99-9.81-24.37t9.99-24.19q9.99-9.82 24.37-9.82 14.37 0 24.19 9.99 9.82 9.99 9.82 24.37t-10 24.2q-9.99 9.81-24.37 9.81-14.37 0-24.19-9.99Zm522.36 673.82q-14.42 0-24.24-9.87-9.83-9.87-9.83-24.37 0-14.5 9.83-24.2 9.82-9.69 24.24-9.69h48.17v-595.7h-48.17q-14.42 0-24.24-9.87-9.83-9.87-9.83-24.37 0-14.5 9.83-24.31 9.82-9.82 24.24-9.82h165.96q14.42 0 24.24 9.99 9.82 9.99 9.82 24.49 0 14.5-9.82 24.2-9.82 9.69-24.24 9.69h-49.42v595.7h49.42q14.42 0 24.24 9.87 9.82 9.87 9.82 24.37 0 14.5-9.82 24.19-9.82 9.7-24.24 9.7H647.87ZM240.98-445.93l45.54 46.54q9.2 10.19 9.58 23.51.38 13.31-10.06 23.75-10.19 10.43-23.87 10.43-13.67 0-23.87-10.43l-104-103.76q-10.19-10.2-10.19-24.11t10.19-24.11l104-104q10.2-10.19 23.99-10.07 13.8.11 24.47 10.79 9.96 10.19 9.46 23.39-.5 13.2-9.46 23.39l-45.78 46.54h233.76q14.42 0 24.24 9.88 9.82 9.87 9.82 24.37 0 14.49-9.82 24.19-9.82 9.7-24.24 9.7H240.98Z"/></svg>