<svg xmlns="http://www.w3.org/2000/svg" width="48" height="48" viewBox="0 0 48 48"><path d="M24 42.3q-3.9 0-6.65-2.75-2.75-2.75-2.75-6.65 0-2.5 1.2-4.65 1.2-2.15 3.3-3.5V10.6q0-2.05 1.425-3.475Q21.95 5.7 24 5.7t3.475 1.425Q28.9 8.55 28.9 10.6v14.15q2.1 1.35 3.3 3.5 1.2 2.15 1.2 4.65 0 3.9-2.75 6.65Q27.9 42.3 24 42.3Zm0-3.35q2.5 0 4.25-1.75T30 32.9q0-1.9-.925-3.55t-2.675-2.4l-.9-.35v-16q0-.65-.425-1.075Q24.65 9.1 24 9.1q-.65 0-1.075.425-.425.425-.425 1.075v16l-.9.35q-1.75.75-2.675 2.4Q18 31 18 32.9q0 2.55 1.75 4.3T24 38.95Zm0-6.05Z"/></svg>