<svg xmlns="http://www.w3.org/2000/svg" width="48" height="48" viewBox="0 -960 960 960"><path d="M65.5-394.261q-26.391 0-45.946-19.435Q0-433.13 0-459.761v-264.261q0-11.434 3.717-20.989 3.718-9.554 12.914-19.75L164.739-912.87q7-7 15.62-10.619 8.619-3.62 16.859-3.62 20 0 34.619 15.739 14.62 15.74 9.859 38.74l-21.478 113.587h208.825q22.196 0 37.533 15.337 15.337 15.336 15.337 37.532v41.87q0 7.478-1.119 13.815-1.12 6.337-2.359 9.054l-89.891 211.392q-7.674 18.587-22.968 27.184-15.293 8.598-40.12 8.598H65.5Zm465.457 193.065q-22.196 0-37.533-15.217t-15.337-37.413v-41.87q0-7.478 1.119-13.815 1.12-6.337 2.359-9.054l89.891-211.631q7.674-18.348 22.968-26.945 15.293-8.598 40.12-8.598H894.5q26.391 0 45.946 19.435Q960-526.87 960-500.478v264.26q0 11.674-3.717 21.229-3.718 9.554-12.674 19.511L795.261-47.13q-7 7-15.62 10.62-8.619 3.619-16.619 3.619-20.24 0-34.859-15.74-14.62-15.739-9.859-38.978l21.718-113.587H530.957Z"/></svg>