<svg xmlns="http://www.w3.org/2000/svg" width="48" height="48" viewBox="0 -960 960 960"><path d="m523.544-54.783 48.217-54.26-43.565-22.283q-14.479-7.239-17.718-21.837-3.239-14.598 7.239-26.315l78.044-89.565q5.239-5.24 11.217-8.098Q612.957-280 620.674-280q21.674 0 30.011 19.674t-5.859 34.87l-48.217 54.499 43.326 22.283q14.717 7.239 17.837 21.837 3.119 14.598-7.12 26.076l-78.043 89.804q-5.239 5.24-11.337 8.098Q555.174 0 547.696 0q-21.913 0-30.131-19.674-8.217-19.674 5.979-35.109Zm-248.37 0 48.217-54.26-43.326-22.283q-14.717-7.239-17.837-21.837-3.119-14.598 7.359-26.315l77.804-89.565q5.239-5.24 11.337-8.098Q364.826-280 372.304-280q21.913 0 30.131 19.674 8.217 19.674-5.979 34.87l-47.978 54.499 43.326 22.283q14.479 7.239 17.718 21.837 3.239 14.598-7.239 26.076l-77.805 89.804Q319-5.717 313.022-2.859 307.043 0 299.326 0q-21.674 0-30.011-19.674t5.859-35.109ZM290-338.565q-88.674 0-151.37-62.815-62.695-62.816-62.695-151.25 0-80.196 56.858-143.153 56.859-62.956 141.577-69.674 32.717-56 85.934-88.739Q413.522-886.935 480-886.935q91.478 0 153.815 57.62 62.337 57.619 77.533 142.858 79.717 4.957 126.217 55.413 46.5 50.457 46.5 118.414 0 71.673-50.695 122.869-50.696 51.196-123.37 51.196H290Z"/></svg>