<svg xmlns="http://www.w3.org/2000/svg" width="48" height="48" viewBox="0 -960 960 960"><path d="M546.761-271.152q27.913 0 44.554-17.478 16.642-17.479 16.642-46.109v-55.522q0-23-7.163-38.5-7.164-15.5-22.968-15.5 15.804 0 22.968-16 7.163-16 7.163-39v-39.478q0-28.631-17-46.228-17-17.598-44.914-17.598H394.435q-13.218 0-22.446 9.228-9.228 9.228-9.228 22.446 0 13.456 9.348 22.804 9.348 9.348 22.565 9.348h151.369v64h-67.804q-12.739 0-21.609 8.87-8.869 8.869-8.869 21.608t8.869 21.609q8.87 8.87 21.609 8.87h67.804v79.043H394.674q-13.217 0-22.565 9.348t-9.348 22.565q0 13.717 8.978 22.696 8.978 8.978 22.696 8.978h152.326ZM387.13-860q-13.945 0-23.288-9.512-9.342-9.513-9.342-23.533 0-14.02 9.342-23.238 9.343-9.217 23.288-9.217h185.74q13.945 0 23.288 9.393 9.342 9.393 9.342 23.413t-9.342 23.357Q586.815-860 572.87-860H387.13ZM480-70q-75.435 0-142.011-28.978t-116.413-78.696q-49.837-49.717-78.696-116.293-28.858-66.576-28.858-142.011t28.858-142.011q28.859-66.576 78.696-116.413 49.837-49.837 116.413-78.815Q404.565-802.196 480-802.196q67.478 0 126.576 22t105.337 62.239l30.239-30.239q9.957-9.956 23.533-9.956t23.533 9.956q9.956 10.196 9.956 23.772 0 13.576-9.956 23.533l-30 30q36.239 40.478 61.619 97.956 25.381 57.479 25.381 136.957 0 75.435-28.979 142.011-28.978 66.576-78.815 116.293-49.837 49.718-116.413 78.696Q555.435-70 480-70Z"/></svg>