<svg xmlns="http://www.w3.org/2000/svg" width="48" height="48" viewBox="0 -960 960 960"><path d="M526.804-273.348q23.661 0 42.787-13.686 19.126-13.686 19.126-37.162v-91.785q0-23.475-19.126-37.334-19.126-13.859-42.787-13.859h-94.282v-69.043h124.761q13.264 0 22.349-9.034 9.085-9.035 9.085-22.457t-8.983-22.401q-8.984-8.978-22.451-8.978H406.587q-14.424 0-24.245 9.821-9.82 9.82-9.82 24.244v126.652q0 14.424 9.82 24.245 9.821 9.821 24.245 9.821h120.217v68.087H403.957q-13.265 0-22.35 9.136-9.085 9.135-9.085 22.474 0 13.542 8.983 22.401 8.984 8.858 22.541 8.858h122.758ZM387.16-860q-13.975 0-23.318-9.512-9.342-9.513-9.342-23.533 0-14.02 9.462-23.238 9.462-9.217 23.437-9.217H572.84q13.975 0 23.318 9.393 9.342 9.393 9.342 23.413t-9.342 23.357Q586.815-860 572.84-860H387.16Zm92.784 790q-75.49 0-142.051-28.966-66.561-28.966-116.358-78.695-49.796-49.73-78.655-116.272-28.858-66.542-28.858-142.011t28.858-142.045q28.859-66.576 78.664-116.425 49.806-49.85 116.379-78.816Q404.496-802.196 480-802.196q67.478 0 126.576 22t105.337 62.239l30.239-30.239q9.957-9.956 23.533-9.956t23.533 10.076q9.956 10.076 9.956 23.652t-9.956 23.533l-30 30q36.239 40.478 61.619 97.956 25.381 57.479 25.381 136.957 0 75.52-28.955 142.106-28.955 66.587-78.785 116.283-49.831 49.696-116.437 78.643Q555.435-70 479.944-70Z"/></svg>