<svg xmlns="http://www.w3.org/2000/svg" width="48" height="48" viewBox="0 96 960 960"><path d="M146.652 431.935q-14.424 0-24.245-9.871-9.82-9.872-9.82-24.609 0-14.499 9.82-24.194 9.821-9.696 24.245-9.696h490q14.424 0 24.245 9.871 9.82 9.871 9.82 24.37 0 14.737-9.82 24.433-9.821 9.696-24.245 9.696h-490Zm0 178.13q-14.424 0-24.245-9.871-9.82-9.871-9.82-24.369 0-14.499 9.82-24.195 9.821-9.695 24.245-9.695h490q14.424 0 24.245 9.871 9.82 9.871 9.82 24.369 0 14.499-9.82 24.195-9.821 9.695-24.245 9.695h-490Zm0 178.37q-14.424 0-24.245-9.871-9.82-9.871-9.82-24.609 0-14.498 9.82-24.194 9.821-9.696 24.245-9.696h490q14.424 0 24.245 9.871 9.82 9.872 9.82 24.37 0 14.738-9.82 24.433-9.821 9.696-24.245 9.696h-490Zm666.52 0q-14.498 0-24.194-9.871-9.695-9.871-9.695-24.609 0-14.498 9.871-24.194t24.369-9.696q14.499 0 24.314 9.871 9.815 9.872 9.815 24.37 0 14.738-9.99 24.433-9.991 9.696-24.49 9.696Zm0-356.5q-14.498 0-24.194-9.871-9.695-9.872-9.695-24.609 0-14.499 9.871-24.194 9.871-9.696 24.369-9.696 14.499 0 24.314 9.871t9.815 24.37q0 14.737-9.99 24.433-9.991 9.696-24.49 9.696Zm0 178.13q-14.498 0-24.194-9.871-9.695-9.871-9.695-24.369 0-14.499 9.871-24.195 9.871-9.695 24.369-9.695 14.499 0 24.314 9.871t9.815 24.369q0 14.499-9.99 24.195-9.991 9.695-24.49 9.695Z"/></svg>