<svg xmlns="http://www.w3.org/2000/svg" width="48" height="48" viewBox="0 -960 960 960"><path d="M148.087-267.565q-14.424 0-24.245-9.871-9.82-9.871-9.82-24.489t9.82-24.314q9.821-9.696 24.245-9.696h487.609q14.424 0 24.244 9.871 9.821 9.872 9.821 24.49 0 14.618-9.821 24.313-9.82 9.696-24.244 9.696H148.087Zm0-178.37q-14.424 0-24.245-9.871-9.82-9.871-9.82-24.369 0-14.499 9.82-24.195 9.821-9.695 24.245-9.695h487.609q14.424 0 24.244 9.871 9.821 9.871 9.821 24.369 0 14.499-9.821 24.195-9.82 9.695-24.244 9.695H148.087Zm0-178.13q-14.424 0-24.245-9.871-9.82-9.872-9.82-24.49 0-14.618 9.82-24.313 9.821-9.696 24.245-9.696h487.609q14.424 0 24.244 9.871 9.821 9.871 9.821 24.489t-9.821 24.314q-9.82 9.696-24.244 9.696H148.087Zm663.603 356.5q-14.212 0-24.027-9.889-9.815-9.889-9.815-24.508 0-13.665 9.94-23.819t24.402-10.154q13.712 0 23.87 10.2 10.158 10.201 10.158 24.475 0 14.172-10.158 23.934-10.158 9.761-24.37 9.761Zm0-178.37q-14.212 0-24.027-9.708-9.815-9.708-9.815-24.059 0-13.972 9.94-24.168 9.94-10.195 24.402-10.195 13.712 0 23.87 10.195 10.158 10.196 10.158 24.668 0 14.101-10.158 23.684t-24.37 9.583Zm0-178.13q-14.212 0-24.027-9.841-9.815-9.841-9.815-24.388 0-13.594 9.94-23.748 9.94-10.154 24.402-10.154 13.712 0 23.87 10.158 10.158 10.158 10.158 24.37 0 14.211-10.158 23.907t-24.37 9.696Z"/></svg>