<svg xmlns="http://www.w3.org/2000/svg" width="48" height="48" viewBox="0 -960 960 960"><path d="M142.87-274.739q-28.349 0-48.24-19.891-19.891-19.891-19.891-48.24v-274.26q0-28.448 19.89-48.409Q114.522-685.5 142.87-685.5h674.26q28.448 0 48.409 19.961T885.5-617.13v274.26q0 28.349-19.961 48.24-19.961 19.891-48.409 19.891H142.87Zm233.543-195.305h70.478V-617.13h-70.478q-29.13 0-51.337 21.984-22.206 21.985-22.206 51.456 0 29.233 22.206 51.44 22.207 22.206 51.337 22.206Zm136.935 0h70.239q29.513 0 51.528-22.155 22.015-22.155 22.015-51.456 0-29.541-22.015-51.508-22.015-21.967-51.528-21.967h-70.239v147.086Z"/></svg>