<svg xmlns="http://www.w3.org/2000/svg" width="48" height="48" viewBox="0 -960 960 960"><path d="M291.435-600.304H106.707q-14.09 0-23.388-9.348-9.297-9.348-9.297-23.341 0-13.992 9.297-23.282 9.298-9.29 23.388-9.29h184.728v-137.326l-54.217 54.456q-9.893 9.718-23.121 9.718-13.227 0-23.367-9.718-9.295-9.717-9.176-23.032.12-13.316 9.837-23.033l108.805-108.804q10.195-10.196 23.989-10.196 13.793 0 23.989 10.196l109.044 109.043q9.478 9.761 9.717 22.935.239 13.174-9.17 22.891-10.265 9.718-23.58 9.718-13.315 0-23.033-9.957l-54.217-54.217v442.956h496.652q13.868 0 23.249 9.501 9.382 9.5 9.382 23.544 0 13.943-9.382 23.199-9.381 9.256-23.249 9.256H669.043v137.326l54.218-54.217q9.606-9.957 22.833-9.966 13.228-.009 23.675 9.966 9.274 9.717 9.155 22.913-.12 13.196-9.837 22.913L660.043-56.456q-10.217 10.195-23.88 10.076-13.663-.12-23.859-10.076L503.261-165.74q-9.718-9.478-9.837-22.674-.12-13.196 9.154-22.913 10.384-9.975 23.588-9.846 13.204.129 23.16 9.846l53.978 54.217v-137.326H356.935q-28.101 0-46.801-18.541-18.699-18.541-18.699-46.959v-240.369Zm311.869 180.369v-180.369H416.935v-65.261h186.369q28.368 0 47.054 18.554 18.685 18.555 18.685 46.707v180.369h-65.739Z"/></svg>