<svg xmlns="http://www.w3.org/2000/svg" width="48" height="48" viewBox="0 96 960 960"><path d="M480 713.37q65.326 0 110.63-45.305 45.305-45.304 45.305-110.63T590.63 446.804Q545.326 401.5 480 401.5t-110.63 45.304q-45.305 45.305-45.305 110.631t45.305 110.63Q414.674 713.37 480 713.37Zm-.175 308.13q-14.499 0-24.195-9.82-9.695-9.82-9.695-24.245v-44.739H400q-14.424 0-24.245-9.871-9.82-9.871-9.82-24.609 0-14.499 9.82-24.194 9.821-9.696 24.245-9.696h45.935v-94.782q-84.239-14.957-137.12-76.94-52.88-61.983-52.88-144.726 0-35.204 10.761-69.584 10.76-34.381 32.043-63.62l-39.848-39.848-36 36q-8.425 8-20.212 8-11.788 0-20.788-9-9.239-9-9.239-21.219 0-12.22 9.239-20.781l35-35-95.456-95.217v78.152q-1.196 14.185-10.828 23.527t-23.413 9.342q-14.498 0-24.194-9.82-9.696-9.821-9.696-24.245v-160q0-14.424 9.82-24.244 9.822-9.821 24.245-9.821H247.37q14.423 0 24.244 9.871t9.821 24.37q0 13.781-9.343 23.596-9.342 9.815-23.527 10.293h-78.391l95.456 95.457 36-36q8-8.239 19.881-8.12 11.88.12 20.88 9.12 9 9 9 21.1 0 12.1-9 20.9l-35 34.761 41.087 41.326q28.682-21.206 63.722-32.505 35.039-11.299 67.8-11.299 32.761 0 68.261 10.76 35.5 10.761 64.261 32.044L789.826 198.63h-78.391q-14.185-.478-23.527-10.469-9.343-9.99-9.343-23.771 0-14.499 9.821-24.194 9.821-9.696 24.244-9.696h160q14.424 0 24.365 9.821 9.94 9.82 9.94 24.244v160q0 14.424-9.991 24.245-9.99 9.82-24.489 9.82-13.781 0-23.357-9.342-9.576-9.342-10.533-23.527v-78.152L661.5 424.913q22.044 29.239 32.304 63.5 10.261 34.261 10.261 69.465 0 82.743-52.88 144.726-52.881 61.983-137.12 76.94v94.782H560q14.424 0 24.245 9.871 9.82 9.871 9.82 24.37 0 14.737-9.82 24.433-9.821 9.696-24.245 9.696h-45.935v44.739q0 14.425-9.871 24.245t-24.369 9.82Z"/></svg>