<svg xmlns="http://www.w3.org/2000/svg" width="48" height="48" viewBox="0 96 960 960"><path d="M637.236 1010.7q-6.823 0-12.564-2.43-5.742-2.42-11.172-8.01L503.456 890.218q-8.956-8.718-8.956-21.952 0-13.234 9.679-23.033 9.44-9.559 22.801-9.439 13.362.119 23.063 9.597l54.457 54.457V761.565h-249q-28.101 0-46.801-18.541Q290 724.483 290 696.065V455.696H109q-13.196 0-22.413-9.348-9.218-9.348-9.218-23.341 0-13.992 9.382-23.282 9.381-9.29 23.249-9.29h180V252.152l-55.217 55.218q-9.017 8.956-22.063 8.956t-22.644-9.956q-9.837-9.718-9.809-22.778.027-13.061 9.69-22.81L298.761 151.5q5.478-5.239 11.459-7.718 5.981-2.478 12.544-2.478 6.823 0 12.54 2.478 5.718 2.479 11.196 7.718l110.283 110.282q8.717 8.718 8.717 21.952 0 13.234-9.44 22.793-9.663 9.799-23.025 9.679-13.361-.119-23.078-9.836L355.5 252.152v443.913H851q13.196 0 22.413 9.501 9.217 9.5 9.217 23.544 0 13.943-9.381 23.199-9.381 9.256-23.249 9.256H670v138.283l55.456-55.457q8.718-8.717 21.794-8.717t22.674 9.717q9.837 9.947 9.8 23.007-.037 13.06-9.681 22.82L661.239 1000.26q-5.512 5.59-11.483 8.01-5.97 2.43-12.52 2.43ZM604.5 636.065V455.696h-189v-65.261h189q28.101 0 46.801 18.554Q670 427.544 670 455.696v180.369h-65.5Z"/></svg>