<svg xmlns="http://www.w3.org/2000/svg" width="48" height="48" viewBox="0 -960 960 960"><path d="M868.5-218.326 240.609-846.218h577.239q27.587 0 47.978 20.392 20.392 20.391 20.392 47.978v512.696q0 14.195-5.479 26.391-5.478 12.196-12.239 20.435ZM154.174-844.065v89.826L47.13-861.043q-9.478-9.479-8.978-22.457.5-12.978 9.978-22.457 9.479-9.478 21.957-9.478 12.478 0 21.956 9.478l767.153 765.914q9.239 9.478 9.239 21.956t-9.478 21.957q-9.479 9.478-22.457 9.478-12.978 0-22.457-9.478l-98.652-97.892h-82.043v48.566q0 14.913-9.696 24.608-9.695 9.696-24.369 9.696H360.957q-14.674 0-24.37-9.696-9.696-9.695-9.696-24.608v-48.566H142.152q-27.587 0-47.859-20.271-20.271-20.272-20.271-47.859v-515.696q0-26.391 19.456-46.304 19.457-19.913 42.696-19.913h18Z"/></svg>