<svg xmlns="http://www.w3.org/2000/svg" width="48" height="48" viewBox="0 -960 960 960"><path d="M690-117.609q-14.674 0-24.37-9.695-9.695-9.696-9.695-24.37V-606q0-73.326-48.305-121.63-48.304-48.305-121.63-48.305-73.087 0-121.511 48.305-48.424 48.304-48.424 121.63v204.195l66.131-66.369q10.195-10.196 23.869-10.076 13.674.119 23.87 10.315 10.196 10.196 10.196 23.87 0 13.674-10.196 23.869L305.87-296.13q-5.479 5.478-11.316 7.837-5.837 2.358-12.554 2.358-6.717 0-12.554-2.358-5.837-2.359-11.316-7.837L134.065-420.196q-10.196-10.195-10.196-23.869t10.196-23.87q10.196-10.196 23.87-10.196 13.674 0 23.869 10.196l66.131 66.13V-606q0-101.674 68.315-169.87 68.315-68.195 169.75-68.195 101.674 0 169.87 68.195 68.195 68.196 68.195 169.87v454.326q0 14.674-9.695 24.37-9.696 9.695-24.37 9.695Z"/></svg>