<svg xmlns="http://www.w3.org/2000/svg" width="48" height="48" viewBox="0 96 960 960"><path d="M480 422.239 584.752 319.7q9.531-9.504 22.128-9.504 12.598 0 22.196 9.478t10.218 22.826q.619 13.348-9.098 22.804L504.87 489.391q-10.218 10.435-24 10.435-13.783 0-23.979-10.435L331.866 364.585q-9.779-9.759-9.779-22.857 0-13.098 9.717-22.815 9.479-9.478 22.196-9.478 12.717 0 22.196 9.478L480 422.239Zm0-199.522 104.752-102.752q9.531-9.53 22.128-9.53 12.598 0 22.196 9.478t10.218 22.826q.619 13.348-9.098 22.805L504.87 289.87q-10.218 10.195-24 10.195-13.783 0-23.979-10.195L331.804 164.783q-9.717-9.516-9.717-22.696 0-13.18 9.717-22.696 9.513-9.717 22.196-9.597 12.683.119 22.196 9.597L480 222.717Zm1 705.805L376.435 1032.09q-9.781 9.71-22.467 9.71-12.685 0-22.164-9.71-9.478-9.72-9.598-22.32-.119-12.596 9.636-22.352L455.891 862.13q10.283-10.195 24.152-10.195 13.87 0 24.066 10.195l126.326 126.326q9.478 9.718 9.608 22.444.129 12.73-9.608 22.19-9.522 9.71-22.337 9.59-12.815-.11-22.294-9.59L481 928.522Zm0-200L376.435 832.326q-9.718 9.717-22.435 9.598-12.717-.12-22.196-9.88-9.478-9.503-9.598-22.165-.119-12.662 9.598-22.183L455.891 662.37q10.283-10.196 24.152-10.196 13.87 0 24.066 10.196l126.326 126.326q9.478 9.521 9.598 22.337.119 12.815-9.641 22.311-9.503 9.699-22.294 9.58-12.79-.12-22.294-9.837L481 728.522Z"/></svg>