<svg xmlns="http://www.w3.org/2000/svg" width="48" height="48"><path d="M24.1 37.85q.65 0 1.075-.45.425-.45.425-1.05v-8.6l3.1 3.1q.45.4 1.025.4t1.075-.45q.4-.45.4-1.075t-.45-1.025l-5.55-5.35q-.3-.3-.6-.4-.3-.1-.6-.1-.35 0-.625.1t-.575.4l-5.5 5.5q-.45.45-.425 1.025.025.575.475 1.075.4.4 1.025.4.625 0 1.075-.45l3.15-3.15v8.6q0 .65.425 1.075.425.425 1.075.425zm-13 6.45q-1.35 0-2.375-1.025T7.7 40.9V7.1q0-1.4 1.025-2.4t2.375-1h16.65q.7 0 1.325.25t1.125.75l9.1 9.1q.5.5.75 1.125t.25 1.325V40.9q0 1.35-1 2.375T36.9 44.3zM27.45 7.1H11.1v33.8h25.8V16.4h-7.75q-.75 0-1.225-.475-.475-.475-.475-1.225zm-16.35 0v9.3-9.3 33.8V7.1z"/></svg>