<svg xmlns="http://www.w3.org/2000/svg" width="48" height="48" viewBox="0 96 960 960"><path d="M313 647h247q14.025 0 23.513-9.775Q593 627.45 593 613v-93l57.174 57.174q8.196 8.196 19.011 4.056T680 565.5V421.261q0-11.272-10.815-15.451-10.815-4.18-19.011 4.016L593 467v-94q0-14.025-9.487-23.513Q574.025 340 560 340H313q-14.025 0-23.513 9.487Q280 358.975 280 373v240q0 14.45 9.487 24.225Q298.975 647 313 647ZM74.022 900.174V238.152q0-26.697 20.265-47.533 20.266-20.837 47.865-20.837h675.696q26.697 0 47.533 20.837 20.837 20.836 20.837 47.533v515.696q0 26.599-20.837 47.365-20.836 20.765-47.533 20.765H234.022L131.957 924.043q-16.153 16.153-37.044 7.398-20.891-8.755-20.891-31.267Zm68.13-77.783 68.544-68.543h607.152V238.152H142.152v584.239Zm0-584.239v584.239-584.239Z"/></svg>