<svg xmlns="http://www.w3.org/2000/svg" width="48" height="48" viewBox="0 -960 960 960"><path d="M372-452.239v102q0 12.75 8.675 21.375 8.676 8.625 21.5 8.625 12.825 0 21.325-8.625t8.5-21.375v-102h102q12.75 0 21.375-8.676 8.625-8.675 8.625-21.5 0-12.824-8.625-21.324-8.625-8.5-21.375-8.5H432v-102q0-12.75-8.675-21.375-8.676-8.625-21.5-8.625-12.825 0-21.325 8.625t-8.5 21.375v102H270q-12.75 0-21.375 8.675-8.625 8.676-8.625 21.5 0 12.825 8.625 21.325t21.375 8.5h102ZM142.152-154.022q-27.599 0-47.865-20.265-20.265-20.266-20.265-47.865v-515.696q0-27.697 20.265-48.033 20.266-20.337 47.865-20.337h515.696q27.697 0 48.033 20.337 20.337 20.336 20.337 48.033V-525L856.63-655.413q7.718-7.957 18.653-3.847 10.935 4.11 10.935 15.282v327.956q0 11.172-10.935 15.282-10.935 4.11-18.653-3.847L726.218-435v212.848q0 27.599-20.337 47.865-20.336 20.265-48.033 20.265H142.152Zm0-68.13h515.696v-515.696H142.152v515.696Zm0 0v-515.696 515.696Z"/></svg>