<svg xmlns="http://www.w3.org/2000/svg" width="48" height="48" viewBox="0 -960 960 960"><path d="M222.152-74.022q-27.587 0-47.859-20.271-20.271-20.272-20.271-47.859v-675.696q0-27.587 20.271-47.978 20.272-20.392 47.859-20.392h332.891q13.674 0 26.729 5.718 13.054 5.717 22.25 14.913l181.565 181.565q9.196 9.196 14.913 22.25 5.718 13.055 5.718 26.729v492.891q0 27.587-20.392 47.859-20.391 20.271-47.978 20.271H222.152Zm326.696-591.891q0 14.674 9.695 24.37 9.696 9.695 24.37 9.695h154.935l-189-186v151.935ZM352-240h175q14 0 24.5-10.5T562-275v-55l54.891 31.326q8.957 5.478 17.033.5T642-313.348v-93.304q0-10.196-8.076-15.174t-17.033.5L562-390v-55q0-14-10.5-24.5T527-480H352q-14 0-24.5 10.5T317-445v170q0 14 10.5 24.5T352-240Z"/></svg>