<svg xmlns="http://www.w3.org/2000/svg" width="48" height="48" viewBox="0 96 960 960"><path d="M352 816h175q14 0 24.5-10.5T562 781v-55l54.891 31.087q8.543 5.717 16.826.531Q642 752.432 642 742.174v-92.348q0-9.867-8.076-15.248-8.076-5.382-17.033.096L562 666v-55q0-14-10.5-24.5T527 576H352q-14 0-24.5 10.5T317 611v170q0 14 10.5 24.5T352 816ZM222.152 981.978q-27.599 0-47.865-20.265-20.265-20.266-20.265-47.865V238.152q0-27.697 20.265-48.033 20.266-20.337 47.865-20.337h332.891q13.646 0 26.215 5.218 12.568 5.217 22.764 15.413l181.565 181.565q10.196 10.196 15.413 22.764 5.218 12.569 5.218 26.215v492.891q0 27.599-20.337 47.865-20.336 20.265-48.033 20.265H222.152Zm326.696-743.826H222.152v675.696h515.696V424.152H582.913q-14.424 0-24.245-9.82-9.82-9.821-9.82-24.245V238.152Zm-326.696 0v186-186 675.696-675.696Z"/></svg>