<svg xmlns="http://www.w3.org/2000/svg" width="48" height="48" viewBox="0 -960 960 960"><path d="M743.218-629.152q-14.424 0-24.245-9.821-9.821-9.821-9.821-24.245v-108.695q0-14.424 9.821-24.364 9.821-9.941 24.245-9.941h108.695q14.424 0 24.364 9.941 9.941 9.94 9.941 24.364v108.695q0 14.424-9.941 24.245-9.94 9.821-24.364 9.821H743.218Zm0 238.065q-14.424 0-24.245-9.821-9.821-9.82-9.821-24.244v-109.935q0-14.424 9.821-24.245 9.821-9.82 24.245-9.82h108.695q14.424 0 24.364 9.82 9.941 9.821 9.941 24.245v109.935q0 14.424-9.941 24.244-9.94 9.821-24.364 9.821H743.218ZM108.087-154.022q-14.424 0-24.245-9.82-9.82-9.821-9.82-24.245v-583.826q0-14.424 9.82-24.364 9.821-9.941 24.245-9.941h507q14.424 0 24.245 9.941 9.82 9.94 9.82 24.364v583.826q0 14.424-9.82 24.245-9.821 9.82-24.245 9.82h-507Zm635.131 0q-14.424 0-24.245-9.82-9.821-9.821-9.821-24.245v-108.935q0-14.424 9.821-24.244 9.821-9.821 24.245-9.821h108.695q14.424 0 24.364 9.821 9.941 9.82 9.941 24.244v108.935q0 14.424-9.941 24.245-9.94 9.82-24.364 9.82H743.218Z"/></svg>