<svg xmlns="http://www.w3.org/2000/svg" width="48" height="48" viewBox="0 0 48 48"><path d="M16.8 20.25H7.2q-1.45 0-2.45-1-1-1-1-2.45V7.2q0-1.45 1-2.45 1-1 2.45-1h9.6q1.45 0 2.45 1 1 1 1 2.45v9.6q0 1.45-1 2.45-1 1-2.45 1ZM7.2 16.8h9.6V7.2H7.2Zm9.6 27.45H7.2q-1.45 0-2.45-1-1-1-1-2.45v-9.6q0-1.45 1-2.45 1-1 2.45-1h9.6q1.45 0 2.45 1 1 1 1 2.45v9.6q0 1.45-1 2.45-1 1-2.45 1ZM7.2 40.8h9.6v-9.6H7.2Zm33.6-20.55h-9.6q-1.45 0-2.45-1-1-1-1-2.45V7.2q0-1.45 1-2.45 1-1 2.45-1h9.6q1.45 0 2.45 1 1 1 1 2.45v9.6q0 1.45-1 2.45-1 1-2.45 1Zm-9.6-3.45h9.6V7.2h-9.6Zm9.6 27.45h-9.6q-1.45 0-2.45-1-1-1-1-2.45v-9.6q0-1.45 1-2.45 1-1 2.45-1h9.6q1.45 0 2.45 1 1 1 1 2.45v9.6q0 1.45-1 2.45-1 1-2.45 1Zm-9.6-3.45h9.6v-9.6h-9.6Zm-14.4-24Zm0 14.4Zm14.4-14.4Zm0 14.4Z"/></svg>