<svg xmlns="http://www.w3.org/2000/svg" width="48" height="48"><path d="M37.15 16.55q-.7 0-1.2-.5t-.5-1.2V9.4q0-.7.5-1.2t1.2-.5h5.45q.7 0 1.2.5t.5 1.2v5.45q0 .7-.5 1.2t-1.2.5zm0 11.9q-.7 0-1.2-.5t-.5-1.2v-5.5q0-.75.5-1.225.5-.475 1.2-.475h5.45q.7 0 1.2.475t.5 1.225v5.5q0 .7-.5 1.2t-1.2.5zM5.4 40.3q-.7 0-1.2-.5t-.5-1.2V9.4q0-.7.5-1.2t1.2-.5h25.35q.75 0 1.225.5.475.5.475 1.2v29.2q0 .7-.475 1.2t-1.225.5zm31.75 0q-.7 0-1.2-.5t-.5-1.2v-5.45q0-.7.5-1.2t1.2-.5h5.45q.7 0 1.2.5t.5 1.2v5.45q0 .7-.5 1.2t-1.2.5z"/></svg>