<svg xmlns="http://www.w3.org/2000/svg" width="48" height="48" viewBox="0 0 48 48"><path d="M17.75 21.15H9.3q-1.45 0-2.45-1-1-1-1-2.45V9.25q0-1.4 1-2.4t2.45-1h8.45q1.4 0 2.4 1t1 2.4v8.45q0 1.45-1 2.45-1 1-2.4 1Zm0 21H9.3q-1.45 0-2.45-1-1-1-1-2.45v-8.45q0-1.4 1-2.4t2.45-1h8.45q1.4 0 2.4 1t1 2.4v8.45q0 1.45-1 2.45-1 1-2.4 1Zm21-21H30.3q-1.45 0-2.45-1-1-1-1-2.45V9.25q0-1.4 1-2.4t2.45-1h8.45q1.4 0 2.4 1t1 2.4v8.45q0 1.45-1 2.45-1 1-2.4 1Zm0 21H30.3q-1.45 0-2.45-1-1-1-1-2.45v-8.45q0-1.4 1-2.4t2.45-1h8.45q1.4 0 2.4 1t1 2.4v8.45q0 1.45-1 2.45-1 1-2.4 1Z"/></svg>