<svg xmlns="http://www.w3.org/2000/svg" width="48" height="48" viewBox="0 96 960 960"><path d="m630.196 633.891-51.892-51.652q24.805-64.543-23.532-106.282-48.337-41.739-102.446-19.696l-50.217-50.457q16.521-10.282 36.804-15.043Q459.196 386 480 386q71 0 120.5 49.5T650 556q0 20.565-5.141 41.706-5.142 21.142-14.663 36.185Zm133.543 134.022-43.587-43.826q47.805-35.761 83.348-79.663 35.543-43.902 53.261-88.424-50.478-110.761-150.12-175.38Q607 316 490 316q-42 0-85.043 7.761-43.044 7.761-66.609 18.282L287.565 290.5q35-16 90.218-28Q433 250.5 485 250.5q135.478 0 250.794 74.239 115.315 74.239 176.75 201.631 3.239 5.717 4.358 13.434 1.12 7.718 1.12 16.196 0 8.478-1.12 16.696-1.119 8.217-4.358 13.695-26.24 54.761-64 100.761-37.761 46-84.805 80.761Zm27.152 203.283L649.196 832.261q-35 14-79.239 21.62Q525.717 861.5 480 861.5q-138.717 0-254.794-74.359-116.076-74.358-177.75-201.75-3.239-6.478-4.358-13.695-1.12-7.218-1.12-15.696t1.62-16.815q1.62-8.337 3.858-13.815 21-44.283 53.261-86.544 32.261-42.261 75.544-80.5L73.174 255.239q-9.478-9.239-9.478-21.837 0-12.598 9.478-21.837 9.239-9.478 22.337-9.478 13.098 0 22.576 9.478l716.717 716.718q8.479 8.478 8.239 20.576-.239 12.098-8.239 21.337-8.478 10.478-21.576 10.478t-22.337-9.478ZM221.326 403.913q-36.761 27.478-70.185 70.402T102.478 556q51.239 111 153.381 175.5Q358 796 488 796q31.565 0 62.728-3.761t47.163-11.761l-64-64q-10.282 4.761-25.445 7.142Q493.283 726 480 726q-70 0-120-49t-50-121q0-14.043 2.261-28.326 2.261-14.283 6.782-25.565l-97.717-98.196ZM530.63 542.565Zm-121.021 60.631Z"/></svg>