<svg xmlns="http://www.w3.org/2000/svg" width="48" height="48" viewBox="0 -960 960 960"><path d="M504.826-539.783 296.348-748.022q9.717-3.957 27.108-7.674 17.392-3.717 37.022-3.717 68.631 0 112.424 43.673 43.794 43.674 43.794 112.305 0 15.63-3.457 33.402-3.456 17.772-8.413 30.25ZM34.5-182.63v-32.848q0-39.435 21.837-68.489 21.837-29.055 49.511-41.772 69-32 130.815-46.239 61.815-14.24 123.815-14.24 31.37 0 69.315 5.142 37.946 5.141 69.033 14.902L409.739-455.5q-9.565 3.522-21.75 5.902-12.185 2.38-27.511 2.38-68.869 0-112.304-43.673-43.435-43.674-43.674-111.588 0-12.565 1.88-26.13 1.881-13.565 5.402-23.609L62.196-801.326q-9.718-9.717-9.218-22.696.5-12.978 10.218-22.456 9.239-9.479 22.337-9.479 13.097 0 22.815 9.479l733.565 733.13q9.478 9.478 9.478 22.076t-9.717 22.076q-9.717 9.479-22.696 9.479-12.978 0-22.217-9.479l-107.978-106.5h-2.087q0 25.718-17.978 43.577-17.979 17.858-43.457 17.858H102.63q-28.347 0-48.239-19.891Q34.5-154.043 34.5-182.63Zm891-421.044q0 80.478-24.5 142.837-24.5 62.358-69.5 116.358-10.239 12.24-25.217 13.24-14.979 1-25.979-10.24-11-11.239-10.739-26.478.261-15.239 10.5-27.478 35.761-44 54.881-92.5 19.119-48.5 19.119-115.739 0-67-18.761-115.381-18.76-48.38-54.521-92.38-10-12-10.261-27.359-.261-15.358 10.739-26.358T807-875.033q14.739 1.12 24.978 13.359 44.761 54 69.142 116 24.38 62 24.38 142Zm-202.391.239q0 31.761-9.5 60.641-9.5 28.881-26.022 54.642-8 12.239-22.12 13-14.119.76-25.119-10.24-11-11.239-12-25.478t6.761-27.717q7.521-13.522 12.163-29.924 4.641-16.402 4.641-34.924 0-18.044-4.641-34.326-4.642-16.283-12.163-29.804-7.761-13.24-6.642-27.718 1.12-14.478 12.359-25.717 11-11 25.239-10.12 14.239.881 22.239 13.12 16.283 25.761 25.544 54.402 9.261 28.641 9.261 60.163Z"/></svg>