<svg xmlns="http://www.w3.org/2000/svg" width="48" height="48" viewBox="0 -960 960 960"><path d="M356.174-354.022H226.891q-14.913 0-24.609-9.695-9.695-9.696-9.695-24.37v-183.826q0-14.674 9.695-24.489 9.696-9.816 24.609-9.816h129.283l150.435-150.195q15.913-16.152 37.043-7.576 21.131 8.576 21.131 31.206v505.327q0 22.869-21.131 31.445-21.13 8.576-37.043-7.576L356.174-354.022ZM747.413-480q0 52.239-26.358 94.598-26.359 42.359-74.077 64.837-8.478 4.239-15.337-1-6.858-5.239-6.858-13.957v-289.956q0-8.718 6.858-13.837 6.859-5.12 15.337-.881 47.718 22.479 74.077 65.718 26.358 43.239 26.358 94.478Z"/></svg>