<svg xmlns="http://www.w3.org/2000/svg" width="48" height="48" viewBox="0 -960 960 960"><path d="m562.717-109.283 248-78q0-20-15.5-34t-36.5-13H548.043q-14.565 1-29.904-2t-30.422-7.986l-66-19.958q-12-3.749-18-15.794-6-12.044-2-24.092 4-11.964 15.278-17.947 11.278-5.983 23.722-.983l66.153 21.478q10.043 3.761 21.002 5.624 10.958 1.863 21.871 1.658h55.991-.017q0-21-14-36.5t-34-23.5l-218-83h-81.369v238.479l304.369 89.521Zm-15.391 62.022-288.978-82.804q-3.674 27.239-25.968 41.641-22.293 14.402-42.163 14.402h-86.869q-28.104 0-48.117-20.013-20.014-20.013-20.014-48.117v-292.5q0-28.104 20.014-48.117 20.013-20.014 48.117-20.014h234.891q6.051 0 12.102 1.12 6.05 1.119 12.007 3.359l217.282 81.76q43.435 16.718 69.011 48.033 25.577 31.315 25.577 74.228h84.499q53.125 0 90.313 36.163t37.188 88.837q0 12.847-6.696 23.315-6.696 10.468-17.892 13.946L586.109-47.261q-9.367 2.24-19.477 2.24t-19.306-2.24Zm-446.609-92.022h91.131v-298h-91.131v298Zm549.116-351.956q-12.931 0-25.069-4.729-12.137-4.728-22.438-14.424L482.717-626.283q-29.602-28.079-50.279-62.111-20.677-34.032-20.677-74.324 0-54.195 36.196-92.913 36.195-38.717 89.869-38.717 33.761 0 61.641 17.022 27.881 17.021 50.24 42.065 22.358-25.044 50.391-42.065 28.033-17.022 61.728-17.022 53.315 0 89.69 38.717 36.375 38.718 36.375 92.913 0 40.107-20.978 74.152-20.978 34.044-50.217 62.283L697.087-510.392q-10.057 9.696-22.315 14.424-12.258 4.729-24.939 4.729Zm-.007-62.587 119.221-116.875q20.179-19.349 36.762-41.521 16.582-22.173 16.582-50.017 0-27.09-17.141-46.969t-43.384-19.879q-19.764 0-36.424 11-16.659 11-29.716 26.568l-20.645 24.705q-10.167 11.335-25.189 11.335t-25.052-11.335l-21.21-24.751q-13-15.403-29.54-26.462-16.54-11.06-36.304-11.06-26.242 0-43.384 19.879-17.141 19.879-17.141 46.969 0 27.633 16.716 49.876t36.806 41.689l119.043 116.848Zm0-184.892Z"/></svg>