<svg xmlns="http://www.w3.org/2000/svg" width="48" height="48" viewBox="0 -960 960 960"><path d="M320-194.022q-119.341 0-202.66-83.329-83.318-83.329-83.318-202.685 0-119.355 83.318-202.649 83.319-83.293 202.66-83.293h320q119.341 0 202.66 83.329 83.318 83.329 83.318 202.685 0 119.355-83.318 202.649-83.319 83.293-202.66 83.293H320Zm0-68.369h320q89.949 0 153.779-63.83T857.609-480q0-89.949-63.83-153.779T640-697.609H320q-89.949 0-153.779 63.83T102.391-480q0 89.949 63.83 153.779T320-262.391Zm15.217-194.022v64.022q0 9.674 6.957 16.63 6.956 6.957 16.63 6.957 9.435 0 16.511-6.957 7.076-6.956 7.076-16.63v-64.022h64.022q9.674 0 16.63-6.957Q470-470.326 470-480t-6.957-16.63q-6.956-6.957-16.63-6.957h-64.022v-64.022q0-9.674-7.076-16.63-7.076-6.957-16.511-6.957-9.674 0-16.63 6.957-6.957 6.956-6.957 16.63v64.022h-64.021q-9.674 0-16.631 6.957-6.956 6.956-6.956 16.63t6.956 16.63q6.957 6.957 16.631 6.957h64.021Zm291.196-87.609v151.631q0 9.674 6.957 16.63 6.956 6.957 16.63 6.957t16.63-6.957q6.957-6.956 6.957-16.63V-557.13q0-14.674-9.696-24.37-9.695-9.696-24.369-9.696H590q-9.674 0-16.63 6.957-6.957 6.956-6.957 16.63 0 9.435 6.957 16.511 6.956 7.076 16.63 7.076h36.413ZM480-480Z"/></svg>