<svg xmlns="http://www.w3.org/2000/svg" width="48" height="48" viewBox="0 -960 960 960"><path d="M280-234.5q-102.073 0-173.786-71.73Q34.5-377.96 34.5-480.056q0-102.096 71.714-173.77Q177.927-725.5 280-725.5q88.391 0 149.609 49.717 61.217 49.718 84.935 118.718h346.891q26.913 0 45.489 18.576Q925.5-519.913 925.5-493v26q0 25.155-17.022 43.654-17.021 18.498-42.978 19.933h-46V-300q0 26.435-18.217 44.533-18.218 18.097-44.653 18.097h-6q-26.434 0-44.532-18.097Q688-273.565 688-300v-102.935H514.544q-23.718 69-84.935 118.718Q368.391-234.5 280-234.5Zm-.059-174.87q30.255 0 50.472-20.277 20.217-20.278 20.217-50.294 0-30.255-20.158-50.472-20.158-20.217-50.413-20.217-30.016 0-50.353 20.158-20.336 20.158-20.336 50.413 0 30.016 20.277 50.353 20.278 20.336 50.294 20.336Z"/></svg>