<svg xmlns="http://www.w3.org/2000/svg" width="48" height="48" viewBox="0 -960 960 960"><path d="M146.238-115.935q-14.499 0-24.195-9.82-9.695-9.821-9.695-24.245v-180q0-14.424 9.871-24.245 9.871-9.82 24.369-9.82 14.499 0 24.195 9.82 9.695 9.821 9.695 24.245v180q0 14.424-9.871 24.245-9.871 9.82-24.369 9.82Zm108.545-90q-14.663 0-24.484-9.871-9.821-9.871-9.821-24.369 0-14.499 9.821-24.195 9.821-9.695 24.484-9.695h188.326q18.141 0 30.483-12.343 12.343-12.342 12.343-30.483V-440H266.717q-17.152 0-27.228-14.174t-4.598-30.326l101.522-338.804q3.478-11.196 11.907-17.533 8.429-6.337 20.158-6.337h303.283q11.49 0 19.919 6.337t11.907 17.533L805.348-484.5q5.239 16.152-4.837 30.326T773.283-440H554.065v120q0 47.507-33.279 80.786T440-205.935H254.783Z"/></svg>