<svg xmlns="http://www.w3.org/2000/svg" width="48" height="48" viewBox="0 96 960 960"><path d="M757.703 385.848q-38.084 0-65.382-27.337-27.299-27.337-27.299-65.508 0-32.463 25.739-73.701 25.739-41.237 46.26-68.047 4.197-5.625 9.675-8.244 5.478-2.62 10.956-2.62 5.479 0 11.076 2.62 5.598 2.619 9.795 8.244 20.521 26.81 46.26 67.996 25.739 41.185 25.739 73.727 0 38.196-26.818 65.533-26.817 27.337-66.001 27.337ZM554.11 438.804q-23.436 0-39.534-16.008t-16.098-39.445q0-13.871 11.381-33.046 11.38-19.175 23.619-34.653 4.028-5.478 9.493-8.337 5.464-2.859 11.181-2.859 5.718 0 11.196 2.859t9.717 8.337q12 15.478 23.381 34.653 11.38 19.175 11.38 33.046 0 23.437-16.14 39.445t-39.576 16.008ZM141.889 1032.02q-47.172 0-81.107-33.933-33.934-33.935-33.934-81.113v-247.43q0-23.974 9.478-45.542 9.478-21.567 26.956-38.045L327.5 335.978q10.185-9.196 24.364-9.196t23.614 10.196l16.283 16.522q7.478 8.956 8.217 20.238.739 11.282-4.739 21.11L328 514.326h423.051q17.275 0 28.612 12.426Q791 539.177 791 557.411q0 18.296-12.401 30.714-12.402 12.419-30.708 12.419H491.196q-12.618 0-20.831 8.004-8.213 8.005-8.213 20.663 0 12.659 8.213 20.8t20.831 8.141h339.087q17.99 0 30.549 12.395 12.56 12.395 12.56 30.69 0 17.981-12.56 30.437-12.559 12.457-30.549 12.457H491.196q-12.618 0-20.831 8.308-8.213 8.309-8.213 20.735t8.213 20.615q8.213 8.189 20.831 8.189h297.891q18.205 0 30.538 12.553 12.332 12.552 12.332 30.652t-12.332 30.437q-12.333 12.337-30.538 12.337H491.196q-12.618 0-20.831 8.309-8.213 8.308-8.213 20.734 0 12.426 8.213 20.615 8.213 8.19 20.831 8.19h215.739q17.99 0 30.43 12.379 12.44 12.379 12.44 30.652 0 18.274-12.44 30.734-12.44 12.45-30.43 12.45H141.889Z"/></svg>