<svg xmlns="http://www.w3.org/2000/svg" width="48" height="48" viewBox="0 -960 960 960"><path d="M300-80.02q-15.26 0-25.35-10.09-10.08-10.08-10.08-25.35v-160q0-15.26 10.08-25.35 10.09-10.08 25.35-10.08h100q15.26 0 25.35 10.08 10.08 10.09 10.08 25.35v160q0 15.27-10.08 25.35Q415.26-80.02 400-80.02H300Zm15.43-50.87h69.14v-129.13h-69.14v129.13Zm214-29.13v60.46q0 11.33-7.45 18.44-7.46 7.1-17.96 7.1t-17.98-7.1q-7.47-7.11-7.47-18.37v-192.29q0-10.35 7.88-17.73 7.88-7.38 18.22-7.38h119.9q21.19 0 36.03 14.84 14.83 14.83 14.83 36.03v55.13q0 17.24-10.38 30.34-10.38 13.09-27.14 18.81l21.29 52.81q5.23 12.71-2.58 23.81-7.82 11.1-21.62 11.1-8.24 0-14.1-4.24-5.86-4.24-9.1-11.48l-27.87-70.28h-54.5Zm246 0v60.46q0 11.33-7.45 18.44-7.46 7.1-17.96 7.1t-17.98-7.1q-7.47-7.11-7.47-18.37v-192.29q0-10.35 7.88-17.73 7.88-7.38 18.22-7.38h119.9q21.19 0 36.03 14.84 14.83 14.83 14.83 36.03v55.13q0 21.35-14.83 36.11-14.84 14.76-36.03 14.76h-95.14Zm-246-50.87h95.14v-55.13h-95.14v55.13Zm246 0h95.14v-55.13h-95.14v55.13ZM411.6-874.34q5.88 2.36 11.03 6.84 48.78 42.93 104.33 97.92t103.23 118.99q42.03 55.16 69.27 115.51 27.24 60.36 28 122.36.24 15.68-11.33 25.75-11.57 10.08-27.22 10.08H272.93q-28.44 0-48.4 19.96-19.96 19.96-19.96 48.41v100.43q0 10.77-5.48 18.22-5.48 7.46-14.08 10.82-8.6 3.35-17.25 1.69-8.65-1.67-15.02-9.29-37.61-43.75-58.17-100.09Q74.02-343.07 74.02-408q0-65.73 30.36-130.94t75.83-124.69q45.48-59.47 98.58-111.55t98.58-92.32q5.21-4.48 11.06-6.84 5.85-2.36 11.57-2.36 5.72 0 11.6 2.36Z"/></svg>