<svg xmlns="http://www.w3.org/2000/svg" width="48" height="48" viewBox="0 96 960 960"><path d="M74.5 620.261q0-12.913 9.054-25.185 9.055-12.272 24.968-18.946 22.282-8.76 43.543-23.424 21.261-14.663 54.348-14.663 45.957 0 71.076 27.24 25.12 27.239 64.598 27.239 39.717 0 65.837-27.239 26.119-27.24 72.076-27.24 45.957 0 71.696 27.24 25.739 27.239 65.217 27.239 39.717 0 65.337-27.239 25.62-27.24 71.576-27.24 33.087 0 54.468 14.663 21.38 14.664 43.663 23.664 15.913 6.434 24.847 18.706 8.935 12.272 8.935 25.185 0 14.196-9.717 22.913-9.718 8.717-21.674 5-29.522-8.239-49.641-25-20.12-16.761-50.881-16.761-38.717 0-64.837 27.239-26.119 27.239-72.076 27.239-45.717 0-71.956-27.239-26.24-27.239-64.957-27.239-38.239 0-64.978 27.239-26.739 27.239-72.696 27.239-45.717 0-71.696-27.239-25.978-27.239-64.217-27.239-30.761 0-50.88 16.761-20.12 16.761-49.403 25-11.956 3.717-21.793-5T74.5 620.261Zm0 168.37q0-12.913 9.054-25.305 9.055-12.391 24.968-19.065 22.282-8.761 43.543-23.304 21.261-14.544 54.348-14.544 45.957 0 71.076 27.239 25.12 27.239 64.598 27.239 39.717 0 65.837-27.239 26.119-27.239 72.076-27.239 45.957 0 71.696 27.239 25.739 27.239 65.217 27.239 39.717 0 65.337-27.239 25.62-27.239 71.576-27.239 33.087 0 54.468 14.544 21.38 14.543 43.663 23.543 15.913 6.674 24.847 18.826 8.935 12.153 8.935 25.305 0 14.195-9.717 22.793-9.718 8.598-21.674 4.881-29.522-8.239-49.641-25-20.12-16.761-50.881-16.761-38.717 0-64.837 27.239-26.119 27.239-72.076 27.239-45.717 0-71.956-27.239-26.24-27.239-64.957-27.239-38.239 0-65.217 27.239-26.979 27.239-72.696 27.239t-71.576-27.239q-25.859-27.239-64.098-27.239-30.761 0-50.88 16.761-20.12 16.761-49.403 25-11.956 3.717-21.793-4.881T74.5 788.631Zm0-336.501q0-12.913 9.054-25.304 9.055-12.391 24.968-19.065 22.282-8.761 43.543-23.305 21.261-14.543 54.348-14.543 45.957 0 71.076 27.239 25.12 27.239 64.598 27.239 39.717 0 65.837-27.239 26.119-27.239 72.076-27.239 45.957 0 71.696 27.239 25.739 27.239 65.217 27.239 39.717 0 65.337-27.239 25.62-27.239 71.576-27.239 33.087 0 54.468 14.543Q829.674 399 851.957 408q15.913 6.674 24.847 18.826 8.935 12.152 8.935 25.304 0 14.196-9.717 22.794-9.718 8.598-21.674 4.88-29.522-8.239-49.641-25-20.12-16.761-50.881-16.761-38.717 0-64.837 27.24-26.119 27.239-72.076 27.239-45.717 0-71.956-27.239-26.24-27.24-64.957-27.24-38.239 0-64.978 27.24-26.739 27.239-72.696 27.239-45.717 0-71.696-27.239-25.978-27.24-64.217-27.24-30.761 0-50.88 16.761-20.12 16.761-49.403 25-11.956 3.718-21.793-4.88-9.837-8.598-9.837-22.794Z"/></svg>