<svg xmlns="http://www.w3.org/2000/svg" width="48" height="48" viewBox="0 -960 960 960"><path d="M154.022-408q0-65.717 30.358-130.815 30.359-65.098 75.878-124.587 45.52-59.488 98.576-111.554 53.057-52.066 98.536-92.544 5.057-4.478 10.879-6.718 5.821-2.239 11.418-2.239 6.05 0 12.231 2.239 6.181 2.24 10.972 6.718 42.239 37.478 86.735 80.627 44.497 43.149 84.46 91.047 30.565 35.565 55.609 73.891 25.043 38.326 42.565 78.413 5.957 12.435.218 25.228-5.74 12.794-18.935 17.511-13.435 4.957-26.609-.282-13.174-5.239-19.609-17.435-28.522-63.087-85.467-132.935Q564.891-721.283 480-796.891 353.957-684.652 288.054-585.228 222.152-485.804 222.152-408q0 111.891 71.489 186.315 71.489 74.424 180.576 77.815 16.913 1.435 24.533 12.99 7.62 11.554 7.141 23.989-.717 12.195-9.413 22.674-8.696 10.478-24.891 9.76-135.761-1.152-226.663-98.608Q154.022-270.522 154.022-408Zm315.391-59.13Zm144.63 386.804q-8.717 3.24-16.981.362-8.265-2.876-11.41-11.319l-5-10.76q-8-17-11.119-34.519-3.12-17.519-3.12-35.512 0-22.066 5.739-43.474 5.739-21.409 15.739-41.648 8-16.761 13.261-34.34 5.261-17.58 5.261-36.537 0-16.083-3.436-31.146-3.435-15.064-10.325-29.064l-1-3q-4.239-8.478-.788-16.78 3.45-8.303 11.938-11.523 8.285-3.327 16.049-.45 7.765 2.876 11.91 11.319l4 10.248q8 16.991 11.619 34.466 3.62 17.476 3.62 36.111 0 21.1-5.12 41.355-5.119 20.254-14.119 39.494-8.065 17.704-14.413 36.45Q610-191.846 610-171.82q0 14.581 3.5 28.961 3.5 14.381 9.261 27.864l2.239 5.278q4.239 8.478.73 17.177-3.508 8.699-11.687 12.214Zm121.674 0q-8.478 3.24-16.862.362-8.384-2.876-11.529-11.319l-5-10.76q-8-17-11-34.519t-3-35.512q0-22.066 5.62-43.474 5.619-21.409 15.858-41.648 7.761-16.761 13.142-34.34 5.38-17.58 5.38-36.537 0-16.083-3.555-31.146-3.555-15.064-10.445-29.064l-1-3q-4.239-8.478-.669-16.78 3.57-8.303 11.819-11.523 8.285-3.327 16.169-.45 7.884 2.876 12.029 11.319l4.231 8.826q6.769 17.413 10.889 35.532 4.119 18.12 4.119 36.473 0 21.094-5.119 41.349-5.12 20.254-14.12 39.494-8.304 17.704-14.533 36.45-6.228 18.747-6.228 38.773 0 14.581 3.381 28.961 3.38 14.381 9.38 27.864l2.239 5.278q4 8.478.491 17.177-3.508 8.699-11.687 12.214Zm110.672-339.26q8.285-3.327 16.049-.45 7.765 2.876 11.91 11.319l5 9.248q8 16.991 11.119 34.917 3.12 17.926 3.12 37.035 0 20.756-5.12 40.995-5.119 20.239-14.119 39.239-8.065 17.961-14.413 36.57-6.348 18.609-6.348 38.683 0 14.791 3.5 29.171 3.5 14.381 9.261 27.864l2.239 5.278q1.239 2.478-4.761 9.337-6 6.858-11.239 13.097-5.239 6.24-5.978 8.979-.739 2.739 11.021-2.022-8.717 3.24-16.981.362-8.265-2.876-11.41-11.319l-5-10.76q-8-17-11.119-34.519-3.12-17.519-3.12-35.512 0-22.066 5.739-43.474 5.739-21.409 15.739-41.648 8-16.761 13.261-34.34Q850-309.116 850-328.073q0-16.083-3.436-31.146-3.435-15.064-10.325-29.064l-1-3q-4.239-8.478-.788-16.78 3.45-8.303 11.938-11.523Z"/></svg>