<svg xmlns="http://www.w3.org/2000/svg" width="48" height="48" viewBox="0 96 960 960"><path d="M378.565 980.978Q246.652 972.5 160.337 878.871q-86.315-93.63-86.315-230.957 0-65.642 30.358-130.854 30.359-65.212 75.833-124.685 45.473-59.474 98.576-111.555 53.102-52.081 98.581-92.32 5.215-4.478 11.064-6.837T400 179.304q5.717 0 11.598 2.359 5.88 2.359 11.032 6.837 45.479 41.478 98.419 93.161t98.695 110.935q45.756 59.252 76.115 123.951 30.359 64.7 30.359 131.453 0 7.717-.12 15.554-.12 7.837-1.12 15.555h-68.369q1.239-7.718 1.239-15.555V648q0-77.804-65.902-177.228Q526.043 371.348 400 259.109 273.957 371.348 208.054 470.772q-65.902 99.424-65.902 177.263 0 107.527 66.924 181.811t169.489 82.524v68.608ZM400 586.478Zm190.565 316.935h-101.13v53.131q0 11.229-7.2 18.331-7.201 7.103-18.213 7.103t-18.234-7.103q-7.223-7.102-7.223-18.364V764.218q0-10.348 7.881-17.728 7.881-7.381 18.228-7.381h125.891q21.435 0 36.152 14.717 14.718 14.718 14.718 36.152v62.566q0 21.434-14.718 36.152-14.717 14.717-36.152 14.717Zm136.87-24.435v77.491q0 11.304-7.2 18.406-7.201 7.103-18.213 7.103t-18.234-7.103q-7.223-7.102-7.223-18.331v-192q0-11.022 7.2-18.229 7.201-7.206 18.213-7.206t18.234 7.206q7.223 7.207 7.223 18.229v63.565h105.13v-63.565q0-11.022 7.2-18.229 7.201-7.206 18.213-7.206t18.234 7.206q7.223 7.207 7.223 18.229v192q0 11.229-7.2 18.331-7.201 7.103-18.213 7.103t-18.234-7.103q-7.223-7.102-7.223-18.406v-77.491h-105.13Zm-238-26.434h101.13v-62.566h-101.13v62.566Z"/></svg>