<svg xmlns="http://www.w3.org/2000/svg" width="48" height="48" viewBox="0 -960 960 960"><path d="M213.152-609.696q51-31.043 110.783-47.565 59.782-16.522 119.826-17.522 30.478 0 60.337 4.12 29.859 4.119 57.337 11.88 51.239 14.239 78.119 19.12 26.881 4.88 57.642 4.88h52.652l20.043-183.065H190.109l23.043 208.152ZM264.87-74.022q-26.109 0-46-17.152-19.892-17.152-22.131-43.022l-73.761-667.739Q119.5-836 142.25-861.109t56.815-25.109h561.87q34.065 0 56.815 25.109t19.272 59.174L763.5-134.196q-2.478 25.87-22.25 43.022-19.772 17.152-45.88 17.152h-430.5Z"/></svg>