<svg xmlns="http://www.w3.org/2000/svg" width="48" height="48" viewBox="0 96 960 960"><path d="M480 981.978q-129.391 0-227.685-90.174Q154.022 801.63 154.022 648q0-96.717 73.858-210.174 73.859-113.456 225.055-246.13 5.717-4.718 12.793-7.577 7.076-2.858 14.272-2.858 7.196 0 14.272 2.858 7.076 2.859 12.793 7.577 151.196 132.674 225.174 246.13Q806.218 551.283 806.218 648q0 153.63-98.414 243.804Q609.391 981.978 480 981.978Zm-.522-134.935q16.718 0 25.935-6.097 9.217-6.098 9.217-17.576 0-11.718-9.097-18.316-9.098-6.598-27.055-6.598-43.195 0-84.304-26.26-41.109-26.261-52.87-90.392-2-9.239-9.358-15.337-7.359-6.097-16.316-6.097-12.195 0-18.554 8.978-6.359 8.978-4.359 18.695 15 84.24 71 121.62 56 37.38 115.761 37.38Z"/></svg>