<svg xmlns="http://www.w3.org/2000/svg" width="48" height="48" viewBox="0 -960 960 960"><path d="M197.37-191.435V-477.37h-80.044q-11.935 0-16.163-10.815t4.728-18.772L457.37-823.196q9.381-8.717 22.723-8.717 13.342 0 22.537 8.717l351.718 316.239q8.717 7.957 4.489 18.772-4.228 10.815-15.924 10.815H762.63v285.935q0 14.424-9.82 24.245-9.821 9.82-24.245 9.82h-497.13q-14.424 0-24.245-9.82-9.82-9.821-9.82-24.245Zm282.719-137.848q30.107 0 51.324-21.279 21.217-21.28 21.217-51.351 0-26.239-10.478-47.315-10.478-21.076-62.152-95.468-51.674 74.392-62.152 95.468-10.478 21.076-10.478 47.315 0 30.071 21.305 51.351 21.306 21.279 51.414 21.279Z"/></svg>