<svg xmlns="http://www.w3.org/2000/svg" width="48" height="48" viewBox="0 96 960 960"><path d="M715.544 1019.26q-12.718 2-22.816-6.98-10.098-8.98-10.098-23.454 0-12.478 8.24-21.098 8.239-8.619 20.956-11.098 56.283-9.239 97.924-50.88 41.641-41.641 50.88-97.924 2.479-12.717 11.098-20.956 8.62-8.24 20.098-8.24 14.478 0 23.957 10.098 9.478 10.098 7.478 22.816-11.478 81.239-68.978 138.739-57.5 57.497-138.739 68.977ZM67.174 373.37q-14.478 0-23.457-10.098-8.978-10.098-6.978-22.816 11.478-81.239 68.978-138.739 57.5-57.5 138.739-68.978 12.718-2 22.816 6.978 10.098 8.979 10.098 23.457 0 12.478-8.24 21.098-8.239 8.619-20.956 11.098-56.283 9.239-97.924 50.88-41.641 41.641-50.88 97.924-2.479 12.717-11.598 20.956-9.12 8.24-20.598 8.24Zm183.783 97.586q-8.718 8.718-8.837 21.174-.12 12.457 8.358 23.935 24.283 32.674 26.109 73.413 1.826 40.739-24.696 77.022-5.239 6-4.858 13.88.38 7.881 5.619 13.12 6.761 7 15.261 6.5t13.739-7.5q31.478-41.478 33.696-97.478 2.217-56-32.305-99.913l305-305q15.718-15.718 36.935-15.718 21.218 0 36.935 15.718 14.957 14.956 15.837 36.054.88 21.098-15.837 37.815L457.63 468.5q-6.239 6-6.239 14t5.239 14q6 5.239 14 5.619 8 .381 14-5.619l261.522-261.522q14.957-14.956 36.935-14.956t36.935 14.956q14.956 14.957 14.956 36.935t-14.956 36.935L559.5 569.37q-6.239 6-6.239 14.5t6.239 14.5q5 6 13.381 6 8.38 0 14.619-6l218.522-218.522q15.717-15.718 36.815-15.718t36.815 15.718q14.957 14.956 14.957 36.935 0 21.978-14.957 36.934L632.37 700.239q-6 6-6 14t6 14q6 6.239 14 6.62 8 .38 14-5.62l162.282-162.282q16.479-16.718 37.696-15.718t36.174 15.718q14.717 14.717 15.598 35.934.88 21.218-15.598 37.935L614.718 922.63q-49.674 49.674-112.468 74.392-62.793 24.718-128.206 24.838-65.414.12-128.327-24.719-62.913-24.837-112.587-74.511-49.674-49.673-74.391-112.467-24.717-62.793-24.717-128.326 0-65.533 24.837-128.446t74.271-112.348l181.848-181.848q14.957-14.717 36.935-15.597 21.978-.881 37.696 14.597 14.956 14.957 15.076 37.055.119 22.098-14.837 36.815L250.957 470.956Z"/></svg>