<svg xmlns="http://www.w3.org/2000/svg" width="48" height="48" viewBox="0 -960 960 960"><path d="M279.152-370.022q-28.36 0-48.245-19.885-19.885-19.885-19.885-48.245v-83.696q0-28.458 19.885-48.414 19.885-19.956 48.245-19.956h403.696q28.458 0 48.414 19.956 19.956 19.956 19.956 48.414v83.696q0 28.36-19.956 48.245-19.956 19.885-48.414 19.885H279.152ZM483.05-775.5q-14.007 0-23.344-9.37-9.336-9.37-9.336-23.5v-50q0-14.028 9.286-23.329Q468.943-891 482.95-891t23.344 9.301q9.336 9.301 9.336 23.329v50q0 14.13-9.286 23.5-9.287 9.37-23.294 9.37Zm252.168 85.282q-9.718-9.961-9.718-23.035 0-13.073 9.718-23.03l26-26Q771.179-772 784.253-772q13.073 0 23.03 9.717Q817-752.321 817-739.248q0 13.074-9.717 23.03l-26 26q-9.962 9.718-23.035 9.718-13.074 0-23.03-9.718ZM483.05-69q-14.007 0-23.344-9.37-9.336-9.37-9.336-23.499v-50q0-14.029 9.286-23.33 9.287-9.301 23.294-9.301t23.344 9.301q9.336 9.301 9.336 23.33v50q0 14.13-9.286 23.5Q497.057-69 483.05-69Zm278.168-131.717-26-26q-9.718-9.962-9.718-23.035 0-13.074 9.718-23.03 9.961-9.718 23.035-9.718 13.073 0 23.03 9.718l26 26Q817-236.821 817-223.747q0 13.073-9.717 23.03Q797.321-191 784.248-191q-13.074 0-23.03-9.717ZM180.717-690.218l-26-26Q145-726.179 145-739.253q0-13.073 9.717-23.03Q164.679-772 177.752-772q13.074 0 23.03 9.717l26 26q9.718 9.962 9.718 23.035 0 13.074-9.718 23.03-9.961 9.718-23.035 9.718-13.073 0-23.03-9.718Zm-26 489.501Q145-210.679 145-223.752q0-13.074 9.717-23.03l26-26q9.962-9.718 23.035-9.718 13.074 0 23.03 9.718 9.718 9.961 9.718 23.035 0 13.073-9.718 23.03l-26 26Q190.821-191 177.747-191q-13.073 0-23.03-9.717Z"/></svg>