<svg xmlns="http://www.w3.org/2000/svg" width="48" height="48" viewBox="0 96 960 960"><path d="M479.825 987q-14.499 0-24.195-9.82-9.695-9.821-9.695-24.367v-60.748q0-14.424 9.871-24.244Q465.677 858 480.175 858q14.499 0 24.195 9.821 9.695 9.82 9.695 24.295v60.58q0 14.663-9.871 24.484-9.871 9.82-24.369 9.82ZM103.304 610.065q-14.663 0-24.484-9.871Q69 590.323 69 575.825q0-14.499 9.82-24.195 9.821-9.695 24.367-9.695h60.748q14.424 0 24.244 9.871Q198 561.677 198 576.175q0 14.499-9.821 24.195-9.82 9.695-24.295 9.695h-60.58Zm692.855 0q-14.518 0-24.338-9.871Q762 590.323 762 575.825q0-14.499 9.821-24.195 9.82-9.695 24.338-9.695h60.682q14.518 0 24.339 9.871 9.82 9.871 9.82 24.369 0 14.499-9.82 24.195-9.821 9.695-24.339 9.695h-60.682ZM720.63 864.37l-42.152-41.392q-9.435-9.245-9.815-23.894-.38-14.649 9.815-24.845 10.265-10.196 24.404-10.196 14.14 0 24.336 10.196l42.176 42.415q9.411 9.411 9.791 23.585.38 14.174-9.702 24.11-10.351 10.216-24.504 10.216T720.63 864.37Zm-528.979.113q-10.216-10.351-10.216-24.504t10.195-24.349l41.392-41.391q9.245-9.196 23.894-9.576 14.649-.38 24.845 9.576 10.196 10.323 10.196 24.553t-10.196 24.426l-42.415 42.176q-9.853 9.411-23.806 9.291-13.953-.12-23.889-10.202ZM480 760.63q-76.435 0-130.533-54.097-54.097-54.098-54.097-130.587 0-49.131 20.76-88.637 20.761-39.505 59.24-64.744V276q0-25.79 18.42-44.21T438 213.37h84q25.79 0 44.21 18.42T584.63 276v146.565q38.24 25.355 59.12 64.775 20.88 39.421 20.88 88.572 0 76.523-54.097 130.621Q556.435 760.63 480 760.63Zm-42-360.26q10.5-3.023 21-4.535 10.5-1.511 21-1.511t21 1.511q10.5 1.512 21 4.535V276h-84v124.37Zm42.061 292.13q48.548 0 82.493-34.007 33.946-34.007 33.946-82.554 0-48.548-34.007-82.493-34.007-33.946-82.554-33.946-48.548 0-82.493 34.007-33.946 34.007-33.946 82.554 0 48.548 34.007 82.493 34.007 33.946 82.554 33.946ZM480 576Z"/></svg>