<svg xmlns="http://www.w3.org/2000/svg" width="48" height="48" viewBox="0 -960 960 960"><path d="M110-160.43q-14.42 0-24.24-9.88-9.83-9.87-9.83-24.37 0-14.49 9.83-24.19 9.82-9.7 24.24-9.7h740q14.42 0 24.24 9.88 9.83 9.87 9.83 24.37 0 14.49-9.83 24.19-9.82 9.7-24.24 9.7H110Zm162.78-221.96h414.44q-19.24-69.09-75.81-112.15-56.56-43.07-131.41-43.07t-131.41 43.07q-56.57 43.06-75.81 112.15Zm-76.85 66.46q0-119.87 82.46-204 82.46-84.14 201.61-84.14 119.15 0 201.61 84.14 82.46 84.13 82.46 204H195.93ZM480-382.39Z"/></svg>