<svg xmlns="http://www.w3.org/2000/svg" width="48" height="48" viewBox="0 -960 960 960"><path d="M440.152-453.957q6.718 0 12.555-2.358 5.837-2.359 11.315-7.837L609-609.13q8.239-8.24 8.239-21.718T609-653.565q-9.239-8.239-22.717-8.239-13.479 0-21.718 8.239L439.913-528.913l-43.283-43.283q-8.239-8.478-21.597-8.478-13.359 0-21.598 8.478-9.239 9.239-9.239 22.598 0 13.359 9.239 21.837l62.608 63.609q5.479 5.478 11.435 7.837 5.957 2.358 12.674 2.358ZM480-88.891q-7.196 0-14.272-2.359-7.076-2.359-12.793-7.076-149.239-131.717-223.12-244.076-73.88-112.359-73.88-209.598 0-151.913 97.695-241.989 97.696-90.076 226.37-90.076t226.37 90.076Q804.065-703.913 804.065-552q0 97.239-73.88 209.598-73.881 112.359-223.12 244.076-5.717 4.717-12.413 7.076-6.695 2.36-14.652 2.36Z"/></svg>