<svg xmlns="http://www.w3.org/2000/svg" width="48" height="48" viewBox="0 -960 960 960"><path d="M458.96-134.77q-10.53-3.88-19.05-12.64L51.59-546.02q-9.72-10.2-15.08-23.51-5.36-13.32-5.36-26.51 0-15.44 6.22-29.37 6.22-13.94 18.41-24.13 91.29-72.81 198.47-113.19Q361.43-803.11 480-803.11q119.28 0 226.83 40.74 107.54 40.74 199.06 114.26 12.2 9.96 18.18 22.79 5.97 12.84 5.97 28.04 0 12.71-4.86 25.67-4.85 12.96-15.09 23.68l-70.42 70.41q-5.47 5.72-12.69 7.34-7.22 1.61-14.94-.15-16.39-4.24-33.04-4.52-16.65-.28-32.8 1.15-81.66 5.83-138.91 64.52-57.25 58.68-60.92 140.81-.72 16.63.4 33.4t6.32 32.69q2.24 7.72.86 14.93-1.38 7.22-6.62 12.94l-27 27q-8.76 8.76-19.29 12.64-10.52 3.88-21.04 3.88t-21.04-3.88Zm222.08 20.75q-16.52 0-27.78-11.14Q642-136.3 642-152.83v-120.15q0-16.52 11.26-27.78 11.26-11.26 27.78-11.26H683v-39q0-33.76 24-57.88 24-24.12 58-24.12t58 24.12q24 24.12 24 57.88v39h2.2q16.28 0 27.54 11.26Q888-289.5 888-272.98v120.15q0 16.53-11.26 27.67t-27.54 11.14H681.04Zm41.96-198h84v-39q0-18.76-11.5-30.38-11.5-11.62-30.5-11.62t-30.5 11.62Q723-369.78 723-351.02v39Z"/></svg>