<svg xmlns="http://www.w3.org/2000/svg" width="48" height="48" viewBox="0 -960 960 960"><path d="M771.717-106.848q-14.478 0-24.174-9.82-9.695-9.821-9.695-24.484v-85.696h-85.935q-14.424 0-24.245-9.871-9.82-9.871-9.82-24.489t9.82-24.314q9.821-9.695 24.245-9.695h85.935v-85.935q0-14.424 9.871-24.245 9.871-9.82 24.349-9.82 14.477 0 24.313 9.82 9.837 9.821 9.837 24.245v85.935h85.695q14.394 0 24.349 9.871 9.956 9.871 9.956 24.489t-9.956 24.314q-9.955 9.695-24.349 9.695h-85.695v85.696q0 14.663-10.012 24.484-10.012 9.82-24.489 9.82Zm-291.539-24.043q-10.7 0-21.221-3.88-10.522-3.881-19.061-12.568L51.587-546.022q-9.717-10.195-15.076-23.511-5.359-13.315-5.359-26.51 0-15.435 6.036-29.441 6.036-14.005 18.595-24.06 91.282-72.804 198.467-113.184 107.185-40.381 225.758-40.381 119.29 0 226.826 40.739 107.536 40.74 199.057 114.261 12.196 9.957 18.174 22.734 5.978 12.777 5.978 28.152 0 12.658-4.918 25.592-4.919 12.933-15.038 23.696l-70.413 70.413q-5.083 5.344-12.498 7.151-7.415 1.806-15.133.045-16.391-4.239-32.876-4.522-16.486-.282-32.972 1.152-81.652 5.827-138.902 64.392-57.25 58.565-60.923 140.934-.718 16.964.402 33.609 1.119 16.645 6.315 32.479 2.239 7.717.948 15.075-1.292 7.357-6.709 12.794l-27 27q-8.761 8.761-19.104 12.642-10.344 3.88-21.044 3.88Z"/></svg>