<svg xmlns="http://www.w3.org/2000/svg" width="48" height="48" viewBox="0 -960 960 960"><path d="M737.848-226.848h-85.935q-14.424 0-24.245-9.871-9.82-9.871-9.82-24.489t9.82-24.314q9.821-9.695 24.245-9.695h85.935v-85.935q0-14.424 9.871-24.245 9.871-9.82 24.349-9.82 14.477 0 24.313 9.82 9.837 9.821 9.837 24.245v85.935h85.695q14.394 0 24.349 9.871 9.956 9.871 9.956 24.489t-9.956 24.314q-9.955 9.695-24.349 9.695h-85.695v85.696q0 14.663-10.012 24.484-10.012 9.82-24.489 9.82-14.478 0-24.174-9.82-9.695-9.821-9.695-24.484v-85.696ZM480.062-803.109q118.627 0 225.989 40.381 107.362 40.38 198.405 113.424 12.435 10.053 18.653 23.679 6.217 13.626 6.217 28.582 0 13.096-4.739 26.461-4.739 13.365-15.457 24.56l-58.826 58.587q-8.956 9.674-23.13 10.033t-23.848-8.837q-9.435-8.718-9.793-22.891-.359-14.174 8.597-23.609l59.348-59.587q-84.848-66.326-179.626-104.37-94.778-38.043-201.88-38.043-107.102 0-201.852 38.043-94.75 38.044-179.598 104.37L480-202.957l37.087-37.086q7.283-7.283 19.543-6.566 12.261.718 23.37 12.066 8.957 9.195 9.076 23.011.12 13.815-8.598 23.25l-36.087 35.847q-9.239 9.718-20.777 14.077Q492.076-134 480.06-134q-12.017 0-23.444-4.358-11.427-4.359-20.768-14.077L51.587-546.022q-9.756-10.279-15.095-23.552-5.34-13.274-5.34-26.469 0-15.435 6.036-29.441 6.036-14.005 18.595-24.06 91.282-72.804 198.467-113.184 107.185-40.381 225.812-40.381ZM480-468.848Z"/></svg>