<svg xmlns="http://www.w3.org/2000/svg" width="48" height="48" viewBox="0 -960 960 960"><path d="M222.152-154.022q-28.337 0-48.234-19.896-19.896-19.897-19.896-48.234v-333.587l-55.218 42.413q-11.065 8.717-24.206 6.478-13.142-2.239-21.62-13.195-8.478-10.718-6.534-24.104 1.945-13.386 13.012-21.483L438.74-854.152q9.435-6.718 19.841-10.815 10.406-4.098 21.181-4.098 11.014 0 21.42 4.098 10.406 4.097 19.602 10.815l371.673 283.065q10.957 8.717 13.055 22.032 2.098 13.316-6.62 24.511-8.239 10.957-20.815 12.696-12.576 1.739-24.25-5.543l-53.587-40.5v68.217q-19.239-6-39.598-9.12-20.358-3.119-41.358-3.119-109.122 0-186.115 76.874-76.994 76.874-76.994 185.756 0 11 .88 22.996.881 11.996 3.12 23.004 2.239 15.513-6.962 27.387t-23.864 11.874H222.152ZM568.326-38.087q-13.956 0-23.054-9.217-9.098-9.218-9.098-23.174 0-13.718 9.098-22.935 9.098-9.217 23.054-9.217h21.978q-25.043-27.24-39.587-62.522-14.543-35.283-14.543-75.326 0-62.196 33.837-112.413 33.837-50.218 89.032-73.457 11.718-5 21.816.598 10.098 5.598 15.337 17.315 5 11.718.641 24.174-4.359 12.457-20.554 20.935-34.283 17-54.924 49.902-20.642 32.902-20.642 72.946 0 26.608 9.305 49.815 9.304 23.206 26.152 41.011v-22.978q0-12.761 8.859-21.381 8.858-8.619 23.293-8.619 13.957 0 23.174 9.217 9.217 9.217 9.217 22.935v98.326q0 14.424-9.82 24.244-9.821 9.821-24.245 9.821h-98.326Zm231.478-16.522q-11.717 5.24-22.315-.358t-15.598-17.316q-5.239-11.717-.88-24.174 4.359-12.456 20.554-21.173 34.283-17.522 54.924-50.044t20.641-72.804q0-26.37-9.304-49.576-9.304-23.207-25.913-41.25v22.978q0 13-8.978 21.62-8.978 8.619-23.413 8.619-13.957 0-23.174-9.217-9.218-9.218-9.218-23.174v-98.087q0-14.424 9.821-24.245 9.821-9.82 24.245-9.82h98.326q13.956 0 23.174 9.217 9.217 9.217 9.217 23.174 0 13.717-9.217 22.935-9.218 9.217-22.935 9.217h-22.217q25.043 27.239 39.706 62.522 14.663 35.282 14.663 75.087 0 62.435-33.956 112.532Q854-77.848 799.804-54.609Z"/></svg>