<svg xmlns="http://www.w3.org/2000/svg" width="48" height="48" viewBox="0 -960 960 960"><path d="M143.782-110.435q-14.434 0-22.51-12.597-8.077-12.598-6.077-28.033 14.718-116.022 35.935-208.37 21.218-92.348 47.315-157.141 26.098-64.794 56.055-99.011 29.956-34.218 62.391-34.218 41.196 0 83.294 77.12t66.858 190.293q12.24-100.804 31.837-186.587 19.598-85.782 42.816-147.923 23.217-62.142 49.695-97.522 26.479-35.381 51.957-35.381 33.956 0 65.533 46.859 31.576 46.859 57.913 135.294 26.337 88.434 46.554 214.924 20.217 126.489 32.696 285.75 2 21.913-4.957 39.228-6.956 17.315-25.63 17.315-15.913 0-27.609-9.695-11.696-9.696-16.935-25.37-28-87.522-64.902-153.978-36.902-66.457-62.663-66.457-23 0-57.022 65.457-34.022 65.456-59.782 150.978-5.479 15.674-17.174 27.37-11.696 11.695-28.37 11.695-17.674 0-28.37-13.337-10.695-13.337-12.934-31.771-11-80.283-25.881-150.022-14.88-69.739-31.38-124.196-16.5-54.456-33.261-92.413-16.761-37.956-32.283-55.435-23.521 25.479-43.402 65.316-19.88 39.837-36.761 93.293-16.88 53.457-30.38 121.315-13.5 67.859-24.261 148.903-2.239 15.673-12.554 27.01-10.316 11.337-25.751 11.337Zm384.675-205.652q24.804-56.37 54.826-87.174 30.021-30.804 60.065-30.804 30.804 0 63.587 31.684 32.782 31.685 55.826 86.294-15.044-155.196-47.207-290.402-32.163-135.207-72.206-169.598-36.522 31.631-67.185 163.717-30.663 132.087-47.706 296.283Z"/></svg>