<svg xmlns="http://www.w3.org/2000/svg" width="48" height="48" viewBox="0 -960 960 960"><path d="M795.478-114.022q-117.435 0-239.011-56.478T331.174-330.696Q227.217-434.652 170.619-556.348q-56.597-121.695-56.597-238.891 0-21.677 14.531-36.328 14.531-14.651 36.208-14.651h140q18.065 0 30.337 11.555 12.272 11.554 16.989 30.38l26.929 121.815q2.549 17.229-.668 30.762-3.217 13.532-13.359 23.193l-100.728 99.339q25.043 42.087 53.087 78.652 28.043 36.565 62.326 69.609 36.043 37.283 75.25 67.467 39.206 30.185 81.815 52.75l96.196-98.717q11.674-12.674 26.738-17.152 15.064-4.479 30.392-1.522l114.218 25.282q18.826 5.196 30.38 19.153 11.555 13.958 11.555 32.456v136.435q0 21.677-14.651 36.208-14.651 14.531-36.089 14.531ZM670.283-544.348q-17.718 0-29.576-11.859-11.859-11.858-11.859-29.576 0-17.478 11.859-29.456 11.858-11.979 29.576-11.979 17.478 0 29.337 12.03 11.859 12.029 11.859 29.405 0 17.718-11.859 29.576-11.859 11.859-29.337 11.859Zm0-135q-19.761 0-37.141 5.568-17.381 5.569-32.903 16.432-10.256 6.239-21.965 5.62-11.709-.62-19.948-9.098-8.478-8.66-7.978-20.078.5-11.417 10.145-18.453 24.072-17.382 51.692-27.502 27.62-10.119 58.098-10.119 30.239 0 57.739 10.119 27.5 10.12 51.812 27.433 9.645 7.165 10.145 19.036.5 11.87-7.74 20.803-8.478 8.478-19.956 8.478t-21.957-6.239q-15.761-10.761-33.141-16.38-17.38-5.62-36.902-5.62Zm0-110q-40.848 0-77.587 13.281-36.739 13.281-68.457 37.719-9.478 8.239-22.076 8.239t-21.076-8.478q-8.478-8.478-7.739-20.315.739-11.837 10.457-20.076 39.449-32.163 86.867-50.081 47.418-17.919 99.634-17.919 51.977 0 99.378 17.919 47.402 17.918 86.838 50.081 9.717 8.239 10.337 20.025.62 11.785-7.62 20.315-8.478 8.529-20.456 8.41-11.978-.12-21.568-7.663-31.65-25.335-68.816-38.396-37.166-13.061-78.116-13.061Z"/></svg>