<svg xmlns="http://www.w3.org/2000/svg" width="48" height="48" viewBox="0 0 48 48"><path d="M19.65 11.05h8.7v-4.2h-8.7ZM36 45.65q-4.05 0-6.85-2.8T26.35 36q0-4.05 2.8-6.85t6.85-2.8q4.05 0 6.85 2.8t2.8 6.85q0 4.05-2.8 6.85T36 45.65Zm3.7-4.5 1.45-1.45-4.25-3.85v-6.2h-2.2v6.85Zm-14.6 1.2h-18q-1.4 0-2.4-1t-1-2.45V14.5q0-1.4 1-2.425t2.4-1.025h9.1v-4.2q0-1.4 1.025-2.4t2.425-1h8.7q1.4 0 2.425 1t1.025 2.4v4.2h9.1q1.4 0 2.4 1.025t1 2.425v12q-1.75-1.5-3.875-2.325Q38.3 23.35 36 23.35q-5.3 0-8.975 3.675T23.35 36q0 1.7.45 3.3.45 1.6 1.3 3.05Z"/></svg>