<svg xmlns="http://www.w3.org/2000/svg" width="48" height="48" viewBox="0 -960 960 960"><path d="m480-482.761-76.717 57.957q-5.479 3.478-10.577.119-5.097-3.358-3.097-9.076l29.239-94.435-78.478-60.761q-5.718-3.239-3.098-8.956 2.619-5.717 8.576-5.717h94.717l31.478-98.392q2.24-5.956 7.957-5.956t7.957 5.956l30.478 98.392h95.956q5.718 0 8.337 5.717 2.62 5.717-3.098 8.956l-78.239 60.761 28 94.435q2 5.718-2.478 9.076-4.478 3.359-9.956-.119L480-482.761Zm0 368.783L286.63-49.174q-16.152 5.718-30.706-5.098-14.554-10.815-14.554-27.967v-256.978q-46.435-47.957-66.892-105.631-20.456-57.674-20.456-116.348 0-138.391 93.793-232.185Q341.609-887.174 480-887.174q138.391 0 232.304 93.793 93.914 93.794 93.914 232.185 0 58.674-20.577 116.348-20.576 57.674-67.011 105.631v256.978q0 17.152-14.554 27.967-14.554 10.816-30.467 5.098L480-113.978Zm0-189.37q108.043 0 182.946-74.782 74.902-74.783 74.902-183.066 0-108.043-74.902-182.945Q588.043-819.043 480-819.043q-108.043 0-182.946 74.902-74.902 74.902-74.902 182.945 0 108.283 74.902 183.066Q371.957-303.348 480-303.348ZM304-121.13l176-56.196 176 56.196V-289.5q-40.239 28.761-86.12 41.641Q524-234.978 480-234.978q-44 0-89.88-12.881-45.881-12.88-86.12-41.641v168.37Zm176-84.566Z"/></svg>