<svg xmlns="http://www.w3.org/2000/svg" width="48" height="48" viewBox="0 -960 960 960"><path d="M187.848-464.739q-14.424 0-24.125-9.871t-9.701-24.37q0-14.498 9.82-24.074 9.821-9.576 24.245-9.576h505q63.348 0 108.239 44.771 44.892 44.772 44.892 108.12 0 63.587-44.892 108.978-44.891 45.392-108.239 45.392H564.761l42.174 40.934q8.043 9.196 7.071 21.841-.973 12.644-9.702 22.097-10.434 10.649-25.087 10.889-14.652.239-24.847-9.957l-95.761-97q-5.479-5.239-7.957-11.329-2.478-6.09-2.478-12.674 0-6.823 2.478-12.66t7.957-11.315l97-98q10.234-10.435 24.248-9.957 14.013.478 24.687 10.755 8.728 9.321 9.581 21.718.853 12.397-6.19 22.353l-43.174 43.935h128.326q35.214 0 60.107-25.38 24.893-25.381 24.893-60.772 0-35.151-24.893-60-24.893-24.848-60.107-24.848H187.848Zm.239 239.37q-14.424 0-24.245-9.871-9.82-9.871-9.82-24.37t9.82-24.314q9.821-9.815 24.245-9.815h137.609q14.424 0 24.244 9.991 9.821 9.99 9.821 24.489 0 14.498-9.821 24.194-9.82 9.696-24.244 9.696H188.087Zm-.239-477.261q-14.424 0-24.125-9.872-9.701-9.871-9.701-24.608 0-14.499 9.82-24.075 9.821-9.576 24.245-9.576h584.065q14.424 0 24.245 9.751 9.821 9.752 9.821 24.25 0 14.738-9.941 24.434-9.94 9.696-24.364 9.696H187.848Z"/></svg>