<svg xmlns="http://www.w3.org/2000/svg" width="48" height="48" viewBox="0 -960 960 960"><path d="M480-182.152q0-46.426-18.254-88.9-18.254-42.474-51.082-75.194-29.293-29.254-66.065-46.406-36.773-17.152-77.577-21.631-7.957-1-14.055 5.098-6.097 6.098-5.097 14.055 4.478 40.804 21.576 77.769 17.098 36.966 46.467 66.165 32.519 32.428 75.058 50.736 42.538 18.308 89.029 18.308ZM480-400q26.761 0 43.141-16.38 16.381-16.381 16.381-43.142v-8q7.521 7 17.521 9t18.928 2q26.83 0 43.212-16.261 16.382-16.26 16.382-43.125 0-19.896-9-32.811-9-12.914-23.522-23.88 14.522-5.966 23.522-21.428 9-15.462 9-35.412 0-26.58-16.352-42.994-16.351-16.415-43.183-16.415-8.929 0-18.958 2-10.029 2-17.55 9v-8q0-26.761-16.381-43.141Q506.761-745.37 480-745.37t-43.141 16.381q-16.381 16.38-16.381 43.141v8q-7.521-7-17.521-9t-18.892-2q-26.889 0-43.26 16.419-16.37 16.419-16.37 42.996 0 19.947 8.5 33.408 8.5 13.46 24.261 23.46-15.761 7-24.261 21.88-8.5 14.881-8.5 34.777 0 26.865 16.367 43.125 16.367 16.261 43.175 16.261 8.919 0 19.439-2 10.521-2 17.062-8.952v7.952q0 26.761 16.381 43.142Q453.239-400 480-400Zm0-95.043q-33.1 0-55.311-22.365t-22.211-55.157q0-33.1 22.211-55.311T480-650.087q33.1 0 55.311 22.211t22.211 55.194q0 32.982-22.211 55.31Q513.1-495.043 480-495.043Zm0 312.891q46.426 0 88.9-18.254 42.474-18.254 75.194-51.082 29.254-29.293 46.406-66.066 17.152-36.772 21.63-77.576 1-7.957-5.097-14.055-6.098-6.098-14.055-5.098-40.804 4.479-77.714 21.633t-66.221 46.411q-32.427 32.713-50.735 75.187T480-182.152ZM142.152-74.022q-27.599 0-47.865-20.265-20.265-20.266-20.265-47.865v-675.696q0-27.697 20.265-48.033 20.266-20.337 47.865-20.337h675.696q27.697 0 48.033 20.337 20.337 20.336 20.337 48.033v675.696q0 27.599-20.337 47.865-20.336 20.265-48.033 20.265H142.152Z"/></svg>