<svg xmlns="http://www.w3.org/2000/svg" width="48" height="48" viewBox="0 -960 960 960"><path d="M74.022-762.065v-95.783q0-27.697 20.265-48.033 20.266-20.337 47.865-20.337h95.783q14.424 0 24.244 10.012Q272-906.194 272-891.717q0 14.478-9.821 24.174-9.82 9.695-24.244 9.695h-95.783v95.783q0 14.424-9.871 24.244Q122.41-728 107.911-728q-14.498 0-24.194-9.821-9.695-9.82-9.695-24.244Zm68.13 648.043q-27.599 0-47.865-20.265-20.265-20.266-20.265-47.865v-95.783q0-14.424 9.87-24.244Q93.765-312 108.263-312q14.499 0 24.195 9.821 9.695 9.82 9.695 24.244v95.783h95.783q14.424 0 24.244 9.871t9.82 24.37q0 14.498-9.821 24.194-9.82 9.695-24.244 9.695h-95.783Zm675.696-648.043v-95.783h-95.783q-14.424 0-24.244-9.871Q688-877.59 688-892.068q0-14.477 9.821-24.313 9.82-9.837 24.244-9.837h95.783q27.697 0 48.033 20.337 20.337 20.336 20.337 48.033v95.783q0 14.424-10.012 24.244Q866.194-728 851.717-728q-14.478 0-24.174-9.821-9.695-9.82-9.695-24.244ZM539.491-636.63q-31.404 0-53.621-22.248-22.218-22.248-22.218-53.653 0-31.404 22.138-53.621 22.138-22.218 53.542-22.218t53.612 22.166q22.208 22.167 22.208 53.624 0 31.359-22.128 53.654-22.128 22.296-53.533 22.296ZM353.413-275.478l45.043-230.457-95.217 45.087v100.413q0 13.946-9.51 23.288-9.511 9.343-23.413 9.343-13.903 0-23.24-9.462-9.337-9.462-9.337-23.408v-121.891q0-10.784 5.592-19.241 5.593-8.457 15.278-12.824l146.4-60.452q32.634-14.044 46.334-17.796 13.7-3.752 27.253-3.752 21.165 0 37.263 9.097 16.098 9.098 27.337 26.576l42.478 67q16.283 25.044 39.065 47.066 22.783 22.021 50.587 35.543l-32.63 55.783q-27.087-15.044-51.538-37.613-24.451-22.569-47.441-54.083l-41.565 171.783H353.413ZM610-74.022q-19.391 0-29.207-17.913-9.815-17.913-.38-34.065l160-279.239q8.957-19.152 28.967-17.794 20.011 1.359 31.207 17.033l160 280q9.957 17.152-.87 34.565Q948.891-74.022 930-74.022H610Zm160-39.521q7.196 0 12.413-5.32 5.217-5.32 5.217-12.413 0-7.094-5.217-12.43-5.217-5.337-12.413-5.337-7.196 0-12.413 5.36-5.217 5.361-5.217 12.509 0 7.052 5.217 12.342 5.217 5.289 12.413 5.289Zm0-70.74q7.196 0 12.413-5.289 5.217-5.289 5.217-12.341v-131.174q0-7.052-5.217-12.341T770-350.717q-7.196 0-12.413 5.289-5.217 5.289-5.217 12.341v131.174q0 7.052 5.217 12.341T770-184.283Z"/></svg>