<svg xmlns="http://www.w3.org/2000/svg" width="48" height="48" viewBox="0 -960 960 960"><path d="M303.565-556q-12.75 0-21.375-8.675-8.625-8.676-8.625-21.5 0-12.825 8.625-21.325t21.375-8.5h141q12.75 0 21.375 8.675 8.625 8.676 8.625 21.5 0 12.825-8.625 21.325t-21.375 8.5h-141Zm73 231.065q-109.835 0-185.95-76.195Q114.5-477.326 114.5-585t76.196-183.87q76.195-76.195 184.369-76.195t183.87 76.195q75.695 76.196 75.695 184.02 0 43.328-13.641 82.97-13.641 39.641-40.924 74.402L820.63-188.913q10.196 9.99 10.196 24.767 0 14.776-10.196 24.972-10.323 10.435-25.155 10.435-14.833 0-24.584-10.435L531.326-378.5q-29.761 25.264-69.6 39.415-39.84 14.15-85.161 14.15Zm-.915-68.13q79.73 0 135.29-56.245Q566.5-505.554 566.5-585t-55.595-135.69q-55.595-56.245-135.255-56.245-80.494 0-136.757 56.245Q182.63-664.446 182.63-585t56.228 135.69q56.227 56.245 136.792 56.245Z"/></svg>