<svg xmlns="http://www.w3.org/2000/svg" width="48" height="48" viewBox="0 -960 960 960"><path d="M288.826-550v165q0 11 7 18t18 7q10.435 0 17.718-7 7.282-7 7.282-18v-190q0-11-7.282-18-7.283-7-17.718-7H210.087q-11 0-18 7t-7 18q0 11 7 18t18 7h78.739ZM406-360h104q14 0 23.5-9.5T543-393v-173q0-14-9.5-24T510-600H406q-14 0-23.5 10t-9.5 24v173q0 14 9.5 23.5T406-360Zm17-50v-140h70v140h-70Zm201.913-40 77 82q2 2 17 8 16 0 22.5-15t-4.5-26l-74-79 74-80q11-11 4.5-25.5t-22.5-14.5q-5 0-9 2t-8 6l-77 82v-65q0-11-7-18t-18-7q-11 0-18 7t-7 18v190q0 11 7 18t18 7q11 0 18-7t7-18v-65ZM185.087-105.869q-32.507 0-55.862-23.356-23.356-23.355-23.356-55.862v-589.826q0-32.74 23.356-56.262 23.355-23.521 55.862-23.521h589.826q32.74 0 56.262 23.521 23.521 23.522 23.521 56.262v589.826q0 32.507-23.521 55.862-23.522 23.356-56.262 23.356H185.087Z"/></svg>