<svg xmlns="http://www.w3.org/2000/svg" width="48" height="48" viewBox="0 96 960 960"><path d="M202 662.218q-15.393 0-25.805-10.429-10.413-10.429-10.413-25.845 0-15.417 10.413-25.789 10.412-10.373 25.805-10.373h155.999V489.391h-160.39q-14.432 0-23.629-9.41-9.198-9.41-9.198-24.156 0-14.747 9.198-23.982 9.197-9.234 23.629-9.234h160.39V322.218H202q-15.393 0-25.805-10.429-10.413-10.429-10.413-25.845 0-15.417 10.413-25.789 10.412-10.373 25.805-10.373h155.999q30.218 0 51.61 21.109Q431 292 431 322.218v79.887q0 22.221-13.391 36.08-13.391 13.858-30.565 17.815 17.174 3.957 30.565 20.015Q431 492.074 431 513.895v75.887q0 30.218-21.391 51.327-21.392 21.109-51.61 21.109H202Zm533.218 0H604.001q-30.218 0-51.61-21.109Q531 620 531 589.782V322.218q0-30.218 21.391-51.327 21.392-21.109 51.61-21.109h131.217q30.846 0 52.206 21.109 21.36 21.109 21.36 51.327v267.564q0 30.218-21.36 51.327-21.36 21.109-52.206 21.109Zm0-72.436V322.218H604.001v267.564h131.217ZM130.606 976q-14.746 0-23.981-9.36-9.235-9.36-9.235-24.281V821.641q0-14.921 9.41-24.281 9.411-9.36 23.874-9.36 14.464 0 23.982 9.36 9.517 9.36 9.517 24.281v120.718q0 14.921-9.65 24.281-9.651 9.36-23.917 9.36Zm126.218 0q-14.506 0-23.579-9.36-9.072-9.36-9.072-24.281V821.641q0-14.921 9.251-24.281 9.25-9.36 23.478-9.36 14.228 0 23.858 9.36 9.631 9.36 9.631 24.281v120.718q0 14.921-9.651 24.281-9.65 9.36-23.916 9.36Zm126.773 0q-14.51 0-23.858-9.36t-9.348-24.281V821.641q0-14.921 9.41-24.281t23.874-9.36q14.224 0 23.579 9.36t9.355 24.281v120.718q0 14.921-9.491 24.281T383.597 976Zm132.621 0q-16.707 0-28.158-11.451t-11.451-28.158V827.609q0-16.707 11.451-28.158T516.218 788h306.783q16.636 0 28.405 11.451 11.769 11.451 11.769 28.158v108.782q0 16.707-11.769 28.158T823.001 976H516.218Z"/></svg>