<svg xmlns="http://www.w3.org/2000/svg" width="48" height="48" viewBox="0 96 960 960"><path d="M150 776q-15.393 0-25.805-10.543-10.413-10.543-10.413-26.128 0-15.373 10.413-25.851 10.412-10.479 25.805-10.479h167.391v-93.608H148.826q-14.649 0-23.846-9.41-9.198-9.41-9.198-24.156 0-14.747 9.198-23.982 9.197-9.234 23.846-9.234h168.565v-93.608H150q-15.393 0-25.805-10.654-10.413-10.654-10.413-26.027 0-15.373 10.413-25.847Q134.607 376 150 376h167.391q32.479 0 52.739 20.261 20.261 20.261 20.261 52.74v64.781q0 23.961-12.434 42.742-12.435 18.78-36.566 20.476 24.131 1.696 36.566 19.976 12.434 18.281 12.434 42.242v63.781q0 32.479-20.261 52.74Q349.87 776 317.391 776H150Zm409.609 0q-30.218 0-51.609-21.391-21.391-21.392-21.391-51.61V449.001q0-30.218 21.391-51.61Q529.391 376 559.609 376H810q15.393 0 25.805 10.543 10.413 10.543 10.413 26.128 0 15.373-10.413 25.851-10.412 10.479-25.805 10.479H559.609v253.998h215.173v-93.347h-63.391q-14.671 0-24.031-9.41T678 576.368q0-14.464 9.36-23.981 9.36-9.517 24.031-9.517h95.218q16.706 0 28.157 11.769 11.452 11.769 11.452 28.405v119.955q0 30.218-20.44 51.61Q805.338 776 774.782 776H559.609Z"/></svg>