<svg xmlns="http://www.w3.org/2000/svg" width="48" height="48" viewBox="0 -960 960 960"><path d="M815-444.348h-51.609q-14.191 0-23.791-9.41t-9.6-23.874q0-14.464 9.36-23.981 9.36-9.517 24.031-9.517H815v-51.609q0-13.866 9.651-23.629 9.65-9.762 23.916-9.762 14.026 0 23.338 9.762 9.313 9.763 9.313 23.629v51.609h51.608q14.192 0 23.792 9.65 9.6 9.651 9.6 23.916 0 14.747-9.36 23.982-9.36 9.234-24.032 9.234h-51.608v52.174q0 13.951-9.474 23.389-9.474 9.437-23.478 9.437-14.005 0-23.636-9.359-9.63-9.36-9.63-24.032v-51.609ZM436.609-273.782q-29.717 0-51.359-21.299-21.641-21.299-21.641-51.137v-254.564q0-29.717 21.641-51.359 21.642-21.641 51.359-21.641h207.13q15.393 0 25.805 10.543 10.413 10.542 10.413 26.127 0 15.374-10.413 25.852-10.412 10.478-25.805 10.478h-207.13v254.564h170.347v-91.347h-35.304q-13.951 0-23.388-9.633-9.438-9.633-9.438-23.874 0-14 9.36-23.638 9.36-9.638 24.032-9.638h71.521q15.393 0 25.805 10.576 10.413 10.575 10.413 26.207v121.347q0 29.838-21.268 51.137-21.267 21.299-51.733 21.299H436.609ZM106.218-634.173V-465h87.564v-169.173q0-15.393 10.429-25.805 10.429-10.413 25.845-10.413 15.417 0 25.789 10.413 10.373 10.412 10.373 25.805v172.564h18q11.054 3.392 17.983 12.35t6.929 21.217q0 12.26-6.929 21.042-6.929 8.783-17.983 11.609h-18v82.565q0 15.392-10.429 25.805-10.429 10.412-25.845 10.412-15.417 0-25.789-10.412-10.373-10.413-10.373-25.805v-79.173H70.565q-15.576 0-26.18-10.215-10.603-10.215-10.603-26.003v-205.956q0-15.393 10.43-25.805 10.428-10.413 25.844-10.413 15.417 0 25.79 10.413 10.372 10.412 10.372 25.805Z"/></svg>