<svg xmlns="http://www.w3.org/2000/svg" width="48" height="48" viewBox="0 -960 960 960"><path d="M330.391-280H150q-15.788 0-26.003-10.654t-10.215-26.304q0-15.651 10.604-25.847 10.603-10.196 26.179-10.196h179.826v-93.608H150.565q-15.576 0-26.179-10.603-10.604-10.603-10.604-26.179v-160.391q0-15.788 10.215-26.003T150-680h217.174q15.788 0 26.003 10.265 10.214 10.265 10.214 26.128 0 15.651-10.214 26.129-10.215 10.479-26.003 10.479H186.218v93.608h150.391q27.35 0 47.066 19.716t19.716 47.066v93.608q0 29.717-21.641 51.359Q360.108-280 330.391-280Zm229.218 0q-29.717 0-51.359-21.642-21.641-21.642-21.641-51.359v-253.998q0-29.717 21.641-51.359Q529.892-680 559.609-680H810q15.788 0 26.003 10.265t10.215 26.128q0 15.651-10.215 26.129-10.215 10.479-26.003 10.479H559.609v253.998h215.173v-93.347h-63.391q-14.106 0-23.749-9.41-9.642-9.41-9.642-24.156 0-14.182 9.36-23.699 9.36-9.517 24.031-9.517H810q15.788 0 26.003 10.497t10.215 26.285v123.347q0 29.717-20.674 51.359Q804.87-280 774.782-280H559.609Z"/></svg>