<svg xmlns="http://www.w3.org/2000/svg" width="48" height="48" viewBox="0 96 960 960"><path d="M493.943 696q10.318 0 17.601-7.083 7.282-7.084 7.282-17.917v-65l77 83.531q3.435 4.034 7.58 5.252 4.145 1.217 9.42 1.217 15.641 0 22.321-14.5 6.679-14.5-4.321-26.5l-74-79 72.91-80q11.09-12.174 5.09-26.087t-22-13.913q-5.607 0-9.885 2t-7.992 5.435L518.826 546v-66q0-9.931-7.399-16.966Q504.028 456 493.71 456q-10.884 0-17.884 7.083-7 7.084-7 17.917v191q0 9.931 7.117 16.966 7.116 7.034 18 7.034Zm-222.986 0h103q14.025 0 23.512-9.487 9.488-9.488 9.488-23.513V490q0-14.45-9.488-24.225Q387.982 456 373.957 456h-103q-15.016 0-24.508 9.775-9.492 9.775-9.492 24.225v173q0 14.025 9.492 23.513Q255.941 696 270.957 696Zm16-136v-71h70v71h-70Zm0 103v-70h70v70h-70Zm-101.87 287.131q-32.507 0-55.862-23.356-23.356-23.355-23.356-55.862V281.087q0-31.74 23.356-55.762 23.355-24.021 55.862-24.021h589.826q31.74 0 55.762 24.021 24.021 24.022 24.021 55.762v589.826q0 32.507-24.021 55.862-24.022 23.356-55.762 23.356H185.087Zm0-79.218h589.826V281.087H185.087v589.826Zm0-589.826v589.826-589.826Zm514.348 370.391q8.565 0 14.184-5.717 5.619-5.718 5.619-14V596h35.806q7.869 0 13.869-6t6-14q0-8-6-13.902-6-5.901-13.89-5.901h-35.588v-36.095q0-8.145-5.718-14.145-5.717-6-14-6-8.282 0-14.282 6t-6 14V556H643.58q-8.189 0-14.189 6t-6 14q0 8 6.114 13.902 6.113 5.901 14.31 5.901h35.62v35.806q0 8.434 6 14.152 6 5.717 14 5.717Z"/></svg>