<svg xmlns="http://www.w3.org/2000/svg" width="48" height="48" viewBox="0 96 960 960"><path d="M673.218 699.391q-16.682 0-26.754-10.234-10.073-10.235-10.073-27.157V490q0-16.922 10.073-27.157 10.072-10.234 26.754-10.234h139q16.922 0 27.156 10.234 10.235 10.235 10.235 27.157v22q0 11.47-8.041 19.431-8.041 7.96-19.633 7.96-10.396 0-17.622-7.282-7.226-7.283-7.791-16.718v-8H690.609v137.218h105.913v-8q.565-9.435 7.851-16.718 7.285-7.282 17.666-7.282 11.573 0 19.572 8.041 7.998 8.04 7.998 19.633V662q0 16.922-10.235 27.157-10.234 10.234-27.156 10.234h-139Zm-263.218 0q-14.922 0-24.157-9.234-9.234-9.235-9.234-24.157V486q0-14.922 9.234-24.157 9.235-9.234 24.157-9.234h143q16.922 0 27.157 10.234 10.234 10.235 10.234 27.157v48.609q0 17.911-10.234 27.651Q569.922 576 553 576q16.922 0 27.157 9.74 10.234 9.74 10.234 27.651V662q0 16.922-10.234 27.157-10.235 10.234-27.157 10.234H410ZM431.391 552h104.218v-44.609H431.391V552Zm0 92.609h104.218V600H431.391v44.609Zm-293.543 54.782q-11.196 0-19.327-7.96-8.13-7.961-8.13-19.431V490q0-16.922 10.235-27.157 10.234-10.234 27.156-10.234h139q16.682 0 26.754 10.234 10.073 10.235 10.073 27.157v182q0 11.47-7.783 19.431-7.782 7.96-18.978 7.96-11.196 0-19.327-7.96-8.13-7.961-8.13-19.431v-49.609H164.609V672q0 11.47-7.783 19.431-7.782 7.96-18.978 7.96Zm26.761-131.782h104.782v-60.218H164.609v60.218Z"/></svg>