<svg xmlns="http://www.w3.org/2000/svg" width="48" height="48" viewBox="0 -960 960 960"><path d="M392.609-73.782q-85.827 0-144.022-58.196Q190.391-190.174 190.391-276q0-52.87 30.986-101.089 30.986-48.22 84.927-73.781 12.695-7.26 26.522-3.608 13.826 3.652 21.087 16.348 7.261 12.695 3.609 26.239-3.652 13.543-16.348 20.804-35.628 15.324-56.205 47.68-20.578 32.355-20.578 67.201 0 55.945 36.334 92.967 36.333 37.021 91.884 37.021 34.608 0 66.847-19.804t47.239-55.543q7.261-13.696 21.587-17.848 14.327-4.152 27.022 3.478 12.696 7.631 16.066 21.088 3.369 13.456-3.892 26.152-25.561 52.941-73.78 83.927-48.22 30.986-101.089 30.986ZM729.391-80q-15.826 0-26.304-10.478-10.478-10.479-10.478-26.305V-289H498.392q-38.74 0-65.262-26.522-26.521-26.522-26.521-65.262v-230.607q0-32.36 22.413-54.441 22.413-22.081 54.108-22.081 20.74 0 36.457 7.586 15.717 7.587 37.891 32.567 35.131 37.237 79.892 67.955 44.76 30.717 96.587 40.848 14.13 2.565 23.761 12.91 9.63 10.345 9.63 24.543 0 14.199-10.348 23.547t-23.478 7.348q-43.304-7-87.517-28.248-44.212-21.247-85.396-54.969v176.217h120q35.482 0 60.241 24.759t24.759 60.241v176.391q0 15.827-10.196 26.022Q745.218-80 729.391-80ZM483.13-741.913q-33.024 0-56.12-23.196-23.097-23.196-23.097-56.327 0-32.566 23.456-56.022 23.455-23.456 56.022-23.456 32.566 0 56.044 23.456 23.478 23.456 23.478 56.022 0 33.131-23.262 56.327-23.263 23.196-56.521 23.196Z"/></svg>