<svg xmlns="http://www.w3.org/2000/svg" width="48" height="48" viewBox="0 -960 960 960"><path d="M600.609-181.13v-48.043h-81q-32.663 0-55.941-22.995-23.277-22.995-23.277-56.223v-343.218h-80v53.043q0 31.533-22.712 54.245-22.712 22.712-54.245 22.712H136.609q-33.229 0-56.224-23.277-22.995-23.277-22.995-56.506v-175.217q0-33.228 22.995-56.506 22.995-23.277 56.224-23.277h146.825q31.533 0 54.245 22.712 22.712 22.712 22.712 54.245v48.043h240.218v-48.043q0-31.533 22.712-54.245 22.712-22.712 54.245-22.712h145.825q33.229 0 56.507 23.277 23.277 23.278 23.277 56.506v175.217q0 33.229-23.277 56.506-23.278 23.277-56.507 23.277H677.566q-31.533 0-54.245-22.712-22.712-22.712-22.712-54.245v-53.043h-81v343.218h81v-53.043q0-31.533 22.712-54.245 22.712-22.712 54.245-22.712h145.825q33.229 0 56.507 23.277 23.277 23.277 23.277 55.941v175.782q0 33.228-23.277 56.223-23.278 22.995-56.507 22.995H677.566q-31.533 0-54.245-22.43-22.712-22.429-22.712-54.527Z"/></svg>