<svg xmlns="http://www.w3.org/2000/svg" width="48" height="48" viewBox="0 -960 960 960"><path d="M721-153.999h-83.782q-15.577 0-25.897-10.654Q601-175.307 601-190.958t10.603-25.846Q622.207-227 637.783-227H721v-83.782q0-15.577 10.654-25.897Q742.308-347 757.958-347q15.651 0 25.847 10.321 10.196 10.32 10.196 25.897V-227h83.782q15.576 0 25.897 10.371 10.321 10.371 10.321 26.022 0 15.651-10.321 26.129-10.321 10.479-25.897 10.479h-83.782v84.782q0 15.576-10.371 25.897Q773.258-33 757.608-33q-15.651 0-26.13-10.603Q721-54.206 721-69.783v-84.216Zm-582.13 6.217q-16.707 0-28.158-11.451-11.452-11.451-11.452-28.158v-205.391H76.086q-18.661 0-29.57-13.826-10.908-13.826-7.343-31.783L86-642.652q2.566-13.826 13.642-22.587T124.043-674h543.131q13.891 0 24.967 8.261 11.077 8.261 13.642 22.087l42.739 185.043q4.13 17.391-7.061 32Q730.27-412 712.174-412H691v115.391q0 16.707-11.502 28.158Q667.997-257 651.215-257q-16.781 0-28.107-11.451t-11.326-28.158v-102.39H432.218v211.608q0 16.707-11.452 28.158-11.451 11.451-28.157 11.451H138.87ZM178.479-227h174.52v-165.782h-174.52V-227Zm-50.131-507q-15.577 0-25.897-10.654-10.321-10.654-10.321-26.304 0-15.651 10.603-25.847 10.604-10.196 26.18-10.196H664.87q15.576 0 25.896 10.371 10.321 10.372 10.321 26.022 0 15.651-10.603 26.13Q679.88-734 664.304-734H128.348Z"/></svg>