<svg xmlns="http://www.w3.org/2000/svg" width="48" height="48" viewBox="0 96 960 960"><path d="M766.433 1019.39q-16.781 0-28.107-11.45-11.327-11.451-11.327-28.158v-70.781h-70.781q-16.707 0-28.158-11.502t-11.451-28.283q0-16.781 11.451-28.107 11.451-11.327 28.158-11.327h70.781v-70.781q0-16.707 11.502-28.158 11.502-11.452 28.283-11.452t28.107 11.452q11.327 11.451 11.327 28.158v70.781h70.781q16.707 0 28.158 11.502 11.452 11.502 11.452 28.283t-11.452 28.107q-11.451 11.327-28.158 11.327h-70.781v70.781q0 16.707-11.502 28.158-11.502 11.45-28.283 11.45Zm0-392.781q-16.781 0-28.107-11.451-11.327-11.451-11.327-28.158V282.609q0-16.707 11.502-28.158 11.502-11.452 28.283-11.452t28.107 11.452q11.327 11.451 11.327 28.158V587q0 16.707-11.502 28.158t-28.283 11.451ZM160.432 909.001q-16.782 0-28.108-11.452-11.326-11.451-11.326-28.158V282.609q0-16.707 11.502-28.158 11.501-11.452 28.283-11.452 16.781 0 28.39 11.452 11.609 11.451 11.609 28.158v586.782q0 16.707-11.785 28.158-11.784 11.452-28.565 11.452ZM463.998 403q-17.347 0-28.673-11.451-11.326-11.451-11.326-28.158v-80.782q0-16.707 11.501-28.158 11.502-11.452 28.849-11.452 16.781 0 28.107 11.452 11.326 11.451 11.326 28.158v80.782q0 16.707-11.501 28.158Q480.779 403 463.998 403Zm0 252.218q-17.347 0-28.673-11.452-11.326-11.451-11.326-28.157v-80.218q0-16.706 11.501-28.157 11.502-11.452 28.849-11.452 16.781 0 28.107 11.452 11.326 11.451 11.326 28.157v80.218q0 16.706-11.501 28.157-11.502 11.452-28.283 11.452Zm0 253.783q-17.347 0-28.673-11.452-11.326-11.451-11.326-28.158v-81.782q0-16.707 11.501-28.158Q447.002 748 464.349 748q16.781 0 28.107 11.451t11.326 28.158v81.782q0 16.707-11.501 28.158-11.502 11.452-28.283 11.452Z"/></svg>