<svg xmlns="http://www.w3.org/2000/svg" width="48" height="48" viewBox="0 -960 960 960"><path d="M929.609-846.999v388.739q-35.565-45.522-87.073-71.631Q791.029-556 733-556q-23.293 0-45.587 4.406-22.293 4.406-43.587 13.029v-22q-3.956-35.522-17.87-62.153-13.913-26.63-30.826-39.239L401.609-796.218v-70q3.956-25.18 23.842-42.59 19.886-17.41 46.897-17.41h377.478q32.91 0 56.347 23.271 23.436 23.27 23.436 55.948ZM699.826-703h60v-60h-60v60ZM732.5-120Q655-120 600-175.5T545-307q0-78.435 54.99-133.717Q654.98-496 733-496q77 0 132.5 55.283Q921-385.435 921-307q0 76-55.5 131.5t-133 55.5Zm-20.718-163.782V-196q0 9.487 6.366 15.852 6.365 6.366 15.709 6.366t16.353-6.966q7.008-6.965 7.008-16.252v-86.782H845q9.487 0 15.852-6.366 6.366-6.365 6.366-15.709t-6.366-16.353q-6.365-7.008-15.852-7.008h-87.782V-417q0-9.487-6.366-15.852-6.365-6.366-15.709-6.366t-16.353 6.366q-7.008 6.365-7.008 15.852v87.782H624q-9.487 0-15.852 6.366-6.366 6.365-6.366 15.709t6.966 16.353q6.965 7.008 16.252 7.008h86.782ZM29.826-233.391v-318.826q0-19.359 8.478-36.68 8.478-17.321 24.435-28.712l198.565-140.826q20.86-14.956 46.191-14.956 25.331 0 46.418 14.956l196.435 140.826q14.826 10.261 23.022 25.739 8.195 15.479 8.76 32.305v56q-45.565 35-71.347 86.782Q485-365 485-307q0 29.345 7.348 58.216 7.348 28.871 21.043 55.002H387.609v-233.436h-160.5v233.436H69.435q-16.707 0-28.158-11.452-11.451-11.451-11.451-28.157Z"/></svg>