<svg xmlns="http://www.w3.org/2000/svg" width="48" height="48" viewBox="0 -960 960 960"><path d="M706.695-195.173v87.217q0 9.713 7.008 16.248 7.008 6.535 16.353 6.535 9.344 0 15.709-7.135t6.365-16.648v-86.217h87.783q9.487 0 15.852-7.178t6.365-16.748q0-9.344-6.365-15.709-6.365-6.366-15.852-6.366H752.13v-87.782q0-9.487-6.365-15.852-6.365-6.366-15.709-6.366-9.345 0-16.353 6.366-7.008 6.365-7.008 15.852v87.782h-87.782q-9.487 0-15.853 6.438-6.365 6.438-6.365 15.879 0 9.441 6.965 16.563 6.966 7.121 16.253 7.121h86.782Zm-521.608 91q-32.677 0-55.948-23.437-23.27-23.436-23.27-56.347v-589.825q0-32.678 23.27-55.948 23.271-23.271 55.948-23.271h589.826q32.91 0 56.347 23.271 23.436 23.27 23.436 55.948v268.217q0 16.706-11.833 28.158-11.834 11.451-28.566 11.451t-28.058-11.451q-11.326-11.452-11.326-28.158v-268.217H185.087v589.825h256.086q16.636 0 28.405 11.502 11.77 11.502 11.77 28.566 0 17.063-11.77 28.39-11.769 11.326-28.405 11.326H185.087Zm0-113.218v33.434-589.825 310.826-3.435 249Zm100-96.39q0 12.824 8.625 21.324 8.625 8.5 21.375 8.5h143.652q12.185 0 21.092-8.675 8.908-8.676 8.908-21.5 0-12.825-8.908-21.325-8.907-8.5-21.092-8.5H315.087q-12.75 0-21.375 8.676-8.625 8.675-8.625 21.5Zm0-164.913q0 12.824 8.625 21.324 8.625 8.5 21.293 8.5h319.599q12.103 0 21.01-8.675 8.908-8.675 8.908-21.5t-8.908-21.325q-8.907-8.5-21.003-8.5H315.087q-12.75 0-21.375 8.676-8.625 8.675-8.625 21.5Zm0-164.913q0 12.825 8.625 21.325t21.375 8.5h329.826q12.75 0 21.375-8.676 8.625-8.675 8.625-21.5 0-12.824-8.625-21.324-8.625-8.5-21.375-8.5H315.087q-12.75 0-21.375 8.675-8.625 8.676-8.625 21.5Zm442.326 611.65q-77.5 0-132.5-55.216-55-55.218-55-131.783 0-77.87 54.99-133.435t133.01-55.565q77 0 132.5 55.565t55.5 133.435q0 76.565-55.5 131.783-55.5 55.217-133 55.217Z"/></svg>