<svg xmlns="http://www.w3.org/2000/svg" width="48" height="48" viewBox="0 -960 960 960"><path d="M446.61-489.43v93.21q0 13.97 9.52 23.68 9.53 9.71 24.05 9.71 14.52 0 23.86-9.71 9.35-9.71 9.35-23.68v-93.21h93.22q13.96 0 23.68-9.87 9.71-9.86 9.71-24.04t-9.47-23.53q-9.48-9.35-23.92-9.35h-93.22v-93.21q0-13.97-9.52-23.68-9.53-9.72-24.05-9.72-14.52 0-23.86 9.48-9.35 9.47-9.35 23.92v93.21h-93.22q-13.96 0-23.68 9.53-9.71 9.52-9.71 23.7 0 14.19 9.47 23.87 9.48 9.69 23.92 9.69h93.22ZM145.09-185.87q-32.51 0-55.87-23.35-23.35-23.36-23.35-55.87v-509.82q0-32.74 23.35-56.26 23.36-23.53 55.87-23.53h669.82q32.74 0 56.26 23.53 23.53 23.52 23.53 56.26v509.82q0 32.51-23.53 55.87-23.52 23.35-56.26 23.35h-177v40.39q0 16.71-11.77 28.16-11.76 11.45-28.4 11.45H362.26q-16.71 0-28.16-11.45t-11.45-28.16v-40.39H145.09Z"/></svg>