<svg xmlns="http://www.w3.org/2000/svg" width="48" height="48" viewBox="0 96 960 960"><path d="M483 779.391q14.922 0 24.157-9.234 9.234-9.235 9.234-24.297V613.391H651q13.478 0 22.935-9.475 9.456-9.475 9.456-23.916 0-14.922-9.234-24.157-9.235-9.234-24.297-9.234H516.391V405q0-13.478-9.475-22.935-9.475-9.456-23.916-9.456-14.922 0-24.157 9.234-9.234 9.235-9.234 24.297v140.469H309q-13.478 0-22.935 9.475-9.456 9.475-9.456 23.916 0 14.922 9.234 24.157 9.235 9.234 24.297 9.234h139.469V747q0 13.478 9.475 22.935 9.475 9.456 23.916 9.456Zm-2.717 210.74q-88.109 0-163.928-31.678-75.819-31.677-131.475-87.333-55.656-55.656-87.333-131.475-31.678-75.819-31.678-163.928 0-87.108 31.544-162.681 31.544-75.572 87.333-131.474 55.79-55.903 131.609-88.081 75.819-32.177 163.928-32.177 87.108 0 162.712 32.104 75.603 32.104 131.529 87.997t88.049 131.452Q894.696 488.416 894.696 576q0 87.826-32.177 163.645-32.178 75.819-88.081 131.609-55.902 55.789-131.474 87.333-75.573 31.544-162.681 31.544Z"/></svg>