<svg xmlns="http://www.w3.org/2000/svg" width="48" height="48" viewBox="0 96 960 960"><path d="M102.479 990.131q-32.507 0-55.863-23.356Q23.26 943.42 23.26 910.913V408.087q0-31.74 23.356-55.762 23.356-24.021 55.863-24.021H241l79.218-93.218h266.999V374.87h123.522v131.304h140.784v404.739q0 32.507-24.022 55.862-24.022 23.356-55.762 23.356h-669.26ZM437.391 830q72 0 121-49t49-121q0-73-49-121.5t-121-48.5q-73 0-121.5 48.5t-48.5 121.5q0 72 48.5 121t121.5 49Zm0-60q-48 0-79-31.5t-31-78.5q0-48 31-79t79-31q47 0 78.5 31t31.5 79q0 47-31.5 78.5t-78.5 31.5Zm333.348-364.609V314.87h-90.522v-67.066h90.522V157.13h66.783v90.674h91.522v67.066h-91.522v90.521h-66.783Z"/></svg>