<svg xmlns="http://www.w3.org/2000/svg" width="48" height="48" viewBox="0 -960 960 960"><path d="M185.48-185.87q-16.71 0-28.16-11.5t-11.45-28.28q0-16.78 11.45-28.11 11.45-11.33 28.16-11.33h35.3v-289.87q0-88.91 51.48-160.58 51.48-71.68 138.13-90.37v-18.61q0-29.48 20.33-49.83Q451.04-894.7 480-894.7t49.28 20.35q20.33 20.35 20.33 49.83v18.61q86.65 18.13 138.41 90 51.76 71.87 51.76 160.95v289.87h34.74q16.64 0 28.41 11.5 11.77 11.51 11.77 28.29t-11.77 28.1q-11.77 11.33-28.41 11.33H185.48Zm294.8 125.09q-34.98 0-59.89-24.87-24.91-24.86-24.91-60.22h169.61q0 35.26-24.92 60.18-24.91 24.91-59.89 24.91Zm-32.54-386.7v50.05q0 13.64 9.24 23.23t23.2 9.59q13.95 0 23.3-9.59 9.35-9.59 9.35-23.23v-50.05h50.04q13.4 0 22.83-9.58 9.43-9.57 9.43-23.19 0-13.62-9.43-22.97t-22.83-9.35h-50.04v-50.04q0-13.64-9.53-23.23-9.52-9.59-23.48-9.59-13.95 0-23.02 9.59-9.06 9.59-9.06 23.23v50.04h-50.61q-13.4 0-22.83 9.58-9.43 9.58-9.43 23.2t9.43 22.96q9.43 9.35 22.83 9.35h50.61Z"/></svg>