<svg xmlns="http://www.w3.org/2000/svg" width="48" height="48" viewBox="0 -960 960 960"><path d="M128.74-105.87q-35.42 0-52.19-29.56-16.77-29.57.19-59.92l351.82-609.74q8.42-14.95 22.26-22.15 13.84-7.19 28.99-7.19 15.15 0 29.13 7.19 13.99 7.2 23.06 22.15l351.26 609.74q16.96 30.35.19 59.92-16.77 29.56-52.19 29.56H128.74Zm313.91-215.78V-276q0 15.58 10.94 26.46 10.93 10.89 26.87 10.89 15.93 0 26.69-10.89 10.76-10.88 10.76-26.46v-45.65H564q15.58 0 26.74-10.94 11.17-10.93 11.17-26.59 0-15.65-11.17-26.69-11.16-11.04-26.74-11.04h-46.09V-443q0-15.58-10.93-26.74-10.94-11.17-26.87-11.17-15.94 0-26.7 11.17-10.76 11.16-10.76 26.74v46.09h-45.52q-16.14 0-27.03 11.22-10.88 11.21-10.88 26.87 0 15.65 10.88 26.41 10.89 10.76 27.03 10.76h45.52Z"/></svg>