<svg xmlns="http://www.w3.org/2000/svg" width="48" height="48" viewBox="0 -960 960 960"><path d="M480-65.87q-14.96 0-29.35-5.91-14.39-5.92-26.78-16.74L88.96-423.43q-11.21-11.8-16.65-26.21-5.44-14.4-5.44-29.36 0-14.96 5.44-29.83 5.44-14.87 16.65-25.74l334.91-336.47q11.83-11.83 26.5-17.24 14.67-5.42 29.85-5.42 15.17 0 29.56 5.42 14.39 5.41 25.22 17.24l337.61 336.47q11.83 10.83 16.96 25.72 5.13 14.89 5.13 29.85t-5.13 29.35q-5.13 14.39-16.96 26.22L535-88.52q-11.19 11-25.57 16.83-14.39 5.82-29.43 5.82Zm-36.22-376.91v87.52q0 15.58 10.54 25.9 10.53 10.32 25.74 10.32 15.2 0 25.68-10.32t10.48-25.9v-87.52h88.52q15.18 0 25.7-10.54 10.52-10.53 10.52-25.74 0-15.2-10.52-25.68t-25.7-10.48h-88.52v-88.52q0-15.18-10.54-25.7-10.53-10.52-25.74-10.52-15.2 0-25.68 10.52t-10.48 25.7v88.52h-87.52q-15.58 0-25.9 10.54-10.32 10.53-10.32 25.74 0 15.2 10.32 25.68t25.9 10.48h87.52Z"/></svg>