<svg xmlns="http://www.w3.org/2000/svg" width="48" height="48" viewBox="0 -960 960 960"><path d="M688.695-265.869h-87.412q-14.168 0-23.378-9.423t-9.21-23.353q0-13.181 9.438-23.311 9.437-10.131 23.388-10.131h87.174v-86.608q0-14.191 9.41-23.792 9.411-9.6 23.874-9.6 14.464 0 23.982 9.6 9.517 9.601 9.517 23.792v86.608h87.174q13.951 0 23.388 9.491 9.438 9.491 9.438 23.521 0 14.51-9.438 23.858-9.437 9.348-23.388 9.348h-87.174v86.411q0 14.87-9.65 24.229-9.651 9.36-23.917 9.36-14.746 0-23.981-9.36-9.235-9.359-9.235-24.229v-86.411Zm-284.522 0H280q-89.28 0-151.706-62.413-62.425-62.412-62.425-151.546 0-89.134 62.425-152.001Q190.72-694.696 280-694.696h124.173q15.646 0 27.628 12.144 11.981 12.144 11.981 28.53 0 16.146-11.981 27.628-11.982 11.481-27.628 11.481H280q-56.638 0-95.775 39.069-39.138 39.069-39.138 95.609 0 56.539 39.138 95.844 39.137 39.304 95.775 39.304h124.173q15.646 0 27.628 11.826 11.981 11.826 11.981 28.283t-11.981 27.783q-11.982 11.326-27.628 11.326Zm-55.391-180.74q-14.191 0-23.791-9.41t-9.6-24.156q0-14.747 9.36-23.982 9.359-9.234 24.218-9.234h241.335q14.191 0 23.791 9.41t9.6 24.156q0 14.747-9.6 23.982-9.6 9.234-23.791 9.234H348.782ZM894.696-480h-79.783q0-56.304-39.114-95.609-39.113-39.304-95.716-39.304H554.262q-15.957 0-27.283-11.669-11.327-11.67-11.327-28.158 0-15.739 11.452-27.848 11.451-12.108 28.158-12.108H680q89.099 0 151.898 62.798Q894.696-569.099 894.696-480Z"/></svg>