<svg xmlns="http://www.w3.org/2000/svg" width="48" height="48" viewBox="0 96 960 960"><path d="M480.175 696q14.747 0 23.982-9.36 9.234-9.36 9.234-24.031v-93.218h93.218q14.671 0 24.031-9.41t9.36-24.156q0-14.747-9.36-23.982-9.36-9.234-24.031-9.234h-93.218v-93.218q0-14.671-9.41-24.031T479.825 376q-14.747 0-23.982 9.36-9.234 9.36-9.234 24.031v93.218h-93.218q-14.671 0-24.031 9.41T320 536.175q0 14.747 9.36 23.982 9.36 9.234 24.031 9.234h93.218v93.218q0 14.671 9.41 24.031t24.156 9.36ZM362.261 956.914q-16.707 0-28.158-11.451t-11.451-28.723v-46.609H145.087q-32.649 0-55.934-23.284-23.284-23.285-23.284-55.934V281.087q0-32.649 23.284-56.216 23.285-23.567 55.934-23.567h669.826q32.649 0 56.216 23.567t23.567 56.216v509.826q0 32.649-23.567 55.934-23.567 23.284-56.216 23.284h-177v46.609q0 17.272-11.733 28.723-11.734 11.451-28.441 11.451H362.261Z"/></svg>