<svg xmlns="http://www.w3.org/2000/svg" width="48" height="48" viewBox="0 -960 960 960"><path d="M145.087-140.782q-32.677 0-55.948-23.27Q65.87-187.322 65.87-220v-164.218q0-50.275 31.292-81.92 31.292-31.646 81.709-31.646h48.999v-250.129q0-32.678 23.27-55.948 23.271-23.271 55.948-23.271h345.826q32.91 0 56.347 23.271 23.436 23.27 23.436 55.948v250.129h48.434q50.653 0 82.11 31.646 31.456 31.645 31.456 81.92V-220q0 32.678-23.436 55.948-23.437 23.27-56.347 23.27H145.087Zm162-357.002h345.826v-250.129H307.087v250.129Zm422.767 181.002q15.373 0 25.846-10.265 10.474-10.266 10.474-26.128 0-15.863-10.543-25.953t-26.128-10.09q-15.373 0-25.852 10.265-10.478 10.266-10.478 26.128 0 15.863 10.654 25.953t26.027 10.09Z"/></svg>