<svg xmlns="http://www.w3.org/2000/svg" width="48" height="48" viewBox="0 96 960 960"><path d="M691.73 786q26.165 0 44.283-19 18.117-19 18.117-44.882 0-25.883-18.4-44Q717.33 660 692.013 660q-26.448 0-45.165 18.118-18.718 18.117-18.718 44 0 25.882 18.718 44.882 18.717 19 44.882 19Zm-1.1 125q33.5 0 60.151-13.717 26.651-13.718 46.349-39.718-26.565-14-52.625-21.282Q718.444 829 690.886 829q-27.756 0-54.538 7.283-26.783 7.282-51.783 21.282 19 26 45.395 39.718Q656.354 911 690.63 911Zm1.87 65Q615 976 560 920.5T505 789q0-78.435 54.99-133.718Q614.98 600 693 600q77 0 132.5 55.282Q881 710.565 881 789q0 76-55.5 131.5t-133 55.5ZM480 987.131q-5 0-9.196-.282-4.195-.283-10.744-2.753-129.973-40.356-222.082-165.183Q145.869 694.087 145.869 534V340.957q0-25.214 13.984-45.837 13.984-20.623 37.451-29.816l254.913-95.305q14.392-5.13 27.783-5.13 13.391 0 27.783 5.13l254.913 95.305q23.413 9.071 37.707 29.731 14.293 20.661 14.293 45.922v232.522q-19.087-11.522-39.451-19.336-20.365-7.814-40.332-10.273v-203.4L480 246.652l-254.913 93.644v193.459q0 77.375 24.783 140.528 24.782 63.152 62.5 109.956 37.717 46.804 82.021 77.109 44.305 30.304 83.348 42.608 6.565 18.783 22.805 39.435 16.239 20.653 32.152 31.479-15.522 6.131-28.413 9.196-12.892 3.065-24.283 3.065Zm0-411.827Z"/></svg>