<svg xmlns="http://www.w3.org/2000/svg" width="48" height="48" viewBox="0 -960 960 960"><path d="M320.435-323.139q32.804 32.574 76.065 33.074 43.261.5 76.065-32.065L534-383.565 382.435-535.13l-62 61.434q-31 31.24-31 75.561 0 44.322 31 74.996Zm319.13-316.557Q607-671.261 563.217-671.978q-43.782-.718-75.782 31.848l-63 63L576-425.565l64.13-63.565q31.435-31.435 30.935-75-.5-43.566-31.5-75.566ZM185.087-105.869q-32.899 0-56.059-23.159-23.159-23.16-23.159-56.059v-589.826q0-32.899 23.159-56.341 23.16-23.442 56.059-23.442h190.869q8.392-35 37.087-57.5 28.696-22.5 66.957-22.5 38.261 0 66.957 22.5 28.695 22.5 37.087 57.5h190.869q32.899 0 56.341 23.442t23.442 56.341v589.826q0 32.899-23.442 56.059-23.442 23.159-56.341 23.159H185.087ZM480-793.609q15.96 0 27.176-11.215Q518.391-816.04 518.391-832q0-15.96-11.215-27.176Q495.96-870.391 480-870.391q-15.96 0-27.176 11.215Q441.609-847.96 441.609-832q0 15.96 11.215 27.176Q464.04-793.609 480-793.609Z"/></svg>