<svg xmlns="http://www.w3.org/2000/svg" width="48" height="48" viewBox="0 -960 960 960"><path d="M691.73-270q26.165 0 44.283-19 18.117-19 18.117-44.882 0-25.883-18.4-44Q717.33-396 692.013-396q-26.448 0-45.165 18.118-18.718 18.117-18.718 44 0 25.882 18.718 44.882 18.717 19 44.882 19Zm-1.1 125q33.5 0 60.151-13.717 26.651-13.718 46.349-39.718-26.565-14-52.625-21.282Q718.444-227 690.886-227q-27.756 0-54.538 7.283-26.783 7.282-51.783 21.282 19 26 45.395 39.718Q656.354-145 690.63-145ZM480-65.304Q335.913-98.892 240.891-227.628 145.869-356.364 145.869-522v-193.043q0-25.475 13.984-46.25t37.451-29.403l254.913-95.305q13.826-5.13 27.783-5.13t27.783 5.13l254.913 95.305q23.467 8.628 37.734 29.403 14.266 20.775 14.266 46.25v232.522q-19.087-11.522-39.451-19.336-20.365-7.814-40.332-10.273v-203.4L480-809.348l-254.913 93.644v193.459q0 77.375 24.783 140.528 24.782 63.152 62.5 109.956 37.717 46.804 82.021 77.109 44.305 30.304 83.348 42.608 6.565 18.783 22.522 39.153 15.957 20.37 31.305 30.63-12.392 6.696-25.783 10.044-13.392 3.348-25.783 6.913ZM692.5-80Q615-80 560-135.5T505-267q0-78.435 54.99-133.717Q614.98-456 693-456q77 0 132.5 55.283Q881-345.435 881-267q0 76-55.5 131.5T692.5-80ZM480-480.696Z"/></svg>