<svg xmlns="http://www.w3.org/2000/svg" width="48" height="48" viewBox="0 -960 960 960"><path d="M226.11-140.78q-82.09 0-139.75-58.36T28.7-340.29q0-82.8 58.14-141.26Q144.99-540 228.41-540q83.42 0 141.46 58.47 58.04 58.48 58.04 141.44 0 82.96-59.02 141.14-59.03 58.17-142.78 58.17Zm2.18-135.83q-26.35 0-44.78-18.64-18.42-18.63-18.42-45.26 0-26.62 18.52-45.14t44.98-18.52q26.45 0 44.97 18.63 18.53 18.64 18.53 45.26 0 26.63-18.61 45.15t-45.19 18.52ZM787.2-140.78q-60.19 0-102.65-41.41-42.46-41.41-42.46-100 0-61.06 43.16-104.44Q728.42-430 789.49-430q58.58 0 100.2 42.5 41.61 42.49 41.61 102.11 0 60.69-41.95 102.65-41.96 41.96-102.15 41.96ZM140.39-599q-13.31 0-21.81-9.73-8.49-9.74-8.49-23.38 0-13.4 8.49-23.25 8.5-9.86 21.9-9.86h149q26.86 0 45.34 19.48Q353.3-626.26 358.3-599H140.39ZM313.8-254.86q34.9-34.85 34.9-85.21 0-50.36-34.78-85.54-34.77-35.17-85.5-35.17-50.72 0-85.62 34.97-34.89 34.97-34.89 85.5t34.78 85.42Q177.46-220 228.19-220q50.72 0 85.61-34.86Zm523.63 20.3q20.87-20.77 20.87-50.45 0-29.69-20.89-50.84Q816.52-357 786.67-357q-29.84 0-51 21.11-21.15 21.11-21.15 50.79t21.01 50.5q21.01 20.82 51.02 20.82 30.02 0 50.88-20.78ZM455.91-307h157.05q15.56-68.65 67.45-109.04t112.85-40.39q23.14 0 45.81 6.69 22.67 6.7 43.93 21.09v-225.26q0-33.49-23.15-56.64-23.14-23.15-56.63-23.15H538.97L490.7-781l47.34-47.35q5.13-4.95 5.42-12.86.28-7.92-5.56-13.9-5.83-5.98-13.52-5.7-7.68.29-13.38 5.42l-120.74 121.3q-6.26 5.7-6.26 13.74 0 8.05 5.55 13.74 5.56 5.7 13.63 5.7t13.56-5.7l46.35-46.35 47.87 45.38V-597q0 38.27-26.24 66.53-26.24 28.25-64.29 28.25h-29.95q36.22 34.26 53.11 81.18 16.89 46.93 14.32 96.48 0 5.75-.5 9.15-.5 3.41-1.5 8.41Z"/></svg>