<svg xmlns="http://www.w3.org/2000/svg" width="48" height="48" viewBox="0 -960 960 960"><path d="M106.218-260.782q-32.664 0-55.941-22.994Q26.999-306.771 26.999-340v-283.391q0-15.789 10.654-26.003 10.654-10.215 26.305-10.215 15.65 0 25.846 10.215Q100-639.18 100-623.391V-340h359.218v-240.391q0-32.663 23.277-55.941 23.278-23.277 56.506-23.277H775q65.345 0 111.673 46.328t46.328 111.672V-340q0 33.229-23.278 56.224-23.277 22.994-55.941 22.994H106.218Zm167.273-134.827q47.926 0 80.022-32.478 32.096-32.478 32.096-80.404 0-47.926-32.096-80.022-32.096-32.096-80.022-32.096-47.926 0-80.404 32.096-32.478 32.096-32.478 80.022 0 47.926 32.478 80.404 32.478 32.478 80.404 32.478Z"/></svg>