<svg xmlns="http://www.w3.org/2000/svg" width="48" height="48" viewBox="0 -960 960 960"><path d="M106.218-260.782q-32.678 0-55.948-23.27Q27-307.322 27-340v-283.391q0-15.393 10.653-25.806 10.654-10.412 26.027-10.412 15.373 0 25.847 10.412Q100-638.784 100-623.391V-340h359.218v-240.391q0-32.677 23.436-55.948 23.437-23.27 56.347-23.27H775q66.967 0 112.484 45.517 45.517 45.516 45.517 112.483V-340q0 32.678-23.271 55.948-23.27 23.27-55.948 23.27H106.218Zm167.273-134.827q-47.926 0-80.404-32.478-32.478-32.478-32.478-80.404 0-47.926 32.478-80.022 32.478-32.096 80.404-32.096 47.926 0 80.022 32.096 32.096 32.096 32.096 80.022 0 47.926-32.096 80.404-32.096 32.478-80.022 32.478Z"/></svg>