<svg xmlns="http://www.w3.org/2000/svg" width="48" height="48" viewBox="0 -960 960 960"><path d="M749.783-645.696q-27.131 27.695-60.826 40.761-33.696 13.065-69.392 13.065-36.261 0-70.239-13.348t-61.109-40.478l-75-75q-15.304-15.305-34.108-22.457-18.805-7.152-39.109-7.152-20.304 0-39.109 7.152-18.804 7.152-34.108 22.457l-47 47q-11.826 12.391-28.066 11.891-16.239-.5-28.065-12.326t-11.826-28.283q0-16.457 11.826-28.848l46.565-46q27.131-26.566 60.826-40.196 33.696-13.631 68.392-13.631 35.261 0 68.739 13.631 33.478 13.63 60.609 40.196l75 75q15.869 15.869 34.674 23.521 18.804 7.652 39.543 7.652t40.043-7.652q19.305-7.652 35.174-23.521l47-47q11.826-11.827 28.283-11.827t28.283 11.827q11.826 12.391 11.826 28.848t-11.826 28.283l-47 46.435Zm0 231.479q-27.131 27.13-61.109 40.478-33.978 13.348-69.674 13.348-35.696 0-69.674-13.348-33.978-13.348-61.109-40.478l-75-75q-15.304-15.304-34.108-22.739-18.805-7.435-39.109-7.435-20.304 0-39.109 7.435-18.804 7.435-34.108 22.739l-47 47Q207.957-430.391 192-430.391t-27.783-11.826q-11.826-11.826-12.326-28.283t11.326-28.283l47-47q27.131-27.13 60.826-40.478 33.696-13.348 68.392-13.348 35.261 0 68.739 13.348t60.609 40.478l75 75q15.869 15.87 35.174 23.522 19.304 7.652 40.043 7.652t39.543-7.652q18.805-7.652 34.674-23.522l47-47q11.826-11.826 28.283-11.826t28.283 11.826q11.826 11.826 11.826 28.566 0 16.739-11.826 28.565l-47 46.435Zm-1 230.914q-27.131 27.131-60.609 40.761-33.478 13.631-69.174 13.631-35.696 0-69.674-13.631-33.978-13.63-61.109-40.761l-76-75q-15.304-15.304-34.108-22.456-18.805-7.152-39.109-7.152-20.304 0-39.109 7.152-18.804 7.152-34.108 22.456l-47 47Q206.957-198.911 191-198.911t-27.783-12.392q-11.826-11.826-11.326-27.5t11.326-28.066l47-48q27.131-27.13 60.326-40.478 33.196-13.348 67.892-13.348 35.261 0 69.239 13.63 33.978 13.631 61.109 40.196l75 75q15.869 15.87 35.174 23.522 19.304 7.652 40.043 7.652t39.543-7.652q18.805-7.652 34.674-23.522l46.435-47q11.826-11.826 28.065-11.326 16.24.5 28.066 12.326 11.826 12.392 11.826 28.348 0 15.957-11.826 27.218l-47 47Z"/></svg>