<svg xmlns="http://www.w3.org/2000/svg" width="48" height="48" viewBox="0 -960 960 960"><path d="M826.24-77.32q-11.33-11.45-11.33-28.16v-174.91H735.3q-16.7 0-28.15-11.45-11.46-11.45-11.46-28.16v-320q0-16.71 11.46-28.16 11.45-11.45 28.15-11.45h79.61v-174.91q0-16.71 11.5-28.44 11.51-11.74 28.29-11.74t28.39 11.74q11.61 11.73 11.61 28.44v749.04q0 16.71-11.79 28.16-11.78 11.45-28.56 11.45t-28.11-11.45ZM105.3-65.87q-16.78 0-28.1-11.45-11.33-11.45-11.33-28.16v-749.04q0-16.71 11.5-28.44 11.5-11.74 28.28-11.74t28.11 11.74q11.33 11.73 11.33 28.44v174.91h79.61q16.7 0 28.44 11.45 11.73 11.45 11.73 28.16v320q0 16.71-11.73 28.16-11.74 11.45-28.44 11.45h-79.61v174.91q0 16.71-11.5 28.16-11.51 11.45-28.29 11.45Z"/></svg>