<svg xmlns="http://www.w3.org/2000/svg" width="48" height="48" viewBox="0 -960 960 960"><path d="M105.3-65.87q-16.78 0-28.1-11.45-11.33-11.45-11.33-28.16v-749.04q0-16.71 11.5-28.44 11.5-11.74 28.28-11.74t28.11 11.74q11.33 11.73 11.33 28.44v749.04q0 16.71-11.5 28.16-11.51 11.45-28.29 11.45ZM304.7-277q-24.79 0-42.2-17.44-17.41-17.45-17.41-42.29t17.41-42.16q17.41-17.33 42.2-17.33h289.82q25.36 0 42.77 17.45 17.41 17.44 17.41 42.28t-17.41 42.16Q619.88-277 594.52-277H304.7Zm0-286.78q-24.79 0-42.2-17.45-17.41-17.44-17.41-42.28t17.41-42.16Q279.91-683 304.7-683h529.82q25.36 0 42.77 17.44 17.41 17.45 17.41 42.29t-17.41 42.16q-17.41 17.33-42.77 17.33H304.7Z"/></svg>