<svg xmlns="http://www.w3.org/2000/svg" width="48" height="48" viewBox="0 96 960 960"><path d="M549.609 705.304q-45.302 0-82.564-23.218-37.262-23.217-55.697-63.782H274.696v163h549.826v-163H688.435q-18.479 40.565-55.721 63.782-37.242 23.218-83.105 23.218Zm.283-66.783q29.456 0 51.543-16.109 22.087-16.108 32.217-49.804 3.696-11.957 10.779-16.522 7.083-4.565 24.265-4.565h155.826V231.478H274.696v320.043h156.391q16.392 0 23.87 4.565 7.478 4.565 11.174 16.522 10.131 33.696 32.218 49.804 22.086 16.109 51.543 16.109Zm-.528 142.783h275.158-549.826 274.668Zm-274.668 79.218q-32.507 0-55.862-23.356-23.356-23.355-23.356-55.862V231.478q0-32.74 23.356-56.262 23.355-23.522 55.862-23.522h549.826q32.74 0 56.262 23.522t23.522 56.262v549.826q0 32.507-23.522 55.862-23.522 23.356-56.262 23.356H274.696ZM135.478 1000.31q-32.74 0-56.262-23.526-23.522-23.522-23.522-56.262V331.087q0-16.707 11.502-28.158t28.566-11.451q17.064 0 28.39 11.451t11.326 28.158v589.435h589.435q16.707 0 28.158 11.502 11.451 11.501 11.451 28.565t-11.451 28.39q-11.451 11.331-28.158 11.331H135.478Z"/></svg>