<svg xmlns="http://www.w3.org/2000/svg" width="48" height="48" viewBox="0 -960 960 960"><path d="M145.478-105.869q-16.707 0-28.158-11.451t-11.451-28.158v-113.304q0-15.393 10.654-25.805Q127.176-295 142.55-295q15.373 0 25.846 10.413 10.474 10.412 10.474 25.805v79.912h79.912q15.393 0 25.805 10.543Q295-157.784 295-142.199q0 15.373-10.413 25.852-10.412 10.478-25.805 10.478H145.478Zm555.74 0q-15.393 0-25.805-10.654Q665-127.176 665-142.55q0-15.373 10.413-25.846 10.412-10.474 25.805-10.474h79.912v-79.912q0-15.393 10.626-25.805Q802.382-295 818.089-295q15.255 0 25.931 10.413 10.676 10.412 10.676 25.805v113.304q0 16.707-11.769 28.158t-28.405 11.451H701.218ZM480-180q-125 0-212.5-87.5T180-480q0-125 87.5-212.5T480-780q125 0 212.5 87.5T780-480q0 125-87.5 212.5T480-180Zm0-79.784q91.687 0 156.234-64.265Q700.782-388.313 700.782-480t-64.579-156.234Q571.624-700.782 480-700.782q-91.687 0-155.951 64.579Q259.784-571.624 259.784-480q0 91.687 64.265 155.951Q388.313-259.784 480-259.784ZM142.199-665q-15.373 0-25.852-10.413-10.478-10.412-10.478-25.805v-113.304q0-16.636 11.451-28.405 11.451-11.769 28.158-11.769h113.304q15.393 0 25.805 10.931Q295-832.833 295-817.46t-10.413 25.851q-10.412 10.479-25.805 10.479H178.87v79.912q0 15.393-10.543 25.805Q157.784-665 142.199-665Zm675.261 0q-15.373 0-25.851-10.413-10.479-10.412-10.479-25.805v-79.912h-79.912q-15.393 0-25.805-10.626Q665-802.382 665-818.089q0-15.255 10.413-25.931 10.412-10.676 25.805-10.676h113.304q16.636 0 28.405 11.769 11.769 11.769 11.769 28.405v113.304q0 15.393-10.931 25.805Q832.833-665 817.46-665ZM480-480Z"/></svg>