<svg xmlns="http://www.w3.org/2000/svg" width="48" height="48" viewBox="0 -960 960 960"><path d="M440.391-105.478v-146.825q0-45.174-13.739-78.152t-49-67.674l56.566-56.566q10.739 9.869 24.108 27.174 13.37 17.304 21.674 30.478 15.87-23.174 31.239-41.609 15.37-18.435 31.5-31.435 64.783-48.13 89.718-115.761 24.934-67.63 18.369-157.542l-62.217 62.217q-11.826 11.826-27.783 11.826-15.956 0-27.783-11.826-11.826-11.826-11.826-27.5 0-15.675 11.826-28.066l130.175-130.174q5.565-5.566 12.826-8.696 7.261-3.131 14.957-3.131 8.261 0 14.956 3.131 6.696 3.13 12.827 8.696l130.174 130.174q11.826 11.826 11.826 27.783t-11.826 27.783q-12.391 11.826-28.066 12.109-15.674.282-27.5-12.109l-62.217-62.217q3.304 115.26-24.783 188.891-28.086 73.63-111.218 145.674-48.522 42.826-62.043 77.239-13.522 34.414-13.522 79.283v146.825q0 16.957-11.326 28.283T480-65.87q-16.957 0-28.283-11.326t-11.326-28.283ZM235.955-616.782q-4-16.869-7.065-51.652-3.065-34.782-1.065-73.956l-60.652 60.652q-12.391 11.826-28.348 11.826-15.957 0-27.218-11.261-12.391-11.826-12.391-27.783t12.391-27.783l129.044-130.174q6.131-5.566 13.109-8.696 6.978-3.131 15.239-3.131 7.696 0 14.674 3.131 6.979 3.13 13.109 8.696l129.609 130.174q11.827 11.261 11.827 27.5 0 16.24-11.827 28.066-11.826 11.826-27.782 11.826-15.957 0-27.783-11.826l-61.652-62.217q-2.565 34.608-1.565 61.413 1 26.804 5.565 46.108l-77.219 19.087Zm93.044 173.261q-19.261-19.13-40.891-48.347-21.631-29.218-33.196-59.696l80.479-20.652q7.87 19.912 22.022 40.086 14.152 20.174 26.587 33.043l-55.001 55.566Z"/></svg>