<svg xmlns="http://www.w3.org/2000/svg" width="48" height="48" viewBox="0 96 960 960"><path d="M762.651 556.956q-16.781 0-28.108-11.451-11.326-11.451-11.326-28.158V389.522l-38.173 36.738q-11.578 11.077-27.159 10.886-15.581-.19-26.711-12.069-11.522-11.124-11.522-27.906 0-16.781 11.391-27.607l104-104q11.827-11.826 28.066-11.826 16.239 0 28.065 11.826l103.435 104q11.826 11.826 11.826 27.783t-11.878 27.783q-11.314 11.261-27.153 11.826-15.839.565-27.665-10.13l-36.738-37.304v127.825q0 16.707-11.785 28.158-11.784 11.451-28.565 11.451ZM106.218 982.218q-24.27 0-35.288-21.588-11.017-21.587 3.94-42.239L248.651 686.87q11.826-15.957 31.348-15.675 19.522.283 31.913 15.675L473.87 902.999h300.129L560 618.479l-72.565 150.173L397 701.695 528.652 526.87q11.826-15.957 31.348-15.957t31.913 15.957L885.13 918.391q14.957 20.652 3.939 42.239-11.017 21.588-35.287 21.588H106.218Zm381.217-79.219Z"/></svg>