<svg xmlns="http://www.w3.org/2000/svg" width="48" height="48" viewBox="0 96 960 960"><path d="M185.087 950.131q-32.507 0-55.862-23.356-23.356-23.355-23.356-55.862v-523q0-17.826 3.848-30.87t13.543-23.739l56-76q10.261-10.696 23.588-15.892 13.326-5.196 30.538-5.196h493.228q17.212 0 30.038 5.196 12.827 5.196 23.653 15.892l57 76q9.13 10.695 13.261 23.739 4.13 13.044 4.13 30.87v523q0 32.507-23.521 55.862-23.522 23.356-56.262 23.356H185.087ZM199.826 322h559.913l-36.409-46H235.943l-36.117 46Zm-14.739 548.913h589.826V382H185.087v488.913Zm295.046-104.261q7.717 0 14.618-2.848 6.901-2.848 13.032-8.978l113.25-112.685q9.75-9.572 9.75-22.671 0-13.098-9.553-22.915-9.553-9.817-23.102-9.817-13.55 0-23.258 9.696l-60.348 60.348V490.869q0-13.725-10.089-23.841-10.088-10.116-24.608-10.116-14.521 0-24.151 10.116-9.631 10.116-9.631 23.841v165.913l-60.913-60.913q-10.083-9.696-23.302-9.413-13.219.282-22.915 9.936-9.696 9.655-9.413 23.059.282 13.404 9.978 22.636l112.739 112.739q6.131 6.13 13.165 8.978 7.035 2.848 14.751 2.848ZM185.087 870.913V382v488.913Z"/></svg>