<svg xmlns="http://www.w3.org/2000/svg" width="48" height="48" viewBox="0 96 960 960"><path d="m303.391 692.608 102.783-143.956h207.825l-310.608-244v387.956Zm315.74 288.915q-21.826 10.131-43.652 2-21.827-8.13-31.957-29.956L413.13 675.349l-118 164.435q-16.956 24.217-43.957 14.956-27-9.261-27-38.609V223.869q0-25.218 22.37-36.044 22.37-10.826 41.892 4.13l465.044 364.393q22.088 18.522 12.609 45.304-9.478 26.783-37.826 26.783H519.131l127.957 276.914q10.13 21.826 2 43.935-8.131 22.109-29.957 32.239ZM406.174 548.652Z"/></svg>