<svg xmlns="http://www.w3.org/2000/svg" width="48" height="48" viewBox="0 -960 960 960"><path d="M741.39-438.826H510v-80.783h231.39l-75.608-74.608Q653.956-606.043 653.956-622t12.392-27.218q11.261-11.826 28.5-11.826t29.065 11.826l141.435 142.435q6.131 6.131 9.261 13.109 3.131 6.978 3.131 15.239 0 7.696-3.131 14.957-3.13 7.261-9.261 12.826l-143.435 144q-11.826 11.261-27.783 11.261-15.956 0-27.782-11.261-12.392-11.826-12.392-28.783 0-16.956 11.826-28.783l75.608-74.608Zm-524.78 0 76.608 75.608q11.826 11.827 11.826 27.783 0 15.957-11.826 27.783-11.261 11.261-28.001 11.261-16.739 0-28.565-11.261l-143-143q-6.13-5.565-9.261-12.826-3.13-7.261-3.13-14.957 0-8.261 3.13-15.239 3.13-6.978 9.26-13.109l144.001-143.435q11.261-11.826 27.218-11.326 15.956.5 28.348 12.326 11.826 11.261 11.826 27.218t-11.826 27.783l-75.043 74.608H450v80.783H216.61Z"/></svg>