<svg xmlns="http://www.w3.org/2000/svg" width="48" height="48" viewBox="0 96 960 960"><path d="M452.217 872.87q-11.391-10.827-11.391-27.501t11.391-28.065l201.694-201.695h-460.52q-16.956 0-28.282-11.326-11.327-11.326-11.327-28.283t11.327-28.283q11.326-11.326 28.282-11.326h460.52l-201.694-202.26q-11.391-10.826-11.391-28t11.391-28.566q11.392-10.826 28.066-10.826t28.065 10.826L779 548.217q6.13 6.131 8.978 13.109T790.826 576q0 7.261-2.848 14.457-2.848 7.195-8.978 13.326L508.348 874.435q-11.391 11.391-28.065 10.609-16.674-.783-28.066-12.174Z"/></svg>