<svg xmlns="http://www.w3.org/2000/svg" width="48" height="48"><path d="M9.25 42.8q-1.65 0-2.8-1.175T5.3 38.8V9.3q0-1.65 1.15-2.8t2.8-1.15h8.7q.85-1.8 2.475-2.9 1.625-1.1 3.625-1.1 1.95 0 3.55 1.1 1.6 1.1 2.5 2.9h8.65q1.65 0 2.825 1.15 1.175 1.15 1.175 2.8v29.5q0 1.65-1.175 2.825Q40.4 42.8 38.75 42.8zM24 8.5q.8 0 1.35-.575t.55-1.375q0-.75-.55-1.325T24 4.65q-.8 0-1.35.575T22.1 6.55q0 .8.55 1.375T24 8.5zm-1.2 22.4q.6.6 1.4.6.8 0 1.35-.6l5.35-5.3q.5-.55.475-1.275-.025-.725-.525-1.225-.55-.55-1.25-.55t-1.2.5l-2.65 2.55v-7.75q0-.75-.5-1.25T24 16.1q-.75 0-1.25.5t-.5 1.25v7.75l-2.4-2.5q-.55-.5-1.225-.525-.675-.025-1.225.525t-.55 1.25q0 .7.55 1.25z"/></svg>