<svg xmlns="http://www.w3.org/2000/svg" width="48" height="48" viewBox="0 96 960 960"><path d="m773.13 433.435-47.521-108.478L613.13 275l112.479-48.957 47.521-103.478 46.392 103.478L932.001 275l-112.479 49.957-46.392 108.478Zm110.349 612.655L37.912 200.521l46.522-45.957L293 363.13l42.826-89.957 98.087 206.74L644.088 575l-95.392 43.261L735.565 805.13l37.565-88.565 46.392 109.478L932.001 875l-89.131 38.565 87.131 86.001-46.522 46.524ZM335.826 877.827l-97.087-207.74L26.999 575l206.74-93.087 196.174 195.609-94.087 200.305Z"/></svg>