<svg xmlns="http://www.w3.org/2000/svg" width="48" height="48" viewBox="0 -960 960 960"><path d="M397.7-548.61h-46.4q-11.47 0-19.43-8.08-7.96-8.07-7.96-19.26 0-11.18 7.96-19.31 7.96-8.13 19.43-8.13h147q11.47 0 19.43 8.08 7.97 8.07 7.97 19.26 0 11.18-7.97 19.31-7.96 8.13-19.43 8.13h-46.39v165.18q0 11.22-7.78 19.02-7.78 7.8-18.98 7.8-11.19 0-19.32-7.96T397.7-384v-164.61Zm-273.09 115v50.18q0 11.22-7.78 19.02-7.79 7.8-18.98 7.8-11.2 0-19.33-7.96-8.13-7.96-8.13-19.43v-182q0-16.92 10.24-27.16 10.23-10.23 27.15-10.23h139q16.68 0 26.76 10.23 10.07 10.24 10.07 27.16v182.57q0 11.22-7.78 19.02-7.79 7.8-18.98 7.8-11.2 0-19.33-7.96-8.13-7.96-8.13-19.43v-49.61H124.61Zm0-54.78h104.78v-60.22H124.61v60.22Zm499.78-60.22v165.18q0 11.22-7.89 19.02-7.9 7.8-19.26 7.8-11.37 0-19.22-7.96T570.17-384v-182q0-16.92 10.08-27.16 10.07-10.23 26.75-10.23h245.22q16.92 0 27.15 10.23 10.24 10.24 10.24 27.16v182.57q0 11.22-7.78 19.02-7.79 7.8-18.98 7.8-11.2 0-19.33-7.96-8.13-7.96-8.13-19.43v-164.61H757v123.18q0 11.22-7.78 19.02-7.78 7.8-18.98 7.8t-19.33-7.96q-8.13-7.96-8.13-19.43v-122.61h-78.39Z"/></svg>