<svg xmlns="http://www.w3.org/2000/svg" width="48" height="48" viewBox="0 96 960 960"><path d="M795.391 994.653q-59.956 0-100.782-42.826-40.827-42.826-40.827-102.783v-224q0-35.849 25.347-61.316 25.347-25.467 62.022-25.467 35.675 0 60.371 25.467 24.696 25.467 24.696 61.316v196.547q0 14.743-9.075 24.098-9.076 9.355-23.761 9.355-14.686 0-24.034-9.475Q760 836.094 760 821.652V622.044q0-11-4.5-19.5t-14.5-8.5q-10 0-15.5 8.5t-5.5 19.5v229q0 34.795 20.778 60.593 20.778 25.798 54.543 25.798 31.766 0 51.331-24.63 19.566-24.631 19.566-57.761v-167q0-14.682 9.475-24.037 9.475-9.355 23.916-9.355 14.922 0 24.157 9.476 9.235 9.475 9.235 23.916v167q0 57.957-39.827 98.783-39.826 40.826-97.783 40.826ZM109.218 830.131q-32.914 0-57.566-23.856-24.653-23.855-24.653-55.362V241.087q0-31.74 23.356-55.762 23.356-24.021 55.863-24.021h669.825q31.74 0 55.762 24.021 24.022 24.022 24.022 55.762v267.174H731q-46.576 0-76.897 34.976-30.321 34.976-30.321 81.772v205.122H109.218Zm332.195-307.304q6.413 0 11.379-1.283 4.966-1.282 9.991-4.413l298.89-194.31q6.24-3.603 10.305-9.846 4.065-6.244 4.065-15.148 0-18.07-15.326-27.144-15.326-9.074-32.152.622L441.13 454.087 153.696 274.305q-15.695-8.131-31.587-1.824-15.891 6.306-15.891 25.073 0 8.403 4.454 14.96 4.453 6.556 10.372 10.27l298.999 194.347q5.025 3.131 9.991 4.413 4.966 1.283 11.379 1.283Z"/></svg>