<svg xmlns="http://www.w3.org/2000/svg" width="48" height="48" viewBox="0 -960 960 960"><path d="M256.478-105.869q-33.49 0-56.637-22.981-23.147-22.98-23.147-56.237v-560.391q-16.956 0-28.283-11.502-11.326-11.501-11.326-28.283 0-16.781 11.451-28.107 11.452-11.326 28.158-11.326h160.697q0-16.957 11.451-28.566 11.451-11.609 28.158-11.609h187.435q16.706 0 28.158 11.769 11.451 11.77 11.451 28.406H764.74q16.707 0 28.158 11.501 11.452 11.502 11.452 28.283 0 16.782-11.452 28.108-11.451 11.326-28.158 11.326v141.869q0 18.522-14.522 28.565-14.522 10.044-32.478 5.783-11.696-2-23.058-2.783-11.363-.782-22.16-.782-21.246 0-41.493 3.5-20.246 3.5-40.116 9.369v-70.521q0-14.29-10.311-24.406Q570.29-665 555.71-665q-15.145 0-25.058 10.116t-9.913 24.406v102.119q-31.869 20.229-56.956 47.533-25.087 27.304-42.087 60.608v-210.26q0-14.29-10.198-24.406T386.889-665q-14.976 0-24.889 10.116-9.913 10.116-9.913 24.406v329.391q0 14.855 10.115 24.971Q372.318-266 387.174-266h2q1.435 29.565 10.435 56.63 9 27.066 23 53.631 8.695 16.957-.653 33.413-9.349 16.457-27 16.457H256.478Zm412.638 32.522q-89.681 0-152.312-63.097-62.63-63.097-62.63-153.44 0-89.681 62.848-152.594t152.391-62.913q89.958 0 153.382 62.945 63.423 62.946 63.423 152.674 0 90.143-63.379 153.284-63.38 63.14-153.723 63.14Zm22.406-224.889v-91.199q0-9.243-6.888-16.035-6.889-6.791-16.261-6.791-9.373 0-16.503 6.791-7.131 6.792-7.131 16.035v94.305q0 7.26 2.848 14.174 2.848 6.913 8.978 13.043l61.597 61.597q6.838 6.838 15.968 6.838 9.131 0 15.979-7.131 6.848-7.13 7.13-16.261.283-9.13-6.848-16.282l-58.869-59.084Z"/></svg>