<svg xmlns="http://www.w3.org/2000/svg" width="48" height="48" viewBox="0 96 960 960"><path d="m136.65 409.957-53.087-24.261q-6.13-2.566-6.13-9.696t6.13-9.696l53.087-24.826 24.261-53.087q3.131-5.565 9.979-5.565 6.848 0 9.413 5.565l24.826 53.087 53.087 24.826q6.131 2.566 6.131 9.696t-6.131 9.696l-53.087 24.261-24.826 53.087q-2.565 6.13-9.413 6.13-6.848 0-9.979-6.13l-24.261-53.087Zm577.655-118.436-25.087-10.696q-6.131-3.131-6.131-10.261 0-7.131 6.131-10.261l25.087-11.261 11.261-25.087q2.565-5.566 9.978-5.566t10.544 5.566l10.696 25.087 25.087 11.261q6.13 3.13 6.13 10.261 0 7.13-6.13 10.261l-25.087 10.696-10.696 25.087q-3.131 6.13-10.544 6.13t-9.978-6.13l-11.261-25.087Zm93.566 185.436-25.087-10.696q-6.131-3.131-6.131-10.261 0-7.13 6.131-10.261l25.087-11.261 10.696-25.087q3.13-5.565 10.261-5.565 7.13 0 10.261 5.565l11.261 25.087 25.087 11.261q5.565 3.131 5.565 10.261 0 7.13-5.565 10.261l-25.087 10.696-11.261 25.087q-3.131 6.13-10.261 6.13-7.131 0-10.261-6.13l-10.696-25.087ZM480 692.218q-49.783 0-83.305-35.522-33.522-35.522-33.522-86.305V322.218q0-48.218 34.022-82.023 34.022-33.804 82.805-33.804 48.783 0 83.088 33.804 34.304 33.805 34.304 82.023v248.173q0 50.783-33.804 86.305-33.805 35.522-83.588 35.522Zm0-242.696ZM480 613q16.87 0 27.239-12.37 10.37-12.369 10.37-30.239V322.218q0-15.305-11.153-25.957-11.152-10.652-26.456-10.652t-26.456 10.652q-11.153 10.652-11.153 25.957v248.173q0 17.87 10.37 30.239Q463.13 613 480 613Zm0 389q-15.261 0-25.739-10.477-10.479-10.478-10.479-26.305V864.306q-103.652-11-176.544-82.175-72.891-71.174-86.152-171.261-2-15.826 9.196-28.152 11.195-12.327 29.152-12.327 12.131 0 21.826 8.848 9.696 8.848 12.261 22.109 12.131 83.261 76.392 138.174Q394.174 794.435 480 794.435t150.087-54.913q64.261-54.913 76.392-138.174 2.565-13.261 12.195-22.109 9.631-8.848 22.892-8.848 17.391 0 28.37 12.327 10.978 12.326 8.978 28.152-13.261 100.087-86.152 171.261-72.892 71.175-176.544 82.175v100.912q0 15.827-10.479 26.305Q495.261 1002 480 1002Z"/></svg>