<svg xmlns="http://www.w3.org/2000/svg" width="48" height="48" viewBox="0 -960 960 960"><path d="M609.859-760.391q-20.522 0-34.995-14.614-14.473-14.614-14.473-35.136 0-20.522 14.614-34.995 14.614-14.473 35.136-14.473 20.522 0 34.995 14.614 14.473 14.614 14.473 35.136 0 20.522-14.614 34.995-14.614 14.473-35.136 14.473Zm0 660q-20.522 0-34.995-14.614-14.473-14.614-14.473-35.136 0-20.522 14.614-34.995 14.614-14.473 35.136-14.473 20.522 0 34.995 14.614 14.473 14.614 14.473 35.136 0 20.522-14.614 34.995-14.614 14.473-35.136 14.473Zm160-520q-20.522 0-34.995-14.614-14.473-14.614-14.473-35.136 0-20.522 14.614-34.995 14.614-14.473 35.136-14.473 20.522 0 34.995 14.614 14.473 14.614 14.473 35.136 0 20.522-14.614 34.995-14.614 14.473-35.136 14.473Zm0 380q-20.522 0-34.995-14.614-14.473-14.614-14.473-35.136 0-20.522 14.614-34.995 14.614-14.473 35.136-14.473 20.522 0 34.995 14.614 14.473 14.614 14.473 35.136 0 20.522-14.614 34.995-14.614 14.473-35.136 14.473Zm60-190q-20.522 0-34.995-14.614-14.473-14.614-14.473-35.136 0-20.522 14.614-34.995 14.614-14.473 35.136-14.473 20.522 0 34.995 14.614 14.473 14.614 14.473 35.136 0 20.522-14.614 34.995-14.614 14.473-35.136 14.473ZM71.521-479.929q0-159.767 106-275.745 106-115.978 262.696-131.239 15.826-1 27.805 10.37Q480-865.172 480-848.708q0 15.795-9.642 27.673-9.641 11.878-24.576 14.47-124.652 12.696-209.564 105.59-84.913 92.893-84.913 221.068 0 127.955 84.913 220.865 84.912 92.911 209.564 105.607 14.935 2.606 24.576 14.572Q480-126.897 480-111.13q0 16.32-11.877 27.681-11.877 11.362-27.906 9.797-156.13-14.695-262.413-130.603Q71.521-320.163 71.521-479.929Zm408.39 79.538q-33.164 0-56.342-23.24-23.178-23.241-23.178-56.369 0-4.984.717-10.579.718-5.595 2.152-10.363l-55.608-55.275q-11.826-11.826-11.826-27.5t12.391-28.066q11.826-11.826 27.783-11.326t27.783 11.326l56.532 55.043q5.076-2 19.685-2.869 33.128 0 56.369 23.266 23.24 23.267 23.24 56.432 0 33.164-23.266 56.342-23.267 23.178-56.432 23.178Z"/></svg>