<svg xmlns="http://www.w3.org/2000/svg" width="48" height="48" viewBox="0 -960 960 960"><path d="m480-381 77.391 46.782q11.014 7.261 21.464-1 10.449-8.261 7.884-21.087L566-443l67.956-59.652q10.261-8.696 5.913-20.804-4.348-12.109-17.174-13.674L533-544l-34.478-82.826q-5.111-12.391-18.512-12.391t-18.532 12.391L427-544l-89.695 6.87q-12.826 1.565-17.174 13.674-4.348 12.108 5.913 20.804L394-443l-20.174 86.695q-3.13 12.557 7.366 20.953 10.497 8.395 21.417 1.134L480-381ZM343.902-145.869H225.087q-33.257 0-56.237-22.981-22.981-22.98-22.981-56.237v-118.239l-80.695-81.108q-11.827-11.826-17.24-26.141-5.413-14.314-5.413-29.239 0-14.924 5.413-29.425 5.413-14.501 17.24-26.327l80.695-81.108v-118.239q0-33.49 22.981-56.637 22.98-23.146 56.237-23.146h118.239l81.108-80.13q11.826-11.826 26.737-17.24 14.911-5.413 30.045-5.413 15.135 0 29.351 6.109 14.215 6.109 25.999 17.544l79.695 79.13h118.652q33.49 0 56.637 23.146 23.146 23.147 23.146 56.637v118.239l80.13 81.108q11.826 11.826 17.24 26.05 5.413 14.225 5.413 29.349t-5.413 29.515q-5.414 14.392-17.24 26.218l-80.13 81.108v118.239q0 33.257-23.146 56.237-23.147 22.981-56.637 22.981H616.261l-79.695 78.695q-11.784 11.522-26.109 17.087-14.324 5.566-29.26 5.566-14.935 0-29.399-5.566-14.465-5.565-26.364-17.087l-81.532-78.695Zm32.316-79.218L481-124.305l102.264-100.782h151.649v-152.131L838.26-480 734.913-583.348v-151.565H583.348L481-838.26 377.218-734.913H225.087v151.565L122.305-480l102.782 102.782v152.131h151.131ZM481-481Z"/></svg>