<svg xmlns="http://www.w3.org/2000/svg" width="48" height="48" viewBox="0 -960 960 960"><path d="M424.86-345.739q10.817 10.696 25.174 10.696t25.053-10.696l85.478-84.913 85.913 85.913q10.847 10.696 24.75 10.696 13.902 0 24.316-10.696 10.413-10.696 10.413-25.099t-10.131-25.249L609.913-480l84.913-84.913q10.131-10.846 10.131-24.749 0-13.903-10.413-24.599-10.414-10.696-24.816-10.696-14.403 0-25.25 10.696l-83.913 84.913-86.478-85.913q-10.846-10.696-24.749-10.196-13.903.5-24.599 10.567t-10.696 24.392q0 14.324 10.696 25.02L511.217-480l-86.478 84.913q-9.696 10.846-9.696 25.216 0 14.37 9.817 24.132Zm-60.338 159.87q-26.282 0-48.459-13.295-22.177-13.296-37.803-34.488L136.087-433.695q-14.957-19.379-14.957-45.317t14.957-47.293L278.26-726.348q15.638-22.023 37.809-35.186 22.171-13.162 48.453-13.162h412.087q32.91 0 56.347 23.436 23.436 23.437 23.436 56.347v429.826q0 32.677-23.436 55.948-23.437 23.27-56.347 23.27H364.522ZM202.913-480l150.609 214.913h423.087v-429.826H353.522L202.913-480Zm573.696 0v-214.913 429.826V-480Z"/></svg>