<svg xmlns="http://www.w3.org/2000/svg" width="48" height="48" viewBox="0 -960 960 960"><path d="M805-261q27 14 45.5-9t4.5-48l-71-134-54 147 75 44Zm-212-42h71.13L760-545q6-14 4.5-27.5T748-593l-83-36q-14-7-28 0t-15 21l-29 305Zm-296.565 0H366l-28-305q-1-15-13.5-22t-29.5 1l-79 34q-13 5-14.5 22.5T205-541l91.435 238ZM155-261l75-44-54-147-71 139q-14 28 6 45.5t44 6.5Zm271-42h107l33-364q2-14-7.5-23.5T535-700H425q-16 0-24 9.5t-7 23.5l32 364ZM133-186.999q-44.653 0-75.327-31.674Q27-250.348 27-295q0-13.696 4.5-26.609 4.5-12.913 10.63-25.609l90.305-173.912q-15-42.957-.456-84.566 14.543-41.609 54.5-58.739l83-34q16-6 32.5-7.283 16.5-1.283 31.065 7.152 5.739-33.696 32-54.065 26.261-20.37 59.957-20.37h110q33.696 0 59.957 18.87 26.261 18.869 32 51.565 15-5.435 31.282-4.152 16.283 1.283 31.283 8.283l84 34q40.391 15.695 55.718 56.522 15.326 40.826-.544 80.783l89.174 178.912q4.565 12.131 9.848 24.327 5.283 12.195 5.283 24.891 0 47.087-33.674 79.544-33.675 32.457-81.327 32.457-12.13 0-23.326-4.783t-22.326-9.348l-58.739-28.869H245.391l-55.173 28.869q-13.696 5.565-27.892 9.848T133-186.999ZM480-480Z"/></svg>