<svg xmlns="http://www.w3.org/2000/svg" width="48" height="48" viewBox="0 -960 960 960"><path d="M266.999-37.606q-36.688 0-63.148-26.327-26.461-26.326-26.461-63.283v-426.566q0-36.957 26.461-63.283 26.46-26.326 63.148-26.326h426.002q37.486 0 63.83 26.326t26.344 63.283v426.566q0 36.957-26.344 63.283-26.344 26.327-63.83 26.327H266.999Zm180.74-130.436v11.39q0 13.871 9.065 23.219 9.066 9.348 23.196 9.348t23.478-9.414q9.348-9.414 9.348-23.224v-11.319h-65.087Zm0-32.826h65.087q0-30.696 16.348-55.326 16.348-24.631 37.044-49.327 20.266-24.182 36.546-50.191 16.28-26.009 16.28-58.219 0-57.895-40.064-98.438-40.064-40.544-98.98-40.544-57.957 0-98.5 40.681-40.544 40.681-40.544 98.363 0 32.179 16.532 58.162 16.532 25.983 36.761 50.139 20.229 24.743 36.86 49.374 16.63 24.63 16.63 55.326ZM224.173-713.391q0-29.783 16.326-46.392 16.327-16.609 46.11-16.609h386.782q29.783 0 46.392 16.609t16.609 46.392H224.173Zm46.218-133.001q0-29.218 16.609-46.109 16.609-16.892 46.391-16.892h293.218q29.782 0 46.391 16.892 16.609 16.891 16.609 46.109H270.391Z"/></svg>