<svg xmlns="http://www.w3.org/2000/svg" width="48" height="48" viewBox="0 0 48 48"><path d="M7.25 44.7q-1.6 0-2.775-1.175Q3.3 42.35 3.3 40.75v-25.5q0-1.65 1.175-2.825Q5.65 11.25 7.25 11.25h6.35v4H7.25v25.5h33.5v-25.5H34.4v-4h6.35q1.65 0 2.825 1.175Q44.75 13.6 44.75 15.25v25.5q0 1.6-1.175 2.775Q42.4 44.7 40.75 44.7ZM13 31.75q-1.15 0-1.95-.8t-.8-1.95q0-1.15.8-1.95t1.95-.8q1.15 0 1.95.8t.8 1.95q0 1.15-.8 1.95t-1.95.8Zm-2.75 6v-1q0-1.45 1-2.475 1-1.025 2.45-1.025.7 0 1.4.3t1.1.8l2.25 2.6q.2.2.375.4t.425.4Zm8-6v-1.1q0-1.5 1.6-2.45 1.6-.95 4.15-.95 2.55 0 4.15.95 1.6.95 1.6 2.45v1.1Zm19.5 6h-9q.25-.2.425-.375t.375-.425l2.25-2.6q.4-.4 1.15-.75.75-.35 1.35-.35 1.45 0 2.45 1.025 1 1.025 1 2.475ZM24 25.75q-1.15 0-1.95-.8t-.8-1.95q0-1.15.8-1.95t1.95-.8q1.15 0 1.95.8t.8 1.95q0 1.15-.8 1.95t-1.95.8Zm11 6q-1.15 0-1.95-.8t-.8-1.95q0-1.15.8-1.95t1.95-.8q1.15 0 1.95.8t.8 1.95q0 1.15-.8 1.95t-1.95.8ZM15.5 9.95q-1.05-1.2-1.65-2.65-.6-1.45-.6-2.85v-.525q0-.275.05-.525.05-.6.425-.975t1.025-.375q.55 0 .95.4.4.4.35.95-.05.3-.075.55-.025.25-.025.5 0 .95.4 1.875T17.6 8.25q1.15 1.4 1.675 2.6.525 1.2.525 2.3 0 .15-.025.325-.025.175-.025.375-.05.6-.4 1-.35.4-.95.4t-1.025-.375q-.425-.375-.325-.925.05-.3.05-.8 0-.75-.35-1.5t-1.25-1.7Zm5.8 0q-1.05-1.2-1.65-2.65-.6-1.45-.6-2.85v-.525q0-.275.05-.525.1-.6.475-.975t.925-.375q.55 0 .975.4.425.4.325.95v1.05q0 .95.35 1.875t1.2 1.925q1.15 1.4 1.7 2.6.55 1.2.55 2.3 0 .2-.025.375t-.025.375q-.1.55-.45.95-.35.4-.9.4-.6 0-1-.375t-.35-.975q.05-.25.05-.75 0-.7-.375-1.475Q22.15 10.9 21.3 9.95Zm6.05 0Q26.3 8.75 25.7 7.3q-.6-1.45-.6-2.85 0-.25.025-.525T25.2 3.4q.05-.6.45-.975t.9-.375q.6 0 1 .4t.35.95q-.05.3-.05.55v.5q0 .95.375 1.875T29.4 8.25q1.15 1.4 1.7 2.575.55 1.175.55 2.325 0 .15-.025.325-.025.175-.025.375-.05.55-.425.975-.375.425-.925.425-.6 0-1.025-.375-.425-.375-.325-.925.05-.3.05-.8 0-.75-.375-1.5t-1.225-1.7Z"/></svg>