<svg xmlns="http://www.w3.org/2000/svg" width="48" height="48" viewBox="0 -960 960 960"><path d="M302.652-65.869q-17.272 0-28.723-11.451-11.452-11.451-11.452-28.158v-685.044q0-16.707 11.452-28.441 11.451-11.733 28.723-11.733h87.739v-23.826q0-16.707 11.451-28.441 11.451-11.733 28.158-11.733h100q16.707 0 28.158 11.733 11.451 11.734 11.451 28.441v23.826h88.304q16.707 0 28.158 11.733 11.452 11.734 11.452 28.441v685.044q0 16.707-11.452 28.158-11.451 11.45-28.158 11.45H302.652Zm143.957-348.74v56.837q0 13.87 9.41 23.626 9.41 9.755 24.156 9.755 14.747 0 23.982-9.36 9.234-9.359 9.234-24.031v-56.827h56.837q13.87 0 23.626-9.41 9.755-9.41 9.755-24.156 0-14.747-9.36-23.982-9.359-9.234-24.031-9.234h-56.827v-56.837q0-13.87-9.41-23.626-9.41-9.755-24.156-9.755-14.747 0-23.982 9.36-9.234 9.359-9.234 24.031v56.827h-56.837q-13.87 0-23.626 9.41-9.755 9.41-9.755 24.156 0 14.747 9.36 23.982 9.359 9.234 24.031 9.234h56.827Z"/></svg>