<svg xmlns="http://www.w3.org/2000/svg" width="48" height="48" viewBox="0 -960 960 960"><path d="m770.435-140.26-240-240 59.566-60.697 240 240.566q12.826 12.826 12.826 29.782 0 16.957-12.826 29.783-12.827 12.827-29.783 13.109-16.957.283-29.783-12.543Zm-585.001-61.349q-43.391-58.521-64.587-124.478-21.196-65.957-21.196-132.914 0-80.826 29.848-156.522 29.848-75.695 89.978-135.826 60.131-60.13 135.761-89.413 75.631-29.283 155.892-29.283 66.957 0 132.979 20.696 66.021 20.696 124.543 63.522 15.827 11.696 17.109 31.653 1.283 19.956-13.543 34.783L250.87-198.043q-14.827 14.826-34.001 13.543-19.174-1.282-31.435-17.109Zm37.044-81.74 67.87-67.739q-16-22-31.435-46.369-15.435-24.37-28.087-51.457t-21.087-56.456q-8.435-29.37-10.869-60.239Q173-493.87 180.652-420.262q7.652 73.609 41.826 136.913Zm115.304-113.304 236.391-237.826q-44.304-33.739-89.826-53.391-45.521-19.652-86.26-26.435-40.739-6.782-73.392-.847-32.652 5.934-50.652 23.934-18 18.566-22.717 50.37-4.717 31.804 3.065 71.608 7.783 39.805 28.718 84.044 20.934 44.239 54.673 88.543Zm351.13-351.695q-63.739-39.174-137.847-45.043-74.109-5.87-146.413 21.434 29.435 3 57.804 11.435 28.37 8.435 55.456 20.37 27.087 11.934 52.457 27.369 25.369 15.435 48.804 32.304l69.739-67.869Z"/></svg>