<svg xmlns="http://www.w3.org/2000/svg" width="48" height="48" viewBox="0 96 960 960"><path d="M301.001 717.218h357.998V749q0 13.528 9.272 22.373 9.273 8.845 22.522 8.845 13.25 0 22.229-8.845Q722 762.528 722 749V610q0-29-18-51t-46-27v-72q0-32.024-21.597-53.621t-53.621-21.597H377.218q-32.024 0-53.621 21.597T302 460v72q-28 5-46 27t-18 51v139q0 13.528 8.848 22.373t22.381 8.845q13.25 0 22.511-8.845T301.001 749v-31.782Zm64-188.218v-81.782h229.998V529H365.001Zm-64 125.782V610q0-14 9-23t23-9h293.998q14 0 23 9t9 23v44.782H301.001ZM145.087 990.131q-32.507 0-55.862-23.356-23.356-23.355-23.356-55.862V241.087q0-32.74 23.356-56.262 23.355-23.521 55.862-23.521h669.826q32.74 0 56.262 23.521 23.521 23.522 23.521 56.262v669.826q0 32.507-23.521 55.862-23.522 23.356-56.262 23.356H145.087Zm0-79.218h669.826V241.087H145.087v669.826Zm0 0V241.087v669.826Z"/></svg>