<svg xmlns="http://www.w3.org/2000/svg" width="48" height="48" viewBox="0 96 960 960"><path d="m446.174 431.304-78-78q-.565-18.348 2.587-46.978 3.152-28.63 8.021-49.978-19.043 6.87-39.021 17.109t-32.456 18.413l-57.566-57.001q34.131-24 77.173-41.733 43.042-17.733 90.436-25.267 29.957-5 44.218 14.109 14.261 19.109 3.565 51.631-16.565 50.565-21.196 102.978-4.63 52.413 2.239 94.717Zm412.479 591.526L734.87 899.044q-51.565 40.826-118.772 66.805-67.206 25.978-137.228 25.978-88.629 0-164.684-31.848-76.056-31.848-131.603-87.548-55.547-55.7-86.978-131.516-31.432-75.816-31.432-164.738 0-70.568 23.896-134.841 23.896-64.273 67.322-122.337l-94.218-93.652q-9.696-9.696-9.696-22.544t9.426-22.978q9.835-10.131 23.466-10.631 13.63-.5 23.761 9.631l798.045 797.48q9.565 9.565 9.065 23.261-.5 13.694-10.065 23.234-9.565 10.16-23.261 10.16t-23.261-10.13ZM478.665 912.043q52.205 0 104.705-19t96.5-49.565L212.6 376.13q-34.209 40.435-51.709 93.052-17.5 52.616-17.5 106.818 0 145.13 95.045 240.587 95.044 95.456 240.229 95.456ZM384.261 548.87Zm-16.087-195.566Z"/></svg>