<svg xmlns="http://www.w3.org/2000/svg" width="48" height="48" viewBox="0 -960 960 960"><path d="M480-47.087q-12.826 0-24.935-3.847-12.109-3.848-22.935-12.11L177.217-254.086q-14.957-10.826-23.152-27.783-8.196-16.956-8.196-36.043v-501.522q0-31.913 23.37-55.566 23.37-23.652 55.848-23.652h509.826q32.478 0 56.131 23.652 23.652 23.653 23.652 55.566v501.522q0 19.087-8.478 36.043-8.478 16.957-23.435 27.783L527.87-63.043q-10.826 8.26-22.935 12.109-12.109 3.847-24.935 3.847Zm-43-404.826-75.739-76.305q-10.131-9.565-23.544-9.848-13.413-.282-23.543 9.848-10.131 10.131-9.848 23.544.283 13.413 10.413 23.544l95.478 93.912q11.826 11.827 27.783 11.827t27.783-11.827L645.261-566.13q10.13-9.566 9.63-23.261-.5-13.696-10.63-23.827-10.131-9.565-23.544-9.565t-22.978 10.131L437-451.913Z"/></svg>