<svg xmlns="http://www.w3.org/2000/svg" width="48" height="48" viewBox="0 -960 960 960"><path d="M479.758-47.087q-12.584 0-24.607-3.847-12.024-3.848-23.021-12.11L177.217-254.086q-15.012-11.239-23.18-27.933-8.168-16.695-8.168-35.893v-501.522q0-31.913 23.356-55.566 23.355-23.652 55.862-23.652h509.826q32.74 0 56.262 23.652 23.521 23.653 23.521 55.566v501.522q0 19.198-8.318 35.893-8.318 16.694-23.595 27.933L527.87-63.043q-11.121 8.26-23.324 12.109-12.204 3.847-24.788 3.847Zm.242-79.218 254.913-195.992v-497.138H225.087v497.087L480-126.305Zm-43-325.608-75.739-76.305q-10.131-9.565-23.544-9.848-13.413-.282-23.543 9.689-10.131 10.159-9.848 23.637.283 13.479 10.553 23.749l95.338 93.773q11.929 11.827 27.834 11.827 15.906 0 27.732-11.827L645.261-566.13q10.13-9.566 9.63-23.261-.5-13.696-10.239-23.827-10.522-9.565-23.935-9.565-13.413 0-22.978 10.131L437-451.913Zm43-367.522H225.087h509.826H480Z"/></svg>