<svg xmlns="http://www.w3.org/2000/svg" width="48" height="48" viewBox="0 -960 960 960"><path d="M750.957-105.869h-565.87q-32.507 0-55.862-23.356-23.356-23.355-23.356-55.862v-565.87L30.26-827.13q-10.13-9.764-10.13-23.188 0-13.425 9.972-23.162 9.408-9.738 22.979-9.738 13.57 0 23.64 10.07L878.149-71.722q10.07 10.07 10.07 23.483t-10.032 23.261q-10.032 9.848-23.205 9.848-13.172 0-22.851-9.565l-81.173-81.174ZM365.13-470.043 185.087-290v104.913h485.086l-120.13-120.695q-6.869 1.739-14.673-.044-7.805-1.783-13.109-7.652L365.13-470.043Zm-180.043-201.13v287.129l143.565-143.565-143.565-143.564Zm669.609-103.74v511q0 20.087-12.401 30.13-12.401 10.044-27.283 10.044-14.882 0-27.49-9.944-12.609-9.944-12.609-29.665V-525.26L665.522-416.435q-10.131 10.131-23.616 9.913-13.485-.217-23.471-10.348-10.131-10.13-10.131-23.26 0-13.131 10.253-23.391l156.356-156.504v-154.888H262.348q-19.804 0-29.707-12.401-9.902-12.401-9.902-27.283 0-14.882 9.902-27.491 9.903-12.608 29.707-12.608h512.565q32.74 0 56.262 23.521 23.521 23.522 23.521 56.262ZM440.478-415.348ZM328.652-527.609Zm25.478 68.566Zm163.305-58.392Z"/></svg>