<svg xmlns="http://www.w3.org/2000/svg" width="48" height="48" viewBox="0 96 960 960"><path d="M230 942.218q-15.011 0-25.614-10.654-10.604-10.654-10.604-25.739 0-15.086 10.604-25.564 10.603-10.479 25.614-10.479h171.782v-91.564h-15q-82.13-2.261-137.565-59.674Q193.782 661.13 193.782 579q0-58.925 31.805-107.484 31.804-48.559 87.847-72.386 2.87-39.13 32.956-67.674 30.087-28.543 70.087-30.065l-8.173-23.087q-3.305-14.826 2.812-27.49 6.117-12.665 20.84-19.554l11.304-5-1-3.434q-1.739-15.696 4.457-28.979 6.196-13.282 21.326-18.848 15.696-6.13 29.609.152 13.913 6.283 23.174 19.153l2 4 12-4q15.392-3.87 28.153 4.174 12.761 8.043 18.326 19.609l94.261 245.217q5 13.131-.5 28.087-5.5 14.957-20.326 22.218l-13.435 5 1.435 3.435q4.869 14.261-2.044 27.261t-21.044 18.565q-16.826 6.131-30.456.631-13.631-5.5-23.457-19.5l-2-2.87-15 5q-16.214 4.435-28.954-2.029-12.74-6.464-17.525-19.493l-11.608-30.956q-13.304 13.609-30.978 19.696-17.674 6.086-37.848 5.652-26.261.13-52.022-14.587-25.761-14.718-38.891-38.848-32.348 16.435-48.522 45.695-16.173 29.261-16.173 62.739 0 53.174 36.804 89.978 36.804 36.804 89.978 36.804h317q15.011 0 25.614 10.654 10.604 10.654 10.604 25.739 0 15.086-10.604 25.564-10.603 10.479-25.614 10.479H514.218v91.564H730q15.011 0 25.614 10.654 10.604 10.654 10.604 25.739 0 15.086-10.604 25.564-10.603 10.479-25.614 10.479H230ZM556 484l53-19-80-206-53 19 80 206Zm-130.175-23Q447 461 461.5 446.675q14.5-14.324 14.5-35.5Q476 390 461.675 375.5q-14.324-14.5-35.5-14.5Q405 361 390.5 375.325q-14.5 14.324-14.5 35.5Q376 432 390.325 446.5q14.324 14.5 35.5 14.5ZM556 484Zm-130-75Zm2 0Z"/></svg>