<svg xmlns="http://www.w3.org/2000/svg" width="48" height="48" viewBox="0 -960 960 960"><path d="M215.13-145.09h531.3l-62.13-87.47h-45.65v2.52q-3.39 10.49-12.58 16.85-9.19 6.36-21.66 6.36-11.71 0-21-6.36-9.28-6.36-13.24-16.85v-2.52H277.26l-62.13 87.47ZM644.3-561.17h102.13l-62.13-87.48h-40v87.48ZM188.61-814.91q-18.99 0-31.26 12.43-12.26 12.43-12.26 30.81v43.23h669.82v-43.2q0-18.36-12.26-30.82-12.27-12.45-31.26-12.45H188.61Zm-43.52 86.47h669.82-669.82ZM644.3-352.35h102.13l-62.13-87.48h-40v87.48Zm-429.17 0h349.39v-87.48H277.26l-62.13 87.48Zm0-208.82h349.39v-87.48H277.26l-62.13 87.48Zm10.96 495.3q-33.26 0-56.24-22.98-22.98-22.98-22.98-56.24v-503.56h-41.39q-16.71 0-28.16-11.45t-11.45-28.73v-83.13q0-51.14 35.8-86.94t86.94-35.8h582.78q51.38 0 87.34 35.8 35.97 35.8 35.97 86.94v83.13q0 17.28-11.77 28.73t-28.41 11.45H814.7v503.56q0 33.26-23.15 56.24-23.15 22.98-56.64 22.98H226.09Z"/></svg>