<svg xmlns="http://www.w3.org/2000/svg" width="48" height="48" viewBox="0 -960 960 960"><path d="M252.522-316.826q23.333 0 39.667-15.75 16.333-15.75 16.333-38.25 0-23.334-16.265-39.667-16.264-16.333-39.5-16.333-23.235 0-38.735 16.264-15.5 16.265-15.5 39.5 0 23.236 15.75 38.736 15.75 15.5 38.25 15.5Zm385.913 0q23.333 0 39.666-15.75 16.334-15.75 16.334-38.25 0-23.334-16.265-39.667-16.265-16.333-39.5-16.333t-38.735 16.264q-15.5 16.265-15.5 39.5 0 23.236 15.75 38.736 15.75 15.5 38.25 15.5ZM166.826-189.869v36.652q0 19.728-13.878 33.538-13.879 13.81-33.705 13.81-20.156 0-33.917-13.927-13.761-13.928-13.761-33.986v-315.653q0-6.551.782-12.536.783-5.986 3.348-12.681l77.87-226.044q7.695-23.874 28.25-38.937 20.555-15.063 46.272-15.063h338q16.706 0 28.158 11.833 11.451 11.834 11.451 28.566t-11.451 28.058q-11.452 11.326-28.158 11.326H227.668L174.913-534h400.783q12.75 0 21.375 8.675 8.625 8.676 8.625 21.5 0 12.825-8.625 21.325t-21.375 8.5H150.783v204.913h589.826v-165.304q0-16.707 11.501-28.158Q763.612-474 780.344-474q16.731 0 28.39 11.451 11.658 11.451 11.658 28.158v281.174q0 19.728-14.004 33.538-14.005 13.81-34.012 13.81-19.724 0-33.767-13.927-14.044-13.928-14.044-33.986v-36.087H166.826Zm590.087-538.61L656.044-829.348q-5-5.206-4.5-11.733.5-6.528 5.5-11.528 5-5 11.528-5 6.527 0 11.733 5l82.608 83.608V-892.13q0-13.392 12.609-19.305t21.87 4.348l78.217 79.652q5.565 5.766 5.565 14.492 0 8.725-6.13 14.856l-71.043 69.608 71.608 71.609q5.565 5.869 5.565 14.261 0 8.391-5.565 14.522l-78.217 77.652q-9.261 9.261-21.87 4.588-12.609-4.672-12.609-17.98v-124.13l-83.608 83.609q-5.206 5-11.233 4.5-6.028-.5-11.028-5.5-5-5-5-11.528 0-6.528 5-11.733l99.869-99.87Zm44.957-52.522 34.043-31.478-34.043-33.478v64.956Zm0 172 34.043-33.478-34.043-33.478v66.956ZM150.783-474v204.913V-474Z"/></svg>