<svg xmlns="http://www.w3.org/2000/svg" width="48" height="48" viewBox="0 -960 960 960"><path d="M446.609-400.652 279.261-232.739q-10.131 10.13-22.978 10.13-12.848 0-23.544-10.13-10.13-10.696-10.13-23.544 0-12.847 10.13-23.543l175-175L78.131-785q-9.566-9-9.566-20.717 0-11.718 9.566-21.283 9-9 20.717-9 11.717 0 21.282 9l711.957 712.522q9 9 9.283 21 .282 12-9.283 21-9 9-21 9t-21-9L626.826-235.739l-112.26 111.695q-6.131 6.696-13.892 9.261-7.761 2.565-14.456 2.565-14.392 0-27.001-10.261-12.608-10.261-12.608-28.783v-249.39Zm66.782 182.739 64.348-64.348-64.348-64.348v128.696Zm25.435-273.826-47.087-48.087L605.478-652l-92.087-90.652v223.913l-66.782-66.218v-223.781q0-18.522 12.608-29.066 12.609-10.544 27.001-10.544 6.695 0 14.456 2.848 7.761 2.848 13.892 9.544l156.173 155.608q5.565 6.13 8.978 13.391 3.413 7.261 3.413 14.957 0 7.696-3.413 14.957-3.413 7.261-8.978 13.391L538.826-491.739Z"/></svg>