<svg xmlns="http://www.w3.org/2000/svg" width="48" height="48" viewBox="0 -960 960 960"><path d="M156.74-443.46Q141.39-458.3 141.39-480t15.35-37.54q15.35-15.85 37.04-15.85 21.7 0 36.76 15.85 15.07 15.84 15.07 37.54t-15.07 36.54q-15.06 14.85-36.76 14.85-21.69 0-37.04-14.85Zm572.72 0Q714.39-458.3 714.39-480t15.07-37.54q15.06-15.85 36.76-15.85 21.69 0 37.04 15.85 15.35 15.84 15.35 37.54t-15.35 36.54q-15.35 14.85-37.04 14.85-21.7 0-36.76-14.85Zm-282.85 292.2v-249.39L279.26-232.74q-10.13 10.13-22.98 10.13t-23.54-10.13q-10.13-10.69-10.13-23.54t10.13-23.55L433.48-480 232.74-680.74q-10.13-10.13-10.13-23.26t10.13-23.26q10.13-10.13 23.26-10.13t23.26 10.13l167.35 167.35v-248.83q0-18.52 12.61-29.06 12.61-10.55 27-10.55 6.69 0 14.45 2.85 7.77 2.85 13.9 9.54l156.17 155.61q5.56 6.13 8.98 13.39 3.41 7.26 3.41 14.96 0 7.7-3.41 14.96-3.42 7.26-8.98 13.39L526.52-480l144.22 143.65q5.56 6.13 8.98 13.39 3.41 7.26 3.41 14.96 0 7.7-3.41 14.96-3.42 7.26-8.98 13.39L514.57-124.04q-6.13 6.69-13.9 9.26-7.76 2.56-14.45 2.56-14.39 0-27-10.26t-12.61-28.78Zm66.78-408.65L605.48-652l-92.09-90.65v182.74Zm0 342L605.48-308l-92.09-92.65v182.74Z"/></svg>