<svg xmlns="http://www.w3.org/2000/svg" width="48" height="48" viewBox="0 0 48 48"><path d="M14.3 34.5q-.8 0-1.375-.575T12.35 32.5q0-.85.575-1.425.575-.575 1.375-.575h8.35q-.95-.95-1.525-2.075Q20.55 27.3 20.4 26h-9.6q-.8 0-1.375-.575T8.85 24q0-.85.575-1.425Q10 22 10.8 22h9.55q.25-1.3.825-2.425.575-1.125 1.475-2.075H9.8q-.8 0-1.375-.575T7.85 15.5q0-.85.575-1.425Q9 13.5 9.8 13.5h20.85q4.4 0 7.45 3.075T41.15 24q0 4.35-3.05 7.425T30.65 34.5Zm16.35-4q2.75 0 4.625-1.875T37.15 24q0-2.7-1.875-4.6-1.875-1.9-4.625-1.9-2.7 0-4.6 1.875-1.9 1.875-1.9 4.625 0 2.7 1.875 4.6 1.875 1.9 4.625 1.9Zm-21.8 4q-.85 0-1.425-.575-.575-.575-.575-1.425 0-.85.575-1.425Q8 30.5 8.85 30.5q.85 0 1.425.575.575.575.575 1.425 0 .85-.575 1.425-.575.575-1.425.575Z"/></svg>