<svg xmlns="http://www.w3.org/2000/svg" width="48" height="48" viewBox="0 96 960 960"><path d="M225.087 990.131q-32.507 0-55.862-23.356-23.356-23.355-23.356-55.862V241.087q0-32.74 23.356-56.262 23.355-23.521 55.862-23.521h509.826q32.74 0 56.262 23.521 23.521 23.522 23.521 56.262v669.826q0 32.507-23.521 55.862-23.522 23.356-56.262 23.356H225.087Zm0-79.218h509.826V241.087H681.13v230.391q0 12.783-9.826 18.5-9.826 5.718-20.087-.413l-67.087-38.478-66.521 38.478q-10.826 6.131-20.652.413-9.827-5.717-9.827-18.5V241.087H225.087v669.826ZM487.13 241.087h194-194Zm-262.043 0h509.826-509.826Z"/></svg>