<svg xmlns="http://www.w3.org/2000/svg" width="48" height="48" viewBox="0 -960 960 960"><path d="M145.087-145.869q-32.478 0-55.848-23.37-23.37-23.37-23.37-55.848v-509.826q0-32.478 23.37-56.131 23.37-23.652 55.848-23.652h236.782q15.391 0 30.565 6.695 15.175 6.696 26.001 17.522L481-747.913h333.913q32.478 0 56.131 23.369 23.652 23.37 23.652 55.849v190.825q-28 0-46.847 4.978-18.848 4.979-42.805 29.501L504.521-145.869H145.087Zm648.175-202.74 72.696 70.261L677.132-88.956Q666.306-78.13 651.414-72q-14.891 6.13-31.413 6.13h1.391q-17.522 0-28.848-11.326t-11.326-28.283v.826q0-15.391 6.413-30.565 6.413-15.174 17.804-26.001L793.262-348.61Zm99.696 43.261-72.262-71.261 32.566-31q11.826-11.826 28-11.609 16.174.217 27.566 11.609l14.13 14.565q12.392 11.826 12.392 28.283t-12.392 28.848l-30 30.565Z"/></svg>