<svg xmlns="http://www.w3.org/2000/svg" width="48" height="48" viewBox="0 -960 960 960"><path d="M318.704-334.131q15.601 0 26.645-10.921 11.043-10.922 11.043-26.427v-410.042q0-15.746-11.1-26.83-11.1-11.084-26.87-11.084-15.77 0-26.531 11.084t-10.761 26.83v410.042q0 15.505 10.987 26.427 10.986 10.921 26.587 10.921ZM240-65.869q-56.218 0-95.174-38.886-38.957-38.886-38.957-94.68v-558.869q0-56.925 39.569-96.658 39.569-39.734 96.258-39.734h337.955q33.49 0 56.637 23.146 23.147 23.147 23.147 56.637v474.564q0 33.257-23.147 56.238t-56.637 22.981H240q-24.935 0-41.902 17.532-16.968 17.533-16.968 42.75 0 25.218 16.979 42.468 16.979 17.25 41.931 17.25h539.395v-635.653q0-15.746 10.986-26.83 10.986-11.083 26.587-11.083 15.601 0 26.645 11.083 11.043 11.084 11.043 26.83v631.696q0 33.257-23.146 56.237-23.147 22.981-56.637 22.981H240Z"/></svg>