<svg xmlns="http://www.w3.org/2000/svg" width="48" height="48" viewBox="0 96 960 960"><path d="M644.522 359.87q-15.431 0-26.107-10.479-10.676-10.478-10.676-26.027 0-15.548 10.676-26.022 10.676-10.473 26.107-10.473h180q15.671 0 26.227 10.473 10.556 10.474 10.556 26.022 0 15.549-10.556 26.027-10.556 10.479-26.227 10.479h-180ZM241.435 933.827q-20.087 9.261-37.827-2.823-17.739-12.084-17.739-33.221V276.087q0-32.74 23.356-56.262 23.355-23.521 55.862-23.521h332.609q-24.131 26.731-37.044 58.409-12.913 31.678-12.913 68.374 0 67.341 42.152 118.018 42.152 50.677 105.022 64.504 20.957 4.826 39.326 4.826 18.37 0 40.457-4.826v392.174q0 21.137-18.022 33.221-18.022 12.084-37.544 2.823l-239.13-102-238.565 102Z"/></svg>