<svg xmlns="http://www.w3.org/2000/svg" width="48" height="48" viewBox="0 -960 960 960"><path d="M360.424-320.565q-16.94 0-28.399-11.5-11.46-11.5-11.46-28.392v-66.575q0-4.968 4-9.751 4-4.782 9-5.217 12-4.261 19.5-14.913 7.5-10.652 7.5-23.087t-7.5-23.087q-7.5-10.652-19.5-14.913-5.565-.435-9.282-4.916-3.718-4.482-3.718-10.084v-66.549q0-16.886 11.46-28.386 11.459-11.5 28.399-11.5h239.152q16.94 0 28.399 11.5 11.46 11.5 11.46 28.392v66.575q0 4.968-4 9.751-4 4.782-9 5.217-12 4.261-19.5 14.913-7.5 10.652-7.5 23.087t7.5 23.087q7.5 10.652 19.5 14.913 5.565.435 9.282 4.916 3.718 4.482 3.718 10.084v66.549q0 16.886-11.46 28.386-11.459 11.5-28.399 11.5H360.424Zm119.576-60q8 0 14-5.718 6-5.717 6-14.282 0-8-6-13.718Q488-420 480-420t-14 5.83q-6 5.831-6 13.605 0 8.565 6 14.282 6 5.718 14 5.718ZM480-460q8 0 14-6t6-14q0-8-6-14t-14-6q-8 0-14 6t-6 14q0 8 6 14t14 6Zm0-80q8 0 14-5.83 6-5.831 6-13.605 0-8.565-6-14.282-6-5.718-14-5.718t-14 5.718q-6 5.717-6 14.282 0 8 6 13.718Q472-540 480-540ZM266.218-27q-32.507 0-55.863-23.355-23.356-23.356-23.356-55.863v-747.564q0-32.507 23.356-55.863t55.863-23.356h427.564q32.507 0 55.863 23.356t23.356 55.863v747.564q0 32.507-23.356 55.863t-55.863 23.356H266.218Zm0-109.218v30h427.564v-30H266.218Zm0-60h427.564v-567.564H266.218v567.564Zm0-627.564h427.564v-30H266.218v30Zm0 0v-30 30Zm0 687.564v30-30Z"/></svg>