<svg xmlns="http://www.w3.org/2000/svg" width="48" height="48" viewBox="0 -960 960 960"><path d="M644.522-696.13q-15.633 0-26.208-10.654t-10.575-26.027q0-15.373 10.575-25.847 10.575-10.473 26.208-10.473h180q15.633 0 26.208 10.543t10.575 26.128q0 15.373-10.575 25.851-10.575 10.479-26.208 10.479h-180ZM480-224.173l-183.565 78.347q-39.609 16.957-75.087-6.554-35.479-23.512-35.479-66.533v-561q0-32.74 23.356-56.262 23.355-23.521 55.862-23.521H508.13q16.707 0 28.158 11.833 11.451 11.834 11.451 28.566t-11.451 28.058q-11.451 11.326-28.158 11.326H265.087v561L480-309.179l214.913 90.266v-287.043q0-16.636 11.501-28.405 11.502-11.769 28.234-11.769t28.39 11.769q11.658 11.769 11.658 28.405v287.043q0 43.021-35.761 66.533-35.761 23.511-75.37 6.554L480-224.173Zm0-555.74H265.087h282.652H480Z"/></svg>