<svg xmlns="http://www.w3.org/2000/svg" width="48" height="48" viewBox="0 -960 960 960"><path d="M145.48-105.87q-16.71 0-28.16-11.5t-11.45-28.28q0-16.78 11.45-28.11 11.45-11.33 28.16-11.33h629.43v-629.43q0-16.71 11.5-28.44 11.51-11.74 28.29-11.74t28.39 11.74q11.61 11.73 11.61 28.44v629.43q0 33.23-23.28 56.23-23.28 22.99-56.51 22.99H145.48Zm397.95-197.65q-23.04-23.14-23.04-56.57t23.13-56.48q23.14-23.04 56.57-23.04t56.48 23.13q23.04 23.14 23.04 56.57t-23.13 56.48q-23.14 23.04-56.57 23.04t-56.48-23.13ZM240.96-479.43q-17.28 0-28.73-11.51-11.45-11.5-11.45-28.56 0-17.07 11.45-28.39 11.45-11.33 28.73-11.33h104.26l-212-212q-11.83-11.62-11.83-27.68 0-16.06 11.88-27.88 11.88-11.83 28.28-11.83 16.41 0 28.23 11.83l211 211.43v-104.26q0-16.71 11.5-28.16t28.57-11.45q17.06 0 28.39 11.45 11.33 11.45 11.33 28.16v200q0 17.27-11.46 28.72-11.45 11.46-28.15 11.46h-200Z"/></svg>