<svg xmlns="http://www.w3.org/2000/svg" width="48" height="48" viewBox="0 -960 960 960"><path d="M282.83-292.83h120q12.18 0 21.09-8.56t8.91-21.22q0-12.65-8.91-21.43-8.91-8.79-21.09-8.79h-120q-12.75 0-21.38 8.96-8.62 8.96-8.62 21.62 0 12.65 8.62 21.04 8.63 8.38 21.38 8.38Zm0-157.17h120q12.18 0 21.09-8.68 8.91-8.67 8.91-21.5 0-12.82-8.91-21.32t-21.09-8.5h-120q-12.75 0-21.38 8.68-8.62 8.67-8.62 21.5 0 12.82 8.62 21.32 8.63 8.5 21.38 8.5Zm373.3-208.83q-8.39 8.91-8.39 21.09v157.51q0 12.85 8.56 21.54t21.22 8.69q12.65 0 21.44-8.69 8.78-8.69 8.78-21.54v-157.51q0-12.18-8.96-21.09t-21.61-8.91q-12.66 0-21.04 8.91Zm-373.3 51.09h120q12.18 0 21.09-8.56t8.91-21.22q0-12.65-8.91-21.44-8.91-8.78-21.09-8.78h-120q-12.75 0-21.38 8.96-8.62 8.96-8.62 21.61 0 12.66 8.62 21.04 8.63 8.39 21.38 8.39ZM137.09-105.87q-32.51 0-55.87-23.35-23.35-23.36-23.35-55.87v-589.82q0-32.74 23.35-56.26 23.36-23.53 55.87-23.53h685.82q32.74 0 56.26 23.53 23.53 23.52 23.53 56.26v589.82q0 32.51-23.53 55.87-23.52 23.35-56.26 23.35H137.09Zm0-79.22h685.82v-589.82H137.09v589.82Zm0 0v-589.82 589.82Zm561.87-116.3q8.78-8.56 8.78-21.22 0-12.65-8.96-21.43-8.96-8.79-21.61-8.79-12.66 0-21.04 8.96-8.39 8.96-8.39 21.62 0 12.65 8.56 21.04 8.56 8.38 21.22 8.38 12.65 0 21.44-8.56Z"/></svg>