<svg xmlns="http://www.w3.org/2000/svg" width="48" height="48" viewBox="0 -960 960 960"><path d="M444.478-667.652 327.522-346.218q-5 15.261 2.848 27.674 7.848 12.414 22.985 12.414 10.309 0 19.061-5.798 8.751-5.798 11.585-15.594l26.478-81.956h140.912l27.478 81.826q2.571 9.748 10.696 15.635 8.124 5.887 17.796 5.887 14.801 0 23.742-12.876 8.94-12.876 3.94-27.907L518.087-667.652q-4.186-11.397-14.571-18.394-10.386-6.997-22.516-6.997-12.13 0-22.516 6.997-10.385 6.997-14.006 18.394ZM424.913-463.13l53.211-150H483l54.652 150H424.913Zm-81.128 307.652H234.696q-32.691 0-55.955-23.263-23.263-23.264-23.263-55.955v-108.513l-80.13-81.225Q52.13-447.763 52.13-480.056q0-32.292 23.218-55.51l80.13-81.225v-109.078q0-32.692 23.263-55.955 23.264-23.263 55.955-23.263h108.513l81.225-80.695q23.475-22.653 55.977-22.653 32.502 0 56.155 23.653l79.812 79.695h109.491q32.692 0 55.955 23.263 23.263 23.263 23.263 55.955v109.078l80.695 81.225q22.653 23.329 22.653 55.622 0 32.292-22.653 55.51l-80.695 81.225v108.513q0 32.691-23.263 55.955-23.263 23.263-55.955 23.263H616.378l-79.812 78.13Q513.237-54.13 480.944-54.13q-32.292 0-55.51-23.218l-81.649-78.13Z"/></svg>