<svg xmlns="http://www.w3.org/2000/svg" width="48" height="48" viewBox="0 96 960 960"><path d="M666.043 939.957V733.261q-9.565-6.565-14.782-16.131-5.218-9.565-5.218-21.389 0-19.243 12.631-31.753 12.63-12.51 31.326-12.51 18.786 0 31.654 12.51 12.868 12.51 12.868 31.753 0 11.824-5.283 21.053-5.282 9.228-14.717 16.324v206.839h-48.479ZM74.347 901.652V412.985L400 169.217l273.521 205.348q-27.002 1.925-51.784 8.354-24.782 6.429-48.738 16.951-89.913 34.087-147.174 113.739-57.26 79.652-57.26 182.391 0 53.734 19.282 108.911 19.283 55.176 55.283 96.741H74.347Zm445.392-19.826q-39.565-36.13-61.63-84.38-22.066-48.249-22.066-101.606 0-106.536 73.848-180.449 73.848-73.913 179.828-73.913 106.977 0 180.89 73.867Q944.522 589.213 944.522 696q0 53.13-22.131 101.196-22.13 48.065-61.13 83.63l-33.087-33.087q32.304-29 50.087-68.435Q896.043 739.87 896.043 696q0-85.886-60.05-145.965-60.05-60.078-145.895-60.078-84.837 0-145.207 60.078Q484.522 610.114 484.522 696q0 43.87 17.717 83.304 17.718 39.435 50.587 67.87l-33.087 34.652Zm71-71.435q-25.565-22.13-40.13-51.796Q536.043 728.93 536.043 696q0-64.13 45.198-109.326Q626.438 541.478 690 541.478q64.13 0 109.326 45.196T844.522 696q0 33.696-13.848 63.478-13.848 29.783-39.413 51.913l-35.218-34.217q18.435-15.435 29.218-36.616 10.782-21.181 10.782-44.397 0-44.465-30.796-75.335-30.796-30.869-75.247-30.869-43.304 0-74.391 30.85-31.087 30.851-31.087 75.381 0 23.247 10.717 43.899 10.718 20.652 28.152 36.652l-32.652 33.652Z"/></svg>