<svg xmlns="http://www.w3.org/2000/svg" width="48" height="48" viewBox="0 -960 960 960"><path d="M185.478-814.913q-16.957 0-28.283-11.326t-11.326-28.233q0-16.908 11.326-28.566 11.326-11.658 28.283-11.658h631.131q32.74 0 56.261 23.521 23.522 23.522 23.522 56.262v102.217q0 19.406-12.583 29.507-12.583 10.102-27.283 10.102-14.7 0-27.309-10.544-12.608-10.543-12.608-29.631v-101.651H185.478ZM98.531-215.694q-14.518 0-23.59-9.735t-9.072-23.462v-372.825q0-14.727 9.072-23.962t23.59-9.235h207.111q13.518 0 23.09 9.235t9.572 23.962v372.825q0 13.727-9.572 23.462t-23.09 9.735H98.531Zm567.512 45.868v-187.877q-9.565-6.417-14.782-16.031-5.218-9.614-5.218-21.668 0-19.013 12.631-31.523 12.63-12.51 31.326-12.51 18.899 0 31.711 12.51 12.811 12.51 12.811 31.523 0 12.054-5.283 21.275-5.282 9.22-14.717 16.31v187.991q0 9.715-7.229 16.836-7.229 7.121-17.109 7.121-9.88 0-17.01-7.121-7.131-7.121-7.131-16.836ZM690-500.956q-43.304 0-74.391 30.852-31.087 30.853-31.087 75.191 0 17.681 6.152 33.797 6.152 16.116 17.022 28.986 5.565 7.695 5.782 17.674.218 9.978-5.913 16.826-7.13 6.848-17.167 7.156-10.037.308-16.355-6.874-18-20.565-28-45.565-10-25-10-52 0-64.236 45.141-109.379 45.14-45.143 108.741-45.143 64.205 0 109.401 45.08t45.196 109.226q0 27.593-9.283 52.622-9.282 25.029-26.717 45.594-7.131 8.696-17.731 8.196-10.6-.5-17.8-7.631-7.817-6.421-7.317-16.544.5-10.124 6.065-18.238 10.87-13.834 17.587-30.15 6.717-16.316 6.717-33.633 0-44.338-30.852-75.191-30.853-30.852-75.191-30.852Zm.017-100q-84.715 0-145.105 60.148-60.39 60.148-60.39 146.135 0 37.164 13.313 71.942 13.313 34.779 38.295 61.601 6.566 7.695 7.066 17.891.5 10.196-6.631 17.326-7.13 7.131-17.326 6.631-10.196-.5-17.326-8.196-31.475-34.876-48.673-77.733-17.197-42.857-17.197-89.702 0-106.896 73.782-180.709t179.817-73.813q107.054 0 180.967 73.809 73.913 73.809 73.913 180.699 0 47.005-17.283 90.509-17.282 43.505-48.717 78.07-7.131 7.131-17.044 6.848-9.913-.282-17.043-6.848-6.565-7.13-6.631-16.826-.065-9.696 6.5-17.391 24.87-27.435 38.305-62.206 13.434-34.771 13.434-71.895 0-85.99-60.041-146.14-60.041-60.15-145.985-60.15Zm-557.93 319.044h140v-306.783h-140v306.783Zm0 0h140-140Z"/></svg>