<svg xmlns="http://www.w3.org/2000/svg" width="48" height="48" viewBox="0 -960 960 960"><path d="M154.131-154.348q-33.74 0-56.762-23.021-23.022-23.022-23.022-56.762v-369.086q0-19.087 8.479-35.761 8.478-16.674 24-28.066L352.13-850.739q10.261-8.261 22.551-12.391 12.289-4.131 25.217-4.131 12.928 0 25.32 4.131 12.391 4.13 22.652 12.391l178.042 132.955q13.392 9.696 9.032 26.412-4.359 16.716-21.293 20.024-57 14.957-105.087 48-48.087 33.044-81.956 81.174-28.304 40-43.174 86.055-14.869 46.054-14.869 96.119 0 42.749 11.086 82.548 11.087 39.8 31.826 75.669 8.566 16.087.587 31.761-7.978 15.674-24.935 15.674H154.131Zm535.967-411.695q-84.837 0-145.207 60.152-60.369 60.152-60.369 146.144 0 37.051 13.272 71.315 13.273 34.263 37.24 61.022 6.662 7.888 6.662 18.084T535-192.565q-7.079 7.13-17.083 7.348-10.004.217-16.569-7.479-30.87-34-48.087-76.835-17.218-42.835-17.218-90.469 0-106.787 73.848-180.655 73.848-73.867 179.828-73.867 106.977 0 180.89 73.867Q944.522-466.787 944.522-360q0 46.435-17.217 89.087-17.218 42.652-48.087 76.652-7.131 7.696-16.57 7.478-9.438-.217-16.083-7.347-6.695-6.566-7.261-16.479-.565-9.913 6-17.609 24.87-26.869 37.805-60.891Q896.043-323.13 896.043-360q0-85.886-60.05-145.965-60.05-60.078-145.895-60.078Zm-.098 100q-43.304 0-74.391 30.796-31.087 30.796-31.087 75.247 0 17.138 6.435 33.808 6.434 16.67 17.304 29.54 5.565 8.335 5 17.428-.565 9.094-6.696 16.789-7.13 6.565-16.543 6.848-9.413.283-14.979-6.848-18-20-28.5-44.782-10.5-24.783-10.5-52.783 0-64.13 45.198-109.326Q626.438-514.522 690-514.522q64.13 0 109.326 45.196T844.522-360q0 27-9.136 51.935-9.136 24.935-26.299 44.935-5.565 7.695-16.569 7.695-11.004 0-17.083-7.565-6.696-7.84-6.196-17.681.5-9.841 5.5-18.537 10.383-12.857 15.844-28.648 5.46-15.792 5.46-32.134 0-44.451-30.796-75.247T690-466.043Zm.053 350q-9.749 0-16.879-7.216-7.131-7.215-7.131-16.741v-182.714q-9.565-6.59-14.782-16.156-5.218-9.565-5.218-21.389 0-19.243 12.631-31.753 12.63-12.51 31.326-12.51 18.786 0 31.654 12.51 12.868 12.51 12.868 31.753 0 11.824-5.283 21.138-5.282 9.314-14.717 16.464V-140q0 9.526-7.361 16.741-7.36 7.216-17.108 7.216Z"/></svg>