<svg xmlns="http://www.w3.org/2000/svg" width="48" height="48" viewBox="0 96 960 960"><path d="M439.13 701.087q10.13 10.13 23.261 10.13 13.13 0 23.261-10.13 9.565-9.566 9.565-22.696 0-13.131-9.565-23.261l-92.261-92.129V431.827q0-13.881-9.523-23.353-9.523-9.473-24.043-9.473-14.521 0-23.869 9.473-9.347 9.472-9.347 23.353v124.39q0 16.046 6.695 30.675 6.696 14.63 17.522 25.456l88.304 88.739ZM727 846.621q0-10.385 4.217-19.243 4.218-8.857 11.218-14.553 64.652-42.392 101.499-104.261Q880.782 646.695 880.782 575q0-71.826-36.283-134.195-36.282-62.369-100.934-101.499-7.797-6.415-12.181-15.317Q727 315.088 727 306.523q0-27.218 21.435-37.262 21.435-10.043 42.392 5.044 77.217 49.13 123.195 127.956Q960 481.087 960 574.635q0 92.982-44.978 171.673t-121.63 128.257q-22.391 17.217-44.392 7.804-22-9.413-22-35.748ZM360 935q-75 0-140.5-28.5t-114-77q-48.5-48.5-77-114T0 575q0-75 28.5-140.5t77-114q48.5-48.5 114-77T360 215q75 0 140.5 28.5t114 77q48.5 48.5 77 114T720 575q0 75-28.5 140.5t-77 114q-48.5 48.5-114 77T360 935Z"/></svg>