<svg xmlns="http://www.w3.org/2000/svg" width="48" height="48" viewBox="0 96 960 960"><path d="M737.218 941.61q-19.261 0-37.305-7.631-18.043-7.63-32.174-22.326L437.391 679.87q-21.87 7.435-43.174 11.587t-46.435 4.152q-102.652 0-174.326-71.457-71.674-71.456-71.674-173.543 0-32.131 9.413-65.305 9.413-33.174 24.978-59.739l147.826 147.826 92-86-151.826-151.826q25.435-15 58.957-25.479 33.522-10.478 64.652-10.478 104.088 0 177.262 73.457 73.174 73.456 73.174 177.544 0 22.869-4.152 45.021-4.153 22.152-11.587 45.152l227.783 227.783q14.695 14.696 22.326 33.74 7.63 19.043 7.63 39.304 0 20.826-7.848 39.587-7.847 18.761-23.543 32.457-15.696 13.696-34.022 20.826-18.326 7.131-37.587 7.131Z"/></svg>