<svg xmlns="http://www.w3.org/2000/svg" width="48" height="48" viewBox="0 96 960 960"><path d="m367.913 514.087-81.39-80.478q-10.219 15.434-15.849 34.695-5.631 19.261-5.631 38.392 0 58.229 40.283 98.245 40.283 40.016 98.978 40.016 14 0 27.5-1.935t25.805-6.37L595.26 776.435q10.827 11.391 27.849 11.609 17.021.217 28.848-10.609l24.652-22.087q12.261-11.826 12.543-28.848.283-17.022-11.543-28.848L537.826 558.435q3.304-11.739 6.304-25.022 3-13.283 3-26.717 0-59.131-41.847-100.979-41.848-41.847-100.979-41.847-17.942 0-37.297 6.413-19.355 6.413-34.79 15.978l84.043 82.478-48.347 45.348Zm112.37 476.044q-88.109 0-163.935-31.63-75.827-31.631-131.522-87.327-55.696-55.695-87.327-131.522-31.63-75.826-31.63-163.935 0-87.108 31.496-162.688 31.497-75.579 87.327-131.522 55.829-55.942 131.656-88.073 75.826-32.13 163.935-32.13 87.108 0 162.719 32.057 75.61 32.057 131.576 87.99 55.966 55.933 88.042 131.499T894.696 576q0 87.826-32.13 163.652-32.131 75.827-88.073 131.656-55.943 55.83-131.522 87.327-75.58 31.496-162.688 31.496ZM480 576Zm-.099 334.913q142.838 0 238.925-95.706 96.087-95.706 96.087-239.108 0-143.403-95.989-239.208-95.988-95.804-238.825-95.804-142.838 0-238.925 95.706-96.087 95.706-96.087 239.108 0 143.403 95.989 239.208 95.988 95.804 238.825 95.804Z"/></svg>