<svg xmlns="http://www.w3.org/2000/svg" width="48" height="48" viewBox="0 -960 960 960"><path d="M190-113.782q-15.643 0-25.93-10.288-10.288-10.287-10.288-25.93v-43.782h-10q-15.826 4.522-22.913-5.957-7.087-10.478-7.087-23.777V-350q0-15.643 10.288-25.93 10.287-10.288 25.93-10.288h43.782V-690q0-67.024 48.556-111.621 48.556-44.597 117.522-44.597 65.966 0 111.162 45.097Q516.218-756.024 516.218-690v420q0 35.068 24.379 59.425t59.478 24.357q38.099 0 65.903-23.673 27.804-23.674 27.804-60.109v-303.782H650q-15.643 0-25.93-10.288-10.288-10.287-10.288-25.93v-126.484q0-13.299 7.087-23.777 7.087-10.479 22.913-5.957h10V-810q0-15.643 10.288-25.93 10.287-10.288 25.93-10.288h80q15.643 0 25.93 10.288 10.288 10.287 10.288 25.93v43.782h10q15.826-4.522 22.913 5.957 7.087 10.478 7.087 23.777V-610q0 15.643-10.288 25.93-10.287 10.288-25.93 10.288h-43.782V-270q0 67.024-48.556 111.621-48.556 44.597-117.522 44.597-65.966 0-111.162-45.097Q443.782-203.976 443.782-270v-420q0-35.068-24.379-59.425t-59.478-24.357q-38.099 0-65.903 23.673-27.804 23.674-27.804 60.109v303.782H310q15.643 0 25.93 10.288 10.288 10.287 10.288 25.93v126.484q0 13.299-7.087 23.777-7.087 10.479-22.913 5.957h-10V-150q0 15.643-10.288 25.93-10.287 10.288-25.93 10.288h-80Z"/></svg>