<svg xmlns="http://www.w3.org/2000/svg" width="48" height="48" viewBox="0 96 960 960"><path d="M272.218 776.913h415.564q15.393 0 25.805-10.801Q724 755.31 724 740.13v-32q0-15.392-10.413-25.805-10.412-10.412-25.805-10.412H272.218q-15.393 0-25.805 10.412Q236 692.738 236 708.13v32q0 15.18 10.413 25.982 10.412 10.801 25.805 10.801ZM145.087 910.131q-32.507 0-55.862-23.356-23.356-23.355-23.356-55.862V321.087q0-32.74 23.356-56.262 23.355-23.521 55.862-23.521h669.826q33.49 0 56.637 23.521 23.146 23.522 23.146 56.262v509.826q0 32.507-23.146 55.862-23.147 23.356-56.637 23.356H145.087Zm0-79.218V321.087v509.826Zm0 0h669.826V321.087H145.087v509.826Z"/></svg>