<svg xmlns="http://www.w3.org/2000/svg" width="48" height="48" viewBox="0 -960 960 960"><path d="M773.001-443.782q-15.181 0-25.982-10.429t-10.801-25.845q0-15.417 10.801-25.789 10.801-10.373 25.982-10.373h96.783q15.392 0 25.805 10.429 10.412 10.429 10.412 25.845 0 15.417-10.412 25.789-10.413 10.373-25.805 10.373h-96.783Zm-2.305 274.826-78.652-57.957q-11.696-9.13-14.261-23.783-2.565-14.652 6.848-27.261 9.413-12.261 24.065-14.261 14.653-2 27.261 7.131l78.088 57.957q11.695 9.13 14.261 23.782 2.565 14.653-7.131 26.696-9.13 12.261-23.783 14.544-14.652 2.282-26.696-6.848Zm-31.739-506.957q-12.043 9.131-26.978 7.131-14.935-2-24.348-14.261-9.413-12.261-7.256-27.141 2.157-14.88 14.669-23.903l75.652-56.957q12.044-9.13 26.683-6.973 14.639 2.157 23.796 14.104 9.696 12.261 7.539 27.141-2.157 14.88-14.669 23.902l-75.088 56.957ZM183.999-185.869v-160h-57q-30.967-2.261-51.984-25.291Q54-394.19 54-425.087v-109.826q0-32.91 23.436-56.347 23.437-23.436 56.347-23.436h170.391l158.957-94.696q20.087-11.826 39.892-.365 19.804 11.462 19.804 34.844v389.826q0 23.382-19.804 34.844-19.805 11.461-39.892-.93l-158.957-94.696h-38.13v160H184ZM288.13-480Zm274.696 148.131v-296.827q33.218 25.695 53.109 64.435 19.892 38.739 19.892 84.261t-19.779 84.207q-19.778 38.684-53.222 63.924Zm-119.783-22.61v-251.042L324.13-534.913H133.782v109.826H324.13l118.913 70.608Z"/></svg>