<svg xmlns="http://www.w3.org/2000/svg" width="48" height="48" viewBox="0 -960 960 960"><path d="M248.591-316.826q22.67 0 38.453-15.75 15.782-15.75 15.782-38.25 0-23.334-16.032-39.667-16.033-16.333-37.968-16.333-23.898 0-39.949 16.264-16.051 16.265-16.051 39.5 0 23.236 15.982 38.736 15.982 15.5 39.783 15.5Zm385.897 0q19.86 0 33.946-12.674 14.087-12.674 15.218-31.717 0-6-1.218-12-1.217-6-3.782-11-16.727-2.934-31.494-11.097-14.767-8.164-26.898-20.295l-2.739-1.739q-17.173 2.87-27.978 16.049-10.804 13.18-10.804 30.473 0 22.5 16.051 38.25 16.05 15.75 39.698 15.75Zm-489.401 47.739V-474v87.935-.456 117.434ZM65.869-463.435q0-6.551.782-12.536.783-5.986 3.348-12.681l81.435-245.87q6.131-18.522 21.486-29.348T208-774.696h132.782q16.706 0 28.158 11.833 11.451 11.834 11.451 28.566t-11.451 28.058q-11.452 11.326-28.158 11.326H221.957L169.218-534H504.26q12.185 0 21.093 8.675 8.907 8.676 8.907 21.5 0 12.825-8.907 21.325-8.908 8.5-21.093 8.5H145.087v204.913h589.826v-95.869q0-16.636 11.501-28.405 11.502-11.769 28.234-11.769t28.39 11.769q11.658 11.769 11.658 28.405v211.739q0 19.728-14.004 33.538-14.005 13.81-34.011 13.81-19.724 0-33.768-13.927-14.043-13.928-14.043-33.986v-36.087H161.13v36.652q0 19.728-13.878 33.538-13.879 13.81-33.705 13.81-20.156 0-33.917-13.927-13.761-13.928-13.761-33.986v-309.653ZM600.175-730q12.825 0 21.325-8.675 8.5-8.676 8.5-21.5 0-12.825-8.675-21.325-8.676-8.5-21.5-8.5-12.825 0-21.325 8.675-8.5 8.676-8.5 21.5 0 12.825 8.675 21.325 8.676 8.5 21.5 8.5Zm62.651 272.957L457.348-662.521q-8.039-8.215-12.498-19.317-4.459-11.101-4.459-22.858v-155.782q0-24.359 17.409-41.745 17.41-17.386 41.722-17.386h155.782q11.757 0 22.858 4.459 11.102 4.459 19.317 12.498l205.478 205.478q17.522 17.272 17.522 42.049t-17.522 42.299L747.174-457.043q-17.272 17.522-42.049 17.522t-42.299-17.522ZM705-528.131 831.869-655 647.043-840.391H519.609v126.869L705-528.131Zm-29.261-156.13Z"/></svg>