<svg xmlns="http://www.w3.org/2000/svg" width="48" height="48" viewBox="0 -960 960 960"><path d="M120.41-631.63q-11.32-11.45-11.32-28.15V-771.7q0-33.22 22.99-56.5 23-23.28 56.22-23.28h111.92q16.7 0 28.15 11.78 11.46 11.79 11.46 28.57t-11.46 28.11q-11.45 11.32-28.15 11.32H188.3v111.92q0 15.95-11.5 27.78-11.5 11.83-28.28 11.83t-28.11-11.46Zm662.61 0q-11.32-11.45-11.32-28.15V-771.7H659.78q-15.95 0-27.78-11.5-11.83-11.5-11.83-28.28t11.46-28.39q11.45-11.61 28.15-11.61H771.7q33.22 0 56.5 23.28t23.28 56.5v111.92q0 15.95-11.78 27.78-11.79 11.83-28.57 11.83t-28.11-11.46ZM649.17-356.35l-95.3-95.3q-11.83-11.83-11.83-28.35 0-16.52 11.83-28.35l95.3-95.3q11.06-11.26 25.99-11.26 14.93 0 26.75 11.26 10.7 11.26 11.48 26.3.78 15.05-9.35 26.31l-33.56 33.13h183.09q15.57 0 26.74 11.22 11.17 11.21 11.17 26.87 0 15.65-11.17 26.41t-26.74 10.76H669.91l33.57 34.13q10.69 11.82 9.91 26.37-.78 14.54-11.32 25.8-11.67 11.26-26.65 11.26-14.99 0-26.25-11.26Zm-390.64-.05q-11.38-11.31-11.76-26.3-.38-15 9.75-26.82l33.57-33.13H106.43q-15.39 0-26.37-10.94-10.97-10.93-10.97-26.59 0-15.65 10.88-26.69 10.89-11.04 26.46-11.04h184.22l-33.56-34.13q-10.7-11.06-10.2-25.71.5-14.64 11.76-25.9 11.26-11.26 26.37-11.26 15.11 0 26.37 11.26l95.31 95.3q11.82 11.83 11.82 28.35 0 16.52-11.82 28.35l-95.31 95.3q-11.26 11.26-26.37 11.26-15.11 0-26.49-11.31ZM188.3-109.09q-33.22 0-56.22-22.99-22.99-23-22.99-56.22v-111.92q0-16.7 11.5-28.15 11.5-11.46 28.28-11.46t28.11 11.46q11.32 11.45 11.32 28.15v111.92h111.92q16.7 0 28.15 11.5 11.46 11.5 11.46 28.28t-11.46 28.11q-11.45 11.32-28.15 11.32H188.3Zm471.48 0q-16.7 0-28.15-11.5-11.46-11.5-11.46-28.28t11.46-28.11q11.45-11.32 28.15-11.32H771.7v-111.92q0-16.7 11.5-28.15 11.5-11.46 28.28-11.46t28.39 11.46q11.61 11.45 11.61 28.15v111.92q0 33.22-23.28 56.22-23.28 22.99-56.5 22.99H659.78Z"/></svg>