<svg xmlns="http://www.w3.org/2000/svg" width="48" height="48" viewBox="0 -960 960 960"><path d="M294.74-612.09h274.13q15.01 0 25.61-10.65 10.61-10.65 10.61-25.74 0-15.09-10.61-25.56-10.6-10.48-25.61-10.48H294.74q-15.01 0-25.62 10.65-10.6 10.66-10.6 25.74 0 15.09 10.6 25.57 10.61 10.47 25.62 10.47Zm0 166.61h154.13q15.01 0 25.61-10.65 10.61-10.66 10.61-25.74 0-15.09-10.61-25.57-10.6-10.47-25.61-10.47H294.74q-15.01 0-25.62 10.65-10.6 10.65-10.6 25.74 0 15.09 10.6 25.56 10.61 10.48 25.62 10.48Zm385.65 165.09H600q-16.71 0-28.16-11.5t-11.45-28.29q0-16.78 11.45-28.1 11.45-11.33 28.16-11.33h80.39V-440q0-16.71 11.5-28.16t28.29-11.45q16.78 0 28.1 11.45 11.33 11.45 11.33 28.16v80.39H840q16.71 0 28.16 11.5t11.45 28.29q0 16.78-11.45 28.1-11.45 11.33-28.16 11.33h-80.39V-200q0 16.71-11.5 28.16t-28.29 11.45q-16.78 0-28.1-11.45-11.33-11.45-11.33-28.16v-80.39Zm-453.39 10-99.09 99.09q-9.26 9.26-21.87 4.59-12.61-4.68-12.61-17.99v-585.69q0-32.66 23.28-55.94t55.94-23.28h517.74q32.66 0 55.94 23.28t23.28 55.94v185.17q0 10.83-8.99 19.31-8.99 8.48-20.92 6.91-53-4-101.42 15-48.41 19-85.85 56.43-38 37.44-56.5 85.57-18.5 48.13-14.93 101.13 1 12.5-6.96 21.49-7.97 8.99-19.26 8.99H227Z"/></svg>