<svg xmlns="http://www.w3.org/2000/svg" width="48" height="48" viewBox="0 -960 960 960"><path d="M228.262-225.087h504.041l-251.738-199.26-252.303 199.26Zm182.26-464.652q-4.131 10.826-13.755 18.022-9.624 7.196-22.531 7.196-16.715 0-28.041-11.327-11.326-11.326-11.326-28.539v-8.004q0-4.131 2.496-8.134 18.674-42.446 57.553-68.309 38.879-25.862 85.647-25.862 64.371 0 109.817 44.952 45.445 44.953 45.445 109.309 0 51.733-33.261 90.976-33.261 39.242-82.957 55.503v20.086L878.74-216.826q7.695 6.13 11.826 14.128 4.13 7.998 4.13 17.181 0 16.996-11.608 28.322-11.609 11.326-28.566 11.326H106.043q-17.522 0-28.848-11.326T65.87-185.517q0-9.183 4.13-17.181 4.13-7.998 11.827-14.128l359.13-277.044v-50.478q0-15.886 11.182-27.747 11.181-11.862 26.862-11.862 32.218 0 54.631-21.804 22.412-21.804 22.412-54.391 0-31.022-22.087-52.891-22.086-21.87-53.246-21.87-23.014 0-41.884 12.435-18.869 12.435-28.304 32.739Z"/></svg>