<svg xmlns="http://www.w3.org/2000/svg" width="48" height="48" viewBox="0 96 960 960"><path d="m419.87 652.304-87.261-87.261q-11.261-11.261-27.652-11.261-16.392 0-29.218 12.261-12.261 12.701-12.261 28.873 0 16.171 12.261 27.432l116.348 116.348q11.826 11.826 27.783 11.826 15.956 0 27.782-11.826l233.783-234.348q11.261-11.543 10.761-27.511-.5-15.967-11.761-27.794-11.701-12.261-28.373-12.261-16.671 0-29.497 12.261L419.87 652.304Zm60.413 337.827q-88.109 0-163.928-31.678-75.819-31.677-131.475-87.333-55.656-55.656-87.333-131.475-31.678-75.819-31.678-163.928 0-87.108 31.544-162.681 31.544-75.572 87.333-131.474 55.79-55.903 131.609-88.081 75.819-32.177 163.928-32.177 87.108 0 162.712 32.104 75.603 32.104 131.529 87.997t88.049 131.452Q894.696 488.416 894.696 576q0 87.826-32.177 163.645-32.178 75.819-88.081 131.609-55.902 55.789-131.474 87.333-75.573 31.544-162.681 31.544ZM480 576Zm-.104 334.913q142.843 0 238.93-95.706 96.087-95.706 96.087-239.108 0-143.403-95.984-239.208-95.983-95.804-238.825-95.804-142.843 0-238.93 95.706-96.087 95.706-96.087 239.108 0 143.403 95.984 239.208 95.983 95.804 238.825 95.804Z"/></svg>