<svg xmlns="http://www.w3.org/2000/svg" width="48" height="48" viewBox="0 -960 960 960"><path d="M390.89-241.43q-40.37-23.31-65.37-62.48-6.69-9.13-1.35-18.68 5.35-9.54 17.74-9.54h276.74q11.83 0 17.18 9.54 5.34 9.55-.79 18.68-24.56 39.17-65.43 62.48-40.87 23.3-89.61 23.3t-89.11-23.3Zm-41.93-192.44q-12.92-12.91-12.92-31.04t12.92-31.33q12.91-13.19 31.04-13.19t31.33 13.19q13.19 13.2 13.19 31.33t-13.19 31.04q-13.2 12.91-31.33 12.91t-31.04-12.91Zm200 0q-12.92-12.91-12.92-31.04t12.92-31.33q12.91-13.19 31.04-13.19t31.33 13.19q13.19 13.2 13.19 31.33t-13.19 31.04q-13.2 12.91-31.33 12.91t-31.04-12.91ZM480-65.87q-152.26 0-259.52-104.15Q113.22-274.17 107-424.74v-15l71.04-27.96q-1.43 7.18-2.21 14.14-.79 6.95-.79 14.13 1.13 126.13 89.98 214.47 88.85 88.35 214.98 88.35 126.7 0 215.33-88.91 88.63-88.91 88.63-216.18 0-19.3-2.72-37.1-2.72-17.81-7.15-36.11-65.44-5.57-123.37-30.72-57.94-25.15-105.37-66.02l209.13-82.65q46.61 49.56 73.41 114.15 26.81 64.58 26.81 138.45 0 78.4-29.63 146.72-29.63 68.33-80.4 119.09-50.76 50.76-118.8 80.39Q557.83-65.87 480-65.87Zm-363.87-421q-5.7-21.96-8.26-44.76-2.57-22.8-2.57-46.33 0-101.95 50.16-185.69 50.15-83.74 132.71-127.13-3-4-5.28-10.13-2.28-6.13-2.28-12.27 0-16.39 11.04-27.43 11.05-11.04 27.44-11.04 14.26 0 25.3 10.19Q355.43-931.26 357-917q18.3-5.44 38.11-7.87 19.8-2.44 41.11-2.44 79.35 0 150.06 35.53 70.72 35.52 119.98 97.87l97.39-39.7q13.7-5 27.24.78 13.55 5.79 19.11 19.48 6.13 13.83-.22 27.09-6.34 13.26-19.6 18.83L116.13-486.87Z"/></svg>