<svg xmlns="http://www.w3.org/2000/svg" width="48" height="48" viewBox="0 -960 960 960"><path d="M145.087-145.869q-32.507 0-55.862-23.356-23.356-23.355-23.356-55.862v-509.826q0-32.74 23.356-56.262 23.355-23.521 55.862-23.521h669.826q32.74 0 56.262 23.521 23.521 23.522 23.521 56.262v509.826q0 32.507-23.521 55.862-23.522 23.356-56.262 23.356H145.087Zm368.304-79.218h301.522v-509.826H513.391v509.826Zm230.696-123.304q12.058 0 19.942-8.062t7.884-20.393q0-12.086-8.044-19.924-8.045-7.839-20.348-7.839H585.218q-12.058 0-19.942 7.899-7.885 7.898-7.885 19.978 0 12.08 7.885 20.211 7.884 8.13 19.942 8.13h158.869Zm-.566-115.218q12.303 0 20.348-8.062 8.044-8.062 8.044-20.393 0-12.33-8.044-20.329-8.045-7.998-20.348-7.998H585.783q-12.303 0-20.347 8.062-8.045 8.062-8.045 20.393 0 12.33 8.045 20.329 8.044 7.998 20.347 7.998h157.738Zm.566-115.782q12.058 0 19.942-8.063 7.884-8.062 7.884-20.393 0-12.085-8.044-19.924-8.045-7.838-20.348-7.838H585.218q-12.058 0-19.942 7.898-7.885 7.899-7.885 19.979 0 12.08 7.885 20.21 7.884 8.131 19.942 8.131h158.869Z"/></svg>