<svg xmlns="http://www.w3.org/2000/svg" width="48" height="48" viewBox="0 -960 960 960"><path d="M477.913-535.391V-680q0-15.576-11.219-26.745-11.219-11.168-26.869-11.168-15.651 0-26.412 11.168-10.761 11.169-10.761 26.745v158.87q0 8.079 2.565 15.148 2.565 7.069 8.696 12.634l66.999 66.435q11.261 11.826 26.087 11.826 14.827 0 26.653-11.826 11.261-11.261 11.261-26.088 0-14.826-11.261-26.087l-55.739-56.303ZM356.782-161.782q-123.13-28.261-203.63-127.392-80.5-99.13-80.5-230.826 0-153.391 106.978-260.652Q286.609-887.913 440-887.913q153.391 0 260.652 107.261T807.913-520q0 41.304-8.606 79.826-8.606 38.522-24.437 72.261H518.388q-69.556 0-117.646 49.261T352.652-200q0 9.696.782 19.391.783 9.696 3.348 18.827ZM520-92.652h240q44.826 0 76.37-31.261 31.543-31.261 31.543-76.087 0-44.826-31.543-76.37-31.544-31.543-76.37-31.543H520q-44.826 0-76.087 31.543-31.261 31.544-31.261 76.37 0 44.826 31.261 76.087Q475.174-92.652 520-92.652ZM519.825-170Q507-170 498.5-178.675q-8.5-8.676-8.5-21.5 0-12.825 8.675-21.325 8.676-8.5 21.5-8.5 12.825 0 21.325 8.675 8.5 8.676 8.5 21.5 0 12.825-8.675 21.325-8.676 8.5-21.5 8.5Zm120 0Q627-170 618.5-178.675q-8.5-8.676-8.5-21.5 0-12.825 8.675-21.325 8.676-8.5 21.5-8.5 12.825 0 21.325 8.675 8.5 8.676 8.5 21.5 0 12.825-8.675 21.325-8.676 8.5-21.5 8.5Zm120 0Q747-170 738.5-178.675q-8.5-8.676-8.5-21.5 0-12.825 8.675-21.325 8.676-8.5 21.5-8.5 12.825 0 21.325 8.675 8.5 8.676 8.5 21.5 0 12.825-8.675 21.325-8.676 8.5-21.5 8.5Z"/></svg>