<svg xmlns="http://www.w3.org/2000/svg" width="48" height="48" viewBox="0 -960 960 960"><path d="M684.9-925.218q99.926 0 170.122 70.096 70.196 70.096 70.196 170.022 0 100.926-70.096 171.122-70.096 70.196-170.022 70.196-100.926 0-171.122-70.096-70.196-70.096-70.196-171.022 0-99.926 70.096-170.122 70.096-70.196 171.022-70.196Zm-510.122 750.44q-52.592-52.593-80.75-120.551Q65.868-363.287 65.868-438q0-115.739 65.044-210.456 65.043-94.718 172.956-135.24 33.783-13.652 61.349 3.239 27.565 16.892 21.435 45.805-12.304 72.435 10.761 142.087 23.065 69.652 75.5 120.522 52 51 119.869 71.565 67.87 20.565 139.87 11.826 29.348-3.435 46.239 20.783 16.892 24.218 7.935 52.87-39.522 112.044-134.804 180.587Q556.739-65.869 438-65.869q-74.713 0-142.671-28.159-67.958-28.158-120.551-80.75Z"/></svg>