<svg xmlns="http://www.w3.org/2000/svg" width="48" height="48" viewBox="0 96 960 960"><path d="M480 631.566 276.783 834.783Q264.957 846.609 249 846.609t-27.783-11.826Q209.391 822.957 209.391 807t11.826-27.783L424.434 576 221.217 372.783Q209.391 360.957 209.391 345t11.826-27.783q11.826-11.826 27.783-11.826t27.783 11.826L480 520.434l203.217-203.217q11.826-11.826 27.783-11.826t27.783 11.826q11.826 11.826 11.826 27.783t-11.826 27.783L535.566 576l203.217 203.217q11.826 11.826 11.826 27.783t-11.826 27.783Q726.957 846.609 711 846.609t-27.783-11.826L480 631.566Z"/></svg>