<svg xmlns="http://www.w3.org/2000/svg" width="48" height="48" viewBox="0 96 960 960"><path d="m863.044 864.74-60.566-61.131q24.435-17 37.87-36.438 13.434-19.437 13.434-47.273 0-39.76-29.394-68.655-29.395-28.895-69.388-28.895h-73.218V535.13q0-85.046-59.117-142.914-59.116-57.868-143.972-57.868-28.748 0-59.525 9.283-30.777 9.282-56.081 27.587l-56.131-56.131q36-30.131 81.174-45.044 45.174-14.913 90.051-14.913 112.806 0 195.269 79.565 82.463 79.565 86.985 192.261v21q73.131 4.087 122.848 52.368 49.718 48.281 49.718 120.999 0 37.764-18.196 79.373t-51.761 64.044Zm-62.653 127.391-92.869-93H248q-93.067 0-157.034-62.967T27 680.13q0-81.695 51.63-139.652 51.631-57.957 129.327-70.522.87-11.174 4.239-28.108 3.37-16.935 10.804-28.674L80.826 271.565q-10.13-10.13-10.13-23.543 0-13.413 10.13-23.261 10.13-9.848 23.261-9.848 13.13 0 23.261 9.565l720.565 720.566q10.131 10.13 10.131 23.544 0 13.413-10.131 23.543-10.13 10.129-23.84 10.129-13.71 0-23.682-10.129ZM248.246 819.913h382.058L291.218 480.827q-10.435 12.739-13.55 29.733-3.114 16.995-3.114 32.788H248q-59.053 0-100.417 37.89-41.365 37.89-41.365 96.741t41.365 100.392q41.364 41.542 100.663 41.542ZM583.565 587.13Zm-124.087 61.957Z"/></svg>