<svg xmlns="http://www.w3.org/2000/svg" width="48" height="48" viewBox="0 -960 960 960"><path d="m800.391-63.869-92.869-93H248q-93.087 0-157.044-62.957Q27-282.782 27-375.87q0-81.695 51.63-139.652 51.631-57.957 129.327-70.522.87-11.174 4.239-28.108 3.37-16.935 10.804-28.674L80.826-784.435q-10.13-10.13-10.13-23.543 0-13.413 10.13-23.544 10.13-9.565 23.261-9.565 13.13 0 23.261 9.565l720.565 720.566q9.131 9.13 9.131 23.544 0 14.413-9.131 23.543-10.13 10.13-24.261 9.848-14.13-.283-23.261-9.848Zm62.653-127.391L306.956-740.913q36-30.131 81.174-45.044Q433.304-800.87 478-800.87q113.261 0 195.587 79.565t86.848 192.261v21q73.131 4.087 122.848 52.348 49.718 48.261 49.718 120.957 0 37.826-18.196 79.435t-51.761 64.044Z"/></svg>