<svg xmlns="http://www.w3.org/2000/svg" width="48" height="48" viewBox="0 -960 960 960"><path d="M274.696-195.478q-32.507 0-55.862-23.356-23.356-23.355-23.356-55.862v-549.826q0-32.74 23.356-56.262 23.355-23.522 55.862-23.522h549.826q32.74 0 56.262 23.522t23.522 56.262v549.826q0 32.507-23.522 55.862-23.522 23.356-56.262 23.356H274.696ZM135.478-55.694q-32.74 0-56.262-23.522t-23.522-56.262v-589.435q0-16.957 11.327-28.283 11.326-11.326 28.565-11.326 17.24 0 28.566 11.326t11.326 28.283v589.435h589.435q16.957 0 28.283 11.326t11.326 28.566q0 17.24-11.326 28.565-11.326 11.327-28.283 11.327H135.478Zm422.827-526.872q0 11.826 10.044 17.739 10.043 5.914 20.304-.782l41.565-25.087q10.119-6.13 20.734-6.13 10.614 0 20.875 6.13l41.564 25.087q10.261 6.696 20.588.782 10.326-5.913 10.326-17.739v-241.956h-186v241.956Z"/></svg>