<svg xmlns="http://www.w3.org/2000/svg" width="48" height="48" viewBox="0 -960 960 960"><path d="M354.27-313.91q33.64 0 57.88-23.38 24.24-23.38 24.24-57.03 0-33.64-24.24-57.12-24.24-23.47-57.88-23.47-32.64 0-55.76 23.38-23.12 23.38-23.12 57.02t23.12 57.12q23.12 23.48 55.76 23.48Zm307.94-23.38q23.4-23.38 23.4-57.03 0-33.64-23.26-57.12-23.27-23.47-56.74-23.47-33.48 0-57.24 23.38-23.76 23.38-23.76 57.02t23.62 57.12q23.62 23.48 57.1 23.48 33.47 0 56.88-23.38ZM537.24-559.45q23.98-23.62 23.98-57.26t-23.88-56.88q-23.88-23.24-57.53-23.24-32.64 0-55.83 23.74-23.2 23.74-23.2 56.38 0 33.64 22.77 57.26 22.76 23.62 56.23 23.62 33.48 0 57.46-23.62ZM480.08-65.87q-85.47 0-161.01-32.39-75.53-32.4-131.97-88.84-56.44-56.44-88.84-131.89-32.39-75.46-32.39-160.93 0-86.47 32.39-162.01 32.4-75.53 88.75-131.5t131.85-88.62q75.5-32.65 161.01-32.65 86.52 0 162.12 32.61 75.61 32.6 131.53 88.5 55.93 55.89 88.55 131.45Q894.7-566.58 894.7-480q0 85.55-32.65 161.07-32.65 75.53-88.62 131.9-55.97 56.37-131.42 88.77-75.46 32.39-161.93 32.39Z"/></svg>