<svg xmlns="http://www.w3.org/2000/svg" width="48" height="48" viewBox="0 -960 960 960"><path d="M480.138-85.869q-81.399 0-152.86-30.849-71.461-30.848-124.738-84.126-53.278-53.277-84.127-124.738-30.848-71.461-30.848-152.722 0-81.261 30.848-152.722 30.849-71.461 84.127-124.739 53.277-53.277 124.738-84.126Q398.739-870.74 480-870.74v-55.521q0-12.968 12.609-17.81 12.609-4.842 21.87 4.419l102.825 102.825q11.826 11.826 11.826 28.066 0 16.239-11.826 28.065L514.479-677.87q-9.261 9.261-21.87 4.418Q480-678.294 480-691.262v-55.521q-111.391 0-189.935 78.565-78.544 78.566-78.544 189.914 0 68.261 31.631 126.456 31.63 58.196 84.461 94.327 16.43-28.566 48.778-48.631t75.044-25.63q-3.565-21.566-8.848-43.413-5.283-21.848-12.283-40.414-10.927 9.298-24.405 14.432-13.479 5.134-29.51 5.134-33.911 0-57.976-24.066-24.065-24.065-24.065-58.001v-41.46q0-10.953-2.283-19.692-2.283-8.738-6.717-18.303-4-7.77.929-15.168 4.929-7.397 13.865-7.397 46.901 2 102.6 21.417 55.698 19.417 56.693 80.505 0 9.469-1.5 16.969-1.5 7.5-5.5 15.5-13.565-10-26.848-18t-27.848-14.565q17.815 13.455 40.256 41.075 22.44 27.62 42.005 65.751 21.13-50.696 51.696-99.326 30.565-48.631 72.261-90.326-23.566 16.565-45.413 35.13-21.848 18.565-42.414 39.13-7-11.565-11-25.185t-4-28.582q0-43.191 29.841-72.973 29.84-29.781 73.048-29.781h41.231q14.402 0 30.542-3.783 16.139-3.783 26.991-14.348 7-7 16.283-3.334 9.282 3.667 9.847 13.899 0 25.847-3.746 62.357-3.746 36.509-16.681 70.053t-37.534 57.459q-24.598 23.914-66.867 23.914-15.974 0-29.617-4.282-13.642-4.283-25.207-11.283-7.565 19.565-16.565 52.196-9 32.63-14.566 69.761 39.131 7.565 69.261 26.848 30.131 19.282 45.964 46.413 42.863-30.131 71.711-74.261 28.847-44.131 38.847-97.827 4.912-25.891 23.516-43.576 18.604-17.685 43.876-17.685 26.565 0 44.348 19.18 17.782 19.179 13.782 44.516Q850.87-281.652 740.696-183.76 630.522-85.869 480.138-85.869Z"/></svg>