<svg xmlns="http://www.w3.org/2000/svg" width="48" height="48" viewBox="0 -960 960 960"><path d="M185.09-105.87q-33.93 0-56.58-22.38-22.64-22.37-22.64-56.84v-589.82q0-34.47 22.38-57.13 22.37-22.66 56.84-22.66h186.17q9.26-35.56 39.42-58.63 30.16-23.06 69.32-23.06 38.26 0 68.59 23.06 30.32 23.07 40.71 58.63h185.61q34.47 0 57.13 22.66 22.66 22.66 22.66 57.13V-573q0 16.71-11.84 28.16-11.83 11.45-28.56 11.45-16.73 0-28.06-11.45-11.33-11.45-11.33-28.16v-201.91h-57.17v57.17q0 16.71-11.45 28.16t-28.16 11.45H281.87q-16.71 0-28.16-11.45t-11.45-28.16v-57.17h-57.17v589.82H387q16.71 0 28.16 11.5 11.45 11.51 11.45 28.29t-11.45 28.1q-11.45 11.33-28.16 11.33H185.09ZM480-781.13q17 0 28.5-11.78Q520-804.7 520-821.13q0-17-11.5-28.5t-28.5-11.5q-17 0-28.5 11.5t-11.5 28.5q0 16.43 11.5 28.22 11.5 11.78 28.5 11.78Zm154.52 635.26q-74.84 0-127.22-52.36-52.39-52.36-52.39-127.17 0-74.8 52.48-127.24 52.48-52.45 127.45-52.45t127.41 52.39q52.45 52.38 52.45 127.22 0 26-5.94 51.15-5.93 25.16-21.8 45.16l79.95 79.95q11.83 11.83 11.83 27.5 0 15.68-11.83 28.07-12.39 11.82-28.34 11.82-15.96 0-27.79-11.82l-79.95-79.39q-21 15.87-45.66 21.52-24.65 5.65-50.65 5.65Zm-.27-79.22q42.32 0 71.49-29.03 29.17-29.03 29.17-71.08t-29.03-71.36q-29.03-29.31-71.08-29.31-42.32 0-71.21 29.03-28.89 29.04-28.89 71.09 0 42.04 28.61 71.35 28.62 29.31 70.94 29.31Z"/></svg>