<svg xmlns="http://www.w3.org/2000/svg" width="48" height="48" viewBox="0 -960 960 960"><path d="M287.261-480q0 12-2 24t-6 23q-4 12 .217 23 4.218 11 15.5 15 13.283 5 24.783-1 11.5-6 15.5-18 5-16 8.5-32.5t3.5-33.5q0-17-2.5-34t-8.5-33q-5-12-17-17.5t-24-.5q-11 4-15 15.5t0 22.5q4 11 5.5 23t1.5 24Zm143 0q0 26-3.5 51.5t-11.5 50.5q-4 12 0 24t16 16q13 5 24.5-1.5t16.5-19.5q10-29 14-59.5t4-61.5q0-31-4-61t-14-59q-5-13-16-19.5t-24-1.5q-12 4-16.5 16t-.5 24q8 24 11.5 49.5t3.5 51.5Zm143 0q0 40-6.283 79-6.282 39-19.717 77-5 12-.5 24t16.5 17q12 5 23.5-1t16.5-18q16-43 23-88t7-90q0-45-7-89.5t-23-87.5q-5-12-16.5-18t-23.5-1q-12 5-16.5 17t.5 24q13.435 37 19.717 76 6.283 39 6.283 79ZM480.078-65.869q-85.469 0-161.006-32.395-75.536-32.395-131.975-88.833-56.438-56.439-88.833-131.897-32.395-75.459-32.395-160.928 0-86.469 32.395-162.006 32.395-75.536 88.745-131.504 56.349-55.968 131.849-88.616 75.5-32.648 161.017-32.648 86.516 0 162.12 32.604 75.603 32.604 131.529 88.497t88.549 131.452Q894.696-566.584 894.696-480q0 85.547-32.648 161.075-32.648 75.527-88.616 131.896-55.968 56.37-131.426 88.765-75.459 32.395-161.928 32.395Z"/></svg>