<svg xmlns="http://www.w3.org/2000/svg" width="48" height="48" viewBox="0 96 960 960"><path d="M563.516 773.609q-12.82-5.044-17.538-16.103-4.717-11.058.283-23.636 7.435-19.566 12.449-38.813 5.013-19.247 9.116-38.448l50 50q-3 12.695-6.782 24.761-3.783 12.065-9.348 25.195-5 11.254-16.218 16.344-11.217 5.091-21.962.7ZM432.261 718q-12-4-17-15t-1-23q8-25 12-51.5t4-52.5q0-15.675-1.283-31.316-1.282-15.641-3.848-31.336l65.131 65.13q0 31.696-4.5 61.826-4.5 30.131-14.5 59.696-4 11-15.5 17t-23.5 1ZM297.13 662q-12.434-4.435-17.934-14.935-5.5-10.5-.5-23.5 4-11 6.22-23 2.219-12 2.219-24.565 0-12.565-1.219-24.065-1.22-11.5-5.22-23.065-5-13.398-.283-23.851 4.717-10.454 15.717-14.454 11.566-4.565 22.848.218 11.283 4.782 15.283 15.696 6 16.919 9.5 34.336 3.5 17.417 3.5 35.185t-3.5 34.544q-3.5 16.775-9.5 33.557-4 11.334-14.783 16.616Q308.696 666 297.13 662Zm333.696-37.435L571 566.304q0-38.044-5.435-74.899-5.435-36.854-19.304-72.84-5-12.275.5-23.203 5.5-10.927 17.065-15.927 11.435-4.435 22.191.801 10.755 5.236 15.679 15.634 16 43.565 23.782 88.75 7.783 45.185 7.783 91.38 0 11.609-.783 24.282-.782 12.674-1.652 24.283ZM480.138 990.131q-87.964 0-163.783-31.678-75.819-31.677-131.475-87.333-55.656-55.656-87.333-131.475-31.678-75.819-31.678-163.783 0-70.214 20.565-132.712Q107 380.652 144.695 328.956L48 231.261q-10.13-9.968-10.13-23.799 0-13.83 10.19-23.723 9.951-10.13 23.76-10.13 13.81 0 23.702 10.13l768.522 768.522q10.13 9.968 10.13 23.799 0 13.83-10.19 23.723-9.952 10.127-23.761 10.127t-23.701-10.127l-89.478-88.478q-51.696 37.696-114.194 58.261-62.498 20.565-132.712 20.565ZM480 910.913q53.345 0 101.477-14.652 48.132-14.652 88.436-42.087L201.826 385.522q-27.435 40.304-42.087 88.396Q145.087 522.009 145.087 576q0 143.444 96.014 239.178Q337.114 910.913 480 910.913Zm340.392-95.783-58.262-57.131q25.084-38.983 38.934-85.111 13.849-46.127 13.849-96.888 0-143.444-96.014-239.178Q622.886 241.087 480 241.087q-50.761 0-96.888 13.849-46.128 13.85-85.111 38.934l-57.131-58.262q50.369-35.487 110.797-54.896 60.428-19.408 128.225-19.408 87.606 0 163.185 32.112 75.579 32.113 131.486 88.021 55.908 55.907 88.021 131.486 32.112 75.579 32.112 163.185 0 67.797-19.408 128.225-19.409 60.427-54.896 110.797ZM530.348 525.652ZM435.87 620.13Z"/></svg>