<svg xmlns="http://www.w3.org/2000/svg" width="48" height="48" viewBox="0 -960 960 960"><path d="M163.04-181.87Q91.65-225.61 45.83-305.28 0-384.96 0-481q0-96.04 46.04-175.22 46.05-79.17 116.87-122.34 26.79-17.79 48.44-7.31t21.65 35q0 10.17-4.67 19.84-4.66 9.66-14.42 17.86-61.69 36.3-97.91 97.92Q79.78-553.62 79.78-481q0 73.83 36.22 135.35 36.22 61.52 97.91 97.82 9.76 8.12 14.42 17.88 4.67 9.77 4.67 20.38 0 23.96-21.37 34.66-21.37 10.69-48.59-6.96ZM600-121q-75 0-140.5-28.5t-114-77q-48.5-48.5-77-114T240-481q0-75 28.5-140.5t77-114q48.5-48.5 114-77T600-841q75 0 140.5 28.5t114 77q48.5 48.5 77 114T960-481q0 75-28.5 140.5t-77 114q-48.5 48.5-114 77T600-121Zm25.04-216.47q9.35-9.48 9.35-23.92v-87.22h86.22q14.44 0 23.92-9.52 9.47-9.53 9.47-24.05 0-14.52-9.47-23.86-9.48-9.35-23.92-9.35h-86.22v-86.22q0-14.44-9.52-23.92-9.53-9.47-24.05-9.47-14.52 0-23.86 9.47-9.35 9.48-9.35 23.92v86.22h-87.22q-14.44 0-23.92 9.52-9.47 9.53-9.47 24.05 0 14.52 9.47 23.86 9.48 9.35 23.92 9.35h87.22v87.22q0 14.44 9.52 23.92 9.53 9.47 24.05 9.47 14.52 0 23.86-9.47Z"/></svg>