<svg xmlns="http://www.w3.org/2000/svg" width="48" height="48" viewBox="0 -960 960 960"><path d="M356.392-236.609q-32.74 0-56.262-23.521-23.521-23.522-23.521-56.262v-498.521q0-32.74 23.521-56.262 23.522-23.521 56.262-23.521h378.521q32.74 0 56.262 23.521 23.521 23.522 23.521 56.262v498.521q0 32.74-23.521 56.262-23.522 23.521-56.262 23.521H356.392Zm0-79.783h378.521v-498.521H356.392v498.521Zm189.26-249.26ZM145.303-749.958q-16.782 0-28.108-11.502-11.326-11.501-11.326-28.565t11.502-28.39q11.501-11.327 28.282-11.327 16.782 0 28.108 11.502t11.326 28.566q0 17.063-11.501 28.39-11.502 11.326-28.283 11.326Zm0 170.74q-16.782 0-28.108-11.502t-11.326-28.283q0-16.781 11.502-28.108 11.501-11.326 28.282-11.326 16.782 0 28.108 11.502t11.326 28.283q0 16.781-11.501 28.107-11.502 11.327-28.283 11.327Zm0 171.305q-16.782 0-28.108-11.502t-11.326-28.566q0-17.064 11.502-28.39 11.501-11.326 28.282-11.326 16.782 0 28.391 11.502 11.608 11.501 11.608 28.565t-11.784 28.39q-11.784 11.327-28.565 11.327Zm0 171.304q-16.782 0-28.108-11.501-11.326-11.502-11.326-28.234 0-16.731 11.502-28.39 11.501-11.658 28.282-11.658 16.782 0 28.108 11.834t11.326 28.565q0 16.732-11.501 28.058-11.502 11.326-28.283 11.326Zm0 170.74q-16.782 0-28.108-11.502-11.326-11.501-11.326-28.282 0-16.782 11.502-28.108 11.501-11.326 28.282-11.326 16.782 0 28.108 11.501 11.326 11.502 11.326 28.283 0 16.782-11.501 28.108-11.502 11.326-28.283 11.326Zm170.69 0q-16.732 0-28.058-11.502-11.326-11.501-11.326-28.282 0-16.782 11.501-28.108 11.502-11.326 28.234-11.326 16.731 0 28.39 11.501 11.658 11.502 11.658 28.283 0 16.782-11.834 28.108T315.993-65.87Zm171.354 0q-16.781 0-28.107-11.502-11.327-11.501-11.327-28.282 0-16.782 11.502-28.108t28.283-11.326q16.781 0 28.108 11.501 11.326 11.502 11.326 28.283 0 16.782-11.502 28.108T487.347-65.87Zm170.69 0q-16.731 0-28.058-11.502-11.326-11.501-11.326-28.282 0-16.782 11.502-28.108 11.501-11.326 28.233-11.326t28.39 11.501q11.659 11.502 11.659 28.283 0 16.782-11.834 28.108T658.037-65.87Z"/></svg>