<svg xmlns="http://www.w3.org/2000/svg" width="48" height="48" viewBox="0 0 48 48"><path d="M24 44.7q-4.3 0-8.05-1.625-3.75-1.625-6.575-4.45t-4.45-6.575Q3.3 28.3 3.3 24q0-4.35 1.625-8.1T9.35 9.35q2.8-2.8 6.575-4.45Q19.7 3.25 24 3.25q4.35 0 8.125 1.65 3.775 1.65 6.55 4.425t4.425 6.55Q44.75 19.65 44.75 24q0 4.3-1.65 8.075-1.65 3.775-4.45 6.575-2.8 2.8-6.55 4.425T24 44.7Zm-4.4-10.55h7.15q1.45 0 2.375-.95t.925-2.35V26.8q0-1.35-.7-2.125-.7-.775-1.75-.775 1.05 0 1.75-.675t.7-2.075v-4q0-1.4-.925-2.35-.925-.95-2.375-.95H19.6q-.7 0-1.175.475-.475.475-.475 1.175 0 .7.475 1.175.475.475 1.175.475h7.15v5.25H23.6q-.65 0-1.075.425-.425.425-.425 1.075 0 .65.425 1.075.425.425 1.075.425h3.15v5.45H19.6q-.7 0-1.175.475-.475.475-.475 1.175 0 .7.475 1.175.475.475 1.175.475Z"/></svg>