<svg xmlns="http://www.w3.org/2000/svg" width="48" height="48" viewBox="0 0 48 48"><path d="M24 44.7q-4.3 0-8.05-1.625-3.75-1.625-6.575-4.45t-4.45-6.575Q3.3 28.3 3.3 24q0-4.35 1.625-8.1T9.35 9.35q2.8-2.8 6.575-4.45Q19.7 3.25 24 3.25q4.35 0 8.125 1.65 3.775 1.65 6.55 4.425t4.425 6.55Q44.75 19.65 44.75 24q0 4.3-1.65 8.075-1.65 3.775-4.45 6.575-2.8 2.8-6.55 4.425T24 44.7Zm.05-3.95q6.95 0 11.825-4.9 4.875-4.9 4.875-11.9 0-6.95-4.875-11.825Q31 7.25 24 7.25q-6.95 0-11.85 4.875Q7.25 17 7.25 24q0 6.95 4.9 11.85 4.9 4.9 11.9 4.9ZM24 24Zm-2.75 10.15h5.5q1.45 0 2.375-.95t.925-2.35v-5.3q0-1.4-.925-2.35-.925-.95-2.375-.95h-5.5v-5.1h5q.7 0 1.175-.475.475-.475.475-1.175 0-.7-.475-1.175-.475-.475-1.175-.475h-5q-1.45 0-2.375.95t-.925 2.35v13.7q0 1.4.925 2.35.925.95 2.375.95Zm0-8.6h5.5v5.3h-5.5Z"/></svg>