<svg xmlns="http://www.w3.org/2000/svg" width="48" height="48" viewBox="0 0 48 48"><path d="M24 44.7q-4.3 0-8.05-1.625-3.75-1.625-6.575-4.45t-4.45-6.575Q3.3 28.3 3.3 24q0-4.35 1.625-8.1T9.35 9.35q2.8-2.8 6.575-4.45Q19.7 3.25 24 3.25q4.35 0 8.125 1.65 3.775 1.65 6.55 4.425t4.425 6.55Q44.75 19.65 44.75 24q0 4.3-1.65 8.075-1.65 3.775-4.45 6.575-2.8 2.8-6.55 4.425T24 44.7Zm-.7-27.55V32.5q0 .7.475 1.175.475.475 1.175.475.7 0 1.175-.475.475-.475.475-1.175V15.85q0-.85-.575-1.425-.575-.575-1.425-.575h-3.8q-.7 0-1.175.475-.475.475-.475 1.175 0 .7.475 1.175.475.475 1.175.475Z"/></svg>