<svg xmlns="http://www.w3.org/2000/svg" width="48" height="48" viewBox="0 96 960 960"><path d="M177.565 918.045q-16.707 0-28.158-11.452-11.452-11.451-11.452-28.158V551.087H90.782q-15.633 0-26.208-10.543t-10.575-26.128q0-15.585 10.575-25.957t26.208-10.372h130.087q-32.464 0-55.189-22.888-22.725-22.887-22.725-55.026V269.608q0-16.707 11.452-28.158 11.451-11.451 28.158-11.451h168.869q16.707 0 28.158 11.451t11.451 28.158v130.565q0 32.139-22.887 55.026-22.887 22.888-55.026 22.888h343.088V349.043q0-19.569-13.157-32.806-13.157-13.238-32.606-13.238-12.585 0-22.802 4.435-10.218 4.435-16.052 14.304-6.731 11.696-15.296 17.044-8.565 5.348-19.261 5.348-22.441 0-31.112-17.826-8.671-17.827 3.459-37.653 15.928-27.108 41.89-42.88 25.962-15.772 58.974-15.772 50.3 0 84.914 34.638 34.615 34.639 34.615 84.123v129.327h140q15.392 0 25.805 10.625 10.412 10.626 10.412 26.333 0 15.467-10.412 25.755-10.413 10.287-25.805 10.287h-47.739v327.348q0 16.707-11.452 28.158-11.451 11.452-28.158 11.452h-604.87Zm38.391-512.959h102.087V302.999H215.956v102.087Zm-5 439.958h232.826V551.087H210.956v293.957Zm305.262 0h232.826V551.087H516.218v293.957ZM215.956 405.086h102.087-102.087ZM480 698.348Z"/></svg>