<svg xmlns="http://www.w3.org/2000/svg" width="48" height="48" viewBox="0 -960 960 960"><path d="m607.826-133.651-14.304 7.435q-12.696 6.13-26.174 1.782t-21.044-16.043l-4.829-7.653q-7.866-12.739-5.584-26.217 2.283-13.479 13.979-22.609l13.304-10.304q-6.052-18.719-6.052-38.937 0-20.218 6.052-38.936l-13.304-10.344q-11.131-9.378-13.696-23.162-2.565-13.784 5.565-26.621l4.565-7.696q7.566-12.131 20.761-15.978 13.196-3.848 26.632 1.717l14.129 6.869q15.304-12.869 32.674-23.021 17.37-10.152 37.239-15.587l3-19.739q2-12.696 11.413-22.109 9.413-9.413 22.674-9.413h9.487q12.47 0 22.666 8.348 10.195 8.348 12.195 21.609l1.435 21.304q19.87 5.435 37.522 15.587 17.652 10.152 32.956 23.021l14.739-6.869q12.665-5.565 25.876-1.717 13.211 3.847 21.342 15.978l4.565 7.696q8.131 12.13 5.348 26.391-2.783 14.261-14.478 23.392l-13.305 10.344q6.052 18.718 6.052 38.936t-6.052 38.937l14.305 10.304q11.695 9.13 13.978 22.891 2.283 13.761-5.848 25.892l-4 7.696q-8.13 11.695-21.891 16.043-13.761 4.348-25.892-1.782l-14.739-7.435q-14.869 13.869-32.761 24.656-17.891 10.786-37.543 15.719l-1.609 20.103q-2 13.26-12.421 21.609-10.422 8.348-23.231 8.348H714.6q-13.035 0-22.448-8.848t-11.413-22.11l-2.812-19.218q-20.057-4.955-37.644-15.672-17.587-10.718-32.457-24.587Zm111.201-14.175q40.799 0 69.669-29.222 28.869-29.222 28.869-70.021 0-40.8-28.939-69.669-28.94-28.87-69.739-28.87-40.8 0-69.952 28.94-29.152 28.939-29.152 69.739 0 40.799 29.222 69.951 29.222 29.152 70.022 29.152Zm-573.94 1.957q-32.507 0-55.862-23.356-23.356-23.355-23.356-55.862v-509.826q0-32.74 23.356-56.262 23.355-23.521 55.862-23.521h669.826q32.74 0 56.262 23.521 23.521 23.522 23.521 56.262v187.782q0 16.886-11.658 27.747-11.658 10.862-28.566 10.862-16.907 0-28.233-11.326t-11.326-28.848v-83.434H145.087v129h355.868q16.762 0 22.621 15.739 5.858 15.739-6.403 27.131-44.435 40.13-69.869 95.012-25.435 54.881-25.435 118.814 0 14.002.652 27.762.652 13.759 3.522 27.498 3 18.352-7.352 31.829-10.352 13.476-27.823 13.476H145.087Z"/></svg>