<svg xmlns="http://www.w3.org/2000/svg" width="48" height="48" viewBox="0 -960 960 960"><path d="m607.83-133.65-14.31 7.43q-12.69 6.13-26.17 1.79-13.48-4.35-21.05-16.05l-4.9-7.82q-7.79-12.57-5.51-26.05 2.28-13.48 13.98-22.61l13.3-10.3q-5.84-18.76-5.84-39.02 0-20.25 5.84-39.01l-13.3-10.19q-11.13-9.38-13.7-23.16-2.56-13.78 5.57-26.62l4.56-7.7q7.72-11.94 20.84-15.88 13.12-3.94 26.56 1.62l14.13 6.87q15.3-12.87 32.67-23.02t37.24-15.59l3-19.74q2-12.69 11.41-22.1 9.42-9.42 22.93-9.42h8.98q12.72 0 22.92 8.37 10.19 8.36 12.19 21.59l1.44 21.3q19.87 5.44 37.52 15.59 17.65 10.15 32.96 23.02l14.74-6.87q12.87-5.56 25.99-1.62 13.11 3.94 20.66 15.88l5.13 7.7q8.13 12.13 5.35 26.39-2.79 14.26-14.48 23.39l-13.31 10.19q5.85 18.76 5.85 39.01 0 20.26-5.85 39.02l14.31 10.3q11.69 9.13 13.98 22.9 2.28 13.76-5.85 25.89l-4 7.69q-8.13 11.7-21.89 16.05-13.76 4.34-25.89-1.79l-14.74-7.43q-14.87 13.87-32.76 24.65-17.89 10.79-37.55 15.72l-1.61 20.11q-2.07 13.29-12.45 21.62-10.39 8.33-23.38 8.33h-8.89q-12.65 0-22.2-8.86-9.55-8.87-11.51-22.09l-2.81-19.22q-20.06-4.96-37.65-15.67-17.58-10.72-32.45-24.59ZM788.7-177q28.87-29.18 28.87-70.02 0-40.85-29.06-69.72-29.06-28.87-69.74-28.87-40.68 0-69.83 29.06-29.16 29.06-29.16 69.74 0 40.68 29.18 69.83t70.02 29.15q40.85 0 69.72-29.17Zm-643.61-48.09v-319.43 16.61-207 509.82Zm0-407.04h669.82v-102.78H145.09v102.78Zm0 486.26q-32.51 0-55.87-23.35-23.35-23.36-23.35-55.87v-509.82q0-32.74 23.35-56.26 23.36-23.53 55.87-23.53h669.82q32.74 0 56.26 23.53 23.53 23.52 23.53 56.26v192.21q0 17.96-15.46 26.79-15.46 8.82-31.98.13-29.56-13.87-61.32-21.31-31.76-7.43-65.98-7.43-41.39 0-79.94 10.85-38.54 10.84-71.8 30.54H145.09v278.04h253.47q16.96 0 28.29 11.33 11.32 11.33 11.32 28.28 0 16.96-11.32 28.28-11.33 11.33-28.29 11.33H145.09Z"/></svg>