<svg xmlns="http://www.w3.org/2000/svg" width="48" height="48" viewBox="0 -960 960 960"><path d="M145.087-145.869q-32.478 0-55.848-23.37-23.37-23.37-23.37-55.848v-509.826q0-32.478 23.37-56.131 23.37-23.652 55.848-23.652h669.826q32.478 0 56.131 23.652 23.652 23.653 23.652 56.131v299.696q-29.391-20.218-64.044-17.348-34.652 2.869-60.609 28.826l-165.825 164.26-51.13-52.26Q524.262-340 482.87-340.565q-41.391-.565-69.652 28.261-28.827 28.261-28.827 69.652 0 41.392 28.827 70.218l26.565 26.565H145.087Zm0-495.261v139h669.826v-139H145.087Zm459.131 466.651 207.825-207.26q11.261-11.261 27.153-11.044 15.891.218 27.152 11.479 10.826 11.261 11.044 26.935.217 15.674-11.044 26.935L632.566-93.652Q620.74-81.826 604.5-81.826q-16.239 0-28.065-11.826L455.218-215.434q-11.827-11.826-11.327-27.718.5-15.891 12.327-27.152 11.261-11.826 27.152-11.544 15.892.283 27.718 12.109l93.13 95.26Z"/></svg>