<svg xmlns="http://www.w3.org/2000/svg" width="48" height="48" viewBox="0 -960 960 960"><path d="M528.61-411.39V-461H414.16q-16.08 0-26.82-10.73-10.73-10.74-10.73-26.87v-67.2q0-17.12 10.23-27.36 10.24-10.23 27.16-10.23h142q11.47 0 19.43 8.08 7.96 8.07 7.96 19.26 0 11.18-7.96 19.31-7.96 8.13-19.43 8.13H431.39V-499h114.45q16.08 0 26.82 10.73 10.73 10.74 10.73 26.87v67.2q0 17.12-10.23 27.36-10.24 10.23-27.16 10.23H404q-11.47 0-19.43-8.08-7.96-8.07-7.96-19.26 0-11.18 7.96-19.31 7.96-8.13 19.43-8.13h124.61Zm260 0V-461H674.16q-16.08 0-26.82-10.73-10.73-10.74-10.73-26.87v-67.2q0-17.12 10.23-27.36 10.24-10.23 27.16-10.23h142q11.47 0 19.43 8.08 7.96 8.07 7.96 19.26 0 11.18-7.96 19.31-7.96 8.13-19.43 8.13H691.39V-499h114.45q16.08 0 26.82 10.73 10.73 10.74 10.73 26.87v67.2q0 17.12-10.23 27.36-10.24 10.23-27.16 10.23H664q-11.47 0-19.43-8.08-7.96-8.07-7.96-19.26 0-11.18 7.96-19.31 7.96-8.13 19.43-8.13h124.61Zm-635.18 54.78q-15.2 0-26.01-10.73-10.81-10.74-10.81-26.66v-172q0-15.44 10.81-26.42 10.81-10.97 26.01-10.97h139q15.45 0 26.42 10.97 10.98 10.98 10.98 26.42v26.37q0 11.92-7.95 19.17-7.95 7.24-19.21 7.24-12.37 0-19.71-7.46-7.35-7.46-7.35-19.93v-8H170.83v137.22h104.78v-8q0-11.13 7.3-18.98t19.52-7.85q11.14 0 19.27 7.78 8.13 7.78 8.13 18.82V-394q0 15.92-10.98 26.66-10.97 10.73-26.42 10.73h-139Z"/></svg>