<svg xmlns="http://www.w3.org/2000/svg" width="48" height="48" viewBox="0 -960 960 960"><path d="M528.609-411.391V-461H414.164q-16.536 0-27.046-10.51-10.509-10.51-10.509-27.086v-67.2q0-17.126 10.234-27.361 10.235-10.234 27.157-10.234h142q11.87 0 19.631 7.745 7.76 7.747 7.76 19.593 0 11.847-7.76 19.646-7.761 7.798-19.631 7.798H431.391V-499h114.445q16.536 0 27.046 10.51 10.509 10.51 10.509 27.086v67.2q0 17.126-10.234 27.361-10.235 10.234-27.157 10.234H404q-11.87 0-19.631-7.746-7.76-7.746-7.76-19.592 0-11.847 7.76-19.646 7.761-7.798 19.631-7.798h124.609Zm260 0V-461H674.164q-16.536 0-27.046-10.51-10.509-10.51-10.509-27.086v-67.2q0-17.126 10.234-27.361 10.235-10.234 27.157-10.234h142q11.87 0 19.631 7.745 7.76 7.747 7.76 19.593 0 11.847-7.76 19.646-7.761 7.798-19.631 7.798H691.391V-499h114.445q16.536 0 27.046 10.51 10.509 10.51 10.509 27.086v67.2q0 17.126-10.234 27.361-10.235 10.234-27.157 10.234H664q-11.87 0-19.631-7.746-7.76-7.746-7.76-19.592 0-11.847 7.76-19.646 7.761-7.798 19.631-7.798h124.609Zm-635.174 54.782q-15.651 0-26.239-10.509-10.587-10.51-10.587-26.882v-172q0-15.891 10.587-26.641 10.588-10.75 26.239-10.75h139q15.891 0 26.641 10.75 10.75 10.75 10.75 26.641v26.367q0 11.441-8.146 18.928-8.147 7.488-19.009 7.488-12.367 0-19.715-7.461-7.347-7.461-7.347-19.931v-8H170.826v137.218h104.783v-8q0-10.731 7.3-18.779 7.301-8.048 19.446-8.048 11.21 0 19.341 7.98 8.13 7.98 8.13 18.62V-394q0 16.372-10.75 26.882-10.75 10.509-26.641 10.509h-139Z"/></svg>