<svg xmlns="http://www.w3.org/2000/svg" width="48" height="48" viewBox="0 -960 960 960"><path d="M440.391-145.478v-236.913H270q-16.707 0-28.158-11.501-11.451-11.502-11.451-28.283 0-16.782 11.451-28.108T270-461.609h159.477L218.26-793.435q-13.391-20.087-1.756-40.674 11.634-20.587 36.235-20.587 10.349 0 19.228 5.38 8.878 5.379 14.251 13.707L480-529.088l194.348-307.086q4.837-8.328 13.77-13.425 8.934-5.097 19.915-5.097 23.446 0 34.989 20.587 11.544 20.587-1.282 40.674L531.088-461.609H690q16.707 0 28.158 11.501 11.451 11.502 11.451 28.283 0 16.782-11.451 28.108T690-382.391H519.609v236.913q0 16.707-11.501 28.158-11.502 11.451-28.283 11.451-16.782 0-28.108-11.451t-11.326-28.158Z"/></svg>