<svg xmlns="http://www.w3.org/2000/svg" width="48" height="48" viewBox="0 -960 960 960"><path d="M160.914-559q0 93.26 49.652 170.064 49.652 76.804 133.782 114.543 14.261 8.392 19.761 23.848 5.5 15.457-2.761 29.283-9.696 15.392-26.37 20.022-16.674 4.631-32.37-4.761-102.087-48.565-162.282-144.391-60.195-95.826-60.195-210.173 0-27.478 4.434-55.239Q89-643.565 97.74-670.608l-33.913 19.174q-12.13 7.13-24.196.674-12.065-6.457-19.195-19.718-8.261-14.392-4.413-30.066 3.848-15.674 18.239-23.369l121.565-70.566q13.826-7.695 29.783-3.848 15.957 3.848 24.218 18.24l69.435 120.565q7.695 14.392 3.848 30.348-3.848 15.957-18.24 23.653-14.391 7.695-30.348 3.848-15.957-3.848-23.652-18.24l-28.869-48.694q-10.044 26.217-15.565 53.869-5.522 27.651-5.522 55.738ZM480-879.086q-47.956 0-91.977 14.891-44.022 14.891-81.673 43.674-15.522 8-31.979 5.239t-24.153-17.153q-8.695-14.826-5.13-32.5 3.565-17.674 18.522-25.674 46.913-33.478 101.76-50.869Q420.218-958.87 479-958.87q81.913 0 156.739 32.674 74.826 32.674 130.13 91.456v-39.782q0-14.13 12.174-21.783 12.174-7.652 28-7.652 16.957 0 28.283 11.327 11.326 11.326 11.326 28.282v140q0 17.522-11.326 28.849-11.326 11.326-28.283 11.326h-140q-17.522 0-28.848-11.326-11.326-11.327-11.326-28.849 0-16.956 11.326-28.282 11.326-11.327 28.848-11.327h56.173q-44.044-54.695-107.5-84.912Q551.26-879.086 480-879.086Zm245.217 523.215q41.391-47.391 58.586-106.673 17.196-59.282 8.457-120.15.826-16.957 11.717-29.218 10.892-12.261 26.849-12.261 17.956 0 30.5 13.043 12.544 13.044 12.848 31.436 5.739 71.956-14.565 139.977-20.305 68.021-65.087 124.804-41.739 52.869-96.348 88.369-54.608 35.5-119.782 51.761l34.043 19.174q12.131 7.13 12.935 21.957.804 14.826-6.891 28.087-8.261 14.391-23.718 18.022-15.457 3.63-29.848-4.63l-121.435-70.001q-14.391-7.696-18.522-23.935-4.13-16.239 4.131-30.631l70-119.434q7.695-14.392 23.935-18.522 16.239-4.131 30.63 4.13 13.827 7.696 17.457 23.153 3.631 15.456-4.065 29.283l-27.173 48.868q53.956-8.827 101.76-36.479t83.586-70.13Z"/></svg>