<svg xmlns="http://www.w3.org/2000/svg" width="48" height="48" viewBox="0 96 960 960"><path d="M735.869 826.391V325.609h-99.826q-17.272 0-28.723-11.501-11.451-11.502-11.451-28.283 0-16.782 11.451-28.108t28.723-11.326h99.991q32.498 0 56.058 23.277 23.56 23.278 23.56 55.941v500.782q0 32.663-23.443 55.941-23.444 23.277-56.34 23.277h-99.826q-17.272 0-28.723-11.501-11.451-11.502-11.451-28.283 0-16.782 11.451-28.108t28.723-11.326h99.826Zm-500.217 0h100.391q16.707 0 28.158 11.501 11.451 11.502 11.451 28.283 0 16.782-11.451 28.108t-28.158 11.326H235.652q-32.663 0-56.223-23.277-23.56-23.278-23.56-55.941V325.609q0-32.663 23.56-55.941 23.56-23.277 56.223-23.277h100.391q16.707 0 28.158 11.501 11.451 11.502 11.451 28.283 0 16.782-11.451 28.108t-28.158 11.326H235.652v500.782Z"/></svg>