<svg xmlns="http://www.w3.org/2000/svg" width="48" height="48" viewBox="0 96 960 960"><path d="M480.944 731.218q-15.417 0-25.789-10.413-10.373-10.412-10.373-25.805v-84.782H360q-15.393 0-25.805-10.429-10.413-10.429-10.413-25.845 0-15.417 10.413-25.789 10.412-10.373 25.805-10.373h84.782V453q0-15.393 10.429-25.805 10.429-10.413 25.845-10.413 15.417 0 25.789 10.413 10.373 10.412 10.373 25.805v84.782H601q15.393 0 25.805 10.429 10.413 10.429 10.413 25.845 0 15.417-10.413 25.789-10.412 10.373-25.805 10.373h-83.782V695q0 15.393-10.429 25.805-10.429 10.413-25.845 10.413Zm374.491 23.13-104.957-59.739q12-31 17.717-59.805 5.718-28.804 5.718-58.909 0-114.041-75.37-197.707Q623.174 294.522 512 285.087V163.304q163.783 11 273.74 129.101Q895.696 410.505 895.696 572q0 45-10.63 92.174-10.631 47.174-29.631 90.174ZM481.304 990.131q-86.17 0-161.325-32.39-75.155-32.391-131.536-88.306-56.38-55.914-88.977-131.479-32.597-75.565-32.597-160.99 0-163.479 110.174-281.788T452 164.304v121.783q-112.336 9.916-188.125 93.789-75.788 83.874-75.788 197.261 0 121.174 85.587 206.475Q359.261 868.913 481 868.913q72 0 133.739-31.652 61.739-31.652 106.739-90.652l104.957 61.739Q767.87 893.609 676.916 941.87q-90.954 48.261-195.612 48.261Z"/></svg>