<svg xmlns="http://www.w3.org/2000/svg" width="48" height="48" viewBox="0 96 960 960"><path d="M730.391 826.391V325.609H630q-16.707 0-28.158-11.501-11.451-11.502-11.451-28.283 0-16.782 11.451-28.108T630 246.391h100.391q32.663 0 55.941 23.277 23.277 23.278 23.277 55.941v500.782q0 32.663-23.277 55.941-23.278 23.277-55.941 23.277H630q-16.707 0-28.158-11.501-11.451-11.502-11.451-28.283 0-16.782 11.451-28.108T630 826.391h100.391Zm-500.782 0H330q16.707 0 28.158 11.501 11.451 11.502 11.451 28.283 0 16.782-11.451 28.108T330 905.609H229.609q-32.663 0-55.941-23.277-23.277-23.278-23.277-55.941V325.609q0-32.663 23.277-55.941 23.278-23.277 55.941-23.277H330q16.707 0 28.158 11.501 11.451 11.502 11.451 28.283 0 16.782-11.451 28.108T330 325.609H229.609v500.782Z"/></svg>