<svg xmlns="http://www.w3.org/2000/svg" width="48" height="48" viewBox="0 -960 960 960"><path d="M240.105-360.609q-18.027 0-29.762-11.629-11.734-11.63-11.734-29.657t11.629-29.762q11.63-11.734 29.657-11.734t29.762 11.629q11.734 11.63 11.734 29.657t-11.629 29.762q-11.63 11.734-29.657 11.734Zm0 162q-18.027 0-29.762-11.629-11.734-11.63-11.734-29.657t11.629-29.762q11.63-11.734 29.657-11.734t29.762 11.629q11.734 11.63 11.734 29.657t-11.629 29.762q-11.63 11.734-29.657 11.734Zm0-318q-18.027 0-29.762-11.629-11.734-11.63-11.734-29.657t11.629-29.762q11.63-11.734 29.657-11.734t29.762 11.629q11.734 11.63 11.734 29.657t-11.629 29.762q-11.63 11.734-29.657 11.734Zm-119.024-17q-10.777 0-17.625-6.767-6.847-6.767-6.847-17.543 0-10.777 6.767-17.625 6.767-6.847 17.543-6.847 10.777 0 17.625 6.767 6.847 6.767 6.847 17.543 0 10.777-6.767 17.625-6.767 6.847-17.543 6.847Zm119.024-145q-18.027 0-29.762-11.629-11.734-11.63-11.734-29.657t11.629-29.762q11.63-11.734 29.657-11.734t29.762 11.629q11.734 11.63 11.734 29.657t-11.629 29.762q-11.63 11.734-29.657 11.734Zm-119.024 301q-10.777 0-17.625-6.767-6.847-6.767-6.847-17.543 0-10.777 6.767-17.625 6.767-6.847 17.543-6.847 10.777 0 17.625 6.767 6.847 6.767 6.847 17.543 0 10.777-6.767 17.625-6.767 6.847-17.543 6.847Zm281 281q-10.777 0-17.625-6.767-6.847-6.767-6.847-17.543 0-10.777 6.767-17.625 6.767-6.847 17.543-6.847 10.777 0 17.625 6.767 6.847 6.767 6.847 17.543 0 10.777-6.767 17.625-6.767 6.847-17.543 6.847Zm0-718q-10.777 0-17.625-6.767-6.847-6.767-6.847-17.543 0-10.777 6.767-17.625 6.767-6.847 17.543-6.847 10.777 0 17.625 6.767 6.847 6.767 6.847 17.543 0 10.777-6.767 17.625-6.767 6.847-17.543 6.847Zm.024 136q-18.027 0-29.762-11.629-11.734-11.63-11.734-29.657t11.629-29.762q11.63-11.734 29.657-11.734t29.762 11.629q11.734 11.63 11.734 29.657t-11.629 29.762q-11.63 11.734-29.657 11.734Zm-.105 334q-23.63 0-40.511-16.88-16.88-16.881-16.88-40.511 0-23.63 16.88-40.511 16.881-16.88 40.511-16.88 23.63 0 40.511 16.88 16.88 16.881 16.88 40.511 0 23.63-16.88 40.511-16.881 16.88-40.511 16.88Zm0-156q-23.63 0-40.511-16.88-16.88-16.881-16.88-40.511 0-23.63 16.88-40.511 16.881-16.88 40.511-16.88 23.63 0 40.511 16.88 16.88 16.881 16.88 40.511 0 23.63-16.88 40.511-16.881 16.88-40.511 16.88Zm.105 302q-18.027 0-29.762-11.629-11.734-11.63-11.734-29.657t11.629-29.762q11.63-11.734 29.657-11.734t29.762 11.629q11.734 11.63 11.734 29.657t-11.629 29.762q-11.63 11.734-29.657 11.734ZM844.696-480q0 136.514-87.565 237.779-87.565 101.265-217.826 121.656-19.522 3.696-34.414-9.554Q490-143.369 490-164.739v-631.087q0-19.841 14.891-33.291 14.892-13.449 34.414-10.884 130.261 20.957 217.826 122.222Q844.696-616.514 844.696-480Z"/></svg>