<svg xmlns="http://www.w3.org/2000/svg" width="48" height="48" viewBox="0 -960 960 960"><path d="M687.739-152.609q11.261 0 19.174-7.413t7.913-19.674q0-12.261-7.913-19.956-7.913-7.696-19.174-7.696-12.261 0-19.674 7.696-7.413 7.695-7.413 19.956t7.413 19.674q7.413 7.413 19.674 7.413Zm-.283-96.87q8.848 0 14.761-6.017 5.913-6.018 5.913-15.374v-101.217q0-9.357-6.13-14.874-6.13-5.518-15.261-5.518-9.13 0-14.761 6.018-5.63 6.017-5.63 15.374v101.217q0 9.356 5.791 14.874 5.791 5.517 15.317 5.517ZM440.391-886.305q18.522-10.261 39.609-10.261 21.087 0 39.609 10.261l294.913 170.174q19.087 10.826 29.631 29.465 10.543 18.639 10.543 39.492v164.044q-34.261-27.218-76.161-43.457-41.901-16.239-89.796-16.239-9.217 0-17.506 1.394-8.289 1.395-15.362 2.78l119.042-70.043v-38.47l-41.914-23.531L480-523.044 226.001-670.696l-40.914 23.531v39.47l257.565 148.652v72.826q-12.304 26.304-18.609 54.922-6.304 28.618-6.304 59.469 0 63.032 24.739 116.56 24.74 53.528 68.088 92.789-18.218 4-36.153.804-17.935-3.196-34.022-12.587L145.478-243.87q-19.087-10.826-29.348-29.465t-10.261-39.492v-334.348q0-20.853 10.261-39.492 10.261-18.639 29.348-29.465l294.913-170.174ZM687.739-82.826q-78 0-134-55.5t-56-133.5q0-79 56-135t134-56q77.435 0 133.717 56 56.283 56 56.283 135 0 78-56.283 133.5-56.282 55.5-133.717 55.5Z"/></svg>