<svg xmlns="http://www.w3.org/2000/svg" width="48" height="48" viewBox="0 -960 960 960"><path d="M440.391-74.26 145.478-243.87q-19.337-11.252-29.473-29.678-10.136-18.426-10.136-39.279v-334.348q0-20.853 10.136-39.279 10.136-18.426 29.473-29.678l294.913-170.174q18.85-10.261 39.773-10.261 20.923 0 39.445 10.261l294.913 170.174q19.337 11.252 29.756 29.678 10.418 18.426 10.418 39.279v334.348q0 20.853-10.418 39.279-10.419 18.426-29.756 29.678L519.609-74.26q-18.85 10.826-39.773 10.826-20.923 0-39.445-10.826Zm2.261-384.571v294.091L480-143.218l37.913-21.522v-294.253l257-149.702v-38.47l-41.914-23.531L480-523.044 226.001-670.696l-40.914 23.187v39.814l257.565 148.864Z"/></svg>