<svg xmlns="http://www.w3.org/2000/svg" width="48" height="48" viewBox="0 -960 960 960"><path d="M678.74-106.63q-7.7-2.07-14.39-5.63L536.13-187.3q-14.39-8.26-22.15-22.16-7.76-13.89-7.76-29.84v-149.66q0-16.52 7.76-30.41t22.15-22.15L664.91-516q6.7-3.57 14.39-5.35 7.7-1.78 15.11-1.78 7.42 0 14.61 1.5 7.2 1.5 14.46 5.63l128.22 74.48q13.82 8.26 22.37 22.15 8.54 13.89 8.54 30.41v149.66q0 15.95-8.26 29.84-8.26 13.9-22.65 22.16l-128.22 75.04q-6.7 4.13-13.89 5.91-7.2 1.79-15.18 1.79-7.97 0-15.67-2.07Zm-533.65-35.89q-33.48 0-56.35-23.15-22.87-23.16-22.87-56.07v-30.04q0-41.22 21.46-72.05 21.45-30.82 54.45-46.39 62.13-27.56 121.55-42.78 59.41-15.22 128.1-17.78 7.14-.57 12.77 2.28 5.63 2.85 9.19 8.98 3.57 6.13 4.57 12.54 1 6.41-1.57 13.55-6.69 22.26-9.48 46.45-2.78 24.2-2.78 49.46 0 32.13 5.28 61.69 5.29 29.57 15.42 53.7 3.13 6.7 2.63 13.89-.5 7.2-3.07 13.33-2.56 6.13-8.19 9.26-5.63 3.13-12.33 3.13H145.09ZM281.83-538.3q-45.96-45.96-45.96-118.18t45.96-118.17q45.95-45.96 118.17-45.96t118.46 45.96q46.24 45.95 46.24 118.17T518.46-538.3Q472.22-492.35 400-492.35T281.83-538.3Zm315.39 130.26 97.48 56.61 96.91-56.61-96.91-56.18-97.48 56.18Zm126.43 226.3 99.92-56.61V-355.3l-99.92 59.17v114.39Zm-158.39-56.61 99.91 58.61v-115.39l-99.91-58.17v114.95Z"/></svg>