<svg xmlns="http://www.w3.org/2000/svg" width="48" height="48" viewBox="0 -960 960 960"><path d="M92.868-436.739v-88.087h79.784v88.087H92.868Zm167.784 343.87v-79.783h88.087v79.784h-88.087Zm176.087-695.044v-79.219h88.087v79.219h-88.087Zm351.174 0v-79.219q31.914 1 55.566 23.984 23.653 22.984 23.653 55.235h-79.219ZM172.652-92.868q-32.74-1-56.262-23.853t-23.522-55.931h79.784v79.784ZM92.868-260.652v-88.087h79.784v88.087H92.868ZM436.74-92.868v-79.784h88.087v79.784H436.74ZM787.913-436.74v-88.087h79.219v88.087h-79.219Zm0-175.087v-88.087h79.219v88.087h-79.219ZM611.826-787.913v-79.219h88.087v79.219h-88.087Zm-263.087-79.219v79.219h-78.478l-9.609-10.175v-69.044h88.087Zm518.393 518.393v88.087h-69.044l-10.175-9.609v-78.478h79.219ZM339.87-339.87h188.999L339.87-528.869v188.999ZM611.826-92.868v-79.784h88.087v79.784h-88.087Zm88.087-256.002-79.783-79.218V-620.13H428.088l-79.218-79.783h310.869q16.636 0 28.405 11.769 11.769 11.769 11.769 28.405v310.869ZM92.868-611.826v-88.087h79.784v88.087H92.868ZM835.566-34.173 608.652-260.652H300.261q-16.707 0-28.158-11.451t-11.451-28.158v-308.391L44.173-825.566q-10.13-10.413-10.13-23.805t9.763-22.875q10.008-9.407 23.351-9.407 13.344 0 22.973 9.565L882.088-80.695q9.565 9.565 9.565 23.26 0 13.697-9.565 23.629-9.565 9.763-23.261 9.763t-23.261-10.13Z"/></svg>