<svg xmlns="http://www.w3.org/2000/svg" width="48" height="48"><path d="M4.65 26.15v-4.4h4v4.4zm8.4 17.2v-4h4.4v4zm8.8-34.75V4.65h4.4V8.6zm17.55 0V4.65q1.6.05 2.775 1.2Q43.35 7 43.35 8.6zM8.65 43.35Q7 43.3 5.825 42.15 4.65 41 4.65 39.35h4zm-4-8.4v-4.4h4v4.4zm17.2 8.4v-4h4.4v4zm17.55-17.2v-4.4h3.95v4.4zm0-8.75V13h3.95v4.4zm-8.8-8.8V4.65H35V8.6zM17.45 4.65V8.6h-3.7l-.7-.75v-3.2zm25.9 25.9v4.4h-3.2l-.75-.7v-3.7zM17 31h9.45L17 21.55zm13.6 12.35v-4H35v4zm4.4-12.8-4-3.95V17h-9.6l-3.95-4H33q.8 0 1.4.6.6.6.6 1.4zM4.65 17.4V13h4v4.4zM41.8 46.3 30.45 34.95H15q-.8 0-1.375-.575T13.05 33V17.55L2.2 6.7q-.5-.5-.5-1.175T2.2 4.4q.5-.5 1.175-.5t1.125.5l39.6 39.55q.5.5.5 1.175t-.5 1.175q-.45.5-1.15.5t-1.15-.5z"/></svg>