<svg xmlns="http://www.w3.org/2000/svg" width="48" height="48" viewBox="0 96 960 960"><path d="M382.044 996.914q-26.365 0-36.617-24.435-10.253-24.435 8.834-43.522l58.391-58.826H140q-30.579 0-52.355-21.776Q65.869 826.579 65.869 796V276q0-30.417 21.776-52.557Q109.42 201.304 140 201.304h680q30.417 0 52.557 22.139 22.139 22.14 22.139 52.557v520q0 30.579-22.139 52.355-22.14 21.776-52.557 21.776H547.913l57.826 58.826q19.087 19.087 8.834 43.522t-36.617 24.435H382.044ZM145.087 700h669.826V281.087H145.087V700Zm0 0V281.087 700Z"/></svg>