<svg xmlns="http://www.w3.org/2000/svg" width="48" height="48" viewBox="0 -960 960 960"><path d="M134.913-851.305v94.479l-92.696-92.696q-10.13-9.565-9.63-23.196.5-13.63 10.63-23.761 10.13-10.13 23.261-10.13 13.13 0 23.261 10.13l759.305 757.74q10.13 10.13 9.848 23.261-.283 13.13-10.413 23.261-10.131 10.13-23.761 10.13-13.631 0-23.196-10.13l-140.87-139.87H546.218v100h46.391q16.956 0 28.282 11.327 11.327 11.326 11.327 28.283 0 17.522-11.327 28.848-11.326 11.326-28.282 11.326H367.391q-16.956 0-28.282-11.326-11.327-11.326-11.327-28.848 0-16.957 11.327-28.283 11.326-11.327 28.282-11.327h46.391v-100H145.087q-32.478 0-55.848-23.369-23.37-23.37-23.37-55.849v-463.608q0-31.913 23.022-54.153 23.022-22.239 46.022-22.239Zm703.088 617.088L215.956-854.696h599.957q31.478 0 55.631 24.152 24.152 24.153 24.152 55.631v469.826q0 26.826-16.782 47.087-16.783 20.261-40.913 23.783Z"/></svg>