<svg xmlns="http://www.w3.org/2000/svg" width="48" height="48" viewBox="0 -960 960 960"><path d="M412.652-232.087H145.087q-32.507 0-55.862-23.355-23.356-23.356-23.356-55.863v-463.608q0-32.74 23.356-56.262 23.355-23.521 55.862-23.521h669.826q32.74 0 56.262 23.521 23.521 23.522 23.521 56.262v463.608q0 32.507-23.521 55.863-23.522 23.355-56.262 23.355h-267l77.9 79.465q.97.847 6.1 13.904v13.056q0 8.704-5.565 14.249-5.566 5.544-14.826 5.544h-268.82q-6.566 0-10.308-3.828-3.742-3.829-3.742-10.137v-21.028q0-.906 4.565-10.79l79.435-80.435ZM145.087-390.913h669.826v-384H145.087v384Zm0 0v-384 384Z"/></svg>