<svg xmlns="http://www.w3.org/2000/svg" width="48" height="48" viewBox="0 96 960 960"><path d="M440.391 950.131V730.348h79.218v219.783h-79.218Zm350.74-111.608L636 683.957l56.131-56.566 154.566 155.566-55.566 55.566Zm-622.262 0-55.566-55.566 154.566-155.566L325 683.957 168.869 838.523Zm.391-524.002h622.045v-60H169.26v60Zm147.479 139.783h327.155l17.367-60H298.739l18 60Zm0 79.219q-27.413 0-48.816-16.43-21.402-16.43-28.533-42.528l-23.304-80.261H169.26q-33.214 0-56.499-23.284-23.284-23.285-23.284-56.499V175.302h781.046v139.219q0 33.464-23.27 56.624-23.27 23.159-55.948 23.159h-47.391l-26.043 81.566q-7.498 25.728-29.121 41.69-21.623 15.963-48.793 15.963H316.739ZM169.26 314.521v-60 60Z"/></svg>