<svg xmlns="http://www.w3.org/2000/svg" width="48" height="48" viewBox="0 -960 960 960"><path d="M479.825-88.911q-16.782 0-28.108-11.452-11.326-11.451-11.326-28.158v-140q0-16.706 11.501-28.158 11.502-11.451 28.283-11.451 16.782 0 28.108 11.451 11.326 11.452 11.326 28.158v140q0 16.707-11.501 28.158-11.502 11.452-28.283 11.452Zm339.089-138.827q-11.826 11.827-27.783 12.109-15.957.283-27.783-11.543l-99-99.566q-11.826-11.261-11.609-27.5.218-16.239 12.109-28.631 11.402-11.826 27.787-11.543 16.386.282 28.844 12.108l98 99q10.827 11.827 11.044 27.77.217 15.944-11.609 27.796Zm-677.828 0q-11.826-11.826-12.109-27.783-.283-15.956 12.109-27.783l99-100q11.826-11.826 28.025-11.826 16.199 0 28.066 11.879 11.866 11.879 11.584 28.453-.283 16.573-12.109 28.626l-99 99q-11.826 10.826-27.77 11.043-15.944.218-27.796-11.609ZM168.13-791.87v60h623.74v-60H168.13Zm130.609 139.218 18 60h327.155l17.367-60H298.739Zm18 139.784q-27.413 0-48.816-16.43-21.402-16.429-28.533-43.093l-23.304-80.261H168.13q-33.257 0-56.238-22.981-22.98-22.98-22.98-56.237v-60q0-33.49 22.98-56.637 22.981-23.147 56.238-23.147h623.74q33.49 0 56.637 23.147t23.147 56.637v60q0 33.257-23.147 56.237-23.147 22.981-56.637 22.981h-47.956l-26.043 82.131q-7.336 25.805-29.04 41.729t-48.874 15.924H316.739ZM168.13-791.87v60-60Z"/></svg>