<svg xmlns="http://www.w3.org/2000/svg" width="48" height="48" viewBox="0 96 960 960"><path d="M438 950.131 295.869 808 353 752.434l85 84.435 169-170L664.131 724 438 950.131ZM316.739 454.304h327.087l17.435-60H298.739l18 60Zm0 79.219q-27.413 0-48.816-16.43-21.402-16.43-28.533-42.528l-23.304-80.261H169.26q-33.228 0-56.506-23.277-23.277-23.278-23.277-56.506V175.302h781.046v139.219q0 33.478-23.277 56.631-23.278 23.152-55.941 23.152h-47.391l-26.043 81.566q-7.498 25.728-29.121 41.69-21.623 15.963-48.793 15.963H316.739Z"/></svg>