<svg xmlns="http://www.w3.org/2000/svg" width="48" height="48" viewBox="0 96 960 960"><path d="M266.218 919.782v30h427.564v-30H266.218Zm0-687.564h427.564v-30H266.218v30Zm-79.219 121.173V202.218q0-31.507 23.856-55.363 23.856-23.856 55.363-23.856h427.564q31.507 0 55.363 23.856 23.856 23.856 23.856 55.363v151.173h-79.219v-61.173H266.218v61.173h-79.219ZM266.218 1029q-31.507 0-55.363-23.36-23.856-23.351-23.856-55.858V786.609h79.219v73.173h427.564v-73.173h79.219v163.173q0 32.507-23.856 55.858-23.856 23.36-55.363 23.36H266.218Zm333.304-299.913q-9.946-10.131-10.321-23.544t9.756-23.544L704.956 576 598.957 470.001q-10.131-10.131-9.631-23.544t10.446-23.664q9.829-9.728 23.485-9.804 13.656-.076 23.222 9.49l125.738 125.738q6.028 5.904 8.927 13.052t2.899 14.864q0 7.717-2.899 14.731-2.899 7.015-8.927 12.919L646.479 729.521q-9.896 9.566-23.644 9.348-13.748-.217-23.313-9.782Zm-286.001.434L187.783 603.783q-6.028-5.904-8.927-13.052t-2.899-14.864q0-7.717 2.899-14.731 2.899-7.015 8.927-12.919l125.738-125.738q9.896-9.566 23.644-9.348 13.748.217 23.878 9.782 9.381 10.131 9.756 23.544t-9.756 23.544L255.044 576l105.999 105.999q10.131 10.131 9.631 23.544t-9.881 23.664q-9.979 9.728-23.843 9.804-13.863.076-23.429-9.49Zm-47.303 220.261v-30 30Zm0-747.564v30-30Z"/></svg>