<svg xmlns="http://www.w3.org/2000/svg" width="48" height="48" viewBox="0 96 960 960"><path d="M480 771.782q-15 0-25.5-10.5t-10.5-25.5q0-15 10.5-25.5t25.5-10.5q14.435 0 25.217 10.5 10.783 10.5 10.783 25.5t-10.5 25.5q-10.5 10.5-25.5 10.5Zm-.413-120.521q-10.479 0-17.533-7.5-7.054-7.5-6.054-17.5 1.946-27.699 10.756-43.219 8.809-15.52 31.244-29.955 30.565-19.435 39.783-32.261Q547 507.999 547 479.218q0-29.221-18-45.394-18-16.172-49-16.172-24.565 0-40.565 11.82-16 11.819-25 27.311-4.316 9-13.356 13-9.039 4-17.079 1-11.565-4-15.565-14.283-4-10.282 1.565-19.848 17.565-30.434 44.957-48.934 27.392-18.5 65.243-18.5 49.8 0 83.865 29t34.065 81q0 34-13 54.934-13 20.935-48 46.935-16.434 10.304-22.217 19.304-5.783 9-7.783 25.87-2.695 11-9.86 18-7.164 7-17.683 7ZM266.218 1029q-32.928 0-56.073-23.14-23.146-23.15-23.146-56.078V202.218q0-32.928 23.146-56.073 23.145-23.146 56.073-23.146h427.564q32.928 0 56.073 23.146 23.146 23.145 23.146 56.073v747.564q0 32.928-23.146 56.078Q726.71 1029 693.782 1029H266.218Zm0-169.218h427.564V292.218H266.218v567.564Z"/></svg>