<svg xmlns="http://www.w3.org/2000/svg" width="48" height="48" viewBox="0 -960 960 960"><path d="M139.435-784.913h346.999v-30H139.435v30Zm0 719.044q-32.74 0-56.262-23.356Q59.65-112.58 59.65-145.087v-669.826q0-32.74 23.522-56.262 23.522-23.521 56.262-23.521h346.999q32.74 0 56.262 23.521 23.522 23.522 23.522 56.262v165.565q0 16.707-11.834 28.158-11.834 11.452-28.566 11.452-16.731 0-28.058-11.452-11.326-11.451-11.326-28.158v-75.565H139.435v489.826h282.404q11.77 0 20.77 9t9 21.363q0 11.637-8 20.637t-21.77 9H139.435v30h375.391q16.706 0 28.158 11.501 11.451 11.502 11.451 28.283 0 16.782-11.451 28.108-11.452 11.326-28.158 11.326H139.435ZM706.952-221.13q62.439 0 106.613-43.69 44.174-43.689 44.174-106.128 0-62.44-43.895-106.419-43.894-43.98-106.499-43.98t-106.496 43.778q-43.892 43.777-43.892 106.217 0 62.439 43.778 106.33 43.778 43.892 106.217 43.892ZM665.827-65.869q-16.707 0-28.158-11.451t-11.451-28.158v-55.391q-64.261-24.565-104.392-80.927-40.13-56.363-40.13-129.066 0-73.355 40.13-129.768 40.131-56.413 104.392-80.979v-55.39q0-16.707 11.451-28.158 11.451-11.452 28.158-11.452h83.043q16.706 0 28.157 11.452 11.452 11.451 11.452 28.158v55.39q63.752 24.781 104.137 80.993 40.385 56.211 40.385 129.283 0 73.073-40.385 129.378-40.385 56.305-104.137 81.086v55.391q0 16.707-11.452 28.158-11.451 11.45-28.157 11.45h-83.043ZM143.391-175.087v30-30Zm-3.956-609.826v-30 30Z"/></svg>