<svg xmlns="http://www.w3.org/2000/svg" width="48" height="48" viewBox="0 -960 960 960"><path d="M796.13-105.869q-119.391 0-242.435-57.13-123.043-57.131-227.739-161.827-105.261-105.261-162.674-228.587-57.413-123.326-57.413-242.152 0-24.653 16.957-41.892 16.956-17.239 41.609-17.239h140q23.609 0 38.979 13.674 15.37 13.674 21.065 37.718l27 116.956q3.131 20.783-1.065 37.087-4.196 16.305-16.718 27.696l-102.261 97.609q23.739 39.478 50.478 74.086 26.739 34.609 60.044 66.348 34.739 36.304 71.499 64.695 36.761 28.392 76.109 49l97.826-99.696q13.957-14.956 31.479-20.087 17.521-5.13 36.739-.869l107.695 24.304q24.044 6.826 37.718 23.348 13.674 16.522 13.674 40.001v138.391q0 24.653-17.239 41.609-17.239 16.957-41.327 16.957ZM490.913-646.87q-7.565 0-12.347-5.283-4.783-5.282-4.783-12.848 0-7.565 5.283-12.63 5.282-5.065 12.847-5.065h67.87v-50.174h-67.87q-7.565 0-12.847-5.283-5.283-5.282-5.283-12.848v-86q0-7.565 5.283-12.63 5.282-5.065 12.847-5.065h86q7.566 0 12.631 5.065t5.065 12.63q0 7.566-5.065 12.848-5.065 5.283-12.631 5.283h-68.304v50.174h68.304q7.566 0 12.631 5.065t5.065 12.63v86q0 7.566-5.565 12.848-5.565 5.283-13.131 5.283h-86Zm174.827 0q-7.566 0-12.848-4.783-5.283-4.782-5.283-12.348v-173q0-7.565 5.283-12.63 5.282-5.065 12.848-5.065 7.565 0 12.348 5.065 4.782 5.065 4.782 12.63v173q0 7.566-4.782 12.348-4.783 4.783-12.348 4.783Zm87.261 0q-7.566 0-12.848-5.283-5.283-5.282-5.283-12.848v-172q0-7.565 5.283-12.63 5.282-5.065 12.848-5.065h86q7.565 0 12.63 5.065t5.065 12.63v86q0 7.566-5.065 12.848-5.065 5.283-12.63 5.283h-68.305v68.869q0 7.566-5.065 12.348-5.065 4.783-12.63 4.783Zm17.695-121.826h50.174v-50.174h-50.174v50.174Z"/></svg>