<svg xmlns="http://www.w3.org/2000/svg" width="48" height="48" viewBox="0 96 960 960"><path d="M149.087 990.131q-34.452 0-58.335-23.883-23.883-23.883-23.883-58.335V245.087q0-34.864 23.883-59.324 23.883-24.459 58.335-24.459h663.826q34.452 0 58.618 24.459 24.165 24.46 24.165 59.324v662.826q0 34.452-24.165 58.335-24.166 23.883-58.618 23.883H149.087Zm188.377-129.392q13.145 0 22.406-8.92 9.26-8.921 9.26-22.298V589.522q29-5.131 50.914-29.044 21.913-23.913 21.913-53.664V349.043q0-10.565-8.048-17.913-8.048-7.348-18.779-7.348-10.565 0-17.913 7.348-7.347 7.348-7.347 17.543v120.936h-24.261V348.673q0-10.195-7.348-17.543-7.348-7.348-17.913-7.348-11.131 0-18.479 7.348-7.348 7.348-7.348 17.543v120.936H283.26V348.673q0-10.195-7.348-17.543-7.347-7.348-17.913-7.348-11.13 0-18.478 7.348-7.348 7.348-7.348 17.913v157.771q0 29.751 21.696 53.664t51.696 29.044v239.999q0 13.377 8.953 22.298 8.953 8.92 22.946 8.92Zm267.696 0q13.145 0 22.406-8.92 9.261-8.921 9.261-22.298V600.957q34.435-15.696 54.717-52.664 20.283-36.967 20.283-86.423 0-59.907-29.964-98.998-29.964-39.09-74.022-39.09-44.058 0-73.036 39.09-28.979 39.091-28.979 98.998 0 52.251 17.718 88.321 17.717 36.07 50.282 50.766v228.564q0 13.377 8.954 22.298 8.953 8.92 22.38 8.92Z"/></svg>