<svg xmlns="http://www.w3.org/2000/svg" width="48" height="48" viewBox="0 96 960 960"><path d="M149.087 990.131q-34.452 0-58.335-23.883-23.883-23.883-23.883-58.335V245.087q0-34.864 23.883-59.324 23.883-24.459 58.335-24.459h663.826q34.452 0 58.618 24.459 24.165 24.46 24.165 59.324v662.826q0 34.452-24.165 58.335-24.166 23.883-58.618 23.883H149.087Zm-3-79.218h669.826V241.087H146.087v669.826Zm191.101-50.174q13.421 0 22.682-8.845 9.26-8.845 9.26-22.373V589.522q29-5.131 50.914-28.995 21.913-23.865 21.913-53.713V349.043q0-10.565-8.048-17.913-8.048-7.348-18.496-7.348-10.848 0-18.196 7.348-7.347 7.348-7.347 17.543v120.936h-24.261V348.673q0-10.195-7.348-17.543-7.348-7.348-18.196-7.348-10.848 0-18.196 7.348-7.348 7.348-7.348 17.543v120.936H283.26V348.673q0-10.195-7.348-17.543-7.347-7.348-18.195-7.348-10.848 0-18.196 7.348-7.348 7.348-7.348 17.913v157.771q0 29.848 21.696 53.713 21.696 23.864 51.696 28.995v239.999q0 13.528 8.959 22.373 8.96 8.845 22.664 8.845Zm267.867 0q13.25 0 22.511-8.845t9.261-22.373V600.957q34.435-15.696 54.717-52.608 20.283-36.912 20.283-86.479 0-59.907-29.853-98.998-29.853-39.09-74.022-39.09-44.169 0-73.147 39.09-28.979 39.091-28.979 98.998 0 52.362 17.718 88.376 17.717 36.015 50.282 50.711v228.564q0 13.528 8.848 22.373 8.849 8.845 22.381 8.845ZM146.087 241.087v669.826-669.826Z"/></svg>