<svg xmlns="http://www.w3.org/2000/svg" width="48" height="48" viewBox="0 -960 960 960"><path d="M145.87-349.04v-373.79q0-89.97 80.67-132.05 80.68-42.08 253.4-42.08 178.65 0 256.7 40.63 78.06 40.63 78.06 133.5v373.79q0 62.39-40.5 108.82-40.5 46.44-99.5 52.09l76.74 51.87q11.82 7.7 7.47 21.59-4.34 13.89-19.3 13.89H220.39q-14.96 0-19.3-13.89-4.35-13.89 7.47-21.59l77.31-51.87q-59.57-5.65-99.78-52.09-40.22-46.43-40.22-108.82Zm79.22-193.7h509.82v-155H225.09v155Zm423.04 60H225.09h509.82-86.78ZM480-315q23 0 39-16t16-39q0-23-16-39t-39-16q-23 0-39 16t-16 39q0 23 16 39t39 16Zm-168.13 57.17h336.26q36.41 0 61.6-26.9 25.18-26.9 25.18-64.31v-133.7H225.09v133.7q0 37.41 25.18 64.31 25.19 26.9 61.6 26.9ZM480-817.74q-120 0-173 15.5t-76 44.5h495.91q-18.56-27-74.8-43.5-56.24-16.5-172.11-16.5Zm0 60h246.91H231h249Z"/></svg>