<svg xmlns="http://www.w3.org/2000/svg" width="48" height="48" viewBox="0 96 960 960"><path d="M252.723 959.175q-21.332 0-36.093-14.379-14.761-14.378-14.761-35.969v-69.696q-29.565-17.237-42.783-48.879-13.217-31.643-13.217-66.208V321.957q0-81.011 79.891-118.854 79.892-37.843 255.477-37.843 173.942 0 253.701 37.314 79.758 37.314 79.758 119.383v402.087q0 34.565-13.5 66.208-13.5 31.642-42.5 48.879v69.696q0 21.591-15.102 35.969-15.102 14.379-36.435 14.379-21.898 0-36.094-14.52-14.195-14.52-14.195-34.698v-32.782H303.13v32.782q0 20.178-14.254 34.698-14.255 14.52-36.153 14.52Zm-27.636-425.131h509.826v-173H225.087v173Zm103.798 216.174q22.376 0 38.659-16.059 16.282-16.059 16.282-39 0-22.376-16.341-38.659-16.342-16.282-38.718-16.282-22.941 0-38.941 16.341-16 16.342-16 38.718 0 22.941 16.059 38.941 16.059 16 39 16Zm302.913 0q22.376 0 38.658-16.059 16.283-16.059 16.283-39 0-22.376-16.341-38.659-16.342-16.282-38.718-16.282-22.941 0-38.941 16.341-16 16.342-16 38.718 0 22.941 16.059 38.941 16.059 16 39 16Z"/></svg>