<svg xmlns="http://www.w3.org/2000/svg" width="48" height="48" viewBox="0 -960 960 960"><path d="M479-710.96q13.92 0 23.66-9.73 9.73-9.74 9.73-23.37 0-13.64-9.73-23.66-9.74-10.02-23.66-10.02t-23.66 9.98q-9.73 9.97-9.73 23.41 0 13.92 9.73 23.66 9.74 9.73 23.66 9.73Zm-165.56 523.4q-33.49 0-56.64-23.15t-23.15-56.64v-590.39q0-32.66 23.15-55.94t56.64-23.28h334.69q33.49 0 56.64 23.28 23.14 23.28 23.14 55.94v93q15.57 3.7 23.79 18.58 8.21 14.89 8.21 32.33v50.61q0 18.63-8.21 33.43-8.22 14.79-23.79 19.05v343.39q0 33.49-23.14 56.64-23.15 23.15-56.64 23.15H313.44ZM343.78-38.7q-12.75 0-21.37-8.67-8.63-8.68-8.63-21.5 0-12.83 8.63-21.33 8.62-8.5 21.37-8.5h272.44q12.75 0 21.37 8.68 8.63 8.68 8.63 21.5t-8.63 21.32q-8.62 8.5-21.37 8.5H343.78Z"/></svg>