<svg xmlns="http://www.w3.org/2000/svg" width="48" height="48" viewBox="0 -960 960 960"><path d="M358.48-478.65h243.04q14.19 0 23.79-9.53 9.6-9.52 9.6-24.04t-9.36-23.87q-9.36-9.35-24.03-9.35H358.48q-14.19 0-23.79 9.53-9.6 9.52-9.6 24.04t9.36 23.87q9.36 9.35 24.03 9.35Zm0 126.78h243.04q14.19 0 23.79-9.52 9.6-9.53 9.6-24.05 0-14.52-9.36-23.87-9.36-9.34-24.03-9.34H358.48q-14.19 0-23.79 9.52t-9.6 24.04q0 14.52 9.36 23.87 9.36 9.35 24.03 9.35Zm0 126.78h123.04q14.19 0 23.79-9.52t9.6-24.04q0-14.52-9.36-23.87-9.36-9.35-24.03-9.35H358.48q-14.19 0-23.79 9.52-9.6 9.53-9.6 24.05 0 14.52 9.36 23.86 9.36 9.35 24.03 9.35ZM225.09-65.87q-32.51 0-55.87-23.35-23.35-23.36-23.35-55.87v-669.82q0-32.74 23.35-56.26 23.36-23.53 55.87-23.53h328.65q16.46 0 31.38 6.7 14.92 6.7 25.75 17.52l179.61 179.61q10.82 10.83 17.52 25.75 6.7 14.92 6.7 31.38v488.65q0 32.51-23.53 55.87-23.52 23.35-56.26 23.35H225.09Zm509.82-576.61H619.18q-24.55 0-42.12-17.58-17.58-17.57-17.58-42.12v-112.73H225.09v669.82h509.82v-497.39ZM225.09-814.91v172.43-172.43 669.82-669.82Z"/></svg>