<svg xmlns="http://www.w3.org/2000/svg" width="48" height="48" viewBox="0 96 960 960"><path d="M433.152 613.348q15.255 0 26.052-11.261Q470 590.826 470 575.778q0-15.614-10.921-26.653-10.922-11.038-26.427-11.038-15.392 0-26.653 11.163-11.261 11.164-11.261 27.028 0 14.548 11.261 25.809 11.261 11.261 27.153 11.261Zm-167.5 336.218v-79.218l266.435-46.78V376.827q0-17.652-10.609-30.566-10.609-12.913-27.001-14.913l-228.825-37.304v-77.653l247.913 42.608q42.739 7.261 70.24 40.675 27.5 33.413 27.5 76.153v446.782q0 29.006-18.984 51.18-18.983 22.173-47.408 27.038l-279.261 48.739Zm0-79.218h428.696V295.609l-428.696-1.565v576.304Zm-119.609 79.783q-17.272 0-28.723-11.501-11.451-11.502-11.451-28.566t11.451-28.39q11.451-11.326 28.723-11.326h39.826V295.609q0-33.357 23.429-56.287 23.43-22.931 56.354-22.931h428.696q33.597 0 56.69 22.931 23.093 22.93 23.093 56.287v574.739h40.391q16.707 0 28.158 11.501 11.451 11.502 11.451 28.566t-11.451 28.39q-11.451 11.326-28.158 11.326H146.043Z"/></svg>