<svg xmlns="http://www.w3.org/2000/svg" width="48" height="48" viewBox="0 -960 960 960"><path d="M146.043-105.869q-17.272 0-28.723-11.502-11.451-11.501-11.451-28.848 0-16.781 11.451-28.107t28.723-11.326h39.826v-574.739q0-32.663 23.277-55.941 23.278-23.277 56.506-23.277h428.696q33.228 0 56.506 23.277 23.277 23.278 23.277 55.941v574.739h40.391q16.707 0 28.158 11.501 11.451 11.502 11.451 28.283 0 17.347-11.451 28.673-11.451 11.326-28.158 11.326H146.043Zm548.305-79.783v-574.739H513.565v-36.61q42.739 7.261 70.24 40.675 27.5 33.413 27.5 76.153v446.782q0 29.006-18.984 51.18-18.983 22.173-47.408 27.038v-30.479h149.435Zm-261.196-257q15.326 0 26.087-11.261T470-480.5q0-15.326-10.886-26.37-10.886-11.043-26.462-11.043-15.392 0-26.653 11.168-11.261 11.169-11.261 26.745 0 14.826 11.261 26.087t27.153 11.261Z"/></svg>