<svg xmlns="http://www.w3.org/2000/svg" width="48" height="48" viewBox="0 96 960 960"><path d="M145.087 954.088q-32.507 0-55.862-23.356-23.356-23.356-23.356-55.862V421.479q0-21.783 8.478-41.805 8.479-20.022 31.262-32.979l333.217-199.478q9.261-6.13 19.804-8.478 10.544-2.348 21.37-2.348t21.37 2.348q10.543 2.348 19.804 8.478l333.217 199.478q23.218 12.957 31.762 32.979 8.543 20.022 8.543 41.805V874.87q0 32.506-23.521 55.862-23.522 23.356-56.262 23.356H145.087Zm334.851-359.914q5.006 0 10.012-1.452 5.007-1.453 10.137-4.244l306.869-179.521-306.869-184.522q-4.845-3.356-9.831-4.526-4.986-1.169-9.972-1.169t-10.113 1.169q-5.128 1.17-10.258 4.526L153.044 408.957l306.869 179.521q5.006 2.791 10.012 4.244 5.007 1.452 10.013 1.452ZM145.087 874.87h669.826V478.044L520.174 651q-9.261 6.13-19.185 8.196-9.925 2.065-20.87 2.065t-20.822-2.565q-9.877-2.566-19.471-7.696L145.087 478.044V874.87Zm0 0h669.826-669.826Z"/></svg>