<svg xmlns="http://www.w3.org/2000/svg" width="48" height="48" viewBox="0 96 960 960"><path d="m400.825 942.783 159.218-159.784H800q33.397 0 56.503 23.415t23.106 56.848q0 33.434-23.106 56.477-23.106 23.044-56.503 23.044H400.825Zm358.088-548.261L628.652 264.261l39.562-40.127q18.873-18.873 46.068-18.656 27.196.218 48.153 19.479l37.347 36.782q20.392 19.826 18.979 47.087-1.413 27.261-20.072 45.919l-39.776 39.777ZM120.327 942.783q-16.846 0-28.391-11.541-11.545-11.54-11.545-28.379v-74.322q0-7.758 2.848-14.736 2.847-6.979 8.978-13.109l494.435-494.435 130.826 129.696-495 495q-6.13 6.13-13.326 8.978-7.196 2.848-14.457 2.848h-74.368Z"/></svg>