<svg xmlns="http://www.w3.org/2000/svg" width="48" height="48" viewBox="0 -960 960 960"><path d="M143.39-510q-32.69 0-55.95-23.28-23.27-23.27-23.27-56.5V-740q0-32.92 23.27-56.35 23.26-23.43 55.95-23.43H497q16.71 0 28.16 11.77 11.45 11.76 11.45 28.4v230q0 16.71-11.45 28.16T497-510H143.39Zm0 369.22q-32.69 0-55.95-23.26Q64.17-187.31 64.17-220v-150.78q0-32.69 23.27-55.96Q110.7-450 143.39-450H577q16.71 0 28.16 11.45t11.45 28.16v230q0 16.71-11.45 28.16T577-140.78H143.39ZM676.61-510h-40.39q-16.71 0-28.16-11.45t-11.45-28.16v-230q0-16.64 11.45-28.4 11.45-11.77 28.16-11.77h203.61q21.08 0 32.41 15.89Q883.57-788 878-767.91l-63.3 191.3h24.08q19.4 0 29.75 16.26 10.34 16.26 2.21 33.52L715.18-152.99q-3.66 6.64-10.35 9.43-6.7 2.78-12.83 1.5-6.13-1.29-10.76-6.67t-4.63-13.14V-510ZM240.28-686.11q-8.5-8.5-21.5-8.5t-21.5 8.5q-8.5 8.5-8.5 21.5t8.5 21.5q8.5 8.5 21.5 8.5t21.5-8.5q8.5-8.5 8.5-21.5t-8.5-21.5Zm0 412.22q8.5-8.5 8.5-21.5t-8.5-21.5q-8.5-8.5-21.5-8.5t-21.5 8.5q-8.5 8.5-8.5 21.5t8.5 21.5q8.5 8.5 21.5 8.5t21.5-8.5Z"/></svg>