<svg xmlns="http://www.w3.org/2000/svg" width="48" height="48" viewBox="0 -960 960 960"><path d="M310.35-65.87q-32.74 0-56.26-23.35-23.53-23.36-23.53-55.87v-336.87h-45.47q-32.51 0-55.87-23.35-23.35-23.36-23.35-55.86v-173.74q0-32.74 23.35-56.26 23.36-23.53 55.87-23.53h258.34q16.89 0 28.54 11.65 11.64 11.64 11.64 28.53v629.43q0 32.51-23.52 55.87-23.52 23.35-56.26 23.35h-93.48Zm488.37-406.48q-72.93 72.39-176.07 72.39-16.95 0-28-11.04-11.04-11.04-11.04-28v-416.09q0-16.88 11.04-28.24 11.05-11.37 28-11.37 103.14 0 176.07 72.18 72.93 72.17 72.93 174.98 0 102.8-72.93 175.19Z"/></svg>