<svg xmlns="http://www.w3.org/2000/svg" width="48" height="48" viewBox="0 -960 960 960"><path d="M743.955-440.391H106.043q-17.522 0-28.848-11.326T65.87-480q0-16.957 11.326-28.283t28.848-11.326H743.39L571.652-690.782q-11.826-11.827-11.826-28.066 0-16.239 11.826-28.065 11.826-11.827 28.065-11.544 16.24.283 28.066 12.109l238.565 238.565q6.131 6.131 8.979 13.109 2.847 6.978 2.847 15.239 0 7.696-2.847 14.674-2.848 6.979-8.979 13.109L627.783-213.087q-11.826 11.827-28.066 12.109-16.239.283-28.065-12.109-11.826-11.826-11.826-27.783 0-15.956 11.826-27.782l172.303-171.739Z"/></svg>