<svg xmlns="http://www.w3.org/2000/svg" width="48" height="48" viewBox="0 0 48 48"><path d="M24 24ZM3.3 19.1v-7.85q0-1.65 1.175-2.825Q5.65 7.25 7.25 7.25h33.5q1.65 0 2.825 1.175Q44.75 9.6 44.75 11.25V24h-4V11.25H7.25v7.85Zm3.95 21.6q-1.6 0-2.775-1.175Q3.3 38.35 3.3 36.75v-7.9h3.95v7.9h14.7v3.95ZM36 45.35l-4.05-3.45q-3.6-3.05-4.775-4.625Q26 35.7 26 33.9q0-2.3 1.6-3.925t3.9-1.625q1.3 0 2.475.625T36 30.7q.8-1.1 1.975-1.725t2.525-.625q2.25 0 3.875 1.625T46 33.85q0 1.85-1.225 3.45t-5.125 4.9Zm0-4.45 1.5-1.35q3.05-2.6 4.075-3.7 1.025-1.1 1.025-2 0-.8-.625-1.425T40.5 31.8q-.55 0-.975.225-.425.225-.875.725L36 35.2l-2.7-2.45q-.45-.5-.9-.725-.45-.225-.9-.225-.9 0-1.5.625t-.6 1.425q0 .9 1.325 2.375T34.4 39.55Zm-22-7.05q-.55 0-1-.25-.45-.25-.75-.7L8.8 25.85H5.15q-.75 0-1.3-.55T3.3 24q0-.8.55-1.35t1.3-.55H10q.55 0 .975.3.425.3.675.8l2.3 4.6 6.35-12.6q.25-.5.725-.75T22 14.2q.5 0 .975.25t.725.75l3.45 6.9H32q.8 0 1.35.55T33.9 24q0 .8-.55 1.325-.55.525-1.35.525h-6q-.55 0-1-.25-.45-.25-.7-.7l-2.35-4.65-6.3 12.6q-.25.5-.7.75-.45.25-.95.25Zm22 2.45Z"/></svg>