<svg xmlns="http://www.w3.org/2000/svg" width="48" height="48" viewBox="0 0 48 48"><path d="M32.25 5.6q5.15 0 8.65 3.775t3.5 9.125q0 .95-.1 1.825t-.35 1.725H30.9l-3.2-4.85q-.25-.4-.7-.65-.45-.25-1-.25-.7 0-1.225.4-.525.4-.725 1l-2.7 7.8L19.7 23q-.25-.45-.7-.7-.45-.25-1-.25H4.05q-.25-.85-.35-1.725-.1-.875-.1-1.775 0-5.4 3.5-9.175Q10.6 5.6 15.7 5.6q2.35 0 4.475.875Q22.3 7.35 24 9q1.65-1.65 3.775-2.525T32.25 5.6ZM24 42.4q-1 0-1.9-.35-.9-.35-1.6-1.05L7.1 27.55q-.3-.3-.575-.625Q6.25 26.6 6 26.2h11.1l3.15 4.85q.3.4.725.65t.975.25q.7 0 1.25-.4t.75-1l2.7-7.8 1.6 2.5q.3.4.75.675t1 .275h12q-.3.35-.55.675-.25.325-.55.625L27.45 41q-.7.7-1.575 1.05Q25 42.4 24 42.4Z"/></svg>