<svg xmlns="http://www.w3.org/2000/svg" width="48" height="48" viewBox="0 -960 960 960"><path d="M145.478-105.304q-16.957 0-28.283-11.326t-11.326-28.283v-57.173q0-15.957 6.413-31.131t17.239-26l554.87-555.435q10.13-9.565 21.696-14.13 11.565-4.566 24.261-4.566 12.13 0 24.195 4.566 12.066 4.565 21.196 14.13l38.913 37.217q10.13 9.696 14.978 22.326 4.848 12.631 4.848 24.761 0 12.131-4.848 24.261-4.848 12.131-14.413 21.696L259.782-128.956q-11.391 10.826-26.283 17.239-14.891 6.413-30.848 6.413h-57.173Zm576.695-581.522 43.957-44.522-34.217-34.217-44.522 44.522 34.782 34.217Z"/></svg>