<svg xmlns="http://www.w3.org/2000/svg" width="48" height="48" viewBox="0 96 960 960"><path d="M353.391 622.609h50.218l139.782-140.218-49.782-49.782-140.218 139.782v50.218Zm223-173.218 27-27q3-3 3-7.5t-3-7.5l-34.782-34.782q-3-3-7.5-3t-7.5 3l-27 27 49.782 49.782ZM480 883.999q128.115-117.233 189.253-212.656 61.138-95.422 61.138-167.525 0-113.697-72.681-185.953-72.68-72.256-177.582-72.256-104.903 0-177.711 72.291t-72.808 186.042q0 72.232 62.652 167.372Q354.913 766.454 480 883.999Zm0 104.436Q314.478 847.479 232.434 726.861q-82.043-120.617-82.043-222.935 0-154.361 99.382-245.948 99.382-91.587 230.175-91.587t230.227 91.587q99.434 91.587 99.434 245.948 0 102.318-82.043 222.935Q645.522 847.479 480 988.435ZM480 504Z"/></svg>