<svg xmlns="http://www.w3.org/2000/svg" width="48" height="48" viewBox="0 -960 960 960"><path d="M786.956-73.739 496.043-365.782 256.435-126.174q-6.131 6.131-13.109 8.979-6.978 2.847-14.674 2.847h-74.695q-16.957 0-28.283-11.326t-11.326-28.283v-74.695q0-7.696 2.847-14.674 2.848-6.978 8.979-13.109l239.608-239.608L72.043-789.217q-10.13-9.565-10.13-22.978 0-13.414 10.13-23.544 9.566-10.131 22.979-10.131 13.413 0 23.543 10.131l715.478 714.913q9.566 10.13 9.566 23.543 0 13.413-9.566 23.544-10.13 10.13-23.261 9.848-13.13-.283-23.826-9.848ZM430.913-430.913l-19.174-18.608 19.174 18.608 18.043 18.609-18.043-18.609Zm153.652-22.826-46.522-47.087 118.783-118.783-37.217-37.217-118.783 118.783L453.739-584l166.87-166.87 130.826 130.261-166.87 166.87ZM792.87-662.043 662.609-792.87l39.739-39.739q18.695-19.261 46.174-19.043 27.478.217 47.869 20.043l37.348 36.783Q854.13-775 853.217-748.239q-.913 26.761-20.608 45.891l-39.739 40.305ZM519.435-519.435ZM181.13-180.565h37.218l230.608-231.739-37.217-37.217L181.13-217.782v37.217Z"/></svg>