<svg xmlns="http://www.w3.org/2000/svg" width="48" height="48" viewBox="0 96 960 960"><path d="M216.609 990.131q-32.479 0-55.849-23.37-23.37-23.37-23.37-55.848V241.087q0-32.478 23.37-56.131 23.37-23.652 55.849-23.652H524.26q15.957 0 31.131 6.695 15.174 6.696 26 17.522L782 386.13q10.826 10.826 17.522 26 6.696 15.174 6.696 31.131v152.651L509.826 893.435v96.696H216.609Zm373.304 0q-7.696 0-13.892-5.913-6.195-5.913-6.195-14.174v-35.653q0-7.695 2.565-14.391t9.261-12.826L781.87 707.391l72.131 70.261-200.653 200.653q-6.696 6.13-13.109 8.978t-14.109 2.848h-36.217Zm291.088-239.479-71.697-71.261 32.566-31q11.826-11.826 28-11.609 16.174.217 27.565 11.609l14.131 14.565q12.391 11.826 12.391 28.283t-12.391 28.848l-30.565 30.565ZM546.043 461.087h180.391l-220-220v180.391q0 16.957 11.326 28.283 11.327 11.326 28.283 11.326Z"/></svg>