<svg xmlns="http://www.w3.org/2000/svg" width="48" height="48" viewBox="0 96 960 960"><path d="M216.609 990.131q-32.507 0-55.863-23.356-23.356-23.355-23.356-55.862V241.087q0-32.74 23.356-56.262 23.356-23.521 55.863-23.521H524.26q16.464 0 31.385 6.695 14.92 6.696 25.746 17.522L782 386.13q10.826 10.826 17.522 25.747 6.696 14.92 6.696 31.384v116.304h-79.784v-98.478H546.043q-16.706 0-28.158-11.451-11.451-11.451-11.451-28.158V241.087H216.609v669.826h293.217v79.218H216.609Zm0-79.218V241.087v669.826ZM737.912 703.74l35.348 34.783-152.695 153.341v48.093h47.987l152.882-153.261 35.914 35.914-156.826 156.26q-6.264 6.131-13.062 8.696-6.797 2.565-14.721 2.565h-82.826q-7.583 0-13.835-5.913-6.252-5.913-6.252-14.174v-82.826q0-7.261 2.847-14.215 2.848-6.953 8.979-13.003l156.26-156.26Zm119.436 118.87L737.912 703.74l61.565-61.566q11.827-12.391 27.783-12.391 15.957 0 27.783 12.391l63.305 62.739q11.826 11.827 11.826 27.783 0 15.957-11.826 28.349l-61 61.565Z"/></svg>