<svg xmlns="http://www.w3.org/2000/svg" width="48" height="48" viewBox="0 -960 960 960"><path d="M836.001-678.738 625.349-468.087q-12.392 12.392-28.348 11.544-15.957-.848-27.783-12.674-10.131-10.131-11.827-22.978-1.695-12.848 5.044-25.24l110.39-109.825-44-44.565-110.39 110.39q-11.826 7.87-24.957 5.609-13.13-2.261-23.826-12.957-11.826-11.826-11.826-27.783t11.826-27.783l210.086-210.086q8.566-8.566 20.979-13.914 12.413-5.347 25.543-5.347 12.131 0 24.261 5.065 12.131 5.065 22.827 13.63l62.653 60.958q9.565 10.695 14.13 23.109 4.565 12.413 4.565 25.108 0 12.696-5.065 25.327-5.065 12.63-13.63 21.761ZM185.522-185.087h44.565l223.391-222.826-22.565-21.435-22-22.565-223.391 223.391v43.435Zm603.13 111.348L509.044-352.347l-222.26 222.826q-11.392 10.826-26.283 17.239-14.892 6.413-30.849 6.413h-83.174q-16.957 0-28.283-11.326t-11.326-28.283v-82.609q0-15.957 6.413-30.848 6.413-14.892 17.239-26.283l222.826-222.826L73.174-788.652q-9.566-9.565-10.13-23.261-.566-13.696 9.565-23.826 10.13-9.565 23.26-9.565 13.131 0 23.261 9.565L835.174-119.13q9.565 9.565 9.848 22.695.282 13.13-9.283 22.696-10.13 10.13-23.544 10.13-13.413 0-23.543-10.13Zm-18.696-653.087-41.565-42.13 41.565 42.13Zm-141.131 55.001 44 44.565-44-44.565ZM430.913-429.348l-22-22.565 44.565 44-22.565-21.435Z"/></svg>