<svg xmlns="http://www.w3.org/2000/svg" width="48" height="48" viewBox="0 -960 960 960"><path d="M535.74-755.7q-31.7 0-54.33-22.63t-22.63-54.89q0-31.69 22.63-54.32t54.33-22.63q32.26 0 54.89 22.63 22.63 22.63 22.63 54.32 0 32.26-22.91 54.89-22.92 22.63-54.61 22.63Zm142.82 357.22q-7.04-7.04-7.04-16.43v-42.61q-35.78-6.48-81.85-33.81-46.06-27.32-73.76-61.97-9.74 29.47-14.82 63.41-5.09 33.93-3.66 63.11l88.18 125.61q4.13 5.13 6.19 11.04 2.07 5.91 2.07 12.61v208.65q0 15.26-10.2 25.46-10.19 10.19-25.45 10.19t-25.46-10.19q-10.2-10.2-10.2-25.46v-198.04l-70.3-75.22-10.69 130.87q-.57 4.13-7.7 19.39l-98.13 130.7q-9.13 11.69-23.68 13.97-14.54 2.29-25.67-6.84-11.69-8.57-14.26-23.39-2.57-14.83 7.13-26.53l87.7-117.26-8.57-180.26q-2.56-53.13 5.5-112.61 8.07-59.48 24.07-104.04l-91.92 54.87v81q0 15.26-10.19 25.46-10.2 10.19-24.89 10.19-15.26 0-25.46-10.19-10.2-10.2-10.2-25.46v-99.57q0-10.82 5.13-19.8t13.83-14.67l146.35-85.87q17.56-10 33.35-15.57 15.78-5.56 30.91-5.56 30.39 0 55 24.1 24.61 24.11 49.13 75.9 17.17 41.47 61.54 69.28 44.37 27.8 105.03 39.15 5.87-1.74 12.65-3.24 6.78-1.5 13.22-1.5 29.21 0 51.6 23.31 22.4 23.3 22.4 53.65V-56.7q0 9.4-7.05 16.44-7.04 7.04-16.43 7.04t-16.44-7.04q-7.04-7.04-7.04-16.44v-385.95q0-12-9-21t-21-9q-12 0-21 9t-9 21v27.74q0 9.39-7.04 16.43-7.05 7.05-16.44 7.05t-16.44-7.05Z"/></svg>