<svg xmlns="http://www.w3.org/2000/svg" width="48" height="48" viewBox="0 96 960 960"><path d="M270.844 778.391q-48.801 0-83.649-34.217-34.847-34.217-35.978-82.783h-38.391q-16.706 0-28.158-11.451-11.451-11.451-11.451-28.158V538q0-66.795 45.798-113.093 45.799-46.298 112.594-46.298h118.217q16.706 0 28.158 11.451 11.451 11.451 11.451 28.158v176.391h157.608l145.87-185v-136.87h-89.411q-14.87 0-24.229-9.251-9.36-9.25-9.36-23.761 0-14.51 9.36-23.858 9.359-9.348 24.229-9.348h89.411q27.209 0 46.996 19.452 19.787 19.451 19.787 46.766v132.348q0 14.449-4.572 26.557-4.572 12.107-12.95 22.878L602.522 630.478q-11.458 14.125-27.599 22.519-16.141 8.394-34.663 8.394H389.435q-.565 48.566-35.296 82.783-34.73 34.217-83.295 34.217Zm-.235-66.782q20.739 0 35.825-14.824 15.087-14.824 16.218-35.394H218.565q.565 20.739 15.935 35.479 15.37 14.739 36.109 14.739Zm-44-389.609q-14.672 0-24.032-9.41-9.36-9.411-9.36-24.157 0-14.506 9.36-23.578 9.36-9.073 24.032-9.073h130q14.431 0 23.628 9.251 9.198 9.251 9.198 23.761t-9.198 23.858Q371.04 322 356.609 322h-130Zm541.084 456.391q-49.997 0-84.563-34.546-34.565-34.546-34.565-84.543 0-49.998 34.264-84.846 34.263-34.847 84.261-34.847 49.997 0 84.845 34.546t34.848 84.543q0 49.998-34.546 84.846-34.546 34.847-84.544 34.847Zm-.242-66.782q21.824 0 37.469-15.543 15.645-15.542 15.645-37.126 0-21.583-15.701-37.066-15.702-15.483-37.522-15.483t-37.19 15.543q-15.369 15.542-15.369 37.126 0 21.583 15.542 37.066 15.542 15.483 37.126 15.483ZM519.435 1018.96 280.826 897.87h159.217v-79.827l238.044 119.522H519.435v81.395Z"/></svg>