<svg xmlns="http://www.w3.org/2000/svg" width="48" height="48" viewBox="0 -960 960 960"><path d="M450.67-64.54q-14.36-5.97-26.24-17.24L81.78-424.43q-11.27-11.88-17.24-26.24-5.98-14.37-5.98-29.33 0-14.96 5.98-29.66 5.97-14.69 17.24-25.91l342.65-342.65q11.88-11.94 26.24-17.58 14.37-5.64 29.33-5.64 14.96 0 29.66 5.64 14.69 5.64 25.91 17.58l342.65 342.65q11.94 11.22 17.58 25.91 5.64 14.7 5.64 29.66t-5.64 29.33q-5.64 14.36-17.58 26.24L535.57-81.78q-11.22 11.27-25.91 17.24-14.7 5.98-29.66 5.98t-29.33-5.98ZM480-138.91 821.65-480 480-821.65 138.91-480 480-138.91Zm25.74-308.22q10.48-10.52 10.48-25.7v-167.56q0-15.18-10.54-25.7-10.53-10.52-25.74-10.52-15.2 0-25.68 10.52t-10.48 25.7v167.56q0 15.18 10.54 25.7 10.53 10.52 25.74 10.52 15.2 0 25.68-10.52Zm-.22 122.26q10.7-10.69 10.7-25.24 0-14.55-10.7-25.53-10.69-10.97-25.52-10.97t-25.52 10.97q-10.7 10.98-10.7 25.53t10.7 25.24q10.69 10.7 25.52 10.7t25.52-10.7ZM480-480Z"/></svg>