<svg xmlns="http://www.w3.org/2000/svg" width="48" height="48" viewBox="0 -960 960 960"><path d="M411.869-194.522v-167.172L266.74-277.826q-25.088 13.827-51.74 7.414-26.652-6.414-41.044-31.501-13.826-25.087-7.13-52.239 6.695-27.153 31.783-41.544L344.303-480l-144.129-83.869q-25.087-13.826-32.566-40.696-7.478-26.87 6.348-51.957 14.392-24.522 41.327-31.5 26.935-6.979 52.022 7.413l144.564 83.303v-168.737q0-28.087 19.739-47.827 19.74-19.739 48.392-19.739 28.652 0 48.392 19.739 19.739 19.74 19.739 47.827v168.737l145.129-83.868q25.088-13.827 51.74-7.131t40.479 31.783q14.391 25.087 7.195 51.957-7.195 26.87-32.283 40.696L616.262-480l145.129 84.304q25.088 14.391 31.783 41.544 6.696 27.152-7.695 51.674-13.827 25.087-40.479 31.783-26.652 6.696-51.74-7.131l-145.129-83.868v167.172q0 28.652-19.739 48.392-19.74 19.739-48.392 19.739-28.652 0-48.392-19.739-19.739-19.74-19.739-48.392Z"/></svg>