<svg xmlns="http://www.w3.org/2000/svg" width="48" height="48" viewBox="0 -960 960 960"><path d="M251.696-225.087h182.261q10.219 0 18.131-8.195Q460-241.476 460-251.696v-122.261q0-10.219-8.195-18.131Q443.611-400 433.391-400H251.13q-10.219 0-18.131 8.195-7.912 8.194-7.912 18.414v122.261q0 10.219 8.195 18.131 8.194 7.912 18.414 7.912Zm0-214.913h182.261q10.219 0 18.131-8.195Q460-456.389 460-466.609V-708.87q0-10.219-8.195-18.131-8.194-7.912-18.414-7.912H251.13q-10.219 0-18.131 8.195-7.912 8.194-7.912 18.414v242.261q0 10.219 8.195 18.131Q241.476-440 251.696-440Zm274.913 214.913h181.695q10.22 0 18.132-8.195 7.912-8.194 7.912-18.414v-242.261q0-10.219-8.195-18.131Q717.958-520 707.739-520H526.043q-10.219 0-18.131 8.195Q500-503.611 500-493.391v242.261q0 10.219 8.195 18.131 8.194 7.912 18.414 7.912Zm0-334.913h181.695q10.22 0 18.132-8.195 7.912-8.194 7.912-18.414V-708.87q0-10.219-8.195-18.131-8.195-7.912-18.414-7.912H526.043q-10.219 0-18.131 8.195Q500-718.524 500-708.304v122.261q0 10.219 8.195 18.131Q516.389-560 526.609-560ZM185.652-105.869q-32.74 0-56.261-23.356-23.522-23.355-23.522-55.862v-589.826q0-32.74 23.522-56.262 23.521-23.521 56.261-23.521h589.261q32.74 0 56.262 23.521 23.521 23.522 23.521 56.262V-720h33.332q14.19 0 23.538 9.288 9.348 9.289 9.348 23.479t-9.305 23.82q-9.306 9.631-23.521 9.631h-33.392v140.391h32.767q14.19 0 23.821 9.347 9.63 9.348 9.63 24.044t-9.588 24.044q-9.588 9.347-23.803 9.347h-32.827v140.391h33.332q14.19 0 23.538 9.289 9.348 9.288 9.348 23.478 0 14.19-9.305 23.821-9.306 9.63-23.521 9.63h-33.392v54.913q0 32.507-23.521 55.862-23.522 23.356-56.262 23.356H185.652Z"/></svg>