<svg xmlns="http://www.w3.org/2000/svg" width="48" height="48" viewBox="0 -960 960 960"><path d="M225.087-225.087H460V-400H225.087v174.913Zm0-214.913H460v-294.913H225.087V-440ZM500-225.087h234.348V-520H500v294.913ZM500-560h234.348v-174.913H500V-560ZM185.087-105.869q-32.507 0-55.862-23.356-23.356-23.355-23.356-55.862v-589.826q0-32.74 23.356-56.262 23.355-23.521 55.862-23.521h589.261q32.74 0 56.261 23.521 23.522 23.522 23.522 56.262V-720h66.218v66.218h-66.218v140.391h66.218v66.782h-66.218v140.391h66.218V-240h-66.218v54.913q0 32.507-23.522 55.862-23.521 23.356-56.261 23.356H185.087Zm0-79.218h589.261v-589.826H185.087v589.826Zm0-589.826v589.826-589.826Z"/></svg>