<svg xmlns="http://www.w3.org/2000/svg" width="48" height="48" viewBox="0 96 960 960"><path d="M797.523 453.694q-7.261 0-12.392-4.13-5.13-4.131-7.13-10.826l-5.435-20.044q-10-4-20.5-11t-17.5-15l-27.478 10.87q-7.261 2.565-13.99-.077-6.729-2.643-10.793-9.184l-4.043-6.782q-4.131-6.131-2.212-12.931 1.918-6.8 7.907-11.722l21.609-16.938q-2-5.236-3.5-11.236-1.5-6-1.5-12t1.5-11.717q1.5-5.717 3.5-11.071l-21.609-17.385q-6.13-5.131-7.195-11.544-1.066-6.413 2.065-13.109l4.043-6.782q4.131-6.696 10.261-9.261 6.131-2.565 13.957 0l27.478 10.869q7-7.434 17.5-15.146 10.5-7.712 20.5-10.854l5.435-19.478q2-6.695 7.13-11.108 5.131-4.414 12.392-4.414h6.651q7.261 0 12.392 4.414 5.13 4.413 7.13 11.108l4.87 19.478q10 3.142 20.5 10.854t17.5 15.146l28.043-10.869q6.696-2.565 13.392 0 6.695 2.565 10.826 9.261l4.043 6.782q4.131 6.696 2.565 13.109-1.565 6.413-7.695 11.544l-22.174 17.385q2 5.354 3.5 11.199 1.5 5.846 1.5 11.589 0 6-1.5 12t-3.5 11l22.174 17.174q6.13 5.131 7.195 12.109 1.066 6.978-2.065 13.674l-4.043 6.782q-4.131 6.696-10.544 8.696t-13.674-.565l-28.043-10.87q-7 8-17.5 15t-20.5 11l-4.87 20.044q-2 6.695-7.13 10.826-5.131 4.13-12.392 4.13h-6.651Zm3.043-73q25 0 41.5-16.5t16.5-41.5q0-25-16.5-41.5t-41.5-16.5q-25 0-41.5 16.5t-16.5 41.5q0 25 16.5 41.5t41.5 16.5ZM678.74 674.651q-1 0-9-8l-1-21q-7-4-14.5-9t-13.5-10.565l-19 10q-1 .565-12-2.948l-12-17.769 1-11.875 20-13.843q-2-4-2-7.5v-15q0-3.5 2-7.5l-20-14q-1 0-1-12l12-18q1-1 12-3l19 10 14-10q7-5 14-9l1-21q0-2 9-8h24q1 0 9 8l1 21q7 3.859 13.717 8.929 6.717 5.071 14.283 10.071l19-10q1 0 12 3l12 18q-.566 0-1 12l-20 14q1.434 4 1.717 7.5.283 3.5.283 7.5t-.283 7.5q-.283 3.5-1.717 7.5l20 14q.434 0 1 12l-12 18q-1 1-12 3l-19-10q-6 5-13.5 10t-14.5 9l-1 21q0 2-9 8h-24Zm12-62q16 0 27-11t11-27q0-16-11-27t-27.283-11q-16.283 0-27 11-10.717 11-10.717 27t10.717 27q10.717 11 27.283 11Zm-331.892 3.653q-71.935 0-118.175-46.809-46.239-46.808-46.239-114.496h-10q-9.78 0-16.869-7.126-7.088-7.126-7.088-16.967 0-9.588 7.088-16.704 7.089-7.117 16.869-7.117h10q0-42.826 23.109-77.935t61.327-54.543v39.348q0 6.782 4.372 10.999 4.373 4.218 11.193 4.218 6.435 0 11-4.176Q310 320.821 310 314.325v-51.588q8.199-1.435 22.421-3.217 14.222-1.783 27.466-1.783 12.678 0 26.678 1.783 14 1.782 22.452 3.195v51.604q0 6.499 4.622 10.676 4.622 4.177 11.622 4.177 6.565 0 11.065-4.218 4.5-4.217 4.5-10.782v-39.565q37.653 19.434 59.762 54.521 22.108 35.088 22.108 77.957h10q9.781 0 16.869 7.072 7.088 7.072 7.088 16.826 0 9.755-7.088 16.885-7.088 7.131-16.869 7.131h-10q0 67.956-45.956 114.631-45.957 46.674-117.892 46.674Zm.262-79.784q39.194 0 61.781-23.506 22.587-23.505 22.587-61.407h-169.26q0 37.739 22.499 61.326 22.5 23.587 62.393 23.587ZM28.434 949.566V843.022q0-40.935 19.674-66.262 19.674-25.326 49.24-39.326 54-26 118.608-43.565 64.609-17.565 142.892-17.565 78.282 0 142.609 17 64.326 17 118.891 43 29 14.565 48.674 40.214t19.674 66.566v106.482H28.434Z"/></svg>