<svg xmlns="http://www.w3.org/2000/svg" width="48" height="48" viewBox="0 0 48 48"><path d="M23.4 31.8h4.65q.7 0 1.225-.525.525-.525.525-1.275 0-.7-.525-1.225-.525-.525-1.225-.525h-4.4l.25-3.6q.1-.65.575-1.075.475-.425 1.075-.425h5.85q.7 0 1.225-.525.525-.525.525-1.275 0-.75-.525-1.25t-1.225-.5h-5.25q-2.25 0-3.925 1.5-1.675 1.5-1.875 3.7L18.9 42.7q-.05.4.075.775t.375.625q.25.25.575.375.325.125.725.125.65 0 1.175-.45T22.45 43Zm-12 3.9Q8.55 33 6.975 29.45 5.4 25.9 5.4 22q0-7.75 5.425-13.2Q16.25 3.35 24 3.35q6.45 0 11.45 3.825 5 3.825 6.5 9.925l2.8 11.1q.25.95-.325 1.675-.575.725-1.575.725h-4.2v6.05q0 1.65-1.15 2.8t-2.85 1.15h-4v2.05q0 .85-.6 1.4-.6.55-1.4.55-.85 0-1.425-.55-.575-.55-.575-1.4v-4q0-.85.575-1.425.575-.575 1.425-.575h6v-8q0-.85.575-1.425.575-.575 1.425-.575h3.65l-2.15-8.55q-1.2-4.7-5.175-7.725Q29 7.35 24 7.35q-6.1 0-10.375 4.225T9.35 21.9q0 3.1 1.275 5.975Q11.9 30.75 14.3 32.9l1.05 1v8.75q0 .85-.575 1.4-.575.55-1.425.55-.85 0-1.4-.55-.55-.55-.55-1.4ZM24.8 26Z"/></svg>