<svg xmlns="http://www.w3.org/2000/svg" width="48" height="48" viewBox="0 -960 960 960"><path d="M205.478-280.391q-24.837 0-42.223-17.42t-17.386-42.307q0-24.886 17.386-42.189 17.386-17.302 42.223-17.302h549.044q25.073 0 42.624 17.42 17.55 17.42 17.55 42.307 0 24.886-17.55 42.189-17.551 17.302-42.624 17.302H205.478Zm0-280q-24.837 0-42.223-17.42-17.386-17.421-17.386-42.307 0-24.886 17.386-42.189 17.386-17.302 42.223-17.302h549.044q25.073 0 42.624 17.42 17.55 17.421 17.55 42.307 0 24.886-17.55 42.189-17.551 17.302-42.624 17.302H205.478Z"/></svg>