<svg xmlns="http://www.w3.org/2000/svg" width="48" height="48" viewBox="0 -960 960 960"><path d="M260.08-730.391q-32.906 0-56.102-23.399-23.196-23.399-23.196-55.74 0-32.905 23.116-56.384 23.116-23.478 56.022-23.478t56.102 23.399q23.196 23.398 23.196 56.304 0 32.341-23.116 55.819-23.116 23.479-56.022 23.479Zm434.92 240q-27.261 0-46.739-19.478-19.479-19.479-19.479-46.74 0-27.261 19.479-47.021 19.478-19.761 46.739-19.761 27.261 0 46.739 19.761 19.479 19.76 19.479 47.021t-19.479 46.74Q722.261-490.391 695-490.391ZM176.999-115.087v-248.695h-31.521q-16.141 0-27.31-11.169t-11.169-27.31v-201.912q0-32.664 23.278-55.941 23.277-23.277 55.941-23.277h139.564q25.362 0 45.008 14.087 19.645 14.087 29.341 37.435l115.651 273.478 74.131-76.869q8.261-8.696 19.444-13.609 11.184-4.913 23.861-4.913h108.086q24.551 0 41.623 17.355Q800-419.072 800-394.521v130.348q0 13.565-7.37 24.044-7.369 10.478-22.63 5.956h-20v119.086q0 16.707-11.451 28.158t-28.158 11.451h-60.782q-16.707 0-28.158-11.451T610-115.087v-261.695l-57.348 62.044q-5 5-11.348 7.782-6.348 2.783-14.14 2.783h-36.94q-10.529 0-19-5.322-8.472-5.321-12.79-15.07L350-562.651v447.564q0 16.707-11.451 28.158t-28.158 11.451h-93.782q-16.707 0-28.158-11.451-11.452-11.451-11.452-28.158Z"/></svg>