<svg xmlns="http://www.w3.org/2000/svg" width="48" height="48"><path d="M11 39h13.45V9H11zm6.35-5 6.2-10.7q.35-.5.025-1-.325-.5-.875-.5h-2.75v-6.05q0-.75-.75-.975-.75-.225-1.15.425L11.8 25.85q-.35.55-.025 1.05.325.5.925.5h2.75v6.1q0 .75.725.975.725.225 1.175-.475zM9 42.95q-.8 0-1.375-.575T7.05 41V9q0-1.65 1.15-2.825Q9.35 5 11 5h13.45q1.65 0 2.825 1.175Q28.45 7.35 28.45 9v15.05h3.6q1.15 0 1.925.775.775.775.775 1.875v10.95q0 1 .7 1.7t1.75.7q1.05 0 1.775-.7.725-.7.725-1.7V21.7q-.5.3-1.075.425t-1.125.125q-2.05 0-3.45-1.4-1.4-1.4-1.4-3.45 0-1.55.875-2.825.875-1.275 2.325-1.725l-3.7-3.7q-.4-.4-.425-1-.025-.6.425-1.05.4-.4 1-.375.6.025 1.05.425l6.15 6.2q.85.85 1.525 1.825.675.975.675 2.225v20.25q0 2.25-1.55 3.775t-3.8 1.525q-2.25 0-3.775-1.525T31.9 37.65v-10.8h-3.45V41q0 .8-.6 1.375t-1.4.575zM24.45 39H11h13.45zM37.5 19.4q.85 0 1.45-.6t.6-1.4q0-.85-.6-1.45t-1.45-.6q-.85 0-1.425.6-.575.6-.575 1.45 0 .8.575 1.4.575.6 1.425.6z"/></svg>