<svg xmlns="http://www.w3.org/2000/svg" width="48" height="48" viewBox="0 -960 960 960"><path d="m433-316.391 161.259-161.26q10.176-10.175 23.374-9.675 13.199.5 22.979 10.63 9.779 10.131 9.779 23.395 0 13.265-9.565 22.562L460.783-251.261q-12.032 11.826-27.886 11.826t-27.68-11.826l-91.478-90.478q-10.13-9.297-10.13-22.562 0-13.264 9.847-23.395 9.848-10.13 22.979-9.63 13.13.5 23.362 9.731L433-316.391ZM185.087-65.869q-32.507 0-55.862-23.356-23.356-23.355-23.356-55.862v-609.826q0-32.74 23.356-56.262 23.355-23.521 55.862-23.521H245v-22.913q0-15.381 11.005-26.234 11.005-10.853 26.191-10.853 15.612 0 26.513 10.853 10.9 10.853 10.9 26.234v22.913h320.782v-22.913q0-15.381 11.005-26.234 11.004-10.853 26.191-10.853 15.612 0 26.512 10.853Q715-872.99 715-857.609v22.913h59.913q32.74 0 56.262 23.521 23.521 23.522 23.521 56.262v609.826q0 32.507-23.521 55.862-23.522 23.356-56.262 23.356H185.087Zm0-79.218h589.826V-570H185.087v424.913Z"/></svg>