<svg xmlns="http://www.w3.org/2000/svg" width="48" height="48" viewBox="0 -960 960 960"><path d="m404.826-306.218 57 55q7.304 7.435 18.225 6.935 10.921-.5 18.688-7.935l55-54h74q11.309 0 18.959-7.65t7.65-18.958v-74l55-55q7.869-7.304 7.869-18.225 0-10.921-7.869-18.688l-55-55v-74q0-11.309-7.65-18.959t-18.959-7.65h-74l-56.957-57.063q-7.277-7.11-16.752-7.11-9.474 0-16.762 7.11l-56.235 57.063h-74.207q-11.308 0-18.958 7.65-7.65 7.65-7.65 18.959v74l-55 55q-7.87 7.767-7.87 18.688t7.87 18.225l55 55v74q0 11.308 7.819 18.958 7.82 7.65 18.789 7.65h72Zm-60.924 160.349H225.087q-33.257 0-56.237-22.981-22.981-22.98-22.981-56.237v-118.239l-80.695-81.108q-11.827-11.826-17.24-26.198-5.413-14.372-5.413-29.239t5.413-29.368q5.413-14.501 17.24-26.327l80.695-81.108v-118.239q0-33.49 22.981-56.637 22.98-23.146 56.237-23.146h118.239l81.108-80.13q11.826-11.826 26.872-17.24 15.045-5.413 29.91-5.413t29.216 6.109q14.35 6.109 26.134 17.544l79.695 79.13h118.652q33.49 0 56.637 23.146 23.146 23.147 23.146 56.637v118.239l80.13 81.108q11.826 11.826 17.24 26.185 5.413 14.359 5.413 29.214 0 14.854-5.413 29.38-5.414 14.527-17.24 26.353l-80.13 81.108v118.239q0 33.257-23.146 56.237-23.147 22.981-56.637 22.981H616.261l-79.695 78.695Q524.782-55.652 510.4-50.087q-14.382 5.566-29.26 5.566-14.878 0-29.342-5.566-14.465-5.565-26.364-17.087l-81.532-78.695Zm32.316-79.218L481-124.305l102.264-100.782h151.649v-152.131L838.26-480 734.913-583.348v-151.565H583.348L481-838.26 377.218-734.913H225.087v151.565L122.305-480l102.782 102.782v152.131h151.131ZM481-481Z"/></svg>