<svg xmlns="http://www.w3.org/2000/svg" width="48" height="48" viewBox="0 -960 960 960"><path d="M429.39-343.39v-99.22H563q14.22 0 23.8-9.35 9.59-9.34 9.59-24.04t-9.35-24.04q-9.34-9.35-24.18-9.35H429.39v-100.22H563q14.22 0 23.8-9.35 9.59-9.34 9.59-24.04t-9.35-24.04q-9.34-9.35-24.04-9.35H396q-14.7 0-24.04 9.35-9.35 9.34-9.35 24.04v333q0 14.7 9.35 24.04 9.34 9.35 24.04 9.35h167q14.22 0 23.8-9.35 9.59-9.34 9.59-24.04t-9.35-24.04q-9.34-9.35-24.18-9.35H429.39Zm-244.3 237.52q-32.51 0-55.87-23.35-23.35-23.36-23.35-55.87v-589.82q0-32.74 23.35-56.26 23.36-23.53 55.87-23.53h589.82q32.74 0 56.26 23.53 23.53 23.52 23.53 56.26v589.82q0 32.51-23.53 55.87-23.52 23.35-56.26 23.35H185.09Z"/></svg>