<svg xmlns="http://www.w3.org/2000/svg" width="48" height="48" viewBox="0 -960 960 960"><path d="M589.348-471.913 470.913-590.348l195.805-93.802q9.63-4.632 16.847 2.585 7.217 7.217 2.783 16.652l-97 193Zm216.95 404.679-78.689-77.461q-52.307 37.713-114.806 58.27-62.5 20.556-132.652 20.556-87.977 0-163.796-31.678-75.819-31.677-131.475-87.333-55.656-55.656-87.333-131.475-31.678-75.819-31.678-163.796 0-70.152 20.556-132.652 20.557-62.499 58.27-114.806l-78.567-78.477q-9.52-9.61-9.803-23.3-.282-13.69 9.908-23.479 10.19-9.788 23.76-9.788 13.572 0 23.702 9.565l739.393 739.393q9.565 9.565 9.565 23.26 0 13.697-9.506 23.262-9.788 10.13-23.372 10.13t-23.477-10.191Zm14.094-173.636-58.262-57.696q25.174-39.174 38.979-84.782 13.804-45.609 13.804-96.652 0-143.444-95.735-239.178Q623.444-814.913 480-814.913q-51.043 0-96.652 13.804-45.608 13.805-84.782 38.979l-57.696-58.262q50.565-34.87 110.748-54.587Q411.802-894.696 480-894.696q87.584 0 163.143 32.104t131.452 87.997q55.893 55.893 87.997 131.452T894.696-480q0 68.198-19.717 128.382-19.717 60.183-54.587 110.748ZM530.913-530.913Zm-94.478 94.478ZM480-145.087q54.02 0 102.097-15.218 48.077-15.217 88.381-41.795L501.696-370.609l-207.503 99.957q-9.487 4.434-16.731-2.783-7.244-7.217-2.85-16.914L379.174-493.13 202.103-670.478q-27.146 40.304-42.081 88.456-14.935 48.152-14.935 102.223 0 143.36 95.735 239.036Q336.556-145.087 480-145.087Z"/></svg>