<svg xmlns="http://www.w3.org/2000/svg" width="48" height="48"><path d="M9 42.7q-1.55 0-2.625-1.075T5.3 39v-9.2q1.95-.2 3.325-1.6Q10 26.8 10 24.85q0-1.95-1.375-3.35Q7.25 20.1 5.3 19.85V10.7q0-1.55 1.075-2.65Q7.45 6.95 9 6.95h8.25q.75-2 2.325-3.425Q21.15 2.1 23.25 2.1q2.1 0 3.675 1.425Q28.5 4.95 29.25 6.95h8.05q1.55 0 2.65 1.1 1.1 1.1 1.1 2.65v8.05q2 .75 3.35 2.425 1.35 1.675 1.35 3.775 0 2-1.375 3.575Q43 30.1 41.05 30.8V39q0 1.55-1.1 2.625T37.3 42.7h-9.15q-.25-1.95-1.65-3.325Q25.1 38 23.15 38q-1.95 0-3.35 1.375-1.4 1.375-1.6 3.325z"/></svg>