<svg xmlns="http://www.w3.org/2000/svg" width="48" height="48" viewBox="0 -960 960 960"><path d="M353.08-145.87q-138.08 0-234.54-96.46-96.45-96.45-96.45-234.53 0-138.08 96.45-234.96Q215-808.7 353.08-808.7q138.08 0 234.95 96.88 96.88 96.88 96.88 234.96t-96.88 234.53q-96.87 96.46-234.95 96.46Zm.14-70.74q108.22 0 184.31-76.08 76.08-76.09 76.08-184.31 0-14.91-2.22-28.97-2.22-14.07-4.65-28.38-11.57 2-22.78 3-11.22 1-22.22 1-76.5 2.87-144.45-25.5-67.94-28.37-118.51-85.93-30.13 62-84.98 103.93-54.84 41.94-120.41 62.07v3q1.83 108 77.11 182.08 75.28 74.09 182.72 74.09ZM251.67-388q-19.54 0-32.74-13.19-13.19-13.19-13.19-32.74 0-18.98 13.55-31.9 13.56-12.91 32.67-12.91 18.69 0 31.89 12.91 13.19 12.91 13.19 31.89t-13.19 32.46Q270.65-388 251.67-388Zm204.1 0q-18.99 0-31.4-13.47-12.41-13.48-12.41-32.46t12.49-31.9q12.49-12.91 31.59-12.91 18.87 0 32.76 12.99 13.9 12.99 13.9 32.1 0 19.43-13.7 32.54Q475.31-388 455.77-388Zm297.41 246.3q59.78-73.3 98.39-158.42 38.6-85.12 38.6-179.96 0-94.83-38.6-179.59-38.61-84.76-98.39-158.63v97q0 11.39-8.27 19.65-8.26 8.26-19.65 8.26-11.39 0-19.37-8.26t-7.98-19.65v-133.22q0-16.89 11.33-28.53 11.33-11.65 28.28-11.65h137.74q10.98 0 19.45 8.26 8.47 8.27 8.47 19.66t-8.27 19.37q-8.26 7.98-19.65 7.98h-67.17q60.74 79.13 99.04 169.56 38.31 90.44 38.31 189.87t-38.31 189.87q-38.3 90.43-99.04 169h67.17q10.98 0 19.45 8.26 8.47 8.26 8.47 19.65 0 11.39-8.27 19.37-8.26 7.98-19.65 7.98H737.52q-16.95 0-28.28-11.33-11.33-11.32-11.33-28.28v-133.78q0-10.73 7.98-19.04 7.98-8.31 19.37-8.31t19.65 8.31q8.27 8.31 8.27 19.04v97.56Z"/></svg>