<svg xmlns="http://www.w3.org/2000/svg" width="48" height="48" viewBox="0 -960 960 960"><path d="M146.218-67q-32.914 0-56.066-23.152-23.153-23.152-23.153-56.066v-370.825Q67-540.696 80.391-561q13.391-20.305 35.479-29.566l207.217-87.826q18.392-7.696 34.153 3.065t15.761 29.587v26.522l145.434-58.913q20.087-7.696 37.326 4.13 17.24 11.827 17.24 32.914v68.086h320v426.783q0 32.914-23.153 56.066-23.152 23.153-56.066 23.153H146.218Zm297.564-173h72.436v-160h-72.436v160Zm-166.783 0H350v-160h-73.001v160ZM610-240h73.001v-160H610v160Zm278.001-373.001H703.304l30.87-242.129q2-14.957 12.543-24.718 10.544-9.761 25.501-9.761h44.608q14.957 0 26.066 9.478 11.109 9.479 13.109 24.435l32 242.695Z"/></svg>