<svg xmlns="http://www.w3.org/2000/svg" width="48" height="48" viewBox="0 -960 960 960"><path d="M366.72-94.2q-46.33-46.64-46.33-113.54 0-56.02 34.22-98.27 34.22-42.25 85.78-55.51v-78.87H275.65q-33.49 0-56.63-23.28-23.15-23.28-23.15-55.94v-73.04h-69.83q-17.27 0-28.72-11.45t-11.45-28.73v-220q0-16.7 11.45-28.15 11.45-11.46 28.72-11.46h220q16.71 0 28.16 11.46 11.45 11.45 11.45 28.15v220q0 17.28-11.45 28.73t-28.16 11.45h-70.39v73.04h408.7v-79.43q-51.57-12.7-85.79-54.89-34.21-42.2-34.21-98.9 0-66.66 46.53-113.13 46.53-46.48 113.28-46.48t113.36 46.48q46.61 46.47 46.61 113.13 0 56.7-34.22 98.9-34.21 42.19-85.78 54.89v79.43q0 32.66-23.15 55.94-23.14 23.28-56.63 23.28H519.61v78.87q51.56 13.26 85.78 55.44 34.22 42.19 34.22 98.13 0 67.17-46.33 113.78Q546.96-47.56 480-47.56q-66.96 0-113.28-46.64Zm414.24-601.51q23.39-23.28 23.39-56.72t-23.28-56.83q-23.28-23.39-56.72-23.39t-56.83 23.28q-23.39 23.27-23.39 56.71t23.28 56.83q23.28 23.39 56.72 23.39t56.83-23.27Zm-615.31 23.27h140.22v-140.21H165.65v140.21Zm371.07 521.81q23.67-23.27 23.67-56.71t-23.47-56.83q-23.47-23.39-56.72-23.39-33.24 0-56.92 23.27-23.67 23.28-23.67 56.72t23.47 56.83q23.47 23.39 56.72 23.39 33.24 0 56.92-23.28Zm-300.68-592.2Zm488.48-10ZM480-207.74Z"/></svg>