<svg xmlns="http://www.w3.org/2000/svg" width="48" height="48" viewBox="0 -960 960 960"><path d="M480-47.565q-66.957 0-113.283-46.637-46.326-46.637-46.326-113.537 0-56.023 34.217-98.272 34.218-42.25 85.783-55.511v-78.869H275.652q-33.49 0-56.636-23.277-23.147-23.278-23.147-55.941v-73.043h-69.826q-17.272 0-28.723-11.451t-11.45-28.723v-220q0-16.707 11.451-28.158t28.723-11.451h220q16.707 0 28.158 11.451t11.451 28.158v220q0 17.272-11.451 28.723t-28.158 11.451h-70.391v73.043h408.696v-79.434q-51.566-12.696-85.783-54.892-34.217-42.195-34.217-98.891 0-66.663 46.637-113.136t113.537-46.473q66.663 0 113.136 46.473t46.473 113.136q0 56.696-34.217 98.891-34.218 42.196-85.783 54.892v79.434q0 32.663-23.147 55.941-23.146 23.277-56.636 23.277h-164.74v78.869q51.565 13.261 85.783 55.447 34.217 42.185 34.217 98.123 0 67.17-46.326 113.779Q546.957-47.565 480-47.565Z"/></svg>