<svg xmlns="http://www.w3.org/2000/svg" width="48" height="48" viewBox="0 -960 960 960"><path d="M246.96-446h100q22.43 0 36.21-14.5 13.79-14.5 13.79-35.5v-57q0-21-13.79-35.5-13.78-14.5-36.21-14.5H216.48q-7.7 0-13.61 5.91-5.91 5.92-5.91 13.61v201.25q0 11.1 6.89 18.16 6.88 7.07 17.71 7.07 10.83 0 18.11-7 7.29-7 7.29-18v-64Zm204.47-150q-7 7-7 18v196q0 11 7 18t17.72 7q10.72 0 18-7 7.28-7 7.28-18v-196q0-11-7.28-18t-18-7q-10.72 0-17.72 7Zm142.61 61 109.74 166.43q4 5.57 9.3 8.57 5.3 3 11.65 3h12.72q11.03 0 17.81-6.83 6.78-6.83 6.78-18.3V-581q0-9-6.5-15.5T740-603q-9.05 0-16.08 6.5-7.03 6.5-7.03 15.5v149L602.66-593.46q-2.92-4.97-8.1-7.26-5.17-2.28-10.39-2.28h-11q-9.56 0-16.84 6.38-7.29 6.37-7.29 16.19V-379q0 9 7 15.5t16 6.5q9 0 15.5-7t6.5-16v-155Zm-347.08 39v-57h100v57h-100ZM145.09-145.87q-32.51 0-55.87-23.35-23.35-23.36-23.35-55.87v-509.82q0-32.74 23.35-56.26 23.36-23.53 55.87-23.53h669.82q32.74 0 56.26 23.53 23.53 23.52 23.53 56.26v509.82q0 32.51-23.53 55.87-23.52 23.35-56.26 23.35H145.09Z"/></svg>