<svg xmlns="http://www.w3.org/2000/svg" width="48" height="48" viewBox="0 -960 960 960"><path d="M501.566-414.392v-101.826h110q28.522 0 47.652-19.13 19.131-19.131 19.131-47.653v-103.39q0-28.522-19.131-47.37-19.13-18.848-47.652-18.848H469.305q-13.965 0-23.396 9.464-9.43 9.463-9.43 23.478 0 14.015 9.713 23.645 9.713 9.631 23.678 9.631h141.696v103.39h-110q-29.272 0-47.745 19.131-18.473 19.13-18.473 47.652v128.434q0 17.272 11.451 28.724 11.452 11.451 28.158 11.451h162.652q13.965 0 23.396-9.747 9.43-9.746 9.43-23.761 0-14.014-9.43-23.645-9.431-9.63-23.396-9.63H501.566Zm-226.87 218.914q-32.507 0-55.862-23.356-23.356-23.355-23.356-55.862v-549.826q0-32.74 23.356-56.262 23.355-23.522 55.862-23.522h549.826q32.74 0 56.262 23.522t23.522 56.262v549.826q0 32.507-23.522 55.862-23.522 23.356-56.262 23.356H274.696ZM135.478-55.694q-32.74 0-56.262-23.522t-23.522-56.262v-589.435q0-16.707 11.502-28.158t28.566-11.451q17.064 0 28.39 11.451t11.326 28.158v589.435h589.435q16.707 0 28.158 11.502 11.451 11.501 11.451 28.565t-11.451 28.39q-11.451 11.327-28.158 11.327H135.478Z"/></svg>