<svg xmlns="http://www.w3.org/2000/svg" width="48" height="48" viewBox="0 96 960 960"><path d="M598.957 369.609 481.87 663.434q-6.565 16.131 2.348 30.544t25.986 14.413q10.815 0 19.762-6.065 8.948-6.066 12.57-16.344l124.101-308.78q2.886-7.376 4.103-14.646 1.217-7.27 1.217-15.711 0-17.654-11.189-30.554-11.189-12.9-28.329-12.9H461.163q-13.511 0-22.858 9.633-9.348 9.634-9.348 23.874 0 14.001 9.36 23.356 9.359 9.355 24.171 9.355h136.469ZM274.696 860.522q-32.507 0-55.862-23.356-23.356-23.355-23.356-55.862V231.478q0-32.74 23.356-56.262 23.355-23.522 55.862-23.522h549.826q32.74 0 56.262 23.522t23.522 56.262v549.826q0 32.507-23.522 55.862-23.522 23.356-56.262 23.356H274.696Zm0-79.218h549.826V231.478H274.696v549.826ZM135.478 1000.31q-32.74 0-56.262-23.526-23.522-23.522-23.522-56.262V330.087q0-15.957 11.834-27.283t28.566-11.326q16.732 0 28.058 11.451t11.326 28.158v589.435h590.435q15.957 0 27.283 11.657t11.326 28.128q0 17.346-11.451 28.672-11.451 11.331-28.158 11.331H135.478Zm139.218-219.006V231.478v549.826Z"/></svg>