<svg xmlns="http://www.w3.org/2000/svg" width="48" height="48" viewBox="0 96 960 960"><path d="M570.609 708.391q14.696 0 24.044-9.588t9.348-23.804V336.896q0-14.809-9.348-24.157t-24.044-9.348h-84q-13.203 0-22.797 9.848-9.594 9.848-9.594 23.261 0 14.413 9.588 23.761 9.588 9.348 23.803 9.348h49.609v306.39q0 13.203 10.088 22.798 10.088 9.594 23.303 9.594ZM274.696 860.522q-32.507 0-55.862-23.356-23.356-23.355-23.356-55.862V231.478q0-32.74 23.356-56.262 23.355-23.522 55.862-23.522h549.826q32.74 0 56.262 23.522t23.522 56.262v549.826q0 32.507-23.522 55.862-23.522 23.356-56.262 23.356H274.696ZM135.478 1000.31q-32.74 0-56.262-23.526-23.522-23.522-23.522-56.262V330.087q0-15.957 12.159-27.283 12.158-11.326 28.065-11.326 16.908 0 28.234 11.326t11.326 28.283v589.435h590.435q15.957 0 27.283 11.982 11.326 11.981 11.326 27.627 0 17.522-11.326 28.848-11.326 11.331-28.283 11.331H135.478Z"/></svg>