<svg xmlns="http://www.w3.org/2000/svg" width="48" height="48" viewBox="0 96 960 960"><path d="m805.566 988.827-230.87-230.87v59.173q0 38.088-28.022 65.544-28.022 27.457-66.674 27.457-38.652 0-66.392-27.739-27.739-27.74-27.739-66.392V569.565L66.173 250.434q-10.13-9.565-10.13-23.761t10.13-23.761q9.565-9.565 23.478-9.565 13.914 0 23.479 9.565l739.958 739.393q9.565 9.565 9.565 23.261t-9.565 23.261q-9.565 10.13-23.761 10.13t-23.761-10.13ZM593.001 597.218l-56.566-57.131 172.825-219H316.87l-79.218-79.783H772q30.609 0 44.001 26.913 13.391 26.913-5.696 51.262L593.001 597.218Zm-56.566-57.131Z"/></svg>