<svg xmlns="http://www.w3.org/2000/svg" width="48" height="48" viewBox="0 96 960 960"><path d="M274.696 860.522q-32.507 0-55.862-23.356-23.356-23.355-23.356-55.862V231.478q0-32.74 23.356-56.262 23.355-23.522 55.862-23.522h549.826q32.74 0 56.262 23.522t23.522 56.262v549.826q0 32.507-23.522 55.862-23.522 23.356-56.262 23.356H274.696ZM135.478 1000.31q-32.479 0-56.131-23.657-23.653-23.652-23.653-56.131V330.087q0-15.957 11.659-27.283 11.658-11.326 28.565-11.326 16.908 0 28.234 11.326t11.326 28.283v589.435h590.435q15.957 0 27.283 11.482 11.326 11.481 11.326 28.127 0 17.522-11.326 28.848-11.326 11.331-28.283 11.331H135.478Z"/></svg>