<svg xmlns="http://www.w3.org/2000/svg" width="48" height="48" viewBox="0 -960 960 960"><path d="M806.13-67.17 66.17-806.13q-10.13-10.27-9.84-23.83.28-13.56 9.96-23.13 10.24-10.13 23.76-10.13 13.51 0 23.65 10.13L853.09-113.7q10.13 10.24 9.85 23.6-.29 13.36-9.96 22.93-10.25 10.13-23.48 10.13-13.24 0-23.37-10.13Zm-183.3-373.79q-14.7 0-26.31-13.52t-11.61-27.06q0-13.98 10.29-26.03 10.29-12.04 27.63-12.04h70q16.9 0 28.25 11.5 11.36 11.5 11.36 28.42t-11.36 27.83q-11.35 10.9-28.25 10.9h-70Zm-224.7-228.65q-16.46 0-28.04-11.73-11.57-11.72-11.57-27.73 0-14.54 10.54-27.15 10.55-12.61 29.07-12.61h416.96q16.9 0 28.25 11.5 11.36 11.51 11.36 28.43t-11.36 28.1q-11.35 11.19-28.25 11.19H398.13Zm31.3 457.87q-16.9 0-28.25-11.08-11.35-11.08-11.35-28t11.45-28.53q11.45-11.61 28.15-11.61h101.7q16.34 0 27.69 11.79 11.35 11.78 11.35 28.7t-11.45 27.83q-11.45 10.9-28.15 10.9H429.43ZM266.61-440.96q-16.91 0-27.98-11.08t-11.07-28q0-16.92 11.46-28.24 11.45-11.33 28.15-11.33h164.74v78.65h-165.3Zm-121.7-228.65q-16.9 0-27.97-11.36t-11.07-28.29q0-16.92 11.45-28.24 11.45-11.33 28.16-11.33h57.78v79.22h-58.35Z"/></svg>