<svg xmlns="http://www.w3.org/2000/svg" width="48" height="48" viewBox="0 -960 960 960"><path d="M266.43-236.09v-224l14.53-38.61h399.78l13.96 38.61v224H266.43Zm80.22-195.82v129.04h269.26v-129.04H346.65Zm172.42-305.48q15.5-15.78 15.5-38.62 0-22.83-15.5-38.21-15.5-15.39-38.34-15.39-22.83 0-38.5 15.39-15.66 15.38-15.66 38.21 0 22.84 15.66 38.62 15.67 15.78 38.5 15.78 22.84 0 38.34-15.78Zm129.8 5.87v-88.74l-47.13 9.74q2 8.66 2.78 17.47.78 8.8.78 17.47 0 8.67-1.06 17.27-1.07 8.61-3.07 17.05l47.7 9.74ZM266.43-460.09q0-72.65 42.11-127.32 42.11-54.68 107.2-75.81-17.43-10.15-30.97-25.27t-22.21-33.64L215.61-752q-6.83-1.57-11.02-7.34-4.2-5.78-4.2-12.57v-7.39q0-6.27 4.13-12.4 4.12-6.14 11.09-7.52l146.95-29.87q14.7-33.82 46.59-54.8 31.89-20.98 71.42-20.98 25.26 0 46.95 9.06 21.7 9.07 39.39 24.63l104.83-21.3q19.09-3.56 33.48 8.76 14.39 12.33 14.39 31.42v153.39q0 18.99-14.39 31.37-14.39 12.37-32.92 8.24l-105.39-21.31q-5.24 4.57-10.31 9.2-5.08 4.63-11.21 8.19 64.46 20.6 106.88 75.46 42.43 54.87 42.43 127.67h-78.79q0-58.87-39.73-97.17-39.73-38.3-94.61-38.3-54.74 0-94.83 38.51-40.09 38.51-40.09 96.96h-80.22Zm79.79 394.22q-32.74 0-56.26-23.35-23.53-23.36-23.53-55.87v-91h80.22v91h269.26v-91h78.79v91q0 32.51-23.36 55.87-23.36 23.35-55.86 23.35H346.22Z"/></svg>