<svg xmlns="http://www.w3.org/2000/svg" width="48" height="48" viewBox="0 96 960 960"><path d="m658.217 797.783-191-191q-6.13-6.131-8.978-13.109T455.391 579q0-7.696 2.848-14.674t8.978-13.109l192-192q11.826-11.826 28.283-11.826t28.283 11.826q11.826 11.826 11.826 28.283t-11.826 28.283L552.566 579l163.217 163.217q11.826 11.826 11.826 27.783t-11.826 27.783Q703.957 809.609 687 809.609t-28.783-11.826ZM270 829.566q-16.957 0-28.283-11.326-11.326-11.327-11.326-28.283V362.043q0-16.956 11.326-28.283 11.326-11.326 28.283-11.326t28.283 11.326q11.326 11.327 11.326 28.283v427.914q0 16.956-11.326 28.283-11.326 11.326-28.283 11.326Z"/></svg>