<svg xmlns="http://www.w3.org/2000/svg" width="48" height="48" viewBox="0 96 960 960"><path d="M517.695 953.261Q506.434 942 506.434 927.456q0-14.543 11.261-26.369l116.478-115.913-363.347-363.347-115.913 116.478q-11.261 11.261-26.087 10.761t-26.087-11.196q-10.696-10.696-10.696-26.304 0-15.609 10.696-26.305l29.913-29.913-28.217-28.217q-11.261-11.826-11.261-28.065 0-16.24 11.261-27.501l57.782-57.782-13.652-13.652q-11.826-11.826-11.609-28.283.218-16.457 12.044-28.283 11.826-11.261 28.283-11.261t27.718 11.261l13.217 14.217 57.347-57.347q11.261-11.261 27.501-11.261 16.239 0 28.065 11.261l28.652 28.652 30.913-30.348q11.261-11.261 25.804-11.261 14.544 0 25.805 11.261t11.261 25.805q0 14.543-11.261 25.804L326.392 366.261l363.347 363.347 115.913-115.913q10.696-11.261 26.022-11.261 15.326 0 26.587 11.261 10.696 10.696 10.696 26.022 0 15.326-10.696 26.022l-30.913 30.913 28.217 28.217q11.261 11.826 11.261 28.065 0 16.24-11.261 27.501l-58.782 58.782 13.652 13.652q11.826 11.826 11.826 28.065 0 16.24-11.826 27.501-11.261 11.826-27.218 11.826t-27.783-11.826l-13.652-14.217-57.347 57.347q-11.261 11.261-27.501 11.261-16.239 0-28.065-11.261l-28.652-29.217-30.913 30.913q-11.261 11.261-25.804 11.261-14.544 0-25.805-11.261Z"/></svg>