<svg xmlns="http://www.w3.org/2000/svg" width="48" height="48" viewBox="0 -960 960 960"><path d="M334.217-145.087v-408.304L78.957-813.739q-10.131-10.131-9.849-22.978.283-12.848 10.413-23.544 10.13-10.13 23.761-10.13 13.631 0 23.761 10.13l719.436 719.435q10.13 10.131 10.13 22.979 0 12.848-10.13 22.978-10.131 10.696-23.761 10.696-13.631 0-23.761-10.13L662.479-230.217v102.651q0 25.566-18.065 43.63-18.065 18.066-43.63 18.066H414.001q-33.479 0-56.631-22.87-23.153-22.87-23.153-56.348Zm418.262-613.826h-431.87l-71.305-74.131q4.826-25.826 25.501-43.457 20.674-17.63 49.196-17.63h349.26q32.913 0 56.066 23.152 23.152 23.153 23.152 56.631v55.435Zm-90 342.87-281.87-282.87h371.87v28.87q0 11.826-3.348 23.152-3.347 11.326-10.043 21.587l-76.609 111.913v97.348Z"/></svg>