<svg xmlns="http://www.w3.org/2000/svg" width="48" height="48" viewBox="0 -960 960 960"><path d="M293.11-245.41q-21.5-21.5-21.5-53.5t21.5-53.5q21.5-21.5 53.5-21.5t53.5 21.5q21.5 21.5 21.5 53.5t-21.5 53.5q-21.5 21.5-53.5 21.5t-53.5-21.5ZM153.8-38.33q-11.32-11.32-11.32-28.28v-325.65q0-16.96 11.32-28.57 11.33-11.6 28.57-11.6 17.24 0 28.56 11.6 11.33 11.61 11.33 28.57V-191h249.26v-143.26q0-16.96 11.33-28.57 11.32-11.6 28.28-11.6h226.61q32.48 0 56.13 23.65 23.65 23.65 23.65 56.13v228.04q0 16.96-11.32 28.28Q794.87-27 777.63-27q-17.24 0-28.56-11.33-11.33-11.32-11.33-28.28v-45.17H222.26v45.17q0 16.96-11.33 28.28Q199.61-27 182.37-27T153.8-38.33Zm360.07-612.28L412.22-549.52l9 59.17q.43 6.13-1.85 12.05-2.28 5.91-6.85 9.47l-4.56 4.57q-8.7 8.69-20.74 7.19-12.05-1.5-18.74-11.76l-42-69.43-75-40q-9.7-5.13-11.26-15.11-1.57-9.98 6.13-17.24l9.69-9.69q1.57-1.57 18.53-5.7l66.17 10 105.65-105.09-188.35-94.17q-13.26-7.13-16.04-21.89-2.78-14.76 8.35-25.46l8.69-8.13q5-5 12.42-7.06 7.41-2.07 15.11-.07L544.43-814l103.61-104.74q14.7-14.13 35.96-15.63t36.96 13.63q14.13 14.7 13.13 34.74-1 20.04-15.13 34.17L614.78-747.65l62.44 247.74q2 9.13-.57 17.82-2.56 8.7-9.13 14.26l-4.56 4.57q-12.7 11.69-28.53 9.19-15.82-2.5-23.95-16.76l-96.61-179.78Z"/></svg>