<svg xmlns="http://www.w3.org/2000/svg" width="48" height="48" viewBox="0 96 960 960"><path d="m657 517-99 99 36 35 40-40q-7 72-50 117t-104 45q-17 0-29.5-2.5T427 763l-37 36q21 13 42.5 18.5T480 823q85 0 141.5-59T683 613l38 38 36-35-100-99ZM305 722l99-99-36-35-40 40q7-72 50-117t104-45q17 0 29.5 2.5T535 476l37-36q-21-13-42.5-18.5T482 416q-85 0-141.5 59T279 626l-38-38-36 35 100 99ZM145.087 950.131q-32.507 0-55.862-23.356-23.356-23.355-23.356-55.862V368.087q0-31.74 23.356-55.762 23.355-24.021 55.862-24.021h138.522l79.217-93.218h234.913l78.652 93.218h138.522q31.74 0 55.762 24.021 24.021 24.022 24.021 55.762v502.826q0 32.507-24.021 55.862-24.022 23.356-55.762 23.356H145.087Zm669.826-79.218V368.087h-175L561.26 274.87H399.305l-79.218 93.217h-175v502.826h669.826ZM480 572.609Z"/></svg>