<svg xmlns="http://www.w3.org/2000/svg" width="48" height="48" viewBox="0 -960 960 960"><path d="M520-25.869q-33.128 0-56.369-23.406-23.24-23.407-23.24-56.768v-93.696q-106-13.826-177.435-94.176t-71.435-190.607v-368.695q0-33.49 23.147-56.637t56.637-23.147H689.26q32.664 0 55.941 23.147 23.278 23.147 23.278 56.637v368.695q0 110.257-71.435 190.607t-177.435 94.176v94.087H730q16.707 0 28.158 11.501 11.451 11.502 11.451 28.566t-11.451 28.39Q746.707-25.87 730-25.87H520Zm31.521-417.697h136.844q2.417-9.739 3.635-20.091 1.217-10.352 1.217-20.865v-46.608H559.609q-15.011 0-25.049-10.089t-10.038-25.065q0-14.977 10.038-25.281 10.038-10.305 25.049-10.305h133.608v-87.565H502.652q-15.011 0-25.049-10.088-10.038-10.089-10.038-25.065 0-14.977 10.038-25.282 10.038-10.304 25.049-10.304h190.565v-97.565H266.783v334.173h86.26q30.869 0 57.521 8.022 26.652 8.021 48.348 24.195 25.392 22.131 47.587 34.957 22.196 12.826 45.022 12.826ZM480-271.305q57.46 0 104.925-27.456 47.466-27.457 75.901-74.065H551.521q-28.103 0-53.29-8.345-25.188-8.345-47.883-23.872-26.957-21.566-50.365-34.674-23.408-13.109-46.94-13.109h-83.695q11.565 77.608 70.916 129.565Q399.615-271.305 480-271.305Zm-29.652-181.521Z"/></svg>