<svg xmlns="http://www.w3.org/2000/svg" width="48" height="48" viewBox="0 -960 960 960"><path d="M201.869-441.087v-77.826q0-33.74 22.856-56.762 22.855-23.021 56.362-23.021h397.826q33.74 0 56.762 23.021 23.021 23.022 23.021 56.762v77.826q0 33.507-23.021 56.362-23.022 22.856-56.762 22.856H281.087q-33.507 0-56.362-22.856-22.856-22.855-22.856-56.362Zm243.913-378.697v-50q0-15.43 10.36-25.824 10.359-10.393 25.739-10.393t25.858 10.393q10.479 10.394 10.479 25.824v50q0 15.671-10.36 26.227-10.359 10.556-25.739 10.556t-25.858-10.556q-10.479-10.556-10.479-26.227Zm297.48 69.478 26-26q10.695-10.695 25.164-10.695 14.468 0 25.88 10.695 10.695 11.412 10.695 25.88 0 14.469-10.695 25.164l-26.566 26.566q-10.695 10.695-25.239 10.413-14.544-.283-25.239-10.979-10.696-10.695-10.696-25.164 0-14.468 10.696-25.88ZM445.782-90.782v-50q0-15.43 10.36-25.824 10.359-10.393 25.739-10.393t25.858 10.393q10.479 10.394 10.479 25.824v50q0 15.671-10.36 26.227-10.359 10.556-25.739 10.556t-25.858-10.556q-10.479-10.556-10.479-26.227Zm323.48-96.478-26.566-26q-10.695-10.695-10.695-25.164 0-14.468 10.695-25.88 11.412-10.695 25.88-10.695 14.469 0 25.164 10.695l26.566 26.566q10.695 10.695 10.695 25.239t-10.978 25.239q-10.978 10.696-25.522 10.696-14.544 0-25.239-10.696ZM166.26-699.262l-26.566-26q-10.695-10.695-10.695-25.164 0-14.468 10.695-25.88 11.412-10.695 25.88-10.695 14.469 0 25.164 10.695l26.566 26.566q10.695 10.695 10.695 25.239t-10.978 25.239q-10.978 10.696-25.522 10.696-14.544 0-25.239-10.696Zm-26 460.958 26-26q10.695-10.695 25.164-10.695 14.468 0 25.88 10.695 10.695 11.412 10.695 25.88 0 14.469-10.695 25.164l-26.566 26.566q-10.695 10.695-25.239 10.413-14.544-.283-25.239-10.979-10.696-10.695-10.696-25.164 0-14.468 10.696-25.88Z"/></svg>