<svg xmlns="http://www.w3.org/2000/svg" width="48" height="48" viewBox="0 96 960 960"><path d="m882.305 874.218-66.392-66.958V381.087H462.218l-66.783-66.217h-72.478l-79.784-79.784h171.609L481 301.304h334.913q32.74 0 56.262 23.521 23.521 23.522 23.521 56.262v449.826q0 9.261-2.847 21.152-2.848 11.892-10.544 22.153Zm-37.914 139.562L740.74 910.131H146.087q-32.507 0-55.862-23.645-23.356-23.646-23.356-55.573V314.87q0-27.689 18-49.497t43.696-27.461h33l76.392 76.958h-91.87v516.043h513.869L70.217 240.174q-10.13-10.131-9.848-23.544.283-13.413 9.823-22.954 10.156-10.155 23.286-10.155 13.131 0 23.261 10.131l774.174 773.609q9.566 10.079 9.566 23.518 0 13.441-9.566 23.391-9.976 9.79-23.466 9.48-13.49-.3-23.056-9.87ZM407.304 578.261Zm160.131-19.479Z"/></svg>