<svg xmlns="http://www.w3.org/2000/svg" width="48" height="48" viewBox="0 0 48 48"><path d="M7.3 36.75v-.25.25-22.5 22.5Zm0 3.95q-1.6 0-2.775-1.175Q3.35 38.35 3.35 36.75v-25.8q0-1.65 1.175-2.825Q5.7 6.95 7.3 6.95h11.8q.8 0 1.525.325.725.325 1.275.875l2.15 2.1H40.8q1.65 0 2.825 1.175Q44.8 12.6 44.8 14.25v10.2q-.9-.65-1.9-1.15-1-.5-2.1-.8v-8.25H7.3v22.5h16.75q.1 1 .375 2.025t.825 1.925Zm29.5-1q2.05 0 3.475-1.425Q41.7 36.85 41.7 34.75q0-2.1-1.425-3.5t-3.525-1.4q-2.1 0-3.5 1.4t-1.4 3.5q0 2.1 1.4 3.525 1.4 1.425 3.55 1.425Zm-.25 5.25q-.65 0-1.175-.45t-.575-1.1l-.1-.95q-1.05-.35-1.95-.9-.9-.55-1.55-1.15l-.75.4q-.6.3-1.25.075-.65-.225-1.05-.825l-.25-.4q-.4-.6-.275-1.275.125-.675.725-1.125l.65-.55q-.3-.85-.3-1.925 0-1.075.3-1.975l-.65-.5q-.6-.45-.725-1.15t.275-1.35l.25-.35q.4-.65 1.05-.85.65-.2 1.3.1l.7.4q.65-.55 1.55-1.1t1.95-.85l.1-1q.05-.65.6-1.125.55-.475 1.15-.475h.5q.65 0 1.125.45t.575 1.05l.1 1.1q1.1.3 2 .85.9.55 1.55 1.1l.7-.4q.6-.25 1.25-.075t1.05.825l.25.35q.4.65.275 1.35-.125.7-.675 1.15l-.65.5q.25.9.25 1.975 0 1.075-.25 1.925l.65.55q.55.45.675 1.15t-.275 1.3l-.2.4q-.4.6-1.05.775-.65.175-1.3-.125l-.7-.35q-.65.6-1.55 1.15-.9.55-2 .9l-.1.95q-.1.7-.575 1.125-.475.425-1.125.425Z"/></svg>