<svg xmlns="http://www.w3.org/2000/svg" width="48" height="48" viewBox="0 96 960 960"><path d="m596 694 39 27q12 8 24 0t7-22l-16-50 45-38q11-9 6-22t-19-13h-51l-16-48q-5-14-19-14.5T577 527l-17 49h-51q-14 0-19 13t6 22l45 38-16 51q-5 14 7 22t24 0l40-28ZM146.087 910.131q-32.507 0-55.862-23.856-23.356-23.855-23.356-55.362V314.87q0-31.741 23.356-55.762 23.355-24.022 55.862-24.022h235.782q15.974 0 30.857 6.696 14.883 6.695 25.797 17.61L481 301.304h334.913q31.74 0 55.762 24.021 24.021 24.022 24.021 55.762v449.826q0 31.507-24.021 55.362-24.022 23.856-55.762 23.856H146.087Zm0-595.261v516.043h669.826V381.087H448.087l-66.218-66.217H146.087Zm0 0v516.043V314.87Z"/></svg>