<svg xmlns="http://www.w3.org/2000/svg" width="48" height="48" viewBox="0 -960 960 960"><path d="m881.305-183.348-66.392-65.826v-419.521H472.392l-70.74-70.74h-77l-75.261-75.261h143.783q16.263 0 31.001 6.695 14.738 6.696 26.218 17.611l41.912 42.477h322.608q31.74 0 55.762 23.855 24.021 23.856 24.021 55.363v443.608q0 10.826-3.661 21.589-3.662 10.764-9.73 20.15Zm-736.218 37.479q-32.507 0-55.862-23.856-23.356-23.855-23.356-55.362v-509.826q0-27.917 19.413-50.742 19.413-22.824 47.37-27.346h34l77.522 78.088h-99.087v509.826h516.434L70.217-815.826q-10.13-10.131-9.848-23.544.283-13.413 9.823-22.954 10.156-10.155 23.286-10.155 13.131 0 23.261 10.131L890.913-88.739q9.566 10.08 9.566 23.518 0 13.439-9.566 23.395-9.976 9.787-23.466 9.48-13.49-.306-23.056-9.871L741.305-145.869H145.087ZM406.043-480Zm164.522-14.522Z"/></svg>