<svg xmlns="http://www.w3.org/2000/svg" width="48" height="48" viewBox="0 96 960 960"><path d="M599 602q30 0 51.5-21.5T672 529q0-30-21.5-51.5T599 456q-30 0-51.5 21.5T526 529q0 30 21.5 51.5T599 602ZM439 776h320v-19q0-41.435-42.5-64.717Q674 669 599 669t-117.5 23.283Q439 715.565 439 757v19ZM146.087 910.131q-32.507 0-55.862-23.856-23.356-23.855-23.356-55.362V314.87q0-31.741 23.356-55.762 23.355-24.022 55.862-24.022h268.695L481 301.304h334.913q31.74 0 55.762 24.021 24.021 24.022 24.021 55.762v449.826q0 31.507-24.021 55.362-24.022 23.856-55.762 23.856H146.087Z"/></svg>