<svg xmlns="http://www.w3.org/2000/svg" width="48" height="48" viewBox="0 -960 960 960"><path d="M225.087-105.869q-33.478 0-56.348-22.87-22.87-22.87-22.87-56.348v-382.652q0-18.522 8.196-35.479 8.195-16.956 23.152-27.783L432.13-822.609q21.087-15.957 47.87-15.957 26.783 0 47.87 15.957l254.913 191.608q14.957 10.827 23.435 27.783 8.478 16.957 8.478 35.479v382.652q0 33.478-23.152 56.348-23.153 22.87-56.631 22.87H225.087ZM420-240q8 0 14-6t6-14v-140q25 0 42.5-17.5T500-460v-100q0-8-6-14t-14-6q-8 0-14 6t-6 14v100h-20v-100q0-8-6-14t-14-6q-8 0-14 6t-6 14v100h-20v-100q0-8-6-14t-14-6q-8 0-14 6t-6 14v100q0 25 17.5 42.5T400-400v140q0 8 6 14t14 6Zm160 0q8 0 14-6t6-14v-294q0-11-7.5-18.5T574-580q-27 0-40.5 25T520-500v90q0 13 7.37 23.761Q534.739-375.478 550-380h10v120q0 8 6 14t14 6Z"/></svg>