<svg xmlns="http://www.w3.org/2000/svg" width="48" height="48" viewBox="0 96 960 960"><path d="M607.218 990.131q-26.261 0-45.24-18.978Q543 952.174 543 925.348V868.87h128.001v57.478q0 26.826-18.479 45.305-18.478 18.478-45.304 18.478Zm-252.436 0q-26.826 0-45.804-18.978-18.979-18.979-18.979-45.805v-84.217H42.869q-24.218 0-36.044-21.087-11.826-21.087 2.565-41.174l148.521-211.739h-37q-18.565-5.652-23.89-25.044-5.327-19.391 7.369-37.217l216.479-306.871q11.826-16.956 32.631-16.956 20.804 0 32.63 16.956L603.174 504.87q12.131 17.826 6.805 37.217-5.326 19.392-23.891 25.044h-36L698.609 778.87q11.826 17.521 1.565 39.891-10.261 22.37-34.478 22.37H418v85.217q0 26.826-18.478 45.305-18.479 18.478-44.74 18.478Zm374.219-149q8.391-14.087 13.239-35.609 4.848-21.522-8.544-40.044L609.175 588.74q24.87-6.696 34.956-40.37 10.087-33.674-9.739-61.761L502.957 297.521l70.913-99.522q11.826-16.956 32.63-16.956 20.805 0 33.196 16.956L856.175 504.87q12.131 17.826 6.805 37.217-5.326 19.392-23.326 25.044h-36L951.175 778.87q13.826 20.087 2 41.174t-35.479 21.087H729.001Z"/></svg>