<svg xmlns="http://www.w3.org/2000/svg" width="48" height="48" viewBox="0 -960 960 960"><path d="M414.017-277.086q-16.029 0-32.843-6.848-16.815-6.848-30.218-19.543L178.043-477.521q-13.285-13.505-19.838-30.201-6.553-16.695-6.553-34.514 0-18.384 6.553-35.458 6.553-17.074 19.838-30.349l183.913-183.913-89.913-89.913q-10.261-10.761-10.543-26.337-.283-15.576 10.978-26.663 10.696-10.87 26.022-10.587 15.326.282 26.022 10.978l326 326.435q13.376 13.218 19.884 30.216 6.507 16.998 6.507 35.506 0 17.942-6.507 34.624-6.508 16.682-19.884 30.176L477.044-303.477q-13.009 12.695-29.722 19.543-16.712 6.848-33.305 6.848Zm.548-462.261L224.044-549.956h379.912L414.565-739.347Zm345.984 475.87q-31.766 0-53.897-22.169-22.13-22.168-22.13-54.141 0-18.125 8.848-39.082t23.978-43.087q8.565-14.131 20.065-29.413 11.5-15.283 23.631-29.413 12.13 14.13 24.088 29.502 11.959 15.372 20.738 29.324 14.565 22.13 23.131 43.12 8.565 20.99 8.565 39.003 0 31.795-22.626 54.075-22.625 22.281-54.391 22.281ZM144.391 1q-26.957 0-45.674-18.663T80-63.206q0-26.881 18.717-44.946 18.717-18.066 45.674-18.066h672.218q26.544 0 44.968 18.172Q880-89.873 880-63.284q0 26.588-18.423 45.436Q843.153 1 816.609 1H144.391Z"/></svg>