<svg xmlns="http://www.w3.org/2000/svg" width="48" height="48" viewBox="0 96 960 960"><path d="M66.609 1029q-16.707 0-28.158-11.45-11.452-11.45-11.452-28.159v-153q0-16.706 11.452-28.157 11.45-11.452 28.158-11.452h39.39V355.218h-39.39q-16.707 0-28.158-11.452-11.452-11.451-11.452-28.157v-153q0-16.707 11.452-28.158 11.45-11.452 28.158-11.452h153q16.706 0 28.157 11.452 11.452 11.451 11.452 28.158v39.39h441.564v-39.39q0-16.707 11.452-28.158 11.451-11.452 28.157-11.452h153q16.707 0 28.158 11.452 11.452 11.451 11.452 28.158v153q0 16.706-11.452 28.157-11.451 11.452-28.158 11.452h-39.39v441.564h39.39q16.707 0 28.158 11.452 11.452 11.451 11.452 28.157v153q0 16.709-11.452 28.159-11.451 11.45-28.158 11.45h-153q-16.706 0-28.157-11.45-11.452-11.45-11.452-28.159v-39.39H259.218v39.39q0 16.709-11.452 28.159-11.451 11.45-28.157 11.45h-153Zm192.609-158.218h441.564v-34.391q0-16.706 11.452-28.157 11.451-11.452 28.157-11.452h34.391V355.218h-34.391q-16.706 0-28.157-11.452-11.452-11.451-11.452-28.157v-34.391H259.218v34.391q0 16.706-11.452 28.157-11.451 11.452-28.157 11.452h-34.391v441.564h34.391q16.706 0 28.157 11.452 11.452 11.451 11.452 28.157v34.391Zm92.695-126.434q-16.635 0-25.078-11.631-8.444-11.63-2.313-27.891l118.391-322.565q3.75-9.93 14.446-17.661 10.695-7.73 22.891-7.73 11.446 0 21.076 7.63 9.631 7.63 14.196 17.761l121.521 325.434q6.131 15.261-1.917 25.957-8.047 10.696-24.971 10.696-8.895 0-17.59-6.196-8.696-6.196-10.696-14.892l-29.478-81.825H411.479l-29.478 81.956q-3 9.13-11.606 15.043-8.605 5.914-18.482 5.914Zm73-154h110.739L483 436.783h-7l-51.087 153.565Z"/></svg>