<svg xmlns="http://www.w3.org/2000/svg" width="48" height="48" viewBox="0 96 960 960"><path d="M472.26 793.61q-17.272 0-28.723-11.502-11.451-11.501-11.451-28.283 0-16.781 11.451-28.107 11.451-11.327 28.723-11.327h362.046q16.706 0 28.158 11.502 11.451 11.502 11.451 28.283t-11.451 28.108q-11.452 11.326-28.158 11.326H472.26Zm-255.87-91.479-115.305-114.74q-6.13-5.766-6.13-14.209t6.13-14.573L217.39 447.304q10.261-9.827 21.87-4.589 11.609 5.237 11.609 18.545v226.48q0 13.891-12.609 19.054-12.609 5.163-21.87-4.663Zm-90.696 269.48q-16.706 0-28.158-11.502-11.45-11.502-11.45-28.283t11.45-28.39q11.452-11.609 28.158-11.609h708.612q16.706 0 28.158 11.784 11.451 11.785 11.451 28.566t-11.451 28.107q-11.452 11.327-28.158 11.327H125.694Zm0-712.003q-16.706 0-28.158-11.502-11.45-11.502-11.45-28.283t11.45-28.107q11.452-11.327 28.158-11.327h708.612q16.706 0 28.158 11.502 11.451 11.502 11.451 28.283t-11.451 28.108q-11.452 11.326-28.158 11.326H125.694ZM472.26 437.609q-17.272 0-28.723-11.502t-11.451-28.283q0-16.781 11.451-28.39 11.451-11.609 28.723-11.609h362.046q16.706 0 28.158 11.784 11.451 11.784 11.451 28.566 0 16.781-11.451 28.107-11.452 11.327-28.158 11.327H472.26Zm0 178q-17.272 0-28.723-11.501-11.451-11.502-11.451-28.283 0-16.782 11.451-28.108t28.723-11.326h362.046q16.706 0 28.158 11.501 11.451 11.502 11.451 28.283 0 16.782-11.451 28.108-11.452 11.326-28.158 11.326H472.26Z"/></svg>