<svg xmlns="http://www.w3.org/2000/svg" width="48" height="48" viewBox="0 -960 960 960"><path d="M230-780q-16.707 0-28.158-11.502-11.451-11.501-11.451-28.233t11.451-28.39q11.451-11.659 28.158-11.659h500q16.707 0 28.158 11.834t11.451 28.566q0 16.732-11.451 28.058T730-780H230Zm249.845 679.218q-122.497 0-207.672-85.31-85.174-85.311-85.174-207.642 0-122.331 85.33-207.407 85.329-85.077 207.826-85.077t207.672 85.214q85.174 85.213 85.174 207.543 0 122.331-85.33 207.505-85.329 85.174-207.826 85.174Zm-.247-105.436q77.75 0 132.575-54.54 54.826-54.541 54.826-132.457 0-77.915-54.424-132.741-54.424-54.826-132.173-54.826-77.75 0-132.575 54.434-54.826 54.434-54.826 132.197 0 77.999 54.424 132.966 54.424 54.967 132.173 54.967Z"/></svg>