<svg xmlns="http://www.w3.org/2000/svg" width="48" height="48" viewBox="0 -960 960 960"><path d="M389.42-360q-15.416 0-25.789-10.413-10.372-10.412-10.372-25.805V-581.13q-66.565-1.696-113.283-45.693-46.717-43.996-46.717-108.895 0-65.959 45.326-111.621 45.327-45.662 110.892-45.662h256.217q15.577 0 26.18 10.654t10.603 26.027q0 15.373-10.603 25.847Q621.271-820 605.694-820h-53.217v423.782q0 15.393-10.653 25.805Q531.17-360 515.797-360q-15.374 0-25.847-10.413-10.473-10.412-10.473-25.805V-820h-53.783v423.782q0 15.393-10.428 25.805Q404.837-360 389.42-360ZM663.956-90.26q-10.696-10.696-10.696-25.24 0-14.543 10.696-25.239l48.478-49.043H152.261q-15.576 0-26.18-10.429-10.603-10.429-10.603-25.845 0-15.417 10.603-25.789 10.604-10.373 26.18-10.373h560.173l-48.478-49.043q-10.696-10.696-10.696-25.164 0-14.468 10.696-25.88 11.412-10.696 25.88-10.696 14.468 0 25.164 10.696l108.522 108.522q6.028 5.904 8.927 13.052t2.899 14.864q0 7.717-2.899 14.731-2.899 7.015-8.927 12.919L715-90.26Q704.304-79 689.836-79q-14.468 0-25.88-11.26ZM353.259-653.001V-820q-38.043 0-62.804 22.119-24.761 22.119-24.761 61.478t24.676 61.381q24.676 22.021 62.889 22.021Zm0-83.217Z"/></svg>