<svg xmlns="http://www.w3.org/2000/svg" width="48" height="48" viewBox="0 -960 960 960"><path d="M481.696-274.26q-16.707 0-28.158-11.452-11.451-11.451-11.451-28.158v-332.26q0-16.637 11.451-28.406 11.451-11.769 28.158-11.769h332.826q16.707 0 28.158 11.769t11.451 28.406v332.26q0 16.707-11.451 28.158-11.451 11.452-28.158 11.452H481.696Zm39.609-75.262h253.043v-261.521H521.305v261.521ZM143.217-105.869q-15.506 0-26.427-10.986t-10.921-26.587q0-15.601 10.921-26.645 10.921-11.043 26.427-11.043h673.566q15.746 0 26.83 11.1 11.083 11.1 11.083 26.869 0 15.77-11.083 26.531-11.084 10.761-26.83 10.761H143.217Zm0-168.391q-15.506 0-26.427-10.986t-10.921-26.588q0-15.601 10.921-26.644 10.921-11.044 26.427-11.044h200.956q16.142 0 27.028 11.1t10.886 26.87q0 15.77-10.886 26.531t-27.028 10.761H143.217Zm0-168.392q-15.506 0-26.427-10.986t-10.921-26.587q0-15.601 10.921-26.645 10.921-11.043 26.427-11.043h200.956q16.142 0 27.028 11.1t10.886 26.869q0 15.77-10.886 26.531t-27.028 10.761H143.217Zm0-168.391q-15.506 0-26.427-10.986t-10.921-26.587q0-15.602 10.921-26.645 10.921-11.044 26.427-11.044h200.956q16.142 0 27.028 11.1t10.886 26.87q0 15.77-10.886 26.531t-27.028 10.761H143.217Zm0-168.392q-15.506 0-26.427-10.986t-10.921-26.587q0-15.601 10.921-26.645 10.921-11.043 26.427-11.043h673.566q15.746 0 26.83 11.1 11.083 11.1 11.083 26.869 0 15.77-11.083 26.531-11.084 10.761-26.83 10.761H143.217Z"/></svg>