<svg xmlns="http://www.w3.org/2000/svg" width="48" height="48" viewBox="0 -960 960 960"><path d="M146.218 0q-27.827 0-47.022-19.978Q80-39.957 80-67.783t19.978-47.022q19.979-19.196 47.805-19.196h665.999q27.827 0 47.022 19.196Q880-95.609 880-67.783q0 27.826-19.978 47.805Q840.043 0 812.217 0H146.218Zm293.739-677.35 226.002 226.001-173.696 173.696q-24.087 24.087-66.066 24.087t-66.066-24.087l-11-11-22.739 23.304q-11.391 11.957-26.848 18.653-15.457 6.695-31.979 6.695h-73.086q-13.391 0-18.022-12.609-4.63-12.608 4.631-21.869l90.608-90.609-4-4q-27.652-27.087-26.869-68.218.782-41.131 27.869-68.783L439.957-677.35Zm44.131-43.565 157.346-157.912q23.218-23.218 56.849-23.218 33.63 0 56.848 23.218l109.739 110.87q23.218 23.217 22.718 59.348T863.87-649.26L709.524-494.914 484.088-720.915Z"/></svg>