<svg xmlns="http://www.w3.org/2000/svg" width="48" height="48" viewBox="0 -960 960 960"><path d="M651.72-132.84q-11.33-11.45-11.33-28.16v-80.39H560q-16.71 0-28.16-11.5t-11.45-28.29q0-16.78 11.45-28.1 11.45-11.33 28.16-11.33h80.39V-401q0-16.71 11.5-28.16t28.29-11.45q16.78 0 28.1 11.45 11.33 11.45 11.33 28.16v80.39H800q16.71 0 28.16 11.5t11.45 28.29q0 16.78-11.45 28.1-11.45 11.33-28.16 11.33h-80.39V-161q0 16.71-11.5 28.16t-28.29 11.45q-16.78 0-28.1-11.45Zm-365.33-77.77q-17.27 0-28.72-11.5t-11.45-28.56q0-17.07 11.45-28.39 11.45-11.33 28.72-11.33h124.7q16.7 0 28.15 11.5 11.46 11.5 11.46 28.57 0 17.06-11.46 28.39-11.45 11.32-28.15 11.32h-124.7Zm0-179.56q-17.27 0-28.72-11.5-11.45-11.51-11.45-28.29t11.45-28.11q11.45-11.32 28.72-11.32h124.7q16.7 0 28.15 11.5 11.46 11.5 11.46 28.28t-11.46 28.11q-11.45 11.33-28.15 11.33h-124.7Zm0-179.44q-17.27 0-28.72-11.5t-11.45-28.28q0-16.78 11.45-28.39t28.72-11.61h447q16.71 0 28.16 11.78Q773-625.82 773-609.04t-11.45 28.11q-11.45 11.32-28.16 11.32h-447Zm0-180q-17.27 0-28.72-11.5t-11.45-28.57q0-17.06 11.45-28.39 11.45-11.32 28.72-11.32h447q16.71 0 28.16 11.5T773-789.33q0 17.07-11.45 28.39-11.45 11.33-28.16 11.33h-447Zm-168.06-11.5Q107-772.61 107-789.68q0-17.06 11.5-28.39 11.5-11.32 28.28-11.32 16.79 0 28.11 11.5 11.33 11.5 11.33 28.56 0 17.07-11.5 28.39-11.51 11.33-28.29 11.33t-28.1-11.5Zm0 180Q107-592.61 107-609.39t11.5-28.39q11.5-11.61 28.28-11.61 16.79 0 28.11 11.78 11.33 11.79 11.33 28.57t-11.5 28.11q-11.51 11.32-28.29 11.32t-28.1-11.5Zm0 179.44Q107-413.18 107-429.96t11.5-28.11q11.5-11.32 28.28-11.32 16.79 0 28.11 11.5 11.33 11.5 11.33 28.28t-11.5 28.11q-11.51 11.33-28.29 11.33t-28.1-11.5Zm0 179.56Q107-233.61 107-250.67q0-17.07 11.5-28.39 11.5-11.33 28.28-11.33 16.79 0 28.11 11.5 11.33 11.5 11.33 28.57 0 17.06-11.5 28.39-11.51 11.32-28.29 11.32t-28.1-11.5Z"/></svg>