<svg xmlns="http://www.w3.org/2000/svg" width="48" height="48" viewBox="0 -960 960 960"><path d="M439.83-65.87q-29.83 0-51.98-21.48-22.15-21.49-22.15-52.08v-188.13H224.52q-31.69 0-55.17-23.48t-23.48-55.18v-279.82q0-70.83 47.69-119.74 47.7-48.92 119.53-48.92h461.43q16.89 0 28.53 11.65 11.65 11.64 11.65 28.53v408.3q0 31.7-23.24 55.18t-55.98 23.48H594.87v188.13q0 30.59-22.15 52.08-22.15 21.48-51.98 21.48h-80.91ZM224.52-557.39h510.96v-218.09h-56.57v126.31q0 13.24-8.5 21.9-8.5 8.66-21.78 8.66-13.28 0-21.78-8.66-8.5-8.66-8.5-21.9v-126.31h-72.13v52.97q0 13.58-8.5 21.96t-21.79 8.38q-13.28 0-21.78-8.38-8.5-8.38-8.5-21.96v-52.97H313.09q-39.92 0-64.24 25.26-24.33 25.26-24.33 64.18v128.65Z"/></svg>