<svg xmlns="http://www.w3.org/2000/svg" width="48" height="48" viewBox="0 -960 960 960"><path d="M294-104.173q-16.261 0-29.913-5.5-13.652-5.5-24.652-13.5-10.696-6.565-21.261-13.783-10.565-7.217-22.131-7.217-15.956 0-28.065-11.826-12.109-11.827-12.109-27.783 0-16.392 12.109-28.001 12.109-11.608 28.065-11.608 16.827 0 31.261 5.282 14.435 5.283 25.435 12.718 9.131 7.13 18.848 14.565 9.717 7.435 20.152 7.435t20.717-7.435q10.283-7.435 19.979-14.565 11.565-7.435 25.435-12.718 13.869-5.282 29.13-5.282 16.261 0 29.913 5.282 13.652 5.283 24.652 12.718 10.696 7.13 20.131 14.565 9.434 7.435 19.304 7.435t19.587-7.435q9.717-7.435 19.413-14.565 11-7.435 24.87-12.718 13.869-5.282 29.13-5.282 14.565 0 29.065 5.282 14.5 5.283 25.5 12.718 11.261 7.13 21.544 14.565 10.282 7.435 20.717 7.435 10.435 0 20.152-7.435 9.718-7.435 20.413-14.565 10.435-7.435 24.37-12.718 13.935-5.282 30.761-5.282 15.957 0 27.783 11.608 11.826 11.609 11.826 28.001 0 15.956-12.109 27.783-12.109 11.826-27.5 11.826-12.696 0-23.261 7.217-10.565 7.218-21.261 13.783-10.435 7.435-24.587 13.217-14.152 5.783-30.413 5.783-16.826 0-30.761-5.5-13.935-5.5-23.804-13.5-10.131-6.565-19.565-13.783-9.435-7.217-19.87-7.217-9.87 0-19.587 7.217-9.717 7.218-18.848 13.783-10.435 8-24.304 13.5-13.87 5.5-30.261 5.5-16.261 0-30.196-5.5-13.934-5.5-24.369-13.5-10.131-6.565-19.565-13.783-9.435-7.217-19.87-7.217t-19.87 7.217q-9.434 7.218-18.565 13.783-9.869 8-23.804 13.5-13.935 5.5-29.761 5.5Zm186-192.436q-104.957 0-177.283-72.108-72.326-72.109-72.326-175.501v-283q0-20.956 14.326-35.065 14.326-14.109 35.283-14.109 21.522 0 35.566 14.326 14.043 14.326 14.043 35.848v284q0 62.044 43.174 103.935Q415.957-396.392 480-396.392t107.217-41.891q43.174-41.891 43.174-103.935v-285q0-20.956 14.326-35.065 14.326-14.109 35.283-14.109 21.522 0 35.566 14.326 14.043 14.326 14.043 35.848v282q0 103.392-72.326 175.501Q584.957-296.609 480-296.609Z"/></svg>