<svg xmlns="http://www.w3.org/2000/svg" width="48" height="48" viewBox="0 -960 960 960"><path d="m299.175-185.26 36.738 38.738q10.261 10.826 10.261 26.218 0 15.391-11.391 27.218Q323.89-81.26 307.467-81.26q-16.424 0-28.25-11.826l-104-104.001q-11.826-11.826-11.826-28.065t11.826-28.066l103.435-103q11.826-10.826 28.348-11.043 16.522-.218 29.479 12.348 11.261 11.652 11.261 26.578t-11.261 25.987l-38.304 37.304h363.65l-35.738-36.738q-10.827-11.261-11.044-26.653-.217-15.391 12.174-27.783 11.826-11.826 27.783-11.826t27.783 11.826l103 103q11.826 12.392 11.826 28.348 0 15.957-11.826 27.783l-104 104Q669.957-81.26 653.559-81.26q-16.397 0-29.196-12.566-11.103-11.652-11.385-26.861-.283-15.209 10.978-26.835l38.304-37.738H299.175Zm-69.35-308.306q-16.782 0-28.108-11.451t-11.326-28.158v-321.347q0-16.707 11.501-28.441 11.502-11.733 28.283-11.733 16.782 0 28.108 11.733 11.326 11.734 11.326 28.441v321.347q0 16.707-11.501 28.158-11.502 11.451-28.283 11.451Zm250 0q-16.782 0-28.108-11.451t-11.326-28.158v-321.347q0-16.707 11.501-28.441 11.502-11.733 28.283-11.733 16.782 0 28.108 11.733 11.326 11.734 11.326 28.441v321.347q0 16.707-11.501 28.158-11.502 11.451-28.283 11.451Zm250 0q-16.782 0-28.108-11.451t-11.326-28.158v-321.347q0-16.707 11.501-28.441 11.502-11.733 28.283-11.733 16.782 0 28.108 11.733 11.326 11.734 11.326 28.441v321.347q0 16.707-11.501 28.158-11.502 11.451-28.283 11.451Z"/></svg>