<svg xmlns="http://www.w3.org/2000/svg" width="48" height="48" viewBox="0 -960 960 960"><path d="M150.781-267.565q-16.782 0-28.108-11.451t-11.326-28.723v-345.087q0-16.707 11.502-28.158 11.501-11.451 28.283-11.451 17.021 0 28.51 11.451 11.488 11.451 11.488 28.158v133.217h155.278v-133.217q0-16.707 11.472-28.158t28.209-11.451q16.737 0 28.345 11.451 11.609 11.451 11.609 28.158v345.087q0 17.272-11.664 28.723t-28.686 11.451q-16.733 0-28.027-11.451-11.293-11.451-11.293-28.723v-132.652H191.13v132.652q0 17.272-11.664 28.723t-28.685 11.451Zm434.871 0q-16.706 0-28.157-11.501-11.452-11.502-11.452-28.848 0-16.782 11.452-28.108 11.451-11.326 28.157-11.326h195.304v-93.043H585.652q-16.706 0-28.157-11.451-11.452-11.451-11.452-28.158v-172.826q0-16.707 11.452-28.158 11.451-11.451 28.157-11.451h234.913q16.707 0 28.158 11.501 11.451 11.502 11.451 28.283 0 17.347-11.571 28.673-11.571 11.326-28.038 11.326H625.262v93.043h155.694q32.664 0 55.941 23.277 23.277 23.278 23.277 55.941v93.043q0 33.228-23.277 56.506-23.277 23.277-55.941 23.277H585.652Z"/></svg>