<svg xmlns="http://www.w3.org/2000/svg" width="48" height="48" viewBox="0 96 960 960"><path d="M380.362 752.218q-11.77 0-19.74-7.894-7.97-7.893-7.97-19.367v-185.87h-25.478q-10.721 0-18.208-7.804-7.488-7.804-7.488-19.126 0-11.322 7.771-18.109 7.771-6.787 18.943-6.787h50.929q11.512 0 20.065 7.975t8.553 20.329v209.392q0 11.474-7.926 19.367-7.927 7.894-19.451 7.894Zm124.377 0q-18.7 0-31.35-12.569-12.65-12.569-12.65-31.149V530.978q0-18.58 12.65-31.148 12.65-12.569 31.35-12.569h93.74q18.7 0 31.35 12.569 12.65 12.568 12.65 31.148V708.5q0 18.58-12.65 31.149-12.65 12.569-31.35 12.569h-93.74Zm11.652-52.827h71V539.087h-71v160.304Zm-36.149 293.566q-78.175 0-146.448-29.13-68.273-29.131-118.968-80.109-50.696-50.978-79.827-119.137-29.13-68.159-29.13-146.203 0-78.251 29.13-146.423 29.131-68.173 80.115-119.287 50.985-51.114 118.943-80.109 67.958-28.994 146.55-28.994h20.958l-52.347-51.783q-9.131-9.695-8.848-23.391.282-13.696 9.688-23.101 9.052-9.291 22.703-9.008 13.651.283 23.544 9.413l106.696 107.696q6.13 6.13 9.261 13.358 3.13 7.227 3.13 14.841 0 7.613-3.13 14.707-3.131 7.094-9.261 12.66L494.74 417.218q-9.131 9.13-22.261 9.413-13.131.282-22.261-10.191-10.131-9.296-10.131-22.455 0-13.159 10.131-23.289l47.912-47.348h-17.565q-123.661 0-209.852 85.632-86.191 85.631-86.191 209.004 0 123.373 86.005 209.281Q356.532 913.174 480 913.174q112.932 0 195.661-72.978 82.73-72.978 96.556-182.326 3.696-17.522 15.116-28.565 11.421-11.044 27.608-11.044 17.317 0 28.254 11.826 10.936 11.826 8.806 27.783-14.392 142.826-119.608 238.957-105.217 96.13-252.151 96.13Z"/></svg>