<svg xmlns="http://www.w3.org/2000/svg" width="48" height="48" viewBox="0 -960 960 960"><path d="M480-447.3 145.09-666.91v441.82h387.17v79.22H145.09q-32.51 0-55.87-23.35-23.35-23.36-23.35-55.87v-509.82q0-32.74 23.35-56.26 23.36-23.53 55.87-23.53h669.82q32.74 0 56.26 23.53 23.53 23.52 23.53 56.26v319.61h-79.79v-251.61L480-447.3Zm0-72.44 334.91-215.17H145.09L480-519.74ZM780.22-28.17l-47.09-47.66 68.48-70.04H592.26v-68.48h209.35l-69.48-69.48 48.09-48.21 152.22 152.21L780.22-28.17ZM145.09-666.91v500.13-248.52 3.43-323.04 68Z"/></svg>