<svg xmlns="http://www.w3.org/2000/svg" width="48" height="48" viewBox="0 96 960 960"><path d="m643.826 992.523-99.435-100q-11.826-11.827-11.826-27.783 0-15.957 11.826-27.783 11.827-11.827 27.783-11.827 15.957 0 27.783 11.827l71.217 71.217 155.652-156.217q11.392-11.392 27.848-11.109 16.457.282 28.849 12.109 11.261 11.261 11.261 27.5t-11.827 28.066l-183 184q-10.826 11.827-27.283 11.827-16.456 0-28.848-11.827ZM375.827 722.306l-43.217 43.217q-11.826 11.826-27.783 11.826t-27.783-11.826q-11.826-11.827-11.826-27.783 0-15.957 11.826-27.783l43.217-43.217-43.217-43.217q-11.826-11.827-11.826-27.783 0-15.957 11.826-27.783 11.826-11.827 27.783-11.827t27.783 11.827l43.217 43.217 43.217-43.217q11.826-11.827 27.783-11.827t27.783 11.827q11.826 11.826 11.826 27.783 0 15.956-11.826 27.783l-43.217 43.217 43.217 43.217q11.826 11.826 11.826 27.783 0 15.956-11.826 27.783-11.826 11.826-27.783 11.826t-27.783-11.826l-43.217-43.217Zm-190.74 267.825q-32.478 0-55.848-23.37-23.37-23.37-23.37-55.848V301.087q0-32.478 23.37-56.131 23.37-23.652 55.848-23.652H245v-22.913q0-14.696 11.196-25.892 11.195-11.195 25.891-11.195 15.696 0 26.609 11.195 10.913 11.196 10.913 25.892v22.913h320.782v-22.913q0-14.696 11.196-25.892 11.195-11.195 25.891-11.195 15.696 0 26.609 11.195Q715 183.695 715 198.391v22.913h59.913q32.478 0 56.131 23.652 23.652 23.653 23.652 56.131v339l-79.783 80.348V486H185.087v424.913h292.129l79.219 79.218H185.087Z"/></svg>