<svg xmlns="http://www.w3.org/2000/svg" width="48" height="48" viewBox="0 -960 960 960"><path d="M185.087-185.087h99.043q16.637 0 28.406 11.501 11.769 11.502 11.769 28.283 0 16.782-11.769 28.108t-28.406 11.326H145.478q-16.707 0-28.158-11.451t-11.451-28.158V-284.13q0-16.637 11.502-28.406 11.501-11.769 28.282-11.769 16.782 0 28.108 11.769t11.326 28.406v99.043Zm589.826 0v-99.043q0-16.637 11.501-28.406 11.502-11.769 28.234-11.769t28.39 11.769q11.658 11.769 11.658 28.406v138.652q0 16.707-11.769 28.158t-28.405 11.451H676.649q-17.486 0-28.937-11.502-11.452-11.501-11.452-28.282 0-16.782 11.452-28.108 11.451-11.326 28.723-11.326h98.478ZM185.087-774.913v98.478q0 17.272-11.501 28.723-11.502 11.452-28.283 11.452-16.782 0-28.108-11.452-11.326-11.451-11.326-28.937v-137.873q0-16.636 11.451-28.405 11.451-11.769 28.158-11.769H284.13q16.637 0 28.406 11.833 11.769 11.834 11.769 28.566t-11.769 28.058q-11.769 11.326-28.406 11.326h-99.043Zm589.826 0h-98.478q-17.272 0-28.723-11.501-11.452-11.502-11.452-28.234t11.452-28.39q11.451-11.658 28.937-11.658h137.873q16.636 0 28.405 11.769 11.769 11.769 11.769 28.405v137.873q0 17.486-11.833 28.937-11.834 11.452-28.566 11.452t-28.058-11.452q-11.326-11.451-11.326-28.723v-98.478Z"/></svg>