<svg xmlns="http://www.w3.org/2000/svg" width="48" height="48" viewBox="0 96 960 960"><path d="M362.825 871.827q-16.782 0-28.108-11.451-11.326-11.452-11.326-28.158v-99.609h-99.609q-16.706 0-28.158-11.501-11.451-11.502-11.451-28.283 0-16.782 11.451-28.108 11.452-11.326 28.158-11.326H363q16.707 0 28.158 11.451T402.609 693v139.218q0 16.706-11.501 28.158-11.502 11.451-28.283 11.451ZM223.782 498.609q-16.706 0-28.158-11.501-11.451-11.502-11.451-28.283 0-16.782 11.451-28.108 11.452-11.326 28.158-11.326h99.609v-99.609q0-16.706 11.501-28.44 11.502-11.734 28.283-11.734 16.782 0 28.108 11.734t11.326 28.44V459q0 16.707-11.451 28.158T363 498.609H223.782Zm373.043 373.218q-16.782 0-28.108-11.451-11.326-11.452-11.326-28.158V693q0-16.707 11.451-28.158T597 653.391h139.218q16.706 0 28.44 11.501 11.734 11.502 11.734 28.283 0 16.782-11.734 28.108t-28.44 11.326h-99.609v99.609q0 16.706-11.501 28.158-11.502 11.451-28.283 11.451ZM597 498.609q-16.707 0-28.158-11.451T557.391 459V319.782q0-16.706 11.501-28.44 11.502-11.734 28.283-11.734 16.782 0 28.108 11.734t11.326 28.44v99.609h99.609q16.706 0 28.44 11.501 11.734 11.502 11.734 28.283 0 16.782-11.734 28.108t-28.44 11.326H597Z"/></svg>