<svg xmlns="http://www.w3.org/2000/svg" width="48" height="48" viewBox="0 -960 960 960"><path d="M472.74-364.37q-8.13-7.76-8.13-19.63v-192q0-11.87 8.08-19.63 8.07-7.76 19.26-7.76 11.18 0 19.31 7.76 8.13 7.76 8.13 19.63v192q0 11.87-8.08 19.63-8.07 7.76-19.26 7.76-11.18 0-19.31-7.76Zm-244.96 7.76q-16.82 0-27.11-10.63-10.28-10.63-10.28-26.76v-172q0-16.84 10.28-27.11 10.29-10.28 27.11-10.28h133.44q11.87 0 19.63 8.08 7.76 8.07 7.76 19.26 0 11.18-7.76 19.31-7.76 8.13-19.63 8.13H244.61v137.22h89.78v-41.78q0-11.63 8.08-19.23t19.27-7.6q11.2 0 19.03 7.6 7.84 7.6 7.84 19.23v60.3q0 15.5-9.89 25.88-9.89 10.38-26.94 10.38h-124Zm371.74-7.76q-8.13-7.76-8.13-19.63v-192q0-11.87 7.76-19.63t19.63-7.76h123.44q11.87 0 19.63 8.08 7.76 8.07 7.76 19.26 0 11.18-7.76 19.31-7.76 8.13-19.63 8.13h-96.61v57.18h54.17q11.63 0 19.23 8.11 7.6 8.12 7.6 19.32 0 11.19-7.6 19.27t-19.23 8.08h-54.17v53.22q0 11.62-7.78 19.22-7.79 7.6-18.98 7.6-11.2 0-19.33-7.76Z"/></svg>