<svg xmlns="http://www.w3.org/2000/svg" width="48" height="48"><path d="M6.15 44.15q-.65-.5-.75-1.35-.1-.85.5-1.55l5.75-6.9q-1.4-1.4-2-3.15-.6-1.75-.6-3.7 0-3.1 1.475-6.725 1.475-3.625 4.5-6.95t7.675-6Q27.35 5.15 33.75 3.95q1.4-.25 3.1-.4 1.7-.15 3.1-.2.25 1.4.425 3.1.175 1.7.175 3.1 0 7.05-2.075 12.475T33.3 31.1q-3.1 3.65-6.725 5.5-3.625 1.85-6.725 1.85-1.3 0-2.575-.35Q16 37.75 14.75 37L9.1 43.95q-.55.6-1.4.7-.85.1-1.55-.5zM15.7 32.7l20.6-25q-.45.1-.925.15-.475.05-.875.15-5.6 1.05-9.65 3.4-4.05 2.35-6.65 5.15-2.6 2.8-3.825 5.7-1.225 2.9-1.225 5.2 0 1.65.65 2.925t1.9 2.325z"/></svg>