<svg xmlns="http://www.w3.org/2000/svg" width="48" height="48" viewBox="0 -960 960 960"><path d="m780-148.87-56.78 55.22q-11.83 11.39-27.5 11.61-15.68.21-27.5-11.61-11.83-11.83-11.33-27.78.5-15.96 11.33-27.79l54.65-56.21-54.65-55.22q-11.83-11.83-11.83-27.78 0-15.96 11.83-27.79 11.82-11.82 27.78-11.61 15.96.22 27.78 11.61L780-261l55.22-55.22q11.82-11.82 27.78-11.82t27.78 11.82q11.83 11.83 11.83 27.79 0 15.95-11.83 27.78l-55.21 55.22 55.21 56.21q10.83 12.39 11.33 28.07.5 15.67-11.33 27.5Q878.96-81.83 863-81.83t-27.78-11.82L780-148.87Zm-300 83q-85.83 0-161.37-32.35-75.54-32.34-131.8-88.32-56.27-55.98-88.61-131.02Q65.87-392.61 65.87-478q0-86.39 32.35-162.15 32.34-75.76 88.61-132.24 56.26-56.48 131.8-89.39Q394.17-894.7 480-894.7q87.13 0 162.76 33.5t131.61 90.79q55.98 57.28 87.74 132.56 31.76 75.28 32.02 159.85.57 17.52-12.54 29.35-13.11 11.82-30.07 11.82-16.52 0-27.06-12.32-10.55-12.33-11.24-28.85.43-22.04-2.29-44.65-2.71-22.61-8.58-45.22H645.74q1.87 26 3.37 51.09 1.5 25.08.5 49.95 0 13-9.28 21.5-9.29 8.5-21.72 8.5-12 0-20-8.71-8-8.72-8-21.29 1-24.87-.22-50.52-1.22-25.65-4.65-50.52H375.26q-3 22.44-4.5 44.94-1.5 22.5-1.5 44.93 0 21.43 1.5 43.15t4.5 43.72h159.09q13 0 21.5 8.22 8.5 8.21 8.5 21.21t-8.5 21.22q-8.5 8.22-21.5 8.22H386.26q13.44 51.87 32.87 102.3 19.44 50.44 60.3 85.44 17.87 0 34.18-2 16.3-2 29.65-5 15.96-3.57 30.07 5.26 14.1 8.83 17.67 24.78 3.57 16.52-5.26 30.42-8.83 13.89-24.78 16.89-20.74 3.87-40.76 6.08-20.03 2.22-40.2 2.22ZM157.09-391.13h157.17q-3-22-4-43.72t-1-43.15q0-22.43.72-44.93t3.28-44.94H157.09q-6 22.44-9 44.65-3 22.22-3 45.22 0 22.43 3 43.65t9 43.22Zm19.43-235.61h147.74q10.44-47.43 27.37-92.65 16.94-45.22 44.5-86.09-70.43 23.44-127.52 68.37-57.09 44.94-92.09 110.37Zm218.61 471.22q-26.56-39.87-43.22-84.59-16.65-44.72-26.65-92.15H176.52q32.44 66.43 89.59 112.87 57.15 46.43 129.02 63.87Zm-8.87-471.22h188.48q-13-52.87-35.72-102.3-22.72-49.44-59.59-88.44-36.86 40-59.3 89.22-22.43 49.22-33.87 101.52Zm250.48 0h146.17q-34.43-64.87-91.87-110.59-57.43-45.71-127.3-67.15 27.56 39.87 44.5 85.37 16.93 45.5 28.5 92.37Z"/></svg>