<svg xmlns="http://www.w3.org/2000/svg" width="48" height="48" viewBox="0 96 960 960"><path d="M397.215 989.001q-16.781 0-28.107-11.452-11.326-11.451-11.326-28.158v-244.39H116.218q-17.838 0-30.137-12.349-12.299-12.35-12.299-30.827 0-17.912 12.3-30.368Q98.38 619 116.217 619h241.564v-87h-244.39q-16.706 0-28.157-11.502-11.452-11.501-11.452-28.283 0-16.781 11.452-28.39 11.45-11.609 28.157-11.609h244.391V209.391q0-16.706 11.501-28.157 11.502-11.452 28.283-11.452 16.782 0 28.108 11.452Q437 192.685 437 209.391v242.825h87V209.391q0-16.706 11.502-28.157 11.501-11.452 28.283-11.452 16.781 0 28.39 11.452 11.609 11.451 11.609 28.157v242.825h242.825q16.706 0 28.157 11.785 11.452 11.784 11.452 28.565 0 16.782-11.452 28.108Q863.315 532 846.609 532H603.784v87h239.998q17.838 0 30.137 12.632t12.299 30.544q0 18.477-12.299 30.651t-30.137 12.174H603.784v244.39q0 16.707-11.785 28.158-11.784 11.452-28.565 11.452-16.782 0-28.108-11.452Q524 966.098 524 949.391v-244.39h-87v244.39q0 16.707-11.502 28.158-11.501 11.452-28.283 11.452ZM437 619h87v-87h-87v87Z"/></svg>