<svg xmlns="http://www.w3.org/2000/svg" width="48" height="48" viewBox="0 96 960 960"><path d="M481.82 315.782q-32.646 0-55.842-23.659-23.196-23.658-23.196-56.304 0-33.211 23.116-56.407 23.116-23.196 55.762-23.196 33.211 0 56.384 23.184 23.174 23.183 23.174 56.52 0 32.538-23.094 56.2-23.093 23.662-56.304 23.662Zm-72.876 666.436q-15.205 0-25.683-10.519-10.479-10.518-10.479-25.699V471.74q-40.086 22.13-64.543 56.152-24.456 34.021-29.456 87.76-2.471 16.345-13.401 26.847-10.93 10.502-25.512 10.502-14.64 0-24.864-10.466t-9.224-25.187q9-120.87 82.479-180.218Q361.739 377.782 482 377.782q96.478 0 152.256-33.079 55.779-33.08 64.396-115.833 2.565-15.261 12.734-25.175 10.17-9.913 25.522-9.913 15.282 0 25.796 10.979 10.514 10.978 9.514 25.804-8.076 83.25-51.603 134.538-43.528 51.288-124.397 72.419V946q0 15.181-10.535 25.699-10.535 10.519-25.739 10.519-15.205 0-25.683-10.519-10.479-10.518-10.479-25.699V727.218h-78.564V946q0 15.181-10.535 25.699-10.535 10.519-25.739 10.519Zm-208.553 0q-16.706 0-28.157-11.452-11.452-11.451-11.452-28.157V798.827q0-16.707 11.452-28.158 11.451-11.451 28.157-11.451h37.218q16.706 0 28.157 11.451 11.452 11.451 11.452 28.158v143.782q0 16.706-11.452 28.157-11.451 11.452-28.157 11.452h-37.218Z"/></svg>