<svg xmlns="http://www.w3.org/2000/svg" width="48" height="48" viewBox="0 -960 960 960"><path d="M474.058-140q4.812 0 11.312-2.217 6.5-2.218 11.065-6.783l334.739-335.739q14.106-14.138 21.748-32.934 7.643-18.796 7.643-38.723 0-19.648-7.643-39.22-7.642-19.572-21.748-34.211L667.001-794q-13.566-13-31.322-19.5-17.757-6.5-35.787-6.5-17.703 0-35.123 6.217-17.421 6.218-29.856 18.087l-14.043 14.609 77.609 78.043q14.695 16.261 26.109 37.305 11.413 21.043 11.413 46.471 0 42.486-33.505 75.442-33.504 32.957-76.691 32.957-28.196 0-46.957-8.63-18.761-8.631-34.708-24.733l-72.184-72.028L201.13-445.435q-5 4.435-7 10.244t-2 12.125q0 12.631 8.218 20.849Q208.565-394 221.232-394q6.333 0 12.116-3 5.782-3 9.782-7l132.348-132.348 42 42-131.311 131.299q-5.037 5.049-7.037 11.434-2 6.386-2 12.18 0 12.283 8.435 20.859Q294-310 306-310q6 0 11.783-2.5 5.782-2.5 10.38-6.533l131.185-131.749 42 42-131.864 131.314q-3.484 4.033-6.267 10.461-2.782 6.427-2.782 12.572 0 12.226 8.858 21.113 8.859 8.887 21.048 8.887 6.094 0 11.376-2.282 5.283-2.283 9.718-6.718l132.347-132.913 42 42L453.435-192q-4.435 5-6.718 11.385-2.282 6.386-2.282 11.18 0 14.226 8 21.831 8 7.604 21.623 7.604Zm.441 73q-35.89 0-64.434-24.782-28.544-24.783-35.805-62.597-32.869-5.447-56.152-29.012-23.282-23.565-28.848-55.869-31.739-6.131-54.521-29.348-22.783-23.218-28.913-54.522-37.566-7.261-62.414-35.385-24.847-28.123-24.847-65.95 0-19.231 7.854-38.541 7.855-19.31 21.537-33.907l224-224L490.435-603q8 8 17.522 12.783 9.521 4.782 19.608 4.782 12.677 0 23.774-11.5 11.096-11.5 11.096-24.088 0-5.847-4.065-13.912Q554.304-643 546.87-651L402.699-795.174q-12.395-12.391-30.808-18.609Q353.478-820 334.365-820q-19.354 0-36.447 6.217-17.092 6.218-28.903 18.51l-146.406 145.36q-12.305 12.869-17.522 28.934-5.218 16.066-5.652 37.261.13 17.239 8.348 33.196 8.217 15.956 18.521 29.26L74.26-469.218q-20-19.173-33.348-51.304Q27.565-552.652 27-585.218q-.565-34.522 10.652-64 11.218-29.478 33.914-52.174L216.347-846.74q23.13-23.13 54.943-34.195 31.813-11.066 63.854-11.066 33.737 0 64.409 11.066 30.671 11.065 53.534 33.065l14.609 14.043 14.043-14.043q22.565-21.435 54.315-32.783 31.751-11.348 64.349-11.348t63.772 11.913q31.174 11.914 54.304 35.044l167.13 166.565q23.708 23.477 35.55 56.424 11.842 32.946 11.842 65.408 0 33.026-12.696 66.076-12.696 33.05-36.392 57.311L547.479-97.39q-14.696 14.695-33.489 22.543Q495.197-67 474.499-67ZM361.173-636.173Z"/></svg>