<svg xmlns="http://www.w3.org/2000/svg" width="48" height="48" viewBox="0 -960 960 960"><path d="M389.478-99.086q-19.957 0-31.783-16.326t-11.826-37.848v-254.131h268.827v254.131q0 22.522-15.826 38.348t-38.533 15.826H389.478Zm-43.609-387.523v-139.26h-152.13q-18.969 0-30.854-14.674-11.886-14.674-8.453-33.215 16.394-81.721 79.496-134.438 63.103-52.718 146.986-52.718h179.608q22.522 0 38.348 15.826t15.826 37.783v88.391l122.478-124.478q7.841-8.759 17.997-13.14 10.156-4.382 21.352-4.382h4.782q13.89 0 23.641 8.5 9.75 8.5 9.75 21.5v312.262q0 13.565-9.75 21.783-9.751 8.217-23.641 8.217h-4.782q-11.196 0-21.352-4.224-10.156-4.225-17.997-12.733L614.696-630.652v144.043H345.869Z"/></svg>