<svg xmlns="http://www.w3.org/2000/svg" width="48" height="48" viewBox="0 -960 960 960"><path d="M182.74-319.26q-65.52 0-110.63-44.83Q27-408.91 27-475q0-66.52 45.11-111.41t110.63-44.89q67.09 0 111.7 44.89 44.6 44.89 44.6 111.41 0 66.09-44.6 110.91-44.61 44.83-111.7 44.83Zm60.87-95.15q22.43-22.16 22.43-60.59 0-38.43-22.43-60.59-22.44-22.15-60.87-22.15-38.44 0-60.59 22.15Q100-513.43 100-475q0 38.43 22.15 60.59 22.15 22.15 60.59 22.15 38.43 0 60.87-22.15Zm266.61 109.28Q437.74-377.61 437.74-480t72.48-175.15q72.48-72.76 174.87-72.76t175.15 72.76Q933-582.39 933-480t-72.76 174.87q-72.76 72.48-175.15 72.48t-174.87-72.48Z"/></svg>