<svg xmlns="http://www.w3.org/2000/svg" width="48" height="48" viewBox="0 96 960 960"><path d="M479.867 641.348q-100.936 0-171.967-70.748-71.031-70.749-71.031-172.1 0-101.352 71.031-172.383t171.967-71.031q100.936 0 172.383 71.031 71.446 71.031 71.446 172.383 0 101.351-71.446 172.1-71.447 70.748-172.383 70.748Zm.133-72.435q70.13 0 120.13-50t50-120.131q0-70.13-50-120.413-50-50.282-120.13-50.282t-120.13 50.282q-50 50.283-50 120.413 0 70.131 50 120.131t120.13 50Zm.175-56.131q12.825 0 21.325-8.625t8.5-21.375v-54h54q12.75 0 21.375-8.675 8.625-8.676 8.625-21.5 0-12.825-8.625-21.325t-21.375-8.5h-54v-54q0-12.75-8.675-21.375-8.676-8.625-21.5-8.625-12.825 0-21.325 8.625t-8.5 21.375v54h-54q-12.75 0-21.375 8.676-8.625 8.675-8.625 21.5 0 12.824 8.625 21.324 8.625 8.5 21.375 8.5h54v54q0 12.75 8.675 21.375 8.676 8.625 21.5 8.625Zm379.398 452.436q-12.079 0-20.326-7.884T831 937.391v-45.39h-46.391q-11.869 0-19.63-8.063-7.761-8.062-7.761-20.392 0-12.331 8.044-19.83 8.044-7.498 20.347-7.498H831v-46.391q0-11.625 8.062-19.226 8.063-7.6 20.393-7.6 12.086 0 19.424 7.621 7.339 7.621 7.339 19.205v46.391h46.391q11.869 0 19.63 7.446Q960 851.11 960 863.44q0 12.331-7.461 20.446-7.461 8.115-19.93 8.115h-46.391v46.39q0 11.625-7.282 19.226-7.283 7.601-19.363 7.601ZM27.457 985.609q-11.596 0-19.527-7.761Q0 970.087 0 958.218V764.001q0-11.87 7.746-19.631 7.746-7.761 19.593-7.761 11.602 0 19.24 7.761 7.639 7.761 7.639 19.631v57.739H142v-57.739q0-11.87 7.746-19.631 7.746-7.761 19.593-7.761 11.602 0 19.24 7.761 7.639 7.761 7.639 19.631v194.217q0 11.869-7.582 19.63-7.583 7.761-19.179 7.761-11.596 0-19.527-7.761-7.93-7.761-7.93-19.63v-85.087H54.218v85.087q0 11.869-7.582 19.63-7.583 7.761-19.179 7.761Zm260.63 0q-8.261 0-14.174-5.913T268 965.522V756.696q0-8.261 5.913-14.174t14.174-5.913H410q26.183 0 40.2 14.413 14.018 14.413 14.018 39.805v140.564q0 26.183-14.018 40.201-14.017 14.017-40.2 14.017H288.087Zm34.131-54.218H410V790.827h-87.782v140.564Zm240.239 54.218q-11.596 0-19.527-7.761-7.93-7.761-7.93-19.63V756.696q0-8.261 5.913-14.174t14.174-5.913H680q26.183 0 40.7 14.413 14.518 14.413 14.518 39.805v48.129q0 20.349-10.752 33.349-10.752 13-30.987 21.13l22.739 52.087q7.13 16.261-.089 28.174-7.22 11.913-25.738 11.913-7.13 0-14.761-5.065-7.63-5.065-10.195-11.196l-26.044-63.825h-50.173v52.695q0 11.869-7.582 19.63-7.583 7.761-19.179 7.761Zm26.761-134.608H680v-60.174h-90.782v60.174ZM480 398.782Z"/></svg>