<svg xmlns="http://www.w3.org/2000/svg" width="48" height="48" viewBox="0 -960 960 960"><path d="M618.152-247q-9.282 0-16-7-6.717-7-6.717-16v-45h-46q-9.565 0-15.783-7-6.217-7-6.217-16t6.717-15.5q6.718-6.5 16.283-6.5h45v-46q0-9 6.717-15.5 6.718-6.5 16-6.5 9.283 0 15.783 6.5t6.5 15.5v46h46q9 0 15.5 6.5t6.5 15.5q0 9-6.5 16t-15.5 7h-46v46q0 9-6.5 15.5t-15.783 6.5ZM300.13-487.87q-9.565 0-16.282-6.521-6.718-6.522-6.718-15.555V-703.01q0-9.033 6.718-15.533 6.717-6.5 16-6.5 9.282 0 15.782 6.5t6.5 15.5v64.304h105v-64.304q0-9 6.718-15.5 6.717-6.5 16-6.5 9.282 0 15.782 6.52t6.5 15.55v193.033q0 9.03-6.5 15.55-6.5 6.52-15.782 6.52-9.283 0-16-7.048-6.718-7.048-6.718-16.121v-82.7h-105v83.7q0 9.073-6.5 15.621t-15.5 6.548Zm252.392 0q-8.487 0-14.287-5.913-5.8-5.913-5.8-14.174v-196.999q0-8.261 5.8-14.174t14.287-5.913h110.913q18.435 0 31.717 13.05 13.283 13.049 13.283 32.116v146.941q0 19.066-13.283 32.066-13.282 13-31.717 13H552.522Zm24.913-45h86v-147.173h-86v147.173ZM480.283-65.869q-88.109 0-163.928-31.678-75.819-31.677-131.475-87.333-55.656-55.656-87.333-131.475-31.678-75.819-31.678-163.928 0-87.108 31.544-162.681 31.544-75.572 87.333-131.474 55.79-55.903 131.609-88.081 75.819-32.177 163.928-32.177 87.108 0 162.712 32.104 75.603 32.104 131.529 87.997t88.049 131.452Q894.696-567.584 894.696-480q0 87.826-32.177 163.645-32.178 75.819-88.081 131.609-55.902 55.789-131.474 87.333-75.573 31.544-162.681 31.544Zm-.387-79.218q142.843 0 238.93-95.706 96.087-95.706 96.087-239.108 0-143.403-95.984-239.208-95.983-95.804-238.825-95.804-142.843 0-238.93 95.706-96.087 95.706-96.087 239.108 0 143.403 95.984 239.208 95.983 95.804 238.825 95.804ZM480-480Zm-59.87 163.87q5 0 8.5-3.5t3.5-8.5V-370q0-5-3.5-8.5t-8.5-3.5h-92v65.87h92Zm-92 43v63.304q0 9.565-6 15.782-6 6.218-15 6.218-9.565 0-15.782-5.718-6.218-5.717-6.218-15.282v-194.093q0-9.035 6.718-15.558Q298.565-425 308.13-425h124q18 0 30.5 12.567 12.5 12.568 12.5 30.664v65.458q0 17.069-11.5 29.125-11.5 12.056-28.5 14.056l22.435 58.304q4 10-2.108 18.5-6.108 8.5-16.234 8.5-6.401 0-11.747-3.218-5.346-3.217-7.346-9.782l-28-72.304h-64Z"/></svg>