<svg xmlns="http://www.w3.org/2000/svg" width="48" height="48" viewBox="0 -960 960 960"><path d="M633.74-384v-190.04q0-12.19 9.08-20.77t21.27-8.58h122.39q26.39 0 41.09 14.69 14.69 14.7 14.69 41.09v61q0 15.87-10.43 27.59-10.44 11.72-26.87 14.28l21.3 51.48q5.57 13.26-2.68 24.96-8.24 11.69-21.6 11.69-7.98 0-15.74-4.56-7.76-4.57-10.33-13.26l-21.18-59.22h-66.21V-384q0 11.47-8.08 19.43-8.07 7.96-19.26 7.96-11.18 0-19.31-7.96-8.13-7.96-8.13-19.43Zm54.78-101.61h98.96v-63h-98.96v63Zm-518.26 26V-384q0 11.47-8.08 19.43-8.07 7.96-19.26 7.96-11.18 0-19.31-7.96-8.13-7.96-8.13-19.43v-192q0-11.47 8.08-19.43 8.07-7.96 19.26-7.96 11.18 0 19.31 7.96 8.13 7.96 8.13 19.43v61.61h101.22V-576q0-11.47 8.08-19.43 8.07-7.96 19.26-7.96 11.18 0 19.31 7.96 8.13 7.96 8.13 19.43v192q0 11.47-8.08 19.43-8.07 7.96-19.26 7.96-11.18 0-19.31-7.96-8.13-7.96-8.13-19.43v-75.61H170.26Zm359.35 103H404.96q-12.19 0-21.27-9.08t-9.08-21.27v-187.08q0-12.19 9.08-20.77t21.27-8.58h124.65q26.39 0 41.09 14.69 14.69 14.7 14.69 41.09v135.22q0 26.39-14.69 41.09-14.7 14.69-41.09 14.69Zm-100.22-54.78h101.22v-137.22H429.39v137.22Z"/></svg>