<svg xmlns="http://www.w3.org/2000/svg" width="48" height="48" viewBox="0 -960 960 960"><path d="M483-256.651 316.566-91.782q-23.015 24.652-57.03 24.652t-56.667-24.652L91.782-202.87q-24.652-22.652-24.435-56.348.218-33.696 24.435-57.349L255.651-482 91.782-648.434q-23.217-23.218-25.435-54.914-2.217-31.696 20.435-54.348L202.87-873.218q23.225-24.217 56.635-24.217 33.409 0 57.062 24.217L483-707.349l165.434-165.869q23.653-24.217 56.877-23.717 33.225.5 57.385 23.717l110.522 110.522q23.217 24.16 23.717 57.385.5 33.224-23.717 56.877L708.349-482l164.869 165.434q24.217 23.226 24.217 56.635 0 33.41-24.217 57.062L757.696-86.782q-22.652 22.652-54.631 20.435-31.978-2.218-54.631-25.435L483-256.651Zm-.06-267.697q17.992 0 30.222-11.948 12.229-11.947 12.229-30.161 0-17.974-12.17-30.041-12.17-12.068-30.161-12.068-17.992 0-30.222 12.028-12.229 12.028-12.229 29.808 0 18.261 12.17 30.321 12.17 12.061 30.161 12.061Zm-174.158-10.218 119.652-118.652L262-818.652 145.348-702l163.434 167.434Zm89.488 93.957q18.261 0 30.321-12.17 12.061-12.17 12.061-30.161 0-17.992-11.948-30.222-11.947-12.229-30.161-12.229-17.974 0-30.041 12.17-12.068 12.17-12.068 30.161 0 17.992 12.028 30.222 12.028 12.229 29.808 12.229Zm84.67 84.175q17.992 0 30.222-12.028 12.229-12.028 12.229-29.808 0-18.261-12.17-30.321-12.17-12.061-30.161-12.061-17.992 0-30.222 11.948-12.229 11.947-12.229 30.161 0 17.974 12.17 30.041 12.17 12.068 30.161 12.068Zm83.517-84.175q17.974 0 30.041-12.17 12.068-12.17 12.068-30.161 0-17.992-12.028-30.222-12.028-12.229-29.808-12.229-18.261 0-30.321 12.17-12.061 12.17-12.061 30.161 0 17.992 11.948 30.222 11.947 12.229 30.161 12.229Zm-30.891 128.827L702-145.348 818.652-262 653.218-427.434 535.566-311.782ZM348.391-616.174Zm267.783 267.783Z"/></svg>