<svg xmlns="http://www.w3.org/2000/svg" width="48" height="48" viewBox="0 -960 960 960"><path d="M444.837-508.523q16.294 0 28.077-11.64 11.782-11.641 11.782-28.501 0-16.293-11.923-28.076-11.924-11.783-28.5-11.783-16.577 0-28.077 11.924-11.5 11.923-11.5 28.5 0 16.576 11.641 28.076t28.5 11.5Zm28.859 154 166-166q9-9.066 9-21.533t-9.052-21.467q-9.618-9-21.858-9t-21.09 9l-167 167q-9.565 9-9.065 21t9.835 21q9.336 9 21.5 9 12.165 0 21.73-9Zm151.141 26q16.294 0 28.077-11.64 11.782-11.641 11.782-28.5 0-16.294-11.923-28.077-11.924-11.783-28.5-11.783-16.577 0-28.077 11.924-11.5 11.923-11.5 28.5 0 16.576 11.641 28.076t28.5 11.5Zm161.381 162.305H283.175q-32.74 0-56.262-23.521-23.522-23.522-23.522-56.262v-607.781q0-32.507 23.522-55.863t56.262-23.356h308.869q16.263 0 31.001 6.413 14.739 6.414 26.13 17.24L841.784-716.74q10.826 11.392 17.239 26.13t6.413 31.001v413.608q0 32.74-23.652 56.262-23.653 23.521-55.566 23.521Zm0-506.522H660.872q-24.968 0-42.333-17.364-17.364-17.364-17.364-42.332v-121.346h-318v607.781h503.043V-672.74ZM143.391-27q-32.506 0-55.862-23.355-23.356-23.356-23.356-55.863v-574.303q0-16.707 11.502-28.158 11.501-11.451 28.283-11.451 16.781 0 28.107 11.451t11.326 28.158v574.303h462.348q16.707 0 28.158 11.502t11.451 28.283q0 16.781-11.451 28.107-11.451 11.327-28.158 11.327H143.391Zm139.784-826.782v198-198 607.781-607.781Z"/></svg>