<svg xmlns="http://www.w3.org/2000/svg" width="48" height="48" viewBox="0 96 960 960"><path d="M358.999 883.131q-98.609-102.13-158.261-167.826t-91.435-113.457q-31.782-47.761-41.848-85.721-10.065-37.961-10.065-83.283 0-97.323 66.405-165.279 66.405-67.957 163.204-67.957 49.805 0 95.008 19.445 45.203 19.446 81.689 53.034l-45.913 192.696q-3.87 12.748 5.199 23.395 9.069 10.648 22.67 10.648h73.652l-33.869 279.143q-1 8.552 6.5 9.552t9.5-6l81.086-287.651q3.87-12.305-4.478-23.392-8.348-11.087-22.261-11.087h-76.347l68.174-230.653q28.956-15.13 60.696-22.13 31.739-7 64.696-7 96.522 0 163.348 67.957 66.826 67.956 66.826 165.035 0 43.704-10.413 81.248-10.413 37.543-43.109 85.652t-94.326 115.153q-61.631 67.043-163.631 170.174-48.747 47.479-116.765 46.913-68.019-.565-115.932-48.609Zm-222.39-450.522q0 33.192 11 64.378 11 31.187 39.826 71.657 28.827 40.471 78.261 94.326 49.434 53.856 125.781 131.638 3.435 4 8.218 2.5 4.782-1.5 5.782-5.935l27.174-224.433h-15q-39.174-7.914-64.934-38.044-25.761-30.131-10.978-88.87l33.738-135q-20.869-10.435-43.009-17.935-22.139-7.5-45.94-7.5-62.423 0-106.171 44.871-43.748 44.871-43.748 108.347Zm686.782-.032q0-63.463-43.748-108.324-43.748-44.862-106.462-44.862-15.514 0-30.564 2.516-15.051 2.515-29.616 6.789l-31.478 99.956h5q37.608 2.826 61.912 33.913 24.305 31.087 7.87 89.609l-64.831 225.893q-2.125 4.957 3.092 8.01 5.218 3.052 10.783-1.383 63.782-60.651 105.891-105.477 42.108-44.826 66.912-80.63 24.805-35.805 35.022-65.943 10.217-30.139 10.217-60.067Zm-167.086 79.597Zm-314.61-72.609Z"/></svg>