<svg xmlns="http://www.w3.org/2000/svg" width="48" height="48" viewBox="0 96 960 960"><path d="M102.826 972.435q-33.228 0-56.506-22.994-23.277-22.995-23.277-56.224V590.478q0-16.707 11.45-28.158 11.452-11.451 28.159-11.451h821.696q16.706 0 28.44 11.451 11.734 11.451 11.734 28.158v302.739q0 33.229-23.277 56.224-23.278 22.994-56.507 22.994H102.826Zm175.202-149.218q48.755 0 81.82-34.937 33.065-34.936 33.065-83.715V470.174q0-18.609 12.957-31.565 12.956-12.957 31.635-12.957 18.113 0 30.782 12.957 12.669 12.956 12.669 31.565v234.391q0 48.779 33.224 83.715 33.224 34.937 81.978 34.937 48.755 0 81.82-34.937 33.065-34.936 33.065-83.715V430q0-18.989 12.68-31.668 12.679-12.68 31.668-12.68h71.391l-28.652 28.087q-6.304 10.007-5.174 22.569 1.131 12.562 9.348 21.127 10.044 10.261 24.805 9.978 14.761-.283 25.021-10.543l79.087-79.087q11.826-11.893 11.826-28.316 0-16.424-11.826-28.25l-79.652-79.652q-10.695-10.695-24.956-10.695t-24.957 10.748q-9 9.053-10.131 21.783-1.13 12.729 6.174 22.86l28.087 28.087h-70.391q-48.094 0-81.874 33.779-33.779 33.779-33.779 81.873v277.391q0 18.608-12.386 31.565-12.386 12.956-31.065 12.956-18.678 0-31.635-12.956-12.956-12.957-12.956-31.565V473q0-48.779-33.301-83.716-33.3-34.936-81.196-34.936-48.46 0-82.025 34.936-33.565 34.937-33.565 83.716v234.391q0 18.608-12.387 31.565-12.386 12.956-31.065 12.956-18.678 0-31.635-12.956-12.956-12.957-12.956-31.565V390q0-15.011-10.371-25.332-10.371-10.32-25.457-10.32t-24.999 10.32q-9.913 10.321-9.913 25.332v314.565q0 48.779 33.224 83.715 33.224 34.937 81.978 34.937Z"/></svg>