<svg xmlns="http://www.w3.org/2000/svg" width="48" height="48" viewBox="0 96 960 960"><path d="M102.826 972.435q-33.49 0-56.637-22.98-23.146-22.981-23.146-56.238V590.478q0-16.707 11.45-28.158 11.452-11.451 28.159-11.451h821.696q16.636 0 28.405 11.451 11.769 11.451 11.769 28.158v302.739q0 33.257-23.147 56.238-23.147 22.98-56.637 22.98H102.826Zm0-79.218h741.912V630.652H102.826v262.565Zm741.912-262.565H102.826h741.912ZM277.785 823.217q-48.527 0-81.743-35.007-33.216-35.008-33.216-83.645V390q0-14.856 10.089-25.254 10.088-10.398 25.065-10.398 14.976 0 25.281 10.398 10.305 10.398 10.305 25.254v317.391q0 18.891 12.815 31.706 12.815 12.815 31.776 12.815 18.962 0 31.207-12.815 12.245-12.815 12.245-31.706V473q0-48.638 33.506-83.645t81.978-35.007q48.472 0 81.537 35.007 33.066 35.007 33.066 83.645v234.391q0 18.891 12.815 31.706 12.815 12.815 31.776 12.815 18.962 0 31.206-12.815 12.245-12.815 12.245-31.706V430q0-48.189 33.732-81.921 33.732-33.731 81.921-33.731h70.391l-28.087-28.087q-7.304-10.197-6.174-22.946 1.131-12.75 10.212-21.75 10.673-10.695 24.905-10.695 14.232 0 24.927 10.695l79.652 79.652q11.826 11.931 11.826 28.335 0 16.405-11.826 28.231L852.13 456.87q-10.247 10.26-25.015 10.543-14.767.283-24.811-10.228-8.217-8.815-9.348-21.283-1.13-12.467 5.174-22.163l28.652-28.087h-71.321q-19.328 0-31.873 12.546-12.545 12.544-12.545 31.802v274.565q0 48.637-33.3 83.645-33.301 35.007-81.828 35.007t-81.743-35.007q-33.216-35.008-33.216-83.645V470.174q0-18.891-12.492-31.706-12.492-12.816-30.959-12.816-18.961 0-31.776 12.816-12.816 12.815-12.816 31.706v234.391q0 48.637-33.3 83.645-33.301 35.007-81.828 35.007Z"/></svg>