<svg xmlns="http://www.w3.org/2000/svg" width="48" height="48" viewBox="0 -960 960 960"><path d="M519.435-23.043q-78.653 0-126.957-63.826-48.305-63.826-48.305-147.196t48.305-147.196q48.304-63.826 126.957-63.826 78.652 0 126.957 63.826 48.304 63.826 48.304 147.196T646.392-86.869q-48.305 63.826-126.957 63.826ZM204.173-480q0 95.343-12.065 188.584-12.065 93.242-37.065 184.807-4.558 16.73-18.513 26.127-13.955 9.395-29.531 3.83-15.827-5.565-22.24-20.674-6.413-15.109-1.848-31.935 23-86.439 34.5-173.872 11.5-87.432 11.5-177.089t-11.5-177.368q-11.5-87.71-34.5-174.149-4.565-16.826 1.848-31.935 6.413-15.109 21.99-20.674 15.576-5.565 29.531 3.737 13.955 9.302 18.763 26.22 24 91.565 36.565 185.307Q204.173-575.343 204.173-480Zm625.785.144q0 89.013 11.5 176.584 11.5 87.572 34.5 174.011 4.565 16.826-1.565 31.935-6.131 15.109-21.989 20.674-15.859 5.566-29.936-3.782-14.076-9.348-18.076-26.175-25-91.565-37.348-184.807Q754.696-384.657 754.696-480t12.566-189.084q12.565-93.742 37.13-185.307 3.75-16.639 17.826-26.081 14.077-9.441 29.936-3.876 16.108 5.565 22.239 20.674 6.13 15.109 1.565 31.935-23 86.626-34.5 174.213-11.5 87.587-11.5 177.67ZM519.435-94.347q49.13 0 76.826-42.718 27.696-42.717 27.696-97.283 0-54-27.696-97t-76.826-43q-49.131 0-76.544 43-27.413 43-27.413 97.283t27.413 97q27.413 42.718 76.544 42.718Zm-33.826-64.892q10.13 9.413 23.826 9.413 13.695 0 24.17-10.13 14.786-14.565 22.569-33.907 7.783-19.341 7.783-40.251 0-20.909-7.566-40.012-7.565-19.103-21.565-34.048-9.233-10.13-23.66-10.13t-24.557 9.413q-10.131 9.413-10.914 23.875-.782 14.461 8.914 25.06 1.695 1.696 6.282 8.997t4.587 16.611q0 9.545-4.587 17.294-4.587 7.75-6.282 9.445-10.131 10.131-9.631 24.544t10.631 23.826Zm-46.174-355.674q-78.653 0-126.957-63.826-48.305-63.826-48.305-147.196t48.305-147.196q48.304-63.826 126.957-63.826 78.652 0 126.957 63.826 48.304 63.826 48.304 147.196t-48.304 147.196q-48.305 63.826-126.957 63.826Zm0-71.305q49.13 0 76.826-42.717 27.696-42.717 27.696-97.283 0-54-27.696-97t-76.826-43q-49.131 0-76.544 43-27.413 43-27.413 97.283t27.413 97q27.413 42.717 76.544 42.717Zm33.391-64.608q10.131-9.696 10.631-24.158.5-14.461-8.848-25.06-4.783-5.435-7.718-12.209-2.934-6.775-2.934-14.001 0-6.989 2.817-13.788 2.817-6.798 8.052-12.349 9.131-10.198 9.131-24.36 0-14.162-10.131-24.293-10.696-9.13-24.34-9.13t-23.877 10.13q-14.603 14.945-22.367 34.151-7.764 19.205-7.764 39.968 0 20.763 7.283 39.865 7.282 19.103 22.069 34.234 9.909 10.13 23.605 10.13 13.695 0 24.391-9.13Zm-33.391-75.392Zm80 491.87Z"/></svg>