<svg xmlns="http://www.w3.org/2000/svg" width="48" height="48" viewBox="0 -960 960 960"><path d="m806.298-67.234-78.689-77.461q-52.307 37.713-114.806 58.27-62.5 20.556-132.652 20.556-87.977 0-163.796-31.678-75.819-31.677-131.475-87.333-55.656-55.656-87.333-131.475-31.678-75.819-31.678-163.796 0-70.152 20.556-132.652 20.557-62.499 58.27-114.806l-78.567-78.477q-9.52-9.61-9.803-23.3-.282-13.69 9.908-23.479 10.19-9.788 23.76-9.788 13.572 0 23.702 9.565l739.393 739.393q9.565 9.565 9.565 23.26 0 13.697-9.506 23.262-9.788 10.13-23.372 10.13t-23.477-10.191Zm-33.341-221.071L288.305-772.957q-18.522-17.956-15.109-43.174 3.413-25.218 26.631-36.348 40.679-20.609 85.561-31.413Q430.27-894.696 480-894.696q87.584 0 163.143 32.104t131.452 87.997q55.893 55.893 87.997 131.452T894.696-480q0 49.73-10.804 94.612t-31.413 85.561q-9.565 23.218-35.283 26.914-25.717 3.695-44.239-15.392Z"/></svg>