<svg xmlns="http://www.w3.org/2000/svg" width="48" height="48" viewBox="0 -960 960 960"><path d="M321-139.651q-32.479 0-55.849-23.653-23.369-23.652-23.369-56.131v-64.913q0-16.706 11.451-28.157 11.451-11.452 28.158-11.452h89.478v-127q-34.87 1.87-67.391-10.13-32.522-12-60.522-34.435-5.642-4.571-8.604-11.134-2.961-6.562-2.961-14.127v-40.608h-32.348q-7.261 0-14.174-2.848-6.913-2.848-13.043-8.979l-95.74-96.304q-11.13-10.565-10.347-25.761.782-15.196 12.913-24.326 35.391-25.435 77.913-40.718 42.522-15.282 85.217-15.282 27.174 0 63.696 9.217 36.521 9.218 65.391 28.522v-14q0-29.048 19.998-49.046t48.481-19.998h335.565q33.228 0 56.506 23.277 23.277 23.278 23.277 56.507v481.782q0 49.403-35.147 84.55T735-139.651H321Zm129.087-184.306h205.391q16.707 0 28.158 11.452 11.451 11.451 11.451 28.157v25q0 18.305 11.087 29.109 11.087 10.804 28.826 10.804t28.826-10.804q11.087-10.804 11.087-29.109V-741.13H450.087V-683L666.26-466.827q8.566 8.565 9.848 18.478 1.283 9.914-1.717 18.479-3.565 8.565-11.388 14.913-7.823 6.348-19.238 6.348-7.331 0-13.396-2.283-6.065-2.282-11.631-7.848L510.782-527.261l-14.739 17.739Q484.739-496.218 474-489.348q-10.739 6.869-23.913 13.304v152.087ZM212.913-627.609h45.086q16.707 0 28.158 11.451 11.452 11.451 11.452 28.158v50.521q15.869 10.435 31.554 15.652 15.685 5.218 32.619 5.218 23.87 0 49.022-13.5 25.152-13.5 35.456-25.804l15.87-18.305-66.174-66.739q-32-32-70.975-50.217-38.975-18.217-83.199-18.217-25.869 0-46.173 6.217-20.305 6.217-41.609 16.652l58.913 58.913Zm402.956 369.87H321v38.304h308.869q-6.565-4.869-10.283-15.087-3.717-10.217-3.717-23.217ZM321-219.435v-38.304 38.304Z"/></svg>