<svg xmlns="http://www.w3.org/2000/svg" width="48" height="48"><path d="M5.5 42.3q-1.7 0-2.85-1.15Q1.5 40 1.5 38.35V24.4q0-1 .425-1.85.425-.85 1.225-1.4l9.9-7.05q1.1-.75 2.35-.75t2.3.75l9.85 7.05q.8.55 1.225 1.375.425.825.425 1.875v13.95q0 1.65-1.175 2.8T25.25 42.3zm26.7 0V23q0-.95-.45-1.95t-1.2-1.55L20.2 12.2V8.7q.2-1.25 1.2-2.125t2.35-.875H42.5q1.65 0 2.825 1.15Q46.5 8 46.5 9.65v28.7q0 1.65-1.175 2.8T42.5 42.3zm-20.45-3.6h7.3V28.65h-7.3zM35 33.9h3v-3h-3zm0-8.5h3v-3h-3zm0-8.55h3v-3h-3z"/></svg>