<svg xmlns="http://www.w3.org/2000/svg" width="48" height="48" viewBox="0 -960 960 960"><path d="M260.609-92.303q-29.006 0-51.18-18.701t-27.038-47.691l-64.304-384.26q-3.131-18.522 8.466-32.414 11.597-13.891 30.143-13.891h646.608q18.546 0 30.143 13.891 11.597 13.892 8.466 32.414l-64.304 384.26q-4.864 28.99-27.038 47.691-22.174 18.701-50.615 18.701H260.609Zm-54.608-417.739 53.608 337.955h441.347l53.609-337.955H206.001ZM400-347.216h160q16.707 0 28.158-11.826t11.451-28.848q0-16.457-11.451-27.783T560-426.999H400q-15.957 0-27.783 11.451t-11.826 28.158q0 16.522 11.826 28.348T400-347.216ZM240-649.26q-15.957 0-27.783-11.544t-11.826-28.566q0-16.456 11.826-27.782 11.826-11.327 27.783-11.327h480q16.707 0 28.158 11.452 11.451 11.451 11.451 28.157 0 16.522-11.451 28.066T720-649.26H240Zm80-139.219q-15.957 0-27.783-11.826t-11.826-28.283q0-16.457 11.826-28.065 11.826-11.609 27.783-11.609h320q16.707 0 28.158 11.734 11.451 11.733 11.451 28.44 0 15.957-11.451 27.783T640-788.479H320Zm-50.216 616.392H711.13 269.784Z"/></svg>