<svg xmlns="http://www.w3.org/2000/svg" width="48" height="48" viewBox="0 -960 960 960"><path d="M480-874.044q12.348 0 24.655 4.131 12.307 4.13 23.215 12.391l375.913 289.304q12.601 10.069 14.779 26.122 2.178 16.053-8.083 28.879t-26.327 15.391q-16.065 2.566-29.239-7.695L480-795.391 224.522-598.318v373.796h187.304q16.833 0 28.221 11.502 11.388 11.501 11.388 28.422 0 16.92-11.388 27.824-11.388 10.905-28.221 10.905H225.087q-33.257 0-56.237-22.981-22.981-22.98-22.981-56.237V-537.39l-43.043 32.999q-12.435 9.696-27.74 7.413-15.304-2.282-26.13-16.568-10.26-12.497-8.034-28.927 2.227-16.43 15.73-26.31L432.13-857.522q10.908-8.261 23.215-12.391 12.307-4.131 24.655-4.131Zm0 402.914ZM700-70.782q-45.696 29.434-93.044 25.87-47.347-3.566-82.913-39.414-35.565-35.848-39.13-83.696-3.565-47.848 25.869-91.978-29.434-45.696-25.869-93.044 3.565-47.347 39.413-82.913 35.848-35.565 83.696-39.13 47.848-3.565 91.978 25.869 45.696-29.434 93.044-25.869 47.347 3.565 82.913 39.413 35.565 35.848 39.13 83.696 3.565 47.848-25.869 91.978 29.434 45.696 25.869 93.044-3.565 47.347-39.413 82.913-35.848 35.565-83.696 39.13Q744.13-41.347 700-70.783Zm0-87.001 42.826 30.261q19.474 13.435 43.194 11.935 23.719-1.5 40.023-18.37 16.644-16.207 18.257-40.446 1.613-24.24-11.257-42.771L802.217-260l30.826-42.826q12.87-19.474 11.37-43.194-1.5-23.719-18.37-40.023-16.207-16.644-40.446-18.257-24.24-1.613-42.771 11.257L700-362.217l-42.826-30.826q-19.474-12.87-43.194-11.37-23.719 1.5-40.023 18.37-16.644 16.207-18.257 40.446-1.613 24.24 11.822 42.771L597.783-260l-30.261 42.826q-13.435 19.474-11.935 43.194 1.5 23.719 18.37 40.023 16.207 16.644 40.446 18.257 24.24 1.613 42.771-11.822L700-157.783Zm.244-56.565q19.277 0 32.343-13.31 13.065-13.31 13.065-32.586 0-19.277-13.31-32.343-13.31-13.065-32.586-13.065-19.277 0-32.343 13.31-13.065 13.31-13.065 32.586 0 19.277 13.31 32.343 13.31 13.065 32.586 13.065ZM700-260Z"/></svg>