<svg xmlns="http://www.w3.org/2000/svg" width="48" height="48" viewBox="0 96 960 960"><path d="M109.825 985.609q-16.782 0-28.108-11.451T70.391 946V206q0-16.707 11.501-28.158 11.502-11.451 28.283-11.451 16.782 0 28.108 11.451T149.609 206v740q0 16.707-11.501 28.158-11.502 11.451-28.283 11.451Zm370.057-200q-24.839 0-42.165-17.409-17.326-17.41-17.326-42.2V426q0-24.79 17.444-42.2 17.444-17.409 42.283-17.409 24.839 0 42.165 17.409 17.326 17.41 17.326 42.2v300q0 24.79-17.444 42.2-17.444 17.409-42.283 17.409Zm369.943 200q-16.782 0-28.108-11.451T810.391 946V206q0-16.707 11.501-28.158 11.502-11.451 28.283-11.451 16.782 0 28.108 11.451T889.609 206v740q0 16.707-11.501 28.158-11.502 11.451-28.283 11.451Z"/></svg>