<svg xmlns="http://www.w3.org/2000/svg" width="48" height="48" viewBox="0 -960 960 960"><path d="M265.742-654.132q-29.805 0-50.404-20.705-20.599-20.705-20.599-50.131 0-29.425 20.574-50.555 20.574-21.131 50.379-21.131 29.806 0 50.405 20.996 20.599 20.997 20.599 50.83 0 29.368-20.574 50.032-20.574 20.664-50.38 20.664ZM144.522-65.869q-32.694 0-55.674-22.98-22.98-22.979-22.98-55.673v-276.782q0-16.957 11.327-28.283 11.326-11.326 28.283-11.326h93.131v-63.349q0-32.67 22.988-55.813t55.533-23.143q20.261 0 38.175 9.413 17.913 9.413 31.495 24.796l60.505 67.704q10.565 11.565 22.413 21.696 11.848 10.13 25.042 18.696h399.762q16.886 0 28.53 11.326 11.644 11.326 11.644 28.283v276.782q0 32.694-23.145 55.674-23.145 22.98-56.073 22.98H144.522Zm643.566-500.349q-13.913 0-23.848-10.552-9.935-10.553-10.935-24.231-1.435-26.869-12.717-51.087-11.283-24.217-26.663-46.803-18.924-26.283-30.49-56.838-11.565-30.554-10.434-64.184 0-13.783 10.058-24.283 10.058-10.5 24.159-10.5 13.857 0 22.755 10.5t9.898 24.283q1 26.191 10.282 49.747 9.283 23.557 24.718 43.557 22 27.435 34.5 59.587t11.935 66.587q0 13.826-9.765 24.022-9.764 10.195-23.453 10.195Zm-171.988 0q-13.983 0-23.542-10.552Q583-587.323 582-601.001q-2-26.869-13-51.087-11-24.217-26.586-47.01-19.284-26.642-30.566-57.011-11.283-30.37-10.718-63.804 0-13.783 10.292-24.283 10.292-10.5 24.022-10.5 13.73 0 23.209 10.463 9.478 10.464 10.478 24.32 1 25.396 10 49.486 9 24.09 24.587 43.783 21.283 27.47 34.065 59.622 12.783 32.152 12.218 66.587 0 13.826-9.959 24.022-9.958 10.195-23.942 10.195Zm61.074 421.131h108.869v-236.608H677.174v236.608Zm-167.739 0h108.869v-236.608H509.435v236.608Zm-167.739 0h108.869v-236.608H341.696v236.608Zm-167.174 0h108.304v-236.608H174.522v236.608Z"/></svg>