<svg xmlns="http://www.w3.org/2000/svg" width="48" height="48" viewBox="0 -960 960 960"><path d="M185.478-65.869q-16.957 0-28.283-11.326t-11.326-28.283q0-16.957 11.326-28.283t28.283-11.326h56.391v-121.716q0-68.501 33.956-126.719Q309.782-451.739 371.39-480q-41.47-21.046-71.17-56.023-29.699-34.978-43.873-79.369L47-824.739q-9.565-9.565-9.565-23.478 0-13.913 10.13-24.044 10.13-10.13 23.479-10.13 13.347 0 23.46 10.103l769.54 769.549q9.565 10.13 9.565 23.544 0 13.413-10.13 23.543-9.829 9.566-23.328 9.566-13.499 0-23.629-9.566L805.87-65.869H185.478Zm399.175-410.174-59.435-60.001q51.912-14.565 82.804-58.774 30.891-44.209 30.891-99.182v-120.913H321.087v75.304l-45.303-45.304v-30h-30l-79.219-79.783h607.957q16.886 0 28.53 11.658 11.644 11.658 11.644 28.566 0 16.907-11.644 28.233t-28.53 11.326h-55.826V-694q0 70-35.369 129.565-35.37 59.565-98.674 88.392ZM321.087-145.087h317.826v-87.769L443.261-428.478q-55.87 13.435-89.022 58.872Q321.087-324.168 321.087-267v121.913Zm397.609 0h30l-30-30v30Z"/></svg>