<svg xmlns="http://www.w3.org/2000/svg" width="48" height="48" viewBox="0 -960 960 960"><path d="M270.609-208.911v63.433q0 16.707-11.784 28.158t-28.566 11.451q-16.781 0-28.107-11.451t-11.326-28.158v-386.738l-86.174 65.129Q91.218-456.26 75.5-458.608q-15.718-2.348-25.979-15.74-10.26-12.261-7.695-28.5 2.565-16.239 15.391-26.5L432.13-817.087q10.826-8.261 23.145-12.892 12.32-4.63 24.725-4.63 12.405 0 24.725 4.63 12.319 4.631 23.145 12.892l376.043 287.739q12.827 10.261 14.327 26.5t-8.196 28.5q-10.261 13.392-26.261 15.74-16.001 2.348-28.87-8.479l-86.739-66.695v388.304q0 16.707-11.501 28.158-11.502 11.451-28.283 11.451t-28.108-11.451q-11.326-11.451-11.326-28.158v-63.433H270.609Zm0-242.045h418.347v-91.521H270.609v91.521Zm0 166.783h418.347v-91.521H270.609v91.521Zm29.565-333.566h359.652L480-755.956 300.174-617.739Z"/></svg>