<svg xmlns="http://www.w3.org/2000/svg" width="48" height="48" viewBox="0 96 960 960"><path d="M344.522 610.565q0 57.87 31.956 107.696 31.957 49.826 85 70.391 4.934 2 9.321 3.065 4.386 1.065 9.261 1.065 4.874 0 9.201-1.065 4.327-1.065 9.261-3.065 54.128-19.552 85.825-69.384 31.696-49.833 31.696-108.703V560.87q0-16.561-9.079-30.688-9.079-14.126-24.399-22.312l-76.347-38.391q-12.559-6.131-26.084-6.131t-26.352 6.131l-76.347 38.391q-15.114 8.37-24.014 22.294-8.899 13.923-8.899 30.706v49.695ZM231.305 944.479q-33.49 0-56.637-23.147t-23.147-56.637V491.652q0-19.198 8.071-35.974 8.071-16.776 23.843-27.852L432.13 241.304q20.767-15.956 47.71-15.956t48.03 15.956l249.26 186.522q15.013 11.239 23.181 27.934 8.168 16.694 8.168 35.892v373.043q0 33.49-23.278 56.637-23.277 23.147-55.941 23.147H231.305Zm10-89.784H719.26V496.652L480 316.566 241.305 495.942v358.753ZM480 585.13Z"/></svg>