<svg xmlns="http://www.w3.org/2000/svg" width="48" height="48" viewBox="0 -960 960 960"><path d="M143.391-138.521q-33.256 0-56.237-23.277-22.98-23.278-22.98-55.941v-30.043q0-37.429 19.64-69.534 19.641-32.105 56.273-48.902 72-32 135.108-46.565 63.109-14.565 123.109-14.565 15.759 0 32.109 1.032 16.35 1.033 30.109 1.968 15.513 1.552 26.213 15.594 10.7 14.043 8.7 30.489-2.565 14.744-16.304 24.222-13.74 9.478-29.696 8.478-15.261-1-27.913-1.5-12.652-.5-23.218-.5-56.175 0-104.022 10.5-47.847 10.5-118.689 40.528-17.09 8.104-24.646 22.445-7.556 14.34-7.556 28.571v27.782h317.87q16.707 0 28.158 11.502 11.451 11.501 11.451 28.283 0 16.781-11.451 28.107t-28.158 11.326h-317.87Zm492.914-86.088 190.304-189.739q9.565-10.13 22.696-10.13 13.13 0 23.261 10.13 10.13 10.131 10.13 23.261 0 13.131-10.13 23.261L664.653-159.913q-12.083 11.826-28.194 11.826-16.111 0-27.937-11.826l-94.478-94.478q-10.131-10.13-10.131-22.978t10.696-22.979q9.565-10.13 22.696-10.13 13.13 0 23.261 10.13l75.739 75.739ZM398.189-489.348q-72.333 0-118.174-45.842-45.842-45.842-45.842-118.174 0-72.333 45.842-118.29 45.841-45.957 118.174-45.957t118.572 45.957q46.24 45.957 46.24 118.29 0 72.332-46.24 118.174-46.239 45.842-118.572 45.842Zm39.463 257.609Zm-39.463-336.828q36.854 0 60.941-23.999 24.087-24 24.087-60.893 0-37.127-23.972-61.03t-60.826-23.903q-36.854 0-60.941 23.929-24.087 23.929-24.087 60.723 0 37.028 23.972 61.101 23.972 24.072 60.826 24.072Zm.115-84.912Z"/></svg>