<svg xmlns="http://www.w3.org/2000/svg" width="48" height="48" viewBox="0 -960 960 960"><path d="M480-85.87q-138.65 0-236.39-95.38-97.74-95.38-97.74-233.18 0-66.4 25.63-126.72 25.63-60.33 72.89-107.59l180.04-177.04q11.79-10.96 26-16.81 14.22-5.85 29.37-5.85 15.16 0 29.51 5.85 14.36 5.85 26.26 16.81l180.04 177.04q47.26 47.26 73.17 107.59 25.92 60.32 25.92 126.72 0 138.21-98.03 233.39Q618.65-85.87 480-85.87Zm180.33-151.31q74.58-72.08 74.58-177.43 0-49.13-19.21-94.56-19.22-45.44-53.66-79.87L480-768.65 297.96-589.04q-34.44 34.43-53.66 79.86-19.21 45.43-19.21 94.6 0 105.45 74.35 177.47t180.32 72.02q105.98 0 180.57-72.09Z"/></svg>