<svg xmlns="http://www.w3.org/2000/svg" width="48" height="48" viewBox="0 96 960 960"><path d="M580.118 806Q601 806 615.5 791.382q14.5-14.617 14.5-35.5Q630 735 615.382 720.5q-14.617-14.5-35.5-14.5Q559 706 544.5 720.618q-14.5 14.617-14.5 35.5Q530 777 544.618 791.5q14.617 14.5 35.5 14.5ZM357 779q9 9 21 9t21-9l204-204q9-9 9-21t-9.053-21q-9.052-9-21.5-9Q569 524 560 533L357 737q-9 8.8-9 20.9 0 12.1 9 21.1Zm23.118-173Q401 606 415.5 591.382q14.5-14.617 14.5-35.5Q430 535 415.382 520.5q-14.617-14.5-35.5-14.5Q359 506 344.5 520.618q-14.5 14.617-14.5 35.5Q330 577 344.618 591.5q14.617 14.5 35.5 14.5Zm99.811 384.131q-132.581 0-233.321-92.497Q145.869 805.137 145.869 648q0-97.414 74.348-212.316t227.174-249.858q6.274-5.787 15.018-9.089 8.743-3.303 17.486-3.303t17.562 3.303q8.82 3.302 15.152 9.089 152.826 134.956 227.457 249.759 74.63 114.802 74.63 212.415 0 157.137-101.092 249.634-101.093 92.497-233.675 92.497Zm-.033-79.218q108.408 0 181.713-74.587 73.304-74.587 73.304-188.57 0-76.495-65.504-174.695Q603.905 374.862 480 263.348 356.095 374.862 290.591 473.061q-65.504 98.2-65.504 174.695 0 113.983 73.2 188.57 73.2 74.587 181.609 74.587ZM480 685Z"/></svg>