<svg xmlns="http://www.w3.org/2000/svg" width="48" height="48" viewBox="0 96 960 960"><path d="M582.93 1029H427.069q-17.558 0-28.923-11.75-11.364-11.76-11.364-29.247V725.997q0-17.491 11.446-29.244 11.446-11.754 28.776-11.754h47.778V565H126.999q-24.75 0-42.375-17.625T67 505V312q0-24.75 17.625-42.375T127 252h83v-48.347q0-17.147 11.754-28.9 11.753-11.754 29.029-11.754h521.436q17.276 0 29.029 11.754 11.754 11.753 11.754 29.099v164.296q0 17.346-11.754 29.099-11.753 11.754-29.029 11.754H250.782q-17.276 0-29.029-11.754-11.754-11.753-11.754-28.9V312h-83v193h347.995q24.538 0 42.163 17.625Q534.782 540.25 534.782 565v119.999h48.347q17.147 0 28.618 11.754 11.471 11.753 11.471 29.244v262.006q0 17.487-11.365 29.247Q600.488 1029 582.93 1029Z"/></svg>