<svg xmlns="http://www.w3.org/2000/svg" width="48" height="48" viewBox="0 -960 960 960"><path d="M697.913-279.956q0-9.696-7.131-16.826-7.13-7.131-17.109-7.131-9.978 0-17.108 7.131-7.131 7.13-7.131 16.826v120q0 10.374 7.074 17.448t17.448 7.074q9.696 0 16.826-7.074 7.131-7.074 7.131-17.448v-120Zm60 0v120q0 10.374 7.074 17.448t17.448 7.074q9.695 0 16.826-7.074 7.13-7.074 7.13-17.448v-120q0-9.696-7.13-16.826-7.131-7.131-17.109-7.131-9.978 0-17.109 7.131-7.13 7.13-7.13 16.826Zm-73-333.826q12.75 0 21.375-8.676 8.625-8.675 8.625-21.5 0-12.824-8.625-21.324-8.625-8.5-21.375-8.5H275.087q-12.75 0-21.375 8.675-8.625 8.676-8.625 21.5 0 12.825 8.625 21.325t21.375 8.5h409.826Zm42.5 581.826q-77.5 0-132.5-55.217-55-55.218-55-131.783 0-77.87 54.99-133.435t133.01-55.565q77 0 132.5 55.565t55.5 133.435q0 76.565-55.5 131.783-55.5 55.217-133 55.217ZM185.087-853.001h589.826q32.91 0 56.347 23.271 23.436 23.27 23.436 55.948v341.131q-28.956-16.653-60.283-25.479-31.326-8.826-63.935-8.826v-41.914H275.087q-12.75 0-21.375 8.676-8.625 8.675-8.625 21.5 0 12.824 8.625 21.324 8.625 8.5 21.375 8.5h353.435q-36.627 17.048-65.456 44.122-28.83 27.074-47.805 60.791H275.087q-12.75 0-21.375 8.676-8.625 8.675-8.625 21.5 0 12.824 8.625 21.324 8.625 8.5 21.375 8.5h214.087q-4.696 16.392-6.761 33.122-2.065 16.731-2.065 34.575 0 32.391 8.478 63.935 8.478 31.543 26.435 59.24l-24 22q-6.696 4-13.609 4t-11.718-4.806l-48.478-48.195-48.152 47.87q-5.869 6.13-14.261 6.13-8.391 0-14.522-6.13l-48.152-47.87-48.717 47.87q-5.87 6.13-14.261 6.13-8.392 0-14.522-6.13l-48.152-47.87-47.022 47.87q-2.13 2.13-13.826 5v-706.566q0-32.678 23.27-55.948 23.271-23.271 55.948-23.271Z"/></svg>