<svg xmlns="http://www.w3.org/2000/svg" width="48" height="48" viewBox="0 -960 960 960"><path d="M286.218-445.782h388.564q15.431 0 25.824-10.36Q711-466.501 711-481.881t-10.394-25.858q-10.393-10.479-25.824-10.479H286.218q-15.431 0-25.824 10.36Q250-497.499 250-482.119t10.394 25.858q10.393 10.479 25.824 10.479ZM185.087-105.869q-32.507 0-55.862-23.356-23.356-23.355-23.356-55.862v-589.826q0-32.74 23.356-56.262 23.355-23.521 55.862-23.521h589.826q32.74 0 56.262 23.521 23.521 23.522 23.521 56.262v589.826q0 32.507-23.521 55.862-23.522 23.356-56.262 23.356H185.087Z"/></svg>