<svg xmlns="http://www.w3.org/2000/svg" width="48" height="48" viewBox="0 96 960 960"><path d="M225.087 990.131q-32.677 0-55.948-23.27-23.27-23.271-23.27-55.948V755.609h79.218v155.304h509.826V755.609h79.783v155.304q0 32.677-23.436 55.948-23.437 23.27-56.347 23.27H225.087Zm-79.218-433.74V241.087q0-32.91 23.27-56.347 23.271-23.436 55.948-23.436h328.652q16.125 0 31.215 6.695 15.09 6.696 25.916 17.522L790.479 365.13q10.826 10.826 17.522 25.916 6.695 15.09 6.695 31.215v134.13h-79.783V427.087H585.522q-16.707 0-28.158-11.451t-11.451-28.158V241.087H225.087v315.304h-79.218Zm240.349 139.218q-16.707 0-28.158-11.501-11.451-11.502-11.451-28.283 0-16.782 11.451-28.108t28.158-11.326h187.564q16.707 0 28.158 11.501 11.451 11.502 11.451 28.283 0 16.782-11.451 28.108t-28.158 11.326H386.218Zm326.783 0q-16.707 0-28.158-11.501-11.452-11.502-11.452-28.283 0-16.782 11.452-28.108 11.451-11.326 28.158-11.326H890q16.707 0 28.158 11.501 11.451 11.502 11.451 28.283 0 16.782-11.451 28.108T890 695.609H713.001Zm-643.001 0q-16.707 0-28.158-11.501-11.451-11.502-11.451-28.283 0-16.782 11.451-28.108T70 616.391h176.999q16.707 0 28.158 11.501 11.452 11.502 11.452 28.283 0 16.782-11.452 28.108-11.451 11.326-28.158 11.326H70Zm410-139.218Zm0 199.218Z"/></svg>