<svg xmlns="http://www.w3.org/2000/svg" width="48" height="48"><path d="M20.45 30.25q.45-.45.45-1.05 0-.6-.45-1.05l-4-4 4-4.05q.45-.45.45-1.05 0-.6-.45-1.1-.45-.45-1.075-.45t-1.075.45l-4.75 4.75q-.6.65-.6 1.475 0 .825.6 1.375l4.7 4.7q.45.45 1.1.475.65.025 1.1-.475zm7.15 0q.45.5 1.075.475.625-.025 1.075-.475l4.75-4.7q.6-.6.6-1.4 0-.8-.6-1.45l-4.75-4.75q-.45-.4-1.1-.4-.65 0-1.05.4-.45.5-.45 1.125t.45 1.025l4 4-4 4.05q-.45.45-.45 1.05 0 .6.45 1.05zM9.25 42.8q-1.65 0-2.8-1.175T5.3 38.8V9.3q0-1.6 1.15-2.775Q7.6 5.35 9.25 5.35h8.7q.85-1.8 2.475-2.9 1.625-1.1 3.625-1.1 1.95 0 3.55 1.1 1.6 1.1 2.5 2.9h8.65q1.65 0 2.825 1.175Q42.75 7.7 42.75 9.3v29.5q0 1.65-1.175 2.825Q40.4 42.8 38.75 42.8zM24 8.5q.8 0 1.35-.575t.55-1.375q0-.75-.55-1.325T24 4.65q-.8 0-1.35.575T22.1 6.55q0 .8.55 1.375T24 8.5zM9.25 38.8h29.5V9.3H9.25v29.5zm0-29.6v29.2V9.2z"/></svg>