<svg xmlns="http://www.w3.org/2000/svg" width="48" height="48" viewBox="0 96 960 960"><path d="M824.983 754.391q-24.147 0-41.261-16.989-17.113-16.989-17.113-41.402V596q0-24.13 17.066-41.261 17.067-17.13 41.591-17.13 23.864 0 40.995 17.13 17.13 17.131 17.13 41.261v100q0 24.413-17.13 41.402-17.131 16.989-41.278 16.989Zm.098 157.436q-7.777 0-13.125-5.291-5.347-5.292-5.347-13.101v-47.608q-49.827-7.565-86.566-40.892-36.739-33.326-44.87-84.544-1.565-8.695 4.565-14.043Q685.869 701 694.531 701q5.599 0 11.229 4.348 5.631 4.348 7.196 11.478 7.323 39.73 38.911 66.757 31.587 27.026 73.133 27.026 41.391 0 73.014-27.026 31.622-27.027 39.595-66.507 1-7.38 6.767-11.728T957.081 701q8.333 0 13.822 5.297 5.489 5.296 4.489 14.146-8.696 51.166-45.435 84.492-36.739 33.327-86.566 40.892v47.608q0 7.809-5.267 13.101-5.267 5.291-13.043 5.291ZM374.694 546.956q-70.391-5.087-110.195-50.261-39.805-45.174-39.805-112.174t40.087-112.174q40.087-45.175 110.479-50.827 2.122 0 10.024.903 7.902.904 13.453 1.271-28.261 32.13-44.152 72.435-15.892 40.304-15.892 88.109 0 47.805 15.044 88.109 15.043 40.305 44.435 72.435-6.415 1.933-13.655 2.053-7.24.121-9.823.121ZM8.911 917.479V808.218q0-34.592 14.957-59.535 14.956-24.943 45-46.204 32.782-23.131 87.825-39.761 55.043-16.631 126.782-24.066-63.869 33.261-86.826 76.31-22.956 43.048-22.956 93.256v109.261H8.911ZM562.72 548.652q-68.777 0-116.402-47.615-47.624-47.614-47.624-116.391 0-68.778 47.614-116.517 47.615-47.74 116.392-47.74 68.778 0 116.8 47.849 48.022 47.849 48.022 116.398 0 68.781-48.012 116.399-48.012 47.617-116.79 47.617Zm-.01-79.219q35.854 0 60.441-24.971 24.587-24.972 24.587-59.826 0-35.854-24.472-60.441-24.472-24.587-60.326-24.587-34.854 0-59.941 24.689-25.087 24.69-25.087 60.319 0 34.862 24.972 59.84 24.972 24.977 59.826 24.977ZM233.693 917.479v-109.25q0-38.968 20.761-70.859 20.761-31.892 56.153-47.588 47-21 110.195-41.065 63.196-20.065 142.022-20.065 7.229 0 20.55 1.065 13.32 1.065 22.712 1.631-8.826 18.956-13.109 39.109-4.283 20.152-4.587 39.109-5.391-.565-12.659-.848-7.268-.283-12.907-.283-70.304 0-120.608 14.977-50.305 14.977-96.305 36.149-16 8.048-24.5 21.011t-8.5 29.341v28.348h309.088q10.434 21.087 29.391 42.522t43.479 36.696H233.693Zm329.131-532.958Zm0 323.914Z"/></svg>