<svg xmlns="http://www.w3.org/2000/svg" width="48" height="48" viewBox="0 -960 960 960"><path d="M225.09-65.87q-32.51 0-55.87-23.35-23.35-23.36-23.35-55.87V-583q0-31.91 23.35-55.56 23.36-23.66 55.87-23.66h114.69q16.71 0 28.16 11.5 11.45 11.51 11.45 28.29t-11.45 28.11Q356.49-583 339.78-583H225.09v437.91h509.82V-583H618.78q-17.27 0-28.72-11.5t-11.45-28.28q0-16.78 11.45-28.11 11.45-11.33 28.72-11.33h116.13q32.74 0 56.26 23.66Q814.7-614.91 814.7-583v437.91q0 32.51-23.53 55.87-23.52 23.35-56.26 23.35H225.09ZM478.82-332.3q-16.78 0-28.1-11.45-11.33-11.46-11.33-28.16v-412.31L379.17-724q-11.82 11.83-28 12.13-16.17.31-27.84-11.54-11.55-11.85-11.55-28.31 0-16.45 11.98-28.44l126.89-128.45q6.23-6.08 13.64-9.23Q471.7-921 479.2-921t14.73 3.16q7.23 3.15 13.42 9.23L635.39-780q11.83 11.97 11.83 28.01 0 16.05-11.57 27.71-11.69 11.67-28.03 11.67-16.34 0-28.23-11.82l-60.78-59.79v412.31q0 16.7-11.5 28.16-11.5 11.45-28.29 11.45Z"/></svg>