<svg xmlns="http://www.w3.org/2000/svg" width="48" height="48" viewBox="0 -960 960 960"><path d="M145.652-292.652h456.825v-151.521H235.905q-37.297 0-63.775 26.174-26.478 26.173-26.478 64.782v60.565Zm456.825 0v-151.521 151.521Zm268.854-442.044q16.855 0 28.589 11.501 11.734 11.502 11.734 28.283 0 16.782-11.769 28.108-11.77 11.326-28.406 11.326-21.25 0-35.625 14.537-14.375 14.538-14.375 36.028v152.478q0 56.243-41.105 93.013t-98.113 36.77v69.828q0 16.488-11.451 27.939-11.451 11.452-28.158 11.452H105.478q-16.707 0-28.158-11.452-11.451-11.451-11.451-28.158v-100.174q0-70.522 49.678-120.631 49.678-50.109 119.931-50.109h366.999v-47.281q0-18.653-12.425-31.446-12.424-12.794-30.792-12.794H386.586q-9.142 0-16.647 2.935-7.504 2.934-13.374 8.804-6.13 6.182-13.391 9.787-7.261 3.604-16.522 3.604-17.132 0-28.871-11.738-11.738-11.739-11.738-29.069 0-8.356 3.63-15.405 3.631-7.049 9.761-13.18 16.696-15.695 38.443-25.326 21.748-9.63 47.036-9.63H559.26q51.251 0 87.126 36.04 35.875 36.04 35.875 87.526v168.695q23 0 41.5-13.38t18.5-37.218v-152.445q0-53.841 37.975-91.53 37.975-37.688 91.095-37.688Z"/></svg>