<svg xmlns="http://www.w3.org/2000/svg" width="48" height="48" viewBox="0 -960 960 960"><path d="M734.48-313.22v-349.13q-75.57 3.31-146.78-13.76-71.22-17.06-128.09-50.93-41-25-84.45-36.72-43.45-11.72-90.81-11.72-15.31 0-29.98 1.72t-30.85 5.15v346q14.74-.87 31.26-2.37 16.52-1.5 35.83-1.5 61.26 0 122.52 16.57 61.26 16.56 114.52 47.69 49.31 28.87 100.97 40.87 51.66 12 105.86 8.13ZM561.5-461.98q33.5-33.29 33.5-81.5 0-48.22-33.29-81.72t-81.5-33.5q-48.21 0-81.71 33.29-33.5 33.29-33.5 81.5t33.29 81.71q33.29 33.5 81.5 33.5t81.71-33.28Zm-66.33 172.72q-48-28.44-100.42-43.22-52.42-14.78-106.14-14.78-15.87 0-30.61 1.22-14.74 1.21-33.48 4.65v196.48q0 16.7-11.5 27.87-11.5 11.17-28.28 11.17t-27.83-11.17q-11.04-11.17-11.04-27.87v-656.44q0-15.38 9.53-27.64 9.53-12.25 24.51-15.1 33.87-6.3 57.02-8.45 23.16-2.16 43.33-2.16 59.91 0 113.52 14.79 53.61 14.78 100.31 42.91 45.87 28 98.3 42.22 52.44 14.21 107.57 14.21 18.91 0 36.67-1t35.33-3q16.6-2.56 29.67 9.44 13.07 12.01 13.07 28.61v428.78q0 16.06-10.49 27.58t-26.56 13.6q-19.56 2.56-38.35 3.78-18.78 1.22-38.34 1.22-54.26 0-106.74-14.29-52.48-14.28-99.05-43.41ZM479-541.7Z"/></svg>