<svg xmlns="http://www.w3.org/2000/svg" width="48" height="48" viewBox="0 -960 960 960"><path d="M378.74-145.87v21.31q0 14.98-10.67 25.31-10.68 10.34-25.74 10.34-15.07 0-25.27-10.34-10.19-10.33-10.19-25.31v-440.48q0-50.11 36.15-85.12 36.16-35.01 87.33-35.01h48.21v-97.66h-93.91q-14.98 0-25.32-10.39Q349-803.61 349-818.67q0-15.07 10.33-25.55 10.34-10.48 25.32-10.48h391.13q14.99 0 25.6 10.68Q812-833.35 812-818.28q0 15.06-10.62 25.26-10.61 10.19-25.6 10.19H682.3v97.66h48.79q50.98 0 87.29 35.01 36.32 35.01 36.32 85.12v440.48q0 14.98-10.68 25.31-10.67 10.34-25.74 10.34-15.06 0-25.54-10.34-10.48-10.33-10.48-25.31v-21.31H378.74Zm0-71.87h403.52v-91.52H378.74v91.52Zm0-163.39h403.52v-62.65h-46.78q-51.25 0-86.15-34.79-34.9-34.78-36.9-86.13l-2-48.6h-58.86q-2.14 33.13-13.33 66.45-11.2 33.33-32.59 69.68l-9.22 12.13q-5.3 8.17-16.8 8.97-11.5.81-36.07-13.6-8.17-5.37-10.89-15.11-2.71-9.74 2.59-18.48l9.22-11.7q17.39-28.39 25.24-51.87 7.84-23.47 8.84-46.47h-49.21q-21.27 0-35.94 13.93-14.67 13.93-14.67 34.67v183.57Zm171.69-304.04h60v-97.66h-60v97.66Zm185.05 168.95h46.78v-48.47q0-20.69-15.1-34.65-15.09-13.96-36.57-13.96H682.3l2 47.97q1 20.37 15.67 34.74 14.67 14.37 35.51 14.37ZM80.35-224.02Q75-238 81.13-251.83l67-147q6.47-13.37 20.28-18.38 13.81-5.01 27.07 1.22 13.26 6.23 18.61 19.83 5.34 13.59-.79 27.42l-67 147q-6.59 13.37-20.05 18.67-13.47 5.29-27.01-.84-13.55-6.13-18.89-20.11Zm69.57-325.14q-14.4 1.81-26.1-7.32l-37-30.56q-11.63-9.01-13.16-23.83-1.53-14.83 7.6-26.52 9.13-11.7 23.39-12.7t25.96 7.57l38 30q11.69 9.13 12.98 23.67 1.28 14.55-8 26.21t-23.67 13.48Zm30.14-150.75q-14.54 1-26.24-8.13l-37-30q-11.63-8.75-13.16-23.21-1.53-14.45 7.75-26.11t23.39-13.48q14.11-1.81 25.81 7.32l38 30q11.69 9.13 12.98 24.17 1.28 15.05-7.85 26.74-9.13 11.7-23.68 12.7Z"/></svg>