<svg xmlns="http://www.w3.org/2000/svg" width="48" height="48" viewBox="0 -960 960 960"><path d="M805.57-67.17 505.48-366.26h-6Q466.22-291 406.67-259 347.13-227 280-227q-105.09 0-179.04-73.96Q27-374.91 27-480q0-66 34.43-127.54 34.44-61.55 104.83-96.94L66.17-805.57q-10.13-10.13-10.13-24.04 0-13.91 10.13-23.48 9.57-9.56 23.98-9.56t23.98 9.56L853.09-113.7q10.13 10.14 9.85 23.55-.29 13.41-9.85 22.98-10.13 10.13-23.76 10.13t-23.76-10.13Zm149.95-388.16q-3.35 6.98-9.48 13.11L825-331.74q-5.56 5.13-12.33 8.26-6.76 3.13-12.89 3.13-2.17 0-5.26-.71-3.08-.72-5.82-2.59l-81.44-61.87-23 17-43-43 70.96-51.39 83 60.43L870.74-472l-44.78-44.78H535l-73-72.44h378.09q7.69 0 14.67 2.85 6.98 2.85 13.11 8.98l79.17 78.04q6.13 6.7 8.98 14.18 2.85 7.47 2.85 15.17t-3.35 14.67ZM280-300q49.87 0 98.65-32.65 48.78-32.65 67.78-93.22-33-32.43-59.78-59.22l-52.78-52.78-52.78-52.78q-26.79-26.78-59.79-59.78-64 23.13-92.65 72.13Q100-529.3 100-480q0 75 52.5 127.5T280-300Zm-52.24-127.76q-21.98-21.98-21.98-52.24t21.98-52.24q21.98-21.98 52.24-21.98 31.26 0 52.74 21.98T354.22-480q0 30.26-21.98 52.24T280-405.78q-30.26 0-52.24-21.98Z"/></svg>