<svg xmlns="http://www.w3.org/2000/svg" width="48" height="48" viewBox="0 -960 960 960"><path d="M747.477-180.782H619.652q-16.706 0-28.157-11.501-11.452-11.502-11.452-28.283 0-16.782 11.452-28.108Q602.946-260 619.652-260h127.825l-36.738-37.738q-10.826-11.827-11.044-26.935-.217-15.109 12.175-27.501Q723.696-364 739.652-364q15.957 0 27.783 11.826l104 103.435q11.827 12.391 11.827 28.631 0 16.239-11.827 28.065l-104 103.435q-11.826 11.826-28.065 11.826-16.24 0-29.196-12.956-11.826-11.827-11.326-26.653.5-14.826 11.326-26.652l37.303-37.739ZM233.175-575q12.825 0 21.325-8.675 8.5-8.676 8.5-21.5 0-12.825-8.675-21.325-8.676-8.5-21.5-8.5-12.825 0-21.325 8.675-8.5 8.676-8.5 21.5 0 12.825 8.675 21.325 8.676 8.5 21.5 8.5Zm124 0q12.825 0 21.325-8.675 8.5-8.676 8.5-21.5 0-12.825-8.675-21.325-8.676-8.5-21.5-8.5-12.825 0-21.325 8.675-8.5 8.676-8.5 21.5 0 12.825 8.675 21.325 8.676 8.5 21.5 8.5Zm123 0q12.825 0 21.325-8.675 8.5-8.676 8.5-21.5 0-12.825-8.675-21.325-8.676-8.5-21.5-8.5-12.825 0-21.325 8.675-8.5 8.676-8.5 21.5 0 12.825 8.675 21.325 8.676 8.5 21.5 8.5Zm124 0q12.825 0 21.325-8.675 8.5-8.676 8.5-21.5 0-12.825-8.675-21.325-8.676-8.5-21.5-8.5-12.825 0-21.325 8.675-8.5 8.676-8.5 21.5 0 12.825 8.675 21.325 8.676 8.5 21.5 8.5Zm123 0q12.825 0 21.325-8.675 8.5-8.676 8.5-21.5 0-12.825-8.675-21.325-8.676-8.5-21.5-8.5-12.825 0-21.325 8.675-8.5 8.676-8.5 21.5 0 12.825 8.675 21.325 8.676 8.5 21.5 8.5Zm-494 125q12.825 0 21.325-8.675 8.5-8.676 8.5-21.5 0-12.825-8.675-21.325-8.676-8.5-21.5-8.5-12.825 0-21.325 8.675-8.5 8.676-8.5 21.5 0 12.825 8.675 21.325 8.676 8.5 21.5 8.5Zm124 0q12.825 0 21.325-8.675 8.5-8.676 8.5-21.5 0-12.825-8.675-21.325-8.676-8.5-21.5-8.5-12.825 0-21.325 8.675-8.5 8.676-8.5 21.5 0 12.825 8.675 21.325 8.676 8.5 21.5 8.5Zm123 0q12.825 0 21.325-8.675 8.5-8.676 8.5-21.5 0-12.825-8.675-21.325-8.676-8.5-21.5-8.5-12.825 0-21.325 8.675-8.5 8.676-8.5 21.5 0 12.825 8.675 21.325 8.676 8.5 21.5 8.5ZM604-510q-12.75 0-21.375 8.625T574-480q0 13.565 9.63 22.348 9.631 8.782 23.196 8.217 11.87 0 19.804-7.652 7.935-7.652 6.805-20.652.565-6-1.652-12.065-2.218-6.066-6.218-10.631-4-4-9.5-6.782Q610.565-510 604-510ZM140-180.782q-32.479 0-55.849-23.869-23.37-23.87-23.37-55.349v-440q0-32.479 23.37-56.131 23.37-23.653 55.849-23.653h680q32.479 0 56.131 23.653 23.653 23.652 23.653 56.131v217.782q0 18.522-16.24 27.218-16.239 8.696-33.761-.565-21.696-10.565-44.892-16.565-23.195-6-47.891-7.5v-.435.065q0-12.75-8.675-21.375-8.676-8.625-21.5-8.625-12.825 0-21.325 8.625T697-480v3.565q-46.951 8.174-87.41 31.87Q569.13-420.87 540.13-385H330q-12.75 0-21.375 8.675-8.625 8.676-8.625 21.5 0 12.825 8.625 21.325T330-325h172.435q-11.696 25.261-16.544 53.087-4.848 27.826-4.848 56.653 0 13.932-9.261 24.205-9.261 10.273-23.087 10.273H140Z"/></svg>