<svg xmlns="http://www.w3.org/2000/svg" width="48" height="48" viewBox="0 -960 960 960"><path d="M254.217-498.435q-11.826-11.826-11.826-27.783 0-15.956 11.826-27.783l198-198q6.131-6.695 13.109-9.543 6.978-2.848 14.674-2.848t14.674 2.848q6.978 2.848 13.109 9.543l198 198q11.826 11.827 11.826 27.783 0 15.957-11.826 27.783T678-486.609q-15.957 0-27.783-11.826L480-669.217 309.783-498.435Q297.957-486.609 282-486.891q-15.957-.283-27.783-11.544Zm0 265.436q-11.826-11.827-11.826-27.783 0-15.957 11.826-27.783l198-198q6.131-6.131 13.109-8.979 6.978-2.847 14.674-2.847t14.674 2.847q6.978 2.848 13.109 8.979l198 198q11.826 11.826 11.826 28.065 0 16.24-11.826 27.501-11.826 11.826-27.783 11.826t-27.783-11.826L480-403.216 309.783-232.999Q297.957-221.173 282-221.173t-27.783-11.826Z"/></svg>