<svg xmlns="http://www.w3.org/2000/svg" width="48" height="48" viewBox="0 -960 960 960"><path d="m307.74-481 170.782 170.217q11.826 11.826 11.544 27.783-.283 15.957-11.544 27.783-12.392 11.826-28.066 11.826t-27.5-11.826l-198-197.435q-6.13-6.13-9.261-13.391-3.13-7.261-3.13-14.957 0-7.696 3.13-14.957 3.131-7.261 9.261-13.391l198-197.435q11.826-11.826 27.783-11.826t27.783 11.826q11.826 11.826 11.826 27.783t-11.826 27.783L307.74-481Zm258.652 0 170.217 170.217q11.826 11.826 11.544 27.783-.283 15.957-11.544 27.783-12.391 11.826-28.065 11.826-15.674 0-27.501-11.826l-198-197.435q-6.13-6.13-9.261-13.391-3.13-7.261-3.13-14.957 0-7.696 3.13-14.957 3.131-7.261 9.261-13.391l198-197.435q11.827-11.826 27.783-11.826 15.957 0 27.783 11.826T748.435-679q0 15.957-11.826 27.783L566.392-481Z"/></svg>