<svg xmlns="http://www.w3.org/2000/svg" width="48" height="48" viewBox="0 -960 960 960"><path d="M264.217-477.217Q253.391-490.043 252.891-506t11.326-27.783l188-188q6.131-6.13 13.109-8.978T480-733.609q7.696 0 14.674 2.848t13.109 8.978l193 193q10.826 10.826 10.826 27.283t-11.826 28.283q-11.826 11.826-28.283 11.826t-28.283-11.826L480-636.434 320.783-477.217Q308.957-465.391 293-465.891t-28.783-11.326ZM270-230.391q-16.957 0-28.283-11.326T230.391-270q0-16.957 11.326-28.283T270-309.609h420q16.957 0 28.283 11.326T729.609-270q0 16.957-11.326 28.283T690-230.391H270Z"/></svg>