<svg xmlns="http://www.w3.org/2000/svg" width="48" height="48" viewBox="0 -960 960 960"><path d="M120-27h-10q-15.261 0-25.74-10.478-10.478-10.478-10.478-26.304 0-15.261 10.479-25.74Q94.739-100 110-100h10q24.304 0 47.891-7t47.587-24.435Q225.174-139 240-139q14.826 0 24.522 7.565 24 17.435 47.587 24.435 23.587 7 47.891 7 23.304 0 47.674-7.217 24.369-7.218 48.369-24.218Q466.174-138 480.5-138t24.022 6.565q24 17.435 47.587 24.152 23.587 6.718 47.891 6.718 23.304 0 47.674-6.935 24.369-6.935 47.804-23.935Q705.174-138 719.717-138q14.544 0 24.805 6.565 23.435 17 47.804 24.218Q816.696-100 840-100h10q15.261 0 25.739 10.478 10.479 10.479 10.479 25.74 0 15.826-10.479 26.304Q865.261-26.999 850-26.999h-10q-29 0-59.5-8.5T720-66.434Q690-44 659.5-35.5T600-27q-29 0-59.5-8.5T480-66.434Q450-44 419.5-35.5T360-27q-29 0-59.5-8.5T240-66.434Q210-44 179.5-35.5T120-27Zm240-169.565q-25.261 0-51.739-10.848-26.479-10.848-46.479-28.978 14.87-13.435 30.587-24.935 15.718-11.5 32.152-23.935l-63.173-121.913q-8.566-16.565-13.066-35.413-4.5-18.848-4.5-37.413v-160q0-31.826 22.479-54.022 22.478-22.196 53.739-22.196h120q30.87 0 59.674-9.5t54.804-25.934q12.696-8.131 27.522-6.848 14.826 1.282 25.522 11.978 11.261 11.261 10.478 25.587-.782 14.326-12.478 22.892-36.131 26.565-77.761 40.413Q486.13-643.782 440-643.782h-59.782v147.564h97.652q9.26 0 16.239 3.348 6.978 3.348 13.109 10.044l55.478 61.913q65.608-26.739 116.674-41.022 51.065-14.283 86.63-14.283 28.304 0 49.261 10.218 20.957 10.217 20.957 37 0 41-52.261 99.304-52.261 58.305-141.782 118.783-10.087 5.261-21.022 9.804-10.935 4.544-21.153 4.544-26.565 0-51.848-10.435-25.282-10.435-47.717-30.304-8-8.435-19.935-8.935-11.935-.5-19.935 7.935-23 20.869-48.5 31.304-25.5 10.435-52.065 10.435Zm31.391-134.044q18.87-11.435 48.283-27.826t53.586-29.826l-32.086-35.521-106.565 5 36.782 88.173ZM632.348-818.87 736.87-923.391q18.26 0 18.587 24.065.326 24.065-56.065 80.456-13.696 13.696-33.522 13.696t-33.522-13.696ZM320-770.391q-32.826 0-56.022-23.479-23.196-23.478-23.196-55.739 0-32.826 23.196-56.305 23.196-23.478 56.022-23.478 32.826 0 56.022 23.478 23.196 23.479 23.196 56.305 0 32.261-23.196 55.739-23.196 23.479-56.022 23.479Z"/></svg>