<svg xmlns="http://www.w3.org/2000/svg" width="48" height="48" viewBox="0 96 960 960"><path d="M320 1005.39q-87.576 0-149.158-61.744-61.582-61.748-61.582-149.558V407.521q-34.13-3.956-57.065-29.435-22.935-25.478-22.935-60.174v-80q0-37.522 26.577-64.413Q82.414 146.607 120 146.607h400q37.522 0 64.413 26.892 26.892 26.891 26.892 64.413v80q0 34.696-23.217 60.174-23.218 25.479-56.783 29.435v151.913q-36.479 21.565-62.131 56.218-25.653 34.652-36.087 76.566H350q-15.506 0-26.427-10.972t-10.921-26.552q0-16.216 10.921-26.977T350 616.956h106.043v-60H350q-15.506 0-26.427-10.972-10.921-10.971-10.921-26.552 0-16.216 10.921-26.977T350 481.694h106.043v-73.042H184.522v385.436q0 57.203 39.401 96.623 39.402 39.42 95.851 39.42 41.661 0 74.378-21.282 32.718-21.283 49.152-56.848 8.826 18.826 20.718 35.869 11.891 17.044 26.848 31.609-29.696 39.957-73.86 62.935-44.164 22.976-97.01 22.976Zm115-177.911h-85q-15.506 0-26.427-10.971-10.921-10.972-10.921-26.552 0-16.216 10.921-26.977T350 752.218h72.652q-.435 18.956 2.761 37.913 3.196 18.957 9.587 37.348Zm224.859 28.912q41.913 0 71.222-29.169 29.31-29.168 29.31-71.081 0-41.913-29.169-71.222-29.168-29.31-71.081-29.31-41.913 0-71.222 29.169-29.31 29.168-29.31 71.081 0 41.913 29.169 71.222 29.168 29.31 71.081 29.31Zm.141 79.218q-75.073 0-127.341-52.302-52.268-52.303-52.268-127.425 0-75.121 52.302-127.306 52.303-52.185 127.425-52.185 75.121 0 127.306 52.268T839.609 756q0 25.786-7.293 49.545-7.294 23.759-20.881 45.759l80.348 80.913q11.826 11.826 11.826 27.783t-11.826 27.783Q879.957 999.609 864 999.609t-27.783-11.826l-80.913-80.348q-22 13.587-45.759 20.881-23.759 7.293-49.545 7.293Z"/></svg>