<svg xmlns="http://www.w3.org/2000/svg" width="48" height="48" viewBox="0 96 960 960"><path d="M394 639.61 169.783 863.827Q157.522 876.653 140 876.653q-17.522 0-29.783-12.826-12.26-12.261-12.26-29.783 0-17.522 12.26-29.783l256-256q11.826-11.826 27.783-11.826t27.783 11.826l131.652 132.652 82.825-93.261-239.956-236.304L169.783 577.87Q157.522 590.696 140 590.696q-17.522 0-29.783-12.826-12.26-12.261-12.26-29.501 0-17.239 12.26-30.065l255.435-255.435q11.826-11.826 28.065-11.544 16.24.283 28.066 11.674l268.043 263.957 134.826-150.695q10.261-11.826 27-12.826t29.131 10.826q10.826 10.826 11.609 26.783.782 15.957-9.479 27.783L745.827 583.218l133.086 131.043q11.261 11.826 10.979 28.566-.283 16.739-11.544 28-12.391 11.391-29.413 11.891t-28.283-11.456L692.261 643.914 582.913 767.827q-11.391 12.826-28.848 13.609-17.456.782-29.848-11.609L394 639.61Z"/></svg>