<svg xmlns="http://www.w3.org/2000/svg" width="48" height="48" viewBox="0 -960 960 960"><path d="M838.087-703q0-73.604-50.742-124.345Q736.604-878.087 663-878.087q-11.612 0-19.284-7.882-7.673-7.881-7.673-19.669 0-11.102 7.84-19.015t19.682-7.913q95.313 0 162.157 66.844 66.844 66.844 66.844 161.906 0 11.988-7.883 19.881-7.884 7.892-19.327 7.892-11.443 0-19.356-7.673-7.913-7.672-7.913-19.284Zm-98.739 0q0-31.682-22.333-54.015-22.333-22.333-54.015-22.333-11.405 0-19.181-8.079-7.776-8.08-7.776-20.124 0-11.579 7.749-19.493 7.749-7.913 19.466-7.913 54.715 0 93.207 38.492 38.492 38.492 38.492 93.207 0 11.717-7.913 19.466-7.914 7.749-19.776 7.749t-19.891-7.776q-8.029-7.776-8.029-19.181ZM480-437ZM145.087-105.869q-32.507 0-55.862-23.356-23.356-23.355-23.356-55.862v-502.826q0-31.74 23.356-55.762 23.355-24.021 55.862-24.021h134.565l55.565-62.609q10.826-12.696 25.653-18.544 14.826-5.847 31.652-5.847h163.912q16.707 0 28.158 11.833 11.451 11.834 11.451 28.566t-11.451 28.058q-11.451 11.326-28.158 11.326H392.522l-79.783 87H145.087v502.826h669.826v-411.347q0-16.707 11.501-28.158 11.502-11.451 28.234-11.451t28.39 11.451q11.658 11.451 11.658 28.158v411.347q0 32.507-24.021 55.862-24.022 23.356-55.762 23.356H145.087Zm334.28-157.74q74.329 0 124.177-49.714 49.847-49.715 49.847-123.761 0-74.046-49.714-123.677-49.715-49.63-123.761-49.63-74.046 0-123.677 49.45-49.63 49.45-49.63 123.308 0 74.329 49.45 124.177 49.45 49.847 123.308 49.847Zm.133-71.304q-44.109 0-72.848-29.239-28.739-29.239-28.739-73.348 0-44.109 28.739-73.13 28.739-29.022 72.848-29.022 44.109 0 73.63 29.022 29.522 29.021 29.522 73.13 0 44.109-29.522 73.348-29.521 29.239-73.63 29.239Z"/></svg>