<svg xmlns="http://www.w3.org/2000/svg" width="48" height="48" viewBox="0 96 960 960"><path d="M145.087 990.131q-32.507 0-55.862-23.356-23.356-23.355-23.356-55.862V241.087q0-32.74 23.356-56.262 23.355-23.521 55.862-23.521h669.826q32.74 0 56.262 23.521 23.521 23.522 23.521 56.262v669.826q0 32.507-23.521 55.862-23.522 23.356-56.262 23.356H145.087ZM278.87 815h402.26q34.798 0 55.79-20.597 20.993-20.597 20.993-55.621V585q0-29.13-16-51.208t-38-33.749v-37.521q0-49.826-34.979-84.805-34.978-34.978-84.804-34.978H375.87q-49.826 0-84.804 34.978-34.979 34.979-34.979 84.805v38.521q-22 11.671-38 33.749-16 22.078-16 51.208v152.782q0 35.024 20.993 55.621Q244.072 815 278.87 815Zm.204-56.218q-8.204 0-14.204-6.077-6-6.078-6-14.205V585q0-19 11.5-30.5t30.5-11.5q19 0 30.5 11.5t11.5 30.5v95.218h274.26V585q0-19 11.5-30.5t30.5-11.5q19 0 30.5 11.5t11.5 30.5v153.5q0 8.127-6 14.205-6 6.077-14 6.077H279.074ZM399.088 624v-38q0-42.522-26.609-67.435-26.609-24.913-59.609-26.122v-29.921q0-27 18-45t45-18h208.26q27 0 45 18t18 45v29.921q-33 1.209-59.609 26.122T560.912 586v38H399.088Z"/></svg>