<svg xmlns="http://www.w3.org/2000/svg" width="48" height="48" viewBox="0 -960 960 960"><path d="M108.478-65.869q-17.957 0-30.283-12.326T65.87-108.478v-307.044q0-17.886 12.326-30.53 12.326-12.644 30.283-12.644H231.87V-650q0-102.747 72.409-173.722 72.41-70.974 175.722-70.974h173q100.747 0 171.222 71.974Q894.696-750.747 894.696-650v544.522q0 16.957-11.658 28.283T854.472-65.87q-16.907 0-28.233-11.326t-11.326-28.283v-75.391H640.696v72.391q0 19.522-15.144 31.066-15.144 11.543-35.03 11.543H108.478ZM353-259.739l-171.638-99.174q-12.137-7-24.206 0-12.069 7-12.069 21 0 7 3.218 12.5 3.217 5.5 8.782 8.5l176.391 99.783q9.027 5.695 19.504 5.695 10.477 0 19.54-5.695l176.391-99.783q5-3 8.5-8.5t3.5-12.5q0-14-12.069-21t-24.206 0L353-259.739Zm287.696-.348h174.217v-389.917q0-68.3-46.737-116.605Q721.438-814.913 653-814.913H480q-69.739 0-119.326 47.587Q311.087-719.739 311.087-650v191.304h279.435q19.886 0 35.03 11.826 15.144 11.826 15.144 31.348v155.435ZM430-576.13q-13 0-21.5-8.5t-8.5-21.5q0-13 8.5-21.5t21.5-8.5h266q13 0 21.5 8.5t8.5 21.5q0 13-8.5 21.5t-21.5 8.5H430Z"/></svg>