<svg xmlns="http://www.w3.org/2000/svg" width="48" height="48" viewBox="0 -960 960 960"><path d="M225.09-65.87q-33.26 0-56.24-22.98-22.98-22.98-22.98-56.24v-669.82q0-33.49 22.98-56.64t56.24-23.15h509.82q33.49 0 56.64 23.15t23.15 56.64v669.82q0 33.26-23.15 56.24-23.15 22.98-56.64 22.98H225.09Zm388.74-193.21q55.08-54.99 55.08-133.82 0-78.84-54.99-133.93-54.99-55.08-133.82-55.08-78.84 0-133.93 54.99-55.08 54.99-55.08 133.82 0 78.84 54.99 133.93 54.99 55.08 133.82 55.08 78.84 0 133.93-54.99ZM480-292.04q-20.99 0-40.66-7.44-19.68-7.43-35.12-21.74l146.56-146.56q15.87 13.87 23.02 33.42 7.16 19.55 7.16 41.3 0 41.95-29.42 71.48-29.42 29.54-71.54 29.54ZM312.94-695q14.8 0 24.43-9.88 9.63-9.89 9.63-24.25 0-14.52-10.09-24.15-10.09-9.63-24.32-9.63-14.24 0-23.87 9.8-9.63 9.81-9.63 24.05 0 14.23 9.8 24.15 9.81 9.91 24.05 9.91Zm166.34-10.09q9.63-10.09 9.63-24.32 0-14.24-9.8-23.87-9.81-9.63-24.33-9.63-14.52 0-24.15 9.8-9.63 9.81-9.63 24.05 0 14.23 9.81 24.15 9.8 9.91 24.32 9.91t24.15-10.09Z"/></svg>