<svg xmlns="http://www.w3.org/2000/svg" width="48" height="48" viewBox="0 -960 960 960"><path d="M480-88.13q-12.13 0-24.33-4.07-12.19-4.06-21.32-12.63-45.39-39.13-96.09-89.19-50.7-50.07-93.54-107.91-42.85-57.85-70.85-121.83-28-63.98-28-129.94 0-40.26 6.78-75.74 6.78-35.47 20.91-67.73L47-824.74q-9.57-9.56-9.85-22.98-.28-13.41 9.85-23.54 10.13-10.13 23.76-10.13t23.76 10.13l769.52 768.52q9.57 10.13 9.07 23.48t-10.63 23.48q-10.13 10.13-23.26 10.13t-22.7-10.13L647.91-223.83q-27.13 29.57-57.76 59.85t-63.93 59.15q-9.7 8.57-21.89 12.63-12.2 4.07-24.33 4.07Zm0-806.57q132.09 0 233.39 92.68Q814.7-709.35 814.7-553.7q0 40.74-12.81 82.63-12.8 41.9-37.85 87.37-9.56 22.22-33.78 25.63-24.22 3.42-41.74-14.1L539.35-521.35q6.3-7.3 10.74-17.11 4.43-9.8 4.43-21.54 0-16.13-5.56-29.2-5.57-13.06-16.13-23.63-10.57-10.56-23.63-16.13-13.07-5.56-29.2-5.56-11.74 0-21.54 4.43-9.81 4.44-17.11 10.74L297.61-762.52q-17.96-17.96-15.33-41.89 2.63-23.94 22.85-36.63 38.17-25.61 82.72-39.63Q432.39-894.7 480-894.7Z"/></svg>