<svg xmlns="http://www.w3.org/2000/svg" width="48" height="48" viewBox="0 -960 960 960"><path d="M483-775.218q-24 0-41.5-17.5T424-833.856q0-17.019 7.435-29.691 7.435-12.671 36.608-45.714 6.526-6.696 14.816-6.696 8.289 0 15.098 6.696 29.173 33.043 36.608 45.604Q542-851.097 542-833.856q0 23.638-17.5 41.138-17.5 17.5-41.5 17.5Zm-211 0q-24 0-41.5-17.5T213-833.856q0-17.019 7.435-29.691 7.435-12.671 36.608-45.714 6.526-6.696 14.816-6.696 8.289 0 15.098 6.696 29.173 33.043 36.608 45.604Q331-851.097 331-833.856q0 23.638-17.5 41.138-17.5 17.5-41.5 17.5Zm420 0q-24 0-41.5-17.5T633-833.856q0-17.019 7.435-29.691 7.435-12.671 36.608-45.714 6.526-6.696 14.816-6.696 8.289 0 15.098 6.696 29.173 33.043 36.608 45.604Q751-851.097 751-833.856q0 23.638-17.5 41.138-17.5 17.5-41.5 17.5ZM201.13-110.999v36.651q0 19.729-13.878 33.539Q173.373-27 153.547-27q-20.156 0-33.917-14.234-13.761-14.234-13.761-33.68V-385.13q0-5.798.782-12.16.783-6.362 3.348-12.493l76.87-232.043q7.696-24.653 28.25-39.327 20.555-14.674 46.272-14.674h437.218q25.717 0 46.272 14.674 20.554 14.674 28.815 39.327l76.305 232.043q2.565 6.131 3.63 12.493t1.065 12.16v310.783q0 19.728-14.004 33.538Q826.687-27 806.681-27q-19.724 0-34.268-14.526Q757.87-56.05 757.87-75.913v-35.086H201.13Zm8.088-344.131h542.13l-53.305-160.913H261.957L209.218-455.13Zm79.373 217.173q22.67 0 38.453-15.75 15.782-15.75 15.782-38.25 0-23.333-16.032-39.666-16.033-16.334-37.968-16.334-23.898 0-39.949 16.265t-16.051 39.5q0 23.235 15.982 38.735t39.783 15.5Zm384.148 0q23.333 0 39.667-15.75 16.333-15.75 16.333-38.25 0-23.333-16.265-39.666-16.264-16.334-39.5-16.334-23.235 0-38.735 16.265t-15.5 39.5q0 23.235 15.75 38.735t38.25 15.5Z"/></svg>