<svg xmlns="http://www.w3.org/2000/svg" width="48" height="48" viewBox="0 0 48 48"><path d="M17.5 24.4ZM3.3 42.7V17.65L20 5.1l12.75 9.55q-1.35-.1-2.65.2-1.3.3-2.4.95L20 10.05 7.25 19.6v19.15h9.5q-.05.15-.05.3v3.65Zm16.4 0v-4.1q0-1.15.55-2.15t1.55-1.6q2.3-1.35 4.9-2.075 2.6-.725 5.3-.725 2.7 0 5.3.725 2.6.725 4.9 2.075 1 .6 1.55 1.6t.55 2.1v4.15Zm4.05-3.45H40.3V37.8q-1.95-1.05-4.05-1.65-2.1-.6-4.25-.6-2.2 0-4.25.625t-4 1.675ZM32 30.3q-2.6 0-4.45-1.825T25.7 24q0-2.6 1.825-4.45T32 17.7q2.6 0 4.45 1.825T38.3 24q0 2.6-1.825 4.45T32 30.3Zm0-3.45q1.2 0 2.025-.825T34.85 24q0-1.2-.825-2.025T32 21.15q-1.2 0-2.025.825T29.15 24q0 1.2.825 2.025T32 26.85Zm.05 12.4Z"/></svg>