<svg xmlns="http://www.w3.org/2000/svg" width="48" height="48" viewBox="0 96 960 960"><path d="M227.476 908.001q-50.78 0-86.693-34.283t-37.044-83.717h-6q-31.533-1.696-51.136-24.126-19.604-22.429-19.604-55.093V322.218q0-32.507 23.356-55.863t55.863-23.356h499.781q31.533 0 49.441 26.669t29.778 52.55v80.998h80.956q9.761 0 17.765 4.131 8.004 4.13 13.583 11.826l127.783 169.479q3.565 5.092 5.63 11.132 2.066 6.039 2.066 13.086v137.521q0 16.707-11.452 28.158-11.451 11.452-28.158 11.452h-38.173q-1.696 49.434-37.359 83.717-35.662 34.283-86.608 34.283-50.947 0-86.86-34.283t-37.043-83.717H351.044q-1.696 49.434-37.242 83.717t-86.326 34.283Zm-.085-66.783q24 0 41-17t17-41q0-24-17-41t-41-17q-24 0-41 17t-17 41q0 24 17 41t41 17Zm-121.173-519v388.564h24.457q16.804-24.173 41.656-38.478Q197.184 658 226.375 658q29.19 0 54.546 14.451 25.355 14.451 41.818 38.331h283.26V322.218H106.218Zm624.782 519q24 0 41-17t17-41q0-24-17-41t-41-17q-24 0-41 17t-17 41q0 24 17 41t41 17ZM685.218 631h172.434l-111-148h-61.434v148ZM356.609 516Z"/></svg>