<svg xmlns="http://www.w3.org/2000/svg" width="48" height="48" viewBox="0 -960 960 960"><path d="M480-88.13q-12.13 0-24.326-4.065t-21.326-12.631q-45.392-39.13-96.088-89.195-50.695-50.066-93.543-107.913-42.848-57.848-70.848-121.827-28-63.978-28-129.935 0-40.261 6.782-75.739 6.783-35.478 20.914-67.739L47-824.739q-9.565-9.565-9.848-22.978Q36.87-861.13 47-871.261q10.13-10.13 23.761-10.13 13.63 0 23.761 10.13l769.522 768.522q9.565 10.13 9.065 23.478t-10.63 23.479q-10.131 10.13-23.261 10.13-13.131 0-22.696-10.13L647.913-223.826q-27.13 29.566-57.761 59.848-30.63 30.283-63.934 59.152-9.696 8.566-21.892 12.63Q492.13-88.13 480-88.13Zm253.392-239.174L539.348-521.348q6.304-7.304 10.739-17.109 4.435-9.804 4.435-21.543 0-31.261-21.631-52.891-21.63-21.631-52.891-21.631-11.739 0-21.543 4.435-9.805 4.435-17.109 10.739L253.739-806.392q46.131-42.87 104.413-65.587Q416.435-894.696 480-894.696q132.087 0 233.392 92.674 101.304 92.674 101.304 248.326 0 53.826-19.934 109.892-19.935 56.065-61.37 116.5Z"/></svg>