<svg xmlns="http://www.w3.org/2000/svg" width="48" height="48" viewBox="0 96 960 960"><path d="M395 737h58v15q0 12.75 8.675 21.375 8.676 8.625 21.5 8.625 12.825 0 21.325-8.625T513 752v-15h48q15 0 24.5-12t9.5-27V583.255q0-16.255-9.5-27.755T561 544H425v-69h140q12.75 0 21.375-8.675 8.625-8.676 8.625-21.5 0-12.825-8.625-21.325T565 415h-52v-15q0-12.75-8.675-21.375-8.676-8.625-21.5-8.625-12.825 0-21.325 8.625T453 400v15h-49q-15 0-27 12t-12 28.117v113.766Q365 585 377 594.5t27 9.5h131v73H395q-12.75 0-21.375 8.675-8.625 8.676-8.625 21.5 0 12.825 8.625 21.325T395 737ZM145.087 910.131q-32.507 0-55.862-23.356-23.356-23.355-23.356-55.862V321.087q0-32.74 23.356-56.262 23.355-23.521 55.862-23.521h669.826q33.49 0 56.637 23.521 23.146 23.522 23.146 56.262v509.826q0 32.507-23.146 55.862-23.147 23.356-56.637 23.356H145.087Zm0-79.218V321.087v509.826Zm0 0h669.826V321.087H145.087v509.826Z"/></svg>