<svg xmlns="http://www.w3.org/2000/svg" width="48" height="48" viewBox="0 -960 960 960"><path d="m480-427.609 82.435 61.87q5.565 4.13 11.478.565 5.913-3.565 3.913-10.826l-34.435-102.21 85.87-61.094q6.13-4.131 3.976-11.326-2.154-7.196-9.107-7.196H520.397l-31.136-99.304q-2.565-6.696-9.261-6.696t-9.261 6.696l-31.136 99.304H336.435q-6.743 0-9.002 7.196-2.259 7.195 3.871 11.326l83.305 61.084-34.87 101.633q-2.565 7.283 3.348 11.348t12.043.5l84.87-62.87Zm0 357.175q-6.696 0-12.891-1.283-6.196-1.282-12.327-3.848-141.826-47-225.37-173.641Q145.869-375.848 145.869-523v-192.043q0-25.218 14.109-46.088t37.326-29.565l254.913-95.305q13.826-5.13 27.783-5.13t27.783 5.13l254.913 95.305q23.217 8.695 37.609 29.565 14.391 20.87 14.391 46.088V-523q0 147.152-83.826 273.794-83.826 126.641-225.652 173.641-6.131 2.566-12.327 3.848-6.195 1.283-12.891 1.283Zm0-77.088q112.174-40.826 183.543-143.783 71.37-102.956 71.37-231.529v-192.209L480-811.348 225.087-714.77v191.673q0 128.836 71.37 231.792Q367.826-188.348 480-147.522Zm0-331.913Z"/></svg>