<svg xmlns="http://www.w3.org/2000/svg" width="48" height="48" viewBox="0 96 960 960"><path d="M766.001 815.479q27.916 0 47.458-19.559 19.542-19.559 19.542-47.5t-19.542-46.941q-19.542-19-47.458-19-27.5 0-46.75 19.353t-19.25 47q0 27.647 19.25 47.147t46.75 19.5Zm-.215 133q33.215 0 62.215-15.5t47-42.5q-25.435-14-52.621-22.5-27.186-8.5-56.379-8.5-28.435 0-55.718 8.5-27.282 8.5-53.282 22.5 18 27 46.785 42.5 28.786 15.5 62 15.5ZM359.609 406.173h234.564v-80.564q0-53.044-33.834-87.087-33.834-34.043-83.597-34.043-49.528 0-83.33 34.043-33.803 34.043-33.803 87.087v80.564Zm213.783 582.828H222.261q-31.74 0-55.762-23.856-24.022-23.856-24.022-55.363V485.957q0-31.74 24.022-55.762 24.022-24.022 55.762-24.022h58.13v-80.564q0-86.28 56.56-143.597 56.56-57.317 139.522-57.317 82.962 0 139.94 57.696 56.978 57.696 56.978 143.218v80.564h58.13q31.74 0 55.762 24.022 24.022 24.022 24.022 55.762v90.391q-16.957-3.565-37.175-3.717-20.217-.152-42.609 2.109v-88.783h-509.26v423.825h308.348q6.435 20.957 16.696 40.675 10.261 19.717 26.087 38.544Zm192.609 29.479q-79 0-136-57.001-57-57-57-136t57-136q57-57 136-57t136 57q57 57 57 136t-57 136q-57 57.001-136 57.001Zm-543.74-532.523v423.825-423.825Z"/></svg>