<svg xmlns="http://www.w3.org/2000/svg" width="48" height="48" viewBox="0 96 960 960"><path d="M391.468 779H535q28.522 0 47.37-18.848t18.848-47.37V607.391q0-28.521-18.848-47.652-18.848-19.13-47.37-19.13H425V439.218h144.323q13.199 0 22.547-9.306 9.348-9.305 9.348-23.521 0-14.695-9.066-24.043Q583.087 373 568.59 373H391.41q-14.497 0-23.562 9.348-9.066 9.348-9.066 24.143v167.41q0 14.795 9.066 24.143 9.065 9.347 23.62 9.347H535v105.391H390.609q-13.203 0-22.515 9.306-9.312 9.305-9.312 23.521 0 14.695 9.066 24.043 9.065 9.348 23.62 9.348ZM185.087 950.131q-32.507 0-55.862-23.356-23.356-23.355-23.356-55.862V281.087q0-31.74 23.356-55.762 23.355-24.021 55.862-24.021h589.826q31.74 0 55.762 24.021 24.021 24.022 24.021 55.762v589.826q0 32.507-24.021 55.862-24.022 23.356-55.762 23.356H185.087Z"/></svg>