<svg xmlns="http://www.w3.org/2000/svg" width="48" height="48" viewBox="0 -960 960 960"><path d="M535-277q28.522 0 47.37-18.848t18.848-47.37v-105.391q0-28.521-18.848-47.652-18.848-19.13-47.37-19.13H425v-101.391h143.173q14.099 0 23.572-9.634 9.473-9.633 9.473-23.874 0-14-9.438-23.355Q582.343-683 568.391-683h-170q-16.706 0-28.157 11.451-11.452 11.451-11.452 28.158v155.173q0 16.707 11.452 28.158 11.451 11.451 28.157 11.451H535v105.391H391.609q-13.952 0-23.389 9.474-9.438 9.474-9.438 23.478 0 14.005 9.6 23.636 9.6 9.63 23.792 9.63H535ZM185.087-105.869q-32.507 0-55.862-23.356-23.356-23.355-23.356-55.862v-589.826q0-32.74 23.356-56.262 23.355-23.521 55.862-23.521h589.826q32.74 0 56.262 23.521 23.521 23.522 23.521 56.262v589.826q0 32.507-23.521 55.862-23.522 23.356-56.262 23.356H185.087Zm0-79.218h589.826v-589.826H185.087v589.826Zm0-589.826v589.826-589.826Z"/></svg>