<svg xmlns="http://www.w3.org/2000/svg" width="48" height="48" viewBox="0 96 960 960"><path d="M568.567 779q14.506 0 23.578-9.36 9.073-9.36 9.073-24.145V405.391q0-13.478-9.491-22.934Q582.236 373 568.206 373q-14.51 0-23.858 9.36T535 406.672v133.937H425V405.391q0-13.478-9.651-22.934-9.65-9.457-23.916-9.457-14.506 0-23.578 9.36-9.073 9.36-9.073 24.131v167.41q0 14.771 9.198 24.131 9.197 9.359 23.488 9.359H535v139.218q0 13.478 9.651 22.934 9.65 9.457 23.916 9.457Zm-383.48 171.131q-32.507 0-55.862-23.356-23.356-23.355-23.356-55.862V281.087q0-31.74 23.356-55.762 23.355-24.021 55.862-24.021h589.826q31.74 0 55.762 24.021 24.021 24.022 24.021 55.762v589.826q0 32.507-24.021 55.862-24.022 23.356-55.762 23.356H185.087Zm0-79.218h589.826V281.087H185.087v589.826Zm0-589.826v589.826-589.826Z"/></svg>