<svg xmlns="http://www.w3.org/2000/svg" width="48" height="48" viewBox="0 -960 960 960"><path d="M535-277q28.52 0 47.37-18.85 18.85-18.85 18.85-47.37v-105.39q0-28.52-18.85-47.65T535-515.39H425v-101.39h143.33q14.19 0 23.54-9.57t9.35-23.76q0-14.19-9.31-23.54-9.3-9.35-23.52-9.35h-170q-16.96 0-28.28 11.33-11.33 11.32-11.33 28.28v155.17q0 16.96 11.33 28.29 11.32 11.32 28.28 11.32H535v105.39H391.61q-14.22 0-23.52 9.29-9.31 9.29-9.31 23.48 0 14.19 9.59 23.82t23.8 9.63H535ZM185.09-105.87q-32.51 0-55.87-23.35-23.35-23.36-23.35-55.87v-589.82q0-32.74 23.35-56.26 23.36-23.53 55.87-23.53h589.82q32.74 0 56.26 23.53 23.53 23.52 23.53 56.26v589.82q0 32.51-23.53 55.87-23.52 23.35-56.26 23.35H185.09Z"/></svg>