<svg xmlns="http://www.w3.org/2000/svg" width="48" height="48" viewBox="0 -960 960 960"><path d="M144.522-494.565q0 86.869 59.391 144.239 59.391 57.369 137.913 55.674h.565l-31.869-32.304q-8-9-7.152-21.848.848-12.848 14.935-26.935 11.826-12.391 27.783-12.674 15.957-.283 28.348 12.109l88.348 91.347q11.391 12.032 11.608 28.451.218 16.419-11.608 28.246l-94.739 94.608q-12.392 12.392-28.631 12.109-16.24-.283-30.892-15.5-10.261-9.696-10.478-23.892-.218-14.195 9.478-24.891l28.738-30.739q-109.434 1.696-189.913-78.478-80.478-80.174-80.478-199.522 0-114.653 75.186-197.109 75.187-82.457 183.64-82.457H459.13q16.905 0 28.257 11.501 11.353 11.502 11.353 28.422 0 17.486-11.353 28.39-11.352 10.905-28.257 10.905H324.695q-75.449 0-127.811 58.804-52.362 58.805-52.362 141.544Zm477.827 199.347h232.738q16.905 0 28.257 11.502t11.352 28.422q0 16.92-11.352 27.825-11.352 10.904-28.257 10.904H621.784q-16.34 0-27.692-11.501-11.352-11.502-11.352-28.422t11.451-27.825q11.451-10.905 28.158-10.905Zm1-239.956h231.738q16.905 0 28.257 11.501 11.352 11.502 11.352 28.422t-11.352 28.608q-11.352 11.687-28.257 11.687H621.784q-16.34 0-27.692-11.703-11.352-11.704-11.352-29.488 0-17.218 11.738-28.123 11.739-10.904 28.871-10.904Zm-25-238.957h256.738q16.905 0 28.257 11.501 11.352 11.502 11.352 28.422 0 17.486-11.352 28.39-11.352 10.905-28.257 10.905H597.784q-16.34 0-27.692-11.501-11.352-11.502-11.352-28.422t11.451-28.108q11.451-11.187 28.158-11.187Z"/></svg>