<svg xmlns="http://www.w3.org/2000/svg" width="48" height="48" viewBox="0 -960 960 960"><path d="M224.738-397.565h176.958v-70.739H224.738v70.739Zm535.045-74.347q-48.044 0-81.74-33.884-33.695-33.884-33.695-81.886 0-47.767 33.849-81.368 33.85-33.602 81.803-33.602 11.205 0 22.412 2.314 11.207 2.313 21.936 6.99v-219.304h161.304v70.74h-90v254.347q0 47.953-33.913 81.803-33.913 33.85-81.956 33.85Zm-535.045-52.436h296.958v-71.304H224.738v71.304Zm0-127.348h296.958v-71.305H224.738v71.305Zm13.001 422.436L62.477-53.433v-758.088q0-33.49 22.981-56.637t56.238-23.147h463.042q33.49 0 56.637 23.147t23.147 56.637v55.608q-50.087 24-80.131 70.392-30.043 46.391-30.043 102.761 0 53.544 30.973 97.447 30.974 43.903 79.201 66.662v110.172q0 33.257-23.147 56.238t-56.637 22.981H237.739Z"/></svg>