<svg xmlns="http://www.w3.org/2000/svg" width="48" height="48" viewBox="0 -960 960 960"><path d="M820.697-259.565 685.566-394.696q30.826-16.797 64.195-26.985 33.37-10.189 70.066-14.754 8.6-1 16.723 2.104 8.122 3.104 14.471 9.311 5.642 6.208 8.529 14.377 2.886 8.168 1.886 16.817-3.435 35.435-13.652 69.131-10.217 33.696-27.087 65.13Zm-135.262 53.696-53.282-52q-20.525 24.435-36.811 53.435-16.285 29-27.341 62.435 34.434-11 63.434-26.718 29-15.717 54-37.152Zm52.044 51.479q-52.391 46.696-118.08 73.543Q553.71-53.999 480-53.999q0-74.275 26.565-139.964t73.261-118.08l-64.043-63.478q-7.565 2-15.696 3-8.13 1-16.13 1-40.392 1.13-73.066-21.783t-47.684-61.305q-6.12 0-12.903.5t-13.348.5q-51.391 0-87.652-36.261-36.261-36.26-36.261-87.652 0-20.298 6.888-38.751t18.938-35.162L90.173-800.131q-9.565-9.641-9.348-23.234.218-13.592 10.25-23.723 9.794-10.13 23.261-10.13 13.467 0 23.359 10.13l726.393 725.393q9.565 9.941 9.348 23.666-.218 13.725-10.25 23.856-10.032 10.13-22.978 10.13-12.946 0-23.077-10.13l-79.652-80.217ZM480-948.262q39.826 0 71.087 22.913 31.261 22.913 45.678 60.174 6.148 0 12.931-.5 6.783-.5 13.348-.5 51.132 0 87.023 36.482 35.89 36.482 35.89 87.754 0 22.373-8.565 43.286t-23.13 39.044q14.967 17.932 23.331 38.585 8.364 20.652 8.364 43.502 0 49.131-32.934 84.544-32.935 35.413-81.5 38.239h-6L449.826-631.001l-72.391-70.826q6.257-15.886 16.063-29.247t24.241-23.796l-42.378-30.945q-7.187-5.186-15.08-7.686-7.892-2.5-17.484-2.5-11.76 0-22.344 4.652-10.583 4.653-18.26 12.957l-51.802-50.479q21.021-22.524 51.425-29.849 30.403-7.325 61.836-6.455 14-37.261 45.261-60.174 31.261-22.913 71.087-22.913Zm137.591 425.044q23.267 0 40.099-16.922 16.832-16.923 16.832-40.74 0-17.033-9-30.099-9-13.065-23.85-21.065l-48.211-23q-2.635 14.565-6.461 26.867-3.826 12.303-9.933 23.816-6.175 11.683-14.708 21.565-8.533 9.883-20.098 17.883l42.785 30.945q7.074 5.185 14.727 7.968 7.653 2.782 17.818 2.782Zm-24.2-141.522 48.263-23q14.868-7.434 23.651-21.418 8.782-13.984 8.782-29.612 0-23.432-16.171-40.331-16.172-16.9-40.74-16.9-9.567 0-17.125 2.61-7.558 2.609-15.399 7.263l-44.391 31.258q11.565 8 20.565 17.6 9 9.6 15 20.965 7.565 11 11.283 23.783 3.717 12.782 6.282 27.782Zm-163.145-96.261q14.189-6 26.871-9 12.682-3 22.883-3 10 0 22.783 3 12.782 3 27.347 9l7-62.565q2.566-21.565-15.924-36.348-18.489-14.782-40.63-14.782-22.141 0-40.924 14.907-18.782 14.908-16.217 35.94l6.811 62.848Zm50.244 142.435q16.814 0 28.966-12.36 12.153-12.359 12.153-29.173t-12.15-28.967q-12.149-12.152-29.588-12.152-16.314 0-28.614 12.149-12.3 12.15-12.3 29.589 0 16.314 12.359 28.614 12.36 12.3 29.174 12.3Zm96.336 14.087Zm-1-111.826ZM480-773.001Zm0 719.002q0-151.87-93.783-251.87Q292.435-405.87 150.005-431.39q-10.742-2.045-19.548 1.803-8.806 3.848-15.502 10.261-6.786 6.813-9.523 15.631-2.738 8.818-.779 19.744 26.041 143.518 123.759 236.735Q326.13-53.999 480-53.999Zm-88.001-88q-80-25.435-133-78.605t-79-133.395q80 26.565 132.718 79.782 52.717 53.218 79.282 132.218Zm176.002 0Zm-176.002 0Z"/></svg>