<svg xmlns="http://www.w3.org/2000/svg" width="48" height="48" viewBox="0 0 48 48"><path d="M7.25 40.7q-1.6 0-2.775-1.175Q3.3 38.35 3.3 36.75v-25.5q0-1.6 1.175-2.8 1.175-1.2 2.775-1.2h33.5q1.6 0 2.8 1.2 1.2 1.2 1.2 2.8v25.5q0 1.6-1.2 2.775-1.2 1.175-2.8 1.175ZM28 24v2.5q0 .85.575 1.425.575.575 1.425.575.85 0 1.425-.575Q32 27.35 32 26.5V24h2.5q.85 0 1.425-.575.575-.575.575-1.425 0-.85-.575-1.425Q35.35 20 34.5 20H32v-2.5q0-.85-.575-1.425Q30.85 15.5 30 15.5q-.85 0-1.425.575Q28 16.65 28 17.5V20h-2.5q-.85 0-1.425.575Q23.5 21.15 23.5 22q0 .85.575 1.425Q24.65 24 25.5 24Z"/></svg>