<svg xmlns="http://www.w3.org/2000/svg" width="48" height="48" viewBox="0 -960 960 960"><path d="M480-521.913 192.566-704.695q-15.261-9.696-31.37-.873t-16.109 27.365q0 8.302 4.065 14.362 4.066 6.059 10.196 10.625l299 194.347q9.902 6.696 21.473 6.696 11.57 0 21.831-6.696l299-194.347q6.13-4.566 10.196-10.593 4.065-6.028 4.065-14.057 0-18.597-16.109-27.561-16.109-8.964-31.37.732L480-521.913Zm289.522 376.044q-14 0-24.5-10.217-10.5-10.218-10.5-24.783v-120q0-14.875 12-24.937 12-10.063 28-10.063v-45q0-30.372 22.044-52.686t53-22.314q30.956 0 52.956 22.314 22 22.314 22 52.686v45q16 0 28 10.063 12 10.062 12 24.937v120q0 14.565-10.217 24.783-10.218 10.217-24.783 10.217h-160Zm35-190h90v-44.912q0-18.523-12.912-31.805-12.913-13.283-32-13.283-19.088 0-32.088 13.22t-13 31.78v45Zm-656.435 190q-33.901 0-58.06-22.652-24.158-22.653-24.158-56.566v-509.826q0-33.49 22.98-56.637 22.981-23.146 56.238-23.146h669.826q33.49 0 56.637 23.146 23.146 23.147 23.146 56.637v179.435q0 16.707-11.769 28.158t-28.405 11.451q-74.135 0-127.067 52.933-52.933 52.932-52.933 127.067v150.391q0 16.707-11.451 28.158t-28.158 11.451H148.087Z"/></svg>