<svg xmlns="http://www.w3.org/2000/svg" width="48" height="48" viewBox="0 -960 960 960"><path d="M401.869-109.957 338.26-586.912q-5.13-35.479 19.131-62.479t60.653-27h123.912q36.392 0 60.653 27 24.261 27 19.131 62.479l-63.609 476.955q-2 14.957-13.312 24.718t-26.731 9.761h-76.386q-15.419 0-26.626-9.761t-13.207-24.718Zm78.286-627.434q-32.981 0-56.177-23.302-23.196-23.301-23.196-56.022 0-32.72 23.041-56.199 23.041-23.478 56.022-23.478 32.981 0 56.177 23.391 23.196 23.39 23.196 56.237 0 32.614-23.041 55.993-23.041 23.38-56.022 23.38Z"/></svg>