<svg xmlns="http://www.w3.org/2000/svg" width="48" height="48" viewBox="0 -960 960 960"><path d="M476.435-774.913q-62.913 0-119.022 27.326-56.108 27.326-98.412 73.239h59.738q14.131 0 23.761 9.63 9.63 9.631 9.63 23.761 0 14.696-9.63 24.327-9.63 9.63-23.761 9.63H171.435q-17.522 0-28.848-11.326-11.327-11.326-11.327-28.283v-146.304q0-14.131 9.631-23.479 9.63-9.348 23.761-9.348 14.13 0 23.761 9.348 9.63 9.348 9.63 23.479v66.956q53.696-59.87 125.761-94.305 72.066-34.434 152.631-34.434 77.261 0 143.609 27.5 66.347 27.5 118.043 76.5 50 47.869 76.631 104.108 26.63 56.239 33.891 120.978 2.696 15.392-9.13 27.218-11.827 11.826-28.783 11.826-15.957 0-27.566-11.044-11.609-11.043-14.87-26.435-6.261-49.782-26.413-91.912-20.152-42.13-59.326-79.173-40.304-37.174-93.108-58.479-52.804-21.304-112.978-21.304ZM145.478-479.304q15.957-.566 27.848 9.913 11.892 10.478 15.587 26.304 11 99.087 78.783 169.5 67.782 70.413 165.303 83.674 21.088 3.695 30.066 16.369 8.978 12.674 8.978 26.501 0 16.522-10.543 29.065-10.544 12.544-27.935 9.413-130.435-13.261-221.087-106.478-90.652-93.217-103.348-224.652-2.131-14.826 8.63-26.935 10.761-12.109 27.718-12.674ZM514.391-494l56.652 54.087q11 11.565 9.5 24.978-1.5 13.413-10.63 22.544-9.131 9.13-22.044 10.347-12.913 1.218-25.609-11.478l-62.825-60.826q-6.131-5.565-8.696-12.761-2.565-7.195-2.565-15.456v-167.609q0-14.13 9.63-23.478Q467.435-683 481.565-683q14.131 0 23.479 9.348 9.347 9.348 9.347 23.478V-494ZM750.652-10q-12.261 0-20.674-7.63-8.413-7.631-10.413-19.327l-7-41.304q-16.87-3.87-31.739-12.087-14.87-8.217-27.174-21.087L617.348-104q-9.696 2.565-18.392-1t-13.261-12.261l-7.13-12.261q-6.131-9.13-4.348-18.826 1.782-9.696 9.478-17.392l31.304-29.304q-3.565-10.304-3.282-22.174.282-11.869 3.282-22.739l-31.304-29.869q-7.696-6.131-9.478-16.326-1.783-10.196 4.348-18.892l6.565-13.696q4.565-8.695 13.043-11.761 8.479-3.065 18.175-.5l37.304 7.435q12.304-12.869 27.174-21.087 14.869-8.217 31.739-12.652l7-40.739q2-11.696 10.695-19.326 8.696-7.631 20.392-7.631h9.696q11.695 0 20.391 7.348 8.696 7.348 10.696 19.044l7 41.304q16.304 4.435 31.456 12.652 15.152 8.218 28.022 21.087l35.739-7.435q9.13-2 18.109 1.566 8.978 3.565 14.674 12.261l6 10.565q6.13 9.696 4.348 19.957-1.783 10.261-9.479 17.391L896-239.957q3.565 10.305 3.283 22.457Q899-205.348 896-195.044l31.304 29.87q7.696 6.695 9.479 16.891 1.782 10.196-4.348 18.892l-6.565 13.13q-5.131 8.696-13.327 11.761-8.195 3.065-17.891.5l-36.739-7.435q-12.87 12.87-28.022 21.087-15.152 8.218-31.456 12.087l-7 40.739q-2 12.261-10.696 19.891Q772.043-10 760.348-10h-9.696Zm5.13-130.609q34.305 0 55.457-21.152t21.152-55.457q0-34.869-21.152-56.021t-55.457-21.152q-34.869 0-56.021 21.152t-21.152 56.021q0 34.305 21.152 55.457t56.021 21.152Z"/></svg>