<svg xmlns="http://www.w3.org/2000/svg" width="48" height="48" viewBox="0 96 960 960"><path d="M523 657q12.75 0 21.375-8.675 8.625-8.676 8.625-21.5 0-12.825-8.625-21.325T523 597H270q-12.75 0-21.375 8.675-8.625 8.676-8.625 21.5 0 12.825 8.625 21.325T270 657h253Zm167-130q12.75 0 21.375-8.675 8.625-8.676 8.625-21.5 0-12.825-8.625-21.325T690 467H270q-12.75 0-21.375 8.675-8.625 8.676-8.625 21.5 0 12.825 8.625 21.325T270 527h420Zm69.882-181.521q-47.578 0-80.708-33.531-33.131-33.531-33.131-81.109 0-47.013 33.248-80.426Q712.54 117 760.118 117q47.578 0 80.991 33.531t33.413 80.543q0 47.578-33.531 80.992-33.531 33.413-81.109 33.413ZM225.869 830.131l-92.608 92.608q-19.087 19.087-43.24 8.887-24.152-10.199-24.152-36.67V241.087q0-31.478 23.37-55.631 23.37-24.152 55.848-24.152h434.174q-7.957 18.522-11.652 39.109-3.696 20.587-1.566 40.674 1.435 26.304 9.087 50.391 7.652 24.087 22.522 45.522H270q-12.75 0-21.375 8.675-8.625 8.676-8.625 21.5 0 12.825 8.625 21.325T270 397h385.782q23.956 13.957 49.761 20.935 25.805 6.978 54.457 6.978 38.087 0 72.544-13.826 34.457-13.826 62.152-41.044v380.87q0 31.478-24.152 55.348-24.153 23.87-55.631 23.87H225.869Z"/></svg>