<svg xmlns="http://www.w3.org/2000/svg" width="48" height="48" viewBox="0 -960 960 960"><path d="M270-399h253q12.75 0 21.375-8.675 8.625-8.676 8.625-21.5 0-12.825-8.625-21.325T523-459H270q-12.75 0-21.375 8.675-8.625 8.676-8.625 21.5 0 12.825 8.625 21.325T270-399Zm0-130h420q12.75 0 21.375-8.675 8.625-8.676 8.625-21.5 0-12.825-8.625-21.325T690-589H270q-12.75 0-21.375 8.675-8.625 8.676-8.625 21.5 0 12.825 8.625 21.325T270-529Zm-.271-130h346.586q11.913 0 20.821-8.675 8.907-8.676 8.907-21.5 0-12.825-8.907-21.325-8.908-8.5-20.821-8.5H269.729q-12.479 0-21.104 8.675-8.625 8.676-8.625 21.5 0 12.825 8.625 21.325t21.104 8.5Zm-43.86 433.131-92.043 92.043q-19.087 19.087-43.522 8.958t-24.435-36.176v-653.869q0-32.74 23.356-56.262 23.355-23.521 55.862-23.521H528.26q18.165 0 30.452 13.739 12.288 13.739 9.158 32.261-3.131 14.392-14.175 24.087-11.043 9.696-25.435 9.696H145.087v570.607l54.782-60.781h615.044v-291.26q0-16.707 11.501-28.158 11.502-11.451 28.234-11.451t28.39 11.451q11.658 11.451 11.658 28.158v291.26q0 32.507-23.521 55.862-23.522 23.356-56.262 23.356H225.869Zm534.146-484.652q-47.711 0-80.841-33.417-33.131-33.418-33.131-81.156 0-47.08 33.282-80.493Q712.606-939 760.151-939q47.545 0 80.958 33.464 33.413 33.465 33.413 80.827 0 47.361-33.398 80.775-33.398 33.413-81.109 33.413ZM145.087-814.913v509.826-509.826Z"/></svg>