<svg xmlns="http://www.w3.org/2000/svg" width="48" height="48" viewBox="0 96 960 960"><path d="M188.043 1022.22q-51.014 0-84.899-33.565-33.884-33.563-33.884-84.522t33.884-84.655q33.885-33.696 84.899-33.696 30 0 54.283 12.023t40.413 36.716q61.913-33.869 102.495-93.227 40.581-59.358 52.896-129.076h-140q-12.26 38-43.216 60-30.955 22-66.871 22-51.014 0-84.899-33.563-33.884-33.563-33.884-84.522t33.884-84.655q33.885-33.696 84.899-33.696 35.916 0 66.871 21.718 30.956 21.717 43.216 60.282h140q-11.565-69.912-52.022-129.456-40.456-59.543-103.116-92.847-16.383 25.434-40.666 37.087-24.283 11.652-54.283 11.652-51.014 0-84.899-33.563-33.884-33.563-33.884-84.522t33.962-84.655q33.962-33.696 85.087-33.696 49.43 0 83.359 33.74 33.93 33.739 34.158 83.521 86.304 42.566 140.278 121.958 53.973 79.392 67.157 170.781h236.608l-59.478-60.043q-11.261-10.696-10.761-25.664.5-14.968 11.761-26.38 10.696-10.696 25.664-10.696 14.968 0 26.38 10.696l118.956 120.522q6.08 6.225 8.953 13.219 2.874 6.994 2.874 14.627 0 7.633-2.874 14.583-2.873 6.95-8.953 13.137L742.435 723.74q-11.412 11.261-25.88 10.761-14.468-.5-25.164-11.761Q680.13 712.044 680.13 697q0-15.043 11.261-25.739l58.478-59.043H513.542q-13.412 94.434-68.912 171.021-55.5 76.587-138.79 121.463-.275 49.95-34.264 83.733-33.99 33.785-83.533 33.785Z"/></svg>