<svg xmlns="http://www.w3.org/2000/svg" width="48" height="48" viewBox="0 -960 960 960"><path d="M290-316.999v50.39q0 15.577 10.654 25.897 10.654 10.321 26.304 10.321 15.651 0 25.847-10.603 10.196-10.604 10.196-26.18v-49.825h50.39q15.577 0 25.897-10.654 10.321-10.654 10.321-26.305t-10.321-25.846Q428.968-390 413.391-390h-50.39v-50.391q0-15.576-10.372-25.897-10.371-10.321-26.021-10.321-15.651 0-26.13 10.321Q290-455.967 290-440.391V-390h-50.391q-15.576 0-25.897 10.371-10.321 10.371-10.321 26.022 0 15.651 10.604 26.129 10.603 10.479 26.179 10.479H290Zm253.957-65.653H728.13q11.957 0 20.218-8.543 8.261-8.544 8.261-20.218t-8.261-19.935q-8.261-8.261-20.218-8.261H543.391q-11.956 0-20.217 8.261t-8.261 19.935q0 11.674 8.543 20.218 8.544 8.543 20.501 8.543Zm-.566 128.479H648.13q11.957 0 20.218-8.261t8.261-19.935q0-11.674-8.261-20.218-8.261-8.543-20.218-8.543H543.391q-11.956 0-20.217 8.59-8.261 8.591-8.261 19.888 0 11.957 8.261 20.218t20.217 8.261ZM145.087-65.869q-32.507 0-55.862-23.356-23.356-23.355-23.356-55.862v-469.826q0-32.74 23.356-56.262 23.355-23.521 55.862-23.521h230.782v-129.826q0-29.652 19.913-49.913 19.913-20.261 50.955-20.261h67.374q30.063 0 50.324 20.261t20.261 49.913v129.826h230.217q32.74 0 56.262 23.521 23.521 23.522 23.521 56.262v469.826q0 32.507-23.521 55.862-23.522 23.356-56.262 23.356H145.087Zm0-79.218h669.826v-469.826H583.566v30q-2.261 29.131-23.37 44.565-21.109 15.435-46.085 15.435h-67.657q-25.541 0-46.933-15.717-21.391-15.718-23.087-44.283v-30H145.087v469.826ZM451.13-600.174h58.305v-219.261H451.13v219.261ZM480-380Z"/></svg>