<svg xmlns="http://www.w3.org/2000/svg" width="48" height="48" viewBox="0 -960 960 960"><path d="M126.825-105.869q-16.707 0-28.158-11.502-11.451-11.501-11.451-28.282 0-16.782 11.45-28.108 11.452-11.326 28.159-11.326h58.608v-629.435q0-16.636 11.452-28.405 11.451-11.769 28.158-11.769h307.913q13.965 0 24.526 8.625t13.388 21.375v15h165.087q16.707 0 28.158 11.769 11.452 11.769 11.452 28.405v584.435h57.608q16.636 0 28.405 11.501 11.77 11.502 11.77 28.283 0 16.782-11.77 28.108-11.769 11.326-28.405 11.326h-97.218q-16.706 0-28.158-11.451-11.451-11.451-11.451-28.158v-584.435H573.13v584.435q0 16.707-11.769 28.158t-28.405 11.451H126.825ZM481.956-479.94q0-18.19-12.348-30.821-12.348-12.63-30.761-12.63-18.413 0-31.043 12.571-12.631 12.571-12.631 30.76 0 18.19 12.588 30.821 12.588 12.63 30.804 12.63 18.695 0 31.043-12.571 12.348-12.571 12.348-30.76Z"/></svg>