<svg xmlns="http://www.w3.org/2000/svg" width="48" height="48"><path d="m35.65 30.25-2.7-2.65q.75-.9 1.175-2 .425-1.1.525-2.35.1-.65.6-1.1.5-.45 1.15-.45.9 0 1.45.625.55.625.4 1.425-.2 1.75-.9 3.45-.7 1.7-1.7 3.05zM28.9 23.6l-3.7-3.65V9.35q0-.75-.55-1.3T23.3 7.5q-.8 0-1.325.55-.525.55-.525 1.3v6.75l-3.8-3.75V8.3q.25-1.95 1.875-3.375T23.3 3.5q2.45 0 4.175 1.7Q29.2 6.9 29.2 9.35V21.7q0 .35-.075.975t-.225.925zm11.15 20.5-9.4-9.4q-1.2.7-2.65 1.125-1.45.425-2.85.575v5.05q0 .8-.525 1.325-.525.525-1.325.525-.8 0-1.3-.525t-.5-1.325V36.4q-5.15-.5-8.8-4.05-3.65-3.55-4.35-8.6-.1-.8.475-1.425T10.3 21.7q.6 0 1.075.45t.625 1.1q.6 4.15 3.775 6.9T23.3 32.9q1.45 0 2.625-.225T28.2 31.9L2.7 6.4q-.45-.45-.425-1.075Q2.3 4.7 2.75 4.25q.45-.4 1.05-.425.6-.025 1.1.425L42.4 41.8q.5.5.5 1.15 0 .65-.5 1.15-.5.5-1.15.5-.65 0-1.2-.5zm-16.9-26.25z"/></svg>