<svg xmlns="http://www.w3.org/2000/svg" width="48" height="48" viewBox="0 -960 960 960"><path d="M291.435-386.043H693.13q11.827 0 17.74-10.827 5.913-10.826-2.348-21.087L595.957-565.522q-6.87-8.261-16.044-7.978-9.174.282-15.87 7.978L454-419.609l-76.043-92.913q-6.87-8.261-16.044-8.261t-15.87 8.261l-70.565 94.565q-7.261 10.261-1.598 21.087 5.663 10.827 17.555 10.827Zm-65.566 160.174-92.043 92.043q-19.087 19.087-43.522 8.958t-24.435-36.176v-653.869q0-32.74 23.356-56.262 23.355-23.521 55.862-23.521h669.826q32.74 0 56.262 23.521 23.521 23.522 23.521 56.262v509.826q0 32.507-23.521 55.862-23.522 23.356-56.262 23.356H225.869Zm-26-79.218h615.044v-509.826H145.087v570.607l54.782-60.781Zm-54.782 0v-509.826 509.826Z"/></svg>