<svg xmlns="http://www.w3.org/2000/svg" width="48" height="48" viewBox="0 -960 960 960"><path d="M265.65-25.87q-33.74 0-56.76-22.85-23.02-22.86-23.02-56.37v-749.82q0-32.74 23.52-56.26 23.52-23.53 56.26-23.53h426.7q33.74 0 56.76 23.03 23.02 23.02 23.02 56.76v113.04q0 16.96-11.33 28.28-11.32 11.33-28.28 11.33h-51.17q-14.96 0-29.53 5.75-14.58 5.76-25.47 16.34L606.3-661.7q-55.56 0-95.84 30-40.29 30-40.29 90.75v161.87q0 50.78 35 85.78t85.57 35h141.78q16.96 0 28.28 11.32 11.33 11.33 11.33 28.28v113.61q0 33.51-23.02 56.37-23.02 22.85-56.76 22.85h-426.7Zm236.89-692.67q9.85-9.85 9.85-23.55 0-13.69-9.85-23.54-9.84-9.85-23.54-9.85t-23.54 9.85q-9.85 9.85-9.85 23.54 0 13.7 9.85 23.55 9.84 9.84 23.54 9.84t23.54-9.84Zm87.97 400.24q-25.47 0-42.9-17.5-17.44-17.5-17.44-43.07v-162q0-25.44 17.5-43.13 17.5-17.7 43.07-17.7h40.56l29.31-28.73q5.56-6.14 12.17-8.98 6.61-2.85 15.05-2.85h49.21q7.7 0 14.4 2.85 6.69 2.84 12.82 8.98L793-601.7h41.13q25 0 42.78 17.7 17.79 17.69 17.79 43.13v162q0 25.57-17.79 43.07-17.78 17.5-42.78 17.5H590.51Zm171.99-91.63Q783-430.43 783-460t-20.5-50.35q-20.5-20.78-50.06-20.78-29.57 0-50.35 20.78Q641.3-489.57 641.3-460t20.79 50.07q20.78 20.5 50.35 20.5 29.56 0 50.06-20.5Z"/></svg>