<svg xmlns="http://www.w3.org/2000/svg" width="48" height="48" viewBox="0 -960 960 960"><path d="M396.35-141.91H218.7q-13.97 0-23.4-9.75-9.43-9.74-9.43-23.76 0-14.01 9.47-23.36t24.16-9.35h178.85l-32.92-32.91q-10.13-10.13-10.13-23.76t10.7-23.76q10.13-9.57 23.48-9.57t23.48 9.57l84.47 83.91q6.08 6.19 9.24 13.55 3.16 7.37 3.16 15.21 0 7.85-3.16 14.88-3.16 7.04-9.24 13.05l-84.47 84.48q-10.13 10.13-22.98 9.63T367-64.48q-10.7-10.55-10.7-24.25t10.7-23.83l29.35-29.35Zm204.39 0q-13.97 0-23.4-9.75-9.43-9.74-9.43-23.76 0-14.01 9.48-23.36 9.47-9.35 23.91-9.35h139.72q14.33 0 24 9.46 9.68 9.47 9.68 23.48 0 14.02-9.68 23.65-9.67 9.63-24 9.63H600.74ZM480-552.22Zm-214.91-274v507.83q0 17.27-11.5 28.72-11.51 11.45-28.29 11.45t-28.1-11.45q-11.33-11.45-11.33-28.72v-507.83q0-32.74 23.35-56.26Q232.58-906 265.09-906h429.82q32.74 0 56.26 23.52 23.53 23.52 23.53 56.26v148.87q18 5.26 30 20.63t12 34.17v72.72q0 20.13-12 35.83t-30 21.21v174.4q0 17.27-11.84 28.72-11.83 11.45-28.56 11.45-16.73 0-28.06-11.45-11.33-11.45-11.33-28.72v-507.83H265.09Zm237.45 136.94q9.85-9.85 9.85-23.55 0-13.69-9.85-23.54-9.84-9.85-23.54-9.85t-23.54 9.85q-9.85 9.85-9.85 23.54 0 13.7 9.85 23.55 9.84 9.85 23.54 9.85t23.54-9.85Z"/></svg>