<svg xmlns="http://www.w3.org/2000/svg" width="48" height="48" viewBox="0 96 960 960"><path d="M381.348 241.087q-17.174 0-37.326 2t-30.021 4.435q62.869 70.304 97.152 154.739Q445.435 486.696 445.435 576t-34.282 173.956q-34.283 84.653-96.152 153.522 9.869 2.435 28.739 4.935 18.869 2.5 39.608 2.5 137.24 0 234.576-96.304Q715.261 718.304 715.261 576t-98.087-238.609q-98.087-96.304-235.826-96.304ZM792.349 576.5q0 88.326-31.913 163.87-31.913 75.543-86.827 131.022-54.913 55.478-128.826 87.109-73.914 31.63-157.565 31.63-38.696 0-79.74-7.848-41.043-7.848-74.739-20.543-12.391-4.696-20.783-15.269-8.391-10.573-8.391-24.471 0-7.096 2.565-13.026 2.565-5.931 7.13-12.061 61.566-70.522 105.413-141.131Q362.521 685.174 364.087 575q0-109.174-43.848-179.282-43.848-70.109-104.848-140.631-4.565-6.13-7.131-12.061-2.565-5.93-2.565-13.026 0-13.898 8.392-24.471 8.391-10.573 21.348-15.834 33.13-12.13 74.174-20.261 41.043-8.13 79.739-8.13 83.652 0 157.283 31.913 73.631 31.913 128.326 87.391 54.696 55.479 86.327 131.522 31.63 76.044 31.065 164.37Zm-346.914.5Z"/></svg>