<svg xmlns="http://www.w3.org/2000/svg" width="48" height="48" viewBox="0 0 48 48"><path d="M11.95 33.05q-2.85-1.6-4.55-4.425Q5.7 25.8 5.7 22.35q0-4.05 1.975-7.2Q9.65 12 12 9.8q2.35-2.2 4.325-3.35L18.3 5.3v5.45q0 1.15.825 1.925.825.775 1.925.775.6 0 1.15-.275.55-.275.9-.775l.85-1q2.25 1.25 3.75 3.275t2.15 4.425l-5.25 5.25q-.25-.35-.525-.7t-.575-.7l-5.5-5.4-5.4 5.4q-1.1 1.1-1.7 2.45-.6 1.35-.6 2.9 0 1.35.425 2.55.425 1.2 1.225 2.2Zm4.35-.4q-1.35-.5-2.175-1.65-.825-1.15-.825-2.7 0-.95.35-1.8.35-.85 1-1.45l3.35-3.3 3.4 3.3q.35.35.6.725t.4.775ZM13.65 45.1l-2.8-2.75 30.1-30.15 2.8 2.8-8 8.05h8V27H31.7l-1.55 1.6 2.95 2.95h10.65v4H37.1l5.35 5.35-2.8 2.75-5.35-5.3v6.75h-3.95V34.35l-3-2.95-1.6 1.6v12.1H21.8V37Z"/></svg>