<svg xmlns="http://www.w3.org/2000/svg" width="48" height="48" viewBox="0 -960 960 960"><path d="M479.668-263.609q73.496 0 123.61-49.714 50.113-49.715 50.113-123.261 0-74.546-50.047-124.177-50.047-49.63-123.543-49.63-74.497 0-123.845 49.45-49.347 49.45-49.347 123.808 0 73.829 49.281 123.677 49.281 49.847 123.778 49.847Zm.109-71.304q-44.386 0-73.125-29.239-28.739-29.239-28.739-72.848 0-44.609 28.847-73.63 28.846-29.022 73.347-29.022 43.502 0 73.023 29.022 29.522 29.021 29.522 73.63 0 43.609-29.434 72.848-29.434 29.239-73.441 29.239Zm-334.69 229.044q-32.507 0-55.862-23.356-23.356-23.355-23.356-55.862v-502.826q0-31.74 23.356-55.762 23.355-24.021 55.862-24.021h134.565l55.565-62.609q10.826-12.696 25.653-18.544 14.826-5.847 31.652-5.847h175.521q16.191 0 31.052 5.847 14.862 5.848 25.688 18.544l56.13 62.609h134q31.74 0 55.762 24.021 24.021 24.022 24.021 55.762v502.826q0 32.507-24.021 55.862-24.022 23.356-55.762 23.356H145.087ZM480-185.087h334.913v-502.826H646.13l-77.521-87H480v589.826Z"/></svg>