<svg xmlns="http://www.w3.org/2000/svg" width="48" height="48" viewBox="0 -960 960 960"><path d="M370.235-433.913q20.008 0 33.169-13.27 13.161-13.27 13.161-32.886 0-19.617-13.238-32.818-13.239-13.2-32.809-13.2-20.291 0-33.492 13.27-13.2 13.27-13.2 32.886 0 19.617 13.2 32.818 13.201 13.2 33.209 13.2Zm156.16 0q20.291 0 33.492-13.27 13.2-13.27 13.2-32.886 0-19.617-13.2-32.818-13.201-13.2-33.209-13.2-20.009 0-33.17 13.27-13.16 13.27-13.16 32.886 0 19.617 13.238 32.818 13.239 13.2 32.809 13.2Zm156.805 0q20.008 0 33.209-13.27 13.2-13.27 13.2-32.886 0-19.617-13.239-32.818-13.238-13.2-32.808-13.2-20.291 0-33.209 13.27-12.918 13.27-12.918 32.886 0 19.617 12.878 32.818 12.878 13.2 32.887 13.2ZM364.522-185.869q-26.282 0-48.459-13.295-22.177-13.296-37.803-34.488L136.087-433.695q-14.957-19.379-14.957-45.317t14.957-47.293L278.26-726.348q15.638-22.023 37.809-35.186 22.171-13.162 48.453-13.162h412.087q32.91 0 56.347 23.436 23.436 23.437 23.436 56.347v429.826q0 32.677-23.436 55.948-23.437 23.27-56.347 23.27H364.522ZM202.913-480l150.609 214.913h423.087v-429.826H353.522L202.913-480Zm573.696 0v-214.913 429.826V-480Z"/></svg>