<svg xmlns="http://www.w3.org/2000/svg" width="48" height="48" viewBox="0 96 960 960"><path d="M233.435 606q-17.694 0-27.586 16.174-9.893 16.174-3.067 34.131 20.131 71.043 71.587 122.847 51.457 51.805 122.5 71.37 18.522 6.826 35.044-3.5t16.522-30.373q0-12.867-8.348-23.562-8.348-10.696-21.044-15.392-51.782-14.435-88.695-52.195-36.913-37.761-51.347-88.978-5.827-13.826-18.342-22.174Q248.143 606 233.435 606Zm1-60q-17.694 0-27.021-16.174-9.327-16.174-3.066-34.131 20.695-71.043 71.586-122.847 50.892-51.805 121.935-71.37 18.522-6.826 35.326 3.5Q450 315.304 450 335.351q0 12.867-8.348 23.562-8.348 10.696-21.043 15.392-51.783 14.435-88.696 52.195-36.912 37.761-51.912 88.978-5.261 13.826-17.777 22.174Q249.709 546 234.435 546ZM480 496.391q33.522 0 56.566 23.043 23.043 23.044 23.043 56.999 0 32.524-23.043 55.85-23.044 23.326-56.999 23.326-32.524 0-55.85-23.389-23.326-23.388-23.326-56.22 0-33.522 23.389-56.566 23.388-23.043 56.22-23.043ZM727.13 606q17.129 0 26.739 16.174t3.349 34.131q-20.696 71.043-71.87 122.847-51.174 51.805-121.652 71.37-19.087 6.826-35.609-3.5-16.522-10.326-16.522-30.373 0-12.867 8.348-23.562 8.348-10.696 21.609-15.392 51.217-14.435 88.13-52.195 36.913-37.761 51.913-88.978 5.261-13.826 17.776-22.174Q711.857 606 727.13 606Zm0-60q17.129 0 26.739-16.174t3.349-34.131q-20.696-71.043-71.587-122.847-50.891-51.805-121.935-71.37-19.087-6.826-35.609 3.5-16.522 10.326-16.522 30.373 0 12.867 8.348 23.562 8.348 10.696 21.044 15.392 51.782 14.435 88.695 52.195 36.913 37.761 51.913 88.978 5.261 13.826 17.776 22.174Q711.857 546 727.13 546ZM272.391 241.087H145.087v127.304q0 16.707-11.501 28.158Q122.084 408 105.303 408q-16.782 0-28.108-11.451T65.87 368.391V241.087q0-32.478 23.37-56.131 23.37-23.652 55.848-23.652h127.304q16.707 0 28.158 11.784T312 201.653q0 16.782-11.451 28.108t-28.158 11.326ZM145.087 990.131q-32.478 0-55.848-23.37-23.37-23.37-23.37-55.848V783.609q0-16.707 11.502-28.158Q88.872 744 105.653 744q16.782 0 28.108 11.451t11.326 28.158v127.304h127.304q16.707 0 28.158 11.501Q312 933.916 312 950.697q0 16.782-11.451 28.108t-28.158 11.326H145.087Zm669.826 0H687.609q-16.707 0-28.158-11.501Q648 967.128 648 950.347q0-16.782 11.451-28.108t28.158-11.326h127.304V783.609q0-16.707 11.501-28.158Q837.916 744 854.697 744q16.782 0 28.391 11.451 11.608 11.451 11.608 28.158v127.304q0 32.478-23.652 55.848-23.653 23.37-56.131 23.37ZM687.609 241.087q-16.707 0-28.158-11.501Q648 218.084 648 201.303q0-16.782 11.451-28.391 11.451-11.608 28.158-11.608h127.304q32.478 0 56.131 23.652 23.652 23.653 23.652 56.131v127.304q0 16.707-11.784 28.158T854.347 408q-16.782 0-28.108-11.451t-11.326-28.158V241.087H687.609Z"/></svg>