<svg xmlns="http://www.w3.org/2000/svg" width="48" height="48" viewBox="0 -960 960 960"><path d="M145.087-145.869q-32.478 0-55.848-23.37-23.37-23.37-23.37-55.848v-127.304q0-16.707 11.502-28.158Q88.872-392 105.653-392q16.782 0 28.108 11.451t11.326 28.158v127.304h127.304q16.707 0 28.158 11.501Q312-202.084 312-185.303q0 16.782-11.451 28.108t-28.158 11.326H145.087Zm-79.218-621.74v-127.304q0-32.478 23.37-56.131 23.37-23.652 55.848-23.652h127.304q16.707 0 28.158 11.784T312-934.347q0 16.782-11.451 28.108t-28.158 11.326H145.087v127.304q0 16.707-11.501 28.158Q122.084-728 105.303-728q-16.782 0-28.108-11.451T65.87-767.609Zm413.698 287.218q-32.524 0-55.85-23.389-23.326-23.388-23.326-56.22 0-33.522 23.389-56.566 23.388-23.043 56.22-23.043 33.522 0 56.566 23.043 23.043 23.044 23.043 56.999 0 32.524-23.043 55.85-23.044 23.326-56.999 23.326Zm335.346-287.218v-127.304H687.609q-16.707 0-28.158-11.501Q648-917.916 648-934.697q0-16.782 11.451-28.391 11.451-11.608 28.158-11.608h127.304q32.478 0 56.131 23.652 23.652 23.653 23.652 56.131v127.304q0 16.707-11.784 28.158T854.347-728q-16.782 0-28.108-11.451t-11.326-28.158Zm-581.478 243.87q-17.694 0-27.586 16.457-9.893 16.456-3.067 34.413 20.131 70.478 71.587 122.282 51.457 51.805 122.5 71.935 18.522 6.826 35.044-3.5t16.522-30.372q0-13.433-8.348-24.128-8.348-10.696-21.044-15.392-51.782-13.869-88.695-51.63t-51.347-88.978q-5.827-13.826-18.342-22.457-12.516-8.63-27.224-8.63Zm1-60q-17.694 0-27.021-16.174-9.327-16.174-3.066-34.131 20.695-70.478 71.586-122.282 50.892-51.804 121.935-71.935 18.522-6.826 35.326 3.5Q450-814.435 450-794.388q0 13.432-8.348 24.128-8.348 10.695-21.043 15.391-51.783 13.87-88.696 51.63-36.912 37.761-51.912 88.978-5.261 13.826-17.777 22.174-12.515 8.348-27.789 8.348Zm492.695 0q17.129 0 26.739-16.174t3.349-34.131q-20.696-70.478-71.587-122.282-50.891-51.804-121.935-71.935-19.087-6.826-35.609 3.5-16.522 10.326-16.522 30.373 0 13.432 8.348 24.128 8.348 10.695 21.044 15.391 51.782 13.87 88.695 51.63 36.913 37.761 51.913 88.978 5.261 13.826 17.776 22.174 12.516 8.348 27.789 8.348ZM729.5-120Q650-120 594-175.867 538-231.735 538-311q0-80 55.867-135.5Q649.735-502 729-502q80 0 135.5 55.5t55.5 135q0 79.5-55.5 135.5t-135 56Zm2-69.217q11.761 0 19.674-7.413t7.913-19.674q0-12.261-8.013-19.957-8.013-7.696-19.074-7.696-12.261 0-19.674 7.696t-7.413 19.957q0 12.261 7.413 19.674t19.174 7.413Zm.5-96.87q9.13 0 14.761-6.131 5.63-6.13 5.63-15.261v-101.217q0-9.13-6.13-14.761-6.131-5.63-15.261-5.63-9.13 0-14.761 6.13-5.63 6.131-5.63 15.261v101.217q0 9.131 6.13 14.761 6.131 5.631 15.261 5.631Z"/></svg>