<svg xmlns="http://www.w3.org/2000/svg" width="48" height="48" viewBox="0 -960 960 960"><path d="m266.391-474.043 41.174-82.348q10.261-20.522 29.065-32.631 18.805-12.108 41.457-12.108h64.565v-253.392q0-16.957 11.326-28.566 11.326-11.608 28.283-11.608h202.261q10.261 0 15.891 9.543 5.631 9.544 1.066 19.805l-19.87 39.304q-2 4.131-2 9.261 0 5.131 2 9.261l19.87 39.304q4.565 10.261-1.066 19.522-5.63 9.261-15.891 9.261H517.913v138.305h59.435q23.217 0 42.522 12.108 19.304 12.109 29.565 31.631l41.174 84.913-134.174 89.783-76.435-40-78 38.435-135.609-89.783ZM193.392-65.869q-43.74 0-67.392-37.544-23.652-37.544-3.565-77.718l115.13-232.129L398-306.782l82-40 82 41L722.001-411.26l115.564 230.694q19.522 40.175-3.63 77.436-23.153 37.261-67.892 37.261H193.392Z"/></svg>