<svg xmlns="http://www.w3.org/2000/svg" width="48" height="48" viewBox="0 -960 960 960"><path d="M394.348-648.695q0-32.664 23.146-55.941 23.147-23.277 56.637-23.277h336.825q33.49 0 56.637 23.277t23.147 55.941v337.39q0 32.664-23.147 55.941t-56.637 23.277H474.131q-33.49 0-56.637-23.277-23.146-23.277-23.146-55.941v-337.39Zm79.783 0v337.39h336.825v-337.39H474.131ZM232.087-232.087v-79.218h79.218v79.218h-79.218Zm0-416.608v-79.218h79.218v79.218h-79.218ZM69.26-440.391v-79.218h79.784v79.218H69.26ZM642.826-480ZM69.26-311.305h79.784v79.218q-32.479 0-56.131-23.355-23.653-23.356-23.653-55.863Zm0-337.39q0-32.507 23.522-55.863 23.522-23.355 56.262-23.355v79.218H69.26Z"/></svg>