<svg xmlns="http://www.w3.org/2000/svg" width="48" height="48" viewBox="0 -960 960 960"><path d="M147.173-497.566q-20.391 0-35.087-14.978-14.696-14.979-14.696-34.805t14.696-34.522q14.696-14.696 35.087-14.696 19.261 0 34.239 14.696 14.979 14.696 14.979 34.522t-14.979 34.805q-14.978 14.978-34.239 14.978ZM197.391-140h379.87v-246.957H505.87q-70.652 0-120.892-48.239-50.239-48.239-50.239-116.892 0-48.826 27.5-93.087t79.196-64.087q9.261-72.261 60.37-117.892 51.108-45.63 118.065-45.63 67.957 0 118.566 45.63 50.609 45.631 60.87 117.892 51.13 19.826 78.913 64.087 27.782 44.261 27.782 93.087 0 68.653-50.739 116.892-50.739 48.239-121.392 48.239h-77.391V-140H827.87q16.957 0 28.283 11.326t11.326 28.283q0 16.957-11.326 28.283T827.87-60.782H136.999q-16.956 0-28.283-11.326Q97.39-83.434 97.39-100.39v-168.435h-10q-16.957 4.522-25.174-6.804-8.217-11.327-8.217-26.022V-432.13q0-15.392 12.608-26.001 12.61-10.609 30.566-10.609h100q17.957 0 30.283 10.609t12.326 26.001v129.912q0 14.696-8.5 26.305t-24.891 7.087h-9V-140Z"/></svg>