<svg xmlns="http://www.w3.org/2000/svg" width="48" height="48" viewBox="0 -960 960 960"><path d="M480-93.999q-66.957 0-113.283-46.609-46.326-46.608-46.326-113.565 0-66.392 46.326-113Q413.043-413.782 480-413.782t113.283 46.609q46.326 46.608 46.326 113 0 66.957-46.326 113.565Q546.957-93.998 480-93.998Zm0-692.219q-100.957 0-187.152 32.131-86.196 32.13-156.892 91.826-11.696 9.696-27.239 10.478-15.544.783-26.24-11.043-10.695-10.261-9.913-25.522.783-15.261 11.479-25.522 80.261-69.392 179.435-107.653Q362.652-859.784 480-859.784q117.348 0 216.522 38.261 99.174 38.261 179.435 106.522 10.696 10.261 11.479 25.805.782 15.544-9.913 26.37-10.696 11.261-26.24 10.761-15.543-.5-27.239-10.761-70.696-59.131-156.892-91.261Q580.957-786.218 480-786.218Zm0 222.436q-54.696 0-101.978 17.13-47.283 17.131-86.587 44.565-12.696 9.696-28.305 8.979-15.609-.718-26.739-11.979-11.261-10.261-10.479-25.369.783-15.109 13.044-24.805 49-37.13 110.544-59.044 61.543-21.913 130.5-21.913t130.283 21.913q61.326 21.914 110.326 59.044 12.261 9.696 12.761 25.087.5 15.392-10.761 25.653-10.696 10.695-26.022 11.413-15.326.717-27.457-8.979-38.869-27.434-86.369-44.565-47.5-17.13-102.761-17.13Z"/></svg>