<svg xmlns="http://www.w3.org/2000/svg" width="48" height="48" viewBox="0 -960 960 960"><path d="M344.738-638.607q-39.26 25.608-63.194 66.977-23.935 41.37-26.239 91.195l-23.87 289.13H730.13l-24.87-290.13q-3.239-49.087-26.989-90.043-23.749-40.955-63.009-67.129V-560q0 56.359-39.423 95.81-39.422 39.452-95.739 39.452-56.318 0-95.84-39.452-39.522-39.451-39.522-95.81v-78.607Zm135.421 134.085q23.645 0 39.765-15.95 16.119-15.95 16.119-39.528v-160q0-23.818-16.109-39.931-16.11-16.112-39.924-16.112t-39.651 16.112Q424.522-743.818 424.522-720v160q0 23.578 15.996 39.528 15.995 15.95 39.641 15.95ZM229.87-111.521q-35.047 0-58.698-25.669-23.651-25.669-20.52-60.811l24.869-290.564q5.435-83.87 52.012-149.152Q274.11-703 345.704-737.261q6.497-50.249 44.604-84.125 38.108-33.876 89.726-33.876t89.64 33.741q38.022 33.74 44.588 84.825 71.173 34.132 117.695 99.368 46.522 65.236 52.522 148.763l24.869 290.564q2.565 35.044-20.749 60.762-23.315 25.718-58.469 25.718H229.87Z"/></svg>