<svg xmlns="http://www.w3.org/2000/svg" width="48" height="48" viewBox="0 96 960 960"><path d="M480 962.001q-66.957 0-113.283-46.609-46.326-46.608-46.326-113.283 0-66.674 46.326-113.282Q413.043 642.218 480 642.218t113.283 46.609q46.326 46.608 46.326 113.282 0 66.675-46.326 113.283Q546.957 962.001 480 962.001Zm0-79.783q33.747 0 57.069-23.267 23.322-23.266 23.322-56.934t-23.322-56.842Q513.747 722.001 480 722.001t-57.069 23.174q-23.322 23.174-23.322 56.842t23.322 56.934q23.322 23.267 57.069 23.267ZM108.999 418.261l-52.478-50.609q82.261-80.522 189.065-125.979Q352.391 196.216 480 196.216q127.609 0 234.414 45.175 106.804 45.174 189.065 125.696l-52.478 51.174q-73.131-70.957-166.24-109.718Q591.652 269.782 480 269.782t-204.761 39.044q-93.109 39.044-166.24 109.435Zm588.653 158.74q-40.739-36-95.869-60.392Q546.652 492.218 480 492.218t-121.566 24.674q-54.913 24.674-95.521 60.109l-53.044-52.175q50.435-46.696 120.391-75.87 69.957-29.174 149.74-29.174 79.783 0 149.24 29.174 69.456 29.174 120.456 75.87l-52.044 52.175ZM480 801.827Z"/></svg>