<svg xmlns="http://www.w3.org/2000/svg" width="48" height="48" viewBox="0 -960 960 960"><path d="M480.009-727.565q-101.226 0-194.226 37.739-92.999 37.739-172.912 99.217l185.565 196.871q38.217-33.305 84.643-51.609 46.425-18.304 96.921-18.304 36.394 0 71.653 9.217 35.26 9.218 66.999 27.913-35.174 31.435-53.913 73.572Q546-310.812 546-264.305q0 11.074 1.949 20.918 1.95 9.844 4.181 20.344 2 10.566 3 20.746 1 10.181 1 21.125 0 30.589-21.195 48.033-21.196 17.445-48.44 17.445-14.452 0-28.8-6.066-14.347-6.065-25.913-18.761L51.522-543.956q-9.38-9.994-14.538-22.956-5.158-12.963-5.158-26.827 0-16.399 6.348-30.656 6.348-14.257 19.044-25.518 91.565-73.174 198.739-115.305Q363.13-807.348 480-807.348t224.043 42.13q107.174 42.131 198.739 115.305 12.696 11.261 19.044 25.518 6.348 14.257 6.348 30.656 0 13.766-5.158 26.777-5.157 13.012-13.973 23.006l-59.261 60.957q-10.826 11.956-27 12.522-16.174.565-27-9.696-11.392-10.826-12.522-26.967-1.131-16.141 9.695-27.599l54.739-55.87q-80.478-61.478-173.468-99.217-92.991-37.739-194.217-37.739Zm199.73 621.696q-16.124 0-26.931-10.41Q642-126.689 642-142.643V-266.53q0-15.954 10.808-26.646 10.807-10.693 26.931-10.693H683v-39q0-33.26 24.124-57.63 24.124-24.37 58-24.37 33.876 0 57.876 24.37t24 57.63v39h3.826q15.559 0 26.366 10.693Q888-282.484 888-266.53v123.887q0 15.954-10.808 26.364-10.807 10.41-26.366 10.41H679.739Zm43.261-198h84v-39q0-18.435-11.5-30.217-11.5-11.783-30.5-11.783t-30.5 11.783Q723-361.304 723-342.869v39Z"/></svg>