<svg xmlns="http://www.w3.org/2000/svg" width="48" height="48" viewBox="0 96 960 960"><path d="M480 948.871q-8.826 0-16.087-3.413-7.261-3.413-13.392-10.109L26.652 485.479q-11.26-12.392-10.76-29.196.5-16.805 12.326-27.631 93.869-82.87 208.673-131.435Q351.696 248.652 480 248.652t243.109 48.565q114.804 48.565 208.673 131.435 11.827 10.826 12.327 27.631.5 16.804-10.761 29.196l-423.869 449.87q-6.131 6.696-13.392 10.109-7.261 3.413-16.087 3.413ZM165.045 523.218q69.783-54.912 148.587-85.238Q392.435 407.654 480 407.654t166.369 30.326q78.803 30.326 148.586 85.238l52.739-57.827q-85.304-66.304-176.303-101.63-91-35.326-191.391-35.326-100.391 0-191.39 35.326-91 35.326-175.739 101.63l52.174 57.827Z"/></svg>