<svg xmlns="http://www.w3.org/2000/svg" width="48" height="48" viewBox="0 -960 960 960"><path d="M702.999-80q-15 0-28.5-13.5t-13.5-28.5v-122q0-15 13.5-28.5t28.5-13.5v-40q0-36 23.5-61t58.5-25q34.435 0 57.588 25 23.152 25 23.152 61v40h1.039q14.091 0 27.656 13.5t13.565 28.5v122q0 15-13.5 28.5t-27.5 13.5h-164Zm40-206h84v-40q0-20-11.5-33t-30.5-13q-20 0-31 13t-11 33v40ZM150.739-80q-26.324 0-36.597-24.152-10.273-24.153 8.814-43.24l690.652-691.217q19.087-18.522 43.24-8.249Q881-836.585 881-810.826V-472h-79.218q-77.42 0-135.101 57.181-57.682 57.182-57.682 135.601V-80h-458.26Z"/></svg>