<svg xmlns="http://www.w3.org/2000/svg" width="48" height="48" viewBox="0 96 960 960"><path d="M479.739 991.827q-36.13 0-70.391-5.783-34.261-5.782-67.696-17.913 21.218-8.826 42.892-27.283 21.674-18.457 29.674-36.239 13.869-20.131 21.521-41.935 7.652-21.804 7.652-46.674 0-51.739-29.956-90.326-29.956-38.587-75-52.283-31.434-53.956-82.195-74.369-50.761-20.413-112.283-14.413-25.479 3-44.566 10.543-19.087 7.544-34.218 17.935-7.565-79.043 16.456-156.521 24.022-77.479 75.587-140.218 51.566-62.739 126.87-104.261 75.305-41.522 169.305-48.088 19.914-1.565 27.805 11.522 7.892 13.088.066 32.001-43.87 97.826-38.783 192.652 5.087 94.826 49.826 171.521Q537.044 648.391 616 699.217q78.957 50.826 183.391 60.521 21.479 2.696 28.305 15.849 6.827 13.152-4.13 29.37-59.826 88.522-149.435 137.696-89.609 49.174-194.392 49.174ZM290 909.391H170q-55.696 0-94.544-37.847Q36.608 833.696 36.608 776q0-55.696 38.848-94.544 38.848-38.847 94.544-38.847 41.565 0 73.63 22.5 32.066 22.5 46.631 57.5H290q39.696 0 66.544 26.847 26.847 26.848 26.847 66.544t-26.847 66.544Q329.696 909.391 290 909.391Z"/></svg>