<svg xmlns="http://www.w3.org/2000/svg" width="48" height="48" viewBox="0 -960 960 960"><path d="M680.391-640.391H600q-16.707 0-28.158-11.501-11.451-11.502-11.451-28.283 0-16.782 11.451-28.108T600-719.609h80.391V-800q0-16.707 11.501-28.158 11.502-11.451 28.283-11.451 16.782 0 28.108 11.451T759.609-800v80.391H840q16.707 0 28.158 11.501 11.451 11.502 11.451 28.283 0 16.782-11.451 28.108T840-640.391h-80.391V-560q0 16.707-11.501 28.158-11.502 11.451-28.283 11.451-16.782 0-28.108-11.451T680.391-560v-80.391Zm52.175 351.479q-44.087 82.696-121.162 132.391Q534.329-106.825 440-106.825q-138.609 0-235.892-97.283Q106.825-301.391 106.825-440q0-116.479 69.109-207.544 69.109-91.066 179.892-118.327 15.522-3.565 28.413.848t21.718 12.674q8.261 8.261 11.609 20.37 3.347 12.109-2.348 25.5-9 23.566-14 48.066-5 24.5-5 50.5 0 105.862 73.636 179.909 73.637 74.047 179.317 74.047 11.438 0 22.656-.717 11.217-.717 22.782-2.717t21.907 3.478q10.343 5.478 16.392 15.304 6.049 9.827 6.484 22.783.435 12.957-6.826 26.914Z"/></svg>