<svg xmlns="http://www.w3.org/2000/svg" width="48" height="48" viewBox="0 96 960 960"><path d="M480.002 991.827q-36.393 0-70.654-5.783-34.261-5.782-67.696-17.913 21.218-8.826 42.892-27.283 21.674-18.457 29.935-36.239 17.304 4 31.777 5.717 14.472 1.717 35.179 1.717 59.748 0 116.787-22.587 57.038-22.586 106.734-65.891Q608.391 799 536.021 742.348 463.652 685.696 420.5 608.891q-43.152-76.804-54.805-167.673-11.652-90.87 13.783-183.87Q277.174 293.87 210.848 384t-66.891 200.609q-25.634 3-44.644 10.543-19.01 7.544-34.14 17.935-7.565-79.043 16.456-156.521 24.022-77.479 75.587-140.218 51.566-62.739 126.87-104.261 75.305-41.522 169.305-48.088 19.68-1.565 27.688 11.522 8.009 13.088.183 32.001-43.87 97.826-38.783 192.652 5.087 94.826 49.777 171.509 44.69 76.682 123.696 127.521 79.005 50.839 183.439 60.534 21.479 2.696 28.305 15.849 6.827 13.152-4.13 29.37-59.826 88.522-149.435 137.696-89.609 49.174-194.129 49.174ZM290 909.391H170q-55.79 0-94.59-37.786-38.801-37.786-38.801-95.561 0-55.74 38.87-94.588 38.871-38.847 94.116-38.847 41.97 0 74.035 22.5 32.066 22.5 46.631 57.5H290q39.795 0 66.593 26.777 26.798 26.778 26.798 66.544t-26.798 66.614Q329.795 909.391 290 909.391Zm125.739-318.13Z"/></svg>