<svg xmlns="http://www.w3.org/2000/svg" width="48" height="48" viewBox="0 96 960 960"><path d="M585.652 990.131q-91.392 0-172.435-33.348-81.044-33.348-142.24-90.826-61.195-57.478-96.826-134.305-35.63-76.826-35.63-163.652t35.63-163.87q35.631-77.043 96.826-134.804 61.196-57.761 142.24-91.392 81.043-33.63 172.435-33.63 38.565 0 78.435 8.695 39.87 8.696 78.653 24.088 16.087 7.826 17.022 20.065.934 12.239-13.022 24.196-82.261 66.826-132.109 155.565Q564.783 465.652 564.783 568q0 101.348 49.848 190.587 49.848 89.239 132.109 154.5 13.956 11.391 13.022 24.196-.935 12.804-17.022 20.065-38.783 15.957-78.653 24.37-39.87 8.413-78.435 8.413Z"/></svg>