<svg xmlns="http://www.w3.org/2000/svg" width="48" height="48"><path d="m41.15 36.55-4-3.95V14.85q0-1.7-1.15-2.85-1.15-1.15-2.85-1.15H15.4l-3.65-3.7q.2-.1.525-.2t.625-.15V5.5q.1-1.1.925-1.875.825-.775 2.025-.775 1.15 0 2.075.75.925.75.925 2.1v1.15h10.3V5.7q0-1.35.95-2.1t2.05-.75q1.25 0 2.125.875t.875 2.125V7.2q2.55.45 4.275 2.625Q41.15 12 41.15 14.85zm-7.4-7.4L29 24.45h3.35q.55.1.925.475t.475.925zm-22.9 16q-1.65 0-2.825-1.175Q6.85 42.8 6.85 41.15v-26.3q0-.7.15-1.6.15-.9.45-1.4L3.3 7.7q-.5-.45-.5-1.15t.5-1.2q.5-.5 1.2-.5t1.2.5L42.65 42.3q.5.5.475 1.2-.025.7-.525 1.2t-1.15.5q-.65 0-1.1-.5l-.55-.45q-.55.45-1.225.675-.675.225-1.425.225zm0-4h25.9l-13.5-13.5H15.8q-.7 0-1.175-.45-.475-.45-.475-1.2 0-.65.425-1.125t1.075-.525h4.25l-9.05-9.1v25.9zm15.75-19.1zm-2.85 6.05z"/></svg>