<svg xmlns="http://www.w3.org/2000/svg" width="48" height="48" viewBox="0 -960 960 960"><path d="m816.522-55.652-50.652-50.217H145.087q-33.478 0-56.348-22.87-22.87-22.87-22.87-56.348v-502.826q0-33.478 22.87-56.631 22.87-23.152 56.348-23.152h49.478v91.087L47-824.739q-9.565-9.565-9.848-23.196-.282-13.63 9.848-23.761 10.13-10.13 23.761-10.13 13.63 0 23.761 10.13l769.522 768.957q9.565 10.13 9.565 23.544 0 13.413-10.13 23.543-9.566 9.566-23.196 9.566-13.631 0-23.761-9.566Zm52.957-170.044q-10.261 3.565-21.87 2.282-11.609-1.282-20.87-10.543L649.957-410.74q5.173-40.739-5.827-79.978t-40.304-68.543q-29.869-29.304-69.108-40.369-39.239-11.066-80.544-6.327L305.609-755.088q-4.435-3.869-6.435-8.869t-2-10.435q0-5 1.5-9.783 1.5-4.782 6.065-9.217l30.478-36.913q10.826-12.696 25.37-18.544 14.543-5.847 31.935-5.847h175.521q16.261 0 31.087 5.847 14.827 5.848 25.653 18.544l56.13 62.609h134q33.478 0 56.631 23.152 23.152 23.153 23.152 56.631v425.607q0 13.392-7.478 22.935-7.478 9.544-17.739 13.675Zm-387.783-36.347q26 0 51.282-7.218 25.283-7.217 47.848-22.217L335.478-536.826q-15 22.565-22.217 47.848-7.218 25.282-7.218 51.282 0 73.261 51.196 124.457t124.457 51.196Zm-2.261-71.305q-42.609 0-72.348-29.739-29.739-29.739-29.739-72.348 0-20.304 7.435-39.174 7.435-18.869 22.304-33.739l145.261 145.261q-14.87 14.869-33.739 22.304-18.87 7.435-39.174 7.435Z"/></svg>