<svg xmlns="http://www.w3.org/2000/svg" width="48" height="48" viewBox="0 -960 960 960"><path d="M480.344-65.869q-86.203 0-161.506-32.395-75.302-32.395-131.741-88.833-56.438-56.439-88.833-131.738-32.395-75.299-32.395-161.587 0-86.288 32.395-161.665t88.745-131.345q56.349-55.968 131.69-88.616 75.34-32.648 161.676-32.648 86.335 0 161.779 32.604t131.37 88.497q55.926 55.893 88.549 131.452 32.623 75.559 32.623 161.877 0 86.281-32.648 161.575-32.648 75.293-88.616 131.478-55.968 56.186-131.426 88.765-75.459 32.58-161.662 32.58Zm.156-79.218q139.239 0 236.826-97.732 97.587-97.732 97.587-237.681 0-139.239-97.4-236.826-97.399-97.587-237.796-97.587-139.021 0-236.826 97.4-97.804 97.399-97.804 237.796 0 139.021 97.732 236.826 97.732 97.804 237.681 97.804Zm38.358-99.261q-38.119 0-67.802-23.456-29.683-23.456-43.143-59.935-3.057-8.769-6.776-16.46-3.719-7.691-10.094-13.844l-50-51q-25.22-26.024-40.958-59.398-15.737-33.375-15.737-69.292 0-74.803 51.123-126.361 51.124-51.558 124.442-51.558 50.833 0 93.721 26.347 42.888 26.348 64.453 72.479 9.131 18.391-1.315 35.435-10.446 17.043-30.615 17.043-10.884 0-19.501-5.664-8.616-5.664-12.743-15.727-13.844-26.949-38.71-42.779-24.866-15.83-54.913-15.83-44.029 0-74.333 30.181-30.305 30.18-30.305 73.894 0 21.857 7.935 42.152t23.37 35.164l55 54q13.808 13.704 21.922 29.671 8.115 15.966 14.208 33.59 4.7 13.305 16.355 21.674 11.655 8.37 25.93 8.37 12.079 0 22.222-6.76t16.319-17.414q3.565-8.131 12.05-11.979 8.484-3.847 17.914-3.847 20.23 0 30.786 17.043 10.555 17.044.859 33.87-14.565 28.696-42.146 44.544-27.582 15.847-59.518 15.847ZM542.379-410q20.882 0 35.382-14.618 14.5-14.617 14.5-35.5 0-20.882-14.618-35.382-14.617-14.5-35.5-14.5-20.882 0-35.382 14.618-14.5 14.617-14.5 35.5 0 20.882 14.618 35.382 14.617 14.5 35.5 14.5Z"/></svg>