<svg xmlns="http://www.w3.org/2000/svg" width="48" height="48" viewBox="0 96 960 960"><path d="M480.344 990.131q-86.203 0-161.506-32.395-75.302-32.395-131.741-88.833-56.438-56.439-88.833-131.738-32.395-75.299-32.395-161.587 0-86.288 32.395-161.665t88.745-131.345q56.349-55.968 131.69-88.616 75.34-32.648 161.676-32.648 86.335 0 161.779 32.604t131.37 88.497q55.926 55.893 88.549 131.452 32.623 75.559 32.623 161.877 0 86.281-32.648 161.575-32.648 75.293-88.616 131.478-55.968 56.186-131.426 88.765-75.459 32.579-161.662 32.579Zm.156-79.218q139.239 0 236.826-97.732 97.587-97.732 97.587-237.681 0-139.239-97.4-236.826-97.399-97.587-237.796-97.587-139.021 0-236.826 97.4-97.804 97.399-97.804 237.796 0 139.021 97.732 236.826 97.732 97.804 237.681 97.804Zm38.241-99.261q-39.437 0-68.524-23.599-29.088-23.599-42.304-59.792-3.435-10.435-7.652-18.152-4.218-7.718-9.218-12.152l-50-51q-26.565-27.131-41.63-58.823-15.065-31.692-15.065-69.722 0-73.673 50.695-125.869 50.696-52.195 124.613-52.195 52.474 0 94.888 27.347 42.413 27.348 63.543 71.479 9.131 18.391-.901 35.435-10.031 17.043-31.068 17.043-10.845 0-19.462-5.664-8.616-5.664-12.976-15.727-12.637-25.304-37.628-41.956-24.99-16.653-55.552-16.653-43.239 0-74.043 30.181-30.805 30.18-30.805 74.084 0 21.953 7.935 42.105 7.935 20.152 23.37 35.021l55 54q15.7 15.581 23.618 32.933 7.917 17.351 12.512 30.328 4.7 13.305 16.329 21.674 11.628 8.37 26.171 8.37 12.305 0 22.563-6.87 10.257-6.869 15.763-17.304 3.317-8.16 11.882-11.993t18.092-3.833q19.92 0 30.625 16.748 10.706 16.748 1.01 34.165-13.6 26.964-40.858 43.678-27.258 16.713-60.923 16.713ZM542.359 646q20.902 0 35.402-15t14.5-35.098q0-20.902-14.5-35.402T542.359 546q-20.663 0-35.381 14.5-14.717 14.5-14.717 35.402 0 20.098 14.717 35.098 14.718 15 35.381 15Z"/></svg>