<svg xmlns="http://www.w3.org/2000/svg" width="48" height="48"><path d="m30.1 20.8-2.95-3.05-12.4 12.45q-.25.2-.325.45-.075.25-.075.55v1.55q0 .35.25.6t.55.25h1.6q.25 0 .5-.1t.45-.3zm.9-.9 1.95-1.95q.35-.35.375-.775.025-.425-.375-.825l-1.45-1.4q-.35-.4-.775-.375-.425.025-.775.375l-1.9 1.9zM9.25 42.8q-1.65 0-2.8-1.175T5.3 38.8V9.3q0-1.6 1.15-2.775Q7.6 5.35 9.25 5.35h8.7q.85-1.8 2.475-2.9 1.625-1.1 3.625-1.1 1.95 0 3.55 1.1 1.6 1.1 2.5 2.9h8.65q1.65 0 2.825 1.175Q42.75 7.7 42.75 9.3v29.5q0 1.65-1.175 2.825Q40.4 42.8 38.75 42.8zM24 8.5q.8 0 1.35-.575t.55-1.375q0-.75-.55-1.325T24 4.65q-.8 0-1.35.575T22.1 6.55q0 .8.55 1.375T24 8.5zM9.25 38.8h29.5V9.3H9.25v29.5zm0-29.6v29.2V9.2z"/></svg>