<svg xmlns="http://www.w3.org/2000/svg" width="48" height="48" viewBox="0 -960 960 960"><path d="M480.283-60.782q-34.95 0-59.878-24.994-24.927-24.994-24.927-60.093h169.609q0 35.261-25.044 60.174Q515-60.782 480.283-60.782ZM185.478-185.869q-16.707 0-28.158-11.502-11.451-11.501-11.451-28.282 0-16.782 11.451-28.108t28.158-11.326h35.304v-289.869q0-87.522 50.978-159.892 50.978-72.37 138.631-91.065v-18.609q0-29.239 20.302-49.707 20.303-20.467 49.307-20.467t49.307 20.392q20.302 20.393 20.302 49.525v29.611q3.478.603 6.804 1.255 3.326.652 4.935.391 5.347 6.957 6.825 18.239 1.478 11.283-1.758 22.521-4.366 12.933-17.239 20.13-12.873 7.197-27.699 6.023-13.391-3.043-21.456-5.695t-22.282-2.652q-74.336 1.13-126.037 53.581Q300-628.924 300-554.956v289.869h360v-78.478q0-20.087 12.401-30.13 12.402-10.044 27.283-10.044 14.882 0 27.491 10.044 12.609 10.043 12.609 30.13v78.478h34.738q16.636 0 28.405 11.501 11.769 11.502 11.769 28.283 0 16.782-11.769 28.108t-28.405 11.326H185.478Zm541.131-386.392h-93.218q-14.191 0-23.791-9.41-9.6-9.411-9.6-23.874 0-14.464 9.36-23.981 9.36-9.518 24.031-9.518h93.218v-93.217q0-14.191 9.41-23.791t24.156-9.6q14.747 0 23.982 9.6 9.234 9.6 9.234 23.791v93.217h93.218q14.191 0 23.791 9.651 9.6 9.65 9.6 23.916 0 14.746-9.36 23.981-9.36 9.235-24.031 9.235h-93.218v93.217q0 14.191-9.41 23.791-9.41 9.601-24.156 9.601-14.747 0-23.982-9.36-9.234-9.36-9.234-24.032v-93.217ZM480-499.739Z"/></svg>