<svg xmlns="http://www.w3.org/2000/svg" width="48" height="48" viewBox="0 -960 960 960"><path d="M185.48-185.87q-16.71 0-28.16-11.5t-11.45-28.28q0-16.78 11.45-28.11 11.45-11.33 28.16-11.33h35.3v-289.87q0-89.08 51.48-160.67 51.48-71.59 138.13-90.28v-18.61q0-29.52 20.33-49.85Q451.04-894.7 480-894.7t49.28 20.33q20.33 20.33 20.33 49.85v18.61q86.65 18.13 138.41 90 51.76 71.87 51.76 160.95v289.87h34.74q16.71 0 28.44 11.5 11.74 11.51 11.74 28.29t-11.74 28.1q-11.73 11.33-28.44 11.33H185.48ZM480.57-60.78q-35.27 0-60.18-24.91-24.91-24.92-24.91-60.18h169.61q0 35.26-24.92 60.18-24.91 24.91-59.6 24.91Zm21.5-383.17q9.06-8.91 9.06-21.66v-142.13q0-13.31-9.24-22.22-9.24-8.91-22.07-8.91-12.82 0-21.6 8.91-8.79 8.91-8.79 22.22v142.13q0 12.75 8.96 21.66t21.79 8.91q12.82 0 21.89-8.91Zm-22.09 118.86q14.59 0 24.93-10.04 10.35-10.05 10.35-24.64 0-14.58-10.33-24.93-10.33-10.34-24.91-10.34-14.59 0-24.93 10.33-10.35 10.33-10.35 24.91t10.33 24.65q10.33 10.06 24.91 10.06Z"/></svg>