<svg xmlns="http://www.w3.org/2000/svg" width="48" height="48" viewBox="0 -960 960 960"><path d="M480.57-60.78q-35.27 0-60.18-24.91-24.91-24.92-24.91-60.18h169.61q0 35.26-24.92 60.18-24.91 24.91-59.6 24.91Zm246.04-503h-93.22q-13.88 0-23.63-9.53-9.76-9.52-9.76-23.76 0-14.23 9.47-23.86 9.48-9.64 23.92-9.64h93.22v-93.21q0-13.88 9.52-23.64 9.53-9.75 24.05-9.75 14.52 0 23.86 9.75 9.35 9.76 9.35 23.64v93.21h93.22q13.88 0 23.63 9.81 9.76 9.81 9.76 24.04 0 14.24-9.47 23.59-9.48 9.35-23.92 9.35h-93.22v93.21q0 13.89-9.52 23.64-9.53 9.76-24.05 9.76-14.52 0-23.86-9.48-9.35-9.47-9.35-23.92v-93.21ZM185.48-185.87q-16.71 0-28.16-11.5t-11.45-28.28q0-16.78 11.45-28.11 11.45-11.33 28.16-11.33h35.3v-289.87q0-89.08 51.48-160.67 51.48-71.59 138.13-90.28v-18.61q0-29.52 20.33-49.85Q451.04-894.7 480-894.7t49.28 20.33q20.33 20.33 20.33 49.85v40.65q10.3 2.44 21.39 5.87 11.09 3.44 20.96 8.44 4.78 7.26 3.8 16.78-.98 9.52-7.28 16.82-23.74 28.44-36.89 63.74-13.16 35.31-13.16 75.05 0 78.71 48.11 137.83 48.11 59.12 121.07 77.43 12.96 3.56 22.56 10.63 9.61 7.06 9.61 21.02v85.17h34.74q16.71 0 28.44 11.5 11.74 11.51 11.74 28.29t-11.74 28.1q-11.73 11.33-28.44 11.33H185.48Z"/></svg>