<svg xmlns="http://www.w3.org/2000/svg" width="48" height="48" viewBox="0 -960 960 960"><path d="M685.218-185.869h-499.74q-16.957 0-28.283-11.326t-11.326-28.283q0-16.957 11.326-28.283t28.283-11.326h35.304v-289.869q0-38.653 9.978-75.74 9.978-37.087 31.5-70.609l6.825 146.349h47.48L86.956-784q-10.13-10.13-9.848-23.261.283-13.13 10.413-23.261 10.13-9.565 23.261-9.565 13.131 0 23.261 9.565l699.262 700.827q10.13 10.13 10.13 23.261 0 13.13-10.13 23.26-10.131 10.131-23.261 10.131-13.131 0-23.261-10.13L685.218-185.87Zm54.566-132.391L306.043-751.001q22.435-20.739 48.239-34.891 25.805-14.152 56.109-20.021v-18.609q0-29.522 20.326-49.848T480-894.696q28.957 0 49.283 20.326t20.326 49.848v18.609q86.653 17.565 138.414 89.717 51.761 72.153 51.761 161.24v236.696ZM480.565-60.782q-35.261 0-60.174-24.913-24.913-24.913-24.913-60.174h169.609q0 35.261-24.913 60.174-24.913 24.913-59.609 24.913Z"/></svg>