<svg xmlns="http://www.w3.org/2000/svg" width="48" height="48" viewBox="0 96 960 960"><path d="M155.478 950.131q-16.522 0-28.066-11.543-11.543-11.544-11.543-28.566 0-16.457 11.543-27.783 11.544-11.326 28.066-11.326h26.999V615.609h-36.999q-16.522 0-28.066-11.826-11.543-11.826-11.543-28.283t11.543-27.783q11.544-11.326 28.066-11.326h36.999V281.087h-26.999q-16.522 0-28.066-11.826-11.543-11.826-11.543-28.283t11.543-28.066q11.544-11.608 28.066-11.608h649.044q16.707 0 28.158 11.733 11.451 11.734 11.451 28.441 0 15.957-11.451 27.783t-28.158 11.826h-26.999v255.304h36.999q16.707 0 28.441 11.451 11.733 11.451 11.733 28.158 0 15.957-11.733 27.783-11.734 11.826-28.441 11.826h-36.999v255.304h26.999q16.707 0 28.158 11.451t11.451 28.158q0 16.522-11.451 28.066-11.451 11.543-28.158 11.543H155.478Zm324.64-232.783q44.186 0 75.056-30.097 30.869-30.097 30.869-73.155 0-28.096-12.434-46.748-12.435-18.652-48.739-61.391l-20.174-24.609q-9.816-12.13-25.104-12.13-15.288 0-24.853 12.13l-19.609 23.609q-36.869 42.739-48.739 61.955-11.869 19.216-11.869 47.27 0 42.992 30.705 73.079 30.704 30.087 74.891 30.087Z"/></svg>