<svg xmlns="http://www.w3.org/2000/svg" width="48" height="48" viewBox="0 -960 960 960"><path d="M100.782-331.87q0-46.964 32.648-79.613 32.649-32.648 79.613-32.648h99.783q68.217 0 90.065-23.108 21.847-23.109 21.847-58.63 0-34.261-18.38-54.391-18.381-20.131-45.576-20.131-24.75 0-42.375-17.625t-17.625-42.375V-850q0-16.707 11.501-28.158 11.502-11.451 28.283-11.451 16.782 0 28.108 11.451T380-850v170.956l-1 .848q-1 .848 1 .848 54.522 3.391 89.522 46.392 35 43 35 105.087 0 68.435-45 114.978-45 46.543-146.696 46.543h-99.783q-14.467 0-23.755 9.288Q180-345.772 180-331.305V-110q0 16.707-11.502 28.158-11.501 11.451-28.283 11.451-16.781 0-28.107-11.451T100.782-110v-221.87ZM380-679.044v-210.565 210.565l-1 .848q-1 .848 1 .848 54.522 3.391 89.522 46.392 35 43 35 105.087 0 68.435-45 114.978-45 46.543-146.696 46.543h-99.783q-14.467 0-23.755 9.288Q180-345.772 180-331.305v260.914-260.914q0-14.467 9.288-23.755 9.288-9.288 23.755-9.288h99.783q101.696 0 146.696-46.543t45-114.978q0-62.087-35-105.087-35-43.001-89.522-46.392-2 0-1-.848l1-.848Zm479.784 254.393q-16.827-18.348-36.8-33.169-19.973-14.821-42.984-22.919v-35.304q0-83.478-58.934-143.913-58.935-60.435-141.282-60.435-32.664 0-56.224-23.277Q500-766.946 500-799.609V-850q0-16.707 11.502-28.158 11.501-11.451 28.283-11.451 16.781 0 28.39 11.451 11.609 11.451 11.609 28.158v50.391q113.695 3.957 196.847 86.631 83.153 82.674 83.153 196.935v91.392Zm-480 265.781V-110q0 16.707-11.785 28.158-11.784 11.451-28.565 11.451-16.782 0-28.108-11.451T300-110v-48.87q0-46.398 32.649-79.329 32.648-32.931 80.177-32.931h51.131q-.566 21.087 2.848 40.807 3.413 19.719 10.804 38.411h-64.783q-14.467 0-23.755 9.57-9.287 9.571-9.287 23.472Zm314.738-28.348q33.478 0 56.369-22.891t22.891-56.934q0-33.478-22.891-56.369-22.891-22.892-56.369-22.892-34.043 0-56.934 22.892-22.892 22.891-22.892 56.369 0 34.043 22.892 56.934 22.891 22.891 56.934 22.891Zm0 70.74q-63 0-106.783-43.783-43.782-43.782-43.782-106.782t43.782-106.5q43.783-43.5 106.783-43.5t106.5 43.5q43.5 43.5 43.5 106.5 0 22.947-6.152 42.995t-18.022 37.483l78.565 79.13q10.696 10.696 10.696 24.674 0 13.979-10.696 24.674-10.695 10.696-24.674 10.696-13.978 0-24.674-10.696l-79.13-78.565q-15.87 9.87-35.339 15.022-19.47 5.152-40.574 5.152Z"/></svg>