<svg xmlns="http://www.w3.org/2000/svg" width="48" height="48" viewBox="0 -960 960 960"><path d="M185.09-105.87q-32.48 0-55.85-23.37-23.37-23.37-23.37-55.85v-589.82q0-32.48 23.37-56.13 23.37-23.66 55.85-23.66h589.82q32.48 0 56.13 23.66 23.66 23.65 23.66 56.13v589.82q0 32.48-23.66 55.85-23.65 23.37-56.13 23.37H619.78q-17.52 0-28.84-11.33-11.33-11.32-11.33-28.28 0-16.95 11.33-28.28 11.32-11.33 28.84-11.33h155.13v-523.04H185.09v523.04h155.69q16.96 0 28.28 11.33 11.33 11.33 11.33 28.28 0 16.96-11.33 28.28-11.32 11.33-28.28 11.33H185.09Zm255.3-39.61v-236.48l-49.56 49q-11.26 11.83-27.22 12.11-15.96.29-27.78-12.11-11.83-11.26-11.83-28 0-16.74 11.83-28.56l115.82-116.83q6.13-6.13 13.39-9.26 7.26-3.13 14.96-3.13 7.7 0 14.96 3.13 7.26 3.13 13.39 9.26l116.82 116.83Q637-377.7 637-361.74t-11.83 27.78q-11.82 12.4-28.28 12.11-16.46-.28-28.28-12.11l-49-48v236.48q0 16.96-11.33 28.28-11.32 11.33-28.28 11.33t-28.28-11.33q-11.33-11.32-11.33-28.28Z"/></svg>