<svg xmlns="http://www.w3.org/2000/svg" width="48" height="48" viewBox="0 -960 960 960"><path d="M185.087-105.869q-32.507 0-55.862-23.356-23.356-23.355-23.356-55.862v-589.826q0-32.74 23.356-56.262 23.355-23.521 55.862-23.521h234.304q16.707 0 28.158 11.833Q459-831.029 459-814.297t-11.451 28.058q-11.451 11.326-28.158 11.326H185.087v589.826h589.826v-234.304q0-16.707 11.501-28.158Q797.916-459 814.648-459t28.39 11.451q11.658 11.451 11.658 28.158v234.304q0 32.507-23.521 55.862-23.522 23.356-56.262 23.356H185.087Zm182.261-261.74q-10.957-11.435-11.457-27.172t11.327-28.003l352.694-352.129H558.609q-16.707 0-28.158-11.501Q519-797.916 519-814.648t11.451-28.39q11.451-11.658 28.158-11.658h255.913q16.636 0 28.405 11.769 11.769 11.769 11.769 28.405v255.913q0 16.707-11.833 28.158Q831.029-519 814.297-519t-28.058-11.451q-11.326-11.451-11.326-28.158v-160.303L422.784-366.218q-11.268 10.827-27.504 10.544-16.236-.283-27.932-11.935Z"/></svg>