<svg xmlns="http://www.w3.org/2000/svg" width="48" height="48" viewBox="0 -960 960 960"><path d="M217.565-70.39q-16.707 0-28.158-11.452Q177.955-93.293 177.955-110v-300q0-16.707 11.452-28.158 11.451-11.451 28.158-11.451h41.521v-184.434l-79.826-80.391q-23.217-23.152-23.217-55.533t23.217-55.599l76.217-76.217q11.627-11.826 27.401-11.826t28.165 11.879q11.827 11.879 11.827 28.283 0 16.404-11.827 28.23L234.826-770l79.826 80.391q11.391 10.826 17.804 25.631 6.414 14.804 6.414 30.935v183.434h41.521q16.707 0 28.158 11.451T420-410v300q0 16.707-11.451 28.158t-28.158 11.451H217.565Zm362.044 0q-16.707 0-28.158-11.452Q540-93.293 540-110v-300q0-16.707 11.451-28.158t28.158-11.451h41.521v-116.043q-52-13.261-86-57.739-34-44.479-34-101.219 0-68.347 46.327-116.673 46.326-48.326 113.848-48.326 66.957 0 113.283 48.357Q820.914-792.894 820.914-725q0 57.13-34 101.609-34 44.478-86 57.739v116.043h41.521q16.707 0 28.158 11.451 11.452 11.451 11.452 28.158v300q0 16.707-11.452 28.158-11.451 11.451-28.158 11.451H579.609Zm81.696-569.219q34.043 0 56.934-25.041t22.891-60.217q0-35.176-22.891-60.35t-56.934-25.174q-34.609 0-57.5 25.041t-22.891 60.217q0 35.176 22.891 60.35t57.5 25.174Z"/></svg>