<svg xmlns="http://www.w3.org/2000/svg" width="48" height="48" viewBox="0 -960 960 960"><path d="M148.695-193.001v-321.781l-51.521 39.217q-11.696 9.695-26.783 7.625-15.087-2.071-24.24-13.979Q37-493.826 39-508.935q2-15.109 14.261-24.239l378.87-288.435q10.826-7.696 22.575-12.044 11.748-4.348 24.652-4.348 13.469 0 25.295 4.348 11.827 4.348 22.653 12.044L906.61-532.174q12.461 9.157 14.144 24.252 1.682 15.096-7.448 26.792-9.588 12.46-23.686 13.86-14.097 1.4-26.358-7.73l-52.521-39.782v321.781q0 32.914-23.153 56.066-23.152 23.153-56.631 23.153H227.913q-32.913 0-56.065-23.153-23.153-23.152-23.153-56.066ZM324.562-361.13q19.3 0 32.174-12.874 12.873-12.873 12.873-32.174 0-18.735-12.873-31.931-12.874-13.196-32.174-13.196-18.736 0-31.932 13.156-13.195 13.156-13.195 31.892 0 19.3 13.195 32.213 13.196 12.914 31.932 12.914Zm154.833 0q19.301 0 32.496-13.157 13.196-13.156 13.196-31.891 0-19.301-13.196-32.496-13.195-13.196-32.496-13.196-18.735 0-31.891 13.196-13.156 13.195-13.156 32.496 0 18.735 13.156 31.891 13.156 13.157 31.891 13.157Zm155.557 0q19.301 0 32.175-13.157Q680-387.443 680-406.178q0-19.301-12.873-32.496-12.874-13.196-32.175-13.196-19.3 0-32.496 13.196-13.196 13.195-13.196 32.496 0 18.735 13.196 31.891 13.196 13.157 32.496 13.157Z"/></svg>