<svg xmlns="http://www.w3.org/2000/svg" width="48" height="48" viewBox="0 -960 960 960"><path d="M185.087-105.869q-32.507 0-55.862-23.356-23.356-23.355-23.356-55.862v-589.826q0-32.74 23.356-56.262 23.355-23.521 55.862-23.521h589.826q32.74 0 56.262 23.521 23.521 23.522 23.521 56.262v589.826q0 32.507-23.521 55.862-23.522 23.356-56.262 23.356H185.087ZM480-295.826q33.87 0 62.304-16.587 28.435-16.587 45.87-46.022 6.565-12.13 19.978-16.261 13.413-4.13 27.837-4.13h138.924v-396.087H185.087v396.087h139.652q13.618 0 27.07 4.13 13.452 4.131 20.017 16.261 17.435 29.435 45.87 46.022Q446.13-295.826 480-295.826ZM453-611l-59.13 59.13q-9 9-21 9t-20.718-8.434q-9.259-8.435-8.988-21.5.271-13.066 9.271-21.5l102.217-103.783q6.224-6.079 13.501-9.235 7.277-3.156 14.91-3.156t14.865 3.156q7.233 3.156 13.42 9.235L615.13-594.304q8.435 8.434 8.718 21 .282 12.565-8.718 21-9 8.434-21.5 8.434t-21.5-9L513-611v161.261q0 13-8.5 21.5t-21.5 8.5q-13 0-21.5-8.5t-8.5-21.5V-611Z"/></svg>