<svg xmlns="http://www.w3.org/2000/svg" width="48" height="48" viewBox="0 -960 960 960"><path d="M651-302.391q47.696 0 80.544 32.847 32.847 32.848 32.847 80.544t-32.847 80.544Q698.696-75.609 651-75.609q-36.565 0-66.413-21.5t-39.848-56.5H256.261l-40.435 61.87q-8.13 12.13-21.043 15.13-12.913 3-24.044-5.13-11.565-8.565-15.065-21.761t4.065-24.761l175.782-267.521q-65.434-25-109.934-79.609-44.5-54.609-60.761-124.739-2.435-17.957 9.326-31.218 11.761-13.261 30.283-13.261H678.13q17.957 0 29.218 13.261t8.826 31.218q-16.261 69.695-60.761 123.804-44.5 54.109-108.934 79.544l51.782 79.825q-15.696 6.435-30.957 17.413-15.261 10.979-23.261 22.544l-64.782-100.391q-8.826 2-18.544 2h-38.434q-9.718 0-19.544-2l-102.521 157h244.521q10-36.566 39.348-59.283T651-302.391Zm0 160q19.87 0 33.239-13.37 13.37-13.369 13.37-33.239 0-19.87-13.37-33.239-13.369-13.37-33.239-13.37-19.87 0-33.239 13.37-13.37 13.369-13.37 33.239 0 19.87 13.37 33.239 13.369 13.37 33.239 13.37ZM327.217-785.305q-20.696-25.565-28.826-47.544-8.131-21.978-5.565-48.674 1-8.13 6.913-13.478 5.913-5.348 14.043-5.348 7.131 0 11.979 6.131 4.848 6.13 4.848 13.261-1 23.869 5.152 40.804 6.152 16.935 21.891 36.978 18.13 25.13 26.478 47.609 8.348 22.478 7.913 48.478 0 8.696-5.913 14.326-5.913 5.631-14.609 5.631-7.13 0-11.978-6.131-4.848-6.13-3.283-13.826 1.435-19.869-5.217-37.456-6.652-17.587-23.826-40.761Zm85.913 0q-20.695-24.565-29.326-46.826-8.63-22.261-6.065-49.392 1-8.13 6.631-13.478 5.63-5.348 13.76-5.348 7.696 0 12.261 6.131 4.566 6.13 4.131 13.261-2 19.434 4.652 37.304 6.652 17.869 22.826 40.478 18.13 24.696 26.478 47.391 8.348 22.696 7.913 48.696.566 8.696-5.63 14.326-6.196 5.631-14.326 5.631-7.696 0-12.261-5.631-4.565-5.63-4-13.761 1-26.869-4.935-43.021t-22.109-35.761Zm84.349 0Q476.348-811.87 468-833.849q-8.348-21.978-6.348-47.674 1-8.13 6.914-13.478 5.913-5.348 14.043-5.348 7.696 0 11.979 6.131 4.282 6.13 3.282 13.261-2 19.434 4.652 37.304 6.652 17.869 24.391 40.478 18.131 24.13 26.196 47.109 8.065 22.978 7.196 48.978 0 8.696-5.913 14.326-5.913 5.631-14.044 5.631-7.696 0-12.261-6.131-4.565-6.13-4.565-14.826 2-24.869-4.152-41.239-6.152-16.369-21.891-35.978Z"/></svg>