<svg xmlns="http://www.w3.org/2000/svg" width="48" height="48" viewBox="0 -960 960 960"><path d="M185.087-105.869q-32.507 0-55.862-23.356-23.356-23.355-23.356-55.862v-589.826q0-32.74 23.356-56.262 23.355-23.521 55.862-23.521h590.391q32.507 0 55.863 23.521 23.355 23.522 23.355 56.262v43.608q0 17.272-11.501 28.723-11.502 11.452-28.283 11.452-16.782 0-28.108-11.452-11.326-11.451-11.326-28.723v-43.608H185.087v589.826h590.391v-44.173q0-16.707 11.502-28.158 11.501-11.452 28.283-11.452 16.781 0 28.107 11.452 11.326 11.451 11.326 28.158v44.173q0 32.507-23.355 55.862-23.356 23.356-55.863 23.356H185.087ZM742.39-440.391H388.87q-16.707 0-28.158-11.501-11.452-11.502-11.452-28.283 0-16.782 11.452-28.108 11.451-11.326 28.158-11.326h353.52L673-589.999q-10.826-11.827-11.044-27.77-.217-15.944 11.609-27.796 11.826-11.826 27.783-11.826t27.783 11.826l137.217 137.217q6.079 6.224 9.235 13.634 3.157 7.411 3.157 14.91 0 7.5-3.157 14.732-3.156 7.233-9.235 13.42L729.131-314.435q-11.826 11.826-27.67 11.826-15.843 0-27.896-11.826-11.826-11.826-12.109-27.783-.282-15.956 11.544-27.783l69.39-70.39Z"/></svg>