<svg xmlns="http://www.w3.org/2000/svg" width="48" height="48" viewBox="0 -960 960 960"><path d="M106.22-185.87q-32.51 0-55.86-23.35Q27-232.58 27-265.09v-429.82q0-32.74 23.36-56.26 23.35-23.53 55.86-23.53h429.82q32.74 0 56.27 23.53 23.52 23.52 23.52 56.26v429.82q0 32.51-23.52 55.87-23.53 23.35-56.27 23.35H106.22Zm0-79.22h429.82v-429.82H106.22v429.82Zm611.04 69.86q-9.35-9.36-9.35-23.78V-741.3q0-14.2 9.53-23.8 9.52-9.6 23.7-9.6 14.19 0 23.87 9.6 9.69 9.6 9.69 23.8v522.29q0 14.42-9.86 23.78-9.86 9.36-24.05 9.36-14.18 0-23.53-9.36Zm158.64 0q-9.68-9.36-9.68-23.78V-741.3q0-14.2 9.86-23.8 9.86-9.6 24.04-9.6t23.53 9.6q9.35 9.6 9.35 23.8v522.29q0 14.42-9.52 23.78-9.53 9.36-23.71 9.36-14.18 0-23.87-9.36Zm-769.68-69.86v-429.82 429.82Z"/></svg>