<svg xmlns="http://www.w3.org/2000/svg" width="48" height="48" viewBox="0 -960 960 960"><path d="M145.087-145.869q-32.507 0-55.862-23.356-23.356-23.355-23.356-55.862v-509.826q0-32.74 23.356-56.262 23.355-23.521 55.862-23.521h669.826q32.74 0 56.262 23.521 23.521 23.522 23.521 56.262v509.826q0 32.507-23.521 55.862-23.522 23.356-56.262 23.356H145.087Zm0-79.218h669.826v-509.826H145.087v509.826Zm0 0v-509.826 509.826Zm320.435-103.391q26 0 50.652-7.935t44.087-24.369l67.26 67.825q10.131 10.131 23.261 10.131 13.131 0 23.261-10.131 10.131-10.13 10.131-23.261 0-13.13-10.131-23.261l-67.825-67.26q13.434-20.747 19.869-43.432 6.435-22.685 6.435-47.307 0-70.417-48.708-119.708-48.709-49.292-118.292-49.292-71.25 0-121.125 49t-49.875 120q0 71 49.875 120t121.125 49Zm-.016-66.783q-43.158 0-73.679-29.282-30.522-29.283-30.522-72.696t30.522-73.217q30.521-29.804 73.179-29.804t71.695 30.431q29.038 30.432 29.038 72.59t-29.068 72.068q-29.067 29.91-71.165 29.91Z"/></svg>