<svg xmlns="http://www.w3.org/2000/svg" width="48" height="48" viewBox="0 -960 960 960"><path d="M185.087-105.869q-32.507 0-55.862-23.356-23.356-23.355-23.356-55.862v-589.826q0-32.74 23.356-56.262 23.355-23.521 55.862-23.521h589.826q32.74 0 56.262 23.521 23.521 23.522 23.521 56.262v589.826q0 32.507-23.521 55.862-23.522 23.356-56.262 23.356H185.087Zm0-79.218h589.826v-589.826H185.087v589.826Zm0-589.826v589.826-589.826ZM480-381l77.391 46.782q11.014 7.261 21.464-1 10.449-8.261 7.884-21.087L566-443l67.956-59.652q10.261-8.696 5.913-20.804-4.348-12.109-17.174-13.674l-89.54-6.845-34.633-82.851q-5.147-12.391-18.53-12.391-13.383 0-18.514 12.391l-34.633 82.851-89.54 6.845q-12.826 1.565-17.174 13.674-4.348 12.108 5.913 20.804L394-443l-20.174 86.695q-3.13 12.557 7.366 20.953 10.497 8.395 21.417 1.134L480-381Z"/></svg>