<svg xmlns="http://www.w3.org/2000/svg" width="48" height="48" viewBox="0 -960 960 960"><path d="M169.609-100.782v1.912q0 16.707-11.451 28.159-11.451 11.45-28.158 11.45h-28.479q-16.706 0-28.158-11.45-11.45-11.452-11.45-28.159v-21.521q0-16.707 11.45-28.158Q84.815-160 101.521-160h756.958q16.706 0 28.158 11.451 11.451 11.451 11.451 28.158v21.522q0 16.706-11.451 28.157-11.452 11.452-28.158 11.452H830q-16.707 0-28.158-11.452-11.451-11.45-11.451-28.157v-1.913h-256.26v1.912q0 16.707-11.451 28.159-11.451 11.45-28.158 11.45h-28.479q-17.272 0-28.723-11.45-11.451-11.452-11.451-28.159v-1.912h-256.26ZM230-310.391q-16.707 0-28.158-11.451T190.391-350v-500q0-16.707 11.451-28.158T230-889.609h500q16.707 0 28.158 11.451T769.609-850v510q0 13.022-8.293 21.316-8.294 8.293-21.316 8.293H230Zm347.739-337.174q12.457 0 21.033-8.576t8.576-21.598q0-12.457-8.576-21.033t-21.033-8.576H382.826q-13.022 0-21.598 8.576-8.576 8.576-8.576 21.033 0 13.022 8.576 21.598 8.576 8.576 21.598 8.576h194.913Z"/></svg>