<svg xmlns="http://www.w3.org/2000/svg" width="48" height="48" viewBox="0 96 960 960"><path d="M268.13 736h425.305q12.25 0 17.734-10.703 5.483-10.702-1.778-21.21l-115.869-159q-6.87-7.696-16.609-7.696t-15.87 7.696L446 697.434l-75.478-106.347q-6.87-7.696-16.609-8.196t-15.87 7.196l-86.434 114q-7.696 10.261-1.924 21.087Q255.456 736 268.13 736ZM145.087 910.131q-32.507 0-55.862-23.356-23.356-23.355-23.356-55.862V321.087q0-32.74 23.356-56.262 23.355-23.521 55.862-23.521h669.826q33.74 0 56.762 23.521 23.021 23.522 23.021 56.262v509.826q0 32.507-23.021 55.862-23.022 23.356-56.762 23.356H145.087Z"/></svg>