<svg xmlns="http://www.w3.org/2000/svg" width="48" height="48" viewBox="0 -960 960 960"><path d="M415.652-214.869H168.521q-23.935 0-35.337-21.087-11.402-21.087 2.424-41.174l146.825-211.739h-35.869q-18.72 0-27.925-16.372-9.206-16.373 2.36-31.758l226.088-321.002q6.13-8.261 14.891-12.891 8.761-4.631 18.022-4.631t18.022 4.631q8.761 4.63 14.891 12.891l226.654 321.002q11 15.565 1.855 31.848-9.144 16.282-27.986 16.282h-34.869L824.392-277.13q13.826 20.087 2.424 41.174-11.402 21.087-35.337 21.087H545.348v109.391q0 16.957-11.326 28.283T505.739-65.87h-49.913q-17.522 0-28.848-11.326t-11.326-28.283V-214.87Zm-170.043-79.218h189-90 270.782-89 189-469.782Zm0 0h469.782l-189-274h89L480-759.956 344.609-568.087h90l-189 274Z"/></svg>