<svg xmlns="http://www.w3.org/2000/svg" width="48" height="48" viewBox="0 -960 960 960"><path d="m744.478-159.956-63-63q-11.826-11.893-11.826-28.599t11.826-28.532q11.826-11.826 28.25-11.826 16.423 0 28.316 11.826l63 63q11.826 11.893 11.826 28.599t-11.879 28.532q-11.879 11.826-28.565 11.826-16.687 0-27.948-11.826ZM240-169.826q-62.272 0-106.223-44.003T89.826-320.177q0-61.78 44.233-105.606Q178.293-469.609 240-469.609q41.683 0 77.013 22.32 35.329 22.32 51.596 60.767l15.409 34.782h35.852q37.521 0 63.63 27.109T509.609-260q0 37.522-26.609 63.848t-63.565 26.326H240Zm326.479-92.783q-2.827-60.435-44.109-103.37-41.283-42.934-100.718-44.63-20-54.87-67.717-87.87-47.717-33-106.022-30.565 14.566-82.913 80.805-135.239Q394.957-716.609 480-716.609q98.87 0 167.739 68.87 68.87 68.869 68.87 167.739 0 73.478-41.109 132.652-41.109 59.174-109.021 84.739Zm236.912-177.782q-16.706 0-28.157-11.501-11.452-11.502-11.452-28.283 0-16.782 11.452-28.108 11.451-11.326 28.157-11.326h90q16.707 0 28.158 11.501 11.452 11.502 11.452 28.283 0 16.782-11.452 28.108-11.451 11.326-28.158 11.326h-90ZM223.956-680.478l-64-64q-11.826-11.826-11.826-27.783t11.826-27.783q11.626-11.826 27.966-11.826 16.339 0 27.6 11.826l64 64q11.826 11.626 11.826 27.683 0 16.057-11.826 27.883t-27.783 11.826q-15.957 0-27.783-11.826Zm456.522 0q-11.826-11.826-11.826-28.25 0-16.423 11.826-28.316l63-63q11.328-11.826 28.034-11.826t28.532 11.826q11.826 11.826 11.826 27.783t-11.826 27.783l-64 64q-11.826 11.826-27.783 11.826t-27.783-11.826Zm-200.653-83.304q-16.782 0-28.108-11.452-11.326-11.451-11.326-28.157v-90q0-16.707 11.501-28.158 11.502-11.452 28.283-11.452 16.782 0 28.108 11.452 11.326 11.451 11.326 28.158v90q0 16.706-11.501 28.157-11.502 11.452-28.283 11.452Z"/></svg>