<svg xmlns="http://www.w3.org/2000/svg" width="48" height="48" viewBox="0 -960 960 960"><path d="M147.81-458.52q-51.24 0-86.87-35.87Q25.3-530.26 25.3-581.5t35.81-86.87Q96.92-704 148.08-704t86.65 35.87q35.49 35.86 35.49 87.1 0 51.24-35.71 86.88-35.7 35.63-86.7 35.63Zm-42.9 272.65q-16.9 0-27.97-11.5t-11.07-28.42q0-16.92 11.45-27.83 11.45-10.9 28.16-10.9h749.61q16.83 0 28.22 11.5t11.39 28.42q0 16.92-11.77 27.83-11.77 10.9-28.41 10.9H104.91Zm287.96-309.16q-35.61-35.51-35.61-86.23 0-51.56 35.93-87.65Q429.11-705 480.04-705q50.92 0 86.53 36.09 35.6 36.09 35.6 87.65 0 50.72-35.92 86.23-35.93 35.51-86.85 35.51-50.92 0-86.53-35.51Zm332.52 0q-35.61-35.51-35.61-86.23 0-51.56 35.93-87.65T812.56-705q50.92 0 86.53 36.09t35.61 87.65q0 50.72-35.93 86.23-35.93 35.51-86.85 35.51-50.92 0-86.53-35.51Z"/></svg>