<svg xmlns="http://www.w3.org/2000/svg" width="48" height="48" viewBox="0 96 960 960"><path d="M110 865.609q-16.957 0-28.283-11.826T70.391 825q0-16.957 11.826-28.283T111 785.391h739q16.957 0 28.283 11.326T889.609 825q0 16.957-11.826 28.783T849 865.609H110ZM91.087 593.826q-9.696-5-12.979-15.696-3.282-10.695 2.283-19.826l25.174-42.913H55.782q-10.695 0-18.043-7.63Q30.39 500.13 30.39 489q0-10.13 7.63-17.761 7.63-7.63 18.761-7.63h48.783l-24.609-42.913q-5.565-9.131-2.5-19.826 3.065-10.696 11.63-15.696 9.131-5.565 19.544-2.565 10.413 3 15.979 12.695l24.173 42.478 24.174-42.478q5.565-11.13 15.696-13.695 10.13-2.566 19.826 3.565 9.131 5.565 11.913 15.696 2.783 10.13-2.782 19.826l-25.174 42.913h50.347q10.131 0 17.479 7.63 7.348 7.631 7.348 17.761 0 11.13-7.348 18.761-7.348 7.63-17.479 7.63h-50.347l25.174 42.913q5.565 9.131 2.782 20.044-2.782 10.913-11.913 15.478-9.696 5.565-20.109 2.283-10.413-3.283-15.413-12.979l-24.174-41.912-24.173 41.912q-5.566 11.131-15.479 13.696-9.913 2.565-19.043-3Zm329.217-1q-9.695-5.565-12.478-16.478-2.783-10.913 2.783-20.044l25.739-42.913H386q-10.13 0-17.761-7.63-7.63-7.631-7.63-18.761 0-10.13 7.63-17.761 7.631-7.63 18.761-7.63h49.348l-25.174-42.913q-5.565-9.131-2.5-19.826 3.065-10.696 11.63-15.696 9.696-5.565 20.109-2.565 10.413 3 15.413 12.695L480 435.782l24.174-42.478q5.565-11.13 15.196-13.413 9.63-2.282 19.326 3.283 9.695 5 12.695 15.413t-2.565 20.109l-24.608 42.913H574q10.13 0 17.761 7.63 7.63 7.631 7.63 17.761 0 11.13-7.63 18.761-7.631 7.63-17.761 7.63h-49.782l25.173 42.913q5.566 9.696 2.5 20.826-3.065 11.131-12.195 15.696-9.696 5.565-20.609 2.783-10.913-2.783-15.913-13.479L480 541.218l-23.174 40.912q-5 9.696-16.196 12.979-11.195 3.282-20.326-2.283Zm330.783 0q-9.696-5.565-12.478-16.478-2.783-10.913 2.782-20.044l25.739-42.913h-50.912q-10.131 0-17.479-7.63-7.348-7.631-7.348-18.761 0-10.13 7.348-17.761 7.348-7.63 18.479-7.63h49.912l-25.739-42.913q-5.565-9.131-2.5-19.826 3.066-10.696 11.631-15.696 9.696-5.565 20.109-2.565 10.413 3 15.978 12.695l23.609 42.478 24.173-42.478q5.566-11.13 14.979-13.413 9.413-2.282 19.543 3.283 9.696 5 12.696 15.413t-2 20.109l-25.174 42.913h49.783q10.695 0 18.043 7.63 7.348 7.631 7.348 17.761 0 11.13-7.348 18.761-7.348 7.63-18.043 7.63h-49.783l25.174 42.913q5.565 9.696 2.5 20.826-3.065 11.131-12.196 15.696-9.695 5.565-20.326 2.783-10.63-2.783-16.196-13.479l-23.173-40.912-22.609 40.912q-5.565 9.696-16.478 12.979-10.913 3.282-20.044-2.283Z"/></svg>