<svg xmlns="http://www.w3.org/2000/svg" width="48" height="48" viewBox="0 96 960 960"><path d="M524.435 802.218V349.782q0-33.49 23.147-56.637 23.146-23.146 56.636-23.146h102q33.49 0 56.637 23.146 23.146 23.147 23.146 56.637v452.436q0 33.49-23.146 56.637-23.147 23.146-56.637 23.146h-102q-33.49 0-56.636-23.146-23.147-23.147-23.147-56.637Zm-350.436 0V349.782q0-33.49 23.146-56.637 23.147-23.146 56.637-23.146h102q33.49 0 56.636 23.146 23.147 23.147 23.147 56.637v452.436q0 33.49-23.147 56.637-23.146 23.146-56.636 23.146h-102q-33.49 0-56.637-23.146-23.146-23.147-23.146-56.637Zm430.219 0h102V349.782h-102v452.436Zm-350.436 0h102V349.782h-102v452.436Z"/></svg>