<svg xmlns="http://www.w3.org/2000/svg" width="48" height="48" viewBox="0 -960 960 960"><path d="M197.391-156.609q-82.695 0-140.043-57.847Q0-272.304 0-355q0-81.565 58.13-139.478 58.131-57.913 140.261-57.913 69.305 0 124.5 45.5 55.196 45.5 67.327 115.5h43.652l-79.74-225.218h-40.739q-14.13 0-23.761-9.347Q280-635.304 280-650t9.348-24.044q9.348-9.347 24.043-9.347h127.435q14.131 0 23.761 9.913 9.631 9.913 9.631 26.304 0 13.565-8.5 22.065-8.5 8.5-21.5 8.5h-20.305l24.305 64.218h208.434l-69.304-184.218H518q-14.13 0-23.761-9.347-9.63-9.348-9.63-24.044t9.347-24.044q9.348-9.347 24.044-9.347h65.609q25.13 0 42.761 11.565Q644-780.261 652-757.13l74.87 204.739h35.739q82.695 0 140.043 56.847Q960-438.696 960-357q0 82.696-57.348 140.978-57.348 58.283-140.043 58.283-72.566 0-127.131-47.435t-67.13-119.435h-178.13q-12.131 72-65.913 120-53.783 48-126.914 48Zm125.913-168v-66.782h-83.913q-14.13 0-23.761 9.347Q206-372.696 206-358t9.348 24.044q9.348 9.347 24.043 9.347h83.913Zm177.957-66.782h68.087q3.434-21.305 14.369-47.326 10.935-26.022 28.674-46.892H470.913l30.348 94.218Zm184.217-71.957 31.87 81.478q5 12.696 16.63 17.979 11.631 5.282 24.761.717 13.696-4 18.978-16.63Q783-392.435 779-405.13l-26.739-79.913-66.783 21.695Z"/></svg>