<svg xmlns="http://www.w3.org/2000/svg" width="48" height="48" viewBox="0 -960 960 960"><path d="M698.913-80q-79 0-134-55.283-55-55.282-55-133.717 0-78.435 55-133.717 55-55.283 134-55.283 78.435 0 133.718 55.283Q887.913-347.435 887.913-269q0 78.435-55.282 133.717Q777.348-80 698.913-80Zm14.392-192.369v-92.116q0-9.211-6.669-15.559-6.669-6.347-15.561-6.347-9.292 0-16.423 6.791-7.13 6.791-7.13 16.646v91.128q0 7.998 2.848 14.865 2.848 6.868 7.978 12.918l62.304 64.304q6.566 6.565 15.979 6.565t15.978-7.211q6.565-7.211 6.848-16.261.283-9.05-6.848-16.202l-59.304-59.521Zm-528.218 166.5q-32.677 0-55.948-23.27-23.27-23.271-23.27-55.948v-589.826q0-34.464 22.377-57.124 22.377-22.659 56.841-22.659H371.26q9.261-35.566 39.421-58.631 30.16-23.065 69.319-23.065 38.261 0 68.587 23.065t40.718 58.631h185.608q34.464 0 57.124 22.659 22.659 22.66 22.659 57.124v220.912q0 17.272-11.833 28.724-11.834 11.451-28.566 11.451t-28.058-11.451q-11.326-11.452-11.326-28.724v-220.912h-57.174v57.174q0 16.707-11.451 28.158T678.13-678.13H281.87q-16.707 0-28.158-11.451t-11.451-28.158v-57.174h-57.174v589.826h249.522q16.706 0 28.157 11.501 11.452 11.502 11.452 28.283 0 16.782-11.452 28.108-11.451 11.326-28.157 11.326H185.087ZM480-782.826q17 0 28.5-11.5t11.5-28.5q0-16.435-11.5-28.218-11.5-11.782-28.5-11.782t-28.5 11.782Q440-839.261 440-822.826q0 17 11.5 28.5t28.5 11.5Z"/></svg>