<svg xmlns="http://www.w3.org/2000/svg" width="48" height="48" viewBox="0 -960 960 960"><path d="M773.74-5.39q-13.261 0-23.174-8.847-9.914-8.848-11.914-22.11l-1.434-19.303q-21.87-5.87-39.739-17.087-17.87-11.218-30.739-23.087l-14.739 7.434q-12.696 5.566-25.674 1.5-12.979-4.065-21.109-16.326l-4.566-7.695q-8.13-12.131-5.847-25.892 2.282-13.761 13.978-22.891l13.304-10.305q-5-17.304-5-38.673 0-21.37 5-39.239l-13.304-10.305q-11.131-9.13-13.696-23.109-2.565-13.978 5.565-26.674l4.566-7.695q8.13-12.131 21.326-15.979 13.196-3.848 25.891 1.718l14.305 7.434q12.869-10.869 30.739-21.804 17.869-10.935 39.739-17.369l1.434-19.739q2-12.696 12.196-21.827 10.196-9.13 22.892-9.13h9.261q12.695 0 22.391 8.348 9.696 8.348 11.696 21.043l3 21.305q21.304 6.434 39.174 17.369 17.869 10.935 30.739 21.804l14.304-6.869q12.696-6.131 25.609-2.283 12.913 3.848 20.478 15.979l5.696 7.695q8.13 12.696 5.565 26.957-2.565 14.261-14.261 22.826l-13.304 10.305q5.565 17.869 5.565 39.239 0 21.369-5.565 38.673l13.304 10.305q11.696 9.13 14.261 23.174 2.565 14.043-5.565 26.174l-4.565 8.13q-8.131 12.261-21.109 15.826-12.979 3.566-25.674-2.565l-14.739-6.87q-12.87 11.87-30.739 23.088-17.87 11.217-39.174 17.086l-3 19.74q-2 13.26-11.696 21.891-9.696 8.63-22.391 8.63h-9.261Zm4.13-104.609q42.304 0 70.457-28.434 28.152-28.435 28.152-70.739 0-42.305-28.152-70.457-28.153-28.152-70.457-28.152-42.304 0-70.739 28.152-28.435 28.152-28.435 70.457 0 42.304 28.435 70.739 28.435 28.434 70.739 28.434Zm-616.826 44.13q-26.783 0-36.544-24.435-9.761-24.435 9.326-43.522l692.913-692.913q18.522-18.522 43.24-8.761 24.717 9.761 24.717 36.544v299.435q0 18.522-14.674 28.565-14.674 10.044-32.196 4.479-17.739-4.87-35.195-7.805-17.457-2.934-35.761-2.934-111.957 0-190 78.043-78.044 78.044-78.044 190.001 0 24.651 5.239 49.434 5.239 24.782 16.283 47.564 4.869 17.088-3.957 31.696-8.826 14.61-26.348 14.61H161.044Z"/></svg>