<svg xmlns="http://www.w3.org/2000/svg" width="48" height="48" viewBox="0 -960 960 960"><path d="m766.348-73.609-71.652-71.085v7.173H107.913q-33.49 0-56.636-23.277-23.147-23.278-23.147-55.941v-31.043q0-39.128 20.371-70.622 20.372-31.494 55.542-47.814 74.566-34 134.119-47.565 59.554-13.565 121.273-13.565 17.073 0 30.536 1 13.463 1 27.072 3.435l-67.261-67.261h-6.174q-60.913-4.522-99.239-43.631-38.326-39.108-43.413-100.021V-640L62.869-778.652q-10.13-9.737-10.413-23.175-.282-13.437 9.69-23.175 9.973-9.737 23.261-9.737 13.289 0 23.448 10.159l703.42 703.855q10.16 10.16 9.877 23.573-.282 13.413-10.196 23.26-9.913 9.849-22.921 9.849-13.009 0-22.687-9.566Zm-28.435-471.087h-93.217q-14.671 0-24.031-9.651-9.36-9.65-9.36-23.916 0-14.747 9.36-23.982 9.36-9.234 24.031-9.234h93.217v-93.217q0-14.192 9.411-23.792 9.41-9.6 23.874-9.6 14.463 0 23.981 9.36 9.517 9.36 9.517 24.032v93.217h93.217q14.192 0 23.792 9.41 9.6 9.41 9.6 23.874 0 14.464-9.6 23.981-9.6 9.518-23.792 9.518h-93.217v93.217q0 14.191-9.65 23.791-9.651 9.6-23.916 9.6-14.747 0-23.982-9.6t-9.235-23.791v-93.217Zm-254.087 10.087-55.305-55.304q9.261-14.261 14.24-29.436 4.978-15.174 4.978-33.13 0-36.902-24.006-60.908-24.005-24.005-60.907-24.005-17.956 0-33.848 5.196-15.891 5.195-28.718 13.456l-55.305-54.739q20.392-20.218 52.274-31.675 31.883-11.457 65.597-11.457 72.38 0 118.256 45.957 45.875 45.957 45.875 118.175 0 34.348-11.456 66.196-11.457 31.848-31.675 51.674Zm-375.913 317.87h507.565L513.391-325.565q-34.434-11.434-69.717-16.717-35.283-5.283-80.848-5.283-55.435 0-105.369 9.718-49.935 9.717-117.544 41.456-15.565 7.751-23.782 21.477-8.218 13.727-8.218 29.393v28.782Zm320.608-373.174Zm-65.695 373.174Z"/></svg>