<svg xmlns="http://www.w3.org/2000/svg" width="48" height="48" viewBox="0 96 960 960"><path d="m805.566 988.827-71.782-71.348H185.478q-16.957 0-28.283-11.326t-11.326-28.283v-69.652q0-41.562 21.164-72.075 21.164-30.512 54.749-46.361 59.572-26.434 114.648-41.434 55.076-15 111.222-17.566L66.173 250.434q-9.565-9.822-9.348-23.389.218-13.568 10.17-23.133t23.76-9.565q13.81 0 23.375 9.565l738.958 738.393q9.565 10.079 9.565 23.518t-9.895 23.004q-9.895 10.13-23.626 10.13-13.731 0-23.566-10.13ZM225.087 838.261H654l-127.695-128.26q-10.826-1-22.653-1.283-11.826-.283-23.652-.283-56.435 0-109.587 10.935t-113.084 40.151q-14.242 6.839-23.242 21.065-9 14.227-9 29.893v27.782Zm512.131-148.479q33.261 14.566 53.956 42.979 20.696 28.413 22.392 68.109v8L666.609 661.913q17.435 5.435 35.169 12.873 17.733 7.439 35.44 14.996Zm-181-138.261-64.392-64.392q31.13-4.174 52.108-27.608 20.979-23.435 20.979-56 0-35.534-24.506-60.224-24.506-24.689-60.407-24.689-32.565 0-56 20.696-23.435 20.695-27.609 52.391l-64.392-64.957q19.997-41.753 60.424-64.551 40.427-22.798 87.54-22.798 68.689 0 116.711 47.457 48.022 47.457 48.022 116.644 0 46.844-22.978 87.09t-65.5 60.941ZM654 838.261H225.087 654ZM444.609 438.912Z"/></svg>