<svg xmlns="http://www.w3.org/2000/svg" width="48" height="48" viewBox="0 -960 960 960"><path d="M439.895-507.348q-67.778 0-115.902-48.115-48.124-48.114-48.124-115.891 0-68.778 48.114-116.517 48.114-47.74 115.892-47.74 68.777 0 116.799 47.849 48.022 47.849 48.022 116.398 0 67.781-48.012 115.899-48.012 48.117-116.789 48.117Zm436.54 479.349L769.426-135.13q-23.121 16.435-47.078 22.087-23.958 5.652-49.347 5.652-75.004 0-127.307-52.245-52.303-52.244-52.303-127.165t52.361-127.365Q598.113-466.61 673.2-466.61q75.087 0 127.531 52.303T853.175-287q0 25.389-5.935 49.347-5.934 23.957-22.369 46.392L932.566-83.565q12.391 12.391 12.391 28.065 0 15.674-12.391 27.783-12.392 12.11-28.066 12.11T876.435-28Zm-203.57-158.61q42.908 0 71.717-28.614 28.809-28.614 28.809-71.434 0-42.82-28.614-71.777-28.614-28.956-71.434-28.956-42.82 0-71.494 28.729-28.674 28.73-28.674 71.717 0 42.988 28.51 71.662 28.51 28.673 71.18 28.673ZM480.392-425.218q-49.305 63.957-46.501 144.436 2.805 80.478 50.892 142.261H185.087q-33.507 0-56.362-23.152-22.856-23.153-22.856-56.066v-30.043q0-40.969 19.478-70.355 19.479-29.385 56.435-48.081 47.566-23.565 129.283-45.195 81.718-21.631 169.327-13.805Z"/></svg>