<svg xmlns="http://www.w3.org/2000/svg" width="48" height="48" viewBox="0 96 960 960"><path d="M553.609 530.521q-17.272 0-28.723-11.451t-11.451-28.158V320.347q0-14.649 9.65-23.846 9.651-9.197 23.917-9.197 14.746 0 23.981 9.197 9.235 9.197 9.235 23.629v97.086L791.13 206.869q9.566-10.131 23.196-10.131 13.631 0 23.761 10.131 10.131 10.13 10.131 24.043 0 13.914-10.131 23.479L628.74 464.304h95.086q14.672 0 24.032 9.25 9.36 9.251 9.36 23.761 0 14.511-9.36 23.858-9.36 9.348-24.195 9.348H553.609Zm240.956 418.48q-124.826 0-247.797-61.162-122.97-61.161-221.304-159.108-98.334-97.948-159.465-221.274-61.13-123.327-61.13-247.587 0-24.777 16.894-41.672 16.895-16.894 41.672-16.894h140q23.22 0 39.002 13.174 15.781 13.174 21.042 37.652l27 116.957q3.696 21.348-.661 37.44-4.357 16.093-17.122 27.343L269.87 531.479q52.609 85.086 115.922 147.602 63.313 62.516 142.207 105.962l97.827-99.696q14.522-14.957 31.761-20.587 17.239-5.631 37.022-.935l107.13 24.869q24.356 6.202 37.874 22.536 13.518 16.335 13.518 40.813V889.87q0 25.341-16.894 42.236-16.895 16.895-41.672 16.895ZM230.261 460.652l80.435-78.043-21.87-102.087H184.652q-.565 36.174 10.563 79.814 11.128 43.641 35.046 100.316Zm543.087 408V763.913l-94.522-19.87-78.435 81.87q38.165 17.797 83.908 28.985 45.744 11.189 89.049 13.754Zm-172.957-42.739Zm-370.13-365.261Z"/></svg>