<svg xmlns="http://www.w3.org/2000/svg" width="48" height="48" viewBox="0 -960 960 960"><path d="m689.391-439-91 91q-9 9-21 9t-21-9q-9-9-9-21t9-21l91-91-91-91q-9-9-9-21t9-21q9-9 21-9t21 9l91 91 91-91q9-9 21-9t21 9q9 9 9 21t-9 21l-91 91 91 91q9 9 9 21t-9 21q-9 9-21 9t-21-9l-91-91ZM226.218-27q-32.928 0-56.073-23.145-23.146-23.145-23.146-56.073v-747.564q0-32.928 23.146-56.073 23.145-23.146 56.073-23.146h427.564q32.928 0 56.073 23.146 23.146 23.145 23.146 56.073v100.173q0 16.957-11.327 28.283Q710.348-714 693.391-714q-12.434 0-21.5-6.522-9.065-6.521-12.456-17.26v-26H226.218v567.564h433.217v-26q3.391-10.739 12.577-17.26Q681.197-246 693.391-246q16.957 0 28.283 11.326 11.327 11.326 11.327 28.283v100.173q0 32.928-23.146 56.073-23.145 23.146-56.073 23.146H226.218Z"/></svg>