<svg xmlns="http://www.w3.org/2000/svg" width="48" height="48" viewBox="0 -960 960 960"><path d="M418.235-131.218h123.53q8.235 0 14.235-6t6-14.282q0-8.283-6-14-6-5.718-14.235-5.718h-123.53q-8.235 0-14.235 5.718-6 5.717-6 14 0 8.282 6 14.282t14.235 6ZM266.218-26.999q-32.507 0-55.863-23.356t-23.356-55.863v-747.564q0-32.507 23.356-55.863t55.863-23.356h427.564q32.507 0 55.863 23.356t23.356 55.863v747.564q0 32.507-23.356 55.863t-55.863 23.356H266.218Zm0-169.219v90h427.564v-90H266.218Zm0-60h427.564v-507.564H266.218v507.564Zm0-567.564h427.564v-30H266.218v30Zm0 627.564v90-90Zm0-627.564v-30 30Z"/></svg>