<svg xmlns="http://www.w3.org/2000/svg" width="48" height="48" viewBox="0 -960 960 960"><path d="M639.609-563.609q-17.272 0-28.723-11.451t-11.451-28.158v-131.695q0-13.315 8.06-23.918 8.059-10.604 21.94-13.43h15v-40.6q0-35.127 23.973-60.785 23.973-25.659 59.37-25.659 35.396 0 59.375 25.659 23.978 25.658 23.978 60.785v40.6h15q13.881 2.826 21.94 13.43 8.06 10.603 8.06 23.918v131.695q0 16.707-11.451 28.158t-28.158 11.451H639.609Zm49-210.913h79.913v-42.957q0-17.039-11.472-29.889-11.473-12.85-28.432-12.85-16.959 0-28.484 12.85-11.525 12.85-11.525 29.889v42.957Zm104.956 667.523q-124.826 0-247.797-61.161-122.97-61.162-221.304-159.109-98.334-97.948-159.465-221.274-61.13-123.327-61.13-247.587 0-24.777 16.894-41.672 16.895-16.894 41.672-16.894h140q23.22 0 39.002 13.174 15.781 13.174 21.042 37.652l27 116.957q3.696 21.348-.661 37.44-4.357 16.093-17.122 27.343L268.87-524.521q52.609 85.086 115.922 147.602 63.313 62.516 142.207 105.962l97.827-99.696q14.522-14.957 31.761-20.587 17.239-5.631 37.022-.935l107.13 24.869q24.356 6.202 37.874 22.536 13.518 16.335 13.518 40.813v137.827q0 25.341-16.894 42.236-16.895 16.895-41.672 16.895ZM229.261-595.348l80.435-78.043-21.87-102.087H183.652q-.565 36.174 10.563 79.814 11.128 43.641 35.046 100.316Zm543.087 408v-104.739l-94.522-19.87-78.435 81.87q38.165 17.797 83.908 28.985 45.744 11.189 89.049 13.754Zm-172.957-42.739Zm-370.13-365.261Z"/></svg>