<svg xmlns="http://www.w3.org/2000/svg" width="48" height="48" viewBox="0 -960 960 960"><path d="M179.3-201.35h255.61q12.18 0 17.42-10.42 5.24-10.42-1.46-20.93l-70.04-92.34q-6.13-7.7-15.68-8.2-9.54-.5-15.67 7.2l-49.05 62.34q-6.13 7.7-15.67 7.7t-15.67-7.7l-26.92-33.65q-6.69-8.26-15.95-7.76-9.26.5-15.96 8.2l-46.91 64.21q-6.7 10.51-1.57 20.93t17.52 10.42Zm5.79 95.48q-33.26 0-56.24-22.98-22.98-22.98-22.98-56.24v-255.3q0-32.66 22.98-55.94t56.24-23.28h255.3q32.66 0 55.94 23.28t23.28 55.94v255.3q0 33.26-23.28 56.24-23.28 22.98-55.94 22.98h-255.3ZM117.2-786.63q-11.33-11.72-11.33-28.29 0-16.56 11.6-28.17 11.61-11.61 28-11.61 16.4 0 28.01 11.72 11.61 11.72 11.61 28.29 0 16.56-11.72 28.17-11.72 11.61-28.29 11.61-16.56 0-27.88-11.72Zm167.54 0q-11.61-11.72-11.61-28.29 0-16.56 11.72-28.17 11.72-11.61 28.28-11.61 16.57 0 28.17 11.72 11.61 11.72 11.61 28.29 0 16.56-11.72 28.17-11.72 11.61-28.28 11.61-16.56 0-28.17-11.72Zm166.98 0q-11.33-11.72-11.33-28.29 0-16.56 11.5-28.17 11.5-11.61 28.29-11.61 16.78 0 28.1 11.72 11.33 11.72 11.33 28.29 0 16.56-11.5 28.17-11.5 11.61-28.29 11.61-16.78 0-28.1-11.72Zm167.54 0q-11.61-11.72-11.61-28.29 0-16.56 11.72-28.17 11.72-11.61 28.28-11.61 16.57 0 28.18 11.72t11.61 28.29q0 16.56-11.72 28.17-11.72 11.61-28.29 11.61-16.56 0-28.17-11.72Zm167.26 0q-11.61-11.72-11.61-28.29 0-16.56 11.72-28.17 11.72-11.61 28.29-11.61 16.56 0 28.17 11.72 11.61 11.72 11.61 28.29 0 16.56-11.72 28.17-11.72 11.61-28.29 11.61-16.56 0-28.17-11.72ZM619.26-117.47q-11.61-11.61-11.61-28 0-16.4 11.72-28.01 11.72-11.61 28.28-11.61 16.57 0 28.18 11.72t11.61 28.29q0 16.56-11.72 27.88-11.72 11.33-28.29 11.33-16.56 0-28.17-11.6ZM117.2-619.37q-11.33-11.72-11.33-28.28 0-16.57 11.6-28.18 11.61-11.61 28-11.61 16.4 0 28.01 11.72 11.61 11.72 11.61 28.29 0 16.56-11.72 28.17-11.72 11.61-28.29 11.61-16.56 0-27.88-11.72Zm669.32 0q-11.61-11.72-11.61-28.28 0-16.57 11.72-28.18t28.29-11.61q16.56 0 28.17 11.72Q854.7-664 854.7-647.43q0 16.56-11.72 28.17-11.72 11.61-28.29 11.61-16.56 0-28.17-11.72Zm0 167.48q-11.61-11.5-11.61-28.29 0-16.78 11.72-28.1 11.72-11.33 28.29-11.33 16.56 0 28.17 11.5 11.61 11.5 11.61 28.29 0 16.78-11.72 28.1-11.72 11.33-28.29 11.33-16.56 0-28.17-11.5Zm0 167.04q-11.61-11.72-11.61-28.28 0-16.57 11.72-28.17 11.72-11.61 28.29-11.61 16.56 0 28.17 11.72 11.61 11.72 11.61 28.28 0 16.56-11.72 28.17-11.72 11.61-28.29 11.61-16.56 0-28.17-11.72Zm0 167.38q-11.61-11.61-11.61-28 0-16.4 11.72-28.01 11.72-11.61 28.29-11.61 16.56 0 28.17 11.72 11.61 11.72 11.61 28.29 0 16.56-11.72 27.88-11.72 11.33-28.29 11.33-16.56 0-28.17-11.6Z"/></svg>