<svg xmlns="http://www.w3.org/2000/svg" width="48" height="48" viewBox="0 -960 960 960"><path d="M145.087-105.869q-32.478 0-55.848-23.37-23.37-23.37-23.37-55.848v-502.826q0-31.478 23.37-55.631 23.37-24.152 55.848-24.152h134.565l55.565-62.609q10.826-12.696 25.653-18.544 14.826-5.847 31.652-5.847h175.521q16.261 0 31.087 5.847 14.827 5.848 25.653 18.544l56.13 62.609h134q31.478 0 55.631 24.152 24.152 24.153 24.152 55.631v502.826q0 32.478-24.152 55.848-24.153 23.37-55.631 23.37H145.087Zm137.348-150.74H684.13q11.827 0 17.74-10.543 5.913-10.544-2.348-21.37L586.957-436.087q-6.696-7.696-15.957-7.696-9.261 0-15.957 8.261L445-290.174l-76.043-93.913q-6.696-7.696-15.957-7.696-9.261 0-15.957 7.696l-70.565 95.565q-7.261 10.826-1.848 21.37 5.413 10.543 17.805 10.543Z"/></svg>