<svg xmlns="http://www.w3.org/2000/svg" width="48" height="48" viewBox="0 -960 960 960"><path d="M480-204.52q-148.22-104.7-217.5-207.13-69.28-102.44-69.28-198.52 0-125.27 80.48-204.9Q354.17-894.7 480-894.7q125.83 0 206.3 79.63 80.48 79.63 80.48 204.9 0 96.08-69.28 198.52Q628.22-309.22 480-204.52Zm-1-314.91q37.39 0 63.44-25.77 26.04-25.76 26.04-62.71 0-36.39-26.04-62.44-26.05-26.04-63.44-26.04-36.39 0-61.94 26.04-25.54 26.05-25.54 62.44 0 36.95 25.54 62.71 25.55 25.77 61.94 25.77ZM185.87-65.87v-78.65H774.7v78.65H185.87Z"/></svg>