<svg xmlns="http://www.w3.org/2000/svg" width="48" height="48" viewBox="0 -960 960 960"><path d="M480-151.869q-32 0-57.5 16t-39.5 42q-4 12.565-10.5 20.283Q366-65.87 352-65.87h-86.913q-33.507 0-56.362-22.856-22.856-22.855-22.856-56.362v-669.826q0-33.74 22.856-56.762 22.855-23.021 56.362-23.021h86.735q10.178 0 17.678 5.5t10.5 14.5q11 31 39.5 48.5t60.5 17.5q32 0 60.5-17.5t39.5-48.5q3-9 10.5-14.5t17.5-5.5h86.913q33.74 0 56.762 23.021 23.021 23.022 23.021 56.762v669.826q0 33.507-23.021 56.362-23.022 22.856-56.762 22.856h-86.735Q594-65.869 588-73.586q-6-7.718-11-20.283-14-26-40-42t-57-16Z"/></svg>