<svg xmlns="http://www.w3.org/2000/svg" width="48" height="48" viewBox="0 0 48 48"><path d="M24.9 8.25q0 1.6-1.15 2.725T21 12.1q-.6 0-1.175-.2-.575-.2-1.075-.55-1.25.9-2.05 2.1-.8 1.2-.85 2.65H40.8q.9 0 1.5.675t.5 1.575L41.2 29.9q-.1.75-.65 1.25t-1.3.5h-4l.4-2.65q.25-3.7-1.45-5.75T30 21.2H18q-2.5 0-4.2 2.05-1.7 2.05-1.45 5.75l.4 2.65h-4q-.75 0-1.3-.5T6.8 29.9L5.2 18.35q-.1-.9.5-1.575.6-.675 1.5-.675h4.95q0-2.55 1.4-4.7 1.4-2.15 3.6-3.5.15-1.5 1.225-2.525Q19.45 4.35 21 4.35q1.6 0 2.75 1.15t1.15 2.75ZM19 41.95h10q.75 0 1.325-.525T31 40.15l1.3-13.1q.1-.95-.6-1.7T30 24.6H18q-1 0-1.675.725t-.575 1.725l1.3 13.1q.05.75.625 1.275.575.525 1.325.525Z"/></svg>