<svg xmlns="http://www.w3.org/2000/svg" width="48" height="48" viewBox="0 0 48 48"><path d="M24 28q-1.7 0-2.85-1.175Q20 25.65 20 24q0-1.7 1.175-2.85Q22.35 20 24 20q1.7 0 2.85 1.175Q28 22.35 28 24q0 1.7-1.175 2.85Q25.65 28 24 28Zm0-12.5q-.85 0-1.425-.575Q22 14.35 22 13.5V7.35q0-.85.575-1.425Q23.15 5.35 24 5.35q.85 0 1.425.575Q26 6.5 26 7.35v6.15q0 .85-.575 1.425-.575.575-1.425.575Zm0 27.15q-.85 0-1.425-.575Q22 41.5 22 40.65v-6.2q0-.8.575-1.375T24 32.5q.85 0 1.425.575.575.575.575 1.375v6.2q0 .85-.575 1.425-.575.575-1.425.575ZM34.5 26q-.85 0-1.425-.575Q32.5 24.85 32.5 24q0-.85.575-1.425Q33.65 22 34.5 22h6.15q.85 0 1.425.575.575.575.575 1.425 0 .85-.575 1.425Q41.5 26 40.65 26ZM7.35 26q-.85 0-1.425-.575Q5.35 24.85 5.35 24q0-.85.575-1.425Q6.5 22 7.35 22h6.2q.8 0 1.375.575T15.5 24q0 .85-.575 1.425Q14.35 26 13.55 26Z"/></svg>