<svg xmlns="http://www.w3.org/2000/svg" width="48" height="48" viewBox="0 96 960 960"><path d="M351 525q-12.75 0-21.375-8.675-8.625-8.676-8.625-21.5 0-12.825 8.625-21.325T351 465h259q12.75 0 21.375 8.675 8.625 8.676 8.625 21.5 0 12.825-8.625 21.325T610 525H351Zm0 127q-12.75 0-21.375-8.675-8.625-8.676-8.625-21.5 0-12.825 8.625-21.325T351 592h259q12.75 0 21.375 8.675 8.625 8.676 8.625 21.5 0 12.825-8.625 21.325T610 652H351Zm0 127q-12.75 0-21.375-8.675-8.625-8.676-8.625-21.5 0-12.825 8.625-21.325T351 719h259q12.75 0 21.375 8.675 8.625 8.676 8.625 21.5 0 12.825-8.625 21.325T610 779H351Zm377.325-325.87q-14.224 0-23.579-9.359-9.355-9.36-9.355-23.863v-59.299h-59.299q-14.503 0-23.863-9.491-9.359-9.491-9.359-23.521 0-14.51 9.359-23.858 9.36-9.348 23.863-9.348h59.299v-59.696q0-14.191 9.491-23.791t23.521-9.6q14.51 0 23.858 9.6t9.348 23.791v59.696h59.696q14.191 0 23.791 9.41t9.6 23.874q0 14.224-9.6 23.579t-23.791 9.355h-59.696v59.299q0 14.503-9.41 23.863-9.41 9.359-23.874 9.359ZM185.087 950.131q-32.507 0-55.862-23.356-23.356-23.355-23.356-55.862V281.087q0-32.74 23.356-56.262 23.355-23.521 55.862-23.521H533.26q16.707 0 28.158 11.833 11.452 11.834 11.452 28.566t-11.452 28.058q-11.451 11.326-28.158 11.326H185.087v589.826h589.826V522.74q0-16.707 11.501-28.158 11.502-11.452 28.234-11.452t28.39 11.452q11.658 11.451 11.658 28.158v348.173q0 32.507-23.521 55.862-23.522 23.356-56.262 23.356H185.087Z"/></svg>