<svg xmlns="http://www.w3.org/2000/svg" width="48" height="48"><path d="m39 44.25-8.2-8.2-.9 1v3.7q0 .8-.55 1.375t-1.4.575h-7.8q-.85 0-1.425-.575-.575-.575-.575-1.375v-4.6l-5.75-6.4q-.5-.55-.775-1.25t-.275-1.45V16.925q0-.175.05-.325L3.8 9.05q-.45-.45-.45-1.125t.5-1.175q.45-.5 1.125-.5t1.175.5l35.2 35.2q.45.45.45 1.15t-.45 1.15q-.55.5-1.2.5-.65 0-1.15-.5zm-4.4-13.3L16.7 13.1V7.25q0-.8.575-1.4.575-.6 1.425-.6.85 0 1.425.6.575.6.575 1.4v6.55h6.7V7.25q0-.8.55-1.4.55-.6 1.4-.6.85 0 1.425.6.575.6.575 1.4v6.65h2.1q1.4.2 2.35 1.3.95 1.1.95 2.6v9.25q0 1.1-.55 1.875-.55.775-1.6 2.025z"/></svg>