<svg xmlns="http://www.w3.org/2000/svg" width="48" height="48"><path d="M22.1 38.75h3.8v-4.2L32.75 27v-9.2h-17.5V27l6.85 7.5zm-3.95-2.6-5.75-6.4q-.5-.55-.8-1.25-.3-.7-.3-1.45V17.8q0-1.5.925-2.625T14.6 13.9l2.1-.1V7.25q0-.8.575-1.4.575-.6 1.375-.6.85 0 1.425.6.575.6.575 1.4v6.55h6.7V7.25q0-.8.575-1.4.575-.6 1.425-.6.85 0 1.4.6.55.6.55 1.4v6.55l2.1.1q1.45.15 2.4 1.275t.95 2.625v9.25q0 .75-.325 1.45t-.825 1.25l-5.7 6.4v4.6q0 .8-.6 1.375t-1.4.575h-7.75q-.85 0-1.425-.575-.575-.575-.575-1.375zm5.85-7.9z"/></svg>