<svg xmlns="http://www.w3.org/2000/svg" width="48" height="48" viewBox="0 -960 960 960"><path d="M314.11-87.19q-77.81-33.2-135.48-90.87-57.67-57.68-91.15-135.48Q54-391.35 54-479.72t33.48-165.89q33.48-77.52 91.15-135.48 57.67-57.95 135.48-91.43Q391.91-906 480-906q88.09 0 165.89 33.48 77.81 33.48 135.48 91.43 57.67 57.96 91.15 135.48Q906-568.09 906-479.72q0 88.37-33.48 166.18-33.48 77.8-91.15 135.48-57.67 57.67-135.48 90.87Q568.09-54 480-54q-88.09 0-165.89-33.19Zm415.93-142.48Q833-332.35 833-479.72T730.04-730.04Q627.09-833 480-833q-147.09 0-250.04 102.96Q127-627.09 127-479.72t102.96 250.05Q332.91-127 480-127q147.09 0 250.04-102.67Zm-65.91-66.2q75.65-75.65 75.65-183.56 0-40.27-11.78-76.9t-32.35-67.89q-11.69-17.39-27.02-19.17-15.33-1.78-27.3 5.06-11.98 6.85-16.61 20.89-4.63 14.05 5.06 27.31 17 23.56 26.72 51.35 9.72 27.78 9.72 59.35 0 77.82-54.2 132.02-54.19 54.19-132.02 54.19-77.83 0-132.02-54.19-54.2-54.2-54.2-132.02 0-31.57 9.22-58.85 9.22-27.29 26.78-50.85 9.13-13.26 4.5-26.81-4.63-13.54-15.89-20.39-11.26-6.84-26.8-5.78-15.55 1.07-27.24 17.89-21.57 30.7-32.57 67.61t-11 77.18q0 107.91 75.37 183.56T480-220.22q108.48 0 184.13-75.65ZM451.72-727.89q-11.33 11.32-11.33 28.28v180q0 17.52 11.33 28.85 11.32 11.33 28.28 11.33t28.28-11.33q11.33-11.33 11.33-28.85v-180q0-16.96-11.33-28.28-11.32-11.33-28.28-11.33t-28.28 11.33ZM480-480Z"/></svg>