<svg xmlns="http://www.w3.org/2000/svg" width="48" height="48" viewBox="0 -960 960 960"><path d="M105.478-370.782q-16.707 0-28.158-11.501-11.451-11.502-11.451-28.283 0-16.782 11.451-28.108T105.478-450h143.26q16.707 0 28.158 11.502 11.452 11.501 11.452 28.283 0 16.781-11.452 28.107-11.451 11.326-28.158 11.326h-143.26Zm281.479 0q-16.957 0-27.783-11.501-10.826-11.502-10.826-28.283 0-16.782 11.451-28.108T388.522-450h144.521q16.707 0 28.441 11.502 11.734 11.501 11.734 28.283 0 16.781-11.734 28.107t-28.441 11.326H386.957Zm284.305 0q-16.957 0-27.501-11.501-10.543-11.502-10.543-28.283 0-16.782 11.451-28.108T672.827-450h141.695q16.707 0 28.441 11.502 11.733 11.501 11.733 28.283 0 16.781-11.733 28.107-11.734 11.326-28.441 11.326h-143.26ZM105.478-510q-16.707 0-28.158-11.502-11.451-11.501-11.451-28.283 0-16.781 11.451-28.39 11.451-11.609 28.158-11.609h709.044q16.707 0 28.441 11.785 11.733 11.784 11.733 28.565 0 16.782-11.733 28.108Q831.229-510 814.522-510H105.478Z"/></svg>