<svg xmlns="http://www.w3.org/2000/svg" width="48" height="48" viewBox="0 -960 960 960"><path d="M480.08-65.87q-85.47 0-161.01-32.39-75.53-32.4-131.97-88.84-56.44-56.44-88.84-131.9-32.39-75.46-32.39-160.93 0-87.09 32.85-162.32 32.84-75.23 88.54-131.49l56.7 56.13q-45.87 44.87-72.37 106.4-26.5 61.53-26.5 131.53 0 138.98 97.73 236.79 97.73 97.8 237.18 97.8 139.74 0 237.33-97.73 97.58-97.73 97.58-237.05 0-69.81-25.43-131.34-25.44-61.53-71.87-106.4l56.13-56.13q55.7 56.26 88.33 131.42 32.63 75.16 32.63 162.24 0 85.47-32.65 161.04-32.65 75.58-88.62 131.98-55.97 56.4-131.42 88.8-75.46 32.39-161.93 32.39Zm-39.69-364.52V-894.7h79.22v464.31h-79.22Z"/></svg>