<svg xmlns="http://www.w3.org/2000/svg" width="48" height="48" viewBox="0 96 960 960"><path d="M481.511 737.044q14.206 0 23.891-10.773 9.685-10.774 9.685-24.314V544.74l51.217 53.782q9.696 10.696 24.392 9.913 14.695-.783 24.826-11.478 10.696-10.131 9.696-23.827-1-13.695-10.696-24.391L507.348 441.565q-6.13-5.565-13.225-8.695-7.095-3.131-14.558-3.131-8.261 0-15.013 3.028-6.752 3.027-12.77 8.798L344.043 549.304q-10.261 10.047-9.978 23.987.283 13.94 10.935 24.521 10.174 10.406 24.37 10.406 14.195 0 24.891-10.696l52.217-52.217v156.652q0 13.54 10.413 24.314 10.413 10.773 24.62 10.773ZM145.087 910.131q-32.507 0-55.862-23.356-23.356-23.355-23.356-55.862V321.087q0-32.74 23.356-56.262 23.355-23.521 55.862-23.521h669.826q33.49 0 56.637 23.521 23.146 23.522 23.146 56.262v509.826q0 32.507-23.146 55.862-23.147 23.356-56.637 23.356H145.087Zm0-79.218V321.087v509.826Zm0 0h669.826V321.087H145.087v509.826Z"/></svg>