<svg xmlns="http://www.w3.org/2000/svg" width="48" height="48" viewBox="0 -960 960 960"><path d="M806.131-67.173 652.913-219.391h79.783v41.652q0 32.663-23.146 55.941-23.147 23.277-56.637 23.277H307.087q-33.257 0-56.237-23.277-22.981-23.278-22.981-55.941V-284.13h-82.782q-33.257 0-56.237-23.147-22.981-23.146-22.981-56.636V-542q0-47.24 30.5-81.142 30.5-33.902 76.63-37.859h38.305l-145.13-145.13q-9.566-9.707-9.849-23.267-.282-13.559 9.96-23.69 10.005-10.13 23.761-10.13 13.757 0 23.649 10.13l739.393 739.393q9.565 9.668 9.848 23.03.282 13.361-9.96 23.492-10.243 10.13-23.479 10.13-13.235 0-23.366-10.13Zm-499.044-107.74h345.826v-44.478L537.611-334.128H307.087v159.215Zm469.48-109.217-79.219-79.783h117.565v-178.302q0-17.114-11.247-28.906-11.247-11.792-27.843-11.792H478.349l-79.219-79.783h376q50.816 0 85.191 35.11T894.696-542v207.479q0 20.794-14.947 35.592-14.947 14.799-35.443 14.799h-67.739ZM145.087-542v178.087h82.782v-16q5.652-14.011 20.734-24.005 15.081-9.994 33.613-9.994h176.176L280.348-582.913h-95.673q-16.767 0-28.178 11.812-11.41 11.812-11.41 29.101Zm507.826-120.696v-112.217H286.349l-79.784-79.783h446.348q33.49 0 56.637 23.146 23.146 23.147 23.146 56.637v112.217h-79.783ZM739-479.999q13.922 0 23.657-9.735 9.734-9.735 9.734-23.657t-9.734-23.656q-9.735-9.735-23.374-9.735-13.64 0-23.657 9.735-10.017 9.734-10.017 23.656 0 13.922 9.975 23.657T739-479.999Zm36.823-102.914h39.09-336.564 297.474Zm-630.736 0h135.261-135.261Z"/></svg>