<svg xmlns="http://www.w3.org/2000/svg" width="48" height="48" viewBox="0 96 960 960"><path d="M732.696 363.304H227.869V241.478q0-16.636 11.451-28.405 11.451-11.769 28.158-11.769h425.044q16.636 0 28.405 11.769 11.769 11.769 11.769 28.405v121.826Zm-3.023 217.784q15.109 0 25.805-10.59t10.696-25.628q0-14.826-10.59-25.804-10.59-10.979-25.911-10.979-15.108 0-25.804 10.979-10.696 10.978-10.696 25.804 0 14.826 10.696 25.522 10.696 10.696 25.804 10.696ZM307.087 881.087h345.826V721.872H307.087v159.215Zm0 76.392q-32.677 0-55.948-23.27-23.27-23.27-23.27-55.948V771.87H105.478q-16.707 0-28.158-11.451t-11.45-28.158V514q0-50.476 34.292-85.586t84.709-35.11h590.26q50.816 0 85.191 35.11T894.696 514v218.261q0 16.707-11.769 28.158t-28.405 11.451H732.696v106.391q0 32.678-23.436 55.948-23.437 23.27-56.347 23.27H307.087Z"/></svg>