<svg xmlns="http://www.w3.org/2000/svg" width="48" height="48" viewBox="0 -960 960 960"><path d="M830.957-42.347 53.782-820.087q-10.13-10.131-10.413-23.261-.282-13.131 10.413-23.261 10.13-10.696 23.261-10.696 13.13 0 23.261 10.696l778.305 777.74q10.131 10.695 9.848 23.826-.283 13.13-10.413 23.26-10.696 10.131-23.826 10.131-13.131 0-23.261-10.695Zm29.261-267.132L734.696-435v117.218L459.435-593.044v-23.174q0-21.608-15.522-36.847t-37.695-16.37q-5.435 0-10.37 1t-9.369 3L237.782-814.696h417.131q32.478 0 56.131 23.652 23.652 23.653 23.652 56.131V-525l125.522-125.521q8.695-9.261 21.587-4.348 12.891 4.913 12.891 17.739v314.26q0 12.826-12.891 17.739-12.892 4.913-21.587-4.348Zm-715.131 163.61q-32.478 0-55.848-23.37-23.37-23.37-23.37-55.848v-509.826q0-29.652 19.978-52.457 19.979-22.804 48.501-26.196h19l580.218 580.218v19q-3.392 28.522-26.196 48.501-22.805 19.978-52.457 19.978H434.218V-303.13q33.304-7.131 61.891-25.696 28.587-18.565 47.326-47.565l-43.565-44.131q-15.305 27.696-41.805 43.544-26.5 15.848-58.065 15.848-39.609 0-69.848-24.74-30.239-24.739-39.239-62.347-2-11-11.782-18.283-9.783-7.282-21.783-7.282-12 0-21.282 7.782-9.283 7.783-7.848 18.783 8 53.478 45.326 92.934 37.326 39.457 92.238 51.153v157.261H145.087ZM340-533.304v59.522q0 25 17.5 42.5t42.5 17.5q12.13 0 23.478-4t20.479-11.566L340-533.304Z"/></svg>