<svg xmlns="http://www.w3.org/2000/svg" width="48" height="48" viewBox="0 96 960 960"><path d="M854.218 1037.48 30.521 212.652l46.522-46.522L901.87 990.957l-47.652 46.523ZM894.696 781l-160-160v117.218L459.435 462.956v-23.174q0-21.608-15.522-36.847t-37.695-16.37q-5.435 0-10.37 1t-9.369 3L237.782 241.304h417.131q32.478 0 56.131 23.652 23.652 23.653 23.652 56.131V531l160-160v410ZM145.087 910.131q-32.478 0-55.848-23.37-23.37-23.37-23.37-55.848V321.087q0-29.652 19.978-52.457 19.979-22.804 48.501-26.196h19l580.218 580.218v19q-3.392 28.522-26.196 48.501-22.805 19.978-52.457 19.978H434.218V752.87q33.304-7.131 61.891-25.696 28.587-18.565 47.326-47.565l-43.565-44.131q-15.305 27.696-41.805 43.544-26.5 15.848-58.065 15.848-46.609 0-79.348-33.022t-32.739-79.63h-61.695q0 62.478 39.043 110.217t100.521 60.435v157.261H145.087ZM340 522.696v59.522q0 25 17.5 42.5t42.5 17.5q12.13 0 23.478-4t20.479-11.566L340 522.696Z"/></svg>