<svg xmlns="http://www.w3.org/2000/svg" width="48" height="48" viewBox="0 -960 960 960"><path d="M92.217-231.956q-14.957-7.261-19.87-22.435t2.348-30.131l217.565-427q6.696-14.957 22.088-19.087 15.391-4.131 30.348 2.565 14.956 7.261 19.587 22.435 4.63 15.174-2.065 29.566l-217 427.565q-7.261 14.957-22.653 19.087-15.391 4.131-30.348-2.565Zm264 0q-14.957-7.261-19.87-22.435t2.348-30.131l217.565-427q6.696-14.957 22.088-19.087 15.391-4.131 30.348 2.565 14.956 7.261 19.587 22.435 4.63 15.174-2.065 29.566l-217 427.565q-7.261 14.957-22.653 19.087-15.391 4.131-30.348-2.565Zm264 0q-14.957-7.261-19.87-22.435t2.348-30.131l217.565-427q6.696-14.957 22.088-19.087 15.391-4.131 30.348 2.565 14.956 7.261 19.587 22.435 4.63 15.174-2.065 29.566l-217 427.565q-7.261 14.957-22.653 19.087-15.391 4.131-30.348-2.565Z"/></svg>