<svg xmlns="http://www.w3.org/2000/svg" width="48" height="48" viewBox="0 -960 960 960"><path d="M280-297.74h400q70.48 0 119.87-49.11t49.39-119.58q0-70.48-49.39-119.87T680-635.69H280q-70.75 0-119.72 49.39-48.98 49.39-48.98 119.87 0 70.47 48.98 119.58 48.97 49.11 119.72 49.11Zm200-168.69Zm-80.39-248.48h160.78v-50H399.61v50Zm-50 496.95v78.7q0 17.52-11.33 28.85Q326.96-99.09 310-99.09t-28.28-11.32q-11.33-11.33-11.33-28.85v-79.26q-100-3.96-169.43-75.44-69.44-71.48-69.44-172.47 0-103.35 72.57-175.92 72.57-72.56 175.91-72.56h30.39v-60q0-32.74 23.36-56.26 23.35-23.53 55.86-23.53h180.78q32.51 0 55.86 23.53 23.36 23.52 23.36 56.26v60H680q103.34 0 175.91 72.56 72.57 72.57 72.57 175.92 0 100.99-69.44 172.47-69.43 71.48-169.43 75.44v79.26q0 17.52-11.33 28.85Q666.96-99.09 650-99.09t-28.28-11.32q-11.33-11.33-11.33-28.85v-78.7H349.61Z"/></svg>