<svg xmlns="http://www.w3.org/2000/svg" width="48" height="48" viewBox="0 96 960 960"><path d="m446 638 1.435 25.478q1.301 8.483 6.48 13.503Q459.094 682 467.244 682h23.91q7.585 0 12.841-5.019 5.255-5.02 6.57-13.503L512 638q12-2 22.472-8.462Q544.944 623.077 553 615l25.478 8.304q6.696 2.566 13.392-.282 6.695-2.848 10.626-8.825l11.443-18.394q3.931-6.542 2.865-13.238-1.065-6.695-7.448-12.558L593 557q5-14 5-29t-5-29l16.356-13.572q6.383-5.298 7.448-11.993 1.066-6.696-2.865-13.238l-11.443-18.394q-3.931-5.977-10.626-8.825-6.696-2.848-13.392-.282L553 441q-8.333-7.692-19.167-13.846Q523 421 512 418l-1.435-26.043q-1.301-7.918-6.48-12.938Q498.906 374 491.321 374h-23.91q-8.15 0-13.406 5.019-5.255 5.02-6.57 12.938L446 418q-11 3-21.833 9.154Q413.333 433.308 405 441l-25.478-8.304q-6.696-2.566-13.392.282-6.695 2.848-10.626 8.825l-10.878 18.394q-4.496 6.542-3.43 13.238 1.065 6.695 7.448 11.993L365 499q-5 14-5 29t5 29l-16.356 13.007q-6.383 5.863-7.448 12.558-1.066 6.696 3.43 13.238l10.878 18.394q3.931 5.977 10.626 8.825 6.696 2.848 13.392.282L405 615q8.056 8.077 18.528 14.538Q434 636 446 638Zm33.118-40Q450 598 429.5 577.618q-20.5-20.383-20.5-49.5Q409 499 429.382 478.5q20.383-20.5 49.5-20.5Q508 458 528.5 478.382q20.5 20.383 20.5 49.5Q549 557 528.618 577.5q-20.383 20.5-49.5 20.5ZM267.174 988.435q-16.707 0-28.158-11.451t-11.451-28.158V809.652q-57-53.695-88.5-124.891T107.565 536q0-155.652 108.391-264.327Q324.348 162.999 480 162.999q128.957 0 228.848 76.609 99.892 76.609 130.587 198.566l55.566 221.391q5.13 19.087-6.696 33.979-11.826 14.891-31.348 14.891h-83.956v120.782q0 33.229-23.278 56.224-23.277 22.994-56.506 22.994h-80.216v40.391q0 16.707-11.734 28.158t-28.441 11.451H267.174Z"/></svg>