<svg xmlns="http://www.w3.org/2000/svg" width="48" height="48" viewBox="0 -960 960 960"><path d="M184.522-65.869q-31.507 0-55.08-23.98-23.573-23.979-23.573-54.673v-527.913q0-31.741 23.573-55.48 23.573-23.739 55.08-23.739h59.26v-106.085q0-32.663 23.278-55.941 23.277-23.277 55.941-23.277h313.433q33.49 0 56.637 23.277 23.147 23.278 23.147 55.941v106.085h59.26q30.928 0 55.073 23.739t24.145 55.48v527.913q0 30.694-24.145 54.674t-55.073 23.98H184.522Zm138.479-685.785h313.433v-106.085H323.001v106.085ZM185.087-145.087h589.826V-671.87H185.087v526.783Zm294.77-65q82.273 0 140.404-57.833 58.13-57.833 58.13-140.544 0-81.58-57.987-139.993-57.988-58.413-140.261-58.413t-140.404 58.398q-58.13 58.398-58.13 139.978 0 82.711 57.987 140.559 57.988 57.848 140.261 57.848Zm.194-55.087q-59.72 0-101.538-41.836-41.817-41.836-41.817-101.652 0-58.686 41.835-100.621 41.836-41.935 101.37-41.935 59.534 0 101.186 41.933 41.652 41.933 41.652 100.756 0 59.719-41.787 101.537-41.788 41.818-100.901 41.818Zm22.775-152.516v-70.223q0-9.131-6.646-15.979-6.646-6.848-16.261-6.848-9.615 0-16.463 7.018-6.847 7.017-6.847 16.374v72.043q0 7.998 2.847 14.866 2.848 6.867 8.979 12.917l40.739 40.739q6.668 6.565 16.029 6.848 9.362.283 15.927-6.686 6.566-6.969 6.566-16.261 0-9.292-6.566-16.423l-38.304-38.385ZM480-408.479Z"/></svg>