<svg xmlns="http://www.w3.org/2000/svg" width="48" height="48" viewBox="0 -960 960 960"><path d="M643.07-145.87q-51.46 0-87.51-35.69-36.04-35.68-36.04-87.71 0-51.47 35.12-87.23 35.11-35.76 85.36-35.76 13.09 0 24.8 2.43 11.72 2.44 22.46 7.74v-307.43q0-19.6 12.8-32.1 12.79-12.51 32.81-12.51h117.22q19.03 0 31.82 13.11 12.79 13.12 12.79 32.71 0 19.59-12.79 31.99-12.79 12.41-31.82 12.41h-83.61v375.56q0 51.65-35.97 87.06-35.97 35.42-87.44 35.42ZM144.91-277.04q-16.9 0-27.97-11.5t-11.07-28.42q0-16.92 11.07-27.83 11.07-10.9 27.97-10.9h235.26q16.91 0 28.26 11.5 11.35 11.5 11.35 28.42t-11.35 27.82q-11.35 10.91-28.26 10.91H144.91Zm0-188.65q-16.9 0-27.97-11.51-11.07-11.5-11.07-28.7t11.07-28.11q11.07-10.9 27.97-10.9h398.31q16.34 0 27.69 11.5 11.35 11.5 11.35 28.42t-11.07 28.11q-11.07 11.19-27.97 11.19H144.91Zm0-189.22q-16.9 0-27.97-11.5-11.07-11.51-11.07-28.43t11.07-28.1q11.07-11.19 27.97-11.19h398.31q16.34 0 27.69 11.5 11.35 11.5 11.35 28.7 0 17.21-11.07 28.11-11.07 10.91-27.97 10.91H144.91Z"/></svg>