<svg xmlns="http://www.w3.org/2000/svg" width="48" height="48" viewBox="0 -960 960 960"><path d="M185.087-814.913v287.348V-530v384.913-669.826 186-186ZM312.391-418.87h146.566q13.951 0 23.388-9.633 9.438-9.633 9.438-23.874 0-14-9.438-23.355-9.437-9.355-23.388-9.355H311.826q-13.951 0-23.388 9.474Q279-466.14 279-452.135t9.6 23.635q9.6 9.63 23.791 9.63Zm0 170h83.218q13.951 0 23.388-9.633 9.438-9.633 9.438-23.874 0-14-9.438-23.355-9.437-9.355-23.388-9.355h-83.783q-13.951 0-23.388 9.474Q279-296.14 279-282.135t9.6 23.635q9.6 9.63 23.791 9.63ZM185.087-65.869q-32.507 0-55.862-23.356-23.356-23.355-23.356-55.862v-669.826q0-32.74 23.356-56.262 23.355-23.521 55.862-23.521h328.652q16.464 0 31.384 6.695 14.921 6.696 25.747 17.522L750.479-690.87q10.826 10.826 17.522 25.747 6.695 14.92 6.695 31.384v91.087q0 15.903-12.116 26.06-12.117 10.157-28.283 10.157-15.036 0-26.645-9.473-11.609-9.472-14.435-24.483v-88.522H545.522q-16.707 0-28.158-11.451t-11.451-28.158v-146.391H185.087v669.826h293.217q16.904 0 27.974 11.501 11.07 11.502 11.07 28.283 0 16.782-11.07 28.108T478.304-65.87H185.087ZM669.267-190q42.82 0 71.494-28.614t28.674-71.434q0-42.821-28.51-71.777-28.511-28.957-71.18-28.957-42.908 0-71.717 28.73-28.81 28.729-28.81 71.717 0 42.987 28.614 71.661T669.267-190ZM901.15-58.608q-12.069 11.826-27.783 11.826-15.715 0-27.541-11.826l-80.913-80.347q-21.565 12.869-45.326 20.521-23.762 7.652-49.978 7.652-75.072 0-127.623-52.362t-52.551-127.165q0-74.803 52.585-127.247T669.727-470q74.886 0 127.189 52.386 52.302 52.386 52.302 127.223 0 26.369-7.934 50.275-7.935 23.906-20.805 45.029l80.913 80.913q11.826 11.826 11.826 27.783T901.15-58.608Z"/></svg>