<svg xmlns="http://www.w3.org/2000/svg" width="48" height="48" viewBox="0 96 960 960"><path d="M407.407 781q22.376 0 38.659-16.059 16.282-16.059 16.282-39T446.007 687q-16.342-16-38.718-16-22.941 0-38.941 16.059-16 16.059-16 39T368.407 765q16.059 16 39 16Zm319.941-251.218q-83 0-141.5-58.5t-58.5-141.5q0-83 58.5-141.5t141.5-58.5q83 0 141.5 58.5t58.5 141.5q0 83-58.5 141.5t-141.5 58.5Zm-.081-165.652q9.777 0 16.625-6.509 6.848-6.509 6.848-16.317V227.521q0-9.808-6.767-16.6-6.768-6.791-16.544-6.791-9.777 0-16.624 6.791-6.848 6.792-6.848 16.6v113.783q0 9.808 6.767 16.317t16.543 6.509Zm.081 91.87q10.261 0 17.674-7.413t7.413-17.674q0-10.261-7.413-17.957-7.413-7.696-17.956-7.696-10.544 0-17.675 7.696-7.13 7.696-7.13 17.957 0 10.261 7.187 17.674t17.9 7.413ZM182.054 995.218q-12.576 0-20.989-8.431t-8.413-20.704q0-7.069 4.296-15.577 4.297-8.508 11.095-12.897l44.609-29.739q-59-5.652-99.5-52.087t-40.5-108.827V373.174q0-92.914 81.891-133.805 81.892-40.892 255.066-40.892 17.365 0 50.596 1.566 33.23 1.565 51.796 3.565-28.218 42.13-32.718 94.761-4.5 52.631 7.457 99.892H152.435v155h454.112q26.671 16.174 65.65 23.478 38.978 7.304 69.282 3.348v166.869q0 62.392-40.5 108.827-40.5 46.435-99.5 52.087l45.174 29.739q6.799 4.485 10.813 12.44 4.013 7.956 4.013 15.911 0 12.432-8.7 20.845-8.701 8.413-20.256 8.413H182.054Z"/></svg>