<svg xmlns="http://www.w3.org/2000/svg" width="48" height="48" viewBox="0 -960 960 960"><path d="M260.087-400h42.956q7.696 0 14.392-2.565 6.695-2.565 13.391-9.261L571-649q6-6 6-15t-6-15l-55-50q-5-5-12.5-5t-12.5 5L251.826-485.826q-6.696 6.696-9.261 13.391Q240-465.739 240-458.043v38.521q0 7.696 6.196 13.609Q252.391-400 260.087-400ZM405-400h285q13 0 21.5-8.5T720-430q0-13-8.5-21.5T690-460H465l-60 60ZM225.869-225.869l-92.043 92.043q-19.087 19.087-43.522 9.326t-24.435-36.544v-653.869q0-32.478 23.37-56.131 23.37-23.652 55.848-23.652h669.826q32.478 0 56.131 23.652 23.652 23.653 23.652 56.131v509.826q0 32.478-23.652 55.848-23.653 23.37-56.131 23.37H225.869Z"/></svg>