<svg xmlns="http://www.w3.org/2000/svg" width="48" height="48" viewBox="0 96 960 960"><path d="M405 656h285q12.75 0 21.375-8.675 8.625-8.676 8.625-21.5 0-12.825-8.625-21.325T690 596H465l-60 60Zm-144.913 0h42.956q6.949 0 14.301-3.065t13.482-8.761l240.263-237.088Q577 401.165 577 392.149q0-9.016-6-15.026L516 327q-5-5-12.5-5t-12.5 5L251.826 570.174q-5.696 6.13-8.761 13.641Q240 591.326 240 598.457v37.456q0 8.261 5.913 14.174T260.087 656ZM65.869 894.956V241.087q0-31.74 23.356-55.762 23.355-24.021 55.862-24.021h669.826q31.74 0 55.762 24.021 24.021 24.022 24.021 55.762v509.826q0 31.507-24.021 55.362-24.022 23.856-55.762 23.856H225.869l-92.608 92.608q-19.087 19.087-43.24 8.834-24.152-10.252-24.152-36.617Zm79.218-84.305 59.739-59.738h610.087V241.087H145.087v569.564Zm0-569.564v569.564-569.564Z"/></svg>