<svg xmlns="http://www.w3.org/2000/svg" width="48" height="48" viewBox="0 -960 960 960"><path d="M260.087-400h42.956q7.261 0 14.174-2.565 6.913-2.565 13.609-9.261l240.263-237.088Q577-654.835 577-663.851q0-9.016-6-15.026L516-729q-5-5-12.5-5t-12.5 5L251.826-485.826q-6.696 6.696-9.261 13.609Q240-465.304 240-458.043v38.399q0 7.745 6.252 13.694 6.253 5.95 13.835 5.95ZM405-400h285q12.75 0 21.375-8.675 8.625-8.676 8.625-21.5 0-12.825-8.625-21.325T690-460H465l-60 60ZM225.869-225.869l-92.043 92.043q-19.087 19.087-43.522 8.958t-24.435-36.176v-653.869q0-32.74 23.356-56.262 23.355-23.521 55.862-23.521h669.826q32.74 0 56.262 23.521 23.521 23.522 23.521 56.262v509.826q0 32.507-23.521 55.862-23.522 23.356-56.262 23.356H225.869Zm-80.782-79.218h669.826v-509.826H145.087v509.826Zm0 0v-509.826 509.826Z"/></svg>