<svg xmlns="http://www.w3.org/2000/svg" width="48" height="48" viewBox="0 96 960 960"><path d="M353.825 615.609H110q-16.707 0-28.158-11.501-11.451-11.502-11.451-28.283 0-16.782 11.451-28.108T110 536.391h243.825l-94.173-94.608q-10.826-11.826-11.044-27.883-.217-16.057 11.609-27.683 11.826-11.826 27.783-11.826t27.783 11.826l162 162q11.826 11.826 11.826 27.783t-11.826 27.783l-162 162Q303.957 777.609 288 777.609t-27.783-11.826Q248.391 753.957 248.608 738q.218-15.957 11.044-27.783l94.173-94.608ZM583.001 446q-16.707 0-28.158-11.502-11.452-11.501-11.452-28.283 0-16.781 11.452-28.39 11.451-11.609 28.158-11.609H850q16.707 0 28.158 11.785 11.451 11.784 11.451 28.565 0 16.782-11.451 28.108T850 446H583.001Zm0 339.218q-16.707 0-28.158-11.501-11.452-11.502-11.452-28.283 0-16.782 11.452-28.108Q566.294 706 583.001 706H850q16.707 0 28.158 11.502 11.451 11.501 11.451 28.283 0 16.781-11.451 28.107T850 785.218H583.001Zm120-169.609q-16.707 0-28.158-11.501-11.452-11.502-11.452-28.283 0-16.782 11.452-28.108 11.451-11.326 28.158-11.326H850q16.707 0 28.158 11.501 11.451 11.502 11.451 28.283 0 16.782-11.451 28.108T850 615.609H703.001Z"/></svg>