<svg xmlns="http://www.w3.org/2000/svg" width="48" height="48" viewBox="0 96 960 960"><path d="M101.13 870.131q-28.829 0-51.48-22.449Q27 825.232 27 796V356q0-29.062 22.65-51.879 22.651-22.817 51.48-22.817h440q29.063 0 51.88 22.817 22.817 22.817 22.817 51.879v440q0 29.232-22.817 51.682-22.817 22.449-51.88 22.449h-440Zm224-79.218Zm-218.912-52q49-32 102.956-48t111.956-16q58 0 111.957 16 53.956 16 102.956 48V361.087H106.218v377.826ZM741.13 870.131q-14.747 0-23.982-9.36t-9.235-23.78V314.695q0-14.191 9.411-23.791 9.41-9.6 23.874-9.6 14.463 0 23.981 9.6 9.517 9.6 9.517 23.791v522.296q0 14.42-9.65 23.78-9.651 9.36-23.916 9.36Zm158.586 0q-14.463 0-23.981-9.36-9.517-9.36-9.517-23.78V314.695q0-14.191 9.65-23.791 9.651-9.6 23.917-9.6 14.746 0 23.981 9.6 9.235 9.6 9.235 23.791v522.296q0 14.42-9.411 23.78-9.41 9.36-23.874 9.36ZM321.13 627q-46 0-78.5-32.5t-32.5-78.5q0-46 32.5-78.5t78.5-32.5q46 0 78.5 32.5t32.5 78.5q0 46-32.5 78.5t-78.5 32.5Zm0-111ZM136.218 790.913h369.825q-43-29-89.456-42.5-46.457-13.5-95.457-13.5-53 0-98.456 13.5t-86.456 42.5ZM320.63 574q24.5 0 41.5-16.5t17-41q0-24.5-16.916-41.5-16.917-17-41.084-17-25 0-41.5 16.917-16.5 16.916-16.5 41.083 0 25 16.5 41.5t41 16.5Z"/></svg>