<svg xmlns="http://www.w3.org/2000/svg" width="48" height="48" viewBox="0 -960 960 960"><path d="M105.869-82.043v-793.653q0-6.946 5.913-9.386 5.913-2.441 11.044 2.69l31.478 30.913q5.766 6.695 14.492 6.413 8.725-.283 14.856-6.413l32.347-32.913q5.767-6.696 14.21-6.696 8.443 0 15.139 6.131l32.912 33.478q5.767 6.13 14.21 6.13 8.443 0 14.573-6.13l34.044-34.044q5.766-6.13 14.209-6.13t14.574 6.13l33.478 34.044q5.766 6.13 14.209 5.848 8.443-.283 14.573-6.414l33.479-32.912q5.766-6.131 14.209-6.413 8.443-.283 14.573 5.847l34.044 34.044q5.201 6.13 13.927 6.13 8.725 0 14.856-6.13l33.478-34.044q5.767-6.13 14.209-6.13 8.443 0 14.574 6.13l34.043 34.044q5.202 6.13 13.927 6.13t14.856-6.13l34.043-34.044q5.767-6.13 14.21-6.13 8.443 0 14.573 6.13l33.478 33.478q5.767 6.131 14.21 6.131 8.443 0 14.573-6.131l29.782-30.347q5.131-5.131 11.327-2.69 6.195 2.44 6.195 9.386v793.653q0 6.946-6.195 9.386-6.196 2.44-11.327-2.69l-29.782-30.347q-5.767-6.131-14.21-6.131-8.442 0-14.573 6.131l-33.478 33.478q-5.767 6.13-14.209 6.13-8.443 0-14.574-6.13l-34.043-33.478q-5.767-6.131-14.492-6.131-8.726 0-14.291 6.131l-34.043 33.478q-5.767 6.13-14.21 6.13-8.443 0-14.573-6.13l-33.478-33.478q-5.767-6.131-14.493-6.131-8.725 0-14.29 6.131l-34.044 33.478q-5.766 6.13-14.209 6.13t-14.573-6.13l-33.479-33.478q-5.766-6.131-14.492-6.131-8.725 0-14.29 6.131l-34.044 33.478q-5.767 6.13-14.209 6.13-8.443 0-14.574-6.13l-33.478-33.478q-5.767-6.131-14.492-6.131-8.725 0-14.291 6.131l-34.608 33.478q-5.767 6.13-14.21 6.13-8.443 0-14.573-6.13l-32.913-33.478q-6.332-6.131-14.775-6.131-8.443 0-14.573 6.131l-29.782 30.347q-5.131 5.13-11.044 2.69t-5.913-9.386Zm169.61-210.566h413.042q13.881 0 23.636-9.523 9.756-9.523 9.756-24.043 0-14.521-9.473-23.869-9.473-9.347-23.919-9.347H275.479q-13.881 0-23.636 9.523-9.756 9.523-9.756 24.043 0 14.521 9.473 23.869 9.473 9.347 23.919 9.347Zm0-154h413.042q13.881 0 23.636-9.523 9.756-9.523 9.756-24.043 0-14.521-9.473-23.869-9.473-9.347-23.919-9.347H275.479q-13.881 0-23.636 9.523-9.756 9.523-9.756 24.043 0 14.521 9.473 23.869 9.473 9.347 23.919 9.347Zm0-155h413.042q13.881 0 23.636-9.523 9.756-9.523 9.756-24.043 0-14.521-9.473-23.869-9.473-9.347-23.919-9.347H275.479q-13.881 0-23.636 9.523-9.756 9.523-9.756 24.043 0 14.521 9.473 23.869 9.473 9.347 23.919 9.347Zm-90.392 415.087h589.826v-586.956H185.087v586.956Zm0-586.956v586.956-586.956Z"/></svg>