<svg xmlns="http://www.w3.org/2000/svg" width="48" height="48" viewBox="0 96 960 960"><path d="M757.696 765.522 241.478 249.434l210.739-79.435q13.826-5.13 27.783-5.13t27.783 5.13l254.913 94.305q23.217 8.695 37.609 29.565 14.391 20.87 14.391 46.088V532q0 62.391-15.282 121.457-15.283 59.065-41.718 112.065Zm30.739 221.522L675.087 875.131q-40.304 40.304-84.217 68.37-43.913 28.065-95.479 42.63-2.565 1-6.913 1H480q-4.13 0-8.478-.282-4.348-.283-6.913-1.283-143.088-44.261-230.914-171.087Q145.869 687.652 145.869 532V343.913l-78.913-78.348q-10.13-10.13-10.13-23.543 0-13.413 10.13-23.544 10.13-9.565 24.044-9.565 13.913 0 24.043 9.565l721.479 720.479q9.565 10.13 9.065 24.043-.5 13.913-10.065 24.044-10.131 10.13-23.544 10.13t-23.543-10.13Z"/></svg>