<svg xmlns="http://www.w3.org/2000/svg" width="48" height="48" viewBox="0 -960 960 960"><path d="M462.043-547.609h-25.782q-11.627 0-19.509-8.312t-7.882-19.895q0-11.715 8.081-19.645 8.082-7.93 20.31-7.93h52.174q11.662 0 20.027 8.081 8.364 8.082 8.364 20.31v189q0 11.627-8.147 19.509-8.148 7.882-19.479 7.882-11.896 0-20.026-8.081-8.131-8.082-8.131-20.31v-160.609Zm234.566 274.218V-400q0-14.672 9.41-24.032 9.41-9.359 24.156-9.359 14.182 0 23.699 9.492 9.517 9.493 9.517 22.899v154.782q0 16.707-11.451 28.158t-28.158 11.451H243.913l58.348 58.348q10.478 11.18 10.522 24.786.043 13.605-9.522 23.736Q293.13-89.609 280-89.109q-13.13.5-23.261-9.63L143.261-212.217Q131.435-224.043 131.435-240t11.826-27.783l112.478-112.478q10.273-10.13 24.115-10.13 13.842 0 23.407 10.242 10.13 10.243 10.13 23.761 0 13.518-10.13 23.649l-59.348 59.348h452.696ZM263.391-686.609V-560q0 14.672-9.41 24.032-9.41 9.359-24.156 9.359-14.182 0-23.699-9.492-9.517-9.493-9.517-22.899v-154.782q0-16.707 11.451-28.158t28.158-11.451h480.434l-58.913-58.348q-10.274-10.31-10.42-24.351-.145-14.04 9.42-24.171 9.565-9.565 22.978-10.348 13.413-.782 23.544 9.348l113.478 113.478q11.826 11.826 11.826 27.783t-11.826 27.783L704.261-579.739q-10.273 10.13-24.115 10.13-13.842 0-23.407-10.242-10.13-10.243-10.13-23.761 0-13.518 10.13-23.649l59.913-59.348H263.391Z"/></svg>