<svg xmlns="http://www.w3.org/2000/svg" width="48" height="48" viewBox="0 -960 960 960"><path d="m480-457.043 77.391 47.347q10.826 6.696 21.37-1.282 10.543-7.979 7.978-21.37L566-519.043l67.956-59.087q10.261-8.696 5.913-21.087-4.348-12.392-17.174-13.392l-89.64-7.11-34.533-82.585q-5.147-11.826-18.53-11.826-13.383 0-18.514 11.826l-34.533 82.585-89.64 7.11q-12.826 1-17.174 13.392-4.348 12.391 5.913 21.087L394-519.043l-20.174 86.695q-3.13 13.391 7.413 21.37 10.544 7.978 21.37 1.282L480-457.043ZM225.869-225.869l-92.043 92.043q-19.087 19.087-43.522 8.958t-24.435-36.176v-653.869q0-32.74 23.356-56.262 23.355-23.521 55.862-23.521h669.826q32.74 0 56.262 23.521 23.521 23.522 23.521 56.262v509.826q0 32.507-23.521 55.862-23.522 23.356-56.262 23.356H225.869Zm-26-79.218h615.044v-509.826H145.087v570.607l54.782-60.781Zm-54.782 0v-509.826 509.826Z"/></svg>