<svg xmlns="http://www.w3.org/2000/svg" width="48" height="48" viewBox="0 96 960 960"><path d="M306.999 989.001v-74.522q-107.13-44.827-173.565-134.805Q66.999 689.696 66.999 576q0-85.918 32.348-161.133t88.326-131.194q55.979-55.978 131.173-88.326 75.194-32.348 161.087-32.348 85.893 0 161.154 32.348t131.24 88.326q55.978 55.979 88.326 131.194Q893.001 490.082 893.001 576q0 113.696-66.435 203.674-66.435 89.978-173.565 135.017v74.31H306.999Zm92.61-421.61h160.782V252.522q-19.885-4.87-39.785-7.587-19.901-2.717-40.623-2.717-20.722 0-40.611 2.717-19.89 2.717-39.763 7.587v314.869Zm-252.826 0h173.608v-282.26q-76.521 40.304-124.217 115.251-47.695 74.946-49.391 167.009Zm492.826 0h173.608q-1.696-92.956-49.391-167.456-47.696-74.5-124.217-114.804v282.26Z"/></svg>