<svg xmlns="http://www.w3.org/2000/svg" width="48" height="48" viewBox="0 -960 960 960"><path d="M346.609-67q-16.707 0-28.158-11.45-11.452-11.452-11.452-28.159v-34.912q-105.565-44.261-172.782-134.522Q66.999-366.304 66.999-480q0-85.572 32.348-160.96t88.326-131.367q55.979-55.978 131.367-88.326 75.388-32.348 160.96-32.348t160.96 32.348q75.388 32.348 131.367 88.326 55.978 55.979 88.326 131.367 32.348 75.388 32.348 160.96 0 113.696-67.218 203.957-67.217 90.261-172.782 134.522v34.912q0 16.707-11.452 28.158-11.451 11.452-28.158 11.452H346.609Zm53-421.609h160.782v-314.869q-20.239-4.87-40.337-7.587-20.098-2.717-39.913-2.717-19.815 0-40.054 2.717t-40.478 7.668v314.788Zm-252.826 0h173.608v-282.26q-79.31 41.884-125.611 117.029-46.301 75.144-47.997 165.231Zm492.826 0h173.608q-1.696-90.087-47.997-165.231-46.301-75.145-125.611-117.029v282.26ZM386.218-146.218h187.564v-49.304q75.044-32.304 137.283-84.63 62.239-52.326 86.934-129.239H162.001q24.695 76.913 86.934 129.239 62.239 52.326 137.283 84.622v49.312Zm0 0h187.564-187.564Z"/></svg>