<svg xmlns="http://www.w3.org/2000/svg" width="48" height="48" viewBox="0 -960 960 960"><path d="M480.565-694.261q-15.826 0-26.304-10.478-10.479-10.479-10.479-26.305v-127.435q0-15.826 10.479-26.022 10.478-10.195 26.304-10.195 15.826 0 26.022 10.478 10.196 10.478 10.196 26.305v127.434q0 15.827-10.196 26.022-10.196 10.196-26.022 10.196Zm203.478 88.304q-11.261-10.695-10.478-26.522.783-15.826 11.478-26.522l89.566-87.565q10.695-10.696 25.956-10.696t25.522 11.131q10.261 10.696 9.761 25.804-.5 15.109-10.761 24.805l-88 89q-10.696 10.696-26.239 10.978-15.544.283-26.805-10.413Zm-405.521-1q-10.261 11.696-25.305 11.696-15.043 0-25.739-11.261l-90-88q-11.261-11.261-11.761-26.305-.5-15.043 11.326-26.304 10.696-10.696 26.24-10.131 15.543.566 26.239 11.261l89 90q10.261 9.696 10.261 24.022 0 14.327-10.261 25.022ZM134.87-127.912l-93.435-93.435q-12.957-12.957-12.74-32.87.218-19.913 12.74-33.305 84.826-94.304 196.152-143.391Q348.913-480 480-480q131.087 0 242.978 48.522Q834.87-382.957 919.13-287.522q11.957 13.392 12.175 33.305.217 19.913-12.175 32.87l-94 93.435q-9.695 10.261-29.782 10.978-20.088.718-33.044-9.109l-108.348-80.478q-8.261-6.13-12.109-14.391-3.848-8.261-3.848-17.522v-142.957q-39.739-14.869-79.282-20.521-39.543-5.653-78.717-5.653t-78.717 5.653q-39.543 5.652-79.282 20.521v142.957q0 9.261-3.848 17.522t-11.544 14.391l-108.913 80.478Q183.435-115.347 165-115.782q-18.435-.434-30.13-12.13Z"/></svg>