<svg xmlns="http://www.w3.org/2000/svg" width="48" height="48" viewBox="0 -960 960 960"><path d="M309.608-209.87q-11.263-33.433-19.653-67.368-8.39-33.935-14.26-69.413l-61.913 41.608v134.217l95.826-39.044Zm156.435-575.39q-67.304 77.261-94.978 157.728-27.674 80.468-27.674 188.025 0 42.942 11.435 98.333t33.371 118.913h183.542q22-63.522 33.435-118.913 11.435-55.391 11.435-98.333 0-107.557-27.674-188.025-27.674-80.467-94.978-157.728-3.055-2.566-6.559-4.131-3.504-1.565-7.509-1.565-4.005 0-7.431 1.565t-6.415 4.131Zm13.748 332.999q-27.562 0-46.981-19.413t-19.419-47.522q0-28.108 19.649-47.478 19.648-19.369 47.239-19.369 27.591 0 46.96 19.627 19.37 19.628 19.37 47.19 0 28.226-19.628 47.596-19.628 19.369-47.19 19.369ZM650.392-209.87l95.826 39.044v-134.217l-61.913-41.608q-5.87 35.478-14.26 69.413-8.39 33.935-19.653 67.368ZM508.783-887.653q97.218 96.609 142.413 204.153 45.196 107.543 45.196 237.282V-435l94.131 63.565q16.958 10.919 26.218 28.258 9.26 17.34 9.26 37.134v193.913q0 20.954-17.239 32.847t-36.761 4.197L604.37-142.477H355.478L188.565-75.086q-20.088 7.696-37.327-4.197-17.239-11.893-17.239-32.847v-193.913q0-19.794 9.26-37.134 9.26-17.339 26.218-28.258L264.173-435v-10.087q0-130.87 44.913-238.413 44.913-107.544 142.131-204.153 6.131-6.131 13.859-8.978 7.728-2.848 15.174-2.848t14.924 2.848q7.478 2.847 13.609 8.978Z"/></svg>