<svg xmlns="http://www.w3.org/2000/svg" width="48" height="48" viewBox="0 -960 960 960"><path d="M140.782-180.565v-598.87q0-33.228 23.277-56.506 23.278-23.277 56.506-23.277h518.87q33.228 0 56.506 23.277 23.277 23.278 23.277 56.506v598.87h40.391q16.707 0 28.158 11.501 11.451 11.502 11.451 28.283 0 17.347-11.451 28.673-11.451 11.326-28.158 11.326H100.956q-17.272 0-28.723-11.501-11.451-11.502-11.451-28.849 0-16.781 11.45-28.107 11.452-11.326 28.724-11.326h39.826Zm79.783-335.087h518.87v-263.783h-518.87v263.783Zm0 335.087h518.87v-263.783H515.652v77.826q13.435 8.585 21.718 23.212 8.282 14.627 8.282 31.614 0 27.118-19.296 46.386-19.297 19.267-46.457 19.267t-46.356-19.267q-19.195-19.268-19.195-46.386 0-17.535 8.282-32.116 8.283-14.581 21.718-22.71v-77.826H220.565v263.783Zm0-598.87h518.87-518.87Z"/></svg>