<svg xmlns="http://www.w3.org/2000/svg" width="48" height="48" viewBox="0 -960 960 960"><path d="M105.478-166.085q-16.957 0-28.283-11.326-11.326-11.327-11.326-28.283 0-16.957 11.326-28.566 11.326-11.609 28.283-11.609h749.044q16.957 0 28.566 11.609 11.608 11.609 11.608 28.566 0 16.956-11.608 28.283-11.609 11.326-28.566 11.326H105.478Zm-9.61-139.784V-337q0-156.696 87.936-254.522 87.934-97.826 222.065-129.783v-26.608q0-31.088 21.239-52.61 21.24-21.522 52.892-21.522 31.652 0 53.174 21.522t21.522 52.61v26.608q133.566 31.957 221.783 129.783Q864.696-493.696 864.696-337v31.131H95.869Z"/></svg>