<svg xmlns="http://www.w3.org/2000/svg" width="48" height="48" viewBox="0 -960 960 960"><path d="M117.2-786.63q-11.33-11.72-11.33-28.29 0-16.56 11.6-28.17 11.61-11.61 28-11.61 16.4 0 28.01 11.72 11.61 11.72 11.61 28.29 0 16.56-11.72 28.17-11.72 11.61-28.29 11.61-16.56 0-27.88-11.72Zm167.54 0q-11.61-11.72-11.61-28.29 0-16.56 11.72-28.17 11.72-11.61 28.28-11.61 16.57 0 28.17 11.72 11.61 11.72 11.61 28.29 0 16.56-11.72 28.17-11.72 11.61-28.28 11.61-16.56 0-28.17-11.72ZM117.2-619.37q-11.33-11.72-11.33-28.28 0-16.57 11.6-28.18 11.61-11.61 28-11.61 16.4 0 28.01 11.72 11.61 11.72 11.61 28.29 0 16.56-11.72 28.17-11.72 11.61-28.29 11.61-16.56 0-27.88-11.72Zm0 167.48q-11.33-11.5-11.33-28.29 0-16.78 11.6-28.1 11.61-11.33 28-11.33 16.4 0 28.01 11.5 11.61 11.5 11.61 28.29 0 16.78-11.72 28.1-11.72 11.33-28.29 11.33-16.56 0-27.88-11.5Zm0 167.04q-11.33-11.72-11.33-28.28 0-16.57 11.6-28.17 11.61-11.61 28-11.61 16.4 0 28.01 11.72 11.61 11.72 11.61 28.28 0 16.56-11.72 28.17-11.72 11.61-28.29 11.61-16.56 0-27.88-11.72Zm669.32 0q-11.61-11.72-11.61-28.28 0-16.57 11.72-28.17 11.72-11.61 28.29-11.61 16.56 0 28.17 11.72 11.61 11.72 11.61 28.28 0 16.56-11.72 28.17-11.72 11.61-28.29 11.61-16.56 0-28.17-11.72ZM117.2-117.47q-11.33-11.61-11.33-28 0-16.4 11.6-28.01 11.61-11.61 28-11.61 16.4 0 28.01 11.72 11.61 11.72 11.61 28.29 0 16.56-11.72 27.88-11.72 11.33-28.29 11.33-16.56 0-27.88-11.6Zm167.54 0q-11.61-11.61-11.61-28 0-16.4 11.72-28.01 11.72-11.61 28.28-11.61 16.57 0 28.17 11.72 11.61 11.72 11.61 28.29 0 16.56-11.72 27.88-11.72 11.33-28.28 11.33-16.56 0-28.17-11.6Zm166.98 0q-11.33-11.61-11.33-28 0-16.4 11.5-28.01 11.5-11.61 28.29-11.61 16.78 0 28.1 11.72 11.33 11.72 11.33 28.29 0 16.56-11.5 27.88-11.5 11.33-28.29 11.33-16.78 0-28.1-11.6Zm167.54 0q-11.61-11.61-11.61-28 0-16.4 11.72-28.01 11.72-11.61 28.28-11.61 16.57 0 28.18 11.72t11.61 28.29q0 16.56-11.72 27.88-11.72 11.33-28.29 11.33-16.56 0-28.17-11.6Zm167.26 0q-11.61-11.61-11.61-28 0-16.4 11.72-28.01 11.72-11.61 28.29-11.61 16.56 0 28.17 11.72 11.61 11.72 11.61 28.29 0 16.56-11.72 27.88-11.72 11.33-28.29 11.33-16.56 0-28.17-11.6Zm-11.61-363.1v-162.17q0-55.3-38.43-93.74-38.44-38.43-93.74-38.43H480.57q-16.71 0-28.16-11.5-11.45-11.51-11.45-28.24 0-16.73 11.45-28.39t28.16-11.66h168.95q85.45 0 145.31 59.87 59.87 59.86 59.87 145.31v168.95q0 16.71-11.84 28.16-11.83 11.45-28.56 11.45-16.73 0-28.06-11.45-11.33-11.45-11.33-28.16Z"/></svg>