<svg xmlns="http://www.w3.org/2000/svg" width="48" height="48" viewBox="0 -960 960 960"><path d="M480-781.696q-15.393 0-25.805-10.543-10.413-10.542-10.413-26.128 0-15.585 10.413-25.957 10.412-10.372 25.805-10.372h169.522q85.447 0 145.311 59.863 59.863 59.864 59.863 145.311V-480q0 15.393-10.625 25.805-10.626 10.413-26.333 10.413-15.467 0-25.755-10.413-10.287-10.412-10.287-25.805v-169.36q0-55.184-38.576-93.76-38.576-38.576-93.76-38.576H480Zm-338.367 0q-15.585 0-25.674-10.543-10.09-10.542-10.09-26.128 0-15.585 10.265-25.957t25.85-10.372q15.585 0 25.953 10.625 10.367 10.626 10.367 26.333 0 15.467-10.543 25.755-10.542 10.287-26.128 10.287Zm169.235 0q-15.467 0-25.755-10.543-10.287-10.542-10.287-26.128 0-15.585 10.542-25.957 10.543-10.372 26.128-10.372t25.958 10.625q10.372 10.626 10.372 26.333 0 15.467-10.625 25.755-10.626 10.287-26.333 10.287ZM141.633-612.739q-15.585 0-25.674-10.626-10.09-10.625-10.09-26.332 0-15.467 10.265-25.755 10.265-10.288 25.85-10.288t25.953 10.543q10.367 10.543 10.367 26.128t-10.543 25.958q-10.542 10.372-26.128 10.372Zm0 168.957q-15.585 0-25.674-10.429-10.09-10.429-10.09-25.845 0-15.417 10.265-25.789 10.265-10.373 25.85-10.373t25.953 10.429q10.367 10.429 10.367 25.845 0 15.417-10.543 25.789-10.542 10.373-26.128 10.373Zm0 168.956q-15.585 0-25.674-10.542-10.09-10.543-10.09-26.128t10.265-25.958q10.265-10.372 25.85-10.372t25.953 10.625q10.367 10.626 10.367 26.333 0 15.467-10.543 25.755-10.542 10.287-26.128 10.287Zm676.105 0q-15.467 0-25.755-10.542-10.287-10.543-10.287-26.128t10.543-25.958q10.542-10.372 26.128-10.372 15.585 0 25.957 10.625 10.372 10.626 10.372 26.333 0 15.467-10.625 25.755-10.626 10.287-26.333 10.287ZM141.633-105.869q-15.585 0-25.674-10.265-10.09-10.265-10.09-25.85t10.265-25.953q10.265-10.367 25.85-10.367t25.953 10.543q10.367 10.542 10.367 26.128 0 15.585-10.543 25.674-10.542 10.09-26.128 10.09Zm169.235 0q-15.467 0-25.755-10.265-10.287-10.265-10.287-25.85t10.542-25.953q10.543-10.367 26.128-10.367t25.958 10.543q10.372 10.542 10.372 26.128 0 15.585-10.625 25.674-10.626 10.09-26.333 10.09Zm169.076 0q-15.417 0-25.789-10.265-10.373-10.265-10.373-25.85t10.429-25.953q10.429-10.367 25.845-10.367 15.417 0 25.789 10.543 10.373 10.542 10.373 26.128 0 15.585-10.429 25.674-10.429 10.09-25.845 10.09Zm169.125 0q-15.585 0-25.958-10.265-10.372-10.265-10.372-25.85t10.626-25.953q10.625-10.367 26.332-10.367 15.467 0 25.755 10.543 10.288 10.542 10.288 26.128 0 15.585-10.543 25.674-10.543 10.09-26.128 10.09Zm168.669 0q-15.467 0-25.755-10.265-10.287-10.265-10.287-25.85t10.543-25.953q10.542-10.367 26.128-10.367 15.585 0 25.957 10.543 10.372 10.542 10.372 26.128 0 15.585-10.625 25.674-10.626 10.09-26.333 10.09Z"/></svg>