<svg xmlns="http://www.w3.org/2000/svg" width="48" height="48" viewBox="0 -960 960 960"><path d="m674.565-247.825-75.869 75.869q-11.826 12.391-27.783 12.391t-27.783-12.391q-11.826-11.826-11.826-27.5t11.826-28.066l75.869-75.869-75.869-75.869q-11.826-11.826-11.826-27.783 0-15.956 11.826-27.783 11.826-11.826 27.783-11.826t27.783 11.826l75.869 75.869 76.434-75.869q11.826-11.826 27.5-11.826t28.066 11.826q11.826 11.827 11.826 27.783 0 15.957-11.826 27.783l-76.435 75.869 76.435 75.869q11.826 12.392 11.826 28.066t-11.826 27.5q-12.392 12.391-28.066 12.391t-27.5-12.391l-76.434-75.869Zm-17.261-384.741 150.652-151.217q11.826-11.826 28.348-11.326t28.348 12.326q11.827 11.826 11.544 27.783-.283 15.957-12.109 27.783l-179 178.435q-11.826 11.826-28.065 12.109-16.24.282-28.066-11.544l-99.435-100Q517.13-660.043 517.13-676t12.391-27.783q11.827-11.826 27.783-11.326 15.957.5 27.783 11.326l72.217 71.217ZM107.739-359.609H398.13q16.957 0 28.283 11.326T437.739-320q0 16.957-11.326 28.283t-28.283 11.326H107.739q-16.957 0-28.283-11.326T68.13-320q0-16.957 11.326-28.283t28.283-11.326Zm0-320H398.13q16.957 0 28.283 11.326T437.739-640q0 16.957-11.326 28.283t-28.283 11.326H107.739q-16.957 0-28.283-11.326T68.13-640q0-16.957 11.326-28.283t28.283-11.326Z"/></svg>