<svg xmlns="http://www.w3.org/2000/svg" width="48" height="48" viewBox="0 96 960 960"><path d="M762.435 943.74q-11.261-10.007-11.261-25.395t11.261-26.084l36.478-37.043H476.218q-12.261 42.391-47.555 67.587-35.293 25.196-77.717 25.196-42.425 0-77.751-25.479-35.326-25.478-47.022-67.304h-32.391q-58.417 0-95.709-37.316-37.291-37.315-37.291-95.12V489.043h242.13V361.087H95.999q-14.826 0-25.022-10.543-10.195-10.543-10.195-26.128t10.214-25.957Q81.211 288.087 97 288.087h479.826q32.507 0 55.863 23.521 23.355 23.522 23.355 56.262v414.912h143.435l-38.043-38.608q-10.696-10.609-10.979-25.196-.282-14.587 11.979-26.566 9.695-9.413 25.167-9.413 15.471 0 26.311 9.696l98.088 98.522q5.565 6.221 8.695 13.344 3.131 7.123 3.131 14.618 0 7.494-3.131 14.484-3.13 6.989-8.695 13.12L813.48 944.74q-10.696 11.261-25.625 11.261t-25.419-12.261ZM375.913 489.043h207.13V362.087h-207.13v126.956ZM351.158 875q24.755 0 41.255-16.746 16.5-16.745 16.5-41.5 0-24.754-16.746-41.254-16.745-16.5-41.5-16.5-24.754 0-41.254 16.746-16.5 16.745-16.5 41.5 0 24.754 16.745 41.254 16.746 16.5 41.5 16.5Z"/></svg>