<svg xmlns="http://www.w3.org/2000/svg" width="48" height="48" viewBox="0 -960 960 960"><path d="M145.087-65.869q-32.507 0-55.862-23.356-23.356-23.355-23.356-55.862v-669.826q0-32.74 23.356-56.262 23.355-23.521 55.862-23.521h669.826q32.74 0 56.262 23.521 23.521 23.522 23.521 56.262v669.826q0 32.507-23.521 55.862-23.522 23.356-56.262 23.356H145.087Zm0-253.391v174.173H240V-240h-20.478q-7.696 0-13.609-6.252Q200-252.505 200-260.087v-59.173h-54.913Zm0-70.74H200v-20q0-12.75 8.625-21.375T230-440h10v-95q0-25 17.5-42.5T300-595h80q25 0 42.5 17.5T440-535v95h10q12.75 0 21.375 8.625T480-410v20h334.913v-424.913H145.087V-390Zm123.392 81.521h143.042v-63.042H268.479v63.042ZM340-635q-25 0-42.5-17.5T280-695q0-25 17.5-42.5T340-755q25 0 42.5 17.5T400-695q0 25-17.5 42.5T340-635Zm-40 489.913h80V-240h-80v94.913Zm140 0h374.913V-319.26H480v59.738q0 7.696-5.913 13.609T460.478-240H440v94.913ZM474.105-644Q460-662 452.5-680.457t-7.5-37.886V-730q1-11 9.576-18 8.577-7 20.12-7 9.262 0 15.283 7.783Q496-739.435 495-729.729V-718q0 11.688 5 22.844T516-671q17 21 25 39.85t8 39.15q0 11.534-8.71 19.267Q531.581-565 519.779-565q-10.356 0-15.935-8.016-5.579-8.015-5.579-18.984 0-13.125-5.031-24.062Q488.202-627 474.105-644Zm100 0Q560-662 552.5-680.457t-7.5-37.886V-730q1-11 9.576-18 8.577-7 20.12-7 9.262 0 15.283 7.783Q596-739.435 595-729.729V-718q0 11.688 5 22.844T616-671q17 21 25 39.85t8 39.15q0 11.534-8.71 19.267Q631.581-565 619.779-565q-10.356 0-15.935-8.016-5.579-8.015-5.579-18.984 0-13.125-5.031-24.062Q588.202-627 574.105-644Zm102 0Q662-662 654.5-680.457t-7.5-37.886V-730q1-11 9.576-18 8.577-7 20.12-7 9.262 0 15.283 7.783Q698-739.435 697-729.729V-718q0 11.688 5 22.844T718-671q17 21 25 39.85t8 39.15q0 11.534-8.71 19.267Q733.581-565 721.779-565q-10.356 0-15.935-8.016-5.579-8.015-5.579-18.984 0-13.125-5.031-24.062Q690.202-627 676.105-644ZM268.479-308.479v-63.042 63.042Z"/></svg>