<svg xmlns="http://www.w3.org/2000/svg" width="48" height="48" viewBox="0 -960 960 960"><path d="M271.347-78.87H121.044q-16.957 0-29.066-12.608-12.108-12.609-10.543-29.566 8.87-144.347 88.804-256.217 79.935-111.869 230.152-136.565V-639.26q-49.348-7.261-98.653-21.674-49.304-14.414-91.565-38.196-42.26-23.783-73.803-56.652-31.544-32.87-45.24-77.044-5.13-18.522 6.979-33.413 12.109-14.891 31.631-14.891h700.52q19.522 0 32.479 14.891t6.696 33.413q-13.131 44.174-44.674 77.609-31.543 33.435-74.087 56.935-42.543 23.5-92.13 37.913-49.587 14.413-98.935 21.109v125.434q150.217 24.696 230.152 136.565 79.935 111.87 89.369 256.217 1 16.957-11.108 29.566-12.109 12.608-29.066 12.608H688.653q-16.957 0-28.283-11.326t-11.326-28.283q0-16.956 11.326-28.283 11.326-11.326 28.283-11.326h106.302q-20.261-135.608-104.217-210.194-83.956-74.587-211.303-74.587-126.783 0-210.173 74.587-83.391 74.586-104.217 210.194h106.302q16.957 0 28.283 11.326 11.326 11.327 11.326 28.283 0 16.957-11.326 28.283T271.347-78.87ZM480-706.13q91.304 0 177.63-31.979 86.325-31.978 107.412-70.021H194.958q21.087 38.043 107.413 70.021Q388.696-706.13 480-706.13Zm-6.218 627.26q-34.13 0-58.478-24.065t-24.348-58.195q0-17.566 6.5-32.131 6.5-14.565 18.631-26.13 11.434-12 33.282-24.218 21.848-12.217 51.979-25.217L592.869-307q12.391-5.13 21.652 4.63 9.261 9.761 4.131 21.588l-38.174 92.086q-13 30.131-25.283 51.979-12.282 21.847-23.717 33.282-11.565 12.13-26.13 18.348-14.566 6.218-31.566 6.218ZM480-706.13Z"/></svg>