<svg xmlns="http://www.w3.org/2000/svg" width="48" height="48" viewBox="0 0 48 48"><path d="m36.75 16.55-9.45-9.3v5.3q0 1.7 1.15 2.85 1.15 1.15 2.85 1.15Zm-1 22.75-2.8 2.8q-.6.55-1.375.55t-1.375-.6q-.65-.55-.65-1.35t.65-1.45l2.75-2.75-2.8-2.85q-.6-.55-.6-1.35t.65-1.45q.6-.6 1.375-.6t1.425.6l2.75 2.8 2.85-2.8q.6-.6 1.375-.575.775.025 1.425.625.6.6.575 1.4-.025.8-.575 1.35l-2.8 2.85 2.8 2.8q.55.6.55 1.4 0 .8-.6 1.35-.6.6-1.375.6T38.6 42.1Zm-24.5 5.4q-1.6 0-2.775-1.175Q7.3 42.35 7.3 40.75V7.25q0-1.6 1.175-2.8 1.175-1.2 2.775-1.2H27.7q.8 0 1.55.35t1.3.9l8.95 8.95q.55.55.9 1.3t.35 1.55v10.35q-1.2-.55-2.45-.85-1.25-.3-2.6-.3-4.5 0-7.7 3.2t-3.2 7.75q0 2.4.975 4.525.975 2.125 2.775 3.725Z"/></svg>