<svg xmlns="http://www.w3.org/2000/svg" width="48" height="48" viewBox="0 -960 960 960"><path d="M859.435-313.565v-244.087L517.609-373.304q-18.522 10.261-38.609 9.761-20.087-.5-38.044-10.761l-349-191.217q-10.26-6.131-15.456-15.199-5.196-9.069-5.196-19.305 0-10.236 5.196-19.28 5.196-9.043 15.457-15.174L440.956-825.13q8.564-5.131 18.358-7.979 9.793-2.848 19.686-2.848t19.686 2.848q9.794 2.848 18.923 7.979l393.739 213.304q9.315 4.987 15.201 14.577 5.886 9.59 5.886 20.901V-313q0 15.576-10.653 25.897-10.654 10.321-25.74 10.321-15.651 0-26.129-10.604-10.478-10.603-10.478-26.179ZM440.956-134.87 224.522-252.956q-19.087-10.826-30.131-29.598-11.043-18.772-11.043-40.359v-156.478l257.608 141.304q17.612 10.261 37.872 10.261 20.259 0 38.781-10.261l257.609-141.304v156.478q0 21.587-11.327 40.359-11.326 18.772-29.848 29.598L517.609-134.87q-9.129 5.131-18.923 7.696-9.793 2.565-19.686 2.565t-19.686-2.565q-9.794-2.565-18.358-7.696Z"/></svg>