<svg xmlns="http://www.w3.org/2000/svg" width="48" height="48" viewBox="0 96 960 960"><path d="m486.869 972.218-300.26-299.825q-11.826-11.261-11.543-28.001.282-16.739 11.596-28.565 11.879-11.826 28.565-11.826 16.687 0 27.948 11.826L544 916.652 772.477 688.74h-87.651q-16.141 0-26.462-11.785-10.321-11.784-10.321-28.565t11.452-28.108q11.451-11.326 28.157-11.326h180q16.707 0 28.158 11.451 11.452 11.452 11.452 28.158v180q0 17.272-11.502 28.723-11.502 11.452-28.283 11.452-16.216 0-27.825-10.886-11.609-10.886-11.609-26.463v-87.085L599.566 972.218q-23.596 23.217-56.538 23.217-32.941 0-56.159-23.217ZM272.348 543.044h-180q-16.707 0-28.158-11.451-11.452-11.452-11.452-28.723v-180q0-16.707 11.502-28.158 11.502-11.452 28.283-11.452t28.39 10.604q11.609 10.603 11.609 26.179v87.086l227.912-227.347q23.596-23.217 56.255-23.217 32.659 0 55.877 23.217l301.39 299.26q11.261 11.261 10.978 28.283-.282 17.022-11.596 28.283-11.879 11.826-28.565 11.826-16.687 0-27.948-11.826L416 235.348 188.088 463.26h87.651q15.576 0 26.18 11.785 10.603 11.784 10.603 28 0 17.346-11.734 28.673-11.734 11.326-28.44 11.326Z"/></svg>