<svg xmlns="http://www.w3.org/2000/svg" width="48" height="48" viewBox="0 -960 960 960"><path d="M449-529.609h77.609v50.305q0 6.851 5.913 9.339 5.913 2.487 11.858-2.894l75.651-75.65q5.665-6.333 5.665-14.724 0-8.392-5.566-14.158l-75.744-75.745q-5.951-5.386-11.864-2.899-5.913 2.488-5.913 9.339v50.305H449q-50.123 0-84.757 34.716-34.634 34.717-34.634 84.958V-417q0 13.965 9.523 23.678 9.523 9.713 24.043 9.713 14.521 0 23.869-9.472 9.347-9.473 9.347-23.919v-60q0-22.019 15.295-37.314 15.295-15.295 37.314-15.295ZM60.252-99.086q-14.307 0-23.78-9.763Q27-118.613 27-132.653q0-14.28 9.473-23.748 9.473-9.468 23.78-9.468h839.495q14.308 0 23.781 9.578 9.473 9.578 9.473 23.761t-9.473 23.814q-9.473 9.63-23.781 9.63H60.252Zm84.835-126.783q-32.507 0-55.862-23.356-23.356-23.355-23.356-55.862v-469.826q0-32.74 23.356-56.262 23.355-23.521 55.862-23.521h669.826q32.74 0 56.262 23.521 23.521 23.522 23.521 56.262v469.826q0 32.507-23.521 55.862-23.522 23.356-56.262 23.356H145.087Z"/></svg>