<svg xmlns="http://www.w3.org/2000/svg" width="48" height="48" viewBox="0 -960 960 960"><path d="M480-320.391q66.957 0 113.283-46.326Q639.609-413.043 639.609-480t-46.326-113.283Q546.957-639.609 480-639.609t-113.283 46.326Q320.391-546.957 320.391-480t46.326 113.283Q413.043-320.391 480-320.391ZM145.087-145.869q-32.507 0-55.862-23.356-23.356-23.355-23.356-55.862v-509.826q0-32.74 23.356-56.262 23.355-23.521 55.862-23.521h669.826q32.74 0 56.262 23.521 23.521 23.522 23.521 56.262v509.826q0 32.507-23.521 55.862-23.522 23.356-56.262 23.356H145.087Z"/></svg>