<svg xmlns="http://www.w3.org/2000/svg" width="48" height="48" viewBox="0 96 960 960"><path d="M442 680.043q-7.85 0-14.864-2.899-7.015-2.899-12.919-8.927L351 605q-9-9-9-21t9-21q9-9 21-9t21 9l49 49 135-135q9-9 21-9t21 9q9 9 9 21t-9 21L469.783 668.217q-5.904 6.028-12.919 8.927-7.014 2.899-14.864 2.899ZM266.218 1029q-32.928 0-56.073-23.14-23.146-23.15-23.146-56.078V202.218q0-32.928 23.146-56.073 23.145-23.146 56.073-23.146h427.564q32.928 0 56.073 23.146 23.146 23.145 23.146 56.073v747.564q0 32.928-23.146 56.078Q726.71 1029 693.782 1029H266.218Zm0-169.218h427.564V292.218H266.218v567.564Z"/></svg>