<svg xmlns="http://www.w3.org/2000/svg" width="48" height="48" viewBox="0 96 960 960"><path d="M92.868 268.087q0-31.914 23.522-55.566 23.522-23.653 56.262-23.653v79.219H92.868Zm0 351.174v-88.087h79.784v88.087H92.868Zm167.784 343.871v-79.784h88.087v79.784h-88.087ZM92.868 444.174v-88.087h79.784v88.087H92.868ZM436.74 268.087v-79.219h88.087v79.219H436.74Zm351.174 0v-79.219q31.914 0 55.566 23.653 23.653 23.652 23.653 55.566h-79.219ZM172.652 963.132q-32.74 0-56.262-23.522t-23.522-56.262h79.784v79.784ZM92.868 795.348v-88.087h79.784v88.087H92.868Zm167.784-527.261v-79.219h88.087v79.219h-88.087Zm176.087 695.045v-79.784h88.087v79.784h-88.087Zm351.174-343.871v-88.087h79.219v88.087h-79.219Zm0 343.871v-79.784h79.219q0 32.479-23.653 56.131-23.652 23.653-55.566 23.653Zm0-518.958v-88.087h79.219v88.087h-79.219Zm0 351.174v-88.087h79.219v88.087h-79.219ZM611.826 963.132v-79.784h88.087v79.784h-88.087Zm0-695.045v-79.219h88.087v79.219h-88.087ZM300.261 795.348q-16.707 0-28.158-11.451t-11.451-28.158V396.261q0-16.636 11.451-28.405 11.451-11.769 28.158-11.769h359.478q16.636 0 28.405 11.769 11.769 11.769 11.769 28.405v359.478q0 16.707-11.769 28.158t-28.405 11.451H300.261Zm39.609-79.218h280.26V435.87H339.87v280.26Z"/></svg>