<svg xmlns="http://www.w3.org/2000/svg" width="48" height="48" viewBox="0 -960 960 960"><path d="M181.696-105.869q-30.529 0-53.178-22.649-22.649-22.649-22.649-53.178h75.827v75.827Zm-75.827-135.827V-365h75.827v123.304h-75.827Zm0-183.304v-111h75.827v111h-75.827Zm0-171v-122.304h75.827V-596h-75.827Zm0-182.304q0-30.762 22.649-53.577 22.649-22.815 53.178-22.815v76.392h-75.827Zm135.827 672.435v-75.827H365v75.827H241.696Zm0-672.435v-76.392H365v76.392H241.696ZM425-105.869v-75.827h111v75.827H425Zm0-672.435v-76.392h111v76.392H425Zm171 672.435v-75.827h122.304v75.827H596Zm0-672.435v-76.392h122.304v76.392H596Zm182.304 672.435v-75.827h76.392q0 30.783-22.815 53.305t-53.577 22.522Zm0-135.827V-365h76.392v123.304h-76.392Zm0-183.304v-111h76.392v111h-76.392Zm0-171v-122.304h76.392V-596h-76.392Zm0-182.304v-76.392q30.762 0 53.577 22.815 22.815 22.815 22.815 53.577h-76.392Z"/></svg>