<svg xmlns="http://www.w3.org/2000/svg" width="48" height="48" viewBox="0 0 48 48"><path d="M42.25 23.3q0 6.05-3.6 10.775-3.6 4.725-9.3 6.325-.55.2-1-.25-.45-.45-.45-1.1 0-.75.325-1.325t.975-.875q4.3-1.5 7-5.2t2.7-8.35q0-4.6-2.65-8.35t-7-5.25q-.6-.25-.975-.825T27.9 7.65q0-.75.4-1.175.4-.425.95-.275 5.75 1.6 9.375 6.325T42.25 23.3ZM13.5 29.65H7.75q-.85 0-1.425-.575Q5.75 28.5 5.75 27.7v-8.65q0-.85.575-1.425.575-.575 1.425-.575h5.75l7-7q.95-.95 2.175-.45 1.225.5 1.225 1.85V35.3q0 1.3-1.225 1.8t-2.175-.45Zm13.4-.05V17.05q0-.4.175-.675t.425-.475q.25-.2.6-.25.35-.05.7.15 2.1 1.1 3.275 3.15 1.175 2.05 1.175 4.4 0 2.4-1.175 4.4-1.175 2-3.275 3.1-.35.2-.7.175-.35-.025-.6-.225t-.425-.5q-.175-.3-.175-.7Zm-6.5 1.6V15.55l-5.35 5.05H9.3v5.5h5.75ZM1.3 11.6V5.25q0-1.65 1.15-2.825Q3.6 1.25 5.25 1.25h6.35q.85 0 1.425.6.575.6.575 1.45 0 .8-.575 1.375T11.6 5.25H5.25v6.35q0 .85-.575 1.425-.575.575-1.425.575-.8 0-1.375-.575T1.3 11.6Zm35.1 35.1q-.85 0-1.425-.575-.575-.575-.575-1.425 0-.8.575-1.375t1.425-.575h6.35V36.4q0-.85.575-1.425.575-.575 1.425-.575.8 0 1.4.575.6.575.6 1.425v6.35q0 1.65-1.175 2.8T42.75 46.7ZM14.85 23.35Z"/></svg>