<svg xmlns="http://www.w3.org/2000/svg" width="48" height="48" viewBox="0 -960 960 960"><path d="M816.52-56.22 404.74-467H140v320.78h499.78V-327L719-247.22v101q0 32.67-23.28 55.94Q672.45-67 639.78-67H140q-33.23 0-56.22-23.28-23-23.27-23-55.94v-374.56q0-32.67 23-55.94Q106.77-600 140-600h102v-29.74l-195-195q-9.57-9.63-9.85-23.51-.28-13.88 9.9-24.01 10.19-10.13 23.76-10.13 13.58 0 23.71 10.13l769.52 769.52q9.57 10.13 9.85 23.26.28 13.13-9.9 23.26t-23.76 10.13q-13.58 0-23.71-10.13Zm83.26-757.56v374.56q0 32.67-23.27 55.94Q853.23-360 820-360h-99.96q-10.18 0-18.91-3.87-8.74-3.87-14.48-10.17L528.09-532.61q-9.26-9.26-10.55-20.87-1.28-11.61 2.57-21.87 3.85-10.26 13.14-17.45 9.29-7.2 22.62-7.2h96.48q29.17 0 47.91 18.74Q719-562.52 719-533.35v94.13h101V-760H334.18q-16.41 0-31.36-6.7-14.95-6.69-25.84-17.58l-41.56-40.43q-9.59-9.59-11.16-21.49-1.56-11.89 2.28-22.15 3.85-10.26 13.43-17.45 9.57-7.2 22.9-7.2H820q33.23 0 56.51 23.28 23.27 23.27 23.27 55.94Z"/></svg>