<svg xmlns="http://www.w3.org/2000/svg" width="48" height="48" viewBox="0 -960 960 960"><path d="M480-350.307q54.369 0 92.031-37.662 37.662-37.663 37.662-92.031 0-54.369-37.662-92.031-37.662-37.662-92.031-37.662-54.368 0-92.031 37.662-37.662 37.662-37.662 92.031 0 54.368 37.662 92.031 37.663 37.662 92.031 37.662Zm.065 143.091q-114.196 0-193.523-79.261-79.326-79.262-79.326-193.458t79.261-193.523q79.262-79.326 193.458-79.326t193.523 79.261q79.326 79.262 79.326 193.458t-79.261 193.523q-79.262 79.326-193.458 79.326ZM818.435-480q0-42.739-10.152-81.699-10.153-38.959-28.457-73.953-7.13-14.391-4.565-30 2.565-15.609 16.391-24.305 13.261-9.13 28.653-4.565 15.391 4.565 23.522 18.392 24.435 44.565 37.152 93.347Q893.696-534 893.696-480t-12.717 103.565q-12.717 49.565-37.152 93.565-8.131 14.392-23.522 18.175-15.392 3.782-28.653-5.348-13.826-8.696-16.391-24.305-2.565-15.609 4.565-30 18.304-34.994 28.457-73.953 10.152-38.96 10.152-81.699Zm-677.305 0q0 42.739 10.153 81.699 10.152 38.959 28.456 73.953 7.131 14.391 4.565 30-2.565 15.609-16.391 24.305-13.261 9.13-29.153 5.348-15.891-3.783-23.022-18.175-24.434-44-37.152-93.565Q65.87-426 65.87-480t12.717-102.783q12.718-48.782 37.152-93.347 7.566-13.827 23.24-18.392 15.674-4.565 28.935 4.565 13.826 8.696 16.391 24.305 2.566 15.609-4.565 30-18.304 34.994-28.456 73.953Q141.13-522.739 141.13-480ZM480-480Z"/></svg>