<svg xmlns="http://www.w3.org/2000/svg" width="48" height="48" viewBox="0 -960 960 960"><path d="M480-65.869q-85.826 0-161.652-32.348-75.827-32.348-131.805-88.826-55.978-56.478-88.326-131.944-32.348-75.466-32.348-160.935 0-86.469 32.348-162.013 32.348-75.544 88.411-131.552 56.062-56.008 131.804-88.609 75.742-32.6 161.568-32.6 85.826 0 161.067 32.557 75.24 32.557 131.803 88.49 56.562 55.933 89.194 131.499 32.632 75.566 32.632 162.15 0 85.547-32.6 161.082-32.601 75.534-89.109 131.944-56.508 56.409-131.835 88.757Q565.826-65.869 480-65.869Zm136.609-423.74q24.13 0 40.761-16.63Q674-522.87 674-547q0-13.202-5.217-24.101Q663.565-582 654.13-591.13l6.044-2.74q8.565-3.764 10.848-12.889 2.282-9.125-2.718-17.879-5-8.753-14.118-11.536-9.119-2.783-17.838 2.217l-89.305 52.435q-8.719 5.208-11.49 15.365-2.771 10.157 6.056 25.114 2.434 5.217 8.652 6.543 6.217 1.326 11.652-1.674l-.565.565q4.13 20 19.53 33 15.399 13 35.731 13Zm-273.218 0q20.347 0 35.757-13 15.41-13 20.088-33l-1.149-.565q5.435 3 11.723.532 6.288-2.468 12.842-13.907 4.566-8.743 2-17.858-2.565-9.115-11.13-14.115l-90.83-52.399q-8.17-4.601-17.583-2.536-9.413 2.066-13.413 10.593-5 8.528-2.218 18.261 2.783 9.733 11.348 13.733l5.609 2.74q-10 9.13-15.218 20.029Q286-560.202 286-547q0 24.13 16.63 40.761 16.631 16.63 40.761 16.63Zm136.365 47.522q-69.81 0-121.565 47.478Q306.435-347.13 282.13-280h395.74q-24.74-66.696-76.522-114.391-51.783-47.696-121.592-47.696Z"/></svg>