<svg xmlns="http://www.w3.org/2000/svg" width="48" height="48" viewBox="0 0 48 48"><path d="M24 23.4q3 0 5.225 2 2.225 2 2.725 4.95.1.65.625 1.05t1.225.4q.7 0 1.2-.5t.4-1.2q-.55-4.35-3.775-7.225Q28.4 20 24 20t-7.625 2.875Q13.15 25.75 12.6 30.1q-.1.7.4 1.2t1.2.5q.7 0 1.225-.4.525-.4.625-1.05.5-2.95 2.725-4.95t5.225-2Zm-2.7-8.05q.55-.45.5-1.15-.05-.7-.6-1.15-.55-.5-1.275-.45-.725.05-1.275.55-.8.6-1.625 1.075t-1.775.825q-.7.25-1.1.85-.4.6-.3 1.3.1.75.7 1.15.6.4 1.2.15 1.55-.5 2.95-1.275 1.4-.775 2.6-1.875Zm5.4.05q1.15 1.05 2.55 1.825 1.4.775 2.9 1.275.7.2 1.275-.175t.725-1.125q.1-.7-.325-1.3-.425-.6-1.125-.85-.9-.35-1.75-.825t-1.6-1.075q-.6-.5-1.3-.55-.7-.05-1.25.45-.6.45-.625 1.15-.025.7.525 1.2ZM24 44.7q-4.3 0-8.075-1.625Q12.15 41.45 9.35 38.65q-2.8-2.8-4.425-6.575Q3.3 28.3 3.3 24q0-4.3 1.625-8.075Q6.55 12.15 9.35 9.35q2.8-2.8 6.575-4.45Q19.7 3.25 24 3.25q4.3 0 8.075 1.625 3.775 1.625 6.6 4.45 2.825 2.825 4.45 6.6Q44.75 19.7 44.75 24q0 4.3-1.65 8.075-1.65 3.775-4.45 6.575-2.8 2.8-6.575 4.425Q28.3 44.7 24 44.7ZM24 24Zm0 16.75q7 0 11.875-4.875T40.75 24q0-7-4.875-11.875T24 7.25q-7 0-11.875 4.875T7.25 24q0 7 4.875 11.875T24 40.75Z"/></svg>