<svg xmlns="http://www.w3.org/2000/svg" width="48" height="48" viewBox="0 0 48 48"><path d="M19.5 31.2h9q.75 0 1.25-.5t.5-1.2q0-.75-.5-1.25t-1.25-.5h-9q-.75 0-1.225.5-.475.5-.475 1.25t.475 1.225q.475.475 1.225.475ZM24 44.7q-4.3 0-8.075-1.625Q12.15 41.45 9.35 38.65q-2.8-2.8-4.425-6.575Q3.3 28.3 3.3 24q0-4.3 1.625-8.075Q6.55 12.15 9.35 9.35q2.8-2.8 6.575-4.45Q19.7 3.25 24 3.25q4.3 0 8.075 1.625 3.775 1.625 6.6 4.45 2.825 2.825 4.45 6.6Q44.75 19.7 44.75 24q0 4.3-1.65 8.075-1.65 3.775-4.45 6.575-2.8 2.8-6.575 4.425Q28.3 44.7 24 44.7Zm-7-27.95q-1.3 0-2.45.6-1.15.6-2.05 1.55-.45.5-.325 1.2t.725 1.1q.6.4 1.275.25.675-.15 1.225-.6.35-.3.75-.45.4-.15.85-.15.45 0 .875.175t.775.425q.55.45 1.225.575.675.125 1.275-.275.6-.4.725-1.075Q22 19.4 21.5 18.95q-.9-.95-2.05-1.575T17 16.75Zm14 0q-1.3 0-2.475.6t-2.025 1.6q-.5.5-.35 1.175.15.675.75 1.075.55.4 1.225.275T29.4 20.9q.35-.25.75-.425T31 20.3q.45 0 .875.175t.775.425q.55.45 1.225.575.675.125 1.275-.275.6-.4.725-1.1.125-.7-.375-1.15-.9-.95-2.05-1.575T31 16.75Z"/></svg>