<svg xmlns="http://www.w3.org/2000/svg" width="48" height="48" viewBox="0 -960 960 960"><path d="M390-336.04h180q14.7 0 24.61-9.63t9.91-24.33q0-14.7-9.91-24.61T570-404.52H390q-14.7 0-24.33 9.91-9.63 9.91-9.63 24.61t9.63 24.33q9.63 9.63 24.33 9.63ZM318.63-98.22q-75.54-32.34-131.8-88.61-56.27-56.26-88.61-131.8Q65.87-394.17 65.87-480t32.35-161.37q32.34-75.54 88.61-131.8 56.26-56.27 131.8-88.9Q394.17-894.7 480-894.7t161.37 32.63q75.54 32.63 131.8 88.9 56.27 56.26 88.9 131.8Q894.7-565.83 894.7-480t-32.63 161.37q-32.63 75.54-88.9 131.8-56.26 56.27-131.8 88.61Q565.83-65.87 480-65.87T318.63-98.22ZM480-480Zm237.33 237.33q97.58-97.59 97.58-237.33t-97.58-237.33Q619.74-814.91 480-814.91t-237.33 97.58Q145.09-619.74 145.09-480t97.58 237.33q97.59 97.58 237.33 97.58t237.33-97.58ZM340-624.52q-26.7 0-49.83 12.41t-41.82 30.98q-8.57 10.13-5.65 23.54 2.91 13.42 15.04 21.55 11.69 7.56 25.39 5 13.7-2.57 24.83-11.7 6.87-5.87 15.02-9.09 8.15-3.21 17.02-3.21t17.3 3.71q8.44 3.72 15.31 8.59 11.13 9.13 24.82 11.2 13.7 2.06 25.4-5.5 12.13-8.13 14.19-21.55 2.07-13.41-8.06-22.54-17.57-19.13-40.2-31.26-22.63-12.13-48.76-12.13Zm280 0q-26.7 0-50.04 12.41-23.35 12.41-41.48 30.98-9.13 10.13-6 23.83 3.13 13.69 15.26 21.26 11.69 7.56 25.11 5.5 13.41-2.07 25.11-11.2 6.87-4.87 15.02-8.59 8.15-3.71 17.02-3.71 9.3 0 17.74 3.71 8.43 3.72 15.3 8.59 11.13 9.13 24.61 11.2 13.48 2.06 25.18-5.5 11.56-8.13 13.91-21.55 2.35-13.41-7.78-23.54-17.57-19.13-40.2-31.26-22.63-12.13-48.76-12.13Z"/></svg>