<svg xmlns="http://www.w3.org/2000/svg" width="48" height="48" viewBox="0 -960 960 960"><path d="M413.087-65.869q-16.261 0-28.675-9.848-12.413-9.848-14.413-26.109l-15-94.565q-15.608-5.304-34.065-15.891-18.456-10.587-31.63-21.326l-85.434 40q-15.696 6.565-31.957 1.783-16.261-4.783-24.826-20.044L81.173-330.565q-9.13-14.131-5.348-30.109 3.783-15.978 17.479-26.109l79.434-59q-1.434-7.304-1.934-17.108-.5-9.805-.5-17.109 0-7.304.5-17.109.5-9.804 1.934-17.108l-79.434-58.435q-14.261-10.13-17.761-26.109-3.5-15.978 5.63-30.674l65.914-118.696q8.565-14.131 24.543-19.478 15.979-5.348 31.674 1.217l87.131 40q12.608-10.174 30.782-20.478 18.174-10.304 33.782-15.174l15-95.565q2-16.826 14.413-26.957 12.414-10.13 28.675-10.13h133.826q16.261 0 28.675 10.13 12.413 10.131 14.413 26.957l15 94.565q15.608 5.87 34.282 15.674 18.674 9.804 31.413 20.978l85.434-40q15.696-6.565 31.457-1.217 15.761 5.347 24.326 19.478l67.479 118.696q8.565 14.696 5.065 31.174-3.5 16.479-17.761 25.609l-80 56.435q1.435 8.304 2.218 18.108.782 9.805.782 18.109 0 8.304-.782 17.609-.783 9.304-2.218 17.608l80 57.435q14.261 9.13 17.761 25.609 3.5 16.478-5.065 31.174l-66.479 118.696q-8.565 14.696-24.543 19.761-15.979 5.065-31.674-1.5l-86.566-40q-13.173 10.739-30.847 21.543-17.674 10.805-34.282 15.674l-15 94.565q-2 16.261-14.413 26.11-12.414 9.847-28.675 9.847H413.087Zm27.435-79.218h78.391l14.565-111.435q33.565-8 63.913-25t54.348-42.696l106 46 34.913-64.652-92.87-67.869q4-17.565 6.783-34.631 2.783-17.065 2.783-34.63t-2.283-34.63q-2.283-17.066-7.283-34.631l93.435-67.869-35.478-64.652-105.435 46q-23-27.131-53.13-45.479-30.131-18.348-65.696-22.782l-14-110.87h-78.956l-13.435 110.87q-35.13 6.434-65.761 24.282-30.63 17.848-54.196 43.979l-104.869-46-35.478 64.652 92.304 67.304q-4 17.565-6.782 34.913-2.783 17.348-2.783 34.913 0 17.565 2.783 35.196 2.782 17.63 6.782 34.63l-92.304 67.304 35.478 64.652 104.869-46q24.566 25.131 55.196 42.696 30.631 17.565 64.761 25.565l13.435 110.87ZM478.87-350q54 0 92-38t38-92q0-54-38-92t-92-38q-54 0-92 38t-38 92q0 54 38 92t92 38ZM480-480Z"/></svg>