<svg xmlns="http://www.w3.org/2000/svg" width="48" height="48" viewBox="0 96 960 960"><path d="M477.955 657.218q-33.522 0-57.478-23.883-23.956-23.882-23.956-57.239t24-57.335q24.001-23.979 57.522-23.979 33.522 0 57.501 23.883 23.978 23.882 23.978 57.239t-24.023 57.335q-24.022 23.979-57.544 23.979Zm-.216 292.913q-143.696 0-248.957-94.935-105.261-94.934-120.217-234.934-3.827-18.218 7.217-31.74Q126.826 575 146.043 575q15.957 0 26.435 10.196 10.479 10.195 13.609 26.022 12.696 109.912 95.622 184.804 82.926 74.891 195.885 74.891 123.806 0 209.432-85.807 85.626-85.808 85.626-209.005 0-123.197-85.626-209.105-85.626-85.909-209.287-85.909-62.662 0-120.396 27.326t-100.038 73.239h58.738q13.966 0 23.679 9.806t9.713 24.326q0 14.52-9.713 23.868Q330.009 449 316.043 449H169.739q-17.272 0-28.723-11.451t-11.451-28.158V263.652q0-13.965 9.763-23.679 9.764-9.713 23.804-9.713 14.28 0 23.748 9.713 9.468 9.714 9.468 23.679v66.391q53.695-59.87 127.261-94.305 73.565-34.434 154.105-34.434 77.851 0 146.177 29.413 68.327 29.413 119.022 80.109 50.696 50.695 80.109 119.151Q852.435 498.432 852.435 576t-29.413 146.023q-29.413 68.456-80.109 119.151-50.695 50.696-119.15 79.827-68.456 29.13-146.024 29.13Z"/></svg>