<svg xmlns="http://www.w3.org/2000/svg" width="48" height="48" viewBox="0 -960 960 960"><path d="M599.78-65.87q-32.48 0-56.13-23.37Q520-112.61 520-145.09v-175.69q0-31.92 23.65-55.57T599.78-400h257.96q31.91 0 55.56 23.65 23.66 23.65 23.66 55.57v175.69q0 32.48-23.66 55.85-23.65 23.37-55.56 23.37H599.78Zm-189.13 0q-15.69 0-27.17-10.41Q372-86.7 369.43-102.96L355-196.39q-15.61-5.31-34.07-15.89-18.45-10.59-31.63-21.33l-85.43 40q-15.7 7.13-31.96 2.07-16.26-5.07-24.82-20.33l-65.92-118.7q-8.56-14.13-5.06-30.1 3.5-15.98 17.19-26.11l79.44-59q-1.44-7.31-1.94-17.11-.5-9.81-.5-17.11 0-7.3.5-17.11.5-9.8 1.94-17.11L93.3-572.65q-14.26-10.7-17.76-26.39-3.5-15.7 5.63-30.39l65.92-118.7q8.56-14.13 24.54-19.48 15.98-5.35 31.67 1.22l87.13 40q12.61-10.18 30.79-20.48 18.17-10.3 33.78-15.17l15.56-95.57q2.57-16.26 14.7-26.67 12.13-10.42 28.39-10.42h133.26q15.7 0 27.83 10.42 12.13 10.41 15.26 26.67l15 94.57q15.61 5.87 34.28 15.67 18.68 9.8 31.42 20.98l86.56-40q15.7-6.57 31.18-1.22 15.47 5.35 24.04 19.48l66.91 118.7q8.57 14.69 4.57 30.17-4 15.48-17.26 26.61l-67.31 62.13q-15.82 12.69-32.43 19.32-16.61 6.63-34.87 9.63H607.87Q607.3-535 569.8-572.5 532.3-610 478.87-610q-54.57 0-92.28 38-37.72 38-37.72 92 0 42 24.28 75.57 24.28 33.56 62.28 47v265.91q0 10.82-5.06 18.24-5.07 7.41-19.72 7.41Z"/></svg>