<svg xmlns="http://www.w3.org/2000/svg" width="48" height="48" viewBox="0 -960 960 960"><path d="M417.043-65.869q-17.165 0-31.217-9.624-14.053-9.625-15.827-26.333l-15-94.565q-15.608-5.304-34.065-15.891-18.456-10.587-31.63-21.326l-85.434 40q-15.626 6.565-31.818 1.849-16.191-4.717-24.965-20.11L81.173-330.565q-9.13-14.131-5.348-30.109 3.783-15.978 17.479-26.109l79.434-59q-1.434-9.325-1.934-17.108-.5-7.784-.5-17.109 0-9.325.5-17.109.5-7.783 1.934-17.108l-79.434-58.435q-14.261-10.13-17.761-26.109-3.5-15.978 5.63-30.674L147.3-748.239q8.352-14.023 24.33-19.37 15.979-5.348 31.674 1.217l87.131 40q14.174-11.739 30.518-20.82t34.046-14.832l15-95.319q2-17.072 14.182-27.203 12.182-10.13 28.906-10.13h133.826q16.762 0 28.973 10.084 12.212 10.085 14.115 27.003l15 94.565q18.173 6.87 34.764 15.366 16.591 8.495 30.931 21.286l85.434-40q15.696-6.565 31.457-1.217 15.761 5.347 24.326 19.478l72.566 127.175q5.174 9.043 3.935 19.304-1.239 10.261-8.152 17.13l-44.608 30.739q-4.652 4-10.696 5.283-6.043 1.282-11.913-.718-26.087-11.391-53.975-16.828-27.888-5.437-56.635-5.824-29.522-.87-57.978 6.043-28.457 6.914-55.848 18.001-17.626-29.128-47.161-45.651Q511.912-610 478.487-610q-54.183 0-91.9 37.717-37.717 37.718-37.717 91.718 0 36.695 18.978 68.109 18.978 31.413 52.37 48.282-7.174 24.852-9.957 50.947-2.782 26.097-1.348 52.401 2 38.565 14.653 74.848 12.652 36.282 33.956 68.848 10.826 16.652 4.054 33.957-6.771 17.304-23.446 17.304h-21.087Zm284.436 0v-425.436q16.566 0 32.413 2.783 15.848 2.782 30.979 7.68v404.408q-15.131 5-30.892 7.782-15.762 2.783-32.5 2.783ZM594.696-95.565v-366.224q14.566-8.385 30.122-15.168 15.557-6.783 33.27-10.348v417.436q-17.65-3.565-33.153-10.348-15.504-6.782-30.239-15.348Zm213.001 0v-366.044q47.939 27.681 77.079 75.916 29.139 48.235 29.139 107.508 0 59.272-29.139 107.133-29.14 47.86-77.079 75.487ZM551.87-127.26q-29.696-28.131-46.826-67.234-17.131-39.103-17.131-84.152 0-45.05 17.112-83.972 17.112-38.923 46.845-68.295v303.653Z"/></svg>