<svg xmlns="http://www.w3.org/2000/svg" width="48" height="48" viewBox="0 96 960 960"><path d="M299.537 1056q-15.016 0-25.211-10.16-10.196-10.16-10.196-25.17 0-15.02 10.48-25.214 10.48-10.196 25.496-10.196 15.017 0 24.89 10.481 9.874 10.479 9.874 25.499 0 15.01-10.158 24.89-10.158 9.87-25.175 9.87Zm180.783 0q-15.016 0-25.211-10.16-10.196-10.16-10.196-25.17 0-15.02 10.48-25.214 10.48-10.196 25.496-10.196 15.017 0 24.89 10.481 9.873 10.479 9.873 25.499 0 15.01-10.157 24.89-10.158 9.87-25.175 9.87Zm176.783 0q-15.016 0-24.929-10.16-9.913-10.16-9.913-25.17 0-15.02 10.158-25.214 10.158-10.196 25.174-10.196t24.929 10.481q9.913 10.479 9.913 25.499 0 15.01-10.158 24.89-10.157 9.87-25.174 9.87ZM453.261 578.74 285.913 746.652q-10.13 10.131-23.543 10.131-13.413 0-23.544-10.131-10.13-10.13-10.13-23.543 0-13.413 10.13-23.544L440.13 499.391 238.826 298.652q-10.13-10.13-10.13-23.543 0-13.413 10.13-23.261Q248.957 242 262.37 242t23.543 9.565l167.348 167.913-.565-256.043q0-15.319 9.701-24.768 9.702-9.449 25.082-9.449 9.796 0 19.18 4.764 9.383 4.765 20.168 15.062l149.999 150.565q6.593 5.904 9.492 13.052 2.9 7.147 2.9 14.864 0 7.716-2.9 14.731-2.899 7.014-9.492 12.918L532.609 499.391l144.217 144.218q6.593 5.904 9.492 13.052 2.9 7.147 2.9 14.864 0 7.716-2.9 14.731-2.899 7.014-9.492 12.918L527.01 848.991q-10.968 11.045-20.446 15.81-9.477 4.764-18.955 4.764-15.51 0-25.212-9.449-9.701-9.449-9.701-24.768l.565-256.608Zm66.218-159.262 92.651-92.087-92.651-90.651v182.738Zm0 342 92.651-90.087-92.651-92.651v182.738Z"/></svg>