<svg xmlns="http://www.w3.org/2000/svg" width="48" height="48" viewBox="0 -960 960 960"><path d="M579.391-5.52q-26.695 0-45.326-18.63-18.63-18.63-18.63-45.327v-298.088q0-26.13 18.63-45.043 18.631-18.913 45.326-18.913h298.088q26.131 0 45.044 18.913 18.913 18.913 18.913 45.043v298.088q0 26.696-18.913 45.327Q903.61-5.52 877.479-5.52H579.391Zm20.088-63.957h257.913q8.261 0 14.174-6.195 5.913-6.196 5.913-13.892v-8q0-3.304-1.217-5.674-1.217-2.369-3.087-5.239-26.696-30.826-63.805-49.022-37.108-18.195-80.935-18.195-44.391 0-81.217 18.195-36.827 18.196-63.522 49.022-.87 1.435-4.305 10.913v8.565q0 7.696 6.196 13.61 6.196 5.912 13.892 5.912ZM728.435-218.52q26.131 0 45.044-18.63 18.913-18.631 18.913-45.326 0-26.131-18.913-44.761-18.913-18.631-45.044-18.631-26.695 0-45.326 18.631-18.63 18.63-18.63 44.761 0 26.695 18.63 45.326 18.631 18.63 45.326 18.63ZM403.782-65.869q-13.261 0-21.522-6.848t-10.261-17.109l-18.13-105.565q-15.609-5.304-33.782-15.891-18.174-10.587-31.348-21.326l-86 40q-15.696 6.565-31.957 1.783-16.261-4.783-24.826-20.044L80.043-329.565q-8.566-14.131-5.066-30.109 3.5-15.978 17.196-26.109l80-59q-1.435-7.304-2.217-17.108-.783-9.805-.783-17.109 0-7.304.783-17.109.782-9.804 2.217-17.108l-80-58.435q-13.696-10.13-17.196-26.109-3.5-15.978 5.066-30.674l65.913-118.696q8.565-14.131 24.826-19.478 16.261-5.348 31.957 1.217l86.565 40q13.174-10.174 31.065-20.478 17.891-10.304 33.5-15.174l15-95.565q2.565-16.826 14.978-26.957 12.413-10.13 28.109-10.13h134.392q15.696 0 28.109 10.13 12.413 10.131 14.978 26.957l15 94.565q15.609 5.87 34.283 15.674 18.673 9.804 31.412 20.978l85.435-40q15.696-6.565 31.457-1.217 15.761 5.347 24.326 19.478l72.001 127.175q5.739 9.043 5.065 18.456-.674 9.413-8.152 16.282l-88.392 65.436q-5.13 4.13-11.609 6.195-6.478 2.066-12.609 2.066H618.087q-6.696 0-11.109-3.413-4.413-3.414-6.413-10.109-14.435-36.696-47-60.827Q521-610 478.87-610q-54.566 0-92.283 38t-37.717 92q0 40.435 20.717 71.37 20.717 30.934 54.022 46.5 5.13 2 8.478 6.695 3.348 4.696 3.348 10.826v249.653q0 12.26-8.913 20.674-8.913 8.413-22.74 8.413Z"/></svg>