<svg xmlns="http://www.w3.org/2000/svg" width="48" height="48"><path d="M15 48q-.75 0-1.275-.5-.525-.5-.525-1.25t.525-1.275q.525-.525 1.275-.525.75 0 1.25.525t.5 1.275q0 .75-.5 1.25T15 48zm9 0q-.75 0-1.25-.5t-.5-1.25q0-.75.525-1.275.525-.525 1.275-.525.75 0 1.25.525t.5 1.275q0 .75-.525 1.25T24 48zm8.85 0q-.75 0-1.25-.5t-.5-1.25q0-.75.525-1.275.525-.525 1.275-.525.75 0 1.225.525.475.525.475 1.275 0 .75-.5 1.25t-1.25.5zM24.1 38q-.65-.2-1.05-.775t-.4-1.275v-11.8l-8.35 8.4q-.5.5-1.175.5t-1.175-.5q-.5-.5-.5-1.175t.5-1.175L22 20.15l-10.05-10q-.5-.5-.5-1.175t.5-1.175q.5-.5 1.175-.5t1.175.5l8.35 8.35V4.4q0-.7.425-1.275T24.1 2.3q.6-.2 1.3-.05.7.15 1.15.65l7.3 7.3q.3.3.45.65.15.35.15.75 0 .35-.15.7t-.45.65l-7.2 7.2 7.2 7.25q.3.3.45.65.15.35.15.75 0 .35-.15.7t-.45.65l-7.3 7.3q-.45.45-1.15.6-.7.15-1.3-.05zm1.85-21.85 4.65-4.6-4.65-4.5zm0 17.1 4.65-4.5-4.65-4.6z"/></svg>