<svg xmlns="http://www.w3.org/2000/svg" width="48" height="48" viewBox="0 -960 960 960"><path d="m739.392-254.348-55.304 56.252q-7.696 7.748-7.696 17.393 0 9.644 7.696 16.877 7.079 7.131 16.8 7.414 9.722.282 17.418-6.848l86.695-86.696q11.827-12.032 11.827-28.451t-11.827-28.245l-87.261-87.261q-7.233-7.131-16.877-6.848-9.645.282-16.775 7.413-7.696 7.696-7.696 17.109 0 9.413 7.696 17.161l56.304 56.252H594.696q-10.374 0-17.448 7.13-7.074 7.131-7.074 17.109 0 9.978 7.414 17.109 7.413 7.13 17.108 7.13h144.696Zm-38.195 188.48q-88.37 0-150.827-62.186-62.457-62.185-62.457-150.544 0-88.359 62.43-150.533 62.43-62.174 151.136-62.174 88.088 0 150.262 62.174 62.174 62.174 62.174 150.533 0 88.359-62.174 150.544-62.174 62.185-150.544 62.185Zm-284.154 0q-17.165 0-31.217-9.625-14.053-9.625-15.827-26.333l-15-94.565q-15.608-5.304-34.065-15.891-18.456-10.587-31.63-21.326l-85.434 40q-15.626 6.565-31.818 1.849-16.191-4.717-24.965-20.11L81.173-330.565q-9.13-14.131-5.348-30.109 3.783-15.978 17.479-26.109l79.434-59q-1.434-9.325-1.934-17.108-.5-7.784-.5-17.109 0-9.325.5-17.109.5-7.783 1.934-17.108l-79.434-58.435q-14.261-10.13-17.761-26.109-3.5-15.978 5.63-30.674L147.3-748.239q8.352-14.023 24.33-19.37 15.979-5.348 31.674 1.217l87.131 40q14.174-11.739 30.518-20.82t34.046-14.832l15-95.319q2-17.072 14.182-27.203 12.182-10.13 28.906-10.13h133.826q16.762 0 28.973 10.084 12.212 10.085 14.115 27.003l15 94.565q18.173 6.87 34.764 15.366 16.591 8.495 30.931 21.286l85.434-40q15.696-6.565 31.457-1.217 15.761 5.347 24.326 19.478l72.566 127.175q5.174 9.043 3.935 19.304-1.239 10.261-8.152 17.13l-44.608 30.739q-4.652 4-10.696 5.283-6.043 1.282-11.913-.718-26.087-11.391-53.975-16.828-27.888-5.437-56.635-5.824-29.522-.87-57.978 6.043-28.457 6.914-55.848 18.001-17.626-29.128-47.161-45.651Q511.912-610 478.487-610q-54.183 0-91.9 37.717-37.717 37.718-37.717 91.718 0 36.695 18.978 68.109 18.978 31.413 52.37 48.282-7.174 24.852-9.957 50.947-2.782 26.097-1.348 52.401 2 38.565 14.653 74.848 12.652 36.282 33.956 68.848 10.826 16.652 4.054 33.957-6.771 17.304-23.446 17.304h-21.087Z"/></svg>