<svg xmlns="http://www.w3.org/2000/svg" width="48" height="48" viewBox="0 -960 960 960"><path d="M145.09-264.17q-33.26 0-56.24-22.98-22.98-22.98-22.98-56.24v-273.22q0-33.49 22.98-56.64 22.98-23.14 56.24-23.14h669.82q33.49 0 56.64 23.14 23.15 23.15 23.15 56.64v273.22q0 33.26-23.15 56.24-23.15 22.98-56.64 22.98H145.09Zm116.94-182.44h155.88q13.97 0 23.68-9.52 9.71-9.53 9.71-24.05 0-14.52-9.71-23.86-9.71-9.35-23.68-9.35H261.87q-13.97 0-23.68 9.52-9.71 9.53-9.71 24.05 0 14.52 9.47 23.86 9.47 9.35 24.08 9.35Zm353.99-12.07q8.5-8.67 8.5-21.5 0-12.82-8.67-21.32-8.68-8.5-21.5-8.5-12.83 0-21.33 8.68-8.5 8.67-8.5 21.5 0 12.82 8.68 21.32 8.67 8.5 21.5 8.5 12.82 0 21.32-8.68Zm120 0q8.5-8.67 8.5-21.5 0-12.82-8.67-21.32-8.68-8.5-21.5-8.5-12.83 0-21.33 8.68-8.5 8.67-8.5 21.5 0 12.82 8.68 21.32 8.67 8.5 21.5 8.5 12.82 0 21.32-8.68Z"/></svg>