<svg xmlns="http://www.w3.org/2000/svg" width="48" height="48" viewBox="0 -960 960 960"><path d="M152.5-36.608q-14.422 0-23.657-9.36-9.234-9.36-9.234-24.098v-137.559q-34-13.679-58.5-43.462T36.608-317v-361.782q0-16.707 11.45-28.158 11.452-11.451 28.159-11.451h43.391v-171.5q0-16.031 8.734-24.766 8.735-8.734 24.657-8.734t24.657 8.734q8.734 8.735 8.734 24.766v171.5h43.391q16.707 0 28.158 11.451t11.451 28.158v361.561q0 36.351-24 66.134t-59 43.454V-69q0 13.478-9.975 22.935-9.975 9.456-23.916 9.456Zm327 0q-14.422 0-23.657-9.36-9.234-9.36-9.234-24.098v-137.559q-34-13.679-58.5-43.462T363.609-317v-361.782q0-16.707 11.451-28.158t28.158-11.451h43.391v-171.5q0-16.031 8.734-24.766 8.735-8.734 24.657-8.734t24.657 8.734q8.734 8.735 8.734 24.766v171.5h43.391q16.707 0 28.158 11.451t11.451 28.158v361.561q0 36.351-24 66.134t-59 43.454V-69q0 13.478-9.975 22.935-9.975 9.456-23.916 9.456Zm327 0q-14.422 0-23.657-9.36-9.234-9.36-9.234-24.098v-137.559q-34-13.679-58.5-43.462T690.609-317v-361.782q0-16.707 11.451-28.158t28.158-11.451h43.391v-171.5q0-16.031 8.734-24.766 8.735-8.734 24.657-8.734t24.657 8.734q8.734 8.735 8.734 24.766v171.5h43.391q16.707 0 28.158 11.451t11.451 28.158v361.561q0 36.351-24.5 66.134t-58.5 43.454V-69q0 13.478-9.975 22.935-9.975 9.456-23.916 9.456ZM103.391-651.61v177.218h99.218V-651.61h-99.218Zm327 0v177.218h99.218V-651.61h-99.218Zm327 0v177.218h99.218V-651.61h-99.218ZM153.218-270.391q20.652 0 35.021-14.695 14.37-14.695 14.37-34.914v-87.609h-99.218v87.877q0 20.036 14.588 34.688 14.588 14.653 35.239 14.653Zm327 0q20.652 0 35.021-14.695 14.37-14.695 14.37-34.914v-87.609h-99.218v87.877q0 20.036 14.588 34.688 14.588 14.653 35.239 14.653Zm327 0q20.652 0 35.021-14.695 14.37-14.695 14.37-34.914v-87.609h-99.218v87.877q0 20.036 14.588 34.688 14.588 14.653 35.239 14.653ZM153-441Zm327 0Zm327 0Zm-703.609-33.391h99.218-99.218Zm327 0h99.218-99.218Zm327 0h99.218-99.218Zm-604.153 66.782h-49.847 99.218-49.371Zm327 0h-49.847 99.218-49.371Zm327 0h-49.847 99.218-49.371Z"/></svg>