<svg xmlns="http://www.w3.org/2000/svg" width="48" height="48" viewBox="0 -960 960 960"><path d="M480.088-70.434q-7.252 0-13.528-1.283-6.276-1.282-11.778-3.848-142.675-48.243-225.794-172.085Q145.869-371.493 145.869-523v-192.043q0-25.475 13.984-46.25t37.451-29.403l254.913-95.305q13.826-5.13 27.783-5.13t27.783 5.13l254.913 95.305q23.467 8.628 37.734 29.403 14.266 20.775 14.266 46.25v205.391q0 18.335-13.174 31.037-13.174 12.702-31.696 14.267-35.304 3.131-64.391 14.631-29.087 11.5-56.956 37.33-27.566 25.102-43.566 59.106-16 34.004-16 74.629v140.304q0 29.108-27.5 40.865-27.5 11.757-56.195 21.918-5.443 2.566-11.66 3.848-6.217 1.283-13.47 1.283Zm202.785 4.565q-17.819 0-29.889-13.034-12.071-13.035-12.071-30.668v-125.855q0-17.703 12.187-30.465 12.187-12.761 29.813-12.761v-40q0-36.704 24.461-62.482 24.461-25.779 60.811-25.779 35.685 0 60.098 25.779 24.413 25.778 24.413 62.482v40h.435q17.448 0 29.507 12.761 12.058 12.762 12.058 30.627v125.856q0 17.703-11.981 30.621-11.982 12.918-29.39 12.918H682.873Zm43.432-212.783h84v-40q0-18.435-12.105-32.217-12.106-13.783-30-13.783-18.46 0-30.178 13.783-11.717 13.782-11.717 32.217v40Z"/></svg>