<svg xmlns="http://www.w3.org/2000/svg" width="48" height="48" viewBox="0 -960 960 960"><path d="M92.652-25.869q-26.826 0-46.805-19.978Q25.87-65.826 25.87-92.652v-775.696q0-26.392 19.978-46.87 19.979-20.478 46.805-20.478h775.696q26.392 0 46.87 20.478 20.478 20.478 20.478 46.87v775.696q0 26.826-20.478 46.805-20.478 19.978-46.87 19.978H92.652ZM687.52-218.304h-77.564q-15.827 0-26.022 10.478-10.196 10.478-10.196 25.739 0 15.827 10.196 26.022 10.195 10.196 26.022 10.196h164.565q16.957 0 28.566-11.326 11.608-11.326 11.608-28.283v-163q0-15.826-10.478-26.022-10.478-10.196-26.305-10.196-15.826 0-26.304 10.196-10.479 10.196-10.479 26.022v78.565L571.913-436.565l-51.609 52.044 167.217 166.217Zm53.609-470.783v77.565q0 15.826 10.479 26.305 10.478 10.478 26.304 10.478 15.827 0 26.305-10.478 10.478-10.479 10.478-26.305v-163q0-16.957-11.608-28.566-11.609-11.608-28.566-11.608h-164q-15.826 0-26.305 10.478-10.478 10.478-10.478 26.305 0 15.826 10.196 26.304 10.195 10.479 26.022 10.479h79.564L157.565-208.609q-10.696 10.696-10.979 25.522-.282 14.827 10.979 25.522 10.695 11.827 25.522 12.044 14.826.217 25.522-11.044L741.13-689.087ZM389.348-520.174l52.609-52.044-224.739-223.173q-10.696-10.696-25.24-10.696-14.543 0-25.239 11.261-11.261 11.261-11.261 26.022t11.261 25.456l222.609 223.174Z"/></svg>