<svg xmlns="http://www.w3.org/2000/svg" width="48" height="48" viewBox="0 -960 960 960"><path d="m338.478-581-22.739 22.174q-8.565 9.13-8.848 20.826-.282 11.696 8.848 20.261 8.565 9.13 20.261 8.348 11.696-.783 20.826-9.348l32.913-32.913q11.826-11.826 11.826-28.348t-11.826-28.348l-35.478-35.478q-8.565-8.565-19.261-8.565t-19.261 8.565q-8.565 9.13-8.565 20.326t8.565 19.761L338.478-581ZM840-601.609q-32.696 0-55.544-22.847-22.847-22.848-22.847-55.544 0-35 21.717-69.783 21.717-34.782 40.717-62.217 3.131-4.13 6.979-6.696 3.848-2.565 8.978-2.565t8.978 2.565q3.848 2.566 6.979 6.696 19 28 40.717 62.5t21.717 69.5q0 32.696-22.847 55.544-22.848 22.847-55.544 22.847ZM622.522-581l23.304-22.739q8.565-8.565 8.283-19.261-.283-10.696-8.848-19.826-8.565-8.565-19.761-8.565t-19.761 8.565l-34.913 34.478Q558.435-596.522 558.435-580t12.391 28.348l33.913 33.913q8.565 8.565 20.261 8.848 11.696.282 20.261-8.848 8.565-8.565 8.565-20.261t-8.565-20.261L622.522-581ZM480-65.869q-85.826 0-161.652-32.63-75.827-32.631-131.805-88.827-55.978-56.195-88.326-131.739Q65.869-394.609 65.869-480q0-85.826 32.348-161.152 32.348-75.327 88.326-131.805 55.978-56.478 131.805-89.109 75.826-32.63 161.652-32.63 64.304 0 123.391 19.087 59.087 19.086 108.522 53.26 14.957 9.131 18.087 26.435 3.13 17.305-5.696 32.262-9.565 19.695-16.13 40.108-6.565 20.414-6.565 43.544 0 59.261 42.761 100.174 42.76 40.913 101.456 38.217 17.522-.565 31.479 8.348t15.391 24.305q.435 7.739 1.218 14.478.782 6.739.782 14.478 0 85.391-32.63 160.935-32.631 75.544-88.609 132.022-55.978 56.478-131.522 88.826Q566.391-65.869 480-65.869ZM320.087-285q7.565 0 15.479-4.848 7.913-4.848 13.608-11.413 22.435-30.043 57.609-45.282 35.174-15.239 74.217-15.239 38.043 0 72.717 15.739t58.109 45.782q5.695 6.131 14.108 10.696Q634.348-285 641.478-285q15.696 0 21.978-13.196 6.283-13.195-2.847-26.326-28.435-43.304-76.587-67.891Q535.87-417 480-417q-27.565 0-53.63 6.283-26.066 6.282-48.5 17.282l-122.522-70.826q-1.131-16.565-7.914-30.348-6.782-13.782-20.782-21.217-21.131-12.131-44.544-6.065-23.413 6.065-34.978 27.195-11.565 21.131-5.783 44.544 5.783 23.413 26.913 34.978 14 8 29.348 7.5 15.348-.5 29.348-7.935l101.392 58.261q-8.174 6.739-14.696 13.696-6.522 6.956-11.261 15.13-11.13 17.261-4.065 30.392Q305.391-285 320.087-285Z"/></svg>