<svg xmlns="http://www.w3.org/2000/svg" width="48" height="48" viewBox="0 -960 960 960"><path d="M773.216-48.911q-16.781 0-28.107-11.452-11.327-11.45-11.327-28.723v-79.825h-80.391q-16.706 0-28.157-11.502-11.452-11.502-11.452-28.848 0-16.782 11.452-28.108 11.451-11.326 28.157-11.326h80.391v-80.391q0-16.707 11.502-28.158t28.283-11.451q16.781 0 28.107 11.451 11.327 11.451 11.327 28.158v80.391h80.39q16.707 0 28.158 11.502 11.452 11.501 11.452 28.283 0 17.346-11.452 28.672-11.451 11.327-28.158 11.327h-80.39v79.825q0 17.272-11.502 28.723-11.502 11.452-28.283 11.452ZM161.044-65.87q-18.522 0-29.066-12.326-10.543-12.326-10.543-26.95 0-7.029 2.848-14.507 2.847-7.478 9.543-14.174L826.739-826.74q6.696-6.696 14.174-9.544 7.478-2.847 14.508-2.847 14.623 0 26.949 10.543 12.326 10.544 12.326 29.066v348.086q0 17.579-15.174 27.594t-32.696 3.32q-18-6.435-36-9.935-18-3.5-37.435-3.5-93.764 0-159.6 65.553-65.835 65.552-65.835 159.317 0 25.348 6.804 49.826 6.805 24.478 19.848 46.521 6.869 16.087-2.207 31.479-9.076 15.391-26.098 15.391H161.044Z"/></svg>