<svg xmlns="http://www.w3.org/2000/svg" width="48" height="48" viewBox="0 96 960 960"><path d="M193.043 1094.48q-14.827 0-25.522-10.7-10.696-10.69-10.696-25.52 0-15.26 10.696-26.02 10.695-10.76 25.522-10.76h197.913v-54.348h-261.87q-14.261 0-25.239-10.979-10.979-10.978-10.979-25.804 0-15.261 10.979-25.74 10.978-10.478 25.239-10.478h261.87v-54.913H86.825q-14.826 0-25.805-10.978-10.978-10.978-10.978-25.805 0-15.261 10.978-25.739Q72 766.218 86.825 766.218h304.131v-54.913H150.782q-14.827 0-25.805-10.696t-10.978-25.522q0-15.261 10.978-26.022t25.805-10.761h350.131l-44.435-87.434q-9.13-17.696-6.13-35.892 3-18.196 17.695-32.022 8.131-7.696 18.305-7.696t20.435 9.261l223.87 214.87q15.131 14.696 23.261 33.392 8.131 18.696 8.131 38.957v222.566q0 41.524-28.827 70.844-28.826 29.33-71.348 29.33H193.043Zm244.739-662.698L300.304 287.304q-10.261-10.696-9.479-26.022.783-15.327 12.044-26.022 10.696-10.261 25.739-9.479 15.044.783 25.305 11.479l176.305 186.87q-27.088-11.131-48.414-8.87-21.326 2.261-44.022 16.522Zm-48.783 133.522L251.477 421.782q-9.695-11.261-9.195-26.587t11.195-26.022q11.261-9.696 26.305-8.913 15.044.783 25.305 11.478l97.522 101.088q-6.696 13.391-9.196 24.022-2.5 10.63-1.935 21.456-2.261 12-2.739 23.5-.479 11.5.26 23.5Zm408.176 120.74q-6.13-8.696-13.261-16.326-7.13-7.631-15.261-16.327l-229.87-219.87q10.304-13.695 17.043-23.261 6.739-9.565 16.478-22.13L364.26 166.955q-9.695-10.695-9.695-25.522 0-14.826 10.695-26.087 11.261-9.696 27.088-8.913 15.826.783 25.522 11.478l208.609 220.74 40.608-38.608-166.348-173.914q-9.696-10.696-9.196-26.022.5-15.326 11.196-26.022 11.261-10.26 26.305-9.478 15.043.782 25.304 12.043l240.609 254.175 32.435-93.87q6.565-19.261 23.826-28.891 17.261-9.631 35.957-8.761 12.392 1.565 17.587 8.044 5.196 6.478 5.196 22v309.392q0 21.261-8.348 39.957-8.348 18.695-24.043 33.391l-80.392 73.957Z"/></svg>