<svg xmlns="http://www.w3.org/2000/svg" width="48" height="48" viewBox="0 -960 960 960"><path d="m133.826-133.826 692.913-692.913q19.087-19.087 43.522-9.17t24.435 36.388v401.652q-17.956-11.391-37.882-19.587t-41.336-11.631v-274.694L256.784-145.087h306.085q5.739 22.087 15.353 42.262 9.613 20.175 23.821 36.956H161.044q-26.471 0-36.388-24.435-9.917-24.435 9.17-43.522Zm599.956-35.085h-80.391q-16.706 0-28.157-11.502-11.452-11.502-11.452-28.848 0-16.782 11.452-28.108 11.451-11.326 28.157-11.326h80.391v-80.391q0-16.707 11.502-28.158t28.283-11.451q16.781 0 28.107 11.451 11.327 11.451 11.327 28.158v80.391h80.39q16.707 0 28.158 11.502 11.452 11.501 11.452 28.283 0 17.346-11.452 28.672-11.451 11.327-28.158 11.327h-80.39v79.825q0 17.272-11.502 28.723-11.502 11.452-28.283 11.452t-28.107-11.452q-11.327-11.45-11.327-28.723v-79.825Zm-476.998 23.824 558.694-558.694Q713.957-602.825 640.696-529.282q-73.261 73.544-135.152 135.435l-120.05 120.05-128.71 128.71Z"/></svg>