<svg xmlns="http://www.w3.org/2000/svg" width="48" height="48" viewBox="0 96 960 960"><path d="M756.1 892.609q-24.886 0-42.189-17.386-17.302-17.387-17.302-42.224V306q0-24.837 17.478-42.223 17.479-17.386 42.448-17.386t42.413 17.386q17.444 17.386 17.444 42.223v526.999q0 24.837-17.585 42.224-17.585 17.386-42.707 17.386Zm-511.842 0q-12.703 0-23.916-4.566-11.212-4.565-19.125-12.761-7.913-8.195-12.479-19.224-4.565-11.028-4.565-23.059V706q0-24.837 17.362-42.223t42.165-17.386q24.803 0 42.247 17.386T303.391 706v126.999q0 12.031-4.565 23.059-4.565 11.029-12.761 19.224-8.195 8.196-18.849 12.761-10.654 4.566-22.958 4.566Zm255.624 0q-24.886 0-42.189-17.386-17.302-17.387-17.302-42.224V506q0-24.837 17.42-42.223t42.307-17.386q24.886 0 42.189 17.386 17.302 17.386 17.302 42.223v326.999q0 24.837-17.42 42.224-17.421 17.386-42.307 17.386Z"/></svg>