<svg xmlns="http://www.w3.org/2000/svg" width="48" height="48" viewBox="0 -960 960 960"><path d="M832.479-33.477 799.087-65.87H161.044q-26.783 0-36.544-24.435-9.761-24.435 9.326-43.522l298.087-298.652L111.782-752.61q-9.566-10.131-9.848-24.044-.283-13.913 9.848-24.043 10.13-9.566 23.761-9.566 13.63 0 23.761 9.566L880.001-79.999q9.565 9.565 9.848 22.978.282 13.413-9.848 23.544-10.131 10.13-23.761 10.13-13.631 0-23.761-10.13Zm62.217-118.392L523-523.565l303.739-303.174q19.087-19.087 43.522-9.044 24.435 10.044 24.435 36.827v647.087Z"/></svg>