<svg xmlns="http://www.w3.org/2000/svg" width="48" height="48" viewBox="0 -960 960 960"><path d="M733.782-168.911h-80.391q-16.706 0-28.157-11.502-11.452-11.502-11.452-28.848 0-16.782 11.452-28.108 11.451-11.326 28.157-11.326h80.391v-80.391q0-16.707 11.502-28.158t28.283-11.451q16.781 0 28.107 11.451 11.327 11.451 11.327 28.158v80.391h80.39q16.707 0 28.158 11.502 11.452 11.501 11.452 28.283 0 17.346-11.452 28.672-11.451 11.327-28.158 11.327h-80.39v79.825q0 17.272-11.502 28.723-11.502 11.452-28.283 11.452t-28.107-11.452q-11.327-11.45-11.327-28.723v-79.825ZM161.044-65.869q-18.022 0-28.816-12.326-10.793-12.326-10.793-26.95 0-7.029 2.893-14.607 2.893-7.578 9.498-14.074l692.913-692.913q6.131-6.696 13.609-9.544 7.478-2.847 14.507-2.847 14.624 0 27.233 11.076 12.608 11.076 12.608 29.098v330.652q0 16.706-11.784 28.158-11.784 11.451-28.565 11.451-16.782 0-28.108-11.451-11.326-11.452-11.326-28.158v-235.477L256.784-145.087h257.389q16.707 0 28.158 11.501 11.451 11.502 11.451 28.283 0 16.782-11.451 28.108T514.173-65.87H161.044Zm95.74-79.218 558.129-558.694-167.739 167.738Q576.262-465.13 514.87-403.456q-61.391 61.674-122.064 122.347L256.784-145.087Z"/></svg>