<svg xmlns="http://www.w3.org/2000/svg" width="48" height="48" viewBox="0 -960 960 960"><path d="m133.826-133.826 692.913-692.913q18.522-18.522 43.24-8.605 24.717 9.917 24.717 36.388v374.434q0 16.707-11.733 28.158-11.734 11.451-28.441 11.451H694.696q-49.706 0-84.658 34.951-34.951 34.952-34.951 84.658v159.826q0 16.707-11.451 28.158t-28.158 11.45H161.044q-26.471 0-36.388-24.435-9.917-24.435 9.17-43.522Zm674.262 31.174v-166.043q0-15.576 10.654-25.897 10.654-10.321 26.304-10.321 15.651 0 26.129 10.321 10.479 10.321 10.479 25.897v166.608q0 15.577-10.654 25.897-10.654 10.321-26.305 10.321-15.65 0-26.129-10.603-10.478-10.604-10.478-26.18Zm-153.001 0v-166.043q0-15.576 10.654-25.897 10.654-10.321 26.305-10.321 15.65 0 25.846 10.321t10.196 25.897v166.608q0 15.577-10.371 25.897-10.371 10.321-26.022 10.321-15.651 0-26.129-10.603-10.479-10.604-10.479-26.18Z"/></svg>