<svg xmlns="http://www.w3.org/2000/svg" width="48" height="48" viewBox="0 96 960 960"><path d="M232.867 842.567q-16.781 0-28.107-11.452-11.327-11.451-11.327-28.158V349.043q0-16.707 11.502-28.158 11.502-11.452 28.283-11.452t28.108 11.452q11.326 11.451 11.326 28.158v453.914q0 16.707-11.502 28.158-11.502 11.452-28.283 11.452Zm471.438-43.175L428.87 608.913q-18.522-11.937-18.522-32.969 0-21.031 18.522-32.857l275.435-190.479q20.087-14.392 41.174-3.002 21.088 11.391 21.088 34.915v382.958q0 23.152-21.088 34.446-21.087 11.293-41.174-2.533Z"/></svg>