<svg xmlns="http://www.w3.org/2000/svg" width="48" height="48" viewBox="0 96 960 960"><path d="m444.87 711.609 156.782-102.696q9.826-6.13 14.457-14.391 4.63-8.261 4.63-18.522t-4.63-18.522q-4.631-8.261-14.457-14.391L444.87 440.391q-20.087-12.826-40.674-1.753t-20.587 35.232v204.26q0 24.11 20.587 35.49 20.587 11.38 40.674-2.011ZM185.087 950.131q-32.507 0-55.862-23.356-23.356-23.355-23.356-55.862V281.087q0-32.74 23.356-56.262 23.355-23.521 55.862-23.521h589.826q32.74 0 56.262 23.521 23.521 23.522 23.521 56.262v589.826q0 32.507-23.521 55.862-23.522 23.356-56.262 23.356H185.087Zm0-79.218h589.826V281.087H185.087v589.826Zm0 0V281.087v589.826Z"/></svg>