<svg xmlns="http://www.w3.org/2000/svg" width="48" height="48" viewBox="0 -960 960 960"><path d="M65.869-95.869v-100.174q0-32.664 22.98-55.941 22.981-23.278 56.238-23.278h669.826q33.49 0 56.637 23.278 23.146 23.277 23.146 55.941v100.174q0 16.707-11.769 28.158T854.522-56.26H105.478q-16.707 0-28.158-11.45-11.45-11.453-11.45-28.16Zm79.218-40.174h669.826v-60H145.087v60Zm47.173-249.784v-429.086q0-32.74 23.356-56.262 23.356-23.521 55.863-23.521h417.608q32.507 0 55.862 23.521 23.356 23.522 23.356 56.262v429.651q0 16.905-11.502 27.975-11.501 11.069-28.422 11.069-16.92 0-27.824-11.451-10.905-11.451-10.905-28.158v-429.651H270.913v430.216q0 16.905-11.501 27.975-11.502 11.069-28.422 11.069t-27.825-11.451q-10.905-11.451-10.905-28.158ZM436.696-561.95q0-28.862-5-57.456-5-28.594-19-54.029-9.87-17.435-25.827-29.217-15.958-11.783-36.217-11.783-8.782 0-14.26 6.021-5.479 6.021-5.479 14.718v262.957q0 8.46 5.684 14.317 5.684 5.857 14.377 5.857 19.548 0 35.288-12 15.74-12 26.28-27.87 14.376-24.931 19.265-53.793 4.889-28.861 4.889-57.722Zm127.687 71.515q29.487 0 50.487-20.796 21-20.797 21-50 0-29.769-20.797-50.486-20.796-20.718-50-20.718-29.769 0-50.486 20.514t-20.717 50q0 29.486 20.513 50.486 20.514 21 50 21ZM480-136.043Zm.565-445.087Z"/></svg>