<svg xmlns="http://www.w3.org/2000/svg" width="48" height="48" viewBox="0 -960 960 960"><path d="M126.609-180.782q-24.838 0-42.224-17.362Q67-215.506 67-240.309t17.386-42.247Q101.771-300 126.61-300h535.565q12.058 0 19.942 7.898T690-272.125v63.098q0 12.324-7.884 20.284-7.884 7.961-19.942 7.961H126.609Zm636.732 0q-12.08 0-20.211-8.058-8.13-8.058-8.13-20.382v-63.097q0-12.079 8.062-19.88Q751.125-300 763.455-300q12.086 0 19.924 8.058 7.839 8.058 7.839 20.382v63.098q0 12.079-7.899 19.88-7.898 7.8-19.978 7.8Zm101.204 0q-12.33 0-20.329-8.058-7.998-8.058-7.998-20.382v-62.532q0-12.324 8.062-20.285T864.673-300q12.33 0 20.329 8.058 7.999 8.058 7.999 20.382v62.533q0 12.324-8.063 20.284-8.062 7.961-20.393 7.961ZM763.341-345q-12.08 0-20.211-8.044-8.13-8.044-8.13-20.347v-27.044q0-41.724-24.5-66.145Q686-491 651-491h-71q-56.978 0-95.098-43.089-38.12-43.088-38.12-99.92 0-56.833 38.196-95.412 38.196-38.58 94.457-38.58 12.548 0 20.752 8.063 8.204 8.062 8.204 20.393 0 12.33-8.044 20.329-8.044 7.998-20.347 7.998-35 0-56 21t-21 56q0 34.435 21 60.718 21 26.282 55.565 26.282H651q58.334 0 99.276 39.181 40.942 39.18 40.942 95.037v40.174q0 12.058-7.899 19.942Q775.421-345 763.341-345Zm101.204 0q-12.33 0-20.329-8.044-7.998-8.044-7.998-20.347V-445q0-75-49.718-123-49.717-48-125.282-48-12.058 0-19.942-8.062-7.885-8.063-7.885-20.393 0-12.086 7.885-19.924 7.884-7.839 19.942-7.839 34 0 55.5-24t21.5-58q0-34-21.5-58t-55.5-24q-11.964 0-20.178-8.062t-8.214-20.393q0-12.33 8.044-20.329 8.045-7.999 20.348-7.999 57.391 0 95.587 40.975 38.196 40.974 38.196 97.808 0 35.529-13.348 60.526-13.348 24.996-35.044 40.301 57.435 16.608 101.913 73.713Q893.001-522.573 893.001-445v71.609q0 12.303-8.063 20.347Q876.876-345 864.545-345Z"/></svg>