<svg xmlns="http://www.w3.org/2000/svg" width="48" height="48" viewBox="0 -960 960 960"><path d="m235.827-218.782 33.695 34.261q11.696 11.695 12.478 27.739.783 16.044-12.478 29.305-12.696 12.695-29.022 12.695t-28.839-12.982L106.304-232.216q-11.826-11.827-11.826-28.066 0-16.239 11.826-28.066l105.739-105.739q11.696-11.695 28.24-12.195 16.543-.5 29.239 12.761 12.696 12.695 12.696 28.739t-12.696 28.739l-33.695 34.261h488.346l-33.695-34.261Q678.782-347.738 678-363.782q-.783-16.044 12.478-29.305 12.696-12.695 29.022-12.695t29.405 12.982l104.791 104.452q11.826 11.827 11.826 28.066 0 16.239-11.826 28.066L748.522-126.477q-12.261 11.695-28.305 11.695-16.043 0-28.739-13.261-12.696-12.695-12.696-28.739t12.696-28.739l32.695-33.261H235.827ZM85.999-518.608v-22.609q0-23.907 13.104-43.736 13.104-19.828 35.549-30.308 25.643-10.522 53.298-16.543 27.656-6.022 57.722-6.022 30.067 0 57.679 6.022 27.612 6.021 53.779 16.543 22.445 10.48 35.266 30.308 12.822 19.829 12.822 43.736v22.609H85.999Zm468.783 0v-22.609q0-23.907 12.822-43.736 12.821-19.828 35.831-30.308 25.643-10.522 53.298-16.543 27.656-6.022 57.722-6.022 30.067 0 57.679 6.022 27.612 6.021 53.214 16.543 22.445 10.48 35.549 30.308 13.104 19.829 13.104 43.736v22.609H554.782ZM245.564-689.435q-34.912 0-59.738-25.153-24.827-25.153-24.827-60.065 0-34.913 24.871-59.739 24.87-24.826 59.783-24.826 34.912 0 59.738 24.87 24.827 24.871 24.827 59.783 0 34.913-24.871 60.021-24.87 25.109-59.783 25.109Zm468.783 0q-34.912 0-59.738-25.153-24.827-25.153-24.827-60.065 0-34.913 24.871-59.739 24.87-24.826 59.783-24.826 34.912 0 59.738 24.87 24.827 24.871 24.827 59.783 0 34.913-24.871 60.021-24.87 25.109-59.783 25.109Z"/></svg>