<svg xmlns="http://www.w3.org/2000/svg" width="48" height="48" viewBox="0 96 960 960"><path d="m88.347 889.304 52.044-257.956q6.13-28.348 27.218-46.087 21.087-17.74 50.435-17.74h523.912q29.348 0 50.435 17.74 21.088 17.739 27.218 46.087l52.043 257.956q6.696 37.044-16.456 66.109-23.153 29.066-61.762 29.066H166.566q-38.609 0-61.762-29.066-23.152-29.065-16.457-66.109ZM238.87 181.87q0 16.781-11.452 28.107-11.451 11.327-28.158 11.327h-60q-17.272 0-28.723-11.502t-11.451-28.283q0-16.781 11.451-28.108 11.451-11.326 28.723-11.326h60q16.707 0 28.158 11.502 11.452 11.502 11.452 28.283Zm-71.304 722.825h276.782v-93.043H186.174l-18.608 93.043Zm140.897-582.783q11.668 12.217 11.668 28.923 0 16.706-11.826 28.599l-42 42q-12.392 11.826-28.224 12.109-15.832.283-27.5-11.152-12.233-12.218-12.233-28.924t11.826-28.599l42.565-42q11.826-11.826 27.658-12.109 15.832-.282 28.066 11.153ZM200.435 740.348h243.913V646.74H219.044l-18.609 93.608ZM480 323.216q-74.565 0-125.848-52.783-51.282-52.783-55.282-128.348h79.218q3 42.652 31.755 72.282 28.755 29.63 70.157 29.63t70.157-29.63q28.755-29.63 31.755-72.282h79.218q-4 75.565-55.282 128.348Q554.565 323.216 480 323.216Zm0-181.131Zm.175 243.392q16.782 0 28.108 11.451t11.326 28.158v60q0 16.707-11.501 28.158-11.502 11.451-28.283 11.451-16.782 0-28.108-11.451t-11.326-28.158v-60q0-16.707 11.501-28.158 11.502-11.451 28.283-11.451Zm35.477 519.218h276.782l-18.608-93.043H515.652v93.043Zm0-164.347h243.913l-18.609-93.608H515.652v93.608Zm135.608-418.48q11.827-11.826 27.501-11.326 15.674.5 28.065 11.326l43 42q12.057 11.826 12.442 28.066.384 16.239-11.494 28.065-11.879 11.827-28.566 11.827-16.687 0-28.513-11.827l-43-42.565q-11.826-11.826-11.544-27.783.283-15.957 12.109-27.783ZM860.914 181.87q0 16.781-11.451 28.107-11.451 11.327-28.158 11.327h-60q-17.272 0-28.723-11.502-11.452-11.502-11.452-28.283t11.452-28.108q11.451-11.326 28.723-11.326h60q16.707 0 28.158 11.502t11.451 28.283Z"/></svg>