<svg xmlns="http://www.w3.org/2000/svg" width="48" height="48" viewBox="0 -960 960 960"><path d="m74.913-277.739 145.956-376.424q3.565-10.004 15.831-16.225 12.267-6.221 42.648-6.221 10.13 0 19.608 5.848 9.479 5.848 13.044 16.109l139.13 325.043q6 16.826-4.923 31.522-10.923 14.696-27.991 14.696h-.041q-10.503 0-19.926-6.631-9.423-6.63-12.989-16.891l-2.651-16.522q-8.305-23.304-35.826-37.174-27.522-13.869-98.05-13.869-26.205 0-46.917 14.78-20.713 14.78-29.946 37.959l-17.316 44H74.913ZM204.39-434.391h134.957l-65.29-170.869h-4.188L204.39-434.391Zm413.349 99h197.39q12.058 0 20.725 8.681 8.667 8.682 8.667 20.761 0 12.079-8.667 20.71-8.667 8.63-20.725 8.63H566.435q-9.047 0-14.872-5.942-5.824-5.942-5.824-14.188v-32q0-7.115 2.565-13.601 2.566-6.486 6.131-11.617l219.217-270.652H593.13q-12.057 0-20.724-8.681-8.667-8.682-8.667-20.761 0-12.079 8.667-20.71 8.667-8.63 20.724-8.63h228.851q8.874 0 14.708 5.988 5.833 5.989 5.833 14.706v33.001q0 7.116-2.283 13.319-2.282 6.203-6.413 11.334L617.74-335.391ZM393.659-798.18l72.09-72.091q6.093-5.425 14.484-5.425 8.392 0 14.158 5.566l71.958 71.957q5.173 5.738 2.686 11.651-2.488 5.913-9.339 5.913H400.304q-6.851 0-9.339-5.913-2.487-5.913 2.694-11.658Zm71.95 707.745-71.958-71.957q-5.173-5.173-2.686-11.086 2.488-5.913 9.339-5.913h159.392q6.851 0 9.339 5.913 2.487 5.913-2.694 11.093l-72.09 72.09q-6.093 5.99-14.484 5.99-8.392 0-14.158-6.13Z"/></svg>