<svg xmlns="http://www.w3.org/2000/svg" width="48" height="48" viewBox="0 -960 960 960"><path d="M453.41-575.73q-10.76 10.92-10.76 26.43v66.73q0 16.15 10.99 27.03 10.98 10.89 26.59 10.89 15.6 0 26.64-10.89 11.04-10.88 11.04-27.03v-66.73q0-15.51-11.1-26.43t-26.87-10.92q-15.77 0-26.53 10.92ZM346.23-163.28q-11.77 11.33-28.4 11.33h-87.66q-16.7 0-28.15-11.51-11.46-11.5-11.46-28.28t11.46-28.11q11.45-11.32 28.15-11.32h87.66q16.63 0 28.4 11.5T358-191.39q0 16.78-11.77 28.11Zm411 0q-11.77 11.33-28.4 11.33h-87.66q-16.7 0-28.15-11.51-11.46-11.5-11.46-28.28t11.46-28.11q11.45-11.32 28.15-11.32h87.66q16.63 0 28.4 11.5T769-191.39q0 16.78-11.77 28.11Zm-482.1-281.37q30 0 50.5-20.8 20.5-20.79 20.5-50 0-29.77-20.5-50.48-20.5-20.72-50-20.72-30.06 0-50.78 20.51-20.72 20.52-20.72 50 0 29.49 20.57 50.49 20.58 21 50.43 21Zm409.02 0q30.28 0 50.78-20.8 20.5-20.79 20.5-50 0-29.77-20.5-50.48-20.5-20.72-50-20.72-30.06 0-50.78 20.51-20.72 20.52-20.72 50 0 29.49 20.58 50.49 20.57 21 50.14 21ZM145.09-297.17q-32.51 0-55.87-23.52-23.35-23.53-23.35-56.27v-286.43q0-32.74 23.35-56.26 23.36-23.53 55.87-23.53h669.82q32.74 0 56.26 23.53 23.53 23.52 23.53 56.26v286.43q0 32.74-23.53 56.27-23.52 23.52-56.26 23.52H145.09Zm0-79.79h669.82v-286.43H145.09v286.43ZM480-520.17Z"/></svg>