<svg xmlns="http://www.w3.org/2000/svg" width="48" height="48" viewBox="0 0 48 48"><path d="M3.3 24q0-7.6 4.725-13.225T19.9 3.7q.95-.2 1.625.25t.675 1.4q0 1-.6 1.6-.6.6-1.55.85-5.5 1.35-9.15 5.8Q7.25 18.05 7.25 24q0 2.3.6 4.35T9.5 32.3q.5.85.45 1.65-.05.8-.7 1.45-.65.65-1.45.55-.8-.1-1.3-.9-1.55-2.45-2.375-5.2T3.3 24ZM24 44.7q-3.25 0-6.175-.925T12.4 41.15q-.75-.45-.85-1.275-.1-.825.55-1.475.6-.65 1.5-.65t1.7.5q1.95 1.2 4.1 1.85 2.15.65 4.6.65 2.45 0 4.625-.675T32.75 38.2q.85-.5 1.725-.5.875 0 1.525.65.65.65.5 1.475-.15.825-.95 1.325-2.45 1.65-5.375 2.6-2.925.95-6.175.95ZM44.75 24q0 3.1-.85 5.85-.85 2.75-2.35 5.15-.5.8-1.3.925t-1.45-.575q-.65-.7-.7-1.45-.05-.75.45-1.65 1.05-1.85 1.625-3.9T40.75 24q0-5.9-3.575-10.375T28.1 7.8q-1.05-.25-1.625-.825T25.9 5.35q0-.9.65-1.375t1.65-.225q7.1 1.45 11.825 7.05T44.75 24ZM19.2 30.55v-14.1q0-.6.5-.85t1.05.05L31.7 22.6q.5.35.5.9t-.5.85l-10.95 7q-.55.3-1.05.05t-.5-.85Z"/></svg>