<svg xmlns="http://www.w3.org/2000/svg" width="48" height="48" viewBox="0 -960 960 960"><path d="M453.41-575.77q-10.76 10.89-10.76 26.47v66.73q0 16.15 10.94 27.03 10.93 10.89 26.59 10.89 15.65 0 26.69-10.89 11.04-10.88 11.04-27.03v-66.73q0-15.58-11.22-26.47-11.21-10.88-26.87-10.88-15.65 0-26.41 10.88ZM346.27-163.28q-11.74 11.33-28.44 11.33h-87.66q-16.7 0-28.15-11.51-11.46-11.5-11.46-28.28t11.46-28.11q11.45-11.32 28.15-11.32h87.66q16.7 0 28.44 11.5Q358-208.17 358-191.39t-11.73 28.11Zm411 0q-11.74 11.33-28.44 11.33h-87.66q-16.7 0-28.15-11.51-11.46-11.5-11.46-28.28t11.46-28.11q11.45-11.32 28.15-11.32h87.66q16.7 0 28.44 11.5Q769-208.17 769-191.39t-11.73 28.11ZM275.13-444.65q30 0 50.5-20.8 20.5-20.79 20.5-50 0-29.77-20.5-50.48-20.5-20.72-50-20.72-30.06 0-50.78 20.51-20.72 20.52-20.72 50.28 0 29.21 20.57 50.21 20.58 21 50.43 21Zm409.3 0q30 0 50.5-20.8 20.5-20.79 20.5-50 0-29.77-20.5-50.48-20.5-20.72-50-20.72-30.06 0-50.78 20.51-20.72 20.52-20.72 50.28 0 29.21 20.58 50.21 20.57 21 50.42 21ZM145.09-297.17q-32.48 0-55.85-23.65-23.37-23.66-23.37-56.14v-286.43q0-32.48 23.37-56.13 23.37-23.66 55.85-23.66h669.82q32.48 0 56.13 23.66 23.66 23.65 23.66 56.13v286.43q0 32.48-23.66 56.14-23.65 23.65-56.13 23.65H145.09Z"/></svg>