<svg xmlns="http://www.w3.org/2000/svg" width="48" height="48" viewBox="0 0 48 48"><path d="M36 46.9q-2.45 0-4.55-1.125-2.1-1.125-3.35-2.975-.5-.55-.425-1.275.075-.725.625-1.175.65-.55 1.55-.475.9.075 1.55.675.7 1.1 1.925 1.75 1.225.65 2.675.65 2.7 0 4.575-1.9t1.875-4.55q0-2.7-1.9-4.575T36 30.05q-1.3 0-2.35.425T31.8 31.65h.8q.8.1 1.3.65t.5 1.35q0 .8-.575 1.375T32.4 35.6h-5.3q-.85 0-1.425-.575-.575-.575-.575-1.375V28.3q0-.85.575-1.425.575-.575 1.425-.575.75 0 1.275.475.525.475.675 1.225v.75q1.3-1.25 3.1-1.975 1.8-.725 3.85-.725 4.35 0 7.375 3.05 3.025 3.05 3.025 7.35 0 4.35-3.025 7.4Q40.35 46.9 36 46.9ZM9.25 38.8V9.3v29.5Zm23-21.5q.65 0 1.075-.425.425-.425.425-1.075 0-.65-.425-1.075-.425-.425-1.075-.425h-16.5q-.65 0-1.075.45-.425.45-.425 1.05 0 .65.425 1.075.425.425 1.075.425Zm-2.9 5.25h-13.6q-.65 0-1.075.425-.425.425-.425 1.075 0 .65.425 1.075.425.425 1.075.425h9.35q.9-.9 1.975-1.65 1.075-.75 2.275-1.35ZM21.7 30.8h-5.95q-.65 0-1.075.425-.425.425-.425 1.075 0 .65.425 1.075.425.425 1.075.425h5.1q.15-.8.35-1.525.2-.725.5-1.475Zm-12.45 12q-1.65 0-2.8-1.175T5.3 38.8V9.3q0-1.6 1.15-2.775Q7.6 5.35 9.25 5.35h29.5q1.65 0 2.825 1.175Q42.75 7.7 42.75 9.3v13.3q-.95-.45-1.95-.775t-2.05-.475V9.3H9.25v29.5h11.6q.1 1.1.375 2.075.275.975.675 1.925Z"/></svg>