<svg xmlns="http://www.w3.org/2000/svg" width="48" height="48" viewBox="0 0 48 48"><path d="M24 26.7q-3.6 0-5.9-2.3-2.3-2.3-2.3-5.9 0-3.65 2.3-5.95 2.3-2.3 5.9-2.3 3.6 0 5.925 2.3 2.325 2.3 2.325 5.95 0 3.6-2.3 5.9-2.3 2.3-5.95 2.3Zm-16.7 12q0-2.2 1.15-3.675Q9.6 33.55 11.1 32.8q2.55-1.3 6.175-2.175Q20.9 29.75 24 29.75q3.1 0 6.7.85t6.15 2.15q1.5.75 2.7 2.25 1.2 1.5 1.2 3.7v1.5q0 1.65-1.175 2.8t-2.825 1.15h-25.5q-1.65 0-2.8-1.15T7.3 40.2ZM5.95 6.6Q5 7.55 3.775 8.1q-1.225.55-2.625.55-.75 0-1.275-.525Q-.65 7.6-.65 6.85q0-.75.525-1.275Q.4 5.05 1.15 5.05q.65 0 1.225-.25.575-.25 1.025-.7.45-.45.675-1.05.225-.6.275-1.3 0-.7.525-1.25T6.15-.05q.75 0 1.25.55t.5 1.25q0 1.45-.525 2.7Q6.85 5.7 5.95 6.6ZM11.3 12q-1.95 1.95-4.55 3.05-2.6 1.1-5.6 1.1-.75 0-1.275-.525Q-.65 15.1-.65 14.35q0-.75.525-1.25t1.275-.5q2.25 0 4.2-.85 1.95-.85 3.4-2.3 1.5-1.5 2.325-3.45.825-1.95.825-4.25 0-.7.525-1.25T13.7-.05q.75 0 1.275.55.525.55.525 1.25 0 3-1.125 5.625T11.3 12Zm25.35 0q-1.95-2-3.075-4.6Q32.45 4.8 32.5 1.75q0-.7.525-1.25t1.325-.55q.7 0 1.2.55t.5 1.25q0 2.3.85 4.25.85 1.95 2.3 3.45 1.45 1.45 3.425 2.3 1.975.85 4.225.9.75 0 1.275.5.525.5.525 1.25t-.525 1.25q-.525.5-1.275.5-3 0-5.6-1.1-2.6-1.1-4.6-3.05Zm5.4-5.4q-.9-.95-1.45-2.175Q40.05 3.2 40 1.75q0-.7.55-1.25t1.3-.55q.75 0 1.25.55t.5 1.25q0 .7.275 1.275T44.6 4.05q.45.45 1 .7.55.25 1.25.25.75 0 1.275.525.525.525.525 1.275 0 .75-.525 1.275-.525.525-1.275.525-1.45 0-2.65-.55T42.05 6.6Z"/></svg>