<svg xmlns="http://www.w3.org/2000/svg" width="48" height="48" viewBox="0 96 960 960"><path d="M672.408 384.652q-47.625-46.565-76.908-109.366-29.282-62.801-30.282-118.199 0-14.58 10.555-24.334t25.643-9.754q14.02 0 25.194 10.196t13.739 26.457q5.734 49.245 27.301 93.448 21.568 44.204 56.873 79.508 34.739 34.739 78.377 55.526 43.638 20.787 93.448 26.517 16.261 2.565 26.457 13.973 10.196 11.407 10.196 25.524 0 15.087-9.699 25.361-9.699 10.273-24.389 10.273-54.319 0-117.377-29.282-63.057-29.283-109.128-75.848ZM803.87 253.13q-22.031-21.71-34.82-47.746-12.788-26.036-13.354-47.906 0-13.856 9.664-24.168 9.663-10.311 24.244-10.311 12.441 0 23.354 8.5 10.913 8.5 13.913 20.37 2.869 14.304 10.338 26.431 7.469 12.126 18.27 22.786 10.247 10.168 23.04 17.856 12.792 7.688 28.177 10.752 11.87 3 19.587 13.848 7.718 10.848 7.718 24.294 0 13.035-10.174 22.751-10.174 9.717-24.305 9.717-22.127 0-48.237-12.935-26.111-12.935-47.415-34.239ZM391.689 600.304q-72.616 0-118.457-46.24-45.842-46.239-45.842-118.572t45.842-118.174q45.841-45.842 118.174-45.842t118.572 45.842q46.24 45.841 46.24 118.174t-45.957 118.572q-45.957 46.24-118.572 46.24Zm-255.08 349.262q-32.678 0-55.949-23.285-23.27-23.284-23.27-56.499V840.87q0-44.218 22.957-73.827 22.957-29.609 52.957-44.609 51-26 123.608-43.565 72.609-17.565 134.609-17.565 62 0 134.109 17.282 72.109 17.283 123.109 42.718 30 15.565 53.739 45.456 23.74 29.892 23.74 74.11v28.912q0 33.215-23.437 56.499-23.436 23.285-56.347 23.285H136.609Zm0-79.784h509.825v-27.217q0-15.745-8.5-28.463-8.5-12.718-24.5-21.841-48-27-108.152-39.37-60.152-12.369-113.761-12.369-53.608 0-114.26 13.652-60.652 13.652-108.652 38.21-14 6.877-23 20.812-9 13.934-9 29.369v27.217ZM391.406 520.52q36.854 0 60.941-23.784 24.087-23.785 24.087-60.826 0-37.042-23.972-61.129-23.972-24.087-60.826-24.087t-60.941 24q-24.086 24-24.086 60.893 0 37.324 23.971 61.129 23.972 23.804 60.826 23.804Zm.115-84.913Zm0 434.175Z"/></svg>