<svg xmlns="http://www.w3.org/2000/svg" width="48" height="48" viewBox="0 -960 960 960"><path d="M273-403q-17 0-28.5-11.5T233-443q0-17 11.5-28.5T273-483q17 0 28.5 11.5T313-443q0 17-11.5 28.5T273-403Zm621.131-411.913v528.39q0 16.707-11.399 28.158-11.399 11.452-28.275 11.452-14.892 0-27.501-10.294-12.608-10.294-12.608-30.881v-526.825h-546.26q-20.087 0-30.131-12.401t-10.044-27.283q0-14.882 10.044-27.491 10.044-12.608 30.131-12.608h546.26q31.74 0 55.761 24.021 24.022 24.022 24.022 55.762ZM696-533H546.044q-15 0-22.5-9.318t-7.5-20.5q0-11.182 7.5-20.682 7.5-9.5 22.5-9.5H696q12.75 0 21.375 8.675 8.625 8.676 8.625 21.5 0 12.825-8.625 21.325T696-533ZM225.869-225.869l-92.043 92.043q-19.087 19.087-43.522 8.958t-24.435-36.176v-653.043l-8.055-7.668q-10.163-8.807-9.88-22.026.282-13.22 9.913-23.35 9.63-10.131 23.26-10.631 13.631-.5 23.762 9.631L884.261-88.739q10.13 10.13 9.348 23.544-.783 13.413-10.323 22.953Q873.13-32.087 860-32.087t-23.261-10.13L653.652-225.869H225.869Zm307.653-308.653ZM273-523q-17 0-28.5-11.5T233-563q0-17 11.5-28.5T273-603q17 0 28.5 11.5T313-563q0 17-11.5 28.5T273-523Zm423.07-130H412.06q-12.68 0-21.305-8.675-8.625-8.676-8.625-21.5 0-12.825 8.625-21.325t21.305-8.5h284.01q12.68 0 21.305 8.675 8.625 8.676 8.625 21.5 0 12.825-8.625 21.325T696.07-653ZM359.478-520.478ZM145.087-734.869v490.563l54.782-60.781h374L145.087-734.869Z"/></svg>