<svg xmlns="http://www.w3.org/2000/svg" width="48" height="48" viewBox="0 96 960 960"><path d="m225.869 830.131-92.608 92.608q-19.087 19.087-43.24 8.605-24.152-10.483-24.152-36.388V229.913h81.044L450 533h-93.044L58.346 234.391q-9.13-8.565-9.63-22.479-.5-13.913 8.63-23.043 10.131-10.131 23.762-10.631 13.63-.5 23.761 9.631l779.392 779.392q10.13 10.13 9.348 23.544-.783 13.415-10.739 22.845-9.74 9.26-23.153 9.76-13.413.5-22.978-9.63L653.652 830.131H225.869Zm607.827-8.479L534.044 523H696q12.75 0 21.375-8.675 8.625-8.676 8.625-21.5 0-12.825-8.625-21.325T696 463H474.044l-60-60H696q12.75 0 21.375-8.675 8.625-8.676 8.625-21.5 0-12.825-8.625-21.325T696 343H419q-11.054 0-18.831 6.929-7.778 6.93-9.473 17.419v11.739L172.348 161.304h642q31.478 0 55.631 24.152 24.152 24.153 24.152 55.631v509.826q0 27.522-17.5 48.565-17.5 21.044-42.935 22.174ZM273 653q17 0 28.5-11.5T313 613q0-17-11.5-28.5T273 573q-17 0-28.5 11.5T233 613q0 17 11.5 28.5T273 653Zm0-120q17 0 28.5-11.5T313 493q0-17-11.5-28.5T273 453q-17 0-28.5 11.5T233 493q0 17 11.5 28.5T273 533Z"/></svg>