<svg xmlns="http://www.w3.org/2000/svg" width="48" height="48" viewBox="0 -960 960 960"><path d="M543.609-277H387.65q-14.366 0-24.008-9.6-9.643-9.6-9.643-23.791v-138.218q0-28.521 18.848-47.652 18.848-19.13 47.37-19.13h90v-101.391H386.826q-13.952 0-23.389-9.634-9.438-9.633-9.438-23.874 0-14 9.6-23.355T387.391-683h122.826q28.522 0 47.37 18.848t18.848 47.37v101.391q0 28.521-18.848 47.652-18.848 19.13-47.37 19.13h-90v105.391H543.39q14.099 0 23.572 9.474 9.473 9.474 9.473 23.478 0 14.005-9.438 23.636-9.437 9.63-23.388 9.63ZM106.043-616.782H55.869q-13.951 0-23.389-9.634-9.437-9.633-9.437-23.874 0-14 9.6-23.355T56.434-683h83q13.951 0 23.389 9.438 9.437 9.437 9.437 23.388v340.348q0 13.951-9.473 23.388Q153.313-277 139.308-277q-14.004 0-23.635-9.6-9.63-9.6-9.63-23.791v-306.391ZM790.696-423.26l-67.391 124.869q-4.851 8.754-13.117 13.573Q701.923-280 692.542-280q-20.281 0-29.977-17.006-9.695-17.005 0-34.603l84.217-155.521-77.086-141.261q-9.696-17.413-.218-34.511Q678.957-680 699.457-680q9.225 0 17.361 4.885 8.136 4.885 13.183 13.506l61.26 111.608 59.695-111.608q5.416-8.754 13.682-13.573Q872.904-680 882.284-680q20.281 0 30.26 17.109 9.978 17.109.282 33.935L835.174-487.13l85.217 156.521q9.131 17.391-.565 34T889.532-280q-9.27 0-16.977-4.62-7.707-4.621-12.468-12.771L790.696-423.26ZM263.569-277q-14.004 0-23.635-9.633-9.63-9.634-9.63-23.874 0-14.001 9.633-23.356 9.633-9.355 23.874-9.355 14 0 23.355 9.474t9.355 23.478q0 14.005-9.473 23.636-9.474 9.63-23.479 9.63Z"/></svg>