<svg xmlns="http://www.w3.org/2000/svg" width="48" height="48" viewBox="0 -960 960 960"><path d="M542-339.43q26-26 24.5-61.5t-30.5-54.5q-63.61-42.31-128.22-85.61-64.61-43.31-129.21-86.61-14.4-9.83-25.72 1.28-11.33 11.11-2.07 25.5 43.31 64.61 86.61 129.22 43.31 64.61 86.04 128.22 20.14 29 55.85 29.71Q515-313 542-339.43ZM191.43-145.87q-21.95 0-40.56-10.48-18.61-10.48-30.31-29.3-27.69-48.13-41.19-102.11-13.5-53.98-13.5-110.67-.57-84.4 32.78-159.72Q132-633.48 189.2-690.46q57.19-56.98 132.8-90.32 75.61-33.35 159.43-33.35 85.83 0 161.16 32.63 75.32 32.63 131.3 89.33 55.98 56.69 88.11 132.3 32.13 75.61 32.13 161.44 0 56.69-14.56 110.17-14.57 53.48-41.7 102.61-10.13 19.39-29.52 29.59-19.39 10.19-40.35 10.19H191.43Z"/></svg>