<svg xmlns="http://www.w3.org/2000/svg" width="48" height="48" viewBox="0 96 960 960"><path d="M563 977.74q-6.13 0-11.544-2.566-5.413-2.565-9.543-6.695L424.435 851.001q-11.826-11.261-11.826-26.653 0-15.391 11.826-27.218 11.261-11.26 26.652-11.26 15.392 0 27.218 11.26L563 882.391 771.26 674.13q11.261-11.26 26.653-11.26 15.391 0 27.217 11.26 11.261 11.827 11.261 27.218 0 15.392-11.261 26.653L584.087 968.479q-4.13 4.13-9.543 6.695-5.414 2.566-11.544 2.566ZM164.435 744q-22.392 0-32.305-14.478-9.913-14.479-1.782-35.435l168.608-439.869q5.565-15.261 21.674-26.24Q336.739 217 354.13 217q16.261 0 32.653 10.978 16.391 10.979 21.957 26.24l165.912 435.608q8.131 21.956-2.347 38.065Q561.826 744 537.304 744q-9.695 0-18.543-5.848-8.848-5.848-12.413-14.978l-45.305-118.913H239.13l-45.304 119.478q-3.565 8.565-11.913 14.413Q173.565 744 164.435 744Zm94.826-202.826h182.217L352.87 296.218h-5l-88.609 244.956Z"/></svg>