<svg xmlns="http://www.w3.org/2000/svg" width="48" height="48" viewBox="0 96 960 960"><path d="M94.173 905.609q-17.522 0-28.848-11.326T53.999 866v-55q0-22.522 13.543-36.066 13.544-13.543 36.631-13.543h22.826v144.218H94.173Zm76.826 0V761.391h169.913l48.087-100.783L451 775.13l-49.391 103.827q-6.131 13.261-17.609 19.956-11.479 6.696-27.435 6.696H170.999Zm662.002 0V761.391h23.391q22.522 0 36.066 13.543 13.543 13.544 13.543 36.066v55q0 16.957-11.326 28.283t-28.283 11.326h-33.391Zm-229 0q-15.392 0-27.435-6.696-12.044-6.695-18.175-19.956L290.956 318.826q-14.391-30.087-1.196-51.261 13.196-21.174 47.979-21.174 13.261 0 27.435 8.413t20.305 20.674l95.651 202.26 93.957-201.695q6.13-12.261 19.956-20.956 13.827-8.696 28.218-8.696 33.218 0 46.979 21.174 13.761 21.174-.631 51.826L540.566 595.999l78.522 165.392h169.913v144.218h-185Z"/></svg>