<svg xmlns="http://www.w3.org/2000/svg" width="48" height="48" viewBox="0 -960 960 960"><path d="M510.956-385.782q-79.956 0-131.586 14.413-51.631 14.413-84.631 47.413L146.261-175.478Q135-164.217 120.456-164.717q-14.543-.5-25.239-11.761-10.696-10.696-10.696-26.022 0-15.326 10.696-26.022L243.26-376q33-33.565 47.848-83.348 14.848-49.782 14.848-131.434 0-61.522 25.848-119.631t77.978-109.109q89.131-89.696 196.957-101.696t178.087 57.696q69.131 69.131 57.131 177.957T740.826-486.478q-51.565 51.565-109.674 76.13-58.109 24.566-120.196 24.566Zm-95.13-109.74q46.739 46.739 128.478 33.956 81.739-12.782 146.478-77.521 64.174-64.739 77.174-144.696 13-79.956-33.174-127.26-46.173-46.174-127.978-33.391Q525-831.652 460.826-767.478q-64.739 64.739-78.239 144.978t33.239 126.978ZM743.913-30.391q-62.261 0-104.826-42.848-42.565-42.848-42.565-104.543 0-61.696 42.565-104.261 42.565-42.566 104.826-42.566 61.696 0 104.544 42.566 42.848 42.565 42.848 104.261 0 61.695-42.848 104.543Q805.609-30.39 743.913-30.39Z"/></svg>