<svg xmlns="http://www.w3.org/2000/svg" width="48" height="48"><path d="M44.3 20.25q-1.35-7.1-6.35-11.65-5-4.55-11.95-5.2v6.35zM14.9 26.8l7.05-4.2V3.4q-2.3.15-3.95.725-1.65.575-3.1 1.175zm-9.75 5.8 5.75-3.45V8.05Q7.25 11 5.275 15.2T3.3 24.05q0 2.35.475 4.425Q4.25 30.55 5.15 32.6zm7.25 8.6 18.85-10.8-7.3-4.3L7.1 36.05q.95 1.3 2.375 2.75t2.925 2.4zm11.55 3.5q5.2 0 9.575-2.3 4.375-2.3 7.325-6.35l-5.7-3.4-18.3 10.7q1.5.6 3.375.975t3.725.375zm18.9-12.1q.85-1.8 1.275-3.575.425-1.775.625-3.725L26 14.4v8.2z"/></svg>