<svg xmlns="http://www.w3.org/2000/svg" width="48" height="48" viewBox="0 -960 960 960"><path d="M480.565-297.26 316.609-172.609q-11.826 8.696-24.218 7.696-12.391-1-22.652-7.696-10.261-6.695-14.609-18.304-4.348-11.609-.782-25.435l62.608-203.695-160.391-115.783q-11.826-8.261-15.456-20.304-3.631-12.044.5-23.435 4.13-10.826 13.108-19.305 8.979-8.478 24.501-8.478h198.564l64.174-212.695q3.565-14.392 14.609-21.587 11.044-7.196 23.435-7.196 12.391 0 23.435 7.196 11.044 7.195 15.174 21.587l63.609 212.695h199.13q14.956 0 23.935 8.478 8.978 8.479 13.108 19.305 4.131 11.391.5 23.435-3.63 12.043-15.456 20.304L643.044-420.043l62.608 203.13q3.566 14.391-.782 25.717-4.348 11.326-14.609 18.022-10.261 7.261-22.37 8.261-12.109 1-23.935-8.261L480.565-297.26Z"/></svg>