<svg xmlns="http://www.w3.org/2000/svg" width="48" height="48" viewBox="0 -960 960 960"><path d="M801.22-380.09q16.17 0 28.56 11.83l58.48 59.48q11.83 11.82 11.83 27.78t-11.83 28.06q-11.82 12.11-28.06 12.11t-28.07-12.39l-58.91-58.48q-12.39-11.82-12.39-28.28t12.11-28.28q12.1-11.83 28.28-11.83Zm10.39-432.26q0 16.18-11.83 28L741.3-725.3q-12.39 11.82-28.56 11.82-16.17 0-28.28-11.82-12.11-11.83-12.11-28.29 0-16.45 12.39-28.28l58.91-59.04q11.83-11.83 28.07-11.83 16.24 0 28.06 12.11 11.83 12.11 11.83 28.28ZM188.5-852.74q16.46 0 28.28 11.83l59.05 59.47q11.82 11.83 11.82 28.07 0 16.24-12.11 28.07-12.11 11.82-27.78 11.82-15.67 0-27.5-11.82l-60.04-59.05q-11.83-11.82-11.83-28 0-16.17 11.83-28.28 11.82-12.11 28.28-12.11Zm10.67 512.76q0 16.46-11.82 28.28l-58.48 58.48q-11.83 12.39-28.28 12.39-16.46 0-28.29-12.11-11.82-12.1-11.82-27.78 0-15.67 11.82-28.06l59.48-59.48q11.83-11.83 27.78-11.83 15.96 0 27.79 11.83 11.82 11.82 11.82 28.28ZM480-261.09 305.3-155.3q-10.82 7.26-22.65 6.19-11.82-1.06-21.08-7.76-9.27-6.7-13.9-17.24-4.63-10.54-1.5-23.93l46.18-199L137.39-532.7q-10.26-8.69-12.61-20.02-2.35-11.32.22-22.15 2.57-10.83 12.11-18.3 9.54-7.48 22.93-8.48l204-17.87 78.92-188.7q5.13-12.39 15.67-18.3t21.37-5.91q10.83 0 21.37 5.91 10.54 5.91 15.67 18.3l79.48 188.7 204 17.87q12.83 1 22.37 8.48 9.54 7.47 12.11 18.3 2.57 10.83.5 22.15-2.07 11.33-12.33 20.02L668.22-397.04l46.17 199.56q2.57 12.83-1.78 23.65Q708.26-163 699-156.3q-9.26 6.69-21.09 7.47-11.82.79-22.65-5.91L480-261.09Z"/></svg>