<svg xmlns="http://www.w3.org/2000/svg" width="48" height="48" viewBox="0 -960 960 960"><path d="M105.303-230.391q-16.782 0-28.108-11.451T65.87-270v-420q0-16.707 11.502-28.158 11.501-11.451 28.282-11.451 16.782 0 28.108 11.451T145.087-690v420q0 16.707-11.501 28.158-11.502 11.451-28.283 11.451Zm637.087-210H283.696q-16.706 0-28.158-11.501-11.451-11.502-11.451-28.283 0-16.782 11.451-28.108 11.452-11.326 28.158-11.326H742.39L612.348-651.217Q599.956-663.043 600.239-679q.282-15.957 12.109-27.783 11.826-11.826 27.5-11.826t28.065 11.826l198.435 198.435q6.131 6.13 9.261 13.525 3.131 7.394 3.131 14.956 0 7.563-3.131 14.824-3.13 7.261-9.261 13.391L667.913-253.217q-12.391 11.826-28.223 12.109-15.832.282-27.5-11.152-12.234-12.218-12.234-28.924t11.826-28.599L742.39-440.391Z"/></svg>