<svg xmlns="http://www.w3.org/2000/svg" width="48" height="48" viewBox="0 -960 960 960"><path d="M187.782-127.216q-35.887 0-61.444-25.747-25.556-25.748-25.556-61.904 0-35.527 25.556-61.221 25.557-25.694 61.444-25.694h584.436q36.121 0 61.843 25.779 25.723 25.779 25.723 61.589t-25.723 61.504q-25.722 25.694-61.843 25.694H187.782Zm0-531.002q-35.887 0-61.444-25.747-25.556-25.748-25.556-61.904 0-35.527 25.556-61.221 25.557-25.694 61.444-25.694h584.436q36.121 0 61.843 25.779 25.723 25.779 25.723 61.589t-25.723 61.504q-25.722 25.694-61.843 25.694H187.782Zm0 265.219q-35.887 0-61.444-25.617-25.556-25.617-25.556-61.589 0-35.972 25.556-61.384 25.557-25.412 61.444-25.412h584.436q36.121 0 61.843 25.617 25.723 25.617 25.723 61.589 0 35.972-25.723 61.384-25.722 25.412-61.843 25.412H187.782Zm31.399-313.393q17.132 0 28.367-11.024 11.235-11.025 11.235-27.875 0-16.849-11.024-28.367-11.025-11.517-28.157-11.517-17.132 0-28.367 11.264Q180-762.646 180-745.994q0 17.132 11.024 28.367 11.025 11.235 28.157 11.235Zm0 265.783q17.132 0 28.367-11.024t11.235-28.156q0-17.133-11.024-28.368-11.025-11.234-28.157-11.234-17.132 0-28.367 11.024T180-480.211q0 17.133 11.024 28.368 11.025 11.234 28.157 11.234Zm0 265.219q17.132 0 28.367-11.024 11.235-11.025 11.235-27.874 0-16.85-11.024-28.368-11.025-11.517-28.157-11.517-17.132 0-28.367 11.264Q180-231.644 180-214.992q0 17.132 11.024 28.367 11.025 11.235 28.157 11.235Z"/></svg>