<svg xmlns="http://www.w3.org/2000/svg" width="48" height="48" viewBox="0 -960 960 960"><path d="M145.087-65.869q-32.507 0-55.862-23.356-23.356-23.355-23.356-55.862v-429.826q0-32.74 23.356-56.262 23.355-23.521 55.862-23.521h669.826q32.74 0 56.262 23.521 23.521 23.522 23.521 56.262v429.826q0 32.507-23.521 55.862-23.522 23.356-56.262 23.356H145.087Zm0-79.218h669.826v-429.826H145.087v429.826Zm292.826-87 165.435-111.956q8.695-6.454 8.695-16.118 0-9.665-8.695-15.796L437.913-486.913q-10.826-6.696-20.869-1.279Q407-482.775 407-470.956v222.347q0 12.433 10.044 17.825 10.043 5.393 20.869-1.303ZM179-714.696q-12.75 0-21.375-8.676Q149-732.047 149-744.589q0-12.542 8.625-21.325 8.625-8.782 21.375-8.782h602q12.75 0 21.375 8.958t8.625 21.5q0 12.542-8.625 21.042-8.625 8.5-21.375 8.5H179Zm131-120q-12.75 0-21.375-8.676Q280-852.047 280-864.589q0-12.542 8.625-21.325 8.625-8.782 21.375-8.782h340q12.75 0 21.375 8.958t8.625 21.5q0 12.542-8.625 21.042-8.625 8.5-21.375 8.5H310ZM145.087-145.087v-429.826 429.826Z"/></svg>