<svg xmlns="http://www.w3.org/2000/svg" width="48" height="48" viewBox="0 -960 960 960"><path d="M423.413-149.087q47.152-87.304 120.544-119.522 73.392-32.217 127.609-32.217 22.043 0 41.543 3.5t39.972 9.5q25.962-36.435 44.18-87.004 18.217-50.569 18.217-105.735 0-140.114-97.399-237.231-97.4-97.117-237.514-97.117t-237.513 97.117q-97.4 97.117-97.4 237.231 0 50.399 15 97.351 15 46.953 39.87 84.388 40.435-21.435 84.256-32.435 43.822-11 90.719-11 28.199 0 55.133 4 26.935 4 49.37 14-15 10.565-29.435 21.217-14.435 10.653-26.435 22.218-14.565-2-26.217-2h-22.239q-37.642 0-72.963 7.783-35.32 7.783-67.754 24.915 36.869 39.171 85.984 66.106 49.115 26.935 102.472 34.935Zm57.62 83.218q-85.541 0-161.244-32.63-75.702-32.631-131.898-89.109-56.196-56.479-89.109-131.553T65.869-480.03q0-85.796 32.913-160.84 32.913-75.043 89.109-131.522 56.196-56.478 131.679-89.391 75.484-32.913 161.308-32.913 84.948 0 160.274 32.913 75.327 32.913 131.522 89.391 56.196 56.479 89.109 131.548 32.913 75.07 32.913 160.423 0 85.812-32.913 161.073-32.913 75.261-89.109 131.74-56.195 56.478-131.688 89.109-75.493 32.63-159.953 32.63ZM375.382-421.13q-56.79 0-96.608-39.531-39.817-39.531-39.817-96.37 0-56.839 39.696-96.491 39.697-39.652 96.487-39.652 56.79 0 96.325 39.483Q511-614.209 511-557.322t-39.414 96.539q-39.414 39.653-96.204 39.653Zm-.404-58.87q32.218 0 54.685-22.467 22.467-22.468 22.467-54.685 0-32.218-22.467-54.402-22.467-22.185-54.685-22.185-32.217 0-54.684 22.185-22.468 22.184-22.468 54.402 0 32.217 22.468 54.685Q342.761-480 374.978-480Zm297.171 104.304q-43.116 0-73.915-30.307-30.799-30.307-30.799-73.87 0-43.562 30.799-73.997 30.799-30.434 73.915-30.434 43.116 0 73.505 30.307 30.389 30.307 30.389 73.87 0 43.562-30.389 73.997-30.389 30.434-73.505 30.434ZM480.565-480Z"/></svg>