<svg xmlns="http://www.w3.org/2000/svg" width="48" height="48" viewBox="0 -960 960 960"><path d="M817.09-636.22q-13.88 0-23.36-9.47-9.47-9.47-9.47-23.35v-42.26q0-13.89 9.47-23.64 9.48-9.76 23.36-9.76h81.39v-31.52h-94.7q-8.26 0-13.89-5.63-5.63-5.63-5.63-13.32 0-7.7 5.63-13.61 5.63-5.92 13.89-5.92h100.35q13.88 0 23.35 9.76 9.48 9.75 9.48 23.64v42.26q0 13.88-9.48 23.35-9.47 9.47-23.35 9.47h-81.39v31.52H918q7.7 0 13.33 5.92 5.63 5.91 5.63 13.61 0 7.69-5.63 13.32T918-636.22H817.09ZM297.74-145.87q-25.81 0-38.21-22.46-12.4-22.45 1.43-44.41l151.69-238.83-137.69-215.26q-13.26-21.39-1.5-44.63 11.76-23.24 37.81-23.24 12.2 0 22.18 5.59 9.97 5.58 16.07 15.37l120.61 190.35h-1.7L589.04-714.3q5.46-9.23 15.72-14.81 10.26-5.59 20.92-5.59 26.54 0 38.86 23.24 12.33 23.24-1.5 44.63L525.35-451.57l151.69 238.83q13.83 21.96 1.41 44.41-12.41 22.46-37.25 22.46-11.63 0-22.07-5.3t-16.65-15.09L468.43-378.74h1.7L335.52-166.26q-6.02 9.23-16.28 14.81-10.27 5.58-21.5 5.58Z"/></svg>