<svg xmlns="http://www.w3.org/2000/svg" width="48" height="48" viewBox="0 -960 960 960"><path d="M327-359h163q13 0 21.5-8.5T520-389q0-13-8.5-21.5T490-419H327l63-63q9-9 9-21.5t-9-21.5q-9-9-21.5-9t-21.5 9L239.348-417.348q-11.826 12.237-11.826 28.554 0 16.316 11.826 28.142L347-253q9 9 21.5 8.5T390-254q9-9 9-21.5t-9-21.5l-63-62Zm306-174-63 63q-9 9-9 21.5t9 21.5q9 9 21.5 9t21.5-9l107.652-107.652q11.826-12.237 11.826-28.554 0-16.316-11.826-28.142L614-698q-9-9-21.5-9.5T571-699q-9 9-9 22t9 22l62 62H470q-13 0-21.5 8.5T440-563q0 13 8.5 21.5T470-533h163ZM480.078-65.869q-85.469 0-161.006-32.395-75.536-32.395-131.975-88.833-56.438-56.439-88.833-131.897-32.395-75.459-32.395-160.928 0-86.469 32.395-162.006 32.395-75.536 88.745-131.504 56.349-55.968 131.849-88.616 75.5-32.648 161.017-32.648 86.516 0 162.12 32.604 75.603 32.604 131.529 88.497t88.549 131.452Q894.696-566.584 894.696-480q0 85.547-32.648 161.075-32.648 75.527-88.616 131.896-55.968 56.37-131.426 88.765-75.459 32.395-161.928 32.395Z"/></svg>