<svg xmlns="http://www.w3.org/2000/svg" width="48" height="48" viewBox="0 96 960 960"><path d="M70 977.218q-13.261 0-22.24-8.979-8.978-8.978-8.978-22.239 0-13.261 8.979-22.239 8.978-8.979 22.239-8.979h58.999q-57.173-72.434-93.695-158.239Q-1.218 670.739-1.218 576t35.022-180.543q35.022-85.805 92.195-158.239H70q-13.261 0-22.24-8.979-8.978-8.978-8.978-22.239 0-13.261 8.979-22.239 8.978-8.979 22.239-8.979h131.609q16.956 0 28.282 11.327 11.327 11.326 11.327 28.282V346q0 13.261-8.979 22.239-8.978 8.979-22.239 8.979-13.261 0-22.239-8.979-8.979-8.978-8.979-22.239v-70.347q-54.347 68.174-85.956 141.652Q61.218 490.783 61.218 576t31.608 158.195q31.609 72.978 85.956 141.587V806q0-13.261 8.979-22.239 8.978-8.979 22.239-8.979 13.261 0 22.239 8.979 8.979 8.978 8.979 22.239v131.609q0 16.956-11.327 28.282-11.326 11.327-28.282 11.327H70Zm533.652-8.305-209.783-84.565q-20.957-9.13-29.87-27.891-8.913-18.761-4.348-36.587 5.565-18.261 19.544-29.457 13.978-11.196 34.37-15.196l117.391-22.435-165.347-371.303q-12.131-25.827-2.283-50.588t36.239-37.456q25.826-12.131 50.305-2 24.478 10.13 37.174 35.956l94.043 210.957 33-14.435q10.565-5 18.565-6.783 8-1.782 18.566-.782l175.217 7.434q29.261 1.435 50.109 19.479 20.847 18.043 29.413 46.304l47.304 175.565q8.565 30.696-6.348 58.675-14.913 27.978-44.174 41.108L668.913 969.044q-15.565 7-32.348 6.717-16.783-.282-32.913-6.848Z"/></svg>