<svg xmlns="http://www.w3.org/2000/svg" width="48" height="48" viewBox="0 -960 960 960"><path d="M441.738-65.869q-23.013 0-44.202-8.565-21.19-8.565-37.755-25.13L155.65-306.523q-5.739-5.739-6.739-13.913t2.739-15.478l-.131.131q14.957-22.218 39.805-31.262 24.848-9.043 51.197-.086l88.086 24.869V-680q0-14.856 10.089-25.254 10.088-10.398 25.065-10.398 14.976 0 25.281 10.398 10.305 10.398 10.305 25.254v386.087q0 17.056-13.696 26.724t-29.957 4.537l-82.608-23.565 135.786 137.482q5.692 6.257 13.962 9.192 8.27 2.934 16.904 2.934h207.306q39.174 0 66.761-27.586 27.586-27.587 27.586-66.761v-193.566q0-14.615 10.481-24.851 10.48-10.236 25.456-10.236 14.977 0 25.173 10.236 10.195 10.236 10.195 24.851v193.566q0 68.826-48.48 116.957-48.48 48.13-117.172 48.13H441.738Zm62.546-513.74q14.976 0 25.172 10.236t10.196 24.851V-400q0 14.856-10.48 25.254-10.481 10.398-25.457 10.398-14.977 0-25.172-10.398-10.196-10.398-10.196-25.254v-144.522q0-14.615 10.48-24.851 10.48-10.236 25.457-10.236Zm136.521 40q14.977 0 25.282 10.236 10.304 10.236 10.304 24.851v104.254q0 15.279-10.48 25.6-10.48 10.32-25.456 10.32-14.977 0-24.89-10.398T605.652-400v-104.522q0-14.615 10.088-24.851 10.089-10.236 25.065-10.236Zm177.499-215.087q-76.174-62.783-163.668-94.891-87.494-32.109-181.81-32.109-102.948 0-186.582 38.935-83.635 38.935-138.331 114.239-9.826 12.261-22.364 20.674-12.537 8.413-28.202 8.413-11.165 0-15.626-10.826-4.46-10.826 2.235-21.652 59.218-99.088 160.456-152.066 101.239-52.978 228.414-52.978 101.701 0 193.938 33.087Q759-870.784 839.435-809.045v-57.738q0-10.977 7.978-19.445t19.37-8.468q11.391 0 19.652 8.261 8.261 8.261 8.261 19.652v127.739q0 16.707-11.769 28.158t-28.405 11.451H726.783q-10.732 0-19.04-7.978t-8.308-19.37q0-11.391 7.978-19.652 7.978-8.261 19.37-8.261h91.521ZM574.043-261.043Z"/></svg>