<svg xmlns="http://www.w3.org/2000/svg" width="48" height="48" viewBox="0 -960 960 960"><path d="M818.304-754.696q-76.174-62.783-163.652-94.891-87.478-32.109-181.826-32.109-102.787 0-186.502 38.935T147.913-728.522q-9.826 12.261-22.217 20.674-12.392 8.413-28.349 8.413-11.165 0-15.626-10.826-4.46-10.826 2.235-21.652 59.218-99.088 160.696-152.066 101.478-52.978 228.174-52.978 101.701 0 193.938 33.087Q759-870.784 839.435-809.045v-57.738q0-10.977 7.978-19.445t19.37-8.468q11.391 0 19.652 8.261 8.261 8.261 8.261 19.652v127.739q0 16.957-11.644 28.283t-28.53 11.326H726.783q-10.732 0-19.04-7.978t-8.308-19.37q0-11.391 7.978-19.652 7.978-8.261 19.37-8.261h91.521ZM441.738-65.869q-23.131 0-44.261-8.565-21.131-8.565-37.696-25.13L155.65-306.523q-5.739-5.739-6.739-13.913t2.739-15.478l-.131.131q14.957-22.218 39.805-31.262 24.848-9.043 51.197-.086l88.086 24.869V-680q0-15.106 9.913-25.379 9.913-10.273 25.065-10.273 15.152 0 25.457 10.273 10.305 10.273 10.305 25.379v293.957h67v-158.479q0-14.865 10.305-24.976 10.305-10.111 25.456-10.111 15.152 0 25.348 10.111t10.196 24.976v158.479h66v-118.479q0-14.865 9.913-24.976 9.913-10.111 25.065-10.111 15.152 0 25.457 10.111 10.304 10.111 10.304 24.976v118.479h67v-38.479q0-14.865 10.305-24.976 10.305-10.111 25.457-10.111 15.152 0 25.348 10.111 10.195 10.111 10.195 24.976v193.566q0 68.826-48.48 116.957-48.48 48.13-117.172 48.13H441.738Z"/></svg>