<svg xmlns="http://www.w3.org/2000/svg" width="48" height="48" viewBox="0 96 960 960"><path d="M245.174 647.783 350.391 753q9 9 22.5 9t23.5-10q9-10 9-23t-9-23l-61-61h288.218L562.5 706q-10.109 10-10.109 23t10.109 24q10.109 9 24.109 9 14 0 23-9l105.217-105.217q11.826-11.826 11.826-27.783t-11.826-27.783L608.609 486q-9-9-21-4.5t-23 3.5q-10 10-10 23t10 22l58 57H335.391l59.118-58q8.108-8 4.608-20-3.5-12-3.618-23-9.108-10-22.608-10t-22.5 9L245.174 592.217Q233.348 604.043 233.348 620t11.826 27.783ZM145.087 950.131q-32.507 0-55.862-23.356-23.356-23.355-23.356-55.862V368.087q0-31.74 23.356-55.762 23.355-24.021 55.862-24.021h138.522l55-66q10.826-13.827 26.818-20.522 15.992-6.696 33.878-6.696H561.26q17.392 0 33.349 6.696 15.956 6.695 26.782 20.522l55 66h138.522q31.74 0 55.762 24.021 24.021 24.022 24.021 55.762v502.826q0 32.507-24.021 55.862-24.022 23.356-55.762 23.356H145.087Z"/></svg>