<svg xmlns="http://www.w3.org/2000/svg" width="48" height="48" viewBox="0 -960 960 960"><path d="M590.391-290q16.707 0 28.158-11.451T630-329.609v-300.782q0-16.707-11.451-28.158T590.391-670H369.609q-16.707 0-28.158 11.451T330-630.391v300.782q0 16.707 11.451 28.158T369.609-290h220.782ZM390-350v-260h180v260H390ZM185.087-105.869q-32.478 0-55.848-23.37-23.37-23.37-23.37-55.848v-589.826q0-32.478 23.37-56.131 23.37-23.652 55.848-23.652h589.826q32.478 0 56.131 23.652 23.652 23.653 23.652 56.131v589.826q0 32.478-23.652 55.848-23.653 23.37-56.131 23.37H185.087ZM480.175-490q12.825 0 21.325-8.675 8.5-8.676 8.5-21.5 0-12.825-8.675-21.325-8.676-8.5-21.5-8.5-12.825 0-21.325 8.675-8.5 8.676-8.5 21.5 0 12.825 8.675 21.325 8.676 8.5 21.5 8.5Z"/></svg>