<svg xmlns="http://www.w3.org/2000/svg" width="48" height="48" viewBox="0 -960 960 960"><path d="M590.39-290q16.96 0 28.28-11.33Q630-312.65 630-329.61v-300.78q0-16.96-11.33-28.28Q607.35-670 590.39-670H369.61q-16.96 0-28.28 11.33Q330-647.35 330-630.39v300.78q0 16.96 11.33 28.28Q352.65-290 369.61-290h220.78ZM390-350v-260h180v260H390ZM185.09-105.87q-32.48 0-55.85-23.37-23.37-23.37-23.37-55.85v-589.82q0-32.48 23.37-56.13 23.37-23.66 55.85-23.66h589.82q32.48 0 56.13 23.66 23.66 23.65 23.66 56.13v589.82q0 32.48-23.66 55.85-23.65 23.37-56.13 23.37H185.09ZM501.5-498.5Q510-507 510-520t-8.5-21.5Q493-550 480-550t-21.5 8.5Q450-533 450-520t8.5 21.5Q467-490 480-490t21.5-8.5Z"/></svg>