<svg xmlns="http://www.w3.org/2000/svg" width="48" height="48" viewBox="0 96 960 960"><path d="M261.087 689q8 8 19.5 7.5t19.848-8.848q7.652-7.652 7.652-19.741 0-12.089-8-19.911l-45-45h289.826l-46.021 46q-8.234 8-7.734 19.5t9.103 19.848Q507.913 696 520.002 696q12.089 0 19.911-8l87.217-87.217q6.079-6.225 8.953-13.352 2.873-7.128 2.873-14.627 0-7.5-2.873-14.45-2.874-6.95-8.953-13.137L538.913 457q-8-8-19.5-7.5t-19.848 8.848q-7.652 7.652-7.652 19.741 0 12.089 8 19.911l45 45H255.087l46.021-46q8.234-8 7.734-19.5t-9.103-19.848Q292.087 450 279.998 450q-12.089 0-19.911 8l-87.217 87.217q-6.079 6.225-8.952 13.352-2.874 7.128-2.874 14.627 0 7.5 2.874 14.45 2.873 6.95 8.952 13.137L261.087 689Zm-116 221.131q-32.507 0-55.862-23.356-23.356-23.355-23.356-55.862V321.087q0-32.74 23.356-56.262 23.355-23.521 55.862-23.521h509.826q32.74 0 56.262 23.521 23.521 23.522 23.521 56.262V531l124.956-124.956q10.261-10.261 22.653-5.131 12.391 5.131 12.391 18.522v312.564q0 13.957-12.391 19.088-12.392 5.13-22.653-5.131L734.696 621v209.913q0 32.507-23.521 55.862-23.522 23.356-56.262 23.356H145.087Zm0-79.218h509.826V321.087H145.087v509.826Zm0 0V321.087v509.826Z"/></svg>