<svg xmlns="http://www.w3.org/2000/svg" width="48" height="48" viewBox="0 0 48 48"><path d="m24 26.35 4.55 4.5q.5.5 1.15.5.65 0 1.2-.5.5-.5.5-1.15 0-.65-.5-1.2L26.35 24l4.55-4.55q.45-.5.475-1.15.025-.65-.475-1.2-.55-.5-1.2-.5-.65 0-1.15.5L24 21.65l-4.55-4.55q-.5-.45-1.15-.475-.65-.025-1.15.475-.5.55-.5 1.2 0 .65.5 1.15l4.5 4.55-4.5 4.55q-.5.5-.5 1.15 0 .65.5 1.15.5.5 1.15.5.65 0 1.2-.5ZM9.25 38.75V9.25v29.5-.35Zm0 3.95q-1.6 0-2.775-1.175Q5.3 40.35 5.3 38.75V9.25q0-1.65 1.175-2.825Q7.65 5.25 9.25 5.25h29.5q1.65 0 2.825 1.175Q42.75 7.6 42.75 9.25v20.2q-.95-.35-1.975-.5-1.025-.15-2.025-.1V9.25H9.25v29.5H28.5q-.05 1 .025 2 .075 1 .375 1.95Zm30.8-1.35H33.2q-.75 0-1.275-.5-.525-.5-.525-1.25 0-.8.525-1.3t1.275-.5h6.85l-2.1-2.2q-.5-.5-.525-1.225-.025-.725.525-1.225.5-.55 1.2-.55t1.25.55l5.05 5q.55.6.55 1.4 0 .8-.55 1.4L40.4 46q-.55.55-1.25.55t-1.2-.55q-.55-.5-.55-1.225 0-.725.5-1.225Z"/></svg>