<svg xmlns="http://www.w3.org/2000/svg" width="48" height="48" viewBox="0 -960 960 960"><path d="M274.696-195.478q-32.478 0-55.848-23.37-23.37-23.37-23.37-55.848v-549.826q0-32.479 23.37-56.131 23.37-23.653 55.848-23.653h549.826q32.479 0 56.131 23.653 23.653 23.652 23.653 56.131v549.826q0 32.478-23.653 55.848-23.652 23.37-56.131 23.37H274.696ZM135.478-55.694q-32.479 0-56.131-23.653-23.653-23.652-23.653-56.131v-589.435q0-16.957 11.327-28.283 11.326-11.326 28.848-11.326 16.957 0 28.283 11.326t11.326 28.283v589.435h589.435q16.957 0 28.283 11.326t11.326 28.283q0 17.522-11.326 28.848-11.326 11.327-28.283 11.327H135.478Zm358.479-382.132 55.652-56.217 56.217 56.217q12.392 12.391 28.066 12.109 15.674-.283 28.065-12.109 12.392-12.392 12.392-28.066t-12.392-28.065l-56.217-55.652 56.217-56.217q12.392-12.392 12.392-28.066t-12.392-28.065q-12.391-12.392-28.065-12.392-15.674 0-28.066 12.392l-56.217 56.217-56.217-56.217q-11.826-12.392-27.5-12.392t-28.066 12.392Q426-649.566 426-633.892q0 15.674 11.826 28.066l56.217 56.217-56.217 56.217q-12.391 11.826-12.109 27.5.283 15.674 12.109 28.066Q450.218-426 465.892-426t28.065-11.826Z"/></svg>