<svg xmlns="http://www.w3.org/2000/svg" width="48" height="48" viewBox="0 -960 960 960"><path d="M764.52-95.87q0 17.52-11.32 28.85-11.33 11.33-28.29 11.33H611.48q-16.96 0-28.28-11.33-11.33-11.33-11.33-28.85 0-16.96 11.33-28.28 11.32-11.33 28.28-11.33h113.43q16.96 0 28.29 11.33 11.32 11.32 11.32 28.28Zm-252.65 0q0 17.52-11.33 28.85-11.32 11.33-28.28 11.33H369.22q-16.96 0-28.28-11.33-11.33-11.33-11.33-28.85 0-16.96 11.33-28.28 11.32-11.33 28.28-11.33h103.04q16.96 0 28.28 11.33 11.33 11.32 11.33 28.28Zm-416-668.65q16.96 0 28.28 11.32 11.33 11.33 11.33 28.29v113.43q0 16.96-11.33 28.28-11.32 11.33-28.28 11.33-17.52 0-28.85-11.33-11.33-11.32-11.33-28.28v-113.43q0-16.96 11.33-28.29 11.33-11.32 28.85-11.32Zm0 252.65q16.96 0 28.28 11.33 11.33 11.32 11.33 28.28v103.04q0 16.96-11.33 28.28-11.32 11.33-28.28 11.33-17.52 0-28.85-11.33-11.33-11.32-11.33-28.28v-103.04q0-16.96 11.33-28.28 11.33-11.33 28.85-11.33Zm39.61 456.18q-32.48 0-56.13-23.66Q55.69-103 55.69-135.48v-93.95q0-16.96 11.33-28.57t28.85-11.61q16.96 0 28.28 11.61 11.33 11.61 11.33 28.57v93.95h93.95q16.96 0 28.57 11.33 11.61 11.32 11.61 28.28 0 17.52-11.61 28.85-11.61 11.33-28.57 11.33h-93.95ZM274.7-195.48q-32.48 0-55.85-23.37-23.37-23.37-23.37-55.85v-549.82q0-32.48 23.37-56.13 23.37-23.66 55.85-23.66h549.82q32.48 0 56.13 23.66 23.66 23.65 23.66 56.13v549.82q0 32.48-23.66 55.85-23.65 23.37-56.13 23.37H274.7Zm219.26-242.35 55.65-56.21 56.22 56.21q12.39 12.4 28.06 12.11 15.68-.28 28.07-12.39 12.39-12.11 12.39-27.78 0-15.68-12.39-28.07l-56.22-55.65 56.22-56.22q12.39-12.39 12.39-28.06 0-15.68-12.39-28.07t-28.07-12.39q-15.67 0-28.06 12.39l-56.22 56.22-56.22-56.22q-11.82-12.39-27.5-12.39-15.67 0-27.78 12.39Q426-649.57 426-633.89q0 15.67 11.83 28.06l56.21 56.22-56.21 56.22q-12.4 11.82-12.11 27.5.28 15.67 12.39 27.78Q450.22-426 465.89-426q15.68 0 28.07-11.83Z"/></svg>