<svg xmlns="http://www.w3.org/2000/svg" width="48" height="48" viewBox="0 0 48 48"><path d="M13.05 42.95q-.6-.65-.6-1.425t.6-1.375L23 30.2q1.2-1.2 2.825-1.175 1.625.025 2.825 1.175l4.15 4.15L42.2 25q.6-.6 1.4-.575.8.025 1.4.625.6.55.6 1.35t-.6 1.4l-9.4 9.4q-1.2 1.15-2.825 1.15-1.625 0-2.775-1.15L25.8 33l-9.95 9.95q-.65.6-1.425.6t-1.375-.6Zm-5.8-.25q-1.6 0-2.775-1.175Q3.3 40.35 3.3 38.75V8.25q0-1.65 1.175-2.825Q5.65 4.25 7.25 4.25h29.5q1.65 0 2.825 1.175Q40.75 6.6 40.75 8.25v9.45q0 .8-.6 1.375t-1.4.575H7.25v19.1Zm0-26.8h29.5V8.25H7.25Zm0 0V8.25v7.65Z"/></svg>