<svg xmlns="http://www.w3.org/2000/svg" width="48" height="48" viewBox="0 -960 960 960"><path d="m169.39-550.869-88.608-94.739q-10.827-11.826-10.827-27.783t11.827-27.783Q93.608-713 110.065-713q16.456 0 28.283 11.826l63.651 65.652-1.434-24.13q-1.435-15.131 4.478-29.109 5.913-13.979 17.044-25.109L336.13-830.479q10.826-10.826 25.718-17.522 14.891-6.695 31.413-6.695h173.478q16.522 0 31.413 6.695 14.892 6.696 25.718 17.522L737.913-713.87q11.696 11.696 17.327 25.674 5.63 13.978 4.761 29.674l-2 23 64.217-66.217q11.826-11.826 28-11.544 16.174.283 28 12.109 11.261 11.826 11.544 27.783.283 15.957-9.978 27.783l-89.174 94.739H169.39Zm482.088 405H308.522q-30.913 0-53.783-21.587t-24.87-51.935l-22.87-296.26h546.002l-22.305 296.26q-2.565 30.348-25.435 51.935-22.87 21.587-53.783 21.587Z"/></svg>