<svg xmlns="http://www.w3.org/2000/svg" width="48" height="48" viewBox="0 96 960 960"><path d="M308.522 830.913h342.391l21.869-289.086H287.218l21.304 289.086Zm-26.966-368.304h396.922l4.435-67.348-117.102-114.174h-171.55L277.087 395.261l4.469 67.348Zm-74.557 77.74L81.347 410.392q-12.392-11.324-11.892-27.532t12.327-27.751Q94.173 343 110.347 343t28.001 11.826l61.956 63.956-5-49.869L336.13 225.521q10.826-10.826 25.916-17.522 15.09-6.695 31.215-6.695h173.478q16.125 0 31.215 6.695 15.09 6.696 25.916 17.522l140.826 143.392-5 49.869 61.956-63.956q11.827-11.826 28.001-12.109 16.174-.282 28 11.544 12.392 12.391 12.892 28.348.5 15.957-11.892 27.783L753.011 540.349H206.999Zm102.088 369.782q-31.139 0-53.854-21.259-22.714-21.258-25.364-52.263l-22.87-296.26h546.002l-22.305 296.26q-3.13 30.913-25.819 52.218-22.688 21.304-53.399 21.304H309.087ZM480 462.609Zm-.565 79.218Z"/></svg>