<svg xmlns="http://www.w3.org/2000/svg" width="48" height="48" viewBox="0 96 960 960"><path d="M162.413 848.61q-15.195 0-29.995-6.142-14.8-6.143-25.809-16.945l-87.827-89.392q-7.391-7.391-7.391-16.957 0-9.565 7.26-16.826 7.343-7.869 17.922-7.869t17.644 7.565l50.826 51.826V489.782q0-10.626 6.806-17.009 6.806-6.382 16.634-6.382 10.082 0 16.43 6.382 6.348 6.383 6.348 17.009v132.436h25.478V429.782q0-10.626 7.089-17.009 7.088-6.382 16.351-6.382 10.647 0 16.995 6.382 6.348 6.383 6.348 17.009v192.436h26.043V469.782q0-10.626 6.688-17.009 6.687-6.382 16.358-6.382 9.911 0 16.541 6.382 6.631 6.383 6.631 17.009v152.436h26.043V516q0-10.061 6.806-16.726 6.806-6.665 16.634-6.665 10.082 0 16.43 6.665 6.348 6.665 6.348 16.726v253.391q0 32.9-23.185 56.059-23.185 23.16-56.599 23.16H162.413Zm285.631-58.479V445.609q0-32.663-23.278-55.941-23.277-23.277-56.506-23.277H64.869V201.087q0-32.478 23.652-56.131 23.653-23.652 56.131-23.652h509.826q32.479 0 55.849 23.652 23.369 23.653 23.369 56.131V411l127.087-127.087q9.261-9.261 21.087-4.145t11.826 19.102v313.26q0 13.985-11.826 19.102-11.826 5.116-21.087-4.145L733.696 501v209.913q0 32.478-23.369 55.848-23.37 23.37-55.849 23.37H448.044Z"/></svg>