<svg xmlns="http://www.w3.org/2000/svg" width="48" height="48" viewBox="0 -960 960 960"><path d="M647.913-443.782q-15.43 0-25.824-10.36-10.393-10.359-10.393-25.739t10.393-25.858q10.394-10.479 25.824-10.479h247.174q15.431 0 25.824 10.36 10.394 10.359 10.394 25.739t-10.394 25.858q-10.393 10.479-25.824 10.479H647.913Zm-469.695 100-45.609 116.695q-4.565 11.696-15.326 19.391Q106.522-200 93.826-200q-24.223 0-36.981-19.174-12.758-19.174-3.498-41.261l193.696-471.043q5.566-12.696 16.504-20.609Q274.484-760 288.169-760h38.358q13.069 0 24.598 7.913 11.528 7.913 17.093 21.174l189.174 470.347q9.261 22.087-3.975 41.327Q540.182-200 516.913-200q-15.167 0-26.487-7.941-11.32-7.94-16.687-21.842l-42.913-113.999H178.218ZM203.913-414H405.13l-97.964-260.26h-4.079L203.913-414Z"/></svg>