<svg xmlns="http://www.w3.org/2000/svg" width="48" height="48" viewBox="0 -960 960 960"><path d="M185.087-105.869q-32.677 0-55.948-23.27-23.27-23.271-23.27-55.948v-589.826q0-32.91 23.27-56.347 23.271-23.436 55.948-23.436h375q16.263 0 31.002 6.695 14.738 6.696 26.129 17.522l213.261 213.261q10.826 11.391 17.522 26.129 6.695 14.739 6.695 31.002v375q0 32.677-23.436 55.948-23.437 23.27-56.347 23.27H185.087ZM306.07-294.391h348.539q13.098 0 22.005-9.361 8.908-9.361 8.908-22.62 0-13.258-8.95-22.052t-22.181-8.794H305.414q-13.121 0-22.028 8.969-8.908 8.969-8.908 22.228 0 13.259 9.31 22.444 9.311 9.186 22.282 9.186Zm-.027-152.218h348.028q13.07 0 22.261-9.36 9.19-9.361 9.19-22.511 0-13.149-9.31-22.335Q666.901-510 653.957-510H305.929q-13.07 0-22.261 9.361-9.19 9.361-9.19 22.51 0 13.15 9.31 22.335 9.311 9.185 22.255 9.185Zm.131-152.782h213.694q13.36 0 22.55-9.361 9.191-9.36 9.191-22.51 0-13.15-9.311-22.335-9.31-9.185-22.385-9.185H306.218q-13.359 0-22.55 9.36-9.19 9.361-9.19 22.511 0 13.149 9.31 22.335 9.311 9.185 22.386 9.185Z"/></svg>