<svg xmlns="http://www.w3.org/2000/svg" width="48" height="48" viewBox="0 -960 960 960"><path d="M140-60.782q-32.663 0-55.94-23.277Q60.781-107.337 60.781-140v-680q0-32.663 23.277-56.224 23.278-23.56 55.941-23.56h339.26q16.707 0 28.158 11.785 11.452 11.784 11.452 28.565 0 16.782-11.452 28.108Q495.967-820 479.26-820H140v680h470.391v-77.216q0-16.706 11.501-28.44 11.502-11.734 28.283-11.734 16.782 0 28.108 11.734t11.326 28.44V-140q0 32.663-23.277 55.94-23.278 23.278-55.941 23.278H140ZM270-250q-12.75 0-21.375-8.675-8.625-8.676-8.625-21.5 0-12.825 8.625-21.325T270-310h220q12.75 0 21.375 8.675 8.625 8.676 8.625 21.5 0 12.825-8.625 21.325T490-250H270Zm0-120q-12.75 0-21.375-8.675-8.625-8.676-8.625-21.5 0-12.825 8.625-21.325T270-430h140q12.75 0 21.375 8.675 8.625 8.676 8.625 21.5 0 12.825-8.625 21.325T410-370H270Zm338.696-.738L469.044-510.391H363.001q-16.707 0-28.158-11.451-11.452-11.451-11.452-28.158v-130.391q0-16.707 11.452-28.158Q346.294-720 363.001-720h106.043l139.652-139.652q8.696-9.261 21.588-4.024 12.891 5.237 12.891 17.98v461.001q0 13.308-12.891 18.263-12.892 4.955-21.588-4.306Zm94.479-74.479v-346.565q58.826 19.869 92.805 74 33.978 54.13 33.978 104 0 50.434-36.978 102.13-36.979 51.696-89.805 66.435Zm186.783-168.565q0-80.044-43.587-141.044-43.587-61-107.282-92.13-14.392-6.696-20.805-21.022-6.413-14.326-.848-29.412 6.131-15.828 20.739-22.306 14.609-6.478 30.566.217 89.913 42.522 145.457 124.711 55.544 82.19 55.544 180.936 0 98.745-55.544 181.267-55.544 82.522-145.457 124.479-15.957 7.261-30.566.5-14.608-6.761-20.739-22.589-5.565-14.52.848-28.846 6.413-14.327 20.805-21.588 63.695-31.13 107.282-92.13 43.587-61 43.587-141.043Z"/></svg>