<svg xmlns="http://www.w3.org/2000/svg" width="48" height="48" viewBox="0 96 960 960"><path d="M343.304 937.348q-10.695-10.696-10.695-26.022 0-15.327 10.695-26.022L718.13 510.478h-36.087q-14.826 0-25.804-10.196-10.979-10.195-10.979-25.022 0-14.261 10.979-25.239 10.978-10.978 25.804-10.978H802q15.957 0 28.283 11.543 12.326 11.544 12.326 27.501v121.087q0 18.261-10.478 27.239-10.479 8.978-26.74 8.978-15.261 0-25.456-10.478-10.196-10.478-10.196-25.739v-36.652L394.913 937.348q-10.695 10.695-25.804 10.695-15.109 0-25.805-10.695Zm2.131-260.523q-14.957 14.391-31.414 11.326-16.456-3.065-25.152-22.152L131.217 320.956q-6.696-14.261-3.065-33.652 3.63-19.392 15.326-31.088 11.696-11.695 29.805-14.543 18.108-2.848 32.935 3.848l344.347 157.521q19.087 9.261 21.652 26.283 2.565 17.022-12.391 31.979-6.696 6.695-17.305 8.261-10.609 1.565-19.435-2.566l-74.869-34.217-132.999 132 36.347 75.434q3.565 8.261 2.065 19.087t-8.195 17.522Zm-58-163.826 110.13-109.565-205.782-97.652-2.565 3 98.217 204.217Z"/></svg>