<svg xmlns="http://www.w3.org/2000/svg" width="48" height="48" viewBox="0 -960 960 960"><path d="M800-92.87H160q-16.96 0-28.28-11.32-11.33-11.33-11.33-28.29 0-16.95 11.33-28.56 11.32-11.61 28.28-11.61h640q16.96 0 28.28 11.61 11.33 11.61 11.33 28.56 0 16.96-11.33 28.29Q816.96-92.87 800-92.87ZM440.39-527.82l-37.74 36.73q-11.82 10.83-26.93 11.05-15.11.21-27.5-12.18-12.39-11.82-12.39-27.78t12.39-28.35l103.43-103.43q11.83-11.83 28.35-11.83 16.52 0 28.35 11.83l104 104q11.82 11.82 11.54 28.06-.28 16.24-13.24 29.2-11.82 11.26-26.65 10.76-14.83-.5-26.65-10.76l-37.74-37.3V-320q0 16.96-11.33 28.28-11.32 11.33-28.28 11.33t-28.28-11.33q-11.33-11.32-11.33-28.28v-207.82ZM800-787.91H160q-16.96 0-28.28-11.33-11.33-11.33-11.33-28.28 0-16.96 11.33-28.29 11.32-11.32 28.28-11.32h640q16.96 0 28.28 11.32 11.33 11.33 11.33 28.29 0 16.95-11.33 28.28-11.32 11.33-28.28 11.33Z"/></svg>