<svg xmlns="http://www.w3.org/2000/svg" width="48" height="48" viewBox="0 -960 960 960"><path d="M140-60.782q-33.229 0-56.224-22.995Q60.782-106.77 60.782-140v-680q0-33.229 22.995-56.506Q106.77-899.784 140-899.784h259.26q16.707 0 28.158 11.785 11.452 11.784 11.452 28.565 0 16.782-11.452 28.108Q415.967-820 399.26-820H140v680h470.391v-70.391q0-16.707 11.501-28.158Q633.394-250 650.175-250q16.782 0 28.108 11.451t11.326 28.158V-140q0 33.229-23.277 56.224-23.278 22.994-55.941 22.994H140ZM270-250q-12.75 0-21.375-8.675-8.625-8.676-8.625-21.5 0-12.825 8.625-21.325T270-310h220q12.75 0 21.375 8.675 8.625 8.676 8.625 21.5 0 12.825-8.625 21.325T490-250H270Zm0-120q-12.75 0-21.375-8.675-8.625-8.676-8.625-21.5 0-12.825 8.625-21.325T270-430h140q12.75 0 21.375 8.675 8.625 8.676 8.625 21.5 0 12.825-8.625 21.325T410-370H270Zm84.522-140.391q-13.065 0-22.098-9.032-9.033-9.033-9.033-22.098V-688.87q0-13.065 9.033-22.097Q341.457-720 354.522-720h114.522l117.479-117.479q5-5.565 11.065-7.848 6.065-2.282 12.196-2.282 13.88 0 23.636 9.348 9.755 9.348 9.755 23.478v399.175q0 14.131-9.755 23.479-9.756 9.347-23.636 9.347-6.566 0-12.414-2.282-5.847-2.283-10.847-7.848L469.044-510.391H354.522Zm475.436-103.391q0 46-22 85.5t-61.13 63.934q-14.696 8.131-29.175 1.935-14.478-6.195-14.478-21.457v-267.26q0-15.261 14.196-21.674t28.891 2.717q40.566 24.87 62.131 66.87 21.565 42 21.565 89.435Zm60 0q0-75.435-41.5-137.805-41.5-62.369-109.369-95.369-14.392-6.696-20.805-21.022-6.413-14.326-.848-28.928 6.131-15.312 21.239-22.29 15.109-6.978 30.066-.283 90.522 42.827 145.761 124.438 55.24 81.612 55.24 181.262 0 99.649-55.24 181.541-55.239 81.891-145.761 124.152-14.957 7.261-30.066 0-15.108-7.261-21.239-22.572-5.565-14.037.848-28.363 6.413-14.327 20.805-21.588 67.869-33 109.369-95.369 41.5-62.37 41.5-137.804Z"/></svg>