<svg xmlns="http://www.w3.org/2000/svg" width="48" height="48" viewBox="0 0 48 48"><path d="M34 16h-4.5q-.85 0-1.425-.575Q27.5 14.85 27.5 14q0-.85.575-1.425Q28.65 12 29.5 12H34V7.5q0-.85.575-1.425Q35.15 5.5 36 5.5q.85 0 1.425.575Q38 6.65 38 7.5V12h4.5q.85 0 1.425.575.575.575.575 1.425 0 .85-.575 1.425Q43.35 16 42.5 16H38v4.5q0 .85-.575 1.425-.575.575-1.425.575-.85 0-1.425-.575Q34 21.35 34 20.5ZM16 42.7q-4.1 0-6.95-2.85Q6.2 37 6.2 32.9q0-2.55 1.175-4.75t3.325-3.6V10.6q0-2.25 1.525-3.8Q13.75 5.25 16 5.25q2.2 0 3.775 1.55 1.575 1.55 1.575 3.8v13.95q2.1 1.4 3.3 3.6 1.2 2.2 1.2 4.75 0 4.1-2.875 6.95Q20.1 42.7 16 42.7Zm-1.35-24.1h2.7v-8q0-.6-.4-.975T16 9.25q-.55 0-.95.4-.4.4-.4.95Z"/></svg>