<svg xmlns="http://www.w3.org/2000/svg" width="48" height="48" viewBox="0 -960 960 960"><path d="m529.74-61.305 41.695-46.434-41.609-21.304q-15.13-7.566-18.696-22.979-3.565-15.413 7.566-28.108l76.739-87.609q5.565-5.565 12.195-8.913Q614.261-280 622.957-280q23.956 0 33.435 21.957 9.478 21.956-6.348 38.783l-41.695 46.999 41.043 21.304q15.696 7.566 18.978 22.979 3.283 15.413-7.282 27.543l-76.739 88.174q-5.565 5.565-12.479 8.913Q564.957 0 556.827 0q-24.522 0-33.718-21.957-9.196-21.956 6.631-39.348Zm-259.784 0 41.695-46.434-41.043-21.304q-15.696-7.566-18.979-22.979-3.282-15.413 7.848-28.108l76.174-87.609q5.565-5.565 12.478-8.913Q355.043-280 363.173-280q24.522 0 33.718 21.957 9.196 21.956-6.631 38.783l-41.13 46.999 41.044 21.304q15.13 7.566 18.696 22.979 3.565 15.413-7.566 27.543L325.13-12.261Q319-6.696 312.37-3.348 305.739 0 297.043 0q-23.956 0-33.435-21.957-9.478-21.956 6.348-39.348ZM290-336.609q-90.957 0-155.283-64.608-64.326-64.609-64.326-155.001 0-81.826 57.348-146.087t143.043-71.957q33.696-56 87.892-89.065T480-896.392q92.13 0 155.609 57.783 63.478 57.782 80.304 143.347 80.696 6.261 127.196 58.022 46.5 51.761 46.5 121.022 0 73.957-52.326 126.783Q784.957-336.609 710-336.609H290Z"/></svg>