<svg xmlns="http://www.w3.org/2000/svg" width="48" height="48" viewBox="0 -960 960 960"><path d="M225.09-105.87q-32.51 0-55.87-23.35-23.35-23.36-23.35-55.87v-589.82q0-32.74 23.35-56.26 23.36-23.53 55.87-23.53h509.82q32.74 0 56.26 23.53 23.53 23.52 23.53 56.26v589.82q0 32.51-23.53 55.87-23.52 23.35-56.26 23.35H225.09Zm-.57-78.65h510.96v-590.96H224.52v590.96ZM444.35-426l-37.74-37.74q-9.85-10.69-23.79-10.41-13.93.28-24.26 10.8-10.86 11.02-10.86 25.21 0 14.18 10.69 24.88L451.65-320q12.24 11.83 28.56 11.83 16.31 0 28.14-11.83l93.26-93.26q10.69-10.55 10.69-25.04 0-14.49-11.43-26.16-10.75-9.97-24.09-9.97-13.35 0-22.82 10.13L515.65-426v-173.83q0-14.85-10.48-25.25t-25.45-10.4q-14.98 0-25.18 10.4-10.19 10.4-10.19 25.25V-426Zm291.13 241.48H224.52h510.96Z"/></svg>