<svg xmlns="http://www.w3.org/2000/svg" width="48" height="48" viewBox="0 -960 960 960"><path d="M401.111-262.912q14.463 0 23.981-9.36 9.517-9.36 9.517-23.893v-266.922q0-14.191-9.6-23.791t-23.791-9.6h-46.044q-14.191 0-23.791 9.65-9.6 9.651-9.6 23.917 0 13.149 8.625 22.335 8.625 9.185 21.375 10.316h16.043v233.956q0 14.192 9.411 23.792 9.41 9.6 23.874 9.6Zm128.976 0h61.131q25.434 0 42.717-17 17.283-17 17.283-43v-213.789q0-25.212-17.283-42.494-17.283-17.283-42.717-17.283h-61.131q-26 0-43 17.283-17 17.282-17 42.494v213.789q0 26 17 43t43 17Zm6.783-66.783v-200h47.565v200H536.87Zm-56.967 194.913q123.401 0 209.206-85.425 85.804-85.424 85.804-208.826 0-123.401-85.707-209.205-85.708-85.805-209.109-85.805-123.401 0-209.206 85.708-85.804 85.707-85.804 209.108 0 123.401 85.707 208.923 85.708 85.522 209.109 85.522ZM480-428.13ZM383.287-860q-15.858 0-26.073-10.654t-10.215-26.304q0-15.651 10.215-25.847 10.215-10.196 26.073-10.196h193.426q15.858 0 26.073 10.266 10.215 10.265 10.215 26.127 0 15.651-10.215 26.13Q592.571-860 576.713-860H383.287Zm96.581 805.001q-77.523 0-145.535-29.539-68.011-29.539-118.89-80.326-50.878-50.787-80.226-118.75-29.348-67.962-29.348-145.435 0-77.472 29.399-145.49 29.399-68.018 80.277-119t118.889-80.635q68.01-29.652 145.566-29.652 68.13 0 128.544 22.5 60.413 22.5 106.978 63.065l30.565-30.565q11.261-11.261 25.805-11.261 14.543 0 25.804 11.543 11.261 11.544 11.261 26.088 0 14.543-11.261 25.804l-30 30q36.566 41.131 61.783 99.261 25.217 58.131 25.217 138.261 0 77.593-29.575 145.661-29.575 68.069-80.534 118.777-50.959 50.707-119.077 80.2-68.119 29.493-145.642 29.493Z"/></svg>