<svg xmlns="http://www.w3.org/2000/svg" width="48" height="48" viewBox="0 -960 960 960"><path d="M240-403.52h313v-60H240v60Zm0-130h480v-60H240v60Zm0-130h480v-60H240v60Zm-94.91 432.74q-33.51 0-56.37-23.15Q65.87-277.09 65.87-310v-504.91q0-33.74 22.85-56.76 22.86-23.03 56.37-23.03h669.82q33.74 0 56.76 23.03 23.03 23.02 23.03 56.76V-310q0 32.91-23.03 56.07-23.02 23.15-56.76 23.15H590.25l-77.34 115.61q-6.13 8.69-14.39 13.61-8.26 4.91-18.47 4.91-10.22 0-18.53-4.91-8.3-4.92-14.43-13.61l-77.31-115.61H145.09Z"/></svg>