<svg xmlns="http://www.w3.org/2000/svg" width="48" height="48" viewBox="0 -960 960 960"><path d="M307.174-97.39q-16.707 0-28.158-11.502-11.451-11.501-11.451-28.848 0-16.781 11.451-28.108 11.451-11.326 28.158-11.326h345.652q16.707 0 28.441 11.502 11.734 11.502 11.734 28.283 0 17.346-11.734 28.673-11.734 11.326-28.441 11.326H307.174Zm0-139.784q-16.707 0-28.158-11.451t-11.451-28.158v-351.13q0-12.577 3.847-24.686 3.848-12.108 11.544-23.185l126.943-168.331q6.753-8.799 16.166-13.647 9.413-4.848 19.978-4.848h67.914q10.565 0 19.978 4.848 9.413 4.848 15.978 13.413l127.131 168.565q7.696 11.077 11.826 23.185 4.131 12.109 4.131 24.686v351.13q0 16.707-11.734 28.158t-28.441 11.451H307.174Zm39.609-79.218h266.434v-83.868L480-533.477 346.783-400.26v83.868Zm0-189.782 95.869-95.869V-755.13l-95.869 127.217v121.739Zm266.434 0v-121.739L517.913-755.13v153.087l95.304 95.869Zm0 189.782H346.783h266.434Z"/></svg>