<svg xmlns="http://www.w3.org/2000/svg" width="48" height="48" viewBox="0 -960 960 960"><path d="M431.999-65.869q-36.564 0-69.359-14.949-32.795-14.95-54.816-43.356L110.781-376.217q-10.392-14.087-9.205-30.791 1.188-16.704 14.162-27.993l5.695-5.13q18.463-16.287 43.232-19.143 24.769-2.857 47.291 8.839l87.13 45.086v-346.912q0-15.506 10.986-26.427t26.607-10.921q15.62 0 26.362 10.921 10.741 10.921 10.741 26.427v405.391q0 23.218-19.304 34.261-19.305 11.044-39.392.218L213.39-365.957l157.131 197.435q11.148 13.47 26.892 20.431t33.456 6.961h225.914q34.368 0 58.51-23.731 24.142-23.731 24.142-58.544v-155.681q0-31.152-21.603-52.359-21.602-21.207-52.528-21.207H491.13q-15.505 0-26.426-10.936-10.922-10.937-10.922-26.87 0-15.933 10.922-26.694 10.921-10.761 26.426-10.761h174.174q61.823 0 105.607 43.62 43.785 43.62 43.785 105.207v155.869q0 65.826-46.043 111.587-46.044 45.761-111.616 45.761H431.999Zm44.696-268.653Zm-13.016-305.869q-15.942 0-26.659-10.96-10.716-10.96-10.716-26.523 0-4.191 5.13-18.822 7-12 11-26t4-29.477q0-45.523-32.118-77.523-32.117-32-78-32-45.882 0-77.882 32.084-32 32.083-32 77.916 0 15 4 29t11 26q2.565 4.131 3.848 8.514 1.283 4.383 1.283 10.266 0 15.753-11.101 26.639t-26.973 10.886q-11.101 0-20.079-5.13-8.979-5.131-13.711-14.665-11.398-21.423-17.463-44.352-6.066-22.929-6.066-47.693 0-76.649 54.166-130.687 54.165-54.039 131.014-54.039 76.85 0 131.097 54.015 54.247 54.016 54.247 131.11 0 25.079-6.269 47.783T498-660.348q-4.565 9.696-13.87 14.827-9.304 5.13-20.451 5.13Z"/></svg>