<svg xmlns="http://www.w3.org/2000/svg" width="48" height="48" viewBox="0 -960 960 960"><path d="M413.43-64.87q-28.82 0-53.8-11.35-24.98-11.34-42.11-33.61L112.26-370.22Q103-382.04 104-396.65t11.83-26q18.82-18.26 44.5-20.83 25.67-2.56 48.5 10.13l83.43 51.65v-249.56q0-15.39 11.04-27.22 11.05-11.82 28-11.82 15.96 0 27.79 11.82 11.82 11.83 11.82 27.22V-478h71.52v-225.83q0-15.95 11.33-27.78 11.33-11.82 28.28-11.82 15.96 0 27.79 11.82 11.82 11.83 11.82 27.78V-478h166.61q50.96 0 87.07 35.89 36.11 35.89 36.11 86.85v126.65q0 68.52-48.61 116.13T645.7-64.87H413.43Zm10.48-793.87q-45 0-85.28 16.94-40.28 16.93-70.28 46.37-26.74 25.6-45.46 65.15-18.72 39.54-18.98 77.02-1.26 16.96-11.02 30.35t-25.15 15.39q-16.96 3.13-30.07-7.42-13.11-10.54-12.97-27.5-1.31-59.26 21.19-113.84 22.5-54.59 65.33-95.72 40.82-40.26 95.5-63.11 54.67-22.85 117.19-22.85 62.53 0 116.7 22.85t95 63.11q43.13 42 64.76 94.5Q722-705 722.26-646q.57 16.96-11.76 27.78-12.32 10.83-29.28 8.83-15.96-2.57-26.78-14.68-10.83-12.1-12.53-29.63-.69-41.04-16.13-77.3-15.43-36.26-45.17-65.43-30.57-29.44-70.85-45.87-40.28-16.44-85.85-16.44Z"/></svg>