<svg xmlns="http://www.w3.org/2000/svg" width="48" height="48" viewBox="0 -960 960 960"><path d="M432-65.87q-36.57 0-69.36-14.95t-54.82-43.35L110.78-376.22q-10.39-14.08-9.2-30.79 1.18-16.7 14.16-27.99l5.69-5.13q18.47-16.29 43.23-19.14 24.77-2.86 47.3 8.83l87.13 45.09v-346.91q0-15.51 10.98-26.43 10.99-10.92 26.61-10.92t26.36 10.92q10.74 10.92 10.74 26.43v405.39q0 23.22-19.3 34.26-19.31 11.04-39.39.22l-101.7-53.57 157.13 197.44q11.15 13.47 26.89 20.43 15.75 6.96 33.46 6.96h225.91q34.37 0 58.51-23.73t24.14-58.55v-155.68q0-31.15-21.6-52.36-21.6-21.2-52.53-21.2H491.13q-15.51 0-26.43-10.94-10.92-10.93-10.92-26.87 0-15.93 10.92-26.69 10.92-10.76 26.43-10.76H665.3q61.83 0 105.61 43.62 43.79 43.62 43.79 105.2v155.87q0 65.83-46.05 111.59-46.04 45.76-111.61 45.76H432Zm44.7-268.65ZM336.6-966.7q90.14 0 152.99 62.89 62.85 62.89 62.85 152.74 0 21.28-5.07 42.66-5.07 21.37-13.63 42.43-3.57 8.33-12.76 12.18-9.2 3.84-18.61-.72-9.41-4.57-12.2-15.04-2.78-10.48 1.22-20.18 6.57-15.46 9.57-30.71 3-15.24 3-30.96 0-69.03-48.97-117.92t-118.41-48.89q-69.43 0-117.98 48.93-48.56 48.93-48.56 118.09 0 16.03 3.28 31.68 3.29 15.65 8.29 30.69 4.56 9.7 1.17 19.75-3.39 10.05-12.72 14.56-8.84 4.56-18.43.94-9.59-3.63-12.37-11.64-8.65-20.34-13.17-41.54-4.53-21.2-4.53-44.5 0-89.77 62.45-152.6 62.45-62.84 152.59-62.84Zm.46 88.48q52.62 0 89.76 37.18 37.14 37.18 37.14 89.78 0 8.56-1.22 17.69-1.22 9.14-3.78 17.14-3.16 10.4-12.26 15.67-9.1 5.28-19.4 1.72-10.26-3-14.82-12.2-4.57-9.19-.44-18.89 1-4.7 2.44-21.13 0-32.8-22.88-55.64-22.87-22.84-55.71-22.84-32.85 0-55.61 22.99-22.76 22.98-22.76 55.66 0 6.02 1 12.21 1 6.18 3 11.75 2.57 8.13-2.35 16.06-4.91 7.94-13.04 11.03-9.7 2.56-17.61-.79-7.91-3.34-11.1-12.36-4.38-10.24-5.88-20.01-1.5-9.78-1.5-18.29 1-51.43 37.91-89.08 36.9-37.65 89.11-37.65Z"/></svg>