<svg xmlns="http://www.w3.org/2000/svg" width="48" height="48" viewBox="0 96 960 960"><path d="M479.87 1002q-87.957 0-165.743-33.424-77.786-33.426-135.531-91.172-57.746-57.745-91.172-135.661Q54 663.826 54 575.87q0-87.957 33.425-165.743 33.426-77.786 91.172-135.531 57.745-57.746 135.62-91.172Q392.091 149.999 480 149.999h7.435q11.939 0 20.361 8.582t8.422 20.766v311.428q24.826 10.616 40.804 33.442 15.979 22.826 15.979 51.613 0 38.433-27.38 65.802-27.379 27.369-65.826 27.369-38.447 0-65.622-27.369-27.174-27.369-27.174-65.802 0-28.787 15.979-51.613 15.978-22.826 40.804-33.522v-97.217Q378.217 405.609 336 456.239q-42.218 50.631-42.218 119.502 0 78.191 54.121 132.334t132.022 54.143q77.901 0 132.097-54.143Q666.218 653.932 666.218 576q0-33.13-9.718-61.152-9.717-28.022-27.587-50.848-10.261-14.546-10.261-29.966 0-15.419 11.261-26.469 11.261-10.696 25.74-9.914 14.478.783 23.257 10.527 27.557 33.488 44.215 75.894 16.659 42.406 16.659 91.928 0 108.573-75.586 183.896-75.586 75.322-184.132 75.322-108.545 0-183.915-75.322-75.369-75.323-75.369-183.882 0-99.621 63.674-172.014 63.674-72.392 159.326-85.653V225.13q-134.391 13.261-225.587 113.075-91.196 99.814-91.196 237.659 0 147.223 103.097 250.18 103.096 102.957 250.043 102.957 146.948 0 249.905-103.056T833.001 576q0-66.477-23.105-126.326-23.104-59.85-65.304-106.462-9.548-12.386-9.548-27.713 0-15.326 10.696-26.022 10.695-10.695 25.739-10.195t25.196 11.301q50.935 57.286 80.131 130.271Q906.001 493.839 906.001 576q0 87.909-33.425 165.784-33.426 77.875-91.172 135.62-57.745 57.746-135.661 91.172Q567.826 1002 479.87 1002Z"/></svg>