<svg xmlns="http://www.w3.org/2000/svg" width="48" height="48" viewBox="0 -960 960 960"><path d="M480-230.609q25.96 0 43.676-17.715Q541.391-266.04 541.391-292t-17.715-43.676Q505.96-353.391 480-353.391t-43.676 17.715Q418.609-317.96 418.609-292t17.715 43.676Q454.04-230.609 480-230.609Zm0-188q25.96 0 43.676-17.715Q541.391-454.04 541.391-480t-17.715-43.676Q505.96-541.391 480-541.391t-43.676 17.715Q418.609-505.96 418.609-480t17.715 43.676Q454.04-418.609 480-418.609Zm0-188q25.96 0 43.676-17.715Q541.391-642.04 541.391-668t-17.715-43.676Q505.96-729.391 480-729.391t-43.676 17.715Q418.609-693.96 418.609-668t17.715 43.676Q454.04-606.609 480-606.609ZM255.782-353.218v-69.26q-41.566-9.131-70.615-37.133-29.049-28.003-39.4-64.399-2.551-14.512 7.065-25.36 9.616-10.848 24.776-10.848h78.174v-66.26q-41.566-9.131-70.615-36.633-29.049-27.503-39.4-63.899-2.551-14.512 7.065-25.36 9.616-10.848 24.776-10.848h78.174v-30.783q0-28.826 18.925-47.304 18.925-18.479 47.292-18.479h316.002q28.826 0 47.804 18.479 18.979 18.478 18.979 47.304v30.783h77.608q15.16 0 24.776 10.848t7.631 25.36q-10.917 36.396-39.966 63.899-29.049 27.502-70.049 36.633v66.26h77.608q15.16 0 24.776 10.848t7.631 25.36q-10.917 36.396-39.966 64.399-29.049 28.002-70.049 37.133v69.26h76.608q15.16 0 25.276 10.848t8.131 25.36q-10.917 36.396-39.966 63.899-29.049 27.502-70.049 36.633v49.479q0 28.367-18.979 47.292-18.978 18.925-47.804 18.925H321.999q-28.367 0-47.292-18.925t-18.925-47.292v-48.914q-41.566-9.696-70.608-36.733-29.043-27.037-39.392-63.18-2.566-15.223 7.809-26.307 10.375-11.085 25.582-11.085h76.609Z"/></svg>