<svg xmlns="http://www.w3.org/2000/svg" width="48" height="48" viewBox="0 -960 960 960"><path d="M111.651-77.13 216.39-616.957l-87.26 39.043V-479q0 16.038-10.09 26.128t-26.128 10.09q-15.826 0-26.305-10.09Q56.13-462.962 56.13-479v-121.739q0-11.638 6.602-22.003 6.601-10.366 18.181-15.606l171.696-71.87q29.261-12.565 62.743-6.365 33.482 6.201 50.605 34.192l43.131 66q22.737 35.55 57.607 62.514 34.871 26.964 80.175 34.964 14.406 3.507 24.594 14.209 10.189 10.702 10.189 25.616 0 15.914-11.761 26.11t-26.587 7.63q-49.717-6.153-95.098-32.598-45.38-26.445-81.38-77.053l-35.609 137.738 75.043 70.609q6.131 6.13 9.761 13.928 3.631 7.798 3.631 15.42V-70q0 15.642-10.45 25.93T382.87-33.782q-15.643 0-25.93-10.288Q346.651-54.358 346.651-70v-206.739l-94.391-88.826-68.173 303.26q-3.131 12.697-13.007 20.61t-23.211 7.913q-17.392 0-28.587-12.979-11.196-12.978-7.631-30.37Zm254.565-683.088q-33.131 0-56.304-23.569-23.174-23.568-23.174-56.474 0-33.131 23.174-56.327 23.173-23.196 56.304-23.196 33.132 0 56.327 23.263 23.196 23.263 23.196 56.52 0 33.024-23.309 56.404-23.309 23.379-56.214 23.379Zm431.785 654.305H605.349q-12.225 0-20.026-7.946-7.8-7.946-7.8-20.393 0-12.202 7.961-20.04 7.96-7.838 20.43-7.838h192.087l-19.696-19.696q-8.565-8.822-8.283-19.607.283-10.785 8.929-19.35 8.646-8.565 19.761-8.565 11.115 0 19.68 8.565l58.696 58.696q11.826 12.083 11.826 28.194 0 16.111-11.826 27.937l-58.575 58.78q-9.009 9.046-19.543 8.264-10.535-.783-19.1-9.348-8.565-8.566-8.565-19.725 0-11.16 8.706-20.405l17.99-17.523ZM683.262-303.392l18.99 18.989q8.141 8.964 8.141 19.248 0 10.285-8 18.85-8.767 9.131-19.633 9.131-10.865 0-19.889-9.131l-58.696-57.13q-11.826-12.084-11.826-28.194 0-16.111 11.826-27.938l58.696-58.695q8.565-8.566 19.761-8.066t19.761 9.146q8 9.058 8 19.467 0 10.409-8.141 19.116l-18.99 18.424h192.087q12.47 0 20.43 8.281 7.961 8.281 7.961 20.393t-7.961 20.11q-7.96 7.999-20.43 7.999H683.262Z"/></svg>