<svg xmlns="http://www.w3.org/2000/svg" width="48" height="48" viewBox="0 96 960 960"><path d="M741.26 616.609H150q-16.957 0-28.283-11.326T110.391 577q0-16.957 11.326-28.283T150 537.391h592.26l-75.826-75.826q-10.826-11.391-11.109-27.065-.282-15.674 11.544-27.501 12.391-11.826 28.631-11.826 16.239 0 28.065 11.826l142.218 142.218q6.13 6.131 8.978 13.109T877.609 577q0 7.696-2.848 14.674t-8.978 13.109L723.565 747.001q-12.826 12.826-28.283 12.608-15.456-.217-27.848-12.608Q655.608 735.74 655.608 719q0-16.739 11.391-28.13l74.261-74.261Z"/></svg>