<svg xmlns="http://www.w3.org/2000/svg" width="48" height="48" viewBox="0 -960 960 960"><path d="M270.391-185.478v-332.913q0-32.663 23.277-55.941 23.278-23.277 55.941-23.277h353.216l-61.652-62.217q-12.391-11.826-12.391-27.501 0-15.674 12.391-28.065 11.826-11.826 27.783-11.826t27.783 11.826l129.609 129.044q11.826 11.826 11.826 28.348t-11.826 28.348L696.739-400.608q-11.826 12.392-27.5 12.109-15.674-.283-28.066-12.674-11.826-11.826-11.826-27.783t11.826-27.783l61.652-61.652H349.609v332.913q0 16.707-11.501 28.158-11.502 11.451-28.283 11.451-16.782 0-28.108-11.451t-11.326-28.158Z"/></svg>