<svg xmlns="http://www.w3.org/2000/svg" width="48" height="48" viewBox="0 96 960 960"><path d="M362.261 956.914q-16.707 0-28.158-11.451t-11.451-28.723v-46.609H145.087q-32.677 0-55.948-23.27-23.27-23.271-23.27-55.948V281.087q0-32.91 23.27-56.347 23.271-23.436 55.948-23.436h669.826q32.91 0 56.347 23.436 23.436 23.437 23.436 56.347v509.826q0 32.677-23.436 55.948-23.437 23.27-56.347 23.27h-177v46.609q0 17.272-11.769 28.723t-28.405 11.451H362.261ZM145.087 790.913h669.826V281.087H145.087v509.826Zm0 0V281.087v509.826Z"/></svg>