<svg xmlns="http://www.w3.org/2000/svg" width="48" height="48" viewBox="0 96 960 960"><path d="M486.523 547.565 547.407 382h4.202l61.087 165.565H486.523ZM274.696 860.522q-32.507 0-55.862-23.356-23.356-23.355-23.356-55.862V231.478q0-32.74 23.356-56.262 23.355-23.522 55.862-23.522h549.826q32.74 0 56.262 23.522t23.522 56.262v549.826q0 32.507-23.522 55.862-23.522 23.356-56.262 23.356H274.696Zm0-79.218h549.826V231.478H274.696v549.826ZM135.478 1000.31q-32.74 0-56.262-23.526-23.522-23.522-23.522-56.262V331.087q0-16.707 11.502-28.158t28.566-11.451q17.064 0 28.39 11.451t11.326 28.158v589.435h589.435q16.707 0 28.158 11.502 11.451 11.501 11.451 28.565t-11.451 28.39q-11.451 11.331-28.158 11.331H135.478Zm139.218-768.832v549.826-549.826Zm145.726 452.087q7.362 0 13.787-4.508 6.426-4.508 8.836-11.884l30.043-78.521h151.347l30.043 77.956q2.565 7.696 9.102 12.326 6.537 4.631 15.173 4.631 13.022 0 20.461-10.979 7.438-10.978 2.873-23.239L583.696 350.478q-4.467-10.168-13.69-16.28-9.223-6.111-20.658-6.111t-20.396 6.111q-8.962 6.112-13.43 16.28L396.566 650.477q-4.565 12.261 3.233 22.674 7.798 10.414 20.623 10.414Z"/></svg>