<svg xmlns="http://www.w3.org/2000/svg" width="48" height="48" viewBox="0 -960 960 960"><path d="m519.609-276.652 117-332.608-54.435 10.304-62.565-35.478v357.782Zm-79.218 0v-357.217l-62.565 35.913-54.87-12.304 117.435 333.608ZM480-38.737q-18.044 0-32.262-9.24-14.217-9.239-20.478-27.152L225.216-649.74q-8.261-23.218 8.261-40.457t39.739-10.978l86.653 22.956 80.522-44.304v-124.479q0-43.478 30.457-73.218 30.456-29.739 75.37-29.739 45.913 0 76.435 29.739 30.522 29.74 30.522 73.218 0 17.522-11.609 28.849-11.609 11.326-28.565 11.326-16.957 0-28.283-11.326-11.327-11.327-11.327-28.849 0-11.304-7.652-18.456-7.652-7.152-19.521-7.152-10.305 0-18.457 7.869-8.152 7.87-8.152 17.739v123.914l81.087 44.869 86.088-22.956q23.217-6.261 39.739 11.261t8.827 40.174L532.74-75.564q-6.261 18.913-20.478 27.87-14.218 8.957-32.262 8.957Z"/></svg>