<svg xmlns="http://www.w3.org/2000/svg" width="48" height="48" viewBox="0 -960 960 960"><path d="M154.133-73.782q-50.459 0-85.405-34.813t-34.946-85.272q0-50.459 34.813-85.405t85.272-34.946q50.459 0 85.405 34.813t34.946 85.272q0 50.459-34.813 85.405t-85.272 34.946ZM154.035-140Q177-140 192.5-155.535q15.5-15.535 15.5-38.5T192.465-232.5q-15.535-15.5-38.5-15.5T115.5-232.465q-15.5 15.535-15.5 38.5t15.535 38.465q15.535 15.5 38.5 15.5Zm194.053 66.218q-18.684 0-26.929-15.11-8.246-15.112-1.115-33.326 7.869-16.869 11.022-34.891 3.152-18.021 3.152-36.891 0-73.34-50.33-125.649-50.33-52.308-123.67-54.569-8.97-.565-18.885-.159-9.914.406-19.246 2.029-18.522 2.565-32.413-6.979-13.892-9.543-13.892-26.5V-520.26q0-31.745 22.606-54.351 22.607-22.607 54.352-22.607h48.042V-744q0-75.983 52.889-129.1 52.888-53.118 129.9-53.118 55.69 0 102.603 30.131 46.913 30.13 68.044 82.261l276.304 667.608H890q15.393 0 25.805 10.429 10.413 10.429 10.413 25.845 0 15.417-10.413 25.79Q905.393-73.783 890-73.783H684q-15.393 0-25.805-10.43-10.413-10.428-10.413-25.844 0-15.417 10.413-25.789 10.412-10.373 25.805-10.373h70.391l-271.609-637.52q-13.643-30.251-40.319-50.147-26.676-19.896-59.297-19.896-45.752 0-77.85 32.195-32.098 32.196-32.098 77.587v146.782h69.946q65.86 0 111.457 45.597Q500.218-506.024 500.218-440v290.391q0 31.278-22.274 53.553-22.275 22.274-53.553 22.274h-76.303Z"/></svg>