<svg xmlns="http://www.w3.org/2000/svg" width="48" height="48" viewBox="0 -960 960 960"><path d="M76.971-826.304q9.843-10.131 23.501-10.131 13.658 0 23.798 10.14L850.565-99l-47.522 47.522-135.521-135.521H311.609V-300h242.347L75.739-778.782q-10.13-10.131-9.63-23.761.5-13.631 10.862-23.761ZM275.391-297v107.001q-39-8-74.5-12.5t-75.5-4.5h-25q-16.038 0-26.128-10.322t-10.09-26.704q0-15.584 9.065-28.04 9.066-12.457 27.153-7.935h25q40 0 75.5-4.5t74.5-12.5ZM734-300h102.658q24.067 0 40.205 16.102 16.138 16.101 16.138 40.116 0 21.711-13.566 37.116-13.565 15.406-34.13 17.971L734-300Zm-320.298 33.391q-9.615 0-16.463 6.873-6.848 6.872-6.848 16.034 0 9.615 6.767 16.463 6.767 6.848 16.261 6.848t16.342-6.767q6.848-6.767 6.848-16.261t-6.873-16.342q-6.872-6.848-16.034-6.848ZM580-767.435q12.47 0 20.431 8.117 7.96 8.117 7.96 19.978t-7.96 19.992q-7.961 8.13-20.431 8.13-35 0-56 21.848t-21 56.848q0 35 21 60.152t56 25.152h71.565q57.318 0 98.485 38.777 41.168 38.776 41.168 95.441v68H735v-55.561q0-42.237-24.5-66.055-24.5-23.819-59.5-23.819h-69.87q-9.565 0-23.065-1.717-13.5-1.718-23.935-8.283l-74.348-73.732q-8-16-10.5-32.525-2.5-16.526-2.5-27.526 0-56.598 38.12-94.908 38.12-38.309 95.098-38.309Zm81.218-125.566q57.391 0 95.587 40.975 38.196 40.974 38.196 97.808 0 33.261-12.848 59.392-12.848 26.13-35.544 42 66.131 19.043 106.261 79.652 40.131 60.609 40.131 127.85V-345h-56.783v-100q0-74-49.5-122.5t-125.5-48.5q-12.225 0-20.026-7.946t-7.801-20.393q0-12.202 7.801-20.04 7.801-7.839 20.026-7.839 31 0 54-23.282 23-23.283 23-58.718 0-34-22-58t-55-24q-12.47 0-20.431-7.946t-7.961-20.393q0-12.446 7.961-20.445 7.961-7.999 20.431-7.999Z"/></svg>