<svg xmlns="http://www.w3.org/2000/svg" width="48" height="48" viewBox="0 -960 960 960"><path d="M76.97-826.3q9.84-10.13 23.5-10.13t23.8 10.14L850.57-99l-47.53 47.52L667.52-187H311.61v-113h242.35L75.74-778.78q-10.13-10.13-9.63-23.76t10.86-23.76ZM275.39-297v107q-39-8-74.5-12.5t-75.5-4.5h-25q-16.04 0-26.13-10.32t-10.09-26.7q0-15.59 9.07-28.05 9.06-12.45 27.15-7.93h25q40 0 75.5-4.5t74.5-12.5ZM734-300h102.66q24.06 0 40.2 16.1Q893-267.8 893-243.78q0 21.71-13.56 37.11-13.57 15.41-34.14 17.97L734-300Zm-336.76 40.36q-6.85 6.97-6.85 16.26 0 9.29 6.77 16.14 6.77 6.85 16.22 6.85t16.34-6.77q6.89-6.77 6.89-16.22t-6.97-16.34q-6.97-6.89-16.26-6.89-9.29 0-16.14 6.97ZM580-767.44q12.47 0 20.43 8.12 7.96 8.12 7.96 19.98 0 11.86-7.96 19.99-7.96 8.13-20.43 8.13-35 0-56 21.85t-21 56.85q0 35 21 60.15t56 25.15h71.57q57.31 0 98.48 38.78T791.22-413v68H735v-55.56q0-42.24-24.5-66.06-24.5-23.81-59.5-23.81h-69.87q-9.56 0-23.06-1.72-13.5-1.72-23.94-8.28l-74.35-73.74q-8-16-10.5-32.52-2.5-16.53-2.5-27.53 0-56.6 38.12-94.91 38.12-38.31 95.1-38.31ZM661.22-893q57.39 0 95.58 40.97 38.2 40.98 38.2 97.81 0 33.26-12.85 59.39-12.85 26.13-35.54 42 66.13 19.05 106.26 79.66Q893-512.57 893-445.32V-345h-56.78v-100q0-74-49.5-122.5T661.22-616q-12.23 0-20.03-8.08-7.8-8.08-7.8-20.27 0-12.2 7.8-20.03 7.8-7.84 20.03-7.84 31 0 54-23.28t23-58.72q0-34-22-58t-55-24q-12.47 0-20.43-8.08-7.96-8.07-7.96-20.26 0-12.18 7.96-20.31 7.96-8.13 20.43-8.13Z"/></svg>