<svg xmlns="http://www.w3.org/2000/svg" width="48" height="48" viewBox="0 -960 960 960"><path d="M185.48-105.87q-16.96 0-28.28-11.33-11.33-11.32-11.33-28.28 0-16.95 11.33-28.28 11.32-11.33 28.28-11.33h589.04q16.96 0 28.57 11.33t11.61 28.28q0 16.96-11.61 28.28-11.61 11.33-28.57 11.33H185.48Zm279.56-156.61q-7.26-3.13-13.39-9.26L300.22-423.17q-11.83-11.83-11.33-28.29.5-16.45 12.33-28.28 11.82-11.83 28.28-11.83t28.28 11.83l82.61 83.61v-418.39q0-16.96 11.33-28.57Q463.04-854.7 480-854.7t28.28 11.61q11.33 11.61 11.33 28.57v418.39l79.61-79.61q11.82-11.83 27.78-11.33t27.78 12.33q11.83 11.83 11.83 28.28 0 16.46-11.83 28.29L508.35-271.74q-6.13 6.13-13.39 9.26-7.26 3.13-14.96 3.13-7.7 0-14.96-3.13Z"/></svg>