<svg xmlns="http://www.w3.org/2000/svg" width="48" height="48" viewBox="0 -960 960 960"><path d="M106.04-65.87q-17.27 0-28.72-11.5t-11.45-28.28q0-16.78 11.45-28.11 11.45-11.33 28.72-11.33h748.48q16.71 0 28.44 11.5 11.74 11.51 11.74 28.29t-11.74 28.1q-11.73 11.33-28.44 11.33H106.04ZM330-420.39q-24.79 0-42.2-17.44-17.41-17.45-17.41-42.29t17.41-42.16q17.41-17.33 42.2-17.33h300q24.79 0 42.2 17.44 17.41 17.45 17.41 42.29t-17.41 42.16q-17.41 17.33-42.2 17.33H330ZM105.48-814.91q-16.71 0-28.16-11.5-11.45-11.51-11.45-28.29t11.45-28.39q11.45-11.61 28.16-11.61h749.04q16.71 0 28.44 11.79 11.74 11.78 11.74 28.56t-11.74 28.11q-11.73 11.33-28.44 11.33H105.48Z"/></svg>