<svg xmlns="http://www.w3.org/2000/svg" width="48" height="48" viewBox="0 96 960 960"><path d="M129.434 702.001q-16.957 0-28.283-11.327-11.326-11.326-11.326-28.283 0-15.956 11.326-27.782 11.326-11.827 27.283-11.827h262.087q16.956 0 28.283 11.327 11.326 11.326 11.326 28.282 0 15.957-11.326 27.783-11.327 11.827-27.283 11.827H129.434Zm0 173.217q-16.957 0-28.283-11.326t-11.326-28.283q0-15.957 11.326-27.783T128.434 796h262.087q16.956 0 28.283 11.326 11.326 11.326 11.326 28.283 0 15.957-11.326 27.783-11.327 11.826-27.283 11.826H129.434Zm0-346q-16.957 0-28.283-11.327-11.326-11.326-11.326-28.282 0-15.957 11.326-27.783 11.326-11.827 27.283-11.827h262.087q16.956 0 28.283 11.327 11.326 11.326 11.326 28.283 0 15.956-11.326 27.782-11.327 11.827-27.283 11.827H129.434Zm0-173.218q-16.957 0-28.283-11.326t-11.326-28.283q0-15.957 11.326-28.066 11.326-12.109 27.283-12.109h262.087q16.956 0 28.283 11.609 11.326 11.609 11.326 28.566 0 15.957-11.326 27.783Q407.477 356 391.521 356H129.434Zm447.305 519.218q-16.957 0-28.283-11.326t-11.326-28.283V316.391q0-16.957 11.326-28.566 11.326-11.609 28.283-11.609h254.827q16.957 0 28.283 11.609t11.326 28.566v519.218q0 16.957-11.326 28.283t-28.283 11.326H576.739Z"/></svg>