<svg xmlns="http://www.w3.org/2000/svg" width="48" height="48" viewBox="0 -960 960 960"><path d="M30.175-595Q43-595 51.5-586.375T60-565v170q0 12.75-8.675 21.375Q42.649-365 29.825-365 17-365 8.5-373.625T0-395v-170q0-12.75 8.675-21.375Q17.351-595 30.175-595Zm120-88q12.825 0 21.325 8.625T180-653v346q0 12.75-8.675 21.375-8.676 8.625-21.5 8.625-12.825 0-21.325-8.625T120-307v-346q0-12.75 8.675-21.375 8.676-8.625 21.5-8.625Zm780 88q12.825 0 21.325 8.625T960-565v170q0 12.75-8.675 21.375-8.676 8.625-21.5 8.625-12.825 0-21.325-8.625T900-395v-170q0-12.75 8.675-21.375 8.676-8.625 21.5-8.625Zm-120-88q12.825 0 21.325 8.625T840-653v346q0 12.75-8.675 21.375-8.676 8.625-21.5 8.625-12.825 0-21.325-8.625T780-307v-346q0-12.75 8.675-21.375 8.676-8.625 21.5-8.625ZM319.784-120q-33.229 0-56.507-23.277Q240-166.555 240-199.784v-560.998q0-32.663 23.277-55.941Q286.555-840 319.784-840h320.998q32.663 0 55.941 23.277Q720-793.445 720-760.782v560.998q0 33.229-23.277 56.507Q673.445-120 640.782-120H319.784Z"/></svg>