<svg xmlns="http://www.w3.org/2000/svg" width="48" height="48" viewBox="0 -960 960 960"><path d="M464.912-125.869H136.609q-32.479 0-55.849-23.37-23.37-23.37-23.37-55.848v-529.826q0-32.478 23.37-56.131 23.37-23.652 55.849-23.652h683.825q32.479 0 56.131 23.652 23.653 23.653 23.653 56.131v201.304q0 16.707-11.785 28.158Q876.649-494 859.868-494t-28.108-11.451q-11.326-11.451-11.326-28.158v-201.304H136.609v529.826h328.303q16.707 0 28.158 11.501 11.451 11.502 11.451 28.283 0 16.782-11.451 28.108t-28.158 11.326ZM383.13-346.913v-246.739q0-17.277 15.957-26.095 15.956-8.818 30.348.877l187.13 123.652q14.391 9.066 14.391 25.12 0 16.055-14.391 25.316L429.435-321.13q-14.392 9.695-30.348.877-15.957-8.818-15.957-26.66Zm335.221 303.33L714.26-77.26q-18.304-4.87-38.173-16.087-19.87-11.218-31.739-24.087l-28.405 13.301q-6.595 3.264-13.791 1.416-7.196-1.848-11.136-8.389l-21.381-34.004q-4.505-6.542-3.223-13.238 1.283-6.695 7.414-12.391l26.434-20.304q-6.13-20.739-5.848-38.957.283-18.217 5.848-38.956l-26.434-20.87q-6.131-5.13-7.131-12.108-1-6.979 2.94-13.071l21.381-35.338q3.94-6.092 11.136-7.94 7.196-1.847 13.791.851l28.405 13.302q11.869-10.87 31.739-22.022 19.869-11.152 38.173-16.587l4.091-34.54q1.475-8.025 6.888-12.373Q730.652-434 737.973-434h36.011q7.32 0 13.016 4.348t6.605 12.373l3.525 34.54q18.87 5.435 38.74 16.587Q855.739-355 867.609-344.13l28.869-12.988q6.696-2.447 13.609-.882t11.418 8.039l20.816 35.14q3.94 5.908 2.657 12.887-1.282 6.978-7.413 12.108l-25.304 20.87q5.565 21.304 5.283 38.956-.283 17.652-5.283 38.957l25.869 20.304q5.566 5.696 7.131 12.641 1.565 6.946-2.565 13.142l-21.137 33.87q-4.559 6.521-11.755 8.087-7.195 1.565-13.791-1.134l-28.404-13.301q-11.87 12.869-31.739 24.087Q816-82.13 797.13-77.26l-3.525 33.677q-.909 7.888-6.605 12.236Q781.304-27 773.984-27h-36.011q-7.321 0-12.734-4.348t-6.888-12.236Zm37.127-88.026q42.304 0 70.739-28.434 28.435-28.435 28.435-70.739 0-42.305-28.435-70.457-28.435-28.152-70.739-28.152t-70.456 28.152q-28.152 28.152-28.152 70.457 0 42.304 28.152 70.739 28.152 28.434 70.456 28.434Z"/></svg>