<svg xmlns="http://www.w3.org/2000/svg" width="48" height="48" viewBox="0 96 960 960"><path d="M352 816h175q14 0 24.5-10.5T562 781v-55l50.652 28.478q10.261 6.696 19.804.5Q642 748.782 642 736.956v-81.912q0-11.826-9.544-18.022-9.543-6.196-19.804-.065L562 666v-55q0-14-10.5-24.5T527 576H352q-14 0-24.5 10.5T317 611v170q0 14 10.5 24.5T352 816ZM225.087 990.131q-32.478 0-55.848-23.37-23.37-23.37-23.37-55.848V241.087q0-32.478 23.37-56.131 23.37-23.652 55.848-23.652h328.652q15.957 0 31.131 6.695 15.174 6.696 26 17.522L790.479 365.13q10.826 10.826 17.522 26 6.695 15.174 6.695 31.131v488.652q0 32.478-23.652 55.848-23.653 23.37-56.131 23.37H225.087Zm360.435-563.044h149.391l-189-186v146.391q0 16.957 11.326 28.283t28.283 11.326Z"/></svg>