<svg xmlns="http://www.w3.org/2000/svg" width="48" height="48" viewBox="0 -960 960 960"><path d="m734.696-525 125.522-125.521q8.695-9.261 21.587-4.377 12.891 4.884 12.891 17.768v314.26q0 12.884-12.891 17.768-12.892 4.884-21.587-4.377l-134-133.434v45q-3.392 9.358-12.067 15.157-8.676 5.799-19.804 5.799-16.782 0-28.108-11.452-11.326-11.451-11.326-28.158v-318.346H322.957q-19.804 0-29.707-12.401-9.902-12.401-9.902-27.283 0-14.882 9.902-27.491 9.903-12.608 29.707-12.608h331.956q32.74 0 56.262 23.521 23.521 23.522 23.521 56.262V-525Zm96.261 482.653L53.782-820.087q-10.13-10.131-10.413-23.261-.282-13.131 10.413-23.261 10.363-10.696 23.261-10.696 12.899 0 23.261 10.696l778.305 777.74q10.131 10.419 9.848 23.688-.283 13.268-10.696 23.399-10.413 10.13-23.543 10.13-13.131 0-23.261-10.695Zm-343-521.61Zm-91.522 86.522ZM152.782-814.696l79.219 79.783h-86.914v509.826h509.826v-86.914l78.653 78.653v19q-3.392 28.522-26.115 48.501-22.723 19.978-52.538 19.978H145.087q-32.507 0-55.862-23.356-23.356-23.355-23.356-55.862v-509.826q0-29.652 19.978-52.457 19.979-22.804 48.501-26.196l18.434-1.13Z"/></svg>