<svg xmlns="http://www.w3.org/2000/svg" width="48" height="48" viewBox="0 -960 960 960"><path d="M310.433-265.869q-16.781 0-28.107-11.451-11.327-11.451-11.327-28.158v-309.435h-46.086q-16.707 0-28.158-11.501-11.451-11.502-11.451-28.234t11.451-28.39q11.451-11.658 28.158-11.658h66.174q24.638 0 41.884 17.741 17.247 17.741 17.247 42.52v328.957q0 16.707-11.502 28.158t-28.283 11.451Zm389.566 0q-16.781 0-28.108-11.451-11.326-11.451-11.326-28.158v-309.435h-46.086q-16.707 0-28.158-11.501-11.451-11.502-11.451-28.234t11.451-28.39q11.451-11.658 28.158-11.658h66.173q24.638 0 41.885 17.741 17.247 17.741 17.247 42.52v328.957q0 16.707-11.502 28.158t-28.283 11.451ZM488.455-438.13q-17.064 0-28.39-11.502-11.326-11.501-11.326-28.233t11.502-28.39q11.501-11.658 28.565-11.658t28.39 11.833q11.327 11.834 11.327 28.566t-11.502 28.058q-11.502 11.326-28.566 11.326Zm0 172.261q-17.064 0-28.39-11.502-11.326-11.501-11.326-28.282 0-16.782 11.502-28.108 11.501-11.326 28.565-11.326t28.39 11.501q11.327 11.502 11.327 28.283 0 16.782-11.502 28.108t-28.566 11.326Z"/></svg>