<svg xmlns="http://www.w3.org/2000/svg" width="48" height="48" viewBox="0 -960 960 960"><path d="m438.391-163.043-207-121.652q-18.296-11.252-28.453-29.678-10.156-18.426-10.156-39.279v-242.304q0-20.853 10.156-39.28 10.157-18.426 28.453-29.677l208-124.217q18.522-10.827 40.609-10.827 22.087 0 40.609 10.827l208 124.217q18.297 11.251 28.453 29.677 10.156 18.427 10.156 39.28v242.304q0 20.853-10.419 39.279-10.419 18.426-29.19 29.678l-210 121.652q-18.85 11.391-39.773 11.391-20.923 0-39.445-11.391ZM450-249.001v-208.907L273.001-559.956v203.936L450-249.001Zm60 0L687.999-356.02v-203.936L510-457.908v208.907ZM102.199-655.913q-15.373 0-25.852-10.215Q65.87-676.342 65.87-692.13v-122.783q0-33.49 22.98-56.637 22.981-23.146 56.238-23.146H267.87q15.576 0 26.179 10.656 10.603 10.657 10.603 26.411 0 15.542-10.603 26.02-10.603 10.479-26.179 10.479h-129v129q0 15.788-10.543 26.002-10.543 10.215-26.128 10.215Zm42.888 590.044q-33.257 0-56.237-22.98-22.981-22.981-22.981-56.238V-267.87q0-15.576 10.654-26.179 10.653-10.603 26.027-10.603 15.373 0 25.846 10.603 10.474 10.603 10.474 26.179v129h129q15.576 0 26.179 10.543 10.603 10.543 10.603 26.128 0 15.373-10.603 25.852Q283.446-65.87 267.87-65.87H145.087Zm669.826 0H692.13q-15.788 0-26.002-10.654-10.215-10.653-10.215-26.027 0-15.373 10.215-25.846 10.214-10.474 26.002-10.474h129v-129q0-15.576 10.654-26.179 10.654-10.603 26.196-10.603 15.542 0 26.129 10.603 10.587 10.603 10.587 26.179v122.783q0 33.257-23.146 56.237-23.147 22.981-56.637 22.981Zm6.217-626.261v-129h-129q-15.788 0-26.002-10.654-10.215-10.654-10.215-26.196 0-15.542 10.215-26.129 10.214-10.587 26.002-10.587h122.783q33.49 0 56.637 23.146 23.146 23.147 23.146 56.637v122.783q0 15.788-10.656 26.002-10.657 10.215-26.411 10.215-15.542 0-26.02-10.215-10.479-10.214-10.479-26.002ZM480-512.304l177.565-102.652L480-717.173 302.435-614.956 480-512.304Zm0 23.869Zm0-23.869Zm30 54.565Zm-60 0Z"/></svg>