<svg xmlns="http://www.w3.org/2000/svg" width="48" height="48" viewBox="0 96 960 960"><path d="M403 321.478q0-16.707 11.451-28.441 11.451-11.733 28.158-11.733h371.913q16.707 0 28.441 11.733 11.733 11.734 11.733 28.441v199.913q0 16.707-11.733 28.158Q831.229 561 814.522 561H442.609q-16.707 0-28.158-11.451T403 521.391V321.478ZM145.478 870.131q-16.707 0-28.158-11.451t-11.451-28.158V321.478q0-16.707 11.451-28.441 11.451-11.733 28.158-11.733h187.913q16.707 0 28.158 11.733Q373 304.771 373 321.478v509.044q0 16.707-11.451 28.158t-28.158 11.451H145.478ZM814.522 591q16.707 0 28.441 11.451 11.733 11.451 11.733 28.158v199.913q0 16.707-11.733 28.158-11.734 11.451-28.441 11.451H683.957q-16.706 0-28.158-11.451-11.451-11.451-11.451-28.158V630.609q0-16.707 11.451-28.158Q667.251 591 683.957 591h130.565ZM403 630.609q0-16.707 11.451-28.158T442.609 591h132.13q16.707 0 28.158 11.451t11.451 28.158v199.913q0 16.707-11.451 28.158t-28.158 11.451h-132.13q-16.707 0-28.158-11.451T403 830.522V630.609Z"/></svg>