<svg xmlns="http://www.w3.org/2000/svg" width="48" height="48" viewBox="0 -960 960 960"><path d="M166.999-185.869q-26.826 0-46.522-19.696-19.695-19.695-19.695-46.522v-456.392q0-26.826 19.695-46.522 19.696-19.695 46.522-19.695h94.913q26.826 0 46.239 19.695 19.414 19.696 19.414 46.522v456.392q0 26.827-19.414 46.522-19.413 19.696-46.239 19.696h-94.913Zm265.827 0q-26.261 0-46.239-19.696-19.978-19.695-19.978-46.522v-456.392q0-26.826 19.978-46.522 19.978-19.695 46.239-19.695h94.913q26.826 0 46.522 19.695 19.696 19.696 19.696 46.522v456.392q0 26.827-19.696 46.522-19.696 19.696-46.522 19.696h-94.913Zm265.827 0q-26.826 0-46.522-19.696-19.696-19.695-19.696-46.522v-456.392q0-26.826 19.696-46.522 19.696-19.695 46.522-19.695h94.913q26.826 0 46.522 19.695 19.696 19.696 19.696 46.522v456.392q0 26.827-19.696 46.522-19.696 19.696-46.522 19.696h-94.913Z"/></svg>