<svg xmlns="http://www.w3.org/2000/svg" width="48" height="48" viewBox="0 -960 960 960"><path d="M328.06-191.09q-15.54-10.69-21.1-27.52l-94.18-221.78H78q-16.96 0-28.28-11.33Q38.39-463.04 38.39-480t11.33-28.28Q61.04-519.61 78-519.61h163q11.83 0 21.65 6.7 9.83 6.69 14.96 17.52L363-296.7l177.96-442.69q5.56-16.83 21.1-27.52 15.55-10.7 34.94-10.7 19.39 0 34.94 10.7 15.54 10.69 21.67 27.52l93.61 219.78H882q16.96 0 28.28 11.33 11.33 11.32 11.33 28.28t-11.33 28.28q-11.32 11.33-28.28 11.33H719q-11.83 0-21.65-6.7-9.83-6.69-14.39-17.52L597-661.3 419.61-218.61q-6.13 16.83-21.67 27.52-15.55 10.7-34.94 10.7-19.39 0-34.94-10.7Z"/></svg>