<svg xmlns="http://www.w3.org/2000/svg" width="48" height="48" viewBox="0 96 960 960"><path d="m793.261 988.74-108.87-108.87q-17.173 11.739-35.564 21.826-18.392 10.087-38.565 16.956-16.566 5.566-31.544-5-14.978-10.565-14.978-30.391 0-7.435 3.369-13.37 3.37-5.934 10.239-8.5 15.174-4.869 30.978-12.586 15.804-7.718 29.109-17.587L483.74 675.957V834.74q0 26.783-24.435 36.826-24.435 10.044-42.957-9.043L263.956 710.131H135.087q-16.957 0-28.283-11.326-11.327-11.326-11.327-28.283V481.478q0-16.957 11.327-28.566 11.326-11.608 28.283-11.608h116.956L57.565 245.13q-10.13-10.131-9.63-23.761.5-13.631 10.63-23.761 10.13-10.131 23.543-10.131 13.413 0 23.544 10.131l736.131 744.175q10.13 10.13 10.13 23.761 0 13.63-10.13 23.196-10.131 10.695-24.261 10.695-14.131 0-24.261-10.695ZM610.262 231.348q108.13 39.13 174.195 133.043Q850.523 458.304 850.523 575q0 52.696-14.848 102.826-14.848 50.131-43.413 94.696L744.74 723.87q20-33.435 29.5-71.153 9.5-37.717 9.5-77.717 0-97.87-54.935-176.587-54.935-78.717-145.804-106.848-8.566-2.565-13.913-9.913-5.348-7.348-5.348-16.478 0-18.131 14.913-29.044t31.609-4.782ZM368.609 559.565Zm290.218 78.392-95.087-96.218V408.913q48.695 23.13 77.739 68.261 29.044 45.13 29.044 98.826 0 16.13-3.066 31.761-3.065 15.63-8.63 30.196ZM483.74 460.609 365.043 340.216l51.305-51.304q18.522-18.522 42.957-8.196 24.435 10.327 24.435 35.979v143.914Zm-79.784 276.956V595.478l-73.826-74.391H174.696v109.826h122.608l106.652 106.652Z"/></svg>