<svg xmlns="http://www.w3.org/2000/svg" width="48" height="48" viewBox="0 -960 960 960"><path d="M506.91-247.48q9.35-9.35 9.35-22.91 0-13.57-9.35-22.63-9.34-9.07-22.91-9.07t-22.91 9.07q-9.35 9.06-9.35 22.63 0 13.56 9.35 22.91 9.34 9.35 22.91 9.35t22.91-9.35ZM454-378q0 13 8.5 21.5T484-348q13 0 21.5-8.5T514-378v-67.43l-60-60V-378Zm-73-288.13q-10.26-9.7-11.04-22.59-.79-12.89 5.91-24.72L445.52-835q6.13-10.26 15.18-15.17 9.04-4.92 19.3-4.92 10.26 0 19.02 4.92 8.76 4.91 14.89 15.17l340.52 588.74q8.7 14.96-5.19 25.5t-25.72-1.85L381-666.13ZM825.61-40.35l-73.31-72.3H96.52q-22.65 0-34.48-20.09-11.82-20.09 0-40.17l266.31-458.18L607.7-351.74h-94.48L39.91-825.61q-9.56-9.56-9.35-23.19.22-13.64 10.35-23.77 10.13-10.13 23.48-10.13t23.48 10.13l785.26 785.7q9.57 10.13 9.85 23.26.28 13.13-9.85 23.26Q863-30.22 849.37-30.22t-23.76-10.13Z"/></svg>