<svg xmlns="http://www.w3.org/2000/svg" width="48" height="48" viewBox="0 -960 960 960"><path d="M807.261-480q-16.957 0-28.283-11.326t-11.326-28.283V-810q0-16.957 11.326-28.283t28.283-11.326q16.957 0 28.283 11.326T846.87-810v290.391q0 16.957-11.326 28.283T807.261-480ZM331.435-53.999q-26.783 0-48.088-16.239-21.304-16.24-28.565-41.892l-35-128.13q-56.131-36.131-90.109-98.957Q95.694-402.043 95.694-480t33.979-141.283q33.978-63.326 90.109-99.022l35-127.565q7.261-25.653 28.565-41.892 21.305-16.239 48.088-16.239h117.347q27.348 0 48.652 16.239 21.305 16.239 28.001 41.892L561-720.305q56.13 35.696 89.826 99.022Q684.522-557.957 684.522-480t-33.696 140.783Q617.13-276.391 561-240.26l-35.565 128.13q-6.696 25.653-28.001 41.892-21.304 16.24-48.652 16.24H331.435Zm58.956-211.088q89.739 0 152.326-62.304Q605.304-389.696 605.304-480t-62.587-152.609q-62.587-62.304-152.326-62.304-90.304 0-152.609 62.304Q175.478-570.304 175.478-480t62.304 152.609q62.305 62.304 152.609 62.304Z"/></svg>