<svg xmlns="http://www.w3.org/2000/svg" width="48" height="48" viewBox="0 0 48 48"><path d="M22.2 18q-2.75 0-5.525.925-2.775.925-5.225 2.575l2.1 19h20.9L36.7 20h-1.85q-1.85 0-3.475-.275T27.05 18.65q-1.25-.3-2.45-.475Q23.4 18 22.2 18ZM9.9 7.5l1.05 9.6q2.5-1.45 5.425-2.25T22.15 14q1.6 0 3.1.225t2.9.575q2.5.7 3.825.95Q33.3 16 34.8 16h2.35l.95-8.5Zm12.3 33h12.2-20.85 8.65Zm-8.7 4q-1.5 0-2.625-1T9.55 40.95L5.7 5.7q-.1-.85.45-1.525Q6.7 3.5 7.6 3.5h32.8q.9 0 1.45.675.55.675.45 1.525l-3.85 35.25q-.2 1.55-1.325 2.55-1.125 1-2.625 1Z"/></svg>