<svg xmlns="http://www.w3.org/2000/svg" width="48" height="48" viewBox="0 96 960 960"><path d="M612.739 977.957q-9.696 3.565-18.891.217-9.196-3.348-12.761-12.478l-5-10.435q-8-17-11.283-35.026-3.283-18.027-3.283-36.235 0-22.792 6.066-44.526 6.065-21.735 16.065-42.3 8-16.435 12.935-33.694 4.934-17.259 4.934-35.48 0-15.83-3.217-30.567t-10.217-28.737l-1-3q-4.566-9.131-.807-18.521t13.261-13.044q8.937-3.653 17.633-.305t13.261 12.478l4 10.566q8 17 11.782 34.644Q650 709.159 650 728q0 21.534-5.283 42.115-5.282 20.581-14.282 40.146-7.835 17.423-14.135 35.622-6.3 18.198-6.3 38.303 0 14.249 3.5 28.466 3.5 14.218 8.935 27.374l2.565 5.278q4.565 9.131.567 18.971-3.997 9.841-12.828 13.682Zm123.957 0q-9.131 3.565-18.609.217-9.478-3.348-13.044-12.478l-5-10.435q-8-17-11-35.026-3-18.027-3-36.235 0-22.792 5.783-44.526 5.783-21.735 16.348-42.3 7.435-16.435 12.652-33.694 5.217-17.259 5.217-35.48 0-15.83-3.5-30.567t-10.5-28.737l-1-3q-4.565-9.131-.524-18.521 4.042-9.39 12.979-13.044 8.937-3.653 17.915-.305t13.544 12.478l4.231 9.232q6.769 17.334 11.051 35.616 4.283 18.283 4.283 36.848 0 21.534-5.283 42.115-5.282 20.581-14.282 40.146-8.4 17.423-14.418 35.622-6.017 18.198-6.017 38.303 0 14.249 3.217 28.466 3.218 14.218 9.218 27.374l2.565 5.278q4 9.131.002 18.971-3.998 9.841-12.828 13.682ZM848.02 634.131q8.937-3.653 17.632-.305 8.696 3.348 13.261 12.478l5 9.566q8 17 11.283 35.095 3.283 18.095 3.283 37.41 0 21.19-5.283 41.755-5.283 20.566-14.283 39.566-7.834 17.635-14.134 36.087-6.3 18.453-6.3 38.229 0 14.423 3.5 28.64 3.5 14.218 8.934 27.374l2.566 5.278q1.565 3.131-4.435 10.479-6 7.347-11.565 13.913-5.566 6.565-6.631 9.63-1.065 3.065 10.37-1.369-9.696 3.565-18.892.217t-12.761-12.478l-5-10.435q-8-17-11.282-35.026Q810 902.208 810 884q0-22.792 6.065-44.526 6.065-21.735 16.065-42.3 8-16.435 12.935-33.694Q850 746.221 850 728q0-15.83-3.217-30.567-3.218-14.737-10.218-28.737l-1-3q-4.565-9.131-.806-18.521 3.759-9.39 13.261-13.044Zm-46.019-69.783H581.305q-33.229 0-56.506 23.277-23.278 23.277-23.278 56.506v345q-8 1-15 1h-15q-139.826-3.391-232.739-100.783Q145.869 791.957 145.869 648q0-66.696 30.848-132.609 30.848-65.913 77.182-126.706 46.335-60.793 100.044-113.674 53.709-52.881 99.839-94.012 5.631-5.13 12.294-7.695 6.663-2.566 13.591-2.566 7.029 0 14.141 2.566 7.113 2.565 12.975 7.695 85.13 76.131 173.609 173.957 88.478 97.826 121.609 209.392Z"/></svg>