<svg xmlns="http://www.w3.org/2000/svg" width="48" height="48" viewBox="0 -960 960 960"><path d="M340.043-104.347q-46.695 0-73.326-27.565-26.63-27.565-65.196-27.565-15.565 0-29.282 5.717-13.718 5.717-53.022 29.587-17.957 10.826-36.479.5t-18.522-31.848q0-10.261 5.13-17.74 5.131-7.478 12.827-13.174 59.087-35.261 78.153-44.043 19.065-8.783 41.195-8.783 47.261 0 72.544 27.565 25.283 27.566 65.413 27.566 40.696 0 66.978-27.566 26.283-27.565 73.544-27.565 47.261 0 73.326 27.565 26.065 27.566 66.196 27.566 40.696 0 66.478-27.566 25.783-27.565 73.044-27.565 22.13 0 41.413 8.783 19.283 8.782 77.805 44.043 7.695 5.696 12.608 13.174 4.914 7.479 4.914 17.74 0 21.522-18.522 31.848t-36.479-.5q-39.304-23.87-53.022-29.587-13.717-5.717-28.717-5.717-39.696 0-65.978 27.565-26.283 27.565-73.544 27.565-46.696 0-73.261-27.565-26.565-27.565-66.261-27.565-38.565 0-65.63 27.565-27.066 27.565-74.327 27.565ZM238.87-834.306q0 16.957-11.327 28.283-11.326 11.327-28.283 11.327h-60q-17.522 0-28.848-11.327-11.326-11.326-11.326-28.283 0-16.956 11.326-28.283 11.326-11.326 28.848-11.326h60q16.957 0 28.283 11.326 11.327 11.327 11.327 28.283Zm69.435 149.435q11.826 11.826 11.826 28.283t-11.826 28.283l-42 42q-12.392 12.392-28.066 12.392t-27.5-11.827q-12.391-11.826-12.391-28.283 0-16.456 11.826-28.848l42.565-42q11.826-11.826 27.5-11.826t28.066 11.826ZM480-692.784q-74.565 0-125.848-52.783-51.282-52.783-55.282-128.348h362.26q-4 75.565-55.282 128.348Q554.565-692.784 480-692.784Zm0 62.261q16.957 0 28.283 11.326t11.326 28.283v60q0 16.957-11.326 28.283T480-491.305q-16.957 0-28.283-11.326t-11.326-28.283v-60q0-16.957 11.326-28.283T480-630.523Zm171.26-55.913q11.827-11.826 27.501-11.326 15.674.5 28.065 11.326l43 42q11.826 11.826 12.326 28.066.5 16.239-11.326 28.065t-28.565 11.826q-16.74 0-28.566-11.826l-43-42.565q-11.826-11.826-11.544-27.783.283-15.957 12.109-27.783Zm209.654-147.87q0 16.957-11.326 28.283-11.326 11.327-28.283 11.327h-60q-17.522 0-28.848-11.327-11.327-11.326-11.327-28.283 0-16.956 11.327-28.283 11.326-11.326 28.848-11.326h60q16.957 0 28.283 11.326 11.326 11.327 11.326 28.283ZM340.043-264.347q-46.695 0-73.326-27.565-26.63-27.565-65.196-27.565-15.565 0-29.848 6-14.282 6-53.021 29.869-17.957 10.826-36.479.5t-18.522-31.848q0-10.261 5.13-18.022 5.131-7.761 13.392-12.892 58.522-35.26 77.87-44.326 19.348-9.065 41.478-9.065 47.261 0 72.544 27.565 25.283 27.566 65.413 27.566 40.696 0 66.978-27.566 26.283-27.565 73.544-27.565 47.261 0 73.326 27.565 26.065 27.566 66.196 27.566 40.696 0 66.478-27.566 25.783-27.565 73.044-27.565 22.13 0 41.696 9.065 19.565 9.066 78.652 44.326 7.696 5.131 12.609 12.892 4.913 7.761 4.913 18.022 0 21.522-18.805 31.848-18.804 10.326-36.196-.5-39.304-23.869-53.586-29.869-14.283-6-29.283-6-39.696 0-65.978 27.565-26.283 27.565-73.544 27.565-46.696 0-73.261-27.565-26.565-27.565-66.261-27.565-38.565 0-65.63 27.565-27.066 27.565-74.327 27.565Z"/></svg>