<svg xmlns="http://www.w3.org/2000/svg" width="48" height="48" viewBox="0 96 960 960"><path d="M67 627.435q0-15.522 11.173-30.891 11.174-15.37 29.697-24.327 21.304-8.435 42.239-21.956 20.934-13.522 51.412-13.522 47.261 0 72.544 27.565 25.283 27.566 65.413 27.566 40.696 0 66.978-27.566 26.283-27.565 73.544-27.565 47.261 0 73.326 27.565 26.065 27.566 66.196 27.566 40.696 0 66.478-27.566 25.783-27.565 73.044-27.565 30.478 0 51.695 13.522 21.218 13.521 42.522 22.521 18.522 8.392 29.413 23.762 10.892 15.369 10.892 30.891 0 15.827-10.696 25.522-10.696 9.696-23.957 5-28.869-8.565-49.152-25-20.282-16.434-50.717-16.434-39.696 0-65.978 27.565-26.283 27.565-73.544 27.565-46.696 0-73.261-27.565-26.565-27.565-66.261-27.565-38.565 0-65.63 27.565-27.066 27.565-74.327 27.565-46.695 0-73.326-27.565-26.63-27.565-65.196-27.565-30.434 0-50.717 16.434-20.283 16.435-48.587 25-13.26 4.696-24.24-5Q67 643.262 67 627.435Zm0 179.784q0-15.522 11.173-31.174 11.174-15.653 29.697-24.61 21.304-8.434 42.239-21.673 20.934-13.239 51.412-13.239 47.261 0 72.544 27.565 25.283 27.565 65.413 27.565 40.696 0 66.978-27.565 26.283-27.565 73.544-27.565 47.261 0 73.326 27.565 26.065 27.565 66.196 27.565 40.696 0 66.478-27.565 25.783-27.565 73.044-27.565 30.478 0 51.695 13.239 21.218 13.239 42.522 22.239 18.522 8.956 29.413 24.044 10.892 15.087 10.892 31.174 0 15.826-10.696 25.239-10.696 9.414-23.957 4.718-28.869-8.565-49.152-25-20.282-16.435-50.717-16.435-39.696 0-65.978 27.565-26.283 27.566-73.544 27.566-46.696 0-73.261-27.566-26.565-27.565-66.261-27.565-38.565 0-66.196 27.565-27.63 27.566-74.326 27.566t-73.044-27.566q-26.347-27.565-64.913-27.565-30.434 0-50.717 16.435-20.283 16.435-48.587 25-13.26 4.696-24.24-4.718Q67 823.045 67 807.219Zm0-359.002q0-15.522 11.173-31.174 11.174-15.653 29.697-24.61 21.304-8.434 42.239-21.673 20.934-13.239 51.412-13.239 47.261 0 72.544 27.565 25.283 27.565 65.413 27.565 40.696 0 66.978-27.565 26.283-27.565 73.544-27.565 47.261 0 73.326 27.565 26.065 27.565 66.196 27.565 40.696 0 66.478-27.565 25.783-27.565 73.044-27.565 30.478 0 51.695 13.239 21.218 13.239 42.522 22.239 18.522 8.956 29.413 24.044 10.892 15.087 10.892 31.174 0 15.826-10.696 25.239-10.696 9.414-23.957 4.718-28.869-8.565-49.152-25-20.282-16.435-50.717-16.435-39.696 0-65.978 27.565-26.283 27.566-73.544 27.566-46.696 0-73.261-27.566-26.565-27.565-66.261-27.565-38.565 0-65.63 27.565-27.066 27.566-74.327 27.566-46.695 0-73.326-27.566-26.63-27.565-65.196-27.565-30.434 0-50.717 16.435-20.283 16.435-48.587 25-13.26 4.696-24.24-4.718Q67 464.043 67 448.217Z"/></svg>