<svg xmlns="http://www.w3.org/2000/svg" width="48" height="48" viewBox="0 -960 960 960"><path d="M480.184-370.348q30.512 0 52.425-21.693 21.913-21.693 21.913-52.829 0-23-7.848-40.413-7.848-17.413-33.544-55.674L495.957-566q-6.333-9.261-16.058-9.261T464.043-566l-17.173 25.043q-25.696 38.261-33.261 55.674-7.566 17.413-7.566 40.413 0 31.136 21.814 52.829t52.327 21.693Zm-.117 143.739q-105.197 0-179.328-74.063-74.13-74.063-74.13-179.261 0-105.197 74.063-179.328 74.063-74.13 179.261-74.13 105.197 0 179.328 74.063 74.13 74.063 74.13 179.261 0 105.197-74.063 179.328-74.063 74.13-179.261 74.13Zm381.629-276.608v-11.131h-61.633q-9.497-87.043-61.432-157.544-51.935-70.5-132.979-104.5h256.044v-10.565q0-15.746 10.936-26.83 10.937-11.084 26.87-11.084 15.933 0 26.694 11.084t10.761 26.83v283.74q0 15.506-10.971 26.427-10.972 10.921-26.552 10.921-15.651 0-24.434-12.052-8.782-12.051-13.304-25.296ZM23.043-173.043v-283.74q0-15.746 10.936-26.83 10.937-11.083 26.87-11.083 15.933 0 26.694 11.083 10.761 11.084 10.761 26.83v10.565h62.261q8.869 87.609 60.804 158.11 51.935 70.5 133.544 103.935H98.304v11.13q0 15.577-10.972 26.463-10.971 10.886-26.551 10.886-16.216 0-26.977-10.922-10.761-10.921-10.761-26.427Z"/></svg>