<svg xmlns="http://www.w3.org/2000/svg" width="48" height="48" viewBox="0 -960 960 960"><path d="M307.626-370q12.157 0 20.374-8.316 8.218-8.316 8.218-19.869 0-12.554-8.044-20.489-8.044-7.935-20.37-7.935-11.325 0-19.76 7.816-8.435 7.816-8.435 20.37 0 11.553 8.43 19.988 8.43 8.435 19.587 8.435Zm57.342-114.913q12.554 0 20.489-8.316 7.934-8.315 7.934-19.869 0-12.554-7.815-20.489-7.816-7.934-20.37-7.934-11.554 0-19.988 7.815-8.435 7.816-8.435 20.37 0 11.554 8.316 19.988 8.315 8.435 19.869 8.435Zm0 229.826q12.554 0 20.489-8.316 7.934-8.316 7.934-19.869 0-12.554-7.815-20.489-7.816-7.935-20.37-7.935-11.554 0-19.988 7.816-8.435 7.816-8.435 20.37 0 11.553 8.316 19.988 8.315 8.435 19.869 8.435ZM422.539-370q12.157 0 20.374-8.316 8.217-8.316 8.217-19.869 0-12.554-8.043-20.489-8.044-7.935-20.37-7.935-11.326 0-19.76 7.816-8.435 7.816-8.435 20.37 0 11.553 8.43 19.988 8.43 8.435 19.587 8.435Zm0-229.826q12.157 0 20.374-8.315 8.217-8.316 8.217-19.87 0-12.554-8.043-20.488-8.044-7.935-20.37-7.935-11.326 0-19.76 7.816-8.435 7.815-8.435 20.369 0 11.554 8.43 19.989 8.43 8.434 19.587 8.434Zm57.342 114.913q12.554 0 20.489-8.316 7.934-8.315 7.934-19.869 0-12.554-7.815-20.489-7.816-7.934-20.37-7.934-11.554 0-19.989 7.815-8.434 7.816-8.434 20.37 0 11.554 8.315 19.988 8.316 8.435 19.87 8.435Zm0 229.826q12.554 0 20.489-8.316 7.934-8.316 7.934-19.869 0-12.554-7.815-20.489-7.816-7.935-20.37-7.935-11.554 0-19.989 7.816-8.434 7.816-8.434 20.37 0 11.553 8.315 19.988 8.316 8.435 19.87 8.435ZM537.451-370q12.158 0 20.375-8.316t8.217-19.869q0-12.554-8.044-20.489-8.043-7.935-20.369-7.935-11.326 0-19.76 7.816-8.435 7.816-8.435 20.37 0 11.553 8.43 19.988Q526.294-370 537.451-370Zm0-229.826q12.158 0 20.375-8.315 8.217-8.316 8.217-19.87 0-12.554-8.044-20.488-8.043-7.935-20.369-7.935-11.326 0-19.76 7.816-8.435 7.815-8.435 20.369 0 11.554 8.43 19.989 8.429 8.434 19.586 8.434Zm57.343 114.913q12.554 0 20.488-8.316 7.935-8.315 7.935-19.869 0-12.554-7.816-20.489-7.815-7.934-20.369-7.934-11.554 0-19.989 7.815-8.434 7.816-8.434 20.37 0 11.554 8.315 19.988 8.316 8.435 19.87 8.435Zm0 229.826q12.554 0 20.488-8.316 7.935-8.316 7.935-19.869 0-12.554-7.816-20.489-7.815-7.935-20.369-7.935-11.554 0-19.989 7.816-8.434 7.816-8.434 20.37 0 11.553 8.315 19.988 8.316 8.435 19.87 8.435ZM652.364-370q12.157 0 20.375-8.316 8.217-8.316 8.217-19.869 0-12.554-8.044-20.489-8.044-7.935-20.369-7.935-11.326 0-19.761 7.816-8.434 7.816-8.434 20.37 0 11.553 8.429 19.988 8.43 8.435 19.587 8.435ZM479.942-65.869q-143.025 0-238.549-98.05Q145.869-261.968 145.869-408q0-58.348 24.76-117.673 24.761-59.326 66-117.609 41.239-58.283 94.283-114.152 53.043-55.87 109.479-106.74 9.261-7.696 19.193-11.044 9.933-3.348 20.482-3.348 10.548 0 20.415 3.348 9.867 3.348 19.128 11.044 56.436 50.87 109.479 106.74 53.044 55.869 94.283 114.152 41.239 58.283 66.282 117.609Q814.696-466.348 814.696-408q0 146.032-95.864 244.081-95.865 98.05-238.89 98.05Z"/></svg>