<svg xmlns="http://www.w3.org/2000/svg" width="48" height="48" viewBox="0 -960 960 960"><path d="M588.61-142.48h-97.22v49.22q0 11.7-8.08 19.54-8.07 7.85-19.26 7.85-11.18 0-19.31-7.85-8.13-7.84-8.13-19.62V-283.3q0-11.98 9.18-20.67 9.19-8.68 21.17-8.68h121.65q23.01 0 38.9 15.98 15.88 15.97 15.88 38.8v60.61q0 22.68-15.88 38.73-15.89 16.05-38.9 16.05Zm140.78-26.39v75.43q0 11.88-8.08 19.72-8.07 7.85-19.26 7.85-11.18 0-19.31-7.85-8.13-7.84-8.13-19.54v-192q0-11.21 8.08-19.3 8.07-8.09 19.26-8.09 11.18 0 19.31 8.09 8.13 8.09 8.13 19.3v61.61h101.22v-61.61q0-11.21 8.08-19.3 8.07-8.09 19.26-8.09 11.18 0 19.31 8.09 8.13 8.09 8.13 19.3v192q0 11.7-8.08 19.54-8.07 7.85-19.26 7.85-11.18 0-19.31-7.85-8.13-7.84-8.13-19.72v-75.43H729.39Zm-238-28.39h97.22v-60.61h-97.22v60.61ZM400-885.83q6.7 0 13.11 2.57 6.41 2.56 13.11 8.26Q571.87-743.22 652-623.7q80.13 119.53 82.7 207.87.56 17.96-12.05 30.57-12.61 12.61-31.69 12.61H456.39q-33.74 0-56.76 23.02-23.02 23.02-23.02 56.76v178.57q0 17.68-11.76 28.86T334.7-74.26q-128.83 0-198.83-97.89T65.87-408q0-86.65 85.39-216.48Q236.65-754.31 373.78-875q6.13-5.7 12.55-8.26 6.41-2.57 13.67-2.57Z"/></svg>