<svg xmlns="http://www.w3.org/2000/svg" width="48" height="48" viewBox="0 -960 960 960"><path d="M201.521-260.259q-30.434 0-49.934 15.87-19.5 15.869-45.544 25-14.391 5.261-26.717-5.283-12.327-10.544-12.327-28.066t11.044-29.913q11.043-12.392 27-20.218 21.87-8.435 43.087-22.521 21.218-14.087 53.391-14.087 47.261 0 72.544 27.565 25.283 27.565 65.413 27.565 40.696 0 66.978-27.565 26.283-27.565 73.544-27.565 47.261 0 73.326 27.565 26.065 27.565 66.196 27.565 40.696 0 66.478-27.565 25.783-27.565 73.044-27.565 32.174 0 53.391 14.087 21.217 14.086 43.087 22.521 15.957 7.826 27 20.218 11.044 12.391 11.044 29.913t-12.609 28.066q-12.609 10.544-26.435 5.283-27.174-9.131-46.674-25-19.5-15.87-48.804-15.87-39.696 0-65.978 27.565-26.283 27.566-73.544 27.566-46.696 0-73.261-27.566-26.565-27.565-66.261-27.565-38.565 0-66.196 27.565-27.63 27.566-74.326 27.566t-73.044-27.566q-26.347-27.565-64.913-27.565Zm0-179.218q-30.434 0-49.652 15.869-19.217 15.87-45.826 24.435-13.826 5.261-26.435-5Q67-414.434 67-431.956q0-17.522 11.044-30.196 11.043-12.674 27-19.935 21.87-8.435 43.087-22.804 21.218-14.37 53.391-14.37 47.261 0 72.544 27.565 25.283 27.566 65.413 27.566 40.696 0 66.978-27.566 26.283-27.565 73.544-27.565 47.261 0 73.326 27.565 26.065 27.566 66.196 27.566 40.696 0 66.478-27.566 25.783-27.565 73.044-27.565 32.739 0 53.674 14.37 20.934 14.369 43.369 22.804 15.392 6.696 26.435 19.935 11.044 13.239 11.044 30.196 0 17.522-12.326 28.066-12.327 10.543-26.718 5.282-27.174-9.13-46.391-25-19.218-15.869-49.087-15.869-39.696 0-65.978 27.565-26.283 27.565-73.544 27.565-46.696 0-73.261-27.565-26.565-27.565-66.261-27.565-38.565 0-65.63 27.565-27.066 27.565-74.327 27.565-46.695 0-73.326-27.565-26.63-27.565-65.196-27.565Zm0-179.784q-30.434 0-49.652 15.87-19.217 15.869-45.826 25-13.826 5.261-26.435-5.283Q67-594.218 67-611.74t11.044-29.913q11.043-12.392 27-20.218 21.87-8.435 43.087-22.521 21.218-14.087 53.391-14.087 47.261 0 72.544 27.565 25.283 27.565 65.413 27.565 40.696 0 66.978-27.565 26.283-27.565 73.544-27.565 47.261 0 73.326 27.565 26.065 27.565 66.196 27.565 40.696 0 66.478-27.565 25.783-27.565 73.044-27.565 32.739 0 53.674 14.087 20.934 14.086 43.369 22.521 15.392 7.261 26.435 20.218 11.044 12.957 11.044 29.913 0 17.522-12.326 28.349-12.327 10.826-26.718 5.565-27.174-9.131-46.391-25.283-19.218-16.152-49.087-16.152-39.696 0-65.978 27.565-26.283 27.566-73.544 27.566-46.696 0-73.261-27.566-26.565-27.565-66.261-27.565-38.565 0-65.63 27.565-27.066 27.566-74.327 27.566-46.695 0-73.326-27.566-26.63-27.565-65.196-27.565Z"/></svg>