<svg xmlns="http://www.w3.org/2000/svg" width="48" height="48" viewBox="0 -960 960 960"><path d="M145.87-408q0-66.7 30.85-132.61 30.84-65.91 77.18-126.71 46.33-60.79 100.04-113.67 53.71-52.88 99.84-94.01 5.63-5.13 12.3-7.7 6.66-2.56 13.59-2.56 7.03 0 14.14 2.56 7.11 2.57 12.97 7.7 42.57 38.13 87.55 81.93 44.99 43.8 85.28 92.03 28.61 33.6 52.35 69.65 23.74 36.04 40.61 73.52 7.26 14.39 1.19 29.63-6.06 15.24-20.89 20.94-15.39 6.26-30.85.69-15.46-5.56-23.85-19.39-27.87-60.48-82.69-127.39Q560.65-720.3 480-792.65 355.26-680.09 290.17-582.13 225.09-484.17 225.09-408q0 107.65 68.06 180.61 68.07 72.95 174.55 79.61 19.52 3.39 27.3 17.06 7.78 13.68 6.65 28.07-1.69 13.82-12.02 24.95-10.33 11.14-28.15 9.44-135.44-4.09-225.52-102.85-90.09-98.76-90.09-236.89Zm318.65-55.22ZM593.85-77.83q-9.2-3.34-12.76-12.47l-5-10.44q-8-17-11.29-35.03-3.28-18.02-3.28-36.23 0-22.79 6.07-44.53 6.06-21.73 16.06-42.3 8-16.43 12.94-33.69 4.93-17.26 4.93-35.48 0-15.83-3.22-30.57-3.21-14.73-10.21-28.73l-1-3q-4.57-9.13-.81-18.52 3.76-9.39 12.98-13.05 9.22-3.65 17.91-.3 8.7 3.34 13.26 12.47l4 10.57q8 17 11.79 34.64Q650-346.84 650-328q0 21.53-5.28 42.11-5.29 20.59-14.29 40.15-7.83 17.42-14.13 35.62-6.3 18.2-6.3 38.31 0 14.24 3.5 28.46t8.93 27.38l2.57 5.27q4.57 9.13.72 19.11-3.85 9.98-13.26 13.55-9.42 3.56-18.61.21Zm124.24 0q-9.48-3.34-13.05-12.47l-5-10.44q-8-17-11-35.03-3-18.02-3-36.23 0-22.79 5.79-44.53 5.78-21.73 16.34-42.3 7.44-16.43 12.66-33.69 5.21-17.26 5.21-35.48 0-15.83-3.5-30.57-3.5-14.73-10.5-28.73l-1-3q-4.56-9.13-.52-18.52 4.04-9.39 12.98-13.05 8.93-3.65 17.91-.3 8.98 3.34 13.55 12.47l4.23 9.24q6.77 17.33 11.05 35.61 4.28 18.28 4.28 36.85 0 21.53-5.28 42.11-5.28 20.59-14.28 40.15-8.4 17.42-14.42 35.62-6.02 18.2-6.02 38.31 0 14.24 3.22 28.46t9.22 27.38l2.56 5.27q4 9.13.15 19.11-3.84 9.98-12.97 13.55-9.13 3.56-18.61.21Zm147.56-344.34q8.7 3.34 13.26 12.47l5 9.57q8 17 11.29 35.09 3.28 18.1 3.28 37.41 0 21.2-5.28 41.76-5.29 20.57-14.29 39.57-7.83 17.63-14.13 36.08-6.3 18.46-6.3 38.23 0 14.42 3.5 28.64t8.93 27.38l2.57 5.27q1.56 3.13-4.44 10.48-6 7.35-11.56 13.92-5.57 6.56-6.63 9.63-1.07 3.06 10.37-1.37-9.7 3.56-18.89.21-9.2-3.34-12.76-12.47l-5-10.44q-8-17-11.29-35.03Q810-153.79 810-172q0-22.79 6.07-44.53 6.06-21.73 16.06-42.3 8-16.43 12.94-33.69Q850-309.78 850-328q0-15.83-3.22-30.57-3.21-14.73-10.21-28.73l-1-3q-4.57-9.13-.81-18.52 3.76-9.39 12.98-13.05 9.22-3.65 17.91-.3Z"/></svg>