<svg xmlns="http://www.w3.org/2000/svg" width="48" height="48" viewBox="0 -960 960 960"><path d="M268.782-196.042q-52.434 0-83.5 30.152-31.065 30.152-79.239 44.283-14.826 4.696-26.935-5.348Q67-136.999 67-154.521q0-16.956 11.327-29.783 11.326-12.826 27.717-20.652 37.305-17.131 69.087-44.283 31.783-27.152 93.652-27.152 37.955 0 64.891 12.783 26.936 12.782 48.872 28.348 21.936 15.565 44.655 28.348 22.719 12.782 52.671 12.782 30.518 0 52.954-12.782 22.436-12.783 44.372-28.348 21.936-15.566 48.913-28.348 26.977-12.783 65.108-12.783 61.869 0 92.652 27.152 30.782 27.152 69.087 44.283 16.391 7.826 28.217 20.435 11.827 12.609 11.827 30.566 0 17.522-12.609 27.283-12.609 9.761-27.435 5.065-48.174-14.131-78.739-44.283-30.566-30.152-83-30.152-30.566 0-53.631 12.783-23.065 12.782-45.287 28.065-22.222 15.283-48.696 28.065-26.474 12.783-63.657 12.783-37.183 0-63.478-12.783-26.295-12.782-48.643-28.065-22.348-15.283-45.368-28.065-23.02-12.783-53.676-12.783Zm0-190.131q-52.434 0-83.5 30.435-31.065 30.434-79.239 44.565-14.826 4.696-26.935-5.348Q67-326.565 67-344.087q0-16.956 11.327-30.065 11.326-13.109 27.717-20.935 37.305-17.131 69.087-44 31.783-26.87 93.652-26.87 37.955 0 64.891 12.783 26.936 12.783 48.872 28.065 21.936 15.283 44.655 28.065 22.719 12.783 52.671 12.783 30.518 0 52.954-12.783 22.436-12.782 44.372-28.065 21.936-15.282 48.913-28.065 26.977-12.783 65.108-12.783 61.869 0 92.652 26.87 30.782 26.869 69.087 44 16.391 7.826 28.217 20.435 11.827 12.609 11.827 30.565 0 16.522-12.827 26.566-12.826 10.044-27.217 5.348-48.174-16.131-78.739-45.065-30.566-28.935-83-28.935-30.566 0-53.238 12.979-22.672 12.98-45.344 28.439-22.673 15.459-49.089 28.151Q517.13-303.912 480-303.912t-63.543-12.692q-26.412-12.692-48.584-28.151-22.172-15.459-45.349-28.439-23.176-12.979-53.742-12.979Zm0-189.566q-52.434 0-83.5 30.435-31.065 30.434-79.239 44.565-14.826 4.696-26.935-5.348Q67-516.13 67-533.652q0-16.957 11.827-29.349 11.826-12.391 27.217-19.652 37.305-15.696 69.087-44.283 31.783-28.587 93.652-28.587 37.955 0 64.891 12.783 26.936 12.783 48.872 28.065 21.936 15.283 44.655 28.066 22.719 12.782 52.671 12.782 30.518 0 52.954-12.782 22.436-12.783 44.372-28.066 21.936-15.282 48.913-28.065 26.977-12.783 65.108-12.783 61.869 0 92.652 28.587 30.782 28.587 69.087 44.283 16.391 7.261 28.217 19.652 11.827 12.392 11.827 29.349 0 17.522-12.609 27.565-12.609 10.044-27.435 5.348-48.174-14.131-78.739-44.565-30.566-30.435-83-30.435-30.566 0-53.631 12.939t-45.413 28.348q-22.348 15.409-48.643 28.191-26.295 12.783-63.478 12.783t-63.596-12.692q-26.412-12.692-48.584-28.151-22.172-15.459-45.349-28.439-23.176-12.979-53.742-12.979Zm0-189.566q-52.434 0-83.5 30.435-31.065 30.435-79.239 44.565-14.826 4.696-26.935-5.348Q67-705.696 67-723.218q0-16.957 11.327-30.066 11.326-13.109 27.717-20.935 37.305-17.131 69.087-44.283 31.783-27.152 93.652-27.152 37.955 0 64.891 13.065 26.936 13.066 48.872 28.348 21.936 15.283 44.655 28.066 22.719 12.782 52.671 12.782 30.518 0 52.954-12.782 22.436-12.783 44.501-28.066 22.065-15.282 48.913-28.348 26.848-13.065 64.979-13.065 61.869 0 92.652 27.152 30.782 27.152 69.087 44.283 16.391 7.826 28.217 20.435 11.827 12.609 11.827 30.566 0 17.522-12.609 27.565-12.609 10.044-27.435 5.348-48.174-14.13-78.739-44.565-30.566-30.435-83-30.435-30.566 0-53.631 12.939t-45.413 28.348q-22.348 15.409-48.643 28.191-26.295 12.783-63.478 12.783t-63.596-12.692q-26.412-12.691-48.584-28.151-22.172-15.459-45.349-28.438-23.176-12.98-53.742-12.98Z"/></svg>