<svg xmlns="http://www.w3.org/2000/svg" width="48" height="48" viewBox="0 -960 960 960"><path d="M687.82-23.608q-16.603 0-28.429-11.53Q647.565-46.665 647.565-63q0-16.538 11.451-28.182 11.451-11.644 28.723-11.644 71.435 0 120.717-49.5 49.283-49.5 49.283-120.5 0-16.75 11.322-27.897 11.323-11.147 27.363-11.147 16.316 0 28.142 11.427 11.826 11.428 11.826 27.617 0 103.974-72.715 176.596T687.82-23.608ZM62.553-646.565q-16.394 0-27.67-11.826-11.275-11.826-11.275-28.338 0-103.024 72.745-176.343 72.744-73.32 176.473-73.32 16.604 0 28.324 11.826 11.72 11.826 11.72 28.142t-11.147 27.5q-11.147 11.185-27.897 11.185-70.537 0-120.769 49.783-50.231 49.782-50.231 120.217 0 17.697-11.783 29.436-11.784 11.738-28.49 11.738Zm697.36-127.606q10.696 10.655 10.414 24.674-.283 14.019-10.414 24.715L517.349-482.783q-10.696 10.131-25.057 9.997-14.361-.135-24.291-10.735-10.696-10.377-10.696-24.646 0-14.268 10.874-25.143L710-774.13q10.696-10.696 24.957-10.696 14.261 0 24.956 10.655Zm76.566 134.233q10.695 10.627 10.695 24.391 0 13.765-10.695 24.46l-214 214q-10.695 10.696-24.674 10.196-13.978-.5-24.674-11.37-10.696-11.05-10.413-25.047.283-13.997 10.978-24.693L786.13-640.435q10.198-10.13 24.925-10.13 14.728 0 25.424 10.627Zm-655.61 459.026q-94.957-94.957-96.87-228.175-1.913-133.217 92.478-227.609l106.088-106.087q12.083-11.826 28.194-11.826 16.111 0 27.937 11.826l11.391 11.391q15.025 14.877 23.839 34.809 8.813 19.931 9.248 37.887l164.13-164.565q10.763-10.696 25.208-10.696 14.445 0 25.14 10.347 10.696 10.347 10.696 25.118 0 14.77-10.696 25.579L397.479-573.304l-55.956 57.086 18.086 17.522q43.131 43.663 42.761 104.723-.369 61.06-44.134 104.824l-.931.931q-10.555 10.696-24.886 10.196-14.332-.5-24.462-10.542-10.696-11.571-10.696-25.84t10.696-24.162l1.565-1.565q23.304-23.304 22.674-54.826-.631-31.522-22.935-53.826L269.609-489q-12.391-11.931-12.391-28.335 0-16.405 12.391-28.231l42.434-41.999q16.435-17 15.87-41.652-.565-24.653-17.565-41.653l-83.957 84.522q-74.131 73.566-71.935 177.261 2.196 103.696 76.326 177.827 74 74 177 75.5t176.44-71.941l243.952-243.386q10.875-10.695 25.264-10.695 14.388 0 24.801 10.538 10.413 10.537 10.413 24.617t-10.13 24.889L635.261-178.477Q540.87-84.086 408.348-85.021q-132.522-.934-227.479-95.891Zm225.479-224.914Z"/></svg>