<svg xmlns="http://www.w3.org/2000/svg" width="48" height="48" viewBox="0 96 960 960"><path d="m493.522 1017.13-34.392-34.956q-6.13-6.233-6.13-14.442 0-8.21 6.13-14.341l34.392-34.956q6.233-6.131 14.443-6.131 8.209 0 14.34 6.131l34.957 34.956q6.13 6.234 6.13 14.443 0 8.21-6.13 14.34l-34.957 34.956q-6.233 6.13-14.443 6.13t-14.34-6.13Zm-148.87-59.999-17.9-18.018q-6.187-6.237-6.187-13.914t6.13-13.808l92.957-92.956q5.565-6.131 13.473-6.131 7.909 0 14.31 6.131l17.504 18.018q6.018 6.237 6.018 13.914t-6.131 13.807l-92.391 92.957q-6.401 6.131-14.31 6.131-7.908 0-13.473-6.131Zm268.87-60-34.392-34.957q-6.13-6.233-6.13-14.442 0-8.21 6.13-14.341l34.392-34.956q6.233-6.131 14.443-6.131 8.209 0 14.34 6.131l34.957 34.956q6.13 6.234 6.13 14.443 0 8.21-6.13 14.34l-34.957 34.957q-6.233 6.131-14.443 6.131t-14.34-6.131Zm-384.871 0-34.957-34.957q-6.13-6.233-6.13-14.442 0-8.21 6.13-14.341l34.957-34.956q6.233-6.131 14.443-6.131t14.34 6.131l34.957 34.956q6.13 6.234 6.13 14.443 0 8.21-6.13 14.34l-34.957 34.957q-6.233 6.131-14.443 6.131-8.209 0-14.34-6.131ZM290 719.391q-90.684 0-155.147-64.608-64.462-64.609-64.462-155.001 0-81.826 57.348-146.087t143.043-71.957q33.898-56 88.03-89.065 54.131-33.065 121.078-33.065 92.24 0 155.719 57.783 63.478 57.782 80.304 143.347 80.696 6.261 127.196 58.006t46.5 120.763q0 74.232-52.185 127.058Q785.239 719.391 710 719.391H290Zm0-79.783h420q41.772 0 71.081-29.391 29.31-29.391 29.31-70.435 0-42.043-29.31-71.217-29.309-29.174-71.081-29.174h-69.609v-39.609q0-67.311-46.54-113.851-46.539-46.54-113.851-46.54-47.966 0-88.117 25.981-40.15 25.981-58.839 69.802l-10.584 24.217h-33.895q-58.313 2.049-98.635 42.573-40.321 40.525-40.321 97.818 0 57.519 41.174 98.672 41.174 41.154 99.217 41.154Zm190-199.826Z"/></svg>