<svg xmlns="http://www.w3.org/2000/svg" width="48" height="48" viewBox="0 96 960 960"><path d="m879.696 873.87-64.783-64.219v-395.52h-395.52L247.13 241.304h567.783q32.478 0 56.131 23.652 23.652 23.653 23.652 56.131v509.826q0 12.696-4.282 23.261-4.283 10.565-10.718 19.696Zm-62.609 126.48-90.652-90.219H145.087q-32.478 0-55.848-23.37-23.37-23.37-23.37-55.848V321.087q0-29.087 19.696-51.609 19.695-22.522 47.652-26.479h20v94.479L47 231.261q-9.565-9.565-9.565-23.478 0-13.913 10.13-24.044 9.566-9.565 23.196-9.565t23.761 9.565l770.087 769.522q9.565 10.13 9.565 23.544 0 13.413-10.13 23.545-9.565 9.56-23.196 9.56-13.63 0-23.761-9.56Zm-672-169.437h501.565L230.435 414.131h-85.348v416.782Z"/></svg>