<svg xmlns="http://www.w3.org/2000/svg" width="48" height="48" viewBox="0 96 960 960"><path d="M260.08 318.609q-32.906 0-56.102-23.399-23.196-23.399-23.196-55.74 0-32.905 23.116-56.384 23.116-23.478 56.022-23.478t56.102 23.399q23.196 23.398 23.196 56.304 0 32.341-23.116 55.819-23.116 23.479-56.022 23.479Zm-39.689 661.913q-16.707 0-28.158-11.451t-11.451-28.158V702.218h-40.391q-16.707 0-28.158-11.452-11.451-11.451-11.451-28.157V458.827q0-32.664 23.277-55.941 23.278-23.277 55.941-23.277h159.435q34.359 0 57.071 21.016 22.712 21.016 22.712 52.549v97.564q-65.131 31.305-103.283 93.957Q277.782 707.348 277.782 780q0 42.261 11.566 76.891 11.565 34.631 27.261 58.761v64.87h-96.218ZM540 982.218q-84.166 0-143.192-58.696Q337.782 864.826 337.782 780q0-64.522 42.588-124.544 42.587-60.022 122.631-73.5v77.305q-43.261 10.609-68.022 47.174-24.761 36.565-24.761 73.879 0 54.275 37.971 91.871Q486.16 909.782 540 909.782q55.478 0 93.434-43.043 37.957-43.043 29.218-104.521h73.566q10.739 85-49.457 152.5T540 982.218Zm311.131-112.827-91.739-137.173H573.175q-17.272 0-28.723-11.452-11.451-11.451-11.451-28.157V456q0-15.011 10.653-25.614 10.654-10.604 26.305-10.604 15.086 0 25.564 10.604 10.478 10.603 10.478 25.614v203.782h172.522q10.261 0 18.522 4.348t14.956 12.609l99.87 151.87q8.696 13.261 5.848 27.804-2.848 14.544-15.544 23.239-13.826 8.131-28.37 5.566-14.543-2.566-22.674-15.827Z"/></svg>