<svg xmlns="http://www.w3.org/2000/svg" width="48" height="48" viewBox="0 -960 960 960"><path d="M608.83-601.33q-39.87 14.72-73.44 40.72-11.69 9.13-25.89 9.13-14.2 0-24.61-10.41t-9.41-24.83q1-14.41 12.13-23.54 43.13-34.57 95.86-54.41Q636.2-684.52 694-684.52q57.79 0 110.03 19.85 52.23 19.84 95.36 54.41 11.13 9.13 11.63 23.54.5 14.42-10.19 24.55-10.13 10.13-23.83 10.41-13.7.28-25.39-8.85-33.57-26-74.06-40.72-40.48-14.71-84.67-14.71-44.18 0-84.05 14.71Zm46.65 111q-18.65 5.72-35.09 16.16-11.96 8.13-25.52 7.63-13.57-.5-23.7-10.35-10.69-10.41-10.19-24.39t12.19-22.55q25.57-18.56 56.02-29.63 30.45-11.06 63.81-11.06 33.37 0 64.25 11.06 30.88 11.07 57.58 29.63 11.13 8.57 11.91 22.55.78 13.98-9.91 24.39-10.13 9.85-24.11 9.85-13.98 0-26.11-7.57-16.44-10.43-34.71-15.93t-38.02-5.5q-19.75 0-38.4 5.71Zm6.35 123.07q-12.92-12.9-12.92-31.89 0-18.98 13.02-32.18 13.03-13.19 32.18-13.19t32.06 13.19q12.92 13.2 12.92 32.18 0 18.99-13.02 31.89-13.03 12.91-32.18 12.91t-32.06-12.91ZM480.28-60.78q-34.98 0-59.89-24.87-24.91-24.86-24.91-60.22h169.61q0 35.26-24.92 60.18-24.91 24.91-59.89 24.91Zm-259.5-204.31v-289.87q0-88.91 51.48-160.58 51.48-71.68 138.13-90.37v-18.61q0-29.48 20.33-49.83Q451.04-894.7 480-894.7t49.28 20.35q20.33 20.35 20.33 49.83v43.48q11.56 2 21.78 5.5t20.22 8.5q7.99 3.09 8.69 9.29.7 6.2-2.6 11.92-3.31 16.09-16.44 24.2t-31.14.67q-15.12-8-33.29-11-18.18-3-36.83-3-75 0-127.5 52.79Q300-629.39 300-554.96v289.87h474.52q16.64 0 28.41 11.5 11.77 11.51 11.77 28.29t-11.77 28.1q-11.77 11.33-28.41 11.33H185.48q-16.71 0-28.16-11.5t-11.45-28.28q0-16.78 11.45-28.11 11.45-11.33 28.16-11.33h35.3Zm288.74-234.65Z"/></svg>