<svg xmlns="http://www.w3.org/2000/svg" width="48" height="48" viewBox="0 -960 960 960"><path d="M704.522-184.522h41.521v-41.521h-41.521v41.521Zm0-110h41.521v-41.521h-41.521v41.521Zm110 110h41.521v-41.521h-41.521v41.521Zm-132.554 78.653q-19.244 0-32.584-13.34-13.341-13.341-13.341-32.585v-195.858q0-19.565 13.401-33.13 13.4-13.566 32.73-13.566h85.652q19.565 0 33.131 13.566 13.565 13.565 13.565 33.13v63.304h63.304q19.565 0 33.131 13.566 13.565 13.565 13.565 33.13v85.653q0 19.329-13.565 32.73-13.566 13.4-33.131 13.4H681.968Zm-202.1-5.781q-9.738 0-19.607-3.718-9.87-3.717-17.779-11.979L56.479-537.869q-10.696-11.826-16.544-26.935-5.848-15.109-5.848-29.935 0-17.391 7.215-33.295 7.216-15.904 21.003-27.706Q152.609-726.913 258-767.131q105.391-40.217 222.018-40.217 118.322 0 224.543 41.065t197.091 113.935q13.826 11.261 20.457 25.098 6.63 13.837 6.63 31.087 0 13.554-5.348 27.815-5.348 14.261-15.913 25.957l-65.521 65.521q-5.984 6.602-14.253 8.432-8.269 1.829-16.965.395-19.652-4.566-39.24-3.87-19.587.696-38.674 4.087-77.087 11.044-130.586 67.653-53.5 56.608-59.457 135.391-1.695 20.217-.413 40.181 1.283 19.965 8.109 38.298 2.565 8.696 1.451 16.829-1.115 8.133-6.886 14.954l-27 27q-8.434 8.435-18.436 12.152-10.002 3.718-19.739 3.718Z"/></svg>