<svg xmlns="http://www.w3.org/2000/svg" width="48" height="48" viewBox="0 0 48 48"><path d="M36.75 37.55h-4q-.85 0-1.425-.575-.575-.575-.575-1.425 0-.85.575-1.425.575-.575 1.425-.575h4v-4q0-.85.575-1.425.575-.575 1.425-.575.8 0 1.4.575.6.575.6 1.425v4h4q.8 0 1.4.575.6.575.6 1.425 0 .85-.6 1.425-.6.575-1.4.575h-4v4q0 .85-.6 1.425-.6.575-1.45.575-.8 0-1.375-.575t-.575-1.425ZM22.55 42 1.35 19.45q-.55-.6-.525-1.425.025-.825.625-1.375 4.8-4.15 10.475-6.575T24 7.65q6.45 0 12.1 2.4 5.65 2.4 10.45 6.6.65.55.65 1.375t-.55 1.425l-5 5.2q-.8-.2-1.575-.275Q39.3 24.3 38.5 24.3q-.45 0-.925.05-.475.05-.925.1l5.7-5.95q-4.1-3.2-8.65-5.05-4.55-1.85-9.7-1.85-5.15 0-9.7 1.85-4.55 1.85-8.65 5.05L24 37.8l3.5-3.55v1.05q0 1.1.175 2.075.175.975.525 1.875L25.45 42q-.55.65-1.45.65-.9 0-1.45-.65ZM24 24.7Z"/></svg>