<svg xmlns="http://www.w3.org/2000/svg" width="48" height="48" viewBox="0 -960 960 960"><path d="M751.739 0q-15.869 0-26.804-10.935Q714-21.869 714-37.739v-122.522q0-15.869 10.935-26.804Q735.87-198 751.739-198H755v-39q0-35 23.5-58.5T837-319q35 0 58.5 23.5T919-237v39h3.261q15.869 0 26.804 10.935Q960-176.13 960-160.261v122.522q0 15.87-10.935 26.804Q938.13 0 922.261 0H751.739ZM795-198h84v-39q0-19-11.5-30.5T837-279q-19 0-30.5 11.5T795-237v39Zm-315 71q-36 0-63-27t-27-63q0-36 27-63t63-27q36 0 63 27t27 63q0 36-27 63t-63 27Zm0-433q76.304 0 142.891 26.37 66.587 26.369 129.587 79.239 15.696 13.13 16.696 34.174 1 21.043-14.131 36.174-15.695 15.695-36.522 15.543-20.826-.152-38.652-12.717-50.739-41.174-100-58.478-49.26-17.304-99.869-17.304-50.043 0-99.304 17.304t-100 57.913q-17.826 12.565-38.935 13.282-21.109.718-36.239-14.978-15.696-15.131-14.696-36.174 1-21.044 16.696-34.174 63-52.87 129.587-79.522Q403.696-560 480-560Zm0-240q126.304 0 238.674 47.37 112.369 47.369 202.239 126.673 16.261 14.131 17.761 35.457t-13.631 36.457q-15.695 15.695-38.022 15.761-22.326.065-40.152-14.066-80.739-66.608-171.5-105.63-90.76-39.021-195.369-39.021t-195.369 39.021q-90.761 39.022-171.5 105.63-17.826 14.131-39.37 14.066-21.543-.066-37.239-15.761-15.696-15.131-14.696-36.457t17.261-35.457q89.87-79.304 202.239-126.673Q353.696-800 480-800Z"/></svg>