<svg xmlns="http://www.w3.org/2000/svg" width="48" height="48" viewBox="0 96 960 960"><path d="M241.044 708.044 169 636.565q70-70 146.5-105.282Q392 496 480 496t164.5 35Q721 566 791 636l-72.044 72.044q-61-59.87-119.608-84.456Q540.739 599.001 480 599.001t-119.348 24.587q-58.608 24.586-119.608 84.456Zm-169-169L0 467q93-95 216.5-153T480 256q140 0 263.5 58T960 467l-72.044 72.044q-88-82.304-188.826-131.174Q598.304 359.001 480 359.001T260.87 407.87Q160.044 456.74 72.044 539.044ZM480 947l148-149q-29-29-66.5-45.5T480 736q-44 0-81.5 16.5T332 798l148 149Z"/></svg>