<svg xmlns="http://www.w3.org/2000/svg" width="48" height="48" viewBox="0 -960 960 960"><path d="M229.609-110.391q-32.663 0-55.941-23.277-23.277-23.278-23.277-55.941v-580.782q0-32.663 23.277-55.941 23.278-23.277 55.941-23.277h500.782q32.663 0 55.941 23.277 23.277 23.278 23.277 55.941v580.782q0 32.663-23.277 55.941-23.278 23.277-55.941 23.277H229.609Zm30-409.218h170.782v-20.478q0-7.696 5.986-13.609t13.968-5.913h59.908q7.53 0 13.443 5.913 5.913 5.913 5.913 13.609v20.478h170.782v-220.782H259.609v220.782Zm-30 330h500.782v-580.782H229.609v580.782Z"/></svg>