<svg xmlns="http://www.w3.org/2000/svg" width="48" height="48" viewBox="0 -960 960 960"><path d="M386.218-727.913h187.564v-100H386.218v100ZM720-47q-79 0-136-57t-57-136q0-79 57-136t136-57q79 0 136 57t57 136q0 79-57 136T720-47Zm-574.913-58.869q-32.507 0-55.862-23.356-23.356-23.355-23.356-55.862V-648.13q0-32.74 23.356-56.262 23.355-23.521 55.862-23.521h161.912v-100q0-31.507 23.356-55.363 23.356-23.856 55.863-23.856h187.564q32.507 0 55.863 23.856t23.356 55.363v100h161.912q32.74 0 56.262 23.521 23.521 23.522 23.521 56.262v225q-36.261-33.652-80.652-51.761Q769.652-493 720-493q-104 0-178.5 74.5T467-240q0 39.522 9.478 69.913 9.479 30.392 29.435 64.218H145.087Zm557.087-85.61-61.913-61.347q-5.565-5.565-12.261-5.565-6.696 0-12.261 5.565-5 5-5 12.196 0 7.195 5 12.76l75.913 77.479q12.032 11.826 28.451 11.826t28.245-11.826l77.478-77.479q5.565-5.822 5.283-12.606-.283-6.785-5.848-12.35-5.565-5.565-12.761-5.565-7.196 0-12.761 5.565l-61.348 61.347V-340.13q0-7.244-5.291-12.535-5.291-5.292-12.535-5.292-7.695 0-13.043 5.292-5.348 5.291-5.348 12.535v148.651Z"/></svg>