<svg xmlns="http://www.w3.org/2000/svg" width="48" height="48" viewBox="0 -960 960 960"><path d="M236.695-256.825H62.652q-16.707 0-28.158-11.451t-11.451-28.158v-373.35q0-16.706 11.45-28.158 11.452-11.451 28.159-11.451h168.174l45.087-45.521q16.756-16.02 38.691-25.25 21.935-9.229 45.658-9.229h417.086q16.707 0 28.158 11.502t11.451 28.283q0 17.346-11.451 28.673-11.451 11.326-28.158 11.326H559.26v76.521h298.088q16.707 0 28.158 11.502 11.451 11.501 11.451 28.283 0 16.781-11.451 28.107t-28.158 11.326H559.26v81.522h338.088q16.707 0 28.158 11.501 11.451 11.502 11.451 28.283 0 17.347-11.451 28.673-11.451 11.326-28.158 11.326H559.26v76.522h258.088q16.707 0 28.158 11.501 11.451 11.502 11.451 28.283 0 16.782-11.451 28.108t-28.158 11.326H489.914l16.174 33.913q9.608 28.261.717 57.044-8.892 28.782-31.153 47.652l-15.217 13.522Q448.609-74 433.217-74.564q-15.391-.565-26.652-11.826l-169.87-170.435Z"/></svg>