<svg xmlns="http://www.w3.org/2000/svg" width="48" height="48" viewBox="0 96 960 960"><path d="M145.478 457.87q-16.707 0-28.441-11.501-11.733-11.502-11.733-28.283 0-16.782 11.451-28.391 11.451-11.608 28.158-11.608h80.608L115.913 269.044q-11.826-11.826-11.326-28.566.5-16.739 12.326-28.565t28.283-11.826q16.456 0 28.283 11.826l108.608 109.608v-80.043q0-16.707 11.501-28.441 11.502-11.733 28.283-11.733t28.108 11.733q11.326 11.734 11.326 28.441v176.783q0 16.707-11.451 28.158-11.452 11.451-28.158 11.451H145.478Zm669.044 0H637.739q-16.707 0-28.158-11.451t-11.451-28.158V241.478q0-16.707 11.501-28.441 11.502-11.733 28.283-11.733 16.782 0 28.391 11.733 11.608 11.734 11.608 28.441v80.043l110.043-110.608q11.826-11.826 28.283-11.826t28.283 11.826q11.826 11.826 11.826 28.565 0 16.74-11.826 28.566L734.479 378.087h80.043q16.707 0 28.158 11.784t11.451 28.565q0 16.782-11.451 28.108t-28.158 11.326ZM116.913 938.522q-11.826-11.826-11.826-28.283t11.826-28.283l108.608-108.608h-80.043q-16.707 0-28.158-11.501-11.451-11.502-11.451-28.283 0-16.782 11.451-28.108t28.158-11.326h176.218q16.706 0 28.158 11.451 11.451 11.451 11.451 28.158v176.783q0 16.707-11.502 28.158-11.501 11.451-28.283 11.451-16.781 0-28.107-11.451t-11.326-28.158v-80.043L172.479 939.522q-11.827 11.826-27.783 11.326-15.957-.5-27.783-12.326Zm520.651 11.609q-16.782 0-28.108-11.451t-11.326-28.158V733.739q0-16.707 11.451-28.158t28.158-11.451h176.783q16.707 0 28.158 11.501 11.451 11.502 11.451 28.283 0 16.782-11.451 28.108t-28.158 11.326h-80.043l109.043 109.608q11.826 11.826 11.826 27.783t-11.826 27.783q-11.826 11.826-28.283 11.826t-28.283-11.826L677.913 830.479v80.043q0 16.707-11.784 28.158t-28.565 11.451Z"/></svg>